<?xml version="1.0" encoding="UTF-8"?>
<svg xmlns="http://www.w3.org/2000/svg" xmlns:xlink="http://www.w3.org/1999/xlink" width="430px" height="430px" viewBox="0 0 430 430" version="1.1">
<g id="surface1">
<rect x="0" y="0" width="430" height="430" style="fill:rgb(0%,0%,0%);fill-opacity:1;stroke:none;"/>
<path style=" stroke:none;fill-rule:nonzero;fill:rgb(1.176471%,75.686276%,17.647059%);fill-opacity:1;" d="M 131.855469 115.058594 C 134.78125 115.058594 136.402344 118.417969 138.574219 118.417969 C 138.699219 118.417969 149.175781 113.378906 151.171875 113.378906 C 151.171875 113.378906 152.011719 112.539062 152.011719 112.539062 C 153.628906 112.539062 156.210938 109.957031 156.210938 108.339844 C 156.210938 106.945312 156.871094 105.820312 159.570312 105.820312 C 159.570312 105.820312 164.1875 103.300781 164.1875 103.300781 C 164.1875 103.300781 166.289062 100.78125 166.289062 100.78125 C 166.289062 97.589844 173.238281 94.863281 174.6875 91.960938 C 176.492188 88.351562 175.527344 85.453125 175.527344 82.726562 C 175.527344 82.726562 172.585938 81.464844 172.585938 81.464844 C 171 79.875 172.6875 78.574219 170.070312 77.265625 C 170.070312 77.265625 167.546875 78.105469 167.546875 78.105469 C 166.886719 78.105469 161.707031 76.023438 160.828125 75.585938 C 160.828125 75.585938 159.148438 72.226562 159.148438 72.226562 C 158.574219 71.9375 148.152344 67.648438 145.710938 68.867188 C 140.058594 71.695312 133.605469 72.820312 128.078125 75.585938 C 128.078125 75.585938 112.960938 83.984375 112.960938 83.984375 C 107.597656 86.664062 105.367188 93.238281 100.359375 95.742188 C 96.535156 97.65625 84.769531 105.511719 83.144531 108.757812 C 80.027344 114.992188 67.1875 116.523438 67.1875 123.457031 C 85.382812 123.457031 89.550781 122.144531 105.398438 114.21875 C 108.160156 112.839844 111.792969 113.121094 114.640625 111.699219 C 114.640625 111.699219 118.835938 111.699219 118.835938 111.699219 C 123.890625 109.171875 131.855469 108.714844 131.855469 115.058594 Z M 131.855469 115.058594 "/>
<path style=" stroke:none;fill-rule:nonzero;fill:rgb(1.176471%,75.686276%,17.647059%);fill-opacity:1;" d="M 240.195312 68.867188 C 240.195312 70.640625 244.871094 68.867188 240.195312 68.867188 Z M 240.195312 68.867188 "/>
<path style=" stroke:none;fill-rule:nonzero;fill:rgb(1.176471%,75.686276%,17.647059%);fill-opacity:1;" d="M 271.269531 115.058594 C 271.269531 113.484375 270.429688 110.757812 270.429688 109.601562 C 270.429688 109.164062 275.34375 107.773438 275.890625 107.5 C 277.089844 106.898438 290.878906 108.277344 292.6875 109.179688 C 305.515625 115.59375 321.847656 114.523438 334.679688 120.9375 L 340.136719 120.097656 C 340.136719 117.347656 332.625 108.152344 327.960938 105.820312 C 327.960938 105.820312 325.4375 105.820312 325.4375 105.820312 C 325.4375 105.820312 321.242188 100.78125 321.242188 100.78125 C 321.242188 100.78125 318.71875 100.78125 318.71875 100.78125 C 317.109375 99.976562 318.015625 98.949219 317.460938 97.84375 C 316.558594 96.039062 313.417969 96.472656 313.261719 96.164062 C 312.683594 95.007812 304.136719 85.929688 301.921875 84.824219 C 299.542969 83.632812 298.007812 84.125 296.046875 83.144531 C 293.078125 81.660156 290.003906 77.183594 286.804688 75.585938 C 286.804688 75.585938 281.765625 76.425781 281.765625 76.425781 C 281.765625 76.425781 278.40625 71.386719 278.40625 71.386719 C 275.628906 69.996094 272.050781 70.308594 269.171875 68.867188 C 266.542969 67.554688 241.964844 69.453125 239.773438 70.546875 C 239.054688 70.90625 240.710938 72.179688 238.9375 73.066406 C 237.523438 73.773438 231.796875 75.636719 231.796875 77.6875 C 231.796875 77.6875 233.476562 78.523438 233.476562 78.523438 C 234.574219 80.71875 232.636719 84.554688 232.636719 85.242188 C 232.636719 87.78125 236.421875 89.457031 237.675781 91.960938 C 237.675781 91.960938 236.835938 95.320312 236.835938 95.320312 C 237.382812 96.414062 243.554688 98.289062 243.554688 101.621094 C 243.554688 103.675781 252.445312 105.855469 254.054688 106.660156 C 257.34375 108.304688 260.078125 110.933594 263.289062 112.539062 C 263.289062 112.539062 264.550781 115.058594 264.550781 115.058594 C 267.449219 115.058594 268.550781 115.058594 271.269531 115.058594 Z M 271.269531 115.058594 "/>
<path style=" stroke:none;fill-rule:nonzero;fill:rgb(85.490197%,66.666669%,24.313726%);fill-opacity:1;" d="M 196.523438 88.183594 L 188.964844 92.804688 C 188.609375 93.515625 190.160156 101.074219 190.644531 102.039062 C 196.003906 112.761719 213.058594 106.765625 216.679688 99.523438 C 217.671875 97.539062 221.957031 94.960938 220.039062 91.125 L 218.78125 91.542969 L 217.9375 89.863281 C 217.023438 89.863281 208.929688 91.238281 207.859375 90.703125 C 205.976562 89.761719 201.667969 89.179688 200.304688 89.863281 C 198.421875 90.804688 198.292969 88.183594 196.523438 88.183594 Z M 196.523438 88.183594 "/>
<path style=" stroke:none;fill-rule:nonzero;fill:rgb(93.333334%,18.431373%,17.254902%);fill-opacity:1;" d="M 175.527344 167.96875 L 169.226562 173.007812 C 164.695312 175.273438 159.4375 175.804688 154.953125 178.046875 C 147.441406 181.800781 139.46875 173.847656 133.535156 173.847656 C 133.535156 173.847656 130.175781 167.546875 130.175781 167.546875 C 129.4375 166.074219 132.140625 137.585938 133.535156 134.796875 C 133.535156 134.796875 136.894531 132.273438 136.894531 132.273438 C 139.121094 127.824219 141.003906 124.054688 142.773438 120.515625 C 144.007812 118.046875 151.171875 116.320312 151.171875 113.378906 C 151.171875 113.378906 152.011719 112.539062 152.011719 112.539062 C 153.628906 112.539062 156.210938 109.957031 156.210938 108.339844 C 157.941406 108.339844 159.570312 107.582031 159.570312 105.820312 C 159.570312 105.820312 164.1875 103.300781 164.1875 103.300781 C 164.1875 103.300781 166.289062 100.78125 166.289062 100.78125 C 169.429688 100.78125 179.222656 97.800781 183.507812 99.941406 C 186.714844 101.546875 191.734375 107.835938 194.421875 109.179688 C 197.804688 110.871094 202.402344 113.332031 202.402344 117.578125 C 202.402344 117.578125 203.242188 122.617188 203.242188 122.617188 C 201.246094 122.617188 199.515625 130.960938 197.363281 133.117188 C 194.199219 136.28125 179.726562 158.699219 179.726562 161.671875 C 179.726562 161.671875 175.527344 167.96875 175.527344 167.96875 Z M 175.527344 167.96875 "/>
<path style=" stroke:none;fill-rule:nonzero;fill:rgb(93.333334%,18.431373%,17.254902%);fill-opacity:1;" d="M 235.996094 168.808594 C 236.550781 168.808594 254.753906 176.296875 256.570312 177.207031 C 263.339844 180.589844 271.195312 169.648438 276.308594 169.648438 C 276.308594 169.019531 281.347656 162.859375 281.347656 157.890625 C 281.347656 157.890625 280.507812 144.03125 280.507812 144.03125 C 280.507812 142.960938 281.066406 139.414062 279.667969 139.414062 C 279.667969 141.253906 275.46875 135.714844 275.46875 133.535156 C 275.46875 133.535156 275.46875 131.855469 275.46875 131.855469 C 275.46875 131.855469 274.628906 131.015625 274.628906 131.015625 C 274.628906 129.53125 271.523438 121.777344 270.429688 121.777344 C 267.941406 121.777344 264.550781 117.207031 264.550781 115.058594 C 264.550781 115.058594 263.289062 112.539062 263.289062 112.539062 C 260.078125 110.933594 257.34375 108.304688 254.054688 106.660156 C 252.445312 105.855469 243.554688 103.675781 243.554688 101.621094 C 239.503906 101.621094 232.585938 100.175781 229.695312 101.621094 C 225.742188 103.601562 222.359375 109.492188 217.9375 111.699219 C 216.050781 112.644531 210.800781 115.585938 210.800781 118.417969 C 210.800781 118.417969 209.960938 121.777344 209.960938 121.777344 C 213.199219 121.777344 213.921875 130.359375 215.839844 132.273438 C 218.222656 134.660156 217.824219 137.921875 219.199219 140.671875 C 221.777344 145.828125 235.996094 164.625 235.996094 168.808594 Z M 235.996094 168.808594 "/>
<path style=" stroke:none;fill-rule:nonzero;fill:rgb(1.176471%,75.686276%,17.647059%);fill-opacity:1;" d="M 215.839844 104.140625 C 215.839844 105.914062 222.046875 104.140625 215.839844 104.140625 Z M 215.839844 104.140625 "/>
<path style=" stroke:none;fill-rule:nonzero;fill:rgb(53.725493%,82.745099%,33.333334%);fill-opacity:1;" d="M 337.617188 140.253906 C 340.761719 140.253906 342.449219 145.507812 344.335938 147.390625 C 347.203125 150.261719 351.855469 152.355469 353.574219 155.789062 C 354.847656 158.339844 355.03125 163.027344 358.195312 164.609375 C 359.835938 165.429688 361.617188 163.769531 362.8125 163.769531 C 362.8125 156.503906 356.628906 149.300781 352.734375 141.515625 C 352.734375 141.515625 352.734375 137.3125 352.734375 137.3125 C 351.304688 134.457031 342.65625 123.507812 342.65625 121.777344 C 342.65625 121.777344 341.816406 120.9375 341.816406 120.9375 C 341.816406 120.9375 340.136719 120.097656 340.136719 120.097656 C 340.136719 120.097656 334.679688 120.9375 334.679688 120.9375 C 321.847656 114.523438 305.515625 115.59375 292.6875 109.179688 C 290.878906 108.277344 277.089844 106.898438 275.890625 107.5 C 275.34375 107.773438 270.429688 109.164062 270.429688 109.601562 C 270.429688 110.757812 271.269531 113.484375 271.269531 115.058594 C 271.269531 115.058594 273.367188 116.738281 273.367188 116.738281 C 276.011719 118.058594 284.027344 116.636719 285.546875 119.679688 C 286.734375 122.054688 290.707031 131.015625 293.945312 131.015625 C 293.945312 129.3125 295.625 131.101562 295.625 131.855469 C 303.117188 131.855469 310.980469 131.855469 319.140625 131.855469 C 320.019531 131.855469 321.660156 131.457031 321.660156 132.695312 C 326.890625 132.695312 331.851562 139.414062 336.777344 139.414062 C 336.777344 139.414062 337.617188 140.253906 337.617188 140.253906 Z M 337.617188 140.253906 "/>
<path style=" stroke:none;fill-rule:nonzero;fill:rgb(53.725493%,82.745099%,33.333334%);fill-opacity:1;" d="M 72.226562 142.773438 L 64.25 150.332031 C 61.167969 153.410156 55.152344 155.507812 52.910156 159.992188 C 50.613281 164.585938 46.601562 173.847656 40.3125 173.847656 C 40.3125 172.503906 37.746094 171.84375 38.632812 170.070312 C 39.878906 167.574219 42.398438 165.898438 43.671875 163.351562 C 45.628906 159.433594 45.945312 154.601562 47.871094 150.75 C 47.871094 150.75 51.230469 147.390625 51.230469 147.390625 C 53.179688 143.492188 55.101562 139.652344 57.109375 135.632812 C 59.601562 130.652344 60.316406 123.457031 67.1875 123.457031 C 85.382812 123.457031 89.550781 122.144531 105.398438 114.21875 C 108.160156 112.839844 111.792969 113.121094 114.640625 111.699219 C 114.640625 111.699219 118.835938 111.699219 118.835938 111.699219 C 123.890625 109.171875 131.855469 108.714844 131.855469 115.058594 C 117.367188 115.058594 123.746094 119.101562 119.257812 128.078125 C 118.316406 129.960938 113.378906 132.273438 113.378906 133.535156 C 108.78125 133.535156 92.722656 132.734375 89.445312 134.375 C 85.894531 136.148438 81.980469 136.847656 78.523438 138.574219 C 78.523438 138.574219 73.90625 141.933594 73.90625 141.933594 C 73.90625 141.933594 72.226562 142.773438 72.226562 142.773438 Z M 72.226562 142.773438 "/>
<path style=" stroke:none;fill-rule:nonzero;fill:rgb(86.666667%,85.09804%,31.764707%);fill-opacity:1;" d="M 112.539062 184.765625 L 113.378906 184.765625 C 117.253906 184.765625 121.792969 176.757812 123.457031 173.429688 C 123.457031 173.429688 123.457031 166.710938 123.457031 166.710938 C 126.324219 160.976562 124.757812 153.183594 127.65625 147.390625 C 127.65625 147.390625 127.65625 139.835938 127.65625 139.835938 C 130.875 133.398438 138.574219 125.945312 138.574219 118.417969 C 136.402344 118.417969 134.78125 115.058594 131.855469 115.058594 C 117.367188 115.058594 123.746094 119.101562 119.257812 128.078125 C 118.316406 129.960938 113.378906 132.273438 113.378906 133.535156 C 113.378906 141.125 113.082031 160.585938 110.019531 166.710938 C 108.667969 169.410156 106.363281 171.5 104.980469 174.265625 C 103.65625 176.917969 108.0625 184.765625 110.859375 184.765625 C 110.859375 184.765625 112.539062 184.765625 112.539062 184.765625 Z M 112.539062 184.765625 "/>
<path style=" stroke:none;fill-rule:nonzero;fill:rgb(86.666667%,85.09804%,31.764707%);fill-opacity:1;" d="M 295.625 164.609375 C 295.625 167.136719 297.933594 168.808594 298.984375 170.90625 C 301.113281 175.164062 296.464844 177.953125 296.464844 180.566406 C 287.96875 180.566406 288.367188 174.03125 284.707031 166.710938 C 284.070312 165.4375 282.703125 157.890625 281.347656 157.890625 C 281.347656 157.890625 280.507812 144.03125 280.507812 144.03125 C 280.507812 142.960938 281.066406 139.414062 279.667969 139.414062 C 279.667969 139.414062 275.46875 133.535156 275.46875 133.535156 C 275.46875 133.535156 275.46875 131.855469 275.46875 131.855469 C 275.46875 131.855469 274.628906 131.015625 274.628906 131.015625 C 274.628906 129.53125 271.523438 121.777344 270.429688 121.777344 C 270.429688 121.777344 268.75 117.15625 268.75 117.15625 C 268.75 117.15625 271.269531 115.058594 271.269531 115.058594 C 271.269531 115.058594 273.367188 116.738281 273.367188 116.738281 C 276.011719 118.058594 284.027344 116.636719 285.546875 119.679688 C 286.734375 122.054688 290.707031 131.015625 293.945312 131.015625 C 293.945312 131.015625 294.785156 132.695312 294.785156 132.695312 C 294.785156 138.136719 294.71875 140.808594 292.265625 145.710938 C 290.546875 149.152344 294.785156 160.417969 294.785156 163.769531 C 294.785156 163.769531 295.625 164.609375 295.625 164.609375 Z M 295.625 164.609375 "/>
<path style=" stroke:none;fill-rule:nonzero;fill:rgb(57.647061%,100%,15.294118%);fill-opacity:1;" d="M 209.960938 121.777344 C 208.46875 121.777344 209.660156 125.917969 207.859375 126.816406 L 203.242188 122.617188 C 203.242188 122.617188 202.402344 117.578125 202.402344 117.578125 C 204.808594 117.578125 203.679688 118.007812 206.179688 119.257812 C 206.179688 119.257812 210.800781 118.417969 210.800781 118.417969 C 210.800781 118.417969 209.960938 121.777344 209.960938 121.777344 Z M 209.960938 121.777344 "/>
<path style=" stroke:none;fill-rule:nonzero;fill:rgb(1.176471%,75.686276%,17.647059%);fill-opacity:1;" d="M 341.816406 120.9375 C 342.703125 120.9375 344.359375 121.777344 342.65625 121.777344 C 342.65625 121.777344 341.816406 120.9375 341.816406 120.9375 Z M 341.816406 120.9375 "/>
<path style=" stroke:none;fill-rule:evenodd;fill:rgb(2.745098%,100%,34.901962%);fill-opacity:1;" d="M 205.761719 143.613281 C 205.761719 143.925781 201.425781 146.828125 200.722656 148.234375 C 198.511719 152.65625 197.042969 157.273438 194.84375 161.671875 C 192.300781 166.753906 199.214844 180.023438 203.664062 182.246094 L 205.34375 185.605469 L 212.480469 176.789062 C 214.496094 172.753906 215.839844 170.648438 215.839844 166.710938 L 218.359375 165.03125 L 216.679688 162.507812 L 217.519531 157.46875 C 215.976562 154.386719 213.195312 152.183594 211.640625 149.070312 C 210.683594 147.160156 208.609375 143.613281 205.761719 143.613281 M 175.527344 167.96875 C 175.527344 179.3125 177.496094 190.578125 189.382812 196.523438 L 196.101562 198.203125 C 198.5625 199.433594 200.730469 200.308594 202.820312 202.402344 L 205.34375 204.921875 L 209.539062 199.882812 C 212.589844 198.359375 216.59375 198.035156 219.617188 196.523438 L 223.820312 192.324219 C 234.722656 186.871094 235.996094 179.550781 235.996094 168.808594 C 235.996094 164.625 221.777344 145.828125 219.199219 140.671875 C 217.824219 137.921875 218.222656 134.660156 215.839844 132.273438 C 213.921875 130.359375 213.199219 121.777344 209.960938 121.777344 C 208.46875 121.777344 209.660156 125.917969 207.859375 126.816406 C 207.859375 126.816406 203.242188 122.617188 203.242188 122.617188 C 201.246094 122.617188 199.515625 130.960938 197.363281 133.117188 C 194.199219 136.28125 179.726562 158.699219 179.726562 161.671875 C 179.726562 161.671875 175.527344 167.96875 175.527344 167.96875 Z M 175.527344 167.96875 "/>
<path style=" stroke:none;fill-rule:nonzero;fill:rgb(100%,73.333335%,5.098039%);fill-opacity:1;" d="M 362.8125 209.121094 C 358.394531 209.121094 344.703125 200.328125 343.914062 200.722656 L 333 213.320312 C 331.363281 214.136719 323.339844 216.207031 323.339844 218.359375 C 317.824219 218.359375 314.398438 216.855469 311.582031 211.21875 C 310.371094 208.800781 314.015625 206.007812 313.261719 204.5 C 313.214844 204.40625 309.195312 204.765625 308.222656 202.820312 C 306.679688 199.738281 296.464844 181.230469 296.464844 180.566406 C 296.464844 177.953125 301.113281 175.164062 298.984375 170.90625 C 297.933594 168.808594 295.625 167.136719 295.625 164.609375 C 295.625 164.609375 294.785156 163.769531 294.785156 163.769531 C 294.785156 160.417969 290.546875 149.152344 292.265625 145.710938 C 294.71875 140.808594 294.785156 138.136719 294.785156 132.695312 C 294.785156 132.695312 295.625 131.855469 295.625 131.855469 C 303.117188 131.855469 310.980469 131.855469 319.140625 131.855469 C 319.140625 133.09375 320.78125 132.695312 321.660156 132.695312 C 326.890625 132.695312 331.851562 139.414062 336.777344 139.414062 C 336.777344 139.414062 337.617188 140.253906 337.617188 140.253906 C 340.761719 140.253906 342.449219 145.507812 344.335938 147.390625 C 347.203125 150.261719 351.855469 152.355469 353.574219 155.789062 C 354.847656 158.339844 355.03125 163.027344 358.195312 164.609375 C 359.835938 165.429688 361.617188 163.769531 362.8125 163.769531 C 372.042969 163.769531 363.398438 176.203125 361.132812 178.46875 C 361.132812 178.46875 359.453125 182.664062 359.453125 182.664062 C 364.148438 192.054688 366.171875 189.949219 366.171875 201.140625 C 366.171875 204.015625 366.671875 209.121094 362.8125 209.121094 Z M 362.8125 209.121094 "/>
<path style=" stroke:none;fill-rule:nonzero;fill:rgb(100%,73.333335%,5.098039%);fill-opacity:1;" d="M 42.832031 210.800781 C 47.664062 210.800781 54.171875 207.019531 58.367188 204.921875 C 61.769531 203.222656 77.230469 218.707031 78.105469 220.460938 C 78.746094 221.738281 82.304688 225.316406 82.304688 225.917969 C 85.558594 225.917969 93.714844 217.792969 94.902344 215.421875 C 94.902344 215.421875 94.0625 209.539062 94.0625 209.539062 C 94.972656 207.722656 100.21875 208.148438 101.621094 205.34375 C 103.460938 201.660156 103.210938 197.128906 104.980469 193.585938 C 107.902344 187.742188 113.378906 192.726562 113.378906 184.765625 C 113.378906 184.765625 112.539062 184.765625 112.539062 184.765625 C 112.539062 185.941406 110.859375 185.941406 110.859375 184.765625 C 108.0625 184.765625 103.65625 176.917969 104.980469 174.265625 C 106.363281 171.5 108.667969 169.410156 110.019531 166.710938 C 113.082031 160.585938 113.378906 141.125 113.378906 133.535156 C 108.78125 133.535156 92.722656 132.734375 89.445312 134.375 C 85.894531 136.148438 81.980469 136.847656 78.523438 138.574219 C 78.523438 138.574219 73.90625 141.933594 73.90625 141.933594 C 73.90625 141.933594 72.226562 142.773438 72.226562 142.773438 C 72.226562 142.773438 64.25 150.332031 64.25 150.332031 C 61.167969 153.410156 55.152344 155.507812 52.910156 159.992188 C 50.613281 164.585938 46.601562 173.847656 40.3125 173.847656 C 40.3125 173.847656 38.632812 175.945312 38.632812 175.945312 C 40.609375 179.902344 44.132812 181.910156 45.351562 184.34375 C 45.351562 184.34375 45.351562 189.382812 45.351562 189.382812 C 45.351562 189.382812 39.472656 196.945312 39.472656 196.945312 C 37.925781 200.035156 39.109375 210.800781 42.832031 210.800781 Z M 42.832031 210.800781 "/>
<path style=" stroke:none;fill-rule:nonzero;fill:rgb(0.784314%,17.254902%,100%);fill-opacity:1;" d="M 205.761719 143.613281 C 205.761719 143.925781 201.425781 146.828125 200.722656 148.234375 C 198.511719 152.65625 197.042969 157.273438 194.84375 161.671875 C 192.300781 166.753906 199.214844 180.023438 203.664062 182.246094 L 205.34375 185.605469 L 212.480469 176.789062 C 214.496094 172.753906 215.839844 170.648438 215.839844 166.710938 L 218.359375 165.03125 L 216.679688 162.507812 L 217.519531 157.46875 C 215.976562 154.386719 213.195312 152.183594 211.640625 149.070312 C 210.683594 147.160156 208.609375 143.613281 205.761719 143.613281 Z M 205.761719 143.613281 "/>
<path style=" stroke:none;fill-rule:nonzero;fill:rgb(60.000002%,32.549021%,100%);fill-opacity:1;" d="M 192.324219 268.75 C 195.996094 268.75 200.027344 263.710938 201.140625 263.710938 C 205.871094 263.710938 214.460938 270.429688 217.519531 270.429688 C 217.519531 268.988281 215.839844 267.503906 215.839844 265.390625 C 212.726562 265.390625 219.199219 259.855469 219.199219 262.871094 C 220.550781 262.871094 224.316406 261.019531 224.65625 261.191406 C 224.65625 261.191406 228.859375 263.710938 228.859375 263.710938 C 231.335938 263.710938 232.667969 258.898438 235.578125 260.351562 C 235.578125 260.351562 237.257812 262.871094 237.257812 262.871094 C 237.257812 262.871094 238.515625 265.390625 238.515625 265.390625 C 243.996094 265.390625 245.933594 257.128906 250.273438 265.8125 C 250.273438 265.8125 251.953125 267.070312 251.953125 267.070312 C 251.953125 267.070312 254.472656 266.230469 254.472656 266.230469 C 254.472656 266.230469 262.871094 248.171875 262.871094 248.171875 C 262.871094 248.171875 267.910156 244.8125 267.910156 244.8125 C 269.113281 242.40625 270.050781 239.691406 271.269531 237.257812 C 272.484375 234.828125 277.988281 230.964844 277.988281 227.597656 C 277.988281 224.757812 277.742188 204.15625 277.988281 203.664062 C 277.988281 203.664062 280.507812 196.945312 280.507812 196.945312 C 280.507812 193.464844 277.816406 189.042969 276.308594 186.023438 C 275.03125 183.46875 276.066406 174.753906 277.148438 172.585938 C 277.542969 171.792969 277.28125 169.648438 276.308594 169.648438 C 271.195312 169.648438 263.339844 180.589844 256.570312 177.207031 C 254.753906 176.296875 236.550781 168.808594 235.996094 168.808594 C 235.996094 179.550781 234.722656 186.871094 223.820312 192.324219 C 223.820312 192.324219 219.617188 196.523438 219.617188 196.523438 C 216.59375 198.035156 212.589844 198.359375 209.539062 199.882812 C 209.539062 199.882812 205.34375 204.921875 205.34375 204.921875 C 205.34375 204.921875 202.820312 202.402344 202.820312 202.402344 C 200.730469 200.308594 198.5625 199.433594 196.101562 198.203125 C 196.101562 198.203125 189.382812 196.523438 189.382812 196.523438 C 177.496094 190.578125 175.527344 179.3125 175.527344 167.96875 C 175.527344 167.96875 169.226562 173.007812 169.226562 173.007812 C 164.695312 175.273438 159.4375 175.804688 154.953125 178.046875 C 147.441406 181.800781 139.46875 173.847656 133.535156 173.847656 C 133.535156 182.007812 134.613281 186.386719 131.015625 193.585938 C 129.296875 197.019531 131.339844 205.992188 132.695312 208.703125 C 133.675781 210.660156 131.777344 214.734375 131.015625 216.257812 C 131.015625 216.257812 132.695312 226.757812 132.695312 226.757812 C 132.695312 233.199219 152.011719 251.1875 152.011719 261.191406 C 154.210938 261.191406 153.398438 263.710938 155.371094 263.710938 C 155.371094 260.835938 161.179688 256.328125 164.1875 257.832031 C 164.1875 257.832031 167.96875 261.191406 167.96875 261.191406 C 167.96875 261.191406 168.808594 261.191406 168.808594 261.191406 C 171.222656 261.191406 171.371094 255.546875 174.265625 256.992188 C 175.128906 257.421875 177.613281 261.191406 177.625 261.191406 C 180.722656 261.191406 182.640625 262.03125 186.445312 262.03125 C 186.445312 262.03125 185.605469 259.929688 185.605469 259.929688 C 186.90625 257.328125 195.265625 263.710938 192.324219 263.710938 C 192.324219 265.082031 192.324219 267.378906 192.324219 268.75 Z M 192.324219 268.75 "/>
<path style=" stroke:none;fill-rule:nonzero;fill:rgb(25.490198%,100%,15.294118%);fill-opacity:1;" d="M 362.8125 209.121094 C 358.394531 209.121094 344.703125 200.328125 343.914062 200.722656 L 333 213.320312 C 331.363281 214.136719 323.339844 216.207031 323.339844 218.359375 C 323.339844 221.785156 325.503906 220.585938 326.699219 222.976562 C 326.699219 222.976562 327.960938 227.597656 327.960938 227.597656 C 327.960938 227.597656 328.796875 225.078125 328.796875 225.078125 C 328.796875 225.078125 337.195312 225.078125 337.195312 225.078125 C 339.199219 224.078125 342.003906 225.191406 343.914062 224.238281 C 349.402344 221.496094 360.375 219.453125 363.652344 212.898438 C 363.652344 212.898438 362.8125 209.121094 362.8125 209.121094 Z M 362.8125 209.121094 "/>
<path style=" stroke:none;fill-rule:nonzero;fill:rgb(25.490198%,100%,15.294118%);fill-opacity:1;" d="M 42.832031 210.800781 C 47.664062 210.800781 54.171875 207.019531 58.367188 204.921875 C 61.769531 203.222656 77.230469 218.707031 78.105469 220.460938 C 78.746094 221.738281 82.304688 225.316406 82.304688 225.917969 C 82.304688 230.511719 74.191406 236.347656 70.125 234.316406 C 66.117188 232.3125 70.351562 229.390625 65.085938 226.757812 C 65.085938 226.757812 60.890625 226.757812 60.890625 226.757812 C 51.457031 222.042969 42.832031 228.6875 42.832031 210.800781 Z M 42.832031 210.800781 "/>
<path style=" stroke:none;fill-rule:nonzero;fill:rgb(52.549022%,80.000001%,29.803923%);fill-opacity:1;" d="M 142.773438 262.03125 C 145 262.03125 145.253906 265.390625 147.8125 265.390625 C 150.050781 265.390625 152.011719 263.6875 152.011719 261.191406 C 152.011719 251.1875 132.695312 233.199219 132.695312 226.757812 C 125.949219 226.757812 125.136719 224.460938 125.136719 232.636719 C 125.136719 232.636719 127.65625 235.996094 127.65625 235.996094 C 127.65625 235.996094 130.175781 239.355469 130.175781 239.355469 C 130.175781 239.355469 132.695312 243.554688 132.695312 243.554688 C 132.695312 243.554688 133.535156 244.394531 133.535156 244.394531 C 133.535156 244.394531 134.375 246.074219 134.375 246.074219 C 134.375 246.074219 135.214844 246.914062 135.214844 246.914062 C 135.214844 246.914062 137.734375 251.953125 137.734375 251.953125 C 139.554688 251.953125 142.773438 259.59375 142.773438 261.191406 C 142.773438 261.191406 142.773438 262.03125 142.773438 262.03125 Z M 142.773438 262.03125 "/>
<path style=" stroke:none;fill-rule:nonzero;fill:rgb(52.549022%,80.000001%,29.803923%);fill-opacity:1;" d="M 263.710938 264.550781 L 264.550781 264.550781 C 264.550781 264.550781 265.390625 263.710938 265.390625 263.710938 C 265.390625 263.710938 266.230469 263.710938 266.230469 263.710938 C 266.230469 263.710938 267.070312 262.871094 267.070312 262.871094 C 267.070312 262.871094 268.75 261.191406 268.75 261.191406 C 268.75 259.523438 269.335938 255.398438 270.429688 253.210938 C 270.429688 253.210938 273.789062 251.53125 273.789062 251.53125 C 273.789062 251.53125 272.949219 249.433594 272.949219 249.433594 C 272.949219 249.433594 273.789062 248.59375 273.789062 248.59375 C 273.789062 248.59375 278.828125 241.035156 278.828125 241.035156 C 278.828125 241.035156 279.667969 240.195312 279.667969 240.195312 C 279.667969 236.75 286.386719 234.773438 286.386719 231.796875 C 286.386719 221.859375 281.734375 227.597656 277.988281 227.597656 C 277.988281 230.964844 272.484375 234.828125 271.269531 237.257812 C 270.050781 239.691406 269.113281 242.40625 267.910156 244.8125 C 267.910156 244.8125 262.871094 248.171875 262.871094 248.171875 C 262.871094 248.171875 254.472656 266.230469 254.472656 266.230469 C 257.46875 266.230469 260.441406 264.550781 263.710938 264.550781 Z M 263.710938 264.550781 "/>
<path style=" stroke:none;fill-rule:nonzero;fill:rgb(98.039216%,50.196081%,44.705883%);fill-opacity:1;" d="M 263.710938 265.390625 L 262.03125 267.070312 C 262.03125 275.578125 267.273438 267.800781 270.851562 269.589844 C 272.148438 270.238281 273.128906 272.230469 275.046875 271.269531 C 275.046875 271.269531 276.726562 268.75 276.726562 268.75 C 277.539062 268.34375 281.347656 268.3125 281.347656 266.648438 C 281.347656 257.765625 301.773438 248.714844 295.625 236.414062 C 294.320312 233.808594 294.855469 230.78125 291.84375 229.277344 C 288.804688 227.757812 287.734375 231.796875 286.386719 231.796875 C 286.386719 234.773438 279.667969 236.75 279.667969 240.195312 C 279.667969 240.195312 278.828125 241.035156 278.828125 241.035156 C 278.828125 241.035156 273.789062 248.59375 273.789062 248.59375 C 273.789062 248.59375 272.949219 249.433594 272.949219 249.433594 C 272.949219 249.433594 273.789062 251.53125 273.789062 251.53125 C 273.789062 251.53125 270.429688 253.210938 270.429688 253.210938 C 269.335938 255.398438 268.75 259.523438 268.75 261.191406 C 268.75 262.660156 268.539062 262.871094 267.070312 262.871094 C 267.070312 262.871094 266.230469 263.710938 266.230469 263.710938 C 266.230469 263.710938 265.390625 263.710938 265.390625 263.710938 C 265.390625 263.710938 264.550781 264.550781 264.550781 264.550781 C 264.550781 264.550781 263.710938 265.390625 263.710938 265.390625 Z M 263.710938 265.390625 "/>
<path style=" stroke:none;fill-rule:nonzero;fill:rgb(98.039216%,50.196081%,44.705883%);fill-opacity:1;" d="M 142.773438 261.191406 L 142.773438 262.03125 C 142.773438 264.710938 136.84375 271.269531 133.117188 271.269531 C 133.117188 271.269531 129.757812 268.75 129.757812 268.75 C 129.757812 268.75 127.65625 268.328125 127.65625 268.328125 C 125.875 264.761719 120.097656 257.703125 120.097656 254.890625 C 120.097656 254.019531 115.183594 247.089844 115.898438 245.65625 C 116.578125 244.296875 111.40625 234.671875 120.515625 230.117188 C 120.515625 230.117188 125.136719 232.636719 125.136719 232.636719 C 125.136719 232.636719 127.65625 235.996094 127.65625 235.996094 C 127.65625 235.996094 130.175781 239.355469 130.175781 239.355469 C 130.175781 239.355469 132.695312 243.554688 132.695312 243.554688 C 132.695312 243.554688 133.535156 244.394531 133.535156 244.394531 C 133.535156 244.394531 134.375 246.074219 134.375 246.074219 C 134.375 246.074219 135.214844 246.914062 135.214844 246.914062 C 135.214844 246.914062 137.734375 251.953125 137.734375 251.953125 C 137.734375 253.277344 141.683594 261.191406 142.773438 261.191406 Z M 142.773438 261.191406 "/>
<path style=" stroke:none;fill-rule:nonzero;fill:rgb(60.000002%,32.549021%,100%);fill-opacity:1;" d="M 132.695312 243.554688 L 133.535156 244.394531 C 133.535156 244.394531 132.695312 243.554688 132.695312 243.554688 Z M 132.695312 243.554688 "/>
<path style=" stroke:none;fill-rule:nonzero;fill:rgb(60.000002%,32.549021%,100%);fill-opacity:1;" d="M 134.375 246.074219 L 135.214844 246.914062 C 135.214844 246.914062 134.375 246.074219 134.375 246.074219 Z M 134.375 246.074219 "/>
<path style=" stroke:none;fill-rule:nonzero;fill:rgb(100%,20.392157%,15.294118%);fill-opacity:1;" d="M 191.484375 270.429688 L 190.644531 271.269531 C 188.480469 271.269531 185.609375 274.421875 182.664062 272.949219 C 182.664062 272.949219 175.109375 267.910156 175.109375 267.910156 C 175.109375 267.910156 170.90625 267.910156 170.90625 267.910156 C 169.234375 267.074219 168.808594 264.535156 168.808594 262.871094 C 168.808594 262.871094 168.808594 261.191406 168.808594 261.191406 C 171.222656 261.191406 171.371094 255.546875 174.265625 256.992188 C 175.128906 257.421875 177.613281 261.191406 177.625 261.191406 C 180.722656 261.191406 182.640625 262.03125 186.445312 262.03125 C 186.445312 262.03125 187.285156 262.03125 187.285156 262.03125 C 187.285156 262.03125 188.125 262.871094 188.125 262.871094 C 188.125 262.871094 192.324219 263.710938 192.324219 263.710938 C 192.324219 265.082031 192.324219 267.378906 192.324219 268.75 C 192.324219 268.75 191.484375 270.429688 191.484375 270.429688 Z M 191.484375 270.429688 "/>
<path style=" stroke:none;fill-rule:nonzero;fill:rgb(0%,84.313726%,4.313726%);fill-opacity:1;" d="M 159.570312 271.269531 L 160.410156 272.949219 C 160.410156 273.085938 171.691406 283 173.429688 283.867188 C 175.570312 284.9375 179.050781 285 181.828125 286.386719 C 188.5625 289.753906 198.546875 281.386719 203.664062 278.828125 C 205.300781 278.007812 207.472656 281.570312 208.703125 282.1875 C 208.703125 282.1875 216.257812 284.707031 216.257812 284.707031 C 216.257812 284.707031 220.460938 284.707031 220.460938 284.707031 C 229.875 289.414062 243.828125 281.21875 247.753906 273.367188 C 248.816406 271.242188 251.953125 269.570312 251.953125 267.070312 C 251.953125 267.070312 250.273438 265.8125 250.273438 265.8125 C 245.933594 257.128906 243.996094 265.390625 238.515625 265.390625 C 238.515625 265.390625 237.675781 267.070312 237.675781 267.070312 C 237.675781 269.847656 225.894531 274.828125 223.820312 273.789062 C 223.820312 273.789062 219.617188 271.269531 219.617188 271.269531 C 218.847656 270.882812 217.519531 271.910156 217.519531 270.429688 C 214.460938 270.429688 205.871094 263.710938 201.140625 263.710938 C 200.027344 263.710938 195.996094 268.75 192.324219 268.75 C 192.324219 268.75 191.484375 270.429688 191.484375 270.429688 C 191.484375 270.429688 190.644531 271.269531 190.644531 271.269531 C 188.480469 271.269531 185.609375 274.421875 182.664062 272.949219 C 182.664062 272.949219 175.109375 267.910156 175.109375 267.910156 C 175.109375 267.910156 170.90625 267.910156 170.90625 267.910156 C 169.234375 267.074219 168.808594 264.535156 168.808594 262.871094 C 168.808594 262.871094 167.96875 261.191406 167.96875 261.191406 C 167.96875 261.191406 164.1875 257.832031 164.1875 257.832031 C 161.179688 256.328125 155.371094 260.835938 155.371094 263.710938 C 155.371094 263.710938 156.210938 266.230469 156.210938 266.230469 C 156.210938 266.230469 157.050781 267.910156 157.050781 267.910156 C 157.050781 267.910156 159.570312 271.269531 159.570312 271.269531 Z M 159.570312 271.269531 "/>
<path style=" stroke:none;fill-rule:nonzero;fill:rgb(0%,84.313726%,4.313726%);fill-opacity:1;" d="M 188.125 262.871094 L 192.324219 263.710938 C 195.265625 263.710938 186.90625 257.328125 185.605469 259.929688 C 185.605469 259.929688 186.445312 262.03125 186.445312 262.03125 C 186.445312 262.03125 187.285156 262.03125 187.285156 262.03125 C 187.285156 262.03125 188.125 262.871094 188.125 262.871094 Z M 188.125 262.871094 "/>
<path style=" stroke:none;fill-rule:nonzero;fill:rgb(100%,20.392157%,15.294118%);fill-opacity:1;" d="M 237.675781 267.070312 C 237.675781 269.847656 225.894531 274.828125 223.820312 273.789062 L 219.617188 271.269531 C 218.847656 270.882812 217.519531 271.910156 217.519531 270.429688 C 217.519531 268.988281 215.839844 267.503906 215.839844 265.390625 C 215.839844 265.390625 216.679688 265.390625 216.679688 265.390625 C 216.679688 265.390625 217.519531 264.550781 217.519531 264.550781 C 217.519531 264.550781 218.359375 263.710938 218.359375 263.710938 C 218.359375 263.710938 219.199219 262.871094 219.199219 262.871094 C 220.550781 262.871094 224.316406 261.019531 224.65625 261.191406 C 224.65625 261.191406 228.859375 263.710938 228.859375 263.710938 C 231.335938 263.710938 232.667969 258.898438 235.578125 260.351562 C 235.578125 260.351562 237.257812 262.871094 237.257812 262.871094 C 237.257812 262.871094 238.515625 265.390625 238.515625 265.390625 C 238.515625 265.390625 237.675781 267.070312 237.675781 267.070312 Z M 237.675781 267.070312 "/>
<path style=" stroke:none;fill-rule:nonzero;fill:rgb(50.196081%,66.666669%,100%);fill-opacity:1;" d="M 159.570312 271.269531 L 160.410156 272.949219 C 160.410156 273.085938 171.691406 283 173.429688 283.867188 C 175.570312 284.9375 179.050781 285 181.828125 286.386719 C 188.5625 289.753906 198.546875 281.386719 203.664062 278.828125 C 205.300781 278.007812 207.472656 281.570312 208.703125 282.1875 C 208.703125 282.1875 216.257812 284.707031 216.257812 284.707031 C 216.257812 284.707031 220.460938 284.707031 220.460938 284.707031 C 229.875 289.414062 243.828125 281.21875 247.753906 273.367188 C 248.816406 271.242188 251.953125 269.570312 251.953125 267.070312 C 251.953125 267.070312 254.472656 266.230469 254.472656 266.230469 C 257.46875 266.230469 260.441406 264.550781 263.710938 264.550781 C 263.710938 264.550781 263.710938 265.390625 263.710938 265.390625 C 263.710938 265.390625 262.03125 267.070312 262.03125 267.070312 C 262.03125 267.070312 255.3125 273.367188 255.3125 273.367188 C 249.871094 278.8125 244.503906 284.863281 238.09375 288.066406 C 229.121094 292.554688 214.667969 290.628906 206.179688 286.386719 C 202.765625 284.675781 195.46875 290.585938 191.484375 290.585938 C 182.871094 290.585938 176.28125 289.074219 169.226562 285.546875 C 165.109375 283.488281 162.355469 279.171875 158.3125 277.148438 C 154.578125 275.28125 147.8125 270.269531 147.8125 265.390625 C 150.050781 265.390625 152.011719 263.6875 152.011719 261.191406 C 154.210938 261.191406 153.398438 263.710938 155.371094 263.710938 C 155.371094 263.710938 156.210938 266.230469 156.210938 266.230469 C 156.210938 266.230469 157.050781 267.910156 157.050781 267.910156 C 157.050781 267.910156 159.570312 271.269531 159.570312 271.269531 Z M 159.570312 271.269531 "/>
<path style=" stroke:none;fill-rule:nonzero;fill:rgb(60.000002%,32.549021%,100%);fill-opacity:1;" d="M 187.285156 262.03125 L 188.125 262.871094 C 188.125 262.871094 187.285156 262.03125 187.285156 262.03125 Z M 187.285156 262.03125 "/>
<path style=" stroke:none;fill-rule:nonzero;fill:rgb(0%,84.313726%,4.313726%);fill-opacity:1;" d="M 215.839844 265.390625 L 216.679688 265.390625 C 216.679688 265.390625 217.519531 264.550781 217.519531 264.550781 C 217.519531 264.550781 218.359375 263.710938 218.359375 263.710938 C 218.359375 263.710938 219.199219 262.871094 219.199219 262.871094 C 219.199219 259.855469 212.726562 265.390625 215.839844 265.390625 Z M 215.839844 265.390625 "/>
<path style=" stroke:none;fill-rule:nonzero;fill:rgb(60.000002%,32.549021%,100%);fill-opacity:1;" d="M 219.199219 262.871094 L 218.359375 263.710938 C 218.359375 263.710938 219.199219 262.871094 219.199219 262.871094 Z M 219.199219 262.871094 "/>
<path style=" stroke:none;fill-rule:nonzero;fill:rgb(60.000002%,32.549021%,100%);fill-opacity:1;" d="M 218.359375 263.710938 L 217.519531 264.550781 C 217.519531 264.550781 218.359375 263.710938 218.359375 263.710938 Z M 218.359375 263.710938 "/>
<path style=" stroke:none;fill-rule:nonzero;fill:rgb(60.000002%,32.549021%,100%);fill-opacity:1;" d="M 217.519531 264.550781 L 216.679688 265.390625 C 216.679688 265.390625 217.519531 264.550781 217.519531 264.550781 Z M 217.519531 264.550781 "/>
<path style=" stroke:none;fill-rule:nonzero;fill:rgb(60.000002%,32.549021%,100%);fill-opacity:1;" d="M 238.515625 265.390625 L 237.675781 267.070312 C 237.675781 267.070312 238.515625 265.390625 238.515625 265.390625 Z M 238.515625 265.390625 "/>
<path style=" stroke:none;fill-rule:nonzero;fill:rgb(60.000002%,32.549021%,100%);fill-opacity:1;" d="M 156.210938 266.230469 L 157.050781 267.910156 C 157.050781 267.910156 156.210938 266.230469 156.210938 266.230469 Z M 156.210938 266.230469 "/>
<path style=" stroke:none;fill-rule:nonzero;fill:rgb(60.000002%,32.549021%,100%);fill-opacity:1;" d="M 191.484375 270.429688 L 190.644531 271.269531 C 190.644531 271.269531 191.484375 270.429688 191.484375 270.429688 Z M 191.484375 270.429688 "/>
<path style=" stroke:none;fill-rule:nonzero;fill:rgb(60.000002%,32.549021%,100%);fill-opacity:1;" d="M 159.570312 271.269531 L 160.410156 272.949219 C 160.410156 272.949219 159.570312 271.269531 159.570312 271.269531 Z M 159.570312 271.269531 "/>
</g>
</svg>
