<?xml version="1.0" encoding="UTF-8"?>
<svg xmlns="http://www.w3.org/2000/svg" xmlns:xlink="http://www.w3.org/1999/xlink" width="430px" height="430px" viewBox="0 0 430 430" version="1.1">
<g id="surface1">
<rect x="0" y="0" width="430" height="430" style="fill:rgb(0%,0%,0%);fill-opacity:1;stroke:none;"/>
<path style=" stroke:none;fill-rule:nonzero;fill:rgb(100%,100%,0%);fill-opacity:1;" d="M 319.140625 183.925781 L 318.300781 184.765625 C 318.300781 184.765625 314.941406 183.085938 314.941406 183.085938 C 314.941406 183.085938 313.261719 180.148438 313.261719 180.148438 C 310.953125 177.839844 309.246094 175.410156 306.125 173.847656 C 302.1875 171.878906 274.957031 166.890625 278.828125 159.148438 C 278.828125 159.148438 277.988281 156.632812 277.988281 156.632812 C 279.433594 153.738281 285.199219 154.53125 288.066406 154.53125 C 290.675781 154.53125 294.597656 151.289062 297.726562 152.851562 C 302.375 155.175781 305.058594 159.878906 309.484375 162.089844 C 309.484375 162.089844 320.820312 172.585938 320.820312 172.585938 C 321.835938 170.558594 319.890625 167.367188 319.140625 165.867188 C 317.777344 163.140625 317.925781 157.914062 314.523438 156.210938 C 314.523438 156.210938 301.503906 147.390625 301.503906 147.390625 C 300.136719 144.652344 294.558594 136.378906 298.5625 134.375 C 303.308594 132.003906 316.78125 140.152344 319.980469 146.554688 C 321.894531 150.378906 323.089844 154.453125 325.019531 158.3125 C 325.019531 158.3125 325.859375 164.1875 325.859375 164.1875 C 325.859375 164.1875 328.378906 166.710938 328.378906 166.710938 C 328.878906 167.710938 327.394531 172.167969 329.640625 172.167969 C 331.058594 172.167969 330.898438 169.640625 330.898438 168.808594 C 330.898438 168.808594 331.738281 158.3125 331.738281 158.3125 C 331.738281 158.3125 333.417969 155.789062 333.417969 155.789062 C 331.9375 152.832031 333.1875 148.613281 331.738281 145.710938 C 330.539062 143.3125 326.554688 143.75 324.601562 142.773438 C 320.175781 140.5625 318.484375 133.480469 316.621094 129.757812 C 315.324219 127.160156 319.140625 128.109375 319.140625 127.234375 C 319.140625 126.121094 316.578125 125.644531 317.460938 123.875 C 318.375 122.046875 325.34375 123.6875 323.339844 119.679688 C 321.253906 115.503906 315.019531 108.339844 311.164062 108.339844 C 305.957031 108.339844 313.554688 124.296875 304.445312 124.296875 C 304.445312 124.296875 303.601562 125.976562 303.601562 125.976562 C 303.601562 125.976562 299.824219 120.515625 299.824219 120.515625 C 299.824219 120.515625 296.464844 117.15625 296.464844 117.15625 C 295.132812 114.492188 298.542969 105.441406 299.824219 102.882812 C 300.523438 101.480469 296.613281 97.558594 295.203125 98.261719 C 284.628906 103.546875 295.648438 113.75 291.425781 122.195312 C 290.570312 123.90625 291.085938 125.394531 290.585938 126.398438 C 290.226562 127.117188 288.953125 125.460938 288.066406 127.234375 C 287.027344 129.3125 283.9375 133.289062 281.765625 134.375 C 281.765625 134.375 278.40625 134.375 278.40625 134.375 C 274.535156 136.3125 272.234375 140.109375 267.492188 137.734375 C 262.09375 135.035156 265.636719 127.582031 267.070312 124.71875 C 267.71875 123.421875 271.984375 123.285156 272.949219 121.359375 C 272.949219 121.359375 272.949219 118 272.949219 118 C 272.949219 118 276.308594 114.640625 276.308594 114.640625 C 277.292969 112.671875 276.9375 110.019531 277.988281 107.921875 C 277.988281 107.921875 277.988281 100.359375 277.988281 100.359375 C 278.582031 99.167969 281.828125 97.960938 280.507812 95.320312 C 278.945312 92.199219 272.386719 89.863281 270.007812 89.863281 C 270.007812 89.863281 269.171875 87.34375 269.171875 87.34375 C 265.367188 87.34375 262.597656 93.097656 264.550781 97 C 265.960938 99.816406 262.671875 120.917969 261.191406 123.875 C 259.617188 127.023438 262.398438 133.535156 256.570312 133.535156 C 256.570312 133.535156 253.210938 131.015625 253.210938 131.015625 C 244.683594 122.488281 252.609375 121.832031 250.273438 117.15625 C 248.789062 114.191406 253.390625 109.957031 251.953125 107.078125 C 251.445312 106.0625 248.59375 97.261719 248.59375 96.164062 C 248.59375 96.164062 248.171875 87.34375 248.171875 87.34375 C 248.171875 87.34375 247.335938 91.542969 247.335938 91.542969 C 247.335938 91.542969 246.914062 86.921875 246.914062 86.921875 C 246.914062 86.921875 242.296875 82.304688 242.296875 82.304688 C 236.773438 82.304688 233.460938 79.566406 227.179688 76.425781 C 224.691406 75.183594 221.375 75.203125 218.78125 73.90625 C 214.992188 72.011719 208.148438 73.066406 203.664062 73.066406 C 192.246094 73.066406 179.847656 72.375 170.070312 77.265625 C 166.132812 79.234375 163.03125 85.039062 161.25 88.601562 C 159.785156 91.535156 163.941406 92.460938 162.929688 94.484375 C 159.808594 100.726562 154.867188 114.476562 157.890625 120.515625 C 160.421875 125.574219 155.015625 133.988281 149.070312 131.015625 C 146.0625 129.511719 146.648438 120.710938 145.292969 118 C 143.285156 113.976562 136.648438 105.890625 139.414062 100.359375 C 140.980469 97.234375 147.3125 93.484375 145.292969 89.445312 C 144.578125 88.015625 143.738281 89.863281 143.195312 89.863281 C 143.195312 89.863281 141.515625 88.183594 141.515625 88.183594 C 136.953125 90.464844 133.132812 91.953125 128.914062 94.0625 C 122.136719 97.453125 129.023438 102.257812 131.015625 106.242188 C 131.015625 106.242188 130.175781 118.835938 130.175781 118.835938 C 132.707031 123.898438 154.375 136.34375 141.515625 142.773438 C 136.710938 145.175781 135.050781 143.320312 130.59375 141.09375 C 129.140625 140.367188 128.242188 141.597656 127.234375 141.09375 C 122.976562 138.964844 118.09375 136.664062 115.898438 132.273438 C 112.851562 126.179688 121.273438 102.460938 110.4375 102.460938 C 105.632812 102.460938 106.121094 111.878906 107.5 114.640625 C 109.378906 118.394531 110.792969 136.71875 105.398438 139.414062 C 90.878906 146.675781 97.183594 114.730469 92.804688 112.539062 C 91.132812 111.703125 87.605469 116.058594 86.503906 117.15625 C 84.4375 119.226562 77.265625 129.664062 77.265625 133.117188 C 77.265625 138.851562 85.101562 132.824219 88.183594 138.992188 C 90.132812 142.890625 86.039062 154.554688 82.726562 156.210938 C 82.726562 156.210938 79.367188 155.371094 79.367188 155.371094 C 79.367188 155.371094 78.523438 157.050781 78.523438 157.050781 C 78.523438 157.050781 78.105469 154.953125 78.105469 154.953125 C 78.105469 154.953125 73.90625 154.953125 73.90625 154.953125 C 71.9375 158.886719 72.839844 169.613281 74.746094 173.429688 C 74.746094 173.429688 77.265625 177.207031 77.265625 177.207031 C 71.097656 177.207031 71.386719 161.917969 71.386719 156.632812 C 71.386719 150.398438 73.066406 144.710938 73.066406 138.992188 C 73.066406 138 73.390625 132.695312 74.328125 132.695312 C 74.816406 132.695312 74.78125 136.40625 75.585938 134.796875 C 75.585938 134.796875 76.425781 127.234375 76.425781 127.234375 C 77.417969 125.25 83.367188 115.578125 84.40625 115.058594 C 88.84375 112.839844 92.496094 107.5 96.164062 107.5 C 96.164062 107.5 97.84375 104.140625 97.84375 104.140625 C 100.769531 102.675781 102.925781 104.117188 106.242188 102.460938 C 107.929688 101.617188 110.222656 100.890625 112.117188 99.941406 C 112.117188 99.941406 112.960938 98.261719 112.960938 98.261719 C 113.59375 98.261719 117.410156 98.976562 118.835938 98.261719 C 121.136719 97.113281 121.300781 93.671875 123.875 92.382812 C 129.585938 89.527344 135.808594 87.675781 141.515625 84.824219 C 144.09375 83.535156 149.328125 88.273438 150.332031 90.28125 C 150.332031 90.28125 151.59375 93.222656 151.59375 93.222656 C 152.015625 93.222656 152.019531 88.808594 153.273438 88.183594 C 159.707031 84.964844 164.105469 74.789062 167.546875 73.066406 C 179.269531 67.207031 197.511719 67.1875 212.898438 67.1875 C 215.386719 67.1875 218.089844 68.941406 219.617188 69.707031 C 222.480469 71.136719 226.878906 69.976562 229.695312 71.386719 C 236.019531 74.546875 246.222656 79.230469 254.054688 83.144531 C 254.773438 83.503906 253.117188 84.777344 254.890625 85.664062 C 254.890625 85.664062 257.832031 86.921875 257.832031 86.921875 C 257.832031 86.921875 257.414062 88.183594 257.414062 88.183594 C 257.414062 88.183594 261.609375 84.824219 261.609375 84.824219 C 261.609375 84.824219 269.171875 84.824219 269.171875 84.824219 C 274.980469 87.730469 281.015625 90.324219 286.804688 93.222656 C 286.804688 93.222656 289.328125 96.582031 289.328125 96.582031 C 289.328125 96.582031 291.007812 94.902344 291.007812 94.902344 C 291.007812 94.902344 298.5625 96.582031 298.5625 96.582031 C 303.265625 98.933594 307.242188 102.601562 312 104.980469 C 312 104.980469 317.039062 105.820312 317.039062 105.820312 C 319.046875 106.824219 317.753906 111.699219 322.078125 111.699219 C 322.078125 111.699219 329.21875 121.359375 329.21875 121.359375 C 329.21875 121.359375 329.21875 128.078125 329.21875 128.078125 C 330.867188 131.371094 330.484375 135.648438 331.738281 138.15625 C 331.738281 138.15625 334.257812 139.835938 334.257812 139.835938 C 334.257812 149.167969 340.605469 167.523438 329.640625 173.007812 C 329.640625 173.007812 327.960938 174.6875 327.960938 174.6875 C 327.960938 174.6875 326.28125 173.007812 326.28125 173.007812 C 324.824219 173.007812 325.957031 178.046875 320.820312 178.046875 C 319.53125 178.046875 319.53125 181.40625 320.820312 181.40625 C 320.820312 183.089844 321.066406 183.925781 319.140625 183.925781 Z M 319.140625 183.925781 "/>
<path style=" stroke:none;fill-rule:evenodd;fill:rgb(0%,100%,100%);fill-opacity:1;" d="M 215.839844 180.566406 C 215.839844 183.710938 217.597656 180.566406 215.839844 180.566406 M 214.160156 179.726562 C 214.160156 185.933594 215.933594 179.726562 214.160156 179.726562 M 228.4375 87.34375 L 225.5 89.023438 C 220.492188 89.023438 216.273438 91.542969 210.800781 91.542969 L 201.140625 90.703125 L 200.304688 92.382812 L 199.460938 90.703125 C 196.753906 89.347656 190.707031 92.980469 188.546875 94.0625 L 184.34375 94.0625 L 179.304688 99.941406 C 176.078125 101.554688 174.058594 102.460938 172.167969 106.242188 C 170.703125 109.171875 162.683594 114.988281 164.609375 118.835938 C 168.457031 126.535156 179.984375 112.621094 183.507812 110.859375 L 185.1875 112.539062 L 188.546875 109.179688 C 194.738281 106.082031 209.324219 109.910156 214.578125 112.539062 C 215.894531 113.195312 223.398438 111.222656 223.398438 113.796875 C 223.398438 117.4375 217.199219 119.628906 214.578125 120.9375 L 198.625 120.097656 C 191.464844 123.675781 179.953125 122.714844 171.75 126.816406 C 168.964844 128.207031 164.386719 132.667969 166.289062 136.476562 C 167.183594 138.265625 168.71875 139.652344 169.648438 141.515625 L 175.109375 148.652344 C 181.027344 151.613281 202.09375 162.453125 209.539062 158.730469 C 213.898438 156.550781 218.679688 155 222.976562 152.851562 L 228.015625 147.8125 C 233.984375 144.828125 239.296875 144.152344 242.714844 137.3125 C 245.46875 131.804688 237.40625 133.535156 235.578125 133.535156 C 234.304688 133.535156 232.636719 125.863281 232.636719 124.71875 C 232.636719 120.71875 239.945312 121.855469 241.035156 119.679688 C 244.203125 113.34375 239.378906 107.96875 236.835938 102.882812 C 235.898438 101.003906 239.222656 100.09375 238.515625 98.679688 L 235.996094 96.164062 C 234.199219 92.570312 244.082031 87.34375 228.4375 87.34375 M 89.023438 213.320312 L 92.382812 213.320312 C 92.382812 209.722656 95.742188 207.679688 95.742188 212.480469 C 95.742188 214.101562 96.71875 212.480469 97.421875 212.480469 C 97.421875 209.449219 96.070312 210.800781 99.101562 210.800781 C 99.101562 207.011719 99.40625 209.960938 100.78125 209.960938 C 100.78125 209.960938 102.460938 209.121094 102.460938 209.121094 C 102.460938 206.390625 111.46875 205.246094 113.796875 204.082031 C 113.796875 204.082031 115.476562 201.5625 115.476562 201.5625 C 120.820312 198.890625 126.050781 195.855469 131.4375 193.164062 C 134.679688 191.542969 139.144531 193.089844 140.671875 192.324219 C 145.179688 190.070312 149.164062 188.5 154.953125 185.605469 C 157.949219 184.105469 174.6875 181.074219 174.6875 185.605469 C 176.960938 185.605469 178.550781 183.925781 180.148438 183.925781 C 180.148438 183.925781 180.984375 181.40625 180.984375 181.40625 C 181.65625 181.40625 181.585938 184.046875 183.507812 183.085938 C 183.507812 183.085938 184.34375 179.726562 184.34375 179.726562 C 184.34375 179.726562 185.1875 183.085938 185.1875 183.085938 C 186.535156 183.761719 195.683594 182.941406 195.683594 185.1875 C 195.683594 186.652344 187 186.511719 191.90625 188.964844 C 195.484375 190.753906 195.605469 184.765625 197.78125 184.765625 C 198.183594 184.765625 198.585938 188.125 200.304688 188.125 C 200.304688 188.125 202.820312 185.605469 202.820312 185.605469 C 202.820312 185.605469 204.5 188.964844 204.5 188.964844 C 204.5 188.964844 207.023438 185.605469 207.023438 185.605469 C 208.136719 185.605469 211.800781 187.414062 212.0625 187.285156 C 212.0625 187.285156 212.898438 180.566406 212.898438 180.566406 C 212.898438 180.566406 213.742188 188.964844 213.742188 188.964844 C 213.742188 188.964844 215.421875 185.605469 215.421875 185.605469 C 215.421875 185.605469 216.257812 188.964844 216.257812 188.964844 C 217.746094 189.707031 216.699219 181.609375 218.78125 180.566406 C 220.339844 179.785156 220.449219 183.5 221.296875 183.925781 C 222.953125 184.753906 231.527344 183.085938 233.476562 183.085938 C 236.003906 183.085938 239.347656 180.773438 240.617188 181.40625 C 246.136719 184.164062 251.054688 185.605469 257.414062 185.605469 C 258.78125 185.605469 261.90625 189.804688 262.453125 189.804688 C 262.453125 189.804688 264.132812 188.125 264.132812 188.125 C 264.132812 188.125 265.8125 189.804688 265.8125 189.804688 C 265.8125 189.804688 270.007812 189.804688 270.007812 189.804688 C 270.007812 189.804688 271.6875 193.164062 271.6875 193.164062 C 272.195312 193.164062 273.6875 191.222656 275.890625 192.324219 C 281.003906 194.882812 288.910156 201.5625 293.523438 201.5625 C 293.808594 201.5625 296.722656 206.101562 297.726562 206.601562 C 298.089844 206.785156 303.492188 205.761719 304.863281 205.761719 C 304.863281 203.351562 302.234375 204.65625 301.085938 204.082031 C 301.085938 204.082031 300.242188 201.5625 300.242188 201.5625 C 300.242188 201.5625 299.40625 203.242188 299.40625 203.242188 C 291.492188 203.242188 294.785156 198.914062 294.785156 197.78125 C 294.785156 197.78125 293.945312 196.101562 293.945312 196.101562 C 296.683594 190.628906 310.742188 191.917969 310.742188 188.125 C 310.742188 188.125 310.742188 187.285156 310.742188 187.285156 C 310.742188 185.757812 305.363281 186.824219 304.445312 187.285156 C 301.082031 188.964844 290.027344 189.109375 288.066406 185.1875 C 287.1875 183.425781 290.328125 179.808594 291.84375 180.566406 C 294.484375 181.886719 310.011719 184.765625 314.101562 184.765625 C 314.101562 184.765625 314.941406 183.085938 314.941406 183.085938 C 314.941406 183.085938 313.261719 180.148438 313.261719 180.148438 C 310.953125 177.839844 309.246094 175.410156 306.125 173.847656 C 302.1875 171.878906 274.957031 166.890625 278.828125 159.148438 C 278.828125 159.148438 277.988281 156.632812 277.988281 156.632812 C 279.433594 153.738281 285.199219 154.53125 288.066406 154.53125 C 290.675781 154.53125 294.597656 151.289062 297.726562 152.851562 C 302.375 155.175781 305.058594 159.878906 309.484375 162.089844 C 309.484375 162.089844 320.820312 172.585938 320.820312 172.585938 C 321.835938 170.558594 319.890625 167.367188 319.140625 165.867188 C 317.777344 163.140625 317.925781 157.914062 314.523438 156.210938 C 314.523438 156.210938 301.503906 147.390625 301.503906 147.390625 C 300.136719 144.652344 294.558594 136.378906 298.5625 134.375 C 303.308594 132.003906 316.78125 140.152344 319.980469 146.554688 C 321.894531 150.378906 323.089844 154.453125 325.019531 158.3125 C 325.019531 158.3125 325.859375 164.1875 325.859375 164.1875 C 325.859375 164.1875 328.378906 166.710938 328.378906 166.710938 C 328.878906 167.710938 327.394531 172.167969 329.640625 172.167969 C 331.058594 172.167969 330.898438 169.640625 330.898438 168.808594 C 330.898438 168.808594 331.738281 158.3125 331.738281 158.3125 C 331.738281 158.3125 333.417969 155.789062 333.417969 155.789062 C 331.9375 152.832031 333.1875 148.613281 331.738281 145.710938 C 330.539062 143.3125 326.554688 143.75 324.601562 142.773438 C 320.175781 140.5625 318.484375 133.480469 316.621094 129.757812 C 315.324219 127.160156 319.140625 128.109375 319.140625 127.234375 C 319.140625 126.121094 316.578125 125.644531 317.460938 123.875 C 318.375 122.046875 325.34375 123.6875 323.339844 119.679688 C 321.253906 115.503906 315.019531 108.339844 311.164062 108.339844 C 305.957031 108.339844 313.554688 124.296875 304.445312 124.296875 C 304.445312 124.296875 303.601562 125.976562 303.601562 125.976562 C 303.601562 125.976562 299.824219 120.515625 299.824219 120.515625 C 299.824219 120.515625 296.464844 117.15625 296.464844 117.15625 C 295.132812 114.492188 298.542969 105.441406 299.824219 102.882812 C 300.523438 101.480469 296.613281 97.558594 295.203125 98.261719 C 284.628906 103.546875 295.648438 113.75 291.425781 122.195312 C 290.570312 123.90625 291.085938 125.394531 290.585938 126.398438 C 290.226562 127.117188 288.953125 125.460938 288.066406 127.234375 C 287.027344 129.3125 283.9375 133.289062 281.765625 134.375 C 281.765625 134.375 278.40625 134.375 278.40625 134.375 C 274.535156 136.3125 272.234375 140.109375 267.492188 137.734375 C 262.09375 135.035156 265.636719 127.582031 267.070312 124.71875 C 267.71875 123.421875 271.984375 123.285156 272.949219 121.359375 C 272.949219 121.359375 272.949219 118 272.949219 118 C 272.949219 118 276.308594 114.640625 276.308594 114.640625 C 277.292969 112.671875 276.9375 110.019531 277.988281 107.921875 C 277.988281 107.921875 277.988281 100.359375 277.988281 100.359375 C 278.582031 99.167969 281.828125 97.960938 280.507812 95.320312 C 278.945312 92.199219 272.386719 89.863281 270.007812 89.863281 C 270.007812 89.863281 269.171875 87.34375 269.171875 87.34375 C 265.367188 87.34375 262.597656 93.097656 264.550781 97 C 265.960938 99.816406 262.671875 120.917969 261.191406 123.875 C 259.617188 127.023438 262.398438 133.535156 256.570312 133.535156 C 256.570312 133.535156 253.210938 131.015625 253.210938 131.015625 C 244.683594 122.488281 252.609375 121.832031 250.273438 117.15625 C 248.789062 114.191406 253.390625 109.957031 251.953125 107.078125 C 251.445312 106.0625 248.59375 97.261719 248.59375 96.164062 C 248.59375 96.164062 248.171875 87.34375 248.171875 87.34375 C 248.171875 87.34375 247.335938 91.542969 247.335938 91.542969 C 247.335938 91.542969 246.914062 86.921875 246.914062 86.921875 C 246.914062 86.921875 242.296875 82.304688 242.296875 82.304688 C 236.773438 82.304688 233.460938 79.566406 227.179688 76.425781 C 224.691406 75.183594 221.375 75.203125 218.78125 73.90625 C 214.992188 72.011719 208.148438 73.066406 203.664062 73.066406 C 192.246094 73.066406 179.847656 72.375 170.070312 77.265625 C 166.132812 79.234375 163.03125 85.039062 161.25 88.601562 C 159.785156 91.535156 163.941406 92.460938 162.929688 94.484375 C 159.808594 100.726562 154.867188 114.476562 157.890625 120.515625 C 160.421875 125.574219 155.015625 133.988281 149.070312 131.015625 C 146.0625 129.511719 146.648438 120.710938 145.292969 118 C 143.285156 113.976562 136.648438 105.890625 139.414062 100.359375 C 140.980469 97.234375 147.3125 93.484375 145.292969 89.445312 C 144.578125 88.015625 143.738281 89.863281 143.195312 89.863281 C 143.195312 89.863281 141.515625 88.183594 141.515625 88.183594 C 136.953125 90.464844 133.132812 91.953125 128.914062 94.0625 C 122.136719 97.453125 129.023438 102.257812 131.015625 106.242188 C 131.015625 106.242188 130.175781 118.835938 130.175781 118.835938 C 132.707031 123.898438 154.375 136.34375 141.515625 142.773438 C 136.710938 145.175781 135.050781 143.320312 130.59375 141.09375 C 129.140625 140.367188 128.242188 141.597656 127.234375 141.09375 C 122.976562 138.964844 118.09375 136.664062 115.898438 132.273438 C 112.851562 126.179688 121.273438 102.460938 110.4375 102.460938 C 105.632812 102.460938 106.121094 111.878906 107.5 114.640625 C 109.378906 118.394531 110.792969 136.71875 105.398438 139.414062 C 90.878906 146.675781 97.183594 114.730469 92.804688 112.539062 C 91.132812 111.703125 87.605469 116.058594 86.503906 117.15625 C 84.4375 119.226562 77.265625 129.664062 77.265625 133.117188 C 77.265625 138.851562 85.101562 132.824219 88.183594 138.992188 C 90.132812 142.890625 86.039062 154.554688 82.726562 156.210938 C 82.726562 156.210938 79.367188 155.371094 79.367188 155.371094 C 79.367188 155.371094 78.523438 157.050781 78.523438 157.050781 C 78.523438 157.050781 78.105469 154.953125 78.105469 154.953125 C 78.105469 154.953125 73.90625 154.953125 73.90625 154.953125 C 71.9375 158.886719 72.839844 169.613281 74.746094 173.429688 C 74.746094 173.429688 77.265625 177.207031 77.265625 177.207031 C 77.945312 177.207031 80.625 181.222656 80.625 177.207031 C 80.105469 177.207031 78.6875 173.945312 78.945312 173.429688 C 78.945312 173.429688 83.984375 166.710938 83.984375 166.710938 C 85.414062 163.847656 91.46875 147.144531 97.84375 150.332031 C 101.902344 152.363281 89.792969 167.691406 88.183594 170.90625 C 87.707031 171.863281 84.941406 177.054688 86.921875 178.046875 C 88.910156 179.039062 94.101562 172.507812 94.902344 170.90625 C 97.707031 165.300781 120.28125 154.480469 124.296875 162.507812 C 125.519531 164.953125 122.546875 168.632812 120.515625 169.648438 C 112.429688 173.691406 105 175.089844 97.84375 182.246094 C 97.84375 182.246094 92.382812 186.445312 92.382812 186.445312 C 92.382812 186.445312 92.382812 187.285156 92.382812 187.285156 C 95.898438 187.285156 109.628906 191.84375 107.5 196.101562 C 105.347656 200.410156 95.925781 194.84375 94.484375 194.84375 C 91.199219 194.84375 94.863281 198.699219 94.0625 200.304688 C 93.433594 201.5625 89.863281 201.289062 89.863281 199.882812 C 88.011719 199.882812 89.863281 202.613281 88.601562 203.242188 C 87.476562 203.804688 86.085938 203.242188 84.824219 203.242188 C 82.390625 203.242188 70.308594 188.214844 66.765625 186.445312 C 63.773438 184.949219 48.167969 185.777344 50.390625 190.226562 C 53.140625 195.722656 75.289062 198.375 72.226562 204.5 C 70.945312 207.070312 54.175781 201.984375 51.648438 200.722656 C 48.769531 199.28125 47.875 197.15625 44.929688 195.683594 C 40.597656 193.519531 36.09375 201.945312 37.792969 205.34375 C 40.046875 209.851562 65.527344 207.820312 62.148438 214.578125 C 57.34375 224.191406 37.054688 209.339844 32.753906 217.9375 C 32.125 219.195312 33.152344 220.417969 33.59375 221.296875 C 34.667969 223.445312 33.566406 226.117188 36.53125 227.597656 C 39.097656 228.882812 48.535156 220.949219 51.230469 226.335938 C 53.410156 230.699219 40.523438 231.796875 41.992188 234.734375 C 46.308594 243.367188 49.695312 232.5 55.007812 235.15625 C 57.394531 236.347656 64.414062 248.929688 71.804688 245.234375 C 71.804688 245.234375 74.328125 246.074219 74.328125 246.074219 C 81.839844 242.320312 80.765625 240.894531 78.105469 235.578125 C 78.105469 235.578125 76.84375 233.476562 76.84375 233.476562 C 70.550781 233.476562 62.714844 235.867188 58.789062 228.015625 C 58.253906 226.945312 58.945312 225.34375 59.628906 224.65625 C 63.175781 221.113281 65.796875 224.171875 69.289062 225.917969 C 69.289062 225.917969 71.804688 225.917969 71.804688 225.917969 C 78.859375 222.390625 70.066406 218.898438 72.226562 214.578125 C 75.023438 208.988281 80.226562 217.089844 82.726562 215.839844 C 85.175781 214.613281 85.964844 213.320312 89.023438 213.320312 Z M 89.023438 213.320312 "/>
<path style=" stroke:none;fill-rule:nonzero;fill:rgb(100%,100%,0%);fill-opacity:1;" d="M 228.4375 87.34375 L 225.5 89.023438 C 220.492188 89.023438 216.273438 91.542969 210.800781 91.542969 L 201.140625 90.703125 L 200.304688 92.382812 L 199.460938 90.703125 C 196.753906 89.347656 190.707031 92.980469 188.546875 94.0625 L 184.34375 94.0625 L 179.304688 99.941406 C 176.078125 101.554688 174.058594 102.460938 172.167969 106.242188 C 170.703125 109.171875 162.683594 114.988281 164.609375 118.835938 C 168.457031 126.535156 179.984375 112.621094 183.507812 110.859375 L 185.1875 112.539062 L 188.546875 109.179688 C 194.738281 106.082031 209.324219 109.910156 214.578125 112.539062 C 215.894531 113.195312 223.398438 111.222656 223.398438 113.796875 C 223.398438 117.4375 217.199219 119.628906 214.578125 120.9375 L 198.625 120.097656 C 191.464844 123.675781 179.953125 122.714844 171.75 126.816406 C 168.964844 128.207031 164.386719 132.667969 166.289062 136.476562 C 167.183594 138.265625 168.71875 139.652344 169.648438 141.515625 L 175.109375 148.652344 C 181.027344 151.613281 202.09375 162.453125 209.539062 158.730469 C 213.898438 156.550781 218.679688 155 222.976562 152.851562 L 228.015625 147.8125 C 233.984375 144.828125 239.296875 144.152344 242.714844 137.3125 C 245.46875 131.804688 237.40625 133.535156 235.578125 133.535156 C 234.304688 133.535156 232.636719 125.863281 232.636719 124.71875 C 232.636719 120.71875 239.945312 121.855469 241.035156 119.679688 C 244.203125 113.34375 239.378906 107.96875 236.835938 102.882812 C 235.898438 101.003906 239.222656 100.09375 238.515625 98.679688 L 235.996094 96.164062 C 234.199219 92.570312 244.082031 87.34375 228.4375 87.34375 Z M 228.4375 87.34375 "/>
<path style=" stroke:none;fill-rule:nonzero;fill:rgb(100%,100%,0%);fill-opacity:1;" d="M 332.578125 134.375 C 332.578125 139.050781 334.351562 134.375 332.578125 134.375 Z M 332.578125 134.375 "/>
<path style=" stroke:none;fill-rule:nonzero;fill:rgb(100%,100%,0%);fill-opacity:1;" d="M 80.625 177.207031 C 82.074219 177.207031 88.648438 181.429688 90.28125 182.246094 L 92.382812 186.445312 C 92.382812 186.445312 97.84375 182.246094 97.84375 182.246094 C 105 175.089844 112.429688 173.691406 120.515625 169.648438 C 122.546875 168.632812 125.519531 164.953125 124.296875 162.507812 C 120.28125 154.480469 97.707031 165.300781 94.902344 170.90625 C 94.101562 172.507812 88.910156 179.039062 86.921875 178.046875 C 84.941406 177.054688 87.707031 171.863281 88.183594 170.90625 C 89.792969 167.691406 101.902344 152.363281 97.84375 150.332031 C 91.46875 147.144531 85.414062 163.847656 83.984375 166.710938 C 83.984375 166.710938 78.945312 173.429688 78.945312 173.429688 C 78.6875 173.945312 80.105469 177.207031 80.625 177.207031 Z M 80.625 177.207031 "/>
<path style=" stroke:none;fill-rule:nonzero;fill:rgb(0%,100%,100%);fill-opacity:1;" d="M 320.820312 178.046875 C 319.53125 178.046875 319.53125 181.40625 320.820312 181.40625 C 320.820312 181.40625 320.820312 178.046875 320.820312 178.046875 Z M 320.820312 178.046875 "/>
<path style=" stroke:none;fill-rule:nonzero;fill:rgb(100%,100%,0%);fill-opacity:1;" d="M 233.476562 183.085938 C 231.527344 183.085938 222.953125 184.753906 221.296875 183.925781 C 220.449219 183.5 220.339844 179.785156 218.78125 180.566406 C 216.699219 181.609375 217.746094 189.707031 216.257812 188.964844 L 215.421875 185.605469 L 213.742188 188.964844 L 212.898438 180.566406 L 212.0625 187.285156 C 211.800781 187.414062 208.136719 185.605469 207.023438 185.605469 L 204.5 188.964844 L 202.820312 185.605469 L 200.304688 188.125 C 198.585938 188.125 198.183594 184.765625 197.78125 184.765625 C 195.605469 184.765625 195.484375 190.753906 191.90625 188.964844 C 187 186.511719 195.683594 186.652344 195.683594 185.1875 C 195.683594 182.941406 186.535156 183.761719 185.1875 183.085938 L 184.34375 179.726562 L 183.507812 183.085938 C 181.585938 184.046875 181.65625 181.40625 180.984375 181.40625 L 180.148438 183.925781 C 178.550781 183.925781 176.960938 185.605469 174.6875 185.605469 C 174.6875 185.605469 173.007812 190.226562 173.007812 190.226562 C 173.007812 191.277344 177.753906 191.96875 178.46875 192.324219 C 179.996094 193.089844 182.203125 194.84375 183.507812 194.84375 C 185.863281 194.84375 190.75 194.582031 193.585938 193.164062 C 193.585938 193.164062 196.945312 194.84375 196.945312 194.84375 C 202.632812 192 211.855469 196.625 217.101562 194.003906 C 218.628906 193.242188 223.910156 196.058594 226.335938 194.84375 C 226.335938 194.84375 229.277344 193.585938 229.277344 193.585938 C 229.277344 193.585938 230.539062 190.644531 230.539062 190.644531 C 230.539062 190.644531 231.375 192.324219 231.375 192.324219 C 233.125 192.324219 235.15625 186.285156 235.15625 185.1875 C 235.15625 185.1875 233.476562 183.085938 233.476562 183.085938 Z M 233.476562 183.085938 "/>
<path style=" stroke:none;fill-rule:nonzero;fill:rgb(100%,100%,0%);fill-opacity:1;" d="M 214.160156 179.726562 C 214.160156 185.933594 215.933594 179.726562 214.160156 179.726562 Z M 214.160156 179.726562 "/>
<path style=" stroke:none;fill-rule:nonzero;fill:rgb(100%,100%,0%);fill-opacity:1;" d="M 215.839844 180.566406 C 215.839844 183.710938 217.597656 180.566406 215.839844 180.566406 Z M 215.839844 180.566406 "/>
<path style=" stroke:none;fill-rule:nonzero;fill:rgb(100%,100%,0%);fill-opacity:1;" d="M 314.101562 184.765625 C 310.011719 184.765625 294.484375 181.886719 291.84375 180.566406 C 290.328125 179.808594 287.1875 183.425781 288.066406 185.1875 C 290.027344 189.109375 301.082031 188.964844 304.445312 187.285156 C 305.363281 186.824219 310.742188 185.757812 310.742188 187.285156 C 312.816406 187.285156 314.101562 188.050781 314.101562 184.765625 Z M 314.101562 184.765625 "/>
<path style=" stroke:none;fill-rule:nonzero;fill:rgb(100%,100%,0%);fill-opacity:1;" d="M 84.824219 203.242188 C 82.390625 203.242188 70.308594 188.214844 66.765625 186.445312 C 63.773438 184.949219 48.167969 185.777344 50.390625 190.226562 C 53.140625 195.722656 75.289062 198.375 72.226562 204.5 C 70.945312 207.070312 54.175781 201.984375 51.648438 200.722656 C 48.769531 199.28125 47.875 197.15625 44.929688 195.683594 C 40.597656 193.519531 36.09375 201.945312 37.792969 205.34375 C 40.046875 209.851562 65.527344 207.820312 62.148438 214.578125 C 57.34375 224.191406 37.054688 209.339844 32.753906 217.9375 C 32.125 219.195312 33.152344 220.417969 33.59375 221.296875 C 34.667969 223.445312 33.566406 226.117188 36.53125 227.597656 C 39.097656 228.882812 48.535156 220.949219 51.230469 226.335938 C 53.410156 230.699219 40.523438 231.796875 41.992188 234.734375 C 46.308594 243.367188 49.695312 232.5 55.007812 235.15625 C 57.394531 236.347656 64.414062 248.929688 71.804688 245.234375 L 74.328125 246.074219 C 81.839844 242.320312 80.765625 240.894531 78.105469 235.578125 L 76.84375 233.476562 C 70.550781 233.476562 62.714844 235.867188 58.789062 228.015625 C 58.253906 226.945312 58.945312 225.34375 59.628906 224.65625 C 63.175781 221.113281 65.796875 224.171875 69.289062 225.917969 L 71.804688 225.917969 C 78.859375 222.390625 70.066406 218.898438 72.226562 214.578125 C 75.023438 208.988281 80.226562 217.089844 82.726562 215.839844 C 85.175781 214.613281 85.964844 213.320312 89.023438 213.320312 C 89.023438 213.320312 85.242188 220.878906 85.242188 220.878906 C 85.242188 220.878906 81.464844 220.460938 81.464844 220.460938 C 81.464844 220.460938 83.144531 222.140625 83.144531 222.140625 C 84.3125 224.476562 82.273438 226.398438 81.464844 228.015625 C 79.191406 232.566406 86.378906 236.660156 83.984375 241.453125 C 82.636719 244.148438 80.074219 244.394531 78.523438 244.394531 C 78.523438 244.394531 76.84375 247.753906 76.84375 247.753906 C 76.84375 247.753906 69.289062 251.113281 69.289062 251.113281 C 66.53125 251.113281 57.109375 243.765625 55.007812 242.714844 C 50.171875 240.296875 45.691406 241.835938 40.734375 239.355469 C 34.769531 236.375 40.460938 235.03125 38.632812 231.375 C 38.632812 231.375 33.171875 230.117188 33.171875 230.117188 C 28.40625 227.734375 30.433594 220.855469 28.554688 217.101562 C 27.417969 214.824219 30.109375 215.667969 30.234375 215.421875 C 31.171875 213.542969 31.570312 211.640625 35.273438 211.640625 C 36.8125 211.640625 42.832031 212.496094 42.832031 211.21875 C 42.832031 210.210938 36.523438 209.535156 35.695312 209.121094 C 32.96875 207.757812 34.125 200.921875 35.273438 198.625 C 40.546875 188.078125 43.34375 193.539062 45.773438 192.324219 C 47 191.710938 48.746094 184.539062 51.648438 183.085938 C 51.648438 183.085938 55.007812 183.925781 55.007812 183.925781 C 65.558594 178.652344 73.257812 184.726562 78.105469 194.421875 C 80.121094 198.457031 84.824219 198.25 84.824219 203.242188 Z M 84.824219 203.242188 "/>
<path style=" stroke:none;fill-rule:nonzero;fill:rgb(100%,100%,0%);fill-opacity:1;" d="M 325.859375 208.28125 C 327.082031 208.28125 327.0625 203.773438 327.539062 202.820312 C 327.898438 202.101562 329.171875 203.757812 330.058594 201.984375 C 330.992188 200.117188 334.589844 193.207031 336.359375 192.324219 C 337.835938 191.585938 353.511719 187.046875 353.992188 187.285156 C 356.855469 188.714844 353.78125 194.84375 352.3125 194.84375 C 348.882812 194.84375 341.191406 199.566406 337.195312 201.5625 C 336.007812 202.15625 334.011719 201.632812 333.417969 202.820312 C 331.316406 207.023438 338.492188 209.3125 340.554688 208.28125 C 344.289062 206.414062 349.835938 203.242188 353.15625 203.242188 L 358.195312 197.363281 C 363.652344 194.632812 359.714844 204.921875 361.554688 204.921875 C 367.847656 204.921875 368.988281 202.578125 372.050781 208.703125 C 373.109375 210.820312 369.277344 214.160156 366.59375 214.160156 L 358.195312 210.800781 C 355.140625 209.273438 351.929688 212.480469 349.796875 212.480469 C 348.953125 212.480469 348.582031 211.128906 347.695312 212.898438 C 346.53125 215.222656 350.792969 217.597656 352.3125 218.359375 C 356.957031 220.679688 371.210938 217.867188 371.210938 224.65625 L 369.53125 226.335938 C 366.289062 232.820312 355.480469 221.679688 352.734375 227.179688 C 351.859375 228.925781 350.9375 231.144531 351.054688 231.375 C 352.566406 234.402344 366.265625 233.710938 363.652344 238.9375 C 362.710938 240.816406 348.957031 243.976562 346.4375 242.714844 C 344.734375 241.863281 346.699219 232.503906 343.078125 234.316406 L 338.457031 236.414062 C 336.980469 239.371094 340.03125 242.714844 336.359375 242.714844 C 335.242188 242.714844 334.765625 245.277344 333 244.394531 C 328.507812 242.148438 322.355469 237.542969 325.019531 232.21875 C 325.574219 231.109375 324.667969 230.082031 326.28125 229.277344 C 331.59375 226.621094 338.765625 231.851562 343.914062 229.277344 C 349.292969 226.589844 342.460938 217.632812 338.875 215.839844 C 329.835938 211.320312 329.714844 223.4375 326.28125 221.71875 C 324.355469 220.757812 327.375 219.949219 327.539062 219.617188 C 329.695312 215.304688 331.128906 212.480469 325.019531 212.480469 C 325.019531 212.480469 323.339844 214.578125 323.339844 214.578125 C 321.847656 217.566406 320.226562 237.746094 321.660156 240.617188 C 322.6875 242.667969 336.644531 248.449219 339.71875 246.914062 C 339.71875 246.914062 342.234375 244.394531 342.234375 244.394531 C 342.234375 244.394531 347.273438 246.074219 347.273438 246.074219 C 348.851562 245.285156 353.171875 246.914062 354.835938 246.914062 C 354.835938 246.914062 355.671875 245.234375 355.671875 245.234375 C 359.527344 243.308594 364.371094 245.054688 367.011719 239.773438 C 367.011719 239.773438 367.851562 234.734375 367.851562 234.734375 C 367.851562 234.734375 366.171875 233.054688 366.171875 233.054688 C 366.171875 233.054688 371.632812 230.957031 371.632812 230.957031 C 371.847656 230.847656 375.191406 219.183594 374.570312 217.9375 C 373.84375 216.488281 373.710938 219.839844 373.3125 220.039062 C 373.3125 220.039062 370.371094 217.9375 370.371094 217.9375 C 370.371094 217.9375 372.46875 215.839844 372.46875 215.839844 C 374.402344 215.839844 374.992188 213.734375 376.25 211.21875 C 377.542969 208.636719 374.640625 208.839844 374.570312 208.703125 C 374.570312 208.703125 374.570312 204.5 374.570312 204.5 C 372.226562 199.8125 368.113281 199.988281 365.332031 194.421875 C 363.683594 191.128906 362.792969 192.945312 359.875 191.484375 C 359.875 191.484375 360.292969 189.382812 360.292969 189.382812 C 360.292969 189.382812 354.835938 183.925781 354.835938 183.925781 C 353.039062 183.925781 349.398438 183.085938 347.273438 183.085938 C 347.273438 183.085938 346.4375 185.605469 346.4375 185.605469 C 346.4375 185.605469 345.59375 183.925781 345.59375 183.925781 C 345.59375 183.925781 343.914062 185.605469 343.914062 185.605469 C 343.914062 185.605469 337.195312 186.445312 337.195312 186.445312 C 330.355469 189.867188 325.859375 200.40625 325.859375 208.28125 Z M 325.859375 208.28125 "/>
<path style=" stroke:none;fill-rule:nonzero;fill:rgb(0%,100%,100%);fill-opacity:1;" d="M 319.140625 183.925781 L 318.300781 184.765625 C 318.300781 184.765625 319.140625 183.925781 319.140625 183.925781 Z M 319.140625 183.925781 "/>
<path style=" stroke:none;fill-rule:nonzero;fill:rgb(27.450982%,64.705884%,8.235294%);fill-opacity:1;" d="M 78.945312 187.285156 C 78.945312 190.457031 79.164062 191.28125 81.464844 193.585938 C 82.058594 194.175781 84.066406 195.9375 84.824219 194.421875 C 86.207031 191.660156 81.320312 187.285156 78.945312 187.285156 Z M 78.945312 187.285156 "/>
<path style=" stroke:none;fill-rule:nonzero;fill:rgb(100%,100%,0%);fill-opacity:1;" d="M 92.382812 187.285156 C 95.898438 187.285156 109.628906 191.84375 107.5 196.101562 C 105.347656 200.410156 95.925781 194.84375 94.484375 194.84375 C 91.199219 194.84375 94.863281 198.699219 94.0625 200.304688 C 93.433594 201.5625 89.863281 201.289062 89.863281 199.882812 C 89.863281 197.257812 88.464844 194.699219 89.863281 191.90625 C 90.269531 191.089844 92.382812 191.878906 92.382812 187.285156 Z M 92.382812 187.285156 "/>
<path style=" stroke:none;fill-rule:nonzero;fill:rgb(0%,100%,100%);fill-opacity:1;" d="M 325.859375 208.28125 C 327.082031 208.28125 327.0625 203.773438 327.539062 202.820312 C 327.898438 202.101562 329.171875 203.757812 330.058594 201.984375 C 330.992188 200.117188 334.589844 193.207031 336.359375 192.324219 C 337.835938 191.585938 353.511719 187.046875 353.992188 187.285156 C 356.855469 188.714844 353.78125 194.84375 352.3125 194.84375 C 348.882812 194.84375 341.191406 199.566406 337.195312 201.5625 C 336.007812 202.15625 334.011719 201.632812 333.417969 202.820312 C 331.316406 207.023438 338.492188 209.3125 340.554688 208.28125 C 344.289062 206.414062 349.835938 203.242188 353.15625 203.242188 L 358.195312 197.363281 C 363.652344 194.632812 359.714844 204.921875 361.554688 204.921875 C 367.847656 204.921875 368.988281 202.578125 372.050781 208.703125 C 373.109375 210.820312 369.277344 214.160156 366.59375 214.160156 L 358.195312 210.800781 C 355.140625 209.273438 351.929688 212.480469 349.796875 212.480469 C 348.953125 212.480469 348.582031 211.128906 347.695312 212.898438 C 346.53125 215.222656 350.792969 217.597656 352.3125 218.359375 C 356.957031 220.679688 371.210938 217.867188 371.210938 224.65625 L 369.53125 226.335938 C 366.289062 232.820312 355.480469 221.679688 352.734375 227.179688 C 351.859375 228.925781 350.9375 231.144531 351.054688 231.375 C 352.566406 234.402344 366.265625 233.710938 363.652344 238.9375 C 362.710938 240.816406 348.957031 243.976562 346.4375 242.714844 C 344.734375 241.863281 346.699219 232.503906 343.078125 234.316406 L 338.457031 236.414062 C 336.980469 239.371094 340.03125 242.714844 336.359375 242.714844 C 335.242188 242.714844 334.765625 245.277344 333 244.394531 C 328.507812 242.148438 322.355469 237.542969 325.019531 232.21875 C 325.574219 231.109375 324.667969 230.082031 326.28125 229.277344 C 331.59375 226.621094 338.765625 231.851562 343.914062 229.277344 C 349.292969 226.589844 342.460938 217.632812 338.875 215.839844 C 329.835938 211.320312 329.714844 223.4375 326.28125 221.71875 C 324.355469 220.757812 327.375 219.949219 327.539062 219.617188 C 329.695312 215.304688 331.128906 212.480469 325.019531 212.480469 C 324.289062 212.480469 324.832031 208.28125 325.859375 208.28125 Z M 325.859375 208.28125 "/>
<path style=" stroke:none;fill-rule:nonzero;fill:rgb(100%,100%,0%);fill-opacity:1;" d="M 308.222656 205.761719 C 308.222656 203.417969 310.742188 208.796875 310.742188 205.761719 C 308.410156 205.761719 312.8125 202.402344 313.261719 202.402344 C 313.261719 201.082031 312.632812 194.84375 314.101562 194.84375 C 314.101562 190.835938 311.304688 195.546875 310.742188 194.421875 C 310.300781 193.542969 313.195312 188.125 310.742188 188.125 C 310.742188 191.917969 296.683594 190.628906 293.945312 196.101562 C 293.945312 196.101562 294.785156 197.78125 294.785156 197.78125 C 294.785156 198.914062 291.492188 203.242188 299.40625 203.242188 C 299.40625 203.242188 300.242188 201.5625 300.242188 201.5625 C 300.242188 201.5625 301.085938 204.082031 301.085938 204.082031 C 302.234375 204.65625 304.863281 203.351562 304.863281 205.761719 C 304.863281 205.761719 305.703125 205.761719 305.703125 205.761719 C 305.703125 203.769531 307.621094 205.761719 308.222656 205.761719 Z M 308.222656 205.761719 "/>
<path style=" stroke:none;fill-rule:nonzero;fill:rgb(100%,100%,0%);fill-opacity:1;" d="M 316.621094 188.964844 L 315.78125 191.90625 C 314.292969 194.882812 322.175781 188.964844 316.621094 188.964844 Z M 316.621094 188.964844 "/>
<path style=" stroke:none;fill-rule:nonzero;fill:rgb(0%,100%,100%);fill-opacity:1;" d="M 314.101562 194.84375 L 314.523438 201.5625 C 315.03125 201.5625 315.636719 194.84375 314.101562 194.84375 Z M 314.101562 194.84375 "/>
<path style=" stroke:none;fill-rule:nonzero;fill:rgb(27.450982%,64.705884%,8.235294%);fill-opacity:1;" d="M 321.660156 196.523438 L 316.621094 201.984375 C 314.484375 206.253906 307.398438 225.296875 313.679688 228.4375 C 316.765625 229.980469 318.390625 222.796875 319.140625 221.296875 C 320.949219 217.679688 318.160156 208.144531 319.140625 206.179688 C 319.355469 205.753906 326.632812 196.523438 321.660156 196.523438 Z M 321.660156 196.523438 "/>
<path style=" stroke:none;fill-rule:nonzero;fill:rgb(92.156863%,34.117648%,100%);fill-opacity:1;" d="M 177.207031 199.042969 L 187.703125 197.363281 C 194.96875 200.996094 201.5625 209.242188 201.5625 217.519531 C 193.726562 217.519531 180.289062 218.851562 175.945312 216.679688 C 173.988281 215.699219 175.933594 212.03125 175.527344 211.21875 C 175.527344 211.21875 172.585938 209.960938 172.585938 209.960938 C 170.210938 208.773438 173.007812 207.25 173.007812 207.023438 C 173.007812 206.265625 167.753906 204.398438 171.75 202.402344 C 171.75 202.402344 173.429688 202.402344 173.429688 202.402344 C 173.429688 202.402344 177.207031 199.042969 177.207031 199.042969 Z M 177.207031 199.042969 "/>
<path style=" stroke:none;fill-rule:nonzero;fill:rgb(60.000002%,32.549021%,100%);fill-opacity:1;" d="M 207.441406 287.226562 L 201.5625 288.066406 C 201.5625 288.066406 202.402344 285.125 202.402344 285.125 C 200.699219 281.71875 189.667969 279.527344 186.023438 281.347656 C 184.4375 282.140625 180.96875 287.226562 180.566406 287.226562 C 180.566406 287.226562 178.46875 285.546875 178.46875 285.546875 C 178.46875 285.546875 173.429688 285.546875 173.429688 285.546875 C 165.078125 281.371094 154.871094 281.308594 146.554688 277.148438 C 146.554688 277.148438 138.574219 267.070312 138.574219 267.070312 C 138.574219 264.3125 140.945312 265.269531 141.933594 263.289062 C 143.015625 261.125 140.253906 259.738281 140.253906 257.832031 C 142.289062 257.832031 145.679688 240.679688 146.972656 238.09375 C 149.070312 233.898438 152.503906 238.480469 155.789062 236.835938 C 157.546875 235.957031 158.679688 233.15625 159.570312 231.375 C 159.570312 231.375 162.507812 230.957031 162.507812 230.957031 C 164.207031 230.109375 162.089844 227.015625 162.089844 226.335938 C 162.089844 225.5 163.609375 224.339844 162.929688 222.976562 C 161.644531 220.410156 153.632812 223.636719 152.429688 224.238281 C 151.585938 224.660156 148.652344 224.421875 148.652344 223.398438 C 148.652344 219.65625 149.878906 216.679688 144.453125 216.679688 C 144.453125 216.679688 147.8125 209.539062 147.8125 209.539062 C 149.179688 206.804688 145.292969 204.960938 145.292969 202.402344 C 145.292969 201.4375 149.867188 201.164062 150.75 200.722656 C 156.113281 198.042969 164.339844 198.203125 170.070312 198.203125 C 171.953125 198.203125 177.207031 198.070312 177.207031 199.042969 C 177.207031 199.042969 173.429688 202.402344 173.429688 202.402344 C 173.429688 202.402344 171.75 202.402344 171.75 202.402344 C 167.753906 204.398438 173.007812 206.265625 173.007812 207.023438 C 173.007812 207.25 170.210938 208.773438 172.585938 209.960938 C 172.585938 209.960938 175.527344 211.21875 175.527344 211.21875 C 175.933594 212.03125 173.988281 215.699219 175.945312 216.679688 C 180.289062 218.851562 193.726562 217.519531 201.5625 217.519531 C 201.5625 217.519531 208.28125 217.519531 208.28125 217.519531 C 215.898438 217.519531 229.871094 221.789062 233.476562 214.578125 C 233.476562 214.578125 235.15625 213.742188 235.15625 213.742188 C 235.15625 213.742188 233.476562 212.898438 233.476562 212.898438 C 233.476562 211.429688 239.355469 207.460938 239.355469 206.179688 C 239.355469 203.914062 236.835938 199.671875 236.835938 199.042969 C 240.046875 199.042969 246.417969 196.484375 249.851562 198.203125 C 249.851562 198.203125 264.550781 202.402344 264.550781 202.402344 C 264.550781 204.164062 262.78125 205.519531 262.03125 207.023438 C 260.28125 210.519531 264.550781 213.9375 264.550781 216.679688 C 263.550781 216.679688 259.804688 218.523438 260.351562 219.617188 C 260.351562 219.617188 262.871094 222.140625 262.871094 222.140625 C 262.871094 222.140625 263.289062 224.238281 263.289062 224.238281 C 264.003906 224.238281 265.390625 223.105469 265.390625 223.820312 C 265.390625 223.820312 264.550781 225.917969 264.550781 225.917969 C 257.351562 225.917969 253.976562 218.816406 246.492188 222.558594 C 243.132812 224.238281 246.835938 231.222656 247.753906 233.054688 C 249.019531 235.589844 256.582031 234.753906 257.832031 237.257812 C 257.832031 237.257812 262.871094 243.976562 262.871094 243.976562 C 262.871094 243.976562 262.871094 248.171875 262.871094 248.171875 C 262.871094 248.171875 265.390625 249.851562 265.390625 249.851562 C 267.292969 253.65625 267.847656 257.832031 273.789062 257.832031 C 273.789062 260.550781 271.519531 258.59375 270.429688 260.773438 C 269.363281 262.90625 272.109375 263.886719 272.109375 265.390625 C 268.832031 265.390625 265.945312 275.820312 261.609375 277.988281 C 256.886719 280.351562 249.046875 279.652344 245.65625 281.347656 C 241.191406 283.578125 234.421875 287.226562 229.277344 287.226562 C 229.277344 278.414062 207.441406 279.019531 207.441406 287.226562 Z M 207.441406 287.226562 "/>
<path style=" stroke:none;fill-rule:nonzero;fill:rgb(92.156863%,34.117648%,100%);fill-opacity:1;" d="M 236.835938 199.042969 C 227.738281 199.042969 212.480469 195.65625 212.480469 207.859375 C 212.480469 209.792969 207.441406 213.671875 207.441406 214.578125 L 209.121094 215.421875 C 209.121094 216 208.28125 216.121094 208.28125 217.519531 C 215.898438 217.519531 229.871094 221.789062 233.476562 214.578125 C 233.476562 214.578125 235.15625 213.742188 235.15625 213.742188 C 235.15625 213.742188 233.476562 212.898438 233.476562 212.898438 C 233.476562 211.429688 239.355469 207.460938 239.355469 206.179688 C 239.355469 203.914062 236.835938 199.671875 236.835938 199.042969 Z M 236.835938 199.042969 "/>
<path style=" stroke:none;fill-rule:nonzero;fill:rgb(20.392157%,100%,5.098039%);fill-opacity:1;" d="M 141.09375 219.199219 L 142.773438 219.199219 C 142.773438 218.160156 143.128906 216.679688 144.453125 216.679688 C 144.453125 216.679688 147.8125 209.539062 147.8125 209.539062 C 149.179688 206.804688 145.292969 204.960938 145.292969 202.402344 C 139.714844 202.402344 130.121094 203.769531 126.816406 210.382812 C 125.660156 212.695312 125.519531 215.496094 124.296875 217.9375 C 121.054688 224.421875 126.816406 230.175781 126.816406 231.375 C 126.816406 231.488281 124.296875 234.398438 124.296875 235.578125 C 124.296875 235.578125 126.816406 236.835938 126.816406 236.835938 C 126.816406 233.785156 138.023438 219.199219 141.09375 219.199219 Z M 141.09375 219.199219 "/>
<path style=" stroke:none;fill-rule:nonzero;fill:rgb(20.392157%,100%,5.098039%);fill-opacity:1;" d="M 264.550781 216.679688 C 270.277344 216.679688 284.707031 235.078125 284.707031 241.035156 C 289.355469 241.035156 285.546875 231.808594 285.546875 228.859375 C 285.546875 228.859375 287.226562 226.335938 287.226562 226.335938 C 286.222656 224.328125 286.386719 222.839844 286.386719 221.296875 C 286.386719 221.296875 283.027344 216.257812 283.027344 216.257812 C 279.019531 208.238281 272.992188 202.402344 264.550781 202.402344 C 264.550781 204.164062 262.78125 205.519531 262.03125 207.023438 C 260.28125 210.519531 264.550781 213.9375 264.550781 216.679688 Z M 264.550781 216.679688 "/>
<path style=" stroke:none;fill-rule:nonzero;fill:rgb(0%,100%,100%);fill-opacity:1;" d="M 313.261719 202.402344 C 312.8125 202.402344 308.410156 205.761719 310.742188 205.761719 C 313.207031 205.761719 313.261719 205.625 313.261719 202.402344 Z M 313.261719 202.402344 "/>
<path style=" stroke:none;fill-rule:nonzero;fill:rgb(0%,100%,100%);fill-opacity:1;" d="M 305.703125 205.761719 C 305.703125 207.007812 308.222656 207.007812 308.222656 205.761719 C 307.621094 205.761719 305.703125 203.769531 305.703125 205.761719 Z M 305.703125 205.761719 "/>
<path style=" stroke:none;fill-rule:nonzero;fill:rgb(100%,100%,0%);fill-opacity:1;" d="M 100.78125 209.960938 C 99.40625 209.960938 99.101562 207.011719 99.101562 210.800781 C 100.425781 210.800781 100.78125 212.253906 100.78125 209.960938 Z M 100.78125 209.960938 "/>
<path style=" stroke:none;fill-rule:nonzero;fill:rgb(100%,100%,0%);fill-opacity:1;" d="M 95.742188 212.480469 C 95.742188 207.679688 92.382812 209.722656 92.382812 213.320312 C 92.984375 213.320312 94.0625 210.519531 94.0625 212.480469 C 94.0625 212.480469 94.902344 212.480469 94.902344 212.480469 C 94.902344 212.480469 95.742188 212.480469 95.742188 212.480469 Z M 95.742188 212.480469 "/>
<path style=" stroke:none;fill-rule:nonzero;fill:rgb(100%,100%,0%);fill-opacity:1;" d="M 102.460938 209.121094 L 100.78125 209.960938 C 100.78125 209.960938 102.460938 209.121094 102.460938 209.121094 Z M 102.460938 209.121094 "/>
<path style=" stroke:none;fill-rule:nonzero;fill:rgb(100%,100%,0%);fill-opacity:1;" d="M 99.101562 210.800781 C 96.070312 210.800781 97.421875 209.449219 97.421875 212.480469 C 97.421875 212.480469 99.101562 210.800781 99.101562 210.800781 Z M 99.101562 210.800781 "/>
<path style=" stroke:none;fill-rule:nonzero;fill:rgb(0%,100%,100%);fill-opacity:1;" d="M 94.0625 212.480469 L 94.902344 212.480469 C 94.902344 213.476562 94.0625 213.476562 94.0625 212.480469 Z M 94.0625 212.480469 "/>
<path style=" stroke:none;fill-rule:nonzero;fill:rgb(98.039216%,50.196081%,44.705883%);fill-opacity:1;" d="M 140.253906 257.832031 C 140.253906 259.738281 143.015625 261.125 141.933594 263.289062 C 140.945312 265.269531 138.574219 264.3125 138.574219 267.070312 C 138.574219 267.75 135.796875 269.492188 135.214844 268.328125 C 133.136719 264.171875 129.296875 262.371094 126.816406 257.414062 C 125.28125 254.34375 122.242188 245.566406 124.296875 241.453125 C 124.296875 241.453125 126.816406 236.835938 126.816406 236.835938 C 126.816406 233.785156 138.023438 219.199219 141.09375 219.199219 C 141.09375 220.375 142.773438 220.375 142.773438 219.199219 C 142.773438 218.160156 143.128906 216.679688 144.453125 216.679688 C 149.878906 216.679688 148.652344 219.65625 148.652344 223.398438 C 143.589844 223.398438 142.621094 229.164062 141.09375 232.21875 C 141.09375 232.21875 138.574219 233.898438 138.574219 233.898438 C 137.90625 235.234375 138.574219 238.347656 138.574219 238.9375 C 138.574219 238.9375 135.214844 241.453125 135.214844 241.453125 C 133.742188 244.398438 133.738281 251.101562 135.214844 254.054688 C 135.214844 254.054688 138.15625 259.511719 138.15625 259.511719 C 138.15625 259.511719 140.253906 257.832031 140.253906 257.832031 Z M 140.253906 257.832031 "/>
<path style=" stroke:none;fill-rule:nonzero;fill:rgb(98.039216%,50.196081%,44.705883%);fill-opacity:1;" d="M 273.789062 257.832031 C 273.789062 260.550781 271.519531 258.59375 270.429688 260.773438 C 269.363281 262.90625 272.109375 263.886719 272.109375 265.390625 C 281.054688 265.390625 284.707031 252.449219 284.707031 244.394531 C 284.707031 244.394531 284.707031 241.875 284.707031 241.875 C 284.707031 241.875 284.707031 241.035156 284.707031 241.035156 C 284.707031 235.078125 270.277344 216.679688 264.550781 216.679688 C 263.550781 216.679688 259.804688 218.523438 260.351562 219.617188 C 260.351562 219.617188 262.871094 222.140625 262.871094 222.140625 C 262.871094 222.140625 263.289062 224.238281 263.289062 224.238281 C 264.003906 224.238281 265.390625 223.105469 265.390625 223.820312 C 265.390625 223.820312 264.550781 225.917969 264.550781 225.917969 C 264.550781 228.210938 267.328125 226.851562 267.910156 228.015625 C 270.273438 232.746094 277.289062 242.011719 274.628906 247.335938 C 274.335938 247.921875 276.023438 257.832031 273.789062 257.832031 Z M 273.789062 257.832031 "/>
<path style=" stroke:none;fill-rule:nonzero;fill:rgb(27.450982%,64.705884%,8.235294%);fill-opacity:1;" d="M 92.382812 219.199219 C 92.382812 222.777344 85.980469 227.8125 89.863281 235.578125 L 91.960938 239.355469 L 92.382812 236.414062 C 91.609375 234.871094 90.605469 230.375 92.804688 229.277344 C 94.054688 228.652344 98.507812 230.042969 99.101562 228.859375 C 100.523438 226.011719 95.125 219.199219 92.382812 219.199219 Z M 92.382812 219.199219 "/>
<path style=" stroke:none;fill-rule:nonzero;fill:rgb(35.686275%,94.509804%,100%);fill-opacity:1;" d="M 264.550781 225.917969 C 257.351562 225.917969 253.976562 218.816406 246.492188 222.558594 C 243.132812 224.238281 246.835938 231.222656 247.753906 233.054688 C 249.019531 235.589844 256.582031 234.753906 257.832031 237.257812 L 262.871094 243.976562 L 262.871094 248.171875 L 265.390625 249.851562 C 267.292969 253.65625 267.847656 257.832031 273.789062 257.832031 C 276.023438 257.832031 274.335938 247.921875 274.628906 247.335938 C 277.289062 242.011719 270.273438 232.746094 267.910156 228.015625 C 267.328125 226.851562 264.550781 228.210938 264.550781 225.917969 Z M 264.550781 225.917969 "/>
<path style=" stroke:none;fill-rule:nonzero;fill:rgb(35.686275%,94.509804%,100%);fill-opacity:1;" d="M 148.652344 223.398438 C 143.589844 223.398438 142.621094 229.164062 141.09375 232.21875 L 138.574219 233.898438 C 137.90625 235.234375 138.574219 238.347656 138.574219 238.9375 L 135.214844 241.453125 C 133.742188 244.398438 133.738281 251.101562 135.214844 254.054688 L 138.15625 259.511719 L 140.253906 257.832031 C 142.289062 257.832031 145.679688 240.679688 146.972656 238.09375 C 149.070312 233.898438 152.503906 238.480469 155.789062 236.835938 C 157.546875 235.957031 158.679688 233.15625 159.570312 231.375 C 159.570312 231.375 162.507812 230.957031 162.507812 230.957031 C 164.207031 230.109375 162.089844 227.015625 162.089844 226.335938 C 162.089844 225.5 163.609375 224.339844 162.929688 222.976562 C 161.644531 220.410156 153.632812 223.636719 152.429688 224.238281 C 151.585938 224.660156 148.652344 224.421875 148.652344 223.398438 Z M 148.652344 223.398438 "/>
<path style=" stroke:none;fill-rule:nonzero;fill:rgb(20.392157%,100%,5.098039%);fill-opacity:1;" d="M 284.707031 241.875 C 285.953125 241.875 285.953125 244.394531 284.707031 244.394531 C 284.707031 244.394531 284.707031 241.875 284.707031 241.875 Z M 284.707031 241.875 "/>
<path style=" stroke:none;fill-rule:nonzero;fill:rgb(27.450982%,64.705884%,8.235294%);fill-opacity:1;" d="M 37.792969 244.394531 C 37.792969 252.777344 42.089844 244.394531 37.792969 244.394531 Z M 37.792969 244.394531 "/>
<path style=" stroke:none;fill-rule:nonzero;fill:rgb(27.450982%,64.705884%,8.235294%);fill-opacity:1;" d="M 83.984375 245.234375 L 82.304688 249.851562 C 85.21875 255.683594 93.871094 245.234375 83.984375 245.234375 Z M 83.984375 245.234375 "/>
<path style=" stroke:none;fill-rule:nonzero;fill:rgb(27.450982%,64.705884%,8.235294%);fill-opacity:1;" d="M 370.371094 245.234375 L 367.851562 248.171875 C 367.199219 249.480469 369.734375 250.800781 370.789062 250.273438 C 373.378906 248.980469 374.648438 245.234375 370.371094 245.234375 Z M 370.371094 245.234375 "/>
<path style=" stroke:none;fill-rule:nonzero;fill:rgb(27.450982%,64.705884%,8.235294%);fill-opacity:1;" d="M 324.179688 248.59375 C 324.179688 257.183594 334.292969 248.59375 324.179688 248.59375 Z M 324.179688 248.59375 "/>
<path style=" stroke:none;fill-rule:nonzero;fill:rgb(27.450982%,64.705884%,8.235294%);fill-opacity:1;" d="M 318.300781 254.472656 C 318.300781 256.535156 314.273438 257.757812 315.78125 260.773438 C 320.652344 270.515625 335.105469 263.085938 324.601562 257.832031 C 322.566406 256.816406 320.683594 254.472656 318.300781 254.472656 Z M 318.300781 254.472656 "/>
<path style=" stroke:none;fill-rule:nonzero;fill:rgb(27.450982%,64.705884%,8.235294%);fill-opacity:1;" d="M 91.542969 261.191406 L 89.023438 262.453125 C 84.320312 271.855469 73.90625 257 73.90625 266.648438 C 73.90625 270.351562 91.410156 267.347656 93.640625 266.230469 C 95.75 265.175781 93.445312 261.191406 91.542969 261.191406 Z M 91.542969 261.191406 "/>
<path style=" stroke:none;fill-rule:nonzero;fill:rgb(27.450982%,64.705884%,8.235294%);fill-opacity:1;" d="M 336.777344 264.550781 L 334.257812 266.648438 C 334.257812 268.601562 340.21875 269.847656 340.976562 268.328125 C 341.28125 267.71875 342.664062 264.550781 340.554688 264.550781 L 338.875 265.390625 Z M 336.777344 264.550781 "/>
<path style=" stroke:none;fill-rule:nonzero;fill:rgb(100%,20.392157%,15.294118%);fill-opacity:1;" d="M 180.566406 287.226562 C 180.96875 287.226562 184.4375 282.140625 186.023438 281.347656 C 189.667969 279.527344 200.699219 281.71875 202.402344 285.125 L 201.5625 288.066406 C 201.5625 299.464844 180.566406 293.5 180.566406 287.226562 Z M 180.566406 287.226562 "/>
<path style=" stroke:none;fill-rule:nonzero;fill:rgb(100%,20.392157%,15.294118%);fill-opacity:1;" d="M 207.441406 287.226562 C 207.441406 290.039062 220.046875 296.25 222.976562 294.785156 C 224.875 293.835938 228.617188 287.226562 229.277344 287.226562 C 229.277344 278.414062 207.441406 279.019531 207.441406 287.226562 Z M 207.441406 287.226562 "/>
</g>
</svg>
