<?xml version="1.0" encoding="UTF-8"?>
<svg xmlns="http://www.w3.org/2000/svg" xmlns:xlink="http://www.w3.org/1999/xlink" width="430px" height="430px" viewBox="0 0 430 430" version="1.1">
<g id="surface1">
<rect x="0" y="0" width="430" height="430" style="fill:rgb(0%,0%,0%);fill-opacity:1;stroke:none;"/>
<path style=" stroke:none;fill-rule:nonzero;fill:rgb(1.176471%,75.686276%,17.647059%);fill-opacity:1;" d="M 30.234375 194.003906 C 27.039062 194.003906 28.554688 188.6875 28.554688 186.867188 L 26.875 186.023438 L 28.554688 183.507812 C 28.554688 179.988281 28.554688 172.949219 28.554688 168.390625 C 28.554688 166.230469 32.324219 161.648438 31.074219 159.148438 C 29.867188 156.738281 33.929688 144.203125 36.113281 139.835938 L 37.792969 133.117188 C 40.15625 128.386719 44.367188 122.484375 47.03125 117.15625 L 52.070312 112.117188 C 53.753906 108.753906 55.214844 106.558594 58.367188 104.980469 L 59.210938 102.460938 L 60.046875 104.140625 C 61.101562 104.140625 64.242188 98.695312 64.667969 97.84375 C 65.839844 95.5 69.792969 95.070312 71.804688 94.0625 L 76.007812 89.023438 C 80.691406 86.683594 85.722656 84.585938 90.28125 82.304688 L 93.640625 78.105469 C 98.769531 75.542969 104.390625 73.992188 109.601562 71.386719 C 113.300781 69.535156 118.382812 70.773438 122.195312 68.867188 C 124.109375 67.910156 127.8125 70.257812 128.914062 69.707031 C 131.289062 68.519531 132.789062 65.25 135.632812 63.828125 L 150.75 62.988281 C 156.804688 59.960938 165.480469 61.082031 170.070312 58.789062 C 178.015625 54.816406 190.011719 67.082031 195.265625 69.707031 C 197.203125 70.675781 197.984375 75.484375 201.140625 73.90625 L 202.820312 70.546875 C 206.0625 68.925781 208.128906 67.894531 211.21875 66.347656 L 213.742188 62.988281 L 221.296875 60.46875 C 225.863281 58.1875 252.320312 60.023438 256.570312 62.148438 C 258.101562 62.914062 263.382812 60.09375 265.8125 61.308594 C 271.761719 64.285156 278.875 61.542969 285.125 64.667969 C 292.433594 68.320312 299.945312 69.976562 307.804688 73.90625 C 310.183594 75.097656 313.773438 74.371094 316.203125 75.585938 C 319.179688 77.074219 320.503906 80.675781 323.757812 82.304688 C 330.839844 85.84375 337.871094 90.199219 345.59375 94.0625 C 347.671875 95.101562 352.695312 102.230469 353.15625 102.460938 L 357.773438 106.242188 L 357.773438 108.757812 L 359.875 109.179688 C 361.128906 109.808594 366.289062 117.394531 367.011719 118.835938 L 370.371094 128.078125 L 372.890625 129.757812 C 377.703125 139.378906 377.929688 149.714844 377.929688 159.148438 L 379.609375 159.992188 L 379.609375 167.546875 C 381 170.332031 382.035156 182.851562 380.449219 186.023438 C 379.421875 188.078125 379.761719 190.761719 378.769531 192.742188 L 377.089844 194.003906 C 369.941406 194.003906 362.148438 189.804688 355.671875 189.804688 C 355.671875 189.804688 353.15625 187.285156 353.15625 187.285156 C 353.15625 187.285156 350.214844 188.964844 350.214844 188.964844 C 350.214844 188.964844 349.375 188.125 349.375 188.125 C 347.589844 188.125 345.648438 187.285156 344.335938 187.285156 C 344.335938 176.835938 345.679688 172.753906 340.976562 163.351562 C 340.351562 162.101562 342.074219 156.210938 340.136719 156.210938 C 340.136719 156.210938 339.296875 156.210938 339.296875 156.210938 C 339.296875 148.507812 331.738281 141.980469 331.738281 135.214844 C 331.738281 134.335938 332.136719 132.695312 330.898438 132.695312 C 330.898438 131.945312 322.003906 120.9375 319.980469 120.9375 C 319.980469 119.898438 319.625 118.417969 318.300781 118.417969 C 318.300781 115.890625 307.964844 109.179688 305.703125 109.179688 C 305.703125 107.710938 305.492188 107.5 304.023438 107.5 C 304.023438 106.507812 290.457031 101.765625 288.484375 100.78125 C 278.738281 95.910156 263.746094 97.230469 255.734375 93.222656 C 252.648438 91.679688 248.011719 93.140625 244.8125 91.542969 C 242.339844 90.304688 232.734375 90.476562 231.796875 88.601562 C 230.433594 85.875 220.929688 88.5 220.878906 88.601562 C 218.773438 92.816406 219.617188 98.6875 217.519531 102.882812 C 215.242188 107.433594 199.488281 111.710938 194.421875 109.179688 C 194.421875 109.179688 188.125 106.242188 188.125 106.242188 C 187.429688 104.851562 188.867188 103.460938 186.867188 102.460938 C 186.867188 102.460938 184.765625 102.039062 184.765625 102.039062 C 184.765625 102.039062 184.765625 97 184.765625 97 C 184.765625 97 181.828125 93.222656 181.828125 93.222656 C 181.828125 93.222656 180.566406 93.640625 180.566406 93.640625 C 179.707031 91.921875 179.71875 88.390625 177.625 87.34375 C 176.402344 86.730469 171.175781 87.34375 170.070312 87.34375 C 170.070312 87.34375 168.390625 89.863281 168.390625 89.863281 C 168.390625 89.863281 165.867188 89.023438 165.867188 89.023438 C 165.867188 89.023438 163.351562 92.382812 163.351562 92.382812 C 163.351562 92.382812 155.789062 92.382812 155.789062 92.382812 C 155.789062 92.382812 153.273438 94.902344 153.273438 94.902344 C 133.789062 94.902344 96.238281 109.445312 87.34375 127.234375 C 87.34375 127.234375 83.144531 131.4375 83.144531 131.4375 C 80.746094 136.230469 77.621094 141.640625 74.746094 147.390625 C 73.78125 149.320312 74.042969 152.15625 73.066406 154.109375 C 68.039062 164.164062 63.828125 179 63.828125 189.804688 C 60.507812 189.804688 59.074219 193.164062 56.6875 193.164062 C 56.6875 193.164062 55.007812 190.644531 55.007812 190.644531 C 53.25 189.761719 47.363281 194.046875 45.773438 194.84375 C 43.023438 196.21875 45.007812 192.285156 43.25 193.164062 C 39.859375 194.859375 34.625 194.003906 30.234375 194.003906 Z M 30.234375 194.003906 "/>
<path style=" stroke:none;fill-rule:evenodd;fill:rgb(100%,43.137255%,0%);fill-opacity:1;" d="M 335.9375 165.449219 C 335.9375 167.207031 339.082031 165.449219 335.9375 165.449219 M 77.265625 237.675781 C 77.597656 237.675781 83.144531 243.46875 83.144531 241.035156 C 83.144531 239.296875 77.867188 235.097656 76.425781 232.21875 C 75.839844 231.046875 74.417969 225.078125 73.066406 225.078125 C 73.066406 225.078125 72.226562 224.238281 72.226562 224.238281 C 72.226562 219.285156 70.976562 212.917969 68.867188 208.703125 C 67.710938 206.386719 71.386719 189.289062 71.386719 185.605469 C 71.386719 185.605469 72.226562 183.925781 72.226562 183.925781 C 72.226562 183.925781 72.226562 181.40625 72.226562 181.40625 C 72.226562 181.40625 70.546875 178.46875 70.546875 178.46875 C 70.546875 178.46875 73.90625 175.945312 73.90625 175.945312 C 73.90625 175.109375 72.386719 173.949219 73.066406 172.585938 C 73.980469 170.761719 73.875 168.453125 74.746094 166.710938 C 74.746094 166.710938 76.425781 165.03125 76.425781 165.03125 C 76.425781 165.03125 75.585938 163.351562 75.585938 163.351562 C 75.585938 163.351562 77.265625 162.507812 77.265625 162.507812 C 77.265625 161.796875 78.617188 150.332031 82.304688 150.332031 C 82.304688 148.488281 80.625 146.746094 80.625 145.710938 C 80.625 144.167969 84.871094 139.738281 85.664062 138.15625 C 89.457031 130.566406 101.339844 115.058594 110.859375 115.058594 C 110.859375 115.058594 111.699219 114.21875 111.699219 114.21875 C 111.699219 114.21875 114.21875 113.378906 114.21875 113.378906 C 114.21875 113.378906 115.898438 112.539062 115.898438 112.539062 C 115.898438 112.539062 116.738281 112.539062 116.738281 112.539062 C 116.738281 112.539062 117.578125 111.699219 117.578125 111.699219 C 120.605469 111.699219 126.941406 108.066406 129.757812 106.660156 C 141.75 100.664062 158.328125 106.277344 163.769531 117.15625 C 163.769531 117.15625 168.808594 121.777344 168.808594 121.777344 C 168.996094 121.777344 175.761719 126.816406 182.246094 126.816406 C 182.246094 125.578125 183.886719 125.976562 184.765625 125.976562 C 184.765625 125.976562 185.605469 125.136719 185.605469 125.136719 C 189.074219 125.136719 193.785156 125.136719 197.363281 125.136719 C 197.363281 125.136719 199.882812 125.136719 199.882812 125.136719 C 199.882812 125.136719 205.761719 125.136719 205.761719 125.136719 C 205.761719 125.136719 206.601562 125.136719 206.601562 125.136719 C 206.601562 125.136719 207.441406 124.296875 207.441406 124.296875 C 207.441406 124.296875 209.960938 124.296875 209.960938 124.296875 C 209.960938 124.296875 210.800781 123.457031 210.800781 123.457031 C 210.800781 123.457031 214.160156 123.457031 214.160156 123.457031 C 214.160156 122.28125 215.839844 122.28125 215.839844 123.457031 C 215.839844 123.457031 219.199219 123.457031 219.199219 123.457031 C 219.199219 122.460938 220.039062 122.460938 220.039062 123.457031 C 220.039062 123.457031 223.398438 123.457031 223.398438 123.457031 C 223.398438 123.457031 225.078125 123.457031 225.078125 123.457031 C 225.078125 123.457031 226.757812 123.457031 226.757812 123.457031 C 226.757812 122.320312 230.65625 121.777344 231.796875 121.777344 C 231.796875 121.777344 234.316406 120.9375 234.316406 120.9375 C 234.316406 120.9375 235.15625 120.097656 235.15625 120.097656 C 235.15625 120.097656 239.355469 117.578125 239.355469 117.578125 C 239.355469 117.578125 239.355469 116.738281 239.355469 116.738281 C 239.355469 116.738281 240.195312 115.058594 240.195312 115.058594 C 240.195312 115.058594 241.035156 114.21875 241.035156 114.21875 C 241.035156 114.21875 241.875 113.378906 241.875 113.378906 C 241.875 113.378906 244.394531 109.179688 244.394531 109.179688 C 244.394531 109.179688 245.234375 108.339844 245.234375 108.339844 C 245.234375 108.339844 246.074219 107.5 246.074219 107.5 C 246.074219 104.535156 257.496094 102.460938 260.351562 102.460938 C 269.179688 102.460938 277.84375 103.019531 285.125 106.660156 C 288.417969 108.304688 298.328125 114.21875 301.503906 114.21875 C 301.503906 112.375 290.585938 107.90625 290.585938 107.078125 C 290.585938 106.5625 295.4375 108.035156 296.046875 108.339844 C 301.101562 110.867188 305.214844 115.023438 310.320312 117.578125 C 319.546875 122.191406 332.578125 144.886719 332.578125 154.53125 C 332.578125 154.53125 332.578125 155.371094 332.578125 155.371094 C 333.902344 155.371094 333.417969 157.769531 333.417969 158.730469 C 333.417969 162.371094 334.257812 163.488281 334.257812 167.128906 C 337.976562 167.128906 337.976562 169.648438 334.257812 169.648438 C 334.257812 170.21875 335.570312 174.375 335.9375 175.109375 C 335.9375 175.109375 337.617188 175.109375 337.617188 175.109375 C 339.550781 178.976562 338.15625 184.589844 340.136719 188.546875 C 341.96875 192.210938 338.457031 205.15625 338.457031 209.960938 C 338.457031 209.960938 338.457031 210.800781 338.457031 210.800781 C 338.457031 213.53125 337.617188 216.84375 337.617188 220.039062 C 337.617188 220.039062 336.777344 221.71875 336.777344 221.71875 C 336.777344 225.386719 333.417969 227.707031 333.417969 231.796875 C 334.121094 231.796875 335.097656 233.417969 335.097656 231.796875 C 335.097656 229.988281 339.296875 224.878906 339.296875 221.71875 C 339.296875 218.734375 340.53125 217.148438 341.816406 214.578125 C 341.816406 214.578125 341.816406 202.820312 341.816406 202.820312 C 343.773438 198.910156 344.335938 191.824219 344.335938 187.285156 C 344.335938 176.835938 345.679688 172.753906 340.976562 163.351562 C 340.351562 162.101562 342.074219 156.210938 340.136719 156.210938 C 340.136719 158.9375 339.296875 158.9375 339.296875 156.210938 C 339.296875 148.507812 331.738281 141.980469 331.738281 135.214844 C 330.5 135.214844 330.898438 133.574219 330.898438 132.695312 C 330.898438 131.945312 322.003906 120.9375 319.980469 120.9375 C 319.980469 120.9375 318.300781 118.417969 318.300781 118.417969 C 318.300781 115.890625 307.964844 109.179688 305.703125 109.179688 C 305.703125 109.179688 304.023438 107.5 304.023438 107.5 C 304.023438 106.507812 290.457031 101.765625 288.484375 100.78125 C 278.738281 95.910156 263.746094 97.230469 255.734375 93.222656 C 252.648438 91.679688 248.011719 93.140625 244.8125 91.542969 C 242.339844 90.304688 232.734375 90.476562 231.796875 88.601562 C 230.433594 85.875 220.929688 88.5 220.878906 88.601562 C 218.773438 92.816406 219.617188 98.6875 217.519531 102.882812 C 215.242188 107.433594 199.488281 111.710938 194.421875 109.179688 C 194.421875 109.179688 188.125 106.242188 188.125 106.242188 C 187.429688 104.851562 188.867188 103.460938 186.867188 102.460938 C 186.867188 102.460938 184.765625 102.039062 184.765625 102.039062 C 184.765625 102.039062 184.765625 97 184.765625 97 C 184.765625 97 181.828125 93.222656 181.828125 93.222656 C 181.828125 93.222656 180.566406 93.640625 180.566406 93.640625 C 179.707031 91.921875 179.71875 88.390625 177.625 87.34375 C 176.402344 86.730469 171.175781 87.34375 170.070312 87.34375 C 170.070312 87.34375 168.390625 89.863281 168.390625 89.863281 C 168.390625 89.863281 165.867188 89.023438 165.867188 89.023438 C 165.867188 89.023438 163.351562 92.382812 163.351562 92.382812 C 163.351562 92.382812 155.789062 92.382812 155.789062 92.382812 C 155.789062 92.382812 153.273438 94.902344 153.273438 94.902344 C 133.789062 94.902344 96.238281 109.445312 87.34375 127.234375 C 87.34375 127.234375 83.144531 131.4375 83.144531 131.4375 C 80.746094 136.230469 77.621094 141.640625 74.746094 147.390625 C 73.78125 149.320312 74.042969 152.15625 73.066406 154.109375 C 68.039062 164.164062 63.828125 179 63.828125 189.804688 C 63.828125 193.097656 66.726562 217.855469 68.027344 220.460938 C 68.027344 220.460938 69.707031 224.238281 69.707031 224.238281 C 69.707031 228.332031 77.265625 234.820312 77.265625 237.675781 Z M 77.265625 237.675781 "/>
<path style=" stroke:none;fill-rule:nonzero;fill:rgb(5.490196%,27.843139%,88.627452%);fill-opacity:1;" d="M 278.828125 251.953125 C 277.386719 251.953125 270.429688 252.546875 270.429688 254.472656 C 268.800781 254.472656 270.203125 261.09375 268.328125 262.03125 C 263.90625 264.242188 254.457031 260.800781 257.832031 254.054688 C 257.832031 254.054688 261.191406 251.113281 261.191406 251.113281 C 261.191406 251.113281 262.03125 250.273438 262.03125 250.273438 C 262.917969 250.273438 264.574219 249.433594 262.871094 249.433594 C 262.871094 249.433594 272.109375 238.515625 272.109375 238.515625 C 272.109375 238.515625 272.949219 237.675781 272.949219 237.675781 C 272.949219 237.675781 273.789062 236.835938 273.789062 236.835938 C 273.789062 236.835938 274.628906 235.996094 274.628906 235.996094 C 274.628906 235.996094 275.46875 235.15625 275.46875 235.15625 C 275.46875 235.15625 276.308594 234.316406 276.308594 234.316406 C 276.308594 234.316406 276.308594 233.476562 276.308594 233.476562 C 276.308594 233.476562 277.148438 232.636719 277.148438 232.636719 C 277.148438 232.636719 277.988281 231.796875 277.988281 231.796875 C 277.988281 231.796875 278.828125 230.117188 278.828125 230.117188 C 278.828125 230.117188 279.667969 229.277344 279.667969 229.277344 C 279.667969 229.277344 280.507812 228.4375 280.507812 228.4375 C 280.507812 228.4375 281.347656 227.597656 281.347656 227.597656 C 281.347656 227.597656 281.347656 226.757812 281.347656 226.757812 C 281.347656 226.757812 282.1875 225.917969 282.1875 225.917969 C 282.1875 225.917969 283.027344 225.078125 283.027344 225.078125 C 283.027344 225.078125 283.867188 223.398438 283.867188 223.398438 C 283.867188 223.398438 286.386719 220.878906 286.386719 220.878906 C 286.386719 220.878906 286.386719 220.039062 286.386719 220.039062 C 287.246094 220.039062 298.144531 205.847656 298.144531 204.082031 C 298.144531 204.082031 298.984375 202.402344 298.984375 202.402344 C 298.984375 202.402344 299.824219 202.402344 299.824219 202.402344 C 299.824219 202.402344 302.34375 197.363281 302.34375 197.363281 C 302.34375 197.363281 302.34375 196.523438 302.34375 196.523438 C 302.34375 196.523438 303.183594 195.683594 303.183594 195.683594 C 303.183594 195.683594 304.023438 194.003906 304.023438 194.003906 C 304.589844 194.003906 304.863281 191.289062 304.863281 189.804688 C 304.863281 189.804688 305.703125 188.964844 305.703125 188.964844 C 305.703125 184.886719 306.542969 181.210938 306.542969 177.207031 C 306.542969 177.207031 304.023438 173.847656 304.023438 173.847656 C 304.023438 171.261719 301.503906 168.535156 301.503906 166.289062 C 301.503906 166.289062 300.664062 165.449219 300.664062 165.449219 C 300.664062 165.449219 300.664062 164.609375 300.664062 164.609375 C 300.664062 164.609375 297.304688 160.410156 297.304688 160.410156 C 297.304688 160.410156 297.304688 159.570312 297.304688 159.570312 C 297.304688 157.546875 289.671875 149.492188 287.226562 149.492188 C 287.226562 147.089844 284.707031 146.28125 284.707031 149.492188 C 284.707031 149.492188 282.1875 149.492188 282.1875 149.492188 C 282.1875 149.492188 280.507812 149.492188 280.507812 149.492188 C 280.507812 148.5 277.507812 148.203125 276.726562 147.8125 C 274.542969 146.71875 270.746094 145.292969 267.070312 145.292969 C 267.070312 141.917969 254.796875 142.304688 252.375 141.09375 C 246.625 138.21875 247.753906 137.695312 247.753906 131.015625 C 247.753906 128.742188 251.644531 128.296875 250.273438 125.554688 C 248.75 122.515625 239.355469 119.402344 239.355469 117.578125 C 239.355469 117.578125 239.355469 116.738281 239.355469 116.738281 C 239.355469 116.738281 240.195312 115.058594 240.195312 115.058594 C 240.195312 115.058594 241.035156 114.21875 241.035156 114.21875 C 241.035156 114.21875 241.875 113.378906 241.875 113.378906 C 241.875 113.378906 244.394531 109.179688 244.394531 109.179688 C 244.394531 109.179688 245.234375 108.339844 245.234375 108.339844 C 245.234375 108.339844 246.074219 107.5 246.074219 107.5 C 246.074219 104.535156 257.496094 102.460938 260.351562 102.460938 C 269.179688 102.460938 277.84375 103.019531 285.125 106.660156 C 288.417969 108.304688 298.328125 114.21875 301.503906 114.21875 C 301.503906 114.21875 302.34375 114.21875 302.34375 114.21875 C 302.34375 114.21875 303.183594 115.058594 303.183594 115.058594 C 303.183594 115.058594 304.023438 115.058594 304.023438 115.058594 C 304.023438 117.183594 314.453125 125.136719 315.78125 125.136719 C 315.78125 125.136719 316.621094 125.976562 316.621094 125.976562 C 316.621094 128.203125 317.359375 131.015625 319.980469 131.015625 C 319.980469 131.015625 320.820312 132.695312 320.820312 132.695312 C 320.820312 133.734375 321.175781 135.214844 322.5 135.214844 C 324.085938 135.214844 329.21875 147.238281 329.21875 150.332031 C 329.21875 150.332031 330.058594 151.171875 330.058594 151.171875 C 330.058594 151.171875 331.738281 154.53125 331.738281 154.53125 C 331.738281 155.410156 331.339844 157.050781 332.578125 157.050781 C 332.578125 157.050781 333.417969 158.730469 333.417969 158.730469 C 333.417969 162.371094 334.257812 163.488281 334.257812 167.128906 C 334.257812 167.128906 334.257812 169.648438 334.257812 169.648438 C 334.257812 170.21875 335.570312 174.375 335.9375 175.109375 C 335.9375 175.109375 337.617188 175.109375 337.617188 175.109375 C 339.550781 178.976562 338.15625 184.589844 340.136719 188.546875 C 341.96875 192.210938 338.457031 205.15625 338.457031 209.960938 C 337.460938 209.960938 337.460938 210.800781 338.457031 210.800781 C 338.457031 213.53125 337.617188 216.84375 337.617188 220.039062 C 337.617188 220.039062 336.777344 221.71875 336.777344 221.71875 C 336.777344 225.386719 333.417969 227.707031 333.417969 231.796875 C 327.894531 231.796875 320.304688 242.34375 319.5625 242.714844 C 319.5625 242.714844 313.679688 242.714844 313.679688 242.714844 C 310.097656 244.507812 305.160156 246.074219 301.921875 246.074219 C 301.921875 246.074219 300.242188 248.59375 300.242188 248.59375 C 299.539062 248.949219 294.351562 251.113281 293.945312 251.113281 C 291.402344 251.113281 290.214844 245.210938 286.804688 246.914062 C 286.804688 246.914062 280.929688 249.433594 280.929688 249.433594 C 280.929688 249.433594 278.828125 251.953125 278.828125 251.953125 Z M 278.828125 251.953125 "/>
<path style=" stroke:none;fill-rule:nonzero;fill:rgb(5.490196%,27.843139%,88.627452%);fill-opacity:1;" d="M 129.335938 255.3125 L 130.59375 256.992188 L 135.632812 256.992188 C 139.09375 258.722656 137.015625 262.695312 138.574219 265.8125 C 138.964844 266.589844 143.613281 263.878906 143.613281 265.390625 C 147.089844 265.390625 149.492188 261.917969 149.492188 257.414062 C 149.492188 255.421875 146.796875 256.152344 146.554688 256.152344 C 146.554688 256.152344 143.613281 250.273438 143.613281 250.273438 C 143.613281 250.273438 142.773438 248.59375 142.773438 248.59375 C 142.773438 248.59375 141.933594 247.753906 141.933594 247.753906 C 141.933594 247.753906 140.253906 245.234375 140.253906 245.234375 C 140.253906 245.234375 139.414062 244.394531 139.414062 244.394531 C 139.414062 244.394531 134.375 239.355469 134.375 239.355469 C 134.375 239.355469 133.535156 238.515625 133.535156 238.515625 C 133.535156 238.515625 130.175781 233.476562 130.175781 233.476562 C 130.175781 233.476562 129.335938 232.636719 129.335938 232.636719 C 129.335938 232.636719 125.136719 228.4375 125.136719 228.4375 C 123.46875 228.4375 123.113281 225.652344 122.617188 224.65625 C 121.066406 221.558594 115.058594 220.535156 115.058594 216.679688 C 115.058594 216.679688 115.058594 215.839844 115.058594 215.839844 C 113.101562 215.839844 108.339844 207.609375 108.339844 205.761719 C 106.769531 205.761719 103.300781 201.226562 103.300781 199.882812 C 103.300781 199.882812 102.460938 199.042969 102.460938 199.042969 C 102.460938 195.191406 99.941406 191.921875 99.941406 188.125 C 98.652344 188.125 98.652344 184.765625 99.941406 184.765625 C 99.941406 184.765625 99.941406 183.925781 99.941406 183.925781 C 98.695312 183.925781 98.695312 181.40625 99.941406 181.40625 C 99.941406 181.40625 100.78125 180.566406 100.78125 180.566406 C 100.78125 180.566406 101.621094 177.207031 101.621094 177.207031 C 101.621094 177.207031 102.460938 175.527344 102.460938 175.527344 C 102.460938 175.527344 108.339844 167.128906 108.339844 167.128906 C 108.339844 167.128906 109.179688 166.289062 109.179688 166.289062 C 109.179688 166.289062 110.019531 165.449219 110.019531 165.449219 C 108.058594 165.449219 113.128906 158.730469 114.21875 158.730469 C 114.21875 158.730469 118.417969 154.53125 118.417969 154.53125 C 118.417969 154.53125 119.257812 153.691406 119.257812 153.691406 C 119.257812 153.691406 120.9375 152.851562 120.9375 152.851562 C 120.9375 152.851562 122.617188 152.851562 122.617188 152.851562 C 122.617188 152.851562 120.9375 151.59375 120.9375 151.59375 C 120.042969 149.804688 124.292969 150.332031 125.136719 150.332031 C 125.136719 150.332031 141.09375 146.972656 141.09375 146.972656 C 141.09375 146.972656 142.351562 145.292969 142.351562 145.292969 C 144.335938 144.300781 147.019531 144.640625 149.070312 143.613281 C 149.070312 143.613281 156.632812 143.613281 156.632812 143.613281 C 156.753906 143.550781 161.078125 140.175781 161.25 139.835938 C 161.25 139.835938 160.410156 136.054688 160.410156 136.054688 C 160.410156 136.054688 160.410156 134.375 160.410156 134.375 C 160.410156 134.375 157.890625 129.757812 157.890625 129.757812 C 158.816406 127.902344 164.402344 125.136719 165.03125 125.136719 C 165.03125 125.136719 168.808594 121.777344 168.808594 121.777344 C 168.808594 121.777344 163.769531 117.15625 163.769531 117.15625 C 158.328125 106.277344 141.75 100.664062 129.757812 106.660156 C 126.941406 108.066406 120.605469 111.699219 117.578125 111.699219 C 117.578125 111.699219 116.738281 112.539062 116.738281 112.539062 C 116.738281 112.539062 115.898438 112.539062 115.898438 112.539062 C 115.898438 112.539062 114.21875 113.378906 114.21875 113.378906 C 114.21875 114.703125 112.738281 115.058594 111.699219 115.058594 C 111.699219 115.058594 110.859375 115.058594 110.859375 115.058594 C 110.859375 116.503906 101.152344 122.640625 99.523438 123.457031 C 97.386719 124.523438 89.59375 135.214844 89.023438 135.214844 C 89.023438 135.214844 88.183594 136.894531 88.183594 136.894531 C 88.183594 136.894531 87.34375 137.734375 87.34375 137.734375 C 87.34375 137.734375 87.34375 138.574219 87.34375 138.574219 C 87.34375 138.574219 86.503906 140.253906 86.503906 140.253906 C 86.503906 140.253906 85.664062 141.933594 85.664062 141.933594 C 85.664062 141.933594 85.664062 142.773438 85.664062 142.773438 C 85.664062 142.773438 84.824219 143.613281 84.824219 143.613281 C 84.824219 144.511719 82.820312 150.332031 82.304688 150.332031 C 82.304688 153.59375 81.167969 153.023438 79.785156 155.789062 C 79.785156 155.789062 80.625 158.3125 80.625 158.3125 C 80.625 160.863281 77.589844 165.222656 76.425781 167.546875 C 76.425781 167.546875 77.265625 170.070312 77.265625 170.070312 C 75.789062 173.019531 74.746094 175.90625 74.746094 178.46875 C 74.746094 178.46875 72.226562 181.40625 72.226562 181.40625 C 72.226562 181.40625 72.226562 183.925781 72.226562 183.925781 C 72.226562 183.925781 71.386719 185.605469 71.386719 185.605469 C 71.386719 189.289062 67.710938 206.386719 68.867188 208.703125 C 70.976562 212.917969 72.226562 219.285156 72.226562 224.238281 C 72.226562 224.238281 73.066406 225.078125 73.066406 225.078125 C 74.417969 225.078125 75.839844 231.046875 76.425781 232.21875 C 77.867188 235.097656 83.144531 239.296875 83.144531 241.035156 C 84.792969 241.035156 96.414062 247.460938 98.679688 248.59375 C 100.441406 249.476562 103.796875 247.375 106.242188 248.59375 C 110.011719 250.476562 112.136719 253.632812 116.738281 253.632812 C 116.738281 253.632812 118.835938 251.113281 118.835938 251.113281 C 120.183594 250.441406 129.335938 251.050781 129.335938 255.3125 Z M 129.335938 255.3125 "/>
<path style=" stroke:none;fill-rule:nonzero;fill:rgb(0.784314%,17.254902%,100%);fill-opacity:1;" d="M 331.738281 154.53125 L 332.578125 154.53125 C 332.578125 144.886719 319.546875 122.191406 310.320312 117.578125 C 305.214844 115.023438 301.101562 110.867188 296.046875 108.339844 C 295.4375 108.035156 290.585938 106.5625 290.585938 107.078125 C 290.585938 107.90625 301.503906 112.375 301.503906 114.21875 C 301.503906 114.21875 302.34375 114.21875 302.34375 114.21875 C 302.34375 114.21875 303.183594 115.058594 303.183594 115.058594 C 303.183594 115.058594 304.023438 115.058594 304.023438 115.058594 C 305.148438 115.058594 315.78125 123.769531 315.78125 125.136719 C 315.78125 125.136719 316.621094 125.976562 316.621094 125.976562 C 316.621094 125.976562 319.980469 131.015625 319.980469 131.015625 C 319.980469 131.015625 320.820312 132.695312 320.820312 132.695312 C 320.820312 132.695312 322.5 135.214844 322.5 135.214844 C 324.085938 135.214844 329.21875 147.238281 329.21875 150.332031 C 329.21875 150.332031 330.058594 151.171875 330.058594 151.171875 C 330.058594 151.171875 331.738281 154.53125 331.738281 154.53125 Z M 331.738281 154.53125 "/>
<path style=" stroke:none;fill-rule:nonzero;fill:rgb(0.784314%,17.254902%,100%);fill-opacity:1;" d="M 110.859375 115.058594 L 111.699219 115.058594 C 111.699219 115.058594 111.699219 114.21875 111.699219 114.21875 C 111.699219 114.21875 110.859375 115.058594 110.859375 115.058594 Z M 110.859375 115.058594 "/>
<path style=" stroke:none;fill-rule:nonzero;fill:rgb(100%,43.137255%,0%);fill-opacity:1;" d="M 302.34375 114.21875 L 303.183594 115.058594 C 303.183594 115.058594 302.34375 114.21875 302.34375 114.21875 Z M 302.34375 114.21875 "/>
<path style=" stroke:none;fill-rule:nonzero;fill:rgb(0.784314%,17.254902%,100%);fill-opacity:1;" d="M 84.824219 143.613281 C 84.824219 144.511719 82.820312 150.332031 82.304688 150.332031 C 82.304688 148.488281 80.625 146.746094 80.625 145.710938 C 80.625 144.167969 84.871094 139.738281 85.664062 138.15625 C 89.457031 130.566406 101.339844 115.058594 110.859375 115.058594 C 110.859375 116.503906 101.152344 122.640625 99.523438 123.457031 C 97.386719 124.523438 89.59375 135.214844 89.023438 135.214844 C 89.023438 135.214844 88.183594 136.894531 88.183594 136.894531 C 88.183594 136.894531 87.34375 137.734375 87.34375 137.734375 C 87.34375 137.734375 87.34375 138.574219 87.34375 138.574219 C 87.34375 138.574219 86.503906 140.253906 86.503906 140.253906 C 86.503906 140.253906 85.664062 141.933594 85.664062 141.933594 C 85.664062 141.933594 85.664062 142.773438 85.664062 142.773438 C 85.664062 142.773438 84.824219 143.613281 84.824219 143.613281 Z M 84.824219 143.613281 "/>
<path style=" stroke:none;fill-rule:nonzero;fill:rgb(100%,43.137255%,0%);fill-opacity:1;" d="M 304.023438 115.058594 C 305.148438 115.058594 315.78125 123.769531 315.78125 125.136719 C 314.453125 125.136719 304.023438 117.183594 304.023438 115.058594 Z M 304.023438 115.058594 "/>
<path style=" stroke:none;fill-rule:nonzero;fill:rgb(86.666667%,85.09804%,31.764707%);fill-opacity:1;" d="M 205.761719 125.136719 L 206.601562 125.136719 C 206.601562 125.136719 207.441406 124.296875 207.441406 124.296875 C 207.441406 124.296875 209.960938 124.296875 209.960938 124.296875 C 209.960938 124.296875 210.800781 123.457031 210.800781 123.457031 C 210.800781 123.457031 214.160156 123.457031 214.160156 123.457031 C 214.863281 123.457031 215.839844 125.078125 215.839844 123.457031 C 215.839844 123.457031 219.199219 123.457031 219.199219 123.457031 C 219.199219 123.457031 220.039062 123.457031 220.039062 123.457031 C 220.039062 123.457031 223.398438 123.457031 223.398438 123.457031 C 223.398438 124.632812 225.078125 124.632812 225.078125 123.457031 C 225.078125 123.457031 226.757812 123.457031 226.757812 123.457031 C 228.121094 123.457031 231.796875 123.453125 231.796875 121.777344 C 231.796875 121.777344 234.316406 120.9375 234.316406 120.9375 C 234.316406 120.9375 235.15625 120.097656 235.15625 120.097656 C 235.15625 120.097656 239.355469 117.578125 239.355469 117.578125 C 239.355469 119.402344 248.75 122.515625 250.273438 125.554688 C 251.644531 128.296875 247.753906 128.742188 247.753906 131.015625 C 247.753906 131.015625 238.9375 137.734375 238.9375 137.734375 C 226.574219 143.914062 205.761719 143.542969 205.761719 125.136719 Z M 205.761719 125.136719 "/>
<path style=" stroke:none;fill-rule:nonzero;fill:rgb(86.666667%,85.09804%,31.764707%);fill-opacity:1;" d="M 181.40625 146.132812 L 183.085938 146.132812 C 192.132812 146.132812 199.042969 135.003906 199.042969 126.816406 C 199.042969 126.816406 197.363281 125.136719 197.363281 125.136719 C 193.785156 125.136719 189.074219 125.136719 185.605469 125.136719 C 185.605469 125.136719 184.765625 125.976562 184.765625 125.976562 C 184.765625 127.214844 183.125 126.816406 182.246094 126.816406 C 175.761719 126.816406 168.996094 121.777344 168.808594 121.777344 C 168.808594 121.777344 165.03125 125.136719 165.03125 125.136719 C 164.402344 125.136719 158.816406 127.902344 157.890625 129.757812 C 157.890625 129.757812 160.410156 134.375 160.410156 134.375 C 160.410156 134.375 161.25 136.054688 161.25 136.054688 C 161.25 136.054688 173.429688 143.613281 173.429688 143.613281 C 173.429688 143.613281 177.625 143.613281 177.625 143.613281 C 177.625 143.613281 179.726562 146.132812 179.726562 146.132812 C 179.726562 146.132812 180.566406 146.132812 180.566406 146.132812 C 180.566406 145.136719 181.40625 145.136719 181.40625 146.132812 Z M 181.40625 146.132812 "/>
<path style=" stroke:none;fill-rule:evenodd;fill:rgb(0.784314%,17.254902%,100%);fill-opacity:1;" d="M 202.402344 151.171875 C 202.402344 153.894531 210.171875 151.171875 202.402344 151.171875 M 208.28125 161.25 C 207.488281 161.25 203.804688 164.472656 204.082031 165.03125 L 206.601562 165.867188 C 207.105469 166.878906 203.859375 167.96875 203.242188 167.96875 C 203.242188 165.707031 202.765625 161.640625 200.304688 160.410156 C 198.503906 159.511719 192.324219 159.335938 192.324219 157.050781 C 193.320312 157.050781 193.320312 156.210938 192.324219 156.210938 C 192.324219 153.941406 190.125 147.8125 186.445312 147.8125 C 186.445312 147.8125 185.605469 146.972656 185.605469 146.972656 C 184.726562 146.972656 183.085938 147.371094 183.085938 146.132812 C 192.132812 146.132812 199.042969 135.003906 199.042969 126.816406 C 199.042969 126.816406 199.882812 125.136719 199.882812 125.136719 C 199.882812 125.136719 205.761719 125.136719 205.761719 125.136719 C 205.761719 143.542969 226.574219 143.914062 238.9375 137.734375 C 238.9375 137.734375 247.753906 131.015625 247.753906 131.015625 C 247.753906 137.695312 246.625 138.21875 252.375 141.09375 C 254.796875 142.304688 267.070312 141.917969 267.070312 145.292969 C 260.820312 145.292969 252.632812 142.773438 245.234375 142.773438 C 242.285156 142.773438 239.335938 143.613281 236.835938 143.613281 C 235.34375 143.613281 230.117188 143.671875 230.117188 145.292969 C 229.238281 145.292969 227.597656 144.894531 227.597656 146.132812 C 224.785156 146.132812 222.898438 148.652344 220.878906 148.652344 C 219.148438 148.652344 217.519531 149.410156 217.519531 151.171875 C 217.519531 156.773438 208.28125 156.140625 208.28125 161.25 Z M 208.28125 161.25 "/>
<path style=" stroke:none;fill-rule:nonzero;fill:rgb(100%,43.137255%,0%);fill-opacity:1;" d="M 316.621094 125.976562 L 319.980469 131.015625 C 317.359375 131.015625 316.621094 128.203125 316.621094 125.976562 Z M 316.621094 125.976562 "/>
<path style=" stroke:none;fill-rule:nonzero;fill:rgb(100%,43.137255%,0%);fill-opacity:1;" d="M 320.820312 132.695312 L 322.5 135.214844 C 321.175781 135.214844 320.820312 133.734375 320.820312 132.695312 Z M 320.820312 132.695312 "/>
<path style=" stroke:none;fill-rule:nonzero;fill:rgb(0.784314%,17.254902%,100%);fill-opacity:1;" d="M 141.09375 147.8125 L 147.8125 147.8125 C 147.8125 146.078125 150.628906 147.453125 151.59375 146.972656 C 155.402344 145.066406 159.574219 144.453125 164.1875 144.453125 C 165.335938 144.453125 169.648438 143.867188 169.648438 145.292969 C 169.648438 145.292969 172.167969 145.292969 172.167969 145.292969 C 173.953125 145.292969 175.894531 146.132812 177.207031 146.132812 C 177.207031 146.132812 179.726562 146.132812 179.726562 146.132812 C 179.726562 146.132812 177.625 143.613281 177.625 143.613281 C 177.625 143.613281 173.429688 143.613281 173.429688 143.613281 C 173.429688 143.613281 161.25 136.054688 161.25 136.054688 C 161.25 136.054688 160.410156 136.054688 160.410156 136.054688 C 160.410156 136.054688 161.25 139.835938 161.25 139.835938 C 161.078125 140.175781 156.753906 143.550781 156.632812 143.613281 C 156.632812 143.613281 149.070312 143.613281 149.070312 143.613281 C 147.019531 144.640625 144.335938 144.300781 142.351562 145.292969 C 142.351562 145.292969 141.09375 146.972656 141.09375 146.972656 C 141.09375 146.972656 141.09375 147.8125 141.09375 147.8125 Z M 141.09375 147.8125 "/>
<path style=" stroke:none;fill-rule:nonzero;fill:rgb(100%,34.117648%,11.764706%);fill-opacity:1;" d="M 221.71875 183.085938 C 223.894531 183.085938 224.585938 183.890625 226.335938 184.765625 C 228.109375 185.652344 250.03125 183.835938 251.53125 183.085938 C 253.886719 181.910156 259.316406 178.160156 262.453125 179.726562 L 267.910156 184.765625 C 267.910156 184.765625 268.75 180.148438 268.75 180.148438 C 265.808594 174.265625 262.871094 171.390625 262.871094 165.03125 C 262.871094 165.03125 259.511719 161.671875 259.511719 161.671875 C 258.019531 158.6875 259.511719 154.472656 259.511719 152.429688 C 259.511719 151.738281 255.570312 150.332031 257.832031 150.332031 C 257.832031 144.589844 245.234375 144.75 245.234375 142.773438 C 242.285156 142.773438 239.335938 143.613281 236.835938 143.613281 C 236.835938 143.613281 235.15625 145.292969 235.15625 145.292969 C 235.15625 145.292969 236.835938 148.234375 236.835938 148.234375 C 236.835938 148.234375 235.15625 150.75 235.15625 150.75 C 235.15625 150.75 236.835938 152.429688 236.835938 152.429688 C 236.835938 152.429688 230.957031 153.273438 230.957031 153.273438 C 230.957031 153.273438 234.316406 155.789062 234.316406 155.789062 C 234.316406 156.804688 226.757812 155.472656 226.757812 157.46875 C 226.757812 157.46875 229.277344 159.148438 229.277344 159.148438 C 229.277344 163.785156 217.519531 164.3125 217.519531 159.148438 C 217.519531 158.15625 221.71875 159.460938 221.71875 157.46875 C 221.71875 157.46875 218.359375 155.789062 218.359375 155.789062 C 218.359375 155.789062 220.878906 150.332031 220.878906 150.332031 C 220.878906 150.332031 217.519531 151.171875 217.519531 151.171875 C 217.519531 156.773438 208.28125 156.140625 208.28125 161.25 C 208.28125 161.25 207.441406 165.867188 207.441406 165.867188 C 207.441406 165.867188 211.640625 170.488281 211.640625 170.488281 C 211.640625 170.488281 216.679688 172.585938 216.679688 172.585938 C 217.101562 173.433594 216.863281 176.367188 215.839844 176.367188 C 215.839844 176.367188 215.839844 177.207031 215.839844 177.207031 C 217.316406 177.207031 221.71875 181.855469 221.71875 183.085938 Z M 221.71875 183.085938 "/>
<path style=" stroke:none;fill-rule:nonzero;fill:rgb(100%,34.117648%,11.764706%);fill-opacity:1;" d="M 148.652344 178.886719 C 151.058594 178.886719 149.929688 179.316406 152.429688 180.566406 L 158.3125 180.566406 L 163.351562 185.605469 C 167.105469 187.484375 171.636719 183.453125 174.265625 184.765625 C 177.503906 186.382812 177.207031 186.445312 180.566406 186.445312 C 180.566406 183.148438 183.910156 179.523438 186.867188 178.046875 C 188.886719 177.035156 190.644531 180.257812 190.644531 177.207031 C 190.644531 174.308594 199.296875 167.96875 203.242188 167.96875 C 203.242188 165.707031 202.765625 161.640625 200.304688 160.410156 C 198.503906 159.511719 192.324219 159.335938 192.324219 157.050781 C 192.324219 157.050781 191.484375 157.050781 191.484375 157.050781 C 189.660156 157.050781 189.671875 161.945312 189.382812 162.089844 C 187.6875 162.9375 177.277344 156.773438 176.367188 154.953125 C 176.367188 154.953125 177.207031 150.75 177.207031 150.75 C 176.527344 149.390625 175.527344 149.515625 175.527344 147.8125 C 175.527344 147.8125 172.167969 145.292969 172.167969 145.292969 C 172.167969 145.292969 169.648438 145.292969 169.648438 145.292969 C 169.648438 145.292969 155.789062 146.132812 155.789062 146.132812 C 155.789062 146.132812 149.492188 148.652344 149.492188 148.652344 C 149.492188 150.789062 152.851562 151.707031 152.851562 153.273438 C 152.851562 153.273438 151.171875 158.3125 151.171875 158.3125 C 151.171875 158.3125 151.171875 164.1875 151.171875 164.1875 C 149.242188 168.046875 144.453125 172.679688 144.453125 177.207031 C 145.015625 177.207031 148.652344 178.324219 148.652344 178.886719 Z M 148.652344 178.886719 "/>
<path style=" stroke:none;fill-rule:nonzero;fill:rgb(0.784314%,17.254902%,100%);fill-opacity:1;" d="M 180.566406 146.132812 L 181.40625 146.132812 C 181.40625 145.136719 180.566406 145.136719 180.566406 146.132812 Z M 180.566406 146.132812 "/>
<path style=" stroke:none;fill-rule:nonzero;fill:rgb(88.235295%,59.215689%,5.882353%);fill-opacity:1;" d="M 220.878906 148.652344 L 220.878906 150.332031 C 220.878906 150.332031 218.359375 155.789062 218.359375 155.789062 C 218.359375 155.789062 221.71875 157.46875 221.71875 157.46875 C 221.71875 159.460938 217.519531 158.15625 217.519531 159.148438 C 217.519531 164.3125 229.277344 163.785156 229.277344 159.148438 C 229.277344 159.148438 226.757812 157.46875 226.757812 157.46875 C 226.757812 155.472656 234.316406 156.804688 234.316406 155.789062 C 234.316406 155.789062 230.957031 153.273438 230.957031 153.273438 C 230.957031 153.273438 236.835938 152.429688 236.835938 152.429688 C 236.835938 152.429688 235.15625 150.75 235.15625 150.75 C 235.15625 150.75 236.835938 148.234375 236.835938 148.234375 C 236.835938 148.234375 235.15625 145.292969 235.15625 145.292969 C 235.15625 145.292969 230.117188 145.292969 230.117188 145.292969 C 230.117188 146.53125 228.476562 146.132812 227.597656 146.132812 C 224.785156 146.132812 222.898438 148.652344 220.878906 148.652344 Z M 220.878906 148.652344 "/>
<path style=" stroke:none;fill-rule:nonzero;fill:rgb(88.235295%,59.215689%,5.882353%);fill-opacity:1;" d="M 192.324219 156.210938 L 191.484375 157.050781 C 189.660156 157.050781 189.671875 161.945312 189.382812 162.089844 C 187.6875 162.9375 177.277344 156.773438 176.367188 154.953125 C 176.367188 154.953125 177.207031 150.75 177.207031 150.75 C 176.527344 149.390625 175.527344 149.515625 175.527344 147.8125 C 175.527344 147.8125 177.207031 146.132812 177.207031 146.132812 C 177.207031 146.132812 179.726562 146.132812 179.726562 146.132812 C 179.726562 146.132812 180.566406 146.132812 180.566406 146.132812 C 180.566406 146.132812 181.40625 146.132812 181.40625 146.132812 C 181.40625 146.132812 183.085938 146.132812 183.085938 146.132812 C 183.085938 147.371094 184.726562 146.972656 185.605469 146.972656 C 185.605469 146.972656 186.445312 147.8125 186.445312 147.8125 C 190.125 147.8125 192.324219 153.941406 192.324219 156.210938 Z M 192.324219 156.210938 "/>
<path style=" stroke:none;fill-rule:nonzero;fill:rgb(0%,39.215687%,0%);fill-opacity:1;" d="M 267.910156 219.199219 L 271.269531 219.199219 C 271.269531 216.394531 275.851562 213.320312 277.988281 213.320312 C 277.988281 211.214844 288.648438 202.320312 290.164062 201.5625 C 290.164062 201.5625 293.105469 204.082031 293.105469 204.082031 C 293.105469 204.082031 295.625 202.402344 295.625 202.402344 C 295.625 198.453125 301.503906 195.71875 301.503906 191.484375 C 301.503906 188.402344 300.917969 188.125 303.183594 188.125 C 303.183594 186.8125 304.023438 184.871094 304.023438 183.085938 C 304.023438 183.085938 304.023438 181.40625 304.023438 181.40625 C 304.023438 181.40625 303.183594 178.886719 303.183594 178.886719 C 300.644531 178.886719 301.503906 175.886719 301.503906 173.847656 C 301.503906 173.847656 301.503906 172.167969 301.503906 172.167969 C 301.503906 172.167969 300.664062 171.328125 300.664062 171.328125 C 300.664062 169.183594 298.136719 162.929688 298.144531 162.929688 C 298.144531 162.929688 297.304688 160.410156 297.304688 160.410156 C 297.304688 160.410156 297.304688 159.570312 297.304688 159.570312 C 297.304688 159.570312 293.945312 157.050781 293.945312 157.050781 C 293.945312 157.050781 293.105469 156.210938 293.105469 156.210938 C 293.105469 153.371094 282.1875 150.882812 282.1875 149.492188 C 282.1875 149.492188 280.507812 149.492188 280.507812 149.492188 C 280.507812 149.492188 277.570312 150.332031 277.570312 150.332031 C 277.570312 150.332031 276.726562 148.652344 276.726562 148.652344 C 276.726562 148.652344 265.390625 147.8125 265.390625 147.8125 C 265.390625 147.8125 262.453125 146.972656 262.453125 146.972656 C 261.011719 147.691406 259.277344 150.332031 257.832031 150.332031 C 255.570312 150.332031 259.511719 151.738281 259.511719 152.429688 C 259.511719 154.472656 258.019531 158.6875 259.511719 161.671875 C 259.511719 161.671875 262.871094 165.03125 262.871094 165.03125 C 262.871094 171.390625 265.808594 174.265625 268.75 180.148438 C 268.75 180.148438 267.910156 184.765625 267.910156 184.765625 C 267.910156 187.496094 268.75 190.808594 268.75 194.003906 C 268.75 194.882812 269.148438 196.523438 267.910156 196.523438 C 267.910156 196.523438 267.910156 197.363281 267.910156 197.363281 C 267.910156 198.667969 267.433594 204.082031 266.230469 204.082031 C 266.230469 204.082031 266.230469 204.921875 266.230469 204.921875 C 266.230469 204.921875 265.390625 205.761719 265.390625 205.761719 C 265.390625 210.015625 260.175781 209.054688 258.671875 212.0625 C 256.148438 217.105469 264.042969 219.199219 267.910156 219.199219 Z M 267.910156 219.199219 "/>
<path style=" stroke:none;fill-rule:nonzero;fill:rgb(0.784314%,17.254902%,100%);fill-opacity:1;" d="M 284.707031 149.492188 C 285.308594 149.492188 287.226562 151.484375 287.226562 149.492188 C 287.226562 147.089844 284.707031 146.28125 284.707031 149.492188 Z M 284.707031 149.492188 "/>
<path style=" stroke:none;fill-rule:nonzero;fill:rgb(0%,39.215687%,0%);fill-opacity:1;" d="M 137.734375 223.398438 L 140.253906 224.238281 C 140.253906 219.085938 147.664062 219.902344 150.75 218.359375 C 150.75 218.359375 150.332031 216.257812 150.332031 216.257812 C 150.332031 216.257812 151.171875 211.640625 151.171875 211.640625 C 151.171875 209.34375 148.652344 210.035156 148.652344 207.441406 C 143.726562 207.441406 141.703125 209.082031 139.414062 204.5 C 139.414062 204.5 138.574219 202.820312 138.574219 202.820312 C 138.574219 202.820312 140.253906 200.722656 140.253906 200.722656 C 140.253906 197.9375 139.878906 195.175781 140.253906 194.421875 C 141.6875 191.554688 138.023438 178.886719 143.613281 178.886719 C 143.613281 178.886719 144.453125 177.207031 144.453125 177.207031 C 144.453125 172.679688 149.242188 168.046875 151.171875 164.1875 C 151.171875 164.1875 151.171875 158.3125 151.171875 158.3125 C 151.171875 158.3125 152.851562 153.273438 152.851562 153.273438 C 152.851562 151.707031 149.492188 150.789062 149.492188 148.652344 C 149.492188 148.652344 147.8125 147.8125 147.8125 147.8125 C 147.8125 147.8125 141.09375 147.8125 141.09375 147.8125 C 141.09375 149.011719 138.402344 149.492188 137.3125 149.492188 C 132.335938 149.492188 129.167969 152.011719 124.296875 152.011719 C 124.296875 152.011719 123.457031 152.851562 123.457031 152.851562 C 123.457031 152.851562 122.617188 152.851562 122.617188 152.851562 C 122.617188 152.851562 120.9375 152.851562 120.9375 152.851562 C 120.9375 152.851562 119.257812 153.691406 119.257812 153.691406 C 119.257812 153.691406 118.417969 154.53125 118.417969 154.53125 C 118.417969 156.515625 116.203125 158.730469 114.21875 158.730469 C 114.21875 161.546875 110.019531 163.882812 110.019531 165.449219 C 110.019531 165.449219 109.179688 166.289062 109.179688 166.289062 C 109.179688 167.25 109.664062 169.648438 108.339844 169.648438 C 108.339844 169.648438 106.660156 174.6875 106.660156 174.6875 C 106.660156 174.6875 105.820312 175.527344 105.820312 175.527344 C 105.820312 175.527344 104.980469 178.886719 104.980469 178.886719 C 104.980469 178.886719 104.140625 179.726562 104.140625 179.726562 C 104.140625 179.726562 103.300781 182.246094 103.300781 182.246094 C 104.476562 182.246094 104.476562 183.925781 103.300781 183.925781 C 103.300781 183.925781 103.300781 184.765625 103.300781 184.765625 C 103.300781 184.765625 103.300781 187.285156 103.300781 187.285156 C 103.300781 187.285156 103.300781 188.125 103.300781 188.125 C 103.300781 188.730469 105.46875 197.082031 105.820312 197.78125 C 107.015625 200.171875 110.859375 200.574219 110.859375 203.242188 C 110.859375 203.242188 111.699219 204.082031 111.699219 204.082031 C 111.699219 204.082031 112.539062 204.921875 112.539062 204.921875 C 112.539062 204.921875 115.898438 205.761719 115.898438 205.761719 C 115.898438 205.761719 119.257812 205.761719 119.257812 205.761719 C 119.257812 205.761719 120.097656 206.601562 120.097656 206.601562 C 122.402344 206.601562 132.773438 221.71875 135.214844 221.71875 C 136.898438 221.71875 137.734375 221.472656 137.734375 223.398438 Z M 137.734375 223.398438 "/>
<path style=" stroke:none;fill-rule:nonzero;fill:rgb(0.784314%,17.254902%,100%);fill-opacity:1;" d="M 82.304688 150.332031 C 78.617188 150.332031 77.265625 161.796875 77.265625 162.507812 L 75.585938 163.351562 L 76.425781 165.03125 L 74.746094 166.710938 C 73.875 168.453125 73.980469 170.761719 73.066406 172.585938 C 72.386719 173.949219 73.90625 175.109375 73.90625 175.945312 L 70.546875 178.46875 L 72.226562 181.40625 C 72.226562 181.40625 74.746094 178.46875 74.746094 178.46875 C 74.746094 175.90625 75.789062 173.019531 77.265625 170.070312 C 77.265625 170.070312 76.425781 167.546875 76.425781 167.546875 C 77.589844 165.222656 80.625 160.863281 80.625 158.3125 C 80.625 158.3125 79.785156 155.789062 79.785156 155.789062 C 81.167969 153.023438 82.304688 153.59375 82.304688 150.332031 Z M 82.304688 150.332031 "/>
<path style=" stroke:none;fill-rule:nonzero;fill:rgb(0.784314%,17.254902%,100%);fill-opacity:1;" d="M 122.617188 152.851562 L 123.457031 152.851562 C 123.457031 152.851562 124.296875 152.011719 124.296875 152.011719 C 124.296875 152.011719 125.136719 150.332031 125.136719 150.332031 C 124.292969 150.332031 120.042969 149.804688 120.9375 151.59375 C 120.9375 151.59375 122.617188 152.851562 122.617188 152.851562 Z M 122.617188 152.851562 "/>
<path style=" stroke:none;fill-rule:nonzero;fill:rgb(27.058825%,92.156863%,79.215688%);fill-opacity:1;" d="M 202.402344 151.171875 C 202.402344 153.894531 210.171875 151.171875 202.402344 151.171875 Z M 202.402344 151.171875 "/>
<path style=" stroke:none;fill-rule:nonzero;fill:rgb(0.784314%,17.254902%,100%);fill-opacity:1;" d="M 332.578125 157.050781 L 333.417969 158.730469 C 333.417969 157.769531 333.902344 155.371094 332.578125 155.371094 C 332.578125 155.371094 332.578125 157.050781 332.578125 157.050781 Z M 332.578125 157.050781 "/>
<path style=" stroke:none;fill-rule:nonzero;fill:rgb(0.784314%,17.254902%,100%);fill-opacity:1;" d="M 293.105469 156.210938 L 293.945312 157.050781 C 293.945312 157.050781 293.105469 156.210938 293.105469 156.210938 Z M 293.105469 156.210938 "/>
<path style=" stroke:none;fill-rule:nonzero;fill:rgb(0.784314%,17.254902%,100%);fill-opacity:1;" d="M 298.984375 202.402344 L 299.824219 202.402344 C 299.824219 200.941406 300.398438 197.363281 302.34375 197.363281 C 302.34375 197.363281 302.34375 196.523438 302.34375 196.523438 C 302.34375 196.523438 303.183594 195.683594 303.183594 195.683594 C 303.183594 195.683594 304.023438 194.003906 304.023438 194.003906 C 304.589844 194.003906 304.863281 191.289062 304.863281 189.804688 C 304.863281 189.804688 305.703125 188.964844 305.703125 188.964844 C 305.703125 184.886719 306.542969 181.210938 306.542969 177.207031 C 306.542969 177.207031 304.023438 173.847656 304.023438 173.847656 C 304.023438 171.261719 301.503906 168.535156 301.503906 166.289062 C 301.503906 166.289062 300.664062 165.449219 300.664062 165.449219 C 300.664062 165.449219 300.664062 164.609375 300.664062 164.609375 C 300.664062 164.609375 298.144531 162.929688 298.144531 162.929688 C 298.136719 162.929688 300.664062 169.183594 300.664062 171.328125 C 300.664062 171.328125 301.503906 172.167969 301.503906 172.167969 C 301.503906 172.167969 301.503906 173.847656 301.503906 173.847656 C 303.179688 173.847656 303.183594 177.523438 303.183594 178.886719 C 303.183594 178.886719 304.023438 181.40625 304.023438 181.40625 C 305.199219 181.40625 305.199219 183.085938 304.023438 183.085938 C 304.023438 184.871094 303.183594 186.8125 303.183594 188.125 C 303.183594 188.125 301.503906 191.484375 301.503906 191.484375 C 301.503906 195.71875 295.625 198.453125 295.625 202.402344 C 295.625 203.523438 294.371094 206.601562 296.046875 206.601562 C 296.046875 206.601562 298.144531 204.082031 298.144531 204.082031 C 298.144531 204.082031 298.984375 202.402344 298.984375 202.402344 Z M 298.984375 202.402344 "/>
<path style=" stroke:none;fill-rule:nonzero;fill:rgb(0.784314%,17.254902%,100%);fill-opacity:1;" d="M 108.339844 203.242188 L 108.339844 205.761719 C 106.769531 205.761719 103.300781 201.226562 103.300781 199.882812 C 103.300781 199.882812 102.460938 199.042969 102.460938 199.042969 C 102.460938 195.191406 99.941406 191.921875 99.941406 188.125 C 99.941406 188.125 99.941406 184.765625 99.941406 184.765625 C 99.941406 184.765625 99.941406 183.925781 99.941406 183.925781 C 99.941406 183.925781 99.941406 181.40625 99.941406 181.40625 C 99.941406 181.40625 100.78125 180.566406 100.78125 180.566406 C 100.78125 180.566406 101.621094 177.207031 101.621094 177.207031 C 101.621094 177.207031 102.460938 175.527344 102.460938 175.527344 C 102.460938 175.527344 108.339844 167.128906 108.339844 167.128906 C 108.339844 167.128906 108.339844 169.648438 108.339844 169.648438 C 108.339844 169.648438 106.660156 174.6875 106.660156 174.6875 C 106.660156 174.6875 105.820312 175.527344 105.820312 175.527344 C 105.820312 175.527344 104.980469 178.886719 104.980469 178.886719 C 104.980469 178.886719 104.140625 179.726562 104.140625 179.726562 C 104.140625 179.726562 103.300781 182.246094 103.300781 182.246094 C 103.300781 182.246094 103.300781 183.925781 103.300781 183.925781 C 103.300781 183.925781 103.300781 184.765625 103.300781 184.765625 C 102.054688 184.765625 102.054688 187.285156 103.300781 187.285156 C 103.300781 187.285156 103.300781 188.125 103.300781 188.125 C 100.597656 188.125 104.980469 198.742188 104.980469 199.882812 C 104.980469 199.882812 105.820312 200.722656 105.820312 200.722656 C 105.820312 200.722656 108.339844 203.242188 108.339844 203.242188 Z M 108.339844 203.242188 "/>
<path style=" stroke:none;fill-rule:nonzero;fill:rgb(100%,0%,85.490197%);fill-opacity:1;" d="M 215 176.367188 L 215.839844 176.367188 C 216.863281 176.367188 217.101562 173.433594 216.679688 172.585938 C 216.679688 172.585938 211.640625 170.488281 211.640625 170.488281 C 211.640625 170.488281 206.179688 167.96875 206.179688 167.96875 C 205.410156 167.582031 203.242188 170.132812 203.242188 167.96875 C 199.296875 167.96875 190.644531 174.308594 190.644531 177.207031 C 190.644531 177.207031 198.203125 175.527344 198.203125 175.527344 C 198.203125 174.148438 201.363281 174.6875 202.402344 174.6875 C 202.402344 170.894531 207.1875 174.6875 208.28125 174.6875 C 209.773438 174.6875 215 174.746094 215 176.367188 Z M 215 176.367188 "/>
<path style=" stroke:none;fill-rule:nonzero;fill:rgb(0.784314%,17.254902%,100%);fill-opacity:1;" d="M 203.242188 177.207031 L 203.242188 212.898438 L 205.761719 212.898438 L 205.761719 185.605469 C 205.761719 184.214844 205.121094 177.207031 206.601562 177.207031 C 206.601562 174.300781 204.914062 174.6875 202.402344 174.6875 C 202.402344 174.6875 203.242188 177.207031 203.242188 177.207031 Z M 203.242188 177.207031 "/>
<path style=" stroke:none;fill-rule:nonzero;fill:rgb(2.745098%,100%,34.901962%);fill-opacity:1;" d="M 215 215.839844 C 215 216.992188 215.941406 222.78125 215 224.65625 C 214.640625 225.378906 213.367188 223.722656 212.480469 225.5 C 207.511719 235.433594 194.003906 228.8125 194.003906 218.359375 C 194.003906 214.808594 192.324219 212.015625 192.324219 209.121094 C 192.324219 203.515625 180.566406 198.421875 180.566406 186.445312 C 180.566406 183.148438 183.910156 179.523438 186.867188 178.046875 C 188.886719 177.035156 190.644531 180.257812 190.644531 177.207031 C 190.644531 177.207031 198.203125 175.527344 198.203125 175.527344 C 200.316406 175.527344 201.800781 177.207031 203.242188 177.207031 C 203.242188 177.207031 203.242188 201.984375 203.242188 201.984375 C 203.242188 201.984375 203.242188 212.898438 203.242188 212.898438 C 203.242188 212.898438 205.761719 212.898438 205.761719 212.898438 C 205.761719 212.898438 205.761719 185.605469 205.761719 185.605469 C 205.761719 184.214844 205.121094 177.207031 206.601562 177.207031 C 206.601562 177.207031 208.28125 174.6875 208.28125 174.6875 C 209.773438 174.6875 215 174.746094 215 176.367188 C 215 176.367188 215.839844 177.207031 215.839844 177.207031 C 217.316406 177.207031 221.71875 181.855469 221.71875 183.085938 C 221.71875 183.085938 224.238281 186.867188 224.238281 186.867188 C 224.238281 186.867188 224.238281 194.421875 224.238281 194.421875 C 224.238281 194.421875 222.558594 195.265625 222.558594 195.265625 C 222.558594 195.265625 223.398438 197.78125 223.398438 197.78125 C 221.195312 202.191406 215 204.9375 215 209.960938 C 215 210.597656 212.675781 215.839844 215 215.839844 Z M 215 215.839844 "/>
<path style=" stroke:none;fill-rule:evenodd;fill:rgb(60.000002%,32.549021%,100%);fill-opacity:1;" d="M 254.472656 206.601562 C 254.472656 209.4375 250.679688 208.28125 249.851562 208.28125 L 248.171875 210.800781 C 246.816406 211.480469 246.609375 210.800781 245.65625 210.800781 C 244.53125 210.800781 239.128906 216.679688 235.578125 216.679688 L 235.15625 220.460938 C 237.871094 225.886719 244.375 215 245.65625 215 C 246.414062 215 246.738281 218.65625 249.015625 217.519531 C 252.320312 215.867188 254.117188 213.257812 256.570312 210.800781 C 257.234375 210.136719 260.152344 209.980469 259.511719 208.703125 L 256.570312 208.28125 L 254.472656 206.601562 M 172.167969 254.472656 L 171.328125 255.3125 C 169.226562 255.3125 162.929688 253.722656 162.929688 251.113281 C 162.929688 251.113281 162.089844 248.59375 162.089844 248.59375 C 165.222656 248.59375 160.542969 238.371094 159.148438 237.675781 C 159.148438 237.675781 153.273438 235.996094 153.273438 235.996094 C 153.273438 235.996094 152.011719 233.054688 152.011719 233.054688 C 152.011719 233.054688 144.875 226.757812 144.875 226.757812 C 144.875 226.757812 140.253906 224.238281 140.253906 224.238281 C 140.253906 219.085938 147.664062 219.902344 150.75 218.359375 C 150.75 218.359375 150.332031 216.257812 150.332031 216.257812 C 150.332031 216.257812 151.171875 211.640625 151.171875 211.640625 C 156.652344 211.640625 169.402344 224.308594 172.167969 218.78125 C 174.582031 213.949219 148.652344 200.789062 148.652344 207.441406 C 143.726562 207.441406 141.703125 209.082031 139.414062 204.5 C 139.414062 204.5 138.574219 202.820312 138.574219 202.820312 C 138.574219 202.820312 140.253906 200.722656 140.253906 200.722656 C 140.253906 197.9375 139.878906 195.175781 140.253906 194.421875 C 141.6875 191.554688 138.023438 178.886719 143.613281 178.886719 C 144.207031 178.886719 148.652344 181.175781 148.652344 178.886719 C 151.058594 178.886719 149.929688 179.316406 152.429688 180.566406 C 152.429688 180.566406 158.3125 180.566406 158.3125 180.566406 C 158.3125 180.566406 163.351562 185.605469 163.351562 185.605469 C 167.105469 187.484375 171.636719 183.453125 174.265625 184.765625 C 177.503906 186.382812 177.207031 186.445312 180.566406 186.445312 C 180.566406 198.421875 192.324219 203.515625 192.324219 209.121094 C 186.007812 209.121094 186.4375 218.144531 188.546875 219.199219 C 191.683594 220.769531 191.4375 218.359375 194.003906 218.359375 C 194.003906 228.8125 207.511719 235.433594 212.480469 225.5 C 213.367188 223.722656 214.640625 225.378906 215 224.65625 C 215.941406 222.78125 215 216.992188 215 215.839844 C 215 215.839844 218.78125 219.199219 218.78125 219.199219 C 222.277344 217.453125 221.378906 209.160156 217.9375 207.441406 C 217.9375 207.441406 215 209.960938 215 209.960938 C 215 204.9375 221.195312 202.191406 223.398438 197.78125 C 223.398438 197.78125 222.558594 195.265625 222.558594 195.265625 C 222.558594 195.265625 224.238281 194.421875 224.238281 194.421875 C 224.238281 194.421875 224.238281 186.867188 224.238281 186.867188 C 224.238281 186.867188 221.71875 183.085938 221.71875 183.085938 C 223.894531 183.085938 224.585938 183.890625 226.335938 184.765625 C 228.109375 185.652344 250.03125 183.835938 251.53125 183.085938 C 253.886719 181.910156 259.316406 178.160156 262.453125 179.726562 C 262.453125 179.726562 267.910156 184.765625 267.910156 184.765625 C 267.910156 187.496094 268.75 190.808594 268.75 194.003906 C 267.511719 194.003906 267.910156 195.644531 267.910156 196.523438 C 267.910156 196.523438 267.910156 197.363281 267.910156 197.363281 C 265.820312 197.363281 266.230469 202.488281 266.230469 204.082031 C 266.230469 204.082031 266.230469 204.921875 266.230469 204.921875 C 266.230469 204.921875 265.390625 205.761719 265.390625 205.761719 C 265.390625 210.015625 260.175781 209.054688 258.671875 212.0625 C 256.148438 217.105469 264.042969 219.199219 267.910156 219.199219 C 267.910156 219.199219 267.910156 221.71875 267.910156 221.71875 C 265.304688 221.71875 247.761719 236.398438 246.914062 238.09375 C 245.375 241.175781 245.234375 244.859375 245.234375 248.59375 C 243.742188 248.59375 241.035156 249.519531 241.035156 251.113281 C 237.507812 251.113281 236.355469 248.984375 233.898438 247.753906 C 233.898438 247.753906 233.054688 245.234375 233.054688 245.234375 C 231.066406 245.234375 228.804688 243.109375 226.335938 241.875 C 223.308594 240.359375 219.917969 244.542969 217.9375 243.554688 C 215.777344 242.472656 217.585938 239.597656 217.101562 239.355469 C 216.835938 239.222656 192.796875 237.648438 191.0625 238.515625 C 189.585938 239.253906 188.839844 245.507812 187.703125 246.074219 C 187.703125 246.074219 179.304688 246.914062 179.304688 246.914062 C 179.304688 246.914062 176.789062 245.234375 176.789062 245.234375 C 176.789062 245.234375 172.167969 250.695312 172.167969 250.695312 C 171.84375 251.34375 174.476562 254.472656 172.167969 254.472656 Z M 172.167969 254.472656 "/>
<path style=" stroke:none;fill-rule:nonzero;fill:rgb(0.784314%,17.254902%,100%);fill-opacity:1;" d="M 72.226562 183.925781 L 71.386719 185.605469 C 71.386719 185.605469 72.226562 183.925781 72.226562 183.925781 Z M 72.226562 183.925781 "/>
<path style=" stroke:none;fill-rule:nonzero;fill:rgb(86.666667%,39.215687%,47.450981%);fill-opacity:1;" d="M 339.296875 221.71875 C 340.976562 221.71875 347.652344 225.917969 348.117188 225.917969 L 348.953125 223.398438 C 350.203125 222.773438 365.113281 225.078125 367.851562 225.078125 C 367.851562 221.496094 364.492188 220.007812 364.492188 219.617188 C 364.492188 218.101562 372.480469 216.242188 373.730469 213.742188 C 375.246094 210.710938 378.769531 201.039062 378.769531 197.78125 C 378.769531 197.78125 377.089844 194.003906 377.089844 194.003906 C 369.941406 194.003906 362.148438 189.804688 355.671875 189.804688 C 355.671875 189.804688 353.15625 187.285156 353.15625 187.285156 C 353.15625 187.285156 350.214844 188.964844 350.214844 188.964844 C 350.214844 188.964844 349.375 188.125 349.375 188.125 C 347.589844 188.125 345.648438 187.285156 344.335938 187.285156 C 344.335938 191.824219 343.773438 198.910156 341.816406 202.820312 C 341.816406 202.820312 341.816406 214.578125 341.816406 214.578125 C 340.53125 217.148438 339.296875 218.734375 339.296875 221.71875 Z M 339.296875 221.71875 "/>
<path style=" stroke:none;fill-rule:nonzero;fill:rgb(14.901961%,49.411765%,100%);fill-opacity:1;" d="M 115.058594 215.839844 L 115.058594 216.679688 C 115.058594 216.679688 117.15625 218.359375 117.15625 218.359375 C 118.800781 218.359375 114.21875 208.980469 114.21875 208.28125 C 112.292969 208.28125 112.539062 207.445312 112.539062 205.761719 C 112.539062 205.761719 112.539062 204.921875 112.539062 204.921875 C 112.539062 204.921875 111.699219 204.082031 111.699219 204.082031 C 111.699219 204.082031 110.859375 203.242188 110.859375 203.242188 C 110.859375 200.574219 107.015625 200.171875 105.820312 197.78125 C 105.46875 197.082031 103.300781 188.730469 103.300781 188.125 C 100.597656 188.125 104.980469 198.742188 104.980469 199.882812 C 104.980469 199.882812 105.820312 200.722656 105.820312 200.722656 C 105.820312 200.722656 108.339844 203.242188 108.339844 203.242188 C 108.339844 203.242188 110.4375 206.601562 110.4375 206.601562 C 113.105469 207.933594 109.933594 207.691406 110.859375 209.539062 C 112.023438 211.867188 115.058594 213.03125 115.058594 215.839844 Z M 115.058594 215.839844 "/>
<path style=" stroke:none;fill-rule:nonzero;fill:rgb(86.666667%,39.215687%,47.450981%);fill-opacity:1;" d="M 61.308594 226.757812 C 59.972656 226.757812 58.726562 229.277344 58.367188 229.277344 C 57.882812 229.277344 56.675781 225.925781 55.007812 226.757812 C 49.449219 229.539062 46.40625 229.277344 39.472656 229.277344 C 39.472656 227.273438 38.339844 226.925781 39.472656 224.65625 C 39.472656 224.65625 41.992188 222.976562 41.992188 222.976562 C 41.992188 221.105469 39.003906 222.113281 38.210938 221.71875 C 36.753906 220.988281 37.324219 217.519531 35.695312 217.519531 C 34.574219 217.519531 32.984375 217.5625 31.914062 215.421875 C 31.242188 214.078125 27.9375 199.855469 28.554688 198.625 C 28.554688 198.625 30.234375 194.003906 30.234375 194.003906 C 34.625 194.003906 39.859375 194.859375 43.25 193.164062 C 45.007812 192.285156 43.023438 196.21875 45.773438 194.84375 C 47.363281 194.046875 53.25 189.761719 55.007812 190.644531 C 55.007812 190.644531 56.6875 193.164062 56.6875 193.164062 C 59.074219 193.164062 60.507812 189.804688 63.828125 189.804688 C 63.828125 193.097656 66.726562 217.855469 68.027344 220.460938 C 68.027344 220.460938 69.707031 224.238281 69.707031 224.238281 C 67.742188 224.238281 65.625 225.917969 62.988281 225.917969 C 62.988281 224.921875 62.148438 224.921875 62.148438 225.917969 C 62.148438 225.917969 61.308594 226.757812 61.308594 226.757812 Z M 61.308594 226.757812 "/>
<path style=" stroke:none;fill-rule:nonzero;fill:rgb(100%,20.392157%,15.294118%);fill-opacity:1;" d="M 261.191406 251.113281 C 257.378906 251.113281 255.339844 250.890625 251.53125 252.792969 C 248.683594 254.214844 243.480469 251.953125 241.035156 251.953125 C 241.035156 251.953125 241.035156 251.113281 241.035156 251.113281 C 241.035156 249.519531 243.742188 248.59375 245.234375 248.59375 C 248.378906 248.59375 255.3125 249.382812 255.3125 245.234375 C 256.78125 245.234375 256.992188 245.023438 256.992188 243.554688 C 259.324219 243.554688 272.367188 228.4375 272.949219 228.4375 C 272.949219 228.4375 273.789062 227.597656 273.789062 227.597656 C 273.789062 225.707031 275.46875 224.761719 275.46875 223.398438 C 275.46875 223.398438 275.46875 222.558594 275.46875 222.558594 C 275.46875 222.558594 275.46875 220.878906 275.46875 220.878906 C 275.46875 220.878906 277.148438 217.519531 277.148438 217.519531 C 277.148438 217.519531 277.988281 213.320312 277.988281 213.320312 C 277.988281 211.214844 288.648438 202.320312 290.164062 201.5625 C 290.164062 201.5625 293.105469 204.082031 293.105469 204.082031 C 293.105469 211.632812 286.386719 211.957031 286.386719 220.039062 C 286.386719 220.039062 286.386719 220.878906 286.386719 220.878906 C 284.671875 220.878906 283.867188 221.683594 283.867188 223.398438 C 283.867188 223.398438 283.027344 225.078125 283.027344 225.078125 C 283.027344 225.078125 282.1875 225.917969 282.1875 225.917969 C 282.1875 225.917969 281.347656 226.757812 281.347656 226.757812 C 281.347656 226.757812 281.347656 227.597656 281.347656 227.597656 C 281.347656 227.597656 280.507812 228.4375 280.507812 228.4375 C 280.507812 228.4375 279.667969 229.277344 279.667969 229.277344 C 279.667969 229.277344 278.828125 230.117188 278.828125 230.117188 C 278.828125 230.117188 277.988281 231.796875 277.988281 231.796875 C 277.988281 231.796875 277.148438 232.636719 277.148438 232.636719 C 277.148438 232.636719 276.308594 233.476562 276.308594 233.476562 C 276.308594 233.476562 276.308594 234.316406 276.308594 234.316406 C 276.308594 234.316406 275.46875 235.15625 275.46875 235.15625 C 275.46875 235.15625 274.628906 235.996094 274.628906 235.996094 C 274.628906 235.996094 273.789062 236.835938 273.789062 236.835938 C 273.789062 236.835938 272.949219 237.675781 272.949219 237.675781 C 272.949219 237.675781 272.109375 238.515625 272.109375 238.515625 C 272.109375 238.515625 262.871094 249.433594 262.871094 249.433594 C 262.871094 249.433594 262.03125 250.273438 262.03125 250.273438 C 262.03125 250.273438 261.191406 251.113281 261.191406 251.113281 Z M 261.191406 251.113281 "/>
<path style=" stroke:none;fill-rule:nonzero;fill:rgb(98.039216%,66.666669%,25.098041%);fill-opacity:1;" d="M 112.539062 205.761719 C 113.863281 205.761719 114.21875 207.242188 114.21875 208.28125 C 112.292969 208.28125 112.539062 207.445312 112.539062 205.761719 Z M 112.539062 205.761719 "/>
<path style=" stroke:none;fill-rule:nonzero;fill:rgb(100%,20.392157%,15.294118%);fill-opacity:1;" d="M 143.613281 250.273438 C 145.941406 250.273438 149.109375 253.632812 150.75 253.632812 L 153.273438 251.953125 C 153.773438 251.703125 157.570312 254.84375 159.992188 253.632812 L 162.929688 251.113281 C 162.929688 251.113281 162.089844 248.59375 162.089844 248.59375 C 162.089844 248.59375 162.089844 247.753906 162.089844 247.753906 C 162.089844 247.753906 161.25 246.914062 161.25 246.914062 C 159.296875 246.914062 157.632812 242.796875 155.789062 241.875 C 152.40625 240.183594 149.289062 239.464844 145.710938 237.675781 C 145.710938 237.675781 142.351562 234.316406 142.351562 234.316406 C 141.582031 233.929688 140.253906 234.957031 140.253906 233.476562 C 140.253906 233.476562 139.414062 232.636719 139.414062 232.636719 C 134.878906 232.636719 135.214844 225.207031 135.214844 222.558594 C 135.214844 222.558594 135.214844 221.71875 135.214844 221.71875 C 132.773438 221.71875 122.402344 206.601562 120.097656 206.601562 C 120.097656 206.601562 119.257812 205.761719 119.257812 205.761719 C 119.257812 205.761719 115.898438 205.761719 115.898438 205.761719 C 115.898438 211.648438 117.023438 210.113281 119.257812 214.578125 C 119.257812 214.578125 118.417969 217.9375 118.417969 217.9375 C 120.382812 221.871094 125.136719 223.6875 125.136719 228.4375 C 125.136719 228.4375 129.335938 232.636719 129.335938 232.636719 C 129.335938 232.636719 130.175781 233.476562 130.175781 233.476562 C 130.175781 233.476562 133.535156 238.515625 133.535156 238.515625 C 133.535156 238.515625 134.375 239.355469 134.375 239.355469 C 134.375 239.355469 139.414062 244.394531 139.414062 244.394531 C 139.414062 244.394531 140.253906 245.234375 140.253906 245.234375 C 140.253906 245.234375 141.933594 247.753906 141.933594 247.753906 C 141.933594 247.753906 142.773438 248.59375 142.773438 248.59375 C 142.773438 248.59375 143.613281 250.273438 143.613281 250.273438 Z M 143.613281 250.273438 "/>
<path style=" stroke:none;fill-rule:nonzero;fill:rgb(83.137256%,100%,0%);fill-opacity:1;" d="M 148.652344 207.441406 C 148.652344 210.035156 151.171875 209.34375 151.171875 211.640625 C 156.652344 211.640625 169.402344 224.308594 172.167969 218.78125 C 174.582031 213.949219 148.652344 200.789062 148.652344 207.441406 Z M 148.652344 207.441406 "/>
<path style=" stroke:none;fill-rule:nonzero;fill:rgb(83.137256%,100%,0%);fill-opacity:1;" d="M 254.472656 206.601562 C 254.472656 209.4375 250.679688 208.28125 249.851562 208.28125 L 248.171875 210.800781 C 246.816406 211.480469 246.609375 210.800781 245.65625 210.800781 C 244.53125 210.800781 239.128906 216.679688 235.578125 216.679688 L 235.15625 220.460938 C 237.871094 225.886719 244.375 215 245.65625 215 C 246.414062 215 246.738281 218.65625 249.015625 217.519531 C 252.320312 215.867188 254.117188 213.257812 256.570312 210.800781 C 257.234375 210.136719 260.152344 209.980469 259.511719 208.703125 L 256.570312 208.28125 Z M 254.472656 206.601562 "/>
<path style=" stroke:none;fill-rule:nonzero;fill:rgb(95.686275%,26.274511%,27.058825%);fill-opacity:1;" d="M 215 209.960938 L 217.9375 207.441406 C 221.378906 209.160156 222.277344 217.453125 218.78125 219.199219 L 215 215.839844 C 212.675781 215.839844 215 210.597656 215 209.960938 Z M 215 209.960938 "/>
<path style=" stroke:none;fill-rule:nonzero;fill:rgb(95.686275%,26.274511%,27.058825%);fill-opacity:1;" d="M 192.324219 209.121094 C 186.007812 209.121094 186.4375 218.144531 188.546875 219.199219 C 191.683594 220.769531 191.4375 218.359375 194.003906 218.359375 C 194.003906 214.808594 192.324219 212.015625 192.324219 209.121094 Z M 192.324219 209.121094 "/>
<path style=" stroke:none;fill-rule:nonzero;fill:rgb(86.666667%,39.215687%,47.450981%);fill-opacity:1;" d="M 338.457031 209.960938 C 337.460938 209.960938 337.460938 210.800781 338.457031 210.800781 C 338.457031 210.800781 338.457031 209.960938 338.457031 209.960938 Z M 338.457031 209.960938 "/>
<path style=" stroke:none;fill-rule:nonzero;fill:rgb(100%,72.941178%,0%);fill-opacity:1;" d="M 255.3125 245.234375 C 255.3125 249.382812 248.378906 248.59375 245.234375 248.59375 C 245.234375 244.859375 245.375 241.175781 246.914062 238.09375 C 247.761719 236.398438 265.304688 221.71875 267.910156 221.71875 C 269.109375 221.71875 271.269531 220.636719 271.269531 219.199219 C 271.269531 216.394531 275.851562 213.320312 277.988281 213.320312 C 277.988281 213.320312 277.148438 217.519531 277.148438 217.519531 C 275.378906 217.519531 275.46875 219.648438 275.46875 220.878906 C 275.46875 220.878906 275.46875 222.558594 275.46875 222.558594 C 274.472656 222.558594 274.472656 223.398438 275.46875 223.398438 C 275.46875 224.761719 273.789062 225.707031 273.789062 227.597656 C 273.789062 227.597656 272.949219 228.4375 272.949219 228.4375 C 272.367188 228.4375 259.324219 243.554688 256.992188 243.554688 C 256.992188 243.554688 255.3125 245.234375 255.3125 245.234375 Z M 255.3125 245.234375 "/>
<path style=" stroke:none;fill-rule:nonzero;fill:rgb(18.039216%,54.509807%,34.117648%);fill-opacity:1;" d="M 335.097656 231.796875 C 338.339844 231.796875 344.257812 238.515625 346.4375 238.515625 C 347.429688 238.515625 349.101562 236.910156 350.632812 237.675781 L 352.3125 241.035156 C 355.839844 241.035156 361.355469 238.515625 365.332031 238.515625 C 373 238.515625 367.851562 227.039062 367.851562 225.078125 C 365.113281 225.078125 350.203125 222.773438 348.953125 223.398438 C 348.953125 223.398438 348.117188 225.917969 348.117188 225.917969 C 347.652344 225.917969 340.976562 221.71875 339.296875 221.71875 C 339.296875 224.878906 335.097656 229.988281 335.097656 231.796875 Z M 335.097656 231.796875 "/>
<path style=" stroke:none;fill-rule:nonzero;fill:rgb(100%,72.941178%,0%);fill-opacity:1;" d="M 162.089844 247.753906 L 162.089844 248.59375 C 165.222656 248.59375 160.542969 238.371094 159.148438 237.675781 C 159.148438 237.675781 153.273438 235.996094 153.273438 235.996094 C 153.273438 235.996094 152.011719 233.054688 152.011719 233.054688 C 152.011719 233.054688 144.875 226.757812 144.875 226.757812 C 144.875 226.757812 140.253906 224.238281 140.253906 224.238281 C 140.253906 224.238281 137.734375 223.398438 137.734375 223.398438 C 137.734375 223.398438 135.214844 222.558594 135.214844 222.558594 C 135.214844 225.207031 134.878906 232.636719 139.414062 232.636719 C 139.414062 232.636719 140.253906 233.476562 140.253906 233.476562 C 140.253906 234.957031 141.582031 233.929688 142.351562 234.316406 C 142.351562 234.316406 145.710938 237.675781 145.710938 237.675781 C 149.289062 239.464844 152.40625 240.183594 155.789062 241.875 C 157.632812 242.796875 159.296875 246.914062 161.25 246.914062 C 161.25 246.914062 162.089844 247.753906 162.089844 247.753906 Z M 162.089844 247.753906 "/>
<path style=" stroke:none;fill-rule:nonzero;fill:rgb(18.039216%,54.509807%,34.117648%);fill-opacity:1;" d="M 61.308594 241.035156 C 61.308594 245.050781 57.53125 240.195312 56.6875 240.195312 C 54.429688 240.195312 55.273438 243.003906 54.171875 243.554688 L 47.453125 243.554688 L 44.929688 245.234375 C 44.601562 245.234375 43.621094 243.554688 41.992188 243.554688 C 35.960938 243.554688 37.246094 229.277344 39.472656 229.277344 C 46.40625 229.277344 49.449219 229.539062 55.007812 226.757812 C 56.675781 225.925781 57.882812 229.277344 58.367188 229.277344 C 58.726562 229.277344 59.972656 226.757812 61.308594 226.757812 C 61.308594 226.757812 62.148438 225.917969 62.148438 225.917969 C 62.148438 225.917969 62.988281 225.917969 62.988281 225.917969 C 65.625 225.917969 67.742188 224.238281 69.707031 224.238281 C 69.707031 228.332031 77.265625 234.820312 77.265625 237.675781 C 74.289062 237.675781 69.996094 240.195312 65.507812 240.195312 C 64.472656 240.195312 61.308594 239.65625 61.308594 241.035156 Z M 61.308594 241.035156 "/>
<path style=" stroke:none;fill-rule:nonzero;fill:rgb(18.039216%,54.509807%,34.117648%);fill-opacity:1;" d="M 72.226562 224.238281 L 73.066406 225.078125 C 73.066406 225.078125 72.226562 224.238281 72.226562 224.238281 Z M 72.226562 224.238281 "/>
<path style=" stroke:none;fill-rule:nonzero;fill:rgb(1.176471%,75.686276%,17.647059%);fill-opacity:1;" d="M 287.226562 273.789062 L 288.066406 273.789062 C 289.261719 273.789062 309.699219 281.875 312 283.027344 C 312 283.027344 326.699219 283.027344 326.699219 283.027344 C 356.175781 283.027344 365.332031 265.964844 365.332031 238.515625 C 361.355469 238.515625 355.839844 241.035156 352.3125 241.035156 C 352.3125 241.035156 350.632812 237.675781 350.632812 237.675781 C 349.101562 236.910156 347.429688 238.515625 346.4375 238.515625 C 344.257812 238.515625 338.339844 231.796875 335.097656 231.796875 C 335.097656 233.417969 334.121094 231.796875 333.417969 231.796875 C 327.894531 231.796875 320.304688 242.34375 319.5625 242.714844 C 319.5625 242.714844 313.679688 242.714844 313.679688 242.714844 C 310.097656 244.507812 305.160156 246.074219 301.921875 246.074219 C 301.921875 246.074219 300.242188 248.59375 300.242188 248.59375 C 299.539062 248.949219 294.351562 251.113281 293.945312 251.113281 C 293.945312 252.785156 289.578125 252.246094 288.484375 252.792969 C 285.242188 254.414062 278.828125 258.386719 278.828125 251.953125 C 277.386719 251.953125 270.429688 252.546875 270.429688 254.472656 C 270.429688 255.78125 269.410156 262.089844 270.429688 264.132812 C 270.429688 264.132812 273.789062 268.75 273.789062 268.75 C 278.601562 268.75 278.390625 272.109375 282.1875 272.109375 C 283.550781 272.109375 287.226562 272.113281 287.226562 273.789062 Z M 287.226562 273.789062 "/>
<path style=" stroke:none;fill-rule:nonzero;fill:rgb(1.176471%,75.686276%,17.647059%);fill-opacity:1;" d="M 274.628906 235.996094 L 273.789062 236.835938 C 273.789062 236.835938 274.628906 235.996094 274.628906 235.996094 Z M 274.628906 235.996094 "/>
<path style=" stroke:none;fill-rule:nonzero;fill:rgb(1.176471%,75.686276%,17.647059%);fill-opacity:1;" d="M 273.789062 236.835938 L 272.949219 237.675781 C 272.949219 237.675781 273.789062 236.835938 273.789062 236.835938 Z M 273.789062 236.835938 "/>
<path style=" stroke:none;fill-rule:nonzero;fill:rgb(1.176471%,75.686276%,17.647059%);fill-opacity:1;" d="M 141.933594 267.910156 C 140.261719 267.910156 133.941406 269.597656 132.273438 270.429688 C 131.554688 270.789062 133.210938 272.0625 131.4375 272.949219 L 125.554688 273.789062 L 123.875 276.308594 L 118.417969 276.726562 L 120.097656 277.570312 L 116.320312 277.988281 C 114.441406 278.925781 115.898438 279.378906 115.898438 280.507812 C 107.578125 280.507812 99.199219 283.867188 91.125 283.867188 C 88.328125 283.867188 81.050781 281.34375 79.367188 282.1875 C 72.617188 285.558594 56.808594 284.523438 52.910156 276.726562 C 52.910156 276.726562 47.871094 268.328125 47.871094 268.328125 C 47.871094 268.328125 45.351562 258.25 45.351562 258.25 C 43.351562 254.25 41.992188 248.253906 41.992188 243.554688 C 43.621094 243.554688 44.601562 245.234375 44.929688 245.234375 C 44.929688 245.234375 47.453125 243.554688 47.453125 243.554688 C 47.453125 243.554688 54.171875 243.554688 54.171875 243.554688 C 55.273438 243.003906 54.429688 240.195312 56.6875 240.195312 C 57.53125 240.195312 61.308594 245.050781 61.308594 241.035156 C 62.34375 241.035156 65.507812 241.574219 65.507812 240.195312 C 69.996094 240.195312 74.289062 237.675781 77.265625 237.675781 C 77.597656 237.675781 83.144531 243.46875 83.144531 241.035156 C 84.792969 241.035156 96.414062 247.460938 98.679688 248.59375 C 100.441406 249.476562 103.796875 247.375 106.242188 248.59375 C 110.011719 250.476562 112.136719 253.632812 116.738281 253.632812 C 116.738281 254.863281 129.335938 259.355469 129.335938 255.3125 C 129.335938 255.3125 130.59375 256.992188 130.59375 256.992188 C 130.59375 256.992188 135.632812 256.992188 135.632812 256.992188 C 139.09375 258.722656 137.015625 262.695312 138.574219 265.8125 C 138.964844 266.589844 143.613281 263.878906 143.613281 265.390625 C 143.613281 265.390625 141.933594 267.910156 141.933594 267.910156 Z M 141.933594 267.910156 "/>
<path style=" stroke:none;fill-rule:nonzero;fill:rgb(1.176471%,75.686276%,17.647059%);fill-opacity:1;" d="M 272.949219 237.675781 L 272.109375 238.515625 C 272.109375 238.515625 272.949219 237.675781 272.949219 237.675781 Z M 272.949219 237.675781 "/>
<path style=" stroke:none;fill-rule:evenodd;fill:rgb(88.627452%,47.058824%,63.137257%);fill-opacity:1;" d="M 213.320312 248.59375 C 213.320312 249.699219 210.5 250.09375 211.640625 252.375 C 213.523438 256.140625 223.019531 248.59375 213.320312 248.59375 M 192.324219 247.753906 L 191.484375 251.53125 C 195.113281 258.789062 202.265625 247.753906 192.324219 247.753906 M 207.441406 279.667969 L 207.441406 281.347656 C 207.441406 281.347656 207.859375 284.707031 207.859375 284.707031 C 207.859375 284.707031 214.578125 279.667969 214.578125 279.667969 C 219.835938 277.039062 226.070312 276.441406 231.375 273.789062 C 231.375 273.789062 233.898438 269.589844 233.898438 269.589844 C 235.003906 269.035156 236.03125 269.941406 236.835938 268.328125 C 239.027344 263.945312 236.207031 259.511719 237.675781 256.570312 C 237.675781 256.570312 241.035156 254.890625 241.035156 254.890625 C 241.035156 254.890625 237.675781 254.054688 237.675781 254.054688 C 237.675781 253.632812 240.375 251.953125 241.035156 251.953125 C 241.035156 251.953125 241.035156 251.113281 241.035156 251.113281 C 237.507812 251.113281 236.355469 248.984375 233.898438 247.753906 C 233.898438 247.753906 233.054688 245.234375 233.054688 245.234375 C 231.066406 245.234375 228.804688 243.109375 226.335938 241.875 C 223.308594 240.359375 219.917969 244.542969 217.9375 243.554688 C 215.777344 242.472656 217.585938 239.597656 217.101562 239.355469 C 216.835938 239.222656 192.796875 237.648438 191.0625 238.515625 C 189.585938 239.253906 188.839844 245.507812 187.703125 246.074219 C 187.703125 246.074219 179.304688 246.914062 179.304688 246.914062 C 179.304688 246.914062 176.789062 245.234375 176.789062 245.234375 C 176.789062 245.234375 172.167969 250.695312 172.167969 250.695312 C 171.84375 251.34375 174.476562 254.472656 172.167969 254.472656 C 172.167969 254.472656 171.328125 255.3125 171.328125 255.3125 C 171.328125 258.535156 170.953125 259.839844 169.648438 262.453125 C 168.371094 265.003906 176.820312 275.066406 179.304688 276.308594 C 184.519531 278.914062 191.792969 277.09375 196.945312 279.667969 C 196.945312 279.667969 201.984375 284.707031 201.984375 284.707031 C 201.984375 284.707031 202.402344 279.667969 202.402344 279.667969 C 202.402344 279.667969 198.203125 275.890625 198.203125 275.890625 C 198.203125 272.753906 209.960938 270.476562 209.960938 275.890625 C 209.960938 275.890625 208.28125 277.988281 208.28125 277.988281 C 208.28125 277.988281 207.441406 279.667969 207.441406 279.667969 Z M 207.441406 279.667969 "/>
<path style=" stroke:none;fill-rule:nonzero;fill:rgb(60.000002%,32.549021%,100%);fill-opacity:1;" d="M 161.25 246.914062 L 162.089844 247.753906 C 162.089844 247.753906 161.25 246.914062 161.25 246.914062 Z M 161.25 246.914062 "/>
<path style=" stroke:none;fill-rule:nonzero;fill:rgb(86.666667%,85.09804%,31.764707%);fill-opacity:1;" d="M 293.945312 251.113281 C 291.402344 251.113281 290.214844 245.210938 286.804688 246.914062 L 280.929688 249.433594 L 278.828125 251.953125 C 278.828125 258.386719 285.242188 254.414062 288.484375 252.792969 C 289.578125 252.246094 293.945312 252.785156 293.945312 251.113281 Z M 293.945312 251.113281 "/>
<path style=" stroke:none;fill-rule:nonzero;fill:rgb(93.333334%,72.941178%,0%);fill-opacity:1;" d="M 192.324219 247.753906 L 191.484375 251.53125 C 195.113281 258.789062 202.265625 247.753906 192.324219 247.753906 Z M 192.324219 247.753906 "/>
<path style=" stroke:none;fill-rule:nonzero;fill:rgb(93.333334%,72.941178%,0%);fill-opacity:1;" d="M 213.320312 248.59375 C 213.320312 249.699219 210.5 250.09375 211.640625 252.375 C 213.523438 256.140625 223.019531 248.59375 213.320312 248.59375 Z M 213.320312 248.59375 "/>
<path style=" stroke:none;fill-rule:nonzero;fill:rgb(86.666667%,85.09804%,31.764707%);fill-opacity:1;" d="M 116.738281 253.632812 L 118.835938 251.113281 C 120.183594 250.441406 129.335938 251.050781 129.335938 255.3125 C 129.335938 259.355469 116.738281 254.863281 116.738281 253.632812 Z M 116.738281 253.632812 "/>
<path style=" stroke:none;fill-rule:evenodd;fill:rgb(98.039216%,50.196081%,44.705883%);fill-opacity:1;" d="M 128.496094 288.066406 C 128.496094 290.699219 132.929688 288.066406 128.496094 288.066406 M 128.496094 285.546875 C 128.496094 289.105469 133.59375 285.546875 128.496094 285.546875 M 141.933594 267.910156 L 145.710938 272.109375 C 147.027344 272.765625 158.730469 283.195312 158.730469 284.289062 L 155.371094 287.648438 C 155.371094 288.925781 156.230469 294.566406 154.109375 295.625 L 152.429688 294.785156 L 152.011719 297.726562 C 151.398438 298.953125 146.292969 299.695312 144.875 298.984375 L 143.195312 296.464844 C 142.195312 295.964844 135.433594 287.210938 133.535156 291.007812 C 132.015625 294.039062 137.734375 293.84375 137.734375 296.046875 C 137.734375 298.398438 132.519531 296.761719 131.4375 297.304688 L 129.757812 298.984375 L 126.816406 298.144531 L 116.320312 298.144531 L 112.960938 293.945312 C 111.753906 293.34375 104.140625 292.984375 104.140625 291.007812 L 105.820312 290.164062 L 103.71875 289.746094 L 103.71875 284.707031 C 105.335938 283.898438 115.898438 281.378906 115.898438 280.507812 C 115.898438 279.378906 114.441406 278.925781 116.320312 277.988281 C 116.320312 277.988281 120.097656 277.570312 120.097656 277.570312 C 120.097656 277.570312 118.417969 276.726562 118.417969 276.726562 C 118.417969 276.726562 123.875 276.308594 123.875 276.308594 C 123.875 276.308594 125.554688 273.789062 125.554688 273.789062 C 125.554688 273.789062 131.4375 272.949219 131.4375 272.949219 C 133.210938 272.0625 131.554688 270.789062 132.273438 270.429688 C 133.941406 269.597656 140.261719 267.910156 141.933594 267.910156 Z M 141.933594 267.910156 "/>
<path style=" stroke:none;fill-rule:evenodd;fill:rgb(98.039216%,50.196081%,44.705883%);fill-opacity:1;" d="M 283.027344 283.027344 C 283.027344 290.789062 286.09375 283.027344 283.027344 283.027344 M 287.226562 273.789062 L 288.066406 273.789062 C 288.066406 275.109375 302.417969 284.140625 301.503906 285.96875 C 301.117188 286.738281 297.152344 292.972656 296.882812 293.105469 C 295.457031 293.820312 289.574219 295.550781 288.90625 296.882812 C 288.625 297.445312 293.703125 302.34375 290.164062 302.34375 C 290.164062 302.34375 284.289062 298.144531 284.289062 298.144531 C 284.289062 298.144531 282.609375 299.824219 282.609375 299.824219 C 281.589844 300.335938 278.496094 298.101562 276.726562 298.984375 C 269.503906 302.597656 266.617188 301.488281 259.929688 298.144531 C 258.1875 297.273438 255.585938 296.59375 254.472656 294.367188 C 253.316406 292.050781 253.40625 284.738281 254.472656 282.609375 C 254.472656 282.609375 257.832031 280.085938 257.832031 280.085938 C 258.929688 277.898438 255.3125 277.351562 255.3125 275.890625 C 255.3125 275.890625 258.671875 274.210938 258.671875 274.210938 C 260.355469 270.839844 260.550781 274.320312 263.289062 272.949219 C 268.976562 270.105469 262.210938 268.75 273.789062 268.75 C 278.601562 268.75 278.390625 272.109375 282.1875 272.109375 C 282.1875 272.875 286.398438 273.789062 287.226562 273.789062 Z M 287.226562 273.789062 "/>
<path style=" stroke:none;fill-rule:nonzero;fill:rgb(0.784314%,17.254902%,100%);fill-opacity:1;" d="M 205.761719 280.507812 C 205.761719 278.546875 206.839844 281.347656 207.441406 281.347656 C 207.441406 281.347656 207.441406 279.667969 207.441406 279.667969 C 207.441406 279.667969 208.28125 277.988281 208.28125 277.988281 C 208.28125 277.988281 209.960938 275.890625 209.960938 275.890625 C 209.960938 270.476562 198.203125 272.753906 198.203125 275.890625 C 198.203125 275.890625 202.402344 279.667969 202.402344 279.667969 C 202.402344 279.667969 203.242188 280.507812 203.242188 280.507812 C 203.242188 280.507812 204.082031 280.507812 204.082031 280.507812 C 204.082031 280.507812 204.921875 280.507812 204.921875 280.507812 C 204.921875 280.507812 205.761719 280.507812 205.761719 280.507812 Z M 205.761719 280.507812 "/>
<path style=" stroke:none;fill-rule:nonzero;fill:rgb(88.627452%,47.058824%,63.137257%);fill-opacity:1;" d="M 203.242188 280.507812 L 204.082031 280.507812 C 204.082031 284.976562 203.242188 284.976562 203.242188 280.507812 Z M 203.242188 280.507812 "/>
<path style=" stroke:none;fill-rule:nonzero;fill:rgb(88.627452%,47.058824%,63.137257%);fill-opacity:1;" d="M 204.921875 280.507812 L 205.761719 280.507812 C 205.761719 284.976562 204.921875 284.976562 204.921875 280.507812 Z M 204.921875 280.507812 "/>
<path style=" stroke:none;fill-rule:nonzero;fill:rgb(98.039216%,50.196081%,44.705883%);fill-opacity:1;" d="M 251.113281 283.027344 L 250.273438 284.289062 C 248.109375 288.613281 256.765625 283.027344 251.113281 283.027344 Z M 251.113281 283.027344 "/>
</g>
</svg>
