<?xml version="1.0" encoding="UTF-8"?>
<svg xmlns="http://www.w3.org/2000/svg" xmlns:xlink="http://www.w3.org/1999/xlink" width="430px" height="430px" viewBox="0 0 430 430" version="1.1">
<g id="surface1">
<rect x="0" y="0" width="430" height="430" style="fill:rgb(0%,0%,0%);fill-opacity:1;stroke:none;"/>
<path style=" stroke:none;fill-rule:nonzero;fill:rgb(1.176471%,75.686276%,17.647059%);fill-opacity:1;" d="M 89.863281 241.875 C 86.289062 241.875 86.953125 237.691406 85.242188 236.835938 C 82.585938 235.503906 77.816406 231.640625 76.425781 228.859375 L 77.265625 225.5 C 76.027344 223.019531 75.105469 220.339844 73.90625 217.9375 C 64.84375 199.816406 57.792969 164.503906 68.027344 144.03125 L 68.867188 138.15625 L 72.648438 132.695312 C 73.15625 132.441406 77.265625 136.261719 77.265625 133.117188 L 74.746094 128.914062 C 76.285156 125.835938 79.210938 123.953125 81.882812 122.617188 L 83.144531 118.835938 C 84.257812 116.609375 86.859375 115.929688 88.601562 115.058594 L 92.804688 110.019531 C 97.941406 107.449219 103.660156 105.011719 108.757812 102.460938 L 119.679688 96.582031 L 121.359375 97.421875 L 138.992188 91.542969 L 144.03125 93.222656 C 148.28125 91.097656 153.277344 91.121094 157.46875 89.023438 L 166.710938 89.023438 L 169.226562 86.503906 C 172.425781 84.90625 193.90625 85.824219 196.945312 87.34375 C 200.746094 89.246094 199.183594 92.664062 203.664062 94.902344 C 205.039062 95.589844 209.464844 87.382812 211.21875 86.503906 C 212.523438 85.855469 220.792969 83.984375 222.558594 83.984375 C 223.917969 83.984375 226.542969 85.980469 227.179688 85.664062 C 229.515625 84.496094 235.84375 82.4375 238.9375 83.984375 L 240.617188 86.503906 C 242.316406 87.355469 248.074219 84.355469 250.695312 85.664062 L 256.570312 89.863281 C 258.554688 90.855469 261.238281 90.515625 263.289062 91.542969 C 266.816406 93.304688 267.828125 89.023438 270.007812 89.023438 L 272.53125 90.703125 L 281.765625 91.542969 C 284.839844 93.078125 288.878906 92.578125 291.84375 94.0625 C 297.605469 96.941406 303.820312 98.789062 309.484375 101.621094 L 313.679688 105.820312 C 316.992188 107.476562 325.464844 111.332031 327.539062 115.476562 C 330.71875 121.839844 334.664062 127.210938 337.617188 133.117188 L 341.816406 136.476562 L 344.335938 144.03125 L 344.335938 150.75 C 346.914062 155.90625 346.796875 161.554688 349.375 166.710938 L 347.695312 178.46875 C 349.898438 182.875 350.207031 196.960938 347.695312 201.984375 L 345.59375 204.921875 L 342.65625 205.34375 C 342.65625 209.3125 340.566406 215.402344 338.457031 219.617188 L 333 225.078125 C 332.105469 225.523438 330.082031 222.929688 329.21875 224.65625 C 328.496094 226.105469 332.964844 226.40625 331.738281 228.859375 C 330.777344 230.777344 328.257812 232.457031 327.539062 233.898438 C 326.058594 236.859375 328.257812 243.554688 322.5 243.554688 C 322.5 238.8125 313.777344 240.242188 310.320312 238.515625 C 310.320312 238.515625 306.960938 239.355469 306.960938 239.355469 C 306.960938 239.355469 306.125 236.835938 306.125 236.835938 C 301.507812 234.527344 302.582031 239.265625 301.085938 238.515625 C 295.671875 235.808594 302.039062 235.996094 293.523438 235.996094 C 291.972656 235.996094 289.847656 232.375 287.648438 233.476562 C 282.554688 236.023438 278.871094 236.835938 273.789062 236.835938 C 273.789062 236.835938 274.628906 233.476562 274.628906 233.476562 C 277.773438 233.476562 273.648438 230.117188 277.148438 230.117188 C 277.148438 230.117188 281.347656 229.695312 281.347656 229.695312 C 282.289062 227.816406 281.210938 224.9375 282.1875 222.976562 C 286.046875 215.261719 292.585938 208.902344 296.464844 201.140625 C 297.859375 198.355469 302.976562 198.195312 304.023438 196.101562 C 305.175781 193.796875 304.613281 190.722656 305.703125 188.546875 C 305.703125 188.546875 308.222656 187.703125 308.222656 187.703125 C 309.183594 185.785156 306.542969 185.859375 306.542969 185.1875 C 306.542969 185.1875 309.0625 184.34375 309.0625 184.34375 C 310.136719 182.195312 306.078125 182.574219 305.703125 181.828125 C 305.703125 181.828125 304.863281 169.226562 304.863281 169.226562 C 304.324219 168.148438 304.523438 166.867188 304.023438 165.867188 C 304.023438 165.867188 301.503906 164.1875 301.503906 164.1875 C 301.503906 155.640625 296.863281 152.421875 289.328125 148.652344 C 289.328125 148.652344 285.96875 144.453125 285.96875 144.453125 C 278.582031 140.761719 253.863281 130.175781 246.074219 130.175781 C 246.074219 127.285156 239.355469 126.640625 239.355469 130.175781 C 236.464844 130.175781 235.898438 135.214844 234.316406 135.214844 C 230.765625 135.214844 230.472656 131.402344 228.015625 130.175781 C 226.738281 129.539062 225.375 130.175781 224.65625 130.175781 C 222.503906 130.175781 210.460938 120.097656 205.761719 120.097656 C 205.761719 120.097656 204.921875 119.257812 204.921875 119.257812 C 193.71875 119.257812 182.734375 136.054688 175.527344 136.054688 C 175.527344 136.054688 171.328125 133.535156 171.328125 133.535156 C 171.328125 133.351562 167.441406 132.695312 165.867188 132.695312 C 160.726562 132.695312 157.910156 134.375 152.429688 134.375 C 146.585938 134.375 118.199219 149.511719 115.058594 155.789062 C 115.058594 155.789062 110.019531 162.507812 110.019531 162.507812 C 105.878906 170.792969 101.914062 185.769531 106.660156 195.265625 C 109.167969 200.277344 117.921875 208.550781 119.257812 211.21875 C 121.644531 215.996094 128.832031 230.117188 134.375 230.117188 C 134.375 230.117188 136.054688 233.476562 136.054688 233.476562 C 136.054688 233.476562 138.574219 237.675781 138.574219 237.675781 C 138.574219 237.675781 138.574219 238.515625 138.574219 238.515625 C 138.574219 238.515625 138.574219 240.195312 138.574219 240.195312 C 138.574219 240.195312 134.796875 237.675781 134.796875 237.675781 C 131.820312 236.1875 123.71875 237.675781 121.359375 237.675781 C 121.359375 237.675781 118.835938 236.835938 118.835938 236.835938 C 118.835938 236.835938 117.15625 240.195312 117.15625 240.195312 C 115.796875 240.195312 107.699219 235.6875 107.078125 235.996094 C 104.964844 237.054688 103.253906 240.007812 102.882812 240.195312 C 102.324219 240.472656 90.566406 241.875 89.863281 241.875 Z M 89.863281 241.875 "/>
<path style=" stroke:none;fill-rule:nonzero;fill:rgb(11.372549%,40.784314%,92.156863%);fill-opacity:1;" d="M 207.441406 159.570312 C 209.414062 159.570312 208.601562 162.089844 210.800781 162.089844 C 210.800781 162.089844 218.78125 161.25 218.78125 161.25 C 224.496094 158.390625 234.316406 139.335938 234.316406 135.214844 C 230.765625 135.214844 230.472656 131.402344 228.015625 130.175781 C 226.738281 129.539062 225.375 130.175781 224.65625 130.175781 C 222.503906 130.175781 210.460938 120.097656 205.761719 120.097656 C 205.761719 120.097656 204.921875 119.257812 204.921875 119.257812 C 193.71875 119.257812 182.734375 136.054688 175.527344 136.054688 C 175.527344 136.054688 173.847656 136.894531 173.847656 136.894531 C 173.847656 145.472656 192.238281 162.089844 200.722656 162.089844 C 200.722656 160.890625 201.804688 158.730469 203.242188 158.730469 C 203.242188 156.117188 207.441406 156.394531 207.441406 159.570312 Z M 207.441406 159.570312 "/>
<path style=" stroke:none;fill-rule:evenodd;fill:rgb(100%,43.137255%,0%);fill-opacity:1;" d="M 132.695312 225.917969 C 132.695312 230.5 136.5 225.917969 132.695312 225.917969 M 194.84375 188.964844 C 194.84375 182.484375 210.367188 178.441406 215 187.703125 L 216.679688 189.804688 C 218.394531 189.804688 221.71875 186.46875 221.71875 184.765625 C 221.71875 184.765625 223.398438 182.664062 223.398438 182.664062 C 224.171875 181.117188 224.324219 174.6875 226.757812 174.6875 C 226.757812 174.6875 229.277344 168.808594 229.277344 168.808594 C 229.277344 168.808594 230.117188 167.96875 230.117188 167.96875 C 230.117188 167.96875 230.117188 167.128906 230.117188 167.128906 C 230.117188 167.128906 230.957031 166.289062 230.957031 166.289062 C 230.957031 166.289062 234.316406 161.25 234.316406 161.25 C 234.316406 161.25 235.996094 160.410156 235.996094 160.410156 C 235.996094 160.410156 236.835938 159.570312 236.835938 159.570312 C 236.835938 157.972656 238.394531 155.371094 240.195312 155.371094 C 240.195312 153.902344 240.40625 153.691406 241.875 153.691406 C 241.875 153.691406 242.714844 152.851562 242.714844 152.851562 C 242.714844 151.527344 244.195312 151.171875 245.234375 151.171875 C 245.234375 151.171875 246.074219 151.171875 246.074219 151.171875 C 246.074219 151.171875 246.914062 150.332031 246.914062 150.332031 C 250.808594 150.332031 250.75 146.945312 254.054688 145.292969 C 254.054688 145.292969 263.289062 146.132812 263.289062 146.132812 C 265.851562 146.132812 276.308594 147.625 276.308594 148.652344 C 277.1875 148.652344 278.828125 148.253906 278.828125 149.492188 C 285.476562 149.492188 293.746094 159.589844 296.464844 165.03125 C 297.726562 167.546875 297.683594 170.824219 298.984375 173.429688 C 298.984375 173.429688 298.984375 178.46875 298.984375 178.46875 C 299.988281 180.472656 298.144531 179.96875 298.144531 181.828125 C 298.144531 182.339844 300.65625 183.519531 299.824219 185.1875 C 298.074219 188.6875 294.847656 190.097656 293.105469 193.585938 C 293.105469 193.585938 294.785156 196.101562 294.785156 196.101562 C 294.785156 196.101562 291.425781 197.78125 291.425781 197.78125 C 290.746094 199.140625 291.425781 199.347656 291.425781 200.304688 C 291.425781 200.304688 286.386719 203.664062 286.386719 203.664062 C 286.386719 203.664062 288.066406 205.34375 288.066406 205.34375 C 288.066406 205.34375 284.289062 206.601562 284.289062 206.601562 C 284.289062 206.601562 283.867188 211.21875 283.867188 211.21875 C 283.367188 212.21875 280.554688 211.96875 279.667969 213.742188 C 279.667969 213.742188 279.667969 218.78125 279.667969 218.78125 C 278.648438 220.816406 277.355469 222.5625 276.308594 224.65625 C 275.402344 226.472656 277.148438 228.769531 277.148438 230.117188 C 277.148438 230.117188 281.347656 229.695312 281.347656 229.695312 C 282.289062 227.816406 281.210938 224.9375 282.1875 222.976562 C 286.046875 215.261719 292.585938 208.902344 296.464844 201.140625 C 297.859375 198.355469 302.976562 198.195312 304.023438 196.101562 C 305.175781 193.796875 304.613281 190.722656 305.703125 188.546875 C 305.703125 188.546875 308.222656 187.703125 308.222656 187.703125 C 309.183594 185.785156 306.542969 185.859375 306.542969 185.1875 C 306.542969 185.1875 309.0625 184.34375 309.0625 184.34375 C 310.136719 182.195312 306.078125 182.574219 305.703125 181.828125 C 305.703125 181.828125 304.863281 169.226562 304.863281 169.226562 C 304.324219 168.148438 304.523438 166.867188 304.023438 165.867188 C 304.023438 165.867188 301.503906 164.1875 301.503906 164.1875 C 301.503906 155.640625 296.863281 152.421875 289.328125 148.652344 C 289.328125 148.652344 285.96875 144.453125 285.96875 144.453125 C 278.582031 140.761719 253.863281 130.175781 246.074219 130.175781 C 246.074219 130.175781 239.355469 130.175781 239.355469 130.175781 C 236.464844 130.175781 235.898438 135.214844 234.316406 135.214844 C 234.316406 139.335938 224.496094 158.390625 218.78125 161.25 C 218.78125 161.25 210.800781 162.089844 210.800781 162.089844 C 210.800781 164.039062 201.789062 162.089844 200.722656 162.089844 C 192.238281 162.089844 173.847656 145.472656 173.847656 136.894531 C 173.847656 136.894531 171.328125 133.535156 171.328125 133.535156 C 171.328125 133.351562 167.441406 132.695312 165.867188 132.695312 C 160.726562 132.695312 157.910156 134.375 152.429688 134.375 C 146.585938 134.375 118.199219 149.511719 115.058594 155.789062 C 115.058594 155.789062 110.019531 162.507812 110.019531 162.507812 C 105.878906 170.792969 101.914062 185.769531 106.660156 195.265625 C 109.167969 200.277344 117.921875 208.550781 119.257812 211.21875 C 121.644531 215.996094 128.832031 230.117188 134.375 230.117188 C 135.449219 230.117188 136.65625 226.699219 136.054688 225.5 C 134.910156 223.207031 133.488281 226.242188 132.695312 224.65625 C 132.695312 224.65625 132.695312 215.421875 132.695312 215.421875 C 132.695312 215.421875 131.015625 214.578125 131.015625 214.578125 C 131.015625 214.578125 130.59375 212.480469 130.59375 212.480469 C 130.59375 212.480469 129.757812 214.160156 129.757812 214.160156 C 128.699219 214.160156 125.988281 203.242188 123.875 203.242188 C 123.003906 203.242188 123.953125 207.058594 121.359375 205.761719 C 119.136719 204.652344 121.019531 199.625 120.097656 197.78125 C 120.097656 197.78125 115.058594 194.421875 115.058594 194.421875 C 112.617188 189.539062 112.539062 185.265625 112.539062 179.726562 C 112.539062 179.726562 110.859375 178.886719 110.859375 178.886719 C 110.859375 166.226562 125.121094 149.492188 137.734375 149.492188 C 137.734375 148.195312 142.773438 146.726562 142.773438 148.652344 C 142.773438 148.652344 143.613281 148.652344 143.613281 148.652344 C 143.613281 147.285156 152.011719 147.285156 152.011719 148.652344 C 152.011719 148.652344 154.53125 148.652344 154.53125 148.652344 C 154.53125 147.476562 156.210938 147.476562 156.210938 148.652344 C 156.210938 148.652344 157.050781 148.652344 157.050781 148.652344 C 157.050781 148.652344 157.890625 150.332031 157.890625 150.332031 C 162.300781 150.332031 168.742188 159.570312 173.007812 159.570312 C 173.007812 159.570312 174.6875 161.25 174.6875 161.25 C 174.6875 161.25 178.886719 166.289062 178.886719 166.289062 C 180.714844 166.289062 182.246094 169.929688 182.246094 171.328125 C 182.246094 171.328125 182.246094 173.847656 182.246094 173.847656 C 185.371094 173.847656 188.125 180.785156 188.125 183.925781 C 188.777344 183.925781 190.558594 188.964844 194.84375 188.964844 Z M 194.84375 188.964844 "/>
<path style=" stroke:none;fill-rule:evenodd;fill:rgb(50.588238%,30.980393%,100%);fill-opacity:1;" d="M 244.394531 226.757812 C 244.394531 229.5625 241.003906 228.796875 242.714844 232.21875 L 244.8125 236.835938 C 256.609375 248.628906 259.84375 226.757812 244.394531 226.757812 M 274.628906 233.476562 L 270.007812 236.835938 L 268.328125 235.996094 L 267.910156 238.9375 L 265.390625 243.132812 C 265.390625 244.25 267.953125 244.726562 267.070312 246.492188 L 264.550781 247.335938 L 267.070312 248.171875 C 267.070312 250.105469 264.941406 250.257812 266.648438 251.113281 C 268.164062 251.867188 266.230469 253.773438 266.230469 254.472656 C 266.230469 256.6875 262.894531 255.683594 262.03125 257.414062 C 261.398438 258.675781 258.878906 264.550781 256.570312 264.550781 C 254.457031 264.550781 252.839844 260.539062 249.851562 262.03125 C 247.9375 262.988281 249.457031 265.589844 248.171875 266.230469 C 243.78125 268.425781 241.90625 263.515625 238.9375 262.03125 C 236.660156 260.894531 236.335938 264.550781 235.578125 264.550781 C 232.777344 264.550781 232.445312 259.546875 231.796875 258.25 C 231.4375 257.53125 230.164062 259.1875 229.277344 257.414062 C 229.277344 257.414062 229.277344 254.054688 229.277344 254.054688 C 228.773438 253.039062 223.398438 251.710938 223.398438 249.851562 C 223.398438 246.179688 220.039062 245.140625 220.039062 244.8125 C 220.039062 239.960938 219.535156 237.082031 216.679688 231.375 C 215.066406 228.152344 220.039062 224.269531 220.039062 222.140625 C 220.039062 221.15625 216.523438 222.453125 217.519531 220.460938 C 219.570312 216.355469 226.757812 208.972656 226.757812 206.601562 C 228.617188 206.601562 226.757812 196.203125 226.757812 194.84375 C 228.089844 194.84375 228.089844 189.804688 226.757812 189.804688 C 226.757812 189.804688 225.917969 184.765625 225.917969 184.765625 C 227.414062 184.765625 226.757812 176.21875 226.757812 174.6875 C 226.757812 174.6875 229.277344 168.808594 229.277344 168.808594 C 229.277344 168.808594 230.117188 167.96875 230.117188 167.96875 C 230.117188 167.96875 230.117188 167.128906 230.117188 167.128906 C 230.117188 167.128906 230.957031 166.289062 230.957031 166.289062 C 230.957031 166.289062 234.316406 161.25 234.316406 161.25 C 234.316406 161.25 235.996094 160.410156 235.996094 160.410156 C 235.996094 160.410156 236.835938 159.570312 236.835938 159.570312 C 236.835938 157.972656 238.394531 155.371094 240.195312 155.371094 C 241.664062 155.371094 241.875 155.160156 241.875 153.691406 C 241.875 153.691406 242.714844 152.851562 242.714844 152.851562 C 243.753906 152.851562 245.234375 152.496094 245.234375 151.171875 C 245.234375 151.171875 246.074219 151.171875 246.074219 151.171875 C 246.074219 151.171875 246.914062 150.332031 246.914062 150.332031 C 250.808594 150.332031 250.75 146.945312 254.054688 145.292969 C 254.054688 145.292969 263.289062 146.132812 263.289062 146.132812 C 265.851562 146.132812 276.308594 147.625 276.308594 148.652344 C 274.214844 148.652344 277.90625 149.492188 278.828125 149.492188 C 285.476562 149.492188 293.746094 159.589844 296.464844 165.03125 C 297.726562 167.546875 297.683594 170.824219 298.984375 173.429688 C 298.984375 173.429688 298.984375 178.46875 298.984375 178.46875 C 299.988281 180.472656 298.144531 179.96875 298.144531 181.828125 C 298.144531 182.339844 300.65625 183.519531 299.824219 185.1875 C 298.074219 188.6875 294.847656 190.097656 293.105469 193.585938 C 293.105469 193.585938 294.785156 196.101562 294.785156 196.101562 C 294.785156 196.101562 291.425781 197.78125 291.425781 197.78125 C 290.746094 199.140625 291.425781 199.347656 291.425781 200.304688 C 291.425781 200.304688 286.386719 203.664062 286.386719 203.664062 C 286.386719 203.664062 288.066406 205.34375 288.066406 205.34375 C 288.066406 205.34375 284.289062 206.601562 284.289062 206.601562 C 284.289062 206.601562 283.867188 211.21875 283.867188 211.21875 C 283.367188 212.21875 280.554688 211.96875 279.667969 213.742188 C 279.667969 213.742188 279.667969 218.78125 279.667969 218.78125 C 278.648438 220.816406 277.355469 222.5625 276.308594 224.65625 C 275.402344 226.472656 277.148438 228.769531 277.148438 230.117188 C 273.648438 230.117188 277.773438 233.476562 274.628906 233.476562 Z M 274.628906 233.476562 "/>
<path style=" stroke:none;fill-rule:evenodd;fill:rgb(50.588238%,30.980393%,100%);fill-opacity:1;" d="M 165.449219 225.917969 C 165.449219 227.035156 159.046875 229.902344 157.890625 232.21875 C 157.390625 233.214844 153.851562 239.222656 155.789062 240.195312 C 157.046875 240.824219 158.269531 239.792969 159.148438 239.355469 L 164.1875 239.355469 C 168.515625 237.191406 172.316406 225.917969 165.449219 225.917969 M 134.375 218.359375 C 134.375 223.457031 137.933594 218.359375 134.375 218.359375 M 157.890625 261.191406 C 159.214844 261.191406 159.570312 262.671875 159.570312 263.710938 C 159.570312 263.710938 162.507812 267.070312 162.507812 267.070312 C 162.507812 267.070312 165.867188 264.550781 165.867188 264.550781 C 167.097656 263.9375 168.753906 264.367188 170.070312 263.710938 C 173.148438 262.171875 173.480469 266.203125 176.789062 264.550781 C 176.789062 264.550781 177.207031 260.773438 177.207031 260.773438 C 178.328125 258.53125 179.492188 256.203125 180.566406 254.054688 C 181.074219 253.039062 187.285156 249.9375 187.285156 248.171875 C 187.285156 248.171875 185.605469 245.65625 185.605469 245.65625 C 185.605469 245.65625 189.804688 243.132812 189.804688 243.132812 C 191.105469 240.53125 193.9375 222.84375 192.324219 219.617188 C 189.476562 213.925781 188.964844 214.882812 188.964844 209.539062 C 188.964844 209.539062 185.605469 207.441406 185.605469 207.441406 C 185.605469 207.441406 183.925781 207.441406 183.925781 207.441406 C 183.925781 207.441406 181.828125 209.121094 181.828125 209.121094 C 181.828125 209.121094 181.40625 205.34375 181.40625 205.34375 C 183.304688 201.546875 182.046875 196.503906 183.925781 192.742188 C 184.777344 191.039062 182.613281 179.726562 184.765625 179.726562 C 184.765625 179.726562 182.246094 173.847656 182.246094 173.847656 C 182.246094 173.847656 182.246094 171.328125 182.246094 171.328125 C 182.246094 171.328125 178.886719 166.289062 178.886719 166.289062 C 178.886719 166.289062 174.6875 161.25 174.6875 161.25 C 174.6875 161.25 173.007812 159.570312 173.007812 159.570312 C 168.742188 159.570312 162.300781 150.332031 157.890625 150.332031 C 157.890625 150.332031 157.050781 148.652344 157.050781 148.652344 C 157.050781 148.652344 156.210938 148.652344 156.210938 148.652344 C 155.507812 148.652344 154.53125 150.273438 154.53125 148.652344 C 154.53125 148.652344 152.011719 148.652344 152.011719 148.652344 C 152.011719 148.652344 143.613281 148.652344 143.613281 148.652344 C 143.613281 148.652344 142.773438 148.652344 142.773438 148.652344 C 142.773438 148.652344 137.734375 149.492188 137.734375 149.492188 C 125.121094 149.492188 110.859375 166.226562 110.859375 178.886719 C 110.859375 178.886719 112.539062 179.726562 112.539062 179.726562 C 112.539062 185.265625 112.617188 189.539062 115.058594 194.421875 C 115.058594 194.421875 120.097656 197.78125 120.097656 197.78125 C 121.019531 199.625 119.136719 204.652344 121.359375 205.761719 C 123.953125 207.058594 123.003906 203.242188 123.875 203.242188 C 125.988281 203.242188 128.699219 214.160156 129.757812 214.160156 C 129.757812 214.160156 130.59375 212.480469 130.59375 212.480469 C 130.59375 212.480469 131.015625 214.578125 131.015625 214.578125 C 131.015625 214.578125 132.695312 215.421875 132.695312 215.421875 C 132.695312 215.421875 132.695312 224.65625 132.695312 224.65625 C 133.488281 226.242188 134.910156 223.207031 136.054688 225.5 C 136.65625 226.699219 135.449219 230.117188 134.375 230.117188 C 134.375 230.117188 136.054688 233.476562 136.054688 233.476562 C 138.773438 233.476562 138.574219 235.523438 138.574219 237.675781 C 138.574219 237.675781 138.574219 238.515625 138.574219 238.515625 C 138.574219 238.515625 140.253906 241.035156 140.253906 241.035156 C 140.253906 241.914062 139.855469 243.554688 141.09375 243.554688 C 141.09375 243.554688 142.773438 244.394531 142.773438 244.394531 C 142.773438 244.394531 143.613281 245.234375 143.613281 245.234375 C 143.613281 245.234375 144.453125 246.914062 144.453125 246.914062 C 147.679688 246.914062 144.453125 249.261719 144.453125 249.851562 C 144.453125 251.710938 148.914062 253.136719 149.914062 253.632812 C 149.914062 253.632812 151.171875 257.414062 151.171875 257.414062 C 152.269531 259.605469 157.890625 254.605469 157.890625 261.191406 Z M 157.890625 261.191406 "/>
<path style=" stroke:none;fill-rule:nonzero;fill:rgb(1.176471%,75.686276%,17.647059%);fill-opacity:1;" d="M 200.722656 162.089844 C 201.789062 162.089844 210.800781 164.039062 210.800781 162.089844 C 208.601562 162.089844 209.414062 159.570312 207.441406 159.570312 C 206.402344 159.570312 203.242188 160.109375 203.242188 158.730469 C 201.804688 158.730469 200.722656 160.890625 200.722656 162.089844 Z M 200.722656 162.089844 "/>
<path style=" stroke:none;fill-rule:nonzero;fill:rgb(1.176471%,75.686276%,17.647059%);fill-opacity:1;" d="M 53.75 177.207031 C 53.75 181.882812 55.523438 177.207031 53.75 177.207031 Z M 53.75 177.207031 "/>
<path style=" stroke:none;fill-rule:nonzero;fill:rgb(0.784314%,17.254902%,100%);fill-opacity:1;" d="M 184.765625 205.761719 L 183.925781 207.441406 C 183.925781 207.441406 181.828125 209.121094 181.828125 209.121094 C 181.828125 209.121094 181.40625 205.34375 181.40625 205.34375 C 183.304688 201.546875 182.046875 196.503906 183.925781 192.742188 C 184.777344 191.039062 182.613281 179.726562 184.765625 179.726562 C 184.765625 182.117188 186.445312 184.246094 186.445312 187.285156 C 186.445312 193.972656 184.765625 199.632812 184.765625 205.761719 Z M 184.765625 205.761719 "/>
<path style=" stroke:none;fill-rule:nonzero;fill:rgb(1.176471%,75.686276%,17.647059%);fill-opacity:1;" d="M 199.882812 204.921875 L 209.960938 204.921875 C 209.960938 204.921875 210.800781 204.082031 210.800781 204.082031 C 210.800781 202.378906 211.800781 202.503906 212.480469 201.140625 C 213.15625 199.792969 210.886719 189.804688 216.679688 189.804688 C 216.679688 189.804688 215 187.703125 215 187.703125 C 210.367188 178.441406 194.84375 182.484375 194.84375 188.964844 C 194.84375 196.273438 199.882812 198.21875 199.882812 204.921875 Z M 199.882812 204.921875 "/>
<path style=" stroke:none;fill-rule:nonzero;fill:rgb(0.784314%,17.254902%,100%);fill-opacity:1;" d="M 224.238281 204.921875 L 226.757812 206.601562 C 228.617188 206.601562 226.757812 196.203125 226.757812 194.84375 C 226.757812 194.84375 226.757812 189.804688 226.757812 189.804688 C 226.757812 189.804688 225.917969 184.765625 225.917969 184.765625 C 225.917969 184.765625 224.65625 182.246094 224.65625 182.246094 C 222.996094 182.246094 224.230469 186.445312 223.398438 186.445312 C 223.398438 191.5 225.078125 196.839844 225.078125 202.402344 C 225.078125 202.402344 225.078125 203.242188 225.078125 203.242188 C 225.078125 203.242188 224.238281 204.921875 224.238281 204.921875 Z M 224.238281 204.921875 "/>
<path style=" stroke:none;fill-rule:nonzero;fill:rgb(100%,3.137255%,0%);fill-opacity:1;" d="M 194.84375 188.964844 C 194.84375 196.273438 199.882812 198.21875 199.882812 204.921875 C 199.882812 207.121094 201.996094 211.195312 200.722656 213.742188 C 197.539062 220.109375 187.34375 207.140625 186.445312 205.34375 C 185.125 202.703125 187.1875 199.65625 188.125 197.78125 C 188.578125 196.875 187.285156 189.246094 187.285156 187.285156 C 187.285156 186.324219 186.800781 183.925781 188.125 183.925781 C 188.777344 183.925781 190.558594 188.964844 194.84375 188.964844 Z M 194.84375 188.964844 "/>
<path style=" stroke:none;fill-rule:nonzero;fill:rgb(100%,3.137255%,0%);fill-opacity:1;" d="M 210.800781 204.921875 L 212.480469 207.023438 C 212.480469 208.484375 208.863281 209.03125 209.960938 211.21875 L 212.480469 212.0625 C 212.480469 212.625 210.515625 214.226562 212.0625 215 C 215.566406 216.75 224.238281 207.246094 224.238281 204.921875 C 224.238281 204.921875 225.078125 203.242188 225.078125 203.242188 C 224.082031 203.242188 224.082031 202.402344 225.078125 202.402344 C 225.078125 196.839844 223.398438 191.5 223.398438 186.445312 C 223.398438 186.445312 221.71875 184.765625 221.71875 184.765625 C 221.71875 186.46875 218.394531 189.804688 216.679688 189.804688 C 210.886719 189.804688 213.15625 199.792969 212.480469 201.140625 C 211.800781 202.503906 210.800781 202.378906 210.800781 204.082031 C 210.800781 204.082031 210.800781 204.921875 210.800781 204.921875 Z M 210.800781 204.921875 "/>
<path style=" stroke:none;fill-rule:nonzero;fill:rgb(88.235295%,94.117647%,5.098039%);fill-opacity:1;" d="M 249.433594 285.546875 C 250.664062 285.546875 252.402344 285.546875 253.632812 285.546875 C 261.988281 285.546875 258.074219 281.4375 263.289062 278.828125 C 267.101562 276.921875 267.6875 280.507812 270.851562 280.507812 C 275.40625 280.507812 275.46875 269.949219 275.46875 267.070312 C 273.230469 267.070312 273.574219 262.863281 272.949219 261.609375 C 271.613281 258.941406 270.195312 261.144531 268.75 258.25 C 268.75 258.25 269.589844 255.3125 269.589844 255.3125 C 269.589844 255.3125 266.230469 254.472656 266.230469 254.472656 C 266.230469 256.6875 262.894531 255.683594 262.03125 257.414062 C 261.398438 258.675781 258.878906 264.550781 256.570312 264.550781 C 254.457031 264.550781 252.839844 260.539062 249.851562 262.03125 C 247.9375 262.988281 249.457031 265.589844 248.171875 266.230469 C 243.78125 268.425781 241.90625 263.515625 238.9375 262.03125 C 236.660156 260.894531 236.335938 264.550781 235.578125 264.550781 C 232.777344 264.550781 232.445312 259.546875 231.796875 258.25 C 231.4375 257.53125 230.164062 259.1875 229.277344 257.414062 C 229.277344 257.414062 229.277344 254.054688 229.277344 254.054688 C 228.773438 253.039062 223.398438 251.710938 223.398438 249.851562 C 223.398438 246.179688 220.039062 245.140625 220.039062 244.8125 C 220.039062 239.960938 219.535156 237.082031 216.679688 231.375 C 215.066406 228.152344 220.039062 224.269531 220.039062 222.140625 C 220.039062 221.15625 216.523438 222.453125 217.519531 220.460938 C 219.570312 216.355469 226.757812 208.972656 226.757812 206.601562 C 226.757812 206.601562 224.238281 204.921875 224.238281 204.921875 C 224.238281 207.246094 215.566406 216.75 212.0625 215 C 210.515625 214.226562 212.480469 212.625 212.480469 212.0625 C 212.480469 212.0625 209.960938 211.21875 209.960938 211.21875 C 208.863281 209.03125 212.480469 208.484375 212.480469 207.023438 C 212.480469 207.023438 210.800781 204.921875 210.800781 204.921875 C 210.800781 204.921875 209.960938 204.921875 209.960938 204.921875 C 209.960938 204.921875 199.882812 204.921875 199.882812 204.921875 C 199.882812 207.121094 201.996094 211.195312 200.722656 213.742188 C 197.539062 220.109375 187.34375 207.140625 186.445312 205.34375 C 185.125 202.703125 187.1875 199.65625 188.125 197.78125 C 188.578125 196.875 187.285156 189.246094 187.285156 187.285156 C 187.285156 187.285156 186.445312 187.285156 186.445312 187.285156 C 186.445312 193.972656 184.765625 199.632812 184.765625 205.761719 C 184.765625 205.761719 185.605469 207.441406 185.605469 207.441406 C 185.605469 207.441406 188.964844 209.539062 188.964844 209.539062 C 188.964844 214.882812 189.476562 213.925781 192.324219 219.617188 C 193.9375 222.84375 191.105469 240.53125 189.804688 243.132812 C 189.804688 243.132812 185.605469 245.65625 185.605469 245.65625 C 185.605469 245.65625 187.285156 248.171875 187.285156 248.171875 C 187.285156 249.9375 181.074219 253.039062 180.566406 254.054688 C 179.492188 256.203125 178.328125 258.53125 177.207031 260.773438 C 177.207031 260.773438 176.789062 264.550781 176.789062 264.550781 C 173.480469 266.203125 173.148438 262.171875 170.070312 263.710938 C 168.753906 264.367188 167.097656 263.9375 165.867188 264.550781 C 165.867188 264.550781 162.507812 267.070312 162.507812 267.070312 C 162.507812 267.070312 159.570312 263.710938 159.570312 263.710938 C 157.644531 263.710938 157.890625 262.875 157.890625 261.191406 C 157.890625 254.605469 152.269531 259.605469 151.171875 257.414062 C 151.171875 257.414062 149.914062 253.632812 149.914062 253.632812 C 148.914062 253.136719 144.453125 251.710938 144.453125 249.851562 C 144.453125 249.261719 147.679688 246.914062 144.453125 246.914062 C 144.453125 246.914062 143.613281 246.914062 143.613281 246.914062 C 143.613281 249.339844 140.472656 251.933594 139.414062 254.054688 C 139.414062 254.054688 139.414062 257.414062 139.414062 257.414062 C 139.414062 257.414062 136.054688 259.09375 136.054688 259.09375 C 136.054688 259.09375 136.894531 264.132812 136.894531 264.132812 C 136.027344 265.863281 135.167969 267.585938 134.375 269.171875 C 134.375 269.171875 130.175781 272.949219 130.175781 272.949219 C 130.175781 280.320312 140.609375 279.636719 144.03125 281.347656 C 150.566406 284.613281 169.859375 288.589844 177.625 284.707031 C 183.09375 281.972656 186.453125 274.191406 188.964844 269.171875 C 188.964844 269.171875 198.203125 259.929688 198.203125 259.929688 C 198.203125 259.929688 202.402344 249.015625 202.402344 249.015625 C 202.726562 248.367188 202.542969 245.09375 204.5 246.074219 C 207.832031 247.738281 210.785156 259.902344 212.480469 263.289062 C 214.375 267.082031 222.558594 268.359375 222.558594 272.109375 C 222.558594 272.109375 222.558594 272.949219 222.558594 272.949219 C 222.558594 272.949219 223.398438 273.789062 223.398438 273.789062 C 223.398438 273.789062 224.238281 276.308594 224.238281 276.308594 C 224.238281 276.308594 231.375 282.1875 231.375 282.1875 C 236.914062 284.957031 242.679688 285.546875 249.433594 285.546875 Z M 249.433594 285.546875 "/>
<path style=" stroke:none;fill-rule:nonzero;fill:rgb(88.235295%,94.117647%,5.098039%);fill-opacity:1;" d="M 225.078125 202.402344 C 224.082031 202.402344 224.082031 203.242188 225.078125 203.242188 C 225.078125 203.242188 225.078125 202.402344 225.078125 202.402344 Z M 225.078125 202.402344 "/>
<path style=" stroke:none;fill-rule:nonzero;fill:rgb(100%,43.137255%,0%);fill-opacity:1;" d="M 134.375 218.359375 C 134.375 223.457031 137.933594 218.359375 134.375 218.359375 Z M 134.375 218.359375 "/>
<path style=" stroke:none;fill-rule:nonzero;fill:rgb(50.588238%,30.980393%,100%);fill-opacity:1;" d="M 132.695312 225.917969 C 132.695312 230.5 136.5 225.917969 132.695312 225.917969 Z M 132.695312 225.917969 "/>
<path style=" stroke:none;fill-rule:nonzero;fill:rgb(48.627451%,98.823529%,0%);fill-opacity:1;" d="M 165.449219 225.917969 C 165.449219 227.035156 159.046875 229.902344 157.890625 232.21875 C 157.390625 233.214844 153.851562 239.222656 155.789062 240.195312 C 157.046875 240.824219 158.269531 239.792969 159.148438 239.355469 L 164.1875 239.355469 C 168.515625 237.191406 172.316406 225.917969 165.449219 225.917969 Z M 165.449219 225.917969 "/>
<path style=" stroke:none;fill-rule:nonzero;fill:rgb(48.627451%,98.823529%,0%);fill-opacity:1;" d="M 244.394531 226.757812 C 244.394531 229.5625 241.003906 228.796875 242.714844 232.21875 L 244.8125 236.835938 C 256.609375 248.628906 259.84375 226.757812 244.394531 226.757812 Z M 244.394531 226.757812 "/>
<path style=" stroke:none;fill-rule:nonzero;fill:rgb(100%,52.941179%,0%);fill-opacity:1;" d="M 269.589844 255.3125 L 268.75 258.25 C 270.195312 261.144531 271.613281 258.941406 272.949219 261.609375 C 273.574219 262.863281 273.230469 267.070312 275.46875 267.070312 C 275.46875 267.070312 277.570312 266.230469 277.570312 266.230469 C 277.570312 266.230469 280.929688 271.269531 280.929688 271.269531 C 282.390625 272 286.945312 272.949219 288.484375 272.949219 C 289.027344 272.949219 292.875 266.554688 295.203125 265.390625 C 298.894531 263.546875 302.117188 261.933594 305.28125 260.351562 C 305.28125 260.351562 306.960938 256.992188 306.960938 256.992188 C 311.367188 254.789062 322.5 250.203125 322.5 243.554688 C 322.5 238.8125 313.777344 240.242188 310.320312 238.515625 C 310.320312 238.515625 306.960938 239.355469 306.960938 239.355469 C 306.960938 239.355469 306.125 236.835938 306.125 236.835938 C 301.507812 234.527344 302.582031 239.265625 301.085938 238.515625 C 295.671875 235.808594 302.039062 235.996094 293.523438 235.996094 C 291.972656 235.996094 289.847656 232.375 287.648438 233.476562 C 282.554688 236.023438 278.871094 236.835938 273.789062 236.835938 C 273.789062 236.835938 272.949219 237.675781 272.949219 237.675781 C 272.949219 238.554688 273.347656 240.195312 272.109375 240.195312 C 272.109375 240.195312 270.429688 241.875 270.429688 241.875 C 270.429688 241.875 269.589844 242.714844 269.589844 242.714844 C 269.589844 247.117188 269.589844 250.816406 269.589844 255.3125 Z M 269.589844 255.3125 "/>
<path style=" stroke:none;fill-rule:nonzero;fill:rgb(100%,52.941179%,0%);fill-opacity:1;" d="M 143.613281 246.914062 C 143.613281 249.339844 140.472656 251.933594 139.414062 254.054688 L 139.414062 257.414062 L 136.054688 259.09375 L 136.894531 264.132812 C 136.027344 265.863281 135.167969 267.585938 134.375 269.171875 L 130.175781 272.949219 C 130.175781 272.949219 127.234375 273.789062 127.234375 273.789062 C 127.234375 273.789062 126.398438 271.269531 126.398438 271.269531 C 124.582031 270.363281 124.453125 271.269531 123.039062 271.269531 C 123.039062 271.269531 119.679688 267.910156 119.679688 267.910156 C 118.128906 267.136719 116.113281 266.96875 114.640625 266.230469 C 112.621094 265.222656 111.066406 263.183594 108.757812 262.03125 C 108.757812 262.03125 107.078125 259.511719 107.078125 259.511719 C 104.140625 259.511719 106.582031 259.261719 103.71875 257.832031 C 103.71875 257.832031 101.203125 258.671875 101.203125 258.671875 C 94.824219 258.671875 91.34375 251.140625 89.023438 246.492188 C 89.023438 246.492188 86.503906 245.65625 86.503906 245.65625 C 86.503906 245.65625 89.863281 241.875 89.863281 241.875 C 90.566406 241.875 102.324219 240.472656 102.882812 240.195312 C 103.253906 240.007812 104.964844 237.054688 107.078125 235.996094 C 107.699219 235.6875 115.796875 240.195312 117.15625 240.195312 C 117.15625 240.195312 118.835938 236.835938 118.835938 236.835938 C 118.835938 236.835938 121.359375 237.675781 121.359375 237.675781 C 123.71875 237.675781 131.820312 236.1875 134.796875 237.675781 C 134.796875 237.675781 138.574219 240.195312 138.574219 240.195312 C 138.574219 240.195312 140.253906 241.035156 140.253906 241.035156 C 140.253906 241.914062 139.855469 243.554688 141.09375 243.554688 C 141.09375 243.554688 142.773438 244.394531 142.773438 244.394531 C 142.773438 244.394531 143.613281 245.234375 143.613281 245.234375 C 143.613281 245.234375 143.613281 246.914062 143.613281 246.914062 Z M 143.613281 246.914062 "/>
<path style=" stroke:none;fill-rule:nonzero;fill:rgb(1.176471%,75.686276%,17.647059%);fill-opacity:1;" d="M 272.949219 237.675781 C 271.710938 237.675781 272.109375 239.316406 272.109375 240.195312 C 273.347656 240.195312 272.949219 238.554688 272.949219 237.675781 Z M 272.949219 237.675781 "/>
<path style=" stroke:none;fill-rule:nonzero;fill:rgb(50.588238%,30.980393%,100%);fill-opacity:1;" d="M 270.429688 241.875 L 269.589844 242.714844 C 269.589844 241.828125 270.429688 240.171875 270.429688 241.875 Z M 270.429688 241.875 "/>
<path style=" stroke:none;fill-rule:nonzero;fill:rgb(98.039216%,50.196081%,44.705883%);fill-opacity:1;" d="M 57.109375 256.992188 C 57.109375 259.304688 53.398438 262.484375 57.53125 264.550781 C 60.050781 265.8125 70.546875 264.460938 70.546875 260.773438 C 70.546875 255.96875 59.945312 256.992188 57.109375 256.992188 Z M 57.109375 256.992188 "/>
<path style=" stroke:none;fill-rule:nonzero;fill:rgb(98.039216%,50.196081%,44.705883%);fill-opacity:1;" d="M 71.386719 262.871094 L 68.867188 266.648438 C 68.867188 271.019531 81.257812 272.003906 84.40625 270.429688 C 87.964844 268.648438 86.515625 262.871094 82.726562 262.871094 Z M 71.386719 262.871094 "/>
<path style=" stroke:none;fill-rule:nonzero;fill:rgb(14.901961%,49.411765%,100%);fill-opacity:1;" d="M 196.523438 269.589844 C 196.523438 269.667969 190.371094 275.597656 189.804688 276.726562 C 188.113281 280.109375 197.640625 282.679688 200.304688 281.347656 L 200.304688 279.667969 C 204.34375 275.628906 202.210938 269.589844 196.523438 269.589844 Z M 196.523438 269.589844 "/>
<path style=" stroke:none;fill-rule:nonzero;fill:rgb(14.901961%,49.411765%,100%);fill-opacity:1;" d="M 223.398438 273.789062 L 224.238281 276.308594 C 224.238281 283.949219 213.636719 283.242188 210.800781 277.570312 C 209.328125 274.625 213.210938 267.644531 217.101562 269.589844 C 220.175781 271.128906 219.578125 272.109375 222.558594 272.109375 C 222.558594 272.109375 222.558594 272.949219 222.558594 272.949219 C 222.558594 272.949219 223.398438 273.789062 223.398438 273.789062 Z M 223.398438 273.789062 "/>
<path style=" stroke:none;fill-rule:nonzero;fill:rgb(98.039216%,50.196081%,44.705883%);fill-opacity:1;" d="M 249.433594 285.546875 C 250.664062 285.546875 252.402344 285.546875 253.632812 285.546875 C 253.632812 297.214844 259.734375 278.851562 265.390625 290.164062 C 267.503906 294.386719 262.871094 299.894531 262.871094 301.921875 C 262.871094 301.921875 265.390625 304.445312 265.390625 304.445312 C 265.390625 304.445312 265.390625 314.523438 265.390625 314.523438 C 263.839844 317.621094 258.113281 320.890625 254.890625 322.5 C 253.308594 323.292969 254.25 325.882812 253.632812 327.117188 C 252.394531 329.597656 249.222656 329.113281 247.335938 330.058594 C 247.335938 330.058594 245.65625 332.578125 245.65625 332.578125 C 243.515625 333.644531 238.445312 335.378906 236.835938 332.15625 C 234.886719 328.261719 235.730469 320.089844 237.675781 316.203125 C 238.226562 315.09375 234.816406 311.84375 235.996094 309.484375 C 235.996094 309.484375 240.617188 305.703125 240.617188 305.703125 C 240.617188 305.703125 243.554688 306.125 243.554688 306.125 C 244.617188 303.996094 246.652344 298.484375 249.015625 297.304688 C 250.085938 296.769531 254.363281 297.101562 254.472656 296.882812 C 254.472656 296.882812 254.054688 293.105469 254.054688 293.105469 C 254.054688 293.105469 252.375 294.785156 252.375 294.785156 C 247.257812 297.34375 249.433594 286.453125 249.433594 285.546875 Z M 249.433594 285.546875 "/>
<path style=" stroke:none;fill-rule:nonzero;fill:rgb(98.039216%,50.196081%,44.705883%);fill-opacity:1;" d="M 157.890625 288.90625 C 157.890625 290.460938 151.722656 289.902344 150.332031 292.6875 L 149.492188 298.5625 L 152.851562 301.921875 L 149.914062 300.664062 C 149.84375 300.699219 145.449219 305.808594 145.292969 306.125 C 144.335938 308.035156 151.195312 309.53125 152.011719 311.164062 L 152.011719 316.203125 C 153.070312 318.320312 156.1875 315.3125 157.890625 318.71875 C 159.152344 321.246094 156.210938 323.058594 156.210938 324.601562 C 156.210938 330.605469 171.160156 335.390625 175.109375 333.417969 C 177.03125 332.457031 176.527344 330.996094 177.207031 329.640625 C 178.640625 326.769531 184.191406 330.167969 179.726562 321.242188 C 178.710938 319.210938 184.324219 315.351562 175.109375 310.742188 C 171.859375 309.117188 167.734375 312.515625 164.1875 310.742188 C 163.019531 310.15625 163.222656 306.058594 160.828125 304.863281 C 159.53125 304.214844 156.109375 303.398438 155.371094 301.921875 L 159.992188 297.304688 C 160.535156 297.304688 161.375 299.152344 162.089844 297.726562 C 163.851562 294.199219 161.671875 288.90625 157.890625 288.90625 Z M 157.890625 288.90625 "/>
</g>
</svg>
