<?xml version="1.0" encoding="UTF-8"?>
<svg xmlns="http://www.w3.org/2000/svg" xmlns:xlink="http://www.w3.org/1999/xlink" width="430px" height="430px" viewBox="0 0 430 430" version="1.1">
<g id="surface1">
<rect x="0" y="0" width="430" height="430" style="fill:rgb(0%,0%,0%);fill-opacity:1;stroke:none;"/>
<path style=" stroke:none;fill-rule:evenodd;fill:rgb(52.549022%,100%,35.294119%);fill-opacity:1;" d="M 201.5625 313.261719 C 201.5625 314.457031 199.902344 316.238281 200.722656 317.882812 C 200.894531 318.226562 205.753906 324.394531 207.859375 323.339844 C 210.359375 322.089844 208.28125 320.847656 208.28125 319.5625 C 208.28125 318.566406 209.886719 316.894531 209.121094 315.359375 C 208.902344 314.925781 203.007812 313.261719 201.5625 313.261719 M 201.5625 280.507812 C 201.5625 281.636719 195.453125 281.671875 194.421875 282.1875 C 190.441406 284.179688 185.832031 285.222656 181.828125 287.226562 C 173.023438 291.628906 171.503906 300.734375 167.128906 309.484375 L 167.128906 316.203125 C 161.347656 327.761719 169.175781 345.148438 179.304688 350.214844 L 180.984375 352.734375 C 184.335938 354.410156 194.335938 359.078125 198.625 356.933594 C 199.382812 356.554688 203.875 354.410156 204.082031 353.992188 L 206.179688 350.214844 L 212.0625 356.09375 C 219.242188 359.683594 236.171875 350.285156 239.355469 343.914062 C 241.21875 340.191406 243.683594 336.097656 245.234375 333 L 244.394531 326.28125 C 245.988281 323.085938 247.003906 312.183594 245.234375 308.640625 L 242.714844 306.125 L 242.714844 301.085938 C 241.71875 299.089844 239.230469 297.472656 238.515625 296.046875 C 237.492188 294 235.148438 287.433594 233.054688 286.386719 C 224.292969 282.003906 212.027344 280.507812 201.5625 280.507812 Z M 201.5625 280.507812 "/>
<path style=" stroke:none;fill-rule:nonzero;fill:rgb(92.156863%,34.117648%,100%);fill-opacity:1;" d="M 201.5625 313.261719 C 201.5625 314.457031 199.902344 316.238281 200.722656 317.882812 C 200.894531 318.226562 205.753906 324.394531 207.859375 323.339844 C 210.359375 322.089844 208.28125 320.847656 208.28125 319.5625 C 208.28125 318.566406 209.886719 316.894531 209.121094 315.359375 C 208.902344 314.925781 203.007812 313.261719 201.5625 313.261719 Z M 201.5625 313.261719 "/>
</g>
</svg>
