<?xml version="1.0" encoding="UTF-8"?>
<svg xmlns="http://www.w3.org/2000/svg" xmlns:xlink="http://www.w3.org/1999/xlink" width="430px" height="430px" viewBox="0 0 430 430" version="1.1">
<g id="surface1">
<rect x="0" y="0" width="430" height="430" style="fill:rgb(0%,0%,0%);fill-opacity:1;stroke:none;"/>
<path style=" stroke:none;fill-rule:nonzero;fill:rgb(100%,89.019608%,0%);fill-opacity:1;" d="M 209.960938 122.617188 C 215.589844 122.617188 221.820312 119.101562 227.179688 121.777344 L 232.21875 126.816406 C 242.714844 132.066406 241.84375 150.8125 236.835938 160.828125 L 237.675781 167.96875 C 239.789062 167.96875 237.675781 163.757812 237.675781 162.929688 C 237.675781 161.132812 239.375 156.59375 240.195312 154.953125 C 240.195312 154.953125 242.714844 153.273438 242.714844 153.273438 C 242.714844 153.273438 243.554688 147.390625 243.554688 147.390625 C 244.558594 145.382812 246.417969 147.542969 247.753906 144.875 C 249.179688 142.019531 244.394531 140.261719 244.394531 139.835938 C 244.394531 138.757812 245.589844 133.824219 244.394531 131.4375 C 243.6875 130.023438 233.523438 120.75 232.21875 120.097656 C 232.21875 120.097656 229.695312 120.9375 229.695312 120.9375 C 227.9375 120.9375 220.519531 116.289062 216.257812 118.417969 C 216.257812 118.417969 214.578125 120.9375 214.578125 120.9375 C 213.644531 121.40625 209.960938 121.28125 209.960938 122.617188 Z M 209.960938 122.617188 "/>
<path style=" stroke:none;fill-rule:nonzero;fill:rgb(100%,89.019608%,0%);fill-opacity:1;" d="M 204.921875 129.335938 C 204.921875 135.875 205.546875 142.761719 208.28125 148.234375 L 208.28125 154.953125 L 213.320312 162.507812 C 215.308594 166.484375 213.976562 176.90625 217.9375 178.886719 C 221.027344 180.433594 229.660156 190.664062 231.375 189.804688 L 235.996094 187.703125 L 235.15625 182.664062 C 236.199219 180.582031 236.835938 180.621094 236.835938 178.046875 C 236.835938 176.585938 236.1875 168.808594 237.675781 168.808594 C 237.675781 171.082031 237.40625 184.648438 237.675781 185.1875 C 237.675781 185.1875 239.355469 190.226562 239.355469 190.226562 C 238.609375 191.714844 232.183594 191.484375 231.375 191.484375 C 231.375 191.484375 228.859375 194.003906 228.859375 194.003906 C 228.859375 194.003906 226.335938 190.644531 226.335938 190.644531 C 224.082031 189.515625 219.804688 190.597656 218.359375 187.703125 C 218.359375 187.703125 217.9375 183.085938 217.9375 183.085938 C 217.9375 183.085938 212.0625 183.085938 212.0625 183.085938 C 209.5625 181.835938 211.640625 180.59375 211.640625 179.304688 C 211.640625 177.433594 208.652344 178.441406 207.859375 178.046875 C 207.859375 178.046875 206.601562 174.265625 206.601562 174.265625 C 204.074219 169.210938 208.335938 160.941406 205.761719 155.789062 C 205.761719 155.789062 204.5 150.332031 204.5 150.332031 C 204.046875 150.332031 202.402344 155.335938 202.402344 156.210938 C 202.402344 159.679688 205.257812 167.714844 203.242188 171.75 C 200.785156 176.660156 195.574219 176.167969 193.164062 180.984375 C 193.164062 180.984375 190.226562 186.445312 190.226562 186.445312 C 187.652344 187.730469 184.324219 187.714844 181.828125 188.964844 C 179.976562 189.890625 177.550781 195.644531 174.265625 194.003906 C 174.265625 194.003906 173.847656 189.382812 173.847656 189.382812 C 173.847656 189.382812 172.167969 189.382812 172.167969 189.382812 C 172.167969 189.382812 172.167969 184.34375 172.167969 184.34375 C 172.167969 184.34375 169.648438 182.664062 169.648438 182.664062 C 168.75 180.867188 173.132812 166.117188 171.328125 162.507812 C 170.683594 161.222656 167.574219 153.691406 165.867188 153.691406 C 164.277344 153.691406 164.730469 159.394531 162.929688 155.789062 C 162.59375 155.121094 162.929688 149.269531 162.929688 149.070312 C 162.929688 149.070312 160.410156 145.710938 160.410156 145.710938 C 160.410156 145.710938 162.929688 143.195312 162.929688 143.195312 C 162.929688 141.742188 160.605469 137.765625 161.25 136.476562 C 164.085938 130.800781 171.664062 124.757812 179.304688 120.9375 C 179.304688 120.9375 195.265625 120.9375 195.265625 120.9375 C 195.265625 120.9375 196.523438 122.617188 196.523438 122.617188 C 196.523438 123.753906 192.863281 122.257812 191.90625 121.777344 C 191.90625 121.777344 183.507812 122.617188 183.507812 122.617188 C 177.226562 125.757812 170.546875 132.15625 167.128906 138.992188 C 165.664062 141.921875 167.730469 146.914062 168.808594 149.070312 C 171.558594 154.570312 173.007812 171.515625 173.007812 178.46875 C 173.007812 178.46875 172.167969 180.984375 172.167969 180.984375 C 173.1875 183.027344 175.152344 191.882812 179.304688 189.804688 C 186.078125 186.417969 191.484375 174.519531 191.484375 167.546875 C 191.484375 164.746094 200.066406 152.066406 201.5625 149.070312 C 204.253906 143.6875 203.242188 134.925781 203.242188 128.496094 C 203.242188 128.496094 204.921875 129.335938 204.921875 129.335938 Z M 204.921875 129.335938 "/>
<path style=" stroke:none;fill-rule:nonzero;fill:rgb(100%,52.941179%,0%);fill-opacity:1;" d="M 237.675781 167.96875 L 237.675781 168.808594 C 236.1875 168.808594 236.835938 176.585938 236.835938 178.046875 C 236.835938 180.621094 236.199219 180.582031 235.15625 182.664062 C 235.15625 182.664062 235.996094 187.703125 235.996094 187.703125 C 235.996094 187.703125 231.375 189.804688 231.375 189.804688 C 229.660156 190.664062 221.027344 180.433594 217.9375 178.886719 C 213.976562 176.90625 215.308594 166.484375 213.320312 162.507812 C 213.320312 162.507812 208.28125 154.953125 208.28125 154.953125 C 208.28125 154.953125 208.28125 148.234375 208.28125 148.234375 C 205.546875 142.761719 204.921875 135.875 204.921875 129.335938 C 204.921875 126.949219 207.035156 122.617188 209.960938 122.617188 C 215.589844 122.617188 221.820312 119.101562 227.179688 121.777344 C 227.179688 121.777344 232.21875 126.816406 232.21875 126.816406 C 242.714844 132.066406 241.84375 150.8125 236.835938 160.828125 C 236.835938 160.828125 237.675781 167.96875 237.675781 167.96875 Z M 237.675781 167.96875 "/>
<path style=" stroke:none;fill-rule:nonzero;fill:rgb(100%,52.941179%,0%);fill-opacity:1;" d="M 196.523438 122.617188 C 200.652344 122.617188 203.242188 124.117188 203.242188 128.496094 C 203.242188 134.925781 204.253906 143.6875 201.5625 149.070312 C 200.066406 152.066406 191.484375 164.746094 191.484375 167.546875 C 191.484375 174.519531 186.078125 186.417969 179.304688 189.804688 C 175.152344 191.882812 173.1875 183.027344 172.167969 180.984375 C 172.167969 180.984375 173.007812 178.46875 173.007812 178.46875 C 173.007812 171.515625 171.558594 154.570312 168.808594 149.070312 C 167.730469 146.914062 165.664062 141.921875 167.128906 138.992188 C 170.546875 132.15625 177.226562 125.757812 183.507812 122.617188 C 183.507812 122.617188 191.90625 121.777344 191.90625 121.777344 C 192.863281 122.257812 196.523438 123.753906 196.523438 122.617188 Z M 196.523438 122.617188 "/>
<path style=" stroke:none;fill-rule:nonzero;fill:rgb(98.039216%,50.196081%,44.705883%);fill-opacity:1;" d="M 141.09375 298.984375 C 141.09375 299.542969 135.4375 301.699219 134.375 302.765625 C 133.007812 304.132812 136.441406 306.1875 135.214844 308.640625 C 133.949219 311.171875 128.507812 311.136719 128.496094 311.164062 L 126.816406 319.5625 L 128.496094 322.078125 L 126.816406 324.601562 C 125.171875 327.886719 131.929688 332.40625 133.953125 333.417969 C 134.617188 333.75 143.773438 331.867188 144.03125 331.738281 C 145.046875 331.230469 151.171875 333.871094 151.171875 331.320312 C 151.171875 326.835938 153.832031 327.402344 152.851562 325.4375 L 151.171875 323.757812 C 151.171875 322.21875 154.113281 320.40625 152.851562 317.882812 C 152.492188 317.160156 151.21875 318.816406 150.332031 317.039062 L 150.332031 311.164062 L 146.972656 309.484375 C 144.738281 305.011719 149.382812 298.984375 141.09375 298.984375 Z M 141.09375 298.984375 "/>
<path style=" stroke:none;fill-rule:evenodd;fill:rgb(98.039216%,50.196081%,44.705883%);fill-opacity:1;" d="M 271.269531 316.621094 C 271.269531 318.242188 272.890625 316.621094 271.269531 316.621094 M 274.628906 301.503906 L 269.589844 305.28125 L 268.328125 311.582031 C 266.144531 312.671875 262.917969 309.386719 260.351562 314.523438 C 259.027344 317.167969 262.03125 319.421875 262.03125 321.242188 C 262.03125 323.058594 259.027344 325.3125 260.351562 327.960938 C 264.558594 336.375 267.511719 330.046875 270.851562 328.378906 C 271.527344 328.039062 275.589844 330.058594 277.148438 330.058594 L 282.609375 327.539062 C 284.324219 327.539062 284.726562 330.898438 285.125 330.898438 L 285.546875 317.882812 L 283.027344 317.882812 L 282.609375 320.820312 L 279.667969 317.039062 L 282.1875 313.679688 C 285.113281 307.828125 280.097656 301.503906 274.628906 301.503906 Z M 274.628906 301.503906 "/>
</g>
</svg>
