<?xml version="1.0" encoding="UTF-8"?>
<svg xmlns="http://www.w3.org/2000/svg" xmlns:xlink="http://www.w3.org/1999/xlink" width="430px" height="430px" viewBox="0 0 430 430" version="1.1">
<g id="surface1">
<rect x="0" y="0" width="430" height="430" style="fill:rgb(0%,0%,0%);fill-opacity:1;stroke:none;"/>
<path style=" stroke:none;fill-rule:nonzero;fill:rgb(80.784315%,82.745099%,2.745098%);fill-opacity:1;" d="M 218.359375 157.890625 C 220.644531 157.890625 221.34375 157.890625 223.398438 157.890625 C 223.398438 152.328125 240.386719 146.859375 245.65625 149.492188 C 246.25 149.789062 250.253906 152.390625 250.273438 152.429688 C 250.273438 152.429688 252.792969 157.050781 252.792969 157.050781 C 256.480469 157.050781 268.59375 162.796875 271.6875 161.25 C 278.773438 157.707031 274.664062 149.839844 277.148438 144.875 C 279.089844 140.992188 272.839844 133.003906 269.589844 129.757812 C 261.515625 121.679688 255.234375 121.109375 246.492188 116.738281 C 244.101562 115.539062 240.015625 117.578125 238.09375 117.578125 C 238.09375 117.578125 235.578125 116.738281 235.578125 116.738281 C 221.65625 123.699219 219.476562 123.320312 211.640625 138.992188 C 208.660156 144.953125 209.941406 157.890625 218.359375 157.890625 Z M 218.359375 157.890625 "/>
<path style=" stroke:none;fill-rule:nonzero;fill:rgb(80.784315%,82.745099%,2.745098%);fill-opacity:1;" d="M 156.210938 155.371094 C 150.242188 155.371094 145.203125 161.835938 138.992188 158.730469 L 137.734375 154.109375 C 132.40625 143.453125 142.859375 137.144531 146.972656 128.914062 L 156.632812 123.457031 C 167.621094 117.960938 176.421875 116.972656 187.703125 122.617188 C 188.824219 123.175781 191.667969 123.402344 192.324219 124.71875 C 194.542969 129.160156 196.796875 133.664062 199.042969 138.15625 C 200.535156 141.140625 200.503906 149.511719 199.042969 152.429688 L 195.683594 156.210938 C 192.300781 156.210938 190.332031 152.851562 187.285156 152.851562 C 187.285156 144.542969 157.890625 144.714844 157.890625 154.53125 C 157.890625 154.53125 156.210938 155.371094 156.210938 155.371094 Z M 156.210938 155.371094 "/>
<path style=" stroke:none;fill-rule:nonzero;fill:rgb(5.882353%,42.745098%,90.196079%);fill-opacity:1;" d="M 187.285156 152.851562 C 183.234375 152.851562 183.585938 159.109375 180.984375 160.410156 C 175.40625 163.199219 157.890625 160.867188 157.890625 154.53125 C 157.890625 144.714844 187.285156 144.542969 187.285156 152.851562 Z M 187.285156 152.851562 "/>
<path style=" stroke:none;fill-rule:nonzero;fill:rgb(5.882353%,42.745098%,90.196079%);fill-opacity:1;" d="M 223.398438 157.890625 C 226.933594 157.890625 228.527344 164.023438 231.375 165.449219 C 233.820312 166.671875 248.742188 159.570312 252.792969 159.570312 C 252.792969 159.570312 252.792969 157.050781 252.792969 157.050781 C 252.792969 157.050781 250.273438 152.429688 250.273438 152.429688 C 250.253906 152.390625 246.25 149.789062 245.65625 149.492188 C 240.386719 146.859375 223.398438 152.328125 223.398438 157.890625 Z M 223.398438 157.890625 "/>
<path style=" stroke:none;fill-rule:nonzero;fill:rgb(100%,52.941179%,0%);fill-opacity:1;" d="M 202.402344 172.167969 C 202.402344 187.75 205.039062 204.269531 198.203125 217.9375 C 196.886719 220.570312 204.367188 226.824219 194.421875 231.796875 C 187.351562 235.332031 182.953125 229.277344 178.046875 229.277344 C 172.960938 229.277344 168.621094 221.113281 165.449219 217.9375 C 154.746094 207.234375 153.890625 204.058594 147.8125 191.90625 C 146.339844 188.957031 142.511719 181.507812 144.453125 177.625 C 144.453125 177.625 146.972656 170.070312 146.972656 170.070312 C 148.71875 166.570312 156.210938 158.9375 156.210938 155.371094 C 156.210938 155.371094 157.890625 154.53125 157.890625 154.53125 C 157.890625 160.867188 175.40625 163.199219 180.984375 160.410156 C 183.585938 159.109375 183.234375 152.851562 187.285156 152.851562 C 190.332031 152.851562 192.300781 156.210938 195.683594 156.210938 C 195.683594 156.210938 201.5625 161.671875 201.5625 161.671875 C 201.5625 161.671875 200.722656 166.710938 200.722656 166.710938 C 201.621094 168.507812 202.402344 169.972656 202.402344 172.167969 Z M 202.402344 172.167969 "/>
<path style=" stroke:none;fill-rule:nonzero;fill:rgb(100%,52.941179%,0%);fill-opacity:1;" d="M 214.160156 234.316406 C 217.78125 234.316406 221.636719 235.15625 225.078125 235.15625 C 239.214844 235.15625 256.621094 210.285156 262.03125 199.460938 C 264.230469 195.0625 264.652344 189.183594 267.070312 184.34375 C 267.75 182.984375 265.085938 180.375 264.550781 179.304688 C 262.703125 175.613281 258.207031 159.570312 252.792969 159.570312 C 248.742188 159.570312 233.820312 166.671875 231.375 165.449219 C 228.527344 164.023438 226.933594 157.890625 223.398438 157.890625 C 221.34375 157.890625 220.644531 157.890625 218.359375 157.890625 C 218.359375 159.703125 213.84375 159.78125 213.320312 160.828125 C 211.714844 164.042969 208.28125 169.289062 208.28125 173.007812 C 208.28125 180.511719 204.535156 202.046875 207.441406 207.859375 C 208.921875 210.820312 206.316406 219.890625 207.441406 222.140625 C 208.5625 224.375 212.480469 230.363281 212.480469 232.636719 C 212.480469 232.636719 214.160156 234.316406 214.160156 234.316406 Z M 214.160156 234.316406 "/>
<path style=" stroke:none;fill-rule:nonzero;fill:rgb(100%,89.019608%,0%);fill-opacity:1;" d="M 178.046875 229.277344 L 180.148438 230.957031 C 185.839844 233.804688 189.519531 236.347656 196.945312 232.636719 C 202.46875 229.875 200.894531 216.804688 202.820312 215.839844 C 205.53125 214.484375 204.46875 218.324219 205.34375 219.199219 C 207.773438 221.628906 207.058594 232.636719 212.480469 232.636719 C 212.480469 230.363281 208.5625 224.375 207.441406 222.140625 C 206.316406 219.890625 208.921875 210.820312 207.441406 207.859375 C 204.535156 202.046875 208.28125 180.511719 208.28125 173.007812 C 206.40625 173.007812 206.574219 176.144531 205.34375 175.527344 C 203.640625 174.675781 205.050781 172.167969 202.402344 172.167969 C 202.402344 187.75 205.039062 204.269531 198.203125 217.9375 C 196.886719 220.570312 204.367188 226.824219 194.421875 231.796875 C 187.351562 235.332031 182.953125 229.277344 178.046875 229.277344 Z M 178.046875 229.277344 "/>
<path style=" stroke:none;fill-rule:nonzero;fill:rgb(100%,89.019608%,0%);fill-opacity:1;" d="M 214.160156 234.316406 C 217.78125 234.316406 221.636719 235.15625 225.078125 235.15625 C 225.078125 240.789062 214.160156 237.480469 214.160156 234.316406 Z M 214.160156 234.316406 "/>
<path style=" stroke:none;fill-rule:nonzero;fill:rgb(98.039216%,50.196081%,44.705883%);fill-opacity:1;" d="M 156.210938 239.355469 C 156.210938 242.597656 158.859375 244.558594 160.410156 241.453125 L 158.3125 239.355469 C 156.707031 240.15625 157.792969 239.355469 156.210938 239.355469 Z M 156.210938 239.355469 "/>
<path style=" stroke:none;fill-rule:nonzero;fill:rgb(98.039216%,50.196081%,44.705883%);fill-opacity:1;" d="M 161.25 241.035156 C 161.25 244.179688 163.007812 241.035156 161.25 241.035156 Z M 161.25 241.035156 "/>
<path style=" stroke:none;fill-rule:nonzero;fill:rgb(18.82353%,85.490197%,0%);fill-opacity:1;" d="M 261.191406 241.875 C 261.191406 243.609375 258.375 242.234375 257.414062 242.714844 C 254.550781 244.144531 249.433594 248.3125 249.433594 251.53125 L 251.953125 252.375 C 254.699219 257.871094 273.296875 251.390625 269.589844 243.976562 L 265.8125 242.714844 C 264.085938 241.851562 262.730469 241.875 261.191406 241.875 Z M 261.191406 241.875 "/>
<path style=" stroke:none;fill-rule:nonzero;fill:rgb(18.82353%,85.490197%,0%);fill-opacity:1;" d="M 152.011719 246.914062 C 152.011719 248.203125 147.308594 249.683594 148.652344 252.375 C 151.246094 257.558594 162.648438 263.015625 166.289062 255.734375 L 169.648438 254.890625 L 167.96875 253.210938 L 169.648438 252.375 C 169.648438 247.367188 156.132812 246.914062 152.011719 246.914062 Z M 152.011719 246.914062 "/>
<path style=" stroke:none;fill-rule:nonzero;fill:rgb(98.039216%,50.196081%,44.705883%);fill-opacity:1;" d="M 256.992188 256.992188 L 256.152344 260.773438 C 258.210938 264.890625 264.054688 256.992188 256.992188 256.992188 Z M 256.992188 256.992188 "/>
<path style=" stroke:none;fill-rule:nonzero;fill:rgb(98.039216%,50.196081%,44.705883%);fill-opacity:1;" d="M 159.570312 259.511719 C 159.570312 262.65625 161.328125 259.511719 159.570312 259.511719 Z M 159.570312 259.511719 "/>
<path style=" stroke:none;fill-rule:nonzero;fill:rgb(98.039216%,50.196081%,44.705883%);fill-opacity:1;" d="M 161.25 260.351562 C 161.25 263.496094 163.007812 260.351562 161.25 260.351562 Z M 161.25 260.351562 "/>
<path style=" stroke:none;fill-rule:nonzero;fill:rgb(98.039216%,50.196081%,44.705883%);fill-opacity:1;" d="M 246.914062 309.902344 C 246.914062 312.820312 240.527344 310.785156 238.9375 311.582031 L 235.996094 315.359375 C 235.484375 316.382812 236.398438 330.441406 236.835938 331.320312 L 242.714844 333.835938 C 243.214844 334.839844 241.730469 339.296875 243.976562 339.296875 C 245.488281 339.296875 246.808594 335.675781 249.015625 336.777344 C 250.453125 337.496094 252.46875 340.363281 253.632812 338.039062 C 255.453125 334.398438 251.089844 329.859375 255.734375 327.539062 C 257.292969 326.757812 259.453125 328.917969 258.671875 330.476562 L 255.3125 332.15625 C 255.3125 332.867188 262.65625 334.574219 263.289062 334.257812 C 266.011719 332.898438 272.890625 329.578125 268.75 325.4375 L 265.390625 323.757812 C 263.640625 320.257812 261.09375 318.460938 257.414062 316.621094 C 255.644531 315.738281 255.167969 318.300781 254.054688 318.300781 L 253.632812 313.679688 C 252.445312 311.304688 249.777344 309.902344 246.914062 309.902344 Z M 246.914062 309.902344 "/>
<path style=" stroke:none;fill-rule:nonzero;fill:rgb(98.039216%,50.196081%,44.705883%);fill-opacity:1;" d="M 163.769531 313.261719 L 161.25 315.359375 C 160.496094 316.867188 160.011719 320.808594 158.3125 321.660156 C 156.03125 322.800781 151.746094 322.613281 150.332031 325.4375 L 150.332031 327.960938 C 149.359375 329.90625 142.707031 329.503906 145.292969 334.679688 C 146.515625 337.121094 149.75 336.859375 151.59375 335.9375 C 153.015625 335.226562 152.625 330.15625 154.109375 330.898438 L 155.789062 334.257812 C 161.535156 334.257812 155.46875 331.15625 163.351562 335.097656 C 165.316406 336.082031 167.402344 331.246094 170.070312 332.578125 C 173.507812 334.300781 173.871094 340.335938 179.304688 337.617188 C 185.4375 334.550781 178.046875 329.777344 178.046875 326.699219 C 178.046875 324.472656 180.773438 324.1875 181.40625 322.921875 C 182.742188 320.246094 175.339844 314.21875 173.429688 313.261719 L 170.90625 314.101562 Z M 163.769531 313.261719 "/>
</g>
</svg>
