<?xml version="1.0" encoding="UTF-8"?>
<svg xmlns="http://www.w3.org/2000/svg" xmlns:xlink="http://www.w3.org/1999/xlink" width="430px" height="430px" viewBox="0 0 430 430" version="1.1">
<g id="surface1">
<rect x="0" y="0" width="430" height="430" style="fill:rgb(0%,0%,0%);fill-opacity:1;stroke:none;"/>
<path style=" stroke:none;fill-rule:nonzero;fill:rgb(100%,89.019608%,0%);fill-opacity:1;" d="M 214.160156 124.296875 L 224.65625 123.457031 C 241.449219 131.851562 235.15625 149.808594 235.15625 166.289062 C 235.863281 166.289062 236.835938 163.226562 236.835938 162.507812 C 236.835938 162.507812 237.675781 149.914062 237.675781 149.914062 C 240.769531 143.722656 246.558594 140.804688 241.875 131.4375 C 240.84375 129.371094 226.96875 122.511719 223.820312 120.9375 C 221.15625 119.605469 214.160156 121.851562 214.160156 124.296875 Z M 214.160156 124.296875 "/>
<path style=" stroke:none;fill-rule:nonzero;fill:rgb(100%,89.019608%,0%);fill-opacity:1;" d="M 193.164062 124.296875 C 186.351562 124.296875 174.984375 129.164062 172.167969 134.796875 C 171.289062 136.554688 171.445312 138.761719 170.488281 140.671875 L 172.167969 146.132812 C 172.167969 152.675781 173.847656 159.300781 173.847656 166.289062 C 169.339844 166.289062 170.789062 156.394531 169.648438 154.109375 C 168.875 152.566406 169.535156 150.527344 168.808594 149.070312 C 167.761719 146.980469 162.929688 144.496094 162.929688 141.515625 C 162.929688 136.542969 168.179688 132.695312 169.648438 129.757812 C 171.003906 127.046875 193.164062 118.507812 193.164062 124.296875 Z M 193.164062 124.296875 "/>
<path style=" stroke:none;fill-rule:nonzero;fill:rgb(100%,52.941179%,0%);fill-opacity:1;" d="M 235.15625 166.289062 L 235.15625 168.808594 C 233.777344 168.808594 234.316406 171.96875 234.316406 173.007812 C 234.316406 175.398438 231.523438 182.246094 229.695312 182.246094 C 217.90625 182.246094 218.148438 177.199219 213.320312 167.546875 C 213.320312 167.546875 212.480469 159.992188 212.480469 159.992188 C 205.453125 145.933594 205.761719 144.230469 205.761719 129.335938 C 205.761719 124.992188 214.160156 126.238281 214.160156 124.296875 C 214.160156 124.296875 224.65625 123.457031 224.65625 123.457031 C 241.449219 131.851562 235.15625 149.808594 235.15625 166.289062 Z M 235.15625 166.289062 "/>
<path style=" stroke:none;fill-rule:nonzero;fill:rgb(100%,52.941179%,0%);fill-opacity:1;" d="M 174.6875 176.367188 L 174.6875 178.886719 C 174.6875 178.886719 179.304688 183.085938 179.304688 183.085938 C 190.703125 177.386719 191.273438 167.132812 196.523438 156.632812 C 197.78125 154.117188 200.246094 153.386719 201.5625 150.75 C 203.480469 146.914062 201.304688 141.1875 203.242188 137.3125 C 205.277344 133.242188 200.722656 129 200.722656 125.976562 C 200.722656 125.976562 195.683594 125.136719 195.683594 125.136719 C 195.683594 125.136719 194.003906 124.296875 194.003906 124.296875 C 194.003906 124.296875 193.164062 124.296875 193.164062 124.296875 C 186.351562 124.296875 174.984375 129.164062 172.167969 134.796875 C 171.289062 136.554688 171.445312 138.761719 170.488281 140.671875 C 170.488281 140.671875 172.167969 146.132812 172.167969 146.132812 C 172.167969 152.675781 173.847656 159.300781 173.847656 166.289062 C 173.847656 166.289062 173.847656 170.488281 173.847656 170.488281 C 175.171875 170.488281 174.6875 172.886719 174.6875 173.847656 C 174.6875 173.847656 174.6875 175.527344 174.6875 175.527344 C 174.6875 175.527344 174.6875 176.367188 174.6875 176.367188 Z M 174.6875 176.367188 "/>
<path style=" stroke:none;fill-rule:nonzero;fill:rgb(100%,89.019608%,0%);fill-opacity:1;" d="M 194.003906 124.296875 L 195.683594 125.136719 C 195.683594 125.136719 194.003906 124.296875 194.003906 124.296875 Z M 194.003906 124.296875 "/>
<path style=" stroke:none;fill-rule:nonzero;fill:rgb(100%,89.019608%,0%);fill-opacity:1;" d="M 235.15625 168.808594 C 235.15625 172.710938 234.082031 188.453125 231.375 189.804688 C 230.117188 190.433594 227.367188 189.761719 226.757812 188.546875 C 224.769531 184.566406 223.476562 185.015625 219.617188 183.085938 L 217.9375 179.726562 C 215.335938 178.425781 212.203125 178.539062 209.539062 177.207031 C 206.136719 175.503906 206.601562 161.03125 206.601562 155.371094 C 206.601562 154.300781 207.089844 148.199219 204.5 149.492188 C 198 152.742188 205.644531 166.101562 203.242188 170.90625 L 201.140625 171.328125 L 193.585938 176.367188 C 190.957031 177.679688 191.359375 182.097656 189.382812 183.085938 L 185.1875 182.246094 C 177.367188 186.152344 174.6875 193.765625 174.6875 178.886719 C 174.6875 178.886719 179.304688 183.085938 179.304688 183.085938 C 190.703125 177.386719 191.273438 167.132812 196.523438 156.632812 C 197.78125 154.117188 200.246094 153.386719 201.5625 150.75 C 203.480469 146.914062 201.304688 141.1875 203.242188 137.3125 C 205.277344 133.242188 200.722656 129 200.722656 125.976562 C 203.082031 125.976562 202.867188 129.335938 205.761719 129.335938 C 205.761719 144.230469 205.453125 145.933594 212.480469 159.992188 C 212.480469 159.992188 213.320312 167.546875 213.320312 167.546875 C 218.148438 177.199219 217.90625 182.246094 229.695312 182.246094 C 231.523438 182.246094 234.316406 175.398438 234.316406 173.007812 C 234.316406 171.96875 233.777344 168.808594 235.15625 168.808594 Z M 235.15625 168.808594 "/>
<path style=" stroke:none;fill-rule:nonzero;fill:rgb(100%,89.019608%,0%);fill-opacity:1;" d="M 173.847656 170.488281 C 175.171875 170.488281 174.6875 172.886719 174.6875 173.847656 C 173.363281 173.847656 173.847656 171.449219 173.847656 170.488281 Z M 173.847656 170.488281 "/>
<path style=" stroke:none;fill-rule:nonzero;fill:rgb(100%,89.019608%,0%);fill-opacity:1;" d="M 174.6875 175.527344 C 173.691406 175.527344 173.691406 176.367188 174.6875 176.367188 C 174.6875 176.367188 174.6875 175.527344 174.6875 175.527344 Z M 174.6875 175.527344 "/>
<path style=" stroke:none;fill-rule:nonzero;fill:rgb(98.039216%,50.196081%,44.705883%);fill-opacity:1;" d="M 136.894531 297.304688 C 136.894531 298.007812 132.582031 300.472656 131.855469 301.921875 C 130.816406 304 134.894531 305.925781 133.535156 308.640625 C 132.234375 311.238281 128.375 309.726562 127.65625 311.164062 C 125.378906 315.714844 129.335938 320.820312 129.335938 321.242188 L 126.816406 327.960938 C 130.539062 335.40625 143.730469 333.988281 149.914062 330.898438 C 153.875 328.917969 146.972656 321.894531 146.972656 321.242188 L 146.972656 312 L 145.292969 310.320312 L 146.972656 306.960938 C 149.929688 301.046875 141.050781 297.304688 136.894531 297.304688 Z M 136.894531 297.304688 "/>
<path style=" stroke:none;fill-rule:evenodd;fill:rgb(98.039216%,50.196081%,44.705883%);fill-opacity:1;" d="M 282.1875 317.460938 L 281.347656 318.71875 C 281.347656 323.464844 285.007812 317.460938 282.1875 317.460938 M 272.949219 298.984375 C 272.949219 301.679688 266.859375 304.023438 268.75 307.804688 C 269.292969 308.886719 274.492188 317.460938 271.6875 317.460938 L 271.269531 314.523438 C 270.292969 312.570312 268.621094 311.726562 266.648438 310.742188 C 264.582031 309.707031 261.046875 313.132812 260.351562 314.523438 C 258.871094 317.480469 263.265625 321.289062 262.871094 322.078125 C 261.832031 324.15625 258.855469 326.644531 260.351562 329.640625 C 264.503906 337.941406 269.371094 330.058594 270.851562 330.058594 C 272.957031 330.058594 274.933594 334.316406 278.40625 332.578125 L 282.609375 327.539062 C 282.625 327.539062 284.855469 332.703125 285.546875 331.320312 L 285.546875 317.882812 C 285.523438 317.832031 283.070312 317.125 282.1875 315.359375 C 278.511719 308.011719 288.882812 298.984375 272.949219 298.984375 Z M 272.949219 298.984375 "/>
</g>
</svg>
