<?xml version="1.0" encoding="UTF-8"?>
<svg xmlns="http://www.w3.org/2000/svg" xmlns:xlink="http://www.w3.org/1999/xlink" width="430px" height="430px" viewBox="0 0 430 430" version="1.1">
<g id="surface1">
<rect x="0" y="0" width="430" height="430" style="fill:rgb(0%,0%,0%);fill-opacity:1;stroke:none;"/>
<path style=" stroke:none;fill-rule:evenodd;fill:rgb(52.549022%,100%,35.294119%);fill-opacity:1;" d="M 204.082031 253.632812 C 204.082031 253.902344 199.042969 254.9375 199.042969 258.25 L 201.140625 260.351562 C 208.003906 267.210938 218.800781 254.472656 207.859375 254.472656 L 204.082031 253.632812 M 175.527344 230.117188 C 175.527344 231.972656 171.179688 230.402344 170.070312 230.957031 C 167.492188 232.246094 161.195312 234.84375 159.570312 238.09375 L 155.371094 244.8125 C 154.019531 247.519531 157.050781 248.734375 157.050781 251.113281 C 157.050781 255.046875 158.464844 272.835938 159.570312 275.046875 C 165.128906 286.164062 175.367188 293.945312 188.546875 293.945312 C 190.40625 293.945312 193.835938 295.917969 196.101562 294.785156 C 198.613281 293.53125 202.984375 288.90625 205.761719 288.90625 C 205.9375 288.90625 210.617188 294.902344 212.0625 295.625 C 214.414062 296.800781 221.859375 295.765625 223.820312 294.785156 L 231.375 293.945312 C 240.515625 289.375 248.101562 281.070312 252.792969 271.6875 L 252.792969 266.648438 C 255.855469 260.527344 256.867188 249.605469 253.632812 243.132812 C 252.214844 240.296875 250.367188 241.640625 249.433594 239.773438 L 246.492188 235.996094 L 243.976562 235.996094 C 238.605469 233.3125 234.949219 227.910156 227.179688 231.796875 C 226.070312 232.347656 222.820312 228.9375 220.460938 230.117188 C 209.390625 235.652344 203.90625 236.121094 191.90625 230.117188 Z M 175.527344 230.117188 "/>
<path style=" stroke:none;fill-rule:evenodd;fill:rgb(92.156863%,34.117648%,100%);fill-opacity:1;" d="M 205.761719 257.832031 L 204.921875 259.09375 C 203.269531 262.394531 209.59375 257.832031 205.761719 257.832031 M 204.082031 253.632812 C 204.082031 253.902344 199.042969 254.9375 199.042969 258.25 L 201.140625 260.351562 C 208.003906 267.210938 218.800781 254.472656 207.859375 254.472656 Z M 204.082031 253.632812 "/>
<path style=" stroke:none;fill-rule:nonzero;fill:rgb(15.294118%,95.686275%,99.215686%);fill-opacity:1;" d="M 205.761719 257.832031 L 204.921875 259.09375 C 203.269531 262.394531 209.59375 257.832031 205.761719 257.832031 Z M 205.761719 257.832031 "/>
</g>
</svg>
