<?xml version="1.0" encoding="UTF-8"?>
<svg xmlns="http://www.w3.org/2000/svg" xmlns:xlink="http://www.w3.org/1999/xlink" width="430px" height="430px" viewBox="0 0 430 430" version="1.1">
<g id="surface1">
<rect x="0" y="0" width="430" height="430" style="fill:rgb(0%,0%,0%);fill-opacity:1;stroke:none;"/>
<path style=" stroke:none;fill-rule:nonzero;fill:rgb(98.039216%,50.196081%,44.705883%);fill-opacity:1;" d="M 151.171875 256.992188 C 151.171875 258.1875 150.867188 261.191406 149.492188 261.191406 C 143.242188 261.191406 144.855469 256.5625 140.671875 254.472656 C 124.003906 246.136719 143.277344 219.996094 154.953125 214.160156 C 156.742188 213.265625 172.167969 207.695312 172.167969 213.320312 C 172.167969 213.320312 172.167969 215.839844 172.167969 215.839844 C 172.167969 215.839844 171.328125 215 171.328125 215 C 171.328125 213.613281 169.648438 212.402344 169.648438 214.160156 C 163.253906 214.160156 159.367188 219.199219 154.53125 219.199219 C 154.53125 219.199219 153.691406 220.039062 153.691406 220.039062 C 150.472656 220.039062 146.488281 225.628906 145.292969 228.015625 C 143.375 231.855469 141.285156 235.191406 139.414062 238.9375 C 138.269531 241.226562 142.367188 254.898438 143.195312 255.3125 C 146.3125 256.871094 148.148438 256.992188 151.171875 256.992188 Z M 151.171875 256.992188 "/>
<path style=" stroke:none;fill-rule:nonzero;fill:rgb(60.000002%,32.549021%,100%);fill-opacity:1;" d="M 209.121094 271.269531 C 212.558594 271.269531 213.226562 275.699219 214.160156 277.570312 L 217.519531 279.667969 C 217.519531 279.667969 217.9375 282.1875 217.9375 282.1875 C 218.078125 282.253906 240.089844 281.191406 241.453125 280.507812 C 241.453125 280.507812 243.132812 277.988281 243.132812 277.988281 C 247.597656 275.757812 252.636719 274.519531 255.3125 269.171875 C 257.070312 265.65625 255.765625 262.03125 261.191406 262.03125 C 261.191406 262.03125 261.191406 258.671875 261.191406 258.671875 C 254.90625 258.671875 247.117188 235.136719 244.394531 229.695312 C 243.113281 227.132812 238.816406 230.300781 236.835938 226.335938 C 234.734375 222.136719 240.195312 220.285156 240.195312 217.519531 C 237.976562 217.519531 238.515625 215.988281 238.515625 214.160156 C 235.136719 214.160156 228.910156 210.355469 224.65625 212.480469 C 221.519531 214.050781 219.390625 217.519531 216.257812 217.519531 C 216.257812 217.519531 213.742188 215 213.742188 215 C 211.371094 215 211.789062 218.496094 210.382812 219.199219 C 206.804688 220.988281 202.871094 216.285156 200.304688 215 C 200.304688 215 194.421875 216.679688 194.421875 216.679688 C 190.503906 214.71875 186.96875 210.800781 182.664062 210.800781 C 181.070312 210.800781 176.882812 213.320312 172.167969 213.320312 C 172.167969 213.320312 172.167969 215.839844 172.167969 215.839844 C 179.816406 215.839844 178.363281 229.066406 176.367188 233.054688 C 175.175781 235.441406 172.707031 235.9375 170.90625 236.835938 C 170.203125 237.1875 159.378906 249.203125 157.46875 251.113281 C 157.46875 251.113281 151.171875 256.992188 151.171875 256.992188 C 151.171875 258.1875 150.867188 261.191406 149.492188 261.191406 C 149.492188 262.433594 152.40625 270.835938 153.273438 271.269531 C 153.273438 271.269531 157.46875 271.269531 157.46875 271.269531 C 161.527344 273.296875 164.425781 276.847656 168.390625 278.828125 C 171.441406 280.355469 191.164062 281.347656 195.683594 281.347656 C 195.683594 281.347656 194.003906 280.085938 194.003906 280.085938 C 194.003906 280.085938 196.523438 278.40625 196.523438 278.40625 C 196.523438 277.710938 200.695312 270.429688 203.242188 270.429688 C 203.242188 262.316406 204.695312 253.597656 201.5625 247.335938 C 200.941406 246.089844 202.527344 246.074219 203.242188 246.074219 C 203.242188 245.027344 201.171875 241.875 199.882812 241.875 C 199.882812 244.363281 197.363281 243.078125 197.363281 241.035156 C 195.417969 241.035156 198.066406 239.917969 196.945312 239.355469 C 196.515625 239.140625 194.003906 236.453125 194.003906 235.578125 C 194.003906 234.636719 199.535156 233.859375 200.304688 233.476562 C 201.898438 232.679688 203.613281 226.3125 206.179688 227.597656 C 206.179688 227.597656 208.703125 230.957031 208.703125 230.957031 C 211.355469 230.957031 215.875 236.34375 215.839844 236.414062 C 214.46875 239.15625 211.640625 241.0625 211.640625 244.394531 C 217.511719 244.394531 210.300781 250.855469 209.121094 253.210938 C 209.121094 253.210938 209.121094 271.269531 209.121094 271.269531 Z M 209.121094 271.269531 "/>
<path style=" stroke:none;fill-rule:nonzero;fill:rgb(98.039216%,50.196081%,44.705883%);fill-opacity:1;" d="M 261.191406 258.671875 L 261.191406 262.03125 C 261.191406 262.03125 264.132812 262.871094 264.132812 262.871094 C 269.875 260 279.027344 246.050781 275.46875 238.9375 C 275.46875 238.9375 268.75 226.335938 268.75 226.335938 C 268.75 226.335938 263.710938 222.140625 263.710938 222.140625 C 262.976562 220.667969 262.660156 218.464844 260.773438 217.519531 C 260.773438 217.519531 257.414062 217.519531 257.414062 217.519531 C 253.511719 215.570312 251.632812 211.640625 246.914062 211.640625 C 246.914062 213.5 246.074219 213.5 246.074219 211.640625 C 242.421875 211.640625 239.171875 214.160156 238.515625 214.160156 C 238.515625 215.988281 237.976562 217.519531 240.195312 217.519531 C 253.574219 217.519531 263.140625 221.839844 269.589844 234.734375 C 273.164062 241.890625 271.378906 258.671875 261.191406 258.671875 Z M 261.191406 258.671875 "/>
<path style=" stroke:none;fill-rule:nonzero;fill:rgb(60.000002%,32.549021%,100%);fill-opacity:1;" d="M 246.074219 211.640625 L 246.914062 211.640625 C 246.914062 213.5 246.074219 213.5 246.074219 211.640625 Z M 246.074219 211.640625 "/>
<path style=" stroke:none;fill-rule:nonzero;fill:rgb(60.000002%,32.549021%,100%);fill-opacity:1;" d="M 169.648438 214.160156 L 171.328125 215 C 171.328125 213.613281 169.648438 212.402344 169.648438 214.160156 Z M 169.648438 214.160156 "/>
<path style=" stroke:none;fill-rule:nonzero;fill:rgb(35.686275%,94.509804%,100%);fill-opacity:1;" d="M 153.691406 220.039062 C 150.472656 220.039062 146.488281 225.628906 145.292969 228.015625 C 143.375 231.855469 141.285156 235.191406 139.414062 238.9375 C 138.269531 241.226562 142.367188 254.898438 143.195312 255.3125 C 146.3125 256.871094 148.148438 256.992188 151.171875 256.992188 C 151.171875 256.992188 157.46875 251.113281 157.46875 251.113281 C 159.378906 249.203125 170.203125 237.1875 170.90625 236.835938 C 172.707031 235.9375 175.175781 235.441406 176.367188 233.054688 C 178.363281 229.066406 179.816406 215.839844 172.167969 215.839844 C 172.167969 215.839844 171.328125 215 171.328125 215 C 171.328125 215 169.648438 214.160156 169.648438 214.160156 C 163.253906 214.160156 159.367188 219.199219 154.53125 219.199219 C 154.53125 219.199219 153.691406 220.039062 153.691406 220.039062 Z M 153.691406 220.039062 "/>
<path style=" stroke:none;fill-rule:nonzero;fill:rgb(35.686275%,94.509804%,100%);fill-opacity:1;" d="M 240.195312 217.519531 C 253.574219 217.519531 263.140625 221.839844 269.589844 234.734375 C 273.164062 241.890625 271.378906 258.671875 261.191406 258.671875 C 254.90625 258.671875 247.117188 235.136719 244.394531 229.695312 C 243.113281 227.132812 238.816406 230.300781 236.835938 226.335938 C 234.734375 222.136719 240.195312 220.285156 240.195312 217.519531 Z M 240.195312 217.519531 "/>
<path style=" stroke:none;fill-rule:nonzero;fill:rgb(60.000002%,32.549021%,100%);fill-opacity:1;" d="M 154.53125 219.199219 L 153.691406 220.039062 C 153.691406 220.039062 154.53125 219.199219 154.53125 219.199219 Z M 154.53125 219.199219 "/>
<path style=" stroke:none;fill-rule:evenodd;fill:rgb(92.156863%,34.117648%,100%);fill-opacity:1;" d="M 204.921875 241.035156 C 204.921875 244.179688 206.679688 241.035156 204.921875 241.035156 M 199.042969 234.316406 C 199.042969 235.9375 200.664062 234.316406 199.042969 234.316406 M 204.082031 246.074219 L 208.28125 246.074219 C 208.28125 246.074219 209.960938 245.234375 209.960938 245.234375 C 209.960938 245.234375 210.800781 244.394531 210.800781 244.394531 C 210.800781 244.394531 211.640625 244.394531 211.640625 244.394531 C 211.640625 241.0625 214.46875 239.15625 215.839844 236.414062 C 215.875 236.34375 211.355469 230.957031 208.703125 230.957031 C 208.703125 230.957031 206.179688 227.597656 206.179688 227.597656 C 203.613281 226.3125 201.898438 232.679688 200.304688 233.476562 C 199.535156 233.859375 194.003906 234.636719 194.003906 235.578125 C 194.003906 236.453125 196.515625 239.140625 196.945312 239.355469 C 198.066406 239.917969 195.417969 241.035156 197.363281 241.035156 C 197.363281 241.035156 199.882812 241.875 199.882812 241.875 C 201.171875 241.875 203.242188 245.027344 203.242188 246.074219 C 203.242188 246.074219 204.082031 246.074219 204.082031 246.074219 Z M 204.082031 246.074219 "/>
<path style=" stroke:none;fill-rule:nonzero;fill:rgb(60.000002%,32.549021%,100%);fill-opacity:1;" d="M 199.042969 234.316406 C 199.042969 235.9375 200.664062 234.316406 199.042969 234.316406 Z M 199.042969 234.316406 "/>
<path style=" stroke:none;fill-rule:nonzero;fill:rgb(15.294118%,95.686275%,99.215686%);fill-opacity:1;" d="M 204.921875 241.035156 C 204.921875 244.179688 206.679688 241.035156 204.921875 241.035156 Z M 204.921875 241.035156 "/>
<path style=" stroke:none;fill-rule:nonzero;fill:rgb(60.000002%,32.549021%,100%);fill-opacity:1;" d="M 210.800781 244.394531 L 209.960938 245.234375 C 209.960938 245.234375 210.800781 244.394531 210.800781 244.394531 Z M 210.800781 244.394531 "/>
<path style=" stroke:none;fill-rule:nonzero;fill:rgb(44.705883%,3.529412%,83.137256%);fill-opacity:1;" d="M 203.242188 270.429688 C 203.242188 271.304688 209.121094 271.988281 209.121094 271.269531 C 209.121094 271.269531 209.121094 253.210938 209.121094 253.210938 C 210.300781 250.855469 217.511719 244.394531 211.640625 244.394531 C 211.640625 244.394531 210.800781 244.394531 210.800781 244.394531 C 210.800781 244.394531 209.960938 245.234375 209.960938 245.234375 C 209.960938 245.234375 208.28125 246.074219 208.28125 246.074219 C 208.28125 248.214844 204.082031 252.445312 204.082031 246.074219 C 204.082031 246.074219 203.242188 246.074219 203.242188 246.074219 C 202.527344 246.074219 200.941406 246.089844 201.5625 247.335938 C 204.695312 253.597656 203.242188 262.316406 203.242188 270.429688 Z M 203.242188 270.429688 "/>
<path style=" stroke:none;fill-rule:nonzero;fill:rgb(60.000002%,32.549021%,100%);fill-opacity:1;" d="M 204.082031 246.074219 L 208.28125 246.074219 C 208.28125 248.214844 204.082031 252.445312 204.082031 246.074219 Z M 204.082031 246.074219 "/>
<path style=" stroke:none;fill-rule:nonzero;fill:rgb(100%,20.392157%,15.294118%);fill-opacity:1;" d="M 217.519531 279.667969 C 215.199219 279.667969 214.320312 283.738281 207.859375 280.507812 C 206.648438 279.902344 205.605469 274.078125 204.5 274.628906 C 200.734375 276.511719 203.742188 281.347656 195.683594 281.347656 C 195.683594 281.347656 194.003906 280.085938 194.003906 280.085938 C 194.003906 280.085938 196.523438 278.40625 196.523438 278.40625 C 196.523438 277.710938 200.695312 270.429688 203.242188 270.429688 C 203.242188 271.304688 209.121094 271.988281 209.121094 271.269531 C 212.558594 271.269531 213.226562 275.699219 214.160156 277.570312 C 214.160156 277.570312 217.519531 279.667969 217.519531 279.667969 Z M 217.519531 279.667969 "/>
</g>
</svg>
