<?xml version="1.0" encoding="UTF-8"?>
<svg xmlns="http://www.w3.org/2000/svg" xmlns:xlink="http://www.w3.org/1999/xlink" width="430px" height="430px" viewBox="0 0 430 430" version="1.1">
<g id="surface1">
<rect x="0" y="0" width="430" height="430" style="fill:rgb(0%,0%,0%);fill-opacity:1;stroke:none;"/>
<path style=" stroke:none;fill-rule:nonzero;fill:rgb(1.176471%,75.686276%,17.647059%);fill-opacity:1;" d="M 298.984375 274.628906 C 298.984375 278.519531 312.566406 279.386719 315.359375 277.988281 C 323.128906 274.105469 330.804688 261.871094 335.515625 259.511719 C 337.890625 258.324219 342.070312 256.0625 343.496094 253.210938 L 347.695312 246.492188 C 349.367188 243.152344 348.539062 238.085938 350.214844 234.734375 L 355.253906 228.859375 L 355.253906 224.65625 C 356.546875 222.074219 358.128906 219.753906 359.453125 217.101562 C 360.507812 214.988281 356.539062 213.6875 357.773438 211.21875 C 359.265625 208.230469 360.410156 207.625 361.972656 204.5 C 363.105469 202.238281 360.082031 182.246094 361.132812 180.148438 L 363.652344 176.789062 C 363.652344 174.457031 359.242188 176.363281 358.613281 175.109375 C 357.390625 172.660156 362.761719 170.804688 361.132812 167.546875 C 357.765625 160.816406 358.75 155.230469 355.253906 148.234375 L 354.414062 135.632812 C 346.144531 119.09375 332.929688 105.785156 314.523438 96.582031 L 305.28125 89.863281 C 294.484375 84.464844 280.851562 85.207031 270.007812 79.785156 C 267.367188 78.464844 263.503906 79.472656 260.773438 78.105469 C 260.390625 77.914062 256.105469 77.917969 255.734375 78.105469 C 254.84375 78.550781 255.996094 82.4375 254.054688 81.464844 C 244.191406 76.53125 230.636719 72.597656 219.617188 78.105469 L 217.101562 76.425781 L 215.421875 78.945312 C 211.730469 80.789062 208.738281 79.746094 205.34375 83.144531 L 201.140625 87.34375 C 199.046875 86.296875 197.890625 82.359375 194.421875 80.625 C 192.300781 79.5625 184.707031 81.644531 182.664062 80.625 L 179.304688 77.265625 C 177.484375 76.355469 175.558594 78.300781 174.265625 78.945312 L 167.96875 78.105469 C 163.265625 78.105469 157.320312 80.625 154.109375 80.625 C 152.84375 80.625 151.992188 77.90625 149.914062 78.945312 C 145.820312 80.992188 141.265625 81.167969 137.3125 83.144531 L 131.4375 83.144531 C 123.855469 86.933594 115.511719 88.585938 107.921875 92.382812 L 102.882812 93.222656 C 96.796875 96.265625 91.335938 100.253906 85.242188 103.300781 L 80.203125 108.339844 C 74.078125 111.402344 70.242188 116.085938 67.1875 122.195312 L 63.828125 124.71875 C 57.898438 136.578125 57.792969 152.746094 52.070312 164.1875 C 49.75 168.828125 54.257812 174.929688 52.070312 179.304688 C 49.085938 185.273438 51.070312 205.023438 53.75 210.382812 C 54.433594 211.75 51.789062 216.535156 52.910156 218.78125 C 54.847656 222.652344 57.683594 225.804688 59.628906 229.695312 L 61.308594 238.9375 L 64.667969 241.453125 C 66.980469 246.078125 68.265625 251.167969 70.546875 255.734375 L 75.585938 260.773438 C 81.050781 271.703125 94.550781 273.402344 103.71875 277.988281 C 106.132812 279.195312 109.605469 278.410156 112.117188 279.667969 L 118.417969 278.828125 C 118.417969 268.644531 111.699219 259.945312 111.699219 249.851562 C 111.699219 249.851562 113.378906 248.171875 113.378906 248.171875 C 113.378906 247.378906 109.179688 245.808594 109.179688 243.554688 C 109.179688 243.554688 108.339844 242.714844 108.339844 242.714844 C 104.738281 242.714844 99.941406 236.996094 99.941406 233.476562 C 99.941406 233.476562 99.101562 232.636719 99.101562 232.636719 C 96.625 232.636719 96.5 227.015625 95.742188 225.5 C 95.742188 225.5 93.222656 224.65625 93.222656 224.65625 C 93.222656 224.65625 94.0625 220.460938 94.0625 220.460938 C 92.617188 217.566406 92.382812 218.925781 92.382812 215.839844 C 86.945312 215.839844 91.21875 189.582031 89.863281 186.867188 C 86.574219 180.285156 96.714844 163.921875 99.941406 157.46875 C 101.628906 154.09375 109.179688 150.847656 109.179688 146.972656 C 109.179688 144.734375 110.882812 142.773438 113.378906 142.773438 C 113.378906 142.773438 114.21875 141.933594 114.21875 141.933594 C 114.21875 141.933594 115.058594 141.933594 115.058594 141.933594 C 115.058594 141.933594 115.898438 141.09375 115.898438 141.09375 C 115.898438 141.09375 119.679688 137.734375 119.679688 137.734375 C 124.59375 135.277344 129.832031 133.496094 134.796875 131.015625 C 134.796875 131.015625 138.15625 131.855469 138.15625 131.855469 C 143.496094 129.183594 148.820312 127.78125 154.109375 125.136719 C 156.78125 123.800781 162.390625 126.035156 164.1875 125.136719 C 164.1875 125.136719 169.226562 121.777344 169.226562 121.777344 C 172.222656 120.277344 175.167969 123.457031 177.207031 123.457031 C 179.316406 123.457031 197.992188 104.140625 202.820312 104.140625 C 208.488281 104.140625 218.917969 116.738281 224.238281 116.738281 C 225.117188 116.738281 230.117188 120.382812 230.117188 120.9375 C 230.117188 120.9375 230.117188 121.777344 230.117188 121.777344 C 231.460938 121.777344 232.121094 119.210938 233.898438 120.097656 C 238.578125 122.4375 242.457031 123.539062 247.335938 125.976562 C 247.335938 125.976562 251.53125 125.136719 251.53125 125.136719 C 259 128.871094 268.226562 128.441406 276.726562 132.695312 C 282.445312 135.550781 286.914062 131.644531 290.585938 138.992188 C 290.664062 139.15625 300.664062 141.300781 300.664062 143.613281 C 302.535156 143.613281 304.023438 145.101562 304.023438 146.972656 C 304.023438 146.972656 306.542969 151.171875 306.542969 151.171875 C 306.542969 151.171875 307.382812 152.011719 307.382812 152.011719 C 307.382812 154.226562 310.71875 153.222656 311.582031 154.953125 C 311.582031 154.953125 311.582031 159.148438 311.582031 159.148438 C 312.714844 161.417969 316.035156 163.859375 317.460938 166.710938 C 317.460938 166.710938 318.300781 171.75 318.300781 171.75 C 318.300781 171.75 320.820312 173.429688 320.820312 173.429688 C 320.820312 173.429688 322.5 184.34375 322.5 184.34375 C 322.5 184.34375 324.179688 186.867188 324.179688 186.867188 C 324.179688 188.078125 323.230469 192.527344 324.179688 194.421875 C 324.179688 194.421875 325.859375 196.101562 325.859375 196.101562 C 325.859375 196.101562 323.339844 199.460938 323.339844 199.460938 C 322.609375 200.925781 322.5 207.722656 322.5 209.121094 C 322.5 211.449219 322.816406 215 319.980469 215 C 319.980469 215 317.460938 219.199219 317.460938 219.199219 C 317.460938 219.199219 316.621094 220.039062 316.621094 220.039062 C 316.621094 220.039062 315.78125 221.71875 315.78125 221.71875 C 315.78125 221.71875 314.941406 223.398438 314.941406 223.398438 C 314.941406 223.398438 314.941406 224.238281 314.941406 224.238281 C 314.941406 225.277344 314.585938 226.757812 313.261719 226.757812 C 313.261719 227.71875 313.746094 230.117188 312.421875 230.117188 C 312.421875 231.347656 312.511719 233.476562 310.742188 233.476562 C 310.742188 234.867188 305.480469 241.875 304.023438 241.875 C 304.023438 241.875 303.183594 243.554688 303.183594 243.554688 C 303.183594 245.222656 300.429688 246.867188 301.503906 249.015625 C 302.773438 251.550781 307.511719 254.636719 305.703125 258.25 C 303.136719 263.386719 298.984375 268.46875 298.984375 274.628906 Z M 298.984375 274.628906 "/>
<path style=" stroke:none;fill-rule:nonzero;fill:rgb(11.372549%,40.784314%,92.156863%);fill-opacity:1;" d="M 212.480469 141.933594 L 214.160156 141.933594 C 221.554688 141.933594 224.839844 135.269531 227.597656 129.757812 C 227.597656 129.757812 227.597656 125.554688 227.597656 125.554688 C 227.597656 125.554688 229.277344 123.457031 229.277344 123.457031 C 229.277344 123.457031 230.117188 122.617188 230.117188 122.617188 C 230.117188 122.617188 230.117188 121.777344 230.117188 121.777344 C 230.117188 121.777344 230.117188 120.9375 230.117188 120.9375 C 228.085938 120.9375 224.238281 118.984375 224.238281 116.738281 C 218.917969 116.738281 208.488281 104.140625 202.820312 104.140625 C 197.992188 104.140625 179.316406 123.457031 177.207031 123.457031 C 177.207031 123.457031 179.726562 128.914062 179.726562 128.914062 C 179.726562 128.914062 179.726562 132.273438 179.726562 132.273438 C 182.480469 137.785156 192.617188 142.773438 199.042969 142.773438 C 199.042969 142.773438 199.882812 141.09375 199.882812 141.09375 C 199.882812 131.59375 208.589844 141.933594 210.800781 141.933594 C 210.800781 141.933594 212.480469 141.933594 212.480469 141.933594 Z M 212.480469 141.933594 "/>
<path style=" stroke:none;fill-rule:nonzero;fill:rgb(100%,43.137255%,0%);fill-opacity:1;" d="M 320.820312 209.121094 L 322.5 209.121094 C 322.5 207.722656 322.609375 200.925781 323.339844 199.460938 C 323.339844 199.460938 325.859375 196.101562 325.859375 196.101562 C 325.859375 196.101562 324.179688 194.421875 324.179688 194.421875 C 323.230469 192.527344 324.179688 188.078125 324.179688 186.867188 C 324.179688 186.867188 322.5 184.34375 322.5 184.34375 C 322.5 184.34375 320.820312 173.429688 320.820312 173.429688 C 320.820312 173.429688 318.300781 171.75 318.300781 171.75 C 318.300781 171.75 317.460938 166.710938 317.460938 166.710938 C 316.035156 163.859375 312.714844 161.417969 311.582031 159.148438 C 311.582031 159.148438 311.582031 154.953125 311.582031 154.953125 C 310.71875 153.222656 307.382812 154.226562 307.382812 152.011719 C 307.382812 152.011719 306.542969 151.171875 306.542969 151.171875 C 306.542969 151.171875 304.023438 146.972656 304.023438 146.972656 C 302.429688 146.972656 300.664062 145.226562 300.664062 143.613281 C 300.664062 141.300781 290.664062 139.15625 290.585938 138.992188 C 286.914062 131.644531 282.445312 135.550781 276.726562 132.695312 C 268.226562 128.441406 259 128.871094 251.53125 125.136719 C 251.53125 125.136719 247.335938 125.976562 247.335938 125.976562 C 242.457031 123.539062 238.578125 122.4375 233.898438 120.097656 C 232.121094 119.210938 231.460938 121.777344 230.117188 121.777344 C 230.117188 121.777344 230.117188 122.617188 230.117188 122.617188 C 230.117188 122.617188 229.277344 123.457031 229.277344 123.457031 C 229.277344 123.457031 227.597656 125.554688 227.597656 125.554688 C 227.597656 125.554688 227.597656 129.757812 227.597656 129.757812 C 224.839844 135.269531 221.554688 141.933594 214.160156 141.933594 C 214.160156 143.109375 212.480469 143.109375 212.480469 141.933594 C 212.480469 141.933594 210.800781 141.933594 210.800781 141.933594 C 210.800781 143.023438 200.851562 142.773438 199.042969 142.773438 C 192.617188 142.773438 182.480469 137.785156 179.726562 132.273438 C 179.726562 132.273438 179.726562 128.914062 179.726562 128.914062 C 179.726562 128.914062 177.207031 123.457031 177.207031 123.457031 C 175.167969 123.457031 172.222656 120.277344 169.226562 121.777344 C 169.226562 121.777344 164.1875 125.136719 164.1875 125.136719 C 162.390625 126.035156 156.78125 123.800781 154.109375 125.136719 C 148.820312 127.78125 143.496094 129.183594 138.15625 131.855469 C 138.15625 131.855469 134.796875 131.015625 134.796875 131.015625 C 129.832031 133.496094 124.59375 135.277344 119.679688 137.734375 C 119.679688 137.734375 115.898438 141.09375 115.898438 141.09375 C 115.898438 141.09375 115.058594 141.933594 115.058594 141.933594 C 115.058594 141.933594 114.21875 141.933594 114.21875 141.933594 C 114.21875 141.933594 113.378906 142.773438 113.378906 142.773438 C 113.378906 142.773438 109.179688 146.972656 109.179688 146.972656 C 109.179688 150.847656 101.628906 154.09375 99.941406 157.46875 C 96.714844 163.921875 86.574219 180.285156 89.863281 186.867188 C 91.21875 189.582031 86.945312 215.839844 92.382812 215.839844 C 92.382812 205.378906 90.195312 192.917969 94.902344 183.507812 C 94.902344 183.507812 94.902344 176.789062 94.902344 176.789062 C 96.089844 174.414062 99.941406 170.605469 99.941406 167.96875 C 99.941406 167.96875 100.78125 167.128906 100.78125 167.128906 C 100.78125 162.800781 106.511719 160.285156 108.339844 156.632812 C 111.984375 149.339844 140.980469 134.527344 150.75 139.414062 C 155.542969 141.808594 159.570312 143.613281 165.449219 143.613281 C 165.449219 143.613281 162.929688 140.671875 162.929688 140.671875 C 165.195312 136.140625 176.84375 144.902344 179.304688 146.132812 C 180.425781 146.691406 183.085938 146.476562 183.085938 148.652344 C 183.085938 148.652344 184.765625 149.492188 184.765625 149.492188 C 190.558594 149.492188 200.570312 156.496094 206.179688 153.691406 C 211.75 150.90625 221.121094 148.652344 226.757812 148.652344 C 226.757812 148.652344 225.917969 146.554688 225.917969 146.554688 C 225.917969 146.554688 232.21875 144.453125 232.21875 144.453125 C 235.933594 142.59375 239.390625 140.445312 243.132812 138.574219 C 244.613281 137.835938 245.234375 139.082031 245.234375 140.253906 C 248.28125 140.253906 252.554688 139.414062 256.152344 139.414062 C 261.683594 139.414062 269.097656 139.414062 274.628906 139.414062 C 274.628906 139.414062 276.308594 140.253906 276.308594 140.253906 C 276.308594 140.253906 278.828125 141.09375 278.828125 141.09375 C 278.828125 141.09375 280.507812 141.933594 280.507812 141.933594 C 280.507812 141.933594 282.1875 141.933594 282.1875 141.933594 C 282.1875 141.933594 283.027344 142.773438 283.027344 142.773438 C 283.027344 142.773438 283.867188 142.773438 283.867188 142.773438 C 284.90625 142.773438 286.386719 143.128906 286.386719 144.453125 C 291.84375 144.453125 294.796875 152.011719 299.824219 152.011719 C 299.824219 152.011719 300.664062 152.851562 300.664062 152.851562 C 300.664062 152.851562 300.664062 153.691406 300.664062 153.691406 C 300.664062 153.691406 302.34375 155.371094 302.34375 155.371094 C 302.777344 155.371094 311.34375 166.230469 312.421875 168.390625 C 313.066406 169.679688 312.820312 174.6875 314.941406 174.6875 C 315.828125 174.6875 317.484375 175.527344 315.78125 175.527344 C 315.78125 175.527344 316.621094 177.207031 316.621094 177.207031 C 318.433594 177.207031 318.300781 183.152344 318.300781 184.765625 C 318.300781 186.953125 319.097656 186.78125 319.980469 188.546875 C 319.980469 188.546875 319.140625 193.585938 319.140625 193.585938 C 321.53125 198.363281 320.820312 205.546875 320.820312 209.121094 Z M 320.820312 209.121094 "/>
<path style=" stroke:none;fill-rule:nonzero;fill:rgb(0.784314%,17.254902%,100%);fill-opacity:1;" d="M 231.796875 202.402344 L 233.476562 202.402344 C 233.476562 202.402344 235.15625 200.722656 235.15625 200.722656 C 235.15625 199.085938 237.675781 198.507812 237.675781 196.523438 C 237.675781 196.523438 238.515625 195.683594 238.515625 195.683594 C 238.515625 193.660156 239.355469 191.332031 239.355469 189.804688 C 239.355469 189.804688 240.195312 174.265625 240.195312 174.265625 C 238.09375 170.066406 238.515625 162.859375 238.515625 158.730469 C 237.519531 158.730469 237.519531 157.890625 238.515625 157.890625 C 238.515625 155.25 239.355469 153.832031 239.355469 152.011719 C 239.355469 152.011719 241.035156 150.332031 241.035156 150.332031 C 241.035156 150.332031 241.035156 149.492188 241.035156 149.492188 C 241.035156 149.492188 241.035156 148.652344 241.035156 148.652344 C 241.035156 148.652344 245.234375 142.773438 245.234375 142.773438 C 245.234375 142.773438 245.234375 140.253906 245.234375 140.253906 C 245.234375 139.082031 244.613281 137.835938 243.132812 138.574219 C 239.390625 140.445312 235.933594 142.59375 232.21875 144.453125 C 232.21875 144.453125 225.917969 146.554688 225.917969 146.554688 C 225.917969 146.554688 226.757812 148.652344 226.757812 148.652344 C 229.285156 148.652344 231.703125 154.015625 233.476562 155.789062 C 237.246094 159.558594 239.707031 186.164062 236.835938 191.90625 C 236.835938 191.90625 231.796875 202.402344 231.796875 202.402344 Z M 231.796875 202.402344 "/>
<path style=" stroke:none;fill-rule:nonzero;fill:rgb(50.588238%,30.980393%,100%);fill-opacity:1;" d="M 301.503906 243.554688 C 301.503906 249.582031 288.847656 244.394531 286.386719 244.394531 C 286.386719 244.394531 284.707031 243.554688 284.707031 243.554688 C 284.707031 241.480469 279.960938 241.035156 277.988281 241.035156 C 277.988281 241.035156 277.148438 239.355469 277.148438 239.355469 C 280.476562 239.355469 266.511719 232.636719 265.390625 232.636719 C 265.390625 232.636719 260.351562 229.277344 260.351562 229.277344 C 260.351562 229.277344 251.53125 224.238281 251.53125 224.238281 C 250.132812 223.539062 250.828125 219.199219 249.433594 219.199219 C 249.433594 219.199219 247.753906 213.742188 247.753906 213.742188 C 247.753906 213.742188 249.433594 211.21875 249.433594 211.21875 C 248.480469 209.3125 245.234375 204.113281 245.234375 201.5625 C 245.234375 201.5625 239.355469 189.804688 239.355469 189.804688 C 239.355469 189.804688 240.195312 174.265625 240.195312 174.265625 C 238.09375 170.066406 238.515625 162.859375 238.515625 158.730469 C 238.515625 158.730469 238.515625 157.890625 238.515625 157.890625 C 238.515625 155.25 239.355469 153.832031 239.355469 152.011719 C 240.824219 152.011719 241.035156 151.800781 241.035156 150.332031 C 241.035156 150.332031 241.035156 149.492188 241.035156 149.492188 C 242.03125 149.492188 242.03125 148.652344 241.035156 148.652344 C 241.035156 148.652344 245.234375 142.773438 245.234375 142.773438 C 247.730469 142.773438 250.015625 141.011719 251.53125 140.253906 C 252.574219 139.734375 256.152344 141.214844 256.152344 139.414062 C 261.683594 139.414062 269.097656 139.414062 274.628906 139.414062 C 274.628906 139.414062 276.308594 140.253906 276.308594 140.253906 C 276.308594 140.253906 278.828125 141.09375 278.828125 141.09375 C 278.828125 141.09375 280.507812 141.933594 280.507812 141.933594 C 280.507812 141.933594 282.1875 141.933594 282.1875 141.933594 C 282.1875 141.933594 283.027344 142.773438 283.027344 142.773438 C 283.027344 142.773438 283.867188 142.773438 283.867188 142.773438 C 283.867188 142.773438 286.386719 144.453125 286.386719 144.453125 C 291.84375 144.453125 294.796875 152.011719 299.824219 152.011719 C 299.824219 152.011719 300.664062 152.851562 300.664062 152.851562 C 300.664062 152.851562 300.664062 153.691406 300.664062 153.691406 C 300.664062 153.691406 302.34375 155.371094 302.34375 155.371094 C 302.777344 155.371094 311.34375 166.230469 312.421875 168.390625 C 313.066406 169.679688 312.820312 174.6875 314.941406 174.6875 C 314.941406 174.6875 315.78125 175.527344 315.78125 175.527344 C 315.78125 175.527344 316.621094 177.207031 316.621094 177.207031 C 316.621094 178.820312 316.488281 184.765625 318.300781 184.765625 C 318.300781 186.953125 319.097656 186.78125 319.980469 188.546875 C 319.980469 188.546875 319.140625 193.585938 319.140625 193.585938 C 321.53125 198.363281 320.820312 205.546875 320.820312 209.121094 C 320.820312 209.121094 320.820312 210.800781 320.820312 210.800781 C 320.820312 210.800781 319.980469 212.480469 319.980469 212.480469 C 319.980469 212.480469 319.980469 215 319.980469 215 C 319.980469 215 317.460938 219.199219 317.460938 219.199219 C 317.460938 219.199219 316.621094 220.039062 316.621094 220.039062 C 316.621094 220.039062 315.78125 221.71875 315.78125 221.71875 C 315.027344 221.71875 313.238281 223.398438 314.941406 223.398438 C 314.941406 223.398438 314.941406 224.238281 314.941406 224.238281 C 312.242188 224.238281 313.261719 225.320312 313.261719 226.757812 C 313.261719 227.71875 313.746094 230.117188 312.421875 230.117188 C 310.878906 230.117188 307.46875 233.476562 310.742188 233.476562 C 310.742188 234.867188 305.480469 241.875 304.023438 241.875 C 302.808594 241.875 299.527344 243.554688 301.503906 243.554688 Z M 301.503906 243.554688 "/>
<path style=" stroke:none;fill-rule:nonzero;fill:rgb(50.588238%,30.980393%,100%);fill-opacity:1;" d="M 108.339844 242.714844 L 109.179688 243.554688 C 111.085938 243.554688 112.226562 245.289062 113.796875 246.074219 C 113.796875 246.074219 118.835938 245.234375 118.835938 245.234375 C 119.675781 245.652344 119.460938 247.863281 121.359375 246.914062 C 126.785156 244.199219 132.03125 237.675781 139.414062 237.675781 C 139.414062 237.675781 141.09375 235.996094 141.09375 235.996094 C 141.09375 235.996094 141.933594 235.996094 141.933594 235.996094 C 141.933594 235.996094 142.773438 235.15625 142.773438 235.15625 C 142.773438 235.15625 143.613281 235.15625 143.613281 235.15625 C 143.613281 235.15625 144.453125 234.316406 144.453125 234.316406 C 144.453125 234.316406 145.292969 233.476562 145.292969 233.476562 C 145.292969 233.476562 146.132812 232.636719 146.132812 232.636719 C 146.132812 232.636719 146.972656 231.796875 146.972656 231.796875 C 146.972656 231.796875 147.8125 230.957031 147.8125 230.957031 C 147.8125 228.546875 150.070312 229.277344 152.011719 229.277344 C 152.011719 229.277344 152.851562 227.597656 152.851562 227.597656 C 152.851562 226.558594 153.207031 225.078125 154.53125 225.078125 C 154.53125 224.476562 152.539062 222.558594 154.53125 222.558594 C 154.53125 222.558594 157.050781 215.839844 157.050781 215.839844 C 155.292969 215.839844 156.503906 214.160156 157.890625 214.160156 C 157.890625 214.160156 161.25 213.320312 161.25 213.320312 C 161.25 211 161.25 208.984375 161.25 207.441406 C 161.25 207.441406 162.089844 206.601562 162.089844 206.601562 C 162.089844 206.601562 162.089844 205.761719 162.089844 205.761719 C 162.089844 205.761719 162.929688 204.921875 162.929688 204.921875 C 162.929688 204.921875 162.929688 203.242188 162.929688 203.242188 C 162.929688 203.242188 162.929688 202.402344 162.929688 202.402344 C 162.929688 202.402344 161.25 201.140625 161.25 201.140625 C 156.707031 196.601562 164.609375 196.5625 164.609375 199.882812 C 166.890625 199.882812 169.648438 195.324219 169.648438 193.164062 C 169.648438 193.164062 169.648438 191.484375 169.648438 191.484375 C 167.789062 191.484375 167.789062 190.644531 169.648438 190.644531 C 169.648438 190.644531 169.648438 184.765625 169.648438 184.765625 C 168.207031 184.765625 168.808594 180.066406 168.808594 178.886719 C 168.808594 178.886719 168.808594 178.046875 168.808594 178.046875 C 168.808594 177.007812 168.269531 173.847656 169.648438 173.847656 C 169.648438 173.847656 170.488281 172.167969 170.488281 172.167969 C 170.488281 172.167969 170.488281 164.609375 170.488281 164.609375 C 170.488281 164.609375 171.328125 163.769531 171.328125 163.769531 C 171.328125 163.769531 170.488281 153.273438 170.488281 153.273438 C 170.488281 153.273438 165.449219 143.613281 165.449219 143.613281 C 159.570312 143.613281 155.542969 141.808594 150.75 139.414062 C 140.980469 134.527344 111.984375 149.339844 108.339844 156.632812 C 106.511719 160.285156 100.78125 162.800781 100.78125 167.128906 C 100.78125 167.128906 99.941406 167.96875 99.941406 167.96875 C 99.941406 170.605469 96.089844 174.414062 94.902344 176.789062 C 94.902344 176.789062 94.902344 183.507812 94.902344 183.507812 C 90.195312 192.917969 92.382812 205.378906 92.382812 215.839844 C 92.382812 218.925781 92.617188 217.566406 94.0625 220.460938 C 94.0625 220.460938 93.222656 224.65625 93.222656 224.65625 C 93.222656 224.65625 95.742188 225.5 95.742188 225.5 C 96.5 227.015625 96.625 232.636719 99.101562 232.636719 C 99.101562 232.636719 99.941406 233.476562 99.941406 233.476562 C 99.941406 236.996094 104.738281 242.714844 108.339844 242.714844 Z M 108.339844 242.714844 "/>
<path style=" stroke:none;fill-rule:nonzero;fill:rgb(0.784314%,17.254902%,100%);fill-opacity:1;" d="M 170.488281 164.609375 L 170.488281 172.167969 C 172.820312 172.167969 173.09375 162.339844 173.847656 160.828125 C 175.71875 157.089844 183.085938 151.183594 183.085938 150.332031 C 183.085938 149.628906 181.464844 148.652344 183.085938 148.652344 C 183.085938 146.476562 180.425781 146.691406 179.304688 146.132812 C 176.84375 144.902344 165.195312 136.140625 162.929688 140.671875 C 162.929688 140.671875 165.449219 143.613281 165.449219 143.613281 C 165.449219 143.613281 170.488281 153.273438 170.488281 153.273438 C 170.488281 153.273438 171.328125 163.769531 171.328125 163.769531 C 171.328125 163.769531 170.488281 164.609375 170.488281 164.609375 Z M 170.488281 164.609375 "/>
<path style=" stroke:none;fill-rule:evenodd;fill:rgb(100%,3.137255%,0%);fill-opacity:1;" d="M 205.761719 209.960938 L 206.601562 211.640625 C 206.601562 211.640625 222.140625 212.480469 222.140625 212.480469 C 222.140625 212.480469 227.597656 209.121094 227.597656 209.121094 C 227.597656 209.121094 229.277344 207.441406 229.277344 207.441406 C 229.277344 207.441406 230.117188 206.601562 230.117188 206.601562 C 230.117188 206.601562 231.796875 202.402344 231.796875 202.402344 C 231.796875 202.402344 236.835938 191.90625 236.835938 191.90625 C 239.707031 186.164062 237.246094 159.558594 233.476562 155.789062 C 231.703125 154.015625 229.285156 148.652344 226.757812 148.652344 C 221.121094 148.652344 211.75 150.90625 206.179688 153.691406 C 200.570312 156.496094 190.558594 149.492188 184.765625 149.492188 C 184.765625 149.492188 183.085938 150.332031 183.085938 150.332031 C 183.085938 151.183594 175.71875 157.089844 173.847656 160.828125 C 173.09375 162.339844 172.820312 172.167969 170.488281 172.167969 C 170.488281 172.167969 172.167969 196.101562 172.167969 196.101562 C 173.722656 199.210938 175.527344 200.226562 175.527344 204.082031 C 175.527344 204.082031 177.207031 205.761719 177.207031 205.761719 C 177.839844 205.761719 187.742188 213.320312 188.546875 213.320312 C 192.875 213.320312 198.257812 211.640625 203.242188 211.640625 C 203.242188 211.640625 204.082031 209.960938 204.082031 209.960938 C 204.082031 207.792969 205.761719 206.207031 205.761719 209.121094 C 205.761719 209.121094 205.761719 209.960938 205.761719 209.960938 M 210.800781 184.765625 C 210.800781 187.386719 211.203125 196.132812 209.960938 198.625 C 209.519531 199.507812 208.011719 199.042969 207.023438 199.042969 L 205.34375 196.523438 C 203.875 195.789062 200.710938 202.796875 199.042969 199.460938 C 198.347656 198.074219 199.382812 196.261719 199.882812 195.265625 C 201.238281 192.550781 199.042969 187.976562 199.042969 185.605469 C 199.042969 185.605469 199.042969 184.765625 199.042969 184.765625 C 195.535156 184.765625 195.6875 189.597656 191.0625 187.285156 C 186.171875 184.839844 188.125 178.671875 188.125 174.6875 C 188.125 165.777344 193.519531 163.769531 199.460938 163.769531 C 200.820312 163.769531 207.386719 160.171875 209.539062 161.25 C 213.097656 163.027344 219.535156 163.1875 221.71875 167.546875 C 222.710938 169.53125 224.09375 181.277344 223.398438 182.664062 C 223.398438 182.664062 220.039062 185.1875 220.039062 185.1875 C 220.039062 185.1875 217.9375 188.125 217.9375 188.125 C 217.800781 188.125 213.292969 187.480469 212.898438 187.285156 C 212.898438 187.285156 210.800781 184.765625 210.800781 184.765625 Z M 210.800781 184.765625 "/>
<path style=" stroke:none;fill-rule:nonzero;fill:rgb(0%,100%,11.372549%);fill-opacity:1;" d="M 199.042969 184.765625 C 195.535156 184.765625 195.6875 189.597656 191.0625 187.285156 C 186.171875 184.839844 188.125 178.671875 188.125 174.6875 C 188.125 165.777344 193.519531 163.769531 199.460938 163.769531 C 200.820312 163.769531 207.386719 160.171875 209.539062 161.25 C 213.097656 163.027344 219.535156 163.1875 221.71875 167.546875 C 222.710938 169.53125 224.09375 181.277344 223.398438 182.664062 L 220.039062 185.1875 L 217.9375 188.125 C 217.800781 188.125 213.292969 187.480469 212.898438 187.285156 L 210.800781 184.765625 C 210.800781 184.765625 210.800781 180.566406 210.800781 180.566406 C 212.792969 180.566406 210.800781 178.648438 210.800781 178.046875 C 210.800781 171.628906 201.5625 162.082031 201.5625 173.007812 C 200.183594 173.007812 200.722656 176.167969 200.722656 177.207031 C 200.722656 179.820312 199.882812 181.496094 199.882812 183.925781 C 199.882812 183.925781 199.042969 184.765625 199.042969 184.765625 Z M 199.042969 184.765625 "/>
<path style=" stroke:none;fill-rule:evenodd;fill:rgb(8.235294%,75.294119%,100%);fill-opacity:1;" d="M 207.441406 196.523438 C 207.441406 198.144531 209.0625 196.523438 207.441406 196.523438 M 210.800781 184.765625 C 210.800781 187.386719 211.203125 196.132812 209.960938 198.625 C 209.519531 199.507812 208.011719 199.042969 207.023438 199.042969 L 205.34375 196.523438 C 203.875 195.789062 200.710938 202.796875 199.042969 199.460938 C 198.347656 198.074219 199.382812 196.261719 199.882812 195.265625 C 201.238281 192.550781 199.042969 187.976562 199.042969 185.605469 C 199.042969 185.605469 199.882812 183.925781 199.882812 183.925781 C 199.882812 181.496094 200.722656 179.820312 200.722656 177.207031 C 202.101562 177.207031 201.5625 174.046875 201.5625 173.007812 C 201.5625 162.082031 210.800781 171.628906 210.800781 178.046875 C 209.527344 178.046875 210.800781 179.527344 210.800781 180.566406 C 210.800781 180.566406 210.800781 184.765625 210.800781 184.765625 Z M 210.800781 184.765625 "/>
<path style=" stroke:none;fill-rule:nonzero;fill:rgb(0.784314%,17.254902%,100%);fill-opacity:1;" d="M 173.847656 204.082031 L 175.527344 204.082031 C 175.527344 200.226562 173.722656 199.210938 172.167969 196.101562 C 172.167969 196.101562 170.488281 172.167969 170.488281 172.167969 C 170.488281 172.167969 169.648438 173.847656 169.648438 173.847656 C 169.648438 174.886719 170.1875 178.046875 168.808594 178.046875 C 168.808594 178.046875 168.808594 178.886719 168.808594 178.886719 C 170.25 178.886719 169.648438 183.585938 169.648438 184.765625 C 169.648438 184.765625 169.648438 190.644531 169.648438 190.644531 C 169.648438 190.644531 169.648438 191.484375 169.648438 191.484375 C 169.648438 191.484375 169.648438 193.164062 169.648438 193.164062 C 171.882812 193.164062 169.648438 196.800781 169.648438 197.363281 C 169.648438 197.363281 171.328125 199.042969 171.328125 199.042969 C 173.792969 199.042969 173.847656 202.402344 173.847656 204.082031 Z M 173.847656 204.082031 "/>
<path style=" stroke:none;fill-rule:nonzero;fill:rgb(100%,3.137255%,0%);fill-opacity:1;" d="M 201.5625 173.007812 C 200.183594 173.007812 200.722656 176.167969 200.722656 177.207031 C 202.101562 177.207031 201.5625 174.046875 201.5625 173.007812 Z M 201.5625 173.007812 "/>
<path style=" stroke:none;fill-rule:nonzero;fill:rgb(100%,3.137255%,0%);fill-opacity:1;" d="M 210.800781 178.046875 C 209.527344 178.046875 210.800781 179.527344 210.800781 180.566406 C 212.792969 180.566406 210.800781 178.648438 210.800781 178.046875 Z M 210.800781 178.046875 "/>
<path style=" stroke:none;fill-rule:nonzero;fill:rgb(0%,3.137255%,71.372551%);fill-opacity:1;" d="M 234.316406 220.878906 L 238.09375 224.238281 C 239.03125 224.707031 242.714844 224.582031 242.714844 225.917969 C 247.25 225.917969 246.074219 223.125 246.074219 219.199219 C 246.074219 219.199219 246.074219 217.519531 246.074219 217.519531 C 246.074219 217.519531 245.234375 216.679688 245.234375 216.679688 C 245.234375 216.679688 244.394531 212.480469 244.394531 212.480469 C 244.394531 212.480469 244.394531 207.441406 244.394531 207.441406 C 244.394531 207.441406 244.394531 206.601562 244.394531 206.601562 C 244.394531 206.601562 243.554688 204.921875 243.554688 204.921875 C 243.554688 204.921875 243.554688 204.082031 243.554688 204.082031 C 242.558594 204.082031 242.558594 203.242188 243.554688 203.242188 C 243.554688 203.242188 243.554688 201.5625 243.554688 201.5625 C 243.554688 198.625 240.429688 195.683594 238.515625 195.683594 C 238.515625 195.683594 237.675781 196.523438 237.675781 196.523438 C 237.675781 198.507812 235.15625 199.085938 235.15625 200.722656 C 235.15625 202.191406 234.945312 202.402344 233.476562 202.402344 C 233.476562 202.402344 231.796875 202.402344 231.796875 202.402344 C 231.796875 202.402344 230.117188 206.601562 230.117188 206.601562 C 230.117188 206.601562 229.277344 207.441406 229.277344 207.441406 C 229.277344 207.441406 227.597656 209.121094 227.597656 209.121094 C 227.597656 211.203125 225.910156 211.238281 225.078125 212.898438 C 225.078125 212.898438 225.917969 216.679688 225.917969 216.679688 C 225.917969 216.679688 226.757812 216.679688 226.757812 216.679688 C 227.636719 216.679688 229.277344 216.28125 229.277344 217.519531 C 229.277344 217.519531 230.117188 219.199219 230.117188 219.199219 C 230.117188 219.199219 230.957031 219.199219 230.957031 219.199219 C 230.957031 219.199219 231.796875 220.039062 231.796875 220.039062 C 232.675781 220.039062 234.316406 219.640625 234.316406 220.878906 Z M 234.316406 220.878906 "/>
<path style=" stroke:none;fill-rule:nonzero;fill:rgb(100%,20.392157%,15.294118%);fill-opacity:1;" d="M 164.609375 199.882812 C 164.609375 200.921875 164.253906 202.402344 162.929688 202.402344 C 162.929688 202.402344 161.25 201.140625 161.25 201.140625 C 156.707031 196.601562 164.609375 196.5625 164.609375 199.882812 Z M 164.609375 199.882812 "/>
<path style=" stroke:none;fill-rule:nonzero;fill:rgb(0%,3.137255%,71.372551%);fill-opacity:1;" d="M 175.527344 220.878906 L 170.90625 223.398438 C 168.289062 224.707031 166.371094 221.71875 164.609375 221.71875 C 164.609375 221.71875 163.769531 218.359375 163.769531 218.359375 C 163.769531 218.359375 163.769531 215.839844 163.769531 215.839844 C 163.769531 215.839844 163.769531 212.480469 163.769531 212.480469 C 163.769531 212.480469 164.609375 211.640625 164.609375 211.640625 C 164.609375 211.640625 164.609375 209.121094 164.609375 209.121094 C 164.609375 209.121094 164.609375 207.441406 164.609375 207.441406 C 164.609375 207.441406 164.609375 205.761719 164.609375 205.761719 C 167.273438 205.761719 165.300781 199.042969 171.328125 199.042969 C 173.792969 199.042969 173.847656 202.402344 173.847656 204.082031 C 173.847656 204.082031 177.207031 206.601562 177.207031 206.601562 C 177.207031 206.601562 181.828125 211.640625 181.828125 211.640625 C 182.390625 211.640625 183.992188 209.675781 184.765625 211.21875 C 185.757812 213.207031 183.925781 216.003906 183.925781 217.519531 C 183.925781 217.519531 183.085938 218.359375 183.085938 218.359375 C 183.085938 218.359375 181.40625 218.359375 181.40625 218.359375 C 180.527344 218.359375 178.886719 217.960938 178.886719 219.199219 C 178.886719 219.199219 178.046875 219.199219 178.046875 219.199219 C 178.046875 219.199219 177.207031 220.039062 177.207031 220.039062 C 177.207031 220.039062 175.527344 220.878906 175.527344 220.878906 Z M 175.527344 220.878906 "/>
<path style=" stroke:none;fill-rule:nonzero;fill:rgb(100%,20.392157%,15.294118%);fill-opacity:1;" d="M 246.074219 219.199219 L 247.335938 221.71875 C 249.144531 222.625 247.996094 219.199219 249.433594 219.199219 C 249.433594 219.199219 247.753906 213.742188 247.753906 213.742188 C 247.753906 213.742188 249.433594 211.21875 249.433594 211.21875 C 248.480469 209.3125 245.234375 204.113281 245.234375 201.5625 C 245.234375 201.5625 243.554688 201.5625 243.554688 201.5625 C 243.554688 201.5625 243.554688 203.242188 243.554688 203.242188 C 243.554688 203.242188 243.554688 204.082031 243.554688 204.082031 C 243.554688 204.082031 243.554688 204.921875 243.554688 204.921875 C 243.554688 204.921875 244.394531 206.601562 244.394531 206.601562 C 244.394531 206.601562 244.394531 207.441406 244.394531 207.441406 C 245.40625 207.441406 247.234375 212.480469 244.394531 212.480469 C 244.394531 212.480469 245.234375 216.679688 245.234375 216.679688 C 245.234375 216.679688 246.074219 217.519531 246.074219 217.519531 C 246.074219 217.519531 246.074219 219.199219 246.074219 219.199219 Z M 246.074219 219.199219 "/>
<path style=" stroke:none;fill-rule:nonzero;fill:rgb(100%,20.392157%,15.294118%);fill-opacity:1;" d="M 164.609375 221.71875 C 163.296875 221.71875 161.355469 222.558594 159.570312 222.558594 C 159.570312 222.558594 159.570312 220.878906 159.570312 220.878906 C 159.570312 220.878906 159.570312 220.039062 159.570312 220.039062 C 159.570312 220.039062 160.410156 218.359375 160.410156 218.359375 C 161.648438 218.359375 161.25 216.71875 161.25 215.839844 C 161.25 215.839844 161.25 213.320312 161.25 213.320312 C 161.25 211 161.25 208.984375 161.25 207.441406 C 161.25 207.441406 162.089844 206.601562 162.089844 206.601562 C 162.089844 206.601562 162.089844 205.761719 162.089844 205.761719 C 162.089844 205.761719 162.929688 204.921875 162.929688 204.921875 C 162.929688 204.921875 162.929688 203.242188 162.929688 203.242188 C 164.855469 203.242188 164.609375 204.078125 164.609375 205.761719 C 164.609375 205.761719 164.609375 207.441406 164.609375 207.441406 C 163.433594 207.441406 163.433594 209.121094 164.609375 209.121094 C 164.609375 209.121094 164.609375 211.640625 164.609375 211.640625 C 164.609375 211.640625 163.769531 212.480469 163.769531 212.480469 C 163.769531 212.480469 163.769531 215.839844 163.769531 215.839844 C 162.523438 215.839844 162.523438 218.359375 163.769531 218.359375 C 163.769531 218.359375 164.609375 221.71875 164.609375 221.71875 Z M 164.609375 221.71875 "/>
<path style=" stroke:none;fill-rule:nonzero;fill:rgb(88.235295%,94.117647%,5.098039%);fill-opacity:1;" d="M 225.917969 216.679688 C 218.503906 216.679688 206.707031 214.160156 200.304688 214.160156 L 198.625 215.839844 C 196.992188 216.65625 186.570312 217.519531 183.925781 217.519531 C 183.925781 216.003906 185.757812 213.207031 184.765625 211.21875 C 183.992188 209.675781 182.390625 211.640625 181.828125 211.640625 C 181.828125 211.640625 177.207031 206.601562 177.207031 206.601562 C 177.207031 206.601562 177.207031 205.761719 177.207031 205.761719 C 177.839844 205.761719 187.742188 213.320312 188.546875 213.320312 C 192.875 213.320312 198.257812 211.640625 203.242188 211.640625 C 203.242188 214.75 206.601562 214.75 206.601562 211.640625 C 206.601562 211.640625 222.140625 212.480469 222.140625 212.480469 C 222.140625 212.480469 227.597656 209.121094 227.597656 209.121094 C 227.597656 211.203125 225.910156 211.238281 225.078125 212.898438 C 225.078125 212.898438 225.917969 216.679688 225.917969 216.679688 Z M 225.917969 216.679688 "/>
<path style=" stroke:none;fill-rule:nonzero;fill:rgb(88.235295%,94.117647%,5.098039%);fill-opacity:1;" d="M 204.921875 209.960938 L 205.761719 209.960938 C 205.761719 209.960938 205.761719 209.121094 205.761719 209.121094 C 205.761719 209.121094 204.921875 209.960938 204.921875 209.960938 Z M 204.921875 209.960938 "/>
<path style=" stroke:none;fill-rule:nonzero;fill:rgb(0.784314%,17.254902%,100%);fill-opacity:1;" d="M 203.242188 211.640625 C 203.242188 214.75 206.601562 214.75 206.601562 211.640625 C 206.601562 211.640625 205.761719 209.960938 205.761719 209.960938 C 205.761719 209.960938 204.921875 209.960938 204.921875 209.960938 C 204.921875 209.960938 204.082031 209.960938 204.082031 209.960938 C 204.082031 209.960938 203.242188 211.640625 203.242188 211.640625 Z M 203.242188 211.640625 "/>
<path style=" stroke:none;fill-rule:nonzero;fill:rgb(100%,43.137255%,0%);fill-opacity:1;" d="M 320.820312 210.800781 C 322.523438 210.800781 320.734375 212.480469 319.980469 212.480469 C 319.980469 212.480469 320.820312 210.800781 320.820312 210.800781 Z M 320.820312 210.800781 "/>
<path style=" stroke:none;fill-rule:nonzero;fill:rgb(88.235295%,94.117647%,5.098039%);fill-opacity:1;" d="M 164.609375 211.640625 L 163.769531 212.480469 C 163.769531 212.480469 164.609375 211.640625 164.609375 211.640625 Z M 164.609375 211.640625 "/>
<path style=" stroke:none;fill-rule:nonzero;fill:rgb(100%,56.862748%,72.941178%);fill-opacity:1;" d="M 154.53125 222.558594 L 159.570312 222.558594 C 159.570312 222.558594 159.570312 220.878906 159.570312 220.878906 C 156.84375 220.878906 156.84375 220.039062 159.570312 220.039062 C 159.570312 220.039062 160.410156 218.359375 160.410156 218.359375 C 160.410156 217.480469 160.011719 215.839844 161.25 215.839844 C 161.25 215.839844 161.25 213.320312 161.25 213.320312 C 161.25 213.320312 157.890625 214.160156 157.890625 214.160156 C 157.890625 214.160156 157.050781 215.839844 157.050781 215.839844 C 157.050781 215.839844 154.53125 222.558594 154.53125 222.558594 Z M 154.53125 222.558594 "/>
<path style=" stroke:none;fill-rule:nonzero;fill:rgb(48.627451%,98.823529%,0%);fill-opacity:1;" d="M 178.046875 229.277344 C 178.046875 230.519531 185.789062 233.59375 187.703125 232.636719 C 195.492188 228.742188 204.488281 229.277344 212.898438 229.277344 L 215.421875 228.4375 C 217.621094 229.535156 221.691406 231.796875 224.65625 231.796875 C 227.226562 231.796875 231.214844 229.277344 233.476562 229.277344 C 233.476562 227.34375 222.742188 219.199219 230.117188 219.199219 C 230.117188 219.199219 229.277344 217.519531 229.277344 217.519531 C 228.398438 217.519531 226.757812 217.917969 226.757812 216.679688 C 226.757812 216.679688 225.917969 216.679688 225.917969 216.679688 C 218.503906 216.679688 206.707031 214.160156 200.304688 214.160156 C 200.304688 214.160156 198.625 215.839844 198.625 215.839844 C 196.992188 216.65625 186.570312 217.519531 183.925781 217.519531 C 183.925781 217.519531 183.085938 218.359375 183.085938 218.359375 C 183.085938 218.359375 181.40625 218.359375 181.40625 218.359375 C 181.40625 218.359375 179.726562 219.199219 179.726562 219.199219 C 179.726562 221.308594 181.988281 229.277344 178.046875 229.277344 Z M 178.046875 229.277344 "/>
<path style=" stroke:none;fill-rule:nonzero;fill:rgb(88.235295%,94.117647%,5.098039%);fill-opacity:1;" d="M 161.25 215.839844 C 160.011719 215.839844 160.410156 217.480469 160.410156 218.359375 C 161.648438 218.359375 161.25 216.71875 161.25 215.839844 Z M 161.25 215.839844 "/>
<path style=" stroke:none;fill-rule:nonzero;fill:rgb(88.235295%,94.117647%,5.098039%);fill-opacity:1;" d="M 163.769531 215.839844 C 162.523438 215.839844 162.523438 218.359375 163.769531 218.359375 C 163.769531 218.359375 163.769531 215.839844 163.769531 215.839844 Z M 163.769531 215.839844 "/>
<path style=" stroke:none;fill-rule:nonzero;fill:rgb(88.235295%,94.117647%,5.098039%);fill-opacity:1;" d="M 226.757812 216.679688 C 227.636719 216.679688 229.277344 216.28125 229.277344 217.519531 C 228.398438 217.519531 226.757812 217.917969 226.757812 216.679688 Z M 226.757812 216.679688 "/>
<path style=" stroke:none;fill-rule:nonzero;fill:rgb(88.235295%,94.117647%,5.098039%);fill-opacity:1;" d="M 245.234375 216.679688 L 246.074219 217.519531 C 246.074219 217.519531 245.234375 216.679688 245.234375 216.679688 Z M 245.234375 216.679688 "/>
<path style=" stroke:none;fill-rule:nonzero;fill:rgb(88.235295%,94.117647%,5.098039%);fill-opacity:1;" d="M 183.925781 217.519531 L 183.085938 218.359375 C 183.085938 218.359375 183.925781 217.519531 183.925781 217.519531 Z M 183.925781 217.519531 "/>
<path style=" stroke:none;fill-rule:nonzero;fill:rgb(100%,73.333335%,0%);fill-opacity:1;" d="M 177.207031 220.878906 C 177.207031 224.78125 158.800781 229.277344 169.648438 229.277344 L 178.046875 229.277344 C 181.988281 229.277344 179.726562 221.308594 179.726562 219.199219 C 179.726562 219.199219 178.886719 219.199219 178.886719 219.199219 C 178.886719 219.199219 178.046875 219.199219 178.046875 219.199219 C 178.046875 219.199219 177.207031 220.039062 177.207031 220.039062 C 177.207031 220.039062 177.207031 220.878906 177.207031 220.878906 Z M 177.207031 220.878906 "/>
<path style=" stroke:none;fill-rule:nonzero;fill:rgb(100%,73.333335%,0%);fill-opacity:1;" d="M 284.707031 243.554688 L 286.386719 244.394531 C 286.386719 244.394531 287.226562 246.492188 287.226562 246.492188 C 286.039062 248.871094 281.03125 245.707031 280.085938 245.234375 C 275.972656 243.175781 264.550781 241.511719 264.550781 238.09375 C 264.550781 238.09375 260.773438 236.835938 260.773438 236.835938 C 260.773438 236.835938 254.890625 230.957031 254.890625 230.957031 C 250.8125 228.917969 245.078125 230.667969 240.617188 228.4375 C 239.234375 227.746094 233.476562 231.941406 233.476562 229.277344 C 233.476562 227.34375 222.742188 219.199219 230.117188 219.199219 C 230.117188 219.199219 230.957031 219.199219 230.957031 219.199219 C 230.957031 219.199219 231.796875 220.039062 231.796875 220.039062 C 231.796875 221.277344 233.4375 220.878906 234.316406 220.878906 C 234.316406 220.878906 238.09375 224.238281 238.09375 224.238281 C 239.03125 224.707031 242.714844 224.582031 242.714844 225.917969 C 242.714844 226.578125 246.644531 227.597656 247.335938 227.597656 C 251.480469 227.597656 255.507812 229.277344 260.351562 229.277344 C 260.351562 229.277344 265.390625 232.636719 265.390625 232.636719 C 265.390625 234.382812 275.070312 239.355469 277.148438 239.355469 C 277.148438 239.355469 277.988281 241.035156 277.988281 241.035156 C 277.785156 241.035156 281.730469 243.554688 284.707031 243.554688 Z M 284.707031 243.554688 "/>
<path style=" stroke:none;fill-rule:nonzero;fill:rgb(88.235295%,94.117647%,5.098039%);fill-opacity:1;" d="M 230.957031 219.199219 L 231.796875 220.039062 C 231.796875 220.039062 230.957031 219.199219 230.957031 219.199219 Z M 230.957031 219.199219 "/>
<path style=" stroke:none;fill-rule:nonzero;fill:rgb(88.235295%,94.117647%,5.098039%);fill-opacity:1;" d="M 242.714844 225.917969 C 242.714844 226.578125 246.644531 227.597656 247.335938 227.597656 C 251.480469 227.597656 255.507812 229.277344 260.351562 229.277344 C 260.351562 229.277344 251.53125 224.238281 251.53125 224.238281 C 250.132812 223.539062 250.828125 219.199219 249.433594 219.199219 C 247.996094 219.199219 249.144531 222.625 247.335938 221.71875 C 247.335938 221.71875 246.074219 219.199219 246.074219 219.199219 C 246.074219 223.125 247.25 225.917969 242.714844 225.917969 Z M 242.714844 225.917969 "/>
<path style=" stroke:none;fill-rule:nonzero;fill:rgb(88.235295%,94.117647%,5.098039%);fill-opacity:1;" d="M 159.570312 220.039062 C 156.84375 220.039062 156.84375 220.878906 159.570312 220.878906 C 159.570312 220.878906 159.570312 220.039062 159.570312 220.039062 Z M 159.570312 220.039062 "/>
<path style=" stroke:none;fill-rule:evenodd;fill:rgb(88.235295%,94.117647%,5.098039%);fill-opacity:1;" d="M 201.5625 243.554688 C 201.5625 246.699219 203.320312 243.554688 201.5625 243.554688 M 204.082031 231.796875 C 204.082031 234.941406 205.839844 231.796875 204.082031 231.796875 M 205.761719 268.75 C 209.546875 268.75 213.09375 271.367188 216.257812 272.949219 C 221.09375 275.367188 231.300781 271.652344 237.257812 274.628906 C 237.457031 274.730469 236.894531 282.425781 239.773438 283.867188 C 245.039062 286.5 250.554688 288.839844 255.734375 291.425781 C 260.871094 293.996094 276.941406 290.058594 280.929688 288.066406 L 285.125 288.90625 C 286.988281 287.976562 293.949219 280.921875 296.046875 278.828125 L 298.984375 274.628906 C 298.984375 268.46875 303.136719 263.386719 305.703125 258.25 C 307.511719 254.636719 302.773438 251.550781 301.503906 249.015625 C 300.429688 246.867188 303.183594 245.222656 303.183594 243.554688 C 303.183594 243.554688 301.503906 243.554688 301.503906 243.554688 C 301.503906 249.582031 288.847656 244.394531 286.386719 244.394531 C 286.386719 244.394531 287.226562 246.492188 287.226562 246.492188 C 286.039062 248.871094 281.03125 245.707031 280.085938 245.234375 C 275.972656 243.175781 264.550781 241.511719 264.550781 238.09375 C 264.550781 238.09375 260.773438 236.835938 260.773438 236.835938 C 260.773438 236.835938 254.890625 230.957031 254.890625 230.957031 C 250.8125 228.917969 245.078125 230.667969 240.617188 228.4375 C 239.234375 227.746094 233.476562 231.941406 233.476562 229.277344 C 231.214844 229.277344 227.226562 231.796875 224.65625 231.796875 C 221.691406 231.796875 217.621094 229.535156 215.421875 228.4375 C 215.421875 228.4375 212.898438 229.277344 212.898438 229.277344 C 204.488281 229.277344 195.492188 228.742188 187.703125 232.636719 C 185.789062 233.59375 178.046875 230.519531 178.046875 229.277344 C 178.046875 229.277344 173.007812 229.277344 173.007812 229.277344 C 173.007812 229.277344 169.648438 229.277344 169.648438 229.277344 C 158.800781 229.277344 177.207031 224.78125 177.207031 220.878906 C 177.207031 220.878906 175.527344 220.878906 175.527344 220.878906 C 175.527344 220.878906 170.90625 223.398438 170.90625 223.398438 C 168.289062 224.707031 166.371094 221.71875 164.609375 221.71875 C 163.296875 221.71875 161.355469 222.558594 159.570312 222.558594 C 159.570312 222.558594 154.53125 222.558594 154.53125 222.558594 C 152.539062 222.558594 154.53125 224.476562 154.53125 225.078125 C 158.949219 225.078125 155.117188 227.597656 152.851562 227.597656 C 152.851562 227.597656 152.011719 229.277344 152.011719 229.277344 C 153.242188 229.277344 161.808594 228.582031 160.410156 231.375 C 159.3125 233.578125 155.8125 231.785156 154.109375 232.636719 C 154.109375 232.636719 147.8125 236.414062 147.8125 236.414062 C 147.8125 236.414062 147.390625 238.515625 147.390625 238.515625 C 143.734375 240.34375 136.894531 241.832031 136.894531 244.8125 C 136.894531 244.8125 133.953125 245.234375 133.953125 245.234375 C 132.726562 245.847656 129.804688 249.039062 127.234375 247.753906 C 127.234375 247.753906 128.914062 244.394531 128.914062 244.394531 C 131.460938 243.121094 139.414062 239.300781 139.414062 237.675781 C 132.03125 237.675781 126.785156 244.199219 121.359375 246.914062 C 119.460938 247.863281 119.675781 245.652344 118.835938 245.234375 C 118.835938 245.234375 113.796875 246.074219 113.796875 246.074219 C 112.226562 245.289062 111.085938 243.554688 109.179688 243.554688 C 109.179688 245.808594 113.378906 247.378906 113.378906 248.171875 C 113.378906 248.171875 111.699219 249.851562 111.699219 249.851562 C 111.699219 259.945312 118.417969 268.644531 118.417969 278.828125 C 118.417969 280.269531 116.304688 286.378906 118 287.226562 C 118 287.226562 126.398438 285.546875 126.398438 285.546875 C 129.535156 287.117188 133.117188 291.007812 137.3125 293.105469 C 143.128906 296.011719 160.265625 287.089844 165.03125 284.707031 C 170.445312 282 170.230469 274.96875 175.945312 272.109375 C 175.945312 272.109375 184.34375 274.628906 184.34375 274.628906 C 188.832031 276.871094 197.0625 273.667969 199.882812 270.851562 C 199.882812 270.851562 203.242188 268.75 203.242188 268.75 C 203.242188 261.5625 203.242188 252.589844 203.242188 244.394531 C 203.242188 242.660156 202.558594 236.835938 204.5 236.835938 C 204.5 236.835938 207.441406 238.9375 207.441406 238.9375 C 207.441406 238.9375 205.761719 240.617188 205.761719 240.617188 C 204.851562 242.441406 205.761719 264.113281 205.761719 268.75 Z M 205.761719 268.75 "/>
<path style=" stroke:none;fill-rule:nonzero;fill:rgb(100%,56.862748%,72.941178%);fill-opacity:1;" d="M 154.53125 225.078125 C 158.949219 225.078125 155.117188 227.597656 152.851562 227.597656 C 152.851562 226.558594 153.207031 225.078125 154.53125 225.078125 Z M 154.53125 225.078125 "/>
<path style=" stroke:none;fill-rule:nonzero;fill:rgb(88.235295%,94.117647%,5.098039%);fill-opacity:1;" d="M 152.011719 229.277344 C 150.070312 229.277344 147.8125 228.546875 147.8125 230.957031 C 148.375 230.957031 152.011719 229.839844 152.011719 229.277344 Z M 152.011719 229.277344 "/>
<path style=" stroke:none;fill-rule:nonzero;fill:rgb(100%,73.333335%,0%);fill-opacity:1;" d="M 141.09375 235.996094 L 141.933594 235.996094 C 141.933594 235.996094 142.773438 235.15625 142.773438 235.15625 C 142.773438 235.15625 143.613281 235.15625 143.613281 235.15625 C 143.613281 235.15625 144.453125 234.316406 144.453125 234.316406 C 144.453125 234.316406 145.292969 233.476562 145.292969 233.476562 C 145.292969 233.476562 146.132812 232.636719 146.132812 232.636719 C 146.132812 232.636719 146.972656 231.796875 146.972656 231.796875 C 146.972656 231.796875 147.8125 230.957031 147.8125 230.957031 C 148.375 230.957031 152.011719 229.839844 152.011719 229.277344 C 153.242188 229.277344 161.808594 228.582031 160.410156 231.375 C 159.3125 233.578125 155.8125 231.785156 154.109375 232.636719 C 154.109375 232.636719 147.8125 236.414062 147.8125 236.414062 C 147.8125 236.414062 147.390625 238.515625 147.390625 238.515625 C 143.734375 240.34375 136.894531 241.832031 136.894531 244.8125 C 136.894531 244.8125 133.953125 245.234375 133.953125 245.234375 C 132.726562 245.847656 129.804688 249.039062 127.234375 247.753906 C 127.234375 247.753906 128.914062 244.394531 128.914062 244.394531 C 131.460938 243.121094 139.414062 239.300781 139.414062 237.675781 C 140.882812 237.675781 141.09375 237.464844 141.09375 235.996094 Z M 141.09375 235.996094 "/>
<path style=" stroke:none;fill-rule:nonzero;fill:rgb(88.235295%,94.117647%,5.098039%);fill-opacity:1;" d="M 147.8125 230.957031 L 146.972656 231.796875 C 146.972656 231.796875 147.8125 230.957031 147.8125 230.957031 Z M 147.8125 230.957031 "/>
<path style=" stroke:none;fill-rule:nonzero;fill:rgb(0.784314%,17.254902%,100%);fill-opacity:1;" d="M 204.082031 231.796875 C 204.082031 234.941406 205.839844 231.796875 204.082031 231.796875 Z M 204.082031 231.796875 "/>
<path style=" stroke:none;fill-rule:nonzero;fill:rgb(88.235295%,94.117647%,5.098039%);fill-opacity:1;" d="M 146.132812 232.636719 L 145.292969 233.476562 C 145.292969 233.476562 146.132812 232.636719 146.132812 232.636719 Z M 146.132812 232.636719 "/>
<path style=" stroke:none;fill-rule:nonzero;fill:rgb(88.235295%,94.117647%,5.098039%);fill-opacity:1;" d="M 265.390625 232.636719 C 266.511719 232.636719 280.476562 239.355469 277.148438 239.355469 C 275.070312 239.355469 265.390625 234.382812 265.390625 232.636719 Z M 265.390625 232.636719 "/>
<path style=" stroke:none;fill-rule:nonzero;fill:rgb(88.235295%,94.117647%,5.098039%);fill-opacity:1;" d="M 145.292969 233.476562 L 144.453125 234.316406 C 144.453125 234.316406 145.292969 233.476562 145.292969 233.476562 Z M 145.292969 233.476562 "/>
<path style=" stroke:none;fill-rule:nonzero;fill:rgb(88.235295%,94.117647%,5.098039%);fill-opacity:1;" d="M 144.453125 234.316406 L 143.613281 235.15625 C 143.613281 235.15625 144.453125 234.316406 144.453125 234.316406 Z M 144.453125 234.316406 "/>
<path style=" stroke:none;fill-rule:nonzero;fill:rgb(88.235295%,94.117647%,5.098039%);fill-opacity:1;" d="M 142.773438 235.15625 L 141.933594 235.996094 C 141.933594 235.996094 142.773438 235.15625 142.773438 235.15625 Z M 142.773438 235.15625 "/>
<path style=" stroke:none;fill-rule:nonzero;fill:rgb(88.235295%,94.117647%,5.098039%);fill-opacity:1;" d="M 141.09375 235.996094 L 139.414062 237.675781 C 140.882812 237.675781 141.09375 237.464844 141.09375 235.996094 Z M 141.09375 235.996094 "/>
<path style=" stroke:none;fill-rule:nonzero;fill:rgb(0.784314%,17.254902%,100%);fill-opacity:1;" d="M 203.242188 268.75 C 204.363281 268.75 204.640625 268.75 205.761719 268.75 C 205.761719 264.113281 204.851562 242.441406 205.761719 240.617188 C 205.761719 240.617188 207.441406 238.9375 207.441406 238.9375 C 207.441406 238.9375 204.5 236.835938 204.5 236.835938 C 202.558594 236.835938 203.242188 242.660156 203.242188 244.394531 C 203.242188 252.589844 203.242188 261.5625 203.242188 268.75 Z M 203.242188 268.75 "/>
<path style=" stroke:none;fill-rule:nonzero;fill:rgb(88.235295%,94.117647%,5.098039%);fill-opacity:1;" d="M 277.988281 241.035156 C 279.960938 241.035156 284.707031 241.480469 284.707031 243.554688 C 281.730469 243.554688 277.785156 241.035156 277.988281 241.035156 Z M 277.988281 241.035156 "/>
<path style=" stroke:none;fill-rule:nonzero;fill:rgb(0.784314%,17.254902%,100%);fill-opacity:1;" d="M 201.5625 243.554688 C 201.5625 246.699219 203.320312 243.554688 201.5625 243.554688 Z M 201.5625 243.554688 "/>
<path style=" stroke:none;fill-rule:nonzero;fill:rgb(14.901961%,49.411765%,100%);fill-opacity:1;" d="M 200.722656 272.109375 C 200.722656 277.191406 188.964844 273.375 188.964844 280.929688 C 188.964844 282.269531 192.324219 279.390625 192.324219 281.765625 L 191.90625 283.027344 C 193.429688 283.789062 218.109375 283.363281 218.78125 283.027344 C 220.871094 281.980469 227.453125 278.964844 222.140625 276.308594 C 219.207031 274.84375 215.003906 275.257812 212.0625 273.789062 C 208.476562 271.996094 205.453125 272.109375 200.722656 272.109375 Z M 200.722656 272.109375 "/>
<path style=" stroke:none;fill-rule:nonzero;fill:rgb(98.039216%,50.196081%,44.705883%);fill-opacity:1;" d="M 99.101562 288.90625 C 99.101562 289.367188 96.921875 293.105469 99.523438 293.105469 C 101.15625 293.105469 113.414062 304.636719 114.640625 304.023438 C 117.5625 302.5625 117.5625 297.925781 114.640625 296.464844 C 110.480469 294.386719 108.535156 290.472656 107.078125 289.746094 C 105.3125 288.863281 104.835938 291.425781 103.71875 291.425781 Z M 99.101562 288.90625 "/>
<path style=" stroke:none;fill-rule:nonzero;fill:rgb(98.039216%,50.196081%,44.705883%);fill-opacity:1;" d="M 303.183594 288.90625 L 301.503906 291.84375 L 301.085938 295.625 C 299.40625 296.464844 299.707031 291.242188 298.984375 292.6875 L 298.984375 296.882812 C 297.773438 299.308594 296.433594 308.027344 302.765625 304.863281 C 305.714844 303.386719 303.84375 301.441406 304.863281 299.40625 C 305.96875 297.195312 315.59375 288.90625 303.183594 288.90625 Z M 303.183594 288.90625 "/>
<path style=" stroke:none;fill-rule:nonzero;fill:rgb(98.039216%,50.196081%,44.705883%);fill-opacity:1;" d="M 250.273438 291.425781 C 250.273438 292.582031 243.808594 296.378906 242.714844 298.5625 C 241.761719 300.472656 244.878906 306.542969 244.8125 306.542969 C 241.660156 306.542969 238.691406 303.25 235.996094 308.640625 C 234.972656 310.6875 236.835938 313.828125 236.835938 315.359375 C 236.835938 324.519531 234.09375 322.179688 243.132812 326.699219 C 244.089844 327.175781 246.484375 330.898438 248.171875 330.898438 L 250.695312 327.539062 L 253.210938 328.378906 L 254.890625 325.859375 C 257.183594 324.714844 263.304688 322.894531 264.550781 320.398438 C 265.527344 318.441406 264.449219 315.5625 265.390625 313.679688 C 265.890625 312.683594 268.703125 312.933594 269.589844 311.164062 C 270.550781 309.246094 271.59375 301.730469 270.429688 299.40625 C 267.613281 293.769531 259.078125 295.617188 257.414062 294.785156 C 254.710938 293.433594 253.601562 291.425781 250.273438 291.425781 Z M 250.273438 291.425781 "/>
<path style=" stroke:none;fill-rule:nonzero;fill:rgb(98.039216%,50.196081%,44.705883%);fill-opacity:1;" d="M 152.851562 294.785156 C 152.851562 297.160156 146.359375 297.273438 145.292969 299.40625 L 145.292969 301.921875 C 144.792969 302.921875 141.980469 302.671875 141.09375 304.445312 C 140.503906 305.621094 141.734375 309.0625 143.195312 309.0625 L 144.03125 307.382812 C 145.355469 307.382812 144.933594 311.28125 145.292969 312 L 150.332031 315.359375 C 151.175781 317.046875 147.28125 321.605469 150.75 323.339844 L 155.789062 324.179688 L 156.210938 329.640625 C 157.398438 332.015625 168.0625 332.320312 169.226562 331.738281 C 170.484375 331.109375 168.578125 326.699219 170.90625 326.699219 C 172.898438 326.699219 171.59375 330.898438 172.585938 330.898438 C 174.25 330.898438 174.28125 327.089844 174.6875 326.28125 C 175.976562 323.703125 177.011719 312.449219 175.527344 309.484375 C 173.828125 306.082031 171.296875 307.15625 168.390625 305.703125 C 160.300781 301.660156 167.179688 294.785156 152.851562 294.785156 Z M 152.851562 294.785156 "/>
<path style=" stroke:none;fill-rule:nonzero;fill:rgb(98.039216%,50.196081%,44.705883%);fill-opacity:1;" d="M 286.386719 309.0625 C 286.386719 310.699219 283.867188 311.277344 283.867188 313.261719 L 287.648438 316.621094 L 288.484375 319.980469 L 288.90625 316.203125 C 290.40625 313.199219 293.953125 309.0625 286.386719 309.0625 Z M 286.386719 309.0625 "/>
<path style=" stroke:none;fill-rule:nonzero;fill:rgb(98.039216%,50.196081%,44.705883%);fill-opacity:1;" d="M 124.296875 310.742188 C 124.296875 312.246094 121.550781 313.226562 122.617188 315.359375 C 130.085938 330.296875 138.753906 313.980469 132.273438 310.742188 C 130.3125 309.761719 126.175781 310.742188 124.296875 310.742188 Z M 124.296875 310.742188 "/>
</g>
</svg>
