<?xml version="1.0" encoding="UTF-8"?>
<svg xmlns="http://www.w3.org/2000/svg" xmlns:xlink="http://www.w3.org/1999/xlink" width="430px" height="430px" viewBox="0 0 430 430" version="1.1">
<g id="surface1">
<rect x="0" y="0" width="430" height="430" style="fill:rgb(0%,0%,0%);fill-opacity:1;stroke:none;"/>
<path style=" stroke:none;fill-rule:nonzero;fill:rgb(1.176471%,75.686276%,17.647059%);fill-opacity:1;" d="M 314.101562 115.058594 C 309.554688 115.058594 294.355469 112.125 290.164062 114.21875 C 286.175781 116.214844 283.226562 115.589844 279.25 117.578125 L 274.628906 120.9375 C 270.792969 120.9375 268.34375 114.667969 267.070312 112.117188 C 265.039062 108.054688 247.328125 93.644531 256.570312 89.023438 C 270.886719 81.867188 292.699219 93.234375 303.183594 103.71875 C 305.296875 105.832031 314.101562 112.113281 314.101562 115.058594 Z M 314.101562 115.058594 "/>
<path style=" stroke:none;fill-rule:nonzero;fill:rgb(1.176471%,75.686276%,17.647059%);fill-opacity:1;" d="M 90.703125 115.058594 C 94.015625 115.058594 119.886719 116.003906 121.359375 116.738281 C 122.695312 117.40625 131.96875 121.777344 132.695312 121.777344 C 132.695312 121.777344 138.574219 116.320312 138.574219 116.320312 C 142.464844 112.425781 144.210938 108.25 149.070312 105.820312 C 149.070312 105.820312 152.011719 102.039062 152.011719 102.039062 C 152.011719 102.039062 150.332031 101.203125 150.332031 101.203125 C 150.332031 101.203125 149.492188 97 149.492188 97 C 146.300781 90.621094 135.179688 97.195312 130.59375 94.902344 C 118.039062 88.625 119.898438 89.75 107.921875 95.742188 C 107.921875 95.742188 105.398438 99.101562 105.398438 99.101562 C 105.398438 99.101562 99.101562 105.398438 99.101562 105.398438 C 97.355469 108.886719 90.703125 110.332031 90.703125 115.058594 Z M 90.703125 115.058594 "/>
<path style=" stroke:none;fill-rule:nonzero;fill:rgb(93.333334%,18.431373%,17.254902%);fill-opacity:1;" d="M 149.492188 140.253906 L 149.492188 141.09375 C 149.492188 141.09375 154.109375 146.132812 154.109375 146.132812 C 154.898438 146.523438 168.066406 147.554688 169.226562 146.972656 C 169.226562 146.972656 172.585938 141.933594 172.585938 141.933594 C 177.015625 139.71875 192.214844 128.496094 195.683594 128.496094 C 195.683594 128.496094 196.523438 128.496094 196.523438 128.496094 C 196.523438 127.257812 198.164062 127.65625 199.042969 127.65625 C 199.042969 127.65625 200.722656 125.976562 200.722656 125.976562 C 200.722656 122.515625 205.3125 118.78125 203.242188 114.640625 C 201.441406 111.035156 197.667969 108.28125 194.421875 106.660156 C 194.421875 106.660156 188.546875 101.621094 188.546875 101.621094 C 181.25 97.972656 165.84375 105.84375 161.25 110.4375 C 161.25 110.4375 156.210938 114.640625 156.210938 114.640625 C 155.417969 116.222656 151.183594 123.058594 152.011719 124.71875 C 152.011719 124.71875 153.691406 125.554688 153.691406 125.554688 C 153.691406 125.554688 152.011719 126.398438 152.011719 126.398438 C 150.828125 128.761719 149.492188 137.378906 149.492188 140.253906 Z M 149.492188 140.253906 "/>
<path style=" stroke:none;fill-rule:nonzero;fill:rgb(93.333334%,18.431373%,17.254902%);fill-opacity:1;" d="M 216.679688 127.65625 C 218.554688 127.65625 220.0625 130.175781 222.558594 130.175781 C 222.558594 130.175781 228.015625 136.054688 228.015625 136.054688 C 230.261719 137.175781 230.78125 139.117188 233.054688 140.253906 C 233.054688 140.253906 243.976562 140.253906 243.976562 140.253906 C 243.976562 140.253906 249.851562 142.773438 249.851562 142.773438 C 252.347656 141.527344 251.09375 139.875 251.953125 138.15625 C 252.648438 136.765625 256.675781 137.105469 257.832031 134.796875 C 258.640625 133.175781 257.605469 130.136719 256.992188 128.914062 C 256.992188 128.914062 256.992188 120.515625 256.992188 120.515625 C 255.960938 118.453125 256.324219 115.824219 255.3125 113.796875 C 254.203125 111.578125 250.074219 110.128906 248.171875 109.179688 C 248.171875 109.179688 243.976562 104.140625 243.976562 104.140625 C 242.046875 103.175781 240.5625 104.953125 238.9375 104.140625 C 231.898438 100.621094 225.859375 104.378906 219.617188 107.5 C 219.617188 107.5 217.101562 110.859375 217.101562 110.859375 C 211.804688 113.507812 211.640625 119.277344 211.640625 124.296875 C 211.640625 124.296875 213.320312 125.136719 213.320312 125.136719 C 213.320312 125.136719 216.679688 127.65625 216.679688 127.65625 Z M 216.679688 127.65625 "/>
<path style=" stroke:none;fill-rule:nonzero;fill:rgb(53.725493%,82.745099%,33.333334%);fill-opacity:1;" d="M 322.5 124.296875 C 317.824219 124.296875 310.207031 120.15625 305.28125 122.617188 C 301.191406 124.664062 294.988281 122.304688 291.007812 124.296875 L 282.1875 127.65625 C 278.949219 127.65625 274.628906 124.449219 274.628906 120.9375 C 274.628906 120.9375 279.25 117.578125 279.25 117.578125 C 283.226562 115.589844 286.175781 116.214844 290.164062 114.21875 C 294.355469 112.125 309.554688 115.058594 314.101562 115.058594 C 318.960938 115.058594 328.492188 124.296875 322.5 124.296875 Z M 322.5 124.296875 "/>
<path style=" stroke:none;fill-rule:nonzero;fill:rgb(53.725493%,82.745099%,33.333334%);fill-opacity:1;" d="M 132.695312 124.296875 C 132.695312 125.691406 128.347656 131.855469 126.816406 131.855469 C 126.816406 131.855469 121.359375 128.496094 121.359375 128.496094 C 121.359375 128.496094 115.476562 128.496094 115.476562 128.496094 C 115.476562 128.496094 109.601562 125.976562 109.601562 125.976562 C 102.027344 125.976562 92.070312 124.296875 83.984375 124.296875 C 83.984375 124.296875 82.304688 122.195312 82.304688 122.195312 C 80.445312 118.476562 87.964844 115.058594 90.703125 115.058594 C 94.015625 115.058594 119.886719 116.003906 121.359375 116.738281 C 122.695312 117.40625 131.96875 121.777344 132.695312 121.777344 C 132.695312 121.777344 132.695312 122.617188 132.695312 122.617188 C 132.695312 122.617188 132.695312 124.296875 132.695312 124.296875 Z M 132.695312 124.296875 "/>
<path style=" stroke:none;fill-rule:evenodd;fill:rgb(100%,100%,0%);fill-opacity:1;" d="M 283.027344 195.683594 C 283.027344 198.195312 280.65625 197.078125 278.40625 198.203125 L 277.570312 199.882812 L 276.308594 198.625 C 275.847656 199.546875 278.554688 204.082031 280.085938 204.082031 C 281.082031 204.082031 283.78125 204.921875 285.125 204.921875 L 287.648438 202.402344 L 288.484375 204.082031 C 293.472656 204.082031 295.269531 197.363281 287.648438 197.363281 L 283.027344 195.683594 M 292.265625 194.003906 C 292.265625 197.148438 294.023438 194.003906 292.265625 194.003906 M 116.738281 192.324219 L 115.058594 193.585938 L 116.320312 194.003906 L 117.15625 195.683594 C 117.769531 195.683594 118.074219 192.324219 116.738281 192.324219 M 280.507812 185.605469 C 280.507812 189.875 278.570312 185.699219 277.988281 186.867188 L 277.988281 189.382812 L 276.308594 190.226562 L 277.570312 193.164062 C 279.757812 194.257812 281.941406 190.730469 283.445312 191.484375 C 285.117188 192.320312 289.28125 194.84375 291.007812 194.84375 L 291.007812 192.324219 C 289.898438 191.769531 288.871094 192.675781 288.066406 191.0625 L 288.066406 188.546875 C 287.40625 187.226562 286.246094 189.242188 285.125 188.125 C 284.566406 187.566406 284.996094 184.832031 283.445312 185.605469 L 282.609375 187.285156 C 282.078125 187.285156 282.03125 185.605469 280.507812 185.605469 M 276.308594 177.207031 L 275.46875 178.46875 C 275.46875 181.675781 281.035156 177.207031 276.308594 177.207031 M 223.398438 177.207031 C 223.398438 178.902344 218.976562 178.886719 217.9375 178.886719 C 214.378906 178.886719 202.976562 175.449219 197.78125 178.046875 L 196.101562 179.726562 C 194.617188 179.726562 196.832031 177.683594 194.421875 178.886719 C 193.453125 179.371094 186.445312 180.511719 186.445312 181.828125 L 188.964844 182.664062 C 190.171875 185.078125 190.054688 181.488281 190.644531 182.664062 C 191.289062 183.957031 191.429688 185.605469 193.585938 185.605469 L 195.265625 183.925781 L 196.101562 186.445312 C 198.671875 186.445312 201.757812 188.125 202.820312 188.125 C 207.578125 188.125 210.832031 187.480469 214.578125 185.605469 C 217.285156 184.253906 222.199219 187.253906 225.5 185.605469 L 225.917969 183.507812 L 228.4375 182.664062 C 230.1875 179.164062 226.789062 177.207031 223.398438 177.207031 M 272.949219 175.527344 C 272.949219 177.285156 276.09375 175.527344 272.949219 175.527344 M 140.253906 174.6875 C 140.253906 177.988281 136.484375 177.609375 135.214844 180.148438 C 133.925781 182.722656 126.472656 192.707031 123.875 194.003906 C 122.726562 194.578125 120.371094 200.722656 123.039062 200.722656 C 125.335938 200.722656 125.394531 199.964844 127.234375 199.042969 C 128.175781 198.574219 129.96875 199.042969 130.59375 199.042969 C 132.039062 199.042969 134.136719 189.859375 135.214844 187.703125 L 142.773438 182.664062 C 143.332031 181.550781 145.4375 175.527344 142.351562 175.527344 L 141.09375 176.789062 C 140.707031 176.015625 141.734375 174.6875 140.253906 174.6875 M 266.230469 170.488281 C 266.230469 172.246094 269.375 170.488281 266.230469 170.488281 M 248.59375 162.929688 L 251.113281 165.867188 C 251.113281 167.214844 248.1875 167.144531 251.953125 170.90625 L 256.152344 171.75 L 254.472656 173.429688 L 259.511719 173.429688 C 260.515625 171.417969 252.792969 170.769531 252.792969 169.226562 C 252.792969 166.402344 253.183594 162.929688 248.59375 162.929688 M 217.519531 161.25 L 215.421875 162.929688 C 212.179688 162.929688 210.238281 162.929688 206.601562 162.929688 C 200.324219 162.929688 176.675781 161.726562 172.585938 163.769531 C 170.554688 164.785156 161.894531 171.359375 162.929688 173.429688 C 165.195312 177.960938 166.976562 171.460938 170.070312 173.007812 C 184.992188 180.46875 185.820312 172.167969 201.5625 172.167969 C 206.242188 172.167969 212.328125 172.453125 216.257812 170.488281 C 219.507812 168.863281 226.894531 171.328125 228.859375 171.328125 C 231.8125 171.328125 237.421875 175.527344 240.617188 175.527344 C 241.085938 175.527344 241.441406 179.726562 243.132812 179.726562 C 244.445312 179.726562 245.996094 177.207031 246.492188 177.207031 L 247.335938 179.726562 L 249.851562 178.886719 L 254.054688 183.085938 L 257.414062 184.765625 L 259.09375 183.085938 L 259.09375 184.765625 C 260.957031 185.699219 267.683594 187.609375 270.007812 186.445312 C 272.789062 185.054688 273.976562 179.609375 270.851562 178.046875 C 268.15625 176.699219 259.84375 177.207031 257.414062 177.207031 L 256.570312 178.886719 L 255.734375 177.207031 C 254.523438 177.207031 252.742188 176.367188 251.53125 176.367188 L 250.695312 178.046875 L 249.851562 175.527344 C 248.578125 174.253906 244.453125 167.367188 243.976562 167.128906 C 235.671875 162.976562 227.277344 161.25 217.519531 161.25 M 118.417969 149.492188 C 118.417969 150.882812 107.730469 159.53125 106.660156 161.671875 C 106.386719 162.214844 103.480469 166.289062 106.242188 166.289062 C 108.804688 166.289062 125.160156 149.492188 118.417969 149.492188 M 283.867188 143.613281 C 283.867188 152.324219 292.449219 158.492188 298.5625 164.609375 C 299.703125 165.746094 304.597656 170.410156 306.125 169.648438 C 310.523438 167.449219 306.941406 161.226562 304.863281 159.148438 L 298.5625 152.851562 L 296.882812 150.332031 C 295 150.332031 294.085938 150.613281 291.84375 149.492188 C 289.1875 148.164062 286.980469 143.613281 283.867188 143.613281 M 202.402344 141.09375 C 202.402344 143.101562 194.964844 141.242188 193.585938 141.933594 C 190.539062 143.457031 186.050781 146.132812 182.664062 146.132812 L 180.148438 151.171875 L 179.304688 148.652344 L 178.046875 152.429688 L 180.148438 152.011719 L 184.765625 152.851562 C 191.066406 152.851562 197.953125 151.171875 204.5 151.171875 C 207.238281 151.171875 210.71875 152.011719 212.898438 152.011719 L 214.578125 150.332031 C 218.636719 150.332031 224.089844 152.851562 227.179688 152.851562 L 228.015625 150.332031 C 229.136719 150.332031 227.472656 154.804688 229.695312 153.691406 C 230.742188 153.167969 228.027344 148.25 227.597656 147.390625 C 226.335938 144.871094 217.691406 140.796875 215.421875 141.933594 C 213.421875 142.933594 206.398438 141.09375 202.402344 141.09375 M 127.65625 141.09375 C 127.65625 148.707031 130.683594 141.09375 127.65625 141.09375 M 136.894531 139.414062 L 131.855469 144.875 C 129.441406 149.703125 127.578125 155.109375 125.136719 159.992188 C 121.421875 167.421875 109.671875 170.765625 106.660156 176.789062 C 105.128906 179.847656 104.136719 183.5 105.820312 186.867188 L 106.242188 189.804688 C 115.84375 189.804688 120.96875 185.121094 126.816406 173.429688 C 128.976562 169.105469 138.800781 162.898438 141.933594 156.632812 C 143.179688 154.140625 139.679688 145.402344 138.574219 143.195312 C 138 142.042969 139.304688 139.414062 136.894531 139.414062 M 267.070312 136.894531 C 267.070312 139.078125 265.847656 143.265625 267.070312 145.710938 C 268.222656 148.015625 270.429688 151.457031 270.429688 154.109375 C 270.429688 156.703125 262.460938 157.488281 265.390625 163.351562 L 279.25 173.007812 C 285.535156 176.152344 291.765625 184.6875 296.882812 189.804688 C 299.019531 191.941406 301.5625 194.003906 304.445312 194.003906 L 305.28125 192.324219 L 306.542969 192.742188 C 308.113281 189.601562 308.21875 185.179688 306.542969 181.828125 C 303.777344 176.296875 286.761719 169.980469 282.1875 160.828125 C 280.058594 156.570312 271.585938 136.894531 267.070312 136.894531 M 214.160156 136.894531 C 214.160156 138.652344 217.304688 136.894531 214.160156 136.894531 M 293.105469 204.921875 C 293.105469 203.925781 293.945312 203.925781 293.945312 204.921875 C 296.351562 204.921875 292.457031 200.722656 294.367188 200.722656 C 294.367188 200.722656 295.203125 203.242188 295.203125 203.242188 C 300.457031 203.242188 296.464844 198.226562 296.464844 196.945312 C 296.464844 196.875 305.546875 196.523438 305.703125 196.523438 C 305.703125 196.523438 306.542969 195.683594 306.542969 195.683594 C 313.175781 195.683594 309.597656 180.378906 308.222656 177.625 C 308.222656 177.625 305.703125 174.265625 305.703125 174.265625 C 306.027344 173.621094 308.15625 174.6875 308.640625 174.6875 C 310.347656 174.6875 312.558594 170.636719 313.261719 169.226562 C 313.261719 169.226562 312.421875 161.671875 312.421875 161.671875 C 312.421875 161.671875 309.0625 159.148438 309.0625 159.148438 C 309.0625 159.148438 304.863281 152.429688 304.863281 152.429688 C 304.863281 152.429688 303.183594 152.429688 303.183594 152.429688 C 303.183594 152.429688 301.085938 146.972656 301.085938 146.972656 C 301.085938 146.972656 298.5625 146.972656 298.5625 146.972656 C 298.5625 146.972656 293.945312 140.671875 293.945312 140.671875 C 293.945312 140.671875 292.265625 140.671875 292.265625 140.671875 C 292.265625 140.671875 291.007812 137.734375 291.007812 137.734375 C 289.5 136.980469 287.316406 140.507812 285.125 139.414062 C 283.285156 138.492188 281.976562 135.53125 279.25 136.894531 C 277.832031 137.601562 278.554688 142.773438 276.726562 142.773438 C 276.726562 142.773438 276.308594 140.671875 276.308594 140.671875 C 275.558594 139.175781 273.945312 136.785156 272.949219 134.796875 C 271.863281 132.625 268.003906 129.945312 267.910156 129.757812 C 267.910156 129.757812 266.648438 125.136719 266.648438 125.136719 C 266.648438 125.136719 265.8125 126.816406 265.8125 126.816406 C 265.242188 126.816406 264.527344 121.554688 263.289062 120.9375 C 263.289062 120.9375 261.191406 123.039062 261.191406 123.039062 C 259.226562 126.964844 262.210938 135.277344 262.03125 135.632812 C 262.03125 135.632812 260.351562 133.953125 260.351562 133.953125 C 260.351562 133.953125 259.929688 145.292969 259.929688 145.292969 C 259.929688 145.292969 259.09375 141.09375 259.09375 141.09375 C 259.09375 141.09375 257.832031 145.710938 257.832031 145.710938 C 257.832031 151.761719 258.582031 156.449219 261.191406 161.671875 C 261.625 162.535156 261.296875 166.289062 259.929688 166.289062 C 259.929688 166.289062 259.09375 164.609375 259.09375 164.609375 C 256.847656 164.609375 258.273438 162.550781 256.992188 159.992188 C 256.992188 159.992188 254.890625 161.25 254.890625 161.25 C 254.890625 161.25 253.632812 157.46875 253.632812 157.46875 C 253 156.203125 251.882812 148.652344 249.851562 148.652344 C 246.914062 148.652344 240.773438 146.972656 237.257812 146.972656 C 237.257812 146.972656 234.734375 149.492188 234.734375 149.492188 C 234.734375 149.492188 233.898438 146.972656 233.898438 146.972656 C 229.863281 146.972656 228.675781 140.582031 222.976562 137.734375 C 220.941406 136.714844 216.78125 139.195312 216.679688 138.992188 C 214.851562 135.335938 225.078125 137.414062 225.078125 135.632812 C 225.078125 133.824219 222.558594 132.558594 222.558594 130.175781 C 220.0625 130.175781 218.554688 127.65625 216.679688 127.65625 C 215.480469 127.65625 213.320312 126.574219 213.320312 125.136719 C 213.320312 125.136719 211.640625 124.296875 211.640625 124.296875 C 211.640625 127.679688 207.398438 123.457031 207.023438 123.457031 C 203.691406 123.457031 202.71875 125.976562 200.722656 125.976562 C 200.722656 127.445312 200.511719 127.65625 199.042969 127.65625 C 199.042969 128.894531 197.402344 128.496094 196.523438 128.496094 C 196.523438 128.496094 195.683594 128.496094 195.683594 128.496094 C 195.683594 130.613281 189.804688 133.1875 189.804688 136.476562 C 189.804688 136.476562 194.84375 138.15625 194.84375 138.15625 C 194.84375 140.546875 183.273438 139.109375 180.984375 140.253906 C 180.316406 140.589844 178.011719 144.261719 174.265625 146.132812 C 174.265625 146.132812 173.429688 148.652344 173.429688 148.652344 C 173.429688 148.652344 172.167969 147.390625 172.167969 147.390625 C 170.84375 150.042969 173.375 151.199219 170.070312 152.851562 C 170.070312 152.851562 159.992188 152.851562 159.992188 152.851562 C 158.726562 152.21875 160.226562 147.695312 156.632812 149.492188 C 154.003906 150.804688 149.859375 157.050781 148.234375 157.050781 C 147.410156 157.050781 148.359375 162.574219 145.710938 161.25 C 143.675781 160.230469 148.941406 154.371094 149.492188 153.273438 C 151.964844 148.328125 149.492188 145.613281 149.492188 141.09375 C 149.492188 141.09375 149.492188 140.253906 149.492188 140.253906 C 145.398438 140.253906 148.941406 130.949219 145.710938 129.335938 C 139.113281 126.035156 130.847656 142.773438 130.59375 142.773438 C 130.363281 142.773438 129.046875 136.539062 128.078125 136.054688 C 128.078125 136.054688 125.136719 137.734375 125.136719 137.734375 C 125.136719 137.734375 122.617188 138.574219 122.617188 138.574219 C 122.617188 139.898438 121.136719 140.253906 120.097656 140.253906 C 120.097656 140.253906 119.257812 141.09375 119.257812 141.09375 C 119.257812 141.09375 116.738281 142.773438 116.738281 142.773438 C 116.738281 142.773438 115.898438 143.613281 115.898438 143.613281 C 115.898438 143.613281 115.058594 144.453125 115.058594 144.453125 C 115.058594 147.128906 106.097656 153.558594 104.980469 155.789062 C 102.316406 161.117188 100.78125 165.660156 100.78125 171.75 C 100.78125 172.792969 106.722656 169.941406 104.980469 173.429688 C 104.980469 173.429688 103.300781 173.429688 103.300781 173.429688 C 102.054688 175.917969 98.664062 182.632812 99.941406 185.1875 C 102.058594 189.421875 104.464844 195.683594 110.4375 195.683594 C 110.4375 195.683594 114.640625 194.003906 114.640625 194.003906 C 114.640625 194.003906 114.21875 199.460938 114.21875 199.460938 C 116.363281 203.753906 118.964844 204.921875 123.039062 204.921875 C 123.039062 204.921875 123.875 206.601562 123.875 206.601562 C 125.941406 206.601562 137.714844 202.859375 139.414062 199.460938 C 140.460938 197.367188 137.878906 193.722656 140.671875 192.324219 C 144.09375 190.613281 152.257812 184.695312 152.851562 183.507812 C 154.433594 180.34375 150.648438 171.953125 151.171875 170.90625 C 152.984375 167.28125 160.132812 162.089844 163.351562 162.089844 C 165.003906 162.089844 164.078125 164.410156 163.769531 165.03125 C 163.769531 165.03125 157.050781 171.75 157.050781 171.75 C 155.953125 173.941406 160.410156 180.175781 160.410156 181.40625 C 161.773438 181.40625 162.71875 181.40625 164.609375 181.40625 C 164.609375 181.40625 166.289062 181.40625 166.289062 181.40625 C 166.289062 181.40625 169.648438 181.40625 169.648438 181.40625 C 169.648438 177.378906 173.847656 179.558594 173.847656 181.40625 C 173.847656 181.40625 177.207031 182.246094 177.207031 182.246094 C 177.207031 181.25 178.046875 181.25 178.046875 182.246094 C 179.171875 182.246094 182.246094 187.058594 182.246094 188.125 C 183.738281 188.125 187.414062 190.644531 187.703125 190.644531 C 187.703125 190.644531 189.382812 188.964844 189.382812 188.964844 C 189.382812 188.964844 191.0625 190.644531 191.0625 190.644531 C 193.457031 191.839844 199.511719 190.667969 201.140625 191.484375 C 201.140625 191.484375 204.5 193.164062 204.5 193.164062 C 204.5 193.164062 205.34375 191.484375 205.34375 191.484375 C 205.675781 191.484375 210.066406 193.164062 211.21875 193.164062 C 216.070312 193.164062 222.140625 190.644531 225.5 190.644531 C 225.5 190.644531 228.015625 188.125 228.015625 188.125 C 235.113281 184.578125 230.210938 183.316406 232.636719 178.46875 C 232.636719 178.46875 234.734375 178.046875 234.734375 178.046875 C 239.710938 180.535156 253.113281 187.285156 256.570312 187.285156 C 256.570312 187.285156 259.929688 190.644531 259.929688 190.644531 C 259.929688 190.644531 260.773438 188.964844 260.773438 188.964844 C 260.773438 188.964844 262.453125 193.164062 262.453125 193.164062 C 262.453125 193.164062 264.132812 192.324219 264.132812 192.324219 C 264.132812 192.324219 264.550781 195.265625 264.550781 195.265625 C 265.089844 196.339844 273.046875 205.761719 273.367188 205.761719 C 275.671875 205.761719 284.910156 208.390625 286.804688 207.441406 C 286.804688 207.441406 293.105469 204.921875 293.105469 204.921875 Z M 293.105469 204.921875 "/>
<path style=" stroke:none;fill-rule:nonzero;fill:rgb(1.176471%,75.686276%,17.647059%);fill-opacity:1;" d="M 132.695312 122.617188 C 133.871094 122.617188 133.871094 124.296875 132.695312 124.296875 C 132.695312 124.296875 132.695312 122.617188 132.695312 122.617188 Z M 132.695312 122.617188 "/>
<path style=" stroke:none;fill-rule:nonzero;fill:rgb(86.666667%,85.09804%,31.764707%);fill-opacity:1;" d="M 327.539062 128.496094 L 325.019531 129.335938 C 325.019531 129.335938 323.339844 128.496094 323.339844 128.496094 C 316.238281 128.496094 306.273438 122.542969 299.40625 125.976562 C 299.40625 125.976562 291.84375 128.496094 291.84375 128.496094 C 291.84375 128.496094 288.066406 131.855469 288.066406 131.855469 C 286.261719 131.855469 282.1875 129.90625 282.1875 127.65625 C 282.1875 127.65625 291.007812 124.296875 291.007812 124.296875 C 294.988281 122.304688 301.191406 124.664062 305.28125 122.617188 C 310.207031 120.15625 317.824219 124.296875 322.5 124.296875 C 322.5 125.449219 327.539062 126.027344 327.539062 128.496094 Z M 327.539062 128.496094 "/>
<path style=" stroke:none;fill-rule:nonzero;fill:rgb(86.666667%,85.09804%,31.764707%);fill-opacity:1;" d="M 125.136719 137.734375 L 122.617188 138.574219 C 122.617188 138.574219 119.257812 136.894531 119.257812 136.894531 C 119.257812 132.03125 112.300781 134.046875 109.601562 132.695312 C 106.027344 130.910156 84.425781 130.175781 78.945312 130.175781 C 78.945312 126.851562 80.355469 124.296875 83.984375 124.296875 C 92.070312 124.296875 102.027344 125.976562 109.601562 125.976562 C 109.601562 125.976562 115.476562 128.496094 115.476562 128.496094 C 115.476562 128.496094 121.359375 128.496094 121.359375 128.496094 C 121.359375 128.496094 126.816406 131.855469 126.816406 131.855469 C 126.816406 131.855469 124.296875 133.117188 124.296875 133.117188 C 124.296875 133.117188 125.136719 137.734375 125.136719 137.734375 Z M 125.136719 137.734375 "/>
<path style=" stroke:none;fill-rule:nonzero;fill:rgb(100%,73.333335%,5.098039%);fill-opacity:1;" d="M 327.539062 128.496094 L 325.019531 129.335938 C 325.019531 129.335938 323.339844 128.496094 323.339844 128.496094 C 316.238281 128.496094 306.273438 122.542969 299.40625 125.976562 C 299.40625 125.976562 291.84375 128.496094 291.84375 128.496094 C 291.84375 128.496094 288.066406 131.855469 288.066406 131.855469 C 288.066406 137.667969 300.507812 139.125 302.765625 140.253906 C 302.765625 140.253906 309.484375 145.292969 309.484375 145.292969 C 311.019531 146.0625 314.035156 152.300781 314.941406 154.109375 C 314.941406 154.109375 321.660156 160.828125 321.660156 160.828125 C 323.867188 165.246094 323.667969 170.722656 325.859375 175.109375 C 325.859375 175.109375 333.417969 183.507812 333.417969 183.507812 C 333.417969 183.507812 337.195312 185.605469 337.195312 185.605469 C 341.492188 187.753906 345.980469 195.335938 350.214844 186.867188 C 353.144531 181.007812 350.480469 173.121094 347.695312 167.546875 C 347.695312 167.546875 347.695312 163.351562 347.695312 163.351562 C 347.695312 163.351562 346.4375 163.769531 346.4375 163.769531 C 346.4375 163.769531 342.65625 159.992188 342.65625 159.992188 C 339.828125 154.335938 337.90625 147.964844 335.097656 142.351562 C 333.160156 138.476562 327.539062 132.886719 327.539062 128.496094 Z M 327.539062 128.496094 "/>
<path style=" stroke:none;fill-rule:nonzero;fill:rgb(100%,73.333335%,5.098039%);fill-opacity:1;" d="M 115.898438 143.613281 L 115.058594 144.453125 C 113.300781 144.453125 110.894531 148.460938 109.601562 147.8125 C 108.253906 147.140625 113.492188 143.613281 110.4375 143.613281 C 105.875 143.613281 108.472656 151.316406 102.039062 154.53125 C 96.148438 157.476562 78.863281 184.511719 75.585938 191.0625 C 74.78125 192.675781 61.617188 199.40625 60.890625 199.042969 C 57.234375 197.214844 53.742188 196.085938 52.070312 192.742188 C 51.265625 191.132812 47.636719 188.171875 48.710938 186.023438 C 48.710938 186.023438 56.269531 177.625 56.269531 177.625 C 58.199219 173.769531 56.878906 168.011719 58.789062 164.1875 C 58.789062 164.1875 64.667969 157.46875 64.667969 157.46875 C 66.535156 153.734375 66.160156 148.609375 68.027344 144.875 C 69.394531 142.140625 78.945312 132.132812 78.945312 130.175781 C 84.425781 130.175781 106.027344 130.910156 109.601562 132.695312 C 112.300781 134.046875 119.257812 132.03125 119.257812 136.894531 C 117.894531 136.894531 120.097656 139.054688 120.097656 140.253906 C 120.097656 140.253906 119.257812 141.09375 119.257812 141.09375 C 119.257812 141.09375 116.738281 142.773438 116.738281 142.773438 C 116.738281 142.773438 115.898438 143.613281 115.898438 143.613281 Z M 115.898438 143.613281 "/>
<path style=" stroke:none;fill-rule:nonzero;fill:rgb(0%,100%,100%);fill-opacity:1;" d="M 267.070312 136.894531 C 267.070312 139.078125 265.847656 143.265625 267.070312 145.710938 C 268.222656 148.015625 270.429688 151.457031 270.429688 154.109375 C 270.429688 156.703125 262.460938 157.488281 265.390625 163.351562 L 279.25 173.007812 C 285.535156 176.152344 291.765625 184.6875 296.882812 189.804688 C 299.019531 191.941406 301.5625 194.003906 304.445312 194.003906 L 305.28125 192.324219 L 306.542969 192.742188 C 308.113281 189.601562 308.21875 185.179688 306.542969 181.828125 C 303.777344 176.296875 286.761719 169.980469 282.1875 160.828125 C 280.058594 156.570312 271.585938 136.894531 267.070312 136.894531 Z M 267.070312 136.894531 "/>
<path style=" stroke:none;fill-rule:nonzero;fill:rgb(0%,100%,100%);fill-opacity:1;" d="M 136.894531 139.414062 L 131.855469 144.875 C 129.441406 149.703125 127.578125 155.109375 125.136719 159.992188 C 121.421875 167.421875 109.671875 170.765625 106.660156 176.789062 C 105.128906 179.847656 104.136719 183.5 105.820312 186.867188 L 106.242188 189.804688 C 115.84375 189.804688 120.96875 185.121094 126.816406 173.429688 C 128.976562 169.105469 138.800781 162.898438 141.933594 156.632812 C 143.179688 154.140625 139.679688 145.402344 138.574219 143.195312 C 138 142.042969 139.304688 139.414062 136.894531 139.414062 Z M 136.894531 139.414062 "/>
<path style=" stroke:none;fill-rule:nonzero;fill:rgb(0%,100%,100%);fill-opacity:1;" d="M 202.402344 141.09375 C 202.402344 143.101562 194.964844 141.242188 193.585938 141.933594 C 190.539062 143.457031 186.050781 146.132812 182.664062 146.132812 L 180.148438 151.171875 L 179.304688 148.652344 L 178.046875 152.429688 L 180.148438 152.011719 L 184.765625 152.851562 C 191.066406 152.851562 197.953125 151.171875 204.5 151.171875 C 207.238281 151.171875 210.71875 152.011719 212.898438 152.011719 L 214.578125 150.332031 C 218.636719 150.332031 224.089844 152.851562 227.179688 152.851562 L 228.015625 150.332031 C 229.136719 150.332031 227.472656 154.804688 229.695312 153.691406 C 230.742188 153.167969 228.027344 148.25 227.597656 147.390625 C 226.335938 144.871094 217.691406 140.796875 215.421875 141.933594 C 213.421875 142.933594 206.398438 141.09375 202.402344 141.09375 Z M 202.402344 141.09375 "/>
<path style=" stroke:none;fill-rule:nonzero;fill:rgb(0%,100%,100%);fill-opacity:1;" d="M 283.867188 143.613281 C 283.867188 152.324219 292.449219 158.492188 298.5625 164.609375 C 299.703125 165.746094 304.597656 170.410156 306.125 169.648438 C 310.523438 167.449219 306.941406 161.226562 304.863281 159.148438 L 298.5625 152.851562 L 296.882812 150.332031 C 295 150.332031 294.085938 150.613281 291.84375 149.492188 C 289.1875 148.164062 286.980469 143.613281 283.867188 143.613281 Z M 283.867188 143.613281 "/>
<path style=" stroke:none;fill-rule:nonzero;fill:rgb(100%,100%,0%);fill-opacity:1;" d="M 244.394531 145.292969 C 244.394531 147.066406 249.070312 145.292969 244.394531 145.292969 Z M 244.394531 145.292969 "/>
<path style=" stroke:none;fill-rule:nonzero;fill:rgb(0%,100%,100%);fill-opacity:1;" d="M 118.417969 149.492188 C 118.417969 150.882812 107.730469 159.53125 106.660156 161.671875 C 106.386719 162.214844 103.480469 166.289062 106.242188 166.289062 C 108.804688 166.289062 125.160156 149.492188 118.417969 149.492188 Z M 118.417969 149.492188 "/>
<path style=" stroke:none;fill-rule:nonzero;fill:rgb(0%,100%,100%);fill-opacity:1;" d="M 217.519531 161.25 L 215.421875 162.929688 C 212.179688 162.929688 210.238281 162.929688 206.601562 162.929688 C 200.324219 162.929688 176.675781 161.726562 172.585938 163.769531 C 170.554688 164.785156 161.894531 171.359375 162.929688 173.429688 C 165.195312 177.960938 166.976562 171.460938 170.070312 173.007812 C 184.992188 180.46875 185.820312 172.167969 201.5625 172.167969 C 206.242188 172.167969 212.328125 172.453125 216.257812 170.488281 C 219.507812 168.863281 226.894531 171.328125 228.859375 171.328125 C 231.8125 171.328125 237.421875 175.527344 240.617188 175.527344 C 241.085938 175.527344 241.441406 179.726562 243.132812 179.726562 C 244.445312 179.726562 245.996094 177.207031 246.492188 177.207031 L 247.335938 179.726562 L 249.851562 178.886719 L 254.054688 183.085938 L 257.414062 184.765625 L 259.09375 183.085938 L 259.09375 184.765625 C 260.957031 185.699219 267.683594 187.609375 270.007812 186.445312 C 272.789062 185.054688 273.976562 179.609375 270.851562 178.046875 C 268.15625 176.699219 259.84375 177.207031 257.414062 177.207031 L 256.570312 178.886719 L 255.734375 177.207031 C 254.523438 177.207031 252.742188 176.367188 251.53125 176.367188 L 250.695312 178.046875 L 249.851562 175.527344 C 248.578125 174.253906 244.453125 167.367188 243.976562 167.128906 C 235.671875 162.976562 227.277344 161.25 217.519531 161.25 Z M 217.519531 161.25 "/>
<path style=" stroke:none;fill-rule:nonzero;fill:rgb(0%,100%,100%);fill-opacity:1;" d="M 140.253906 174.6875 C 140.253906 177.988281 136.484375 177.609375 135.214844 180.148438 C 133.925781 182.722656 126.472656 192.707031 123.875 194.003906 C 122.726562 194.578125 120.371094 200.722656 123.039062 200.722656 C 125.335938 200.722656 125.394531 199.964844 127.234375 199.042969 C 128.175781 198.574219 129.96875 199.042969 130.59375 199.042969 C 132.039062 199.042969 134.136719 189.859375 135.214844 187.703125 L 142.773438 182.664062 C 143.332031 181.550781 145.4375 175.527344 142.351562 175.527344 L 141.09375 176.789062 C 140.707031 176.015625 141.734375 174.6875 140.253906 174.6875 Z M 140.253906 174.6875 "/>
<path style=" stroke:none;fill-rule:nonzero;fill:rgb(0%,100%,100%);fill-opacity:1;" d="M 223.398438 177.207031 C 223.398438 178.902344 218.976562 178.886719 217.9375 178.886719 C 214.378906 178.886719 202.976562 175.449219 197.78125 178.046875 L 196.101562 179.726562 C 194.617188 179.726562 196.832031 177.683594 194.421875 178.886719 C 193.453125 179.371094 186.445312 180.511719 186.445312 181.828125 L 188.964844 182.664062 C 190.171875 185.078125 190.054688 181.488281 190.644531 182.664062 C 191.289062 183.957031 191.429688 185.605469 193.585938 185.605469 L 195.265625 183.925781 L 196.101562 186.445312 C 198.671875 186.445312 201.757812 188.125 202.820312 188.125 C 207.578125 188.125 210.832031 187.480469 214.578125 185.605469 C 217.285156 184.253906 222.199219 187.253906 225.5 185.605469 L 225.917969 183.507812 L 228.4375 182.664062 C 230.1875 179.164062 226.789062 177.207031 223.398438 177.207031 Z M 223.398438 177.207031 "/>
<path style=" stroke:none;fill-rule:evenodd;fill:rgb(60.000002%,32.549021%,100%);fill-opacity:1;" d="M 185.605469 277.148438 C 185.605469 277.9375 178.085938 279.171875 177.207031 280.929688 C 174.003906 287.332031 184.746094 293.328125 188.546875 291.425781 L 192.742188 288.90625 C 193.859375 288.90625 196.292969 290.628906 197.363281 288.484375 C 197.765625 287.683594 194.675781 282.734375 193.585938 282.1875 L 191.484375 281.765625 L 193.164062 280.929688 C 195.457031 276.339844 187.851562 277.148438 185.605469 277.148438 M 217.519531 291.425781 C 217.519531 289.050781 211.886719 288.832031 213.320312 285.96875 C 213.800781 285.011719 218.546875 286.34375 217.519531 284.289062 C 216.910156 283.070312 212.890625 283.46875 214.160156 280.929688 C 216.242188 276.757812 219.230469 280.507812 221.296875 280.507812 L 222.976562 278.828125 C 227.636719 276.5 228.832031 277.519531 230.957031 281.765625 C 233.347656 286.546875 225.078125 291.835938 225.078125 292.265625 C 239.226562 292.265625 256.984375 282.621094 263.710938 269.171875 C 263.710938 269.171875 264.550781 264.96875 264.550781 264.96875 C 265.449219 263.171875 269.589844 264.363281 269.589844 262.871094 C 269.589844 262.144531 267.070312 259.113281 267.070312 257.414062 C 267.070312 257.414062 269.589844 252.792969 269.589844 252.792969 C 269.589844 252.792969 270.429688 251.113281 270.429688 251.113281 C 270.429688 251.113281 271.269531 249.433594 271.269531 249.433594 C 271.269531 237.472656 273.789062 224.429688 273.789062 211.640625 C 273.789062 208.082031 269.976562 206.953125 268.75 204.5 C 264.011719 195.027344 254.945312 190.25 245.65625 185.605469 C 238.28125 181.921875 231.796875 185.398438 231.796875 192.324219 C 231.796875 192.324219 233.476562 194.84375 233.476562 194.84375 C 233.476562 194.84375 235.15625 196.523438 235.15625 196.523438 C 235.15625 196.523438 235.15625 197.363281 235.15625 197.363281 C 238.042969 197.363281 234.316406 206.402344 234.316406 201.5625 C 233.011719 201.5625 233.355469 205.761719 230.957031 205.761719 C 230.957031 205.761719 229.277344 207.441406 229.277344 207.441406 C 229.277344 209.507812 226.441406 209.121094 225.078125 209.121094 C 225.078125 209.121094 224.238281 209.960938 224.238281 209.960938 C 224.238281 209.960938 223.398438 209.960938 223.398438 209.960938 C 223.398438 209.960938 222.558594 210.800781 222.558594 210.800781 C 219.152344 210.800781 217.910156 213.753906 215.421875 215 C 214.734375 215.34375 203.0625 213.320312 201.5625 213.320312 C 201.5625 213.320312 196.945312 214.160156 196.945312 214.160156 C 193.738281 212.558594 190.027344 211.542969 186.867188 209.960938 C 179.5625 206.308594 166.828125 191.484375 182.246094 191.484375 C 182.246094 191.484375 182.246094 188.125 182.246094 188.125 C 182.246094 187.058594 179.171875 182.246094 178.046875 182.246094 C 178.046875 182.246094 177.207031 182.246094 177.207031 182.246094 C 177.207031 182.246094 173.847656 181.40625 173.847656 181.40625 C 173.847656 181.40625 169.648438 181.40625 169.648438 181.40625 C 169.648438 181.40625 166.289062 181.40625 166.289062 181.40625 C 166.289062 182.582031 164.609375 182.582031 164.609375 181.40625 C 162.71875 181.40625 161.773438 181.40625 160.410156 181.40625 C 160.410156 183.042969 158.347656 181.808594 157.46875 182.246094 C 157.46875 182.246094 152.429688 187.285156 152.429688 187.285156 C 148.667969 189.167969 144.710938 197.269531 142.773438 201.140625 C 142.773438 201.140625 139.414062 201.984375 139.414062 201.984375 C 139.414062 201.984375 141.09375 203.664062 141.09375 203.664062 C 141.09375 205.117188 137.734375 205.90625 137.734375 207.859375 C 137.734375 207.859375 140.253906 208.703125 140.253906 208.703125 C 141.855469 211.90625 138.507812 213.871094 137.734375 215.421875 C 137.253906 216.382812 138.628906 219.199219 136.894531 219.199219 C 136.894531 220.988281 135.671875 228.089844 136.054688 228.859375 C 139.199219 235.148438 138.574219 241.035156 138.574219 247.753906 C 138.574219 250.636719 140.617188 251.421875 141.933594 254.054688 C 142.371094 254.929688 141.933594 261.089844 141.933594 262.03125 C 146.234375 262.03125 149.492188 266.378906 149.492188 270.429688 C 149.492188 270.429688 150.332031 272.109375 150.332031 272.109375 C 150.835938 272.109375 153.738281 279.296875 154.953125 280.507812 C 160.03125 285.589844 165.097656 286.839844 170.90625 289.746094 C 176.097656 292.339844 191.234375 294.28125 196.945312 291.425781 C 196.945312 291.425781 204.5 285.546875 204.5 285.546875 C 208.859375 283.367188 213.46875 291.425781 217.519531 291.425781 Z M 217.519531 291.425781 "/>
<path style=" stroke:none;fill-rule:nonzero;fill:rgb(92.156863%,34.117648%,100%);fill-opacity:1;" d="M 223.398438 209.960938 L 224.238281 209.960938 C 224.238281 209.960938 225.078125 209.121094 225.078125 209.121094 C 226.441406 209.121094 229.277344 209.507812 229.277344 207.441406 C 229.277344 205.972656 229.488281 205.761719 230.957031 205.761719 C 233.355469 205.761719 233.011719 201.5625 234.316406 201.5625 C 234.316406 201.5625 235.15625 197.363281 235.15625 197.363281 C 235.15625 197.363281 235.15625 196.523438 235.15625 196.523438 C 235.15625 196.523438 233.476562 194.84375 233.476562 194.84375 C 233.476562 194.84375 231.796875 192.324219 231.796875 192.324219 C 227.332031 192.324219 217.210938 191.429688 213.742188 193.164062 C 211.3125 194.378906 208.183594 196.523438 205.34375 196.523438 C 205.34375 196.523438 200.304688 194.003906 200.304688 194.003906 C 195.078125 194.003906 188.402344 191.484375 182.246094 191.484375 C 166.828125 191.484375 179.5625 206.308594 186.867188 209.960938 C 190.027344 211.542969 193.738281 212.558594 196.945312 214.160156 C 196.945312 214.160156 201.5625 213.320312 201.5625 213.320312 C 203.0625 213.320312 214.734375 215.34375 215.421875 215 C 217.910156 213.753906 219.152344 210.800781 222.558594 210.800781 C 222.558594 210.800781 223.398438 209.960938 223.398438 209.960938 Z M 223.398438 209.960938 "/>
<path style=" stroke:none;fill-rule:nonzero;fill:rgb(0%,100%,100%);fill-opacity:1;" d="M 283.027344 195.683594 C 283.027344 198.195312 280.65625 197.078125 278.40625 198.203125 L 277.570312 199.882812 L 276.308594 198.625 C 275.847656 199.546875 278.554688 204.082031 280.085938 204.082031 C 281.082031 204.082031 283.78125 204.921875 285.125 204.921875 L 287.648438 202.402344 L 288.484375 204.082031 C 293.472656 204.082031 295.269531 197.363281 287.648438 197.363281 Z M 283.027344 195.683594 "/>
<path style=" stroke:none;fill-rule:nonzero;fill:rgb(0%,100%,100%);fill-opacity:1;" d="M 306.542969 195.683594 L 305.703125 196.523438 C 305.703125 196.523438 306.542969 195.683594 306.542969 195.683594 Z M 306.542969 195.683594 "/>
<path style=" stroke:none;fill-rule:nonzero;fill:rgb(0%,100%,100%);fill-opacity:1;" d="M 293.105469 204.921875 L 293.945312 204.921875 C 293.945312 203.925781 293.105469 203.925781 293.105469 204.921875 Z M 293.105469 204.921875 "/>
<path style=" stroke:none;fill-rule:nonzero;fill:rgb(52.549022%,80.000001%,29.803923%);fill-opacity:1;" d="M 271.269531 249.433594 L 274.628906 249.433594 C 274.628906 248.554688 274.230469 246.914062 275.46875 246.914062 C 275.46875 246.914062 276.308594 246.074219 276.308594 246.074219 C 276.308594 243.160156 279.667969 239.015625 279.667969 235.996094 C 279.667969 235.996094 280.507812 234.316406 280.507812 234.316406 C 282.269531 234.316406 282.359375 229.277344 285.546875 229.277344 C 285.546875 229.277344 286.386719 228.4375 286.386719 228.4375 C 286.386719 225.101562 295.625 222.125 295.625 222.558594 C 298.589844 222.558594 305.539062 208.410156 300.242188 205.761719 C 296.136719 203.707031 279.140625 211.640625 273.789062 211.640625 C 273.789062 224.429688 271.269531 237.472656 271.269531 249.433594 Z M 271.269531 249.433594 "/>
<path style=" stroke:none;fill-rule:nonzero;fill:rgb(52.549022%,80.000001%,29.803923%);fill-opacity:1;" d="M 135.214844 246.914062 C 135.214844 248.238281 137.613281 247.753906 138.574219 247.753906 C 138.574219 241.035156 139.199219 235.148438 136.054688 228.859375 C 135.671875 228.089844 136.894531 220.988281 136.894531 219.199219 C 136.894531 219.199219 136.894531 215.421875 136.894531 215.421875 C 134.765625 211.160156 112.636719 203.46875 109.179688 210.382812 C 108.597656 211.550781 112.472656 221.054688 113.796875 221.71875 C 114.578125 222.109375 117.578125 222.40625 117.578125 223.398438 C 117.578125 223.398438 120.9375 225.078125 120.9375 225.078125 C 120.9375 225.078125 122.617188 226.757812 122.617188 226.757812 C 127.519531 226.757812 129.460938 237.507812 131.015625 240.617188 C 131.015625 240.617188 133.535156 241.875 133.535156 241.875 C 133.535156 241.875 133.535156 243.554688 133.535156 243.554688 C 133.535156 243.554688 134.375 246.074219 134.375 246.074219 C 134.375 246.074219 135.214844 246.914062 135.214844 246.914062 Z M 135.214844 246.914062 "/>
<path style=" stroke:none;fill-rule:nonzero;fill:rgb(98.039216%,50.196081%,44.705883%);fill-opacity:1;" d="M 269.589844 252.792969 L 267.070312 257.414062 C 267.070312 259.113281 269.589844 262.144531 269.589844 262.871094 C 279.738281 262.871094 288.988281 257.246094 293.105469 249.015625 C 294.453125 246.316406 294.277344 242.472656 295.625 239.773438 C 295.625 239.773438 298.144531 236.414062 298.144531 236.414062 C 298.144531 235.140625 299.007812 229.75 298.144531 228.015625 C 296.871094 225.472656 295.625 225.722656 295.625 222.558594 C 295.625 222.125 286.386719 225.101562 286.386719 228.4375 C 286.386719 228.4375 285.546875 229.277344 285.546875 229.277344 C 282.359375 229.277344 282.269531 234.316406 280.507812 234.316406 C 280.507812 234.316406 279.667969 235.996094 279.667969 235.996094 C 279.667969 239.015625 276.308594 243.160156 276.308594 246.074219 C 276.308594 246.074219 275.46875 246.914062 275.46875 246.914062 C 275.46875 247.792969 275.867188 249.433594 274.628906 249.433594 C 274.628906 249.433594 271.269531 249.433594 271.269531 249.433594 C 271.269531 249.433594 270.429688 251.113281 270.429688 251.113281 C 272.1875 251.113281 270.976562 252.792969 269.589844 252.792969 Z M 269.589844 252.792969 "/>
<path style=" stroke:none;fill-rule:nonzero;fill:rgb(98.039216%,50.196081%,44.705883%);fill-opacity:1;" d="M 138.574219 247.753906 C 138.574219 250.636719 140.617188 251.421875 141.933594 254.054688 C 142.371094 254.929688 141.933594 261.089844 141.933594 262.03125 C 141.933594 266.054688 129.960938 263.078125 128.496094 261.609375 C 126.570312 259.6875 125.8125 260.480469 123.875 259.511719 C 120.542969 257.84375 112.539062 239.515625 112.539062 235.578125 C 112.539062 231.480469 110.414062 223.398438 117.578125 223.398438 C 117.578125 223.398438 120.9375 225.078125 120.9375 225.078125 C 120.9375 226.546875 121.148438 226.757812 122.617188 226.757812 C 127.519531 226.757812 129.460938 237.507812 131.015625 240.617188 C 131.015625 240.617188 133.535156 241.875 133.535156 241.875 C 132.359375 241.875 132.359375 243.554688 133.535156 243.554688 C 133.535156 243.554688 134.375 246.074219 134.375 246.074219 C 134.375 246.074219 135.214844 246.914062 135.214844 246.914062 C 135.214844 248.238281 137.613281 247.753906 138.574219 247.753906 Z M 138.574219 247.753906 "/>
<path style=" stroke:none;fill-rule:nonzero;fill:rgb(27.450982%,64.705884%,8.235294%);fill-opacity:1;" d="M 305.703125 263.710938 C 305.703125 265.347656 303.640625 264.113281 302.765625 264.550781 C 299.960938 265.953125 297.960938 270.480469 298.984375 272.53125 C 301.46875 277.5 306.550781 270.644531 311.164062 272.949219 C 312.351562 273.542969 320.511719 276.671875 321.242188 276.308594 C 325.082031 274.386719 320.039062 270.128906 319.140625 268.328125 C 316.398438 262.84375 311.875 263.710938 305.703125 263.710938 Z M 305.703125 263.710938 "/>
<path style=" stroke:none;fill-rule:nonzero;fill:rgb(98.039216%,50.196081%,44.705883%);fill-opacity:1;" d="M 135.214844 265.390625 C 135.214844 267.164062 141.421875 265.390625 135.214844 265.390625 Z M 135.214844 265.390625 "/>
<path style=" stroke:none;fill-rule:nonzero;fill:rgb(98.039216%,50.196081%,44.705883%);fill-opacity:1;" d="M 149.492188 270.429688 L 150.332031 272.109375 C 150.332031 272.109375 149.492188 270.429688 149.492188 270.429688 Z M 149.492188 270.429688 "/>
<path style=" stroke:none;fill-rule:nonzero;fill:rgb(27.450982%,64.705884%,8.235294%);fill-opacity:1;" d="M 309.902344 274.628906 C 309.902344 276.363281 307.085938 274.988281 306.125 275.46875 C 303.644531 276.707031 294.273438 279.902344 296.464844 284.289062 C 298.355469 288.066406 304.148438 293.277344 307.382812 286.804688 L 307.382812 284.289062 L 309.0625 283.445312 C 309.0625 282.65625 306.175781 280.480469 307.804688 279.667969 C 309.644531 278.746094 313.175781 280.675781 314.523438 281.347656 C 316.859375 282.515625 315.195312 286.46875 313.679688 287.226562 C 312.085938 288.023438 311.226562 286.355469 309.484375 287.226562 L 306.542969 291.84375 C 304.839844 295.25 312.871094 297.710938 315.359375 296.464844 C 329.601562 289.34375 322.480469 274.628906 309.902344 274.628906 Z M 309.902344 274.628906 "/>
<path style=" stroke:none;fill-rule:nonzero;fill:rgb(27.450982%,64.705884%,8.235294%);fill-opacity:1;" d="M 96.582031 275.46875 C 96.582031 277.285156 91.488281 277.386719 90.28125 277.988281 L 88.183594 281.765625 C 85.304688 287.527344 96.300781 297.234375 101.203125 294.785156 C 102.546875 294.113281 102.925781 289.769531 101.203125 288.90625 L 96.164062 289.746094 C 95.285156 289.308594 94.40625 287.800781 94.902344 286.804688 C 96.027344 284.554688 102.820312 285.996094 105.398438 284.707031 L 107.078125 283.027344 L 108.757812 286.386719 C 109.703125 286.386719 109.265625 280.675781 109.601562 280.507812 C 114.769531 277.921875 97.488281 275.46875 96.582031 275.46875 Z M 96.582031 275.46875 "/>
<path style=" stroke:none;fill-rule:nonzero;fill:rgb(100%,20.392157%,15.294118%);fill-opacity:1;" d="M 185.605469 277.148438 C 185.605469 277.9375 178.085938 279.171875 177.207031 280.929688 C 174.003906 287.332031 184.746094 293.328125 188.546875 291.425781 L 192.742188 288.90625 C 193.859375 288.90625 196.292969 290.628906 197.363281 288.484375 C 197.765625 287.683594 194.675781 282.734375 193.585938 282.1875 L 191.484375 281.765625 L 193.164062 280.929688 C 195.457031 276.339844 187.851562 277.148438 185.605469 277.148438 Z M 185.605469 277.148438 "/>
<path style=" stroke:none;fill-rule:nonzero;fill:rgb(100%,20.392157%,15.294118%);fill-opacity:1;" d="M 217.519531 291.425781 C 219.804688 291.425781 222.371094 292.265625 225.078125 292.265625 C 225.078125 291.835938 233.347656 286.546875 230.957031 281.765625 C 228.832031 277.519531 227.636719 276.5 222.976562 278.828125 C 222.976562 278.828125 221.296875 280.507812 221.296875 280.507812 C 219.230469 280.507812 216.242188 276.757812 214.160156 280.929688 C 212.890625 283.46875 216.910156 283.070312 217.519531 284.289062 C 218.546875 286.34375 213.800781 285.011719 213.320312 285.96875 C 211.886719 288.832031 217.519531 289.050781 217.519531 291.425781 Z M 217.519531 291.425781 "/>
<path style=" stroke:none;fill-rule:nonzero;fill:rgb(27.450982%,64.705884%,8.235294%);fill-opacity:1;" d="M 309.902344 283.027344 C 309.902344 284.785156 313.046875 283.027344 309.902344 283.027344 Z M 309.902344 283.027344 "/>
</g>
</svg>
