<?xml version="1.0" encoding="UTF-8"?>
<svg xmlns="http://www.w3.org/2000/svg" xmlns:xlink="http://www.w3.org/1999/xlink" width="430px" height="430px" viewBox="0 0 430 430" version="1.1">
<g id="surface1">
<rect x="0" y="0" width="430" height="430" style="fill:rgb(0%,0%,0%);fill-opacity:1;stroke:none;"/>
<path style=" stroke:none;fill-rule:evenodd;fill:rgb(100%,89.019608%,0%);fill-opacity:1;" d="M 204.921875 157.890625 L 204.082031 159.570312 C 204.082031 166.101562 209.507812 157.890625 204.921875 157.890625 M 236.835938 221.71875 L 237.675781 222.976562 L 234.734375 223.398438 L 232.21875 225.917969 C 228.8125 225.917969 229.113281 221.84375 227.179688 220.878906 L 223.820312 220.878906 C 221.058594 219.5 213.320312 214.289062 213.320312 212.898438 L 210.800781 212.0625 L 206.601562 207.023438 C 205.757812 205.335938 206.648438 202.917969 205.761719 201.140625 C 205.085938 199.789062 207.261719 191.363281 203.664062 193.164062 L 203.242188 196.945312 C 202.167969 199.085938 203.183594 206.296875 202.402344 207.859375 L 199.042969 209.539062 C 199.042969 210.105469 201.007812 211.707031 199.460938 212.480469 L 194.003906 212.898438 L 198.203125 213.742188 C 198.203125 214.164062 193.789062 214.167969 193.164062 215.421875 C 191.398438 218.953125 190.207031 216.6875 186.867188 218.359375 L 185.1875 221.71875 C 182.140625 223.242188 177.472656 222.558594 173.847656 222.558594 C 173.847656 219.132812 179.300781 220.882812 180.984375 220.039062 C 186.046875 217.507812 190.546875 211.417969 193.164062 206.179688 C 194.050781 204.410156 193.507812 199.621094 194.003906 198.625 C 196.90625 192.820312 195.960938 185.46875 196.523438 184.34375 C 196.523438 184.34375 199.042969 181.828125 199.042969 181.828125 C 201.15625 177.597656 197.363281 157.15625 197.363281 152.429688 C 197.363281 147.574219 202.5625 136.796875 201.5625 134.796875 C 198.457031 128.582031 199.144531 122.878906 191.90625 119.257812 C 191.90625 119.257812 184.765625 119.257812 184.765625 119.257812 C 174.164062 119.257812 165.683594 119.210938 160.410156 129.757812 C 160.410156 129.757812 155.371094 133.953125 155.371094 133.953125 C 155.371094 136.996094 153.808594 144.636719 152.011719 148.234375 C 149.742188 152.769531 155.414062 177.542969 155.371094 177.625 C 155.371094 177.625 152.851562 179.304688 152.851562 179.304688 C 152.085938 180.835938 156.898438 182.128906 155.371094 185.1875 C 154.042969 187.839844 151.214844 187.792969 152.851562 191.0625 C 153.167969 191.699219 156.398438 197.363281 153.691406 197.363281 C 153.691406 194.546875 149.890625 191.019531 148.652344 188.546875 C 148.652344 188.546875 147.8125 170.90625 147.8125 170.90625 C 140.285156 155.855469 155.5 124.863281 170.070312 117.578125 C 170.070312 117.578125 177.625 116.738281 177.625 116.738281 C 183.78125 113.660156 186.175781 115.136719 191.0625 117.578125 C 191.0625 117.578125 195.265625 118.417969 195.265625 118.417969 C 200.121094 120.847656 202.003906 129.800781 204.082031 133.953125 C 204.082031 133.953125 203.664062 147.8125 203.664062 147.8125 C 208.464844 150.214844 208.28125 139.941406 208.28125 137.734375 C 209.441406 137.734375 209.46875 143.046875 209.960938 144.03125 C 211.246094 146.605469 212.054688 149.066406 213.320312 151.59375 C 213.320312 151.59375 213.320312 160.828125 213.320312 160.828125 C 213.949219 162.089844 211.167969 181.933594 209.960938 184.34375 C 209.960938 184.34375 211.640625 189.382812 211.640625 189.382812 C 211.640625 203.449219 213.925781 210.054688 227.179688 216.679688 C 228.832031 217.507812 233.652344 221.71875 236.835938 221.71875 Z M 236.835938 221.71875 "/>
<path style=" stroke:none;fill-rule:nonzero;fill:rgb(100%,89.019608%,0%);fill-opacity:1;" d="M 215 120.9375 C 216.175781 120.9375 226.257812 117.535156 228.015625 118.417969 C 231.648438 120.234375 237.039062 118.308594 240.617188 120.097656 C 241.828125 120.703125 240.691406 121.777344 242.714844 121.777344 C 242.714844 116.191406 215 114.730469 215 120.9375 Z M 215 120.9375 "/>
<path style=" stroke:none;fill-rule:nonzero;fill:rgb(100%,52.941179%,0%);fill-opacity:1;" d="M 241.875 220.039062 C 241.875 222.304688 238.300781 221.71875 236.835938 221.71875 C 233.652344 221.71875 228.832031 217.507812 227.179688 216.679688 C 213.925781 210.054688 211.640625 203.449219 211.640625 189.382812 C 211.640625 189.382812 209.960938 184.34375 209.960938 184.34375 C 211.167969 181.933594 213.949219 162.089844 213.320312 160.828125 C 213.320312 160.828125 213.320312 151.59375 213.320312 151.59375 C 212.054688 149.066406 211.246094 146.605469 209.960938 144.03125 C 209.46875 143.046875 209.441406 137.734375 208.28125 137.734375 C 208.28125 135.710938 209.121094 133.382812 209.121094 131.855469 C 209.121094 131.855469 209.121094 131.015625 209.121094 131.015625 C 209.121094 131.015625 209.121094 129.335938 209.121094 129.335938 C 209.121094 129.335938 209.960938 128.496094 209.960938 128.496094 C 211.765625 128.496094 209.503906 127.3125 209.960938 126.398438 C 210.566406 125.183594 211.640625 126.320312 211.640625 124.296875 C 213.109375 124.296875 213.320312 124.085938 213.320312 122.617188 C 213.320312 122.617188 215 120.9375 215 120.9375 C 216.175781 120.9375 226.257812 117.535156 228.015625 118.417969 C 231.648438 120.234375 237.039062 118.308594 240.617188 120.097656 C 241.828125 120.703125 240.691406 121.777344 242.714844 121.777344 C 242.714844 121.777344 243.554688 121.777344 243.554688 121.777344 C 243.554688 122.773438 244.394531 122.773438 244.394531 121.777344 C 244.394531 121.777344 245.234375 121.777344 245.234375 121.777344 C 245.234375 125.894531 251.359375 126.050781 252.792969 128.914062 C 255.128906 133.585938 257.160156 138.492188 259.511719 143.195312 C 262.183594 148.539062 259.207031 174.875 256.992188 179.304688 C 255.789062 181.710938 259.511719 187.859375 259.511719 190.644531 C 259.511719 197.222656 250.273438 213.417969 250.273438 214.160156 C 247.921875 214.160156 245.234375 215.734375 245.234375 218.359375 C 245.234375 218.359375 244.394531 219.199219 244.394531 219.199219 C 243.515625 219.199219 241.875 218.800781 241.875 220.039062 Z M 241.875 220.039062 "/>
<path style=" stroke:none;fill-rule:nonzero;fill:rgb(100%,52.941179%,0%);fill-opacity:1;" d="M 173.007812 222.558594 L 173.847656 222.558594 C 173.847656 219.132812 179.300781 220.882812 180.984375 220.039062 C 186.046875 217.507812 190.546875 211.417969 193.164062 206.179688 C 194.050781 204.410156 193.507812 199.621094 194.003906 198.625 C 196.90625 192.820312 195.960938 185.46875 196.523438 184.34375 C 196.523438 184.34375 199.042969 181.828125 199.042969 181.828125 C 201.15625 177.597656 197.363281 157.15625 197.363281 152.429688 C 197.363281 147.574219 202.5625 136.796875 201.5625 134.796875 C 198.457031 128.582031 199.144531 122.878906 191.90625 119.257812 C 191.90625 119.257812 184.765625 119.257812 184.765625 119.257812 C 174.164062 119.257812 165.683594 119.210938 160.410156 129.757812 C 160.410156 129.757812 155.371094 133.953125 155.371094 133.953125 C 155.371094 136.996094 153.808594 144.636719 152.011719 148.234375 C 149.742188 152.769531 155.414062 177.542969 155.371094 177.625 C 155.371094 177.625 152.851562 179.304688 152.851562 179.304688 C 152.085938 180.835938 156.898438 182.128906 155.371094 185.1875 C 154.042969 187.839844 151.214844 187.792969 152.851562 191.0625 C 153.167969 191.699219 156.398438 197.363281 153.691406 197.363281 C 153.691406 202.628906 157.328125 208.417969 159.570312 212.898438 C 160.660156 215.078125 162.929688 213.121094 162.929688 215.839844 C 164.113281 215.839844 167.128906 216.84375 167.128906 218.359375 C 167.128906 218.359375 167.128906 219.199219 167.128906 219.199219 C 167.902344 219.199219 169.648438 217.789062 169.648438 220.039062 C 169.648438 220.039062 169.648438 220.878906 169.648438 220.878906 C 169.648438 220.878906 171.328125 221.71875 171.328125 221.71875 C 171.328125 221.71875 172.167969 222.558594 172.167969 222.558594 C 172.167969 222.558594 173.007812 222.558594 173.007812 222.558594 Z M 173.007812 222.558594 "/>
<path style=" stroke:none;fill-rule:nonzero;fill:rgb(100%,89.019608%,0%);fill-opacity:1;" d="M 243.554688 121.777344 L 244.394531 121.777344 C 244.394531 122.773438 243.554688 122.773438 243.554688 121.777344 Z M 243.554688 121.777344 "/>
<path style=" stroke:none;fill-rule:nonzero;fill:rgb(100%,89.019608%,0%);fill-opacity:1;" d="M 245.234375 121.777344 C 251.699219 121.777344 255.371094 129.03125 257.832031 133.953125 C 258.808594 135.90625 261.308594 137.546875 262.03125 138.992188 C 265.402344 145.738281 267.351562 166.984375 263.710938 174.265625 C 261.828125 178.035156 264.742188 190.644531 259.511719 190.644531 C 259.511719 187.859375 255.789062 181.710938 256.992188 179.304688 C 259.207031 174.875 262.183594 148.539062 259.511719 143.195312 C 257.160156 138.492188 255.128906 133.585938 252.792969 128.914062 C 251.359375 126.050781 245.234375 125.894531 245.234375 121.777344 Z M 245.234375 121.777344 "/>
<path style=" stroke:none;fill-rule:nonzero;fill:rgb(100%,89.019608%,0%);fill-opacity:1;" d="M 213.320312 122.617188 L 211.640625 124.296875 C 213.109375 124.296875 213.320312 124.085938 213.320312 122.617188 Z M 213.320312 122.617188 "/>
<path style=" stroke:none;fill-rule:nonzero;fill:rgb(100%,89.019608%,0%);fill-opacity:1;" d="M 209.960938 128.496094 L 209.121094 129.335938 C 209.121094 129.335938 209.960938 128.496094 209.960938 128.496094 Z M 209.960938 128.496094 "/>
<path style=" stroke:none;fill-rule:nonzero;fill:rgb(100%,89.019608%,0%);fill-opacity:1;" d="M 209.121094 131.015625 C 208.125 131.015625 208.125 131.855469 209.121094 131.855469 C 209.121094 131.855469 209.121094 131.015625 209.121094 131.015625 Z M 209.121094 131.015625 "/>
<path style=" stroke:none;fill-rule:nonzero;fill:rgb(18.82353%,85.490197%,0%);fill-opacity:1;" d="M 319.140625 213.320312 C 319.140625 213.402344 309.191406 221.042969 308.222656 222.976562 C 305.515625 228.394531 314.398438 230.179688 317.882812 228.4375 C 325.636719 224.558594 334.699219 213.320312 319.140625 213.320312 Z M 319.140625 213.320312 "/>
<path style=" stroke:none;fill-rule:nonzero;fill:rgb(100%,89.019608%,0%);fill-opacity:1;" d="M 250.273438 214.160156 C 247.921875 214.160156 245.234375 215.734375 245.234375 218.359375 C 247.828125 218.359375 250.273438 217.003906 250.273438 214.160156 Z M 250.273438 214.160156 "/>
<path style=" stroke:none;fill-rule:nonzero;fill:rgb(100%,89.019608%,0%);fill-opacity:1;" d="M 162.929688 215.839844 C 164.113281 215.839844 167.128906 216.84375 167.128906 218.359375 C 164.976562 218.359375 162.929688 218.558594 162.929688 215.839844 Z M 162.929688 215.839844 "/>
<path style=" stroke:none;fill-rule:nonzero;fill:rgb(100%,89.019608%,0%);fill-opacity:1;" d="M 167.128906 219.199219 C 167.902344 219.199219 169.648438 217.789062 169.648438 220.039062 C 168.875 220.039062 167.128906 221.449219 167.128906 219.199219 Z M 167.128906 219.199219 "/>
<path style=" stroke:none;fill-rule:nonzero;fill:rgb(100%,89.019608%,0%);fill-opacity:1;" d="M 244.394531 219.199219 C 243.515625 219.199219 241.875 218.800781 241.875 220.039062 C 242.753906 220.039062 244.394531 220.4375 244.394531 219.199219 Z M 244.394531 219.199219 "/>
<path style=" stroke:none;fill-rule:nonzero;fill:rgb(100%,89.019608%,0%);fill-opacity:1;" d="M 169.648438 220.878906 L 171.328125 221.71875 C 171.328125 221.71875 169.648438 220.878906 169.648438 220.878906 Z M 169.648438 220.878906 "/>
<path style=" stroke:none;fill-rule:nonzero;fill:rgb(100%,89.019608%,0%);fill-opacity:1;" d="M 172.167969 222.558594 L 173.007812 222.558594 C 173.007812 223.554688 172.167969 223.554688 172.167969 222.558594 Z M 172.167969 222.558594 "/>
<path style=" stroke:none;fill-rule:nonzero;fill:rgb(18.82353%,85.490197%,0%);fill-opacity:1;" d="M 89.863281 223.398438 C 89.863281 225.316406 83.371094 225.949219 85.664062 230.539062 C 89.21875 237.648438 98.628906 238.90625 104.5625 241.875 C 106.996094 243.09375 108.925781 240.195312 109.601562 240.195312 L 110.859375 240.617188 C 112.226562 237.882812 110.019531 238.519531 110.019531 237.257812 C 110.019531 228.3125 98.398438 223.398438 89.863281 223.398438 Z M 89.863281 223.398438 "/>
<path style=" stroke:none;fill-rule:nonzero;fill:rgb(98.039216%,50.196081%,44.705883%);fill-opacity:1;" d="M 250.273438 305.703125 C 250.273438 307.238281 243.722656 309.988281 242.714844 312 C 241.234375 314.960938 245.628906 318.769531 245.234375 319.5625 C 244.375 321.28125 239.933594 317.5625 238.515625 320.398438 C 236.148438 325.136719 241.816406 324.484375 242.714844 326.28125 C 244.054688 328.960938 245.78125 334.195312 250.695312 331.738281 L 254.054688 327.539062 L 253.632812 331.320312 L 256.570312 334.257812 L 261.609375 331.738281 C 263.945312 330.570312 268.550781 334.234375 270.429688 330.476562 C 275.613281 320.109375 266.542969 314.46875 259.09375 310.742188 C 258.992188 310.691406 259.722656 306.859375 257.414062 305.703125 C 256.691406 305.34375 251.570312 305.703125 250.273438 305.703125 Z M 250.273438 305.703125 "/>
<path style=" stroke:none;fill-rule:nonzero;fill:rgb(98.039216%,50.196081%,44.705883%);fill-opacity:1;" d="M 159.570312 307.382812 C 159.570312 308.933594 155.621094 315.78125 154.109375 315.78125 C 153.394531 315.78125 152.03125 315.144531 150.75 315.78125 C 148.140625 317.085938 149.445312 319.792969 145.710938 321.660156 L 143.195312 326.699219 C 142.238281 326.699219 142.03125 326.019531 140.671875 326.699219 C 133.679688 330.195312 142.804688 336.777344 143.195312 336.777344 C 148.039062 336.777344 145.484375 330.171875 147.390625 329.21875 L 151.59375 332.578125 C 155.375 334.46875 165.734375 334.109375 167.96875 329.640625 L 167.128906 323.757812 C 170.371094 317.277344 168.621094 309.902344 161.671875 309.902344 Z M 159.570312 307.382812 "/>
<path style=" stroke:none;fill-rule:nonzero;fill:rgb(98.039216%,50.196081%,44.705883%);fill-opacity:1;" d="M 169.648438 320.820312 L 168.808594 322.078125 C 166.644531 326.40625 175.300781 320.820312 169.648438 320.820312 Z M 169.648438 320.820312 "/>
<path style=" stroke:none;fill-rule:nonzero;fill:rgb(98.039216%,50.196081%,44.705883%);fill-opacity:1;" d="M 274.628906 325.019531 L 272.949219 328.378906 C 272.949219 338.980469 285.238281 325.019531 274.628906 325.019531 Z M 274.628906 325.019531 "/>
</g>
</svg>
