<?xml version="1.0" encoding="UTF-8"?>
<svg xmlns="http://www.w3.org/2000/svg" xmlns:xlink="http://www.w3.org/1999/xlink" width="430px" height="430px" viewBox="0 0 430 430" version="1.1">
<g id="surface1">
<rect x="0" y="0" width="430" height="430" style="fill:rgb(0%,0%,0%);fill-opacity:1;stroke:none;"/>
<path style=" stroke:none;fill-rule:evenodd;fill:rgb(52.549022%,100%,35.294119%);fill-opacity:1;" d="M 202.402344 331.738281 C 202.402344 333.007812 201.5625 334.257812 201.5625 335.515625 C 201.5625 336.773438 206.515625 337.449219 207.859375 336.777344 C 209.289062 336.0625 207.441406 335.222656 207.441406 334.679688 C 207.441406 331.230469 207.363281 331.738281 202.402344 331.738281 M 199.042969 295.625 C 199.042969 297.425781 195.464844 295.945312 194.421875 296.464844 L 193.585938 298.984375 C 191.027344 300.261719 185.734375 300.117188 184.34375 301.503906 L 182.664062 304.863281 C 180.042969 306.175781 179.78125 306.542969 177.625 306.542969 C 175.753906 306.542969 176.761719 309.53125 176.367188 310.320312 C 175.863281 311.328125 172.203125 312.769531 172.167969 312.84375 L 172.167969 316.203125 C 171.28125 317.972656 168.46875 317.722656 167.96875 318.71875 C 166.164062 322.328125 166.464844 326.765625 164.609375 330.476562 L 164.609375 343.078125 L 166.289062 343.078125 C 167.25 344.996094 164.609375 344.921875 164.609375 345.59375 L 166.289062 346.4375 L 165.449219 348.953125 L 167.128906 349.796875 C 173.074219 361.691406 177.34375 362.25 188.546875 367.851562 C 190.976562 369.066406 199.117188 368.023438 201.140625 367.011719 C 202.601562 366.28125 205.328125 361.964844 207.023438 362.8125 C 208.054688 363.328125 210.359375 367 213.742188 368.691406 C 218.246094 370.945312 225.554688 366.984375 228.859375 365.332031 L 235.578125 363.652344 L 235.996094 361.554688 C 237.242188 359.054688 239.828125 357.246094 241.035156 354.835938 L 244.394531 353.15625 C 244.628906 352.6875 246.914062 337.707031 246.914062 333.835938 C 246.914062 333.210938 248.359375 331.691406 247.753906 330.476562 C 243.894531 322.757812 238.515625 313.679688 234.316406 305.28125 L 230.957031 305.28125 C 226.558594 296.488281 210.160156 295.625 199.042969 295.625 Z M 199.042969 295.625 "/>
<path style=" stroke:none;fill-rule:nonzero;fill:rgb(92.156863%,34.117648%,100%);fill-opacity:1;" d="M 202.402344 331.738281 C 202.402344 333.007812 201.5625 334.257812 201.5625 335.515625 C 201.5625 336.773438 206.515625 337.449219 207.859375 336.777344 C 209.289062 336.0625 207.441406 335.222656 207.441406 334.679688 C 207.441406 331.230469 207.363281 331.738281 202.402344 331.738281 Z M 202.402344 331.738281 "/>
</g>
</svg>
