<?xml version="1.0" encoding="UTF-8"?>
<svg xmlns="http://www.w3.org/2000/svg" xmlns:xlink="http://www.w3.org/1999/xlink" width="430px" height="430px" viewBox="0 0 430 430" version="1.1">
<g id="surface1">
<rect x="0" y="0" width="430" height="430" style="fill:rgb(0%,0%,0%);fill-opacity:1;stroke:none;"/>
<path style=" stroke:none;fill-rule:evenodd;fill:rgb(100%,89.019608%,0%);fill-opacity:1;" d="M 190.644531 134.375 L 180.566406 143.195312 C 179.175781 145.976562 179.222656 153.101562 180.566406 155.789062 C 181.074219 156.804688 179.648438 159.832031 180.566406 161.671875 C 181.566406 163.671875 182.957031 162.234375 184.34375 162.929688 L 186.867188 165.449219 L 188.546875 162.929688 C 190.101562 162.152344 195.753906 159.847656 196.523438 158.3125 L 197.363281 152.429688 C 200.089844 146.976562 200.070312 146.085938 197.363281 140.671875 C 196.042969 138.035156 194.5625 134.375 190.644531 134.375 M 188.125 133.535156 L 180.984375 136.894531 C 176.882812 138.945312 176.367188 142.269531 176.367188 145.710938 L 174.6875 147.390625 C 174.6875 148.605469 173.136719 155.210938 173.847656 156.632812 C 174.5 157.933594 178.871094 167.128906 179.304688 167.128906 C 186.675781 167.128906 196.304688 165.46875 199.882812 158.3125 C 202.191406 153.6875 201.5625 145.113281 201.5625 140.671875 L 197.363281 136.476562 L 196.945312 134.375 C 194.53125 133.167969 191.03125 133.535156 188.125 133.535156 Z M 188.125 133.535156 "/>
<path style=" stroke:none;fill-rule:evenodd;fill:rgb(100%,89.019608%,0%);fill-opacity:1;" d="M 211.640625 135.214844 C 211.640625 138.425781 207.441406 142.503906 207.441406 145.710938 L 212.480469 153.273438 C 214.652344 157.613281 213.589844 164.113281 219.617188 167.128906 C 222.492188 168.566406 223.398438 165.191406 223.398438 164.1875 C 223.398438 162.558594 226.867188 163.128906 227.597656 161.671875 C 228.535156 159.800781 230.507812 144.820312 229.277344 142.351562 C 226.875 137.546875 217.601562 135.214844 211.640625 135.214844 M 210.800781 133.535156 C 210.800781 135.199219 203.804688 144.324219 205.761719 148.234375 C 207.023438 150.757812 209.820312 152.988281 210.800781 154.953125 C 212.3125 157.972656 212.601562 161.914062 214.160156 165.03125 C 215.808594 168.324219 221.054688 168.511719 223.820312 167.128906 L 227.597656 166.710938 C 227.597656 163.269531 229.941406 167.058594 230.957031 165.03125 L 230.957031 159.992188 L 233.476562 158.3125 L 233.476562 153.273438 C 237.261719 145.703125 226.75 135.839844 222.140625 133.535156 Z M 210.800781 133.535156 "/>
<path style=" stroke:none;fill-rule:nonzero;fill:rgb(100%,52.941179%,0%);fill-opacity:1;" d="M 190.644531 134.375 L 180.566406 143.195312 C 179.175781 145.976562 179.222656 153.101562 180.566406 155.789062 C 181.074219 156.804688 179.648438 159.832031 180.566406 161.671875 C 181.566406 163.671875 182.957031 162.234375 184.34375 162.929688 L 186.867188 165.449219 L 188.546875 162.929688 C 190.101562 162.152344 195.753906 159.847656 196.523438 158.3125 L 197.363281 152.429688 C 200.089844 146.976562 200.070312 146.085938 197.363281 140.671875 C 196.042969 138.035156 194.5625 134.375 190.644531 134.375 Z M 190.644531 134.375 "/>
<path style=" stroke:none;fill-rule:nonzero;fill:rgb(100%,52.941179%,0%);fill-opacity:1;" d="M 211.640625 135.214844 C 211.640625 138.425781 207.441406 142.503906 207.441406 145.710938 L 212.480469 153.273438 C 214.652344 157.613281 213.589844 164.113281 219.617188 167.128906 C 222.492188 168.566406 223.398438 165.191406 223.398438 164.1875 C 223.398438 162.558594 226.867188 163.128906 227.597656 161.671875 C 228.535156 159.800781 230.507812 144.820312 229.277344 142.351562 C 226.875 137.546875 217.601562 135.214844 211.640625 135.214844 Z M 211.640625 135.214844 "/>
<path style=" stroke:none;fill-rule:nonzero;fill:rgb(98.039216%,50.196081%,44.705883%);fill-opacity:1;" d="M 275.46875 293.105469 C 275.46875 295.882812 275.945312 305.167969 274.628906 307.804688 C 273.433594 310.191406 269 308.144531 268.75 308.640625 C 267.324219 311.496094 272.042969 314.652344 271.269531 316.203125 C 269.484375 319.773438 266.449219 329.117188 271.6875 331.738281 C 274.136719 332.960938 277.179688 331.964844 278.40625 332.578125 C 280.375 333.5625 282.941406 335.351562 285.125 334.257812 L 285.546875 321.242188 L 285.125 318.300781 C 281.738281 318.300781 285.476562 311.019531 283.867188 307.804688 L 282.1875 306.960938 L 282.1875 297.726562 L 278.40625 297.304688 Z M 275.46875 293.105469 "/>
<path style=" stroke:none;fill-rule:nonzero;fill:rgb(98.039216%,50.196081%,44.705883%);fill-opacity:1;" d="M 133.535156 296.464844 C 133.535156 296.929688 128.351562 302.214844 127.65625 303.601562 C 126.875 305.164062 129.363281 318.667969 127.65625 322.078125 L 122.617188 325.4375 C 121.320312 328.035156 123.84375 330.042969 125.554688 330.898438 L 128.914062 334.257812 C 131.859375 335.730469 135.558594 332.121094 138.15625 333.417969 C 141.03125 334.859375 141.515625 336.777344 144.875 335.097656 C 149.992188 332.539062 146.132812 324.945312 146.132812 321.660156 C 146.132812 319.820312 148.238281 316.207031 146.972656 313.679688 L 142.773438 309.484375 C 140.867188 305.671875 147.375 296.464844 133.535156 296.464844 Z M 133.535156 296.464844 "/>
<path style=" stroke:none;fill-rule:nonzero;fill:rgb(98.039216%,50.196081%,44.705883%);fill-opacity:1;" d="M 288.066406 321.660156 C 288.066406 323.722656 285.136719 325.457031 286.386719 327.960938 C 290.40625 336.003906 300.566406 321.660156 288.066406 321.660156 Z M 288.066406 321.660156 "/>
</g>
</svg>
