<?xml version="1.0" encoding="UTF-8"?>
<svg xmlns="http://www.w3.org/2000/svg" xmlns:xlink="http://www.w3.org/1999/xlink" width="430px" height="430px" viewBox="0 0 430 430" version="1.1">
<g id="surface1">
<rect x="0" y="0" width="430" height="430" style="fill:rgb(0%,0%,0%);fill-opacity:1;stroke:none;"/>
<path style=" stroke:none;fill-rule:nonzero;fill:rgb(100%,89.019608%,0%);fill-opacity:1;" d="M 202.402344 120.9375 C 203.730469 120.9375 204.34375 121.777344 206.601562 121.777344 C 206.601562 124.523438 205.742188 123.910156 204.921875 125.554688 C 204.167969 127.0625 205.207031 129.484375 205.761719 130.59375 C 207.152344 133.378906 204.605469 136.679688 205.761719 138.992188 C 207.347656 142.167969 207.574219 145.976562 209.121094 149.070312 C 209.121094 149.070312 212.480469 152.429688 212.480469 152.429688 C 216.277344 160.023438 213.320312 177.25 213.320312 186.023438 C 213.320312 186.023438 217.519531 191.90625 217.519531 191.90625 C 217.519531 191.90625 217.519531 195.265625 217.519531 195.265625 C 217.519531 195.265625 220.878906 197.78125 220.878906 197.78125 C 225.003906 206.03125 231.542969 201.226562 237.257812 204.082031 C 238.136719 204.519531 239.359375 205.550781 240.617188 204.921875 C 242.054688 204.203125 242.984375 202.898438 243.976562 202.402344 C 244.8125 201.984375 246.832031 202.144531 246.914062 201.984375 C 248.089844 199.628906 249.898438 185.277344 248.59375 182.664062 C 247.175781 179.828125 243.300781 173.9375 245.234375 170.070312 C 246.382812 167.769531 245.78125 164.777344 246.914062 162.507812 C 248.585938 159.167969 250.410156 158.035156 251.953125 154.953125 C 252.640625 153.578125 251.75 146.960938 252.792969 144.875 C 253.34375 143.769531 251.789062 133.625 251.113281 132.273438 C 251.113281 132.273438 248.59375 129.757812 248.59375 129.757812 C 242.851562 118.273438 227.367188 115.898438 215 115.898438 C 215 114.957031 225.1875 111.964844 226.335938 112.539062 C 235.726562 117.234375 246.050781 118.792969 251.113281 128.914062 C 251.964844 130.613281 256.152344 132.046875 256.152344 134.796875 C 256.152344 138.75 262.550781 153.910156 259.511719 159.992188 C 258.460938 162.089844 256.386719 158.730469 255.734375 158.730469 C 255.734375 158.730469 255.3125 162.507812 255.3125 162.507812 C 255.3125 162.507812 252.792969 162.507812 252.792969 162.507812 C 252.792969 162.507812 252.792969 168.390625 252.792969 168.390625 C 252.792969 168.390625 249.433594 170.90625 249.433594 170.90625 C 246.933594 175.910156 250.515625 182.3125 251.953125 185.1875 C 253.03125 187.339844 251.011719 188.753906 250.273438 190.226562 C 250.273438 190.226562 250.273438 197.78125 250.273438 197.78125 C 250.273438 197.78125 248.59375 198.625 248.59375 198.625 C 247.828125 200.15625 249.433594 201.828125 249.433594 202.820312 C 249.433594 205.117188 242.566406 207.441406 240.617188 207.441406 C 233.835938 207.441406 230.195312 206.851562 224.65625 204.082031 C 224.65625 204.082031 221.296875 200.722656 221.296875 200.722656 C 219.457031 199.800781 214.429688 201.683594 213.320312 199.460938 C 212.828125 198.472656 214.203125 196.191406 213.320312 194.421875 C 213.320312 194.421875 206.601562 191.0625 206.601562 191.0625 C 206.601562 191.0625 206.601562 182.664062 206.601562 182.664062 C 206.601562 182.664062 209.121094 180.984375 209.121094 180.984375 C 209.121094 180.984375 206.601562 178.46875 206.601562 178.46875 C 205.714844 176.691406 205.761719 168.871094 205.761719 167.128906 C 205.761719 167.128906 205.34375 162.929688 205.34375 162.929688 C 202.355469 162.929688 203.242188 167.972656 203.242188 170.070312 C 203.242188 170.070312 203.242188 185.1875 203.242188 185.1875 C 203.242188 185.1875 201.5625 186.023438 201.5625 186.023438 C 201.5625 187.621094 202.585938 189.859375 201.5625 191.90625 C 201.5625 191.90625 196.523438 195.265625 196.523438 195.265625 C 194.429688 199.449219 190.003906 203.773438 186.023438 205.761719 C 186.023438 205.761719 177.625 205.761719 177.625 205.761719 C 177.625 205.761719 176.789062 207.441406 176.789062 207.441406 C 176.789062 207.441406 175.945312 205.761719 175.945312 205.761719 C 173.25 205.761719 167.96875 212.15625 167.96875 207.441406 C 170.949219 207.441406 175.796875 204.578125 178.46875 203.242188 C 178.46875 203.242188 183.507812 202.402344 183.507812 202.402344 C 188.789062 199.757812 193.230469 192.613281 195.683594 187.703125 C 198.679688 181.710938 193.378906 158.722656 196.523438 152.429688 C 202.816406 139.84375 202.402344 135.714844 202.402344 120.9375 Z M 202.402344 120.9375 "/>
<path style=" stroke:none;fill-rule:nonzero;fill:rgb(100%,89.019608%,0%);fill-opacity:1;" d="M 188.964844 116.738281 L 181.828125 115.898438 C 177.753906 117.933594 164.042969 120.8125 162.089844 124.71875 C 155.839844 137.21875 158.121094 149.535156 163.769531 160.828125 C 164.820312 162.929688 163.136719 167.125 163.769531 168.390625 L 167.128906 171.75 C 170.105469 177.699219 164.226562 185.109375 162.089844 189.382812 C 161.40625 190.75 162.089844 199.074219 162.089844 201.5625 C 155.441406 201.5625 158.183594 198.035156 159.570312 195.265625 C 159.976562 194.453125 159.570312 186.273438 159.570312 185.1875 C 159.570312 185.1875 162.929688 183.507812 162.929688 183.507812 C 162.929688 183.507812 163.769531 173.429688 163.769531 173.429688 C 161.726562 169.34375 155.816406 169.28125 153.691406 165.03125 C 148.886719 155.417969 153.011719 137.835938 157.050781 129.757812 C 157.050781 129.757812 157.050781 126.398438 157.050781 126.398438 C 160.511719 119.476562 170.890625 114.21875 178.46875 114.21875 C 180.082031 114.21875 188.964844 112.941406 188.964844 116.738281 Z M 188.964844 116.738281 "/>
<path style=" stroke:none;fill-rule:nonzero;fill:rgb(100%,52.941179%,0%);fill-opacity:1;" d="M 164.609375 205.761719 C 164.609375 207.53125 166.738281 207.441406 167.96875 207.441406 C 170.949219 207.441406 175.796875 204.578125 178.46875 203.242188 C 178.46875 203.242188 183.507812 202.402344 183.507812 202.402344 C 188.789062 199.757812 193.230469 192.613281 195.683594 187.703125 C 198.679688 181.710938 193.378906 158.722656 196.523438 152.429688 C 202.816406 139.84375 202.402344 135.714844 202.402344 120.9375 C 202.402344 120.9375 200.722656 120.097656 200.722656 120.097656 C 199.449219 120.097656 192.324219 118.296875 192.324219 116.738281 C 192.324219 116.738281 188.964844 116.738281 188.964844 116.738281 C 188.964844 116.738281 181.828125 115.898438 181.828125 115.898438 C 177.753906 117.933594 164.042969 120.8125 162.089844 124.71875 C 155.839844 137.21875 158.121094 149.535156 163.769531 160.828125 C 164.820312 162.929688 163.136719 167.125 163.769531 168.390625 C 163.769531 168.390625 167.128906 171.75 167.128906 171.75 C 170.105469 177.699219 164.226562 185.109375 162.089844 189.382812 C 161.40625 190.75 162.089844 199.074219 162.089844 201.5625 C 162.089844 201.5625 162.089844 202.402344 162.089844 202.402344 C 162.089844 202.402344 162.929688 203.242188 162.929688 203.242188 C 162.929688 203.242188 162.929688 204.082031 162.929688 204.082031 C 162.929688 204.082031 164.609375 205.761719 164.609375 205.761719 Z M 164.609375 205.761719 "/>
<path style=" stroke:none;fill-rule:nonzero;fill:rgb(100%,89.019608%,0%);fill-opacity:1;" d="M 215 115.898438 C 213.800781 115.898438 211.640625 116.980469 211.640625 118.417969 C 213.355469 118.417969 215 117.921875 215 115.898438 Z M 215 115.898438 "/>
<path style=" stroke:none;fill-rule:nonzero;fill:rgb(100%,52.941179%,0%);fill-opacity:1;" d="M 211.640625 118.417969 L 206.601562 121.777344 C 206.601562 124.523438 205.742188 123.910156 204.921875 125.554688 C 204.167969 127.0625 205.207031 129.484375 205.761719 130.59375 C 207.152344 133.378906 204.605469 136.679688 205.761719 138.992188 C 207.347656 142.167969 207.574219 145.976562 209.121094 149.070312 C 209.121094 149.070312 212.480469 152.429688 212.480469 152.429688 C 216.277344 160.023438 213.320312 177.25 213.320312 186.023438 C 213.320312 186.023438 217.519531 191.90625 217.519531 191.90625 C 217.519531 191.90625 217.519531 195.265625 217.519531 195.265625 C 217.519531 195.265625 220.878906 197.78125 220.878906 197.78125 C 225.003906 206.03125 231.542969 201.226562 237.257812 204.082031 C 238.136719 204.519531 239.359375 205.550781 240.617188 204.921875 C 242.054688 204.203125 242.984375 202.898438 243.976562 202.402344 C 244.8125 201.984375 246.832031 202.144531 246.914062 201.984375 C 248.089844 199.628906 249.898438 185.277344 248.59375 182.664062 C 247.175781 179.828125 243.300781 173.9375 245.234375 170.070312 C 246.382812 167.769531 245.78125 164.777344 246.914062 162.507812 C 248.585938 159.167969 250.410156 158.035156 251.953125 154.953125 C 252.640625 153.578125 251.75 146.960938 252.792969 144.875 C 253.34375 143.769531 251.789062 133.625 251.113281 132.273438 C 251.113281 132.273438 248.59375 129.757812 248.59375 129.757812 C 242.851562 118.273438 227.367188 115.898438 215 115.898438 C 215 117.921875 213.355469 118.417969 211.640625 118.417969 Z M 211.640625 118.417969 "/>
<path style=" stroke:none;fill-rule:nonzero;fill:rgb(100%,89.019608%,0%);fill-opacity:1;" d="M 192.324219 116.738281 C 194.300781 116.738281 200.722656 117.203125 200.722656 120.097656 C 199.449219 120.097656 192.324219 118.296875 192.324219 116.738281 Z M 192.324219 116.738281 "/>
<path style=" stroke:none;fill-rule:nonzero;fill:rgb(18.82353%,85.490197%,0%);fill-opacity:1;" d="M 65.507812 202.402344 L 61.308594 207.023438 L 63.828125 209.539062 C 66.324219 214.535156 69.792969 212.734375 74.328125 215 L 75.164062 216.679688 C 78.785156 216.679688 77.019531 208.367188 75.164062 207.441406 L 70.96875 205.761719 C 69.867188 205.210938 66.503906 202.402344 65.507812 202.402344 Z M 65.507812 202.402344 "/>
<path style=" stroke:none;fill-rule:nonzero;fill:rgb(100%,89.019608%,0%);fill-opacity:1;" d="M 162.089844 202.402344 L 162.929688 203.242188 C 162.929688 203.242188 162.089844 202.402344 162.089844 202.402344 Z M 162.089844 202.402344 "/>
<path style=" stroke:none;fill-rule:nonzero;fill:rgb(100%,89.019608%,0%);fill-opacity:1;" d="M 162.929688 204.082031 L 164.609375 205.761719 C 163.140625 205.761719 162.929688 205.550781 162.929688 204.082031 Z M 162.929688 204.082031 "/>
<path style=" stroke:none;fill-rule:nonzero;fill:rgb(98.039216%,50.196081%,44.705883%);fill-opacity:1;" d="M 258.671875 302.34375 C 258.671875 303.160156 255.128906 304.808594 254.472656 306.125 C 252.613281 309.839844 256.558594 311.1875 254.472656 315.359375 C 253.71875 316.867188 254.757812 319.289062 255.3125 320.398438 L 254.472656 327.117188 C 257.050781 332.273438 265.886719 330.441406 270.007812 328.378906 C 273.515625 326.625 270.710938 316.765625 269.589844 314.523438 C 268.839844 313.019531 272.570312 309.5625 271.269531 306.960938 C 269.136719 302.699219 263.113281 302.34375 258.671875 302.34375 Z M 258.671875 302.34375 "/>
<path style=" stroke:none;fill-rule:nonzero;fill:rgb(98.039216%,50.196081%,44.705883%);fill-opacity:1;" d="M 147.8125 303.183594 C 147.8125 303.496094 144.230469 305.726562 143.613281 306.960938 L 144.453125 312.84375 C 143.484375 314.78125 140.117188 313.117188 138.574219 316.203125 C 137.957031 317.4375 138.898438 320.027344 137.3125 320.820312 C 133.476562 322.738281 127.65625 320.527344 127.65625 328.796875 C 127.65625 338.5 134.132812 331.828125 137.3125 333.417969 L 139.835938 335.097656 C 141.570312 335.097656 142.894531 330.058594 143.195312 330.058594 L 147.390625 332.578125 C 149.121094 333.441406 150.332031 330.898438 151.59375 330.898438 C 155.074219 330.898438 161.359375 333.617188 163.769531 328.796875 C 165.507812 325.324219 161.25 323.347656 161.25 321.242188 C 161.25 319.613281 163.699219 316.375 160.828125 314.941406 C 159.445312 314.25 156.902344 315.90625 156.210938 314.523438 C 155.679688 313.457031 159.121094 309.425781 157.890625 306.960938 C 156.636719 304.457031 149.921875 303.183594 147.8125 303.183594 Z M 147.8125 303.183594 "/>
<path style=" stroke:none;fill-rule:nonzero;fill:rgb(98.039216%,50.196081%,44.705883%);fill-opacity:1;" d="M 274.628906 321.660156 C 274.628906 323.164062 271.882812 324.144531 272.949219 326.28125 C 274.453125 329.289062 275.824219 327.539062 277.570312 327.539062 C 278.972656 327.539062 280.285156 330.378906 282.609375 329.21875 C 285.1875 327.929688 283.875 323.554688 281.765625 322.5 L 278.40625 323.339844 C 276.644531 322.457031 276.816406 321.660156 274.628906 321.660156 Z M 274.628906 321.660156 "/>
</g>
</svg>
