<?xml version="1.0" encoding="UTF-8"?>
<svg xmlns="http://www.w3.org/2000/svg" xmlns:xlink="http://www.w3.org/1999/xlink" width="430px" height="430px" viewBox="0 0 430 430" version="1.1">
<g id="surface1">
<rect x="0" y="0" width="430" height="430" style="fill:rgb(0%,0%,0%);fill-opacity:1;stroke:none;"/>
<path style=" stroke:none;fill-rule:evenodd;fill:rgb(52.549022%,100%,35.294119%);fill-opacity:1;" d="M 201.5625 303.183594 C 201.5625 304.164062 201.148438 311.175781 201.5625 312 C 205.105469 319.085938 212.742188 304.023438 207.859375 304.023438 C 206.191406 304.023438 203.96875 303.183594 201.5625 303.183594 M 205.761719 270.429688 C 205.761719 272.832031 196.125 271.257812 194.421875 272.109375 C 188.914062 274.863281 182.007812 276.21875 176.789062 278.828125 L 176.367188 280.929688 L 172.167969 285.125 C 169.5 290.460938 168.128906 296.566406 165.449219 301.921875 L 165.449219 308.640625 C 163.636719 312.265625 164.65625 316.296875 166.289062 319.5625 L 167.128906 326.28125 C 173.332031 338.6875 178.4375 341.800781 190.226562 347.695312 C 194.980469 350.074219 206.796875 344.222656 207.023438 344.335938 C 213.8125 347.730469 218.8125 349.777344 226.335938 346.015625 L 233.898438 339.296875 L 241.035156 333 C 244.148438 326.769531 244.496094 320.199219 247.753906 313.679688 L 246.074219 310.320312 C 243.988281 306.148438 246.535156 299.488281 244.394531 295.203125 L 241.875 292.6875 L 241.035156 286.804688 C 236.898438 278.53125 214.367188 270.429688 205.761719 270.429688 Z M 205.761719 270.429688 "/>
<path style=" stroke:none;fill-rule:nonzero;fill:rgb(92.156863%,34.117648%,100%);fill-opacity:1;" d="M 201.5625 303.183594 C 201.5625 304.164062 201.148438 311.175781 201.5625 312 C 205.105469 319.085938 212.742188 304.023438 207.859375 304.023438 C 206.191406 304.023438 203.96875 303.183594 201.5625 303.183594 Z M 201.5625 303.183594 "/>
</g>
</svg>
