<?xml version="1.0" encoding="UTF-8"?>
<svg xmlns="http://www.w3.org/2000/svg" xmlns:xlink="http://www.w3.org/1999/xlink" width="430px" height="430px" viewBox="0 0 430 430" version="1.1">
<g id="surface1">
<rect x="0" y="0" width="430" height="430" style="fill:rgb(0%,0%,0%);fill-opacity:1;stroke:none;"/>
<path style=" stroke:none;fill-rule:evenodd;fill:rgb(100%,100%,0%);fill-opacity:1;" d="M 123.457031 154.53125 C 123.457031 156.289062 126.601562 154.53125 123.457031 154.53125 M 266.230469 152.851562 C 266.230469 155.996094 267.988281 152.851562 266.230469 152.851562 M 263.710938 146.132812 C 263.710938 150.808594 265.484375 146.132812 263.710938 146.132812 M 151.171875 132.695312 C 151.171875 135.367188 144.796875 140.710938 142.351562 141.933594 L 141.515625 144.453125 C 138.621094 145.898438 129.523438 154.484375 131.855469 159.148438 C 132.804688 161.046875 134.535156 162.828125 135.214844 164.1875 C 135.960938 165.683594 134.746094 167.105469 136.476562 167.96875 C 138.808594 169.136719 139.113281 164.128906 139.835938 163.769531 C 142.816406 162.277344 149.03125 144.953125 151.171875 140.671875 C 151.816406 139.382812 151.769531 132.695312 151.171875 132.695312 M 137.734375 126.816406 C 137.734375 127.554688 128.847656 131.46875 126.398438 132.695312 C 125.414062 133.1875 114.953125 145.085938 114.21875 146.554688 C 113.222656 148.546875 116.738281 147.25 116.738281 148.234375 C 116.738281 149.496094 113.832031 151.609375 116.320312 152.851562 C 118.03125 153.707031 123.457031 149.074219 124.71875 147.8125 C 126.992188 145.539062 147.671875 126.816406 137.734375 126.816406 M 213.320312 91.542969 C 213.320312 93.046875 203.234375 92.382812 201.5625 92.382812 C 198.027344 92.382812 193.207031 93.410156 190.226562 94.902344 L 182.664062 103.300781 C 181.675781 103.300781 180.722656 102.570312 179.726562 104.5625 L 180.566406 107.078125 L 178.886719 108.757812 C 179.230469 109.449219 190.800781 111.832031 192.742188 110.859375 C 202.582031 105.941406 211.980469 109.179688 221.296875 109.179688 C 223.699219 109.179688 228.867188 112.9375 230.957031 108.757812 C 231.046875 108.582031 225.90625 101.824219 225.5 101.621094 L 223.398438 101.203125 L 224.238281 98.679688 L 220.460938 98.261719 C 216.707031 96.386719 220.039062 95.421875 220.039062 94.484375 L 213.320312 91.542969 M 170.488281 183.085938 C 175.722656 183.085938 185.234375 187.285156 193.585938 187.285156 C 200.101562 187.285156 209.613281 185.222656 213.742188 187.285156 C 219.21875 190.027344 236.265625 183.011719 239.773438 184.765625 C 240.75 185.25 239.132812 188.769531 238.515625 189.382812 C 236.039062 191.863281 231.898438 193.324219 228.859375 194.84375 L 223.820312 194.84375 C 214.3125 199.597656 205.277344 202.371094 195.265625 197.363281 L 185.1875 197.363281 L 180.984375 195.683594 L 179.304688 193.164062 C 176.820312 193.164062 167.96875 188.9375 167.96875 185.605469 C 164.984375 185.605469 167.480469 190.089844 167.96875 191.0625 C 170.125 195.375 173.015625 194.636719 176.789062 196.523438 C 176.789062 196.523438 178.46875 199.882812 178.46875 199.882812 C 194.117188 199.882812 203.902344 209 220.460938 200.722656 C 220.460938 200.722656 229.695312 199.882812 229.695312 199.882812 C 231.691406 198.886719 244.207031 193.117188 246.074219 189.382812 C 248.164062 185.207031 243.054688 181.984375 245.234375 177.625 C 245.234375 177.625 246.492188 175.527344 246.492188 175.527344 C 246.492188 175.527344 246.914062 177.625 246.914062 177.625 C 247.570312 178.9375 249.164062 181.554688 250.695312 183.085938 C 254.710938 187.101562 260.097656 188.964844 264.132812 188.964844 C 264.132812 188.964844 264.96875 190.644531 264.96875 190.644531 C 266.105469 190.644531 270.03125 179.347656 268.75 176.789062 C 267.1875 173.664062 267.777344 167.128906 264.96875 167.128906 C 264.96875 167.128906 264.550781 163.351562 264.550781 163.351562 C 265.648438 161.15625 267.179688 165.292969 267.492188 165.449219 C 268.445312 165.925781 269.953125 165.753906 270.429688 166.710938 C 270.929688 167.710938 272.230469 172.316406 274.210938 171.328125 C 276.722656 170.070312 277.945312 168.808594 280.085938 168.808594 C 280.085938 168.808594 280.507812 165.03125 280.507812 165.03125 C 281.503906 163.035156 283.570312 159.398438 282.1875 156.632812 C 277.105469 146.472656 270.984375 140.945312 265.390625 129.757812 C 263.574219 126.125 257.371094 123.480469 254.054688 125.136719 C 250.351562 126.988281 250.347656 134.941406 251.953125 138.15625 C 251.953125 138.15625 253.632812 138.15625 253.632812 138.15625 C 254 138.890625 253.324219 141.09375 252.375 141.09375 C 252.375 141.09375 251.53125 138.574219 251.53125 138.574219 C 247.195312 136.40625 246.464844 128.019531 244.394531 123.875 C 243.25 121.589844 231.796875 113.8125 231.796875 113.796875 C 231.796875 113.796875 235.15625 112.117188 235.15625 112.117188 C 235.972656 110.484375 234.671875 108.890625 235.15625 107.921875 C 235.695312 106.84375 237.636719 106.160156 236.835938 104.5625 C 235.507812 101.90625 234.789062 98.792969 233.476562 96.164062 C 232.34375 93.898438 231.808594 96.378906 230.539062 95.742188 C 227.9375 94.441406 226.128906 90.597656 222.976562 89.023438 C 220.335938 87.703125 203.507812 85.742188 200.304688 87.34375 C 193.746094 90.621094 180.867188 91.363281 177.207031 98.679688 C 176.378906 100.335938 177.703125 102.726562 177.207031 103.71875 C 175.9375 106.257812 174.6875 106.601562 174.6875 109.601562 C 174.6875 109.980469 178.003906 112.203125 177.207031 113.796875 C 177.207031 113.796875 171.75 114.21875 171.75 114.21875 C 171.75 114.21875 172.167969 115.476562 172.167969 115.476562 C 172.167969 115.851562 164.734375 121.777344 163.351562 121.777344 C 163.351562 121.777344 161.671875 126.816406 161.671875 126.816406 C 159.28125 126.816406 158.40625 120.050781 153.273438 122.617188 C 151.898438 123.304688 150.835938 128.496094 148.234375 128.496094 C 147.285156 128.496094 149.042969 124.324219 149.492188 123.875 C 151.226562 122.140625 151.171875 119.542969 151.171875 118 C 151.171875 118 146.972656 117.15625 146.972656 117.15625 C 146.09375 115.402344 146.890625 113.378906 144.03125 113.378906 C 144.03125 113.378906 142.351562 116.738281 142.351562 116.738281 C 142.351562 116.738281 141.515625 114.21875 141.515625 114.21875 C 141.515625 114.21875 139.835938 116.738281 139.835938 116.738281 C 134.195312 116.738281 131.070312 123.21875 125.554688 125.976562 C 124.101562 126.703125 123.203125 125.472656 122.195312 125.976562 C 121.199219 126.476562 121.449219 129.289062 119.679688 130.175781 C 118.320312 130.855469 118.113281 130.175781 117.15625 130.175781 C 117.15625 130.175781 112.960938 135.214844 112.960938 135.214844 C 105.226562 139.082031 106.496094 154.625 110.019531 161.671875 C 110.542969 162.714844 118.453125 159.957031 119.257812 159.148438 C 119.257812 159.148438 123.457031 155.789062 123.457031 155.789062 C 124.105469 157.085938 119.910156 162.394531 118.835938 162.929688 C 118.835938 162.929688 115.898438 162.507812 115.898438 162.507812 C 115.445312 163.414062 116.777344 171.828125 117.578125 173.429688 C 117.578125 173.429688 119.679688 172.167969 119.679688 172.167969 C 119.679688 172.167969 120.515625 173.847656 120.515625 173.847656 C 120.515625 173.847656 123.039062 173.847656 123.039062 173.847656 C 123.039062 173.847656 123.875 177.207031 123.875 177.207031 C 125.003906 177.769531 132.511719 179.609375 133.953125 178.886719 C 135.769531 177.980469 136.574219 174.738281 139.835938 176.367188 C 139.835938 176.367188 138.992188 177.207031 138.992188 177.207031 C 138.992188 177.207031 138.574219 188.546875 138.574219 188.546875 C 139.378906 190.15625 139.347656 186.445312 139.835938 186.445312 C 140.265625 186.445312 140.234375 191.484375 143.195312 191.484375 C 143.195312 191.484375 144.03125 188.964844 144.03125 188.964844 C 145.480469 188.242188 145.253906 191.714844 147.390625 190.644531 C 150.507812 189.085938 160.34375 181.125 161.25 179.304688 C 161.25 179.304688 165.03125 167.96875 165.03125 167.96875 C 165.03125 167.96875 165.867188 169.648438 165.867188 169.648438 C 165.867188 169.648438 166.710938 167.128906 166.710938 167.128906 C 166.710938 167.128906 170.070312 170.488281 170.070312 170.488281 C 171.683594 169.679688 171.464844 167.128906 173.847656 167.128906 C 173.847656 167.128906 173.847656 166.289062 173.847656 166.289062 C 172.851562 166.289062 172.851562 165.449219 173.847656 165.449219 C 173.847656 165.449219 173.847656 164.609375 173.847656 164.609375 C 172.851562 164.609375 172.851562 163.769531 173.847656 163.769531 C 173.847656 163.179688 174.554688 158.046875 175.527344 159.992188 C 175.527344 159.992188 175.945312 163.769531 175.945312 163.769531 C 175.945312 163.769531 176.367188 159.992188 176.367188 159.992188 C 176.367188 159.992188 181.40625 153.273438 181.40625 153.273438 C 181.40625 153.273438 194.421875 145.292969 194.421875 145.292969 C 196.777344 144.117188 202.242188 146.84375 205.34375 145.292969 C 210.40625 142.761719 222.554688 141.722656 228.015625 144.453125 C 232.042969 146.464844 231.351562 148.652344 235.578125 148.652344 C 235.578125 148.652344 235.996094 150.75 235.996094 150.75 C 239.558594 157.878906 233.011719 155.699219 235.15625 159.992188 C 236.03125 161.738281 238.757812 157.953125 239.355469 159.148438 C 240.042969 160.523438 239.355469 167.703125 239.355469 170.070312 C 239.355469 170.070312 238.9375 173.847656 238.9375 173.847656 C 236.96875 173.847656 233.632812 169.648438 233.054688 169.648438 C 233.054688 169.648438 231.375 171.328125 231.375 171.328125 C 231.375 171.328125 230.539062 169.648438 230.539062 169.648438 C 228.796875 169.648438 225.125 170.488281 223.820312 170.488281 C 223.820312 170.488281 222.140625 168.808594 222.140625 168.808594 C 217.796875 168.808594 210.683594 168.960938 207.023438 167.128906 C 205.070312 166.152344 203.257812 169.867188 201.140625 168.808594 C 200.667969 168.570312 188.042969 168.640625 186.023438 169.648438 C 186.023438 169.648438 184.34375 171.328125 184.34375 171.328125 C 184.34375 171.328125 180.148438 168.808594 180.148438 168.808594 C 180.148438 168.808594 178.46875 170.488281 178.46875 170.488281 C 178.46875 170.488281 176.789062 167.96875 176.789062 167.96875 C 176.789062 167.96875 173.847656 168.808594 173.847656 168.808594 C 173.847656 170.832031 172.773438 169.695312 172.167969 170.90625 C 172.167969 170.90625 173.007812 178.46875 173.007812 178.46875 C 171.953125 180.578125 170.488281 175.992188 170.488281 183.085938 M 174.6875 136.894531 L 173.847656 137.734375 C 173.847656 140.824219 171.71875 140.730469 170.488281 143.195312 C 168.589844 146.992188 168.808594 153.121094 168.808594 156.632812 C 168.808594 156.777344 168.082031 160.410156 170.070312 160.410156 C 171.609375 160.410156 171.730469 155.824219 172.167969 154.953125 C 174.769531 149.75 175.625 147.199219 178.046875 142.351562 C 180.570312 137.308594 191.695312 134.480469 196.945312 131.855469 C 198.132812 131.261719 222.96875 131.851562 222.976562 131.855469 C 225.714844 133.222656 231.929688 135.0625 233.476562 138.15625 C 239.726562 150.65625 244.773438 161.585938 251.113281 174.265625 C 252.546875 177.132812 259.796875 183.773438 262.03125 179.304688 C 266.648438 170.070312 256.550781 154.910156 252.792969 147.390625 C 251.414062 144.632812 248.1875 146.578125 247.753906 145.710938 C 247.753906 145.710938 241.875 136.476562 241.875 136.476562 C 240.410156 133.546875 239.652344 127.832031 237.675781 123.875 C 233.769531 116.066406 204.390625 120.9375 196.945312 120.9375 C 192.878906 120.9375 179.550781 117.457031 177.625 118.417969 C 173.433594 120.511719 171.253906 125.976562 167.546875 125.976562 C 167.546875 125.976562 166.710938 130.175781 166.710938 130.175781 C 166.710938 130.175781 165.867188 126.816406 165.867188 126.816406 C 165.226562 126.816406 163.574219 131.828125 162.929688 133.117188 C 162.929688 133.117188 156.210938 144.03125 156.210938 144.03125 C 154.835938 146.785156 155.046875 150.558594 153.691406 153.273438 C 151.710938 157.230469 143.523438 178.285156 145.292969 181.828125 C 146.0625 183.359375 149.957031 181.804688 150.75 181.40625 C 152.542969 180.511719 158.902344 175.601562 160.410156 172.585938 C 160.410156 172.585938 160.410156 168.390625 160.410156 168.390625 C 164.539062 160.128906 162.109375 149.03125 166.289062 140.671875 C 166.289062 140.671875 166.289062 137.3125 166.289062 137.3125 C 167.105469 135.683594 174.261719 125.542969 176.367188 129.757812 C 177.824219 132.671875 174.6875 135.679688 174.6875 136.894531 Z M 174.6875 136.894531 "/>
<path style=" stroke:none;fill-rule:nonzero;fill:rgb(0%,100%,100%);fill-opacity:1;" d="M 213.320312 91.542969 C 213.320312 93.046875 203.234375 92.382812 201.5625 92.382812 C 198.027344 92.382812 193.207031 93.410156 190.226562 94.902344 L 182.664062 103.300781 C 181.675781 103.300781 180.722656 102.570312 179.726562 104.5625 L 180.566406 107.078125 L 178.886719 108.757812 C 179.230469 109.449219 190.800781 111.832031 192.742188 110.859375 C 202.582031 105.941406 211.980469 109.179688 221.296875 109.179688 C 223.699219 109.179688 228.867188 112.9375 230.957031 108.757812 C 231.046875 108.582031 225.90625 101.824219 225.5 101.621094 L 223.398438 101.203125 L 224.238281 98.679688 L 220.460938 98.261719 C 216.707031 96.386719 220.039062 95.421875 220.039062 94.484375 Z M 213.320312 91.542969 "/>
<path style=" stroke:none;fill-rule:nonzero;fill:rgb(0%,100%,100%);fill-opacity:1;" d="M 174.6875 136.894531 L 173.847656 137.734375 C 173.847656 140.824219 171.71875 140.730469 170.488281 143.195312 C 168.589844 146.992188 168.808594 153.121094 168.808594 156.632812 C 168.808594 156.777344 168.082031 160.410156 170.070312 160.410156 C 171.609375 160.410156 171.730469 155.824219 172.167969 154.953125 C 174.769531 149.75 175.625 147.199219 178.046875 142.351562 C 180.570312 137.308594 191.695312 134.480469 196.945312 131.855469 C 198.132812 131.261719 222.96875 131.851562 222.976562 131.855469 C 225.714844 133.222656 231.929688 135.0625 233.476562 138.15625 C 239.726562 150.65625 244.773438 161.585938 251.113281 174.265625 C 252.546875 177.132812 259.796875 183.773438 262.03125 179.304688 C 266.648438 170.070312 256.550781 154.910156 252.792969 147.390625 C 251.414062 144.632812 248.1875 146.578125 247.753906 145.710938 C 247.753906 145.710938 241.875 136.476562 241.875 136.476562 C 240.410156 133.546875 239.652344 127.832031 237.675781 123.875 C 233.769531 116.066406 204.390625 120.9375 196.945312 120.9375 C 192.878906 120.9375 179.550781 117.457031 177.625 118.417969 C 173.433594 120.511719 171.253906 125.976562 167.546875 125.976562 C 167.546875 125.976562 166.710938 130.175781 166.710938 130.175781 C 166.710938 130.175781 165.867188 126.816406 165.867188 126.816406 C 165.226562 126.816406 163.574219 131.828125 162.929688 133.117188 C 162.929688 133.117188 156.210938 144.03125 156.210938 144.03125 C 154.835938 146.785156 155.046875 150.558594 153.691406 153.273438 C 151.710938 157.230469 143.523438 178.285156 145.292969 181.828125 C 146.0625 183.359375 149.957031 181.804688 150.75 181.40625 C 152.542969 180.511719 158.902344 175.601562 160.410156 172.585938 C 160.410156 172.585938 160.410156 168.390625 160.410156 168.390625 C 164.539062 160.128906 162.109375 149.03125 166.289062 140.671875 C 166.289062 140.671875 166.289062 137.3125 166.289062 137.3125 C 167.105469 135.683594 174.261719 125.542969 176.367188 129.757812 C 177.824219 132.671875 174.6875 135.679688 174.6875 136.894531 Z M 174.6875 136.894531 "/>
<path style=" stroke:none;fill-rule:nonzero;fill:rgb(0%,100%,100%);fill-opacity:1;" d="M 137.734375 126.816406 C 137.734375 127.554688 128.847656 131.46875 126.398438 132.695312 C 125.414062 133.1875 114.953125 145.085938 114.21875 146.554688 C 113.222656 148.546875 116.738281 147.25 116.738281 148.234375 C 116.738281 149.496094 113.832031 151.609375 116.320312 152.851562 C 118.03125 153.707031 123.457031 149.074219 124.71875 147.8125 C 126.992188 145.539062 147.671875 126.816406 137.734375 126.816406 Z M 137.734375 126.816406 "/>
<path style=" stroke:none;fill-rule:nonzero;fill:rgb(100%,100%,0%);fill-opacity:1;" d="M 276.308594 131.855469 C 276.308594 139.851562 278.261719 135.34375 281.347656 141.515625 C 281.984375 142.789062 286.386719 143.722656 286.386719 141.515625 C 286.386719 138.367188 279.535156 131.855469 276.308594 131.855469 Z M 276.308594 131.855469 "/>
<path style=" stroke:none;fill-rule:nonzero;fill:rgb(0%,100%,100%);fill-opacity:1;" d="M 151.171875 132.695312 C 151.171875 135.367188 144.796875 140.710938 142.351562 141.933594 L 141.515625 144.453125 C 138.621094 145.898438 129.523438 154.484375 131.855469 159.148438 C 132.804688 161.046875 134.535156 162.828125 135.214844 164.1875 C 135.960938 165.683594 134.746094 167.105469 136.476562 167.96875 C 138.808594 169.136719 139.113281 164.128906 139.835938 163.769531 C 142.816406 162.277344 149.03125 144.953125 151.171875 140.671875 C 151.816406 139.382812 151.769531 132.695312 151.171875 132.695312 Z M 151.171875 132.695312 "/>
<path style=" stroke:none;fill-rule:nonzero;fill:rgb(0%,100%,100%);fill-opacity:1;" d="M 173.847656 167.128906 L 173.847656 168.808594 C 173.847656 168.808594 176.789062 167.96875 176.789062 167.96875 C 176.789062 167.96875 178.46875 170.488281 178.46875 170.488281 C 178.46875 170.488281 180.148438 168.808594 180.148438 168.808594 C 180.148438 168.808594 184.34375 171.328125 184.34375 171.328125 C 184.34375 171.328125 186.023438 169.648438 186.023438 169.648438 C 188.042969 168.640625 200.667969 168.570312 201.140625 168.808594 C 203.257812 169.867188 205.070312 166.152344 207.023438 167.128906 C 210.683594 168.960938 217.796875 168.808594 222.140625 168.808594 C 222.140625 168.808594 223.820312 170.488281 223.820312 170.488281 C 225.125 170.488281 228.796875 169.648438 230.539062 169.648438 C 230.539062 169.648438 231.375 171.328125 231.375 171.328125 C 231.375 171.328125 233.054688 169.648438 233.054688 169.648438 C 233.632812 169.648438 236.96875 173.847656 238.9375 173.847656 C 238.9375 173.847656 239.355469 170.070312 239.355469 170.070312 C 239.355469 167.703125 240.042969 160.523438 239.355469 159.148438 C 238.757812 157.953125 236.03125 161.738281 235.15625 159.992188 C 233.011719 155.699219 239.558594 157.878906 235.996094 150.75 C 235.996094 150.75 235.578125 148.652344 235.578125 148.652344 C 231.351562 148.652344 232.042969 146.464844 228.015625 144.453125 C 222.554688 141.722656 210.40625 142.761719 205.34375 145.292969 C 202.242188 146.84375 196.777344 144.117188 194.421875 145.292969 C 194.421875 145.292969 181.40625 153.273438 181.40625 153.273438 C 181.40625 153.273438 176.367188 159.992188 176.367188 159.992188 C 176.367188 159.992188 175.945312 163.769531 175.945312 163.769531 C 175.945312 163.769531 175.527344 159.992188 175.527344 159.992188 C 174.554688 158.046875 173.847656 163.179688 173.847656 163.769531 C 173.847656 163.769531 173.847656 164.609375 173.847656 164.609375 C 173.847656 164.609375 173.847656 165.449219 173.847656 165.449219 C 173.847656 165.449219 173.847656 166.289062 173.847656 166.289062 C 173.847656 166.289062 173.847656 167.128906 173.847656 167.128906 Z M 173.847656 167.128906 "/>
<path style=" stroke:none;fill-rule:nonzero;fill:rgb(0%,100%,100%);fill-opacity:1;" d="M 263.710938 146.132812 C 263.710938 150.808594 265.484375 146.132812 263.710938 146.132812 Z M 263.710938 146.132812 "/>
<path style=" stroke:none;fill-rule:nonzero;fill:rgb(0%,100%,100%);fill-opacity:1;" d="M 266.230469 152.851562 C 266.230469 155.996094 267.988281 152.851562 266.230469 152.851562 Z M 266.230469 152.851562 "/>
<path style=" stroke:none;fill-rule:nonzero;fill:rgb(100%,100%,0%);fill-opacity:1;" d="M 169.648438 183.925781 L 168.808594 185.605469 C 168.808594 183.992188 169.648438 180.671875 169.648438 183.925781 Z M 169.648438 183.925781 "/>
<path style=" stroke:none;fill-rule:nonzero;fill:rgb(0%,100%,100%);fill-opacity:1;" d="M 167.96875 185.605469 L 168.808594 185.605469 C 168.808594 185.605469 169.648438 183.925781 169.648438 183.925781 C 169.648438 183.925781 170.488281 183.085938 170.488281 183.085938 C 175.722656 183.085938 185.234375 187.285156 193.585938 187.285156 C 200.101562 187.285156 209.613281 185.222656 213.742188 187.285156 C 219.21875 190.027344 236.265625 183.011719 239.773438 184.765625 C 240.75 185.25 239.132812 188.769531 238.515625 189.382812 C 236.039062 191.863281 231.898438 193.324219 228.859375 194.84375 C 228.859375 194.84375 223.820312 194.84375 223.820312 194.84375 C 214.3125 199.597656 205.277344 202.371094 195.265625 197.363281 C 195.265625 197.363281 185.1875 197.363281 185.1875 197.363281 C 185.1875 197.363281 180.984375 195.683594 180.984375 195.683594 C 180.984375 195.683594 179.304688 193.164062 179.304688 193.164062 C 176.820312 193.164062 167.96875 188.9375 167.96875 185.605469 Z M 167.96875 185.605469 "/>
<path style=" stroke:none;fill-rule:evenodd;fill:rgb(60.000002%,32.549021%,100%);fill-opacity:1;" d="M 173.007812 281.347656 C 173.007812 284.492188 174.765625 281.347656 173.007812 281.347656 M 201.5625 208.28125 C 201.5625 212.683594 206.882812 208.28125 201.5625 208.28125 M 227.597656 284.707031 L 229.277344 284.707031 C 229.277344 284.707031 230.957031 283.867188 230.957031 283.867188 C 236.394531 283.867188 249.632812 282.714844 254.054688 280.507812 C 254.054688 280.507812 254.472656 277.570312 254.472656 277.570312 C 254.472656 277.570312 258.25 276.308594 258.25 276.308594 C 258.25 276.308594 261.609375 272.949219 261.609375 272.949219 C 263.28125 272.117188 271.269531 265.035156 271.269531 262.871094 C 271.269531 261.558594 270.429688 259.617188 270.429688 257.832031 C 270.429688 254.0625 263.523438 257.878906 262.03125 254.890625 C 260.980469 252.789062 263.710938 248.492188 263.710938 246.492188 C 263.710938 246.492188 261.191406 243.976562 261.191406 243.976562 C 259.910156 241.414062 259.152344 238.21875 257.832031 235.578125 C 254.761719 229.433594 251.953125 232.1875 251.953125 224.65625 C 251.953125 224.65625 248.59375 221.296875 248.59375 221.296875 C 246.746094 217.605469 250.820312 215 253.632812 215 C 253.632812 214.171875 247.84375 210.558594 246.914062 208.703125 C 246.242188 207.363281 249.210938 206.921875 249.851562 206.601562 C 253.332031 204.863281 254.785156 209.121094 258.671875 209.121094 C 258.671875 206.941406 253.910156 207.570312 252.792969 205.34375 C 252.792969 205.34375 249.015625 199.042969 249.015625 199.042969 C 245.902344 197.488281 232.929688 201.207031 230.539062 202.402344 C 227.914062 203.714844 219.199219 203.910156 219.199219 209.960938 C 219.199219 209.960938 220.460938 211.640625 220.460938 211.640625 C 226.15625 217.335938 220.832031 217 223.398438 222.140625 C 223.398438 222.140625 226.757812 223.820312 226.757812 223.820312 C 226.757812 223.820312 225.917969 225.5 225.917969 225.5 C 225.917969 232.835938 223.160156 228.496094 221.71875 231.375 C 217.328125 240.15625 212.117188 240.195312 202.402344 240.195312 C 202.402344 240.195312 193.585938 241.035156 193.585938 241.035156 C 193.585938 241.035156 193.164062 234.734375 193.164062 234.734375 C 193.164062 234.734375 188.964844 232.21875 188.964844 232.21875 C 188.964844 232.21875 188.546875 228.4375 188.546875 228.4375 C 186.800781 227.566406 183.085938 228.289062 183.085938 226.335938 C 183.085938 226.335938 188.125 218.78125 188.125 218.78125 C 188.125 218.78125 187.285156 216.257812 187.285156 216.257812 C 187.285156 216.257812 188.964844 214.578125 188.964844 214.578125 C 188.964844 214.578125 187.285156 213.742188 187.285156 213.742188 C 187.285156 213.742188 191.0625 210.800781 191.0625 210.800781 C 191.0625 210.800781 199.460938 211.640625 199.460938 211.640625 C 199.460938 211.640625 202.820312 210.800781 202.820312 210.800781 C 202.820312 210.800781 204.082031 212.898438 204.082031 212.898438 C 204.082031 212.898438 201.5625 213.742188 201.5625 213.742188 C 201.5625 213.742188 206.179688 214.160156 206.179688 214.160156 C 209.234375 212.632812 205.003906 212.738281 205.761719 211.21875 C 205.761719 211.21875 207.441406 209.539062 207.441406 209.539062 C 207.441406 209.539062 204.921875 208.703125 204.921875 208.703125 C 204.921875 206.664062 208.671875 209.945312 208.703125 209.960938 C 211.433594 211.328125 215.964844 209.960938 218.359375 209.960938 C 218.359375 206.882812 213.589844 207.441406 211.640625 207.441406 C 211.640625 207.441406 201.140625 207.441406 201.140625 207.441406 C 198.910156 208.558594 195.042969 211.53125 191.90625 209.960938 C 189.539062 208.777344 188.144531 205.5625 185.1875 204.082031 C 181.992188 202.484375 161.84375 197.277344 158.3125 199.042969 C 157.867188 199.265625 156.210938 206.40625 156.210938 207.441406 C 157.984375 207.441406 158.546875 207.558594 159.992188 208.28125 C 159.992188 208.28125 161.671875 209.121094 161.671875 209.121094 C 167.90625 215.359375 153.691406 209.742188 153.691406 214.160156 C 153.691406 218.242188 157.578125 216.472656 158.730469 218.78125 C 158.730469 218.78125 157.890625 220.460938 157.890625 220.460938 C 157.890625 227.039062 158.429688 230.296875 155.371094 236.414062 C 155.371094 236.414062 150.332031 241.453125 150.332031 241.453125 C 148.746094 244.625 150.179688 249.316406 148.652344 252.375 C 146.96875 255.738281 142.167969 254.472656 139.414062 254.472656 C 139.414062 256.976562 142.40625 255.835938 143.613281 258.25 C 145.316406 261.652344 140.582031 262.03125 138.574219 262.03125 C 138.574219 265.988281 144.050781 267.929688 146.554688 270.429688 C 156.65625 280.535156 165.640625 283.867188 179.726562 283.867188 C 179.726562 282.691406 181.40625 282.691406 181.40625 283.867188 C 181.40625 283.867188 182.246094 283.867188 182.246094 283.867188 C 183.183594 283.867188 185.605469 282.160156 185.605469 281.347656 C 183.75 281.347656 179.902344 278.53125 182.664062 277.148438 C 187.40625 274.777344 194.839844 275.679688 198.625 273.789062 C 200.261719 272.96875 199.066406 268.75 202.820312 268.75 C 204.410156 268.75 204.589844 274.875 204.082031 275.890625 C 204.082031 275.890625 199.882812 277.988281 199.882812 277.988281 C 199.882812 277.988281 203.242188 278.828125 203.242188 278.828125 C 203.242188 277.800781 207.441406 277.257812 207.441406 277.988281 C 208.078125 277.988281 213.320312 276.882812 213.320312 276.308594 C 212.070312 276.308594 206.601562 276.925781 206.601562 275.46875 C 202.082031 275.46875 206.601562 252.179688 206.601562 264.96875 C 206.601562 264.96875 206.601562 268.75 206.601562 268.75 C 209.332031 268.75 209.976562 271.90625 212.0625 272.949219 C 213.363281 273.601562 215.804688 270.78125 216.679688 272.53125 C 216.679688 272.53125 215.839844 276.308594 215.839844 276.308594 C 215.839844 277.746094 218 278.828125 219.199219 278.828125 C 219.199219 278.105469 217.160156 275.4375 218.78125 274.628906 C 220.046875 273.996094 230.117188 276.988281 230.117188 278.40625 C 230.117188 278.40625 227.597656 280.929688 227.597656 280.929688 C 227.597656 280.929688 229.277344 281.765625 229.277344 281.765625 C 229.277344 283.5 225.96875 280.507812 224.238281 280.507812 C 224.238281 283.253906 227.597656 281.960938 227.597656 284.707031 Z M 227.597656 284.707031 "/>
<path style=" stroke:none;fill-rule:nonzero;fill:rgb(98.039216%,50.196081%,44.705883%);fill-opacity:1;" d="M 270.429688 257.832031 C 270.429688 259.617188 271.269531 261.558594 271.269531 262.871094 C 275.773438 262.871094 273.875 260.097656 276.726562 258.671875 C 288.148438 252.960938 285.945312 235.535156 281.347656 226.335938 C 278.851562 221.34375 270.988281 214.230469 265.8125 211.640625 C 264.644531 211.058594 258.671875 210.476562 258.671875 209.121094 C 254.785156 209.121094 253.332031 204.863281 249.851562 206.601562 C 249.210938 206.921875 246.242188 207.363281 246.914062 208.703125 C 247.84375 210.558594 253.632812 214.171875 253.632812 215 C 263.238281 215 273.800781 223.84375 277.988281 232.21875 C 279.269531 234.777344 279.195312 237.992188 280.507812 240.617188 C 282.386719 244.375 274.695312 257.832031 270.429688 257.832031 Z M 270.429688 257.832031 "/>
<path style=" stroke:none;fill-rule:nonzero;fill:rgb(98.039216%,50.196081%,44.705883%);fill-opacity:1;" d="M 139.414062 254.472656 C 139.414062 256.976562 142.40625 255.835938 143.613281 258.25 C 145.316406 261.652344 140.582031 262.03125 138.574219 262.03125 C 138.574219 260.394531 136.511719 261.628906 135.632812 261.191406 C 135.632812 261.191406 133.117188 257.832031 133.117188 257.832031 C 133.117188 257.832031 131.015625 257.414062 131.015625 257.414062 C 131.015625 255.160156 125.148438 244.835938 123.457031 241.453125 C 122.453125 239.445312 125.96875 233.914062 126.816406 232.21875 C 131.769531 222.308594 143.410156 207.441406 156.210938 207.441406 C 157.984375 207.441406 158.546875 207.558594 159.992188 208.28125 C 159.992188 208.28125 161.671875 209.121094 161.671875 209.121094 C 167.90625 215.359375 153.691406 209.742188 153.691406 214.160156 C 148.800781 214.160156 150.421875 217.683594 147.390625 219.199219 C 138.765625 223.511719 134.175781 228.414062 130.175781 236.414062 C 126.875 243.011719 134.316406 254.472656 139.414062 254.472656 Z M 139.414062 254.472656 "/>
<path style=" stroke:none;fill-rule:nonzero;fill:rgb(92.156863%,34.117648%,100%);fill-opacity:1;" d="M 201.5625 208.28125 C 201.5625 212.683594 206.882812 208.28125 201.5625 208.28125 Z M 201.5625 208.28125 "/>
<path style=" stroke:none;fill-rule:evenodd;fill:rgb(92.156863%,34.117648%,100%);fill-opacity:1;" d="M 204.082031 225.917969 C 204.082031 233.636719 209.277344 225.917969 204.082031 225.917969 M 218.359375 209.960938 L 219.199219 209.960938 C 219.199219 209.960938 220.460938 211.640625 220.460938 211.640625 C 226.15625 217.335938 220.832031 217 223.398438 222.140625 C 223.398438 222.140625 226.757812 223.820312 226.757812 223.820312 C 226.757812 223.820312 225.917969 225.5 225.917969 225.5 C 225.917969 232.835938 223.160156 228.496094 221.71875 231.375 C 217.328125 240.15625 212.117188 240.195312 202.402344 240.195312 C 202.402344 240.195312 193.585938 241.035156 193.585938 241.035156 C 193.585938 241.035156 193.164062 234.734375 193.164062 234.734375 C 193.164062 234.734375 188.964844 232.21875 188.964844 232.21875 C 188.964844 232.21875 188.546875 228.4375 188.546875 228.4375 C 186.800781 227.566406 183.085938 228.289062 183.085938 226.335938 C 183.085938 226.335938 188.125 218.78125 188.125 218.78125 C 188.125 218.78125 187.285156 216.257812 187.285156 216.257812 C 187.285156 216.257812 188.964844 214.578125 188.964844 214.578125 C 188.964844 214.578125 187.285156 213.742188 187.285156 213.742188 C 187.285156 213.742188 191.0625 210.800781 191.0625 210.800781 C 191.0625 210.800781 199.460938 211.640625 199.460938 211.640625 C 199.460938 211.640625 202.820312 210.800781 202.820312 210.800781 C 202.820312 210.800781 204.082031 212.898438 204.082031 212.898438 C 204.082031 212.898438 201.5625 213.742188 201.5625 213.742188 C 201.5625 213.742188 206.179688 214.160156 206.179688 214.160156 C 209.234375 212.632812 205.003906 212.738281 205.761719 211.21875 C 205.761719 211.21875 207.441406 209.539062 207.441406 209.539062 C 207.441406 209.539062 204.921875 208.703125 204.921875 208.703125 C 204.921875 206.664062 208.671875 209.945312 208.703125 209.960938 C 211.433594 211.328125 215.964844 209.960938 218.359375 209.960938 Z M 218.359375 209.960938 "/>
<path style=" stroke:none;fill-rule:nonzero;fill:rgb(35.686275%,94.509804%,100%);fill-opacity:1;" d="M 153.691406 214.160156 C 148.800781 214.160156 150.421875 217.683594 147.390625 219.199219 C 138.765625 223.511719 134.175781 228.414062 130.175781 236.414062 C 126.875 243.011719 134.316406 254.472656 139.414062 254.472656 C 142.167969 254.472656 146.96875 255.738281 148.652344 252.375 C 150.179688 249.316406 148.746094 244.625 150.332031 241.453125 C 150.332031 241.453125 155.371094 236.414062 155.371094 236.414062 C 158.429688 230.296875 157.890625 227.039062 157.890625 220.460938 C 157.890625 220.460938 158.730469 218.78125 158.730469 218.78125 C 157.578125 216.472656 153.691406 218.242188 153.691406 214.160156 Z M 153.691406 214.160156 "/>
<path style=" stroke:none;fill-rule:evenodd;fill:rgb(35.686275%,94.509804%,100%);fill-opacity:1;" d="M 262.03125 219.199219 C 262.03125 222.863281 264.953125 219.199219 262.03125 219.199219 M 253.632812 215 C 263.238281 215 273.800781 223.84375 277.988281 232.21875 C 279.269531 234.777344 279.195312 237.992188 280.507812 240.617188 C 282.386719 244.375 274.695312 257.832031 270.429688 257.832031 C 270.429688 254.0625 263.523438 257.878906 262.03125 254.890625 C 260.980469 252.789062 263.710938 248.492188 263.710938 246.492188 C 263.710938 246.492188 261.191406 243.976562 261.191406 243.976562 C 259.910156 241.414062 259.152344 238.21875 257.832031 235.578125 C 254.761719 229.433594 251.953125 232.1875 251.953125 224.65625 C 251.953125 224.65625 248.59375 221.296875 248.59375 221.296875 C 246.746094 217.605469 250.820312 215 253.632812 215 Z M 253.632812 215 "/>
<path style=" stroke:none;fill-rule:nonzero;fill:rgb(60.000002%,32.549021%,100%);fill-opacity:1;" d="M 262.03125 219.199219 C 262.03125 222.863281 264.953125 219.199219 262.03125 219.199219 Z M 262.03125 219.199219 "/>
<path style=" stroke:none;fill-rule:nonzero;fill:rgb(15.294118%,95.686275%,99.215686%);fill-opacity:1;" d="M 204.082031 225.917969 C 204.082031 233.636719 209.277344 225.917969 204.082031 225.917969 Z M 204.082031 225.917969 "/>
<path style=" stroke:none;fill-rule:nonzero;fill:rgb(25.490198%,58.823532%,100%);fill-opacity:1;" d="M 206.601562 268.75 L 206.601562 275.46875 C 202.082031 275.46875 206.601562 252.179688 206.601562 264.96875 C 206.601562 264.96875 206.601562 268.75 206.601562 268.75 Z M 206.601562 268.75 "/>
<path style=" stroke:none;fill-rule:nonzero;fill:rgb(0%,96.470588%,5.490196%);fill-opacity:1;" d="M 190.644531 278.828125 L 185.605469 281.347656 C 183.75 281.347656 179.902344 278.53125 182.664062 277.148438 C 187.40625 274.777344 194.839844 275.679688 198.625 273.789062 C 200.261719 272.96875 199.066406 268.75 202.820312 268.75 C 204.410156 268.75 204.589844 274.875 204.082031 275.890625 C 204.082031 275.890625 199.882812 277.988281 199.882812 277.988281 C 199.882812 277.988281 196.523438 277.988281 196.523438 277.988281 C 196.523438 276.742188 194.003906 276.742188 194.003906 277.988281 C 194.003906 277.988281 192.324219 277.988281 192.324219 277.988281 C 192.324219 277.988281 190.644531 278.828125 190.644531 278.828125 Z M 190.644531 278.828125 "/>
<path style=" stroke:none;fill-rule:nonzero;fill:rgb(0%,96.470588%,5.490196%);fill-opacity:1;" d="M 213.320312 276.308594 C 214.441406 276.308594 214.71875 276.308594 215.839844 276.308594 C 215.839844 276.308594 216.679688 272.53125 216.679688 272.53125 C 215.804688 270.78125 213.363281 273.601562 212.0625 272.949219 C 209.976562 271.90625 209.332031 268.75 206.601562 268.75 C 206.601562 268.75 206.601562 275.46875 206.601562 275.46875 C 206.601562 276.925781 212.070312 276.308594 213.320312 276.308594 Z M 213.320312 276.308594 "/>
<path style=" stroke:none;fill-rule:nonzero;fill:rgb(0%,96.470588%,5.490196%);fill-opacity:1;" d="M 221.71875 279.667969 L 224.238281 280.507812 C 225.96875 280.507812 229.277344 283.5 229.277344 281.765625 C 229.277344 281.765625 227.597656 280.929688 227.597656 280.929688 C 227.597656 280.929688 230.117188 278.40625 230.117188 278.40625 C 230.117188 276.988281 220.046875 273.996094 218.78125 274.628906 C 217.160156 275.4375 219.199219 278.105469 219.199219 278.828125 C 219.199219 278.828125 220.878906 278.828125 220.878906 278.828125 C 220.878906 278.828125 221.71875 279.667969 221.71875 279.667969 Z M 221.71875 279.667969 "/>
<path style=" stroke:none;fill-rule:nonzero;fill:rgb(100%,20.392157%,15.294118%);fill-opacity:1;" d="M 224.238281 280.507812 C 224.238281 283.253906 227.597656 281.960938 227.597656 284.707031 C 227.597656 287.691406 220.863281 290.367188 217.9375 288.90625 C 212.5 286.1875 207.441406 283.867188 207.441406 277.988281 C 208.078125 277.988281 213.320312 276.882812 213.320312 276.308594 C 214.441406 276.308594 214.71875 276.308594 215.839844 276.308594 C 215.839844 277.746094 218 278.828125 219.199219 278.828125 C 219.199219 278.828125 220.878906 278.828125 220.878906 278.828125 C 220.878906 278.828125 221.71875 279.667969 221.71875 279.667969 C 221.71875 279.667969 224.238281 280.507812 224.238281 280.507812 Z M 224.238281 280.507812 "/>
<path style=" stroke:none;fill-rule:nonzero;fill:rgb(60.000002%,32.549021%,100%);fill-opacity:1;" d="M 194.003906 277.988281 L 196.523438 277.988281 C 196.523438 276.742188 194.003906 276.742188 194.003906 277.988281 Z M 194.003906 277.988281 "/>
<path style=" stroke:none;fill-rule:nonzero;fill:rgb(60.000002%,32.549021%,100%);fill-opacity:1;" d="M 192.324219 277.988281 L 190.644531 278.828125 C 190.644531 278.828125 192.324219 277.988281 192.324219 277.988281 Z M 192.324219 277.988281 "/>
<path style=" stroke:none;fill-rule:nonzero;fill:rgb(100%,20.392157%,15.294118%);fill-opacity:1;" d="M 181.40625 284.707031 L 181.40625 285.546875 C 181.40625 294.125 203.242188 286.265625 203.242188 278.828125 C 203.242188 278.828125 199.882812 277.988281 199.882812 277.988281 C 199.882812 277.988281 196.523438 277.988281 196.523438 277.988281 C 196.523438 277.988281 194.003906 277.988281 194.003906 277.988281 C 194.003906 277.988281 192.324219 277.988281 192.324219 277.988281 C 192.324219 277.988281 190.644531 278.828125 190.644531 278.828125 C 190.644531 278.828125 185.605469 281.347656 185.605469 281.347656 C 185.605469 282.160156 183.183594 283.867188 182.246094 283.867188 C 182.246094 283.867188 181.40625 284.707031 181.40625 284.707031 Z M 181.40625 284.707031 "/>
<path style=" stroke:none;fill-rule:nonzero;fill:rgb(60.000002%,32.549021%,100%);fill-opacity:1;" d="M 220.878906 278.828125 L 221.71875 279.667969 C 221.71875 279.667969 220.878906 278.828125 220.878906 278.828125 Z M 220.878906 278.828125 "/>
<path style=" stroke:none;fill-rule:nonzero;fill:rgb(0%,96.470588%,5.490196%);fill-opacity:1;" d="M 173.007812 281.347656 C 173.007812 284.492188 174.765625 281.347656 173.007812 281.347656 Z M 173.007812 281.347656 "/>
<path style=" stroke:none;fill-rule:nonzero;fill:rgb(0%,96.470588%,5.490196%);fill-opacity:1;" d="M 179.726562 283.867188 L 181.40625 283.867188 C 181.40625 282.691406 179.726562 282.691406 179.726562 283.867188 Z M 179.726562 283.867188 "/>
<path style=" stroke:none;fill-rule:nonzero;fill:rgb(0%,96.470588%,5.490196%);fill-opacity:1;" d="M 230.957031 283.867188 L 229.277344 284.707031 C 229.277344 284.707031 230.957031 283.867188 230.957031 283.867188 Z M 230.957031 283.867188 "/>
<path style=" stroke:none;fill-rule:nonzero;fill:rgb(0%,96.470588%,5.490196%);fill-opacity:1;" d="M 181.40625 284.707031 C 179.546875 284.707031 179.546875 285.546875 181.40625 285.546875 C 181.40625 285.546875 181.40625 284.707031 181.40625 284.707031 Z M 181.40625 284.707031 "/>
</g>
</svg>
