<?xml version="1.0" encoding="UTF-8"?>
<svg xmlns="http://www.w3.org/2000/svg" xmlns:xlink="http://www.w3.org/1999/xlink" width="430px" height="430px" viewBox="0 0 430 430" version="1.1">
<g id="surface1">
<rect x="0" y="0" width="430" height="430" style="fill:rgb(0%,0%,0%);fill-opacity:1;stroke:none;"/>
<path style=" stroke:none;fill-rule:evenodd;fill:rgb(1.176471%,75.686276%,17.647059%);fill-opacity:1;" d="M 204.921875 167.96875 L 204.921875 189.382812 C 204.921875 190.402344 204.359375 196.59375 206.179688 195.683594 L 206.601562 189.382812 C 206.601562 185.824219 207.636719 167.96875 204.921875 167.96875 M 314.101562 237.675781 L 317.882812 235.996094 L 325.4375 235.996094 C 326.933594 235.25 330.316406 222.46875 331.738281 219.617188 L 341.816406 211.21875 C 343.710938 207.429688 340.804688 201.484375 342.65625 197.78125 C 344.824219 193.449219 347.691406 168.382812 345.175781 163.351562 C 343.574219 160.148438 345.082031 155.601562 343.496094 152.429688 C 341.757812 148.953125 340.160156 145.761719 338.457031 142.351562 L 338.457031 138.992188 C 334.339844 130.757812 329.980469 122.878906 325.859375 114.640625 L 323.757812 114.21875 L 318.71875 109.179688 C 316.027344 107.832031 312.980469 107.148438 310.320312 105.820312 C 303.195312 102.257812 296.449219 98.464844 289.328125 94.902344 C 284.75 92.613281 278.113281 95.171875 274.210938 93.222656 C 269.804688 91.019531 263.273438 89.863281 259.09375 89.863281 L 251.53125 85.664062 C 247.867188 85.664062 223.464844 84.160156 222.140625 84.824219 C 218.378906 86.703125 214.109375 87.160156 210.382812 89.023438 L 205.34375 94.902344 C 202.050781 96.546875 184.761719 82.515625 178.46875 85.664062 C 173.320312 88.238281 162.726562 85.976562 158.3125 88.183594 C 153.566406 90.554688 143.84375 90.796875 140.671875 92.382812 C 134.332031 95.554688 127.648438 97.636719 121.359375 100.78125 C 118.863281 102.027344 112.351562 101.925781 109.601562 103.300781 L 97.84375 110.859375 C 96.097656 111.730469 85.664062 116.820312 85.664062 119.679688 C 85.664062 120.632812 86.34375 120.839844 85.664062 122.195312 L 81.464844 123.875 C 80.371094 126.066406 77.273438 128.058594 76.425781 129.757812 C 73.871094 134.859375 72.273438 140.582031 69.707031 145.710938 L 68.867188 158.3125 C 63.175781 169.691406 70.5625 200.332031 75.585938 210.382812 L 75.585938 215.421875 C 78.480469 221.207031 88.371094 240.195312 95.742188 240.195312 C 97.257812 240.195312 120.398438 233.535156 122.195312 232.636719 C 123.644531 231.914062 138.566406 234.316406 141.09375 234.316406 C 141.09375 230.851562 138.492188 233.140625 141.515625 230.117188 C 141.515625 230.117188 142.773438 228.4375 142.773438 228.4375 C 142.773438 226.414062 141.699219 227.550781 141.09375 226.335938 C 140.503906 225.15625 141.933594 223.507812 141.933594 222.558594 C 141.933594 222.558594 139.414062 221.71875 139.414062 221.71875 C 137.890625 221.71875 137.84375 220.039062 137.3125 220.039062 C 131.457031 220.039062 133.433594 206.917969 128.078125 201.5625 C 128.078125 201.5625 123.039062 199.042969 123.039062 199.042969 C 116.644531 195.847656 112.914062 188.457031 110.019531 182.664062 C 108.648438 179.921875 110.859375 174.898438 110.859375 172.585938 C 110.859375 172.238281 108.6875 168.808594 111.28125 168.808594 C 112.121094 168.808594 112.492188 170.160156 113.378906 168.390625 C 117.789062 159.570312 119.398438 153.410156 128.914062 148.652344 C 135.320312 145.449219 131.988281 141.933594 141.515625 141.933594 C 143.21875 141.933594 143.9375 139.882812 144.875 139.414062 C 146.449219 138.625 165.816406 133.929688 166.710938 134.375 C 166.710938 134.375 166.710938 136.054688 166.710938 136.054688 C 166.710938 136.054688 171.75 136.054688 171.75 136.054688 C 172.539062 136.449219 171.652344 138.800781 172.167969 139.835938 C 173.65625 142.8125 175.140625 144.941406 176.367188 147.390625 C 176.367188 147.390625 178.046875 147.390625 178.046875 147.390625 C 178.550781 148.398438 177.320312 149.296875 178.046875 150.75 C 178.046875 150.75 185.605469 158.3125 185.605469 158.3125 C 185.605469 158.3125 185.605469 160.828125 185.605469 160.828125 C 187.644531 164.90625 192.042969 167.828125 194.003906 171.75 C 196.496094 176.730469 191.484375 179.757812 191.484375 183.925781 C 191.484375 189.179688 194.84375 196.675781 194.84375 201.140625 C 194.84375 205.117188 211.21875 208.703125 215 201.140625 C 216.660156 197.820312 218.359375 192.421875 218.359375 188.546875 C 218.359375 187.257812 218.503906 183.925781 220.039062 183.925781 C 220.039062 179.988281 219.164062 175.871094 217.519531 172.585938 C 215.144531 167.835938 225.078125 161.242188 225.078125 158.3125 C 225.078125 158.3125 228.015625 156.210938 228.015625 156.210938 C 232.398438 154.019531 233.277344 131.855469 240.617188 131.855469 C 245.75 131.855469 252.78125 134.578125 257.414062 136.894531 C 257.414062 136.894531 265.8125 137.734375 265.8125 137.734375 C 269.109375 139.382812 272.386719 142.28125 275.046875 143.613281 C 275.046875 143.613281 280.929688 144.453125 280.929688 144.453125 C 287.828125 147.902344 293.597656 152.574219 297.304688 159.992188 C 297.304688 159.992188 299.824219 161.671875 299.824219 161.671875 C 301.300781 164.617188 299.878906 171.859375 300.664062 173.429688 C 301.1875 174.472656 302.242188 182.871094 301.503906 184.34375 C 301.503906 184.34375 299.824219 185.1875 299.824219 185.1875 C 299.824219 185.1875 301.503906 186.867188 301.503906 186.867188 C 301.503906 186.867188 296.464844 191.0625 296.464844 191.0625 C 296.464844 192.660156 292.265625 193.230469 292.265625 195.265625 C 292.265625 196.105469 293.617188 196.476562 291.84375 197.363281 C 291.84375 197.363281 286.804688 198.203125 286.804688 198.203125 C 285.578125 198.816406 284.46875 202.3125 284.289062 202.402344 C 284.289062 202.402344 281.765625 202.402344 281.765625 202.402344 C 279.777344 203.398438 280.507812 204.351562 280.507812 205.34375 C 280.507812 205.34375 276.308594 207.859375 276.308594 207.859375 C 274.773438 210.925781 275.941406 213.632812 274.628906 216.257812 C 274.628906 216.257812 272.109375 217.519531 272.109375 217.519531 C 268.867188 217.519531 274.335938 226.757812 269.589844 226.757812 C 269.589844 226.757812 269.589844 227.597656 269.589844 227.597656 C 273.207031 227.597656 269.589844 231.449219 269.589844 230.117188 C 268.265625 230.117188 268.75 232.515625 268.75 233.476562 C 268.75 233.476562 270.851562 235.15625 270.851562 235.15625 C 270.851562 235.15625 272.53125 233.476562 272.53125 233.476562 C 274.0625 232.710938 275.734375 234.316406 276.726562 234.316406 C 277.214844 234.316406 288.285156 230.117188 288.484375 230.117188 C 288.484375 230.117188 290.164062 231.796875 290.164062 231.796875 C 291.527344 232.476562 292.6875 230.957031 293.523438 230.957031 C 293.523438 230.957031 296.046875 234.316406 296.046875 234.316406 C 297.039062 234.316406 298.710938 232.710938 300.242188 233.476562 C 300.269531 233.488281 302.34375 237.042969 302.34375 234.316406 C 302.34375 234.316406 303.183594 233.476562 303.183594 233.476562 C 303.183594 233.476562 305.703125 233.476562 305.703125 233.476562 C 305.703125 233.476562 307.382812 234.316406 307.382812 234.316406 C 308.425781 234.316406 312.320312 237.675781 314.101562 237.675781 Z M 314.101562 237.675781 "/>
<path style=" stroke:none;fill-rule:nonzero;fill:rgb(100%,43.137255%,0%);fill-opacity:1;" d="M 272.949219 204.921875 L 270.429688 212.0625 C 269.117188 214.6875 272.109375 216.429688 272.109375 217.519531 C 272.109375 217.519531 274.628906 216.257812 274.628906 216.257812 C 275.941406 213.632812 274.773438 210.925781 276.308594 207.859375 C 276.308594 207.859375 280.507812 205.34375 280.507812 205.34375 C 280.507812 204.351562 279.777344 203.398438 281.765625 202.402344 C 281.765625 202.402344 284.289062 202.402344 284.289062 202.402344 C 284.46875 202.3125 285.578125 198.816406 286.804688 198.203125 C 286.804688 198.203125 291.84375 197.363281 291.84375 197.363281 C 293.617188 196.476562 292.265625 196.105469 292.265625 195.265625 C 292.265625 193.230469 296.464844 192.660156 296.464844 191.0625 C 296.464844 191.0625 301.503906 186.867188 301.503906 186.867188 C 301.503906 186.867188 299.824219 185.1875 299.824219 185.1875 C 299.824219 185.1875 301.503906 184.34375 301.503906 184.34375 C 302.242188 182.871094 301.1875 174.472656 300.664062 173.429688 C 299.878906 171.859375 301.300781 164.617188 299.824219 161.671875 C 299.824219 161.671875 297.304688 159.992188 297.304688 159.992188 C 293.597656 152.574219 287.828125 147.902344 280.929688 144.453125 C 280.929688 144.453125 275.046875 143.613281 275.046875 143.613281 C 272.386719 142.28125 269.109375 139.382812 265.8125 137.734375 C 265.8125 137.734375 257.414062 136.894531 257.414062 136.894531 C 252.78125 134.578125 245.75 131.855469 240.617188 131.855469 C 233.277344 131.855469 232.398438 154.019531 228.015625 156.210938 C 228.015625 156.210938 225.078125 158.3125 225.078125 158.3125 C 225.078125 161.242188 215.144531 167.835938 217.519531 172.585938 C 219.164062 175.871094 220.039062 179.988281 220.039062 183.925781 C 220.039062 183.925781 221.71875 186.023438 221.71875 186.023438 C 221.71875 186.023438 221.71875 187.703125 221.71875 187.703125 C 223.511719 191.292969 225.667969 186.445312 226.757812 186.445312 C 226.757812 186.445312 228.4375 183.085938 228.4375 183.085938 C 228.4375 181.617188 228.648438 181.40625 230.117188 181.40625 C 230.117188 181.40625 230.117188 180.566406 230.117188 180.566406 C 228.359375 180.566406 229.570312 178.886719 230.957031 178.886719 C 230.957031 178.886719 230.957031 178.046875 230.957031 178.046875 C 229.503906 178.046875 231.113281 175.527344 231.796875 175.527344 C 231.796875 175.527344 232.636719 170.070312 232.636719 170.070312 C 232.636719 170.070312 235.996094 167.96875 235.996094 167.96875 C 235.996094 167.96875 236.835938 167.128906 236.835938 167.128906 C 236.835938 166.089844 237.191406 164.609375 238.515625 164.609375 C 238.515625 164.609375 239.355469 162.929688 239.355469 162.929688 C 239.355469 162.929688 240.195312 162.089844 240.195312 162.089844 C 240.195312 160.890625 241.277344 158.730469 242.714844 158.730469 C 242.714844 158.730469 243.554688 157.890625 243.554688 157.890625 C 243.554688 157.890625 244.394531 157.050781 244.394531 157.050781 C 244.394531 157.050781 246.914062 154.53125 246.914062 154.53125 C 246.914062 154.53125 247.753906 153.691406 247.753906 153.691406 C 247.753906 153.691406 248.59375 152.851562 248.59375 152.851562 C 248.59375 152.851562 255.734375 149.492188 255.734375 149.492188 C 258.046875 148.335938 270.289062 149.210938 272.53125 150.332031 C 272.53125 150.332031 275.046875 152.851562 275.046875 152.851562 C 278.429688 154.542969 283.867188 153.847656 283.867188 159.570312 C 283.867188 159.570312 285.546875 161.25 285.546875 161.25 C 287.765625 161.25 288.167969 163.554688 288.90625 165.03125 C 288.90625 165.03125 292.265625 168.390625 292.265625 168.390625 C 293.496094 170.847656 291.425781 183.089844 291.425781 184.34375 C 291.425781 184.34375 287.226562 191.484375 287.226562 191.484375 C 287.226562 191.484375 285.546875 192.324219 285.546875 192.324219 C 282.96875 192.324219 272.109375 199.4375 272.109375 202.402344 C 273.347656 202.402344 272.949219 204.042969 272.949219 204.921875 Z M 272.949219 204.921875 "/>
<path style=" stroke:none;fill-rule:nonzero;fill:rgb(100%,43.137255%,0%);fill-opacity:1;" d="M 139.414062 215 L 139.414062 221.71875 C 137.890625 221.71875 137.84375 220.039062 137.3125 220.039062 C 131.457031 220.039062 133.433594 206.917969 128.078125 201.5625 C 128.078125 201.5625 123.039062 199.042969 123.039062 199.042969 C 116.644531 195.847656 112.914062 188.457031 110.019531 182.664062 C 108.648438 179.921875 110.859375 174.898438 110.859375 172.585938 C 110.859375 172.238281 108.6875 168.808594 111.28125 168.808594 C 112.121094 168.808594 112.492188 170.160156 113.378906 168.390625 C 117.789062 159.570312 119.398438 153.410156 128.914062 148.652344 C 135.320312 145.449219 131.988281 141.933594 141.515625 141.933594 C 143.21875 141.933594 143.9375 139.882812 144.875 139.414062 C 146.449219 138.625 165.816406 133.929688 166.710938 134.375 C 166.710938 134.375 166.710938 136.054688 166.710938 136.054688 C 166.710938 136.054688 171.75 136.054688 171.75 136.054688 C 172.539062 136.449219 171.652344 138.800781 172.167969 139.835938 C 173.65625 142.8125 175.140625 144.941406 176.367188 147.390625 C 176.367188 147.390625 178.046875 147.390625 178.046875 147.390625 C 178.550781 148.398438 177.320312 149.296875 178.046875 150.75 C 178.046875 150.75 185.605469 158.3125 185.605469 158.3125 C 185.605469 158.3125 185.605469 160.828125 185.605469 160.828125 C 187.644531 164.90625 192.042969 167.828125 194.003906 171.75 C 196.496094 176.730469 191.484375 179.757812 191.484375 183.925781 C 188.074219 183.925781 191.398438 190.644531 188.546875 190.644531 C 187.519531 190.644531 186.089844 189.804688 184.765625 189.804688 C 184.765625 189.804688 183.925781 188.964844 183.925781 188.964844 C 183.925781 186.742188 176.097656 169.648438 173.847656 169.648438 C 173.847656 169.648438 172.167969 167.96875 172.167969 167.96875 C 172.167969 165.882812 170.488281 164.585938 170.488281 162.929688 C 170.488281 162.929688 169.648438 162.089844 169.648438 162.089844 C 167.726562 162.089844 157.921875 153.917969 154.109375 152.011719 C 147.710938 148.808594 125.117188 156.671875 123.457031 159.992188 C 123.457031 159.992188 122.617188 167.546875 122.617188 167.546875 C 121.539062 169.707031 119.472656 174.699219 120.9375 177.625 C 125.480469 186.714844 135.929688 191.65625 140.253906 200.304688 C 142.515625 204.828125 139.414062 210.335938 139.414062 215 Z M 139.414062 215 "/>
<path style=" stroke:none;fill-rule:evenodd;fill:rgb(50.588238%,30.980393%,100%);fill-opacity:1;" d="M 246.914062 227.597656 C 246.914062 230.132812 241.742188 231.949219 243.554688 235.578125 L 247.335938 238.515625 C 260.320312 245.007812 259.71875 227.597656 246.914062 227.597656 M 267.070312 234.316406 C 266.636719 234.316406 256.621094 243.875 256.152344 244.8125 C 255.292969 246.53125 257.832031 247.832031 257.832031 249.433594 C 257.277344 249.433594 249.714844 253.496094 249.433594 254.054688 C 249.433594 254.054688 246.492188 259.511719 246.492188 259.511719 C 245.785156 259.511719 241.8125 260.109375 240.617188 259.511719 C 240.617188 259.511719 232.21875 252.792969 232.21875 252.792969 C 232.21875 252.792969 230.539062 255.3125 230.539062 255.3125 C 228.019531 255.3125 230.238281 250.125 228.859375 249.433594 C 226.121094 248.066406 224.40625 246.914062 222.140625 246.914062 C 219.859375 246.914062 218.851562 235.433594 219.199219 234.734375 C 219.199219 234.734375 218.359375 230.539062 218.359375 230.539062 C 220.789062 225.675781 220.039062 221.203125 220.039062 216.257812 C 220.039062 216.257812 224.238281 209.960938 224.238281 209.960938 C 224.238281 209.960938 225.078125 209.121094 225.078125 209.121094 C 225.078125 209.121094 225.078125 208.28125 225.078125 208.28125 C 226.453125 208.28125 226.757812 205.277344 226.757812 204.082031 C 226.757812 204.082031 226.757812 199.882812 226.757812 199.882812 C 228.851562 199.882812 227.460938 193.164062 226.757812 193.164062 C 226.757812 191.015625 226.757812 189.433594 226.757812 187.285156 C 230.070312 187.285156 228.4375 184.535156 228.4375 183.085938 C 229.90625 183.085938 230.117188 182.875 230.117188 181.40625 C 230.117188 181.40625 230.117188 180.566406 230.117188 180.566406 C 230.117188 180.566406 230.957031 178.886719 230.957031 178.886719 C 230.957031 178.886719 230.957031 178.046875 230.957031 178.046875 C 232.195312 178.046875 231.796875 176.40625 231.796875 175.527344 C 231.796875 175.527344 232.636719 170.070312 232.636719 170.070312 C 232.636719 170.070312 235.996094 167.96875 235.996094 167.96875 C 236.882812 167.96875 238.539062 167.128906 236.835938 167.128906 C 236.835938 166.089844 237.191406 164.609375 238.515625 164.609375 C 238.515625 164.609375 239.355469 162.929688 239.355469 162.929688 C 239.355469 162.929688 240.195312 162.089844 240.195312 162.089844 C 240.195312 160.890625 241.277344 158.730469 242.714844 158.730469 C 242.714844 158.730469 243.554688 157.890625 243.554688 157.890625 C 243.554688 157.890625 244.394531 157.050781 244.394531 157.050781 C 244.394531 157.050781 246.914062 154.53125 246.914062 154.53125 C 246.914062 154.53125 247.753906 153.691406 247.753906 153.691406 C 247.753906 153.691406 248.59375 152.851562 248.59375 152.851562 C 248.59375 152.851562 255.734375 149.492188 255.734375 149.492188 C 258.046875 148.335938 270.289062 149.210938 272.53125 150.332031 C 272.53125 150.332031 275.046875 152.851562 275.046875 152.851562 C 278.429688 154.542969 283.867188 153.847656 283.867188 159.570312 C 283.867188 159.570312 285.546875 161.25 285.546875 161.25 C 287.765625 161.25 288.167969 163.554688 288.90625 165.03125 C 288.90625 165.03125 292.265625 168.390625 292.265625 168.390625 C 293.496094 170.847656 291.425781 183.089844 291.425781 184.34375 C 291.425781 184.34375 287.226562 191.484375 287.226562 191.484375 C 287.226562 191.484375 285.546875 192.324219 285.546875 192.324219 C 282.96875 192.324219 272.109375 199.4375 272.109375 202.402344 C 272.109375 203.28125 271.710938 204.921875 272.949219 204.921875 C 272.949219 204.921875 270.429688 212.0625 270.429688 212.0625 C 269.117188 214.6875 272.109375 216.429688 272.109375 217.519531 C 268.867188 217.519531 274.335938 226.757812 269.589844 226.757812 C 269.589844 225.230469 268.53125 221.734375 267.070312 224.65625 C 267.070312 224.65625 267.070312 234.316406 267.070312 234.316406 Z M 267.070312 234.316406 "/>
<path style=" stroke:none;fill-rule:evenodd;fill:rgb(50.588238%,30.980393%,100%);fill-opacity:1;" d="M 161.25 226.757812 C 161.25 229.476562 155.84375 232.113281 154.53125 234.734375 C 153.722656 236.351562 158.578125 241.320312 160.828125 240.195312 C 167.042969 237.089844 171.863281 226.757812 161.25 226.757812 M 150.332031 241.875 C 152.515625 241.875 152.851562 244.089844 152.851562 246.074219 C 152.851562 248.460938 154.523438 249.433594 155.789062 249.433594 C 155.789062 249.433594 157.050781 252.375 157.050781 252.375 C 157.050781 252.375 163.351562 256.152344 163.351562 256.152344 C 167.023438 257.988281 169.972656 253.632812 172.585938 253.632812 C 173.734375 253.632812 172.023438 258.671875 174.265625 258.671875 C 175.230469 258.671875 176.878906 253.585938 178.46875 252.792969 C 178.46875 252.792969 180.984375 253.632812 180.984375 253.632812 C 180.984375 253.632812 184.34375 249.433594 184.34375 249.433594 C 184.988281 249.113281 187.285156 249.699219 187.285156 248.171875 C 187.285156 246.566406 183.542969 247.261719 184.765625 244.8125 C 184.765625 244.8125 189.804688 242.296875 189.804688 242.296875 C 191.730469 238.445312 190.285156 234.613281 192.324219 230.539062 C 192.949219 229.285156 195.683594 229.417969 195.683594 228.015625 C 195.683594 228.015625 192.324219 224.65625 192.324219 224.65625 C 192.324219 224.65625 194.003906 223.820312 194.003906 223.820312 C 194.003906 223.820312 193.164062 217.9375 193.164062 217.9375 C 191.566406 214.742188 184.765625 207.507812 184.765625 204.082031 C 184.050781 204.082031 183.085938 199.015625 183.085938 198.203125 C 183.085938 196.164062 182.226562 193.164062 184.765625 193.164062 C 184.765625 193.164062 184.765625 192.324219 184.765625 192.324219 C 182.472656 192.324219 183.925781 191.96875 183.925781 190.644531 C 183.925781 190.644531 183.925781 189.804688 183.925781 189.804688 C 183.925781 189.804688 183.925781 188.964844 183.925781 188.964844 C 183.925781 186.742188 176.097656 169.648438 173.847656 169.648438 C 173.847656 171.5 172.167969 169.023438 172.167969 167.96875 C 172.167969 165.882812 170.488281 164.585938 170.488281 162.929688 C 170.488281 162.929688 169.648438 162.089844 169.648438 162.089844 C 167.726562 162.089844 157.921875 153.917969 154.109375 152.011719 C 147.710938 148.808594 125.117188 156.671875 123.457031 159.992188 C 123.457031 159.992188 122.617188 167.546875 122.617188 167.546875 C 121.539062 169.707031 119.472656 174.699219 120.9375 177.625 C 125.480469 186.714844 135.929688 191.65625 140.253906 200.304688 C 142.515625 204.828125 139.414062 210.335938 139.414062 215 C 140.371094 215 141.933594 221.503906 141.933594 222.558594 C 141.933594 223.507812 140.503906 225.15625 141.09375 226.335938 C 141.699219 227.550781 142.773438 226.414062 142.773438 228.4375 C 142.773438 231.113281 144.453125 235.066406 144.453125 237.675781 C 144.453125 239.921875 148.300781 241.875 150.332031 241.875 Z M 150.332031 241.875 "/>
<path style=" stroke:none;fill-rule:nonzero;fill:rgb(88.235295%,94.117647%,5.098039%);fill-opacity:1;" d="M 250.273438 283.027344 L 252.792969 283.027344 C 252.792969 283.027344 256.992188 282.1875 256.992188 282.1875 C 256.992188 282.1875 260.351562 281.347656 260.351562 281.347656 C 260.351562 279.710938 262.414062 280.945312 263.289062 280.507812 C 265.609375 279.347656 274.628906 274.707031 274.628906 271.269531 C 274.628906 264.636719 269.054688 264.742188 268.75 264.132812 C 267.984375 262.597656 269.589844 260.925781 269.589844 259.929688 C 269.589844 255.46875 262.179688 249.433594 257.832031 249.433594 C 257.277344 249.433594 249.714844 253.496094 249.433594 254.054688 C 249.433594 254.054688 246.492188 259.511719 246.492188 259.511719 C 245.785156 259.511719 241.8125 260.109375 240.617188 259.511719 C 240.617188 259.511719 232.21875 252.792969 232.21875 252.792969 C 232.21875 252.792969 230.539062 255.3125 230.539062 255.3125 C 228.019531 255.3125 230.238281 250.125 228.859375 249.433594 C 226.121094 248.066406 224.40625 246.914062 222.140625 246.914062 C 219.859375 246.914062 218.851562 235.433594 219.199219 234.734375 C 219.199219 234.734375 218.359375 230.539062 218.359375 230.539062 C 220.789062 225.675781 220.039062 221.203125 220.039062 216.257812 C 220.039062 216.257812 224.238281 209.960938 224.238281 209.960938 C 224.238281 209.960938 225.078125 209.121094 225.078125 209.121094 C 225.078125 209.121094 225.078125 208.28125 225.078125 208.28125 C 225.078125 208.28125 225.917969 204.082031 225.917969 204.082031 C 223.386719 204.082031 223.386719 196.523438 225.917969 196.523438 C 225.917969 196.523438 226.757812 193.164062 226.757812 193.164062 C 226.757812 191.015625 226.757812 189.433594 226.757812 187.285156 C 226.757812 187.285156 226.757812 186.445312 226.757812 186.445312 C 225.667969 186.445312 223.511719 191.292969 221.71875 187.703125 C 221.71875 187.703125 221.71875 186.023438 221.71875 186.023438 C 221.71875 186.023438 220.039062 183.925781 220.039062 183.925781 C 218.503906 183.925781 218.359375 187.257812 218.359375 188.546875 C 218.359375 192.421875 216.660156 197.820312 215 201.140625 C 211.21875 208.703125 194.84375 205.117188 194.84375 201.140625 C 194.84375 196.675781 191.484375 189.179688 191.484375 183.925781 C 188.074219 183.925781 191.398438 190.644531 188.546875 190.644531 C 187.519531 190.644531 186.089844 189.804688 184.765625 189.804688 C 184.765625 189.804688 183.925781 189.804688 183.925781 189.804688 C 183.925781 189.804688 183.925781 190.644531 183.925781 190.644531 C 183.925781 190.644531 184.765625 192.324219 184.765625 192.324219 C 184.765625 192.324219 184.765625 193.164062 184.765625 193.164062 C 184.765625 193.164062 183.925781 195.683594 183.925781 195.683594 C 185.949219 195.683594 187.164062 204.082031 184.765625 204.082031 C 184.765625 207.507812 191.566406 214.742188 193.164062 217.9375 C 193.164062 217.9375 194.003906 223.820312 194.003906 223.820312 C 194.003906 223.820312 192.324219 224.65625 192.324219 224.65625 C 192.324219 224.65625 195.683594 228.015625 195.683594 228.015625 C 195.683594 229.417969 192.949219 229.285156 192.324219 230.539062 C 190.285156 234.613281 191.730469 238.445312 189.804688 242.296875 C 189.804688 242.296875 184.765625 244.8125 184.765625 244.8125 C 183.542969 247.261719 187.285156 246.566406 187.285156 248.171875 C 187.285156 249.699219 184.988281 249.113281 184.34375 249.433594 C 184.34375 249.433594 180.984375 253.632812 180.984375 253.632812 C 180.984375 253.632812 178.46875 252.792969 178.46875 252.792969 C 176.878906 253.585938 175.230469 258.671875 174.265625 258.671875 C 172.023438 258.671875 173.734375 253.632812 172.585938 253.632812 C 169.972656 253.632812 167.023438 257.988281 163.351562 256.152344 C 163.351562 256.152344 157.050781 252.375 157.050781 252.375 C 157.050781 252.375 155.789062 249.433594 155.789062 249.433594 C 154.523438 249.433594 152.851562 248.460938 152.851562 246.074219 C 150.5 246.074219 150.242188 250.273438 145.292969 250.273438 C 145.292969 258.546875 141.210938 256.339844 140.253906 258.25 C 140.253906 258.25 139.414062 263.289062 139.414062 263.289062 C 137.652344 266.816406 132.695312 264.839844 132.695312 269.589844 C 136.542969 269.589844 142.1875 277.066406 145.710938 278.828125 C 155.371094 283.65625 174.257812 282.613281 183.507812 277.988281 C 187.839844 275.820312 188.183594 271.570312 189.804688 268.328125 C 189.804688 268.328125 193.164062 265.8125 193.164062 265.8125 C 195.65625 260.824219 200.722656 256.570312 203.242188 251.53125 C 203.242188 251.53125 204.082031 238.09375 204.082031 238.09375 C 204.082031 237.28125 203.582031 233.4375 205.34375 234.316406 C 208.136719 235.714844 205.554688 239.359375 206.601562 241.453125 C 209.101562 246.453125 210 252.453125 212.480469 257.414062 C 214.269531 260.988281 219.394531 263.679688 220.878906 266.648438 C 228.171875 281.238281 235.507812 283.027344 250.273438 283.027344 Z M 250.273438 283.027344 "/>
<path style=" stroke:none;fill-rule:nonzero;fill:rgb(0.784314%,17.254902%,100%);fill-opacity:1;" d="M 183.085938 198.203125 C 183.085938 199.015625 184.050781 204.082031 184.765625 204.082031 C 187.164062 204.082031 185.949219 195.683594 183.925781 195.683594 C 183.925781 196.5625 184.324219 198.203125 183.085938 198.203125 Z M 183.085938 198.203125 "/>
<path style=" stroke:none;fill-rule:nonzero;fill:rgb(0.784314%,17.254902%,100%);fill-opacity:1;" d="M 225.917969 204.082031 L 226.757812 204.082031 C 226.757812 204.082031 226.757812 199.882812 226.757812 199.882812 C 226.757812 198.921875 227.242188 196.523438 225.917969 196.523438 C 223.386719 196.523438 223.386719 204.082031 225.917969 204.082031 Z M 225.917969 204.082031 "/>
<path style=" stroke:none;fill-rule:nonzero;fill:rgb(48.627451%,98.823529%,0%);fill-opacity:1;" d="M 161.25 226.757812 C 161.25 229.476562 155.84375 232.113281 154.53125 234.734375 C 153.722656 236.351562 158.578125 241.320312 160.828125 240.195312 C 167.042969 237.089844 171.863281 226.757812 161.25 226.757812 Z M 161.25 226.757812 "/>
<path style=" stroke:none;fill-rule:nonzero;fill:rgb(48.627451%,98.823529%,0%);fill-opacity:1;" d="M 246.914062 227.597656 C 246.914062 230.132812 241.742188 231.949219 243.554688 235.578125 L 247.335938 238.515625 C 260.320312 245.007812 259.71875 227.597656 246.914062 227.597656 Z M 246.914062 227.597656 "/>
<path style=" stroke:none;fill-rule:nonzero;fill:rgb(50.588238%,30.980393%,100%);fill-opacity:1;" d="M 269.589844 227.597656 C 273.207031 227.597656 269.589844 231.449219 269.589844 230.117188 C 269.589844 230.117188 269.589844 227.597656 269.589844 227.597656 Z M 269.589844 227.597656 "/>
<path style=" stroke:none;fill-rule:nonzero;fill:rgb(100%,52.941179%,0%);fill-opacity:1;" d="M 257.832031 249.433594 C 262.179688 249.433594 269.589844 255.46875 269.589844 259.929688 C 269.589844 260.925781 267.984375 262.597656 268.75 264.132812 C 269.054688 264.742188 274.628906 264.636719 274.628906 271.269531 C 278.265625 271.269531 282.363281 271.390625 285.96875 269.589844 C 288.128906 268.507812 286.578125 263.710938 291.84375 263.710938 C 291.84375 263.710938 294.367188 260.351562 294.367188 260.351562 C 294.367188 260.351562 296.882812 261.191406 296.882812 261.191406 C 298.320312 261.191406 313.742188 249.734375 314.941406 247.335938 C 314.941406 247.335938 314.941406 243.976562 314.941406 243.976562 C 315.300781 243.253906 316.574219 244.910156 317.460938 243.132812 C 318.769531 240.515625 314.101562 240.910156 314.101562 237.675781 C 312.320312 237.675781 308.425781 234.316406 307.382812 234.316406 C 307.382812 234.316406 305.703125 233.476562 305.703125 233.476562 C 305.703125 233.476562 303.183594 233.476562 303.183594 233.476562 C 303.183594 233.476562 302.34375 234.316406 302.34375 234.316406 C 302.34375 237.042969 300.269531 233.488281 300.242188 233.476562 C 298.710938 232.710938 297.039062 234.316406 296.046875 234.316406 C 296.046875 234.316406 293.523438 230.957031 293.523438 230.957031 C 292.6875 230.957031 291.527344 232.476562 290.164062 231.796875 C 290.164062 231.796875 288.484375 230.117188 288.484375 230.117188 C 288.285156 230.117188 277.214844 234.316406 276.726562 234.316406 C 275.734375 234.316406 274.0625 232.710938 272.53125 233.476562 C 272.53125 233.476562 270.851562 235.15625 270.851562 235.15625 C 270.851562 235.15625 268.75 233.476562 268.75 233.476562 C 268.75 233.476562 267.070312 234.316406 267.070312 234.316406 C 266.636719 234.316406 256.621094 243.875 256.152344 244.8125 C 255.292969 246.53125 257.832031 247.832031 257.832031 249.433594 Z M 257.832031 249.433594 "/>
<path style=" stroke:none;fill-rule:nonzero;fill:rgb(100%,52.941179%,0%);fill-opacity:1;" d="M 145.292969 250.273438 C 145.292969 258.546875 141.210938 256.339844 140.253906 258.25 L 139.414062 263.289062 C 137.652344 266.816406 132.695312 264.839844 132.695312 269.589844 C 126.855469 269.589844 127.242188 265.8125 123.039062 263.710938 C 123.039062 263.710938 115.476562 262.03125 115.476562 262.03125 C 113.628906 261.105469 113.144531 258.34375 112.117188 257.832031 C 108.964844 256.253906 96.066406 250.5 94.902344 248.171875 C 93.738281 245.847656 95.742188 242.070312 95.742188 240.195312 C 97.257812 240.195312 120.398438 233.535156 122.195312 232.636719 C 123.644531 231.914062 138.566406 234.316406 141.09375 234.316406 C 142.78125 234.316406 142.035156 237.675781 144.453125 237.675781 C 144.453125 239.921875 148.300781 241.875 150.332031 241.875 C 150.332031 244.195312 146.972656 244.273438 146.972656 244.8125 C 146.972656 244.8125 148.652344 246.492188 148.652344 246.492188 C 148.019531 247.761719 145.292969 248.046875 145.292969 250.273438 Z M 145.292969 250.273438 "/>
<path style=" stroke:none;fill-rule:nonzero;fill:rgb(98.039216%,50.196081%,44.705883%);fill-opacity:1;" d="M 66.347656 257.832031 L 61.308594 260.773438 C 61.308594 262.296875 63.605469 261.710938 64.25 262.03125 C 71.84375 265.828125 71.515625 257.832031 66.347656 257.832031 Z M 66.347656 257.832031 "/>
<path style=" stroke:none;fill-rule:nonzero;fill:rgb(14.901961%,49.411765%,100%);fill-opacity:1;" d="M 196.523438 268.75 C 196.523438 270.660156 189.804688 270.890625 189.804688 273.367188 C 189.804688 274.921875 190.636719 281.347656 194.421875 281.347656 C 201.503906 281.347656 204.222656 268.75 196.523438 268.75 Z M 196.523438 268.75 "/>
<path style=" stroke:none;fill-rule:nonzero;fill:rgb(14.901961%,49.411765%,100%);fill-opacity:1;" d="M 217.519531 268.75 L 214.578125 270.429688 C 213.101562 271.910156 212.480469 273.746094 212.480469 275.046875 C 212.480469 284.855469 229 282.050781 225.078125 274.210938 L 220.878906 271.6875 C 220.515625 270.964844 218.796875 268.75 217.519531 268.75 Z M 217.519531 268.75 "/>
<path style=" stroke:none;fill-rule:evenodd;fill:rgb(98.039216%,50.196081%,44.705883%);fill-opacity:1;" d="M 253.632812 287.226562 L 252.792969 289.328125 C 252.792969 292.761719 256.601562 287.226562 253.632812 287.226562 M 250.273438 283.027344 L 252.792969 283.027344 C 252.792969 286.609375 256.992188 284.675781 256.992188 282.1875 C 256.992188 282.1875 260.351562 281.347656 260.351562 281.347656 C 267.539062 281.347656 265.390625 296.640625 265.390625 301.503906 C 265.390625 305.390625 266.664062 313.675781 262.453125 315.78125 C 262.453125 315.78125 256.992188 317.039062 256.992188 317.039062 C 256.992188 317.039062 256.992188 322.5 256.992188 322.5 C 256.992188 327.355469 248.328125 325.859375 246.492188 325.859375 C 245.023438 325.859375 242.929688 331.214844 238.9375 329.21875 C 231.875 325.6875 238.515625 316.992188 238.515625 316.203125 C 238.515625 316.203125 235.996094 313.679688 235.996094 313.679688 C 234.449219 310.585938 239.109375 304.109375 242.296875 305.703125 C 242.296875 305.703125 244.8125 307.382812 244.8125 307.382812 C 246.800781 307.382812 245.71875 301.46875 247.335938 300.664062 C 247.335938 300.664062 251.953125 298.984375 251.953125 298.984375 C 252.664062 298.984375 253.800781 300.75 254.472656 299.40625 C 258.621094 291.105469 248.59375 296.105469 248.59375 291.84375 C 248.59375 291.84375 250.273438 289.328125 250.273438 289.328125 C 250.273438 288.066406 247.730469 286.855469 248.59375 285.125 C 248.59375 285.125 250.273438 283.027344 250.273438 283.027344 Z M 250.273438 283.027344 "/>
<path style=" stroke:none;fill-rule:nonzero;fill:rgb(98.039216%,50.196081%,44.705883%);fill-opacity:1;" d="M 157.890625 285.546875 C 157.890625 287.515625 151.632812 287.5625 150.332031 290.164062 C 148.5 293.828125 151.214844 298.375 154.109375 299.824219 L 156.632812 298.984375 L 158.3125 299.824219 C 159.65625 299.824219 157.441406 293.105469 159.992188 293.105469 C 162.234375 293.105469 160.523438 298.144531 161.671875 298.144531 L 162.089844 293.523438 C 162.089844 289.765625 162.804688 285.546875 157.890625 285.546875 Z M 157.890625 285.546875 "/>
<path style=" stroke:none;fill-rule:nonzero;fill:rgb(98.039216%,50.196081%,44.705883%);fill-opacity:1;" d="M 149.492188 299.824219 C 149.492188 303.398438 148.417969 303.234375 146.972656 306.125 C 146.097656 307.875 149.09375 307.003906 149.492188 307.804688 C 150.117188 309.054688 151.425781 317.460938 153.273438 317.460938 L 155.789062 316.621094 C 161.039062 319.246094 152.257812 327.03125 161.671875 331.738281 C 171.503906 336.65625 181.40625 335.902344 181.40625 322.078125 L 181.40625 315.359375 C 177.339844 307.226562 169 313.148438 164.1875 310.742188 C 161.347656 309.320312 152.464844 299.824219 149.492188 299.824219 Z M 149.492188 299.824219 "/>
</g>
</svg>
