<?xml version="1.0" encoding="UTF-8"?>
<svg xmlns="http://www.w3.org/2000/svg" xmlns:xlink="http://www.w3.org/1999/xlink" width="430px" height="430px" viewBox="0 0 430 430" version="1.1">
<g id="surface1">
<rect x="0" y="0" width="430" height="430" style="fill:rgb(0%,0%,0%);fill-opacity:1;stroke:none;"/>
<path style=" stroke:none;fill-rule:evenodd;fill:rgb(52.549022%,100%,35.294119%);fill-opacity:1;" d="M 191.484375 242.714844 C 191.484375 245.089844 178.414062 245.679688 175.945312 246.914062 C 168.703125 250.539062 165.832031 253.285156 162.089844 260.773438 C 160.1875 264.574219 162.929688 272.375 162.929688 275.890625 C 162.929688 277.679688 162.308594 285.5625 162.929688 286.804688 C 169.816406 300.578125 175.292969 306.636719 188.546875 313.261719 L 193.585938 313.261719 C 201.179688 317.058594 201.535156 308.222656 205.34375 308.222656 C 207.78125 308.222656 207.574219 311.429688 208.28125 312.84375 C 209.011719 314.304688 211.652344 314.316406 212.898438 314.941406 L 216.679688 314.101562 C 229.71875 314.101562 238.203125 301.710938 241.875 294.367188 C 243.9375 290.238281 246.570312 286.652344 248.59375 282.609375 C 250.78125 278.234375 250.199219 257.585938 245.65625 255.3125 C 242.757812 253.863281 241.382812 250.238281 238.09375 248.59375 C 234.378906 246.734375 224.632812 245.640625 222.140625 244.394531 C 217.011719 241.832031 211.171875 245.234375 206.179688 245.234375 C 203.582031 245.234375 196.265625 245.734375 193.585938 244.394531 L 191.484375 242.714844 M 204.921875 275.46875 L 205.761719 275.46875 C 205.761719 277.988281 210.800781 274.601562 210.800781 273.367188 C 210.800781 270.179688 201.277344 269.101562 200.304688 269.589844 C 194.476562 272.503906 204.921875 279.992188 204.921875 275.46875 Z M 204.921875 275.46875 "/>
<path style=" stroke:none;fill-rule:nonzero;fill:rgb(92.156863%,34.117648%,100%);fill-opacity:1;" d="M 204.921875 275.46875 C 203.183594 275.46875 204.457031 272.949219 205.34375 272.949219 C 206.226562 272.949219 207.5 275.46875 205.761719 275.46875 C 205.761719 277.988281 210.800781 274.601562 210.800781 273.367188 C 210.800781 270.179688 201.277344 269.101562 200.304688 269.589844 C 194.476562 272.503906 204.921875 279.992188 204.921875 275.46875 Z M 204.921875 275.46875 "/>
<path style=" stroke:none;fill-rule:nonzero;fill:rgb(15.294118%,95.686275%,99.215686%);fill-opacity:1;" d="M 204.921875 275.46875 L 205.761719 275.46875 C 207.5 275.46875 206.226562 272.949219 205.34375 272.949219 C 204.457031 272.949219 203.183594 275.46875 204.921875 275.46875 Z M 204.921875 275.46875 "/>
</g>
</svg>
