<?xml version="1.0" encoding="UTF-8"?>
<svg xmlns="http://www.w3.org/2000/svg" xmlns:xlink="http://www.w3.org/1999/xlink" width="430px" height="430px" viewBox="0 0 430 430" version="1.1">
<g id="surface1">
<rect x="0" y="0" width="430" height="430" style="fill:rgb(0%,0%,0%);fill-opacity:1;stroke:none;"/>
<path style=" stroke:none;fill-rule:nonzero;fill:rgb(100%,89.019608%,0%);fill-opacity:1;" d="M 214.160156 118.417969 C 228.523438 118.417969 236.757812 120.363281 243.554688 133.953125 L 246.914062 137.3125 L 246.074219 141.515625 L 247.753906 142.351562 C 248.597656 144.039062 245.578125 145.023438 245.234375 145.710938 L 245.234375 151.59375 C 243.25 155.558594 238.136719 164.273438 240.195312 168.390625 C 240.816406 169.628906 240.261719 176.367188 241.875 176.367188 C 241.875 176.367188 242.714844 165.867188 242.714844 165.867188 C 242.714844 165.867188 245.234375 164.1875 245.234375 164.1875 C 245.234375 164.1875 245.234375 159.992188 245.234375 159.992188 C 246.371094 157.714844 251.886719 157.601562 252.792969 155.789062 C 254.367188 152.644531 254.144531 143.378906 251.953125 138.992188 C 251.953125 138.992188 250.273438 138.15625 250.273438 138.15625 C 250.273438 137.550781 250.914062 135.238281 250.273438 133.953125 C 250.273438 133.953125 246.074219 129.757812 246.074219 129.757812 C 246.074219 129.757812 246.074219 127.234375 246.074219 127.234375 C 243.375 121.839844 233.589844 116.738281 227.597656 116.738281 C 225.5625 116.738281 214.160156 113.667969 214.160156 118.417969 Z M 214.160156 118.417969 "/>
<path style=" stroke:none;fill-rule:nonzero;fill:rgb(100%,89.019608%,0%);fill-opacity:1;" d="M 205.761719 123.457031 C 205.761719 124.980469 204.082031 125.027344 204.082031 125.554688 C 204.082031 138.542969 208.6875 153.242188 214.160156 164.1875 C 216.523438 168.921875 214.929688 180.003906 218.359375 186.867188 C 219.074219 188.292969 221.789062 189.210938 222.976562 189.804688 C 228.195312 192.414062 228.824219 198.640625 236.414062 194.84375 C 238 194.050781 239.953125 194.066406 241.035156 191.90625 C 243.046875 187.878906 241.875 180.808594 241.875 177.207031 C 246.253906 177.207031 243.664062 194.207031 242.714844 196.101562 C 241.917969 197.695312 230.867188 200.46875 229.695312 199.882812 C 227.230469 198.648438 226.207031 194.84375 222.976562 194.84375 C 222.976562 194.84375 220.460938 195.683594 220.460938 195.683594 C 218.132812 194.519531 219.707031 191.949219 217.101562 190.644531 C 215.246094 189.71875 210.195312 190.691406 209.121094 188.546875 C 207.109375 184.519531 208.179688 177.425781 206.601562 174.265625 C 204.296875 169.660156 208.113281 162.171875 205.761719 157.46875 C 205.761719 157.46875 204.5 153.691406 204.5 153.691406 C 203.460938 153.691406 203.242188 159.347656 203.242188 160.410156 C 203.242188 167.230469 204.414062 176.121094 201.5625 181.828125 C 200.289062 184.371094 197.589844 189.480469 195.265625 190.644531 C 195.265625 190.644531 191.90625 190.644531 191.90625 190.644531 C 191.90625 190.644531 188.964844 194.421875 188.964844 194.421875 C 188.964844 194.421875 189.382812 196.523438 189.382812 196.523438 C 187.300781 197.566406 186.207031 199.792969 184.34375 200.722656 C 180.570312 202.609375 172.578125 201.5625 169.226562 201.5625 C 167.148438 201.5625 168.652344 197.914062 167.546875 197.363281 C 167.035156 197.105469 165.148438 175.710938 166.289062 173.429688 C 166.289062 173.429688 168.808594 170.90625 168.808594 170.90625 C 170.761719 167 164.328125 160.898438 161.671875 159.570312 C 161.671875 159.570312 160.828125 157.050781 160.828125 157.050781 C 159.722656 156.496094 158.695312 157.402344 157.890625 155.789062 C 157.890625 155.789062 157.890625 151.59375 157.890625 151.59375 C 157.890625 151.59375 156.210938 149.914062 156.210938 149.914062 C 156.210938 143.703125 158.164062 134.246094 161.25 128.078125 C 161.25 128.078125 166.289062 123.039062 166.289062 123.039062 C 167.675781 120.269531 170.570312 121.945312 172.585938 120.9375 C 172.585938 120.9375 174.265625 118.417969 174.265625 118.417969 C 178.902344 116.101562 182.835938 117.578125 187.703125 117.578125 C 189.894531 117.578125 196.523438 116.578125 196.523438 120.097656 C 193.222656 120.097656 186.242188 117.46875 182.664062 119.257812 C 178.851562 121.164062 174.699219 122.402344 170.90625 124.296875 C 169.941406 124.78125 167.925781 129.988281 167.546875 130.175781 C 167.546875 130.175781 164.609375 130.59375 164.609375 130.59375 C 164.609375 130.59375 164.609375 134.796875 164.609375 134.796875 C 160.429688 143.152344 163.894531 148.484375 167.96875 156.632812 C 167.96875 156.632812 168.808594 165.03125 168.808594 165.03125 C 168.808594 165.03125 170.488281 165.03125 170.488281 165.03125 C 170.488281 165.03125 169.648438 167.546875 169.648438 167.546875 C 169.648438 173.105469 167.476562 195.648438 172.585938 198.203125 C 177.714844 200.765625 189.558594 188.203125 191.484375 184.34375 C 194.117188 179.082031 192.144531 167.066406 194.84375 161.671875 C 197.601562 156.152344 198.78125 149.59375 201.5625 144.03125 C 201.5625 144.03125 202.402344 135.632812 202.402344 135.632812 C 203.109375 134.222656 204.820312 127.875 204.082031 126.398438 C 204.082031 126.398438 201.5625 121.777344 201.5625 121.777344 C 203.25 121.777344 204.074219 123.457031 205.761719 123.457031 Z M 205.761719 123.457031 "/>
<path style=" stroke:none;fill-rule:nonzero;fill:rgb(100%,52.941179%,0%);fill-opacity:1;" d="M 241.875 176.367188 L 241.875 177.207031 C 241.875 180.808594 243.046875 187.878906 241.035156 191.90625 C 239.953125 194.066406 238 194.050781 236.414062 194.84375 C 228.824219 198.640625 228.195312 192.414062 222.976562 189.804688 C 221.789062 189.210938 219.074219 188.292969 218.359375 186.867188 C 214.929688 180.003906 216.523438 168.921875 214.160156 164.1875 C 208.6875 153.242188 204.082031 138.542969 204.082031 125.554688 C 204.082031 125.027344 205.761719 124.980469 205.761719 123.457031 C 205.761719 123.457031 209.960938 120.097656 209.960938 120.097656 C 209.960938 120.097656 213.320312 119.257812 213.320312 119.257812 C 213.320312 119.257812 214.160156 118.417969 214.160156 118.417969 C 228.523438 118.417969 236.757812 120.363281 243.554688 133.953125 C 243.554688 133.953125 246.914062 137.3125 246.914062 137.3125 C 246.914062 137.3125 246.074219 141.515625 246.074219 141.515625 C 246.074219 141.515625 247.753906 142.351562 247.753906 142.351562 C 248.597656 144.039062 245.578125 145.023438 245.234375 145.710938 C 245.234375 145.710938 245.234375 151.59375 245.234375 151.59375 C 243.25 155.558594 238.136719 164.273438 240.195312 168.390625 C 240.816406 169.628906 240.261719 176.367188 241.875 176.367188 Z M 241.875 176.367188 "/>
<path style=" stroke:none;fill-rule:nonzero;fill:rgb(100%,89.019608%,0%);fill-opacity:1;" d="M 213.320312 119.257812 L 209.960938 120.097656 C 209.960938 117.957031 213.320312 117.765625 213.320312 119.257812 Z M 213.320312 119.257812 "/>
<path style=" stroke:none;fill-rule:nonzero;fill:rgb(100%,52.941179%,0%);fill-opacity:1;" d="M 199.042969 120.9375 L 201.5625 121.777344 C 201.5625 121.777344 204.082031 126.398438 204.082031 126.398438 C 204.820312 127.875 203.109375 134.222656 202.402344 135.632812 C 202.402344 135.632812 201.5625 144.03125 201.5625 144.03125 C 198.78125 149.59375 197.601562 156.152344 194.84375 161.671875 C 192.144531 167.066406 194.117188 179.082031 191.484375 184.34375 C 189.558594 188.203125 177.714844 200.765625 172.585938 198.203125 C 167.476562 195.648438 169.648438 173.105469 169.648438 167.546875 C 169.648438 167.546875 170.488281 165.03125 170.488281 165.03125 C 170.488281 165.03125 168.808594 165.03125 168.808594 165.03125 C 168.808594 165.03125 167.96875 156.632812 167.96875 156.632812 C 163.894531 148.484375 160.429688 143.152344 164.609375 134.796875 C 164.609375 134.796875 164.609375 130.59375 164.609375 130.59375 C 164.609375 130.59375 167.546875 130.175781 167.546875 130.175781 C 167.925781 129.988281 169.941406 124.78125 170.90625 124.296875 C 174.699219 122.402344 178.851562 121.164062 182.664062 119.257812 C 186.242188 117.46875 193.222656 120.097656 196.523438 120.097656 C 196.523438 120.097656 198.203125 120.097656 198.203125 120.097656 C 198.203125 120.097656 199.042969 120.9375 199.042969 120.9375 Z M 199.042969 120.9375 "/>
<path style=" stroke:none;fill-rule:nonzero;fill:rgb(100%,89.019608%,0%);fill-opacity:1;" d="M 198.203125 120.097656 L 199.042969 120.9375 C 199.042969 120.9375 198.203125 120.097656 198.203125 120.097656 Z M 198.203125 120.097656 "/>
<path style=" stroke:none;fill-rule:evenodd;fill:rgb(98.039216%,50.196081%,44.705883%);fill-opacity:1;" d="M 277.148438 320.820312 C 277.148438 324.019531 281.679688 320.820312 277.148438 320.820312 M 268.75 310.742188 C 268.75 313.886719 270.507812 310.742188 268.75 310.742188 M 269.589844 309.902344 C 269.589844 311.523438 271.210938 309.902344 269.589844 309.902344 M 262.871094 299.824219 C 262.871094 302.175781 258.660156 304.417969 260.351562 307.804688 L 262.871094 312 C 261.648438 314.445312 254.417969 314.417969 256.992188 319.5625 L 260.351562 321.242188 C 261.261719 323.058594 261.59375 331.746094 266.648438 329.21875 L 271.269531 325.4375 L 270.851562 319.140625 L 272.53125 320.820312 C 276.890625 323 271.0625 322.507812 272.949219 326.28125 C 275.21875 330.820312 281 325.859375 283.445312 325.859375 C 283.945312 325.859375 284.855469 330.183594 285.546875 328.796875 L 285.125 319.140625 C 283.433594 319.140625 283.078125 321.660156 282.609375 321.660156 L 279.667969 320.398438 C 279.667969 317.179688 286.6875 315.664062 278.828125 307.804688 L 273.367188 307.382812 L 270.851562 309.902344 L 271.269531 303.601562 C 269.308594 299.679688 267.03125 299.824219 262.871094 299.824219 Z M 262.871094 299.824219 "/>
<path style=" stroke:none;fill-rule:evenodd;fill:rgb(98.039216%,50.196081%,44.705883%);fill-opacity:1;" d="M 152.851562 323.339844 C 152.851562 326.484375 154.609375 323.339844 152.851562 323.339844 M 147.8125 303.183594 C 147.8125 306.296875 139.054688 304.414062 138.15625 304.863281 C 137.320312 305.28125 137.546875 308.828125 136.476562 309.902344 C 135.4375 310.941406 131.421875 311.191406 131.015625 312 C 129.921875 314.191406 133.449219 316.375 132.695312 317.882812 L 127.65625 320.398438 C 125.796875 324.121094 128.171875 330.527344 132.273438 332.578125 C 136.265625 334.574219 139.75 331.78125 143.195312 330.058594 C 143.480469 329.914062 149.949219 333.015625 150.75 333.417969 L 153.273438 330.898438 C 154.609375 330.898438 155.167969 335.921875 157.050781 332.15625 C 159.742188 326.777344 155.371094 326.03125 155.371094 322.921875 C 155.371094 320.949219 159.511719 319.445312 157.890625 316.203125 C 156.570312 313.5625 151.898438 314.292969 151.171875 312.84375 C 150.433594 311.367188 156.773438 303.183594 147.8125 303.183594 Z M 147.8125 303.183594 "/>
</g>
</svg>
