<?xml version="1.0" encoding="UTF-8"?>
<svg xmlns="http://www.w3.org/2000/svg" xmlns:xlink="http://www.w3.org/1999/xlink" width="430px" height="430px" viewBox="0 0 430 430" version="1.1">
<g id="surface1">
<rect x="0" y="0" width="430" height="430" style="fill:rgb(0%,0%,0%);fill-opacity:1;stroke:none;"/>
<path style=" stroke:none;fill-rule:nonzero;fill:rgb(100%,89.019608%,0%);fill-opacity:1;" d="M 210.800781 122.617188 C 214.21875 122.617188 221.75 119.902344 223.820312 120.9375 C 227.097656 122.578125 231.878906 126.558594 233.476562 129.757812 L 238.515625 134.796875 C 241.195312 140.15625 237.675781 153.355469 237.675781 159.570312 C 240.347656 159.570312 239.511719 155.480469 240.195312 154.109375 C 240.195312 154.109375 242.714844 151.59375 242.714844 151.59375 C 242.714844 150.324219 239.996094 149.472656 241.035156 147.390625 C 241.035156 147.390625 244.394531 143.195312 244.394531 143.195312 C 245.074219 141.832031 243.554688 140.671875 243.554688 139.835938 C 243.554688 138.300781 245.417969 135.160156 244.394531 133.117188 C 243.613281 131.554688 241.75 132.03125 241.035156 130.59375 C 237.585938 123.699219 230.679688 121.007812 225.5 118.417969 C 224.367188 117.855469 218.085938 118.34375 217.9375 118.417969 C 217.9375 118.417969 216.257812 120.9375 216.257812 120.9375 C 215.167969 121.484375 210.800781 120.945312 210.800781 122.617188 Z M 210.800781 122.617188 "/>
<path style=" stroke:none;fill-rule:nonzero;fill:rgb(100%,89.019608%,0%);fill-opacity:1;" d="M 196.523438 122.617188 C 196.523438 124.78125 194.355469 122.230469 193.585938 122.617188 C 191.015625 123.902344 185.949219 121.816406 182.664062 123.457031 C 176.855469 126.359375 170.851562 132.386719 167.96875 138.15625 C 167.488281 139.117188 169.917969 158.011719 170.488281 159.148438 L 172.167969 159.992188 C 172.769531 161.195312 172.613281 166.289062 172.167969 166.289062 C 170.457031 166.289062 168.765625 156.542969 167.96875 154.953125 C 167.96875 154.953125 162.929688 149.914062 162.929688 149.914062 C 162.929688 147.519531 162.234375 148.519531 161.25 146.554688 C 161.25 146.554688 162.929688 143.195312 162.929688 143.195312 C 162.929688 137.132812 162.570312 136.351562 165.449219 130.59375 C 167.214844 127.0625 181.269531 120.9375 186.867188 120.9375 C 188.753906 120.9375 196.523438 120.144531 196.523438 122.617188 Z M 196.523438 122.617188 "/>
<path style=" stroke:none;fill-rule:nonzero;fill:rgb(100%,52.941179%,0%);fill-opacity:1;" d="M 236.835938 163.769531 L 236.835938 178.886719 C 233.753906 178.886719 235.085938 183.648438 234.316406 185.1875 C 233.316406 187.1875 231.925781 185.75 230.539062 186.445312 C 230.539062 186.445312 228.859375 187.285156 228.859375 187.285156 C 227.3125 186.511719 218.1875 179.804688 217.519531 178.46875 C 215.355469 174.140625 215.464844 168.480469 213.320312 164.1875 C 207.410156 152.371094 204.921875 142.570312 204.921875 128.496094 C 204.921875 126.628906 208.371094 122.617188 210.800781 122.617188 C 214.21875 122.617188 221.75 119.902344 223.820312 120.9375 C 227.097656 122.578125 231.878906 126.558594 233.476562 129.757812 C 233.476562 129.757812 238.515625 134.796875 238.515625 134.796875 C 241.195312 140.15625 237.675781 153.355469 237.675781 159.570312 C 236.296875 159.570312 236.835938 162.730469 236.835938 163.769531 Z M 236.835938 163.769531 "/>
<path style=" stroke:none;fill-rule:nonzero;fill:rgb(100%,52.941179%,0%);fill-opacity:1;" d="M 172.167969 166.289062 L 172.167969 173.007812 C 172.167969 175.4375 173.125 174.503906 173.847656 175.945312 C 173.847656 175.945312 172.167969 180.148438 172.167969 180.148438 C 172.167969 180.148438 173.847656 181.828125 173.847656 181.828125 C 173.847656 181.828125 174.6875 186.867188 174.6875 186.867188 C 176.980469 191.449219 187.785156 181.664062 188.964844 179.304688 C 190.707031 175.820312 190.015625 169.644531 191.484375 166.710938 C 195.117188 159.441406 199.617188 152.964844 203.242188 145.710938 C 205.113281 141.96875 203.242188 130.816406 203.242188 127.65625 C 203.242188 125.347656 198.738281 122.617188 196.523438 122.617188 C 196.523438 124.78125 194.355469 122.230469 193.585938 122.617188 C 191.015625 123.902344 185.949219 121.816406 182.664062 123.457031 C 176.855469 126.359375 170.851562 132.386719 167.96875 138.15625 C 167.488281 139.117188 169.917969 158.011719 170.488281 159.148438 C 170.488281 159.148438 172.167969 159.992188 172.167969 159.992188 C 172.769531 161.195312 172.613281 166.289062 172.167969 166.289062 Z M 172.167969 166.289062 "/>
<path style=" stroke:none;fill-rule:nonzero;fill:rgb(100%,89.019608%,0%);fill-opacity:1;" d="M 172.167969 173.007812 C 171.183594 173.007812 170.640625 182.96875 171.328125 184.34375 L 173.847656 187.703125 L 174.265625 192.324219 C 178.234375 194.308594 179.421875 189.328125 181.828125 188.125 C 183.996094 187.039062 187.140625 187.566406 189.382812 186.445312 L 190.226562 183.085938 C 193.574219 181.410156 201.511719 175.207031 203.242188 171.75 C 205.929688 166.378906 201.101562 158.390625 203.242188 154.109375 L 204.5 149.492188 L 204.921875 152.429688 C 206.347656 155.28125 206.601562 158.644531 206.601562 162.089844 L 206.601562 173.429688 L 210.382812 178.046875 L 213.320312 178.46875 C 213.320312 179.90625 209.558594 181.414062 212.898438 183.085938 L 218.78125 183.085938 L 219.199219 188.546875 C 219.746094 189.640625 233.847656 191.089844 234.734375 190.644531 C 236.761719 189.632812 239.601562 178.886719 236.835938 178.886719 C 233.753906 178.886719 235.085938 183.648438 234.316406 185.1875 C 233.316406 187.1875 231.925781 185.75 230.539062 186.445312 C 230.539062 186.445312 228.859375 187.285156 228.859375 187.285156 C 227.3125 186.511719 218.1875 179.804688 217.519531 178.46875 C 215.355469 174.140625 215.464844 168.480469 213.320312 164.1875 C 207.410156 152.371094 204.921875 142.570312 204.921875 128.496094 C 204.921875 128.496094 203.242188 127.65625 203.242188 127.65625 C 203.242188 130.816406 205.113281 141.96875 203.242188 145.710938 C 199.617188 152.964844 195.117188 159.441406 191.484375 166.710938 C 190.015625 169.644531 190.707031 175.820312 188.964844 179.304688 C 187.785156 181.664062 176.980469 191.449219 174.6875 186.867188 C 174.6875 186.867188 173.847656 181.828125 173.847656 181.828125 C 173.847656 181.828125 172.167969 180.148438 172.167969 180.148438 C 172.167969 180.148438 173.847656 175.945312 173.847656 175.945312 C 173.125 174.503906 172.167969 175.4375 172.167969 173.007812 Z M 172.167969 173.007812 "/>
<path style=" stroke:none;fill-rule:nonzero;fill:rgb(100%,89.019608%,0%);fill-opacity:1;" d="M 237.675781 159.570312 C 236.296875 159.570312 236.835938 162.730469 236.835938 163.769531 C 238.214844 163.769531 237.675781 160.609375 237.675781 159.570312 Z M 237.675781 159.570312 "/>
<path style=" stroke:none;fill-rule:nonzero;fill:rgb(98.039216%,50.196081%,44.705883%);fill-opacity:1;" d="M 136.894531 298.984375 L 132.695312 302.765625 C 132.695312 304.277344 136.316406 305.597656 135.214844 307.804688 C 133.0625 312.109375 129.054688 310.042969 127.65625 312.84375 C 126.199219 315.753906 127.300781 318.847656 128.496094 321.242188 C 129.351562 322.949219 124.484375 328.683594 130.59375 331.738281 C 136.234375 334.558594 135.558594 331.738281 139.835938 331.738281 C 141.953125 331.738281 142.449219 332.949219 144.875 331.738281 C 145.558594 331.394531 151.171875 333.796875 151.171875 331.320312 C 151.171875 326.835938 153.832031 327.402344 152.851562 325.4375 L 151.171875 323.757812 C 151.171875 322.277344 153.90625 320.835938 152.851562 318.71875 C 152.492188 318 151.21875 319.65625 150.332031 317.882812 C 149.246094 315.710938 151.5625 313.625 150.332031 311.164062 L 146.972656 309.484375 C 143.289062 302.113281 151.148438 298.984375 136.894531 298.984375 Z M 136.894531 298.984375 "/>
<path style=" stroke:none;fill-rule:evenodd;fill:rgb(98.039216%,50.196081%,44.705883%);fill-opacity:1;" d="M 271.269531 314.941406 C 271.269531 319.621094 273.910156 314.941406 271.269531 314.941406 M 275.46875 300.664062 L 270.429688 303.601562 L 268.75 309.0625 L 269.171875 312.421875 C 265.773438 312.421875 263.277344 308.667969 260.351562 314.523438 C 258.757812 317.710938 262.871094 320.101562 262.871094 321.242188 C 262.871094 325.109375 255.371094 327.359375 264.132812 331.738281 L 266.648438 332.578125 C 267.675781 332.066406 271.269531 328.378906 271.6875 328.378906 C 273.375 328.378906 275.695312 331.414062 278.40625 330.058594 L 282.609375 327.539062 L 285.546875 330.476562 L 285.125 317.460938 C 284.414062 317.460938 283.347656 317.242188 283.027344 317.882812 L 282.609375 320.820312 L 278.828125 316.203125 L 282.1875 315.359375 C 284.878906 309.976562 281.203125 300.664062 275.46875 300.664062 Z M 275.46875 300.664062 "/>
</g>
</svg>
