<?xml version="1.0" encoding="UTF-8"?>
<svg xmlns="http://www.w3.org/2000/svg" xmlns:xlink="http://www.w3.org/1999/xlink" width="430px" height="430px" viewBox="0 0 430 430" version="1.1">
<g id="surface1">
<rect x="0" y="0" width="430" height="430" style="fill:rgb(0%,0%,0%);fill-opacity:1;stroke:none;"/>
<path style=" stroke:none;fill-rule:nonzero;fill:rgb(100%,89.019608%,0%);fill-opacity:1;" d="M 250.273438 212.480469 C 250.273438 218.886719 244.441406 216.445312 240.617188 218.359375 C 233.425781 221.953125 222.941406 215.820312 216.257812 212.480469 L 212.898438 212.480469 C 209.320312 210.691406 205.761719 198.878906 205.761719 194.84375 C 205.761719 193.605469 206.511719 187.285156 204.5 187.285156 C 202.546875 187.285156 203.242188 192.835938 203.242188 194.003906 C 203.242188 199.476562 202.640625 208.371094 197.78125 210.800781 C 195.722656 211.832031 193.003906 211.507812 191.0625 212.480469 L 192.324219 213.742188 L 187.703125 214.160156 L 185.1875 218.359375 L 180.148438 218.359375 C 173.511719 221.675781 174.90625 221.199219 169.226562 218.359375 C 166.972656 217.230469 159.570312 217.964844 159.570312 213.320312 C 162.742188 213.320312 170.320312 220.753906 175.109375 218.359375 C 184.3125 213.757812 190.242188 207.824219 194.84375 198.625 C 194.84375 198.625 194.003906 194.421875 194.003906 194.421875 C 196.6875 189.058594 196.414062 182.886719 199.042969 177.625 C 199.042969 177.625 197.363281 175.109375 197.363281 175.109375 C 197.363281 175.109375 198.203125 170.90625 198.203125 170.90625 C 198.203125 168.226562 195.453125 162.972656 196.523438 160.828125 C 197.863281 158.148438 196.070312 154.179688 197.363281 151.59375 C 197.363281 151.59375 201.5625 144.03125 201.5625 144.03125 C 201.5625 142.328125 202.46875 128.207031 202.402344 128.078125 C 201.390625 126.050781 198.914062 124.460938 198.203125 123.039062 C 197.457031 121.542969 198.671875 120.121094 196.945312 119.257812 C 191.988281 116.78125 178.058594 114.84375 172.585938 117.578125 C 172.585938 117.578125 173.429688 119.257812 173.429688 119.257812 C 173.429688 119.257812 165.867188 120.097656 165.867188 120.097656 C 163.605469 121.230469 166.085938 121.765625 165.449219 123.039062 C 164.539062 124.859375 158.730469 127.351562 158.730469 128.078125 C 158.730469 130.671875 157.699219 130.136719 156.210938 133.117188 C 154.199219 137.140625 154.53125 142.589844 154.53125 146.554688 C 154.53125 150.703125 152.367188 155.660156 154.53125 159.992188 C 155.390625 161.707031 156.882812 161.332031 157.050781 161.671875 C 157.050781 161.671875 157.050781 167.546875 157.050781 167.546875 C 157.050781 167.546875 158.730469 170.070312 158.730469 170.070312 C 158.3125 170.90625 156.101562 170.691406 157.050781 172.585938 C 157.050781 172.585938 158.730469 173.429688 158.730469 173.429688 C 158.730469 173.429688 158.730469 176.789062 158.730469 176.789062 C 158.765625 176.859375 160.578125 178.886719 159.148438 178.886719 C 158.980469 178.886719 157.050781 177.496094 157.050781 179.304688 C 157.050781 184.164062 156.054688 187.179688 153.691406 191.90625 C 150.246094 198.796875 158.730469 204.773438 158.730469 210.800781 C 155.242188 210.800781 152.445312 196.128906 151.171875 193.585938 C 147.757812 186.757812 147.8125 178.726562 147.8125 170.488281 C 147.8125 166.839844 143.917969 160.222656 146.132812 155.789062 C 151.054688 145.945312 153.796875 132.902344 158.730469 123.039062 C 163.230469 114.035156 187.648438 111.671875 196.101562 115.898438 C 196.101562 115.898438 196.101562 117.578125 196.101562 117.578125 C 203.132812 121.09375 199.347656 123.34375 203.664062 127.65625 C 203.664062 127.65625 205.34375 131.855469 205.34375 131.855469 C 208.03125 131.855469 204.949219 125.136719 209.121094 125.136719 C 209.121094 130.105469 204.820312 138.792969 207.441406 144.03125 C 209.378906 147.90625 213.320312 152.480469 213.320312 157.050781 C 213.320312 173.644531 208.082031 190.664062 215.839844 206.179688 C 218.972656 212.449219 228.65625 212.800781 233.054688 215 C 233.054688 215 237.257812 218.359375 237.257812 218.359375 C 240.34375 219.90625 246.679688 212.480469 250.273438 212.480469 Z M 250.273438 212.480469 "/>
<path style=" stroke:none;fill-rule:nonzero;fill:rgb(100%,89.019608%,0%);fill-opacity:1;" d="M 209.121094 125.136719 C 212.039062 125.136719 212.152344 120.054688 213.742188 119.257812 L 218.78125 119.257812 C 221.984375 117.65625 229.851562 117.65625 233.054688 119.257812 L 240.617188 119.257812 C 242.351562 120.125 244.648438 123.457031 244.8125 123.457031 C 250.558594 123.457031 254.839844 131.332031 256.992188 135.632812 C 261.054688 143.753906 257.261719 166.167969 254.472656 171.75 L 255.3125 179.726562 C 255.3125 184.226562 258 189.886719 256.152344 193.585938 C 255.609375 194.671875 256.703125 196.523438 257.832031 196.523438 C 257.832031 193.414062 261.539062 191.207031 262.871094 188.546875 C 264.308594 185.671875 263.042969 181.484375 264.550781 178.46875 C 264.550781 178.46875 264.550781 165.03125 264.550781 165.03125 C 264.550781 146.917969 262 141.449219 254.472656 126.398438 C 253.003906 123.460938 248.851562 122.957031 246.492188 121.777344 C 246.492188 121.777344 245.65625 119.257812 245.65625 119.257812 C 238.5625 119.257812 229.160156 112.808594 221.296875 116.738281 C 217.042969 118.867188 209.121094 116.382812 209.121094 125.136719 Z M 209.121094 125.136719 "/>
<path style=" stroke:none;fill-rule:nonzero;fill:rgb(100%,52.941179%,0%);fill-opacity:1;" d="M 159.570312 212.480469 L 159.570312 213.320312 C 162.742188 213.320312 170.320312 220.753906 175.109375 218.359375 C 184.3125 213.757812 190.242188 207.824219 194.84375 198.625 C 194.84375 198.625 194.003906 194.421875 194.003906 194.421875 C 196.6875 189.058594 196.414062 182.886719 199.042969 177.625 C 199.042969 177.625 197.363281 175.109375 197.363281 175.109375 C 197.363281 175.109375 198.203125 170.90625 198.203125 170.90625 C 198.203125 168.226562 195.453125 162.972656 196.523438 160.828125 C 197.863281 158.148438 196.070312 154.179688 197.363281 151.59375 C 197.363281 151.59375 201.5625 144.03125 201.5625 144.03125 C 201.5625 142.328125 202.46875 128.207031 202.402344 128.078125 C 201.390625 126.050781 198.914062 124.460938 198.203125 123.039062 C 197.457031 121.542969 198.671875 120.121094 196.945312 119.257812 C 191.988281 116.78125 178.058594 114.84375 172.585938 117.578125 C 172.585938 117.578125 173.429688 119.257812 173.429688 119.257812 C 173.429688 119.257812 165.867188 120.097656 165.867188 120.097656 C 163.605469 121.230469 166.085938 121.765625 165.449219 123.039062 C 164.539062 124.859375 158.730469 127.351562 158.730469 128.078125 C 158.730469 130.671875 157.699219 130.136719 156.210938 133.117188 C 154.199219 137.140625 154.53125 142.589844 154.53125 146.554688 C 154.53125 150.703125 152.367188 155.660156 154.53125 159.992188 C 155.390625 161.707031 156.882812 161.332031 157.050781 161.671875 C 157.050781 161.671875 157.050781 167.546875 157.050781 167.546875 C 157.050781 167.546875 158.730469 170.070312 158.730469 170.070312 C 158.3125 170.90625 156.101562 170.691406 157.050781 172.585938 C 157.050781 172.585938 158.730469 173.429688 158.730469 173.429688 C 158.730469 173.429688 158.730469 176.789062 158.730469 176.789062 C 158.765625 176.859375 160.578125 178.886719 159.148438 178.886719 C 158.980469 178.886719 157.050781 177.496094 157.050781 179.304688 C 157.050781 184.164062 156.054688 187.179688 153.691406 191.90625 C 150.246094 198.796875 158.730469 204.773438 158.730469 210.800781 C 158.730469 210.800781 158.730469 211.640625 158.730469 211.640625 C 158.730469 211.640625 159.570312 212.480469 159.570312 212.480469 Z M 159.570312 212.480469 "/>
<path style=" stroke:none;fill-rule:nonzero;fill:rgb(100%,52.941179%,0%);fill-opacity:1;" d="M 257.832031 196.523438 C 257.832031 198.074219 256.109375 204.585938 255.3125 206.179688 C 254.675781 207.457031 250.273438 210.398438 250.273438 212.480469 C 246.679688 212.480469 240.34375 219.90625 237.257812 218.359375 C 237.257812 218.359375 233.054688 215 233.054688 215 C 228.65625 212.800781 218.972656 212.449219 215.839844 206.179688 C 208.082031 190.664062 213.320312 173.644531 213.320312 157.050781 C 213.320312 152.480469 209.378906 147.90625 207.441406 144.03125 C 204.820312 138.792969 209.121094 130.105469 209.121094 125.136719 C 212.039062 125.136719 212.152344 120.054688 213.742188 119.257812 C 213.742188 119.257812 218.78125 119.257812 218.78125 119.257812 C 221.984375 117.65625 229.851562 117.65625 233.054688 119.257812 C 233.054688 119.257812 240.617188 119.257812 240.617188 119.257812 C 242.351562 120.125 244.648438 123.457031 244.8125 123.457031 C 250.558594 123.457031 254.839844 131.332031 256.992188 135.632812 C 261.054688 143.753906 257.261719 166.167969 254.472656 171.75 C 254.472656 171.75 255.3125 179.726562 255.3125 179.726562 C 255.3125 184.226562 258 189.886719 256.152344 193.585938 C 255.609375 194.671875 256.703125 196.523438 257.832031 196.523438 Z M 257.832031 196.523438 "/>
<path style=" stroke:none;fill-rule:nonzero;fill:rgb(18.82353%,85.490197%,0%);fill-opacity:1;" d="M 329.21875 201.5625 L 322.5 205.34375 C 319.621094 208.21875 318.421875 213.496094 316.621094 217.101562 C 315.929688 218.484375 318.804688 225.917969 319.5625 225.917969 C 320.761719 225.917969 325.871094 224.023438 327.117188 223.398438 C 330.691406 221.609375 336.144531 214.164062 338.457031 209.539062 C 338.863281 208.726562 340.664062 201.5625 338.039062 201.5625 C 336.09375 201.5625 332.199219 201.5625 329.21875 201.5625 Z M 329.21875 201.5625 "/>
<path style=" stroke:none;fill-rule:nonzero;fill:rgb(100%,89.019608%,0%);fill-opacity:1;" d="M 158.730469 211.640625 L 159.570312 212.480469 C 159.570312 212.480469 158.730469 211.640625 158.730469 211.640625 Z M 158.730469 211.640625 "/>
<path style=" stroke:none;fill-rule:evenodd;fill:rgb(18.82353%,85.490197%,0%);fill-opacity:1;" d="M 75.585938 219.199219 C 75.585938 222.121094 78.507812 219.199219 75.585938 219.199219 M 74.746094 213.320312 C 74.746094 221.960938 76.710938 230.050781 85.242188 234.316406 C 88.867188 236.128906 93.316406 235.832031 97 237.675781 L 100.78125 237.257812 L 99.101562 236.414062 C 99.101562 233.457031 100.722656 235.460938 99.101562 232.21875 C 97.980469 229.976562 101.84375 229.304688 100.78125 227.179688 L 96.164062 222.558594 L 93.222656 222.140625 L 94.902344 221.296875 C 94.902344 220.246094 90.15625 219.554688 89.445312 219.199219 C 84.410156 216.683594 80.859375 213.320312 74.746094 213.320312 Z M 74.746094 213.320312 "/>
<path style=" stroke:none;fill-rule:nonzero;fill:rgb(98.039216%,50.196081%,44.705883%);fill-opacity:1;" d="M 250.273438 305.703125 C 250.273438 306.257812 243.738281 308.277344 242.714844 310.320312 C 241.214844 313.320312 244.214844 315.003906 245.234375 317.039062 C 245.855469 318.285156 241.179688 322.371094 242.714844 325.4375 C 246.15625 332.324219 250.5625 325.792969 254.054688 327.539062 C 255.621094 328.324219 252.546875 333.417969 256.570312 333.417969 C 259.339844 333.417969 267.761719 332.023438 270.007812 330.898438 C 272.789062 329.507812 271.539062 316.738281 270.429688 314.523438 C 269.183594 312.027344 267.53125 313.28125 265.8125 312.421875 L 264.132812 309.0625 C 259.375 306.683594 255.488281 305.703125 250.273438 305.703125 Z M 250.273438 305.703125 "/>
<path style=" stroke:none;fill-rule:nonzero;fill:rgb(98.039216%,50.196081%,44.705883%);fill-opacity:1;" d="M 159.570312 306.542969 C 159.570312 309.617188 153.3125 310.722656 151.59375 311.582031 C 149.429688 312.664062 149.445312 314.617188 148.652344 316.203125 C 148.128906 317.25 144.59375 317.601562 143.613281 319.5625 L 143.613281 322.921875 C 143.605469 322.933594 131.015625 328.589844 140.671875 333.417969 C 144.527344 335.34375 145.273438 330.277344 147.390625 329.21875 C 149.097656 328.367188 164.089844 337.398438 167.96875 329.640625 L 167.128906 326.28125 C 168.261719 324.015625 168.769531 316.121094 167.128906 312.84375 L 162.089844 309.484375 Z M 159.570312 306.542969 "/>
<path style=" stroke:none;fill-rule:nonzero;fill:rgb(98.039216%,50.196081%,44.705883%);fill-opacity:1;" d="M 273.789062 324.179688 C 273.789062 325.375 272.128906 327.15625 272.949219 328.796875 C 276.011719 334.925781 284.890625 324.179688 273.789062 324.179688 Z M 273.789062 324.179688 "/>
</g>
</svg>
