<?xml version="1.0" encoding="UTF-8"?>
<svg xmlns="http://www.w3.org/2000/svg" xmlns:xlink="http://www.w3.org/1999/xlink" width="430px" height="430px" viewBox="0 0 430 430" version="1.1">
<g id="surface1">
<rect x="0" y="0" width="430" height="430" style="fill:rgb(0%,0%,0%);fill-opacity:1;stroke:none;"/>
<path style=" stroke:none;fill-rule:evenodd;fill:rgb(52.549022%,100%,35.294119%);fill-opacity:1;" d="M 201.5625 257.832031 L 199.042969 261.609375 L 201.5625 263.289062 L 199.882812 264.96875 C 199.882812 266.390625 202.410156 266.230469 203.242188 266.230469 C 205.839844 266.230469 214.015625 263.988281 209.960938 259.929688 L 207.859375 259.511719 L 205.34375 258.671875 C 203.535156 259.574219 203.746094 257.832031 201.5625 257.832031 M 185.605469 232.636719 C 185.605469 234.09375 180.136719 233.476562 178.886719 233.476562 C 177.023438 233.476562 174.945312 235.914062 173.429688 235.15625 L 171.75 233.476562 L 170.070312 235.996094 C 163.882812 239.089844 161.019531 241.917969 157.890625 248.171875 L 157.890625 251.53125 C 157.277344 252.753906 156.242188 255.792969 157.050781 257.414062 C 160.429688 264.167969 157.902344 273.394531 161.25 280.085938 C 161.976562 281.539062 177.402344 297.304688 177.625 297.304688 C 179.847656 297.304688 181.800781 296.871094 184.34375 298.144531 C 186.894531 299.417969 193.601562 301.496094 196.945312 299.824219 C 198.71875 298.9375 197.0625 297.664062 197.78125 297.304688 L 201.984375 297.304688 C 203.09375 296.75 203.667969 292.6875 206.179688 293.945312 C 206.265625 293.988281 207.867188 298.988281 209.539062 299.824219 C 214.125 302.117188 224.015625 300.144531 228.015625 298.144531 L 233.898438 297.304688 C 236.699219 295.902344 241.195312 289.007812 242.714844 285.96875 C 243.363281 284.667969 248.734375 281.484375 250.273438 278.40625 C 251.597656 275.753906 249.828125 271.738281 251.113281 269.171875 C 254.632812 262.128906 256.035156 253.820312 251.953125 245.65625 L 250.273438 245.65625 C 247.558594 240.222656 242.261719 235.996094 236.414062 235.996094 L 233.898438 233.476562 C 231.460938 232.257812 229.53125 235.15625 228.859375 235.15625 C 226.191406 235.15625 221.929688 231.902344 218.78125 233.476562 C 214.796875 235.46875 210.59375 237.675781 205.761719 237.675781 C 198.550781 237.675781 194.121094 232.636719 185.605469 232.636719 Z M 185.605469 232.636719 "/>
<path style=" stroke:none;fill-rule:evenodd;fill:rgb(92.156863%,34.117648%,100%);fill-opacity:1;" d="M 204.921875 262.03125 C 204.921875 266.5625 208.121094 262.03125 204.921875 262.03125 M 201.5625 257.832031 L 199.042969 261.609375 L 201.5625 263.289062 L 199.882812 264.96875 C 199.882812 266.390625 202.410156 266.230469 203.242188 266.230469 C 205.839844 266.230469 214.015625 263.988281 209.960938 259.929688 L 207.859375 259.511719 L 205.34375 258.671875 C 203.535156 259.574219 203.746094 257.832031 201.5625 257.832031 Z M 201.5625 257.832031 "/>
<path style=" stroke:none;fill-rule:nonzero;fill:rgb(15.294118%,95.686275%,99.215686%);fill-opacity:1;" d="M 204.921875 262.03125 C 204.921875 266.5625 208.121094 262.03125 204.921875 262.03125 Z M 204.921875 262.03125 "/>
</g>
</svg>
