<?xml version="1.0" encoding="UTF-8"?>
<svg xmlns="http://www.w3.org/2000/svg" xmlns:xlink="http://www.w3.org/1999/xlink" width="430px" height="430px" viewBox="0 0 430 430" version="1.1">
<g id="surface1">
<rect x="0" y="0" width="430" height="430" style="fill:rgb(0%,0%,0%);fill-opacity:1;stroke:none;"/>
<path style=" stroke:none;fill-rule:evenodd;fill:rgb(1.176471%,75.686276%,17.647059%);fill-opacity:1;" d="M 294.785156 249.433594 C 294.785156 251.054688 296.40625 249.433594 294.785156 249.433594 M 114.21875 268.75 C 111.15625 268.75 102.25 257.9375 98.679688 256.152344 C 92.566406 253.09375 80.125 248.855469 76.425781 241.453125 C 75.046875 238.695312 77.578125 236.199219 76.425781 233.898438 L 70.546875 226.335938 C 68.644531 222.535156 69.925781 216.695312 68.027344 212.898438 C 66.195312 209.238281 64.054688 206.636719 62.148438 202.820312 L 61.308594 184.34375 C 58.832031 179.398438 58.871094 161.507812 61.308594 156.632812 C 63.234375 152.777344 62.019531 144.292969 63.828125 140.671875 C 69.128906 130.070312 82.179688 110.710938 93.640625 104.980469 C 95.363281 104.121094 97.835938 104.144531 99.523438 103.300781 C 102.976562 101.574219 105.339844 98.292969 108.757812 96.582031 L 113.796875 97.421875 L 118 94.0625 C 120.089844 93.015625 120.726562 94.902344 123.039062 94.902344 L 123.875 92.382812 C 126.855469 92.382812 131.050781 90.703125 131.4375 90.703125 C 133.441406 90.703125 138.15625 91.121094 140.671875 89.863281 L 144.875 86.503906 L 154.109375 85.664062 C 163.1875 81.125 173.375 80.179688 182.664062 84.824219 C 185.894531 86.4375 191.117188 84.011719 194.421875 85.664062 C 198.34375 87.625 198.773438 93.296875 201.984375 94.902344 C 205.667969 96.746094 208.195312 85.496094 209.539062 84.824219 C 212.5 83.34375 232.5 78.246094 235.578125 79.785156 C 240.234375 82.113281 246.425781 78.910156 251.53125 81.464844 L 254.890625 84.824219 L 263.289062 85.664062 L 265.8125 88.183594 L 268.328125 86.503906 L 275.046875 89.023438 C 277.867188 90.433594 282.265625 89.273438 285.125 90.703125 C 292.28125 94.28125 299.4375 95.339844 306.960938 99.101562 C 314.839844 103.039062 324.101562 105.246094 328.378906 113.796875 L 333.417969 118 C 336.5 124.164062 341.039062 129.042969 344.335938 135.632812 C 347.171875 141.308594 349.039062 147.5625 351.894531 153.273438 C 353.652344 156.789062 348.824219 171.488281 350.214844 174.265625 C 353.402344 180.644531 353.75 194.914062 350.214844 201.984375 L 351.054688 206.179688 L 349.375 211.21875 L 346.855469 211.21875 L 348.535156 212.898438 L 346.015625 217.101562 L 346.015625 220.460938 C 343.03125 226.425781 337.535156 229.859375 335.9375 233.054688 C 334.84375 235.242188 333.214844 245.125 331.320312 246.074219 L 327.117188 245.234375 C 325.945312 245.820312 325.09375 250.027344 322.921875 251.113281 C 320.898438 252.125 318.316406 252.574219 316.203125 253.632812 L 308.640625 261.191406 C 306.582031 262.222656 303.863281 261.898438 301.921875 262.871094 C 295.703125 265.980469 294.925781 272.109375 287.226562 272.109375 C 287.226562 269.085938 287.863281 252.808594 286.386719 249.851562 C 285.324219 247.730469 282.1875 248.316406 282.1875 245.234375 C 282.1875 240.316406 289.746094 237.472656 289.746094 232.636719 C 289.746094 232.636719 289.746094 231.796875 289.746094 231.796875 C 289.746094 231.796875 290.585938 230.957031 290.585938 230.957031 C 293.285156 230.957031 292.265625 229.875 292.265625 228.4375 C 292.265625 228.4375 292.265625 227.597656 292.265625 227.597656 C 292.265625 227.597656 293.105469 226.757812 293.105469 226.757812 C 299.84375 226.757812 300.667969 218.773438 303.183594 213.742188 C 303.183594 213.742188 308.222656 207.023438 308.222656 207.023438 C 308.222656 207.023438 310.742188 205.34375 310.742188 205.34375 C 310.742188 203.105469 312.757812 200.46875 314.101562 197.78125 C 314.101562 197.78125 314.101562 173.429688 314.101562 173.429688 C 311.273438 167.769531 308.488281 162.199219 305.703125 156.632812 C 305.703125 156.632812 302.34375 153.691406 302.34375 153.691406 C 304.433594 153.691406 303.957031 152.011719 302.34375 152.011719 C 299.488281 152.011719 291.792969 143.585938 288.484375 141.933594 C 281.449219 138.414062 273.703125 136.222656 266.648438 132.695312 C 263.21875 130.980469 254.742188 131.78125 251.53125 130.175781 C 248.492188 128.652344 233.476562 122.273438 233.476562 130.175781 C 227.550781 130.175781 211.960938 114.21875 202.820312 114.21875 C 197.144531 114.21875 176.480469 131.015625 173.847656 131.015625 C 173.847656 128.367188 168.976562 127.363281 166.710938 128.496094 C 158.4375 132.632812 148.070312 131.9375 139.835938 136.054688 C 133.207031 139.367188 124.429688 141.65625 117.15625 145.292969 C 111.710938 148.015625 108.878906 155.550781 106.660156 159.992188 C 106.660156 159.992188 99.101562 172.585938 99.101562 172.585938 C 96.136719 178.519531 96.929688 199.320312 99.941406 205.34375 C 99.941406 205.34375 103.300781 209.539062 103.300781 209.539062 C 105.640625 214.21875 113.605469 232.636719 120.097656 232.636719 C 120.097656 232.636719 123.875 237.675781 123.875 237.675781 C 123.875 237.675781 129.335938 242.714844 129.335938 242.714844 C 122.328125 242.714844 130.695312 248.8125 128.496094 253.210938 C 127.144531 255.914062 126.503906 258.875 125.136719 261.609375 C 125.136719 261.609375 121.777344 264.96875 121.777344 264.96875 C 121.777344 265.808594 125.613281 266.539062 124.296875 269.171875 C 123.917969 269.925781 114.21875 263.328125 114.21875 268.75 Z M 114.21875 268.75 "/>
<path style=" stroke:none;fill-rule:nonzero;fill:rgb(11.372549%,40.784314%,92.156863%);fill-opacity:1;" d="M 212.480469 153.691406 C 209.109375 153.691406 207.949219 148.652344 206.179688 148.652344 C 204.269531 148.652344 201.996094 154.53125 199.882812 154.53125 C 190.558594 154.53125 173.847656 140.355469 173.847656 131.015625 C 176.480469 131.015625 197.144531 114.21875 202.820312 114.21875 C 211.960938 114.21875 227.550781 130.175781 233.476562 130.175781 C 233.476562 131.878906 232.476562 131.753906 231.796875 133.117188 C 230.734375 135.242188 231.195312 138.519531 230.117188 140.671875 C 227.074219 146.757812 218.734375 153.691406 212.480469 153.691406 Z M 212.480469 153.691406 "/>
<path style=" stroke:none;fill-rule:nonzero;fill:rgb(100%,43.137255%,0%);fill-opacity:1;" d="M 120.097656 230.957031 L 120.097656 232.636719 C 113.605469 232.636719 105.640625 214.21875 103.300781 209.539062 C 103.300781 209.539062 99.941406 205.34375 99.941406 205.34375 C 96.929688 199.320312 96.136719 178.519531 99.101562 172.585938 C 99.101562 172.585938 106.660156 159.992188 106.660156 159.992188 C 108.878906 155.550781 111.710938 148.015625 117.15625 145.292969 C 124.429688 141.65625 133.207031 139.367188 139.835938 136.054688 C 148.070312 131.9375 158.4375 132.632812 166.710938 128.496094 C 168.976562 127.363281 173.847656 128.367188 173.847656 131.015625 C 173.847656 140.355469 190.558594 154.53125 199.882812 154.53125 C 199.882812 156.960938 207.488281 155.558594 209.539062 154.53125 C 210.417969 154.09375 212.480469 155.328125 212.480469 153.691406 C 218.734375 153.691406 227.074219 146.757812 230.117188 140.671875 C 231.195312 138.519531 230.734375 135.242188 231.796875 133.117188 C 232.476562 131.753906 233.476562 131.878906 233.476562 130.175781 C 233.476562 122.273438 248.492188 128.652344 251.53125 130.175781 C 254.742188 131.78125 263.21875 130.980469 266.648438 132.695312 C 273.703125 136.222656 281.449219 138.414062 288.484375 141.933594 C 291.792969 143.585938 299.488281 152.011719 302.34375 152.011719 C 302.34375 152.011719 302.34375 153.691406 302.34375 153.691406 C 302.34375 153.691406 305.703125 156.632812 305.703125 156.632812 C 308.488281 162.199219 311.273438 167.769531 314.101562 173.429688 C 314.101562 173.429688 314.101562 197.78125 314.101562 197.78125 C 312.757812 200.46875 310.742188 203.105469 310.742188 205.34375 C 310.742188 205.34375 308.222656 207.023438 308.222656 207.023438 C 308.222656 207.023438 303.183594 213.742188 303.183594 213.742188 C 300.667969 218.773438 299.84375 226.757812 293.105469 226.757812 C 289.519531 226.757812 292.382812 222.742188 293.105469 221.296875 C 293.105469 221.296875 298.984375 215.421875 298.984375 215.421875 C 298.984375 215.421875 301.503906 207.859375 301.503906 207.859375 C 301.503906 207.859375 306.542969 201.984375 306.542969 201.984375 C 309.871094 195.324219 309.902344 186.445312 309.902344 179.304688 C 309.902344 177.996094 304.835938 170.855469 304.023438 169.226562 C 302.238281 165.65625 301.515625 157.050781 295.625 157.050781 C 295.625 157.050781 294.785156 156.210938 294.785156 156.210938 C 294.785156 153.578125 290.339844 148.652344 287.648438 148.652344 C 287.648438 148.652344 285.125 149.492188 285.125 149.492188 C 285.125 149.492188 283.445312 146.972656 283.445312 146.972656 C 277.027344 143.761719 256.394531 139.503906 249.851562 142.773438 C 249.851562 142.773438 243.976562 146.972656 243.976562 146.972656 C 243.976562 146.972656 240.617188 146.972656 240.617188 146.972656 C 240.527344 147.015625 239.292969 151.171875 236.835938 151.171875 C 236.835938 151.171875 234.316406 153.691406 234.316406 153.691406 C 234.316406 153.691406 232.636719 155.371094 232.636719 155.371094 C 232.636719 155.371094 231.796875 157.890625 231.796875 157.890625 C 230.597656 157.890625 228.4375 158.972656 228.4375 160.410156 C 228.4375 160.410156 226.757812 161.25 226.757812 161.25 C 226.757812 161.25 225.078125 162.089844 225.078125 162.089844 C 225.078125 163.132812 223.398438 163.414062 223.398438 165.449219 C 217.117188 165.449219 208.261719 176.566406 202.820312 173.847656 C 202.820312 173.847656 191.90625 168.808594 191.90625 168.808594 C 191.90625 168.808594 187.285156 164.609375 187.285156 164.609375 C 187.285156 164.609375 184.765625 162.929688 184.765625 162.929688 C 184.765625 161.605469 183.285156 161.25 182.246094 161.25 C 182.246094 161.25 181.40625 159.570312 181.40625 159.570312 C 181.40625 159.570312 179.726562 158.730469 179.726562 158.730469 C 179.726562 157.109375 178.75 158.730469 178.046875 158.730469 C 178.046875 155.773438 172.167969 155.054688 172.167969 152.011719 C 172.167969 152.011719 172.167969 151.171875 172.167969 151.171875 C 172.167969 149.417969 164.902344 147.75 163.351562 146.972656 C 163.351562 146.972656 161.671875 144.453125 161.671875 144.453125 C 158.636719 142.9375 139.429688 143.394531 137.3125 144.453125 C 137.3125 144.453125 131.015625 146.972656 131.015625 146.972656 C 131.015625 146.972656 130.175781 147.8125 130.175781 147.8125 C 125.796875 147.8125 110.019531 159.03125 110.019531 162.929688 C 110.019531 162.929688 108.339844 164.609375 108.339844 164.609375 C 108.339844 164.609375 106.660156 169.648438 106.660156 169.648438 C 106.660156 169.648438 106.660156 171.328125 106.660156 171.328125 C 106.660156 171.328125 104.140625 174.265625 104.140625 174.265625 C 104.140625 177.316406 104.117188 181.035156 102.460938 184.34375 C 101.332031 186.601562 105.820312 195.976562 105.820312 198.203125 C 103.585938 198.203125 105.820312 201.839844 105.820312 202.402344 C 105.820312 210.59375 110.628906 209.082031 112.539062 212.898438 C 113.832031 215.488281 113.699219 219.101562 115.898438 221.296875 C 116.863281 222.265625 118.921875 227.597656 119.257812 227.597656 C 119.257812 227.597656 120.097656 230.957031 120.097656 230.957031 Z M 120.097656 230.957031 "/>
<path style=" stroke:none;fill-rule:evenodd;fill:rgb(50.588238%,30.980393%,100%);fill-opacity:1;" d="M 238.515625 224.238281 C 238.515625 225.535156 234.625 226.113281 235.996094 228.859375 C 237.089844 231.042969 248.324219 243.671875 251.113281 238.09375 C 253.746094 232.832031 243.589844 224.238281 238.515625 224.238281 M 273.789062 246.914062 C 272.792969 246.914062 272.792969 247.753906 273.789062 247.753906 C 273.789062 247.753906 274.628906 249.015625 274.628906 249.015625 C 274.628906 251.636719 270.15625 250.402344 269.589844 251.53125 C 267.835938 255.042969 266.574219 260.390625 261.609375 262.871094 C 261.609375 262.871094 258.25 261.191406 258.25 261.191406 C 257.097656 261.769531 253.84375 268.226562 251.53125 267.070312 C 251.53125 267.070312 248.171875 260.351562 248.171875 260.351562 C 246.570312 259.546875 242.308594 262.480469 241.035156 259.929688 C 241.035156 259.929688 241.035156 256.570312 241.035156 256.570312 C 239.667969 253.839844 236.832031 252.160156 234.734375 251.113281 C 232.960938 250.226562 234.617188 248.953125 233.898438 248.59375 C 232.535156 247.914062 231.375 249.433594 230.539062 249.433594 C 229.96875 249.433594 228.4375 246.675781 228.4375 244.8125 C 228.4375 244.8125 225.078125 243.132812 225.078125 243.132812 C 225.078125 243.132812 225.917969 241.453125 225.917969 241.453125 C 225.917969 241.453125 220.878906 239.773438 220.878906 239.773438 C 220.878906 239.773438 223.398438 238.09375 223.398438 238.09375 C 224.71875 235.457031 220.039062 234.023438 220.039062 232.21875 C 220.039062 231.335938 220.039062 228.898438 220.039062 228.015625 C 220.039062 228.015625 223.398438 226.335938 223.398438 226.335938 C 223.398438 226.335938 220.878906 223.820312 220.878906 223.820312 C 220.011719 222.085938 223.398438 217.894531 223.398438 215.839844 C 223.398438 215.839844 224.238281 215 224.238281 215 C 224.238281 215 227.597656 213.320312 227.597656 213.320312 C 227.597656 213.320312 229.277344 213.320312 229.277344 213.320312 C 229.277344 213.320312 231.796875 223.820312 231.796875 223.820312 C 232.148438 224.523438 233.71875 225.851562 234.316406 224.65625 C 235.261719 222.765625 232.664062 215.472656 231.796875 213.742188 C 228.773438 207.695312 230.957031 195.191406 230.957031 188.125 C 230.957031 188.125 230.117188 187.285156 230.117188 187.285156 C 230.117188 180.320312 228.4375 174.867188 228.4375 167.96875 C 229.613281 167.96875 229.613281 166.289062 228.4375 166.289062 C 228.4375 166.289062 230.117188 160.410156 230.117188 160.410156 C 230.117188 160.410156 231.796875 157.890625 231.796875 157.890625 C 231.796875 157.890625 232.636719 155.371094 232.636719 155.371094 C 234.105469 155.371094 234.316406 155.160156 234.316406 153.691406 C 236.03125 153.691406 236.835938 152.886719 236.835938 151.171875 C 239.292969 151.171875 240.527344 147.015625 240.617188 146.972656 C 240.617188 146.972656 243.976562 146.972656 243.976562 146.972656 C 243.976562 146.972656 249.851562 142.773438 249.851562 142.773438 C 256.394531 139.503906 277.027344 143.761719 283.445312 146.972656 C 283.445312 146.972656 285.125 149.492188 285.125 149.492188 C 285.125 149.492188 287.648438 148.652344 287.648438 148.652344 C 290.339844 148.652344 294.785156 153.578125 294.785156 156.210938 C 294.785156 156.210938 295.625 157.050781 295.625 157.050781 C 301.515625 157.050781 302.238281 165.65625 304.023438 169.226562 C 304.835938 170.855469 309.902344 177.996094 309.902344 179.304688 C 309.902344 186.445312 309.871094 195.324219 306.542969 201.984375 C 306.542969 201.984375 301.503906 207.859375 301.503906 207.859375 C 301.503906 207.859375 298.984375 215.421875 298.984375 215.421875 C 298.984375 215.421875 293.105469 221.296875 293.105469 221.296875 C 292.382812 222.742188 289.519531 226.757812 293.105469 226.757812 C 293.105469 226.757812 292.265625 227.597656 292.265625 227.597656 C 291.269531 227.597656 291.269531 228.4375 292.265625 228.4375 C 292.265625 229.875 293.285156 230.957031 290.585938 230.957031 C 289.699219 230.957031 288.042969 231.796875 289.746094 231.796875 C 289.746094 231.796875 289.746094 232.636719 289.746094 232.636719 C 281.0625 232.636719 283.878906 241.875 280.507812 241.875 C 280.507812 241.875 279.667969 241.875 279.667969 241.875 C 279.667969 241.875 278.828125 242.714844 278.828125 242.714844 C 278.828125 242.714844 276.308594 245.65625 276.308594 245.65625 C 276.308594 245.65625 273.789062 246.914062 273.789062 246.914062 Z M 273.789062 246.914062 "/>
<path style=" stroke:none;fill-rule:evenodd;fill:rgb(50.588238%,30.980393%,100%);fill-opacity:1;" d="M 169.648438 224.238281 L 165.867188 226.757812 C 164.484375 228.140625 160.410156 232.71875 160.410156 235.15625 L 160.828125 239.355469 C 167.691406 242.785156 181.960938 224.238281 169.648438 224.238281 M 135.214844 246.914062 C 136.269531 246.914062 138.746094 248.59375 136.894531 248.59375 C 136.894531 253.175781 155.792969 260.777344 157.890625 264.96875 C 157.890625 264.96875 157.890625 266.648438 157.890625 266.648438 C 161.007812 272.882812 160.191406 262.132812 163.351562 263.710938 C 164.402344 264.238281 164.539062 269.835938 166.710938 268.75 C 168.898438 267.65625 166.894531 264.457031 168.390625 263.710938 C 168.390625 263.710938 171.75 263.710938 171.75 263.710938 C 171.75 263.710938 175.109375 260.351562 175.109375 260.351562 C 176.996094 259.40625 178.609375 265.523438 180.566406 261.609375 C 182.109375 258.527344 176.679688 252.585938 178.046875 249.851562 C 178.046875 249.851562 180.984375 249.433594 180.984375 249.433594 C 183.054688 248.398438 180.566406 245.972656 180.566406 244.8125 C 180.566406 244.8125 184.34375 244.394531 184.34375 244.394531 C 184.34375 244.394531 186.445312 240.195312 186.445312 240.195312 C 186.445312 240.195312 186.445312 239.355469 186.445312 239.355469 C 186.445312 236.425781 187.773438 235.4375 188.964844 233.054688 C 189.160156 232.664062 189.804688 228.15625 189.804688 228.015625 C 189.804688 228.015625 187.285156 226.335938 187.285156 226.335938 C 187.285156 226.335938 188.964844 225.5 188.964844 225.5 C 189.222656 224.984375 188.964844 221.648438 188.964844 221.296875 C 188.964844 221.296875 186.445312 219.617188 186.445312 219.617188 C 186.445312 217.007812 184.808594 215 185.605469 215 C 185.605469 213.675781 184.125 213.320312 183.085938 213.320312 C 183.085938 213.320312 182.246094 212.480469 182.246094 212.480469 C 182.246094 212.480469 180.566406 210.800781 180.566406 210.800781 C 180.566406 210.800781 178.046875 224.65625 178.046875 224.65625 C 177.695312 225.363281 176.125 226.691406 175.527344 225.5 C 174.972656 224.390625 176.648438 219.058594 177.207031 217.9375 C 177.207031 217.9375 178.886719 196.523438 178.886719 196.523438 C 177.53125 196.523438 177.53125 189.804688 178.886719 189.804688 C 179.75 189.804688 180.566406 178.675781 180.566406 177.207031 C 179.390625 177.207031 179.390625 175.527344 180.566406 175.527344 C 180.566406 175.527344 180.566406 173.007812 180.566406 173.007812 C 180.566406 172.128906 180.167969 170.488281 181.40625 170.488281 C 181.40625 167.539062 180.566406 164.589844 180.566406 162.089844 C 180.566406 162.089844 179.726562 161.25 179.726562 161.25 C 179.726562 161.25 179.726562 160.410156 179.726562 160.410156 C 179.726562 160.410156 178.886719 159.570312 178.886719 159.570312 C 178.886719 159.570312 178.046875 158.730469 178.046875 158.730469 C 178.046875 155.773438 172.167969 155.054688 172.167969 152.011719 C 171.171875 152.011719 171.171875 151.171875 172.167969 151.171875 C 172.167969 149.417969 164.902344 147.75 163.351562 146.972656 C 163.351562 146.972656 161.671875 144.453125 161.671875 144.453125 C 158.636719 142.9375 139.429688 143.394531 137.3125 144.453125 C 137.3125 144.453125 131.015625 146.972656 131.015625 146.972656 C 131.015625 146.972656 130.175781 147.8125 130.175781 147.8125 C 125.796875 147.8125 110.019531 159.03125 110.019531 162.929688 C 111.871094 162.929688 109.394531 164.609375 108.339844 164.609375 C 108.339844 164.609375 106.660156 169.648438 106.660156 169.648438 C 107.835938 169.648438 107.835938 171.328125 106.660156 171.328125 C 106.660156 171.328125 104.140625 174.265625 104.140625 174.265625 C 104.140625 177.316406 104.117188 181.035156 102.460938 184.34375 C 101.332031 186.601562 105.820312 195.976562 105.820312 198.203125 C 107.136719 198.203125 107.136719 202.402344 105.820312 202.402344 C 105.820312 210.59375 110.628906 209.082031 112.539062 212.898438 C 113.832031 215.488281 113.699219 219.101562 115.898438 221.296875 C 116.863281 222.265625 118.921875 227.597656 119.257812 227.597656 C 120.789062 227.597656 121.875 230.957031 120.097656 230.957031 C 120.097656 230.957031 120.097656 232.636719 120.097656 232.636719 C 120.097656 232.636719 123.875 237.675781 123.875 237.675781 C 123.875 237.675781 129.335938 242.714844 129.335938 242.714844 C 129.335938 242.714844 130.175781 242.714844 130.175781 242.714844 C 130.175781 242.714844 131.015625 243.554688 131.015625 243.554688 C 131.015625 243.554688 131.855469 243.554688 131.855469 243.554688 C 133.070312 243.554688 136.351562 245.234375 134.375 245.234375 C 134.375 245.234375 135.214844 246.914062 135.214844 246.914062 Z M 135.214844 246.914062 "/>
<path style=" stroke:none;fill-rule:nonzero;fill:rgb(0.784314%,17.254902%,100%);fill-opacity:1;" d="M 179.726562 158.730469 L 178.886719 159.570312 C 178.886719 159.570312 178.046875 158.730469 178.046875 158.730469 C 178.75 158.730469 179.726562 157.109375 179.726562 158.730469 Z M 179.726562 158.730469 "/>
<path style=" stroke:none;fill-rule:nonzero;fill:rgb(0.784314%,17.254902%,100%);fill-opacity:1;" d="M 180.566406 207.441406 L 180.566406 210.800781 C 180.566406 210.800781 178.046875 224.65625 178.046875 224.65625 C 177.695312 225.363281 176.125 226.691406 175.527344 225.5 C 174.972656 224.390625 176.648438 219.058594 177.207031 217.9375 C 177.207031 217.9375 178.886719 196.523438 178.886719 196.523438 C 178.886719 196.523438 178.886719 189.804688 178.886719 189.804688 C 179.75 189.804688 180.566406 178.675781 180.566406 177.207031 C 180.566406 177.207031 180.566406 175.527344 180.566406 175.527344 C 180.566406 175.527344 180.566406 173.007812 180.566406 173.007812 C 181.804688 173.007812 181.40625 171.367188 181.40625 170.488281 C 181.40625 167.539062 180.566406 164.589844 180.566406 162.089844 C 180.566406 162.089844 179.726562 161.25 179.726562 161.25 C 179.726562 161.25 179.726562 160.410156 179.726562 160.410156 C 179.726562 160.410156 181.40625 159.570312 181.40625 159.570312 C 181.40625 159.570312 182.246094 161.25 182.246094 161.25 C 182.246094 163.339844 184.765625 165.964844 184.765625 162.929688 C 184.765625 162.929688 187.285156 164.609375 187.285156 164.609375 C 187.285156 167.691406 184.765625 168.75 184.765625 171.328125 C 183.441406 171.328125 183.085938 172.808594 183.085938 173.847656 C 183.085938 173.847656 182.246094 186.445312 182.246094 186.445312 C 182.246094 186.445312 181.40625 188.125 181.40625 188.125 C 181.40625 193.164062 180.566406 198.601562 180.566406 204.082031 C 180.566406 204.082031 180.566406 207.441406 180.566406 207.441406 Z M 180.566406 207.441406 "/>
<path style=" stroke:none;fill-rule:nonzero;fill:rgb(0.784314%,17.254902%,100%);fill-opacity:1;" d="M 229.277344 208.28125 L 229.277344 213.320312 C 229.277344 213.320312 231.796875 223.820312 231.796875 223.820312 C 232.148438 224.523438 233.71875 225.851562 234.316406 224.65625 C 235.261719 222.765625 232.664062 215.472656 231.796875 213.742188 C 228.773438 207.695312 230.957031 195.191406 230.957031 188.125 C 230.957031 188.125 230.117188 187.285156 230.117188 187.285156 C 230.117188 180.320312 228.4375 174.867188 228.4375 167.96875 C 228.4375 167.96875 228.4375 166.289062 228.4375 166.289062 C 228.4375 166.289062 230.117188 160.410156 230.117188 160.410156 C 230.117188 160.410156 228.4375 160.410156 228.4375 160.410156 C 228.4375 160.410156 226.757812 161.25 226.757812 161.25 C 226.757812 161.25 225.078125 162.089844 225.078125 162.089844 C 225.078125 163.132812 223.398438 163.414062 223.398438 165.449219 C 226.183594 165.449219 225.058594 173.390625 225.917969 175.109375 C 229.960938 183.195312 229.277344 198.320312 229.277344 208.28125 Z M 229.277344 208.28125 "/>
<path style=" stroke:none;fill-rule:evenodd;fill:rgb(100%,3.137255%,0%);fill-opacity:1;" d="M 204.082031 194.84375 L 204.082031 197.78125 C 204.082031 206.605469 208.078125 194.84375 204.082031 194.84375 M 204.082031 184.765625 C 204.082031 192.378906 207.109375 184.765625 204.082031 184.765625 M 224.238281 215 L 223.398438 215.839844 C 219.152344 215.839844 216.386719 220.039062 214.578125 220.039062 C 210.433594 220.039062 205.152344 220.039062 199.460938 220.039062 C 199.460938 220.039062 198.625 218.359375 198.625 218.359375 C 194.675781 218.359375 189.667969 215 185.605469 215 C 185.605469 213.675781 184.125 213.320312 183.085938 213.320312 C 183.085938 213.320312 182.246094 212.480469 182.246094 212.480469 C 182.246094 212.480469 180.566406 210.800781 180.566406 210.800781 C 180.566406 210.800781 180.566406 207.441406 180.566406 207.441406 C 181.855469 207.441406 181.855469 204.082031 180.566406 204.082031 C 180.566406 198.601562 181.40625 193.164062 181.40625 188.125 C 181.40625 188.125 182.246094 186.445312 182.246094 186.445312 C 182.246094 186.445312 183.085938 173.847656 183.085938 173.847656 C 185.011719 173.847656 184.765625 173.011719 184.765625 171.328125 C 184.765625 168.75 187.285156 167.691406 187.285156 164.609375 C 187.285156 164.609375 191.90625 168.808594 191.90625 168.808594 C 191.90625 168.808594 202.820312 173.847656 202.820312 173.847656 C 208.261719 176.566406 217.117188 165.449219 223.398438 165.449219 C 226.183594 165.449219 225.058594 173.390625 225.917969 175.109375 C 229.960938 183.195312 229.277344 198.320312 229.277344 208.28125 C 227.609375 208.28125 227.597656 212.6875 227.597656 213.320312 C 227.597656 213.320312 224.238281 215 224.238281 215 Z M 224.238281 215 "/>
<path style=" stroke:none;fill-rule:nonzero;fill:rgb(88.235295%,94.117647%,5.098039%);fill-opacity:1;" d="M 114.21875 268.75 C 114.21875 270.050781 113.378906 271.730469 113.378906 272.53125 L 117.15625 274.628906 C 121.5 276.800781 125.460938 279.199219 129.757812 281.347656 L 131.015625 284.289062 L 136.476562 287.226562 L 143.195312 287.226562 C 150.28125 290.769531 167.929688 290.816406 175.109375 287.226562 C 176.789062 286.386719 178.132812 284.453125 179.304688 283.867188 L 183.925781 281.765625 L 183.085938 277.570312 C 186.644531 270.449219 197.242188 257.261719 204.5 253.632812 C 206.445312 252.660156 202.9375 250.636719 205.34375 249.433594 C 206.914062 248.648438 211.867188 257.023438 212.480469 258.25 C 215.140625 263.570312 222.371094 264.597656 225.078125 270.007812 C 226.691406 273.234375 231.527344 284.78125 234.734375 286.386719 C 237.484375 287.761719 255.902344 290.5 259.09375 288.90625 C 260.761719 288.074219 261.773438 284.625 264.96875 283.027344 C 266.878906 282.074219 269.4375 284.839844 270.851562 285.546875 C 272.996094 286.621094 287.984375 281.089844 288.90625 279.25 L 287.226562 272.109375 C 287.226562 269.085938 287.863281 252.808594 286.386719 249.851562 C 285.324219 247.730469 282.1875 248.316406 282.1875 245.234375 C 282.1875 245.234375 280.507812 241.875 280.507812 241.875 C 280.507812 241.875 279.667969 241.875 279.667969 241.875 C 279.667969 241.875 278.828125 242.714844 278.828125 242.714844 C 278.828125 242.714844 276.308594 245.65625 276.308594 245.65625 C 276.308594 245.65625 273.789062 246.914062 273.789062 246.914062 C 273.789062 246.914062 273.789062 247.753906 273.789062 247.753906 C 273.789062 247.753906 274.628906 249.015625 274.628906 249.015625 C 274.628906 251.636719 270.15625 250.402344 269.589844 251.53125 C 267.835938 255.042969 266.574219 260.390625 261.609375 262.871094 C 261.609375 262.871094 258.25 261.191406 258.25 261.191406 C 257.097656 261.769531 253.84375 268.226562 251.53125 267.070312 C 251.53125 267.070312 248.171875 260.351562 248.171875 260.351562 C 246.570312 259.546875 242.308594 262.480469 241.035156 259.929688 C 241.035156 259.929688 241.035156 256.570312 241.035156 256.570312 C 239.667969 253.839844 236.832031 252.160156 234.734375 251.113281 C 232.960938 250.226562 234.617188 248.953125 233.898438 248.59375 C 232.535156 247.914062 231.375 249.433594 230.539062 249.433594 C 229.96875 249.433594 228.4375 246.675781 228.4375 244.8125 C 228.4375 244.8125 225.078125 243.132812 225.078125 243.132812 C 225.078125 243.132812 225.917969 241.453125 225.917969 241.453125 C 225.917969 241.453125 220.878906 239.773438 220.878906 239.773438 C 220.878906 239.773438 223.398438 238.09375 223.398438 238.09375 C 224.71875 235.457031 220.039062 234.023438 220.039062 232.21875 C 220.039062 231.335938 220.039062 228.898438 220.039062 228.015625 C 220.039062 228.015625 223.398438 226.335938 223.398438 226.335938 C 223.398438 226.335938 220.878906 223.820312 220.878906 223.820312 C 220.011719 222.085938 223.398438 217.894531 223.398438 215.839844 C 219.152344 215.839844 216.386719 220.039062 214.578125 220.039062 C 210.433594 220.039062 205.152344 220.039062 199.460938 220.039062 C 199.460938 220.039062 198.625 218.359375 198.625 218.359375 C 194.675781 218.359375 189.667969 215 185.605469 215 C 184.808594 215 186.445312 217.007812 186.445312 219.617188 C 186.445312 219.617188 188.964844 221.296875 188.964844 221.296875 C 188.964844 221.648438 189.222656 224.984375 188.964844 225.5 C 188.964844 225.5 187.285156 226.335938 187.285156 226.335938 C 187.285156 226.335938 189.804688 228.015625 189.804688 228.015625 C 189.804688 228.15625 189.160156 232.664062 188.964844 233.054688 C 187.773438 235.4375 186.445312 236.425781 186.445312 239.355469 C 187.441406 239.355469 187.441406 240.195312 186.445312 240.195312 C 186.445312 240.195312 184.34375 244.394531 184.34375 244.394531 C 184.34375 244.394531 180.566406 244.8125 180.566406 244.8125 C 180.566406 245.972656 183.054688 248.398438 180.984375 249.433594 C 180.984375 249.433594 178.046875 249.851562 178.046875 249.851562 C 176.679688 252.585938 182.109375 258.527344 180.566406 261.609375 C 178.609375 265.523438 176.996094 259.40625 175.109375 260.351562 C 175.109375 260.351562 171.75 263.710938 171.75 263.710938 C 171.75 263.710938 168.390625 263.710938 168.390625 263.710938 C 166.894531 264.457031 168.898438 267.65625 166.710938 268.75 C 164.539062 269.835938 164.402344 264.238281 163.351562 263.710938 C 160.191406 262.132812 161.007812 272.882812 157.890625 266.648438 C 157.890625 266.648438 157.890625 264.96875 157.890625 264.96875 C 155.792969 260.777344 136.894531 253.175781 136.894531 248.59375 C 136.894531 248.59375 135.214844 246.914062 135.214844 246.914062 C 135.214844 246.914062 134.375 245.234375 134.375 245.234375 C 134.375 245.234375 131.855469 243.554688 131.855469 243.554688 C 131.855469 243.554688 131.015625 243.554688 131.015625 243.554688 C 131.015625 243.554688 130.175781 242.714844 130.175781 242.714844 C 130.175781 242.714844 129.335938 242.714844 129.335938 242.714844 C 122.328125 242.714844 130.695312 248.8125 128.496094 253.210938 C 127.144531 255.914062 126.503906 258.875 125.136719 261.609375 C 125.136719 261.609375 121.777344 264.96875 121.777344 264.96875 C 121.777344 265.808594 125.613281 266.539062 124.296875 269.171875 C 123.917969 269.925781 114.21875 263.328125 114.21875 268.75 Z M 114.21875 268.75 "/>
<path style=" stroke:none;fill-rule:nonzero;fill:rgb(88.235295%,94.117647%,5.098039%);fill-opacity:1;" d="M 224.238281 215 L 223.398438 215.839844 C 223.398438 215.839844 224.238281 215 224.238281 215 Z M 224.238281 215 "/>
<path style=" stroke:none;fill-rule:nonzero;fill:rgb(48.627451%,98.823529%,0%);fill-opacity:1;" d="M 169.648438 224.238281 L 165.867188 226.757812 C 164.484375 228.140625 160.410156 232.71875 160.410156 235.15625 L 160.828125 239.355469 C 167.691406 242.785156 181.960938 224.238281 169.648438 224.238281 Z M 169.648438 224.238281 "/>
<path style=" stroke:none;fill-rule:nonzero;fill:rgb(48.627451%,98.823529%,0%);fill-opacity:1;" d="M 238.515625 224.238281 C 238.515625 225.535156 234.625 226.113281 235.996094 228.859375 C 237.089844 231.042969 248.324219 243.671875 251.113281 238.09375 C 253.746094 232.832031 243.589844 224.238281 238.515625 224.238281 Z M 238.515625 224.238281 "/>
<path style=" stroke:none;fill-rule:nonzero;fill:rgb(14.901961%,49.411765%,100%);fill-opacity:1;" d="M 209.960938 268.75 C 209.960938 270.953125 205.28125 274.925781 206.601562 277.570312 L 209.539062 278.828125 L 213.742188 282.1875 C 215.09375 282.863281 222.894531 279.078125 221.71875 276.726562 C 219.472656 272.238281 220.511719 272.976562 215.421875 270.429688 C 213.136719 269.289062 212.925781 268.75 209.960938 268.75 Z M 209.960938 268.75 "/>
<path style=" stroke:none;fill-rule:nonzero;fill:rgb(14.901961%,49.411765%,100%);fill-opacity:1;" d="M 202.402344 269.589844 C 202.402344 269.902344 193.796875 273.261719 192.742188 273.789062 C 191.433594 274.445312 191.433594 281.53125 192.742188 282.1875 C 196.796875 284.214844 207.898438 281 205.761719 276.726562 L 204.082031 275.890625 C 203.328125 274.378906 205.472656 269.589844 202.402344 269.589844 Z M 202.402344 269.589844 "/>
<path style=" stroke:none;fill-rule:nonzero;fill:rgb(98.039216%,50.196081%,44.705883%);fill-opacity:1;" d="M 78.945312 271.269531 C 78.945312 274.019531 76.515625 274.386719 78.105469 277.570312 C 79.132812 279.621094 82.898438 278.828125 84.824219 278.828125 C 86.875 278.828125 89.121094 280.507812 90.28125 280.507812 C 92.347656 280.507812 95.933594 275.425781 94.902344 273.367188 L 91.125 272.109375 C 89.402344 271.25 88.1875 271.269531 86.085938 271.269531 Z M 78.945312 271.269531 "/>
<path style=" stroke:none;fill-rule:nonzero;fill:rgb(98.039216%,50.196081%,44.705883%);fill-opacity:1;" d="M 95.742188 277.148438 C 95.742188 281.527344 97.378906 280.507812 101.203125 280.507812 C 103.039062 280.507812 105.019531 286.996094 109.601562 284.707031 C 111.976562 283.519531 108.003906 276.6875 105.398438 277.988281 C 103.71875 278.828125 103.582031 279.667969 102.039062 279.667969 C 100.128906 279.667969 98.410156 277.148438 95.742188 277.148438 Z M 95.742188 277.148438 "/>
<path style=" stroke:none;fill-rule:evenodd;fill:rgb(98.039216%,50.196081%,44.705883%);fill-opacity:1;" d="M 253.632812 307.382812 C 253.632812 309.003906 255.253906 307.382812 253.632812 307.382812 M 250.273438 291.425781 C 250.273438 295.101562 244.300781 297.914062 242.714844 301.085938 L 242.296875 305.703125 C 239.6875 307.007812 237.460938 306.550781 235.996094 309.484375 C 235.089844 311.296875 236.835938 313.59375 236.835938 314.941406 C 236.835938 319.300781 233.171875 328.859375 238.9375 331.738281 C 242.054688 333.296875 242.269531 330.898438 244.8125 330.898438 C 246.074219 330.898438 247.285156 333.441406 249.015625 332.578125 C 250.0625 332.050781 247.5625 328.265625 250.695312 326.699219 C 253.347656 325.371094 254.273438 330.789062 255.734375 330.058594 C 258.167969 328.839844 252.78125 324.625 253.632812 322.921875 C 253.839844 322.507812 263.082031 320.820312 264.550781 317.882812 C 267.796875 311.390625 262.871094 307.414062 262.871094 306.125 L 265.390625 303.601562 C 269.101562 296.179688 261.582031 293.511719 257.414062 291.425781 C 255.644531 290.542969 255.167969 293.105469 254.054688 293.105469 C 253.109375 293.105469 251.90625 291.425781 250.273438 291.425781 Z M 250.273438 291.425781 "/>
<path style=" stroke:none;fill-rule:nonzero;fill:rgb(98.039216%,50.196081%,44.705883%);fill-opacity:1;" d="M 153.691406 293.105469 C 153.691406 297.28125 142.40625 302.875 145.292969 308.640625 C 146.203125 310.460938 152.398438 314.453125 152.851562 315.359375 C 153.402344 316.464844 151.054688 320.167969 152.011719 322.078125 C 152.898438 323.851562 155.710938 323.601562 156.210938 324.601562 C 160.84375 333.863281 173.632812 335.945312 178.886719 325.4375 C 180.449219 322.3125 175.097656 308.636719 172.585938 307.382812 C 170.1875 306.183594 167.507812 305.261719 165.03125 304.023438 L 162.929688 303.601562 C 162.929688 295.890625 163.808594 293.105469 153.691406 293.105469 Z M 153.691406 293.105469 "/>
<path style=" stroke:none;fill-rule:nonzero;fill:rgb(98.039216%,50.196081%,44.705883%);fill-opacity:1;" d="M 127.65625 310.742188 L 125.976562 315.359375 C 134.445312 332.296875 145.160156 310.742188 127.65625 310.742188 Z M 127.65625 310.742188 "/>
</g>
</svg>
