<?xml version="1.0" encoding="UTF-8"?>
<svg xmlns="http://www.w3.org/2000/svg" xmlns:xlink="http://www.w3.org/1999/xlink" width="430px" height="430px" viewBox="0 0 430 430" version="1.1">
<g id="surface1">
<rect x="0" y="0" width="430" height="430" style="fill:rgb(0%,0%,0%);fill-opacity:1;stroke:none;"/>
<path style=" stroke:none;fill-rule:evenodd;fill:rgb(52.549022%,100%,35.294119%);fill-opacity:1;" d="M 187.285156 232.636719 C 187.285156 234.105469 181.046875 233.476562 179.726562 233.476562 C 176.238281 233.476562 177.605469 234.746094 175.109375 235.996094 C 173.339844 236.878906 172.863281 234.316406 171.75 234.316406 L 168.390625 237.675781 L 166.710938 236.835938 L 163.769531 241.453125 C 163.746094 241.503906 161.292969 242.210938 160.410156 243.976562 L 157.050781 253.210938 C 156.175781 254.964844 158.664062 264 159.570312 265.8125 C 161.324219 269.316406 159.089844 275.761719 161.25 280.085938 L 164.609375 282.609375 C 165.628906 284.640625 166.882812 289.414062 169.226562 290.585938 L 173.847656 292.6875 C 174.453125 293.894531 174.589844 295.785156 175.945312 296.464844 C 177.332031 297.15625 192.550781 302.441406 196.101562 300.664062 C 197.25 300.089844 203.875 293.945312 205.34375 293.945312 C 205.351562 293.945312 209.351562 300.148438 210.382812 300.664062 C 220.101562 305.523438 242.714844 293.523438 242.714844 285.96875 L 247.753906 283.445312 C 248.855469 281.246094 249.980469 279 251.113281 276.726562 L 251.113281 270.007812 C 258.777344 254.679688 252.191406 242.203125 238.09375 235.15625 L 235.578125 235.996094 C 233.882812 235.148438 233.527344 231.980469 230.539062 233.476562 L 228.859375 235.15625 C 227.09375 235.15625 220.785156 232.472656 218.78125 233.476562 C 215.660156 235.035156 212.71875 236.925781 209.539062 238.515625 C 207.042969 239.765625 191.832031 232.636719 187.285156 232.636719 M 205.761719 265.390625 C 205.761719 267.371094 201.019531 265.75 200.304688 265.390625 L 201.5625 263.289062 L 199.042969 261.609375 L 201.984375 258.671875 C 206.453125 256.433594 217.433594 265.390625 205.761719 265.390625 Z M 205.761719 265.390625 "/>
<path style=" stroke:none;fill-rule:evenodd;fill:rgb(92.156863%,34.117648%,100%);fill-opacity:1;" d="M 205.761719 265.390625 C 205.761719 267.371094 201.019531 265.75 200.304688 265.390625 L 201.5625 263.289062 L 199.042969 261.609375 L 201.984375 258.671875 C 206.453125 256.433594 217.433594 265.390625 205.761719 265.390625 M 205.761719 265.390625 C 205.761719 259.976562 204.59375 265.390625 205.761719 265.390625 Z M 205.761719 265.390625 "/>
<path style=" stroke:none;fill-rule:nonzero;fill:rgb(15.294118%,95.686275%,99.215686%);fill-opacity:1;" d="M 205.761719 265.390625 C 205.761719 259.976562 204.59375 265.390625 205.761719 265.390625 Z M 205.761719 265.390625 "/>
</g>
</svg>
