<?xml version="1.0" encoding="UTF-8"?>
<svg xmlns="http://www.w3.org/2000/svg" xmlns:xlink="http://www.w3.org/1999/xlink" width="430px" height="430px" viewBox="0 0 430 430" version="1.1">
<g id="surface1">
<rect x="0" y="0" width="430" height="430" style="fill:rgb(0%,0%,0%);fill-opacity:1;stroke:none;"/>
<path style=" stroke:none;fill-rule:nonzero;fill:rgb(1.176471%,75.686276%,17.647059%);fill-opacity:1;" d="M 118.417969 288.90625 L 112.960938 293.945312 L 107.921875 293.105469 L 104.5625 296.464844 C 99.15625 299.167969 88.964844 299.164062 83.5625 296.464844 L 79.367188 297.304688 C 70.890625 293.066406 65.148438 279.367188 61.308594 271.6875 L 61.308594 264.132812 L 53.75 254.054688 C 52.054688 250.664062 52.609375 245.050781 51.230469 242.296875 C 50.632812 241.097656 48.699219 239.753906 47.871094 238.09375 C 46.519531 235.390625 51.351562 231.621094 49.550781 228.015625 L 44.511719 224.65625 L 41.152344 219.617188 C 40.339844 217.992188 42.117188 216.507812 41.152344 214.578125 L 36.953125 209.539062 C 36.859375 209.351562 40.675781 201.03125 39.472656 198.625 L 35.273438 194.421875 L 36.953125 191.90625 C 38.867188 188.074219 37.113281 180.664062 39.472656 175.945312 C 40.453125 173.988281 41.992188 146.835938 41.992188 145.710938 C 41.992188 142.914062 50.527344 130.320312 52.070312 127.234375 C 56.785156 117.808594 61.9375 105.714844 71.804688 100.78125 L 71.804688 99.101562 L 76.007812 96.582031 L 81.882812 89.863281 C 89.683594 85.964844 93.511719 83.632812 101.203125 79.785156 C 105.148438 77.8125 110.734375 78.378906 114.640625 76.425781 L 118 72.226562 L 139.835938 71.386719 C 153.324219 64.640625 181.953125 63.890625 195.265625 70.546875 C 196.394531 71.113281 197.410156 74.558594 199.460938 75.585938 C 200.464844 76.085938 205.886719 70.695312 207.859375 69.707031 C 211.136719 68.070312 226.726562 61.925781 230.539062 63.828125 C 239.441406 68.28125 256.824219 62.695312 265.8125 67.1875 L 270.851562 67.1875 L 270.851562 68.867188 C 275.003906 70.945312 281.769531 68.449219 285.96875 70.546875 C 288.5625 71.84375 291.878906 71.824219 294.367188 73.066406 L 296.882812 75.585938 C 299.488281 76.886719 303.5 75.953125 306.125 77.265625 C 310.472656 79.441406 314.480469 81.863281 318.71875 83.984375 L 323.757812 88.183594 L 327.960938 89.023438 L 328.796875 91.542969 L 331.320312 91.542969 C 332.917969 92.34375 333.011719 96.582031 333.835938 96.582031 C 338.304688 96.582031 350.300781 104.734375 352.734375 109.601562 C 355.953125 116.039062 360.734375 123.078125 363.652344 128.914062 L 363.652344 132.273438 L 367.011719 135.632812 C 368 137.609375 365.332031 137.46875 365.332031 138.992188 C 365.332031 143.070312 366.171875 147.296875 366.171875 150.75 L 371.210938 151.59375 C 372.1875 153.546875 367.957031 157.679688 369.53125 160.828125 C 373.753906 169.269531 374.007812 187.148438 369.53125 196.101562 C 369.265625 196.636719 373.53125 200.703125 372.050781 203.664062 C 371 205.761719 369.726562 207.472656 368.691406 209.539062 L 368.691406 215.421875 C 367.484375 217.832031 363.421875 218.398438 361.972656 221.296875 C 359.789062 225.664062 367.148438 230.265625 364.492188 235.578125 C 363.78125 237 360.292969 235.484375 360.292969 236.414062 C 360.292969 241.796875 357.871094 250.496094 355.253906 255.734375 L 347.695312 262.453125 C 342.058594 273.722656 342.660156 290.375 328.796875 297.304688 C 324.207031 299.601562 313.734375 296.910156 309.484375 294.785156 L 304.863281 290.585938 C 304.863281 290.585938 310.742188 280.929688 310.742188 280.929688 C 314.816406 272.78125 316.765625 263.835938 320.820312 255.734375 C 325.296875 246.777344 315.15625 245.246094 313.261719 241.453125 C 311.007812 236.949219 317.460938 231.15625 317.460938 226.757812 C 317.460938 226.757812 318.300781 225.917969 318.300781 225.917969 C 318.300781 225.917969 319.140625 225.078125 319.140625 225.078125 C 319.140625 225.078125 320.820312 224.238281 320.820312 224.238281 C 320.820312 224.238281 321.660156 224.238281 321.660156 224.238281 C 322.699219 224.238281 324.179688 223.882812 324.179688 222.558594 C 328.597656 222.558594 330.898438 215.996094 330.898438 212.480469 C 330.898438 211.652344 331.8125 207.441406 332.578125 207.441406 C 332.578125 213.632812 334.726562 204.921875 332.578125 204.921875 C 332.578125 204.921875 333.417969 200.722656 333.417969 200.722656 C 334.882812 200.722656 334.257812 194.871094 334.257812 193.585938 C 334.257812 185.925781 334.027344 181.363281 330.898438 175.109375 C 330.898438 175.109375 330.898438 171.75 330.898438 171.75 C 330.011719 169.972656 330.902344 167.554688 330.058594 165.867188 C 329.699219 165.148438 328.425781 166.804688 327.539062 165.03125 C 325.90625 161.761719 326.484375 156.203125 325.019531 153.273438 C 324.160156 151.554688 322.667969 151.929688 322.5 151.59375 C 322.5 151.59375 323.339844 149.914062 323.339844 149.914062 C 323.339844 149.34375 319.703125 145.996094 319.140625 144.875 C 315.914062 138.421875 313.238281 131.214844 306.125 127.65625 C 302.816406 126.003906 301.800781 121.296875 299.40625 120.097656 C 292.554688 116.671875 286.890625 111.320312 279.25 107.5 C 272.542969 104.148438 264.152344 104.152344 257.414062 100.78125 C 255.277344 99.714844 252.082031 101.054688 249.851562 99.941406 C 247.574219 98.800781 239.351562 101.410156 236.414062 99.941406 C 232.902344 98.183594 227.886719 97.421875 224.65625 97.421875 C 224.65625 97.421875 222.140625 101.621094 222.140625 101.621094 C 220.484375 103.273438 221.777344 105.28125 220.878906 107.078125 C 219.265625 110.308594 216.597656 113.125 215 116.320312 C 212.066406 122.183594 198.210938 120.097656 193.164062 120.097656 C 193.164062 120.097656 191.484375 118.417969 191.484375 118.417969 C 188.257812 118.417969 178.175781 97.421875 177.625 97.421875 C 177.625 97.421875 175.945312 99.941406 175.945312 99.941406 C 174.109375 100.859375 171.082031 99.433594 170.070312 99.941406 C 170.070312 99.941406 168.390625 101.621094 168.390625 101.621094 C 167.269531 101.621094 166.148438 99.941406 165.03125 99.941406 C 165.03125 99.941406 163.351562 102.460938 163.351562 102.460938 C 151.5 102.460938 139.007812 106.652344 128.914062 111.699219 C 123.15625 114.578125 116.285156 114.707031 113.378906 120.515625 C 111.785156 123.707031 105.574219 125.207031 103.300781 129.757812 C 103.117188 130.121094 97.980469 134.515625 97.421875 135.632812 C 94.613281 141.253906 89.863281 147.621094 89.863281 153.273438 C 89.863281 153.273438 84.824219 158.3125 84.824219 158.3125 C 84.824219 159.425781 85.398438 162.929688 84.40625 162.929688 C 84.40625 162.929688 83.144531 162.507812 83.144531 162.507812 C 81.289062 166.21875 82.277344 170.125 80.625 173.429688 C 80.625 173.429688 80.203125 178.886719 80.203125 178.886719 C 80.203125 178.886719 79.367188 176.367188 79.367188 176.367188 C 79.367188 176.367188 78.945312 180.148438 78.945312 180.148438 C 77.058594 183.921875 77.265625 187.738281 77.265625 192.324219 C 74.988281 192.324219 76 195.683594 77.265625 195.683594 C 77.265625 195.683594 77.265625 200.722656 77.265625 200.722656 C 77.265625 208.855469 78.109375 216.269531 81.464844 222.976562 C 81.464844 222.976562 84.824219 224.65625 84.824219 224.65625 C 85.421875 225.855469 86.515625 227.597656 88.183594 227.597656 C 88.183594 227.597656 94.0625 232.21875 94.0625 232.21875 C 94.515625 233.121094 96.023438 239.355469 96.582031 239.355469 C 96.582031 239.355469 96.582031 240.195312 96.582031 240.195312 C 96.582031 240.195312 96.582031 241.875 96.582031 241.875 C 96.582031 243.605469 94.902344 245.414062 94.902344 245.65625 C 94.902344 245.65625 96.582031 248.171875 96.582031 248.171875 C 97.4375 249.886719 97.375 252.277344 98.261719 254.054688 C 98.261719 254.054688 104.140625 259.09375 104.140625 259.09375 C 107.527344 265.863281 111.699219 272.925781 111.699219 280.085938 C 111.699219 280.085938 114.640625 282.1875 114.640625 282.1875 C 116.402344 283.949219 118.417969 286.445312 118.417969 288.90625 Z M 118.417969 288.90625 "/>
<path style=" stroke:none;fill-rule:evenodd;fill:rgb(100%,43.137255%,0%);fill-opacity:1;" d="M 293.105469 125.976562 C 293.105469 129.78125 297.6875 125.976562 293.105469 125.976562 M 290.585938 122.617188 C 290.585938 124.238281 292.207031 122.617188 290.585938 122.617188 M 287.226562 120.9375 C 287.226562 122.558594 288.847656 120.9375 287.226562 120.9375 M 77.265625 195.683594 L 77.265625 200.722656 C 79.023438 200.722656 77.941406 193.070312 78.945312 191.0625 C 83.007812 182.941406 85.636719 173.480469 89.023438 166.710938 C 89.023438 166.710938 93.222656 159.570312 93.222656 159.570312 C 93.222656 157.882812 104.652344 141.933594 106.660156 141.933594 C 106.660156 141.933594 107.5 140.253906 107.5 140.253906 C 108.898438 140.253906 111.367188 130.175781 116.738281 130.175781 C 116.738281 130.175781 118.417969 126.816406 118.417969 126.816406 C 118.417969 126.816406 120.097656 125.136719 120.097656 125.136719 C 121.085938 125.136719 125.136719 122.976562 125.136719 121.777344 C 119.230469 121.777344 132.695312 112.863281 132.695312 116.738281 C 135.597656 116.738281 137.445312 114.574219 139.835938 113.378906 C 145.601562 110.496094 163.164062 107.828125 169.226562 110.859375 C 175.761719 114.125 188.601562 129.335938 194.003906 129.335938 C 195.042969 129.335938 198.203125 128.796875 198.203125 130.175781 C 198.203125 130.175781 201.5625 130.175781 201.5625 130.175781 C 201.5625 128.851562 203.960938 129.335938 204.921875 129.335938 C 207.890625 129.335938 212.40625 126.816406 215 126.816406 C 215 126.816406 215.839844 125.976562 215.839844 125.976562 C 215.839844 124.507812 216.050781 124.296875 217.519531 124.296875 C 217.519531 124.296875 224.238281 119.679688 224.238281 119.679688 C 224.238281 119.679688 225.917969 116.738281 225.917969 116.738281 C 225.917969 116.738281 226.757812 115.898438 226.757812 115.898438 C 226.757812 115.898438 227.597656 115.058594 227.597656 115.058594 C 227.597656 115.058594 228.4375 114.21875 228.4375 114.21875 C 228.4375 114.21875 230.117188 112.539062 230.117188 112.539062 C 230.117188 112.539062 230.957031 111.699219 230.957031 111.699219 C 232.941406 111.699219 233.519531 109.179688 235.15625 109.179688 C 235.15625 109.179688 236.835938 108.339844 236.835938 108.339844 C 236.835938 108.339844 237.675781 108.339844 237.675781 108.339844 C 237.675781 108.339844 239.355469 107.5 239.355469 107.5 C 239.355469 107.5 245.234375 107.5 245.234375 107.5 C 245.234375 106.15625 251.113281 106.15625 251.113281 107.5 C 257.050781 107.5 260.164062 110.019531 264.550781 110.019531 C 265.429688 110.019531 267.070312 109.621094 267.070312 110.859375 C 267.070312 110.859375 277.148438 115.898438 277.148438 115.898438 C 277.148438 113.761719 271.355469 113.625 272.109375 112.117188 C 273.296875 109.742188 284.527344 115.898438 277.988281 115.898438 C 277.988281 116.90625 284.574219 120.9375 285.546875 120.9375 C 285.546875 120.9375 286.386719 121.777344 286.386719 121.777344 C 286.386719 121.777344 293.945312 129.335938 293.945312 129.335938 C 300.640625 129.335938 302.585938 141.09375 305.703125 141.09375 C 307.027344 141.09375 307.382812 142.574219 307.382812 143.613281 C 307.382812 143.613281 309.0625 145.292969 309.0625 145.292969 C 309.0625 145.292969 309.902344 147.8125 309.902344 147.8125 C 309.902344 147.8125 314.941406 152.851562 314.941406 152.851562 C 314.941406 152.851562 318.300781 157.890625 318.300781 157.890625 C 318.300781 160.183594 321.078125 158.824219 321.660156 159.992188 C 321.660156 159.992188 321.660156 163.351562 321.660156 163.351562 C 321.828125 163.6875 323.320312 163.3125 324.179688 165.03125 C 324.179688 165.03125 324.179688 169.226562 324.179688 169.226562 C 324.179688 169.226562 327.539062 172.585938 327.539062 172.585938 C 327.539062 172.585938 327.539062 178.46875 327.539062 178.46875 C 330.886719 185.164062 333.417969 191.84375 333.417969 200.722656 C 334.882812 200.722656 334.257812 194.871094 334.257812 193.585938 C 334.257812 185.925781 334.027344 181.363281 330.898438 175.109375 C 330.898438 175.109375 330.898438 171.75 330.898438 171.75 C 330.011719 169.972656 330.902344 167.554688 330.058594 165.867188 C 329.699219 165.148438 328.425781 166.804688 327.539062 165.03125 C 325.90625 161.761719 326.484375 156.203125 325.019531 153.273438 C 324.160156 151.554688 322.667969 151.929688 322.5 151.59375 C 322.5 151.59375 323.339844 149.914062 323.339844 149.914062 C 323.339844 149.34375 319.703125 145.996094 319.140625 144.875 C 315.914062 138.421875 313.238281 131.214844 306.125 127.65625 C 302.816406 126.003906 301.800781 121.296875 299.40625 120.097656 C 292.554688 116.671875 286.890625 111.320312 279.25 107.5 C 272.542969 104.148438 264.152344 104.152344 257.414062 100.78125 C 255.277344 99.714844 252.082031 101.054688 249.851562 99.941406 C 247.574219 98.800781 239.351562 101.410156 236.414062 99.941406 C 232.902344 98.183594 227.886719 97.421875 224.65625 97.421875 C 224.65625 97.421875 222.140625 101.621094 222.140625 101.621094 C 220.484375 103.273438 221.777344 105.28125 220.878906 107.078125 C 219.265625 110.308594 216.597656 113.125 215 116.320312 C 212.066406 122.183594 198.210938 120.097656 193.164062 120.097656 C 193.164062 120.097656 191.484375 118.417969 191.484375 118.417969 C 188.257812 118.417969 178.175781 97.421875 177.625 97.421875 C 177.625 97.421875 175.945312 99.941406 175.945312 99.941406 C 174.109375 100.859375 171.082031 99.433594 170.070312 99.941406 C 170.070312 99.941406 168.390625 101.621094 168.390625 101.621094 C 167.269531 101.621094 166.148438 99.941406 165.03125 99.941406 C 165.03125 99.941406 163.351562 102.460938 163.351562 102.460938 C 151.5 102.460938 139.007812 106.652344 128.914062 111.699219 C 123.15625 114.578125 116.285156 114.707031 113.378906 120.515625 C 111.785156 123.707031 105.574219 125.207031 103.300781 129.757812 C 103.117188 130.121094 97.980469 134.515625 97.421875 135.632812 C 94.613281 141.253906 89.863281 147.621094 89.863281 153.273438 C 89.863281 153.273438 84.824219 158.3125 84.824219 158.3125 C 84.824219 159.425781 85.398438 162.929688 84.40625 162.929688 C 84.40625 162.929688 83.144531 162.507812 83.144531 162.507812 C 81.289062 166.21875 82.277344 170.125 80.625 173.429688 C 80.625 173.429688 80.203125 178.886719 80.203125 178.886719 C 80.203125 178.886719 79.367188 176.367188 79.367188 176.367188 C 79.367188 176.367188 78.945312 180.148438 78.945312 180.148438 C 77.058594 183.921875 77.265625 187.738281 77.265625 192.324219 C 77.265625 192.324219 77.265625 195.683594 77.265625 195.683594 Z M 77.265625 195.683594 "/>
<path style=" stroke:none;fill-rule:nonzero;fill:rgb(5.490196%,27.843139%,88.627452%);fill-opacity:1;" d="M 179.726562 160.410156 L 187.285156 160.410156 C 188.648438 160.410156 189.59375 158.730469 191.484375 158.730469 C 191.484375 158.730469 192.324219 157.890625 192.324219 157.890625 C 192.324219 157.890625 194.003906 157.890625 194.003906 157.890625 C 194.003906 157.890625 194.84375 157.890625 194.84375 157.890625 C 194.84375 156.753906 198.742188 156.210938 199.882812 156.210938 C 199.882812 151.421875 207.441406 149.847656 207.441406 155.371094 C 208.621094 155.371094 213.320312 154.769531 213.320312 156.210938 C 213.320312 156.210938 214.160156 156.210938 214.160156 156.210938 C 214.160156 156.210938 216.257812 157.890625 216.257812 157.890625 C 216.257812 157.890625 230.117188 158.730469 230.117188 158.730469 C 230.117188 158.730469 230.957031 157.890625 230.957031 157.890625 C 230.957031 157.890625 232.636719 157.050781 232.636719 157.050781 C 232.636719 157.050781 233.476562 156.210938 233.476562 156.210938 C 233.476562 156.210938 234.316406 156.210938 234.316406 156.210938 C 234.316406 156.210938 235.15625 155.371094 235.15625 155.371094 C 235.15625 155.371094 236.835938 154.53125 236.835938 154.53125 C 236.835938 153.136719 240.914062 152.011719 241.875 152.011719 C 241.875 152.011719 242.714844 151.171875 242.714844 151.171875 C 242.714844 150.136719 249.117188 148.652344 250.273438 148.652344 C 250.273438 148.652344 252.792969 147.8125 252.792969 147.8125 C 252.792969 147.8125 253.632812 146.972656 253.632812 146.972656 C 253.632812 146.972656 255.3125 146.972656 255.3125 146.972656 C 255.3125 144.46875 257.519531 144.453125 259.511719 144.453125 C 266.9375 144.453125 296.464844 146.625 296.464844 136.894531 C 296.464844 136.894531 296.464844 134.375 296.464844 134.375 C 296.464844 134.375 296.464844 132.695312 296.464844 132.695312 C 296.464844 132.695312 295.625 131.015625 295.625 131.015625 C 295.625 131.015625 294.785156 130.175781 294.785156 130.175781 C 294.785156 130.175781 293.945312 129.335938 293.945312 129.335938 C 293.945312 129.335938 286.386719 121.777344 286.386719 121.777344 C 286.386719 121.777344 285.546875 120.9375 285.546875 120.9375 C 284.574219 120.9375 277.988281 116.90625 277.988281 115.898438 C 277.988281 115.898438 277.148438 115.898438 277.148438 115.898438 C 277.148438 115.898438 267.070312 110.859375 267.070312 110.859375 C 266.191406 110.859375 264.550781 111.257812 264.550781 110.019531 C 260.164062 110.019531 257.050781 107.5 251.113281 107.5 C 251.113281 107.5 245.234375 107.5 245.234375 107.5 C 245.234375 107.5 239.355469 107.5 239.355469 107.5 C 239.355469 107.5 237.675781 108.339844 237.675781 108.339844 C 237.675781 108.339844 236.835938 108.339844 236.835938 108.339844 C 236.835938 108.339844 235.15625 109.179688 235.15625 109.179688 C 233.519531 109.179688 232.941406 111.699219 230.957031 111.699219 C 230.957031 111.699219 230.117188 112.539062 230.117188 112.539062 C 230.117188 112.539062 228.4375 114.21875 228.4375 114.21875 C 228.4375 114.21875 227.597656 115.058594 227.597656 115.058594 C 227.597656 115.058594 226.757812 115.898438 226.757812 115.898438 C 226.757812 115.898438 225.917969 116.738281 225.917969 116.738281 C 225.917969 116.738281 224.238281 119.679688 224.238281 119.679688 C 224.238281 119.679688 217.519531 124.296875 217.519531 124.296875 C 217.519531 124.296875 215.839844 125.976562 215.839844 125.976562 C 215.839844 125.976562 215 126.816406 215 126.816406 C 212.40625 126.816406 207.890625 129.335938 204.921875 129.335938 C 204.921875 133.609375 202.257812 130.175781 201.5625 130.175781 C 201.5625 130.175781 198.203125 130.175781 198.203125 130.175781 C 197.164062 130.175781 194.003906 130.714844 194.003906 129.335938 C 188.601562 129.335938 175.761719 114.125 169.226562 110.859375 C 163.164062 107.828125 145.601562 110.496094 139.835938 113.378906 C 137.445312 114.574219 135.597656 116.738281 132.695312 116.738281 C 131.835938 116.738281 125.136719 121.078125 125.136719 121.777344 C 125.136719 122.976562 121.085938 125.136719 120.097656 125.136719 C 120.097656 126.605469 119.886719 126.816406 118.417969 126.816406 C 118.417969 126.816406 116.738281 130.175781 116.738281 130.175781 C 116.738281 131.460938 113.378906 132.875 113.378906 135.214844 C 114.375 135.214844 114.375 136.054688 113.378906 136.054688 C 113.378906 136.054688 112.539062 136.894531 112.539062 136.894531 C 114.128906 136.894531 113.378906 141.320312 113.378906 141.515625 C 113.378906 143.464844 119.828125 145.367188 121.359375 146.132812 C 126.550781 148.730469 142.433594 146.972656 149.492188 146.972656 C 150.960938 146.972656 151.171875 147.183594 151.171875 148.652344 C 151.171875 148.652344 153.691406 149.492188 153.691406 149.492188 C 153.691406 149.492188 154.53125 150.332031 154.53125 150.332031 C 155.40625 150.332031 158.730469 151.160156 158.730469 152.011719 C 159.609375 152.011719 161.25 151.613281 161.25 152.851562 C 162.683594 152.851562 172.167969 154.851562 172.167969 157.050781 C 173.207031 157.050781 174.6875 157.40625 174.6875 158.730469 C 174.6875 158.730469 176.367188 158.730469 176.367188 158.730469 C 176.367188 158.730469 179.726562 160.410156 179.726562 160.410156 Z M 179.726562 160.410156 "/>
<path style=" stroke:none;fill-rule:nonzero;fill:rgb(0.784314%,17.254902%,100%);fill-opacity:1;" d="M 277.148438 115.898438 L 277.988281 115.898438 C 284.527344 115.898438 273.296875 109.742188 272.109375 112.117188 C 271.355469 113.625 277.148438 113.761719 277.148438 115.898438 Z M 277.148438 115.898438 "/>
<path style=" stroke:none;fill-rule:nonzero;fill:rgb(0.784314%,17.254902%,100%);fill-opacity:1;" d="M 132.695312 116.738281 C 131.835938 116.738281 125.136719 121.078125 125.136719 121.777344 C 119.230469 121.777344 132.695312 112.863281 132.695312 116.738281 Z M 132.695312 116.738281 "/>
<path style=" stroke:none;fill-rule:nonzero;fill:rgb(0.784314%,17.254902%,100%);fill-opacity:1;" d="M 287.226562 120.9375 C 287.226562 122.558594 288.847656 120.9375 287.226562 120.9375 Z M 287.226562 120.9375 "/>
<path style=" stroke:none;fill-rule:nonzero;fill:rgb(0.784314%,17.254902%,100%);fill-opacity:1;" d="M 290.585938 122.617188 C 290.585938 124.238281 292.207031 122.617188 290.585938 122.617188 Z M 290.585938 122.617188 "/>
<path style=" stroke:none;fill-rule:nonzero;fill:rgb(0.784314%,17.254902%,100%);fill-opacity:1;" d="M 293.105469 125.976562 C 293.105469 129.78125 297.6875 125.976562 293.105469 125.976562 Z M 293.105469 125.976562 "/>
<path style=" stroke:none;fill-rule:nonzero;fill:rgb(0.784314%,17.254902%,100%);fill-opacity:1;" d="M 303.183594 159.570312 L 304.023438 160.410156 C 310.242188 160.410156 305.703125 147.585938 305.703125 143.613281 C 305.703125 143.613281 305.703125 141.09375 305.703125 141.09375 C 302.585938 141.09375 300.640625 129.335938 293.945312 129.335938 C 293.945312 129.335938 294.785156 130.175781 294.785156 130.175781 C 294.785156 130.175781 295.625 131.015625 295.625 131.015625 C 296.378906 131.015625 298.167969 132.695312 296.464844 132.695312 C 296.464844 132.695312 296.464844 134.375 296.464844 134.375 C 296.464844 134.375 298.144531 136.054688 298.144531 136.054688 C 298.144531 137.925781 299.8125 138.128906 300.664062 139.835938 C 302.105469 142.714844 300.664062 146.199219 300.664062 148.234375 C 300.664062 148.234375 303.183594 149.914062 303.183594 149.914062 C 303.183594 152.871094 303.183594 156.480469 303.183594 159.570312 Z M 303.183594 159.570312 "/>
<path style=" stroke:none;fill-rule:nonzero;fill:rgb(0.784314%,17.254902%,100%);fill-opacity:1;" d="M 106.660156 141.933594 C 106.660156 143.839844 104.925781 144.980469 104.140625 146.554688 C 102.9375 148.957031 105.820312 150.773438 105.820312 152.429688 C 105.820312 155.382812 101.785156 161.125 105.398438 162.929688 L 107.5 161.25 C 107.5 156.007812 108.042969 147.988281 110.019531 144.03125 C 110.855469 142.363281 110.011719 136.894531 112.539062 136.894531 C 112.539062 136.894531 113.378906 136.054688 113.378906 136.054688 C 113.378906 136.054688 113.378906 135.214844 113.378906 135.214844 C 113.378906 132.875 116.738281 131.460938 116.738281 130.175781 C 111.367188 130.175781 108.898438 140.253906 107.5 140.253906 C 107.5 140.253906 106.660156 141.933594 106.660156 141.933594 Z M 106.660156 141.933594 "/>
<path style=" stroke:none;fill-rule:nonzero;fill:rgb(100%,43.137255%,0%);fill-opacity:1;" d="M 294.785156 130.175781 L 295.625 131.015625 C 295.625 131.015625 294.785156 130.175781 294.785156 130.175781 Z M 294.785156 130.175781 "/>
<path style=" stroke:none;fill-rule:nonzero;fill:rgb(0%,100%,11.372549%);fill-opacity:1;" d="M 113.378906 135.214844 C 114.375 135.214844 114.375 136.054688 113.378906 136.054688 C 113.378906 136.054688 113.378906 135.214844 113.378906 135.214844 Z M 113.378906 135.214844 "/>
<path style=" stroke:none;fill-rule:nonzero;fill:rgb(0%,100%,11.372549%);fill-opacity:1;" d="M 292.265625 167.96875 L 293.105469 167.96875 C 294.371094 167.96875 300.558594 159.570312 303.183594 159.570312 C 303.183594 156.480469 303.183594 152.871094 303.183594 149.914062 C 303.183594 149.914062 300.664062 148.234375 300.664062 148.234375 C 300.664062 146.199219 302.105469 142.714844 300.664062 139.835938 C 299.8125 138.128906 298.144531 137.925781 298.144531 136.054688 C 298.144531 136.054688 296.464844 136.894531 296.464844 136.894531 C 296.464844 146.625 266.9375 144.453125 259.511719 144.453125 C 259.511719 144.453125 261.191406 146.132812 261.191406 146.132812 C 261.191406 146.132812 262.871094 146.132812 262.871094 146.132812 C 263.910156 146.132812 267.070312 145.59375 267.070312 146.972656 C 267.070312 146.972656 267.910156 146.972656 267.910156 146.972656 C 268.789062 146.972656 270.429688 146.574219 270.429688 147.8125 C 270.429688 147.8125 278.828125 147.8125 278.828125 147.8125 C 279.707031 147.8125 281.347656 147.414062 281.347656 148.652344 C 281.347656 148.652344 283.027344 149.492188 283.027344 149.492188 C 283.027344 149.492188 283.867188 150.332031 283.867188 150.332031 C 283.867188 153.097656 284.082031 157.058594 285.546875 159.992188 C 286.148438 161.195312 290.585938 162.316406 290.585938 167.128906 C 290.585938 167.128906 292.265625 167.96875 292.265625 167.96875 Z M 292.265625 167.96875 "/>
<path style=" stroke:none;fill-rule:nonzero;fill:rgb(0%,100%,11.372549%);fill-opacity:1;" d="M 123.457031 165.449219 C 122.308594 165.449219 120.097656 167.4375 120.097656 168.808594 C 117.34375 168.808594 109.179688 166.910156 109.179688 164.609375 C 109.179688 164.609375 108.339844 163.769531 108.339844 163.769531 C 108.339844 163.769531 107.5 163.769531 107.5 163.769531 C 107.5 163.769531 107.5 161.25 107.5 161.25 C 107.5 156.007812 108.042969 147.988281 110.019531 144.03125 C 110.855469 142.363281 110.011719 136.894531 112.539062 136.894531 C 114.128906 136.894531 113.378906 141.320312 113.378906 141.515625 C 113.378906 143.464844 119.828125 145.367188 121.359375 146.132812 C 126.550781 148.730469 142.433594 146.972656 149.492188 146.972656 C 149.492188 146.972656 146.972656 148.652344 146.972656 148.652344 C 146.972656 148.652344 140.253906 150.332031 140.253906 150.332031 C 139.375 150.332031 137.734375 149.933594 137.734375 151.171875 C 137.734375 151.171875 136.054688 152.011719 136.054688 152.011719 C 132.589844 152.011719 124.296875 162.128906 124.296875 164.609375 C 124.296875 164.609375 123.457031 165.449219 123.457031 165.449219 Z M 123.457031 165.449219 "/>
<path style=" stroke:none;fill-rule:evenodd;fill:rgb(100%,20.392157%,15.294118%);fill-opacity:1;" d="M 268.75 225.917969 C 268.75 227.933594 264.128906 228.851562 265.390625 231.375 C 267.738281 236.070312 278.667969 225.917969 273.367188 225.917969 C 272.335938 225.917969 270.59375 225.917969 268.75 225.917969 M 277.148438 233.476562 C 274.230469 233.476562 272.847656 236.835938 270.851562 236.835938 L 269.589844 238.515625 C 269.589844 238.515625 264.96875 241.875 264.96875 241.875 C 261.253906 243.734375 248.265625 242.953125 251.953125 235.578125 C 252.976562 233.53125 254.472656 232.664062 254.472656 230.117188 C 254.9375 230.117188 262.03125 223.804688 262.03125 223.398438 C 262.03125 223.398438 263.710938 222.558594 263.710938 222.558594 C 266.429688 222.558594 265.777344 220.039062 267.070312 220.039062 C 267.070312 220.039062 267.910156 219.199219 267.910156 219.199219 C 267.910156 219.199219 268.75 218.359375 268.75 218.359375 C 273.707031 218.359375 287.273438 203.570312 289.746094 198.625 C 290.660156 196.792969 292.933594 188.964844 295.625 188.964844 C 298.257812 188.964844 297.304688 185.210938 297.304688 183.085938 C 297.304688 181.035156 297.628906 175.527344 295.625 175.527344 C 295.625 174.75 289.46875 167.96875 292.265625 167.96875 C 292.265625 167.96875 293.105469 167.96875 293.105469 167.96875 C 293.105469 170.792969 301.363281 169.507812 302.765625 168.808594 C 308.574219 165.902344 304.023438 162.09375 304.023438 160.410156 C 310.242188 160.410156 305.703125 147.585938 305.703125 143.613281 C 305.703125 143.613281 307.382812 143.613281 307.382812 143.613281 C 307.382812 143.613281 309.0625 145.292969 309.0625 145.292969 C 307.203125 145.292969 308.769531 147.8125 309.902344 147.8125 C 309.902344 147.8125 314.941406 152.851562 314.941406 152.851562 C 313.035156 152.851562 315.796875 157.890625 316.621094 157.890625 C 316.621094 161.316406 314.101562 163.550781 314.101562 167.128906 C 314.101562 167.960938 313.941406 170.488281 315.359375 170.488281 C 316.925781 170.488281 318.167969 165.601562 319.980469 169.226562 C 320.84375 170.957031 318.300781 172.167969 318.300781 173.429688 C 318.300781 174.042969 319.613281 179.203125 319.140625 180.148438 C 317.238281 183.953125 314.101562 186.941406 314.101562 191.484375 C 314.101562 191.484375 309.902344 196.101562 309.902344 196.101562 C 307.042969 201.820312 295.625 208.894531 295.625 211.640625 C 294.425781 211.640625 292.265625 215.691406 292.265625 216.679688 C 292.265625 218.628906 283.027344 225.59375 283.027344 227.597656 C 283.027344 227.597656 282.1875 228.4375 282.1875 228.4375 C 282.1875 228.4375 281.347656 229.277344 281.347656 229.277344 C 281.347656 229.277344 280.507812 230.117188 280.507812 230.117188 C 280.507812 230.117188 277.148438 233.476562 277.148438 233.476562 Z M 277.148438 233.476562 "/>
<path style=" stroke:none;fill-rule:evenodd;fill:rgb(0%,39.215687%,0%);fill-opacity:1;" d="M 183.085938 225.078125 L 180.566406 228.859375 C 185.292969 238.3125 192.566406 225.078125 183.085938 225.078125 M 221.71875 224.238281 L 220.039062 225.5 C 220.039062 240.816406 234.792969 224.238281 221.71875 224.238281 M 153.691406 216.679688 C 153.691406 219.875 147.402344 217.082031 146.972656 217.9375 C 146.242188 219.398438 155.105469 221.640625 156.632812 220.878906 L 158.3125 218.359375 C 157.304688 217.855469 156.40625 219.085938 154.953125 218.359375 C 153.933594 217.851562 156.3125 216.679688 153.691406 216.679688 M 251.113281 214.160156 C 251.113281 215.265625 248.292969 215.660156 249.433594 217.9375 C 251.039062 221.148438 259.964844 218.375 256.570312 216.679688 C 255.117188 215.953125 254.21875 217.183594 253.210938 216.679688 L 251.113281 214.160156 M 203.242188 243.554688 C 203.242188 236.707031 205.761719 239.988281 205.761719 244.394531 C 210.085938 244.394531 218.417969 244.15625 222.976562 241.875 C 224.898438 240.914062 224.828125 243.554688 225.5 243.554688 C 225.5 243.554688 230.957031 241.875 230.957031 241.875 C 230.957031 241.875 231.796875 242.714844 231.796875 242.714844 C 231.796875 242.714844 234.316406 241.035156 234.316406 241.035156 C 234.316406 241.035156 235.15625 240.195312 235.15625 240.195312 C 235.15625 240.195312 236.835938 239.355469 236.835938 239.355469 C 236.835938 239.355469 238.515625 238.515625 238.515625 238.515625 C 238.515625 238.515625 239.355469 237.675781 239.355469 237.675781 C 239.355469 237.675781 240.195312 236.835938 240.195312 236.835938 C 244.238281 236.835938 253.191406 230.117188 254.472656 230.117188 C 254.9375 230.117188 262.03125 223.804688 262.03125 223.398438 C 262.03125 223.398438 263.710938 222.558594 263.710938 222.558594 C 266.429688 222.558594 265.777344 220.039062 267.070312 220.039062 C 267.070312 220.039062 267.910156 219.199219 267.910156 219.199219 C 267.910156 219.199219 268.75 218.359375 268.75 218.359375 C 273.707031 218.359375 287.273438 203.570312 289.746094 198.625 C 290.660156 196.792969 292.933594 188.964844 295.625 188.964844 C 295.625 187.410156 294.898438 183.085938 297.304688 183.085938 C 297.304688 181.035156 297.628906 175.527344 295.625 175.527344 C 290.304688 175.527344 290.585938 170.453125 290.585938 167.128906 C 290.585938 162.316406 286.148438 161.195312 285.546875 159.992188 C 284.082031 157.058594 283.867188 153.097656 283.867188 150.332031 C 283.867188 150.332031 283.027344 149.492188 283.027344 149.492188 C 283.027344 149.492188 281.347656 148.652344 281.347656 148.652344 C 280.46875 148.652344 278.828125 149.050781 278.828125 147.8125 C 278.828125 147.8125 270.429688 147.8125 270.429688 147.8125 C 269.550781 147.8125 267.910156 148.210938 267.910156 146.972656 C 267.910156 146.972656 267.070312 146.972656 267.070312 146.972656 C 266.03125 146.972656 262.871094 147.511719 262.871094 146.132812 C 262.871094 146.132812 261.191406 146.132812 261.191406 146.132812 C 261.191406 146.132812 255.3125 146.972656 255.3125 146.972656 C 255.3125 146.972656 253.632812 146.972656 253.632812 146.972656 C 253.632812 146.972656 252.792969 147.8125 252.792969 147.8125 C 252.792969 147.8125 250.273438 148.652344 250.273438 148.652344 C 250.273438 151.132812 244.542969 151.171875 242.714844 151.171875 C 242.714844 151.171875 241.875 152.011719 241.875 152.011719 C 240.914062 152.011719 236.835938 153.136719 236.835938 154.53125 C 236.835938 154.53125 235.15625 155.371094 235.15625 155.371094 C 235.15625 155.371094 234.316406 156.210938 234.316406 156.210938 C 234.316406 156.210938 233.476562 156.210938 233.476562 156.210938 C 233.476562 156.210938 232.636719 157.050781 232.636719 157.050781 C 232.636719 160.839844 232.332031 157.890625 230.957031 157.890625 C 230.957031 157.890625 230.117188 158.730469 230.117188 158.730469 C 230.117188 161.324219 224.273438 160.410156 222.558594 160.410156 C 222.558594 160.410156 224.238281 161.671875 224.238281 161.671875 C 224.238281 164.003906 218.058594 160.46875 217.9375 160.410156 C 217.433594 160.15625 210.332031 163.445312 211.640625 160.828125 C 211.640625 160.828125 212.480469 158.730469 212.480469 158.730469 C 212.480469 154.46875 210.015625 157.050781 207.441406 157.050781 C 203.976562 157.050781 205.761719 165.242188 205.761719 166.710938 C 205.761719 166.710938 202.402344 166.710938 202.402344 166.710938 C 202.402344 165.121094 203.445312 162.074219 202.402344 159.992188 C 201.550781 158.289062 199.882812 159.082031 199.882812 156.210938 C 198.742188 156.210938 194.84375 156.753906 194.84375 157.890625 C 194.84375 157.890625 194.84375 158.730469 194.84375 158.730469 C 194.84375 158.730469 196.523438 161.671875 196.523438 161.671875 C 196.523438 161.671875 191.0625 161.25 191.0625 161.25 C 190.351562 161.605469 185.605469 166.085938 185.605469 161.671875 C 185.605469 161.671875 187.285156 160.410156 187.285156 160.410156 C 187.285156 160.410156 179.726562 160.410156 179.726562 160.410156 C 177.898438 160.410156 176.367188 160.949219 176.367188 158.730469 C 176.367188 158.730469 174.6875 158.730469 174.6875 158.730469 C 173.472656 158.730469 170.191406 157.050781 172.167969 157.050781 C 172.167969 154.851562 162.683594 152.851562 161.25 152.851562 C 160.371094 152.851562 158.730469 153.25 158.730469 152.011719 C 158.730469 151.160156 155.40625 150.332031 154.53125 150.332031 C 154.53125 150.332031 153.691406 149.492188 153.691406 149.492188 C 153.691406 149.492188 151.171875 148.652344 151.171875 148.652344 C 151.171875 148.652344 146.972656 148.652344 146.972656 148.652344 C 146.972656 148.652344 140.253906 150.332031 140.253906 150.332031 C 140.253906 151.570312 138.613281 151.171875 137.734375 151.171875 C 137.734375 151.171875 136.054688 152.011719 136.054688 152.011719 C 132.589844 152.011719 124.296875 162.128906 124.296875 164.609375 C 124.296875 164.609375 123.457031 165.449219 123.457031 165.449219 C 123.457031 166.207031 122.984375 170.488281 120.9375 170.488281 C 120.9375 170.488281 120.097656 171.328125 120.097656 171.328125 C 120.097656 171.328125 119.257812 171.328125 119.257812 171.328125 C 119.257812 171.328125 116.738281 173.847656 116.738281 173.847656 C 118.648438 173.847656 115.058594 175.328125 115.058594 176.367188 C 115.058594 176.367188 114.21875 177.207031 114.21875 177.207031 C 114.21875 177.207031 115.058594 180.984375 115.058594 180.984375 C 114.792969 181.519531 113.378906 184.121094 113.378906 182.246094 C 113.378906 182.246094 112.539062 183.085938 112.539062 183.085938 C 112.539062 183.085938 112.539062 186.445312 112.539062 186.445312 C 112.539062 188.59375 115 190.105469 115.898438 191.90625 C 115.898438 191.90625 115.058594 193.585938 115.058594 193.585938 C 115.058594 196.933594 125.933594 209.308594 128.914062 210.800781 C 128.914062 210.800781 130.59375 214.160156 130.59375 214.160156 C 130.59375 214.160156 133.117188 213.320312 133.117188 213.320312 C 133.90625 213.714844 143.613281 221.507812 143.613281 221.71875 C 145.441406 221.71875 146.972656 221.179688 146.972656 223.398438 C 146.972656 223.398438 148.652344 226.335938 148.652344 226.335938 C 149.394531 227.078125 150.21875 225.273438 151.171875 227.179688 C 151.769531 228.375 152.652344 232.636719 154.53125 232.636719 C 162.972656 232.636719 170.285156 242.714844 180.566406 242.714844 C 180.566406 242.714844 185.605469 243.554688 185.605469 243.554688 C 192.035156 243.554688 196.773438 243.554688 203.242188 243.554688 Z M 203.242188 243.554688 "/>
<path style=" stroke:none;fill-rule:nonzero;fill:rgb(0.784314%,17.254902%,100%);fill-opacity:1;" d="M 199.882812 156.210938 C 199.882812 159.082031 201.550781 158.289062 202.402344 159.992188 C 203.445312 162.074219 202.402344 165.121094 202.402344 166.710938 L 205.761719 166.710938 C 205.761719 165.242188 203.976562 157.050781 207.441406 157.050781 C 207.441406 157.050781 207.441406 155.371094 207.441406 155.371094 C 207.441406 149.847656 199.882812 151.421875 199.882812 156.210938 Z M 199.882812 156.210938 "/>
<path style=" stroke:none;fill-rule:nonzero;fill:rgb(0%,39.215687%,0%);fill-opacity:1;" d="M 213.320312 158.730469 L 215 158.730469 C 215 158.730469 214.160156 156.210938 214.160156 156.210938 C 214.160156 156.210938 213.320312 156.210938 213.320312 156.210938 C 213.320312 156.210938 213.320312 158.730469 213.320312 158.730469 Z M 213.320312 158.730469 "/>
<path style=" stroke:none;fill-rule:nonzero;fill:rgb(0%,39.215687%,0%);fill-opacity:1;" d="M 192.324219 157.890625 L 191.484375 158.730469 C 191.484375 158.730469 192.324219 157.890625 192.324219 157.890625 Z M 192.324219 157.890625 "/>
<path style=" stroke:none;fill-rule:nonzero;fill:rgb(100%,98.823529%,0%);fill-opacity:1;" d="M 194.84375 158.730469 L 196.523438 161.671875 L 191.0625 161.25 C 190.351562 161.605469 185.605469 166.085938 185.605469 161.671875 L 187.285156 160.410156 C 188.648438 160.410156 189.59375 158.730469 191.484375 158.730469 C 191.484375 158.730469 192.324219 157.890625 192.324219 157.890625 C 192.324219 157.890625 194.003906 157.890625 194.003906 157.890625 C 194.003906 157.890625 194.84375 158.730469 194.84375 158.730469 Z M 194.84375 158.730469 "/>
<path style=" stroke:none;fill-rule:nonzero;fill:rgb(50.588238%,30.980393%,100%);fill-opacity:1;" d="M 318.300781 225.078125 L 319.140625 225.078125 C 319.140625 225.078125 320.820312 224.238281 320.820312 224.238281 C 320.820312 224.238281 321.660156 224.238281 321.660156 224.238281 C 321.660156 222.914062 323.140625 222.558594 324.179688 222.558594 C 328.597656 222.558594 330.898438 215.996094 330.898438 212.480469 C 330.898438 211.652344 331.8125 207.441406 332.578125 207.441406 C 332.578125 207.441406 332.578125 204.921875 332.578125 204.921875 C 332.578125 204.921875 333.417969 200.722656 333.417969 200.722656 C 333.417969 191.84375 330.886719 185.164062 327.539062 178.46875 C 327.539062 178.46875 327.539062 172.585938 327.539062 172.585938 C 327.539062 172.585938 324.179688 169.226562 324.179688 169.226562 C 324.179688 169.226562 324.179688 165.03125 324.179688 165.03125 C 323.320312 163.3125 321.828125 163.6875 321.660156 163.351562 C 321.660156 163.351562 321.660156 159.992188 321.660156 159.992188 C 321.078125 158.824219 318.300781 160.183594 318.300781 157.890625 C 318.300781 157.890625 316.621094 157.890625 316.621094 157.890625 C 316.621094 161.316406 314.101562 163.550781 314.101562 167.128906 C 314.101562 167.960938 313.941406 170.488281 315.359375 170.488281 C 316.925781 170.488281 318.167969 165.601562 319.980469 169.226562 C 320.84375 170.957031 318.300781 172.167969 318.300781 173.429688 C 318.300781 174.042969 319.613281 179.203125 319.140625 180.148438 C 317.238281 183.953125 314.101562 186.941406 314.101562 191.484375 C 314.101562 191.484375 314.101562 201.140625 314.101562 201.140625 C 314.101562 201.140625 312.421875 202.820312 312.421875 202.820312 C 312.421875 202.820312 313.261719 204.5 313.261719 204.5 C 311.472656 208.082031 309.902344 209.734375 309.902344 214.160156 C 309.902344 214.160156 310.742188 216.679688 310.742188 216.679688 C 310.742188 218.390625 316.472656 225.078125 318.300781 225.078125 Z M 318.300781 225.078125 "/>
<path style=" stroke:none;fill-rule:nonzero;fill:rgb(100%,98.823529%,0%);fill-opacity:1;" d="M 215 158.730469 C 218.054688 158.730469 219.980469 160.410156 222.558594 160.410156 C 222.558594 160.410156 224.238281 161.671875 224.238281 161.671875 C 224.238281 164.003906 218.058594 160.46875 217.9375 160.410156 C 217.433594 160.15625 210.332031 163.445312 211.640625 160.828125 C 211.640625 160.828125 212.480469 158.730469 212.480469 158.730469 C 212.480469 158.730469 213.320312 158.730469 213.320312 158.730469 C 213.320312 158.730469 215 158.730469 215 158.730469 Z M 215 158.730469 "/>
<path style=" stroke:none;fill-rule:nonzero;fill:rgb(50.588238%,30.980393%,100%);fill-opacity:1;" d="M 102.460938 217.519531 C 102.460938 229.242188 97.300781 227.597656 88.183594 227.597656 C 86.515625 227.597656 85.421875 225.855469 84.824219 224.65625 C 84.824219 224.65625 81.464844 222.976562 81.464844 222.976562 C 78.109375 216.269531 77.265625 208.855469 77.265625 200.722656 C 79.023438 200.722656 77.941406 193.070312 78.945312 191.0625 C 83.007812 182.941406 85.636719 173.480469 89.023438 166.710938 C 89.023438 166.710938 93.222656 159.570312 93.222656 159.570312 C 97.859375 159.570312 94.902344 165.050781 94.902344 167.128906 C 92.195312 167.128906 93.222656 171.644531 93.222656 173.847656 C 93.222656 173.847656 92.382812 173.847656 92.382812 173.847656 C 92.382812 172.640625 89.863281 172.753906 89.863281 173.429688 C 89.863281 176.4375 92.757812 180.054688 94.0625 182.664062 C 94.0625 182.664062 93.222656 186.445312 93.222656 186.445312 C 93.222656 186.445312 94.0625 188.125 94.0625 188.125 C 94.78125 188.125 94.683594 195.683594 97.421875 195.683594 C 97.421875 195.683594 97.421875 199.042969 97.421875 199.042969 C 97.421875 204.28125 97.421875 206.144531 97.421875 209.960938 C 97.421875 209.960938 99.101562 211.640625 99.101562 211.640625 C 99.101562 211.640625 99.941406 214.160156 99.941406 214.160156 C 99.941406 216.816406 99.851562 215.839844 101.621094 215.839844 C 101.621094 215.839844 102.460938 217.519531 102.460938 217.519531 Z M 102.460938 217.519531 "/>
<path style=" stroke:none;fill-rule:nonzero;fill:rgb(93.333334%,45.882353%,20%);fill-opacity:1;" d="M 304.023438 160.410156 C 304.023438 162.09375 308.574219 165.902344 302.765625 168.808594 C 301.363281 169.507812 293.105469 170.792969 293.105469 167.96875 C 294.371094 167.96875 300.558594 159.570312 303.183594 159.570312 C 303.183594 159.570312 304.023438 160.410156 304.023438 160.410156 Z M 304.023438 160.410156 "/>
<path style=" stroke:none;fill-rule:nonzero;fill:rgb(93.333334%,45.882353%,20%);fill-opacity:1;" d="M 111.699219 173.007812 L 114.21875 173.007812 C 114.21875 169.421875 118.0625 171.328125 119.257812 171.328125 C 119.257812 171.328125 120.097656 171.328125 120.097656 171.328125 C 120.097656 171.328125 120.9375 170.488281 120.9375 170.488281 C 120.9375 170.488281 120.097656 168.808594 120.097656 168.808594 C 117.34375 168.808594 109.179688 166.910156 109.179688 164.609375 C 109.179688 164.609375 108.339844 163.769531 108.339844 163.769531 C 108.339844 163.769531 107.5 163.769531 107.5 163.769531 C 105.609375 163.769531 104.664062 165.449219 103.300781 165.449219 C 103.300781 167.484375 104.980469 167.765625 104.980469 168.808594 C 106.199219 168.808594 111.699219 171.980469 111.699219 173.007812 Z M 111.699219 173.007812 "/>
<path style=" stroke:none;fill-rule:evenodd;fill:rgb(100%,20.392157%,15.294118%);fill-opacity:1;" d="M 140.253906 234.316406 C 140.253906 235.3125 141.09375 235.3125 141.09375 234.316406 C 141.09375 234.316406 142.773438 232.636719 142.773438 232.636719 C 144.398438 232.636719 143.753906 230.117188 141.933594 230.117188 C 140.019531 230.117188 135.214844 226.128906 132.273438 227.597656 C 128.996094 229.238281 137.953125 231.695312 138.15625 231.796875 C 138.15625 231.796875 140.253906 234.316406 140.253906 234.316406 M 154.53125 232.636719 C 154.53125 235 156.382812 234.238281 157.050781 235.578125 L 156.632812 241.875 L 154.953125 240.195312 C 154.625 240.195312 151.675781 244.351562 151.59375 244.394531 C 149.332031 245.523438 149.207031 242.363281 148.234375 241.875 L 143.195312 242.714844 L 140.253906 240.195312 C 135.898438 240.195312 133.9375 232.636719 128.496094 232.636719 C 128.496094 231.132812 124.128906 225.917969 122.617188 225.917969 C 122.617188 225.917969 120.9375 224.238281 120.9375 224.238281 C 119.898438 224.238281 118.417969 223.882812 118.417969 222.558594 C 118.417969 219.625 115.082031 219.664062 114.21875 217.9375 C 114.21875 217.9375 111.699219 210.382812 111.699219 210.382812 C 111.699219 210.382812 104.980469 204.5 104.980469 204.5 C 104.980469 204.5 101.203125 198.203125 101.203125 198.203125 C 101.203125 198.203125 99.941406 199.042969 99.941406 199.042969 C 99.941406 199.042969 97.421875 195.683594 97.421875 195.683594 C 94.683594 195.683594 94.78125 188.125 94.0625 188.125 C 94.0625 188.125 93.222656 186.445312 93.222656 186.445312 C 93.222656 186.445312 94.0625 182.664062 94.0625 182.664062 C 92.757812 180.054688 89.863281 176.4375 89.863281 173.429688 C 89.863281 172.753906 92.382812 172.640625 92.382812 173.847656 C 92.382812 177.542969 95.246094 173.847656 93.222656 173.847656 C 93.222656 171.644531 92.195312 167.128906 94.902344 167.128906 C 94.902344 167.988281 95.824219 170.488281 97 170.488281 C 97 170.488281 97.421875 166.710938 97.421875 166.710938 C 98.179688 165.191406 102.550781 165.449219 103.300781 165.449219 C 103.300781 167.484375 104.980469 167.765625 104.980469 168.808594 C 96.972656 168.808594 111.699219 177.859375 111.699219 173.007812 C 111.699219 173.007812 114.21875 173.007812 114.21875 173.007812 C 114.21875 174.246094 115.859375 173.847656 116.738281 173.847656 C 118.648438 173.847656 115.058594 175.328125 115.058594 176.367188 C 115.058594 176.367188 114.21875 177.207031 114.21875 177.207031 C 112.804688 177.207031 113.378906 181.136719 113.378906 182.246094 C 113.378906 182.246094 112.539062 183.085938 112.539062 183.085938 C 111.25 183.085938 111.25 186.445312 112.539062 186.445312 C 112.539062 188.59375 115 190.105469 115.898438 191.90625 C 115.898438 191.90625 115.058594 193.585938 115.058594 193.585938 C 115.058594 196.933594 125.933594 209.308594 128.914062 210.800781 C 128.914062 210.800781 130.59375 214.160156 130.59375 214.160156 C 130.59375 214.160156 133.117188 213.320312 133.117188 213.320312 C 133.90625 213.714844 143.613281 221.507812 143.613281 221.71875 C 143.613281 221.71875 146.972656 223.398438 146.972656 223.398438 C 146.972656 223.398438 148.652344 226.335938 148.652344 226.335938 C 149.394531 227.078125 150.21875 225.273438 151.171875 227.179688 C 151.769531 228.375 152.652344 232.636719 154.53125 232.636719 Z M 154.53125 232.636719 "/>
<path style=" stroke:none;fill-rule:nonzero;fill:rgb(100%,56.862748%,72.941178%);fill-opacity:1;" d="M 304.863281 217.519531 L 305.703125 217.519531 C 305.703125 217.519531 309.902344 214.160156 309.902344 214.160156 C 309.902344 209.734375 311.472656 208.082031 313.261719 204.5 C 313.261719 204.5 312.421875 202.820312 312.421875 202.820312 C 312.421875 202.820312 314.101562 201.140625 314.101562 201.140625 C 314.101562 201.140625 314.101562 191.484375 314.101562 191.484375 C 314.101562 191.484375 309.902344 196.101562 309.902344 196.101562 C 307.042969 201.820312 295.625 208.894531 295.625 211.640625 C 295.625 215.648438 298.320312 218.359375 302.34375 218.359375 C 302.34375 217.121094 303.984375 217.519531 304.863281 217.519531 Z M 304.863281 217.519531 "/>
<path style=" stroke:none;fill-rule:nonzero;fill:rgb(100%,56.862748%,72.941178%);fill-opacity:1;" d="M 106.660156 221.71875 C 110.121094 221.71875 114.449219 222.558594 118.417969 222.558594 C 118.417969 219.625 115.082031 219.664062 114.21875 217.9375 C 114.21875 217.9375 111.699219 210.382812 111.699219 210.382812 C 111.699219 210.382812 104.980469 204.5 104.980469 204.5 C 104.980469 204.5 101.203125 198.203125 101.203125 198.203125 C 101.203125 198.203125 99.941406 199.042969 99.941406 199.042969 C 99.941406 199.042969 97.421875 199.042969 97.421875 199.042969 C 97.421875 204.28125 97.421875 206.144531 97.421875 209.960938 C 98.890625 209.960938 99.101562 210.171875 99.101562 211.640625 C 99.101562 211.640625 99.941406 214.160156 99.941406 214.160156 C 99.941406 214.160156 101.621094 215.839844 101.621094 215.839844 C 101.621094 215.839844 102.460938 217.519531 102.460938 217.519531 C 102.460938 217.519531 106.660156 221.71875 106.660156 221.71875 Z M 106.660156 221.71875 "/>
<path style=" stroke:none;fill-rule:nonzero;fill:rgb(100%,43.137255%,0%);fill-opacity:1;" d="M 332.578125 204.921875 C 334.726562 204.921875 332.578125 213.632812 332.578125 207.441406 C 332.578125 207.441406 332.578125 204.921875 332.578125 204.921875 Z M 332.578125 204.921875 "/>
<path style=" stroke:none;fill-rule:nonzero;fill:rgb(83.137256%,100%,0%);fill-opacity:1;" d="M 251.113281 214.160156 C 251.113281 215.265625 248.292969 215.660156 249.433594 217.9375 C 251.039062 221.148438 259.964844 218.375 256.570312 216.679688 C 255.117188 215.953125 254.21875 217.183594 253.210938 216.679688 Z M 251.113281 214.160156 "/>
<path style=" stroke:none;fill-rule:nonzero;fill:rgb(83.137256%,100%,0%);fill-opacity:1;" d="M 153.691406 216.679688 C 153.691406 219.875 147.402344 217.082031 146.972656 217.9375 C 146.242188 219.398438 155.105469 221.640625 156.632812 220.878906 L 158.3125 218.359375 C 157.304688 217.855469 156.40625 219.085938 154.953125 218.359375 C 153.933594 217.851562 156.3125 216.679688 153.691406 216.679688 Z M 153.691406 216.679688 "/>
<path style=" stroke:none;fill-rule:evenodd;fill:rgb(88.235295%,94.117647%,5.098039%);fill-opacity:1;" d="M 293.945312 222.558594 L 293.105469 224.238281 C 293.105469 230.25 297.933594 222.558594 293.945312 222.558594 M 304.863281 290.585938 L 302.765625 294.785156 L 301.085938 292.265625 C 299.511719 291.480469 293.105469 290.46875 293.105469 292.265625 C 293.105469 292.265625 287.226562 290.585938 287.226562 290.585938 C 287.226562 290.585938 285.125 286.386719 285.125 286.386719 C 285.125 286.386719 281.765625 288.066406 281.765625 288.066406 C 279.128906 288.066406 278.320312 284.664062 276.726562 283.867188 C 267.203125 279.105469 260.351562 272.210938 260.351562 262.03125 C 262.511719 262.03125 267.910156 256.582031 267.910156 254.472656 C 267.910156 254.472656 268.75 253.632812 268.75 253.632812 C 268.75 253.632812 272.109375 250.695312 272.109375 250.695312 C 273.183594 248.546875 283.230469 235.683594 284.289062 235.15625 C 285.894531 234.351562 289.328125 229.699219 286.804688 228.4375 C 284.492188 227.28125 282.453125 231.796875 280.507812 231.796875 C 280.507812 231.796875 280.507812 230.117188 280.507812 230.117188 C 280.507812 230.117188 281.347656 229.277344 281.347656 229.277344 C 281.347656 229.277344 282.1875 228.4375 282.1875 228.4375 C 282.1875 228.4375 283.027344 227.597656 283.027344 227.597656 C 283.027344 225.59375 292.265625 218.628906 292.265625 216.679688 C 294.40625 216.679688 302.34375 222.375 302.34375 218.359375 C 303.222656 218.359375 304.863281 218.757812 304.863281 217.519531 C 304.863281 217.519531 305.703125 217.519531 305.703125 217.519531 C 305.703125 219.554688 309.875 216.679688 310.742188 216.679688 C 310.742188 218.390625 316.472656 225.078125 318.300781 225.078125 C 318.300781 225.078125 318.300781 225.917969 318.300781 225.917969 C 318.300781 225.917969 317.460938 226.757812 317.460938 226.757812 C 317.460938 231.15625 311.007812 236.949219 313.261719 241.453125 C 315.15625 245.246094 325.296875 246.777344 320.820312 255.734375 C 316.765625 263.835938 314.816406 272.78125 310.742188 280.929688 C 310.742188 280.929688 304.863281 290.585938 304.863281 290.585938 Z M 304.863281 290.585938 "/>
<path style=" stroke:none;fill-rule:evenodd;fill:rgb(88.235295%,94.117647%,5.098039%);fill-opacity:1;" d="M 115.058594 227.597656 C 115.058594 233.097656 119.953125 227.597656 115.058594 227.597656 M 119.257812 292.265625 L 120.097656 292.265625 C 120.097656 287.097656 132.90625 286.910156 135.632812 285.546875 C 138.382812 284.171875 141.417969 283.496094 144.03125 282.1875 C 146.519531 280.945312 149.492188 268.921875 149.492188 266.230469 C 148.304688 266.230469 137.386719 247.753906 132.695312 247.753906 C 132.695312 247.753906 131.855469 246.074219 131.855469 246.074219 C 131.855469 242.082031 116.289062 232.636719 126.398438 232.636719 C 126.925781 232.636719 126.972656 234.316406 128.496094 234.316406 C 128.496094 234.316406 128.496094 232.636719 128.496094 232.636719 C 128.496094 231.132812 124.128906 225.917969 122.617188 225.917969 C 121.148438 225.917969 120.9375 225.707031 120.9375 224.238281 C 119.898438 224.238281 118.417969 223.882812 118.417969 222.558594 C 114.449219 222.558594 110.121094 221.71875 106.660156 221.71875 C 106.660156 221.71875 106.660156 231.375 106.660156 231.375 C 104.859375 234.976562 96.582031 229.269531 96.582031 239.355469 C 96.582031 239.355469 96.582031 240.195312 96.582031 240.195312 C 97.757812 240.195312 97.757812 241.875 96.582031 241.875 C 96.582031 243.605469 94.902344 245.414062 94.902344 245.65625 C 94.902344 245.65625 96.582031 248.171875 96.582031 248.171875 C 97.4375 249.886719 97.375 252.277344 98.261719 254.054688 C 98.261719 254.054688 104.140625 259.09375 104.140625 259.09375 C 107.527344 265.863281 111.699219 272.925781 111.699219 280.085938 C 111.699219 280.085938 114.640625 282.1875 114.640625 282.1875 C 116.402344 283.949219 118.417969 286.445312 118.417969 288.90625 C 118.417969 288.90625 119.257812 292.265625 119.257812 292.265625 Z M 119.257812 292.265625 "/>
<path style=" stroke:none;fill-rule:nonzero;fill:rgb(67.843139%,100%,18.431373%);fill-opacity:1;" d="M 293.945312 222.558594 L 293.105469 224.238281 C 293.105469 230.25 297.933594 222.558594 293.945312 222.558594 Z M 293.945312 222.558594 "/>
<path style=" stroke:none;fill-rule:nonzero;fill:rgb(93.333334%,72.941178%,0%);fill-opacity:1;" d="M 221.71875 224.238281 L 220.039062 225.5 C 220.039062 240.816406 234.792969 224.238281 221.71875 224.238281 Z M 221.71875 224.238281 "/>
<path style=" stroke:none;fill-rule:nonzero;fill:rgb(93.333334%,72.941178%,0%);fill-opacity:1;" d="M 183.085938 225.078125 L 180.566406 228.859375 C 185.292969 238.3125 192.566406 225.078125 183.085938 225.078125 Z M 183.085938 225.078125 "/>
<path style=" stroke:none;fill-rule:nonzero;fill:rgb(10.196079%,90.588236%,100%);fill-opacity:1;" d="M 268.75 225.917969 C 268.75 227.933594 264.128906 228.851562 265.390625 231.375 C 267.738281 236.070312 278.667969 225.917969 273.367188 225.917969 C 272.335938 225.917969 270.59375 225.917969 268.75 225.917969 Z M 268.75 225.917969 "/>
<path style=" stroke:none;fill-rule:nonzero;fill:rgb(67.843139%,100%,18.431373%);fill-opacity:1;" d="M 115.058594 227.597656 C 115.058594 233.097656 119.953125 227.597656 115.058594 227.597656 Z M 115.058594 227.597656 "/>
<path style=" stroke:none;fill-rule:nonzero;fill:rgb(10.196079%,90.588236%,100%);fill-opacity:1;" d="M 140.253906 234.316406 L 141.09375 234.316406 C 141.09375 234.316406 142.773438 232.636719 142.773438 232.636719 C 142.773438 232.636719 141.933594 230.117188 141.933594 230.117188 C 140.019531 230.117188 135.214844 226.128906 132.273438 227.597656 C 128.996094 229.238281 137.953125 231.695312 138.15625 231.796875 C 138.15625 231.796875 140.253906 234.316406 140.253906 234.316406 Z M 140.253906 234.316406 "/>
<path style=" stroke:none;fill-rule:nonzero;fill:rgb(14.901961%,49.411765%,100%);fill-opacity:1;" d="M 256.992188 261.191406 C 256.992188 263.105469 259.761719 262.03125 260.351562 262.03125 C 262.511719 262.03125 267.910156 256.582031 267.910156 254.472656 C 267.910156 254.472656 268.75 253.632812 268.75 253.632812 C 268.75 253.632812 272.109375 250.695312 272.109375 250.695312 C 273.183594 248.546875 283.230469 235.683594 284.289062 235.15625 C 285.894531 234.351562 289.328125 229.699219 286.804688 228.4375 C 284.492188 227.28125 282.453125 231.796875 280.507812 231.796875 C 280.507812 233.234375 278.347656 234.316406 277.148438 234.316406 C 277.148438 234.316406 272.109375 238.515625 272.109375 238.515625 C 272.109375 239.523438 256.992188 256.609375 256.992188 261.191406 Z M 256.992188 261.191406 "/>
<path style=" stroke:none;fill-rule:nonzero;fill:rgb(88.235295%,94.117647%,5.098039%);fill-opacity:1;" d="M 251.953125 261.191406 C 251.953125 263.625 249.152344 265.390625 246.914062 265.390625 C 245.246094 265.390625 244.890625 262.605469 244.394531 261.609375 C 243.542969 259.90625 238.515625 261.929688 238.515625 251.53125 C 238.515625 251.53125 235.15625 249.851562 235.15625 249.851562 C 233.855469 248.554688 231.796875 244.8125 231.796875 243.554688 C 231.796875 243.554688 231.796875 242.714844 231.796875 242.714844 C 231.796875 242.714844 234.316406 241.035156 234.316406 241.035156 C 234.316406 241.035156 235.15625 240.195312 235.15625 240.195312 C 235.15625 240.195312 236.835938 239.355469 236.835938 239.355469 C 236.835938 239.355469 238.515625 238.515625 238.515625 238.515625 C 238.515625 238.515625 239.355469 237.675781 239.355469 237.675781 C 239.355469 237.675781 240.195312 236.835938 240.195312 236.835938 C 244.238281 236.835938 253.191406 230.117188 254.472656 230.117188 C 254.472656 232.664062 252.976562 233.53125 251.953125 235.578125 C 248.265625 242.953125 261.253906 243.734375 264.96875 241.875 C 264.96875 241.875 269.589844 238.515625 269.589844 238.515625 C 269.589844 242.378906 256.667969 250.503906 254.472656 254.890625 C 254.023438 255.785156 250.035156 261.191406 251.953125 261.191406 Z M 251.953125 261.191406 "/>
<path style=" stroke:none;fill-rule:nonzero;fill:rgb(14.901961%,49.411765%,100%);fill-opacity:1;" d="M 153.691406 264.550781 C 153.691406 266.78125 149.492188 262.859375 149.492188 266.230469 C 148.304688 266.230469 137.386719 247.753906 132.695312 247.753906 C 132.695312 247.753906 131.855469 246.074219 131.855469 246.074219 C 131.855469 242.082031 116.289062 232.636719 126.398438 232.636719 C 126.925781 232.636719 126.972656 234.316406 128.496094 234.316406 C 131.757812 234.316406 131.65625 238.515625 133.535156 238.515625 C 133.535156 238.921875 140.988281 244.605469 141.09375 244.8125 C 142.546875 247.722656 153.691406 263.375 153.691406 264.550781 Z M 153.691406 264.550781 "/>
<path style=" stroke:none;fill-rule:nonzero;fill:rgb(88.235295%,94.117647%,5.098039%);fill-opacity:1;" d="M 162.929688 260.351562 C 162.929688 259.355469 163.769531 259.355469 163.769531 260.351562 C 167.492188 260.351562 164.917969 257.046875 166.710938 256.152344 C 166.710938 256.152344 170.070312 256.152344 170.070312 256.152344 C 172.707031 254.832031 181.40625 247.910156 181.40625 245.234375 C 181.40625 245.234375 180.566406 242.714844 180.566406 242.714844 C 170.285156 242.714844 162.972656 232.636719 154.53125 232.636719 C 154.53125 235 156.382812 234.238281 157.050781 235.578125 C 157.050781 235.578125 156.632812 241.875 156.632812 241.875 C 156.632812 241.875 154.953125 240.195312 154.953125 240.195312 C 154.625 240.195312 151.675781 244.351562 151.59375 244.394531 C 149.332031 245.523438 149.207031 242.363281 148.234375 241.875 C 148.234375 241.875 143.195312 242.714844 143.195312 242.714844 C 143.195312 242.714844 140.253906 240.195312 140.253906 240.195312 C 140.253906 240.195312 140.253906 241.035156 140.253906 241.035156 C 140.253906 241.035156 151.171875 252.792969 151.171875 252.792969 C 151.171875 252.792969 152.011719 253.632812 152.011719 253.632812 C 152.011719 253.632812 152.011719 254.472656 152.011719 254.472656 C 152.011719 254.472656 152.851562 255.3125 152.851562 255.3125 C 152.851562 255.3125 155.371094 260.351562 155.371094 260.351562 C 158.257812 260.351562 160.042969 260.351562 162.929688 260.351562 Z M 162.929688 260.351562 "/>
<path style=" stroke:none;fill-rule:nonzero;fill:rgb(88.235295%,94.117647%,5.098039%);fill-opacity:1;" d="M 269.589844 238.515625 L 272.109375 238.515625 C 272.109375 238.515625 277.148438 234.316406 277.148438 234.316406 C 277.148438 234.316406 277.148438 233.476562 277.148438 233.476562 C 274.230469 233.476562 272.847656 236.835938 270.851562 236.835938 C 270.851562 236.835938 269.589844 238.515625 269.589844 238.515625 Z M 269.589844 238.515625 "/>
<path style=" stroke:none;fill-rule:nonzero;fill:rgb(88.235295%,94.117647%,5.098039%);fill-opacity:1;" d="M 140.253906 234.316406 L 141.09375 234.316406 C 141.09375 235.3125 140.253906 235.3125 140.253906 234.316406 Z M 140.253906 234.316406 "/>
<path style=" stroke:none;fill-rule:nonzero;fill:rgb(98.039216%,66.666669%,25.098041%);fill-opacity:1;" d="M 155.371094 260.351562 C 155.371094 260.878906 158.152344 267.410156 155.789062 266.230469 L 153.691406 264.550781 C 153.691406 263.375 142.546875 247.722656 141.09375 244.8125 C 140.988281 244.605469 133.535156 238.921875 133.535156 238.515625 C 136.433594 238.515625 137.6875 241.035156 140.253906 241.035156 C 140.253906 241.035156 151.171875 252.792969 151.171875 252.792969 C 151.171875 252.792969 152.011719 253.632812 152.011719 253.632812 C 152.011719 253.632812 152.011719 254.472656 152.011719 254.472656 C 152.011719 254.472656 152.851562 255.3125 152.851562 255.3125 C 152.851562 255.3125 155.371094 260.351562 155.371094 260.351562 Z M 155.371094 260.351562 "/>
<path style=" stroke:none;fill-rule:nonzero;fill:rgb(98.039216%,66.666669%,25.098041%);fill-opacity:1;" d="M 251.953125 261.191406 L 256.992188 261.191406 C 256.992188 256.609375 272.109375 239.523438 272.109375 238.515625 C 272.109375 238.515625 269.589844 238.515625 269.589844 238.515625 C 269.589844 242.378906 256.667969 250.503906 254.472656 254.890625 C 254.023438 255.785156 250.035156 261.191406 251.953125 261.191406 Z M 251.953125 261.191406 "/>
<path style=" stroke:none;fill-rule:nonzero;fill:rgb(0.784314%,17.254902%,100%);fill-opacity:1;" d="M 203.242188 285.546875 C 204.757812 285.546875 205.761719 289.96875 205.761719 286.386719 C 205.761719 286.386719 205.761719 244.394531 205.761719 244.394531 C 205.761719 239.988281 203.242188 236.707031 203.242188 243.554688 C 203.242188 243.554688 203.242188 285.546875 203.242188 285.546875 Z M 203.242188 285.546875 "/>
<path style=" stroke:none;fill-rule:evenodd;fill:rgb(88.627452%,47.058824%,63.137257%);fill-opacity:1;" d="M 231.796875 252.792969 L 229.277344 254.054688 C 229.277344 255.28125 229.566406 255.667969 230.539062 256.152344 L 233.054688 258.671875 C 235.6875 259.988281 234.96875 252.792969 231.796875 252.792969 M 246.914062 265.390625 C 246.914062 269.710938 242.714844 273.074219 242.714844 275.046875 L 243.554688 276.726562 L 240.195312 279.25 C 240.195312 284.035156 237.675781 283.039062 237.675781 285.96875 L 239.355469 286.804688 C 239.355469 288.128906 235.457031 287.707031 234.734375 288.066406 C 230.980469 289.945312 227.425781 292.265625 222.976562 292.265625 C 220.699219 292.265625 216.824219 288.625 214.578125 289.746094 L 212.0625 292.265625 C 210.253906 292.265625 208.25 286.386719 205.761719 286.386719 C 205.761719 286.386719 205.761719 244.394531 205.761719 244.394531 C 210.085938 244.394531 218.417969 244.15625 222.976562 241.875 C 224.898438 240.914062 224.828125 243.554688 225.5 243.554688 C 225.5 243.554688 230.957031 241.875 230.957031 241.875 C 230.957031 241.875 231.796875 243.554688 231.796875 243.554688 C 231.796875 244.8125 233.855469 248.554688 235.15625 249.851562 C 235.15625 249.851562 238.515625 251.53125 238.515625 251.53125 C 238.515625 261.929688 243.542969 259.90625 244.394531 261.609375 C 244.890625 262.605469 245.246094 265.390625 246.914062 265.390625 Z M 246.914062 265.390625 "/>
<path style=" stroke:none;fill-rule:evenodd;fill:rgb(88.627452%,47.058824%,63.137257%);fill-opacity:1;" d="M 175.527344 252.792969 C 175.527344 254.664062 173.859375 254.867188 173.007812 256.570312 C 172 258.585938 174.414062 260.351562 175.945312 260.351562 C 177.214844 260.351562 180.152344 252.792969 175.527344 252.792969 M 162.929688 260.351562 L 163.769531 260.351562 C 167.492188 260.351562 164.917969 257.046875 166.710938 256.152344 C 166.710938 256.152344 170.070312 256.152344 170.070312 256.152344 C 172.707031 254.832031 181.40625 247.910156 181.40625 245.234375 C 182.28125 245.234375 185.605469 244.40625 185.605469 243.554688 C 192.035156 243.554688 196.773438 243.554688 203.242188 243.554688 C 203.242188 243.554688 203.242188 285.546875 203.242188 285.546875 C 203.242188 292.097656 180.949219 293.085938 175.945312 290.585938 C 165.496094 285.359375 168.109375 279.527344 164.609375 272.53125 C 164.609375 272.53125 160.410156 267.492188 160.410156 267.492188 C 159.292969 265.257812 162.929688 262.109375 162.929688 260.351562 Z M 162.929688 260.351562 "/>
<path style=" stroke:none;fill-rule:nonzero;fill:rgb(8.235294%,75.294119%,100%);fill-opacity:1;" d="M 175.527344 252.792969 C 175.527344 254.664062 173.859375 254.867188 173.007812 256.570312 C 172 258.585938 174.414062 260.351562 175.945312 260.351562 C 177.214844 260.351562 180.152344 252.792969 175.527344 252.792969 Z M 175.527344 252.792969 "/>
<path style=" stroke:none;fill-rule:nonzero;fill:rgb(8.235294%,75.294119%,100%);fill-opacity:1;" d="M 231.796875 252.792969 L 229.277344 254.054688 C 229.277344 255.28125 229.566406 255.667969 230.539062 256.152344 L 233.054688 258.671875 C 235.6875 259.988281 234.96875 252.792969 231.796875 252.792969 Z M 231.796875 252.792969 "/>
<path style=" stroke:none;fill-rule:nonzero;fill:rgb(98.039216%,50.196081%,44.705883%);fill-opacity:1;" d="M 119.257812 292.265625 L 120.097656 292.265625 C 122.839844 292.265625 120.9375 293.171875 120.9375 294.367188 C 120.9375 294.367188 125.136719 296.046875 125.136719 296.046875 C 127.207031 300.1875 129.292969 304.023438 133.953125 304.023438 C 135.742188 304.023438 135.214844 300 135.214844 298.984375 C 135.214844 296.835938 133.914062 289.34375 136.476562 288.066406 C 146.0625 283.273438 147.347656 282.585938 156.632812 287.226562 C 156.632812 287.226562 159.148438 290.585938 159.148438 290.585938 C 160.757812 291.390625 162.632812 289.574219 163.769531 291.84375 C 163.769531 291.84375 162.929688 300.242188 162.929688 300.242188 C 163.976562 302.335938 168.707031 305.488281 167.128906 308.640625 C 164.09375 314.71875 154.011719 313.039062 152.851562 315.359375 C 152.851562 315.359375 152.851562 317.882812 152.851562 317.882812 C 152.402344 318.785156 149.882812 318.65625 150.332031 319.5625 C 150.332031 319.5625 152.429688 321.660156 152.429688 321.660156 C 145.039062 325.355469 146.59375 316.289062 146.132812 315.359375 C 145.386719 313.867188 142.1875 315.871094 141.09375 313.679688 C 141.09375 313.679688 139.835938 307.382812 139.835938 307.382812 C 139.492188 307.382812 139.238281 311.042969 138.15625 311.582031 C 136.425781 312.445312 135.214844 309.902344 133.953125 309.902344 C 132.695312 309.902344 131.484375 312.445312 129.757812 311.582031 C 129.757812 311.582031 126.398438 308.222656 126.398438 308.222656 C 126.398438 308.222656 124.71875 310.742188 124.71875 310.742188 C 121.792969 312.203125 118.359375 312.660156 115.476562 314.101562 C 114.460938 314.609375 114.648438 316.617188 112.960938 317.460938 C 111.292969 318.292969 110.085938 314.941406 109.601562 314.941406 C 107.109375 314.941406 101.027344 322.574219 98.261719 317.039062 C 97.453125 315.421875 98.488281 312.382812 99.101562 311.164062 C 99.714844 309.9375 97.226562 305.675781 98.261719 303.601562 C 99.398438 301.332031 101.273438 303.148438 102.882812 302.34375 C 103.152344 302.207031 108.035156 295.988281 110.4375 294.785156 C 112.339844 293.835938 119.257812 295.628906 119.257812 292.265625 Z M 119.257812 292.265625 "/>
<path style=" stroke:none;fill-rule:evenodd;fill:rgb(98.039216%,50.196081%,44.705883%);fill-opacity:1;" d="M 297.304688 300.664062 C 297.304688 302.285156 298.925781 300.664062 297.304688 300.664062 M 287.226562 290.585938 L 293.105469 292.265625 C 299.21875 292.265625 310.5625 298.207031 313.261719 303.601562 C 314.730469 306.542969 312.753906 316.246094 310.320312 317.460938 C 307.78125 318.730469 308.179688 314.710938 306.960938 314.101562 C 305.628906 313.433594 301.53125 315.164062 299.40625 314.101562 C 299.40625 314.101562 297.726562 311.582031 297.726562 311.582031 C 295.730469 310.585938 297.027344 314.101562 296.046875 314.101562 C 296.046875 314.101562 294.367188 310.742188 294.367188 310.742188 C 292.226562 309.671875 292.453125 313.144531 291.007812 312.421875 C 289.339844 311.589844 287.492188 311.503906 285.96875 310.742188 C 285.96875 310.742188 284.289062 307.382812 284.289062 307.382812 C 284.289062 307.382812 280.929688 307.382812 280.929688 307.382812 C 280.929688 307.382812 279.25 304.863281 279.25 304.863281 C 277.4375 304.863281 270.628906 315.050781 267.492188 316.621094 C 262.496094 319.117188 259.761719 313.261719 258.25 313.261719 C 248.046875 313.261719 249.535156 318.082031 242.714844 304.445312 C 241.90625 302.824219 242.941406 299.785156 243.554688 298.5625 C 244.105469 297.460938 241.757812 293.757812 242.714844 291.84375 C 245.460938 286.355469 254.25 284.707031 260.351562 284.707031 C 260.351562 284.707031 265.8125 283.027344 265.8125 283.027344 C 271.460938 285.851562 271.6875 283.867188 275.046875 285.546875 C 277.210938 286.628906 275.402344 289.503906 275.890625 289.746094 C 275.890625 289.746094 280.085938 289.746094 280.085938 289.746094 C 283.410156 291.40625 281.703125 297.273438 283.445312 298.144531 C 286.972656 299.90625 287.226562 292.46875 287.226562 290.585938 Z M 287.226562 290.585938 "/>
<path style=" stroke:none;fill-rule:nonzero;fill:rgb(98.039216%,50.196081%,44.705883%);fill-opacity:1;" d="M 132.695312 290.585938 C 132.695312 290.921875 127.972656 292.632812 130.59375 293.945312 C 133.320312 295.308594 136.414062 290.585938 132.695312 290.585938 Z M 132.695312 290.585938 "/>
<path style=" stroke:none;fill-rule:nonzero;fill:rgb(98.039216%,50.196081%,44.705883%);fill-opacity:1;" d="M 162.929688 314.101562 C 162.929688 317.109375 157.8125 315.519531 157.050781 317.039062 C 155.5625 320.019531 159.78125 318.617188 160.828125 319.140625 L 163.351562 321.660156 C 166.644531 323.308594 169.804688 314.101562 162.929688 314.101562 Z M 162.929688 314.101562 "/>
</g>
</svg>
