<?xml version="1.0" encoding="UTF-8"?>
<svg xmlns="http://www.w3.org/2000/svg" xmlns:xlink="http://www.w3.org/1999/xlink" width="430px" height="430px" viewBox="0 0 430 430" version="1.1">
<g id="surface1">
<rect x="0" y="0" width="430" height="430" style="fill:rgb(0%,0%,0%);fill-opacity:1;stroke:none;"/>
<path style=" stroke:none;fill-rule:evenodd;fill:rgb(52.549022%,100%,35.294119%);fill-opacity:1;" d="M 207.441406 298.984375 C 207.441406 301.046875 200.722656 298.84375 200.722656 300.242188 C 200.722656 300.449219 202.925781 309.117188 204.5 309.902344 C 209.878906 312.589844 210.730469 298.984375 207.441406 298.984375 M 197.363281 267.070312 C 197.363281 268.382812 190.527344 268.179688 189.382812 268.75 L 188.546875 270.429688 L 182.664062 271.269531 C 179.75 272.726562 177.898438 276.175781 174.265625 277.988281 C 170.84375 279.699219 166.664062 298.65625 164.609375 302.765625 C 160.914062 310.15625 170.035156 330.882812 175.109375 333.417969 L 176.789062 337.617188 C 180.488281 339.46875 184.9375 340.011719 188.546875 341.816406 C 190.523438 342.804688 198.914062 345.449219 201.140625 344.335938 L 206.179688 339.296875 L 212.0625 344.335938 C 219.320312 347.964844 228.300781 340.414062 232.21875 338.457031 L 234.734375 334.257812 C 234.890625 334.257812 238.417969 333.191406 238.515625 333 C 241.953125 326.125 244.308594 318.890625 247.753906 312 C 249.382812 308.746094 244.933594 296.285156 243.554688 293.523438 C 241.671875 289.757812 242.097656 284.734375 240.195312 280.929688 C 239.234375 279.003906 237.773438 279.507812 236.414062 278.828125 C 233.667969 277.453125 232.683594 274.441406 229.695312 272.949219 C 220.375 268.289062 208.183594 267.070312 197.363281 267.070312 Z M 197.363281 267.070312 "/>
<path style=" stroke:none;fill-rule:evenodd;fill:rgb(92.156863%,34.117648%,100%);fill-opacity:1;" d="M 204.921875 303.183594 C 204.921875 307.714844 208.121094 303.183594 204.921875 303.183594 M 207.441406 298.984375 C 207.441406 301.046875 200.722656 298.84375 200.722656 300.242188 C 200.722656 300.449219 202.925781 309.117188 204.5 309.902344 C 209.878906 312.589844 210.730469 298.984375 207.441406 298.984375 Z M 207.441406 298.984375 "/>
<path style=" stroke:none;fill-rule:nonzero;fill:rgb(15.294118%,95.686275%,99.215686%);fill-opacity:1;" d="M 204.921875 303.183594 C 204.921875 307.714844 208.121094 303.183594 204.921875 303.183594 Z M 204.921875 303.183594 "/>
</g>
</svg>
