<?xml version="1.0" encoding="UTF-8"?>
<svg xmlns="http://www.w3.org/2000/svg" xmlns:xlink="http://www.w3.org/1999/xlink" width="430px" height="430px" viewBox="0 0 430 430" version="1.1">
<g id="surface1">
<rect x="0" y="0" width="430" height="430" style="fill:rgb(0%,0%,0%);fill-opacity:1;stroke:none;"/>
<path style=" stroke:none;fill-rule:nonzero;fill:rgb(100%,89.019608%,0%);fill-opacity:1;" d="M 211.640625 123.457031 C 214.882812 123.457031 224.847656 121.871094 226.335938 122.617188 C 229.78125 124.339844 232.609375 128.019531 234.316406 131.4375 C 235.808594 134.421875 237.890625 136.90625 239.355469 139.835938 C 239.597656 140.316406 235.996094 162.023438 235.996094 165.449219 C 237.796875 165.449219 236.316406 161.871094 236.835938 160.828125 C 239.132812 156.230469 237.476562 148.632812 239.355469 144.875 C 241.136719 141.308594 242.570312 146.847656 243.554688 144.875 C 244.488281 143.007812 245.535156 135.398438 244.394531 133.117188 C 243.554688 131.4375 239.355469 132.472656 239.355469 130.59375 C 239.355469 126.046875 228.285156 121.070312 224.65625 119.257812 C 222.699219 118.277344 211.640625 121.890625 211.640625 123.457031 Z M 211.640625 123.457031 "/>
<path style=" stroke:none;fill-rule:nonzero;fill:rgb(100%,89.019608%,0%);fill-opacity:1;" d="M 194.84375 123.457031 C 195.011719 123.457031 187.664062 119.277344 184.34375 120.9375 L 168.390625 129.335938 C 167.007812 130.027344 161.25 140.71875 161.25 142.351562 L 162.929688 143.195312 L 163.351562 146.132812 L 166.289062 146.554688 C 167.433594 148.84375 164.046875 149.625 164.609375 150.75 L 167.128906 150.75 C 169.34375 152.96875 167.253906 160.410156 171.328125 160.410156 C 171.328125 156.410156 169.648438 153.261719 169.648438 149.914062 C 169.648438 149.914062 171.328125 145.710938 171.328125 145.710938 C 170.792969 144.640625 168.808594 143.421875 168.808594 141.515625 C 168.808594 129.613281 183.6875 123.457031 194.84375 123.457031 Z M 194.84375 123.457031 "/>
<path style=" stroke:none;fill-rule:nonzero;fill:rgb(100%,52.941179%,0%);fill-opacity:1;" d="M 235.996094 167.128906 L 235.996094 173.847656 C 234.261719 173.847656 235.636719 176.664062 235.15625 177.625 C 233.710938 180.515625 231.894531 187.542969 226.335938 184.765625 C 224.558594 183.875 222.289062 180.222656 221.296875 179.726562 C 221.296875 179.726562 217.519531 178.46875 217.519531 178.46875 C 216.035156 175.5 216.492188 171.371094 215 168.390625 C 209.039062 156.464844 204.921875 146.246094 204.921875 131.855469 C 205.617188 131.855469 206.992188 126.453125 207.441406 125.554688 C 207.441406 125.554688 211.640625 123.457031 211.640625 123.457031 C 214.882812 123.457031 224.847656 121.871094 226.335938 122.617188 C 229.78125 124.339844 232.609375 128.019531 234.316406 131.4375 C 235.808594 134.421875 237.890625 136.90625 239.355469 139.835938 C 239.597656 140.316406 235.996094 162.023438 235.996094 165.449219 C 234.820312 165.449219 234.820312 167.128906 235.996094 167.128906 Z M 235.996094 167.128906 "/>
<path style=" stroke:none;fill-rule:nonzero;fill:rgb(100%,52.941179%,0%);fill-opacity:1;" d="M 173.847656 178.886719 C 173.847656 188.640625 177.867188 183.925781 183.085938 183.925781 C 183.085938 183.925781 188.964844 178.46875 188.964844 178.46875 C 190.007812 176.378906 190.398438 173.917969 191.484375 171.75 C 193.539062 167.640625 193.648438 162.382812 195.683594 158.3125 C 195.683594 158.3125 199.042969 154.953125 199.042969 154.953125 C 202.597656 147.839844 203.242188 139.621094 203.242188 131.015625 C 201.632812 131.015625 202.320312 126.566406 201.140625 125.976562 C 200.246094 125.527344 194.84375 124.152344 194.84375 123.457031 C 183.6875 123.457031 168.808594 129.613281 168.808594 141.515625 C 168.808594 143.421875 170.792969 144.640625 171.328125 145.710938 C 171.328125 145.710938 169.648438 149.914062 169.648438 149.914062 C 169.648438 153.261719 171.328125 156.410156 171.328125 160.410156 C 171.328125 160.410156 172.167969 163.769531 172.167969 163.769531 C 173.40625 163.769531 173.007812 165.410156 173.007812 166.289062 C 173.007812 166.289062 173.847656 173.007812 173.847656 173.007812 C 175.996094 173.007812 173.847656 175.808594 173.847656 176.367188 C 173.847656 176.367188 173.847656 178.886719 173.847656 178.886719 Z M 173.847656 178.886719 "/>
<path style=" stroke:none;fill-rule:nonzero;fill:rgb(100%,89.019608%,0%);fill-opacity:1;" d="M 235.996094 173.847656 C 235.996094 180.320312 234.316406 183.792969 234.316406 190.226562 C 234.316406 191.339844 225.441406 188.515625 224.65625 188.125 L 221.296875 188.125 C 220.445312 187.699219 221.507812 184.765625 220.878906 183.507812 L 214.578125 182.246094 L 212.898438 178.886719 L 208.28125 175.945312 C 208.28125 174.964844 211.796875 176.261719 210.800781 174.265625 L 208.703125 173.847656 C 207.1875 173.089844 206.601562 167.285156 206.601562 164.609375 C 206.601562 160.644531 206.601562 156.320312 206.601562 153.273438 L 204.921875 151.59375 C 204.921875 151.421875 206.3125 149.492188 204.5 149.492188 L 202.402344 155.371094 C 202.402344 158.257812 204.351562 167.007812 202.402344 170.90625 C 200.988281 173.738281 196.777344 174.855469 193.585938 178.046875 L 191.0625 182.246094 C 189.03125 183.261719 185.503906 183.925781 183.085938 183.925781 C 183.085938 183.925781 188.964844 178.46875 188.964844 178.46875 C 190.007812 176.378906 190.398438 173.917969 191.484375 171.75 C 193.539062 167.640625 193.648438 162.382812 195.683594 158.3125 C 195.683594 158.3125 199.042969 154.953125 199.042969 154.953125 C 202.597656 147.839844 203.242188 139.621094 203.242188 131.015625 C 203.242188 127.519531 204.921875 129.007812 204.921875 131.855469 C 204.921875 146.246094 209.039062 156.464844 215 168.390625 C 216.492188 171.371094 216.035156 175.5 217.519531 178.46875 C 217.519531 178.46875 221.296875 179.726562 221.296875 179.726562 C 222.289062 180.222656 224.558594 183.875 226.335938 184.765625 C 231.894531 187.542969 233.710938 180.515625 235.15625 177.625 C 235.636719 176.664062 234.261719 173.847656 235.996094 173.847656 Z M 235.996094 173.847656 "/>
<path style=" stroke:none;fill-rule:nonzero;fill:rgb(100%,89.019608%,0%);fill-opacity:1;" d="M 163.769531 146.972656 C 163.769531 148.730469 166.914062 146.972656 163.769531 146.972656 Z M 163.769531 146.972656 "/>
<path style=" stroke:none;fill-rule:nonzero;fill:rgb(100%,89.019608%,0%);fill-opacity:1;" d="M 172.167969 163.769531 C 173.40625 163.769531 173.007812 165.410156 173.007812 166.289062 C 171.769531 166.289062 172.167969 164.648438 172.167969 163.769531 Z M 172.167969 163.769531 "/>
<path style=" stroke:none;fill-rule:nonzero;fill:rgb(100%,89.019608%,0%);fill-opacity:1;" d="M 235.996094 165.449219 C 234.820312 165.449219 234.820312 167.128906 235.996094 167.128906 C 235.996094 167.128906 235.996094 165.449219 235.996094 165.449219 Z M 235.996094 165.449219 "/>
<path style=" stroke:none;fill-rule:nonzero;fill:rgb(100%,89.019608%,0%);fill-opacity:1;" d="M 173.847656 173.007812 C 175.996094 173.007812 173.847656 175.808594 173.847656 176.367188 C 171.300781 176.367188 173.011719 173.007812 173.847656 173.007812 Z M 173.847656 173.007812 "/>
<path style=" stroke:none;fill-rule:nonzero;fill:rgb(100%,89.019608%,0%);fill-opacity:1;" d="M 173.847656 178.886719 C 171.167969 178.886719 175.078125 186.808594 175.527344 187.703125 L 175.109375 190.644531 C 176.511719 191.347656 179.292969 186.871094 180.148438 186.445312 C 182.445312 185.296875 183.085938 187.683594 183.085938 183.925781 C 177.867188 183.925781 173.847656 188.640625 173.847656 178.886719 Z M 173.847656 178.886719 "/>
<path style=" stroke:none;fill-rule:nonzero;fill:rgb(100%,89.019608%,0%);fill-opacity:1;" d="M 181.40625 188.125 C 181.40625 189.746094 183.027344 188.125 181.40625 188.125 Z M 181.40625 188.125 "/>
<path style=" stroke:none;fill-rule:nonzero;fill:rgb(98.039216%,50.196081%,44.705883%);fill-opacity:1;" d="M 136.054688 298.144531 L 131.855469 302.765625 C 131.855469 304.03125 136.867188 304.5 134.375 309.484375 C 133.121094 311.996094 128.410156 310.492188 127.65625 312 C 126.679688 313.957031 126.867188 318.824219 127.65625 320.398438 L 129.335938 321.242188 C 129.335938 322.925781 125.761719 325.011719 126.816406 327.117188 C 130.382812 334.253906 139.910156 334.640625 145.710938 331.738281 L 149.070312 332.578125 C 149.695312 332.265625 151.46875 313.433594 151.171875 312.84375 C 149.925781 310.347656 146.691406 312.277344 146.132812 311.164062 C 144.253906 307.40625 152.121094 298.144531 136.054688 298.144531 Z M 136.054688 298.144531 "/>
<path style=" stroke:none;fill-rule:evenodd;fill:rgb(98.039216%,50.196081%,44.705883%);fill-opacity:1;" d="M 271.269531 314.101562 C 271.269531 320.324219 274.191406 314.101562 271.269531 314.101562 M 274.628906 299.824219 C 274.628906 300.023438 270.25 303.121094 269.589844 304.445312 L 268.75 309.484375 C 268.808594 309.597656 270.675781 312.421875 269.171875 312.421875 C 265.773438 312.421875 263.277344 308.667969 260.351562 314.523438 C 258.75 317.726562 262.097656 319.691406 262.871094 321.242188 C 263.027344 321.554688 256.664062 329.265625 263.289062 332.578125 C 266.777344 334.320312 271.011719 328.878906 271.6875 329.21875 C 279.886719 333.316406 277.246094 327.539062 282.609375 327.539062 C 282.957031 327.539062 284.777344 331.738281 285.125 331.738281 L 285.546875 317.882812 L 284.289062 318.300781 C 282.507812 318.300781 283.078125 322.179688 281.347656 318.71875 C 279.4375 314.898438 288.214844 299.824219 274.628906 299.824219 Z M 274.628906 299.824219 "/>
</g>
</svg>
