<?xml version="1.0" encoding="UTF-8"?>
<svg xmlns="http://www.w3.org/2000/svg" xmlns:xlink="http://www.w3.org/1999/xlink" width="430px" height="430px" viewBox="0 0 430 430" version="1.1">
<g id="surface1">
<rect x="0" y="0" width="430" height="430" style="fill:rgb(0%,0%,0%);fill-opacity:1;stroke:none;"/>
<path style=" stroke:none;fill-rule:nonzero;fill:rgb(98.039216%,50.196081%,44.705883%);fill-opacity:1;" d="M 134.375 291.425781 L 131.855469 292.6875 C 129.796875 294.746094 128.804688 296.265625 127.65625 298.5625 L 129.335938 303.601562 L 127.65625 306.125 C 126.089844 309.257812 129.777344 317.835938 127.65625 322.078125 L 120.515625 323.339844 L 115.058594 329.640625 L 115.476562 334.257812 L 118.835938 330.898438 L 120.515625 332.578125 L 124.71875 331.738281 L 129.757812 338.457031 C 131.355469 339.257812 132.039062 337.316406 133.117188 336.777344 L 138.15625 336.777344 C 141.152344 335.277344 144.613281 331 146.132812 327.960938 C 147.644531 324.9375 143.84375 321.703125 142.773438 319.5625 C 142.144531 318.304688 143.175781 317.082031 143.613281 316.203125 L 142.773438 313.679688 L 143.613281 306.125 L 141.933594 303.601562 L 143.613281 300.242188 C 145.808594 295.851562 137.566406 291.425781 134.375 291.425781 Z M 134.375 291.425781 "/>
<path style=" stroke:none;fill-rule:nonzero;fill:rgb(98.039216%,50.196081%,44.705883%);fill-opacity:1;" d="M 274.628906 293.105469 L 272.109375 296.046875 L 274.628906 297.726562 C 274.839844 298.148438 275.300781 319.898438 274.628906 321.242188 C 273.265625 323.964844 271.835938 319.269531 268.75 325.4375 C 266.675781 329.585938 273.824219 331.390625 274.628906 333 L 275.046875 339.296875 L 275.890625 333.417969 C 276.355469 333.183594 281.984375 336.792969 282.1875 337.195312 L 282.609375 339.296875 C 285.621094 339.296875 285.546875 336.738281 285.546875 334.257812 L 285.96875 330.898438 L 288.484375 333.417969 C 291.625 334.988281 294.578125 330.890625 295.625 328.796875 C 296.792969 326.460938 291.664062 321.332031 289.328125 322.5 L 285.96875 325.019531 L 285.546875 318.71875 L 283.867188 318.71875 L 283.867188 312 L 282.1875 311.164062 L 282.1875 296.882812 C 281.6875 295.886719 276.089844 293.105469 274.628906 293.105469 Z M 274.628906 293.105469 "/>
</g>
</svg>
