<?xml version="1.0" encoding="UTF-8"?>
<svg xmlns="http://www.w3.org/2000/svg" xmlns:xlink="http://www.w3.org/1999/xlink" width="430px" height="430px" viewBox="0 0 430 430" version="1.1">
<g id="surface1">
<rect x="0" y="0" width="430" height="430" style="fill:rgb(0%,0%,0%);fill-opacity:1;stroke:none;"/>
<path style=" stroke:none;fill-rule:nonzero;fill:rgb(100%,89.019608%,0%);fill-opacity:1;" d="M 177.207031 223.398438 C 177.207031 226.875 180.699219 224.238281 182.246094 224.238281 C 191.742188 224.238281 190.238281 219.613281 196.101562 216.679688 L 200.722656 216.257812 C 203.519531 210.664062 202.402344 207.289062 202.402344 200.722656 C 202.402344 199.703125 202.90625 195.726562 204.5 196.523438 C 206.082031 197.3125 206.226562 210.472656 207.441406 212.898438 L 216.257812 220.878906 L 219.617188 220.878906 C 223.214844 222.675781 236.835938 235.066406 236.835938 225.078125 C 229.335938 225.078125 216.707031 214.636719 213.320312 207.859375 C 212.328125 205.878906 212.667969 203.195312 211.640625 201.140625 C 211.640625 201.140625 210.800781 179.304688 210.800781 179.304688 C 207.804688 173.316406 210.851562 163.246094 213.320312 158.3125 C 214.53125 155.886719 211.8125 141.859375 210.800781 139.835938 C 209.65625 137.542969 211.898438 135.960938 212.480469 134.796875 C 212.480469 134.796875 212.480469 129.757812 212.480469 129.757812 C 218.941406 116.832031 227.03125 120.9375 238.515625 120.9375 C 238.515625 117.988281 221.199219 117.628906 219.617188 118.417969 C 219.617188 118.417969 217.101562 121.777344 217.101562 121.777344 C 209.785156 129.09375 208.28125 135.226562 208.28125 146.972656 C 215.550781 146.972656 209.347656 161.152344 206.179688 159.570312 C 206.179688 159.570312 203.664062 153.691406 203.664062 153.691406 C 203.664062 153.691406 199.882812 150.75 199.882812 150.75 C 198.363281 147.710938 202.402344 146.640625 202.402344 145.292969 C 202.402344 140 202.917969 134.144531 200.722656 129.757812 C 199.246094 126.800781 195.636719 125.464844 194.003906 122.195312 C 194.003906 122.195312 191.0625 117.578125 191.0625 117.578125 C 191.0625 117.578125 175.945312 117.578125 175.945312 117.578125 C 175.945312 117.578125 170.90625 121.777344 170.90625 121.777344 C 170.90625 121.777344 166.710938 121.777344 166.710938 121.777344 C 166.710938 121.777344 165.03125 124.296875 165.03125 124.296875 C 152.835938 130.394531 146.972656 147.550781 146.972656 161.25 C 146.972656 168.722656 148.652344 176.03125 148.652344 183.085938 C 148.652344 184.808594 149.84375 190.644531 151.171875 190.644531 C 151.171875 189.769531 152.777344 181.132812 152.851562 180.984375 C 152.851562 180.984375 155.371094 179.304688 155.371094 179.304688 C 155.371094 177.144531 151.171875 172.996094 151.171875 170.90625 C 151.171875 170.90625 152.851562 170.070312 152.851562 170.070312 C 152.851562 170.070312 151.171875 166.710938 151.171875 166.710938 C 151.171875 162.636719 152.167969 159.464844 150.332031 155.789062 C 150.332031 155.789062 152.011719 153.273438 152.011719 153.273438 C 152.695312 151.898438 151.523438 148.367188 152.851562 145.710938 C 154.085938 143.242188 154.117188 139.820312 155.371094 137.3125 C 158.789062 130.480469 168.390625 123.875 174.265625 120.9375 C 174.265625 120.9375 179.304688 120.9375 179.304688 120.9375 C 180.847656 120.167969 185.765625 119.128906 187.703125 120.097656 C 191.539062 122.015625 202.09375 132.890625 199.882812 137.3125 C 199.882812 137.3125 198.203125 138.15625 198.203125 138.15625 C 198.203125 138.15625 199.882812 139.835938 199.882812 139.835938 C 199.882812 139.835938 196.523438 142.351562 196.523438 142.351562 C 194.757812 145.882812 199.285156 159.632812 200.722656 162.507812 C 200.722656 162.507812 199.042969 165.03125 199.042969 165.03125 C 199.042969 165.03125 200.722656 166.710938 200.722656 166.710938 C 201.824219 168.910156 197.347656 192.773438 195.683594 196.101562 C 195.683594 196.101562 195.683594 200.304688 195.683594 200.304688 C 194.226562 203.21875 191.933594 216.246094 189.382812 217.519531 C 189.382812 217.519531 184.34375 219.199219 184.34375 219.199219 C 181.882812 220.429688 181.046875 222.558594 178.046875 222.558594 C 178.046875 222.558594 177.207031 223.398438 177.207031 223.398438 Z M 177.207031 223.398438 "/>
<path style=" stroke:none;fill-rule:nonzero;fill:rgb(100%,52.941179%,0%);fill-opacity:1;" d="M 178.046875 222.558594 L 177.207031 223.398438 C 168.441406 223.398438 160.390625 213.703125 157.050781 207.023438 C 155.667969 204.257812 156.722656 201.328125 155.371094 198.625 C 153.878906 195.640625 151.171875 194.199219 151.171875 190.644531 C 151.171875 189.769531 152.777344 181.132812 152.851562 180.984375 C 152.851562 180.984375 155.371094 179.304688 155.371094 179.304688 C 155.371094 177.144531 151.171875 172.996094 151.171875 170.90625 C 151.171875 170.90625 152.851562 170.070312 152.851562 170.070312 C 152.851562 170.070312 151.171875 166.710938 151.171875 166.710938 C 151.171875 162.636719 152.167969 159.464844 150.332031 155.789062 C 150.332031 155.789062 152.011719 153.273438 152.011719 153.273438 C 152.695312 151.898438 151.523438 148.367188 152.851562 145.710938 C 154.085938 143.242188 154.117188 139.820312 155.371094 137.3125 C 158.789062 130.480469 168.390625 123.875 174.265625 120.9375 C 174.265625 120.9375 179.304688 120.9375 179.304688 120.9375 C 180.847656 120.167969 185.765625 119.128906 187.703125 120.097656 C 191.539062 122.015625 202.09375 132.890625 199.882812 137.3125 C 199.882812 137.3125 198.203125 138.15625 198.203125 138.15625 C 198.203125 138.15625 199.882812 139.835938 199.882812 139.835938 C 199.882812 139.835938 196.523438 142.351562 196.523438 142.351562 C 194.757812 145.882812 199.285156 159.632812 200.722656 162.507812 C 200.722656 162.507812 199.042969 165.03125 199.042969 165.03125 C 199.042969 165.03125 200.722656 166.710938 200.722656 166.710938 C 201.824219 168.910156 197.347656 192.773438 195.683594 196.101562 C 195.683594 196.101562 195.683594 200.304688 195.683594 200.304688 C 194.226562 203.21875 191.933594 216.246094 189.382812 217.519531 C 189.382812 217.519531 184.34375 219.199219 184.34375 219.199219 C 181.882812 220.429688 181.046875 222.558594 178.046875 222.558594 Z M 178.046875 222.558594 "/>
<path style=" stroke:none;fill-rule:nonzero;fill:rgb(100%,52.941179%,0%);fill-opacity:1;" d="M 244.394531 220.039062 C 244.394531 222.5625 239.09375 225.078125 236.835938 225.078125 C 229.335938 225.078125 216.707031 214.636719 213.320312 207.859375 C 212.328125 205.878906 212.667969 203.195312 211.640625 201.140625 C 211.640625 201.140625 210.800781 179.304688 210.800781 179.304688 C 207.804688 173.316406 210.851562 163.246094 213.320312 158.3125 C 214.53125 155.886719 211.8125 141.859375 210.800781 139.835938 C 209.65625 137.542969 211.898438 135.960938 212.480469 134.796875 C 212.480469 134.796875 212.480469 129.757812 212.480469 129.757812 C 218.941406 116.832031 227.03125 120.9375 238.515625 120.9375 C 238.515625 120.9375 239.355469 120.9375 239.355469 120.9375 C 239.355469 122.863281 240.191406 122.617188 241.875 122.617188 C 241.875 122.617188 242.714844 122.617188 242.714844 122.617188 C 242.714844 124.730469 248.414062 125.195312 249.433594 127.234375 C 252.050781 132.46875 256.644531 137.457031 259.511719 143.195312 C 264.695312 153.5625 258.671875 180.027344 258.671875 191.484375 C 258.671875 195.171875 251.945312 218.359375 246.074219 218.359375 C 246.074219 218.359375 244.394531 220.039062 244.394531 220.039062 Z M 244.394531 220.039062 "/>
<path style=" stroke:none;fill-rule:nonzero;fill:rgb(100%,89.019608%,0%);fill-opacity:1;" d="M 239.355469 120.9375 C 240.394531 120.9375 241.875 121.292969 241.875 122.617188 C 240.191406 122.617188 239.355469 122.863281 239.355469 120.9375 Z M 239.355469 120.9375 "/>
<path style=" stroke:none;fill-rule:nonzero;fill:rgb(100%,89.019608%,0%);fill-opacity:1;" d="M 242.714844 122.617188 C 245.390625 122.617188 245.195312 124.066406 247.335938 125.136719 C 248.808594 125.875 250.824219 126.042969 252.375 126.816406 C 254.148438 127.703125 252.492188 128.976562 253.210938 129.335938 C 262.992188 134.226562 269.433594 161.984375 263.710938 173.429688 C 262.183594 176.480469 263.601562 191.484375 258.671875 191.484375 C 258.671875 180.027344 264.695312 153.5625 259.511719 143.195312 C 256.644531 137.457031 252.050781 132.46875 249.433594 127.234375 C 248.414062 125.195312 242.714844 124.730469 242.714844 122.617188 Z M 242.714844 122.617188 "/>
<path style=" stroke:none;fill-rule:nonzero;fill:rgb(5.882353%,42.745098%,90.196079%);fill-opacity:1;" d="M 202.402344 145.292969 C 204.570312 145.292969 205.707031 146.972656 208.28125 146.972656 C 215.550781 146.972656 209.347656 161.152344 206.179688 159.570312 C 206.179688 159.570312 203.664062 153.691406 203.664062 153.691406 C 203.664062 153.691406 199.882812 150.75 199.882812 150.75 C 198.363281 147.710938 202.402344 146.640625 202.402344 145.292969 Z M 202.402344 145.292969 "/>
<path style=" stroke:none;fill-rule:nonzero;fill:rgb(100%,89.019608%,0%);fill-opacity:1;" d="M 246.074219 218.359375 L 244.394531 220.039062 C 245.863281 220.039062 246.074219 219.828125 246.074219 218.359375 Z M 246.074219 218.359375 "/>
<path style=" stroke:none;fill-rule:nonzero;fill:rgb(18.82353%,85.490197%,0%);fill-opacity:1;" d="M 314.101562 219.199219 C 314.101562 220.046875 307.160156 221.199219 306.125 221.71875 C 302.628906 223.464844 293.894531 232.117188 295.625 235.578125 C 299.144531 242.613281 327.59375 220.878906 316.203125 220.878906 Z M 314.101562 219.199219 "/>
<path style=" stroke:none;fill-rule:nonzero;fill:rgb(18.82353%,85.490197%,0%);fill-opacity:1;" d="M 99.941406 228.4375 C 99.941406 229.839844 95.242188 233.738281 96.582031 236.414062 C 97.078125 237.414062 106.4375 243.652344 107.921875 244.394531 L 121.777344 243.976562 C 125.535156 236.457031 107.839844 228.4375 99.941406 228.4375 Z M 99.941406 228.4375 "/>
<path style=" stroke:none;fill-rule:nonzero;fill:rgb(98.039216%,50.196081%,44.705883%);fill-opacity:1;" d="M 161.25 245.234375 L 161.671875 252.792969 C 162.164062 252.792969 162.808594 245.234375 161.25 245.234375 Z M 161.25 245.234375 "/>
<path style=" stroke:none;fill-rule:nonzero;fill:rgb(98.039216%,50.196081%,44.705883%);fill-opacity:1;" d="M 250.273438 307.382812 C 250.273438 308.078125 244.871094 309.453125 243.976562 309.902344 C 242.050781 310.863281 243.457031 313.878906 242.714844 315.359375 C 241.832031 317.125 237.300781 316.949219 235.996094 319.5625 C 234.738281 322.078125 236.652344 327.238281 238.9375 328.378906 L 242.296875 328.378906 C 243.589844 329.027344 245.050781 333.117188 247.335938 334.257812 C 249.972656 335.578125 251.40625 330.898438 253.210938 330.898438 C 254.054688 330.898438 254.625 335.097656 256.570312 335.097656 C 257.796875 335.097656 260.25 332.417969 261.609375 331.738281 C 263.417969 330.835938 266.613281 332.597656 270.007812 330.898438 C 271.085938 330.359375 271.269531 327.875 271.269531 326.699219 C 271.269531 320.722656 270.644531 319.878906 265.8125 317.460938 L 262.453125 313.261719 L 259.09375 313.261719 C 257.707031 312.570312 259.363281 310.027344 258.671875 308.640625 C 258.25 307.800781 251.894531 307.382812 250.273438 307.382812 Z M 250.273438 307.382812 "/>
<path style=" stroke:none;fill-rule:nonzero;fill:rgb(98.039216%,50.196081%,44.705883%);fill-opacity:1;" d="M 159.570312 309.902344 C 159.570312 313.488281 155.898438 313.46875 154.53125 316.203125 C 153.707031 317.851562 150.773438 316.15625 149.492188 318.71875 C 147.335938 323.035156 147.355469 322.097656 143.195312 324.179688 C 141.664062 324.945312 142.59375 327 139.835938 328.378906 C 136.933594 329.828125 136.773438 336.085938 139.835938 337.617188 C 146.242188 340.820312 146.734375 332.578125 148.234375 332.578125 C 149.679688 332.578125 151.230469 334.257812 152.429688 334.257812 L 154.953125 332.578125 C 156.316406 333.261719 158.070312 336.058594 159.992188 335.097656 C 164.890625 332.648438 165.761719 331.53125 167.96875 327.117188 L 170.070312 327.539062 L 171.328125 324.601562 C 172.046875 323.164062 175.921875 322.867188 174.6875 320.398438 C 173.421875 317.871094 167.980469 317.90625 167.96875 317.882812 C 166.652344 315.25 168.023438 310.742188 163.351562 310.742188 L 161.671875 311.582031 Z M 159.570312 309.902344 "/>
</g>
</svg>
