<?xml version="1.0" encoding="UTF-8"?>
<svg xmlns="http://www.w3.org/2000/svg" xmlns:xlink="http://www.w3.org/1999/xlink" width="430px" height="430px" viewBox="0 0 430 430" version="1.1">
<g id="surface1">
<rect x="0" y="0" width="430" height="430" style="fill:rgb(0%,0%,0%);fill-opacity:1;stroke:none;"/>
<path style=" stroke:none;fill-rule:nonzero;fill:rgb(1.176471%,75.686276%,17.647059%);fill-opacity:1;" d="M 114.21875 291.425781 C 109.875 291.425781 107.339844 296.335938 103.71875 298.144531 C 97.5 301.253906 83.964844 299.183594 78.523438 296.464844 C 69.507812 291.957031 60.359375 267.273438 56.269531 259.09375 C 53.964844 254.484375 51.792969 250.136719 49.550781 245.65625 L 49.550781 239.773438 L 47.871094 236.414062 C 47.871094 234.699219 51.320312 232.398438 50.390625 230.539062 L 42.832031 222.140625 C 40.382812 217.238281 41.066406 211.046875 38.632812 206.179688 L 39.472656 199.460938 L 35.273438 194.421875 L 37.792969 186.867188 L 37.792969 179.304688 C 40.535156 173.820312 39.578125 167.335938 41.992188 162.507812 C 42.941406 160.609375 43.53125 145.15625 43.671875 144.875 C 44.617188 142.980469 46.675781 143.90625 47.871094 141.515625 C 48.433594 140.390625 46.902344 136.730469 47.871094 134.796875 C 53.085938 124.363281 66.664062 101.671875 76.84375 96.582031 C 78.433594 95.789062 78.703125 91.875 81.046875 90.703125 L 90.28125 86.503906 L 91.960938 83.984375 L 92.804688 85.664062 L 93.640625 83.984375 C 96.066406 82.773438 98.679688 81.886719 101.203125 80.625 C 106.507812 77.972656 115.3125 75.585938 120.515625 75.585938 L 125.554688 72.226562 C 129.738281 70.136719 135.082031 74.183594 138.992188 72.226562 L 139.835938 69.707031 C 142.574219 68.335938 146.308594 69.410156 149.070312 68.027344 L 158.3125 68.027344 C 162.535156 65.914062 183.101562 66.144531 186.867188 68.027344 C 190.503906 69.847656 194.84375 70.125 196.523438 73.484375 C 197.050781 74.542969 199.011719 76.230469 200.304688 75.585938 L 203.664062 72.226562 C 211.683594 68.214844 227.171875 60.464844 237.257812 65.507812 C 240.742188 67.25 246.273438 64.558594 249.851562 66.347656 L 268.328125 67.1875 L 268.328125 68.867188 L 280.085938 69.707031 C 288.070312 73.699219 298.074219 74.078125 306.125 78.105469 C 314.507812 82.300781 322.640625 88.464844 330.476562 92.382812 L 343.914062 104.140625 L 354.414062 112.960938 C 358.992188 122.109375 363.28125 131.535156 367.851562 140.671875 C 368.707031 142.386719 363.992188 151.433594 365.332031 154.109375 L 367.851562 155.789062 C 369.015625 158.121094 367.851562 163.296875 367.851562 165.03125 L 369.53125 166.710938 L 368.691406 171.75 C 369.894531 174.152344 370.496094 175.359375 371.210938 176.789062 C 374.410156 183.1875 368.804688 193.804688 372.050781 200.304688 C 373.054688 202.3125 369.539062 207.84375 368.691406 209.539062 L 368.691406 215.421875 C 367.332031 218.136719 364.273438 219.214844 362.8125 222.140625 L 363.652344 228.015625 C 360.8125 233.699219 362.765625 238.1875 360.292969 243.132812 C 356.828125 250.0625 352.003906 256.355469 348.535156 263.289062 C 347.234375 265.894531 348.1875 269.863281 346.855469 272.53125 C 343.847656 278.546875 339.773438 284.171875 336.777344 290.164062 C 332.636719 298.445312 319.3125 300.121094 312 296.464844 C 310.625 295.777344 304.023438 295.992188 304.023438 293.945312 C 304.023438 289.386719 308.804688 285.636719 310.742188 281.765625 C 310.742188 281.765625 315.78125 271.6875 315.78125 271.6875 C 315.78125 271.6875 316.621094 265.8125 316.621094 265.8125 C 318.820312 261.414062 321.945312 257.683594 324.179688 253.210938 C 324.984375 251.601562 321.378906 244.882812 320.398438 244.394531 C 317.734375 243.0625 315.195312 245.320312 313.261719 241.453125 C 310.132812 235.199219 320.820312 231.859375 320.820312 230.539062 C 320.820312 229.457031 319.140625 230.089844 319.140625 226.757812 C 320.464844 226.757812 320.820312 225.277344 320.820312 224.238281 C 321.878906 224.238281 327.09375 221.742188 327.960938 220.878906 C 327.960938 220.878906 330.058594 217.519531 330.058594 217.519531 C 331.382812 217.519531 330.898438 215.121094 330.898438 214.160156 C 330.898438 214.160156 330.898438 213.320312 330.898438 213.320312 C 330.898438 213.320312 330.898438 210.800781 330.898438 210.800781 C 330.898438 210.800781 330.898438 208.28125 330.898438 208.28125 C 332.925781 208.28125 330.785156 214.160156 332.15625 214.160156 C 334.789062 214.160156 332.726562 205.886719 333.417969 204.5 C 334.976562 201.386719 334.433594 183.019531 333.417969 180.984375 C 332.488281 179.125 330.953125 177.738281 330.058594 175.945312 C 330.058594 175.945312 330.058594 170.070312 330.058594 170.070312 C 330.058594 170.070312 327.539062 169.226562 327.539062 169.226562 C 327.539062 159.609375 322.957031 155.023438 319.140625 147.390625 C 319.140625 147.390625 319.140625 144.03125 319.140625 144.03125 C 317.355469 140.460938 310.496094 135.980469 309.902344 134.796875 C 306.8125 128.617188 292.996094 116.472656 285.125 112.539062 C 279.355469 109.652344 273.378906 107.085938 267.492188 104.140625 C 267.492188 104.140625 264.96875 104.980469 264.96875 104.980469 C 261.152344 103.070312 258.332031 103.339844 254.890625 101.621094 C 252.089844 100.21875 246.355469 100.78125 243.976562 100.78125 C 243.976562 100.78125 238.515625 101.203125 238.515625 101.203125 C 238.515625 101.203125 240.195312 100.359375 240.195312 100.359375 C 240.195312 100.359375 233.054688 99.941406 233.054688 99.941406 C 229.410156 99.941406 227.574219 97.644531 224.65625 99.101562 C 221.414062 100.722656 222.1875 106.144531 220.878906 108.757812 C 220.878906 108.757812 212.898438 120.097656 212.898438 120.097656 C 209.851562 121.621094 198.246094 123.6875 194.421875 121.777344 C 186.992188 118.0625 183.371094 104.914062 180.148438 103.300781 C 180.148438 103.300781 177.625 99.101562 177.625 99.101562 C 177.625 99.101562 174.265625 101.621094 174.265625 101.621094 C 171.859375 102.824219 170.609375 102.191406 168.390625 103.300781 C 166.820312 104.085938 162.5625 101.59375 160.828125 102.460938 C 154.128906 105.808594 145.609375 105.03125 138.992188 108.339844 C 133.957031 110.859375 128.957031 113.359375 123.875 115.898438 C 121.59375 117.039062 109.179688 124.035156 109.179688 125.976562 C 109.179688 125.976562 107.5 126.816406 107.5 126.816406 C 103.902344 126.816406 104.296875 132.40625 102.039062 133.535156 C 96.546875 136.28125 90.703125 148.476562 90.703125 153.273438 C 90.703125 155.285156 85.664062 158.03125 85.664062 162.929688 C 85.664062 162.929688 84.824219 163.769531 84.824219 163.769531 C 84.824219 163.769531 83.984375 164.609375 83.984375 164.609375 C 83.984375 165.984375 82.304688 166.671875 82.304688 167.546875 C 82.304688 177.886719 77.265625 182.734375 77.265625 194.84375 C 77.265625 196.515625 76.601562 206.601562 78.105469 206.601562 C 78.105469 210.222656 78.613281 213.074219 80.625 217.101562 C 81.144531 218.140625 79.664062 221.71875 81.464844 221.71875 C 81.464844 221.71875 82.304688 222.558594 82.304688 222.558594 C 82.304688 224.152344 92.152344 231.796875 92.382812 231.796875 C 92.382812 234.375 94.0625 236.300781 94.0625 239.355469 C 94.0625 242.15625 89.679688 245.285156 91.542969 249.015625 C 93.136719 252.203125 96.550781 252.3125 98.261719 255.734375 C 101.554688 262.324219 104.152344 269.195312 107.5 275.890625 C 108.929688 278.746094 105.820312 281.472656 105.820312 283.445312 C 105.820312 283.445312 110.4375 284.707031 110.4375 284.707031 C 112.878906 285.925781 114.21875 289.019531 114.21875 291.425781 Z M 114.21875 291.425781 "/>
<path style=" stroke:none;fill-rule:evenodd;fill:rgb(100%,43.137255%,0%);fill-opacity:1;" d="M 291.425781 127.65625 C 291.425781 129.277344 293.046875 127.65625 291.425781 127.65625 M 331.738281 205.761719 C 330.5 205.761719 330.898438 207.402344 330.898438 208.28125 C 332.925781 208.28125 330.785156 214.160156 332.15625 214.160156 C 334.789062 214.160156 332.726562 205.886719 333.417969 204.5 C 334.976562 201.386719 334.433594 183.019531 333.417969 180.984375 C 332.488281 179.125 330.953125 177.738281 330.058594 175.945312 C 330.058594 175.945312 330.058594 170.070312 330.058594 170.070312 C 330.058594 170.070312 327.539062 169.226562 327.539062 169.226562 C 327.539062 159.609375 322.957031 155.023438 319.140625 147.390625 C 319.140625 147.390625 319.140625 144.03125 319.140625 144.03125 C 317.355469 140.460938 310.496094 135.980469 309.902344 134.796875 C 306.8125 128.617188 292.996094 116.472656 285.125 112.539062 C 279.355469 109.652344 273.378906 107.085938 267.492188 104.140625 C 267.492188 104.140625 264.96875 104.980469 264.96875 104.980469 C 261.152344 103.070312 258.332031 103.339844 254.890625 101.621094 C 252.089844 100.21875 246.355469 100.78125 243.976562 100.78125 C 243.976562 100.78125 238.515625 101.203125 238.515625 101.203125 C 238.515625 101.203125 240.195312 100.359375 240.195312 100.359375 C 240.195312 100.359375 233.054688 99.941406 233.054688 99.941406 C 229.410156 99.941406 227.574219 97.644531 224.65625 99.101562 C 221.414062 100.722656 222.1875 106.144531 220.878906 108.757812 C 220.878906 108.757812 212.898438 120.097656 212.898438 120.097656 C 209.851562 121.621094 198.246094 123.6875 194.421875 121.777344 C 186.992188 118.0625 183.371094 104.914062 180.148438 103.300781 C 180.148438 103.300781 177.625 99.101562 177.625 99.101562 C 177.625 99.101562 174.265625 101.621094 174.265625 101.621094 C 171.859375 102.824219 170.609375 102.191406 168.390625 103.300781 C 166.820312 104.085938 162.5625 101.59375 160.828125 102.460938 C 154.128906 105.808594 145.609375 105.03125 138.992188 108.339844 C 133.957031 110.859375 128.957031 113.359375 123.875 115.898438 C 121.59375 117.039062 109.179688 124.035156 109.179688 125.976562 C 109.179688 125.976562 107.5 126.816406 107.5 126.816406 C 103.902344 126.816406 104.296875 132.40625 102.039062 133.535156 C 96.546875 136.28125 90.703125 148.476562 90.703125 153.273438 C 90.703125 155.285156 85.664062 158.03125 85.664062 162.929688 C 85.664062 162.929688 84.824219 163.769531 84.824219 163.769531 C 84.824219 163.769531 83.984375 164.609375 83.984375 164.609375 C 83.984375 165.984375 82.304688 166.671875 82.304688 167.546875 C 82.304688 177.886719 77.265625 182.734375 77.265625 194.84375 C 77.265625 196.515625 76.601562 206.601562 78.105469 206.601562 C 78.105469 206.601562 78.945312 203.242188 78.945312 203.242188 C 78.945312 203.242188 78.945312 200.722656 78.945312 200.722656 C 78.945312 200.722656 79.785156 192.324219 79.785156 192.324219 C 79.785156 192.324219 80.625 190.644531 80.625 190.644531 C 80.625 187.96875 87.269531 172.738281 89.023438 169.226562 C 89.847656 167.582031 91.671875 159.570312 94.0625 159.570312 C 94.0625 159.570312 94.902344 157.890625 94.902344 157.890625 C 94.902344 157.890625 96.582031 156.210938 96.582031 156.210938 C 96.582031 156.210938 97.421875 155.371094 97.421875 155.371094 C 97.421875 155.371094 105.820312 146.972656 105.820312 146.972656 C 105.820312 146.972656 107.5 144.453125 107.5 144.453125 C 107.5 144.453125 107.5 142.773438 107.5 142.773438 C 107.5 140.992188 108.921875 138.574219 110.859375 138.574219 C 112.882812 138.574219 113.308594 132.695312 117.578125 132.695312 C 117.578125 132.695312 117.578125 131.855469 117.578125 131.855469 C 115.363281 131.855469 117.859375 130.175781 119.257812 130.175781 C 119.257812 130.175781 121.777344 126.398438 121.777344 126.398438 C 121.777344 126.398438 125.976562 123.457031 125.976562 123.457031 C 124.234375 123.457031 125.375 121.121094 125.976562 120.515625 C 126.703125 119.789062 133.535156 116.667969 133.535156 118.417969 C 142.058594 118.417969 152.601562 107.164062 161.671875 111.699219 C 161.671875 111.699219 166.710938 111.699219 166.710938 111.699219 C 173.980469 115.335938 178.722656 121.066406 185.1875 124.296875 C 187.761719 125.585938 188.71875 129.335938 191.484375 129.335938 C 191.484375 129.335938 193.164062 130.175781 193.164062 130.175781 C 193.164062 130.175781 201.5625 130.175781 201.5625 130.175781 C 201.5625 130.175781 207.441406 129.335938 207.441406 129.335938 C 210.496094 129.335938 212.421875 127.65625 215 127.65625 C 215 127.65625 215.839844 126.816406 215.839844 126.816406 C 215.839844 126.816406 216.679688 125.976562 216.679688 125.976562 C 216.679688 125.976562 217.519531 125.136719 217.519531 125.136719 C 217.519531 125.136719 218.359375 124.296875 218.359375 124.296875 C 218.359375 124.296875 219.199219 124.296875 219.199219 124.296875 C 219.199219 124.296875 220.039062 123.457031 220.039062 123.457031 C 220.039062 123.457031 220.878906 122.617188 220.878906 122.617188 C 222.472656 122.617188 224.238281 120.871094 224.238281 119.257812 C 224.238281 119.257812 225.078125 118.417969 225.078125 118.417969 C 225.078125 118.417969 225.917969 118.417969 225.917969 118.417969 C 225.917969 118.417969 226.757812 117.578125 226.757812 117.578125 C 226.757812 116.640625 231.53125 112.539062 232.636719 112.539062 C 232.636719 112.539062 233.476562 111.699219 233.476562 111.699219 C 236.082031 111.699219 246.871094 106.011719 251.53125 108.339844 C 251.53125 108.339844 263.710938 111.699219 263.710938 111.699219 C 263.710938 111.699219 265.390625 112.539062 265.390625 112.539062 C 265.390625 112.539062 268.75 113.378906 268.75 113.378906 C 268.75 113.378906 270.429688 115.058594 270.429688 115.058594 C 271.792969 115.058594 272.738281 116.738281 274.628906 116.738281 C 274.628906 116.738281 271.269531 112.960938 271.269531 112.960938 C 271.738281 112.019531 281.347656 116.886719 281.347656 118.835938 C 281.347656 120.628906 275.851562 116.738281 275.46875 116.738281 C 275.46875 118.992188 281.613281 121.777344 283.867188 121.777344 C 283.867188 121.777344 284.707031 122.617188 284.707031 122.617188 C 288.136719 122.617188 287.296875 123.457031 284.707031 123.457031 C 284.707031 124.78125 286.1875 125.136719 287.226562 125.136719 C 287.226562 125.136719 288.066406 125.976562 288.066406 125.976562 C 288.066406 127.167969 290.066406 131.015625 291.425781 131.015625 C 291.425781 131.015625 292.265625 131.015625 292.265625 131.015625 C 292.265625 126.078125 302.34375 140.113281 302.34375 141.09375 C 302.882812 141.09375 315.65625 153.023438 315.78125 153.273438 C 315.78125 153.273438 315.78125 156.210938 315.78125 156.210938 C 315.78125 156.210938 316.621094 157.050781 316.621094 157.050781 C 316.621094 157.050781 316.621094 157.890625 316.621094 157.890625 C 316.621094 157.890625 318.300781 159.570312 318.300781 159.570312 C 320.0625 159.570312 321.660156 163.167969 321.660156 164.609375 C 321.660156 164.609375 323.339844 166.289062 323.339844 166.289062 C 323.339844 173.492188 331.738281 184.601562 331.738281 194.84375 C 333.117188 194.84375 332.578125 198.003906 332.578125 199.042969 C 332.578125 199.042969 332.578125 200.722656 332.578125 200.722656 C 332.578125 200.722656 332.578125 203.242188 332.578125 203.242188 C 332.578125 203.242188 332.578125 204.082031 332.578125 204.082031 C 332.578125 206.535156 331.738281 210.050781 331.738281 205.761719 Z M 331.738281 205.761719 "/>
<path style=" stroke:none;fill-rule:nonzero;fill:rgb(5.490196%,27.843139%,88.627452%);fill-opacity:1;" d="M 187.285156 160.410156 C 186.40625 160.410156 184.765625 160.011719 184.765625 161.25 C 184.765625 161.25 177.207031 160.410156 177.207031 160.410156 C 177.207031 159.085938 175.726562 158.730469 174.6875 158.730469 C 174.6875 158.730469 173.847656 158.730469 173.847656 158.730469 C 173.847656 158.730469 170.488281 157.050781 170.488281 157.050781 C 170.488281 155.96875 157.519531 150.332031 155.371094 150.332031 C 155.371094 150.332031 154.53125 147.8125 154.53125 147.8125 C 154.53125 146.3125 145.214844 146.972656 143.613281 146.972656 C 137.386719 146.972656 131.476562 145.292969 125.976562 145.292969 C 125.976562 145.292969 124.296875 144.453125 124.296875 144.453125 C 124.296875 142.601562 121.566406 144.453125 120.9375 143.195312 C 119.722656 140.765625 117.578125 138.867188 117.578125 135.214844 C 117.578125 135.214844 117.578125 134.375 117.578125 134.375 C 117.578125 134.375 117.578125 133.535156 117.578125 133.535156 C 117.578125 133.535156 117.578125 132.695312 117.578125 132.695312 C 117.578125 132.695312 118.417969 131.855469 118.417969 131.855469 C 118.417969 131.855469 119.257812 130.175781 119.257812 130.175781 C 119.257812 130.175781 121.777344 126.398438 121.777344 126.398438 C 121.777344 126.398438 125.976562 123.457031 125.976562 123.457031 C 128.617188 123.457031 131.28125 118.417969 133.535156 118.417969 C 142.058594 118.417969 152.601562 107.164062 161.671875 111.699219 C 161.671875 111.699219 166.710938 111.699219 166.710938 111.699219 C 173.980469 115.335938 178.722656 121.066406 185.1875 124.296875 C 187.761719 125.585938 188.71875 129.335938 191.484375 129.335938 C 191.484375 129.335938 193.164062 130.175781 193.164062 130.175781 C 193.164062 130.175781 201.5625 130.175781 201.5625 130.175781 C 201.5625 133.554688 207.441406 131.457031 207.441406 129.335938 C 210.496094 129.335938 212.421875 127.65625 215 127.65625 C 215 127.65625 215.839844 126.816406 215.839844 126.816406 C 215.839844 126.816406 216.679688 125.976562 216.679688 125.976562 C 216.679688 125.976562 217.519531 125.136719 217.519531 125.136719 C 217.519531 125.136719 218.359375 124.296875 218.359375 124.296875 C 218.359375 124.296875 219.199219 124.296875 219.199219 124.296875 C 219.199219 124.296875 220.039062 123.457031 220.039062 123.457031 C 220.039062 123.457031 220.878906 122.617188 220.878906 122.617188 C 222.472656 122.617188 224.238281 120.871094 224.238281 119.257812 C 224.238281 119.257812 225.078125 118.417969 225.078125 118.417969 C 225.078125 118.417969 225.917969 118.417969 225.917969 118.417969 C 225.917969 118.417969 226.757812 117.578125 226.757812 117.578125 C 226.757812 116.640625 231.53125 112.539062 232.636719 112.539062 C 232.636719 112.539062 233.476562 111.699219 233.476562 111.699219 C 236.082031 111.699219 246.871094 106.011719 251.53125 108.339844 C 251.53125 108.339844 263.710938 111.699219 263.710938 111.699219 C 263.710938 111.699219 265.390625 112.539062 265.390625 112.539062 C 265.390625 112.539062 268.75 113.378906 268.75 113.378906 C 268.75 113.378906 270.429688 115.058594 270.429688 115.058594 C 271.792969 115.058594 272.738281 116.738281 274.628906 116.738281 C 274.628906 116.738281 275.46875 116.738281 275.46875 116.738281 C 275.46875 118.992188 281.613281 121.777344 283.867188 121.777344 C 283.867188 121.777344 284.707031 122.617188 284.707031 122.617188 C 284.707031 122.617188 284.707031 123.457031 284.707031 123.457031 C 284.707031 124.78125 286.1875 125.136719 287.226562 125.136719 C 287.226562 125.136719 288.066406 125.976562 288.066406 125.976562 C 288.066406 127.167969 290.066406 131.015625 291.425781 131.015625 C 291.425781 131.015625 292.265625 131.855469 292.265625 131.855469 C 292.265625 131.855469 292.265625 133.535156 292.265625 133.535156 C 292.265625 146.230469 264.609375 144.453125 254.472656 144.453125 C 254.472656 144.453125 252.792969 146.972656 252.792969 146.972656 C 252.792969 146.972656 246.914062 149.492188 246.914062 149.492188 C 245.875 149.492188 244.394531 149.847656 244.394531 151.171875 C 244.394531 151.171875 243.554688 151.171875 243.554688 151.171875 C 243.554688 151.171875 242.714844 152.011719 242.714844 152.011719 C 241.753906 152.011719 237.675781 153.136719 237.675781 154.53125 C 237.675781 154.53125 236.835938 155.371094 236.835938 155.371094 C 236.835938 155.371094 235.15625 156.210938 235.15625 156.210938 C 235.15625 156.210938 233.476562 157.050781 233.476562 157.050781 C 233.476562 157.050781 232.636719 157.890625 232.636719 157.890625 C 229.90625 157.890625 226.148438 161.15625 222.976562 159.570312 C 220.101562 158.132812 214.953125 157.050781 211.640625 157.050781 C 211.640625 157.050781 210.800781 157.050781 210.800781 157.050781 C 210.800781 157.050781 207.441406 156.210938 207.441406 156.210938 C 202.949219 156.210938 204.421875 150.070312 201.5625 155.789062 C 201.5625 155.789062 200.722656 157.050781 200.722656 157.050781 C 200.722656 157.050781 199.042969 157.890625 199.042969 157.890625 C 199.042969 157.890625 198.203125 157.890625 198.203125 157.890625 C 197.050781 157.890625 194.84375 157.578125 194.84375 158.730469 C 194.84375 158.730469 193.164062 158.730469 193.164062 158.730469 C 193.164062 158.730469 187.285156 160.410156 187.285156 160.410156 Z M 187.285156 160.410156 "/>
<path style=" stroke:none;fill-rule:nonzero;fill:rgb(0.784314%,17.254902%,100%);fill-opacity:1;" d="M 274.628906 116.738281 L 275.46875 116.738281 C 275.851562 116.738281 281.347656 120.628906 281.347656 118.835938 C 281.347656 116.886719 271.738281 112.019531 271.269531 112.960938 C 271.269531 112.960938 274.628906 116.738281 274.628906 116.738281 Z M 274.628906 116.738281 "/>
<path style=" stroke:none;fill-rule:nonzero;fill:rgb(0.784314%,17.254902%,100%);fill-opacity:1;" d="M 133.535156 118.417969 C 131.28125 118.417969 128.617188 123.457031 125.976562 123.457031 C 124.234375 123.457031 125.375 121.121094 125.976562 120.515625 C 126.703125 119.789062 133.535156 116.667969 133.535156 118.417969 Z M 133.535156 118.417969 "/>
<path style=" stroke:none;fill-rule:nonzero;fill:rgb(0.784314%,17.254902%,100%);fill-opacity:1;" d="M 284.707031 122.617188 C 288.136719 122.617188 287.296875 123.457031 284.707031 123.457031 C 284.707031 123.457031 284.707031 122.617188 284.707031 122.617188 Z M 284.707031 122.617188 "/>
<path style=" stroke:none;fill-rule:nonzero;fill:rgb(0.784314%,17.254902%,100%);fill-opacity:1;" d="M 291.425781 127.65625 C 291.425781 129.277344 293.046875 127.65625 291.425781 127.65625 Z M 291.425781 127.65625 "/>
<path style=" stroke:none;fill-rule:nonzero;fill:rgb(0.784314%,17.254902%,100%);fill-opacity:1;" d="M 301.503906 159.570312 L 303.183594 160.410156 C 303.183594 158.140625 303.183594 155.433594 303.183594 154.109375 C 303.183594 154.109375 304.863281 153.273438 304.863281 153.273438 C 304.863281 148.4375 302.34375 145.425781 302.34375 141.09375 C 302.34375 140.113281 292.265625 126.078125 292.265625 131.015625 C 292.265625 131.015625 292.265625 131.855469 292.265625 131.855469 C 292.265625 131.855469 292.265625 133.535156 292.265625 133.535156 C 298.199219 133.535156 299.824219 153.402344 299.824219 157.46875 C 299.824219 157.46875 301.503906 159.570312 301.503906 159.570312 Z M 301.503906 159.570312 "/>
<path style=" stroke:none;fill-rule:nonzero;fill:rgb(0.784314%,17.254902%,100%);fill-opacity:1;" d="M 117.578125 131.855469 L 118.417969 131.855469 C 118.417969 131.855469 119.257812 130.175781 119.257812 130.175781 C 117.859375 130.175781 115.363281 131.855469 117.578125 131.855469 Z M 117.578125 131.855469 "/>
<path style=" stroke:none;fill-rule:nonzero;fill:rgb(0.784314%,17.254902%,100%);fill-opacity:1;" d="M 107.5 162.089844 L 110.019531 162.089844 C 110.019531 154.257812 113.378906 146.699219 113.378906 139.835938 C 113.378906 139.835938 115.058594 138.992188 115.058594 138.992188 C 115.058594 138.992188 113.378906 138.15625 113.378906 138.15625 C 113.378906 137.65625 116.617188 135.214844 117.578125 135.214844 C 117.578125 135.214844 117.578125 134.375 117.578125 134.375 C 116.582031 134.375 116.582031 133.535156 117.578125 133.535156 C 117.578125 133.535156 117.578125 132.695312 117.578125 132.695312 C 113.308594 132.695312 112.882812 138.574219 110.859375 138.574219 C 110.859375 140.179688 109.464844 142.773438 107.5 142.773438 C 107.5 142.773438 107.5 144.453125 107.5 144.453125 C 108.355469 144.453125 108.339844 147.613281 108.339844 148.652344 C 108.339844 150.859375 107.5 153.234375 107.5 156.210938 C 107.5 156.210938 107.5 162.089844 107.5 162.089844 Z M 107.5 162.089844 "/>
<path style=" stroke:none;fill-rule:nonzero;fill:rgb(0%,100%,11.372549%);fill-opacity:1;" d="M 293.105469 167.128906 L 293.945312 167.128906 C 293.945312 164.859375 299.265625 159.570312 301.503906 159.570312 C 301.503906 159.570312 299.824219 157.46875 299.824219 157.46875 C 299.824219 153.402344 298.199219 133.535156 292.265625 133.535156 C 292.265625 146.230469 264.609375 144.453125 254.472656 144.453125 C 254.472656 147.742188 263.710938 144.730469 263.710938 146.972656 C 263.710938 146.972656 266.230469 146.972656 266.230469 146.972656 C 266.230469 146.972656 267.070312 147.8125 267.070312 147.8125 C 267.070312 147.8125 277.148438 148.652344 277.148438 148.652344 C 279.140625 148.652344 280.921875 151.171875 278.828125 151.171875 C 278.828125 153.066406 278.828125 153.476562 278.828125 155.371094 C 278.828125 155.371094 279.667969 156.210938 279.667969 156.210938 C 279.667969 156.210938 279.667969 157.050781 279.667969 157.050781 C 279.667969 157.050781 280.507812 157.890625 280.507812 157.890625 C 280.507812 157.890625 284.707031 162.929688 284.707031 162.929688 C 284.707031 162.929688 286.386719 164.609375 286.386719 164.609375 C 286.386719 164.609375 287.226562 165.449219 287.226562 165.449219 C 287.226562 165.449219 287.226562 166.289062 287.226562 166.289062 C 287.226562 166.289062 293.105469 167.128906 293.105469 167.128906 Z M 293.105469 167.128906 "/>
<path style=" stroke:none;fill-rule:nonzero;fill:rgb(0%,100%,11.372549%);fill-opacity:1;" d="M 126.816406 165.449219 C 123.335938 165.449219 123.164062 167.96875 120.097656 167.96875 C 117.507812 167.96875 110.859375 165.742188 110.859375 162.929688 C 110.859375 162.929688 110.019531 162.089844 110.019531 162.089844 C 110.019531 154.257812 113.378906 146.699219 113.378906 139.835938 C 113.378906 139.835938 115.058594 138.992188 115.058594 138.992188 C 115.058594 138.992188 113.378906 138.15625 113.378906 138.15625 C 113.378906 137.65625 116.617188 135.214844 117.578125 135.214844 C 117.578125 138.867188 119.722656 140.765625 120.9375 143.195312 C 121.566406 144.453125 124.296875 142.601562 124.296875 144.453125 C 124.296875 144.453125 125.976562 145.292969 125.976562 145.292969 C 131.476562 145.292969 137.386719 146.972656 143.613281 146.972656 C 145.214844 146.972656 154.53125 146.3125 154.53125 147.8125 C 153.492188 147.8125 150.332031 147.273438 150.332031 148.652344 C 147.582031 148.652344 138.125 152.851562 136.054688 152.851562 C 136.054688 152.851562 135.214844 153.691406 135.214844 153.691406 C 134.039062 153.691406 134.039062 155.371094 135.214844 155.371094 C 135.214844 155.371094 134.375 157.050781 134.375 157.050781 C 134.375 157.050781 129.335938 162.089844 129.335938 162.089844 C 129.335938 163.3125 126.816406 163.316406 126.816406 165.449219 Z M 126.816406 165.449219 "/>
<path style=" stroke:none;fill-rule:evenodd;fill:rgb(100%,20.392157%,15.294118%);fill-opacity:1;" d="M 271.269531 221.71875 L 262.03125 228.859375 C 260.464844 231.992188 265.492188 236.15625 269.171875 234.316406 L 272.53125 230.957031 L 275.046875 230.957031 C 283.9375 226.511719 277.875 221.71875 271.269531 221.71875 M 252.792969 231.796875 L 251.953125 232.636719 C 251.953125 236.222656 251.457031 239.355469 255.734375 239.355469 C 257.234375 239.355469 260.917969 243.902344 264.96875 241.875 C 271.457031 238.632812 278.550781 233.332031 284.289062 227.597656 C 286.265625 225.617188 289.730469 218.359375 292.265625 218.359375 C 292.265625 218.359375 292.265625 217.519531 292.265625 217.519531 C 292.265625 217.519531 293.105469 216.679688 293.105469 216.679688 C 293.105469 210.949219 301.839844 200.804688 305.703125 196.945312 C 307.484375 195.160156 306.792969 190.644531 310.742188 190.644531 C 310.742188 184.863281 314.941406 181.792969 314.941406 175.945312 C 314.941406 173.660156 311.433594 167.847656 312.421875 165.867188 C 313.894531 162.925781 315.78125 160.539062 315.78125 157.050781 C 315.78125 157.050781 315.78125 156.210938 315.78125 156.210938 C 315.78125 156.210938 315.78125 153.273438 315.78125 153.273438 C 315.65625 153.023438 302.882812 141.09375 302.34375 141.09375 C 302.34375 145.425781 304.863281 148.4375 304.863281 153.273438 C 304.863281 153.273438 303.183594 154.109375 303.183594 154.109375 C 303.183594 155.433594 303.183594 158.140625 303.183594 160.410156 C 303.183594 165.726562 298.851562 167.96875 293.945312 167.96875 C 293.945312 167.96875 293.105469 167.128906 293.105469 167.128906 C 293.105469 167.128906 287.226562 166.289062 287.226562 166.289062 C 287.226562 166.289062 287.226562 167.96875 287.226562 167.96875 C 287.226562 167.96875 289.746094 170.488281 289.746094 170.488281 C 292.046875 170.488281 294.785156 173.171875 294.785156 175.527344 C 295.824219 175.527344 296.464844 182.167969 296.464844 183.085938 C 296.464844 183.964844 296.863281 185.605469 295.625 185.605469 C 295.625 185.605469 293.105469 188.546875 293.105469 188.546875 C 291.871094 191.015625 291.839844 194.4375 290.585938 196.945312 C 288.320312 201.476562 279.375 211.996094 275.046875 214.160156 C 273.320312 215.023438 261.191406 220.441406 261.191406 221.71875 C 261.191406 223.433594 260.386719 224.238281 258.671875 224.238281 C 258.671875 224.238281 255.3125 226.757812 255.3125 226.757812 C 255.3125 226.757812 254.472656 227.597656 254.472656 227.597656 C 252.375 227.597656 254.890625 231.796875 252.792969 231.796875 Z M 252.792969 231.796875 "/>
<path style=" stroke:none;fill-rule:nonzero;fill:rgb(50.588238%,30.980393%,100%);fill-opacity:1;" d="M 99.941406 230.117188 C 96.851562 230.117188 95.3125 231.796875 92.382812 231.796875 C 92.152344 231.796875 82.304688 224.152344 82.304688 222.558594 C 82.304688 221.671875 81.464844 220.015625 81.464844 221.71875 C 79.664062 221.71875 81.144531 218.140625 80.625 217.101562 C 78.613281 213.074219 78.105469 210.222656 78.105469 206.601562 C 78.105469 206.601562 78.945312 203.242188 78.945312 203.242188 C 80.195312 203.242188 80.195312 200.722656 78.945312 200.722656 C 78.945312 200.722656 79.785156 192.324219 79.785156 192.324219 C 79.785156 192.324219 80.625 190.644531 80.625 190.644531 C 80.625 187.96875 87.269531 172.738281 89.023438 169.226562 C 89.847656 167.582031 91.671875 159.570312 94.0625 159.570312 C 94.0625 159.570312 94.902344 157.890625 94.902344 157.890625 C 94.902344 157.890625 96.582031 156.210938 96.582031 156.210938 C 96.582031 156.210938 97.421875 155.371094 97.421875 155.371094 C 97.421875 155.371094 105.820312 146.972656 105.820312 146.972656 C 105.820312 146.972656 108.339844 148.652344 108.339844 148.652344 C 108.339844 150.859375 107.5 153.234375 107.5 156.210938 C 105.445312 156.210938 104.140625 161.304688 104.140625 162.929688 C 102.171875 162.929688 104.238281 159.410156 102.882812 158.730469 C 99.722656 157.152344 101.246094 165.777344 100.78125 166.710938 C 100.78125 166.710938 99.101562 168.808594 99.101562 168.808594 C 99.101562 168.808594 98.261719 169.648438 98.261719 169.648438 C 98.261719 171.371094 97.421875 170.882812 97.421875 172.167969 C 95.71875 172.167969 97.507812 173.847656 98.261719 173.847656 C 98.261719 174.886719 99.535156 176.367188 98.261719 176.367188 C 98.261719 176.367188 97.421875 177.207031 97.421875 177.207031 C 91.027344 177.207031 97.441406 183.464844 96.582031 185.1875 C 95.84375 186.65625 93.824219 188.070312 94.902344 190.226562 C 95.59375 191.605469 99.941406 189.996094 99.941406 193.164062 C 99.941406 193.164062 99.101562 194.003906 99.101562 194.003906 C 99.101562 195.410156 98.261719 195.957031 98.261719 197.363281 C 98.261719 197.363281 99.101562 200.722656 99.101562 200.722656 C 97.785156 200.722656 97.785156 204.921875 99.101562 204.921875 C 99.101562 205.523438 96.300781 206.601562 98.261719 206.601562 C 98.261719 207.164062 96.027344 210.800781 98.261719 210.800781 C 100.960938 210.800781 99.941406 211.882812 99.941406 213.320312 C 99.941406 213.320312 100.78125 214.160156 100.78125 214.160156 C 100.78125 214.160156 100.78125 215.839844 100.78125 215.839844 C 98.929688 215.839844 101.40625 217.519531 102.460938 217.519531 C 102.460938 217.519531 102.460938 219.199219 102.460938 219.199219 C 102.460938 219.199219 102.460938 220.039062 102.460938 220.039062 C 102.460938 220.039062 103.300781 220.878906 103.300781 220.878906 C 104.835938 220.878906 104.433594 221.046875 104.980469 222.140625 C 104.980469 222.140625 107.5 222.976562 107.5 222.976562 C 109.160156 226.300781 103.300781 227.238281 103.300781 229.277344 C 102.339844 229.277344 99.941406 228.792969 99.941406 230.117188 Z M 99.941406 230.117188 "/>
<path style=" stroke:none;fill-rule:evenodd;fill:rgb(0%,39.215687%,0%);fill-opacity:1;" d="M 182.246094 223.398438 L 180.566406 227.179688 C 184.925781 235.894531 191.628906 223.398438 182.246094 223.398438 M 221.71875 222.558594 C 221.71875 224.25 219.800781 227.539062 220.878906 229.695312 C 223.808594 235.558594 231.902344 222.558594 221.71875 222.558594 M 203.242188 244.394531 C 203.242188 236.042969 205.761719 236.855469 205.761719 244.394531 C 210.199219 244.394531 210.335938 244.835938 214.578125 242.714844 C 214.578125 242.714844 230.957031 243.554688 230.957031 243.554688 C 230.957031 241.480469 235.179688 240.8125 236.414062 240.195312 C 241.179688 237.8125 246.488281 232.636719 251.953125 232.636719 C 251.953125 232.636719 252.792969 231.796875 252.792969 231.796875 C 254.890625 231.796875 252.375 227.597656 254.472656 227.597656 C 254.472656 227.597656 255.3125 226.757812 255.3125 226.757812 C 255.3125 226.757812 258.671875 224.238281 258.671875 224.238281 C 258.671875 222.523438 259.476562 221.71875 261.191406 221.71875 C 261.191406 220.441406 273.320312 215.023438 275.046875 214.160156 C 279.375 211.996094 288.320312 201.476562 290.585938 196.945312 C 291.839844 194.4375 291.871094 191.015625 293.105469 188.546875 C 293.105469 188.546875 295.625 185.605469 295.625 185.605469 C 295.625 184.726562 295.226562 183.085938 296.464844 183.085938 C 296.464844 182.167969 295.824219 175.527344 294.785156 175.527344 C 292.230469 175.527344 289.746094 173.152344 289.746094 170.488281 C 289.746094 170.488281 287.226562 167.96875 287.226562 167.96875 C 284.292969 167.96875 283.980469 165.449219 287.226562 165.449219 C 287.226562 165.449219 286.386719 164.609375 286.386719 164.609375 C 284.917969 164.609375 284.707031 164.398438 284.707031 162.929688 C 284.707031 162.929688 280.507812 157.890625 280.507812 157.890625 C 280.507812 157.890625 279.667969 157.050781 279.667969 157.050781 C 279.667969 157.050781 279.667969 156.210938 279.667969 156.210938 C 279.667969 156.210938 278.828125 155.371094 278.828125 155.371094 C 278.828125 153.476562 278.828125 153.066406 278.828125 151.171875 C 278.828125 148.628906 277.148438 152.757812 277.148438 148.652344 C 277.148438 148.652344 267.070312 147.8125 267.070312 147.8125 C 267.070312 147.8125 266.230469 146.972656 266.230469 146.972656 C 266.230469 146.972656 263.710938 146.972656 263.710938 146.972656 C 263.710938 146.972656 252.792969 146.972656 252.792969 146.972656 C 252.792969 146.972656 246.914062 149.492188 246.914062 149.492188 C 246.914062 150.816406 245.433594 151.171875 244.394531 151.171875 C 244.394531 151.171875 243.554688 151.171875 243.554688 151.171875 C 243.554688 151.171875 242.714844 152.011719 242.714844 152.011719 C 241.753906 152.011719 237.675781 153.136719 237.675781 154.53125 C 237.675781 154.53125 236.835938 155.371094 236.835938 155.371094 C 236.835938 155.371094 235.15625 156.210938 235.15625 156.210938 C 235.15625 156.210938 233.476562 157.050781 233.476562 157.050781 C 233.476562 157.050781 232.636719 157.890625 232.636719 157.890625 C 232.636719 160.921875 225.078125 159.925781 225.078125 161.25 C 225.078125 166.605469 219.371094 162.089844 216.679688 162.089844 C 215.039062 162.089844 212.542969 165.996094 210.800781 162.507812 C 209.800781 160.511719 212.480469 160.734375 212.480469 159.570312 C 212.480469 159.570312 211.640625 157.050781 211.640625 157.050781 C 211.640625 157.050781 210.800781 157.050781 210.800781 157.050781 C 210.800781 159.199219 208 157.050781 207.441406 157.050781 C 207.441406 158.9375 203.242188 173.074219 203.242188 165.03125 C 203.242188 163.417969 200.722656 160.945312 200.722656 159.570312 C 200.722656 159.570312 199.042969 157.890625 199.042969 157.890625 C 199.042969 158.886719 198.203125 158.886719 198.203125 157.890625 C 197.050781 157.890625 194.84375 157.578125 194.84375 158.730469 C 194.84375 158.730469 194.84375 159.570312 194.84375 159.570312 C 194.84375 161.007812 198.269531 159.859375 197.363281 161.671875 C 196.453125 163.488281 189.660156 164.609375 187.285156 164.609375 C 187.285156 164.609375 183.085938 164.1875 183.085938 164.1875 C 183.085938 164.1875 184.765625 162.089844 184.765625 162.089844 C 184.765625 162.089844 184.765625 161.25 184.765625 161.25 C 184.765625 161.25 177.207031 160.410156 177.207031 160.410156 C 175.523438 160.410156 174.6875 160.65625 174.6875 158.730469 C 174.6875 158.730469 173.847656 158.730469 173.847656 158.730469 C 172.058594 158.730469 166.667969 157.050781 170.488281 157.050781 C 170.488281 155.96875 157.519531 150.332031 155.371094 150.332031 C 153.316406 150.332031 152.617188 148.652344 150.332031 148.652344 C 147.582031 148.652344 138.125 152.851562 136.054688 152.851562 C 136.054688 152.851562 135.214844 153.691406 135.214844 153.691406 C 135.214844 153.691406 135.214844 155.371094 135.214844 155.371094 C 135.214844 155.371094 134.375 157.050781 134.375 157.050781 C 136.179688 157.050781 132.144531 162.089844 129.335938 162.089844 C 129.335938 163.3125 126.816406 163.316406 126.816406 165.449219 C 126.816406 167.414062 121.222656 173.007812 119.257812 173.007812 C 119.257812 173.839844 116.605469 177.207031 115.898438 177.207031 C 115.898438 177.207031 115.058594 178.886719 115.058594 178.886719 C 115.058594 178.886719 115.058594 181.40625 115.058594 181.40625 C 115.058594 182.871094 115.058594 183.898438 115.058594 185.605469 C 115.058594 197.269531 128.132812 212.511719 138.15625 217.519531 C 138.15625 217.519531 144.03125 219.199219 144.03125 219.199219 C 146.304688 220.335938 151.597656 226.347656 152.851562 228.859375 C 152.851562 228.859375 157.050781 232.636719 157.050781 232.636719 C 161.140625 232.636719 173.792969 244.394531 181.40625 244.394531 C 181.40625 243.398438 182.246094 243.398438 182.246094 244.394531 C 182.246094 244.394531 183.085938 244.394531 183.085938 244.394531 C 190.339844 244.394531 196.5625 244.394531 203.242188 244.394531 Z M 203.242188 244.394531 "/>
<path style=" stroke:none;fill-rule:nonzero;fill:rgb(0.784314%,17.254902%,100%);fill-opacity:1;" d="M 207.441406 157.050781 C 207.441406 158.9375 203.242188 173.074219 203.242188 165.03125 C 203.242188 163.417969 200.722656 160.945312 200.722656 159.570312 C 200.722656 159.570312 200.722656 157.050781 200.722656 157.050781 C 200.722656 157.050781 201.5625 155.789062 201.5625 155.789062 C 204.421875 150.070312 202.949219 156.210938 207.441406 156.210938 C 207.441406 156.210938 207.441406 157.050781 207.441406 157.050781 Z M 207.441406 157.050781 "/>
<path style=" stroke:none;fill-rule:nonzero;fill:rgb(50.588238%,30.980393%,100%);fill-opacity:1;" d="M 320.820312 224.238281 L 319.140625 225.078125 C 313.542969 225.078125 314.347656 222.628906 312.421875 218.78125 C 312.421875 218.78125 309.902344 215.839844 309.902344 215.839844 C 309.902344 213.03125 311.292969 212.640625 312.421875 210.382812 C 313.6875 207.84375 310.742188 193.519531 310.742188 190.644531 C 310.742188 184.863281 314.941406 181.792969 314.941406 175.945312 C 314.941406 173.660156 311.433594 167.847656 312.421875 165.867188 C 313.894531 162.925781 315.78125 160.539062 315.78125 157.050781 C 315.78125 157.050781 316.621094 157.050781 316.621094 157.050781 C 316.621094 157.050781 316.621094 157.890625 316.621094 157.890625 C 316.621094 157.890625 318.300781 159.570312 318.300781 159.570312 C 320.0625 159.570312 321.660156 163.167969 321.660156 164.609375 C 321.660156 167.265625 321.570312 166.289062 323.339844 166.289062 C 323.339844 173.492188 331.738281 184.601562 331.738281 194.84375 C 331.738281 195.882812 331.199219 199.042969 332.578125 199.042969 C 332.578125 199.042969 332.578125 200.722656 332.578125 200.722656 C 331.332031 200.722656 331.332031 203.242188 332.578125 203.242188 C 332.578125 203.242188 332.578125 204.082031 332.578125 204.082031 C 332.578125 204.082031 331.738281 205.761719 331.738281 205.761719 C 330.5 205.761719 330.898438 207.402344 330.898438 208.28125 C 330.898438 208.28125 330.898438 210.800781 330.898438 210.800781 C 329.652344 210.800781 329.652344 213.320312 330.898438 213.320312 C 330.898438 213.320312 330.898438 214.160156 330.898438 214.160156 C 329.574219 214.160156 330.058594 216.558594 330.058594 217.519531 C 330.058594 217.519531 327.960938 220.878906 327.960938 220.878906 C 327.09375 221.742188 321.878906 224.238281 320.820312 224.238281 Z M 320.820312 224.238281 "/>
<path style=" stroke:none;fill-rule:nonzero;fill:rgb(0%,39.215687%,0%);fill-opacity:1;" d="M 214.160156 158.730469 L 213.320312 159.570312 C 213.320312 158.683594 214.160156 157.027344 214.160156 158.730469 Z M 214.160156 158.730469 "/>
<path style=" stroke:none;fill-rule:evenodd;fill:rgb(100%,20.392157%,15.294118%);fill-opacity:1;" d="M 131.855469 223.398438 C 131.855469 224.988281 128.550781 225.609375 130.175781 228.859375 L 136.476562 233.476562 L 140.671875 236.835938 C 143.886719 238.441406 146.503906 230.4375 145.292969 228.015625 C 145.136719 227.707031 139.785156 224.632812 138.992188 224.238281 L 131.855469 223.398438 M 157.050781 232.636719 L 157.050781 239.773438 L 154.109375 239.355469 L 149.914062 244.394531 C 147.921875 244.394531 149.226562 240.195312 148.234375 240.195312 L 147.390625 242.714844 C 145.753906 243.535156 143.582031 239.972656 142.351562 239.355469 L 139.835938 240.195312 L 131.855469 235.15625 C 131.855469 235.15625 128.496094 231.796875 128.496094 231.796875 C 125.050781 231.796875 125.84375 225.078125 121.777344 225.078125 C 121.777344 225.078125 120.097656 224.238281 120.097656 224.238281 C 120.097656 224.238281 119.257812 223.398438 119.257812 223.398438 C 119.257812 222.082031 115.878906 218.359375 115.058594 218.359375 C 115.058594 217.398438 115.542969 215 114.21875 215 C 114.21875 204.441406 101.621094 202.460938 101.621094 194.84375 C 101.621094 193.375 101.410156 193.164062 99.941406 193.164062 C 99.941406 189.996094 95.59375 191.605469 94.902344 190.226562 C 93.824219 188.070312 95.84375 186.65625 96.582031 185.1875 C 97.441406 183.464844 91.027344 177.207031 97.421875 177.207031 C 97.421875 177.207031 98.261719 176.367188 98.261719 176.367188 C 99.535156 176.367188 98.261719 174.886719 98.261719 173.847656 C 98.261719 173.847656 97.421875 172.167969 97.421875 172.167969 C 97.421875 170.882812 98.261719 171.371094 98.261719 169.648438 C 98.261719 169.648438 99.101562 168.808594 99.101562 168.808594 C 99.101562 168.808594 100.78125 166.710938 100.78125 166.710938 C 101.246094 165.777344 99.722656 157.152344 102.882812 158.730469 C 104.238281 159.410156 102.171875 162.929688 104.140625 162.929688 C 104.140625 162.929688 105.820312 163.769531 105.820312 163.769531 C 105.820312 167.464844 110.859375 167.058594 110.859375 169.648438 C 110.859375 173 119.257812 171.148438 119.257812 173.007812 C 119.257812 173.839844 116.605469 177.207031 115.898438 177.207031 C 115.898438 177.207031 115.058594 178.886719 115.058594 178.886719 C 115.058594 178.886719 115.058594 181.40625 115.058594 181.40625 C 113.742188 181.40625 113.742188 185.605469 115.058594 185.605469 C 115.058594 197.269531 128.132812 212.511719 138.15625 217.519531 C 138.15625 217.519531 144.03125 219.199219 144.03125 219.199219 C 146.304688 220.335938 151.597656 226.347656 152.851562 228.859375 C 152.851562 228.859375 157.050781 232.636719 157.050781 232.636719 Z M 157.050781 232.636719 "/>
<path style=" stroke:none;fill-rule:nonzero;fill:rgb(100%,98.823529%,0%);fill-opacity:1;" d="M 187.285156 160.410156 L 184.765625 162.089844 C 184.765625 162.089844 183.085938 164.1875 183.085938 164.1875 C 183.085938 164.1875 187.285156 164.609375 187.285156 164.609375 C 189.660156 164.609375 196.453125 163.488281 197.363281 161.671875 C 198.269531 159.859375 194.84375 161.007812 194.84375 159.570312 C 194.84375 159.570312 193.164062 158.730469 193.164062 158.730469 C 193.164062 158.730469 187.285156 160.410156 187.285156 160.410156 Z M 187.285156 160.410156 "/>
<path style=" stroke:none;fill-rule:nonzero;fill:rgb(100%,98.823529%,0%);fill-opacity:1;" d="M 212.480469 159.570312 L 213.320312 159.570312 C 213.320312 159.570312 214.160156 158.730469 214.160156 158.730469 C 217.78125 158.730469 221.636719 161.25 225.078125 161.25 C 225.078125 166.605469 219.371094 162.089844 216.679688 162.089844 C 215.039062 162.089844 212.542969 165.996094 210.800781 162.507812 C 209.800781 160.511719 212.480469 160.734375 212.480469 159.570312 Z M 212.480469 159.570312 "/>
<path style=" stroke:none;fill-rule:nonzero;fill:rgb(93.333334%,45.882353%,20%);fill-opacity:1;" d="M 293.945312 167.128906 L 293.945312 167.96875 C 298.851562 167.96875 303.183594 165.726562 303.183594 160.410156 C 303.183594 160.410156 301.503906 159.570312 301.503906 159.570312 C 299.265625 159.570312 293.945312 164.859375 293.945312 167.128906 Z M 293.945312 167.128906 "/>
<path style=" stroke:none;fill-rule:nonzero;fill:rgb(93.333334%,45.882353%,20%);fill-opacity:1;" d="M 120.097656 167.96875 C 120.097656 173.949219 115.699219 169.648438 110.859375 169.648438 C 110.859375 167.058594 105.820312 167.464844 105.820312 163.769531 C 105.820312 163.769531 107.5 162.089844 107.5 162.089844 C 107.5 162.089844 110.019531 162.089844 110.019531 162.089844 C 110.019531 162.089844 110.859375 162.929688 110.859375 162.929688 C 110.859375 165.742188 117.507812 167.96875 120.097656 167.96875 Z M 120.097656 167.96875 "/>
<path style=" stroke:none;fill-rule:nonzero;fill:rgb(1.176471%,75.686276%,17.647059%);fill-opacity:1;" d="M 80.625 190.644531 L 79.785156 192.324219 C 79.785156 192.324219 80.625 190.644531 80.625 190.644531 Z M 80.625 190.644531 "/>
<path style=" stroke:none;fill-rule:nonzero;fill:rgb(100%,56.862748%,72.941178%);fill-opacity:1;" d="M 292.265625 217.519531 L 292.265625 218.359375 C 292.265625 225.949219 304.046875 219.816406 306.960938 218.359375 C 307.996094 217.84375 308.035156 215.839844 309.902344 215.839844 C 309.902344 213.03125 311.292969 212.640625 312.421875 210.382812 C 313.6875 207.84375 310.742188 193.519531 310.742188 190.644531 C 306.792969 190.644531 307.484375 195.160156 305.703125 196.945312 C 301.839844 200.804688 293.105469 210.949219 293.105469 216.679688 C 293.105469 216.679688 292.265625 217.519531 292.265625 217.519531 Z M 292.265625 217.519531 "/>
<path style=" stroke:none;fill-rule:nonzero;fill:rgb(100%,56.862748%,72.941178%);fill-opacity:1;" d="M 102.460938 219.199219 L 105.398438 219.199219 L 107.078125 221.71875 C 108.730469 222.542969 119.257812 226.453125 119.257812 223.398438 C 119.257812 222.082031 115.878906 218.359375 115.058594 218.359375 C 113.734375 218.359375 114.21875 215.960938 114.21875 215 C 114.21875 204.441406 101.621094 202.460938 101.621094 194.84375 C 101.621094 194.84375 99.101562 194.003906 99.101562 194.003906 C 99.101562 195.410156 98.261719 195.957031 98.261719 197.363281 C 100.402344 197.363281 100.59375 200.722656 99.101562 200.722656 C 99.101562 200.722656 99.101562 204.082031 99.101562 204.082031 C 100.097656 204.082031 100.097656 204.921875 99.101562 204.921875 C 99.101562 205.523438 96.300781 206.601562 98.261719 206.601562 C 101.34375 206.601562 98.261719 209.3125 98.261719 210.800781 C 100.960938 210.800781 99.941406 211.882812 99.941406 213.320312 C 99.941406 213.320312 100.78125 214.160156 100.78125 214.160156 C 100.78125 214.160156 100.78125 215.839844 100.78125 215.839844 C 100.78125 215.839844 102.460938 217.519531 102.460938 217.519531 C 102.460938 217.519531 102.460938 219.199219 102.460938 219.199219 Z M 102.460938 219.199219 "/>
<path style=" stroke:none;fill-rule:nonzero;fill:rgb(1.176471%,75.686276%,17.647059%);fill-opacity:1;" d="M 78.945312 200.722656 C 80.195312 200.722656 80.195312 203.242188 78.945312 203.242188 C 78.945312 203.242188 78.945312 200.722656 78.945312 200.722656 Z M 78.945312 200.722656 "/>
<path style=" stroke:none;fill-rule:nonzero;fill:rgb(1.176471%,75.686276%,17.647059%);fill-opacity:1;" d="M 332.578125 200.722656 C 331.332031 200.722656 331.332031 203.242188 332.578125 203.242188 C 332.578125 203.242188 332.578125 200.722656 332.578125 200.722656 Z M 332.578125 200.722656 "/>
<path style=" stroke:none;fill-rule:nonzero;fill:rgb(50.588238%,30.980393%,100%);fill-opacity:1;" d="M 99.101562 204.082031 C 100.097656 204.082031 100.097656 204.921875 99.101562 204.921875 C 99.101562 204.921875 99.101562 204.082031 99.101562 204.082031 Z M 99.101562 204.082031 "/>
<path style=" stroke:none;fill-rule:nonzero;fill:rgb(1.176471%,75.686276%,17.647059%);fill-opacity:1;" d="M 332.578125 204.082031 L 331.738281 205.761719 C 331.738281 210.050781 332.578125 206.535156 332.578125 204.082031 Z M 332.578125 204.082031 "/>
<path style=" stroke:none;fill-rule:nonzero;fill:rgb(100%,43.137255%,0%);fill-opacity:1;" d="M 330.898438 210.800781 C 329.652344 210.800781 329.652344 213.320312 330.898438 213.320312 C 330.898438 213.320312 330.898438 210.800781 330.898438 210.800781 Z M 330.898438 210.800781 "/>
<path style=" stroke:none;fill-rule:nonzero;fill:rgb(100%,43.137255%,0%);fill-opacity:1;" d="M 330.898438 214.160156 C 329.574219 214.160156 330.058594 216.558594 330.058594 217.519531 C 331.382812 217.519531 330.898438 215.121094 330.898438 214.160156 Z M 330.898438 214.160156 "/>
<path style=" stroke:none;fill-rule:evenodd;fill:rgb(88.235295%,94.117647%,5.098039%);fill-opacity:1;" d="M 290.585938 228.4375 L 289.746094 230.539062 C 290.769531 232.585938 294.644531 228.4375 290.585938 228.4375 M 292.265625 293.105469 C 292.265625 290.71875 303.214844 293.945312 304.023438 293.945312 C 304.023438 289.386719 308.804688 285.636719 310.742188 281.765625 C 310.742188 281.765625 315.78125 271.6875 315.78125 271.6875 C 315.78125 271.6875 316.621094 265.8125 316.621094 265.8125 C 318.820312 261.414062 321.945312 257.683594 324.179688 253.210938 C 324.984375 251.601562 321.378906 244.882812 320.398438 244.394531 C 317.734375 243.0625 315.195312 245.320312 313.261719 241.453125 C 310.132812 235.199219 320.820312 231.859375 320.820312 230.539062 C 320.820312 229.457031 319.140625 230.089844 319.140625 226.757812 C 319.140625 226.757812 319.140625 225.078125 319.140625 225.078125 C 313.542969 225.078125 314.347656 222.628906 312.421875 218.78125 C 312.421875 218.78125 309.902344 215.839844 309.902344 215.839844 C 308.035156 215.839844 307.996094 217.84375 306.960938 218.359375 C 304.046875 219.816406 292.265625 225.949219 292.265625 218.359375 C 289.730469 218.359375 286.265625 225.617188 284.289062 227.597656 C 278.550781 233.332031 271.457031 238.632812 264.96875 241.875 C 260.917969 243.902344 257.234375 239.355469 255.734375 239.355469 C 251.457031 239.355469 251.953125 236.222656 251.953125 232.636719 C 246.488281 232.636719 241.179688 237.8125 236.414062 240.195312 C 235.179688 240.8125 230.957031 241.480469 230.957031 243.554688 C 230.957031 243.554688 234.316406 245.65625 234.316406 245.65625 C 234.316406 245.65625 232.636719 247.335938 232.636719 247.335938 C 232.636719 249.707031 237.675781 250.425781 237.675781 252.792969 C 237.675781 252.792969 238.515625 254.472656 238.515625 254.472656 C 238.515625 260.535156 242.328125 259.996094 243.554688 262.453125 C 244.023438 263.386719 243.898438 267.070312 245.234375 267.070312 C 247.125 267.070312 247.132812 263.710938 249.433594 263.710938 C 249.433594 257.882812 257.074219 254.726562 259.511719 249.851562 C 259.976562 248.921875 266.230469 241.664062 266.230469 244.394531 C 269.289062 244.394531 278.355469 231.769531 281.765625 233.476562 C 284.875 235.03125 277.785156 241.859375 277.148438 243.132812 C 275.167969 247.097656 261.195312 265.390625 258.671875 265.390625 C 258.671875 267.421875 261.996094 275.242188 264.132812 276.308594 C 265.164062 276.824219 267.515625 275.9375 267.910156 276.726562 C 268.828125 278.5625 266.230469 281.976562 270.007812 283.867188 C 273.417969 285.570312 274.425781 282.203125 276.308594 285.96875 C 278.925781 291.203125 286.386719 285.328125 286.386719 291.425781 C 288.765625 291.425781 290.453125 293.105469 292.265625 293.105469 Z M 292.265625 293.105469 "/>
<path style=" stroke:none;fill-rule:nonzero;fill:rgb(88.235295%,94.117647%,5.098039%);fill-opacity:1;" d="M 293.105469 216.679688 L 292.265625 217.519531 C 292.265625 217.519531 293.105469 216.679688 293.105469 216.679688 Z M 293.105469 216.679688 "/>
<path style=" stroke:none;fill-rule:evenodd;fill:rgb(88.235295%,94.117647%,5.098039%);fill-opacity:1;" d="M 118.417969 232.636719 C 118.417969 241.089844 125.085938 232.636719 118.417969 232.636719 M 145.292969 262.03125 C 145.292969 267.460938 149.292969 279.558594 144.03125 282.1875 C 136.886719 285.757812 129.371094 288.679688 122.195312 292.265625 C 120.355469 293.1875 114.21875 294.03125 114.21875 291.425781 C 114.21875 289.019531 112.878906 285.925781 110.4375 284.707031 C 110.4375 284.707031 105.820312 283.445312 105.820312 283.445312 C 105.820312 281.472656 108.929688 278.746094 107.5 275.890625 C 104.152344 269.195312 101.554688 262.324219 98.261719 255.734375 C 96.550781 252.3125 93.136719 252.203125 91.542969 249.015625 C 89.679688 245.285156 94.0625 242.15625 94.0625 239.355469 C 98.183594 239.355469 96.132812 234.792969 97.421875 232.21875 C 97.421875 232.21875 99.941406 230.117188 99.941406 230.117188 C 100.902344 230.117188 103.300781 230.601562 103.300781 229.277344 C 103.300781 227.238281 109.160156 226.300781 107.5 222.976562 C 107.5 222.976562 104.980469 222.140625 104.980469 222.140625 C 104.433594 221.046875 104.835938 220.878906 103.300781 220.878906 C 103.300781 220.878906 102.460938 220.039062 102.460938 220.039062 C 102.460938 220.039062 102.460938 219.199219 102.460938 219.199219 C 102.460938 219.199219 105.398438 219.199219 105.398438 219.199219 C 105.398438 219.199219 107.078125 221.71875 107.078125 221.71875 C 108.730469 222.542969 119.257812 226.453125 119.257812 223.398438 C 119.257812 223.398438 120.097656 224.238281 120.097656 224.238281 C 120.097656 224.992188 121.777344 226.78125 121.777344 225.078125 C 125.84375 225.078125 125.050781 231.796875 128.496094 231.796875 C 128.496094 233.875 129.671875 235.15625 131.855469 235.15625 C 131.855469 235.15625 139.835938 240.195312 139.835938 240.195312 C 139.835938 240.195312 142.351562 239.355469 142.351562 239.355469 C 143.582031 239.972656 145.753906 243.535156 147.390625 242.714844 C 147.390625 242.714844 148.234375 240.195312 148.234375 240.195312 C 149.226562 240.195312 147.921875 244.394531 149.914062 244.394531 C 149.914062 244.394531 154.109375 239.355469 154.109375 239.355469 C 154.109375 239.355469 157.050781 239.773438 157.050781 239.773438 C 157.050781 239.773438 157.050781 232.636719 157.050781 232.636719 C 161.140625 232.636719 173.792969 244.394531 181.40625 244.394531 C 181.40625 244.394531 182.246094 244.394531 182.246094 244.394531 C 182.246094 244.394531 183.085938 244.394531 183.085938 244.394531 C 183.085938 244.394531 179.304688 250.273438 179.304688 250.273438 C 178.429688 250.710938 176.367188 249.476562 176.367188 251.113281 C 176.367188 251.113281 175.527344 251.113281 175.527344 251.113281 C 172.753906 251.113281 173.007812 251.917969 173.007812 254.472656 C 168 254.472656 163.246094 266.230469 161.25 266.230469 C 161.25 266.230469 160.410156 262.453125 160.410156 262.453125 C 160.410156 262.453125 162.089844 259.929688 162.089844 259.929688 C 161.582031 258.914062 157.105469 259.988281 155.371094 258.25 C 152.964844 255.84375 154.382812 250.273438 150.332031 250.273438 C 147.46875 250.273438 140.71875 240.195312 135.214844 240.195312 C 135.214844 240.003906 131.054688 235.5 129.335938 238.9375 C 128.871094 239.867188 133.535156 245.957031 133.535156 248.59375 C 133.535156 250.617188 135.179688 251.113281 136.894531 251.113281 C 138.679688 251.113281 145.292969 259.832031 145.292969 262.03125 Z M 145.292969 262.03125 "/>
<path style=" stroke:none;fill-rule:nonzero;fill:rgb(100%,43.137255%,0%);fill-opacity:1;" d="M 81.464844 221.71875 L 82.304688 222.558594 C 82.304688 221.671875 81.464844 220.015625 81.464844 221.71875 Z M 81.464844 221.71875 "/>
<path style=" stroke:none;fill-rule:nonzero;fill:rgb(10.196079%,90.588236%,100%);fill-opacity:1;" d="M 271.269531 221.71875 L 262.03125 228.859375 C 260.464844 231.992188 265.492188 236.15625 269.171875 234.316406 L 272.53125 230.957031 L 275.046875 230.957031 C 283.9375 226.511719 277.875 221.71875 271.269531 221.71875 Z M 271.269531 221.71875 "/>
<path style=" stroke:none;fill-rule:nonzero;fill:rgb(93.333334%,72.941178%,0%);fill-opacity:1;" d="M 221.71875 222.558594 C 221.71875 224.25 219.800781 227.539062 220.878906 229.695312 C 223.808594 235.558594 231.902344 222.558594 221.71875 222.558594 Z M 221.71875 222.558594 "/>
<path style=" stroke:none;fill-rule:nonzero;fill:rgb(10.196079%,90.588236%,100%);fill-opacity:1;" d="M 131.855469 223.398438 C 131.855469 224.988281 128.550781 225.609375 130.175781 228.859375 L 136.476562 233.476562 L 140.671875 236.835938 C 143.886719 238.441406 146.503906 230.4375 145.292969 228.015625 C 145.136719 227.707031 139.785156 224.632812 138.992188 224.238281 Z M 131.855469 223.398438 "/>
<path style=" stroke:none;fill-rule:nonzero;fill:rgb(93.333334%,72.941178%,0%);fill-opacity:1;" d="M 182.246094 223.398438 L 180.566406 227.179688 C 184.925781 235.894531 191.628906 223.398438 182.246094 223.398438 Z M 182.246094 223.398438 "/>
<path style=" stroke:none;fill-rule:nonzero;fill:rgb(67.843139%,100%,18.431373%);fill-opacity:1;" d="M 290.585938 228.4375 L 289.746094 230.539062 C 290.769531 232.585938 294.644531 228.4375 290.585938 228.4375 Z M 290.585938 228.4375 "/>
<path style=" stroke:none;fill-rule:nonzero;fill:rgb(88.235295%,94.117647%,5.098039%);fill-opacity:1;" d="M 252.792969 231.796875 L 251.953125 232.636719 C 251.953125 232.636719 252.792969 231.796875 252.792969 231.796875 Z M 252.792969 231.796875 "/>
<path style=" stroke:none;fill-rule:nonzero;fill:rgb(67.843139%,100%,18.431373%);fill-opacity:1;" d="M 118.417969 232.636719 C 118.417969 241.089844 125.085938 232.636719 118.417969 232.636719 Z M 118.417969 232.636719 "/>
<path style=" stroke:none;fill-rule:nonzero;fill:rgb(14.901961%,49.411765%,100%);fill-opacity:1;" d="M 254.472656 264.550781 C 254.472656 267.898438 257.179688 265.390625 258.671875 265.390625 C 261.195312 265.390625 275.167969 247.097656 277.148438 243.132812 C 277.785156 241.859375 284.875 235.03125 281.765625 233.476562 C 278.355469 231.769531 269.289062 244.394531 266.230469 244.394531 C 266.230469 248.183594 263.324219 247.269531 262.03125 249.851562 C 262.03125 249.851562 256.992188 259.929688 256.992188 259.929688 C 256.992188 259.929688 254.472656 264.550781 254.472656 264.550781 Z M 254.472656 264.550781 "/>
<path style=" stroke:none;fill-rule:nonzero;fill:rgb(14.901961%,49.411765%,100%);fill-opacity:1;" d="M 154.53125 266.230469 L 154.53125 267.070312 C 154.53125 267.070312 151.59375 268.75 151.59375 268.75 C 148.113281 268.75 148.246094 262.03125 145.292969 262.03125 C 145.292969 259.832031 138.679688 251.113281 136.894531 251.113281 C 136.894531 248.832031 135.503906 248.59375 133.535156 248.59375 C 133.535156 245.957031 128.871094 239.867188 129.335938 238.9375 C 131.054688 235.5 135.214844 240.003906 135.214844 240.195312 C 135.214844 240.195312 138.574219 243.554688 138.574219 243.554688 C 138.574219 243.554688 139.414062 244.394531 139.414062 244.394531 C 142.273438 244.394531 153.691406 263.230469 153.691406 265.390625 C 153.691406 265.390625 154.53125 266.230469 154.53125 266.230469 Z M 154.53125 266.230469 "/>
<path style=" stroke:none;fill-rule:nonzero;fill:rgb(0.784314%,17.254902%,100%);fill-opacity:1;" d="M 203.242188 287.226562 C 204.28125 287.226562 205.761719 288.5 205.761719 287.226562 C 205.761719 287.226562 205.761719 244.394531 205.761719 244.394531 C 205.761719 236.855469 203.242188 236.042969 203.242188 244.394531 C 203.242188 244.394531 203.242188 287.226562 203.242188 287.226562 Z M 203.242188 287.226562 "/>
<path style=" stroke:none;fill-rule:nonzero;fill:rgb(98.039216%,66.666669%,25.098041%);fill-opacity:1;" d="M 154.53125 267.070312 C 154.53125 268.125 161.25 271.429688 161.25 267.910156 C 161.25 267.910156 161.25 266.230469 161.25 266.230469 C 159.882812 266.230469 150.332031 252.261719 150.332031 250.273438 C 147.46875 250.273438 140.71875 240.195312 135.214844 240.195312 C 135.214844 240.195312 138.574219 243.554688 138.574219 243.554688 C 138.574219 243.554688 139.414062 244.394531 139.414062 244.394531 C 142.273438 244.394531 153.691406 263.230469 153.691406 265.390625 C 153.691406 265.390625 154.53125 266.230469 154.53125 266.230469 C 154.53125 266.230469 154.53125 267.070312 154.53125 267.070312 Z M 154.53125 267.070312 "/>
<path style=" stroke:none;fill-rule:evenodd;fill:rgb(88.627452%,47.058824%,63.137257%);fill-opacity:1;" d="M 231.796875 251.113281 L 230.117188 253.632812 C 230.117188 262.476562 239.84375 251.113281 231.796875 251.113281 M 245.234375 267.070312 C 245.234375 273.019531 241.796875 275.203125 239.355469 280.085938 L 237.675781 286.804688 C 236.851562 288.457031 224.355469 292.265625 222.976562 292.265625 C 221 292.265625 216.925781 289.746094 214.578125 289.746094 L 212.0625 291.425781 C 209.085938 291.425781 208.875 287.226562 205.761719 287.226562 C 205.761719 287.226562 205.761719 244.394531 205.761719 244.394531 C 210.199219 244.394531 210.335938 244.835938 214.578125 242.714844 C 214.578125 242.714844 230.957031 243.554688 230.957031 243.554688 C 230.957031 243.554688 234.316406 245.65625 234.316406 245.65625 C 234.316406 245.65625 232.636719 247.335938 232.636719 247.335938 C 232.636719 249.707031 237.675781 250.425781 237.675781 252.792969 C 237.675781 252.792969 238.515625 254.472656 238.515625 254.472656 C 238.515625 260.535156 242.328125 259.996094 243.554688 262.453125 C 244.023438 263.386719 243.898438 267.070312 245.234375 267.070312 Z M 245.234375 267.070312 "/>
<path style=" stroke:none;fill-rule:nonzero;fill:rgb(98.039216%,66.666669%,25.098041%);fill-opacity:1;" d="M 249.433594 263.710938 C 249.433594 266.390625 252.296875 264.550781 254.472656 264.550781 C 254.472656 264.550781 256.992188 259.929688 256.992188 259.929688 C 256.992188 259.929688 262.03125 249.851562 262.03125 249.851562 C 263.324219 247.269531 266.230469 248.183594 266.230469 244.394531 C 266.230469 241.664062 259.976562 248.921875 259.511719 249.851562 C 257.074219 254.726562 249.433594 257.882812 249.433594 263.710938 Z M 249.433594 263.710938 "/>
<path style=" stroke:none;fill-rule:nonzero;fill:rgb(88.627452%,47.058824%,63.137257%);fill-opacity:1;" d="M 161.25 267.910156 C 162.605469 267.910156 164.859375 273.871094 165.449219 275.046875 L 167.96875 278.40625 L 167.128906 282.609375 L 175.945312 291.425781 C 181.398438 294.152344 184.636719 290.585938 186.867188 290.585938 L 187.703125 292.265625 L 188.546875 290.585938 L 190.226562 292.265625 C 191.152344 292.730469 196.777344 291.089844 197.78125 290.585938 C 199.746094 289.605469 200.867188 287.226562 203.242188 287.226562 C 203.242188 287.226562 203.242188 244.394531 203.242188 244.394531 C 196.5625 244.394531 190.339844 244.394531 183.085938 244.394531 C 183.085938 244.394531 179.304688 250.273438 179.304688 250.273438 C 178.429688 250.710938 176.367188 249.476562 176.367188 251.113281 C 180.511719 251.113281 173.007812 265.515625 173.007812 254.472656 C 168 254.472656 163.246094 266.230469 161.25 266.230469 C 161.25 266.230469 161.25 267.910156 161.25 267.910156 Z M 161.25 267.910156 "/>
<path style=" stroke:none;fill-rule:nonzero;fill:rgb(88.627452%,47.058824%,63.137257%);fill-opacity:1;" d="M 175.527344 251.113281 C 172.753906 251.113281 173.007812 251.917969 173.007812 254.472656 C 173.007812 254.472656 175.527344 251.113281 175.527344 251.113281 Z M 175.527344 251.113281 "/>
<path style=" stroke:none;fill-rule:nonzero;fill:rgb(8.235294%,75.294119%,100%);fill-opacity:1;" d="M 176.367188 251.113281 C 180.511719 251.113281 173.007812 265.515625 173.007812 254.472656 C 173.007812 254.472656 175.527344 251.113281 175.527344 251.113281 C 175.527344 251.113281 176.367188 251.113281 176.367188 251.113281 Z M 176.367188 251.113281 "/>
<path style=" stroke:none;fill-rule:nonzero;fill:rgb(8.235294%,75.294119%,100%);fill-opacity:1;" d="M 231.796875 251.113281 L 230.117188 253.632812 C 230.117188 262.476562 239.84375 251.113281 231.796875 251.113281 Z M 231.796875 251.113281 "/>
<path style=" stroke:none;fill-rule:evenodd;fill:rgb(98.039216%,50.196081%,44.705883%);fill-opacity:1;" d="M 297.304688 309.0625 C 297.304688 310.683594 298.925781 309.0625 297.304688 309.0625 M 297.304688 302.34375 C 297.304688 303.964844 298.925781 302.34375 297.304688 302.34375 M 286.386719 291.425781 C 288.765625 291.425781 290.453125 293.105469 292.265625 293.105469 C 298.054688 293.105469 310.585938 299.097656 313.261719 304.445312 C 314.496094 306.910156 310.527344 308.210938 311.582031 310.320312 C 313.085938 313.328125 314.652344 319.496094 310.320312 321.660156 C 308.035156 322.804688 306.09375 317.449219 304.445312 316.621094 C 303.539062 316.167969 301.753906 317.460938 301.085938 317.460938 C 301.085938 317.460938 296.882812 313.261719 296.882812 313.261719 C 296.882812 313.261719 296.046875 315.78125 296.046875 315.78125 C 296.046875 315.78125 294.367188 311.582031 294.367188 311.582031 C 294.367188 311.582031 287.648438 312.421875 287.648438 312.421875 C 285.945312 311.570312 283.6875 305.703125 282.609375 305.703125 C 282.609375 305.703125 280.929688 307.382812 280.929688 307.382812 C 279.742188 307.382812 277.578125 303.585938 276.308594 306.125 C 275.566406 307.605469 276.972656 310.621094 275.046875 311.582031 C 275.046875 311.582031 270.429688 313.679688 270.429688 313.679688 C 269.636719 315.265625 269.652344 317.21875 267.492188 318.300781 C 266.015625 319.039062 259.4375 319.3125 257.414062 318.300781 C 257.414062 318.300781 254.890625 314.941406 254.890625 314.941406 C 246.675781 314.941406 249.921875 317.179688 246.074219 309.484375 C 246.074219 309.484375 242.714844 306.125 242.714844 306.125 C 241.796875 304.289062 242.835938 300 243.554688 298.5625 C 243.554688 298.5625 242.714844 291.84375 242.714844 291.84375 C 243.9375 289.398438 245.875 289.214844 248.171875 288.066406 C 248.171875 288.066406 249.851562 285.546875 249.851562 285.546875 C 249.851562 285.546875 252.375 286.386719 252.375 286.386719 C 253.964844 285.589844 258.832031 282.898438 260.773438 283.867188 C 267.574219 287.269531 270.054688 283.890625 271.6875 284.707031 C 275.566406 286.644531 271.625 289.714844 275.046875 291.425781 C 276.992188 292.398438 278.683594 290.019531 281.347656 292.6875 C 282.726562 294.0625 281.496094 298.144531 283.445312 298.144531 C 284.972656 298.144531 284.386719 295.847656 284.707031 295.203125 C 284.707031 295.203125 287.226562 293.523438 287.226562 293.523438 C 287.226562 293.523438 286.386719 291.425781 286.386719 291.425781 Z M 286.386719 291.425781 "/>
<path style=" stroke:none;fill-rule:evenodd;fill:rgb(98.039216%,50.196081%,44.705883%);fill-opacity:1;" d="M 102.460938 312.421875 C 102.460938 314.042969 104.082031 312.421875 102.460938 312.421875 M 131.855469 300.664062 C 131.855469 307.457031 139.289062 300.664062 131.855469 300.664062 M 145.292969 285.546875 C 145.292969 287.410156 136.40625 289.464844 135.214844 291.84375 L 134.796875 299.824219 C 130.84375 299.824219 133.585938 293.289062 130.59375 294.785156 C 127.765625 296.199219 131.210938 303.183594 128.914062 303.183594 L 123.039062 296.464844 C 119.984375 294.9375 115.820312 296.636719 113.796875 295.625 C 108.410156 292.929688 109.761719 299.742188 107.921875 300.664062 L 104.5625 300.664062 L 102.882812 304.023438 C 101.273438 304.828125 99.398438 303.011719 98.261719 305.28125 C 96.972656 307.855469 100.476562 312.613281 99.941406 313.679688 C 99.003906 315.554688 96.941406 318.601562 98.261719 321.242188 C 101.09375 326.902344 103.078125 319.980469 104.5625 319.980469 C 105.851562 319.980469 103.59375 325.921875 107.078125 324.179688 C 108.105469 323.667969 107.429688 317.460938 109.601562 317.460938 C 119.496094 317.460938 111.429688 317.382812 118 314.101562 L 122.195312 313.261719 L 126.398438 308.222656 C 127.300781 308.222656 128.808594 312.894531 131.4375 311.582031 C 134.976562 309.8125 136.585938 311.945312 138.992188 310.742188 L 140.671875 309.0625 L 141.09375 315.359375 C 141.671875 316.519531 146.144531 321.875 147.390625 322.5 C 150.097656 323.851562 152.507812 317.460938 154.109375 317.460938 L 156.632812 315.78125 L 157.050781 322.078125 C 157.519531 323.015625 165.808594 322.109375 166.710938 321.660156 C 173.890625 318.070312 162.730469 313.242188 163.769531 311.164062 C 164.480469 309.738281 168.417969 310.265625 169.648438 307.804688 C 171.820312 303.460938 164.449219 304.121094 163.769531 302.765625 L 163.769531 291.84375 C 162.707031 289.71875 158.386719 290.625 156.632812 289.746094 L 155.789062 287.226562 C 152.691406 285.675781 149.082031 285.546875 145.292969 285.546875 Z M 145.292969 285.546875 "/>
<path style=" stroke:none;fill-rule:nonzero;fill:rgb(98.039216%,50.196081%,44.705883%);fill-opacity:1;" d="M 127.65625 312.421875 L 126.816406 315.359375 C 131.148438 324.027344 135.234375 312.421875 127.65625 312.421875 Z M 127.65625 312.421875 "/>
</g>
</svg>
