<?xml version="1.0" encoding="UTF-8"?>
<svg xmlns="http://www.w3.org/2000/svg" xmlns:xlink="http://www.w3.org/1999/xlink" width="430px" height="430px" viewBox="0 0 430 430" version="1.1">
<g id="surface1">
<rect x="0" y="0" width="430" height="430" style="fill:rgb(0%,0%,0%);fill-opacity:1;stroke:none;"/>
<path style=" stroke:none;fill-rule:evenodd;fill:rgb(1.176471%,75.686276%,17.647059%);fill-opacity:1;" d="M 174.6875 140.253906 C 174.6875 142.011719 177.832031 140.253906 174.6875 140.253906 M 176.367188 139.414062 C 176.367188 141.035156 177.988281 139.414062 176.367188 139.414062 M 108.339844 235.15625 C 106.253906 235.15625 104.957031 236.835938 103.300781 236.835938 C 103.300781 236.835938 97 236.835938 97 236.835938 C 92.871094 234.769531 83.957031 222.921875 81.464844 217.9375 C 81.464844 217.9375 80.625 209.539062 80.625 209.539062 C 79.3125 206.917969 77.761719 204.652344 76.425781 201.984375 C 76.425781 201.984375 77.265625 197.78125 77.265625 197.78125 C 70.507812 184.269531 67.269531 164.027344 74.746094 149.070312 C 74.746094 149.070312 73.90625 146.554688 73.90625 146.554688 C 73.90625 145.078125 80.886719 127.3125 81.882812 126.816406 C 88.101562 123.707031 91.203125 116.277344 95.320312 114.21875 C 101.261719 111.25 106.992188 107.964844 112.960938 104.980469 C 112.960938 104.980469 118 104.140625 118 104.140625 C 126.738281 99.769531 135.957031 98.101562 144.03125 94.0625 C 144.03125 94.0625 147.390625 94.0625 147.390625 94.0625 C 153.9375 90.789062 161.765625 90.65625 168.390625 87.34375 C 176.222656 83.425781 192.894531 91.195312 198.625 94.0625 C 201.507812 95.503906 202.050781 100.816406 203.664062 101.621094 C 205.25 102.414062 205.390625 97.75 205.761719 97 C 205.761719 97 212.0625 89.863281 212.0625 89.863281 C 218.238281 86.773438 226.140625 87.863281 232.21875 84.824219 C 234.738281 83.5625 238.023438 86.503906 240.195312 86.503906 C 245.636719 86.503906 251.300781 89.863281 254.054688 89.863281 C 258.964844 89.863281 264.277344 90.777344 269.171875 93.222656 C 269.171875 93.222656 275.046875 93.222656 275.046875 93.222656 C 279.417969 95.40625 284.027344 96.871094 288.484375 99.101562 C 288.484375 99.101562 293.523438 99.101562 293.523438 99.101562 C 293.523438 99.101562 299.40625 104.140625 299.40625 104.140625 C 312.730469 110.804688 321.414062 114.148438 328.378906 128.078125 C 328.378906 128.078125 330.058594 128.078125 330.058594 128.078125 C 331.828125 131.617188 332.371094 137.742188 333.417969 139.835938 C 335.640625 144.28125 337.117188 148.910156 339.296875 153.273438 C 339.296875 153.273438 340.136719 163.351562 340.136719 163.351562 C 340.71875 164.519531 342.367188 170.644531 341.816406 171.75 C 340.777344 173.828125 340.136719 179.609375 340.136719 181.828125 C 340.136719 187.4375 340.550781 191.078125 337.617188 196.945312 C 336.316406 199.546875 337.25 203.558594 335.9375 206.179688 C 334.820312 208.414062 331.761719 210.335938 330.898438 212.0625 C 327.902344 218.054688 325.460938 230.105469 318.71875 233.476562 C 315.042969 235.316406 309.363281 233.476562 306.542969 233.476562 C 303.296875 233.476562 294.476562 226.757812 293.523438 226.757812 C 290.015625 226.757812 285.492188 226.941406 281.765625 225.078125 C 279.890625 224.140625 278.980469 227.464844 277.570312 226.757812 C 274.246094 225.097656 272.355469 226.425781 268.328125 228.4375 C 266.351562 229.425781 264.710938 226.757812 262.871094 226.757812 C 262.871094 226.757812 261.609375 225.078125 261.609375 225.078125 C 260.734375 225.078125 260.046875 226.757812 258.671875 226.757812 C 254.882812 226.757812 258.671875 223.230469 258.671875 221.296875 C 258.671875 221.296875 256.992188 220.460938 256.992188 220.460938 C 255.867188 218.207031 251.613281 210.800781 253.632812 210.800781 C 255.660156 210.800781 262.871094 211.175781 262.871094 207.859375 C 262.871094 207.859375 259.511719 206.179688 259.511719 206.179688 C 259.511719 206.179688 261.191406 205.34375 261.191406 205.34375 C 261.191406 205.34375 257.832031 203.664062 257.832031 203.664062 C 257.832031 203.664062 260.351562 201.984375 260.351562 201.984375 C 260.351562 200.25 256.3125 196.652344 259.929688 194.84375 C 259.929688 194.84375 269.589844 193.585938 269.589844 193.585938 C 269.589844 193.585938 267.070312 192.742188 267.070312 192.742188 C 267.070312 192.742188 273.789062 191.90625 273.789062 191.90625 C 273.789062 191.90625 270.429688 191.0625 270.429688 191.0625 C 270.429688 189.5 277.726562 191.824219 278.40625 191.484375 C 278.40625 191.484375 277.148438 190.226562 277.148438 190.226562 C 277.148438 190.226562 280.085938 188.964844 280.085938 188.964844 C 281.40625 188.304688 288.90625 188.398438 288.90625 186.023438 C 288.90625 186.023438 286.386719 185.1875 286.386719 185.1875 C 286.386719 184.199219 292.1875 182.824219 293.105469 180.984375 C 296.808594 173.582031 291.308594 153.84375 282.609375 149.492188 C 274.089844 145.234375 266.535156 142.714844 258.25 138.574219 C 258.25 138.574219 253.210938 138.574219 253.210938 138.574219 C 249.773438 136.855469 244.621094 134.890625 240.617188 136.894531 C 237.199219 138.605469 237.351562 143.835938 235.996094 146.554688 C 235.996094 146.554688 231.796875 153.273438 231.796875 153.273438 C 231.796875 153.273438 232.636719 154.953125 232.636719 154.953125 C 232.636719 154.953125 230.957031 156.632812 230.957031 156.632812 C 229.554688 159.433594 231.648438 168.6875 230.957031 170.070312 C 230.214844 171.550781 228.925781 173.289062 227.597656 175.945312 C 227.378906 176.382812 227.378906 180.550781 227.597656 180.984375 C 227.597656 180.984375 229.277344 181.828125 229.277344 181.828125 C 229.277344 184.242188 226.691406 188.964844 230.957031 188.964844 C 230.957031 188.964844 228.4375 199.042969 228.4375 199.042969 C 228.4375 199.042969 227.597656 203.242188 227.597656 203.242188 C 221.339844 203.242188 215.578125 207.441406 208.28125 207.441406 C 208.28125 207.441406 207.441406 207.441406 207.441406 207.441406 C 207.441406 207.441406 205.761719 206.601562 205.761719 206.601562 C 205.761719 199.378906 204.082031 202.765625 204.082031 207.441406 C 200.40625 207.441406 194.308594 204.863281 191.0625 203.242188 C 187.792969 201.605469 185.441406 206.601562 183.085938 206.601562 C 183.085938 206.601562 181.40625 203.242188 181.40625 203.242188 C 186.246094 203.242188 180.566406 197.226562 180.566406 201.5625 C 179.410156 201.5625 178.046875 199.863281 178.046875 198.203125 C 178.046875 198.203125 178.046875 193.164062 178.046875 193.164062 C 178.046875 193.164062 178.046875 191.484375 178.046875 191.484375 C 179.285156 191.484375 178.886719 189.84375 178.886719 188.964844 C 178.886719 188.964844 181.828125 190.644531 181.828125 190.644531 C 184.324219 189.398438 183.773438 185.492188 184.765625 183.507812 C 184.765625 183.507812 186.445312 182.664062 186.445312 182.664062 C 186.445312 182.664062 183.925781 176.789062 183.925781 176.789062 C 183.925781 164.988281 177.734375 156.847656 173.007812 147.390625 C 171.964844 145.304688 169.765625 139.265625 168.390625 138.574219 C 168.390625 138.574219 153.273438 139.414062 153.273438 139.414062 C 151.929688 140.085938 156.324219 140.828125 154.109375 141.933594 C 151.507812 143.234375 142.867188 142.9375 139.835938 144.453125 C 137.691406 145.523438 135.9375 150.332031 133.535156 150.332031 C 133.535156 150.332031 132.695312 151.171875 132.695312 151.171875 C 132.695312 152.84375 126.816406 151.410156 126.816406 153.273438 C 126.816406 153.273438 128.496094 154.953125 128.496094 154.953125 C 126.507812 158.925781 121.269531 159.324219 119.257812 163.351562 C 118.578125 164.710938 120.097656 165.871094 120.097656 166.710938 C 120.097656 172.527344 118.261719 177.3125 120.9375 182.664062 C 123 186.789062 142.070312 192.601562 146.554688 194.84375 C 146.554688 194.84375 149.070312 198.203125 149.070312 198.203125 C 154.078125 200.703125 156.75 202.402344 162.089844 202.402344 C 162.089844 202.402344 162.089844 204.921875 162.089844 204.921875 C 162.089844 204.921875 159.570312 206.179688 159.570312 206.179688 C 159.570312 207.582031 163.066406 205.910156 161.25 209.539062 C 160.484375 211.074219 155.371094 213.914062 155.371094 214.578125 C 155.371094 214.578125 157.050781 217.101562 157.050781 217.101562 C 155.546875 220.109375 154.53125 226 154.53125 228.4375 C 147.785156 228.4375 139.972656 227.597656 132.695312 227.597656 C 131.34375 227.597656 127.578125 225.746094 127.234375 225.917969 C 124.757812 227.15625 110.917969 234.316406 109.179688 234.316406 C 109.179688 234.316406 108.339844 235.15625 108.339844 235.15625 Z M 108.339844 235.15625 "/>
<path style=" stroke:none;fill-rule:nonzero;fill:rgb(100%,43.137255%,0%);fill-opacity:1;" d="M 252.792969 209.960938 L 253.632812 210.800781 C 255.660156 210.800781 262.871094 211.175781 262.871094 207.859375 C 262.871094 207.859375 259.511719 206.179688 259.511719 206.179688 C 259.511719 206.179688 261.191406 205.34375 261.191406 205.34375 C 261.191406 205.34375 257.832031 203.664062 257.832031 203.664062 C 257.832031 203.664062 260.351562 201.984375 260.351562 201.984375 C 260.351562 200.25 256.3125 196.652344 259.929688 194.84375 C 259.929688 194.84375 269.589844 193.585938 269.589844 193.585938 C 269.589844 193.585938 267.070312 192.742188 267.070312 192.742188 C 267.070312 192.742188 273.789062 191.90625 273.789062 191.90625 C 273.789062 191.90625 270.429688 191.0625 270.429688 191.0625 C 270.429688 189.5 277.726562 191.824219 278.40625 191.484375 C 278.40625 191.484375 277.148438 190.226562 277.148438 190.226562 C 277.148438 190.226562 280.085938 188.964844 280.085938 188.964844 C 281.40625 188.304688 288.90625 188.398438 288.90625 186.023438 C 288.90625 186.023438 286.386719 185.1875 286.386719 185.1875 C 286.386719 184.199219 292.1875 182.824219 293.105469 180.984375 C 296.808594 173.582031 291.308594 153.84375 282.609375 149.492188 C 274.089844 145.234375 266.535156 142.714844 258.25 138.574219 C 258.25 138.574219 253.210938 138.574219 253.210938 138.574219 C 249.773438 136.855469 244.621094 134.890625 240.617188 136.894531 C 237.199219 138.605469 237.351562 143.835938 235.996094 146.554688 C 235.996094 146.554688 231.796875 153.273438 231.796875 153.273438 C 231.796875 153.273438 232.636719 154.953125 232.636719 154.953125 C 232.636719 154.953125 230.957031 156.632812 230.957031 156.632812 C 229.554688 159.433594 231.648438 168.6875 230.957031 170.070312 C 230.214844 171.550781 228.925781 173.289062 227.597656 175.945312 C 227.378906 176.382812 227.378906 180.550781 227.597656 180.984375 C 227.597656 180.984375 229.277344 181.828125 229.277344 181.828125 C 229.277344 184.242188 226.691406 188.964844 230.957031 188.964844 C 235.191406 188.964844 236.117188 180.566406 238.515625 180.566406 C 238.515625 176.171875 241.769531 175.320312 243.554688 171.75 C 244.882812 169.089844 245.59375 165.992188 246.914062 163.351562 C 250.046875 157.085938 263.417969 153.335938 269.171875 156.210938 C 269.171875 156.210938 277.988281 165.03125 277.988281 165.03125 C 277.988281 165.941406 278.960938 172.730469 276.726562 173.847656 C 276.726562 173.847656 265.8125 179.726562 265.8125 179.726562 C 263.113281 181.074219 259.269531 180.898438 256.570312 182.246094 C 251.210938 184.925781 246.664062 183.925781 241.035156 183.925781 C 241.035156 183.925781 238.515625 185.1875 238.515625 185.1875 C 236.585938 189.046875 238.515625 195.277344 238.515625 199.042969 C 239.628906 199.042969 246.074219 202.390625 246.074219 203.242188 C 247.113281 203.242188 248.59375 203.597656 248.59375 204.921875 C 248.59375 204.921875 250.273438 205.761719 250.273438 205.761719 C 250.273438 205.761719 252.792969 209.960938 252.792969 209.960938 Z M 252.792969 209.960938 "/>
<path style=" stroke:none;fill-rule:nonzero;fill:rgb(100%,43.137255%,0%);fill-opacity:1;" d="M 162.089844 202.402344 L 162.929688 202.402344 C 165.015625 202.402344 166.3125 200.722656 167.96875 200.722656 C 167.96875 200.722656 169.648438 199.042969 169.648438 199.042969 C 169.648438 199.042969 170.488281 197.363281 170.488281 197.363281 C 170.488281 194.988281 172.867188 193.867188 173.847656 191.90625 C 174.972656 189.652344 170.15625 187.882812 169.648438 186.867188 C 168.660156 184.890625 169.519531 182.8125 166.710938 181.40625 C 164.03125 180.066406 147.8125 181.707031 147.8125 178.886719 C 141.597656 178.886719 138.574219 174.910156 138.574219 169.648438 C 138.574219 168.734375 135.617188 165.449219 139.414062 165.449219 C 139.414062 165.449219 144.03125 160.410156 144.03125 160.410156 C 144.03125 160.410156 146.972656 161.25 146.972656 161.25 C 146.972656 160.253906 147.8125 160.253906 147.8125 161.25 C 147.8125 161.25 148.652344 161.25 148.652344 161.25 C 148.652344 161.25 149.492188 160.410156 149.492188 160.410156 C 149.492188 159.398438 154.53125 157.570312 154.53125 160.410156 C 154.53125 160.410156 158.730469 162.089844 158.730469 162.089844 C 166.140625 162.089844 164.53125 168.234375 166.289062 171.75 C 166.644531 172.460938 168.808594 172.199219 168.808594 177.207031 C 171.050781 177.207031 177.207031 187.8125 177.207031 188.125 C 177.207031 188.125 178.886719 188.964844 178.886719 188.964844 C 178.886719 188.964844 181.828125 190.644531 181.828125 190.644531 C 184.324219 189.398438 183.773438 185.492188 184.765625 183.507812 C 184.765625 183.507812 186.445312 182.664062 186.445312 182.664062 C 186.445312 182.664062 183.925781 176.789062 183.925781 176.789062 C 183.925781 164.988281 177.734375 156.847656 173.007812 147.390625 C 171.964844 145.304688 169.765625 139.265625 168.390625 138.574219 C 168.390625 138.574219 153.273438 139.414062 153.273438 139.414062 C 151.929688 140.085938 156.324219 140.828125 154.109375 141.933594 C 151.507812 143.234375 142.867188 142.9375 139.835938 144.453125 C 137.691406 145.523438 135.9375 150.332031 133.535156 150.332031 C 133.535156 150.332031 132.695312 151.171875 132.695312 151.171875 C 132.695312 152.84375 126.816406 151.410156 126.816406 153.273438 C 126.816406 153.273438 128.496094 154.953125 128.496094 154.953125 C 126.507812 158.925781 121.269531 159.324219 119.257812 163.351562 C 118.578125 164.710938 120.097656 165.871094 120.097656 166.710938 C 120.097656 172.527344 118.261719 177.3125 120.9375 182.664062 C 123 186.789062 142.070312 192.601562 146.554688 194.84375 C 146.554688 194.84375 149.070312 198.203125 149.070312 198.203125 C 154.078125 200.703125 156.75 202.402344 162.089844 202.402344 Z M 162.089844 202.402344 "/>
<path style=" stroke:none;fill-rule:nonzero;fill:rgb(11.372549%,40.784314%,92.156863%);fill-opacity:1;" d="M 176.367188 139.414062 C 176.367188 141.035156 177.988281 139.414062 176.367188 139.414062 Z M 176.367188 139.414062 "/>
<path style=" stroke:none;fill-rule:nonzero;fill:rgb(11.372549%,40.784314%,92.156863%);fill-opacity:1;" d="M 174.6875 140.253906 C 174.6875 142.011719 177.832031 140.253906 174.6875 140.253906 Z M 174.6875 140.253906 "/>
<path style=" stroke:none;fill-rule:nonzero;fill:rgb(50.588238%,30.980393%,100%);fill-opacity:1;" d="M 238.515625 180.566406 L 241.035156 183.925781 C 246.664062 183.925781 251.210938 184.925781 256.570312 182.246094 C 259.269531 180.898438 263.113281 181.074219 265.8125 179.726562 C 265.8125 179.726562 276.726562 173.847656 276.726562 173.847656 C 278.960938 172.730469 277.988281 165.941406 277.988281 165.03125 C 277.988281 165.03125 269.171875 156.210938 269.171875 156.210938 C 263.417969 153.335938 250.046875 157.085938 246.914062 163.351562 C 245.59375 165.992188 244.882812 169.089844 243.554688 171.75 C 241.769531 175.320312 238.515625 176.171875 238.515625 180.566406 Z M 238.515625 180.566406 "/>
<path style=" stroke:none;fill-rule:evenodd;fill:rgb(50.588238%,30.980393%,100%);fill-opacity:1;" d="M 143.613281 170.488281 L 141.933594 174.265625 L 147.8125 174.265625 L 145.710938 171.328125 L 143.613281 170.488281 M 178.046875 191.484375 L 178.046875 193.164062 C 178.046875 193.164062 175.945312 194.003906 175.945312 194.003906 C 174.433594 193.246094 172.121094 182.851562 169.226562 181.40625 C 163.007812 178.296875 155.335938 178.886719 147.8125 178.886719 C 141.597656 178.886719 138.574219 174.910156 138.574219 169.648438 C 139.953125 169.648438 139.414062 166.488281 139.414062 165.449219 C 139.414062 165.449219 144.03125 160.410156 144.03125 160.410156 C 144.03125 160.410156 146.972656 161.25 146.972656 161.25 C 146.972656 163.398438 150.769531 161.25 148.652344 161.25 C 148.652344 161.25 149.492188 160.410156 149.492188 160.410156 C 149.492188 160.410156 154.53125 160.410156 154.53125 160.410156 C 154.53125 160.410156 158.730469 162.089844 158.730469 162.089844 C 158.730469 163.0625 168.191406 177.207031 168.808594 177.207031 C 171.050781 177.207031 177.207031 187.8125 177.207031 188.125 C 177.207031 188.125 178.046875 191.484375 178.046875 191.484375 Z M 178.046875 191.484375 "/>
<path style=" stroke:none;fill-rule:nonzero;fill:rgb(50.588238%,30.980393%,100%);fill-opacity:1;" d="M 146.972656 161.25 L 147.8125 161.25 C 147.8125 160.253906 146.972656 160.253906 146.972656 161.25 Z M 146.972656 161.25 "/>
<path style=" stroke:none;fill-rule:nonzero;fill:rgb(50.588238%,30.980393%,100%);fill-opacity:1;" d="M 162.929688 240.195312 L 164.609375 244.394531 C 164.609375 246.621094 166.285156 246.28125 167.546875 246.914062 C 168.753906 247.515625 167.859375 250.847656 170.070312 251.953125 C 171.796875 252.816406 175.417969 250.117188 176.789062 249.433594 C 176.789062 249.433594 182.664062 249.433594 182.664062 249.433594 C 184.867188 248.335938 185.605469 244.40625 185.605469 243.132812 C 185.605469 243.132812 190.644531 240.617188 190.644531 240.617188 C 190.644531 240.617188 188.964844 238.09375 188.964844 238.09375 C 188.964844 237.257812 189.804688 236.414062 189.804688 235.578125 C 189.804688 235.578125 193.164062 233.898438 193.164062 233.898438 C 193.164062 233.898438 190.644531 232.21875 190.644531 232.21875 C 190.644531 226.671875 193.195312 225.5625 189.804688 218.78125 C 188.597656 216.363281 184.253906 210.335938 183.507812 209.960938 C 182.882812 209.648438 181.398438 206.601562 183.085938 206.601562 C 183.085938 206.601562 181.40625 203.242188 181.40625 203.242188 C 181.40625 203.242188 180.566406 201.5625 180.566406 201.5625 C 179.410156 201.5625 178.046875 199.863281 178.046875 198.203125 C 178.046875 198.203125 175.945312 195.683594 175.945312 195.683594 C 174.429688 194.925781 172.351562 197.363281 170.488281 197.363281 C 170.488281 197.363281 169.648438 199.042969 169.648438 199.042969 C 169.648438 200.511719 169.4375 200.722656 167.96875 200.722656 C 166.3125 200.722656 165.015625 202.402344 162.929688 202.402344 C 162.929688 203.28125 163.328125 204.921875 162.089844 204.921875 C 162.089844 204.921875 159.570312 206.179688 159.570312 206.179688 C 159.570312 207.582031 163.066406 205.910156 161.25 209.539062 C 160.484375 211.074219 155.371094 213.914062 155.371094 214.578125 C 155.371094 214.578125 157.050781 217.101562 157.050781 217.101562 C 155.546875 220.109375 154.53125 226 154.53125 228.4375 C 154.53125 228.4375 156.210938 230.117188 156.210938 230.117188 C 159.605469 230.117188 158.949219 224.558594 163.351562 226.757812 C 166.746094 228.457031 169.550781 240.195312 162.929688 240.195312 Z M 162.929688 240.195312 "/>
<path style=" stroke:none;fill-rule:nonzero;fill:rgb(50.588238%,30.980393%,100%);fill-opacity:1;" d="M 247.753906 241.035156 L 246.914062 245.234375 C 244.765625 245.234375 238.929688 251.949219 235.578125 250.273438 C 234.160156 249.566406 234.316406 247.054688 234.316406 246.492188 C 234.316406 244.542969 230.601562 245.265625 228.859375 244.394531 C 228.753906 244.34375 226.796875 239.585938 224.65625 238.515625 C 223.265625 237.820312 225.3125 234.316406 222.558594 234.316406 C 222.558594 234.316406 221.71875 233.476562 221.71875 233.476562 C 221.71875 233.476562 220.878906 231.375 220.878906 231.375 C 221.296875 230.539062 223.507812 230.753906 222.558594 228.859375 C 222.019531 227.78125 220.078125 227.097656 220.878906 225.5 C 220.878906 225.5 223.398438 222.976562 223.398438 222.976562 C 223.398438 222.976562 222.558594 220.460938 222.558594 220.460938 C 223.707031 218.164062 224.238281 214.609375 224.238281 212.898438 C 224.238281 212.789062 228.4375 209.625 228.4375 204.082031 C 228.4375 204.082031 230.117188 200.722656 230.117188 200.722656 C 231.9375 200.722656 229.464844 198.320312 231.375 197.363281 C 234.191406 195.957031 236.617188 199.042969 238.515625 199.042969 C 239.628906 199.042969 246.074219 202.390625 246.074219 203.242188 C 246.074219 205.167969 246.910156 204.921875 248.59375 204.921875 C 248.59375 204.921875 250.273438 205.761719 250.273438 205.761719 C 246.457031 205.761719 250.574219 209.960938 252.792969 209.960938 C 252.792969 209.960938 253.632812 210.800781 253.632812 210.800781 C 251.613281 210.800781 255.867188 218.207031 256.992188 220.460938 C 256.992188 220.460938 258.671875 221.296875 258.671875 221.296875 C 258.671875 223.230469 254.882812 226.757812 258.671875 226.757812 C 258.671875 226.757812 258.671875 229.277344 258.671875 229.277344 C 258.671875 231.832031 258.925781 232.636719 256.152344 232.636719 C 256.152344 222.523438 240.347656 228.320312 244.394531 236.414062 C 245.019531 237.664062 245.429688 241.035156 247.753906 241.035156 Z M 247.753906 241.035156 "/>
<path style=" stroke:none;fill-rule:nonzero;fill:rgb(0.784314%,17.254902%,100%);fill-opacity:1;" d="M 227.597656 203.242188 L 228.4375 204.082031 C 228.4375 204.082031 230.117188 200.722656 230.117188 200.722656 C 230.117188 199.253906 229.90625 199.042969 228.4375 199.042969 C 228.4375 199.042969 227.597656 203.242188 227.597656 203.242188 Z M 227.597656 203.242188 "/>
<path style=" stroke:none;fill-rule:nonzero;fill:rgb(0.784314%,17.254902%,100%);fill-opacity:1;" d="M 180.566406 201.5625 L 181.40625 203.242188 C 186.246094 203.242188 180.566406 197.226562 180.566406 201.5625 Z M 180.566406 201.5625 "/>
<path style=" stroke:none;fill-rule:nonzero;fill:rgb(88.235295%,94.117647%,5.098039%);fill-opacity:1;" d="M 139.414062 264.550781 C 139.414062 267.433594 144.597656 269.316406 146.554688 271.269531 C 156.277344 280.996094 169.609375 282.417969 181.828125 276.308594 C 184.328125 275.058594 185.453125 271.996094 186.445312 270.007812 C 187.519531 267.859375 193.269531 266.4375 194.84375 263.289062 L 199.882812 253.210938 C 200.726562 251.527344 199.835938 249.109375 200.722656 247.335938 L 200.722656 238.9375 L 204.082031 232.21875 L 204.5 228.4375 C 206.515625 227.429688 205.429688 231.554688 205.761719 232.21875 C 206.796875 234.285156 208.070312 235.996094 209.121094 238.09375 L 209.960938 245.65625 C 214.132812 254 217.964844 262.894531 225.078125 270.007812 L 234.734375 278.828125 C 236.367188 279.644531 253.8125 279.789062 255.734375 278.828125 C 260.167969 276.609375 262.566406 273.980469 264.550781 270.007812 C 265.871094 267.367188 269.589844 268.339844 269.589844 264.550781 C 269.589844 264.550781 264.550781 260.773438 264.550781 260.773438 C 263.433594 258.539062 259.09375 250.695312 256.570312 249.433594 C 256.570312 249.433594 252.375 249.433594 252.375 249.433594 C 252.375 249.433594 246.914062 245.234375 246.914062 245.234375 C 244.765625 245.234375 238.929688 251.949219 235.578125 250.273438 C 234.160156 249.566406 234.316406 247.054688 234.316406 246.492188 C 234.316406 244.542969 230.601562 245.265625 228.859375 244.394531 C 228.753906 244.34375 226.796875 239.585938 224.65625 238.515625 C 223.265625 237.820312 225.3125 234.316406 222.558594 234.316406 C 222.558594 234.316406 221.71875 233.476562 221.71875 233.476562 C 221.71875 233.476562 220.878906 231.375 220.878906 231.375 C 221.296875 230.539062 223.507812 230.753906 222.558594 228.859375 C 222.019531 227.78125 220.078125 227.097656 220.878906 225.5 C 220.878906 225.5 223.398438 222.976562 223.398438 222.976562 C 223.398438 222.976562 222.558594 220.460938 222.558594 220.460938 C 223.707031 218.164062 224.238281 214.609375 224.238281 212.898438 C 224.238281 212.789062 228.4375 209.625 228.4375 204.082031 C 228.4375 204.082031 227.597656 203.242188 227.597656 203.242188 C 221.339844 203.242188 215.578125 207.441406 208.28125 207.441406 C 208.28125 208.4375 207.441406 208.4375 207.441406 207.441406 C 207.441406 207.441406 205.761719 206.601562 205.761719 206.601562 C 205.761719 206.601562 204.082031 207.441406 204.082031 207.441406 C 200.40625 207.441406 194.308594 204.863281 191.0625 203.242188 C 187.792969 201.605469 185.441406 206.601562 183.085938 206.601562 C 181.398438 206.601562 182.882812 209.648438 183.507812 209.960938 C 184.253906 210.335938 188.597656 216.363281 189.804688 218.78125 C 193.195312 225.5625 190.644531 226.671875 190.644531 232.21875 C 190.644531 232.21875 193.164062 233.898438 193.164062 233.898438 C 193.164062 233.898438 189.804688 235.578125 189.804688 235.578125 C 189.804688 236.414062 188.964844 237.257812 188.964844 238.09375 C 188.964844 238.09375 190.644531 240.617188 190.644531 240.617188 C 190.644531 240.617188 185.605469 243.132812 185.605469 243.132812 C 185.605469 244.40625 184.867188 248.335938 182.664062 249.433594 C 182.664062 249.433594 176.789062 249.433594 176.789062 249.433594 C 175.417969 250.117188 171.796875 252.816406 170.070312 251.953125 C 167.859375 250.847656 168.753906 247.515625 167.546875 246.914062 C 166.285156 246.28125 164.609375 246.621094 164.609375 244.394531 C 164.609375 244.394531 161.25 243.554688 161.25 243.554688 C 157.699219 243.554688 157.25 247.863281 155.789062 248.59375 C 148.089844 252.445312 147.992188 254.53125 144.453125 261.609375 C 144.453125 261.609375 141.515625 262.03125 141.515625 262.03125 C 141.515625 262.03125 139.414062 264.550781 139.414062 264.550781 Z M 139.414062 264.550781 "/>
<path style=" stroke:none;fill-rule:nonzero;fill:rgb(1.176471%,75.686276%,17.647059%);fill-opacity:1;" d="M 246.074219 203.242188 C 247.113281 203.242188 248.59375 203.597656 248.59375 204.921875 C 246.910156 204.921875 246.074219 205.167969 246.074219 203.242188 Z M 246.074219 203.242188 "/>
<path style=" stroke:none;fill-rule:nonzero;fill:rgb(1.176471%,75.686276%,17.647059%);fill-opacity:1;" d="M 250.273438 205.761719 L 252.792969 209.960938 C 250.574219 209.960938 246.457031 205.761719 250.273438 205.761719 Z M 250.273438 205.761719 "/>
<path style=" stroke:none;fill-rule:nonzero;fill:rgb(100%,52.941179%,0%);fill-opacity:1;" d="M 246.914062 245.234375 L 252.375 249.433594 L 256.570312 249.433594 C 259.09375 250.695312 263.433594 258.539062 264.550781 260.773438 L 269.589844 264.550781 C 270.34375 264.550781 276.699219 264.566406 278.40625 263.710938 C 279.847656 262.992188 286.941406 255.3125 288.484375 255.3125 C 290.53125 255.3125 293.238281 251.113281 295.203125 251.113281 C 295.203125 251.113281 296.882812 252.792969 296.882812 252.792969 C 299.257812 252.792969 309.371094 243.355469 310.742188 240.617188 C 311.832031 238.433594 306.542969 236.929688 306.542969 233.476562 C 303.296875 233.476562 294.476562 226.757812 293.523438 226.757812 C 290.015625 226.757812 285.492188 226.941406 281.765625 225.078125 C 279.890625 224.140625 278.980469 227.464844 277.570312 226.757812 C 274.246094 225.097656 272.355469 226.425781 268.328125 228.4375 C 266.351562 229.425781 264.710938 226.757812 262.871094 226.757812 C 262.871094 229.261719 260.664062 229.277344 258.671875 229.277344 C 258.671875 231.832031 258.925781 232.636719 256.152344 232.636719 C 256.152344 232.636719 253.632812 234.734375 253.632812 234.734375 C 253.632812 234.734375 255.3125 236.414062 255.3125 236.414062 C 255.3125 236.414062 251.953125 238.09375 251.953125 238.09375 C 251.953125 238.09375 249.015625 241.875 249.015625 241.875 C 249.015625 241.875 247.753906 241.035156 247.753906 241.035156 C 247.753906 241.035156 246.914062 245.234375 246.914062 245.234375 Z M 246.914062 245.234375 "/>
<path style=" stroke:none;fill-rule:nonzero;fill:rgb(100%,52.941179%,0%);fill-opacity:1;" d="M 161.25 243.554688 C 157.699219 243.554688 157.25 247.863281 155.789062 248.59375 C 148.089844 252.445312 147.992188 254.53125 144.453125 261.609375 L 141.515625 262.03125 L 139.414062 264.550781 C 131.144531 264.550781 124.0625 258.34375 116.320312 254.472656 C 113.304688 252.964844 108.339844 252.714844 108.339844 249.851562 C 108.339844 247.257812 100.804688 245.699219 99.941406 243.976562 C 97.777344 239.640625 103.300781 239.75 103.300781 236.835938 C 104.957031 236.835938 106.253906 235.15625 108.339844 235.15625 C 108.339844 235.15625 109.179688 234.316406 109.179688 234.316406 C 110.917969 234.316406 124.757812 227.15625 127.234375 225.917969 C 127.578125 225.746094 131.34375 227.597656 132.695312 227.597656 C 139.972656 227.597656 147.785156 228.4375 154.53125 228.4375 C 154.53125 228.4375 156.210938 230.117188 156.210938 230.117188 C 156.210938 233.398438 157.765625 240.195312 162.089844 240.195312 C 162.089844 240.195312 161.25 243.554688 161.25 243.554688 Z M 161.25 243.554688 "/>
<path style=" stroke:none;fill-rule:nonzero;fill:rgb(48.627451%,98.823529%,0%);fill-opacity:1;" d="M 162.089844 240.195312 L 162.929688 240.195312 C 169.550781 240.195312 166.746094 228.457031 163.351562 226.757812 C 158.949219 224.558594 159.605469 230.117188 156.210938 230.117188 C 156.210938 233.398438 157.765625 240.195312 162.089844 240.195312 Z M 162.089844 240.195312 "/>
<path style=" stroke:none;fill-rule:nonzero;fill:rgb(48.627451%,98.823529%,0%);fill-opacity:1;" d="M 256.152344 232.636719 L 253.632812 234.734375 L 255.3125 236.414062 L 251.953125 238.09375 L 249.015625 241.875 L 247.753906 241.035156 C 245.429688 241.035156 245.019531 237.664062 244.394531 236.414062 C 240.347656 228.320312 256.152344 222.523438 256.152344 232.636719 Z M 256.152344 232.636719 "/>
<path style=" stroke:none;fill-rule:nonzero;fill:rgb(14.901961%,49.411765%,100%);fill-opacity:1;" d="M 191.484375 267.910156 C 191.484375 270.566406 188.191406 273.503906 189.804688 276.726562 C 192.972656 283.058594 206.722656 272.378906 197.78125 267.910156 C 196.382812 267.210938 192.242188 267.910156 191.484375 267.910156 Z M 191.484375 267.910156 "/>
<path style=" stroke:none;fill-rule:nonzero;fill:rgb(14.901961%,49.411765%,100%);fill-opacity:1;" d="M 216.679688 268.75 C 216.679688 270.464844 213.320312 272.910156 213.320312 275.046875 C 213.320312 277.09375 217.011719 277.988281 217.101562 277.988281 L 219.617188 280.507812 C 221.089844 281.242188 219.851562 278.710938 221.296875 277.988281 C 222.773438 277.25 225.824219 277.753906 226.757812 275.890625 C 228.0625 273.28125 219.113281 268.75 216.679688 268.75 Z M 216.679688 268.75 "/>
<path style=" stroke:none;fill-rule:evenodd;fill:rgb(98.039216%,50.196081%,44.705883%);fill-opacity:1;" d="M 253.632812 287.226562 C 253.632812 288.847656 255.253906 287.226562 253.632812 287.226562 M 258.671875 277.988281 L 255.734375 279.667969 L 254.054688 282.1875 L 250.695312 281.347656 C 247.363281 283.011719 249.433594 284.933594 249.433594 287.226562 L 248.59375 290.164062 C 250.160156 293.296875 253.945312 290.796875 254.472656 291.84375 L 255.3125 296.046875 C 255.761719 296.949219 258.28125 296.820312 257.832031 297.726562 C 256.945312 299.496094 256.574219 298.144531 255.734375 298.144531 L 254.054688 301.503906 L 249.015625 301.503906 C 246.703125 302.660156 247.042969 306.6875 245.65625 307.382812 C 243.789062 308.316406 239.402344 302.667969 235.996094 309.484375 C 234.375 312.726562 238.515625 314.230469 238.515625 316.203125 L 236.835938 317.039062 C 234.183594 322.34375 235.890625 328.535156 240.617188 330.898438 C 241.433594 331.304688 251.066406 328.191406 252.375 327.539062 L 255.3125 325.4375 C 255.3125 324.324219 252.75 323.847656 253.632812 322.078125 C 255.726562 317.894531 262.15625 319.308594 264.550781 314.523438 C 265.355469 312.90625 266.15625 300.933594 265.390625 299.40625 L 262.871094 296.882812 C 262.871094 296.007812 266.703125 294.472656 265.390625 291.84375 L 261.609375 292.265625 L 258.671875 289.328125 C 256.433594 284.851562 265.070312 277.988281 258.671875 277.988281 Z M 258.671875 277.988281 "/>
<path style=" stroke:none;fill-rule:nonzero;fill:rgb(98.039216%,50.196081%,44.705883%);fill-opacity:1;" d="M 157.050781 280.507812 C 157.050781 282.964844 153.882812 281.574219 152.851562 282.609375 C 151.640625 283.816406 150.332031 287.644531 149.492188 289.328125 C 148.320312 291.667969 153.179688 298.609375 155.789062 297.304688 C 158.351562 296.023438 157.742188 292.984375 158.730469 291.007812 L 162.089844 289.328125 C 164.472656 284.5625 161.429688 280.507812 157.050781 280.507812 Z M 157.050781 280.507812 "/>
<path style=" stroke:none;fill-rule:nonzero;fill:rgb(98.039216%,50.196081%,44.705883%);fill-opacity:1;" d="M 151.171875 304.863281 C 151.171875 306.835938 147.308594 308.472656 148.652344 311.164062 C 150.996094 315.851562 156.738281 318.097656 157.890625 320.398438 C 159.898438 324.414062 159.300781 328.871094 165.03125 331.738281 C 167.089844 332.769531 170.632812 337.335938 173.429688 335.9375 L 181.40625 329.640625 C 182.804688 326.84375 182.058594 314.636719 179.304688 313.261719 C 177.921875 312.570312 173.40625 309.074219 171.75 309.902344 C 169.964844 310.792969 167.585938 313.699219 165.03125 312.421875 C 160.253906 310.035156 156.980469 304.863281 151.171875 304.863281 Z M 151.171875 304.863281 "/>
<path style=" stroke:none;fill-rule:nonzero;fill:rgb(98.039216%,50.196081%,44.705883%);fill-opacity:1;" d="M 151.171875 325.859375 C 151.171875 331.144531 156.457031 325.859375 151.171875 325.859375 Z M 151.171875 325.859375 "/>
</g>
</svg>
