<?xml version="1.0" encoding="UTF-8"?>
<svg xmlns="http://www.w3.org/2000/svg" xmlns:xlink="http://www.w3.org/1999/xlink" width="430px" height="430px" viewBox="0 0 430 430" version="1.1">
<g id="surface1">
<rect x="0" y="0" width="430" height="430" style="fill:rgb(0%,0%,0%);fill-opacity:1;stroke:none;"/>
<path style=" stroke:none;fill-rule:nonzero;fill:rgb(1.176471%,75.686276%,17.647059%);fill-opacity:1;" d="M 33.59375 199.882812 L 35.273438 199.882812 C 36.609375 199.882812 37.855469 197.363281 38.210938 197.363281 C 39.398438 197.363281 42.058594 199.640625 43.25 199.042969 C 45.164062 198.085938 47.371094 198.242188 49.132812 197.363281 C 49.132812 197.363281 50.8125 194.003906 50.8125 194.003906 C 50.8125 194.003906 51.648438 195.683594 51.648438 195.683594 C 52.261719 195.683594 51.894531 191.484375 54.171875 191.484375 C 54.171875 191.484375 55.851562 194.84375 55.851562 194.84375 C 55.851562 194.84375 56.269531 193.585938 56.269531 193.585938 C 57.066406 191.992188 63.773438 188.964844 64.667969 188.964844 C 64.667969 188.964844 65.507812 188.125 65.507812 188.125 C 64.332031 188.125 64.332031 186.445312 65.507812 186.445312 C 65.507812 170.195312 72.070312 152.746094 79.785156 137.3125 C 79.785156 137.3125 87.34375 127.234375 87.34375 127.234375 C 88.289062 125.347656 100.742188 112.539062 101.203125 112.539062 C 105.644531 112.539062 111.417969 106.589844 116.320312 104.140625 C 118.445312 103.078125 121.722656 103.539062 123.875 102.460938 C 131.878906 98.460938 143.972656 94.902344 153.273438 94.902344 C 154.753906 94.902344 157.496094 91.949219 158.3125 91.542969 C 158.3125 91.542969 163.351562 91.542969 163.351562 91.542969 C 168.191406 89.121094 171.246094 88.183594 177.207031 88.183594 C 179.554688 88.183594 181.496094 93.824219 182.246094 95.320312 C 182.246094 95.320312 184.765625 97 184.765625 97 C 189.644531 106.757812 189.066406 108.339844 201.5625 108.339844 C 201.5625 108.339844 207.859375 108.339844 207.859375 108.339844 C 211.476562 106.53125 215.335938 105.570312 217.519531 101.203125 C 218.234375 99.773438 220.789062 88.441406 221.296875 88.183594 C 228.734375 84.464844 232.953125 88.972656 238.09375 91.542969 C 241.179688 93.085938 245.816406 91.625 249.015625 93.222656 C 249.015625 93.222656 255.734375 93.222656 255.734375 93.222656 C 262.316406 96.515625 278.21875 95.648438 285.125 99.101562 C 290.890625 101.984375 297.03125 103.792969 302.765625 106.660156 C 305.359375 107.957031 307.503906 111.550781 309.484375 112.539062 C 309.484375 112.539062 314.523438 113.378906 314.523438 113.378906 C 317.617188 114.925781 317.117188 119.714844 319.5625 120.9375 C 319.5625 120.9375 322.078125 120.9375 322.078125 120.9375 C 323.660156 121.726562 334.296875 140.753906 335.9375 144.03125 C 337.503906 147.164062 337.144531 152.324219 339.296875 156.632812 C 341.089844 160.21875 340.007812 165.609375 341.816406 169.226562 C 341.816406 169.226562 343.496094 169.226562 343.496094 169.226562 C 345.601562 173.4375 344.335938 181.476562 344.335938 186.445312 C 344.335938 186.445312 349.796875 190.644531 349.796875 190.644531 C 349.796875 190.644531 352.3125 188.125 352.3125 188.125 C 359.472656 191.703125 369.511719 195.683594 377.929688 195.683594 C 377.929688 192.308594 378.96875 186.46875 380.449219 183.507812 C 380.6875 183.03125 380.25 164.632812 379.609375 163.351562 C 379.609375 163.351562 377.929688 161.671875 377.929688 161.671875 C 377.929688 151.230469 378.003906 139.984375 372.890625 129.757812 C 372.890625 129.757812 369.53125 127.234375 369.53125 127.234375 C 368.238281 124.652344 368.324219 121.460938 367.011719 118.835938 C 363.046875 110.90625 344.199219 90.703125 336.359375 90.703125 C 334.554688 90.703125 326.484375 82.304688 326.28125 82.304688 C 325.363281 82.304688 321.257812 81.472656 319.5625 80.625 C 319.5625 80.625 316.203125 76.425781 316.203125 76.425781 C 316.203125 76.425781 306.960938 72.226562 306.960938 72.226562 C 304.632812 71.0625 295.839844 70.863281 295.203125 70.546875 C 292.921875 69.40625 289.621094 67.753906 286.804688 66.347656 C 286.804688 66.347656 281.765625 66.347656 281.765625 66.347656 C 281.765625 66.347656 279.25 64.667969 279.25 64.667969 C 279.25 64.667969 276.726562 65.507812 276.726562 65.507812 C 267.917969 61.101562 246.058594 60.46875 235.15625 60.46875 C 235.15625 60.46875 221.296875 60.46875 221.296875 60.46875 C 214.742188 63.746094 208.984375 67.464844 202.820312 70.546875 C 202.820312 70.546875 201.140625 73.90625 201.140625 73.90625 C 198.34375 75.304688 188.96875 64.039062 186.867188 62.988281 C 186.867188 62.988281 176.789062 58.789062 176.789062 58.789062 C 174.558594 57.675781 170.097656 59.613281 168.390625 60.46875 C 166.332031 61.496094 160.378906 59.015625 157.46875 60.46875 C 149.667969 64.371094 147.476562 61.6875 141.515625 64.667969 C 141.515625 64.667969 135.632812 64.667969 135.632812 64.667969 C 123.640625 70.664062 110.699219 69.578125 98.679688 75.585938 C 95.363281 77.246094 92.8125 80.621094 89.445312 82.304688 C 85.726562 84.164062 81.425781 85.472656 77.6875 87.34375 C 74.964844 88.703125 78.386719 90.351562 76.007812 91.542969 C 72.632812 93.230469 69.945312 94.992188 66.765625 96.582031 C 66.765625 96.582031 63.40625 101.621094 63.40625 101.621094 C 53.34375 106.652344 43.984375 121.574219 37.792969 133.953125 C 34.433594 140.675781 33.949219 146.683594 31.074219 152.429688 C 30.730469 153.117188 31.289062 164.597656 29.394531 168.390625 C 27.246094 172.683594 27.40625 191.285156 29.394531 195.265625 C 30.019531 196.515625 29.675781 200.722656 31.914062 200.722656 C 31.914062 198.6875 33.59375 195.960938 33.59375 199.882812 Z M 33.59375 199.882812 "/>
<path style=" stroke:none;fill-rule:evenodd;fill:rgb(100%,43.137255%,0%);fill-opacity:1;" d="M 335.097656 165.449219 C 335.097656 167.207031 338.242188 165.449219 335.097656 165.449219 M 79.785156 237.675781 C 81.234375 237.675781 83.144531 242.582031 83.144531 237.675781 C 79.726562 237.675781 79.746094 232.140625 78.105469 228.859375 C 78.105469 228.859375 76.425781 228.859375 76.425781 228.859375 C 68.066406 212.140625 72.226562 202.382812 72.226562 185.605469 C 70.523438 185.605469 72.3125 183.925781 73.066406 183.925781 C 73.066406 183.925781 73.90625 182.246094 73.90625 182.246094 C 70.335938 182.246094 75.125 171.664062 74.746094 170.90625 C 74.535156 170.484375 75.921875 166.289062 76.425781 166.289062 C 76.425781 165.445312 76.585938 162.929688 78.105469 162.929688 C 79.726562 162.929688 78.105469 161.953125 78.105469 161.25 C 78.105469 160.054688 78.410156 157.050781 79.785156 157.050781 C 79.785156 154.617188 80.320312 149.492188 83.144531 149.492188 C 83.144531 149.492188 83.144531 147.8125 83.144531 147.8125 C 82.171875 147.8125 81.90625 145.667969 82.304688 144.875 C 82.304688 144.875 88.183594 133.953125 88.183594 133.953125 C 91.375 127.570312 105.699219 113.378906 114.21875 113.378906 C 114.21875 113.378906 115.058594 113.378906 115.058594 113.378906 C 115.058594 113.378906 115.898438 112.539062 115.898438 112.539062 C 115.898438 112.539062 116.738281 111.699219 116.738281 111.699219 C 116.738281 111.699219 118.417969 111.699219 118.417969 111.699219 C 118.417969 111.699219 119.257812 110.859375 119.257812 110.859375 C 122.828125 110.859375 128.269531 107.402344 131.4375 105.820312 C 131.4375 105.820312 135.632812 105.820312 135.632812 105.820312 C 144.359375 101.457031 158.726562 105.390625 162.929688 113.796875 C 164.238281 116.417969 169.648438 118.757812 169.648438 121.777344 C 172.261719 121.777344 175.046875 127.65625 178.046875 127.65625 C 178.046875 127.65625 178.886719 126.816406 178.886719 126.816406 C 178.886719 126.816406 179.726562 126.816406 179.726562 126.816406 C 179.726562 126.816406 180.566406 127.65625 180.566406 127.65625 C 180.566406 127.65625 183.925781 127.65625 183.925781 127.65625 C 183.925781 126.21875 186.085938 125.136719 187.285156 125.136719 C 187.285156 125.136719 188.964844 125.136719 188.964844 125.136719 C 188.964844 125.136719 190.644531 124.296875 190.644531 124.296875 C 190.644531 124.296875 194.003906 124.296875 194.003906 124.296875 C 194.003906 124.296875 194.84375 125.136719 194.84375 125.136719 C 194.84375 125.136719 198.203125 125.136719 198.203125 125.136719 C 198.203125 125.136719 205.761719 125.136719 205.761719 125.136719 C 205.761719 125.136719 206.601562 125.136719 206.601562 125.136719 C 206.601562 125.136719 207.441406 124.296875 207.441406 124.296875 C 207.441406 124.296875 210.800781 124.296875 210.800781 124.296875 C 210.800781 124.296875 212.480469 123.457031 212.480469 123.457031 C 212.480469 123.457031 213.320312 123.457031 213.320312 123.457031 C 214.5 123.457031 219.199219 122.855469 219.199219 124.296875 C 219.199219 124.296875 220.039062 124.296875 220.039062 124.296875 C 220.640625 124.296875 222.558594 122.304688 222.558594 124.296875 C 222.558594 124.296875 223.398438 124.296875 223.398438 124.296875 C 223.398438 123.300781 224.238281 123.300781 224.238281 124.296875 C 226.023438 124.296875 227.964844 123.457031 229.277344 123.457031 C 229.277344 123.457031 230.117188 122.617188 230.117188 122.617188 C 230.117188 122.617188 231.796875 121.777344 231.796875 121.777344 C 231.796875 121.777344 232.636719 120.9375 232.636719 120.9375 C 232.636719 120.9375 236.835938 119.257812 236.835938 119.257812 C 236.835938 119.257812 238.515625 115.058594 238.515625 115.058594 C 238.515625 115.058594 239.355469 114.21875 239.355469 114.21875 C 239.355469 112.75 239.566406 112.539062 241.035156 112.539062 C 241.035156 112.539062 241.875 110.859375 241.875 110.859375 C 241.875 110.859375 244.394531 108.339844 244.394531 108.339844 C 244.394531 108.339844 245.234375 107.5 245.234375 107.5 C 245.234375 107.5 246.074219 106.660156 246.074219 106.660156 C 246.074219 106.660156 246.914062 105.820312 246.914062 105.820312 C 246.914062 105.820312 253.210938 102.460938 253.210938 102.460938 C 255.886719 101.125 274.074219 102.394531 277.570312 104.140625 C 285.140625 107.925781 294.15625 110.753906 301.085938 114.21875 C 303.664062 115.507812 306.542969 120.097656 309.0625 120.097656 C 309.0625 116.371094 289.746094 107.53125 289.746094 107.078125 C 289.746094 105.808594 293.300781 107.386719 293.523438 107.5 C 297.914062 109.695312 301.664062 112.832031 306.125 115.058594 C 314.023438 119.007812 330.058594 138.53125 330.058594 146.972656 C 330.058594 146.972656 330.898438 147.8125 330.898438 147.8125 C 330.898438 149.203125 333.1875 154.53125 331.738281 154.53125 C 331.738281 154.53125 332.578125 157.890625 332.578125 157.890625 C 333.902344 157.890625 333.417969 160.289062 333.417969 161.25 C 333.417969 161.25 333.417969 167.128906 333.417969 167.128906 C 338.03125 167.128906 338.03125 169.648438 333.417969 169.648438 C 333.417969 169.648438 336.777344 178.886719 336.777344 178.886719 C 338.015625 178.886719 337.617188 180.527344 337.617188 181.40625 C 337.617188 187.980469 338.457031 195.332031 338.457031 202.402344 C 338.457031 202.402344 337.617188 209.121094 337.617188 209.121094 C 337.617188 209.121094 337.617188 215 337.617188 215 C 337.617188 215 337.617188 215.839844 337.617188 215.839844 C 337.617188 220.582031 333.417969 223.585938 333.417969 228.4375 C 333.417969 232.195312 338.457031 224.65625 338.457031 221.71875 C 338.457031 215.738281 340.109375 212.953125 341.816406 209.539062 C 343.449219 206.28125 340.976562 201.136719 342.65625 197.78125 C 343.542969 196.011719 344.066406 190.523438 343.496094 189.382812 C 343.101562 188.589844 343.363281 186.445312 344.335938 186.445312 C 344.335938 181.476562 345.601562 173.4375 343.496094 169.226562 C 343.496094 169.226562 341.816406 169.226562 341.816406 169.226562 C 340.007812 165.609375 341.089844 160.21875 339.296875 156.632812 C 337.144531 152.324219 337.503906 147.164062 335.9375 144.03125 C 334.296875 140.753906 323.660156 121.726562 322.078125 120.9375 C 322.078125 120.9375 319.5625 120.9375 319.5625 120.9375 C 317.117188 119.714844 317.617188 114.925781 314.523438 113.378906 C 314.523438 113.378906 309.484375 112.539062 309.484375 112.539062 C 307.503906 111.550781 305.359375 107.957031 302.765625 106.660156 C 297.03125 103.792969 290.890625 101.984375 285.125 99.101562 C 278.21875 95.648438 262.316406 96.515625 255.734375 93.222656 C 255.734375 93.222656 249.015625 93.222656 249.015625 93.222656 C 245.816406 91.625 241.179688 93.085938 238.09375 91.542969 C 232.953125 88.972656 228.734375 84.464844 221.296875 88.183594 C 220.789062 88.441406 218.234375 99.773438 217.519531 101.203125 C 215.335938 105.570312 211.476562 106.53125 207.859375 108.339844 C 207.859375 108.339844 201.5625 108.339844 201.5625 108.339844 C 189.066406 108.339844 189.644531 106.757812 184.765625 97 C 184.765625 97 182.246094 95.320312 182.246094 95.320312 C 181.496094 93.824219 179.554688 88.183594 177.207031 88.183594 C 171.246094 88.183594 168.191406 89.121094 163.351562 91.542969 C 163.351562 91.542969 158.3125 91.542969 158.3125 91.542969 C 157.496094 91.949219 154.753906 94.902344 153.273438 94.902344 C 143.972656 94.902344 131.878906 98.460938 123.875 102.460938 C 121.722656 103.539062 118.445312 103.078125 116.320312 104.140625 C 111.417969 106.589844 105.644531 112.539062 101.203125 112.539062 C 100.742188 112.539062 88.289062 125.347656 87.34375 127.234375 C 87.34375 127.234375 79.785156 137.3125 79.785156 137.3125 C 72.070312 152.746094 65.507812 170.195312 65.507812 186.445312 C 65.507812 186.445312 65.507812 188.125 65.507812 188.125 C 65.507812 188.125 64.667969 188.964844 64.667969 188.964844 C 64.667969 191.902344 66.644531 212.65625 68.027344 215.421875 C 69.035156 217.433594 70.546875 220.199219 70.546875 222.558594 C 70.546875 224.417969 72.226562 223.835938 72.226562 225.078125 C 72.226562 229.976562 79.785156 233.230469 79.785156 237.675781 Z M 79.785156 237.675781 "/>
<path style=" stroke:none;fill-rule:nonzero;fill:rgb(5.490196%,27.843139%,88.627452%);fill-opacity:1;" d="M 268.75 256.152344 L 268.75 261.191406 C 268.75 261.191406 267.492188 263.710938 267.492188 263.710938 C 261.960938 263.710938 256.992188 261.664062 256.992188 254.890625 C 256.992188 252.40625 263.710938 252.582031 263.710938 248.59375 C 265.992188 248.59375 266.230469 247.203125 266.230469 245.234375 C 266.230469 245.234375 267.070312 244.394531 267.070312 244.394531 C 267.070312 244.394531 272.109375 239.355469 272.109375 239.355469 C 272.109375 239.355469 272.949219 238.515625 272.949219 238.515625 C 272.949219 238.515625 277.988281 231.796875 277.988281 231.796875 C 277.988281 231.796875 278.828125 230.957031 278.828125 230.957031 C 278.828125 230.957031 278.828125 230.117188 278.828125 230.117188 C 278.828125 230.117188 279.667969 229.277344 279.667969 229.277344 C 279.667969 229.277344 280.507812 228.4375 280.507812 228.4375 C 280.507812 228.4375 281.347656 226.757812 281.347656 226.757812 C 281.347656 226.757812 282.1875 225.917969 282.1875 225.917969 C 282.1875 225.917969 283.027344 225.078125 283.027344 225.078125 C 283.027344 225.078125 283.867188 223.398438 283.867188 223.398438 C 283.867188 223.398438 285.546875 222.558594 285.546875 222.558594 C 285.546875 222.558594 286.386719 221.71875 286.386719 221.71875 C 286.386719 221.71875 297.304688 207.441406 297.304688 207.441406 C 299.820312 207.441406 304.621094 194.066406 305.703125 191.90625 C 310 183.3125 305.277344 171.738281 301.503906 164.1875 C 301.503906 164.1875 295.625 156.632812 295.625 156.632812 C 295.625 156.632812 285.125 146.132812 285.125 146.132812 C 285.125 146.132812 283.027344 147.8125 283.027344 147.8125 C 280.742188 147.8125 275.46875 147.019531 275.46875 147.8125 C 275.46875 147.8125 274.628906 147.8125 274.628906 147.8125 C 274.628906 146.347656 261.734375 142.773438 260.351562 142.773438 C 260.351562 141.777344 259.511719 141.777344 259.511719 142.773438 C 259.511719 142.773438 257.414062 141.09375 257.414062 141.09375 C 253.039062 138.910156 245.234375 143.703125 245.234375 135.632812 C 245.234375 135.632812 246.074219 131.855469 246.074219 131.855469 C 246.074219 131.855469 248.59375 127.234375 248.59375 127.234375 C 247.929688 125.910156 237.144531 119.257812 236.835938 119.257812 C 236.835938 119.257812 238.515625 115.058594 238.515625 115.058594 C 238.515625 115.058594 239.355469 114.21875 239.355469 114.21875 C 239.355469 114.21875 241.035156 112.539062 241.035156 112.539062 C 241.035156 112.539062 241.875 110.859375 241.875 110.859375 C 241.875 110.859375 244.394531 108.339844 244.394531 108.339844 C 244.394531 108.339844 245.234375 107.5 245.234375 107.5 C 245.234375 107.5 246.074219 106.660156 246.074219 106.660156 C 246.074219 106.660156 246.914062 105.820312 246.914062 105.820312 C 246.914062 105.820312 253.210938 102.460938 253.210938 102.460938 C 255.886719 101.125 274.074219 102.394531 277.570312 104.140625 C 285.140625 107.925781 294.15625 110.753906 301.085938 114.21875 C 303.664062 115.507812 306.542969 120.097656 309.0625 120.097656 C 309.0625 120.097656 309.902344 120.097656 309.902344 120.097656 C 309.902344 121.8125 310.707031 122.617188 312.421875 122.617188 C 312.421875 122.617188 313.261719 123.457031 313.261719 123.457031 C 313.261719 123.457031 314.941406 125.136719 314.941406 125.136719 C 314.941406 125.136719 315.78125 125.976562 315.78125 125.976562 C 315.78125 128.480469 319.140625 130.710938 319.140625 131.855469 C 319.140625 131.855469 319.980469 132.695312 319.980469 132.695312 C 319.980469 133.734375 320.335938 135.214844 321.660156 135.214844 C 321.660156 135.214844 322.5 136.894531 322.5 136.894531 C 322.5 136.894531 324.179688 139.414062 324.179688 139.414062 C 324.179688 139.414062 324.179688 140.253906 324.179688 140.253906 C 324.179688 140.253906 325.019531 141.933594 325.019531 141.933594 C 325.019531 141.933594 326.699219 145.292969 326.699219 145.292969 C 326.699219 145.292969 326.699219 146.132812 326.699219 146.132812 C 326.699219 147.816406 326.453125 148.652344 328.378906 148.652344 C 328.378906 148.652344 330.058594 154.53125 330.058594 154.53125 C 330.058594 155.492188 331.183594 159.570312 332.578125 159.570312 C 332.578125 159.570312 333.417969 161.25 333.417969 161.25 C 333.417969 161.25 333.417969 167.128906 333.417969 167.128906 C 333.417969 167.128906 333.417969 169.648438 333.417969 169.648438 C 333.417969 169.648438 336.777344 178.886719 336.777344 178.886719 C 336.777344 179.765625 336.378906 181.40625 337.617188 181.40625 C 337.617188 187.980469 338.457031 195.332031 338.457031 202.402344 C 337.28125 202.402344 335.632812 209.121094 337.617188 209.121094 C 337.617188 209.121094 337.617188 215 337.617188 215 C 336.621094 215 336.621094 215.839844 337.617188 215.839844 C 337.617188 220.582031 333.417969 223.585938 333.417969 228.4375 C 333.417969 228.4375 329.21875 234.316406 329.21875 234.316406 C 329.039062 234.316406 318.511719 241.980469 317.039062 242.714844 C 312.898438 244.785156 304.472656 243.957031 300.242188 246.074219 C 296.472656 247.957031 294.347656 251.113281 289.746094 251.113281 C 289.746094 251.113281 287.648438 248.59375 287.648438 248.59375 C 286.300781 247.921875 277.148438 248.53125 277.148438 252.792969 C 277.148438 252.792969 275.890625 254.472656 275.890625 254.472656 C 275.1875 254.824219 270.09375 255.3125 269.589844 255.3125 C 269.589844 255.3125 268.75 256.152344 268.75 256.152344 Z M 268.75 256.152344 "/>
<path style=" stroke:none;fill-rule:evenodd;fill:rgb(5.490196%,27.843139%,88.627452%);fill-opacity:1;" d="M 141.09375 250.273438 C 141.09375 251.894531 142.714844 250.273438 141.09375 250.273438 M 129.335938 256.152344 C 139.304688 256.152344 135.9375 263.859375 138.992188 265.390625 C 141.851562 266.820312 142.910156 264.550781 145.292969 264.550781 C 145.292969 264.550781 146.554688 262.871094 146.554688 262.871094 C 153.417969 259.4375 143.613281 254.667969 143.613281 250.273438 C 143.613281 246.773438 136.054688 245.0625 136.054688 241.875 C 136.054688 241.875 134.375 240.195312 134.375 240.195312 C 134.375 240.195312 130.175781 234.316406 130.175781 234.316406 C 130.175781 234.316406 127.65625 231.796875 127.65625 231.796875 C 127.65625 231.796875 123.457031 225.917969 123.457031 225.917969 C 117.722656 225.917969 110.378906 211.9375 108.339844 207.859375 C 107.65625 206.488281 99.546875 196.523438 101.621094 196.523438 C 101.621094 196.523438 99.941406 195.265625 99.941406 195.265625 C 99.175781 193.730469 100.78125 192.058594 100.78125 191.0625 C 100.78125 189.664062 98.886719 188.957031 98.261719 187.703125 C 96.144531 183.472656 100.804688 176.761719 102.460938 175.109375 C 103.515625 174.054688 104.363281 170.488281 105.820312 170.488281 C 105.820312 170.488281 109.179688 166.289062 109.179688 166.289062 C 109.179688 166.289062 109.179688 165.449219 109.179688 165.449219 C 109.179688 165.449219 110.019531 163.769531 110.019531 163.769531 C 110.019531 162.574219 113.363281 157.890625 114.21875 157.890625 C 114.21875 157.890625 115.898438 157.050781 115.898438 157.050781 C 115.898438 157.050781 118.417969 153.691406 118.417969 153.691406 C 118.417969 153.691406 120.097656 152.851562 120.097656 152.851562 C 120.097656 152.851562 120.9375 152.851562 120.9375 152.851562 C 120.9375 150.179688 137.234375 146.972656 140.253906 146.972656 C 141.558594 146.972656 144.140625 145.238281 145.710938 144.453125 C 150.617188 142 162.089844 147.765625 162.089844 137.734375 C 162.089844 137.734375 162.089844 136.894531 162.089844 136.894531 C 161.46875 136.894531 159.914062 130.746094 160.410156 129.757812 C 161.03125 128.511719 169.648438 126.035156 169.648438 121.777344 C 169.648438 118.757812 164.238281 116.417969 162.929688 113.796875 C 158.726562 105.390625 144.359375 101.457031 135.632812 105.820312 C 135.632812 105.820312 131.4375 105.820312 131.4375 105.820312 C 128.269531 107.402344 122.828125 110.859375 119.257812 110.859375 C 119.257812 110.859375 118.417969 111.699219 118.417969 111.699219 C 118.417969 111.699219 116.738281 112.539062 116.738281 112.539062 C 116.738281 112.539062 115.898438 112.539062 115.898438 112.539062 C 115.898438 112.539062 115.058594 113.378906 115.058594 113.378906 C 115.058594 113.378906 114.21875 113.378906 114.21875 113.378906 C 114.21875 113.570312 89.863281 129.875 89.863281 135.214844 C 89.863281 135.214844 89.023438 136.894531 89.023438 136.894531 C 89.023438 136.894531 88.183594 137.734375 88.183594 137.734375 C 88.183594 137.734375 88.183594 138.574219 88.183594 138.574219 C 88.183594 138.574219 87.34375 140.253906 87.34375 140.253906 C 87.34375 140.253906 86.503906 141.09375 86.503906 141.09375 C 86.503906 141.09375 85.664062 143.613281 85.664062 143.613281 C 85.664062 143.613281 84.824219 145.292969 84.824219 145.292969 C 84.824219 147.152344 83.144531 146.570312 83.144531 147.8125 C 83.144531 147.8125 83.144531 149.492188 83.144531 149.492188 C 83.144531 153.332031 80.625 153.480469 80.625 157.050781 C 80.625 157.753906 82.246094 158.730469 80.625 158.730469 C 80.625 158.730469 79.785156 162.089844 79.785156 162.089844 C 81.074219 162.089844 81.074219 165.449219 79.785156 165.449219 C 79.785156 165.449219 78.105469 166.289062 78.105469 166.289062 C 78.105469 172.417969 73.90625 177.816406 73.90625 182.246094 C 73.90625 182.246094 73.066406 183.925781 73.066406 183.925781 C 74.769531 183.925781 72.980469 185.605469 72.226562 185.605469 C 72.226562 202.382812 68.066406 212.140625 76.425781 228.859375 C 76.425781 228.859375 78.105469 228.859375 78.105469 228.859375 C 79.746094 232.140625 79.726562 237.675781 83.144531 237.675781 C 83.246094 237.675781 92.050781 246.074219 94.484375 246.074219 C 96.28125 246.074219 110.679688 250.394531 113.796875 251.953125 C 113.796875 251.953125 118 254.472656 118 254.472656 C 118 254.472656 120.097656 252.792969 120.097656 252.792969 C 121.964844 252.792969 122.003906 250.789062 123.039062 250.273438 C 125.421875 249.082031 129.335938 254.039062 129.335938 256.152344 Z M 129.335938 256.152344 "/>
<path style=" stroke:none;fill-rule:nonzero;fill:rgb(0.784314%,17.254902%,100%);fill-opacity:1;" d="M 330.058594 154.53125 L 331.738281 154.53125 C 333.1875 154.53125 330.898438 149.203125 330.898438 147.8125 C 330.898438 147.8125 330.058594 146.972656 330.058594 146.972656 C 330.058594 138.53125 314.023438 119.007812 306.125 115.058594 C 301.664062 112.832031 297.914062 109.695312 293.523438 107.5 C 293.300781 107.386719 289.746094 105.808594 289.746094 107.078125 C 289.746094 107.53125 309.0625 116.371094 309.0625 120.097656 C 309.0625 120.097656 309.902344 120.097656 309.902344 120.097656 C 309.902344 120.097656 312.421875 122.617188 312.421875 122.617188 C 312.421875 122.617188 313.261719 123.457031 313.261719 123.457031 C 313.261719 123.457031 314.941406 125.136719 314.941406 125.136719 C 314.941406 125.136719 315.78125 125.976562 315.78125 125.976562 C 317.078125 125.976562 321.660156 133.636719 321.660156 135.214844 C 321.660156 135.214844 322.5 136.894531 322.5 136.894531 C 323.242188 136.894531 326.046875 139.414062 324.179688 139.414062 C 324.179688 139.414062 324.179688 140.253906 324.179688 140.253906 C 324.179688 140.253906 325.019531 141.09375 325.019531 141.09375 C 325.019531 141.09375 326.699219 144.453125 326.699219 144.453125 C 326.699219 144.453125 327.539062 146.132812 327.539062 146.132812 C 327.539062 146.132812 328.378906 148.652344 328.378906 148.652344 C 328.378906 148.652344 330.058594 154.53125 330.058594 154.53125 Z M 330.058594 154.53125 "/>
<path style=" stroke:none;fill-rule:nonzero;fill:rgb(0.784314%,17.254902%,100%);fill-opacity:1;" d="M 115.898438 112.539062 L 116.738281 112.539062 C 116.738281 112.539062 116.738281 111.699219 116.738281 111.699219 C 116.738281 111.699219 115.898438 112.539062 115.898438 112.539062 Z M 115.898438 112.539062 "/>
<path style=" stroke:none;fill-rule:nonzero;fill:rgb(0.784314%,17.254902%,100%);fill-opacity:1;" d="M 84.824219 145.292969 C 84.824219 147.152344 83.144531 146.570312 83.144531 147.8125 C 82.171875 147.8125 81.90625 145.667969 82.304688 144.875 C 82.304688 144.875 88.183594 133.953125 88.183594 133.953125 C 91.375 127.570312 105.699219 113.378906 114.21875 113.378906 C 114.21875 113.570312 89.863281 129.875 89.863281 135.214844 C 89.863281 135.214844 89.023438 136.894531 89.023438 136.894531 C 89.023438 136.894531 88.183594 137.734375 88.183594 137.734375 C 88.183594 137.734375 88.183594 138.574219 88.183594 138.574219 C 88.183594 138.574219 87.34375 140.253906 87.34375 140.253906 C 87.34375 140.253906 86.503906 141.09375 86.503906 141.09375 C 86.503906 141.09375 85.664062 143.613281 85.664062 143.613281 C 85.664062 143.613281 84.824219 145.292969 84.824219 145.292969 Z M 84.824219 145.292969 "/>
<path style=" stroke:none;fill-rule:nonzero;fill:rgb(86.666667%,85.09804%,31.764707%);fill-opacity:1;" d="M 204.082031 126.816406 C 204.082031 132.832031 212.945312 140.277344 217.9375 142.773438 C 221.960938 144.785156 227.644531 141.699219 230.539062 140.253906 C 231.507812 139.769531 233.101562 141.070312 234.734375 140.253906 C 237.21875 139.011719 246.0625 131.855469 246.074219 131.855469 C 246.074219 131.855469 248.59375 127.234375 248.59375 127.234375 C 247.929688 125.910156 237.144531 119.257812 236.835938 119.257812 C 236.835938 119.257812 232.636719 120.9375 232.636719 120.9375 C 232.636719 120.9375 231.796875 121.777344 231.796875 121.777344 C 231.796875 121.777344 230.117188 122.617188 230.117188 122.617188 C 230.117188 122.617188 229.277344 123.457031 229.277344 123.457031 C 227.964844 123.457031 226.023438 124.296875 224.238281 124.296875 C 224.238281 124.296875 223.398438 124.296875 223.398438 124.296875 C 223.398438 124.296875 222.558594 124.296875 222.558594 124.296875 C 222.558594 125.542969 220.039062 125.542969 220.039062 124.296875 C 220.039062 124.296875 219.199219 124.296875 219.199219 124.296875 C 218.019531 124.296875 213.320312 124.898438 213.320312 123.457031 C 213.320312 123.457031 212.480469 123.457031 212.480469 123.457031 C 212.480469 123.457031 210.800781 124.296875 210.800781 124.296875 C 210.800781 124.296875 207.441406 124.296875 207.441406 124.296875 C 207.441406 124.296875 206.601562 125.136719 206.601562 125.136719 C 206.601562 125.136719 205.761719 125.136719 205.761719 125.136719 C 205.761719 125.136719 204.082031 126.816406 204.082031 126.816406 Z M 204.082031 126.816406 "/>
<path style=" stroke:none;fill-rule:nonzero;fill:rgb(100%,43.137255%,0%);fill-opacity:1;" d="M 309.902344 120.097656 L 312.421875 122.617188 C 310.707031 122.617188 309.902344 121.8125 309.902344 120.097656 Z M 309.902344 120.097656 "/>
<path style=" stroke:none;fill-rule:nonzero;fill:rgb(86.666667%,85.09804%,31.764707%);fill-opacity:1;" d="M 162.089844 136.894531 L 162.929688 137.734375 C 166.242188 137.734375 168.902344 142.191406 171.75 143.613281 C 171.75 143.613281 175.109375 143.613281 175.109375 143.613281 C 188.914062 150.515625 199.042969 141.925781 199.042969 127.65625 C 199.042969 127.65625 198.203125 125.136719 198.203125 125.136719 C 198.203125 125.136719 194.84375 125.136719 194.84375 125.136719 C 194.84375 125.136719 194.003906 124.296875 194.003906 124.296875 C 194.003906 124.296875 190.644531 124.296875 190.644531 124.296875 C 190.644531 124.296875 188.964844 125.136719 188.964844 125.136719 C 188.964844 125.136719 187.285156 125.136719 187.285156 125.136719 C 187.285156 126.574219 185.125 127.65625 183.925781 127.65625 C 183.925781 127.65625 180.566406 127.65625 180.566406 127.65625 C 180.566406 127.65625 179.726562 126.816406 179.726562 126.816406 C 179.726562 126.816406 178.886719 126.816406 178.886719 126.816406 C 178.886719 126.816406 178.046875 127.65625 178.046875 127.65625 C 175.046875 127.65625 172.261719 121.777344 169.648438 121.777344 C 169.648438 126.035156 161.03125 128.511719 160.410156 129.757812 C 159.914062 130.746094 161.46875 136.894531 162.089844 136.894531 Z M 162.089844 136.894531 "/>
<path style=" stroke:none;fill-rule:nonzero;fill:rgb(100%,43.137255%,0%);fill-opacity:1;" d="M 313.261719 123.457031 L 314.941406 125.136719 C 314.941406 125.136719 313.261719 123.457031 313.261719 123.457031 Z M 313.261719 123.457031 "/>
<path style=" stroke:none;fill-rule:nonzero;fill:rgb(100%,43.137255%,0%);fill-opacity:1;" d="M 319.980469 132.695312 C 319.980469 133.734375 320.335938 135.214844 321.660156 135.214844 C 321.660156 133.636719 317.078125 125.976562 315.78125 125.976562 C 315.78125 128.480469 319.140625 130.710938 319.140625 131.855469 C 319.140625 131.855469 319.980469 132.695312 319.980469 132.695312 Z M 319.980469 132.695312 "/>
<path style=" stroke:none;fill-rule:evenodd;fill:rgb(0.784314%,17.254902%,100%);fill-opacity:1;" d="M 199.042969 151.171875 C 199.042969 153.679688 209.121094 154.125 209.121094 151.59375 C 209.121094 150.0625 205.523438 151.921875 205.34375 152.011719 L 199.042969 151.171875 M 203.242188 167.96875 L 204.082031 167.96875 C 204.082031 166.332031 206.144531 167.566406 207.023438 167.128906 C 207.023438 167.128906 208.28125 164.609375 208.28125 164.609375 C 208.28125 159.042969 216.679688 157.953125 216.679688 154.109375 C 216.679688 154.109375 219.199219 151.171875 219.199219 151.171875 C 219.199219 148.558594 224.089844 149.355469 225.5 148.652344 C 225.5 148.652344 226.335938 146.132812 226.335938 146.132812 C 226.335938 146.132812 237.675781 143.613281 237.675781 143.613281 C 237.675781 143.613281 239.355469 143.613281 239.355469 143.613281 C 239.355469 142.257812 242.136719 142.773438 243.132812 142.773438 C 243.132812 142.773438 254.890625 143.613281 254.890625 143.613281 C 255.964844 143.613281 259.511719 144.171875 259.511719 142.773438 C 259.511719 142.773438 257.414062 141.09375 257.414062 141.09375 C 253.039062 138.910156 245.234375 143.703125 245.234375 135.632812 C 245.234375 135.632812 246.074219 131.855469 246.074219 131.855469 C 246.0625 131.855469 237.21875 139.011719 234.734375 140.253906 C 233.101562 141.070312 231.507812 139.769531 230.539062 140.253906 C 227.644531 141.699219 221.960938 144.785156 217.9375 142.773438 C 212.945312 140.277344 204.082031 132.832031 204.082031 126.816406 C 202.296875 126.816406 200.355469 127.65625 199.042969 127.65625 C 199.042969 141.925781 188.914062 150.515625 175.109375 143.613281 C 175.109375 143.613281 171.75 143.613281 171.75 143.613281 C 168.902344 142.191406 166.242188 137.734375 162.929688 137.734375 C 162.929688 137.734375 162.089844 137.734375 162.089844 137.734375 C 162.089844 147.765625 150.617188 142 145.710938 144.453125 C 144.140625 145.238281 141.558594 146.972656 140.253906 146.972656 C 140.253906 146.972656 141.09375 147.8125 141.09375 147.8125 C 141.09375 147.8125 144.453125 147.8125 144.453125 147.8125 C 144.453125 146.316406 153 146.972656 154.53125 146.972656 C 154.53125 146.972656 157.890625 146.972656 157.890625 146.972656 C 157.890625 144.378906 167.191406 145.292969 169.226562 145.292969 C 175.859375 145.292969 192.324219 149.652344 192.324219 157.890625 C 197.613281 157.890625 201.628906 167.128906 202.402344 167.128906 C 202.402344 167.128906 203.242188 167.96875 203.242188 167.96875 Z M 203.242188 167.96875 "/>
<path style=" stroke:none;fill-rule:nonzero;fill:rgb(100%,43.137255%,0%);fill-opacity:1;" d="M 325.019531 141.09375 L 325.019531 141.933594 C 325.019531 141.933594 324.179688 140.253906 324.179688 140.253906 C 324.179688 140.253906 325.019531 141.09375 325.019531 141.09375 Z M 325.019531 141.09375 "/>
<path style=" stroke:none;fill-rule:nonzero;fill:rgb(0.784314%,17.254902%,100%);fill-opacity:1;" d="M 259.511719 142.773438 L 260.351562 142.773438 C 260.351562 141.777344 259.511719 141.777344 259.511719 142.773438 Z M 259.511719 142.773438 "/>
<path style=" stroke:none;fill-rule:nonzero;fill:rgb(100%,34.117648%,11.764706%);fill-opacity:1;" d="M 261.191406 178.886719 L 251.53125 183.085938 C 248.601562 184.550781 229.066406 184.765625 224.238281 184.765625 C 224.238281 184.765625 223.820312 179.726562 223.820312 179.726562 C 223.820312 179.726562 222.976562 183.085938 222.976562 183.085938 C 222.074219 183.085938 220.382812 178.046875 217.519531 178.046875 C 217.519531 178.046875 216.679688 176.367188 216.679688 176.367188 C 216.679688 171.863281 209.960938 169.453125 209.960938 168.808594 C 209.960938 167.445312 208.28125 166.5 208.28125 164.609375 C 208.28125 159.042969 216.679688 157.953125 216.679688 154.109375 C 216.679688 154.109375 219.199219 151.171875 219.199219 151.171875 C 221.898438 151.171875 237.675781 146.019531 237.675781 143.613281 C 237.675781 143.613281 239.355469 143.613281 239.355469 143.613281 C 244.941406 143.613281 249.488281 143.851562 254.054688 146.132812 C 254.054688 146.132812 257.832031 149.492188 257.832031 149.492188 C 257.832031 149.492188 256.152344 150.75 256.152344 150.75 C 256.152344 150.75 258.671875 151.59375 258.671875 151.59375 C 260.09375 154.4375 258.671875 157.449219 258.671875 159.992188 C 258.671875 159.992188 262.03125 163.351562 262.03125 163.351562 C 262.03125 163.351562 262.03125 171.75 262.03125 171.75 C 262.03125 171.75 263.710938 173.847656 263.710938 173.847656 C 262.859375 173.847656 262.03125 177.171875 262.03125 178.046875 C 262.03125 178.046875 261.191406 178.886719 261.191406 178.886719 Z M 261.191406 178.886719 "/>
<path style=" stroke:none;fill-rule:nonzero;fill:rgb(100%,43.137255%,0%);fill-opacity:1;" d="M 326.699219 146.132812 L 327.539062 146.132812 C 327.539062 146.132812 326.699219 144.453125 326.699219 144.453125 C 326.699219 144.453125 326.699219 145.292969 326.699219 145.292969 C 326.699219 145.292969 326.699219 146.132812 326.699219 146.132812 Z M 326.699219 146.132812 "/>
<path style=" stroke:none;fill-rule:nonzero;fill:rgb(100%,34.117648%,11.764706%);fill-opacity:1;" d="M 146.132812 178.046875 C 152.5 178.046875 164.285156 184.394531 170.070312 187.285156 C 172.78125 188.640625 177.355469 186.445312 179.726562 186.445312 C 179.726562 182.4375 190.707031 176.367188 194.003906 176.367188 C 194.003906 176.367188 194.003906 175.527344 194.003906 175.527344 C 189.722656 175.527344 201.167969 167.96875 202.402344 167.96875 C 202.402344 167.96875 202.402344 167.128906 202.402344 167.128906 C 201.628906 167.128906 197.613281 157.890625 192.324219 157.890625 C 190.339844 157.890625 189.761719 155.371094 188.125 155.371094 C 185.679688 155.371094 183.457031 158.707031 181.828125 157.890625 C 179.996094 156.976562 183.085938 155.628906 183.085938 154.953125 C 183.085938 154.953125 179.726562 153.273438 179.726562 153.273438 C 177.101562 148.023438 184.832031 152.011719 185.605469 152.011719 C 185.605469 148.578125 178.691406 148.652344 176.367188 148.652344 C 176.367188 148.652344 172.585938 146.132812 172.585938 146.132812 C 168.78125 144.230469 161.570312 146.972656 157.890625 146.972656 C 157.890625 146.972656 154.53125 146.972656 154.53125 146.972656 C 154.53125 146.972656 150.332031 149.492188 150.332031 149.492188 C 150.332031 149.492188 154.53125 153.273438 154.53125 153.273438 C 154.53125 153.273438 152.011719 154.109375 152.011719 154.109375 C 152.011719 164.855469 145.292969 170.433594 145.292969 177.207031 C 145.292969 177.207031 146.132812 178.046875 146.132812 178.046875 Z M 146.132812 178.046875 "/>
<path style=" stroke:none;fill-rule:nonzero;fill:rgb(0.784314%,17.254902%,100%);fill-opacity:1;" d="M 296.464844 203.242188 L 297.304688 207.441406 C 299.820312 207.441406 304.621094 194.066406 305.703125 191.90625 C 310 183.3125 305.277344 171.738281 301.503906 164.1875 C 301.503906 164.1875 295.625 156.632812 295.625 156.632812 C 295.625 156.632812 285.125 146.132812 285.125 146.132812 C 285.125 146.132812 283.027344 147.8125 283.027344 147.8125 C 283.027344 147.8125 283.867188 149.492188 283.867188 149.492188 C 283.867188 149.492188 284.707031 149.492188 284.707031 149.492188 C 287.128906 149.492188 289.746094 149.835938 289.746094 152.851562 C 289.746094 152.851562 292.265625 153.691406 292.265625 153.691406 C 293.007812 153.691406 295.8125 156.210938 293.945312 156.210938 C 293.945312 156.210938 293.945312 157.050781 293.945312 157.050781 C 293.945312 157.050781 295.625 157.890625 295.625 157.890625 C 296.949219 157.890625 297.304688 159.371094 297.304688 160.410156 C 297.304688 160.410156 298.144531 162.089844 298.144531 162.089844 C 298.144531 164.203125 300.664062 165.855469 300.664062 169.648438 C 302.796875 169.648438 303.183594 175.394531 303.183594 177.207031 C 303.183594 177.207031 304.863281 179.304688 304.863281 179.304688 C 304.863281 179.304688 304.023438 188.125 304.023438 188.125 C 304.023438 188.125 303.183594 188.964844 303.183594 188.964844 C 303.183594 188.964844 303.183594 189.804688 303.183594 189.804688 C 303.183594 189.804688 302.34375 191.484375 302.34375 191.484375 C 302.34375 191.484375 302.34375 192.324219 302.34375 192.324219 C 302.34375 192.324219 301.503906 193.164062 301.503906 193.164062 C 301.503906 193.164062 301.503906 194.003906 301.503906 194.003906 C 301.503906 194.003906 300.664062 194.84375 300.664062 194.84375 C 300.664062 197.617188 297.304688 200.324219 297.304688 202.402344 C 297.304688 202.402344 296.464844 203.242188 296.464844 203.242188 Z M 296.464844 203.242188 "/>
<path style=" stroke:none;fill-rule:nonzero;fill:rgb(0%,39.215687%,0%);fill-opacity:1;" d="M 275.46875 218.359375 L 269.589844 220.878906 C 267.828125 220.878906 262.449219 220.039062 260.773438 219.199219 C 260.773438 219.199219 258.25 215.839844 258.25 215.839844 C 258.25 215.839844 254.472656 215.421875 254.472656 215.421875 C 254.472656 214 266.230469 208.042969 266.230469 204.082031 C 266.230469 204.082031 267.070312 202.402344 267.070312 202.402344 C 267.070312 202.402344 267.070312 200.722656 267.070312 200.722656 C 267.070312 200.722656 267.910156 199.882812 267.910156 199.882812 C 267.910156 196.554688 270.476562 190.320312 268.75 186.867188 C 266.9375 183.242188 264.550781 180.738281 264.550781 176.367188 C 264.550781 176.367188 263.710938 173.847656 263.710938 173.847656 C 263.710938 173.847656 262.03125 171.75 262.03125 171.75 C 262.03125 171.75 262.03125 163.351562 262.03125 163.351562 C 262.03125 163.351562 258.671875 159.992188 258.671875 159.992188 C 258.671875 157.449219 260.09375 154.4375 258.671875 151.59375 C 258.671875 151.59375 256.152344 150.75 256.152344 150.75 C 256.152344 150.75 257.832031 149.492188 257.832031 149.492188 C 257.832031 146.066406 271.238281 147.8125 274.628906 147.8125 C 274.628906 147.8125 275.46875 147.8125 275.46875 147.8125 C 275.46875 148.785156 282.613281 149.492188 283.867188 149.492188 C 283.867188 149.492188 284.707031 149.492188 284.707031 149.492188 C 284.707031 150.851562 288.554688 152.851562 289.746094 152.851562 C 289.746094 152.851562 292.265625 153.691406 292.265625 153.691406 C 292.265625 153.691406 293.945312 156.210938 293.945312 156.210938 C 293.945312 156.210938 293.945312 157.050781 293.945312 157.050781 C 293.945312 157.050781 295.625 157.890625 295.625 157.890625 C 296.949219 157.890625 297.304688 159.371094 297.304688 160.410156 C 297.304688 160.410156 298.144531 162.089844 298.144531 162.089844 C 298.144531 164.203125 300.664062 165.855469 300.664062 169.648438 C 300.664062 173.257812 300.871094 177.207031 303.183594 177.207031 C 303.183594 177.207031 304.863281 179.304688 304.863281 179.304688 C 304.863281 179.304688 304.023438 188.125 304.023438 188.125 C 304.023438 188.125 303.183594 188.964844 303.183594 188.964844 C 303.183594 188.964844 303.183594 189.804688 303.183594 189.804688 C 303.183594 189.804688 302.34375 191.484375 302.34375 191.484375 C 302.34375 191.484375 302.34375 192.324219 302.34375 192.324219 C 302.34375 192.324219 301.503906 193.164062 301.503906 193.164062 C 301.503906 193.164062 301.503906 194.003906 301.503906 194.003906 C 301.503906 194.003906 300.664062 194.84375 300.664062 194.84375 C 300.664062 197.617188 297.304688 200.324219 297.304688 202.402344 C 297.304688 202.402344 296.464844 203.242188 296.464844 203.242188 C 296.464844 203.242188 293.945312 204.921875 293.945312 204.921875 C 293.945312 202.972656 289.746094 201.105469 289.746094 204.082031 C 289.746094 204.082031 288.90625 204.921875 288.90625 204.921875 C 285.441406 204.921875 277.148438 211.816406 277.148438 215.839844 C 277.148438 215.839844 276.308594 216.679688 276.308594 216.679688 C 276.308594 216.679688 276.308594 217.519531 276.308594 217.519531 C 276.308594 217.519531 275.46875 218.359375 275.46875 218.359375 Z M 275.46875 218.359375 "/>
<path style=" stroke:none;fill-rule:evenodd;fill:rgb(0%,39.215687%,0%);fill-opacity:1;" d="M 141.09375 189.804688 C 141.09375 192.949219 142.851562 189.804688 141.09375 189.804688 M 140.253906 223.398438 L 137.734375 224.238281 C 137.734375 224.238281 135.214844 223.398438 135.214844 223.398438 C 135.214844 219.65625 118.566406 205.761719 115.058594 205.761719 C 115.058594 205.761719 114.21875 204.921875 114.21875 204.921875 C 114.21875 204.921875 113.378906 204.921875 113.378906 204.921875 C 113.378906 204.921875 111.699219 204.921875 111.699219 204.921875 C 111.699219 204.921875 111.699219 204.082031 111.699219 204.082031 C 111.699219 204.082031 110.859375 203.242188 110.859375 203.242188 C 108.714844 203.242188 105.820312 197.074219 105.820312 195.683594 C 105.820312 195.683594 104.140625 193.164062 104.140625 193.164062 C 104.140625 188.644531 102.460938 186.761719 102.460938 183.085938 C 102.460938 183.085938 103.300781 182.246094 103.300781 182.246094 C 103.300781 182.246094 103.300781 181.40625 103.300781 181.40625 C 103.300781 181.40625 103.300781 179.726562 103.300781 179.726562 C 103.300781 179.726562 104.140625 178.886719 104.140625 178.886719 C 105.464844 178.886719 105.820312 177.40625 105.820312 176.367188 C 105.820312 176.367188 106.660156 173.007812 106.660156 173.007812 C 107.351562 173.007812 109.179688 167.410156 109.179688 166.289062 C 109.179688 166.289062 109.179688 165.449219 109.179688 165.449219 C 109.179688 165.449219 110.019531 163.769531 110.019531 163.769531 C 112.167969 163.769531 114.21875 160.125 114.21875 157.890625 C 114.21875 157.890625 115.898438 157.050781 115.898438 157.050781 C 118.179688 157.050781 118.417969 155.660156 118.417969 153.691406 C 118.417969 153.691406 120.097656 152.851562 120.097656 152.851562 C 120.097656 152.851562 120.9375 152.851562 120.9375 152.851562 C 124.175781 152.851562 132.136719 149.492188 133.535156 149.492188 C 135.25 149.492188 141.09375 150.40625 141.09375 147.8125 C 141.09375 147.8125 144.453125 147.8125 144.453125 147.8125 C 146.84375 147.8125 150.28125 149.492188 150.332031 149.492188 C 150.332031 149.492188 154.53125 153.273438 154.53125 153.273438 C 154.53125 153.273438 152.011719 154.109375 152.011719 154.109375 C 152.011719 164.855469 145.292969 170.433594 145.292969 177.207031 C 143.855469 177.207031 142.773438 179.367188 142.773438 180.566406 C 142.773438 182.03125 143.359375 185.605469 141.09375 185.605469 C 140.097656 185.605469 140.097656 186.445312 141.09375 186.445312 C 141.09375 188.199219 145.820312 191.691406 145.292969 192.742188 C 145.292969 192.742188 141.09375 196.945312 141.09375 196.945312 C 137.875 203.382812 141.980469 207.441406 147.8125 207.441406 C 147.8125 207.441406 152.011719 210.800781 152.011719 210.800781 C 152.011719 210.800781 152.851562 211.640625 152.851562 211.640625 C 152.851562 211.640625 153.691406 211.640625 153.691406 211.640625 C 153.691406 217.90625 145.726562 223.398438 140.253906 223.398438 Z M 140.253906 223.398438 "/>
<path style=" stroke:none;fill-rule:nonzero;fill:rgb(0.784314%,17.254902%,100%);fill-opacity:1;" d="M 79.785156 157.050781 L 80.625 157.050781 C 80.625 153.480469 83.144531 153.332031 83.144531 149.492188 C 80.320312 149.492188 79.785156 154.617188 79.785156 157.050781 Z M 79.785156 157.050781 "/>
<path style=" stroke:none;fill-rule:nonzero;fill:rgb(88.235295%,59.215689%,5.882353%);fill-opacity:1;" d="M 185.605469 152.011719 C 187.042969 152.011719 188.125 154.171875 188.125 155.371094 C 185.679688 155.371094 183.457031 158.707031 181.828125 157.890625 C 179.996094 156.976562 183.085938 155.628906 183.085938 154.953125 C 183.085938 154.953125 179.726562 153.273438 179.726562 153.273438 C 177.101562 148.023438 184.832031 152.011719 185.605469 152.011719 Z M 185.605469 152.011719 "/>
<path style=" stroke:none;fill-rule:nonzero;fill:rgb(27.058825%,92.156863%,79.215688%);fill-opacity:1;" d="M 199.042969 151.171875 C 199.042969 153.679688 209.121094 154.125 209.121094 151.59375 C 209.121094 150.0625 205.523438 151.921875 205.34375 152.011719 Z M 199.042969 151.171875 "/>
<path style=" stroke:none;fill-rule:nonzero;fill:rgb(0.784314%,17.254902%,100%);fill-opacity:1;" d="M 78.105469 161.25 L 79.785156 162.089844 C 79.785156 162.089844 80.625 158.730469 80.625 158.730469 C 80.625 158.730469 79.785156 157.050781 79.785156 157.050781 C 78.410156 157.050781 78.105469 160.054688 78.105469 161.25 Z M 78.105469 161.25 "/>
<path style=" stroke:none;fill-rule:nonzero;fill:rgb(0.784314%,17.254902%,100%);fill-opacity:1;" d="M 332.578125 159.570312 L 333.417969 161.25 C 333.417969 160.289062 333.902344 157.890625 332.578125 157.890625 C 332.578125 157.890625 332.578125 159.570312 332.578125 159.570312 Z M 332.578125 159.570312 "/>
<path style=" stroke:none;fill-rule:nonzero;fill:rgb(0.784314%,17.254902%,100%);fill-opacity:1;" d="M 76.425781 166.289062 L 78.105469 166.289062 C 78.105469 166.289062 79.785156 165.449219 79.785156 165.449219 C 79.785156 165.449219 78.105469 162.929688 78.105469 162.929688 C 76.585938 162.929688 76.425781 165.445312 76.425781 166.289062 Z M 76.425781 166.289062 "/>
<path style=" stroke:none;fill-rule:nonzero;fill:rgb(100%,0%,85.490197%);fill-opacity:1;" d="M 215 176.367188 L 216.679688 176.367188 C 216.679688 171.863281 209.960938 169.453125 209.960938 168.808594 C 209.960938 168.808594 204.082031 167.96875 204.082031 167.96875 C 204.082031 167.96875 203.242188 167.96875 203.242188 167.96875 C 203.242188 167.96875 202.402344 167.96875 202.402344 167.96875 C 201.167969 167.96875 189.722656 175.527344 194.003906 175.527344 C 194.003906 175.527344 195.683594 175.527344 195.683594 175.527344 C 195.683594 175.527344 199.042969 175.527344 199.042969 175.527344 C 199.042969 174.203125 201.441406 174.6875 202.402344 174.6875 C 202.402344 170.574219 206.300781 174.328125 207.023438 174.6875 C 208.0625 175.207031 211.640625 173.726562 211.640625 175.527344 C 211.640625 175.527344 212.480469 175.527344 212.480469 175.527344 C 212.480469 175.527344 213.320312 176.367188 213.320312 176.367188 C 213.320312 176.367188 215 176.367188 215 176.367188 Z M 215 176.367188 "/>
<path style=" stroke:none;fill-rule:nonzero;fill:rgb(0.784314%,17.254902%,100%);fill-opacity:1;" d="M 103.300781 195.683594 L 101.621094 196.523438 C 101.621094 196.523438 99.941406 195.265625 99.941406 195.265625 C 99.175781 193.730469 100.78125 192.058594 100.78125 191.0625 C 100.78125 189.664062 98.886719 188.957031 98.261719 187.703125 C 96.144531 183.472656 100.804688 176.761719 102.460938 175.109375 C 103.515625 174.054688 104.363281 170.488281 105.820312 170.488281 C 105.820312 170.488281 106.660156 173.007812 106.660156 173.007812 C 106.660156 173.007812 105.820312 176.367188 105.820312 176.367188 C 104.496094 176.367188 104.140625 177.847656 104.140625 178.886719 C 104.140625 178.886719 103.300781 179.726562 103.300781 179.726562 C 103.300781 179.726562 103.300781 181.40625 103.300781 181.40625 C 98.929688 181.40625 103.300781 193.53125 103.300781 195.683594 Z M 103.300781 195.683594 "/>
<path style=" stroke:none;fill-rule:nonzero;fill:rgb(0.784314%,17.254902%,100%);fill-opacity:1;" d="M 205.761719 216.679688 L 204.921875 217.519531 C 202.085938 217.519531 203.242188 210.710938 203.242188 208.28125 C 203.242188 198.027344 202.402344 186.886719 202.402344 177.207031 C 203.675781 177.207031 202.402344 175.726562 202.402344 174.6875 C 204.511719 174.6875 206.601562 174.007812 206.601562 177.207031 C 205.113281 177.207031 205.761719 184.984375 205.761719 186.445312 C 205.761719 186.445312 205.761719 216.679688 205.761719 216.679688 Z M 205.761719 216.679688 "/>
<path style=" stroke:none;fill-rule:evenodd;fill:rgb(2.745098%,100%,34.901962%);fill-opacity:1;" d="M 203.242188 219.199219 C 203.242188 220.957031 206.386719 219.199219 203.242188 219.199219 M 221.71875 190.644531 C 221.71875 194.105469 225.179688 190.644531 221.71875 190.644531 M 205.761719 216.679688 L 204.921875 217.519531 C 202.085938 217.519531 203.242188 210.710938 203.242188 208.28125 C 203.242188 198.027344 202.402344 186.886719 202.402344 177.207031 C 202.402344 177.207031 199.042969 175.527344 199.042969 175.527344 C 199.042969 175.527344 195.683594 175.527344 195.683594 175.527344 C 195.683594 175.527344 194.003906 176.367188 194.003906 176.367188 C 190.707031 176.367188 179.726562 182.4375 179.726562 186.445312 C 179.726562 191.125 181.167969 194.789062 183.085938 198.625 C 184.335938 201.121094 190.644531 203.320312 190.644531 206.601562 C 196.148438 206.601562 192.324219 215.027344 192.324219 216.679688 C 192.324219 216.679688 194.003906 219.617188 194.003906 219.617188 C 194.003906 219.617188 194.003906 224.65625 194.003906 224.65625 C 197.046875 230.746094 204.8125 233.164062 209.960938 228.015625 C 209.960938 228.015625 213.320312 225.5 213.320312 225.5 C 214.871094 222.398438 213.347656 226.757812 214.578125 226.757812 C 214.578125 226.757812 215 223.398438 215 223.398438 C 215 221.140625 215.839844 217.792969 215.839844 215 C 215.839844 215 214.160156 212.0625 214.160156 212.0625 C 214.160156 212.0625 215.839844 206.601562 215.839844 206.601562 C 215.839844 205.460938 219.039062 200.722656 220.460938 200.722656 C 220.460938 200.722656 221.71875 201.984375 221.71875 201.984375 C 222.769531 199.882812 221.085938 195.6875 221.71875 194.421875 C 222.71875 192.425781 223.5625 195.683594 223.820312 195.683594 C 223.820312 195.683594 224.238281 191.90625 224.238281 191.90625 C 224.238281 191.90625 225.917969 190.226562 225.917969 190.226562 C 227 188.058594 224.238281 186.671875 224.238281 184.765625 C 224.238281 184.765625 223.820312 179.726562 223.820312 179.726562 C 223.820312 179.726562 222.976562 183.085938 222.976562 183.085938 C 222.074219 183.085938 220.382812 178.046875 217.519531 178.046875 C 217.519531 178.046875 215 176.367188 215 176.367188 C 215 176.367188 213.320312 176.367188 213.320312 176.367188 C 213.320312 176.367188 212.480469 175.527344 212.480469 175.527344 C 212.480469 175.527344 211.640625 175.527344 211.640625 175.527344 C 209.90625 175.527344 206.601562 178.734375 206.601562 177.207031 C 205.113281 177.207031 205.761719 184.984375 205.761719 186.445312 C 205.761719 186.445312 205.761719 216.679688 205.761719 216.679688 Z M 205.761719 216.679688 "/>
<path style=" stroke:none;fill-rule:evenodd;fill:rgb(60.000002%,32.549021%,100%);fill-opacity:1;" d="M 254.472656 205.761719 C 254.472656 208.679688 250.421875 206.738281 249.015625 207.441406 C 243.589844 210.152344 241.871094 215 235.578125 215 L 235.15625 217.9375 C 236.511719 220.652344 240.285156 219.367188 242.296875 218.359375 L 245.65625 215 C 247.476562 214.089844 249.859375 214.160156 251.53125 214.160156 L 254.054688 210.800781 C 256.480469 210.800781 264.429688 207.441406 256.570312 207.441406 L 254.472656 205.761719 M 240.195312 251.953125 L 236.835938 249.851562 L 236.835938 247.335938 C 235.992188 245.644531 226.113281 241.875 223.398438 241.875 C 221.535156 241.875 219.457031 244.3125 217.9375 243.554688 C 215.777344 242.472656 217.585938 239.597656 217.101562 239.355469 L 214.578125 240.195312 L 210.382812 237.675781 C 209.691406 237.332031 192.742188 237.675781 191.0625 238.515625 C 190.386719 238.851562 187.769531 246.074219 187.703125 246.074219 C 185.988281 246.074219 178.441406 245.667969 175.945312 246.914062 C 173.386719 248.195312 172.714844 255.3125 170.488281 255.3125 C 167.515625 255.3125 164.441406 251.953125 162.089844 251.953125 C 162.089844 250.832031 162.089844 250.554688 162.089844 249.433594 C 162.089844 239.640625 159.488281 238.265625 151.59375 234.316406 C 151.59375 234.316406 149.914062 231.796875 149.914062 231.796875 C 148.1875 230.933594 140.253906 228.394531 140.253906 225.917969 C 140.253906 225.917969 140.253906 223.398438 140.253906 223.398438 C 145.726562 223.398438 153.691406 217.90625 153.691406 211.640625 C 158.492188 211.640625 168.953125 225.210938 172.167969 218.78125 C 174.625 213.867188 147.8125 199.910156 147.8125 207.441406 C 141.980469 207.441406 137.875 203.382812 141.09375 196.945312 C 141.09375 196.945312 145.292969 192.742188 145.292969 192.742188 C 145.820312 191.691406 141.09375 188.199219 141.09375 186.445312 C 141.09375 186.445312 141.09375 185.605469 141.09375 185.605469 C 143.359375 185.605469 142.773438 182.03125 142.773438 180.566406 C 142.773438 180.566406 146.132812 178.046875 146.132812 178.046875 C 152.5 178.046875 164.285156 184.394531 170.070312 187.285156 C 172.78125 188.640625 177.355469 186.445312 179.726562 186.445312 C 179.726562 191.125 181.167969 194.789062 183.085938 198.625 C 184.335938 201.121094 190.644531 203.320312 190.644531 206.601562 C 190.644531 206.601562 188.546875 205.761719 188.546875 205.761719 C 186.371094 206.847656 186.546875 216.519531 188.546875 217.519531 C 188.546875 217.519531 192.324219 216.679688 192.324219 216.679688 C 192.324219 216.679688 194.003906 219.617188 194.003906 219.617188 C 194.003906 219.617188 194.003906 224.65625 194.003906 224.65625 C 197.046875 230.746094 204.8125 233.164062 209.960938 228.015625 C 209.960938 228.015625 213.320312 225.5 213.320312 225.5 C 214.871094 222.398438 213.347656 226.757812 214.578125 226.757812 C 214.578125 226.757812 215 223.398438 215 223.398438 C 215 221.140625 215.839844 217.792969 215.839844 215 C 217.320312 215 217.78125 217.175781 218.78125 216.679688 C 219.546875 216.296875 224.269531 207.246094 219.617188 204.921875 C 217.84375 204.035156 217.183594 206.601562 215.839844 206.601562 C 215.839844 205.460938 219.039062 200.722656 220.460938 200.722656 C 220.460938 200.722656 221.71875 201.984375 221.71875 201.984375 C 222.769531 199.882812 221.085938 195.6875 221.71875 194.421875 C 222.71875 192.425781 223.5625 195.683594 223.820312 195.683594 C 223.820312 195.683594 224.238281 191.90625 224.238281 191.90625 C 224.238281 191.90625 225.917969 190.226562 225.917969 190.226562 C 227 188.058594 224.238281 186.671875 224.238281 184.765625 C 229.066406 184.765625 248.601562 184.550781 251.53125 183.085938 C 251.53125 183.085938 261.191406 178.886719 261.191406 178.886719 C 261.191406 178.886719 262.03125 178.046875 262.03125 178.046875 C 262.03125 178.046875 264.550781 176.367188 264.550781 176.367188 C 264.550781 180.738281 266.9375 183.242188 268.75 186.867188 C 270.476562 190.320312 267.910156 196.554688 267.910156 199.882812 C 267.910156 199.882812 267.070312 200.722656 267.070312 200.722656 C 267.070312 200.722656 267.070312 202.402344 267.070312 202.402344 C 267.070312 202.402344 266.230469 204.082031 266.230469 204.082031 C 266.230469 208.042969 254.472656 214 254.472656 215.421875 C 254.472656 215.421875 258.25 215.839844 258.25 215.839844 C 258.25 215.839844 260.773438 219.199219 260.773438 219.199219 C 262.449219 220.039062 267.828125 220.878906 269.589844 220.878906 C 269.589844 223.632812 263.441406 224.929688 262.03125 226.335938 C 256.265625 232.105469 245.234375 236.679688 245.234375 246.914062 C 243.910156 246.914062 244.394531 249.3125 244.394531 250.273438 C 244.394531 250.273438 240.195312 251.953125 240.195312 251.953125 Z M 240.195312 251.953125 "/>
<path style=" stroke:none;fill-rule:nonzero;fill:rgb(14.901961%,49.411765%,100%);fill-opacity:1;" d="M 115.898438 212.480469 L 116.738281 218.359375 C 116.738281 220.105469 114.558594 217.777344 114.21875 217.101562 C 114.21875 217.101562 112.117188 212.480469 112.117188 212.480469 C 109.691406 211.265625 111.933594 210.011719 110.859375 207.859375 C 109.589844 205.324219 103.300781 197.863281 103.300781 195.683594 C 103.300781 193.53125 98.929688 181.40625 103.300781 181.40625 C 103.300781 181.40625 103.300781 182.246094 103.300781 182.246094 C 103.300781 182.246094 102.460938 183.085938 102.460938 183.085938 C 102.460938 186.761719 104.140625 188.644531 104.140625 193.164062 C 104.140625 194.203125 104.496094 195.683594 105.820312 195.683594 C 105.820312 197.074219 108.714844 203.242188 110.859375 203.242188 C 110.859375 203.242188 111.699219 204.082031 111.699219 204.082031 C 111.699219 204.082031 111.699219 204.921875 111.699219 204.921875 C 111.699219 204.921875 112.539062 206.601562 112.539062 206.601562 C 112.539062 206.601562 112.539062 207.441406 112.539062 207.441406 C 112.539062 207.441406 113.378906 208.28125 113.378906 208.28125 C 113.378906 208.28125 113.378906 209.121094 113.378906 209.121094 C 113.378906 209.121094 115.898438 212.480469 115.898438 212.480469 Z M 115.898438 212.480469 "/>
<path style=" stroke:none;fill-rule:nonzero;fill:rgb(86.666667%,39.215687%,47.450981%);fill-opacity:1;" d="M 342.65625 223.398438 C 345.109375 223.398438 347.25 226.757812 348.117188 226.757812 C 348.601562 226.757812 349.808594 223.40625 351.476562 224.238281 C 357.035156 227.019531 360.078125 226.757812 367.011719 226.757812 C 367.011719 224.753906 368.144531 224.40625 367.011719 222.140625 C 367.011719 222.140625 364.492188 220.460938 364.492188 220.460938 C 364.492188 218.585938 367.480469 219.59375 368.273438 219.199219 C 369.730469 218.46875 369.160156 215 370.789062 215 C 371.910156 215 373.5 215.042969 374.570312 212.898438 C 376.125 209.785156 377.929688 199.570312 377.929688 195.683594 C 369.511719 195.683594 359.472656 191.703125 352.3125 188.125 C 352.3125 188.125 349.796875 190.644531 349.796875 190.644531 C 349.796875 190.644531 344.335938 186.445312 344.335938 186.445312 C 343.363281 186.445312 343.101562 188.589844 343.496094 189.382812 C 344.066406 190.523438 343.542969 196.011719 342.65625 197.78125 C 340.976562 201.136719 343.449219 206.28125 341.816406 209.539062 C 340.109375 212.953125 338.457031 215.738281 338.457031 221.71875 C 338.457031 221.71875 341.816406 222.558594 341.816406 222.558594 C 341.816406 222.558594 342.65625 223.398438 342.65625 223.398438 Z M 342.65625 223.398438 "/>
<path style=" stroke:none;fill-rule:nonzero;fill:rgb(86.666667%,39.215687%,47.450981%);fill-opacity:1;" d="M 68.867188 225.078125 C 65.421875 225.078125 63.707031 227.027344 60.890625 228.4375 L 55.007812 227.597656 C 50.375 229.914062 44.515625 229.277344 39.472656 229.277344 C 39.472656 228.035156 42.582031 223.316406 41.992188 222.140625 C 41.085938 220.324219 34.75 221.09375 33.59375 218.78125 C 33.59375 218.78125 33.59375 215.421875 33.59375 215.421875 C 33.59375 215.421875 31.914062 215.421875 31.914062 215.421875 C 31.164062 213.921875 29.328125 207.996094 30.234375 206.179688 C 30.234375 206.179688 31.914062 200.722656 31.914062 200.722656 C 31.914062 198.6875 33.59375 195.960938 33.59375 199.882812 C 33.59375 202.035156 35.273438 202.035156 35.273438 199.882812 C 36.609375 199.882812 37.855469 197.363281 38.210938 197.363281 C 39.398438 197.363281 42.058594 199.640625 43.25 199.042969 C 45.164062 198.085938 47.371094 198.242188 49.132812 197.363281 C 49.132812 197.363281 50.8125 194.003906 50.8125 194.003906 C 50.8125 194.003906 51.648438 195.683594 51.648438 195.683594 C 52.261719 195.683594 51.894531 191.484375 54.171875 191.484375 C 54.171875 191.484375 55.851562 194.84375 55.851562 194.84375 C 55.851562 194.84375 56.269531 193.585938 56.269531 193.585938 C 57.066406 191.992188 63.773438 188.964844 64.667969 188.964844 C 64.667969 191.902344 66.644531 212.65625 68.027344 215.421875 C 69.035156 217.433594 70.546875 220.199219 70.546875 222.558594 C 69.222656 222.558594 68.867188 224.039062 68.867188 225.078125 Z M 68.867188 225.078125 "/>
<path style=" stroke:none;fill-rule:nonzero;fill:rgb(60.000002%,32.549021%,100%);fill-opacity:1;" d="M 141.09375 189.804688 C 141.09375 192.949219 142.851562 189.804688 141.09375 189.804688 Z M 141.09375 189.804688 "/>
<path style=" stroke:none;fill-rule:nonzero;fill:rgb(60.000002%,32.549021%,100%);fill-opacity:1;" d="M 221.71875 190.644531 C 221.71875 194.105469 225.179688 190.644531 221.71875 190.644531 Z M 221.71875 190.644531 "/>
<path style=" stroke:none;fill-rule:nonzero;fill:rgb(100%,20.392157%,15.294118%);fill-opacity:1;" d="M 263.710938 248.59375 C 259.394531 248.59375 255.15625 250.980469 251.53125 252.792969 C 248.527344 254.296875 246.699219 250.273438 244.394531 250.273438 C 244.394531 249.3125 243.910156 246.914062 245.234375 246.914062 C 245.234375 246.914062 249.851562 248.59375 249.851562 248.59375 C 256.332031 245.355469 260.078125 238.441406 266.648438 235.15625 C 268.160156 234.402344 271.578125 228.4375 272.109375 228.4375 C 272.109375 228.4375 272.949219 227.597656 272.949219 227.597656 C 272.949219 227.597656 273.789062 226.757812 273.789062 226.757812 C 273.789062 224.269531 275.46875 222.1875 275.46875 218.359375 C 275.46875 218.359375 276.308594 217.519531 276.308594 217.519531 C 276.308594 217.519531 277.148438 216.679688 277.148438 216.679688 C 278.144531 216.679688 278.144531 215.839844 277.148438 215.839844 C 277.148438 211.816406 285.441406 204.921875 288.90625 204.921875 C 288.90625 204.921875 289.746094 204.082031 289.746094 204.082031 C 289.746094 201.105469 293.945312 202.972656 293.945312 204.921875 C 293.945312 212.042969 286.386719 214.726562 286.386719 221.71875 C 286.386719 221.71875 285.546875 222.558594 285.546875 222.558594 C 285.546875 222.558594 283.867188 223.398438 283.867188 223.398438 C 283.867188 223.398438 283.027344 225.078125 283.027344 225.078125 C 283.027344 225.078125 282.1875 225.917969 282.1875 225.917969 C 282.1875 225.917969 281.347656 226.757812 281.347656 226.757812 C 281.347656 226.757812 280.507812 228.4375 280.507812 228.4375 C 280.507812 228.4375 279.667969 229.277344 279.667969 229.277344 C 279.667969 229.277344 278.828125 230.117188 278.828125 230.117188 C 278.828125 230.117188 278.828125 230.957031 278.828125 230.957031 C 278.828125 230.957031 277.988281 231.796875 277.988281 231.796875 C 277.988281 231.796875 272.949219 238.515625 272.949219 238.515625 C 272.949219 238.515625 272.109375 239.355469 272.109375 239.355469 C 272.109375 239.355469 267.070312 244.394531 267.070312 244.394531 C 267.070312 244.394531 266.230469 245.234375 266.230469 245.234375 C 266.230469 247.203125 265.992188 248.59375 263.710938 248.59375 Z M 263.710938 248.59375 "/>
<path style=" stroke:none;fill-rule:nonzero;fill:rgb(86.666667%,39.215687%,47.450981%);fill-opacity:1;" d="M 338.457031 202.402344 C 337.28125 202.402344 335.632812 209.121094 337.617188 209.121094 C 337.617188 209.121094 338.457031 202.402344 338.457031 202.402344 Z M 338.457031 202.402344 "/>
<path style=" stroke:none;fill-rule:nonzero;fill:rgb(98.039216%,66.666669%,25.098041%);fill-opacity:1;" d="M 113.378906 209.121094 L 114.21875 209.121094 C 114.21875 209.121094 114.21875 207.441406 114.21875 207.441406 C 114.21875 207.441406 114.21875 204.921875 114.21875 204.921875 C 114.21875 204.921875 113.378906 204.921875 113.378906 204.921875 C 113.378906 204.921875 112.539062 206.601562 112.539062 206.601562 C 112.539062 206.601562 112.539062 207.441406 112.539062 207.441406 C 112.539062 207.441406 113.378906 208.28125 113.378906 208.28125 C 113.378906 208.28125 113.378906 209.121094 113.378906 209.121094 Z M 113.378906 209.121094 "/>
<path style=" stroke:none;fill-rule:nonzero;fill:rgb(83.137256%,100%,0%);fill-opacity:1;" d="M 152.851562 211.640625 L 153.691406 211.640625 C 158.492188 211.640625 168.953125 225.210938 172.167969 218.78125 C 174.625 213.867188 147.8125 199.910156 147.8125 207.441406 C 147.8125 207.441406 152.011719 210.800781 152.011719 210.800781 C 152.011719 210.800781 152.851562 211.640625 152.851562 211.640625 Z M 152.851562 211.640625 "/>
<path style=" stroke:none;fill-rule:nonzero;fill:rgb(95.686275%,26.274511%,27.058825%);fill-opacity:1;" d="M 215.839844 206.601562 C 217.183594 206.601562 217.84375 204.035156 219.617188 204.921875 C 224.269531 207.246094 219.546875 216.296875 218.78125 216.679688 C 217.78125 217.175781 217.320312 215 215.839844 215 C 215.839844 215 214.160156 212.0625 214.160156 212.0625 C 214.160156 212.0625 215.839844 206.601562 215.839844 206.601562 Z M 215.839844 206.601562 "/>
<path style=" stroke:none;fill-rule:nonzero;fill:rgb(100%,20.392157%,15.294118%);fill-opacity:1;" d="M 143.613281 250.273438 L 145.710938 251.953125 C 148.777344 251.953125 152.558594 251.597656 156.632812 253.632812 C 157.457031 254.046875 160.632812 251.953125 162.089844 251.953125 C 162.089844 250.832031 162.089844 250.554688 162.089844 249.433594 C 160.609375 249.433594 161.636719 248.105469 161.25 247.335938 C 160.363281 245.558594 147.632812 236.835938 145.292969 236.835938 C 145.292969 236.835938 143.613281 235.15625 143.613281 235.15625 C 143.613281 235.15625 134.375 227.179688 134.375 227.179688 C 134.375 226.929688 134.035156 223.398438 135.214844 223.398438 C 135.214844 219.65625 118.566406 205.761719 115.058594 205.761719 C 115.058594 205.761719 114.21875 207.441406 114.21875 207.441406 C 114.21875 207.441406 114.21875 209.121094 114.21875 209.121094 C 114.21875 211.09375 116.738281 210.28125 116.738281 212.480469 C 116.738281 212.480469 117.578125 214.160156 117.578125 214.160156 C 117.789062 214.160156 120.097656 220.226562 120.097656 220.878906 C 120.097656 220.878906 120.9375 221.71875 120.9375 221.71875 C 122.742188 221.71875 123.457031 224.1875 123.457031 225.917969 C 123.457031 225.917969 127.65625 231.796875 127.65625 231.796875 C 128.949219 231.796875 130.175781 232.925781 130.175781 234.316406 C 130.175781 234.316406 134.375 240.195312 134.375 240.195312 C 134.375 240.195312 136.054688 241.875 136.054688 241.875 C 136.054688 245.0625 143.613281 246.773438 143.613281 250.273438 Z M 143.613281 250.273438 "/>
<path style=" stroke:none;fill-rule:nonzero;fill:rgb(95.686275%,26.274511%,27.058825%);fill-opacity:1;" d="M 190.644531 206.601562 C 196.148438 206.601562 192.324219 215.027344 192.324219 216.679688 C 192.324219 216.679688 188.546875 217.519531 188.546875 217.519531 C 186.546875 216.519531 186.371094 206.847656 188.546875 205.761719 C 188.546875 205.761719 190.644531 206.601562 190.644531 206.601562 Z M 190.644531 206.601562 "/>
<path style=" stroke:none;fill-rule:nonzero;fill:rgb(83.137256%,100%,0%);fill-opacity:1;" d="M 254.472656 205.761719 C 254.472656 208.679688 250.421875 206.738281 249.015625 207.441406 C 243.589844 210.152344 241.871094 215 235.578125 215 L 235.15625 217.9375 C 236.511719 220.652344 240.285156 219.367188 242.296875 218.359375 L 245.65625 215 C 247.476562 214.089844 249.859375 214.160156 251.53125 214.160156 L 254.054688 210.800781 C 256.480469 210.800781 264.429688 207.441406 256.570312 207.441406 Z M 254.472656 205.761719 "/>
<path style=" stroke:none;fill-rule:nonzero;fill:rgb(60.000002%,32.549021%,100%);fill-opacity:1;" d="M 152.011719 210.800781 L 152.851562 211.640625 C 152.851562 211.640625 152.011719 210.800781 152.011719 210.800781 Z M 152.011719 210.800781 "/>
<path style=" stroke:none;fill-rule:nonzero;fill:rgb(98.039216%,66.666669%,25.098041%);fill-opacity:1;" d="M 117.578125 214.160156 C 117.578125 215.199219 118.117188 218.359375 116.738281 218.359375 C 116.738281 218.359375 115.898438 212.480469 115.898438 212.480469 C 115.898438 212.480469 116.738281 212.480469 116.738281 212.480469 C 116.738281 212.480469 117.578125 214.160156 117.578125 214.160156 Z M 117.578125 214.160156 "/>
<path style=" stroke:none;fill-rule:nonzero;fill:rgb(86.666667%,39.215687%,47.450981%);fill-opacity:1;" d="M 337.617188 215 C 336.621094 215 336.621094 215.839844 337.617188 215.839844 C 337.617188 215.839844 337.617188 215 337.617188 215 Z M 337.617188 215 "/>
<path style=" stroke:none;fill-rule:nonzero;fill:rgb(60.000002%,32.549021%,100%);fill-opacity:1;" d="M 205.761719 216.679688 L 204.921875 217.519531 C 204.921875 217.519531 205.761719 216.679688 205.761719 216.679688 Z M 205.761719 216.679688 "/>
<path style=" stroke:none;fill-rule:nonzero;fill:rgb(100%,72.941178%,0%);fill-opacity:1;" d="M 277.148438 216.679688 L 276.308594 217.519531 C 276.308594 217.519531 276.308594 216.679688 276.308594 216.679688 C 276.308594 216.679688 277.148438 216.679688 277.148438 216.679688 Z M 277.148438 216.679688 "/>
<path style=" stroke:none;fill-rule:nonzero;fill:rgb(100%,72.941178%,0%);fill-opacity:1;" d="M 276.308594 217.519531 L 275.46875 218.359375 C 275.46875 218.359375 276.308594 217.519531 276.308594 217.519531 Z M 276.308594 217.519531 "/>
<path style=" stroke:none;fill-rule:nonzero;fill:rgb(100%,72.941178%,0%);fill-opacity:1;" d="M 272.109375 228.4375 C 271.578125 228.4375 268.160156 234.402344 266.648438 235.15625 C 260.078125 238.441406 256.332031 245.355469 249.851562 248.59375 L 245.234375 246.914062 C 245.234375 236.679688 256.265625 232.105469 262.03125 226.335938 C 263.441406 224.929688 269.589844 223.632812 269.589844 220.878906 C 269.589844 220.878906 275.46875 218.359375 275.46875 218.359375 C 275.46875 222.1875 273.789062 224.269531 273.789062 226.757812 C 273.789062 226.757812 272.949219 227.597656 272.949219 227.597656 C 272.949219 227.597656 272.109375 228.4375 272.109375 228.4375 Z M 272.109375 228.4375 "/>
<path style=" stroke:none;fill-rule:nonzero;fill:rgb(0.784314%,17.254902%,100%);fill-opacity:1;" d="M 203.242188 219.199219 C 203.242188 220.957031 206.386719 219.199219 203.242188 219.199219 Z M 203.242188 219.199219 "/>
<path style=" stroke:none;fill-rule:nonzero;fill:rgb(98.039216%,66.666669%,25.098041%);fill-opacity:1;" d="M 120.097656 220.878906 L 120.9375 221.71875 C 120.9375 221.71875 120.097656 220.878906 120.097656 220.878906 Z M 120.097656 220.878906 "/>
<path style=" stroke:none;fill-rule:nonzero;fill:rgb(18.039216%,54.509807%,34.117648%);fill-opacity:1;" d="M 329.21875 234.316406 C 329.21875 237.371094 336.300781 236.808594 338.039062 237.675781 C 344.070312 240.691406 355.363281 239.199219 359.03125 241.035156 L 361.554688 242.714844 C 361.882812 242.714844 362.863281 241.035156 364.492188 241.035156 C 370.527344 241.035156 369.238281 226.757812 367.011719 226.757812 C 360.078125 226.757812 357.035156 227.019531 351.476562 224.238281 C 349.808594 223.40625 348.601562 226.757812 348.117188 226.757812 C 347.25 226.757812 345.109375 223.398438 342.65625 223.398438 C 342.65625 223.398438 341.816406 222.558594 341.816406 222.558594 C 341.816406 222.558594 338.457031 221.71875 338.457031 221.71875 C 338.457031 224.65625 333.417969 232.195312 333.417969 228.4375 C 333.417969 228.4375 329.21875 234.316406 329.21875 234.316406 Z M 329.21875 234.316406 "/>
<path style=" stroke:none;fill-rule:nonzero;fill:rgb(100%,72.941178%,0%);fill-opacity:1;" d="M 145.292969 236.835938 C 147.632812 236.835938 160.363281 245.558594 161.25 247.335938 C 161.636719 248.105469 160.609375 249.433594 162.089844 249.433594 C 162.089844 239.640625 159.488281 238.265625 151.59375 234.316406 C 151.59375 234.316406 149.914062 231.796875 149.914062 231.796875 C 148.1875 230.933594 140.253906 228.394531 140.253906 225.917969 C 139.214844 225.917969 137.734375 225.5625 137.734375 224.238281 C 137.734375 224.238281 135.214844 223.398438 135.214844 223.398438 C 134.035156 223.398438 134.375 226.929688 134.375 227.179688 C 134.375 227.179688 143.613281 235.15625 143.613281 235.15625 C 143.613281 235.15625 145.292969 236.835938 145.292969 236.835938 Z M 145.292969 236.835938 "/>
<path style=" stroke:none;fill-rule:nonzero;fill:rgb(18.039216%,54.509807%,34.117648%);fill-opacity:1;" d="M 62.988281 240.195312 C 63.867188 240.195312 65.507812 239.796875 65.507812 241.035156 C 70.027344 241.035156 74.914062 237.675781 79.785156 237.675781 C 79.785156 233.230469 72.226562 229.976562 72.226562 225.078125 C 72.226562 225.078125 68.867188 225.078125 68.867188 225.078125 C 65.421875 225.078125 63.707031 227.027344 60.890625 228.4375 C 60.890625 228.4375 55.007812 227.597656 55.007812 227.597656 C 50.375 229.914062 44.515625 229.277344 39.472656 229.277344 C 37.5625 229.277344 35.179688 240.195312 42.832031 240.195312 C 42.832031 240.195312 44.929688 241.875 44.929688 241.875 C 45.269531 241.875 51.226562 239.355469 52.492188 239.355469 C 52.492188 239.355469 54.171875 242.714844 54.171875 242.714844 C 54.171875 242.714844 55.851562 238.515625 55.851562 238.515625 C 58.445312 237.21875 57.496094 241.035156 58.367188 241.035156 C 59.699219 241.035156 60.859375 240.195312 62.988281 240.195312 Z M 62.988281 240.195312 "/>
<path style=" stroke:none;fill-rule:nonzero;fill:rgb(1.176471%,75.686276%,17.647059%);fill-opacity:1;" d="M 287.226562 275.46875 L 288.066406 275.46875 C 289.835938 275.46875 309.292969 283.351562 312 284.707031 C 312 284.707031 325.859375 284.707031 325.859375 284.707031 C 353.058594 284.707031 364.492188 266.515625 364.492188 241.035156 C 362.863281 241.035156 361.882812 242.714844 361.554688 242.714844 C 361.554688 242.714844 359.03125 241.035156 359.03125 241.035156 C 355.363281 239.199219 344.070312 240.691406 338.039062 237.675781 C 336.300781 236.808594 329.21875 237.371094 329.21875 234.316406 C 329.039062 234.316406 318.511719 241.980469 317.039062 242.714844 C 312.898438 244.785156 304.472656 243.957031 300.242188 246.074219 C 296.472656 247.957031 294.347656 251.113281 289.746094 251.113281 C 289.746094 252.34375 277.148438 256.835938 277.148438 252.792969 C 277.148438 252.792969 275.890625 254.472656 275.890625 254.472656 C 275.1875 254.824219 270.09375 255.3125 269.589844 255.3125 C 269.589844 255.3125 268.75 256.152344 268.75 256.152344 C 268.75 256.152344 268.75 261.191406 268.75 261.191406 C 268.75 264.28125 271.269531 266.285156 271.269531 268.75 C 272.570312 268.75 274.25 267.910156 275.046875 267.910156 C 278.027344 267.910156 273.40625 270.449219 275.046875 271.269531 C 275.046875 271.269531 278.40625 270.429688 278.40625 270.429688 C 280.628906 271.539062 283.859375 274.628906 286.386719 274.628906 C 286.386719 274.628906 287.226562 275.46875 287.226562 275.46875 Z M 287.226562 275.46875 "/>
<path style=" stroke:none;fill-rule:nonzero;fill:rgb(1.176471%,75.686276%,17.647059%);fill-opacity:1;" d="M 103.300781 284.707031 L 104.140625 284.707031 C 104.140625 283.351562 112.53125 281.347656 114.21875 281.347656 C 114.21875 281.347656 115.898438 281.347656 115.898438 281.347656 C 115.898438 281.347656 116.738281 280.507812 116.738281 280.507812 C 116.738281 280.507812 118 277.988281 118 277.988281 C 118 277.988281 120.515625 277.988281 120.515625 277.988281 C 120.515625 277.988281 120.515625 276.308594 120.515625 276.308594 C 120.515625 276.308594 125.554688 276.308594 125.554688 276.308594 C 125.554688 276.308594 127.234375 273.789062 127.234375 273.789062 C 127.234375 273.789062 133.117188 272.949219 133.117188 272.949219 C 133.117188 272.949219 134.796875 270.429688 134.796875 270.429688 C 137.914062 268.871094 140.6875 268.75 143.613281 268.75 C 143.613281 268.75 145.292969 264.550781 145.292969 264.550781 C 142.910156 264.550781 141.851562 266.820312 138.992188 265.390625 C 135.9375 263.859375 139.304688 256.152344 129.335938 256.152344 C 128.027344 256.152344 120.097656 256.386719 120.097656 252.792969 C 120.097656 252.792969 118 254.472656 118 254.472656 C 118 254.472656 113.796875 251.953125 113.796875 251.953125 C 110.679688 250.394531 96.28125 246.074219 94.484375 246.074219 C 92.050781 246.074219 83.246094 237.675781 83.144531 237.675781 C 83.144531 242.582031 81.234375 237.675781 79.785156 237.675781 C 74.914062 237.675781 70.027344 241.035156 65.507812 241.035156 C 64.628906 241.035156 62.988281 241.433594 62.988281 240.195312 C 60.859375 240.195312 59.699219 241.035156 58.367188 241.035156 C 57.496094 241.035156 58.445312 237.21875 55.851562 238.515625 C 55.851562 238.515625 54.171875 242.714844 54.171875 242.714844 C 54.171875 242.714844 52.492188 239.355469 52.492188 239.355469 C 51.226562 239.355469 45.269531 241.875 44.929688 241.875 C 44.929688 241.875 42.832031 240.195312 42.832031 240.195312 C 42.832031 250.953125 47.136719 275.3125 57.53125 280.507812 C 65.742188 284.613281 78.933594 280.710938 81.882812 282.1875 C 83.933594 283.210938 100.445312 284.707031 103.300781 284.707031 Z M 103.300781 284.707031 "/>
<path style=" stroke:none;fill-rule:evenodd;fill:rgb(88.627452%,47.058824%,63.137257%);fill-opacity:1;" d="M 215.839844 246.914062 C 215.839844 247.984375 211.640625 248.394531 211.640625 250.695312 C 211.640625 253.910156 225.402344 246.914062 217.9375 246.914062 L 215.839844 246.914062 M 207.441406 278.828125 L 207.441406 281.347656 C 207.441406 281.347656 207.859375 286.386719 207.859375 286.386719 C 207.859375 286.386719 214.578125 281.347656 214.578125 281.347656 C 219.824219 278.726562 229.277344 280.929688 232.636719 274.210938 C 234.371094 270.738281 236.804688 267.550781 238.515625 264.132812 C 239.875 261.414062 235.796875 259.488281 236.835938 257.414062 C 236.835938 257.414062 239.355469 254.890625 239.355469 254.890625 C 239.355469 254.535156 238.414062 251.953125 240.195312 251.953125 C 240.195312 251.953125 236.835938 249.851562 236.835938 249.851562 C 236.835938 249.851562 236.835938 247.335938 236.835938 247.335938 C 235.992188 245.644531 226.113281 241.875 223.398438 241.875 C 221.535156 241.875 219.457031 244.3125 217.9375 243.554688 C 215.777344 242.472656 217.585938 239.597656 217.101562 239.355469 C 217.101562 239.355469 214.578125 240.195312 214.578125 240.195312 C 214.578125 240.195312 210.382812 237.675781 210.382812 237.675781 C 209.691406 237.332031 192.742188 237.675781 191.0625 238.515625 C 190.386719 238.851562 187.769531 246.074219 187.703125 246.074219 C 185.988281 246.074219 178.441406 245.667969 175.945312 246.914062 C 173.386719 248.195312 172.714844 255.3125 170.488281 255.3125 C 170.488281 255.3125 168.808594 257.414062 168.808594 257.414062 C 168.808594 257.414062 169.648438 259.929688 169.648438 259.929688 C 169.648438 259.929688 168.808594 264.132812 168.808594 264.132812 C 170.078125 266.667969 172.886719 268.925781 173.847656 270.851562 C 174.707031 272.570312 173.453125 274.222656 175.945312 275.46875 C 177.59375 276.292969 182.714844 279.667969 184.34375 279.667969 C 185.351562 279.667969 190.929688 278.761719 192.742188 279.667969 C 194.738281 280.664062 199.492188 286.792969 201.984375 285.546875 C 201.984375 285.546875 202.402344 278.828125 202.402344 278.828125 C 199.65625 278.828125 199.042969 274.773438 199.042969 273.789062 C 199.042969 271.523438 202.617188 272.109375 204.082031 272.109375 C 212.125 272.109375 208.28125 275.902344 208.28125 277.988281 C 208.28125 277.988281 207.441406 278.828125 207.441406 278.828125 M 189.804688 249.433594 C 190.800781 249.433594 191.226562 244.898438 193.585938 246.074219 C 196.960938 247.761719 198.375 253.632812 193.585938 253.632812 L 190.644531 251.113281 C 189.257812 251.113281 188.046875 249.433594 189.804688 249.433594 Z M 189.804688 249.433594 "/>
<path style=" stroke:none;fill-rule:nonzero;fill:rgb(1.176471%,75.686276%,17.647059%);fill-opacity:1;" d="M 272.949219 238.515625 L 272.109375 239.355469 C 272.109375 239.355469 272.949219 238.515625 272.949219 238.515625 Z M 272.949219 238.515625 "/>
<path style=" stroke:none;fill-rule:nonzero;fill:rgb(93.333334%,72.941178%,0%);fill-opacity:1;" d="M 189.804688 249.433594 C 190.800781 249.433594 191.226562 244.898438 193.585938 246.074219 C 196.960938 247.761719 198.375 253.632812 193.585938 253.632812 L 190.644531 251.113281 C 190.644531 251.113281 189.804688 249.433594 189.804688 249.433594 Z M 189.804688 249.433594 "/>
<path style=" stroke:none;fill-rule:nonzero;fill:rgb(93.333334%,72.941178%,0%);fill-opacity:1;" d="M 215.839844 246.914062 C 215.839844 247.984375 211.640625 248.394531 211.640625 250.695312 C 211.640625 253.910156 225.402344 246.914062 217.9375 246.914062 Z M 215.839844 246.914062 "/>
<path style=" stroke:none;fill-rule:nonzero;fill:rgb(86.666667%,85.09804%,31.764707%);fill-opacity:1;" d="M 289.746094 251.113281 L 287.648438 248.59375 C 286.300781 247.921875 277.148438 248.53125 277.148438 252.792969 C 277.148438 256.835938 289.746094 252.34375 289.746094 251.113281 Z M 289.746094 251.113281 "/>
<path style=" stroke:none;fill-rule:nonzero;fill:rgb(86.666667%,85.09804%,31.764707%);fill-opacity:1;" d="M 120.097656 252.792969 C 121.964844 252.792969 122.003906 250.789062 123.039062 250.273438 C 125.421875 249.082031 129.335938 254.039062 129.335938 256.152344 C 128.027344 256.152344 120.097656 256.386719 120.097656 252.792969 Z M 120.097656 252.792969 "/>
<path style=" stroke:none;fill-rule:evenodd;fill:rgb(98.039216%,50.196081%,44.705883%);fill-opacity:1;" d="M 128.496094 288.066406 C 128.496094 291.871094 133.078125 288.066406 128.496094 288.066406 M 128.496094 285.546875 C 128.496094 288.746094 133.027344 285.546875 128.496094 285.546875 M 121.777344 285.546875 C 121.777344 288.691406 123.535156 285.546875 121.777344 285.546875 M 103.300781 284.707031 L 104.140625 284.707031 C 106.132812 284.707031 114.21875 283.847656 114.21875 281.347656 C 114.21875 281.347656 115.898438 281.347656 115.898438 281.347656 C 115.898438 281.347656 116.738281 280.507812 116.738281 280.507812 C 116.738281 280.507812 118 277.988281 118 277.988281 C 118 277.988281 120.515625 277.988281 120.515625 277.988281 C 120.515625 277.988281 120.515625 276.308594 120.515625 276.308594 C 120.515625 276.308594 125.554688 276.308594 125.554688 276.308594 C 125.554688 276.308594 127.234375 273.789062 127.234375 273.789062 C 127.234375 273.789062 133.117188 272.949219 133.117188 272.949219 C 133.117188 272.949219 134.796875 270.429688 134.796875 270.429688 C 137.914062 268.871094 140.6875 268.75 143.613281 268.75 C 143.613281 272.449219 150.296875 274.136719 152.011719 277.570312 C 152.011719 277.570312 153.273438 280.507812 153.273438 280.507812 C 155.070312 281.40625 157.539062 281.902344 158.730469 284.289062 C 159.679688 286.183594 157.46875 285.96875 157.050781 286.804688 C 157.050781 286.804688 157.890625 289.328125 157.890625 289.328125 C 157.890625 289.328125 155.371094 291.84375 155.371094 291.84375 C 155.371094 291.84375 154.53125 296.046875 154.53125 296.046875 C 154.210938 296.683594 148.089844 299.824219 145.710938 299.824219 C 145.710938 299.824219 144.03125 297.304688 144.03125 297.304688 C 144.03125 297.304688 140.253906 296.046875 140.253906 296.046875 C 140.253906 296.046875 141.933594 292.6875 141.933594 292.6875 C 141.933594 292.6875 137.3125 293.105469 137.3125 293.105469 C 137.3125 293.105469 133.953125 289.746094 133.953125 289.746094 C 133.953125 289.746094 132.695312 291.007812 132.695312 291.007812 C 132.695312 294.101562 135.160156 297.542969 130.59375 299.824219 C 129.207031 300.519531 127.394531 299.484375 126.398438 298.984375 C 126.398438 298.984375 115.476562 298.984375 115.476562 298.984375 C 113.796875 298.144531 114.835938 293.945312 112.960938 293.945312 C 111.582031 293.945312 104.417969 293.238281 103.300781 291.007812 C 103.300781 291.007812 103.300781 284.707031 103.300781 284.707031 Z M 103.300781 284.707031 "/>
<path style=" stroke:none;fill-rule:evenodd;fill:rgb(98.039216%,50.196081%,44.705883%);fill-opacity:1;" d="M 283.027344 284.707031 C 283.027344 289.238281 286.226562 284.707031 283.027344 284.707031 M 287.226562 275.46875 L 288.066406 275.46875 C 288.066406 275.6875 303.183594 285.054688 303.183594 285.96875 C 303.183594 288.203125 292.851562 297.640625 290.164062 298.984375 C 290.164062 298.984375 285.96875 298.144531 285.96875 298.144531 C 285.96875 298.144531 285.125 299.824219 285.125 299.824219 C 285.125 299.824219 275.890625 298.984375 275.890625 298.984375 C 274.75 299.554688 272.460938 303.570312 270.007812 302.34375 C 270.007812 302.34375 266.230469 300.242188 266.230469 300.242188 C 266.230469 300.242188 264.96875 297.304688 264.96875 297.304688 C 264.96875 297.304688 264.132812 298.984375 264.132812 298.984375 C 262.117188 299.992188 255.886719 298.03125 254.472656 295.203125 C 254.472656 295.203125 254.472656 290.164062 254.472656 290.164062 C 253.5625 288.34375 247.402344 286.671875 248.59375 284.289062 C 251.503906 278.464844 254.550781 286.648438 257.832031 280.085938 C 258.769531 278.210938 255.445312 277.300781 256.152344 275.890625 C 258.585938 271.023438 261.636719 274.195312 264.132812 272.949219 C 268.738281 270.644531 263.800781 268.75 271.269531 268.75 C 272.570312 268.75 274.25 267.910156 275.046875 267.910156 C 278.027344 267.910156 273.40625 270.449219 275.046875 271.269531 C 275.046875 271.269531 278.40625 270.429688 278.40625 270.429688 C 280.628906 271.539062 283.859375 274.628906 286.386719 274.628906 C 286.386719 274.628906 287.226562 275.46875 287.226562 275.46875 Z M 287.226562 275.46875 "/>
<path style=" stroke:none;fill-rule:nonzero;fill:rgb(0.784314%,17.254902%,100%);fill-opacity:1;" d="M 204.921875 283.867188 L 205.761719 283.867188 C 205.761719 283.867188 206.179688 279.667969 206.179688 279.667969 C 206.179688 279.667969 207.441406 281.347656 207.441406 281.347656 C 207.441406 281.347656 207.441406 278.828125 207.441406 278.828125 C 207.441406 278.828125 208.28125 277.988281 208.28125 277.988281 C 208.28125 275.902344 212.125 272.109375 204.082031 272.109375 C 204.082031 273.246094 200.183594 273.789062 199.042969 273.789062 C 199.042969 274.773438 199.65625 278.828125 202.402344 278.828125 C 202.402344 278.828125 203.242188 280.507812 203.242188 280.507812 C 203.242188 280.507812 204.082031 280.507812 204.082031 280.507812 C 205.40625 280.507812 204.921875 282.90625 204.921875 283.867188 Z M 204.921875 283.867188 "/>
<path style=" stroke:none;fill-rule:nonzero;fill:rgb(88.627452%,47.058824%,63.137257%);fill-opacity:1;" d="M 203.242188 280.507812 L 204.082031 280.507812 C 204.082031 287.261719 203.242188 287.261719 203.242188 280.507812 Z M 203.242188 280.507812 "/>
<path style=" stroke:none;fill-rule:nonzero;fill:rgb(88.627452%,47.058824%,63.137257%);fill-opacity:1;" d="M 204.921875 283.867188 L 205.761719 283.867188 C 205.761719 287.464844 204.921875 287.464844 204.921875 283.867188 Z M 204.921875 283.867188 "/>
</g>
</svg>
