<?xml version="1.0" encoding="UTF-8"?>
<svg xmlns="http://www.w3.org/2000/svg" xmlns:xlink="http://www.w3.org/1999/xlink" width="430px" height="430px" viewBox="0 0 430 430" version="1.1">
<g id="surface1">
<rect x="0" y="0" width="430" height="430" style="fill:rgb(0%,0%,0%);fill-opacity:1;stroke:none;"/>
<path style=" stroke:none;fill-rule:evenodd;fill:rgb(52.549022%,100%,35.294119%);fill-opacity:1;" d="M 205.761719 263.710938 C 205.761719 268.386719 207.535156 263.710938 205.761719 263.710938 M 204.082031 246.074219 C 204.082031 249.417969 198.203125 250.664062 198.203125 253.210938 C 198.203125 254.394531 204.367188 259.511719 205.34375 259.511719 C 207.476562 259.511719 209.609375 256.992188 211.21875 256.992188 L 214.160156 253.210938 C 213.050781 250.996094 209.382812 252.058594 208.28125 249.851562 C 207.140625 247.574219 207.21875 246.074219 204.082031 246.074219 M 150.332031 250.273438 C 150.332031 253.480469 156.671875 261.691406 157.890625 264.132812 C 159.597656 267.542969 158.671875 272.410156 160.410156 275.890625 L 162.929688 277.570312 C 166.558594 284.824219 175.410156 286.957031 182.664062 290.585938 C 186.441406 292.472656 196.503906 290.386719 199.460938 288.90625 C 201.054688 288.109375 204.140625 283.6875 206.179688 284.707031 C 208.605469 285.917969 210.027344 290.410156 210.382812 290.585938 C 212.917969 291.855469 221.753906 291.617188 223.820312 290.585938 C 227.113281 288.941406 232.25 290.570312 235.578125 288.90625 C 240.671875 286.359375 250.40625 277.300781 252.792969 272.53125 C 254.082031 269.953125 253.152344 265.933594 254.472656 263.289062 C 255.652344 260.933594 257.832031 258.050781 257.832031 255.3125 C 257.832031 255.3125 256.152344 253.210938 256.152344 253.210938 C 254.773438 250.453125 257.691406 247.050781 256.152344 243.976562 C 255.101562 241.875 253.046875 240.28125 251.953125 238.09375 C 251.53125 237.25 251.769531 234.316406 252.792969 234.316406 C 252.792969 231.382812 237.40625 226.757812 233.476562 226.757812 C 231.632812 226.757812 229.890625 228.4375 228.859375 228.4375 C 227.367188 228.4375 222.675781 225.226562 219.617188 226.757812 C 217.171875 227.980469 215.421875 230.535156 212.898438 231.796875 C 210.496094 233 207.109375 230.914062 205.34375 231.796875 C 204.230469 232.351562 201.808594 233.390625 200.304688 232.636719 C 200.304688 232.636719 195.265625 227.597656 195.265625 227.597656 C 190.617188 225.273438 191.199219 228.082031 185.1875 225.078125 C 181.589844 223.28125 162.089844 226.722656 162.089844 230.117188 C 165.625 230.117188 157.042969 236.433594 156.210938 238.09375 C 156.210938 238.09375 153.691406 243.132812 153.691406 243.132812 C 152.769531 244.976562 154.652344 250.003906 152.429688 251.113281 C 152.429688 251.113281 150.332031 250.273438 150.332031 250.273438 Z M 150.332031 250.273438 "/>
<path style=" stroke:none;fill-rule:nonzero;fill:rgb(52.549022%,100%,35.294119%);fill-opacity:1;" d="M 162.089844 230.117188 C 161.210938 230.117188 159.570312 229.71875 159.570312 230.957031 C 160.449219 230.957031 162.089844 231.355469 162.089844 230.117188 Z M 162.089844 230.117188 "/>
<path style=" stroke:none;fill-rule:nonzero;fill:rgb(98.039216%,50.196081%,44.705883%);fill-opacity:1;" d="M 150.332031 244.394531 L 150.332031 250.273438 C 150.332031 250.273438 152.429688 251.113281 152.429688 251.113281 C 154.652344 250.003906 152.769531 244.976562 153.691406 243.132812 C 153.691406 243.132812 156.210938 238.09375 156.210938 238.09375 C 157.042969 236.433594 165.625 230.117188 162.089844 230.117188 C 162.089844 231.355469 160.449219 230.957031 159.570312 230.957031 C 159.570312 230.957031 158.730469 231.796875 158.730469 231.796875 C 158.730469 231.796875 157.890625 232.636719 157.890625 232.636719 C 157.890625 232.636719 157.050781 233.476562 157.050781 233.476562 C 157.050781 233.476562 156.210938 234.316406 156.210938 234.316406 C 156.210938 234.316406 155.371094 235.15625 155.371094 235.15625 C 155.371094 235.15625 154.53125 235.996094 154.53125 235.996094 C 154.53125 235.996094 152.851562 238.515625 152.851562 238.515625 C 152.851562 238.515625 152.011719 239.355469 152.011719 239.355469 C 152.011719 239.355469 151.171875 242.714844 151.171875 242.714844 C 151.171875 242.714844 150.332031 244.394531 150.332031 244.394531 Z M 150.332031 244.394531 "/>
<path style=" stroke:none;fill-rule:nonzero;fill:rgb(52.549022%,100%,35.294119%);fill-opacity:1;" d="M 159.570312 230.957031 L 158.730469 231.796875 C 158.730469 231.796875 159.570312 230.957031 159.570312 230.957031 Z M 159.570312 230.957031 "/>
<path style=" stroke:none;fill-rule:nonzero;fill:rgb(52.549022%,100%,35.294119%);fill-opacity:1;" d="M 158.730469 231.796875 L 157.890625 232.636719 C 157.890625 232.636719 158.730469 231.796875 158.730469 231.796875 Z M 158.730469 231.796875 "/>
<path style=" stroke:none;fill-rule:nonzero;fill:rgb(52.549022%,100%,35.294119%);fill-opacity:1;" d="M 157.890625 232.636719 L 157.050781 233.476562 C 157.050781 233.476562 157.890625 232.636719 157.890625 232.636719 Z M 157.890625 232.636719 "/>
<path style=" stroke:none;fill-rule:nonzero;fill:rgb(52.549022%,100%,35.294119%);fill-opacity:1;" d="M 157.050781 233.476562 L 156.210938 234.316406 C 156.210938 234.316406 157.050781 233.476562 157.050781 233.476562 Z M 157.050781 233.476562 "/>
<path style=" stroke:none;fill-rule:nonzero;fill:rgb(52.549022%,100%,35.294119%);fill-opacity:1;" d="M 156.210938 234.316406 L 155.371094 235.15625 C 155.371094 235.15625 156.210938 234.316406 156.210938 234.316406 Z M 156.210938 234.316406 "/>
<path style=" stroke:none;fill-rule:nonzero;fill:rgb(98.039216%,50.196081%,44.705883%);fill-opacity:1;" d="M 252.792969 234.316406 C 251.769531 234.316406 251.53125 237.25 251.953125 238.09375 C 253.046875 240.28125 255.101562 241.875 256.152344 243.976562 C 257.691406 247.050781 254.773438 250.453125 256.152344 253.210938 L 257.832031 255.3125 C 259.308594 255.3125 261.191406 246.496094 260.351562 244.8125 C 258.976562 242.0625 258.191406 240.136719 255.734375 237.675781 C 255.734375 237.675781 252.792969 234.316406 252.792969 234.316406 Z M 252.792969 234.316406 "/>
<path style=" stroke:none;fill-rule:nonzero;fill:rgb(52.549022%,100%,35.294119%);fill-opacity:1;" d="M 155.371094 235.15625 L 154.53125 235.996094 C 154.53125 235.996094 155.371094 235.15625 155.371094 235.15625 Z M 155.371094 235.15625 "/>
<path style=" stroke:none;fill-rule:nonzero;fill:rgb(52.549022%,100%,35.294119%);fill-opacity:1;" d="M 152.851562 238.515625 L 152.011719 239.355469 C 152.011719 239.355469 152.851562 238.515625 152.851562 238.515625 Z M 152.851562 238.515625 "/>
<path style=" stroke:none;fill-rule:nonzero;fill:rgb(52.549022%,100%,35.294119%);fill-opacity:1;" d="M 151.171875 242.714844 L 150.332031 244.394531 C 150.332031 244.394531 151.171875 242.714844 151.171875 242.714844 Z M 151.171875 242.714844 "/>
<path style=" stroke:none;fill-rule:evenodd;fill:rgb(92.156863%,34.117648%,100%);fill-opacity:1;" d="M 204.921875 255.3125 C 204.921875 259.894531 208.726562 255.3125 204.921875 255.3125 M 204.082031 246.074219 C 204.082031 249.417969 198.203125 250.664062 198.203125 253.210938 C 198.203125 254.394531 204.367188 259.511719 205.34375 259.511719 C 207.476562 259.511719 209.609375 256.992188 211.21875 256.992188 L 214.160156 253.210938 C 213.050781 250.996094 209.382812 252.058594 208.28125 249.851562 C 207.140625 247.574219 207.21875 246.074219 204.082031 246.074219 Z M 204.082031 246.074219 "/>
<path style=" stroke:none;fill-rule:nonzero;fill:rgb(15.294118%,95.686275%,99.215686%);fill-opacity:1;" d="M 204.921875 255.3125 C 204.921875 259.894531 208.726562 255.3125 204.921875 255.3125 Z M 204.921875 255.3125 "/>
<path style=" stroke:none;fill-rule:nonzero;fill:rgb(44.705883%,3.529412%,83.137256%);fill-opacity:1;" d="M 205.761719 263.710938 C 205.761719 268.386719 207.535156 263.710938 205.761719 263.710938 Z M 205.761719 263.710938 "/>
</g>
</svg>
