<?xml version="1.0" encoding="UTF-8"?>
<svg xmlns="http://www.w3.org/2000/svg" xmlns:xlink="http://www.w3.org/1999/xlink" width="430px" height="430px" viewBox="0 0 430 430" version="1.1">
<g id="surface1">
<rect x="0" y="0" width="430" height="430" style="fill:rgb(0%,0%,0%);fill-opacity:1;stroke:none;"/>
<path style=" stroke:none;fill-rule:nonzero;fill:rgb(100%,100%,0%);fill-opacity:1;" d="M 197.363281 171.328125 C 197.363281 174.910156 190.78125 175.382812 194.003906 181.828125 C 196.609375 187.035156 214.144531 180.117188 212.480469 176.789062 C 211.015625 173.855469 207.054688 173.878906 204.921875 171.75 Z M 197.363281 171.328125 "/>
<path style=" stroke:none;fill-rule:evenodd;fill:rgb(60.000002%,32.549021%,100%);fill-opacity:1;" d="M 204.921875 224.238281 C 204.921875 228.3125 198.917969 225.769531 196.945312 226.757812 L 192.324219 233.054688 C 190.308594 237.085938 195.003906 235.898438 195.683594 237.257812 C 196.597656 239.085938 194.125 245.804688 198.625 243.554688 L 205.34375 246.074219 L 214.578125 243.554688 C 224.878906 238.40625 213.328125 224.238281 204.921875 224.238281 M 190.644531 279.667969 L 188.964844 280.085938 L 185.605469 279.25 C 185.605469 276.921875 191.484375 278.070312 191.484375 279.667969 C 196.867188 279.667969 196.808594 270.429688 202.402344 270.429688 C 202.402344 266.21875 202.195312 256.988281 204.082031 253.210938 C 204.082031 253.210938 205.34375 249.433594 205.34375 249.433594 C 210.007812 249.433594 209.121094 264.855469 209.121094 268.75 C 212.523438 268.75 216.679688 279.195312 216.679688 280.085938 C 216.679688 280.085938 218.359375 281.347656 218.359375 281.347656 C 218.359375 281.347656 245.65625 279.667969 245.65625 279.667969 C 245.65625 279.667969 250.695312 274.628906 250.695312 274.628906 C 254.660156 274.628906 259.511719 266.394531 259.511719 262.03125 C 259.511719 262.03125 260.351562 257.832031 260.351562 257.832031 C 257.441406 257.832031 255.726562 257.402344 254.472656 254.890625 C 252.089844 250.125 251.007812 244.601562 248.59375 239.773438 C 245.253906 233.09375 238.113281 229.734375 235.15625 223.820312 C 233.234375 219.972656 241.035156 218.839844 241.035156 215.839844 C 241.035156 215.839844 241.875 212.480469 241.875 212.480469 C 235.472656 212.480469 233.761719 205.828125 228.859375 208.28125 C 225.359375 210.027344 221.484375 210.707031 217.9375 212.480469 C 217.9375 212.480469 212.898438 211.640625 212.898438 211.640625 C 210.683594 212.75 206.058594 216.199219 201.984375 214.160156 C 201.984375 214.160156 199.460938 210.800781 199.460938 210.800781 C 196.851562 209.496094 192.988281 213.441406 191.0625 212.480469 C 188.632812 211.265625 186.183594 209.199219 184.34375 208.28125 C 180.722656 206.46875 172.167969 211.910156 172.167969 212.480469 C 174.90625 212.480469 181.933594 218.304688 178.46875 220.039062 C 177.589844 220.476562 174.582031 214.160156 172.167969 214.160156 C 172.167969 214.160156 172.167969 215 172.167969 215 C 175.316406 215 179.382812 225.347656 178.046875 228.015625 C 176.558594 230.996094 169.257812 229.679688 166.710938 230.957031 C 154.773438 236.925781 160.671875 256.992188 146.132812 256.992188 C 146.132812 259.648438 147.8125 259.097656 147.8125 261.191406 C 147.8125 263.621094 148.769531 262.6875 149.492188 264.132812 C 150.171875 265.492188 148.652344 266.652344 148.652344 267.492188 C 148.652344 271.898438 166.203125 280.257812 170.070312 282.1875 C 170.070312 282.1875 175.527344 280.507812 175.527344 280.507812 C 181.640625 280.507812 186.734375 282.1875 192.324219 282.1875 C 192.324219 280.945312 190.644531 281.527344 190.644531 279.667969 Z M 190.644531 279.667969 "/>
<path style=" stroke:none;fill-rule:nonzero;fill:rgb(98.039216%,50.196081%,44.705883%);fill-opacity:1;" d="M 146.132812 256.992188 C 146.132812 259.648438 147.8125 259.097656 147.8125 261.191406 C 147.8125 261.191406 143.195312 261.191406 143.195312 261.191406 C 140.109375 259.648438 130.367188 241.074219 131.855469 238.09375 C 133.285156 235.238281 134.652344 232.5 136.054688 229.695312 C 140.804688 220.199219 151.476562 214.214844 159.992188 209.960938 C 164.324219 207.792969 169.628906 212.480469 172.167969 212.480469 C 174.90625 212.480469 181.933594 218.304688 178.46875 220.039062 C 177.589844 220.476562 174.582031 214.160156 172.167969 214.160156 C 172.167969 214.160156 171.328125 214.160156 171.328125 214.160156 C 167.09375 214.160156 161.476562 213.417969 156.632812 215.839844 C 153.925781 217.195312 153.359375 220.039062 149.492188 220.039062 C 149.492188 220.039062 148.652344 220.878906 148.652344 220.878906 C 148.652344 220.878906 142.773438 227.179688 142.773438 227.179688 C 139.636719 233.453125 133.074219 248.996094 142.351562 253.632812 C 144.332031 254.621094 143.375 256.992188 146.132812 256.992188 Z M 146.132812 256.992188 "/>
<path style=" stroke:none;fill-rule:nonzero;fill:rgb(98.039216%,50.196081%,44.705883%);fill-opacity:1;" d="M 260.351562 257.832031 L 259.511719 262.03125 C 260.859375 262.03125 263.15625 263.777344 264.96875 262.871094 C 275.890625 257.414062 279.605469 241.328125 274.628906 231.375 C 269.433594 220.988281 260.378906 214.804688 250.695312 209.960938 C 246.917969 208.074219 244.339844 212.480469 241.875 212.480469 C 241.875 212.480469 241.035156 215.839844 241.035156 215.839844 C 241.878906 215.839844 252.09375 215.699219 252.375 215.839844 C 256.058594 217.679688 269.589844 227.089844 269.589844 231.796875 C 269.589844 231.796875 270.429688 232.636719 270.429688 232.636719 C 270.429688 232.636719 272.949219 238.9375 272.949219 238.9375 C 274.222656 241.480469 272.109375 245.554688 272.109375 247.753906 C 272.109375 248.632812 272.507812 250.273438 271.269531 250.273438 C 271.269531 250.273438 271.269531 251.113281 271.269531 251.113281 C 271.269531 251.113281 270.429688 251.953125 270.429688 251.953125 C 270.429688 255.792969 263.449219 257.832031 260.351562 257.832031 Z M 260.351562 257.832031 "/>
<path style=" stroke:none;fill-rule:nonzero;fill:rgb(35.686275%,94.509804%,100%);fill-opacity:1;" d="M 148.652344 220.878906 L 142.773438 227.179688 C 139.636719 233.453125 133.074219 248.996094 142.351562 253.632812 C 144.332031 254.621094 143.375 256.992188 146.132812 256.992188 C 160.671875 256.992188 154.773438 236.925781 166.710938 230.957031 C 169.257812 229.679688 176.558594 230.996094 178.046875 228.015625 C 179.382812 225.347656 175.316406 215 172.167969 215 C 172.167969 215 171.328125 214.160156 171.328125 214.160156 C 167.09375 214.160156 161.476562 213.417969 156.632812 215.839844 C 153.925781 217.195312 153.359375 220.039062 149.492188 220.039062 C 149.492188 220.039062 148.652344 220.878906 148.652344 220.878906 Z M 148.652344 220.878906 "/>
<path style=" stroke:none;fill-rule:nonzero;fill:rgb(35.686275%,94.509804%,100%);fill-opacity:1;" d="M 270.429688 251.953125 C 270.429688 255.792969 263.449219 257.832031 260.351562 257.832031 C 257.441406 257.832031 255.726562 257.402344 254.472656 254.890625 C 252.089844 250.125 251.007812 244.601562 248.59375 239.773438 C 245.253906 233.09375 238.113281 229.734375 235.15625 223.820312 C 233.234375 219.972656 241.035156 218.839844 241.035156 215.839844 C 241.878906 215.839844 252.09375 215.699219 252.375 215.839844 C 256.058594 217.679688 269.589844 227.089844 269.589844 231.796875 C 269.589844 231.796875 270.429688 232.636719 270.429688 232.636719 C 270.429688 232.636719 272.949219 238.9375 272.949219 238.9375 C 274.222656 241.480469 272.109375 245.554688 272.109375 247.753906 C 270.871094 247.753906 271.269531 249.394531 271.269531 250.273438 C 271.269531 250.273438 271.269531 251.113281 271.269531 251.113281 C 271.269531 251.113281 270.429688 251.953125 270.429688 251.953125 Z M 270.429688 251.953125 "/>
<path style=" stroke:none;fill-rule:evenodd;fill:rgb(92.156863%,34.117648%,100%);fill-opacity:1;" d="M 204.921875 237.675781 L 204.082031 238.9375 C 204.082031 243.714844 210.441406 237.675781 204.921875 237.675781 M 204.921875 224.238281 C 204.921875 228.3125 198.917969 225.769531 196.945312 226.757812 L 192.324219 233.054688 C 190.308594 237.085938 195.003906 235.898438 195.683594 237.257812 C 196.597656 239.085938 194.125 245.804688 198.625 243.554688 L 205.34375 246.074219 L 214.578125 243.554688 C 224.878906 238.40625 213.328125 224.238281 204.921875 224.238281 Z M 204.921875 224.238281 "/>
<path style=" stroke:none;fill-rule:nonzero;fill:rgb(15.294118%,95.686275%,99.215686%);fill-opacity:1;" d="M 204.921875 237.675781 L 204.082031 238.9375 C 204.082031 243.714844 210.441406 237.675781 204.921875 237.675781 Z M 204.921875 237.675781 "/>
<path style=" stroke:none;fill-rule:nonzero;fill:rgb(44.705883%,3.529412%,83.137256%);fill-opacity:1;" d="M 209.121094 268.75 C 208.519531 268.75 202.402344 271.742188 202.402344 270.429688 C 202.402344 266.21875 202.195312 256.988281 204.082031 253.210938 C 204.082031 253.210938 205.34375 249.433594 205.34375 249.433594 C 210.007812 249.433594 209.121094 264.855469 209.121094 268.75 Z M 209.121094 268.75 "/>
<path style=" stroke:none;fill-rule:nonzero;fill:rgb(100%,20.392157%,15.294118%);fill-opacity:1;" d="M 218.359375 281.347656 C 215.195312 281.347656 212.046875 283.019531 208.703125 281.347656 C 205.75 279.871094 205.371094 273.789062 205.34375 273.789062 L 201.984375 280.507812 C 198.734375 282.132812 196.296875 282.1875 192.324219 282.1875 C 192.324219 280.945312 190.644531 281.527344 190.644531 279.667969 C 190.644531 279.667969 191.484375 279.667969 191.484375 279.667969 C 196.867188 279.667969 196.808594 270.429688 202.402344 270.429688 C 202.402344 271.742188 208.519531 268.75 209.121094 268.75 C 212.523438 268.75 216.679688 279.195312 216.679688 280.085938 C 216.679688 280.085938 218.359375 281.347656 218.359375 281.347656 Z M 218.359375 281.347656 "/>
<path style=" stroke:none;fill-rule:nonzero;fill:rgb(0%,96.470588%,5.490196%);fill-opacity:1;" d="M 190.644531 279.667969 L 191.484375 279.667969 C 191.484375 278.070312 185.605469 276.921875 185.605469 279.25 C 185.605469 279.25 188.964844 280.085938 188.964844 280.085938 C 188.964844 280.085938 190.644531 279.667969 190.644531 279.667969 Z M 190.644531 279.667969 "/>
</g>
</svg>
