<?xml version="1.0" encoding="UTF-8"?>
<svg xmlns="http://www.w3.org/2000/svg" xmlns:xlink="http://www.w3.org/1999/xlink" width="430px" height="430px" viewBox="0 0 430 430" version="1.1">
<g id="surface1">
<rect x="0" y="0" width="430" height="430" style="fill:rgb(0%,0%,0%);fill-opacity:1;stroke:none;"/>
<path style=" stroke:none;fill-rule:evenodd;fill:rgb(52.549022%,100%,35.294119%);fill-opacity:1;" d="M 201.5625 309.0625 C 201.5625 310.796875 202.402344 312.1875 202.402344 312.84375 L 200.722656 314.523438 C 200.722656 317.152344 204.875 320.214844 208.703125 318.300781 C 210.167969 317.566406 209.210938 310.578125 207.859375 309.902344 L 205.34375 310.742188 C 204.398438 310.742188 203.195312 309.0625 201.5625 309.0625 M 199.042969 277.148438 C 199.042969 278.605469 193.574219 277.988281 192.324219 277.988281 L 188.546875 280.507812 C 185.8125 281.875 182.035156 281.664062 179.304688 283.027344 C 177.394531 283.984375 176.367188 286.722656 176.367188 287.648438 L 171.328125 291.84375 C 171.328125 292.785156 165.972656 313.476562 164.609375 316.203125 C 163.402344 318.609375 166.21875 322.78125 167.128906 324.601562 L 167.128906 332.15625 C 172.636719 343.175781 182.507812 352.734375 195.683594 352.734375 L 201.140625 352.734375 C 203.871094 351.371094 204.6875 348.023438 205.34375 347.695312 C 207.023438 346.855469 211.183594 351.875 212.898438 352.734375 C 218.761719 355.664062 235.269531 347.050781 236.835938 343.914062 C 238.050781 341.484375 240.554688 340.675781 241.875 338.039062 C 244.492188 332.800781 248.25 309.636719 245.234375 303.601562 L 241.875 298.5625 C 238.933594 292.679688 238.226562 285.613281 231.375 282.1875 C 221.941406 277.46875 210.46875 277.148438 199.042969 277.148438 Z M 199.042969 277.148438 "/>
<path style=" stroke:none;fill-rule:nonzero;fill:rgb(92.156863%,34.117648%,100%);fill-opacity:1;" d="M 201.5625 309.0625 C 201.5625 310.796875 202.402344 312.1875 202.402344 312.84375 L 200.722656 314.523438 C 200.722656 317.152344 204.875 320.214844 208.703125 318.300781 C 210.167969 317.566406 209.210938 310.578125 207.859375 309.902344 L 205.34375 310.742188 C 204.398438 310.742188 203.195312 309.0625 201.5625 309.0625 Z M 201.5625 309.0625 "/>
</g>
</svg>
