<?xml version="1.0" encoding="UTF-8"?>
<svg xmlns="http://www.w3.org/2000/svg" xmlns:xlink="http://www.w3.org/1999/xlink" width="430px" height="430px" viewBox="0 0 430 430" version="1.1">
<g id="surface1">
<rect x="0" y="0" width="430" height="430" style="fill:rgb(0%,0%,0%);fill-opacity:1;stroke:none;"/>
<path style=" stroke:none;fill-rule:evenodd;fill:rgb(52.549022%,100%,35.294119%);fill-opacity:1;" d="M 207.441406 305.703125 C 207.441406 307.558594 203.09375 305.988281 201.984375 306.542969 C 198.402344 308.332031 203.578125 314.480469 206.179688 315.78125 C 210.109375 317.742188 210.390625 305.703125 207.441406 305.703125 M 202.402344 272.949219 L 197.78125 275.46875 C 190.820312 275.46875 185.03125 277.644531 179.304688 280.507812 C 176.359375 281.980469 175.527344 282.800781 175.527344 285.125 C 175.527344 285.800781 172.253906 286.636719 171.328125 288.484375 C 168.839844 293.464844 167.976562 299.390625 165.449219 304.445312 C 163.3125 308.71875 165.328125 320.996094 167.128906 324.601562 L 167.128906 330.476562 C 171.816406 339.851562 180.296875 345.25 190.226562 350.214844 C 192.550781 351.378906 200.066406 350.335938 201.984375 349.375 C 203.753906 348.492188 204.902344 344.117188 207.023438 345.175781 L 211.21875 349.375 C 216.652344 352.089844 222.847656 350.28125 228.015625 347.695312 C 236.359375 343.523438 241.339844 334.066406 245.234375 326.28125 L 244.394531 322.078125 L 246.074219 321.242188 C 247.699219 317.988281 245.992188 305.957031 244.394531 302.765625 C 241.949219 297.871094 241.523438 285.164062 235.578125 282.1875 C 227.398438 278.097656 212.207031 272.949219 202.402344 272.949219 Z M 202.402344 272.949219 "/>
<path style=" stroke:none;fill-rule:nonzero;fill:rgb(92.156863%,34.117648%,100%);fill-opacity:1;" d="M 207.441406 305.703125 C 207.441406 307.558594 203.09375 305.988281 201.984375 306.542969 C 198.402344 308.332031 203.578125 314.480469 206.179688 315.78125 C 210.109375 317.742188 210.390625 305.703125 207.441406 305.703125 Z M 207.441406 305.703125 "/>
</g>
</svg>
