<?xml version="1.0" encoding="UTF-8"?>
<svg xmlns="http://www.w3.org/2000/svg" xmlns:xlink="http://www.w3.org/1999/xlink" width="430px" height="430px" viewBox="0 0 430 430" version="1.1">
<g id="surface1">
<rect x="0" y="0" width="430" height="430" style="fill:rgb(0%,0%,0%);fill-opacity:1;stroke:none;"/>
<path style=" stroke:none;fill-rule:nonzero;fill:rgb(1.176471%,75.686276%,17.647059%);fill-opacity:1;" d="M 122.617188 220.878906 L 121.777344 221.71875 C 105.820312 221.71875 103.289062 212.039062 97.421875 200.304688 C 97.421875 200.304688 93.222656 196.945312 93.222656 196.945312 C 93.222656 196.945312 92.382812 190.226562 92.382812 190.226562 C 92.382812 190.226562 89.023438 186.023438 89.023438 186.023438 C 85.320312 178.621094 82.851562 156.378906 86.503906 149.070312 C 86.503906 149.070312 86.503906 143.195312 86.503906 143.195312 C 88.058594 140.085938 90.007812 137.027344 91.542969 133.953125 C 91.542969 133.953125 94.0625 133.117188 94.0625 133.117188 C 94.0625 133.117188 102.039062 121.777344 102.039062 121.777344 C 102.039062 121.777344 108.757812 115.058594 108.757812 115.058594 C 114.179688 112.347656 119.265625 108.546875 124.71875 105.820312 C 137.414062 99.472656 152.316406 97.902344 165.03125 91.542969 C 165.03125 91.542969 170.90625 91.542969 170.90625 91.542969 C 177.960938 88.015625 191.265625 95.84375 197.78125 99.101562 C 197.78125 99.101562 201.984375 105.820312 201.984375 105.820312 C 205.539062 107.597656 210.65625 96.445312 213.742188 94.902344 C 219.363281 92.089844 225.777344 90.984375 231.375 88.183594 C 234.195312 86.773438 240.148438 88.789062 242.296875 89.863281 C 246.1875 91.808594 251.90625 90.46875 255.734375 92.382812 C 255.734375 92.382812 268.328125 98.261719 268.328125 98.261719 C 268.328125 98.261719 272.53125 98.261719 272.53125 98.261719 C 276.535156 100.265625 280.253906 102.125 284.289062 104.140625 C 284.289062 104.140625 287.648438 104.140625 287.648438 104.140625 C 293.464844 107.050781 312.207031 119.246094 314.941406 124.71875 C 314.941406 124.71875 317.460938 131.4375 317.460938 131.4375 C 319.097656 134.710938 321.753906 135.820312 323.339844 138.992188 C 326.382812 145.082031 325.019531 154.835938 325.019531 162.089844 C 325.019531 170.273438 324.75 171.445312 321.660156 177.625 C 320.746094 179.453125 322.863281 182.777344 321.660156 185.1875 C 321.660156 185.1875 319.140625 187.703125 319.140625 187.703125 C 319.140625 187.703125 319.140625 192.742188 319.140625 192.742188 C 319.140625 192.742188 314.101562 205.34375 314.101562 205.34375 C 312.859375 207.820312 309.136719 206.871094 308.222656 208.703125 C 304.367188 216.410156 299.710938 219.199219 290.585938 219.199219 C 285.179688 219.199219 284.039062 211.9375 280.085938 209.960938 C 273.5 206.667969 266.53125 203.601562 259.09375 199.882812 C 256.464844 198.570312 255.023438 194.003906 251.53125 194.003906 C 245.242188 194.003906 233.644531 205.46875 226.335938 209.121094 C 226.335938 209.121094 220.878906 214.160156 220.878906 214.160156 C 219.882812 214.160156 216.519531 211.351562 215.421875 210.800781 C 215.421875 210.800781 209.121094 212.480469 209.121094 212.480469 C 206.6875 212.480469 206.472656 208.28125 204.5 208.28125 C 204.5 208.28125 201.5625 209.960938 201.5625 209.960938 C 195.125 209.960938 189.292969 209.121094 183.085938 209.121094 C 181.179688 209.121094 164.789062 197.664062 160.828125 195.683594 C 160.828125 195.683594 154.109375 199.042969 154.109375 199.042969 C 152.398438 199.898438 150.007812 199.835938 148.234375 200.722656 C 144.535156 202.570312 130.058594 213.972656 128.496094 217.101562 C 128.496094 217.101562 122.617188 220.878906 122.617188 220.878906 Z M 122.617188 220.878906 "/>
<path style=" stroke:none;fill-rule:evenodd;fill:rgb(100%,52.941179%,0%);fill-opacity:1;" d="M 240.195312 216.679688 C 240.195312 220.617188 232.273438 223.09375 235.15625 228.859375 C 236.347656 231.238281 239.941406 228.101562 242.296875 229.277344 L 243.976562 230.957031 C 246.398438 230.957031 247.386719 225.394531 248.59375 222.976562 L 251.113281 218.78125 L 247.335938 218.359375 C 245.320312 217.351562 243.914062 216.679688 240.195312 216.679688 M 290.585938 219.199219 C 290.585938 222.210938 291.601562 225.984375 289.746094 229.695312 C 288.453125 232.285156 282.503906 233.265625 281.347656 235.578125 C 278.363281 241.546875 269.464844 242.566406 264.132812 245.234375 L 258.25 251.113281 C 252.066406 254.207031 245.050781 255.613281 238.9375 258.671875 C 237.292969 259.492188 235.511719 257.832031 234.316406 257.832031 C 223.808594 257.832031 212.480469 255.023438 212.480469 242.714844 C 218.382812 242.714844 213.320312 237.441406 213.320312 235.578125 C 213.320312 235.578125 216.679688 233.898438 216.679688 233.898438 C 216.679688 233.898438 214.160156 232.21875 214.160156 232.21875 C 214.160156 232.21875 216.679688 230.539062 216.679688 230.539062 C 216.679688 229.542969 215.074219 227.871094 215.839844 226.335938 C 217.097656 223.824219 220.878906 217.238281 220.878906 214.160156 C 220.878906 214.160156 226.335938 209.121094 226.335938 209.121094 C 233.644531 205.46875 245.242188 194.003906 251.53125 194.003906 C 255.023438 194.003906 256.464844 198.570312 259.09375 199.882812 C 266.53125 203.601562 273.5 206.667969 280.085938 209.960938 C 284.039062 211.9375 285.179688 219.199219 290.585938 219.199219 Z M 290.585938 219.199219 "/>
<path style=" stroke:none;fill-rule:evenodd;fill:rgb(100%,52.941179%,0%);fill-opacity:1;" d="M 165.449219 216.679688 C 165.449219 217.882812 159.570312 219.300781 159.570312 219.617188 C 159.570312 222.886719 162.679688 224.742188 165.03125 225.917969 C 167.628906 227.21875 163.015625 229.277344 172.585938 229.277344 C 174.394531 229.277344 178.070312 222.359375 175.109375 220.878906 C 173.300781 219.976562 170.933594 220.050781 169.226562 219.199219 C 167.523438 218.347656 167.320312 216.679688 165.449219 216.679688 M 121.777344 221.71875 C 121.777344 223.757812 117.160156 226.339844 118.417969 228.859375 C 119.316406 230.660156 130.828125 241.148438 132.273438 241.875 L 138.15625 242.714844 L 141.515625 246.914062 C 143.984375 248.148438 147.40625 248.179688 149.914062 249.433594 C 155.84375 252.398438 160.804688 256.558594 166.710938 259.511719 C 168.4375 260.375 172.097656 259.335938 173.429688 258.671875 L 184.34375 257.832031 L 191.0625 255.3125 L 194.421875 251.113281 C 196.425781 250.113281 199.042969 248.171875 199.042969 245.234375 C 199.042969 243.890625 201.609375 243.230469 200.722656 241.453125 C 196.914062 233.839844 197.6875 226.144531 193.164062 217.101562 C 192.980469 216.730469 183.085938 210.40625 183.085938 209.121094 C 181.179688 209.121094 164.789062 197.664062 160.828125 195.683594 C 160.828125 195.683594 154.109375 199.042969 154.109375 199.042969 C 152.398438 199.898438 150.007812 199.835938 148.234375 200.722656 C 144.535156 202.570312 130.058594 213.972656 128.496094 217.101562 C 128.496094 217.101562 122.617188 220.878906 122.617188 220.878906 C 122.617188 220.878906 121.777344 221.71875 121.777344 221.71875 Z M 121.777344 221.71875 "/>
<path style=" stroke:none;fill-rule:nonzero;fill:rgb(88.235295%,94.117647%,5.098039%);fill-opacity:1;" d="M 212.480469 242.714844 L 205.34375 239.355469 C 204.796875 239.355469 203.332031 245.234375 199.042969 245.234375 C 199.042969 243.890625 201.609375 243.230469 200.722656 241.453125 C 196.914062 233.839844 197.6875 226.144531 193.164062 217.101562 C 192.980469 216.730469 183.085938 210.40625 183.085938 209.121094 C 189.292969 209.121094 195.125 209.960938 201.5625 209.960938 C 201.5625 209.960938 204.921875 213.742188 204.921875 213.742188 C 205.503906 214.902344 207.441406 221.253906 207.441406 215.839844 C 207.441406 215.839844 209.121094 212.480469 209.121094 212.480469 C 209.121094 212.480469 215.421875 210.800781 215.421875 210.800781 C 216.519531 211.351562 219.882812 214.160156 220.878906 214.160156 C 220.878906 217.238281 217.097656 223.824219 215.839844 226.335938 C 215.074219 227.871094 216.679688 229.542969 216.679688 230.539062 C 216.679688 230.539062 214.160156 232.21875 214.160156 232.21875 C 214.160156 232.21875 216.679688 233.898438 216.679688 233.898438 C 216.679688 233.898438 213.320312 235.578125 213.320312 235.578125 C 213.320312 237.441406 218.382812 242.714844 212.480469 242.714844 Z M 212.480469 242.714844 "/>
<path style=" stroke:none;fill-rule:nonzero;fill:rgb(100%,30.980393%,80.784315%);fill-opacity:1;" d="M 165.449219 216.679688 C 165.449219 217.882812 159.570312 219.300781 159.570312 219.617188 C 159.570312 222.886719 162.679688 224.742188 165.03125 225.917969 C 167.628906 227.21875 163.015625 229.277344 172.585938 229.277344 C 174.394531 229.277344 178.070312 222.359375 175.109375 220.878906 C 173.300781 219.976562 170.933594 220.050781 169.226562 219.199219 C 167.523438 218.347656 167.320312 216.679688 165.449219 216.679688 Z M 165.449219 216.679688 "/>
<path style=" stroke:none;fill-rule:evenodd;fill:rgb(100%,30.980393%,80.784315%);fill-opacity:1;" d="M 242.714844 227.597656 C 242.714844 230.742188 244.472656 227.597656 242.714844 227.597656 M 240.195312 216.679688 C 240.195312 220.617188 232.273438 223.09375 235.15625 228.859375 C 236.347656 231.238281 239.941406 228.101562 242.296875 229.277344 L 243.976562 230.957031 C 246.398438 230.957031 247.386719 225.394531 248.59375 222.976562 L 251.113281 218.78125 L 247.335938 218.359375 C 245.320312 217.351562 243.914062 216.679688 240.195312 216.679688 Z M 240.195312 216.679688 "/>
<path style=" stroke:none;fill-rule:nonzero;fill:rgb(100%,52.941179%,0%);fill-opacity:1;" d="M 242.714844 227.597656 C 242.714844 230.742188 244.472656 227.597656 242.714844 227.597656 Z M 242.714844 227.597656 "/>
<path style=" stroke:none;fill-rule:nonzero;fill:rgb(18.82353%,85.490197%,0%);fill-opacity:1;" d="M 192.324219 260.351562 L 185.605469 264.132812 C 182.085938 271.171875 200.722656 272.929688 200.722656 264.96875 C 200.722656 262.359375 197.984375 262.855469 197.363281 261.609375 C 196.601562 260.085938 194.617188 260.351562 192.324219 260.351562 Z M 192.324219 260.351562 "/>
<path style=" stroke:none;fill-rule:nonzero;fill:rgb(18.82353%,85.490197%,0%);fill-opacity:1;" d="M 221.71875 260.351562 C 221.71875 261.175781 215.246094 263.644531 214.160156 265.8125 C 211.019531 272.089844 224.878906 272.929688 226.757812 269.171875 L 229.277344 266.648438 L 227.179688 262.871094 L 225.917969 263.289062 C 224.773438 261 224.390625 260.351562 221.71875 260.351562 Z M 221.71875 260.351562 "/>
<path style=" stroke:none;fill-rule:nonzero;fill:rgb(98.039216%,50.196081%,44.705883%);fill-opacity:1;" d="M 154.53125 268.75 C 154.53125 271.066406 152.335938 278.828125 157.46875 278.828125 C 160.910156 278.828125 164.625 268.75 159.992188 268.75 L 156.632812 270.429688 Z M 154.53125 268.75 "/>
<path style=" stroke:none;fill-rule:nonzero;fill:rgb(98.039216%,50.196081%,44.705883%);fill-opacity:1;" d="M 258.671875 268.75 C 258.671875 270.019531 251.828125 269.757812 253.632812 273.367188 C 254.675781 275.457031 253.949219 277.886719 255.734375 279.667969 C 257.324219 281.257812 260.773438 288.066406 262.453125 288.066406 C 267.734375 288.066406 268.078125 268.75 258.671875 268.75 Z M 258.671875 268.75 "/>
<path style=" stroke:none;fill-rule:nonzero;fill:rgb(98.039216%,50.196081%,44.705883%);fill-opacity:1;" d="M 240.195312 307.382812 C 240.195312 308.199219 236.652344 309.847656 235.996094 311.164062 C 235.550781 312.054688 236.253906 330.992188 236.835938 332.15625 C 238.640625 335.769531 245.394531 333.546875 247.335938 332.578125 C 249.480469 331.503906 251.34375 335.894531 252.792969 333 C 253.785156 331.015625 253.273438 325.019531 256.570312 325.019531 C 260.113281 325.019531 262.664062 333.410156 266.230469 326.28125 C 268.46875 321.804688 264.441406 313.417969 260.773438 311.582031 C 258.476562 310.433594 253.679688 316.292969 253.632812 316.203125 L 252.792969 312.84375 C 252.617188 312.492188 241.144531 307.382812 240.195312 307.382812 Z M 240.195312 307.382812 "/>
<path style=" stroke:none;fill-rule:nonzero;fill:rgb(98.039216%,50.196081%,44.705883%);fill-opacity:1;" d="M 174.6875 312.421875 C 174.6875 315.304688 166.78125 312.804688 165.867188 313.261719 L 161.671875 316.621094 C 158.1875 318.363281 154.195312 314.898438 150.75 316.621094 C 147.566406 318.214844 144.726562 326.824219 146.132812 329.640625 C 148.023438 333.417969 154.074219 330.898438 155.789062 330.898438 L 159.148438 327.539062 C 167.277344 331.605469 159.6875 334.257812 171.75 334.257812 C 175.0625 334.257812 174.882812 338.988281 179.304688 336.777344 C 184.734375 334.0625 178.515625 329.539062 179.726562 327.117188 C 182.523438 321.523438 183.261719 312.421875 174.6875 312.421875 Z M 174.6875 312.421875 "/>
</g>
</svg>
