<?xml version="1.0" encoding="UTF-8"?>
<svg xmlns="http://www.w3.org/2000/svg" xmlns:xlink="http://www.w3.org/1999/xlink" width="430px" height="430px" viewBox="0 0 430 430" version="1.1">
<g id="surface1">
<rect x="0" y="0" width="430" height="430" style="fill:rgb(0%,0%,0%);fill-opacity:1;stroke:none;"/>
<path style=" stroke:none;fill-rule:nonzero;fill:rgb(1.176471%,75.686276%,17.647059%);fill-opacity:1;" d="M 121.777344 287.226562 C 118.734375 287.226562 115.582031 290.953125 112.960938 292.265625 L 107.078125 291.425781 C 100.605469 294.664062 83.703125 297.792969 77.6875 294.785156 L 74.328125 290.585938 C 60.839844 283.84375 54.933594 260.621094 48.710938 248.171875 C 46.851562 244.453125 47.246094 239.367188 45.351562 235.578125 C 44.113281 233.101562 51.230469 230.460938 51.230469 228.015625 C 51.230469 226.066406 45.65625 224.179688 44.09375 223.398438 C 40.78125 221.742188 43.144531 219.402344 41.992188 217.101562 L 37.792969 211.21875 L 39.472656 206.179688 C 37.109375 201.453125 35.273438 198.792969 35.273438 193.585938 C 35.273438 191.171875 38.910156 185.738281 37.792969 183.507812 C 35.289062 178.496094 38.632812 171.886719 38.632812 167.546875 L 36.953125 165.867188 L 38.632812 165.03125 C 39.398438 163.496094 37.792969 161.824219 37.792969 160.828125 L 39.472656 159.992188 C 39.472656 147.78125 43.152344 139.191406 48.710938 128.078125 C 51.757812 121.984375 60.269531 115.035156 62.988281 109.601562 L 63.828125 106.242188 L 72.226562 99.523438 L 74.328125 95.742188 C 79.503906 93.152344 78.910156 90.511719 80.203125 89.863281 C 81.972656 88.980469 84.78125 88.414062 86.921875 87.34375 L 89.445312 83.984375 L 92.804688 83.984375 C 97.402344 81.683594 103.59375 79.007812 108.757812 76.425781 L 112.960938 76.425781 L 114.640625 73.90625 C 115.851562 73.90625 120.300781 74.855469 122.195312 73.90625 C 124.710938 72.648438 125.273438 71.109375 128.078125 69.707031 C 128.792969 69.347656 133.90625 71.386719 134.796875 71.386719 L 137.3125 69.707031 C 138.851562 68.9375 142.550781 70.546875 144.03125 70.546875 C 146.824219 70.546875 150.027344 68.390625 152.429688 67.1875 C 157.457031 64.675781 165.625 67.730469 171.75 64.667969 C 176.601562 62.242188 191.382812 68.605469 195.265625 70.546875 C 196.917969 71.375 197.765625 77.273438 201.140625 75.585938 L 202.820312 72.226562 C 206.488281 70.394531 210.011719 68.210938 213.742188 66.347656 C 221.648438 62.394531 233.222656 62.988281 242.296875 62.988281 C 243.695312 62.988281 263.800781 66.601562 264.96875 67.1875 L 271.6875 67.1875 C 276.082031 69.382812 285.34375 70.546875 289.328125 70.546875 L 291.84375 73.066406 L 294.367188 72.226562 C 320.011719 85.050781 345.597656 94.488281 359.453125 122.195312 L 365.332031 129.757812 C 366.3125 131.714844 363.144531 136.300781 364.492188 138.992188 C 366.675781 143.359375 370.542969 143.535156 372.890625 148.234375 C 374.839844 152.128906 370.261719 158.9375 371.210938 160.828125 C 372.9375 164.285156 376.386719 194.992188 373.730469 200.304688 C 372.84375 202.074219 370.03125 201.824219 369.53125 202.820312 L 370.371094 206.179688 C 369.796875 207.332031 367.144531 210.644531 367.851562 212.0625 C 368.378906 213.117188 370.257812 214.804688 369.53125 216.257812 C 368.503906 218.3125 364.050781 217.140625 361.972656 221.296875 C 361.175781 222.898438 364.675781 226.703125 365.332031 228.015625 C 366.695312 230.742188 362.8125 234.253906 362.8125 236.414062 C 362.8125 237.253906 364.332031 238.414062 363.652344 239.773438 L 359.453125 244.8125 L 359.453125 249.851562 C 357 254.757812 354.347656 259.226562 351.894531 264.132812 L 351.894531 268.328125 C 349.617188 272.882812 349.109375 278.101562 346.855469 282.609375 C 346.203125 283.910156 329.917969 294.644531 327.960938 295.625 L 322.921875 295.625 C 316.683594 298.742188 311.765625 293.945312 304.863281 293.945312 C 304.863281 285.707031 310.617188 276.980469 314.101562 270.007812 C 314.796875 268.621094 318.625 247.980469 318.300781 247.335938 C 317.914062 246.558594 314.941406 242.808594 314.941406 242.296875 C 314.941406 238.882812 316.832031 238.515625 314.941406 234.734375 C 314.941406 234.734375 316.621094 233.054688 316.621094 233.054688 C 316.621094 233.054688 317.460938 228.015625 317.460938 228.015625 C 317.460938 228.015625 319.980469 224.238281 319.980469 224.238281 C 332.417969 224.238281 333.417969 206.34375 333.417969 199.042969 C 333.417969 199.042969 334.257812 199.042969 334.257812 199.042969 C 334.257812 202.296875 335.097656 198.976562 335.097656 197.363281 C 336.539062 197.363281 335.9375 192.664062 335.9375 191.484375 C 335.9375 191.484375 335.9375 190.644531 335.9375 190.644531 C 335.9375 189.765625 336.335938 188.125 335.097656 188.125 C 335.097656 188.125 334.257812 184.765625 334.257812 184.765625 C 335.253906 184.765625 335.253906 183.925781 334.257812 183.925781 C 334.257812 180.492188 333.910156 172.726562 332.578125 170.070312 C 331.898438 168.707031 330.898438 168.832031 330.898438 167.128906 C 330.898438 167.128906 329.640625 160.410156 329.640625 160.410156 C 329.640625 160.410156 328.796875 162.929688 328.796875 162.929688 C 326.703125 162.929688 326.972656 153.816406 326.699219 153.273438 C 324.027344 147.929688 319.808594 141.171875 316.621094 134.796875 C 313.128906 127.808594 291.347656 111.03125 282.609375 106.660156 C 276.941406 103.828125 271.355469 103.554688 265.8125 100.78125 C 265.8125 100.78125 261.609375 100.78125 261.609375 100.78125 C 257.085938 98.519531 231.125 94.1875 228.015625 95.742188 C 226.148438 96.675781 222.796875 96.527344 221.71875 98.679688 C 221.71875 98.679688 220.878906 106.242188 220.878906 106.242188 C 220.878906 106.242188 212.0625 116.738281 212.0625 116.738281 C 208.617188 118.460938 199.050781 118.417969 195.265625 118.417969 C 191.753906 118.417969 182.929688 106.769531 181.40625 103.71875 C 180.9375 102.78125 178.878906 95.742188 177.625 95.742188 C 177.34375 95.742188 171.503906 99.941406 169.226562 99.941406 C 155.800781 99.941406 137.753906 103.082031 125.554688 109.179688 C 125.554688 109.179688 121.359375 112.539062 121.359375 112.539062 C 116.917969 114.757812 111.4375 116.839844 109.179688 121.359375 C 108.335938 123.046875 103.210938 124.054688 102.460938 125.554688 C 102.460938 125.554688 102.460938 128.078125 102.460938 128.078125 C 101.808594 129.378906 95.851562 132.902344 94.902344 134.796875 C 93.445312 137.710938 92.960938 141.195312 91.542969 144.03125 C 87.910156 151.296875 82.304688 157.511719 82.304688 166.289062 C 80.023438 166.289062 79.785156 167.679688 79.785156 169.648438 C 79.785156 174.730469 75.585938 181.308594 75.585938 188.964844 C 72.953125 188.964844 73.519531 216.679688 78.105469 216.679688 C 78.105469 219.550781 85.851562 226.640625 87.765625 227.597656 C 88.890625 228.160156 93.222656 228.054688 93.222656 226.757812 C 94.871094 226.757812 95.15625 231.878906 95.742188 233.054688 C 96.648438 234.875 98.582031 235.375 99.101562 236.414062 C 99.101562 236.414062 97.421875 241.453125 97.421875 241.453125 C 97.421875 241.453125 100.78125 251.53125 100.78125 251.53125 C 100.78125 251.53125 107.5 258.25 107.5 258.25 C 110.003906 263.257812 112.527344 268.308594 115.058594 273.367188 C 115.058594 273.367188 115.058594 278.40625 115.058594 278.40625 C 116.632812 281.558594 121.777344 283.488281 121.777344 287.226562 Z M 121.777344 287.226562 "/>
<path style=" stroke:none;fill-rule:evenodd;fill:rgb(100%,43.137255%,0%);fill-opacity:1;" d="M 292.265625 120.9375 L 296.882812 125.136719 C 298.097656 125.136719 294.101562 120.9375 292.265625 120.9375 M 335.097656 197.363281 C 335.097656 198.976562 334.257812 202.296875 334.257812 199.042969 C 334.257812 199.042969 333.417969 197.363281 333.417969 197.363281 C 333.417969 186.074219 330.578125 177.824219 325.859375 168.390625 C 324.949219 166.566406 322.667969 157.890625 320.820312 157.890625 C 320.820312 157.890625 319.140625 156.210938 319.140625 156.210938 C 319.140625 154.667969 313.488281 147.8125 312.421875 147.8125 C 312.421875 147.8125 310.742188 144.453125 310.742188 144.453125 C 310.742188 144.453125 311.582031 141.515625 311.582031 141.515625 C 311.582031 140.628906 309.0625 139.355469 309.0625 141.09375 C 305.933594 141.09375 304.40625 127.65625 298.984375 127.65625 C 297.785156 127.65625 286.382812 118.207031 283.445312 116.738281 C 283.445312 116.738281 278.828125 113.378906 278.828125 113.378906 C 287.738281 113.378906 274.628906 109.09375 274.628906 110.4375 C 274.628906 110.4375 277.988281 113.378906 277.988281 113.378906 C 273.441406 113.378906 266.542969 106.660156 260.351562 106.660156 C 260.351562 106.660156 259.511719 105.820312 259.511719 105.820312 C 256.839844 105.820312 243.476562 103.96875 241.453125 104.980469 C 241.453125 104.980469 234.316406 107.5 234.316406 107.5 C 234.316406 107.5 233.476562 108.339844 233.476562 108.339844 C 233.476562 108.339844 232.636719 109.179688 232.636719 109.179688 C 232.636719 109.179688 227.597656 113.378906 227.597656 113.378906 C 227.597656 113.378906 226.757812 114.21875 226.757812 114.21875 C 226.757812 114.21875 225.917969 115.058594 225.917969 115.058594 C 225.917969 117.710938 220.878906 118.96875 220.878906 120.9375 C 220.878906 120.9375 219.199219 121.777344 219.199219 121.777344 C 219.199219 121.777344 218.359375 122.617188 218.359375 122.617188 C 218.359375 122.617188 217.519531 123.457031 217.519531 123.457031 C 217.519531 123.457031 216.679688 124.296875 216.679688 124.296875 C 216.679688 124.296875 215.839844 125.976562 215.839844 125.976562 C 215.839844 125.976562 215 126.816406 215 126.816406 C 212.035156 126.816406 208.371094 127.65625 204.921875 127.65625 C 204.921875 127.65625 200.722656 127.65625 200.722656 127.65625 C 200.722656 127.65625 199.042969 127.65625 199.042969 127.65625 C 199.042969 127.65625 198.203125 128.496094 198.203125 128.496094 C 198.203125 128.496094 191.0625 128.496094 191.0625 128.496094 C 191.0625 128.496094 186.023438 122.617188 186.023438 122.617188 C 179.792969 119.5 174.859375 111.992188 167.546875 108.339844 C 156.304688 102.71875 140.660156 113.378906 131.015625 113.378906 C 128.175781 113.378906 118.113281 119.257812 123.457031 119.257812 C 123.457031 119.4375 117.152344 125.136719 115.898438 125.136719 C 113.382812 125.136719 110.273438 129.335938 111.699219 129.335938 C 111.699219 129.335938 111.699219 130.175781 111.699219 130.175781 C 106.71875 130.175781 108.339844 132.199219 108.339844 135.214844 C 108.339844 135.214844 107.5 136.054688 107.5 136.054688 C 107.5 136.054688 106.660156 136.054688 106.660156 136.054688 C 103.820312 136.054688 105.820312 137.183594 105.820312 138.574219 C 104.332031 138.574219 100.78125 144.742188 100.78125 146.132812 C 100.78125 146.132812 98.261719 150.332031 98.261719 150.332031 C 98.261719 155.230469 89.023438 158.757812 89.023438 163.769531 C 86.015625 163.769531 84.976562 173.964844 83.984375 175.945312 C 83.144531 177.628906 81.210938 178.96875 80.625 180.148438 C 80.625 180.148438 80.625 184.34375 80.625 184.34375 C 79.265625 187.0625 77.265625 186.066406 77.265625 188.125 C 77.265625 188.878906 75.585938 190.667969 75.585938 188.964844 C 75.585938 181.308594 79.785156 174.730469 79.785156 169.648438 C 79.785156 169.648438 82.304688 166.289062 82.304688 166.289062 C 82.304688 157.511719 87.910156 151.296875 91.542969 144.03125 C 92.960938 141.195312 93.445312 137.710938 94.902344 134.796875 C 95.851562 132.902344 101.808594 129.378906 102.460938 128.078125 C 102.460938 128.078125 102.460938 125.554688 102.460938 125.554688 C 103.210938 124.054688 108.335938 123.046875 109.179688 121.359375 C 111.4375 116.839844 116.917969 114.757812 121.359375 112.539062 C 121.359375 112.539062 125.554688 109.179688 125.554688 109.179688 C 137.753906 103.082031 155.800781 99.941406 169.226562 99.941406 C 171.503906 99.941406 177.34375 95.742188 177.625 95.742188 C 178.878906 95.742188 180.9375 102.78125 181.40625 103.71875 C 182.929688 106.769531 191.753906 118.417969 195.265625 118.417969 C 199.050781 118.417969 208.617188 118.460938 212.0625 116.738281 C 212.0625 116.738281 220.878906 106.242188 220.878906 106.242188 C 220.878906 106.242188 221.71875 98.679688 221.71875 98.679688 C 222.796875 96.527344 226.148438 96.675781 228.015625 95.742188 C 231.125 94.1875 257.085938 98.519531 261.609375 100.78125 C 261.609375 100.78125 265.8125 100.78125 265.8125 100.78125 C 271.355469 103.554688 276.941406 103.828125 282.609375 106.660156 C 291.347656 111.03125 313.128906 127.808594 316.621094 134.796875 C 319.808594 141.171875 324.027344 147.929688 326.699219 153.273438 C 326.972656 153.816406 326.703125 162.929688 328.796875 162.929688 C 328.796875 162.929688 329.640625 160.410156 329.640625 160.410156 C 329.640625 160.410156 330.898438 167.128906 330.898438 167.128906 C 330.898438 168.832031 331.898438 168.707031 332.578125 170.070312 C 333.910156 172.726562 334.257812 180.492188 334.257812 183.925781 C 334.257812 183.925781 334.257812 184.765625 334.257812 184.765625 C 334.257812 184.765625 335.097656 188.125 335.097656 188.125 C 335.097656 189.003906 334.699219 190.644531 335.9375 190.644531 C 335.9375 190.644531 335.9375 191.484375 335.9375 191.484375 C 334.496094 191.484375 335.097656 196.183594 335.097656 197.363281 Z M 335.097656 197.363281 "/>
<path style=" stroke:none;fill-rule:nonzero;fill:rgb(5.490196%,27.843139%,88.627452%);fill-opacity:1;" d="M 185.605469 159.570312 L 187.285156 159.570312 C 187.285156 157.757812 192.382812 157.050781 194.003906 157.050781 C 194.003906 157.050781 194.84375 156.210938 194.84375 156.210938 C 195.722656 156.210938 197.363281 156.609375 197.363281 155.371094 C 197.363281 155.371094 198.203125 154.53125 198.203125 154.53125 C 198.203125 152.316406 200.867188 150.609375 202.402344 149.070312 C 202.402344 149.070312 203.664062 146.132812 203.664062 146.132812 C 203.664062 146.132812 205.34375 150.332031 205.34375 150.332031 C 207.398438 151.359375 214.160156 151.03125 214.160156 154.53125 C 214.160156 154.53125 217.519531 157.050781 217.519531 157.050781 C 217.519531 157.050781 219.199219 157.050781 219.199219 157.050781 C 220.027344 157.050781 224.238281 157.964844 224.238281 158.730469 C 224.238281 158.730469 226.757812 158.730469 226.757812 158.730469 C 226.757812 157.40625 229.15625 157.890625 230.117188 157.890625 C 230.117188 157.890625 230.957031 157.050781 230.957031 157.050781 C 230.957031 157.050781 231.796875 157.050781 231.796875 157.050781 C 231.796875 157.050781 232.636719 156.210938 232.636719 156.210938 C 232.636719 156.210938 233.476562 155.371094 233.476562 155.371094 C 233.476562 155.371094 235.15625 154.53125 235.15625 154.53125 C 235.15625 154.53125 235.996094 153.691406 235.996094 153.691406 C 235.996094 153.691406 238.515625 152.851562 238.515625 152.851562 C 238.515625 152.851562 240.195312 152.011719 240.195312 152.011719 C 240.195312 152.011719 243.554688 150.332031 243.554688 150.332031 C 243.554688 149.480469 246.878906 148.652344 247.753906 148.652344 C 247.753906 148.652344 249.433594 148.652344 249.433594 148.652344 C 249.433594 147.414062 251.074219 147.8125 251.953125 147.8125 C 251.953125 146.398438 255.882812 146.972656 256.992188 146.972656 C 256.992188 146.972656 257.832031 146.972656 257.832031 146.972656 C 257.832031 146.972656 260.351562 145.710938 260.351562 145.710938 C 260.351562 142.871094 268.019531 145.292969 271.269531 145.292969 C 278.464844 145.292969 302.34375 148.234375 302.34375 138.574219 C 302.34375 138.574219 302.34375 136.054688 302.34375 136.054688 C 302.34375 136.054688 301.503906 132.695312 301.503906 132.695312 C 301.503906 132.695312 299.824219 130.175781 299.824219 130.175781 C 299.824219 130.175781 298.984375 127.65625 298.984375 127.65625 C 297.785156 127.65625 286.382812 118.207031 283.445312 116.738281 C 283.445312 116.738281 278.828125 113.378906 278.828125 113.378906 C 278.828125 113.378906 277.988281 113.378906 277.988281 113.378906 C 273.441406 113.378906 266.542969 106.660156 260.351562 106.660156 C 260.351562 106.660156 259.511719 105.820312 259.511719 105.820312 C 256.839844 105.820312 243.476562 103.96875 241.453125 104.980469 C 241.453125 104.980469 234.316406 107.5 234.316406 107.5 C 234.316406 107.5 233.476562 108.339844 233.476562 108.339844 C 233.476562 108.339844 232.636719 109.179688 232.636719 109.179688 C 232.636719 109.179688 227.597656 113.378906 227.597656 113.378906 C 227.597656 113.378906 226.757812 114.21875 226.757812 114.21875 C 226.757812 114.21875 225.917969 115.058594 225.917969 115.058594 C 225.917969 117.710938 220.878906 118.96875 220.878906 120.9375 C 220.878906 120.9375 219.199219 121.777344 219.199219 121.777344 C 219.199219 121.777344 218.359375 122.617188 218.359375 122.617188 C 218.359375 122.617188 217.519531 123.457031 217.519531 123.457031 C 217.519531 123.457031 216.679688 124.296875 216.679688 124.296875 C 216.679688 124.296875 215.839844 125.976562 215.839844 125.976562 C 215.839844 125.976562 215 126.816406 215 126.816406 C 212.035156 126.816406 208.371094 127.65625 204.921875 127.65625 C 204.921875 130.371094 200.722656 130.371094 200.722656 127.65625 C 200.722656 127.65625 199.042969 127.65625 199.042969 127.65625 C 199.042969 127.65625 198.203125 128.496094 198.203125 128.496094 C 198.203125 128.496094 191.0625 128.496094 191.0625 128.496094 C 191.0625 128.496094 186.023438 122.617188 186.023438 122.617188 C 179.792969 119.5 174.859375 111.992188 167.546875 108.339844 C 156.304688 102.71875 140.660156 113.378906 131.015625 113.378906 C 131.015625 114.738281 125.226562 119.257812 123.457031 119.257812 C 123.457031 119.4375 117.152344 125.136719 115.898438 125.136719 C 115.898438 125.136719 114.21875 126.816406 114.21875 126.816406 C 114.21875 126.816406 113.378906 127.65625 113.378906 127.65625 C 113.378906 127.65625 111.699219 129.335938 111.699219 129.335938 C 111.699219 129.335938 111.699219 130.175781 111.699219 130.175781 C 111.699219 130.878906 109.457031 135.214844 108.339844 135.214844 C 108.339844 135.214844 107.5 136.054688 107.5 136.054688 C 107.5 136.054688 106.660156 136.054688 106.660156 136.054688 C 106.660156 136.054688 106.660156 136.894531 106.660156 136.894531 C 108.046875 136.894531 109.257812 138.574219 107.5 138.574219 C 107.5 154.675781 132.988281 146.972656 142.773438 146.972656 C 142.773438 146.972656 144.453125 146.972656 144.453125 146.972656 C 145.414062 146.972656 147.8125 146.488281 147.8125 147.8125 C 147.8125 147.8125 150.332031 148.652344 150.332031 148.652344 C 150.332031 148.652344 157.890625 150.332031 157.890625 150.332031 C 158.953125 150.332031 163.285156 151.171875 161.25 151.171875 C 161.25 151.171875 162.089844 152.011719 162.089844 152.011719 C 162.089844 152.011719 163.769531 152.851562 163.769531 152.851562 C 164.648438 152.851562 166.289062 152.453125 166.289062 153.691406 C 166.289062 153.691406 167.128906 154.53125 167.128906 154.53125 C 169.457031 154.53125 173.007812 154.214844 173.007812 157.050781 C 173.007812 157.050781 176.367188 158.730469 176.367188 158.730469 C 178.984375 158.730469 181.484375 159.570312 183.925781 159.570312 C 183.925781 159.570312 185.605469 159.570312 185.605469 159.570312 Z M 185.605469 159.570312 "/>
<path style=" stroke:none;fill-rule:nonzero;fill:rgb(0.784314%,17.254902%,100%);fill-opacity:1;" d="M 277.988281 113.378906 L 278.828125 113.378906 C 287.738281 113.378906 274.628906 109.09375 274.628906 110.4375 C 274.628906 110.4375 277.988281 113.378906 277.988281 113.378906 Z M 277.988281 113.378906 "/>
<path style=" stroke:none;fill-rule:nonzero;fill:rgb(0.784314%,17.254902%,100%);fill-opacity:1;" d="M 131.015625 113.378906 C 128.175781 113.378906 118.113281 119.257812 123.457031 119.257812 C 125.226562 119.257812 131.015625 114.738281 131.015625 113.378906 Z M 131.015625 113.378906 "/>
<path style=" stroke:none;fill-rule:nonzero;fill:rgb(0.784314%,17.254902%,100%);fill-opacity:1;" d="M 292.265625 120.9375 L 296.882812 125.136719 C 298.097656 125.136719 294.101562 120.9375 292.265625 120.9375 Z M 292.265625 120.9375 "/>
<path style=" stroke:none;fill-rule:nonzero;fill:rgb(0.784314%,17.254902%,100%);fill-opacity:1;" d="M 113.378906 127.65625 L 111.699219 129.335938 C 110.273438 129.335938 113.382812 125.136719 115.898438 125.136719 C 115.898438 125.136719 114.21875 126.816406 114.21875 126.816406 C 114.21875 126.816406 113.378906 127.65625 113.378906 127.65625 Z M 113.378906 127.65625 "/>
<path style=" stroke:none;fill-rule:nonzero;fill:rgb(100%,43.137255%,0%);fill-opacity:1;" d="M 114.21875 126.816406 L 113.378906 127.65625 C 113.378906 127.65625 114.21875 126.816406 114.21875 126.816406 Z M 114.21875 126.816406 "/>
<path style=" stroke:none;fill-rule:nonzero;fill:rgb(0.784314%,17.254902%,100%);fill-opacity:1;" d="M 307.382812 164.609375 L 309.902344 165.449219 C 309.902344 159.65625 312.421875 154.539062 312.421875 147.8125 C 312.421875 147.8125 310.742188 144.453125 310.742188 144.453125 C 310.742188 144.453125 309.0625 141.09375 309.0625 141.09375 C 305.933594 141.09375 304.40625 127.65625 298.984375 127.65625 C 298.984375 127.65625 299.824219 130.175781 299.824219 130.175781 C 301.148438 130.175781 301.503906 131.65625 301.503906 132.695312 C 301.503906 132.695312 302.34375 136.054688 302.34375 136.054688 C 303.582031 136.054688 303.183594 137.695312 303.183594 138.574219 C 305.546875 138.574219 307.292969 143.375 306.542969 144.875 C 306.542969 144.875 304.863281 145.710938 304.863281 145.710938 C 304.863281 145.710938 307.382812 151.59375 307.382812 151.59375 C 307.382812 156.96875 307.382812 160.207031 307.382812 164.609375 Z M 307.382812 164.609375 "/>
<path style=" stroke:none;fill-rule:nonzero;fill:rgb(0.784314%,17.254902%,100%);fill-opacity:1;" d="M 111.699219 130.175781 C 106.71875 130.175781 108.339844 132.199219 108.339844 135.214844 C 109.457031 135.214844 111.699219 130.878906 111.699219 130.175781 Z M 111.699219 130.175781 "/>
<path style=" stroke:none;fill-rule:nonzero;fill:rgb(0.784314%,17.254902%,100%);fill-opacity:1;" d="M 108.339844 135.214844 L 107.5 136.054688 C 107.5 136.054688 108.339844 135.214844 108.339844 135.214844 Z M 108.339844 135.214844 "/>
<path style=" stroke:none;fill-rule:nonzero;fill:rgb(0.784314%,17.254902%,100%);fill-opacity:1;" d="M 105.820312 138.574219 L 107.5 138.574219 C 107.5 138.574219 106.660156 136.894531 106.660156 136.894531 C 106.660156 136.894531 106.660156 136.054688 106.660156 136.054688 C 103.820312 136.054688 105.820312 137.183594 105.820312 138.574219 Z M 105.820312 138.574219 "/>
<path style=" stroke:none;fill-rule:nonzero;fill:rgb(0%,100%,11.372549%);fill-opacity:1;" d="M 106.660156 136.894531 C 108.046875 136.894531 109.257812 138.574219 107.5 138.574219 C 107.5 138.574219 106.660156 136.894531 106.660156 136.894531 Z M 106.660156 136.894531 "/>
<path style=" stroke:none;fill-rule:nonzero;fill:rgb(0.784314%,17.254902%,100%);fill-opacity:1;" d="M 104.140625 164.609375 L 100.78125 165.449219 C 96.976562 165.449219 100.78125 162.105469 100.78125 160.410156 C 102.027344 160.410156 102.027344 157.890625 100.78125 157.890625 C 100.78125 155.925781 100.78125 153.253906 100.78125 151.171875 C 100.78125 151.171875 100.78125 146.132812 100.78125 146.132812 C 100.78125 144.742188 104.332031 138.574219 105.820312 138.574219 C 105.820312 141.066406 104.140625 143.105469 104.140625 145.710938 C 104.140625 151.925781 104.140625 156.835938 104.140625 164.609375 Z M 104.140625 164.609375 "/>
<path style=" stroke:none;fill-rule:nonzero;fill:rgb(0%,100%,11.372549%);fill-opacity:1;" d="M 117.578125 170.488281 L 115.058594 171.328125 C 115.058594 169.460938 111.796875 172.007812 110.4375 171.328125 C 109.300781 170.757812 104.140625 166.230469 104.140625 164.609375 C 104.140625 156.835938 104.140625 151.925781 104.140625 145.710938 C 104.140625 143.105469 105.820312 141.066406 105.820312 138.574219 C 105.820312 138.574219 107.5 138.574219 107.5 138.574219 C 107.5 154.675781 132.988281 146.972656 142.773438 146.972656 C 142.773438 146.972656 142.773438 147.8125 142.773438 147.8125 C 142.773438 147.8125 141.09375 148.652344 141.09375 148.652344 C 141.09375 148.652344 140.253906 148.652344 140.253906 148.652344 C 140.253906 148.652344 139.414062 149.492188 139.414062 149.492188 C 135.339844 149.492188 123.457031 151.195312 123.457031 157.050781 C 121.6875 157.050781 121.777344 159.179688 121.777344 160.410156 C 121.777344 160.410156 120.9375 162.929688 120.9375 162.929688 C 119.484375 162.929688 118.417969 167.425781 118.417969 168.808594 C 118.417969 168.808594 117.578125 170.488281 117.578125 170.488281 Z M 117.578125 170.488281 "/>
<path style=" stroke:none;fill-rule:nonzero;fill:rgb(0%,100%,11.372549%);fill-opacity:1;" d="M 292.265625 166.289062 L 293.945312 167.96875 C 298.328125 167.96875 297.90625 165.359375 301.085938 163.769531 C 303.070312 162.777344 305.867188 164.609375 307.382812 164.609375 C 307.382812 160.207031 307.382812 156.96875 307.382812 151.59375 C 307.382812 151.59375 304.863281 145.710938 304.863281 145.710938 C 304.863281 145.710938 306.542969 144.875 306.542969 144.875 C 307.292969 143.375 305.546875 138.574219 303.183594 138.574219 C 303.183594 138.574219 302.34375 138.574219 302.34375 138.574219 C 302.34375 148.234375 278.464844 145.292969 271.269531 145.292969 C 271.269531 145.292969 275.46875 147.8125 275.46875 147.8125 C 280.933594 147.8125 284.867188 148.101562 289.328125 150.332031 C 291.75 151.542969 289.214844 154.53125 288.066406 154.53125 C 288.066406 154.53125 289.746094 157.050781 289.746094 157.050781 C 289.746094 157.050781 290.585938 157.890625 290.585938 157.890625 C 291.761719 157.890625 291.761719 159.570312 290.585938 159.570312 C 290.585938 159.570312 292.265625 166.289062 292.265625 166.289062 Z M 292.265625 166.289062 "/>
<path style=" stroke:none;fill-rule:nonzero;fill:rgb(0.784314%,17.254902%,100%);fill-opacity:1;" d="M 212.480469 154.53125 L 214.160156 154.53125 C 214.160156 151.03125 207.398438 151.359375 205.34375 150.332031 C 205.34375 150.332031 203.664062 146.132812 203.664062 146.132812 C 203.664062 146.132812 202.402344 149.070312 202.402344 149.070312 C 200.867188 150.609375 198.203125 152.316406 198.203125 154.53125 C 201.160156 154.53125 203.667969 162.929688 204.5 162.929688 C 204.5 162.929688 204.921875 159.992188 204.921875 159.992188 C 206.164062 157.507812 207.378906 154.53125 210.800781 154.53125 C 210.800781 153.535156 211.640625 153.535156 211.640625 154.53125 C 211.640625 154.53125 212.480469 154.53125 212.480469 154.53125 Z M 212.480469 154.53125 "/>
<path style=" stroke:none;fill-rule:evenodd;fill:rgb(0%,39.215687%,0%);fill-opacity:1;" d="M 183.085938 227.597656 L 180.566406 230.539062 C 180.566406 239.121094 193.335938 230.832031 186.867188 227.597656 L 183.085938 227.597656 M 221.71875 225.917969 C 221.71875 226.960938 220.039062 227.242188 220.039062 229.277344 C 220.039062 241.414062 235.671875 225.917969 221.71875 225.917969 M 143.613281 215.839844 C 143.613281 217.910156 148.363281 218.359375 149.914062 218.359375 L 158.3125 220.039062 C 163.75 217.320312 159.734375 216.679688 155.371094 216.679688 L 150.332031 216.679688 L 143.613281 215.839844 M 263.710938 212.480469 C 263.710938 213.617188 259.8125 214.160156 258.671875 214.160156 L 256.570312 215.839844 C 255.148438 216.550781 252.464844 215 250.695312 215 C 249.964844 215 246.359375 215.992188 246.914062 217.101562 C 248.035156 219.347656 250.917969 216.792969 252.375 217.519531 L 254.890625 219.199219 L 258.25 216.679688 C 260.152344 215.730469 265.269531 215.269531 265.8125 215 C 268.269531 213.769531 264.34375 212.480469 263.710938 212.480469 M 230.957031 241.035156 L 230.117188 241.875 C 225.191406 241.875 220.183594 241.035156 213.742188 241.035156 C 213.742188 241.035156 208.703125 242.714844 208.703125 242.714844 C 207.039062 241.882812 207.003906 240.195312 204.921875 240.195312 C 204.921875 233.273438 202.402344 238.445312 202.402344 242.714844 C 199.144531 242.714844 197.296875 241.210938 195.265625 240.195312 C 192.449219 238.789062 189.890625 241.203125 188.546875 241.875 C 185.070312 243.613281 179.742188 241.035156 176.367188 241.035156 C 176.367188 241.035156 174.6875 241.035156 174.6875 241.035156 C 167.230469 241.035156 161.234375 233.476562 153.691406 233.476562 C 153.691406 233.476562 152.011719 232.636719 152.011719 232.636719 C 152.011719 232.636719 149.914062 229.277344 149.914062 229.277344 C 148.3125 228.476562 138.804688 220.039062 138.574219 220.039062 C 138.574219 217.929688 139.554688 215.839844 136.054688 215.839844 C 136.054688 215.839844 132.695312 215 132.695312 215 C 132.695312 214.246094 131.015625 212.457031 131.015625 214.160156 C 131.015625 214.160156 130.175781 213.320312 130.175781 213.320312 C 130.175781 212.28125 129.820312 210.800781 128.496094 210.800781 C 128.496094 210.800781 126.816406 209.960938 126.816406 209.960938 C 126.816406 209.960938 125.976562 209.121094 125.976562 209.121094 C 123.667969 209.121094 110.019531 188.671875 110.019531 184.765625 C 110.019531 184.765625 110.019531 183.085938 110.019531 183.085938 C 111.332031 183.085938 113.378906 177.226562 113.378906 175.527344 C 113.378906 175.527344 117.578125 170.488281 117.578125 170.488281 C 117.578125 170.488281 118.417969 168.808594 118.417969 168.808594 C 119.871094 168.808594 120.9375 164.3125 120.9375 162.929688 C 120.9375 162.929688 121.777344 160.410156 121.777344 160.410156 C 124.09375 160.410156 126.113281 157.050781 123.457031 157.050781 C 123.457031 151.195312 135.339844 149.492188 139.414062 149.492188 C 139.414062 149.492188 140.253906 148.652344 140.253906 148.652344 C 140.253906 148.652344 141.09375 148.652344 141.09375 148.652344 C 141.09375 148.652344 142.773438 147.8125 142.773438 147.8125 C 142.773438 147.8125 144.453125 147.8125 144.453125 147.8125 C 144.453125 147.8125 147.8125 147.8125 147.8125 147.8125 C 147.8125 147.8125 150.332031 148.652344 150.332031 148.652344 C 150.332031 151.878906 158.933594 151.171875 161.25 151.171875 C 161.25 151.171875 162.089844 152.011719 162.089844 152.011719 C 162.089844 152.011719 163.769531 152.851562 163.769531 152.851562 C 164.648438 152.851562 166.289062 152.453125 166.289062 153.691406 C 164.585938 153.691406 166.242188 154.53125 167.128906 154.53125 C 169.457031 154.53125 173.007812 154.214844 173.007812 157.050781 C 169.1875 157.050781 174.578125 158.730469 176.367188 158.730469 C 178.984375 158.730469 181.484375 159.570312 183.925781 159.570312 C 183.925781 160.746094 185.605469 160.746094 185.605469 159.570312 C 185.605469 159.570312 187.285156 159.570312 187.285156 159.570312 C 191.1875 159.570312 194.84375 161.550781 194.84375 157.050781 C 194.84375 157.050781 194.84375 156.210938 194.84375 156.210938 C 195.722656 156.210938 197.363281 156.609375 197.363281 155.371094 C 197.363281 155.371094 198.203125 154.53125 198.203125 154.53125 C 201.160156 154.53125 203.667969 162.929688 204.5 162.929688 C 204.5 162.929688 204.921875 159.992188 204.921875 159.992188 C 206.164062 157.507812 207.378906 154.53125 210.800781 154.53125 C 210.800781 154.53125 211.640625 154.53125 211.640625 154.53125 C 211.640625 154.53125 212.480469 154.53125 212.480469 154.53125 C 212.480469 154.53125 215 157.050781 215 157.050781 C 215 158.058594 211.855469 158.730469 215 158.730469 C 215 158.730469 215.839844 159.570312 215.839844 159.570312 C 217.570312 159.570312 220.039062 161.894531 220.039062 158.730469 C 221.929688 158.730469 222.875 158.730469 224.238281 158.730469 C 224.238281 158.730469 226.757812 158.730469 226.757812 158.730469 C 226.757812 160.617188 230.117188 158.660156 230.117188 157.890625 C 230.117188 157.890625 230.957031 157.050781 230.957031 157.050781 C 230.957031 157.050781 231.796875 157.050781 231.796875 157.050781 C 231.796875 157.050781 232.636719 156.210938 232.636719 156.210938 C 232.636719 156.210938 233.476562 155.371094 233.476562 155.371094 C 233.476562 155.371094 235.15625 154.53125 235.15625 154.53125 C 235.15625 154.53125 235.996094 153.691406 235.996094 153.691406 C 235.996094 153.691406 238.515625 152.851562 238.515625 152.851562 C 238.515625 152.851562 240.195312 152.011719 240.195312 152.011719 C 240.195312 152.011719 243.554688 150.332031 243.554688 150.332031 C 244.917969 150.332031 247.753906 150.71875 247.753906 148.652344 C 247.753906 148.652344 249.433594 148.652344 249.433594 148.652344 C 250.3125 148.652344 251.953125 149.050781 251.953125 147.8125 C 252.308594 147.8125 256.992188 148.632812 256.992188 146.972656 C 256.992188 146.972656 257.832031 146.972656 257.832031 146.972656 C 260.019531 146.972656 267.109375 145.523438 268.328125 146.132812 C 268.328125 146.132812 268.328125 147.8125 268.328125 147.8125 C 268.328125 147.8125 275.46875 147.8125 275.46875 147.8125 C 280.933594 147.8125 284.867188 148.101562 289.328125 150.332031 C 291.75 151.542969 289.214844 154.53125 288.066406 154.53125 C 285.953125 154.53125 288.285156 157.050781 289.746094 157.050781 C 289.746094 157.050781 290.585938 157.890625 290.585938 157.890625 C 290.585938 157.890625 290.585938 159.570312 290.585938 159.570312 C 290.585938 159.570312 292.265625 166.289062 292.265625 166.289062 C 292.265625 167.46875 291.664062 172.167969 293.105469 172.167969 C 294.433594 172.167969 298.144531 177.101562 298.144531 178.886719 C 298.144531 179.765625 297.746094 181.40625 298.984375 181.40625 C 298.984375 187.976562 291.425781 193.984375 291.425781 195.683594 C 291.425781 195.683594 290.585938 196.523438 290.585938 196.523438 C 290.585938 197.445312 287.632812 202.402344 287.226562 202.402344 C 284.535156 202.402344 281.046875 207.441406 283.027344 207.441406 C 283.027344 207.441406 278.828125 212.0625 278.828125 212.0625 C 276.410156 214.476562 268.757812 222.558594 266.230469 222.558594 C 266.230469 222.558594 265.390625 223.398438 265.390625 223.398438 C 263.464844 223.398438 263.710938 224.234375 263.710938 225.917969 C 263.710938 227.449219 257.546875 231.796875 256.152344 231.796875 C 256.152344 231.796875 254.472656 231.796875 254.472656 231.796875 C 254.472656 231.796875 253.632812 232.636719 253.632812 232.636719 C 252.757812 232.636719 249.433594 233.464844 249.433594 234.316406 C 249.433594 234.316406 248.59375 234.316406 248.59375 234.316406 C 248.59375 232.613281 246.914062 234.402344 246.914062 235.15625 C 246.914062 235.15625 246.074219 235.15625 246.074219 235.15625 C 246.074219 235.15625 243.554688 235.15625 243.554688 235.15625 C 241.960938 235.15625 233.753906 241.035156 230.957031 241.035156 M 202.402344 167.128906 C 202.402344 168.261719 204.921875 169.828125 204.921875 167.96875 C 207.425781 167.96875 202.402344 161.25 202.402344 167.128906 Z M 202.402344 167.128906 "/>
<path style=" stroke:none;fill-rule:nonzero;fill:rgb(0.784314%,17.254902%,100%);fill-opacity:1;" d="M 144.453125 147.8125 L 147.8125 147.8125 C 147.8125 146.488281 145.414062 146.972656 144.453125 146.972656 C 144.453125 146.972656 144.453125 147.8125 144.453125 147.8125 Z M 144.453125 147.8125 "/>
<path style=" stroke:none;fill-rule:nonzero;fill:rgb(100%,20.392157%,15.294118%);fill-opacity:1;" d="M 256.152344 231.796875 C 256.152344 234.230469 251.960938 235.5625 251.113281 237.257812 C 249.558594 240.367188 251.421875 244.339844 254.890625 246.074219 C 256.878906 247.066406 259.675781 245.234375 261.191406 245.234375 C 264.507812 245.234375 281.035156 225.917969 285.546875 225.917969 C 287.738281 225.917969 291.347656 220.878906 294.785156 220.878906 C 294.785156 215.898438 306.640625 203.242188 311.582031 203.242188 C 311.582031 203.242188 313.261719 201.5625 313.261719 201.5625 C 313.261719 196.824219 319.140625 188.355469 319.140625 183.085938 C 319.140625 183.085938 319.980469 182.246094 319.980469 182.246094 C 319.980469 179.523438 322.089844 175.125 320.820312 172.585938 C 320.820312 172.585938 319.140625 167.546875 319.140625 167.546875 C 320.71875 164.390625 320.820312 162.605469 320.820312 158.730469 C 320.820312 158.730469 319.140625 156.210938 319.140625 156.210938 C 319.140625 154.667969 313.488281 147.8125 312.421875 147.8125 C 312.421875 154.539062 309.902344 159.65625 309.902344 165.449219 C 310.734375 165.449219 312.421875 167.078125 312.421875 167.546875 C 312.421875 169.523438 309.890625 167.558594 309.0625 168.390625 C 306.765625 170.6875 303.417969 174.6875 300.242188 174.6875 C 298.316406 174.6875 296.457031 170.488281 293.945312 170.488281 C 293.945312 170.488281 293.105469 172.167969 293.105469 172.167969 C 294.433594 172.167969 298.144531 177.101562 298.144531 178.886719 C 299.277344 178.886719 300.84375 181.40625 298.984375 181.40625 C 298.984375 187.976562 291.425781 193.984375 291.425781 195.683594 C 291.425781 195.683594 290.585938 196.523438 290.585938 196.523438 C 290.585938 197.445312 287.632812 202.402344 287.226562 202.402344 C 287.226562 202.402344 283.027344 207.441406 283.027344 207.441406 C 283.027344 207.441406 278.828125 212.0625 278.828125 212.0625 C 276.410156 214.476562 268.757812 222.558594 266.230469 222.558594 C 266.230469 222.558594 265.390625 223.398438 265.390625 223.398438 C 265.390625 223.398438 263.710938 225.917969 263.710938 225.917969 C 263.710938 227.449219 257.546875 231.796875 256.152344 231.796875 Z M 256.152344 231.796875 "/>
<path style=" stroke:none;fill-rule:nonzero;fill:rgb(73.725492%,12.54902%,67.843139%);fill-opacity:1;" d="M 150.332031 148.652344 L 157.890625 150.332031 C 158.953125 150.332031 163.285156 151.171875 161.25 151.171875 C 158.933594 151.171875 150.332031 151.878906 150.332031 148.652344 Z M 150.332031 148.652344 "/>
<path style=" stroke:none;fill-rule:nonzero;fill:rgb(100%,20.392157%,15.294118%);fill-opacity:1;" d="M 145.292969 245.234375 L 147.8125 246.074219 C 150.746094 246.074219 155.0625 247.949219 157.050781 243.976562 C 158.296875 241.480469 155.324219 234.316406 152.851562 234.316406 C 152.851562 234.316406 152.011719 232.636719 152.011719 232.636719 C 152.011719 232.636719 149.914062 229.277344 149.914062 229.277344 C 148.3125 228.476562 138.804688 220.039062 138.574219 220.039062 C 137.058594 220.039062 136.054688 217.023438 136.054688 215.839844 C 136.054688 215.839844 132.695312 215 132.695312 215 C 132.695312 215 131.015625 214.160156 131.015625 214.160156 C 131.015625 214.160156 130.175781 213.320312 130.175781 213.320312 C 130.175781 213.320312 128.496094 210.800781 128.496094 210.800781 C 128.496094 210.800781 126.816406 209.960938 126.816406 209.960938 C 126.816406 209.960938 125.976562 209.121094 125.976562 209.121094 C 123.667969 209.121094 110.019531 188.671875 110.019531 184.765625 C 108.84375 184.765625 108.84375 183.085938 110.019531 183.085938 C 111.332031 183.085938 113.378906 177.226562 113.378906 175.527344 C 113.378906 175.527344 112.539062 174.6875 112.539062 174.6875 C 105.5625 174.6875 100.78125 173.335938 100.78125 165.449219 C 96.976562 165.449219 100.78125 162.105469 100.78125 160.410156 C 100.78125 160.410156 100.78125 157.890625 100.78125 157.890625 C 100.78125 155.925781 100.78125 153.253906 100.78125 151.171875 C 100.78125 151.171875 98.261719 150.332031 98.261719 150.332031 C 98.261719 155.230469 89.023438 158.757812 89.023438 163.769531 C 89.023438 167.070312 91.71875 176.4375 90.703125 178.46875 C 90.011719 179.847656 86.421875 182.503906 87.34375 184.34375 C 89.226562 188.109375 92.214844 189.890625 94.0625 193.585938 C 94.0625 193.585938 96.582031 201.140625 96.582031 201.140625 C 96.582031 201.140625 101.621094 206.601562 101.621094 206.601562 C 101.621094 206.601562 102.460938 207.441406 102.460938 207.441406 C 102.460938 207.441406 104.5625 209.960938 104.5625 209.960938 C 104.5625 209.960938 111.699219 215.839844 111.699219 215.839844 C 113.601562 215.839844 117.671875 222.324219 118.417969 223.820312 C 118.417969 223.820312 121.777344 226.757812 121.777344 226.757812 C 121.777344 226.757812 122.617188 226.757812 122.617188 226.757812 C 124.574219 226.757812 134.503906 236.542969 136.894531 238.9375 C 136.894531 238.9375 141.09375 241.875 141.09375 241.875 C 142.5625 241.875 142.773438 242.085938 142.773438 243.554688 C 143.8125 243.554688 145.292969 243.910156 145.292969 245.234375 Z M 145.292969 245.234375 "/>
<path style=" stroke:none;fill-rule:nonzero;fill:rgb(0.784314%,17.254902%,100%);fill-opacity:1;" d="M 198.203125 154.53125 L 197.363281 155.371094 C 197.363281 155.371094 198.203125 154.53125 198.203125 154.53125 Z M 198.203125 154.53125 "/>
<path style=" stroke:none;fill-rule:nonzero;fill:rgb(100%,98.823529%,0%);fill-opacity:1;" d="M 194.84375 157.050781 C 194.84375 161.550781 191.1875 159.570312 187.285156 159.570312 C 187.285156 157.757812 192.382812 157.050781 194.003906 157.050781 C 194.003906 157.050781 194.84375 157.050781 194.84375 157.050781 Z M 194.84375 157.050781 "/>
<path style=" stroke:none;fill-rule:nonzero;fill:rgb(100%,98.823529%,0%);fill-opacity:1;" d="M 220.039062 158.730469 C 220.039062 161.894531 217.570312 159.570312 215.839844 159.570312 C 215.839844 159.570312 215 158.730469 215 158.730469 C 211.855469 158.730469 215 158.058594 215 157.050781 C 215 157.050781 217.519531 157.050781 217.519531 157.050781 C 217.519531 157.050781 219.199219 157.050781 219.199219 157.050781 C 219.199219 157.050781 220.039062 158.730469 220.039062 158.730469 Z M 220.039062 158.730469 "/>
<path style=" stroke:none;fill-rule:nonzero;fill:rgb(50.588238%,30.980393%,100%);fill-opacity:1;" d="M 309.902344 214.160156 C 310.867188 214.160156 311.167969 217.953125 311.582031 218.78125 C 313.195312 222.003906 316.5625 224.238281 319.980469 224.238281 C 332.417969 224.238281 333.417969 206.34375 333.417969 199.042969 C 333.417969 199.042969 333.417969 197.363281 333.417969 197.363281 C 333.417969 186.074219 330.578125 177.824219 325.859375 168.390625 C 324.949219 166.566406 322.667969 157.890625 320.820312 157.890625 C 320.820312 157.890625 320.820312 158.730469 320.820312 158.730469 C 320.820312 162.605469 320.71875 164.390625 319.140625 167.546875 C 319.140625 167.546875 320.820312 172.585938 320.820312 172.585938 C 322.089844 175.125 319.980469 179.523438 319.980469 182.246094 C 319.980469 182.246094 319.140625 183.085938 319.140625 183.085938 C 319.140625 188.355469 313.261719 196.824219 313.261719 201.5625 C 313.410156 201.5625 313.886719 211.640625 310.742188 211.640625 C 310.742188 211.640625 309.902344 214.160156 309.902344 214.160156 Z M 309.902344 214.160156 "/>
<path style=" stroke:none;fill-rule:nonzero;fill:rgb(50.588238%,30.980393%,100%);fill-opacity:1;" d="M 100.78125 218.359375 L 97 226.757812 C 96.039062 227.238281 93.222656 223.316406 93.222656 226.757812 C 93.222656 228.054688 88.890625 228.160156 87.765625 227.597656 C 85.851562 226.640625 78.105469 219.550781 78.105469 216.679688 C 78.105469 213.78125 76.867188 208.742188 75.585938 206.179688 C 75.585938 206.179688 76.425781 198.203125 76.425781 198.203125 C 76.425781 196.460938 78.898438 188.125 77.265625 188.125 C 77.265625 186.066406 79.265625 187.0625 80.625 184.34375 C 80.625 184.34375 80.625 180.148438 80.625 180.148438 C 81.210938 178.96875 83.144531 177.628906 83.984375 175.945312 C 84.976562 173.964844 86.015625 163.769531 89.023438 163.769531 C 89.023438 167.070312 91.71875 176.4375 90.703125 178.46875 C 90.011719 179.847656 86.421875 182.503906 87.34375 184.34375 C 89.226562 188.109375 92.214844 189.890625 94.0625 193.585938 C 94.0625 193.585938 96.582031 201.140625 96.582031 201.140625 C 96.582031 201.140625 101.621094 206.601562 101.621094 206.601562 C 101.621094 206.601562 102.460938 207.441406 102.460938 207.441406 C 102.460938 211.414062 100.78125 215.101562 100.78125 218.359375 Z M 100.78125 218.359375 "/>
<path style=" stroke:none;fill-rule:nonzero;fill:rgb(93.333334%,45.882353%,20%);fill-opacity:1;" d="M 293.945312 167.96875 L 293.945312 170.488281 C 296.457031 170.488281 298.316406 174.6875 300.242188 174.6875 C 303.417969 174.6875 306.765625 170.6875 309.0625 168.390625 C 309.890625 167.558594 312.421875 169.523438 312.421875 167.546875 C 312.421875 167.078125 310.734375 165.449219 309.902344 165.449219 C 309.902344 165.449219 307.382812 164.609375 307.382812 164.609375 C 305.867188 164.609375 303.070312 162.777344 301.085938 163.769531 C 297.90625 165.359375 298.328125 167.96875 293.945312 167.96875 Z M 293.945312 167.96875 "/>
<path style=" stroke:none;fill-rule:nonzero;fill:rgb(93.333334%,45.882353%,20%);fill-opacity:1;" d="M 115.058594 171.328125 L 112.539062 174.6875 C 105.5625 174.6875 100.78125 173.335938 100.78125 165.449219 C 100.78125 165.449219 104.140625 164.609375 104.140625 164.609375 C 104.140625 166.230469 109.300781 170.757812 110.4375 171.328125 C 111.796875 172.007812 115.058594 169.460938 115.058594 171.328125 Z M 115.058594 171.328125 "/>
<path style=" stroke:none;fill-rule:nonzero;fill:rgb(0.784314%,17.254902%,100%);fill-opacity:1;" d="M 202.402344 167.128906 L 204.921875 167.96875 C 207.425781 167.96875 202.402344 161.25 202.402344 167.128906 Z M 202.402344 167.128906 "/>
<path style=" stroke:none;fill-rule:nonzero;fill:rgb(100%,56.862748%,72.941178%);fill-opacity:1;" d="M 311.582031 203.242188 L 310.742188 211.640625 C 313.886719 211.640625 313.410156 201.5625 313.261719 201.5625 C 313.261719 201.5625 311.582031 203.242188 311.582031 203.242188 Z M 311.582031 203.242188 "/>
<path style=" stroke:none;fill-rule:nonzero;fill:rgb(93.333334%,45.882353%,20%);fill-opacity:1;" d="M 294.785156 220.878906 L 294.785156 226.757812 C 294.785156 227.394531 295.933594 229.753906 296.882812 229.277344 C 296.882812 229.277344 298.144531 223.820312 298.144531 223.820312 C 299.660156 220.785156 304.679688 218.660156 306.960938 217.519531 C 306.960938 217.519531 309.902344 214.160156 309.902344 214.160156 C 309.902344 214.160156 310.742188 211.640625 310.742188 211.640625 C 310.742188 211.640625 311.582031 203.242188 311.582031 203.242188 C 306.640625 203.242188 294.785156 215.898438 294.785156 220.878906 Z M 294.785156 220.878906 "/>
<path style=" stroke:none;fill-rule:nonzero;fill:rgb(93.333334%,45.882353%,20%);fill-opacity:1;" d="M 111.699219 224.238281 L 113.378906 225.078125 C 113.378906 225.078125 111.699219 215.839844 111.699219 215.839844 C 111.699219 215.839844 104.5625 209.960938 104.5625 209.960938 C 104.5625 209.960938 102.460938 207.441406 102.460938 207.441406 C 102.460938 211.414062 100.78125 215.101562 100.78125 218.359375 C 104.230469 218.359375 107.53125 224.238281 111.699219 224.238281 Z M 111.699219 224.238281 "/>
<path style=" stroke:none;fill-rule:nonzero;fill:rgb(83.137256%,100%,0%);fill-opacity:1;" d="M 263.710938 212.480469 C 263.710938 213.617188 259.8125 214.160156 258.671875 214.160156 L 256.570312 215.839844 C 255.148438 216.550781 252.464844 215 250.695312 215 C 249.964844 215 246.359375 215.992188 246.914062 217.101562 C 248.035156 219.347656 250.917969 216.792969 252.375 217.519531 L 254.890625 219.199219 L 258.25 216.679688 C 260.152344 215.730469 265.269531 215.269531 265.8125 215 C 268.269531 213.769531 264.34375 212.480469 263.710938 212.480469 Z M 263.710938 212.480469 "/>
<path style=" stroke:none;fill-rule:nonzero;fill:rgb(88.235295%,94.117647%,5.098039%);fill-opacity:1;" d="M 304.023438 293.945312 L 304.863281 293.945312 C 304.863281 285.707031 310.617188 276.980469 314.101562 270.007812 C 314.796875 268.621094 318.625 247.980469 318.300781 247.335938 C 317.914062 246.558594 314.941406 242.808594 314.941406 242.296875 C 314.941406 238.882812 316.832031 238.515625 314.941406 234.734375 C 314.941406 234.734375 316.621094 233.054688 316.621094 233.054688 C 316.621094 233.054688 317.460938 228.015625 317.460938 228.015625 C 317.460938 228.015625 319.980469 224.238281 319.980469 224.238281 C 316.5625 224.238281 313.195312 222.003906 311.582031 218.78125 C 311.167969 217.953125 310.867188 214.160156 309.902344 214.160156 C 309.902344 214.160156 306.960938 217.519531 306.960938 217.519531 C 304.679688 218.660156 299.660156 220.785156 298.144531 223.820312 C 298.144531 223.820312 296.882812 229.277344 296.882812 229.277344 C 295.933594 229.753906 294.785156 227.394531 294.785156 226.757812 C 292 226.757812 290.488281 232.476562 288.484375 233.476562 C 284.464844 235.488281 271.132812 246.765625 268.75 251.53125 C 268.75 251.53125 263.710938 256.152344 263.710938 256.152344 C 264.734375 256.152344 264.972656 259.085938 264.550781 259.929688 C 263.859375 261.3125 263.183594 274.996094 264.132812 275.46875 C 267.8125 277.308594 270.402344 281.964844 274.210938 283.867188 C 274.210938 283.867188 280.085938 283.027344 280.085938 283.027344 C 280.085938 283.027344 295.625 291.425781 295.625 291.425781 C 298.242188 291.425781 301.902344 293.945312 304.023438 293.945312 Z M 304.023438 293.945312 "/>
<path style=" stroke:none;fill-rule:nonzero;fill:rgb(88.235295%,94.117647%,5.098039%);fill-opacity:1;" d="M 149.492188 257.832031 L 149.492188 270.007812 C 147.855469 273.28125 138.945312 280.53125 135.632812 282.1875 C 132.59375 283.707031 121.777344 292.273438 121.777344 287.226562 C 121.777344 283.488281 116.632812 281.558594 115.058594 278.40625 C 115.058594 278.40625 115.058594 273.367188 115.058594 273.367188 C 112.527344 268.308594 110.003906 263.257812 107.5 258.25 C 107.5 258.25 100.78125 251.53125 100.78125 251.53125 C 100.78125 251.53125 97.421875 241.453125 97.421875 241.453125 C 97.421875 241.453125 99.101562 236.414062 99.101562 236.414062 C 98.582031 235.375 96.648438 234.875 95.742188 233.054688 C 95.15625 231.878906 94.871094 226.757812 93.222656 226.757812 C 93.222656 223.316406 96.039062 227.238281 97 226.757812 C 97 226.757812 100.78125 218.359375 100.78125 218.359375 C 104.230469 218.359375 107.53125 224.238281 111.699219 224.238281 C 111.699219 225.625 113.378906 226.835938 113.378906 225.078125 C 113.378906 225.078125 111.699219 215.839844 111.699219 215.839844 C 113.601562 215.839844 117.671875 222.324219 118.417969 223.820312 C 118.417969 223.820312 121.777344 226.757812 121.777344 226.757812 C 121.777344 226.757812 120.9375 226.757812 120.9375 226.757812 C 111.785156 226.757812 123.207031 235.914062 125.136719 239.773438 C 127.453125 244.40625 136.320312 247.597656 140.671875 251.953125 C 140.671875 251.953125 145.292969 255.734375 145.292969 255.734375 C 145.292969 255.734375 145.710938 257.832031 145.710938 257.832031 C 147.273438 257.832031 147.050781 257.832031 149.492188 257.832031 Z M 149.492188 257.832031 "/>
<path style=" stroke:none;fill-rule:nonzero;fill:rgb(83.137256%,100%,0%);fill-opacity:1;" d="M 143.613281 215.839844 C 143.613281 217.910156 148.363281 218.359375 149.914062 218.359375 L 158.3125 220.039062 C 163.75 217.320312 159.734375 216.679688 155.371094 216.679688 L 150.332031 216.679688 Z M 143.613281 215.839844 "/>
<path style=" stroke:none;fill-rule:nonzero;fill:rgb(14.901961%,49.411765%,100%);fill-opacity:1;" d="M 260.351562 253.632812 C 260.351562 255.65625 261.996094 256.152344 263.710938 256.152344 C 263.710938 256.152344 268.75 251.53125 268.75 251.53125 C 271.132812 246.765625 284.464844 235.488281 288.484375 233.476562 C 290.488281 232.476562 292 226.757812 294.785156 226.757812 C 294.785156 226.757812 294.785156 220.878906 294.785156 220.878906 C 291.347656 220.878906 287.738281 225.917969 285.546875 225.917969 C 285.546875 231.628906 276.097656 232.636719 273.789062 237.257812 C 272.289062 240.257812 269.441406 244.964844 267.492188 246.914062 C 265.675781 248.730469 262.9375 252.792969 260.351562 252.792969 C 260.351562 252.792969 260.351562 253.632812 260.351562 253.632812 Z M 260.351562 253.632812 "/>
<path style=" stroke:none;fill-rule:nonzero;fill:rgb(67.843139%,100%,18.431373%);fill-opacity:1;" d="M 111.699219 224.238281 L 113.378906 225.078125 C 113.378906 226.835938 111.699219 225.625 111.699219 224.238281 Z M 111.699219 224.238281 "/>
<path style=" stroke:none;fill-rule:nonzero;fill:rgb(93.333334%,72.941178%,0%);fill-opacity:1;" d="M 221.71875 225.917969 C 221.71875 226.960938 220.039062 227.242188 220.039062 229.277344 C 220.039062 241.414062 235.671875 225.917969 221.71875 225.917969 Z M 221.71875 225.917969 "/>
<path style=" stroke:none;fill-rule:nonzero;fill:rgb(98.039216%,66.666669%,25.098041%);fill-opacity:1;" d="M 261.191406 245.234375 C 261.191406 246.9375 260.191406 246.8125 259.511719 248.171875 C 258.691406 249.816406 260.351562 251.597656 260.351562 252.792969 C 262.9375 252.792969 265.675781 248.730469 267.492188 246.914062 C 269.441406 244.964844 272.289062 240.257812 273.789062 237.257812 C 276.097656 232.636719 285.546875 231.628906 285.546875 225.917969 C 281.035156 225.917969 264.507812 245.234375 261.191406 245.234375 Z M 261.191406 245.234375 "/>
<path style=" stroke:none;fill-rule:nonzero;fill:rgb(14.901961%,49.411765%,100%);fill-opacity:1;" d="M 148.652344 255.3125 L 149.492188 257.832031 C 147.050781 257.832031 147.273438 257.832031 145.710938 257.832031 C 145.710938 257.832031 145.292969 255.734375 145.292969 255.734375 C 145.292969 255.734375 140.671875 251.953125 140.671875 251.953125 C 136.320312 247.597656 127.453125 244.40625 125.136719 239.773438 C 123.207031 235.914062 111.785156 226.757812 120.9375 226.757812 C 120.9375 226.757812 121.777344 227.597656 121.777344 227.597656 C 121.777344 227.597656 127.234375 234.316406 127.234375 234.316406 C 133.859375 237.628906 137.960938 243.359375 143.195312 248.59375 C 144.214844 249.613281 147.25 255.3125 148.652344 255.3125 Z M 148.652344 255.3125 "/>
<path style=" stroke:none;fill-rule:nonzero;fill:rgb(98.039216%,66.666669%,25.098041%);fill-opacity:1;" d="M 148.652344 255.3125 L 150.332031 255.3125 C 150.332031 255.3125 146.972656 248.59375 146.972656 248.59375 C 146.972656 248.59375 145.292969 245.234375 145.292969 245.234375 C 145.292969 243.910156 143.8125 243.554688 142.773438 243.554688 C 142.773438 243.554688 141.09375 241.875 141.09375 241.875 C 141.09375 241.875 136.894531 238.9375 136.894531 238.9375 C 134.503906 236.542969 124.574219 226.757812 122.617188 226.757812 C 122.617188 226.757812 121.777344 227.597656 121.777344 227.597656 C 121.777344 227.597656 127.234375 234.316406 127.234375 234.316406 C 133.859375 237.628906 137.960938 243.359375 143.195312 248.59375 C 144.214844 249.613281 147.25 255.3125 148.652344 255.3125 Z M 148.652344 255.3125 "/>
<path style=" stroke:none;fill-rule:nonzero;fill:rgb(93.333334%,72.941178%,0%);fill-opacity:1;" d="M 183.085938 227.597656 L 180.566406 230.539062 C 180.566406 239.121094 193.335938 230.832031 186.867188 227.597656 Z M 183.085938 227.597656 "/>
<path style=" stroke:none;fill-rule:nonzero;fill:rgb(88.235295%,94.117647%,5.098039%);fill-opacity:1;" d="M 260.351562 253.632812 C 253.300781 253.632812 252.578125 263.710938 246.074219 263.710938 C 246.074219 263.710938 246.914062 261.609375 246.914062 261.609375 C 246.914062 259.480469 241.988281 261 241.035156 259.09375 C 241.035156 259.09375 241.875 256.570312 241.875 256.570312 C 241.875 254.941406 238.40625 255.511719 237.675781 254.054688 C 237.675781 254.054688 238.515625 251.53125 238.515625 251.53125 C 238.515625 249.902344 235.046875 250.472656 234.316406 249.015625 C 233.378906 247.136719 236.703125 246.226562 235.996094 244.8125 C 235.074219 242.972656 230.117188 244.542969 230.117188 241.875 C 230.117188 241.875 230.957031 241.035156 230.957031 241.035156 C 233.753906 241.035156 241.960938 235.15625 243.554688 235.15625 C 243.554688 236.402344 246.074219 236.402344 246.074219 235.15625 C 246.074219 235.15625 246.914062 235.15625 246.914062 235.15625 C 246.914062 235.15625 248.59375 234.316406 248.59375 234.316406 C 248.59375 234.316406 249.433594 234.316406 249.433594 234.316406 C 250.796875 234.316406 253.632812 234.703125 253.632812 232.636719 C 253.632812 232.636719 254.472656 231.796875 254.472656 231.796875 C 254.472656 231.796875 256.152344 231.796875 256.152344 231.796875 C 256.152344 234.230469 251.960938 235.5625 251.113281 237.257812 C 249.558594 240.367188 251.421875 244.339844 254.890625 246.074219 C 256.878906 247.066406 259.675781 245.234375 261.191406 245.234375 C 261.191406 246.9375 260.191406 246.8125 259.511719 248.171875 C 258.691406 249.816406 260.351562 251.597656 260.351562 252.792969 C 260.351562 252.792969 260.351562 253.632812 260.351562 253.632812 Z M 260.351562 253.632812 "/>
<path style=" stroke:none;fill-rule:nonzero;fill:rgb(88.235295%,94.117647%,5.098039%);fill-opacity:1;" d="M 160.410156 264.550781 L 159.570312 265.390625 C 152.75 265.390625 152.609375 255.3125 150.332031 255.3125 C 150.332031 255.3125 146.972656 248.59375 146.972656 248.59375 C 148.210938 248.59375 147.8125 246.953125 147.8125 246.074219 C 150.746094 246.074219 155.0625 247.949219 157.050781 243.976562 C 158.296875 241.480469 155.324219 234.316406 152.851562 234.316406 C 152.851562 234.316406 153.691406 233.476562 153.691406 233.476562 C 161.234375 233.476562 167.230469 241.035156 174.6875 241.035156 C 174.6875 241.035156 176.367188 241.875 176.367188 241.875 C 176.367188 243.457031 178.308594 246.8125 177.207031 249.015625 C 177.207031 249.015625 173.007812 251.953125 173.007812 251.953125 C 171.832031 251.953125 171.832031 253.632812 173.007812 253.632812 C 173.007812 258.324219 167.539062 254.898438 165.03125 256.152344 C 165.03125 256.152344 164.609375 259.929688 164.609375 259.929688 C 163.621094 261.910156 160.410156 260.601562 160.410156 264.550781 Z M 160.410156 264.550781 "/>
<path style=" stroke:none;fill-rule:nonzero;fill:rgb(0.784314%,17.254902%,100%);fill-opacity:1;" d="M 204.921875 288.066406 L 205.761719 288.066406 C 205.761719 287.1875 205.363281 285.546875 206.601562 285.546875 C 206.601562 271.285156 206.601562 256.964844 206.601562 243.132812 C 206.601562 243.132812 204.921875 240.195312 204.921875 240.195312 C 204.921875 233.273438 202.402344 238.445312 202.402344 242.714844 C 202.402344 256.824219 204.082031 273.085938 204.082031 287.226562 C 204.082031 287.226562 204.921875 288.066406 204.921875 288.066406 Z M 204.921875 288.066406 "/>
<path style=" stroke:none;fill-rule:evenodd;fill:rgb(88.627452%,47.058824%,63.137257%);fill-opacity:1;" d="M 175.527344 255.3125 C 175.527344 257.179688 173.523438 257.21875 173.007812 258.25 C 170.757812 262.75 180.507812 260.65625 178.886719 257.414062 L 177.207031 256.570312 C 176.660156 255.480469 177.0625 255.3125 175.527344 255.3125 M 159.570312 265.390625 C 159.570312 268.886719 163.179688 270.511719 164.609375 273.367188 C 165.199219 274.546875 164.410156 278.007812 165.449219 280.085938 L 167.96875 281.765625 C 171.628906 289.085938 177.882812 289.035156 184.34375 292.265625 C 187.753906 293.96875 193.078125 290.585938 196.523438 290.585938 L 201.140625 291.425781 L 202.820312 288.90625 L 203.664062 290.585938 L 204.082031 287.226562 C 204.082031 273.085938 202.402344 256.824219 202.402344 242.714844 C 199.144531 242.714844 197.296875 241.210938 195.265625 240.195312 C 192.449219 238.789062 189.890625 241.203125 188.546875 241.875 C 185.070312 243.613281 179.742188 241.035156 176.367188 241.035156 C 176.367188 241.035156 176.367188 241.875 176.367188 241.875 C 176.367188 243.457031 178.308594 246.8125 177.207031 249.015625 C 177.207031 249.015625 173.007812 251.953125 173.007812 251.953125 C 173.007812 251.953125 173.007812 253.632812 173.007812 253.632812 C 173.007812 258.324219 167.539062 254.898438 165.03125 256.152344 C 165.03125 256.152344 164.609375 259.929688 164.609375 259.929688 C 163.621094 261.910156 160.410156 260.601562 160.410156 264.550781 C 160.410156 264.550781 159.570312 265.390625 159.570312 265.390625 Z M 159.570312 265.390625 "/>
<path style=" stroke:none;fill-rule:evenodd;fill:rgb(88.627452%,47.058824%,63.137257%);fill-opacity:1;" d="M 230.957031 254.472656 L 230.117188 258.25 C 232.683594 263.386719 239.773438 254.472656 230.957031 254.472656 M 246.074219 263.710938 C 246.074219 265.949219 250.664062 265.871094 249.433594 268.328125 L 243.554688 272.53125 C 242.703125 274.234375 244.394531 276.402344 244.394531 277.570312 C 244.394531 279.003906 234.808594 290.96875 233.898438 291.425781 C 227.273438 294.738281 206.601562 294.871094 206.601562 285.546875 C 206.601562 271.285156 206.601562 256.964844 206.601562 243.132812 C 206.601562 243.132812 204.921875 240.195312 204.921875 240.195312 C 207.003906 240.195312 207.039062 241.882812 208.703125 242.714844 C 208.703125 242.714844 213.742188 241.035156 213.742188 241.035156 C 220.183594 241.035156 225.191406 241.875 230.117188 241.875 C 230.117188 244.542969 235.074219 242.972656 235.996094 244.8125 C 236.703125 246.226562 233.378906 247.136719 234.316406 249.015625 C 235.046875 250.472656 238.515625 249.902344 238.515625 251.53125 C 238.515625 251.53125 237.675781 254.054688 237.675781 254.054688 C 238.40625 255.511719 241.875 254.941406 241.875 256.570312 C 241.875 256.570312 241.035156 259.09375 241.035156 259.09375 C 241.988281 261 246.914062 259.480469 246.914062 261.609375 C 246.914062 261.609375 246.074219 263.710938 246.074219 263.710938 Z M 246.074219 263.710938 "/>
<path style=" stroke:none;fill-rule:nonzero;fill:rgb(88.627452%,47.058824%,63.137257%);fill-opacity:1;" d="M 230.957031 241.035156 L 230.117188 241.875 C 230.117188 241.875 230.957031 241.035156 230.957031 241.035156 Z M 230.957031 241.035156 "/>
<path style=" stroke:none;fill-rule:nonzero;fill:rgb(8.235294%,75.294119%,100%);fill-opacity:1;" d="M 230.957031 254.472656 L 230.117188 258.25 C 232.683594 263.386719 239.773438 254.472656 230.957031 254.472656 Z M 230.957031 254.472656 "/>
<path style=" stroke:none;fill-rule:nonzero;fill:rgb(8.235294%,75.294119%,100%);fill-opacity:1;" d="M 175.527344 255.3125 C 175.527344 257.179688 173.523438 257.21875 173.007812 258.25 C 170.757812 262.75 180.507812 260.65625 178.886719 257.414062 L 177.207031 256.570312 C 176.660156 255.480469 177.0625 255.3125 175.527344 255.3125 Z M 175.527344 255.3125 "/>
<path style=" stroke:none;fill-rule:nonzero;fill:rgb(98.039216%,50.196081%,44.705883%);fill-opacity:1;" d="M 295.625 291.425781 C 298.242188 291.425781 301.902344 293.945312 304.023438 293.945312 C 304.023438 295.425781 305.351562 294.398438 306.125 294.785156 C 308.46875 295.957031 312.234375 299.03125 313.261719 301.085938 C 316.160156 306.882812 301.976562 310.742188 299.40625 310.742188 C 299.40625 310.742188 297.726562 308.222656 297.726562 308.222656 C 295.90625 307.3125 297.125 312.121094 294.367188 310.742188 C 290.785156 308.953125 284.925781 307.382812 281.765625 307.382812 C 280.835938 307.382812 284.929688 301.183594 280.929688 303.183594 C 279.613281 303.839844 277.957031 303.410156 276.726562 304.023438 C 276.726562 304.023438 275.46875 308.640625 275.46875 308.640625 C 274.824219 309.933594 265.1875 314.628906 264.132812 314.101562 C 264.132812 314.101562 259.09375 309.902344 259.09375 309.902344 C 259.09375 309.902344 255.734375 310.742188 255.734375 310.742188 C 255.734375 310.742188 254.054688 309.0625 254.054688 309.0625 C 253.058594 309.0625 251.386719 310.667969 249.851562 309.902344 C 249.851562 309.902344 243.554688 303.601562 243.554688 303.601562 C 242.566406 301.625 241.363281 291.890625 243.976562 290.585938 C 243.976562 290.585938 248.59375 288.484375 248.59375 288.484375 C 249.613281 286.445312 248.144531 285.980469 250.695312 284.707031 C 252.351562 283.878906 254.417969 285.785156 256.570312 284.707031 C 258.867188 283.558594 264.542969 279.035156 267.492188 280.507812 C 267.492188 280.507812 270.851562 284.707031 270.851562 284.707031 C 274.195312 286.378906 278.328125 287.1875 281.765625 288.90625 C 282.945312 289.496094 282.996094 295.625 283.445312 295.625 C 285.863281 295.625 286.640625 290.25 287.648438 289.746094 C 287.648438 289.746094 295.625 291.425781 295.625 291.425781 Z M 295.625 291.425781 "/>
<path style=" stroke:none;fill-rule:evenodd;fill:rgb(98.039216%,50.196081%,44.705883%);fill-opacity:1;" d="M 139.414062 305.703125 C 139.414062 313.4375 141.183594 305.703125 139.414062 305.703125 M 128.496094 296.464844 C 128.496094 304.835938 127.914062 300.582031 133.117188 303.183594 L 134.796875 305.703125 L 134.796875 298.144531 L 131.4375 301.503906 L 128.496094 296.464844 M 141.09375 293.945312 C 141.09375 297.089844 142.851562 293.945312 141.09375 293.945312 M 131.015625 293.105469 L 130.175781 296.882812 C 131.039062 298.613281 133.0625 296.019531 133.953125 296.464844 C 135.773438 297.375 137.152344 293.105469 131.015625 293.105469 M 146.972656 282.1875 C 146.972656 284.042969 142.625 282.472656 141.515625 283.027344 C 138.324219 284.625 135.410156 286.5 132.273438 288.066406 C 127.261719 290.574219 129.800781 295.183594 128.914062 295.625 C 126.132812 297.015625 122.996094 289.765625 119.679688 291.425781 C 115.839844 293.34375 110.894531 292.878906 107.078125 294.785156 L 103.300781 297.726562 L 102.882812 299.824219 C 101.136719 299.824219 99.765625 298.074219 98.261719 301.085938 C 97.132812 303.339844 100.535156 305.773438 99.941406 306.960938 C 99.203125 308.433594 97.183594 309.847656 98.261719 312 C 101.09375 317.664062 103.078125 310.742188 104.5625 310.742188 L 106.242188 314.101562 L 107.921875 312.421875 C 109.035156 312.421875 109.511719 314.984375 111.28125 314.101562 C 113.769531 312.855469 116.789062 310.742188 119.679688 310.742188 L 122.195312 311.582031 L 126.398438 309.0625 C 127.761719 309.746094 129.515625 312.542969 131.4375 311.582031 L 135.632812 308.222656 L 137.3125 310.742188 C 139.769531 311.96875 142.941406 311.582031 145.710938 311.582031 L 149.070312 314.101562 L 153.273438 310.742188 C 156.972656 310.742188 159.578125 311.789062 163.351562 309.902344 C 166.199219 308.476562 163.09375 299.730469 162.089844 297.726562 C 161.074219 295.695312 166.457031 293.015625 165.449219 291.007812 L 159.992188 290.585938 C 154.984375 288.082031 153.046875 282.1875 146.972656 282.1875 Z M 146.972656 282.1875 "/>
<path style=" stroke:none;fill-rule:nonzero;fill:rgb(88.627452%,47.058824%,63.137257%);fill-opacity:1;" d="M 204.921875 288.066406 L 205.761719 288.066406 C 205.761719 290.792969 204.921875 290.792969 204.921875 288.066406 Z M 204.921875 288.066406 "/>
</g>
</svg>
