<?xml version="1.0" encoding="UTF-8"?>
<svg xmlns="http://www.w3.org/2000/svg" xmlns:xlink="http://www.w3.org/1999/xlink" width="430px" height="430px" viewBox="0 0 430 430" version="1.1">
<g id="surface1">
<rect x="0" y="0" width="430" height="430" style="fill:rgb(0%,0%,0%);fill-opacity:1;stroke:none;"/>
<path style=" stroke:none;fill-rule:evenodd;fill:rgb(52.549022%,100%,35.294119%);fill-opacity:1;" d="M 204.921875 254.472656 L 199.042969 257.414062 C 199.042969 269.007812 218.964844 260.445312 210.382812 256.152344 L 207.859375 256.152344 L 204.921875 254.472656 M 182.246094 230.117188 C 182.246094 231.386719 174.609375 231.207031 173.429688 231.796875 C 170.476562 233.273438 169.496094 232.636719 166.710938 232.636719 C 166.507812 232.636719 159.046875 240.820312 158.730469 241.453125 C 158.046875 242.820312 155.25 244.574219 156.210938 246.492188 C 158.113281 250.296875 155.195312 256.222656 157.050781 259.929688 C 157.9375 261.707031 157.046875 264.125 157.890625 265.8125 C 162.417969 274.863281 158.125 276.121094 167.128906 285.125 L 170.070312 288.90625 C 180.105469 293.925781 185.449219 294.785156 198.203125 294.785156 C 200.574219 294.785156 203.375 288.34375 206.179688 289.746094 C 206.726562 290.019531 207.65625 294.683594 209.539062 295.625 C 217.46875 299.589844 231.542969 294.703125 238.09375 291.425781 C 241.148438 289.898438 246.253906 281.410156 247.753906 278.40625 L 251.953125 275.046875 C 254.34375 270.269531 256.234375 250.015625 253.632812 244.8125 L 247.335938 237.675781 C 243.128906 237.675781 242.363281 233.929688 238.09375 231.796875 C 236.269531 230.886719 231.179688 232.636719 228.859375 232.636719 C 226.910156 232.636719 226.226562 231.742188 224.65625 230.957031 C 219.847656 228.550781 210.660156 234.179688 207.023438 235.996094 C 205.246094 236.882812 200.90625 234.199219 199.460938 233.476562 C 193.890625 230.691406 188.511719 230.117188 182.246094 230.117188 Z M 182.246094 230.117188 "/>
<path style=" stroke:none;fill-rule:evenodd;fill:rgb(92.156863%,34.117648%,100%);fill-opacity:1;" d="M 204.921875 258.671875 C 204.921875 265.371094 208.511719 258.671875 204.921875 258.671875 M 204.921875 254.472656 L 199.042969 257.414062 C 199.042969 269.007812 218.964844 260.445312 210.382812 256.152344 L 207.859375 256.152344 Z M 204.921875 254.472656 "/>
<path style=" stroke:none;fill-rule:nonzero;fill:rgb(15.294118%,95.686275%,99.215686%);fill-opacity:1;" d="M 204.921875 258.671875 C 204.921875 265.371094 208.511719 258.671875 204.921875 258.671875 Z M 204.921875 258.671875 "/>
</g>
</svg>
