<?xml version="1.0" encoding="UTF-8"?>
<svg xmlns="http://www.w3.org/2000/svg" xmlns:xlink="http://www.w3.org/1999/xlink" width="430px" height="430px" viewBox="0 0 430 430" version="1.1">
<g id="surface1">
<rect x="0" y="0" width="430" height="430" style="fill:rgb(0%,0%,0%);fill-opacity:1;stroke:none;"/>
<path style=" stroke:none;fill-rule:evenodd;fill:rgb(100%,100%,0%);fill-opacity:1;" d="M 318.300781 193.164062 C 318.300781 199.371094 320.074219 193.164062 318.300781 193.164062 M 330.058594 189.804688 C 330.058594 191.375 319.980469 191.359375 319.980469 193.585938 C 319.980469 196.191406 330.828125 194.597656 331.320312 194.84375 C 333.621094 195.996094 335.515625 195.261719 338.039062 196.523438 L 340.554688 199.042969 L 340.554688 192.324219 C 338.695312 191.394531 337.453125 193.292969 335.515625 192.324219 L 330.058594 189.804688 M 318.300781 188.125 L 316.621094 189.382812 C 314.1875 194.257812 324.617188 188.125 318.300781 188.125 M 93.222656 184.765625 C 93.222656 189.441406 94.996094 184.765625 93.222656 184.765625 M 93.222656 177.207031 L 92.382812 179.304688 L 92.382812 181.40625 C 92.382812 188.03125 95.550781 177.207031 93.222656 177.207031 M 318.300781 168.808594 L 318.71875 178.046875 C 319.199219 178.046875 319.890625 168.808594 318.300781 168.808594 M 83.984375 178.046875 C 83.984375 180.6875 87.070312 180.4375 87.34375 180.984375 C 89.375 185.046875 87.71875 188.101562 92.804688 190.644531 C 94.796875 191.640625 94.542969 186.445312 95.320312 186.445312 L 96.164062 188.964844 L 97 187.285156 L 98.261719 189.804688 C 98.261719 186.6875 98.574219 181.203125 99.941406 178.46875 C 100.835938 176.679688 99.101562 163.421875 99.101562 160.410156 C 99.101562 158.265625 100.46875 150.128906 99.941406 149.070312 C 98.019531 145.226562 92.199219 138.519531 94.902344 133.117188 C 96.96875 128.984375 100.222656 129.40625 103.71875 127.65625 C 103.71875 127.65625 105.398438 124.296875 105.398438 124.296875 C 105.398438 124.296875 109.179688 123.039062 109.179688 123.039062 C 109.179688 123.039062 110.019531 118.835938 110.019531 118.835938 C 111.253906 116.371094 114.308594 116.980469 115.058594 115.476562 C 115.738281 114.121094 118.457031 113.875 119.257812 115.476562 C 120.703125 118.371094 116.917969 120.996094 115.898438 123.039062 C 111.53125 131.769531 108.339844 142.363281 108.339844 152.851562 C 108.339844 156.320312 105.132812 161.117188 108.757812 162.929688 C 111.167969 164.132812 118.304688 154.335938 119.257812 152.429688 C 124.589844 141.769531 122.703125 129.582031 127.65625 119.679688 C 127.65625 119.679688 128.496094 113.796875 128.496094 113.796875 C 129.167969 112.453125 136.488281 110.867188 138.15625 111.699219 C 142.910156 114.074219 137.726562 122.210938 136.054688 125.554688 C 134.625 128.417969 135.785156 132.816406 134.375 135.632812 C 131.902344 140.578125 130.132812 145.800781 127.65625 150.75 C 123.582031 158.898438 115.714844 165.394531 111.699219 173.429688 C 109.800781 177.226562 98.34375 186.695312 104.5625 189.804688 C 107.46875 191.257812 113.953125 185.109375 116.320312 183.925781 C 127.511719 178.328125 139.097656 155.582031 144.453125 144.875 C 149.355469 135.070312 145.734375 119.636719 148.652344 113.796875 C 148.652344 113.796875 151.171875 113.796875 151.171875 113.796875 C 151.171875 113.796875 152.011719 106.242188 152.011719 106.242188 C 152.371094 105.519531 153.644531 107.175781 154.53125 105.398438 C 154.53125 105.398438 155.371094 99.523438 155.371094 99.523438 C 155.371094 99.523438 157.050781 99.523438 157.050781 99.523438 C 158.246094 97.132812 156.792969 93.140625 159.992188 91.542969 C 164.527344 89.273438 169.390625 87.683594 173.429688 85.664062 C 173.535156 85.609375 173.878906 82.917969 175.109375 82.304688 C 175.109375 82.304688 178.046875 81.882812 178.046875 81.882812 C 178.726562 80.527344 178.222656 79.066406 180.148438 78.105469 C 181.507812 77.425781 182.667969 78.945312 183.507812 78.945312 C 183.507812 78.945312 189.382812 77.265625 189.382812 77.265625 C 189.382812 77.265625 194.421875 79.785156 194.421875 79.785156 C 195.84375 80.496094 203.191406 80.625 204.5 80.625 C 207.367188 80.625 222.175781 79.382812 224.65625 80.625 C 226.484375 81.539062 228.34375 82.070312 227.597656 83.5625 C 227.597656 83.5625 228.859375 85.664062 228.859375 85.664062 C 225.9375 87.125 220.859375 84.445312 220.039062 86.085938 C 220.039062 86.085938 216.679688 86.921875 216.679688 86.921875 C 216.679688 88.40625 220.039062 91.167969 220.039062 91.960938 C 220.039062 93.445312 213.433594 90.96875 212.898438 90.703125 C 212.898438 90.703125 201.984375 91.542969 201.984375 91.542969 C 196.855469 91.542969 175.167969 96.972656 170.90625 99.101562 C 162.570312 103.269531 158.167969 114.082031 154.53125 121.359375 C 153.980469 122.460938 151.867188 131.015625 154.109375 131.015625 C 159.492188 131.015625 166.121094 115.773438 170.90625 113.378906 C 185.058594 106.304688 181.695312 103.300781 199.042969 103.300781 C 199.042969 103.300781 199.882812 102.460938 199.882812 102.460938 C 212.808594 102.460938 222.046875 104.09375 232.21875 109.179688 C 239.332031 112.738281 240.34375 123.742188 246.492188 126.816406 C 247.886719 127.511719 251.558594 131.84375 253.210938 131.015625 C 256.316406 129.464844 250.921875 120.972656 250.273438 119.679688 C 247.539062 114.207031 246.800781 110.214844 244.394531 105.398438 C 244.394531 105.398438 237.675781 98.679688 237.675781 98.679688 C 237.675781 98.679688 240.195312 97.84375 240.195312 97.84375 C 241.597656 95.039062 239.65625 90.703125 244.8125 90.703125 C 245.390625 90.703125 245.390625 91.542969 246.492188 91.542969 C 248.019531 91.542969 247.433594 93.839844 247.753906 94.484375 C 248.601562 96.179688 251.640625 98.058594 252.792969 100.359375 C 254.917969 104.613281 254.015625 110.363281 256.152344 114.640625 C 257.691406 117.714844 258.609375 122.070312 260.351562 125.554688 C 260.351562 125.554688 260.351562 138.992188 260.351562 138.992188 C 263.816406 145.925781 273.214844 171.25 280.085938 174.6875 C 281.460938 175.371094 284.164062 182.246094 289.328125 182.246094 C 289.328125 182.246094 290.164062 184.765625 290.164062 184.765625 C 290.164062 184.765625 297.726562 186.445312 297.726562 186.445312 C 297.726562 186.445312 298.5625 183.925781 298.5625 183.925781 C 299.015625 183.925781 299.617188 188.4375 301.921875 187.285156 C 305.089844 185.703125 301.40625 183.308594 300.664062 181.828125 C 300.664062 181.828125 300.242188 179.726562 300.242188 179.726562 C 300.242188 179.726562 298.5625 181.40625 298.5625 181.40625 C 298.5625 181.40625 298.144531 178.46875 298.144531 178.46875 C 295.929688 174.039062 292.625 171.625 290.585938 167.546875 C 288.1875 162.753906 286.269531 158.917969 283.867188 154.109375 C 283.867188 154.109375 280.507812 150.75 280.507812 150.75 C 280.507812 150.75 277.988281 143.195312 277.988281 143.195312 C 277.988281 143.195312 276.308594 143.195312 276.308594 143.195312 C 273.691406 137.960938 274.710938 130.757812 272.109375 125.554688 C 271.121094 123.578125 263.914062 111.710938 264.550781 110.4375 C 266.976562 105.589844 275.582031 111.699219 277.570312 111.699219 C 277.570312 111.699219 280.085938 109.179688 280.085938 109.179688 C 280.085938 109.179688 284.707031 115.476562 284.707031 115.476562 C 285.941406 117.945312 281.972656 119.246094 283.027344 121.359375 C 286.160156 127.625 281.15625 138.609375 284.707031 145.710938 C 284.707031 145.710938 287.226562 148.234375 287.226562 148.234375 C 288.675781 151.132812 287.464844 152.761719 291.007812 154.53125 C 292.863281 155.460938 295.578125 160.222656 298.5625 158.730469 C 300.785156 157.621094 298.144531 148.003906 298.144531 146.554688 C 298.144531 143.992188 297.914062 141.054688 296.464844 138.15625 C 295.582031 136.386719 298.144531 135.910156 298.144531 134.796875 C 298.144531 129.691406 294.4375 124.859375 292.265625 120.515625 C 291.097656 118.179688 292.390625 110.710938 296.046875 112.539062 C 296.046875 112.539062 296.882812 115.058594 296.882812 115.058594 C 302.691406 117.960938 308.964844 116.964844 311.582031 122.195312 C 312.605469 124.242188 310.742188 127.382812 310.742188 128.914062 C 310.742188 128.914062 312.421875 130.59375 312.421875 130.59375 C 312.421875 131.996094 310.527344 132.703125 309.902344 133.953125 C 308.375 137.011719 308.25 140.621094 306.542969 144.03125 C 304.949219 147.21875 310.917969 150.40625 309.0625 154.109375 C 305.824219 160.589844 303.578125 170.859375 306.542969 176.789062 C 306.542969 176.789062 306.542969 182.664062 306.542969 182.664062 C 306.542969 182.664062 309.0625 184.34375 309.0625 184.34375 C 309.0625 184.34375 309.0625 188.546875 309.0625 188.546875 C 309.925781 190.269531 313.800781 189.804688 314.523438 189.804688 C 316.386719 189.804688 315.234375 194.171875 315.78125 195.265625 C 316.199219 196.101562 318.410156 195.886719 317.460938 197.78125 C 316.339844 200.023438 306 200.054688 308.222656 204.5 C 308.222656 204.5 308.640625 206.601562 308.640625 206.601562 C 319.839844 212.199219 333.144531 186.320312 343.496094 207.023438 C 348.535156 217.097656 321.777344 212.632812 317.039062 215 C 315.082031 215.980469 311.25 220.503906 308.640625 219.199219 C 306.242188 218 304.492188 217.199219 303.183594 214.578125 C 303.183594 214.578125 303.601562 209.121094 303.601562 209.121094 C 303.601562 209.121094 300.664062 211.640625 300.664062 211.640625 C 300.664062 220.371094 307.058594 226.710938 315.359375 222.558594 C 315.359375 222.558594 322.078125 215.839844 322.078125 215.839844 C 322.078125 215.839844 325.4375 217.519531 325.4375 217.519531 C 326.839844 217.519531 328.238281 216.679688 329.640625 216.679688 C 331.011719 216.679688 333.449219 220.039062 333.835938 220.039062 C 337.023438 220.039062 340.761719 218.257812 343.914062 216.679688 C 345.457031 215.910156 347.992188 209.296875 346.855469 207.023438 C 346.113281 205.539062 344.316406 203.699219 344.335938 203.664062 C 346.101562 200.132812 348.308594 201.59375 349.375 199.460938 C 350.96875 196.273438 344.152344 183.085938 343.078125 183.085938 C 343.078125 183.085938 340.554688 184.765625 340.554688 184.765625 C 340.554688 184.765625 338.039062 182.246094 338.039062 182.246094 C 334.785156 182.246094 327.488281 184.765625 327.117188 184.765625 C 325.847656 184.765625 321.660156 189.386719 320.820312 187.703125 C 320.390625 186.84375 321.367188 183.085938 322.078125 183.085938 C 322.078125 183.085938 322.921875 186.445312 322.921875 186.445312 C 322.921875 186.445312 324.179688 180.148438 324.179688 180.148438 C 324.179688 180.148438 326.28125 181.40625 326.28125 181.40625 C 327.546875 180.773438 329.171875 176.179688 330.476562 175.527344 C 332.980469 174.277344 335.195312 176.59375 336.777344 173.429688 C 340.304688 166.375 338.308594 156.335938 335.097656 149.914062 C 335.097656 149.914062 334.257812 143.195312 334.257812 143.195312 C 334.257812 143.195312 332.578125 143.195312 332.578125 143.195312 C 332.578125 143.195312 331.738281 138.15625 331.738281 138.15625 C 326.648438 127.972656 320.902344 124.128906 312.84375 120.097656 C 312.511719 119.933594 303.605469 108.339844 301.921875 108.339844 C 298.863281 108.339844 293.796875 105.820312 289.328125 105.820312 C 287.496094 105.820312 284.320312 108.359375 282.609375 107.5 C 274.355469 103.371094 280.316406 103.300781 270.007812 103.300781 C 270.007812 103.300781 267.492188 100.78125 267.492188 100.78125 C 267.492188 100.78125 266.648438 102.460938 266.648438 102.460938 C 266.648438 102.460938 261.191406 102.882812 261.191406 102.882812 C 260.816406 103.628906 260.410156 108.160156 259.09375 107.5 C 257.070312 106.488281 252.726562 91.832031 251.113281 88.601562 C 247.570312 81.515625 240.988281 87.53125 235.578125 84.824219 C 233.972656 84.023438 229.707031 73.90625 227.179688 73.90625 C 217.15625 73.90625 189.308594 68.066406 179.304688 73.066406 C 179.304688 73.066406 174.265625 78.105469 174.265625 78.105469 C 174.265625 78.105469 170.90625 77.265625 170.90625 77.265625 C 170.566406 77.4375 164.640625 85.859375 163.351562 86.503906 C 161.054688 87.652344 155.929688 89.167969 154.53125 91.960938 C 154.53125 91.960938 152.011719 100.359375 152.011719 100.359375 C 152.011719 100.359375 146.972656 104.5625 146.972656 104.5625 C 146.972656 104.5625 146.554688 106.660156 146.554688 106.660156 C 145.570312 106.660156 146.867188 103.144531 144.875 104.140625 C 144.875 104.140625 144.03125 107.5 144.03125 107.5 C 144.03125 107.5 142.351562 104.980469 142.351562 104.980469 C 140.132812 103.871094 135.082031 103.996094 133.117188 104.980469 C 133.117188 104.980469 130.59375 108.339844 130.59375 108.339844 C 130.421875 108.339844 126.542969 107.628906 125.976562 108.757812 C 125.976562 108.757812 125.554688 112.539062 125.554688 112.539062 C 124.722656 112.957031 121.253906 105.03125 118 106.660156 C 113.710938 108.804688 111.125 114.21875 107.078125 114.21875 C 106.324219 114.21875 104.300781 120.097656 102.039062 120.097656 C 102.039062 120.097656 101.203125 118.417969 101.203125 118.417969 C 100.859375 118.417969 100.605469 122.078125 99.523438 122.617188 C 99.523438 122.617188 96.164062 123.457031 96.164062 123.457031 C 96.164062 123.457031 94.902344 127.234375 94.902344 127.234375 C 94.902344 127.234375 91.542969 128.914062 91.542969 128.914062 C 91.542969 128.914062 91.542969 134.796875 91.542969 134.796875 C 89.546875 138.789062 87.679688 133.535156 86.921875 133.535156 C 86.921875 133.535156 81.464844 139.835938 81.464844 139.835938 C 80.433594 141.894531 80.753906 144.613281 79.785156 146.554688 C 79.785156 146.554688 76.425781 150.75 76.425781 150.75 C 76.425781 150.75 76.425781 158.3125 76.425781 158.3125 C 76.425781 158.3125 73.90625 156.632812 73.90625 156.632812 C 71.5625 161.316406 73.261719 176.367188 78.945312 176.367188 C 78.945312 172.1875 74.964844 173.835938 78.945312 165.867188 C 80.257812 163.242188 80.324219 146.132812 85.242188 146.132812 C 87.34375 146.132812 86.503906 154.375 86.503906 155.789062 C 86.503906 161.234375 87.34375 167.265625 87.34375 172.167969 C 87.34375 173.183594 87.871094 177.207031 86.085938 177.207031 C 86.085938 177.207031 85.242188 175.527344 85.242188 175.527344 C 85.242188 175.527344 83.984375 178.046875 83.984375 178.046875 M 330.898438 171.328125 C 329.195312 171.328125 330.851562 172.167969 331.738281 172.167969 C 334.269531 172.167969 336.648438 166.453125 335.097656 163.351562 C 334.097656 161.347656 335.210938 158.542969 334.257812 156.632812 C 331.820312 151.757812 329.171875 147.296875 326.699219 142.351562 C 326.699219 142.351562 326.28125 139.414062 326.28125 139.414062 C 325.007812 138.140625 323.242188 130.433594 320.398438 131.855469 C 318.554688 132.777344 319.980469 140.238281 319.980469 142.773438 C 319.980469 146.890625 318.84375 175.351562 319.980469 177.625 C 319.980469 177.625 321.242188 176.367188 321.242188 176.367188 C 321.242188 176.367188 322.078125 178.046875 322.078125 178.046875 C 322.078125 178.046875 322.921875 176.367188 322.921875 176.367188 C 322.921875 176.367188 323.757812 178.046875 323.757812 178.046875 C 323.757812 178.046875 324.179688 172.585938 324.179688 172.585938 C 324.746094 171.453125 326.824219 172.734375 327.960938 172.167969 C 328.398438 171.949219 330.898438 167.089844 330.898438 171.328125 Z M 330.898438 171.328125 "/>
<path style=" stroke:none;fill-rule:evenodd;fill:rgb(0%,100%,100%);fill-opacity:1;" d="M 260.351562 181.40625 C 260.351562 183.074219 263.136719 183.429688 264.132812 183.925781 C 264.335938 184.027344 267.539062 188.644531 267.910156 189.382812 L 270.851562 197.363281 L 271.6875 194.003906 C 272.5 194.003906 274.679688 203.242188 275.046875 203.242188 L 275.890625 201.5625 C 280.714844 199.148438 279.957031 200.039062 277.148438 194.421875 C 273.964844 188.054688 268.179688 181.40625 260.351562 181.40625 M 150.332031 177.207031 C 150.332031 179.585938 147.109375 178.886719 146.554688 178.886719 L 143.195312 182.246094 C 138.898438 184.394531 138.34375 189.617188 135.632812 192.324219 C 133.53125 194.425781 130.308594 197.519531 129.335938 199.460938 C 128.929688 200.277344 129.390625 203.242188 130.59375 203.242188 L 134.796875 199.042969 L 135.632812 200.722656 L 137.3125 196.523438 C 138 196.523438 137.347656 203.59375 139.414062 199.460938 C 140.769531 196.75 139.933594 190.597656 143.195312 188.964844 C 144.296875 188.414062 149.675781 183.085938 149.914062 183.085938 L 151.59375 184.765625 L 153.273438 182.246094 C 154.261719 181.75 161.769531 180.34375 161.25 179.304688 C 160.476562 177.761719 158.875 179.726562 158.3125 179.726562 L 155.789062 177.207031 C 154.554688 176.589844 151 177.207031 150.332031 177.207031 M 224.238281 174.6875 C 224.238281 175.382812 214.277344 178.199219 212.898438 178.886719 C 202.140625 184.265625 192.417969 176.367188 182.246094 176.367188 C 177.617188 176.367188 168.097656 176.207031 170.488281 180.984375 L 172.585938 178.886719 L 174.265625 182.246094 C 175.273438 182.75 184.644531 186.445312 185.1875 186.445312 C 189.164062 186.445312 204.296875 192.007812 208.703125 189.804688 C 211.234375 188.539062 214.59375 189.378906 217.101562 188.125 L 230.539062 181.40625 C 232.070312 180.640625 233.742188 182.246094 234.734375 182.246094 L 238.9375 179.726562 C 239.839844 180.175781 240.445312 181.40625 241.453125 181.40625 L 242.296875 178.886719 L 243.554688 180.148438 C 244.039062 179.175781 241.800781 176.367188 241.453125 176.367188 C 236.816406 176.367188 229.835938 174.6875 224.238281 174.6875 M 167.128906 174.6875 L 166.289062 177.207031 L 166.289062 179.304688 C 166.289062 186.617188 171.882812 174.6875 167.128906 174.6875 M 235.996094 156.210938 C 235.996094 157.609375 232.449219 157.050781 231.375 157.050781 C 227.96875 157.050781 222.445312 161.402344 218.78125 159.570312 L 217.9375 157.890625 L 216.257812 160.410156 C 214.488281 161.296875 206.214844 161.25 204.5 161.25 C 195.640625 161.25 184.8125 162.324219 175.945312 157.890625 C 171.445312 155.640625 157.363281 161.457031 160.410156 167.546875 C 161.8125 170.351562 175.488281 166.898438 179.304688 168.808594 C 191.0625 174.6875 216.910156 173.101562 228.859375 167.128906 C 233.734375 164.691406 245.242188 170.695312 247.335938 169.648438 L 247.753906 164.1875 C 246.042969 160.765625 239.339844 156.210938 235.996094 156.210938 M 305.703125 139.414062 C 305.703125 145.621094 307.476562 139.414062 305.703125 139.414062 M 202.402344 138.574219 C 202.402344 139.382812 194.460938 142.425781 195.683594 144.875 C 197.578125 148.664062 220.25 147.917969 222.140625 146.972656 C 223.488281 146.296875 220.773438 141.671875 219.617188 141.09375 C 217.058594 139.8125 213.609375 139.414062 210.800781 139.414062 L 202.402344 138.574219 M 199.042969 115.898438 C 199.042969 117.394531 193.839844 117.03125 192.742188 117.578125 C 185.503906 121.199219 176.089844 121.285156 168.390625 125.136719 C 155.453125 131.601562 151.617188 149.019531 146.132812 159.992188 C 144.183594 163.886719 134.453125 176.707031 131.4375 179.726562 C 130.132812 181.027344 122.929688 184.128906 124.296875 186.867188 C 126.414062 191.097656 130.574219 183.097656 132.273438 182.246094 C 141.304688 177.730469 150.421875 172.410156 155.371094 162.507812 C 159.046875 155.160156 164.890625 139.0625 172.585938 135.214844 C 181.378906 130.820312 192.390625 131.191406 201.140625 126.816406 C 205.542969 124.617188 213.816406 127.695312 217.101562 129.335938 C 217.191406 129.382812 225.957031 129.144531 228.015625 130.175781 C 237.074219 134.703125 244.207031 147.019531 248.59375 155.789062 C 251.878906 162.363281 256.136719 169.429688 263.289062 173.007812 C 264.21875 173.472656 268.652344 176.980469 269.589844 175.109375 C 271.441406 171.402344 260.804688 160.058594 258.671875 155.789062 L 249.433594 136.476562 L 239.773438 127.65625 C 235.785156 125.664062 232.859375 122.097656 228.859375 120.097656 C 220.25 115.792969 209.4375 115.898438 199.042969 115.898438 M 181.40625 84.824219 C 181.40625 89.890625 187.742188 84.824219 181.40625 84.824219 M 132.695312 205.761719 C 131.472656 205.761719 115.734375 208.152344 115.476562 208.28125 L 107.5 211.640625 C 107.5 208.625 104.246094 210.171875 103.300781 212.0625 C 102.683594 213.296875 103.625 215.886719 102.039062 216.679688 C 101.589844 216.90625 97.609375 216.984375 97 216.679688 C 97 216.679688 86.503906 208.703125 86.503906 208.703125 C 86.503906 208.703125 86.085938 205.761719 86.085938 205.761719 C 83.210938 204.328125 78.984375 207.671875 76.84375 206.601562 C 76.84375 206.601562 76.007812 203.242188 76.007812 203.242188 C 76.007812 203.242188 74.746094 204.5 74.746094 204.5 C 73.546875 202.109375 78.945312 200.527344 78.945312 199.882812 C 78.945312 199.882812 81.882812 199.042969 81.882812 199.042969 C 83.703125 199.953125 90.703125 204.351562 90.703125 198.203125 C 92.382812 198.203125 98.246094 193.617188 99.101562 191.90625 C 99.101562 191.90625 98.261719 189.804688 98.261719 189.804688 C 98.261719 186.6875 98.574219 181.203125 99.941406 178.46875 C 100.835938 176.679688 99.101562 163.421875 99.101562 160.410156 C 99.101562 158.265625 100.46875 150.128906 99.941406 149.070312 C 98.019531 145.226562 92.199219 138.519531 94.902344 133.117188 C 96.96875 128.984375 100.222656 129.40625 103.71875 127.65625 C 103.71875 127.65625 105.398438 124.296875 105.398438 124.296875 C 105.398438 124.296875 109.179688 123.039062 109.179688 123.039062 C 109.179688 123.039062 110.019531 118.835938 110.019531 118.835938 C 111.253906 116.371094 114.308594 116.980469 115.058594 115.476562 C 115.738281 114.121094 118.457031 113.875 119.257812 115.476562 C 120.703125 118.371094 116.917969 120.996094 115.898438 123.039062 C 111.53125 131.769531 108.339844 142.363281 108.339844 152.851562 C 108.339844 156.320312 105.132812 161.117188 108.757812 162.929688 C 111.167969 164.132812 118.304688 154.335938 119.257812 152.429688 C 124.589844 141.769531 122.703125 129.582031 127.65625 119.679688 C 127.65625 119.679688 128.496094 113.796875 128.496094 113.796875 C 129.167969 112.453125 136.488281 110.867188 138.15625 111.699219 C 142.910156 114.074219 137.726562 122.210938 136.054688 125.554688 C 134.625 128.417969 135.785156 132.816406 134.375 135.632812 C 131.902344 140.578125 130.132812 145.800781 127.65625 150.75 C 123.582031 158.898438 115.714844 165.394531 111.699219 173.429688 C 109.800781 177.226562 98.34375 186.695312 104.5625 189.804688 C 107.46875 191.257812 113.953125 185.109375 116.320312 183.925781 C 127.511719 178.328125 139.097656 155.582031 144.453125 144.875 C 149.355469 135.070312 145.734375 119.636719 148.652344 113.796875 C 148.652344 113.796875 151.171875 113.796875 151.171875 113.796875 C 151.171875 113.796875 152.011719 106.242188 152.011719 106.242188 C 152.371094 105.519531 153.644531 107.175781 154.53125 105.398438 C 154.53125 105.398438 155.371094 99.523438 155.371094 99.523438 C 155.371094 99.523438 157.050781 99.523438 157.050781 99.523438 C 158.246094 97.132812 156.792969 93.140625 159.992188 91.542969 C 164.527344 89.273438 169.390625 87.683594 173.429688 85.664062 C 173.535156 85.609375 173.878906 82.917969 175.109375 82.304688 C 175.109375 82.304688 178.046875 81.882812 178.046875 81.882812 C 178.726562 80.527344 178.222656 79.066406 180.148438 78.105469 C 181.507812 77.425781 182.667969 78.945312 183.507812 78.945312 C 183.507812 78.945312 189.382812 77.265625 189.382812 77.265625 C 189.382812 77.265625 194.421875 79.785156 194.421875 79.785156 C 195.84375 80.496094 203.191406 80.625 204.5 80.625 C 207.367188 80.625 222.175781 79.382812 224.65625 80.625 C 226.484375 81.539062 228.34375 82.070312 227.597656 83.5625 C 227.597656 83.5625 228.859375 85.664062 228.859375 85.664062 C 225.9375 87.125 220.859375 84.445312 220.039062 86.085938 C 220.039062 86.085938 216.679688 86.921875 216.679688 86.921875 C 216.679688 88.40625 220.039062 91.167969 220.039062 91.960938 C 220.039062 93.445312 213.433594 90.96875 212.898438 90.703125 C 212.898438 90.703125 201.984375 91.542969 201.984375 91.542969 C 196.855469 91.542969 175.167969 96.972656 170.90625 99.101562 C 162.570312 103.269531 158.167969 114.082031 154.53125 121.359375 C 153.980469 122.460938 151.867188 131.015625 154.109375 131.015625 C 159.492188 131.015625 166.121094 115.773438 170.90625 113.378906 C 185.058594 106.304688 181.695312 103.300781 199.042969 103.300781 C 199.042969 103.300781 199.882812 102.460938 199.882812 102.460938 C 212.808594 102.460938 222.046875 104.09375 232.21875 109.179688 C 239.332031 112.738281 240.34375 123.742188 246.492188 126.816406 C 247.886719 127.511719 251.558594 131.84375 253.210938 131.015625 C 256.316406 129.464844 250.921875 120.972656 250.273438 119.679688 C 247.539062 114.207031 246.800781 110.214844 244.394531 105.398438 C 244.394531 105.398438 237.675781 98.679688 237.675781 98.679688 C 237.675781 98.679688 240.195312 97.84375 240.195312 97.84375 C 241.597656 95.039062 239.65625 90.703125 244.8125 90.703125 C 245.390625 90.703125 245.390625 91.542969 246.492188 91.542969 C 248.019531 91.542969 247.433594 93.839844 247.753906 94.484375 C 248.601562 96.179688 251.640625 98.058594 252.792969 100.359375 C 254.917969 104.613281 254.015625 110.363281 256.152344 114.640625 C 257.691406 117.714844 258.609375 122.070312 260.351562 125.554688 C 260.351562 125.554688 260.351562 138.992188 260.351562 138.992188 C 263.816406 145.925781 273.214844 171.25 280.085938 174.6875 C 281.460938 175.371094 284.164062 182.246094 289.328125 182.246094 C 289.328125 182.246094 290.164062 184.765625 290.164062 184.765625 C 290.164062 184.765625 297.726562 186.445312 297.726562 186.445312 C 297.726562 186.445312 298.5625 183.925781 298.5625 183.925781 C 299.015625 183.925781 299.617188 188.4375 301.921875 187.285156 C 305.089844 185.703125 301.40625 183.308594 300.664062 181.828125 C 300.664062 181.828125 300.242188 179.726562 300.242188 179.726562 C 300.242188 179.726562 298.5625 181.40625 298.5625 181.40625 C 298.5625 181.40625 298.144531 178.46875 298.144531 178.46875 C 295.929688 174.039062 292.625 171.625 290.585938 167.546875 C 288.1875 162.753906 286.269531 158.917969 283.867188 154.109375 C 283.867188 154.109375 280.507812 150.75 280.507812 150.75 C 280.507812 150.75 277.988281 143.195312 277.988281 143.195312 C 277.988281 143.195312 276.308594 143.195312 276.308594 143.195312 C 273.691406 137.960938 274.710938 130.757812 272.109375 125.554688 C 271.121094 123.578125 263.914062 111.710938 264.550781 110.4375 C 266.976562 105.589844 275.582031 111.699219 277.570312 111.699219 C 277.570312 111.699219 280.085938 109.179688 280.085938 109.179688 C 280.085938 109.179688 284.707031 115.476562 284.707031 115.476562 C 285.941406 117.945312 281.972656 119.246094 283.027344 121.359375 C 286.160156 127.625 281.15625 138.609375 284.707031 145.710938 C 284.707031 145.710938 287.226562 148.234375 287.226562 148.234375 C 288.675781 151.132812 287.464844 152.761719 291.007812 154.53125 C 292.863281 155.460938 295.578125 160.222656 298.5625 158.730469 C 300.785156 157.621094 298.144531 148.003906 298.144531 146.554688 C 298.144531 143.992188 297.914062 141.054688 296.464844 138.15625 C 295.582031 136.386719 298.144531 135.910156 298.144531 134.796875 C 298.144531 129.691406 294.4375 124.859375 292.265625 120.515625 C 291.097656 118.179688 292.390625 110.710938 296.046875 112.539062 C 296.046875 112.539062 296.882812 115.058594 296.882812 115.058594 C 302.691406 117.960938 308.964844 116.964844 311.582031 122.195312 C 312.605469 124.242188 310.742188 127.382812 310.742188 128.914062 C 310.742188 128.914062 312.421875 130.59375 312.421875 130.59375 C 312.421875 131.996094 310.527344 132.703125 309.902344 133.953125 C 308.375 137.011719 308.25 140.621094 306.542969 144.03125 C 304.949219 147.21875 310.917969 150.40625 309.0625 154.109375 C 305.824219 160.589844 303.578125 170.859375 306.542969 176.789062 C 306.542969 176.789062 306.542969 182.664062 306.542969 182.664062 C 306.542969 182.664062 309.0625 184.34375 309.0625 184.34375 C 309.0625 184.34375 309.0625 188.546875 309.0625 188.546875 C 309.925781 190.269531 313.800781 189.804688 314.523438 189.804688 C 316.386719 189.804688 315.234375 194.171875 315.78125 195.265625 C 316.199219 196.101562 318.410156 195.886719 317.460938 197.78125 C 316.339844 200.023438 306 200.054688 308.222656 204.5 C 308.222656 204.5 308.640625 206.601562 308.640625 206.601562 C 319.839844 212.199219 333.144531 186.320312 343.496094 207.023438 C 348.535156 217.097656 321.777344 212.632812 317.039062 215 C 315.082031 215.980469 311.25 220.503906 308.640625 219.199219 C 306.242188 218 304.492188 217.199219 303.183594 214.578125 C 303.183594 214.578125 303.601562 209.121094 303.601562 209.121094 C 303.601562 209.121094 300.664062 211.640625 300.664062 211.640625 C 300.664062 208.527344 293.8125 210.945312 291.84375 209.960938 C 284.332031 206.203125 272.210938 201.5625 261.191406 201.5625 C 261.191406 201.5625 258.671875 200.722656 258.671875 200.722656 C 258.671875 200.722656 256.992188 200.722656 256.992188 200.722656 C 253.101562 200.722656 252.171875 198.101562 249.015625 196.523438 C 245.460938 194.746094 241.789062 194.84375 238.515625 194.84375 C 238.515625 194.84375 235.15625 194.84375 235.15625 194.84375 C 235.15625 194.84375 233.476562 194.84375 233.476562 194.84375 C 233.476562 193.964844 233.875 192.324219 232.636719 192.324219 C 232.636719 185.207031 228.210938 196.425781 224.65625 198.203125 C 224.65625 198.203125 222.140625 197.363281 222.140625 197.363281 C 222.140625 197.363281 221.296875 199.042969 221.296875 199.042969 C 219.195312 200.09375 216.355469 197.363281 214.578125 197.363281 C 213.699219 197.363281 208.179688 199.304688 207.023438 199.882812 C 203.621094 201.582031 196.914062 197.363281 193.585938 197.363281 C 191.988281 197.363281 189.082031 198.890625 187.703125 198.203125 C 187.703125 198.203125 180.984375 193.164062 180.984375 193.164062 C 180.984375 193.164062 179.304688 190.644531 179.304688 190.644531 C 177.886719 190.644531 178.046875 193.171875 178.046875 194.003906 C 178.046875 194.003906 176.367188 194.84375 176.367188 194.84375 C 175.171875 194.84375 172.167969 195.148438 172.167969 196.523438 C 166.109375 196.523438 159.996094 198.199219 154.953125 200.722656 C 151.015625 202.691406 144.703125 199.546875 140.671875 201.5625 C 138.910156 202.445312 132.695312 202.484375 132.695312 205.761719 Z M 132.695312 205.761719 "/>
<path style=" stroke:none;fill-rule:nonzero;fill:rgb(100%,100%,0%);fill-opacity:1;" d="M 181.40625 84.824219 C 181.40625 89.890625 187.742188 84.824219 181.40625 84.824219 Z M 181.40625 84.824219 "/>
<path style=" stroke:none;fill-rule:nonzero;fill:rgb(100%,100%,0%);fill-opacity:1;" d="M 199.042969 115.898438 C 199.042969 117.394531 193.839844 117.03125 192.742188 117.578125 C 185.503906 121.199219 176.089844 121.285156 168.390625 125.136719 C 155.453125 131.601562 151.617188 149.019531 146.132812 159.992188 C 144.183594 163.886719 134.453125 176.707031 131.4375 179.726562 C 130.132812 181.027344 122.929688 184.128906 124.296875 186.867188 C 126.414062 191.097656 130.574219 183.097656 132.273438 182.246094 C 141.304688 177.730469 150.421875 172.410156 155.371094 162.507812 C 159.046875 155.160156 164.890625 139.0625 172.585938 135.214844 C 181.378906 130.820312 192.390625 131.191406 201.140625 126.816406 C 205.542969 124.617188 213.816406 127.695312 217.101562 129.335938 C 217.191406 129.382812 225.957031 129.144531 228.015625 130.175781 C 237.074219 134.703125 244.207031 147.019531 248.59375 155.789062 C 251.878906 162.363281 256.136719 169.429688 263.289062 173.007812 C 264.21875 173.472656 268.652344 176.980469 269.589844 175.109375 C 271.441406 171.402344 260.804688 160.058594 258.671875 155.789062 L 249.433594 136.476562 L 239.773438 127.65625 C 235.785156 125.664062 232.859375 122.097656 228.859375 120.097656 C 220.25 115.792969 209.4375 115.898438 199.042969 115.898438 Z M 199.042969 115.898438 "/>
<path style=" stroke:none;fill-rule:nonzero;fill:rgb(0%,100%,100%);fill-opacity:1;" d="M 330.898438 171.328125 L 331.738281 172.167969 C 334.269531 172.167969 336.648438 166.453125 335.097656 163.351562 C 334.097656 161.347656 335.210938 158.542969 334.257812 156.632812 C 331.820312 151.757812 329.171875 147.296875 326.699219 142.351562 C 326.699219 142.351562 326.28125 139.414062 326.28125 139.414062 C 325.007812 138.140625 323.242188 130.433594 320.398438 131.855469 C 318.554688 132.777344 319.980469 140.238281 319.980469 142.773438 C 319.980469 146.890625 318.84375 175.351562 319.980469 177.625 C 319.980469 177.625 321.242188 176.367188 321.242188 176.367188 C 321.242188 176.367188 322.078125 178.046875 322.078125 178.046875 C 322.078125 178.046875 322.921875 176.367188 322.921875 176.367188 C 322.921875 176.367188 323.757812 178.046875 323.757812 178.046875 C 323.757812 178.046875 324.179688 172.585938 324.179688 172.585938 C 324.746094 171.453125 326.824219 172.734375 327.960938 172.167969 C 328.398438 171.949219 330.898438 167.089844 330.898438 171.328125 Z M 330.898438 171.328125 "/>
<path style=" stroke:none;fill-rule:nonzero;fill:rgb(100%,100%,0%);fill-opacity:1;" d="M 202.402344 138.574219 C 202.402344 139.382812 194.460938 142.425781 195.683594 144.875 C 197.578125 148.664062 220.25 147.917969 222.140625 146.972656 C 223.488281 146.296875 220.773438 141.671875 219.617188 141.09375 C 217.058594 139.8125 213.609375 139.414062 210.800781 139.414062 Z M 202.402344 138.574219 "/>
<path style=" stroke:none;fill-rule:nonzero;fill:rgb(100%,100%,0%);fill-opacity:1;" d="M 305.703125 139.414062 C 305.703125 145.621094 307.476562 139.414062 305.703125 139.414062 Z M 305.703125 139.414062 "/>
<path style=" stroke:none;fill-rule:nonzero;fill:rgb(0%,100%,100%);fill-opacity:1;" d="M 83.984375 178.046875 L 82.304688 178.886719 C 82.304688 178.886719 81.464844 178.046875 81.464844 178.046875 C 81.464844 178.046875 78.945312 176.367188 78.945312 176.367188 C 78.945312 172.1875 74.964844 173.835938 78.945312 165.867188 C 80.257812 163.242188 80.324219 146.132812 85.242188 146.132812 C 87.34375 146.132812 86.503906 154.375 86.503906 155.789062 C 86.503906 161.234375 87.34375 167.265625 87.34375 172.167969 C 87.34375 173.183594 87.871094 177.207031 86.085938 177.207031 C 86.085938 177.207031 85.242188 175.527344 85.242188 175.527344 C 85.242188 175.527344 83.984375 178.046875 83.984375 178.046875 Z M 83.984375 178.046875 "/>
<path style=" stroke:none;fill-rule:nonzero;fill:rgb(100%,100%,0%);fill-opacity:1;" d="M 235.996094 156.210938 C 235.996094 157.609375 232.449219 157.050781 231.375 157.050781 C 227.96875 157.050781 222.445312 161.402344 218.78125 159.570312 L 217.9375 157.890625 L 216.257812 160.410156 C 214.488281 161.296875 206.214844 161.25 204.5 161.25 C 195.640625 161.25 184.8125 162.324219 175.945312 157.890625 C 171.445312 155.640625 157.363281 161.457031 160.410156 167.546875 C 161.8125 170.351562 175.488281 166.898438 179.304688 168.808594 C 191.0625 174.6875 216.910156 173.101562 228.859375 167.128906 C 233.734375 164.691406 245.242188 170.695312 247.335938 169.648438 L 247.753906 164.1875 C 246.042969 160.765625 239.339844 156.210938 235.996094 156.210938 Z M 235.996094 156.210938 "/>
<path style=" stroke:none;fill-rule:nonzero;fill:rgb(0%,100%,100%);fill-opacity:1;" d="M 318.300781 168.808594 L 318.71875 178.046875 C 319.199219 178.046875 319.890625 168.808594 318.300781 168.808594 Z M 318.300781 168.808594 "/>
<path style=" stroke:none;fill-rule:nonzero;fill:rgb(100%,100%,0%);fill-opacity:1;" d="M 167.128906 174.6875 L 166.289062 177.207031 L 166.289062 179.304688 C 166.289062 186.617188 171.882812 174.6875 167.128906 174.6875 Z M 167.128906 174.6875 "/>
<path style=" stroke:none;fill-rule:nonzero;fill:rgb(100%,100%,0%);fill-opacity:1;" d="M 224.238281 174.6875 C 224.238281 175.382812 214.277344 178.199219 212.898438 178.886719 C 202.140625 184.265625 192.417969 176.367188 182.246094 176.367188 C 177.617188 176.367188 168.097656 176.207031 170.488281 180.984375 L 172.585938 178.886719 L 174.265625 182.246094 C 175.273438 182.75 184.644531 186.445312 185.1875 186.445312 C 189.164062 186.445312 204.296875 192.007812 208.703125 189.804688 C 211.234375 188.539062 214.59375 189.378906 217.101562 188.125 L 230.539062 181.40625 C 232.070312 180.640625 233.742188 182.246094 234.734375 182.246094 L 238.9375 179.726562 C 239.839844 180.175781 240.445312 181.40625 241.453125 181.40625 L 242.296875 178.886719 L 243.554688 180.148438 C 244.039062 179.175781 241.800781 176.367188 241.453125 176.367188 C 236.816406 176.367188 229.835938 174.6875 224.238281 174.6875 Z M 224.238281 174.6875 "/>
<path style=" stroke:none;fill-rule:nonzero;fill:rgb(100%,100%,0%);fill-opacity:1;" d="M 150.332031 177.207031 C 150.332031 179.585938 147.109375 178.886719 146.554688 178.886719 L 143.195312 182.246094 C 138.898438 184.394531 138.34375 189.617188 135.632812 192.324219 C 133.53125 194.425781 130.308594 197.519531 129.335938 199.460938 C 128.929688 200.277344 129.390625 203.242188 130.59375 203.242188 L 134.796875 199.042969 L 135.632812 200.722656 L 137.3125 196.523438 C 138 196.523438 137.347656 203.59375 139.414062 199.460938 C 140.769531 196.75 139.933594 190.597656 143.195312 188.964844 C 144.296875 188.414062 149.675781 183.085938 149.914062 183.085938 L 151.59375 184.765625 L 153.273438 182.246094 C 154.261719 181.75 161.769531 180.34375 161.25 179.304688 C 160.476562 177.761719 158.875 179.726562 158.3125 179.726562 L 155.789062 177.207031 C 154.554688 176.589844 151 177.207031 150.332031 177.207031 Z M 150.332031 177.207031 "/>
<path style=" stroke:none;fill-rule:nonzero;fill:rgb(100%,100%,0%);fill-opacity:1;" d="M 81.464844 178.046875 L 82.304688 178.886719 C 82.304688 178.886719 81.464844 178.046875 81.464844 178.046875 Z M 81.464844 178.046875 "/>
<path style=" stroke:none;fill-rule:nonzero;fill:rgb(100%,100%,0%);fill-opacity:1;" d="M 260.351562 181.40625 C 260.351562 183.074219 263.136719 183.429688 264.132812 183.925781 C 264.335938 184.027344 267.539062 188.644531 267.910156 189.382812 L 270.851562 197.363281 L 271.6875 194.003906 C 272.5 194.003906 274.679688 203.242188 275.046875 203.242188 L 275.890625 201.5625 C 280.714844 199.148438 279.957031 200.039062 277.148438 194.421875 C 273.964844 188.054688 268.179688 181.40625 260.351562 181.40625 Z M 260.351562 181.40625 "/>
<path style=" stroke:none;fill-rule:nonzero;fill:rgb(27.450982%,64.705884%,8.235294%);fill-opacity:1;" d="M 353.574219 188.125 C 353.574219 189.929688 353.921875 195.71875 357.351562 194.003906 C 360.882812 192.238281 355.917969 188.125 353.574219 188.125 Z M 353.574219 188.125 "/>
<path style=" stroke:none;fill-rule:nonzero;fill:rgb(100%,100%,0%);fill-opacity:1;" d="M 68.867188 188.964844 L 66.347656 191.90625 C 66.347656 198.75 74.679688 188.964844 68.867188 188.964844 Z M 68.867188 188.964844 "/>
<path style=" stroke:none;fill-rule:nonzero;fill:rgb(100%,100%,0%);fill-opacity:1;" d="M 178.046875 194.003906 L 178.046875 194.84375 C 178.046875 194.84375 180.984375 199.042969 180.984375 199.042969 C 183.078125 200.089844 184.125 200.191406 186.867188 201.5625 C 186.867188 201.5625 187.703125 203.242188 187.703125 203.242188 C 198.457031 203.242188 212.804688 204.082031 222.140625 204.082031 C 222.140625 204.082031 222.976562 202.402344 222.976562 202.402344 C 224.773438 201.503906 228.097656 202.660156 229.277344 200.304688 C 229.277344 200.304688 229.695312 197.363281 229.695312 197.363281 C 230.542969 196.515625 232.34375 192.324219 232.636719 192.324219 C 232.636719 185.207031 228.210938 196.425781 224.65625 198.203125 C 224.65625 198.203125 222.140625 197.363281 222.140625 197.363281 C 222.140625 197.363281 221.296875 199.042969 221.296875 199.042969 C 219.195312 200.09375 216.355469 197.363281 214.578125 197.363281 C 213.699219 197.363281 208.179688 199.304688 207.023438 199.882812 C 203.621094 201.582031 196.914062 197.363281 193.585938 197.363281 C 191.988281 197.363281 189.082031 198.890625 187.703125 198.203125 C 187.703125 198.203125 180.984375 193.164062 180.984375 193.164062 C 180.984375 193.164062 179.304688 190.644531 179.304688 190.644531 C 177.886719 190.644531 178.046875 193.171875 178.046875 194.003906 Z M 178.046875 194.003906 "/>
<path style=" stroke:none;fill-rule:nonzero;fill:rgb(0%,100%,100%);fill-opacity:1;" d="M 330.058594 189.804688 C 330.058594 191.375 319.980469 191.359375 319.980469 193.585938 C 319.980469 196.191406 330.828125 194.597656 331.320312 194.84375 C 333.621094 195.996094 335.515625 195.261719 338.039062 196.523438 L 340.554688 199.042969 L 340.554688 192.324219 C 338.695312 191.394531 337.453125 193.292969 335.515625 192.324219 Z M 330.058594 189.804688 "/>
<path style=" stroke:none;fill-rule:nonzero;fill:rgb(27.450982%,64.705884%,8.235294%);fill-opacity:1;" d="M 47.03125 193.164062 L 46.191406 196.101562 C 46.191406 206.925781 53.707031 193.164062 47.03125 193.164062 Z M 47.03125 193.164062 "/>
<path style=" stroke:none;fill-rule:nonzero;fill:rgb(60.000002%,32.549021%,100%);fill-opacity:1;" d="M 178.046875 194.84375 L 177.207031 195.683594 C 177.207031 195.683594 176.367188 194.84375 176.367188 194.84375 C 176.367188 194.84375 178.046875 194.003906 178.046875 194.003906 C 178.046875 194.003906 178.046875 194.84375 178.046875 194.84375 Z M 178.046875 194.84375 "/>
<path style=" stroke:none;fill-rule:nonzero;fill:rgb(60.000002%,32.549021%,100%);fill-opacity:1;" d="M 209.960938 293.105469 C 209.960938 291.46875 212.023438 292.703125 212.898438 292.265625 C 219.800781 288.816406 222.488281 293.945312 229.277344 293.945312 C 246.703125 293.945312 270.222656 283.023438 277.988281 267.492188 C 279.460938 264.546875 276.308594 261.675781 276.308594 259.511719 C 276.308594 259.511719 270.429688 259.511719 270.429688 259.511719 C 270.429688 261.0625 270.109375 264.332031 270.429688 264.96875 C 270.429688 264.96875 273.367188 267.910156 273.367188 267.910156 C 273.367188 267.910156 269.171875 264.550781 269.171875 264.550781 C 267.90625 263.289062 260.078125 257.957031 261.191406 255.734375 C 262.914062 252.285156 267.96875 258.671875 270.429688 258.671875 C 270.429688 258.671875 272.949219 255.734375 272.949219 255.734375 C 272.949219 255.734375 271.269531 254.890625 271.269531 254.890625 C 271.269531 254.890625 275.46875 251.53125 275.46875 251.53125 C 276.886719 248.699219 277.351562 245.25 278.828125 242.296875 C 279.226562 241.496094 276.925781 232.613281 276.308594 231.375 C 275.792969 230.34375 277.148438 220.734375 277.148438 218.359375 C 275.46875 218.359375 275.1875 214.015625 274.628906 212.898438 C 273.351562 210.351562 270.15625 208.15625 268.75 205.34375 C 268.75 205.34375 261.191406 201.5625 261.191406 201.5625 C 261.191406 201.5625 258.671875 200.722656 258.671875 200.722656 C 258.671875 201.898438 256.992188 201.898438 256.992188 200.722656 C 253.101562 200.722656 252.171875 198.101562 249.015625 196.523438 C 245.460938 194.746094 241.789062 194.84375 238.515625 194.84375 C 238.515625 194.84375 238.515625 196.523438 238.515625 196.523438 C 238.515625 201.007812 236.441406 199.410156 234.316406 203.664062 C 234.316406 203.664062 233.476562 207.859375 233.476562 207.859375 C 231.382812 212.046875 223.441406 216.027344 220.460938 217.519531 C 217.46875 219.015625 212.515625 218.132812 210.382812 219.199219 C 209.585938 219.59375 207.441406 219.332031 207.441406 218.359375 C 207.441406 218.359375 203.242188 218.359375 203.242188 218.359375 C 192.609375 218.359375 181.882812 214.695312 177.207031 205.34375 C 174.675781 200.28125 172.167969 204.003906 172.167969 196.523438 C 166.109375 196.523438 159.996094 198.199219 154.953125 200.722656 C 151.015625 202.691406 144.703125 199.546875 140.671875 201.5625 C 138.910156 202.445312 132.695312 202.484375 132.695312 205.761719 C 132.695312 205.761719 131.015625 213.320312 131.015625 213.320312 C 132.3125 213.320312 131.539062 219.410156 131.015625 220.460938 C 129.261719 223.964844 131.019531 228.027344 132.695312 231.375 C 133.582031 233.152344 131.015625 239.484375 131.015625 241.453125 C 131.015625 249.46875 141.09375 251.644531 141.09375 257.832031 C 143.273438 257.832031 143.664062 252.609375 147.390625 254.472656 C 149.316406 255.433594 146.296875 256.242188 146.132812 256.570312 C 146.132812 256.570312 146.132812 259.09375 146.132812 259.09375 C 143.796875 263.765625 136.894531 267.761719 136.894531 260.351562 C 136.894531 260.351562 131.855469 260.351562 131.855469 260.351562 C 131.855469 272.476562 136.839844 268.222656 139.414062 273.367188 C 144.597656 283.738281 156.195312 287.429688 165.867188 292.265625 C 165.867188 292.265625 178.886719 292.265625 178.886719 292.265625 C 178.886719 288.511719 180.339844 290.070312 182.664062 288.90625 C 189.757812 285.359375 188.445312 289.695312 193.585938 292.265625 C 195.292969 293.117188 200.378906 292.265625 201.5625 292.265625 C 202.757812 292.265625 204.539062 290.605469 206.179688 291.425781 C 206.179688 291.425781 209.960938 293.105469 209.960938 293.105469 Z M 209.960938 293.105469 "/>
<path style=" stroke:none;fill-rule:nonzero;fill:rgb(92.156863%,34.117648%,100%);fill-opacity:1;" d="M 172.167969 196.523438 C 172.167969 204.003906 174.675781 200.28125 177.207031 205.34375 C 181.882812 214.695312 192.609375 218.359375 203.242188 218.359375 C 203.242188 215.4375 203.242188 211.292969 203.242188 208.703125 C 203.242188 207.09375 194.109375 203.398438 192.742188 204.082031 C 190.402344 205.25 186.851562 208.273438 183.507812 206.601562 C 181.589844 205.644531 178.046875 197.8125 178.046875 195.683594 C 178.046875 195.683594 177.207031 195.683594 177.207031 195.683594 C 177.207031 195.683594 176.367188 194.84375 176.367188 194.84375 C 175.171875 194.84375 172.167969 195.148438 172.167969 196.523438 Z M 172.167969 196.523438 "/>
<path style=" stroke:none;fill-rule:nonzero;fill:rgb(0%,100%,100%);fill-opacity:1;" d="M 177.207031 195.683594 L 178.046875 195.683594 C 178.046875 195.683594 178.046875 194.84375 178.046875 194.84375 C 178.046875 194.84375 177.207031 195.683594 177.207031 195.683594 Z M 177.207031 195.683594 "/>
<path style=" stroke:none;fill-rule:nonzero;fill:rgb(92.156863%,34.117648%,100%);fill-opacity:1;" d="M 238.515625 196.523438 C 238.515625 201.007812 236.441406 199.410156 234.316406 203.664062 L 233.476562 207.859375 C 231.382812 212.046875 223.441406 216.027344 220.460938 217.519531 C 217.46875 219.015625 212.515625 218.132812 210.382812 219.199219 C 209.585938 219.59375 207.441406 219.332031 207.441406 218.359375 C 207.441406 215.195312 205.769531 212.046875 207.441406 208.703125 C 212.4375 198.707031 222.4375 210.652344 227.179688 208.28125 C 229.511719 207.113281 229.929688 201.515625 230.957031 199.460938 C 230.957031 199.460938 233.476562 194.84375 233.476562 194.84375 C 233.476562 194.84375 235.15625 194.84375 235.15625 194.84375 C 235.15625 194.84375 238.515625 196.523438 238.515625 196.523438 Z M 238.515625 196.523438 "/>
<path style=" stroke:none;fill-rule:nonzero;fill:rgb(100%,100%,0%);fill-opacity:1;" d="M 90.703125 198.203125 C 90.703125 204.351562 83.703125 199.953125 81.882812 199.042969 L 78.945312 199.882812 C 78.945312 194.273438 81.25 198.203125 84.824219 198.203125 C 86.160156 198.203125 90.703125 196.644531 90.703125 198.203125 Z M 90.703125 198.203125 "/>
<path style=" stroke:none;fill-rule:nonzero;fill:rgb(100%,100%,0%);fill-opacity:1;" d="M 78.945312 199.882812 L 77.6875 198.203125 C 73.773438 198.203125 67.296875 203.878906 69.707031 208.703125 C 71.160156 211.605469 80.628906 210.59375 82.726562 211.640625 C 84.550781 212.554688 86.859375 212.449219 88.601562 213.320312 C 91.050781 214.542969 99.539062 222.96875 102.039062 221.71875 L 104.5625 219.199219 C 106.0625 218.449219 107.5 213.84375 107.5 211.640625 C 107.5 208.625 104.246094 210.171875 103.300781 212.0625 C 102.683594 213.296875 103.625 215.886719 102.039062 216.679688 C 101.589844 216.90625 97.609375 216.984375 97 216.679688 C 97 216.679688 86.503906 208.703125 86.503906 208.703125 C 86.503906 208.703125 86.085938 205.761719 86.085938 205.761719 C 83.210938 204.328125 78.984375 207.671875 76.84375 206.601562 C 76.84375 206.601562 76.007812 203.242188 76.007812 203.242188 C 76.007812 203.242188 74.746094 204.5 74.746094 204.5 C 73.546875 202.109375 78.945312 200.527344 78.945312 199.882812 Z M 78.945312 199.882812 "/>
<path style=" stroke:none;fill-rule:nonzero;fill:rgb(98.039216%,50.196081%,44.705883%);fill-opacity:1;" d="M 131.855469 260.351562 L 136.894531 260.351562 C 136.894531 260.351562 137.734375 259.511719 137.734375 259.511719 C 137.734375 259.511719 141.09375 257.832031 141.09375 257.832031 C 141.09375 251.644531 131.015625 249.46875 131.015625 241.453125 C 131.015625 239.484375 133.582031 233.152344 132.695312 231.375 C 131.019531 228.027344 129.261719 223.964844 131.015625 220.460938 C 131.539062 219.410156 132.3125 213.320312 131.015625 213.320312 C 131.015625 215.121094 127.4375 213.640625 126.398438 214.160156 C 126.398438 214.160156 120.9375 220.460938 120.9375 220.460938 C 120.9375 220.460938 121.777344 222.140625 121.777344 222.140625 C 121.777344 222.140625 120.097656 225.5 120.097656 225.5 C 118.636719 228.417969 120.300781 246.058594 121.777344 249.015625 C 123.539062 252.535156 127.65625 257.519531 127.65625 258.25 C 127.65625 258.25 125.976562 259.09375 125.976562 259.09375 C 125.976562 260.082031 127.925781 258.671875 128.914062 258.671875 C 128.914062 258.671875 131.855469 260.351562 131.855469 260.351562 Z M 131.855469 260.351562 "/>
<path style=" stroke:none;fill-rule:nonzero;fill:rgb(98.039216%,50.196081%,44.705883%);fill-opacity:1;" d="M 270.429688 259.511719 L 276.308594 259.511719 C 292.699219 259.511719 290.414062 229.351562 285.546875 219.617188 C 284.222656 216.96875 277.148438 212.3125 277.148438 218.359375 C 277.148438 220.734375 275.792969 230.34375 276.308594 231.375 C 276.925781 232.613281 279.226562 241.496094 278.828125 242.296875 C 277.351562 245.25 276.886719 248.699219 275.46875 251.53125 C 275.46875 251.53125 271.269531 254.890625 271.269531 254.890625 C 271.269531 254.890625 272.949219 255.734375 272.949219 255.734375 C 272.949219 255.734375 270.429688 258.671875 270.429688 258.671875 C 270.429688 258.671875 270.429688 259.511719 270.429688 259.511719 Z M 270.429688 259.511719 "/>
<path style=" stroke:none;fill-rule:nonzero;fill:rgb(27.450982%,64.705884%,8.235294%);fill-opacity:1;" d="M 74.746094 226.757812 L 73.90625 228.015625 C 73.90625 231.148438 80.328125 226.757812 74.746094 226.757812 Z M 74.746094 226.757812 "/>
<path style=" stroke:none;fill-rule:nonzero;fill:rgb(27.450982%,64.705884%,8.235294%);fill-opacity:1;" d="M 332.578125 229.277344 C 332.578125 233.410156 316.683594 235.699219 319.140625 240.617188 C 321.839844 246.015625 329.929688 239.628906 332.15625 238.515625 L 341.398438 239.355469 C 342.976562 238.5625 342.109375 229.632812 341.398438 229.277344 Z M 332.578125 229.277344 "/>
<path style=" stroke:none;fill-rule:nonzero;fill:rgb(27.450982%,64.705884%,8.235294%);fill-opacity:1;" d="M 62.148438 230.117188 C 62.148438 233.109375 63.5625 231.683594 64.667969 233.898438 C 65.148438 234.855469 66.21875 244.105469 68.867188 241.453125 L 69.707031 240.617188 L 67.1875 238.9375 L 70.546875 235.578125 C 70.546875 234.050781 68.25 234.636719 67.609375 234.316406 C 65.378906 233.203125 65.773438 230.117188 62.148438 230.117188 Z M 62.148438 230.117188 "/>
<path style=" stroke:none;fill-rule:nonzero;fill:rgb(27.450982%,64.705884%,8.235294%);fill-opacity:1;" d="M 346.855469 232.636719 C 346.855469 233.984375 345.109375 236.28125 346.015625 238.09375 C 348.753906 243.574219 356.652344 232.636719 346.855469 232.636719 Z M 346.855469 232.636719 "/>
<path style=" stroke:none;fill-rule:nonzero;fill:rgb(27.450982%,64.705884%,8.235294%);fill-opacity:1;" d="M 76.425781 234.316406 C 76.425781 238.1875 74.183594 235.023438 73.066406 237.257812 C 67.410156 248.570312 92.730469 241.839844 84.40625 237.675781 C 82.683594 236.816406 80.175781 237.660156 78.523438 236.835938 C 77.851562 236.5 79.261719 234.316406 76.425781 234.316406 Z M 76.425781 234.316406 "/>
<path style=" stroke:none;fill-rule:nonzero;fill:rgb(27.450982%,64.705884%,8.235294%);fill-opacity:1;" d="M 79.785156 244.394531 C 79.785156 250.429688 87.910156 245.105469 89.023438 247.335938 L 86.503906 250.695312 L 86.503906 257.414062 L 85.664062 259.09375 L 87.34375 260.773438 L 85.664062 263.289062 C 88.070312 268.101562 96.582031 257.742188 96.582031 256.570312 L 94.0625 254.890625 C 94.0625 243.832031 89.792969 244.394531 79.785156 244.394531 Z M 79.785156 244.394531 "/>
<path style=" stroke:none;fill-rule:nonzero;fill:rgb(27.450982%,64.705884%,8.235294%);fill-opacity:1;" d="M 331.738281 244.394531 C 331.738281 249.703125 317.648438 245.277344 314.941406 250.695312 L 314.101562 254.054688 L 316.621094 254.890625 C 319.167969 259.984375 317.484375 262.496094 319.980469 267.492188 C 320.71875 268.960938 322.738281 270.375 321.660156 272.53125 L 315.78125 280.085938 C 315.226562 281.195312 316.132812 282.222656 314.523438 283.027344 C 312.566406 284.003906 309.730469 283.742188 307.804688 284.707031 C 305.683594 285.769531 301.804688 290.527344 305.28125 292.265625 C 307.550781 293.398438 310.679688 292.863281 312.84375 293.945312 L 315.359375 296.464844 C 317.148438 297.359375 325.859375 293.253906 325.859375 291.007812 C 325.859375 288.925781 319.980469 294.484375 319.980469 292.6875 L 322.5 290.164062 L 320.820312 289.328125 L 324.179688 285.96875 L 324.179688 280.929688 C 325.136719 279.011719 329.871094 285.429688 331.320312 284.707031 C 335.847656 282.441406 337.304688 278.191406 339.296875 274.210938 C 341.089844 270.625 331.128906 268.707031 333.417969 264.132812 C 334.78125 261.402344 331.875 257.972656 333.417969 254.890625 C 334.40625 252.917969 335.097656 250.398438 335.097656 249.015625 L 336.777344 247.335938 C 336.777344 246.34375 332.546875 244.394531 331.738281 244.394531 Z M 331.738281 244.394531 "/>
<path style=" stroke:none;fill-rule:nonzero;fill:rgb(0%,69.01961%,24.705882%);fill-opacity:1;" d="M 137.734375 259.511719 L 136.894531 260.351562 C 136.894531 267.761719 143.796875 263.765625 146.132812 259.09375 C 146.132812 259.09375 146.132812 256.570312 146.132812 256.570312 C 146.296875 256.242188 149.316406 255.433594 147.390625 254.472656 C 143.664062 252.609375 143.273438 257.832031 141.09375 257.832031 C 141.09375 260.050781 139.5625 259.511719 137.734375 259.511719 Z M 137.734375 259.511719 "/>
<path style=" stroke:none;fill-rule:nonzero;fill:rgb(0%,69.01961%,24.705882%);fill-opacity:1;" d="M 270.429688 258.671875 C 267.96875 258.671875 262.914062 252.285156 261.191406 255.734375 C 260.078125 257.957031 267.90625 263.289062 269.171875 264.550781 L 273.367188 267.910156 L 270.429688 264.96875 C 270.109375 264.332031 270.429688 261.0625 270.429688 259.511719 C 270.429688 259.511719 270.429688 258.671875 270.429688 258.671875 Z M 270.429688 258.671875 "/>
<path style=" stroke:none;fill-rule:nonzero;fill:rgb(60.000002%,32.549021%,100%);fill-opacity:1;" d="M 141.09375 257.832031 L 137.734375 259.511719 C 139.5625 259.511719 141.09375 260.050781 141.09375 257.832031 Z M 141.09375 257.832031 "/>
<path style=" stroke:none;fill-rule:nonzero;fill:rgb(27.450982%,64.705884%,8.235294%);fill-opacity:1;" d="M 293.105469 267.910156 L 289.746094 274.210938 C 290.140625 275.003906 293.117188 280.066406 293.105469 280.085938 C 292.320312 281.660156 288.847656 283.332031 289.746094 285.125 C 293.59375 292.824219 308.085938 289.054688 304.023438 280.929688 C 302.105469 277.09375 295.632812 280.941406 294.785156 279.25 L 296.046875 276.308594 C 298.941406 274.859375 302.445312 267.910156 296.464844 267.910156 Z M 293.105469 267.910156 "/>
<path style=" stroke:none;fill-rule:nonzero;fill:rgb(27.450982%,64.705884%,8.235294%);fill-opacity:1;" d="M 97.421875 268.75 C 97.421875 270.992188 94.59375 275.269531 95.742188 277.570312 C 96.535156 279.15625 99.519531 282.609375 97 283.867188 C 95.28125 284.726562 94.808594 278.828125 92.804688 278.828125 C 89.375 278.828125 94.765625 285.824219 93.640625 286.386719 C 89.707031 288.355469 82.253906 270.949219 78.105469 279.25 C 77.136719 281.1875 79.5 287.292969 81.046875 288.066406 C 81.6875 288.386719 83.984375 287.800781 83.984375 289.328125 C 83.984375 295.140625 96.746094 299.953125 100.359375 298.144531 C 106.28125 295.183594 112.398438 294.925781 108.339844 286.804688 C 107.179688 284.488281 102.460938 284.289062 102.460938 280.929688 C 102.460938 276.113281 105.660156 268.75 97.421875 268.75 Z M 97.421875 268.75 "/>
<path style=" stroke:none;fill-rule:nonzero;fill:rgb(27.450982%,64.705884%,8.235294%);fill-opacity:1;" d="M 106.660156 269.589844 L 105.820312 272.53125 C 105.039062 274.089844 107.199219 276.25 108.757812 275.46875 C 111.710938 273.992188 109.050781 269.589844 106.660156 269.589844 Z M 106.660156 269.589844 "/>
<path style=" stroke:none;fill-rule:nonzero;fill:rgb(27.450982%,64.705884%,8.235294%);fill-opacity:1;" d="M 111.699219 275.46875 L 110.859375 277.570312 L 116.738281 280.929688 C 117.132812 281.714844 115.972656 287.820312 118.835938 286.386719 C 121.125 285.242188 123.777344 277.097656 120.515625 275.46875 C 119.902344 275.160156 112.941406 275.46875 111.699219 275.46875 Z M 111.699219 275.46875 "/>
<path style=" stroke:none;fill-rule:nonzero;fill:rgb(100%,20.392157%,15.294118%);fill-opacity:1;" d="M 178.886719 292.265625 C 178.886719 298.859375 201.5625 298.195312 201.5625 292.265625 C 200.378906 292.265625 195.292969 293.117188 193.585938 292.265625 C 188.445312 289.695312 189.757812 285.359375 182.664062 288.90625 C 180.339844 290.070312 178.886719 288.511719 178.886719 292.265625 Z M 178.886719 292.265625 "/>
<path style=" stroke:none;fill-rule:nonzero;fill:rgb(100%,20.392157%,15.294118%);fill-opacity:1;" d="M 209.960938 293.105469 C 209.960938 299.945312 229.277344 297.832031 229.277344 293.945312 C 222.488281 293.945312 219.800781 288.816406 212.898438 292.265625 C 212.023438 292.703125 209.960938 291.46875 209.960938 293.105469 Z M 209.960938 293.105469 "/>
</g>
</svg>
