<?xml version="1.0" encoding="UTF-8"?>
<svg xmlns="http://www.w3.org/2000/svg" xmlns:xlink="http://www.w3.org/1999/xlink" width="430px" height="430px" viewBox="0 0 430 430" version="1.1">
<g id="surface1">
<rect x="0" y="0" width="430" height="430" style="fill:rgb(0%,0%,0%);fill-opacity:1;stroke:none;"/>
<path style=" stroke:none;fill-rule:evenodd;fill:rgb(52.549022%,100%,35.294119%);fill-opacity:1;" d="M 205.761719 262.871094 L 204.921875 264.96875 C 204.921875 273.660156 208.113281 262.871094 205.761719 262.871094 M 204.921875 245.234375 L 198.203125 253.210938 C 198.203125 259.535156 214.160156 259.453125 214.160156 253.210938 C 214.160156 252.207031 208.84375 250.140625 208.28125 249.015625 C 207.542969 247.539062 207.140625 245.234375 204.921875 245.234375 M 150.332031 251.113281 C 150.332031 255.414062 156.007812 260.367188 157.890625 264.132812 C 159.480469 267.308594 158.78125 271.789062 160.410156 275.046875 C 166.621094 287.472656 177.320312 285.8125 186.867188 290.585938 C 191.34375 292.824219 198.71875 288.859375 201.984375 287.226562 C 202.648438 286.894531 204.589844 283.070312 206.179688 283.867188 C 209.210938 285.378906 208.914062 289.011719 212.0625 290.585938 L 222.976562 290.585938 C 233.316406 290.585938 245.105469 284.546875 249.433594 275.890625 L 251.953125 274.210938 C 252.929688 272.25 251.851562 269.371094 252.792969 267.492188 C 254.074219 264.929688 256.992188 260.792969 256.992188 256.992188 C 255.039062 256.992188 258.015625 246.859375 256.992188 244.8125 C 256.558594 243.949219 246.816406 233.476562 252.792969 233.476562 C 252.792969 231.859375 237.90625 224.332031 234.734375 225.917969 C 230.785156 227.894531 228.757812 225.078125 225.5 225.078125 C 220.050781 225.078125 217.449219 229.523438 212.898438 231.796875 C 210.855469 232.820312 207.714844 230.957031 206.179688 230.957031 C 204.535156 230.957031 202.417969 233.695312 200.304688 232.636719 C 200.304688 232.636719 196.101562 227.597656 196.101562 227.597656 C 192.0625 225.578125 186.746094 226.277344 182.664062 224.238281 C 178.257812 222.035156 160.410156 228.21875 160.410156 230.117188 C 161.15625 230.117188 163.710938 229.816406 162.929688 231.375 C 161.46875 234.300781 156.234375 235.527344 154.53125 238.9375 C 153.320312 241.359375 152.851562 245.292969 152.851562 248.171875 C 152.851562 248.171875 152.429688 251.953125 152.429688 251.953125 C 152.429688 251.953125 150.332031 251.113281 150.332031 251.113281 Z M 150.332031 251.113281 "/>
<path style=" stroke:none;fill-rule:nonzero;fill:rgb(52.549022%,100%,35.294119%);fill-opacity:1;" d="M 159.570312 230.117188 L 158.730469 230.957031 C 158.730469 230.957031 159.570312 230.117188 159.570312 230.117188 Z M 159.570312 230.117188 "/>
<path style=" stroke:none;fill-rule:nonzero;fill:rgb(98.039216%,50.196081%,44.705883%);fill-opacity:1;" d="M 150.332031 250.273438 L 150.332031 251.113281 C 150.332031 251.113281 152.429688 251.953125 152.429688 251.953125 C 152.429688 251.953125 152.851562 248.171875 152.851562 248.171875 C 152.851562 245.292969 153.320312 241.359375 154.53125 238.9375 C 156.234375 235.527344 161.46875 234.300781 162.929688 231.375 C 163.710938 229.816406 161.15625 230.117188 160.410156 230.117188 C 160.410156 230.117188 159.570312 230.117188 159.570312 230.117188 C 159.570312 230.117188 158.730469 230.957031 158.730469 230.957031 C 158.730469 230.957031 157.890625 231.796875 157.890625 231.796875 C 157.890625 231.796875 157.050781 232.636719 157.050781 232.636719 C 157.050781 232.636719 156.210938 233.476562 156.210938 233.476562 C 156.210938 233.476562 155.371094 234.316406 155.371094 234.316406 C 155.371094 234.316406 154.53125 235.15625 154.53125 235.15625 C 154.53125 235.15625 153.691406 235.996094 153.691406 235.996094 C 153.691406 235.996094 152.011719 237.675781 152.011719 237.675781 C 152.011719 237.675781 151.171875 239.355469 151.171875 239.355469 C 151.171875 239.355469 150.332031 246.914062 150.332031 246.914062 C 150.332031 246.914062 150.332031 250.273438 150.332031 250.273438 Z M 150.332031 250.273438 "/>
<path style=" stroke:none;fill-rule:nonzero;fill:rgb(52.549022%,100%,35.294119%);fill-opacity:1;" d="M 157.890625 231.796875 L 157.050781 232.636719 C 157.050781 232.636719 157.890625 231.796875 157.890625 231.796875 Z M 157.890625 231.796875 "/>
<path style=" stroke:none;fill-rule:nonzero;fill:rgb(52.549022%,100%,35.294119%);fill-opacity:1;" d="M 157.050781 232.636719 L 156.210938 233.476562 C 156.210938 233.476562 157.050781 232.636719 157.050781 232.636719 Z M 157.050781 232.636719 "/>
<path style=" stroke:none;fill-rule:nonzero;fill:rgb(52.549022%,100%,35.294119%);fill-opacity:1;" d="M 156.210938 233.476562 L 155.371094 234.316406 C 155.371094 234.316406 156.210938 233.476562 156.210938 233.476562 Z M 156.210938 233.476562 "/>
<path style=" stroke:none;fill-rule:nonzero;fill:rgb(98.039216%,50.196081%,44.705883%);fill-opacity:1;" d="M 252.792969 233.476562 L 254.054688 235.15625 C 259.191406 237.726562 262.300781 245.957031 259.511719 251.53125 C 258.828125 252.902344 259.664062 256.992188 256.992188 256.992188 C 255.039062 256.992188 258.015625 246.859375 256.992188 244.8125 C 256.558594 243.949219 246.816406 233.476562 252.792969 233.476562 Z M 252.792969 233.476562 "/>
<path style=" stroke:none;fill-rule:nonzero;fill:rgb(52.549022%,100%,35.294119%);fill-opacity:1;" d="M 155.371094 234.316406 L 154.53125 235.15625 C 154.53125 235.15625 155.371094 234.316406 155.371094 234.316406 Z M 155.371094 234.316406 "/>
<path style=" stroke:none;fill-rule:nonzero;fill:rgb(52.549022%,100%,35.294119%);fill-opacity:1;" d="M 154.53125 235.15625 L 153.691406 235.996094 C 153.691406 235.996094 154.53125 235.15625 154.53125 235.15625 Z M 154.53125 235.15625 "/>
<path style=" stroke:none;fill-rule:nonzero;fill:rgb(52.549022%,100%,35.294119%);fill-opacity:1;" d="M 152.011719 237.675781 L 151.171875 239.355469 C 151.171875 239.355469 152.011719 237.675781 152.011719 237.675781 Z M 152.011719 237.675781 "/>
<path style=" stroke:none;fill-rule:evenodd;fill:rgb(92.156863%,34.117648%,100%);fill-opacity:1;" d="M 204.921875 254.472656 C 204.921875 259.570312 208.480469 254.472656 204.921875 254.472656 M 204.921875 245.234375 L 198.203125 253.210938 C 198.203125 259.535156 214.160156 259.453125 214.160156 253.210938 C 214.160156 252.207031 208.84375 250.140625 208.28125 249.015625 C 207.542969 247.539062 207.140625 245.234375 204.921875 245.234375 Z M 204.921875 245.234375 "/>
<path style=" stroke:none;fill-rule:nonzero;fill:rgb(52.549022%,100%,35.294119%);fill-opacity:1;" d="M 150.332031 246.914062 C 149.042969 246.914062 149.042969 250.273438 150.332031 250.273438 C 150.332031 250.273438 150.332031 246.914062 150.332031 246.914062 Z M 150.332031 246.914062 "/>
<path style=" stroke:none;fill-rule:nonzero;fill:rgb(15.294118%,95.686275%,99.215686%);fill-opacity:1;" d="M 204.921875 254.472656 C 204.921875 259.570312 208.480469 254.472656 204.921875 254.472656 Z M 204.921875 254.472656 "/>
<path style=" stroke:none;fill-rule:nonzero;fill:rgb(44.705883%,3.529412%,83.137256%);fill-opacity:1;" d="M 205.761719 262.871094 L 204.921875 264.96875 C 204.921875 273.660156 208.113281 262.871094 205.761719 262.871094 Z M 205.761719 262.871094 "/>
</g>
</svg>
