<?xml version="1.0" encoding="UTF-8"?>
<svg xmlns="http://www.w3.org/2000/svg" xmlns:xlink="http://www.w3.org/1999/xlink" width="430px" height="430px" viewBox="0 0 430 430" version="1.1">
<g id="surface1">
<rect x="0" y="0" width="430" height="430" style="fill:rgb(0%,0%,0%);fill-opacity:1;stroke:none;"/>
<path style=" stroke:none;fill-rule:evenodd;fill:rgb(100%,100%,0%);fill-opacity:1;" d="M 272.949219 178.886719 C 272.949219 180.550781 275.46875 184.191406 275.46875 182.664062 C 275.46875 181.882812 274.015625 178.886719 272.949219 178.886719 M 271.269531 178.886719 C 271.269531 182.03125 273.027344 178.886719 271.269531 178.886719 M 230.117188 154.53125 C 230.117188 156.476562 217.261719 156.972656 215.421875 157.890625 C 206.289062 162.457031 192.242188 154.78125 184.34375 158.730469 C 182.21875 159.792969 177.726562 158.113281 176.367188 160.828125 L 176.367188 163.351562 C 175.5 165.082031 171.796875 168.488281 173.847656 172.585938 L 176.789062 170.488281 C 178.8125 169.476562 181.441406 169.839844 183.507812 168.808594 C 185.726562 167.699219 189.339844 169.648438 191.0625 169.648438 C 191.859375 169.648438 202.652344 167.632812 203.664062 167.128906 C 204.816406 166.550781 224.535156 167.066406 224.65625 167.128906 C 225.761719 167.679688 229.464844 165.332031 231.375 166.289062 C 233.6875 167.441406 234.421875 167.128906 236.414062 167.128906 L 238.9375 168.808594 C 240.667969 167.941406 238.066406 164.96875 237.675781 164.1875 C 235.398438 159.632812 236.925781 154.53125 230.117188 154.53125 M 222.558594 125.976562 C 222.558594 127.480469 212.472656 126.816406 210.800781 126.816406 C 203.226562 126.816406 193.21875 126.160156 186.867188 129.335938 C 184.417969 130.558594 178.484375 127.648438 175.109375 129.335938 C 163.519531 135.128906 155.359375 162.53125 149.492188 174.265625 C 146.523438 180.203125 138.957031 186.042969 133.117188 188.964844 C 131.613281 189.714844 128.476562 193.542969 129.335938 195.265625 C 131.855469 200.300781 152.609375 187.347656 154.53125 183.507812 C 157.519531 177.527344 154.707031 163.890625 161.671875 160.410156 C 163.089844 159.699219 164.609375 161.242188 164.609375 162.507812 C 164.609375 165.648438 160.757812 181.023438 166.710938 178.046875 C 173.273438 174.765625 168.734375 163.5 171.328125 158.3125 L 180.148438 141.09375 C 184.796875 138.765625 199.992188 135.214844 205.34375 135.214844 C 209.433594 135.214844 226.667969 134.121094 230.539062 136.054688 C 241.605469 141.589844 240.90625 164.769531 246.074219 175.109375 C 247.867188 178.6875 262.941406 191.730469 265.8125 193.164062 C 267.898438 194.207031 272.753906 197.332031 274.628906 193.585938 C 276.160156 190.519531 263.558594 176.082031 259.09375 173.847656 L 255.3125 172.585938 L 249.433594 164.1875 C 247.40625 160.136719 248.378906 147.804688 247.753906 146.554688 L 243.554688 139.835938 C 241.71875 136.164062 240.800781 128.167969 236.414062 125.976562 L 222.558594 125.976562 M 160.410156 117.578125 L 152.851562 128.078125 C 149.636719 134.507812 134.257812 158.160156 128.078125 161.25 C 124.992188 162.792969 105.242188 169.753906 107.5 174.265625 C 108.910156 177.085938 117.714844 174.539062 119.257812 177.625 C 120.386719 179.882812 119.71875 186.882812 122.195312 188.125 C 125.925781 189.988281 133.472656 176.847656 135.632812 174.6875 C 139.0625 171.261719 140.636719 164.261719 142.773438 159.992188 C 148.042969 149.453125 155.164062 140.25 160.410156 129.757812 C 161.429688 127.71875 165.914062 117.578125 160.410156 117.578125 M 235.996094 116.738281 C 235.996094 118.359375 237.617188 116.738281 235.996094 116.738281 M 246.074219 115.898438 L 244.394531 118.835938 C 245.675781 121.402344 245.648438 124.707031 246.914062 127.234375 L 251.953125 133.953125 C 257.035156 144.113281 262.800781 153.96875 267.910156 164.1875 C 270.664062 169.695312 273.628906 177.335938 280.085938 180.566406 C 284.984375 183.015625 284.4375 172.933594 285.96875 172.167969 C 287.273438 171.515625 299.402344 170.902344 298.144531 168.390625 C 296.402344 164.90625 291.007812 163.769531 287.648438 162.089844 C 282.152344 159.34375 268.070312 146.871094 265.390625 141.515625 C 262.632812 135.996094 258.050781 131.035156 255.3125 125.554688 L 251.113281 122.195312 C 249.710938 119.394531 250.890625 115.898438 246.074219 115.898438 M 258.671875 110.859375 C 258.671875 111.964844 255.851562 112.359375 256.992188 114.640625 C 260.101562 120.859375 281.578125 146.039062 288.484375 149.492188 C 292.246094 151.371094 298.425781 162.160156 303.601562 159.570312 C 306.488281 158.128906 305.007812 155.5 305.703125 154.109375 C 306.484375 152.550781 310.859375 147.628906 309.902344 145.710938 C 306.5625 139.035156 287.089844 131.015625 281.765625 131.015625 L 280.085938 127.65625 C 278.289062 126.757812 277.21875 126.816406 275.890625 126.816406 L 275.046875 124.296875 C 272.722656 124.296875 265.507812 116.585938 262.453125 115.058594 L 258.671875 110.859375 M 145.292969 103.300781 C 145.292969 104.945312 135.535156 107.550781 133.953125 108.339844 L 130.59375 111.699219 C 128.6875 112.652344 125.84375 112.394531 123.875 113.378906 C 121.789062 114.421875 104.707031 128.625 104.140625 129.757812 C 103.371094 131.296875 98.164062 135.441406 99.101562 137.3125 C 99.835938 138.78125 107.582031 134.964844 108.757812 134.375 C 118.40625 129.550781 126.054688 122.117188 133.535156 114.640625 C 134.640625 113.535156 143.21875 107.96875 144.453125 110.4375 C 146.8125 115.15625 139.429688 119.648438 137.734375 123.039062 C 132.738281 133.027344 120.566406 141.488281 111.28125 146.132812 C 107.816406 147.863281 103.566406 146.628906 99.523438 148.652344 C 94.96875 150.929688 97.09375 164.65625 100.359375 166.289062 C 103.167969 167.691406 113.246094 156.066406 116.320312 154.53125 C 123 151.191406 144.199219 129.425781 147.8125 122.195312 C 149.230469 119.363281 158.152344 108.339844 152.429688 108.339844 L 151.59375 106.660156 L 150.75 108.339844 C 148.34375 108.339844 148.714844 103.300781 145.292969 103.300781 M 235.15625 99.101562 C 235.15625 102.246094 236.914062 99.101562 235.15625 99.101562 M 230.117188 93.222656 C 230.117188 95.695312 226.046875 94.902344 225.5 94.902344 C 224.097656 94.902344 224.230469 97.636719 222.976562 98.261719 L 218.78125 98.261719 L 217.101562 100.78125 C 215.945312 101.359375 190.664062 103.300781 187.703125 103.300781 L 186.023438 105.820312 L 185.1875 104.140625 L 184.34375 106.660156 C 182.8125 107.425781 181.140625 105.820312 180.148438 105.820312 C 178.101562 105.820312 178.53125 109.566406 177.625 110.019531 L 173.007812 110.4375 C 173.007812 114.261719 176.957031 109.9375 178.046875 112.117188 C 181.152344 118.328125 206.945312 111.699219 213.742188 111.699219 L 214.578125 110.019531 C 216.5 109.058594 216.429688 111.699219 217.101562 111.699219 C 218.5 111.699219 219.207031 109.804688 220.460938 109.179688 C 223.660156 107.578125 230.53125 110.863281 233.898438 109.179688 L 234.316406 102.882812 C 234.316406 96.941406 234.882812 93.222656 230.117188 93.222656 M 205.761719 81.464844 C 205.761719 82.019531 197.914062 84.46875 196.945312 83.984375 C 191.722656 81.375 189.96875 84.824219 187.703125 84.824219 C 185.003906 84.824219 173.847656 86.753906 173.847656 91.960938 L 174.6875 93.640625 L 173.847656 95.320312 L 175.945312 96.582031 L 178.46875 94.902344 L 186.023438 94.0625 C 189.300781 92.425781 193.847656 90.152344 197.78125 88.183594 C 203.085938 85.53125 211.679688 89.214844 217.101562 86.503906 C 224.558594 82.773438 207.417969 81.464844 205.761719 81.464844 M 206.601562 78.105469 C 206.601562 78.652344 200.933594 79.785156 200.304688 79.785156 C 194.699219 79.785156 174.75 81.761719 172.167969 86.921875 C 171.597656 88.0625 168.390625 90.277344 167.128906 92.804688 C 166.773438 93.511719 167.21875 99.703125 167.96875 101.203125 L 170.488281 102.882812 C 171.925781 105.753906 167.628906 105.238281 167.128906 106.242188 C 165.777344 108.941406 165.765625 110.910156 162.507812 112.539062 C 158.519531 114.535156 154.257812 97.421875 150.75 97.421875 C 144.421875 97.421875 141.160156 98.859375 135.632812 101.621094 L 119.679688 106.660156 C 105.503906 113.746094 99.039062 124.84375 92.382812 138.15625 C 91.230469 140.464844 92.382812 145.3125 92.382812 145.710938 L 94.902344 146.554688 C 94.902344 147.855469 90.160156 157.226562 90.703125 158.3125 C 95 166.902344 97.476562 174.085938 103.71875 177.207031 C 105.144531 177.917969 106.613281 184.765625 107.921875 184.765625 L 109.601562 182.246094 L 110.019531 184.34375 C 110.902344 186.113281 112.171875 188.992188 113.796875 189.804688 L 118 194.003906 C 120.421875 194.003906 124.570312 194.003906 125.554688 194.003906 C 126.222656 194.003906 126.902344 202.988281 129.757812 201.5625 C 132.191406 200.34375 132.929688 201.5625 134.796875 201.5625 C 137.335938 201.5625 143.042969 196.523438 146.554688 196.523438 L 148.652344 193.585938 L 154.109375 190.644531 C 156.632812 189.382812 158.324219 185.15625 159.570312 182.664062 L 159.992188 179.726562 L 162.507812 182.246094 C 162.761719 182.246094 167.207031 180.304688 167.96875 181.828125 C 169.398438 184.6875 162.179688 188.378906 166.710938 190.644531 C 184.992188 199.785156 189.472656 199.042969 212.0625 199.042969 C 213.054688 199.042969 214.726562 200.648438 216.257812 199.882812 L 217.101562 198.203125 L 217.9375 199.882812 C 227.855469 199.882812 235.429688 194.003906 244.8125 194.003906 C 246.890625 194.003906 247.582031 184.765625 248.171875 184.765625 C 250.707031 184.765625 258.644531 195.882812 259.929688 196.523438 C 261.386719 197.25 262.285156 196.019531 263.289062 196.523438 C 265.148438 197.453125 269.582031 200.722656 270.007812 200.722656 C 271.359375 200.722656 272.800781 200.019531 274.210938 200.722656 C 277.246094 202.242188 280.507812 194.507812 280.507812 189.804688 C 280.507812 188.558594 276.042969 184.6875 277.570312 183.925781 C 278.875 183.273438 282.539062 188.964844 283.445312 188.964844 C 287.371094 188.964844 286.148438 188.214844 289.328125 189.804688 C 290.648438 190.464844 291.078125 186.71875 291.425781 186.023438 L 296.882812 180.566406 C 299.664062 179.175781 302.453125 171.53125 304.023438 168.390625 L 305.28125 169.648438 L 305.703125 167.546875 L 308.640625 167.128906 C 309.800781 166.550781 315.9375 151.90625 314.941406 149.914062 C 313.882812 147.792969 314.703125 144.398438 314.101562 143.195312 C 312.320312 139.632812 305.035156 135.976562 304.023438 133.953125 C 302.59375 131.101562 309.265625 132.683594 308.222656 130.59375 C 306.164062 126.476562 303.25 118.417969 298.5625 118.417969 C 298.09375 118.417969 297.738281 114.21875 296.046875 114.21875 L 294.367188 115.898438 C 292.59375 115.898438 293.9375 112.113281 292.6875 110.859375 C 291.394531 109.570312 283.789062 105.152344 281.765625 104.140625 C 278.75 102.632812 274.378906 103.300781 271.6875 103.300781 C 267.515625 103.300781 262.671875 100.050781 259.09375 98.261719 C 257.171875 97.300781 257.242188 99.941406 256.570312 99.941406 L 254.890625 99.101562 L 249.433594 104.5625 L 249.015625 110.019531 L 245.65625 109.179688 L 241.453125 109.179688 L 241.035156 104.980469 C 241.035156 101.878906 240.667969 97.109375 239.355469 94.484375 L 237.675781 94.484375 C 232.777344 84.6875 229.101562 91.664062 222.140625 88.183594 C 220.871094 87.550781 225.917969 87.410156 225.917969 86.085938 L 223.398438 84.40625 L 225.917969 83.5625 C 225.917969 81.277344 209.398438 78.105469 206.601562 78.105469 M 244.394531 182.246094 L 245.234375 183.925781 C 247.515625 183.925781 244.617188 188.644531 243.976562 188.964844 C 240.644531 190.632812 231.347656 190.632812 228.015625 188.964844 C 222.742188 186.328125 216.335938 188.125 210.382812 188.125 C 203.449219 188.125 197.125 185.605469 190.226562 185.605469 C 190.226562 185.605469 187.703125 187.285156 187.703125 187.285156 C 187.703125 187.285156 185.1875 184.765625 185.1875 184.765625 C 185.1875 184.765625 182.664062 185.605469 182.664062 185.605469 C 182.664062 185.605469 181.828125 183.925781 181.828125 183.925781 C 181.828125 183.925781 180.984375 185.605469 180.984375 185.605469 C 180.984375 185.605469 179.304688 183.925781 179.304688 183.925781 C 179.304688 183.925781 175.109375 185.605469 175.109375 185.605469 C 175.109375 185.605469 174.6875 177.625 174.6875 177.625 C 176.125 174.75 177.882812 178.046875 178.46875 178.046875 C 178.46875 178.046875 179.304688 176.367188 179.304688 176.367188 C 179.304688 176.367188 180.148438 178.046875 180.148438 178.046875 C 181.320312 178.046875 182.207031 176.367188 182.664062 176.367188 C 182.664062 176.367188 184.34375 178.046875 184.34375 178.046875 C 186.300781 179.023438 189.796875 177.207031 191.90625 177.207031 C 191.90625 177.207031 196.101562 178.886719 196.101562 178.886719 C 203.894531 174.992188 217.199219 178.046875 223.820312 178.046875 C 223.820312 178.046875 224.65625 179.726562 224.65625 179.726562 C 228.058594 181.425781 233.183594 177.207031 236.414062 177.207031 C 238.152344 177.207031 239.476562 180.566406 239.773438 180.566406 C 239.773438 180.566406 241.453125 176.367188 241.453125 176.367188 C 241.453125 176.367188 244.394531 182.246094 244.394531 182.246094 Z M 244.394531 182.246094 "/>
<path style=" stroke:none;fill-rule:nonzero;fill:rgb(0%,100%,100%);fill-opacity:1;" d="M 205.761719 81.464844 C 205.761719 82.019531 197.914062 84.46875 196.945312 83.984375 C 191.722656 81.375 189.96875 84.824219 187.703125 84.824219 C 185.003906 84.824219 173.847656 86.753906 173.847656 91.960938 L 174.6875 93.640625 L 173.847656 95.320312 L 175.945312 96.582031 L 178.46875 94.902344 L 186.023438 94.0625 C 189.300781 92.425781 193.847656 90.152344 197.78125 88.183594 C 203.085938 85.53125 211.679688 89.214844 217.101562 86.503906 C 224.558594 82.773438 207.417969 81.464844 205.761719 81.464844 Z M 205.761719 81.464844 "/>
<path style=" stroke:none;fill-rule:nonzero;fill:rgb(0%,100%,100%);fill-opacity:1;" d="M 230.117188 93.222656 C 230.117188 95.695312 226.046875 94.902344 225.5 94.902344 C 224.097656 94.902344 224.230469 97.636719 222.976562 98.261719 L 218.78125 98.261719 L 217.101562 100.78125 C 215.945312 101.359375 190.664062 103.300781 187.703125 103.300781 L 186.023438 105.820312 L 185.1875 104.140625 L 184.34375 106.660156 C 182.8125 107.425781 181.140625 105.820312 180.148438 105.820312 C 178.101562 105.820312 178.53125 109.566406 177.625 110.019531 L 173.007812 110.4375 C 173.007812 114.261719 176.957031 109.9375 178.046875 112.117188 C 181.152344 118.328125 206.945312 111.699219 213.742188 111.699219 L 214.578125 110.019531 C 216.5 109.058594 216.429688 111.699219 217.101562 111.699219 C 218.5 111.699219 219.207031 109.804688 220.460938 109.179688 C 223.660156 107.578125 230.53125 110.863281 233.898438 109.179688 L 234.316406 102.882812 C 234.316406 96.941406 234.882812 93.222656 230.117188 93.222656 Z M 230.117188 93.222656 "/>
<path style=" stroke:none;fill-rule:nonzero;fill:rgb(0%,100%,100%);fill-opacity:1;" d="M 235.15625 99.101562 C 235.15625 102.246094 236.914062 99.101562 235.15625 99.101562 Z M 235.15625 99.101562 "/>
<path style=" stroke:none;fill-rule:nonzero;fill:rgb(0%,100%,100%);fill-opacity:1;" d="M 145.292969 103.300781 C 145.292969 104.945312 135.535156 107.550781 133.953125 108.339844 L 130.59375 111.699219 C 128.6875 112.652344 125.84375 112.394531 123.875 113.378906 C 121.789062 114.421875 104.707031 128.625 104.140625 129.757812 C 103.371094 131.296875 98.164062 135.441406 99.101562 137.3125 C 99.835938 138.78125 107.582031 134.964844 108.757812 134.375 C 118.40625 129.550781 126.054688 122.117188 133.535156 114.640625 C 134.640625 113.535156 143.21875 107.96875 144.453125 110.4375 C 146.8125 115.15625 139.429688 119.648438 137.734375 123.039062 C 132.738281 133.027344 120.566406 141.488281 111.28125 146.132812 C 107.816406 147.863281 103.566406 146.628906 99.523438 148.652344 C 94.96875 150.929688 97.09375 164.65625 100.359375 166.289062 C 103.167969 167.691406 113.246094 156.066406 116.320312 154.53125 C 123 151.191406 144.199219 129.425781 147.8125 122.195312 C 149.230469 119.363281 158.152344 108.339844 152.429688 108.339844 L 151.59375 106.660156 L 150.75 108.339844 C 148.34375 108.339844 148.714844 103.300781 145.292969 103.300781 Z M 145.292969 103.300781 "/>
<path style=" stroke:none;fill-rule:nonzero;fill:rgb(0%,100%,100%);fill-opacity:1;" d="M 258.671875 110.859375 C 258.671875 111.964844 255.851562 112.359375 256.992188 114.640625 C 260.101562 120.859375 281.578125 146.039062 288.484375 149.492188 C 292.246094 151.371094 298.425781 162.160156 303.601562 159.570312 C 306.488281 158.128906 305.007812 155.5 305.703125 154.109375 C 306.484375 152.550781 310.859375 147.628906 309.902344 145.710938 C 306.5625 139.035156 287.089844 131.015625 281.765625 131.015625 L 280.085938 127.65625 C 278.289062 126.757812 277.21875 126.816406 275.890625 126.816406 L 275.046875 124.296875 C 272.722656 124.296875 265.507812 116.585938 262.453125 115.058594 Z M 258.671875 110.859375 "/>
<path style=" stroke:none;fill-rule:nonzero;fill:rgb(0%,100%,100%);fill-opacity:1;" d="M 246.074219 115.898438 L 244.394531 118.835938 C 245.675781 121.402344 245.648438 124.707031 246.914062 127.234375 L 251.953125 133.953125 C 257.035156 144.113281 262.800781 153.96875 267.910156 164.1875 C 270.664062 169.695312 273.628906 177.335938 280.085938 180.566406 C 284.984375 183.015625 284.4375 172.933594 285.96875 172.167969 C 287.273438 171.515625 299.402344 170.902344 298.144531 168.390625 C 296.402344 164.90625 291.007812 163.769531 287.648438 162.089844 C 282.152344 159.34375 268.070312 146.871094 265.390625 141.515625 C 262.632812 135.996094 258.050781 131.035156 255.3125 125.554688 L 251.113281 122.195312 C 249.710938 119.394531 250.890625 115.898438 246.074219 115.898438 Z M 246.074219 115.898438 "/>
<path style=" stroke:none;fill-rule:nonzero;fill:rgb(0%,100%,100%);fill-opacity:1;" d="M 160.410156 117.578125 L 152.851562 128.078125 C 149.636719 134.507812 134.257812 158.160156 128.078125 161.25 C 124.992188 162.792969 105.242188 169.753906 107.5 174.265625 C 108.910156 177.085938 117.714844 174.539062 119.257812 177.625 C 120.386719 179.882812 119.71875 186.882812 122.195312 188.125 C 125.925781 189.988281 133.472656 176.847656 135.632812 174.6875 C 139.0625 171.261719 140.636719 164.261719 142.773438 159.992188 C 148.042969 149.453125 155.164062 140.25 160.410156 129.757812 C 161.429688 127.71875 165.914062 117.578125 160.410156 117.578125 Z M 160.410156 117.578125 "/>
<path style=" stroke:none;fill-rule:nonzero;fill:rgb(0%,100%,100%);fill-opacity:1;" d="M 222.558594 125.976562 C 222.558594 127.480469 212.472656 126.816406 210.800781 126.816406 C 203.226562 126.816406 193.21875 126.160156 186.867188 129.335938 C 184.417969 130.558594 178.484375 127.648438 175.109375 129.335938 C 163.519531 135.128906 155.359375 162.53125 149.492188 174.265625 C 146.523438 180.203125 138.957031 186.042969 133.117188 188.964844 C 131.613281 189.714844 128.476562 193.542969 129.335938 195.265625 C 131.855469 200.300781 152.609375 187.347656 154.53125 183.507812 C 157.519531 177.527344 154.707031 163.890625 161.671875 160.410156 C 163.089844 159.699219 164.609375 161.242188 164.609375 162.507812 C 164.609375 165.648438 160.757812 181.023438 166.710938 178.046875 C 173.273438 174.765625 168.734375 163.5 171.328125 158.3125 L 180.148438 141.09375 C 184.796875 138.765625 199.992188 135.214844 205.34375 135.214844 C 209.433594 135.214844 226.667969 134.121094 230.539062 136.054688 C 241.605469 141.589844 240.90625 164.769531 246.074219 175.109375 C 247.867188 178.6875 262.941406 191.730469 265.8125 193.164062 C 267.898438 194.207031 272.753906 197.332031 274.628906 193.585938 C 276.160156 190.519531 263.558594 176.082031 259.09375 173.847656 L 255.3125 172.585938 L 249.433594 164.1875 C 247.40625 160.136719 248.378906 147.804688 247.753906 146.554688 L 243.554688 139.835938 C 241.71875 136.164062 240.800781 128.167969 236.414062 125.976562 Z M 222.558594 125.976562 "/>
<path style=" stroke:none;fill-rule:nonzero;fill:rgb(0%,100%,100%);fill-opacity:1;" d="M 230.117188 154.53125 C 230.117188 156.476562 217.261719 156.972656 215.421875 157.890625 C 206.289062 162.457031 192.242188 154.78125 184.34375 158.730469 C 182.21875 159.792969 177.726562 158.113281 176.367188 160.828125 L 176.367188 163.351562 C 175.5 165.082031 171.796875 168.488281 173.847656 172.585938 L 176.789062 170.488281 C 178.8125 169.476562 181.441406 169.839844 183.507812 168.808594 C 185.726562 167.699219 189.339844 169.648438 191.0625 169.648438 C 191.859375 169.648438 202.652344 167.632812 203.664062 167.128906 C 204.816406 166.550781 224.535156 167.066406 224.65625 167.128906 C 225.761719 167.679688 229.464844 165.332031 231.375 166.289062 C 233.6875 167.441406 234.421875 167.128906 236.414062 167.128906 L 238.9375 168.808594 C 240.667969 167.941406 238.066406 164.96875 237.675781 164.1875 C 235.398438 159.632812 236.925781 154.53125 230.117188 154.53125 Z M 230.117188 154.53125 "/>
<path style=" stroke:none;fill-rule:nonzero;fill:rgb(0%,100%,100%);fill-opacity:1;" d="M 244.394531 182.246094 L 241.453125 176.367188 L 239.773438 180.566406 C 239.476562 180.566406 238.152344 177.207031 236.414062 177.207031 C 233.183594 177.207031 228.058594 181.425781 224.65625 179.726562 L 223.820312 178.046875 C 217.199219 178.046875 203.894531 174.992188 196.101562 178.886719 L 191.90625 177.207031 C 189.796875 177.207031 186.300781 179.023438 184.34375 178.046875 L 182.664062 176.367188 C 182.207031 176.367188 181.320312 178.046875 180.148438 178.046875 L 179.304688 176.367188 L 178.46875 178.046875 C 177.882812 178.046875 176.125 174.75 174.6875 177.625 L 175.109375 185.605469 L 179.304688 183.925781 L 180.984375 185.605469 L 181.828125 183.925781 L 182.664062 185.605469 L 185.1875 184.765625 L 187.703125 187.285156 L 190.226562 185.605469 C 197.125 185.605469 203.449219 188.125 210.382812 188.125 C 216.335938 188.125 222.742188 186.328125 228.015625 188.964844 C 231.347656 190.632812 240.644531 190.632812 243.976562 188.964844 C 244.617188 188.644531 247.515625 183.925781 245.234375 183.925781 C 245.234375 185.949219 244.394531 183.097656 244.394531 182.246094 Z M 244.394531 182.246094 "/>
<path style=" stroke:none;fill-rule:nonzero;fill:rgb(60.000002%,32.549021%,100%);fill-opacity:1;" d="M 200.722656 282.1875 C 200.722656 281.191406 201.5625 281.191406 201.5625 282.1875 C 203.519531 282.1875 204.273438 278.828125 206.601562 278.828125 C 206.601562 277.707031 206.601562 277.429688 206.601562 276.308594 C 202.1875 276.308594 206.601562 268.316406 206.601562 271.269531 C 208.234375 271.269531 209.4375 269.589844 210.382812 269.589844 C 210.382812 269.589844 213.742188 272.949219 213.742188 272.949219 C 214.382812 273.269531 216.679688 272.683594 216.679688 274.210938 C 216.679688 277.042969 211.699219 274.628906 211.21875 274.628906 C 209.878906 274.628906 209.878906 277.148438 211.21875 277.148438 C 212.058594 277.148438 213.21875 275.628906 214.578125 276.308594 C 214.578125 276.308594 220.460938 277.988281 220.460938 277.988281 C 222.480469 276.976562 220.746094 274.90625 221.296875 274.628906 C 223.464844 273.546875 227.882812 278.761719 229.695312 279.667969 C 233.21875 281.425781 244.394531 275.871094 244.394531 283.027344 C 250.15625 283.027344 262.414062 270.867188 268.328125 267.910156 C 271.433594 266.359375 277.148438 265.527344 277.148438 261.191406 C 275.917969 261.191406 274.179688 261.191406 272.949219 261.191406 C 266.660156 261.191406 267.070312 262.289062 267.070312 256.152344 C 265.34375 256.152344 262.382812 245.515625 261.191406 243.132812 C 256.648438 234.046875 231.40625 217.519531 256.992188 217.519531 C 256.992188 215.714844 248.59375 212.972656 248.59375 212.0625 C 248.59375 206.835938 256.058594 204.921875 260.351562 204.921875 C 260.351562 202.75 255.320312 198.203125 253.210938 198.203125 C 253.210938 198.203125 250.695312 199.042969 250.695312 199.042969 C 243.09375 195.242188 231.785156 202.847656 228.4375 209.539062 C 227.78125 210.851562 224.238281 210.328125 224.238281 212.480469 C 224.238281 212.480469 227.597656 214.578125 227.597656 214.578125 C 227.597656 216.152344 228.511719 219.765625 230.117188 222.976562 C 230.117188 222.976562 231.796875 223.820312 231.796875 223.820312 C 231.796875 226.675781 223.621094 226.015625 222.140625 226.757812 C 222.140625 226.757812 220.039062 231.375 220.039062 231.375 C 219.207031 232.207031 215 233.386719 215 235.578125 C 215 235.578125 216.257812 236.835938 216.257812 236.835938 C 212.191406 238.871094 207.429688 232.011719 197.78125 236.835938 C 197.78125 236.835938 195.683594 237.257812 195.683594 237.257812 C 195.105469 238.410156 191.484375 232.234375 191.484375 232.21875 C 191.484375 231.503906 192.617188 230.117188 191.90625 230.117188 C 188.757812 230.117188 190.617188 227.792969 188.546875 226.757812 C 186.425781 225.699219 180.566406 225.804688 180.566406 222.976562 C 180.566406 220.390625 183.925781 218.28125 183.925781 215.421875 C 183.925781 214.425781 182.320312 212.753906 183.085938 211.21875 C 183.550781 210.289062 187.285156 213.386719 187.285156 211.640625 C 187.285156 208.476562 182.691406 210.433594 181.40625 207.859375 C 180.085938 205.21875 178.363281 206.132812 175.945312 204.921875 C 175.945312 204.921875 172.585938 201.5625 172.585938 201.5625 C 167.308594 198.921875 157.429688 197.023438 154.53125 202.820312 C 154.53125 202.820312 150.332031 206.601562 150.332031 206.601562 C 153.488281 206.601562 165.433594 205.371094 162.089844 212.0625 C 161 214.238281 158.730469 212.28125 158.730469 215 C 158.730469 215 160.410156 216.679688 160.410156 216.679688 C 163.625 216.679688 171.78125 221.230469 169.648438 225.5 C 169.648438 225.5 152.011719 241.453125 152.011719 241.453125 C 150.101562 245.277344 146.964844 256.152344 141.933594 256.152344 C 141.933594 259.308594 146.972656 256.878906 146.972656 258.25 C 146.972656 258.25 144.03125 258.671875 144.03125 258.671875 C 143.378906 258.996094 143.484375 262.03125 140.253906 262.03125 C 140.253906 262.03125 138.574219 266.230469 138.574219 266.230469 C 138.574219 266.230469 144.03125 270.429688 144.03125 270.429688 C 151.253906 274.039062 159.371094 281.347656 164.609375 281.347656 C 164.609375 276.585938 172.210938 279.480469 174.265625 280.507812 C 174.265625 280.507812 176.789062 279.667969 176.789062 279.667969 C 177.625 280.085938 177.410156 282.296875 179.304688 281.347656 C 181.292969 280.355469 183.273438 278.945312 185.1875 277.988281 C 185.1875 277.988281 187.703125 273.789062 187.703125 273.789062 C 190.238281 273.789062 190.183594 275.027344 192.742188 276.308594 C 194.875 277.371094 195.484375 274.628906 196.101562 274.628906 C 196.101562 274.628906 197.78125 276.308594 197.78125 276.308594 C 197.78125 276.308594 198.203125 273.367188 198.203125 273.367188 C 198.203125 273.367188 201.5625 272.53125 201.5625 272.53125 C 201.621094 272.410156 201.882812 267.289062 203.242188 270.007812 C 205.429688 274.382812 200.980469 273.886719 201.5625 275.046875 C 201.632812 275.1875 205.574219 275.425781 204.082031 278.40625 C 204.082031 278.40625 199.882812 281.347656 199.882812 281.347656 C 199.882812 281.347656 200.722656 282.1875 200.722656 282.1875 Z M 200.722656 282.1875 "/>
<path style=" stroke:none;fill-rule:nonzero;fill:rgb(98.039216%,50.196081%,44.705883%);fill-opacity:1;" d="M 267.070312 256.152344 C 267.070312 262.289062 266.660156 261.191406 272.949219 261.191406 C 272.949219 261.191406 280.507812 256.570312 280.507812 256.570312 C 280.507812 256.570312 280.507812 254.054688 280.507812 254.054688 C 280.507812 254.054688 284.707031 249.851562 284.707031 249.851562 C 285.097656 249.074219 285.394531 246.074219 286.386719 246.074219 C 286.386719 246.074219 287.226562 236.414062 287.226562 236.414062 C 285.222656 232.410156 284.195312 227.832031 282.1875 223.820312 C 279.675781 218.796875 265.671875 204.921875 260.351562 204.921875 C 256.058594 204.921875 248.59375 206.835938 248.59375 212.0625 C 248.59375 212.972656 256.992188 215.714844 256.992188 217.519531 C 264.484375 217.519531 275.253906 222.546875 278.828125 229.695312 C 284.265625 240.574219 281.09375 256.152344 267.070312 256.152344 Z M 267.070312 256.152344 "/>
<path style=" stroke:none;fill-rule:nonzero;fill:rgb(98.039216%,50.196081%,44.705883%);fill-opacity:1;" d="M 141.933594 256.152344 C 141.933594 259.308594 146.972656 256.878906 146.972656 258.25 L 144.03125 258.671875 C 143.378906 258.996094 143.484375 262.03125 140.253906 262.03125 C 136.304688 262.03125 124.296875 250.011719 124.296875 245.234375 C 124.296875 231.019531 127.160156 219.238281 140.671875 212.480469 C 140.671875 212.480469 150.332031 206.601562 150.332031 206.601562 C 153.488281 206.601562 165.433594 205.371094 162.089844 212.0625 C 161 214.238281 158.730469 212.28125 158.730469 215 C 157.175781 215 152.851562 214.273438 152.851562 216.679688 C 144.253906 216.679688 125.0625 235.425781 131.015625 247.335938 C 131.773438 248.851562 136.054688 252.796875 136.054688 253.632812 C 136.054688 253.632812 136.054688 254.472656 136.054688 254.472656 C 136.054688 255.847656 139.058594 256.152344 140.253906 256.152344 C 140.253906 256.152344 141.933594 256.152344 141.933594 256.152344 Z M 141.933594 256.152344 "/>
<path style=" stroke:none;fill-rule:nonzero;fill:rgb(92.156863%,34.117648%,100%);fill-opacity:1;" d="M 187.285156 211.640625 C 196.554688 211.640625 193.574219 215.835938 198.625 218.359375 C 199.265625 218.679688 201.5625 218.09375 201.5625 219.617188 C 201.5625 220.34375 201.875 224.183594 203.664062 225.078125 C 205.71875 226.109375 209.996094 221.226562 210.800781 219.617188 C 213.894531 213.433594 217.890625 212.480469 224.238281 212.480469 C 224.238281 212.480469 227.597656 214.578125 227.597656 214.578125 C 227.597656 216.152344 228.511719 219.765625 230.117188 222.976562 C 230.117188 222.976562 231.796875 223.820312 231.796875 223.820312 C 231.796875 226.675781 223.621094 226.015625 222.140625 226.757812 C 222.140625 226.757812 220.039062 231.375 220.039062 231.375 C 219.207031 232.207031 215 233.386719 215 235.578125 C 215 235.578125 216.257812 236.835938 216.257812 236.835938 C 212.191406 238.871094 207.429688 232.011719 197.78125 236.835938 C 197.78125 236.835938 195.683594 237.257812 195.683594 237.257812 C 195.105469 238.410156 191.484375 232.234375 191.484375 232.21875 C 191.484375 231.503906 192.617188 230.117188 191.90625 230.117188 C 188.757812 230.117188 190.617188 227.792969 188.546875 226.757812 C 186.425781 225.699219 180.566406 225.804688 180.566406 222.976562 C 180.566406 220.390625 183.925781 218.28125 183.925781 215.421875 C 183.925781 214.425781 182.320312 212.753906 183.085938 211.21875 C 183.550781 210.289062 187.285156 213.386719 187.285156 211.640625 Z M 187.285156 211.640625 "/>
<path style=" stroke:none;fill-rule:nonzero;fill:rgb(60.000002%,32.549021%,100%);fill-opacity:1;" d="M 131.855469 215.839844 C 131.855469 217.460938 133.476562 215.839844 131.855469 215.839844 Z M 131.855469 215.839844 "/>
<path style=" stroke:none;fill-rule:nonzero;fill:rgb(35.686275%,94.509804%,100%);fill-opacity:1;" d="M 140.253906 256.152344 L 141.933594 256.152344 C 146.964844 256.152344 150.101562 245.277344 152.011719 241.453125 C 152.011719 241.453125 169.648438 225.5 169.648438 225.5 C 171.78125 221.230469 163.625 216.679688 160.410156 216.679688 C 160.410156 216.679688 152.851562 216.679688 152.851562 216.679688 C 144.253906 216.679688 125.0625 235.425781 131.015625 247.335938 C 131.773438 248.851562 136.054688 252.796875 136.054688 253.632812 C 136.054688 253.632812 136.894531 254.472656 136.894531 254.472656 C 136.894531 254.472656 140.253906 256.152344 140.253906 256.152344 Z M 140.253906 256.152344 "/>
<path style=" stroke:none;fill-rule:nonzero;fill:rgb(35.686275%,94.509804%,100%);fill-opacity:1;" d="M 256.992188 217.519531 C 264.484375 217.519531 275.253906 222.546875 278.828125 229.695312 C 284.265625 240.574219 281.09375 256.152344 267.070312 256.152344 C 265.34375 256.152344 262.382812 245.515625 261.191406 243.132812 C 256.648438 234.046875 231.40625 217.519531 256.992188 217.519531 Z M 256.992188 217.519531 "/>
<path style=" stroke:none;fill-rule:nonzero;fill:rgb(20.392157%,100%,5.098039%);fill-opacity:1;" d="M 140.253906 262.03125 L 138.574219 266.230469 C 132.605469 266.230469 127.402344 257.742188 125.136719 253.210938 C 124.71875 252.375 122.050781 245.234375 124.296875 245.234375 C 124.296875 250.011719 136.304688 262.03125 140.253906 262.03125 Z M 140.253906 262.03125 "/>
<path style=" stroke:none;fill-rule:nonzero;fill:rgb(20.392157%,100%,5.098039%);fill-opacity:1;" d="M 272.949219 261.191406 C 274.179688 261.191406 275.917969 261.191406 277.148438 261.191406 C 283.9375 261.191406 286.386719 251.414062 286.386719 246.074219 C 285.394531 246.074219 285.097656 249.074219 284.707031 249.851562 C 284.707031 249.851562 280.507812 254.054688 280.507812 254.054688 C 280.507812 254.054688 280.507812 256.570312 280.507812 256.570312 C 280.507812 256.570312 272.949219 261.191406 272.949219 261.191406 Z M 272.949219 261.191406 "/>
<path style=" stroke:none;fill-rule:nonzero;fill:rgb(60.000002%,32.549021%,100%);fill-opacity:1;" d="M 136.894531 254.472656 L 140.253906 256.152344 C 139.058594 256.152344 136.054688 255.847656 136.054688 254.472656 C 136.054688 254.472656 136.894531 254.472656 136.894531 254.472656 Z M 136.894531 254.472656 "/>
<path style=" stroke:none;fill-rule:nonzero;fill:rgb(0%,96.470588%,5.490196%);fill-opacity:1;" d="M 180.566406 287.226562 L 182.246094 287.226562 C 182.246094 287.226562 183.085938 286.386719 183.085938 286.386719 C 183.085938 286.386719 184.765625 285.546875 184.765625 285.546875 C 184.765625 285.546875 185.605469 284.707031 185.605469 284.707031 C 185.605469 284.707031 185.605469 283.867188 185.605469 283.867188 C 185.605469 282.449219 182.976562 284.5 183.925781 282.609375 C 184.382812 281.695312 188.125 281.875 188.125 283.027344 C 188.125 283.027344 195.683594 282.1875 195.683594 282.1875 C 195.683594 282.1875 196.523438 281.347656 196.523438 281.347656 C 196.523438 281.347656 199.882812 281.347656 199.882812 281.347656 C 199.882812 281.347656 204.082031 278.40625 204.082031 278.40625 C 205.574219 275.425781 201.632812 275.1875 201.5625 275.046875 C 200.980469 273.886719 205.429688 274.382812 203.242188 270.007812 C 201.882812 267.289062 201.621094 272.410156 201.5625 272.53125 C 201.5625 272.53125 198.203125 273.367188 198.203125 273.367188 C 198.203125 273.367188 197.78125 276.308594 197.78125 276.308594 C 197.78125 276.308594 196.101562 274.628906 196.101562 274.628906 C 195.484375 274.628906 194.875 277.371094 192.742188 276.308594 C 190.183594 275.027344 190.238281 273.789062 187.703125 273.789062 C 187.703125 273.789062 185.1875 277.988281 185.1875 277.988281 C 183.273438 278.945312 181.292969 280.355469 179.304688 281.347656 C 177.410156 282.296875 177.625 280.085938 176.789062 279.667969 C 176.789062 279.667969 174.265625 280.507812 174.265625 280.507812 C 172.210938 279.480469 164.609375 276.585938 164.609375 281.347656 C 164.609375 284.300781 171.851562 284.707031 173.847656 284.707031 C 176.851562 284.707031 177.113281 282.445312 177.625 282.1875 C 177.625 282.1875 180.566406 282.609375 180.566406 282.609375 C 180.566406 283.074219 178.046875 284.613281 178.046875 286.386719 C 178.046875 286.386719 180.566406 287.226562 180.566406 287.226562 Z M 180.566406 287.226562 "/>
<path style=" stroke:none;fill-rule:evenodd;fill:rgb(0%,96.470588%,5.490196%);fill-opacity:1;" d="M 211.640625 273.789062 C 211.640625 275.410156 213.261719 273.789062 211.640625 273.789062 M 241.035156 284.707031 C 236.953125 284.707031 229.277344 281.863281 229.277344 286.386719 C 224.371094 286.386719 219.519531 282.1875 212.480469 282.1875 C 212.480469 280.863281 210.082031 281.347656 209.121094 281.347656 C 209.121094 281.347656 206.601562 278.828125 206.601562 278.828125 C 206.601562 277.707031 206.601562 277.429688 206.601562 276.308594 C 206.601562 276.308594 206.601562 271.269531 206.601562 271.269531 C 208.234375 271.269531 209.4375 269.589844 210.382812 269.589844 C 210.382812 269.589844 213.742188 272.949219 213.742188 272.949219 C 214.382812 273.269531 216.679688 272.683594 216.679688 274.210938 C 216.679688 277.042969 211.699219 274.628906 211.21875 274.628906 C 209.878906 274.628906 209.878906 277.148438 211.21875 277.148438 C 212.058594 277.148438 213.21875 275.628906 214.578125 276.308594 C 214.578125 276.308594 220.460938 277.988281 220.460938 277.988281 C 222.480469 276.976562 220.746094 274.90625 221.296875 274.628906 C 223.464844 273.546875 227.882812 278.761719 229.695312 279.667969 C 233.21875 281.425781 244.394531 275.871094 244.394531 283.027344 C 244.394531 283.027344 241.035156 284.707031 241.035156 284.707031 Z M 241.035156 284.707031 "/>
<path style=" stroke:none;fill-rule:nonzero;fill:rgb(25.490198%,58.823532%,100%);fill-opacity:1;" d="M 206.601562 271.269531 L 206.601562 276.308594 C 202.1875 276.308594 206.601562 268.316406 206.601562 271.269531 Z M 206.601562 271.269531 "/>
<path style=" stroke:none;fill-rule:nonzero;fill:rgb(60.000002%,32.549021%,100%);fill-opacity:1;" d="M 211.640625 273.789062 C 211.640625 275.410156 213.261719 273.789062 211.640625 273.789062 Z M 211.640625 273.789062 "/>
<path style=" stroke:none;fill-rule:nonzero;fill:rgb(60.000002%,32.549021%,100%);fill-opacity:1;" d="M 196.523438 281.347656 L 195.683594 282.1875 C 195.683594 282.1875 196.523438 281.347656 196.523438 281.347656 Z M 196.523438 281.347656 "/>
<path style=" stroke:none;fill-rule:nonzero;fill:rgb(100%,20.392157%,15.294118%);fill-opacity:1;" d="M 180.566406 287.226562 L 182.246094 287.226562 C 182.246094 287.226562 183.085938 286.386719 183.085938 286.386719 C 183.085938 286.386719 184.765625 285.546875 184.765625 285.546875 C 184.765625 285.546875 185.605469 284.707031 185.605469 284.707031 C 185.605469 284.707031 185.605469 283.867188 185.605469 283.867188 C 185.605469 283.867188 188.125 283.027344 188.125 283.027344 C 188.125 283.027344 195.683594 282.1875 195.683594 282.1875 C 195.683594 282.1875 196.523438 281.347656 196.523438 281.347656 C 196.523438 281.347656 199.882812 281.347656 199.882812 281.347656 C 199.882812 281.347656 200.722656 282.1875 200.722656 282.1875 C 200.722656 282.1875 201.5625 282.1875 201.5625 282.1875 C 201.5625 293.148438 180.566406 296.160156 180.566406 287.226562 Z M 180.566406 287.226562 "/>
<path style=" stroke:none;fill-rule:nonzero;fill:rgb(0%,96.470588%,5.490196%);fill-opacity:1;" d="M 200.722656 282.1875 L 201.5625 282.1875 C 201.5625 281.191406 200.722656 281.191406 200.722656 282.1875 Z M 200.722656 282.1875 "/>
<path style=" stroke:none;fill-rule:nonzero;fill:rgb(60.000002%,32.549021%,100%);fill-opacity:1;" d="M 212.480469 282.1875 L 209.121094 283.027344 C 209.121094 283.027344 209.121094 281.347656 209.121094 281.347656 C 210.082031 281.347656 212.480469 280.863281 212.480469 282.1875 Z M 212.480469 282.1875 "/>
<path style=" stroke:none;fill-rule:nonzero;fill:rgb(60.000002%,32.549021%,100%);fill-opacity:1;" d="M 173.847656 284.707031 C 176.851562 284.707031 177.113281 282.445312 177.625 282.1875 L 180.566406 282.609375 C 180.566406 283.074219 178.046875 284.613281 178.046875 286.386719 C 176.851562 286.386719 173.847656 286.082031 173.847656 284.707031 Z M 173.847656 284.707031 "/>
<path style=" stroke:none;fill-rule:nonzero;fill:rgb(60.000002%,32.549021%,100%);fill-opacity:1;" d="M 188.125 283.027344 L 185.605469 283.867188 C 185.605469 282.449219 182.976562 284.5 183.925781 282.609375 C 184.382812 281.695312 188.125 281.875 188.125 283.027344 Z M 188.125 283.027344 "/>
<path style=" stroke:none;fill-rule:nonzero;fill:rgb(100%,20.392157%,15.294118%);fill-opacity:1;" d="M 229.277344 286.386719 L 230.117188 286.386719 C 230.117188 295.203125 209.121094 297.792969 209.121094 283.027344 C 209.121094 283.027344 212.480469 282.1875 212.480469 282.1875 C 219.519531 282.1875 224.371094 286.386719 229.277344 286.386719 Z M 229.277344 286.386719 "/>
<path style=" stroke:none;fill-rule:nonzero;fill:rgb(60.000002%,32.549021%,100%);fill-opacity:1;" d="M 229.277344 286.386719 L 230.117188 286.386719 C 232.121094 286.386719 241.035156 287.492188 241.035156 284.707031 C 236.953125 284.707031 229.277344 281.863281 229.277344 286.386719 Z M 229.277344 286.386719 "/>
<path style=" stroke:none;fill-rule:nonzero;fill:rgb(60.000002%,32.549021%,100%);fill-opacity:1;" d="M 185.605469 284.707031 L 184.765625 285.546875 C 184.765625 285.546875 185.605469 284.707031 185.605469 284.707031 Z M 185.605469 284.707031 "/>
</g>
</svg>
