<?xml version="1.0" encoding="UTF-8"?>
<svg xmlns="http://www.w3.org/2000/svg" xmlns:xlink="http://www.w3.org/1999/xlink" width="430px" height="430px" viewBox="0 0 430 430" version="1.1">
<g id="surface1">
<rect x="0" y="0" width="430" height="430" style="fill:rgb(0%,0%,0%);fill-opacity:1;stroke:none;"/>
<path style=" stroke:none;fill-rule:evenodd;fill:rgb(52.549022%,100%,35.294119%);fill-opacity:1;" d="M 204.082031 255.3125 C 204.082031 257.339844 199.042969 254.898438 199.042969 257.414062 C 199.042969 265.542969 212.480469 265.460938 212.480469 258.25 C 212.480469 256.898438 209.582031 257.433594 208.703125 256.992188 C 206.949219 256.117188 206.257812 255.3125 204.082031 255.3125 M 183.085938 230.117188 C 183.085938 231.375 171.578125 231.882812 170.070312 232.636719 C 161.511719 236.914062 157.050781 241.074219 157.050781 253.210938 L 157.050781 259.929688 C 160.097656 266.027344 159.019531 273.945312 162.089844 280.085938 L 171.75 290.585938 L 175.109375 290.585938 L 176.789062 293.945312 C 179.816406 295.460938 187.285156 293.601562 187.285156 296.046875 L 195.265625 296.464844 L 195.265625 294.785156 L 199.460938 294.785156 C 200.960938 294.035156 202.679688 289.253906 205.34375 290.585938 C 208.128906 291.980469 209.738281 295.304688 213.742188 297.304688 C 216.914062 298.890625 223.105469 296.820312 225.5 295.625 L 228.859375 296.464844 C 231.980469 294.902344 235 292.972656 238.09375 291.425781 C 240.265625 290.339844 243.949219 284.335938 245.234375 281.765625 L 251.953125 275.890625 C 253.496094 272.804688 256.15625 249.023438 254.472656 245.65625 C 250.542969 237.796875 240.4375 235.066406 233.898438 231.796875 L 226.757812 232.636719 C 224.746094 232.636719 222.335938 229.597656 219.617188 230.957031 L 206.179688 236.835938 C 201.546875 236.835938 195.132812 232.152344 191.0625 230.117188 C 189.335938 229.253906 188.125 231.796875 186.867188 231.796875 Z M 183.085938 230.117188 "/>
<path style=" stroke:none;fill-rule:evenodd;fill:rgb(92.156863%,34.117648%,100%);fill-opacity:1;" d="M 204.921875 259.511719 C 204.921875 264.609375 208.480469 259.511719 204.921875 259.511719 M 204.082031 255.3125 C 204.082031 257.339844 199.042969 254.898438 199.042969 257.414062 C 199.042969 265.542969 212.480469 265.460938 212.480469 258.25 C 212.480469 256.898438 209.582031 257.433594 208.703125 256.992188 C 206.949219 256.117188 206.257812 255.3125 204.082031 255.3125 Z M 204.082031 255.3125 "/>
<path style=" stroke:none;fill-rule:nonzero;fill:rgb(15.294118%,95.686275%,99.215686%);fill-opacity:1;" d="M 204.921875 259.511719 C 204.921875 264.609375 208.480469 259.511719 204.921875 259.511719 Z M 204.921875 259.511719 "/>
</g>
</svg>
