<?xml version="1.0" encoding="UTF-8"?>
<svg xmlns="http://www.w3.org/2000/svg" xmlns:xlink="http://www.w3.org/1999/xlink" width="430px" height="430px" viewBox="0 0 430 430" version="1.1">
<g id="surface1">
<rect x="0" y="0" width="430" height="430" style="fill:rgb(0%,0%,0%);fill-opacity:1;stroke:none;"/>
<path style=" stroke:none;fill-rule:nonzero;fill:rgb(1.176471%,75.686276%,17.647059%);fill-opacity:1;" d="M 282.1875 211.640625 L 284.289062 213.320312 L 286.386719 212.480469 L 294.367188 212.480469 L 298.984375 205.34375 C 300.429688 202.453125 311.101562 192.867188 312.421875 190.226562 C 314.878906 185.3125 314.964844 179.261719 317.460938 174.265625 C 318.992188 171.207031 316.40625 164.621094 317.460938 162.507812 C 318.410156 160.613281 320.996094 147.742188 319.980469 145.710938 C 316.230469 138.214844 312.585938 130.925781 309.0625 123.875 C 307.726562 121.207031 304.148438 120.367188 301.921875 119.257812 L 300.664062 116.320312 C 299.769531 114.53125 288.863281 106.847656 286.804688 105.820312 C 283.84375 104.339844 279.648438 104.761719 276.726562 103.300781 C 272.152344 101.011719 267.828125 98.851562 263.289062 96.582031 L 258.25 96.582031 C 253.621094 94.265625 234.4375 88.332031 229.695312 90.703125 C 224.214844 93.445312 218.898438 94.84375 213.742188 97.421875 C 210.621094 98.980469 207.609375 108.339844 202.820312 108.339844 C 200.945312 108.339844 196.257812 100.019531 194.421875 99.101562 C 191.199219 97.488281 187.679688 96.570312 184.34375 94.902344 L 180.984375 95.742188 C 175.734375 93.117188 167.71875 93.976562 162.507812 96.582031 L 149.070312 97.421875 C 146.050781 98.933594 143.78125 101.746094 140.671875 103.300781 L 128.914062 104.980469 C 123.097656 107.890625 103.71875 121.363281 100.78125 127.234375 C 98.683594 131.429688 97.003906 136.46875 94.902344 140.671875 L 90.703125 144.875 L 90.703125 152.429688 C 84.4375 164.960938 99.488281 186.800781 104.980469 197.78125 L 113.378906 205.34375 C 115.257812 209.101562 116.371094 213.765625 120.515625 215.839844 C 125.25 218.207031 127.175781 212.480469 130.175781 212.480469 C 130.175781 212.480469 138.992188 203.242188 138.992188 203.242188 C 141.640625 201.917969 145.105469 199.765625 148.234375 198.203125 C 148.234375 198.203125 154.109375 192.324219 154.109375 192.324219 C 155.847656 191.457031 158.132812 191.574219 159.992188 190.644531 C 167.285156 186.996094 175.183594 196.980469 179.304688 199.042969 C 179.304688 199.042969 183.085938 204.921875 183.085938 204.921875 C 190.800781 204.921875 194.945312 209.121094 199.042969 209.121094 C 199.042969 203.296875 210 210.800781 211.640625 210.800781 C 211.640625 210.800781 215.839844 210.800781 215.839844 210.800781 C 215.839844 210.800781 216.679688 209.960938 216.679688 209.960938 C 223.386719 209.960938 229.828125 201.917969 235.578125 199.042969 C 235.578125 199.042969 238.9375 194.84375 238.9375 194.84375 C 241.398438 193.613281 249.304688 189.109375 252.375 190.644531 C 259.855469 194.386719 267.503906 198.21875 273.367188 204.082031 C 275.191406 205.902344 282.1875 210.769531 282.1875 211.640625 Z M 282.1875 211.640625 "/>
<path style=" stroke:none;fill-rule:evenodd;fill:rgb(100%,52.941179%,0%);fill-opacity:1;" d="M 165.449219 212.480469 C 165.449219 214.269531 158.730469 213.800781 158.730469 214.578125 C 158.730469 217.265625 170.945312 228.417969 174.265625 226.757812 C 177.21875 225.28125 176.609375 221.785156 175.527344 219.617188 L 175.109375 217.519531 L 173.429688 219.199219 L 173.007812 214.578125 L 168.390625 215 L 165.449219 212.480469 M 130.175781 212.480469 C 130.175781 216.15625 125.175781 220.535156 127.65625 225.5 C 132.261719 234.707031 133.503906 231.34375 138.992188 236.835938 L 140.671875 240.195312 C 143.523438 241.621094 148.691406 240.84375 152.429688 242.714844 C 157.402344 245.199219 158.226562 247.164062 160.410156 251.53125 L 164.1875 253.632812 L 167.546875 251.113281 C 170.015625 249.878906 173.328125 255.3125 175.527344 255.3125 C 189.722656 255.3125 193.964844 253.289062 199.882812 241.453125 C 201.289062 238.644531 203.242188 235.957031 203.242188 232.636719 C 202.113281 232.636719 201.019531 230.785156 201.5625 229.695312 C 203.320312 226.183594 201.273438 224.921875 199.882812 222.140625 C 199.175781 220.726562 202.5 219.816406 201.5625 217.9375 C 200.164062 215.148438 193.132812 208.894531 190.226562 207.441406 C 187.824219 206.242188 183.085938 209.441406 183.085938 204.921875 C 183.085938 204.921875 179.304688 199.042969 179.304688 199.042969 C 175.183594 196.980469 167.285156 186.996094 159.992188 190.644531 C 158.132812 191.574219 155.847656 191.457031 154.109375 192.324219 C 154.109375 192.324219 148.234375 198.203125 148.234375 198.203125 C 145.105469 199.765625 141.640625 201.917969 138.992188 203.242188 C 138.992188 203.242188 130.175781 212.480469 130.175781 212.480469 Z M 130.175781 212.480469 "/>
<path style=" stroke:none;fill-rule:evenodd;fill:rgb(100%,52.941179%,0%);fill-opacity:1;" d="M 241.875 213.320312 C 241.875 215.988281 236.292969 217.347656 235.15625 219.617188 L 234.316406 223.820312 L 232.636719 223.820312 C 231.5 226.09375 236.632812 228.328125 238.09375 227.597656 C 238.894531 227.199219 242.714844 224.519531 242.714844 223.820312 C 242.714844 223.273438 240.867188 222.433594 242.296875 221.71875 L 244.8125 222.558594 C 246.625 222.558594 245.234375 220.628906 245.234375 220.460938 C 245.234375 218.441406 250.273438 219.117188 250.273438 217.101562 C 250.273438 214.867188 243.476562 213.320312 241.875 213.320312 M 282.1875 211.640625 C 282.1875 215.132812 287.972656 218.128906 285.546875 222.976562 C 284.285156 225.503906 276.394531 234.484375 273.367188 235.996094 L 268.328125 236.835938 L 264.132812 241.035156 C 257.808594 244.195312 251.976562 248.792969 245.65625 251.953125 L 240.617188 251.953125 C 236.992188 253.765625 228.648438 259.40625 223.820312 256.992188 L 215 248.171875 L 215 244.8125 C 213.496094 241.804688 209.121094 238.671875 209.121094 234.316406 C 209.121094 229.210938 206.640625 222.058594 209.121094 217.101562 C 210.902344 213.53125 215.839844 215.394531 215.839844 210.800781 C 215.839844 210.800781 216.679688 209.960938 216.679688 209.960938 C 223.386719 209.960938 229.828125 201.917969 235.578125 199.042969 C 235.578125 199.042969 238.9375 194.84375 238.9375 194.84375 C 241.398438 193.613281 249.304688 189.109375 252.375 190.644531 C 259.855469 194.386719 267.503906 198.21875 273.367188 204.082031 C 275.191406 205.902344 282.1875 210.769531 282.1875 211.640625 Z M 282.1875 211.640625 "/>
<path style=" stroke:none;fill-rule:nonzero;fill:rgb(88.235295%,94.117647%,5.098039%);fill-opacity:1;" d="M 199.042969 209.121094 C 207.699219 209.121094 203.242188 229.222656 203.242188 232.636719 C 202.113281 232.636719 201.019531 230.785156 201.5625 229.695312 C 203.320312 226.183594 201.273438 224.921875 199.882812 222.140625 C 199.175781 220.726562 202.5 219.816406 201.5625 217.9375 C 200.164062 215.148438 193.132812 208.894531 190.226562 207.441406 C 187.824219 206.242188 183.085938 209.441406 183.085938 204.921875 C 190.800781 204.921875 194.945312 209.121094 199.042969 209.121094 Z M 199.042969 209.121094 "/>
<path style=" stroke:none;fill-rule:nonzero;fill:rgb(88.235295%,94.117647%,5.098039%);fill-opacity:1;" d="M 216.679688 209.960938 L 215.839844 210.800781 C 215.839844 210.800781 216.679688 209.960938 216.679688 209.960938 Z M 216.679688 209.960938 "/>
<path style=" stroke:none;fill-rule:nonzero;fill:rgb(88.235295%,94.117647%,5.098039%);fill-opacity:1;" d="M 215.839844 210.800781 C 215.839844 215.394531 210.902344 213.53125 209.121094 217.101562 C 206.640625 222.058594 209.121094 229.210938 209.121094 234.316406 C 204.851562 234.316406 207.058594 217.023438 208.28125 214.578125 C 208.28125 214.578125 211.640625 210.800781 211.640625 210.800781 C 211.640625 210.800781 215.839844 210.800781 215.839844 210.800781 Z M 215.839844 210.800781 "/>
<path style=" stroke:none;fill-rule:nonzero;fill:rgb(100%,30.980393%,80.784315%);fill-opacity:1;" d="M 165.449219 212.480469 C 165.449219 214.269531 158.730469 213.800781 158.730469 214.578125 C 158.730469 217.265625 170.945312 228.417969 174.265625 226.757812 C 177.21875 225.28125 176.609375 221.785156 175.527344 219.617188 L 175.109375 217.519531 L 173.429688 219.199219 L 173.007812 214.578125 L 168.390625 215 Z M 165.449219 212.480469 "/>
<path style=" stroke:none;fill-rule:nonzero;fill:rgb(100%,30.980393%,80.784315%);fill-opacity:1;" d="M 241.875 213.320312 C 241.875 215.988281 236.292969 217.347656 235.15625 219.617188 L 234.316406 223.820312 L 232.636719 223.820312 C 231.5 226.09375 236.632812 228.328125 238.09375 227.597656 C 238.894531 227.199219 242.714844 224.519531 242.714844 223.820312 C 242.714844 223.273438 240.867188 222.433594 242.296875 221.71875 L 244.8125 222.558594 C 246.625 222.558594 245.234375 220.628906 245.234375 220.460938 C 245.234375 218.441406 250.273438 219.117188 250.273438 217.101562 C 250.273438 214.867188 243.476562 213.320312 241.875 213.320312 Z M 241.875 213.320312 "/>
<path style=" stroke:none;fill-rule:nonzero;fill:rgb(18.82353%,85.490197%,0%);fill-opacity:1;" d="M 188.964844 257.832031 C 188.964844 260.007812 182.980469 260.558594 184.765625 264.132812 C 187.027344 268.65625 187.171875 266.230469 189.382812 266.230469 C 190.378906 266.230469 193.078125 268.75 194.421875 268.75 C 196.503906 268.75 195 265.101562 196.101562 264.550781 L 198.203125 264.132812 C 198.519531 263.5 194.890625 257.832031 194.421875 257.832031 C 192.996094 257.832031 190.515625 257.832031 188.964844 257.832031 Z M 188.964844 257.832031 "/>
<path style=" stroke:none;fill-rule:nonzero;fill:rgb(18.82353%,85.490197%,0%);fill-opacity:1;" d="M 224.238281 258.671875 C 224.238281 260.019531 217.082031 259.964844 215.839844 262.453125 C 214.207031 265.71875 219.832031 270.429688 221.296875 270.429688 C 223.085938 270.429688 231.796875 265.222656 231.796875 264.132812 C 231.796875 261.980469 229.441406 260.933594 228.015625 259.511719 C 227.324219 258.816406 225.644531 258.671875 224.238281 258.671875 Z M 224.238281 258.671875 "/>
<path style=" stroke:none;fill-rule:nonzero;fill:rgb(98.039216%,50.196081%,44.705883%);fill-opacity:1;" d="M 154.53125 262.871094 C 154.53125 264.976562 153.691406 268.234375 153.691406 270.007812 C 153.691406 272.121094 156.046875 270.136719 156.632812 270.429688 C 158.460938 271.34375 157.390625 270.46875 159.148438 269.589844 L 160.828125 270.429688 C 163.441406 270.429688 162.082031 261.40625 157.46875 263.710938 C 155.40625 264.742188 156.535156 262.871094 154.53125 262.871094 Z M 154.53125 262.871094 "/>
<path style=" stroke:none;fill-rule:nonzero;fill:rgb(98.039216%,50.196081%,44.705883%);fill-opacity:1;" d="M 256.992188 262.871094 C 256.992188 264.183594 256.152344 266.125 256.152344 267.910156 L 256.152344 271.6875 C 256.152344 284.214844 266.359375 262.871094 256.992188 262.871094 Z M 256.992188 262.871094 "/>
<path style=" stroke:none;fill-rule:nonzero;fill:rgb(98.039216%,50.196081%,44.705883%);fill-opacity:1;" d="M 238.515625 309.0625 L 235.996094 312.84375 C 234.195312 316.445312 238.273438 322.5625 236.835938 325.4375 C 236.28125 326.550781 235.242188 328.972656 235.996094 330.476562 C 237.613281 333.710938 249.84375 336.363281 252.375 335.097656 C 254.960938 333.800781 252.320312 326.699219 256.570312 326.699219 C 259.929688 326.699219 262.109375 337.042969 266.230469 328.796875 C 268.835938 323.585938 264.511719 315.132812 260.773438 313.261719 C 259.824219 312.789062 255.667969 314.648438 255.3125 315.359375 C 255.046875 315.890625 254.15625 319.765625 253.632812 318.71875 C 250.839844 313.136719 254.53125 312.421875 246.492188 312.421875 L 243.976562 309.0625 Z M 238.515625 309.0625 "/>
<path style=" stroke:none;fill-rule:nonzero;fill:rgb(98.039216%,50.196081%,44.705883%);fill-opacity:1;" d="M 165.449219 313.261719 L 163.351562 314.941406 C 158.878906 319.414062 158.140625 318.300781 152.429688 318.300781 L 145.292969 325.4375 C 141.859375 332.308594 155.121094 332.492188 156.632812 331.738281 L 159.992188 330.058594 L 163.769531 332.15625 L 164.1875 335.097656 L 166.710938 333.417969 C 167.679688 333.417969 169.566406 334.257812 171.75 334.257812 C 172.4375 334.257812 174.203125 341.007812 177.625 339.296875 C 187.414062 334.402344 176.75 328.867188 177.207031 327.960938 L 181.40625 324.601562 C 183.386719 320.636719 180.804688 314.851562 177.625 313.261719 C 176.050781 312.472656 172.414062 314.941406 170.90625 314.941406 C 169.414062 314.941406 167.613281 313.261719 165.449219 313.261719 Z M 165.449219 313.261719 "/>
</g>
</svg>
