<?xml version="1.0" encoding="UTF-8"?>
<svg xmlns="http://www.w3.org/2000/svg" xmlns:xlink="http://www.w3.org/1999/xlink" width="430px" height="430px" viewBox="0 0 430 430" version="1.1">
<g id="surface1">
<rect x="0" y="0" width="430" height="430" style="fill:rgb(0%,0%,0%);fill-opacity:1;stroke:none;"/>
<path style=" stroke:none;fill-rule:evenodd;fill:rgb(52.549022%,100%,35.294119%);fill-opacity:1;" d="M 200.722656 279.667969 C 200.722656 282.011719 199.882812 283.824219 199.882812 285.96875 C 199.882812 286.992188 205.519531 288.398438 206.179688 288.066406 C 208.289062 287.011719 211.585938 281.53125 207.859375 279.667969 C 206.09375 278.785156 205.617188 281.347656 204.5 281.347656 C 203.558594 281.347656 202.355469 279.667969 200.722656 279.667969 M 189.804688 251.953125 C 189.804688 256.277344 185.941406 252.792969 185.1875 252.792969 L 183.507812 256.152344 C 181.460938 257.175781 179.222656 256.152344 177.625 256.152344 L 173.007812 261.609375 L 167.96875 264.96875 C 166.074219 268.761719 166.523438 273.738281 164.609375 277.570312 L 164.609375 284.707031 C 164.609375 299.390625 167.820312 308.492188 177.625 318.300781 L 185.1875 323.339844 L 191.484375 324.601562 C 191.484375 326.855469 200.03125 325.996094 201.984375 325.019531 L 204.5 320.820312 C 207.84375 320.820312 207.929688 325.054688 209.539062 325.859375 C 214.46875 328.324219 222.871094 325.492188 227.179688 323.339844 C 231.273438 321.292969 234.472656 315.890625 235.996094 312.84375 L 240.195312 308.640625 C 243.300781 302.433594 245.261719 298.511719 247.753906 293.523438 C 248.894531 291.25 246.199219 292.09375 246.074219 291.84375 L 246.914062 284.289062 C 245.105469 280.667969 244.753906 275.769531 242.714844 271.6875 L 243.554688 267.492188 L 241.035156 265.8125 C 236.792969 257.328125 228.761719 256.523438 221.296875 252.792969 C 217.617188 250.953125 208.226562 253.816406 207.859375 253.632812 C 203.113281 251.257812 196.054688 251.953125 189.804688 251.953125 Z M 189.804688 251.953125 "/>
<path style=" stroke:none;fill-rule:evenodd;fill:rgb(92.156863%,34.117648%,100%);fill-opacity:1;" d="M 204.082031 283.027344 C 204.082031 288.125 207.640625 283.027344 204.082031 283.027344 M 200.722656 279.667969 C 200.722656 282.011719 199.882812 283.824219 199.882812 285.96875 C 199.882812 286.992188 205.519531 288.398438 206.179688 288.066406 C 208.289062 287.011719 211.585938 281.53125 207.859375 279.667969 C 206.09375 278.785156 205.617188 281.347656 204.5 281.347656 C 203.558594 281.347656 202.355469 279.667969 200.722656 279.667969 Z M 200.722656 279.667969 "/>
<path style=" stroke:none;fill-rule:nonzero;fill:rgb(15.294118%,95.686275%,99.215686%);fill-opacity:1;" d="M 204.082031 283.027344 C 204.082031 288.125 207.640625 283.027344 204.082031 283.027344 Z M 204.082031 283.027344 "/>
</g>
</svg>
