<?xml version="1.0" encoding="UTF-8"?>
<svg xmlns="http://www.w3.org/2000/svg" xmlns:xlink="http://www.w3.org/1999/xlink" width="430px" height="430px" viewBox="0 0 430 430" version="1.1">
<g id="surface1">
<rect x="0" y="0" width="430" height="430" style="fill:rgb(0%,0%,0%);fill-opacity:1;stroke:none;"/>
<path style=" stroke:none;fill-rule:nonzero;fill:rgb(100%,100%,0%);fill-opacity:1;" d="M 184.765625 86.503906 C 184.765625 86.808594 177.449219 90.613281 180.984375 92.382812 C 183.164062 93.472656 192.683594 86.503906 184.765625 86.503906 Z M 184.765625 86.503906 "/>
<path style=" stroke:none;fill-rule:evenodd;fill:rgb(100%,100%,0%);fill-opacity:1;" d="M 257.832031 131.015625 C 257.832031 131.15625 255.3125 136.027344 255.3125 138.15625 L 258.671875 142.351562 C 260.382812 145.773438 261.167969 149.863281 262.871094 153.273438 L 269.171875 162.089844 C 271.433594 163.222656 275.902344 153.296875 275.46875 152.429688 C 273.453125 148.398438 261.042969 131.015625 257.832031 131.015625 M 152.851562 126.816406 C 152.851562 130.386719 148.457031 131.824219 146.972656 134.796875 C 143.789062 141.160156 137.914062 148.894531 132.695312 154.109375 C 130.683594 156.125 122.878906 161.351562 124.296875 164.1875 C 125.527344 166.652344 129.464844 166.125 130.175781 167.546875 L 133.117188 173.847656 C 136.402344 175.492188 139.996094 169.746094 141.09375 167.546875 L 143.613281 158.3125 C 147.941406 149.652344 151.867188 140.960938 156.210938 132.273438 C 157.691406 129.316406 155.945312 126.816406 152.851562 126.816406 M 140.253906 119.257812 C 140.253906 121.867188 135.949219 121.566406 135.214844 123.039062 C 133.296875 126.875 119.035156 134.695312 114.640625 136.894531 C 108.972656 139.726562 109.179688 145.824219 109.179688 151.171875 C 109.179688 152.230469 109.054688 157.050781 110.4375 157.050781 C 120.816406 157.050781 119.65625 149.503906 128.078125 145.292969 L 134.375 139.835938 C 135.796875 136.992188 138.929688 131.46875 141.515625 130.175781 C 145.945312 127.960938 148.101562 119.257812 140.253906 119.257812 M 173.007812 118.417969 C 173.007812 123.121094 166.648438 123.15625 164.609375 127.234375 C 160.1875 136.082031 158.101562 146.132812 153.691406 154.953125 L 152.011719 162.507812 C 148.503906 169.523438 141.933594 177.90625 141.933594 185.1875 C 141.933594 187.515625 144.597656 185.605469 144.875 185.605469 C 149.035156 185.605469 156.300781 180.800781 158.730469 175.945312 C 160.492188 172.421875 159.3125 158.824219 162.089844 153.273438 C 163.289062 150.871094 163.464844 148.003906 164.609375 145.710938 L 167.128906 144.875 C 167.128906 142.445312 166.597656 140.058594 167.96875 137.3125 L 170.488281 135.632812 L 170.90625 133.535156 C 174.921875 131.527344 173.828125 138.195312 173.007812 139.835938 L 170.488281 142.351562 C 169.300781 144.730469 165.347656 164.765625 168.390625 166.289062 C 170.714844 167.453125 171.574219 163.699219 172.167969 162.507812 L 173.007812 152.429688 C 175.226562 147.996094 178.144531 139.574219 183.507812 136.894531 C 192.429688 132.433594 228.148438 126.65625 234.316406 138.992188 C 236.601562 143.566406 237.871094 148.621094 240.195312 153.273438 L 241.035156 159.148438 L 250.273438 175.945312 C 251.613281 178.625 261.554688 189.5 264.550781 183.507812 C 267.488281 177.632812 258.167969 158.984375 255.3125 153.273438 C 254.425781 151.496094 254.488281 149.105469 253.632812 147.390625 L 247.753906 142.351562 C 246.085938 139.019531 244.355469 137.238281 242.714844 133.953125 C 241.175781 130.875 241.023438 124.5 237.257812 122.617188 C 230.710938 119.34375 210.824219 122.617188 201.5625 122.617188 C 199.632812 122.617188 193.648438 125.167969 191.90625 124.296875 C 188.917969 122.804688 175.652344 118.417969 173.007812 118.417969 M 209.960938 90.703125 C 209.960938 92.832031 201.835938 91.195312 201.140625 91.542969 C 198.664062 92.78125 196.113281 93.636719 193.585938 94.902344 L 191.0625 94.0625 L 188.546875 97.421875 C 186.222656 98.582031 179.390625 101.03125 178.886719 102.039062 L 179.304688 109.179688 C 186.242188 112.648438 207.292969 104.277344 213.742188 107.5 C 216.984375 109.121094 228.15625 111.628906 231.375 110.019531 C 236.714844 107.351562 228.546875 103.097656 227.597656 101.203125 L 227.179688 97.421875 L 226.335938 99.941406 L 225.917969 97.84375 L 223.398438 97 L 224.238281 94.484375 C 224.238281 91.316406 213.097656 90.703125 209.960938 90.703125 M 170.488281 182.246094 C 170.488281 183.472656 173.054688 181.917969 173.847656 183.507812 C 175.289062 186.390625 173.910156 182.246094 175.945312 182.246094 L 176.789062 183.925781 C 178.472656 184.769531 180.890625 183.878906 182.664062 184.765625 L 186.023438 183.925781 C 189.269531 185.546875 198.605469 183.078125 200.304688 183.925781 C 201.746094 184.648438 205.402344 183.925781 207.023438 183.925781 C 211.34375 183.925781 219.640625 188.113281 224.65625 185.605469 C 226.675781 184.597656 242.871094 182.246094 244.394531 182.246094 C 244.394531 182.246094 244.8125 178.046875 244.8125 178.046875 C 247.472656 178.046875 258.199219 196.550781 264.96875 193.164062 C 277.546875 186.875 264.710938 177.308594 267.910156 170.90625 C 268.21875 170.289062 275.816406 177.242188 277.570312 176.367188 C 278.84375 175.730469 282.730469 174.019531 283.867188 171.75 C 283.867188 171.75 285.96875 167.128906 285.96875 167.128906 C 287.085938 167.128906 288.675781 167.171875 289.746094 165.03125 C 292.277344 159.964844 284.707031 155.34375 284.707031 153.273438 C 284.707031 153.273438 282.609375 151.171875 282.609375 151.171875 C 282.609375 151.171875 281.765625 152.851562 281.765625 152.851562 C 280.46875 152.851562 276.964844 146.367188 275.890625 145.292969 C 273.429688 142.832031 270.3125 138.757812 268.75 135.632812 C 268.636719 135.410156 267.058594 131.855469 268.328125 131.855469 C 268.328125 131.855469 271.6875 136.894531 271.6875 136.894531 C 279.25 140.675781 282.105469 151.757812 289.328125 155.371094 C 289.328125 155.371094 291.007812 154.53125 291.007812 154.53125 C 296.164062 154.53125 297.511719 145.289062 294.785156 139.835938 C 291.585938 133.4375 284.15625 125.976562 277.570312 125.976562 C 277.570312 125.976562 276.726562 122.617188 276.726562 122.617188 C 276.726562 122.617188 272.53125 123.457031 272.53125 123.457031 C 271.511719 122.949219 269.742188 118.132812 267.492188 119.257812 C 263.5 121.25 263.328125 122.273438 265.390625 126.398438 C 265.390625 126.398438 267.492188 131.015625 267.492188 131.015625 C 267.492188 131.015625 264.132812 127.65625 264.132812 127.65625 C 258.476562 124.832031 263.285156 119.257812 251.53125 119.257812 C 251.53125 119.257812 249.015625 118.417969 249.015625 118.417969 C 249.015625 118.417969 248.59375 121.359375 248.59375 121.359375 C 248.59375 121.359375 246.074219 122.195312 246.074219 122.195312 C 246.074219 122.195312 247.753906 123.875 247.753906 123.875 C 247.753906 123.875 247.335938 128.496094 247.335938 128.496094 C 245.726562 128.496094 243.304688 120.851562 242.714844 119.679688 C 241.691406 117.632812 234.316406 117.652344 234.316406 112.960938 C 234.316406 112.960938 236.414062 112.539062 236.414062 112.539062 C 236.414062 112.539062 237.675781 109.601562 237.675781 109.601562 C 237.675781 109.601562 235.996094 95.320312 235.996094 95.320312 C 235.996094 95.320312 232.21875 93.222656 232.21875 93.222656 C 228.625 91.425781 225.660156 89.101562 222.140625 87.34375 C 216.679688 84.613281 201.199219 89.023438 196.101562 89.023438 C 196.101562 89.023438 194.421875 88.183594 194.421875 88.183594 C 191.515625 89.636719 177.417969 95.738281 177.207031 96.164062 C 177.207031 96.164062 173.007812 105.398438 173.007812 105.398438 C 171.121094 109.171875 178.699219 111.160156 167.546875 116.738281 C 167.546875 116.738281 162.507812 121.777344 162.507812 121.777344 C 161.261719 121.777344 159.148438 118.417969 157.46875 118.417969 C 156.488281 118.417969 153.703125 122.222656 152.851562 120.515625 C 151.742188 118.296875 155.351562 115.441406 154.53125 113.796875 C 154.53125 113.796875 152.011719 112.117188 152.011719 112.117188 C 152.011719 112.117188 151.59375 110.019531 151.59375 110.019531 C 151.59375 110.019531 150.75 111.699219 150.75 111.699219 C 148.960938 112.59375 142.359375 112.539062 141.515625 112.539062 C 141.476562 112.539062 129.460938 120.246094 128.078125 120.9375 C 128.078125 120.9375 124.71875 125.136719 124.71875 125.136719 C 115.164062 129.914062 103.945312 137.703125 99.941406 145.710938 C 97.980469 149.632812 103.078125 153.660156 104.140625 155.789062 C 105.390625 158.289062 105.375 161.617188 106.660156 164.1875 C 107.289062 165.445312 111.699219 163.539062 111.699219 165.867188 C 111.699219 167.214844 109.921875 169.875 110.859375 171.75 C 110.859375 171.75 113.796875 173.007812 113.796875 173.007812 C 113.796875 173.007812 118 178.046875 118 178.046875 C 118 178.046875 119.679688 176.367188 119.679688 176.367188 C 119.679688 176.367188 120.097656 180.148438 120.097656 180.148438 C 120.097656 180.148438 123.039062 182.246094 123.039062 182.246094 C 123.039062 182.246094 129.757812 182.246094 129.757812 182.246094 C 129.757812 182.246094 130.59375 183.925781 130.59375 183.925781 C 130.847656 183.925781 132.65625 178.65625 134.796875 179.726562 C 137.730469 181.195312 134.375 187.929688 134.375 190.644531 C 134.375 190.644531 135.632812 194.84375 135.632812 194.84375 C 141.578125 194.84375 145.199219 192.582031 150.75 189.804688 C 153.230469 188.566406 159.617188 181.40625 160.828125 181.40625 C 160.828125 181.40625 161.25 177.625 161.25 177.625 C 161.25 177.625 163.769531 173.429688 163.769531 173.429688 C 163.769531 173.429688 164.1875 169.648438 164.1875 169.648438 C 166.179688 169.648438 164.875 173.847656 165.867188 173.847656 C 165.867188 173.847656 166.710938 171.328125 166.710938 171.328125 C 166.710938 171.328125 167.546875 174.6875 167.546875 174.6875 C 169.148438 175.488281 171.234375 171.328125 171.75 171.328125 C 171.75 171.328125 172.167969 174.6875 172.167969 174.6875 C 172.167969 178.160156 170.488281 178.496094 170.488281 182.246094 M 173.847656 167.128906 C 171.144531 167.128906 173.847656 172.773438 173.847656 169.648438 C 173.847656 169.648438 176.789062 167.96875 176.789062 167.96875 C 177.1875 167.769531 183.863281 170.308594 185.1875 169.648438 C 187.765625 168.359375 188.773438 169.648438 191.0625 169.648438 C 191.0625 169.648438 191.90625 167.96875 191.90625 167.96875 C 196.609375 167.96875 204.84375 168.21875 208.703125 166.289062 C 211.148438 165.066406 220.175781 168.949219 223.820312 167.128906 C 223.820312 167.128906 225.5 168.808594 225.5 168.808594 C 227.015625 168.808594 229.128906 167.96875 230.539062 167.96875 C 230.539062 167.96875 232.21875 169.648438 232.21875 169.648438 C 232.21875 169.648438 233.054688 167.96875 233.054688 167.96875 C 233.617188 167.96875 237.597656 172.835938 238.9375 172.167969 C 241.386719 170.941406 238.230469 163.621094 237.675781 162.507812 C 236.996094 161.152344 237.722656 154.203125 235.996094 150.75 C 235.996094 150.75 232.21875 149.492188 232.21875 149.492188 C 230.839844 148.117188 231.265625 146.5 228.859375 145.292969 C 221.558594 141.640625 211.109375 143.667969 204.5 146.972656 C 204.5 146.972656 194.421875 146.972656 194.421875 146.972656 C 190.441406 148.964844 186.386719 151.652344 183.507812 154.53125 C 180.566406 157.46875 173.847656 162.535156 173.847656 167.128906 Z M 173.847656 167.128906 "/>
<path style=" stroke:none;fill-rule:nonzero;fill:rgb(0%,100%,100%);fill-opacity:1;" d="M 209.960938 90.703125 C 209.960938 92.832031 201.835938 91.195312 201.140625 91.542969 C 198.664062 92.78125 196.113281 93.636719 193.585938 94.902344 L 191.0625 94.0625 L 188.546875 97.421875 C 186.222656 98.582031 179.390625 101.03125 178.886719 102.039062 L 179.304688 109.179688 C 186.242188 112.648438 207.292969 104.277344 213.742188 107.5 C 216.984375 109.121094 228.15625 111.628906 231.375 110.019531 C 236.714844 107.351562 228.546875 103.097656 227.597656 101.203125 L 227.179688 97.421875 L 226.335938 99.941406 L 225.917969 97.84375 L 223.398438 97 L 224.238281 94.484375 C 224.238281 91.316406 213.097656 90.703125 209.960938 90.703125 Z M 209.960938 90.703125 "/>
<path style=" stroke:none;fill-rule:nonzero;fill:rgb(100%,100%,0%);fill-opacity:1;" d="M 122.617188 116.738281 C 122.617188 117.484375 105.441406 128.160156 106.660156 130.59375 C 107.886719 133.046875 109.875 130.878906 111.28125 130.175781 L 113.796875 126.816406 C 115.363281 126.035156 132.964844 116.738281 122.617188 116.738281 Z M 122.617188 116.738281 "/>
<path style=" stroke:none;fill-rule:nonzero;fill:rgb(0%,100%,100%);fill-opacity:1;" d="M 173.007812 118.417969 C 173.007812 123.121094 166.648438 123.15625 164.609375 127.234375 C 160.1875 136.082031 158.101562 146.132812 153.691406 154.953125 L 152.011719 162.507812 C 148.503906 169.523438 141.933594 177.90625 141.933594 185.1875 C 141.933594 187.515625 144.597656 185.605469 144.875 185.605469 C 149.035156 185.605469 156.300781 180.800781 158.730469 175.945312 C 160.492188 172.421875 159.3125 158.824219 162.089844 153.273438 C 163.289062 150.871094 163.464844 148.003906 164.609375 145.710938 L 167.128906 144.875 C 167.128906 142.445312 166.597656 140.058594 167.96875 137.3125 L 170.488281 135.632812 L 170.90625 133.535156 C 174.921875 131.527344 173.828125 138.195312 173.007812 139.835938 L 170.488281 142.351562 C 169.300781 144.730469 165.347656 164.765625 168.390625 166.289062 C 170.714844 167.453125 171.574219 163.699219 172.167969 162.507812 L 173.007812 152.429688 C 175.226562 147.996094 178.144531 139.574219 183.507812 136.894531 C 192.429688 132.433594 228.148438 126.65625 234.316406 138.992188 C 236.601562 143.566406 237.871094 148.621094 240.195312 153.273438 L 241.035156 159.148438 L 250.273438 175.945312 C 251.613281 178.625 261.554688 189.5 264.550781 183.507812 C 267.488281 177.632812 258.167969 158.984375 255.3125 153.273438 C 254.425781 151.496094 254.488281 149.105469 253.632812 147.390625 L 247.753906 142.351562 C 246.085938 139.019531 244.355469 137.238281 242.714844 133.953125 C 241.175781 130.875 241.023438 124.5 237.257812 122.617188 C 230.710938 119.34375 210.824219 122.617188 201.5625 122.617188 C 199.632812 122.617188 193.648438 125.167969 191.90625 124.296875 C 188.917969 122.804688 175.652344 118.417969 173.007812 118.417969 Z M 173.007812 118.417969 "/>
<path style=" stroke:none;fill-rule:nonzero;fill:rgb(0%,100%,100%);fill-opacity:1;" d="M 140.253906 119.257812 C 140.253906 121.867188 135.949219 121.566406 135.214844 123.039062 C 133.296875 126.875 119.035156 134.695312 114.640625 136.894531 C 108.972656 139.726562 109.179688 145.824219 109.179688 151.171875 C 109.179688 152.230469 109.054688 157.050781 110.4375 157.050781 C 120.816406 157.050781 119.65625 149.503906 128.078125 145.292969 L 134.375 139.835938 C 135.796875 136.992188 138.929688 131.46875 141.515625 130.175781 C 145.945312 127.960938 148.101562 119.257812 140.253906 119.257812 Z M 140.253906 119.257812 "/>
<path style=" stroke:none;fill-rule:nonzero;fill:rgb(0%,100%,100%);fill-opacity:1;" d="M 152.851562 126.816406 C 152.851562 130.386719 148.457031 131.824219 146.972656 134.796875 C 143.789062 141.160156 137.914062 148.894531 132.695312 154.109375 C 130.683594 156.125 122.878906 161.351562 124.296875 164.1875 C 125.527344 166.652344 129.464844 166.125 130.175781 167.546875 L 133.117188 173.847656 C 136.402344 175.492188 139.996094 169.746094 141.09375 167.546875 L 143.613281 158.3125 C 147.941406 149.652344 151.867188 140.960938 156.210938 132.273438 C 157.691406 129.316406 155.945312 126.816406 152.851562 126.816406 Z M 152.851562 126.816406 "/>
<path style=" stroke:none;fill-rule:nonzero;fill:rgb(0%,100%,100%);fill-opacity:1;" d="M 257.832031 131.015625 C 257.832031 131.15625 255.3125 136.027344 255.3125 138.15625 L 258.671875 142.351562 C 260.382812 145.773438 261.167969 149.863281 262.871094 153.273438 L 269.171875 162.089844 C 271.433594 163.222656 275.902344 153.296875 275.46875 152.429688 C 273.453125 148.398438 261.042969 131.015625 257.832031 131.015625 Z M 257.832031 131.015625 "/>
<path style=" stroke:none;fill-rule:nonzero;fill:rgb(0%,100%,100%);fill-opacity:1;" d="M 173.847656 167.128906 L 173.847656 169.648438 C 173.847656 169.648438 176.789062 167.96875 176.789062 167.96875 C 177.1875 167.769531 183.863281 170.308594 185.1875 169.648438 C 187.765625 168.359375 188.773438 169.648438 191.0625 169.648438 C 191.0625 169.648438 191.90625 167.96875 191.90625 167.96875 C 196.609375 167.96875 204.84375 168.21875 208.703125 166.289062 C 211.148438 165.066406 220.175781 168.949219 223.820312 167.128906 C 223.820312 167.128906 225.5 168.808594 225.5 168.808594 C 227.015625 168.808594 229.128906 167.96875 230.539062 167.96875 C 230.539062 167.96875 232.21875 169.648438 232.21875 169.648438 C 232.21875 169.648438 233.054688 167.96875 233.054688 167.96875 C 233.617188 167.96875 237.597656 172.835938 238.9375 172.167969 C 241.386719 170.941406 238.230469 163.621094 237.675781 162.507812 C 236.996094 161.152344 237.722656 154.203125 235.996094 150.75 C 235.996094 150.75 232.21875 149.492188 232.21875 149.492188 C 230.839844 148.117188 231.265625 146.5 228.859375 145.292969 C 221.558594 141.640625 211.109375 143.667969 204.5 146.972656 C 204.5 146.972656 194.421875 146.972656 194.421875 146.972656 C 190.441406 148.964844 186.386719 151.652344 183.507812 154.53125 C 180.566406 157.46875 173.847656 162.535156 173.847656 167.128906 Z M 173.847656 167.128906 "/>
<path style=" stroke:none;fill-rule:nonzero;fill:rgb(0%,100%,100%);fill-opacity:1;" d="M 167.96875 187.285156 L 168.808594 188.964844 C 169.890625 188.964844 181.546875 197.363281 182.664062 197.363281 C 190.21875 197.363281 194.75 197.105469 201.984375 200.722656 C 204.699219 202.082031 219.40625 197.46875 222.976562 195.683594 C 227.128906 193.609375 244.394531 193.207031 244.394531 185.605469 C 244.394531 185.605469 244.394531 182.246094 244.394531 182.246094 C 242.871094 182.246094 226.675781 184.597656 224.65625 185.605469 C 219.640625 188.113281 211.34375 183.925781 207.023438 183.925781 C 205.402344 183.925781 201.746094 184.648438 200.304688 183.925781 C 198.605469 183.078125 189.269531 185.546875 186.023438 183.925781 C 186.023438 183.925781 182.664062 184.765625 182.664062 184.765625 C 180.890625 183.878906 178.472656 184.769531 176.789062 183.925781 C 176.789062 183.925781 175.945312 182.246094 175.945312 182.246094 C 173.910156 182.246094 175.289062 186.390625 173.847656 183.507812 C 173.054688 181.917969 170.488281 183.472656 170.488281 182.246094 C 168.617188 182.246094 167.128906 183.734375 167.128906 185.605469 C 167.128906 185.605469 167.96875 187.285156 167.96875 187.285156 Z M 167.96875 187.285156 "/>
<path style=" stroke:none;fill-rule:nonzero;fill:rgb(100%,100%,0%);fill-opacity:1;" d="M 167.96875 187.285156 L 168.808594 188.964844 C 169.890625 188.964844 181.546875 197.363281 182.664062 197.363281 C 190.21875 197.363281 194.75 197.105469 201.984375 200.722656 C 204.699219 202.082031 219.40625 197.46875 222.976562 195.683594 C 227.128906 193.609375 244.394531 193.207031 244.394531 185.605469 C 248.859375 185.605469 248.265625 191.4375 244.8125 193.164062 C 241.789062 194.675781 237.761719 195.011719 234.734375 196.523438 C 234.734375 196.523438 231.375 199.882812 231.375 199.882812 C 231.375 199.882812 224.65625 199.882812 224.65625 199.882812 C 221.753906 201.335938 215.289062 203.242188 213.742188 203.242188 C 210.226562 203.242188 202.425781 205.984375 198.625 204.082031 C 193.117188 201.328125 183.855469 199.882812 178.46875 199.882812 C 178.46875 199.882812 176.789062 196.523438 176.789062 196.523438 C 176.789062 196.523438 171.75 195.683594 171.75 195.683594 C 171.597656 195.609375 166.390625 191.269531 166.289062 191.0625 C 165.808594 190.105469 166.066406 185.605469 167.128906 185.605469 C 167.128906 185.605469 167.96875 187.285156 167.96875 187.285156 Z M 167.96875 187.285156 "/>
<path style=" stroke:none;fill-rule:evenodd;fill:rgb(60.000002%,32.549021%,100%);fill-opacity:1;" d="M 208.28125 268.75 C 208.28125 270.523438 212.957031 268.75 208.28125 268.75 M 181.40625 285.546875 L 181.40625 286.386719 C 178.351562 286.386719 176.425781 284.707031 173.847656 284.707031 C 173.847656 282.953125 178.046875 284.796875 178.046875 281.765625 C 178.046875 281.035156 174.773438 280.507812 174.265625 280.507812 C 174.265625 280.507812 171.75 283.027344 171.75 283.027344 C 171.035156 283.027344 169.648438 281.894531 169.648438 282.609375 C 169.648438 282.609375 170.488281 283.867188 170.488281 283.867188 C 161.726562 283.867188 151.613281 274.648438 145.710938 268.75 C 144.335938 267.375 138.574219 266.183594 138.574219 264.132812 C 138.574219 264.132812 139.414062 262.03125 139.414062 262.03125 C 140.5 262.03125 145.214844 261.457031 143.613281 258.25 C 143.613281 258.25 139.414062 255.3125 139.414062 255.3125 C 143.234375 255.3125 147.8125 255.011719 147.8125 250.273438 C 149.835938 250.273438 159.570312 237.246094 159.570312 234.316406 C 161.832031 234.316406 164.546875 231.5 165.449219 229.695312 C 165.449219 229.695312 169.648438 226.335938 169.648438 226.335938 C 172.199219 221.238281 161.605469 214.160156 157.890625 214.160156 C 157.890625 209.605469 158.4375 207.441406 152.011719 207.441406 C 152.011719 207.441406 155.371094 204.5 155.371094 204.5 C 156.179688 202.882812 155.027344 200.265625 157.46875 199.042969 C 161.226562 197.164062 185.425781 203.300781 187.285156 207.023438 C 188.269531 208.992188 187.285156 210.300781 187.285156 212.480469 C 187.285156 215.097656 184.242188 221.929688 184.765625 222.976562 C 184.765625 222.976562 183.085938 225.5 183.085938 225.5 C 183.085938 225.5 193.164062 234.734375 193.164062 234.734375 C 193.605469 235.621094 193.652344 241.035156 195.265625 241.035156 C 196.664062 241.035156 197.371094 239.140625 198.625 238.515625 C 199.878906 237.886719 201.101562 238.917969 201.984375 239.355469 C 204.550781 240.640625 209.105469 238.515625 211.21875 238.515625 C 216.300781 238.515625 215.707031 240.039062 218.359375 234.734375 C 219.625 232.203125 220.878906 234.003906 220.878906 231.375 C 220.878906 229.5 225.078125 230.539062 225.917969 228.859375 C 226.1875 228.320312 228.4375 224.128906 228.4375 223.820312 C 228.4375 223.820312 225.078125 221.296875 225.078125 221.296875 C 224.441406 220.023438 224.238281 218.527344 224.238281 217.101562 C 224.238281 217.101562 225.917969 216.257812 225.917969 216.257812 C 225.917969 216.257812 221.71875 212.0625 221.71875 212.0625 C 221.71875 210.867188 223.621094 209.960938 220.878906 209.960938 C 220.878906 205.609375 228.636719 205.453125 231.375 204.082031 C 231.375 204.082031 234.734375 200.722656 234.734375 200.722656 C 234.734375 200.722656 237.257812 201.5625 237.257812 201.5625 C 241.097656 201.5625 244.480469 194.507812 249.851562 199.882812 C 249.851562 199.882812 251.953125 201.140625 251.953125 201.140625 C 251.953125 202.175781 250.273438 203.917969 250.273438 205.761719 C 250.273438 207.578125 247.753906 207.898438 247.753906 210.800781 C 247.753906 210.800781 247.753906 214.160156 247.753906 214.160156 C 247.753906 216.386719 241.25 218.351562 240.195312 220.460938 C 236.285156 228.28125 256.007812 231.929688 257.832031 235.578125 C 260.085938 240.082031 261.417969 245.265625 263.710938 249.851562 C 264.257812 250.945312 263.71875 255.3125 265.390625 255.3125 C 265.390625 255.3125 268.75 258.671875 268.75 258.671875 C 268.75 259.902344 268.660156 262.03125 270.429688 262.03125 C 270.429688 265.378906 256.386719 278.921875 253.210938 280.507812 C 251.929688 281.148438 240.570312 283.867188 239.355469 283.867188 C 239.355469 282.578125 235.996094 282.578125 235.996094 283.867188 C 233.34375 283.867188 231.394531 285.546875 228.4375 285.546875 C 228.4375 285.546875 227.597656 283.867188 227.597656 283.867188 C 229.121094 283.867188 230.957031 284.863281 230.957031 281.765625 C 230.957031 281.765625 227.597656 279.25 227.597656 279.25 C 227.597656 279.25 228.015625 277.988281 228.015625 277.988281 C 228.015625 277.988281 219.617188 274.628906 219.617188 274.628906 C 217.546875 273.59375 213.285156 276.082031 212.0625 275.46875 C 209.832031 274.355469 211.984375 269.589844 206.601562 269.589844 C 206.601562 269.589844 206.601562 267.070312 206.601562 267.070312 C 206.601562 256.984375 202.023438 276.308594 206.601562 276.308594 C 206.601562 279.210938 209.960938 276.925781 209.960938 278.828125 C 209.960938 278.828125 206.601562 279.667969 206.601562 279.667969 C 206.601562 279.667969 203.242188 279.667969 203.242188 279.667969 C 203.242188 278.429688 201.601562 278.828125 200.722656 278.828125 C 200.722656 278.828125 203.242188 277.570312 203.242188 277.570312 C 203.726562 276.601562 204.878906 269.359375 203.664062 268.75 C 198.789062 266.3125 200.300781 272.949219 198.625 273.789062 C 195.113281 275.546875 191.445312 272.339844 190.226562 272.949219 C 189.921875 273.101562 186.453125 275.03125 186.445312 275.046875 C 186.445312 275.046875 186.867188 277.988281 186.867188 277.988281 C 186.867188 277.988281 183.507812 278.828125 183.507812 278.828125 C 183.507812 278.828125 182.664062 281.347656 182.664062 281.347656 C 182.664062 281.347656 179.304688 281.347656 179.304688 281.347656 C 178.019531 281.992188 178.671875 285.546875 181.40625 285.546875 Z M 181.40625 285.546875 "/>
<path style=" stroke:none;fill-rule:nonzero;fill:rgb(98.039216%,50.196081%,44.705883%);fill-opacity:1;" d="M 268.75 258.671875 C 268.75 259.902344 268.660156 262.03125 270.429688 262.03125 C 270.429688 262.03125 273.367188 262.871094 273.367188 262.871094 C 279.769531 259.667969 289.667969 242.136719 285.546875 233.898438 C 279.042969 220.890625 267.859375 211.40625 254.890625 204.921875 C 253.25 204.101562 251.46875 205.761719 250.273438 205.761719 C 250.273438 207.578125 247.753906 207.898438 247.753906 210.800781 C 249.117188 210.800781 251.113281 212.796875 251.113281 214.160156 C 254.957031 214.160156 257.570312 216.757812 260.773438 218.359375 C 260.773438 218.359375 265.8125 219.199219 265.8125 219.199219 C 271.894531 222.242188 276.691406 227.945312 279.667969 233.898438 C 282.125 238.808594 280.613281 255.3125 272.949219 255.3125 C 272.949219 256.792969 271.621094 255.765625 270.851562 256.152344 C 270.851562 256.152344 268.75 258.671875 268.75 258.671875 Z M 268.75 258.671875 "/>
<path style=" stroke:none;fill-rule:nonzero;fill:rgb(98.039216%,50.196081%,44.705883%);fill-opacity:1;" d="M 139.414062 255.3125 L 143.613281 258.25 C 145.214844 261.457031 140.5 262.03125 139.414062 262.03125 C 135.527344 262.03125 128.152344 251.683594 126.816406 249.015625 C 125.871094 247.121094 124.820312 245.863281 123.457031 243.132812 C 121.941406 240.101562 124.980469 239.25 125.976562 237.257812 C 125.976562 237.257812 125.136719 233.898438 125.136719 233.898438 C 128.386719 227.394531 132.242188 218.796875 139.835938 215 C 142.496094 213.667969 142.820312 207.441406 152.011719 207.441406 C 158.4375 207.441406 157.890625 209.605469 157.890625 214.160156 C 154.152344 214.160156 135.296875 224.492188 133.535156 228.015625 C 133.535156 228.015625 131.855469 233.054688 131.855469 233.054688 C 131.058594 234.648438 128.367188 239.515625 129.335938 241.453125 C 131.195312 245.175781 132.324219 249.117188 134.375 253.210938 C 135.457031 255.378906 139.414062 255.191406 139.414062 255.3125 Z M 139.414062 255.3125 "/>
<path style=" stroke:none;fill-rule:evenodd;fill:rgb(92.156863%,34.117648%,100%);fill-opacity:1;" d="M 204.082031 225.917969 C 204.082031 230.8125 209.582031 225.917969 204.082031 225.917969 M 204.921875 219.199219 C 204.921875 220.957031 208.066406 219.199219 204.921875 219.199219 M 220.878906 209.960938 C 223.621094 209.960938 221.71875 210.867188 221.71875 212.0625 L 225.917969 216.257812 L 224.238281 217.101562 C 224.238281 218.527344 224.441406 220.023438 225.078125 221.296875 L 228.4375 223.820312 C 228.4375 224.128906 226.1875 228.320312 225.917969 228.859375 C 225.078125 230.539062 220.878906 229.5 220.878906 231.375 C 220.878906 234.003906 219.625 232.203125 218.359375 234.734375 C 215.707031 240.039062 216.300781 238.515625 211.21875 238.515625 C 209.105469 238.515625 204.550781 240.640625 201.984375 239.355469 C 201.101562 238.917969 199.878906 237.886719 198.625 238.515625 C 197.371094 239.140625 196.664062 241.035156 195.265625 241.035156 C 193.652344 241.035156 193.605469 235.621094 193.164062 234.734375 L 183.085938 225.5 L 184.765625 222.976562 C 184.242188 221.929688 187.285156 215.097656 187.285156 212.480469 C 192.3125 212.480469 197.085938 210.871094 201.984375 213.320312 C 203.898438 214.28125 204.621094 219.558594 207.023438 218.359375 C 210.421875 216.660156 209.425781 209.960938 220.878906 209.960938 Z M 220.878906 209.960938 "/>
<path style=" stroke:none;fill-rule:nonzero;fill:rgb(35.686275%,94.509804%,100%);fill-opacity:1;" d="M 147.8125 250.273438 C 147.8125 255.011719 143.234375 255.3125 139.414062 255.3125 C 139.414062 255.191406 135.457031 255.378906 134.375 253.210938 C 132.324219 249.117188 131.195312 245.175781 129.335938 241.453125 C 128.367188 239.515625 131.058594 234.648438 131.855469 233.054688 C 131.855469 233.054688 133.535156 228.015625 133.535156 228.015625 C 135.296875 224.492188 154.152344 214.160156 157.890625 214.160156 C 161.605469 214.160156 172.199219 221.238281 169.648438 226.335938 C 169.648438 226.335938 165.449219 229.695312 165.449219 229.695312 C 164.546875 231.5 161.832031 234.316406 159.570312 234.316406 C 152.75 234.316406 147.8125 244.511719 147.8125 250.273438 Z M 147.8125 250.273438 "/>
<path style=" stroke:none;fill-rule:nonzero;fill:rgb(35.686275%,94.509804%,100%);fill-opacity:1;" d="M 265.390625 255.3125 L 272.949219 255.3125 C 280.613281 255.3125 282.125 238.808594 279.667969 233.898438 C 276.691406 227.945312 271.894531 222.242188 265.8125 219.199219 C 265.8125 219.199219 260.773438 218.359375 260.773438 218.359375 C 257.570312 216.757812 254.957031 214.160156 251.113281 214.160156 C 251.113281 214.160156 247.753906 214.160156 247.753906 214.160156 C 247.753906 216.386719 241.25 218.351562 240.195312 220.460938 C 236.285156 228.28125 256.007812 231.929688 257.832031 235.578125 C 260.085938 240.082031 261.417969 245.265625 263.710938 249.851562 C 264.257812 250.945312 263.71875 255.3125 265.390625 255.3125 Z M 265.390625 255.3125 "/>
<path style=" stroke:none;fill-rule:nonzero;fill:rgb(15.294118%,95.686275%,99.215686%);fill-opacity:1;" d="M 204.082031 225.917969 C 204.082031 230.8125 209.582031 225.917969 204.082031 225.917969 Z M 204.082031 225.917969 "/>
<path style=" stroke:none;fill-rule:nonzero;fill:rgb(25.490198%,58.823532%,100%);fill-opacity:1;" d="M 206.601562 269.589844 C 206.601562 271.863281 206.601562 273.492188 206.601562 276.308594 C 202.023438 276.308594 206.601562 256.984375 206.601562 267.070312 C 206.601562 267.070312 206.601562 269.589844 206.601562 269.589844 Z M 206.601562 269.589844 "/>
<path style=" stroke:none;fill-rule:evenodd;fill:rgb(0%,96.470588%,5.490196%);fill-opacity:1;" d="M 191.484375 273.789062 C 191.484375 276.933594 193.242188 273.789062 191.484375 273.789062 M 183.925781 283.867188 C 182.886719 283.867188 181.40625 284.222656 181.40625 285.546875 C 178.671875 285.546875 178.019531 281.992188 179.304688 281.347656 C 179.304688 281.347656 182.664062 281.347656 182.664062 281.347656 C 182.664062 281.347656 183.507812 278.828125 183.507812 278.828125 C 183.507812 278.828125 186.867188 277.988281 186.867188 277.988281 C 186.867188 277.988281 186.445312 275.046875 186.445312 275.046875 C 186.453125 275.03125 189.921875 273.101562 190.226562 272.949219 C 191.445312 272.339844 195.113281 275.546875 198.625 273.789062 C 200.300781 272.949219 198.789062 266.3125 203.664062 268.75 C 204.878906 269.359375 203.726562 276.601562 203.242188 277.570312 C 203.242188 277.570312 200.722656 278.828125 200.722656 278.828125 C 200.722656 278.828125 196.523438 278.828125 196.523438 278.828125 C 196.523438 277.539062 193.164062 277.539062 193.164062 278.828125 C 193.164062 278.828125 192.324219 278.828125 192.324219 278.828125 C 191.445312 278.828125 189.804688 278.429688 189.804688 279.667969 C 189.804688 279.667969 186.445312 281.347656 186.445312 281.347656 C 186.445312 281.347656 185.605469 282.1875 185.605469 282.1875 C 185.605469 282.1875 184.765625 282.1875 184.765625 282.1875 C 184.765625 282.1875 183.925781 283.867188 183.925781 283.867188 Z M 183.925781 283.867188 "/>
<path style=" stroke:none;fill-rule:nonzero;fill:rgb(0%,96.470588%,5.490196%);fill-opacity:1;" d="M 208.28125 268.75 C 208.28125 270.523438 212.957031 268.75 208.28125 268.75 Z M 208.28125 268.75 "/>
<path style=" stroke:none;fill-rule:nonzero;fill:rgb(0%,96.470588%,5.490196%);fill-opacity:1;" d="M 227.597656 283.027344 L 227.597656 283.867188 C 229.121094 283.867188 230.957031 284.863281 230.957031 281.765625 C 230.957031 281.765625 227.597656 279.25 227.597656 279.25 C 227.597656 279.25 228.015625 277.988281 228.015625 277.988281 C 228.015625 277.988281 219.617188 274.628906 219.617188 274.628906 C 217.546875 273.59375 213.285156 276.082031 212.0625 275.46875 C 209.832031 274.355469 211.984375 269.589844 206.601562 269.589844 C 206.601562 271.863281 206.601562 273.492188 206.601562 276.308594 C 206.601562 279.210938 209.960938 276.925781 209.960938 278.828125 C 209.960938 278.828125 215.839844 277.988281 215.839844 277.988281 C 215.839844 277.988281 216.679688 278.828125 216.679688 278.828125 C 216.679688 278.828125 218.359375 278.828125 218.359375 278.828125 C 219.238281 278.828125 220.878906 278.429688 220.878906 279.667969 C 220.878906 279.667969 225.917969 282.1875 225.917969 282.1875 C 225.917969 282.1875 227.597656 283.027344 227.597656 283.027344 Z M 227.597656 283.027344 "/>
<path style=" stroke:none;fill-rule:nonzero;fill:rgb(60.000002%,32.549021%,100%);fill-opacity:1;" d="M 191.484375 273.789062 C 191.484375 276.933594 193.242188 273.789062 191.484375 273.789062 Z M 191.484375 273.789062 "/>
<path style=" stroke:none;fill-rule:nonzero;fill:rgb(60.000002%,32.549021%,100%);fill-opacity:1;" d="M 193.164062 278.828125 L 196.523438 278.828125 C 196.523438 277.539062 193.164062 277.539062 193.164062 278.828125 Z M 193.164062 278.828125 "/>
<path style=" stroke:none;fill-rule:nonzero;fill:rgb(100%,20.392157%,15.294118%);fill-opacity:1;" d="M 227.597656 283.867188 L 228.4375 285.546875 C 228.4375 290.523438 218.742188 291.40625 215.421875 289.746094 C 215.421875 289.746094 213.742188 287.226562 213.742188 287.226562 C 213.742188 287.226562 209.960938 285.96875 209.960938 285.96875 C 209.960938 285.96875 209.960938 283.445312 209.960938 283.445312 C 209.328125 282.179688 206.601562 281.894531 206.601562 279.667969 C 206.601562 279.667969 209.960938 278.828125 209.960938 278.828125 C 209.960938 278.828125 215.839844 277.988281 215.839844 277.988281 C 215.839844 277.988281 216.679688 278.828125 216.679688 278.828125 C 216.679688 278.828125 218.359375 278.828125 218.359375 278.828125 C 218.359375 280.066406 220 279.667969 220.878906 279.667969 C 220.878906 279.667969 225.917969 282.1875 225.917969 282.1875 C 225.917969 282.1875 227.597656 283.027344 227.597656 283.027344 C 227.597656 283.027344 227.597656 283.867188 227.597656 283.867188 Z M 227.597656 283.867188 "/>
<path style=" stroke:none;fill-rule:nonzero;fill:rgb(60.000002%,32.549021%,100%);fill-opacity:1;" d="M 215.839844 277.988281 L 216.679688 278.828125 C 216.679688 278.828125 215.839844 277.988281 215.839844 277.988281 Z M 215.839844 277.988281 "/>
<path style=" stroke:none;fill-rule:nonzero;fill:rgb(60.000002%,32.549021%,100%);fill-opacity:1;" d="M 192.324219 278.828125 C 191.445312 278.828125 189.804688 278.429688 189.804688 279.667969 C 190.683594 279.667969 192.324219 280.066406 192.324219 278.828125 Z M 192.324219 278.828125 "/>
<path style=" stroke:none;fill-rule:nonzero;fill:rgb(100%,20.392157%,15.294118%);fill-opacity:1;" d="M 181.40625 285.546875 L 181.40625 286.386719 C 181.40625 288.460938 182.851562 288.160156 184.34375 288.90625 C 192.085938 292.777344 189.925781 289.054688 195.265625 286.386719 C 197.964844 285.035156 203.242188 284.773438 203.242188 279.667969 C 203.242188 278.429688 201.601562 278.828125 200.722656 278.828125 C 200.722656 278.828125 196.523438 278.828125 196.523438 278.828125 C 196.523438 278.828125 193.164062 278.828125 193.164062 278.828125 C 193.164062 278.828125 192.324219 278.828125 192.324219 278.828125 C 192.324219 280.066406 190.683594 279.667969 189.804688 279.667969 C 189.804688 279.667969 186.445312 281.347656 186.445312 281.347656 C 186.445312 281.347656 185.605469 282.1875 185.605469 282.1875 C 185.605469 282.1875 184.765625 282.1875 184.765625 282.1875 C 184.765625 282.1875 183.925781 283.867188 183.925781 283.867188 C 183.925781 285.191406 182.445312 285.546875 181.40625 285.546875 Z M 181.40625 285.546875 "/>
<path style=" stroke:none;fill-rule:nonzero;fill:rgb(60.000002%,32.549021%,100%);fill-opacity:1;" d="M 218.359375 278.828125 C 219.238281 278.828125 220.878906 278.429688 220.878906 279.667969 C 220 279.667969 218.359375 280.066406 218.359375 278.828125 Z M 218.359375 278.828125 "/>
<path style=" stroke:none;fill-rule:nonzero;fill:rgb(0%,96.470588%,5.490196%);fill-opacity:1;" d="M 170.488281 283.867188 L 173.847656 284.707031 C 173.847656 282.953125 178.046875 284.796875 178.046875 281.765625 C 178.046875 281.035156 174.773438 280.507812 174.265625 280.507812 C 174.265625 280.507812 171.75 283.027344 171.75 283.027344 C 171.035156 283.027344 169.648438 281.894531 169.648438 282.609375 C 169.648438 282.609375 170.488281 283.867188 170.488281 283.867188 Z M 170.488281 283.867188 "/>
<path style=" stroke:none;fill-rule:nonzero;fill:rgb(60.000002%,32.549021%,100%);fill-opacity:1;" d="M 186.445312 281.347656 L 185.605469 282.1875 C 185.605469 282.1875 186.445312 281.347656 186.445312 281.347656 Z M 186.445312 281.347656 "/>
<path style=" stroke:none;fill-rule:nonzero;fill:rgb(60.000002%,32.549021%,100%);fill-opacity:1;" d="M 184.765625 282.1875 L 183.925781 283.867188 C 183.925781 283.867188 184.765625 282.1875 184.765625 282.1875 Z M 184.765625 282.1875 "/>
<path style=" stroke:none;fill-rule:nonzero;fill:rgb(60.000002%,32.549021%,100%);fill-opacity:1;" d="M 225.917969 282.1875 L 227.597656 283.027344 C 227.597656 283.027344 225.917969 282.1875 225.917969 282.1875 Z M 225.917969 282.1875 "/>
<path style=" stroke:none;fill-rule:nonzero;fill:rgb(0%,96.470588%,5.490196%);fill-opacity:1;" d="M 235.996094 283.867188 L 239.355469 283.867188 C 239.355469 282.578125 235.996094 282.578125 235.996094 283.867188 Z M 235.996094 283.867188 "/>
<path style=" stroke:none;fill-rule:nonzero;fill:rgb(60.000002%,32.549021%,100%);fill-opacity:1;" d="M 183.925781 283.867188 C 182.886719 283.867188 181.40625 284.222656 181.40625 285.546875 C 182.445312 285.546875 183.925781 285.191406 183.925781 283.867188 Z M 183.925781 283.867188 "/>
</g>
</svg>
