<?xml version="1.0" encoding="UTF-8"?>
<svg xmlns="http://www.w3.org/2000/svg" xmlns:xlink="http://www.w3.org/1999/xlink" width="430px" height="430px" viewBox="0 0 430 430" version="1.1">
<g id="surface1">
<rect x="0" y="0" width="430" height="430" style="fill:rgb(0%,0%,0%);fill-opacity:1;stroke:none;"/>
<path style=" stroke:none;fill-rule:nonzero;fill:rgb(100%,100%,0%);fill-opacity:1;" d="M 204.082031 177.207031 L 203.242188 179.304688 C 204.992188 182.808594 208.914062 177.207031 204.082031 177.207031 Z M 204.082031 177.207031 "/>
<path style=" stroke:none;fill-rule:nonzero;fill:rgb(98.039216%,50.196081%,44.705883%);fill-opacity:1;" d="M 147.8125 256.992188 C 147.8125 259.015625 152.8125 262.03125 146.972656 262.03125 C 140.933594 262.03125 130.386719 243.550781 133.535156 237.257812 C 138.707031 226.90625 144.882812 217.515625 156.632812 211.640625 C 156.632812 211.640625 165.03125 209.121094 165.03125 209.121094 C 166.25 208.511719 169.480469 211.640625 171.328125 211.640625 C 171.328125 211.980469 177.179688 214.777344 177.625 215 C 178.726562 215.550781 179.636719 221.042969 177.625 220.039062 C 175.113281 218.78125 175.730469 214.160156 171.328125 214.160156 C 171.328125 214.160156 165.449219 213.320312 165.449219 213.320312 C 162.574219 213.320312 156.210938 214.078125 156.210938 217.519531 C 156.210938 219.289062 154.082031 219.199219 152.851562 219.199219 C 151.191406 219.199219 144.453125 223.574219 144.453125 225.917969 C 144.453125 225.917969 139.414062 234.734375 139.414062 234.734375 C 135.941406 241.6875 138.527344 256.992188 147.8125 256.992188 Z M 147.8125 256.992188 "/>
<path style=" stroke:none;fill-rule:evenodd;fill:rgb(60.000002%,32.549021%,100%);fill-opacity:1;" d="M 204.082031 225.078125 L 200.304688 230.117188 C 198.335938 230.117188 198.449219 228.105469 196.101562 229.277344 L 191.484375 235.578125 C 189.953125 238.636719 195.683594 237.886719 195.683594 238.9375 C 195.683594 242.128906 196.28125 241.964844 199.460938 243.554688 C 212.445312 250.046875 223.910156 235.203125 210.382812 228.4375 C 207.460938 226.976562 207.734375 225.078125 204.082031 225.078125 M 190.644531 279.667969 L 191.484375 280.507812 C 194.929688 280.507812 196.980469 274.589844 199.042969 272.53125 C 199.042969 272.53125 202.402344 270.429688 202.402344 270.429688 C 202.402344 266.070312 202.144531 257.082031 204.082031 253.210938 C 204.082031 253.210938 205.34375 248.59375 205.34375 248.59375 C 210.507812 248.59375 209.121094 263.40625 209.121094 268.75 C 212.03125 268.75 217.519531 280.734375 217.519531 281.347656 C 223.902344 281.347656 239.289062 282.429688 244.8125 279.667969 C 248.261719 277.945312 260.875 262.871094 262.03125 262.871094 C 262.03125 262.871094 260.351562 260.773438 260.351562 260.773438 C 260.351562 260.773438 262.03125 258.671875 262.03125 258.671875 C 259.589844 258.671875 255.738281 259.101562 254.472656 256.570312 C 253.566406 254.757812 254.472656 254.628906 254.472656 253.210938 C 254.472656 253.210938 248.59375 239.773438 248.59375 239.773438 C 245.484375 233.554688 237.484375 230.992188 235.15625 226.335938 C 232.34375 220.714844 240.195312 219.117188 240.195312 215.839844 C 240.195312 215.839844 241.035156 213.320312 241.035156 213.320312 C 236.542969 213.320312 237.558594 211.371094 234.734375 209.960938 C 230.507812 207.847656 222.007812 211.707031 218.78125 213.320312 C 218.78125 213.320312 214.578125 212.480469 214.578125 212.480469 C 214.578125 212.480469 211.21875 215 211.21875 215 C 207.050781 215 204.136719 214.398438 200.304688 212.480469 C 197.625 211.140625 193.605469 213.320312 191.0625 213.320312 C 188.148438 213.320312 185.371094 210.054688 183.507812 209.121094 C 180.511719 207.625 176.425781 211.640625 171.328125 211.640625 C 171.328125 211.980469 177.179688 214.777344 177.625 215 C 178.726562 215.550781 179.636719 221.042969 177.625 220.039062 C 175.113281 218.78125 175.730469 214.160156 171.328125 214.160156 C 171.328125 214.976562 180.945312 223.902344 179.726562 226.335938 C 176.035156 233.722656 166.769531 227.054688 162.929688 234.734375 C 161.160156 238.277344 150.132812 256.992188 147.8125 256.992188 C 147.8125 259.015625 152.8125 262.03125 146.972656 262.03125 C 146.972656 262.03125 150.332031 266.648438 150.332031 266.648438 C 150.332031 271.582031 160.273438 276.449219 165.03125 278.828125 C 168.148438 280.386719 172.660156 278.863281 175.945312 280.507812 C 177.449219 281.257812 188.964844 280.613281 188.964844 279.667969 C 186.847656 279.667969 190.644531 277.519531 190.644531 279.667969 Z M 190.644531 279.667969 "/>
<path style=" stroke:none;fill-rule:nonzero;fill:rgb(60.000002%,32.549021%,100%);fill-opacity:1;" d="M 246.074219 209.960938 L 244.394531 210.800781 C 244.394531 210.800781 246.074219 209.960938 246.074219 209.960938 Z M 246.074219 209.960938 "/>
<path style=" stroke:none;fill-rule:nonzero;fill:rgb(98.039216%,50.196081%,44.705883%);fill-opacity:1;" d="M 262.03125 258.671875 L 260.351562 260.773438 L 262.03125 262.871094 C 268.941406 262.871094 279.519531 246.195312 276.308594 239.773438 C 276.308594 239.773438 272.949219 229.695312 272.949219 229.695312 C 269.171875 222.144531 254.753906 209.960938 246.074219 209.960938 C 246.074219 209.960938 244.394531 210.800781 244.394531 210.800781 C 243.195312 210.800781 241.035156 211.882812 241.035156 213.320312 C 241.035156 213.320312 240.195312 215.839844 240.195312 215.839844 C 240.195312 215.839844 247.335938 215 247.335938 215 C 263.9375 223.300781 272.109375 227.339844 272.109375 246.914062 C 272.109375 247.875 272.59375 250.273438 271.269531 250.273438 C 271.269531 250.273438 270.429688 251.953125 270.429688 251.953125 C 270.429688 251.953125 269.589844 253.632812 269.589844 253.632812 C 269.589844 253.632812 266.230469 256.152344 266.230469 256.152344 C 266.230469 256.152344 265.390625 256.992188 265.390625 256.992188 C 265.390625 256.992188 263.710938 257.832031 263.710938 257.832031 C 263.710938 257.832031 262.03125 258.671875 262.03125 258.671875 Z M 262.03125 258.671875 "/>
<path style=" stroke:none;fill-rule:nonzero;fill:rgb(35.686275%,94.509804%,100%);fill-opacity:1;" d="M 144.453125 225.917969 L 139.414062 234.734375 C 135.941406 241.6875 138.527344 256.992188 147.8125 256.992188 C 150.132812 256.992188 161.160156 238.277344 162.929688 234.734375 C 166.769531 227.054688 176.035156 233.722656 179.726562 226.335938 C 180.945312 223.902344 171.328125 214.976562 171.328125 214.160156 C 171.328125 214.160156 165.449219 213.320312 165.449219 213.320312 C 165.449219 215.445312 158.253906 217.519531 156.210938 217.519531 C 156.210938 219.289062 154.082031 219.199219 152.851562 219.199219 C 152.851562 221.871094 146.925781 225.917969 144.453125 225.917969 Z M 144.453125 225.917969 "/>
<path style=" stroke:none;fill-rule:nonzero;fill:rgb(35.686275%,94.509804%,100%);fill-opacity:1;" d="M 263.710938 257.832031 L 262.03125 258.671875 C 259.589844 258.671875 255.738281 259.101562 254.472656 256.570312 C 253.566406 254.757812 254.472656 254.628906 254.472656 253.210938 C 254.472656 253.210938 248.59375 239.773438 248.59375 239.773438 C 245.484375 233.554688 237.484375 230.992188 235.15625 226.335938 C 232.34375 220.714844 240.195312 219.117188 240.195312 215.839844 C 240.195312 215.839844 247.335938 215 247.335938 215 C 263.9375 223.300781 272.109375 227.339844 272.109375 246.914062 C 270.578125 246.914062 269.492188 250.273438 271.269531 250.273438 C 271.269531 250.273438 270.429688 251.953125 270.429688 251.953125 C 270.429688 251.953125 269.589844 253.632812 269.589844 253.632812 C 269.589844 253.632812 266.230469 256.152344 266.230469 256.152344 C 266.230469 256.152344 265.390625 256.992188 265.390625 256.992188 C 265.390625 256.992188 263.710938 257.832031 263.710938 257.832031 Z M 263.710938 257.832031 "/>
<path style=" stroke:none;fill-rule:evenodd;fill:rgb(92.156863%,34.117648%,100%);fill-opacity:1;" d="M 204.921875 237.675781 L 204.082031 239.355469 C 204.082031 245.542969 210.289062 237.675781 204.921875 237.675781 M 204.082031 225.078125 L 200.304688 230.117188 C 198.335938 230.117188 198.449219 228.105469 196.101562 229.277344 L 191.484375 235.578125 C 189.953125 238.636719 195.683594 237.886719 195.683594 238.9375 C 195.683594 242.128906 196.28125 241.964844 199.460938 243.554688 C 212.445312 250.046875 223.910156 235.203125 210.382812 228.4375 C 207.460938 226.976562 207.734375 225.078125 204.082031 225.078125 Z M 204.082031 225.078125 "/>
<path style=" stroke:none;fill-rule:nonzero;fill:rgb(15.294118%,95.686275%,99.215686%);fill-opacity:1;" d="M 204.921875 237.675781 L 204.082031 239.355469 C 204.082031 245.542969 210.289062 237.675781 204.921875 237.675781 Z M 204.921875 237.675781 "/>
<path style=" stroke:none;fill-rule:nonzero;fill:rgb(44.705883%,3.529412%,83.137256%);fill-opacity:1;" d="M 209.121094 268.75 C 209.121094 272.566406 204.027344 270.429688 202.402344 270.429688 C 202.402344 266.070312 202.144531 257.082031 204.082031 253.210938 C 204.082031 253.210938 205.34375 248.59375 205.34375 248.59375 C 210.507812 248.59375 209.121094 263.40625 209.121094 268.75 Z M 209.121094 268.75 "/>
<path style=" stroke:none;fill-rule:nonzero;fill:rgb(100%,20.392157%,15.294118%);fill-opacity:1;" d="M 191.484375 280.507812 C 191.484375 283.355469 200.542969 281.226562 201.984375 280.507812 L 205.34375 272.109375 L 205.761719 278.40625 C 208.480469 283.847656 213.34375 281.347656 217.519531 281.347656 C 217.519531 280.734375 212.03125 268.75 209.121094 268.75 C 209.121094 272.566406 204.027344 270.429688 202.402344 270.429688 C 202.402344 270.429688 199.042969 272.53125 199.042969 272.53125 C 196.980469 274.589844 194.929688 280.507812 191.484375 280.507812 Z M 191.484375 280.507812 "/>
<path style=" stroke:none;fill-rule:nonzero;fill:rgb(0%,96.470588%,5.490196%);fill-opacity:1;" d="M 188.964844 279.667969 L 190.644531 279.667969 C 190.644531 277.519531 186.847656 279.667969 188.964844 279.667969 Z M 188.964844 279.667969 "/>
</g>
</svg>
