<?xml version="1.0" encoding="UTF-8"?>
<svg xmlns="http://www.w3.org/2000/svg" xmlns:xlink="http://www.w3.org/1999/xlink" width="430px" height="430px" viewBox="0 0 430 430" version="1.1">
<g id="surface1">
<rect x="0" y="0" width="430" height="430" style="fill:rgb(0%,0%,0%);fill-opacity:1;stroke:none;"/>
<path style=" stroke:none;fill-rule:nonzero;fill:rgb(80.784315%,82.745099%,2.745098%);fill-opacity:1;" d="M 225.917969 159.570312 C 221.714844 159.570312 217.109375 161.25 214.160156 161.25 C 214.160156 161.25 212.480469 159.148438 212.480469 159.148438 C 209.191406 152.570312 208.210938 145.851562 211.640625 138.992188 C 212.824219 136.628906 211.480469 136.054688 213.742188 136.054688 C 213.742188 136.054688 215 131.4375 215 131.4375 C 215 131.4375 218.359375 125.554688 218.359375 125.554688 C 220.179688 121.914062 239.125 113.472656 242.296875 115.058594 C 247.125 117.472656 254.484375 120.097656 259.09375 120.097656 C 259.09375 120.097656 262.453125 124.296875 262.453125 124.296875 C 268.4375 124.296875 274.480469 133.660156 277.148438 138.992188 C 279.425781 143.550781 277.15625 162.929688 270.851562 162.929688 C 263.4375 162.929688 259.378906 157.890625 253.632812 157.890625 C 253.632812 148.183594 225.917969 148.625 225.917969 159.570312 Z M 225.917969 159.570312 "/>
<path style=" stroke:none;fill-rule:nonzero;fill:rgb(80.784315%,82.745099%,2.745098%);fill-opacity:1;" d="M 155.371094 157.890625 L 156.210938 157.890625 C 156.210938 147.554688 185.605469 145.425781 185.605469 153.691406 C 187.503906 153.691406 195.683594 155.5 195.683594 157.890625 C 198.707031 157.890625 201.417969 143.746094 199.882812 140.671875 C 199.882812 140.671875 195.683594 129.757812 195.683594 129.757812 C 195.683594 129.757812 193.164062 128.078125 193.164062 128.078125 C 193.164062 128.078125 191.90625 123.457031 191.90625 123.457031 C 189.714844 123.457031 181.984375 120.175781 178.46875 118.417969 C 176.527344 117.449219 171.609375 118.488281 170.070312 119.257812 C 166.859375 120.863281 161.585938 118.460938 158.3125 120.097656 C 153.003906 122.75 142.46875 128.683594 139.414062 134.796875 C 138.25 137.121094 138.023438 140.097656 136.894531 142.351562 C 134.242188 147.65625 134.132812 159.660156 140.671875 162.929688 C 144.4375 164.8125 152.15625 157.890625 155.371094 157.890625 Z M 155.371094 157.890625 "/>
<path style=" stroke:none;fill-rule:nonzero;fill:rgb(5.882353%,42.745098%,90.196079%);fill-opacity:1;" d="M 185.605469 153.691406 L 183.085938 155.789062 C 182.316406 157.328125 182.949219 160.269531 180.984375 161.25 C 176.707031 163.390625 166.78125 163.386719 162.507812 161.25 C 160.046875 160.019531 159.210938 157.890625 156.210938 157.890625 C 156.210938 147.554688 185.605469 145.425781 185.605469 153.691406 Z M 185.605469 153.691406 "/>
<path style=" stroke:none;fill-rule:nonzero;fill:rgb(5.882353%,42.745098%,90.196079%);fill-opacity:1;" d="M 225.917969 159.570312 C 227.460938 159.570312 229.496094 167.648438 233.898438 165.449219 C 234.976562 164.910156 253.175781 159.570312 253.632812 159.570312 C 253.632812 159.570312 253.632812 157.890625 253.632812 157.890625 C 253.632812 148.183594 225.917969 148.625 225.917969 159.570312 Z M 225.917969 159.570312 "/>
<path style=" stroke:none;fill-rule:nonzero;fill:rgb(100%,52.941179%,0%);fill-opacity:1;" d="M 195.683594 230.957031 C 195.121094 230.957031 191.484375 232.074219 191.484375 232.636719 C 183.144531 232.636719 171.398438 229.003906 167.128906 220.460938 C 167.128906 220.460938 163.351562 215.839844 163.351562 215.839844 C 160.902344 214.617188 156.507812 210.976562 155.371094 208.703125 C 155.371094 208.703125 154.53125 204.5 154.53125 204.5 C 153.644531 202.726562 152.371094 204.382812 152.011719 203.664062 C 152.011719 203.664062 152.011719 200.304688 152.011719 200.304688 C 149.8125 195.90625 147.429688 191.980469 145.292969 187.703125 C 145.292969 187.703125 145.292969 180.148438 145.292969 180.148438 C 145.292969 180.148438 144.453125 177.625 144.453125 177.625 C 145.683594 175.164062 155.371094 158.015625 155.371094 157.890625 C 155.371094 157.890625 156.210938 157.890625 156.210938 157.890625 C 159.210938 157.890625 160.046875 160.019531 162.507812 161.25 C 166.78125 163.386719 176.707031 163.390625 180.984375 161.25 C 182.949219 160.269531 182.316406 157.328125 183.085938 155.789062 C 183.085938 155.789062 185.605469 153.691406 185.605469 153.691406 C 187.503906 153.691406 195.683594 155.5 195.683594 157.890625 C 195.683594 158.210938 203.242188 168.324219 203.242188 173.007812 C 203.242188 173.007812 203.242188 201.140625 203.242188 201.140625 C 203.242188 201.140625 198.203125 218.78125 198.203125 218.78125 C 197.589844 220.003906 200.078125 224.265625 199.042969 226.335938 C 198.085938 228.25 195.683594 228.589844 195.683594 230.957031 Z M 195.683594 230.957031 "/>
<path style=" stroke:none;fill-rule:nonzero;fill:rgb(100%,52.941179%,0%);fill-opacity:1;" d="M 216.679688 235.15625 L 224.238281 235.996094 C 224.238281 234.867188 230.347656 234.832031 231.375 234.316406 C 234.945312 232.53125 237.957031 229.34375 241.453125 227.597656 C 244.675781 225.988281 259.382812 204.761719 261.191406 201.140625 C 267.148438 189.230469 267.027344 180.898438 261.191406 169.226562 C 261.191406 169.226562 253.632812 159.570312 253.632812 159.570312 C 253.175781 159.570312 234.976562 164.910156 233.898438 165.449219 C 229.496094 167.648438 227.460938 159.570312 225.917969 159.570312 C 221.714844 159.570312 217.109375 161.25 214.160156 161.25 C 214.160156 161.25 211.640625 163.351562 211.640625 163.351562 C 211.640625 163.351562 207.441406 174.6875 207.441406 174.6875 C 207.441406 174.6875 206.601562 209.539062 206.601562 209.539062 C 208.460938 213.261719 206.425781 220.945312 207.441406 222.976562 C 207.441406 222.976562 209.960938 229.277344 209.960938 229.277344 C 209.960938 231.664062 214.472656 235.15625 216.679688 235.15625 Z M 216.679688 235.15625 "/>
<path style=" stroke:none;fill-rule:nonzero;fill:rgb(100%,89.019608%,0%);fill-opacity:1;" d="M 209.960938 229.277344 C 206.75 229.277344 204.847656 217.34375 202.820312 218.359375 C 198.664062 220.4375 203.742188 230.957031 195.683594 230.957031 C 195.683594 228.589844 198.085938 228.25 199.042969 226.335938 C 200.078125 224.265625 197.589844 220.003906 198.203125 218.78125 C 198.203125 218.78125 203.242188 201.140625 203.242188 201.140625 C 203.242188 201.140625 203.242188 173.007812 203.242188 173.007812 C 203.242188 173.007812 205.34375 176.367188 205.34375 176.367188 C 205.34375 176.367188 207.441406 174.6875 207.441406 174.6875 C 207.441406 174.6875 206.601562 209.539062 206.601562 209.539062 C 208.460938 213.261719 206.425781 220.945312 207.441406 222.976562 C 207.441406 222.976562 209.960938 229.277344 209.960938 229.277344 Z M 209.960938 229.277344 "/>
<path style=" stroke:none;fill-rule:nonzero;fill:rgb(100%,89.019608%,0%);fill-opacity:1;" d="M 195.683594 230.957031 C 195.121094 230.957031 191.484375 232.074219 191.484375 232.636719 C 194.707031 232.636719 195.683594 233.363281 195.683594 230.957031 Z M 195.683594 230.957031 "/>
<path style=" stroke:none;fill-rule:nonzero;fill:rgb(100%,89.019608%,0%);fill-opacity:1;" d="M 216.679688 235.15625 L 224.238281 235.996094 C 224.539062 235.996094 216.679688 242.1875 216.679688 235.15625 Z M 216.679688 235.15625 "/>
<path style=" stroke:none;fill-rule:nonzero;fill:rgb(98.039216%,50.196081%,44.705883%);fill-opacity:1;" d="M 157.890625 239.355469 C 157.890625 241.976562 156.71875 239.597656 156.210938 240.617188 L 157.050781 242.296875 C 159.039062 246.273438 162.648438 239.355469 157.890625 239.355469 Z M 157.890625 239.355469 "/>
<path style=" stroke:none;fill-rule:nonzero;fill:rgb(98.039216%,50.196081%,44.705883%);fill-opacity:1;" d="M 161.25 241.035156 C 161.25 244.179688 163.007812 241.035156 161.25 241.035156 Z M 161.25 241.035156 "/>
<path style=" stroke:none;fill-rule:nonzero;fill:rgb(98.039216%,50.196081%,44.705883%);fill-opacity:1;" d="M 155.371094 241.875 C 155.371094 245.019531 157.128906 241.875 155.371094 241.875 Z M 155.371094 241.875 "/>
<path style=" stroke:none;fill-rule:nonzero;fill:rgb(18.82353%,85.490197%,0%);fill-opacity:1;" d="M 261.191406 241.875 C 261.191406 243.003906 259.339844 244.097656 258.25 243.554688 C 254.875 241.867188 244.863281 251.558594 252.375 255.3125 C 253.628906 255.941406 254.851562 254.910156 255.734375 254.472656 C 258.359375 253.160156 262.265625 254.144531 264.96875 252.792969 C 272.066406 249.246094 267.050781 241.875 261.191406 241.875 Z M 261.191406 241.875 "/>
<path style=" stroke:none;fill-rule:nonzero;fill:rgb(18.82353%,85.490197%,0%);fill-opacity:1;" d="M 152.851562 246.914062 C 152.851562 251.09375 147.511719 249.25 151.171875 256.570312 C 151.878906 257.988281 163.28125 259.964844 165.867188 258.671875 L 168.390625 255.3125 L 170.488281 254.890625 L 168.808594 253.210938 L 170.488281 251.53125 L 167.546875 250.273438 L 167.546875 248.59375 C 163.289062 246.464844 158 246.914062 152.851562 246.914062 Z M 152.851562 246.914062 "/>
<path style=" stroke:none;fill-rule:nonzero;fill:rgb(98.039216%,50.196081%,44.705883%);fill-opacity:1;" d="M 256.992188 256.992188 L 256.152344 260.773438 C 258.210938 264.890625 264.054688 256.992188 256.992188 256.992188 Z M 256.992188 256.992188 "/>
<path style=" stroke:none;fill-rule:nonzero;fill:rgb(98.039216%,50.196081%,44.705883%);fill-opacity:1;" d="M 159.570312 259.511719 C 159.570312 262.65625 161.328125 259.511719 159.570312 259.511719 Z M 159.570312 259.511719 "/>
<path style=" stroke:none;fill-rule:nonzero;fill:rgb(98.039216%,50.196081%,44.705883%);fill-opacity:1;" d="M 161.25 260.351562 C 161.25 263.496094 163.007812 260.351562 161.25 260.351562 Z M 161.25 260.351562 "/>
<path style=" stroke:none;fill-rule:nonzero;fill:rgb(98.039216%,50.196081%,44.705883%);fill-opacity:1;" d="M 246.914062 309.902344 C 246.914062 312.820312 240.527344 310.785156 238.9375 311.582031 L 235.996094 315.359375 C 234.46875 318.414062 237.675781 321.625 237.675781 323.757812 C 237.675781 325.300781 234.734375 327.113281 235.996094 329.640625 C 237.308594 332.261719 241.96875 332.34375 242.714844 333.835938 C 243.214844 334.839844 241.730469 339.296875 243.976562 339.296875 C 245.488281 339.296875 246.808594 335.675781 249.015625 336.777344 C 250.453125 337.496094 252.46875 340.363281 253.632812 338.039062 C 255.253906 334.796875 251.058594 326.699219 256.570312 326.699219 C 261.914062 326.699219 256.828125 332.671875 256.992188 333 L 259.929688 333.417969 C 260.929688 333.917969 262.742188 334.953125 264.132812 334.257812 C 275.070312 328.789062 265.855469 322.523438 259.09375 319.140625 L 256.570312 316.621094 L 254.054688 318.300781 L 253.632812 313.679688 C 252.445312 311.304688 249.777344 309.902344 246.914062 309.902344 Z M 246.914062 309.902344 "/>
<path style=" stroke:none;fill-rule:nonzero;fill:rgb(98.039216%,50.196081%,44.705883%);fill-opacity:1;" d="M 163.769531 313.261719 L 161.25 315.359375 C 160.164062 317.535156 160.234375 321.121094 157.46875 322.5 C 155.898438 323.285156 152.132812 322.675781 151.171875 324.601562 L 150.332031 327.960938 C 149.359375 329.90625 142.707031 329.503906 145.292969 334.679688 C 146.617188 337.328125 151.527344 337.328125 152.851562 334.679688 C 153.246094 333.886719 152.238281 330.898438 154.109375 330.898438 L 155.789062 334.257812 C 161.535156 334.257812 155.46875 331.15625 163.351562 335.097656 C 165.257812 336.050781 167 331.738281 168.390625 331.738281 C 171.773438 331.738281 173.609375 340.464844 177.625 338.457031 C 186.875 333.832031 178.046875 331.398438 178.046875 327.117188 C 178.046875 324.273438 182.835938 323.261719 181.40625 320.398438 C 180.4375 318.460938 174.449219 311.910156 171.75 313.261719 L 169.226562 314.941406 C 167.734375 314.941406 165.933594 313.261719 163.769531 313.261719 Z M 163.769531 313.261719 "/>
</g>
</svg>
