<?xml version="1.0" encoding="UTF-8"?>
<svg xmlns="http://www.w3.org/2000/svg" xmlns:xlink="http://www.w3.org/1999/xlink" width="430px" height="430px" viewBox="0 0 430 430" version="1.1">
<g id="surface1">
<rect x="0" y="0" width="430" height="430" style="fill:rgb(0%,0%,0%);fill-opacity:1;stroke:none;"/>
<path style=" stroke:none;fill-rule:evenodd;fill:rgb(52.549022%,100%,35.294119%);fill-opacity:1;" d="M 200.722656 272.949219 C 200.722656 274.578125 198.792969 277.070312 199.882812 279.25 C 200.640625 280.761719 202.449219 279.667969 203.242188 279.667969 C 204.4375 279.667969 206.21875 281.328125 207.859375 280.507812 C 209.824219 279.527344 212.222656 272.949219 209.539062 272.949219 L 207.023438 274.628906 C 205.136719 274.628906 202.964844 272.949219 200.722656 272.949219 M 188.964844 245.234375 C 188.964844 249.855469 177.523438 246.703125 176.367188 249.015625 L 176.367188 251.53125 C 175.039062 254.1875 173.164062 251.953125 171.75 251.953125 L 170.90625 254.472656 C 169.71875 255.066406 167.722656 254.542969 167.128906 255.734375 C 162.792969 264.40625 163.769531 272.996094 163.769531 283.445312 L 162.929688 288.484375 C 168.445312 299.519531 176.421875 317.460938 192.742188 317.460938 C 194.4375 317.460938 197.367188 319.347656 199.460938 318.300781 L 204.5 312.421875 C 207.171875 312.421875 209.796875 318.007812 212.0625 319.140625 C 213.679688 319.949219 216.71875 318.914062 217.9375 318.300781 L 225.5 316.621094 C 231.992188 313.375 242.714844 299.203125 242.714844 294.367188 L 245.234375 293.523438 C 245.234375 291.335938 246.527344 291.777344 247.753906 289.328125 C 249.992188 284.851562 248.261719 267.664062 246.074219 263.289062 C 245.109375 261.363281 243.746094 259.472656 242.714844 257.414062 L 242.296875 254.472656 L 241.453125 256.152344 L 240.617188 253.632812 C 236.777344 253.632812 229.148438 249.160156 224.65625 246.914062 C 223.449219 246.308594 216.457031 246.914062 215.421875 246.914062 C 214.523438 246.914062 212.699219 244.914062 212.0625 245.234375 C 210.617188 245.957031 209.371094 246.578125 207.023438 247.753906 C 206.683594 247.921875 191.207031 245.234375 188.964844 245.234375 Z M 188.964844 245.234375 "/>
<path style=" stroke:none;fill-rule:evenodd;fill:rgb(92.156863%,34.117648%,100%);fill-opacity:1;" d="M 204.082031 276.308594 C 204.082031 281.179688 208.953125 276.308594 204.082031 276.308594 M 200.722656 272.949219 C 200.722656 274.578125 198.792969 277.070312 199.882812 279.25 C 200.640625 280.761719 202.449219 279.667969 203.242188 279.667969 C 204.4375 279.667969 206.21875 281.328125 207.859375 280.507812 C 209.824219 279.527344 212.222656 272.949219 209.539062 272.949219 L 207.023438 274.628906 C 205.136719 274.628906 202.964844 272.949219 200.722656 272.949219 Z M 200.722656 272.949219 "/>
<path style=" stroke:none;fill-rule:nonzero;fill:rgb(15.294118%,95.686275%,99.215686%);fill-opacity:1;" d="M 204.082031 276.308594 C 204.082031 281.179688 208.953125 276.308594 204.082031 276.308594 Z M 204.082031 276.308594 "/>
</g>
</svg>
