<?xml version="1.0" encoding="UTF-8"?>
<svg xmlns="http://www.w3.org/2000/svg" xmlns:xlink="http://www.w3.org/1999/xlink" width="430px" height="430px" viewBox="0 0 430 430" version="1.1">
<g id="surface1">
<rect x="0" y="0" width="430" height="430" style="fill:rgb(0%,0%,0%);fill-opacity:1;stroke:none;"/>
<path style=" stroke:none;fill-rule:evenodd;fill:rgb(1.176471%,75.686276%,17.647059%);fill-opacity:1;" d="M 342.65625 175.527344 C 342.65625 177.148438 344.277344 175.527344 342.65625 175.527344 M 30.234375 199.042969 C 30.234375 193.265625 28.554688 186.789062 28.554688 180.148438 C 28.554688 176.589844 29.394531 171.773438 29.394531 168.390625 L 31.914062 160.828125 C 31.914062 159.402344 31.074219 156.574219 31.074219 154.953125 L 33.59375 149.914062 C 34.234375 148.628906 33.59375 146.316406 33.59375 145.710938 C 33.59375 141.355469 40.3125 132.355469 40.3125 128.914062 C 40.3125 126.90625 45.351562 124.039062 45.351562 123.039062 C 45.351562 118.3125 52.824219 112.289062 55.429688 107.078125 L 57.949219 106.242188 L 57.109375 104.5625 C 57.109375 103.769531 62.757812 101.945312 63.40625 101.621094 L 66.765625 96.582031 C 70.136719 94.898438 73.300781 93.316406 76.84375 91.542969 C 80.496094 89.71875 82.734375 84.398438 83.5625 83.984375 C 85.9375 82.796875 87.980469 85.136719 90.28125 83.984375 L 93.640625 80.625 L 112.117188 71.386719 C 115.808594 69.542969 125.238281 70.546875 128.914062 70.546875 L 131.4375 67.1875 C 133.480469 66.164062 135.996094 65.746094 138.15625 64.667969 C 142.457031 62.515625 149.996094 65.046875 152.429688 63.828125 C 155.75 62.167969 159.273438 61.246094 162.507812 59.628906 C 164.128906 58.820312 167.167969 59.859375 168.390625 60.46875 C 169.757812 61.152344 174.542969 58.507812 176.789062 59.628906 L 185.1875 62.148438 C 187.667969 63.390625 189.53125 66 191.90625 67.1875 L 199.460938 74.746094 C 201.890625 74.746094 201.472656 70.800781 203.664062 69.707031 C 210.019531 66.527344 216.03125 63.941406 222.976562 60.46875 C 225.125 59.394531 231.304688 60.433594 233.054688 61.308594 C 234.472656 62.015625 249.109375 59.679688 254.054688 62.148438 C 259.609375 64.925781 267.320312 60.382812 272.53125 62.988281 L 275.046875 65.507812 L 282.609375 65.507812 C 292.324219 70.367188 304 70.746094 313.679688 75.585938 L 321.242188 82.304688 C 321.578125 82.472656 327.546875 83.359375 328.796875 83.984375 C 330.574219 84.871094 334.417969 89.734375 334.679688 89.863281 C 336.71875 90.882812 338.546875 87.597656 341.398438 89.023438 C 346.308594 91.480469 341.101562 93.914062 343.078125 94.902344 L 346.4375 94.902344 C 349.242188 96.304688 349.714844 101.582031 351.476562 102.460938 C 357.121094 105.285156 364.753906 114.324219 367.851562 120.515625 L 368.691406 126.398438 L 372.890625 129.757812 C 374.859375 133.691406 375.023438 144.101562 376.25 146.554688 L 377.929688 146.554688 C 380.125 150.949219 377.539062 159.210938 379.609375 163.351562 C 382.140625 168.414062 378.769531 185.714844 378.769531 190.644531 C 378.769531 192.617188 377.347656 199.042969 374.570312 199.042969 C 374.570312 199.042969 373.730469 197.78125 373.730469 197.78125 C 371.234375 192.789062 374.421875 200.4375 371.632812 199.042969 C 371.632812 199.042969 368.691406 196.945312 368.691406 196.945312 C 368.691406 196.945312 368.273438 194.84375 368.273438 194.84375 C 368.273438 194.84375 367.429688 197.363281 367.429688 197.363281 C 365.324219 198.417969 363.238281 194.84375 361.554688 194.84375 C 360.390625 194.84375 358.210938 195.691406 356.515625 194.84375 C 356.515625 194.84375 355.671875 191.484375 355.671875 191.484375 C 355.1875 191.484375 355.21875 195.195312 354.414062 193.585938 C 353.796875 192.347656 354.738281 189.757812 353.15625 188.964844 C 350.824219 187.800781 352.964844 193.488281 350.632812 192.324219 C 348.609375 191.3125 346.683594 188.125 343.496094 188.125 C 343.496094 184.554688 342.203125 165.804688 340.976562 163.351562 C 340.976562 163.351562 339.296875 163.351562 339.296875 163.351562 C 339.296875 163.351562 338.875 153.691406 338.875 153.691406 C 338.875 153.691406 337.617188 154.953125 337.617188 154.953125 C 335.945312 151.605469 337.65625 147.472656 335.9375 144.03125 C 335.578125 143.3125 334.304688 144.96875 333.417969 143.195312 C 332.574219 141.507812 332.597656 139.035156 331.738281 137.3125 C 331.738281 137.3125 329.21875 134.796875 329.21875 134.796875 C 329.21875 134.796875 330.058594 132.273438 330.058594 132.273438 C 329.519531 131.191406 325.859375 130.9375 325.859375 130.59375 C 325.859375 130.59375 326.699219 128.078125 326.699219 128.078125 C 325.847656 126.375 319.433594 119.195312 317.882812 118.417969 C 316.832031 117.894531 310.742188 112.800781 310.742188 112.539062 C 310.742188 111.214844 309.261719 110.859375 308.222656 110.859375 C 308.222656 110.859375 305.703125 109.179688 305.703125 109.179688 C 305.703125 107.710938 305.492188 107.5 304.023438 107.5 C 304.023438 107.5 301.503906 106.660156 301.503906 106.660156 C 301.503906 103.378906 298.152344 103.300781 295.625 103.300781 C 291.511719 103.300781 278.957031 98.535156 275.046875 96.582031 C 267.886719 93 254.71875 96.074219 247.335938 92.382812 C 247.335938 92.382812 239.773438 92.382812 239.773438 92.382812 C 237.414062 91.203125 234.496094 91.003906 232.21875 89.863281 C 230.886719 89.199219 230.316406 86.195312 228.015625 87.34375 C 226.640625 88.03125 220.996094 88.367188 220.878906 88.601562 C 219.59375 91.171875 216.261719 104.558594 213.742188 105.820312 C 211.054688 107.164062 207.097656 106.203125 204.5 107.5 C 202.960938 108.269531 198.042969 109.308594 196.101562 108.339844 C 193.828125 107.203125 189.515625 107.339844 188.125 104.5625 C 186.628906 101.566406 183.570312 93.675781 180.984375 92.382812 C 180.984375 92.382812 177.625 87.34375 177.625 87.34375 C 177.625 87.34375 175.945312 89.023438 175.945312 89.023438 C 169.492188 89.023438 167.703125 90.207031 161.671875 93.222656 C 161.671875 93.222656 157.46875 93.222656 157.46875 93.222656 C 151.101562 96.40625 142.816406 95.089844 136.476562 98.261719 C 136.476562 98.261719 132.273438 98.261719 132.273438 98.261719 C 130.40625 99.195312 118.78125 104.140625 117.578125 104.140625 C 116.703125 104.140625 113.378906 104.96875 113.378906 105.820312 C 110.566406 105.820312 99.378906 116.808594 96.164062 118.417969 C 90.007812 121.496094 85.128906 130.828125 82.304688 136.476562 C 80.074219 140.9375 76.957031 144.652344 74.746094 149.070312 C 74.746094 149.070312 73.90625 154.953125 73.90625 154.953125 C 68.582031 165.597656 66.347656 178.203125 66.347656 188.964844 C 66.347656 188.964844 60.890625 191.484375 60.890625 191.484375 C 60.890625 191.484375 59.210938 194.003906 59.210938 194.003906 C 59.210938 194.003906 58.367188 192.324219 58.367188 192.324219 C 58.367188 192.324219 55.007812 194.003906 55.007812 194.003906 C 54.210938 193.605469 55.082031 190.609375 53.328125 191.484375 C 53.328125 191.484375 49.96875 195.683594 49.96875 195.683594 C 46.394531 197.472656 34.535156 199.042969 30.234375 199.042969 Z M 30.234375 199.042969 "/>
<path style=" stroke:none;fill-rule:nonzero;fill:rgb(100%,43.137255%,0%);fill-opacity:1;" d="M 83.144531 235.15625 L 81.464844 236.835938 C 81.464844 233.402344 77.546875 231.101562 76.425781 228.859375 C 75.871094 227.75 76.707031 224.238281 74.746094 224.238281 C 74.746094 224.238281 73.90625 222.558594 73.90625 222.558594 C 73.90625 216.578125 69.890625 214.945312 69.707031 214.578125 C 68.328125 211.824219 66.347656 191.574219 66.347656 188.964844 C 66.347656 178.203125 68.582031 165.597656 73.90625 154.953125 C 73.90625 154.953125 74.746094 149.070312 74.746094 149.070312 C 76.957031 144.652344 80.074219 140.9375 82.304688 136.476562 C 85.128906 130.828125 90.007812 121.496094 96.164062 118.417969 C 99.378906 116.808594 110.566406 105.820312 113.378906 105.820312 C 114.742188 105.820312 117.578125 106.207031 117.578125 104.140625 C 118.78125 104.140625 130.40625 99.195312 132.273438 98.261719 C 132.273438 98.261719 136.476562 98.261719 136.476562 98.261719 C 142.816406 95.089844 151.101562 96.40625 157.46875 93.222656 C 157.46875 93.222656 161.671875 93.222656 161.671875 93.222656 C 167.703125 90.207031 169.492188 89.023438 175.945312 89.023438 C 175.945312 89.023438 177.625 87.34375 177.625 87.34375 C 177.625 87.34375 180.984375 92.382812 180.984375 92.382812 C 183.570312 93.675781 186.628906 101.566406 188.125 104.5625 C 189.515625 107.339844 193.828125 107.203125 196.101562 108.339844 C 198.042969 109.308594 202.960938 108.269531 204.5 107.5 C 207.097656 106.203125 211.054688 107.164062 213.742188 105.820312 C 216.261719 104.558594 219.59375 91.171875 220.878906 88.601562 C 220.996094 88.367188 226.640625 88.03125 228.015625 87.34375 C 230.316406 86.195312 230.886719 89.199219 232.21875 89.863281 C 234.496094 91.003906 237.414062 91.203125 239.773438 92.382812 C 239.773438 92.382812 247.335938 92.382812 247.335938 92.382812 C 254.71875 96.074219 267.886719 93 275.046875 96.582031 C 278.957031 98.535156 291.511719 103.300781 295.625 103.300781 C 295.625 104.136719 300.460938 106.660156 301.503906 106.660156 C 301.503906 106.660156 304.023438 107.5 304.023438 107.5 C 304.023438 107.5 305.703125 109.179688 305.703125 109.179688 C 305.703125 109.179688 308.222656 110.859375 308.222656 110.859375 C 308.222656 112.183594 309.703125 112.539062 310.742188 112.539062 C 310.742188 112.800781 316.832031 117.894531 317.882812 118.417969 C 319.433594 119.195312 325.847656 126.375 326.699219 128.078125 C 326.699219 128.078125 325.859375 130.59375 325.859375 130.59375 C 325.859375 130.9375 329.519531 131.191406 330.058594 132.273438 C 330.058594 132.273438 329.21875 134.796875 329.21875 134.796875 C 329.21875 134.796875 331.738281 137.3125 331.738281 137.3125 C 332.597656 139.035156 332.574219 141.507812 333.417969 143.195312 C 334.304688 144.96875 335.578125 143.3125 335.9375 144.03125 C 337.65625 147.472656 335.945312 151.605469 337.617188 154.953125 C 337.617188 154.953125 338.875 153.691406 338.875 153.691406 C 338.875 153.691406 339.296875 163.351562 339.296875 163.351562 C 339.296875 163.351562 340.976562 163.351562 340.976562 163.351562 C 342.203125 165.804688 343.496094 184.554688 343.496094 188.125 C 343.496094 199.101562 337.617188 210.046875 337.617188 220.878906 C 335.804688 220.878906 337.566406 224.238281 336.359375 224.238281 C 336.359375 224.238281 335.515625 222.558594 335.515625 222.558594 C 335.515625 222.558594 334.679688 225.078125 334.679688 225.078125 C 332.890625 225.972656 333.417969 221.722656 333.417969 220.878906 C 333.417969 218.21875 334 215.9375 335.097656 213.742188 C 335.097656 213.742188 335.9375 191.90625 335.9375 191.90625 C 335.9375 191.90625 336.777344 183.507812 336.777344 183.507812 C 336.777344 183.507812 335.515625 184.765625 335.515625 184.765625 C 335.515625 184.765625 334.257812 178.046875 334.257812 178.046875 C 334.257812 177.003906 333.402344 170.488281 332.578125 170.488281 C 332.578125 170.488281 332.578125 169.648438 332.578125 169.648438 C 332.578125 169.648438 333.417969 169.648438 333.417969 169.648438 C 336.058594 169.648438 336.058594 167.128906 333.417969 167.128906 C 333.417969 167.128906 333.417969 166.289062 333.417969 166.289062 C 334.414062 166.289062 334.414062 165.449219 333.417969 165.449219 C 333.417969 165.449219 333.417969 161.25 333.417969 161.25 C 333.417969 158.976562 331.738281 157.347656 331.738281 154.53125 C 331.738281 151.332031 326.699219 144.3125 326.699219 140.253906 C 326.699219 140.253906 325.859375 139.414062 325.859375 139.414062 C 325.859375 137.113281 321.660156 134.285156 321.660156 133.117188 C 321.660156 127.859375 299.777344 108.339844 293.945312 108.339844 C 293.945312 108.339844 293.105469 107.5 293.105469 107.5 C 293.105469 107.5 287.648438 104.980469 287.648438 104.980469 C 286.589844 104.453125 285.773438 106.144531 286.804688 106.660156 C 289.003906 107.757812 299.824219 111.113281 299.824219 114.21875 C 299.824219 114.21875 291.84375 110.019531 291.84375 110.019531 C 281.808594 105 262.480469 97.410156 250.695312 103.300781 C 248.648438 104.324219 239.355469 107.429688 239.355469 110.859375 C 239.355469 110.859375 238.515625 112.539062 238.515625 112.539062 C 238.515625 112.539062 238.515625 113.378906 238.515625 113.378906 C 238.515625 113.378906 237.675781 114.21875 237.675781 114.21875 C 237.675781 114.21875 236.835938 115.058594 236.835938 115.058594 C 236.835938 115.058594 236.835938 115.898438 236.835938 115.898438 C 236.835938 115.898438 235.996094 116.738281 235.996094 116.738281 C 235.996094 116.738281 235.15625 118.417969 235.15625 118.417969 C 235.15625 118.417969 234.316406 119.257812 234.316406 119.257812 C 234.316406 119.257812 232.636719 120.097656 232.636719 120.097656 C 232.636719 120.097656 231.796875 120.9375 231.796875 120.9375 C 231.796875 120.9375 230.957031 121.777344 230.957031 121.777344 C 230.957031 121.777344 228.4375 124.296875 228.4375 124.296875 C 228.4375 124.296875 227.597656 124.296875 227.597656 124.296875 C 227.597656 124.296875 225.5 125.976562 225.5 125.976562 C 223.511719 126.96875 220.714844 125.136719 219.199219 125.136719 C 219.199219 123.898438 217.558594 124.296875 216.679688 124.296875 C 216.679688 124.296875 215.839844 124.296875 215.839844 124.296875 C 215.839844 124.296875 213.320312 124.296875 213.320312 124.296875 C 213.320312 124.296875 210.800781 124.296875 210.800781 124.296875 C 210.800781 124.296875 209.960938 125.136719 209.960938 125.136719 C 209.960938 125.136719 207.441406 125.136719 207.441406 125.136719 C 207.441406 125.136719 206.601562 125.136719 206.601562 125.136719 C 206.601562 125.136719 204.921875 125.976562 204.921875 125.976562 C 204.921875 125.976562 204.082031 125.976562 204.082031 125.976562 C 204.082031 125.976562 203.242188 125.976562 203.242188 125.976562 C 203.242188 125.976562 202.402344 125.976562 202.402344 125.976562 C 202.402344 125.976562 200.722656 125.976562 200.722656 125.976562 C 200.722656 125.976562 199.042969 125.976562 199.042969 125.976562 C 196.671875 125.976562 192.097656 123.78125 189.382812 125.136719 C 185.0625 127.296875 183.289062 127.65625 178.886719 127.65625 C 178.886719 127.65625 178.046875 126.816406 178.046875 126.816406 C 178.046875 125.179688 175.984375 126.414062 175.109375 125.976562 C 175.109375 125.976562 172.167969 122.617188 172.167969 122.617188 C 172.167969 120 166.335938 115.574219 165.449219 113.796875 C 160.910156 104.71875 141.648438 101.132812 132.273438 105.820312 C 132.273438 105.820312 120.097656 110.859375 120.097656 110.859375 C 120.097656 110.859375 119.257812 110.859375 119.257812 110.859375 C 119.257812 110.859375 118.417969 111.699219 118.417969 111.699219 C 99.445312 111.699219 79.785156 145.746094 79.785156 162.089844 C 79.785156 162.089844 79.785156 162.929688 79.785156 162.929688 C 79.785156 162.929688 78.105469 166.289062 78.105469 166.289062 C 78.105469 167.921875 76.425781 169.125 76.425781 170.070312 C 76.425781 170.519531 77.265625 173.890625 77.265625 175.109375 C 77.265625 175.109375 73.90625 179.304688 73.90625 179.304688 C 73.90625 179.304688 75.585938 180.984375 75.585938 180.984375 C 75.585938 181.4375 73.871094 182.246094 75.585938 182.246094 C 75.585938 182.246094 76.425781 183.925781 76.425781 183.925781 C 76.425781 183.925781 75.585938 184.765625 75.585938 184.765625 C 73.726562 184.765625 73.726562 185.605469 75.585938 185.605469 C 75.585938 185.605469 73.066406 194.421875 73.066406 194.421875 C 73.066406 194.421875 73.90625 214.578125 73.90625 214.578125 C 76.691406 220.152344 83.144531 232.34375 83.144531 235.15625 Z M 83.144531 235.15625 "/>
<path style=" stroke:none;fill-rule:nonzero;fill:rgb(5.490196%,27.843139%,88.627452%);fill-opacity:1;" d="M 263.710938 248.59375 L 264.550781 248.59375 C 264.550781 251.628906 267.070312 249.003906 267.070312 246.914062 C 267.070312 246.914062 267.910156 246.074219 267.910156 246.074219 C 267.910156 246.074219 269.589844 244.394531 269.589844 244.394531 C 269.589844 244.394531 270.429688 242.714844 270.429688 242.714844 C 270.429688 242.714844 271.269531 241.875 271.269531 241.875 C 271.269531 241.875 272.109375 241.035156 272.109375 241.035156 C 272.109375 241.035156 272.949219 240.195312 272.949219 240.195312 C 274.273438 240.195312 274.628906 238.714844 274.628906 237.675781 C 274.628906 237.675781 275.46875 236.835938 275.46875 236.835938 C 275.46875 236.835938 275.46875 235.996094 275.46875 235.996094 C 275.46875 235.996094 276.308594 235.15625 276.308594 235.15625 C 277.777344 235.15625 277.988281 234.945312 277.988281 233.476562 C 277.988281 233.476562 278.828125 232.636719 278.828125 232.636719 C 278.828125 232.636719 279.667969 230.117188 279.667969 230.117188 C 279.667969 230.117188 280.507812 229.277344 280.507812 229.277344 C 280.507812 229.277344 282.1875 226.757812 282.1875 226.757812 C 282.1875 226.757812 283.027344 225.917969 283.027344 225.917969 C 284.496094 225.917969 284.707031 225.707031 284.707031 224.238281 C 284.707031 224.238281 285.546875 223.398438 285.546875 223.398438 C 285.546875 223.398438 286.386719 222.558594 286.386719 222.558594 C 286.386719 222.558594 287.226562 221.71875 287.226562 221.71875 C 288.550781 221.71875 288.90625 220.238281 288.90625 219.199219 C 288.90625 219.199219 290.585938 217.519531 290.585938 217.519531 C 290.585938 217.519531 291.425781 216.679688 291.425781 216.679688 C 291.425781 216.679688 292.265625 215.839844 292.265625 215.839844 C 293.734375 215.839844 293.945312 215.628906 293.945312 214.160156 C 293.945312 214.160156 296.464844 210.800781 296.464844 210.800781 C 296.464844 210.800781 297.304688 209.960938 297.304688 209.960938 C 297.304688 209.960938 298.984375 205.761719 298.984375 205.761719 C 298.984375 205.761719 299.824219 204.921875 299.824219 204.921875 C 299.824219 204.921875 299.824219 204.082031 299.824219 204.082031 C 299.824219 204.082031 300.664062 203.242188 300.664062 203.242188 C 302.101562 203.242188 303.183594 201.082031 303.183594 199.882812 C 303.183594 199.882812 303.183594 198.203125 303.183594 198.203125 C 303.183594 198.203125 304.023438 196.523438 304.023438 196.523438 C 306.953125 196.523438 308.222656 188.308594 308.222656 186.023438 C 308.222656 175.785156 306.195312 173.574219 302.34375 165.867188 C 301.59375 164.371094 299.652344 158.730469 297.304688 158.730469 C 297.304688 158.730469 297.304688 157.890625 297.304688 157.890625 C 297.304688 156.320312 282.1875 140.671875 282.1875 146.972656 C 280.628906 146.972656 277.148438 145.640625 277.148438 147.8125 C 277.148438 147.8125 276.308594 147.8125 276.308594 147.8125 C 276.308594 146.738281 262.417969 142.773438 261.191406 142.773438 C 261.191406 140.835938 255.300781 142.558594 254.054688 141.933594 C 253.46875 141.640625 247.753906 141.769531 247.753906 141.933594 C 247.753906 141.933594 244.394531 141.933594 244.394531 141.933594 C 244.394531 141.933594 243.554688 137.3125 243.554688 137.3125 C 243.554688 136.414062 245.011719 135.214844 243.554688 135.214844 C 243.554688 133.671875 246.902344 129.726562 246.074219 128.078125 C 245.363281 126.652344 235.996094 124.859375 235.996094 118.417969 C 235.996094 118.417969 235.996094 116.738281 235.996094 116.738281 C 235.996094 116.738281 236.835938 115.898438 236.835938 115.898438 C 236.835938 115.898438 236.835938 115.058594 236.835938 115.058594 C 236.835938 115.058594 237.675781 114.21875 237.675781 114.21875 C 237.675781 114.21875 238.515625 113.378906 238.515625 113.378906 C 238.515625 113.378906 238.515625 112.539062 238.515625 112.539062 C 238.515625 112.539062 239.355469 110.859375 239.355469 110.859375 C 239.355469 107.429688 248.648438 104.324219 250.695312 103.300781 C 262.480469 97.410156 281.808594 105 291.84375 110.019531 C 291.84375 110.019531 299.824219 114.21875 299.824219 114.21875 C 299.824219 114.21875 300.664062 114.21875 300.664062 114.21875 C 300.664062 115.871094 304.507812 117.578125 305.703125 117.578125 C 305.703125 117.578125 306.542969 118.417969 306.542969 118.417969 C 306.25 118.417969 310.078125 123.210938 311.582031 124.71875 C 311.582031 124.71875 320.820312 135.214844 320.820312 135.214844 C 320.820312 135.214844 322.5 137.734375 322.5 137.734375 C 322.5 137.734375 323.339844 138.574219 323.339844 138.574219 C 323.339844 140.859375 325.019531 141.558594 325.019531 143.613281 C 325.019531 143.613281 325.859375 144.453125 325.859375 144.453125 C 325.859375 144.453125 325.859375 145.292969 325.859375 145.292969 C 325.859375 145.292969 326.699219 146.972656 326.699219 146.972656 C 326.699219 146.972656 326.699219 149.492188 326.699219 149.492188 C 326.699219 154.125 328.917969 160.230469 330.898438 164.1875 C 331.367188 165.125 331.242188 168.808594 332.578125 168.808594 C 332.578125 168.808594 332.578125 169.648438 332.578125 169.648438 C 332.578125 169.648438 332.578125 170.488281 332.578125 170.488281 C 332.578125 172.101562 332.445312 178.046875 334.257812 178.046875 C 334.257812 178.046875 335.515625 184.765625 335.515625 184.765625 C 335.515625 184.765625 336.777344 183.507812 336.777344 183.507812 C 336.777344 183.507812 335.9375 191.90625 335.9375 191.90625 C 335.9375 191.90625 335.097656 213.742188 335.097656 213.742188 C 334 215.9375 333.417969 218.21875 333.417969 220.878906 C 332.824219 220.878906 326.699219 230.304688 326.699219 230.957031 C 326.699219 230.957031 313.679688 241.875 313.679688 241.875 C 307.949219 244.742188 301.234375 246.839844 294.367188 250.273438 C 292.765625 251.074219 292.082031 249.132812 291.007812 248.59375 C 289.460938 247.820312 283.171875 250.410156 281.765625 251.113281 C 280.078125 251.957031 280.265625 253.964844 279.25 254.472656 C 272.972656 257.609375 267.070312 252.265625 267.070312 262.871094 C 264.511719 262.871094 254.472656 261.605469 257.832031 254.890625 C 259.324219 251.910156 263.710938 253.082031 263.710938 248.59375 Z M 263.710938 248.59375 "/>
<path style=" stroke:none;fill-rule:nonzero;fill:rgb(5.490196%,27.843139%,88.627452%);fill-opacity:1;" d="M 133.535156 240.195312 C 133.535156 242.480469 136.054688 244 136.054688 246.914062 C 135.089844 246.914062 135.046875 251.828125 133.117188 252.792969 C 130.355469 254.171875 104.515625 249.410156 102.882812 248.59375 C 98 246.152344 93.519531 242.652344 88.601562 240.195312 C 88.246094 240.015625 84.644531 235.15625 83.144531 235.15625 C 83.144531 232.34375 76.691406 220.152344 73.90625 214.578125 C 73.90625 214.578125 73.066406 194.421875 73.066406 194.421875 C 73.066406 194.421875 75.585938 185.605469 75.585938 185.605469 C 75.585938 185.605469 75.585938 184.765625 75.585938 184.765625 C 75.585938 184.765625 76.425781 183.925781 76.425781 183.925781 C 76.425781 183.925781 75.585938 182.246094 75.585938 182.246094 C 78.847656 182.246094 80.625 167.578125 80.625 166.289062 C 80.625 166.289062 81.464844 164.609375 81.464844 164.609375 C 81.464844 164.609375 81.464844 162.089844 81.464844 162.089844 C 81.464844 162.089844 82.304688 159.570312 82.304688 159.570312 C 82.304688 159.570312 82.304688 158.730469 82.304688 158.730469 C 83.480469 158.730469 83.480469 157.050781 82.304688 157.050781 C 82.304688 157.050781 86.503906 143.613281 86.503906 143.613281 C 86.503906 143.613281 87.34375 142.773438 87.34375 142.773438 C 87.34375 142.773438 87.34375 141.933594 87.34375 141.933594 C 87.34375 141.933594 88.183594 140.253906 88.183594 140.253906 C 88.183594 140.253906 89.023438 138.574219 89.023438 138.574219 C 89.023438 138.574219 89.863281 136.894531 89.863281 136.894531 C 89.863281 136.894531 90.703125 136.054688 90.703125 136.054688 C 90.703125 136.054688 91.542969 134.375 91.542969 134.375 C 91.542969 134.375 92.382812 133.535156 92.382812 133.535156 C 92.382812 133.535156 93.222656 132.695312 93.222656 132.695312 C 93.222656 132.695312 95.320312 129.335938 95.320312 129.335938 C 95.320312 129.335938 105.398438 119.257812 105.398438 119.257812 C 107.0625 118.425781 118.417969 112.226562 118.417969 111.699219 C 118.417969 111.699219 119.257812 111.699219 119.257812 111.699219 C 119.257812 111.699219 120.097656 110.859375 120.097656 110.859375 C 120.097656 110.859375 132.273438 105.820312 132.273438 105.820312 C 141.648438 101.132812 160.910156 104.71875 165.449219 113.796875 C 166.335938 115.574219 172.167969 120 172.167969 122.617188 C 172.167969 123.851562 164.675781 131.015625 164.1875 131.015625 C 164.1875 131.015625 162.929688 130.59375 162.929688 130.59375 C 161.984375 132.488281 163.679688 139.414062 164.609375 139.414062 C 164.609375 147.601562 155.234375 145.292969 148.652344 145.292969 C 142.363281 145.292969 137.910156 148.652344 131.855469 148.652344 C 131.855469 147.363281 128.496094 147.363281 128.496094 148.652344 C 128.496094 148.652344 126.816406 149.492188 126.816406 149.492188 C 125.9375 149.492188 124.296875 149.09375 124.296875 150.332031 C 123.417969 150.332031 121.777344 149.933594 121.777344 151.171875 C 121.777344 151.171875 120.9375 152.011719 120.9375 152.011719 C 120.9375 152.011719 119.257812 152.851562 119.257812 152.851562 C 118.199219 152.851562 115.058594 155.660156 115.058594 157.050781 C 112.820312 157.050781 109.179688 161.605469 109.179688 163.769531 C 109.179688 163.769531 105.820312 167.96875 105.820312 167.96875 C 105.820312 167.96875 99.941406 176.367188 99.941406 176.367188 C 99.941406 176.367188 99.101562 177.207031 99.101562 177.207031 C 99.101562 177.207031 99.101562 178.046875 99.101562 178.046875 C 93.425781 178.046875 95.742188 187.363281 95.742188 189.804688 C 95.742188 192.996094 100.867188 201.316406 102.460938 204.5 C 102.460938 204.5 105.820312 207.023438 105.820312 207.023438 C 106.542969 208.464844 109.609375 214.160156 111.699219 214.160156 C 111.699219 215.46875 114.398438 219.976562 115.058594 221.296875 C 115.621094 222.421875 116.738281 219.773438 116.738281 221.71875 C 116.738281 221.71875 119.257812 225.078125 119.257812 225.078125 C 119.257812 225.078125 120.097656 225.078125 120.097656 225.078125 C 120.097656 225.078125 128.496094 233.476562 128.496094 233.476562 C 128.496094 233.476562 132.695312 238.515625 132.695312 238.515625 C 132.695312 238.515625 133.535156 239.355469 133.535156 239.355469 C 133.535156 239.355469 133.535156 240.195312 133.535156 240.195312 Z M 133.535156 240.195312 "/>
<path style=" stroke:none;fill-rule:nonzero;fill:rgb(0.784314%,17.254902%,100%);fill-opacity:1;" d="M 326.699219 149.492188 C 329.65625 149.492188 327.539062 155.371094 328.796875 155.371094 L 329.640625 154.53125 L 330.476562 157.050781 L 331.738281 154.53125 C 331.738281 151.332031 326.699219 144.3125 326.699219 140.253906 C 326.699219 140.253906 325.859375 139.414062 325.859375 139.414062 C 325.859375 137.113281 321.660156 134.285156 321.660156 133.117188 C 321.660156 127.859375 299.777344 108.339844 293.945312 108.339844 C 293.945312 108.339844 293.105469 107.5 293.105469 107.5 C 293.105469 107.5 287.648438 104.980469 287.648438 104.980469 C 286.589844 104.453125 285.773438 106.144531 286.804688 106.660156 C 289.003906 107.757812 299.824219 111.113281 299.824219 114.21875 C 299.824219 114.21875 300.664062 114.21875 300.664062 114.21875 C 301.378906 114.21875 305.703125 116.730469 305.703125 117.578125 C 305.703125 117.578125 306.542969 118.417969 306.542969 118.417969 C 309.1875 118.417969 320.820312 132.476562 320.820312 135.214844 C 320.820312 135.214844 322.5 137.734375 322.5 137.734375 C 322.5 137.734375 323.339844 138.574219 323.339844 138.574219 C 323.339844 140.859375 325.019531 141.558594 325.019531 143.613281 C 325.019531 143.613281 325.859375 144.453125 325.859375 144.453125 C 325.859375 144.453125 325.859375 145.292969 325.859375 145.292969 C 325.859375 145.292969 326.699219 146.972656 326.699219 146.972656 C 326.699219 146.972656 326.699219 149.492188 326.699219 149.492188 Z M 326.699219 149.492188 "/>
<path style=" stroke:none;fill-rule:nonzero;fill:rgb(0.784314%,17.254902%,100%);fill-opacity:1;" d="M 118.417969 111.699219 L 119.257812 111.699219 C 119.257812 111.699219 119.257812 110.859375 119.257812 110.859375 C 119.257812 110.859375 118.417969 111.699219 118.417969 111.699219 Z M 118.417969 111.699219 "/>
<path style=" stroke:none;fill-rule:nonzero;fill:rgb(0.784314%,17.254902%,100%);fill-opacity:1;" d="M 79.785156 162.089844 L 81.464844 162.089844 C 81.464844 162.089844 82.304688 159.570312 82.304688 159.570312 C 81.308594 159.570312 81.308594 158.730469 82.304688 158.730469 C 82.304688 158.027344 80.683594 157.050781 82.304688 157.050781 C 82.304688 157.050781 86.503906 143.613281 86.503906 143.613281 C 86.503906 143.613281 87.34375 142.773438 87.34375 142.773438 C 87.34375 142.773438 87.34375 141.933594 87.34375 141.933594 C 87.34375 141.933594 88.183594 140.253906 88.183594 140.253906 C 88.183594 140.253906 89.023438 138.574219 89.023438 138.574219 C 89.023438 138.574219 89.863281 136.894531 89.863281 136.894531 C 89.863281 136.894531 90.703125 136.054688 90.703125 136.054688 C 90.703125 136.054688 91.542969 134.375 91.542969 134.375 C 91.542969 134.375 92.382812 133.535156 92.382812 133.535156 C 92.382812 133.535156 93.222656 132.695312 93.222656 132.695312 C 93.222656 132.695312 95.320312 129.335938 95.320312 129.335938 C 95.320312 129.335938 105.398438 119.257812 105.398438 119.257812 C 107.0625 118.425781 118.417969 112.226562 118.417969 111.699219 C 99.445312 111.699219 79.785156 145.746094 79.785156 162.089844 Z M 79.785156 162.089844 "/>
<path style=" stroke:none;fill-rule:nonzero;fill:rgb(100%,43.137255%,0%);fill-opacity:1;" d="M 300.664062 114.21875 C 301.378906 114.21875 305.703125 116.730469 305.703125 117.578125 C 304.507812 117.578125 300.664062 115.871094 300.664062 114.21875 Z M 300.664062 114.21875 "/>
<path style=" stroke:none;fill-rule:nonzero;fill:rgb(86.666667%,85.09804%,31.764707%);fill-opacity:1;" d="M 216.679688 142.773438 C 216.679688 140.75 217.519531 143.601562 217.519531 144.453125 C 221.875 144.453125 227.722656 144.601562 233.054688 141.933594 C 233.054688 141.933594 243.554688 135.214844 243.554688 135.214844 C 243.554688 133.671875 246.902344 129.726562 246.074219 128.078125 C 245.363281 126.652344 235.996094 124.859375 235.996094 118.417969 C 235.996094 118.417969 235.15625 118.417969 235.15625 118.417969 C 235.15625 118.417969 234.316406 119.257812 234.316406 119.257812 C 234.316406 119.257812 232.636719 120.097656 232.636719 120.097656 C 232.636719 120.097656 231.796875 120.9375 231.796875 120.9375 C 231.796875 120.9375 230.957031 121.777344 230.957031 121.777344 C 230.957031 121.777344 228.4375 124.296875 228.4375 124.296875 C 228.4375 125.292969 227.597656 125.292969 227.597656 124.296875 C 227.597656 124.296875 225.5 125.976562 225.5 125.976562 C 223.511719 126.96875 220.714844 125.136719 219.199219 125.136719 C 218.320312 125.136719 216.679688 125.535156 216.679688 124.296875 C 216.679688 124.296875 215.839844 124.296875 215.839844 124.296875 C 215.839844 125.542969 213.320312 125.542969 213.320312 124.296875 C 213.320312 124.296875 210.800781 124.296875 210.800781 124.296875 C 210.800781 124.296875 209.960938 125.136719 209.960938 125.136719 C 209.960938 125.136719 207.441406 125.136719 207.441406 125.136719 C 207.441406 126.132812 206.601562 126.132812 206.601562 125.136719 C 206.601562 125.136719 204.921875 125.976562 204.921875 125.976562 C 204.921875 126.972656 204.082031 126.972656 204.082031 125.976562 C 204.082031 125.976562 203.242188 125.976562 203.242188 125.976562 C 203.242188 125.976562 203.242188 126.816406 203.242188 126.816406 C 203.242188 130.335938 207.488281 138.574219 210.800781 138.574219 C 210.800781 136.859375 211.609375 138.574219 212.0625 138.574219 C 212.0625 138.574219 212.898438 136.894531 212.898438 136.894531 C 212.898438 136.894531 213.742188 139.414062 213.742188 139.414062 C 214.632812 139.414062 215 136.578125 215 140.253906 C 215 140.253906 215.839844 142.773438 215.839844 142.773438 C 215.839844 142.773438 216.679688 142.773438 216.679688 142.773438 Z M 216.679688 142.773438 "/>
<path style=" stroke:none;fill-rule:nonzero;fill:rgb(100%,43.137255%,0%);fill-opacity:1;" d="M 306.542969 118.417969 C 309.1875 118.417969 320.820312 132.476562 320.820312 135.214844 C 320.820312 135.214844 311.582031 124.71875 311.582031 124.71875 C 310.078125 123.210938 306.25 118.417969 306.542969 118.417969 Z M 306.542969 118.417969 "/>
<path style=" stroke:none;fill-rule:nonzero;fill:rgb(86.666667%,85.09804%,31.764707%);fill-opacity:1;" d="M 179.726562 147.8125 C 183.039062 147.8125 185.390625 147.8125 188.125 147.8125 C 188.125 143.320312 189.960938 143.714844 191.484375 140.671875 C 191.484375 140.671875 191.90625 135.214844 191.90625 135.214844 C 191.90625 135.214844 192.742188 136.894531 192.742188 136.894531 C 192.742188 136.894531 193.585938 135.214844 193.585938 135.214844 C 193.585938 135.214844 195.265625 136.894531 195.265625 136.894531 C 195.265625 136.894531 196.101562 133.535156 196.101562 133.535156 C 196.101562 133.535156 199.042969 138.574219 199.042969 138.574219 C 202.035156 138.574219 200.722656 128.605469 200.722656 126.816406 C 200.722656 126.816406 199.042969 125.976562 199.042969 125.976562 C 196.671875 125.976562 192.097656 123.78125 189.382812 125.136719 C 185.0625 127.296875 183.289062 127.65625 178.886719 127.65625 C 178.886719 127.65625 178.046875 126.816406 178.046875 126.816406 C 178.046875 125.179688 175.984375 126.414062 175.109375 125.976562 C 175.109375 125.976562 172.167969 122.617188 172.167969 122.617188 C 172.167969 123.851562 164.675781 131.015625 164.1875 131.015625 C 164.1875 131.015625 162.929688 130.59375 162.929688 130.59375 C 161.984375 132.488281 163.679688 139.414062 164.609375 139.414062 C 164.609375 136.726562 168.746094 142.773438 169.226562 142.773438 C 171.925781 142.773438 178.886719 147.558594 178.886719 147.8125 C 178.886719 147.8125 179.726562 147.8125 179.726562 147.8125 Z M 179.726562 147.8125 "/>
<path style=" stroke:none;fill-rule:evenodd;fill:rgb(0.784314%,17.254902%,100%);fill-opacity:1;" d="M 197.363281 151.171875 C 197.363281 156.277344 210.800781 153.589844 210.800781 151.59375 C 210.800781 150.132812 206.386719 152.011719 206.179688 152.011719 C 203.109375 152.011719 199.976562 151.171875 197.363281 151.171875 M 208.28125 167.128906 L 209.121094 167.128906 C 209.121094 162.300781 214.757812 161.316406 215.839844 159.148438 C 219.777344 151.273438 235.347656 142.773438 244.394531 142.773438 C 244.394531 142.773438 244.394531 141.933594 244.394531 141.933594 C 244.394531 141.933594 243.554688 137.3125 243.554688 137.3125 C 243.554688 136.414062 245.011719 135.214844 243.554688 135.214844 C 243.554688 135.214844 233.054688 141.933594 233.054688 141.933594 C 227.722656 144.601562 221.875 144.453125 217.519531 144.453125 C 217.519531 144.453125 216.679688 142.773438 216.679688 142.773438 C 216.679688 142.773438 215.839844 142.773438 215.839844 142.773438 C 213.78125 142.773438 210.800781 139.984375 210.800781 138.574219 C 207.488281 138.574219 203.242188 130.335938 203.242188 126.816406 C 203.242188 126.816406 202.402344 125.976562 202.402344 125.976562 C 202.402344 125.976562 200.722656 125.976562 200.722656 125.976562 C 200.722656 125.976562 200.722656 126.816406 200.722656 126.816406 C 200.722656 128.605469 202.035156 138.574219 199.042969 138.574219 C 199.042969 141.09375 189.910156 147.8125 188.125 147.8125 C 185.390625 147.8125 183.039062 147.8125 179.726562 147.8125 C 179.726562 149.332031 185.605469 149.140625 185.605469 152.011719 C 185.605469 152.011719 187.285156 153.691406 187.285156 153.691406 C 187.285156 159.242188 199.042969 160.542969 199.042969 167.128906 C 202.097656 167.128906 204.023438 167.128906 206.601562 167.128906 C 206.601562 167.128906 208.28125 167.128906 208.28125 167.128906 Z M 208.28125 167.128906 "/>
<path style=" stroke:none;fill-rule:nonzero;fill:rgb(5.490196%,27.843139%,88.627452%);fill-opacity:1;" d="M 199.042969 138.574219 C 199.042969 141.09375 189.910156 147.8125 188.125 147.8125 C 188.125 143.320312 189.960938 143.714844 191.484375 140.671875 C 191.484375 140.671875 191.90625 135.214844 191.90625 135.214844 C 191.90625 135.214844 192.742188 136.894531 192.742188 136.894531 C 192.742188 136.894531 193.585938 135.214844 193.585938 135.214844 C 193.585938 135.214844 195.265625 136.894531 195.265625 136.894531 C 195.265625 136.894531 196.101562 133.535156 196.101562 133.535156 C 196.101562 133.535156 199.042969 138.574219 199.042969 138.574219 Z M 199.042969 138.574219 "/>
<path style=" stroke:none;fill-rule:nonzero;fill:rgb(5.490196%,27.843139%,88.627452%);fill-opacity:1;" d="M 210.800781 138.574219 C 210.800781 139.984375 213.78125 142.773438 215.839844 142.773438 C 215.839844 142.773438 215 140.253906 215 140.253906 C 215 136.578125 214.632812 139.414062 213.742188 139.414062 C 213.742188 139.414062 212.898438 136.894531 212.898438 136.894531 C 212.898438 136.894531 212.0625 138.574219 212.0625 138.574219 C 211.609375 138.574219 210.800781 136.859375 210.800781 138.574219 Z M 210.800781 138.574219 "/>
<path style=" stroke:none;fill-rule:nonzero;fill:rgb(0.784314%,17.254902%,100%);fill-opacity:1;" d="M 177.207031 147.8125 L 178.886719 147.8125 C 178.886719 147.558594 171.925781 142.773438 169.226562 142.773438 C 168.746094 142.773438 164.609375 136.726562 164.609375 139.414062 C 164.609375 147.601562 155.234375 145.292969 148.652344 145.292969 C 148.652344 148.730469 162.839844 146.972656 164.609375 146.972656 C 164.609375 146.972656 165.449219 146.972656 165.449219 146.972656 C 165.449219 146.972656 166.289062 146.132812 166.289062 146.132812 C 166.289062 146.132812 172.167969 146.132812 172.167969 146.132812 C 173.53125 146.132812 177.207031 146.136719 177.207031 147.8125 Z M 177.207031 147.8125 "/>
<path style=" stroke:none;fill-rule:nonzero;fill:rgb(0.784314%,17.254902%,100%);fill-opacity:1;" d="M 248.59375 143.613281 L 249.433594 143.613281 C 251.222656 143.613281 258.324219 144.835938 259.09375 144.453125 C 259.09375 144.453125 261.191406 142.773438 261.191406 142.773438 C 261.191406 140.835938 255.300781 142.558594 254.054688 141.933594 C 253.46875 141.640625 247.753906 141.769531 247.753906 141.933594 C 247.753906 141.933594 248.59375 143.613281 248.59375 143.613281 Z M 248.59375 143.613281 "/>
<path style=" stroke:none;fill-rule:nonzero;fill:rgb(5.490196%,27.843139%,88.627452%);fill-opacity:1;" d="M 216.679688 142.773438 L 217.519531 144.453125 C 217.519531 143.601562 216.679688 140.75 216.679688 142.773438 Z M 216.679688 142.773438 "/>
<path style=" stroke:none;fill-rule:nonzero;fill:rgb(100%,34.117648%,11.764706%);fill-opacity:1;" d="M 264.550781 179.726562 C 263.320312 179.726562 263.113281 176.035156 260.773438 177.207031 L 252.375 181.40625 L 240.617188 182.246094 C 237.5625 183.769531 233.246094 185.605469 229.695312 185.605469 L 225.917969 183.925781 C 225.917969 178.894531 222.191406 173.847656 215.839844 173.847656 C 215.839844 173.847656 215.839844 173.007812 215.839844 173.007812 C 215.839844 170.972656 211.613281 167.128906 209.121094 167.128906 C 209.121094 162.300781 214.757812 161.316406 215.839844 159.148438 C 219.777344 151.273438 235.347656 142.773438 244.394531 142.773438 C 244.394531 142.773438 248.59375 143.613281 248.59375 143.613281 C 248.59375 143.613281 249.433594 143.613281 249.433594 143.613281 C 249.433594 143.613281 255.3125 148.652344 255.3125 148.652344 C 255.3125 151.457031 256.605469 155.855469 257.832031 158.3125 C 257.832031 158.3125 256.992188 160.828125 256.992188 160.828125 C 256.992188 160.828125 262.03125 165.867188 262.03125 165.867188 C 262.03125 167.328125 258.707031 169.296875 259.511719 170.90625 C 260.363281 172.613281 264.550781 176.332031 264.550781 179.726562 Z M 264.550781 179.726562 "/>
<path style=" stroke:none;fill-rule:nonzero;fill:rgb(0.784314%,17.254902%,100%);fill-opacity:1;" d="M 293.945312 156.210938 L 297.304688 157.890625 C 297.304688 156.320312 282.1875 140.671875 282.1875 146.972656 C 282.1875 146.972656 283.867188 148.652344 283.867188 148.652344 C 286.765625 148.652344 293.105469 151.804688 293.105469 155.371094 C 293.105469 155.371094 293.945312 156.210938 293.945312 156.210938 Z M 293.945312 156.210938 "/>
<path style=" stroke:none;fill-rule:nonzero;fill:rgb(100%,34.117648%,11.764706%);fill-opacity:1;" d="M 148.652344 177.207031 C 153.246094 177.207031 159.324219 181.914062 163.351562 183.925781 C 164.195312 184.347656 178.574219 187.285156 179.726562 187.285156 C 179.726562 176.609375 179.960938 174.6875 190.226562 174.6875 C 190.753906 174.6875 190.800781 173.007812 192.324219 173.007812 C 192.324219 169.710938 199.042969 169.972656 199.042969 167.128906 C 199.042969 160.542969 187.285156 159.242188 187.285156 153.691406 C 187.285156 153.691406 185.605469 152.011719 185.605469 152.011719 C 185.605469 149.140625 179.726562 149.332031 179.726562 147.8125 C 179.726562 147.8125 178.886719 147.8125 178.886719 147.8125 C 178.886719 147.8125 177.207031 147.8125 177.207031 147.8125 C 175.84375 147.8125 172.167969 147.808594 172.167969 146.132812 C 172.167969 146.132812 166.289062 146.132812 166.289062 146.132812 C 166.289062 146.132812 165.449219 146.972656 165.449219 146.972656 C 165.449219 146.972656 164.609375 146.972656 164.609375 146.972656 C 164.609375 148.898438 153.5625 149.492188 152.011719 149.492188 C 152.011719 151.621094 156.210938 152.15625 156.210938 153.273438 C 156.210938 153.273438 153.691406 154.953125 153.691406 154.953125 C 152.808594 156.71875 155.371094 157.195312 155.371094 158.3125 C 155.371094 158.3125 152.011719 161.671875 152.011719 161.671875 C 151.152344 163.390625 152.851562 165.785156 152.851562 166.710938 C 152.851562 166.710938 149.492188 169.226562 149.492188 169.226562 C 149.492188 169.984375 152.464844 172.523438 151.171875 175.109375 C 151.171875 175.109375 148.652344 177.207031 148.652344 177.207031 Z M 148.652344 177.207031 "/>
<path style=" stroke:none;fill-rule:nonzero;fill:rgb(0%,39.215687%,0%);fill-opacity:1;" d="M 275.46875 220.039062 C 274.214844 220.039062 271.996094 222.558594 268.75 222.558594 C 264.628906 222.558594 255.707031 218.726562 253.632812 214.578125 C 251.867188 211.050781 256.992188 212.347656 256.992188 209.960938 C 256.992188 209.960938 257.832031 209.121094 257.832031 209.121094 C 257.832031 209.121094 263.710938 206.601562 263.710938 206.601562 C 268.816406 206.601562 267.90625 189.378906 266.230469 186.023438 C 265.144531 183.855469 267.753906 179.726562 264.550781 179.726562 C 264.550781 176.332031 260.363281 172.613281 259.511719 170.90625 C 258.707031 169.296875 262.03125 167.328125 262.03125 165.867188 C 262.03125 165.867188 256.992188 160.828125 256.992188 160.828125 C 256.992188 160.828125 257.832031 158.3125 257.832031 158.3125 C 256.605469 155.855469 255.3125 151.457031 255.3125 148.652344 C 257.554688 148.652344 256.027344 146.40625 256.570312 146.132812 C 256.570312 146.132812 276.308594 147.8125 276.308594 147.8125 C 276.308594 147.8125 277.148438 147.8125 277.148438 147.8125 C 279.273438 147.8125 281.445312 148.652344 283.867188 148.652344 C 286.765625 148.652344 293.105469 151.804688 293.105469 155.371094 C 293.105469 155.371094 293.945312 156.210938 293.945312 156.210938 C 293.945312 156.210938 297.304688 157.890625 297.304688 157.890625 C 297.304688 157.890625 297.304688 158.730469 297.304688 158.730469 C 297.304688 162.40625 300.664062 163.308594 300.664062 168.808594 C 300.664062 168.808594 301.503906 169.648438 301.503906 169.648438 C 301.503906 169.648438 301.503906 170.488281 301.503906 170.488281 C 301.503906 172.171875 301.257812 173.007812 303.183594 173.007812 C 303.183594 173.007812 304.023438 175.527344 304.023438 175.527344 C 304.023438 175.527344 305.703125 178.886719 305.703125 178.886719 C 305.703125 178.886719 305.703125 184.765625 305.703125 184.765625 C 304.351562 184.765625 302.34375 191.21875 302.34375 192.324219 C 302.34375 192.324219 301.503906 193.164062 301.503906 193.164062 C 301.503906 193.164062 300.664062 196.523438 300.664062 196.523438 C 300.664062 196.523438 299.824219 197.363281 299.824219 197.363281 C 299.824219 199.480469 298.914062 202.402344 296.464844 202.402344 C 296.464844 202.402344 295.625 203.242188 295.625 203.242188 C 295.625 203.242188 294.785156 204.082031 294.785156 204.082031 C 294.785156 204.082031 291.84375 202.402344 291.84375 202.402344 C 291.84375 202.402344 290.164062 204.921875 290.164062 204.921875 C 285.816406 207.097656 277.988281 210.25 277.988281 216.679688 C 277.988281 216.679688 277.148438 217.519531 277.148438 217.519531 C 275.824219 217.519531 275.46875 219 275.46875 220.039062 Z M 275.46875 220.039062 "/>
<path style=" stroke:none;fill-rule:nonzero;fill:rgb(73.725492%,12.54902%,67.843139%);fill-opacity:1;" d="M 128.496094 148.652344 L 131.855469 148.652344 C 131.855469 147.363281 128.496094 147.363281 128.496094 148.652344 Z M 128.496094 148.652344 "/>
<path style=" stroke:none;fill-rule:nonzero;fill:rgb(0%,39.215687%,0%);fill-opacity:1;" d="M 135.214844 224.238281 L 138.574219 225.078125 C 140.277344 225.078125 140.152344 224.078125 141.515625 223.398438 C 143.046875 222.632812 144.71875 224.238281 145.710938 224.238281 C 147.34375 224.238281 146.773438 220.769531 148.234375 220.039062 C 151.710938 218.300781 156.210938 215.472656 156.210938 213.320312 C 156.210938 211.925781 152.132812 210.800781 151.171875 210.800781 C 151.171875 210.800781 150.332031 209.960938 150.332031 209.960938 C 150.332031 209.960938 147.8125 209.121094 147.8125 209.121094 C 147.8125 209.121094 146.132812 208.28125 146.132812 208.28125 C 146.132812 208.28125 144.453125 206.601562 144.453125 206.601562 C 139.957031 206.601562 135.496094 199.042969 142.773438 199.042969 C 142.773438 199.042969 143.613281 198.203125 143.613281 198.203125 C 143.613281 196.566406 145.675781 197.800781 146.554688 197.363281 C 146.554688 197.363281 149.492188 193.585938 149.492188 193.585938 C 150.972656 190.621094 147.523438 191.324219 146.972656 190.226562 C 145.675781 187.628906 149.492188 188.578125 149.492188 187.703125 C 149.492188 186.09375 145.292969 183.960938 145.292969 181.828125 C 145.292969 181.601562 144.957031 179.136719 145.292969 178.46875 C 145.921875 177.207031 148.652344 179.058594 148.652344 177.207031 C 148.652344 177.207031 151.171875 175.109375 151.171875 175.109375 C 152.464844 172.523438 149.492188 169.984375 149.492188 169.226562 C 149.492188 169.226562 152.851562 166.710938 152.851562 166.710938 C 152.851562 165.785156 151.152344 163.390625 152.011719 161.671875 C 152.011719 161.671875 155.371094 158.3125 155.371094 158.3125 C 155.371094 157.195312 152.808594 156.71875 153.691406 154.953125 C 153.691406 154.953125 156.210938 153.273438 156.210938 153.273438 C 156.210938 152.15625 152.011719 151.621094 152.011719 149.492188 C 150.222656 149.492188 147.300781 148.605469 145.710938 147.8125 C 143.992188 146.953125 141.132812 148.84375 139.835938 149.492188 C 137.089844 150.863281 128.859375 149.492188 126.816406 149.492188 C 125.9375 149.492188 124.296875 149.09375 124.296875 150.332031 C 124.296875 151.570312 122.65625 151.171875 121.777344 151.171875 C 121.777344 151.171875 120.9375 152.011719 120.9375 152.011719 C 120.9375 152.011719 119.257812 152.851562 119.257812 152.851562 C 119.257812 154.617188 116.878906 157.050781 115.058594 157.050781 C 115.058594 159.234375 111.285156 163.769531 109.179688 163.769531 C 109.179688 166.046875 107.5 167.941406 107.5 168.808594 C 107.5 168.808594 107.5 170.488281 107.5 170.488281 C 107.5 173.402344 104.140625 175.535156 104.140625 178.046875 C 104.140625 178.046875 103.300781 178.886719 103.300781 178.886719 C 103.300781 182.5 103.300781 186.964844 103.300781 190.644531 C 103.300781 190.644531 104.140625 191.484375 104.140625 191.484375 C 104.140625 193.679688 104.875 197.574219 105.820312 199.460938 C 105.820312 199.460938 108.339844 201.5625 108.339844 201.5625 C 110.414062 201.5625 111.699219 204.078125 111.699219 205.761719 C 112.578125 205.761719 114.21875 205.363281 114.21875 206.601562 C 114.21875 206.601562 117.15625 205.761719 117.15625 205.761719 C 119.195312 206.78125 135.214844 221.28125 135.214844 224.238281 Z M 135.214844 224.238281 "/>
<path style=" stroke:none;fill-rule:nonzero;fill:rgb(27.058825%,92.156863%,79.215688%);fill-opacity:1;" d="M 197.363281 151.171875 C 197.363281 156.277344 210.800781 153.589844 210.800781 151.59375 C 210.800781 150.132812 206.386719 152.011719 206.179688 152.011719 C 203.109375 152.011719 199.976562 151.171875 197.363281 151.171875 Z M 197.363281 151.171875 "/>
<path style=" stroke:none;fill-rule:nonzero;fill:rgb(0.784314%,17.254902%,100%);fill-opacity:1;" d="M 304.023438 195.683594 L 304.023438 196.523438 C 306.953125 196.523438 308.222656 188.308594 308.222656 186.023438 C 308.222656 175.785156 306.195312 173.574219 302.34375 165.867188 C 301.59375 164.371094 299.652344 158.730469 297.304688 158.730469 C 297.304688 162.40625 300.664062 163.308594 300.664062 168.808594 C 300.664062 168.808594 301.503906 169.648438 301.503906 169.648438 C 301.503906 169.648438 301.503906 170.488281 301.503906 170.488281 C 302.828125 170.488281 303.183594 171.96875 303.183594 173.007812 C 303.183594 173.007812 304.023438 175.527344 304.023438 175.527344 C 305.792969 175.527344 305.703125 177.65625 305.703125 178.886719 C 305.703125 178.886719 305.703125 184.765625 305.703125 184.765625 C 305.703125 188.886719 304.023438 191.890625 304.023438 195.683594 Z M 304.023438 195.683594 "/>
<path style=" stroke:none;fill-rule:nonzero;fill:rgb(0.784314%,17.254902%,100%);fill-opacity:1;" d="M 332.578125 169.648438 L 333.417969 169.648438 C 333.417969 169.648438 333.417969 167.128906 333.417969 167.128906 C 333.417969 167.128906 333.417969 166.289062 333.417969 166.289062 C 333.417969 166.289062 333.417969 165.449219 333.417969 165.449219 C 333.417969 165.449219 333.417969 161.25 333.417969 161.25 C 331.644531 161.25 332.578125 167.796875 332.578125 168.808594 C 332.578125 168.808594 332.578125 169.648438 332.578125 169.648438 Z M 332.578125 169.648438 "/>
<path style=" stroke:none;fill-rule:nonzero;fill:rgb(0.784314%,17.254902%,100%);fill-opacity:1;" d="M 78.105469 166.289062 L 80.625 166.289062 C 80.625 166.289062 81.464844 164.609375 81.464844 164.609375 C 81.464844 164.609375 79.785156 162.929688 79.785156 162.929688 C 79.785156 162.929688 78.105469 166.289062 78.105469 166.289062 Z M 78.105469 166.289062 "/>
<path style=" stroke:none;fill-rule:nonzero;fill:rgb(100%,0%,85.490197%);fill-opacity:1;" d="M 209.121094 173.847656 L 215 173.847656 C 215 173.847656 215.839844 173.007812 215.839844 173.007812 C 215.839844 170.972656 211.613281 167.128906 209.121094 167.128906 C 209.121094 167.128906 208.28125 167.128906 208.28125 167.128906 C 208.28125 168.304688 206.601562 168.304688 206.601562 167.128906 C 204.023438 167.128906 202.097656 167.128906 199.042969 167.128906 C 199.042969 169.972656 192.324219 169.710938 192.324219 173.007812 C 192.324219 174.925781 198.609375 173.007812 199.882812 173.007812 C 199.882812 173.007812 206.601562 173.847656 206.601562 173.847656 C 207.640625 173.847656 209.121094 172.574219 209.121094 173.847656 Z M 209.121094 173.847656 "/>
<path style=" stroke:none;fill-rule:nonzero;fill:rgb(0.784314%,17.254902%,100%);fill-opacity:1;" d="M 101.621094 194.84375 L 101.621094 195.683594 C 101.621094 200.171875 97.421875 192.332031 97.421875 190.644531 C 97.421875 190.644531 97.421875 189.804688 97.421875 189.804688 C 98.753906 189.804688 98.753906 184.765625 97.421875 184.765625 C 97.421875 183.515625 100.515625 178.046875 99.101562 178.046875 C 99.101562 178.046875 99.101562 177.207031 99.101562 177.207031 C 99.101562 177.207031 99.941406 176.367188 99.941406 176.367188 C 99.941406 176.367188 105.820312 167.96875 105.820312 167.96875 C 105.820312 167.96875 107.5 168.808594 107.5 168.808594 C 107.5 168.808594 107.5 170.488281 107.5 170.488281 C 105.363281 170.488281 100.78125 180.394531 100.78125 183.085938 C 99.535156 183.085938 99.535156 185.605469 100.78125 185.605469 C 100.78125 185.605469 100.78125 194.003906 100.78125 194.003906 C 100.78125 194.003906 101.621094 194.84375 101.621094 194.84375 Z M 101.621094 194.84375 "/>
<path style=" stroke:none;fill-rule:nonzero;fill:rgb(14.901961%,49.411765%,100%);fill-opacity:1;" d="M 120.097656 225.078125 L 121.777344 225.078125 C 121.777344 225.078125 120.097656 222.558594 120.097656 222.558594 C 120.097656 222.558594 120.097656 221.71875 120.097656 221.71875 C 120.097656 221.71875 119.257812 221.71875 119.257812 221.71875 C 119.257812 221.71875 118.417969 220.878906 118.417969 220.878906 C 118.417969 220.878906 117.578125 219.199219 117.578125 219.199219 C 117.578125 219.199219 115.898438 217.101562 115.898438 217.101562 C 115.417969 216.136719 116.792969 213.320312 115.058594 213.320312 C 115.058594 213.320312 114.21875 211.640625 114.21875 211.640625 C 114.21875 211.640625 113.378906 209.960938 113.378906 209.960938 C 113.378906 209.960938 112.539062 208.28125 112.539062 208.28125 C 111.300781 208.28125 111.699219 206.640625 111.699219 205.761719 C 111.699219 205.761719 108.339844 201.5625 108.339844 201.5625 C 108.339844 201.5625 105.820312 199.460938 105.820312 199.460938 C 104.875 197.574219 104.140625 193.679688 104.140625 191.484375 C 104.140625 191.484375 103.300781 190.644531 103.300781 190.644531 C 103.300781 186.964844 103.300781 182.5 103.300781 178.886719 C 103.300781 178.886719 104.140625 178.046875 104.140625 178.046875 C 104.140625 175.535156 107.5 173.402344 107.5 170.488281 C 105.363281 170.488281 100.78125 180.394531 100.78125 183.085938 C 100.78125 183.085938 100.78125 185.605469 100.78125 185.605469 C 100.78125 185.605469 100.78125 194.003906 100.78125 194.003906 C 100.78125 194.003906 101.621094 194.84375 101.621094 194.84375 C 101.621094 194.84375 101.621094 195.683594 101.621094 195.683594 C 103.847656 195.683594 102.46875 200.097656 103.71875 200.722656 C 106.246094 201.984375 111.699219 210.042969 111.699219 214.160156 C 111.699219 215.46875 114.398438 219.976562 115.058594 221.296875 C 115.621094 222.421875 116.738281 219.773438 116.738281 221.71875 C 118.175781 221.71875 119.257812 223.878906 119.257812 225.078125 C 119.257812 225.078125 120.097656 225.078125 120.097656 225.078125 Z M 120.097656 225.078125 "/>
<path style=" stroke:none;fill-rule:nonzero;fill:rgb(2.745098%,100%,34.901962%);fill-opacity:1;" d="M 205.761719 223.398438 L 204.921875 225.078125 C 203.5625 225.078125 202.402344 221.359375 202.402344 219.617188 C 202.402344 214.519531 205.515625 183.015625 203.242188 178.46875 C 202.359375 176.703125 201.5625 176.875 201.5625 174.6875 C 201.5625 174.6875 199.882812 173.007812 199.882812 173.007812 C 198.609375 173.007812 192.324219 174.925781 192.324219 173.007812 C 190.800781 173.007812 190.753906 174.6875 190.226562 174.6875 C 179.960938 174.6875 179.726562 176.609375 179.726562 187.285156 C 180.855469 187.285156 179.730469 192.75 180.566406 194.421875 C 181.617188 196.523438 186.03125 199.882812 188.125 199.882812 C 189.011719 199.882812 190.667969 200.722656 188.964844 200.722656 C 188.964844 201.964844 190.644531 201.382812 190.644531 203.242188 C 194.578125 203.242188 193.375 213.003906 191.0625 214.160156 C 191.0625 214.160156 187.285156 213.320312 187.285156 213.320312 C 187.285156 223.101562 194.914062 234.316406 205.34375 234.316406 C 207.71875 234.316406 209.203125 231.964844 211.21875 230.957031 C 211.21875 230.957031 215.839844 229.695312 215.839844 229.695312 C 219.417969 222.542969 220.878906 223.597656 220.878906 215.421875 C 220.878906 214.550781 223.273438 210.800781 220.039062 210.800781 C 220.039062 210.800781 219.199219 212.480469 219.199219 212.480469 C 219.199219 215.457031 216.679688 213.730469 216.679688 211.640625 C 216.679688 207.28125 211.972656 201.5625 221.71875 201.5625 C 221.71875 200.382812 225.253906 195.753906 225.917969 194.421875 C 227.394531 191.46875 225.917969 186.613281 225.917969 183.925781 C 225.917969 178.894531 222.191406 173.847656 215.839844 173.847656 C 215.839844 173.847656 215 173.847656 215 173.847656 C 215 173.847656 209.121094 173.847656 209.121094 173.847656 C 209.121094 173.847656 206.601562 177.207031 206.601562 177.207031 C 205.101562 177.207031 205.761719 186.523438 205.761719 188.125 C 205.761719 188.125 205.761719 223.398438 205.761719 223.398438 Z M 205.761719 223.398438 "/>
<path style=" stroke:none;fill-rule:nonzero;fill:rgb(0.784314%,17.254902%,100%);fill-opacity:1;" d="M 205.761719 223.398438 L 204.921875 225.078125 C 203.5625 225.078125 202.402344 221.359375 202.402344 219.617188 C 202.402344 214.519531 205.515625 183.015625 203.242188 178.46875 C 202.359375 176.703125 201.5625 176.875 201.5625 174.6875 C 204.4375 174.6875 206.601562 173.828125 206.601562 177.207031 C 205.101562 177.207031 205.761719 186.523438 205.761719 188.125 C 205.761719 188.125 205.761719 223.398438 205.761719 223.398438 Z M 205.761719 223.398438 "/>
<path style=" stroke:none;fill-rule:nonzero;fill:rgb(100%,43.137255%,0%);fill-opacity:1;" d="M 342.65625 175.527344 C 342.65625 177.148438 344.277344 175.527344 342.65625 175.527344 Z M 342.65625 175.527344 "/>
<path style=" stroke:none;fill-rule:nonzero;fill:rgb(60.000002%,32.549021%,100%);fill-opacity:1;" d="M 240.195312 253.632812 C 240.195312 252.21875 236.167969 245.949219 234.734375 245.234375 C 233.191406 244.460938 230.0625 248.066406 228.4375 244.8125 C 225.230469 238.402344 220.210938 243.851562 217.9375 242.714844 L 214.578125 239.355469 C 210.328125 237.230469 193.867188 238.792969 189.382812 241.035156 C 187.46875 241.992188 188.988281 244.59375 187.703125 245.234375 L 186.023438 244.394531 L 182.664062 246.914062 L 175.945312 247.753906 C 174.683594 248.386719 168.808594 258.515625 168.808594 260.351562 C 166.496094 260.351562 160.410156 253.359375 160.410156 251.113281 C 160.410156 251.113281 161.25 246.492188 161.25 246.492188 C 160.339844 244.671875 153.515625 238.515625 151.171875 238.515625 C 151.171875 233.371094 138.574219 227.398438 138.574219 225.078125 C 140.277344 225.078125 140.152344 224.078125 141.515625 223.398438 C 143.046875 222.632812 144.71875 224.238281 145.710938 224.238281 C 147.34375 224.238281 146.773438 220.769531 148.234375 220.039062 C 151.710938 218.300781 156.210938 215.472656 156.210938 213.320312 C 159.664062 213.320312 166.121094 215.125 169.226562 216.679688 C 173.054688 218.59375 176.996094 220.5625 180.984375 222.558594 C 180.984375 222.558594 184.765625 219.617188 184.765625 219.617188 C 184.765625 216.453125 175.941406 215.835938 174.265625 215 C 169.261719 212.496094 165.894531 209.972656 160.828125 207.441406 C 157.546875 205.800781 153.347656 205.800781 149.914062 204.082031 C 147.664062 202.957031 142.773438 202.679688 142.773438 199.042969 C 142.773438 199.042969 143.613281 198.203125 143.613281 198.203125 C 143.613281 196.566406 145.675781 197.800781 146.554688 197.363281 C 146.554688 197.363281 149.492188 193.585938 149.492188 193.585938 C 150.972656 190.621094 147.523438 191.324219 146.972656 190.226562 C 145.675781 187.628906 149.492188 188.578125 149.492188 187.703125 C 149.492188 186.09375 145.292969 183.960938 145.292969 181.828125 C 145.292969 181.601562 144.957031 179.136719 145.292969 178.46875 C 145.921875 177.207031 148.652344 179.058594 148.652344 177.207031 C 153.246094 177.207031 159.324219 181.914062 163.351562 183.925781 C 164.195312 184.347656 178.574219 187.285156 179.726562 187.285156 C 180.855469 187.285156 179.730469 192.75 180.566406 194.421875 C 181.617188 196.523438 186.03125 199.882812 188.125 199.882812 C 188.125 199.882812 188.964844 200.722656 188.964844 200.722656 C 188.964844 201.964844 190.644531 201.382812 190.644531 203.242188 C 190.644531 203.242188 188.546875 201.5625 188.546875 201.5625 C 183.296875 201.5625 187.285156 210.828125 187.285156 213.320312 C 187.285156 223.101562 194.914062 234.316406 205.34375 234.316406 C 207.71875 234.316406 209.203125 231.964844 211.21875 230.957031 C 211.21875 230.957031 215.839844 229.695312 215.839844 229.695312 C 219.417969 222.542969 220.878906 223.597656 220.878906 215.421875 C 220.878906 214.550781 223.273438 210.800781 220.039062 210.800781 C 220.039062 210.800781 222.558594 207.023438 222.558594 207.023438 C 222.558594 207.023438 221.71875 201.5625 221.71875 201.5625 C 221.71875 200.382812 225.253906 195.753906 225.917969 194.421875 C 227.394531 191.46875 225.917969 186.613281 225.917969 183.925781 C 225.917969 183.925781 229.695312 185.605469 229.695312 185.605469 C 233.246094 185.605469 237.5625 183.769531 240.617188 182.246094 C 240.617188 182.246094 252.375 181.40625 252.375 181.40625 C 252.375 181.40625 260.773438 177.207031 260.773438 177.207031 C 263.113281 176.035156 263.320312 179.726562 264.550781 179.726562 C 267.753906 179.726562 265.144531 183.855469 266.230469 186.023438 C 267.90625 189.378906 268.816406 206.601562 263.710938 206.601562 C 263.710938 200.34375 243.984375 208.277344 240.617188 209.960938 C 240.617188 209.960938 238.09375 213.320312 238.09375 213.320312 C 237.058594 213.839844 229.308594 214.644531 230.117188 216.257812 C 230.117188 216.257812 236.414062 216.679688 236.414062 216.679688 C 245.148438 221.046875 248.582031 209.960938 256.992188 209.960938 C 256.992188 212.347656 251.867188 211.050781 253.632812 214.578125 C 255.707031 218.726562 264.628906 222.558594 268.75 222.558594 C 268.75 226.902344 253.632812 234.957031 253.632812 241.875 C 248.75 241.875 245.234375 244.34375 245.234375 249.433594 C 245.234375 250.882812 241.40625 253.632812 240.195312 253.632812 Z M 240.195312 253.632812 "/>
<path style=" stroke:none;fill-rule:nonzero;fill:rgb(0%,100%,11.372549%);fill-opacity:1;" d="M 97.421875 189.804688 L 97.421875 190.644531 C 97.421875 190.644531 95.742188 189.804688 95.742188 189.804688 C 95.742188 187.363281 93.425781 178.046875 99.101562 178.046875 C 100.515625 178.046875 97.421875 183.515625 97.421875 184.765625 C 97.421875 184.765625 97.421875 189.804688 97.421875 189.804688 Z M 97.421875 189.804688 "/>
<path style=" stroke:none;fill-rule:nonzero;fill:rgb(14.901961%,49.411765%,100%);fill-opacity:1;" d="M 288.066406 218.359375 L 288.90625 219.199219 C 288.90625 219.199219 290.585938 217.519531 290.585938 217.519531 C 290.585938 217.519531 291.425781 216.679688 291.425781 216.679688 C 291.425781 216.679688 292.265625 215.839844 292.265625 215.839844 C 292.265625 215.839844 293.945312 214.160156 293.945312 214.160156 C 293.945312 214.160156 296.464844 210.800781 296.464844 210.800781 C 296.464844 210.800781 297.304688 209.960938 297.304688 209.960938 C 297.304688 209.960938 298.984375 205.761719 298.984375 205.761719 C 298.984375 205.761719 299.824219 204.921875 299.824219 204.921875 C 299.824219 204.921875 299.824219 204.082031 299.824219 204.082031 C 299.824219 204.082031 300.664062 203.242188 300.664062 203.242188 C 300.664062 202.042969 301.746094 199.882812 303.183594 199.882812 C 303.183594 199.882812 303.183594 198.203125 303.183594 198.203125 C 303.183594 197.324219 302.785156 195.683594 304.023438 195.683594 C 304.023438 191.890625 305.703125 188.886719 305.703125 184.765625 C 304.351562 184.765625 302.34375 191.21875 302.34375 192.324219 C 302.34375 192.324219 301.503906 193.164062 301.503906 193.164062 C 301.503906 193.164062 300.664062 196.523438 300.664062 196.523438 C 300.664062 196.523438 299.824219 197.363281 299.824219 197.363281 C 299.824219 199.480469 298.914062 202.402344 296.464844 202.402344 C 296.464844 202.402344 295.625 203.242188 295.625 203.242188 C 295.625 203.242188 294.785156 204.921875 294.785156 204.921875 C 294.785156 210.574219 288.066406 213.304688 288.066406 218.359375 Z M 288.066406 218.359375 "/>
<path style=" stroke:none;fill-rule:nonzero;fill:rgb(86.666667%,39.215687%,47.450981%);fill-opacity:1;" d="M 337.617188 220.878906 L 339.71875 223.398438 C 341.371094 224.226562 346.40625 226.757812 348.117188 226.757812 L 349.796875 225.078125 L 365.332031 224.238281 C 365.332031 224.238281 364.492188 218.78125 364.492188 218.78125 C 365.242188 217.28125 373.339844 215.359375 374.570312 212.898438 C 376.371094 209.300781 374.570312 202.410156 374.570312 199.042969 C 374.570312 199.042969 373.730469 197.78125 373.730469 197.78125 C 371.234375 192.789062 374.421875 200.4375 371.632812 199.042969 C 371.632812 199.042969 368.691406 196.945312 368.691406 196.945312 C 368.691406 196.945312 368.273438 194.84375 368.273438 194.84375 C 368.273438 194.84375 367.429688 197.363281 367.429688 197.363281 C 365.324219 198.417969 363.238281 194.84375 361.554688 194.84375 C 360.390625 194.84375 358.210938 195.691406 356.515625 194.84375 C 356.515625 194.84375 355.671875 191.484375 355.671875 191.484375 C 355.1875 191.484375 355.21875 195.195312 354.414062 193.585938 C 353.796875 192.347656 354.738281 189.757812 353.15625 188.964844 C 350.824219 187.800781 352.964844 193.488281 350.632812 192.324219 C 348.609375 191.3125 346.683594 188.125 343.496094 188.125 C 343.496094 199.101562 337.617188 210.046875 337.617188 220.878906 Z M 337.617188 220.878906 "/>
<path style=" stroke:none;fill-rule:nonzero;fill:rgb(86.666667%,39.215687%,47.450981%);fill-opacity:1;" d="M 72.226562 224.238281 C 69.339844 224.238281 68.253906 226.433594 65.929688 227.597656 L 60.890625 226.757812 L 58.367188 230.117188 L 57.53125 228.4375 C 55.808594 227.578125 52.949219 229.46875 51.648438 230.117188 C 48.199219 231.84375 43.988281 228.4375 41.152344 228.4375 C 41.152344 227.835938 42.058594 221.433594 41.992188 221.296875 C 41.527344 220.367188 32.949219 218.332031 31.074219 214.578125 C 29.398438 211.226562 30.234375 201.785156 30.234375 199.042969 C 34.535156 199.042969 46.394531 197.472656 49.96875 195.683594 C 49.96875 195.683594 53.328125 191.484375 53.328125 191.484375 C 55.082031 190.609375 54.210938 193.605469 55.007812 194.003906 C 55.007812 194.003906 58.367188 192.324219 58.367188 192.324219 C 58.367188 192.324219 59.210938 194.003906 59.210938 194.003906 C 59.210938 194.003906 60.890625 191.484375 60.890625 191.484375 C 60.890625 191.484375 66.347656 188.964844 66.347656 188.964844 C 66.347656 191.574219 68.328125 211.824219 69.707031 214.578125 C 69.890625 214.945312 73.90625 216.578125 73.90625 222.558594 C 73.90625 222.558594 72.226562 224.238281 72.226562 224.238281 Z M 72.226562 224.238281 "/>
<path style=" stroke:none;fill-rule:nonzero;fill:rgb(83.137256%,100%,0%);fill-opacity:1;" d="M 151.171875 210.800781 C 152.132812 210.800781 156.210938 211.925781 156.210938 213.320312 C 159.664062 213.320312 166.121094 215.125 169.226562 216.679688 C 173.054688 218.59375 176.996094 220.5625 180.984375 222.558594 C 180.984375 222.558594 184.765625 219.617188 184.765625 219.617188 C 184.765625 216.453125 175.941406 215.835938 174.265625 215 C 169.261719 212.496094 165.894531 209.972656 160.828125 207.441406 C 157.546875 205.800781 153.347656 205.800781 149.914062 204.082031 C 147.664062 202.957031 142.773438 202.679688 142.773438 199.042969 C 135.496094 199.042969 139.957031 206.601562 144.453125 206.601562 C 144.453125 206.601562 146.132812 207.441406 146.132812 207.441406 C 146.132812 207.441406 147.8125 209.121094 147.8125 209.121094 C 147.8125 209.121094 150.332031 209.960938 150.332031 209.960938 C 150.332031 209.960938 151.171875 210.800781 151.171875 210.800781 Z M 151.171875 210.800781 "/>
<path style=" stroke:none;fill-rule:nonzero;fill:rgb(0%,39.215687%,0%);fill-opacity:1;" d="M 188.125 199.882812 C 189.011719 199.882812 190.667969 200.722656 188.964844 200.722656 C 188.964844 200.722656 188.125 199.882812 188.125 199.882812 Z M 188.125 199.882812 "/>
<path style=" stroke:none;fill-rule:nonzero;fill:rgb(0.784314%,17.254902%,100%);fill-opacity:1;" d="M 303.183594 199.882812 C 301.746094 199.882812 300.664062 202.042969 300.664062 203.242188 C 302.101562 203.242188 303.183594 201.082031 303.183594 199.882812 Z M 303.183594 199.882812 "/>
<path style=" stroke:none;fill-rule:nonzero;fill:rgb(95.686275%,26.274511%,27.058825%);fill-opacity:1;" d="M 216.679688 211.640625 L 219.199219 212.480469 C 219.199219 212.480469 220.039062 210.800781 220.039062 210.800781 C 220.039062 210.800781 222.558594 207.023438 222.558594 207.023438 C 222.558594 207.023438 221.71875 201.5625 221.71875 201.5625 C 211.972656 201.5625 216.679688 207.28125 216.679688 211.640625 Z M 216.679688 211.640625 "/>
<path style=" stroke:none;fill-rule:nonzero;fill:rgb(95.686275%,26.274511%,27.058825%);fill-opacity:1;" d="M 190.644531 203.242188 C 194.578125 203.242188 193.375 213.003906 191.0625 214.160156 L 187.285156 213.320312 C 187.285156 210.828125 183.296875 201.5625 188.546875 201.5625 C 188.546875 201.5625 190.644531 203.242188 190.644531 203.242188 Z M 190.644531 203.242188 "/>
<path style=" stroke:none;fill-rule:nonzero;fill:rgb(100%,20.392157%,15.294118%);fill-opacity:1;" d="M 263.710938 248.59375 L 264.550781 248.59375 C 264.550781 248.59375 267.070312 246.914062 267.070312 246.914062 C 267.070312 246.914062 267.910156 246.074219 267.910156 246.074219 C 267.910156 246.074219 269.589844 244.394531 269.589844 244.394531 C 269.589844 244.394531 270.429688 242.714844 270.429688 242.714844 C 270.429688 242.714844 271.269531 241.875 271.269531 241.875 C 271.269531 241.875 272.109375 241.035156 272.109375 241.035156 C 272.109375 241.035156 272.949219 240.195312 272.949219 240.195312 C 272.949219 239.15625 273.304688 237.675781 274.628906 237.675781 C 274.628906 237.675781 275.46875 236.835938 275.46875 236.835938 C 275.46875 236.835938 275.46875 235.996094 275.46875 235.996094 C 275.46875 235.996094 276.308594 235.15625 276.308594 235.15625 C 276.308594 235.15625 277.988281 233.476562 277.988281 233.476562 C 277.988281 233.476562 278.828125 232.636719 278.828125 232.636719 C 278.828125 232.636719 279.667969 230.117188 279.667969 230.117188 C 279.667969 230.117188 280.507812 229.277344 280.507812 229.277344 C 280.507812 229.277344 282.1875 226.757812 282.1875 226.757812 C 282.1875 226.757812 283.027344 225.917969 283.027344 225.917969 C 283.027344 225.917969 284.707031 224.238281 284.707031 224.238281 C 284.707031 224.238281 285.546875 223.398438 285.546875 223.398438 C 285.546875 223.398438 286.386719 222.558594 286.386719 222.558594 C 286.386719 222.558594 287.226562 221.71875 287.226562 221.71875 C 287.226562 220.757812 286.742188 218.359375 288.066406 218.359375 C 288.066406 213.304688 294.785156 210.574219 294.785156 204.921875 C 294.785156 204.921875 294.785156 204.082031 294.785156 204.082031 C 294.785156 204.082031 291.84375 202.402344 291.84375 202.402344 C 291.84375 202.402344 290.164062 204.921875 290.164062 204.921875 C 285.816406 207.097656 277.988281 210.25 277.988281 216.679688 C 277.988281 216.679688 277.148438 217.519531 277.148438 217.519531 C 275.824219 217.519531 275.46875 219 275.46875 220.039062 C 275.46875 227.394531 262 241.875 253.632812 241.875 C 248.75 241.875 245.234375 244.34375 245.234375 249.433594 C 246.523438 249.433594 249.703125 254.128906 252.375 252.792969 C 255.15625 251.402344 260.597656 248.59375 263.710938 248.59375 Z M 263.710938 248.59375 "/>
<path style=" stroke:none;fill-rule:nonzero;fill:rgb(83.137256%,100%,0%);fill-opacity:1;" d="M 257.832031 209.121094 L 256.992188 209.960938 C 248.582031 209.960938 245.148438 221.046875 236.414062 216.679688 C 236.414062 216.679688 230.117188 216.257812 230.117188 216.257812 C 229.308594 214.644531 237.058594 213.839844 238.09375 213.320312 C 238.09375 213.320312 240.617188 209.960938 240.617188 209.960938 C 243.984375 208.277344 263.710938 200.34375 263.710938 206.601562 C 263.710938 206.601562 257.832031 209.121094 257.832031 209.121094 Z M 257.832031 209.121094 "/>
<path style=" stroke:none;fill-rule:nonzero;fill:rgb(0.784314%,17.254902%,100%);fill-opacity:1;" d="M 300.664062 203.242188 L 299.824219 204.082031 C 299.824219 204.082031 300.664062 203.242188 300.664062 203.242188 Z M 300.664062 203.242188 "/>
<path style=" stroke:none;fill-rule:nonzero;fill:rgb(98.039216%,66.666669%,25.098041%);fill-opacity:1;" d="M 117.578125 219.199219 L 118.417969 219.199219 C 118.417969 213.941406 114.21875 211.710938 114.21875 206.601562 C 114.21875 205.363281 112.578125 205.761719 111.699219 205.761719 C 111.699219 206.640625 111.300781 208.28125 112.539062 208.28125 C 112.539062 208.28125 113.378906 209.960938 113.378906 209.960938 C 113.378906 209.960938 114.21875 211.640625 114.21875 211.640625 C 114.21875 211.640625 115.058594 213.320312 115.058594 213.320312 C 116.792969 213.320312 115.417969 216.136719 115.898438 217.101562 C 115.898438 217.101562 117.578125 219.199219 117.578125 219.199219 Z M 117.578125 219.199219 "/>
<path style=" stroke:none;fill-rule:nonzero;fill:rgb(100%,20.392157%,15.294118%);fill-opacity:1;" d="M 160.410156 251.113281 L 155.789062 252.792969 C 154.820312 253.277344 146.195312 251.953125 145.292969 251.953125 C 145.292969 251.953125 141.933594 248.59375 141.933594 248.59375 C 141.933594 248.59375 133.535156 240.195312 133.535156 240.195312 C 133.535156 240.195312 133.535156 239.355469 133.535156 239.355469 C 133.535156 239.355469 132.695312 238.515625 132.695312 238.515625 C 132.695312 238.515625 128.496094 233.476562 128.496094 233.476562 C 128.496094 232.738281 122.035156 225.078125 121.777344 225.078125 C 121.777344 225.078125 120.097656 222.558594 120.097656 222.558594 C 121.09375 222.558594 121.09375 221.71875 120.097656 221.71875 C 120.097656 221.71875 119.257812 220.878906 119.257812 220.878906 C 119.257812 220.878906 119.257812 220.039062 119.257812 220.039062 C 119.257812 220.039062 118.417969 219.199219 118.417969 219.199219 C 118.417969 213.941406 114.21875 211.710938 114.21875 206.601562 C 114.21875 206.601562 117.15625 205.761719 117.15625 205.761719 C 119.195312 206.78125 135.214844 221.28125 135.214844 224.238281 C 135.214844 224.238281 136.894531 226.335938 136.894531 226.335938 C 136.894531 226.335938 136.054688 230.539062 136.054688 230.539062 C 136.777344 231.984375 142.9375 238.515625 144.03125 238.515625 C 144.03125 238.515625 146.554688 236.835938 146.554688 236.835938 C 146.554688 236.835938 149.070312 240.195312 149.070312 240.195312 C 150.488281 240.902344 148.976562 238.515625 151.171875 238.515625 C 153.515625 238.515625 160.339844 244.671875 161.25 246.492188 C 161.25 246.492188 160.410156 251.113281 160.410156 251.113281 Z M 160.410156 251.113281 "/>
<path style=" stroke:none;fill-rule:nonzero;fill:rgb(60.000002%,32.549021%,100%);fill-opacity:1;" d="M 146.132812 208.28125 L 147.8125 209.121094 C 147.8125 209.121094 146.132812 207.441406 146.132812 207.441406 C 146.132812 207.441406 146.132812 208.28125 146.132812 208.28125 Z M 146.132812 208.28125 "/>
<path style=" stroke:none;fill-rule:nonzero;fill:rgb(60.000002%,32.549021%,100%);fill-opacity:1;" d="M 257.832031 209.121094 L 256.992188 209.960938 C 256.992188 209.960938 257.832031 209.121094 257.832031 209.121094 Z M 257.832031 209.121094 "/>
<path style=" stroke:none;fill-rule:nonzero;fill:rgb(60.000002%,32.549021%,100%);fill-opacity:1;" d="M 150.332031 209.960938 L 151.171875 210.800781 C 151.171875 210.800781 150.332031 209.960938 150.332031 209.960938 Z M 150.332031 209.960938 "/>
<path style=" stroke:none;fill-rule:nonzero;fill:rgb(60.000002%,32.549021%,100%);fill-opacity:1;" d="M 216.679688 211.640625 L 219.199219 212.480469 C 219.199219 215.457031 216.679688 213.730469 216.679688 211.640625 Z M 216.679688 211.640625 "/>
<path style=" stroke:none;fill-rule:nonzero;fill:rgb(98.039216%,66.666669%,25.098041%);fill-opacity:1;" d="M 119.257812 220.878906 L 119.257812 221.71875 C 119.257812 221.71875 118.417969 220.878906 118.417969 220.878906 C 118.417969 220.878906 119.257812 220.039062 119.257812 220.039062 C 119.257812 220.039062 119.257812 220.878906 119.257812 220.878906 Z M 119.257812 220.878906 "/>
<path style=" stroke:none;fill-rule:nonzero;fill:rgb(100%,72.941178%,0%);fill-opacity:1;" d="M 268.75 222.558594 C 268.75 226.902344 253.632812 234.957031 253.632812 241.875 C 262 241.875 275.46875 227.394531 275.46875 220.039062 C 274.214844 220.039062 271.996094 222.558594 268.75 222.558594 Z M 268.75 222.558594 "/>
<path style=" stroke:none;fill-rule:nonzero;fill:rgb(18.039216%,54.509807%,34.117648%);fill-opacity:1;" d="M 326.699219 230.957031 C 327.238281 230.957031 344.699219 238.515625 346.4375 238.515625 C 351.800781 238.515625 358.277344 238.515625 363.652344 238.515625 C 369.445312 238.515625 370.730469 224.238281 365.332031 224.238281 C 365.332031 224.238281 349.796875 225.078125 349.796875 225.078125 C 349.796875 225.078125 348.117188 226.757812 348.117188 226.757812 C 346.40625 226.757812 341.371094 224.226562 339.71875 223.398438 C 339.71875 223.398438 337.617188 220.878906 337.617188 220.878906 C 335.804688 220.878906 337.566406 224.238281 336.359375 224.238281 C 336.359375 224.238281 335.515625 222.558594 335.515625 222.558594 C 335.515625 222.558594 334.679688 225.078125 334.679688 225.078125 C 332.890625 225.972656 333.417969 221.722656 333.417969 220.878906 C 332.824219 220.878906 326.699219 230.304688 326.699219 230.957031 Z M 326.699219 230.957031 "/>
<path style=" stroke:none;fill-rule:nonzero;fill:rgb(98.039216%,66.666669%,25.098041%);fill-opacity:1;" d="M 120.097656 221.71875 C 121.09375 221.71875 121.09375 222.558594 120.097656 222.558594 C 120.097656 222.558594 120.097656 221.71875 120.097656 221.71875 Z M 120.097656 221.71875 "/>
<path style=" stroke:none;fill-rule:nonzero;fill:rgb(60.000002%,32.549021%,100%);fill-opacity:1;" d="M 205.761719 223.398438 L 204.921875 225.078125 C 204.921875 225.078125 205.761719 223.398438 205.761719 223.398438 Z M 205.761719 223.398438 "/>
<path style=" stroke:none;fill-rule:nonzero;fill:rgb(18.039216%,54.509807%,34.117648%);fill-opacity:1;" d="M 81.464844 236.835938 C 77.027344 236.835938 71.390625 238.304688 67.609375 240.195312 L 60.890625 239.355469 L 60.046875 241.035156 L 57.53125 238.515625 L 54.171875 241.875 L 52.492188 239.355469 L 43.671875 240.195312 C 37.953125 240.195312 34.746094 228.4375 41.152344 228.4375 C 43.988281 228.4375 48.199219 231.84375 51.648438 230.117188 C 52.949219 229.46875 55.808594 227.578125 57.53125 228.4375 C 57.53125 228.4375 58.367188 230.117188 58.367188 230.117188 C 58.367188 230.117188 60.890625 226.757812 60.890625 226.757812 C 60.890625 226.757812 65.929688 227.597656 65.929688 227.597656 C 68.253906 226.433594 69.339844 224.238281 72.226562 224.238281 C 72.226562 224.238281 74.746094 224.238281 74.746094 224.238281 C 76.707031 224.238281 75.871094 227.75 76.425781 228.859375 C 77.546875 231.101562 81.464844 233.402344 81.464844 236.835938 Z M 81.464844 236.835938 "/>
<path style=" stroke:none;fill-rule:nonzero;fill:rgb(100%,72.941178%,0%);fill-opacity:1;" d="M 138.574219 225.078125 C 138.574219 227.398438 151.171875 233.371094 151.171875 238.515625 C 148.976562 238.515625 150.488281 240.902344 149.070312 240.195312 C 149.070312 240.195312 146.554688 236.835938 146.554688 236.835938 C 146.554688 236.835938 144.03125 238.515625 144.03125 238.515625 C 142.9375 238.515625 136.777344 231.984375 136.054688 230.539062 C 136.054688 230.539062 136.894531 226.335938 136.894531 226.335938 C 136.894531 226.335938 135.214844 224.238281 135.214844 224.238281 C 135.214844 224.238281 138.574219 225.078125 138.574219 225.078125 Z M 138.574219 225.078125 "/>
<path style=" stroke:none;fill-rule:nonzero;fill:rgb(1.176471%,75.686276%,17.647059%);fill-opacity:1;" d="M 299.824219 282.1875 L 303.183594 283.867188 C 306.347656 283.867188 308.574219 285.09375 311.164062 286.386719 C 311.164062 286.386719 333.835938 286.386719 333.835938 286.386719 C 333.835938 286.386719 341.398438 283.867188 341.398438 283.867188 C 359.296875 274.917969 363.652344 257.796875 363.652344 238.515625 C 358.277344 238.515625 351.800781 238.515625 346.4375 238.515625 C 344.699219 238.515625 327.238281 230.957031 326.699219 230.957031 C 326.699219 230.957031 313.679688 241.875 313.679688 241.875 C 307.949219 244.742188 301.234375 246.839844 294.367188 250.273438 C 292.765625 251.074219 292.082031 249.132812 291.007812 248.59375 C 289.460938 247.820312 283.171875 250.410156 281.765625 251.113281 C 280.078125 251.957031 280.265625 253.964844 279.25 254.472656 C 272.972656 257.609375 267.070312 252.265625 267.070312 262.871094 C 267.070312 266.054688 270.429688 267.773438 270.429688 270.429688 C 273.476562 270.429688 284.707031 272.632812 284.707031 276.308594 C 284.707031 276.308594 286.386719 277.148438 286.386719 277.148438 C 286.386719 277.148438 288.90625 277.148438 288.90625 277.148438 C 290.097656 277.148438 293.945312 279.148438 293.945312 280.507812 C 293.945312 280.507812 296.464844 281.347656 296.464844 281.347656 C 296.464844 281.347656 299.824219 282.1875 299.824219 282.1875 Z M 299.824219 282.1875 "/>
<path style=" stroke:none;fill-rule:nonzero;fill:rgb(1.176471%,75.686276%,17.647059%);fill-opacity:1;" d="M 113.378906 283.027344 C 111.65625 283.027344 104.980469 282.738281 104.980469 284.707031 C 104.980469 284.707031 93.640625 285.546875 93.640625 285.546875 C 93.640625 285.546875 88.601562 283.867188 88.601562 283.867188 C 80.59375 287.871094 64.703125 283.253906 57.53125 279.667969 C 47.515625 274.660156 43.671875 250.679688 43.671875 240.195312 C 43.671875 240.195312 52.492188 239.355469 52.492188 239.355469 C 52.492188 239.355469 54.171875 241.875 54.171875 241.875 C 54.171875 241.875 57.53125 238.515625 57.53125 238.515625 C 57.53125 238.515625 60.046875 241.035156 60.046875 241.035156 C 60.046875 241.035156 60.890625 239.355469 60.890625 239.355469 C 60.890625 239.355469 67.609375 240.195312 67.609375 240.195312 C 71.390625 238.304688 77.027344 236.835938 81.464844 236.835938 C 81.464844 236.835938 83.144531 235.15625 83.144531 235.15625 C 84.644531 235.15625 88.246094 240.015625 88.601562 240.195312 C 93.519531 242.652344 98 246.152344 102.882812 248.59375 C 104.515625 249.410156 130.355469 254.171875 133.117188 252.792969 C 135.046875 251.828125 135.089844 246.914062 136.054688 246.914062 C 138.433594 246.914062 140.121094 248.59375 141.933594 248.59375 C 141.933594 248.59375 145.292969 251.953125 145.292969 251.953125 C 145.292969 251.953125 146.972656 255.3125 146.972656 255.3125 C 146.972656 257.765625 142.179688 251.617188 141.515625 251.953125 C 139.832031 252.792969 136.421875 261.503906 137.734375 264.132812 C 140.511719 269.691406 146.230469 262.871094 147.8125 262.871094 C 147.8125 266.375 143.613281 268.457031 143.613281 271.269531 C 143.613281 271.269531 142.351562 268.75 142.351562 268.75 C 137.640625 268.75 130.152344 276.109375 126.398438 277.988281 C 124.46875 278.953125 122.984375 277.175781 121.359375 277.988281 C 118.621094 279.355469 117.3125 283.027344 113.378906 283.027344 Z M 113.378906 283.027344 "/>
<path style=" stroke:none;fill-rule:nonzero;fill:rgb(1.176471%,75.686276%,17.647059%);fill-opacity:1;" d="M 275.46875 236.835938 L 274.628906 237.675781 C 274.628906 237.675781 275.46875 236.835938 275.46875 236.835938 Z M 275.46875 236.835938 "/>
<path style=" stroke:none;fill-rule:nonzero;fill:rgb(1.176471%,75.686276%,17.647059%);fill-opacity:1;" d="M 274.628906 237.675781 C 273.304688 237.675781 272.949219 239.15625 272.949219 240.195312 C 274.273438 240.195312 274.628906 238.714844 274.628906 237.675781 Z M 274.628906 237.675781 "/>
<path style=" stroke:none;fill-rule:evenodd;fill:rgb(88.627452%,47.058824%,63.137257%);fill-opacity:1;" d="M 215.839844 245.234375 L 212.480469 249.851562 C 214.082031 253.058594 226.195312 245.234375 218.359375 245.234375 L 215.839844 245.234375 M 188.964844 244.394531 C 188.964844 259.90625 204.792969 244.394531 188.964844 244.394531 M 200.722656 273.789062 L 201.5625 275.46875 C 201.5625 278.503906 204.035156 284.382812 202.402344 287.648438 C 200.808594 290.835938 189.109375 282.890625 187.703125 282.1875 C 187.703125 282.1875 182.664062 282.1875 182.664062 282.1875 C 176.484375 279.097656 168.808594 269.707031 168.808594 260.351562 C 168.808594 258.515625 174.683594 248.386719 175.945312 247.753906 C 175.945312 247.753906 182.664062 246.914062 182.664062 246.914062 C 182.664062 246.914062 186.023438 244.394531 186.023438 244.394531 C 186.023438 244.394531 187.703125 245.234375 187.703125 245.234375 C 188.988281 244.59375 187.46875 241.992188 189.382812 241.035156 C 193.867188 238.792969 210.328125 237.230469 214.578125 239.355469 C 214.578125 239.355469 217.9375 242.714844 217.9375 242.714844 C 220.210938 243.851562 225.230469 238.402344 228.4375 244.8125 C 230.0625 248.066406 233.191406 244.460938 234.734375 245.234375 C 236.167969 245.949219 240.195312 252.21875 240.195312 253.632812 C 240.195312 255.714844 238.507812 255.75 237.675781 257.414062 C 237.34375 258.078125 239.84375 263.996094 238.515625 266.648438 C 237.101562 269.476562 234.929688 272.148438 233.476562 275.046875 C 230.851562 280.300781 222.960938 280.097656 218.78125 282.1875 C 217.402344 282.875 214.46875 287.171875 212.898438 286.386719 C 212.898438 286.386719 212.0625 284.707031 212.0625 284.707031 C 210.660156 284.707031 210.792969 287.441406 209.539062 288.066406 C 207.03125 289.320312 206.601562 281.339844 206.601562 279.667969 C 208.335938 279.667969 206.960938 276.851562 207.441406 275.890625 C 207.441406 275.890625 209.960938 275.046875 209.960938 275.046875 C 210.851562 273.265625 207.738281 272.109375 206.601562 272.109375 C 206.601562 272.109375 205.761719 271.269531 205.761719 271.269531 C 205.761719 271.269531 204.082031 271.269531 204.082031 271.269531 C 204.082031 271.269531 199.460938 271.269531 199.460938 271.269531 C 197.792969 272.105469 199.535156 273.789062 200.722656 273.789062 Z M 200.722656 273.789062 "/>
<path style=" stroke:none;fill-rule:nonzero;fill:rgb(1.176471%,75.686276%,17.647059%);fill-opacity:1;" d="M 272.949219 240.195312 L 272.109375 241.035156 C 272.109375 241.035156 272.949219 240.195312 272.949219 240.195312 Z M 272.949219 240.195312 "/>
<path style=" stroke:none;fill-rule:nonzero;fill:rgb(93.333334%,72.941178%,0%);fill-opacity:1;" d="M 188.964844 244.394531 C 188.964844 259.90625 204.792969 244.394531 188.964844 244.394531 Z M 188.964844 244.394531 "/>
<path style=" stroke:none;fill-rule:nonzero;fill:rgb(93.333334%,72.941178%,0%);fill-opacity:1;" d="M 215.839844 245.234375 L 212.480469 249.851562 C 214.082031 253.058594 226.195312 245.234375 218.359375 245.234375 Z M 215.839844 245.234375 "/>
<path style=" stroke:none;fill-rule:nonzero;fill:rgb(5.490196%,27.843139%,88.627452%);fill-opacity:1;" d="M 146.972656 255.3125 C 150.128906 255.3125 148.242188 262.871094 147.8125 262.871094 C 146.230469 262.871094 140.511719 269.691406 137.734375 264.132812 C 136.421875 261.503906 139.832031 252.792969 141.515625 251.953125 C 142.179688 251.617188 146.972656 257.765625 146.972656 255.3125 Z M 146.972656 255.3125 "/>
<path style=" stroke:none;fill-rule:evenodd;fill:rgb(98.039216%,50.196081%,44.705883%);fill-opacity:1;" d="M 121.777344 291.425781 C 121.777344 296.101562 123.550781 291.425781 121.777344 291.425781 M 128.496094 288.066406 C 128.496094 291.871094 133.078125 288.066406 128.496094 288.066406 M 121.777344 288.066406 C 121.777344 291.210938 123.535156 288.066406 121.777344 288.066406 M 126.816406 285.546875 C 126.816406 289.019531 131.585938 285.546875 126.816406 285.546875 M 121.777344 285.546875 C 121.777344 288.746094 126.308594 285.546875 121.777344 285.546875 M 124.296875 280.507812 C 124.296875 282.941406 131.171875 280.507812 124.296875 280.507812 M 113.378906 283.027344 C 113.378906 284.273438 106.4375 284.707031 104.980469 284.707031 C 104.980469 286.605469 101.894531 289.03125 103.300781 291.84375 C 105.1875 295.617188 112.796875 296.464844 115.476562 296.464844 C 115.476562 296.464844 117.15625 298.984375 117.15625 298.984375 C 119.40625 300.105469 120.5 295.617188 122.195312 296.464844 C 123.308594 297.019531 123.882812 301.082031 126.398438 299.824219 C 126.398438 299.824219 128.078125 298.144531 128.078125 298.144531 C 129.191406 298.144531 129.667969 300.707031 131.4375 299.824219 C 135.785156 297.648438 131.476562 290.144531 132.273438 289.746094 C 135.101562 288.332031 135.898438 294.078125 137.3125 294.785156 C 137.3125 294.785156 139.835938 293.945312 139.835938 293.945312 C 139.835938 293.945312 140.671875 298.144531 140.671875 298.144531 C 140.671875 298.144531 143.195312 297.304688 143.195312 297.304688 C 143.195312 297.304688 144.875 299.824219 144.875 299.824219 C 147.019531 300.898438 152.417969 298.992188 154.109375 298.144531 C 154.109375 298.144531 154.53125 294.367188 154.53125 294.367188 C 154.53125 294.367188 158.730469 289.328125 158.730469 289.328125 C 158.730469 287.925781 159.355469 286.378906 158.730469 285.125 C 157.945312 283.554688 145.269531 271.269531 143.613281 271.269531 C 143.613281 271.269531 142.351562 268.75 142.351562 268.75 C 137.640625 268.75 130.152344 276.109375 126.398438 277.988281 C 124.46875 278.953125 122.984375 277.175781 121.359375 277.988281 C 118.621094 279.355469 117.3125 283.027344 113.378906 283.027344 Z M 113.378906 283.027344 "/>
<path style=" stroke:none;fill-rule:nonzero;fill:rgb(98.039216%,50.196081%,44.705883%);fill-opacity:1;" d="M 299.824219 282.1875 L 303.183594 283.867188 C 303.183594 283.867188 304.863281 287.648438 304.863281 287.648438 C 304.863281 287.648438 302.34375 290.164062 302.34375 290.164062 C 302.34375 290.164062 304.863281 291.007812 304.863281 291.007812 C 304.863281 292.378906 299.441406 293.945312 296.046875 293.945312 C 296.046875 293.945312 293.523438 294.785156 293.523438 294.785156 C 291.574219 295.761719 292.019531 298.058594 291.84375 298.144531 C 288.78125 299.675781 284.753906 299.171875 281.765625 300.664062 C 281.765625 300.664062 279.25 302.34375 279.25 302.34375 C 279.25 302.34375 276.726562 298.984375 276.726562 298.984375 C 274.503906 298.984375 273.097656 305.566406 268.328125 303.183594 C 268.328125 303.183594 264.96875 298.144531 264.96875 298.144531 C 264.96875 298.144531 257.414062 298.984375 257.414062 298.984375 C 253.976562 297.265625 255.703125 294.300781 254.472656 291.84375 C 253.316406 289.535156 249.484375 290.265625 249.433594 290.164062 C 249.433594 290.164062 250.273438 288.484375 250.273438 288.484375 C 250.273438 288.484375 248.59375 285.125 248.59375 285.125 C 251.386719 279.539062 255.707031 286.015625 258.671875 280.085938 C 259.609375 278.210938 256.285156 277.300781 256.992188 275.890625 C 257.972656 273.929688 267.703125 270.429688 270.429688 270.429688 C 273.476562 270.429688 284.707031 272.632812 284.707031 276.308594 C 284.707031 276.308594 286.386719 277.148438 286.386719 277.148438 C 286.386719 277.148438 288.90625 277.148438 288.90625 277.148438 C 288.90625 278.800781 292.75 280.507812 293.945312 280.507812 C 293.945312 280.507812 296.464844 281.347656 296.464844 281.347656 C 296.464844 284.339844 299.824219 286.128906 299.824219 282.1875 Z M 299.824219 282.1875 "/>
<path style=" stroke:none;fill-rule:nonzero;fill:rgb(0.784314%,17.254902%,100%);fill-opacity:1;" d="M 204.921875 285.546875 L 205.761719 285.546875 C 205.761719 283.875 206.601562 278.121094 206.601562 279.667969 C 208.335938 279.667969 206.960938 276.851562 207.441406 275.890625 C 207.441406 275.890625 209.960938 275.046875 209.960938 275.046875 C 210.851562 273.265625 207.738281 272.109375 206.601562 272.109375 C 206.601562 272.109375 205.761719 271.269531 205.761719 271.269531 C 205.761719 271.269531 204.082031 271.269531 204.082031 271.269531 C 204.082031 271.269531 200.722656 273.789062 200.722656 273.789062 C 200.722656 273.789062 201.5625 275.46875 201.5625 275.46875 C 202.589844 275.46875 204.921875 284.289062 204.921875 285.546875 Z M 204.921875 285.546875 "/>
<path style=" stroke:none;fill-rule:nonzero;fill:rgb(88.627452%,47.058824%,63.137257%);fill-opacity:1;" d="M 203.242188 283.867188 L 203.664062 288.90625 C 204.207031 288.90625 204.710938 283.867188 203.242188 283.867188 Z M 203.242188 283.867188 "/>
<path style=" stroke:none;fill-rule:nonzero;fill:rgb(88.627452%,47.058824%,63.137257%);fill-opacity:1;" d="M 204.921875 285.546875 L 205.761719 285.546875 C 205.761719 289.144531 204.921875 289.144531 204.921875 285.546875 Z M 204.921875 285.546875 "/>
<path style=" stroke:none;fill-rule:nonzero;fill:rgb(98.039216%,50.196081%,44.705883%);fill-opacity:1;" d="M 157.050781 293.945312 C 157.050781 296.867188 159.972656 293.945312 157.050781 293.945312 Z M 157.050781 293.945312 "/>
</g>
</svg>
