<?xml version="1.0" encoding="UTF-8"?>
<svg xmlns="http://www.w3.org/2000/svg" xmlns:xlink="http://www.w3.org/1999/xlink" width="430px" height="430px" viewBox="0 0 430 430" version="1.1">
<g id="surface1">
<rect x="0" y="0" width="430" height="430" style="fill:rgb(0%,0%,0%);fill-opacity:1;stroke:none;"/>
<path style=" stroke:none;fill-rule:nonzero;fill:rgb(1.176471%,75.686276%,17.647059%);fill-opacity:1;" d="M 195.683594 197.363281 C 199.425781 197.363281 202.398438 190.433594 204.5 191.484375 C 207.164062 192.816406 204.058594 200.722656 213.320312 200.722656 C 213.320312 199.003906 222.925781 193.1875 224.65625 192.324219 C 225.628906 191.839844 227.222656 193.140625 228.859375 192.324219 C 228.859375 192.324219 236.414062 184.765625 236.414062 184.765625 C 249.398438 178.273438 251.144531 180.371094 263.289062 186.445312 C 263.289062 186.445312 265.8125 186.445312 265.8125 186.445312 C 265.8125 186.445312 267.910156 190.226562 267.910156 190.226562 C 268.609375 191.621094 272.109375 191.039062 272.109375 194.003906 C 275.777344 194.003906 277.746094 198.535156 281.765625 196.523438 C 292.222656 191.296875 298.230469 166.539062 303.183594 156.632812 C 305.160156 152.675781 307.894531 145.058594 305.703125 140.671875 C 304.320312 137.910156 301.25 135.964844 299.824219 133.117188 C 291.316406 116.101562 280.058594 113.367188 264.96875 105.820312 C 261.773438 104.222656 244.703125 97.476562 241.453125 99.101562 C 236.753906 101.453125 229.265625 97.636719 224.65625 99.941406 C 224.65625 99.941406 215.421875 106.660156 215.421875 106.660156 C 211.460938 108.640625 207.789062 122.617188 204.5 122.617188 C 204.5 122.617188 203.242188 118 203.242188 118 C 202.34375 116.199219 200.722656 114.636719 199.882812 112.960938 C 199.882812 112.960938 189.382812 104.980469 189.382812 104.980469 C 184.082031 102.328125 161.265625 100.5625 155.789062 103.300781 C 152.585938 104.902344 150.367188 105.820312 147.390625 105.820312 C 145.683594 105.820312 131.652344 114.53125 128.914062 115.898438 C 121.324219 119.695312 101.148438 141.40625 105.820312 150.75 C 109.375 157.859375 112.328125 165.449219 115.898438 172.585938 C 117.597656 175.984375 123.636719 192.625 126.398438 194.003906 C 130.144531 195.878906 135.289062 192.324219 138.574219 192.324219 C 138.574219 190.503906 148.160156 184.800781 149.914062 183.925781 C 152.1875 182.789062 154.101562 179.730469 155.789062 178.886719 C 155.789062 178.886719 159.992188 178.886719 159.992188 178.886719 C 168.035156 174.863281 175.507812 185.386719 182.664062 188.964844 C 186.148438 190.707031 189.359375 193.152344 192.742188 194.84375 C 192.742188 194.84375 195.683594 197.363281 195.683594 197.363281 Z M 195.683594 197.363281 "/>
<path style=" stroke:none;fill-rule:evenodd;fill:rgb(100%,52.941179%,0%);fill-opacity:1;" d="M 162.089844 197.363281 L 161.25 202.820312 C 161.964844 204.25 167.605469 210.855469 168.808594 212.0625 C 170.375 213.628906 170.25 210.742188 171.328125 212.898438 C 171.867188 213.976562 178.695312 220 179.726562 217.9375 L 173.847656 210.382812 L 173.847656 207.023438 C 171.269531 201.863281 167.824219 197.363281 162.089844 197.363281 M 138.574219 192.324219 C 138.574219 194.46875 137.207031 195.480469 136.054688 197.78125 C 132.898438 204.097656 137.714844 212.023438 140.253906 217.101562 L 140.253906 220.460938 C 142.390625 224.734375 149.023438 224.214844 152.429688 225.917969 C 153.054688 226.230469 154.609375 232.046875 159.148438 234.316406 L 162.507812 234.316406 C 165.722656 235.921875 169.207031 238.085938 171.75 239.355469 L 175.109375 239.355469 C 177.691406 240.648438 180.640625 246.667969 185.1875 244.394531 C 189.371094 242.300781 197.625 229.171875 199.882812 224.65625 C 200.671875 223.078125 200.128906 205.832031 199.042969 203.664062 C 198.09375 201.761719 195.683594 199.578125 195.683594 197.363281 C 195.683594 197.363281 192.742188 194.84375 192.742188 194.84375 C 189.359375 193.152344 186.148438 190.707031 182.664062 188.964844 C 175.507812 185.386719 168.035156 174.863281 159.992188 178.886719 C 159.992188 178.886719 155.789062 178.886719 155.789062 178.886719 C 154.101562 179.730469 152.1875 182.789062 149.914062 183.925781 C 148.160156 184.800781 138.574219 190.503906 138.574219 192.324219 Z M 138.574219 192.324219 "/>
<path style=" stroke:none;fill-rule:evenodd;fill:rgb(100%,52.941179%,0%);fill-opacity:1;" d="M 230.117188 219.199219 C 230.117188 222.121094 233.78125 219.199219 230.117188 219.199219 M 244.394531 199.882812 L 241.875 201.984375 C 240.515625 204.703125 236.996094 209.378906 233.476562 212.898438 C 232.800781 213.574219 229.632812 217.488281 231.375 218.359375 C 232.886719 219.113281 239.589844 216.625 240.195312 215.421875 L 241.453125 210.800781 C 244.234375 210.800781 255.292969 199.882812 244.394531 199.882812 M 272.109375 194.003906 C 272.109375 197.796875 278.691406 201.414062 276.308594 206.179688 C 275.277344 208.246094 273.730469 210.496094 272.949219 212.0625 L 272.949219 216.257812 L 265.390625 222.140625 C 261.410156 230.097656 246.570312 236.378906 238.9375 240.195312 L 233.898438 245.234375 C 226.085938 249.140625 209.960938 231.761719 209.960938 224.65625 C 209.960938 222.519531 208.5625 214.019531 209.960938 211.21875 L 213.320312 200.722656 C 213.320312 199.003906 222.925781 193.1875 224.65625 192.324219 C 225.628906 191.839844 227.222656 193.140625 228.859375 192.324219 C 228.859375 192.324219 236.414062 184.765625 236.414062 184.765625 C 249.398438 178.273438 251.144531 180.371094 263.289062 186.445312 C 263.289062 186.445312 265.8125 186.445312 265.8125 186.445312 C 265.8125 186.445312 267.910156 190.226562 267.910156 190.226562 C 268.609375 191.621094 272.109375 191.039062 272.109375 194.003906 Z M 272.109375 194.003906 "/>
<path style=" stroke:none;fill-rule:nonzero;fill:rgb(100%,30.980393%,80.784315%);fill-opacity:1;" d="M 162.089844 197.363281 L 161.25 202.820312 C 161.964844 204.25 167.605469 210.855469 168.808594 212.0625 C 170.375 213.628906 170.25 210.742188 171.328125 212.898438 C 171.867188 213.976562 178.695312 220 179.726562 217.9375 L 173.847656 210.382812 L 173.847656 207.023438 C 171.269531 201.863281 167.824219 197.363281 162.089844 197.363281 Z M 162.089844 197.363281 "/>
<path style=" stroke:none;fill-rule:nonzero;fill:rgb(100%,30.980393%,80.784315%);fill-opacity:1;" d="M 244.394531 199.882812 L 241.875 201.984375 C 240.515625 204.703125 236.996094 209.378906 233.476562 212.898438 C 232.800781 213.574219 229.632812 217.488281 231.375 218.359375 C 232.886719 219.113281 239.589844 216.625 240.195312 215.421875 L 241.453125 210.800781 C 244.234375 210.800781 255.292969 199.882812 244.394531 199.882812 Z M 244.394531 199.882812 "/>
<path style=" stroke:none;fill-rule:nonzero;fill:rgb(100%,30.980393%,80.784315%);fill-opacity:1;" d="M 230.117188 219.199219 C 230.117188 222.121094 233.78125 219.199219 230.117188 219.199219 Z M 230.117188 219.199219 "/>
<path style=" stroke:none;fill-rule:nonzero;fill:rgb(98.039216%,50.196081%,44.705883%);fill-opacity:1;" d="M 155.371094 244.394531 C 155.371094 247.539062 157.128906 244.394531 155.371094 244.394531 Z M 155.371094 244.394531 "/>
<path style=" stroke:none;fill-rule:nonzero;fill:rgb(18.82353%,85.490197%,0%);fill-opacity:1;" d="M 235.15625 251.953125 C 235.15625 253.835938 229.714844 253.625 228.015625 254.472656 C 226.714844 255.125 225.148438 262.277344 226.335938 262.871094 C 238.503906 268.953125 245.511719 251.953125 235.15625 251.953125 Z M 235.15625 251.953125 "/>
<path style=" stroke:none;fill-rule:evenodd;fill:rgb(18.82353%,85.490197%,0%);fill-opacity:1;" d="M 178.886719 261.191406 C 178.886719 262.8125 180.507812 261.191406 178.886719 261.191406 M 176.367188 252.792969 C 176.367188 255.570312 174.980469 258 176.367188 260.773438 C 177.367188 262.773438 185.117188 265.84375 187.703125 264.550781 C 190.429688 263.1875 186.886719 254.484375 185.1875 253.632812 Z M 176.367188 252.792969 "/>
<path style=" stroke:none;fill-rule:nonzero;fill:rgb(98.039216%,50.196081%,44.705883%);fill-opacity:1;" d="M 256.992188 252.792969 C 256.992188 253.988281 255.332031 255.769531 256.152344 257.414062 C 258.292969 261.695312 264.261719 252.792969 256.992188 252.792969 Z M 256.992188 252.792969 "/>
<path style=" stroke:none;fill-rule:nonzero;fill:rgb(98.039216%,50.196081%,44.705883%);fill-opacity:1;" d="M 154.53125 256.992188 C 154.53125 268.886719 167.621094 256.992188 154.53125 256.992188 Z M 154.53125 256.992188 "/>
<path style=" stroke:none;fill-rule:nonzero;fill:rgb(98.039216%,50.196081%,44.705883%);fill-opacity:1;" d="M 161.25 261.191406 C 161.25 264.335938 163.007812 261.191406 161.25 261.191406 Z M 161.25 261.191406 "/>
<path style=" stroke:none;fill-rule:evenodd;fill:rgb(98.039216%,50.196081%,44.705883%);fill-opacity:1;" d="M 246.074219 321.660156 C 246.074219 325.371094 247.085938 321.660156 246.074219 321.660156 M 240.195312 309.902344 C 240.195312 310.71875 236.652344 312.367188 235.996094 313.679688 C 234.054688 317.5625 238.515625 323.070312 238.515625 323.757812 C 238.515625 324.898438 234.402344 327.289062 235.996094 330.476562 C 237.300781 333.089844 241.832031 332.914062 242.714844 334.679688 C 243.113281 335.476562 243.027344 338.457031 244.8125 338.457031 C 246.074219 338.457031 247.285156 335.914062 249.015625 336.777344 L 251.53125 338.457031 C 255.386719 338.457031 252 329.21875 256.570312 329.21875 C 259.628906 329.21875 259.226562 337.128906 263.289062 335.097656 C 265.707031 333.890625 267.828125 328.636719 266.230469 325.4375 C 264.433594 321.84375 264.6875 320.261719 260.773438 318.300781 C 260.335938 318.082031 256.167969 318.082031 255.734375 318.300781 L 252.792969 320.398438 L 253.632812 314.523438 C 252.074219 311.398438 243.691406 309.902344 240.195312 309.902344 Z M 240.195312 309.902344 "/>
<path style=" stroke:none;fill-rule:nonzero;fill:rgb(98.039216%,50.196081%,44.705883%);fill-opacity:1;" d="M 164.609375 313.261719 L 162.089844 315.359375 C 161.03125 317.480469 162.089844 317.820312 162.089844 319.5625 L 157.46875 323.339844 L 155.789062 321.660156 C 152.953125 320.242188 149.425781 326.414062 148.652344 327.960938 C 147.601562 330.0625 143.390625 330.871094 145.292969 334.679688 C 148.808594 341.703125 155.640625 329.566406 159.992188 331.738281 L 163.769531 334.679688 L 164.1875 336.777344 C 166.230469 336.777344 168.179688 331.738281 168.390625 331.738281 C 172.320312 331.738281 172.660156 342.621094 177.625 340.136719 C 187.484375 335.207031 176.800781 331.292969 178.046875 328.796875 C 184.160156 316.574219 183.464844 314.941406 170.90625 314.941406 C 169.257812 314.941406 167.023438 313.261719 164.609375 313.261719 Z M 164.609375 313.261719 "/>
</g>
</svg>
