<svg xmlns="http://www.w3.org/2000/svg" xmlns:xlink="http://www.w3.org/1999/xlink" height="512" width="512">
<g>
<rect width="512" height="512" fill="#000000"  stroke-width="0" /> 
<path  fill-rule="evenodd" fill="#FFFF00" stroke-width="0" stroke="#FFFF00" d = " M423 238 C423,242.123 427.123,238 423,238  M113 226 C120.885,226 125.982,201.463 124,197.5 117.998,185.497 125.727,167.955 123,162.5 L118.5,163 C116.37,161.935 115.863,159.226 115,157.5 113.793,155.086 115.2,150.15 117.5,149 121.929,146.785 125.978,143.261 130.5,141 130.575,140.962 137.193,133.153 139.5,132 141.119,131.19 145.277,131.947 144,134.5 L135,157.5 L134,174.5 C132.814,176.871 129.511,187.005 133.5,189 139.214,191.857 144.418,180.664 146,177.5 148.335,172.829 149.706,168.088 152,163.5 153.54,160.42 151.405,155.691 153,152.5 L153,135.5 C155.148,131.205 166.444,124.388 169,129.5 171,133.5 165.645,144.21 164,147.5 L162,165.5 L140,200.5 C138.847,202.806 127.506,219 134,219 L137.5,219 C162.022,206.739 168.354,181.792 179,160.5 181.87,154.761 176.358,146.785 179,141.5 180.778,137.945 181.264,133.972 183,130.5 L188,125.5 C189.399,122.701 190.524,119.452 192,116.5 L192,109.5 L196,106.5 C200.23,98.0407 210.64,92.4298 219.5,88 221.76,86.8699 236.649,89.5744 239.5,91 L243.5,89 C245.175,89 269.782,92.641 270.5,93 L274.5,99 L277,99.5 L278.5,106 C282.94,108.22 294.231,105.961 295,107.5 L295,112.5 L298,113.5 L299,122.5 C302.139,128.777 302.84,136.18 306,142.5 308.238,146.976 305.608,162.715 309,169.5 314.48,180.46 320.044,201.772 332.5,208 335.425,209.463 338.299,216.101 342.5,214 348.25,211.125 342.663,201.827 341,198.5 337.851,192.202 336.093,185.687 333,179.5 L329,175.5 L329,171.5 L324,165.5 C320.817,159.134 322.935,152.371 320,146.5 L320,142.5 C319.047,140.595 308.11,124 316.5,124 L318.5,126 C321.425,126 327.039,125.269 330.5,127 337.271,130.386 333,143.561 333,149 333,162.835 334.773,178.637 347.5,185 350.597,186.548 350,171.977 350,170 350,155.002 350.555,146.61 344,133.5 343.13,131.759 348.15,129.325 349.5,130 352.592,131.546 374.66,138.181 371,145.5 369.426,148.647 363,159.55 363,161.5 363,166.599 366.511,182.478 365,185.5 361.249,193.002 355.283,204.066 360,213.5 362.546,218.592 369.726,222.613 374.5,225 L377.5,231 L385.5,231 L390.5,224 C395.588,221.456 408.984,221.468 412,227.5 414.332,232.164 411.794,235.853 407.5,238 406.068,238.716 396.133,236.817 394.5,236 391.196,234.348 385.003,237.749 382.5,239 379.25,240.625 376.097,237.202 372.5,239 L363,241.5 C360.366,246.768 373.834,248 376.5,248 389.075,248 404.074,235.648 412,251.5 413.868,255.237 408.99,258.755 406.5,260 400.099,263.2 387.661,252.92 379.5,257 377.372,258.064 369.985,263.242 367.5,262 354.26,255.38 367.592,251 358,251 358,260.437 364.001,270.249 374.5,265 376.579,263.96 383.163,257.831 385.5,259 393.04,262.77 400.922,267.289 409.5,263 412.846,261.327 411.824,258.852 413,256.5 413,256.5 416,254.5 416,254.5 418.334,249.832 410,247.82 410,244.5 410,244.5 416.5,239 416.5,239 418.2,238.15 417.936,243.218 419.5,244 419.5,244 422.5,243 422.5,243 428.851,246.175 427.925,252.65 434,240.5 435.427,237.646 431.322,233.911 429.5,233 424.891,230.696 421.801,234.151 417.5,232 413.447,229.974 413.449,215 398.5,215 398.5,215 393,217 393,217 393,217 390.5,216 390.5,216 387.747,217.376 380.349,227.197 378,222.5 377.178,220.856 383,218.597 383,216 383,216 381,213.5 381,213.5 380.67,212.841 378.204,214.907 377,212.5 373.908,206.317 381,176.123 381,168 381,166.212 377.061,151.22 379.5,150 381.258,149.121 386.349,157.198 387,158.5 387,158.5 390,167.5 390,167.5 390,167.5 397,175.5 397,175.5 397.55,176.6 401.205,195.09 401,195.5 396.552,204.396 392.03,187.735 389.5,189 388.463,189.518 384,212.675 384,216 384,217.65 388.111,212.695 389.5,212 389.5,212 392.5,212 392.5,212 392.5,212 393.5,208 393.5,208 397.715,205.892 401.656,205.187 404,200.5 408.711,191.078 395.754,157.254 389,150.5 389,150.5 378.5,140 378.5,140 378.5,140 376.5,142 376.5,142 376.442,142.029 373.094,140.297 372.5,140 370.473,138.987 369.304,131.902 367.5,131 360.364,127.432 352.587,125.543 345.5,122 340.878,119.689 338.737,127 336.5,127 336.5,127 333.5,122 333.5,122 330.652,120.576 327.474,119.487 324.5,118 321.214,116.357 310.929,116.285 307.5,118 307.5,118 305.5,120 305.5,120 303.533,120 299.17,103.841 298,101.5 295.153,95.8062 289.454,101.477 286.5,100 278.783,96.1416 274.943,88.7217 267.5,85 267.5,85 258.5,85 258.5,85 250.843,81.1713 221.798,80.8511 213.5,85 213.5,85 203.5,91 203.5,91 203.5,91 184,110.5 184,110.5 184,110.5 183.5,113 183.5,113 181.768,113.866 180.696,112.402 179.5,113 179.5,113 168.5,120 168.5,120 168.5,120 161.5,121 161.5,121 161.5,121 152.5,128 152.5,128 150.168,129.166 148.895,124.697 147.5,124 145.065,122.783 140.164,123.668 137.5,125 133.944,126.778 117.625,141.875 114.5,145 109.241,150.259 111.895,155 104.5,155 104.5,155 95,165.5 95,165.5 95,165.5 95,170.5 95,170.5 95,170.5 92,172.5 92,172.5 92,172.5 91,179.5 91,179.5 86.927,187.646 78.5224,199.022 87.5,208 89.4382,209.938 91.2659,212 94,212 94,207.184 84.4318,202.636 88,195.5 89.484,192.532 92.4837,190.533 94,187.5 94,187.5 99,171.5 99,171.5 99.5612,170.378 102.938,164.219 104.5,165 104.5,165 105,178 105,178 105,182.26 101.749,190.998 104,195.5 105.69,198.88 107,204.029 107,208 107,210.592 106.656,218 104,218 104,218.888 106.573,225 107,225 107,222.111 110.299,226 111,226 111,226 113,226 113,226  Z"/>

<path  fill-rule="evenodd" fill="#00FFFF" stroke-width="0" stroke="#00FFFF" d = " M262 210 C262,212.076 254.068,213.216 252.5,214 244.24,218.13 228.163,214.832 220.5,211 217.307,209.403 214.655,213.809 216,216.5 222.196,228.891 252.486,227.007 262.5,222 269.667,218.417 273.145,210 262,210  M279 189 C279,190.951 276.546,189.477 275.5,190 271.75,191.875 263.754,192 259.5,192 252.651,192 239.504,191.998 233.5,195 232.406,195.547 222.289,194 219,194 212.644,194 206.653,189.923 200.5,193 199.73,193.385 195.834,193.168 197,195.5 200.702,202.903 207.489,196.994 213.5,200 217.869,202.184 222.25,203.875 226.5,206 229.292,207.396 263.81,204.345 266.5,203 L270.5,199 C274.108,197.196 278.617,197 283,197 L288,196.5 C290.944,190.611 283.912,189 279,189  M251 159 C251,161.427 241.222,159.139 239.5,160 231.214,164.143 219.58,161.34 215,170.5 L212,172.5 C209.723,177.054 221.663,180 225,180 236.27,180 248.426,178 260,178 265.285,178 272.271,180.115 276.5,178 279.153,176.673 277.269,167.885 275.5,167 271.984,165.242 268.056,163.778 264.5,162 259.552,159.526 256.339,159 251,159  M235 139 C235,140.781 228.803,140.348 227.5,141 221.63,143.935 214.3,144.1 208.5,147 186.668,157.916 188.393,168.714 179,187.5 177.656,190.189 170.363,197.227 172,200.5 174.299,205.098 180.243,198.129 182.5,197 187.674,194.413 197.289,178.921 200,173.5 205.935,161.631 219.458,158.521 230.5,153 233.373,151.564 237.506,152.497 240.5,151 244.794,148.853 252.307,152.404 255.5,154 260.315,156.407 265.668,152.584 270.5,155 279.999,159.75 281.894,172.394 288.5,179 290.7,181.2 305.863,201.774 309,195.5 310.255,192.99 302.367,179.235 301,176.5 297.704,169.908 294.356,163.211 291,156.5 L281.5,150 C277.176,147.838 273.774,144.137 269.5,142 260.027,137.264 245.546,139 235,139  M235 109 C235,110.438 221.604,111.948 219.5,113 205.406,120.047 198.636,122.229 191,137.5 189.24,141.021 183.534,146.567 186,151.5 187.143,153.786 189.661,150.42 190.5,150 195.897,147.301 199.891,140.804 205.5,138 211.932,134.784 218.205,131.147 224.5,128 229.185,125.658 236.703,129.399 241.5,127 243.085,126.207 246.954,127.227 248.5,128 249.983,128.742 259.951,126.225 263.5,128 L273.5,132 L279.5,137 C282.384,138.442 292.708,153.896 296.5,152 300.994,149.753 290.837,126.669 287.5,125 L282.5,120 C268.729,113.115 251.529,109 235,109  M156 245 C153.809,245 138.527,248.487 137.5,249 135.706,249.897 128,249.032 128,250 122.838,250 123.134,262.817 115.5,259 103.281,252.891 98.1839,252 85.5,252 85.5,252 83.5,250 83.5,250 79.9396,246.44 84.9706,241.765 88.5,240 96.7442,235.878 115.719,248.063 118,243.5 120.333,238.835 106,239.517 106,237 106,237 110,230.5 110,230.5 110.283,229.934 107,227.143 107,225 107,222.111 110.299,226 111,226 111,227.399 113,227.399 113,226 120.885,226 125.982,201.463 124,197.5 117.998,185.497 125.727,167.955 123,162.5 123,162.5 118.5,163 118.5,163 116.37,161.935 115.863,159.226 115,157.5 113.793,155.086 115.2,150.15 117.5,149 121.929,146.785 125.978,143.261 130.5,141 130.575,140.962 137.193,133.153 139.5,132 141.119,131.19 145.277,131.947 144,134.5 144,134.5 135,157.5 135,157.5 135,157.5 134,174.5 134,174.5 132.814,176.871 129.511,187.005 133.5,189 139.214,191.857 144.418,180.664 146,177.5 148.335,172.829 149.706,168.088 152,163.5 153.54,160.42 151.405,155.691 153,152.5 153,152.5 153,135.5 153,135.5 155.148,131.205 166.444,124.388 169,129.5 171,133.5 165.645,144.21 164,147.5 164,147.5 162,165.5 162,165.5 162,165.5 140,200.5 140,200.5 138.847,202.806 127.506,219 134,219 134,219 137.5,219 137.5,219 162.022,206.739 168.354,181.792 179,160.5 181.87,154.761 176.358,146.785 179,141.5 180.778,137.945 181.264,133.972 183,130.5 183,130.5 188,125.5 188,125.5 189.399,122.701 190.524,119.452 192,116.5 192,116.5 192,109.5 192,109.5 192,109.5 196,106.5 196,106.5 200.23,98.0407 210.64,92.4298 219.5,88 221.76,86.8699 236.649,89.5744 239.5,91 239.5,91 243.5,89 243.5,89 245.175,89 269.782,92.641 270.5,93 270.5,93 274.5,99 274.5,99 274.5,99 277,99.5 277,99.5 277,99.5 278.5,106 278.5,106 282.94,108.22 294.231,105.961 295,107.5 295,107.5 295,112.5 295,112.5 295,112.5 298,113.5 298,113.5 298,113.5 299,122.5 299,122.5 302.139,128.777 302.84,136.18 306,142.5 308.238,146.976 305.608,162.715 309,169.5 314.48,180.46 320.044,201.772 332.5,208 335.425,209.463 338.299,216.101 342.5,214 348.25,211.125 342.663,201.827 341,198.5 337.851,192.202 336.093,185.687 333,179.5 333,179.5 329,175.5 329,175.5 329,175.5 329,171.5 329,171.5 329,171.5 324,165.5 324,165.5 320.817,159.134 322.935,152.371 320,146.5 320,146.5 320,142.5 320,142.5 319.047,140.595 308.11,124 316.5,124 316.5,124 318.5,126 318.5,126 321.425,126 327.039,125.269 330.5,127 337.271,130.386 333,143.561 333,149 333,162.835 334.773,178.637 347.5,185 350.597,186.548 350,171.977 350,170 350,155.002 350.555,146.61 344,133.5 343.13,131.759 348.15,129.325 349.5,130 352.592,131.546 374.66,138.181 371,145.5 369.426,148.647 363,159.55 363,161.5 363,166.599 366.511,182.478 365,185.5 361.249,193.002 355.283,204.066 360,213.5 362.546,218.592 369.726,222.613 374.5,225 374.5,225 377.5,231 377.5,231 377.5,231 385.5,231 385.5,231 385.5,231 390.5,224 390.5,224 395.588,221.456 408.984,221.468 412,227.5 414.332,232.164 411.794,235.853 407.5,238 406.068,238.716 396.133,236.817 394.5,236 391.196,234.348 385.003,237.749 382.5,239 379.25,240.625 376.097,237.202 372.5,239 372.5,239 363,241.5 363,241.5 360.366,246.768 373.834,248 376.5,248 389.075,248 404.074,235.648 412,251.5 413.868,255.237 408.99,258.755 406.5,260 400.099,263.2 387.661,252.92 379.5,257 377.372,258.064 369.985,263.242 367.5,262 354.26,255.38 367.592,251 358,251 358,249.779 350.272,246.614 349.5,247 344.426,249.537 323.411,239 316,239 316,239 314,238 314,238 314,236.423 312.238,236 311,236 311,236 307,235 307,235 307,233.817 303.43,233.465 302.5,233 300.556,232.028 285.313,228.094 283.5,229 283.5,229 278,231 278,231 278,231 277,231 277,231 277,229.807 277.136,224.682 274.5,226 272.704,226.898 270.749,234.876 266.5,237 265.281,237.609 248.021,239 246,239 241.913,239 225.6,237.55 222.5,236 219.88,234.69 212,223.936 212,231 212,231 208,231 208,231 199.974,231 193.125,235 187,235 187,235 185,236 185,236 183.126,236 175,237.261 175,239 175,239 171,240 171,240 171,240 168,240 168,240 168,240 167,241 167,241 167,241 166,241 166,241 166,241 164,242 164,242 164,242 162,242 162,242 160.598,242 156,243.11 156,245  Z"/>

<path  fill="#FFFF00" stroke-width="0" stroke="#FFFF00" d = " M235 109 C235,110.438 221.604,111.948 219.5,113 205.406,120.047 198.636,122.229 191,137.5 189.24,141.021 183.534,146.567 186,151.5 187.143,153.786 189.661,150.42 190.5,150 195.897,147.301 199.891,140.804 205.5,138 211.932,134.784 218.205,131.147 224.5,128 229.185,125.658 236.703,129.399 241.5,127 243.085,126.207 246.954,127.227 248.5,128 249.983,128.742 259.951,126.225 263.5,128 L273.5,132 L279.5,137 C282.384,138.442 292.708,153.896 296.5,152 300.994,149.753 290.837,126.669 287.5,125 L282.5,120 C268.729,113.115 251.529,109 235,109  Z"/>

<path  fill="#FFFF00" stroke-width="0" stroke="#FFFF00" d = " M235 139 C235,140.781 228.803,140.348 227.5,141 221.63,143.935 214.3,144.1 208.5,147 186.668,157.916 188.393,168.714 179,187.5 177.656,190.189 170.363,197.227 172,200.5 174.299,205.098 180.243,198.129 182.5,197 187.674,194.413 197.289,178.921 200,173.5 205.935,161.631 219.458,158.521 230.5,153 233.373,151.564 237.506,152.497 240.5,151 244.794,148.853 252.307,152.404 255.5,154 260.315,156.407 265.668,152.584 270.5,155 279.999,159.75 281.894,172.394 288.5,179 290.7,181.2 305.863,201.774 309,195.5 310.255,192.99 302.367,179.235 301,176.5 297.704,169.908 294.356,163.211 291,156.5 L281.5,150 C277.176,147.838 273.774,144.137 269.5,142 260.027,137.264 245.546,139 235,139  Z"/>

<path  fill="#00FFFF" stroke-width="0" stroke="#00FFFF" d = " M383 216 L384,216 C384,212.675 388.463,189.518 389.5,189 392.03,187.735 396.552,204.396 401,195.5 401.205,195.09 397.55,176.6 397,175.5 397,175.5 390,167.5 390,167.5 390,167.5 387,158.5 387,158.5 386.349,157.198 381.258,149.121 379.5,150 377.061,151.22 381,166.212 381,168 381,176.123 373.908,206.317 377,212.5 378.204,214.907 380.67,212.841 381,213.5 381,213.5 383,216 383,216  Z"/>

<path  fill="#FFFF00" stroke-width="0" stroke="#FFFF00" d = " M251 159 C251,161.427 241.222,159.139 239.5,160 231.214,164.143 219.58,161.34 215,170.5 L212,172.5 C209.723,177.054 221.663,180 225,180 236.27,180 248.426,178 260,178 265.285,178 272.271,180.115 276.5,178 279.153,176.673 277.269,167.885 275.5,167 271.984,165.242 268.056,163.778 264.5,162 259.552,159.526 256.339,159 251,159  Z"/>

<path  fill="#00FFFF" stroke-width="0" stroke="#00FFFF" d = " M103 216 L104,218 C106.656,218 107,210.592 107,208 107,204.029 105.69,198.88 104,195.5 101.749,190.998 105,182.26 105,178 105,178 104.5,165 104.5,165 102.938,164.219 99.5612,170.378 99,171.5 99,171.5 94,187.5 94,187.5 92.4837,190.533 89.484,192.532 88,195.5 84.4318,202.636 94,207.184 94,212 96.1595,212 98.1672,214 101,214 101,214 103,216 103,216  Z"/>

<path  fill="#FFFF00" stroke-width="0" stroke="#FFFF00" d = " M279 189 C279,190.951 276.546,189.477 275.5,190 271.75,191.875 263.754,192 259.5,192 252.651,192 239.504,191.998 233.5,195 232.406,195.547 222.289,194 219,194 212.644,194 206.653,189.923 200.5,193 199.73,193.385 195.834,193.168 197,195.5 200.702,202.903 207.489,196.994 213.5,200 217.869,202.184 222.25,203.875 226.5,206 229.292,207.396 263.81,204.345 266.5,203 L270.5,199 C274.108,197.196 278.617,197 283,197 L288,196.5 C290.944,190.611 283.912,189 279,189  Z"/>

<path  fill="#FFFF00" stroke-width="0" stroke="#FFFF00" d = " M262 210 C262,212.076 254.068,213.216 252.5,214 244.24,218.13 228.163,214.832 220.5,211 217.307,209.403 214.655,213.809 216,216.5 222.196,228.891 252.486,227.007 262.5,222 269.667,218.417 273.145,210 262,210  Z"/>

<path  fill="#FFFF00" stroke-width="0" stroke="#FFFF00" d = " M101 214 L103,216 C103,216 101,214 101,214  Z"/>

<path  fill-rule="evenodd" fill="#FFFF00" stroke-width="0" stroke="#FFFF00" d = " M86 233 C86,240.902 95.9494,233 86,233  M72 233 L69,236.5 C65.7167,243.067 83.0029,233 72,233  M78 228 L77,232.5 C77.6952,233.89 86.7023,228 78,228  M106 237 C106,239.517 120.333,238.835 118,243.5 115.719,248.063 96.7442,235.878 88.5,240 84.9706,241.765 79.9396,246.44 83.5,250 L85.5,252 C98.1839,252 103.281,252.891 115.5,259 123.134,262.817 122.838,250 128,250 128,253.269 124.981,267.74 119.5,265 119.5,265 113.5,260 113.5,260 110.039,258.269 103.477,256.989 99.5,255 92.9307,251.715 86.2532,258.377 79.5,255 78.2843,254.392 75.279,249.942 76,248.5 76.6923,247.115 79.0445,245.411 80,243.5 80.0696,243.361 82.292,240 80.5,240 77.7714,240 75.9981,245 74.5,245 70.2085,245 68.6235,243.062 64.5,241 62.7844,240.142 64.5598,235.38 65,234.5 66.3588,231.782 74.1336,216.817 76.5,218 80.0199,219.76 82.489,223.495 85.5,225 89.6549,227.077 96.7012,220.902 99,225.5 101.91,231.32 91.063,230.282 96.5,233 96.5,233 98,235 98,235 98,235 99,236 99,236 99,236 106,237 106,237  Z"/>

<path  fill="#46A515" stroke-width="0" stroke="#46A515" d = " M419 221 L418,224.5 C421.525,231.551 428.014,221 419,221  Z"/>

<path  fill="#46A515" stroke-width="0" stroke="#46A515" d = " M60 224 L56,229.5 C55.0706,231.359 57.6412,233.929 59.5,233 62.0411,231.729 64.6868,224 60,224  Z"/>

<path  fill="#FFFF00" stroke-width="0" stroke="#FFFF00" d = " M277 231 L276,232 C274.851,232 274.492,236.516 274,237.5 272.783,239.935 268.631,241.934 266.5,243 266.5,243 257.5,244 257.5,244 250.569,247.465 212,244.675 212,231 212,223.936 219.88,234.69 222.5,236 225.6,237.55 241.913,239 246,239 248.021,239 265.281,237.609 266.5,237 270.749,234.876 272.704,226.898 274.5,226 277.136,224.682 277,229.807 277,231  Z"/>

<path  fill="#00FFFF" stroke-width="0" stroke="#00FFFF" d = " M78 228 L77,232.5 C77.6952,233.89 86.7023,228 78,228  Z"/>

<path  fill-rule="evenodd" fill="#9953FF" stroke-width="0" stroke="#9953FF" d = " M322 316 C322,319.29 328.09,320.68 327,318.5 L324,317.5 C323.35,316.2 323.829,316 322,316  M305 296 C305,298.453 304.582,300.664 306,303.5 L317,312.5 C318.063,313.563 319.674,315.913 321.5,315 323.559,313.971 320.468,311.563 321,310.5 322.054,308.391 308.798,296 305,296  M249 349 C249,346.936 252.353,348.574 253.5,348 255.552,346.974 264.681,348.591 267.5,350 268.546,350.523 271,349.049 271,351 290.394,351 336,331.998 336,309 332.673,309 328.275,312.051 326,307.5 325.028,305.556 330.92,291.661 332,289.5 332,289.5 328,277.5 328,277.5 325.018,271.536 329,262.694 329,257 329,255.259 326.012,243.256 325.5,243 324.127,242.314 316,240.381 316,239 316,239 314,238 314,238 314,238 311,236 311,236 311,236 307,235 307,235 299.92,235 292.364,232 284,232 284,232 282,246.5 282,246.5 282,246.5 273.5,255 273.5,255 272.353,255.574 269,253.936 269,256 269,258.791 271.683,258.135 270,261.5 268.567,264.366 261,262.566 261,259 258.322,259 257.677,260.911 255.5,262 254.187,262.656 248.58,261 247,261 247,263.768 240.759,261 240,261 234.699,261 230.7,258 226,258 226,264.093 219,264.601 219,255 212.752,255 207.482,245.463 205,240.5 203.921,238.342 205.096,232 208,232 208,232 208,231 208,231 199.974,231 193.125,235 187,235 187,235 185,236 185,236 185,238.523 176.943,239 175,239 175,239.914 171,242.246 171,240 171,240 168,240 168,240 168,240 167,241 167,241 167,241 166,241 166,241 166,241 164,242 164,242 164,242 162,242 162,242 162,243.89 157.402,245 156,245 156,247.343 153,251.082 153,254 153,254 157.5,251 157.5,251 162.721,253.61 157,257.349 157,261 157,265.536 160.799,273.901 159,277.5 157.601,280.298 156,286.407 156,289.5 156,297.323 167,300.573 167,308 168.933,308 178.203,293.906 181,299.5 182.434,302.367 164,322.563 164,310 160.106,310 157.395,310 154,310 154,310 153,314.5 153,314.5 162.018,332.536 184.852,340.176 200.5,348 200.5,348 213,348 213,348 213,345.036 220.869,340.685 223.5,342 226.723,343.611 229.36,345.43 232.5,347 232.5,347 238.5,346 238.5,346 238.5,346 240,348 240,348 243.831,348 246.646,349 249,349  Z"/>

<path  fill="#9953FF" stroke-width="0" stroke="#9953FF" d = " M278 232 L277,233 C277,233 276,232 276,232 276,232 277,231 277,231 277,231 278,231 278,231 278,231 278,232 278,232  Z"/>

<path  fill="#EB57FF" stroke-width="0" stroke="#EB57FF" d = " M261 259 C258.322,259 257.677,260.911 255.5,262 254.187,262.656 248.58,261 247,261 247,258.672 247.712,256.923 247,255.5 245.718,252.937 248.123,251.253 249,249.5 252.95,241.6 264.949,251.775 270.5,249 275.305,246.597 274.111,240.277 276,236.5 276.523,235.454 275.049,233 277,233 277,233 278,232 278,232 280.72,232 281.553,232 284,232 284,232 282,246.5 282,246.5 282,246.5 273.5,255 273.5,255 272.353,255.574 269,253.936 269,256 266.616,256 261,251.959 261,259  Z"/>

<path  fill="#EB57FF" stroke-width="0" stroke="#EB57FF" d = " M226 258 C230.7,258 234.699,261 240,261 240,261 242,252.5 242,252.5 235.107,238.713 223.053,251.276 218.5,249 212.597,246.049 215.283,232 208,232 205.096,232 203.921,238.342 205,240.5 207.482,245.463 212.752,255 219,255 221.176,255 226,254.652 226,258  Z"/>

<path  fill="#00FFFF" stroke-width="0" stroke="#00FFFF" d = " M72 233 L69,236.5 C65.7167,243.067 83.0029,233 72,233  Z"/>

<path  fill="#00FFFF" stroke-width="0" stroke="#00FFFF" d = " M98 235 L99,236 C99,234.942 98,232.971 98,235  Z"/>

<path  fill="#00FFFF" stroke-width="0" stroke="#00FFFF" d = " M423 238 C423,242.123 427.123,238 423,238  Z"/>

<path  fill="#FA8072" stroke-width="0" stroke="#FA8072" d = " M154 310 C157.395,310 160.106,310 164,310 164,310 165,309 165,309 165,309 166,308 166,308 166,308 167,308 167,308 167,300.573 156,297.323 156,289.5 156,286.407 157.601,280.298 159,277.5 160.799,273.901 157,265.536 157,261 157,257.349 162.721,253.61 157.5,251 157.5,251 153,254 153,254 146.129,254 141.595,290.689 144,295.5 146.288,300.076 147.837,303.174 150,307.5 150,307.5 154,310 154,310  Z"/>

<path  fill="#FAF4F7" stroke-width="0" stroke="#FAF4F7" d = " M269 256 C266.616,256 261,251.959 261,259 261,262.566 268.567,264.366 270,261.5 271.683,258.135 269,258.791 269,256  Z"/>

<path  fill="#FAF4F7" stroke-width="0" stroke="#FAF4F7" d = " M219 255 C221.176,255 226,254.652 226,258 226,264.093 219,264.601 219,255  Z"/>

<path  fill="#FA8072" stroke-width="0" stroke="#FA8072" d = " M329 257 L333.5,256 C338.504,258.502 345.626,293.249 343,298.5 342.041,300.418 341.899,302.703 341,304.5 L336,309 C332.673,309 328.275,312.051 326,307.5 325.028,305.556 330.92,291.661 332,289.5 332,289.5 328,277.5 328,277.5 325.018,271.536 329,262.694 329,257  Z"/>

<path  fill="#46A515" stroke-width="0" stroke="#46A515" d = " M403 274 C403,275.549 393.036,276.232 391.5,277 386.44,279.53 380.892,281.716 378,287.5 374.437,294.626 380.738,291 383,291 L387,291.5 C387,292.633 375.68,296.139 374,299.5 373.731,300.037 381.674,316.848 383,319.5 384.062,321.624 379.915,327.669 379,329.5 L379,335 L378,337.5 C379.222,339.944 381.56,338.06 383,339.5 L388.5,347 C394.919,350.209 408.44,328.381 406,323.5 L398,315.5 C395.453,310.406 401.8,298.101 400,294.5 398.93,292.359 388.122,291.256 389,289.5 L392.5,288 C399.387,284.557 399.93,285.715 406.5,289 L410.5,287 L414.5,289 L421.5,282 C424.499,280.5 430.051,282.399 432,278.5 L430.5,276 L418.5,276 C416.953,275.226 415.785,272.857 413.5,274 408.875,276.313 408.188,274 403,274  Z"/>

<path  fill="#46A515" stroke-width="0" stroke="#46A515" d = " M82 275 C82,278.746 84.0912,275 82,275  Z"/>

<path  fill="#46A515" stroke-width="0" stroke="#46A515" d = " M79 277 C79,278.423 72.7702,280.04 75,284.5 78.5786,291.657 81.4571,283.979 85.5,286 86.6945,286.597 86.0783,291.711 89.5,290 91.59,288.955 94.7132,283.607 91.5,282 89.2591,280.88 85.8309,282.165 83.5,281 81.9906,280.245 81.65,277 79,277  Z"/>

<path  fill="#46A515" stroke-width="0" stroke="#46A515" d = " M98 285 C98,286.93 99.93,285 98,285  Z"/>

<path  fill="#46A515" stroke-width="0" stroke="#46A515" d = " M101 286 C101,287.93 102.93,286 101,286  Z"/>

<path  fill="#46A515" stroke-width="0" stroke="#46A515" d = " M94 289 L93,290.5 C93,296.123 103.93,292.715 96.5,289 L94,289  Z"/>

<path  fill="#46A515" stroke-width="0" stroke="#46A515" d = " M107 290 C107,291.56 108.215,299.07 107,301.5 L105,304.5 C105,306.117 107.287,309.927 107,310.5 106.501,311.497 103.871,311.242 105,313.5 106.685,316.871 113.023,310.453 114,308.5 116.184,304.131 111.007,290 107,290  Z"/>

<path  fill="#00B03F" stroke-width="0" stroke="#00B03F" d = " M305 296 C305,298.453 304.582,300.664 306,303.5 L317,312.5 C318.063,313.563 319.674,315.913 321.5,315 323.559,313.971 320.468,311.563 321,310.5 322.054,308.391 308.798,296 305,296  Z"/>

<path  fill="#00B03F" stroke-width="0" stroke="#00B03F" d = " M165 309 L164,310 C164,322.563 182.434,302.367 181,299.5 178.203,293.906 168.933,308 167,308 167,308 166,308 166,308 166,308 165,309 165,309  Z"/>

<path  fill="#9953FF" stroke-width="0" stroke="#9953FF" d = " M166 308 L165,309 C165,309 166,308 166,308  Z"/>

<path  fill="#9953FF" stroke-width="0" stroke="#9953FF" d = " M165 309 L164,310 C164,310 165,309 165,309  Z"/>

<path  fill="#00B03F" stroke-width="0" stroke="#00B03F" d = " M322 316 C322,319.29 328.09,320.68 327,318.5 L324,317.5 C323.35,316.2 323.829,316 322,316  Z"/>

<path  fill="#46A515" stroke-width="0" stroke="#46A515" d = " M349 321 C349,323.78 343.884,326.268 346,330.5 L350,336.5 C349.048,338.403 344.737,338.973 346,341.5 350.559,350.618 366,349.263 366,338.5 366,331.574 353,337.323 353,333.5 L357,329.5 C360.024,323.451 354.389,321 349,321  Z"/>

<path  fill="#46A515" stroke-width="0" stroke="#46A515" d = " M115 323 L114,330.5 C114.96,332.419 116.182,331.341 117.5,332 126.68,336.59 121.94,323 115,323  Z"/>

<path  fill="#46A515" stroke-width="0" stroke="#46A515" d = " M128 326 L127,328.5 C127,334.288 135.789,326 128,326  Z"/>

<path  fill="#46A515" stroke-width="0" stroke="#46A515" d = " M141 331 C141,333.622 133.943,330.615 133,332.5 131.487,335.526 136.276,335.052 137,336.5 L138,342.5 C141.123,348.747 151.31,331 141,331  Z"/>

<path  fill="#46A515" stroke-width="0" stroke="#46A515" d = " M96 334 C96,337.623 99.9164,341.416 102.5,344 L102,348.5 C103.879,352.259 109.443,352.472 112.5,354 119.154,357.327 134.848,346.174 118.5,338 114.133,335.817 113.971,345.235 107.5,342 104.309,340.405 99.5539,334 96,334  Z"/>

<path  fill="#46A515" stroke-width="0" stroke="#46A515" d = " M372 340 C372,341.465 367.606,341.711 369,344.5 370.614,347.728 383.184,340 372,340  Z"/>

<path  fill="#FF3427" stroke-width="0" stroke="#FF3427" d = " M213 348 C213,355.437 240,356.034 240,348 240,348 238.5,346 238.5,346 238.5,346 232.5,347 232.5,347 229.36,345.43 226.723,343.611 223.5,342 220.869,340.685 213,345.036 213,348  Z"/>

<path  fill="#FF3427" stroke-width="0" stroke="#FF3427" d = " M249 349 L252.5,352 C256.859,354.18 262.275,356.613 267.5,354 L271,351 C271,349.049 268.546,350.523 267.5,350 264.681,348.591 255.552,346.974 253.5,348 252.353,348.574 249,346.936 249,349  Z"/>

</g>
</svg>
