<svg xmlns="http://www.w3.org/2000/svg" xmlns:xlink="http://www.w3.org/1999/xlink" height="512" width="512">
<g>
<rect width="512" height="512" fill="#000000"  stroke-width="0" /> 
<path  fill="#03C12D" stroke-width="0" stroke="#03C12D" d = " M349 331 C351.767,331 358.379,336.56 363.5,334 368.889,331.305 374.058,327.721 379.5,325 L384.5,320 C388.032,318.234 398.075,315.351 400,311.5 402.367,306.766 405.568,302.364 408,297.5 409.788,293.923 405.668,293.164 408,288.5 408.765,286.97 411.859,288.781 413,286.5 414.035,284.429 411.66,281.179 413,278.5 415.569,273.362 419.454,269.592 422,264.5 422.538,263.425 429,230.272 429,228.5 429,225.573 425.47,219.561 427,216.5 427.792,214.916 429.028,210.556 428,208.5 L425,204.5 C423.834,202.168 427.603,196.706 426,193.5 420.854,183.209 422.156,169.812 417,159.5 411.446,148.393 399.461,132.48 388.5,127 385.943,125.722 385.876,121.688 382.5,120 373.694,115.597 364.335,112.418 355.5,108 L351.5,108 L347.5,104 C342.782,101.641 331.227,103 326.5,103 321.773,103 317.523,98.0117 313.5,96 L307.5,96 C300.041,92.2705 292.028,94 284,94 281.079,94 276.684,90.9079 274.5,92 267.276,95.612 259.819,92.3405 252.5,96 249.289,97.6053 242.391,108.946 236.5,106 232.716,104.108 235.641,99.5703 232.5,98 228.041,95.7706 198.475,93.5126 193.5,96 181.383,102.059 167.708,97.8962 155.5,104 L147.5,104 L141.5,109 C136.09,109 128.944,109.278 123.5,112 112.976,117.262 103.464,124.018 93.5,129 90.2955,130.602 91.2355,135.029 90,137.5 L84,142.5 C79.8922,150.716 73,159.912 73,168.5 L70,170.5 C67.0128,176.474 69.335,186.83 67,191.5 66.1037,193.293 63.6802,217.86 65,220.5 66.5161,223.532 70.1485,228.203 68,232.5 L64,234.5 C62.3539,237.792 67,242.976 67,245.5 67,258.105 72.2305,272.961 78,284.5 L84,289.5 L84,298.5 L89,303.5 L92,312.5 C95.0509,318.602 101.83,318.665 106.5,321 112.303,323.902 117.757,327.128 123.5,330 L129.5,336 C132.272,337.386 136.769,335 139,335 139,332.005 143.094,326.688 141,322.5 138.923,318.346 132,297.459 132,293.5 132,293.5 136,291.5 136,291.5 136,291.5 133,287 133,287 133,284.249 128,282.435 128,279 128,279 126,277 126,277 126,277 125,276 125,276 125,276 124,275 124,275 124,275 123,273 123,273 123,270.243 119,268.919 119,266 115.168,266 114.245,252.991 113,250.5 113,250.5 110,249.5 110,249.5 110,249.5 110,242.5 110,242.5 108.933,240.365 108.033,238.566 107,236.5 105.748,233.996 109,231.591 109,229 109,218.284 111.522,206.456 116,197.5 123.195,183.109 136.653,169.423 151.5,162 156.751,159.374 163.16,158.67 168.5,156 168.5,156 177.5,155 177.5,155 186.347,150.577 198.516,148 209,148 209,148 211,148 211,148 211,148 240.5,128 240.5,128 244.497,126.002 257.699,137.099 261.5,139 263.597,140.049 275,144.575 275,147 284.208,147 295.828,148.664 304.5,153 305.743,153.621 318.614,153.557 321.5,155 338.478,163.489 357.639,167.779 367,186.5 367,186.5 371,189.5 371,189.5 374.925,197.349 378.045,205.591 382,213.5 383.727,216.954 382.239,221.979 384,225.5 384,225.5 384,238.5 384,238.5 383.327,239.846 379,244.038 379,240 377.527,240 378,241.952 378,243 380.202,243 380.202,246 378,246 378,246 377,251 377,251 379.026,251 376.896,253 376,253 376,253 374,257 374,257 374,257 373,258 373,258 373,258 372,260 372,260 372,261.902 368.168,271 366,271 366,271 364,274 364,274 364,274 363,275 363,275 363,275 362,277 362,277 362,277 361,278 361,278 361,278 360,280 360,280 360,281.634 357.366,284 356,284 356,284 354,288 354,288 354,290.744 362.02,295.46 361,297.5 359.171,301.158 359.766,305.967 358,309.5 354.644,316.212 349,322.968 349,331  Z"/>

<path  fill="#1D68EB" stroke-width="0" stroke="#1D68EB" d = " M238 174 L240,171.5 L242.5,166 C243.247,165.626 250,172.843 250,174 259.94,174 267.612,169.276 272,160.5 272,160.5 273,150.5 273,150.5 273.809,148.881 275,149.029 275,147 275,144.575 263.597,140.049 261.5,139 257.699,137.099 244.497,126.002 240.5,128 240.5,128 211,148 211,148 211,148 210,149 210,149 210,162.478 224.996,174 238,174  Z"/>

<path  fill="#FF6E00" stroke-width="0" stroke="#FF6E00" d = " M268 182 C261.723,182 251.959,185.27 246.5,188 244.983,188.759 224.122,183 220,183 219.186,183 207.566,174.033 205.5,173 204.73,172.615 201,169.438 201,172 193.086,172 177.917,162.792 169.5,167 164.655,169.422 158.213,168.644 153.5,171 147.062,174.219 140.9,177.8 134.5,181 132.21,182.145 132.809,183.882 132,185.5 129.961,189.578 124.798,191.904 123,195.5 120.276,200.949 118.765,206.971 116,212.5 116,212.5 116,217.5 116,217.5 114.926,219.649 111.109,239.717 112,241.5 113.329,244.158 119,263.536 119,266 115.168,266 114.245,252.991 113,250.5 113,250.5 110,249.5 110,249.5 110,249.5 110,242.5 110,242.5 108.933,240.365 108.033,238.566 107,236.5 105.748,233.996 109,231.591 109,229 109,218.284 111.522,206.456 116,197.5 123.195,183.109 136.653,169.423 151.5,162 156.751,159.374 163.16,158.67 168.5,156 168.5,156 177.5,155 177.5,155 186.347,150.577 198.516,148 209,148 209,148 210,149 210,149 210,162.478 224.996,174 238,174 238,174 250,174 250,174 259.94,174 267.612,169.276 272,160.5 272,160.5 273,150.5 273,150.5 273.809,148.881 275,149.029 275,147 284.208,147 295.828,148.664 304.5,153 305.743,153.621 318.614,153.557 321.5,155 338.478,163.489 357.639,167.779 367,186.5 367,186.5 371,189.5 371,189.5 374.925,197.349 378.045,205.591 382,213.5 383.727,216.954 382.239,221.979 384,225.5 384,225.5 384,238.5 384,238.5 383.327,239.846 379,244.038 379,240 379,226.327 375.912,215.324 370,203.5 370,203.5 370,199.5 370,199.5 370,199.5 366,196.5 366,196.5 366,196.5 366,192.5 366,192.5 365.582,191.664 356.31,181.405 355.5,181 351.59,179.045 349.295,175.898 345.5,174 338.851,170.675 331.197,169.348 324.5,166 317.051,162.276 304.873,167 298,167 297.014,167 292,168.087 292,169 290.576,169 287,169.362 287,171 284.581,171 268,180.018 268,182  Z"/>

<path  fill="#814FFF" stroke-width="0" stroke="#814FFF" d = " M356 284 C353.902,284 353,285.939 353,288 348.983,288 340.262,293.119 336.5,295 336.5,295 333.5,301 333.5,301 332.56,301 326.387,301.944 324.5,301 324.5,301 321.5,299 321.5,299 320.013,299 317.5,301 315.5,301 313.749,301 313.455,295.589 314,294.5 316.241,290.017 311.437,282 306,282 306,279.659 303.658,280.579 302.5,280 299.016,278.258 295.894,273 292,273 292,264.458 282,257.226 282,249 282,230.24 287.109,206.718 279,190.5 277.107,186.715 281,183.425 281,180 281,180 282,179 282,179 282,175.795 287,173.909 287,171 287,169.362 290.576,169 292,169 292,172.306 298,169.406 298,167 304.873,167 317.051,162.276 324.5,166 331.197,169.348 338.851,170.675 345.5,174 349.295,175.898 351.59,179.045 355.5,181 356.31,181.405 365.582,191.664 366,192.5 366,192.5 366,196.5 366,196.5 366,196.5 370,199.5 370,199.5 370,199.5 370,203.5 370,203.5 375.912,215.324 379,226.327 379,240 377.527,240 378,241.952 378,243 378,243 378,246 378,246 378,246 377,251 377,251 377,251 376,253 376,253 376,253 374,257 374,257 374,257 373,258 373,258 373,258 372,260 372,260 368.743,260 366,268.273 366,271 366,271 364,274 364,274 364,274 363,275 363,275 363,275 362,277 362,277 362,277 361,278 361,278 361,278 360,280 360,280 360,281.634 357.366,284 356,284  Z"/>

<path  fill="#814FFF" stroke-width="0" stroke="#814FFF" d = " M172 287 L173,287 C173,287 174,286 174,286 174,286 175,285 175,285 175,285 176,285 176,285 176,282.843 189.5,276 191.5,275 195.991,272.754 198.412,263 203,263 203,263 203,261 203,261 203,261 206,250 206,250 204.286,250 205,244.406 205,243 205,243 204,219 204,219 204,214.134 209.393,190.286 209,189.5 207.854,187.209 201,173.399 201,172 193.086,172 177.917,162.792 169.5,167 164.655,169.422 158.213,168.644 153.5,171 147.062,174.219 140.9,177.8 134.5,181 132.21,182.145 132.809,183.882 132,185.5 129.961,189.578 124.798,191.904 123,195.5 120.276,200.949 118.765,206.971 116,212.5 116,212.5 116,217.5 116,217.5 114.926,219.649 111.109,239.717 112,241.5 113.329,244.158 119,263.536 119,266 119,268.919 123,270.243 123,273 123,273 124,275 124,275 124,275 125,276 125,276 126.577,276 127,274.271 127,277 127,277 128,279 128,279 128,282.435 133,284.249 133,287 136.526,287 137.6,291.55 140.5,293 143.063,294.282 154.442,295.529 157.5,294 161.906,291.797 166.772,287 172,287  Z"/>

<path  fill="#022CFF" stroke-width="0" stroke="#022CFF" d = " M206 250 L208,250 C208,250 208,247 208,247 208,240.497 204.583,211.335 207,206.5 210.032,200.436 210.956,193.587 214,187.5 215.333,184.835 220,187.402 220,183 219.186,183 207.566,174.033 205.5,173 204.73,172.615 201,169.438 201,172 201,173.399 207.854,187.209 209,189.5 209.393,190.286 204,214.134 204,219 204,219 205,243 205,243 205,244.406 204.286,250 206,250  Z"/>

<path  fill="#022CFF" stroke-width="0" stroke="#022CFF" d = " M280 248 L282,249 C282,230.24 287.109,206.718 279,190.5 277.107,186.715 281,183.425 281,180 281,180 282,179 282,179 282,175.795 287,173.909 287,171 284.581,171 268,180.018 268,182 276.123,182 279,194.912 279,201 279,201 280,202 280,202 280,207.674 283.571,226.359 281,231.5 279.371,234.758 279,241.289 279,245 280.473,245 280,246.952 280,248  Z"/>

<path  fill="#FF0800" stroke-width="0" stroke="#FF0800" d = " M213 255 L218,257 C221.766,257 221.47,258.485 224.5,260 228.237,261.868 250.056,261 254.5,261 254.5,261 258.5,258 258.5,258 261.201,256.65 264.483,259.009 266.5,258 268.285,257.107 271.128,255.186 273.5,254 275.25,253.125 274.892,248 278,248 278,246.952 277.527,245 279,245 279,241.289 279.371,234.758 281,231.5 283.571,226.359 280,207.674 280,202 280,202 279,201 279,201 279,194.912 276.123,182 268,182 261.723,182 251.959,185.27 246.5,188 244.983,188.759 224.122,183 220,183 220,187.402 215.333,184.835 214,187.5 210.956,193.587 210.032,200.436 207,206.5 204.583,211.335 208,240.497 208,247 209.473,247 209,248.952 209,250 210.811,250 213,253.438 213,255  Z"/>

<path  fill="#FF6E00" stroke-width="0" stroke="#FF6E00" d = " M378 243 C380.202,243 380.202,246 378,246 378,246 378,243 378,243  Z"/>

<path  fill-rule="evenodd" fill="#E1F00D" stroke-width="0" stroke="#E1F00D" d = " M308 284 C308,285.93 309.93,284 308,284  M242 312 C230.1,312 238.115,314.693 231.5,318 L221.5,318 L212.5,323 L203,324.5 C202.084,326.331 206.724,332.051 205,335.5 201.334,342.832 196.066,343.717 189.5,347 183.641,349.93 161.014,346.757 155.5,344 148.31,340.405 150.902,335 139,335 139,332.005 143.094,326.688 141,322.5 138.923,318.346 132,297.459 132,293.5 132,293.5 136,291.5 136,291.5 136,291.5 133,287 133,287 136.526,287 137.6,291.55 140.5,293 143.063,294.282 154.442,295.529 157.5,294 161.906,291.797 166.772,287 172,287 172,289.373 175.336,287 173,287 173,287 174,286 174,286 174,288.254 181.491,286.504 182.5,286 189.536,282.482 194.44,277 203,277 209.982,277 216.946,279.609 221,271.5 221.523,270.453 222.748,268.995 222,267.5 222,267.5 216,262 216,262 216,258.276 221.34,266.821 223,263.5 224.22,261.06 218,258.778 218,257 221.766,257 221.47,258.485 224.5,260 228.237,261.868 250.056,261 254.5,261 254.5,261 258.5,258 258.5,258 261.201,256.65 264.483,259.009 266.5,258 268.285,257.107 271.128,255.186 273.5,254 275.25,253.125 274.892,248 278,248 278,248 280,248 280,248 280,248 282,249 282,249 282,257.226 292,264.458 292,273 288.544,273 289.101,268 286,268 285.062,268 272.056,253.388 265,267.5 262.654,272.191 287,283.033 287,276 291.491,276 298.479,280.989 302.5,283 302.5,283 306,282 306,282 311.437,282 316.241,290.017 314,294.5 313.455,295.589 313.749,301 315.5,301 317.5,301 320.013,299 321.5,299 321.5,299 324.5,301 324.5,301 326.387,301.944 332.56,301 333.5,301 333.5,301 336.5,295 336.5,295 340.262,293.119 348.983,288 353,288 353,288 354,288 354,288 354,290.744 362.02,295.46 361,297.5 359.171,301.158 359.766,305.967 358,309.5 354.644,316.212 349,322.968 349,331 349,336.343 343.317,328.866 342,331.5 338.929,337.642 348.256,340.622 337.5,346 335.535,346.982 333.652,347.076 331.5,346 328.547,344.523 329.678,340.089 327.5,339 324.742,337.621 308.478,347.489 305.5,346 296.019,341.259 286.588,337.088 278.5,329 276.578,327.078 278.234,318.867 276.5,318 270.887,315.194 261.991,318.746 256.5,316 252.587,314.043 252.082,311 247,311 247,306.649 249.471,304 244.5,304 243.455,304 242.639,302 241,302 238.918,302 236.781,304 240,304 240,307.217 242,309.117 242,312  Z"/>

<path  fill="#E1F00D" stroke-width="0" stroke="#E1F00D" d = " M214 262 C210.762,262 208.7,265 206,265 206,262.889 209,262.121 209,261.5 209,261.5 203,261 203,261 203,261 206,250 206,250 206,250 208,250 208,250 208,250 209,250 209,250 210.811,250 213,253.438 213,255 208.758,255 214,260.398 214,262  Z"/>

<path  fill="#FF6E00" stroke-width="0" stroke="#FF6E00" d = " M377 251 C379.026,251 376.896,253 376,253 376,253 377,251 377,251  Z"/>

<path  fill="#0008B6" stroke-width="0" stroke="#0008B6" d = " M214 262 L216,262 C216,258.276 221.34,266.821 223,263.5 224.22,261.06 218,258.778 218,257 218,257 213,255 213,255 208.758,255 214,260.398 214,262  Z"/>

<path  fill="#0008B6" stroke-width="0" stroke="#0008B6" d = " M206 265 L204,267 C200.569,267 203,265.061 203,263 203,263 203,261 203,261 203,261 209,261.5 209,261.5 209,262.121 206,262.889 206,265  Z"/>

<path  fill="#7CFC00" stroke-width="0" stroke="#7CFC00" d = " M203 270 L203,277 C209.982,277 216.946,279.609 221,271.5 221.523,270.453 222.748,268.995 222,267.5 222,267.5 216,262 216,262 216,262 214,262 214,262 210.762,262 208.7,265 206,265 206,265 204,267 204,267 204,267 203,270 203,270  Z"/>

<path  fill="#7CFC00" stroke-width="0" stroke="#7CFC00" d = " M286 268 C285.062,268 272.056,253.388 265,267.5 262.654,272.191 287,283.033 287,276 285.265,276 286,269.49 286,268  Z"/>

<path  fill="#E1F00D" stroke-width="0" stroke="#E1F00D" d = " M203 270 L197.5,275 C193.83,276.835 179.174,285 176,285 176,282.843 189.5,276 191.5,275 195.991,272.754 198.412,263 203,263 203,265.061 200.569,267 204,267 204,267 203,270 203,270  Z"/>

<path  fill-rule="evenodd" fill="#FFBB00" stroke-width="0" stroke="#FFBB00" d = " M287 272 C287,274.091 290.746,272 287,272  M287 276 C291.491,276 298.479,280.989 302.5,283 L306,282 C306,279.659 303.658,280.579 302.5,280 299.016,278.258 295.894,273 292,273 288.544,273 289.101,268 286,268 286,269.49 285.265,276 287,276  Z"/>

<path  fill="#FFBB00" stroke-width="0" stroke="#FFBB00" d = " M175 285 L176,285 C179.174,285 193.83,276.835 197.5,275 197.5,275 203,270 203,270 203,270 203,277 203,277 194.44,277 189.536,282.482 182.5,286 181.491,286.504 174,288.254 174,286 174,286 175,285 175,285  Z"/>

<path  fill="#7CFC00" stroke-width="0" stroke="#7CFC00" d = " M287 272 C287,274.091 290.746,272 287,272  Z"/>

<path  fill="#FF6E00" stroke-width="0" stroke="#FF6E00" d = " M123 273 L124,275 C124,275 123,273 123,273  Z"/>

<path  fill="#FF6E00" stroke-width="0" stroke="#FF6E00" d = " M126 277 L127,277 C127,274.271 126.577,276 125,276 125,276 126,277 126,277  Z"/>

<path  fill="#FFBB00" stroke-width="0" stroke="#FFBB00" d = " M308 284 C308,285.93 309.93,284 308,284  Z"/>

<path  fill="#E1F00D" stroke-width="0" stroke="#E1F00D" d = " M175 285 L174,286 C174,286 175,285 175,285  Z"/>

<path  fill="#FFBB00" stroke-width="0" stroke="#FFBB00" d = " M172 287 L173,287 C175.336,287 172,289.373 172,287  Z"/>

<path  fill="#022CFF" stroke-width="0" stroke="#022CFF" d = " M247 311 C247,313.696 242,324.397 242,312 242,309.117 240,307.217 240,304 240,304 241,302 241,302 242.639,302 243.455,304 244.5,304 249.471,304 247,306.649 247,311  Z"/>

<path  fill="#267EFF" stroke-width="0" stroke="#267EFF" d = " M241 322 C241,326.526 224.802,327.104 229,335.5 230.329,338.158 236.452,337 239,337 247.587,337 258.198,339.105 262,331.5 L263,329.5 L258.5,327 L251,322 C247.996,322 244.876,322 241,322  Z"/>

<path  fill="#FA8072" stroke-width="0" stroke="#FA8072" d = " M114 338 L113,341.5 C115.784,347.069 126.713,349.607 131.5,352 133.073,352.787 132.38,360.56 137.5,358 139.792,356.854 139.792,351.146 137.5,350 135.555,349.027 133.657,350.578 132.5,350 130.165,348.833 130.915,345.33 130,343.5 127.585,338.669 125.224,343.362 122.5,342 119.879,340.69 117.083,338 114,338  Z"/>

<path  fill="#FA8072" stroke-width="0" stroke="#FA8072" d = " M361 340 C361,345.356 355.865,346.771 354,350.5 351.873,354.755 359.113,355 361.5,355 363.991,355 362.461,350.577 363,349.5 L365.5,349 C372.069,345.716 365.752,340 361,340  Z"/>

<path  fill="#FA8072" stroke-width="0" stroke="#FA8072" d = " M298 347 L294.5,349 C294.089,349.205 289.469,355.562 289,356.5 L289.5,364 C286.56,364 283.206,363.089 281,367.5 279.242,371.017 280.481,384.462 282,387.5 283.757,391.013 286.076,388.788 288.5,390 290.712,391.106 292.238,395.631 295.5,394 297.178,393.161 296.679,389 299.5,389 301.564,389 304.071,395.359 305,393.5 305.953,391.594 301.314,389.873 303,386.5 L306.5,387 C307.675,386.412 314.544,380.411 315,379.5 316.851,375.798 314.201,370.098 316,366.5 317.305,363.891 320.607,364.286 322,361.5 326.131,353.238 303.284,347 298,347  Z"/>

<path  fill="#FA8072" stroke-width="0" stroke="#FA8072" d = " M191 349 C191,351.67 184.125,350.187 182.5,351 L177.5,356 C174.959,357.27 169.528,357.444 168,360.5 165.293,365.914 176.856,369.212 179,373.5 L180,383.5 C181.637,386.774 184.728,387.956 187,392.5 189.222,396.944 201.458,392 205.5,392 L210,386.5 C211.028,384.444 209.792,380.084 209,378.5 207.336,375.171 209.716,369.931 208,366.5 206.696,363.893 197.918,361.336 196,357.5 193.4,352.301 200.172,349 191,349  Z"/>

<path  fill="#FA8072" stroke-width="0" stroke="#FA8072" d = " M153 370 C153,372.607 151,376.015 151,378.5 151,381.557 156.589,384.455 159.5,383 164.552,380.474 162.151,370 153,370  Z"/>

<path  fill="#FA8072" stroke-width="0" stroke="#FA8072" d = " M341 371 C341,377.295 347.295,371 341,371  Z"/>

</g>
</svg>
