<svg xmlns="http://www.w3.org/2000/svg" xmlns:xlink="http://www.w3.org/1999/xlink" height="512" width="512">
<g>
<rect width="512" height="512" fill="#000000"  stroke-width="0" /> 
<path  fill="#03C12D" stroke-width="0" stroke="#03C12D" d = " M323 226 C323,223.546 310.941,215.221 308.5,214 304.632,212.066 301.214,209.857 297.5,208 296.095,207.298 288.602,209.295 288,210.5 285.513,215.475 268.861,221.319 263.5,224 261.773,224.864 253.33,232 253,232 245.315,232 244.431,209.639 238,222.5 238,222.5 234,226 234,226 219.749,226 203.683,205 193.5,205 185.969,205 169.403,223 168,223 164.861,223 159.421,227.46 156.5,226 149.312,222.406 146.584,207.669 143,200.5 141.014,196.529 137.996,193.492 136,189.5 132.233,181.966 133.43,167.64 137,160.5 137,160.5 145.5,152 145.5,152 145.5,152 157.5,141 157.5,141 172.349,133.576 203.241,117.871 221.5,127 227.312,129.906 235.79,133.081 239,139.5 239.803,141.105 245.043,153.229 245.5,153 245.5,153 248,144.5 248,144.5 250.741,139.018 254.444,135.613 257,130.5 257.91,128.679 272.711,123.395 275.5,122 277.528,120.986 294.486,123.993 296.5,125 301.586,127.543 311.408,127.954 317.5,131 334.058,139.279 349.623,153.747 358,170.5 360.052,174.603 356.53,181.439 355,184.5 355,184.5 354,190.5 354,190.5 350.416,197.668 338.462,224.519 331.5,228 331.5,228 323,226 323,226  Z"/>

<path  fill-rule="evenodd" fill="#FF8700" stroke-width="0" stroke="#FF8700" d = " M193 232 C193,236.077 207.776,254.362 210.5,253 213.456,251.522 207.536,247.573 207,246.5 203.273,239.046 203.668,232 193,232  M244 255 L244,256 C241.694,256 238.989,266.523 238,268.5 234.808,274.883 223.974,279.263 218.5,282 215.734,283.383 211.567,280.033 209.5,279 209.5,279 200.5,279 200.5,279 200.5,279 196.5,274 196.5,274 193.826,272.663 193.211,270.355 190.5,269 190.5,269 183.5,268 183.5,268 174.577,263.539 167.156,248.811 163,240.5 160.144,234.789 168,227.729 168,223 169.403,223 185.969,205 193.5,205 203.683,205 219.749,226 234,226 234,229.836 239.407,231.314 241,234.5 243.56,239.619 244,245.754 244,252 244,252 244,253 244,253 242.601,253 242.601,255 244,255  Z"/>

<path  fill-rule="evenodd" fill="#FF8700" stroke-width="0" stroke="#FF8700" d = " M289 234 C289,235.631 279.838,247.824 279,249.5 278.505,250.491 275.175,254.838 277.5,256 L284.5,252 C285.486,251.014 286.944,247.278 287.5,247 295.162,243.169 301.455,234 289,234  M245 252 L245,258 C245,261.852 247.427,260.353 249,263.5 249,263.5 248,268.5 248,268.5 252.218,276.936 258.012,277.256 265.5,281 270.005,283.253 271.171,289.665 280.5,285 280.5,285 282.5,281 282.5,281 284.843,279.828 288.228,280.136 290.5,279 290.5,279 299.5,270 299.5,270 309.395,265.053 320.321,252.859 325,243.5 327.639,238.223 323,230.343 323,226 323,223.546 310.941,215.221 308.5,214 304.632,212.066 301.214,209.857 297.5,208 296.095,207.298 288.602,209.295 288,210.5 285.513,215.475 268.861,221.319 263.5,224 261.773,224.864 253.33,232 253,232 253,232 249,235.5 249,235.5 246.942,239.615 245,247.23 245,252  Z"/>

<path  fill="#FF4FCE" stroke-width="0" stroke="#FF4FCE" d = " M193 232 C193,236.077 207.776,254.362 210.5,253 213.456,251.522 207.536,247.573 207,246.5 203.273,239.046 203.668,232 193,232  Z"/>

<path  fill="#FF4FCE" stroke-width="0" stroke="#FF4FCE" d = " M289 234 C289,235.631 279.838,247.824 279,249.5 278.505,250.491 275.175,254.838 277.5,256 L284.5,252 C285.486,251.014 286.944,247.278 287.5,247 295.162,243.169 301.455,234 289,234  Z"/>

<path  fill="#FFE300" stroke-width="0" stroke="#FFE300" d = " M244 256 L245,258 C245,258 245,252 245,252 245,252 244,252 244,252 244,252 244,253 244,253 244,253 244,255 244,255 244,255 244,256 244,256  Z"/>

<path  fill="#30DA00" stroke-width="0" stroke="#30DA00" d = " M209 298 C209,298.046 204.351,299.798 203,302.5 L204,305 L204,310.5 C206.144,314.787 226.29,317.081 220,304.5 218.192,300.883 218.651,302.576 215.5,301 212.47,299.485 212.766,298 209,298  Z"/>

<path  fill="#30DA00" stroke-width="0" stroke="#30DA00" d = " M285 298 C285,299.183 281.43,299.535 280.5,300 L275,306.5 C273.027,310.446 280.128,313 283,313 293.693,313 297.508,298 285,298  Z"/>

<path  fill="#FA8072" stroke-width="0" stroke="#FA8072" d = " M306 299 L305,303.5 L305,307 C305,317.072 317.188,299 306,299  Z"/>

<path  fill="#FA8072" stroke-width="0" stroke="#FA8072" d = " M184 304 C184,316.763 198.973,304 184,304  Z"/>

<path  fill="#FA8072" stroke-width="0" stroke="#FA8072" d = " M286 370 C286,370.974 281.781,372.937 281,374.5 279.072,378.357 283,382.769 283,385.5 283,387.667 279.425,390.35 281,393.5 282.745,396.99 285.394,396.447 288.5,398 290.03,398.765 288.219,401.859 290.5,403 L295.5,401 L300.5,403 C305.384,400.558 298.332,394.084 304.5,391 308.326,389.087 308.414,397.457 311.5,399 314.08,400.29 315.705,395.897 317.5,395 L321,392.5 C322.815,388.871 313.068,382.284 310.5,381 L304.5,379 L301.5,381 L302,379 L301,372.5 C299.481,369.463 289.128,370 286,370  Z"/>

<path  fill="#FA8072" stroke-width="0" stroke="#FA8072" d = " M196 373 L193,375.5 C192.128,377.245 190.472,386 187.5,386 L185.5,384 C182.082,382.291 177.964,388.571 177,390.5 175.748,393.005 170.734,393.969 173,398.5 176.623,405.745 185.935,394.218 191.5,397 L195.5,401 L201.5,396 C204.264,397.382 206.944,407.278 211.5,405 222.645,399.427 211.273,393.955 212,392.5 220.77,374.96 212.628,373 196,373  Z"/>

</g>
</svg>
