<svg xmlns="http://www.w3.org/2000/svg" xmlns:xlink="http://www.w3.org/1999/xlink" height="512" width="512">
<g>
<rect width="512" height="512" fill="#000000"  stroke-width="0" /> 
<path  fill="#FA8072" stroke-width="0" stroke="#FA8072" d = " M329 368 C329,371.746 331.091,368 329,368  Z"/>

<path  fill="#FA8072" stroke-width="0" stroke="#FA8072" d = " M332 370 C332,371.423 330.022,373.544 331,375.5 333.167,379.833 342.133,370 332,370  Z"/>

<path  fill="#FA8072" stroke-width="0" stroke="#FA8072" d = " M328 377 C328,382.567 330.112,377 328,377  Z"/>

<path  fill="#FA8072" stroke-width="0" stroke="#FA8072" d = " M339 377 C339,379.632 339.079,381.341 338,383.5 337.25,385 338.659,393.183 340,390.5 340.82,388.86 340.173,377 339,377  Z"/>

<path  fill="#FA8072" stroke-width="0" stroke="#FA8072" d = " M331 382 C331,383.624 329,384.75 329,387 329,404.384 345.302,382 331,382  Z"/>

</g>
</svg>
