<svg xmlns="http://www.w3.org/2000/svg" xmlns:xlink="http://www.w3.org/1999/xlink" height="512" width="512">
<g>
<rect width="512" height="512" fill="#000000"  stroke-width="0" /> 
<path  fill="#FFE300" stroke-width="0" stroke="#FFE300" d = " M235 175 C232.141,175 236.347,163.807 237,162.5 237.949,160.602 233.837,154.175 233,152.5 224.804,136.107 204.617,147.442 195.5,152 L190.5,158 C176.958,164.771 179,186.587 179,199.5 179,205.903 181,211.041 181,218 181,219.321 181.684,224 180,224 177.84,224 177,217.93 177,216 177,208.151 175,200.295 175,192 175,172.654 184.012,153.744 201.5,145 201.5,145 205.5,145 205.5,145 205.5,145 211.5,141 211.5,141 216.181,138.66 232.755,145.01 235,149.5 235,149.5 235,154.5 235,154.5 238.005,160.51 240,162.547 240,170 240,170 235,175 235,175  Z"/>

<path  fill="#FFE300" stroke-width="0" stroke="#FFE300" d = " M263 144 L280,144 C280,141.015 263,140.032 263,144  Z"/>

<path  fill="#FF8700" stroke-width="0" stroke="#FF8700" d = " M180 224 C180,234.853 192.187,258.344 201.5,263 204.667,264.583 206.183,269 210,269 210,268.25 220.137,264.681 221.5,264 222.474,263.513 231.068,251.363 232,249.5 232,249.5 233,234.5 233,234.5 235.587,229.326 241.318,195.136 239,190.5 239,190.5 235,176 235,176 235,176 235,175 235,175 232.141,175 236.347,163.807 237,162.5 237.949,160.602 233.837,154.175 233,152.5 224.804,136.107 204.617,147.442 195.5,152 195.5,152 190.5,158 190.5,158 176.958,164.771 179,186.587 179,199.5 179,205.903 181,211.041 181,218 181,219.321 181.684,224 180,224  Z"/>

<path  fill="#FFE300" stroke-width="0" stroke="#FFE300" d = " M263 144 C261.571,144 259,145.288 259,147 260.429,147 263,145.712 263,144  Z"/>

<path  fill="#FF8700" stroke-width="0" stroke="#FF8700" d = " M309 226 C309,228.106 299.489,253.523 298,256.5 L287.5,267 L282,270 C277.91,270 264.989,265.478 263,261.5 263,261.5 261.5,257 261.5,257 261.5,257 257,254.5 257,254.5 254.633,249.765 253.375,244.25 251,239.5 251,239.5 251,224.5 251,224.5 247.777,218.054 249.018,200.464 252,194.5 253.839,190.822 252.083,185.334 254,181.5 256.527,176.446 252,165.746 252,161.5 252,156.567 259,152.53 259,147 260.429,147 263,145.712 263,144 263,144 280,144 280,144 280,144 283,144 283,144 283,144 284,145 284,145 284,145 287,146 287,146 287,146 291,148.5 291,148.5 294.878,152.378 298.683,154.183 302.5,158 306.149,161.649 309.242,173.983 312,179.5 313.154,181.808 311.918,187.663 311,189.5 309.972,191.556 311.208,195.916 312,197.5 312.969,199.439 309.053,215.393 308,217.5 307.631,218.238 308.177,226 309,226  Z"/>

<path  fill="#FFE300" stroke-width="0" stroke="#FFE300" d = " M283 144 L284,145 C284,145 283,144 283,144  Z"/>

<path  fill="#FFE300" stroke-width="0" stroke="#FFE300" d = " M287 146 C306.858,146 322.416,187.668 314,204.5 312.535,207.43 313.915,226 309,226 308.177,226 307.631,218.238 308,217.5 309.053,215.393 312.969,199.439 312,197.5 311.208,195.916 309.972,191.556 311,189.5 311.918,187.663 313.154,181.808 312,179.5 309.242,173.983 306.149,161.649 302.5,158 298.683,154.183 294.878,152.378 291,148.5 291,148.5 287,146 287,146  Z"/>

<path  fill="#FFE300" stroke-width="0" stroke="#FFE300" d = " M210 269 C212.259,269 215.151,272.675 218.5,271 221.241,269.629 239.129,258.242 240,256.5 241.527,253.445 240.726,235.113 244.5,237 L246,252.5 C247.721,255.942 252.159,257.818 254,261.5 255.741,264.981 272.635,273.433 275.5,272 277.176,271.162 282,273.474 282,270 277.91,270 264.989,265.478 263,261.5 263,261.5 261.5,257 261.5,257 261.5,257 257,254.5 257,254.5 254.633,249.765 253.375,244.25 251,239.5 251,239.5 251,224.5 251,224.5 247.777,218.054 249.018,200.464 252,194.5 253.839,190.822 252.083,185.334 254,181.5 256.527,176.446 252,165.746 252,161.5 252,156.567 259,152.53 259,147 253.247,147 249,167.965 249,173 250.156,173 250.472,175.555 250,176.5 248.724,179.052 250.349,186.576 247.5,188 247.5,188 244,185.5 244,185.5 242.695,184.195 235.209,176 235,176 235,176 239,190.5 239,190.5 241.318,195.136 235.587,229.326 233,234.5 233,234.5 232,249.5 232,249.5 231.068,251.363 222.474,263.513 221.5,264 220.137,264.681 210,268.25 210,269  Z"/>

<path  fill="#0F6DE6" stroke-width="0" stroke="#0F6DE6" d = " M235 175 L235,176 C235.209,176 242.695,184.195 244,185.5 244,185.5 247.5,188 247.5,188 250.349,186.576 248.724,179.052 250,176.5 250.472,175.555 250.156,173 249,173 245.324,173 242.561,170 240,170 240,170 235,175 235,175  Z"/>

<path  fill="#30DA00" stroke-width="0" stroke="#30DA00" d = " M365 264 C365,264.594 342.747,274.993 345,279.5 346.673,282.846 349.148,281.824 351.5,283 355.905,285.203 363.068,284.364 366,278.5 L366.5,276 L369.5,276 C378.496,271.502 372.907,264 365,264  Z"/>

<path  fill="#30DA00" stroke-width="0" stroke="#30DA00" d = " M124 276 C124,277.804 121.818,281.136 123,283.5 L126.5,285 L128.5,289 C132.965,291.233 148.854,296.793 152,290.5 153.144,288.212 149.812,286.124 149,284.5 145.962,278.424 132.125,276 124,276  Z"/>

<path  fill="#FA8072" stroke-width="0" stroke="#FA8072" d = " M192 290 C192,293.746 194.091,290 192,290  Z"/>

<path  fill-rule="evenodd" fill="#FA8072" stroke-width="0" stroke="#FA8072" d = " M302 393 C302,396.746 304.091,393 302,393  M294 367 C294,370.586 287.392,369.054 285.5,370 281.888,371.806 279.127,383.753 281,387.5 282.69,390.881 285.98,390.74 288.5,392 290.227,392.863 291.434,401.533 296.5,399 L300.5,397 L301.5,395 C302.25,395 302.816,401 305.5,401 L311.5,395 C315.454,393.023 319.638,398.223 323,391.5 325.867,385.767 319.364,381.864 316.5,379 315.037,377.537 309.663,374.826 309,373.5 307.975,371.45 309.471,369.485 306.5,368 L302.5,369 C300.171,367.836 296.721,367 294,367  Z"/>

<path  fill="#FA8072" stroke-width="0" stroke="#FA8072" d = " M190 371 C190,376.733 183.205,376.148 179.5,378 176.889,379.306 178.112,384.194 176.5,385 L172.5,384 C171.776,384.362 164.357,393.787 164,394.5 161.159,400.182 169.121,404.69 172.5,403 175.574,401.463 177.483,397.509 180.5,396 183.544,394.478 186.377,397.939 188.5,399 190.883,400.192 194.682,395.909 196.5,395 199.789,393.356 198.164,401 200.5,401 204.58,401 201.454,392.592 202,391.5 203.362,388.776 206.967,386.565 208,384.5 208.867,382.767 206.628,380.756 206,379.5 L206,375.5 C205.192,373.883 191.292,371 190,371  Z"/>

<path  fill="#FA8072" stroke-width="0" stroke="#FA8072" d = " M205 393 L205.5,399 C205.915,399 208.497,393 205,393  Z"/>

</g>
</svg>
