<svg xmlns="http://www.w3.org/2000/svg" xmlns:xlink="http://www.w3.org/1999/xlink" height="512" width="512">
<g>
<rect width="512" height="512" fill="#000000"  stroke-width="0" /> 
<path  fill-rule="evenodd" fill="#FFFF00" stroke-width="0" stroke="#FFFF00" d = " M248 94 C248,96.2608 241.906,94.2969 240.5,95 233.261,98.6193 221.348,94.0759 215.5,97 212.097,98.7014 200.063,115.374 198,119.5 196.976,121.548 190.489,122.479 192,125.5 L196.5,124 C198.275,123.113 202.511,114.494 203.5,114 L205.5,115 C205.647,115 209.983,108.758 211.5,108 217.805,104.848 234.242,101 241.5,101 249.996,101 270.519,106.51 277.5,110 L288,118.5 L291,122.5 C291.079,122.658 290.949,127.602 292,125.5 293.663,122.173 291.255,115.009 290,112.5 L286,110.5 C282.387,103.274 271.965,101.232 265.5,98 L263.5,95 C259.568,93.0342 251.44,94 248,94  M277 93 C277,95.0912 280.746,93 277,93  M222 85 C222,91.6339 232.864,85 224.5,85 L222,85  M99 215 L100,215 C102.607,215 104.54,216.48 107.5,215 117.217,210.142 113.638,186.777 110,179.5 110,179.5 109,160.5 109,160.5 106.257,155.014 96.6131,160.726 95,157.5 93.0177,153.535 111.667,135.417 114.5,134 120.566,130.967 116.23,146.365 119.5,148 124.641,150.571 121.667,157.833 123,160.5 125.354,165.208 120.159,175.818 123,181.5 123,181.5 126,191.5 126,191.5 126,191.5 132,194.5 132,194.5 132.851,196.202 132.434,199.967 134.5,201 140.956,204.228 155.371,185.241 152,178.5 152,178.5 139,167.5 139,167.5 135.595,160.689 143.931,144.362 141,138.5 140.218,136.936 140.731,134.962 140,133.5 138.621,130.742 132.013,129.474 134,125.5 136.457,120.586 145.282,118.109 149.5,116 152.03,114.735 157.776,116.052 159,118.5 159.344,119.187 152.849,127.802 152,129.5 148.667,136.167 156,143.879 156,149.5 156,152.135 157.457,167.022 161.5,165 180.626,155.437 164.904,136.691 170,126.5 170,126.5 174,118.5 174,118.5 175.619,115.262 190.321,108.857 193,103.5 194.901,99.6976 200.099,81.7996 208.5,86 208.5,86 214,87.5 214,87.5 214,87.5 204,97.5 204,97.5 200.727,104.045 195.28,109.941 192,116.5 190.161,120.178 184.003,119.493 182,123.5 179.143,129.214 182.673,131.846 185,136.5 186.785,140.07 183.413,149.673 182,152.5 180.175,156.151 165.671,181.085 173.5,185 178.666,187.583 181.006,180.747 184.5,179 191.757,175.372 189.81,170.879 193,164.5 195.171,160.157 198.82,156.86 201,152.5 204.357,145.786 201,146.592 201,141.5 201,137.045 203.094,131.311 205,127.5 205,127.5 212,120.5 212,120.5 212.915,118.67 213.203,115.149 215.5,114 215.5,114 222.5,112 222.5,112 222.5,112 232.5,113 232.5,113 242.029,108.236 252.206,106.853 262.5,112 262.5,112 267.5,112 267.5,112 280.178,118.339 280.176,121.852 286,133.5 286,133.5 286,149.5 286,149.5 289.307,156.114 290.722,163.943 294,170.5 295.631,173.762 307.886,185.307 312.5,183 315.376,181.562 313.952,176.403 313,174.5 313,174.5 312,165.5 312,165.5 312,165.5 302,151.5 302,151.5 297.862,143.224 306.113,126.727 300,114.5 297.477,109.454 289.705,105.911 287,100.5 286.442,99.3845 278.472,96.5141 279.5,96 287.249,92.1257 285.206,99 287.5,99 295.575,99 292.236,100.368 297.5,103 300.556,104.528 320,108.72 320,114.5 320,114.5 316,122.5 316,122.5 316,122.5 316,134.5 316,134.5 312.511,141.478 313.216,153.858 321.5,158 327.044,160.772 332,142.876 332,139 332,125.712 325.52,108.51 346.5,119 346.5,119 353.5,120 353.5,120 359.501,123 345.739,133.023 344,136.5 343.19,138.121 346.364,141.228 347,142.5 347,142.5 347,158.5 347,158.5 344.675,163.15 337.663,163.918 333.5,166 333.5,166 333,168.5 333,168.5 332.287,169.926 329.988,171.524 329,173.5 327.172,177.157 339.372,191.436 342.5,193 346.964,195.232 352.781,185.859 356.5,184 370.638,176.931 357.12,153.26 361,145.5 361,145.5 366,137.5 366,137.5 368.122,133.256 363.028,127 370.5,127 373.712,127 387.722,143.057 386,146.5 385.023,148.454 383.275,145.388 382.5,145 382.5,145 376,146 376,146 376,146 374,147.5 374,147.5 374,147.876 375.263,161.974 375,162.5 370.934,170.633 368.559,185.618 373,194.5 375.192,198.883 373.458,205.479 378.5,208 378.5,208 382.5,210 382.5,210 382.5,210 384,199.5 384,199.5 384,195.103 387.072,181.357 389,177.5 389.884,175.733 388.211,172.145 390.5,171 401.887,165.307 402,170.026 402,180 402,181.423 403.978,183.544 403,185.5 400.438,190.624 403,197.466 403,202.5 403,209.457 393.698,208.401 390.5,210 389.139,210.681 386,207.567 386,210 386,211.577 387.762,212 389,212 389,212 390,212 390,212 394.685,212 402.979,212.542 406,206.5 407.645,203.21 406.412,191.324 405,188.5 405,188.5 405,173.5 405,173.5 402.255,168.01 402.708,160.916 400,155.5 399.387,154.275 397.812,155.123 397,153.5 395.186,149.873 391.853,147.206 390,143.5 390,143.5 390,139.5 390,139.5 388.581,136.662 385.643,136.071 383.5,135 383.5,135 377.5,127 377.5,127 371.822,124.161 365.096,123.798 359.5,121 356.127,119.313 354.009,114.755 350.5,113 345.866,110.683 339.272,112.386 334.5,110 331.828,108.664 326.128,111.814 324.5,111 318.576,108.038 315.605,102.053 309.5,99 309.5,99 302.5,100 302.5,100 294.45,95.9751 288.269,90.8843 280.5,87 280.5,87 271.5,87 271.5,87 264.024,83.2622 234.084,73.2079 224.5,78 216.029,82.2356 206.796,78.852 198.5,83 194.484,85.0079 192.247,98.0068 190,102.5 188.208,106.085 180.937,110.782 178.5,112 178.5,112 173.5,112 173.5,112 173.5,112 169.5,117 169.5,117 167.573,117.963 166.204,111.852 164.5,111 163.241,110.37 151.182,109.659 150.5,110 147.621,111.44 144.281,111.61 141.5,113 136.448,115.526 131.745,122.378 126.5,125 123.43,126.535 119.544,126.478 116.5,128 116.5,128 107.5,135 107.5,135 107.5,135 102.5,134 102.5,134 99.0923,135.704 99.004,140.248 95.5,142 94.9414,142.279 91.0824,158.335 90,160.5 88.2467,164.007 85.7144,165.071 84,168.5 81.1017,174.297 83.5825,185.335 81,190.5 75.9147,200.671 77.5502,213 91,213 91,213 88,211.5 88,211.5 88,211.5 81,203.5 81,203.5 80.4789,202.458 84.1704,183.159 85,181.5 85,181.5 86.5,176 86.5,176 89.3849,176 90.146,179.792 91,181.5 91,181.5 95,186.5 95,186.5 96.7479,189.996 95.2307,194.961 97,198.5 97,198.5 97,211.5 97,211.5 97.8093,213.119 99,212.971 99,215  Z"/>

<path  fill="#00FFFF" stroke-width="0" stroke="#00FFFF" d = " M222 85 C222,91.6339 232.864,85 224.5,85 L222,85  Z"/>

<path  fill-rule="evenodd" fill="#00FFFF" stroke-width="0" stroke="#00FFFF" d = " M245 175 C245,177.016 237.302,178 235.5,178 233.882,178 217.129,183.242 216,185.5 213.309,190.882 225.365,197 229,197 L238.5,200 C243.33,202.415 258.424,195.038 262.5,193 265.413,191.543 276.662,189.823 273,182.5 271.111,178.723 263.625,179.562 260.5,178 256.292,175.896 249.942,175 245,175  M42 242 C42,257.828 57.4955,248.498 66.5,253 69.5724,254.536 68.0091,259.745 65.5,261 64.2599,261.62 55.2425,262.985 56,264.5 L61.5,265 L62.5,268 C64.1039,268.802 64.1006,264.7 65.5,264 L70.5,267 C73.3365,268.418 72.5861,263.328 73,262.5 L81.5,255 C93.5046,248.998 108.457,249.021 120.5,243 123.04,241.73 132.606,236.553 135.5,238 140.42,240.46 134,243.39 134,245 134,245 137.5,246 137.5,246 142.201,243.65 145.391,238 151,238 151,235.532 152.721,235.89 154.5,235 154.5,235 157.5,231 157.5,231 161.95,228.775 166.643,231 171,231 171,231 179,228 179,228 179,228 191,228 191,228 191,228 196,228 196,228 197.424,228 201,228.362 201,230 201,230 202,230 202,230 203.321,230 208,229.316 208,231 208,231 209,231 209,231 209,229.155 212.381,229.559 213.5,229 216.506,227.497 219.112,221.806 223.5,224 225.312,224.906 222.793,227 226,227 226,218.619 240.759,229 246.5,229 249.632,229 262,216.634 262,225 263.98,225 277,225.215 277,228 285.828,228 296.603,228 305.5,228 307.7,228 315,228.748 315,231 315,231 326.5,229 326.5,229 327.991,229.745 328.833,232 330.5,232 333.112,232 336,232.663 336,237 343.482,237 350.699,243 354,243 354,240.732 359.85,240.175 361.5,241 369.326,244.913 376.682,249.091 384.5,253 386.761,254.131 387.619,247.059 391.5,249 396.616,251.558 391.298,255.899 397.5,259 402.108,261.304 401.974,249.737 410.5,254 411.537,254.518 418.476,271.548 417,274.5 415.316,277.867 408.642,272.429 405.5,274 403.912,274.794 397.187,279.126 396,281.5 394.334,284.833 402.144,290.678 405.5,289 405.5,289 413.5,281 413.5,281 415.427,280.036 419.045,281.272 420.5,282 420.971,282.236 424.974,279 426.5,279 428.282,279 430.912,283.676 433,279.5 434.418,276.663 429.328,277.414 428.5,277 426.549,276.025 419.346,273.808 422,268.5 425.324,261.852 433.201,273.649 436.5,272 439.464,270.518 431.103,263.294 433,259.5 434.031,257.438 443.89,261.719 447,255.5 448.179,253.142 445.985,244.257 442.5,246 438.465,248.017 425.099,259.698 421,251.5 417.825,245.151 435.168,245.164 437,241.5 437.484,240.531 436.935,237 435.5,237 433.589,237 423.202,241.904 422,239.5 418.67,232.84 438.186,231.872 434,223.5 432.956,221.412 426.192,221.117 425,223.5 422.988,227.524 416.839,241.669 409.5,238 402.613,234.557 417.188,227.875 415,223.5 414.248,221.995 411.222,223.278 410.5,224 408.491,226.009 400.565,231.533 397.5,230 397.5,230 389.5,222 389.5,222 387.106,220.803 380.26,223.019 382,226.5 382.645,227.79 390.199,232.151 386.5,234 385.313,234.594 383.784,234.358 382.5,235 382.5,235 379.5,234 379.5,234 364.661,234 365.302,218 377,218 377,210.06 380.553,214.974 384.5,213 384.5,213 386,210 386,210 386,207.567 389.139,210.681 390.5,210 393.698,208.401 403,209.457 403,202.5 403,197.466 400.438,190.624 403,185.5 403.978,183.544 402,181.423 402,180 402,170.026 401.887,165.307 390.5,171 388.211,172.145 389.884,175.733 389,177.5 387.072,181.357 384,195.103 384,199.5 384,199.5 382.5,210 382.5,210 382.5,210 378.5,208 378.5,208 373.458,205.479 375.192,198.883 373,194.5 368.559,185.618 370.934,170.633 375,162.5 375.263,161.974 374,147.876 374,147.5 374,147.5 376,146 376,146 376,146 382.5,145 382.5,145 383.275,145.388 385.023,148.454 386,146.5 387.722,143.057 373.712,127 370.5,127 363.028,127 368.122,133.256 366,137.5 366,137.5 361,145.5 361,145.5 357.12,153.26 370.638,176.931 356.5,184 352.781,185.859 346.964,195.232 342.5,193 339.372,191.436 327.172,177.157 329,173.5 329.988,171.524 332.287,169.926 333,168.5 333,168.5 333.5,166 333.5,166 337.663,163.918 344.675,163.15 347,158.5 347,158.5 347,142.5 347,142.5 346.364,141.228 343.19,138.121 344,136.5 345.739,133.023 359.501,123 353.5,120 353.5,120 346.5,119 346.5,119 325.52,108.51 332,125.712 332,139 332,142.876 327.044,160.772 321.5,158 313.216,153.858 312.511,141.478 316,134.5 316,134.5 316,122.5 316,122.5 316,122.5 320,114.5 320,114.5 320,108.72 300.556,104.528 297.5,103 292.236,100.368 295.575,99 287.5,99 285.206,99 287.249,92.1257 279.5,96 278.472,96.5141 286.442,99.3845 287,100.5 289.705,105.911 297.477,109.454 300,114.5 306.113,126.727 297.862,143.224 302,151.5 302,151.5 312,165.5 312,165.5 312,165.5 313,174.5 313,174.5 313.952,176.403 315.376,181.562 312.5,183 307.886,185.307 295.631,173.762 294,170.5 290.722,163.943 289.307,156.114 286,149.5 286,149.5 286,133.5 286,133.5 280.176,121.852 280.178,118.339 267.5,112 267.5,112 262.5,112 262.5,112 252.206,106.853 242.029,108.236 232.5,113 232.5,113 222.5,112 222.5,112 222.5,112 215.5,114 215.5,114 213.203,115.149 212.915,118.67 212,120.5 212,120.5 205,127.5 205,127.5 203.094,131.311 201,137.045 201,141.5 201,146.592 204.357,145.786 201,152.5 198.82,156.86 195.171,160.157 193,164.5 189.81,170.879 191.757,175.372 184.5,179 181.006,180.747 178.666,187.583 173.5,185 165.671,181.085 180.175,156.151 182,152.5 183.413,149.673 186.785,140.07 185,136.5 182.673,131.846 179.143,129.214 182,123.5 184.003,119.493 190.161,120.178 192,116.5 195.28,109.941 200.727,104.045 204,97.5 204,97.5 214,87.5 214,87.5 214,87.5 208.5,86 208.5,86 200.099,81.7996 194.901,99.6976 193,103.5 190.321,108.857 175.619,115.262 174,118.5 174,118.5 170,126.5 170,126.5 164.904,136.691 180.626,155.437 161.5,165 157.457,167.022 156,152.135 156,149.5 156,143.879 148.667,136.167 152,129.5 152.849,127.802 159.344,119.187 159,118.5 157.776,116.052 152.03,114.735 149.5,116 145.282,118.109 136.457,120.586 134,125.5 132.013,129.474 138.621,130.742 140,133.5 140.731,134.962 140.218,136.936 141,138.5 143.931,144.362 135.595,160.689 139,167.5 139,167.5 152,178.5 152,178.5 155.371,185.241 140.956,204.228 134.5,201 132.434,199.967 132.851,196.202 132,194.5 132,194.5 126,191.5 126,191.5 126,191.5 123,181.5 123,181.5 120.159,175.818 125.354,165.208 123,160.5 121.667,157.833 124.641,150.571 119.5,148 116.23,146.365 120.566,130.967 114.5,134 111.667,135.417 93.0177,153.535 95,157.5 96.6131,160.726 106.257,155.014 109,160.5 109,160.5 110,179.5 110,179.5 113.638,186.777 117.217,210.142 107.5,215 104.54,216.48 102.607,215 100,215 100,218.901 108,218.025 108,220 110.165,220 117.483,223.535 116,226.5 115.624,227.253 98.6787,233 97.5,233 97.5,233 92.5,234 92.5,234 83.383,229.442 107.364,225.432 94.5,219 90.2724,216.886 84.466,225 79.5,225 74.1716,225 59.0883,219.323 56,225.5 49.6287,238.243 78.5864,232.673 81,237.5 83.8995,243.299 66.6432,245.572 63.5,244 59.3665,241.933 55.6203,241.12 52,237.5 52,237.5 47.5,235 47.5,235 47.5,235 42,242 42,242  Z"/>

<path  fill="#00FFFF" stroke-width="0" stroke="#00FFFF" d = " M277 93 C277,95.0912 280.746,93 277,93  Z"/>

<path  fill="#FFFF00" stroke-width="0" stroke="#FFFF00" d = " M245 175 C245,177.016 237.302,178 235.5,178 233.882,178 217.129,183.242 216,185.5 213.309,190.882 225.365,197 229,197 L238.5,200 C243.33,202.415 258.424,195.038 262.5,193 265.413,191.543 276.662,189.823 273,182.5 271.111,178.723 263.625,179.562 260.5,178 256.292,175.896 249.942,175 245,175  Z"/>

<path  fill="#00FFFF" stroke-width="0" stroke="#00FFFF" d = " M95 215 C95,212.44 98.3339,215 99,215 99,212.971 97.8093,213.119 97,211.5 97,211.5 97,198.5 97,198.5 95.2307,194.961 96.7479,189.996 95,186.5 95,186.5 91,181.5 91,181.5 90.146,179.792 89.3849,176 86.5,176 86.5,176 85,181.5 85,181.5 84.1704,183.159 80.4789,202.458 81,203.5 81,203.5 88,211.5 88,211.5 88,211.5 91,213 91,213 91,213 92,213 92,213 92,211.601 94,211.601 94,213 94,213 94,215 94,215 94,215 95,215 95,215  Z"/>

<path  fill="#FFFF00" stroke-width="0" stroke="#FFFF00" d = " M92 213 C92,214.93 93.161,213 94,213 94,211.601 92,211.601 92,213  Z"/>

<path  fill="#00FFFF" stroke-width="0" stroke="#00FFFF" d = " M389 212 L390,212 C390,213.186 389,213.186 389,212  Z"/>

<path  fill="#46A515" stroke-width="0" stroke="#46A515" d = " M75 215 C75,224.422 86.0362,215 75,215  Z"/>

<path  fill="#FFFF00" stroke-width="0" stroke="#FFFF00" d = " M108 220 C110.165,220 117.483,223.535 116,226.5 115.624,227.253 98.6787,233 97.5,233 L92.5,234 C83.383,229.442 107.364,225.432 94.5,219 90.2724,216.886 84.466,225 79.5,225 74.1716,225 59.0883,219.323 56,225.5 49.6287,238.243 78.5864,232.673 81,237.5 83.8995,243.299 66.6432,245.572 63.5,244 59.3665,241.933 55.6203,241.12 52,237.5 L47.5,235 L42,242 C42,238.543 42.049,232.726 45.5,231 45.5,231 52,231.5 52,231.5 52.6681,230.164 50.8061,225.888 52,223.5 53.8263,219.847 61.3415,219.579 64.5,218 66.3224,217.089 78.0652,223.717 81.5,222 84.4924,220.504 91.6177,215 94,215 94,215 95,215 95,215 95,218.03 99.3091,217.118 100,218.5 101.891,222.282 108,231.333 108,220  Z"/>

<path  fill-rule="evenodd" fill="#FFFF00" stroke-width="0" stroke="#FFFF00" d = " M406 266 C406,274.232 414.191,266 406,266  M374 224 C374,230.295 380.295,224 374,224  M361 251 C366.465,251 369.526,257.513 374.5,260 L377.5,259 C379.969,259 382.357,261.928 384.5,263 L390.5,263 C392.651,264.075 399.168,268.166 395.5,270 392.101,271.699 372.069,263.284 369.5,262 366.65,260.575 366.893,255.696 365.5,255 L363,256 C363,256 362,261.5 362,261.5 364.378,266.255 384.386,270.443 389.5,273 391.119,273.809 393.609,289.554 400.5,293 407.215,296.357 409.845,287.827 413.5,286 413.5,286 419.5,287 419.5,287 424.071,284.715 430.654,284.423 433.5,283 438.331,280.585 433.638,278.224 435,275.5 435,275.5 443,271.5 443,271.5 444.821,267.858 442,268.262 442,265.5 442,265.5 446.5,264 446.5,264 448.63,262.935 449.137,260.226 450,258.5 453.652,251.197 445.084,240.668 442,234.5 442,234.5 438,232.5 438,232.5 437.336,231.171 441.297,228.094 439,223.5 435.607,216.715 416.751,217.374 411.5,220 411.5,220 406.5,225 406.5,225 405.005,225.748 403.547,224.523 402.5,224 401.298,223.399 397.631,225.066 395.5,224 393.45,222.975 392.498,218.499 389.5,217 386.708,215.604 383.513,218.994 381.5,220 379.384,221.058 378.602,218 377,218 365.302,218 364.661,234 379.5,234 379.5,234 382.5,235 382.5,235 383.784,234.358 385.313,234.594 386.5,234 390.199,232.151 382.645,227.79 382,226.5 380.26,223.019 387.106,220.803 389.5,222 389.5,222 397.5,230 397.5,230 400.565,231.533 408.491,226.009 410.5,224 411.222,223.278 414.248,221.995 415,223.5 417.188,227.875 402.613,234.557 409.5,238 416.839,241.669 422.988,227.524 425,223.5 426.192,221.117 432.956,221.412 434,223.5 438.186,231.872 418.67,232.84 422,239.5 423.202,241.904 433.589,237 435.5,237 436.935,237 437.484,240.531 437,241.5 435.168,245.164 417.825,245.151 421,251.5 425.099,259.698 438.465,248.017 442.5,246 445.985,244.257 448.179,253.142 447,255.5 443.89,261.719 434.031,257.438 433,259.5 431.103,263.294 439.464,270.518 436.5,272 433.201,273.649 425.324,261.852 422,268.5 419.346,273.808 426.549,276.025 428.5,277 429.328,277.414 434.418,276.663 433,279.5 430.912,283.676 428.282,279 426.5,279 424.974,279 420.971,282.236 420.5,282 419.045,281.272 415.427,280.036 413.5,281 413.5,281 405.5,289 405.5,289 402.144,290.678 394.334,284.833 396,281.5 397.187,279.126 403.912,274.794 405.5,274 408.642,272.429 415.316,277.867 417,274.5 418.476,271.548 411.537,254.518 410.5,254 401.974,249.737 402.108,261.304 397.5,259 391.298,255.899 396.616,251.558 391.5,249 387.619,247.059 386.761,254.131 384.5,253 376.682,249.091 369.326,244.913 361.5,241 359.85,240.175 354,240.732 354,243 354,244.852 358.927,251 361,251  Z"/>

<path  fill="#46A515" stroke-width="0" stroke="#46A515" d = " M403 217 L401,220.5 C403.289,225.078 411.328,217 403,217  Z"/>

<path  fill="#FFFF00" stroke-width="0" stroke="#FFFF00" d = " M262 225 C262,245.69 226,243.559 226,227 226,218.619 240.759,229 246.5,229 249.632,229 262,216.634 262,225  Z"/>

<path  fill="#00FFFF" stroke-width="0" stroke="#00FFFF" d = " M374 224 C374,230.295 380.295,224 374,224  Z"/>

<path  fill="#9953FF" stroke-width="0" stroke="#9953FF" d = " M241 341 C238.057,341 231.007,336.246 227.5,338 225.121,339.189 218.461,342 216,342 216,339.096 209.658,337.921 207.5,339 203.295,341.103 178.499,333.5 173.5,331 168.44,328.47 148.59,313.68 146,308.5 145.152,306.804 143.25,296 147,296 147,303.6 151.509,310.505 158.5,314 158.5,314 161.5,318 161.5,318 162.989,318.745 170,315.105 170,313.5 170,312.03 167,311.123 167,309 167,305.763 169.704,308.093 171,305.5 171.827,303.846 169.913,294.675 172,290.5 176.268,281.963 197.992,275.246 179.5,266 176.238,264.369 174.712,268.894 172.5,270 172.5,270 168,269 168,269 168,268.108 175.573,261 165,261 165,261 165,258 165,258 168.226,258 166.231,254.038 167,252.5 167,252.5 173,245.5 173,245.5 174.143,243.215 171.774,242.047 171,240.5 171,240.5 171,231 171,231 171,231 179,228 179,228 179,229.777 191,232.412 191,228 191,228 196,228 196,228 196,232.258 199.133,230 201,230 201,230 202,230 202,230 202,230 204,232 204,232 204,234.908 198.257,237.015 200,240.5 202.008,244.516 209.769,253.634 214.5,256 214.5,256 222,255 222,255 222,255 221,258 221,258 214.796,258 219.244,271 223.5,271 227.992,271 229.381,261 233,261 236.119,261 238.616,258 241,258 241,258 247,259 247,259 248.009,259 252.343,261.421 253.5,262 253.5,262 257,260 257,260 257,260 259,264.5 259,264.5 260.304,267.108 259.142,271.321 262.5,273 263.724,273.612 279.747,259 269,259 269,255.114 262,258.602 262,256 273.972,256 272.249,249.126 276.5,247 276.5,247 281.5,246 281.5,246 282.725,245.387 281.877,243.812 283.5,243 287.365,241.067 284.619,232.56 281.5,231 280.516,230.508 276.735,233 275,233 275,233 277,228 277,228 285.828,228 296.603,228 305.5,228 307.7,228 315,228.748 315,231 315,233.912 311.235,254 317,254 317,256.232 318,258.029 318,261 315.232,261 318,267.241 318,268 318,268 317,270 317,270 317,270 305.5,269 305.5,269 302.529,270.486 296.859,278.679 301.5,281 304.904,282.702 311.899,281.298 314,285.5 316.103,289.706 315.935,309 323,309 323,310.949 319.644,313.787 320,314.5 323.094,320.687 335.722,309 338,309 338,315.355 329.51,321.495 324.5,324 324.5,324 313.5,332 313.5,332 309.288,334.106 302.616,330.942 298.5,333 294.297,335.101 289.618,335.941 285.5,338 285.5,338 277.5,338 277.5,338 277.5,338 271,341 271,341 271,334.921 249.093,340 247,340 243.865,340 241.831,341 241,341  Z"/>

<path  fill="#34FF0D" stroke-width="0" stroke="#34FF0D" d = " M336 237 C336,241.334 343.007,253.493 338.5,258 337.217,259.283 334.687,263.093 332.5,262 327.987,259.744 320.654,254 317,254 311.235,254 315,233.912 315,231 315,231 326.5,229 326.5,229 327.991,229.745 328.833,232 330.5,232 333.112,232 336,232.663 336,237  Z"/>

<path  fill="#34FF0D" stroke-width="0" stroke="#34FF0D" d = " M151 238 C151,242.273 145.311,247.123 148,252.5 L151,255.5 C151.809,257.118 151.21,258.855 153.5,260 154.851,260.676 162.258,258 165,258 168.226,258 166.231,254.038 167,252.5 167,252.5 173,245.5 173,245.5 174.143,243.215 171.774,242.047 171,240.5 171,240.5 171,231 171,231 166.643,231 161.95,228.775 157.5,231 157.5,231 154.5,235 154.5,235 152.721,235.89 151,235.532 151,238  Z"/>

<path  fill="#EB57FF" stroke-width="0" stroke="#EB57FF" d = " M231 259 L233,261 C236.119,261 238.616,258 241,258 241,251.358 232.266,249.383 227.5,247 223.928,245.214 221.365,238.229 220,235.5 218.597,232.693 214.639,234.07 212.5,233 210.881,232.191 211.029,231 209,231 209,231 208,231 208,231 208,231 204,232 204,232 204,234.908 198.257,237.015 200,240.5 202.008,244.516 209.769,253.634 214.5,256 214.5,256 222,255 222,255 223.385,255 229,252.976 229,257 229,257 231,259 231,259  Z"/>

<path  fill="#EB57FF" stroke-width="0" stroke="#EB57FF" d = " M259 259 L257,260 C257,260 253.5,262 253.5,262 252.343,261.421 248.009,259 247,259 247,256.446 249.913,253.674 251,251.5 251,251.5 258.5,247 258.5,247 258.5,247 270.5,233 270.5,233 270.5,233 275,233 275,233 276.735,233 280.516,230.508 281.5,231 284.619,232.56 287.365,241.067 283.5,243 281.877,243.812 282.725,245.387 281.5,246 281.5,246 276.5,247 276.5,247 272.249,249.126 273.972,256 262,256 262,256 259,259 259,259  Z"/>

<path  fill-rule="evenodd" fill="#FFFF00" stroke-width="0" stroke="#FFFF00" d = " M78 274 C78,275.93 79.93,274 78,274  M58 268 C58,269.93 59.93,268 58,268  M130 247 L131,247 C131,247 132,246 132,246 132,246 133,246 133,246 133,246 134,245 134,245 134,243.39 140.42,240.46 135.5,238 132.606,236.553 123.04,241.73 120.5,243 108.457,249.021 93.5046,248.998 81.5,255 81.5,255 73,262.5 73,262.5 72.5861,263.328 73.3365,268.418 70.5,267 70.5,267 65.5,264 65.5,264 64.1006,264.7 64.1039,268.802 62.5,268 62.5,268 61.5,265 61.5,265 61.5,265 56,264.5 56,264.5 55.2425,262.985 64.2599,261.62 65.5,261 68.0091,259.745 69.5724,254.536 66.5,253 57.4955,248.498 42,257.828 42,242 40.1181,242 39.1227,248.745 40,250.5 40.917,252.334 46,255.379 46,256 46,258.699 30.3716,266.436 43.5,273 47.3903,274.945 52.7998,273.15 56.5,275 62.9388,278.219 70.2993,288.1 78.5,284 78.5,284 79.5,278 79.5,278 80.7498,277.375 85.2951,281.398 86.5,282 86.5,282 96.5,281 96.5,281 102.078,278.211 104.33,271.585 109.5,269 115.195,266.153 119.815,270.343 122.5,269 122.575,268.962 128.522,257.456 129,256.5 129,256.5 128,252 128,252 119.693,252 126.87,266 120.5,266 113.919,266 110.735,265.882 104.5,269 100.287,271.107 94.6381,281.069 88.5,278 80.9125,274.206 80.5481,265.976 88.5,262 97.68,257.41 109.272,257.614 118.5,253 122.021,251.24 125.882,247 130,247  Z"/>

<path  fill="#00FFFF" stroke-width="0" stroke="#00FFFF" d = " M134 245 L133,246 C133,246 134,245 134,245  Z"/>

<path  fill="#00FFFF" stroke-width="0" stroke="#00FFFF" d = " M132 246 L131,247 C131,247 132,246 132,246  Z"/>

<path  fill="#00FFFF" stroke-width="0" stroke="#00FFFF" d = " M130 247 C125.882,247 122.021,251.24 118.5,253 109.272,257.614 97.68,257.41 88.5,262 80.5481,265.976 80.9125,274.206 88.5,278 94.6381,281.069 100.287,271.107 104.5,269 110.735,265.882 113.919,266 120.5,266 126.87,266 119.693,252 128,252 128,250.913 130,249.567 130,247  Z"/>

<path  fill="#00FFFF" stroke-width="0" stroke="#00FFFF" d = " M361 251 C366.465,251 369.526,257.513 374.5,260 L377.5,259 C379.969,259 382.357,261.928 384.5,263 L390.5,263 C392.651,264.075 399.168,268.166 395.5,270 392.101,271.699 372.069,263.284 369.5,262 366.65,260.575 366.893,255.696 365.5,255 L363,256 C363,254.913 361,253.567 361,251  Z"/>

<path  fill="#FAF4F7" stroke-width="0" stroke="#FAF4F7" d = " M221 258 L222.5,260 C224.661,261.081 227.394,259 229,259 229,259 229,257 229,257 229,252.976 223.385,255 222,255 222,255 221,258 221,258  Z"/>

<path  fill="#FAF4F7" stroke-width="0" stroke="#FAF4F7" d = " M259 259 C259,260.595 267.763,259 269,259 269,255.114 262,258.602 262,256 262,256 259,259 259,259  Z"/>

<path  fill="#9953FF" stroke-width="0" stroke="#9953FF" d = " M229 259 L231,259 C231,259 229,257 229,257 229,257 229,259 229,259  Z"/>

<path  fill="#B31C35" stroke-width="0" stroke="#B31C35" d = " M231 259 L233,261 C229.381,261 227.992,271 223.5,271 219.244,271 214.796,258 221,258 221,258 222.5,260 222.5,260 224.661,261.081 227.394,259 229,259 229,259 231,259 231,259  Z"/>

<path  fill="#B31C35" stroke-width="0" stroke="#B31C35" d = " M269 259 C279.747,259 263.724,273.612 262.5,273 259.142,271.321 260.304,267.108 259,264.5 L257,260 C257,260 259,259 259,259 259,260.595 267.763,259 269,259  Z"/>

<path  fill="#FA8072" stroke-width="0" stroke="#FA8072" d = " M147 296 C147,303.6 151.509,310.505 158.5,314 L161.5,318 C162.989,318.745 170,315.105 170,313.5 170,312.03 167,311.123 167,309 159.978,309 155.356,292.789 158,287.5 159.659,284.183 162.395,281.709 164,278.5 164.967,276.567 164.597,269 168,269 168,268.108 175.573,261 165,261 152.763,261 147,287.959 147,296  Z"/>

<path  fill="#FA8072" stroke-width="0" stroke="#FA8072" d = " M323 309 C323,310.949 319.644,313.787 320,314.5 323.094,320.687 335.722,309 338,309 342.586,309 341,293.366 341,290 341,278.563 330.791,261 318,261 315.232,261 318,267.241 318,268 320.293,268 320,268.997 320,271 320,278.914 336.28,286.941 329,301.5 327.728,304.044 327.021,309 323,309  Z"/>

<path  fill="#5BF1FF" stroke-width="0" stroke="#5BF1FF" d = " M168 269 L172.5,270 C174.712,268.894 176.238,264.369 179.5,266 197.992,275.246 176.268,281.963 172,290.5 169.913,294.675 171.827,303.846 171,305.5 169.704,308.093 167,305.763 167,309 159.978,309 155.356,292.789 158,287.5 159.659,284.183 162.395,281.709 164,278.5 164.967,276.567 164.597,269 168,269  Z"/>

<path  fill="#00FFFF" stroke-width="0" stroke="#00FFFF" d = " M406 266 C406,274.232 414.191,266 406,266  Z"/>

<path  fill="#00FFFF" stroke-width="0" stroke="#00FFFF" d = " M58 268 C58,269.93 59.93,268 58,268  Z"/>

<path  fill="#5BF1FF" stroke-width="0" stroke="#5BF1FF" d = " M320 271 C320,278.914 336.28,286.941 329,301.5 327.728,304.044 327.021,309 323,309 315.935,309 316.103,289.706 314,285.5 311.899,281.298 304.904,282.702 301.5,281 296.859,278.679 302.529,270.486 305.5,269 305.5,269 317,270 317,270 317,271.473 318.952,271 320,271  Z"/>

<path  fill="#46A515" stroke-width="0" stroke="#46A515" d = " M445 284 L444,288.5 C446.452,293.403 453.407,284 445,284  Z"/>

<path  fill="#46A515" stroke-width="0" stroke="#46A515" d = " M371 286 C371,290.36 365.095,296.689 368,302.5 369.415,305.33 371.761,306.63 374.5,308 375.165,308.333 377.068,303.716 378.5,303 380.931,301.785 392.809,307.882 396,301.5 398.395,296.71 391.32,297.141 391,296.5 390.042,294.584 392.203,292.352 389.5,291 L382.5,291 C377.891,288.695 376.922,286 371,286  Z"/>

<path  fill="#46A515" stroke-width="0" stroke="#46A515" d = " M107 287 L106,288.5 C103.941,292.618 113.639,287 107,287  Z"/>

<path  fill="#46A515" stroke-width="0" stroke="#46A515" d = " M84 298 L80,305.5 C78.9493,307.601 81.8602,314.32 84.5,313 87.8955,311.302 83,309.501 83,307.5 83,304.626 89.8362,298 84,298  Z"/>

<path  fill="#46A515" stroke-width="0" stroke="#46A515" d = " M383 321 C383,322.934 378.3,324 376.5,324 370.552,324 362.077,324.346 359,330.5 356.519,335.462 366.512,341.506 369.5,343 376.382,346.441 386.008,348.746 393.5,345 406.524,338.488 407.716,328.608 394.5,322 391.579,320.539 386.665,321 383,321  Z"/>

<path  fill="#FF3427" stroke-width="0" stroke="#FF3427" d = " M241 341 C238.057,341 231.007,336.246 227.5,338 225.121,339.189 218.461,342 216,342 216,351.8 241,355.754 241,341  Z"/>

<path  fill="#FF3427" stroke-width="0" stroke="#FF3427" d = " M247 340 C249.093,340 271,334.921 271,341 271,353.424 247,351.552 247,340  Z"/>

</g>
</svg>
