<svg xmlns="http://www.w3.org/2000/svg" xmlns:xlink="http://www.w3.org/1999/xlink" height="512" width="512">
<g>
<rect width="512" height="512" fill="#000000"  stroke-width="0" /> 
<path  fill-rule="evenodd" fill="#FFFF00" stroke-width="0" stroke="#FFFF00" d = " M265 181 C265,184.197 254.329,182.586 253.5,183 L251.5,186 L244.5,188 C243.635,188.433 236.591,186.545 235.5,186 230.926,183.713 212.439,186.621 210,191.5 L210,194.5 C208.916,196.667 204.854,199.208 207,203.5 L213.5,201 C216.312,199.594 220.578,201.461 223.5,200 225.898,198.801 237.918,201.291 242.5,199 245.969,197.265 264.967,199 268.5,199 270.715,199 274.802,196.651 277.5,198 278.248,198.374 283.568,201.466 284.5,201 286.994,199.753 280.758,190.017 280,188.5 L279.5,183 C275.052,180.776 269.623,181 265,181  M351 151 C351,154.784 357.254,151 351,151  M134 149 L128.5,152 C127.489,152.505 124.139,157.32 125.5,158 129.306,159.903 148.4,149 134,149  M207 146 C207,147.988 203.685,148.408 202.5,149 L198,155.5 L197,161.5 C194.318,166.865 191.687,172.126 189,177.5 L186,190.5 C182.393,197.714 177.647,204.207 174,211.5 171.581,216.338 154.22,224.94 157,230.5 159.944,236.387 183.701,220.098 186,215.5 189.885,207.73 183.63,191.935 193.5,187 203.691,181.905 188.471,214.014 198.5,209 207.134,204.683 202.293,190.914 206,183.5 213.583,168.333 213.356,169.072 227.5,162 230.137,160.682 241.064,162.718 242.5,162 254.869,155.816 276.725,157.95 283,170.5 L285,183.5 C291.818,197.136 288.511,203.011 301.5,216 L307.5,222 C311.041,223.771 320.048,234.404 323,228.5 324.785,224.931 321.213,222.925 320,220.5 317.126,214.753 312.874,209.247 310,203.5 L300,195.5 C297.107,189.713 300.793,181.086 298,175.5 295.157,169.814 290.801,165.102 288,159.5 286.223,155.946 286.977,149.238 282.5,147 275.911,143.706 267.076,147.212 261.5,150 259.675,150.913 257.684,149 256.5,149 L250.5,151 L229.5,152 C224.109,152 216.057,153.279 211.5,151 L207,146  M337 144 C337,148.304 342.455,144 337,144  M189 142 C189,145.967 182.401,148.698 181,151.5 L180,156.5 L174,162.5 C171.088,168.323 166.906,173.687 164,179.5 L152,191.5 L134.5,199 C132.23,200.135 129.074,204.287 132.5,206 L145.5,208 C148.645,209.573 147.272,215.886 151.5,218 154.255,219.377 159.615,210.885 161,209.5 169.528,200.972 172.84,186.82 178,176.5 182.4,167.7 187.564,159.372 192,150.5 193.486,147.527 193.19,142 189,142  M295 140 C295,142.231 292.614,146.728 294,149.5 295.476,152.452 296.571,155.643 298,158.5 L301,159.5 C305.895,169.291 310.103,177.705 315,187.5 318.691,194.883 320.936,205.718 329.5,210 335.962,213.231 335.055,201.222 337.5,200 340.12,198.69 345.922,200.656 347,198.5 347.995,196.511 343.138,191.819 341.5,191 335.77,188.135 322.079,176.658 319,170.5 316.029,164.557 301.476,140 295,140  M148 140 C148,141.145 137.068,145.784 141.5,148 143.322,148.911 153.123,140 148,140  M311 139 C311,146.053 320.045,149.59 323,155.5 327.275,164.051 336.342,175.421 345.5,180 350.5,182.5 352.316,189.092 358.5,186 360.61,184.945 359.004,166.504 357.5,165 348.87,156.37 336.704,153.102 326.5,148 321.058,145.279 317.571,139 311,139  M175 133 C175,136.979 167.509,140.483 166,143.5 161.256,152.989 147.355,164.073 137.5,169 132.302,171.599 125.733,171.384 120.5,174 116.147,176.176 118.502,192.501 121.5,194 128.024,197.262 131.186,188.657 136.5,186 143.277,182.611 170.997,154.507 174,148.5 176.517,143.467 187.294,133 175,133  M266 108 C266,111.124 260.689,113.906 258.5,115 247.06,120.72 234.544,117.478 223.5,123 220.667,124.416 208.32,124.139 212,131.5 213.614,134.728 222.688,131.594 225.5,133 229.92,135.21 255.444,130 264,130 L277.5,131 C279.896,129.802 277.994,123.488 277,121.5 L277,113.5 L273,111.5 C271.114,107.727 270.611,108 266,108  M246 100 C246,101.747 252,101.149 252,100.5 L246,100  M226 100 C226,102.064 222.647,100.426 221.5,101 219.249,102.125 207.784,107.068 210,111.5 211.07,113.639 216.423,110.538 217.5,110 L224.5,109 C231.39,105.555 238.673,100 226,100  M248 94 C248,94.8284 238.662,96 237.5,96 227.158,96 220.928,97.7862 212.5,102 L207,103.5 C205.324,106.852 199.594,111.689 202,116.5 203.166,118.832 210.823,116.855 209,120.5 208.04,122.419 206.818,121.341 205.5,122 202.472,123.514 199.958,129.584 199,131.5 197.884,133.733 207.133,138.183 201.5,141 195.696,143.902 197.498,135.999 195.5,135 193.817,134.158 190.822,137.144 189,133.5 L188,127.5 C187.04,125.581 185.818,126.659 184.5,126 L180.5,120 C175.72,117.61 172.343,120.578 169.5,122 167.431,123.034 161.647,121.426 158.5,123 131.71,136.395 127.128,136.245 113,164.5 111.165,168.171 116.565,169.369 116,170.5 L113,172.5 L113,179 C113,193.903 121.155,211.328 134.5,218 L138.5,226 L147.5,228 C151.607,230.054 154.07,241.215 160.5,238 165.281,235.61 170.749,234.376 175.5,232 177.684,230.908 180.715,227.393 183.5,226 L190,219.5 L190.5,215 C191.904,214.298 199.241,212.871 201.5,214 203.914,215.207 199.768,221.366 198.5,222 193.464,224.518 201.22,230.86 205.5,233 L209.5,233 C212.64,234.57 215.277,236.389 218.5,238 L230.5,238 C240.721,243.111 266.308,239.596 275.5,235 279.203,233.149 284.889,234.805 288.5,233 291.65,231.425 295.376,221.062 295.5,221 298.089,219.706 301.264,225.882 303.5,227 311.982,231.241 311.704,235 321.5,235 L324.5,237 C331.088,237 330.93,225.361 329,221.5 L323,215.5 L323.5,212 C324.431,212 335.901,221.2 337.5,222 339.586,223.043 338.547,219.476 339.5,219 343.057,217.222 349.823,215.854 352,211.5 352.725,210.051 358.193,197.153 358.5,197 L361.5,197 C364.735,195.382 361.179,194.143 362,192.5 L366,190.5 C369.622,183.256 373.137,174.774 369,166.5 L355,154.5 C353.486,151.471 355.555,146.611 354,143.5 L350,141.5 L350,138.5 C347.906,134.312 339.248,131.874 335.5,130 L326,129.5 C324.428,132.645 328.798,139.649 325.5,138 320.272,135.386 316.045,129.273 311.5,127 309.658,126.079 310.428,121.536 307.5,123 302.301,125.6 299.272,133.614 298.5,134 295.985,135.257 292.109,133.695 289.5,135 287.029,136.236 287.829,143.664 282.5,141 281.203,140.351 279.83,135.835 281.5,135 282.755,134.372 284.126,133.687 285.5,133 L288,133.5 C289.498,130.504 285.588,131.676 285,130.5 284.17,128.84 286.505,117.51 285,114.5 277.677,99.855 270.867,108.183 262.5,104 260.057,102.778 265,100.461 265,99.5 265,97.9247 260.357,98.4286 259.5,98 256.205,96.3523 251.818,94 248,94  M291 216 L292,217 C295.001,217 294.087,222.207 292.5,223 292.5,223 288.5,227 288.5,227 284.882,228.809 280.202,228.149 276.5,230 276.5,230 258.5,229 258.5,229 253.395,231.552 245.375,229.438 240.5,227 236.776,225.138 224.895,230 219.5,230 215.514,230 211.869,227.685 208.5,226 207.103,225.301 202,226.811 202,223.5 202,222.995 207.254,222.993 208,221.5 209.125,219.25 206.608,214.446 209.5,213 210.861,212.319 222.948,214.776 224.5,214 233.439,209.531 260.063,211.781 268.5,216 271.103,217.302 283.879,214.81 287.5,213 287.5,213 291,216 291,216  Z"/>

<path  fill="#00FFFF" stroke-width="0" stroke="#00FFFF" d = " M226 100 C226,102.064 222.647,100.426 221.5,101 219.249,102.125 207.784,107.068 210,111.5 211.07,113.639 216.423,110.538 217.5,110 L224.5,109 C231.39,105.555 238.673,100 226,100  Z"/>

<path  fill="#00FFFF" stroke-width="0" stroke="#00FFFF" d = " M246 100 C246,101.747 252,101.149 252,100.5 L246,100  Z"/>

<path  fill="#00FFFF" stroke-width="0" stroke="#00FFFF" d = " M266 108 C266,111.124 260.689,113.906 258.5,115 247.06,120.72 234.544,117.478 223.5,123 220.667,124.416 208.32,124.139 212,131.5 213.614,134.728 222.688,131.594 225.5,133 229.92,135.21 255.444,130 264,130 L277.5,131 C279.896,129.802 277.994,123.488 277,121.5 L277,113.5 L273,111.5 C271.114,107.727 270.611,108 266,108  Z"/>

<path  fill="#00FFFF" stroke-width="0" stroke="#00FFFF" d = " M175 133 C175,136.979 167.509,140.483 166,143.5 161.256,152.989 147.355,164.073 137.5,169 132.302,171.599 125.733,171.384 120.5,174 116.147,176.176 118.502,192.501 121.5,194 128.024,197.262 131.186,188.657 136.5,186 143.277,182.611 170.997,154.507 174,148.5 176.517,143.467 187.294,133 175,133  Z"/>

<path  fill="#00FFFF" stroke-width="0" stroke="#00FFFF" d = " M311 139 C311,146.053 320.045,149.59 323,155.5 327.275,164.051 336.342,175.421 345.5,180 350.5,182.5 352.316,189.092 358.5,186 360.61,184.945 359.004,166.504 357.5,165 348.87,156.37 336.704,153.102 326.5,148 321.058,145.279 317.571,139 311,139  Z"/>

<path  fill="#00FFFF" stroke-width="0" stroke="#00FFFF" d = " M148 140 C148,141.145 137.068,145.784 141.5,148 143.322,148.911 153.123,140 148,140  Z"/>

<path  fill="#00FFFF" stroke-width="0" stroke="#00FFFF" d = " M295 140 C295,142.231 292.614,146.728 294,149.5 295.476,152.452 296.571,155.643 298,158.5 L301,159.5 C305.895,169.291 310.103,177.705 315,187.5 318.691,194.883 320.936,205.718 329.5,210 335.962,213.231 335.055,201.222 337.5,200 340.12,198.69 345.922,200.656 347,198.5 347.995,196.511 343.138,191.819 341.5,191 335.77,188.135 322.079,176.658 319,170.5 316.029,164.557 301.476,140 295,140  Z"/>

<path  fill="#00FFFF" stroke-width="0" stroke="#00FFFF" d = " M189 142 C189,145.967 182.401,148.698 181,151.5 L180,156.5 L174,162.5 C171.088,168.323 166.906,173.687 164,179.5 L152,191.5 L134.5,199 C132.23,200.135 129.074,204.287 132.5,206 L145.5,208 C148.645,209.573 147.272,215.886 151.5,218 154.255,219.377 159.615,210.885 161,209.5 169.528,200.972 172.84,186.82 178,176.5 182.4,167.7 187.564,159.372 192,150.5 193.486,147.527 193.19,142 189,142  Z"/>

<path  fill="#00FFFF" stroke-width="0" stroke="#00FFFF" d = " M207 146 C207,147.988 203.685,148.408 202.5,149 L198,155.5 L197,161.5 C194.318,166.865 191.687,172.126 189,177.5 L186,190.5 C182.393,197.714 177.647,204.207 174,211.5 171.581,216.338 154.22,224.94 157,230.5 159.944,236.387 183.701,220.098 186,215.5 189.885,207.73 183.63,191.935 193.5,187 203.691,181.905 188.471,214.014 198.5,209 207.134,204.683 202.293,190.914 206,183.5 213.583,168.333 213.356,169.072 227.5,162 230.137,160.682 241.064,162.718 242.5,162 254.869,155.816 276.725,157.95 283,170.5 L285,183.5 C291.818,197.136 288.511,203.011 301.5,216 L307.5,222 C311.041,223.771 320.048,234.404 323,228.5 324.785,224.931 321.213,222.925 320,220.5 317.126,214.753 312.874,209.247 310,203.5 L300,195.5 C297.107,189.713 300.793,181.086 298,175.5 295.157,169.814 290.801,165.102 288,159.5 286.223,155.946 286.977,149.238 282.5,147 275.911,143.706 267.076,147.212 261.5,150 259.675,150.913 257.684,149 256.5,149 L250.5,151 L229.5,152 C224.109,152 216.057,153.279 211.5,151 L207,146  Z"/>

<path  fill="#00FFFF" stroke-width="0" stroke="#00FFFF" d = " M134 149 L128.5,152 C127.489,152.505 124.139,157.32 125.5,158 129.306,159.903 148.4,149 134,149  Z"/>

<path  fill="#00FFFF" stroke-width="0" stroke="#00FFFF" d = " M265 181 C265,184.197 254.329,182.586 253.5,183 L251.5,186 L244.5,188 C243.635,188.433 236.591,186.545 235.5,186 230.926,183.713 212.439,186.621 210,191.5 L210,194.5 C208.916,196.667 204.854,199.208 207,203.5 L213.5,201 C216.312,199.594 220.578,201.461 223.5,200 225.898,198.801 237.918,201.291 242.5,199 245.969,197.265 264.967,199 268.5,199 270.715,199 274.802,196.651 277.5,198 278.248,198.374 283.568,201.466 284.5,201 286.994,199.753 280.758,190.017 280,188.5 L279.5,183 C275.052,180.776 269.623,181 265,181  Z"/>

<path  fill="#00FFFF" stroke-width="0" stroke="#00FFFF" d = " M291 216 L287.5,213 C283.879,214.81 271.103,217.302 268.5,216 260.063,211.781 233.439,209.531 224.5,214 222.948,214.776 210.861,212.319 209.5,213 206.608,214.446 209.125,219.25 208,221.5 207.254,222.993 202,222.995 202,223.5 202,226.811 207.103,225.301 208.5,226 211.869,227.685 215.514,230 219.5,230 224.895,230 236.776,225.138 240.5,227 245.375,229.438 253.395,231.552 258.5,229 L276.5,230 C280.202,228.149 284.882,228.809 288.5,227 L292.5,223 C294.087,222.207 295.001,217 292,217 292,217 291,216 291,216  Z"/>

<path  fill-rule="evenodd" fill="#9953FF" stroke-width="0" stroke="#9953FF" d = " M229 324 C229,328.123 233.123,324 229,324  M257 283 C257,284.93 258.93,283 257,283  M284 339 C284,340.763 275.657,340 274,340 274,340 276,335.5 276,335.5 276,332.931 269.805,332.652 268.5,332 267.479,331.489 263.312,321.094 257.5,324 255.651,324.925 264,328.374 264,330.5 264,332.262 257.985,329.242 257.5,329 257.5,329 251,328.5 251,328.5 251,328.5 254,324.5 254,324.5 254,324.5 250.5,321 250.5,321 250.5,321 249.5,323 249.5,323 249.5,323 246,321 246,321 242.824,321 243.53,328 245,328 245,329.905 245,330.467 245,332 245,332 242,333 242,333 242,332.339 245.034,317.233 239.5,320 239.5,320 236.5,324 236.5,324 236.5,324 233.5,323 233.5,323 231.793,323.854 231.192,330 227.5,330 227.5,330 226.5,326 226.5,326 224.073,324.786 217.373,333.064 215.5,334 211.299,336.1 198,326.951 198,337 191.453,337 177.417,322.458 170.5,319 168.086,317.793 163,314.149 163,311 163,311 164,310 164,310 164.299,310 173,315.621 173,307.5 173,307.5 170,306 170,306 182.391,306 178.255,292.991 181,287.5 184.752,279.997 204.856,269.213 202,263.5 202,263.5 193.5,260 193.5,260 191.029,258.765 190.067,258 187,258 187,258 187,257 187,257 187,257 192,252.5 192,252.5 195.076,246.347 184.185,246 181,246 181,246 184,242.5 184,242.5 189.338,231.824 200.426,237.963 208.5,242 211.357,243.429 214.496,243.491 216,246.5 216.507,247.513 222,247.17 222,252 222,253.009 215.653,263.806 217,266.5 217.86,268.22 227.057,272.614 229,276.5 230.033,278.567 230.107,283.803 232.5,285 233.59,285.545 234.171,282 236.5,282 249.682,282 259.851,283.799 266,271.5 266,271.5 272,266.5 272,266.5 274.215,262.07 268,256.063 268,252 268,247.671 284.334,237.583 289.5,235 292.465,233.517 296.377,235.939 298.5,237 298.5,237 302.5,236 302.5,236 304.366,236.933 310,243.141 310,245 304.889,245 291.946,243.393 296,251.5 297.258,254.016 305,254.726 305,256 305,256 304,257 304,257 299.309,257 286.347,260.194 290,267.5 291.336,270.171 303.384,279.268 304,280.5 307.459,287.418 315,295.808 315,304 315,305.622 314.539,309 317,309 317,310.729 323.051,314 325,314 325,317.628 319.706,318.794 317.5,321 311.498,327.002 297.215,337 289,337 289,332.344 281.387,333.443 278.5,332 277.661,331.58 275.143,328.214 274,330.5 274,330.5 278,334.5 278,334.5 278,337.757 279.415,339 284,339  Z"/>

<path  fill="#FA8072" stroke-width="0" stroke="#FA8072" d = " M331 309 C328.972,309 328.986,314 325,314 323.051,314 317,310.729 317,309 317,309 321,305 321,305 321,305 327,304 327,304 327,304 328,303 328,303 331.444,303 336.694,288.889 335,285.5 333.631,282.763 334.35,279.2 333,276.5 328.766,268.032 321.852,261 312,261 312,261 310,259 310,259 310,259 309,259 309,259 309,259 308,258 308,258 308,258 306,257 306,257 306,257 305,256 305,256 305,254.726 297.258,254.016 296,251.5 291.946,243.393 304.889,245 310,245 320.609,245 337.955,272.41 342,280.5 344.295,285.09 339,292.736 339,297 339,299.483 331,308.801 331,309  Z"/>

<path  fill="#FA8072" stroke-width="0" stroke="#FA8072" d = " M170 306 L173,307.5 C173,315.621 164.299,310 164,310 164,309.874 158.51,307.01 157.5,306 157.5,306 150,298 150,298 150,294.234 148.515,294.53 147,291.5 146.174,289.847 147.405,287.69 148,286.5 148,286.5 148,281.5 148,281.5 149.358,278.784 148.694,275.112 150,272.5 153.248,266.005 160.105,258.197 166.5,255 171.041,252.729 175.733,246 181,246 184.185,246 195.076,246.347 192,252.5 192,252.5 187,257 187,257 187,257 186,258 186,258 186,258 179.5,261 179.5,261 179.5,261 173.5,261 173.5,261 164.468,265.516 159.338,271.825 155,280.5 151.746,287.008 159,293.893 159,299 159,299 163,304 163,304 163,304 170,306 170,306  Z"/>

<path  fill="#EB57FF" stroke-width="0" stroke="#EB57FF" d = " M222 252 C228.216,252 236.778,254.055 240,260.5 241.392,263.284 239.475,265.988 243.5,268 246.257,269.379 250.302,258.896 251,257.5 254.17,251.159 263.137,252 268,252 268,256.063 274.215,262.07 272,266.5 272,266.5 266,271.5 266,271.5 259.851,283.799 249.682,282 236.5,282 234.171,282 233.59,285.545 232.5,285 230.107,283.803 230.033,278.567 229,276.5 227.057,272.614 217.86,268.22 217,266.5 215.653,263.806 222,253.009 222,252  Z"/>

<path  fill="#5BF1FF" stroke-width="0" stroke="#5BF1FF" d = " M327 304 L321,305 C321,305 315,304 315,304 315,295.808 307.459,287.418 304,280.5 303.384,279.268 291.336,270.171 290,267.5 286.347,260.194 299.309,257 304,257 304,257 306,257 306,257 306,257 308,258 308,258 308,258 309,259 309,259 309,259 310,259 310,259 310,259 312,261 312,261 321.852,261 328.766,268.032 333,276.5 334.35,279.2 333.631,282.763 335,285.5 336.694,288.889 331.444,303 328,303 328,303 327,304 327,304  Z"/>

<path  fill="#5BF1FF" stroke-width="0" stroke="#5BF1FF" d = " M163 304 L170,306 C182.391,306 178.255,292.991 181,287.5 184.752,279.997 204.856,269.213 202,263.5 202,263.5 193.5,260 193.5,260 191.029,258.765 190.067,258 187,258 187,258 186,258 186,258 186,258 179.5,261 179.5,261 179.5,261 173.5,261 173.5,261 164.468,265.516 159.338,271.825 155,280.5 151.746,287.008 159,293.893 159,299 160.811,299 163,302.438 163,304  Z"/>

<path  fill="#EB57FF" stroke-width="0" stroke="#EB57FF" d = " M257 283 C257,284.93 258.93,283 257,283  Z"/>

<path  fill="#34FF0D" stroke-width="0" stroke="#34FF0D" d = " M339 297 C341.186,297 339.387,300.726 339,301.5 336.824,305.852 335.087,309 331,309 331,308.801 339,299.483 339,297  Z"/>

<path  fill="#34FF0D" stroke-width="0" stroke="#34FF0D" d = " M164 310 L163,311 C154.717,311 150,304.963 150,298 150,298 157.5,306 157.5,306 158.51,307.01 164,309.874 164,310  Z"/>

<path  fill="#00F60E" stroke-width="0" stroke="#00F60E" d = " M213 342 L214,342 C216.519,342 220,340.917 220,338 216.839,338 222.273,336 224,336 224,336 229,336 229,336 229,336 230,335 230,335 232.295,335 235.296,334 239,334 239,332.527 240.952,333 242,333 242,332.339 245.034,317.233 239.5,320 239.5,320 236.5,324 236.5,324 236.5,324 233.5,323 233.5,323 231.793,323.854 231.192,330 227.5,330 227.5,330 226.5,326 226.5,326 224.073,324.786 217.373,333.064 215.5,334 211.299,336.1 198,326.951 198,337 198,337 202,339 202,339 202,336.249 205.726,339.387 206.5,339 206.5,339 213.5,336 213.5,336 213.5,336 212,339.5 212,339.5 212,339.5 213,342 213,342  Z"/>

<path  fill="#4196FF" stroke-width="0" stroke="#4196FF" d = " M246 321 C242.824,321 243.53,328 245,328 246.714,328 246,322.406 246,321  Z"/>

<path  fill="#00F60E" stroke-width="0" stroke="#00F60E" d = " M265 337 C268.238,337 270.136,340 274,340 274,340 276,335.5 276,335.5 276,332.931 269.805,332.652 268.5,332 267.479,331.489 263.312,321.094 257.5,324 255.651,324.925 264,328.374 264,330.5 264,332.262 257.985,329.242 257.5,329 257.5,329 251,328.5 251,328.5 251,328.5 254,324.5 254,324.5 254,324.5 250.5,321 250.5,321 250.5,321 249.5,323 249.5,323 249.5,323 246,321 246,321 246,322.406 246.714,328 245,328 245,329.905 245,330.467 245,332 245,332 248,335 248,335 248,335 254,335 254,335 254,335 255,334 255,334 255,334 259,335 259,335 259,335 261,336 261,336 261,336 264,336 264,336 264,336 265,337 265,337  Z"/>

<path  fill="#00F60E" stroke-width="0" stroke="#00F60E" d = " M229 324 C229,328.123 233.123,324 229,324  Z"/>

<path  fill="#00F60E" stroke-width="0" stroke="#00F60E" d = " M284 339 L286,339 C286,339 287,338 287,338 287,338 289,337 289,337 289,332.344 281.387,333.443 278.5,332 277.661,331.58 275.143,328.214 274,330.5 274,330.5 278,334.5 278,334.5 278,337.757 279.415,339 284,339  Z"/>

<path  fill="#FF3427" stroke-width="0" stroke="#FF3427" d = " M220 338 C220,340.917 216.519,342 214,342 214,351.518 240,347.454 240,335 240,335 239,334 239,334 235.296,334 232.295,335 230,335 230,335 229,336 229,336 229,336 224,336 224,336 224,338.109 221.465,338 220,338  Z"/>

<path  fill="#9953FF" stroke-width="0" stroke="#9953FF" d = " M239 334 L240,335 C240,335 242,333 242,333 240.952,333 239,332.527 239,334  Z"/>

<path  fill="#9953FF" stroke-width="0" stroke="#9953FF" d = " M255 334 L254,335 C254,335 255,334 255,334  Z"/>

<path  fill="#FF3427" stroke-width="0" stroke="#FF3427" d = " M265 337 C268.238,337 270.136,340 274,340 274,353.584 248,349.613 248,335 248,335 254,335 254,335 254,335 255,334 255,334 255,334 259,335 259,335 259,335 261,336 261,336 261,336 264,336 264,336 264,336 265,337 265,337  Z"/>

<path  fill="#9953FF" stroke-width="0" stroke="#9953FF" d = " M230 335 L229,336 C229,336 230,335 230,335  Z"/>

<path  fill="#9953FF" stroke-width="0" stroke="#9953FF" d = " M259 335 L261,336 C261,336 259,335 259,335  Z"/>

<path  fill="#9953FF" stroke-width="0" stroke="#9953FF" d = " M202 339 C202,340.052 211.611,342 213,342 213,342 212,339.5 212,339.5 212,339.5 213.5,336 213.5,336 213.5,336 206.5,339 206.5,339 205.726,339.387 202,336.249 202,339  Z"/>

<path  fill="#9953FF" stroke-width="0" stroke="#9953FF" d = " M224 336 C222.273,336 216.839,338 220,338 221.465,338 224,338.109 224,336  Z"/>

<path  fill="#9953FF" stroke-width="0" stroke="#9953FF" d = " M264 336 L265,337 C265,337 264,336 264,336  Z"/>

<path  fill="#9953FF" stroke-width="0" stroke="#9953FF" d = " M287 338 L286,339 C286,339 287,338 287,338  Z"/>

</g>
</svg>
