<svg xmlns="http://www.w3.org/2000/svg" xmlns:xlink="http://www.w3.org/1999/xlink" height="512" width="512">
<g>
<rect width="512" height="512" fill="#000000"  stroke-width="0" /> 
<path  fill="#FFE300" stroke-width="0" stroke="#FFE300" d = " M231 167 C231,171.18 223.816,166.842 221.5,168 L220.5,173 L215.5,173 C214.721,173.39 215.248,183.374 218.5,185 225.944,188.722 232.474,181.552 236,174.5 236.503,173.495 231.76,167 231,167  Z"/>

<path  fill="#FFE300" stroke-width="0" stroke="#FFE300" d = " M257 168 C257,170.196 248.372,171.244 251,176.5 L254,177.5 L254,182.5 C254.96,184.419 256.182,183.341 257.5,184 L260,187.5 C262.168,189.668 267.446,188 269.5,188 270.172,188 272.081,190.338 273,188.5 277.597,179.305 265.412,185.676 268,180.5 L273,179.5 L271,176.5 L273,174.5 C273,169.705 260.538,168 257,168  Z"/>

<path  fill="#FA8072" stroke-width="0" stroke="#FA8072" d = " M328 349 C328,350.461 327.954,369.592 327,371.5 325.698,374.105 321.889,371.723 321,373.5 L322,377.5 C319.111,383.278 318.304,392.402 325.5,396 L327.5,398 L330.5,397 C332.533,398.016 334.118,401 336.5,401 340.854,401 338.693,394.904 340.5,394 L344.5,396 C347.757,397.628 353.584,390.669 352,387.5 346.479,376.458 342.462,388.424 338,379.5 334.721,372.942 339.114,356.728 336,350.5 335.1,348.699 332.833,351 332,351 L328,349  Z"/>

<path  fill="#FA8072" stroke-width="0" stroke="#FA8072" d = " M158 350 L156,351.5 C153.407,354.093 153.462,356.576 152,359.5 150.952,361.596 154.204,379.091 152,383.5 151.392,384.717 143,387.495 143,392.5 143,393.078 149.075,394.287 150.5,395 151.747,395.623 152.167,399.833 154.5,401 156.582,402.041 167.42,396.04 169.5,395 L174.5,396 C177.16,394.67 174,382.82 174,381 174,375.3 172.754,372.009 170,366.5 167.176,360.853 177.215,350 158,350  Z"/>

</g>
</svg>
