<svg xmlns="http://www.w3.org/2000/svg" xmlns:xlink="http://www.w3.org/1999/xlink" height="512" width="512">
<g>
<rect width="512" height="512" fill="#000000"  stroke-width="0" /> 
<path  fill="#03C12D" stroke-width="0" stroke="#03C12D" d = " M140 347 C136.054,347 135.928,350.786 133.5,352 129.997,353.751 113.968,355.734 110.5,354 81.0906,339.295 74.3553,313.211 61,286.5 58.7789,282.058 65.4116,278.323 65,277.5 64.8774,277.255 59.5435,278.587 58,275.5 L57,268.5 C55.0687,264.637 52.8786,261.257 51,257.5 49.1404,253.781 52.4917,248.483 51,245.5 L48,244.5 C45.7012,239.902 48,232.225 48,227.5 48,218.805 48.6457,213.209 52,206.5 L52,197.5 C55.0853,191.329 54.8756,183.749 58,177.5 59.6359,174.228 60.299,163.902 62,160.5 66.1698,152.16 70.1358,143.228 74,135.5 L90,123.5 L91,118.5 C92.3448,115.81 113.938,102.781 117.5,101 L123.5,101 L124,98.5 L127.5,98 L130.5,95 C134.675,92.9126 141.406,96.0468 145.5,94 L149.5,90 C155.521,86.9893 167.594,86.9529 175.5,83 L193.5,83 C197.2,81.1501 219.908,82.2039 223.5,84 227.949,86.2244 233.123,91.3115 238.5,94 241.027,95.2634 241.597,90.9515 243.5,90 L254.5,83 C259.118,80.691 293.876,77.1881 299.5,80 306.301,83.4005 315.648,81.5739 322.5,85 L329.5,85 C336.048,88.274 348.972,89.2358 354.5,92 361.311,95.4057 367.589,99.5444 374.5,103 L381.5,104 C386.096,106.298 399.93,114.361 402,118.5 405.672,125.844 412.389,132.278 416,139.5 L425,149.5 C427.482,154.464 428.433,160.366 431,165.5 432.618,168.735 429.806,173.112 431,175.5 L434,177.5 C434.652,178.803 437.463,188.574 437,189.5 L433,192.5 L435,198.5 L433,204.5 L440,205.5 C443.002,211.504 441.999,241.502 439,247.5 436.694,252.112 438.314,258.871 436,263.5 L430,269.5 C427.51,274.479 430.107,282.286 427,288.5 L422,298.5 L418,301.5 C408.573,320.355 400.8,342.85 380.5,353 379.872,353.314 357.683,353.091 357.5,353 L353,349 C353,349 364,326.5 364,326.5 370.969,312.561 373,297.549 373,281 378.376,281 390,259.9 390,255 397.99,255 391.36,245.779 394,240.5 397.162,234.176 390.772,214.045 388,208.5 385.838,204.177 387.134,197.768 385,193.5 385,193.5 380,187.5 380,187.5 380,187.5 380,181.5 380,181.5 380,181.5 374,175.5 374,175.5 374,175.5 374,172.5 374,172.5 373.699,171.898 360.899,162.7 359.5,162 359.5,162 356.5,157 356.5,157 346.746,152.123 338.344,143.922 328.5,139 321.756,135.628 313.3,135.4 306.5,132 306.5,132 297.5,132 297.5,132 293.197,129.848 288.164,128 283,128 283,128 282,127 282,127 276.698,127 271.771,122.864 267.5,125 264.662,126.419 261.631,145.434 254.5,149 250.724,150.888 245.313,149.094 241.5,151 239.317,152.091 234.211,150.855 232.5,150 220.525,144.013 221.565,141.631 216,130.5 214.992,128.483 209.668,124.916 207.5,126 202.425,128.537 197.465,130.518 192.5,133 188.626,134.937 178.315,135.092 172.5,138 169.412,139.544 164.588,138.456 161.5,140 151.988,144.756 143.959,152.27 134.5,157 134.5,157 132.5,160 132.5,160 128.725,161.888 120.764,166.971 119,170.5 115.194,178.113 109.494,185.512 106,192.5 106,192.5 105,200.5 105,200.5 105,200.5 100,205.5 100,205.5 100,205.5 100,211.5 100,211.5 95.3306,220.839 95,236.467 95,248 95,248 96,250 96,250 96,250 96,258 96,258 93.8988,258 97.4835,261 99,261 99,261 101,266 101,266 101,266 102,267 102,267 102,270.338 108.328,279 112,279 112,285.287 115.115,285.729 118,291.5 120.956,297.412 115.112,304.725 118,310.5 118,310.5 123,320.5 123,320.5 126.229,326.957 140,340.759 140,347  Z"/>

<path  fill="#FF6E00" stroke-width="0" stroke="#FF6E00" d = " M96 258 C96,259.399 98,259.399 98,258 98,258 98,256 98,256 98,256 98,255 98,255 98,241.324 100.321,220.858 106,209.5 107.778,205.945 111.491,203.517 113,200.5 115.807,194.886 115.82,188.34 122.5,185 132.568,179.966 127.805,171 144,171 144,168.221 147.396,167.052 149.5,166 155.947,162.776 163.277,152.612 168.5,150 169.723,149.388 174,148.553 174,151 180.579,151 190.578,141.039 198.5,145 201.322,146.411 216.305,155 218,155 219.747,155 220,155.253 220,157 220,157 221,157 221,157 221,157 222,158 222,158 222,158 223,158 223,158 223,158 224,159 224,159 228.242,159 231.589,163 236,163 239.559,163 245.441,163 249,163 252.768,163 270.536,148 273,148 273,146.423 274.762,146 276,146 276,146 278,145 278,145 278,145 279,144 279,144 283.954,144 291.359,137.93 297.5,141 299.464,141.982 308.459,147 310,147 310,143.712 315.464,144.964 317,146.5 319.735,149.235 331.531,162 335,162 335,162 339.5,166 339.5,166 340.765,166.632 346,167.278 346,169 346,169 353,171 353,171 353,171 355,172 355,172 358.835,172 364.307,177.807 367,180.5 367,180.5 370,181.5 370,181.5 370.878,183.255 371.077,185.654 372,187.5 375.084,193.667 379.918,198.337 383,204.5 383,204.5 383,209.5 383,209.5 385.493,214.486 387.495,219.49 390,224.5 390,224.5 389,230.5 389,230.5 392.785,238.07 390,246.494 390,255 397.99,255 391.36,245.779 394,240.5 397.162,234.176 390.772,214.045 388,208.5 385.838,204.177 387.134,197.768 385,193.5 385,193.5 380,187.5 380,187.5 380,187.5 380,181.5 380,181.5 380,181.5 374,175.5 374,175.5 374,175.5 374,172.5 374,172.5 373.699,171.898 360.899,162.7 359.5,162 359.5,162 356.5,157 356.5,157 346.746,152.123 338.344,143.922 328.5,139 321.756,135.628 313.3,135.4 306.5,132 306.5,132 297.5,132 297.5,132 293.197,129.848 288.164,128 283,128 283,128 282,127 282,127 276.698,127 271.771,122.864 267.5,125 264.662,126.419 261.631,145.434 254.5,149 250.724,150.888 245.313,149.094 241.5,151 239.317,152.091 234.211,150.855 232.5,150 220.525,144.013 221.565,141.631 216,130.5 214.992,128.483 209.668,124.916 207.5,126 202.425,128.537 197.465,130.518 192.5,133 188.626,134.937 178.315,135.092 172.5,138 169.412,139.544 164.588,138.456 161.5,140 151.988,144.756 143.959,152.27 134.5,157 134.5,157 132.5,160 132.5,160 128.725,161.888 120.764,166.971 119,170.5 115.194,178.113 109.494,185.512 106,192.5 106,192.5 105,200.5 105,200.5 105,200.5 100,205.5 100,205.5 100,205.5 100,211.5 100,211.5 95.3306,220.839 95,236.467 95,248 95,248 96,250 96,250 96,250 96,258 96,258  Z"/>

<path  fill="#0E47E2" stroke-width="0" stroke="#0E47E2" d = " M278 178 C276.01,178 275.793,180.146 277.5,181 L281,180 C281,196.834 256.484,190.992 248.5,187 245.509,185.504 240.795,178.909 243,174.5 243,174.5 246,172.5 246,172.5 247.081,170.339 245,167.606 245,166 245,166 249,163 249,163 252.768,163 270.536,148 273,148 274.238,148 276,147.577 276,146 276,146 278,145 278,145 278,145 279,144 279,144 283.954,144 291.359,137.93 297.5,141 299.464,141.982 308.459,147 310,147 310,147 311,147 311,147 311,147 313,148 313,148 313,150.25 317,150.259 317,153 317,153 318,157 318,157 318,160.224 315.213,164.644 312.5,166 308.309,168.096 282.858,177 279,177 279,177 278,178 278,178  Z"/>

<path  fill="#0E47E2" stroke-width="0" stroke="#0E47E2" d = " M240 167 C240,175.651 242.772,185.864 232.5,191 225.876,194.312 204,191.932 204,183 204,183 212,182.5 212,182.5 212,178.22 196.769,177.135 194.5,176 184.293,170.896 168,170.632 168,157 168,157 171,152.5 171,152.5 171,152.5 174,151 174,151 180.579,151 190.578,141.039 198.5,145 201.322,146.411 216.305,155 218,155 218,155 220,157 220,157 220,157 221,157 221,157 221,157 222,158 222,158 222,158 223,158 223,158 223,158 224,159 224,159 228.242,159 231.589,163 236,163 236,163 240,167 240,167  Z"/>

<path  fill="#022CFF" stroke-width="0" stroke="#022CFF" d = " M340 189 L341,189 C341,187.762 341.423,186 343,186 343,186 340,182.5 340,182.5 338.231,178.963 340,173.124 340,170 340,167.26 335,165.23 335,162 331.531,162 319.735,149.235 317,146.5 315.464,144.964 310,143.712 310,147 310,147 311,147 311,147 311,147 313,148 313,148 313,150.25 317,150.259 317,153 319.715,153 320,154.657 320,157 324.119,157 333.125,167.75 335,171.5 335.692,172.884 333.266,178.031 334,179.5 335.63,182.76 340,184.316 340,189  Z"/>

<path  fill="#FF6E00" stroke-width="0" stroke="#FF6E00" d = " M311 147 L313,148 C313,148 311,147 311,147  Z"/>

<path  fill="#022CFF" stroke-width="0" stroke="#022CFF" d = " M153 194 L154,194 C154,185.571 157.824,157 168,157 168,157 171,152.5 171,152.5 171,152.5 174,151 174,151 174,148.553 169.723,149.388 168.5,150 163.277,152.612 155.947,162.776 149.5,166 147.396,167.052 144,168.221 144,171 148.74,171 149,171.26 149,176 149,180.827 151,188.173 151,193 151,193 153,194 153,194  Z"/>

<path  fill="#00FF1D" stroke-width="0" stroke="#00FF1D" d = " M167 200 L170,200 C170,194.394 180,191.579 180,186 180,184.253 180.253,184 182,184 182,179.503 195.589,180.545 198.5,182 199.738,182.619 204,180.856 204,183 204,183 212,182.5 212,182.5 212,178.22 196.769,177.135 194.5,176 184.293,170.896 168,170.632 168,157 157.824,157 154,185.571 154,194 154,194 154,195 154,195 157.519,195 160.96,200 167,200  Z"/>

<path  fill="#00FF1D" stroke-width="0" stroke="#00FF1D" d = " M318 194 C320.844,194 324.268,197 328,197 331.895,197 334.251,193 337,193 337,193 339,191 339,191 339,191 339,190 339,190 339,190 340,189 340,189 340,184.316 335.63,182.76 334,179.5 333.266,178.031 335.692,172.884 335,171.5 333.125,167.75 324.119,157 320,157 320,157 318,157 318,157 318,160.224 315.213,164.644 312.5,166 308.309,168.096 282.858,177 279,177 279,177 278,178 278,178 276.01,178 275.793,180.146 277.5,181 277.5,181 281,180 281,180 281,180 285.5,180 285.5,180 285.5,180 286.5,178 286.5,178 289.209,176.645 309,175.799 309,179 309,184.286 318,188.875 318,194  Z"/>

<path  fill="#FF0800" stroke-width="0" stroke="#FF0800" d = " M245 166 L240,167 C240,167 236,163 236,163 239.559,163 245.441,163 249,163 249,163 245,166 245,166  Z"/>

<path  fill="#022CFF" stroke-width="0" stroke="#022CFF" d = " M236 196 C233.436,196 217,191.512 217,198 217,198 207.5,191 207.5,191 198.962,186.731 192.515,184 182,184 182,179.503 195.589,180.545 198.5,182 199.738,182.619 204,180.856 204,183 204,191.932 225.876,194.312 232.5,191 242.772,185.864 240,175.651 240,167 240,167 245,166 245,166 245,167.606 247.081,170.339 246,172.5 246,172.5 243,174.5 243,174.5 240.795,178.909 245.509,185.504 248.5,187 256.484,190.992 281,196.834 281,180 281,180 285.5,180 285.5,180 285.5,180 286.5,178 286.5,178 289.209,176.645 309,175.799 309,179 301.177,179 292.02,179.74 285.5,183 282.421,184.539 273.044,195 269,195 266.123,195 250,191.383 250,196 248.183,196 244.428,201.964 240.5,200 239.502,199.501 236,193.618 236,196  Z"/>

<path  fill="#814FFF" stroke-width="0" stroke="#814FFF" d = " M359 268 C359,273.425 367.81,281 373,281 378.376,281 390,259.9 390,255 390,246.494 392.785,238.07 389,230.5 389,230.5 390,224.5 390,224.5 387.495,219.49 385.493,214.486 383,209.5 383,209.5 383,204.5 383,204.5 379.918,198.337 375.084,193.667 372,187.5 371.077,185.654 370.878,183.255 370,181.5 370,181.5 367,180.5 367,180.5 364.307,177.807 358.835,172 355,172 355,172 353,171 353,171 353,171 346,169 346,169 346,169 340,170 340,170 340,173.124 338.231,178.963 340,182.5 340,182.5 343,186 343,186 343,186 345,186 345,186 349.273,186 359.399,202.702 359,203.5 359,203.5 356,205.5 356,205.5 353.811,209.879 355,211.576 355,216 359.06,216 360.563,224.625 362,227.5 365.093,233.686 365.622,245.256 362,252.5 362,252.5 362,258.5 362,258.5 359.948,262.604 359,262.937 359,268  Z"/>

<path  fill="#814FFF" stroke-width="0" stroke="#814FFF" d = " M102 267 C102,270.338 108.328,279 112,279 124.128,279 128,280.156 128,265 128,265 128,264 128,264 128,264 128,258.5 128,258.5 128,258.5 125,255.5 125,255.5 125,252.389 125.388,237.724 127,234.5 127.583,233.334 136,222.063 136,222 136,220.361 138,219.545 138,218.5 138,216.072 134,218.114 134,215 132.942,215 130.971,214 133,214 133,212.565 136.332,190.835 137,189.5 137.5,188.5 142,191.211 142,186 142,183.351 147.829,176 149,176 149,171.26 148.74,171 144,171 127.805,171 132.568,179.966 122.5,185 115.82,188.34 115.807,194.886 113,200.5 111.491,203.517 107.778,205.945 106,209.5 100.321,220.858 98,241.324 98,255 99.1859,255 99.1859,256 98,256 98,256 98,258 98,258 98.8126,258 100.728,261 99,261 99,261 101,266 101,266 101,266 102,267 102,267  Z"/>

<path  fill="#006400" stroke-width="0" stroke="#006400" d = " M246 283 C250.856,283 255.474,281 259.5,281 L263.5,284 C265.746,284 268.329,284 271,284 283.897,284 297.438,266 301,266 301,259.323 306.448,262.603 309,257.5 311.009,253.483 313.953,252.774 317.5,251 322.063,248.718 330.767,236.966 333,232.5 336.076,226.347 338.1,209.7 335,203.5 333.811,201.122 325,203.031 325,201 323.437,201 318,195.842 318,194 318,188.875 309,184.286 309,179 301.177,179 292.02,179.74 285.5,183 282.421,184.539 273.044,195 269,195 269,204.62 250,200.834 250,196 248.183,196 244.428,201.964 240.5,200 239.502,199.501 236,193.618 236,196 236,201.463 217,206.759 217,198 217,198 207.5,191 207.5,191 198.962,186.731 192.515,184 182,184 182,184 180,186 180,186 180,191.579 170,194.394 170,200 170,200 167,203 167,203 167,203 165,204 165,204 165,204 162,206 162,206 162,206 161,205 161,205 161,205 158,205 158,205 158,205 154,209.5 154,209.5 152.734,212.033 154.795,216.91 154,218.5 154,218.5 152,219.5 152,219.5 150.753,221.994 154.952,228.405 156,230.5 156,230.5 158,238.5 158,238.5 159.393,241.286 172.403,252.452 175.5,254 176.09,254.295 181.739,258.977 182,259.5 182,259.5 185,265 185,265 188.954,265 191.168,270.334 194.5,272 202.785,276.143 207.76,284 218,284 223.406,284 224.116,283.192 228.5,281 230.957,279.772 237.625,283 241,283 241,279.063 246,279.063 246,283  Z"/>

<path  fill-rule="evenodd" fill="#FF3427" stroke-width="0" stroke="#FF3427" d = " M137 221 C137,222.93 138.93,221 137,221  M185 265 C185,266.947 188.428,268.644 187,271.5 185.875,273.75 183.25,274.125 181.5,275 L174.5,280 C169.77,282.365 157.51,267 154,267 154,267 150,263.5 150,263.5 147.752,259.004 146,255.853 146,251.5 146,250.88 141,246.568 141,244.5 141,240.711 140,233.649 140,229.5 140,229.5 136,224.5 136,224.5 136,224.005 138.466,222 136,222 136,220.361 138,219.545 138,218.5 138,216.072 134,218.114 134,215 134,215 133,214 133,214 133,212.565 136.332,190.835 137,189.5 137.5,188.5 142,191.211 142,186 144.444,186 143.934,193 149,193 149,193 148,196.5 148,196.5 149.07,198.641 155.107,205 158,205 158,205 154,209.5 154,209.5 152.734,212.033 154.795,216.91 154,218.5 154,218.5 152,219.5 152,219.5 150.753,221.994 154.952,228.405 156,230.5 156,230.5 158,238.5 158,238.5 159.393,241.286 172.403,252.452 175.5,254 176.09,254.295 181.739,258.977 182,259.5 182,259.5 185,265 185,265  Z"/>

<path  fill="#FF3427" stroke-width="0" stroke="#FF3427" d = " M301 266 L302,271.5 L306.5,273 C308.453,273.976 317.061,280 318.5,280 L320.5,278 L323.5,278 C328.25,275.625 332.589,266.956 334.5,266 L337,267 C337,267 337,261 337,261 337,259.762 337.423,258 339,258 339,252.892 346.463,246.575 348,243.5 348,243.5 347,234.5 347,234.5 347,234.5 350,233.5 350,233.5 352.048,229.404 349.973,224.553 351,222.5 351,222.5 355,216 355,216 355,211.576 353.811,209.879 356,205.5 356,205.5 359,203.5 359,203.5 359.399,202.702 349.273,186 345,186 345,188.933 344.835,189 341,189 341,189 340,189 340,189 340,189 339,190 339,190 339,190 339,191 339,191 343.924,191 336.656,199 334,199 331.876,199 329.564,198 328,198 328,199.916 325,198.07 325,201 325,203.031 333.811,201.122 335,203.5 338.1,209.7 336.076,226.347 333,232.5 330.767,236.966 322.063,248.718 317.5,251 313.953,252.774 311.009,253.483 309,257.5 306.448,262.603 301,259.323 301,266  Z"/>

<path  fill="#EE7533" stroke-width="0" stroke="#EE7533" d = " M161 205 L162,205 C162,203.527 163.952,204 165,204 165,204 167,203 167,203 167,203 167,200 167,200 160.96,200 157.519,195 154,195 154,195 153,194 153,194 153,194 151,193 151,193 151,193 149,193 149,193 149,193 148,196.5 148,196.5 149.07,198.641 155.107,205 158,205 158,205 161,205 161,205  Z"/>

<path  fill="#EE7533" stroke-width="0" stroke="#EE7533" d = " M328 198 C329.564,198 331.876,199 334,199 334,196.859 337,196.37 337,193 334.251,193 331.895,197 328,197 328,197 328,198 328,198  Z"/>

<path  fill="#FFFC00" stroke-width="0" stroke="#FFFC00" d = " M236 196 C233.436,196 217,191.512 217,198 217,206.759 236,201.463 236,196  Z"/>

<path  fill="#FFFC00" stroke-width="0" stroke="#FFFC00" d = " M269 195 C266.123,195 250,191.383 250,196 250,200.834 269,204.62 269,195  Z"/>

<path  fill="#FF3427" stroke-width="0" stroke="#FF3427" d = " M162 205 L162,206 C162,206 161,205 161,205 161,205 162,205 162,205  Z"/>

<path  fill="#FF91BA" stroke-width="0" stroke="#FF91BA" d = " M337 267 L343.5,274 C348.741,276.621 353.975,268 359,268 359,262.937 359.948,262.604 362,258.5 362,258.5 362,252.5 362,252.5 365.622,245.256 365.093,233.686 362,227.5 360.563,224.625 359.06,216 355,216 355,216 351,222.5 351,222.5 349.973,224.553 352.048,229.404 350,233.5 350,233.5 347,234.5 347,234.5 347,234.5 348,243.5 348,243.5 346.463,246.575 339,252.892 339,258 339,259.238 338.577,261 337,261 337,261 337,267 337,267  Z"/>

<path  fill="#FF91BA" stroke-width="0" stroke="#FF91BA" d = " M129 265 C133.6,265 134.243,273.872 138.5,276 L150,274.5 L149,272.5 C149,270.684 151.734,271.383 152.5,271 154.183,270.158 150.486,267 154,267 154,267 150,263.5 150,263.5 147.752,259.004 146,255.853 146,251.5 146,250.88 141,246.568 141,244.5 141,240.711 140,233.649 140,229.5 140,229.5 136,224.5 136,224.5 136,224.005 138.466,222 136,222 136,222.063 127.583,233.334 127,234.5 125.388,237.724 125,252.389 125,255.5 125,255.5 128,258.5 128,258.5 128,258.5 128,264 128,264 128,264 129,265 129,265  Z"/>

<path  fill-rule="evenodd" fill="#E1F00D" stroke-width="0" stroke="#E1F00D" d = " M152 309 C152,312.746 154.091,309 152,309  M181 323 C179.41,323 179.557,327.386 179,328.5 177.55,331.4 173.663,338.419 170.5,340 L164.5,341 C155.911,345.295 149.359,347 140,347 140,340.759 126.229,326.957 123,320.5 123,320.5 118,310.5 118,310.5 115.112,304.725 120.956,297.412 118,291.5 115.115,285.729 112,285.287 112,279 124.128,279 128,280.156 128,265 128,265 129,265 129,265 133.6,265 134.243,273.872 138.5,276 138.5,276 150,274.5 150,274.5 150,274.5 149,272.5 149,272.5 149,270.684 151.734,271.383 152.5,271 154.183,270.158 150.486,267 154,267 157.51,267 169.77,282.365 174.5,280 174.5,280 181.5,275 181.5,275 183.25,274.125 185.875,273.75 187,271.5 188.428,268.644 185,266.947 185,265 188.954,265 191.168,270.334 194.5,272 202.785,276.143 207.76,284 218,284 218,286.031 215.837,293 213,293 213,293 214,290 214,290 214,279.391 203.788,296 211,296 211,296 200,318 200,318 197.265,318 198.087,315 195,315 186.764,315 181,308.274 181,323  Z"/>

<path  fill-rule="evenodd" fill="#E1F00D" stroke-width="0" stroke="#E1F00D" d = " M335 306 C335,309.746 337.091,306 335,306  M273 285 L272,288.5 L273,291.5 C275.512,296.523 282.648,285 273,285  M345 353 L348,353 C348,351.448 353,351.854 353,349 353,349 364,326.5 364,326.5 370.969,312.561 373,297.549 373,281 367.81,281 359,273.425 359,268 353.975,268 348.741,276.621 343.5,274 343.5,274 337,267 337,267 337,267 334.5,266 334.5,266 332.589,266.956 328.25,275.625 323.5,278 323.5,278 320.5,278 320.5,278 320.5,278 318.5,280 318.5,280 317.061,280 308.453,273.976 306.5,273 306.5,273 302,271.5 302,271.5 302,271.5 301,266 301,266 297.438,266 283.897,284 271,284 271,295.66 279.263,300.025 284,309.5 284,309.5 284,320 284,320 284,320 285,321 285,321 285,321 289,319 289,319 289,319 290,318 290,318 290,317.484 302.539,307.577 305,312.5 307.548,317.595 303,321.153 303,326 310.657,326 308.096,338.298 313.5,341 315.797,342.148 317.563,340.032 319.5,341 324.661,343.581 329.373,346.437 334.5,349 337.448,350.474 338.388,346.276 340,349.5 340,349.5 345,353 345,353  Z"/>

<path  fill="#022CFF" stroke-width="0" stroke="#022CFF" d = " M241 283 C241,293.032 242,304.785 242,315.5 L242,330.5 L245,330.5 L245,294 C245,292.259 244.227,283 246,283 246,279.063 241,279.063 241,283  Z"/>

<path  fill="#E278A1" stroke-width="0" stroke="#E278A1" d = " M212 333 L227.5,342 C229.932,343.216 236.538,341.981 238.5,341 L262.5,340 C264.725,338.888 267.346,338 270,338 270,335.318 279.356,324 282,324 282,322.762 282.423,321 284,321 284,321 284,320 284,320 284,320 284,309.5 284,309.5 279.263,300.025 271,295.66 271,284 268.329,284 265.746,284 263.5,284 263.5,284 259.5,281 259.5,281 255.474,281 250.856,283 246,283 244.227,283 245,292.259 245,294 245,294 245,330.5 245,330.5 245,330.5 242,330.5 242,330.5 242,330.5 242,315.5 242,315.5 242,304.785 241,293.032 241,283 237.625,283 230.957,279.772 228.5,281 224.116,283.192 223.406,284 218,284 218,286.031 215.837,293 213,293 213,295.003 213.293,296 211,296 211,296 200,318 200,318 200,321.047 212,331.563 212,333  Z"/>

<path  fill="#15C0FF" stroke-width="0" stroke="#15C0FF" d = " M273 285 L272,288.5 L273,291.5 C275.512,296.523 282.648,285 273,285  Z"/>

<path  fill="#15C0FF" stroke-width="0" stroke="#15C0FF" d = " M213 293 C213,295.003 213.293,296 211,296 203.788,296 214,279.391 214,290 214,290 213,293 213,293  Z"/>

<path  fill="#ADFF2F" stroke-width="0" stroke="#ADFF2F" d = " M335 306 C335,309.746 337.091,306 335,306  Z"/>

<path  fill="#ADFF2F" stroke-width="0" stroke="#ADFF2F" d = " M152 309 C152,312.746 154.091,309 152,309  Z"/>

<path  fill="#267EFF" stroke-width="0" stroke="#267EFF" d = " M303 326 L300.5,329 C295.209,331.646 287.683,332 282,332 282,326.713 289,323.645 289,319 289,319 290,318 290,318 290,317.484 302.539,307.577 305,312.5 307.548,317.595 303,321.153 303,326  Z"/>

<path  fill="#267EFF" stroke-width="0" stroke="#267EFF" d = " M181 323 C183.686,323 185.89,327.695 188.5,329 191.076,330.288 194.801,329.65 197.5,331 L200.5,334 L204,332 C204,325.56 195,322.56 195,315 186.764,315 181,308.274 181,323  Z"/>

<path  fill="#FAAA40" stroke-width="0" stroke="#FAAA40" d = " M204 332 L206.5,335 C209.439,336.47 210.716,333 212,333 212,331.563 200,321.047 200,318 197.265,318 198.087,315 195,315 195,322.56 204,325.56 204,332  Z"/>

<path  fill="#FAAA40" stroke-width="0" stroke="#FAAA40" d = " M290 318 L289,319 C289,319 290,318 290,318  Z"/>

<path  fill="#FAAA40" stroke-width="0" stroke="#FAAA40" d = " M282 332 C279.917,332 274.966,338 270,338 270,335.318 279.356,324 282,324 283.577,324 284,322.238 284,321 284,321 285,321 285,321 285,321 289,319 289,319 289,323.645 282,326.713 282,332  Z"/>

<path  fill-rule="evenodd" fill="#FA8072" stroke-width="0" stroke="#FA8072" d = " M302 358 C302,367.064 305.605,358 302,358  M298 342 C298,345.536 276.481,349.462 281,358.5 282.14,360.781 282.926,363.352 284,365.5 L289,368.5 C290.169,370.837 289.696,381.098 295.5,384 L299.5,382 L303.5,384 C305.253,383.123 306.937,380.718 309.5,382 L312.5,385 C319.616,388.558 319.754,379.373 322.5,378 325.235,376.632 327.542,376.416 329,373.5 L328,366.5 C328.819,364.861 341.176,364.852 337,356.5 332.713,347.926 327.907,355.704 324.5,354 L318.5,348 L316,347.5 C315.264,346.027 316.385,342.943 314.5,342 L304.5,342 L302.5,344 C300.4,342.95 300.606,342 298,342  Z"/>

<path  fill="#FA8072" stroke-width="0" stroke="#FA8072" d = " M183 343 C183,344.361 176.742,345.379 175.5,346 L168,351.5 L167.5,356 L163.5,353 L160.5,356 C158.643,356.928 154.095,357.31 153,359.5 L155,362.5 C155,375.562 158.555,366.61 161,371.5 162.025,373.55 160.529,375.515 163.5,377 166.109,378.305 166.759,374 168.5,374 L168,379.5 L177.5,387 C179.76,387 182.825,383 185.5,383 189.026,383 197.849,386.803 201,380.5 203.724,375.053 191.34,372.08 195.5,370 L199.5,371 C202.03,369.735 205.367,362.933 201.5,361 200.222,360.361 195.128,360.756 195,360.5 192.97,356.439 197.829,348.665 192.5,346 L186.5,345 C184.881,344.191 185.029,343 183,343  Z"/>

<path  fill="#FA8072" stroke-width="0" stroke="#FA8072" d = " M144 353 C144,361.442 160.572,353 148,353 L144,353  Z"/>

<path  fill="#FA8072" stroke-width="0" stroke="#FA8072" d = " M345 353 L348,353 C348,356.128 353.228,354.364 354.5,355 354.5,355 354,357.5 354,357.5 354,357.5 357,360.5 357,360.5 358.297,361.797 365.243,362.014 363,366.5 362.152,368.197 362.482,372.009 360.5,373 359.493,373.504 345.565,375.629 348,380.5 348,380.5 352.5,379 352.5,379 352.5,379 354.5,383 354.5,383 356.591,383 356.558,377.029 360.5,379 363.904,380.702 365.352,384.204 367,387.5 367,387.5 370.5,389 370.5,389 377.071,392.285 366.614,399.943 364.5,401 360.763,402.869 356.284,396 354.5,396 354.5,396 352.5,397 352.5,397 350.754,396.127 344.173,383.846 343,381.5 343,381.5 344,378.5 344,378.5 341.654,373.808 340,380.395 340,372.5 340,370.313 336.28,366.941 338,363.5 340.106,359.289 345.142,361.215 347,357.5 347.235,357.03 340.012,353 345,353  Z"/>

<path  fill="#FA8072" stroke-width="0" stroke="#FA8072" d = " M135 360 C135,362.719 124.25,362 123,364.5 121.344,367.811 131.603,373.052 133.5,374 L139.5,381 C140.842,381.671 155.844,373.187 153,367.5 149.074,359.648 142.134,360 135,360  Z"/>

<path  fill="#FA8072" stroke-width="0" stroke="#FA8072" d = " M134 386 L132.5,389 L129.5,388 C123.839,388 119.589,399.044 125.5,402 127.405,402.953 128.217,400.642 129.5,400 132.436,398.532 137.053,400.395 139,396.5 141.061,392.378 138.207,386 134,386  Z"/>

</g>
</svg>
