<svg xmlns="http://www.w3.org/2000/svg" xmlns:xlink="http://www.w3.org/1999/xlink" height="512" width="512">
<g>
<rect width="512" height="512" fill="#000000"  stroke-width="0" /> 
<path  fill="#03C12D" stroke-width="0" stroke="#03C12D" d = " M134 322 L120.5,322 C108.894,316.197 89.9781,300.456 84,288.5 82.555,285.61 85.9094,279.319 85,277.5 L81,275.5 C79.8818,273.264 83.8402,272.18 83,270.5 L76,261.5 C75.6909,260.882 79.7299,249.96 78,246.5 76.0956,242.691 72.1369,239.774 70,235.5 L70,211.5 C70.7736,209.953 73.1425,208.785 72,206.5 L69,203.5 C68.5385,202.577 72.229,175.042 73,173.5 76.6989,166.102 79.2546,157.991 83,150.5 L92,141.5 C93.8189,137.862 98.1559,131.172 102.5,129 109.291,125.604 115.711,121.394 122.5,118 130.05,114.225 138.862,112.819 146.5,109 152.886,105.807 162.155,108.172 168.5,105 178.444,100.028 205.324,93.4118 216.5,99 L228.5,100 L238.5,106 C241.17,107.335 247.268,101.116 249.5,100 254.017,97.7414 276.678,92.089 280.5,94 290.059,98.7793 302.828,96.1639 312.5,101 L325.5,102 C334.639,106.569 346.744,105.622 355.5,110 363.09,113.795 369.948,119.224 377.5,123 383.248,125.874 394.669,132.838 398,139.5 401.74,146.981 408.303,153.105 412,160.5 416.33,169.16 415.726,179.952 420,188.5 L420,199.5 C421.408,202.316 422.89,213.72 422,215.5 420.699,218.102 423.92,225.661 422,229.5 420.478,232.545 420.896,241.708 418,247.5 L419,251.5 C415.71,258.08 413.234,265.032 410,271.5 L402,279.5 L400,291.5 C397.331,296.839 392.549,302.476 387.5,305 L374.5,318 C365.722,322.389 354.389,323 345,323 345,320.149 344.48,317.46 343,314.5 343,314.5 343,293 343,293 343,293 346,290.5 346,290.5 347.878,286.744 354,281.899 354,278 354,271.904 362.303,262.895 365,257.5 365,257.5 368,255.5 368,255.5 371.045,249.41 373.039,244.422 376,238.5 377.731,235.039 374.776,227.948 376,225.5 376,225.5 378,222.5 378,222.5 378,219.894 376.138,216.777 375,214.5 375,214.5 374,199.5 374,199.5 374,199.5 368,194.5 368,194.5 365.89,190.28 364.117,185.734 362,181.5 360.855,179.21 359.118,179.809 357.5,179 352.477,176.488 349.448,170.474 344.5,168 333.875,162.688 322.152,159.326 311.5,154 305.702,151.101 291.61,153.055 285.5,150 281.346,147.923 278.76,153 277,153 277,151.227 265.85,146.175 263.5,145 263.5,145 258.5,140 258.5,140 256.345,138.922 241.389,133.056 239.5,134 239.5,134 214.5,149 214.5,149 214.5,149 208,155 208,155 207.245,155 202.853,149.823 198.5,152 191.897,155.301 183.059,154.72 180.5,156 175.49,158.505 165.381,159.56 162.5,161 152.671,165.915 131.731,174.039 126,185.5 122.249,193.002 119.739,201.021 116,208.5 113.759,212.981 112.437,236.374 115,241.5 116.819,245.139 123,256.421 123,260 123,260 131.5,275 131.5,275 132.176,275.338 138,279.029 138,276 142.201,276 139.441,285 144,285 144,287.154 147.846,291 150,291 150,297.382 151.999,302.503 149,308.5 144.9,316.7 134,313.809 134,322  Z"/>

<path  fill="#1D68EB" stroke-width="0" stroke="#1D68EB" d = " M240 180 L242,177.5 C245.556,170.389 247.231,180 251,180 264.066,180 277,165.885 277,153 277,151.227 265.85,146.175 263.5,145 263.5,145 258.5,140 258.5,140 256.345,138.922 241.389,133.056 239.5,134 239.5,134 214.5,149 214.5,149 214.5,149 208,155 208,155 208,155 211,160.5 211,160.5 217.373,173.247 224.473,180 240,180  Z"/>

<path  fill="#FF6E00" stroke-width="0" stroke="#FF6E00" d = " M351 277 L354,278 C354,271.904 362.303,262.895 365,257.5 365,257.5 368,255.5 368,255.5 371.045,249.41 373.039,244.422 376,238.5 377.731,235.039 374.776,227.948 376,225.5 376,225.5 378,222.5 378,222.5 378,219.894 376.138,216.777 375,214.5 375,214.5 374,199.5 374,199.5 374,199.5 368,194.5 368,194.5 365.89,190.28 364.117,185.734 362,181.5 360.855,179.21 359.118,179.809 357.5,179 352.477,176.488 349.448,170.474 344.5,168 333.875,162.688 322.152,159.326 311.5,154 305.702,151.101 291.61,153.055 285.5,150 281.346,147.923 278.76,153 277,153 277,165.885 264.066,180 251,180 251,181.634 240,181.634 240,180 224.473,180 217.373,173.247 211,160.5 211,160.5 208,155 208,155 207.245,155 202.853,149.823 198.5,152 191.897,155.301 183.059,154.72 180.5,156 175.49,158.505 165.381,159.56 162.5,161 152.671,165.915 131.731,174.039 126,185.5 122.249,193.002 119.739,201.021 116,208.5 113.759,212.981 112.437,236.374 115,241.5 116.819,245.139 123,256.421 123,260 123,260 131.5,275 131.5,275 132.176,275.338 138,279.029 138,276 138,276 136,273.5 136,273.5 136,273.5 135,266.5 135,266.5 133.649,263.798 128.813,263.126 127,259.5 127,259.5 126,253.5 126,253.5 126,253.5 123,250.5 123,250.5 123,250.5 123,245.5 123,245.5 113.659,226.819 122.8,205.899 131,189.5 133.261,184.977 142.352,181.074 146.5,179 151.934,176.283 157.138,173.681 162.5,171 162.5,171 180.5,170 180.5,170 181.955,169.272 185.573,168.036 187.5,169 187.5,169 193.5,173 193.5,173 197.35,174.925 209,176.654 209,183 212.651,183 214.93,189 218,189 218,189 219,190 219,190 220.238,190 222,190.423 222,192 230.027,192 242.282,203.109 250.5,199 250.5,199 266,191 266,191 270.14,191 272.756,184 277,184 277,184 279,182 279,182 279,177.111 294,171.97 294,171 294,169.814 295,169.814 295,171 297.673,171 299.963,169.269 302.5,168 307.087,165.707 329.206,169.853 333.5,172 339.605,175.053 345.303,178.901 351.5,182 353.481,182.991 354.182,187 357,187 357,187 358,188 358,188 358,190.572 365.609,198.718 367,201.5 368.409,204.318 372.42,229.659 371,232.5 369.674,235.153 371.272,238.956 370,241.5 368.043,245.413 366.909,249.683 365,253.5 360.847,261.807 351,266.981 351,277  Z"/>

<path  fill-rule="evenodd" fill="#814FFF" stroke-width="0" stroke="#814FFF" d = " M281 266 C281,269.385 276.87,268.239 279,272.5 280.204,274.907 292.928,288.644 296,282.5 300.194,274.113 287.433,266 281,266  M340 176 C340,177.93 341.93,176 340,176  M351 277 C351,278.715 348.37,285.565 345.5,287 344.386,287.557 340,287.41 340,289 339.697,289 332.235,293.029 332,293.5 330.961,295.578 332.95,296.6 332,298.5 330.127,302.246 325.91,304.681 324,308.5 324,308.5 323.5,313 323.5,313 323.5,313 316.5,310 316.5,310 316.5,310 312.5,317 312.5,317 310.414,318.043 311.453,314.476 310.5,314 306.842,312.171 303.848,317.674 300.5,316 292.589,312.044 280.564,291.627 277,284.5 275.074,280.648 267.916,280.332 266,276.5 262.927,270.355 268,264.477 268,259 268,256.996 273.378,254 275,254 275,255.77 278.48,267.51 279.5,267 279.5,267 280,261.5 280,261.5 280,256.876 278,252.206 278,247 278,233.591 279.25,206 274,195.5 272.157,191.814 277,188.265 277,185 279.293,185 279,184.003 279,182 279,177.111 294,171.97 294,171 294,171 295,171 295,171 297.673,171 299.963,169.269 302.5,168 307.087,165.707 329.206,169.853 333.5,172 339.605,175.053 345.303,178.901 351.5,182 353.481,182.991 354.182,187 357,187 357,187 358,188 358,188 358,190.572 365.609,198.718 367,201.5 368.409,204.318 372.42,229.659 371,232.5 369.674,235.153 371.272,238.956 370,241.5 368.043,245.413 366.909,249.683 365,253.5 360.847,261.807 351,266.981 351,277  Z"/>

<path  fill-rule="evenodd" fill="#814FFF" stroke-width="0" stroke="#814FFF" d = " M130 261 C130,262.93 131.93,261 130,261  M144 285 L152,291 C155.405,291 151.755,292.627 154.5,294 154.5,294 159,294.5 159,294.5 159.645,295.79 165.061,307 166.5,307 167.83,307 168.396,303.948 170.5,305 173.822,306.661 170.178,311.339 173.5,313 175.935,314.217 177.566,310 179.5,310 182.893,310 183.308,319.096 189.5,316 192.961,314.27 197.137,313.681 200.5,312 205.225,309.638 201.453,304.593 203,301.5 203,301.5 211,294.5 211,294.5 214.748,287.005 217.295,278.911 221,271.5 222.773,267.954 218,261.306 218,258 218,258 218,256 218,256 218,256 215,254 215,254 215,254 213,254 213,254 213,256.104 210.493,267 208,267 208,269.456 212.795,270.911 211,274.5 211,274.5 206.5,279 206.5,279 206.5,279 200.5,284 200.5,284 197.073,285.713 191.039,282.423 193,278.5 195.969,272.563 199.667,267 207,267 207,262.65 208.177,258.146 210,254.5 210,254.5 210,239.5 210,239.5 210,228.228 209.214,212.073 214,202.5 214.638,201.224 213.098,186 211,186 211,186 209,185 209,185 209,185 209,183 209,183 209,176.654 197.35,174.925 193.5,173 193.5,173 187.5,169 187.5,169 185.573,168.036 181.955,169.272 180.5,170 180.5,170 162.5,171 162.5,171 157.138,173.681 151.934,176.283 146.5,179 142.352,181.074 133.261,184.977 131,189.5 122.8,205.899 113.659,226.819 123,245.5 123,245.5 123,250.5 123,250.5 123,250.5 126,253.5 126,253.5 126,253.5 127,259.5 127,259.5 128.813,263.126 133.649,263.798 135,266.5 135,266.5 136,273.5 136,273.5 136,273.5 138,276 138,276 142.201,276 139.441,285 144,285  Z"/>

<path  fill="#022CFF" stroke-width="0" stroke="#022CFF" d = " M207 267 L208,267 C210.493,267 213,256.104 213,254 213,254 213,251 213,251 213,243.115 211.349,215.803 214,210.5 216,206.499 215.431,200.637 217,197.5 217,197.5 222,192 222,192 222,190.423 220.238,190 219,190 219,190 218,189 218,189 214.93,189 212.651,183 209,183 209,183 209,185 209,185 209,185 211,186 211,186 213.098,186 214.638,201.224 214,202.5 209.214,212.073 210,228.228 210,239.5 210,239.5 210,254.5 210,254.5 208.177,258.146 207,262.65 207,267  Z"/>

<path  fill="#022CFF" stroke-width="0" stroke="#022CFF" d = " M266 191 L272,196.5 C273.704,199.909 272.235,204.971 274,208.5 276.046,212.592 275,246.635 275,254 275,255.77 278.48,267.51 279.5,267 279.5,267 280,261.5 280,261.5 280,256.876 278,252.206 278,247 278,233.591 279.25,206 274,195.5 272.157,191.814 277,188.265 277,185 277,185 277,184 277,184 272.756,184 270.14,191 266,191  Z"/>

<path  fill="#FF0800" stroke-width="0" stroke="#FF0800" d = " M219 257 C221.017,257 235.55,265.525 238.5,267 249.628,272.564 260.55,259 268,259 268,256.996 273.378,254 275,254 275,246.635 276.046,212.592 274,208.5 272.235,204.971 273.704,199.909 272,196.5 272,196.5 266,191 266,191 266,191 250.5,199 250.5,199 242.282,203.109 230.027,192 222,192 222,192 217,197.5 217,197.5 215.431,200.637 216,206.499 214,210.5 211.349,215.803 213,243.115 213,251 214.577,251 215,252.762 215,254 215,254 218,256 218,256 218,256 219,257 219,257  Z"/>

<path  fill-rule="evenodd" fill="#E1F00D" stroke-width="0" stroke="#E1F00D" d = " M217 323 C217,325.505 204.405,324.311 207,329.5 209.953,335.405 219.453,323 217,323  M188 350 L183.5,349 L181,351 C181,347.467 163.939,350.219 161.5,349 158.421,347.461 152.855,346.21 151,342.5 149.765,340.029 150.704,335.602 147.5,334 142.752,331.626 134,327.703 134,322 134,313.809 144.9,316.7 149,308.5 151.999,302.503 150,297.382 150,291 150,291 152,291 152,291 155.405,291 151.755,292.627 154.5,294 154.5,294 159,294.5 159,294.5 159.645,295.79 165.061,307 166.5,307 167.83,307 168.396,303.948 170.5,305 173.822,306.661 170.178,311.339 173.5,313 175.935,314.217 177.566,310 179.5,310 182.893,310 183.308,319.096 189.5,316 192.961,314.27 197.137,313.681 200.5,312 205.225,309.638 201.453,304.593 203,301.5 203,301.5 211,294.5 211,294.5 214.748,287.005 217.295,278.911 221,271.5 222.773,267.954 218,261.306 218,258 218,258 219,257 219,257 221.017,257 235.55,265.525 238.5,267 249.628,272.564 260.55,259 268,259 268,264.477 262.927,270.355 266,276.5 267.916,280.332 275.074,280.648 277,284.5 280.564,291.627 292.589,312.044 300.5,316 303.848,317.674 306.842,312.171 310.5,314 311.453,314.476 310.414,318.043 312.5,317 312.5,317 316.5,310 316.5,310 316.5,310 323.5,313 323.5,313 323.5,313 324,308.5 324,308.5 325.91,304.681 330.127,302.246 332,298.5 332.95,296.6 330.961,295.578 332,293.5 332.235,293.029 339.697,289 340,289 340,291.349 343,290.382 343,293 343,293 343,314.5 343,314.5 344.48,317.46 345,320.149 345,323 343.655,323 345.126,331.187 341.5,333 335.664,335.918 330.421,340.039 324.5,343 321.589,344.455 318.432,338.034 314.5,340 310.181,342.159 302.584,347.042 296.5,344 291.189,341.344 280.105,337.711 277,331.5 271.998,321.495 267.3,316.4 256.5,311 252.522,309.011 248.071,298.215 242.5,301 238.993,302.753 237.057,309.222 233.5,311 229.744,312.878 224.005,315.491 222,319.5 220.781,321.937 221.323,328.588 218.5,330 218.5,330 209.5,334 209.5,334 209.5,334 200.5,345 200.5,345 198.752,345.874 188,348.316 188,350  Z"/>

<path  fill="#FF6E00" stroke-width="0" stroke="#FF6E00" d = " M130 261 C130,262.93 131.93,261 130,261  Z"/>

<path  fill="#7CFC00" stroke-width="0" stroke="#7CFC00" d = " M281 266 C281,269.385 276.87,268.239 279,272.5 280.204,274.907 292.928,288.644 296,282.5 300.194,274.113 287.433,266 281,266  Z"/>

<path  fill="#7CFC00" stroke-width="0" stroke="#7CFC00" d = " M207 267 L208,267 C208,269.456 212.795,270.911 211,274.5 211,274.5 206.5,279 206.5,279 206.5,279 200.5,284 200.5,284 197.073,285.713 191.039,282.423 193,278.5 195.969,272.563 199.667,267 207,267  Z"/>

<path  fill="#267EFF" stroke-width="0" stroke="#267EFF" d = " M252 320 L248,322.5 L245.5,327 C243.861,327 242.029,318.735 235.5,322 232.065,323.717 226.783,329.065 229,333.5 231.038,337.575 260.535,336.431 262,333.5 264.406,328.687 256.058,320 252,320  Z"/>

<path  fill="#FA8072" stroke-width="0" stroke="#FA8072" d = " M106 329 C106,340.693 113.939,329 106,329  Z"/>

<path  fill="#FA8072" stroke-width="0" stroke="#FA8072" d = " M361 332 C361,333.804 358.818,337.136 360,339.5 363.631,346.762 374.536,332 361,332  Z"/>

<path  fill="#FA8072" stroke-width="0" stroke="#FA8072" d = " M113 333 L113.5,337 C118.342,339.421 123.179,339.339 128.5,342 L130.5,345 C134.056,345 129.456,333.978 127.5,333 L123.5,334 L113,333  Z"/>

<path  fill-rule="evenodd" fill="#FA8072" stroke-width="0" stroke="#FA8072" d = " M301 363 C301,365.091 304.746,363 301,363  M298 348 L289.5,356 C287.51,357.99 290,361.807 290,363.5 L286.5,364 L281,368.5 C279.152,372.195 280.885,392.192 284.5,394 287.177,395.339 289.465,392.982 291.5,394 292.756,394.628 294.767,396.867 296.5,396 298.369,395.065 294.709,389 299.5,389 L304.5,393 C309.29,390.605 302,387.431 302,385.5 302,383.27 305.558,384.471 306.5,384 309.235,382.633 314.386,380.728 316,377.5 318.277,372.945 313,368.17 313,366.5 L316,362.5 L316,356.5 C316,346.158 305.32,348 298,348  Z"/>

<path  fill-rule="evenodd" fill="#FA8072" stroke-width="0" stroke="#FA8072" d = " M195 375 C195,376.93 196.93,375 195,375  M188 350 C198.098,350 192.458,359.417 195,364.5 197.644,369.788 204.823,361.146 209,369.5 L208,376.5 C216.11,392.72 194.439,403.379 186,386.5 185.406,385.312 182.055,385.61 181,383.5 L182,377.5 L178,375.5 L178,369.5 L173,366.5 C169.899,360.297 181,356.497 181,351 181,351 183.5,349 183.5,349 183.5,349 188,350 188,350  Z"/>

<path  fill="#FA8072" stroke-width="0" stroke="#FA8072" d = " M153 370 L150,374.5 C150,384.558 174.758,387.258 159,371.5 157.127,369.627 155.569,370 153,370  Z"/>

</g>
</svg>
