<svg xmlns="http://www.w3.org/2000/svg" xmlns:xlink="http://www.w3.org/1999/xlink" height="512" width="512">
<g>
<rect width="512" height="512" fill="#000000"  stroke-width="0" /> 
<path  fill="#03C12D" stroke-width="0" stroke="#03C12D" d = " M32 227 C32,223.21 32,219.699 32,216.5 L30,213.5 L33,210.5 C35.9348,204.63 33.9926,196.515 37,190.5 L37,182.5 C40.2941,175.912 40.7433,168.013 44,161.5 48.1913,153.117 61.671,125.914 71.5,121 73.9764,119.762 77.1018,119.199 79.5,118 L90.5,105 C93.8928,103.304 98.0976,102.701 101.5,101 106.766,98.3671 109.763,93.3685 114.5,91 L118.5,91 C122.367,89.0666 125.657,86.9214 129.5,85 L138.5,84 L156.5,78 L161.5,79 L167.5,75 C174.782,71.3588 185.096,73.7019 192.5,70 193.689,69.4054 213.197,69.3484 214.5,70 218.773,72.1367 221.313,76.4063 224.5,78 L237.5,88 L241.5,84 C249.765,79.8675 256.286,75.107 264.5,71 271.099,67.7006 298.853,73.8235 302.5,72 308.171,69.1645 336.9,75.7 343.5,79 347.772,81.1361 355.499,78.4993 358.5,80 L363.5,85 L369.5,86 C373.909,88.2047 378.174,90.8372 382.5,93 387.251,95.3755 392.583,103.041 396.5,105 L401.5,105 C412.891,110.695 431.931,130.362 438,142.5 L439,149.5 L444,154.5 C447.57,161.64 447.392,170.283 451,177.5 452.925,181.35 449.55,191.6 452,196.5 453.673,199.845 457.045,211.41 455,215.5 454.08,217.339 454.867,219.766 454,221.5 452.877,223.745 450,225.932 450,228 439.26,228 427.075,222 414,222 414,212.249 414.008,204.515 410,196.5 410,196.5 410,189.5 410,189.5 410,189.5 407,186.5 407,186.5 405.134,182.767 405.919,177.338 404,173.5 404,173.5 397,164.5 397,164.5 392.512,155.525 388.726,144.613 379.5,140 379.5,140 375.5,135 375.5,135 366.512,130.506 357.548,125.524 348.5,121 337.132,115.316 318.205,116.353 307.5,111 307.5,111 299.5,111 299.5,111 291.597,107.048 282.549,106.025 274.5,102 272.8,101.15 268.73,103 267.5,103 267.5,103 264,109.5 264,109.5 264,118.109 260,125.755 260,134 260,137.945 264,136.069 264,139 258.815,139 257.243,146 253,146 248.545,146 247.147,136.823 243.5,135 236.207,131.354 234.867,144 231,144 231,144 228,145 228,145 228,145 216,144 216,144 216,144 215,143 215,143 215,139.879 222.953,137.406 220,131.5 217.181,125.861 213.156,105.828 207.5,103 201.574,100.037 194.538,108.981 190.5,111 183.052,114.724 169.563,112.969 163.5,116 157.731,118.885 149.682,123 143,123 143,123 142,124 142,124 134.448,124 128.83,133 122,133 122,133 121,134 121,134 116.796,134 105.228,148.272 102.5,151 87.3816,166.118 72,203.697 72,225 69.6719,225 63.1241,224.188 61.5,225 61.5,225 59.5,227 59.5,227 49.316,227 41.2428,227 32,227  Z"/>

<path  fill-rule="evenodd" fill="#FF6E00" stroke-width="0" stroke="#FF6E00" d = " M391 164 C391,168.136 396.677,164 391,164  M403 279 C400.67,279 399.773,283 397,283 397,280.06 401.533,277.434 403,274.5 406.609,267.282 409,240.577 409,231.5 409,231.5 409,216.5 409,216.5 407.363,213.226 408.569,208.639 407,205.5 404.681,200.863 397,181.511 397,177 397,177 396,176 396,176 396,170.813 390.194,166.889 388,162.5 375.385,137.269 352.693,135.597 331.5,125 326.988,122.744 303,125.869 303,131 303,131 288.5,138 288.5,138 281.921,141.29 270.843,139 264,139 264,136.069 260,137.945 260,134 260,125.755 264,118.109 264,109.5 264,109.5 267.5,103 267.5,103 268.73,103 272.8,101.15 274.5,102 282.549,106.025 291.597,107.048 299.5,111 299.5,111 307.5,111 307.5,111 318.205,116.353 337.132,115.316 348.5,121 357.548,125.524 366.512,130.506 375.5,135 375.5,135 379.5,140 379.5,140 388.726,144.613 392.512,155.525 397,164.5 397,164.5 404,173.5 404,173.5 405.919,177.338 405.134,182.767 407,186.5 407,186.5 410,189.5 410,189.5 410,189.5 410,196.5 410,196.5 414.008,204.515 414,212.249 414,222 414,222 414,240.5 414,240.5 413.531,241.437 410,254.674 410,255 408.527,255 409,256.952 409,258 409,258 409,261 409,261 407.357,261 408,264.765 408,266 408,270.771 403,274.016 403,279  Z"/>

<path  fill="#FF6E00" stroke-width="0" stroke="#FF6E00" d = " M83 283 C86.4138,283 91.3973,289.449 94.5,291 95.4592,291.48 99,292.571 99,291 99,290.953 87.2617,285.023 86,282.5 82.9484,276.397 81.0405,269.581 78,263.5 78,263.5 78,248.5 78,248.5 75.1068,242.714 78.5046,213.491 81,208.5 81,208.5 85,199 85,199 85,199 86,197 86,197 86,193.017 91,188.549 91,184 91,184 92,183 92,183 92,183 93,180 93,180 93,180 94,179 94,179 94,179 94,178 94,178 94,178 95,176 95,176 95,176 96,174 96,174 96,172.952 95.5271,171 97,171 99.341,171 98.4208,168.658 99,167.5 99,167.5 106,156.5 106,156.5 109.866,148.767 128.506,138.497 135.5,135 148.026,128.737 164.409,125.454 177.5,132 179.211,132.855 187,136.991 187,139 187,139 193.5,143 193.5,143 193.5,143 212,143 212,143 212,143 215,143 215,143 215,139.879 222.953,137.406 220,131.5 217.181,125.861 213.156,105.828 207.5,103 201.574,100.037 194.538,108.981 190.5,111 183.052,114.724 169.563,112.969 163.5,116 157.731,118.885 149.682,123 143,123 143,123 142,124 142,124 134.448,124 128.83,133 122,133 122,133 121,134 121,134 116.796,134 105.228,148.272 102.5,151 87.3816,166.118 72,203.697 72,225 72,229.59 73.9432,260.386 75,262.5 76.2398,264.98 77,264.937 77,268 78.5105,268 83,280.984 83,283  Z"/>

<path  fill="#0E47E2" stroke-width="0" stroke="#0E47E2" d = " M330 297 C334.169,297 350,289.022 350,298 357.095,298 377.31,292.095 383.5,289 387.092,287.204 392.934,283 397,283 397,280.06 401.533,277.434 403,274.5 406.609,267.282 409,240.577 409,231.5 409,231.5 409,216.5 409,216.5 407.363,213.226 408.569,208.639 407,205.5 404.681,200.863 397,181.511 397,177 397,177 396,176 396,176 396,170.813 390.194,166.889 388,162.5 375.385,137.269 352.693,135.597 331.5,125 326.988,122.744 303,125.869 303,131 303,131 306,136.5 306,136.5 306,136.5 306.5,140 306.5,140 307.172,140 309.081,137.662 310,139.5 313.009,145.519 306,152.735 306,153 306,153 306,161.5 306,161.5 309.068,167.637 331.365,179.933 337.5,183 346.241,187.37 342.85,176.2 349,188.5 349,188.5 351,191 351,191 351,191 352,192 352,192 352,196.961 356.843,203.186 359,207.5 363.581,216.663 360.071,226.358 356,234.5 354.927,236.646 353.965,244 350,244 350,246.003 350.293,247 348,247 348,247 346,249 346,249 346,250.347 342.562,257 341,257 341,257 340,258 340,258 340,258 340,259 340,259 340,259 339,260 339,260 339,264.997 322,283.99 322,287 322,287 321,288 321,288 321,288 320,290 320,290 320,292.061 319.098,294 317,294 317,294 316,295 316,295 316,295 315,296 315,296 315,296 310,301.5 310,301.5 305.779,309.941 318.809,308.846 322.5,307 323.728,306.386 323.776,304 326,304 326,301.074 326.373,297 330,297  Z"/>

<path  fill-rule="evenodd" fill="#0E47E2" stroke-width="0" stroke="#0E47E2" d = " M174 146 C174,147.128 174.101,152 175.5,152 176.122,152 177.13,146 174,146  M151 299 C149.234,299 146,299.607 146,302 138.056,302 123.985,299.742 116.5,296 116.5,296 110.5,296 110.5,296 107.02,294.26 103.04,291 99,291 99,290.953 87.2617,285.023 86,282.5 82.9484,276.397 81.0405,269.581 78,263.5 78,263.5 78,248.5 78,248.5 75.1068,242.714 78.5046,213.491 81,208.5 81,208.5 85,199 85,199 85,199 86,197 86,197 86,193.017 91,188.549 91,184 91,184 92,183 92,183 92,183 93,180 93,180 93,180 94,179 94,179 94,179 94,178 94,178 94,178 95,176 95,176 95,176 96,174 96,174 97.4729,174 97,172.048 97,171 99.341,171 98.4208,168.658 99,167.5 99,167.5 106,156.5 106,156.5 109.866,148.767 128.506,138.497 135.5,135 148.026,128.737 164.409,125.454 177.5,132 179.211,132.855 187,136.991 187,139 187,139 182.5,144 182.5,144 182.5,144 179.5,143 179.5,143 179.5,143 177,149.5 177,149.5 175.081,153.338 182,154.606 182,157 182,166.681 167.521,171.458 165,176.5 164.059,178.381 159,175.32 159,179 157.811,179 146,185.965 146,187 146,187 141.5,185 141.5,185 137.463,185 136.946,192.607 136,194.5 136,194.5 132,198.5 132,198.5 129.108,204.284 123,215.461 123,222 121.814,222 121.814,223 123,223 123,229.551 128.781,247 136,247 136,247 136,248 136,248 136,248 135,249 135,249 135,251.471 145.469,262.438 147,265.5 151.784,275.068 159.169,283.838 164,293.5 166.381,298.263 177.557,303.387 174,310.5 173.47,311.559 161.732,310.964 161,309.5 159.537,306.575 159.65,304.15 157,301.5 156.115,300.615 151,297.403 151,299  Z"/>

<path  fill="#DDD951" stroke-width="0" stroke="#DDD951" d = " M253 146 C253,153.873 262.547,153 269,153 278.312,153 288.019,155 298.5,155 300.463,155 303.127,153 306,153 306,152.735 313.009,145.519 310,139.5 309.081,137.662 307.172,140 306.5,140 306.5,140 306,136.5 306,136.5 306,136.5 303,131 303,131 303,131 288.5,138 288.5,138 281.921,141.29 270.843,139 264,139 258.815,139 257.243,146 253,146  Z"/>

<path  fill="#022CFF" stroke-width="0" stroke="#022CFF" d = " M347 242 L350,244 C353.965,244 354.927,236.646 356,234.5 360.071,226.358 363.581,216.663 359,207.5 356.843,203.186 352,196.961 352,192 352,192 351,191 351,191 351,191 349,188.5 349,188.5 342.85,176.2 346.241,187.37 337.5,183 331.365,179.933 309.068,167.637 306,161.5 306,161.5 306,153 306,153 303.127,153 300.463,155 298.5,155 288.019,155 278.312,153 269,153 262.547,153 253,153.873 253,146 248.545,146 247.147,136.823 243.5,135 236.207,131.354 234.867,144 231,144 231,144 230,146 230,146 230,146 229,154 229,154 229,154 228,155 228,155 228,158.421 231.3,157.9 233.5,159 237.481,160.991 245.64,173.43 238.5,177 238.5,177 235,176 235,176 235,176 234,176 234,176 234,177.947 237,178.636 237,181 239.579,181 241.721,183 243.5,183 243.5,183 250,180 250,180 250,180 252,176 252,176 241.679,176 251.561,159.969 255.5,158 267.153,152.173 304,152.084 304,170 304,170 308,174 308,174 308,174 314,177 314,177 316.772,177 319.167,178.833 321.5,180 321.5,180 329.5,180 329.5,180 333.09,181.795 343,187.392 343,192 343,192 344,194 344,194 344,194 345,195 345,195 345,195 347,197 347,197 347,197 348,198 348,198 348,198 349,201 349,201 349,201 350,202 350,202 350,202 353,210 353,210 353,210 354,211 354,211 354,211 354,217 354,217 356.614,217 354,223.031 354,224 354,224 352,231 352,231 353.399,231 353.399,233 352,233 352,236.396 351.375,237.751 350,240.5 350,240.5 347,242 347,242  Z"/>

<path  fill="#DDD951" stroke-width="0" stroke="#DDD951" d = " M201 159 L202,159 C202,156.213 204.571,158 206,158 206,158 208,158 208,158 208,156.814 209,156.814 209,158 209,158 212,157 212,157 212,156.056 218,153.701 218,156 220.097,156 223.293,155 226,155 226,153.527 227.952,154 229,154 229,154 230,146 230,146 230,146 228,145 228,145 228,145 216,144 216,144 214.855,144 212,144.579 212,143 212,143 193.5,143 193.5,143 193.5,143 187,139 187,139 187,139 182.5,144 182.5,144 182.5,144 179.5,143 179.5,143 179.5,143 177,149.5 177,149.5 175.081,153.338 182,154.606 182,157 185.249,157 189.194,158 193,158 194.49,158 201,157.265 201,159  Z"/>

<path  fill="#DDD951" stroke-width="0" stroke="#DDD951" d = " M174 146 C174,147.128 174.101,152 175.5,152 176.122,152 177.13,146 174,146  Z"/>

<path  fill="#5600DD" stroke-width="0" stroke="#5600DD" d = " M234 173 L235,176 C235,176 238.5,177 238.5,177 245.64,173.43 237.481,160.991 233.5,159 231.3,157.9 228,158.421 228,155 228,155 226,155 226,155 223.293,155 220.097,156 218,156 218,156 212,157 212,157 212,157 209,158 209,158 209,158 208,158 208,158 208,158 206,158 206,158 206,159.579 203.145,159 202,159 202,159 201,159 201,159 201,160.175 195.296,161 194,161 194,161 192.5,163 192.5,163 187.099,165.7 188,167.494 188,172 188,172 191,172 191,172 194.722,172 199.288,169.606 202.5,168 208.396,165.052 216.87,169 222,169 224.682,169 234,169.915 234,173  Z"/>

<path  fill="#5600DD" stroke-width="0" stroke="#5600DD" d = " M257 174 L252,176 C241.679,176 251.561,159.969 255.5,158 267.153,152.173 304,152.084 304,170 304,170 298,170 298,170 295.561,170 284.013,166.257 281.5,165 274.585,161.543 257,166.957 257,174  Z"/>

<path  fill="#022CFF" stroke-width="0" stroke="#022CFF" d = " M188 172 C183.329,172 180.336,175.082 176.5,177 171.269,179.615 164.142,179 159,179 159,175.32 164.059,178.381 165,176.5 167.521,171.458 182,166.681 182,157 185.249,157 189.194,158 193,158 193,158 194,161 194,161 194,161 192.5,163 192.5,163 187.099,165.7 188,167.494 188,172  Z"/>

<path  fill="#E1970F" stroke-width="0" stroke="#E1970F" d = " M253 193 C254.738,193 259,193.686 259,196 260.029,196 275.386,199.443 276.5,200 276.5,200 281.5,205 281.5,205 282.669,205.584 294.319,200.861 295,199.5 295,199.5 292,196.5 292,196.5 290.862,194.225 291.147,187.206 292,185.5 292,185.5 298,175 298,175 298,175 298,170 298,170 295.561,170 284.013,166.257 281.5,165 274.585,161.543 257,166.957 257,174 257,177.079 252,178.308 252,180 252,184.917 253,187.911 253,193  Z"/>

<path  fill="#E1970F" stroke-width="0" stroke="#E1970F" d = " M239 192 C235.765,192 231,195.541 231,199 231,199 228.5,202 228.5,202 220.493,206.003 214.127,210.313 205.5,206 205.5,206 204,199.5 204,199.5 204,199.5 200,197.5 200,197.5 200,196.112 202.014,193.528 201,191.5 201,191.5 198,190.5 198,190.5 195.62,185.741 197.66,175 191,175 191,175 191,172 191,172 194.722,172 199.288,169.606 202.5,168 208.396,165.052 216.87,169 222,169 224.682,169 234,169.915 234,173 230.134,173 230.507,176 234,176 234,177.947 237,178.636 237,181 237,181 235,183.5 235,183.5 235.782,185.064 235.269,187.038 236,188.5 236,188.5 239,192 239,192  Z"/>

<path  fill="#FF571E" stroke-width="0" stroke="#FF571E" d = " M260 224 L261,225 C265.612,225 272.574,220.537 277.5,223 279.835,224.168 294.077,228.212 296.5,227 299.605,225.447 301.655,224 305.5,224 308.805,224 322,224.025 322,221 322,221 323,220 323,220 323,213.416 322.151,215.803 320,211.5 318.657,208.815 322.709,205.917 322,204.5 318.523,197.547 319,191.462 319,184 316.769,184 314,179.034 314,177 314,177 308,174 308,174 308,174 298,175 298,175 298,175 292,185.5 292,185.5 291.147,187.206 290.862,194.225 292,196.5 292,196.5 295,199.5 295,199.5 294.319,200.861 282.669,205.584 281.5,205 281.5,205 276.5,200 276.5,200 275.386,199.443 260.029,196 259,196 259,196 257.5,198 257.5,198 257.5,198 246.5,198 246.5,198 244.884,198 237,197.242 237,199 239.579,199 241.721,201 243.5,201 247.199,201 256,194.862 256,204 256,204.65 263.581,213 258,213 258,213 260,224 260,224  Z"/>

<path  fill="#FF571E" stroke-width="0" stroke="#FF571E" d = " M165 222 C172.549,222 203.413,223.456 208.5,226 211.423,227.462 216.84,225 219.5,225 220.499,225 221.881,226.81 223.5,226 L227,223 C227,223 227,218 227,218 224.708,218 226.457,212 228,212 228,209.128 228.971,207.529 231,205.5 231,205.5 234,204 234,204 234,204 232,201.5 232,201.5 232,201.5 236,199 236,199 236,199 231,199 231,199 231,199 228.5,202 228.5,202 220.493,206.003 214.127,210.313 205.5,206 205.5,206 204,199.5 204,199.5 204,199.5 200,197.5 200,197.5 200,196.112 202.014,193.528 201,191.5 201,191.5 198,190.5 198,190.5 195.62,185.741 197.66,175 191,175 187.037,175 171,179.651 171,184 171,185.984 174.278,187.945 173,190.5 171.27,193.96 168.803,196.893 167,200.5 165.603,203.294 169.503,205.494 169,206.5 167.693,209.114 167,211.834 167,215 169.286,215 166.518,220 165,220 165,220 165,222 165,222  Z"/>

<path  fill="#FF571E" stroke-width="0" stroke="#FF571E" d = " M239 192 C239.583,192 247.822,190.661 248.5,191 250.6,192.05 250.394,193 253,193 253,187.911 252,184.917 252,180 252,180 250,180 250,180 250,180 243.5,183 243.5,183 241.721,183 239.579,181 237,181 237,181 235,183.5 235,183.5 235.782,185.064 235.269,187.038 236,188.5 236,188.5 239,192 239,192  Z"/>

<path  fill="#006400" stroke-width="0" stroke="#006400" d = " M140 244 L144.5,242 C147.435,243.468 148.567,247.635 150,250.5 L154,250.5 C154.579,251.658 153.659,254 156,254 158.355,254 161.801,253.898 163,251.5 165.387,246.726 154.222,242.056 157,236.5 159.64,231.221 165,228.943 165,222 165,222 165,220 165,220 165,218.378 164.539,215 167,215 167,211.834 167.693,209.114 169,206.5 169.503,205.494 165.603,203.294 167,200.5 168.803,196.893 171.27,193.96 173,190.5 174.278,187.945 171,185.984 171,184 170.215,184 161.415,179.543 156.5,182 151.391,184.554 149.388,193 143,193 138.488,193 136.384,199.732 135,202.5 132.028,208.444 124.997,225.493 129,233.5 129,233.5 134,243 134,243 135.564,243 137.876,244 140,244  Z"/>

<path  fill="#006400" stroke-width="0" stroke="#006400" d = " M346 243 L341.5,244 C340.217,243.358 339.405,241.047 337.5,242 335.333,243.083 336.715,245 334,245 327.254,245 333.714,235.927 333,234.5 331.348,231.196 323,222.737 323,221 323,221 323,220 323,220 323,213.416 322.151,215.803 320,211.5 318.657,208.815 322.709,205.917 322,204.5 318.523,197.547 319,191.462 319,184 329.451,184 339.408,192 343,192 343,192 344,194 344,194 344,194 345,195 345,195 345,195 347,197 347,197 347,197 348,198 348,198 348,198 349,201 349,201 349,201 350,202 350,202 350,202 353,210 353,210 353,210 354,211 354,211 354,211 354,217 354,217 354,218.593 352.146,224 354,224 354,224 352,231 352,231 352,231 352,233 352,233 352,236.396 351.375,237.751 350,240.5 350,240.5 347,242 347,242 347,242 346,243 346,243  Z"/>

<path  fill="#022CFF" stroke-width="0" stroke="#022CFF" d = " M134 243 L136,247 C128.781,247 123,229.551 123,223 123,223 123,222 123,222 123,215.461 129.108,204.284 132,198.5 132,198.5 136,194.5 136,194.5 136.946,192.607 137.463,185 141.5,185 141.5,185 146,187 146,187 146,192.907 143,189.391 143,193 138.488,193 136.384,199.732 135,202.5 132.028,208.444 124.997,225.493 129,233.5 129,233.5 134,243 134,243  Z"/>

<path  fill="#21E6FF" stroke-width="0" stroke="#21E6FF" d = " M236 199 L237,199 C237,197.242 244.884,198 246.5,198 246.5,198 257.5,198 257.5,198 257.5,198 259,196 259,196 259,193.686 254.738,193 253,193 250.394,193 250.6,192.05 248.5,191 247.822,190.661 239.583,192 239,192 235.765,192 231,195.541 231,199 231,199 236,199 236,199  Z"/>

<path  fill="#07FF59" stroke-width="0" stroke="#07FF59" d = " M234 204 C241.106,204 249.103,204 256,204 256,194.862 247.199,201 243.5,201 241.721,201 239.579,199 237,199 237,199 236,199 236,199 236,199 232,201.5 232,201.5 232,201.5 234,204 234,204  Z"/>

<path  fill="#FF00DA" stroke-width="0" stroke="#FF00DA" d = " M230 212 C235.963,212 242.571,203.035 250.5,207 L258,213 C263.581,213 256,204.65 256,204 249.103,204 241.106,204 234,204 234,204 231,205.5 231,205.5 228.971,207.529 228,209.128 228,212 228,212 230,212 230,212  Z"/>

<path  fill-rule="evenodd" fill="#07FF59" stroke-width="0" stroke="#07FF59" d = " M243 209 C243,211.538 242,215.331 242,218.5 L242,225.5 L242,230 C242,231.065 243.018,238.464 245,234.5 246.318,231.864 245.255,209 243,209  M260 224 L260,225 C260,225 255,232.5 255,232.5 251.789,238.922 251.107,261.197 245.5,264 242.338,265.581 239.856,259 239.5,259 239.5,259 237.5,261 237.5,261 237.5,261 236,242.5 236,242.5 234.206,238.911 231.76,236.021 230,232.5 230,232.5 230,227.5 230,227.5 229.011,225.522 227,225.477 227,223 227,223 227,218 227,218 227,218 230,212 230,212 235.963,212 242.571,203.035 250.5,207 250.5,207 258,213 258,213 258,213 260,224 260,224  Z"/>

<path  fill="#022CFF" stroke-width="0" stroke="#022CFF" d = " M243 209 C243,211.538 242,215.331 242,218.5 L242,225.5 L242,230 C242,231.065 243.018,238.464 245,234.5 246.318,231.864 245.255,209 243,209  Z"/>

<path  fill="#9953FF" stroke-width="0" stroke="#9953FF" d = " M167 215 C169.286,215 166.518,220 165,220 165,218.378 164.539,215 167,215  Z"/>

<path  fill-rule="evenodd" fill="#9953FF" stroke-width="0" stroke="#9953FF" d = " M230 268 L228,270.5 L228,273 C228,281.178 238.01,268 230,268  M256 267 L254,270.5 C253.071,272.359 255.641,274.929 257.5,274 260.583,272.458 259.312,267 256,267  M292 252 C292,254.904 266.453,264.976 276.5,270 277.001,270.251 318.351,252 292,252  M187 252 C187,257.186 202.964,272.268 207.5,270 211.471,268.014 207.82,262.32 206,260.5 202.033,256.533 192.746,252 187,252  M217 297 C211.641,297 205.769,299 201,299 201,299 201,295 201,295 211.851,295 203.225,279.363 198.5,277 187.02,271.26 171.236,259 158,259 155.132,259 156,256.312 156,254 158.355,254 161.801,253.898 163,251.5 165.387,246.726 154.222,242.056 157,236.5 159.64,231.221 165,228.943 165,222 172.549,222 203.413,223.456 208.5,226 211.423,227.462 216.84,225 219.5,225 220.499,225 221.881,226.81 223.5,226 223.5,226 227,223 227,223 227,225.477 229.011,225.522 230,227.5 230,227.5 230,232.5 230,232.5 231.76,236.021 234.206,238.911 236,242.5 236,242.5 237.5,261 237.5,261 237.5,261 239.5,259 239.5,259 239.856,259 242.338,265.581 245.5,264 251.107,261.197 251.789,238.922 255,232.5 255,232.5 260,225 260,225 260,225 261,225 261,225 265.612,225 272.574,220.537 277.5,223 279.835,224.168 294.077,228.212 296.5,227 299.605,225.447 301.655,224 305.5,224 308.805,224 322,224.025 322,221 322,221 323,221 323,221 323,222.737 331.348,231.196 333,234.5 333.714,235.927 327.254,245 334,245 334,246.504 330.859,254 329,254 324.366,254 320.402,258.049 316.5,260 305.532,265.484 289.162,271.175 283,283.5 283,283.5 279,286.5 279,286.5 276.673,291.153 285,292.327 285,294 285,294 284,298 284,298 277.791,298 273.716,295 268,295 268,291.463 256.169,286.165 252.5,288 249.939,289.28 236.64,286.43 227.5,291 225.212,292.144 225.3,289 224.5,289 224.5,289 224,291.5 224,291.5 223.015,293.47 217,293.906 217,297  Z"/>

<path  fill="#DD6479" stroke-width="0" stroke="#DD6479" d = " M409 264 L412.5,266 C413.441,265.53 417.219,262 417.5,262 L425.5,266 C429.991,268.245 435.407,266 440,266 440,263.384 434.836,259.828 435,259.5 436.132,257.236 442.449,258.601 444,255.5 447.466,248.568 448.509,240.483 452,233.5 453.27,230.959 450,229.791 450,228 439.26,228 427.075,222 414,222 414,222 414,240.5 414,240.5 413.531,241.437 410,254.674 410,255 410,256.048 410.473,258 409,258 409,258 409,261 409,261 409,261 409,264 409,264  Z"/>

<path  fill="#DD6479" stroke-width="0" stroke="#DD6479" d = " M77 268 C77,272.384 71.0846,268 70.5,268 L68.5,269 L66.5,266 C65.2166,266 60.8457,269.327 59.5,270 L45,271 C45,271 45.5,266 45.5,266 45.5,266 50,264.5 50,264.5 50,262.372 46.4529,262.476 45.5,262 42.5298,260.515 39.6053,258.711 38,255.5 38,255.5 38,250.5 38,250.5 34.3754,243.251 32,235.796 32,227 41.2428,227 49.316,227 59.5,227 59.5,227 61.5,225 61.5,225 63.1241,224.188 69.6719,225 72,225 72,229.59 73.9432,260.386 75,262.5 76.2398,264.98 77,264.937 77,268  Z"/>

<path  fill="#FF3427" stroke-width="0" stroke="#FF3427" d = " M201 295 L201,299 C201,299 198.5,303 198.5,303 195.235,304.633 184.543,304.522 181.5,303 165.178,294.839 151.959,274.418 144,258.5 144,258.5 145,252.5 145,252.5 143.254,249.007 140,249.357 140,244 140,244 144.5,242 144.5,242 147.435,243.468 148.567,247.635 150,250.5 150,250.5 154,250.5 154,250.5 154.579,251.658 153.659,254 156,254 156,256.312 155.132,259 158,259 158,271.689 162.561,281.531 173.5,287 175.425,287.962 176.052,291.276 179.5,293 181.809,294.154 186.594,294.047 190.5,296 192.323,296.911 199.002,295 201,295  Z"/>

<path  fill="#FF3427" stroke-width="0" stroke="#FF3427" d = " M315 296 C305.801,296 300.903,308.202 288.5,302 286.692,301.096 284,300.976 284,298 284,298 285,294 285,294 285,294 293.5,296 293.5,296 296.6,294.45 300.5,294.5 303.5,293 303.5,293 306.5,289 306.5,289 308.465,288.017 311.451,289.024 313.5,288 313.5,288 316.5,284 316.5,284 328.108,278.196 329,264 329,254 330.859,254 334,246.504 334,245 336.715,245 335.333,243.083 337.5,242 339.405,241.047 340.217,243.358 341.5,244 341.5,244 346,243 346,243 346,243 348,247 348,247 348,247 346,249 346,249 339.085,249 341,252.252 341,257 341,257 340,258 340,258 340,258 340,259 340,259 340,259 339,260 339,260 339,264.997 322,283.99 322,287 322,287 321,288 321,288 321,288 320,290 320,290 318.288,290 317,292.571 317,294 317,294 316,295 316,295 316,295 315,296 315,296  Z"/>

<path  fill="#022CFF" stroke-width="0" stroke="#022CFF" d = " M136 248 L135,249 C135,249 136,248 136,248  Z"/>

<path  fill="#D4FF00" stroke-width="0" stroke="#D4FF00" d = " M187 252 C187,257.186 202.964,272.268 207.5,270 211.471,268.014 207.82,262.32 206,260.5 202.033,256.533 192.746,252 187,252  Z"/>

<path  fill="#D4FF00" stroke-width="0" stroke="#D4FF00" d = " M292 252 C292,254.904 266.453,264.976 276.5,270 277.001,270.251 318.351,252 292,252  Z"/>

<path  fill="#FFBA00" stroke-width="0" stroke="#FFBA00" d = " M329 254 C324.366,254 320.402,258.049 316.5,260 305.532,265.484 289.162,271.175 283,283.5 L279,286.5 C276.673,291.153 285,292.327 285,294 285,294 293.5,296 293.5,296 296.6,294.45 300.5,294.5 303.5,293 303.5,293 306.5,289 306.5,289 308.465,288.017 311.451,289.024 313.5,288 313.5,288 316.5,284 316.5,284 328.108,278.196 329,264 329,254  Z"/>

<path  fill="#FFBA00" stroke-width="0" stroke="#FFBA00" d = " M158 259 C171.236,259 187.02,271.26 198.5,277 203.225,279.363 211.851,295 201,295 199.002,295 192.323,296.911 190.5,296 186.594,294.047 181.809,294.154 179.5,293 176.052,291.276 175.425,287.962 173.5,287 162.561,281.531 158,271.689 158,259  Z"/>

<path  fill="#2E8B57" stroke-width="0" stroke="#2E8B57" d = " M403 279 L407.5,281 C409.61,282.055 414.527,279.014 416.5,280 L417.5,283 C418.255,283.378 421.382,281 423,281 427.77,281 431.737,283 437,283 444.607,283 440,268.698 440,266 435.407,266 429.991,268.245 425.5,266 425.5,266 417.5,262 417.5,262 417.219,262 413.441,265.53 412.5,266 412.5,266 409,264 409,264 409,264 408,266 408,266 408,270.771 403,274.016 403,279  Z"/>

<path  fill="#2E8B57" stroke-width="0" stroke="#2E8B57" d = " M83 283 C78.8145,283 75.0653,286.217 71.5,288 68.2045,289.648 63.8734,287.187 61.5,286 L48,287 C48,287 44,283.5 44,283.5 41.3636,278.227 45,271.677 45,271 45,271 59.5,270 59.5,270 60.8457,269.327 65.2166,266 66.5,266 66.5,266 68.5,269 68.5,269 68.5,269 70.5,268 70.5,268 71.0846,268 77,272.384 77,268 78.5105,268 83,280.984 83,283  Z"/>

<path  fill="#F44345" stroke-width="0" stroke="#F44345" d = " M256 267 L254,270.5 C253.071,272.359 255.641,274.929 257.5,274 260.583,272.458 259.312,267 256,267  Z"/>

<path  fill="#F44345" stroke-width="0" stroke="#F44345" d = " M230 268 L228,270.5 L228,273 C228,281.178 238.01,268 230,268  Z"/>

<path  fill="#03C12D" stroke-width="0" stroke="#03C12D" d = " M330 297 C326.373,297 326,301.074 326,304 326,309.759 338.407,310.454 341.5,312 341.5,312 345.5,319 345.5,319 349.77,323.27 366.813,334.343 373.5,331 373.5,331 382.5,327 382.5,327 388.134,329.817 395.433,338.034 403.5,334 403.5,334 417.5,328 417.5,328 420.555,326.473 422.736,322.029 424,319.5 424,319.5 430,313.5 430,313.5 434.873,303.754 437,294.9 437,283 431.737,283 427.77,281 423,281 421.382,281 418.255,283.378 417.5,283 417.5,283 416.5,280 416.5,280 414.527,279.014 409.61,282.055 407.5,281 407.5,281 403,279 403,279 400.67,279 399.773,283 397,283 392.934,283 387.092,287.204 383.5,289 377.31,292.095 357.095,298 350,298 344.303,298 330,307.394 330,297  Z"/>

<path  fill="#03C12D" stroke-width="0" stroke="#03C12D" d = " M155 320 C152.239,320 148.94,323.78 146.5,325 144.259,326.12 140.831,324.835 138.5,326 135.721,327.389 134.346,332 130,332 121.744,332 113.888,335 105.5,335 103.232,335 96.5057,332.497 95.5,333 86.6117,337.444 66.0194,335.539 61,325.5 61,325.5 56,316.5 56,316.5 54.4857,313.471 56.5553,308.611 55,305.5 51.4227,298.345 48,295.877 48,287 48,287 61.5,286 61.5,286 63.8734,287.187 68.2045,289.648 71.5,288 75.0653,286.217 78.8145,283 83,283 86.4138,283 91.3973,289.449 94.5,291 95.4592,291.48 99,292.571 99,291 103.04,291 107.02,294.26 110.5,296 110.5,296 116.5,296 116.5,296 123.985,299.742 138.056,302 146,302 146,304.308 152.807,308 155,308 155,311.918 155,315.842 155,320  Z"/>

<path  fill-rule="evenodd" fill="#E278A1" stroke-width="0" stroke="#E278A1" d = " M251 304 C251,307.746 253.091,304 251,304  M235 304 C235,308.123 239.123,304 235,304  M268 295 C265.845,295 277.902,301.696 275,307.5 269.61,318.28 264.601,322.45 253.5,328 251.215,329.143 250.047,326.774 248.5,326 246.225,324.863 242.883,326.192 240.5,325 L232.5,327 C228.948,325.224 224.88,324.69 221.5,323 215.228,319.864 215,304.56 215,300.5 215,300.108 217,298.94 217,297 217,293.906 223.015,293.47 224,291.5 224,291.5 224.5,289 224.5,289 225.3,289 225.212,292.144 227.5,291 236.64,286.43 249.939,289.28 252.5,288 256.169,286.165 268,291.463 268,295  Z"/>

<path  fill="#DDD951" stroke-width="0" stroke="#DDD951" d = " M330 297 C334.169,297 350,289.022 350,298 344.303,298 330,307.394 330,297  Z"/>

<path  fill="#DDD951" stroke-width="0" stroke="#DDD951" d = " M146 302 C146,304.308 152.807,308 155,308 155,300.932 151,301.292 151,299 149.234,299 146,299.607 146,302  Z"/>

<path  fill="#EEBA00" stroke-width="0" stroke="#EEBA00" d = " M235 304 C235,308.123 239.123,304 235,304  Z"/>

<path  fill="#EEBA00" stroke-width="0" stroke="#EEBA00" d = " M251 304 C251,307.746 253.091,304 251,304  Z"/>

<path  fill="#FA8072" stroke-width="0" stroke="#FA8072" d = " M325 311 C325,312.659 319.833,311.833 319,313.5 L314,318.5 L314.5,322 L307.5,326 L305,325.5 L306,333.5 C297.783,349.934 305.313,346.907 315.5,352 317.556,353.028 317.257,355.879 317.5,356 319.119,356.81 320.501,355 321.5,355 323.829,355 326.467,356.984 328.5,358 333.071,360.285 336.319,353.591 339.5,352 L343.5,352 C345.79,350.855 345.191,349.118 346,347.5 347.394,344.712 352.054,344.392 353,342.5 354.966,338.567 353.132,327.316 348.5,325 L343.5,324 L342.5,320 L337.5,320 C334.529,318.515 336.025,316.55 335,314.5 L329.5,314 C327.473,312.987 328.418,311 325,311  Z"/>

<path  fill="#FA8072" stroke-width="0" stroke="#FA8072" d = " M155 320 C158.238,320 159.918,308.709 168.5,313 L181.5,327 L187,328.5 C188.891,332.283 184.276,333.949 183,336.5 180.11,342.28 182.429,350.535 175.5,354 173.573,354.964 169.955,353.728 168.5,353 166.708,352.104 163.382,356.441 160.5,355 L153.5,351 L147.5,352 L144.5,346 C142.385,344.942 131.124,347.748 128,341.5 L130,332 C134.346,332 135.721,327.389 138.5,326 140.831,324.835 144.259,326.12 146.5,325 148.94,323.78 152.239,320 155,320  Z"/>

</g>
</svg>
