<svg xmlns="http://www.w3.org/2000/svg" xmlns:xlink="http://www.w3.org/1999/xlink" height="512" width="512">
<g>
<rect width="512" height="512" fill="#000000"  stroke-width="0" /> 
<path  fill="#03C12D" stroke-width="0" stroke="#03C12D" d = " M351 345 L358.5,344 C362.055,345.777 363.219,354.64 370.5,351 L376.5,345 C382.977,341.762 389.93,338.285 396.5,335 400.794,332.853 413.57,311.36 416,306.5 417.549,303.402 416.412,298.676 418,295.5 419.28,292.939 425,287.534 425,285.5 425,284.479 424.532,276.436 425,275.5 427.169,271.163 431.869,269.763 434,265.5 437.04,259.42 433.674,247.152 435,244.5 440.02,234.46 439.935,221.369 435,211.5 433.777,209.055 438.557,193.613 436,188.5 L431,181.5 C428.71,176.92 430.312,170.124 428,165.5 L420,152.5 L419,144.5 C416.78,140.06 414.179,135.859 412,131.5 L407,128.5 L401.5,121 C395.2,117.85 388.645,115.072 382.5,112 379.744,110.622 378.297,111.399 377.5,111 371.332,107.916 366.548,103.024 360.5,100 357.324,98.4122 352.598,99.5492 349.5,98 341.343,93.9217 332.659,92.0793 324.5,88 319.233,85.3664 308.543,87.5216 303.5,85 300.803,83.6514 275.656,81.4218 272.5,83 266.195,86.1524 257.782,83.8591 251.5,87 L240.5,98 L230.5,90 C224.145,86.8223 204.913,87.2067 202.5,86 200.415,84.9574 197.473,82.5134 194.5,84 189.184,86.6578 182.792,86.3539 177.5,89 L170.5,89 L169.5,92 C168.313,92.5936 166.784,92.3582 165.5,93 162.848,94.3259 159.151,90.1743 155.5,92 L153.5,95 C150.607,96.4465 146.337,95.5815 143.5,97 135.42,101.04 126.619,102.941 118.5,107 L113.5,106 C110.797,107.351 110.378,111.061 108.5,112 L104.5,112 L101.5,116 L97.5,116 C88.8832,120.308 83.537,132.426 80,139.5 L71,149.5 C67.1124,157.275 64.9127,165.675 61,173.5 55.7095,184.081 57.2953,197.909 52,208.5 51.2994,209.901 52.7865,236.073 54,238.5 56.5339,243.568 53.9808,256.462 57,262.5 58.5849,265.67 59.4562,269.412 61,272.5 L69,280.5 C70.6358,283.772 64.7139,286.928 67,291.5 L71,292.5 C73.1526,296.805 70.8775,303.255 73,307.5 76.0999,313.7 80.9569,319.414 84,325.5 88.4626,334.425 108.49,343.995 116.5,348 117.844,348.672 130,350.304 130,348 126.455,348 131.641,341.219 132,340.5 132,340.5 132,330.5 132,330.5 132,323.572 126.11,303.719 123,297.5 121.6,294.701 121.986,289 117,289 111.142,289 110.649,285 115,285 115,282.07 110,280.731 110,278.5 110,272.876 105.516,271.531 103,266.5 103,266.5 103,258.5 103,258.5 103,258.5 101,256 101,256 98.6399,256 101,252.041 101,251 101,251 100,249 100,249 97.2113,249 98,241.108 98,239 94.5725,239 97.0332,232 98,232 98,228.937 98.7602,228.98 100,226.5 100,226.5 100,218.5 100,218.5 107.66,203.18 112.135,176.682 129.5,168 129.5,168 133.5,163 133.5,163 146.06,156.72 158.96,151.27 171.5,145 171.5,145 177.5,145 177.5,145 186.792,140.354 197.143,138.678 206.5,134 206.5,134 209.5,136 209.5,136 209.5,136 212,135 212,135 212,133.986 215.959,133 217,133 223.055,133 234.261,120 241.5,120 241.5,120 258.5,128 258.5,128 260.585,129.043 269,130.673 269,134 270.606,134 273.339,131.919 275.5,133 283.218,136.859 291.826,138.163 299.5,142 299.5,142 311.5,143 311.5,143 313.147,143.823 318.402,146 320,146 321.775,146 328,146.069 328,148 330.454,148 336.418,154.459 339.5,156 339.5,156 344.5,156 344.5,156 344.5,156 347.5,160 347.5,160 347.5,160 353.5,160 353.5,160 356.322,161.411 356.781,165.062 358,167.5 358,167.5 366.5,175 366.5,175 367.969,176.469 373.451,178.402 374,179.5 374,179.5 375,185.5 375,185.5 375,185.5 380,192.5 380,192.5 380,192.5 380,196.5 380,196.5 380,196.5 384,200.5 384,200.5 386.758,206.017 386.172,212.844 389,218.5 389,218.5 389,224.5 389,224.5 392.556,231.613 393.784,241.932 390,249.5 389.315,250.87 390.871,254 388,254 388,262.254 377,270.313 377,276 377,278.84 374.976,287 371,287 371,287 370,288 370,288 370,288 368,290 368,290 374.143,290 371.083,299.667 372,301.5 375.472,308.445 367.956,317.588 365,323.5 363.391,326.718 363.654,331.191 362,334.5 362,334.5 351,345 351,345  Z"/>

<path  fill="#1D68EB" stroke-width="0" stroke="#1D68EB" d = " M246 155 L247,156 C254.896,156 261.116,155.269 265,147.5 265,147.5 266,140.5 266,140.5 266,140.5 269,134 269,134 269,130.673 260.585,129.043 258.5,128 258.5,128 241.5,120 241.5,120 234.261,120 223.055,133 217,133 217,133 213,136 213,136 213,136 216,142.5 216,142.5 221.469,153.438 224.8,157 238,157 238,157 239,155 239,155 239,148.611 246,149.007 246,155  Z"/>

<path  fill="#FF6E00" stroke-width="0" stroke="#FF6E00" d = " M101 247 L100,249 C97.2113,249 98,241.108 98,239 98,239 98,232 98,232 98,228.937 98.7602,228.98 100,226.5 100,226.5 100,218.5 100,218.5 107.66,203.18 112.135,176.682 129.5,168 129.5,168 133.5,163 133.5,163 146.06,156.72 158.96,151.27 171.5,145 171.5,145 177.5,145 177.5,145 186.792,140.354 197.143,138.678 206.5,134 206.5,134 209.5,136 209.5,136 209.5,136 212,135 212,135 212,135 213,136 213,136 213,136 216,142.5 216,142.5 221.469,153.438 224.8,157 238,157 239.574,157 247,157.751 247,156 254.896,156 261.116,155.269 265,147.5 265,147.5 266,140.5 266,140.5 266,140.5 269,134 269,134 270.606,134 273.339,131.919 275.5,133 283.218,136.859 291.826,138.163 299.5,142 299.5,142 311.5,143 311.5,143 313.147,143.823 318.402,146 320,146 320,146.442 328,149.47 328,148 330.454,148 336.418,154.459 339.5,156 339.5,156 344.5,156 344.5,156 344.5,156 347.5,160 347.5,160 347.5,160 353.5,160 353.5,160 356.322,161.411 356.781,165.062 358,167.5 358,167.5 366.5,175 366.5,175 367.969,176.469 373.451,178.402 374,179.5 374,179.5 375,185.5 375,185.5 375,185.5 380,192.5 380,192.5 380,192.5 380,196.5 380,196.5 380,196.5 384,200.5 384,200.5 386.758,206.017 386.172,212.844 389,218.5 389,218.5 389,224.5 389,224.5 392.556,231.613 393.784,241.932 390,249.5 389.315,250.87 390.871,254 388,254 388,252.615 389.307,236.115 389,235.5 389,235.5 386,225 386,225 386,225 385,224 385,224 385,217.415 379,211.41 379,205 379,203.535 379.109,201 377,201 377,196.841 370,193.645 370,190 370,187.997 370.293,187 368,187 368,187 360.5,179 360.5,179 353.181,175.34 349.249,169 340.5,169 339.208,169 324,160.8 324,167 320.765,167 319.235,167 316,167 316,158.517 279,154.648 279,163 273.987,163 269.188,168 264,168 261.515,168 241.413,171.043 239.5,172 239.5,172 224,170 224,170 217.988,170 212.378,165 207,165 207,162.016 198.704,161 196.5,161 188.216,161 172,159.884 172,171 166.973,171 164.581,170.041 160.5,168 160.5,168 141.5,171 141.5,171 132.26,175.62 118.782,188.936 114,198.5 114,198.5 114,202.5 114,202.5 111.248,208.004 108.724,213.053 106,218.5 103.622,223.257 106.448,229.604 104,234.5 101.616,239.267 101,241.982 101,247  Z"/>

<path  fill="#03C12D" stroke-width="0" stroke="#03C12D" d = " M239 155 L246,155 C246,149.007 239,148.611 239,155  Z"/>

<path  fill="#022CFF" stroke-width="0" stroke="#022CFF" d = " M311 196 L312,196 C312,196 313,195 313,195 313,193.996 310.69,191 314,191 314,191 312,188.5 312,188.5 312,188.5 314,182 314,182 314,182 313,181 313,181 313,179.932 314.028,169 316,169 316,169 316,167 316,167 316,158.517 279,154.648 279,163 279,163 291,165 291,165 291,165 292,166 292,166 292,170.619 303.842,170.184 306,174.5 307.256,177.011 306.463,187.427 307,188.5 308.471,191.442 311,192.349 311,196  Z"/>

<path  fill="#022CFF" stroke-width="0" stroke="#022CFF" d = " M175 196 L176,197 C181.006,197 180.541,183.418 182,180.5 184.306,175.887 203.203,165 207,165 207,162.016 198.704,161 196.5,161 188.216,161 172,159.884 172,171 176.505,171 174.171,174.842 175,176.5 175,176.5 178,177.5 178,177.5 179.163,179.825 176,188.65 176,193 178.029,193 176.058,194 175,194 175,194 175,196 175,196  Z"/>

<path  fill="#00FF1D" stroke-width="0" stroke="#00FF1D" d = " M186 207 L189,207 C193.208,207 197.137,204 199,204 199,204 200,203 200,203 200,203 201,202 201,202 201,200.423 202.762,200 204,200 204,200 205,200 205,200 205,193.095 221.883,193 226,193 226,190.097 223.676,180 230,180 230,180 231,179 231,179 239.062,179 248.999,179 257,179 257,179 259,180 259,180 259,181.571 264,184.594 264,191 267.809,191 281.94,187.379 284,191.5 284,191.5 284,194.5 284,194.5 284,194.5 286,196 286,196 286,196 288,197 288,197 289.747,197 290,197.253 290,199 290,201.371 298.135,204 300,204 300,202.527 301.952,203 303,203 303,203 304,203 304,203 304,203 308,200 308,200 308,200 309,199 309,199 309,199 310,198 310,198 310,198 311,196 311,196 311,192.349 308.471,191.442 307,188.5 306.463,187.427 307.256,177.011 306,174.5 303.842,170.184 292,170.619 292,166 292,166 291,165 291,165 291,165 279,163 279,163 273.987,163 269.188,168 264,168 264,170.916 259.127,172.186 257.5,173 257.5,173 253.5,176 253.5,176 248.251,178.625 224,177.562 224,170 217.988,170 212.378,165 207,165 203.203,165 184.306,175.887 182,180.5 180.541,183.418 181.006,197 176,197 176,198.048 175.527,200 177,200 177,200 178,201 178,201 178,201 179,202 179,202 179,204.004 184.378,207 186,207  Z"/>

<path  fill="#814FFF" stroke-width="0" stroke="#814FFF" d = " M370 288 L368,290 C368,290 357.5,293 357.5,293 355.936,292.218 353.962,292.731 352.5,292 343.722,287.611 346,276.06 346,269 346,265.404 349.507,263.485 351,260.5 351,260.5 351,256.5 351,256.5 351,256.5 354,254.5 354,254.5 357.894,246.711 354.275,241.05 351,234.5 351,234.5 352,230.5 352,230.5 347.996,222.492 342.571,211 332,211 332,208.877 329,207.97 329,206.5 329,205.469 337.921,176.79 323.5,184 319.921,185.79 322.636,195 316,195 316,193.76 314,193.424 314,191 314,191 312,188.5 312,188.5 312,188.5 314,182 314,182 314,182 313,181 313,181 313,179.932 314.028,169 316,169 318.625,169 324,170.221 324,167 324,160.8 339.208,169 340.5,169 349.249,169 353.181,175.34 360.5,179 360.5,179 368,187 368,187 368,188.238 368.423,190 370,190 370,193.645 377,196.841 377,201 377,201 379,205 379,205 379,211.41 385,217.415 385,224 385,224 386,225 386,225 386,225 389,235.5 389,235.5 389.307,236.115 388,252.615 388,254 388,262.254 377,270.313 377,276 373.479,276 371,284.512 371,287 371,287 370,288 370,288  Z"/>

<path  fill="#814FFF" stroke-width="0" stroke="#814FFF" d = " M115 285 L117,286 C120.221,286 125.554,290.527 128.5,292 139.301,297.401 144.347,283.805 147,278.5 147,278.5 146,273 146,273 146,270.193 143.193,267.887 142,265.5 138.917,259.335 137.86,249.779 141,243.5 141,243.5 141,237.5 141,237.5 142.9,233.699 158,215.912 158,214 158,214 159,212 159,212 159,210.406 154.245,200.627 157.5,199 157.5,199 163,201.5 163,201.5 164.206,199.088 163.98,187.24 169.5,190 174.001,192.25 166.504,198.502 169.5,200 171.616,201.058 172.398,198 174,198 174,198 175,196 175,196 175,196 175,194 175,194 175,194 176,193 176,193 176,188.65 179.163,179.825 178,177.5 178,177.5 175,176.5 175,176.5 174.171,174.842 176.505,171 172,171 166.973,171 164.581,170.041 160.5,168 160.5,168 141.5,171 141.5,171 132.26,175.62 118.782,188.936 114,198.5 114,198.5 114,202.5 114,202.5 111.248,208.004 108.724,213.053 106,218.5 103.622,223.257 106.448,229.604 104,234.5 101.616,239.267 101,241.982 101,247 102.186,247 102.186,248 101,248 101,248 100,249 100,249 100,249 101,251 101,251 103.36,251 101,254.959 101,256 101,256 103,258.5 103,258.5 103,258.5 103,266.5 103,266.5 105.516,271.531 110,272.876 110,278.5 110,280.731 115,282.07 115,285  Z"/>

<path  fill="#FF0800" stroke-width="0" stroke="#FF0800" d = " M264 168 C261.515,168 241.413,171.043 239.5,172 L224,170 C224,177.562 248.251,178.625 253.5,176 253.5,176 257.5,173 257.5,173 259.127,172.186 264,170.916 264,168  Z"/>

<path  fill="#AE00E8" stroke-width="0" stroke="#AE00E8" d = " M264 191 C254.37,191 246.816,203.158 232.5,196 231.235,195.368 226,194.722 226,193 226,190.097 223.676,180 230,180 230,180 231,179 231,179 239.062,179 248.999,179 257,179 257,179 259,180 259,180 259,181.571 264,184.594 264,191  Z"/>

<path  fill-rule="evenodd" fill="#FF3427" stroke-width="0" stroke="#FF3427" d = " M311 245 C311,246.93 312.93,245 311,245  M325 213 C325,217.123 329.123,213 325,213  M292 258 C292,265.801 309,269.605 309,259 309,259 308,255.5 308,255.5 307.331,254.162 314.122,253.257 315,251.5 316.713,248.075 316.258,242.983 318,239.5 318,239.5 323,234.5 323,234.5 323,234.5 322,229.5 322,229.5 323.463,226.574 326.566,224.632 325,221.5 324.309,220.117 331.552,211 332,211 332,208.877 329,207.97 329,206.5 329,205.469 337.921,176.79 323.5,184 319.921,185.79 322.636,195 316,195 316,198.571 316.879,200.743 315,204.5 313.053,208.394 300,214.536 300,219 300,220.311 310.914,213.329 313,217.5 313.696,218.892 304.489,229.523 304,230.5 302.932,232.637 304.639,236.221 304,237.5 304,237.5 300,240.5 300,240.5 297.686,245.129 297,248.311 297,254 297,256.003 297.293,257 295,257 295,257 292,258 292,258  Z"/>

<path  fill="#FF3427" stroke-width="0" stroke="#FF3427" d = " M182 255 C182,259.217 191.809,257 194,257 194,251.296 189,246.95 189,240.5 189,238.544 184,239.215 184,233 184,230.594 179.142,225.179 183.5,223 185.682,221.909 188.6,226 191,226 191,222.129 184.963,219.463 182.5,217 178.426,212.926 175,207.178 175,202 175,202 174,198 174,198 172.398,198 171.616,201.058 169.5,200 166.504,198.502 174.001,192.25 169.5,190 163.98,187.24 164.206,199.088 163,201.5 163,201.5 157.5,199 157.5,199 154.245,200.627 159,210.406 159,212 160.562,212 164,210.622 164,214 164,217.585 164.913,217.325 166,219.5 166.121,219.742 163.163,225.826 165,229.5 166.741,232.983 171.993,232.485 174,236.5 174.84,238.18 170.882,239.264 172,241.5 173.407,244.314 182,253.711 182,255  Z"/>

<path  fill="#022CFF" stroke-width="0" stroke="#022CFF" d = " M243 213 L245,213 C245,211.647 249.643,211 251,211 251,211 252,211 252,211 252,205.654 265.727,207 270,207 270,197.841 286,198.465 286,196 286,196 284,194.5 284,194.5 284,194.5 284,191.5 284,191.5 281.94,187.379 267.809,191 264,191 254.37,191 246.816,203.158 232.5,196 231.235,195.368 226,194.722 226,193 221.883,193 205,193.095 205,200 205,203.611 214,205.363 214,210 218.075,210 225.802,208 230.5,208 231.545,208 232.361,210 234,210 234,210 236,211 236,211 236,211 240,212 240,212 240,212 243,213 243,213  Z"/>

<path  fill="#EE7533" stroke-width="0" stroke="#EE7533" d = " M300 205 C300,207.461 290.006,219.253 295.5,222 L300,219 C300,214.536 313.053,208.394 315,204.5 316.879,200.743 316,198.571 316,195 316,195 313,195 313,195 313,195 312,196 312,196 312,197.747 311.747,198 310,198 310,198 309,199 309,199 309,199 308,200 308,200 308,200 304,203 304,203 304,203 303,204 303,204 303,205.473 301.048,205 300,205  Z"/>

<path  fill-rule="evenodd" fill="#006400" stroke-width="0" stroke="#006400" d = " M243 261 L242,262.5 C238.1,270.3 248.741,261 243,261  M256 271 L245,272 C245,268.956 242,267.487 242,271 238.689,271 235.454,271 232,271 232,271 226,272 226,272 224.371,272 226.373,267 218,267 218,267 217,266 217,266 215.15,266 212,267.798 212,264 212,259.909 215.337,258.175 213,253.5 209.335,246.171 201,254.168 201,259 199.407,259 194,258.663 194,257 194,251.296 189,246.95 189,240.5 189,238.544 184,239.215 184,233 184,230.594 179.142,225.179 183.5,223 185.682,221.909 188.6,226 191,226 191,230.525 196.56,225.381 197,224.5 199.202,220.097 193,214.72 193,211 193,208.707 192.003,209 190,209 190,209 189,209 189,209 189,209 189,207 189,207 193.208,207 197.137,204 199,204 199,204 200,203 200,203 200,203 201,202 201,202 202.238,202 204,201.577 204,200 204,200 205,200 205,200 205,203.611 214,205.363 214,210 214,213.105 215.833,229.334 220.5,227 220.5,227 225,218.5 225,218.5 226.206,216.088 234,213.144 234,212 234,212 236,211 236,211 236,211 240,212 240,212 240,212.813 243,214.728 243,213 243,213 245,213 245,213 246.745,213 251,213.698 251,211 251,211 252,211 252,211 256.753,211 263.062,223.781 263.5,224 270.259,227.38 270,208.815 270,207 270,197.841 286,198.465 286,196 286,196 288,197 288,197 288,197 290,199 290,199 290,201.371 298.135,204 300,204 300,204 300,205 300,205 300,207.461 290.006,219.253 295.5,222 295.5,222 300,219 300,219 300,220.311 310.914,213.329 313,217.5 313.696,218.892 304.489,229.523 304,230.5 302.932,232.637 304.639,236.221 304,237.5 304,237.5 300,240.5 300,240.5 297.686,245.129 297,248.311 297,254 295.423,254 295,255.762 295,257 295,257 292,258 292,258 292,258 287,259 287,259 287,253.763 273,251.481 273,262 273,262 267,265 267,265 262.211,265 262,266.546 262,271 260.377,271 256,269.543 256,271  Z"/>

<path  fill="#022CFF" stroke-width="0" stroke="#022CFF" d = " M177 200 L178,201 C178,201 177,200 177,200  Z"/>

<path  fill="#022CFF" stroke-width="0" stroke="#022CFF" d = " M204 200 C202.762,200 201,200.423 201,202 202.238,202 204,201.577 204,200  Z"/>

<path  fill="#EE7533" stroke-width="0" stroke="#EE7533" d = " M193 211 C193,214.72 199.202,220.097 197,224.5 196.56,225.381 191,230.525 191,226 191,222.129 184.963,219.463 182.5,217 178.426,212.926 175,207.178 175,202 175,202 179,202 179,202 179,204.004 184.378,207 186,207 186,208.577 187.762,209 189,209 189,209 190,209 190,209 190,210.577 191.762,211 193,211  Z"/>

<path  fill="#022CFF" stroke-width="0" stroke="#022CFF" d = " M300 204 L303,204 C303,204 303,203 303,203 301.952,203 300,202.527 300,204  Z"/>

<path  fill="#FFFC00" stroke-width="0" stroke="#FFFC00" d = " M270 207 C265.727,207 252,205.654 252,211 256.753,211 263.062,223.781 263.5,224 270.259,227.38 270,208.815 270,207  Z"/>

<path  fill="#FFFC00" stroke-width="0" stroke="#FFFC00" d = " M234 210 L234,212 C234,213.144 226.206,216.088 225,218.5 225,218.5 220.5,227 220.5,227 215.833,229.334 214,213.105 214,210 218.075,210 225.802,208 230.5,208 231.545,208 232.361,210 234,210  Z"/>

<path  fill="#FF91BA" stroke-width="0" stroke="#FF91BA" d = " M309 259 C312.028,259 322.664,270.082 326.5,272 335.27,276.385 341.671,269 346,269 346,265.404 349.507,263.485 351,260.5 351,260.5 351,256.5 351,256.5 351,256.5 354,254.5 354,254.5 357.894,246.711 354.275,241.05 351,234.5 351,234.5 352,230.5 352,230.5 347.996,222.492 342.571,211 332,211 331.552,211 324.309,220.117 325,221.5 326.566,224.632 323.463,226.574 322,229.5 322,229.5 323,234.5 323,234.5 323,234.5 318,239.5 318,239.5 316.258,242.983 316.713,248.075 315,251.5 314.122,253.257 307.331,254.162 308,255.5 308,255.5 309,259 309,259  Z"/>

<path  fill="#FF91BA" stroke-width="0" stroke="#FF91BA" d = " M182 255 C178.926,255 181.185,261.157 179.5,262 L176.5,262 C174.662,262.919 177,264.828 177,265.5 L164.5,275 C157.486,278.507 151.858,273 146,273 146,270.193 143.193,267.887 142,265.5 138.917,259.335 137.86,249.779 141,243.5 141,243.5 141,237.5 141,237.5 142.9,233.699 158,215.912 158,214 160.447,214 161.28,214 164,214 164,217.585 164.913,217.325 166,219.5 166.121,219.742 163.163,225.826 165,229.5 166.741,232.983 171.993,232.485 174,236.5 174.84,238.18 170.882,239.264 172,241.5 173.407,244.314 182,253.711 182,255  Z"/>

<path  fill="#FF91BA" stroke-width="0" stroke="#FF91BA" d = " M325 213 C325,217.123 329.123,213 325,213  Z"/>

<path  fill="#03C12D" stroke-width="0" stroke="#03C12D" d = " M385 224 L386,225 C386,225 385,224 385,224  Z"/>

<path  fill="#FF91BA" stroke-width="0" stroke="#FF91BA" d = " M311 245 C311,246.93 312.93,245 311,245  Z"/>

<path  fill="#03C12D" stroke-width="0" stroke="#03C12D" d = " M101 248 L100,249 C100,249 101,247 101,247 101,247 101,248 101,248  Z"/>

<path  fill="#FFFC00" stroke-width="0" stroke="#FFFC00" d = " M212 264 L209,265 C204.843,265 204.043,268.729 201.5,270 197.643,271.928 201,260.157 201,259 201,254.168 209.335,246.171 213,253.5 215.337,258.175 212,259.909 212,264  Z"/>

<path  fill="#FFFC00" stroke-width="0" stroke="#FFFC00" d = " M281 266 C283.296,266 285.877,266 288,266 288,266 287,259 287,259 287,253.763 273,251.481 273,262 273,262 277,265 277,265 277,265 279,265 279,265 279,265 281,266 281,266  Z"/>

<path  fill="#E1F00D" stroke-width="0" stroke="#E1F00D" d = " M208 326 L216,326 C216,326 214,319.5 214,319.5 214,319.5 213,299.5 213,299.5 213,299.5 210,295.5 210,295.5 207.97,291.44 214,284.2 214,282 214,282 206,274.5 206,274.5 202.428,267.356 209,268.02 209,265 204.843,265 204.043,268.729 201.5,270 197.643,271.928 201,260.157 201,259 199.407,259 194,258.663 194,257 191.809,257 182,259.217 182,255 178.926,255 181.185,261.157 179.5,262 179.5,262 176.5,262 176.5,262 174.662,262.919 177,264.828 177,265.5 177,265.5 164.5,275 164.5,275 157.486,278.507 151.858,273 146,273 146,273 147,278.5 147,278.5 144.347,283.805 139.301,297.401 128.5,292 125.554,290.527 120.221,286 117,286 117,286 117,289 117,289 121.986,289 121.6,294.701 123,297.5 126.11,303.719 132,323.572 132,330.5 132,330.5 132,340.5 132,340.5 131.641,341.219 126.455,348 130,348 139.94,348 151.886,352.807 161.5,348 181.888,337.806 179.894,326 208,326  Z"/>

<path  fill="#E1F00D" stroke-width="0" stroke="#E1F00D" d = " M287 328 C291.662,328 295.264,324.382 300.5,327 305.984,329.742 310.605,340.552 315.5,343 319.78,345.14 326.985,346.243 330.5,348 L335.5,351 C336.35,351 343.432,350.534 344.5,350 346.76,348.87 348.112,345 351,345 351,345 362,334.5 362,334.5 363.654,331.191 363.391,326.718 365,323.5 367.956,317.588 375.472,308.445 372,301.5 371.083,299.667 374.143,290 368,290 368,290 357.5,293 357.5,293 355.936,292.218 353.962,292.731 352.5,292 343.722,287.611 346,276.06 346,269 341.671,269 335.27,276.385 326.5,272 322.664,270.082 312.028,259 309,259 309,269.605 292,265.801 292,258 292,258 287,259 287,259 287,259 288,266 288,266 288,274.83 281,271.743 281,266 281,266 279,265 279,265 279,267.907 280.635,278 274,278 274,281.281 278.171,278.843 279,280.5 280.137,282.775 278.808,286.117 280,288.5 282.148,292.797 278.096,296.308 277,298.5 277,298.5 278,302.5 278,302.5 274.397,309.705 275,317.266 275,325 279.763,325 283.194,328 287,328  Z"/>

<path  fill="#022CFF" stroke-width="0" stroke="#022CFF" d = " M243 261 L242,262.5 C238.1,270.3 248.741,261 243,261  Z"/>

<path  fill="#E1F00D" stroke-width="0" stroke="#E1F00D" d = " M277 265 L271.5,264 L269,266 C269,266 267,265 267,265 267,265 273,262 273,262 273,262 277,265 277,265  Z"/>

<path  fill="#0008B6" stroke-width="0" stroke="#0008B6" d = " M231 276 C231,278.3 222.411,282.044 220.5,283 L214,282 C214,282 206,274.5 206,274.5 202.428,267.356 209,268.02 209,265 209,265 212,264 212,264 212,267.798 215.15,266 217,266 217,266 218,267 218,267 218,267 217,272.5 217,272.5 218.489,275.478 226,276.465 226,272 226,272 232,271 232,271 232,271 231,276 231,276  Z"/>

<path  fill="#0008B6" stroke-width="0" stroke="#0008B6" d = " M257 278 C259.678,278 260.323,279.911 262.5,281 266.602,283.051 270.612,278 274,278 280.635,278 279,267.907 279,265 279,265 277,265 277,265 277,265 271.5,264 271.5,264 271.5,264 269,266 269,266 269,269.842 273.046,277.773 265.5,274 265.5,274 262,271 262,271 260.377,271 256,269.543 256,271 256,273.402 257,275.31 257,278  Z"/>

<path  fill="#15C0FF" stroke-width="0" stroke="#15C0FF" d = " M269 266 C269,269.842 273.046,277.773 265.5,274 L262,271 C262,266.546 262.211,265 267,265 267,265 269,266 269,266  Z"/>

<path  fill="#E1F00D" stroke-width="0" stroke="#E1F00D" d = " M217 266 L218,267 C218,267 217,266 217,266  Z"/>

<path  fill="#15C0FF" stroke-width="0" stroke="#15C0FF" d = " M218 267 C226.373,267 224.371,272 226,272 226,276.465 218.489,275.478 217,272.5 217,272.5 218,267 218,267  Z"/>

<path  fill="#DE07ED" stroke-width="0" stroke="#DE07ED" d = " M281 266 C283.296,266 285.877,266 288,266 288,274.83 281,271.743 281,266  Z"/>

<path  fill="#022CFF" stroke-width="0" stroke="#022CFF" d = " M242 276 L242,310 C242,310.74 241.103,332.294 245,324.5 L245,288 C245,286.259 244.227,277 246,277 246,277 245,272 245,272 245,268.956 242,267.487 242,271 242,271 242,276 242,276  Z"/>

<path  fill="#E1F00D" stroke-width="0" stroke="#E1F00D" d = " M231 276 L242,276 C242,276 242,271 242,271 238.689,271 235.454,271 232,271 232,271 231,276 231,276  Z"/>

<path  fill="#E1F00D" stroke-width="0" stroke="#E1F00D" d = " M246 277 C249.642,277 254.002,278 257,278 257,275.31 256,273.402 256,271 256,271 245,272 245,272 245,272 246,277 246,277  Z"/>

<path  fill="#E278A1" stroke-width="0" stroke="#E278A1" d = " M226 330 L229,332 C242.328,332 253.586,333.957 265.5,328 267.18,327.16 275,327.496 275,325 275,317.266 274.397,309.705 278,302.5 278,302.5 277,298.5 277,298.5 278.096,296.308 282.148,292.797 280,288.5 278.808,286.117 280.137,282.775 279,280.5 278.171,278.843 274,281.281 274,278 270.612,278 266.602,283.051 262.5,281 260.323,279.911 259.678,278 257,278 254.002,278 249.642,277 246,277 244.227,277 245,286.259 245,288 245,288 245,324.5 245,324.5 241.103,332.294 242,310.74 242,310 242,310 242,276 242,276 242,276 231,276 231,276 231,278.3 222.411,282.044 220.5,283 220.5,283 214,282 214,282 214,284.2 207.97,291.44 210,295.5 210,295.5 213,299.5 213,299.5 213,299.5 214,319.5 214,319.5 214,319.5 216,326 216,326 216,327.565 224.408,330 226,330  Z"/>

<path  fill="#267EFF" stroke-width="0" stroke="#267EFF" d = " M226 330 C226,331.577 227.762,332 229,332 242.328,332 253.586,333.957 265.5,328 267.18,327.16 275,327.496 275,325 279.763,325 283.194,328 287,328 287,329.483 286.081,334.21 284.5,335 281.871,336.314 264.489,340.495 261.5,339 254.896,335.698 230.549,337 222,337 219.14,337 215.126,340.813 211.5,339 211.5,339 204,331.5 204,331.5 203.044,329.589 208,327.026 208,326 208,326 216,326 216,326 216,327.565 224.408,330 226,330  Z"/>

<path  fill-rule="evenodd" fill="#FA8072" stroke-width="0" stroke="#FA8072" d = " M302 369 C302,370.537 300.708,375 302.5,375 303.149,375 303.747,369 302,369  M301 359 L302,361.5 L302,364.5 C302.385,365.27 306.249,359 301,359  M298 345 C298,347.758 283.132,350.236 281,354.5 279.989,356.523 281.302,373.103 282,374.5 283.425,377.35 288.304,377.107 289,378.5 L289,382.5 L294.5,389 C296.573,390.037 297.205,387 299.5,387 301.795,387 302.427,390.037 304.5,389 L309.5,386 L316.5,387 C327.673,381.414 318.854,376.792 320,374.5 L323.5,375 L329,370.5 C332.897,362.705 323.503,360.507 322,357.5 L321,351.5 L317.5,350 L314.5,345 C313.88,344.69 299.944,345 298,345  Z"/>

<path  fill-rule="evenodd" fill="#FA8072" stroke-width="0" stroke="#FA8072" d = " M195 370 L194,371.5 C192.034,375.432 199.565,370 195,370  M181 348 C181,350.144 176.738,348.381 175.5,349 173.39,350.055 173.688,353.406 172.5,354 170.882,354.809 169.145,354.21 168,356.5 L167.5,360 C165.413,361.044 163.203,357.094 161,361.5 159.638,364.223 160.815,371.658 163.5,373 166.003,374.252 165.928,367.357 168,371.5 L168,377.5 C168.959,379.419 176.476,391 178.5,391 181.383,391 181.666,387.083 185.5,389 L187.5,395 L190.5,394 C192.617,395.059 193.286,395.107 195.5,394 201.471,391.015 193.511,384.495 196.5,383 199.76,381.37 205.179,388.142 209,380.5 213.029,372.443 204.392,369.284 203,366.5 202.143,364.786 202.776,362.138 200.5,361 L195.5,360 L195,353.5 C193.084,349.668 184.829,348 181,348  Z"/>

<path  fill="#FA8072" stroke-width="0" stroke="#FA8072" d = " M125 356 C125,358.203 121.535,360.569 123,363.5 125.889,369.278 129.5,366.5 134.5,369 135.688,369.594 135.39,372.945 137.5,374 139.119,374.81 140.501,373 141.5,373 142.422,373 144.793,383.707 151,377.5 L153,375.5 C155.71,370.08 147.189,370.689 145.5,369 143.552,367.052 146.115,363.808 142.5,362 L131.5,361 C128.077,359.289 129.457,356 125,356  Z"/>

<path  fill="#FA8072" stroke-width="0" stroke="#FA8072" d = " M360 358 C360,362.06 355.357,357.571 352.5,359 347.802,361.349 335.816,367.132 339,373.5 341.095,377.691 343.048,375.226 345.5,374 L350.5,375 C353.35,373.575 353.107,368.696 354.5,368 356.15,367.175 361.765,369.367 364.5,368 372.933,363.783 364.213,358 360,358  Z"/>

</g>
</svg>
