<svg xmlns="http://www.w3.org/2000/svg" xmlns:xlink="http://www.w3.org/1999/xlink" height="512" width="512">
<g>
<rect width="512" height="512" fill="#000000"  stroke-width="0" /> 
<path  fill-rule="evenodd" fill="#86FF5A" stroke-width="0" stroke="#86FF5A" d = " M240 351 C240,353.014 237.716,356.932 239,359.5 244.326,370.151 253.908,355.204 247.5,352 L244.5,353 C243.375,353 241.943,351 240,351  M244 315 C244,316.714 238.406,316 237,316 229.043,316 230.095,315.702 223.5,319 221.429,320.035 218.179,317.66 215.5,319 L215,321.5 L207,328.5 C203.619,335.261 200.552,341.396 197,348.5 L197,354.5 C187.164,374.172 210.677,399.089 224.5,406 227.904,407.702 237.194,407.653 240.5,406 242.295,405.103 243.92,400.71 246.5,402 255.486,406.493 259.293,409.104 269.5,404 282.275,397.612 289.199,380.101 295,368.5 296.843,364.815 290.743,345.985 289,342.5 L287,333.5 L281,327.5 L278.5,322 L274.5,322 C265.289,317.394 255.061,315 244,315  Z"/>

<path  fill="#EB57FF" stroke-width="0" stroke="#EB57FF" d = " M240 351 C240,353.014 237.716,356.932 239,359.5 244.326,370.151 253.908,355.204 247.5,352 L244.5,353 C243.375,353 241.943,351 240,351  Z"/>

</g>
</svg>
