<svg xmlns="http://www.w3.org/2000/svg" xmlns:xlink="http://www.w3.org/1999/xlink" height="512" width="512">
<g>
<rect width="512" height="512" fill="#000000"  stroke-width="0" /> 
<path  fill-rule="evenodd" fill="#86FF5A" stroke-width="0" stroke="#86FF5A" d = " M240 372 L239,378.5 L242.5,380 C251.413,384.457 250.121,373.31 247.5,372 247.258,371.879 241.146,372 240,372  M240 332 C240,333.799 231.003,333.248 229.5,334 L215.5,340 C203.912,345.794 203.085,359.331 198,369.5 L198,376.5 C196.52,379.459 196.52,383.541 198,386.5 L199,399.5 C204.573,410.646 225.514,428.993 239.5,422 241.653,420.924 244.759,415.13 246.5,416 249.883,417.691 251.551,421.025 255.5,423 259.959,425.23 283.565,412.369 285,409.5 291.011,397.479 292,387.245 292,373 L292,364.5 C290.087,360.674 287.909,357.317 286,353.5 284.11,349.721 280.877,341.189 276.5,339 L272.5,339 C262.364,333.932 252.293,332 240,332  Z"/>

<path  fill="#EB57FF" stroke-width="0" stroke="#EB57FF" d = " M240 372 L239,378.5 L242.5,380 C251.413,384.457 250.121,373.31 247.5,372 247.258,371.879 241.146,372 240,372  Z"/>

</g>
</svg>
