<svg xmlns="http://www.w3.org/2000/svg" xmlns:xlink="http://www.w3.org/1999/xlink" height="512" width="512">
<g>
<rect width="512" height="512" fill="#000000"  stroke-width="0" /> 
<path  fill="#03C12D" stroke-width="0" stroke="#03C12D" d = " M34 231 L31,225.5 L33,220.5 C34.5807,217.339 31.282,213.936 33,210.5 36.1669,204.166 33.7664,197.967 37,191.5 L37,181.5 C40.6351,174.23 41.4148,165.67 45,158.5 L50,151.5 C56.6862,138.128 68.9392,119.28 83.5,112 L88.5,111 C89.1303,110.685 88.8185,105.841 92.5,104 96.5,102 100.396,99.0521 104.5,97 L111.5,96 L122.5,88 C130.051,84.2245 139.928,84.786 147.5,81 L153.5,82 L157.5,78 C163.241,75.1293 174.583,77.4585 179.5,75 186.261,71.6193 191.716,71 200,71 203.144,71 209.901,68.2007 213.5,70 220.714,73.6069 225.523,79.5115 232.5,83 234.419,83.9593 235.699,89.4007 238.5,88 L242.5,83 C245.314,81.5929 248.633,80.4333 251.5,79 L254.5,75 C261.966,71.2672 280.727,67.6137 289.5,72 L297.5,71 C302.288,73.3942 311.112,73 315.5,73 319.197,73 322.352,75.4258 325.5,77 L335.5,77 C340.501,79.5006 351.549,80.5244 354.5,82 359.194,84.3471 363.716,86.6082 368.5,89 L373.5,88 C379.089,90.7947 382.548,95.0239 388.5,98 390.731,99.1156 395.762,101.023 397,103.5 L399.5,108 C402.333,108 401.75,105.625 406.5,108 408.246,108.873 423.656,118.813 424,119.5 L423,123.5 C423.877,125.255 425.19,126.88 426,128.5 L430,130.5 C432.108,134.716 435.845,138.19 438,142.5 L440,150.5 L444,154.5 C446.218,158.937 447.686,170.872 449,173.5 451.224,177.948 453.977,194.547 452,198.5 451.971,198.558 455.706,216.088 452,223.5 451.266,224.968 452.099,232 450,232 449.598,232 446.57,229.535 445.5,229 438.658,225.579 429.51,227.505 422.5,224 420.022,222.761 419.011,226 417.5,226 417.5,226 412,223 412,223 412,221.53 410,216.928 410,216.5 410,215.17 413.052,214.604 412,212.5 409.804,208.108 412.111,201.721 410,197.5 407.566,192.632 406.436,187.371 404,182.5 404,182.5 404,177.5 404,177.5 392.141,153.783 382.149,137.325 357.5,125 346.936,119.718 333.999,119.249 323.5,114 323.5,114 307.5,112 307.5,112 299.644,108.072 288.378,110.939 280.5,107 278.888,106.194 273.198,101.151 271.5,102 260.512,107.494 264.86,108.781 260,118.5 260,118.5 260,122.5 260,122.5 255.518,131.464 244.52,133 235.5,133 225.882,133 226.341,126.92 222.5,125 222.5,125 220,124.5 220,124.5 220,124.5 220,117.5 220,117.5 220,117.5 214,111.5 214,111.5 212.466,108.433 213.643,103 208.5,103 202.787,103 199.272,106.614 194.5,109 194.5,109 184.5,110 184.5,110 184.5,110 182.5,113 182.5,113 178.433,113 173.553,113.473 168.5,116 167.184,116.658 162.831,114.835 160.5,116 155.929,118.286 141.543,125 137,125 135.762,125 134,125.423 134,127 134,127 124.5,132 124.5,132 119.545,134.477 104.72,146.06 102,151.5 102,151.5 94,162.5 94,162.5 92.3009,165.898 91.5383,171.423 90,174.5 82.154,190.192 75,207.237 75,226 73.0548,226 68.8716,229 66.5,229 65.9186,229 58.8171,226.341 57.5,227 54.5778,228.461 50.3121,226.594 47.5,228 41.6699,230.915 40.4408,231 34,231  Z"/>

<path  fill-rule="evenodd" fill="#FF6E00" stroke-width="0" stroke="#FF6E00" d = " M377 148 C377,149.93 378.93,148 377,148  M365 137 C365,138.93 366.93,137 365,137  M397 280 L399,280 C399,280 400,279 400,279 400,276.523 402.011,276.478 403,274.5 403.93,272.641 402.481,266 406,266 406,261.034 410.557,235.615 410,234.5 408.517,231.535 410.939,227.623 412,225.5 412.545,224.409 409.849,223 412,223 412,221.53 410,216.928 410,216.5 410,215.17 413.052,214.604 412,212.5 409.804,208.108 412.111,201.721 410,197.5 407.566,192.632 406.436,187.371 404,182.5 404,182.5 404,177.5 404,177.5 392.141,153.783 382.149,137.325 357.5,125 346.936,119.718 333.999,119.249 323.5,114 323.5,114 307.5,112 307.5,112 299.644,108.072 288.378,110.939 280.5,107 278.888,106.194 273.198,101.151 271.5,102 260.512,107.494 264.86,108.781 260,118.5 260,118.5 260,122.5 260,122.5 255.518,131.464 244.52,133 235.5,133 225.882,133 226.341,126.92 222.5,125 222.5,125 220,124.5 220,124.5 220,124.5 220,117.5 220,117.5 220,117.5 214,111.5 214,111.5 212.466,108.433 213.643,103 208.5,103 202.787,103 199.272,106.614 194.5,109 194.5,109 184.5,110 184.5,110 184.5,110 182.5,113 182.5,113 178.433,113 173.553,113.473 168.5,116 167.184,116.658 162.831,114.835 160.5,116 155.929,118.286 141.543,125 137,125 137,126.577 135.238,127 134,127 134,127 124.5,132 124.5,132 119.545,134.477 104.72,146.06 102,151.5 102,151.5 94,162.5 94,162.5 92.3009,165.898 91.5383,171.423 90,174.5 82.154,190.192 75,207.237 75,226 75,231.352 75.2392,250.978 77,254.5 79.1839,258.868 81,264.842 81,270 81,270 81,273 81,273 83.341,273 82.4208,275.342 83,276.5 85.1603,280.821 90.1804,283.861 92,287.5 92.719,288.938 99,290.295 99,290 99,288.948 87.9976,280.495 86,276.5 84.0158,272.532 83.4696,265.439 81,260.5 81,260.5 80,229.5 80,229.5 81.6873,226.125 84,220.909 84,217 82.6007,217 82.6007,215 84,215 84,215 84,214 84,214 84,214 83,212 83,212 83,208.933 86,207.274 86,206 86,206 86,205 86,205 86,203.576 86.3616,200 88,200 88,200 88,199 88,199 86.07,199 88,197.839 88,197 88,197 89,195 89,195 89,195 90,193 90,193 90,191.535 89.891,189 92,189 92,189 92,187 92,187 92,184.576 93.706,180 96,180 96,180 96,179 96,179 96,179 97,175 97,175 97,173.952 96.5271,172 98,172 98,172 100,171 100,171 100,171 101,167 101,167 98.3455,167 101.733,163 103,163 103,163 114,150 114,150 114,150 115,149 115,149 115,146.684 125.621,140 128,140 128,140 129,139 129,139 129,139 143.5,131 143.5,131 148.321,128.589 170.255,122.877 176.5,126 176.5,126 182.5,130 182.5,130 186.102,131.801 195,138.146 195,143 198.188,143 197.952,144.726 200.5,146 204.833,148.166 210.769,148 216,148 216,148 217,147 217,147 217,147 229,147 229,147 230.574,147 238,146.249 238,148 238,148 246,147 246,147 246,147 248,147 248,147 248,147 263,145 263,145 263,143.601 265,143.601 265,145 265,145 266,145 266,145 266,143.421 268.855,144 270,144 270,144 271,144 271,144 271,144 273,144 273,144 278.031,144 285.138,138 288,138 288,134.77 297.083,128.208 299.5,127 317.807,117.847 339.24,125.87 355.5,134 359.294,135.897 367.548,143 371,143 371,140.001 374.999,144 372,144 372,144 377,149.5 377,149.5 377.899,151.297 385.623,163 387,163 388.577,163 389,164.762 389,166 389,166 389,167 389,167 389,167 390,168 390,168 390,168 392,171 392,171 392,171 392,173 392,173 392,173 393,174 393,174 396.461,174 395,178.394 395,180 395,180 395,181 395,181 397.109,181 397,183.535 397,185 397,192.974 401.561,203.623 405,210.5 406.674,213.848 404.27,219.041 406,222.5 408.272,227.044 404.881,254.738 403,258.5 403,258.5 402,269.5 402,269.5 400.507,272.486 397,276.532 397,280  Z"/>

<path  fill="#0E47E2" stroke-width="0" stroke="#0E47E2" d = " M331 303 C331,308.48 322,301.299 322,304 322,311.265 310.808,315.116 307,307.5 304.138,301.776 314,300.424 314,296 316.003,296 317,296.293 317,294 317,294 318,293 318,293 318,293 321,288 321,288 321,288 322,287 322,287 322,284.219 324.981,284.539 326,282.5 328.257,277.985 331.309,272.191 335,268.5 336.255,267.245 337.265,263 339,263 339,263 340,262 340,262 340,262 341,260 341,260 342.732,260 349,250.779 349,249 349,249 349,248 349,248 350.008,248 353,242.853 353,242 353,242 354,240 354,240 355.638,240 356,236.424 356,235 356,235 358,233 358,233 358,233 359,232 359,232 359,232 363,222.5 363,222.5 365.521,217.458 358.11,199.719 356,195.5 356,195.5 346,181.5 346,181.5 345.002,180.502 340,175.247 340,180 331.647,180 326.003,173 318,173 318,169.114 298.863,165.227 297,161.5 297,161.5 297,156 297,156 297,152.955 302,152.513 302,149.5 302,149.5 298,147.5 298,147.5 296.952,145.403 290.669,138 288,138 288,134.77 297.083,128.208 299.5,127 317.807,117.847 339.24,125.87 355.5,134 359.294,135.897 367.548,143 371,143 371,143 372,144 372,144 372,144 377,149.5 377,149.5 377.899,151.297 385.623,163 387,163 387,164.238 387.423,166 389,166 389,166 389,167 389,167 389,167 390,168 390,168 390,169.238 390.423,171 392,171 392,171 392,173 392,173 392,173 393,174 393,174 393,175.623 393.005,180 395,180 395,180 395,181 395,181 395,181 397,185 397,185 397,192.974 401.561,203.623 405,210.5 406.674,213.848 404.27,219.041 406,222.5 408.272,227.044 404.881,254.738 403,258.5 403,258.5 402,269.5 402,269.5 400.507,272.486 397,276.532 397,280 394.385,280 388.112,286.694 385.5,288 382.711,289.395 351.209,299 349,299 349,289.247 331,298.108 331,303  Z"/>

<path  fill="#0E47E2" stroke-width="0" stroke="#0E47E2" d = " M153 304 C159.033,304 164,307.806 164,314 164,316.643 176.133,314.234 177,312.5 180,306.501 172.677,304.854 171,301.5 171,301.5 172,298 172,298 172,296.753 169.533,293 168,293 168,293 165,290 165,290 162.641,290 156,280.974 156,279 156,279 151,274 151,274 151,274 149,269 149,269 149,269 143,262.5 143,262.5 138.571,258.071 135.662,251.824 133,246.5 131.425,243.351 127,245.042 127,240 127,236.553 121,229.575 121,224 119.465,224 119.465,220 121,220 121,220 121,218 121,218 121,216.952 120.527,215 122,215 122,215 123,212 123,212 123,210.535 122.891,208 125,208 125,208 126,206 126,206 126,206 127,205 127,205 127,202.98 129.189,199 131,199 131,199 132,197 132,197 132,197 133,195 133,195 133,195 134,194 134,194 134,194 135,193 135,193 135,193 136,191 136,191 136,191 137,190 137,190 137,190 137,189 137,189 137,189 143.5,181 143.5,181 143.5,181 147,182 147,182 147,182 153,181 153,181 153,177.548 165.736,175 169,175 169,172.199 181.282,169.109 183.5,168 187.593,165.954 184.94,161 189,161 189,161 189,160 189,160 189,160 185,154.5 185,154.5 185,151.853 193.381,143 195,143 195,138.146 186.102,131.801 182.5,130 182.5,130 176.5,126 176.5,126 170.255,122.877 148.321,128.589 143.5,131 143.5,131 129,139 129,139 129,139 128,140 128,140 125.621,140 115,146.684 115,149 115,149 114,150 114,150 114,150 103,163 103,163 103,163 102,166 102,166 102,166 101,167 101,167 101,167 100,171 100,171 100,171 99,172 99,172 99,173.048 99.4729,175 98,175 98,176.465 98.109,179 96,179 96,179 96,180 96,180 96,180 93,187 93,187 93,188.048 93.4729,190 92,190 92,190 91,193 91,193 92.93,193 91,194.161 91,195 91,196.238 90.5774,198 89,198 89,198 88,199 88,199 88,199 88,200 88,200 90.6627,200 87.8195,205 86,205 86,205 86,206 86,206 89.0072,206 85,211.215 85,212 85,212 84,214 84,214 84,214 84,215 84,215 84,215 84,217 84,217 84,220.909 81.6873,226.125 80,229.5 80,229.5 81,260.5 81,260.5 83.4696,265.439 84.0158,272.532 86,276.5 87.9976,280.495 99,288.948 99,290 99,290 101,291 101,291 101,291 103,292 103,292 113.3,292 121.796,300 134,300 134,295.259 153,296.088 153,304  Z"/>

<path  fill="#022CFF" stroke-width="0" stroke="#022CFF" d = " M365 137 C365,138.93 366.93,137 365,137  Z"/>

<path  fill="#DDD951" stroke-width="0" stroke="#DDD951" d = " M263 164 L271,164 C271,164 272,163 272,163 272,161.814 273,161.814 273,163 273,163 274,163 274,163 274,160.848 282,159.126 282,161 282,161 283,161 283,161 283,159.527 284.952,160 286,160 289.173,160 293.333,156 297,156 297,152.955 302,152.513 302,149.5 302,149.5 298,147.5 298,147.5 296.952,145.403 290.669,138 288,138 285.138,138 278.031,144 273,144 273,145.399 271,145.399 271,144 271,144 270,144 270,144 270,145.579 267.145,145 266,145 266,145 265,145 265,145 265,145 263,145 263,145 263,145 248,147 248,147 248,147 247,148 247,148 247,148 246,153.5 246,153.5 247.455,156.411 257.272,164 260,164 260,164 263,164 263,164  Z"/>

<path  fill="#022CFF" stroke-width="0" stroke="#022CFF" d = " M129 139 L128,140 C128,140 129,139 129,139  Z"/>

<path  fill="#022CFF" stroke-width="0" stroke="#022CFF" d = " M371 143 L372,144 C374.999,144 371,140.001 371,143  Z"/>

<path  fill="#DDD951" stroke-width="0" stroke="#DDD951" d = " M229 166 C226.755,166 225.095,168 223.5,168 217.797,168 210.385,167 204,167 204,164.901 193.326,161 191,161 191,161 189,160 189,160 189,160 185,154.5 185,154.5 185,151.853 193.381,143 195,143 198.188,143 197.952,144.726 200.5,146 204.833,148.166 210.769,148 216,148 216,148 217,147 217,147 217,147 229,147 229,147 229,147.427 235.112,150 236,150 236,156.076 229,160.701 229,166  Z"/>

<path  fill="#022CFF" stroke-width="0" stroke="#022CFF" d = " M250 187 L244.5,191 C242.112,192.194 238.733,188 236,188 236,188 231.5,184 231.5,184 231.5,184 229,180 229,180 229,178.053 226,177.364 226,175 227.141,175 234,176.118 234,172.5 234,170.954 229,168.978 229,166 229,160.701 236,156.076 236,150 236,150 238,148 238,148 238,148 246,147 246,147 246,147 247,148 247,148 247,148 246,153.5 246,153.5 247.455,156.411 257.272,164 260,164 260,164 260,166 260,166 255.456,166 251.139,175 259,175 259,175 260,177 260,177 260,177 256,184 256,184 256,184 251,186 251,186 251,186 250,187 250,187  Z"/>

<path  fill="#022CFF" stroke-width="0" stroke="#022CFF" d = " M377 148 C377,149.93 378.93,148 377,148  Z"/>

<path  fill="#022CFF" stroke-width="0" stroke="#022CFF" d = " M115 149 L114,150 C114,150 115,149 115,149  Z"/>

<path  fill="#022CFF" stroke-width="0" stroke="#022CFF" d = " M291 167 C291.97,167 308.309,174 310.5,174 311.948,174 318,174.725 318,173 318,169.114 298.863,165.227 297,161.5 297,161.5 297,156 297,156 293.333,156 289.173,160 286,160 286,160 286,162 286,162 290.152,162 291,162.848 291,167  Z"/>

<path  fill="#022CFF" stroke-width="0" stroke="#022CFF" d = " M178 176 L179,176 C179,176 181,175 181,175 181,171.073 197.031,170 200,170 200,168.339 200.784,167 204,167 204,164.901 193.326,161 191,161 191,161 189,161 189,161 184.94,161 187.593,165.954 183.5,168 181.282,169.109 169,172.199 169,175 169,175 170,176 170,176 173.354,176 175.291,176 178,176  Z"/>

<path  fill="#5600DD" stroke-width="0" stroke="#5600DD" d = " M266 173 L259,175 C251.139,175 255.456,166 260,166 261.238,166 263,165.577 263,164 263,164 271,164 271,164 271,164 272,163 272,163 272,163 273,163 273,163 273,163 274,163 274,163 277.138,163 279.662,161 282,161 282,161 283,161 283,161 283,162.473 284.952,162 286,162 290.152,162 291,162.848 291,167 291,170.382 283,168.381 283,171 278.716,171 273.629,172 270,172 270,172 266,173 266,173  Z"/>

<path  fill="#022CFF" stroke-width="0" stroke="#022CFF" d = " M102 166 L101,167 C98.3455,167 101.733,163 103,163 103,163 102,166 102,166  Z"/>

<path  fill="#5600DD" stroke-width="0" stroke="#5600DD" d = " M224 174 L226,175 C227.141,175 234,176.118 234,172.5 234,170.954 229,168.978 229,166 226.755,166 225.095,168 223.5,168 217.797,168 210.385,167 204,167 200.784,167 200,168.339 200,170 201.448,170 213,172.286 213,173 213,173 224,174 224,174  Z"/>

<path  fill="#022CFF" stroke-width="0" stroke="#022CFF" d = " M389 167 L390,168 C390,168 389,167 389,167  Z"/>

<path  fill="#FF571E" stroke-width="0" stroke="#FF571E" d = " M321 222 C312.844,222 284.436,216.032 278.5,219 274.943,220.779 267.919,224 264,224 264,219.931 260,216.444 260,213 260,213 260,208.5 260,208.5 258.568,205.636 243.265,200.117 239.5,202 237.179,203.16 234.614,207.443 231.5,209 229.709,209.896 228,210.536 228,213 228,213 222,225 222,225 218.261,225 205.379,225.94 203.5,225 203.5,225 197.5,220 197.5,220 197.5,220 191.5,221 191.5,221 191.5,221 189,219 189,219 186.444,219 174,220.382 174,217 176.029,217 174.058,216 173,216 173,216 171,216 171,216 171,212.356 172.541,211.418 174,208.5 174,208.5 173,204.5 173,204.5 175.758,198.984 177.26,192.979 180,187.5 181.125,185.249 178,179.203 178,176 178,176 179,176 179,176 179,176 181,175 181,175 185.536,175 193.283,170.392 198.5,173 200.612,174.056 203.495,172.997 205.5,174 205.5,174 208,176 208,176 208,178.915 202.641,180.781 204,183.5 204,183.5 211,185.5 211,185.5 211,186.833 211.596,188.307 211,189.5 211,189.5 208,191.5 208,191.5 208,191.5 210,192.5 210,192.5 213.341,199.182 221.445,200.028 227.5,197 230.929,195.286 229.853,185 230,185 232.165,185 232.546,188 236,188 238.733,188 242.112,192.194 244.5,191 244.5,191 250,187 250,187 250,187 251,186 251,186 251,186 256,184 256,184 267.702,184 252.916,192.208 260.5,196 263.235,197.367 280,193.902 280,191.5 280,189.412 274.503,188.494 276,185.5 277.443,182.614 282.04,181.23 284.5,180 284.5,180 287,179.5 287,179.5 287,179.5 282,172 282,172 282,172 283,171 283,171 288.099,171 299.535,171.018 303.5,173 303.5,173 312,179 312,179 312,181.132 308.729,183.958 310,186.5 310,186.5 312,189.5 312,189.5 312,189.5 311,192.5 311,192.5 311,192.5 315,196.5 315,196.5 315,198.011 311.761,199.022 313,201.5 315.913,207.327 321,215.232 321,222  Z"/>

<path  fill="#022CFF" stroke-width="0" stroke="#022CFF" d = " M97 175 L98,175 C99.4729,175 99,173.048 99,172 99,172 98,172 98,172 96.5271,172 97,173.952 97,175  Z"/>

<path  fill="#E1970F" stroke-width="0" stroke="#E1970F" d = " M260 177 L256,184 C267.702,184 252.916,192.208 260.5,196 263.235,197.367 280,193.902 280,191.5 280,189.412 274.503,188.494 276,185.5 277.443,182.614 282.04,181.23 284.5,180 284.5,180 287,179.5 287,179.5 287,179.5 282,172 282,172 280.88,172 270,174.857 270,172 270,172 266,173 266,173 266,173 260,177 260,177  Z"/>

<path  fill="#E1970F" stroke-width="0" stroke="#E1970F" d = " M229 180 L230,185 C229.853,185 230.929,195.286 227.5,197 221.445,200.028 213.341,199.182 210,192.5 210,192.5 208,191.5 208,191.5 208,191.5 211,189.5 211,189.5 211.596,188.307 211,186.833 211,185.5 211,185.5 204,183.5 204,183.5 202.641,180.781 208,178.915 208,176 209.947,176 210.636,173 213,173 213,173 224,174 224,174 224,174 226,175 226,175 226,177.364 229,178.053 229,180  Z"/>

<path  fill="#022CFF" stroke-width="0" stroke="#022CFF" d = " M392 173 L393,174 C393,174 392,173 392,173  Z"/>

<path  fill="#006400" stroke-width="0" stroke="#006400" d = " M159 261 L161,261 C161,260.601 171.468,261.016 173.5,260 173.5,260 174,256.5 174,256.5 174.616,255.268 178,253.718 178,251.5 178,249.146 171.698,249.599 170.5,249 170.5,249 162,241.5 162,241.5 157.949,233.397 167,228.447 167,221 167,218.823 166.359,217 169,217 169,217 171,216 171,216 171,212.356 172.541,211.418 174,208.5 174,208.5 173,204.5 173,204.5 175.758,198.984 177.26,192.979 180,187.5 181.125,185.249 178,179.203 178,176 175.291,176 173.354,176 170,176 163.815,176 159.258,181 153,181 153,181 147,182 147,182 147,184.026 138.437,189 137,189 137,189 137,190 137,190 137,190 136,191 136,191 136,191 135,193 135,193 135,193 135,194 135,194 135,194 134,195 134,195 134,195 133,196 133,196 133,196 132,197 132,197 132,197 131,199 131,199 131,209.486 120.14,218.779 126,230.5 126.619,231.738 124.856,236 127,236 127,236 135.5,245 135.5,245 135.5,245 140,244 140,244 147.641,244 155.833,261 159,261  Z"/>

<path  fill="#006400" stroke-width="0" stroke="#006400" d = " M331 252 C324.648,252 323.853,258 318,258 318,255.721 316,252.582 316,250.5 316,248.697 326,244.63 326,234 327.486,234 327.486,231 326,231 326,231 321,222 321,222 321,215.232 315.913,207.327 313,201.5 311.761,199.022 315,198.011 315,196.5 315,196.5 311,192.5 311,192.5 311,192.5 312,189.5 312,189.5 312,189.5 310,186.5 310,186.5 308.729,183.958 312,181.132 312,179 314.002,179 322.566,175.033 326.5,177 331.055,179.277 334.48,181 340,181 343.573,181 349.579,188.659 351,191.5 354.347,198.194 363.433,218.634 359,227.5 357.833,229.833 356,232.228 356,235 356,236.424 355.638,240 354,240 354,240 352,241 352,241 352,241 348,243 348,243 343.446,243 340.223,243.139 336.5,245 334.012,246.244 333.541,252 331,252  Z"/>

<path  fill="#022CFF" stroke-width="0" stroke="#022CFF" d = " M358 233 L356,235 C356,232.228 357.833,229.833 359,227.5 363.433,218.634 354.347,198.194 351,191.5 349.579,188.659 343.573,181 340,181 340,181 340,180 340,180 340,175.247 345.002,180.502 346,181.5 346,181.5 356,195.5 356,195.5 358.11,199.719 365.521,217.458 363,222.5 363,222.5 359,232 359,232 359,232 358,233 358,233  Z"/>

<path  fill="#022CFF" stroke-width="0" stroke="#022CFF" d = " M92 187 L93,187 C93,187 96,180 96,180 93.706,180 92,184.576 92,187  Z"/>

<path  fill="#022CFF" stroke-width="0" stroke="#022CFF" d = " M147 182 L143.5,181 L137,189 C138.437,189 147,184.026 147,182  Z"/>

<path  fill="#022CFF" stroke-width="0" stroke="#022CFF" d = " M90 193 L91,193 C91,193 92,190 92,190 92,190 92,189 92,189 89.891,189 90,191.535 90,193  Z"/>

<path  fill="#022CFF" stroke-width="0" stroke="#022CFF" d = " M137 190 L136,191 C136,191 137,190 137,190  Z"/>

<path  fill="#022CFF" stroke-width="0" stroke="#022CFF" d = " M134 194 L135,194 C135,194 135,193 135,193 135,193 134,194 134,194  Z"/>

<path  fill="#022CFF" stroke-width="0" stroke="#022CFF" d = " M133 195 L134,195 C134,195 134,194 134,194 134,194 133,195 133,195  Z"/>

<path  fill="#022CFF" stroke-width="0" stroke="#022CFF" d = " M88 197 L89,198 C90.5774,198 91,196.238 91,195 91,195 89,195 89,195 89,195 88,197 88,197  Z"/>

<path  fill="#022CFF" stroke-width="0" stroke="#022CFF" d = " M133 196 L132,197 C132,197 133,195 133,195 133,195 133,196 133,196  Z"/>

<path  fill="#022CFF" stroke-width="0" stroke="#022CFF" d = " M127 236 C127,237.137 129.091,240 127,240 127,236.553 121,229.575 121,224 121,222.625 121,221.375 121,220 121,220 121,218 121,218 122.473,218 122,216.048 122,215 122,215 123,212 123,212 125.109,212 125,209.465 125,208 125,208 126,206 126,206 126,206 127,205 127,205 127,202.98 129.189,199 131,199 131,209.486 120.14,218.779 126,230.5 126.619,231.738 124.856,236 127,236  Z"/>

<path  fill="#FF00DA" stroke-width="0" stroke="#FF00DA" d = " M228 213 C228,210.536 229.709,209.896 231.5,209 234.614,207.443 237.179,203.16 239.5,202 243.265,200.117 258.568,205.636 260,208.5 L260,213 C257.273,213 251.725,209 248,209 248,209 245,209 245,209 245,206.44 241.666,209 241,209 241,209 240,209 240,209 235.449,209 232.451,213 228,213  Z"/>

<path  fill="#022CFF" stroke-width="0" stroke="#022CFF" d = " M241 210 C241,218.374 242,228.445 242,237.5 L242.5,246 C245.084,247.292 245,239.933 245,238.5 L245,211 C245,211 245,209 245,209 245,206.44 241.666,209 241,209 241,209 241,210 241,210  Z"/>

<path  fill="#07FF59" stroke-width="0" stroke="#07FF59" d = " M264 224 C264,232.256 259.144,233.213 256,239.5 253.345,244.809 254.313,258.874 252,263.5 250.687,266.126 244.901,271.7 241.5,270 231.961,265.231 239.913,260.326 236,252.5 L231,248.5 L230,239.5 C227.521,234.542 222,230.899 222,225 222,225 228,213 228,213 232.451,213 235.449,209 240,209 240,209 241,210 241,210 241,218.374 242,228.445 242,237.5 242,237.5 242.5,246 242.5,246 245.084,247.292 245,239.933 245,238.5 245,238.5 245,211 245,211 246.238,211 248,210.577 248,209 251.725,209 257.273,213 260,213 260,216.444 264,219.931 264,224  Z"/>

<path  fill="#022CFF" stroke-width="0" stroke="#022CFF" d = " M85 212 L84,214 C84,214 83,212 83,212 83,212 85,212 85,212  Z"/>

<path  fill-rule="evenodd" fill="#9953FF" stroke-width="0" stroke="#9953FF" d = " M225 255 C225,256.564 224,258.876 224,261 224,275.971 242.564,255 225,255  M256 254 L254,259 C254,275.397 270.175,254 256,254  M297 249 L292.5,252 C289.542,253.479 277.034,263.767 281.5,266 283.788,267.144 285.876,263.812 287.5,263 L291.5,259 C294.242,257.629 297.81,257.345 300.5,256 308.626,251.937 303.431,249 297,249  M179 249 C179,256.12 193.583,261.042 199.5,264 L204.5,267 C207.509,265.495 201.346,258.846 199.5,257 193.577,251.077 187.796,249 179,249  M285 299 L283,300 C283,300 277,293.5 277,293.5 277,293.5 268.5,288 268.5,288 268.5,288 259.5,289 259.5,289 256.857,287.678 254.509,285.005 252.5,284 252.5,284 228.5,284 228.5,284 224.605,285.948 226.584,291.458 223.5,293 218.854,295.323 206,289.9 206,299 206,299 203.5,297 203.5,297 203.5,297 197,298 197,298 197,298 196,296 196,296 198.478,296 196.679,285.59 195.5,285 184.252,279.376 175.215,262 161,262 161,262 161,261 161,261 161,260.601 171.468,261.016 173.5,260 173.5,260 174,256.5 174,256.5 174.616,255.268 178,253.718 178,251.5 178,249.146 171.698,249.599 170.5,249 170.5,249 162,241.5 162,241.5 157.949,233.397 167,228.447 167,221 171.045,221 169,220.65 169,217 169,217 171,216 171,216 171,216 173,216 173,216 173,216 174,217 174,217 174,220.382 186.444,219 189,219 189,219 191.5,221 191.5,221 191.5,221 197.5,220 197.5,220 197.5,220 203.5,225 203.5,225 205.379,225.94 218.261,225 222,225 222,230.899 227.521,234.542 230,239.5 230,239.5 231,248.5 231,248.5 231,248.5 236,252.5 236,252.5 239.913,260.326 231.961,265.231 241.5,270 244.901,271.7 250.687,266.126 252,263.5 254.313,258.874 253.345,244.809 256,239.5 259.144,233.213 264,232.256 264,224 267.919,224 274.943,220.779 278.5,219 284.436,216.032 312.844,222 321,222 321,222 326,231 326,231 326,231 326,234 326,234 326,244.63 316,248.697 316,250.5 316,252.582 318,255.721 318,258 318,259.931 301.909,268.795 299.5,270 293.513,272.994 289.645,285.21 287,290.5 287,290.5 289,295 289,295 285.885,295 285,295.885 285,299  Z"/>

<path  fill="#DD6479" stroke-width="0" stroke="#DD6479" d = " M406 266 C406,267.882 412.745,268.877 414.5,268 L417.5,265 L423.5,268 C427.393,269.947 434.375,270 439,270 439,270 440,265.5 440,265.5 440,265.5 437,261.5 437,261.5 437,261.5 443,257.5 443,257.5 446.255,250.991 450,239.491 450,232 449.598,232 446.57,229.535 445.5,229 438.658,225.579 429.51,227.505 422.5,224 420.022,222.761 419.011,226 417.5,226 417.5,226 412,223 412,223 409.849,223 412.545,224.409 412,225.5 410.939,227.623 408.517,231.535 410,234.5 410.557,235.615 406,261.034 406,266  Z"/>

<path  fill="#DD6479" stroke-width="0" stroke="#DD6479" d = " M70 272 L66.5,269 C63.2889,269 47.7488,275 44,275 44,271.915 48.9071,266.314 48,264.5 46.8236,262.147 41.5628,262.626 40,259.5 36.1121,251.724 34,241.32 34,231 40.4408,231 41.6699,230.915 47.5,228 50.3121,226.594 54.5778,228.461 57.5,227 58.8171,226.341 65.9186,229 66.5,229 68.8716,229 73.0548,226 75,226 75,231.352 75.2392,250.978 77,254.5 79.1839,258.868 81,264.842 81,270 81,270 79,271 79,271 79,271 76,271 76,271 76,271 74,271 74,271 72.8548,271 70,270.421 70,272  Z"/>

<path  fill="#022CFF" stroke-width="0" stroke="#022CFF" d = " M352 241 L353,242 C353,242 354,240 354,240 354,240 352,241 352,241  Z"/>

<path  fill="#FF3427" stroke-width="0" stroke="#FF3427" d = " M314 296 L310.5,299 C306.894,300.803 297.472,303 293.5,303 L285,299 C285,295.885 285.885,295 289,295 291.203,295 293.569,298.465 296.5,297 299.085,295.708 302.012,295.244 304.5,294 307.125,292.688 314.329,281.086 316.5,280 319.31,278.595 323.168,278.164 325,274.5 326.903,270.695 331,255.699 331,252 333.541,252 334.012,246.244 336.5,245 340.223,243.139 343.446,243 348,243 348,243 349,248 349,248 349,248 349,249 349,249 343.541,249 341,255.391 341,260 341,260 340,262 340,262 340,262 339,263 339,263 337.265,263 336.255,267.245 335,268.5 331.309,272.191 328.257,277.985 326,282.5 324.981,284.539 322,284.219 322,287 322,287 321,288 321,288 321,288 318,293 318,293 318,293 317,294 317,294 315.762,294 314,294.423 314,296  Z"/>

<path  fill="#FF3427" stroke-width="0" stroke="#FF3427" d = " M172 298 C176.855,298 185.796,305.352 192.5,302 L197,298 C197,298 196,296 196,296 196,296 193.5,294 193.5,294 190.703,292.602 186.356,293.428 183.5,292 177.991,289.246 175.042,283.271 170.5,281 169.507,280.504 163.299,277.098 163,276.5 161.132,272.763 159,266.342 159,262 159,262 159,261 159,261 155.833,261 147.641,244 140,244 140,244 138,245.5 138,245.5 136.739,248.021 140.931,256.362 142,258.5 143.744,261.987 149,265.078 149,269 149,269 151,274 151,274 151,274 156,279 156,279 156,280.974 162.641,290 165,290 165,290 168,293 168,293 169.533,293 172,296.753 172,298  Z"/>

<path  fill="#D4FF00" stroke-width="0" stroke="#D4FF00" d = " M179 249 C179,256.12 193.583,261.042 199.5,264 L204.5,267 C207.509,265.495 201.346,258.846 199.5,257 193.577,251.077 187.796,249 179,249  Z"/>

<path  fill="#D4FF00" stroke-width="0" stroke="#D4FF00" d = " M297 249 L292.5,252 C289.542,253.479 277.034,263.767 281.5,266 283.788,267.144 285.876,263.812 287.5,263 L291.5,259 C294.242,257.629 297.81,257.345 300.5,256 308.626,251.937 303.431,249 297,249  Z"/>

<path  fill="#FFBA00" stroke-width="0" stroke="#FFBA00" d = " M318 258 C318,259.931 301.909,268.795 299.5,270 293.513,272.994 289.645,285.21 287,290.5 L289,295 C291.203,295 293.569,298.465 296.5,297 299.085,295.708 302.012,295.244 304.5,294 307.125,292.688 314.329,281.086 316.5,280 319.31,278.595 323.168,278.164 325,274.5 326.903,270.695 331,255.699 331,252 324.648,252 323.853,258 318,258  Z"/>

<path  fill="#F44345" stroke-width="0" stroke="#F44345" d = " M256 254 L254,259 C254,275.397 270.175,254 256,254  Z"/>

<path  fill="#F44345" stroke-width="0" stroke="#F44345" d = " M225 255 C225,256.564 224,258.876 224,261 224,275.971 242.564,255 225,255  Z"/>

<path  fill="#FFBA00" stroke-width="0" stroke="#FFBA00" d = " M161 262 C175.215,262 184.252,279.376 195.5,285 196.679,285.59 198.478,296 196,296 196,296 193.5,294 193.5,294 190.703,292.602 186.356,293.428 183.5,292 177.991,289.246 175.042,283.271 170.5,281 169.507,280.504 163.299,277.098 163,276.5 161.132,272.763 159,266.342 159,262 159,262 161,262 161,262  Z"/>

<path  fill="#2E8B57" stroke-width="0" stroke="#2E8B57" d = " M401 280 C401,284.023 409.653,283 413,283 L416.5,282 L419.5,286 L421.5,284 C425.567,284 429.988,287 435,287 435,286.701 439.357,281.787 440,280.5 441.489,277.523 439,272.454 439,270 434.375,270 427.393,269.947 423.5,268 423.5,268 417.5,265 417.5,265 417.5,265 414.5,268 414.5,268 412.745,268.877 406,267.882 406,266 402.481,266 403.93,272.641 403,274.5 402.011,276.478 400,276.523 400,279 400,279 401,280 401,280  Z"/>

<path  fill="#2E8B57" stroke-width="0" stroke="#2E8B57" d = " M44 275 C44,280.493 42.7991,291 50,291 50,291 64.5,289 64.5,289 64.5,289 67.5,285 67.5,285 67.5,285 71.5,286 71.5,286 74.385,284.557 72.5907,272 70,272 70,272 66.5,269 66.5,269 63.2889,269 47.7488,275 44,275  Z"/>

<path  fill="#2E8B57" stroke-width="0" stroke="#2E8B57" d = " M79 271 L81,273 C81,273 81,270 81,270 81,270 79,271 79,271  Z"/>

<path  fill="#03C12D" stroke-width="0" stroke="#03C12D" d = " M157 322 C154.273,322 154.958,324.771 152.5,326 L147.5,325 L144.5,329 C141.908,330.296 138.248,329.626 135.5,331 133.208,332.146 134.558,335 130,335 121.529,335 113.554,338 105,338 105,338 94.5,336 94.5,336 86.4673,340.016 67.64,338.78 63,329.5 63,329.5 57,319.5 57,319.5 57,319.5 54,307.5 54,307.5 51.7996,303.099 50,296.124 50,291 50,291 64.5,289 64.5,289 64.5,289 67.5,285 67.5,285 67.5,285 71.5,286 71.5,286 74.385,284.557 72.5907,272 70,272 70,270.421 72.8548,271 74,271 74,272.399 76,272.399 76,271 76,271 79,271 79,271 79,271 81,273 81,273 83.341,273 82.4208,275.342 83,276.5 85.1603,280.821 90.1804,283.861 92,287.5 92.719,288.938 99,290.295 99,290 99,290 101,291 101,291 101,291 103,292 103,292 113.3,292 121.796,300 134,300 134,305.9 149.981,304 153,304 159.033,304 164,307.806 164,314 160.154,314 157,318.398 157,322  Z"/>

<path  fill="#2E8B57" stroke-width="0" stroke="#2E8B57" d = " M74 271 L76,271 C76,272.399 74,272.399 74,271  Z"/>

<path  fill="#03C12D" stroke-width="0" stroke="#03C12D" d = " M331 303 C331,308.48 322,301.299 322,304 322,304 331.5,315 331.5,315 334.173,316.336 337.916,315.708 340.5,317 342.317,317.908 352.47,328.485 357.5,331 360.289,332.395 368.937,335.781 372.5,334 372.5,334 382.5,331 382.5,331 382.5,331 387.5,335 387.5,335 391.44,336.97 399.291,338.104 403.5,336 408.454,333.523 414.381,332.56 419.5,330 430.184,324.658 435,298.034 435,287 429.988,287 425.567,284 421.5,284 421.5,284 419.5,286 419.5,286 419.5,286 416.5,282 416.5,282 416.5,282 413,283 413,283 409.653,283 401,284.023 401,280 400.161,280 399,281.93 399,280 399,280 397,280 397,280 394.385,280 388.112,286.694 385.5,288 382.711,289.395 351.209,299 349,299 344.807,299 340.276,304 336.5,304 334.847,304 332.8,303 331,303  Z"/>

<path  fill-rule="evenodd" fill="#E278A1" stroke-width="0" stroke="#E278A1" d = " M252 300 L251,304 C251,317.632 261.968,300 252,300  M233 299 C233,300.833 233.027,302.445 232,304.5 L234.5,307 C236.338,306.081 234,304.172 234,303.5 L237,301.5 C237,299.381 234.685,299 233,299  M239 330 L239,331 C239,333.09 232.658,329.579 231.5,329 231.5,329 217.5,329 217.5,329 217.5,329 215.5,326 215.5,326 199.467,317.984 206,312.329 206,299 206,289.9 218.854,295.323 223.5,293 226.584,291.458 224.605,285.948 228.5,284 228.5,284 252.5,284 252.5,284 254.509,285.005 256.857,287.678 259.5,289 259.5,289 268.5,288 268.5,288 268.5,288 277,293.5 277,293.5 277,293.5 283,300 283,300 283,300 281,302.5 281,302.5 281,302.5 283,303.5 283,303.5 284.028,305.556 282.792,309.916 282,311.5 282,311.5 282,315.5 282,315.5 278.902,321.695 271.295,321.602 266.5,324 266.5,324 261.5,329 261.5,329 261.5,329 254.5,329 254.5,329 253.556,329.472 248,333.558 248,331 248,322.87 239,324.981 239,328 237.601,328 237.601,330 239,330  Z"/>

<path  fill="#DDD951" stroke-width="0" stroke="#DDD951" d = " M349 299 C344.807,299 340.276,304 336.5,304 334.847,304 332.8,303 331,303 331,298.108 349,289.247 349,299  Z"/>

<path  fill="#DDD951" stroke-width="0" stroke="#DDD951" d = " M134 300 C134,305.9 149.981,304 153,304 153,296.088 134,295.259 134,300  Z"/>

<path  fill="#EEBA00" stroke-width="0" stroke="#EEBA00" d = " M233 299 C233,300.833 233.027,302.445 232,304.5 L234.5,307 C236.338,306.081 234,304.172 234,303.5 L237,301.5 C237,299.381 234.685,299 233,299  Z"/>

<path  fill="#EEBA00" stroke-width="0" stroke="#EEBA00" d = " M252 300 L251,304 C251,317.632 261.968,300 252,300  Z"/>

<path  fill-rule="evenodd" fill="#FA8072" stroke-width="0" stroke="#FA8072" d = " M337 336 C337,342.072 341.238,336 337,336  M319 314 C319,323.294 310.62,323.94 304.5,327 301.922,328.289 306.956,331.587 306,333.5 L303,336.5 C302.174,338.153 303.405,340.31 304,341.5 L303,349.5 C306.827,357.154 323.201,359.65 330.5,356 L333.5,359 L336.5,357 L342.5,358 C344.198,357.151 342,356.151 342,355.5 L345,353.5 C347.098,351.402 345.946,350.608 347,348.5 L352.5,347 C354.482,346.009 354.152,342.197 355,340.5 356.826,336.849 346.507,325.503 343.5,324 340.732,322.616 337.697,326.893 336,323.5 334.575,320.649 333.125,320.312 330.5,319 327.265,317.382 330.821,316.143 330,314.5 L319,314  Z"/>

<path  fill-rule="evenodd" fill="#FA8072" stroke-width="0" stroke="#FA8072" d = " M161 346 C161,348.112 166.567,346 161,346  M157 322 C160.35,322 164.616,316.558 169.5,319 173.272,320.886 186.202,331.904 188,335.5 189.29,338.08 184.897,339.705 184,341.5 182.664,344.171 182.446,352.527 179.5,354 174.55,356.475 172.946,353.723 169.5,352 168.067,351.284 167.143,346.179 165.5,347 163.888,347.806 165.111,352.694 162.5,354 L151.5,354 L148.5,355 L144.5,350 L131.5,349 L128.5,345 C126.845,344.173 125.191,345.882 124,343.5 120.701,336.902 130,339.262 130,335 134.558,335 133.208,332.146 135.5,331 138.248,329.626 141.908,330.296 144.5,329 144.5,329 147.5,325 147.5,325 147.5,325 152.5,326 152.5,326 154.958,324.771 154.273,322 157,322  Z"/>

<path  fill="#022CFF" stroke-width="0" stroke="#022CFF" d = " M239 331 C241.908,331 245.092,331 248,331 248,322.87 239,324.981 239,328 239,328 239,330 239,330 239,330 239,331 239,331  Z"/>

</g>
</svg>
