<svg xmlns="http://www.w3.org/2000/svg" xmlns:xlink="http://www.w3.org/1999/xlink" height="512" width="512">
<g>
<rect width="512" height="512" fill="#000000"  stroke-width="0" /> 
<path  fill-rule="evenodd" fill="#FA8072" stroke-width="0" stroke="#FA8072" d = " M329 380 C329,384.123 333.123,380 329,380  M328 350 C328,359.382 325.366,383.232 329,390.5 331.045,394.591 334.575,392.537 337.5,394 L338,398.5 C340.212,402.923 348.211,405.077 351,399.5 353.099,395.301 352.893,380.196 348.5,378 346.67,377.085 340.179,378.858 340,378.5 L340,369.5 L336,365.5 L335.5,359 L330.5,360 C329.533,359.517 336.848,350 328,350  Z"/>

<path  fill="#FA8072" stroke-width="0" stroke="#FA8072" d = " M158 353 C158,356.294 151.498,358.497 154,363.5 161.591,378.682 182.318,353 158,353  Z"/>

<path  fill="#FA8072" stroke-width="0" stroke="#FA8072" d = " M154 369 L152,373 C152,384.006 166.183,369 154,369  Z"/>

<path  fill="#FA8072" stroke-width="0" stroke="#FA8072" d = " M155 380 C155,387.013 143.583,382.459 140.5,384 L136.5,387 L132.5,384 C129.879,382.69 124.69,387.879 126,390.5 L130.5,395 C132.052,395.776 134.959,392.418 136,394.5 137.049,396.599 141.707,408.104 143.5,409 145.038,409.769 147.371,407.758 148,406.5 L148,402.5 L153,397.5 L153,394.5 L158,390.5 C159.147,388.205 158.258,380 155,380  Z"/>

</g>
</svg>
