<svg xmlns="http://www.w3.org/2000/svg" xmlns:xlink="http://www.w3.org/1999/xlink" height="512" width="512">
<g>
<rect width="512" height="512" fill="#000000"  stroke-width="0" /> 
<path  fill="#03C12D" stroke-width="0" stroke="#03C12D" d = " M142 329 C138.41,329 137.227,337.863 131.5,335 128.163,333.332 126.502,330.501 123.5,329 115.051,324.775 106.045,322.273 97.5,318 94.3113,316.406 91.3892,310.278 90,307.5 L84,302.5 L82,295.5 L83,288.5 C81.8934,286.287 75.3834,287.267 74,284.5 L73,274.5 C70.4542,269.408 66.4899,265.48 64,260.5 63.5372,259.574 61.7308,252.038 62,251.5 62.4987,250.503 65.1288,250.758 64,248.5 61.1454,242.791 63,236.115 63,229 63,211.199 60.4831,193.534 68,178.5 L70,164.5 C74.2749,155.95 79.7278,148.044 84,139.5 93.5328,120.434 133.586,109.457 150.5,101 155.449,98.5255 163.568,101.466 168.5,99 179.906,93.2969 219.505,90.0027 231.5,96 L239.5,104 L250.5,95 C253.598,93.4512 280.233,88.3666 283.5,90 289.522,93.0109 296.4,93.9501 302.5,97 304.784,98.1418 314.314,95.9071 318.5,98 L331.5,98 C334.001,99.2503 337.158,98.8288 339.5,100 L344.5,104 L357.5,105 C370.501,111.5 397.063,124.626 404,138.5 L411,145.5 C412.782,149.064 416.174,151.849 418,155.5 419.55,158.599 418.437,163.375 420,166.5 428.717,183.934 429,206.114 429,226 429,238.184 429.03,250.441 424,260.5 L424,265.5 C421.043,271.415 416.986,276.529 414,282.5 L415,286.5 C413.203,290.095 412.761,293.978 411,297.5 407.957,303.587 384.816,325.842 378.5,329 375.499,330.501 358.972,333 355,333 355,331.232 361.785,314.93 363,312.5 363,312.5 360,298.5 360,298.5 360,298.5 355,294 355,294 355,292.053 358,291.364 358,289 358,289 359,288 359,288 359,288 360,287 360,287 360,287 361,286 361,286 361,286 365,282.5 365,282.5 367.664,277.172 374,271.257 374,265 374,265 375,264 375,264 375,264 379,255.5 379,255.5 379.653,254.195 378.997,252 380,252 384.606,252 385,237.979 385,234 385,226.999 384.784,214.068 382,208.5 380.577,205.654 376.78,202.06 375,198.5 373.496,195.492 372.635,189.77 371,186.5 371,186.5 365,181.5 365,181.5 365,181.5 365,177.5 365,177.5 364.229,175.957 359.147,175.794 358,173.5 355.546,168.593 352.236,169.368 347.5,167 347.5,167 344.5,162 344.5,162 337.273,158.387 326.046,157.273 317.5,153 312.802,150.651 305.162,153.331 300.5,151 297.21,149.355 292.765,150.632 289.5,149 287.471,147.986 287.229,146 285,146 285,144.814 284,144.814 284,146 280.88,146 277.12,146 274,146 274,146 270,142 270,142 270,140.423 268.238,140 267,140 260.282,140 246.556,122.472 239.5,126 239.5,126 223.5,138 223.5,138 220.385,139.558 211,144.792 211,149 208.979,149 207.106,144.697 204.5,146 198.978,148.761 190.713,146.893 186.5,149 186.5,149 183.5,152 183.5,152 181.583,152 177.057,150.721 174.5,152 163.845,157.327 152.085,159.707 141.5,165 141.5,165 130,177.5 130,177.5 125.481,182.019 120.87,185.761 118,191.5 114.371,198.757 111.617,206.266 108,213.5 104.603,220.295 108.885,231.729 106,237.5 104.604,240.291 107.412,255 111,255 111,264.056 117.712,275.212 123.5,281 123.5,281 130,288 130,288 130,290.777 133.831,292.162 135,294.5 135,294.5 133,296.5 133,296.5 133,296.5 134,299 134,299 134,299 134,304.5 134,304.5 135.38,307.26 142,326.804 142,329  Z"/>

<path  fill="#1D68EB" stroke-width="0" stroke="#1D68EB" d = " M238 171 C238,158.659 251,169.582 251,171 259.309,171 267.333,164.834 271,157.5 271,157.5 271,153.5 271,153.5 271,153.5 274,146 274,146 274,146 270,142 270,142 270,142 267,140 267,140 260.282,140 246.556,122.472 239.5,126 239.5,126 223.5,138 223.5,138 220.385,139.558 211,144.792 211,149 211,149 214,155.5 214,155.5 214,155.5 214,159.5 214,159.5 217.71,166.919 230.01,171 238,171  Z"/>

<path  fill="#FF6E00" stroke-width="0" stroke="#FF6E00" d = " M119 202 L116,205.5 C113.137,211.227 113.894,218.711 111,224.5 L112,229.5 C108.161,237.177 111,246.86 111,255 107.412,255 104.604,240.291 106,237.5 108.885,231.729 104.603,220.295 108,213.5 111.617,206.266 114.371,198.757 118,191.5 120.87,185.761 125.481,182.019 130,177.5 130,177.5 141.5,165 141.5,165 152.085,159.707 163.845,157.327 174.5,152 177.057,150.721 181.583,152 183.5,152 183.5,152 186.5,149 186.5,149 190.713,146.893 198.978,148.761 204.5,146 207.106,144.697 208.979,149 211,149 211,149 214,155.5 214,155.5 214,155.5 214,159.5 214,159.5 217.71,166.919 230.01,171 238,171 241.686,171 247.257,171 251,171 259.309,171 267.333,164.834 271,157.5 271,157.5 271,153.5 271,153.5 271,153.5 274,146 274,146 277.12,146 280.88,146 284,146 284,146 285,146 285,146 287.229,146 287.471,147.986 289.5,149 292.765,150.632 297.21,149.355 300.5,151 305.162,153.331 312.802,150.651 317.5,153 326.046,157.273 337.273,158.387 344.5,162 344.5,162 347.5,167 347.5,167 352.236,169.368 355.546,168.593 358,173.5 359.147,175.794 364.229,175.957 365,177.5 365,177.5 365,181.5 365,181.5 365,181.5 371,186.5 371,186.5 372.635,189.77 373.496,195.492 375,198.5 376.78,202.06 380.577,205.654 382,208.5 384.784,214.068 385,226.999 385,234 385,237.979 384.606,252 380,252 380,241.387 381.423,229.346 377,220.5 377,220.5 378,214.5 378,214.5 378,214.5 373,207.5 373,207.5 370.869,203.238 372.524,198.512 367.5,196 366.156,195.328 361.816,185 360,185 360,185 358,183 358,183 358,183 357,181 357,181 357,181 356,180 356,180 349.606,180 347.764,172 341,172 341,169.806 337.07,169 335,169 335,169 334,169 334,169 334,169 330,167 330,167 327.872,167 324.392,165.946 322.5,165 322.5,165 306,165 306,165 302.693,165 290,164.674 290,167 284.162,167 273.28,177 269,177 264.442,177 258.471,181.014 254.5,183 252.225,184.137 248.883,182.808 246.5,184 240.978,186.761 225.699,180 220,180 220,180 219,179 219,179 219,175.156 212.546,175.023 210.5,174 208.855,173.177 197.974,163.552 196,167.5 195.407,168.687 198,169.236 198,171 191.116,171 187.095,168.798 181.5,166 177.901,164.201 171.144,167 168,167 154.205,167 120,185.413 120,201 120,201 119,202 119,202  Z"/>

<path  fill="#814FFF" stroke-width="0" stroke="#814FFF" d = " M358 289 L352,292 C346.448,292 337.343,289.422 332.5,287 331.237,286.368 322,280.515 322,283 322,283 321,283 321,283 321,281.452 317.657,278 316,278 316,278 313,278 313,278 313,278 312,277 312,277 310.713,277 308.363,273 306,273 306,269.907 295,266.556 295,260 295,260 296,259 296,259 296,256.877 293,252.6 293,250 293,250 293,246 293,246 293,244.697 293.243,233.986 293,233.5 290.376,228.252 289,236.05 289,238 286.236,238 285,229.239 285,227 285,227 285,200.5 285,200.5 285,200.5 281,187.5 281,187.5 281.946,185.607 291,169.15 291,169 295.58,169 298.777,167.862 302.5,166 303.546,165.477 306,166.951 306,165 306,165 322.5,165 322.5,165 324.392,165.946 327.872,167 330,167 330,167 334,169 334,169 334,169 335,169 335,169 335,170.89 339.598,172 341,172 347.764,172 349.606,180 356,180 356,180 357,181 357,181 357,181 358,183 358,183 358,184.747 358.253,185 360,185 361.816,185 366.156,195.328 367.5,196 372.524,198.512 370.869,203.238 373,207.5 373,207.5 378,214.5 378,214.5 378,214.5 377,220.5 377,220.5 381.423,229.346 380,241.387 380,252 378.997,252 379.653,254.195 379,255.5 379,255.5 375,264 375,264 375,264 374,265 374,265 374,271.257 367.664,277.172 365,282.5 365,282.5 361,286 361,286 361,286 360,287 360,287 360,287 359,288 359,288 359,288 358,289 358,289  Z"/>

<path  fill-rule="evenodd" fill="#814FFF" stroke-width="0" stroke="#814FFF" d = " M191 233 L192,236.5 L193,240.5 C194.865,244.23 199.153,233 191,233  M194 260 C194,266.188 186.449,267.051 183,270.5 180.665,272.835 177.237,272.631 174.5,274 L170.5,279 C165.872,281.314 147.324,293 143.5,293 139.503,293 132.274,288 130,288 130,288 123.5,281 123.5,281 117.712,275.212 111,264.056 111,255 111,246.86 108.161,237.177 112,229.5 112,229.5 111,224.5 111,224.5 113.894,218.711 113.137,211.227 116,205.5 116,205.5 119,202 119,202 119,202 120,201 120,201 120,185.413 154.205,167 168,167 171.144,167 177.901,164.201 181.5,166 187.095,168.798 191.116,171 198,171 202.652,171 206,191.558 206,196 206,196 205,198 205,198 205,198 203,210 203,210 201.527,210 202,211.952 202,213 202,213 202,215 202,215 200.514,215 200.514,218 202,218 202,218 203,227 203,227 201.601,227 201.601,229 203,229 203,229 203,230 203,230 203,230 201,232.5 201,232.5 201,232.5 202,237.5 202,237.5 202,237.5 200,244 200,244 198.268,244 197,249.353 197,251 195.408,251 194,258.662 194,260  Z"/>

<path  fill="#022CFF" stroke-width="0" stroke="#022CFF" d = " M206 245 L207,245 C207,245 209,244 209,244 209,244 206,237.5 206,237.5 204.086,233.671 204.064,203.373 206,199.5 207.725,196.05 208.267,191.967 210,188.5 211.713,185.074 219,183.383 219,180 219,180 219,179 219,179 219,175.156 212.546,175.023 210.5,174 208.855,173.177 197.974,163.552 196,167.5 195.407,168.687 198,169.236 198,171 202.652,171 206,191.558 206,196 206,196 205,198 205,198 205,198 203,210 203,210 203,211.048 203.473,213 202,213 202,213 202,215 202,215 202,215 202,218 202,218 202,218 203,227 203,227 203,227 203,229 203,229 203,229 203,230 203,230 203,234.234 206,242.048 206,245  Z"/>

<path  fill="#022CFF" stroke-width="0" stroke="#022CFF" d = " M278 243 L280,243 C280,241.543 283,241.54 283,239 283,237.504 283.988,227 285,227 285,227 285,200.5 285,200.5 285,200.5 281,187.5 281,187.5 281.946,185.607 291,169.15 291,169 291,169 290,167 290,167 284.162,167 273.28,177 269,177 269,177 277,184.5 277,184.5 279.132,188.764 279.916,193.331 282,197.5 284.453,202.405 283.274,229.953 281,234.5 279.558,237.384 278,239.439 278,243  Z"/>

<path  fill-rule="evenodd" fill="#FF0800" stroke-width="0" stroke="#FF0800" d = " M233 199 C233,201.063 227.044,203.411 226,205.5 225.133,207.233 227.372,209.244 228,210.5 229.227,212.955 226.374,218.437 229.5,220 233.086,221.793 233.601,213.95 235.5,213 239.102,211.199 243.184,200.342 240.5,199 L233,199  M217 252 C218.048,252 220,251.527 220,253 220,253 229.5,257 229.5,257 231.094,257.797 252.211,258.645 253.5,258 253.5,258 259.5,254 259.5,254 259.5,254 269.5,253 269.5,253 269.5,253 273,250 273,250 273,250 274,249 274,249 274,249 275,248 275,248 275,248 276,247 276,247 276,247 277,246 277,246 277,244.952 276.527,243 278,243 278,239.439 279.558,237.384 281,234.5 283.274,229.953 284.453,202.405 282,197.5 279.916,193.331 279.132,188.764 277,184.5 277,184.5 269,177 269,177 264.442,177 258.471,181.014 254.5,183 252.225,184.137 248.883,182.808 246.5,184 240.978,186.761 225.699,180 220,180 220,180 219,180 219,180 219,183.383 211.713,185.074 210,188.5 208.267,191.967 207.725,196.05 206,199.5 204.064,203.373 204.086,233.671 206,237.5 206,237.5 209,244 209,244 209,244 210,247 210,247 211.294,247 217,250.609 217,252  M246 204 C241.782,204 240.403,222.306 242,225.5 242.977,227.454 244.725,224.388 245.5,224 248.381,222.559 248,221.27 248,218 L248,211 C252.8,211 251.438,219 254.5,219 263.404,219 265.308,203.904 255.5,199 252.183,197.342 246,200.623 246,204  Z"/>

<path  fill="#FF0800" stroke-width="0" stroke="#FF0800" d = " M206 196 L205,198 C205,198 206,196 206,196  Z"/>

<path  fill="#00FF1D" stroke-width="0" stroke="#00FF1D" d = " M233 199 C233,201.063 227.044,203.411 226,205.5 225.133,207.233 227.372,209.244 228,210.5 229.227,212.955 226.374,218.437 229.5,220 233.086,221.793 233.601,213.95 235.5,213 239.102,211.199 243.184,200.342 240.5,199 L233,199  Z"/>

<path  fill="#00FF1D" stroke-width="0" stroke="#00FF1D" d = " M246 204 C246.682,204 248,210.241 248,211 252.8,211 251.438,219 254.5,219 263.404,219 265.308,203.904 255.5,199 252.183,197.342 246,200.623 246,204  Z"/>

<path  fill="#15C0FF" stroke-width="0" stroke="#15C0FF" d = " M246 204 C246.682,204 248,210.241 248,211 248,211 248,218 248,218 248,221.27 248.381,222.559 245.5,224 244.725,224.388 242.977,227.454 242,225.5 240.403,222.306 241.782,204 246,204  Z"/>

<path  fill="#FF3427" stroke-width="0" stroke="#FF3427" d = " M289 246 C290.905,246 291.467,246 293,246 293,244.697 293.243,233.986 293,233.5 290.376,228.252 289,236.05 289,238 289,238 289,244 289,244 289,244 289,246 289,246  Z"/>

<path  fill="#FF3427" stroke-width="0" stroke="#FF3427" d = " M191 233 L192,236.5 L193,240.5 C194.865,244.23 199.153,233 191,233  Z"/>

<path  fill-rule="evenodd" fill="#0008B6" stroke-width="0" stroke="#0008B6" d = " M282 256 C282,259.746 284.091,256 282,256  M273 250 C273,253.256 279.029,257.765 281.5,259 L284.5,262 C290.287,259.107 280.431,252 289,252 289,252 290,249 290,249 289.187,249 287.272,246 289,246 289,246 289,244 289,244 286.908,244 288.832,239 283,239 283,241.54 280,241.543 280,243 280,243 278,246 278,246 278,246 276,247 276,247 276,247 275,248 275,248 275,248 274,249 274,249 274,249 273,250 273,250  Z"/>

<path  fill="#0008B6" stroke-width="0" stroke="#0008B6" d = " M207 264 L208,264 C208,264 209,263 209,263 209,263 209,262 209,262 209,259.151 215.402,257.304 214,254.5 212.832,252.164 208,250.761 208,247 208,247 207,245 207,245 207,245 206,245 206,245 206,245 204.5,243 204.5,243 204.5,243 200,244 200,244 198.268,244 197,249.353 197,251 199.558,251 197,258.758 197,260 197,270.863 199.88,264 207,264  Z"/>

<path  fill="#E1F00D" stroke-width="0" stroke="#E1F00D" d = " M278 246 L276,247 C276,247 277,246 277,246 277,246 278,246 278,246  Z"/>

<path  fill="#E1F00D" stroke-width="0" stroke="#E1F00D" d = " M217 260 L209,262 C209,259.151 215.402,257.304 214,254.5 212.832,252.164 208,250.761 208,247 208,247 210,247 210,247 211.294,247 217,250.609 217,252 217,254.522 217,256.909 217,260  Z"/>

<path  fill="#E1F00D" stroke-width="0" stroke="#E1F00D" d = " M275 248 L274,249 C274,249 275,248 275,248  Z"/>

<path  fill="#E1F00D" stroke-width="0" stroke="#E1F00D" d = " M274 249 L273,250 C273,250 274,249 274,249  Z"/>

<path  fill="#FF3427" stroke-width="0" stroke="#FF3427" d = " M296 259 L295,260 C292.276,260 289,255.926 289,252 289,252 290,249 290,249 290,249 293,250 293,250 293,252.6 296,256.877 296,259  Z"/>

<path  fill-rule="evenodd" fill="#E1F00D" stroke-width="0" stroke="#E1F00D" d = " M243 259 L242.5,265 C243.021,265.521 240.025,275.238 244.5,273 246.937,271.781 247.353,259 243,259  M245 319 C249.507,319 253.73,322.115 257.5,324 263.5,327 273.394,321.947 279.5,325 284.285,327.393 280.727,336.114 284.5,338 L292.5,343 C296.104,344.802 300.835,344.168 304.5,346 311.301,349.401 339.881,343.31 344.5,341 L355,333 C355,331.232 361.785,314.93 363,312.5 363,312.5 360,298.5 360,298.5 360,298.5 355,294 355,294 355,294 352,292 352,292 346.448,292 337.343,289.422 332.5,287 331.237,286.368 322,280.515 322,283 322,286.813 325.284,283.892 327.5,285 327.5,285 329.5,288 329.5,288 330.328,288.414 335.418,287.663 334,290.5 334,290.5 321.5,289 321.5,289 318.69,287.595 315.179,287.34 312.5,286 300.18,279.84 296.504,275 281,275 264.596,275 270.291,275.895 256.5,269 255.507,268.503 248.194,269.113 250,265.5 252.337,260.826 278,254.791 278,263 285.392,263 296.659,273 306,273 306,269.907 295,266.556 295,260 292.276,260 289,255.926 289,252 280.431,252 290.287,259.107 284.5,262 284.5,262 281.5,259 281.5,259 279.029,257.765 273,253.256 273,250 273,250 269.5,253 269.5,253 269.5,253 259.5,254 259.5,254 259.5,254 253.5,258 253.5,258 252.211,258.645 231.094,257.797 229.5,257 229.5,257 220,253 220,253 220,253 220,259 220,259 223.47,259 238.139,262.221 235,268.5 233.555,271.39 226.09,272.705 223.5,274 223.5,274 219.5,278 219.5,278 215.79,279.855 212.72,275 210,275 193.125,275 182.694,282.403 169.5,289 165.907,290.797 162.163,292.168 158.5,294 158.5,294 155,293.5 155,293.5 153.971,291.441 164.136,286.682 165.5,286 173.825,281.838 180.014,276.243 188.5,272 191.076,270.712 194.801,271.35 197.5,270 197.5,270 207,264 207,264 199.88,264 197,270.863 197,260 197,260 194,260 194,260 194,266.188 186.449,267.051 183,270.5 180.665,272.835 177.237,272.631 174.5,274 174.5,274 170.5,279 170.5,279 165.872,281.314 147.324,293 143.5,293 139.503,293 132.274,288 130,288 130,290.777 133.831,292.162 135,294.5 135,294.5 133,296.5 133,296.5 133,296.5 134,299 134,299 134,299 134,304.5 134,304.5 135.38,307.26 142,326.804 142,329 142,331.996 140.24,340.37 141.5,341 144.331,342.415 148.074,337.287 151.5,339 151.5,339 156.5,345 156.5,345 156.5,345 163.5,348 163.5,348 167.02,349.76 173.86,347.32 176.5,346 176.5,346 182.5,345 182.5,345 187.241,342.629 191.843,340.328 196.5,338 202.481,335.01 202.744,326.378 209.5,323 211.894,321.803 225.094,328.703 230.5,326 233.735,324.383 239.414,319 243,319 243,314.89 240.306,289.097 242.5,288 245.97,286.265 245,292.775 245,294.5 245,294.5 245,319 245,319  Z"/>

<path  fill="#0008B6" stroke-width="0" stroke="#0008B6" d = " M220 259 L217,260 C217,256.909 217,254.522 217,252 218.048,252 220,251.527 220,253 220,253 220,259 220,259  Z"/>

<path  fill="#E1F00D" stroke-width="0" stroke="#E1F00D" d = " M282 256 C282,259.746 284.091,256 282,256  Z"/>

<path  fill="#7CFC00" stroke-width="0" stroke="#7CFC00" d = " M209 264 L211,266.5 L210,275 C212.72,275 215.79,279.855 219.5,278 219.5,278 223.5,274 223.5,274 226.09,272.705 233.555,271.39 235,268.5 238.139,262.221 223.47,259 220,259 220,259 217,260 217,260 217,260 209,262 209,262 209,262 209,263 209,263 209,263 209,264 209,264  Z"/>

<path  fill="#022CFF" stroke-width="0" stroke="#022CFF" d = " M243 259 L242.5,265 C243.021,265.521 240.025,275.238 244.5,273 246.937,271.781 247.353,259 243,259  Z"/>

<path  fill="#7CFC00" stroke-width="0" stroke="#7CFC00" d = " M278 263 C273.698,263 281.682,270.863 282,271.5 L281,275 C264.596,275 270.291,275.895 256.5,269 255.507,268.503 248.194,269.113 250,265.5 252.337,260.826 278,254.791 278,263  Z"/>

<path  fill="#E1F00D" stroke-width="0" stroke="#E1F00D" d = " M208 264 L209,264 C209,264 209,263 209,263 209,263 208,264 208,264  Z"/>

<path  fill="#FFBB00" stroke-width="0" stroke="#FFBB00" d = " M321 283 L322,283 C322,286.813 325.284,283.892 327.5,285 327.5,285 329.5,288 329.5,288 330.328,288.414 335.418,287.663 334,290.5 334,290.5 321.5,289 321.5,289 318.69,287.595 315.179,287.34 312.5,286 300.18,279.84 296.504,275 281,275 281,275 282,271.5 282,271.5 281.682,270.863 273.698,263 278,263 285.392,263 296.659,273 306,273 308.363,273 310.713,277 312,277 312,277 313,278 313,278 313,278 316,278 316,278 316,279.925 319.075,283 321,283  Z"/>

<path  fill="#FFBB00" stroke-width="0" stroke="#FFBB00" d = " M209 264 L211,266.5 L210,275 C193.125,275 182.694,282.403 169.5,289 165.907,290.797 162.163,292.168 158.5,294 158.5,294 155,293.5 155,293.5 153.971,291.441 164.136,286.682 165.5,286 173.825,281.838 180.014,276.243 188.5,272 191.076,270.712 194.801,271.35 197.5,270 197.5,270 207,264 207,264 207,264 208,264 208,264 208,264 209,264 209,264  Z"/>

<path  fill="#E1F00D" stroke-width="0" stroke="#E1F00D" d = " M312 277 L313,278 C313,278 312,277 312,277  Z"/>

<path  fill="#E1F00D" stroke-width="0" stroke="#E1F00D" d = " M316 278 C317.657,278 321,281.452 321,283 319.075,283 316,279.925 316,278  Z"/>

<path  fill="#022CFF" stroke-width="0" stroke="#022CFF" d = " M243 319 L245,319 C245,319 245,294.5 245,294.5 245,292.775 245.97,286.265 242.5,288 240.306,289.097 243,314.89 243,319  Z"/>

<path  fill="#267EFF" stroke-width="0" stroke="#267EFF" d = " M239 324 C239,325.584 234.027,329 232,329 230.889,329 227,328.545 227,330.5 L229,332.5 L229.5,337 L258.5,337 C260.131,336.185 267.631,333.762 266,330.5 264.999,328.497 259.331,327.916 257.5,327 254.867,325.684 253.235,324 250,324 246.622,324 243.078,324 239,324  Z"/>

<path  fill="#FA8072" stroke-width="0" stroke="#FA8072" d = " M114 341 C114,341.547 111.403,346 114.5,346 120.32,346 126.125,354.312 131.5,357 132.821,357.66 133.505,362.498 136.5,361 139.98,359.26 139.98,353.74 136.5,352 L131.5,351 C129.322,349.911 130.453,345.477 127.5,344 L120.5,345 L114,341  Z"/>

<path  fill="#FA8072" stroke-width="0" stroke="#FA8072" d = " M362 342 C362,344.912 348.028,358.264 355.5,362 363.511,366.006 361.367,356.767 363,353.5 364.593,350.314 371.251,348.751 366.5,344 364.833,342.333 364.312,342 362,342  Z"/>

<path  fill="#FA8072" stroke-width="0" stroke="#FA8072" d = " M298 347 C298,348.377 290.302,352.897 289,355.5 287.865,357.77 291.576,365 291.5,365 287.455,365 284.484,360.532 281,367.5 L281,384.5 C283.033,388.566 286.554,387.527 289.5,389 290.924,389.712 293.035,394 295.5,394 L299.5,390 L301.5,391 L304.5,387 C307.697,385.402 314.072,383.355 316,379.5 317.116,377.268 315,374.103 315,372.5 L319,369.5 C319.718,368.064 322.786,358.072 322,356.5 320.22,352.939 302.472,347 298,347  Z"/>

<path  fill="#FA8072" stroke-width="0" stroke="#FA8072" d = " M182 351 C182,355.477 164.795,358.091 168,364.5 169.055,366.61 172.406,366.312 173,367.5 174.025,369.55 172.529,371.515 175.5,373 177.155,373.827 178.809,372.118 180,374.5 181.347,377.193 176.193,380.886 178,384.5 179.971,388.441 182.758,385.629 185.5,387 L186,392.5 C187.847,396.194 198.436,395.532 201.5,394 L202.5,391 C205.009,389.745 206.372,397.756 209,392.5 210.795,388.911 210.137,370.775 208,366.5 206.724,363.948 199.852,365.205 199,363.5 193.72,352.94 194.959,351 182,351  Z"/>

<path  fill="#FA8072" stroke-width="0" stroke="#FA8072" d = " M341 368 C341,369.947 338,370.636 338,373 L343.5,378 C345.901,378 349.68,368 341,368  Z"/>

<path  fill="#FA8072" stroke-width="0" stroke="#FA8072" d = " M148 370 C148,371.791 144.73,372.959 146,375.5 155.011,393.523 166.522,374.511 157.5,370 156.084,369.292 149.898,370 148,370  Z"/>

</g>
</svg>
