<svg xmlns="http://www.w3.org/2000/svg" xmlns:xlink="http://www.w3.org/1999/xlink" height="512" width="512">
<g>
<rect width="512" height="512" fill="#000000"  stroke-width="0" /> 
<path  fill-rule="evenodd" fill="#86FF5A" stroke-width="0" stroke="#86FF5A" d = " M240 285 C240,288.265 235.157,291.814 237,295.5 245.291,312.083 254.302,295.103 252,290.5 L249,288.5 C248.341,287.182 249.419,285.96 247.5,285 L240,285  M242 321 L243,322 C243,324.229 245.535,331.43 248,326.5 248,326.5 248,309.5 248,309.5 247.078,307.656 242.567,310.365 242,311.5 242,311.5 242,321 242,321  M310 308 C306.542,308 305.051,316.397 304,318.5 L301,320.5 L301,325.5 C298.232,331.036 288.736,335.382 283.5,338 280.637,339.432 257.051,341.776 253.5,340 251.085,338.792 247.061,333.28 246.5,333 242.58,331.04 240.848,338.326 239.5,339 236.08,340.71 231.091,339.204 227.5,341 220.082,344.709 194.106,332.712 191,326.5 188.875,322.25 188.323,309 181,309 181,304.139 177.939,304.378 176,300.5 173.979,296.457 176.425,285.649 178,282.5 179.997,278.506 183.892,276.716 186,272.5 186.387,271.726 188.186,268 186,268 186,268 191,264.5 191,264.5 191.405,264.095 209.584,259.542 210.5,260 213.136,261.318 216.076,267.212 220.5,265 220.5,265 224.5,262 224.5,262 228.553,262 231.769,269.635 234.5,271 234.5,271 257.5,270 257.5,270 260.932,268.284 265.385,265.057 269.5,263 269.5,263 276.5,264 276.5,264 276.5,264 278.5,261 278.5,261 278.538,260.981 299.061,266.28 300.5,267 300.5,267 304,271 304,271 304,271 303,275.5 303,275.5 303,275.5 311,284.5 311,284.5 311,284.5 313,290.5 313,290.5 314.296,293.092 310.111,301.279 309,303.5 309,303.5 310,308 310,308  Z"/>

<path  fill="#FA8072" stroke-width="0" stroke="#FA8072" d = " M186 268 C188.186,268 186.387,271.726 186,272.5 183.892,276.716 179.997,278.506 178,282.5 176.425,285.649 173.979,296.457 176,300.5 177.939,304.378 181,304.139 181,309 176.66,309 174.225,299.95 173,297.5 169.512,290.523 176.114,268 186,268  Z"/>

<path  fill="#FA8072" stroke-width="0" stroke="#FA8072" d = " M304 271 C307.154,271 305.476,273.988 307.5,275 314.069,278.285 320.254,287.992 316,296.5 314.615,299.27 314.846,308 310,308 310,308 309,303.5 309,303.5 310.111,301.279 314.296,293.092 313,290.5 313,290.5 311,284.5 311,284.5 311,284.5 303,275.5 303,275.5 303,275.5 304,271 304,271  Z"/>

<path  fill-rule="evenodd" fill="#EB57FF" stroke-width="0" stroke="#EB57FF" d = " M244 298 C244,302.123 248.123,298 244,298  M240 285 C240,288.265 235.157,291.814 237,295.5 245.291,312.083 254.302,295.103 252,290.5 L249,288.5 C248.341,287.182 249.419,285.96 247.5,285 L240,285  Z"/>

<path  fill="#27F4FD" stroke-width="0" stroke="#27F4FD" d = " M244 298 C244,302.123 248.123,298 244,298  Z"/>

<path  fill="#7209D4" stroke-width="0" stroke="#7209D4" d = " M242 321 L243,322 C243,324.229 245.535,331.43 248,326.5 248,326.5 248,309.5 248,309.5 247.078,307.656 242.567,310.365 242,311.5 242,311.5 242,321 242,321  Z"/>

</g>
</svg>
