<svg xmlns="http://www.w3.org/2000/svg" xmlns:xlink="http://www.w3.org/1999/xlink" height="512" width="512">
<g>
<rect width="512" height="512" fill="#000000"  stroke-width="0" /> 
<path  fill="#FA8072" stroke-width="0" stroke="#FA8072" d = " M332 362 L329,363.5 L328,382 C328,385.393 329.292,397.104 335.5,394 L336,381.5 C334.737,378.973 330.876,383.688 329.5,383 L329.5,378 L332.5,379 C338.998,379 338,381.024 338,387 338,388.004 337.37,393.065 339.5,392 342.199,390.651 340,385.091 340,383 340,375.118 341.297,362 332,362  Z"/>

<path  fill="#FA8072" stroke-width="0" stroke="#FA8072" d = " M129 386 C129,387.602 125.942,388.384 127,390.5 130.623,397.746 138.879,386 129,386  Z"/>

</g>
</svg>
