<svg xmlns="http://www.w3.org/2000/svg" xmlns:xlink="http://www.w3.org/1999/xlink" height="512" width="512">
<g>
<rect width="512" height="512" fill="#000000"  stroke-width="0" /> 
<path  fill-rule="evenodd" fill="#86FF5A" stroke-width="0" stroke="#86FF5A" d = " M247 364 C247,366.207 241.824,364.338 240.5,365 235.364,367.568 243.245,374.872 245.5,376 250.175,378.337 250.51,364 247,364  M241 325 L235.5,328 C227.21,328 220.316,330.592 213.5,334 203.445,339.027 201.864,352.772 197,362.5 L197,372.5 C194.756,376.989 196.979,382.459 199,386.5 L199,393.5 C201.407,398.315 209.236,408.868 215.5,412 L218.5,412 C223.602,414.551 232.327,420.587 239.5,417 L244.5,411 C246.564,409.968 253.51,417.005 255.5,418 260.119,420.31 281.019,408.463 283,404.5 284.689,401.122 287.349,399.802 289,396.5 292.277,389.947 291.041,384.417 294,378.5 295.442,375.617 292.353,363.207 291,360.5 288.68,355.859 289.33,349.159 287,344.5 281.127,332.755 253.959,325 241,325  Z"/>

<path  fill="#EB57FF" stroke-width="0" stroke="#EB57FF" d = " M247 364 C247,366.207 241.824,364.338 240.5,365 235.364,367.568 243.245,374.872 245.5,376 250.175,378.337 250.51,364 247,364  Z"/>

</g>
</svg>
