<svg xmlns="http://www.w3.org/2000/svg" xmlns:xlink="http://www.w3.org/1999/xlink" height="512" width="512">
<g>
<rect width="512" height="512" fill="#000000"  stroke-width="0" /> 
<path  fill-rule="evenodd" fill="#86FF5A" stroke-width="0" stroke="#86FF5A" d = " M245 346 C245,347.779 240.072,346.357 239,348.5 236.045,354.41 243.585,356.958 247.5,355 251.551,352.975 248.991,346 245,346  M245 309 C245,311.207 239.824,309.338 238.5,310 233.539,312.481 224.28,311.61 219.5,314 216.914,315.293 201.565,330.37 200,333.5 197.725,338.05 198.291,343.917 196,348.5 L196,356 C196,373.312 205.369,390.434 220.5,398 223.372,399.436 233.006,402.747 236.5,401 238.064,400.218 240.038,400.731 241.5,400 L245.5,395 L252.5,401 C262.38,405.94 272.281,394.109 278.5,391 L280.5,387 L284,385.5 C287.566,378.368 291.385,371.73 295,364.5 295.481,363.539 292.178,345.855 291,343.5 288.228,337.957 287.82,331.14 285,325.5 283.596,322.693 273.802,315.651 270.5,314 L262.5,314 C257.466,311.483 250.974,309 245,309  Z"/>

<path  fill="#EB57FF" stroke-width="0" stroke="#EB57FF" d = " M245 346 C245,347.779 240.072,346.357 239,348.5 236.045,354.41 243.585,356.958 247.5,355 251.551,352.975 248.991,346 245,346  Z"/>

</g>
</svg>
