<svg xmlns="http://www.w3.org/2000/svg" xmlns:xlink="http://www.w3.org/1999/xlink" height="512" width="512">
<g>
<rect width="512" height="512" fill="#000000"  stroke-width="0" /> 
<path  fill="#03C12D" stroke-width="0" stroke="#03C12D" d = " M353 354 L355,354 C358.474,354 359.691,353.405 362.5,352 362.5,352 381.5,353 381.5,353 399.814,343.843 407.632,324.235 416,307.5 419.076,301.348 423.967,296.566 427,290.5 427,290.5 427,284.5 427,284.5 427,284.5 432,275.5 432,275.5 432,275.5 430,269.5 430,269.5 430,269.5 436,262.5 436,262.5 438.084,258.332 435.926,251.648 438,247.5 438,247.5 440,244.5 440,244.5 440,241.588 438.225,233.05 440,229.5 441.825,225.851 442.988,216.477 441,212.5 441,212.5 438,208 438,208 438,205.813 440.664,199.829 440,198.5 435.74,189.98 435.257,180.015 431,171.5 431,171.5 431,165.5 431,165.5 426.219,155.938 422.781,146.062 418,136.5 418,136.5 409,127.5 409,127.5 401.112,111.725 384.504,108.002 370.5,101 365.311,98.4056 362.171,94.3357 357.5,92 357.5,92 348.5,92 348.5,92 344.216,89.8578 339.885,88.1927 335.5,86 327.74,82.1201 311.133,84.3163 302.5,80 302.5,80 289.5,80 289.5,80 276.546,80 262.259,78.6205 251.5,84 246.784,86.358 242.843,92.3283 239.5,94 239.5,94 235.5,90 235.5,90 231.751,88.1253 227.521,85.5106 224.5,84 221.064,82.2822 192.421,81.0393 188.5,83 188.5,83 174.5,83 174.5,83 169.958,85.271 165.003,85.7484 160.5,88 160.5,88 154.5,88 154.5,88 151.282,89.6088 142.992,94 139.5,94 137.535,94 133.14,93.6799 130.5,95 122.307,99.0966 114.015,101.743 105.5,106 102.282,107.609 106.665,108.417 105.5,109 105.5,109 90.5,117 90.5,117 90.5,117 84,124.5 84,124.5 84,124.5 77,129.5 77,129.5 75.9423,131.615 76.0195,134.461 75,136.5 72.404,141.692 67.7492,147.002 65,152.5 61.9736,158.553 61.3031,165.894 58,172.5 56.2199,176.06 56.82,180.86 55,184.5 52.4671,189.566 55.4847,197.531 53,202.5 53,202.5 48,214.5 48,214.5 46.8345,216.831 50.0642,229.372 48,233.5 48,233.5 46,238.5 46,238.5 46,241.471 56.5168,271.534 59,276.5 59,276.5 63,278.5 63,278.5 63,278.5 61,283.5 61,283.5 63.2528,288.006 62.7618,294.024 65,298.5 65,298.5 72,308.5 72,308.5 72,308.5 75,318.5 75,318.5 82.3483,333.197 91.8433,345.672 106.5,353 106.5,353 111.5,353 111.5,353 121.848,358.174 130.095,347 140,347 140,341.114 125.195,325.89 122,319.5 122,319.5 118,311.5 118,311.5 115.121,305.741 120.663,297.827 118,292.5 115.873,288.246 110.514,284.527 109,281.5 109,281.5 111,278 111,278 107.778,278 102,271.207 102,268 101.104,268 98.9744,266 101,266 101,264.742 99.1388,257 98,257 98,267.617 93.0221,240.456 94,238.5 97.0714,232.357 96.8963,211.707 100,205.5 100,205.5 105,199 105,199 105,199 105,198 105,198 105,191.22 110.19,187.12 113,181.5 120.923,165.654 142.95,148.275 159.5,140 166.692,136.404 178.328,136.086 186.5,132 186.5,132 193.5,132 193.5,132 196.051,130.724 208.977,124.739 211.5,126 222.026,131.263 216.83,150 238.5,150 238.5,150 246.5,150 246.5,150 252.045,147.228 257.651,147.197 261,140.5 262.414,137.671 266.249,124.126 268.5,123 269.691,122.404 286.574,128.037 288.5,129 288.5,129 294.5,129 294.5,129 302.475,132.987 320.76,133.63 329.5,138 329.5,138 335.5,144 335.5,144 342.578,147.539 349.404,152.452 356.5,156 358.781,157.141 356.97,160.235 358.5,161 362.77,163.135 366.098,167.799 370.5,170 370.5,170 374,170.5 374,170.5 374,170.5 375,176.5 375,176.5 375,176.5 380,179.5 380,179.5 380,179.5 380,186.5 380,186.5 380,186.5 385,192.5 385,192.5 385,192.5 386,201.5 386,201.5 387.265,204.031 388.735,205.969 390,208.5 390,208.5 390,215.5 390,215.5 390,215.5 393,218 393,218 393,222.704 393.069,226.637 395,230.5 397.161,234.822 394,242.828 394,247 394,248.559 394.944,257 392.5,257 392.5,257 390,254 390,254 390,261.421 376,277.756 376,279 376,279 374,283.5 374,283.5 374,283.5 376,285.5 376,285.5 376,285.5 376,298.5 376,298.5 376,298.5 369,310.5 369,310.5 366.445,315.61 366.576,322.349 364,327.5 364,327.5 355,346.5 355,346.5 355,346.5 351,352 351,352 351,352 353,354 353,354  Z"/>

<path  fill="#FF6E00" stroke-width="0" stroke="#FF6E00" d = " M105 199 L100,205.5 C96.8963,211.707 97.0714,232.357 94,238.5 93.0221,240.456 98,267.617 98,257 98,241.718 97.626,224.248 104,211.5 106.454,206.592 110.944,201.612 113,197.5 116.555,190.39 118.197,185.651 125.5,182 131.888,178.806 133.134,170 142,170 142,167.234 146.015,166.742 147.5,166 153.989,162.756 156.295,157.102 162.5,154 163.175,153.663 172,144.559 172,149 181.229,149 188.894,140.197 198.5,145 198.5,145 203.5,145 203.5,145 208.286,147.393 215.263,155 220,155 220,155 221,156 221,156 221,156 224,157 224,157 224,157 225,158 225,158 225,158 226,158 226,158 226,158 227,159 227,159 230.854,159 234.403,162 239,162 239,162 247,162 247,162 250.239,162 251.575,159 255,159 255,159 256,158 256,158 256,158 258,157 258,157 258,157 260,156 260,156 260,156 261,155 261,155 265.067,155 267.643,148 271,148 271,148 272,147 272,147 272,147 274,146 274,146 274,146 275,145 275,145 275,145 276,145 276,145 276,145 277,144 277,144 277,144 278,143 278,143 282.538,143 288.382,139 293.5,139 300.216,139 305.552,145 312,145 312,145 314.5,143 314.5,143 322.799,147.149 327.604,155.552 334.5,159 334.5,159 340,166 340,166 342.063,166 350,167.527 350,170 350,170 354,171 354,171 354,168.784 357,170.652 357,172 359.603,172 374,186.477 374,189 376.003,189 377,188.707 377,191 377,197.186 380.494,199.488 383,204.5 383,204.5 384,211.5 384,211.5 386.029,215.559 387.964,219.428 390,223.5 392.896,229.293 390,247.41 390,254 390,254 392.5,257 392.5,257 394.944,257 394,248.559 394,247 394,242.828 397.161,234.822 395,230.5 393.069,226.637 393,222.704 393,218 393,218 390,215.5 390,215.5 390,215.5 390,208.5 390,208.5 388.735,205.969 387.265,204.031 386,201.5 386,201.5 385,192.5 385,192.5 385,192.5 380,186.5 380,186.5 380,186.5 380,179.5 380,179.5 380,179.5 375,176.5 375,176.5 375,176.5 374,170.5 374,170.5 374,170.5 370.5,170 370.5,170 366.098,167.799 362.77,163.135 358.5,161 356.97,160.235 358.781,157.141 356.5,156 349.404,152.452 342.578,147.539 335.5,144 335.5,144 329.5,138 329.5,138 320.76,133.63 302.475,132.987 294.5,129 294.5,129 288.5,129 288.5,129 286.574,128.037 269.691,122.404 268.5,123 266.249,124.126 262.414,137.671 261,140.5 257.651,147.197 252.045,147.228 246.5,150 246.5,150 238.5,150 238.5,150 216.83,150 222.026,131.263 211.5,126 208.977,124.739 196.051,130.724 193.5,132 193.5,132 186.5,132 186.5,132 178.328,136.086 166.692,136.404 159.5,140 142.95,148.275 120.923,165.654 113,181.5 110.19,187.12 105,191.22 105,198 106.186,198 106.186,199 105,199  Z"/>

<path  fill="#0E47E2" stroke-width="0" stroke="#0E47E2" d = " M220 194 L227,194 C227,192.414 235.945,189.777 237.5,189 237.5,189 241.5,183 241.5,183 241.5,183 248.5,188 248.5,188 254.081,190.79 262.409,193 269,193 269,193 271,193 271,193 271,193 272,192 272,192 273.426,192 281,187.764 281,186 281,186 283,180 283,180 279.19,180 279.02,176.74 282.5,175 282.5,175 292.5,174 292.5,174 299.424,170.538 307.69,170.405 314.5,167 314.5,167 322,160.5 322,160.5 322.523,159.454 321.049,157 323,157 323,157 322,155 322,155 322,155 321,153 321,153 319.253,153 319,152.747 319,151 319,151 312,145 312,145 305.552,145 300.216,139 293.5,139 288.382,139 282.538,143 278,143 278,143 277,144 277,144 277,144 276,145 276,145 276,145 275,145 275,145 275,145 274,146 274,146 274,146 272,147 272,147 272,147 271,148 271,148 267.643,148 265.067,155 261,155 261,155 260,156 260,156 260,156 258,157 258,157 258,157 256,158 256,158 256,158 255,159 255,159 251.575,159 250.239,162 247,162 247,162 245,164 245,164 245,164 244,166 244,166 247.953,166 240,181.148 240,169 240,169 241,166 241,166 241,166 240,164 240,164 240,164 239,162 239,162 234.403,162 230.854,159 227,159 227,159 226,158 226,158 226,158 225,158 225,158 225,158 224,157 224,157 224,157 221,156 221,156 221,156 220,155 220,155 215.263,155 208.286,147.393 203.5,145 203.5,145 198.5,145 198.5,145 188.894,140.197 181.229,149 172,149 172,151.818 165,152.961 165,157 165,171.099 176.701,168.601 185.5,173 189.085,174.792 194.861,177 199,177 200.048,177 202,176.527 202,178 203.492,178 211.712,181.894 209.5,183 207.136,184.182 203.804,182 202,182 202,182 201,186.5 201,186.5 201,186.5 203,189 203,189 203,189 212,193 212,193 212,193 220,194 220,194  Z"/>

<path  fill="#022CFF" stroke-width="0" stroke="#022CFF" d = " M343 188 L341,189 C341,184.393 338.85,184.2 337,180.5 335.247,176.995 338.437,172.374 337,169.5 335.11,165.719 328.076,157 324,157 324,155.253 323.747,155 322,155 322,155 321,153 321,153 321,153 319,151 319,151 319,151 312,145 312,145 312,145 314.5,143 314.5,143 322.799,147.149 327.604,155.552 334.5,159 334.5,159 340,166 340,166 340,166 344,169 344,169 344,171.106 340.881,171.262 342,173.5 343.711,176.923 344,181.919 344,185 344,185 343,188 343,188  Z"/>

<path  fill="#022CFF" stroke-width="0" stroke="#022CFF" d = " M149 193 L151,193 C151,186.424 155.592,157 165,157 165,152.961 172,151.818 172,149 172,144.559 163.175,153.663 162.5,154 156.295,157.102 153.989,162.756 147.5,166 146.015,166.742 142,167.234 142,170 142,170 143,170 143,170 143,170 145,171 145,171 146.995,171 147,175.377 147,177 147,181.092 147,186.247 147,190 147,190 147,192 147,192 147,192 148,193 148,193 148,193 149,193 149,193  Z"/>

<path  fill="#FF6E00" stroke-width="0" stroke="#FF6E00" d = " M319 151 L321,153 C319.253,153 319,152.747 319,151  Z"/>

<path  fill="#00FF1D" stroke-width="0" stroke="#00FF1D" d = " M173 193 C168.649,193 173.003,199 164,199 162.13,199 151,197.641 151,193 151,186.424 155.592,157 165,157 165,171.099 176.701,168.601 185.5,173 189.085,174.792 194.861,177 199,177 199,178.473 200.952,178 202,178 203.492,178 211.712,181.894 209.5,183 207.136,184.182 203.804,182 202,182 200.459,182 183,177.189 183,182 177.968,182 174.358,191 174,191 174,191 173,193 173,193  Z"/>

<path  fill="#00FF1D" stroke-width="0" stroke="#00FF1D" d = " M326 198 L335,198 C335,198 336,197 336,197 336,194.26 341,192.23 341,189 341,184.393 338.85,184.2 337,180.5 335.247,176.995 338.437,172.374 337,169.5 335.11,165.719 328.076,157 324,157 324,157 323,157 323,157 321.049,157 322.523,159.454 322,160.5 322,160.5 314.5,167 314.5,167 307.69,170.405 299.424,170.538 292.5,174 292.5,174 282.5,175 282.5,175 279.02,176.74 279.19,180 283,180 287.232,180 294.267,176 299.5,176 300.778,176 305,175.335 305,177 313.12,177 312.065,180.63 315,186.5 316.486,189.473 319.564,191.627 321,194.5 321.691,195.882 326,194.97 326,198  Z"/>

<path  fill="#FF0800" stroke-width="0" stroke="#FF0800" d = " M241 166 L244,166 C244,166 245,164 245,164 243.533,164 241.467,164 240,164 240,164 241,166 241,166  Z"/>

<path  fill="#022CFF" stroke-width="0" stroke="#022CFF" d = " M241 166 L244,166 C247.953,166 240,181.148 240,169 240,169 241,166 241,166  Z"/>

<path  fill="#814FFF" stroke-width="0" stroke="#814FFF" d = " M361 269 C365.816,269 364.069,278.284 367.5,280 370.299,281.399 373.004,279 376,279 376,277.756 390,261.421 390,254 390,247.41 392.896,229.293 390,223.5 387.964,219.428 386.029,215.559 384,211.5 384,211.5 383,204.5 383,204.5 380.494,199.488 377,197.186 377,191 377,191 374,189 374,189 374,186.477 359.603,172 357,172 357,172 354,171 354,171 354,171 350,170 350,170 350,170 344,169 344,169 344,171.106 340.881,171.262 342,173.5 343.711,176.923 344,181.919 344,185 344,185 346,187 346,187 346,187 352.5,185 352.5,185 360.705,189.102 354.315,196.13 356,199.5 356,199.5 359,203.5 359,203.5 355.446,210.607 356,207.951 356,215 356,215 357,216 357,216 363.676,216 362.003,222.506 364,226.5 370.159,238.818 361,257.888 361,269  Z"/>

<path  fill="#814FFF" stroke-width="0" stroke="#814FFF" d = " M102 268 C102,271.207 107.778,278 111,278 120.864,278 128,277.422 128,265 128,256.8 121.608,247.283 126,238.5 126.746,237.007 125.271,232 128,232 128,232 129,231 129,231 129,226.264 130,222.842 130,219 130,216.901 126.442,214.617 128,211.5 128,211.5 134,206.5 134,206.5 135.058,204.384 132,203.602 132,202 132,200.318 131.458,182 135.5,182 136.886,182 138.523,188.546 139,189.5 139.754,191.008 140.84,189.33 141.5,189 141.5,189 145,190 145,190 145,190 147,190 147,190 147,186.247 147,181.092 147,177 147,175.377 146.995,171 145,171 145,171 143,170 143,170 143,170 142,170 142,170 133.134,170 131.888,178.806 125.5,182 118.197,185.651 116.555,190.39 113,197.5 110.944,201.612 106.454,206.592 104,211.5 97.626,224.248 98,241.718 98,257 99.1388,257 101,264.742 101,266 101.896,266 104.026,268 102,268  Z"/>

<path  fill="#022CFF" stroke-width="0" stroke="#022CFF" d = " M283 180 L281,186 C284.23,186 284.207,183.146 286.5,182 288.398,181.051 302.796,177 305,177 305,175.335 300.778,176 299.5,176 294.267,176 287.232,180 283,180  Z"/>

<path  fill="#006400" stroke-width="0" stroke="#006400" d = " M246 284 C253.528,284 261.197,284 269,284 269.869,284 288.917,277.791 290.5,277 294.257,275.122 295.633,270 301,270 301,259.15 319.906,248.297 328.5,244 328.5,244 330,239.5 330,239.5 330,239.5 337,228.5 337,228.5 337,228.5 337,223.5 337,223.5 337,223.5 339,222.5 339,222.5 341.501,217.497 339.064,208.628 337,204.5 334.231,198.961 326,205.484 326,198 326,194.97 321.691,195.882 321,194.5 319.564,191.627 316.486,189.473 315,186.5 312.065,180.63 313.12,177 305,177 302.796,177 288.398,181.051 286.5,182 284.207,183.146 284.23,186 281,186 281,187.764 273.426,192 272,192 272,192 271,193 271,193 271,193 269,193 269,193 269,193 269,195 269,195 269,207.64 252.931,196 249,196 249,197.77 243.432,200.966 241.5,200 240.73,199.615 236,191.9 236,195 236,201.219 218.025,203.55 217,201.5 217,201.5 217,197 217,197 217,197 212,193 212,193 212,193 203,189 203,189 203,189 195.5,184 195.5,184 195.5,184 183,182 183,182 177.968,182 174.358,191 174,191 174,191 173,193 173,193 168.649,193 173.003,199 164,199 164,199 164,201 164,201 164,205.295 161.643,205 158,205 158,205 157,205 157,205 157,205 152,209.5 152,209.5 151.231,211.037 150.814,212.871 150,214.5 148.149,218.203 156.178,237.857 158,241.5 158,241.5 167,249.5 167,249.5 167.659,250.818 166.581,252.04 168.5,253 168.5,253 173.5,254 173.5,254 173.5,254 175.5,258 175.5,258 175.5,258 179.5,258 179.5,258 180.425,258.463 185,265.925 185,266 188.353,266 207.529,284 219,284 225.653,284 233.845,285 241,285 241,279.521 246,279.07 246,284  Z"/>

<path  fill="#022CFF" stroke-width="0" stroke="#022CFF" d = " M202 182 L201,186.5 L203,189 C203,189 195.5,184 195.5,184 195.5,184 183,182 183,182 183,177.189 200.459,182 202,182  Z"/>

<path  fill-rule="evenodd" fill="#FF3427" stroke-width="0" stroke="#FF3427" d = " M164 266 C164,267.602 160.942,268.384 162,270.5 168.588,283.676 181.466,266 164,266  M185 266 C185,268.872 187.314,274.093 183.5,276 L179.5,276 C169.535,280.982 175.88,282.19 163.5,276 161.228,274.864 153,271.726 153,268 153,266.986 149.097,261 148,261 148,254.381 141.772,250.043 139,244.5 138.133,242.766 138.92,240.339 138,238.5 138,238.5 138,237 138,237 138,235.005 135.884,220 134,220 134,220 132,219 132,219 132,219 130,219 130,219 130,216.901 126.442,214.617 128,211.5 128,211.5 134,206.5 134,206.5 135.058,204.384 132,203.602 132,202 132,200.318 131.458,182 135.5,182 136.886,182 138.523,188.546 139,189.5 139.754,191.008 140.84,189.33 141.5,189 141.5,189 145,190 145,190 145,190 147,192 147,192 147,192 148,193 148,193 148,193 148,194 148,194 146.814,194 146.814,195 148,195 148,196.549 147,198.551 147,199.5 147,201.689 155.46,205 157,205 157,205 152,209.5 152,209.5 151.231,211.037 150.814,212.871 150,214.5 148.149,218.203 156.178,237.857 158,241.5 158,241.5 167,249.5 167,249.5 167.659,250.818 166.581,252.04 168.5,253 168.5,253 173.5,254 173.5,254 173.5,254 175.5,258 175.5,258 175.5,258 179.5,258 179.5,258 180.425,258.463 185,265.925 185,266  Z"/>

<path  fill="#022CFF" stroke-width="0" stroke="#022CFF" d = " M269 195 C265.751,195 249,189.284 249,196 249,197.77 243.432,200.966 241.5,200 240.73,199.615 236,191.9 236,195 233.277,195 230.222,194 227,194 227,192.414 235.945,189.777 237.5,189 237.5,189 241.5,183 241.5,183 241.5,183 248.5,188 248.5,188 254.081,190.79 262.409,193 269,193 269,193 269,195 269,195  Z"/>

<path  fill-rule="evenodd" fill="#FF3427" stroke-width="0" stroke="#FF3427" d = " M323 266 C323,266.444 313.783,269.142 319.5,272 323.294,273.897 327.532,266 323,266  M337 267 L338,267 C340.641,267 340,265.177 340,263 340,263 340,261 340,261 340,259.826 342.603,252 344,252 344,249.997 343.707,249 346,249 346,249 350,243.5 350,243.5 350,241.829 346.618,240.264 348,237.5 348,237.5 354,234.5 354,234.5 354.255,233.989 352.166,216 355,216 355,216 356,215 356,215 356,207.951 355.446,210.607 359,203.5 359,203.5 356,199.5 356,199.5 354.315,196.13 360.705,189.102 352.5,185 352.5,185 346,187 346,187 346,187 346,189 346,189 346,191.523 341.597,197.951 339.5,199 339.5,199 336,198 336,198 336,198 335,198 335,198 335,198 326,198 326,198 326,205.484 334.231,198.961 337,204.5 339.064,208.628 341.501,217.497 339,222.5 339,222.5 337,223.5 337,223.5 337,223.5 337,228.5 337,228.5 337,228.5 330,239.5 330,239.5 330,239.5 328.5,244 328.5,244 319.906,248.297 301,259.15 301,270 301,274.652 303.538,272.519 306.5,274 306.5,274 308.5,277 308.5,277 314.967,280.234 317.215,280.142 323.5,277 323.5,277 326.5,278 326.5,278 331.418,275.541 332.92,267 337,267  Z"/>

<path  fill="#EE7533" stroke-width="0" stroke="#EE7533" d = " M336 197 L336,198 C336,198 339.5,199 339.5,199 341.597,197.951 346,191.523 346,189 346,189 343,188 343,188 343,188 341,189 341,189 341,192.23 336,194.26 336,197  Z"/>

<path  fill="#022CFF" stroke-width="0" stroke="#022CFF" d = " M272 192 L271,193 C271,193 272,192 272,192  Z"/>

<path  fill="#EE7533" stroke-width="0" stroke="#EE7533" d = " M157 205 L158,205 C158,205 164,201 164,201 164,201 164,199 164,199 162.13,199 151,197.641 151,193 151,193 149,193 149,193 149,193 148,194 148,194 148,194 148,195 148,195 148,196.549 147,198.551 147,199.5 147,201.689 155.46,205 157,205  Z"/>

<path  fill="#022CFF" stroke-width="0" stroke="#022CFF" d = " M220 194 L217,197 C217,197 212,193 212,193 212,193 220,194 220,194  Z"/>

<path  fill="#FFFC00" stroke-width="0" stroke="#FFFC00" d = " M269 195 C265.751,195 249,189.284 249,196 252.931,196 269,207.64 269,195  Z"/>

<path  fill="#FFFC00" stroke-width="0" stroke="#FFFC00" d = " M236 195 C236,201.219 218.025,203.55 217,201.5 L217,197 C217,197 220,194 220,194 220,194 227,194 227,194 230.222,194 233.277,195 236,195  Z"/>

<path  fill="#FF3427" stroke-width="0" stroke="#FF3427" d = " M164 201 L158,205 C161.643,205 164,205.295 164,201  Z"/>

<path  fill="#FF91BA" stroke-width="0" stroke="#FF91BA" d = " M338 268 C338,286.162 356.887,269 361,269 361,257.888 370.159,238.818 364,226.5 362.003,222.506 363.676,216 357,216 357,216 355,216 355,216 352.166,216 354.255,233.989 354,234.5 354,234.5 348,237.5 348,237.5 346.618,240.264 350,241.829 350,243.5 350,243.5 346,249 346,249 346,250.238 345.577,252 344,252 342.603,252 340,259.826 340,261 341.399,261 341.399,263 340,263 340,265.177 340.641,267 338,267 338,267 338,268 338,268  Z"/>

<path  fill="#FF91BA" stroke-width="0" stroke="#FF91BA" d = " M128 265 C132.831,265 132.711,272.105 136.5,274 143.002,277.251 148,272.682 148,267 148,267 148,261 148,261 148,254.381 141.772,250.043 139,244.5 138.133,242.766 138.92,240.339 138,238.5 138,238.5 138,237 138,237 138,235.005 135.884,220 134,220 134,220 132,219 132,219 132,219 130,219 130,219 130,222.842 129,226.264 129,231 129,231 128,232 128,232 125.271,232 126.746,237.007 126,238.5 121.608,247.283 128,256.8 128,265  Z"/>

<path  fill="#E1F00D" stroke-width="0" stroke="#E1F00D" d = " M182 324 C182,336.743 149.279,347 140,347 140,341.114 125.195,325.89 122,319.5 122,319.5 118,311.5 118,311.5 115.121,305.741 120.663,297.827 118,292.5 115.873,288.246 110.514,284.527 109,281.5 109,281.5 111,278 111,278 120.864,278 128,277.422 128,265 132.831,265 132.711,272.105 136.5,274 143.002,277.251 148,272.682 148,267 148,267 153,268 153,268 153,271.726 161.228,274.864 163.5,276 175.88,282.19 169.535,280.982 179.5,276 179.5,276 183.5,276 183.5,276 187.314,274.093 185,268.872 185,266 188.353,266 207.529,284 219,284 219,284 213,291 213,291 213,285.606 209.082,290.335 208,292.5 206.53,295.439 210,296.716 210,298 210,298 207,299.5 207,299.5 207,299.5 205,308.5 205,308.5 205,308.5 202,310.5 202,310.5 202,310.5 201,320 201,320 197.138,320 197.293,315 193,315 193,315 192,314 192,314 192,314 190,312 190,312 190,312 181.5,311 181.5,311 175.561,313.969 182,320.198 182,324  Z"/>

<path  fill="#1AE7FF" stroke-width="0" stroke="#1AE7FF" d = " M164 266 C164,267.602 160.942,268.384 162,270.5 168.588,283.676 181.466,266 164,266  Z"/>

<path  fill="#1AE7FF" stroke-width="0" stroke="#1AE7FF" d = " M323 266 C323,266.444 313.783,269.142 319.5,272 323.294,273.897 327.532,266 323,266  Z"/>

<path  fill-rule="evenodd" fill="#E1F00D" stroke-width="0" stroke="#E1F00D" d = " M336 303 C336,306.479 340.365,303 336,303  M351 352 C349.952,352 348,351.527 348,353 348,353 343,352 343,352 343,349.967 335.979,349.739 334.5,349 328.207,345.853 321.727,343.113 315.5,340 311.464,337.982 306.287,325 305,325 305,321.159 313.973,302.763 301.5,309 298.65,310.425 296.704,315 294,315 290.118,315 288.138,321 285,321 285,317.003 285.67,311.839 284,308.5 281.617,303.733 276,302.492 276,295 285.11,295 273,281.552 273,289 271.571,289 269,285.061 269,284 269.869,284 288.917,277.791 290.5,277 294.257,275.122 295.633,270 301,270 301,274.652 303.538,272.519 306.5,274 306.5,274 308.5,277 308.5,277 314.967,280.234 317.215,280.142 323.5,277 323.5,277 326.5,278 326.5,278 331.418,275.541 332.92,267 337,267 337,267 338,268 338,268 338,286.162 356.887,269 361,269 365.816,269 364.069,278.284 367.5,280 370.299,281.399 373.004,279 376,279 376,279 374,283.5 374,283.5 374,283.5 376,285.5 376,285.5 376,285.5 376,298.5 376,298.5 376,298.5 369,310.5 369,310.5 366.445,315.61 366.576,322.349 364,327.5 364,327.5 355,346.5 355,346.5 355,346.5 351,352 351,352  Z"/>

<path  fill="#022CFF" stroke-width="0" stroke="#022CFF" d = " M246 284 C246,295.891 245,309.433 245,322 245,323.543 245.852,334.676 242.5,333 L242,321.5 C242,309.43 241,296.395 241,285 241,279.521 246,279.07 246,284  Z"/>

<path  fill="#E278A1" stroke-width="0" stroke="#E278A1" d = " M208 333 C208,335.957 210.14,337.82 212.5,339 L216.5,343 C226.558,348.029 240.084,341 249.5,341 251.463,341 254.127,343 257,343 260.913,343 273,342.504 273,338 273,331.774 283,328.518 283,323 283,323 285,322 285,322 285,322 285,321 285,321 285,317.003 285.67,311.839 284,308.5 281.617,303.733 276,302.492 276,295 272.374,295 273,291.74 273,289 271.571,289 269,285.061 269,284 261.197,284 253.528,284 246,284 246,295.891 245,309.433 245,322 245,323.543 245.852,334.676 242.5,333 242.5,333 242,321.5 242,321.5 242,309.43 241,296.395 241,285 233.845,285 225.653,284 219,284 219,284 213,291 213,291 213,293.79 213.746,298 210,298 210,298 207,299.5 207,299.5 207,299.5 205,308.5 205,308.5 205,308.5 202,310.5 202,310.5 202,310.5 201,320 201,320 201,324.976 208,327.461 208,333  Z"/>

<path  fill="#15C0FF" stroke-width="0" stroke="#15C0FF" d = " M273 289 C273,291.74 272.374,295 276,295 285.11,295 273,281.552 273,289  Z"/>

<path  fill="#15C0FF" stroke-width="0" stroke="#15C0FF" d = " M213 291 C213,293.79 213.746,298 210,298 210,296.716 206.53,295.439 208,292.5 209.082,290.335 213,285.606 213,291  Z"/>

<path  fill="#ADFF2F" stroke-width="0" stroke="#ADFF2F" d = " M336 303 C336,306.479 340.365,303 336,303  Z"/>

<path  fill="#267EFF" stroke-width="0" stroke="#267EFF" d = " M305 325 L301.5,329 C296.63,331.435 289.751,329 285,329 285,323.267 294,318.781 294,315 296.704,315 298.65,310.425 301.5,309 313.973,302.763 305,321.159 305,325  Z"/>

<path  fill="#267EFF" stroke-width="0" stroke="#267EFF" d = " M182 324 L184.5,328 C187.856,329.678 197.384,331 201,331 201,325.149 193,320.829 193,315 193,315 192,314 192,314 192,314 190,312 190,312 190,312 181.5,311 181.5,311 175.561,313.969 182,320.198 182,324  Z"/>

<path  fill="#FAAA40" stroke-width="0" stroke="#FAAA40" d = " M190 312 L192,314 C192,314 190,312 190,312  Z"/>

<path  fill="#FAAA40" stroke-width="0" stroke="#FAAA40" d = " M201 331 C204.666,331 202.074,333 208,333 208,327.461 201,324.976 201,320 197.138,320 197.293,315 193,315 193,320.829 201,325.149 201,331  Z"/>

<path  fill="#FAAA40" stroke-width="0" stroke="#FAAA40" d = " M285 329 C285,331.239 275.713,338 273,338 273,331.774 283,328.518 283,323 283,323 285,322 285,322 285,322 285,321 285,321 288.138,321 290.118,315 294,315 294,318.781 285,323.267 285,329  Z"/>

<path  fill-rule="evenodd" fill="#FA8072" stroke-width="0" stroke="#FA8072" d = " M302 357 C302,366.134 306.016,357 302,357  M299 340 C299,345.701 276.401,349.302 281,358.5 282.701,361.901 287.398,361.295 289,364.5 289.875,366.251 290.109,384 296.5,384 297.83,384 298.396,380.948 300.5,382 L302.5,384 C304.241,384 304.891,379.695 307.5,381 309.231,381.865 314.464,386.018 316.5,385 316.988,384.756 328.843,373.813 329,373.5 330.116,371.268 328,368.103 328,366.5 L331.5,366 C334.439,364.53 339.302,361.103 337,356.5 332.349,347.199 328.931,355.215 324.5,353 L318.5,347 L316,346.5 L314.5,342 C311.633,340.566 306.214,342.857 304.5,342 302.02,340.76 302.063,340 299,340  Z"/>

<path  fill="#FA8072" stroke-width="0" stroke="#FA8072" d = " M180 343 C180,345.233 172.118,347.191 170.5,348 167.872,349.314 168.935,353.282 167.5,354 L162.5,352 L153,359.5 C152.798,359.904 154.846,367.173 150.5,365 L147.5,359 C145.048,357.774 141.811,358.156 139.5,357 138.772,356.636 136.82,354.861 136,356.5 134.612,359.276 141.388,356.724 140,359.5 138.534,362.432 125,360.839 125,366.5 L129,369.5 C132.087,372.587 133.163,377.831 137.5,380 L141,379 L144.5,380 C151.467,376.516 145.968,375.565 147,373.5 L150.5,373 L154.5,369 C156.418,369.959 158.703,370.101 160.5,371 161.688,371.594 161.39,374.945 163.5,376 165.736,377.118 166.82,373.16 168.5,374 L168,378.5 C172.401,387.301 179.782,384.859 185.5,382 187.761,380.869 192.307,385.596 195.5,384 197.809,382.846 201.714,379.927 200,376.5 198.978,374.456 193.513,373.475 195,370.5 195.526,369.448 201.281,371.939 203,368.5 L202,366.5 C201.143,364.786 205.025,362.762 201.5,361 200.222,360.361 195.128,360.756 195,360.5 L195,348.5 C193.74,345.981 182.977,343 180,343  Z"/>

<path  fill="#FA8072" stroke-width="0" stroke="#FA8072" d = " M144 351 C144,363.441 161.447,352 147,352 L144,351  Z"/>

<path  fill-rule="evenodd" fill="#FA8072" stroke-width="0" stroke="#FA8072" d = " M354 375 C354,382.274 357.947,375 354,375  M361 374 C361,375.93 362.93,374 361,374  M353 354 L355,354 C355,359.472 360.892,359.284 363,363.5 364.818,367.135 364.825,379.151 367,383.5 368.565,386.63 375.606,389.287 373,394.5 371.019,398.461 357.615,402.729 355,397.5 353.906,395.311 352.4,397.3 352,396.5 351.123,394.745 351.721,391.111 349.5,390 349.5,390 346,388.5 346,388.5 344.528,385.556 345.433,381.367 344,378.5 342.484,375.467 339.484,373.468 338,370.5 334.372,363.244 342.975,361.551 345,357.5 345,357.5 342,354.5 342,354.5 342,354.5 343,352 343,352 343,352 348,353 348,353 348,354.643 351.765,354 353,354  Z"/>

<path  fill="#FA8072" stroke-width="0" stroke="#FA8072" d = " M125 381 C125,383.222 119.696,395.098 125.5,398 L129.5,398 C131.309,398.905 134.381,399.059 136.5,398 139.355,396.573 140.842,385.671 137.5,384 134.137,382.319 131.624,387.562 130.5,387 127.963,385.732 130.565,381 125,381  Z"/>

</g>
</svg>
