<svg xmlns="http://www.w3.org/2000/svg" xmlns:xlink="http://www.w3.org/1999/xlink" height="512" width="512">
<g>
<rect width="512" height="512" fill="#000000"  stroke-width="0" /> 
<path  fill="#03C12D" stroke-width="0" stroke="#03C12D" d = " M137 344 C133.47,344 128.626,349.563 123.5,347 99.5892,335.045 86.1287,331.757 73,305.5 L71,296.5 L67,291.5 C65.4416,288.383 69.0124,281.525 68,279.5 L64,275.5 C62.2141,271.928 60.8381,268.176 59,264.5 L58,250.5 C57.4052,249.31 56.1735,247.153 57,245.5 58.0234,243.453 54.6023,229.705 53,226.5 L55,220.5 C56.5297,217.441 54,212.018 54,209.5 54,205.562 58.1732,195.154 60,191.5 61.9108,187.678 59.0508,181.398 61,177.5 64.1377,171.225 66.8731,164.754 70,158.5 71.4222,155.656 70.5924,151.315 72,148.5 75.0125,142.475 89.6747,122.913 95.5,120 L107.5,116 C110.735,114.383 111.999,110.75 115.5,109 L125.5,107 C147.034,96.2329 172.257,87 198,87 205.47,87 217.172,85.836 223.5,89 227.129,90.8143 230.941,92.2207 234.5,94 L238.5,98 C243.619,100.559 251.019,87.7407 254.5,86 L264.5,86 C266.997,84.7515 288.587,82.5433 291.5,84 296.368,86.4341 303.685,83.5927 308.5,86 L311.5,89 L323.5,89 C329.063,91.7815 335.011,93.2557 340.5,96 L349.5,97 L352.5,100 L359.5,101 C365.438,103.969 371.644,106.072 377.5,109 379.815,110.158 375.638,112.569 378.5,114 383.611,116.556 388.329,120.415 393.5,123 L394.5,127 L416.5,148 C417.818,148.659 419.04,147.581 420,149.5 423.172,155.845 424.812,163.124 428,169.5 430.159,173.819 428.497,185.494 431,190.5 L436,196.5 L435,208 C435,211.668 438.418,222.663 437,225.5 434.362,230.777 436.628,243.244 436,244.5 435.358,245.784 435.594,247.313 435,248.5 L432,250.5 C432,253.35 432.825,263.849 431,267.5 430.356,268.789 426,269.095 426,269.5 426,273.717 424.206,277.088 422,281.5 420.344,284.813 419.635,296.23 417,301.5 413.642,308.216 390.351,334.574 383.5,338 374.65,342.425 364.311,343.594 355.5,348 350.678,350.411 343.74,346 340,346 340,339.184 353.106,336.289 356,330.5 356,330.5 357,323.5 357,323.5 357,323.5 363,312.5 363,312.5 364.981,308.538 370.398,291 362,291 362,288.799 375,284.473 375,280 377.393,280 378,276.766 378,275 378,267.413 387,261.78 387,254 389.55,254 392.822,237.145 392,235.5 388.174,227.848 388.026,211.553 385,205.5 385,205.5 380,198.5 380,198.5 378.859,196.218 379.141,192.782 378,190.5 378,190.5 375,188.5 375,188.5 375,188.5 374,181.5 374,181.5 373.646,180.791 358.764,171.028 358,169.5 358,169.5 358,165.5 358,165.5 355.681,160.861 341.883,158.691 336.5,156 335.1,155.3 333.503,153.002 331.5,152 331.5,152 327.5,152 327.5,152 322.229,149.364 315.903,147.701 310.5,145 306.061,142.78 299.011,145.255 294.5,143 288.307,139.904 281.743,138.121 275.5,135 275.5,135 270,136 270,136 267.717,136 247.162,122.331 242.5,120 239.882,118.691 229.115,127.692 226.5,129 223.968,130.266 214,134.865 214,139 214,139 207.5,137 207.5,137 198.88,141.31 189.106,142.697 180.5,147 180.5,147 165.5,149 165.5,149 159.641,151.929 153.258,154.121 147.5,157 147.5,157 143.5,161 143.5,161 143.5,161 137.5,162 137.5,162 132.718,164.391 118.456,177.587 116,182.5 110.051,194.399 106.95,207.6 101,219.5 98.2897,224.921 100.28,232.941 98,237.5 96.7184,240.063 99.1234,241.747 100,243.5 101.692,246.885 96.9551,257 103,257 105.109,257 105,259.535 105,261 105,266.869 107.607,271.713 110,276.5 112.958,282.416 117.919,287.21 123.5,290 124.78,290.64 130,292.385 130,294 130,294 133,299.5 133,299.5 134.174,301.847 134.096,310.692 137,316.5 138.094,318.688 140.389,337.721 139,340.5 139,340.5 137,344 137,344  Z"/>

<path  fill="#1D68EB" stroke-width="0" stroke="#1D68EB" d = " M249 159 C249,152.892 238,148.478 238,160 225.086,160 214,152.714 214,139 214,134.865 223.968,130.266 226.5,129 229.115,127.692 239.882,118.691 242.5,120 247.162,122.331 267.717,136 270,136 270,137.009 267.579,141.343 267,142.5 267,142.5 267,147.5 267,147.5 262.819,155.862 258.781,159 249,159  Z"/>

<path  fill="#FF6E00" stroke-width="0" stroke="#FF6E00" d = " M179 171 C166.671,171 155.558,164.971 143.5,171 111.548,186.976 103,223.418 103,257 96.9551,257 101.692,246.885 100,243.5 99.1234,241.747 96.7184,240.063 98,237.5 100.28,232.941 98.2897,224.921 101,219.5 106.95,207.6 110.051,194.399 116,182.5 118.456,177.587 132.718,164.391 137.5,162 137.5,162 143.5,161 143.5,161 143.5,161 147.5,157 147.5,157 153.258,154.121 159.641,151.929 165.5,149 165.5,149 180.5,147 180.5,147 189.106,142.697 198.88,141.31 207.5,137 207.5,137 214,139 214,139 214,152.714 225.086,160 238,160 238,160 249,159 249,159 258.781,159 262.819,155.862 267,147.5 267,147.5 267,142.5 267,142.5 267.579,141.343 270,137.009 270,136 270,136 275.5,135 275.5,135 281.743,138.121 288.307,139.904 294.5,143 299.011,145.255 306.061,142.78 310.5,145 315.903,147.701 322.229,149.364 327.5,152 327.5,152 331.5,152 331.5,152 333.503,153.002 335.1,155.3 336.5,156 341.883,158.691 355.681,160.861 358,165.5 358,165.5 358,169.5 358,169.5 358.764,171.028 373.646,180.791 374,181.5 374,181.5 375,188.5 375,188.5 375,188.5 378,190.5 378,190.5 379.141,192.782 378.859,196.218 380,198.5 380,198.5 385,205.5 385,205.5 388.026,211.553 388.174,227.848 392,235.5 392.822,237.145 389.55,254 387,254 387,236.424 385.08,221.661 377,205.5 377,205.5 377,201.5 377,201.5 374.969,197.439 366.077,189.654 366,189.5 364.375,186.249 363.701,181.101 359.5,179 354.835,176.668 351.751,173.125 347.5,171 345.228,169.864 341.843,170.172 339.5,169 339.5,169 337.5,166 337.5,166 329.677,162.089 319.756,168 312,168 312,168 311,167 311,167 311,167 308.5,165 308.5,165 308.5,165 303.5,161 303.5,161 296.49,157.495 282.735,162.382 277.5,165 277.5,165 270,169 270,169 263.755,169 256.803,171.348 251.5,174 244.829,177.336 228.142,173 222,173 222,173 217,170 217,170 211.042,170 183.887,154.726 178,166.5 178,166.5 179,171 179,171  Z"/>

<path  fill="#022CFF" stroke-width="0" stroke="#022CFF" d = " M292 210 L292,211 C297.545,211 301.434,201 306,201 306,195.156 300.997,168 311,168 311,168 311,167 311,167 311,167 308.5,165 308.5,165 308.5,165 303.5,161 303.5,161 296.49,157.495 282.735,162.382 277.5,165 277.5,165 270,169 270,169 270,169 270,170 270,170 274.082,170 276.858,171.179 280.5,173 280.5,173 289.5,174 289.5,174 298.729,178.614 299,184.15 299,194 299,195.591 301.073,201.353 301,201.5 301,201.5 292,210 292,210  Z"/>

<path  fill="#022CFF" stroke-width="0" stroke="#022CFF" d = " M232 220 C235.666,220 238.035,221.268 241.5,223 245.653,225.077 249.466,220 253,220 253,216.74 270.437,216 273,216 273,212.95 279,211.517 279,208 279,208 279,207 279,207 279,207 278,206 278,206 278,202.095 266,204.733 266,201 266,201 264,201 264,201 259.747,201 236.573,202.963 234.5,204 232.481,205.009 225,204.527 225,202 223.607,202 204.523,212.489 201.5,214 198.292,215.604 193.907,210.204 191.5,209 183.826,205.163 190.888,188.723 194,182.5 195.491,179.518 217,174.169 217,170 211.042,170 183.887,154.726 178,166.5 178,166.5 179,171 179,171 179,171 181.5,173 181.5,173 191.365,177.932 182,188.092 182,196 182,196 181,203.5 181,203.5 181,203.5 184,208 184,208 184,208 185,209 185,209 187.118,209 197,216.225 197,218 197,218 198,218 198,218 198,218 205,220 205,220 205,220 210,219 210,219 210,217.527 211.952,218 213,218 218.538,218 223.218,220.141 227.5,218 228.93,217.285 232,218.291 232,220  Z"/>

<path  fill="#814FFF" stroke-width="0" stroke="#814FFF" d = " M349 293 L354,294 C357.949,294 356.95,291 362,291 362,288.799 375,284.473 375,280 375,277.435 374.764,275 378,275 378,267.413 387,261.78 387,254 387,236.424 385.08,221.661 377,205.5 377,205.5 377,201.5 377,201.5 374.969,197.439 366.077,189.654 366,189.5 364.375,186.249 363.701,181.101 359.5,179 354.835,176.668 351.751,173.125 347.5,171 345.228,169.864 341.843,170.172 339.5,169 339.5,169 337.5,166 337.5,166 329.677,162.089 319.756,168 312,168 312,168 311,168 311,168 300.997,168 306,195.156 306,201 306,201 308,201 308,201 310.064,201 308.426,197.647 309,196.5 310.457,193.585 313.336,194.082 315.5,193 315.5,193 316.5,189 316.5,189 316.5,189 320.5,190 320.5,190 320.5,190 323.5,187 323.5,187 323.5,187 325,188.5 325,188.5 325.585,189.67 324.34,198 323.5,198 323.5,198 318.5,194 318.5,194 316.626,194.937 322.531,202.563 323,203.5 323,203.5 321,205.5 321,205.5 321,205.5 322,213 322,213 322,213 327.5,216 327.5,216 331.683,218.091 337.202,217.905 340,223.5 343.674,230.849 348.932,245.636 345,253.5 345,253.5 345,259.5 345,259.5 344.129,261.243 339,267.498 339,269 339,269 335,277.5 335,277.5 336.584,280.667 337.02,277 338.5,277 340.76,277 341.35,284.199 342,285.5 342,285.5 349,293 349,293  Z"/>

<path  fill="#814FFF" stroke-width="0" stroke="#814FFF" d = " M151 271 C151,284.649 144.333,294 130,294 130,292.385 124.78,290.64 123.5,290 117.919,287.21 112.958,282.416 110,276.5 107.607,271.713 105,266.869 105,261 105,259.535 105.109,257 103,257 103,223.418 111.548,186.976 143.5,171 155.558,164.971 166.671,171 179,171 179,171 181.5,173 181.5,173 191.365,177.932 182,188.092 182,196 178.817,196 179.138,190.319 176.5,189 176.5,189 171.5,193 171.5,193 162.964,201.536 169,204.834 169,213 166.285,213 167.667,214.917 165.5,216 165.5,216 160.5,217 160.5,217 160.5,217 157.5,221 157.5,221 157.5,221 152,224.5 152,224.5 148.502,231.495 146,239.562 146,248 146,248 146,258.5 146,258.5 147.578,261.656 151,267.457 151,271  Z"/>

<path  fill="#FF0800" stroke-width="0" stroke="#FF0800" d = " M261 188 C255.743,188 238.364,184.568 233.5,187 231.186,188.157 228.65,192 227,192 227,189.394 228.727,180.954 228,179.5 228,179.5 222,173 222,173 228.142,173 244.829,177.336 251.5,174 256.803,171.348 263.755,169 270,169 270,169 270,170 270,170 267.322,170 256.372,177.245 258,180.5 259.417,183.333 261,184.513 261,188  Z"/>

<path  fill="#00FF1D" stroke-width="0" stroke="#00FF1D" d = " M227 192 C222.779,192 225,198.997 225,202 223.607,202 204.523,212.489 201.5,214 198.292,215.604 193.907,210.204 191.5,209 183.826,205.163 190.888,188.723 194,182.5 195.491,179.518 217,174.169 217,170 217,170 222,173 222,173 222,173 228,179.5 228,179.5 228.727,180.954 227,189.394 227,192  Z"/>

<path  fill="#00FF1D" stroke-width="0" stroke="#00FF1D" d = " M286 211 L289,211 C289,211 292,210 292,210 292,210 301,201.5 301,201.5 301.073,201.353 299,195.591 299,194 299,184.15 298.729,178.614 289.5,174 289.5,174 280.5,173 280.5,173 276.858,171.179 274.082,170 270,170 267.322,170 256.372,177.245 258,180.5 259.417,183.333 261,184.513 261,188 261,192.051 264,193.221 264,197 264,197 265,198 265,198 265,198 266,201 266,201 266,204.733 278,202.095 278,206 278,206 279,207 279,207 279,207 279,208 279,208 279,208 280,210 280,210 280,210 284,210 284,210 284,210 286,211 286,211  Z"/>

<path  fill="#AE00E8" stroke-width="0" stroke="#AE00E8" d = " M264 201 C259.747,201 236.573,202.963 234.5,204 232.481,205.009 225,204.527 225,202 225,198.997 222.779,192 227,192 228.65,192 231.186,188.157 233.5,187 238.364,184.568 255.743,188 261,188 261,192.051 264,193.221 264,197 264,197 264,198 264,198 264,198 264,201 264,201  Z"/>

<path  fill="#FF3427" stroke-width="0" stroke="#FF3427" d = " M287 250 C296.339,250 292.718,261.937 294,264.5 L300.5,271 C301.815,271.658 307.16,270.82 306,268.5 304.682,265.864 303,267.563 303,264 303,264 302,259.5 302,259.5 302.768,257.963 305.085,255.671 304,253.5 303.092,251.684 299.86,246.779 301,244.5 305.67,235.16 305.757,229.743 314,221.5 316.958,218.542 315.94,213 322,213 322,213 321,205.5 321,205.5 321,205.5 323,203.5 323,203.5 322.531,202.563 316.626,194.937 318.5,194 318.5,194 323.5,198 323.5,198 324.34,198 325.585,189.67 325,188.5 325,188.5 323.5,187 323.5,187 323.5,187 320.5,190 320.5,190 320.5,190 316.5,189 316.5,189 316.5,189 315.5,193 315.5,193 313.336,194.082 310.457,193.585 309,196.5 308.426,197.647 310.064,201 308,201 308,207.713 300,217.784 300,219 300,219 298,221 298,221 298,221 289,232 289,232 289,236.7 287,239.3 287,244 288.399,244 288.399,246 287,246 287,246 287,250 287,250  Z"/>

<path  fill="#FF3427" stroke-width="0" stroke="#FF3427" d = " M183 273 L182,274 C182,276.391 188,279.763 188,276.5 188,272.707 190.901,267.698 193,263.5 193.258,262.984 195,247.988 195,247 195,241.196 193,236.082 193,231 190.208,231 185,218.665 185,216 185,216 184,215 184,215 184,213.071 184,211.152 184,209 184,209 184,208 184,208 184,208 181,203.5 181,203.5 181,203.5 182,196 182,196 178.817,196 179.138,190.319 176.5,189 176.5,189 171.5,193 171.5,193 162.964,201.536 169,204.834 169,213 169.371,213 176.236,223.972 177,225.5 177,225.5 175,229.5 175,229.5 176.22,231.94 186,234.4 186,238.5 186,241.204 184.937,241.626 184,243.5 182.277,246.947 188.723,245.053 187,248.5 187,248.5 183,253.5 183,253.5 181.848,255.803 184.312,259.123 185,260.5 185.953,262.405 183.642,263.217 183,264.5 183,264.5 184,269 184,269 186.155,269 186.869,273 183,273  Z"/>

<path  fill="#FF0800" stroke-width="0" stroke="#FF0800" d = " M264 198 L265,198 C265,198 264,197 264,197 264,197 264,198 264,198  Z"/>

<path  fill="#EE7533" stroke-width="0" stroke="#EE7533" d = " M298 221 L289,232 C289,228.292 290,223.081 290,218.5 290,217.31 290.614,214 289,214 289,214 292,211 292,211 297.545,211 301.434,201 306,201 306,201 308,201 308,201 308,207.713 300,217.784 300,219 298.253,219 298,219.253 298,221  Z"/>

<path  fill-rule="evenodd" fill="#EE7533" stroke-width="0" stroke="#EE7533" d = " M192 225 C192,226.266 192.658,231 194.5,231 196.105,231 194.318,225 192,225  M193 231 C195.941,231 196.629,237 198,237 198,229.431 197,225.422 197,218 197,216.225 187.118,209 185,209 185,209 184,209 184,209 184,211.152 184,213.071 184,215 184,215 185,216 185,216 185,218.665 190.208,231 193,231  Z"/>

<path  fill="#006400" stroke-width="0" stroke="#006400" d = " M276 224 L279,227 C281.393,227 282,223.766 282,222 278.036,222 281.258,217 284,217 284,217 286,215 286,215 286,215 284,210 284,210 284,210 280,210 280,210 280,212.496 276,217.504 276,220 276,220 276,224 276,224  Z"/>

<path  fill="#022CFF" stroke-width="0" stroke="#022CFF" d = " M286 211 L289,211 C289,212.486 286,212.486 286,211  Z"/>

<path  fill="#FF91BA" stroke-width="0" stroke="#FF91BA" d = " M183 273 L182,274 C177.304,274 171.161,281.83 165.5,279 165.5,279 153.5,274 153.5,274 153.5,274 151,271 151,271 151,267.457 147.578,261.656 146,258.5 146,258.5 146,248 146,248 146,239.562 148.502,231.495 152,224.5 152,224.5 157.5,221 157.5,221 157.5,221 160.5,217 160.5,217 160.5,217 165.5,216 165.5,216 167.667,214.917 166.285,213 169,213 169.371,213 176.236,223.972 177,225.5 177,225.5 175,229.5 175,229.5 176.22,231.94 186,234.4 186,238.5 186,241.204 184.937,241.626 184,243.5 182.277,246.947 188.723,245.053 187,248.5 187,248.5 183,253.5 183,253.5 181.848,255.803 184.312,259.123 185,260.5 185.953,262.405 183.642,263.217 183,264.5 183,264.5 184,269 184,269 184,269 183,273 183,273  Z"/>

<path  fill="#FF91BA" stroke-width="0" stroke="#FF91BA" d = " M303 264 C308.443,264 306.013,271.257 309.5,273 L323.5,279 C329.252,281.876 333.411,269 339,269 339,267.498 344.129,261.243 345,259.5 345,259.5 345,253.5 345,253.5 348.932,245.636 343.674,230.849 340,223.5 337.202,217.905 331.683,218.091 327.5,216 327.5,216 322,213 322,213 315.94,213 316.958,218.542 314,221.5 305.757,229.743 305.67,235.16 301,244.5 299.86,246.779 303.092,251.684 304,253.5 305.085,255.671 302.768,257.963 302,259.5 302,259.5 303,264 303,264  Z"/>

<path  fill="#0008B6" stroke-width="0" stroke="#0008B6" d = " M266 278 L267,278 C267,278 274,270.5 274,270.5 275.49,267.52 287,250.635 287,250 287,250 287,246 287,246 285.601,246 285.601,244 287,244 287,239.3 289,236.7 289,232 289,228.292 290,223.081 290,218.5 290,217.31 290.614,214 289,214 289,214 286,215 286,215 286,215 284,217 284,217 284,217 282,222 282,222 282,223.766 281.393,227 279,227 279,227 277,232 277,232 277,240.819 286.275,251 269,251 269,251 266,254 266,254 266,254 263,258 263,258 263,259.946 268.232,263.036 267,265.5 263.702,272.096 260,266.759 260,262 260,262 256,262 256,262 256,262 253,263 253,263 253,265.871 252.003,268.506 253,270.5 253,270.5 260,277 260,277 260,277 264,277 264,277 264,277 266,278 266,278  Z"/>

<path  fill="#FFFC00" stroke-width="0" stroke="#FFFC00" d = " M267 250 L269,251 C286.275,251 277,240.819 277,232 275.265,232 276,225.49 276,224 276,224 276,220 276,220 274.288,220 273,217.429 273,216 270.437,216 253,216.74 253,220 253,220 257,225.5 257,225.5 258.907,229.315 258.855,236.209 260,238.5 261.877,242.255 267,245.571 267,250  Z"/>

<path  fill="#0008B6" stroke-width="0" stroke="#0008B6" d = " M232 263 L228,265 C228,274.42 221,268.68 221,260 221,256.317 215,252.908 215,251 215,251 211,248 211,248 211,248 210,247 210,247 210,241.954 209,235.675 209,230 209,230 204.5,224 204.5,224 204.5,224 198,218 198,218 198,218 197,218 197,218 197,225.422 198,229.431 198,237 198,240.423 199,242.746 199,245 199,253.071 205.298,264.899 213.5,269 216.13,270.315 215.176,273.662 218.5,272 218.5,272 222.5,275 222.5,275 226.78,277.14 233.215,272.07 235,268.5 235,268.5 234,265 234,265 234,265 232,263 232,263  Z"/>

<path  fill="#FFFC00" stroke-width="0" stroke="#FFFC00" d = " M211 248 L215,251 C228.161,251 224.427,236.645 228,229.5 229.566,226.369 232,223.758 232,220 232,218.291 228.93,217.285 227.5,218 223.218,220.141 218.538,218 213,218 213,218 210,221 210,221 210,221 209,225 209,225 209,225 209,230 209,230 209,235.675 210,241.954 210,247 210,247 211,248 211,248  Z"/>

<path  fill="#006400" stroke-width="0" stroke="#006400" d = " M210 221 L209,225 C206.04,225 205,222.601 205,220 205,220 210,219 210,219 210,219 210,221 210,221  Z"/>

<path  fill-rule="evenodd" fill="#006400" stroke-width="0" stroke="#006400" d = " M254 254 L252,255.5 C249.436,260.628 259.732,259.964 258,256.5 L256,255.5 L254,254  M232 254 L230,258.5 C231.759,262.018 240.591,254 232,254  M246 263 C248.447,263 249.28,263 252,263 252,261.179 256,259.882 256,262 256,262 260,262 260,262 260,262 263,258 263,258 263,258 266,254 266,254 264.378,254 267,251.429 267,250 267,245.571 261.877,242.255 260,238.5 258.855,236.209 258.907,229.315 257,225.5 257,225.5 253,220 253,220 249.466,220 245.653,225.077 241.5,223 238.035,221.268 235.666,220 232,220 232,223.758 229.566,226.369 228,229.5 224.427,236.645 228.161,251 215,251 215,252.908 221,256.317 221,260 223.912,260 228,261.516 228,265 228,265 232,263 232,263 232,263 234,263 234,263 237.313,263 238.49,265 241,265 241,262.855 240.944,254.613 242,252.5 242,252.5 245,252.5 245,252.5 245,252.5 244,258.5 244,258.5 244,258.5 246,263 246,263  Z"/>

<path  fill="#ADFF2F" stroke-width="0" stroke="#ADFF2F" d = " M192 225 C192,226.266 192.658,231 194.5,231 196.105,231 194.318,225 192,225  Z"/>

<path  fill="#E1F00D" stroke-width="0" stroke="#E1F00D" d = " M211 330 L206.5,328 L195.5,333 L181.5,336 C171.995,340.752 161.942,343.279 152.5,348 148.402,350.049 137,347.731 137,344 137,344 139,340.5 139,340.5 140.389,337.721 138.094,318.688 137,316.5 134.096,310.692 134.174,301.847 133,299.5 133,299.5 130,294 130,294 144.333,294 151,284.649 151,271 151,271 153.5,274 153.5,274 153.5,274 165.5,279 165.5,279 171.161,281.83 177.304,274 182,274 182,276.391 188,279.763 188,276.5 188,272.707 190.901,267.698 193,263.5 193.258,262.984 195,247.988 195,247 195,247 199,245 199,245 199,253.071 205.298,264.899 213.5,269 216.13,270.315 215.176,273.662 218.5,272 218.5,272 222.5,275 222.5,275 226.78,277.14 233.215,272.07 235,268.5 235,268.5 234,265 234,265 234,265 234,263 234,263 237.313,263 238.49,265 241,265 241,279.519 242,295.794 242,311 242,313.253 240.799,325.85 244.5,324 244.5,324 245,309.5 245,309.5 245,293.938 246,276.711 246,263 248.447,263 249.28,263 252,263 252,263 253,263 253,263 253,265.871 252.003,268.506 253,270.5 253,270.5 260,277 260,277 260,277 257,280.5 257,280.5 255.36,283.78 258.787,289.074 260,291.5 261.572,294.644 255.527,311.445 254,314.5 251.137,320.226 256.633,327 262,327 262,327 261,329 261,329 259.302,329 255.11,330.195 253.5,331 249.929,332.786 235.052,331 232,331 232,327.513 226,328.773 226,327 226,327 232,321.5 232,321.5 234.134,317.232 225.028,307.445 228,301.5 229.998,297.505 227.058,291.383 229,287.5 230.33,284.84 233.869,280.238 232,276.5 230.746,273.991 225.552,277.474 224.5,278 224.5,278 217.5,279 217.5,279 214.223,280.639 212.456,287.588 211,290.5 207.935,296.629 214.304,297.107 216,300.5 218.167,304.833 215.636,312.773 216,313.5 218.357,318.215 220,322.173 220,327 220,327 220,328 220,328 216.699,328 212.477,330 211,330  Z"/>

<path  fill="#006400" stroke-width="0" stroke="#006400" d = " M210 247 L211,248 C211,248 210,247 210,247  Z"/>

<path  fill="#E1F00D" stroke-width="0" stroke="#E1F00D" d = " M279 328 C279,324.37 289.649,322.575 292.5,324 L299.5,331 C305.407,333.954 311.668,336.084 317.5,339 320.159,340.329 323.182,344.341 326.5,346 328.54,347.02 340,348.28 340,346 340,339.184 353.106,336.289 356,330.5 356,330.5 357,323.5 357,323.5 357,323.5 363,312.5 363,312.5 364.981,308.538 370.398,291 362,291 356.95,291 357.949,294 354,294 354,307.391 340.224,293 349,293 349,293 342,285.5 342,285.5 341.35,284.199 340.76,277 338.5,277 337.02,277 336.584,280.667 335,277.5 335,277.5 339,269 339,269 333.411,269 329.252,281.876 323.5,279 323.5,279 309.5,273 309.5,273 306.013,271.257 308.443,264 303,264 303,267.563 304.682,265.864 306,268.5 307.16,270.82 301.815,271.658 300.5,271 300.5,271 294,264.5 294,264.5 292.718,261.937 296.339,250 287,250 287,250.635 275.49,267.52 274,270.5 274,270.5 267,278 267,278 272.06,278 279.549,288.401 277,293.5 274.436,298.627 273.503,304.493 271,309.5 269.728,312.044 266.476,313.548 265,316.5 265,316.5 267,322.5 267,322.5 267,322.5 265,326 265,326 266.238,326 268,326.423 268,328 271.355,328 275.645,328 279,328  Z"/>

<path  fill="#022CFF" stroke-width="0" stroke="#022CFF" d = " M246 263 C246,276.711 245,293.938 245,309.5 L244.5,324 C240.799,325.85 242,313.253 242,311 242,295.794 241,279.519 241,265 241,262.855 240.944,254.613 242,252.5 242,252.5 245,252.5 245,252.5 245,252.5 244,258.5 244,258.5 244,258.5 246,263 246,263  Z"/>

<path  fill="#15C0FF" stroke-width="0" stroke="#15C0FF" d = " M232 254 L230,258.5 C231.759,262.018 240.591,254 232,254  Z"/>

<path  fill="#15C0FF" stroke-width="0" stroke="#15C0FF" d = " M254 254 L252,255.5 C249.436,260.628 259.732,259.964 258,256.5 L256,255.5 L254,254  Z"/>

<path  fill="#15C0FF" stroke-width="0" stroke="#15C0FF" d = " M263 258 L260,262 C260,266.759 263.702,272.096 267,265.5 268.232,263.036 263,259.946 263,258  Z"/>

<path  fill="#15C0FF" stroke-width="0" stroke="#15C0FF" d = " M221 260 C223.912,260 228,261.516 228,265 228,274.42 221,268.68 221,260  Z"/>

<path  fill="#E1F00D" stroke-width="0" stroke="#E1F00D" d = " M184 269 C186.155,269 186.869,273 183,273 183,273 184,269 184,269  Z"/>

<path  fill="#E278A1" stroke-width="0" stroke="#E278A1" d = " M220 327 L226,327 C226,327 232,321.5 232,321.5 234.134,317.232 225.028,307.445 228,301.5 229.998,297.505 227.058,291.383 229,287.5 230.33,284.84 233.869,280.238 232,276.5 230.746,273.991 225.552,277.474 224.5,278 224.5,278 217.5,279 217.5,279 214.223,280.639 212.456,287.588 211,290.5 207.935,296.629 214.304,297.107 216,300.5 218.167,304.833 215.636,312.773 216,313.5 218.357,318.215 220,322.173 220,327  Z"/>

<path  fill="#E278A1" stroke-width="0" stroke="#E278A1" d = " M265 326 C265,327.473 263.048,327 262,327 256.633,327 251.137,320.226 254,314.5 255.527,311.445 261.572,294.644 260,291.5 258.787,289.074 255.36,283.78 257,280.5 257,280.5 260,277 260,277 260,277 264,277 264,277 264,277.896 266,280.026 266,278 266,278 267,278 267,278 272.06,278 279.549,288.401 277,293.5 274.436,298.627 273.503,304.493 271,309.5 269.728,312.044 266.476,313.548 265,316.5 265,316.5 267,322.5 267,322.5 267,322.5 265,326 265,326  Z"/>

<path  fill="#E1F00D" stroke-width="0" stroke="#E1F00D" d = " M264 277 L266,278 C266,280.026 264,277.896 264,277  Z"/>

<path  fill="#FFBB00" stroke-width="0" stroke="#FFBB00" d = " M349 293 L354,294 C354,307.391 340.224,293 349,293  Z"/>

<path  fill="#267EFF" stroke-width="0" stroke="#267EFF" d = " M261 329 C259.302,329 255.11,330.195 253.5,331 249.929,332.786 235.052,331 232,331 228.304,331 224.002,328 220,328 216.699,328 212.477,330 211,330 211,331.928 207.555,335.528 210.5,337 219.127,341.314 242.912,338 254.5,338 257.806,338 264.778,340.861 268.5,339 270.741,337.879 278.933,336.635 280,334.5 280.666,333.168 281.757,328 279,328 275.645,328 271.355,328 268,328 268,328 261,329 261,329  Z"/>

<path  fill-rule="evenodd" fill="#FA8072" stroke-width="0" stroke="#FA8072" d = " M302 360 C302,361.93 303.93,360 302,360  M304 345 C304,349.499 300.581,344.96 298.5,346 296.002,347.249 282.062,356.376 281,358.5 280.036,360.427 281.272,364.045 282,365.5 L281,376.5 C284.294,383.088 290.31,382.12 293,387.5 L294.5,391 L300.5,389 C301.783,389.642 302.595,391.953 304.5,391 L307.5,387 C310.516,385.492 319.305,384.889 321,381.5 L322,374.5 C323.563,371.374 332.39,370.281 329,363.5 327.55,360.601 323.141,360.782 322,358.5 L322,353.5 C320.607,350.714 317.305,351.109 316,348.5 L314.5,345 C312.876,344.188 306.328,345 304,345  Z"/>

<path  fill-rule="evenodd" fill="#FA8072" stroke-width="0" stroke="#FA8072" d = " M195 371 C195,372.93 196.93,371 195,371  M182 349 C182,351.459 176.613,350.444 175.5,351 173.762,351.869 169.134,360 167.5,360 165.14,360 162.973,357.555 161,361.5 159.735,364.03 161.052,369.776 163.5,371 L166.5,370 L170,375.5 L170,379.5 C171.484,382.469 174.761,385.261 177.5,388 L178.5,391 L181.5,389 C187.138,386.181 184.996,393.748 187.5,395 197.171,399.836 199.736,387.382 200.5,387 202.376,386.062 206.881,386.739 208,384.5 209.078,382.345 210.321,374.143 209,371.5 L203,366.5 C202.143,364.786 202.776,362.138 200.5,361 L195.5,360 L194,353.5 C192.892,351.284 184.341,349 182,349  Z"/>

<path  fill="#FA8072" stroke-width="0" stroke="#FA8072" d = " M121 354 C121,371.267 128.558,367.029 140.5,373 142.262,373.881 151.261,384.977 155,377.5 157.889,371.722 148.456,367.978 144.5,366 L140.5,360 C134.299,356.9 128.327,354 121,354  Z"/>

<path  fill="#FA8072" stroke-width="0" stroke="#FA8072" d = " M361 355 C361,358.415 355.642,358.217 354,361.5 352.775,363.95 356.909,369.296 359.5,368 365.097,365.202 374.827,355 361,355  Z"/>

<path  fill="#FA8072" stroke-width="0" stroke="#FA8072" d = " M352 359 C352,372.579 341.7,363.1 338,370.5 337.076,372.348 342.94,378 343.5,378 L345.5,374 C348.523,372.488 351.228,377.045 354,371.5 354.387,370.726 352.507,359 352,359  Z"/>

</g>
</svg>
