<svg xmlns="http://www.w3.org/2000/svg" xmlns:xlink="http://www.w3.org/1999/xlink" height="512" width="512">
<g>
<rect width="512" height="512" fill="#000000"  stroke-width="0" /> 
<path  fill-rule="evenodd" fill="#86FF5A" stroke-width="0" stroke="#86FF5A" d = " M243 390 C243,391.602 239.942,392.384 241,394.5 245.589,403.678 252.254,390 243,390  M240 349 C240,351.064 236.647,349.426 235.5,350 231.231,352.135 225.879,351.81 221.5,354 L218.5,358 C210.014,362.243 209.143,365.214 205,373.5 L199,378.5 C197.519,381.462 197.546,385.409 196,388.5 L196,396 C196,407.5 198.886,421.693 209.5,427 L215.5,433 C222.423,436.462 235.157,437.671 242.5,434 L244.5,431 C245.984,430.258 251.728,435.114 253.5,436 265.665,442.082 286.696,425.108 291,416.5 L291,403.5 C296.632,392.237 293.139,388.778 288,378.5 286.847,376.194 289.109,374.718 288,372.5 287.825,372.15 280.86,364.18 280.5,364 279.734,363.617 277,364.316 277,362.5 277,352.443 249.851,349 240,349  Z"/>

<path  fill="#EB57FF" stroke-width="0" stroke="#EB57FF" d = " M243 390 C243,391.602 239.942,392.384 241,394.5 245.589,403.678 252.254,390 243,390  Z"/>

</g>
</svg>
