<svg xmlns="http://www.w3.org/2000/svg" xmlns:xlink="http://www.w3.org/1999/xlink" height="512" width="512">
<g>
<rect width="512" height="512" fill="#000000"  stroke-width="0" /> 
<path  fill-rule="evenodd" fill="#86FF5A" stroke-width="0" stroke="#86FF5A" d = " M248 328 L247,329 C247,330.244 244.521,330.541 244,329.5 242.159,325.818 239.008,309.746 244.5,307 250.095,304.203 248,324.504 248,328  M310 309 C310,313.301 302.535,315.43 301,318.5 L301,324.5 C296.411,333.677 284.731,334.385 277.5,338 L269.5,338 C267.277,339.112 261.42,341.46 258.5,340 254.924,338.212 251.138,336.819 247.5,335 L244.5,331 L241,334.5 L234.5,339 C231.332,340.584 220.202,339.351 217.5,338 L204.5,336 C194.128,330.814 192.646,325.792 188,316.5 187.319,315.138 184,311.656 184,311 185.394,311 186.88,310.259 186,308.5 186,308.5 182.5,308 182.5,308 177.971,305.735 175.98,301.461 174,297.5 171.813,293.125 175.294,281.912 177,278.5 177,278.5 186,269.5 186,269.5 186,269.5 185,266 185,266 185,263.127 207.588,257.044 211.5,259 223.965,265.233 219.161,259 224.5,259 224.5,259 235.5,270 235.5,270 240.487,272.493 244.069,268 248.5,268 248.5,268 253.5,270 253.5,270 257.628,267.936 260.054,265.223 264.5,263 268.727,260.886 274.193,261.154 278.5,259 283.468,256.516 305,264.706 305,269 305,275.936 313.049,282.598 316,288.5 318.893,294.286 310,304.633 310,309  M239 285 C239,288.805 235.131,292.762 237,296.5 241.693,305.887 253,296.659 253,289.5 L249,285 C251.638,285 248.667,283 247,283 247,281.601 245,281.601 245,283 245,283 243,284 243,284 241.855,284 239,283.421 239,285  Z"/>

<path  fill="#FA8072" stroke-width="0" stroke="#FA8072" d = " M185 266 C182.022,266 180.028,269.472 178.5,271 175.442,274.058 172.093,277.314 170,281.5 165.335,290.829 172.445,311 184,311 185.394,311 186.88,310.259 186,308.5 186,308.5 182.5,308 182.5,308 177.971,305.735 175.98,301.461 174,297.5 171.813,293.125 175.294,281.912 177,278.5 177,278.5 186,269.5 186,269.5 186,269.5 185,266 185,266  Z"/>

<path  fill="#FA8072" stroke-width="0" stroke="#FA8072" d = " M305 269 C312.618,269 317.572,287.643 320,292.5 320.777,294.054 317.681,299.138 317,300.5 315.584,303.333 314.818,309 310,309 310,304.633 318.893,294.286 316,288.5 313.049,282.598 305,275.936 305,269  Z"/>

<path  fill="#EB57FF" stroke-width="0" stroke="#EB57FF" d = " M245 283 L247,283 C247,281.601 245,281.601 245,283  Z"/>

<path  fill="#EB57FF" stroke-width="0" stroke="#EB57FF" d = " M239 285 C239,288.805 235.131,292.762 237,296.5 241.693,305.887 253,296.659 253,289.5 L249,285 C246.876,285 244.564,284 243,284 243,285.579 240.145,285 239,285  Z"/>

<path  fill="#7209D4" stroke-width="0" stroke="#7209D4" d = " M248 328 L247,329 C247,330.244 244.521,330.541 244,329.5 242.159,325.818 239.008,309.746 244.5,307 250.095,304.203 248,324.504 248,328  Z"/>

</g>
</svg>
