<svg xmlns="http://www.w3.org/2000/svg" xmlns:xlink="http://www.w3.org/1999/xlink" height="512" width="512">
<g>
<rect width="512" height="512" fill="#000000"  stroke-width="0" /> 
<path  fill="#03C12D" stroke-width="0" stroke="#03C12D" d = " M136 322 C125.426,322 120.083,320.291 111.5,316 L103.5,316 L90,304.5 C86.9727,298.445 86.0268,291.554 83,285.5 80.6393,280.779 76.3297,277.159 74,272.5 72.442,269.384 73.7204,261.941 71,256.5 L71,248.5 L75,247.5 L72,241.5 C72,239.829 75.3819,238.264 74,235.5 71.3439,230.188 69.6117,224.723 67,219.5 66.1568,217.814 69.3157,213.869 70,212.5 L70,205 C70,201.597 66.2192,195.062 68,191.5 71.8451,183.81 72.9489,166.602 77,158.5 L82,152.5 C93.2813,129.937 109.268,122.616 130.5,112 133.173,110.663 141.023,111.238 141.5,111 143.364,110.068 146.042,108.229 148.5,107 L153.5,107 C159.712,103.894 167.394,104.053 173.5,101 L180.5,102 C190.177,97.1615 218.829,93.6647 229.5,99 233.845,101.173 233.288,104.894 235.5,106 243.04,109.77 247.786,99.3572 252.5,97 256.661,94.9196 278.861,90.6807 283.5,93 288.616,95.5579 297.582,92.0408 303.5,95 312.028,99.2641 321.95,99.725 330.5,104 L342.5,105 C349.453,108.476 356.578,110.539 363.5,114 L372.5,116 L381.5,125 C385.159,126.83 395.019,130.538 397,134.5 L397,137.5 C399.262,142.024 407.112,146.724 410,152.5 414.445,161.391 416.54,171.579 421,180.5 424.644,187.787 420.425,208.349 421,209.5 L424,213.5 C425.35,216.2 425.38,238.739 424,241.5 422.919,243.663 420.62,244.26 420,245.5 419.139,247.222 423.273,246.953 422,249.5 419.093,255.313 417.85,261.801 415,267.5 412.997,271.505 409.055,274.391 407,278.5 L406,284.5 L408,287.5 C405.733,292.033 399.594,294.953 395.5,297 L392,302.5 C389.902,306.697 370.923,321.789 366.5,324 363.527,325.487 360.585,323.043 358.5,322 L349,324 C349,319.359 345.846,292.808 348,288.5 348,288.5 350,284 350,284 350,284 351,284 351,284 351,284 352,283 352,283 352,283 354,281 354,281 354,281 355,280 355,280 355,280 358,274 358,274 358,274 359,273 359,273 359,272.069 367.756,258.744 368.5,258 368.5,258 372,253 372,253 373.399,253 373.399,251 372,251 372,251 374,246 374,246 375.71,246 374.344,250.078 376.5,249 380.572,246.964 377.509,242.481 379,239.5 380.147,237.207 379.712,211.925 378,208.5 375.996,204.493 375.674,199.848 374,196.5 371.719,191.938 366.068,189.636 364,185.5 364,185.5 362,179.5 362,179.5 360.809,177.118 359.155,178.827 357.5,178 357.5,178 344.5,167 344.5,167 338.789,164.145 332.154,162.827 326.5,160 322.13,157.815 316.073,154 311,154 305.802,154 289.689,150.595 284.5,148 282.425,146.963 277,148.344 277,151 269.003,151 248.817,127.341 239.5,132 233.411,135.045 228.555,139.972 222.5,143 220.367,144.066 209,149.184 209,153 209,153 204.5,150 204.5,150 201.25,151.625 196.673,150.414 193.5,152 182.129,157.685 165.676,157.412 156.5,162 151.382,164.559 146.529,167.485 141.5,170 141.5,170 132.5,178 132.5,178 132.5,178 119,191.5 119,191.5 116.156,197.187 116.273,204.954 113,211.5 113,211.5 113,221.5 113,221.5 111.902,223.695 110.788,246.076 112,248.5 112,248.5 123,268.5 123,268.5 124.52,271.54 130,271.999 130,276 130,277.399 132,277.399 132,276 132,276 133,276 133,276 133,282.639 147,289.716 147,292 144.538,292 146.9,302.701 146,304.5 143.257,309.986 135.084,311.333 134,313.5 134,313.5 136,322 136,322  Z"/>

<path  fill="#1D68EB" stroke-width="0" stroke="#1D68EB" d = " M249 177 C249,169.594 240,171.04 240,178 227.538,178 219.213,172.926 214,162.5 212.317,159.134 209,157.019 209,153 209,149.184 220.367,144.066 222.5,143 228.555,139.972 233.411,135.045 239.5,132 248.817,127.341 269.003,151 277,151 277,157.203 267.031,173.734 260.5,177 260.5,177 249,177 249,177  Z"/>

<path  fill="#FF6E00" stroke-width="0" stroke="#FF6E00" d = " M132 276 L133,276 C133,272.291 122.053,259.606 120,255.5 115.48,246.461 117,232.831 117,222 117,220.952 116.527,219 118,219 118,219 119,214 119,214 119,214 120,213 120,213 120,192.121 137.312,181.094 153.5,173 158.032,170.734 163.906,171.297 168.5,169 174.348,166.076 193.01,170.755 197.5,173 199.137,173.819 205,174.175 205,177 205,177 207,178 207,178 209.588,178 221,184.584 221,188 224.63,188 226.52,190.51 229.5,192 229.5,192 253.5,192 253.5,192 255.671,190.914 265.243,186 267,186 271.317,186 275.177,179 279,179 279,179 282,176 282,176 282.483,176 289.49,171 294,171 294,171 295,170 295,170 295,167.561 312.918,165.209 316.5,167 319.481,168.49 323.608,167.554 326.5,169 339.035,175.268 345.678,174.178 356.5,185 359.34,187.84 366,194.146 366,198 366,198 367,200 367,200 367,203.073 372,210.874 372,215 372,215 373,216 373,216 373,223.828 374,232.582 374,241 374,241.839 375.93,243 374,243 374,243 374,246 374,246 375.71,246 374.344,250.078 376.5,249 380.572,246.964 377.509,242.481 379,239.5 380.147,237.207 379.712,211.925 378,208.5 375.996,204.493 375.674,199.848 374,196.5 371.719,191.938 366.068,189.636 364,185.5 364,185.5 362,179.5 362,179.5 360.809,177.118 359.155,178.827 357.5,178 357.5,178 344.5,167 344.5,167 338.789,164.145 332.154,162.827 326.5,160 322.13,157.815 316.073,154 311,154 305.802,154 289.689,150.595 284.5,148 282.425,146.963 277,148.344 277,151 277,157.203 267.031,173.734 260.5,177 260.5,177 249,177 249,177 249,178.751 241.574,178 240,178 227.538,178 219.213,172.926 214,162.5 212.317,159.134 209,157.019 209,153 209,153 204.5,150 204.5,150 201.25,151.625 196.673,150.414 193.5,152 182.129,157.685 165.676,157.412 156.5,162 151.382,164.559 146.529,167.485 141.5,170 141.5,170 132.5,178 132.5,178 132.5,178 119,191.5 119,191.5 116.156,197.187 116.273,204.954 113,211.5 113,211.5 113,221.5 113,221.5 111.902,223.695 110.788,246.076 112,248.5 112,248.5 123,268.5 123,268.5 124.52,271.54 130,271.999 130,276 130,276 132,276 132,276  Z"/>

<path  fill="#814FFF" stroke-width="0" stroke="#814FFF" d = " M350 284 L351,284 C351,284 352,283 352,283 352,281.253 352.253,281 354,281 354,281 355,280 355,280 355,280 358,274 358,274 358,274 359,273 359,273 359,272.069 367.756,258.744 368.5,258 368.5,258 372,253 372,253 372,253 372,251 372,251 372,251 374,246 374,246 374,246 374,243 374,243 372.601,243 372.601,241 374,241 374,232.582 373,223.828 373,216 373,216 372,215 372,215 372,210.874 367,203.073 367,200 367,200 366,198 366,198 366,194.146 359.34,187.84 356.5,185 345.678,174.178 339.035,175.268 326.5,169 323.608,167.554 319.481,168.49 316.5,167 312.918,165.209 295,167.561 295,170 295,170 294,171 294,171 289.49,171 282.483,176 282,176 282,177.238 281.577,179 280,179 280,182.1 274.249,187.997 276,191.5 279.625,198.749 283.112,235.277 279,243.5 276.876,247.748 284.2,260.65 281.5,262 279.505,262.997 278,256.927 278,256 278,256 275,256 275,256 275,256 273,258 273,258 273,259.643 270.692,268 274,268 276.468,268 278.858,262.679 281.5,264 285.791,266.146 299.725,277.387 290.5,282 283.414,285.543 279.158,272 274,272 274,282.355 297.913,294.413 304.5,301 306.475,302.975 312.061,313.781 312.5,314 315.114,315.307 317.74,309.88 319.5,309 322.914,307.293 326.414,310.543 329.5,309 333.984,306.758 333.422,293.039 345.5,287 345.5,287 350,284 350,284  Z"/>

<path  fill="#814FFF" stroke-width="0" stroke="#814FFF" d = " M205 282 L201,293.5 L201,299.5 L198,302.5 C195.994,306.512 203.742,305.016 202,308.5 199.977,312.546 195.08,311 192.5,311 188.753,311 189.586,316.957 187.5,318 185.58,318.96 183.495,313.998 181.5,313 L178,316 C175.499,316 174.502,312 171.5,312 L168.5,313 C166.487,311.994 165.884,307.269 165,305.5 L160,301.5 C159.191,299.882 159.79,298.145 157.5,297 L154.5,298 C152.151,296.826 153.419,292 147,292 147,289.716 133,282.639 133,276 133,272.291 122.053,259.606 120,255.5 115.48,246.461 117,232.831 117,222 118.473,222 118,220.048 118,219 118,219 119,214 119,214 119,214 120,213 120,213 120,192.121 137.312,181.094 153.5,173 158.032,170.734 163.906,171.297 168.5,169 174.348,166.076 193.01,170.755 197.5,173 199.137,173.819 205,174.175 205,177 205,177 207,179 207,179 207,183.411 210.177,185.853 212,189.5 214.487,194.474 209.925,205.65 208,209.5 208,209.5 208,243 208,243 208,248.205 206,253.269 206,257.5 206,257.5 206.5,263 206.5,263 209.178,264.339 209.45,254 211,254 211,254 214,255 214,255 214,255 217,259 217,259 217,260.397 217.363,268 214,268 210.848,268 208.545,262.978 204.5,265 200.847,266.826 193.949,276.398 196,280.5 196,280.5 205,282 205,282  Z"/>

<path  fill="#022CFF" stroke-width="0" stroke="#022CFF" d = " M211 252 L211,254 C209.45,254 209.178,264.339 206.5,263 206.5,263 206,257.5 206,257.5 206,253.269 208,248.205 208,243 208,243 208,209.5 208,209.5 209.925,205.65 214.487,194.474 212,189.5 210.177,185.853 207,183.411 207,179 207,179 207,178 207,178 209.588,178 221,184.584 221,188 221,188.565 215.77,193.959 215,195.5 215,195.5 215,200.5 215,200.5 212.842,204.816 212.102,209.297 210,213.5 210,213.5 211,252 211,252  Z"/>

<path  fill="#022CFF" stroke-width="0" stroke="#022CFF" d = " M277 253 L278,256 C278,256.927 279.505,262.997 281.5,262 284.2,260.65 276.876,247.748 279,243.5 283.112,235.277 279.625,198.749 276,191.5 274.249,187.997 280,182.1 280,179 280,179 279,179 279,179 275.177,179 271.317,186 267,186 267,188.635 270.97,187.44 272,189.5 272,189.5 277,204.5 277,204.5 277,204.5 277,219.5 277,219.5 277,230.46 277,242.619 277,253  Z"/>

<path  fill="#FF0800" stroke-width="0" stroke="#FF0800" d = " M273 258 C272.096,258 252.539,265.98 250.5,267 249.944,267.278 226.486,264.493 225.5,264 222.515,262.507 220.596,259 217,259 217,259 214,255 214,255 214,255 211,252 211,252 211,252 210,213.5 210,213.5 212.102,209.297 212.842,204.816 215,200.5 215,200.5 215,195.5 215,195.5 215.77,193.959 221,188.565 221,188 224.63,188 226.52,190.51 229.5,192 229.5,192 253.5,192 253.5,192 255.671,190.914 265.243,186 267,186 267,188.635 270.97,187.44 272,189.5 272,189.5 277,204.5 277,204.5 277,204.5 277,219.5 277,219.5 277,230.46 277,242.619 277,253 275.423,253 275,254.762 275,256 275,256 273,258 273,258  Z"/>

<path  fill="#FF6E00" stroke-width="0" stroke="#FF6E00" d = " M372 251 C373.399,251 373.399,253 372,253 372,253 372,251 372,251  Z"/>

<path  fill="#E1F00D" stroke-width="0" stroke="#E1F00D" d = " M191 350 C186.637,350 183.057,352 179,352 171.642,352 160.799,351.15 154.5,348 154.5,348 146.5,340 146.5,340 143.758,338.629 140.971,341.441 139,337.5 139,337.5 139,326.5 139,326.5 139,326.5 136,322 136,322 136,322 134,313.5 134,313.5 135.084,311.333 143.257,309.986 146,304.5 146.9,302.701 144.538,292 147,292 153.419,292 152.151,296.826 154.5,298 154.5,298 157.5,297 157.5,297 159.79,298.145 159.191,299.882 160,301.5 160,301.5 165,305.5 165,305.5 165.884,307.269 166.487,311.994 168.5,313 168.5,313 171.5,312 171.5,312 174.502,312 175.499,316 178,316 178,316 181.5,313 181.5,313 183.495,313.998 185.58,318.96 187.5,318 189.586,316.957 188.753,311 192.5,311 195.08,311 199.977,312.546 202,308.5 203.742,305.016 195.994,306.512 198,302.5 198,302.5 201,299.5 201,299.5 201,299.5 201,293.5 201,293.5 201,293.5 205,282 205,282 205,282 206,281 206,281 207.465,281 213.92,273.66 215,271.5 215,271.5 214,268 214,268 217.363,268 217,260.397 217,259 220.596,259 222.515,262.507 225.5,264 226.486,264.493 249.944,267.278 250.5,267 252.539,265.98 272.096,258 273,258 273,259.643 270.692,268 274,268 274,268 274,272 274,272 274,282.355 297.913,294.413 304.5,301 306.475,302.975 312.061,313.781 312.5,314 315.114,315.307 317.74,309.88 319.5,309 322.914,307.293 326.414,310.543 329.5,309 333.984,306.758 333.422,293.039 345.5,287 345.5,287 350,284 350,284 350,284 348,288.5 348,288.5 345.846,292.808 349,319.359 349,324 349,324 349,329.5 349,329.5 347.648,332.203 345.416,330.042 343.5,331 343.5,331 337.5,339 337.5,339 335.768,339.866 334.696,338.402 333.5,339 333.5,339 326.5,344 326.5,344 322.64,345.93 319.404,338.048 315.5,340 312.72,341.39 310.041,345.729 309.5,346 301.245,350.128 278.498,338.496 275,331.5 273.505,328.51 274.426,324.351 273,321.5 273,321.5 263.5,317 263.5,317 255.726,313.113 250.891,305.695 243.5,302 243.5,302 239.5,306 239.5,306 234.621,308.44 232.085,312.415 228,316.5 228,316.5 215.5,326 215.5,326 215.5,326 209,327.5 209,327.5 209,327.5 209,335.5 209,335.5 205.573,342.354 199.561,350 191,350  Z"/>

<path  fill="#7CFC00" stroke-width="0" stroke="#7CFC00" d = " M274 268 C276.468,268 278.858,262.679 281.5,264 285.791,266.146 299.725,277.387 290.5,282 283.414,285.543 279.158,272 274,272 274,272 274,268 274,268  Z"/>

<path  fill="#7CFC00" stroke-width="0" stroke="#7CFC00" d = " M206 281 L205,282 C205,282 196,280.5 196,280.5 193.949,276.398 200.847,266.826 204.5,265 208.545,262.978 210.848,268 214,268 214,268 215,271.5 215,271.5 213.92,273.66 207.465,281 206,281  Z"/>

<path  fill="#814FFF" stroke-width="0" stroke="#814FFF" d = " M206 281 L205,282 C205,282 206,281 206,281  Z"/>

<path  fill="#267EFF" stroke-width="0" stroke="#267EFF" d = " M248 321 C248,323.39 239.144,321.178 237.5,322 231.662,324.919 231.549,328.402 229,333.5 227.76,335.979 234.599,336 236,336 242.964,336 254.569,337.966 260.5,335 267.482,331.509 258.991,326.491 257,324.5 254.022,321.522 252.166,321 248,321  Z"/>

<path  fill="#FA8072" stroke-width="0" stroke="#FA8072" d = " M107 332 L106,335.5 C108.226,339.951 113.107,332 107,332  Z"/>

<path  fill="#FA8072" stroke-width="0" stroke="#FA8072" d = " M362 334 C362,336.27 359.936,337.627 359,339.5 357.976,341.547 361.597,346 363.5,346 370.28,346 367.99,334 362,334  Z"/>

<path  fill="#FA8072" stroke-width="0" stroke="#FA8072" d = " M114 335 L113,338.5 C114.248,340.996 124.165,343.332 127.5,345 128.783,345.642 129.595,347.953 131.5,347 132.066,346.717 129.967,336.733 128.5,336 L119.5,337 C117.416,335.958 116.592,335 114,335  Z"/>

<path  fill="#FA8072" stroke-width="0" stroke="#FA8072" d = " M298 348 L289,355.5 L289,363.5 C287.951,365.598 282.554,365.393 281,368.5 L281,388.5 C283.033,392.566 286.554,391.527 289.5,393 291.047,393.773 294.493,397.003 296.5,396 298.369,395.065 294.709,389 299.5,389 L304.5,393 C309.051,390.724 300.695,388.11 302,385.5 302.107,385.286 314.134,381.231 316,377.5 L316,364.5 C316,361.762 321.123,360.746 319,356.5 315.159,348.819 305.108,348 298,348  Z"/>

<path  fill="#FA8072" stroke-width="0" stroke="#FA8072" d = " M191 350 C186.637,350 183.057,352 179,352 179,356.79 170.604,359.707 173,364.5 173,364.5 178,368.5 178,368.5 178,368.5 178,377.5 178,377.5 178.687,378.875 182.447,385.473 183.5,386 183.5,386 186,386.5 186,386.5 187.83,390.16 186.872,397.314 193.5,394 196.168,392.666 206.631,396.237 210,389.5 210,389.5 209,371.5 209,371.5 209,369.942 208.956,366.728 207.5,366 200.989,362.745 198.406,362.312 195,355.5 195,355.5 191,350 191,350  Z"/>

<path  fill="#FA8072" stroke-width="0" stroke="#FA8072" d = " M153 370 L151,375.5 C161.06,395.62 169.796,370 153,370  Z"/>

</g>
</svg>
