<svg xmlns="http://www.w3.org/2000/svg" xmlns:xlink="http://www.w3.org/1999/xlink" height="512" width="512">
<g>
<rect width="512" height="512" fill="#000000"  stroke-width="0" /> 
<path  fill="#FFE300" stroke-width="0" stroke="#FFE300" d = " M232 141 C220.294,141 209.372,137.564 198.5,143 188.474,148.013 178.125,178.75 183,188.5 L183,197.5 L186,199.5 C187.047,201.594 186.862,204.224 188,206.5 190.075,210.651 182,227.065 182,232 176.412,232 176,208.076 176,203 176,198.245 171.154,189.192 174,183.5 180.509,170.482 182.65,147.925 198.5,140 203.48,137.51 232,131.894 232,141  Z"/>

<path  fill="#FF8700" stroke-width="0" stroke="#FF8700" d = " M199 260 L202,261 C229.597,261 236,229.205 236,206 236,200.294 232.113,188.273 235,182.5 239.05,174.4 241,163.694 241,154 241,150.135 236,145.56 236,144 236,144 234,142 234,142 234,142 232,141 232,141 220.294,141 209.372,137.564 198.5,143 188.474,148.013 178.125,178.75 183,188.5 183,188.5 183,197.5 183,197.5 183,197.5 186,199.5 186,199.5 187.047,201.594 186.862,204.224 188,206.5 190.075,210.651 182,227.065 182,232 182,239.217 193,255.883 193,256 194.664,256 199,257.823 199,260  Z"/>

<path  fill="#FFE300" stroke-width="0" stroke="#FFE300" d = " M285 142 C281.749,142 272.614,139.943 270.5,141 266.744,142.878 258.218,143 254,143 254,137.431 273.066,139 278,139 279.934,139 285,139.811 285,142  Z"/>

<path  fill="#FF8700" stroke-width="0" stroke="#FF8700" d = " M290 259 L288,261 C280.658,261 260.377,253.255 257,246.5 251.785,236.071 248.626,215.248 254,204.5 255.579,201.342 251.969,197.562 254,193.5 257.683,186.134 249.674,175.849 247,170.5 245.661,167.821 246.895,159.71 248,157.5 248.504,156.492 248.22,153 247,153 247,150.975 252.267,143 254,143 258.218,143 266.744,142.878 270.5,141 272.614,139.943 281.749,142 285,142 285,142 286,142 286,142 286,142 290,144 290,144 290,144 291,144 291,144 291,146.479 296.033,147.533 298,149.5 302.047,153.547 305.516,159.532 308,164.5 308,164.5 307,171.5 307,171.5 310.601,178.702 308.323,199.854 305,206.5 301.824,212.852 308,223 308,229 308,229 307,240.5 307,240.5 305.421,243.659 298,251.936 298,255 295.683,255 290,255.709 290,259  Z"/>

<path  fill="#FFE300" stroke-width="0" stroke="#FFE300" d = " M234 142 C235.258,142 238.206,144 236,144 236,144 234,142 234,142  Z"/>

<path  fill="#FFE300" stroke-width="0" stroke="#FFE300" d = " M286 142 C288.177,142 290,141.359 290,144 290,144 286,142 286,142  Z"/>

<path  fill="#FFE300" stroke-width="0" stroke="#FFE300" d = " M291 144 C300.32,144 303.749,153.997 307,160.5 308.436,163.371 311.506,165.513 313,168.5 L313,173.5 C317.631,182.762 315,193.345 315,203.5 315,208.462 313.683,229 308,229 308,223 301.824,212.852 305,206.5 308.323,199.854 310.601,178.702 307,171.5 307,171.5 308,164.5 308,164.5 305.516,159.532 302.047,153.547 298,149.5 296.033,147.533 291,146.479 291,144  Z"/>

<path  fill="#FFE300" stroke-width="0" stroke="#FFE300" d = " M202 261 C202,264.593 211.91,265.795 215.5,264 L218.5,260 L223.5,260 L227.5,255 C230.377,253.561 236.22,253.06 238,249.5 L242,242.5 C243.624,239.253 239.265,226 244,226 246.39,226 244.178,234.856 245,236.5 246.461,239.422 244.594,243.688 246,246.5 246.826,248.151 249.915,250.329 251,252.5 L254.5,253 L256.5,256 C260.451,257.976 265.422,257.961 269.5,260 L277.5,260 L280.5,263 C282.061,263.78 288,262.214 288,261 280.658,261 260.377,253.255 257,246.5 251.785,236.071 248.626,215.248 254,204.5 255.579,201.342 251.969,197.562 254,193.5 257.683,186.134 249.674,175.849 247,170.5 245.661,167.821 246.895,159.71 248,157.5 248.504,156.492 248.22,153 247,153 247,153 244.5,157 244.5,157 244.5,157 241,154 241,154 241,163.694 239.05,174.4 235,182.5 232.113,188.273 236,200.294 236,206 236,229.205 229.597,261 202,261  Z"/>

<path  fill="#30DA00" stroke-width="0" stroke="#30DA00" d = " M392 244 C392,245.781 385.803,245.348 384.5,246 381.154,247.673 382.176,250.148 381,252.5 L376,255.5 C372.999,261.502 373.453,267.977 379.5,271 381.635,272.067 385.778,267.861 387.5,267 L396,261.5 C399.508,254.484 403.25,244 392,244  Z"/>

<path  fill="#FFE300" stroke-width="0" stroke="#FFE300" d = " M298 255 C295.683,255 290,255.709 290,259 290,261.114 298,257.735 298,255  Z"/>

<path  fill="#FFE300" stroke-width="0" stroke="#FFE300" d = " M193 256 C194.664,256 199,257.823 199,260 196.25,260 193,259.351 193,256  Z"/>

<path  fill="#30DA00" stroke-width="0" stroke="#30DA00" d = " M93 257 C93,266.183 93.4729,274.486 102.5,279 105.084,280.292 108.827,279.664 111.5,281 113.86,282.18 122.772,287.957 125,283.5 125.581,282.338 122,275.339 122,273.5 122,271.462 124.358,272.215 123,269.5 122.097,267.694 96.4049,257 93,257  Z"/>

<path  fill="#FA8072" stroke-width="0" stroke="#FA8072" d = " M298 364 C298,364.662 290.218,367.063 289,369.5 287.625,372.25 290.024,375.548 291,377.5 292.163,379.826 287.124,384.748 289,388.5 294.459,399.418 299.752,388.626 302.5,390 304.369,390.935 300.709,397 305.5,397 L311.5,395 C315.572,392.964 319.83,397.839 323,391.5 324.014,389.472 322,386.888 322,385.5 322,383.897 324.116,380.732 323,378.5 321.419,375.338 319.37,374.435 316.5,373 L313.5,369 C309.097,364.597 303.684,364 298,364  Z"/>

<path  fill="#FA8072" stroke-width="0" stroke="#FA8072" d = " M190 365 C190,370.471 182.677,371.412 179.5,373 177.529,373.985 171.947,384.277 170.5,385 L166.5,386 C162.163,388.169 163.541,396.021 167.5,398 172.583,400.541 172.938,393.781 176.5,392 L180.5,395 C184.505,397.002 197.486,397.528 200,392.5 L199,385.5 C199,380.622 203.726,372.613 196.5,369 L192.5,369 C191.112,368.306 192.73,365 190,365  Z"/>

<path  fill="#FA8072" stroke-width="0" stroke="#FA8072" d = " M327 386 C327,387.791 323.73,388.959 325,391.5 328.777,399.054 337.234,386 327,386  Z"/>

</g>
</svg>
