<svg xmlns="http://www.w3.org/2000/svg" xmlns:xlink="http://www.w3.org/1999/xlink" height="512" width="512">
<g>
<rect width="512" height="512" fill="#000000"  stroke-width="0" /> 
<path  fill-rule="evenodd" fill="#03C12D" stroke-width="0" stroke="#03C12D" d = " M327 82 L326,83.5 C326,87.2426 330.368,82 327,82  M447 235 L450,232.5 C452.058,228.384 450.92,222.66 453,218.5 453.525,217.451 452,205.538 452,203 452,188.989 449.589,165.678 444,154.5 L439,150.5 C437.712,147.924 438.35,144.199 437,141.5 434.261,136.021 428.689,131.878 426,126.5 424.803,124.107 419.834,123.168 419,121.5 418.089,119.679 408.276,107.888 406.5,107 403.726,105.613 400.835,108.668 399.5,108 394.749,105.625 392.97,100.235 388.5,98 386.195,96.8476 382.907,97.2035 380.5,96 377.035,94.2676 371.764,88.6322 366.5,86 358.195,81.8475 342.425,81.4625 333.5,77 331.264,75.8818 330.18,79.8402 328.5,79 L324.5,75 C321.239,73.3695 286.557,72 280.5,72 L264.5,72 C256.428,76.0361 249.882,79.3088 242.5,83 L239.5,88 C235.752,89.8739 228.896,79.6979 225.5,78 L218.5,73 C215.106,71.3031 197.892,68.8038 193.5,71 189.387,73.0567 184.715,73.8924 180.5,76 L171.5,75 C167.643,76.9286 160.742,79 157.5,79 L154.5,82 C151.353,83.5736 146.753,82.3733 143.5,84 L138.5,83 C134.45,85.0251 129.489,85.0054 125.5,87 116.983,91.2587 108,95.7498 99.5,100 L92,106.5 C92,107.151 94.1984,108.151 92.5,109 L88.5,109 C84.9063,110.797 82.4905,113.505 79.5,115 L75.5,121 C73.3839,122.058 71.7236,121.888 69.5,123 68.3114,123.594 65.7049,129.09 65,130.5 62.9145,134.671 58.2043,136.091 56,140.5 52.3594,147.781 47.9368,156.626 44,164.5 L39,176.5 C39,180.349 37.2407,196.019 35,200.5 33.4304,203.639 33.1445,226.789 35,230.5 36.1201,232.74 34.9674,238 38,238 38,234.9 41.0747,239 41.5,239 41.5,239 45.5,235 45.5,235 45.5,235 47.5,237 47.5,237 48.6061,237.553 55.3023,235.599 56.5,235 56.5,235 63.5,228 63.5,228 65.5859,226.957 64.5472,230.524 65.5,231 65.5,231 70.5,230 70.5,230 73.1376,228.681 73.7612,226 77,226 77,226 79,220.5 79,220.5 80.0988,218.302 78.1927,208.115 79,206.5 81.1153,202.269 81.5804,195.339 83,192.5 91.0467,176.407 95.8163,158.684 109,145.5 113.035,141.465 130.658,126 135,126 135,124.423 136.762,124 138,124 142.929,124 159.726,117.387 164.5,115 164.5,115 173.5,115 173.5,115 183.28,110.11 195.013,110.243 205.5,105 210.636,102.432 215.114,107.728 217,111.5 221.817,121.133 225.122,129 237.5,129 237.5,129 243.5,129 243.5,129 246.89,127.305 251.063,127.718 254.5,126 259.492,123.504 260.81,109.881 263,105.5 263,105.5 271.5,103 271.5,103 274.087,101.707 276.012,106.256 277.5,107 281.616,109.058 286.139,107.82 290.5,110 297.292,113.396 320.173,111.336 327.5,115 330.719,116.61 351.301,124 354,124 354,121.346 358,124.733 358,126 361.79,126 363.822,132 368,132 369.747,132 370,132.253 370,134 376.098,134 376.493,141.996 380.5,144 380.5,144 383.5,144 383.5,144 387.753,146.127 394.654,164.807 397,169.5 397,169.5 400,171.5 400,171.5 400,171.5 400,176.5 400,176.5 401.557,179.615 402.443,182.385 404,185.5 404,185.5 404,191.5 404,191.5 409.107,201.714 409,211.63 409,223 409,223 415.5,227 415.5,227 417.604,228.052 418.17,225 419.5,225 419.5,225 427.5,230 427.5,230 430.905,231.703 435.568,232 438.5,232 438.5,232 442.5,235 442.5,235 442.5,235 444.5,233 444.5,233 444.5,233 447,235 447,235  Z"/>

<path  fill="#FF6E00" stroke-width="0" stroke="#FF6E00" d = " M92 278 C92.4226,278 99,287.258 99,283 99,280.185 96.7973,281.095 96,279.5 92.2792,272.058 89.7329,263.966 86,256.5 82.9738,250.448 87,226.189 87,221 87,221 88,219 88,219 88,219 88,217 88,217 88,217 87,210.5 87,210.5 87,210.5 90,207.5 90,207.5 90.8823,205.735 89.0647,198 92,198 92,196.535 91.891,194 94,194 94,194 95,193 95,193 93.5014,193 94.301,183.898 95,182.5 95,182.5 98,180.5 98,180.5 98,180.5 99,176.5 99,176.5 97.0485,172.597 101.169,168.162 103,164.5 107.775,154.95 124.653,134 137,134 137,134 138,134 138,134 138,134 140,133 140,133 143.811,133 147.268,129.616 150.5,128 163.28,121.61 187.956,121.412 195,135.5 195,135.5 203,145 203,145 203,145 211.5,152 211.5,152 214.068,153.284 217.986,151 220,151 220,149.423 221.762,149 223,149 227.804,149 232.297,150 237,150 237,150 239,150 239,150 239,150 241,150 241,150 241,150 245,149 245,149 248.117,149 252.475,148 255,148 255,146.814 256,146.814 256,148 256,148 258,148 258,148 258,146.601 260,146.601 260,148 260,148 264,149 264,149 264,147.514 267,147.514 267,149 272.692,149 277.07,141 282,141 282,141 284,136 284,136 284,136 285,135 285,135 285,135 286,134 286,134 286,134 287,133 287,133 287,128.123 296.117,123.691 299.5,122 299.5,122 305.5,122 305.5,122 314.303,117.598 341.695,127.598 350.5,132 350.5,132 358,136 358,136 358,133.311 345,128.667 345,127.5 345,126.57 350.874,128.687 351.5,129 357.503,132.002 364.57,136.07 369.5,141 380.305,151.805 395,166.959 395,184 395,184 396,190 396,190 396,190 397,192 397,192 397,192 397,199 397,199 401.429,199 401.429,202 397,202 397,207.437 399.754,211.009 402,215.5 402,215.5 402,230.5 402,230.5 402.981,232.462 404.216,239.068 403,241.5 400.753,245.993 403.139,252.221 401,256.5 399.388,259.723 397,264.229 397,268 397,278.608 402.006,264 403,264 403,250.137 409,237.295 409,223 409,211.63 409.107,201.714 404,191.5 404,191.5 404,185.5 404,185.5 402.443,182.385 401.557,179.615 400,176.5 400,176.5 400,171.5 400,171.5 400,171.5 397,169.5 397,169.5 394.654,164.807 387.753,146.127 383.5,144 383.5,144 380.5,144 380.5,144 376.493,141.996 376.098,134 370,134 368.253,134 368,133.747 368,132 363.822,132 361.79,126 358,126 358,126 354,124 354,124 351.301,124 330.719,116.61 327.5,115 320.173,111.336 297.292,113.396 290.5,110 286.139,107.82 281.616,109.058 277.5,107 276.012,106.256 274.087,101.707 271.5,103 271.5,103 263,105.5 263,105.5 260.81,109.881 259.492,123.504 254.5,126 251.063,127.718 246.89,127.305 243.5,129 243.5,129 237.5,129 237.5,129 225.122,129 221.817,121.133 217,111.5 215.114,107.728 210.636,102.432 205.5,105 195.013,110.243 183.28,110.11 173.5,115 173.5,115 164.5,115 164.5,115 159.726,117.387 142.929,124 138,124 138,125.577 136.238,126 135,126 130.658,126 113.035,141.465 109,145.5 95.8163,158.684 91.0467,176.407 83,192.5 81.5804,195.339 81.1153,202.269 79,206.5 78.1927,208.115 80.0988,218.302 79,220.5 79,220.5 77,226 77,226 78.6426,226 78,229.765 78,231 78,236.164 80,240.032 80,245.5 80,252.635 86,262.19 86,266 86,266 86,267 86,267 86,270.891 92,274.03 92,278  Z"/>

<path  fill="#0E47E2" stroke-width="0" stroke="#0E47E2" d = " M331 303 C322.412,303 319,303.923 319,313 314.575,313 302.475,311.551 307,302.5 308.381,299.738 314,300.406 314,296 316.041,296 333.202,274.095 335,270.5 335,270.5 341,263 341,263 341,263 342,262 342,262 342,262 348,254 348,254 351.469,254 356,244.546 356,242 359.716,242 360.715,236.07 362,233.5 367.633,222.233 366.498,210.496 361,199.5 360.053,197.606 356.56,189 354,189 354,189 352,187 352,187 352,184.118 337,169.317 337,176 327.754,176 317.818,170 310,170 301.929,170 292,169.56 292,160 292,155.972 294.952,154.403 293,150.5 290.947,146.394 282,146.225 282,141 282,141 284,136 284,136 284,136 285,135 285,135 285,135 286,134 286,134 286,134 287,133 287,133 287,128.123 296.117,123.691 299.5,122 299.5,122 305.5,122 305.5,122 314.303,117.598 341.695,127.598 350.5,132 350.5,132 358,136 358,136 358,136 359,136 359,136 359,136 360,137 360,137 360,137 361,137 361,137 361,137 364,140 364,140 364,140 365,140 365,140 365,141.301 372.685,149 374,149 374,149 376,151 376,151 376,152.076 377.523,156 379,156 379,156 380,157 380,157 380,157 381,158 381,158 381,159.238 381.423,161 383,161 383,164.304 388,168.142 388,172 388,172 390,176 390,176 390,176 393,185 393,185 393,186.408 394.197,190 396,190 396,190 397,192 397,192 397,192 397,199 397,199 397,199 397,202 397,202 397,207.437 399.754,211.009 402,215.5 402,215.5 402,230.5 402,230.5 402.981,232.462 404.216,239.068 403,241.5 400.753,245.993 403.139,252.221 401,256.5 399.388,259.723 397,264.229 397,268 396.427,268 391,276.219 391,277 387.729,277 380.383,286.058 376.5,288 374.748,288.876 342.245,300 342,300 342,294.942 331,294.971 331,303  Z"/>

<path  fill="#0E47E2" stroke-width="0" stroke="#0E47E2" d = " M173 303 L177,306.5 C178.969,310.437 174,312.377 174,315 170.978,315 167.11,318.72 165,314.5 165,314.5 163.5,307 163.5,307 163.5,307 153.5,306 153.5,306 153.5,306 149.5,302 149.5,302 140.181,297.34 129.118,300.809 119.5,296 116.281,294.39 100.761,283 99,283 99,280.185 96.7973,281.095 96,279.5 92.2792,272.058 89.7329,263.966 86,256.5 82.9738,250.448 87,226.189 87,221 87,221 88,219 88,219 88,219 88,217 88,217 90.0156,217 94,200.9 94,198 94,198 96,196 96,196 96,195.284 98.3726,193 96,193 96,185.208 104,172.398 104,167 104,167 105,166 105,166 105,161.957 121.565,143.968 125.5,142 128.093,140.703 137,137.056 137,134 137,134 138,134 138,134 138,134 140,133 140,133 143.811,133 147.268,129.616 150.5,128 163.28,121.61 187.956,121.412 195,135.5 195,135.5 203,145 203,145 203,151.543 194.319,150.862 192,155.5 190.381,158.737 194,161.605 194,164 194,171.246 191.909,172 184.5,172 182.801,172 174,171.231 174,173 167.55,173 162.495,177 155.5,177 153.814,177 150,176.41 150,179 150,179 148,179 148,179 146.535,179 144,178.891 144,181 144,181 142,182 142,182 142,182 141,183 141,183 141,183 136,188 136,188 133.711,188 130,194.178 130,196 130,196 128,200 128,200 128,200 123,206.5 123,206.5 121.506,209.487 118.436,211.629 117,214.5 114.462,219.576 120,231.393 120,234 120,238.514 126.98,245.459 129,249.5 129.772,251.044 130.186,252 132,252 132,252 136,260 136,260 136,260 137,261 137,261 137,261 138,261 138,261 138,263.084 146.019,273 148,273 148,273 150,275 150,275 150,275 156,281 156,281 156,284.29 161,286.518 161,290 161,291.668 164.099,296 166,296 166,300.733 166.444,299 169.5,299 170.703,299 170.442,303 173,303  Z"/>

<path  fill="#022CFF" stroke-width="0" stroke="#022CFF" d = " M395 184 L393,185 C393,185 390,176 390,176 390,176 388,172 388,172 388,168.142 383,164.304 383,161 383,159.762 382.577,158 381,158 381,158 380,157 380,157 380,157 379,156 379,156 379,154.924 377.477,151 376,151 376,151 374,149 374,149 374,146.64 367.328,140 365,140 365,140 364,140 364,140 364,140 361,137 361,137 361,137 360,137 360,137 360,137 359,136 359,136 359,136 358,136 358,136 358,133.311 345,128.667 345,127.5 345,126.57 350.874,128.687 351.5,129 357.503,132.002 364.57,136.07 369.5,141 380.305,151.805 395,166.959 395,184  Z"/>

<path  fill="#022CFF" stroke-width="0" stroke="#022CFF" d = " M140 133 L138,134 C138,134 140,133 140,133  Z"/>

<path  fill="#022CFF" stroke-width="0" stroke="#022CFF" d = " M95 193 L96,193 C96,185.208 104,172.398 104,167 104,167 105,166 105,166 105,161.957 121.565,143.968 125.5,142 128.093,140.703 137,137.056 137,134 124.653,134 107.775,154.95 103,164.5 101.169,168.162 97.0485,172.597 99,176.5 99,176.5 98,180.5 98,180.5 98,180.5 95,182.5 95,182.5 94.301,183.898 93.5014,193 95,193  Z"/>

<path  fill="#FF6E00" stroke-width="0" stroke="#FF6E00" d = " M359 136 L360,137 C360,137 359,136 359,136  Z"/>

<path  fill="#FF6E00" stroke-width="0" stroke="#FF6E00" d = " M361 137 L364,140 C364,140 361,137 361,137  Z"/>

<path  fill="#FF6E00" stroke-width="0" stroke="#FF6E00" d = " M365 140 C367.328,140 374,146.64 374,149 372.685,149 365,141.301 365,140  Z"/>

<path  fill="#DDD951" stroke-width="0" stroke="#DDD951" d = " M243 152 C243,161.544 256.592,168.546 263.5,172 264.212,172.356 277.316,168.592 278.5,168 282.804,165.848 286.963,160 292,160 292,155.972 294.952,154.403 293,150.5 290.947,146.394 282,146.225 282,141 277.07,141 272.692,149 267,149 267,149 264,149 264,149 264,149 260,148 260,148 260,148 258,148 258,148 258,148 256,148 256,148 256,148 255,148 255,148 252.475,148 248.117,149 245,149 245,149 243,152 243,152  Z"/>

<path  fill="#DDD951" stroke-width="0" stroke="#DDD951" d = " M213 175 L214,175 C216.147,175 218.993,176 220.5,176 220.5,176 225,174 225,174 225,174 226,173 226,173 226,173 228,172 228,172 228,168.617 229.617,167 233,167 233,163.84 238,158.336 238,151 238,151 237,150 237,150 232.297,150 227.804,149 223,149 223,150.577 221.238,151 220,151 217.986,151 214.068,153.284 211.5,152 211.5,152 203,145 203,145 203,151.543 194.319,150.862 192,155.5 190.381,158.737 194,161.605 194,164 194,164 206.5,172 206.5,172 207.619,172.559 211,172.155 211,174 211,174 212,174 212,174 212,174 213,175 213,175  Z"/>

<path  fill-rule="evenodd" fill="#022CFF" stroke-width="0" stroke="#022CFF" d = " M237 180 C237,184.03 245.832,183.334 248.5,182 250.377,181.062 247.805,179.348 246.5,180 244.559,180.971 243.378,181 241,181 L237,180  M244 199 L241,200 C241,200 240,199 240,199 238.311,199 235.526,192.026 234,190.5 232.336,188.836 226,190.609 226,186 226,184.253 221.25,179 220,179 220,179 216,177 216,177 216,177 214,175 214,175 216.147,175 218.993,176 220.5,176 220.5,176 225,174 225,174 225,174 226,173 226,173 226,173 228,172 228,172 229.832,172 233,168.758 233,167 233,163.84 238,158.336 238,151 238,151 239,150 239,150 239,150 241,150 241,150 241,150 243,152 243,152 243,161.544 256.592,168.546 263.5,172 264.212,172.356 277.316,168.592 278.5,168 282.804,165.848 286.963,160 292,160 292,169.56 301.929,170 310,170 310,174.329 298.838,171 297,171 297,171 291,170 291,170 289.855,170 287,169.421 287,171 287,171 284,171 284,171 281.149,171 267,174.194 267,178 264.267,178 249,193.069 249,197 247.376,197 246.25,199 244,199  Z"/>

<path  fill="#FF6E00" stroke-width="0" stroke="#FF6E00" d = " M376 151 C377.477,151 379,154.924 379,156 377.523,156 376,152.076 376,151  Z"/>

<path  fill="#FF6E00" stroke-width="0" stroke="#FF6E00" d = " M381 158 C382.577,158 383,159.762 383,161 381.423,161 381,159.238 381,158  Z"/>

<path  fill="#022CFF" stroke-width="0" stroke="#022CFF" d = " M183 176 L188,176 C188,173.955 197,172.81 197,174 197,174 206,174 206,174 206,174 211,174 211,174 211,172.155 207.619,172.559 206.5,172 206.5,172 194,164 194,164 194,171.246 191.909,172 184.5,172 182.801,172 174,171.231 174,173 174,173.706 181.895,176 183,176  Z"/>

<path  fill="#0E47E2" stroke-width="0" stroke="#0E47E2" d = " M233 167 C229.617,167 228,168.617 228,172 229.832,172 233,168.758 233,167  Z"/>

<path  fill="#FF571E" stroke-width="0" stroke="#FF571E" d = " M312 212 L301.5,217 C297.799,218.85 274.026,219 268,219 268,211.542 265.872,213.686 260.5,211 260.5,211 258,209 258,209 258,204.894 250,203.47 250,201 250,201 249,197 249,197 249,193.069 264.267,178 267,178 269.36,178 284,171.972 284,171 284,171 287,171 287,171 288.145,171 291,171.579 291,170 291,170 297,171 297,171 297,171 305,177 305,177 305,179.606 305.95,179.4 307,181.5 308.585,184.67 307,188.758 307,191.5 307,191.5 311,194.5 311,194.5 311.592,195.683 313,207.878 313,210 313,210 313,211 313,211 313,211 312,212 312,212  Z"/>

<path  fill="#0E47E2" stroke-width="0" stroke="#0E47E2" d = " M226 173 L225,174 C225,174 226,173 226,173  Z"/>

<path  fill="#FF571E" stroke-width="0" stroke="#FF571E" d = " M175 212 C180.401,212 183.093,214.797 187.5,217 195.339,220.919 204.474,222 214,222 214,217.226 227.075,210 231,210 231,210 231,208 231,208 229.756,208 229.459,205.521 230.5,205 233.315,203.593 236.685,200 240,200 240,200 240,199 240,199 238.311,199 235.526,192.026 234,190.5 232.336,188.836 226,190.609 226,186 224.129,186 220,180.6 220,179 220,179 216,177 216,177 214.459,177 206,176.15 206,174 206,174 197,174 197,174 197,175.274 189.517,176 188,176 188,176 183,176 183,176 183,176 180,178 180,178 180,178 184,182.5 184,182.5 184,182.5 182,183.5 182,183.5 182,183.5 183,188.5 183,188.5 180.742,193.015 181.104,195.292 180,197.5 180,197.5 176,201.5 176,201.5 174.502,204.497 180.642,204.217 179,207.5 177.771,209.958 175,209.273 175,212  Z"/>

<path  fill="#022CFF" stroke-width="0" stroke="#022CFF" d = " M212 174 L213,175 C213,175 212,174 212,174  Z"/>

<path  fill="#022CFF" stroke-width="0" stroke="#022CFF" d = " M346 181 C346,181.713 351.019,187 352,187 352,184.118 337,169.317 337,176 337,176 338,178 338,178 338,178 339,178 339,178 340.71,178 346,178.718 346,181  Z"/>

<path  fill="#006400" stroke-width="0" stroke="#006400" d = " M328 260 C324.909,260 323.565,264 321,264 321,264 312.5,265 312.5,265 310.51,264.005 301.936,257.628 303,255.5 304.357,252.786 309,252.991 309,249 316.945,249 322.335,229.171 319,222.5 317.888,220.276 314,213.274 314,211 314,211 313,210 313,210 313,207.878 311.592,195.683 311,194.5 311,194.5 307,191.5 307,191.5 307,188.758 308.585,184.67 307,181.5 305.95,179.4 305,179.606 305,177 305,174.423 311.545,175 313.5,175 313.5,175 338,178 338,178 338,178 339,178 339,178 339,179.67 345.429,181 346,181 346,181.713 351.019,187 352,187 352,187 354,189 354,189 354,194.261 358,196.354 358,202 358,203.951 358.433,211 361,211 363.789,211 363,218.892 363,221 361.421,221 362,223.855 362,225 362,225 361,226 361,226 361,226 360,228 360,228 360,228 360,230 360,230 360,230 359,231 359,231 359,231 359,232 359,232 359,232 358,234 358,234 358,234 358,235 358,235 358,235 357,237 357,237 357,238.238 356.577,240 355,240 355,240 351,244 351,244 351,244 347.5,241 347.5,241 347.5,241 344.5,244 344.5,244 344.5,244 339.5,245 339.5,245 339.5,245 331,254.5 331,254.5 330.344,255.811 330.203,260 328,260  Z"/>

<path  fill="#006400" stroke-width="0" stroke="#006400" d = " M169 266 L165,268 C165,268 161,266 161,266 161,262.039 140.846,245 137,245 137,245 136,245 136,245 136,245 135,244 135,244 135,244 133,243 133,243 127.523,243 123.762,227.023 122,223.5 122,223.5 123,215 123,215 123,215 123,213 123,213 123,213 124,212 124,212 124,208.75 128,205.314 128,201 130.461,201 130,197.622 130,196 132.604,196 136,190.07 136,188 138.362,188 141,185.362 141,183 141,183 142,182 142,182 142,182 144,181 144,181 145.465,181 148,181.109 148,179 148,179 150,179 150,179 155.871,179 163.489,178.506 168.5,176 172.484,174.008 177.202,178 180,178 180,178 184,182.5 184,182.5 184,182.5 182,183.5 182,183.5 182,183.5 183,188.5 183,188.5 180.742,193.015 181.104,195.292 180,197.5 180,197.5 176,201.5 176,201.5 174.502,204.497 180.642,204.217 179,207.5 177.771,209.958 175,209.273 175,212 173.535,212 171,211.891 171,214 171,218.167 168.021,220.542 170,224.5 170,224.5 174,228.5 174,228.5 174,228.5 171,233.5 171,233.5 169.614,236.272 172,240.769 172,243 172,248.05 184,251.119 184,253 184,258.763 174.518,266 169,266  Z"/>

<path  fill="#45EBCA" stroke-width="0" stroke="#45EBCA" d = " M237 180 C237,184.03 245.832,183.334 248.5,182 250.377,181.062 247.805,179.348 246.5,180 244.559,180.971 243.378,181 241,181 L237,180  Z"/>

<path  fill="#022CFF" stroke-width="0" stroke="#022CFF" d = " M355 240 L356,242 C359.716,242 360.715,236.07 362,233.5 367.633,222.233 366.498,210.496 361,199.5 360.053,197.606 356.56,189 354,189 354,194.261 358,196.354 358,202 361.913,202 361,208.556 361,211 363.789,211 363,218.892 363,221 363,222.145 363.579,225 362,225 362,225 361,226 361,226 361,226 360,228 360,228 360,228 360,230 360,230 360,230 359,231 359,231 359,231 359,232 359,232 359,232 358,234 358,234 358,234 358,235 358,235 358,235 357,237 357,237 357,238.238 356.577,240 355,240  Z"/>

<path  fill="#022CFF" stroke-width="0" stroke="#022CFF" d = " M396 190 L397,192 C397,192 396,190 396,190  Z"/>

<path  fill="#022CFF" stroke-width="0" stroke="#022CFF" d = " M92 198 L94,198 C94,198 96,196 96,196 96,196 94,194 94,194 91.891,194 92,196.535 92,198  Z"/>

<path  fill="#FF00DA" stroke-width="0" stroke="#FF00DA" d = " M249 208 C252.275,208 255.454,209 258,209 258,204.894 250,203.47 250,201 249.014,201 244,199.913 244,199 244,199 241,200 241,200 241,200 240,200 240,200 236.685,200 233.315,203.593 230.5,205 229.459,205.521 229.756,208 231,208 231,208 233,208 233,208 233,208 239,208 239,208 239,208 240,208 240,208 240,208 241,208 241,208 241,205.539 247.743,208 249,208  Z"/>

<path  fill="#022CFF" stroke-width="0" stroke="#022CFF" d = " M120 234 L122,234 C122,231.145 116.765,215 123,215 123,215 123,213 123,213 123,213 124,212 124,212 124,208.75 128,205.314 128,201 128,201 128,200 128,200 128,200 123,206.5 123,206.5 121.506,209.487 118.436,211.629 117,214.5 114.462,219.576 120,231.393 120,234  Z"/>

<path  fill="#07FF59" stroke-width="0" stroke="#07FF59" d = " M258 256 C258,258.975 262.183,254.867 263,256.5 264.838,260.176 261.754,265.992 260,269.5 258.071,273.358 254.365,272.567 251.5,274 L248.5,277 C240.407,281.046 228.935,271.369 226,265.5 L226,258 C231.812,258 231.538,244 225,244 225,240.333 219.41,239.32 218,236.5 215.717,231.934 214,227.573 214,222 214,217.226 227.075,210 231,210 231,210 233,208 233,208 233,208 239,208 239,208 239,208 241,210 241,210 241,221.065 242,233.761 242,245.5 242,246.626 240.883,269.735 245,261.5 245,261.5 245,222.5 245,222.5 245,220.717 244.223,211 246,211 247.539,211 249,209.658 249,208 252.275,208 255.454,209 258,209 258,209 260.5,211 260.5,211 265.872,213.686 268,211.542 268,219 268,222.499 268.209,220.917 270,224.5 270,224.5 268,227.5 268,227.5 266.708,230.084 267.336,233.827 266,236.5 263.207,242.086 258,236.278 258,244 258,244 257,245 257,245 257,246.804 254.818,250.136 256,252.5 256,252.5 258,256 258,256  Z"/>

<path  fill="#022CFF" stroke-width="0" stroke="#022CFF" d = " M241 210 C241,221.065 242,233.761 242,245.5 242,246.626 240.883,269.735 245,261.5 L245,222.5 C245,220.717 244.223,211 246,211 246,207.286 244.256,208 241,208 241,208 240,208 240,208 240,208 241,210 241,210  Z"/>

<path  fill="#9953FF" stroke-width="0" stroke="#9953FF" d = " M286 301 C286,296.384 271.964,289.732 268.5,288 265.059,286.279 261.908,291.204 259.5,290 257.219,288.859 259.03,285.765 257.5,285 254.028,283.264 231.462,283.019 227.5,285 225.766,285.867 224.74,291.38 223.5,292 221.686,292.907 219.483,293.009 217.5,294 208.44,298.53 212.309,287.881 205,302.5 L201,306 C196.957,306 195.152,299 192,299 192,299 192,296 192,296 192.676,296 188.503,285.003 186.5,283 184.032,280.532 167,270.033 167,268 168.747,268 169,267.747 169,266 174.518,266 184,258.763 184,253 188.703,253 201.133,261.184 203.5,260 206.937,258.281 200.129,251.814 198.5,251 191.173,247.336 180.647,243 172,243 172,240.769 169.614,236.272 171,233.5 171,233.5 174,228.5 174,228.5 174,228.5 170,224.5 170,224.5 168.021,220.542 171,218.167 171,214 171,214 175,212 175,212 180.401,212 183.093,214.797 187.5,217 195.339,220.919 204.474,222 214,222 214,227.573 215.717,231.934 218,236.5 219.41,239.32 225,240.333 225,244 220.854,244 221.933,258 226,258 226,258 226,265.5 226,265.5 228.935,271.369 240.407,281.046 248.5,277 248.5,277 251.5,274 251.5,274 254.365,272.567 258.071,273.358 260,269.5 261.754,265.992 264.838,260.176 263,256.5 262.183,254.867 258,258.975 258,256 262.891,256 267.782,245.641 262.5,243 262.5,243 258,244 258,244 258,236.278 263.207,242.086 266,236.5 267.336,233.827 266.708,230.084 268,227.5 268,227.5 270,224.5 270,224.5 268.209,220.917 268,222.499 268,219 274.026,219 297.799,218.85 301.5,217 301.5,217 312,212 312,212 312,212 313,211 313,211 313,211 314,211 314,211 314,213.274 317.888,220.276 319,222.5 322.335,229.171 316.945,249 309,249 304.268,249 282.92,264.341 280,258.5 278.979,256.459 283.985,254.757 285.5,254 290.074,251.713 309,237.8 309,249 309,252.991 304.357,252.786 303,255.5 301.936,257.628 310.51,264.005 312.5,265 312.5,265 321,264 321,264 321,265.569 306.395,277.105 303.5,280 303.5,280 299.5,286 299.5,286 297.17,287.165 293,287.415 293,291 288.296,291 292,297.262 292,299 289.517,299 287.974,301 286,301  Z"/>

<path  fill="#267EFF" stroke-width="0" stroke="#267EFF" d = " M137 261 L138,261 C138,261 139,260 139,260 139,260 138,254 138,254 138,254 138,253 138,253 136.423,253 136,251.238 136,250 134.362,250 134,246.424 134,245 134,245 133,243 133,243 127.523,243 123.762,227.023 122,223.5 122,223.5 123,215 123,215 116.765,215 122,231.145 122,234 122,237.204 132,245.846 132,252 132,252 136,260 136,260 136,260 137,261 137,261  Z"/>

<path  fill="#DD6479" stroke-width="0" stroke="#DD6479" d = " M403 264 C406.354,264 410.55,267.525 413.5,269 L418.5,268 C424.401,270.951 432.269,271 438,271 438,267.712 435,264.743 435,262.5 435,262.5 444,256.5 444,256.5 445.297,253.907 451.029,243.558 449,239.5 449,239.5 447,235 447,235 447,235 444.5,233 444.5,233 444.5,233 442.5,235 442.5,235 442.5,235 438.5,232 438.5,232 435.568,232 430.905,231.703 427.5,230 427.5,230 419.5,225 419.5,225 418.17,225 417.604,228.052 415.5,227 415.5,227 409,223 409,223 409,237.295 403,250.137 403,264  Z"/>

<path  fill="#DD6479" stroke-width="0" stroke="#DD6479" d = " M83 267 C82.5557,267 71.6877,271.406 70.5,272 69.0631,272.718 51.9998,270 49,270 49,270 50,263.5 50,263.5 49.3509,262.202 39.4906,259.481 38,256.5 35.4397,251.379 38,243.083 38,238 38,234.9 41.0747,239 41.5,239 41.5,239 45.5,235 45.5,235 45.5,235 47.5,237 47.5,237 48.6061,237.553 55.3023,235.599 56.5,235 56.5,235 63.5,228 63.5,228 65.5859,226.957 64.5472,230.524 65.5,231 65.5,231 70.5,230 70.5,230 73.1376,228.681 73.7612,226 77,226 78.6426,226 78,229.765 78,231 78,236.164 80,240.032 80,245.5 80,252.635 86,262.19 86,266 84.9521,266 83,265.527 83,267  Z"/>

<path  fill="#FF3427" stroke-width="0" stroke="#FF3427" d = " M314 296 C309.545,296 306.199,298.151 302.5,300 L292,299 C292,297.262 288.296,291 293,291 293,292.709 296.07,293.715 297.5,293 302.118,290.691 304.428,286.036 308.5,284 318.662,278.919 328,273.272 328,260 330.203,260 330.344,255.811 331,254.5 331,254.5 339.5,245 339.5,245 339.5,245 344.5,244 344.5,244 344.5,244 347.5,241 347.5,241 347.5,241 351,244 351,244 351,247.641 348,249.885 348,254 344.198,254 342,258.389 342,262 342,262 341,263 341,263 341,263 335,270.5 335,270.5 333.202,274.095 316.041,296 314,296  Z"/>

<path  fill="#D4FF00" stroke-width="0" stroke="#D4FF00" d = " M172 243 C180.647,243 191.173,247.336 198.5,251 200.129,251.814 206.937,258.281 203.5,260 201.133,261.184 188.703,253 184,253 184,251.119 172,248.05 172,243  Z"/>

<path  fill="#F44345" stroke-width="0" stroke="#F44345" d = " M257 245 C257,246.804 254.818,250.136 256,252.5 L258,256 C262.891,256 267.782,245.641 262.5,243 262.5,243 258,244 258,244 258,244 257,245 257,245  Z"/>

<path  fill="#FAAA40" stroke-width="0" stroke="#FAAA40" d = " M136 246 L136,250 C134.362,250 134,246.424 134,245 134,245 135,244 135,244 135,244 136,245 136,245 136,245 136,246 136,246  Z"/>

<path  fill="#F44345" stroke-width="0" stroke="#F44345" d = " M225 244 C231.538,244 231.812,258 226,258 221.933,258 220.854,244 225,244  Z"/>

<path  fill="#9953FF" stroke-width="0" stroke="#9953FF" d = " M258 244 L257,245 C257,245 258,244 258,244  Z"/>

<path  fill="#FF3427" stroke-width="0" stroke="#FF3427" d = " M171 299 C176.085,299 180.989,301 186,301 187.357,301 192,300.353 192,299 192,299 192,296 192,296 192,293.064 183.454,287.977 181.5,287 174.331,283.415 161,275.397 161,266 161,262.039 140.846,245 137,245 137,245 136,246 136,246 136,246 136,250 136,250 137.577,250 138,251.762 138,253 138,253 138,254 138,254 138,254 140,256 140,256 141.951,256 140.477,258.454 141,259.5 142.979,263.459 148,268.368 148,273 148,273 150,275 150,275 152.041,275 156,278.974 156,281 156,284.29 161,286.518 161,290 163.462,290 170,295.773 170,298 170,298 171,299 171,299  Z"/>

<path  fill="#D4FF00" stroke-width="0" stroke="#D4FF00" d = " M309 249 C309,237.8 290.074,251.713 285.5,254 283.985,254.757 278.979,256.459 280,258.5 282.92,264.341 304.268,249 309,249  Z"/>

<path  fill="#FAAA40" stroke-width="0" stroke="#FAAA40" d = " M140 256 C140,257.145 140.579,260 139,260 139,260 138,254 138,254 138,254 140,256 140,256  Z"/>

<path  fill="#FFBA00" stroke-width="0" stroke="#FFBA00" d = " M321 264 C321,265.569 306.395,277.105 303.5,280 L299.5,286 C297.17,287.165 293,287.415 293,291 293,292.709 296.07,293.715 297.5,293 302.118,290.691 304.428,286.036 308.5,284 318.662,278.919 328,273.272 328,260 324.909,260 323.565,264 321,264  Z"/>

<path  fill="#2E8B57" stroke-width="0" stroke="#2E8B57" d = " M391 277 C391,281.435 398.307,279.903 400.5,281 407.787,284.644 425.543,287 434,287 441.049,287 438,274.852 438,271 432.269,271 424.401,270.951 418.5,268 418.5,268 413.5,269 413.5,269 410.55,267.525 406.354,264 403,264 402.006,264 397,278.608 397,268 396.427,268 391,276.219 391,277  Z"/>

<path  fill="#FFBA00" stroke-width="0" stroke="#FFBA00" d = " M167 268 C167,270.033 184.032,280.532 186.5,283 188.503,285.003 192.676,296 192,296 192,293.064 183.454,287.977 181.5,287 174.331,283.415 161,275.397 161,266 161,266 165,268 165,268 165,268 167,268 167,268  Z"/>

<path  fill="#2E8B57" stroke-width="0" stroke="#2E8B57" d = " M92 278 L89.5,281 L80.5,285 L69.5,286 L67.5,284 L64.5,288 C63.6804,288.41 57.505,286.502 56.5,286 L51,287 C51,285.235 49.4189,286.459 48.5,286 46.3697,284.935 45.8629,282.226 45,280.5 43.4379,277.376 46.0587,270 49,270 51.9998,270 69.0631,272.718 70.5,272 71.6877,271.406 82.5557,267 83,267 83,267 86,267 86,267 86,270.891 92,274.03 92,278  Z"/>

<path  fill="#03C12D" stroke-width="0" stroke="#03C12D" d = " M349 332 L352,333 C355.493,333 367.995,338.247 371.5,340 371.5,340 387.5,340 387.5,340 418.537,340 434,316.068 434,287 425.543,287 407.787,284.644 400.5,281 398.307,279.903 391,281.435 391,277 387.729,277 380.383,286.058 376.5,288 374.748,288.876 342.245,300 342,300 342,302.051 333.119,303 331,303 322.412,303 319,303.923 319,313 319,313 321,319 321,319 325.206,319 324.422,321.961 326.5,323 326.5,323 333.5,323 333.5,323 337.367,324.933 340.333,329 345,329 346.429,329 349,330.288 349,332  Z"/>

<path  fill="#03C12D" stroke-width="0" stroke="#03C12D" d = " M132 338 L123,339 C118.296,339 114.363,338.931 110.5,337 110.5,337 75.5,337 75.5,337 75.5,337 67.5,333 67.5,333 57.4336,327.967 51,298.085 51,287 51,287 56.5,286 56.5,286 57.505,286.502 63.6804,288.41 64.5,288 64.5,288 67.5,284 67.5,284 67.5,284 69.5,286 69.5,286 69.5,286 80.5,285 80.5,285 80.5,285 89.5,281 89.5,281 89.5,281 92,278 92,278 92.4226,278 99,287.258 99,283 100.761,283 116.281,294.39 119.5,296 129.118,300.809 140.181,297.34 149.5,302 149.5,302 153.5,306 153.5,306 153.5,306 163.5,307 163.5,307 163.5,307 165,314.5 165,314.5 167.11,318.72 170.978,315 174,315 174,316.408 172.803,320 171,320 163.209,320 157.027,325.736 150.5,329 150.5,329 141.5,331 141.5,331 140.141,331.68 138.289,337 133,337 133,337 132,338 132,338  Z"/>

<path  fill-rule="evenodd" fill="#E278A1" stroke-width="0" stroke="#E278A1" d = " M257 293 C257,294.585 251.455,295.41 253,298.5 253.372,299.243 267.082,297.791 259.5,294 L257,293  M243 337 L243,338 C243,338.785 245.788,342 244.5,342 244.5,342 241.5,339 241.5,339 240.7,339 240.788,342.144 238.5,341 234.874,339.187 232.178,335.839 228.5,334 228.5,334 217.5,333 217.5,333 206.993,327.746 201,318.614 201,306 201,306 205,302.5 205,302.5 212.309,287.881 208.44,298.53 217.5,294 219.483,293.009 221.686,292.907 223.5,292 224.74,291.38 225.766,285.867 227.5,285 231.462,283.019 254.028,283.264 257.5,285 259.03,285.765 257.219,288.859 259.5,290 261.908,291.204 265.059,286.279 268.5,288 271.964,289.732 286,296.384 286,301 284.235,301 285.459,302.581 285,303.5 282.843,307.814 285.058,312.383 285,312.5 285,312.5 283,319.5 283,319.5 283,319.5 277,327.5 277,327.5 273.81,333.88 261.772,332.364 256.5,335 254.369,336.066 250.233,342.366 247.5,341 247.5,341 246,334 246,334 247.951,334 246.477,331.546 247,330.5 247,330.5 250,328.5 250,328.5 251.888,324.723 244.06,324 242,324 240.535,324 238,323.891 238,326 238,327.232 237.553,332 241,332 241,335.838 240.133,337 243,337  M226 297 C223.974,297 226.104,299 227,299 228.639,299 229.455,301 230.5,301 240.089,301 226,285.09 226,297  Z"/>

<path  fill="#EEBA00" stroke-width="0" stroke="#EEBA00" d = " M226 297 L227,299 C228.639,299 229.455,301 230.5,301 240.089,301 226,285.09 226,297  Z"/>

<path  fill="#EEBA00" stroke-width="0" stroke="#EEBA00" d = " M257 293 C257,294.585 251.455,295.41 253,298.5 253.372,299.243 267.082,297.791 259.5,294 L257,293  Z"/>

<path  fill="#03C12D" stroke-width="0" stroke="#03C12D" d = " M171 299 L173,303 C170.442,303 170.703,299 169.5,299 166.444,299 166,300.733 166,296 166,296 170,298 170,298 170,298 171,299 171,299  Z"/>

<path  fill="#DDD951" stroke-width="0" stroke="#DDD951" d = " M342 300 C342,302.051 333.119,303 331,303 331,294.971 342,294.942 342,300  Z"/>

<path  fill="#FA8072" stroke-width="0" stroke="#FA8072" d = " M349 332 L352,333 C352,338.411 364.304,335.891 361,342.5 359.012,346.475 355.298,350.101 351.5,352 351.5,352 347.5,352 347.5,352 347.5,352 345.5,356 345.5,356 342.897,357.302 339.241,356.629 336.5,358 336.5,358 328.5,357 328.5,357 325.875,358.313 323.337,361.918 319.5,360 319.5,360 314.5,354 314.5,354 311.82,354 306.34,358.179 304,353.5 302.835,351.169 304.12,347.741 303,345.5 303,345.5 296,340.5 296,340.5 294.88,338.259 297.964,333.732 300.5,335 300.5,335 302.5,337 302.5,337 302.5,337 306,334.5 306,334.5 308.646,331.854 302.526,327.487 309.5,324 309.571,323.964 321,324.718 321,319 325.206,319 324.422,321.961 326.5,323 326.5,323 333.5,323 333.5,323 337.367,324.933 340.333,329 345,329 345,331.098 346.939,332 349,332  Z"/>

<path  fill-rule="evenodd" fill="#FA8072" stroke-width="0" stroke="#FA8072" d = " M153 343 C153,347.123 157.123,343 153,343  M153 340 C153,344.123 157.123,340 153,340  M132 338 L123,339 C123,339 123,346.5 123,346.5 124.814,350.127 130.611,349.555 133.5,351 133.5,351 138.5,356 138.5,356 138.5,356 151,356 151,356 151,356 154.5,357 154.5,357 159.868,354.316 158.982,345 159.5,345 159.5,345 164.5,349 164.5,349 164.5,349 167.5,348 167.5,348 169.559,349.029 166.468,351.437 167,352.5 169.292,357.085 181.665,357.17 184,352.5 184.873,350.754 189.114,338.728 189,338.5 186.621,333.742 171,324.809 171,320 163.209,320 157.027,325.736 150.5,329 150.5,329 141.5,331 141.5,331 140.141,331.68 138.289,337 133,337 133,337 132,338 132,338  Z"/>

<path  fill="#022CFF" stroke-width="0" stroke="#022CFF" d = " M243 337 L243,338 C246.454,338 243.734,334 246,334 247.951,334 246.477,331.546 247,330.5 247,330.5 250,328.5 250,328.5 251.888,324.723 244.06,324 242,324 242,324 238,326 238,326 238,327.232 237.553,332 241,332 242.014,332 243,335.959 243,337  Z"/>

</g>
</svg>
