<svg xmlns="http://www.w3.org/2000/svg" xmlns:xlink="http://www.w3.org/1999/xlink" height="512" width="512">
<g>
<rect width="512" height="512" fill="#000000"  stroke-width="0" /> 
<path  fill-rule="evenodd" fill="#FFE300" stroke-width="0" stroke="#FFE300" d = " M243 189 C243,192.479 247.365,189 243,189  M205 265 C205,266.79 216.55,266 218.5,266 222.149,266 221.816,261.842 223.5,261 228.486,258.507 236.855,257.79 240,251.5 241.547,248.405 240.155,228.828 244.5,231 L245,237 C245,242.917 246.57,246.641 249,251.5 251.421,256.342 264.37,260.935 268.5,263 L274.5,270 L278.5,267 C279.647,266.426 283,268.064 283,266 277.273,266 274.54,260.02 270.5,258 265.837,255.668 258.156,253.812 255,247.5 251.379,240.259 249.484,211.533 253,204.5 253,204.5 252,191.5 252,191.5 252,191.5 254,188 254,188 254,180.27 252.773,168.045 250,162.5 248.486,159.472 251,154.618 251,152 246.535,152 248.787,174.357 245.5,176 240.724,178.388 242.089,163.321 243,161.5 243.58,160.34 236.955,147.409 236,145.5 229.109,131.717 204.245,140.627 195.5,145 182.841,151.33 168.928,190.356 176,204.5 177.844,208.188 174.057,229 181,229 181,225.513 182.583,224.333 184,221.5 184.959,219.581 180.691,188.882 180,187.5 180,187.5 182,177 182,177 182,166.379 189.466,150.517 200.5,145 203.742,143.379 208.382,144.559 211.5,143 215.3,141.1 224.708,141.104 228.5,143 236.222,146.861 241.99,161.52 238,169.5 236.367,172.765 232.738,178.977 235,183.5 237.477,188.453 238,196.215 238,201 238,202.984 234.722,204.945 236,207.5 238.025,211.551 235.925,222.65 234,226.5 234,226.5 234,232.5 234,232.5 231.108,238.285 229.935,244.631 227,250.5 227,250.5 227,254.5 227,254.5 225.258,257.985 209.333,265 205,265  Z"/>

<path  fill="#FFE300" stroke-width="0" stroke="#FFE300" d = " M257 144 C268.492,144 276.268,140.884 286.5,146 L290.5,146 C294.406,147.953 305.762,161 307,161 307,150.484 284.165,139 275,139 271.062,139 257,138.866 257,144  Z"/>

<path  fill="#FF8700" stroke-width="0" stroke="#FF8700" d = " M202 263 C203.481,263 202.785,265 205,265 209.333,265 225.258,257.985 227,254.5 227,254.5 227,250.5 227,250.5 229.935,244.631 231.108,238.285 234,232.5 234,232.5 234,226.5 234,226.5 235.925,222.65 238.025,211.551 236,207.5 234.722,204.945 238,202.984 238,201 238,196.215 237.477,188.453 235,183.5 232.738,178.977 236.367,172.765 238,169.5 241.99,161.52 236.222,146.861 228.5,143 224.708,141.104 215.3,141.1 211.5,143 208.382,144.559 203.742,143.379 200.5,145 189.466,150.517 182,166.379 182,177 182,177 180,187.5 180,187.5 180.691,188.882 184.959,219.581 184,221.5 182.583,224.333 181,225.513 181,229 181,233.623 187.129,247.757 189,251.5 189,251.5 194,256 194,256 194,256 198,260 198,260 198,260 199,261 199,261 199,258.483 202,261.259 202,263  Z"/>

<path  fill="#FF8700" stroke-width="0" stroke="#FF8700" d = " M289 262 C289,265.004 283,263.483 283,266 277.273,266 274.54,260.02 270.5,258 265.837,255.668 258.156,253.812 255,247.5 251.379,240.259 249.484,211.533 253,204.5 253,204.5 252,191.5 252,191.5 252,191.5 254,188 254,188 254,180.27 252.773,168.045 250,162.5 248.486,159.472 251,154.618 251,152 251,152 252,150 252,150 252,150 253,148 253,148 254.747,148 255,147.747 255,146 255,146 257,144 257,144 268.492,144 276.268,140.884 286.5,146 286.5,146 290.5,146 290.5,146 294.406,147.953 305.762,161 307,161 307,161 307,162 307,162 307,167.537 308.572,176.645 311,181.5 312.305,184.109 307.976,216.547 306,220.5 304.818,222.863 309,224.892 309,227 309,227 306,233.5 306,233.5 306,233.5 306,239.5 306,239.5 303.366,244.768 300.622,250.256 298,255.5 298,255.5 293,259 293,259 293,259 292,260 292,260 292,260 290,261 290,261 290,261 289,262 289,262  Z"/>

<path  fill="#FFE300" stroke-width="0" stroke="#FFE300" d = " M255 146 C253.253,146 253,146.253 253,148 254.747,148 255,147.747 255,146  Z"/>

<path  fill="#FFE300" stroke-width="0" stroke="#FFE300" d = " M253 148 L252,150 C252,150 253,148 253,148  Z"/>

<path  fill="#FFE300" stroke-width="0" stroke="#FFE300" d = " M252 150 L251,152 C251,152 252,150 252,150  Z"/>

<path  fill="#FFE300" stroke-width="0" stroke="#FFE300" d = " M307 162 C312.36,162 311.62,168.74 313,171.5 317.378,180.255 317.391,204.718 313,213.5 311.399,216.703 314.176,227 309,227 309,224.892 304.818,222.863 306,220.5 307.976,216.547 312.305,184.109 311,181.5 308.572,176.645 307,167.537 307,162  Z"/>

<path  fill="#FFE300" stroke-width="0" stroke="#FFE300" d = " M194 256 L198,260 C194.885,260 194,259.115 194,256  Z"/>

<path  fill="#30DA00" stroke-width="0" stroke="#30DA00" d = " M380 256 C380,257.942 371.135,260.183 369.5,261 367.272,262.114 363.218,271.359 366.5,273 377.364,278.432 400.19,256 380,256  Z"/>

<path  fill="#FFE300" stroke-width="0" stroke="#FFE300" d = " M293 259 L292,260 C292,260 293,259 293,259  Z"/>

<path  fill="#FFE300" stroke-width="0" stroke="#FFE300" d = " M199 261 C199,263.293 199.997,263 202,263 202,261.259 199,258.483 199,261  Z"/>

<path  fill="#FFE300" stroke-width="0" stroke="#FFE300" d = " M290 261 L289,262 C289,262 290,261 290,261  Z"/>

<path  fill="#30DA00" stroke-width="0" stroke="#30DA00" d = " M110 268 C110,269.466 103.609,271.719 106,276.5 110.078,284.656 120.465,285.483 127.5,289 129.133,289.817 135,287.475 135,285.5 135,274.687 119.095,268 110,268  Z"/>

<path  fill="#FA8072" stroke-width="0" stroke="#FA8072" d = " M298 364 C298,366.119 290.9,367.701 290,369.5 288.385,372.73 290,374.628 290,377.5 L286.5,378 L282,381.5 C279.499,386.502 294.605,396.948 296.5,396 297.721,395.39 302,391 302.5,391 304.199,391 302.044,393.412 302,393.5 301.231,395.038 303.242,397.371 304.5,398 306.103,398.802 310.123,395.689 311.5,395 315.97,392.765 323,400.531 323,387 L323,380.5 C320.856,376.211 312.763,373.132 308.5,371 L309,367.5 C307.518,364.536 300.769,364 298,364  Z"/>

<path  fill="#FA8072" stroke-width="0" stroke="#FA8072" d = " M190 367 L189,371.5 C187.603,374.294 181.937,375.782 179.5,377 179.076,377.212 171.146,388.677 170.5,389 164.017,392.242 161.437,396.468 170.5,401 175.493,403.497 174.02,393.74 175.5,393 L181.5,397 C183.083,397.792 185.123,396.311 188.5,398 190.486,398.993 198.974,394.551 200,392.5 L200.5,388 C201.086,387.707 206.646,384.209 207,383.5 208.897,379.706 200.492,380.485 200,379.5 198.083,375.666 202.008,371.754 196.5,369 L192.5,369 L190,367  Z"/>

<path  fill="#FA8072" stroke-width="0" stroke="#FA8072" d = " M327 388 C327,389.791 323.73,390.959 325,393.5 328.777,401.054 337.234,388 327,388  Z"/>

</g>
</svg>
