<svg xmlns="http://www.w3.org/2000/svg" xmlns:xlink="http://www.w3.org/1999/xlink" height="512" width="512">
<g>
<rect width="512" height="512" fill="#000000"  stroke-width="0" /> 
<path  fill-rule="evenodd" fill="#86FF5A" stroke-width="0" stroke="#86FF5A" d = " M239 357 C239,360.063 239.76,360.02 241,362.5 L242,367.5 C245.738,374.976 252.812,359.156 248.5,357 L239,357  M235 318 C235,319.564 226.859,319.321 225.5,320 222.857,321.321 220.018,321.741 217.5,323 214.358,324.571 213.394,327.553 210.5,329 201.104,333.698 200.167,352.166 196,360.5 190.105,372.291 206.85,400.675 215.5,405 L224.5,407 C226.858,408.179 236.846,411.327 239.5,410 L244.5,405 C247.476,403.512 250.098,408.799 252.5,410 261.96,414.73 281.754,400.992 285,394.5 288.761,386.978 291.225,379.05 295,371.5 296.939,367.622 291.643,352.786 290,349.5 287.559,344.619 287.498,338.497 285,333.5 284.04,331.581 282.818,332.659 281.5,332 278.23,330.365 277.057,326.779 273.5,325 262.671,319.586 248.219,318 235,318  Z"/>

<path  fill-rule="evenodd" fill="#EB57FF" stroke-width="0" stroke="#EB57FF" d = " M244 361 C244,365.123 248.123,361 244,361  M239 357 C239,360.063 239.76,360.02 241,362.5 L242,367.5 C245.738,374.976 252.812,359.156 248.5,357 L239,357  Z"/>

<path  fill="#27F4FD" stroke-width="0" stroke="#27F4FD" d = " M244 361 C244,365.123 248.123,361 244,361  Z"/>

</g>
</svg>
