<svg xmlns="http://www.w3.org/2000/svg" xmlns:xlink="http://www.w3.org/1999/xlink" height="512" width="512">
<g>
<rect width="512" height="512" fill="#000000"  stroke-width="0" /> 
<path  fill-rule="evenodd" fill="#FFFF00" stroke-width="0" stroke="#FFFF00" d = " M264 175 C264,175.39 250.862,177.319 249.5,178 239.043,183.229 234.624,176.938 230.5,179 L221.5,183 L216.5,188 C213.376,189.562 204.377,196.254 207,201.5 L217,201 C225.647,201 237.213,202.144 245.5,198 246.31,197.595 263.905,199 268,199 L274.5,198 C275.81,198.655 284.425,202.037 284.5,202 286.796,200.852 282.657,192.813 282,191.5 277.037,181.574 279.868,175 264,175  M327 152 L326,157.5 C329.999,165.498 336.448,172.974 344.5,177 346.295,177.897 347.92,182.29 350.5,181 355.081,178.71 347.226,174.048 348,172.5 352.883,162.734 336.803,152 327,152  M187 145 C187,148.604 181.427,150.647 180,153.5 177.447,158.606 161.097,184.701 156.5,187 150.422,190.039 144.469,194.016 138.5,197 137.581,197.459 133.698,200.099 135.5,201 L139.5,204 L148.5,204 C151.941,205.72 150.338,210.419 153.5,212 157.949,214.225 161.902,208.598 164.5,206 171.084,199.416 171.985,186.529 176,178.5 178.401,173.698 196.888,145 187,145  M204 143 C204,146.154 201.012,144.476 200,146.5 L195,155.5 L194,163.5 C187.07,177.36 183.897,192.705 177,206.5 175.545,209.41 160.07,222.641 162,226.5 164.369,231.238 183.93,218.641 186,214.5 189.296,207.909 187.59,197.32 193,186.5 193.544,185.412 196.048,178 197.5,178 199.126,178 199.516,182.468 199,183.5 197.362,186.776 195.834,200.167 197,202.5 L197.5,206 L204,199.5 C209.321,188.858 201.955,173.772 217.5,166 L219.5,163 C223.699,160.9 230.34,163.08 234.5,161 237.691,159.405 242.42,161.54 245.5,160 256.335,154.583 275.216,156.932 281,168.5 288.875,184.25 286.305,200.805 300.5,215 303.809,218.309 315.055,230.391 319,222.5 320.774,218.953 308.095,196.691 306,192.5 L300,175.5 L295,170.5 L292,162.5 L289,160.5 C287.554,157.608 287.017,147.758 283.5,146 278.648,143.574 254.244,147.128 248.5,150 246.034,151.233 240.957,148.271 239.5,149 236.519,150.49 228.42,152.96 224.5,151 219.926,148.713 208.977,143 204,143  M299 142 C299,144.86 294.414,149.328 296,152.5 L307,169.5 C310.515,176.531 313.846,185.192 317,191.5 318.306,194.112 324.842,208.329 329.5,206 332.664,204.418 330.75,199 332,196.5 333.03,194.44 337.36,190.22 336,187.5 L325,176.5 L310.5,155 C307.435,151.935 303.756,142 299,142  M175 137 C175,138.325 169.639,139.43 168.5,140 L162.5,146 C157.684,148.408 154.043,156.228 148.5,159 144.194,161.153 123.698,170.104 122,173.5 L120,178.5 C120,181.697 125.065,185.63 126,187.5 L126.5,192 C131.091,194.296 140.57,183.93 143.5,181 147.969,176.531 161.005,167.489 164,161.5 166.223,157.054 168.581,153.919 172.5,150 175.368,147.132 182.804,137 175,137  M258 108 C258,110.778 251.351,113.074 249.5,114 243.643,116.928 235.505,114.998 229.5,118 L224.5,117 C223.059,117.721 224.856,119.322 221.5,121 218.79,122.355 208.679,122.859 212,129.5 212.668,130.835 219.335,130 219.5,130 L222.5,132 L224.5,130 L236,131 C242.558,131 255.137,125.819 261.5,129 264.196,130.348 273.135,132.682 276.5,131 278.52,129.99 276.652,120.805 276,119.5 271.661,110.821 268.727,108 258,108  M294 219 C294,229.522 278.888,227.806 272.5,231 263.799,235.351 240.461,237.481 231.5,233 227.135,230.817 219.95,234.225 215.5,232 212.688,230.594 209.213,230.357 206.5,229 203.528,227.514 201.515,223 198,223 198,231.281 204.794,231.147 210.5,234 210.5,234 215.5,238 215.5,238 215.5,238 228.5,239 228.5,239 238.137,243.818 257.452,243.024 267.5,238 267.5,238 273.5,238 273.5,238 279.726,234.887 285.889,233.306 292.5,230 294.751,228.874 293.775,220.863 295.5,220 297.961,218.769 300.942,225.221 302.5,226 309.029,229.264 315.201,237.149 323.5,233 330.119,229.691 324.709,218.917 323,215.5 322.462,214.425 319.879,208.81 321.5,208 321.5,208 328.5,214 328.5,214 328.5,214 338.5,213 338.5,213 340.266,212.117 352.69,201.121 353,200.5 353,200.5 354,195.5 354,195.5 354,195.5 352,192.5 352,192.5 353.767,188.965 354.537,193.982 356.5,193 360.381,191.06 364.793,173.086 363,169.5 360.814,165.129 358.159,160.819 356,156.5 355.039,154.578 339.217,148.358 336.5,147 334.091,145.795 331.639,141.569 328.5,140 328.5,140 323.5,139 323.5,139 321.597,138.049 312.22,130.64 311.5,131 309.682,131.909 304.993,132.515 304,134.5 304,134.5 303.5,138 303.5,138 303.5,138 298.5,137 298.5,137 294.773,138.863 288.189,142.845 284.5,141 283.096,140.298 280.124,137.252 281,135.5 285.426,126.649 286.852,122.204 282,112.5 276.232,100.963 262.561,106.53 257.5,104 253.79,102.145 258.181,99.8406 254.5,98 252.357,96.9286 221.345,97.5775 218.5,99 214.807,100.847 202.382,109.264 205,114.5 206.247,116.993 211.545,115.41 210,118.5 208.217,122.066 204.856,123.787 203,127.5 201.166,131.168 209.41,135.545 198.5,141 196.215,142.143 195.047,139.774 193.5,139 191.645,138.073 186.058,138.615 185,136.5 185,136.5 187,133.5 187,133.5 187.701,132.098 182.413,124.456 181.5,124 181.5,124 178.5,125 178.5,125 176.698,125 175.126,120.687 172.5,122 172.5,122 169.5,126 169.5,126 169.5,126 166.5,124 166.5,124 153.151,130.675 130.925,133.65 123,149.5 121.853,151.794 122.626,155.247 122,156.5 122,156.5 118,161.5 118,161.5 116.526,164.447 115.315,187.131 117,190.5 119.071,194.642 121.965,198.429 124,202.5 124,202.5 128,204.5 128,204.5 129.952,208.403 129.179,208.84 133.5,211 133.5,211 140.5,221 140.5,221 140.679,221 143.159,218.83 147.5,221 148.97,221.735 154.847,234.174 158.5,236 160.604,237.052 161.17,234 162.5,234 163.851,234 167.432,235.034 169.5,234 171.703,232.898 189.655,220.19 190,219.5 190,219.5 192.5,210 192.5,210 192.5,210 195.5,212 195.5,212 199.423,213.961 203,206.985 203,217 203,217.618 206.883,219.309 207.5,219 208.512,218.494 208.642,214.071 210.5,215 214.015,216.758 231.171,216.164 235.5,214 238.494,212.503 263.23,215.865 267.5,218 272.19,220.345 278.998,216.751 282.5,215 282.5,215 286.5,216 286.5,216 286.5,216 287.5,214 287.5,214 287.5,214 291,215 291,215 291,212.845 294,217.486 294,219  Z"/>

<path  fill="#00FFFF" stroke-width="0" stroke="#00FFFF" d = " M258 108 C258,110.778 251.351,113.074 249.5,114 243.643,116.928 235.505,114.998 229.5,118 L224.5,117 C223.059,117.721 224.856,119.322 221.5,121 218.79,122.355 208.679,122.859 212,129.5 212.668,130.835 219.335,130 219.5,130 L222.5,132 L224.5,130 L236,131 C242.558,131 255.137,125.819 261.5,129 264.196,130.348 273.135,132.682 276.5,131 278.52,129.99 276.652,120.805 276,119.5 271.661,110.821 268.727,108 258,108  Z"/>

<path  fill="#00FFFF" stroke-width="0" stroke="#00FFFF" d = " M175 137 C175,138.325 169.639,139.43 168.5,140 L162.5,146 C157.684,148.408 154.043,156.228 148.5,159 144.194,161.153 123.698,170.104 122,173.5 L120,178.5 C120,181.697 125.065,185.63 126,187.5 L126.5,192 C131.091,194.296 140.57,183.93 143.5,181 147.969,176.531 161.005,167.489 164,161.5 166.223,157.054 168.581,153.919 172.5,150 175.368,147.132 182.804,137 175,137  Z"/>

<path  fill="#00FFFF" stroke-width="0" stroke="#00FFFF" d = " M299 142 C299,144.86 294.414,149.328 296,152.5 L307,169.5 C310.515,176.531 313.846,185.192 317,191.5 318.306,194.112 324.842,208.329 329.5,206 332.664,204.418 330.75,199 332,196.5 333.03,194.44 337.36,190.22 336,187.5 L325,176.5 L310.5,155 C307.435,151.935 303.756,142 299,142  Z"/>

<path  fill="#00FFFF" stroke-width="0" stroke="#00FFFF" d = " M204 143 C204,146.154 201.012,144.476 200,146.5 L195,155.5 L194,163.5 C187.07,177.36 183.897,192.705 177,206.5 175.545,209.41 160.07,222.641 162,226.5 164.369,231.238 183.93,218.641 186,214.5 189.296,207.909 187.59,197.32 193,186.5 193.544,185.412 196.048,178 197.5,178 199.126,178 199.516,182.468 199,183.5 197.362,186.776 195.834,200.167 197,202.5 L197.5,206 L204,199.5 C209.321,188.858 201.955,173.772 217.5,166 L219.5,163 C223.699,160.9 230.34,163.08 234.5,161 237.691,159.405 242.42,161.54 245.5,160 256.335,154.583 275.216,156.932 281,168.5 288.875,184.25 286.305,200.805 300.5,215 303.809,218.309 315.055,230.391 319,222.5 320.774,218.953 308.095,196.691 306,192.5 L300,175.5 L295,170.5 L292,162.5 L289,160.5 C287.554,157.608 287.017,147.758 283.5,146 278.648,143.574 254.244,147.128 248.5,150 246.034,151.233 240.957,148.271 239.5,149 236.519,150.49 228.42,152.96 224.5,151 219.926,148.713 208.977,143 204,143  Z"/>

<path  fill="#00FFFF" stroke-width="0" stroke="#00FFFF" d = " M187 145 C187,148.604 181.427,150.647 180,153.5 177.447,158.606 161.097,184.701 156.5,187 150.422,190.039 144.469,194.016 138.5,197 137.581,197.459 133.698,200.099 135.5,201 L139.5,204 L148.5,204 C151.941,205.72 150.338,210.419 153.5,212 157.949,214.225 161.902,208.598 164.5,206 171.084,199.416 171.985,186.529 176,178.5 178.401,173.698 196.888,145 187,145  Z"/>

<path  fill="#00FFFF" stroke-width="0" stroke="#00FFFF" d = " M327 152 L326,157.5 C329.999,165.498 336.448,172.974 344.5,177 346.295,177.897 347.92,182.29 350.5,181 355.081,178.71 347.226,174.048 348,172.5 352.883,162.734 336.803,152 327,152  Z"/>

<path  fill="#00FFFF" stroke-width="0" stroke="#00FFFF" d = " M264 175 C264,175.39 250.862,177.319 249.5,178 239.043,183.229 234.624,176.938 230.5,179 L221.5,183 L216.5,188 C213.376,189.562 204.377,196.254 207,201.5 L217,201 C225.647,201 237.213,202.144 245.5,198 246.31,197.595 263.905,199 268,199 L274.5,198 C275.81,198.655 284.425,202.037 284.5,202 286.796,200.852 282.657,192.813 282,191.5 277.037,181.574 279.868,175 264,175  Z"/>

<path  fill="#00FFFF" stroke-width="0" stroke="#00FFFF" d = " M294 219 C294,229.522 278.888,227.806 272.5,231 263.799,235.351 240.461,237.481 231.5,233 227.135,230.817 219.95,234.225 215.5,232 212.688,230.594 209.213,230.357 206.5,229 203.528,227.514 201.515,223 198,223 198,220.462 200.152,217 203,217 203,217.618 206.883,219.309 207.5,219 208.512,218.494 208.642,214.071 210.5,215 214.015,216.758 231.171,216.164 235.5,214 238.494,212.503 263.23,215.865 267.5,218 272.19,220.345 278.998,216.751 282.5,215 282.5,215 286.5,216 286.5,216 286.5,216 287.5,214 287.5,214 287.5,214 291,215 291,215 291,217.043 291.591,219 294,219  Z"/>

<path  fill-rule="evenodd" fill="#9953FF" stroke-width="0" stroke="#9953FF" d = " M276 332 C276,336.238 282.072,332 276,332  M279 338 C279,339.643 275.235,339 274,339 274,339 276,335.5 276,335.5 276,333.085 268.812,332.656 267.5,332 264.854,330.677 264.011,325.756 260.5,324 258.205,322.853 258.004,327 255,327 255,327 254,328 254,328 247.844,328 255.822,322.161 251.5,320 249.127,318.813 250.671,323 249.5,323 248.455,323 247.639,321 246,321 246,311.489 241.302,329 245,329 245,329 247,334 247,334 247,334 243,332 243,332 243,329.66 244.91,316.795 238.5,320 238.5,320 235.5,327 235.5,327 234.168,327 236.151,321.674 233.5,323 232.517,323.492 233.492,329.496 230.5,328 230.5,328 230.5,324 230.5,324 228.582,324 217,327.752 217,330.5 217,331.151 219.198,332.151 217.5,333 216.383,333.559 209.038,336.576 208,334.5 206.871,332.241 216.257,333.015 215,330.5 214.569,329.637 198,332.312 198,337 198,337 195.5,334 195.5,334 193.28,332.89 190.848,332.174 188.5,331 188.5,331 185.5,331 185.5,331 182.312,329.406 165,314.189 165,311 168.533,311 171,312.811 171,307 171,305.943 176.954,302.591 178,300.5 180.046,296.408 178.032,290.435 180,286.5 182.584,281.332 189.323,278.089 193.5,276 195.61,274.945 195.312,271.594 196.5,271 196.5,271 202,267.5 202,267.5 205.347,260.805 192,258.333 192,257 193.006,257 195.666,251.832 195,250.5 193.092,246.684 187.747,245 184,245 184,227.15 213.017,242.758 219.5,246 223.559,248.029 219.013,252 225,252 225,252 221,254.5 221,254.5 220.565,255.371 217.585,267.671 218,268.5 218,268.5 229,277.5 229,277.5 229.416,278.331 231.588,286 232.5,286 232.5,286 237.5,283 237.5,283 237.5,283 247,283 247,283 249.334,283 256.519,285.49 257.5,285 257.5,285 261,276.5 261,276.5 261,276.5 270,269.5 270,269.5 271.874,265.752 267.68,250 265,250 265,246.041 271.429,245.035 273.5,244 280.752,240.374 297.705,228.909 303,239.5 303,239.5 306,243 306,243 302.458,243 293.159,244.819 296,250.5 296,250.5 302,255 302,255 302,255 297,257 297,257 292.494,257 285.121,261.742 288,267.5 290.171,271.842 303.622,275.743 306,280.5 309.435,287.37 313,294.353 313,301.5 313,302.904 315.977,304 317,304 317,304 320,307 320,307 320,309.833 322,311.84 322,314 322,314 314.5,322 314.5,322 306.846,329.654 298.416,337 288,337 288,333.232 279,335.035 279,338  Z"/>

<path  fill="#FA8072" stroke-width="0" stroke="#FA8072" d = " M320 307 C320,309.833 322,311.84 322,314 334.955,314 345.021,286.542 339,274.5 336.597,269.695 327.352,262.203 327,261.5 324.91,257.32 323.314,253.407 318.5,251 316.67,250.085 306,244.594 306,243 302.458,243 293.159,244.819 296,250.5 296,250.5 302,255 302,255 307.115,255 308.38,257.94 312.5,260 312.5,260 318.5,261 318.5,261 329.556,266.528 330.14,274.781 335,284.5 337.725,289.95 330.805,304 325,304 325,304 323,305 323,305 323,305 322,305 322,305 322,305 320,307 320,307  Z"/>

<path  fill="#FA8072" stroke-width="0" stroke="#FA8072" d = " M162 310 C163.048,310 165,309.527 165,311 168.533,311 171,312.811 171,307 171,307 168,306 168,306 168,306 166,305 166,305 166,305 159,300.5 159,300.5 156.831,296.161 156.198,290.895 154,286.5 152.541,283.582 157.224,277.052 158,275.5 161.958,267.585 172.183,261.159 180.5,257 182.762,255.869 189.583,257 192,257 193.006,257 195.666,251.832 195,250.5 193.092,246.684 187.747,245 184,245 179.582,245 177.209,249.145 173.5,251 163.516,255.992 155.212,263.077 150,273.5 147.93,277.641 149.123,283.254 147,287.5 145.803,289.894 151,296.452 151,299 151,299 156,305.5 156,305.5 156,305.5 162,310 162,310  Z"/>

<path  fill="#EB57FF" stroke-width="0" stroke="#EB57FF" d = " M265 250 C267.68,250 271.874,265.752 270,269.5 L261,276.5 L257.5,285 C256.519,285.49 249.334,283 247,283 L237.5,283 L232.5,286 C231.588,286 229.416,278.331 229,277.5 L218,268.5 C217.585,267.671 220.565,255.371 221,254.5 L225,252 C230.771,252 236.227,250.953 239,256.5 239.737,257.975 242.094,270.203 244.5,269 247.977,267.262 246.677,263.147 248,260.5 251.423,253.654 257.263,250 265,250  Z"/>

<path  fill="#5BF1FF" stroke-width="0" stroke="#5BF1FF" d = " M322 305 L323,305 C323,305 325,304 325,304 330.805,304 337.725,289.95 335,284.5 330.14,274.781 329.556,266.528 318.5,261 318.5,261 312.5,260 312.5,260 308.38,257.94 307.115,255 302,255 302,255 297,257 297,257 292.494,257 285.121,261.742 288,267.5 290.171,271.842 303.622,275.743 306,280.5 309.435,287.37 313,294.353 313,301.5 313,302.904 315.977,304 317,304 317,304 322,305 322,305  Z"/>

<path  fill="#5BF1FF" stroke-width="0" stroke="#5BF1FF" d = " M168 306 L171,307 C171,305.943 176.954,302.591 178,300.5 180.046,296.408 178.032,290.435 180,286.5 182.584,281.332 189.323,278.089 193.5,276 195.61,274.945 195.312,271.594 196.5,271 196.5,271 202,267.5 202,267.5 205.347,260.805 192,258.333 192,257 189.583,257 182.762,255.869 180.5,257 172.183,261.159 161.958,267.585 158,275.5 157.224,277.052 152.541,283.582 154,286.5 156.198,290.895 156.831,296.161 159,300.5 159,300.5 166,305 166,305 166,305 168,306 168,306  Z"/>

<path  fill="#34FF0D" stroke-width="0" stroke="#34FF0D" d = " M151 299 L156,305.5 L162,310 C156.738,310 153.475,308.451 151,303.5 150.52,302.541 149.429,299 151,299  Z"/>

<path  fill="#4196FF" stroke-width="0" stroke="#4196FF" d = " M246 321 C246,322.49 246.735,329 245,329 241.302,329 246,311.489 246,321  Z"/>

<path  fill-rule="evenodd" fill="#00F60E" stroke-width="0" stroke="#00F60E" d = " M221 329 C221,334.57 226.057,329 221,329  M228 327 C228,330.746 230.091,327 228,327  M213 340 L214,341 C216.361,341 219,340.6 219,338 219,338 221,336 221,336 224.768,336 227.417,334.541 230.5,333 230.5,333 242,333 242,333 242,333 243,332 243,332 243,329.66 244.91,316.795 238.5,320 238.5,320 235.5,327 235.5,327 234.168,327 236.151,321.674 233.5,323 232.517,323.492 233.492,329.496 230.5,328 230.5,328 230.5,324 230.5,324 228.582,324 217,327.752 217,330.5 217,331.151 219.198,332.151 217.5,333 216.383,333.559 209.038,336.576 208,334.5 206.871,332.241 216.257,333.015 215,330.5 214.569,329.637 198,332.312 198,337 201.186,337 204.865,339 209,339 213.597,339 213,332.805 213,340  Z"/>

<path  fill-rule="evenodd" fill="#00F60E" stroke-width="0" stroke="#00F60E" d = " M260 328 C260,330.091 263.746,328 260,328  M274 339 L272,340 C270.762,340 269,339.577 269,338 269,336.423 267.238,336 266,336 266,336 258.5,333 258.5,333 258.5,333 249,334 249,334 249,334 248,334 248,334 248,334 247,334 247,334 247,334 245,329 245,329 246.735,329 246,322.49 246,321 247.639,321 248.455,323 249.5,323 250.671,323 249.127,318.813 251.5,320 255.822,322.161 247.844,328 254,328 254,328 255,327 255,327 258.004,327 258.205,322.853 260.5,324 264.011,325.756 264.854,330.677 267.5,332 268.812,332.656 276,333.085 276,335.5 276,335.5 274,339 274,339  Z"/>

<path  fill="#9953FF" stroke-width="0" stroke="#9953FF" d = " M228 327 C228,330.746 230.091,327 228,327  Z"/>

<path  fill="#9953FF" stroke-width="0" stroke="#9953FF" d = " M221 329 C221,334.57 226.057,329 221,329  Z"/>

<path  fill="#00F60E" stroke-width="0" stroke="#00F60E" d = " M276 332 C276,336.238 282.072,332 276,332  Z"/>

<path  fill="#FF3427" stroke-width="0" stroke="#FF3427" d = " M219 338 C219,340.6 216.361,341 214,341 214,346.478 219.577,344.538 222.5,346 227.6,348.55 242,338.932 242,333 242,333 230.5,333 230.5,333 227.417,334.541 224.768,336 221,336 221,337.747 220.747,338 219,338  Z"/>

<path  fill="#FF3427" stroke-width="0" stroke="#FF3427" d = " M269 338 C269,339.577 270.762,340 272,340 272,352.794 249,348.656 249,335 249,335 249,334 249,334 249,334 258.5,333 258.5,333 258.5,333 266,336 266,336 266,336 269,338 269,338  Z"/>

<path  fill="#9953FF" stroke-width="0" stroke="#9953FF" d = " M249 334 L249,335 C249,335 248,334 248,334 248,334 249,334 249,334  Z"/>

<path  fill="#00F60E" stroke-width="0" stroke="#00F60E" d = " M288 337 C285.611,337 282.013,338 279,338 279,335.035 288,333.232 288,337  Z"/>

<path  fill="#9953FF" stroke-width="0" stroke="#9953FF" d = " M209 339 C213.597,339 213,332.805 213,340 211.855,340 209,340.579 209,339  Z"/>

<path  fill="#9953FF" stroke-width="0" stroke="#9953FF" d = " M221 336 L219,338 C220.747,338 221,337.747 221,336  Z"/>

<path  fill="#9953FF" stroke-width="0" stroke="#9953FF" d = " M266 336 C267.238,336 269,336.423 269,338 269,338 266,336 266,336  Z"/>

</g>
</svg>
