<svg xmlns="http://www.w3.org/2000/svg" xmlns:xlink="http://www.w3.org/1999/xlink" height="512" width="512">
<g>
<rect width="512" height="512" fill="#000000"  stroke-width="0" /> 
<path  fill-rule="evenodd" fill="#86FF5A" stroke-width="0" stroke="#86FF5A" d = " M240 370 C240,373.036 238.65,375.801 240,378.5 244.323,387.145 260.202,370 240,370  M240 330 C240,332.261 233.906,330.297 232.5,331 226.438,334.031 219.465,335.018 213.5,338 211.649,338.925 210.901,341.697 210,343.5 L206,346.5 C203.87,350.759 202.166,355.167 200,359.5 198.101,363.298 198.94,368.62 197,372.5 195.661,375.179 196.895,383.29 198,385.5 L199,398.5 L202,400.5 C207.991,412.482 218.528,421 233.5,421 L240.5,421 L245.5,415 L252.5,421 C261.36,425.43 269.356,417.072 275.5,414 277.199,413.151 283.13,411.24 284,409.5 285.701,406.097 288.652,402.196 290,399.5 L291,385.5 C295.386,376.727 292.004,364.508 288,356.5 284.967,350.435 283.228,340.864 275.5,337 265.589,332.045 251.835,330 240,330  Z"/>

<path  fill="#EB57FF" stroke-width="0" stroke="#EB57FF" d = " M240 370 C240,373.036 238.65,375.801 240,378.5 244.323,387.145 260.202,370 240,370  Z"/>

</g>
</svg>
