<svg xmlns="http://www.w3.org/2000/svg" xmlns:xlink="http://www.w3.org/1999/xlink" height="512" width="512">
<g>
<rect width="512" height="512" fill="#000000"  stroke-width="0" /> 
<path  fill-rule="evenodd" fill="#FA8072" stroke-width="0" stroke="#FA8072" d = " M329 379 C329,387.029 336.363,379 329,379  M328 356 C328,364.573 324.829,389.665 333.5,394 338.277,396.388 334.416,384.458 337.5,386 L338.5,395 C341.378,395 340,381.672 340,379 L340,365.5 C339.879,365.257 337.028,365.556 336,363.5 335.341,362.182 336.419,360.96 334.5,360 L330.5,361 C328.128,359.814 332.183,356 328,356  Z"/>

<path  fill="#FA8072" stroke-width="0" stroke="#FA8072" d = " M129 384 L125,388.5 C123.69,391.121 128.879,396.31 131.5,395 137.864,391.818 136.521,384 129,384  Z"/>

<path  fill="#FA8072" stroke-width="0" stroke="#FA8072" d = " M149 388 C149,394.295 155.295,388 149,388  Z"/>

<path  fill="#FA8072" stroke-width="0" stroke="#FA8072" d = " M343 389 C343,390.606 340.919,393.339 342,395.5 345.203,401.907 356.939,389 343,389  Z"/>

<path  fill="#FA8072" stroke-width="0" stroke="#FA8072" d = " M144 390 L142,392.5 L144.5,396 C147.789,396 147.243,390 144,390  Z"/>

</g>
</svg>
