<svg xmlns="http://www.w3.org/2000/svg" xmlns:xlink="http://www.w3.org/1999/xlink" height="512" width="512">
<g>
<rect width="512" height="512" fill="#000000"  stroke-width="0" /> 
<path  fill="#03C12D" stroke-width="0" stroke="#03C12D" d = " M149 322 C146.797,322 144.431,325.465 141.5,324 132.771,319.636 126.028,309.264 117.5,305 111.156,301.828 99.9059,299.312 96,291.5 93.998,287.496 93.9343,282.369 92,278.5 L85,270.5 C82.8556,266.211 84.1251,259.75 82,255.5 79.6977,250.895 77.1316,247.763 75,243.5 71.6499,236.8 76.3109,218.122 73,211.5 70.0472,205.594 74.5879,171.324 77,166.5 86.0994,148.301 100.524,131.988 118.5,123 L128.5,115 L136.5,116 L143.5,111 L146.5,112 C151.178,112 158.365,108.068 162.5,106 L170.5,106 C180.416,101.042 199.383,94.4414 210.5,100 214.116,101.808 219.773,99.1364 223.5,101 L232.5,102 L241.5,112 C243.556,113.028 243.582,108.335 244,107.5 245.721,104.059 250.118,100.691 253.5,99 257.907,96.7965 282.153,94.8267 286.5,97 288.128,97.814 293.828,94.664 296.5,96 298.999,97.2493 300.898,99.6989 303.5,101 305.758,102.129 311.362,101.431 316.5,104 L320.5,103 C326.127,105.813 333.94,104.22 339.5,107 352.78,113.64 367.183,117.342 380.5,124 383.774,125.637 388.699,135.199 390,136.5 394.037,140.537 400.043,143.585 403,149.5 408.124,159.748 412.883,170.267 418,180.5 420.09,184.68 416.619,194.263 415,197.5 413.892,199.716 418,202.457 418,204.5 418,206.553 415.678,210.856 417,213.5 421.705,222.911 420.468,233.564 416,242.5 L417,247.5 C413.287,254.925 409.672,262.156 406,269.5 L398,276.5 C396.471,279.559 396.794,286.911 395,290.5 393.809,292.882 392.155,291.173 390.5,292 L384.5,299 C381.981,300.26 379.074,300.713 376.5,302 L367.5,311 C364.685,312.407 361.169,312.666 358.5,314 351.955,317.272 349.988,325 342,325 342,321.303 342.765,301.03 341,297.5 339.735,294.971 336,295.672 336,292 336,292 341,282 341,282 341,282 351.5,267 351.5,267 352.818,266.341 354.04,267.419 355,265.5 356.991,261.518 356.965,256.571 359,252.5 360.741,249.017 369.514,242.472 373,235.5 373,235.5 373,227 373,227 373,210.697 374.448,213.395 367,198.5 367,198.5 367,194.5 367,194.5 365.402,191.304 363.552,188.604 362,185.5 359.628,180.755 354.572,178.036 350.5,176 350.5,176 347.5,172 347.5,172 347.5,172 334.5,165 334.5,165 325.711,160.605 315.304,159.402 306.5,155 302.134,152.817 294.134,154.817 288.5,152 284.723,150.111 280.608,154 278,154 269.89,154 257.175,140 249.5,140 246.756,140 243.539,134.981 239.5,137 233.084,140.208 212.144,156 207,156 186.508,156 173.439,159.03 155.5,168 149.102,171.199 133.918,176.664 130,184.5 126.799,190.903 123.241,197.017 120,203.5 120,203.5 119,216.5 119,216.5 111.685,231.13 125.198,251.896 131,263.5 131,263.5 134,265.5 134,265.5 134.889,267.279 147.473,283 149,283 149,283 152,285 152,285 152,287.364 155,288.053 155,290 155,290 151,290.5 151,290.5 149.716,293.068 154.875,298.75 153,302.5 148.934,310.632 149,313.154 149,322  Z"/>

<path  fill="#1D68EB" stroke-width="0" stroke="#1D68EB" d = " M250 185 C250,177.307 239,178.913 239,186 227.849,186 207,167.578 207,156 212.144,156 233.084,140.208 239.5,137 243.539,134.981 246.756,140 249.5,140 257.175,140 269.89,154 278,154 278,167.517 263.804,185 250,185  Z"/>

<path  fill="#FF6E00" stroke-width="0" stroke="#FF6E00" d = " M338 281 L341,282 C341,282 351.5,267 351.5,267 352.818,266.341 354.04,267.419 355,265.5 356.991,261.518 356.965,256.571 359,252.5 360.741,249.017 369.514,242.472 373,235.5 373,235.5 373,227 373,227 373,210.697 374.448,213.395 367,198.5 367,198.5 367,194.5 367,194.5 365.402,191.304 363.552,188.604 362,185.5 359.628,180.755 354.572,178.036 350.5,176 350.5,176 347.5,172 347.5,172 347.5,172 334.5,165 334.5,165 325.711,160.605 315.304,159.402 306.5,155 302.134,152.817 294.134,154.817 288.5,152 284.723,150.111 280.608,154 278,154 278,167.517 263.804,185 250,185 247.002,185 242.642,186 239,186 227.849,186 207,167.578 207,156 186.508,156 173.439,159.03 155.5,168 149.102,171.199 133.918,176.664 130,184.5 126.799,190.903 123.241,197.017 120,203.5 120,203.5 119,216.5 119,216.5 111.685,231.13 125.198,251.896 131,263.5 131,263.5 134,265.5 134,265.5 134.889,267.279 147.473,283 149,283 149,274.874 142,269.896 142,265 142,265 141,264 141,264 141,261.523 138.989,261.478 138,259.5 138,259.5 137,253.5 137,253.5 133.272,246.045 126,251.417 126,238 124.814,238 124.814,237 126,237 126,237 126,235 126,235 124.527,235 125,233.048 125,232 125,228.365 121.89,216.72 123,214.5 123.736,213.028 131,195.236 131,195 131,195 132,194 132,194 132,187.945 149.288,177 155,177 155,177 156,176 156,176 156,176 157,175 157,175 163.737,175 179.463,166.982 187.5,171 192.609,173.554 197.466,176.483 202.5,179 206.84,181.17 209.197,190 214,190 215.428,190 223,196.657 223,198 226.575,198 239.534,212.983 245.5,210 250.269,207.615 261.449,198 266,198 268.127,198 270.367,191 274,191 274,187.81 276.524,184 280,184 280,184 281,183 281,183 281,183 282,182 282,182 282,180.188 295.277,172.111 297.5,171 297.5,171 301.5,171 301.5,171 314.678,164.411 352.519,179.538 359,192.5 364.5,203.5 372.225,219.049 366,231.5 363.116,237.268 355.201,242.097 353,246.5 353,246.5 350,256.5 350,256.5 346.184,264.132 338,271.912 338,281  Z"/>

<path  fill-rule="evenodd" fill="#814FFF" stroke-width="0" stroke="#814FFF" d = " M285 267 C285,268.991 280.716,269.931 282,272.5 L287,277.5 C298.687,300.873 306.028,267 285,267  M321 300 L320,301 C320,301 318,303.5 318,303.5 316.886,305.729 318.298,310.601 315.5,312 314.304,312.598 313.232,311.134 311.5,312 311.5,312 308.5,318 308.5,318 308.5,318 305.5,312 305.5,312 301.762,312 300.254,318 297.5,318 296.848,318 293.994,312.747 292.5,312 289.186,310.343 284.853,318.207 284,316.5 283.276,315.051 288.397,311.293 286,306.5 283.763,302.025 278.896,309 276.5,309 276.5,309 275,299.5 275,299.5 272.753,295.005 267.498,293.496 266,290.5 265.244,288.988 268.196,288.348 265.5,287 265.5,287 263,286.5 263,286.5 263,286.5 264,281.5 264,281.5 263.237,279.974 262.394,261.712 263,260.5 264.041,258.418 267,258.491 267,255 267,255 268,254 268,254 268,254 269,254 269,254 269,254 271,254 271,254 271,254 273,254 273,254 273,255.582 275.382,267 277.5,267 277.5,267 278,260.5 278,260.5 275.905,256.309 274,248.258 274,243.5 274,231.031 271,214.771 271,200 271,200 272,199 272,199 272,199 274,191 274,191 274,187.81 276.524,184 280,184 280,184 281,183 281,183 281,183 282,182 282,182 282,180.188 295.277,172.111 297.5,171 297.5,171 301.5,171 301.5,171 314.678,164.411 352.519,179.538 359,192.5 364.5,203.5 372.225,219.049 366,231.5 363.116,237.268 355.201,242.097 353,246.5 353,246.5 350,256.5 350,256.5 346.184,264.132 338,271.912 338,281 336.008,281 334,287.091 334,289 334,289 330,291 330,291 330,291 328,292 328,292 328,292 327,293 327,293 324.707,293 325,293.997 325,296 325,299.244 321,298.352 321,300  Z"/>

<path  fill-rule="evenodd" fill="#814FFF" stroke-width="0" stroke="#814FFF" d = " M199 268 C199,268.142 190.813,278.875 190,280.5 188.403,283.693 192.809,286.345 195.5,285 201.64,281.93 216.606,268 199,268  M168 301 C169.238,301 171,301.423 171,303 173.899,303 169.873,314 173.5,314 176.145,314 177.321,307.911 181.5,310 181.5,310 182,312.5 182,312.5 182.42,313.341 188.337,317.419 189.5,318 191.787,319.143 192.062,313.719 193.5,313 193.5,313 197.5,317 197.5,317 197.5,317 200.5,313 200.5,313 203.109,311.695 203.759,316 205.5,316 205.5,316 209.5,308 209.5,308 210.604,307.448 213.095,318.311 216,312.5 216,312.5 214,300.5 214,300.5 216.977,294.547 217,299.245 217,292.5 217,291.642 222,291.421 222,286 222,286 223,285 223,285 223,281.509 228.49,274.48 227,271.5 225.68,268.859 222,258.868 222,255 219.316,255 217.465,250 216,250 216,250 213,264.5 213,264.5 213,264.5 210,266.5 210,266.5 209.167,264.834 212.114,250.271 213,248.5 213,248.5 213,233.5 213,233.5 217.452,224.596 216,205.969 216,196 214.647,196 214,191.357 214,190 209.197,190 206.84,181.17 202.5,179 197.466,176.483 192.609,173.554 187.5,171 179.463,166.982 163.737,175 157,175 157,175 156,176 156,176 156,176 155,177 155,177 149.288,177 132,187.945 132,194 132,194 131,195 131,195 131,195.236 123.736,213.028 123,214.5 121.89,216.72 125,228.365 125,232 126.473,232 126,233.952 126,235 126,235 126,237 126,237 126,237 126,238 126,238 126,251.417 133.272,246.045 137,253.5 137,253.5 138,259.5 138,259.5 138.989,261.478 141,261.523 141,264 141,264 142,265 142,265 142,269.896 149,274.874 149,283 149,283 152,285 152,285 153.375,285 165.406,293 160,293 160,293 160,294 160,294 165.38,294 164,294.091 164,298 164,298 168,301 168,301  Z"/>

<path  fill="#022CFF" stroke-width="0" stroke="#022CFF" d = " M272 247 C272,248.819 273,251.591 273,254 273,255.582 275.382,267 277.5,267 277.5,267 278,260.5 278,260.5 275.905,256.309 274,248.258 274,243.5 274,231.031 271,214.771 271,200 271,200 272,199 272,199 272,199 274,191 274,191 270.367,191 268.127,198 266,198 266,201.733 267.446,205.391 269,208.5 269,208.5 269,217.5 269,217.5 273.145,225.791 272,237.034 272,247  Z"/>

<path  fill="#022CFF" stroke-width="0" stroke="#022CFF" d = " M223 198 C223,202.59 220.058,211.383 218,215.5 215.191,221.119 216,242.231 216,250 216,250 213,264.5 213,264.5 213,264.5 210,266.5 210,266.5 209.167,264.834 212.114,250.271 213,248.5 213,248.5 213,233.5 213,233.5 217.452,224.596 216,205.969 216,196 216,196 223,198 223,198  Z"/>

<path  fill-rule="evenodd" fill="#FF0800" stroke-width="0" stroke="#FF0800" d = " M244 238 L243,241.5 C242.537,242.427 242.683,246.908 244.5,246 245.714,245.393 245.365,238 244,238  M222 255 C225.492,255 225.445,256.472 228.5,258 230.753,259.127 252.63,261.435 255.5,260 259.291,258.104 262.432,255 267,255 267,255 268,254 268,254 268,254 269,254 269,254 269,254 270,252 270,252 270,250.576 270.362,247 272,247 272,237.034 273.145,225.791 269,217.5 269,217.5 269,208.5 269,208.5 267.446,205.391 266,201.733 266,198 261.449,198 250.269,207.615 245.5,210 239.534,212.983 226.575,198 223,198 223,202.59 220.058,211.383 218,215.5 215.191,221.119 216,242.231 216,250 217.465,250 219.316,255 222,255  Z"/>

<path  fill="#E1F00D" stroke-width="0" stroke="#E1F00D" d = " M269 254 L271,254 C271,254 270,252 270,252 270,252 269,254 269,254  Z"/>

<path  fill="#E1F00D" stroke-width="0" stroke="#E1F00D" d = " M268 254 L267,255 C267,255 268,254 268,254  Z"/>

<path  fill="#E1F00D" stroke-width="0" stroke="#E1F00D" d = " M149 322 C149.662,322 152.063,329.782 154.5,331 158.41,332.955 163.73,332.115 167.5,334 169.382,334.941 168.504,341.502 171.5,343 178.702,346.601 201.555,345.472 208.5,342 222.142,335.179 215.597,335.307 221,324.5 222.774,320.952 231.06,314.38 234,308.5 235.643,305.213 244.894,296.197 246.5,297 L255,309.5 L268,320.5 C270.149,324.798 274.944,338.722 279.5,341 283.909,343.205 290.274,340.887 294.5,343 296.833,344.167 305.699,345.401 308.5,344 311.146,342.677 311.989,337.756 315.5,336 318.243,334.628 320.559,339.03 322.5,340 323.73,340.615 342.207,334.086 343,332.5 L342,325 C342,321.303 342.765,301.03 341,297.5 339.735,294.971 336,295.672 336,292 336,292 334,289 334,289 334,289 330,291 330,291 330,291 328,292 328,292 328,292 327,293 327,293 327,293 325,296 325,296 325,299.244 321,298.352 321,300 321,300 320,301 320,301 320,301 318,303.5 318,303.5 316.886,305.729 318.298,310.601 315.5,312 314.304,312.598 313.232,311.134 311.5,312 311.5,312 308.5,318 308.5,318 308.5,318 305.5,312 305.5,312 301.762,312 300.254,318 297.5,318 296.848,318 293.994,312.747 292.5,312 289.186,310.343 284.853,318.207 284,316.5 283.276,315.051 288.397,311.293 286,306.5 283.763,302.025 278.896,309 276.5,309 276.5,309 275,299.5 275,299.5 272.753,295.005 267.498,293.496 266,290.5 265.244,288.988 268.196,288.348 265.5,287 265.5,287 263,286.5 263,286.5 263,286.5 264,281.5 264,281.5 263.237,279.974 262.394,261.712 263,260.5 264.041,258.418 267,258.491 267,255 262.432,255 259.291,258.104 255.5,260 252.63,261.435 230.753,259.127 228.5,258 225.445,256.472 225.492,255 222,255 222,258.868 225.68,268.859 227,271.5 228.49,274.48 223,281.509 223,285 223,285 222,286 222,286 222,291.421 217,291.642 217,292.5 217,299.245 216.977,294.547 214,300.5 214,300.5 216,312.5 216,312.5 213.095,318.311 210.604,307.448 209.5,308 209.5,308 205.5,316 205.5,316 203.759,316 203.109,311.695 200.5,313 200.5,313 197.5,317 197.5,317 197.5,317 193.5,313 193.5,313 192.062,313.719 191.787,319.143 189.5,318 188.337,317.419 182.42,313.341 182,312.5 182,312.5 181.5,310 181.5,310 177.321,307.911 176.145,314 173.5,314 169.873,314 173.899,303 171,303 171,303 168,301 168,301 168,301 164,298 164,298 164,298 160,294 160,294 160,294 160,293 160,293 160,293 155,290 155,290 155,290 151,290.5 151,290.5 149.716,293.068 154.875,298.75 153,302.5 148.934,310.632 149,313.154 149,322  Z"/>

<path  fill="#7CFC00" stroke-width="0" stroke="#7CFC00" d = " M285 267 C285,268.991 280.716,269.931 282,272.5 L287,277.5 C298.687,300.873 306.028,267 285,267  Z"/>

<path  fill="#7CFC00" stroke-width="0" stroke="#7CFC00" d = " M199 268 C199,268.142 190.813,278.875 190,280.5 188.403,283.693 192.809,286.345 195.5,285 201.64,281.93 216.606,268 199,268  Z"/>

<path  fill="#267EFF" stroke-width="0" stroke="#267EFF" d = " M250 320 C250,322.092 245.671,325.843 247,328.5 252.505,339.51 268.368,335.235 264,326.5 L260,324.5 C257.633,322.133 254.076,320 250,320  Z"/>

<path  fill="#267EFF" stroke-width="0" stroke="#267EFF" d = " M238 321 C238,324.355 224.778,324.056 229,332.5 229.659,333.818 228.581,335.04 230.5,336 232.893,337.197 242.12,335.26 243,333.5 245.173,329.154 242.407,321 238,321  Z"/>

<path  fill="#FA8072" stroke-width="0" stroke="#FA8072" d = " M96 323 C96,324.606 91.1888,325.878 93,329.5 94.6592,332.818 106.523,332.988 108.5,332 110.722,330.889 121,335.474 121,332.5 L116,329.5 L116,325.5 C113.815,321.13 100.491,323 96,323  Z"/>

<path  fill="#FA8072" stroke-width="0" stroke="#FA8072" d = " M124 331 L122,334.5 C127.261,345.021 136.558,331 124,331  Z"/>

<path  fill="#FA8072" stroke-width="0" stroke="#FA8072" d = " M298 346 C298,350.795 292.129,354.243 290,358.5 L289,363.5 C287.951,365.598 282.554,365.393 281,368.5 L282,375.5 C278.607,382.286 280.375,392.937 286.5,396 L291.5,395 L296.5,396 C297.751,395.374 294.77,390.865 298.5,389 L301.5,390 C304.323,390 300.929,385.286 303.5,384 308.257,381.622 313.093,382.314 316,376.5 317.743,373.014 315.286,367.072 314,364.5 313.054,362.608 317.81,356.12 316,352.5 315.078,350.656 306.95,344.775 304.5,346 L302.5,348 C301.375,348 299.943,346 298,346  Z"/>

<path  fill="#FA8072" stroke-width="0" stroke="#FA8072" d = " M183 349 C183,352.216 169.58,360.659 173,367.5 174.01,369.519 181.112,373.724 182,375.5 L181,382.5 C182.145,384.79 183.882,384.191 185.5,385 189.075,386.787 189.291,392.896 193.5,395 202.268,399.384 217.104,389.707 212,379.5 210.048,375.596 210.506,369.503 205.5,367 L197.5,363 L194,362.5 L195,358.5 C195,349.868 189.712,349 183,349  Z"/>

<path  fill="#FA8072" stroke-width="0" stroke="#FA8072" d = " M153 370 L150,374.5 C150,383.513 168.411,386.323 163,375.5 L159,372.5 C156.793,370.293 156.047,370 153,370  Z"/>

</g>
</svg>
