<svg xmlns="http://www.w3.org/2000/svg" xmlns:xlink="http://www.w3.org/1999/xlink" height="512" width="512">
<g>
<rect width="512" height="512" fill="#000000"  stroke-width="0" /> 
<path  fill="#FFFF00" stroke-width="0" stroke="#FFFF00" d = " M96 214 C91.5013,214 92.3232,211.412 89.5,210 L81,205.5 C79.0847,201.669 79.9806,189.539 82,185.5 84.6217,180.257 81.3334,171.833 84,166.5 87.1096,160.281 89.889,153.722 93,147.5 L98,145.5 L98,140.5 C100.347,135.806 111.806,128.347 116.5,126 121.163,123.669 126.005,126.748 129.5,125 135.002,122.249 139.679,112.41 146.5,109 150.264,107.118 159.441,108 163,108 164.423,108 166.544,106.022 168.5,107 L172,110.5 L172.5,114 C172.697,114 192.275,99.9497 193,98.5 195.712,93.0765 193.638,84.4309 200.5,81 L219.5,79 C228.736,74.3818 271.168,79.8339 279.5,84 283.835,86.1675 290.64,92.5702 293.5,94 L301.5,95 L304.5,99 L311.5,99 L321.5,109 C323.855,110.177 327.895,105.197 331.5,107 337.855,110.177 345.125,110.813 351.5,114 L356.5,120 L359.5,118 C364.152,120.326 368.946,121.723 373.5,124 380.054,127.277 385.049,134.598 388,140.5 L395,145.5 C401.309,158.118 408.002,179.495 401,193.5 L401,200.5 C396.745,209.01 383.323,210.853 380,217.5 L375,221.5 C375,222.693 383.455,219 384.5,219 388.132,219 387.087,230 396.5,230 L406.5,220 C407.958,219.271 428.056,217.778 430.5,219 441.846,224.673 432.825,227.15 435,231.5 435.572,232.644 440.328,233.414 441.5,234 L442,239.5 L445.5,240 C450.327,242.414 452.253,253.994 450,258.5 448.523,261.453 443.026,263.448 443,263.5 442.573,264.355 447.728,268.045 446,271.5 444.247,275.006 437.434,273.633 436,276.5 434.824,278.852 439.302,283.599 434.5,286 429.673,288.413 414.175,287.163 412.5,288 403.963,292.269 403.386,299.886 394,290.5 L388,285.5 C384.615,278.729 393.98,264.74 384.5,260 382.881,259.19 381.499,261 380.5,261 379.829,261 376.056,255.722 373.5,257 371.854,257.823 374.497,264 371.5,264 366.811,264 369.154,258.808 368,256.5 365.118,250.737 354,249.371 354,241 366.232,241 370.98,249.24 380.5,254 384.17,255.835 386.678,249.089 390.5,251 392.648,252.074 388.428,265.536 395.5,262 395.5,262 401.5,253 401.5,253 408.349,249.576 407.585,257.67 409,260.5 409,260.5 414,263.5 414,263.5 414,263.5 414,269 414,269 414,277.99 400.702,271.399 393.5,275 387.554,277.973 395.495,289.998 399.5,292 405.652,295.076 406.838,282.331 409.5,281 412.551,279.475 431.162,288.177 435,280.5 435.935,278.63 431.426,277.463 430.5,277 427.177,275.338 418.084,276.332 422,268.5 424.542,263.417 433.06,270.78 435.5,272 436.815,272.658 442.16,271.82 441,269.5 438.481,264.461 432.972,264.236 428.5,262 428.5,262 426,258.5 426,258.5 430.893,248.714 447,268.16 447,249 447,249 446,244.5 446,244.5 446,244.5 442.5,244 442.5,244 442.5,244 438.5,248 438.5,248 436.012,249.244 433.085,249.708 430.5,251 429.411,251.545 424,251.251 424,249.5 424,244.737 430.306,242.597 433.5,241 434.53,240.485 436.064,237.782 434.5,237 426.384,232.942 421.168,248.334 412.5,244 412.5,244 410,243.5 410,243.5 408.641,240.781 412.894,240.606 414,239.5 417.872,235.628 423.778,233.722 427,230.5 428.595,228.905 432.886,224.693 429.5,223 420.848,218.674 417.494,237.497 410.5,234 406.097,231.799 413.448,224.474 410.5,223 405.111,220.306 402.69,233.405 399.5,235 389.195,240.152 384.633,225.067 384.5,225 377.749,221.624 368.512,240.524 363,229.5 360.77,225.04 375,218.152 375,217.5 375,215.072 360.848,214.805 366,204.5 366.922,202.657 374.755,205 375.5,205 377.047,205 375.665,195.582 382.5,199 382.5,199 388.5,206 388.5,206 390.479,206 387.315,197.13 387,196.5 387,196.5 389,190.5 389,190.5 389,188.111 387.538,183.424 389,180.5 391.143,176.214 394.483,179.508 397.5,178 403.552,174.974 398.288,160.076 396,155.5 391.436,146.373 387.167,152.166 384,158.5 381.072,164.357 386.588,183 374.5,183 374.5,183 371.5,184 371.5,184 369.224,182.862 369.857,180.214 369,178.5 362.101,164.701 368,158.004 368,144.5 368,144.5 367,142.5 367,142.5 368.35,139.8 370.522,136.489 373.5,135 373.5,135 377,134.5 377,134.5 378.958,130.584 367.03,123.235 363.5,125 359.912,126.794 361.496,128.508 360,131.5 360,131.5 357,133.5 357,133.5 357,133.5 356,157.5 356,157.5 356,157.5 357,169.5 357,169.5 353.949,175.602 347.17,175.665 342.5,178 342.5,178 340.5,182 340.5,182 336.137,184.181 326.212,178.924 324,174.5 317.732,161.964 325.256,161.122 335.5,156 337.038,155.231 338.191,147 340.5,147 340.805,147 341.81,150.88 343,148.5 346.33,141.839 336.871,134.759 340,128.5 342.659,123.182 352.872,126.244 349,118.5 348.509,117.517 330.17,109.161 328,113.5 322.903,123.695 327.591,137.319 322,148.5 320.499,151.502 318.216,157.858 312.5,155 309.945,153.722 311,148.423 311,146 311,146 311,125.5 311,125.5 310.052,123.604 307.898,116.703 309,114.5 309.908,112.684 313.14,107.779 312,105.5 310.421,102.342 297.709,101.604 294.5,100 290.764,98.132 283.029,90.7646 281.5,90 272.947,85.7237 233.007,78.2467 223.5,83 223.5,83 210.5,84 210.5,84 201.71,88.3948 197.16,95.179 193,103.5 190.772,107.957 180.209,115.083 176,123.5 172.616,130.269 182.333,150.584 173.5,155 171.173,156.164 168.865,160.682 165.5,159 161.561,157.031 163.546,150.593 162,147.5 159.372,142.244 154.103,131.295 157,125.5 157,125.5 164,115.5 164,115.5 164.89,113.72 160.129,112 159.5,112 154.037,112 148.192,115.654 143.5,118 143.5,118 139,122.5 139,122.5 140.491,125.482 146,131.047 146,134 146,142.341 141.778,151.056 146,159.5 149.44,166.379 159.512,165.525 163,172.5 165.185,176.87 151.138,189.181 147.5,191 143.406,193.047 131.294,183.087 129,178.5 124.326,169.153 131.571,150.643 126,139.5 124.194,135.888 125.259,130.379 120.5,128 118.653,127.076 103.357,139.214 105,142.5 106.086,144.671 113.115,142.73 115,146.5 116.729,149.958 115.57,164.641 116,165.5 120.915,175.329 121.891,197.305 110.5,203 105.399,205.55 104,197.06 104,194 104,188.692 97.431,161.965 93.5,160 89.5224,158.011 88.7905,165.919 88,167.5 84.3409,174.818 87.7626,184.975 85,190.5 84.0228,192.454 84.0966,203.298 87.5,205 90.6391,206.57 93.9517,200.403 97,206.5 97.6978,207.896 96,212.317 96,214  Z"/>

<path  fill-rule="evenodd" fill="#00FFFF" stroke-width="0" stroke="#00FFFF" d = " M242 187 C242,187.742 234.979,190.541 234,192.5 231.336,197.827 239.95,207.775 245.5,205 248.049,203.726 260.058,191.779 254.5,189 L242,187  M246 92 C246,94.3078 238.987,92.2566 237.5,93 228.889,97.3056 217.694,92.903 207.5,98 204.407,99.5466 203.198,103.105 202,105.5 200.062,109.377 191.151,116.198 189,120.5 187.293,123.914 190.814,127.127 192,129.5 192.226,129.951 188.637,152.226 188,153.5 184.92,159.66 171.549,170.598 176,179.5 178.694,184.888 194.625,176.437 197.5,175 199.96,173.77 207.901,176.699 209,174.5 211.962,168.576 201.038,166.424 204,160.5 206.224,156.052 217.365,153.067 221.5,151 L234,151 C241.029,151 260.336,145.918 266.5,149 267.619,149.559 273.619,157.738 274,158.5 L274,163.5 C276.074,167.648 301.258,179.621 306.5,177 312.214,174.143 296.813,154.126 295,150.5 292.936,146.372 299.927,120.355 298,116.5 293.382,107.264 286.949,104.225 278.5,100 L273.5,100 C263.035,94.7677 258.418,92 246,92  M158 233 C147.771,233 140.89,242 134,242 134,242 130.5,240 130.5,240 124.515,242.993 118.545,245.977 112.5,249 112.5,249 105.5,249 105.5,249 105.5,249 99.5,254 99.5,254 94.3934,256.553 88.7553,252.372 83.5,255 79.6088,256.946 81.4842,264.508 78.5,266 75.3118,267.594 67.9036,265.693 66,269.5 61.2163,279.067 92.7889,276.922 87,288.5 84.8608,292.778 85.5521,285.974 83.5,287 83.5,287 81.5,291 81.5,291 77.8997,292.8 69.5077,283.504 66.5,282 64.3312,280.916 56.1357,281.771 55,279.5 54.3459,278.192 64.967,272.234 60.5,270 56.3633,267.932 43.4351,273.37 41,268.5 38.1638,262.828 45.1607,259.67 48.5,258 51.9002,256.3 64.1369,265.226 69,255.5 69.7691,253.962 67.7576,251.629 66.5,251 66.5,251 46.5,250 46.5,250 40.2902,246.895 40.7937,236.353 47.5,233 50.4671,231.516 53.3268,237.913 55.5,239 60.3876,241.444 78.1765,248.147 82,240.5 84.7106,235.079 64.1183,232.809 60.5,231 60.5,231 55,225.5 55,225.5 60.4834,214.533 74.0159,222.758 80.5,226 80.5,226 96.5,224 96.5,224 103.201,227.351 86.7645,231.632 93.5,235 98.2197,237.36 108.806,231.847 112.5,230 114.822,228.839 118.425,231.651 120,228.5 122.398,223.704 111.103,219 108,219 108,214.09 99.1613,214 96,214 96,212.317 97.6978,207.896 97,206.5 93.9517,200.403 90.6391,206.57 87.5,205 84.0966,203.298 84.0228,192.454 85,190.5 87.7626,184.975 84.3409,174.818 88,167.5 88.7905,165.919 89.5224,158.011 93.5,160 97.431,161.965 104,188.692 104,194 104,197.06 105.399,205.55 110.5,203 121.891,197.305 120.915,175.329 116,165.5 115.57,164.641 116.729,149.958 115,146.5 113.115,142.73 106.086,144.671 105,142.5 103.357,139.214 118.653,127.076 120.5,128 125.259,130.379 124.194,135.888 126,139.5 131.571,150.643 124.326,169.153 129,178.5 131.294,183.087 143.406,193.047 147.5,191 151.138,189.181 165.185,176.87 163,172.5 159.512,165.525 149.44,166.379 146,159.5 141.778,151.056 146,142.341 146,134 146,131.047 140.491,125.482 139,122.5 139,122.5 143.5,118 143.5,118 148.192,115.654 154.037,112 159.5,112 160.129,112 164.89,113.72 164,115.5 164,115.5 157,125.5 157,125.5 154.103,131.295 159.372,142.244 162,147.5 163.546,150.593 161.561,157.031 165.5,159 168.865,160.682 171.173,156.164 173.5,155 182.333,150.584 172.616,130.269 176,123.5 180.209,115.083 190.772,107.957 193,103.5 197.16,95.179 201.71,88.3948 210.5,84 210.5,84 223.5,83 223.5,83 233.007,78.2467 272.947,85.7237 281.5,90 283.029,90.7646 290.764,98.132 294.5,100 297.709,101.604 310.421,102.342 312,105.5 313.14,107.779 309.908,112.684 309,114.5 307.898,116.703 310.052,123.604 311,125.5 311,125.5 311,146 311,146 311,148.423 309.945,153.722 312.5,155 318.216,157.858 320.499,151.502 322,148.5 327.591,137.319 322.903,123.695 328,113.5 330.17,109.161 348.509,117.517 349,118.5 352.872,126.244 342.659,123.182 340,128.5 336.871,134.759 346.33,141.839 343,148.5 341.81,150.88 340.805,147 340.5,147 338.191,147 337.038,155.231 335.5,156 325.256,161.122 317.732,161.964 324,174.5 326.212,178.924 336.137,184.181 340.5,182 340.5,182 342.5,178 342.5,178 347.17,175.665 353.949,175.602 357,169.5 357,169.5 356,157.5 356,157.5 356,157.5 357,133.5 357,133.5 357,133.5 360,131.5 360,131.5 361.496,128.508 359.912,126.794 363.5,125 367.03,123.235 378.958,130.584 377,134.5 377,134.5 373.5,135 373.5,135 370.522,136.489 368.35,139.8 367,142.5 367,142.5 368,144.5 368,144.5 368,158.004 362.101,164.701 369,178.5 369.857,180.214 369.224,182.862 371.5,184 371.5,184 374.5,183 374.5,183 386.588,183 381.072,164.357 384,158.5 387.167,152.166 391.436,146.373 396,155.5 398.288,160.076 403.552,174.974 397.5,178 394.483,179.508 391.143,176.214 389,180.5 387.538,183.424 389,188.111 389,190.5 389,190.5 387,196.5 387,196.5 387.315,197.13 390.479,206 388.5,206 388.5,206 382.5,199 382.5,199 375.665,195.582 377.047,205 375.5,205 374.755,205 366.922,202.657 366,204.5 360.848,214.805 375,215.072 375,217.5 375,218.152 360.77,225.04 363,229.5 368.512,240.524 377.749,221.624 384.5,225 384.633,225.067 389.195,240.152 399.5,235 402.69,233.405 405.111,220.306 410.5,223 413.448,224.474 406.097,231.799 410.5,234 417.494,237.497 420.848,218.674 429.5,223 432.886,224.693 428.595,228.905 427,230.5 423.778,233.722 417.872,235.628 414,239.5 412.894,240.606 408.641,240.781 410,243.5 410,243.5 412.5,244 412.5,244 421.168,248.334 426.384,232.942 434.5,237 436.064,237.782 434.53,240.485 433.5,241 430.306,242.597 424,244.737 424,249.5 424,251.251 429.411,251.545 430.5,251 433.085,249.708 436.012,249.244 438.5,248 438.5,248 442.5,244 442.5,244 442.5,244 446,244.5 446,244.5 446,244.5 447,249 447,249 447,268.16 430.893,248.714 426,258.5 426,258.5 428.5,262 428.5,262 432.972,264.236 438.481,264.461 441,269.5 442.16,271.82 436.815,272.658 435.5,272 433.06,270.78 424.542,263.417 422,268.5 418.084,276.332 427.177,275.338 430.5,277 431.426,277.463 435.935,278.63 435,280.5 431.162,288.177 412.551,279.475 409.5,281 406.838,282.331 405.652,295.076 399.5,292 395.495,289.998 387.554,277.973 393.5,275 400.702,271.399 414,277.99 414,269 414,269 414,263.5 414,263.5 414,263.5 409,260.5 409,260.5 407.585,257.67 408.349,249.576 401.5,253 401.5,253 395.5,262 395.5,262 388.428,265.536 392.648,252.074 390.5,251 386.678,249.089 384.17,255.835 380.5,254 370.98,249.24 366.232,241 354,241 348.055,241 332.233,232.866 326.5,230 318.647,226.074 300.653,232.577 293.5,229 287.062,225.781 277.875,228.188 271.5,225 268.291,223.396 265.677,221.588 262.5,220 259.208,218.354 256.617,222 254,222 252.761,222 235,216.048 235,223 232.653,223 230.904,217.798 226.5,220 209.942,228.279 187.674,232 168,232 166.357,232 158,229.692 158,233  Z"/>

<path  fill-rule="evenodd" fill="#FFFF00" stroke-width="0" stroke="#FFFF00" d = " M271 137 C271,138.93 272.93,137 271,137  M241 116 C241,118.144 236.738,116.381 235.5,117 233.367,118.067 231.718,119.891 229.5,121 229.29,121.105 210.397,120.294 214,127.5 L219.5,128 C223.569,125.966 235.123,122.311 240.5,125 245.478,127.489 252.718,124.609 257.5,127 261.466,128.983 264.568,132.034 268.5,134 270.214,134.857 277.377,134.746 278,133.5 279.693,130.114 274.852,126.203 274,124.5 273.213,122.926 270.718,119.109 268.5,118 267.091,117.296 243.894,116 241,116  M218 102 L213,104.5 C211.177,108.145 201.049,117.597 203,121.5 203.71,122.919 205.581,121.338 206,120.5 207.305,117.889 210.124,113.688 213.5,112 219.217,109.141 249.43,103.465 256.5,107 260.313,108.906 265.724,107.112 269.5,109 274.212,111.356 277.984,114.242 281.5,116 L282,119.5 C282.838,121.176 285.839,123.178 287,125.5 287.297,126.095 284.478,130 287.5,130 L288,121.5 C288,115.199 283.097,108.799 277.5,106 273.974,104.237 270.187,107.843 266.5,106 253.566,99.5331 234.249,102 218,102  M246 92 C246,94.3078 238.987,92.2566 237.5,93 228.889,97.3056 217.694,92.903 207.5,98 204.407,99.5466 203.198,103.105 202,105.5 200.062,109.377 191.151,116.198 189,120.5 187.293,123.914 190.814,127.127 192,129.5 192.226,129.951 188.637,152.226 188,153.5 184.92,159.66 171.549,170.598 176,179.5 178.694,184.888 194.625,176.437 197.5,175 199.96,173.77 207.901,176.699 209,174.5 211.962,168.576 201.038,166.424 204,160.5 206.224,156.052 217.365,153.067 221.5,151 L234,151 C241.029,151 260.336,145.918 266.5,149 267.619,149.559 273.619,157.738 274,158.5 L274,163.5 C276.074,167.648 301.258,179.621 306.5,177 312.214,174.143 296.813,154.126 295,150.5 292.936,146.372 299.927,120.355 298,116.5 293.382,107.264 286.949,104.225 278.5,100 L273.5,100 C263.035,94.7677 258.418,92 246,92  Z"/>

<path  fill="#00FFFF" stroke-width="0" stroke="#00FFFF" d = " M241 116 C241,118.144 236.738,116.381 235.5,117 233.367,118.067 231.718,119.891 229.5,121 229.29,121.105 210.397,120.294 214,127.5 L219.5,128 C223.569,125.966 235.123,122.311 240.5,125 245.478,127.489 252.718,124.609 257.5,127 261.466,128.983 264.568,132.034 268.5,134 270.214,134.857 277.377,134.746 278,133.5 279.693,130.114 274.852,126.203 274,124.5 273.213,122.926 270.718,119.109 268.5,118 267.091,117.296 243.894,116 241,116  Z"/>

<path  fill="#00FFFF" stroke-width="0" stroke="#00FFFF" d = " M271 137 C271,138.93 272.93,137 271,137  Z"/>

<path  fill="#FFFF00" stroke-width="0" stroke="#FFFF00" d = " M242 187 C242,187.742 234.979,190.541 234,192.5 231.336,197.827 239.95,207.775 245.5,205 248.049,203.726 260.058,191.779 254.5,189 L242,187  Z"/>

<path  fill-rule="evenodd" fill="#FFFF00" stroke-width="0" stroke="#FFFF00" d = " M116 256 C116,257.149 111.484,257.508 110.5,258 104.401,261.05 83.4421,263.384 89,274.5 94.3073,285.115 105.164,268.668 110.5,266 113.135,264.683 119.43,264.64 121,261.5 122.41,258.679 118.252,256 116,256  M130 249 L129,250 C126.856,250 128.619,254.262 128,255.5 128,255.5 124,262.5 124,262.5 124,262.5 123.5,266 123.5,266 119.603,267.948 114.454,267.023 110.5,269 107.335,270.582 103.61,276.28 102,279.5 99.7492,284.002 92.2373,286.131 88.5,288 88.3366,288.082 83.3623,294.569 80.5,296 79.022,296.739 63.9829,285.241 61.5,284 61.5,284 55.5,283 55.5,283 52.0865,281.293 52.0604,276.28 49.5,275 46.2685,273.384 40.1198,276.74 38,272.5 38,272.5 38,267.5 38,267.5 37.3228,266.146 34.972,262.556 36,260.5 36.0725,260.355 40.0941,255.203 40.5,255 40.5,255 45,253.5 45,253.5 45,253.5 39,250.5 39,250.5 36.7227,245.945 39.8862,237.728 42,233.5 44.8109,227.878 48.4278,231.536 51.5,230 53.4628,229.019 52.1611,221.669 55.5,220 70.1448,212.678 72.6574,217.579 85.5,224 89.0431,225.772 92.0139,218 92.5,218 92.5,218 95.5,221 95.5,221 97.4674,221.984 102.026,222.551 103,224.5 103,224.5 103.5,229 103.5,229 103.5,229 106.5,227 106.5,227 109.997,225.251 108,222.903 108,219 111.103,219 122.398,223.704 120,228.5 118.425,231.651 114.822,228.839 112.5,230 108.806,231.847 98.2197,237.36 93.5,235 86.7645,231.632 103.201,227.351 96.5,224 96.5,224 80.5,226 80.5,226 74.0159,222.758 60.4834,214.533 55,225.5 55,225.5 60.5,231 60.5,231 64.1183,232.809 84.7106,235.079 82,240.5 78.1765,248.147 60.3876,241.444 55.5,239 53.3268,237.913 50.4671,231.516 47.5,233 40.7937,236.353 40.2902,246.895 46.5,250 46.5,250 66.5,251 66.5,251 67.7576,251.629 69.7691,253.962 69,255.5 64.1369,265.226 51.9002,256.3 48.5,258 45.1607,259.67 38.1638,262.828 41,268.5 43.4351,273.37 56.3633,267.932 60.5,270 64.967,272.234 54.3459,278.192 55,279.5 56.1357,281.771 64.3312,280.916 66.5,282 69.5077,283.504 77.8997,292.8 81.5,291 81.5,291 83.5,287 83.5,287 85.5521,285.974 84.8608,292.778 87,288.5 92.7889,276.922 61.2163,279.067 66,269.5 67.9036,265.693 75.3118,267.594 78.5,266 81.4842,264.508 79.6088,256.946 83.5,255 88.7553,252.372 94.3934,256.553 99.5,254 99.5,254 105.5,249 105.5,249 105.5,249 112.5,249 112.5,249 118.545,245.977 124.515,242.993 130.5,240 130.5,240 134,242 134,242 134,242.256 133.259,246.982 133,247.5 133,247.5 130,249 130,249  Z"/>

<path  fill="#46A515" stroke-width="0" stroke="#46A515" d = " M82 215 C82,227.289 93.0664,215 82,215  Z"/>

<path  fill="#FFFF00" stroke-width="0" stroke="#FFFF00" d = " M254 222 C252.761,222 235,216.048 235,223 235,229.203 254,227.956 254,222  Z"/>

<path  fill="#46A515" stroke-width="0" stroke="#46A515" d = " M396 220 C396,221.791 392.73,222.959 394,225.5 394.798,227.096 407.355,220 396,220  Z"/>

<path  fill="#34FF0D" stroke-width="0" stroke="#34FF0D" d = " M175 239 C175,248.241 176.08,254.71 167.5,259 L165,261 C162.189,261 158.9,262.8 156.5,264 150.75,266.875 144.637,257.226 147,252.5 148.904,248.693 149.14,244.22 151,240.5 152.524,237.452 158,235.961 158,233 158,229.692 166.357,232 168,232 168,232.794 174.363,239 175,239  Z"/>

<path  fill-rule="evenodd" fill="#9953FF" stroke-width="0" stroke="#9953FF" d = " M264 260 L262,264.5 C263.847,268.194 276.55,261 266,261 L264,260  M220 259 L217,262.5 L221,264.5 C231.56,275.06 230.894,259 220,259  M247 339 L252.5,334 C257.366,331.567 272,335.466 272,342 272,342 278.5,339 278.5,339 278.5,339 287.5,338 287.5,338 291.23,336.135 294.66,333.92 298.5,332 302.951,329.775 309.905,332.298 314.5,330 318.896,327.802 322.611,318 327,318 327,316.861 322,316.548 322,308 311.61,308 321.044,291.588 319,287.5 316.982,283.464 296.309,279.882 301,270.5 302.435,267.629 307.002,270.495 308,268.5 309.675,265.151 310.343,263 314,263 314,261.11 318.598,260 320,260 320,260 316.5,258 316.5,258 316.5,258 313,251.5 313,251.5 310.778,247.055 313,242.453 313,238 313,236.504 305.978,232.739 304.5,232 304.5,232 301,234 301,234 301,234 286,234 286,234 286,237.581 278.322,254.089 276.5,255 276.5,255 267.5,256 267.5,256 267.5,256 267.5,259 267.5,259 267.5,259 253,259 253,259 251.855,259 249,259.579 249,258 247.394,258 244.661,260.081 242.5,259 240.881,258.191 241.029,257 239,257 239,260.61 228.183,258.842 226.5,258 226.5,258 223.5,255 223.5,255 219.727,255 213.926,256.713 210.5,255 205.371,252.436 211.576,248.038 207.5,246 207.5,246 202,245.5 202,245.5 202,245.5 203,242.5 203,242.5 203,242.5 201,238 201,238 201,238 193.5,238 193.5,238 193.5,238 189.5,236 189.5,236 186.855,237.323 185.777,238 182.5,238 180.249,238 175,236.601 175,239 175,248.241 176.08,254.71 167.5,259 167.5,259 165,261 165,261 165,261 165,262 165,262 167.486,262 168.725,263 171,263 173.003,263 174,262.707 174,265 174,265 174,266 174,266 177.531,266 192.446,267.609 189,274.5 186.99,278.521 177.291,279.918 176,282.5 173.908,286.685 173.567,298.365 172,301.5 171.031,303.438 166,307.301 166,309 174.673,309 165.488,317.006 163.5,318 158.684,320.408 147,300.76 147,296 145.753,296 145.325,304.15 146,305.5 149.902,313.304 157.225,315.725 163,321.5 166.864,325.364 173.53,329.515 178.5,332 181.802,333.651 187.112,331.306 190.5,333 196.058,335.779 209.829,341 216,341 216,336.082 230.374,331.937 234.5,334 234.5,334 240,339 240,339 240,339 247,339 247,339  Z"/>

<path  fill="#34FF0D" stroke-width="0" stroke="#34FF0D" d = " M320 260 C324.973,260 326.944,268 331,268 347.166,268 336.407,238.454 329.5,235 325.682,233.091 321.9,230.8 317.5,233 317.5,233 313,238 313,238 313,242.453 310.778,247.055 313,251.5 313,251.5 316.5,258 316.5,258 316.5,258 320,260 320,260  Z"/>

<path  fill="#EB57FF" stroke-width="0" stroke="#EB57FF" d = " M201 238 L203,242.5 L202,245.5 L207.5,246 C211.576,248.038 205.371,252.436 210.5,255 213.926,256.713 219.727,255 223.5,255 L226.5,258 C228.183,258.842 239,260.61 239,257 239,252.887 235.643,252.787 234,249.5 229.159,239.818 224.015,237.758 214.5,233 214.5,233 201.5,234 201.5,234 201.5,234 201,238 201,238  Z"/>

<path  fill="#EB57FF" stroke-width="0" stroke="#EB57FF" d = " M286 234 C268.948,234 261.807,233.887 254,249.5 252.514,252.473 249,253.66 249,258 249,259.579 251.855,259 253,259 253,259 267.5,259 267.5,259 267.5,259 267.5,256 267.5,256 267.5,256 276.5,255 276.5,255 278.322,254.089 286,237.581 286,234  Z"/>

<path  fill="#00FFFF" stroke-width="0" stroke="#00FFFF" d = " M130 249 L129,250 C129,250 130,249 130,249  Z"/>

<path  fill="#00FFFF" stroke-width="0" stroke="#00FFFF" d = " M116 256 C116,257.149 111.484,257.508 110.5,258 104.401,261.05 83.4421,263.384 89,274.5 94.3073,285.115 105.164,268.668 110.5,266 113.135,264.683 119.43,264.64 121,261.5 122.41,258.679 118.252,256 116,256  Z"/>

<path  fill="#B31C35" stroke-width="0" stroke="#B31C35" d = " M220 259 L217,262.5 L221,264.5 C231.56,275.06 230.894,259 220,259  Z"/>

<path  fill="#B31C35" stroke-width="0" stroke="#B31C35" d = " M264 260 L262,264.5 C263.847,268.194 276.55,261 266,261 L264,260  Z"/>

<path  fill="#FA8072" stroke-width="0" stroke="#FA8072" d = " M322 308 C322,316.548 327,316.861 327,318 329.778,318 333.027,313.447 334,311.5 334,311.5 338,307.5 338,307.5 341.281,300.937 342.583,288.666 339,281.5 338.281,280.063 331,268.125 331,268 326.944,268 324.973,260 320,260 318.598,260 314,261.11 314,263 315.19,263 316.511,267.522 317,268.5 317,268.5 322,273.5 322,273.5 322,273.5 321,278.5 321,278.5 321,278.5 325,280.5 325,280.5 327.861,286.221 331.467,297.566 328,304.5 326.816,306.869 322,304.959 322,308  Z"/>

<path  fill="#FA8072" stroke-width="0" stroke="#FA8072" d = " M147 296 C147,300.76 158.684,320.408 163.5,318 165.488,317.006 174.673,309 166,309 162.685,309 160.994,302.488 160,300.5 156.167,292.833 167.971,266 174,266 174,266 174,265 174,265 171.997,265 171,265.293 171,263 168.725,263 167.486,262 165,262 162.35,262 162.009,265.245 160.5,266 150.087,271.207 147,283.164 147,296  Z"/>

<path  fill="#5BF1FF" stroke-width="0" stroke="#5BF1FF" d = " M171 263 C173.003,263 174,262.707 174,265 171.997,265 171,265.293 171,263  Z"/>

<path  fill="#5BF1FF" stroke-width="0" stroke="#5BF1FF" d = " M314 263 C315.19,263 316.511,267.522 317,268.5 L322,273.5 L321,278.5 L325,280.5 C327.861,286.221 331.467,297.566 328,304.5 326.816,306.869 322,304.959 322,308 311.61,308 321.044,291.588 319,287.5 316.982,283.464 296.309,279.882 301,270.5 302.435,267.629 307.002,270.495 308,268.5 309.675,265.151 310.343,263 314,263  Z"/>

<path  fill="#5BF1FF" stroke-width="0" stroke="#5BF1FF" d = " M174 266 C177.531,266 192.446,267.609 189,274.5 186.99,278.521 177.291,279.918 176,282.5 173.908,286.685 173.567,298.365 172,301.5 171.031,303.438 166,307.301 166,309 162.685,309 160.994,302.488 160,300.5 156.167,292.833 167.971,266 174,266  Z"/>

<path  fill="#46A515" stroke-width="0" stroke="#46A515" d = " M374 272 L372,273.5 C370.422,276.655 369.618,280.263 368,283.5 366.644,286.213 368.387,293.057 372.5,291 379.159,287.67 385.584,272 374,272  Z"/>

<path  fill="#46A515" stroke-width="0" stroke="#46A515" d = " M445 287 L443,288.5 C437.789,298.923 456.194,287 445,287  Z"/>

<path  fill="#46A515" stroke-width="0" stroke="#46A515" d = " M382 293 C382,297.532 372.728,299.044 370,304.5 364.97,314.56 385.273,310.887 385.5,311 387.077,311.788 382.114,313.807 384.5,315 387.857,316.679 395.015,312.529 393,308.5 391.859,306.219 388.765,308.03 388,306.5 384.854,300.209 391.453,293 382,293  Z"/>

<path  fill="#46A515" stroke-width="0" stroke="#46A515" d = " M88 298 C88,298.652 84.7026,300.095 84,301.5 82.5124,304.475 86.4661,309.517 89.5,308 93.84,305.83 87.3944,305.289 87,304.5 86.0065,302.513 92.4417,298 88,298  Z"/>

<path  fill="#46A515" stroke-width="0" stroke="#46A515" d = " M101 311 L100,313.5 C101.092,315.684 108.475,318.55 110,315.5 111.848,311.805 103.276,311 101,311  Z"/>

<path  fill="#46A515" stroke-width="0" stroke="#46A515" d = " M389 319 L386,321.5 C384.669,322.831 387.068,324.216 385.5,325 382.402,326.549 377.862,322.819 375.5,324 374.329,324.586 369.197,329.893 370,331.5 L374,333.5 C375.193,335.887 374.754,336.627 377.5,338 L381.5,342 C385.151,343.826 395.317,341.866 397,338.5 L398,331.5 L401,329.5 C404.431,322.638 393.664,319 389,319  Z"/>

<path  fill="#FF3427" stroke-width="0" stroke="#FF3427" d = " M240 339 L234.5,334 C230.374,331.937 216,336.082 216,341 216,353.123 240,356.015 240,339  Z"/>

<path  fill="#FF3427" stroke-width="0" stroke="#FF3427" d = " M247 339 L252.5,334 C257.366,331.567 272,335.466 272,342 272,353.575 247,353.111 247,339  Z"/>

</g>
</svg>
