<svg xmlns="http://www.w3.org/2000/svg" xmlns:xlink="http://www.w3.org/1999/xlink" height="512" width="512">
<g>
<rect width="512" height="512" fill="#000000"  stroke-width="0" /> 
<path  fill-rule="evenodd" fill="#86FF5A" stroke-width="0" stroke="#86FF5A" d = " M240 372 C240,373.606 237.919,376.339 239,378.5 L242,380.5 C247.935,392.369 255.481,372 240,372  M239 334 C239,335.799 230.003,335.248 228.5,336 224.277,338.111 220.164,339.668 215.5,342 205.302,347.099 203.818,357.863 199,367.5 L199,376.5 C192.623,389.253 201.019,409.76 211.5,415 L216.5,420 C220.839,422.169 232.733,426.884 238.5,424 241.266,422.617 242.935,417.782 244.5,417 247.79,415.355 250.099,422.799 252.5,424 259.893,427.697 270.213,420.643 275.5,418 L279.5,413 C281.25,412.125 283.875,411.75 285,409.5 287.187,405.127 290.172,400.156 292,396.5 L291,388.5 C292.862,384.777 294.077,370.654 292,366.5 L289,363.5 L288,356.5 L281,348.5 C279.527,345.554 280.566,342.033 276.5,340 268.419,335.959 249.394,334 239,334  Z"/>

<path  fill="#EB57FF" stroke-width="0" stroke="#EB57FF" d = " M240 372 C240,373.606 237.919,376.339 239,378.5 L242,380.5 C247.935,392.369 255.481,372 240,372  Z"/>

</g>
</svg>
