<svg xmlns="http://www.w3.org/2000/svg" xmlns:xlink="http://www.w3.org/1999/xlink" height="512" width="512">
<g>
<rect width="512" height="512" fill="#000000"  stroke-width="0" /> 
<path  fill-rule="evenodd" fill="#FFFF00" stroke-width="0" stroke="#FFFF00" d = " M239 209 C239,210.951 236.546,209.477 235.5,210 L233.5,213 L230.5,211 L228,215.5 L230.5,216 C231.99,216.745 234.01,219.255 235.5,220 237.506,221.003 245.752,218 249,218 249.9,218 254.619,214.739 254,213.5 252.44,210.381 245.002,211.751 243.5,211 L239,209  M239 191 C239,192.647 231.824,192.338 230.5,193 222.913,196.793 215.805,198.89 212,206.5 208.135,214.231 218.085,218.792 222.5,221 239.478,229.489 252.371,225.564 267.5,218 279.012,212.244 265.999,191 257.5,191 L239,191  Z"/>

<path  fill="#00FFFF" stroke-width="0" stroke="#00FFFF" d = " M239 209 C239,210.951 236.546,209.477 235.5,210 L233.5,213 L230.5,211 L228,215.5 L230.5,216 C231.99,216.745 234.01,219.255 235.5,220 237.506,221.003 245.752,218 249,218 249.9,218 254.619,214.739 254,213.5 252.44,210.381 245.002,211.751 243.5,211 L239,209  Z"/>

<path  fill-rule="evenodd" fill="#9953FF" stroke-width="0" stroke="#9953FF" d = " M242 263 C242,264.006 235.596,265.452 234.5,266 L227,276.5 C227,278.515 230.081,281.661 231,283.5 L233.5,290 L238.5,290 C244.375,292.938 251.076,293.212 257.5,290 260.119,288.691 257.988,284.524 259,282.5 259.632,281.236 264.361,278.221 263,275.5 L256,268.5 C253.645,263.79 247.342,263 242,263  M225 334 L225,336 C225,336 208.5,335 208.5,335 208.5,335 202.5,336 202.5,336 194.17,331.835 182.444,328.387 178,319.5 176.352,316.204 170,313.059 170,310 173.669,310 171,306.076 171,305 195.478,305 185.166,295.167 193,279.5 195.987,273.525 207.029,272.443 209,268.5 210.284,265.932 208,262.014 208,260 209.22,260 209.504,256.508 209,255.5 209,255.5 203,250 203,250 203,241.643 222.921,248.789 226.5,247 235.228,242.636 237.555,251.528 244.5,255 249.667,257.584 249.97,250.265 252.5,249 258.401,246.05 262.052,251.224 266.5,249 271.269,246.615 286,243.354 286,252 282.839,252 275.047,260.773 279.5,263 279.5,263 283,261 283,261 283,263.543 279,264.639 279,266.5 279,266.5 285,275.5 285,275.5 286.358,278.215 286.673,281.845 288,284.5 289.93,288.36 308.552,306 313,306 313,306 313,307 313,307 313,307.853 308.286,313 313,313 313,315.302 304.503,330.998 302.5,332 302.5,332 298.5,331 298.5,331 291.29,334.605 270.235,335 262,335 262,335 262,333 262,333 262,333 265,333 265,333 274.736,333 260,325.553 260,332 257.367,332 254.199,324.897 253,322.5 252.251,321.002 249,323.205 249,321 249,321 247,302 247,302 247,300.415 244,297.536 244,301 244,307.269 241,313.519 241,320 235.838,320 233.631,331 229,331 229,322.22 211.09,334 221.5,334 221.5,334 225,334 225,334  Z"/>

<path  fill="#FA8072" stroke-width="0" stroke="#FA8072" d = " M171 305 C171,306.076 173.669,310 170,310 170,310 165,307.5 165,307.5 162.278,302.055 160.69,295.88 158,290.5 156.424,287.348 158.802,280.897 160,278.5 167.913,262.674 174.405,256.047 190.5,248 193.831,246.335 199.154,250 203,250 203,250 209,255.5 209,255.5 209.504,256.508 209.22,260 208,260 204.713,260 202.178,256.339 199.5,255 196.268,253.384 190.824,256 188,256 188,256 187,257 187,257 183.77,257 183.793,259.854 181.5,261 169.827,266.837 169.562,270.376 164,281.5 164,281.5 164,287.5 164,287.5 163.405,288.69 162.174,290.847 163,292.5 163,292.5 166,299.5 166,299.5 166,299.5 171,305 171,305  Z"/>

<path  fill="#FA8072" stroke-width="0" stroke="#FA8072" d = " M313 307 C313,307.853 308.286,313 313,313 319.055,313 322.643,309.214 325,304.5 330.223,294.055 336.268,294.036 329,279.5 329,279.5 329,275.5 329,275.5 325.25,268 315.653,256.076 307.5,252 307.5,252 298.5,249 298.5,249 298.5,249 286,252 286,252 282.839,252 275.047,260.773 279.5,263 279.5,263 283,261 283,261 283,254.373 296.54,255.02 300.5,257 318.685,266.093 317.147,265.795 326,283.5 329.067,289.633 323.864,304 317,304 317,304 316,305 316,305 316,306.577 314.238,307 313,307  Z"/>

<path  fill="#5BF1FF" stroke-width="0" stroke="#5BF1FF" d = " M208 260 C208,262.014 210.284,265.932 209,268.5 207.029,272.443 195.987,273.525 193,279.5 185.166,295.167 195.478,305 171,305 171,305 166,299.5 166,299.5 166,299.5 163,292.5 163,292.5 162.174,290.847 163.405,288.69 164,287.5 164,287.5 164,281.5 164,281.5 169.562,270.376 169.827,266.837 181.5,261 183.793,259.854 183.77,257 187,257 187,257 188,256 188,256 190.824,256 196.268,253.384 199.5,255 202.178,256.339 204.713,260 208,260  Z"/>

<path  fill="#5BF1FF" stroke-width="0" stroke="#5BF1FF" d = " M316 305 L313,306 C308.552,306 289.93,288.36 288,284.5 286.673,281.845 286.358,278.215 285,275.5 285,275.5 279,266.5 279,266.5 279,264.639 283,263.543 283,261 283,254.373 296.54,255.02 300.5,257 318.685,266.093 317.147,265.795 326,283.5 329.067,289.633 323.864,304 317,304 317,304 316,305 316,305  Z"/>

<path  fill-rule="evenodd" fill="#EB57FF" stroke-width="0" stroke="#EB57FF" d = " M244 283 C244,287.123 248.123,283 244,283  M242 263 C242,264.006 235.596,265.452 234.5,266 L227,276.5 C227,278.515 230.081,281.661 231,283.5 L233.5,290 L238.5,290 C244.375,292.938 251.076,293.212 257.5,290 260.119,288.691 257.988,284.524 259,282.5 259.632,281.236 264.361,278.221 263,275.5 L256,268.5 C253.645,263.79 247.342,263 242,263  Z"/>

<path  fill="#27F4FD" stroke-width="0" stroke="#27F4FD" d = " M244 283 C244,287.123 248.123,283 244,283  Z"/>

<path  fill="#4196FF" stroke-width="0" stroke="#4196FF" d = " M244 301 L247,302 C247,300.415 244,297.536 244,301  Z"/>

<path  fill="#7209D4" stroke-width="0" stroke="#7209D4" d = " M241 320 C241,326.899 247.193,321 249,321 249,321 247,302 247,302 247,302 244,301 244,301 244,307.269 241,313.519 241,320  Z"/>

<path  fill="#FF3427" stroke-width="0" stroke="#FF3427" d = " M262 335 C262,337.511 252.399,337.949 250.5,337 245.544,334.522 244.459,327.52 243.5,328 243.317,328.091 241.086,335.707 238.5,337 236.759,337.871 225,339.65 225,336 225,336 225,334 225,334 225,334 229,331 229,331 233.631,331 235.838,320 241,320 241,326.899 247.193,321 249,321 249,323.205 252.251,321.002 253,322.5 254.199,324.897 257.367,332 260,332 260,332 262,333 262,333 262,333 262,335 262,335  Z"/>

<path  fill="#00F60E" stroke-width="0" stroke="#00F60E" d = " M229 331 L225,334 C225,334 221.5,334 221.5,334 211.09,334 229,322.22 229,331  Z"/>

<path  fill="#00F60E" stroke-width="0" stroke="#00F60E" d = " M260 332 L262,333 C262,333 265,333 265,333 274.736,333 260,325.553 260,332  Z"/>

</g>
</svg>
