<svg xmlns="http://www.w3.org/2000/svg" xmlns:xlink="http://www.w3.org/1999/xlink" height="512" width="512">
<g>
<rect width="512" height="512" fill="#000000"  stroke-width="0" /> 
<path  fill-rule="evenodd" fill="#86FF5A" stroke-width="0" stroke="#86FF5A" d = " M240 343 C240,345.014 237.716,348.932 239,351.5 243.516,360.532 261.084,343 240,343  M230 307 C230,309.403 214.233,314.633 211.5,316 L209,320.5 L206.5,321 C205.659,321.42 201.581,327.337 201,328.5 198.505,333.49 198.495,339.511 196,344.5 L196,353 C196,368.694 204.214,385.357 217.5,392 L218.5,395 L223.5,396 C225.798,397.149 237.302,399.099 239.5,398 241.46,397.02 244.182,390.841 246.5,392 250.025,393.763 254.63,401.935 262.5,398 265.085,396.708 268.012,396.244 270.5,395 272.508,393.996 274.873,390.314 277.5,389 279.882,387.809 278.173,386.155 279,384.5 L285,380.5 C286.736,377.028 287.319,372.862 289,369.5 290.952,365.597 293.359,364.782 295,361.5 296.694,358.113 293,355.05 293,352 293,348.026 289.765,329.03 289,327.5 L281,319.5 L277.5,315 C264.314,308.407 245.673,307 230,307  Z"/>

<path  fill-rule="evenodd" fill="#EB57FF" stroke-width="0" stroke="#EB57FF" d = " M244 347 C244,351.42 245.206,347 244,347  M240 343 C240,345.014 237.716,348.932 239,351.5 243.516,360.532 261.084,343 240,343  Z"/>

<path  fill="#27F4FD" stroke-width="0" stroke="#27F4FD" d = " M244 347 C244,351.42 245.206,347 244,347  Z"/>

</g>
</svg>
