<svg xmlns="http://www.w3.org/2000/svg" xmlns:xlink="http://www.w3.org/1999/xlink" height="512" width="512">
<g>
<rect width="512" height="512" fill="#000000"  stroke-width="0" /> 
<path  fill-rule="evenodd" fill="#03C12D" stroke-width="0" stroke="#03C12D" d = " M420 270 C420,271.93 421.93,270 420,270  M425 244 C425,246.112 430.567,244 425,244  M65 244 C65,248.123 69.1229,244 65,244  M426 212 C426,214.111 433.389,212 426,212  M340 340 C340.279,340 345.044,349.228 351.5,346 369.315,337.093 380.927,336.573 397,320.5 L402,316.5 C404.091,312.318 406.933,308.633 409,304.5 L409,296.5 L413,295.5 L410,292.5 L414.5,292 L420,286.5 C422.003,282.495 421.805,273.891 423,271.5 L427,268.5 L427,263.5 C430.141,257.219 429.935,249.63 433,243.5 L433,225.5 C435.315,220.87 433.587,201.673 431,196.5 428.938,192.376 428.725,175.95 427,172.5 422.776,164.052 419.219,154.939 415,146.5 413.388,143.276 396.919,130.71 393.5,129 L386,123.5 L391,123.5 C391,122.126 384.905,115 383.5,115 L381.5,117 C379.27,117 380.471,113.442 380,112.5 L373.5,108 C367.084,104.792 354.52,108.51 347.5,105 344.471,103.486 346.136,98.8178 342.5,97 340.866,96.183 334.234,97.867 332.5,97 323.458,92.4792 314.774,92.6369 307.5,89 306.59,88.5452 297.888,89.1941 295.5,88 291.268,85.8839 283.097,84.7016 278.5,87 L259.5,86 C257.219,87.1407 259.03,90.2351 257.5,91 L251.5,92 C247.818,93.8409 243.469,100 238.5,100 L236.5,98 C234.385,96.9423 231.539,97.0195 229.5,96 L226.5,92 L209.5,91 C207.544,90.0218 202.204,85.1478 198.5,87 L185.5,93 L175.5,92 C166.358,96.5709 150.519,96.4907 139.5,102 L127.5,103 C120.67,106.415 115.358,112.571 108.5,116 102.969,118.766 97.0795,121.21 91.5,124 85.7017,126.899 86.3353,135.829 84,140.5 80.8654,146.769 74.0996,149.301 71,155.5 67.1643,163.171 66.8563,172.787 63,180.5 L62,190.5 C60.5544,193.391 56.261,203.022 58,206.5 58.5549,207.61 63.4092,208.682 61,213.5 L58.5,214 L56,219.5 C54.8261,221.848 56.9968,227.494 58,229.5 61.0294,235.559 57.1011,253.702 61,261.5 61.6076,262.715 68,274.466 68,274.5 68,278.9 70.7511,281.002 73,285.5 L73,294.5 L78,299.5 L78,305.5 C79.2948,308.09 88.9276,316.714 91.5,318 L98.5,327 C108.117,331.808 117.79,337.145 127.5,342 131.552,344.026 139.299,341 143,341 143,332.624 143.502,321.503 140,314.5 137.478,309.456 135,300.786 135,295 135,293.851 129.553,293.527 128.5,293 128.5,293 117,281.5 117,281.5 117,281.5 109,266.5 109,266.5 108.426,265.353 110.064,262 108,262 106.421,262 107,259.145 107,258 107,258 106,256 106,256 102.045,256 100.734,229.031 103,224.5 104.892,220.715 105.075,216.351 107,212.5 107,212.5 106,206.5 106,206.5 106,206.5 111,200.5 111,200.5 116.932,188.636 121.601,174.45 134.5,168 139.698,165.401 143.856,159 150,159 150,159 152,158 152,158 156.444,158 161.664,153.918 165.5,152 173.431,148.034 183.426,149.037 191.5,145 193.729,143.886 202,146.348 202,142 202,139.918 204,137.781 204,141 210.101,141 213.956,146 214,146 214,143.167 216,141.16 216,139 216,139 217,138 217,138 217,138 218,137 218,137 218,137 240.5,121 240.5,121 242.779,119.861 256.662,130.581 259.5,132 261.801,133.151 272,137.703 272,141 281.152,141 299.801,145.651 308.5,150 308.5,150 314.5,150 314.5,150 320.944,153.222 330.494,152.997 336.5,156 340.716,158.108 344.368,160.934 348.5,163 348.5,163 352.5,162 352.5,162 355.074,163.287 352.836,166 357,166 357,166 358,167 358,167 358,168.973 365.216,179 367,179 367,179 369,180 369,180 373.515,180 373.484,189.468 375,192.5 375,192.5 378,194.5 378,194.5 378,194.5 379,200.5 379,200.5 379,200.5 382,202.5 382,202.5 383.232,204.964 383.688,207.876 385,210.5 385,210.5 387,224.5 387,224.5 389.015,228.53 391.355,230.79 389,235.5 387.8,237.9 388.746,253 385,253 385,253 384,254 384,254 384,254 384,257 384,257 384,257 383,261 383,261 383,261 381,264 381,264 381,266.953 376.494,279 373,279 373,279 372,281 372,281 372,281 371,282 371,282 371,282 368,287 368,287 368,288.109 363.663,296 363,296 363,305.895 358.1,313.3 354,321.5 354,321.5 353,328.5 353,328.5 353,328.5 340,340 340,340  Z"/>

<path  fill="#1D68EB" stroke-width="0" stroke="#1D68EB" d = " M237 165 C237,155.984 250,157.603 250,165 257.833,165 264.905,160.69 268,154.5 269.21,152.081 267.828,141 272,141 272,137.703 261.801,133.151 259.5,132 256.662,130.581 242.779,119.861 240.5,121 240.5,121 218,137 218,137 218,137 217,138 217,138 217,138 216,139 216,139 216,141.16 214,143.167 214,146 214,155.456 222.341,165 232,165 232,163.601 234,163.601 234,165 234,165 237,165 237,165  Z"/>

<path  fill="#FF6E00" stroke-width="0" stroke="#FF6E00" d = " M369 180 C373.515,180 373.484,189.468 375,192.5 L378,194.5 L379,200.5 L382,202.5 C383.232,204.964 383.688,207.876 385,210.5 L387,224.5 C389.015,228.53 391.355,230.79 389,235.5 387.8,237.9 388.746,253 385,253 385,241.032 384.97,229.439 380,219.5 377.991,215.482 379.062,209.625 377,205.5 377,205.5 373,201.5 373,201.5 371.816,199.132 371.209,195.917 370,193.5 370,193.5 366,190.5 366,190.5 362.445,183.39 348.102,170 340,170 340,170 339,169 339,169 339,169 324.5,165 324.5,165 321.268,163.384 315.824,166 313,166 313,164.814 312,164.814 312,166 312,166 311,166 311,166 307.339,166 303.539,166 300,166 300,166 297.5,164 297.5,164 291.596,161.048 280.939,166.78 276.5,169 274.703,169.898 269,169.569 269,173 265.812,173 252.1,175.7 249.5,177 242.239,180.63 225.135,174 219,174 219,171.685 210.246,169.873 208.5,169 205.574,167.537 189.717,161.066 187,166.5 187,166.5 189,171 189,171 177.543,171 168.264,162.118 156.5,168 156.5,168 151.5,168 151.5,168 114.402,186.549 106,215.325 106,256 102.045,256 100.734,229.031 103,224.5 104.892,220.715 105.075,216.351 107,212.5 107,212.5 106,206.5 106,206.5 106,206.5 111,200.5 111,200.5 116.932,188.636 121.601,174.45 134.5,168 139.698,165.401 143.856,159 150,159 150,159 152,158 152,158 156.444,158 161.664,153.918 165.5,152 173.431,148.034 183.426,149.037 191.5,145 193.729,143.886 202,146.348 202,142 202,142 204,141 204,141 210.101,141 213.956,146 214,146 214,155.456 222.341,165 232,165 232,166.399 234,166.399 234,165 234,165 237,165 237,165 237,165 250,165 250,165 257.833,165 264.905,160.69 268,154.5 269.21,152.081 267.828,141 272,141 281.152,141 299.801,145.651 308.5,150 308.5,150 314.5,150 314.5,150 320.944,153.222 330.494,152.997 336.5,156 340.716,158.108 344.368,160.934 348.5,163 348.5,163 352.5,162 352.5,162 355.074,163.287 352.836,166 357,166 357,166 358,167 358,167 358,168.973 365.216,179 367,179 367,179.896 369,182.026 369,180  Z"/>

<path  fill="#022CFF" stroke-width="0" stroke="#022CFF" d = " M266 240 L270,240 C270,235.865 277.714,227 282,227 282,225.342 283.461,224 285,224 285,224 286,222 286,222 286,222 287,221 287,221 287,221 288,220 288,220 288,215.758 295,212.449 295,208 292.891,208 293,205.465 293,204 293,204 290,187.5 290,187.5 291.566,184.368 291.966,179.569 294,175.5 294.866,173.769 300,169.294 300,169 300,169 300,166 300,166 300,166 297.5,164 297.5,164 291.596,161.048 280.939,166.78 276.5,169 274.703,169.898 269,169.569 269,173 272.012,173 281,183.566 281,186 281,191.931 286,197.081 286,203 289.669,203 287,206.924 287,208 287,208 287,209 287,209 287,209.922 288.681,212 286,212 286,213.622 286.461,217 284,217 284,217 282,220 282,220 282,220 281,221 281,221 281,221 280,222 280,222 280,222 279,223 279,223 279,224.811 275.562,227 274,227 274,227 273,228 273,228 273,228 271,230 271,230 271,231.747 270.747,232 269,232 269,232 268,233 268,233 268,233 267,234 267,234 267,234 266,235 266,235 266,235 266,240 266,240  Z"/>

<path  fill="#022CFF" stroke-width="0" stroke="#022CFF" d = " M217 234 L219,239.5 L217,242 C214.115,242 214.188,234.344 211.5,233 209.186,231.843 200,228.713 200,225 200,225 197,222 197,222 197,222 196,220 196,220 196,220 196,217 196,217 196,217 196,208.5 196,208.5 196,208.5 194,201.5 194,201.5 197.112,195.277 198.292,189.083 195,182.5 193.817,180.133 193.331,171 189,171 189,171 187,166.5 187,166.5 189.717,161.066 205.574,167.537 208.5,169 210.246,169.873 219,171.685 219,174 214.657,174 205,189.1 205,193 205,193 205,195 205,195 205,195 204,197 204,197 202.386,197 203,200.31 203,201.5 203,201.5 203,217.5 203,217.5 204.579,220.657 206.854,227.177 210.5,229 211.948,229.724 217,231.768 217,234  Z"/>

<path  fill="#814FFF" stroke-width="0" stroke="#814FFF" d = " M345 291 C347.715,291 346.333,292.917 348.5,294 351.97,295.735 357.798,293 361,293 361,291.129 366.4,287 368,287 368,287 371,282 371,282 371,282 372,281 372,281 372,281 373,279 373,279 373,276.845 379.624,264 381,264 381,261.997 380.707,261 383,261 383,261 384,257 384,257 382.514,257 382.514,254 384,254 384,254 385,253 385,253 385,241.032 384.97,229.439 380,219.5 377.991,215.482 379.062,209.625 377,205.5 377,205.5 373,201.5 373,201.5 371.816,199.132 371.209,195.917 370,193.5 370,193.5 366,190.5 366,190.5 362.445,183.39 348.102,170 340,170 340,170 339,169 339,169 339,169 324.5,165 324.5,165 321.268,163.384 315.824,166 313,166 313,166 312,166 312,166 312,166 311,166 311,166 311,169.151 302.498,169 300,169 300,169.294 294.866,173.769 294,175.5 291.966,179.569 291.566,184.368 290,187.5 290,187.5 293,204 293,204 293,205.465 292.891,208 295,208 295,208 296,208 296,208 296,208 299.5,203 299.5,203 305.988,199.756 304.558,214.529 305.5,215 305.5,215 307.5,213 307.5,213 307.5,213 310,215.5 310,215.5 310,215.5 304,218.5 304,218.5 304,218.5 305,220 305,220 306.145,220 309,219.421 309,221 325.666,221 331,231.899 331,248.5 331,248.5 331,257.5 331,257.5 329.199,261.102 326,270.127 326,274 327.325,274 328.43,279.361 329,280.5 330.016,282.533 336,285.686 336,287 336,287 337,287 337,287 338.572,287 344,289.052 344,291 344,291 345,291 345,291  Z"/>

<path  fill-rule="evenodd" fill="#814FFF" stroke-width="0" stroke="#814FFF" d = " M161 268 C161,274.548 166.827,268 161,268  M160 263 C160,268.264 164.655,263 160,263  M180 218 C180,219.93 181.93,218 180,218  M166 273 C163.795,273 165.998,276.251 164.5,277 162.127,278.187 163.671,274 162.5,274 162.336,274 157.628,282.872 156.5,284 151.231,289.269 142.564,295 135,295 135,293.851 129.553,293.527 128.5,293 128.5,293 117,281.5 117,281.5 117,281.5 109,266.5 109,266.5 108.426,265.353 110.064,262 108,262 108,260.855 108.579,258 107,258 107,258 106,256 106,256 106,215.325 114.402,186.549 151.5,168 151.5,168 156.5,168 156.5,168 168.264,162.118 177.543,171 189,171 193.331,171 193.817,180.133 195,182.5 198.292,189.083 197.112,195.277 194,201.5 194,201.5 196,208.5 196,208.5 196,208.5 196,217 196,217 196,217 192,215 192,215 192,215 189.5,213 189.5,213 183.777,210.139 183,218.975 183,221 178.752,221 176.974,223.263 173.5,225 159.55,231.975 162,247.394 162,259 162,259 163,260 163,260 163,263.214 167,263.847 167,268 167,268 166,273 166,273  Z"/>

<path  fill-rule="evenodd" fill="#FF0800" stroke-width="0" stroke="#FF0800" d = " M239 210 L236,212.5 C236,214.538 244.183,213.134 243,215.5 L237,218.5 C237,219.778 247.842,221.329 248.5,221 254.151,218.174 252.941,212.221 248.5,210 247.403,209.452 240.992,210 239,210  M244 188 C244,190.091 247.746,188 244,188  M234 230 L229.5,235 C228.087,235.707 222,236.981 222,234 222,234 226,230.5 226,230.5 226,230.5 230,223.5 230,223.5 231.707,220.086 228.186,216.873 227,214.5 227,214.5 229,195.5 229,195.5 229,195.5 240,189.5 240,189.5 240.748,188.005 239.523,186.547 239,185.5 239,185.5 236.5,181 236.5,181 234.663,180.081 218.025,182.737 215.5,184 205.565,188.968 210.01,197 204,197 204,197 205,195 205,195 206.399,195 206.399,193 205,193 205,189.1 214.657,174 219,174 225.135,174 242.239,180.63 249.5,177 252.1,175.7 265.812,173 269,173 272.012,173 281,183.566 281,186 277.831,186 278.313,182.906 276.5,182 275.355,181.427 259.006,182.253 258.5,182 256.51,181.005 252.204,178.648 249.5,180 247.948,180.776 245.123,184.746 246,186.5 246.936,188.371 253.685,189.869 255,192.5 255,192.5 256,205.5 256,205.5 256,205.5 258,209.5 258,209.5 257.123,211.253 254.718,212.937 256,215.5 257.726,218.951 259,225.83 259,231 253.995,231 251.754,224 247,224 247,224 244,224 244,224 244,222.601 242,222.601 242,224 242,224 238,227 238,227 238,227 236,228 236,228 236,228 235,229 235,229 235,229 234,230 234,230  Z"/>

<path  fill="#00FF1D" stroke-width="0" stroke="#00FF1D" d = " M269 232 L268,233 C266.222,233 259,232.355 259,231 259,225.83 257.726,218.951 256,215.5 254.718,212.937 257.123,211.253 258,209.5 258,209.5 256,205.5 256,205.5 256,205.5 255,192.5 255,192.5 253.685,189.869 246.936,188.371 246,186.5 245.123,184.746 247.948,180.776 249.5,180 252.204,178.648 256.51,181.005 258.5,182 259.006,182.253 275.355,181.427 276.5,182 278.313,182.906 277.831,186 281,186 281,191.931 286,197.081 286,203 286,204.235 285.357,208 287,208 287,208 287,209 287,209 285.527,209 286,210.952 286,212 284.362,212 284,215.576 284,217 284,217 282,220 282,220 282,220 281,221 281,221 281,221 280,222 280,222 280,222 279,223 279,223 279,224.811 275.562,227 274,227 274,227 273,228 273,228 271.253,228 271,228.253 271,230 271,230 269,232 269,232  Z"/>

<path  fill-rule="evenodd" fill="#00FF1D" stroke-width="0" stroke="#00FF1D" d = " M237 186 L235,188.5 C232.662,193.176 242.696,186 237,186  M217 234 C218.467,234 220.533,234 222,234 222,234 226,230.5 226,230.5 226,230.5 230,223.5 230,223.5 231.707,220.086 228.186,216.873 227,214.5 227,214.5 229,195.5 229,195.5 229,195.5 240,189.5 240,189.5 240.748,188.005 239.523,186.547 239,185.5 239,185.5 236.5,181 236.5,181 234.663,180.081 218.025,182.737 215.5,184 205.565,188.968 210.01,197 204,197 202.386,197 203,200.31 203,201.5 203,201.5 203,217.5 203,217.5 204.579,220.657 206.854,227.177 210.5,229 211.948,229.724 217,231.768 217,234  Z"/>

<path  fill="#FF0800" stroke-width="0" stroke="#FF0800" d = " M237 186 L235,188.5 C232.662,193.176 242.696,186 237,186  Z"/>

<path  fill="#00FF1D" stroke-width="0" stroke="#00FF1D" d = " M244 188 C244,190.091 247.746,188 244,188  Z"/>

<path  fill="#00FF1D" stroke-width="0" stroke="#00FF1D" d = " M205 193 C206.399,193 206.399,195 205,195 205,195 205,193 205,193  Z"/>

<path  fill="#FF3427" stroke-width="0" stroke="#FF3427" d = " M302 273 L301,274 C301,282.456 294,263.382 294,262 294,253.69 292,243.776 292,233 292,233 294,220 294,220 295.535,220 295.535,216 294,216 294,212.697 296,210.885 296,208 296,208 299.5,203 299.5,203 305.988,199.756 304.558,214.529 305.5,215 305.5,215 307.5,213 307.5,213 307.5,213 310,215.5 310,215.5 310,215.5 304,218.5 304,218.5 304,218.5 305,220 305,220 303.885,220 305,222.535 305,224 305,227.03 300.691,226.118 300,227.5 298.058,231.383 298.975,236.55 297,240.5 295.51,243.481 296.758,254.015 298,256.5 298,256.5 302,260.5 302,260.5 302,260.5 301,263.5 301,263.5 299.533,266.435 302,271.297 302,273  Z"/>

<path  fill="#AE00E8" stroke-width="0" stroke="#AE00E8" d = " M239 210 L236,212.5 C236,214.538 244.183,213.134 243,215.5 L237,218.5 C237,219.778 247.842,221.329 248.5,221 254.151,218.174 252.941,212.221 248.5,210 247.403,209.452 240.992,210 239,210  Z"/>

<path  fill="#FF3427" stroke-width="0" stroke="#FF3427" d = " M187 271 L188,272 C188,272 192,272.5 192,272.5 193.418,269.664 195,239.376 195,236 195,236 193,219 193,219 193,219 192,215 192,215 192,215 189.5,213 189.5,213 183.777,210.139 183,218.975 183,221 184.399,221 184.399,223 183,223 183,224.981 187.293,243.086 188,244.5 188,244.5 190,246.5 190,246.5 190,255.107 187,262.544 187,271  Z"/>

<path  fill="#EE7533" stroke-width="0" stroke="#EE7533" d = " M292 218 L294,220 C295.535,220 295.535,216 294,216 292.253,216 292,216.253 292,218  Z"/>

<path  fill-rule="evenodd" fill="#0008B6" stroke-width="0" stroke="#0008B6" d = " M286 237 C286,240.877 283,245.127 283,250 283,250.088 280.764,254 282.5,254 284.73,254 283.529,250.442 284,249.5 284.559,248.383 289.393,237 286,237  M292 233 C288.508,233 290.163,238.174 289,240.5 285.515,247.47 285.928,256.786 277.5,261 270.593,264.453 262.281,257.937 266,250.5 L270,240 C270,235.865 277.714,227 282,227 283.539,227 285,225.658 285,224 285,224 286,222 286,222 286,222 287,221 287,221 287,221 288,220 288,220 288,220 292,218 292,218 292,218 294,220 294,220 294,220 292,233 292,233  Z"/>

<path  fill-rule="evenodd" fill="#0008B6" stroke-width="0" stroke="#0008B6" d = " M203 233 L202,236.5 C202,237.67 207.674,233 203,233  M201 248 C201,257.175 203.789,261 213,261 214.356,261 218.812,262.876 220,260.5 L221,252 C221,248.401 217,245.175 217,242 214.115,242 214.188,234.344 211.5,233 209.186,231.843 200,228.713 200,225 200,225 197,222 197,222 197,222 196,220 196,220 196,220 193,219 193,219 193,219 195,236 195,236 195,236 199,239 199,239 199,232.853 206.277,248.946 205,251.5 203.801,253.897 202.501,248 201,248  Z"/>

<path  fill="#FF91BA" stroke-width="0" stroke="#FF91BA" d = " M325 275 C323.762,275 322,275.423 322,277 322,277 311.5,279 311.5,279 311.5,279 302,274 302,274 302,274 302,273 302,273 302,271.297 299.533,266.435 301,263.5 301,263.5 302,260.5 302,260.5 302,260.5 298,256.5 298,256.5 296.758,254.015 295.51,243.481 297,240.5 298.975,236.55 298.058,231.383 300,227.5 300.691,226.118 305,227.03 305,224 305,224 309,221 309,221 325.666,221 331,231.899 331,248.5 331,248.5 331,257.5 331,257.5 329.199,261.102 326,270.127 326,274 326,274 325,275 325,275  Z"/>

<path  fill="#FF91BA" stroke-width="0" stroke="#FF91BA" d = " M186 272 L182.5,275 C180.703,275.899 178.418,276.041 176.5,277 173.345,278.578 172.259,274 170,274 170,272.854 168.661,268 167,268 167,263.847 163,263.214 163,260 163,260 162,259 162,259 162,247.394 159.55,231.975 173.5,225 176.974,223.263 178.752,221 183,221 183,221 183,223 183,223 183,224.981 187.293,243.086 188,244.5 188,244.5 190,246.5 190,246.5 190,255.107 187,262.544 187,271 187,271 186,272 186,272  Z"/>

<path  fill="#022CFF" stroke-width="0" stroke="#022CFF" d = " M240 256 L246.5,255 L249,257 C249,257 248,251 248,251 248,249.598 244.047,238 247,238 247,236.448 247.566,230 249,230 249,227.28 247,226.447 247,224 247,224 244,224 244,224 244,224 242,224 242,224 242,224 238,227 238,227 238,227 238,228 238,228 238,232.297 241,235.957 241,241 241,242.235 241.643,246 240,246 240,248.124 239,250.436 239,252 239,252 238,253 238,253 238,253 238,254 238,254 238,254 240,256 240,256  Z"/>

<path  fill="#15C0FF" stroke-width="0" stroke="#15C0FF" d = " M238 253 L238,254 C234.844,254 226,260.376 226,251 226,251 226,250 226,250 226,250 225,246 225,246 226.765,246 234,232.729 234,230 234,230 235,229 235,229 235,229 236,228 236,228 236,228 238,228 238,228 238,232.297 241,235.957 241,241 239.357,241 240,244.765 240,246 240,248.124 239,250.436 239,252 239,252 238,253 238,253  Z"/>

<path  fill="#15C0FF" stroke-width="0" stroke="#15C0FF" d = " M262 243 C262,245.592 262.958,246.416 264,248.5 267.161,254.821 258.318,256.909 254.5,255 L249,251 C249,246.728 247,242.763 247,238 247,236.448 247.566,230 249,230 255.621,230 254.984,243 262,243  Z"/>

<path  fill-rule="evenodd" fill="#E1F00D" stroke-width="0" stroke="#E1F00D" d = " M147 294 C147,296.288 140.563,296.032 144.5,298 146.73,299.115 151.589,294 147,294  M241 274 C241,284.392 242,299.147 242,311.5 L243.5,323 C246.043,323 245,311.81 245,310 L245,278.5 C245.523,277.453 246.748,275.995 246,274.5 L241,274  M340 340 L335.5,346 C333.463,347.019 316.884,339.692 313.5,338 L307.5,341 C301.801,341 301.095,332.297 296.5,330 290.78,327.14 284.711,331.105 280.5,329 271.498,324.499 258.275,326 247.5,326 L232.5,325 C226.146,328.177 204.83,326.835 200.5,329 L196.5,336 C189.041,339.73 180.906,342.297 173.5,346 166.871,349.314 159.195,343.347 154.5,341 151.02,339.26 146.187,341 143,341 143,332.624 143.502,321.503 140,314.5 137.478,309.456 135,300.786 135,295 142.564,295 151.231,289.269 156.5,284 157.628,282.872 162.336,274 162.5,274 163.671,274 162.127,278.187 164.5,277 165.998,276.251 163.795,273 166,273 166,274.579 168.855,274 170,274 172.259,274 173.345,278.578 176.5,277 178.418,276.041 180.703,275.899 182.5,275 182.5,275 186,272 186,272 186,272 188,272 188,272 188,272 192,272.5 192,272.5 193.418,269.664 195,239.376 195,236 195,236 199,239 199,239 199,242.157 201,244.481 201,248 201,257.175 203.789,261 213,261 214.356,261 218.812,262.876 220,260.5 220,260.5 221,252 221,252 221,252 226,251 226,251 226,260.376 234.844,254 238,254 238,254 240,256 240,256 240,262.4 223.675,256.151 220,263.5 217.681,268.138 226.154,269 229,269 229,271.334 233.181,270.341 234.5,271 238.224,272.862 257,272.871 257,269 260.222,269 262.673,269.154 264,266.5 264,266.5 267,265.5 267,265.5 267.798,263.905 264.265,263.383 263.5,263 258.516,260.508 254.984,257 249,257 249,257 248,251 248,251 248,251 249,251 249,251 249,251 254.5,255 254.5,255 258.318,256.909 267.161,254.821 264,248.5 262.958,246.416 262,245.592 262,243 262,243 266,240 266,240 266,240 270,240 270,240 270,240 266,250.5 266,250.5 262.281,257.937 270.593,264.453 277.5,261 285.928,256.786 285.515,247.47 289,240.5 290.163,238.174 288.508,233 292,233 292,243.776 294,253.69 294,262 294,263.382 301,282.456 301,274 301,274 302,274 302,274 302,274 311.5,279 311.5,279 311.5,279 322,277 322,277 323.238,277 325,276.577 325,275 325,275 326,274 326,274 327.325,274 328.43,279.361 329,280.5 330.016,282.533 336,285.686 336,287 327.464,287 344.943,302.614 348,296.5 349.211,294.078 345,293.403 345,291 347.715,291 346.333,292.917 348.5,294 351.97,295.735 357.798,293 361,293 361,294.481 363,293.785 363,296 363,305.895 358.1,313.3 354,321.5 354,321.5 353,328.5 353,328.5 353,328.5 340,340 340,340  Z"/>

<path  fill="#00FF1D" stroke-width="0" stroke="#00FF1D" d = " M267 234 L266,235 C266,235 267,234 267,234  Z"/>

<path  fill="#ADFF2F" stroke-width="0" stroke="#ADFF2F" d = " M199 239 C199,242.157 201,244.481 201,248 202.501,248 203.801,253.897 205,251.5 206.277,248.946 199,232.853 199,239  Z"/>

<path  fill="#ADFF2F" stroke-width="0" stroke="#ADFF2F" d = " M286 237 C286,240.877 283,245.127 283,250 283,250.088 280.764,254 282.5,254 284.73,254 283.529,250.442 284,249.5 284.559,248.383 289.393,237 286,237  Z"/>

<path  fill="#E1F00D" stroke-width="0" stroke="#E1F00D" d = " M220 243 C220,245.091 223.746,243 220,243  Z"/>

<path  fill="#E1F00D" stroke-width="0" stroke="#E1F00D" d = " M225 246 L226,250 C221.86,250 225,244.45 225,246  Z"/>

<path  fill="#E1F00D" stroke-width="0" stroke="#E1F00D" d = " M239 252 L238,253 C238,253 239,252 239,252  Z"/>

<path  fill="#FF6E00" stroke-width="0" stroke="#FF6E00" d = " M385 253 L384,254 C384,254 385,253 385,253  Z"/>

<path  fill="#FF6E00" stroke-width="0" stroke="#FF6E00" d = " M384 254 C382.514,254 382.514,257 384,257 384,257 384,254 384,254  Z"/>

<path  fill="#FFBB00" stroke-width="0" stroke="#FFBB00" d = " M229 269 C239.082,269 246.849,269 257,269 260.222,269 262.673,269.154 264,266.5 264,266.5 267,265.5 267,265.5 267.798,263.905 264.265,263.383 263.5,263 258.516,260.508 254.984,257 249,257 249,257 246.5,255 246.5,255 246.5,255 240,256 240,256 240,262.4 223.675,256.151 220,263.5 217.681,268.138 226.154,269 229,269  Z"/>

<path  fill="#FF6E00" stroke-width="0" stroke="#FF6E00" d = " M107 258 C108.579,258 108,260.855 108,262 106.421,262 107,259.145 107,258  Z"/>

<path  fill="#7CFC00" stroke-width="0" stroke="#7CFC00" d = " M229 269 C239.082,269 246.849,269 257,269 257,272.871 238.224,272.862 234.5,271 233.181,270.341 229,271.334 229,269  Z"/>

<path  fill="#022CFF" stroke-width="0" stroke="#022CFF" d = " M241 274 C241,284.392 242,299.147 242,311.5 L243.5,323 C246.043,323 245,311.81 245,310 L245,278.5 C245.523,277.453 246.748,275.995 246,274.5 L241,274  Z"/>

<path  fill="#FFBB00" stroke-width="0" stroke="#FFBB00" d = " M344 291 L345,291 C345,293.403 349.211,294.078 348,296.5 344.943,302.614 327.464,287 336,287 336,287 337,287 337,287 337,287 344,291 344,291  Z"/>

<path  fill="#E1F00D" stroke-width="0" stroke="#E1F00D" d = " M337 287 C338.572,287 344,289.052 344,291 344,291 337,287 337,287  Z"/>

<path  fill="#FFBB00" stroke-width="0" stroke="#FFBB00" d = " M147 294 C147,296.288 140.563,296.032 144.5,298 146.73,299.115 151.589,294 147,294  Z"/>

<path  fill="#267EFF" stroke-width="0" stroke="#267EFF" d = " M244 327 C244,329.144 239.738,327.381 238.5,328 234.071,330.215 220,324.663 220,333.5 220,339.035 228.291,339 232,339 233.906,339 238.698,337.901 240.5,337 246.224,334.138 267.799,343.903 273,333.5 L269.5,330 C265.505,328.002 259.383,330.942 255.5,329 252.105,327.302 248.104,327 244,327  Z"/>

<path  fill-rule="evenodd" fill="#FA8072" stroke-width="0" stroke="#FA8072" d = " M302 374 C302,375.93 303.93,374 302,374  M298 347 C298,349.119 290.9,350.701 290,352.5 288.388,355.725 291.14,360.219 290,362.5 L286.5,362 C284.155,363.173 282.163,364.175 281,366.5 280.103,368.294 281.338,371.176 282,372.5 283.098,374.696 278.219,382.859 282.5,385 284.615,386.058 287.461,385.981 289.5,387 L295.5,393 C300.146,390.677 318.648,382.203 321,377.5 322.119,375.263 322.662,355.825 322,354.5 L314.5,347 L309.5,348 L298,347  Z"/>

<path  fill="#FA8072" stroke-width="0" stroke="#FA8072" d = " M120 348 C120,357.368 125.387,358.944 131.5,362 134.584,363.542 138.872,370.756 142,364.5 143.402,361.697 139.632,359.132 138,357.5 135.955,355.455 120.918,348 120,348  Z"/>

<path  fill="#FA8072" stroke-width="0" stroke="#FA8072" d = " M182 350 C182,352.781 164,356.879 164,362.5 L169.5,372 C171.012,372.756 171.652,369.804 173,372.5 L172,379.5 L178,385.5 C179.475,388.45 183.252,387.876 185.5,389 187.277,389.889 184.895,393.698 187.5,395 187.775,395.137 201.623,394.254 202,393.5 L202.5,386 C205.568,384.466 205.693,392.114 209,385.5 L209,371.5 L203,366.5 C200.898,362.297 202.079,356.659 200,352.5 197.773,348.045 190.546,353.523 187.5,352 185.416,350.958 184.592,350 182,350  Z"/>

<path  fill="#FA8072" stroke-width="0" stroke="#FA8072" d = " M362 351 C362,354.061 355.32,355.86 354,358.5 352.483,361.534 357.525,365.488 360.5,364 364.743,361.878 373.314,351 362,351  Z"/>

<path  fill="#FA8072" stroke-width="0" stroke="#FA8072" d = " M348 365 C348,368.665 339.804,367.893 338,371.5 336.388,374.724 342.261,376.022 343,377.5 L343.5,380 C345.736,380 344.5,375 346.5,374 L352.5,373 C357.228,370.636 351.363,365 348,365  Z"/>

<path  fill="#FA8072" stroke-width="0" stroke="#FA8072" d = " M148 370 L145,374.5 C145,384.288 163.353,375.426 152.5,370 L148,370  Z"/>

</g>
</svg>
