<svg xmlns="http://www.w3.org/2000/svg" xmlns:xlink="http://www.w3.org/1999/xlink" height="512" width="512">
<g>
<rect width="512" height="512" fill="#000000"  stroke-width="0" /> 
<path  fill="#FFE300" stroke-width="0" stroke="#FFE300" d = " M212 271 C212,280.296 234.632,265.236 236,262.5 L242,252.5 C242.345,251.81 238.589,240.545 243.5,243 246.28,244.39 244.854,250.208 246,252.5 L251,256.5 L255.5,265 C258.271,266.385 260.541,266.582 262,269.5 262.963,271.425 279,278.938 279,273 266.884,273 258.069,260.639 253,250.5 251.832,248.164 252.229,244.957 251,242.5 251,242.5 251,226.5 251,226.5 249.314,223.128 247.87,192.76 250,188.5 250,188.5 255,181.5 255,181.5 255,173.067 252.003,156.749 261.5,152 261.5,152 264.5,148 264.5,148 275.431,142.534 278.649,148 289,148 289,143.835 268.676,142.412 265.5,144 258.516,147.492 251,163.58 251,171 251,173.231 253.386,177.728 252,180.5 251.327,181.847 245,186.407 245,183 243.762,183 242,182.577 242,181 238.674,181 234.384,172.732 236,169.5 236,169.5 238,167 238,167 238,142.592 210.632,141.934 194.5,150 185.072,154.714 181.44,168.62 177,177.5 177,177.5 177,192 177,192 178.579,192 178,189.145 178,188 178,183.575 178.167,178.167 180,174.5 185.078,164.344 192.024,154.238 202.5,149 207.582,146.459 225.667,143.834 229,150.5 230.772,154.044 232.216,157.932 234,161.5 234,161.5 235,178.5 235,178.5 236.067,180.633 237.891,182.282 239,184.5 240.003,186.505 238.944,189.388 240,191.5 241.233,193.966 238.271,199.043 239,200.5 239.523,201.547 240.748,203.005 240,204.5 237.996,208.508 238,213.851 238,217.5 238,220.208 236.19,224.12 235,226.5 235,226.5 235,237.5 235,237.5 232.253,242.994 232.759,249.982 230,255.5 229.397,256.707 222.627,267.937 222.5,268 221.376,268.562 212,270.456 212,271  Z"/>

<path  fill="#FF8700" stroke-width="0" stroke="#FF8700" d = " M309 220 C309,223.99 306.716,229.069 305,232.5 302.842,236.815 304.16,243.181 302,247.5 298.067,255.366 290.204,273 279,273 266.884,273 258.069,260.639 253,250.5 251.832,248.164 252.229,244.957 251,242.5 251,242.5 251,226.5 251,226.5 249.314,223.128 247.87,192.76 250,188.5 250,188.5 255,181.5 255,181.5 255,173.067 252.003,156.749 261.5,152 261.5,152 264.5,148 264.5,148 275.431,142.534 278.649,148 289,148 289,148 291,149 291,149 291,150.774 300.797,157.148 302.5,158 304.408,158.954 304.482,166 308,166 308,166 309,169 309,169 309,172.944 310.288,179.076 312,182.5 312,182.5 310,219 310,219 310,219 309,220 309,220  Z"/>

<path  fill="#FF8700" stroke-width="0" stroke="#FF8700" d = " M179 214 C179,222.986 190.997,257.249 198.5,261 203.154,263.327 206.52,271 212,271 212,270.456 221.376,268.562 222.5,268 222.627,267.937 229.397,256.707 230,255.5 232.759,249.982 232.253,242.994 235,237.5 235,237.5 235,226.5 235,226.5 236.19,224.12 238,220.208 238,217.5 238,213.851 237.996,208.508 240,204.5 240.748,203.005 239.523,201.547 239,200.5 238.271,199.043 241.233,193.966 240,191.5 238.944,189.388 240.003,186.505 239,184.5 237.891,182.282 236.067,180.633 235,178.5 235,178.5 234,161.5 234,161.5 232.216,157.932 230.772,154.044 229,150.5 225.667,143.834 207.582,146.459 202.5,149 192.024,154.238 185.078,164.344 180,174.5 178.167,178.167 178,183.575 178,188 178,189.145 178.579,192 177,192 177,199.504 179,206.186 179,214  Z"/>

<path  fill="#FFE300" stroke-width="0" stroke="#FFE300" d = " M291 149 C297.491,149 308,160.02 308,166 304.482,166 304.408,158.954 302.5,158 300.797,157.148 291,150.774 291,149  Z"/>

<path  fill="#0F6DE6" stroke-width="0" stroke="#0F6DE6" d = " M242 181 C242,177.386 245,180.511 245,183 245,186.407 251.327,181.847 252,180.5 253.386,177.728 251,173.231 251,171 251,171 244.5,172 244.5,172 242.162,170.831 240.777,167 238,167 238,167 236,169.5 236,169.5 234.384,172.732 238.674,181 242,181  Z"/>

<path  fill="#FFE300" stroke-width="0" stroke="#FFE300" d = " M309 169 C313.43,169 311.676,174.851 313,177.5 317.177,185.854 315.962,202.576 312,210.5 311.338,211.824 311.647,219 310,219 310,219 312,182.5 312,182.5 310.288,179.076 309,172.944 309,169  Z"/>

<path  fill="#FFE300" stroke-width="0" stroke="#FFE300" d = " M177 192 C175.316,192 176,196.679 176,198 176,199.928 176.237,214 179,214 179,206.186 177,199.504 177,192  Z"/>

<path  fill="#FFE300" stroke-width="0" stroke="#FFE300" d = " M310 219 L309,220 C309,220 310,219 310,219  Z"/>

<path  fill="#30DA00" stroke-width="0" stroke="#30DA00" d = " M356 269 C356,270.845 352.619,270.441 351.5,271 349.258,272.121 332.163,280.332 341.5,285 356.228,292.364 375.974,269 356,269  Z"/>

<path  fill="#30DA00" stroke-width="0" stroke="#30DA00" d = " M139 280 C139,282.205 135.749,280.002 135,281.5 L135,289.5 C137.399,294.298 157.985,299.53 161,293.5 163.54,288.421 152.32,281 149,281 L139,280  Z"/>

<path  fill="#FA8072" stroke-width="0" stroke="#FA8072" d = " M192 290 C192,291.93 193.93,290 192,290  Z"/>

<path  fill-rule="evenodd" fill="#FA8072" stroke-width="0" stroke="#FA8072" d = " M302 393 C302,394.93 303.93,393 302,393  M286 368 L281,372.5 L281,388.5 C282.69,391.881 285.98,391.74 288.5,393 290.112,393.806 288.889,398.694 291.5,400 294.363,401.431 299.593,398 302,398 303.465,398 303.711,402.394 306.5,401 309.111,399.694 307.888,394.806 309.5,394 314.866,391.317 318.453,396.595 322,389.5 324.848,383.804 311.864,377.682 308.5,376 308.381,375.941 309.251,371.375 306.5,370 304.264,368.882 303.18,372.84 301.5,372 295.051,368.775 294.798,368 286,368  Z"/>

<path  fill="#FA8072" stroke-width="0" stroke="#FA8072" d = " M199 371 C199,373.689 193.419,372.04 191.5,373 187.539,374.981 172.62,384.259 171,387.5 L171,391.5 C169.627,394.246 160.442,394.384 164,401.5 168.389,410.278 179.261,396 181.5,396 L188.5,400 L196.5,397 C197.774,397.637 197.141,405.179 201.5,403 L202.5,397 C206.728,394.886 203.736,403.382 206.5,402 213.543,398.478 203.444,391.612 205,388.5 L209,384.5 C213.02,376.46 206.398,371 199,371  Z"/>

</g>
</svg>
