<svg xmlns="http://www.w3.org/2000/svg" xmlns:xlink="http://www.w3.org/1999/xlink" height="512" width="512">
<g>
<rect width="512" height="512" fill="#000000"  stroke-width="0" /> 
<path  fill-rule="evenodd" fill="#86FF5A" stroke-width="0" stroke="#86FF5A" d = " M240 353 L239,359.5 C245.186,371.871 258.195,353 240,353  M241 316 C241,317.684 236.321,317 235,317 228.277,317 228.967,317.267 223.5,320 221.465,321.018 219.177,318.661 216.5,320 L213,324.5 C205.733,331.767 202.431,338.638 198,347.5 196.694,350.112 197.358,353.784 196,356.5 191.409,365.682 201.559,385.618 205,392.5 207.832,398.165 218.314,403.407 223.5,406 226.022,407.261 234.373,409.564 237.5,408 239.274,407.113 245.403,402.451 246.5,403 252.41,405.955 258.052,410.724 265.5,407 L274,402.5 L275.5,398 C276.447,397.526 283.847,392.805 284,392.5 293.893,372.714 298.906,362.312 288,340.5 286.487,337.474 286.545,333.589 285,330.5 284.318,329.136 280.275,328.049 279,325.5 L278.5,322 C276.555,321.027 274.657,322.578 273.5,322 263.11,316.805 253.693,316 241,316  Z"/>

<path  fill="#EB57FF" stroke-width="0" stroke="#EB57FF" d = " M240 353 L239,359.5 C245.186,371.871 258.195,353 240,353  Z"/>

</g>
</svg>
