<svg xmlns="http://www.w3.org/2000/svg" xmlns:xlink="http://www.w3.org/1999/xlink" height="512" width="512">
<g>
<rect width="512" height="512" fill="#000000"  stroke-width="0" /> 
<path  fill="#FFE300" stroke-width="0" stroke="#FFE300" d = " M242 148 L244,149 C244,149 245,170.5 245,170.5 245,170.5 254,185.5 254,185.5 257.792,193.083 252.769,209.037 256,215.5 258.259,220.017 259.729,224.958 262,229.5 266.094,237.689 284.34,241.819 289,232.5 295.278,219.944 283.78,205.941 288,197.5 288,197.5 291,194.5 291,194.5 291,194.5 291,188.5 291,188.5 292.593,185.314 298.744,169.989 297,166.5 294.937,162.374 292.126,158.751 290,154.5 288.31,151.121 284.491,144.996 280.5,143 278.509,142.004 260.049,137.226 258.5,138 255.952,139.274 256.188,141 253,141 253,135.415 260.442,138.529 263.5,137 268.186,134.657 289.939,142.377 292,146.5 295.49,153.479 300.532,159.564 304,166.5 304,166.5 305,181.5 305,181.5 305.586,182.673 305.901,186.699 305,188.5 302.235,194.03 298.226,190.637 295.5,192 293.077,193.211 292.113,199.274 291,201.5 289.711,204.078 293,206.308 293,208.5 293,217.601 294.62,227.261 291,234.5 289.988,236.524 292.119,240.691 289.5,242 286.535,243.483 282.623,241.061 280.5,240 280.5,240 264.5,239 264.5,239 264.5,239 255.5,230 255.5,230 252.408,228.454 248.999,231.498 247,227.5 244.239,221.978 248.409,217.319 246,212.5 244.849,210.198 247.695,188.597 244.5,187 242.264,185.882 242,193.938 242,195.5 242,201.436 241.796,223.908 240,227.5 238.647,230.206 231.865,228.817 229.5,230 225.125,232.188 227.612,237.944 223.5,240 220.462,241.519 206.123,245.312 203.5,244 200.614,242.557 198.604,240.552 195.5,239 187.855,235.177 202.586,213.672 198,204.5 196.546,201.592 195.463,198.426 194,195.5 193.846,195.192 184.58,187.66 183,184.5 182.836,184.172 184.497,169.506 185,168.5 187.374,163.752 186.625,157.25 189,152.5 192.251,145.998 211.554,134.027 219.5,138 221.6,139.05 221.394,140 224,140 224,141.483 213.961,141.269 212.5,142 205.613,145.444 198.786,147.928 195,155.5 190.208,165.085 192.113,179.727 197,189.5 198.851,193.202 198.191,197.882 200,201.5 200.628,202.756 202.867,204.767 202,206.5 201.062,208.376 197.47,235.439 198,236.5 201.932,244.364 223.603,235.295 226,230.5 232.77,216.961 228.13,196.241 232,188.5 238.293,175.914 242,163.326 242,148  Z"/>

<path  fill="#FF8700" stroke-width="0" stroke="#FF8700" d = " M253 141 C256.188,141 255.952,139.274 258.5,138 260.049,137.226 278.509,142.004 280.5,143 284.491,144.996 288.31,151.121 290,154.5 292.126,158.751 294.937,162.374 297,166.5 298.744,169.989 292.593,185.314 291,188.5 L291,194.5 L288,197.5 C283.78,205.941 295.278,219.944 289,232.5 284.34,241.819 266.094,237.689 262,229.5 259.729,224.958 258.259,220.017 256,215.5 252.769,209.037 257.792,193.083 254,185.5 L245,170.5 L244,149 C245.394,149 248.889,141 253,141  Z"/>

<path  fill="#FF8700" stroke-width="0" stroke="#FF8700" d = " M234 142 C237.627,142 242,144.629 242,148 242,163.326 238.293,175.914 232,188.5 228.13,196.241 232.77,216.961 226,230.5 223.603,235.295 201.932,244.364 198,236.5 197.47,235.439 201.062,208.376 202,206.5 202.867,204.767 200.628,202.756 200,201.5 198.191,197.882 198.851,193.202 197,189.5 192.113,179.727 190.208,165.085 195,155.5 198.786,147.928 205.613,145.444 212.5,142 213.961,141.269 224,141.483 224,140 224,140 230,140 230,140 230,140 234,142 234,142  Z"/>

<path  fill="#FFE300" stroke-width="0" stroke="#FFE300" d = " M230 140 C231.465,140 234,139.891 234,142 234,142 230,140 230,140  Z"/>

<path  fill="#FA8072" stroke-width="0" stroke="#FA8072" d = " M176 358 L172,360.5 L170.5,367 C167.813,368.344 162.661,368.178 161,371.5 159.25,374.999 165.486,376.528 164,379.5 L158.5,380 C155.258,381.621 153.539,384.423 152,387.5 150.455,390.591 155.966,399.767 159.5,398 162.007,396.747 163.471,399.015 165.5,398 L171.5,394 L175.5,396 C178.227,397.363 180.111,394.695 181.5,394 184.047,392.727 183.778,396.861 185.5,396 187.683,394.909 189.075,393.212 191.5,392 198.247,388.626 187.586,385.671 187,384.5 L188,376.5 L182,370.5 C181.8,370.1 188.028,358 176,358  Z"/>

<path  fill="#FA8072" stroke-width="0" stroke="#FA8072" d = " M315 358 C315,358.974 310.781,360.937 310,362.5 308.239,366.021 313.471,370.558 313,371.5 312.636,372.228 305.434,370.631 304,373.5 302.312,376.877 304,378.909 304,382 304,389.051 302.521,397.49 313.5,392 315.716,390.892 320.606,392.288 322,389.5 322.727,388.046 323.631,375.763 323,374.5 L320,370.5 C322.441,365.617 326.685,358 315,358  Z"/>

<path  fill="#FA8072" stroke-width="0" stroke="#FA8072" d = " M337 379 C337,382.746 339.091,379 337,379  Z"/>

<path  fill="#FA8072" stroke-width="0" stroke="#FA8072" d = " M327 383 C327,384.791 323.73,385.959 325,388.5 326.451,391.403 328.401,391.049 330.5,390 332.815,388.842 336.905,392.689 339,388.5 340.896,384.709 336.22,381.64 333.5,383 330.748,384.376 330.067,383 327,383  Z"/>

</g>
</svg>
