<svg xmlns="http://www.w3.org/2000/svg" xmlns:xlink="http://www.w3.org/1999/xlink" height="512" width="512">
<g>
<rect width="512" height="512" fill="#000000"  stroke-width="0" /> 
<path  fill="#FFE300" stroke-width="0" stroke="#FFE300" d = " M242 148 L244,149 C244,165.658 247.115,171.73 254,185.5 254,185.5 254,190.5 254,190.5 259.064,200.628 254.029,215.558 261,229.5 266.693,240.886 285.122,242.255 291,230.5 294.833,222.834 286.181,202.138 288,198.5 290.92,192.66 299.781,171.062 297,165.5 297,165.5 292,154.5 292,154.5 292,154.5 288,150.5 288,150.5 288,150.5 282.5,144 282.5,144 277.102,141.301 270.918,140.709 265.5,138 260.409,135.455 257.247,141 253,141 253,136.738 268.553,134.027 272.5,136 285.097,142.299 295.326,147.153 302,160.5 304.671,165.842 307.746,184.008 305,189.5 303.01,193.48 298.496,192.502 295.5,194 295.5,194 291,202.5 291,202.5 291,202.5 293,208.5 293,208.5 293,216.631 296.084,230.333 293,236.5 293,236.5 288.5,242 288.5,242 288.135,242.183 263.466,239.483 262.5,239 262.5,239 254.5,231 254.5,231 254.5,231 248,228.5 248,228.5 246.009,224.518 249.446,217.393 248,214.5 245.392,209.284 246,204.328 246,197.5 246,196.022 245.737,187 244.5,187 242.684,187 243.383,189.734 243,190.5 240.479,195.542 242,204.569 242,210.5 242,215.365 241.069,222.362 239,226.5 237.361,229.779 233.564,228.936 231.5,231 225.931,236.569 218.274,247.887 208.5,243 208.5,243 203.5,244 203.5,244 202.96,243.73 193.123,237.746 193,237.5 188.486,228.471 202.288,219.076 197,208.5 197,208.5 197,201.5 197,201.5 197,201.5 183,185.5 183,185.5 179.918,179.335 188.134,154.232 191,148.5 193.317,143.867 204.227,140.136 208.5,138 212.141,136.18 218.746,139 222,139 225.391,139 235,138.169 235,142 232.408,142 231.584,141.042 229.5,140 226.021,138.26 208.364,142.568 205.5,144 204.464,144.518 197.765,148.97 197,150.5 196.038,152.424 189.41,167.32 190,168.5 192.918,174.337 194.093,180.687 197,186.5 199.811,192.122 198.173,199.845 201,205.5 201,205.5 198,236.5 198,236.5 202.281,245.062 224.516,234.468 226,231.5 229.225,225.051 228.815,216.87 232,210.5 233.43,207.64 230.772,204.957 232,202.5 232,202.5 232,188.5 232,188.5 238.441,175.617 242,163.741 242,148  Z"/>

<path  fill="#FF8700" stroke-width="0" stroke="#FF8700" d = " M253 141 C257.247,141 260.409,135.455 265.5,138 270.918,140.709 277.102,141.301 282.5,144 L288,150.5 L292,154.5 L297,165.5 C299.781,171.062 290.92,192.66 288,198.5 286.181,202.138 294.833,222.834 291,230.5 285.122,242.255 266.693,240.886 261,229.5 254.029,215.558 259.064,200.628 254,190.5 L254,185.5 C247.115,171.73 244,165.658 244,149 245.977,149 248.59,141 253,141  Z"/>

<path  fill="#FF8700" stroke-width="0" stroke="#FF8700" d = " M235 142 C238.263,142 242,145.061 242,148 242,163.741 238.441,175.617 232,188.5 232,188.5 232,202.5 232,202.5 230.772,204.957 233.43,207.64 232,210.5 228.815,216.87 229.225,225.051 226,231.5 224.516,234.468 202.281,245.062 198,236.5 198,236.5 201,205.5 201,205.5 198.173,199.845 199.811,192.122 197,186.5 194.093,180.687 192.918,174.337 190,168.5 189.41,167.32 196.038,152.424 197,150.5 197.765,148.97 204.464,144.518 205.5,144 208.364,142.568 226.021,138.26 229.5,140 231.584,141.042 232.408,142 235,142  Z"/>

<path  fill="#FA8072" stroke-width="0" stroke="#FA8072" d = " M315 358 C315,358.974 310.781,360.937 310,362.5 308.021,366.458 313,368.946 313,371.5 313,373.06 310.193,371 310,371 L304,373.5 C301.311,378.879 302.401,390.95 308.5,394 L314,392 C317.367,392 321.273,390.954 323,387.5 L322,380.5 C322.662,379.176 323.897,376.294 323,374.5 L320,371.5 C320,368.878 329.54,358 315,358  Z"/>

<path  fill="#FA8072" stroke-width="0" stroke="#FA8072" d = " M174 359 L171,362.5 L171,367.5 C170.981,367.538 164.418,369.664 163,372.5 162.511,373.478 165.865,378.818 163.5,380 158.37,382.565 155.562,380.377 152,387.5 150.455,390.591 155.966,399.767 159.5,398 162.007,396.747 163.471,399.015 165.5,398 167.643,396.928 170.031,394 172.5,394 175.54,394 176.664,396.918 180.5,395 L181.5,393 C183.758,391.871 183.503,394.501 184.5,395 L187.5,393 L191.5,393 C194.86,391.32 194.86,386.68 191.5,385 L187,384.5 L188,376.5 L183,371.5 C181.684,368.869 189.511,359 174,359  Z"/>

<path  fill="#FA8072" stroke-width="0" stroke="#FA8072" d = " M327 383 C327,384.791 323.73,385.959 325,388.5 327.037,392.574 336.988,391.524 339,387.5 339.975,385.551 335.325,382.087 333.5,383 330.748,384.376 330.067,383 327,383  Z"/>

</g>
</svg>
