<svg xmlns="http://www.w3.org/2000/svg" xmlns:xlink="http://www.w3.org/1999/xlink" height="512" width="512">
<g>
<rect width="512" height="512" fill="#000000"  stroke-width="0" /> 
<path  fill="#FA8072" stroke-width="0" stroke="#FA8072" d = " M158 350 L153,355.5 C150.532,360.437 154.462,363.577 152,368.5 150.765,370.97 153.128,382.686 150.5,384 144.971,386.765 134.993,381.514 132,387.5 130.969,389.563 141.668,409.084 143.5,410 147.626,412.063 148,403.25 150.5,402 152.831,400.834 156.951,405.599 159,401.5 161.845,395.81 156.647,374.206 159,369.5 159.288,368.924 167.925,367.65 170,363.5 174.281,354.939 165.647,350 158,350  Z"/>

<path  fill="#FA8072" stroke-width="0" stroke="#FA8072" d = " M328 350 L328,390.5 L336,394.5 C337.353,397.207 334.787,401.143 338.5,403 355.99,411.745 349.674,394.153 351,391.5 352.325,388.851 352.354,385.208 351,382.5 349.046,378.592 341.359,381.217 341,380.5 L340,371.5 C339.3,370.1 337.002,368.503 336,366.5 333.845,362.191 336.226,350 328,350  Z"/>

</g>
</svg>
