<svg xmlns="http://www.w3.org/2000/svg" xmlns:xlink="http://www.w3.org/1999/xlink" height="512" width="512">
<g>
<rect width="512" height="512" fill="#000000"  stroke-width="0" /> 
<path  fill="#FA8072" stroke-width="0" stroke="#FA8072" d = " M161 347 C161,348.951 158.546,347.477 157.5,348 154.551,349.475 153.191,353.118 152,355.5 150.798,357.905 154.385,379.729 153,382.5 151.211,386.078 146.219,383.64 143.5,385 139.721,386.89 137.679,390.143 136,393.5 135.28,394.941 134.36,397.93 136.5,399 L140.5,396 C141.11,395.695 146.951,396 148,396 151.108,396 150.75,401.125 152.5,402 156.754,404.127 167.25,403 170,397.5 171.291,394.918 171.187,366.875 170,364.5 L171,355.5 C169.046,351.592 166.011,347 161,347  Z"/>

<path  fill="#FA8072" stroke-width="0" stroke="#FA8072" d = " M328 349 L327,387.5 C325.221,391.057 318.833,388.166 321,392.5 L327,397.5 L327.5,403 C329.207,403 326.034,394.767 330.5,397 333.046,398.273 335.999,405.751 339.5,404 L340,396.5 C340.946,394.608 344.687,398.906 346.5,398 350.766,395.867 353.239,391.978 351,387.5 347.694,380.888 343.429,387.464 340.5,386 L340,380.5 C338.411,377.321 337.943,374.386 336,370.5 L336,354.5 C335.395,353.29 329.549,349 328,349  Z"/>

</g>
</svg>
