<svg xmlns="http://www.w3.org/2000/svg" xmlns:xlink="http://www.w3.org/1999/xlink" height="512" width="512">
<g>
<rect width="512" height="512" fill="#000000"  stroke-width="0" /> 
<path  fill="#03C12D" stroke-width="0" stroke="#03C12D" d = " M134 347 C131.998,347 123.434,350.967 119.5,349 92.5717,335.536 81.8673,326.235 68,298.5 65.0797,292.659 70.0189,283.538 68,279.5 L63,275.5 C60.7041,270.908 58.3275,266.155 56,261.5 L56,256.5 C52.4132,249.326 49.3558,228.788 53,221.5 L52,215.5 L55,209.5 L53,207.5 L54,192.5 L59,185.5 L60,177.5 C63.755,169.99 64.2669,160.966 68,153.5 72.6163,144.267 78.1873,137.125 83,127.5 L92.5,120 L95.5,116 L100.5,116 L103.5,112 C107.688,109.906 112.217,108.141 116.5,106 L119.5,107 C131.013,101.243 142.932,97.7842 154.5,92 159.274,89.6132 174.429,89.5354 177.5,88 182.348,85.576 203.231,80.8654 209.5,84 L210.5,86 C212.376,86.9381 225.146,87.3232 230.5,90 L240.5,98 L252.5,86 C256.452,84.0242 285.798,79.6492 290.5,82 297.086,85.2931 309.803,81.6516 316.5,85 324.229,88.8645 333.662,88.0808 341.5,92 L348.5,92 L357.5,99 C365.418,102.959 374.542,105.021 382.5,109 386.096,110.798 388.799,114.15 392.5,116 397.067,118.284 408.748,125.996 411,130.5 415.118,138.736 420.864,146.228 425,154.5 L425,162.5 L430,171.5 L430,178.5 C432.183,182.865 433.845,187.191 436,191.5 L435,195.5 L438,201.5 L435,203.5 L437,204.5 C439.175,208.851 438,215.207 438,219.5 L438,238.5 L436,244 L436,259.5 C434.689,262.121 434.276,264.948 433,267.5 431.686,270.128 427.718,269.065 427,270.5 425.568,273.365 428.046,276.408 427,278.5 424.147,284.207 420.919,289.662 418,295.5 416.412,298.676 417.549,303.402 416,306.5 413.57,311.36 400.794,332.853 396.5,335 389.93,338.285 382.977,341.762 376.5,345 L370.5,351 C366.006,353.247 362.935,348 360,348 360,348 369,328.5 369,328.5 369,328.5 375,310.5 375,310.5 377.554,305.391 368,307.468 368,303.5 368,302.621 372.388,296.725 373,295.5 373,295.5 371,289 371,289 371,289 371,287 371,287 371,287 376,279.5 376,279.5 380.056,271.388 389,262.545 389,253 393.863,253 392,238.285 392,235 392,225.874 389.884,219.268 386,211.5 384.179,207.858 385.864,202.228 384,198.5 381.914,194.328 377,189.845 377,185 377,183.762 376.577,182 375,182 375,182 373.5,179 373.5,179 369.487,176.993 359.094,169.688 357,165.5 357,165.5 355.5,161 355.5,161 355.5,161 351.5,161 351.5,161 351.5,161 345.5,156 345.5,156 345.5,156 340.5,155 340.5,155 340.5,155 338.5,152 338.5,152 330.492,147.996 321.504,146.002 313.5,142 313.5,142 292.5,138 292.5,138 283.986,133.743 276.237,132 267,132 267,128.064 257.813,126.156 255.5,125 244.124,119.312 234.401,121.55 223.5,127 221.005,128.248 214,129.753 214,133 214,133 206.5,132 206.5,132 206.5,132 202.5,136 202.5,136 199.261,137.62 195.774,138.363 192.5,140 192.5,140 181.5,141 181.5,141 177.119,143.191 171.694,142.903 167.5,145 161.159,148.171 154.776,150.862 148.5,154 142.148,157.176 136.74,161.88 130.5,165 130.5,165 122,173 122,173 122,173 121,174 121,174 118.285,174 118,175.657 118,178 118,182.333 111.957,190.586 110,194.5 110,194.5 107,196.5 107,196.5 107,196.5 108,200.5 108,200.5 103.668,209.164 98,219.751 98,230 94.1834,230 94.4554,251 98,251 98,251 98,252 98,252 98,252 100,255 100,255 100,260.492 106,266.711 106,272 106,274.427 109.582,283 113,283 113,283 110,287.5 110,287.5 110,287.5 114,297.5 114,297.5 115.35,300.2 111.084,308.667 113,312.5 116.907,320.314 122.101,327.702 126,335.5 128.076,339.652 134,341.985 134,347  Z"/>

<path  fill="#1D68EB" stroke-width="0" stroke="#1D68EB" d = " M238 155 C238,144.496 249,147.648 249,155 257.162,155 267,139.339 267,132 267,128.064 257.813,126.156 255.5,125 244.124,119.312 234.401,121.55 223.5,127 221.005,128.248 214,129.753 214,133 214,139.442 223.718,152.109 229.5,155 229.5,155 238,155 238,155  Z"/>

<path  fill="#FF6E00" stroke-width="0" stroke="#FF6E00" d = " M98 252 L100,253 C100,249.526 100.595,248.309 102,245.5 102.552,244.395 100.382,232.736 102,229.5 104.3,224.899 105.673,220.154 108,215.5 108,215.5 108,210.5 108,210.5 114.997,196.506 124.315,179.093 140.5,171 147.456,167.522 158.776,171 166,171 166,162.756 185.167,159 192,159 194.379,159 203,155.831 203,161 211.34,161 217.268,169 226,169 226,169 227,169 227,169 227,169 243.5,170 243.5,170 248.071,167.714 256.747,166 262,166 262,166 269,165 269,165 269,165 271,163 271,163 271,160.366 277.993,158 280,158 280,156.357 283.765,157 285,157 285,157 290,157 290,157 292.194,157 294.269,155 295.5,155 297.543,155 310.549,158.024 312.5,159 312.5,159 316.5,164 316.5,164 317.658,164.579 320,163.659 320,166 320,166 328,166 328,166 342.49,166 363.711,176.923 370,189.5 372.477,194.455 378,197.007 378,203 378,203 379,204 379,204 379,207.512 382.401,214.302 384,217.5 384.523,218.546 383.049,221 385,221 385,218.592 386,221.987 386,223 386,226.952 388.326,230.152 390,233.5 390,233.5 389,238 389,238 389,243.141 389,249.033 389,253 393.863,253 392,238.285 392,235 392,225.874 389.884,219.268 386,211.5 384.179,207.858 385.864,202.228 384,198.5 381.914,194.328 377,189.845 377,185 375.423,185 375,183.238 375,182 375,182 373.5,179 373.5,179 369.487,176.993 359.094,169.688 357,165.5 357,165.5 355.5,161 355.5,161 355.5,161 351.5,161 351.5,161 351.5,161 345.5,156 345.5,156 345.5,156 340.5,155 340.5,155 340.5,155 338.5,152 338.5,152 330.492,147.996 321.504,146.002 313.5,142 313.5,142 292.5,138 292.5,138 283.986,133.743 276.237,132 267,132 267,139.339 257.162,155 249,155 247.28,155 238,157.256 238,155 238,155 229.5,155 229.5,155 223.718,152.109 214,139.442 214,133 214,133 206.5,132 206.5,132 206.5,132 202.5,136 202.5,136 199.261,137.62 195.774,138.363 192.5,140 192.5,140 181.5,141 181.5,141 177.119,143.191 171.694,142.903 167.5,145 161.159,148.171 154.776,150.862 148.5,154 142.148,157.176 136.74,161.88 130.5,165 130.5,165 122,173 122,173 122,173 121,174 121,174 121,174 118,178 118,178 118,182.333 111.957,190.586 110,194.5 110,194.5 107,196.5 107,196.5 107,196.5 108,200.5 108,200.5 103.668,209.164 98,219.751 98,230 98,230 98,251 98,251 98,251 98,252 98,252  Z"/>

<path  fill="#03C12D" stroke-width="0" stroke="#03C12D" d = " M238 155 C238,157.256 247.28,155 249,155 249,147.648 238,144.496 238,155  Z"/>

<path  fill="#022CFF" stroke-width="0" stroke="#022CFF" d = " M321 190 L317,194 C315.323,194 316.534,189.568 316,188.5 316,188.5 313,186.5 313,186.5 310.224,180.947 314.195,176.891 312,172.5 311.672,171.844 296.366,159.433 295.5,159 293.284,157.892 290,160.813 290,157 292.194,157 294.269,155 295.5,155 297.543,155 310.549,158.024 312.5,159 312.5,159 316.5,164 316.5,164 317.658,164.579 320,163.659 320,166 320,166 321,170 321,170 321,172.731 314.909,190 321,190  Z"/>

<path  fill="#00FF1D" stroke-width="0" stroke="#00FF1D" d = " M187 205 L185,206 C185,206 173,200 173,200 173,200 172,196 172,196 172,196 172,194 172,194 172,194 174,192 174,192 174,186.472 180.28,170.61 185.5,168 188.919,166.291 193.124,165.688 196.5,164 199.53,162.485 199.234,161 203,161 211.34,161 217.268,169 226,169 226,169 227,170 227,170 227,170 230.5,173 230.5,173 230.5,173 250.5,174 250.5,174 253.256,172.622 257.861,170 261,170 262.696,170 272,168.612 272,167 275.407,167 283.373,163 277,163 277,160.636 280,159.947 280,158 281.235,158 285,158.643 285,157 285,157 290,157 290,157 290,160.813 293.284,157.892 295.5,159 296.366,159.433 311.672,171.844 312,172.5 314.195,176.891 310.224,180.947 313,186.5 313,186.5 316,188.5 316,188.5 316.534,189.568 315.323,194 317,194 317,194 317,195 317,195 312.133,195 309.616,202 304,202 302.55,202 293.352,194 292,194 292,177.604 267.65,186 258,186 258,174.353 231,173.914 231,187 231,188.263 225.64,188.57 224.5,188 218.1,184.8 198,188.066 198,196 196.513,196 190.114,200.193 188.5,201 188.5,201 186,203.5 186,203.5 186,203.5 187,205 187,205  Z"/>

<path  fill="#022CFF" stroke-width="0" stroke="#022CFF" d = " M170 190 L174,192 C174,186.472 180.28,170.61 185.5,168 188.919,166.291 193.124,165.688 196.5,164 199.53,162.485 199.234,161 203,161 203,155.831 194.379,159 192,159 185.167,159 166,162.756 166,171 166,171 170,173 170,173 171.186,173 171.186,174 170,174 170,178.907 170,185.108 170,190  Z"/>

<path  fill="#0E47E2" stroke-width="0" stroke="#0E47E2" d = " M269 165 C271.003,165 272,164.707 272,167 275.407,167 283.373,163 277,163 277,163 271,163 271,163 271,163 269,165 269,165  Z"/>

<path  fill="#FF0800" stroke-width="0" stroke="#FF0800" d = " M227 170 L230.5,173 L250.5,174 C253.256,172.622 257.861,170 261,170 261,170 262,166 262,166 256.747,166 248.071,167.714 243.5,170 243.5,170 227,169 227,169 227,169 227,170 227,170  Z"/>

<path  fill-rule="evenodd" fill="#814FFF" stroke-width="0" stroke="#814FFF" d = " M344 192 L343,195.5 C343.792,197.083 353.836,192 344,192  M334 189 C334,191.606 334.95,191.4 336,193.5 L335,197.5 C337.843,203.186 341.539,189 334,189  M371 287 L370,288 C370,288 363.5,291 363.5,291 355.16,295.17 350.234,282.969 348,278.5 348,278.5 349,270 349,270 349,265.414 353.937,257.626 356,253.5 356,253.5 356,247.5 356,247.5 360.177,239.146 355.087,221.293 346.5,217 346.5,217 338.5,215 338.5,215 338.5,215 336,213 336,213 336,210.591 334.723,211.945 334,210.5 332.986,208.472 335,205.888 335,204.5 335,201.604 331,198.031 331,195.5 331,192.739 333.264,194.028 331,189.5 328.803,185.107 322,184.072 322,190 322,190 321,190 321,190 314.909,190 321,172.731 321,170 323.967,170 328,169.254 328,166 342.49,166 363.711,176.923 370,189.5 372.477,194.455 378,197.007 378,203 378,203 379,204 379,204 379,207.512 382.401,214.302 384,217.5 384.523,218.546 383.049,221 385,221 385,221 386,223 386,223 386,226.952 388.326,230.152 390,233.5 390,233.5 389,238 389,238 389,243.141 389,249.033 389,253 389,262.545 380.056,271.388 376,279.5 376,279.5 371,287 371,287  Z"/>

<path  fill="#814FFF" stroke-width="0" stroke="#814FFF" d = " M106 272 C106.829,272 114,281.44 114,283 116.497,283 120.251,285.875 122.5,287 129.905,290.702 140,276.812 140,271.5 140,271.5 138,268 138,268 138,263.504 134.917,258.333 133,254.5 132.036,252.573 133.272,248.955 134,247.5 135.009,245.483 132.65,242.201 134,239.5 136.852,233.796 140.122,230.257 143,224.5 145.38,219.739 147.131,213 154,213 154,208.92 151.425,210.35 150,207.5 146.924,201.347 154.038,200.576 152,196.5 152,196.5 149.5,196 149.5,196 149.5,196 147,190.5 147,190.5 145.465,187.429 153.932,184.216 155.5,185 155.5,185 157.5,189 157.5,189 159.929,189 158.362,179.431 161.5,181 167.195,183.847 158.789,196 165,196 168.125,196 170,192.8 170,190 170,185.108 170,178.907 170,174 170,174 170,173 170,173 170,173 166,171 166,171 158.776,171 147.456,167.522 140.5,171 124.315,179.093 114.997,196.506 108,210.5 108,210.5 108,215.5 108,215.5 105.673,220.154 104.3,224.899 102,229.5 100.382,232.736 102.552,244.395 102,245.5 100.595,248.309 100,249.526 100,253 100,253 100,255 100,255 100,260.492 106,266.711 106,272  Z"/>

<path  fill="#AE00E8" stroke-width="0" stroke="#AE00E8" d = " M258 186 C258,190.024 239.003,191.752 235.5,190 L231,187 C231,173.914 258,174.353 258,186  Z"/>

<path  fill="#FF3427" stroke-width="0" stroke="#FF3427" d = " M191 258 L185.5,267 C180.883,269.308 171.969,264 170,264 170,264 167,259.5 167,259.5 164.808,255.116 166.79,249.081 165,245.5 165,245.5 166,238.5 166,238.5 166,238.5 161,235.5 161,235.5 159.724,232.948 159.052,229.604 158,227.5 158,227.5 155,225.5 155,225.5 155,225.5 158,222.5 158,222.5 159.643,219.214 153.918,220.664 155,218.5 156.141,216.219 159.235,218.03 160,216.5 161.058,214.383 155.11,213 154,213 154,208.92 151.425,210.35 150,207.5 146.924,201.347 154.038,200.576 152,196.5 152,196.5 149.5,196 149.5,196 149.5,196 147,190.5 147,190.5 145.465,187.429 153.932,184.216 155.5,185 155.5,185 157.5,189 157.5,189 159.929,189 158.362,179.431 161.5,181 167.195,183.847 158.789,196 165,196 165,197.345 166.571,203 168,203 168,206.904 182,212.74 182,216 182,216 182,217 182,217 182,217 178.5,218 178.5,218 177.217,217.358 176.405,215.047 174.5,216 171.813,217.344 174.052,226.604 175,228.5 175,228.5 181,234.5 181,234.5 181,234.5 181,238.5 181,238.5 181,238.5 185,241.5 185,241.5 185,247.829 191,253.93 191,258  Z"/>

<path  fill="#022CFF" stroke-width="0" stroke="#022CFF" d = " M236 206 L237,207 C237,207 245.5,209 245.5,209 245.5,209 252,204 252,204 256.8,204 263.634,203 270,203 270,192.965 284.883,194 292,194 292,177.604 267.65,186 258,186 258,190.024 239.003,191.752 235.5,190 235.5,190 231,187 231,187 231,188.263 225.64,188.57 224.5,188 218.1,184.8 198,188.066 198,196 198,199.96 214,194.562 214,205 214,205 216,205 216,205 220.662,205 225.235,202.867 229.5,205 230.647,205.574 234,203.936 234,206 234,206 236,206 236,206  Z"/>

<path  fill="#FF3427" stroke-width="0" stroke="#FF3427" d = " M321 255 C315.051,255 309.502,264.499 308.5,265 303.453,267.524 295,263.255 295,258 295,258 301,250.5 301,250.5 302.542,247.417 305.392,244.716 307,241.5 307,241.5 307,237.5 307,237.5 309.452,232.595 314.621,229.259 317,224.5 317.748,223.005 316.523,221.547 316,220.5 315.454,219.408 319.052,212.276 316.5,211 315.332,210.416 307,214.276 307,212 308.009,212 320,201.641 320,199 321.399,199 321.399,197 320,197 320,197 319,196 319,196 319,196 322,190 322,190 322,184.072 328.803,185.107 331,189.5 333.264,194.028 331,192.739 331,195.5 331,198.031 335,201.604 335,204.5 335,205.888 332.986,208.472 334,210.5 334.723,211.945 336,210.591 336,213 333.836,213 329.403,214.306 331,217.5 332.174,219.849 333.878,213.256 336,217.5 336.911,219.321 329.9,218.7 329,220.5 326.921,224.658 332.241,232.019 331,234.5 331,234.5 327,237 327,237 325.601,237 325.601,239 327,239 327,241.151 326.026,248.448 325,250.5 324.405,251.69 321,252.817 321,255  Z"/>

<path  fill="#FF3427" stroke-width="0" stroke="#FF3427" d = " M334 189 C334,191.606 334.95,191.4 336,193.5 L335,197.5 C337.843,203.186 341.539,189 334,189  Z"/>

<path  fill="#FF3427" stroke-width="0" stroke="#FF3427" d = " M344 192 L343,195.5 C343.792,197.083 353.836,192 344,192  Z"/>

<path  fill="#022CFF" stroke-width="0" stroke="#022CFF" d = " M172 194 C169.512,194 170.081,196 172,196 172,196 172,194 172,194  Z"/>

<path  fill="#006400" stroke-width="0" stroke="#006400" d = " M263 276 L265,276 C265,272.714 266.491,270 270,270 272.255,270 272.745,270 275,270 275,270 281,268 281,268 281,268 282,266 282,266 275.664,266 281.538,260.577 283,263.5 283,263.5 282,266 282,266 282,266 286,266 286,266 286,262.574 290.441,262.029 292.5,261 292.5,261 295,258 295,258 295,258 301,250.5 301,250.5 302.542,247.417 305.392,244.716 307,241.5 307,241.5 307,237.5 307,237.5 309.452,232.595 314.621,229.259 317,224.5 317.748,223.005 316.523,221.547 316,220.5 315.454,219.408 319.052,212.276 316.5,211 315.332,210.416 307,214.276 307,212 307,212 303.5,214 303.5,214 300.233,215.633 299,209.5 300,207.5 300,207.5 304,202 304,202 302.55,202 293.352,194 292,194 284.883,194 270,192.965 270,203 270,206.489 266.819,217.66 263.5,216 263.5,216 259.5,211 259.5,211 255.464,208.982 252,209.597 252,204 252,204 245.5,209 245.5,209 245.5,209 237,207 237,207 237,207 236,206 236,206 236,206 234,206 234,206 234,208.538 225.393,215.054 223.5,216 223.5,216 220.5,219 220.5,219 215.86,219 215,208.862 215,206 215,206 214,205 214,205 214,194.562 198,199.96 198,196 196.513,196 190.114,200.193 188.5,201 188.5,201 186,203.5 186,203.5 186,203.5 187,205 187,205 187,205 188,209 188,209 190.916,209 194.313,217.593 191.5,219 191.5,219 187,218 187,218 187,220.029 182,217.818 182,217 182,217 178.5,218 178.5,218 177.217,217.358 176.405,215.047 174.5,216 171.813,217.344 174.052,226.604 175,228.5 175,228.5 181,234.5 181,234.5 181,234.5 181,238.5 181,238.5 181,238.5 185,241.5 185,241.5 185,247.829 191,253.93 191,258 193.495,258 200,263.082 200,265 203.763,265 206,262.021 206,268 206,268 212,273 212,273 212,273 216,274 216,274 216,268.006 223.964,275 224,275 224,275 228,275 228,275 233.193,275 236.091,275 241,275 241,264.939 245,263.933 245,275 248.474,275 249.691,275.595 252.5,277 253.755,277.627 260.723,276 263,276  Z"/>

<path  fill="#EE7533" stroke-width="0" stroke="#EE7533" d = " M304 202 L300,207.5 C299,209.5 300.233,215.633 303.5,214 L307,212 C308.009,212 320,201.641 320,199 320,199 320,197 320,197 320,197 319,196 319,196 319,196 317,195 317,195 312.133,195 309.616,202 304,202  Z"/>

<path  fill="#EE7533" stroke-width="0" stroke="#EE7533" d = " M182 216 C183.424,216 187,216.362 187,218 187,218 191.5,219 191.5,219 194.313,217.593 190.916,209 188,209 188,209 185,206 185,206 185,206 173,200 173,200 167.982,200 169.28,203 168,203 168,206.904 182,212.74 182,216  Z"/>

<path  fill="#FFFC00" stroke-width="0" stroke="#FFFC00" d = " M270 203 C263.634,203 256.8,204 252,204 252,209.597 255.464,208.982 259.5,211 259.5,211 263.5,216 263.5,216 266.819,217.66 270,206.489 270,203  Z"/>

<path  fill="#FFFC00" stroke-width="0" stroke="#FFFC00" d = " M215 206 C215,208.862 215.86,219 220.5,219 L223.5,216 C225.393,215.054 234,208.538 234,206 234,203.936 230.647,205.574 229.5,205 225.235,202.867 220.662,205 216,205 216,205 215,206 215,206  Z"/>

<path  fill="#FF91BA" stroke-width="0" stroke="#FF91BA" d = " M170 264 C170,271.862 162.798,274 157.5,274 153.9,274 152.907,278.203 148.5,276 145.124,274.312 141.894,268 138,268 138,263.504 134.917,258.333 133,254.5 132.036,252.573 133.272,248.955 134,247.5 135.009,245.483 132.65,242.201 134,239.5 136.852,233.796 140.122,230.257 143,224.5 145.38,219.739 147.131,213 154,213 155.11,213 161.058,214.383 160,216.5 159.235,218.03 156.141,216.219 155,218.5 153.918,220.664 159.643,219.214 158,222.5 158,222.5 155,225.5 155,225.5 155,225.5 158,227.5 158,227.5 159.052,229.604 159.724,232.948 161,235.5 161,235.5 166,238.5 166,238.5 166,238.5 165,245.5 165,245.5 166.79,249.081 164.808,255.116 167,259.5 167,259.5 170,264 170,264  Z"/>

<path  fill="#FF91BA" stroke-width="0" stroke="#FF91BA" d = " M321 255 L323,259.5 L323,266.5 C324.91,270.321 336.431,277.034 340.5,275 342.086,274.207 347.594,270 349,270 349,265.414 353.937,257.626 356,253.5 356,253.5 356,247.5 356,247.5 360.177,239.146 355.087,221.293 346.5,217 346.5,217 338.5,215 338.5,215 338.5,215 336,213 336,213 333.836,213 329.403,214.306 331,217.5 332.174,219.849 333.878,213.256 336,217.5 336.911,219.321 329.9,218.7 329,220.5 326.921,224.658 332.241,232.019 331,234.5 331,234.5 327,237 327,237 327,237 327,239 327,239 327,241.151 326.026,248.448 325,250.5 324.405,251.69 321,252.817 321,255  Z"/>

<path  fill="#E1F00D" stroke-width="0" stroke="#E1F00D" d = " M315 345 C318.287,345 323.957,344.228 327.5,346 330.026,347.263 331.602,350.551 334.5,352 337.753,353.627 340.301,348 342.5,348 345.965,348 352.01,352.245 356.5,350 L360,348 C360,348 369,328.5 369,328.5 369,328.5 375,310.5 375,310.5 377.554,305.391 368,307.468 368,303.5 368,302.621 372.388,296.725 373,295.5 373,295.5 371,289 371,289 371,289 370,288 370,288 370,288 363.5,291 363.5,291 355.16,295.17 350.234,282.969 348,278.5 348,278.5 349,270 349,270 347.594,270 342.086,274.207 340.5,275 336.431,277.034 324.91,270.321 323,266.5 323,266.5 323,259.5 323,259.5 323,259.5 321,255 321,255 315.051,255 309.502,264.499 308.5,265 303.453,267.524 295,263.255 295,258 295,258 292.5,261 292.5,261 290.441,262.029 286,262.574 286,266 286,270.538 304.085,286.33 302,290.5 300.229,294.042 294.038,289.576 293,287.5 289.904,281.307 281,275.807 281,268 281,268 275,270 275,270 275,270 278,276.5 278,276.5 278.428,277.355 277,281.188 277,282 277,282 278,283 278,283 278,286.01 280.749,287.998 282,290.5 282.773,292.046 280,295.681 280,298 280,298 279,300 279,300 279,300 277,307.5 277,307.5 277,307.5 279,310.5 279,310.5 279,310.5 275,316.5 275,316.5 275,316.5 277,322 277,322 277,322 278,323 278,323 278,323 285.5,322 285.5,322 285.5,322 289,324 289,324 289,319.554 298.023,326.261 299.5,327 302.946,328.723 307.219,329.938 309,333.5 309,333.5 309,338.5 309,338.5 309,338.5 312,344 312,344 313.048,344 315,343.527 315,345  Z"/>

<path  fill-rule="evenodd" fill="#E1F00D" stroke-width="0" stroke="#E1F00D" d = " M194 275 C194,275.239 185.858,288.783 185,290.5 184.443,291.614 181.73,296 185.5,296 186.749,296 204.683,275 194,275  M200 327 C182.615,327 175.613,342.944 161.5,350 157.774,351.863 143.114,354.307 138.5,352 L134,347 C134,341.985 128.076,339.652 126,335.5 122.101,327.702 116.907,320.314 113,312.5 111.084,308.667 115.35,300.2 114,297.5 114,297.5 110,287.5 110,287.5 110,287.5 113,283 113,283 113,283 114,283 114,283 116.497,283 120.251,285.875 122.5,287 129.905,290.702 140,276.812 140,271.5 140,271.5 138,268 138,268 141.894,268 145.124,274.312 148.5,276 152.907,278.203 153.9,274 157.5,274 162.798,274 170,271.862 170,264 171.969,264 180.883,269.308 185.5,267 185.5,267 191,258 191,258 193.495,258 200,263.082 200,265 200,267.029 198.809,266.881 198,268.5 197.441,269.618 200.683,271.409 201.5,271 201.5,271 206,268 206,268 206,268 212,273 212,273 212,273 210,275.5 210,275.5 207.826,279.848 210.165,279.831 212,283.5 212,283.5 214,286 214,286 214,287.516 207.666,292.833 210,297.5 213.453,304.406 210.697,315.895 212,318.5 212,318.5 214,321 214,321 214,321 210,324 210,324 205.785,324 203.398,327 200,327  Z"/>

<path  fill="#FFFC00" stroke-width="0" stroke="#FFFC00" d = " M282 266 L283,263.5 C281.538,260.577 275.664,266 282,266  Z"/>

<path  fill="#FFFC00" stroke-width="0" stroke="#FFFC00" d = " M200 265 C203.763,265 206,262.021 206,268 206,268 201.5,271 201.5,271 200.683,271.409 197.441,269.618 198,268.5 198.809,266.881 200,267.029 200,265  Z"/>

<path  fill="#022CFF" stroke-width="0" stroke="#022CFF" d = " M241 275 C242.781,275 242,285.176 242,287 L242,326.5 C245.707,333.913 245,314.498 245,310.5 L245,275 C245,263.933 241,264.939 241,275  Z"/>

<path  fill="#DE07ED" stroke-width="0" stroke="#DE07ED" d = " M286 266 C286,270.538 304.085,286.33 302,290.5 300.229,294.042 294.038,289.576 293,287.5 289.904,281.307 281,275.807 281,268 281,268 282,266 282,266 282,266 286,266 286,266  Z"/>

<path  fill="#0008B6" stroke-width="0" stroke="#0008B6" d = " M277 282 L275,284 C269.632,284 263,283.653 263,276 263,276 265,276 265,276 265,278.353 272,282.157 272,278.5 272,276.015 270,272.607 270,270 272.255,270 272.745,270 275,270 275,270 278,276.5 278,276.5 278.428,277.355 277,281.188 277,282  Z"/>

<path  fill="#15C0FF" stroke-width="0" stroke="#15C0FF" d = " M270 270 C266.491,270 265,272.714 265,276 265,278.353 272,282.157 272,278.5 272,276.015 270,272.607 270,270  Z"/>

<path  fill="#15C0FF" stroke-width="0" stroke="#15C0FF" d = " M216 274 C216,284.924 224,277.491 224,275 223.964,275 216,268.006 216,274  Z"/>

<path  fill="#0008B6" stroke-width="0" stroke="#0008B6" d = " M228 275 C228,280.811 219.357,286 214,286 214,286 212,283.5 212,283.5 210.165,279.831 207.826,279.848 210,275.5 210,275.5 212,273 212,273 212,273 216,274 216,274 216,284.924 224,277.491 224,275 224,275 228,275 228,275  Z"/>

<path  fill="#E278A1" stroke-width="0" stroke="#E278A1" d = " M214 321 C214,324.095 221.359,326.929 223.5,328 L226.5,331 L245.5,333 C246.725,332.388 252.621,328 253.5,328 255.956,328 261.477,329.511 264.5,328 268.253,326.124 273.26,322 277,322 277,322 275,316.5 275,316.5 275,316.5 279,310.5 279,310.5 279,310.5 277,307.5 277,307.5 277,307.5 279,300 279,300 276.908,300 278.348,298 280,298 280,295.681 282.773,292.046 282,290.5 280.749,287.998 278,286.01 278,283 278,283 275,284 275,284 269.632,284 263,283.653 263,276 260.723,276 253.755,277.627 252.5,277 249.691,275.595 248.474,275 245,275 245,275 245,310.5 245,310.5 245,314.498 245.707,333.913 242,326.5 242,326.5 242,287 242,287 242,285.176 242.781,275 241,275 236.091,275 233.193,275 228,275 228,280.811 219.357,286 214,286 214,287.516 207.666,292.833 210,297.5 213.453,304.406 210.697,315.895 212,318.5 212,318.5 214,321 214,321  Z"/>

<path  fill="#DE07ED" stroke-width="0" stroke="#DE07ED" d = " M194 275 C194,275.239 185.858,288.783 185,290.5 184.443,291.614 181.73,296 185.5,296 186.749,296 204.683,275 194,275  Z"/>

<path  fill="#267EFF" stroke-width="0" stroke="#267EFF" d = " M246 335 C246,336.763 254.343,336 256,336 258.592,336 259.416,336.958 261.5,338 265.359,339.929 286.961,335.579 288,333.5 289.97,329.56 289,327.787 289,324 289,324 285.5,322 285.5,322 285.5,322 278,323 278,323 278,323 270.5,327 270.5,327 262.987,330.756 254.965,335 246,335  Z"/>

<path  fill="#267EFF" stroke-width="0" stroke="#267EFF" d = " M232 334 C232,336.867 230.838,336 227,336 220.272,336 203.618,340.736 199,331.5 199,331.5 200,327 200,327 203.398,327 205.785,324 210,324 210,324.889 227.813,334 232,334  Z"/>

<path  fill="#FAAA40" stroke-width="0" stroke="#FAAA40" d = " M227 336 C227,337.343 229.205,338.647 230.5,338 235.329,335.585 243.812,337 249.5,337 250.863,337 256,337.7 256,336 254.343,336 246,336.763 246,335 246,333.207 233.991,334 232,334 232,336.867 230.838,336 227,336  Z"/>

<path  fill-rule="evenodd" fill="#FA8072" stroke-width="0" stroke="#FA8072" d = " M302 369 L301,372.5 C301,377.418 307.932,369 302,369  M301 358 L302,360.5 L302,364.5 C302.423,365.346 306.008,358 301,358  M312 344 C313.048,344 315,343.527 315,345 315,351.95 335.113,359.273 329,371.5 327.531,374.437 323.008,375.484 322,377.5 322,377.5 322,382.5 322,382.5 322,382.5 316.5,387 316.5,387 316.5,387 309.5,386 309.5,386 309.5,386 303.5,388 303.5,388 303.5,388 300.5,385 300.5,385 297.825,383.663 296.52,389.01 294.5,388 290.189,385.844 290.67,379.84 289,376.5 289,376.5 282,373.5 282,373.5 280.506,370.511 280.271,355.958 282,352.5 282.894,350.712 295.219,347.141 297.5,346 299.883,344.808 309.025,344 312,344  Z"/>

<path  fill-rule="evenodd" fill="#FA8072" stroke-width="0" stroke="#FA8072" d = " M194 370 C194,374.123 198.123,370 194,370  M181 347 C181,348.32 174.136,348.229 173,350.5 171.717,353.066 169.473,352.554 168,355.5 L167.5,360 L166.5,358 C163.538,358 160.218,362.064 159,364.5 155.683,371.133 168.757,372.014 169,372.5 L168,378.5 C169.138,380.775 174.643,388.071 176.5,389 L182.5,387 C186.337,388.918 187.128,396.686 192.5,394 197.54,391.48 192.355,384.572 193.5,384 199.108,381.196 205.801,385.898 209,379.5 212.635,372.229 203.77,369.041 203,367.5 201.964,365.428 203.317,362.409 200.5,361 L195,359.5 L195,352.5 C193.084,348.668 184.829,347 181,347  Z"/>

<path  fill="#FA8072" stroke-width="0" stroke="#FA8072" d = " M356 358 C356,359.454 350.634,359.433 349.5,360 347.017,361.241 347.962,364.269 346.5,365 346.441,365.03 333.379,365.258 338,374.5 L339.5,375 L342.5,378 L347.5,374 L350.5,375 L354.5,370 L365.5,370 C374.958,365.271 360.197,358 356,358  Z"/>

<path  fill="#FA8072" stroke-width="0" stroke="#FA8072" d = " M125 359 C125,361.099 121.442,363.383 123,366.5 124.857,370.213 129.641,368.57 132.5,370 135.752,371.626 142.373,382.063 148.5,379 152.142,377.179 155.38,371.44 150.5,369 L148,368.5 L142.5,362 C139.57,360.535 135.01,363.755 131.5,362 128.81,360.655 128.345,359 125,359  Z"/>

<path  fill="#FA8072" stroke-width="0" stroke="#FA8072" d = " M348 391 C348,392.991 343.716,393.931 345,396.5 350.695,407.89 362.001,391 348,391  Z"/>

<path  fill="#FA8072" stroke-width="0" stroke="#FA8072" d = " M356 391 L356.5,402 L357,397.5 L361,395.5 C363.148,391.204 358.832,391 356,391  Z"/>

<path  fill="#FA8072" stroke-width="0" stroke="#FA8072" d = " M361 400 C361,401.93 362.93,400 361,400  Z"/>

<path  fill="#FA8072" stroke-width="0" stroke="#FA8072" d = " M130 407 C130,409.144 125.738,407.381 124.5,408 122.347,409.077 122.347,412.923 124.5,414 128.176,415.838 136.944,407 130,407  Z"/>

</g>
</svg>
