<svg xmlns="http://www.w3.org/2000/svg" xmlns:xlink="http://www.w3.org/1999/xlink" height="512" width="512">
<g>
<rect width="512" height="512" fill="#000000"  stroke-width="0" /> 
<path  fill-rule="evenodd" fill="#FFFF00" stroke-width="0" stroke="#FFFF00" d = " M103 186 L101,188.5 L102,190.5 C104.412,195.324 106.878,186 103,186  M180 224 C180,220.166 170.358,227.571 169.5,228 164.879,230.311 145.567,244 142,244 139.545,244 132.858,247.215 131,243.5 129.234,239.968 135.296,240.908 136,239.5 138.636,234.228 140.37,228.065 146.5,225 154.969,220.766 170.589,225.321 176,214.5 L187,200.5 C191.387,191.726 201.882,173.809 211.5,169 214.112,167.694 217.949,172.275 220.5,171 224.882,168.809 243.644,171 251.5,171 257.272,171 272.587,166.043 278.5,169 286.3,172.9 299.12,198.741 303,206.5 303.267,207.035 315.717,217.609 316.5,218 L319.5,217 L322.5,218 C325.979,216.26 330.097,213.799 334.5,216 339.379,218.44 344.706,222.912 347,227.5 L347,231.5 C348.162,233.824 355.653,234.194 353,239.5 352.066,241.368 341.111,235.805 339.5,235 333.288,231.894 325.754,231.127 319.5,228 314.912,225.706 305.258,213.879 301.5,212 L296.5,215 C293.968,213.734 293.957,208.729 290.5,207 285.072,204.286 277.476,207 271.5,207 259.411,207 223.928,205.786 215.5,210 214.26,210.62 199.636,207.432 194.5,210 191.229,211.636 192.608,220.554 195.5,222 197.758,223.129 197.503,220.499 198.5,220 199.982,219.259 208.178,219 209.5,219 217.859,219 262.02,222.24 270.5,218 273.35,216.575 283.146,217.823 285.5,219 L287.5,222 C288.238,222.369 294.547,219.405 292,224.5 290.1,228.301 267.915,226 262.5,226 259.562,226 223.494,225.503 222.5,226 220.735,226.882 202.007,229.753 200.5,229 196.842,227.171 190.164,225 186,225 186,236.904 217.232,234 224,234 224,234 228.5,236 228.5,236 228.5,236 230.5,235 230.5,235 231.389,235.445 230.939,240.281 233.5,239 233.5,239 235.5,236 235.5,236 241.474,236 244.633,236.066 250.5,239 250.867,239.184 267.27,234.615 268.5,234 271.508,232.496 280.287,236.606 281.5,236 281.5,236 283.5,233 283.5,233 285.858,231.821 292.609,231.283 294,228.5 294.699,227.103 298.572,218 300.5,218 304.845,218 307.175,225.337 310.5,227 315.84,229.67 320.118,234.309 325.5,237 330.672,239.586 336.184,241.342 341.5,244 345.06,245.78 353.036,244.732 356.5,243 356.5,243 360.5,238 360.5,238 363.423,236.538 367.608,240.946 371.5,239 371.5,239 379,232.5 379,232.5 380.002,230.495 386.473,208.446 386,207.5 385.461,206.423 379.809,205.882 381,203.5 382.272,200.956 387.363,202 388.5,202 390.58,202 389,193.579 389,193 389,190.896 384.414,193.543 383.5,194 381.828,194.836 380.338,200 375.5,200 367.776,200 358.084,197.292 351.5,194 350.46,193.48 346,195.289 346,196.5 346,201.937 363.766,211 368.5,211 371.06,211 378.131,207.762 380,211.5 381.684,214.867 375.245,219.01 374,221.5 371.147,227.207 376.913,232.293 369.5,236 362.844,239.328 363.027,221.555 362,219.5 361.605,218.71 344.278,205.889 342.5,205 339.405,203.452 336.661,200.581 333.5,199 333.5,199 316.5,193 316.5,193 310.268,189.884 304.66,179.819 302,174.5 302,174.5 295.5,169 295.5,169 290.777,166.638 288.545,160.522 283.5,158 279.951,156.225 276.025,159.737 273.5,161 273.257,161.122 261.743,161.122 261.5,161 261.5,161 259.5,159 259.5,159 259.5,159 255.5,163 255.5,163 255.5,163 251.5,160 251.5,160 251.5,160 239.5,159 239.5,159 237.125,160.187 219.611,164.055 217.5,163 215.994,162.247 222.561,162.031 218.5,160 216.649,159.074 211.093,161.203 209.5,162 209.5,162 203.5,162 203.5,162 197.496,165.002 187.165,171.171 184,177.5 179.887,185.727 173.712,199.394 164.5,204 164.5,204 151.5,210 151.5,210 149.452,210 151.347,200.077 143.5,204 143.5,204 130,211.5 130,211.5 130,211.5 129,220.5 129,220.5 127.516,223.467 119.746,233.623 116.5,232 116.5,232 111,226.5 111,226.5 109.444,223.389 103.753,219.995 106,215.5 107.479,212.543 118.021,216.739 119.5,216 121.738,214.881 126.299,208.099 125,205.5 125,205.5 120.5,205 120.5,205 120.5,205 106.5,207 106.5,207 106.5,207 104.5,211 104.5,211 104.5,211 101,208.5 101,208.5 101,208.5 101,199.5 101,199.5 101,199.5 108.5,199 108.5,199 108.5,199 122.5,189 122.5,189 124.794,187.853 128.171,188.165 130.5,187 130.5,187 135.5,183 135.5,183 139.231,181.135 154.05,185.225 160.5,182 171.912,176.294 180.471,168.557 186,157.5 187.205,155.09 182.91,150.795 180.5,152 174.209,155.145 169.216,157 161.5,157 146.906,157 131.725,174 122.5,174 118.326,174 122.745,164.878 124.5,164 127.313,162.594 129.313,156.594 132.5,155 132.5,155 149.5,146 149.5,146 151.05,145.225 154.763,137.027 154,135.5 154,135.5 149.5,131 149.5,131 149.5,131 143.5,132 143.5,132 143.5,132 123.5,134 123.5,134 123.5,134 121.5,137 121.5,137 121.5,137 118.5,137 118.5,137 117.924,137.288 108.254,144.992 110,141.5 111.484,138.532 116.09,137.205 118.5,136 124.21,133.145 131.514,121.493 140.5,117 142.456,116.022 146.044,121 148.5,121 152.169,121 154.384,115.442 157.5,117 162.509,119.504 162.055,125.609 164,129.5 168.084,137.669 174.716,139 182.5,139 184.661,139 187.698,124.895 186,121.5 186,121.5 181,117.5 181,117.5 181,117.5 180,111.5 180,111.5 181.889,107.722 184.757,110.371 187.5,109 187.5,109 204.5,94 204.5,94 212.641,89.9295 256.273,85.8866 266.5,91 273.14,94.3199 279.789,97.6446 286.5,101 289.739,102.62 300.19,100.88 302,104.5 303.957,108.414 298.438,110.624 297,113.5 297,113.5 297,118.5 297,118.5 297,118.5 300,119.5 300,119.5 302.057,123.614 297.637,128.068 303.5,131 310.368,134.434 313.666,126.917 317.5,125 317.5,125 320,124.5 320,124.5 321.812,120.877 322.137,116.226 324,112.5 324.837,110.827 330.473,112.445 331,113.5 334.441,120.383 328.546,121.409 328,122.5 328,122.5 328,136 328,136 328,136 327,139.5 327,139.5 327,139.5 329,145.5 329,145.5 324.881,153.738 301.563,142.968 297.5,145 296.217,145.641 295.167,152.833 296,154.5 296.173,154.846 305.109,161.304 306.5,162 306.5,162 318.5,173 318.5,173 326.9,177.2 338.028,172.764 348.5,178 354.599,181.049 367.299,188.902 372,179.5 375.821,171.858 372.436,164.372 369,157.5 369,157.5 362,147.5 362,147.5 363.644,144.213 371.954,152.227 373.5,153 384.389,158.444 390,174.068 390,186 392.536,186 392.982,175.464 392,173.5 392,173.5 389,171.5 389,171.5 389,171.5 389,161.5 389,161.5 387.324,158.149 386.415,155.33 385,152.5 385,152.5 380,148.5 380,148.5 380,148.5 379,142.5 379,142.5 377.656,139.813 372.228,138.956 371,136.5 371,136.5 372,133.5 372,133.5 372,133.5 368,130.5 368,130.5 366.733,127.967 364.769,123.634 361.5,122 350.952,116.726 340.016,113.258 329.5,108 326.441,106.47 321.018,109 318.5,109 318.5,109 312.5,102 312.5,102 312.5,102 303.5,99 303.5,99 303.5,99 291.5,99 291.5,99 291.5,99 286.5,94 286.5,94 277.921,89.7103 244.712,80.3941 235.5,85 234.49,85.5048 217.156,84.6722 212.5,87 206.836,89.8321 201.137,92.1817 195.5,95 195.5,95 185.5,105 185.5,105 185.5,105 173.5,105 173.5,105 170.464,106.518 167.44,107.53 164.5,109 164.5,109 162.5,113 162.5,113 160.268,114.116 157.103,112 155.5,112 155.5,112 150.5,114 150.5,114 150.5,114 138.5,114 138.5,114 135.367,115.566 132.541,117.479 129.5,119 117.718,124.891 102.347,143.805 97,154.5 95.4175,157.665 98.097,171.306 97,173.5 95.6938,176.112 94.8747,169.751 93,173.5 91.2413,177.017 98.1455,206.791 100,210.5 100,210.5 103,211.5 103,211.5 103,211.5 104,226.5 104,226.5 104,226.5 108,230.5 108,230.5 108,230.5 108.5,233 108.5,233 110.851,234.176 113.7,236.1 115.5,237 118.287,238.393 122.615,236.558 125.5,238 128.646,239.573 124.113,245.807 134.5,251 134.5,251 143.5,248 143.5,248 146.981,246.26 149.901,245.8 153.5,244 155.442,243.029 163.513,235.493 166.5,234 166.5,234 170.5,234 170.5,234 170.5,234 180,224 180,224  Z"/>

<path  fill-rule="evenodd" fill="#00FFFF" stroke-width="0" stroke="#00FFFF" d = " M266 105 C266,109.184 251.588,104.956 249.5,106 239.874,110.813 227.188,107.656 216.5,113 212.553,114.974 204.035,112.43 202,116.5 199.775,120.949 189.22,126.94 193,134.5 L195.5,138 C197.994,139.247 204.405,135.048 206.5,134 213.819,130.34 223.16,130.67 230.5,127 231.67,126.415 257.075,125 258.5,125 259.739,125 265.113,127.307 266.5,128 L273.5,127 C275.936,128.218 280.811,132 283.5,132 L288.5,129 L290.5,130 C296.353,127.073 291,121.018 291,117.5 291,116.242 291.69,111 289.5,111 286.855,111 286.667,110.584 283.5,109 L281,108.5 C281,107.828 283.338,105.919 281.5,105 278.174,103.337 268.612,105 266,105  M390 186 C390,187.147 392.472,193 389,193 389,190.896 384.414,193.543 383.5,194 381.828,194.836 380.338,200 375.5,200 367.776,200 358.084,197.292 351.5,194 350.46,193.48 346,195.289 346,196.5 346,201.937 363.766,211 368.5,211 371.06,211 378.131,207.762 380,211.5 381.684,214.867 375.245,219.01 374,221.5 371.147,227.207 376.913,232.293 369.5,236 362.844,239.328 363.027,221.555 362,219.5 361.605,218.71 344.278,205.889 342.5,205 339.405,203.452 336.661,200.581 333.5,199 333.5,199 316.5,193 316.5,193 310.268,189.884 304.66,179.819 302,174.5 302,174.5 295.5,169 295.5,169 290.777,166.638 288.545,160.522 283.5,158 279.951,156.225 276.025,159.737 273.5,161 273.257,161.122 261.743,161.122 261.5,161 261.5,161 259.5,159 259.5,159 259.5,159 255.5,163 255.5,163 255.5,163 251.5,160 251.5,160 251.5,160 239.5,159 239.5,159 237.125,160.187 219.611,164.055 217.5,163 215.994,162.247 222.561,162.031 218.5,160 216.649,159.074 211.093,161.203 209.5,162 209.5,162 203.5,162 203.5,162 197.496,165.002 187.165,171.171 184,177.5 179.887,185.727 173.712,199.394 164.5,204 164.5,204 151.5,210 151.5,210 149.452,210 151.347,200.077 143.5,204 143.5,204 130,211.5 130,211.5 130,211.5 129,220.5 129,220.5 127.516,223.467 119.746,233.623 116.5,232 116.5,232 111,226.5 111,226.5 109.444,223.389 103.753,219.995 106,215.5 107.479,212.543 118.021,216.739 119.5,216 121.738,214.881 126.299,208.099 125,205.5 125,205.5 120.5,205 120.5,205 120.5,205 106.5,207 106.5,207 106.5,207 104.5,211 104.5,211 104.5,211 101,208.5 101,208.5 101,208.5 101,199.5 101,199.5 101,199.5 108.5,199 108.5,199 108.5,199 122.5,189 122.5,189 124.794,187.853 128.171,188.165 130.5,187 130.5,187 135.5,183 135.5,183 139.231,181.135 154.05,185.225 160.5,182 171.912,176.294 180.471,168.557 186,157.5 187.205,155.09 182.91,150.795 180.5,152 174.209,155.145 169.216,157 161.5,157 146.906,157 131.725,174 122.5,174 118.326,174 122.745,164.878 124.5,164 127.313,162.594 129.313,156.594 132.5,155 132.5,155 149.5,146 149.5,146 151.05,145.225 154.763,137.027 154,135.5 154,135.5 149.5,131 149.5,131 149.5,131 143.5,132 143.5,132 143.5,132 123.5,134 123.5,134 123.5,134 121.5,137 121.5,137 121.5,137 118.5,137 118.5,137 117.924,137.288 108.254,144.992 110,141.5 111.484,138.532 116.09,137.205 118.5,136 124.21,133.145 131.514,121.493 140.5,117 142.456,116.022 146.044,121 148.5,121 152.169,121 154.384,115.442 157.5,117 162.509,119.504 162.055,125.609 164,129.5 168.084,137.669 174.716,139 182.5,139 184.661,139 187.698,124.895 186,121.5 186,121.5 181,117.5 181,117.5 181,117.5 180,111.5 180,111.5 181.889,107.722 184.757,110.371 187.5,109 187.5,109 204.5,94 204.5,94 212.641,89.9295 256.273,85.8866 266.5,91 273.14,94.3199 279.789,97.6446 286.5,101 289.739,102.62 300.19,100.88 302,104.5 303.957,108.414 298.438,110.624 297,113.5 297,113.5 297,118.5 297,118.5 297,118.5 300,119.5 300,119.5 302.057,123.614 297.637,128.068 303.5,131 310.368,134.434 313.666,126.917 317.5,125 317.5,125 320,124.5 320,124.5 321.812,120.877 322.137,116.226 324,112.5 324.837,110.827 330.473,112.445 331,113.5 334.441,120.383 328.546,121.409 328,122.5 328,122.5 328,136 328,136 328,136 327,139.5 327,139.5 327,139.5 329,145.5 329,145.5 324.881,153.738 301.563,142.968 297.5,145 296.217,145.641 295.167,152.833 296,154.5 296.173,154.846 305.109,161.304 306.5,162 306.5,162 318.5,173 318.5,173 326.9,177.2 338.028,172.764 348.5,178 354.599,181.049 367.299,188.902 372,179.5 375.821,171.858 372.436,164.372 369,157.5 369,157.5 362,147.5 362,147.5 363.644,144.213 371.954,152.227 373.5,153 384.389,158.444 390,174.068 390,186  Z"/>

<path  fill="#FFFF00" stroke-width="0" stroke="#FFFF00" d = " M266 105 C266,109.184 251.588,104.956 249.5,106 239.874,110.813 227.188,107.656 216.5,113 212.553,114.974 204.035,112.43 202,116.5 199.775,120.949 189.22,126.94 193,134.5 L195.5,138 C197.994,139.247 204.405,135.048 206.5,134 213.819,130.34 223.16,130.67 230.5,127 231.67,126.415 257.075,125 258.5,125 259.739,125 265.113,127.307 266.5,128 L273.5,127 C275.936,128.218 280.811,132 283.5,132 L288.5,129 L290.5,130 C296.353,127.073 291,121.018 291,117.5 291,116.242 291.69,111 289.5,111 286.855,111 286.667,110.584 283.5,109 L281,108.5 C281,107.828 283.338,105.919 281.5,105 278.174,103.337 268.612,105 266,105  Z"/>

<path  fill-rule="evenodd" fill="#00FFFF" stroke-width="0" stroke="#00FFFF" d = " M182 219 C182,220.93 183.93,219 182,219  M233 181 C233,182.079 222.107,183 220.5,183 214.665,183 199,190.166 199,196.5 L204.5,197 C208.737,199.118 217.399,196 223,196 237.949,196 251.467,196 266.5,196 268.855,196 283.192,197.154 283.5,197 288.704,194.398 286.682,188.591 281.5,186 274.505,182.502 264.799,181 256.5,181 L233,181  M180 224 C182.224,224 184.263,219 184.5,219 186.626,219 186,223.789 186,225 190.164,225 196.842,227.171 200.5,229 202.007,229.753 220.735,226.882 222.5,226 223.494,225.503 259.562,226 262.5,226 267.915,226 290.1,228.301 292,224.5 294.547,219.405 288.238,222.369 287.5,222 287.5,222 285.5,219 285.5,219 283.146,217.823 273.35,216.575 270.5,218 262.02,222.24 217.859,219 209.5,219 208.178,219 199.982,219.259 198.5,220 197.503,220.499 197.758,223.129 195.5,222 192.608,220.554 191.229,211.636 194.5,210 199.636,207.432 214.26,210.62 215.5,210 223.928,205.786 259.411,207 271.5,207 277.476,207 285.072,204.286 290.5,207 293.957,208.729 293.968,213.734 296.5,215 296.5,215 301.5,212 301.5,212 305.258,213.879 314.912,225.706 319.5,228 325.754,231.127 333.288,231.894 339.5,235 341.111,235.805 352.066,241.368 353,239.5 355.653,234.194 348.162,233.824 347,231.5 347,231.5 347,227.5 347,227.5 344.706,222.912 339.379,218.44 334.5,216 330.097,213.799 325.979,216.26 322.5,218 322.5,218 319.5,217 319.5,217 319.5,217 316.5,218 316.5,218 315.717,217.609 303.267,207.035 303,206.5 299.12,198.741 286.3,172.9 278.5,169 272.587,166.043 257.272,171 251.5,171 243.644,171 224.882,168.809 220.5,171 217.949,172.275 214.112,167.694 211.5,169 201.882,173.809 191.387,191.726 187,200.5 187,200.5 176,214.5 176,214.5 170.589,225.321 154.969,220.766 146.5,225 140.37,228.065 138.636,234.228 136,239.5 135.296,240.908 129.234,239.968 131,243.5 132.858,247.215 139.545,244 142,244 145.567,244 164.879,230.311 169.5,228 170.358,227.571 180,220.166 180,224  Z"/>

<path  fill="#FFFF00" stroke-width="0" stroke="#FFFF00" d = " M233 181 C233,182.079 222.107,183 220.5,183 214.665,183 199,190.166 199,196.5 L204.5,197 C208.737,199.118 217.399,196 223,196 237.949,196 251.467,196 266.5,196 268.855,196 283.192,197.154 283.5,197 288.704,194.398 286.682,188.591 281.5,186 274.505,182.502 264.799,181 256.5,181 L233,181  Z"/>

<path  fill="#00FFFF" stroke-width="0" stroke="#00FFFF" d = " M103 186 L101,188.5 L102,190.5 C104.412,195.324 106.878,186 103,186  Z"/>

<path  fill-rule="evenodd" fill="#FFFF00" stroke-width="0" stroke="#FFFF00" d = " M78 285 L77,286.5 C74.941,290.618 84.6391,285 78,285  M55 252 C55,255.401 49.9772,258.454 52,262.5 55.9398,270.38 66.3385,260.177 70,267.5 71.0247,269.549 66.3618,270.569 65.5,271 60.6805,273.41 48.8927,279.696 59.5,285 64.6002,287.55 77.2894,267.395 80.5,269 84.7364,271.118 81.2113,281.077 80,283.5 L83.5,289 L86,281.5 C91.3462,270.808 85.6336,275.767 81,266.5 L81,259.5 L78.5,261 L76.5,257 C69.9375,253.719 63.0292,252 55,252  M71 235 C71,235.684 65.0447,237.411 64,239.5 62.3746,242.751 69.4615,243.481 70.5,244 71.8791,244.69 81,244.337 81,241.5 81,239.281 73.9434,235 71,235  M70 231 C70,232.413 59.9899,234.52 59,236.5 56.9211,240.658 60.1456,246.209 60,246.5 59.1462,248.208 51.8783,249.743 48,257.5 44.2601,264.98 53.654,270.808 54,271.5 54.459,272.418 50.0041,277.508 52,281.5 57.06,291.62 60.264,284.882 66.5,288 70.4748,289.987 73.985,293.743 78.5,296 87.7538,300.627 110.195,279.889 105,269.5 104.309,268.118 100.774,263.137 98.5,262 L93,260.5 C91.6288,257.758 94.4414,254.971 90.5,253 L83,250.5 C81.0021,246.504 86.8978,245.704 88,243.5 90.5519,238.396 72.8714,231 70,231  Z"/>

<path  fill="#00FFFF" stroke-width="0" stroke="#00FFFF" d = " M71 235 C71,235.684 65.0447,237.411 64,239.5 62.3746,242.751 69.4615,243.481 70.5,244 71.8791,244.69 81,244.337 81,241.5 81,239.281 73.9434,235 71,235  Z"/>

<path  fill="#9953FF" stroke-width="0" stroke="#9953FF" d = " M269 341 L273,344 C274.748,344 284,340.917 284,339 277.535,339 284.596,333.692 286,336.5 286,336.5 285,339 285,339 291.147,339 313.896,324.604 318.5,320 318.5,320 328,314 328,314 328,311.891 320.29,314.08 319,311.5 319,311.5 321,307 321,307 318.455,307 313.905,308.31 312,304.5 309.998,300.496 313.988,296.475 312,292.5 308.486,285.472 307.468,277.435 304,270.5 302.762,268.025 307.888,263 310,263 310,263 305,256.5 305,256.5 305,256.5 306,254.5 306,254.5 309.202,248.097 309.78,252 315,252 315,249.533 313,247.309 313,244 308.393,244 308.2,241.85 304.5,240 303.173,239.336 287.335,238 285.5,238 282.319,238 276,236.606 276,241 276,241 279,243.5 279,243.5 279,243.5 282,244.5 282,244.5 283.453,247.407 280.951,251.403 282,253.5 282,253.5 285,258.5 285,258.5 285,258.5 283,259.5 283,259.5 283,265.509 263.284,265 257.5,265 254.909,265 245,265.134 245,262 245,262 241,263 241,263 241,263 235.5,266 235.5,266 232.094,266 209.993,264.487 209,262.5 209,262.5 207.5,258 207.5,258 207.5,258 205,257.5 205,257.5 205,257.5 207,256.5 207,256.5 208.39,253.719 209,249.374 209,246.5 209,245.17 205.948,244.604 207,242.5 207.822,240.857 213,242.771 213,239 208.655,239 207.036,238.768 203.5,237 199.274,234.887 189.112,241.694 186.5,243 183.747,244.376 177,242.469 177,247 177,247 175,253 175,253 175,253 179.5,252 179.5,252 181.205,252 185.032,255.437 184,257.5 182.362,260.776 174,264.474 174,269 180.567,269 182.48,264.49 189.5,268 189.5,268 195,268.5 195,268.5 198.611,275.723 184.475,276.55 184,277.5 184,277.5 178,287.5 178,287.5 178,287.5 178,297.5 178,297.5 178,297.5 174,305.5 174,305.5 174,305.5 171,308 171,308 171,308 173,309.5 173,309.5 173,309.5 171,311.5 171,311.5 168.607,316.285 173.239,316 167,316 167,316 166,317 166,317 166,317 176.5,324 176.5,324 176.5,324 178.5,328 178.5,328 186.028,331.764 193.852,335.176 201.5,339 203.152,339.826 214,341.448 214,343 214,343 219,341 219,341 219,337.885 211,339.543 211,335.5 211,335.5 217.5,335 217.5,335 220.596,333.452 224.989,327 229.5,327 232.213,327 229.047,333.726 232.5,332 236.136,330.182 232.911,327.679 234,325.5 234,325.5 241,325.5 241,325.5 241.474,326.449 235.774,335.363 234.5,336 234.5,336 231,338 231,338 231,338 236,339 236,339 236,336.491 240.744,328.988 243,333.5 244.602,336.704 240,338.652 240,341 240,341 247,340 247,340 247,340 245,333.5 245,333.5 246.603,330.294 252.638,334.777 253,335.5 253,335.5 252,339 252,339 252,339 257,338 257,338 257,334.129 248,332.083 248,327.5 248,327.5 250.5,325 250.5,325 253.847,325 252.687,334.907 258.5,332 259.38,331.56 253.092,328.204 257.5,326 260.12,324.69 267.176,331.838 269.5,333 270.592,333.546 279.678,334.856 280,335.5 281.061,337.622 270.333,341 269,341  Z"/>

<path  fill-rule="evenodd" fill="#FFFF00" stroke-width="0" stroke="#FFFF00" d = " M405 274 L405.5,278 L407.5,282 C410.982,283.741 409.952,274 405,274  M409 257 L408,261.5 C409.516,264.533 416.196,257 409,257  M414 256 L414,264.5 C414.968,266.437 422.985,270.531 425,266.5 425.748,265.005 424.523,263.547 424,262.5 L424,258.5 C422.799,256.099 415.379,256 414,256  M409 238 C409,240.353 404.295,242.091 406,245.5 406.543,246.587 411,251.263 411,251.5 411,253.872 407.79,253 407.5,253 L401.5,260 C396.916,262.292 389.539,261.421 387,266.5 L387,271.5 C383.697,278.106 389.616,280.558 394.5,283 L403.5,291 C408.389,293.445 411.921,288.289 414.5,287 415.486,286.507 422,285.079 422,283.5 422,282.316 420.087,280.325 421,278.5 422.002,276.496 434.491,269.483 430,260.5 L423.5,252 C422.734,251.617 420,252.316 420,250.5 420,248.833 423.255,248.991 424,247.5 424.826,245.847 423.595,243.69 423,242.5 420.166,236.831 415.573,238 409,238  Z"/>

<path  fill="#EB57FF" stroke-width="0" stroke="#EB57FF" d = " M213 239 C228.795,239 231.831,244.163 238,256.5 239.345,259.19 241,259.655 241,263 241,263 235.5,266 235.5,266 232.094,266 209.993,264.487 209,262.5 209,262.5 207.5,258 207.5,258 207.5,258 205,257.5 205,257.5 205,257.5 207,256.5 207,256.5 208.39,253.719 209,249.374 209,246.5 209,245.17 205.948,244.604 207,242.5 207.822,240.857 213,242.771 213,239  Z"/>

<path  fill="#9953FF" stroke-width="0" stroke="#9953FF" d = " M263 241 L265,241 C265,239.601 263,239.601 263,241  Z"/>

<path  fill="#EB57FF" stroke-width="0" stroke="#EB57FF" d = " M276 241 L279,243.5 L282,244.5 C283.453,247.407 280.951,251.403 282,253.5 L285,258.5 L283,259.5 C283,265.509 263.284,265 257.5,265 254.909,265 245,265.134 245,262 251.736,262 252.916,241 263,241 263,241 265,241 265,241 265,241 276,241 276,241  Z"/>

<path  fill="#34FF0D" stroke-width="0" stroke="#34FF0D" d = " M322 258 C322,263.49 332.449,270.398 335,275.5 336.168,277.836 335.771,281.043 337,283.5 342.552,294.604 329,305.518 329,314 336.819,314 348.443,293.385 345,286.5 342.629,281.758 346.173,276.846 344,272.5 344,272.5 338,265.5 338,265.5 336.981,263.461 337.058,260.615 336,258.5 332.302,251.104 320.802,244 313,244 313,247.309 315,249.533 315,252 315,252 318,255 318,255 320.061,255 322,255.902 322,258  Z"/>

<path  fill="#34FF0D" stroke-width="0" stroke="#34FF0D" d = " M167 316 L166,317 C155.488,317 148.999,306.498 145,298.5 145,298.5 144,290.5 144,290.5 141.559,285.617 142.43,278.64 145,273.5 145,273.5 146,266.5 146,266.5 151.062,256.376 159.962,249.769 169.5,245 169.5,245 177,247 177,247 177,247 175,253 175,253 170.535,253 172.335,257.582 169.5,259 157.545,264.978 146.501,289.502 153,302.5 154.468,305.437 167,315.747 167,316  Z"/>

<path  fill="#46A515" stroke-width="0" stroke="#46A515" d = " M102 249 C102,261.897 115.087,249 102,249  Z"/>

<path  fill="#46A515" stroke-width="0" stroke="#46A515" d = " M389 249 C389,259.343 401.506,249 392.5,249 L389,249  Z"/>

<path  fill="#FA8072" stroke-width="0" stroke="#FA8072" d = " M328 314 L329,314 C329,305.518 342.552,294.604 337,283.5 335.771,281.043 336.168,277.836 335,275.5 332.449,270.398 322,263.49 322,258 322,258 318,255 318,255 318,255 315,252 315,252 309.78,252 309.202,248.097 306,254.5 306,254.5 305,256.5 305,256.5 305,256.5 310,263 310,263 313.169,263 312.687,266.094 314.5,267 324.994,272.247 328,282.561 328,292 328,296.746 327.76,307 321,307 321,307 319,311.5 319,311.5 320.29,314.08 328,311.891 328,314  Z"/>

<path  fill="#00FFFF" stroke-width="0" stroke="#00FFFF" d = " M55 252 C55,255.401 49.9772,258.454 52,262.5 55.9398,270.38 66.3385,260.177 70,267.5 71.0247,269.549 66.3618,270.569 65.5,271 60.6805,273.41 48.8927,279.696 59.5,285 64.6002,287.55 77.2894,267.395 80.5,269 84.7364,271.118 81.2113,281.077 80,283.5 L83.5,289 L86,281.5 C91.3462,270.808 85.6336,275.767 81,266.5 L81,259.5 L78.5,261 L76.5,257 C69.9375,253.719 63.0292,252 55,252  Z"/>

<path  fill="#FA8072" stroke-width="0" stroke="#FA8072" d = " M171 308 L173,309.5 L171,311.5 C168.607,316.285 173.239,316 167,316 167,315.747 154.468,305.437 153,302.5 146.501,289.502 157.545,264.978 169.5,259 172.335,257.582 170.535,253 175,253 175,253 179.5,252 179.5,252 181.205,252 185.032,255.437 184,257.5 182.362,260.776 174,264.474 174,269 174,269 168.5,275 168.5,275 160.708,278.896 156.663,308 171,308  Z"/>

<path  fill-rule="evenodd" fill="#00FFFF" stroke-width="0" stroke="#00FFFF" d = " M415 258 C415,265.408 418.478,258 415,258  M414 256 L414,264.5 C414.968,266.437 422.985,270.531 425,266.5 425.748,265.005 424.523,263.547 424,262.5 L424,258.5 C422.799,256.099 415.379,256 414,256  Z"/>

<path  fill="#00FFFF" stroke-width="0" stroke="#00FFFF" d = " M409 257 L408,261.5 C409.516,264.533 416.196,257 409,257  Z"/>

<path  fill="#FFFF00" stroke-width="0" stroke="#FFFF00" d = " M415 258 C415,265.408 418.478,258 415,258  Z"/>

<path  fill="#5BF1FF" stroke-width="0" stroke="#5BF1FF" d = " M310 263 C313.169,263 312.687,266.094 314.5,267 324.994,272.247 328,282.561 328,292 328,296.746 327.76,307 321,307 318.455,307 313.905,308.31 312,304.5 309.998,300.496 313.988,296.475 312,292.5 308.486,285.472 307.468,277.435 304,270.5 302.762,268.025 307.888,263 310,263  Z"/>

<path  fill="#5BF1FF" stroke-width="0" stroke="#5BF1FF" d = " M174 269 C180.567,269 182.48,264.49 189.5,268 L195,268.5 C198.611,275.723 184.475,276.55 184,277.5 L178,287.5 L178,297.5 L174,305.5 L171,308 C156.663,308 160.708,278.896 168.5,275 168.5,275 174,269 174,269  Z"/>

<path  fill="#00FFFF" stroke-width="0" stroke="#00FFFF" d = " M405 274 L405.5,278 L407.5,282 C410.982,283.741 409.952,274 405,274  Z"/>

<path  fill="#00FFFF" stroke-width="0" stroke="#00FFFF" d = " M78 285 L77,286.5 C74.941,290.618 84.6391,285 78,285  Z"/>

<path  fill="#46A515" stroke-width="0" stroke="#46A515" d = " M415 294 L414,297.5 C414.642,298.784 414.406,300.313 415,301.5 417.134,305.769 423.463,294 415,294  Z"/>

<path  fill="#46A515" stroke-width="0" stroke="#46A515" d = " M69 307 C69,317.32 77.5067,307 69,307  Z"/>

<path  fill="#00F60E" stroke-width="0" stroke="#00F60E" d = " M231 338 L219,341 C219,337.885 211,339.543 211,335.5 211,335.5 217.5,335 217.5,335 220.596,333.452 224.989,327 229.5,327 232.213,327 229.047,333.726 232.5,332 236.136,330.182 232.911,327.679 234,325.5 234,325.5 241,325.5 241,325.5 241.474,326.449 235.774,335.363 234.5,336 234.5,336 231,338 231,338  Z"/>

<path  fill="#00F60E" stroke-width="0" stroke="#00F60E" d = " M265 340 L269,341 C270.333,341 281.061,337.622 280,335.5 279.678,334.856 270.592,333.546 269.5,333 267.176,331.838 260.12,324.69 257.5,326 253.092,328.204 259.38,331.56 258.5,332 252.687,334.907 253.847,325 250.5,325 250.5,325 248,327.5 248,327.5 248,332.083 257,334.129 257,338 257,338 264,340 264,340 264,338.814 265,338.814 265,340  Z"/>

<path  fill="#00F60E" stroke-width="0" stroke="#00F60E" d = " M236 339 C237.24,339 237.576,341 240,341 240,338.652 244.602,336.704 243,333.5 240.744,328.988 236,336.491 236,339  Z"/>

<path  fill="#00F60E" stroke-width="0" stroke="#00F60E" d = " M250 340 L249,341 C249,341 247,340 247,340 247,340 245,333.5 245,333.5 246.603,330.294 252.638,334.777 253,335.5 253,335.5 252,339 252,339 252,339 250,340 250,340  Z"/>

<path  fill="#00F60E" stroke-width="0" stroke="#00F60E" d = " M284 339 L285,339 C285,339 286,336.5 286,336.5 284.596,333.692 277.535,339 284,339  Z"/>

<path  fill="#FF3427" stroke-width="0" stroke="#FF3427" d = " M240 341 C240,355.897 214,350.931 214,343 214,343 219,341 219,341 219,341 231,338 231,338 231,338 236,339 236,339 237.24,339 237.576,341 240,341  Z"/>

<path  fill="#FF3427" stroke-width="0" stroke="#FF3427" d = " M269 341 L273,344 C273,353.887 249,355.324 249,341 249,341 250,340 250,340 250,340 252,339 252,339 252,339 257,338 257,338 257,338 264,340 264,340 264,340 265,340 265,340 265,340 269,341 269,341  Z"/>

<path  fill="#9953FF" stroke-width="0" stroke="#9953FF" d = " M264 340 L265,340 C265,338.814 264,338.814 264,340  Z"/>

<path  fill="#9953FF" stroke-width="0" stroke="#9953FF" d = " M250 340 L249,341 C249,341 250,340 250,340  Z"/>

</g>
</svg>
