<svg xmlns="http://www.w3.org/2000/svg" xmlns:xlink="http://www.w3.org/1999/xlink" height="512" width="512">
<g>
<rect width="512" height="512" fill="#000000"  stroke-width="0" /> 
<path  fill-rule="evenodd" fill="#86FF5A" stroke-width="0" stroke="#86FF5A" d = " M244 312 L244.5,321 C246.573,321 247.362,312 244,312  M243 291 C243,294.691 238.37,296.76 237,299.5 233.63,306.24 257.673,311.846 251,298.5 L248,294.5 C245.967,292.467 246.482,291 243,291  M180 302 C180,307.118 185.862,310.224 188,314.5 189.678,317.856 188.298,323.095 190,326.5 196.197,338.894 212.408,345 226,345 232.333,345 235.913,343.293 240.5,341 L245.5,337 L251.5,344 C255.488,345.994 274.567,345.967 278.5,344 281.914,342.293 289.493,336.003 291.5,335 L295,333.5 C296.523,330.455 299.434,327.632 301,324.5 L301,318.5 C302.737,315.027 306,311.176 306,306 306,301.209 309.12,294.739 307,290.5 306.261,289.021 302.078,280 304,280 304,273.889 283.747,267 279.5,267 279.5,267 276.5,269 276.5,269 276.5,269 263.5,268 263.5,268 260.25,269.625 257.875,273.313 254.5,275 253.038,275.731 251.064,275.218 249.5,276 249.5,276 245.5,274 245.5,274 243.185,274 241.686,278.093 239.5,277 239.5,277 234.5,271 234.5,271 232.352,269.926 229.781,269.14 227.5,268 223.818,266.159 218.29,267.895 214.5,266 209.649,263.575 188,271.997 188,275 188,275 192.5,274 192.5,274 192.5,274 189,277.5 189,277.5 187.394,280.711 183.81,282.88 182,286.5 181.133,288.234 181.48,302 180,302  Z"/>

<path  fill="#FA8072" stroke-width="0" stroke="#FA8072" d = " M188 275 L192.5,274 L189,277.5 C187.394,280.711 183.81,282.88 182,286.5 181.133,288.234 181.48,302 180,302 178.019,302 177,295.295 177,293.5 177,288.665 181.726,275 188,275  Z"/>

<path  fill="#FA8072" stroke-width="0" stroke="#FA8072" d = " M304 280 C312.185,280 312.891,306 306,306 306,301.209 309.12,294.739 307,290.5 306.261,289.021 302.078,280 304,280  Z"/>

<path  fill-rule="evenodd" fill="#EB57FF" stroke-width="0" stroke="#EB57FF" d = " M244 303 C244,307.123 248.123,303 244,303  M243 291 C243,294.691 238.37,296.76 237,299.5 233.63,306.24 257.673,311.846 251,298.5 L248,294.5 C245.967,292.467 246.482,291 243,291  Z"/>

<path  fill="#27F4FD" stroke-width="0" stroke="#27F4FD" d = " M244 303 C244,307.123 248.123,303 244,303  Z"/>

<path  fill="#7209D4" stroke-width="0" stroke="#7209D4" d = " M244 312 L244.5,321 C246.573,321 247.362,312 244,312  Z"/>

</g>
</svg>
