<svg xmlns="http://www.w3.org/2000/svg" xmlns:xlink="http://www.w3.org/1999/xlink" height="512" width="512">
<g>
<rect width="512" height="512" fill="#000000"  stroke-width="0" /> 
<path  fill-rule="evenodd" fill="#86FF5A" stroke-width="0" stroke="#86FF5A" d = " M241 318 C241,319.561 235.266,319.031 237,322.5 243.403,335.306 262.119,318 241,318  M226 285 L223.5,288 C217.895,288 214.743,288.879 208.5,292 L204.5,292 C194.479,297.01 187.342,313.184 193,324.5 L192,329.5 C193.996,333.492 195,340.029 195,343.5 L201,350.5 C201,351.635 200.191,351.882 201,353.5 203.899,359.298 227.393,374.554 234.5,371 237.779,369.361 239.522,366.489 242.5,365 245.483,363.509 247.795,370.147 249.5,371 L261.5,371 L270.5,368 C275.968,365.266 279.579,360.46 284.5,358 L285,354.5 C286.417,351.666 288.655,349.191 290,346.5 291.041,344.419 294.92,340.661 296,338.5 299.266,331.968 298.13,301.315 291.5,298 287.752,296.126 284.312,292.906 280.5,291 278.328,289.914 269.012,289.756 263.5,287 258.788,284.644 248.216,291.858 244.5,290 240.107,287.803 230.292,285 226,285  Z"/>

<path  fill-rule="evenodd" fill="#EB57FF" stroke-width="0" stroke="#EB57FF" d = " M244 324 C244,325.93 245.93,324 244,324  M241 318 C241,319.561 235.266,319.031 237,322.5 243.403,335.306 262.119,318 241,318  Z"/>

<path  fill="#27F4FD" stroke-width="0" stroke="#27F4FD" d = " M244 324 C244,325.93 245.93,324 244,324  Z"/>

</g>
</svg>
