<svg xmlns="http://www.w3.org/2000/svg" xmlns:xlink="http://www.w3.org/1999/xlink" height="512" width="512">
<g>
<rect width="512" height="512" fill="#000000"  stroke-width="0" /> 
<path  fill="#03C12D" stroke-width="0" stroke="#03C12D" d = " M100 289 C97.8383,289 97.7164,282.933 97,281.5 L88,272.5 C86.732,269.964 90.6132,268.726 89,265.5 87.164,261.828 83.7969,259.094 82,255.5 80.3293,252.159 81.6831,246.866 80,243.5 73.5459,230.592 74,212.39 74,197 L75,179.5 L79,172.5 L81,162.5 C83.3475,157.805 89.1562,154.188 91,150.5 99.3405,133.819 120.608,122.946 136.5,115 L145.5,116 L153.5,111 C156.323,109.589 170.582,109.459 171.5,109 179.034,105.233 194.933,100.217 202.5,104 L205.5,101 L211,101 C220.142,101 229.928,101.214 237.5,105 240.759,106.629 238.52,111.01 240.5,112 243.728,113.614 247.145,105.178 249.5,104 253.429,102.035 279.134,95.817 283.5,98 290.214,101.357 304.414,99.9569 308.5,102 311.195,103.348 313.708,104.604 316.5,106 317.713,106.607 321.396,103.948 323.5,105 327.442,106.971 332.682,106.091 336.5,108 L340.5,110 L343.5,109 L350.5,114 C353.052,115.276 357.196,115.348 360.5,117 L364.5,117 C369.402,119.451 390.6,133.701 393,138.5 395.144,142.788 397.841,147.182 400,151.5 L403,153.5 C405.703,158.905 407.228,164.957 410,170.5 413.292,177.084 412.662,185.825 416,192.5 417.617,195.734 414.698,199.896 417,204.5 L415,210 C415,215.378 417.425,229.651 415,234.5 411.971,240.558 410.978,247.543 408,253.5 L402,260.5 C398.974,266.552 395.076,272.348 392,278.5 L391,287.5 C389.706,290.088 386.642,292 384,292 384,284.643 368,287.183 368,284 368,284 366,282 366,282 356.388,282 347.229,281 337,281 337,275.082 337.942,279 335,279 335,279 334,278 334,278 334,274.258 337,269.236 337,266 337,266 338,265 338,265 338,265 339,265 339,265 339,268.875 345.333,263.167 346,262.5 348.719,259.781 349.991,251.509 355,246.5 367.325,234.175 373.472,216.445 365,199.5 361.471,192.443 357.178,185.856 354,179.5 354,179.5 351.5,179 351.5,179 351.5,179 344.5,172 344.5,172 334.783,167.142 324.323,163.912 314.5,159 314.5,159 305.5,158 305.5,158 302.406,156.453 287.015,151.243 283.5,153 283.5,153 278,160 278,160 278,155.189 268.29,152.895 264.5,151 257.214,147.357 246.431,136.534 237.5,141 228.554,145.473 220.537,152.481 211.5,157 209.938,157.781 210.563,162 208,162 208,162 203.5,156 203.5,156 198.293,153.396 189.383,158.058 185.5,160 181.856,161.822 176.121,160.189 172.5,162 156.631,169.934 150.286,170.214 136.5,184 136.5,184 130,190.5 130,190.5 123.037,204.426 118.361,220.222 126,235.5 126,235.5 127,242.5 127,242.5 127,242.5 141,260.5 141,260.5 141,260.5 149,274.5 149,274.5 149,274.5 149.5,281 149.5,281 153.424,282.962 150.884,271 153,271 154.72,271 159,282.131 159,284 159,284 159,289 159,289 155.078,289 159.174,287.837 155.5,286 153.087,284.794 149.958,285.229 147.5,284 146.068,283.284 136.133,285.183 134.5,286 132.007,287.246 129.261,284.881 127.5,284 125.212,282.856 116.653,286.924 114.5,288 111.959,289.27 100,285.782 100,289  Z"/>

<path  fill="#1D68EB" stroke-width="0" stroke="#1D68EB" d = " M240 189 C240,182.216 249,182.867 249,189 258.85,189 268.853,182.795 274,172.5 275.165,170.171 274.853,166.794 276,164.5 277.05,162.4 278,162.606 278,160 278,155.189 268.29,152.895 264.5,151 257.214,147.357 246.431,136.534 237.5,141 228.554,145.473 220.537,152.481 211.5,157 209.938,157.781 210.563,162 208,162 208,171.439 225.415,185.957 233.5,190 235.661,191.081 238.394,189 240,189  Z"/>

<path  fill="#FF6E00" stroke-width="0" stroke="#FF6E00" d = " M338 265 L337,266 C334.338,266 337,261.671 337,261 337,261 337,260 337,260 337,260 338,259 338,259 338,256.173 340.831,254.837 342,252.5 342,252.5 343,245.5 343,245.5 343,245.5 351,237.5 351,237.5 351,237.5 355,228.5 355,228.5 355,228.5 360,225.5 360,225.5 364.394,216.713 360.854,207.208 357,199.5 354.079,193.657 348.41,181 341,181 341,181 339,180 339,180 337.76,180 337.424,178 335,178 335,178 334,177 334,177 334,175.817 330.43,175.465 329.5,175 326.155,173.327 314.59,169.955 310.5,172 307.041,173.73 301.848,171.326 298.5,173 298.5,173 295.5,177 295.5,177 289.379,180.061 278.128,186.244 275,192.5 275,192.5 274,197.5 274,197.5 272.884,199.732 269,202.462 269,205 269,205 268,207 268,207 266.423,207 266,208.762 266,210 263.823,210 262,209.359 262,212 259.009,212 257.096,223 249,223 249,220.281 242,220.255 242,222 242,222 235.5,223 235.5,223 231.894,221.197 228.586,210 224,210 224,210 223,208 223,208 223,204.924 215.712,193 212,193 206.509,193 204.198,183.849 200.5,182 195.222,179.361 189.759,176.629 184.5,174 180.952,172.226 174.399,173.55 171.5,175 171.5,175 161.5,176 161.5,176 152.787,180.357 138.991,184.518 134,194.5 133.423,195.654 132.101,203.299 132,203.5 129.86,207.78 125.189,218.878 128,224.5 130.176,228.852 131.822,233.143 134,237.5 134,237.5 142,243.5 142,243.5 146.316,252.132 153,260.609 153,271 150.884,271 153.424,282.962 149.5,281 149.5,281 149,274.5 149,274.5 149,274.5 141,260.5 141,260.5 141,260.5 127,242.5 127,242.5 127,242.5 126,235.5 126,235.5 118.361,220.222 123.037,204.426 130,190.5 130,190.5 136.5,184 136.5,184 150.286,170.214 156.631,169.934 172.5,162 176.121,160.189 181.856,161.822 185.5,160 189.383,158.058 198.293,153.396 203.5,156 203.5,156 208,162 208,162 208,171.439 225.415,185.957 233.5,190 235.661,191.081 238.394,189 240,189 240,190.843 248.391,189 249,189 258.85,189 268.853,182.795 274,172.5 275.165,170.171 274.853,166.794 276,164.5 277.05,162.4 278,162.606 278,160 278,160 283.5,153 283.5,153 287.015,151.243 302.406,156.453 305.5,158 305.5,158 314.5,159 314.5,159 324.323,163.912 334.783,167.142 344.5,172 344.5,172 351.5,179 351.5,179 351.5,179 354,179.5 354,179.5 357.178,185.856 361.471,192.443 365,199.5 373.472,216.445 367.325,234.175 355,246.5 349.991,251.509 348.719,259.781 346,262.5 345.333,263.167 339,268.875 339,265 339,263.814 338,263.814 338,265  Z"/>

<path  fill-rule="evenodd" fill="#814FFF" stroke-width="0" stroke="#814FFF" d = " M288 269 C288,272.274 285.106,272.711 287,276.5 299.348,301.195 312.134,269 288,269  M320 296 C317.012,296 318,301.065 318,303 318,317.543 308.72,309.89 306.5,311 306.5,311 303.5,314 303.5,314 303.5,314 295.5,315 295.5,315 295.5,315 293.5,318 293.5,318 290.987,319.256 289.437,314.531 286.5,316 286.5,316 281.5,321 281.5,321 281.5,321 280.5,311 280.5,311 280.5,311 277.5,311 277.5,311 277.5,311 275.5,308 275.5,308 273.187,306.844 269.192,312.884 267,308.5 267,308.5 267,303.5 267,303.5 258.461,286.423 260,279.189 260,261.5 260,258.404 268,251.972 268,248 268,248 270,248 270,248 273.759,248 270.341,256 274.5,256 274.5,256 275,252 275,252 275,248.628 272,245.947 272,242 272,229.853 269,219.998 269,208 269,208 269,205 269,205 269,202.462 272.884,199.732 274,197.5 274,197.5 275,192.5 275,192.5 278.128,186.244 289.379,180.061 295.5,177 295.5,177 298.5,173 298.5,173 301.848,171.326 307.041,173.73 310.5,172 314.59,169.955 326.155,173.327 329.5,175 330.43,175.465 334,175.817 334,177 334,177 335,178 335,178 337.424,178 337.76,180 339,180 339,180 341,181 341,181 348.41,181 354.079,193.657 357,199.5 360.854,207.208 364.394,216.713 360,225.5 360,225.5 355,228.5 355,228.5 355,228.5 351,237.5 351,237.5 351,237.5 343,245.5 343,245.5 343,245.5 342,252.5 342,252.5 340.831,254.837 338,256.173 338,259 338,259 337,260 337,260 335.814,260 335.814,261 337,261 337,261.671 334.338,266 337,266 337,269.236 334,274.258 334,278 334,278 332,282 332,282 332,282 329,285.5 329,285.5 325.878,288.622 325.536,290.982 321.5,293 321.5,293 320,296 320,296  Z"/>

<path  fill-rule="evenodd" fill="#814FFF" stroke-width="0" stroke="#814FFF" d = " M197 269 C197,269.112 186.974,279.551 186,281.5 L186.5,286 C194.209,289.855 213.598,269 197,269  M159 284 L170,295 C170,295 172,297.5 172,297.5 172,297.5 176,299.5 176,299.5 176,299.5 175,304.5 175,304.5 175,304.5 182.5,307 182.5,307 182.5,307 187.5,314 187.5,314 190.772,315.636 193.1,311.8 195.5,313 197.744,314.122 203.598,317.451 206.5,316 207.688,315.406 207.39,312.055 209.5,311 212.888,309.306 218.088,315.706 219.5,315 223.7,312.9 220.227,300.046 222,296.5 223.731,293.038 230.69,266.879 228,261.5 226.11,257.72 223,253.455 223,249 223,249 222,248 222,248 220.253,248 220,247.747 220,246 220,246 218,246 218,246 218,246 215,255.5 215,255.5 214.581,256.338 212.71,257.919 212,256.5 212,256.5 216,244.5 216,244.5 216,244.5 216,233.5 216,233.5 219.378,226.745 220,213.825 220,206 220,202.022 212,197.408 212,193 206.509,193 204.198,183.849 200.5,182 195.222,179.361 189.759,176.629 184.5,174 180.952,172.226 174.399,173.55 171.5,175 171.5,175 161.5,176 161.5,176 152.787,180.357 138.991,184.518 134,194.5 133.423,195.654 132.101,203.299 132,203.5 129.86,207.78 125.189,218.878 128,224.5 130.176,228.852 131.822,233.143 134,237.5 134,237.5 142,243.5 142,243.5 146.316,252.132 153,260.609 153,271 154.72,271 159,282.131 159,284  Z"/>

<path  fill="#022CFF" stroke-width="0" stroke="#022CFF" d = " M219 244 L218,246 C218,246 215,255.5 215,255.5 214.581,256.338 212.71,257.919 212,256.5 212,256.5 216,244.5 216,244.5 216,244.5 216,233.5 216,233.5 219.378,226.745 220,213.825 220,206 222.215,206 221.519,208 223,208 223,208 224,210 224,210 224,213.792 222.591,217.318 221,220.5 217.975,226.549 219,236.781 219,244  Z"/>

<path  fill="#022CFF" stroke-width="0" stroke="#022CFF" d = " M269 245 C270.473,245 270,246.952 270,248 273.759,248 270.341,256 274.5,256 274.5,256 275,252 275,252 275,248.628 272,245.947 272,242 272,229.853 269,219.998 269,208 269,208 268,207 268,207 266.423,207 266,208.762 266,210 266,210 266,212 266,212 266,216.835 266.938,223.375 269,227.5 269,227.5 269,245 269,245  Z"/>

<path  fill="#FF0800" stroke-width="0" stroke="#FF0800" d = " M222 248 L223,249 C228.345,249 232.415,260.543 239.5,257 244.62,254.44 239.43,240.641 241,237.5 241,237.5 244,235.5 244,235.5 245.043,233.414 241.476,234.453 241,233.5 240.329,232.158 242,224.434 242,222 242,222 235.5,223 235.5,223 231.894,221.197 228.586,210 224,210 224,213.792 222.591,217.318 221,220.5 217.975,226.549 219,236.781 219,244 219,244 220,246 220,246 220,246 222,248 222,248  Z"/>

<path  fill="#FF0800" stroke-width="0" stroke="#FF0800" d = " M269 245 L267,248 C263.118,248 260.036,255.232 256.5,257 242.607,263.946 249,228.734 249,223 257.096,223 259.009,212 262,212 262,212 266,212 266,212 266,216.835 266.938,223.375 269,227.5 269,227.5 269,245 269,245  Z"/>

<path  fill="#E1F00D" stroke-width="0" stroke="#E1F00D" d = " M266 326 L267,328 C267,328 274.5,335 274.5,335 279.565,337.533 301.989,342.255 308.5,339 311.524,337.488 312.526,332 316.5,332 319.987,332 322.913,336.675 326,330.5 326.89,328.72 326.6,315 328,315 328,310.078 321,306.762 321,303 321,303 318,303 318,303 318,317.543 308.72,309.89 306.5,311 306.5,311 303.5,314 303.5,314 303.5,314 295.5,315 295.5,315 295.5,315 293.5,318 293.5,318 290.987,319.256 289.437,314.531 286.5,316 286.5,316 281.5,321 281.5,321 281.5,321 280.5,311 280.5,311 280.5,311 277.5,311 277.5,311 277.5,311 275.5,308 275.5,308 273.187,306.844 269.192,312.884 267,308.5 267,308.5 267,303.5 267,303.5 258.461,286.423 260,279.189 260,261.5 260,258.404 268,251.972 268,248 268,248 267,248 267,248 263.118,248 260.036,255.232 256.5,257 242.607,263.946 249,228.734 249,223 249,220.281 242,220.255 242,222 242,224.434 240.329,232.158 241,233.5 241.476,234.453 245.043,233.414 244,235.5 244,235.5 241,237.5 241,237.5 239.43,240.641 244.62,254.44 239.5,257 232.415,260.543 228.345,249 223,249 223,253.455 226.11,257.72 228,261.5 230.69,266.879 223.731,293.038 222,296.5 220.227,300.046 223.7,312.9 219.5,315 218.088,315.706 212.888,309.306 209.5,311 207.39,312.055 207.688,315.406 206.5,316 203.598,317.451 197.744,314.122 195.5,313 193.1,311.8 190.772,315.636 187.5,314 187.5,314 182.5,307 182.5,307 182.5,307 175,304.5 175,304.5 175,304.5 176,299.5 176,299.5 176,299.5 172,297.5 172,297.5 172,297.5 170,295 170,295 170,295 166,298.5 166,298.5 166,298.5 164,302 164,302 164,303.048 164.473,305 163,305 163,312.295 154,319.992 154,323 154,326.585 159.483,331.492 162.5,333 168.071,335.786 203.314,342.593 210.5,339 210.5,339 217,334.5 217,334.5 217,334.5 224,321.5 224,321.5 226.875,315.75 234.194,312.112 237,306.5 238.123,304.253 240.308,288.904 244.5,291 245.425,291.462 252.626,311.752 254,314.5 256.643,319.787 266,318.86 266,326  Z"/>

<path  fill="#E1F00D" stroke-width="0" stroke="#E1F00D" d = " M220 246 L222,248 C220.253,248 220,247.747 220,246  Z"/>

<path  fill="#814FFF" stroke-width="0" stroke="#814FFF" d = " M338 265 L339,265 C339,263.814 338,263.814 338,265  Z"/>

<path  fill="#7CFC00" stroke-width="0" stroke="#7CFC00" d = " M197 269 C197,269.112 186.974,279.551 186,281.5 L186.5,286 C194.209,289.855 213.598,269 197,269  Z"/>

<path  fill="#7CFC00" stroke-width="0" stroke="#7CFC00" d = " M288 269 C288,272.274 285.106,272.711 287,276.5 299.348,301.195 312.134,269 288,269  Z"/>

<path  fill="#814FFF" stroke-width="0" stroke="#814FFF" d = " M335 281 L337,281 C337,275.082 337.942,279 335,279 335,279 335,281 335,281  Z"/>

<path  fill="#FF8700" stroke-width="0" stroke="#FF8700" d = " M332 317 C337.636,317 335.506,326 342,326 343.34,326 359.001,317.499 360,315.5 360,315.5 366.5,308 366.5,308 366.5,308 371.5,308 371.5,308 371.5,308 376.5,303 376.5,303 376.5,303 380.5,303 380.5,303 384.279,301.111 384,295.707 384,292 384,284.643 368,287.183 368,284 368,284 366,282 366,282 356.388,282 347.229,281 337,281 337,281 335,281 335,281 335,281 332,282 332,282 332,282 329,285.5 329,285.5 325.878,288.622 325.536,290.982 321.5,293 321.5,293 320,296 320,296 320,298.409 321,301.181 321,303 321,306.762 328,310.078 328,315 328,315 332,317 332,317  Z"/>

<path  fill="#FF8700" stroke-width="0" stroke="#FF8700" d = " M163 305 C163,312.295 154,319.992 154,323 138.078,323 136.85,315.175 124.5,309 121.898,307.699 115.825,308.662 114.5,308 112.581,307.04 113.659,305.818 113,304.5 113,304.5 106,299.5 106,299.5 106,299.5 104.5,295 104.5,295 100.636,293.068 100,294.098 100,289 100,285.782 111.959,289.27 114.5,288 116.653,286.924 125.212,282.856 127.5,284 129.261,284.881 132.007,287.246 134.5,286 136.133,285.183 146.068,283.284 147.5,284 149.958,285.229 153.087,284.794 155.5,286 159.174,287.837 155.078,289 159,289 159,289 160.5,291 160.5,291 166.828,294.164 164,295.934 164,302 162.527,302 163,303.952 163,305  Z"/>

<path  fill="#FA8072" stroke-width="0" stroke="#FA8072" d = " M81 313 C81,315.754 76.5826,319.541 81.5,322 85.2382,323.869 89.8401,320.33 92.5,319 93.2664,318.617 96,319.316 96,317.5 96,315.262 83.7815,313 81,313  Z"/>

<path  fill="#E1F00D" stroke-width="0" stroke="#E1F00D" d = " M332 317 C337.636,317 335.506,326 342,326 342,331.037 332.326,333.152 330,328.5 327.237,322.975 332,321.35 332,317  Z"/>

<path  fill="#267EFF" stroke-width="0" stroke="#267EFF" d = " M266 326 C260.915,326 256.983,319.258 251.5,322 244.665,325.417 255.012,339.244 261.5,336 263.377,335.062 266.654,328 267,328 267,328 266,326 266,326  Z"/>

<path  fill="#267EFF" stroke-width="0" stroke="#267EFF" d = " M235 322 C235,325.165 229.178,324.144 228,326.5 221.368,339.763 252.451,335.951 240,323.5 238.308,321.808 237.316,322 235,322  Z"/>

<path  fill="#FA8072" stroke-width="0" stroke="#FA8072" d = " M107 323 C107,328.487 112.487,323 107,323  Z"/>

<path  fill="#FA8072" stroke-width="0" stroke="#FA8072" d = " M113 324 L111,326 C111,337.723 122.984,324 113,324  Z"/>

<path  fill="#FA8072" stroke-width="0" stroke="#FA8072" d = " M299 341 L296,344.5 L297,351.5 C295.001,355.499 291.955,358.591 290,362.5 288.382,365.736 282.867,364.767 281,368.5 L282,377.5 C278.046,385.408 281.121,400.189 291.5,395 L296.5,396 C299.748,394.376 294.001,390.749 297.5,389 299.232,388.134 300.304,389.598 301.5,389 302.935,388.282 301.872,384.314 304.5,383 308.193,381.153 312.914,381.673 315,377.5 318.201,371.098 315.227,365.955 313,361.5 L316,357.5 L316,351 C316,339.163 307.954,346 303.5,346 302.465,346 301.677,341 299,341  Z"/>

<path  fill="#FA8072" stroke-width="0" stroke="#FA8072" d = " M188 345 C188,346.027 183.135,346.365 182,347.5 176.657,352.843 180.271,352.957 178,357.5 L173,360.5 C169.342,367.817 180.253,367.005 182,370.5 L181,378.5 L186,383.5 C187.131,385.763 187.893,391.696 190.5,393 191.71,393.605 206.04,397.23 206.5,397 L211,393.5 L211,372.5 C209.095,368.691 199.48,363.49 196.5,362 194.307,360.903 188.322,363.145 187,360.5 L191,356.5 C194.55,352.95 194.142,345 188,345  Z"/>

<path  fill="#FA8072" stroke-width="0" stroke="#FA8072" d = " M158 375 L156,377 C156,388.723 167.984,375 158,375  Z"/>

</g>
</svg>
