<svg xmlns="http://www.w3.org/2000/svg" xmlns:xlink="http://www.w3.org/1999/xlink" height="512" width="512">
<g>
<rect width="512" height="512" fill="#000000"  stroke-width="0" /> 
<path  fill="#CED307" stroke-width="0" stroke="#CED307" d = " M286 147 C286,149.268 276.3,152.1 274.5,153 L271.5,157 C270.525,157.488 264.847,159.195 266,161.5 267.35,164.2 275.568,166.466 278.5,165 L282.5,161 L295.5,162 L312.5,172 C318.705,168.897 311.575,163.651 310,160.5 305.988,152.477 294.434,147 286,147  Z"/>

<path  fill="#CED307" stroke-width="0" stroke="#CED307" d = " M209 156 C209,163.975 213.275,156 209,156  Z"/>

<path  fill="#FF8700" stroke-width="0" stroke="#FF8700" d = " M234 179 C234,181.137 240.846,188.191 242,190.5 243.888,194.277 242.656,209.187 241,212.5 239.223,216.054 242.807,219.885 241,223.5 237.729,230.042 242.181,240.137 239,246.5 232.796,258.908 236.544,277 217,277 206.934,277 198.412,259.324 195,252.5 190.791,244.083 185.202,236.904 181,228.5 179.292,225.085 180.671,219.841 179,216.5 171.713,201.925 177.396,185.707 184,172.5 187.261,165.977 199.988,162 206.5,162 208.116,162 216,161.242 216,163 216,166.931 204.348,162.576 201.5,164 201.5,164 195,171.5 195,171.5 192.086,177.328 199.543,180.022 203.5,182 220.651,190.576 211.308,183.596 220.5,179 224.938,176.781 229.408,179 234,179  Z"/>

<path  fill="#0F6DE6" stroke-width="0" stroke="#0F6DE6" d = " M234 178 L234,179 C229.408,179 224.938,176.781 220.5,179 211.308,183.596 220.651,190.576 203.5,182 199.543,180.022 192.086,177.328 195,171.5 195,171.5 201.5,164 201.5,164 204.348,162.576 216,166.931 216,163 220.13,163 228.988,164.476 231,168.5 231,168.5 231,172.5 231,172.5 231.936,174.373 234,175.73 234,178  Z"/>

<path  fill="#FF8700" stroke-width="0" stroke="#FF8700" d = " M254 184 C254,184.395 248.662,196.177 248,197.5 L249,220.5 C249,226.41 244.617,244.734 247,249.5 252.541,260.582 254.667,280 271,280 283.393,280 289.645,265.21 294,256.5 294,256.5 297,254.5 297,254.5 297,254.5 297,250.5 297,250.5 299.126,246.248 301.88,242.74 304,238.5 311.372,223.757 317.854,195.208 310,179.5 308.058,175.617 308.779,170.639 303.5,168 298.984,165.742 294.36,166 290,166 290,168.578 296.575,171.351 295,174.5 294.08,176.339 294.867,178.766 294,180.5 292.016,184.469 278.907,192.203 274.5,190 270.714,188.107 274.08,182.79 266.5,179 262.051,176.775 257.614,184 254,184  Z"/>

<path  fill="#0F6DE6" stroke-width="0" stroke="#0F6DE6" d = " M253 183 L254,184 C257.614,184 262.051,176.775 266.5,179 274.08,182.79 270.714,188.107 274.5,190 278.907,192.203 292.016,184.469 294,180.5 294.867,178.766 294.08,176.339 295,174.5 296.575,171.351 290,168.578 290,166 284.543,166 281.976,167.762 277.5,170 275.45,171.025 272.047,168.773 270.5,168 262.475,163.987 258.359,172.782 256,177.5 254.726,180.048 253,179.812 253,183  Z"/>

<path  fill="#FFE300" stroke-width="0" stroke="#FFE300" d = " M217 277 C217,281.889 235.321,276.858 236,275.5 238.611,270.278 241,264.224 241,258 241,256.789 240.374,252 242.5,252 244.73,252 243.529,255.558 244,256.5 246.659,261.818 246.402,268.303 249,273.5 251.377,278.255 262.677,283.911 266.5,282 267.619,281.441 271,281.845 271,280 254.667,280 252.541,260.582 247,249.5 244.617,244.734 249,226.41 249,220.5 249,220.5 248,197.5 248,197.5 248.662,196.177 254,184.395 254,184 254,184 253,183 253,183 248.428,183 249.85,196 245.5,196 243.146,196 243.599,189.698 243,188.5 241.926,186.353 237.053,178 234,178 234,178 234,179 234,179 234,181.137 240.846,188.191 242,190.5 243.888,194.277 242.656,209.187 241,212.5 239.223,216.054 242.807,219.885 241,223.5 237.729,230.042 242.181,240.137 239,246.5 232.796,258.908 236.544,277 217,277  Z"/>

<path  fill="#FA8072" stroke-width="0" stroke="#FA8072" d = " M188 283 C188,290.766 194.488,283 188,283  Z"/>

<path  fill="#30DA00" stroke-width="0" stroke="#30DA00" d = " M324 283 C324,285.064 320.647,283.426 319.5,284 316.271,285.614 306.006,288.512 309,294.5 316.634,309.768 348.291,283 324,283  Z"/>

<path  fill="#30DA00" stroke-width="0" stroke="#30DA00" d = " M170 288 C170,288.994 163.398,293.296 166,298.5 168.118,302.735 177.249,305 182,305 183.204,305 189,304.228 189,302.5 189,292.179 179.335,288 170,288  Z"/>

<path  fill="#FA8072" stroke-width="0" stroke="#FA8072" d = " M190 310 C190,311.93 191.93,310 190,310  Z"/>

<path  fill="#FA8072" stroke-width="0" stroke="#FA8072" d = " M286 369 C286,369.974 281.781,371.937 281,373.5 279.442,376.617 283.012,383.475 282,385.5 281.338,386.824 280.103,389.706 281,391.5 282.554,394.607 287.951,394.402 289,396.5 L289.5,402 L295.5,400 L301.5,402 L301.5,395 L305.5,397 C308.778,398.639 324.371,394.242 321,387.5 320.773,387.046 311.45,378.475 310.5,378 308.923,377.212 302.21,377.92 302,377.5 L302,373.5 C299.302,368.104 290.807,369 286,369  Z"/>

<path  fill="#FA8072" stroke-width="0" stroke="#FA8072" d = " M195 373 L190,377.5 C184.447,388.607 184.918,381.291 177.5,385 173.286,387.107 173.214,393.286 170.5,396 168.873,397.627 166.3,396.9 165,399.5 161.803,405.895 173.846,405.327 176.5,404 176.838,403.831 177.788,397.356 182.5,395 187.271,392.615 207.06,403.22 213.5,400 220.04,396.73 211,393.158 211,389.5 211,387.57 214.581,384.662 214,383.5 L211,381.5 L211,376.5 C208.445,371.39 199.191,373 195,373  Z"/>

</g>
</svg>
