<svg xmlns="http://www.w3.org/2000/svg" xmlns:xlink="http://www.w3.org/1999/xlink" height="512" width="512">
<g>
<rect width="512" height="512" fill="#000000"  stroke-width="0" /> 
<path  fill="#03C12D" stroke-width="0" stroke="#03C12D" d = " M349 139 C373.376,139 393.537,155 419,155 419,153.812 406.477,134.489 403.5,133 402.027,132.264 398.943,133.385 398,131.5 394.38,124.259 387.76,118.63 380.5,115 374.93,112.215 369.87,104.185 363.5,101 363.5,101 352.5,96 352.5,96 352.5,96 343.5,88 343.5,88 339.459,85.9793 334.604,85.052 330.5,83 330.5,83 323.5,83 323.5,83 323.5,83 316.5,78 316.5,78 316.5,78 309.5,78 309.5,78 298.69,72.5952 286.795,78.3527 277.5,83 274.579,84.4603 270.435,84.5325 267.5,86 267.5,86 265,90.5 265,90.5 265,90.5 263,91.5 263,91.5 263,93.2679 261,97.6977 261,98.5 261,100.676 267.157,99.8143 268,101.5 268,101.5 267,104.5 267,104.5 267,104.5 281.5,119 281.5,119 284.994,120.747 304,129.138 304,132 304,132 305,132 305,132 306.321,132 311,131.316 311,133 311,133 313.5,130 313.5,130 313.5,130 324.5,130 324.5,130 324.5,130 332,135 332,135 332,135 333,132 333,132 333,128.228 323.879,125.743 326,121.5 326.51,120.48 334.173,127.336 335.5,128 338.072,129.286 349,135.219 349,139  Z"/>

<path  fill="#03C12D" stroke-width="0" stroke="#03C12D" d = " M130 148 C125.208,148 118.695,151.902 114.5,154 L102.5,156 L92.5,162 C84.7799,165.86 71.233,161 63,161 63,155.412 70.1598,154.18 71,152.5 72.5856,149.329 73.5929,142.954 77.5,141 79.3553,140.072 88.1538,135.192 89,133.5 93.6712,124.158 103.233,120.134 111.5,116 114.936,114.282 115.888,109.306 118.5,108 118.5,108 121.5,108 121.5,108 125.782,105.859 130.387,98.5565 135.5,96 139.963,93.7687 143.928,90.2862 148.5,88 156.332,84.0842 165.514,82.9931 173.5,79 176.144,77.6782 180.447,80 182.5,80 182.5,80 185.5,79 185.5,79 185.5,79 188.5,82 188.5,82 200.129,82 202.322,87.4109 211.5,92 213.405,92.9523 220.01,94.5205 221,96.5 222.861,100.223 223,103.446 223,108 223,108 221,112 221,112 221,112 209.5,120 209.5,120 209.5,120 203.5,121 203.5,121 201.383,122.059 201,123.951 201,126 201,126 200,126 200,126 198.952,126 197,125.527 197,127 197,127 196,127 196,127 191.495,127 189,125.888 189,131 189,131 187,132 187,132 184.842,132 171,131.199 171,133 169.436,133 167.124,132 165,132 165,124.051 162.703,129 158,129 152.881,129 151.803,134 148,134 146.253,134 146,134.253 146,136 146,137.204 135.815,146 134,146 134,146 133,147 133,147 131.952,147 130,146.527 130,148  Z"/>

<path  fill="#DAAA3E" stroke-width="0" stroke="#DAAA3E" d = " M223 108 C225.636,108 226.178,99.8392 230.5,102 233.287,103.393 242.151,109.675 245.5,108 248.025,106.737 254.315,99.4074 257.5,101 262.237,103.368 269.331,112.839 266,119.5 264.285,122.929 249.582,136 245.5,136 243.177,136 239.016,136.258 236.5,135 L234.5,132 C230.634,130.067 227.215,129.93 225,125.5 222.462,120.425 221,118.278 221,112 221,112 223,108 223,108  Z"/>

<path  fill="#FF6E00" stroke-width="0" stroke="#FF6E00" d = " M338 137 C342.61,137 355.229,155.959 357,159.5 358.815,163.13 372.221,163.942 369,157.5 L349,139 C349,135.219 338.072,129.286 335.5,128 334.173,127.336 326.51,120.48 326,121.5 323.879,125.743 333,128.228 333,132 334.548,132 338,135.343 338,137  Z"/>

<path  fill="#EE2F2C" stroke-width="0" stroke="#EE2F2C" d = " M209 195 L205,200.5 C201.132,208.236 179.016,221.758 169.5,217 167.725,216.113 159.726,214 158,214 158,213.508 152.633,204.766 152,203.5 150.574,200.649 153,195.784 153,193.5 153,182.872 154.864,172.773 160,162.5 162.217,158.067 172.079,142.211 176.5,140 178.677,138.912 187,136.148 187,132 187,132 189,131 189,131 190.572,131 196,128.948 196,127 196,127 197,127 197,127 198.048,127 200,127.473 200,126 200,126 201,126 201,126 203.361,126 210.998,125.249 212.5,126 216.214,127.857 234,140.864 234,145 228.891,145 214.543,165.413 212,170.5 210.384,173.733 215,176.574 215,179 215,181.512 209,190.033 209,195  Z"/>

<path  fill="#EE2F2C" stroke-width="0" stroke="#EE2F2C" d = " M337 199 C334.129,199 335.685,202.13 335,203.5 333.324,206.851 329,213.268 329,217 319.543,217 307.936,219.218 299.5,215 293.266,211.883 288.614,206.114 283.5,201 283.5,201 279,195 279,195 279,195 278,184.5 278,184.5 278,184.5 280,182.5 280,182.5 280,182.5 277,180.5 277,180.5 276.544,179.589 278.548,176 275,176 275,176 277,171.5 277,171.5 273.706,164.912 261.118,155.736 260,153.5 260,153.5 261,148.5 261,148.5 261,148.5 258,145 258,145 258,140.416 266.394,136.553 269.5,135 269.5,135 276.5,129 276.5,129 279.174,127.663 294.62,126.56 297.5,128 297.5,128 304,132 304,132 304,132 305,132 305,132 305,133.222 311.549,137 313,137 313,142.44 322.609,147.717 325,152.5 326.545,155.589 326.487,159.474 328,162.5 329.857,166.214 333.123,168.745 335,172.5 335,172.5 335,178.5 335,178.5 338.658,185.816 337,190.94 337,199  Z"/>

<path  fill="#FF6E00" stroke-width="0" stroke="#FF6E00" d = " M113 197 L112,199 C109.659,199 102.375,221.563 99.5,223 96.3724,224.564 94.3741,223 91.5,223 77.2296,223 90.745,197.01 93,192.5 93,192.5 99,183 99,183 99,179.943 118.999,159.501 122.5,156 124.201,154.299 130,150.98 130,148 131.048,148 133,148.473 133,147 133,147 134,146 134,146 135.815,146 146,137.204 146,136 146,136 148,134 148,134 151.803,134 152.881,129 158,129 158,129 157,132 157,132 154.129,132 155.685,135.13 155,136.5 154.078,138.345 148.617,139.267 147,142.5 147,142.5 140,149.5 140,149.5 136.111,157.279 121,174.136 121,181 121,181 120,182 120,182 120,182 119,184 119,184 119,184 118,186 118,186 118,186 117,188 117,188 117,188 115,193 115,193 115,193 114,195 114,195 114,195 113,197 113,197  Z"/>

<path  fill="#DDD951" stroke-width="0" stroke="#DDD951" d = " M337 199 C337,208.059 342.098,232 353,232 353,232 360,226.5 360,226.5 360,226.5 360,220.5 360,220.5 364.651,211.198 362,195.187 362,185 362,179.449 356.335,176.169 354,171.5 354,171.5 352,164.5 352,164.5 348.929,158.358 336,145.207 336,139 336,139 332,135 332,135 332,135 324.5,130 324.5,130 324.5,130 313.5,130 313.5,130 313.5,130 311,133 311,133 311,133 313,137 313,137 313,142.44 322.609,147.717 325,152.5 326.545,155.589 326.487,159.474 328,162.5 329.857,166.214 333.123,168.745 335,172.5 335,172.5 335,178.5 335,178.5 338.658,185.816 337,190.94 337,199  Z"/>

<path  fill="#DDD951" stroke-width="0" stroke="#DDD951" d = " M112 199 L111,204.5 L118,214.5 L121,224.5 C123.585,229.671 130,234.924 130,241 137.321,241 138.934,229.631 141,225.5 148.477,210.546 143.309,189.883 150,176.5 153.89,168.72 158.098,161.304 162,153.5 164.289,148.922 171.042,144.417 173,140.5 174.1,138.3 173.334,133 171,133 169.436,133 167.124,132 165,132 165,132 157,132 157,132 154.129,132 155.685,135.13 155,136.5 154.078,138.345 148.617,139.267 147,142.5 147,142.5 140,149.5 140,149.5 136.111,157.279 121,174.136 121,181 121,181 120,182 120,182 120,182 119,184 119,184 119,184 118,186 118,186 118,186 117,188 117,188 117,188 115,193 115,193 115,193 114,195 114,195 114,195 113,197 113,197 113,197 112,199 112,199  Z"/>

<path  fill="#89D355" stroke-width="0" stroke="#89D355" d = " M362 185 C370.471,185 386.552,173.026 396.5,178 407.624,183.562 415.949,194.725 426.5,200 429.684,201.592 435.319,199 438,199 438,192.544 435.59,191.681 433,186.5 433,186.5 432,178.5 432,178.5 432,178.5 424,165.5 424,165.5 422.857,163.214 423.209,155 419,155 393.537,155 373.376,139 349,139 349,139 369,157.5 369,157.5 372.221,163.942 358.815,163.13 357,159.5 355.229,155.959 342.61,137 338,137 338,137 336,139 336,139 336,145.207 348.929,158.358 352,164.5 352,164.5 354,171.5 354,171.5 356.335,176.169 362,179.449 362,185  Z"/>

<path  fill="#93FF27" stroke-width="0" stroke="#93FF27" d = " M221 179 L220,180 C220,180 215,179 215,179 215,176.574 210.384,173.733 212,170.5 214.543,165.413 228.891,145 234,145 234,145 240.5,146 240.5,146 241.965,146.733 244.55,150.975 246.5,150 251.039,147.73 252.349,145 258,145 258,145 261,148.5 261,148.5 261,148.5 260,153.5 260,153.5 261.118,155.736 273.706,164.912 277,171.5 277,171.5 275,176 275,176 273.426,176 266,175.249 266,177 266,177 261.5,174 261.5,174 259.99,173.245 240.09,171.205 238.5,172 233.694,174.403 226.582,179 221,179  Z"/>

<path  fill="#89D355" stroke-width="0" stroke="#89D355" d = " M133 147 C131.952,147 130,146.527 130,148 131.048,148 133,148.473 133,147  Z"/>

<path  fill="#89D355" stroke-width="0" stroke="#89D355" d = " M99 183 C86.252,183 91.4851,186.507 82.5,191 79.4624,192.519 75.4936,192.503 72.5,194 62.3844,199.058 56.5023,203 44,203 41.9088,203 44,200.137 44,199 44,195.112 48.3521,191.796 50,188.5 50,188.5 55,173.5 55,173.5 55,173.5 60,167.5 60,167.5 60.7333,166.033 60.5113,161 63,161 71.233,161 84.7799,165.86 92.5,162 92.5,162 102.5,156 102.5,156 102.5,156 114.5,154 114.5,154 118.695,151.902 125.208,148 130,148 130,150.98 124.201,154.299 122.5,156 118.999,159.501 99,179.943 99,183  Z"/>

<path  fill-rule="evenodd" fill="#07FF59" stroke-width="0" stroke="#07FF59" d = " M243 182 C243,187.188 235,188.603 235,194.5 L238,202.5 C239.626,205.752 239.298,210.899 243.5,213 245.803,214.151 249.23,208.04 250,206.5 253.688,199.124 257.479,189.989 247.5,185 L243,182  M213 195 C213,203.337 203.379,208.257 208,217.5 208.575,218.65 226.163,231.332 229.5,233 L239.5,234 C240.872,234.686 242.431,243.035 244.5,242 246.609,240.946 246.428,234 250.5,234 257.526,234 279.64,222.221 283,215.5 286.156,209.188 276,200.745 276,195 276,192.322 274.089,191.677 273,189.5 273,189.5 273,183.5 273,183.5 273,183.5 266,177 266,177 266,177 261.5,174 261.5,174 259.99,173.245 240.09,171.205 238.5,172 233.694,174.403 226.582,179 221,179 221,179 220,180 220,180 220,186.018 213,188.38 213,195  Z"/>

<path  fill="#E1970F" stroke-width="0" stroke="#E1970F" d = " M276 195 L279,195 C279,195 278,184.5 278,184.5 278,184.5 280,182.5 280,182.5 280,182.5 277,180.5 277,180.5 276.544,179.589 278.548,176 275,176 273.426,176 266,175.249 266,177 266,177 273,183.5 273,183.5 273,183.5 273,189.5 273,189.5 274.089,191.677 276,192.322 276,195  Z"/>

<path  fill="#FFBB0D" stroke-width="0" stroke="#FFBB0D" d = " M353 232 C353,240.095 360.578,246.657 364,253.5 L365,260.5 L367,263 C369.796,263 372.109,256.282 373,254.5 377.026,246.448 384.834,239.832 389,231.5 390.226,229.049 395.296,227.102 397.5,226 398.508,225.496 402,225.78 402,227 403.606,227 406.339,224.919 408.5,226 416.643,230.072 425.324,232 434,232 434,230.499 432.777,222.947 433,222.5 436.173,216.154 446.53,214.56 442,205.5 441.176,203.851 441.13,199 438,199 435.319,199 429.684,201.592 426.5,200 415.949,194.725 407.624,183.562 396.5,178 386.552,173.026 370.471,185 362,185 362,195.187 364.651,211.198 360,220.5 360,220.5 360,226.5 360,226.5 360,226.5 353,232 353,232  Z"/>

<path  fill="#E1970F" stroke-width="0" stroke="#E1970F" d = " M209 195 L213,195 C213,188.38 220,186.018 220,180 220,180 215,179 215,179 215,181.512 209,190.033 209,195  Z"/>

<path  fill="#E1970F" stroke-width="0" stroke="#E1970F" d = " M221 179 L220,180 C220,180 221,179 221,179  Z"/>

<path  fill="#89D355" stroke-width="0" stroke="#89D355" d = " M121 181 L120,182 C120,182 121,181 121,181  Z"/>

<path  fill="#FFBB0D" stroke-width="0" stroke="#FFBB0D" d = " M130 241 C130,244.454 120.979,263 118,263 118,258.423 109.314,253.814 106.5,251 102.346,246.846 101.352,243.203 99,238.5 99,238.5 89.5,230 89.5,230 89.5,230 86.5,226 86.5,226 86.5,226 82,227 82,227 77.7443,227 73.826,231 70,231 67.3873,231 65.6398,231.93 63.5,233 59.8517,234.824 52.2253,233 49,233 49,231.382 51.3777,228.255 51,227.5 49.6906,224.881 42.9093,221.319 40,215.5 37.4129,210.326 44,206.683 44,203 56.5023,203 62.3844,199.058 72.5,194 75.4936,192.503 79.4624,192.519 82.5,191 91.4851,186.507 86.252,183 99,183 99,183 93,192.5 93,192.5 90.745,197.01 77.2296,223 91.5,223 94.3741,223 96.3724,224.564 99.5,223 102.375,221.563 109.659,199 112,199 112,199 111,204.5 111,204.5 111,204.5 118,214.5 118,214.5 118,214.5 121,224.5 121,224.5 123.585,229.671 130,234.924 130,241  Z"/>

<path  fill="#89D355" stroke-width="0" stroke="#89D355" d = " M120 182 L119,184 C119,184 120,182 120,182  Z"/>

<path  fill="#022CFF" stroke-width="0" stroke="#022CFF" d = " M243 182 C243,187.188 235,188.603 235,194.5 L238,202.5 C239.626,205.752 239.298,210.899 243.5,213 245.803,214.151 249.23,208.04 250,206.5 253.688,199.124 257.479,189.989 247.5,185 L243,182  Z"/>

<path  fill="#89D355" stroke-width="0" stroke="#89D355" d = " M119 184 L118,186 C118,186 119,184 119,184  Z"/>

<path  fill="#89D355" stroke-width="0" stroke="#89D355" d = " M118 186 L117,188 C117,188 118,186 118,186  Z"/>

<path  fill="#FFBB0D" stroke-width="0" stroke="#FFBB0D" d = " M115 193 L114,195 C114,195 115,193 115,193  Z"/>

<path  fill="#FFBB0D" stroke-width="0" stroke="#FFBB0D" d = " M114 195 L113,197 C113,197 114,195 114,195  Z"/>

<path  fill="#9953FF" stroke-width="0" stroke="#9953FF" d = " M228 311 C233.707,311 232.51,308.995 236.5,307 239.826,305.337 240.777,311.362 243.5,310 L249.5,308 C252.555,309.527 255.442,314 259,314 259,311.591 261.359,308 264,308 264,305.614 273,301.988 273,306 273,306 283.5,302 283.5,302 283.5,302 292,303 292,303 295.406,303 302,297.471 302,306 302,306 305,302 305,302 305,300.666 310,296.427 310,295 310,295 311,294 311,294 311,294 312,293 312,293 312,293 313,292 313,292 313,287.845 323.201,276.098 325,272.5 325,272.5 327,246.5 327,246.5 327,246.5 331,237 331,237 331,237 330,221.5 330,221.5 330,220.31 330.614,217 329,217 319.543,217 307.936,219.218 299.5,215 293.266,211.883 288.614,206.114 283.5,201 283.5,201 279,195 279,195 279,195 276,195 276,195 276,200.745 286.156,209.188 283,215.5 279.64,222.221 257.526,234 250.5,234 246.428,234 246.609,240.946 244.5,242 242.431,243.035 240.872,234.686 239.5,234 239.5,234 229.5,233 229.5,233 226.163,231.332 208.575,218.65 208,217.5 203.379,208.257 213,203.337 213,195 213,195 209,195 209,195 209,195 205,200.5 205,200.5 201.132,208.236 179.016,221.758 169.5,217 167.725,216.113 159.726,214 158,214 158,219.396 161.038,246.575 163,250.5 163,250.5 163,258.5 163,258.5 163,258.5 164.5,262 164.5,262 164.5,262 168,262.5 168,262.5 168,265.879 166.103,272.706 168,276.5 169.574,279.648 172,282.183 172,286 172,289.626 183,294.939 183,301 183,301 185,301 185,301 185,297.699 193,296.713 193,301 195.319,301 196.583,295.542 199.5,297 203.305,298.902 206.475,303 211,303 211,302.423 221,303.304 221,308 224.667,308 227.811,311 228,311  Z"/>

<path  fill="#FFBB0D" stroke-width="0" stroke="#FFBB0D" d = " M113 197 L112,199 C112,199 113,197 113,197  Z"/>

<path  fill="#41FF27" stroke-width="0" stroke="#41FF27" d = " M118 263 C118,271.384 99.377,282 93,282 93,282 91.5,272 91.5,272 89.7593,272 92.7409,282 89.5,282 86.2289,282 84.8984,272.297 84,270.5 80.4309,263.362 82,236.94 82,227 82,227 86.5,226 86.5,226 86.5,226 89.5,230 89.5,230 89.5,230 99,238.5 99,238.5 101.352,243.203 102.346,246.846 106.5,251 109.314,253.814 118,258.423 118,263  Z"/>

<path  fill="#41FF27" stroke-width="0" stroke="#41FF27" d = " M367 263 C367,267.311 372.116,266.616 374.5,269 380.451,274.951 382.147,276.324 389.5,280 L400.5,280 C401.69,280.595 403.847,281.826 405.5,281 L410,277 C410,268.967 409.998,248.495 407,242.5 405.891,240.282 404.067,238.633 403,236.5 403,236.5 403,230.5 403,230.5 402.344,229.188 398,230.975 398,228.5 398,228.5 402,227 402,227 402,225.78 398.508,225.496 397.5,226 395.296,227.102 390.226,229.049 389,231.5 384.834,239.832 377.026,246.448 373,254.5 372.109,256.282 369.796,263 367,263  Z"/>

<path  fill="#8B008B" stroke-width="0" stroke="#8B008B" d = " M434 232 L438,237.5 C442.585,246.67 433.365,264.77 430,271.5 427.51,276.48 420.622,278 416,278 414.679,278 410,278.684 410,277 410,268.967 409.998,248.495 407,242.5 405.891,240.282 404.067,238.633 403,236.5 403,236.5 403,230.5 403,230.5 402.344,229.188 398,230.975 398,228.5 398,228.5 402,227 402,227 403.606,227 406.339,224.919 408.5,226 416.643,230.072 425.324,232 434,232  Z"/>

<path  fill="#8B008B" stroke-width="0" stroke="#8B008B" d = " M46 249 C46,257.624 47.6777,275.089 57.5,280 L66.5,282 L69.5,285 C71.674,286.087 84.2285,284.136 86.5,283 88.357,282.071 93,285.938 93,282 93,282 91.5,272 91.5,272 89.7593,272 92.7409,282 89.5,282 86.2289,282 84.8984,272.297 84,270.5 80.4309,263.362 82,236.94 82,227 77.7443,227 73.826,231 70,231 70,235.015 49.8874,249 46,249  Z"/>

<path  fill="#7F81FF" stroke-width="0" stroke="#7F81FF" d = " M49 233 C43.7001,233 45.6607,249 46,249 49.8874,249 70,235.015 70,231 67.3873,231 65.6398,231.93 63.5,233 59.8517,234.824 52.2253,233 49,233  Z"/>

<path  fill="#FA8072" stroke-width="0" stroke="#FA8072" d = " M311 315 L311,316 C311,317.769 314.9,328.3 317.5,327 317.5,327 322,324 322,324 322,324 330.5,324 330.5,324 341.576,318.462 361.397,285.449 344.5,277 338.896,274.198 335.924,283 333,283 333,285.988 316.487,311 313,311 313,311 312,314 312,314 312,314 311,315 311,315  Z"/>

<path  fill="#FA8072" stroke-width="0" stroke="#FA8072" d = " M144 279 C144,282.271 139.102,281.296 138,283.5 136.778,285.944 136.091,293.682 137,295.5 140.007,301.515 142.94,307.38 146,313.5 147.501,316.503 160.989,328.756 164.5,327 165.812,326.344 164.025,322 166.5,322 168.547,322 168.868,328.816 172.5,327 179.731,323.384 172.25,318.999 172,318.5 L172,312.5 L168,307.5 C167.427,306.355 168.914,304.327 168,302.5 166.839,300.177 163.861,298.221 163,296.5 158.856,288.211 154.832,279 144,279  Z"/>

<path  fill="#86CC4C" stroke-width="0" stroke="#86CC4C" d = " M305 302 C305,307.576 307.231,311 313,311 316.487,311 333,285.988 333,283 333,283 331,280.5 331,280.5 325.272,274.772 319.546,292 313,292 313,292 312,293 312,293 312,293 311,294 311,294 311,294 310,295 310,295 310,296.427 305,300.666 305,302  Z"/>

<path  fill="#86CC4C" stroke-width="0" stroke="#86CC4C" d = " M183 301 C183,303.709 180.081,309 177,309 173.133,309 155.234,286.633 164.5,282 164.5,282 172,286 172,286 172,289.626 183,294.939 183,301  Z"/>

<path  fill="#FF3427" stroke-width="0" stroke="#FF3427" d = " M221 308 C224.667,308 227.811,311 228,311 228,318.49 217.997,319.749 212.5,317 206.911,314.205 195.186,312.873 192,306.5 191.022,304.544 193,302.423 193,301 195.319,301 196.583,295.542 199.5,297 203.305,298.902 206.475,303 211,303 211,305.435 219.045,308 221,308  Z"/>

<path  fill="#00D70B" stroke-width="0" stroke="#00D70B" d = " M228 311 C233.707,311 232.51,308.995 236.5,307 239.826,305.337 240.777,311.362 243.5,310 L249.5,308 C252.555,309.527 255.442,314 259,314 259,314 263.5,318 263.5,318 265.556,319.028 269.916,317.792 271.5,317 271.5,317 281.5,317 281.5,317 285.414,315.043 292,307.657 292,303 295.406,303 302,297.471 302,306 302,321.316 294.371,328.065 282.5,334 276.178,337.161 274.19,339 267.5,339 267.5,339 265.5,340 265.5,340 260.16,337.33 254.868,334.684 249.5,332 249.5,332 243.5,325 243.5,325 243.5,325 237.5,331 237.5,331 237.5,331 231.5,336 231.5,336 229.425,337.038 226.675,336.912 224.5,338 222.749,338.876 214.24,336.87 212.5,336 212.5,336 205.5,335 205.5,335 189.426,326.963 185,319.383 185,301 185,297.699 193,296.713 193,301 193,302.423 191.022,304.544 192,306.5 195.186,312.873 206.911,314.205 212.5,317 217.997,319.749 228,318.49 228,311  Z"/>

<path  fill="#80AAFF" stroke-width="0" stroke="#80AAFF" d = " M311 315 L311,316 C311,316 302,325.5 302,325.5 295.613,331.887 288.548,336.976 280.5,341 268.428,347.036 255.989,343.744 244.5,338 241.945,336.722 229.611,342 225,342 204.336,342 189.672,333.843 181,316.5 179.845,314.189 177,312.811 177,309 180.081,309 183,303.709 183,301 183,301 185,301 185,301 185,319.383 189.426,326.963 205.5,335 205.5,335 212.5,336 212.5,336 214.24,336.87 222.749,338.876 224.5,338 226.675,336.912 229.425,337.038 231.5,336 231.5,336 237.5,331 237.5,331 237.5,331 243.5,325 243.5,325 243.5,325 249.5,332 249.5,332 254.868,334.684 260.16,337.33 265.5,340 265.5,340 267.5,339 267.5,339 274.19,339 276.178,337.161 282.5,334 294.371,328.065 302,321.316 302,306 302,306 305,302 305,302 305,307.576 307.231,311 313,311 313,311 312,314 312,314 312,314 311,315 311,315  Z"/>

<path  fill="#00D70B" stroke-width="0" stroke="#00D70B" d = " M211 303 C211,305.435 219.045,308 221,308 221,303.304 211,302.423 211,303  Z"/>

<path  fill="#FF3427" stroke-width="0" stroke="#FF3427" d = " M264 308 C261.359,308 259,311.591 259,314 259,314 263.5,318 263.5,318 265.556,319.028 269.916,317.792 271.5,317 271.5,317 281.5,317 281.5,317 285.414,315.043 292,307.657 292,303 292,303 283.5,302 283.5,302 283.5,302 273,306 273,306 273,306 264,308 264,308  Z"/>

<path  fill="#00D70B" stroke-width="0" stroke="#00D70B" d = " M273 306 L264,308 C264,305.614 273,301.988 273,306  Z"/>

</g>
</svg>
