<svg xmlns="http://www.w3.org/2000/svg" xmlns:xlink="http://www.w3.org/1999/xlink" height="512" width="512">
<g>
<rect width="512" height="512" fill="#000000"  stroke-width="0" /> 
<path  fill="#03C12D" stroke-width="0" stroke="#03C12D" d = " M437 177 C434.591,177 435.945,178.277 434.5,179 430.491,181.005 411.249,179 407,179 404.798,179 399,180.226 399,183 398.971,183 385.767,162.634 382.5,161 375.237,157.369 369.757,150.128 363.5,147 363.5,147 358.5,141 358.5,141 348.43,135.965 339.439,127.97 329.5,123 323.601,120.05 318.307,115.904 312.5,113 311.448,112.474 306.254,108.991 305,111.5 303.423,114.654 318,117.877 318,124 318,124 317,125 317,125 312.834,125 306.765,131 302,131 302,131 296.5,128 296.5,128 289.879,124.69 280.246,127.373 273.5,124 271.951,123.226 261.509,116 261,116 261,116 252,104 252,104 252,98.3315 246.274,91.9513 249,86.5 250.638,83.2232 257.728,83.386 260.5,82 260.5,82 263.5,79 263.5,79 263.5,79 273.5,78 273.5,78 273.5,78 276.5,75 276.5,75 281.095,72.7025 310.518,71.509 315.5,74 319.228,75.864 325.784,75.6419 330.5,78 330.5,78 336.5,82 336.5,82 336.5,82 338.5,81 338.5,81 338.5,81 345.5,87 345.5,87 347.892,88.1958 351.173,87.8365 353.5,89 359.671,92.0857 364.234,97.8668 370.5,101 370.5,101 377.5,103 377.5,103 380.322,104.411 381.956,109.228 383.5,110 383.5,110 388.5,110 388.5,110 392.05,111.775 394.672,117.086 396.5,118 401.656,120.578 419.88,138.26 422,142.5 422,142.5 422,145.5 422,145.5 422,145.5 428,153.5 428,153.5 428,153.5 430,161.5 430,161.5 430,161.5 433,162.5 433,162.5 433,162.5 433,168.5 433,168.5 434.125,170.749 437,174.503 437,177  Z"/>

<path  fill="#03C12D" stroke-width="0" stroke="#03C12D" d = " M47 183 L52.5,185 C56.9447,187.222 69.2919,181.896 75.5,185 77.1785,185.839 84,186.465 84,189 84.4621,189 98.8944,169.606 101.5,167 114.437,154.063 139.297,135.101 155.5,127 155.5,127 167.5,119 167.5,119 168.507,119 171.128,116.757 172,118.5 173.188,120.876 165,126.283 165,128 170.409,128 181,130.809 181,136 187.298,136 198.395,128 199,128 199,128 200,127 200,127 200,127 207.5,128 207.5,128 213.574,124.963 215.638,121 223,121 223,119.309 230,108.344 230,105 230,102.093 232.251,96.0023 231,93.5 229.809,91.1177 228.155,92.8274 226.5,92 223.951,90.7253 222.53,87.5148 219.5,86 219.5,86 215.5,86 215.5,86 215.5,86 210.5,81 210.5,81 203.8,77.6499 196.526,79 189.5,79 189.5,79 187.5,75 187.5,75 184.441,73.4705 165.159,76.6704 162.5,78 148.381,85.0596 133.268,92.616 118.5,100 118.5,100 113.5,106 113.5,106 96.9662,114.267 76.5801,125.34 68,142.5 68,142.5 62,148.5 62,148.5 62,148.5 63,153.5 63,153.5 61.4095,156.681 58.9247,152.651 58,154.5 54.9797,160.541 47,176.599 47,183  Z"/>

<path  fill="#DAAA3E" stroke-width="0" stroke="#DAAA3E" d = " M261 116 C261,125.102 255.189,132.155 247.5,136 238.126,140.687 229.188,130.876 226,124.5 L223,121 C223,119.309 230,108.344 230,105 233.473,105 233.286,118.607 238.5,116 240.857,114.821 245.601,114.298 247,111.5 247.785,109.93 249.554,104 252,104 252,104 261,116 261,116  Z"/>

<path  fill="#FF6E00" stroke-width="0" stroke="#FF6E00" d = " M405 250 C401.664,250 399.663,254 394,254 394,247.172 404,243.227 404,235.5 404,225.273 408.262,214.024 402,201.5 402,201.5 402,196.5 402,196.5 400.296,193.091 396.246,188.991 395,186.5 392.636,181.771 388.804,176.152 384.5,174 384.5,174 378.5,166 378.5,166 375.553,164.526 365.734,160.383 362.5,162 360.421,163.039 354.101,165.3 351.5,164 349.306,162.903 334.64,136.07 328.5,133 325.188,131.344 324.47,125 320,125 320,125 318,124 318,124 318,117.877 303.423,114.654 305,111.5 306.254,108.991 311.448,112.474 312.5,113 318.307,115.904 323.601,120.05 329.5,123 339.439,127.97 348.43,135.965 358.5,141 358.5,141 363.5,147 363.5,147 369.757,150.128 375.237,157.369 382.5,161 385.767,162.634 398.971,183 399,183 399,186.757 403,188.09 403,192 403,193.238 403.423,195 405,195 405,195 406,199 406,199 406,199 407,200 407,200 407,200 407,202 407,202 407,202 408,203 408,203 408,203 408,206 408,206 408,206 409,208 409,208 409,208 409,210 409,210 409,210 410,211 410,211 410,211 410,219 410,219 410,219 410,220 410,220 410,220 410,224 410,224 410,224 410,227 410,227 410,227 409,228 409,228 409,228 409,235 409,235 407.514,235 407.514,238 409,238 409,238 406,249 406,249 406,249 405,250 405,250  Z"/>

<path  fill="#022CFF" stroke-width="0" stroke="#022CFF" d = " M334 183 L335,183 C335,174.74 317.422,152.343 313,143.5 313,143.5 302,131 302,131 302,131 296.5,128 296.5,128 289.879,124.69 280.246,127.373 273.5,124 271.951,123.226 261.509,116 261,116 261,125.102 255.189,132.155 247.5,136 238.126,140.687 229.188,130.876 226,124.5 226,124.5 223,121 223,121 215.638,121 213.574,124.963 207.5,128 207.5,128 200,127 200,127 200,127 199,128 199,128 198.395,128 187.298,136 181,136 181,136 176,143.5 176,143.5 173.688,148.124 159,160.043 159,168 159,168 158,169 158,169 158,174.442 143.71,194 152,194 152,183.986 173.104,161 183,161 183,143.159 218.647,128.574 233.5,136 233.5,136 243,143.5 243,143.5 243,143.5 245.5,148 245.5,148 245.5,148 247,142.5 247,142.5 247,142.5 255.5,136 255.5,136 267.587,129.957 291.237,133.973 297,145.5 300.681,152.861 304,146.889 304,158 310.834,158 321.389,161.277 325,168.5 325.849,170.199 333.549,183 334,183  Z"/>

<path  fill="#FF6E00" stroke-width="0" stroke="#FF6E00" d = " M82 261 C83.9463,261 85.8848,261 87.5,261 L90.5,263 L92.5,261 L94.5,263 C95.9215,263.711 98,261.12 98,263 98,263 101,260 101,260 99.981,260 94.7216,257.611 93.5,257 93.5,257 85.5,256 85.5,256 79.8573,253.179 81.1215,246.743 79,242.5 72.6266,229.753 77.1273,209.245 83,197.5 89.5564,184.387 105.975,170.262 118.5,164 124.925,160.787 129.32,173.18 136,166.5 140.953,161.547 153.132,145.236 156,139.5 157.237,137.026 160.884,128 165,128 165,126.283 173.188,120.876 172,118.5 171.128,116.757 168.507,119 167.5,119 167.5,119 155.5,127 155.5,127 139.297,135.101 114.437,154.063 101.5,167 98.8944,169.606 84.4621,189 84,189 84,191.431 78.3097,199.881 77,202.5 77,202.5 74,220 74,220 74,221.926 73.2052,235 72,235 72,241.658 76,248.812 76,255 76,255 82,261 82,261  Z"/>

<path  fill="#DDD951" stroke-width="0" stroke="#DDD951" d = " M388 254 L394,254 C394,247.172 404,243.227 404,235.5 404,225.273 408.262,214.024 402,201.5 402,201.5 402,196.5 402,196.5 400.296,193.091 396.246,188.991 395,186.5 392.636,181.771 388.804,176.152 384.5,174 384.5,174 378.5,166 378.5,166 375.553,164.526 365.734,160.383 362.5,162 360.421,163.039 354.101,165.3 351.5,164 349.306,162.903 334.64,136.07 328.5,133 325.188,131.344 324.47,125 320,125 320,125 317,125 317,125 312.834,125 306.765,131 302,131 302,131 313,143.5 313,143.5 317.422,152.343 335,174.74 335,183 339.342,183 341.97,199.44 343,201.5 347.582,210.665 349.366,234.767 344,245.5 341.435,250.631 345.924,260 349,260 349,257.113 354.022,258.478 355.5,257 359.482,253.018 384,241.342 384,252 384,252 388,254 388,254  Z"/>

<path  fill="#DDD951" stroke-width="0" stroke="#DDD951" d = " M106 257 C104.234,257 101,257.607 101,260 99.981,260 94.7216,257.611 93.5,257 93.5,257 85.5,256 85.5,256 79.8573,253.179 81.1215,246.743 79,242.5 72.6266,229.753 77.1273,209.245 83,197.5 89.5564,184.387 105.975,170.262 118.5,164 124.925,160.787 129.32,173.18 136,166.5 140.953,161.547 153.132,145.236 156,139.5 157.237,137.026 160.884,128 165,128 170.409,128 181,130.809 181,136 181,136 176,143.5 176,143.5 173.688,148.124 159,160.043 159,168 159,168 158,169 158,169 156.676,169 149.011,183.477 148,185.5 144.23,193.039 141.716,201.069 138,208.5 138,208.5 138,216.5 138,216.5 138,216.5 135,219.5 135,219.5 131.743,226.014 136.18,239.859 139,245.5 141.52,250.54 139.35,267 132,267 130.243,267 127.716,260.931 127,259.5 124.46,254.42 106,243.332 106,257  Z"/>

<path  fill="#5600DD" stroke-width="0" stroke="#5600DD" d = " M183 161 L183,163 C188.122,163 191.929,156.785 195.5,155 203.314,151.093 211.68,147.91 219.5,144 229.413,139.043 236.944,154 237.5,154 238.491,154 252.15,152.675 253.5,152 254.858,151.321 261.06,140.28 268.5,144 275.318,147.409 284.774,149.137 292.5,153 295.532,154.516 299.603,160 303,160 303,160 304,158 304,158 304,146.889 300.681,152.861 297,145.5 291.237,133.973 267.587,129.957 255.5,136 255.5,136 247,142.5 247,142.5 247,142.5 245.5,148 245.5,148 245.5,148 243,143.5 243,143.5 243,143.5 233.5,136 233.5,136 218.647,128.574 183,143.159 183,161  Z"/>

<path  fill="#E1970F" stroke-width="0" stroke="#E1970F" d = " M277 201 C277,182.413 268.843,173 250,173 246.226,173 243.688,171.406 240.5,173 L228.5,173 C215.455,179.523 212,189.062 212,203 209.196,203 204.127,207.314 201.5,206 194.159,202.329 179,192.421 179,183 179,183 178,175.5 178,175.5 180.185,171.13 183,167.928 183,163 188.122,163 191.929,156.785 195.5,155 203.314,151.093 211.68,147.91 219.5,144 229.413,139.043 236.944,154 237.5,154 238.491,154 252.15,152.675 253.5,152 254.858,151.321 261.06,140.28 268.5,144 275.318,147.409 284.774,149.137 292.5,153 295.532,154.516 299.603,160 303,160 303,164.474 308.977,171.454 311,175.5 311,175.5 312,188 312,188 312,202.938 286.046,201 277,201  Z"/>

<path  fill="#EE2F2C" stroke-width="0" stroke="#EE2F2C" d = " M312 188 C317.521,188 316,193.841 316,196.5 L320,200.5 C322.32,205.141 322.614,210.729 325,215.5 326.18,217.86 326.192,225 331,225 334.333,225 333.981,215.538 335,213.5 342.217,199.066 334,195.778 334,183 333.549,183 325.849,170.199 325,168.5 321.389,161.277 310.834,158 304,158 304,158 303,160 303,160 303,164.474 308.977,171.454 311,175.5 311,175.5 312,188 312,188  Z"/>

<path  fill="#EE2F2C" stroke-width="0" stroke="#EE2F2C" d = " M152 194 C152,199.733 148.859,209.218 152,215.5 L157,221.5 C157.905,223.309 156.097,228 160,228 165.386,228 166,219.593 166,216 166,216 166,201.5 166,201.5 168.043,197.413 173.273,183 179,183 179,183 178,175.5 178,175.5 180.185,171.13 183,167.928 183,163 183,163 183,161 183,161 173.104,161 152,183.986 152,194  Z"/>

<path  fill-rule="evenodd" fill="#07FF59" stroke-width="0" stroke="#07FF59" d = " M244 187 C244,192.086 237.453,192.595 236,195.5 234.868,197.763 240.142,200.784 241,202.5 242.816,206.132 243.656,210.187 246,205.5 247.313,202.874 254.705,197.909 253,194.5 L250.5,194 L244,187  M246 237 L245,238 C245,239.053 243.525,239.55 243,238.5 243,238.5 241.5,234 241.5,234 237.539,232.02 233.588,230.044 229.5,228 227.719,227.11 213.663,220.825 213,219.5 211.193,215.886 216.347,212.193 215,209.5 214.421,208.343 212,204.009 212,203 212,189.062 215.455,179.523 228.5,173 228.5,173 240.5,173 240.5,173 243.688,171.406 246.226,173 250,173 268.843,173 277,182.413 277,201 277,201 274,207.5 274,207.5 274,218.012 280.258,219.121 266.5,226 263.444,227.528 259.439,227.53 256.5,229 254.117,230.192 255.134,232.683 252.5,234 252.5,234 247.5,233 247.5,233 247.5,233 246,237 246,237  Z"/>

<path  fill="#89D355" stroke-width="0" stroke="#89D355" d = " M411 220 C411,221.239 421.971,222.236 423.5,223 425.844,224.172 440.35,231 442,231 446.256,231 449,224.269 449,220.5 449,216.211 444.485,188.47 443,185.5 443,185.5 437,177 437,177 434.591,177 435.945,178.277 434.5,179 430.491,181.005 411.249,179 407,179 404.798,179 399,180.226 399,183 399,186.757 403,188.09 403,192 404.577,192 405,193.762 405,195 405,195 406,199 406,199 406,199 407,200 407,200 407,200 407,202 407,202 407,202 408,203 408,203 408,203 408,206 408,206 408,206 409,208 409,208 409,208 409,210 409,210 409,210 410,211 410,211 410,211 410,219 410,219 410,219 411,220 411,220  Z"/>

<path  fill="#89D355" stroke-width="0" stroke="#89D355" d = " M74 220 C70.2074,220 65.6901,220.405 62.5,222 L36,222 C36,209.886 35.6015,201.297 41,190.5 42.3192,187.862 42.5785,183 47,183 47,183 52.5,185 52.5,185 56.9447,187.222 69.2919,181.896 75.5,185 77.1785,185.839 84,186.465 84,189 84,191.431 78.3097,199.881 77,202.5 77,202.5 74,220 74,220  Z"/>

<path  fill="#9953FF" stroke-width="0" stroke="#9953FF" d = " M262 305 L263,305 C263,300.923 284.671,292.415 289.5,290 289.5,290 295.5,282 295.5,282 298.018,280.741 300.953,281 304,281 304,277.81 313.214,267.073 315,263.5 317.331,258.838 317.7,253.1 320,248.5 320,248.5 323,246.5 323,246.5 326.448,239.604 331,233.44 331,225 326.192,225 326.18,217.86 325,215.5 322.614,210.729 322.32,205.141 320,200.5 320,200.5 316,196.5 316,196.5 316,193.841 317.521,188 312,188 312,202.938 286.046,201 277,201 277,201 274,207.5 274,207.5 274,218.012 280.258,219.121 266.5,226 263.444,227.528 259.439,227.53 256.5,229 254.117,230.192 255.134,232.683 252.5,234 252.5,234 247.5,233 247.5,233 247.5,233 246,237 246,237 246,237 245,238 245,238 245,239.053 243.525,239.55 243,238.5 243,238.5 241.5,234 241.5,234 237.539,232.02 233.588,230.044 229.5,228 227.719,227.11 213.663,220.825 213,219.5 211.193,215.886 216.347,212.193 215,209.5 214.421,208.343 212,204.009 212,203 209.196,203 204.127,207.314 201.5,206 194.159,202.329 179,192.421 179,183 173.273,183 168.043,197.413 166,201.5 166,201.5 166,216 166,216 166,219.593 165.386,228 160,228 160,235.823 172.105,260.71 176,268.5 177.385,271.271 180,272.562 180,276 187.408,276 203.572,294.036 211.5,298 213.351,298.926 222,301.317 222,304 222,304 226,302 226,302 226,298.823 230.613,295.274 232,292.5 233.807,288.886 228.653,285.193 230,282.5 230,282.5 236.5,281 236.5,281 248.248,275.126 240.575,276.537 251.5,282 252.563,282.532 254.971,279.441 256,281.5 257.837,285.173 253,285.249 253,289 253,293.872 257,296.634 257,301 257,301 257,302 257,302 257,302 258,303 258,303 258,303 262,305 262,305  Z"/>

<path  fill="#022CFF" stroke-width="0" stroke="#022CFF" d = " M244 187 C244,192.086 237.453,192.595 236,195.5 234.868,197.763 240.142,200.784 241,202.5 242.816,206.132 243.656,210.187 246,205.5 247.313,202.874 254.705,197.909 253,194.5 L250.5,194 L244,187  Z"/>

<path  fill="#03C12D" stroke-width="0" stroke="#03C12D" d = " M403 192 C404.577,192 405,193.762 405,195 403.423,195 403,193.238 403,192  Z"/>

<path  fill="#DD6479" stroke-width="0" stroke="#DD6479" d = " M72 235 C62.63,235 55.5419,241 46,241 46,241 39,234.5 39,234.5 36.5929,229.686 36,226.814 36,222 36,222 62.5,222 62.5,222 65.6901,220.405 70.2074,220 74,220 74,221.926 73.2052,235 72,235  Z"/>

<path  fill="#DD6479" stroke-width="0" stroke="#DD6479" d = " M442 231 L437,238 C430.271,238 415.905,224 410,224 410,224 410,220 410,220 410,220 411,220 411,220 411,221.239 421.971,222.236 423.5,223 425.844,224.172 440.35,231 442,231  Z"/>

<path  fill="#2E8B57" stroke-width="0" stroke="#2E8B57" d = " M406 249 C410.076,249 413.973,255 417.5,255 418.671,255 417.127,250.813 419.5,252 420.935,252.718 419.872,256.686 422.5,258 426.232,259.866 429.812,262.156 433.5,264 436.508,265.504 438.448,271 442,271 442,267.439 449.24,256.98 445,248.5 444.358,247.216 444.594,245.687 444,244.5 444,244.5 437,238 437,238 430.271,238 415.905,224 410,224 410,224 410,227 410,227 410,227 409,228 409,228 409,228 409,235 409,235 409,235 409,238 409,238 409,238 406,249 406,249  Z"/>

<path  fill="#2E8B57" stroke-width="0" stroke="#2E8B57" d = " M76 255 C76,256.424 69.7575,259.371 68.5,260 63.3294,262.585 45.3871,276 41,276 41,276 38,269.5 38,269.5 38,269.5 39,250.5 39,250.5 39.9971,248.506 46,242.871 46,241 55.5419,241 62.63,235 72,235 72,241.658 76,248.812 76,255  Z"/>

<path  fill="#FFBB0D" stroke-width="0" stroke="#FFBB0D" d = " M349 260 C349,261.691 355,274.457 355,277 361.283,277 378.679,252 384,252 384,241.342 359.482,253.018 355.5,257 354.022,258.478 349,257.113 349,260  Z"/>

<path  fill="#7F81FF" stroke-width="0" stroke="#7F81FF" d = " M442 271 C442,275.348 439.739,275.021 438,278.5 429.37,295.76 422.083,289 409,289 409,289 411,287.5 411,287.5 411,287.5 410,269.5 410,269.5 410,269.5 403,254 403,254 403,254 405,250 405,250 405,250 406,249 406,249 410.076,249 413.973,255 417.5,255 418.671,255 417.127,250.813 419.5,252 420.935,252.718 419.872,256.686 422.5,258 426.232,259.866 429.812,262.156 433.5,264 436.508,265.504 438.448,271 442,271  Z"/>

<path  fill="#FFBB0D" stroke-width="0" stroke="#FFBB0D" d = " M132 267 C132,267.893 132.156,277.188 132,277.5 L130,280 C125.689,280 125.727,274.613 122.5,273 117.353,270.426 106,263.495 106,257 106,243.332 124.46,254.42 127,259.5 127.716,260.931 130.243,267 132,267  Z"/>

<path  fill="#41FF27" stroke-width="0" stroke="#41FF27" d = " M355 277 C355,291.65 370.639,287.931 378.5,284 L383.5,284 L386,282 C386,279.74 386.241,261.017 387,259.5 387,259.5 389,257 389,257 389,257 388,254 388,254 388,254 384,252 384,252 378.679,252 361.283,277 355,277  Z"/>

<path  fill="#8B008B" stroke-width="0" stroke="#8B008B" d = " M386 282 C386,283.647 393.176,283.338 394.5,284 397.621,285.561 405.68,289 409,289 409,289 411,287.5 411,287.5 411,287.5 410,269.5 410,269.5 410,269.5 403,254 403,254 399.025,254 393.32,257 389,257 389,257 387,259.5 387,259.5 386.241,261.017 386,279.74 386,282  Z"/>

<path  fill="#7F81FF" stroke-width="0" stroke="#7F81FF" d = " M41 276 L44,282.5 C48.7384,291.977 54.0078,291.754 62.5,296 65.879,297.69 69.1614,294 72,294 72,284.881 73.2416,277.017 77,269.5 77.9542,267.592 78.531,261 82,261 82,261 76,255 76,255 76,256.424 69.7575,259.371 68.5,260 63.3294,262.585 45.3871,276 41,276  Z"/>

<path  fill="#41FF27" stroke-width="0" stroke="#41FF27" d = " M130 280 C130,304.405 107.848,287 99,287 99,279.783 98,270.895 98,263 98,263 101,260 101,260 101,257.607 104.234,257 106,257 106,263.495 117.353,270.426 122.5,273 125.727,274.613 125.689,280 130,280  Z"/>

<path  fill="#8B008B" stroke-width="0" stroke="#8B008B" d = " M99 287 C88.1134,287 81.0507,294 72,294 72,284.881 73.2416,277.017 77,269.5 77.9542,267.592 78.531,261 82,261 83.9463,261 85.8848,261 87.5,261 87.5,261 90.5,263 90.5,263 90.5,263 92.5,261 92.5,261 92.5,261 94.5,263 94.5,263 95.9215,263.711 98,261.12 98,263 98,270.895 99,279.783 99,287  Z"/>

<path  fill="#FF3427" stroke-width="0" stroke="#FF3427" d = " M208 307 C209.145,307 212,306.421 212,308 216.115,308 218.359,305 222,305 222,305 222,304 222,304 222,301.317 213.351,298.926 211.5,298 203.572,294.036 187.408,276 180,276 177.582,276 181,281.511 181,283 181,292.785 190,297.582 190,300 195.833,300 200.705,306 205,306 205,306 207,307 207,307 207,307 208,307 208,307  Z"/>

<path  fill="#3FC0FF" stroke-width="0" stroke="#3FC0FF" d = " M249 302 C249,299.386 255.031,302 256,302 256,302 257,301 257,301 257,296.634 253,293.872 253,289 253,285.249 257.837,285.173 256,281.5 254.971,279.441 252.563,282.532 251.5,282 240.575,276.537 248.248,275.126 236.5,281 236.5,281 230,282.5 230,282.5 228.653,285.193 233.807,288.886 232,292.5 230.613,295.274 226,298.823 226,302 226,304.373 228.284,302 229,302 229,302 231,301 231,301 231,299.814 232,299.814 232,301 232,301 235,302 235,302 235,302 240,302 240,302 240,302 249,302 249,302  Z"/>

<path  fill="#FF3427" stroke-width="0" stroke="#FF3427" d = " M281 307 L280,308 C273.1,308 266.117,305 263,305 263,300.923 284.671,292.415 289.5,290 289.5,290 295.5,282 295.5,282 298.018,280.741 300.953,281 304,281 305.684,281 305,285.679 305,287 305,291.883 297,296.462 297,301 291.592,301 287.645,306 282,306 282,306 281,307 281,307  Z"/>

<path  fill="#FA8072" stroke-width="0" stroke="#FA8072" d = " M336 285 L327,293.5 C324.204,299.092 314.622,302.256 313,305.5 308.069,315.362 312.119,330.309 321.5,335 326.095,337.297 327.323,329.088 329.5,328 341.814,321.843 363.715,285 336,285  Z"/>

<path  fill="#FA8072" stroke-width="0" stroke="#FA8072" d = " M146 288 C146,290.14 135.208,298.915 138,304.5 140.159,308.818 145.627,319.063 149.5,321 154.472,323.486 157.431,332.466 162.5,335 165.867,336.684 173.811,330.877 175,328.5 L174,324.5 C175.22,322.059 178.713,317.926 177,314.5 174.466,309.431 170.644,299.572 165.5,297 163.461,295.981 160.615,296.058 158.5,295 152.752,292.126 153.472,288 146,288  Z"/>

<path  fill="#80AAFF" stroke-width="0" stroke="#80AAFF" d = " M206 308 C203.258,308 197.356,313.212 199,316.5 200.758,320.016 212.102,325.301 215.5,327 223.323,330.912 236.215,319.069 239,313.5 L238,308.5 L241.5,307 C248.665,303.417 247.532,318.016 251.5,320 254.372,321.436 257.274,324.887 259.5,326 269.558,331.029 279.904,326.693 285,316.5 286.294,313.913 281,310.661 281,308 281,308 281,307 281,307 281,307 282,306 282,306 287.645,306 291.592,301 297,301 300.525,301 304.819,306.862 303,310.5 298.811,318.877 273.616,338.058 263.5,333 259.598,331.049 238.536,325.482 235.5,327 229.041,330.229 219.437,334.969 211.5,331 202.489,326.494 193.716,321.932 189,312.5 187.608,309.715 182.755,300 190,300 195.833,300 200.705,306 205,306 205,306 206,308 206,308  Z"/>

<path  fill="#80AAFF" stroke-width="0" stroke="#80AAFF" d = " M235 302 C235,305.431 233.061,303 231,303 231,303 229,302 229,302 229,302 231,301 231,301 231,301 232,301 232,301 232,301 235,302 235,302  Z"/>

<path  fill="#80AAFF" stroke-width="0" stroke="#80AAFF" d = " M249 304 L252,304 C252,301.248 258,306.344 258,303 258,303 257,302 257,302 257,302 256,302 256,302 255.031,302 249,299.386 249,302 249,302 249,304 249,304  Z"/>

<path  fill-rule="evenodd" fill="#00D70B" stroke-width="0" stroke="#00D70B" d = " M237 305 C237,308.746 239.091,305 237,305  M280 308 L281,308 C281,310.661 286.294,313.913 285,316.5 279.904,326.693 269.558,331.029 259.5,326 257.274,324.887 254.372,321.436 251.5,320 247.532,318.016 248.665,303.417 241.5,307 241.5,307 238,308.5 238,308.5 238,308.5 239,313.5 239,313.5 236.215,319.069 223.323,330.912 215.5,327 212.102,325.301 200.758,320.016 199,316.5 197.356,313.212 203.258,308 206,308 206,308 207,307 207,307 207,307 208,307 208,307 208,309.547 212,309.775 212,308 216.115,308 218.359,305 222,305 223.759,305 231,304.674 231,303 233.061,303 235,305.431 235,302 235,302 240,302 240,302 240,303.65 247.31,304 249,304 249,304 252,304 252,304 254.69,304 258.675,305 262,305 262,305 263,305 263,305 266.117,305 273.1,308 280,308  Z"/>

<path  fill="#80AAFF" stroke-width="0" stroke="#80AAFF" d = " M237 305 C237,308.746 239.091,305 237,305  Z"/>

</g>
</svg>
