<svg xmlns="http://www.w3.org/2000/svg" xmlns:xlink="http://www.w3.org/1999/xlink" height="512" width="512">
<g>
<rect width="512" height="512" fill="#000000"  stroke-width="0" /> 
<path  fill="#03C12D" stroke-width="0" stroke="#03C12D" d = " M340 342 C340,347.797 351.344,346 355.5,346 362.991,346 390.829,336.841 394,330.5 L417,297.5 L417,293.5 L422,286.5 L421,281.5 C422.035,279.431 426.87,278.239 425,274.5 L422,272.5 L425.5,273 L428,269.5 C431.467,262.567 431.484,254.531 435,247.5 L434,237.5 C436.412,232.675 435.14,205.781 433,201.5 L430,198.5 C430,186.608 428.376,176.253 423,165.5 L422,154.5 L415,146.5 L415,142.5 L397.5,123 C394.823,121.661 392.535,124.018 390.5,123 386.839,121.17 389.161,116.83 385.5,115 376.179,110.339 366.912,104.706 357.5,100 L351.5,100 L346.5,96 L340.5,96 C333.322,92.411 324.727,92.6137 317.5,89 L310.5,90 C302.892,86.1962 281.28,82.6098 274.5,86 L257.5,86 C251.429,89.0355 247.522,95.9892 241.5,99 238.135,100.683 232.111,94.3053 229.5,93 220.251,88.3754 210.204,88 199,88 186.672,88 172.807,89.8464 162.5,95 L160.5,94 C159.88,94 131.65,101.425 130.5,102 123.682,105.409 116.258,107.621 109.5,111 L105.5,115 C101.506,116.997 93.4296,118.641 91,123.5 L91,126.5 L83,135.5 L74,146.5 L74,150.5 C66.6366,165.227 64.3248,181.85 57,196.5 L58,213.5 C58,217.521 56.6217,217.257 55,220.5 53.1049,224.29 56.4902,233.48 58,236.5 59.0282,238.556 56.5372,253.574 59,258.5 62.8789,266.258 65.4699,271.44 69,278.5 71.6322,283.764 72.1184,297.737 76,305.5 85.5883,324.677 106.403,335.451 123.5,344 128.264,346.382 138.489,343 142,343 142,336.754 143.14,324.78 140,318.5 136.913,312.326 135,304.354 135,297 127.032,297 107,272.923 107,264 107,264 104,258 104,258 99.9203,258 100,243.64 100,240 100,230.902 102.203,221.095 106,213.5 106,213.5 106,204.5 106,204.5 106,204.5 111,199.5 111,199.5 111,199.5 114,191.5 114,191.5 126.81,165.879 145.682,160.409 168.5,149 168.5,149 182.5,148 182.5,148 192.14,143.18 201.256,140 213,140 213,137.93 220.818,133.841 222.5,133 228.742,129.879 233.284,124.108 239.5,121 242.735,119.382 254.486,128.493 257.5,130 259.748,131.124 270,134.907 270,138 270,138 274.5,136 274.5,136 278.264,136 285.054,141.277 288.5,143 291.767,144.634 296.083,144.291 299.5,146 306.365,149.433 314.426,146.463 321.5,150 330.463,154.482 337.82,156.66 346.5,161 346.5,161 351.5,161 351.5,161 353.179,161.84 362.612,174.112 365,176.5 368.623,180.123 371.752,180.004 374,184.5 374,184.5 375,190.5 375,190.5 375,190.5 378,192.5 378,192.5 378,192.5 379,199.5 379,199.5 379.856,201.213 383.593,205.685 385,208.5 385,208.5 386,218.5 386,218.5 388.015,222.531 392.018,231.465 390,235.5 388.221,239.058 392.781,253 386,253 386,257.446 381,262.479 381,266 381,266 379,270 379,270 379,270 379,271 379,271 379,273.355 378.53,277 376,277 376,277 375,280 375,280 375,280 374,281 374,281 374,282.429 372.712,285 371,285 371,285 370,286 370,286 370,286 369,287 369,287 369,288.948 363.572,291 362,291 362,291 362,292 362,292 366.755,292 363,299.595 363,304 363,306.925 353.663,328.837 351.5,331 348.649,333.851 340,338.079 340,342  Z"/>

<path  fill="#1D68EB" stroke-width="0" stroke="#1D68EB" d = " M238 162 C238,148.299 250,159.216 250,162 259.133,162 264.119,158.261 268,150.5 268,150.5 268,143.5 268,143.5 268,143.5 270,138 270,138 270,134.907 259.748,131.124 257.5,130 254.486,128.493 242.735,119.382 239.5,121 233.284,124.108 228.742,129.879 222.5,133 220.818,133.841 213,137.93 213,140 213,154.39 224.572,162 238,162  Z"/>

<path  fill="#FF6E00" stroke-width="0" stroke="#FF6E00" d = " M106 256 L104,258 C99.9203,258 100,243.64 100,240 100,230.902 102.203,221.095 106,213.5 106,213.5 106,204.5 106,204.5 106,204.5 111,199.5 111,199.5 111,199.5 114,191.5 114,191.5 126.81,165.879 145.682,160.409 168.5,149 168.5,149 182.5,148 182.5,148 192.14,143.18 201.256,140 213,140 213,154.39 224.572,162 238,162 238,162 250,162 250,162 259.133,162 264.119,158.261 268,150.5 268,150.5 268,143.5 268,143.5 268,143.5 270,138 270,138 270,138 274.5,136 274.5,136 278.264,136 285.054,141.277 288.5,143 291.767,144.634 296.083,144.291 299.5,146 306.365,149.433 314.426,146.463 321.5,150 330.463,154.482 337.82,156.66 346.5,161 346.5,161 351.5,161 351.5,161 353.179,161.84 362.612,174.112 365,176.5 368.623,180.123 371.752,180.004 374,184.5 374,184.5 375,190.5 375,190.5 375,190.5 378,192.5 378,192.5 378,192.5 379,199.5 379,199.5 379.856,201.213 383.593,205.685 385,208.5 385,208.5 386,218.5 386,218.5 388.015,222.531 392.018,231.465 390,235.5 388.221,239.058 392.781,253 386,253 386,240.009 385.392,227.284 380,216.5 378.145,212.79 378.876,207.252 377,203.5 374.912,199.324 372.037,195.573 370,191.5 370,191.5 366,188.5 366,188.5 364.879,186.258 361.675,180.587 358.5,179 351.522,175.511 345.744,171.122 339.5,168 335.622,166.061 330.421,166.961 326.5,165 322.876,163.188 316.239,168 315,168 315,165.422 312.42,168.46 311.5,168 311.5,168 305,165 305,165 302.971,165 303.119,163.809 301.5,163 294.612,159.556 286.44,163.03 280.5,166 277.512,167.494 269,167.394 269,172 262.153,172 257.105,173.198 251.5,176 248.358,177.571 223.7,173 219,173 219,170.601 212.103,169.801 210.5,169 206.534,167.017 186.328,159.844 183,166.5 183,166.5 184,171 184,171 175.266,171 162.466,163.517 153.5,168 149.089,170.205 143.847,170.826 139.5,173 129.793,177.853 115.347,198.807 111,207.5 105.617,218.266 108.404,232.693 103,243.5 101.653,246.193 106,252.524 106,256  Z"/>

<path  fill-rule="evenodd" fill="#022CFF" stroke-width="0" stroke="#022CFF" d = " M243 260 L242,263 C242,275.455 250.362,260 243,260  M250 263 C250,268.292 247.182,272.137 245,276.5 L245,300 L245,318.5 C245,319.663 245.549,324 243.5,324 242.256,324 242,319.548 242,318.5 L242,299.5 L242,275.5 C241.093,273.685 236,268.791 236,266 236,261.165 241,256.969 241,250 241,248.765 241.643,245 240,245 240,243.762 239.577,242 238,242 238,234.037 230.266,237 226,237 226,237 222,238 222,238 222,236.421 219.145,237 218,237 218,237 215,235 215,235 215,231.767 203.549,227.025 201.5,226 201.5,226 197,221 197,221 197,218.966 190.932,211 189,211 189,209.436 190,207.124 190,205 190,203.863 192.091,201 190,201 190,196.077 195.912,171 184,171 184,171 183,166.5 183,166.5 186.328,159.844 206.534,167.017 210.5,169 212.103,169.801 219,170.601 219,173 219,173 213,178 213,178 211.762,178 210,178.423 210,180 193.251,180 184.891,221 211,221 211,221 212,222 212,222 212,222 215,225 215,225 215,226.028 216.621,226.44 217.5,226 219.249,225.126 231,227.225 231,223 240.522,223 234.924,220.788 242.5,217 249.575,213.463 250.32,223.41 253.5,225 256.704,226.602 258.652,222 261,222 262.52,222 275,228.018 275,220 275,220 281.5,216 281.5,216 285.832,213.834 291.616,211.269 294,206.5 296.556,201.388 291.749,197.998 290,194.5 290,194.5 290,185.5 290,185.5 288.081,181.663 273.851,174 270,174 270,174 269,172 269,172 269,167.394 277.512,167.494 280.5,166 286.44,163.03 294.612,159.556 301.5,163 303.119,163.809 302.971,165 305,165 305,166.375 305,167.625 305,169 302.733,169 300.974,172.552 300,174.5 290.83,192.841 301,189.37 301,204 301,204 300,206 300,206 300,206 299,207 299,207 296.804,207 290,215.041 290,217 290,217 281,225 281,225 281,225 280,226 280,226 280,226 272,232 272,232 272,232 270,233 270,233 268.186,233 266.102,230.699 265.5,231 265.5,231 261,234 261,234 261,234 254,234 254,234 252.707,234 246,235.085 246,237 244.179,237 242.882,241 245,241 245,244.236 246,249.258 246,253 246,257.449 250,259.198 250,263  Z"/>

<path  fill-rule="evenodd" fill="#814FFF" stroke-width="0" stroke="#814FFF" d = " M311 194 L310,196.5 C315.154,206.808 320.045,194 311,194  M350 293 L351,293 C351,293 361,292 361,292 361,292 362,291 362,291 362,287.99 366.545,287 369,287 369,287 370,286 370,286 370,286 371,285 371,285 372.712,285 374,282.429 374,281 374,281 375,280 375,280 375,280 376,277 376,277 376,275.598 377.11,271 379,271 379,271 379,270 379,270 379,268.535 378.891,266 381,266 381,262.479 386,257.446 386,253 386,240.009 385.392,227.284 380,216.5 378.145,212.79 378.876,207.252 377,203.5 374.912,199.324 372.037,195.573 370,191.5 370,191.5 366,188.5 366,188.5 364.879,186.258 361.675,180.587 358.5,179 351.522,175.511 345.744,171.122 339.5,168 335.622,166.061 330.421,166.961 326.5,165 322.876,163.188 316.239,168 315,168 315,169.763 306.657,169 305,169 302.733,169 300.974,172.552 300,174.5 290.83,192.841 301,189.37 301,204 301,204 302,204 302,204 302,198.543 311.239,200.739 313.5,203 314.863,204.363 310.469,211 314,211 314,211 316,212 316,212 316,208.219 320.376,212 318,212 318,216.668 326.08,218.66 328,222.5 331.154,228.807 335.607,234.714 339,241.5 343.191,249.883 331,266.05 331,275 333.699,275 335.748,283.996 337,286.5 338.278,289.057 347,288.07 347,292 347,292 349,292 349,292 349,292 350,293 350,293  Z"/>

<path  fill="#814FFF" stroke-width="0" stroke="#814FFF" d = " M160 272 C160,274.491 155.731,277.038 155,278.5 149.526,289.449 150.918,287.791 140.5,293 L135,297 C127.032,297 107,272.923 107,264 107,264 107,263 107,263 108.399,263 108.399,261 107,261 105.357,261 106,257.235 106,256 106,252.524 101.653,246.193 103,243.5 108.404,232.693 105.617,218.266 111,207.5 115.347,198.807 129.793,177.853 139.5,173 143.847,170.826 149.089,170.205 153.5,168 162.466,163.517 175.266,171 184,171 195.912,171 190,196.077 190,201 190,201 187,201 187,201 182.937,201 179.602,201 176,201 176,201 175,199 175,199 175,186.291 165.698,195.896 167,198.5 167,198.5 170.5,203 170.5,203 171.672,203.586 173.076,200.652 174,202.5 174,202.5 174,209.5 174,209.5 175.188,211.876 180,219.466 180,221 176.838,221 175.333,218 172.5,218 161.369,218 147.61,245.719 153,256.5 155.191,260.882 160,266.895 160,272  Z"/>

<path  fill="#FF0800" stroke-width="0" stroke="#FF0800" d = " M259 201 C255.302,201 243.339,195.081 239.5,197 237.058,198.221 233.86,197.82 231.5,199 L227,202 C227,199.45 225.433,192.634 227,189.5 228.026,187.448 232.207,180.915 231,178.5 231,178.5 226,178 226,178 221.007,178 216.48,178 213,178 213,178 219,173 219,173 223.7,173 248.358,177.571 251.5,176 257.105,173.198 262.153,172 269,172 269,172 270,174 270,174 266.765,174 265.133,175.684 262.5,177 262.5,177 256,180.5 256,180.5 255.047,182.405 257.358,183.217 258,184.5 259.407,187.314 259,198.102 259,201  Z"/>

<path  fill="#00FF1D" stroke-width="0" stroke="#00FF1D" d = " M262 208 C266.915,208 265,213.731 265,215.5 265,220.381 271.667,220 275,220 275,220 281.5,216 281.5,216 285.832,213.834 291.616,211.269 294,206.5 296.556,201.388 291.749,197.998 290,194.5 290,194.5 290,185.5 290,185.5 288.081,181.663 273.851,174 270,174 266.765,174 265.133,175.684 262.5,177 262.5,177 256,180.5 256,180.5 255.047,182.405 257.358,183.217 258,184.5 259.407,187.314 259,198.102 259,201 259,201 259,203 259,203 260.747,203 261,203.253 261,205 261,205 262,208 262,208  Z"/>

<path  fill="#00FF1D" stroke-width="0" stroke="#00FF1D" d = " M212 222 L215,225 C221.771,225 224,218.753 224,213 224,209.198 227,205.209 227,202 227,199.45 225.433,192.634 227,189.5 228.026,187.448 232.207,180.915 231,178.5 231,178.5 226,178 226,178 221.007,178 216.48,178 213,178 213,179.577 211.238,180 210,180 193.251,180 184.891,221 211,221 211,221 212,222 212,222  Z"/>

<path  fill="#FF0800" stroke-width="0" stroke="#FF0800" d = " M213 178 C211.762,178 210,178.423 210,180 211.238,180 213,179.577 213,178  Z"/>

<path  fill="#FF3427" stroke-width="0" stroke="#FF3427" d = " M185 274 L185,276 C185,283.023 189.87,273.76 191,271.5 191,271.5 190,268.5 190,268.5 191.557,265.385 192.443,262.615 194,259.5 194.658,258.185 191.862,253.775 193,251.5 195.349,246.802 196,243.777 196,238 196,238 196,237 196,237 196,237 195,236 195,236 195,232.909 193,230.522 193,228 191.379,228 189,225.621 189,224 187.065,224 184.766,220 188,220 188,220 189,214.5 189,214.5 189,214.5 187,212.5 187,212.5 187,212.5 189,211 189,211 189,209.436 190,207.124 190,205 187.902,205 187,203.061 187,201 182.937,201 179.602,201 176,201 174.348,201 172.908,199 175,199 175,186.291 165.698,195.896 167,198.5 167,198.5 170.5,203 170.5,203 171.672,203.586 173.076,200.652 174,202.5 174,202.5 174,209.5 174,209.5 175.188,211.876 180,219.466 180,221 183.912,221 185.735,235.969 187,238.5 188.033,240.566 190.141,248.179 188.5,249 188.5,249 184,250.5 184,250.5 182.903,252.695 187.034,257.568 188,259.5 189.649,262.798 186,267.445 186,271 186,272.048 186.473,274 185,274  Z"/>

<path  fill="#FF3427" stroke-width="0" stroke="#FF3427" d = " M311 194 L310,196.5 C315.154,206.808 320.045,194 311,194  Z"/>

<path  fill="#AE00E8" stroke-width="0" stroke="#AE00E8" d = " M261 222 C258.652,222 256.704,226.602 253.5,225 250.32,223.41 249.575,213.463 242.5,217 234.924,220.788 240.522,223 231,223 225.498,223 226.99,213 224,213 224,209.198 227,205.209 227,202 227,202 231.5,199 231.5,199 233.86,197.82 237.058,198.221 239.5,197 243.339,195.081 255.302,201 259,201 259,201 259,203 259,203 259,203 261,205 261,205 261,205 262,208 262,208 262,208 263,218.5 263,218.5 262.191,220.119 261,219.971 261,222  Z"/>

<path  fill="#FF3427" stroke-width="0" stroke="#FF3427" d = " M293 234 C293,237.701 289.974,245.448 292,249.5 292.81,251.119 295,261.467 295,263 L297,271.5 C297.669,272.838 302,274.167 302,272 302,269.119 302.187,266.875 301,264.5 301,264.5 302,261.5 302,261.5 302,261.5 298,257.5 298,257.5 298,257.5 300,253.5 300,253.5 300,253.5 298,250.5 298,250.5 298,250.5 299,247.5 299,247.5 299,247.5 297,240.5 297,240.5 299.789,234.922 314,215.196 314,211 310.469,211 314.863,204.363 313.5,203 311.239,200.739 302,198.543 302,204 302,204 302,206 302,206 302,215.298 295,220.247 295,227 295,227 294,229 294,229 294,229 294,230 294,230 294,230 293,234 293,234  Z"/>

<path  fill="#EE7533" stroke-width="0" stroke="#EE7533" d = " M294 227 L295,227 C295,220.247 302,215.298 302,206 302,206 300,206 300,206 300,206 299,207 299,207 296.804,207 290,215.041 290,217 290,220.864 289,222.762 289,226 289,226 292.5,221 292.5,221 294.091,221 291.642,227 294,227  Z"/>

<path  fill="#FF3427" stroke-width="0" stroke="#FF3427" d = " M316 212 L318,212 C320.376,212 316,208.219 316,212  Z"/>

<path  fill="#EE7533" stroke-width="0" stroke="#EE7533" d = " M193 228 C196.591,228 196.777,231 198,231 198,230.379 194.998,221 197,221 197,218.966 190.932,211 189,211 189,211 187,212.5 187,212.5 187,212.5 189,214.5 189,214.5 189,214.5 188,220 188,220 188,220 189,224 189,224 189,225.621 191.379,228 193,228  Z"/>

<path  fill="#FF91BA" stroke-width="0" stroke="#FF91BA" d = " M302 272 C306.632,272 315.261,278.88 319.5,281 325.816,284.158 326.86,275 331,275 331,266.05 343.191,249.883 339,241.5 335.607,234.714 331.154,228.807 328,222.5 326.08,218.66 318,216.668 318,212 318,212 316,212 316,212 316,212 314,211 314,211 314,215.196 299.789,234.922 297,240.5 297,240.5 299,247.5 299,247.5 299,247.5 298,250.5 298,250.5 298,250.5 300,253.5 300,253.5 300,253.5 298,257.5 298,257.5 298,257.5 302,261.5 302,261.5 302,261.5 301,264.5 301,264.5 302.187,266.875 302,269.119 302,272  Z"/>

<path  fill="#0008B6" stroke-width="0" stroke="#0008B6" d = " M288 237 C288,248.711 278.282,260 266,260 266,250.245 272,241.112 272,232 272,232 280,226 280,226 280,226 281,225 281,225 281,225 290,217 290,217 290,220.864 289,222.762 289,226 289,226 289,228 289,228 289,228 288,230 288,230 288,230 288,237 288,237  Z"/>

<path  fill="#FF91BA" stroke-width="0" stroke="#FF91BA" d = " M185 274 L185,276 C182.014,276 180.025,283.763 174.5,281 171.817,279.658 169.084,279.292 166.5,278 166.5,278 160,272 160,272 160,266.895 155.191,260.882 153,256.5 147.61,245.719 161.369,218 172.5,218 175.333,218 176.838,221 180,221 183.912,221 185.735,235.969 187,238.5 188.033,240.566 190.141,248.179 188.5,249 188.5,249 184,250.5 184,250.5 182.903,252.695 187.034,257.568 188,259.5 189.649,262.798 186,267.445 186,271 183.319,271 185,273.078 185,274  Z"/>

<path  fill="#0008B6" stroke-width="0" stroke="#0008B6" d = " M220 242 C220,248.77 221,255.412 221,263 213.148,263 205.357,260.214 201,251.5 200.26,250.021 200.921,242 199,242 199,238.42 198,235.168 198,231 198,230.379 194.998,221 197,221 197,221 201.5,226 201.5,226 203.549,227.025 215,231.767 215,235 215,236.238 215.423,238 217,238 217,238 220,242 220,242  Z"/>

<path  fill="#ADFF2F" stroke-width="0" stroke="#ADFF2F" d = " M292 234 C290.543,234 290.54,237 288,237 288,237 288,230 288,230 288,230 289,228 289,228 289,228 289,226 289,226 289,226 292.5,221 292.5,221 294.091,221 291.642,227 294,227 294,227 294,229 294,229 294,229 294,230 294,230 291.891,230 292,232.535 292,234  Z"/>

<path  fill="#ADFF2F" stroke-width="0" stroke="#ADFF2F" d = " M196 238 C198.266,238 195.546,242 199,242 199,238.42 198,235.168 198,231 196.777,231 196.591,228 193,228 193,230.522 195,232.909 195,236 195,236 196,237 196,237 196,237 196,238 196,238  Z"/>

<path  fill="#EE7533" stroke-width="0" stroke="#EE7533" d = " M289 228 L288,230 C288,230 289,228 289,228  Z"/>

<path  fill="#FFFC00" stroke-width="0" stroke="#FFFC00" d = " M270 233 C268.186,233 266.102,230.699 265.5,231 L261,234 C261,240.014 270,238.294 270,233  Z"/>

<path  fill="#006400" stroke-width="0" stroke="#006400" d = " M249 250 C247.084,250 248.93,253 246,253 246,249.258 245,244.236 245,241 245,239.571 247.622,237 246,237 246,235.085 252.707,234 254,234 254,238.207 260.89,234.281 262,236.5 263.454,239.408 265.469,246 260,246 260,244.049 257.546,245.523 256.5,245 255.483,244.492 252,239.768 252,244 252,244 251,246 251,246 251,246 250,247 250,247 248.527,247 249,248.952 249,250  Z"/>

<path  fill-rule="evenodd" fill="#E1F00D" stroke-width="0" stroke="#E1F00D" d = " M142 296 C142,300.123 146.123,296 142,296  M273 328 C274.414,328 280.084,329.208 280.5,329 282.536,327.982 289.013,324.757 291.5,326 299.494,329.997 305.388,334.944 313.5,339 320.728,342.614 329.036,342.768 335.5,346 L340,342 C340,338.079 348.649,333.851 351.5,331 353.663,328.837 363,306.925 363,304 363,299.595 366.755,292 362,292 362,292 361,292 361,292 361,292 351,293 351,293 351,293 354,296.5 354,296.5 354,296.5 349.5,297 349.5,297 345.775,298.863 335.377,291 344,291 344,291 347,292 347,292 347,288.07 338.278,289.057 337,286.5 335.748,283.996 333.699,275 331,275 326.86,275 325.816,284.158 319.5,281 315.261,278.88 306.632,272 302,272 302,274.167 297.669,272.838 297,271.5 297,271.5 295,263 295,263 295,261.467 292.81,251.119 292,249.5 289.974,245.448 293,237.701 293,234 293,234 292,234 292,234 290.543,234 290.54,237 288,237 288,248.711 278.282,260 266,260 266,260 265,260 265,260 265,267.792 256.51,262 255,262 255,262 250,263 250,263 250,268.292 247.182,272.137 245,276.5 245,276.5 245,300 245,300 245,300 245,318.5 245,318.5 245,319.663 245.549,324 243.5,324 242.256,324 242,319.548 242,318.5 242,318.5 242,299.5 242,299.5 242,299.5 242,275.5 242,275.5 241.093,273.685 236,268.791 236,266 236,266 230.5,265 230.5,265 227.461,266.519 221,269.875 221,263 213.148,263 205.357,260.214 201,251.5 200.26,250.021 200.921,242 199,242 195.546,242 198.266,238 196,238 196,243.777 195.349,246.802 193,251.5 191.862,253.775 194.658,258.185 194,259.5 192.443,262.615 191.557,265.385 190,268.5 190,268.5 191,271.5 191,271.5 189.87,273.76 185,283.023 185,276 182.014,276 180.025,283.763 174.5,281 171.817,279.658 169.084,279.292 166.5,278 166.5,278 160,272 160,272 160,274.491 155.731,277.038 155,278.5 149.526,289.449 150.918,287.791 140.5,293 140.5,293 135,297 135,297 135,304.354 136.913,312.326 140,318.5 143.14,324.78 142,336.754 142,343 142,343 146.5,342 146.5,342 148.463,342.982 150.678,346.411 153.5,345 159.816,341.842 168.565,341.467 173.5,339 180.124,335.688 193.569,329 201,329 207.331,329 213.256,329.622 218.5,327 219.64,326.43 225,326.737 225,328 225,328 231,328 231,328 240.428,328 251.706,326 260.5,326 262.62,326 271,325.817 271,328 271,328 273,328 273,328  Z"/>

<path  fill="#006400" stroke-width="0" stroke="#006400" d = " M236 244 C233.393,244 231.087,247 229,247 221.754,247 226,240.367 226,237 230.266,237 238,234.037 238,242 238,242 236,244 236,244  Z"/>

<path  fill="#FFFC00" stroke-width="0" stroke="#FFFC00" d = " M222 238 C222,240.177 222.641,242 220,242 220,242 217,238 217,238 217,238 218,237 218,237 219.145,237 222,236.421 222,238  Z"/>

<path  fill="#15C0FF" stroke-width="0" stroke="#15C0FF" d = " M265 260 C265,267.792 256.51,262 255,262 255,259.521 249,255.47 249,250 250.473,250 250,248.048 250,247 250,247 251,246 251,246 251,246 252,244 252,244 252,239.768 255.483,244.492 256.5,245 257.546,245.523 260,244.049 260,246 260,250.96 265,254.307 265,260  Z"/>

<path  fill="#15C0FF" stroke-width="0" stroke="#15C0FF" d = " M236 244 C233.393,244 231.087,247 229,247 229,251.613 222,256.785 222,261.5 222,268.202 236.451,259.599 238,256.5 240.948,250.604 236,248.094 236,244  Z"/>

<path  fill="#006400" stroke-width="0" stroke="#006400" d = " M240 245 C241.643,245 241,248.765 241,250 239.357,250 240,246.235 240,245  Z"/>

<path  fill="#FFBB00" stroke-width="0" stroke="#FFBB00" d = " M243 260 L242,263 C242,275.455 250.362,260 243,260  Z"/>

<path  fill="#FF6E00" stroke-width="0" stroke="#FF6E00" d = " M107 261 C108.399,261 108.399,263 107,263 107,263 107,261 107,261  Z"/>

<path  fill="#FFBB00" stroke-width="0" stroke="#FFBB00" d = " M350 293 L351,293 C351,293 354,296.5 354,296.5 354,296.5 349.5,297 349.5,297 345.775,298.863 335.377,291 344,291 344,291 347,292 347,292 347,292 349,292 349,292 349,292 350,293 350,293  Z"/>

<path  fill="#E1F00D" stroke-width="0" stroke="#E1F00D" d = " M349 292 L350,293 C350,293 349,292 349,292  Z"/>

<path  fill="#FFBB00" stroke-width="0" stroke="#FFBB00" d = " M142 296 C142,300.123 146.123,296 142,296  Z"/>

<path  fill="#267EFF" stroke-width="0" stroke="#267EFF" d = " M271 328 L273,328 C273,329.553 279.014,329.472 277,333.5 275.515,336.471 273.55,334.975 271.5,336 259.137,342.182 245.25,333.125 237.5,337 233.481,339.01 216.413,340.325 214,335.5 210.644,328.789 225,329.333 225,328 225,328 231,328 231,328 231,328.971 235.602,332.449 236.5,332 240.927,329.786 249.019,331.741 250.5,331 255.999,328.25 264.549,328 271,328  Z"/>

<path  fill-rule="evenodd" fill="#FA8072" stroke-width="0" stroke="#FA8072" d = " M301 375 C301,376.93 302.93,375 301,375  M302 374 C302,375.93 303.93,374 302,374  M304 346 C304,349.339 299.04,346.73 296.5,348 294.272,349.114 290.321,350.857 289,353.5 L288.5,357 C285.433,358.533 283.879,357.742 282,361.5 L283,363.5 L281,366.5 C278.974,370.552 280.566,384.033 284.5,386 L289.5,386 C295.346,388.923 292.115,393.193 298.5,390 300.736,388.882 301.82,392.84 303.5,392 L307.5,387 L321,379.5 C322.305,376.891 320.743,373.015 322,370.5 323.065,368.369 328.399,368.298 326,363.5 L321,360.5 C321,359.112 323.014,356.528 322,354.5 320.607,351.714 317.305,352.109 316,349.5 L314.5,346 C312.876,345.188 306.328,346 304,346  Z"/>

<path  fill="#FA8072" stroke-width="0" stroke="#FA8072" d = " M183 349 C183,350.361 176.742,351.379 175.5,352 172.009,353.746 173.361,357.57 168.5,360 166.968,360.766 163.804,354.892 161,360.5 159.735,363.03 161.052,368.776 163.5,370 L166.5,369 L169.5,374 L172,373.5 C173.498,376.497 167.358,376.217 169,379.5 170.03,381.561 171.866,382.232 173,384.5 174.772,388.044 184.348,388.424 185.5,389 187.277,389.889 184.895,393.698 187.5,395 L191.5,394 C202.677,399.588 199.938,390.623 202,386.5 202.696,385.108 206.398,388.704 209,383.5 210.385,380.73 209.142,371.783 208,369.5 L203,366.5 C202.143,364.786 202.776,362.138 200.5,361 L195,359.5 L195,355.5 C193.757,353.015 185.407,349 183,349  Z"/>

<path  fill="#FA8072" stroke-width="0" stroke="#FA8072" d = " M120 351 C120,361.629 132.397,365.948 140.5,370 144.781,372.141 145.874,382.313 152.5,379 155.657,377.421 155.657,371.579 152.5,370 149.831,368.666 146.315,368.407 143.5,367 141.581,366.04 142.659,364.818 142,363.5 138.94,357.38 124.124,351 120,351  Z"/>

<path  fill="#FA8072" stroke-width="0" stroke="#FA8072" d = " M362 353 C362,355.5 355.504,356.492 354,359.5 352.337,362.826 356.985,367.757 360.5,366 365.331,363.585 372.768,353 362,353  Z"/>

<path  fill="#FA8072" stroke-width="0" stroke="#FA8072" d = " M351 363 C351,367.416 327.775,370.137 341.5,377 344.948,378.724 343.425,375.538 346.5,374 349.338,372.581 351.541,376.418 354,371.5 354.51,370.48 351.423,363 351,363  Z"/>

</g>
</svg>
