<svg xmlns="http://www.w3.org/2000/svg" xmlns:xlink="http://www.w3.org/1999/xlink" height="512" width="512">
<g>
<rect width="512" height="512" fill="#000000"  stroke-width="0" /> 
<path  fill="#03C12D" stroke-width="0" stroke="#03C12D" d = " M448 234 C449.381,234 449.413,227.673 450,226.5 453.044,220.413 446.353,208.795 450,201.5 452.184,197.132 446.824,189.852 449,185.5 451.902,179.697 447.63,168.76 445,163.5 437.749,148.998 429.46,126.48 412.5,118 L408.5,113 C391.948,104.724 377.058,93.2788 360.5,85 355.325,82.4123 343.82,83.1601 339.5,81 323.114,72.807 281.987,73 263.5,73 258.106,73 246.891,82.3045 241.5,85 L238.5,89 L225.5,78 C216.251,73.3753 210.922,74 200.5,74 L196.5,73 C187.796,77.3521 176.134,74.6828 167.5,79 L156.5,80 L152.5,84 L144.5,83 C138.79,85.8552 131.188,84.1558 125.5,87 121.945,88.7775 119.517,92.4913 116.5,94 112.849,95.8255 109.301,98.0993 105.5,100 L101.5,100 C100.326,100.587 96.2321,107.134 92.5,109 83.0871,113.706 69.5265,123.447 64,134.5 62.9368,136.626 49,151.827 49,153.5 49,154.125 39.756,184.988 38,188.5 L39,195.5 C35.1461,203.208 37,226.535 37,236 41.1531,236 52.6582,231.921 56.5,230 56.5,230 60.5,231 60.5,231 60.5,231 64.5,227 64.5,227 66.3337,227 68.4931,230.503 71.5,229 74.9515,227.274 81.7082,228.396 82.5,228 82.5,228 85,226 85,226 85,222.176 81.9547,214.591 84,210.5 87.1187,204.263 86.8607,196.779 90,190.5 90,190.5 90,185.5 90,185.5 97.7769,169.946 105.322,147.089 121.5,139 125.685,136.908 133.219,126 139,126 139,126 141,125 141,125 144.811,125 147.296,121.602 150.5,120 150.5,120 156.5,120 156.5,120 162.256,117.122 168.719,115.89 174.5,113 180.369,110.066 188.313,114.093 194.5,111 198.675,108.913 204.267,109.616 207.5,108 207.5,108 210.5,106 210.5,106 219,110.25 220.475,125.487 227.5,129 227.5,129 237,129 237,129 250.182,129 253.044,130.412 259,118.5 259,118.5 262,116.5 262,116.5 264.132,112.237 262.202,108.649 267.5,106 270.284,104.608 275.682,108 278.5,108 284.86,108 304.034,110.767 310.5,114 310.5,114 318.5,114 318.5,114 326.677,118.088 336.205,118.853 344.5,123 344.5,123 351.5,124 351.5,124 351.5,124 353.5,127 353.5,127 370.395,135.447 383.541,149.582 392,166.5 393.28,169.061 396.459,170.418 398,173.5 398,173.5 397,177.5 397,177.5 399.408,182.316 398.076,188.652 400,192.5 404.782,202.063 404,213.441 404,225 406.064,225 407.722,224 408.5,224 410.167,224 411.009,226.255 412.5,227 412.5,227 419.5,226 419.5,226 425.81,229.155 431.841,227.171 437.5,230 439.236,230.868 448,231.601 448,234  Z"/>

<path  fill-rule="evenodd" fill="#FF6E00" stroke-width="0" stroke="#FF6E00" d = " M369 147 C369,150.746 371.091,147 369,147  M399 244 L399,250 C400.993,250 400.35,244.8 401,243.5 403.308,238.885 404,230.354 404,225 404,213.441 404.782,202.063 400,192.5 398.076,188.652 399.408,182.316 397,177.5 397,177.5 398,173.5 398,173.5 396.459,170.418 393.28,169.061 392,166.5 383.541,149.582 370.395,135.447 353.5,127 353.5,127 351.5,124 351.5,124 351.5,124 344.5,123 344.5,123 336.205,118.853 326.677,118.088 318.5,114 318.5,114 310.5,114 310.5,114 304.034,110.767 284.86,108 278.5,108 275.682,108 270.284,104.608 267.5,106 262.202,108.649 264.132,112.237 262,116.5 262,116.5 259,118.5 259,118.5 253.044,130.412 250.182,129 237,129 237,129 227.5,129 227.5,129 220.475,125.487 219,110.25 210.5,106 210.5,106 207.5,108 207.5,108 204.267,109.616 198.675,108.913 194.5,111 188.313,114.093 180.369,110.066 174.5,113 168.719,115.89 162.256,117.122 156.5,120 156.5,120 150.5,120 150.5,120 147.296,121.602 144.811,125 141,125 141,125 139,126 139,126 133.219,126 125.685,136.908 121.5,139 105.322,147.089 97.7769,169.946 90,185.5 90,185.5 90,190.5 90,190.5 86.8607,196.779 87.1187,204.263 84,210.5 81.9547,214.591 85,222.176 85,226 85,226 86,228 86,228 86,228 87.5,229 87.5,229 89.0888,229 89.5464,223.407 90,222.5 92.6955,217.109 98.8971,203.294 97,199.5 97,199.5 100,194 100,194 100,190.19 105.238,170 108,170 108,170 114,158 114,158 111.684,158 120.975,147.525 122.5,146 129.491,139.009 137.335,132 146,132 148.678,132 149.323,130.089 151.5,129 156.39,126.555 180.2,120.85 186.5,124 192.07,126.785 200.424,127.349 204,134.5 206.017,138.534 217.687,153.093 221.5,155 223.448,155.974 226.043,152.729 227.5,152 231.948,149.776 240.764,153.368 243.5,152 245.11,151.195 249.302,150 251,150 251,150 253,150 253,150 255.944,150 260.304,154.098 262.5,153 262.5,153 270,143.5 270,143.5 274.701,134.099 285.894,125.303 294.5,121 303.058,116.721 326.227,123.363 333.5,127 336.979,128.74 340.893,132 345,132 345,129.306 334.895,127.709 336,125.5 336,125.5 346.5,129 346.5,129 347.541,129.521 347.244,132 346,132 346,134.125 357.492,138.996 359.5,140 363.455,141.977 367.268,151 371,151 371,148.804 378.665,156.169 378,157.5 376.4,160.7 376.322,157 375,157 375,158.417 377.383,163 379,163 379,160.111 383.605,164 381,164 381,164 380,166 380,166 380,166 381,169 381,169 382.247,169 386,167.275 386,171 389.482,171 388,173.585 388,176 388,176 388,180 388,180 389.577,180 390,181.762 390,183 390,183 390,184 390,184 393.091,184 393.952,198.404 395,200.5 396.058,202.616 397.572,200.644 398,201.5 400.094,205.689 399,236.8 399,244  Z"/>

<path  fill-rule="evenodd" fill="#0E47E2" stroke-width="0" stroke="#0E47E2" d = " M279 165 L278,166.5 C278,170.243 282.368,165 279,165  M269 160 L268,163.5 C270.335,168.169 277.083,160 269,160  M365 193 C367.072,193 371.519,196.01 373.5,197 L382,195 C382,195 384,187 384,187 384,186.014 381.485,181 384,181 384,178.75 384,177.624 384,176 384,176 383,175 383,175 383,175 381,169 381,169 381,169 380,166 380,166 380,166 379,164 379,164 379,164 379,163 379,163 377.383,163 375,158.417 375,157 375,157 371,151 371,151 367.268,151 363.455,141.977 359.5,140 357.492,138.996 346,134.125 346,132 346,132 345,132 345,132 340.893,132 336.979,128.74 333.5,127 326.227,123.363 303.058,116.721 294.5,121 285.894,125.303 274.701,134.099 270,143.5 270,143.5 262.5,153 262.5,153 260.304,154.098 255.944,150 253,150 253,151.399 251,151.399 251,150 249.302,150 245.11,151.195 243.5,152 240.764,153.368 231.948,149.776 227.5,152 226.043,152.729 223.448,155.974 221.5,155 217.687,153.093 206.017,138.534 204,134.5 200.424,127.349 192.07,126.785 186.5,124 180.2,120.85 156.39,126.555 151.5,129 149.323,130.089 148.678,132 146,132 146,132 142.5,134 142.5,134 137.963,136.268 133.973,139.763 129.5,142 124.783,144.358 118.816,158 114,158 114,158 108,170 108,170 108,173.864 106,178.209 106,183 106,186.405 110,195.145 110,196 110,196 116.5,197 116.5,197 119.774,195.363 124.205,192 128,192 128,189.493 134.992,185 137,185 137,182.444 141.016,181 143,181 143,181 145,180 145,180 145,180 147,179 147,179 147,179 151.5,176 151.5,176 151.5,176 160,176 160,176 160,173.856 164.262,175.619 165.5,175 176.536,169.482 187.539,179 193,179 193,179 194,179 194,179 199.712,179 206.024,174 208.5,174 214.825,174 220.108,182.696 229.5,178 233.365,176.068 237.077,169.346 239,165.5 239,165.5 240.5,157 240.5,157 240.5,157 243,158.5 243,158.5 244.716,161.932 246.248,165.996 248,169.5 249.145,171.79 250.882,171.191 252.5,172 262.384,176.942 257.719,175 268,175 268,175 269,174 269,174 269,171.89 271,168.186 271,172 271,172 274,172 274,172 274,170.555 276,166.648 276,169 276,169 278.5,168 278.5,168 278.5,168 280.5,172 280.5,172 284.215,173.857 285.403,175 290,175 300.43,175 309.618,166.559 320.5,172 321.824,172.662 327,170.793 327,173 327,173 328,173 328,173 328,171.357 331.765,172 333,172 334.994,172 345,175.618 345,178 346.429,178 349,179.288 349,181 350.622,181 356,183.996 356,186 356,186 363,192 363,192 363,192 365,193 365,193  Z"/>

<path  fill="#022CFF" stroke-width="0" stroke="#022CFF" d = " M345 132 L346,132 C347.244,132 347.541,129.521 346.5,129 346.5,129 336,125.5 336,125.5 334.895,127.709 345,129.306 345,132  Z"/>

<path  fill="#022CFF" stroke-width="0" stroke="#022CFF" d = " M146 132 C137.335,132 129.491,139.009 122.5,146 120.975,147.525 111.684,158 114,158 118.816,158 124.783,144.358 129.5,142 133.973,139.763 137.963,136.268 142.5,134 142.5,134 146,132 146,132  Z"/>

<path  fill="#022CFF" stroke-width="0" stroke="#022CFF" d = " M369 147 C369,150.746 371.091,147 369,147  Z"/>

<path  fill="#022CFF" stroke-width="0" stroke="#022CFF" d = " M371 151 L375,157 C376.322,157 376.4,160.7 378,157.5 378.665,156.169 371,148.804 371,151  Z"/>

<path  fill-rule="evenodd" fill="#022CFF" stroke-width="0" stroke="#022CFF" d = " M251 180 L247,185.5 L249,188.5 C252.576,195.653 257.428,180 251,180  M233 180 C233,182.632 233.079,184.341 232,186.5 231.06,188.379 235.119,191 236.5,191 241.137,191 239.095,180 233,180  M250 194 L251,195 C256.497,195 262.033,190 267,190 267,187.253 267.253,187 270,187 270,178.959 283.826,179 290,179 290,179 290,175 290,175 285.403,175 284.215,173.857 280.5,172 280.5,172 278.5,168 278.5,168 278.5,168 276,169 276,169 276,170.238 275.577,172 274,172 274,172 271,172 271,172 271,172 269,174 269,174 269,174 268,175 268,175 257.719,175 262.384,176.942 252.5,172 250.882,171.191 249.145,171.79 248,169.5 246.248,165.996 244.716,161.932 243,158.5 243,158.5 240.5,157 240.5,157 240.5,157 239,165.5 239,165.5 237.077,169.346 233.365,176.068 229.5,178 220.108,182.696 214.825,174 208.5,174 206.024,174 199.712,179 194,179 194,179 194,180 194,180 194,180 197,183 197,183 199.817,183 213,186.84 213,189 213,189 214,190 214,190 218.445,190 221.278,193 226,193 226,193 229,193 229,193 230.618,193 233.745,190.622 234.5,191 234.5,191 237,193 237,193 239.618,193 244.472,190.486 247.5,192 247.5,192 250,194 250,194  Z"/>

<path  fill="#DDD951" stroke-width="0" stroke="#DDD951" d = " M269 160 L268,163.5 C270.335,168.169 277.083,160 269,160  Z"/>

<path  fill="#022CFF" stroke-width="0" stroke="#022CFF" d = " M379 164 L381,164 C383.605,164 379,160.111 379,163 379,163 379,164 379,164  Z"/>

<path  fill="#DDD951" stroke-width="0" stroke="#DDD951" d = " M279 165 L278,166.5 C278,170.243 282.368,165 279,165  Z"/>

<path  fill="#DDD951" stroke-width="0" stroke="#DDD951" d = " M276 169 C276,170.238 275.577,172 274,172 274,170.555 276,166.648 276,169  Z"/>

<path  fill="#022CFF" stroke-width="0" stroke="#022CFF" d = " M390 184 C390,186.302 391.274,196 388,196 388,196 388,185.5 388,185.5 388,185.5 384,181 384,181 384,178.75 384,177.624 384,176 384,176 383,175 383,175 383,175 381,169 381,169 382.247,169 386,167.275 386,171 386,172.424 386.362,176 388,176 388,176 388,180 388,180 388,181.238 388.423,183 390,183 390,183 390,184 390,184  Z"/>

<path  fill="#022CFF" stroke-width="0" stroke="#022CFF" d = " M100 194 L103,195 C103,193.494 104.804,183 106,183 106,178.209 108,173.864 108,170 105.238,170 100,190.19 100,194  Z"/>

<path  fill="#DDD951" stroke-width="0" stroke="#DDD951" d = " M271 172 L269,174 C269,171.89 271,168.186 271,172  Z"/>

<path  fill="#BC20AD" stroke-width="0" stroke="#BC20AD" d = " M290 179 L292,179 C292,174.101 313.904,172.702 318.5,175 319.68,175.59 327,173.738 327,173 327,170.793 321.824,172.662 320.5,172 309.618,166.559 300.43,175 290,175 290,175 290,179 290,179  Z"/>

<path  fill-rule="evenodd" fill="#006400" stroke-width="0" stroke="#006400" d = " M161 242 C161,244.753 167.234,245.867 169.5,247 175.719,250.109 195.507,259.996 203.5,256 209.648,252.926 192.528,251 191,251 186.942,251 181.931,248.716 178.5,247 172.555,244.027 168.323,242 161,242  M328 235 C328,235.726 317.768,237.366 316.5,238 307.517,242.491 298.411,245.545 289.5,250 288.293,250.604 278.782,251.063 280,253.5 281.045,255.59 292.057,253.722 293.5,253 300.743,249.379 309.217,247.641 316.5,244 318.287,243.106 334.165,235 328,235  M263 222 L259,226.5 L259,231.5 C259,249.197 276.348,222 263,222  M219 222 C219,224.097 218,227.293 218,230 218,231.682 222.826,240.337 225.5,239 229.203,237.149 230.503,222 219,222  M171 275 C174.423,275 177.474,277 180,277 180,275.323 186.276,277.388 187.5,278 187.803,278.152 196.609,276.446 197.5,276 199.339,275.08 201.766,275.867 203.5,275 203.5,275 206.5,270 206.5,270 206.5,270 220,266 220,266 220,258.979 236.368,259 242,259 242,257.514 245,257.514 245,259 245,259 252.5,260 252.5,260 252.5,260 254.5,258 254.5,258 254.5,258 257.5,261 257.5,261 260.747,262.624 266,257.741 266,266 271.374,266 276.907,269.704 281.5,272 285.085,273.793 302.634,270.567 303.5,271 305.584,272.042 306.408,273 309,273 309,273 312,272 312,272 313.974,272 315.517,270 318,270 318,270 320,268 320,268 327.046,268 339.909,244 344,244 344,244 346,243 346,243 346,243 347,242 347,242 347,240.357 350.765,241 352,241 352,241 354,239 354,239 354,236.614 355.196,233 358,233 358,233 359,232 359,232 359,232 360,230 360,230 360,227.137 368.366,217.232 366,212.5 364.51,209.519 365.446,205.392 364,202.5 362.277,199.055 358,197.154 358,193 358,193 358,192 358,192 358,189.227 354,188.33 354,186 354,186 349,181 349,181 349,179.288 346.429,178 345,178 339.275,178 334.549,173 328,173 328,173 327,173 327,173 327,173.738 319.68,175.59 318.5,175 313.904,172.702 292,174.101 292,179 292,179 295,185.5 295,185.5 295,196.648 285.316,199.408 276.5,195 276.5,195 271,191 271,191 271,191 267,190 267,190 262.033,190 256.497,195 251,195 251,197.003 251.293,198 249,198 249,203.495 244,206.088 244,211.5 244,212.293 245.585,218 243.5,218 243.5,218 241,213.5 241,213.5 241,207.557 237,203.523 237,198 237,198 237,193 237,193 237,193 234.5,191 234.5,191 233.745,190.622 230.618,193 229,193 229,194.486 226,194.486 226,193 221.278,193 218.445,190 214,190 214,190 213,190 213,190 213,201.475 193.371,200.242 191,195.5 190.421,194.341 196,183.616 196,183 196,181.851 190.553,181.527 189.5,181 182.641,177.57 178.424,177 170,177 170,177 168,177 168,177 165.293,177 162.097,176 160,176 160,176 151.5,176 151.5,176 151.5,176 147,179 147,179 147,179 145,180 145,180 145,180 143,181 143,181 143,183.177 138.664,185 137,185 137,186.093 131.07,193.361 130,195.5 130,195.5 127,197 127,197 127,197 127,198 127,198 127,199.664 125.177,204 123,204 123,213.176 119.266,213.032 124,222.5 124.93,224.359 123.481,231 127,231 127,230.247 131.198,232.896 132,234.5 133.911,238.323 132,241.218 132,245 132,245 134,246 134,246 135.791,246 136.959,242.73 139.5,244 142.075,245.287 142.057,247.615 143,249.5 143,249.5 161.5,265 161.5,265 161.5,265 171,275 171,275  Z"/>

<path  fill="#BC20AD" stroke-width="0" stroke="#BC20AD" d = " M196 183 L197,183 C197,183 194,180 194,180 194,180 193,179 193,179 187.539,179 176.536,169.482 165.5,175 164.262,175.619 160,173.856 160,176 162.097,176 165.293,177 168,177 168,175.601 170,175.601 170,177 178.424,177 182.641,177.57 189.5,181 190.553,181.527 196,181.851 196,183  Z"/>

<path  fill="#DDD951" stroke-width="0" stroke="#DDD951" d = " M269 174 L268,175 C268,175 269,174 269,174  Z"/>

<path  fill="#FF571E" stroke-width="0" stroke="#FF571E" d = " M270 187 L271,191 C271,191 276.5,195 276.5,195 285.316,199.408 295,196.648 295,185.5 295,185.5 292,179 292,179 292,179 290,179 290,179 283.826,179 270,178.959 270,187  Z"/>

<path  fill="#45EBCA" stroke-width="0" stroke="#45EBCA" d = " M233 180 C233,182.632 233.079,184.341 232,186.5 231.06,188.379 235.119,191 236.5,191 241.137,191 239.095,180 233,180  Z"/>

<path  fill="#45EBCA" stroke-width="0" stroke="#45EBCA" d = " M251 180 L247,185.5 L249,188.5 C252.576,195.653 257.428,180 251,180  Z"/>

<path  fill="#FF00FF" stroke-width="0" stroke="#FF00FF" d = " M348 269 C350.242,269 353.11,266.281 354,264.5 357.418,257.664 390.27,238.96 379,261.5 L377,268.5 C375.213,272.073 367,276.555 367,281 373.65,281 379.167,265 384,265 384,265 385,264 385,264 385,259.276 391,251.61 391,245 391,242.394 390.05,242.6 389,240.5 387.661,237.821 388.895,229.71 390,227.5 391.077,225.347 389,206.29 389,202 389,202 389,201 389,201 385.69,201 388,198.004 388,197 388,197 388,196 388,196 388,196 388,185.5 388,185.5 388,185.5 384,181 384,181 381.485,181 384,186.014 384,187 384,187 382,195 382,195 382,211.106 377.16,224.18 370,238.5 369.011,240.478 366.287,248 363,248 363,248 359,251 359,251 359,251 358,252 358,252 358,258.03 347,263.402 347,269 347,269 348,269 348,269  Z"/>

<path  fill="#FF00FF" stroke-width="0" stroke="#FF00FF" d = " M110 196 C110,198.367 105.134,202 103,202 103,202 103,195 103,195 103,193.494 104.804,183 106,183 106,186.405 110,195.145 110,196  Z"/>

<path  fill="#FF571E" stroke-width="0" stroke="#FF571E" d = " M213 189 L213,190 C213,201.475 193.371,200.242 191,195.5 190.421,194.341 196,183.616 196,183 196,183 197,183 197,183 199.817,183 213,186.84 213,189  Z"/>

<path  fill="#022CFF" stroke-width="0" stroke="#022CFF" d = " M362 240 L364,241 C364,241 369,230.5 369,230.5 371.076,226.347 369.898,220.703 372,216.5 375.82,208.861 365,200.281 365,194 365,194 363,192 363,192 363,192 356,186 356,186 356,186 354,186 354,186 354,188.33 358,189.227 358,192 358,192 359,193 359,193 359,193 365,200.5 365,200.5 365,200.5 368,210.5 368,210.5 373.099,220.698 362,231.671 362,240  Z"/>

<path  fill="#00FF1D" stroke-width="0" stroke="#00FF1D" d = " M116 249 C116,249.976 129.326,265 132,265 132,259.049 125.526,253.553 123,248.5 120.939,244.378 118,221.388 118,216 115.578,216 118,210.647 118,209.5 118,205.522 121.847,196 127,196 127,196 128,192 128,192 124.205,192 119.774,195.363 116.5,197 116.5,197 110,196 110,196 110,198.367 105.134,202 103,202 103,204.03 110.416,239.331 111,240.5 111,240.5 116,249 116,249  Z"/>

<path  fill="#FF00DA" stroke-width="0" stroke="#FF00DA" d = " M237 198 C238.643,198 249,193.752 249,198 251.293,198 251,197.003 251,195 251,195 250,194 250,194 250,194 247.5,192 247.5,192 244.472,190.486 239.618,193 237,193 237,193 237,198 237,198  Z"/>

<path  fill="#267EFF" stroke-width="0" stroke="#267EFF" d = " M344 271 C341.436,271 338,278.939 338,272 338,272 340,268 340,268 341.577,268 342,266.238 342,265 342,265 343,264 343,264 343,264 344,263 344,263 344,263 345,261 345,261 346.577,261 347,259.238 347,258 348.028,258 351,253.334 351,252 351,252 352,250 352,250 352,250 352,249 352,249 352,249 353,246 353,246 355.109,246 355,243.465 355,242 356.231,242 358,234.378 358,233 358,233 359,232 359,232 359,232 360,230 360,230 360,227.137 368.366,217.232 366,212.5 364.51,209.519 365.446,205.392 364,202.5 362.277,199.055 358,197.154 358,193 358,193 359,193 359,193 359,193 365,200.5 365,200.5 365,200.5 368,210.5 368,210.5 373.099,220.698 362,231.671 362,240 362,244.531 359,246.97 359,251 359,251 358,252 358,252 358,258.03 347,263.402 347,269 345.762,269 344,269.423 344,271  Z"/>

<path  fill="#00FF1D" stroke-width="0" stroke="#00FF1D" d = " M364 241 L363,248 C366.287,248 369.011,240.478 370,238.5 377.16,224.18 382,211.106 382,195 382,195 373.5,197 373.5,197 371.519,196.01 367.072,193 365,193 365,193 365,194 365,194 365,200.281 375.82,208.861 372,216.5 369.898,220.703 371.076,226.347 369,230.5 369,230.5 364,241 364,241  Z"/>

<path  fill="#814FFF" stroke-width="0" stroke="#814FFF" d = " M146 282 C141.021,282 138.485,272.992 134.5,271 124.21,265.855 114.046,267.591 121,281.5 122.186,283.872 129,286.929 129,289 107.45,289 115.194,266.347 104.5,261 102.451,259.976 99.4652,260.983 97.5,260 97.5,260 92,254 92,254 92,254 88,248.5 88,248.5 88,248.5 86,228 86,228 86,228 87.5,229 87.5,229 89.0888,229 89.5464,223.407 90,222.5 92.6955,217.109 98.8971,203.294 97,199.5 97,199.5 100,194 100,194 100,194 103,195 103,195 103,195 103,202 103,202 103,202 100.5,201 100.5,201 100.5,201 99,219.5 99,219.5 98.073,221.354 95.8698,227.24 97,229.5 99.3415,234.183 104.849,249.675 109.5,252 111.863,253.182 113.892,249 116,249 116,249.976 129.326,265 132,265 134.282,265 141.533,275.033 144,277.5 144,277.5 148,281 148,281 148,281 146,282 146,282  Z"/>

<path  fill="#022CFF" stroke-width="0" stroke="#022CFF" d = " M122 204 C122,207.501 118,212.079 118,216 115.578,216 118,210.647 118,209.5 118,205.522 121.847,196 127,196 127,196 127,197 127,197 127,197 127,198 127,198 127,198 122,204 122,204  Z"/>

<path  fill="#022CFF" stroke-width="0" stroke="#022CFF" d = " M237 198 C238.643,198 249,193.752 249,198 249,203.495 244,206.088 244,211.5 244,212.293 245.585,218 243.5,218 243.5,218 241,213.5 241,213.5 241,207.557 237,203.523 237,198  Z"/>

<path  fill="#022CFF" stroke-width="0" stroke="#022CFF" d = " M388 197 C392.443,197 389,199.467 389,201 385.69,201 388,198.004 388,197  Z"/>

<path  fill="#022CFF" stroke-width="0" stroke="#022CFF" d = " M103 202 L100.5,201 L99,219.5 C98.073,221.354 95.8698,227.24 97,229.5 99.3415,234.183 104.849,249.675 109.5,252 111.863,253.182 113.892,249 116,249 116,249 111,240.5 111,240.5 110.416,239.331 103,204.03 103,202  Z"/>

<path  fill="#022CFF" stroke-width="0" stroke="#022CFF" d = " M393 244 L391,245 C391,242.394 390.05,242.6 389,240.5 387.661,237.821 388.895,229.71 390,227.5 391.077,225.347 389,206.29 389,202 393.563,202 391.635,208.769 393,211.5 393,211.5 396,216.5 396,216.5 396,220.099 396.649,237.203 395,240.5 394.191,242.119 393,241.971 393,244  Z"/>

<path  fill="#267EFF" stroke-width="0" stroke="#267EFF" d = " M148 281 C149.137,281 152,283.091 152,281 152,281 151,278 151,278 146.073,278 131,250.044 131,245 131,240.898 127,236.264 127,231 123.481,231 124.93,224.359 124,222.5 119.266,213.032 123,213.176 123,204 123,204 122,204 122,204 122,207.501 118,212.079 118,216 118,221.388 120.939,244.378 123,248.5 125.526,253.553 132,259.049 132,265 134.282,265 141.533,275.033 144,277.5 144,277.5 148,281 148,281  Z"/>

<path  fill="#F44345" stroke-width="0" stroke="#F44345" d = " M219 222 C219,224.097 218,227.293 218,230 218,231.682 222.826,240.337 225.5,239 229.203,237.149 230.503,222 219,222  Z"/>

<path  fill="#F44345" stroke-width="0" stroke="#F44345" d = " M263 222 L259,226.5 L259,231.5 C259,249.197 276.348,222 263,222  Z"/>

<path  fill="#DD6479" stroke-width="0" stroke="#DD6479" d = " M399 269 C403.578,269 407.638,271.069 411.5,273 414.185,274.343 417.083,270.291 418.5,271 420.066,271.783 421.2,275.15 423.5,274 428.911,271.294 430.267,269 437,269 437,267.076 433.583,262.335 434,261.5 435.067,259.365 443.849,255.802 446,251.5 448.105,247.29 448,238.859 448,234 448,231.601 439.236,230.868 437.5,230 431.841,227.171 425.81,229.155 419.5,226 419.5,226 412.5,227 412.5,227 411.009,226.255 410.167,224 408.5,224 407.722,224 406.064,225 404,225 404,230.354 403.308,238.885 401,243.5 400.35,244.8 400.993,250 399,250 399,252.916 392.517,269 399,269  Z"/>

<path  fill="#DD6479" stroke-width="0" stroke="#DD6479" d = " M54 273 C57.8149,273 65.7933,274.647 68.5,276 74.2051,278.853 82.9665,274 88,274 88,272.688 94.8566,268.787 96,266.5 98.2069,262.086 92,257.584 92,254 92,254 88,248.5 88,248.5 88,248.5 86,228 86,228 86,228 85,226 85,226 85,226 82.5,228 82.5,228 81.7082,228.396 74.9515,227.274 71.5,229 68.4931,230.503 66.3337,227 64.5,227 64.5,227 60.5,231 60.5,231 60.5,231 56.5,230 56.5,230 52.6582,231.921 41.1531,236 37,236 37,236 35,237.5 35,237.5 32.0564,243.387 37.8521,253.204 40,257.5 43.2153,263.931 54,258.279 54,273  Z"/>

<path  fill="#D4FF00" stroke-width="0" stroke="#D4FF00" d = " M328 235 C328,235.726 317.768,237.366 316.5,238 307.517,242.491 298.411,245.545 289.5,250 288.293,250.604 278.782,251.063 280,253.5 281.045,255.59 292.057,253.722 293.5,253 300.743,249.379 309.217,247.641 316.5,244 318.287,243.106 334.165,235 328,235  Z"/>

<path  fill="#FAAA40" stroke-width="0" stroke="#FAAA40" d = " M355 242 C355,243.465 355.109,246 353,246 353,246 352,241 352,241 352,241 354,239 354,239 354,239 355,242 355,242  Z"/>

<path  fill="#FF3427" stroke-width="0" stroke="#FF3427" d = " M321 293 C321,297.35 302.097,298 299,298 289.421,298 298,292.185 298,290 298,290 306,285 306,285 306,285 307,284 307,284 307,284 308,283 308,283 308,283 309,282 309,282 309,282 315,277 315,277 315,277 316,276 316,276 316,276 318,272 318,272 320.109,272 320,269.465 320,268 327.046,268 339.909,244 344,244 344,244 346,243 346,243 346,243 347,242 347,242 347,240.357 350.765,241 352,241 352,241 353,246 353,246 353,246 352,249 352,249 352,249 351,250 351,250 351,250 350,251 350,251 350,251 350,252 350,252 347.686,252 347,256.262 347,258 345.423,258 345,259.762 345,261 345,261 344,263 344,263 344,263 343,264 343,264 343,264 342,265 342,265 340.423,265 340,266.762 340,268 340,268 338,272 338,272 338,272 335,275 335,275 335,275 335,276 335,276 335,276 334,277 334,277 332.173,277 321,292.402 321,293  Z"/>

<path  fill="#D4FF00" stroke-width="0" stroke="#D4FF00" d = " M161 242 C161,244.753 167.234,245.867 169.5,247 175.719,250.109 195.507,259.996 203.5,256 209.648,252.926 192.528,251 191,251 186.942,251 181.931,248.716 178.5,247 172.555,244.027 168.323,242 161,242  Z"/>

<path  fill="#03C12D" stroke-width="0" stroke="#03C12D" d = " M359 340 L364,341 C368.544,341 383.887,349.307 386.5,348 390.519,345.991 395.545,345.977 399.5,344 399.5,344 417.5,334 417.5,334 431.497,327.002 428.475,307.55 434,296.5 434,296.5 433,285 433,285 433,285 418.5,284 418.5,284 418.5,284 415.5,282 415.5,282 415.5,282 414.5,287 414.5,287 412.556,287 413.238,282.869 411.5,282 408.809,280.654 401.545,281.59 400,278.5 400,278.5 401,274.5 401,274.5 401,274.5 399,269 399,269 392.517,269 399,252.916 399,250 399,250 399,244 399,244 397.369,244 394.631,244 393,244 393,244 391,245 391,245 391,251.61 385,259.276 385,264 385,264 384,265 384,265 379.167,265 373.65,281 367,281 367,281 363.5,283 363.5,283 356.805,286.347 352.594,289 345.5,289 345.5,289 342,287 342,287 342,287 341,287 341,287 340.95,287 330.21,294 323,294 323,294 316,303 316,303 316,304.49 316.735,311 315,311 315,316.733 323,323.726 323,326 327.001,326 332.125,331 336,331 342.496,331 346.177,334.338 351.5,337 352.933,337.716 359,337.838 359,340  Z"/>

<path  fill="#FF3427" stroke-width="0" stroke="#FF3427" d = " M186 300 C183.087,300 181.234,301 177,301 173.63,301 169.008,294 167,294 167,293.387 154.681,281 153,281 153,279.952 153.473,278 152,278 152,278 146,270.5 146,270.5 142.451,263.401 134,255.703 134,246 135.791,246 136.959,242.73 139.5,244 142.075,245.287 142.057,247.615 143,249.5 143,249.5 161.5,265 161.5,265 161.5,265 171,275 171,275 171,281.189 190,289.431 190,294 190,296.58 186,297.211 186,300  Z"/>

<path  fill="#FAAA40" stroke-width="0" stroke="#FAAA40" d = " M151 278 L152,278 C152,278 146,270.5 146,270.5 142.451,263.401 134,255.703 134,246 134,246 132,245 132,245 132,245 131,245 131,245 131,250.044 146.073,278 151,278  Z"/>

<path  fill="#FAAA40" stroke-width="0" stroke="#FAAA40" d = " M350 252 L351,252 C351,252 352,250 352,250 352,250 351,250 351,250 351,250 350,251 350,251 350,251 350,252 350,252  Z"/>

<path  fill="#0E47E2" stroke-width="0" stroke="#0E47E2" d = " M341 285 L342,287 C342,287 345.5,289 345.5,289 352.594,289 356.805,286.347 363.5,283 363.5,283 367,281 367,281 367,276.555 375.213,272.073 377,268.5 377,268.5 379,261.5 379,261.5 390.27,238.96 357.418,257.664 354,264.5 353.11,266.281 350.242,269 348,269 348,271.109 345.465,271 344,271 344,272.463 340.514,278 339,278 339,278 341,285 341,285  Z"/>

<path  fill="#03C12D" stroke-width="0" stroke="#03C12D" d = " M119 345 L122,345 C122,345 123,344 123,344 123,344 129,342 129,342 129,339.133 134.149,340 136,340 136,340 138,339 138,339 138,337.357 141.765,338 143,338 143,335.891 145.535,336 147,336 147,334.268 152.353,333 154,333 154,327.607 159.624,330.438 162.5,329 163.613,328.444 164.47,326 166.5,326 166.5,326 168.5,327 168.5,327 168.5,327 169.5,324 169.5,324 169.5,324 171,326 171,326 171,324.012 176.967,318.565 178,316.5 180.737,311.027 177,306.118 177,301 173.63,301 169.008,294 167,294 165.196,294 161.864,296.182 159.5,295 156.973,293.737 155.108,293 152,293 152,293 151,293 151,293 151,293 140,295 140,295 138.762,295 137,294.577 137,293 137,293 135,291 135,291 135,291 134,291 134,291 134,291 133,290 133,290 133,290 129,289 129,289 107.45,289 115.194,266.347 104.5,261 102.451,259.976 99.4652,260.983 97.5,260 97.5,260 92,254 92,254 92,257.584 98.2069,262.086 96,266.5 94.8566,268.787 88,272.688 88,274 89.3826,274 89.624,279.438 88.5,280 84.9486,281.776 79.9485,281.276 76.5,283 76.5,283 72.5,288 72.5,288 66.691,288 71.1817,286 63,286 61.9865,286 54,283.271 54,286 54,300.889 64.5722,323.644 71,336.5 73.4055,341.311 80.4914,343.996 84.5,346 87.324,347.412 100.176,348.662 103.5,347 103.5,347 110.5,343 110.5,343 113.024,343 116.128,345 119,345  Z"/>

<path  fill="#022CFF" stroke-width="0" stroke="#022CFF" d = " M242 259 C242,265.209 239.139,272.778 242,278.5 242.664,279.829 240.684,285.908 244.5,284 247.056,282.722 245,261.065 245,259 245,257.514 242,257.514 242,259  Z"/>

<path  fill="#07FF59" stroke-width="0" stroke="#07FF59" d = " M228 286 C240.317,286 249.429,286 260,286 260,283.848 260.362,278 263,278 263,278 264,277 264,277 264,275.728 265.114,266 266,266 266,257.741 260.747,262.624 257.5,261 257.5,261 254.5,258 254.5,258 254.5,258 252.5,260 252.5,260 252.5,260 245,259 245,259 245,261.065 247.056,282.722 244.5,284 240.684,285.908 242.664,279.829 242,278.5 239.139,272.778 242,265.209 242,259 236.368,259 220,258.979 220,266 222.478,266 225,276.612 225,279 225,281.167 228,282.855 228,286  Z"/>

<path  fill="#9953FF" stroke-width="0" stroke="#9953FF" d = " M186 300 C186,304.285 192.499,319 198,319 198,307.517 208.185,298.658 217.5,294 219.143,293.178 217.229,288 221,288 221,281.27 216.491,279 225,279 225,276.612 222.478,266 220,266 220,266 206.5,270 206.5,270 206.5,270 203.5,275 203.5,275 201.766,275.867 199.339,275.08 197.5,276 196.609,276.446 187.803,278.152 187.5,278 186.276,277.388 180,275.323 180,277 180,280.497 199.842,292.829 193.5,296 193.5,296 190,294 190,294 190,296.58 186,297.211 186,300  Z"/>

<path  fill="#9953FF" stroke-width="0" stroke="#9953FF" d = " M299 298 C299,301.875 291.935,309 288,309 288,309 283,301.5 283,301.5 282.292,300.085 266.53,286 266,286 266,282.404 269.158,278 264,278 264,278 264,277 264,277 264,275.728 265.114,266 266,266 271.374,266 276.907,269.704 281.5,272 285.085,273.793 302.634,270.567 303.5,271 305.584,272.042 306.408,273 309,273 309,273 309,274 309,274 309,276.323 288.666,290 298,290 298,292.185 289.421,298 299,298  Z"/>

<path  fill="#0E47E2" stroke-width="0" stroke="#0E47E2" d = " M134 291 L135,291 C138.103,291 146,289.079 146,285 146,285 146,282 146,282 141.021,282 138.485,272.992 134.5,271 124.21,265.855 114.046,267.591 121,281.5 122.186,283.872 129,286.929 129,289 129,289 133,290 133,290 133,290 134,291 134,291  Z"/>

<path  fill="#2E8B57" stroke-width="0" stroke="#2E8B57" d = " M437 269 L438,280.5 C437.263,281.973 433,284.627 433,285 433,285 418.5,284 418.5,284 418.5,284 415.5,282 415.5,282 415.5,282 414.5,287 414.5,287 412.556,287 413.238,282.869 411.5,282 408.809,280.654 401.545,281.59 400,278.5 400,278.5 401,274.5 401,274.5 401,274.5 399,269 399,269 403.578,269 407.638,271.069 411.5,273 414.185,274.343 417.083,270.291 418.5,271 420.066,271.783 421.2,275.15 423.5,274 428.911,271.294 430.267,269 437,269  Z"/>

<path  fill="#0000FF" stroke-width="0" stroke="#0000FF" d = " M306 285 L298,290 C288.666,290 309,276.323 309,274 310.238,274 312,273.577 312,272 313.974,272 315.517,270 318,270 318,270 318,272 318,272 318,272 316,276 316,276 316,276 315,277 315,277 315,277 309,282 309,282 309,282 308,283 308,283 308,283 307,284 307,284 307,284 306,285 306,285  Z"/>

<path  fill="#2E8B57" stroke-width="0" stroke="#2E8B57" d = " M88 274 C89.3826,274 89.624,279.438 88.5,280 84.9486,281.776 79.9485,281.276 76.5,283 L72.5,288 C66.691,288 71.1817,286 63,286 61.9865,286 54,283.271 54,286 45.9027,286 39.8515,273 54,273 57.8149,273 65.7933,274.647 68.5,276 74.2051,278.853 82.9665,274 88,274  Z"/>

<path  fill="#0000FF" stroke-width="0" stroke="#0000FF" d = " M180 277 C180,280.497 199.842,292.829 193.5,296 L190,294 C190,289.431 171,281.189 171,275 174.423,275 177.474,277 180,277  Z"/>

<path  fill="#267EFF" stroke-width="0" stroke="#267EFF" d = " M338 276 L335,277 C335,277 335,276 335,276 335,276 335,275 335,275 336.048,275 338,274.527 338,276  Z"/>

<path  fill="#022CFF" stroke-width="0" stroke="#022CFF" d = " M321 293 L323,294 C330.21,294 340.95,287 341,287 341,287 341,285 341,285 341,285 339,278 339,278 339,278 338,276 338,276 338,276 335,277 335,277 335,277 334,277 334,277 332.173,277 321,292.402 321,293  Z"/>

<path  fill="#EEBA00" stroke-width="0" stroke="#EEBA00" d = " M223 288 L224,289 C225.429,289 228,287.712 228,286 228,282.855 225,281.167 225,279 216.491,279 221,281.27 221,288 221,288 223,288 223,288  Z"/>

<path  fill="#EEBA00" stroke-width="0" stroke="#EEBA00" d = " M260 286 C260,289.406 266,290.341 266,286 266,282.404 269.158,278 264,278 264,278 263,278 263,278 260.362,278 260,283.848 260,286  Z"/>

<path  fill="#022CFF" stroke-width="0" stroke="#022CFF" d = " M152 293 C155.108,293 156.973,293.737 159.5,295 161.864,296.182 165.196,294 167,294 167,293.387 154.681,281 153,281 153,281 152,281 152,281 152,283.091 149.137,281 148,281 148,281 146,282 146,282 146,282 146,285 146,285 146,285 151,292 151,292 151,292 152,293 152,293  Z"/>

<path  fill="#814FFF" stroke-width="0" stroke="#814FFF" d = " M151 293 L140,295 C140,293.423 138.238,293 137,293 137,293 135,291 135,291 138.103,291 146,289.079 146,285 146,285 151,292 151,292 151,292 151,293 151,293  Z"/>

<path  fill-rule="evenodd" fill="#E278A1" stroke-width="0" stroke="#E278A1" d = " M271 304 L269,305.5 C267.976,307.547 272.319,309.591 273.5,309 276.386,307.557 273.559,304 271,304  M213 304 L211,306 L211,310.5 C213.022,314.544 220.789,304 213,304  M242 337 L244,340 C242.459,340 246.15,342.2 245,344.5 245,344.5 240.5,346 240.5,346 240.5,346 230,345 230,345 230,345 226.5,346 226.5,346 217.705,341.603 198,332.399 198,319 198,307.517 208.185,298.658 217.5,294 219.143,293.178 217.229,288 221,288 221,288 223,288 223,288 223,288 224,289 224,289 225.429,289 228,287.712 228,286 240.317,286 249.429,286 260,286 260,289.406 266,290.341 266,286 266.53,286 282.292,300.085 283,301.5 283,301.5 288,309 288,309 288,326.663 285.132,334.684 268.5,343 266.068,344.216 257.3,348.4 254.5,347 252.388,345.944 249.505,347.003 247.5,346 246.009,345.254 247.649,340 245,340 245,334.637 245.651,325.199 248,320.5 248.647,319.205 247.343,317 246,317 246,317 245,316 245,316 245,313.319 242.922,315 242,315 240.527,315 241,316.952 241,318 239.527,318 240,319.952 240,321 240,324.389 241,328.544 241,332.5 241,333.867 242,339.355 242,337  Z"/>

<path  fill="#9953FF" stroke-width="0" stroke="#9953FF" d = " M223 288 L224,289 C224,289 223,288 223,288  Z"/>

<path  fill="#814FFF" stroke-width="0" stroke="#814FFF" d = " M133 290 L134,291 C134,291 133,290 133,290  Z"/>

<path  fill="#0E47E2" stroke-width="0" stroke="#0E47E2" d = " M316 303 C316,304.49 316.735,311 315,311 312.166,311 305.126,305.187 309.5,303 310.823,302.338 316,299.988 316,303  Z"/>

<path  fill="#15C0FF" stroke-width="0" stroke="#15C0FF" d = " M213 304 L211,306 L211,310.5 C213.022,314.544 220.789,304 213,304  Z"/>

<path  fill="#15C0FF" stroke-width="0" stroke="#15C0FF" d = " M271 304 L269,305.5 C267.976,307.547 272.319,309.591 273.5,309 276.386,307.557 273.559,304 271,304  Z"/>

<path  fill="#022CFF" stroke-width="0" stroke="#022CFF" d = " M244 340 L245,340 C245,334.637 245.651,325.199 248,320.5 248.647,319.205 247.343,317 246,317 246,317 245,316 245,316 245,313.319 242.922,315 242,315 242,316.048 242.473,318 241,318 239.527,318 240,319.952 240,321 243.501,321 242,333.68 242,337 242,337 244,340 244,340  Z"/>

<path  fill="#FA8072" stroke-width="0" stroke="#FA8072" d = " M359 340 L364,341 C364,342.772 368.083,348.334 367,350.5 364.181,356.137 351.852,355.824 347.5,358 341.715,360.892 333.403,358.548 328.5,361 328.5,361 323.5,365 323.5,365 321.767,365.867 319.756,363.628 318.5,363 315.685,361.592 311.344,362.422 308.5,361 303.217,358.358 305.086,355.672 303,351.5 303,351.5 298.5,352 298.5,352 295.717,350.609 294.596,342.309 296,339.5 296.305,338.89 306.104,337.293 308,333.5 308,333.5 308,330.5 308,330.5 308.614,329.271 317.965,322.732 318.5,323 320.478,323.989 320.523,326 323,326 327.001,326 332.125,331 336,331 336,331 337.5,338 337.5,338 337.5,338 342.5,337 342.5,337 346.246,338.873 354.834,340 359,340  Z"/>

<path  fill="#FA8072" stroke-width="0" stroke="#FA8072" d = " M119 345 L122,345 C122,345 123,344 123,344 123,344 129,342 129,342 129.969,342 136,340.853 136,340 136,340 138,339 138,339 138,337.357 141.765,338 143,338 143,338 147,336 147,336 150.567,336 154,337.253 154,333 154,327.607 159.624,330.438 162.5,329 163.613,328.444 164.47,326 166.5,326 166.5,326 168.5,327 168.5,327 168.5,327 169.5,324 169.5,324 169.5,324 171,326 171,326 175.46,326 181.067,331.635 183,335.5 184.772,339.043 193,340.266 193,345.5 193,345.5 188,348.5 188,348.5 188,348.5 190,351.5 190,351.5 188.649,354.202 181.031,362 177.5,362 177.289,362 170.18,360.34 169.5,360 169.5,360 166.5,355 166.5,355 164.45,353.975 162.485,355.471 161,352.5 161,352.5 161,346.5 161,346.5 161,346.5 153.5,345 153.5,345 152.25,345.625 153.92,348.42 154.5,349 156.179,350.679 163.047,358.226 157.5,361 157.5,361 140.5,359 140.5,359 140.5,359 134.5,360 134.5,360 131.439,358.47 128.509,357.505 125.5,356 122.892,354.696 118.679,355.858 117,352.5 115.442,349.383 119,347.099 119,345  Z"/>

</g>
</svg>
