<svg xmlns="http://www.w3.org/2000/svg" xmlns:xlink="http://www.w3.org/1999/xlink" height="512" width="512">
<g>
<rect width="512" height="512" fill="#000000"  stroke-width="0" /> 
<path  fill-rule="evenodd" fill="#FFE300" stroke-width="0" stroke="#FFE300" d = " M244 188 L243,190 C243,197.778 249.461,188 244,188  M208 265 L218.5,265 C221.134,263.683 220.117,261.192 222.5,260 L226.5,260 C230.346,258.077 239.391,250.717 241,247.5 242.435,244.629 239.923,227.712 244.5,230 L245,236 C245,241.661 246.656,245.812 249,250.5 L266.5,263 L270.5,263 L273.5,268 C275.079,268.79 282,265.909 282,265 282,264.011 267.538,257.019 265.5,256 256.587,251.543 254.752,242.004 251,234.5 249.678,231.856 252,227.553 252,225.5 252,225.5 250,220.5 250,220.5 250,207.041 258.705,189.911 252,176.5 251.281,175.062 248.738,163 248,163 248,164.964 247.423,177.962 243.5,176 240.148,174.324 244.94,162.381 243,158.5 243,158.5 237,145.5 237,145.5 231.084,133.668 207.934,137.283 198.5,142 184.473,149.013 180.053,169.395 174,181.5 170.849,187.802 176,198.557 176,204 176,209.016 176.468,232 182,232 182,226.217 182.247,226.006 185,220.5 186.564,217.372 181.436,215.628 183,212.5 183,212.5 185,210.5 185,210.5 185,210.5 183,208.5 183,208.5 183,208.5 184,205.5 184,205.5 178.383,194.266 180.716,169.069 186,158.5 186,158.5 191,154.5 191,154.5 196.669,143.162 218.221,136.861 230.5,143 235.273,145.386 236.952,150.404 239,154.5 240.313,157.126 240.313,166.874 239,169.5 237.614,172.272 235,173.157 235,177.5 235,184.854 239.644,211.213 237,216.5 237,216.5 234,219.5 234,219.5 234,219.5 235,224.5 235,224.5 233.493,227.515 234.492,231.516 233,234.5 233,234.5 231,237.5 231,237.5 231,238.997 231.121,243.257 230,245.5 226.883,251.734 221.525,258.987 215.5,262 212.938,263.281 208,260.477 208,265  Z"/>

<path  fill="#FFE300" stroke-width="0" stroke="#FFE300" d = " M256 144 C259.522,144 268.617,139.058 272.5,141 276.555,143.027 282.519,141.009 286.5,143 L289,145 C289,138.747 256,136.335 256,144  Z"/>

<path  fill="#FF8700" stroke-width="0" stroke="#FF8700" d = " M289 262 C287.188,262 284.18,265 282,265 282,264.011 267.538,257.019 265.5,256 256.587,251.543 254.752,242.004 251,234.5 249.678,231.856 252,227.553 252,225.5 252,225.5 250,220.5 250,220.5 250,207.041 258.705,189.911 252,176.5 251.281,175.062 248.738,163 248,163 248,163 248,158 248,158 248,158 249,156 249,156 249,156 249,154 249,154 249,154 250,153 250,153 250,153 252,148 252,148 253.747,148 254,147.747 254,146 254,146 256,144 256,144 259.522,144 268.617,139.058 272.5,141 276.555,143.027 282.519,141.009 286.5,143 286.5,143 289,145 289,145 289,145 292,145 292,145 292,149.902 299.294,150.088 301,153.5 303.797,159.095 306.209,164.918 309,170.5 311.39,175.28 310.172,194.157 308,198.5 308,198.5 307,222.5 307,222.5 307,222.5 309,227 309,227 309,235.102 298,253.656 298,255 295.462,255 292,257.152 292,260 292,260 291,261 291,261 291,261 290,261 290,261 290,261 289,262 289,262  Z"/>

<path  fill="#FF8700" stroke-width="0" stroke="#FF8700" d = " M202 263 C203.974,263 205.517,265 208,265 208,260.477 212.938,263.281 215.5,262 221.525,258.987 226.883,251.734 230,245.5 231.121,243.257 231,238.997 231,237.5 231,237.5 233,234.5 233,234.5 234.492,231.516 233.493,227.515 235,224.5 235,224.5 234,219.5 234,219.5 234,219.5 237,216.5 237,216.5 239.644,211.213 235,184.854 235,177.5 235,173.157 237.614,172.272 239,169.5 240.313,166.874 240.313,157.126 239,154.5 236.952,150.404 235.273,145.386 230.5,143 218.221,136.861 196.669,143.162 191,154.5 191,154.5 186,158.5 186,158.5 180.716,169.069 178.383,194.266 184,205.5 184,205.5 183,208.5 183,208.5 183,208.5 185,210.5 185,210.5 185,210.5 183,212.5 183,212.5 181.436,215.628 186.564,217.372 185,220.5 182.247,226.006 182,226.217 182,232 182,238.156 186.483,246.466 189,251.5 189,251.5 194,257 194,257 196.639,257 202,260.174 202,263  Z"/>

<path  fill="#FFE300" stroke-width="0" stroke="#FFE300" d = " M292 145 C300.549,145 303.907,154.314 307,160.5 L312,165.5 C316.015,173.529 318.336,198.828 314,207.5 311.756,211.988 315.23,227 309,227 309,227 307,222.5 307,222.5 307,222.5 308,198.5 308,198.5 310.172,194.157 311.39,175.28 309,170.5 306.209,164.918 303.797,159.095 301,153.5 299.294,150.088 292,149.902 292,145  Z"/>

<path  fill="#FFE300" stroke-width="0" stroke="#FFE300" d = " M254 146 L252,148 C253.747,148 254,147.747 254,146  Z"/>

<path  fill="#FFE300" stroke-width="0" stroke="#FFE300" d = " M250 153 L249,154 C249,154 250,153 250,153  Z"/>

<path  fill="#FFE300" stroke-width="0" stroke="#FFE300" d = " M249 156 L248,158 C248,158 249,156 249,156  Z"/>

<path  fill="#30DA00" stroke-width="0" stroke="#30DA00" d = " M381 254 L377.5,257 C375.145,258.178 360.374,267.937 368.5,272 381.85,278.675 401.949,254 381,254  Z"/>

<path  fill="#FFE300" stroke-width="0" stroke="#FFE300" d = " M298 255 C295.462,255 292,257.152 292,260 294.538,260 298,257.848 298,255  Z"/>

<path  fill="#FFE300" stroke-width="0" stroke="#FFE300" d = " M194 257 C196.639,257 202,260.174 202,263 200.275,263 194,258.943 194,257  Z"/>

<path  fill="#FFE300" stroke-width="0" stroke="#FFE300" d = " M292 260 L291,261 C291,261 292,260 292,260  Z"/>

<path  fill="#FFE300" stroke-width="0" stroke="#FFE300" d = " M290 261 L289,262 C289,262 290,261 290,261  Z"/>

<path  fill="#30DA00" stroke-width="0" stroke="#30DA00" d = " M107 266 C107,268.282 99.2695,269.039 102,274.5 105.981,282.461 117.956,284.728 124.5,288 126.567,289.034 133,287.227 133,284.5 L131,282.5 L130,277.5 C126.048,269.596 115.245,266 107,266  Z"/>

<path  fill="#FA8072" stroke-width="0" stroke="#FA8072" d = " M298 364 C298,365.828 290.198,369.104 289,371.5 287.239,375.021 292.471,379.558 292,380.5 290.975,382.55 285.689,378.122 284,381.5 281.181,387.138 287.93,386.361 289,388.5 290.596,391.693 292.653,397.924 298.5,395 L301.5,391 C302.445,390.527 301.71,398 305.5,398 L311.5,395 C314.279,393.611 319.764,397.972 322,393.5 327.734,382.032 318.273,374.386 309.5,370 306.33,368.415 311.127,364 298,364  Z"/>

<path  fill="#FA8072" stroke-width="0" stroke="#FA8072" d = " M189 367 C189,372.79 183.804,373.848 179.5,376 L176.5,382 C174.056,384.444 165.591,389.318 164,392.5 162.259,395.982 166.946,396.446 168.5,398 L170.5,401 C175.328,401 174.192,392 176.5,392 L180.5,396 C181.391,396.446 190.197,398.152 190.5,398 204.906,390.797 195.728,393.043 200,384.5 200.615,383.271 204.615,384.729 204,383.5 202.652,380.804 202.012,383.756 200.5,383 L200,371.5 C198.345,368.191 192.174,367 189,367  Z"/>

<path  fill="#FA8072" stroke-width="0" stroke="#FA8072" d = " M327 387 L325,391 C325,403.621 339.634,387 327,387  Z"/>

</g>
</svg>
