<svg xmlns="http://www.w3.org/2000/svg" xmlns:xlink="http://www.w3.org/1999/xlink" height="512" width="512">
<g>
<rect width="512" height="512" fill="#000000"  stroke-width="0" /> 
<path  fill-rule="evenodd" fill="#86FF5A" stroke-width="0" stroke="#86FF5A" d = " M241 355 C241,356.791 237.73,357.959 239,360.5 239.567,361.634 242.626,367.563 243.5,368 247.754,370.127 251.781,357.141 247.5,355 247.07,354.785 241.605,355 241,355  M241 316 C241,318.144 236.738,316.381 235.5,317 229.817,319.841 222.188,319.156 216.5,322 L212.5,328 C198.369,335.065 201.543,349.414 196,360.5 190.175,372.149 207.93,400.215 215.5,404 219.338,405.919 224.767,405.134 228.5,407 230.579,408.039 236.899,410.3 239.5,409 L244.5,404 C246.776,402.862 250.692,408.096 252.5,409 263.358,414.429 276.709,402.081 280,395.5 L285,392.5 C288.651,385.199 291.341,377.817 295,370.5 296.282,367.937 293.877,366.253 293,364.5 292.342,363.185 295.138,358.775 294,356.5 L291,349.5 C288.562,344.624 288.456,338.412 286,333.5 284.855,331.21 283.118,331.809 281.5,331 L275.5,323 L271.5,323 C263.224,318.862 251.921,316 241,316  Z"/>

<path  fill-rule="evenodd" fill="#EB57FF" stroke-width="0" stroke="#EB57FF" d = " M244 360 C244,364.123 248.123,360 244,360  M241 355 C241,356.791 237.73,357.959 239,360.5 239.567,361.634 242.626,367.563 243.5,368 247.754,370.127 251.781,357.141 247.5,355 247.07,354.785 241.605,355 241,355  Z"/>

<path  fill="#27F4FD" stroke-width="0" stroke="#27F4FD" d = " M244 360 C244,364.123 248.123,360 244,360  Z"/>

</g>
</svg>
