<svg xmlns="http://www.w3.org/2000/svg" xmlns:xlink="http://www.w3.org/1999/xlink" height="512" width="512">
<g>
<rect width="512" height="512" fill="#000000"  stroke-width="0" /> 
<path  fill="#FFE300" stroke-width="0" stroke="#FFE300" d = " M252 141 C256.273,141 261.123,135.311 266.5,138 273.18,141.34 280.802,142.651 287.5,146 L288,148.5 L297,159.5 L299,166.5 C300.664,169.828 297.29,176.921 296,179.5 L295,185.5 C291.205,193.089 287.75,201 292,209.5 292.703,210.906 290.739,217 293,217 293,213.747 295.036,197.427 296,195.5 296.075,195.349 301.992,197.517 304,193.5 304,193.5 304,189.5 304,189.5 304,189.5 307,188.5 307,188.5 309.716,183.067 305.464,165.428 303,160.5 300.789,156.077 294.322,145.411 289.5,143 289.5,143 278.5,139 278.5,139 275.701,137.601 275.99,136 272.5,136 268.53,136 252,134.952 252,141  Z"/>

<path  fill="#FFE300" stroke-width="0" stroke="#FFE300" d = " M244 151 C244,162.731 247.211,169.922 252,179.5 253.643,182.787 253.306,187.111 255,190.5 258.746,197.992 252.574,215.648 256,222.5 257.183,224.865 258.862,227.223 260,229.5 262.089,233.678 265.632,237.066 269.5,239 272.953,240.727 289.361,239.778 291,236.5 293.517,231.466 293,224.075 293,218 296.847,218 298.003,235.494 296,239.5 290.383,250.734 266.367,241.434 259.5,238 257.433,236.967 257.29,231.395 254.5,230 252.144,228.822 248.524,229.548 247,226.5 244.569,221.637 248.774,215.048 248,213.5 248,213.5 246,212.5 246,212.5 243.658,207.815 247.399,200.297 245,195.5 245,195.5 244.5,191 244.5,191 238.921,191 243.996,215.508 242,219.5 242,219.5 239,222.5 239,222.5 239,222.5 240,227.5 240,227.5 240,227.5 232,231.5 232,231.5 229.752,233.748 226.281,241.109 224.5,242 222.552,242.974 202.308,246.904 200.5,246 197.007,244.253 196.821,241.66 193.5,240 183.424,234.962 200.146,216.791 197,210.5 195.719,207.937 196.186,204.872 195,202.5 193.648,199.797 191.416,201.958 189.5,201 187.118,199.809 188.827,198.155 188,196.5 188,196.5 183,192.5 183,192.5 179.122,184.744 183.652,164.197 187,157.5 188.95,153.6 187.936,148.282 192.5,146 202.84,140.83 211.804,132.652 224.5,139 227.447,140.474 237,137.471 237,142 233.77,142 226.473,140.487 223.5,139 220.936,137.718 200.454,145.523 197.5,147 194.253,148.623 187.286,165.072 189,168.5 192.39,175.28 193.624,182.749 197,189.5 197,189.5 199,201.5 199,201.5 200.198,203.897 202.576,210.348 201,213.5 196.854,221.792 198,231.434 198,239.5 198,239.505 203.677,242.412 204.5,242 211.273,238.614 222.703,239.095 227,230.5 231.063,222.374 232,213.868 232,204 232,204 232,188.5 232,188.5 233.25,185.999 232.829,182.842 234,180.5 239.358,169.783 242,159.803 242,148 242,148 244,151 244,151  Z"/>

<path  fill="#FF8700" stroke-width="0" stroke="#FF8700" d = " M293 217 L293,218 C293,224.075 293.517,231.466 291,236.5 289.361,239.778 272.953,240.727 269.5,239 265.632,237.066 262.089,233.678 260,229.5 258.862,227.223 257.183,224.865 256,222.5 252.574,215.648 258.746,197.992 255,190.5 253.306,187.111 253.643,182.787 252,179.5 247.211,169.922 244,162.731 244,151 244,147.428 247.912,141 252,141 256.273,141 261.123,135.311 266.5,138 273.18,141.34 280.802,142.651 287.5,146 287.5,146 288,148.5 288,148.5 288,148.5 297,159.5 297,159.5 297,159.5 299,166.5 299,166.5 300.664,169.828 297.29,176.921 296,179.5 296,179.5 295,185.5 295,185.5 291.205,193.089 287.75,201 292,209.5 292.703,210.906 290.739,217 293,217  Z"/>

<path  fill="#FF8700" stroke-width="0" stroke="#FF8700" d = " M237 142 C239.641,142 242,145.591 242,148 242,159.803 239.358,169.783 234,180.5 232.829,182.842 233.25,185.999 232,188.5 232,188.5 232,204 232,204 232,213.868 231.063,222.374 227,230.5 222.703,239.095 211.273,238.614 204.5,242 203.677,242.412 198,239.505 198,239.5 198,231.434 196.854,221.792 201,213.5 202.576,210.348 200.198,203.897 199,201.5 199,201.5 197,189.5 197,189.5 193.624,182.749 192.39,175.28 189,168.5 187.286,165.072 194.253,148.623 197.5,147 200.454,145.523 220.936,137.718 223.5,139 226.473,140.487 233.77,142 237,142  Z"/>

<path  fill="#30DA00" stroke-width="0" stroke="#30DA00" d = " M77 246 C77,251.008 82.2762,254.948 85,249.5 86.3585,246.783 78.4777,246 77,246  Z"/>

<path  fill="#FA8072" stroke-width="0" stroke="#FA8072" d = " M315 359 C315,361.251 305.613,361.274 304,364.5 301.93,368.64 306.334,369.833 304,374.5 302.328,377.845 304,379.328 304,382.5 304,389.505 302.87,397.315 313.5,392 315.716,390.892 320.606,392.288 322,389.5 322.843,387.814 323.855,376.211 323,374.5 L321,371.5 C323.976,365.548 323.286,359 315,359  Z"/>

<path  fill="#FA8072" stroke-width="0" stroke="#FA8072" d = " M174 360 L171,363.5 L170.5,370 C168.148,371.176 165.673,370.154 164,373.5 L163.5,381 C157.275,384.112 156.786,378.928 152,388.5 150.526,391.448 153.947,396.724 156.5,398 156.976,398.238 166.024,398.238 166.5,398 L169.5,395 L177.5,396 C179.213,395.143 180.319,393.59 181.5,393 184.565,391.467 188.711,395.895 192.5,394 202.547,388.977 188.299,382.097 188,381.5 L188,376.5 L184,373.5 C182.744,370.987 187.469,369.437 186,366.5 183.449,361.399 180.223,360 174,360  Z"/>

<path  fill="#FA8072" stroke-width="0" stroke="#FA8072" d = " M327 383 C327,384.791 323.73,385.959 325,388.5 326.323,391.147 336.432,392.637 338,389.5 339.175,387.151 336.536,381.482 333.5,383 330.748,384.376 330.067,383 327,383  Z"/>

</g>
</svg>
