<svg xmlns="http://www.w3.org/2000/svg" xmlns:xlink="http://www.w3.org/1999/xlink" height="512" width="512">
<g>
<rect width="512" height="512" fill="#000000"  stroke-width="0" /> 
<path  fill="#03C12D" stroke-width="0" stroke="#03C12D" d = " M347 346 L359.5,345 C362.228,346.364 363.448,354.026 369.5,351 L376.5,345 L384.5,342 L386.5,339 C389.616,337.442 397.19,336.119 399,332.5 403.415,323.669 410.568,316.363 415,307.5 L417,297.5 C418.695,294.11 422.749,290.001 424,287.5 425.057,285.385 424.81,275.88 425,275.5 427.207,271.086 432.412,268.676 435,263.5 438.009,257.482 433.546,247.407 436,242.5 440.896,232.709 439.764,221.028 435,211.5 433.082,207.663 436.687,205.125 438,202.5 438.033,202.434 437.433,190.367 437,189.5 L432,183.5 L429,166.5 L416,147.5 C415.139,145.778 419.273,146.047 418,143.5 415.795,139.089 412,136.751 412,132.5 L406,127.5 C401.333,118.167 386.799,111 378.5,111 377.663,111 362.791,101.146 360.5,100 357.324,98.4122 352.598,99.5492 349.5,98 340.466,93.4829 330.55,91.5251 321.5,87 316.901,84.7005 306.934,86.7172 301.5,84 L289.5,84 C285.912,82.2059 257.301,84.0997 253.5,86 L240.5,98 L229.5,90 C224.418,87.4588 193.908,82.7962 187.5,86 180.177,89.6617 172.527,89.4867 165.5,93 L156.5,92 L153.5,95 C150.607,96.4465 146.337,95.5815 143.5,97 135.475,101.013 127.268,102.616 118.5,107 L113.5,107 L108.5,112 C103.893,114.304 99.5023,116.499 94.5,119 87.1275,122.686 83.0379,133.424 80,139.5 L72,147.5 C67.771,155.958 65.2438,165.012 61,173.5 L57,190.5 L54,193.5 C51.963,197.574 53.6695,205.161 51,210.5 L53,213.5 L53,221 L51,223.5 C49.7184,226.063 52.1234,227.747 53,229.5 L52,236.5 C53.9091,240.318 54,239.819 54,243.5 54,245.904 59.7678,243.964 58,247.5 L54,249.5 C52.9221,251.656 59.7739,270.048 61,272.5 L68,278.5 C70.341,283.182 63.7841,287.068 66,291.5 66.7152,292.93 70.5991,292.698 72,295.5 L73,306.5 C76.0248,312.55 88.2165,331.358 93.5,334 102.802,338.651 111.297,344.399 120.5,349 121.85,349.675 130,349.247 130,348 126.625,348 132.664,343.173 133,342.5 134.865,338.77 134.876,328.252 133,324.5 128.096,314.691 128.907,302.313 124,292.5 122.433,289.367 117,288.643 117,286 113.794,286 112.241,278.981 111,276.5 111,276.5 103,265.5 103,265.5 101.43,262.361 101,249.216 101,246 96.8904,246 98,242.554 98,238 96.4131,238 96.4131,232 98,232 98,221.321 108.207,196.086 113,186.5 113,186.5 123,173 123,173 123,173 124,172 124,172 124,167.861 141.141,160.679 144.5,159 148.214,157.143 150.745,153.877 154.5,152 158.708,149.896 164.297,150.101 168.5,148 168.5,148 171.5,145 171.5,145 177.606,145 181.563,143.969 187.5,141 187.5,141 192.5,141 192.5,141 197.931,138.284 205.761,135 211,135 212.974,135 214.517,133 217,133 223.017,133 230.19,124.655 235.5,122 242.731,118.385 251.464,124.982 257.5,128 259.823,129.161 269,129.976 269,134 276.65,134 282.305,136.403 289.5,140 289.5,140 295.5,140 295.5,140 301.161,142.831 315.539,146 320,146 322.179,146 329,146.046 329,149 329,150.112 337.694,155.597 338.5,156 338.5,156 343.5,156 343.5,156 343.5,156 346.5,160 346.5,160 350.285,161.892 355.687,159.873 358,164.5 359.315,167.13 361.32,172.41 364.5,174 364.5,174 374,180.5 374,180.5 374,180.5 375,186.5 375,186.5 375,186.5 378,188.5 378,188.5 379.141,190.782 378.859,194.218 380,196.5 380,196.5 385,203.5 385,203.5 385,203.5 386,214.5 386,214.5 386.857,216.213 388.41,217.319 389,218.5 389,218.5 389,225.5 389,225.5 390.6,228.7 392,228.239 392,232.5 392,237.1 391.968,254 388,254 388,262.291 377,270.189 377,276 377,277.576 375.904,285 372,285 372,285 366,290 366,290 380.448,290 365.273,318.954 363,323.5 363,323.5 360.5,334 360.5,334 360.5,334 347,346 347,346  Z"/>

<path  fill="#1D68EB" stroke-width="0" stroke="#1D68EB" d = " M246 155 C247.238,155 249,155.423 249,157 257.657,157 262.226,153.048 266,145.5 266,145.5 266,140.5 266,140.5 267.013,138.475 269,136.359 269,134 269,129.976 259.823,129.161 257.5,128 251.464,124.982 242.731,118.385 235.5,122 230.19,124.655 223.017,133 217,133 217,133 213,136 213,136 213,136 216,142.5 216,142.5 220.955,152.411 225.483,158 238,158 238,156.952 237.527,155 239,155 239,148.373 246,149.41 246,155  Z"/>

<path  fill="#FF6E00" stroke-width="0" stroke="#FF6E00" d = " M98 238 C98,242.554 96.8904,246 101,246 101,241.42 102.138,238.223 104,234.5 106.443,229.614 103.58,223.34 106,218.5 108.769,212.961 110.895,204.711 114,198.5 118.703,189.094 131.701,175.9 141.5,171 142.748,170.376 160.592,167.546 161.5,168 165.581,170.041 167.973,171 173,171 173,158.024 191.595,162 199.5,162 201.859,162 211,164.563 211,167 215.062,167 219.575,170 224,170 229.232,170 238.648,174.926 244.5,172 248.892,169.804 257.995,169 263,169 268.532,169 273.265,164 279,164 279,155.455 315,157.596 315,168 315,168 322,168 322,168 323.898,168 327.49,162.995 331.5,165 336.101,167.3 340.895,168.698 345.5,171 345.5,171 349.5,171 349.5,171 349.5,171 351.5,174 351.5,174 361.714,179.107 371.727,189.953 377,200.5 378.483,203.467 378.522,207.544 380,210.5 381.818,214.136 385,219.867 385,224 385,224 386,226 386,226 387.802,226 388,231.811 388,233.5 388,240.907 388,247.375 388,254 391.968,254 392,237.1 392,232.5 392,228.239 390.6,228.7 389,225.5 389,225.5 389,218.5 389,218.5 388.41,217.319 386.857,216.213 386,214.5 386,214.5 385,203.5 385,203.5 385,203.5 380,196.5 380,196.5 378.859,194.218 379.141,190.782 378,188.5 378,188.5 375,186.5 375,186.5 375,186.5 374,180.5 374,180.5 374,180.5 364.5,174 364.5,174 361.32,172.41 359.315,167.13 358,164.5 355.687,159.873 350.285,161.892 346.5,160 346.5,160 343.5,156 343.5,156 343.5,156 338.5,156 338.5,156 337.694,155.597 329,150.112 329,149 326.218,149 320,147.548 320,146 315.539,146 301.161,142.831 295.5,140 295.5,140 289.5,140 289.5,140 282.305,136.403 276.65,134 269,134 269,136.359 267.013,138.475 266,140.5 266,140.5 266,145.5 266,145.5 262.226,153.048 257.657,157 249,157 249,157 238,158 238,158 225.483,158 220.955,152.411 216,142.5 216,142.5 213,136 213,136 213,136 211,135 211,135 205.761,135 197.931,138.284 192.5,141 192.5,141 187.5,141 187.5,141 181.563,143.969 177.606,145 171.5,145 171.5,145 168.5,148 168.5,148 164.297,150.101 158.708,149.896 154.5,152 150.745,153.877 148.214,157.143 144.5,159 141.141,160.679 124,167.861 124,172 124,172 123,173 123,173 123,173 113,186.5 113,186.5 108.207,196.086 98,221.321 98,232 98,232 98,238 98,238  Z"/>

<path  fill="#03C12D" stroke-width="0" stroke="#03C12D" d = " M239 155 L246,155 C246,149.41 239,148.373 239,155  Z"/>

<path  fill="#022CFF" stroke-width="0" stroke="#022CFF" d = " M303 204 L301,205 C298.997,205 298,205.293 298,203 301.487,203 302.667,201.417 305.5,200 313.292,196.104 305,192.753 305,187.5 305,187.5 307,186.5 307,186.5 307.953,184.595 305.642,183.783 305,182.5 303.743,179.985 305.305,176.109 304,173.5 302.611,170.722 298.639,172.069 296.5,171 292.687,169.093 283.038,164 279,164 279,155.455 315,157.596 315,168 315,168 315,169 315,169 313.445,169 311,178.133 311,180 311,180 312,181 312,181 312,183.928 312,188.164 312,191 312,193.152 311,196.899 311,198 311,198 310,199 310,199 310,199 309,200 309,200 309,200 306,202 306,202 306,202 305,203 305,203 305,203 303,204 303,204  Z"/>

<path  fill="#022CFF" stroke-width="0" stroke="#022CFF" d = " M178 203 L182,204 C182,204 178,198.5 178,198.5 180.434,193.632 183,184.841 183,180.5 183,177.878 188.968,176.766 190.5,176 190.5,176 195.5,171 195.5,171 199.717,168.891 205.963,167 211,167 211,164.563 201.859,162 199.5,162 191.595,162 173,158.024 173,171 182.077,171 178.106,186.288 176,190.5 175.297,191.906 177.261,198 175,198 175,198 175,199 175,199 176.577,199 177,200.762 177,202 177,202 178,203 178,203  Z"/>

<path  fill="#00FF1D" stroke-width="0" stroke="#00FF1D" d = " M284 198 C288.82,198 292.327,203 298,203 301.487,203 302.667,201.417 305.5,200 313.292,196.104 305,192.753 305,187.5 305,187.5 307,186.5 307,186.5 307.953,184.595 305.642,183.783 305,182.5 303.743,179.985 305.305,176.109 304,173.5 302.611,170.722 298.639,172.069 296.5,171 292.687,169.093 283.038,164 279,164 273.265,164 268.532,169 263,169 263,173.341 254.278,177 251,177 249.679,177 245,176.316 245,178 245,178 255,178 255,178 257.061,178 259,178.902 259,181 259,182.56 264,187.135 264,191 264,191 266.5,193 266.5,193 271.555,195.527 273.837,187.337 281.5,195 282.898,196.398 284,195.725 284,198  Z"/>

<path  fill="#814FFF" stroke-width="0" stroke="#814FFF" d = " M372 285 L366,290 C360.429,290 350.894,294.289 347,286.5 345.217,282.934 346,277.257 346,273 346,271.855 346.579,269 345,269 345,268.428 351.183,255.133 352,253.5 356.138,245.224 348.993,232.485 346,226.5 346,226.5 342.5,218 342.5,218 342.5,218 338.5,218 338.5,218 335.39,216.445 334.316,211 331,211 331,208.521 330.701,204.902 329,201.5 329,201.5 332,196.5 332,196.5 334.268,191.963 329.193,181.153 323.5,184 319.637,185.932 321.362,195 315,195 315,195 312,191 312,191 312,188.164 312,183.928 312,181 312,181 311,180 311,180 311,178.133 313.445,169 315,169 316.406,169 322,169.714 322,168 323.898,168 327.49,162.995 331.5,165 336.101,167.3 340.895,168.698 345.5,171 345.5,171 349.5,171 349.5,171 349.5,171 351.5,174 351.5,174 361.714,179.107 371.727,189.953 377,200.5 378.483,203.467 378.522,207.544 380,210.5 381.818,214.136 385,219.867 385,224 385,224 386,226 386,226 387.802,226 388,231.811 388,233.5 388,240.907 388,247.375 388,254 388,262.291 377,270.189 377,276 375.338,276 372,283.407 372,285  Z"/>

<path  fill="#00FF1D" stroke-width="0" stroke="#00FF1D" d = " M197 208 L199,208 C199,208 204,201 204,201 204,197.395 207.569,200 208.5,200 209.873,200 220.148,194 225,194 225,194 224,186.5 224,186.5 224,186.5 229,180 229,180 229,180 229,179 229,179 229,172.963 224,176.292 224,170 219.575,170 215.062,167 211,167 205.963,167 199.717,168.891 195.5,171 195.5,171 190.5,176 190.5,176 188.968,176.766 183,177.878 183,180.5 183,184.841 180.434,193.632 178,198.5 178,198.5 182,204 182,204 182,204 185,206 185,206 185,206 190,208 190,208 190,208 192,208 192,208 192,208 197,208 197,208  Z"/>

<path  fill="#814FFF" stroke-width="0" stroke="#814FFF" d = " M147 274 C147,284.724 147.541,286.979 137.5,292 135.916,292.792 131.556,294.028 129.5,293 126.041,291.27 120.891,286 117,286 113.794,286 112.241,278.981 111,276.5 111,276.5 103,265.5 103,265.5 101.43,262.361 101,249.216 101,246 101,241.42 102.138,238.223 104,234.5 106.443,229.614 103.58,223.34 106,218.5 108.769,212.961 110.895,204.711 114,198.5 118.703,189.094 131.701,175.9 141.5,171 142.748,170.376 160.592,167.546 161.5,168 165.581,170.041 167.973,171 173,171 182.077,171 178.106,186.288 176,190.5 175.297,191.906 177.261,198 175,198 172.807,198 169.057,201.278 168.5,201 165.453,199.476 173.947,193.223 167.5,190 162.034,187.267 164.869,199.762 164,201.5 162.45,204.6 159.476,198.548 157,203.5 154.983,207.533 163,208.464 163,211 163,211 161,212 161,212 158.336,212 154.101,219.298 153,221.5 151.039,225.421 146.673,228.153 145,231.5 140.46,240.581 141,248.995 141,259 141,259 142,261 142,261 142,265.924 147,269.592 147,274  Z"/>

<path  fill="#FF0800" stroke-width="0" stroke="#FF0800" d = " M229 179 L231,180 C235.299,180 239.849,178 245,178 245,176.316 249.679,177 251,177 254.278,177 263,173.341 263,169 257.995,169 248.892,169.804 244.5,172 238.648,174.926 229.232,170 224,170 224,176.292 229,172.963 229,179  Z"/>

<path  fill="#AE00E8" stroke-width="0" stroke="#AE00E8" d = " M264 191 C264,194.13 259.149,194.176 257.5,195 248.464,199.518 243.295,202.897 233.5,198 231.858,197.179 225,196.621 225,194 225,194 224,186.5 224,186.5 224,186.5 229,180 229,180 229,180 231,180 231,180 235.299,180 239.849,178 245,178 245,178 255,178 255,178 255,179.712 257.571,181 259,181 259,182.56 264,187.135 264,191  Z"/>

<path  fill="#FF0800" stroke-width="0" stroke="#FF0800" d = " M255 178 C257.061,178 259,178.902 259,181 257.571,181 255,179.712 255,178  Z"/>

<path  fill="#FF3427" stroke-width="0" stroke="#FF3427" d = " M306 256 C306,272.718 292,265.147 292,258 292,258 295,256 295,256 295,256 296,255 296,255 297.473,255 297,253.048 297,252 297,244.503 298.864,243.771 302,237.5 302,237.5 303,230.5 303,230.5 304.818,226.864 309,224.843 309,220.5 309,220.5 305.5,218 305.5,218 304.943,217.722 301.193,221 299,221 299,217.158 313.743,206.013 316,201.5 316,201.5 315,198 315,198 315,198 315,195 315,195 321.362,195 319.637,185.932 323.5,184 329.193,181.153 334.268,191.963 332,196.5 332,196.5 329,201.5 329,201.5 330.701,204.902 331,208.521 331,211 331,212.833 323.861,211.778 323,213.5 323,213.5 325,217.5 325,217.5 325,217.5 321.5,224 321.5,224 321.5,224 319,224.5 319,224.5 318.192,226.117 319.312,230.877 318,233.5 312.951,243.599 306,239.076 306,256  Z"/>

<path  fill="#FF3427" stroke-width="0" stroke="#FF3427" d = " M194 256 C192.902,256 183,262.647 183,257 183,252.964 182.788,246.288 179.5,243 179.5,243 176,241.5 176,241.5 176,241.5 176,235.5 176,235.5 176,235.5 171,225.5 171,225.5 170.032,223.564 166.887,212 164,212 164,212 163,211 163,211 163,208.464 154.983,207.533 157,203.5 159.476,198.548 162.45,204.6 164,201.5 164.869,199.762 162.034,187.267 167.5,190 173.947,193.223 165.453,199.476 168.5,201 169.057,201.278 172.807,198 175,198 175,198 175,199 175,199 175,200.238 175.423,202 177,202 177,202 178,203 178,203 178,207.485 180.106,212.712 182,216.5 184.012,220.524 192,223.268 192,228 188.842,228 186.717,225 183,225 181.814,225 181.814,226 183,226 183,229.804 185,231.587 185,235 185,235 186,237 186,237 189.397,237 191,246.213 191,249 191,249 192,250 192,250 192,250 193,253 193,253 191.814,253 191.814,254 193,254 193,254 194,256 194,256  Z"/>

<path  fill="#022CFF" stroke-width="0" stroke="#022CFF" d = " M234 213 C237.487,213 238.667,214.583 241.5,216 244.988,217.744 248.702,213 252,213 252,206.27 264.603,208 270,208 270,199.598 284,199.902 284,198 284,195.725 282.898,196.398 281.5,195 273.837,187.337 271.555,195.527 266.5,193 266.5,193 264,191 264,191 264,194.13 259.149,194.176 257.5,195 248.464,199.518 243.295,202.897 233.5,198 231.858,197.179 225,196.621 225,194 220.148,194 209.873,200 208.5,200 207.569,200 204,197.395 204,201 207.188,201 210.15,210 214,210 218.924,210 234,207.334 234,213  Z"/>

<path  fill-rule="evenodd" fill="#006400" stroke-width="0" stroke="#006400" d = " M242 260 C242,269.822 246.923,260 242,260  M226 271 L232,271 C232,271 242,269 242,269 242,267.527 243.952,268 245,268 247.723,268 250.778,269 254,269 254,269 255,268 255,268 255,266.628 260.066,269 262,269 262,264.848 262.848,264 267,264 267,261.247 272.011,261 274,261 274,256.807 271.723,256.054 274,251.5 277.518,244.464 287,254.771 287,259 287.53,259 292,254.792 292,258 292,258 295,256 295,256 295,256 296,255 296,255 296,253.952 295.527,252 297,252 297,244.503 298.864,243.771 302,237.5 302,237.5 303,230.5 303,230.5 304.818,226.864 309,224.843 309,220.5 309,220.5 305.5,218 305.5,218 304.943,217.722 301.193,221 299,221 299,221 298,222 298,222 299.634,222 293,229.128 293,224 287.217,224 294,214.476 294,211 294,208.97 297,203.197 297,208 297,208 301,205 301,205 298.997,205 298,205.293 298,203 292.327,203 288.82,198 284,198 284,199.902 270,199.598 270,208 271.643,208 271,211.765 271,213 271,216.859 270.615,223.942 266.5,226 263.816,227.342 257.569,213 252,213 248.702,213 244.988,217.744 241.5,216 238.667,214.583 237.487,213 234,213 234,213 225,220.5 225,220.5 222.617,225.266 222.334,229.417 217.5,227 215.216,225.858 214.344,226.187 213,223.5 211.201,219.901 214,213.144 214,210 210.15,210 207.188,201 204,201 204,201 199,208 199,208 199,210.488 197,209.919 197,208 197,208 192,208 192,208 192,208 193,212 193,212 195.145,212 200.551,225.398 199,228.5 198.159,230.181 192,231.139 192,228 188.842,228 186.717,225 183,225 183,225 183,226 183,226 183,229.804 185,231.587 185,235 185,235 186,237 186,237 189.397,237 191,246.213 191,249 191,249 192,250 192,250 192,250 193,253 193,253 193,253 193,254 193,254 193,254 194,256 194,256 194,257.866 198.83,258 201,258 202.951,258 201.477,255.546 202,254.5 203.335,251.83 204.974,244 209.5,244 209.635,244 215.843,251.186 216,251.5 216.657,252.814 214.011,261 212,261 212,266.581 219,261.713 219,266 221.288,266 226,266.794 226,271  Z"/>

<path  fill="#EE7533" stroke-width="0" stroke="#EE7533" d = " M298 222 L293,224 C287.217,224 294,214.476 294,211 296.041,211 297,210.041 297,208 297,208 301,205 301,205 301,205 303,204 303,204 303,204 305,203 305,203 305,203 306,202 306,202 306,202 309,200 309,200 309,200 310,199 310,199 310,199 311,198 311,198 311,198 315,198 315,198 315,198 316,201.5 316,201.5 313.743,206.013 299,217.158 299,221 299,221 298,222 298,222  Z"/>

<path  fill="#EE7533" stroke-width="0" stroke="#EE7533" d = " M193 212 C195.145,212 200.551,225.398 199,228.5 198.159,230.181 192,231.139 192,228 192,223.268 184.012,220.524 182,216.5 180.106,212.712 178,207.485 178,203 178,203 182,204 182,204 182,204 185,206 185,206 185,207.803 188.592,209 190,209 190,209 193,212 193,212  Z"/>

<path  fill="#022CFF" stroke-width="0" stroke="#022CFF" d = " M190 208 L190,209 C188.592,209 185,207.803 185,206 185,206 190,208 190,208  Z"/>

<path  fill="#FFFC00" stroke-width="0" stroke="#FFFC00" d = " M270 208 C271.643,208 271,211.765 271,213 271,216.859 270.615,223.942 266.5,226 263.816,227.342 257.569,213 252,213 252,206.27 264.603,208 270,208  Z"/>

<path  fill="#FFFC00" stroke-width="0" stroke="#FFFC00" d = " M214 210 C218.924,210 234,207.334 234,213 234,213 225,220.5 225,220.5 222.617,225.266 222.334,229.417 217.5,227 215.216,225.858 214.344,226.187 213,223.5 211.201,219.901 214,213.144 214,210  Z"/>

<path  fill="#FF91BA" stroke-width="0" stroke="#FF91BA" d = " M306 256 C307.27,256 322.343,270.922 326.5,273 331.777,275.638 341.138,269 345,269 345,268.428 351.183,255.133 352,253.5 356.138,245.224 348.993,232.485 346,226.5 346,226.5 342.5,218 342.5,218 342.5,218 338.5,218 338.5,218 335.39,216.445 334.316,211 331,211 331,212.833 323.861,211.778 323,213.5 323,213.5 325,217.5 325,217.5 325,217.5 321.5,224 321.5,224 321.5,224 319,224.5 319,224.5 318.192,226.117 319.312,230.877 318,233.5 312.951,243.599 306,239.076 306,256  Z"/>

<path  fill="#FF91BA" stroke-width="0" stroke="#FF91BA" d = " M142 261 C142,265.924 147,269.592 147,274 154.273,274 159.99,277.755 167.5,274 167.5,274 181,262.5 181,262.5 181.769,260.962 179.774,257 183,257 183,252.964 182.788,246.288 179.5,243 179.5,243 176,241.5 176,241.5 176,241.5 176,235.5 176,235.5 176,235.5 171,225.5 171,225.5 170.032,223.564 166.887,212 164,212 164,214.202 161,214.202 161,212 158.336,212 154.101,219.298 153,221.5 151.039,225.421 146.673,228.153 145,231.5 140.46,240.581 141,248.995 141,259 141,259 142,261 142,261  Z"/>

<path  fill="#03C12D" stroke-width="0" stroke="#03C12D" d = " M385 224 L386,226 C386,226 385,224 385,224  Z"/>

<path  fill="#FFFC00" stroke-width="0" stroke="#FFFC00" d = " M212 261 C210.234,261 207,261.607 207,264 201.173,264 201,265.418 201,258 202.951,258 201.477,255.546 202,254.5 203.335,251.83 204.974,244 209.5,244 209.635,244 215.843,251.186 216,251.5 216.657,252.814 214.011,261 212,261  Z"/>

<path  fill="#FFFC00" stroke-width="0" stroke="#FFFC00" d = " M274 261 L279,265 C288.681,265 287,269.3 287,259 287,254.771 277.518,244.464 274,251.5 271.723,256.054 274,256.807 274,261  Z"/>

<path  fill="#E1F00D" stroke-width="0" stroke="#E1F00D" d = " M207 327 L217,327 C217,327 214,319.5 214,319.5 214,319.5 213,298.5 213,298.5 213,298.5 210,295.5 210,295.5 207.578,290.655 215,284.33 215,282 215,282 206,273.5 206,273.5 203.882,269.264 207,267.937 207,264 201.173,264 201,265.418 201,258 198.83,258 194,257.866 194,256 192.902,256 183,262.647 183,257 179.774,257 181.769,260.962 181,262.5 181,262.5 167.5,274 167.5,274 159.99,277.755 154.273,274 147,274 147,284.724 147.541,286.979 137.5,292 135.916,292.792 131.556,294.028 129.5,293 126.041,291.27 120.891,286 117,286 117,288.643 122.433,289.367 124,292.5 128.907,302.313 128.096,314.691 133,324.5 134.876,328.252 134.865,338.77 133,342.5 132.664,343.173 126.625,348 130,348 139.698,348 151.129,352.686 160.5,348 181.96,337.27 179.66,327 207,327  Z"/>

<path  fill-rule="evenodd" fill="#E1F00D" stroke-width="0" stroke="#E1F00D" d = " M352 295 L349,296.5 C349,299.398 361.575,295 352,295  M287 328 C291.027,328 294.703,324.601 299.5,327 305.616,330.058 312.007,340.753 314.5,342 L326.5,348 C330.122,349.811 347,351.516 347,346 347,346 360.5,334 360.5,334 360.5,334 363,323.5 363,323.5 365.273,318.954 380.448,290 366,290 360.429,290 350.894,294.289 347,286.5 345.217,282.934 346,277.257 346,273 346,271.855 346.579,269 345,269 341.138,269 331.777,275.638 326.5,273 322.343,270.922 307.27,256 306,256 306,272.718 292,265.147 292,258 292,254.792 287.53,259 287,259 287,269.3 288.681,265 279,265 279,267.903 280.614,270.272 279,273.5 279,273.5 273,278 273,278 273,278 272,280.5 272,280.5 272,280.5 276,282.5 276,282.5 276,282.5 279,289.5 279,289.5 281.13,293.759 276,296.756 276,299.5 276,306.676 275.482,310.535 272,317.5 270.381,320.737 274,323.605 274,326 278.942,326 282.889,328 287,328  Z"/>

<path  fill="#022CFF" stroke-width="0" stroke="#022CFF" d = " M242 260 C242,269.822 246.923,260 242,260  Z"/>

<path  fill="#0008B6" stroke-width="0" stroke="#0008B6" d = " M231 276 L220.5,283 L215,282 C215,282 206,273.5 206,273.5 203.882,269.264 207,267.937 207,264 207,261.607 210.234,261 212,261 212,266.581 219,261.713 219,266 217.466,266 218,268.402 218,269.5 218,274.801 226,275.751 226,271 226,271 232,271 232,271 232,271 231,276 231,276  Z"/>

<path  fill="#0008B6" stroke-width="0" stroke="#0008B6" d = " M257 278 L262.5,281 C266.231,282.865 270.009,278 273,278 273,278 279,273.5 279,273.5 280.614,270.272 279,267.903 279,265 279,265 274,261 274,261 272.011,261 267,261.247 267,264 268.068,264 274.852,277.176 264.5,272 262.912,271.206 262,271.199 262,269 260.066,269 255,266.628 255,268 255,268 254,269 254,269 254,271.767 257,275.533 257,278  Z"/>

<path  fill="#15C0FF" stroke-width="0" stroke="#15C0FF" d = " M267 264 C268.068,264 274.852,277.176 264.5,272 262.912,271.206 262,271.199 262,269 262,264.848 262.848,264 267,264  Z"/>

<path  fill="#15C0FF" stroke-width="0" stroke="#15C0FF" d = " M219 266 C221.288,266 226,266.794 226,271 226,275.751 218,274.801 218,269.5 218,268.402 217.466,266 219,266  Z"/>

<path  fill="#022CFF" stroke-width="0" stroke="#022CFF" d = " M242 277 L242,314.5 C242,316.185 240.999,326 243.5,326 246.001,326 245,316.185 245,314.5 L245,277 C245,274.474 245,271.423 245,268 243.952,268 242,267.527 242,269 242,269 242,277 242,277  Z"/>

<path  fill="#E1F00D" stroke-width="0" stroke="#E1F00D" d = " M245 277 C249.278,277 252.825,278 257,278 257,275.533 254,271.767 254,269 250.778,269 247.723,268 245,268 245,271.423 245,274.474 245,277  Z"/>

<path  fill="#E1F00D" stroke-width="0" stroke="#E1F00D" d = " M231 276 C233.998,276 238.358,277 242,277 242,277 242,269 242,269 242,269 232,271 232,271 232,271 231,276 231,276  Z"/>

<path  fill="#E278A1" stroke-width="0" stroke="#E278A1" d = " M274 326 C266.944,326 253.633,333 245.5,333 242.861,333 232.871,333.685 229.5,332 226.268,330.384 220.639,327 217,327 217,327 214,319.5 214,319.5 214,319.5 213,298.5 213,298.5 213,298.5 210,295.5 210,295.5 207.578,290.655 215,284.33 215,282 215,282 220.5,283 220.5,283 220.5,283 231,276 231,276 233.998,276 238.358,277 242,277 242,277 242,314.5 242,314.5 242,316.185 240.999,326 243.5,326 246.001,326 245,316.185 245,314.5 245,314.5 245,277 245,277 249.278,277 252.825,278 257,278 257,278 262.5,281 262.5,281 266.231,282.865 270.009,278 273,278 273,278 272,280.5 272,280.5 272,280.5 276,282.5 276,282.5 276,282.5 279,289.5 279,289.5 281.13,293.759 276,296.756 276,299.5 276,306.676 275.482,310.535 272,317.5 270.381,320.737 274,323.605 274,326  Z"/>

<path  fill="#FFBB00" stroke-width="0" stroke="#FFBB00" d = " M352 295 L349,296.5 C349,299.398 361.575,295 352,295  Z"/>

<path  fill="#267EFF" stroke-width="0" stroke="#267EFF" d = " M207 327 L217,327 C220.639,327 226.268,330.384 229.5,332 232.871,333.685 242.861,333 245.5,333 253.633,333 266.944,326 274,326 278.942,326 282.889,328 287,328 287,336.027 273.189,339 266,339 266,339 226.5,337 226.5,337 222.158,337 215.873,341.187 211.5,339 211.5,339 209.5,336 209.5,336 203.416,332.958 207,332.062 207,327  Z"/>

<path  fill-rule="evenodd" fill="#FA8072" stroke-width="0" stroke="#FA8072" d = " M301 373 C301,377.123 305.123,373 301,373  M302 369 C302,370.93 303.93,369 302,369  M301 359 L302,361.5 L302,364.5 C302.385,365.27 306.249,359 301,359  M298 345 C298,349.5 281,349.728 281,356.5 281,361.887 279.933,371.366 282,375.5 283.375,378.251 288.173,377.845 289,379.5 289.973,381.445 291.865,390 295.5,390 297.241,390 297.891,385.695 300.5,387 L303.5,390 L311.5,385 C313.103,385 316.268,387.116 318.5,386 324.575,382.963 320,378.939 320,375.5 320,373.009 324.423,374.539 325.5,374 L329,369.5 C332.668,362.163 323.615,361.729 322,358.5 L322,353.5 L316,348.5 L314.5,345 C313.88,344.69 299.944,345 298,345  Z"/>

<path  fill-rule="evenodd" fill="#FA8072" stroke-width="0" stroke="#FA8072" d = " M194 371 C194,375.123 198.123,371 194,371  M182 348 C182,350.459 176.613,349.444 175.5,350 174.541,350.48 168.327,355.847 168,356.5 L167.5,360 C165.413,361.044 163.203,357.094 161,361.5 160.043,363.413 160.601,371.051 162.5,372 165.579,373.54 166.373,368.246 168,371.5 169.425,374.349 168.521,378.543 170,381.5 L177,388.5 C177.383,389.266 176.684,392 178.5,392 179.701,392 182.007,387.254 185.5,389 L187.5,395 L190.5,394 C192.617,395.059 193.286,395.107 195.5,394 201.471,391.015 193.511,384.495 196.5,383 199.76,381.37 205.179,388.142 209,380.5 213.029,372.443 204.392,369.284 203,366.5 202.143,364.786 202.776,362.138 200.5,361 L195.5,360 L195,353.5 C193.367,350.235 185.165,348 182,348  Z"/>

<path  fill="#FA8072" stroke-width="0" stroke="#FA8072" d = " M124 356 C124,364.66 122.687,365.094 130.5,369 L134.5,369 C135.688,369.594 135.39,372.945 137.5,374 L142.5,373 C143.574,373.537 143.932,382.284 150.5,379 153.735,377.383 153.909,371.704 150.5,370 L146.5,370 C143.359,368.43 146.284,363.892 142.5,362 140.657,361.079 132.661,361.08 132.5,361 128.399,358.949 130.029,356 124,356  Z"/>

<path  fill="#FA8072" stroke-width="0" stroke="#FA8072" d = " M360 357 C360,362.285 355.414,359 352.5,359 L350.5,362 C346.184,364.158 335.498,366.495 339,373.5 339.876,375.253 349.47,375.515 350.5,375 L354,371.5 L354.5,367 C356.051,367 360.393,370.054 364.5,368 372.482,364.009 365.542,357 360,357  Z"/>

</g>
</svg>
