<svg xmlns="http://www.w3.org/2000/svg" xmlns:xlink="http://www.w3.org/1999/xlink" height="512" width="512">
<g>
<rect width="512" height="512" fill="#000000"  stroke-width="0" /> 
<path  fill="#03C12D" stroke-width="0" stroke="#03C12D" d = " M367 346 C372.304,346 373.243,347.872 377.5,350 379.408,350.954 395.98,349.76 397.5,349 410.192,342.654 420.371,332.758 427,319.5 429.99,313.52 428.962,305.576 432,299.5 L432,285.5 L436,282.5 C440.022,274.456 431.404,266.692 435,259.5 436.394,256.712 440.331,258.837 442,255.5 444.068,251.364 442.975,245.549 445,241.5 450.749,230.002 448,217.297 448,204.5 448,200.722 449.515,195.53 448,192.5 L449,181.5 C446.445,176.389 447.541,169.582 445,164.5 439.364,153.229 433.365,143.23 428,132.5 425.429,127.358 410.898,116.699 405.5,114 398.594,110.547 395.324,104.412 388.5,101 379.914,96.7071 371.138,92.3192 362.5,88 358.928,86.2141 354.015,86.7575 350.5,85 332.11,75.8051 307.955,75 287.5,75 285.851,75 275.596,71.4522 274.5,72 270.264,74.1182 262.932,73.284 259.5,75 L249.5,80 L237.5,89 L231.5,83 C226.017,80.2586 220.934,76.7171 215.5,74 211.203,71.8516 205.255,77 201.5,77 199.495,77 196.729,73.3855 193.5,75 190.762,76.3692 184.458,79 181.5,79 L174.5,77 C166.272,81.1139 155.789,80.8555 147.5,85 142.246,87.6268 133.887,84.3065 128.5,87 119.861,91.3194 111.023,95.7383 102.5,100 L98.5,105 C91.0127,108.744 86.0628,114.719 79.5,118 79.4054,118.047 71.7301,128.385 70.5,129 63.1258,132.687 59.2201,141.06 56,147.5 52.6811,154.138 48.2967,159.907 45,166.5 43.475,169.55 43.5625,173.375 42,176.5 39.1945,182.111 41.3921,194.716 38,201.5 L40,205.5 L38,210.5 L38,228.5 C37.2723,229.955 36.0364,233.573 37,235.5 40.2057,241.911 40.452,251.404 43,256.5 44.8748,260.25 57,265.977 57,269.5 57,271.123 53.8593,276.781 53,278.5 51.4298,281.64 53.7705,289.041 55,291.5 57.2291,295.958 54.7451,302.99 57,307.5 60.2232,313.946 63.7738,320.048 67,326.5 69.8188,332.138 70.204,340.352 77.5,344 87.6925,349.096 98.351,352.575 109.5,347 110.759,346.37 120.447,348 123,348 123,345.403 129.322,344 131,344 131,344 134.5,341 134.5,341 137.286,339.607 163.128,328 164,328 164,328 169.5,325 169.5,325 172.889,323.305 175.572,318.355 177,315.5 180.203,309.093 173,301.528 173,298 173,298 169,295 169,295 169,295 166,293 166,293 166,293 162,293 162,293 160.032,293 154,292.639 154,290 154,288.362 150.424,288 149,288 149,288 142,287 142,287 134.675,287 131.01,282 130,282 130,282 128,280 128,280 123.409,280 120.604,274 117,274 117,274 116,273 116,273 116,270.971 114.809,271.119 114,269.5 108.131,257.761 103.401,262.951 93.5,258 88.6777,255.589 88,241.302 88,236 88,236 88,234 88,234 85.6274,234 88,231.716 88,231 88,227.587 88,225.804 88,222 86.7257,222 86,214.517 86,213 86,212.764 91.6537,191.193 92,190.5 95.1563,184.187 95.8873,176.725 99,170.5 105.192,158.115 125.118,133.191 137.5,127 148.614,121.443 163.399,120.551 174.5,115 174.5,115 188.5,115 188.5,115 194.904,111.798 203.139,112.18 209.5,109 212.353,107.574 217.36,115.221 219,118.5 220.461,121.422 222.004,127.252 225.5,129 229.581,131.04 244.456,133.522 249.5,131 256.93,127.285 257.715,127.071 262,118.5 263.329,115.842 263.538,107 268.5,107 273.259,107 294.336,110.918 298.5,113 298.5,113 315.5,114 315.5,114 321.88,117.19 329.105,117.803 335.5,121 335.5,121 339.5,121 339.5,121 353.746,128.123 372.251,138.001 380,153.5 382.531,158.562 395,169.686 395,177 395,177 396,178 396,178 396,183.144 397.689,193.877 400,198.5 400,198.5 401,227.5 401,227.5 401,227.5 400,239 400,239 400,239 399.5,243 399.5,243 399.5,243 399,237 399,237 399,237 397,238 397,238 397,240.342 396.869,248 394,248 394,248 393,250 393,250 393,250 392,252 392,252 392,252 391,254 391,254 391,254 391,256 391,256 391,256 390,257 390,257 390,257 388,262 388,262 388,262 387,263 387,263 387,264.712 384.429,266 383,266 383,267.049 376.611,270 375,270 375,272.637 371.755,273.99 371,275.5 367.227,283.045 358.626,285 349.5,285 349.5,285 340.5,283 340.5,283 335.725,285.387 328.46,291 323,291 323,292.577 321.238,293 320,293 320,293 319,294 319,294 319,294 318,295 318,295 318,295 317,295 317,295 317,295 316,296 316,296 316,296 314,299.5 314,299.5 310.172,307.157 311.337,311.174 315,318.5 316.645,321.79 330.982,327.241 334.5,329 334.5,329 341.5,335 341.5,335 341.5,335 349,340 349,340 352.675,340 360.166,342.333 363.5,344 364.658,344.579 367,343.659 367,346  Z"/>

<path  fill="#FF6E00" stroke-width="0" stroke="#FF6E00" d = " M398 227 L399,237 C399,237 399.5,243 399.5,243 399.5,243 400,239 400,239 400,239 401,227.5 401,227.5 401,227.5 400,198.5 400,198.5 397.689,193.877 396,183.144 396,178 396,178 395,177 395,177 395,169.686 382.531,158.562 380,153.5 372.251,138.001 353.746,128.123 339.5,121 339.5,121 335.5,121 335.5,121 329.105,117.803 321.88,117.19 315.5,114 315.5,114 298.5,113 298.5,113 294.336,110.918 273.259,107 268.5,107 263.538,107 263.329,115.842 262,118.5 257.715,127.071 256.93,127.285 249.5,131 244.456,133.522 229.581,131.04 225.5,129 222.004,127.252 220.461,121.422 219,118.5 217.36,115.221 212.353,107.574 209.5,109 203.139,112.18 194.904,111.798 188.5,115 188.5,115 174.5,115 174.5,115 163.399,120.551 148.614,121.443 137.5,127 125.118,133.191 105.192,158.115 99,170.5 95.8873,176.725 95.1563,184.187 92,190.5 91.6537,191.193 86,212.764 86,213 86,214.517 86.7257,222 88,222 88,222 90,222 90,222 90,222 94,217.5 94,217.5 94,214.253 98.7866,193 103,193 103,191.902 107.277,176.946 108,175.5 108.584,174.332 109.254,171 111,171 111,171 112,168 112,168 112,168 112,167 112,167 112,165.168 111.182,162 115,162 117.109,162 117,159.465 117,158 113.889,158 125.58,147.34 126,146.5 129.14,140.22 136.906,136.797 142.5,134 142.5,134 144.5,131 144.5,131 144.5,131 149,132 149,132 152.034,132 153.065,130.218 155.5,129 160.033,126.733 184.861,121.18 190.5,124 199.9,128.7 207.339,135.839 215,143.5 215,143.5 223.5,154 223.5,154 225.079,154.79 232.584,151 235,151 238.049,151 254.146,149.823 256.5,151 256.5,151 259.5,152 259.5,152 259.5,152 272,136.5 272,136.5 275.723,129.054 286.34,124.08 292.5,121 298.619,117.941 321.098,122.799 327.5,126 331.928,128.214 336.747,132 342,132 342,128.303 333,129.69 333,126.5 333,124.708 336.361,126.93 336.5,127 340.024,128.762 343.927,130.214 347.5,132 348.55,132.525 348.053,134 347,134 347,134 349.5,137 349.5,137 353.237,138.868 356.726,140.226 360,143.5 360,143.5 365,148 365,148 369.021,148 372,152.19 372,156 372,156 373,157 373,157 373.205,157 383.396,167 377,167 377,168.145 376.421,171 378,171 378,171 379,171 379,171 379,163.69 385,180.659 385,183 385,183 388.5,182 388.5,182 388.5,182 390,189.5 390,189.5 392.656,194.811 396,203.627 396,210 398.698,210 398,214.255 398,216 398,216 398,227 398,227  Z"/>

<path  fill="#0E47E2" stroke-width="0" stroke="#0E47E2" d = " M202 184 L206,185 C206,183.878 211.648,184.926 213.5,184 213.5,184 217.5,178 217.5,178 218.805,177.348 227.346,179.077 231.5,177 238.32,173.59 238.93,160.785 240.5,160 240.5,160 243,161.5 243,161.5 245.452,166.404 247.809,172.155 253.5,175 258.772,177.636 268.198,172.849 270.5,174 270.5,174 274.5,180 274.5,180 278.56,182.03 284.898,178 289,178 289,178 294,176 294,176 294,176 295,175 295,175 295,175 297,175 297,175 297,170.529 313.066,173 316,173 316,173 334,173 334,173 334,173 335,174 335,174 335,174 338,174 338,174 338,174 339,175 339,175 339,175 342,176 342,176 343.465,176 346,175.891 346,178 346,178 348,179 348,179 349.417,179 354,181.383 354,183 360.965,183 369.786,192.929 375,182.5 376.035,180.431 378,177.37 378,175 378,175 378,173 378,173 378,173 378,171 378,171 376.421,171 377,168.145 377,167 377,163.265 373,161.286 373,157 373,157 372,156 372,156 372,156 365,148 365,148 365,148 360,143.5 360,143.5 356.726,140.226 353.237,138.868 349.5,137 349.5,137 347,134 347,134 347,134 342,132 342,132 336.747,132 331.928,128.214 327.5,126 321.098,122.799 298.619,117.941 292.5,121 286.34,124.08 275.723,129.054 272,136.5 272,136.5 259.5,152 259.5,152 259.5,152 256.5,151 256.5,151 254.146,149.823 238.049,151 235,151 232.584,151 225.079,154.79 223.5,154 223.5,154 215,143.5 215,143.5 207.339,135.839 199.9,128.7 190.5,124 184.861,121.18 160.033,126.733 155.5,129 153.065,130.218 152.034,132 149,132 149,132 130.5,144 130.5,144 126.123,146.188 120.521,158 117,158 117,159.465 117.109,162 115,162 115,162 113,167 113,167 113,167 112,168 112,168 112,168 111,171 111,171 111,172.375 111,173.625 111,175 112.399,175 112.399,177 111,177 111,177 114,183.5 114,183.5 114,183.5 114,186.5 114,186.5 118.336,195.172 133.417,183 137,183 137,180.302 141.255,181 143,181 143,178.891 145.535,179 147,179 150.456,179 156.039,176 162,176 162,174.275 168.052,175 169.5,175 174.045,175 193,175.031 193,180 193,180 199,182 199,182 200.238,182 202,182.423 202,184  Z"/>

<path  fill="#022CFF" stroke-width="0" stroke="#022CFF" d = " M342 132 L347,134 C348.053,134 348.55,132.525 347.5,132 343.927,130.214 340.024,128.762 336.5,127 336.361,126.93 333,124.708 333,126.5 333,129.69 342,128.303 342,132  Z"/>

<path  fill="#022CFF" stroke-width="0" stroke="#022CFF" d = " M149 132 L144.5,131 L142.5,134 C136.906,136.797 129.14,140.22 126,146.5 125.58,147.34 113.889,158 117,158 120.521,158 126.123,146.188 130.5,144 130.5,144 149,132 149,132  Z"/>

<path  fill="#022CFF" stroke-width="0" stroke="#022CFF" d = " M365 148 C369.021,148 372,152.19 372,156 372,156 365,148 365,148  Z"/>

<path  fill="#022CFF" stroke-width="0" stroke="#022CFF" d = " M373 157 C373.205,157 383.396,167 377,167 377,163.265 373,161.286 373,157  Z"/>

<path  fill="#022CFF" stroke-width="0" stroke="#022CFF" d = " M263 190 L266,191 C266,191 274.5,189 274.5,189 274.5,189 281.5,182 281.5,182 282.85,181.325 289,179.761 289,178 284.898,178 278.56,182.03 274.5,180 274.5,180 270.5,174 270.5,174 268.198,172.849 258.772,177.636 253.5,175 247.809,172.155 245.452,166.404 243,161.5 243,161.5 240.5,160 240.5,160 238.93,160.785 238.32,173.59 231.5,177 227.346,179.077 218.805,177.348 217.5,178 217.5,178 213.5,184 213.5,184 211.648,184.926 206,183.878 206,185 206,185 209,187.5 209,187.5 213.716,196.933 219.453,190 226,190 226,187.713 229.22,182 232,182 232,177.447 236,182.355 236,185 236,185 240,189.5 240,189.5 242.782,195.064 235.432,205.466 242.5,209 243.733,209.616 246.445,203.61 247,202.5 247,202.5 245,195.5 245,195.5 245.782,193.936 245.269,191.962 246,190.5 247.135,188.231 251,188.234 251,185 251,182.355 255,177.049 255,182 256.999,182 260,187.328 260,189 260,190.473 261.952,190 263,190  Z"/>

<path  fill="#022CFF" stroke-width="0" stroke="#022CFF" d = " M112 167 L113,167 C113,167 115,162 115,162 111.182,162 112,165.168 112,167  Z"/>

<path  fill="#022CFF" stroke-width="0" stroke="#022CFF" d = " M323 290 L323,291 C328.46,291 335.725,285.387 340.5,283 340.5,283 349.5,285 349.5,285 358.626,285 367.227,283.045 371,275.5 371.755,273.99 375,272.637 375,270 375,270 376,260 376,260 376,253.092 379.148,249.205 382,243.5 382,243.5 382,236.5 382,236.5 384.145,232.21 385.906,227.688 388,223.5 388,223.5 387,213.5 387,213.5 389.121,209.257 385,188.952 385,183 385,180.659 379,163.69 379,171 379,171 378,173 378,173 378,173 378,175 378,175 383.655,175 379.369,194.237 381,197.5 383.092,201.683 378,204.47 378,208.5 378,218.955 372.974,252 362,252 362,255.078 345.428,270.643 344,273.5 342.182,277.137 338.069,280.215 334.5,282 333.722,282.389 331,283.961 331,282 331,282 330,282 330,282 330,284.498 323,286.529 323,290  Z"/>

<path  fill="#022CFF" stroke-width="0" stroke="#022CFF" d = " M112 231 L112,236 C105.668,236 110,228.869 110,226.5 110,224.178 108,221.553 108,218.5 108,216.811 107.802,211 106,211 106,208.745 106,208.255 106,206 106,203.641 105.627,193 103,193 103,191.902 107.277,176.946 108,175.5 108.584,174.332 109.254,171 111,171 111,172.375 111,173.625 111,175 111,175 110,177 110,177 108.814,177 108.814,178 110,178 110,178 108,191.5 108,191.5 109.706,194.911 111,211.9 111,216 111,216 111,217 111,217 111,217 112,225 112,225 112,225 112,231 112,231  Z"/>

<path  fill-rule="evenodd" fill="#006400" stroke-width="0" stroke="#006400" d = " M160 245 C160,247.835 166.213,247.856 168.5,249 172.79,251.145 190.538,259.481 195.5,257 199.373,255.064 182.978,252.239 182.5,252 175.053,248.276 169.087,245 160,245  M326 237 C326,238.585 320.449,241.025 318.5,242 L310.5,243 C304.892,245.804 300.102,251 293.5,251 292.107,251 281.962,252.425 283,254.5 284.188,256.875 292.198,254 293.5,254 303.106,254 312.459,247.52 321.5,243 L330,239.5 C331.441,236.618 327.586,237 326,237  M224 212 L219,215.5 C218.079,217.341 223.162,226 225.5,226 228.845,226 227.226,219.049 228,217.5 230.247,213.005 228.661,212 224,212  M258 211 C258,214.011 258.954,228 262.5,228 265.731,228 268.543,218.585 267,215.5 L262.5,214 L258,211  M300 280 L301,280 C301,280 304,279 304,279 304,276.959 304.959,276 307,276 307,273.855 316.424,269 319,269 319,269 322.5,265 322.5,265 324.585,263.957 333.262,258.976 334,257.5 336.55,252.399 342.664,241.918 348.5,239 348.5,239 352,240 352,240 352,240 353,237 353,237 353,235.535 352.891,233 355,233 355,229.145 358,226.541 358,223 358,223 359,222 359,222 359,220.253 359.253,220 361,220 363.34,220 365,206.976 365,205 365,205 365,203 365,203 365,203 363,200 363,200 363,200 361,198 361,198 361,198 360,196 360,196 360,196 359,195 359,195 359,195 358,193 358,193 358,191.598 356.89,187 355,187 353.453,187 348,179.926 348,179 348,179 346,178 346,178 346,178 342,176 342,176 342,176 339,175 339,175 339,175 338,174 338,174 338,174 335,174 335,174 335,174 334,173 334,173 334,173 316,173 316,173 316,174.643 312.235,174 311,174 311,174 297,175 297,175 297,175 295,175 295,175 295,175 294,176 294,176 294,176 289,178 289,178 289,179.761 282.85,181.325 281.5,182 281.5,182 274.5,189 274.5,189 274.5,189 266,191 266,191 266,192.934 263,192.167 263,190 261.952,190 260,190.473 260,189 255.935,189 252.447,185 252,185 252,185 251,185 251,185 251,188.234 247.135,188.231 246,190.5 245.269,191.962 245.782,193.936 245,195.5 245,195.5 247,202.5 247,202.5 246.445,203.61 243.733,209.616 242.5,209 235.432,205.466 242.782,195.064 240,189.5 240,189.5 236,185 236,185 236,185 234,185 234,185 234,187.641 228.073,190 226,190 219.453,190 213.716,196.933 209,187.5 209,187.5 206,185 206,185 206,185 202,184 202,184 200.762,184 199,183.577 199,182 199,182 193,180 193,180 189.769,180 186.256,178.378 183.5,177 182.028,176.264 164.182,176 162,176 156.039,176 150.456,179 147,179 147,179 143,181 143,181 143,182.028 138.334,185 137,185 137,185 136,186 136,186 136,186 130,195 130,195 130,195 129,196 129,196 129,196 128,198 128,198 128,198 128,200 128,200 128,200 127,201 127,201 125.804,201 124,211.494 124,213 124,213 125,215 125,215 125,216.235 124.357,220 126,220 128.109,220 128,218.838 128,222 128,222 128,227 128,227 128,227 129,229 129,229 129,229 132,233 132,233 133.473,233 133,234.952 133,236 133,236 133,238 133,238 134.429,238 137,239.288 137,241 140.433,241 139.712,244.606 142.5,246 151.059,250.279 154.178,261.339 163.5,266 164.666,266.583 165.945,272 168,272 168,272 170,272 170,272 170,272 175,274 175,274 176.747,274 177,274.253 177,276 179.919,276 181.243,280 184,280 184,280 186,280 186,280 186,280 199.5,280 199.5,280 199.5,280 206.5,282 206.5,282 212.629,278.936 210.012,280 217,280 217,277.491 219.491,275 222,275 222,270.513 233.701,268.4 236.5,267 237.573,266.464 242,266.749 242,268 242,268 245,268 245,268 247.415,268 266,272.337 266,275 268.708,275 270,276.119 270,279 279.613,279 289.715,280 300,280  Z"/>

<path  fill="#BC20AD" stroke-width="0" stroke="#BC20AD" d = " M162 176 C164.182,176 182.028,176.264 183.5,177 186.256,178.378 189.769,180 193,180 193,175.031 174.045,175 169.5,175 168.052,175 162,174.275 162,176  Z"/>

<path  fill="#00FF1D" stroke-width="0" stroke="#00FF1D" d = " M365 205 C366.247,205 366.675,213.15 366,214.5 362.165,222.17 367.058,238.384 365,242.5 364.13,244.24 362,250.349 362,252 372.974,252 378,218.955 378,208.5 378,204.47 383.092,201.683 381,197.5 379.369,194.237 383.655,175 378,175 378,177.37 376.035,180.431 375,182.5 369.786,192.929 360.965,183 354,183 354,183 355,185 355,185 359.16,185 364.481,193.461 366,196.5 366,196.5 364,200 364,200 364,200 365,203 365,203 365,203 365,205 365,205  Z"/>

<path  fill="#00FF1D" stroke-width="0" stroke="#00FF1D" d = " M112 225 C113.638,225 114,228.576 114,230 114,230 117.5,231 117.5,231 119.014,231 117,225.112 117,224.5 117,221.384 119.088,214 123,214 123,214 124,213 124,213 124,211.494 125.804,201 127,201 127,201 128,200 128,200 128,200 128,198 128,198 128,198 129,196 129,196 129,196 130,195 130,195 130,195 136,186 136,186 136,186 137,185 137,185 137,185 137,183 137,183 133.417,183 118.336,195.172 114,186.5 114,186.5 114,183.5 114,183.5 114,183.5 111,177 111,177 111,177 110,177 110,177 110,177 110,178 110,178 110,178 108,191.5 108,191.5 109.706,194.911 111,211.9 111,216 112.186,216 112.186,217 111,217 111,217 112,225 112,225  Z"/>

<path  fill="#45EBCA" stroke-width="0" stroke="#45EBCA" d = " M234 185 L236,185 C236,182.355 232,177.447 232,182 232,182 234,185 234,185  Z"/>

<path  fill="#45EBCA" stroke-width="0" stroke="#45EBCA" d = " M251 185 L252,185 C252,185 255,182 255,182 255,177.049 251,182.355 251,185  Z"/>

<path  fill="#FFFC00" stroke-width="0" stroke="#FFFC00" d = " M234 185 C234,187.641 228.073,190 226,190 226,187.713 229.22,182 232,182 232,182 234,185 234,185  Z"/>

<path  fill="#FFFC00" stroke-width="0" stroke="#FFFC00" d = " M252 185 C252.447,185 255.935,189 260,189 260,187.328 256.999,182 255,182 255,182 252,185 252,185  Z"/>

<path  fill="#814FFF" stroke-width="0" stroke="#814FFF" d = " M387 263 C385.571,263 383,264.288 383,266 376.726,266 380.288,260 376,260 376,253.092 379.148,249.205 382,243.5 382,243.5 382,236.5 382,236.5 384.145,232.21 385.906,227.688 388,223.5 388,223.5 387,213.5 387,213.5 389.121,209.257 385,188.952 385,183 385,183 388.5,182 388.5,182 388.5,182 390,189.5 390,189.5 392.656,194.811 396,203.627 396,210 396,212.426 394.976,216 398,216 398,216 398,227 398,227 396.227,227 397,236.259 397,238 395.688,238 394,246.235 394,248 394,248 393,250 393,250 393,250 392,252 392,252 392,252 391,254 391,254 391,254 391,256 391,256 391,256 390,257 390,257 390,257 388,262 388,262 388,262 387,263 387,263  Z"/>

<path  fill="#022CFF" stroke-width="0" stroke="#022CFF" d = " M363 200 L364,200 C364,200 366,196.5 366,196.5 364.481,193.461 359.16,185 355,185 355,185 355,187 355,187 356.89,187 358,191.598 358,193 358,193 359,195 359,195 359,195 360,196 360,196 360,196 361,198 361,198 361,198 363,200 363,200  Z"/>

<path  fill="#814FFF" stroke-width="0" stroke="#814FFF" d = " M129 279 L128,280 C123.409,280 120.604,274 117,274 117,274 116,273 116,273 116,270.971 114.809,271.119 114,269.5 108.131,257.761 103.401,262.951 93.5,258 88.6777,255.589 88,241.302 88,236 89.3993,236 89.3993,234 88,234 85.6274,234 88,231.716 88,231 90.1556,231 90,223.923 90,222 90,222 94,217.5 94,217.5 94,214.253 98.7866,193 103,193 105.627,193 106,203.641 106,206 104.797,206 103.154,211 106,211 107.802,211 108,216.811 108,218.5 108,221.553 110,224.178 110,226.5 110,228.869 105.668,236 112,236 113.684,236 113,240.679 113,242 113,244.197 111.654,247.808 113,250.5 113,250.5 116,256 116,256 112.952,256 117.642,260.785 118,261.5 119.549,264.598 118.412,269.324 120,272.5 121.998,276.496 129,273.03 129,279  Z"/>

<path  fill="#267EFF" stroke-width="0" stroke="#267EFF" d = " M364 200 L365,203 C365,203 363,200 363,200 363,200 364,200 364,200  Z"/>

<path  fill="#267EFF" stroke-width="0" stroke="#267EFF" d = " M331 280 L331,282 C331,283.961 333.722,282.389 334.5,282 338.069,280.215 342.182,277.137 344,273.5 345.428,270.643 362,255.078 362,252 362,250.349 364.13,244.24 365,242.5 367.058,238.384 362.165,222.17 366,214.5 366.675,213.15 366.247,205 365,205 365,206.976 363.34,220 361,220 361,220 359,222 359,222 359,222 358,223 358,223 358,226.541 355,229.145 355,233 355,233 354,237 354,237 354,237 356,242.5 356,242.5 358.945,248.391 349.077,256.347 347,260.5 345.848,262.803 343.943,268 341,268 341,268 340,269 340,269 340,271.904 336.225,277 333,277 333,277 332,278 332,278 332,278 332,279 332,279 332,279 331,280 331,280  Z"/>

<path  fill="#F44345" stroke-width="0" stroke="#F44345" d = " M258 211 C258,214.011 258.954,228 262.5,228 265.731,228 268.543,218.585 267,215.5 L262.5,214 L258,211  Z"/>

<path  fill="#F44345" stroke-width="0" stroke="#F44345" d = " M224 212 L219,215.5 C218.079,217.341 223.162,226 225.5,226 228.845,226 227.226,219.049 228,217.5 230.247,213.005 228.661,212 224,212  Z"/>

<path  fill="#EE7533" stroke-width="0" stroke="#EE7533" d = " M124 256 C121.832,256 124.776,258.862 122.5,260 121.205,260.647 119,259.343 119,258 119,258 114,246.5 114,246.5 113.426,245.353 115.064,242 113,242 113,240.679 113.684,236 112,236 112,236 112,231 112,231 112,231 114,230 114,230 114,230 117.5,231 117.5,231 119.014,231 117,225.112 117,224.5 117,221.384 119.088,214 123,214 123,214 125,215 125,215 125,216.235 124.357,220 126,220 126,220 126,221 126,221 126,224.678 124,229.331 124,234 124,236.99 121.317,240.867 120,243.5 119.088,245.324 124,253.232 124,256  Z"/>

<path  fill="#814FFF" stroke-width="0" stroke="#814FFF" d = " M111 216 C112.186,216 112.186,217 111,217 111,217 111,216 111,216  Z"/>

<path  fill="#FF3427" stroke-width="0" stroke="#FF3427" d = " M173 298 C175.846,298 178.382,300 182,300 186.411,300 188,294.966 188,291 188,291 184,288 184,288 184,288 183,287 183,287 183,287 179,285 179,285 179,285 177,283 177,283 177,283 174,281 174,281 171.574,281 168,273.955 168,272 165.945,272 164.666,266.583 163.5,266 154.178,261.339 151.059,250.279 142.5,246 139.712,244.606 140.433,241 137,241 133.25,241 133,244.443 133,238 133,238 133,236 133,236 131.527,236 132,234.048 132,233 132,233 129,229 129,229 128.104,229 125.974,227 128,227 128,227 128,222 128,222 128,222 126,221 126,221 126,224.678 124,229.331 124,234 125.014,234 126,237.959 126,239 126,239 126,241 126,241 126,243.313 127.452,246 130,246 130,246 131,245 131,245 131,245 133,243.5 133,243.5 133,243.5 132,246 132,246 132,254.255 142.509,264.517 146,271.5 147.32,274.14 158,278.931 158,285 158,285 158,286 158,286 160.11,286 166,290.415 166,293 167.238,293 169,293.423 169,295 169,295 173,298 173,298  Z"/>

<path  fill="#267EFF" stroke-width="0" stroke="#267EFF" d = " M157 285 L157,286 C157,291.964 147.041,280.77 145.5,280 140.894,277.697 130.727,268.953 128,263.5 127.244,261.988 126.284,256 124,256 124,253.232 119.088,245.324 120,243.5 121.317,240.867 124,236.99 124,234 125.014,234 126,237.959 126,239 124.601,239 124.601,241 126,241 126,243.313 127.452,246 130,246 130,258.705 142.563,265.626 147,274.5 148.387,277.274 153.238,285 157,285  Z"/>

<path  fill="#D4FF00" stroke-width="0" stroke="#D4FF00" d = " M326 237 C326,238.585 320.449,241.025 318.5,242 L310.5,243 C304.892,245.804 300.102,251 293.5,251 292.107,251 281.962,252.425 283,254.5 284.188,256.875 292.198,254 293.5,254 303.106,254 312.459,247.52 321.5,243 L330,239.5 C331.441,236.618 327.586,237 326,237  Z"/>

<path  fill="#FAAA40" stroke-width="0" stroke="#FAAA40" d = " M352 240 C352,248.002 351.722,250.055 348,257.5 345.875,261.75 341,262.8 341,268 343.943,268 345.848,262.803 347,260.5 349.077,256.347 358.945,248.391 356,242.5 356,242.5 354,237 354,237 354,237 353,237 353,237 353,237 352,240 352,240  Z"/>

<path  fill="#FF3427" stroke-width="0" stroke="#FF3427" d = " M299 296 C301.86,296 305.874,299.813 309.5,298 311.64,296.93 313.387,296 316,296 316,296 317,295 317,295 317,295 318,295 318,295 318,295 319,294 319,294 319,294 320,293 320,293 320,293 323,290 323,290 323,286.529 330,284.498 330,282 330,282 331,280 331,280 331,280 332,279 332,279 332,279 332,278 332,278 332,278 333,277 333,277 333,275.661 338.122,269 340,269 340,269 341,268 341,268 341,262.8 345.875,261.75 348,257.5 351.722,250.055 352,248.002 352,240 352,240 348.5,239 348.5,239 342.664,241.918 336.55,252.399 334,257.5 333.262,258.976 324.585,263.957 322.5,265 322.5,265 319,269 319,269 319,275.448 306.18,287 300,287 300,287 297,291.5 297,291.5 297,291.5 299,296 299,296  Z"/>

<path  fill="#FAAA40" stroke-width="0" stroke="#FAAA40" d = " M157 285 L158,285 C158,278.931 147.32,274.14 146,271.5 142.509,264.517 132,254.255 132,246 132,246 131,245 131,245 131,245 130,246 130,246 130,258.705 142.563,265.626 147,274.5 148.387,277.274 153.238,285 157,285  Z"/>

<path  fill="#D4FF00" stroke-width="0" stroke="#D4FF00" d = " M160 245 C160,247.835 166.213,247.856 168.5,249 172.79,251.145 190.538,259.481 195.5,257 199.373,255.064 182.978,252.239 182.5,252 175.053,248.276 169.087,245 160,245  Z"/>

<path  fill="#022CFF" stroke-width="0" stroke="#022CFF" d = " M162 293 L166,293 C166,290.415 160.11,286 158,286 158,286 157,286 157,286 157,291.964 147.041,280.77 145.5,280 140.894,277.697 130.727,268.953 128,263.5 127.244,261.988 126.284,256 124,256 121.832,256 124.776,258.862 122.5,260 121.205,260.647 119,259.343 119,258 119,258 116,256 116,256 112.952,256 117.642,260.785 118,261.5 119.549,264.598 118.412,269.324 120,272.5 121.998,276.496 129,273.03 129,279 130.473,279 130,280.952 130,282 131.01,282 134.675,287 142,287 142,285.255 149,285.281 149,288 150.424,288 154,288.362 154,290 156.277,290 162,291.387 162,293  Z"/>

<path  fill="#9953FF" stroke-width="0" stroke="#9953FF" d = " M226 283 L235.5,283 L241,286 C241,279.601 242,272.936 242,268 242,266.749 237.573,266.464 236.5,267 233.701,268.4 222,270.513 222,275 222,277.747 226,279.56 226,283  Z"/>

<path  fill="#9953FF" stroke-width="0" stroke="#9953FF" d = " M261 282 C256.395,282 252.584,284 249.5,284 L245,289 C245,281.649 245,275.518 245,268 247.415,268 266,272.337 266,275 262.699,275 261,279.182 261,282  Z"/>

<path  fill="#022CFF" stroke-width="0" stroke="#022CFF" d = " M241 286 C241,289.917 245,295.317 245,289 245,281.649 245,275.518 245,268 245,268 242,268 242,268 242,272.936 241,279.601 241,286  Z"/>

<path  fill="#FAAA40" stroke-width="0" stroke="#FAAA40" d = " M341 268 L340,269 C340,269 341,268 341,268  Z"/>

<path  fill="#0000FF" stroke-width="0" stroke="#0000FF" d = " M300 282 C300,282.671 297.338,287 300,287 306.18,287 319,275.448 319,269 316.424,269 307,273.855 307,276 307,276 304,279 304,279 304,279 301,280 301,280 301,280 300,282 300,282  Z"/>

<path  fill="#FAAA40" stroke-width="0" stroke="#FAAA40" d = " M340 269 C338.122,269 333,275.661 333,277 336.225,277 340,271.904 340,269  Z"/>

<path  fill="#0000FF" stroke-width="0" stroke="#0000FF" d = " M184 288 L188,291 C194.613,291 186,284.058 186,283 184.423,283 184,281.238 184,280 181.243,280 179.919,276 177,276 177,276 175,274 175,274 175,274 170,272 170,272 170,275.016 174,278.525 174,281 174,281 177,283 177,283 177,283 179,285 179,285 179,285 183,287 183,287 183,287 184,288 184,288  Z"/>

<path  fill="#EEBA00" stroke-width="0" stroke="#EEBA00" d = " M226 283 C226,284.617 221.417,287 220,287 220,285.188 217,282.18 217,280 217,277.491 219.491,275 222,275 222,277.747 226,279.56 226,283  Z"/>

<path  fill="#EEBA00" stroke-width="0" stroke="#EEBA00" d = " M261 282 C263.165,282 263.546,285 267,285 267,282.921 270,281.813 270,279 270,276.119 268.708,275 266,275 262.699,275 261,279.182 261,282  Z"/>

<path  fill="#FAAA40" stroke-width="0" stroke="#FAAA40" d = " M333 277 L332,278 C332,278 333,277 333,277  Z"/>

<path  fill="#9953FF" stroke-width="0" stroke="#9953FF" d = " M299 296 C299,298.376 293.794,318 291,318 291,306.063 276.805,303.111 272,293.5 272,293.5 267,285 267,285 267,282.921 270,281.813 270,279 279.613,279 289.715,280 300,280 300,280 300,282 300,282 300,282.671 297.338,287 300,287 300,287 297,291.5 297,291.5 297,291.5 299,296 299,296  Z"/>

<path  fill="#9953FF" stroke-width="0" stroke="#9953FF" d = " M182 300 C182,302.655 192.247,320 195,320 195,305.873 212.359,304.782 216,297.5 217.145,295.21 216.76,292.979 218,290.5 218,290.5 220,287 220,287 220,285.188 217,282.18 217,280 210.012,280 212.629,278.936 206.5,282 206.5,282 199.5,280 199.5,280 199.5,280 186,280 186,280 186,280 186,283 186,283 186,284.058 194.613,291 188,291 188,294.966 186.411,300 182,300  Z"/>

<path  fill-rule="evenodd" fill="#E278A1" stroke-width="0" stroke="#E278A1" d = " M272 305 L271,306.5 C271,311.868 280.837,305 272,305  M210 305 L209,309.5 C211.757,315.013 221.391,305 210,305  M242 334 C243.773,334 243,343.259 243,345 240.901,345 239.486,346.507 236.5,348 234.472,349.014 231.888,347 230.5,347 229.501,347 228.119,348.81 226.5,348 223.044,346.272 218.885,345.692 215.5,344 213.842,343.171 212.736,339.618 211.5,339 211.5,339 206.5,338 206.5,338 202.858,336.179 195,323.803 195,320 195,305.873 212.359,304.782 216,297.5 217.145,295.21 216.76,292.979 218,290.5 218,290.5 220,287 220,287 221.417,287 226,284.617 226,283 226,283 235.5,283 235.5,283 235.5,283 241,286 241,286 241,289.917 245,295.317 245,289 245,289 249.5,284 249.5,284 252.584,284 256.395,282 261,282 263.165,282 263.546,285 267,285 267,285 272,293.5 272,293.5 276.805,303.111 291,306.063 291,318 291,333.339 278.462,342.019 266.5,348 259.357,351.571 246,347.293 246,340 246,340 246,308 246,308 246,306.855 246.579,304 245,304 245,298.957 242,298.957 242,304 240.265,304 241,310.51 241,312 241,317.078 241,321.472 241,327 241,328.989 242,335.84 242,334  Z"/>

<path  fill="#022CFF" stroke-width="0" stroke="#022CFF" d = " M246 340 C243.473,340 246.826,345 243,345 243,343.259 243.773,334 242,334 242,334 242,304 242,304 242,298.957 245,298.957 245,304 245,305.145 244.421,308 246,308 246,308 246,340 246,340  Z"/>

<path  fill="#15C0FF" stroke-width="0" stroke="#15C0FF" d = " M210 305 L209,309.5 C211.757,315.013 221.391,305 210,305  Z"/>

<path  fill="#15C0FF" stroke-width="0" stroke="#15C0FF" d = " M272 305 L271,306.5 C271,311.868 280.837,305 272,305  Z"/>

<path  fill-rule="evenodd" fill="#FA8072" stroke-width="0" stroke="#FA8072" d = " M337 347 C337,351.238 343.072,347 337,347  M349 340 C352.675,340 360.166,342.333 363.5,344 364.658,344.579 367,343.659 367,346 367,348.867 371.012,350.477 370,352.5 370,352.5 362.5,356 362.5,356 362.5,356 357.5,359 357.5,359 357.5,359 356.5,361 356.5,361 354.111,361 349.424,359.538 346.5,361 345.043,361.729 342.448,364.974 340.5,364 337.655,362.577 334.148,363.324 331.5,362 330.547,361.524 331.586,357.957 329.5,359 326.46,360.52 329.742,370.621 318.5,365 318.5,365 312.5,365 312.5,365 310.683,364.091 304.906,361.312 304,359.5 304,359.5 301.5,354 301.5,354 297.375,351.938 296.128,359.756 294,355.5 292.356,352.212 294.485,340.508 297.5,339 297.5,339 302.5,339 302.5,339 302.5,339 303,336.5 303,336.5 303,336.5 307.5,334 307.5,334 308.942,332.558 317.004,323.252 318.5,324 318.5,324 322.5,329 322.5,329 322.5,329 327.5,329 327.5,329 328.668,329.584 335.668,333.836 336,334.5 336,334.5 337.5,343 337.5,343 339.405,343.953 340.217,341.642 341.5,341 343.12,340.19 349,345.814 349,340  Z"/>

<path  fill="#FA8072" stroke-width="0" stroke="#FA8072" d = " M131 344 C129.322,344 123,345.403 123,348 123,348.465 112.8,351.1 117,359.5 120.028,365.556 124.064,357.782 128.5,360 134.7,363.1 149.613,364.444 156.5,361 160.492,359.004 153.61,349.72 153,348.5 152.552,347.605 151.72,344.11 153.5,345 153.5,345 155.5,347 155.5,347 156.462,347.481 160.863,344.226 162,346.5 162.729,347.957 159.767,353.034 161,355.5 163.203,359.906 165.413,355.956 167.5,357 167.5,357 168,361.5 168,361.5 168.291,362.081 177.051,366 177.5,366 177.5,366 182.5,361 182.5,361 184.33,360.085 187.851,359.797 189,357.5 189,357.5 189.5,354 189.5,354 190.362,353.569 195.025,352.549 194,350.5 194,350.5 191,348.5 191,348.5 191,347.191 196.854,349.207 195,345.5 192.665,340.829 190.391,341.946 186.5,340 186.5,340 184.5,336 184.5,336 171.701,329.6 180.698,328 164,328 164,333.377 158.075,334.212 154.5,336 154.5,336 153.5,339 153.5,339 153.5,339 149.5,339 149.5,339 148.421,339.539 148.937,344 146.5,344 145.415,344 144.303,342 142.5,342 141.021,342 131,346.559 131,344  Z"/>

</g>
</svg>
