<svg xmlns="http://www.w3.org/2000/svg" xmlns:xlink="http://www.w3.org/1999/xlink" height="512" width="512">
<g>
<rect width="512" height="512" fill="#000000"  stroke-width="0" /> 
<path  fill="#FA8072" stroke-width="0" stroke="#FA8072" d = " M160 347 L157,348.5 C154.547,350.953 153.368,352.765 152,355.5 150.552,358.396 154.55,378.4 152,383.5 151.648,384.203 141.815,386.343 140.5,387 137.482,388.509 132.768,397.134 136.5,399 L140.5,396 C141.003,395.749 146.692,396 147.5,396 L154.5,403 L166.5,401 C171.973,398.264 172.391,386.283 170,381.5 169.174,379.847 170.405,377.69 171,376.5 L170,369.5 C173.322,362.855 170.987,347 160,347  Z"/>

<path  fill="#FA8072" stroke-width="0" stroke="#FA8072" d = " M327 349 C327,354.166 328.949,381.602 327,385.5 325.65,388.2 317.468,385.436 320,390.5 L327,397.5 L327.5,403 L328.5,397 C331.071,395.714 337.986,407.527 340,403.5 L340,396.5 C340.946,394.608 344.687,398.906 346.5,398 350.766,395.867 353.239,391.978 351,387.5 347.694,380.888 343.429,387.464 340.5,386 L340,380.5 C338.089,376.678 337.595,373.69 336,370.5 L336,354.5 C334.888,352.275 329.462,349 327,349  Z"/>

</g>
</svg>
