<svg xmlns="http://www.w3.org/2000/svg" xmlns:xlink="http://www.w3.org/1999/xlink" height="512" width="512">
<g>
<rect width="512" height="512" fill="#000000"  stroke-width="0" /> 
<path  fill="#03C12D" stroke-width="0" stroke="#03C12D" d = " M72 223 C60.4967,223 42.3088,232 34,232 34,229.591 28.2755,216.949 30,213.5 34.2337,205.033 33.6527,197.195 38,188.5 38,188.5 36,184.5 36,184.5 36,184.5 39,179.5 39,179.5 41.5855,174.329 42.2236,164.053 45,158.5 45,158.5 49,154.5 49,154.5 49,149.109 55.8216,140.857 59,134.5 59,134.5 64,130.5 64,130.5 64,130.5 68.5,123 68.5,123 75.7742,119.363 81.5951,114.452 88.5,111 88.5,111 89.5,106 89.5,106 93.4903,104.005 96.5904,104.955 100.5,103 100.5,103 104.5,98 104.5,98 110.424,95.0378 116.428,92.0358 122.5,89 132.873,83.8137 146.115,84.1927 156.5,79 156.5,79 162.5,80 162.5,80 163.688,79.406 163.39,76.0548 165.5,75 170.283,72.6085 177.783,75.3586 182.5,73 188.167,70.1664 206.21,66.3551 213.5,70 222.454,74.4768 227.043,83.2714 236.5,88 236.5,88 240.5,84 240.5,84 244.167,82.1666 247.693,79.9037 251.5,78 263.919,71.7904 270.939,70 287,70 287,70 295.5,70 295.5,70 300.871,72.6853 313.642,72 318.5,72 318.5,72 321.5,74 321.5,74 321.5,74 332.5,75 332.5,75 332.5,75 335.5,78 335.5,78 336.682,78.5912 339.532,77.016 341.5,78 350.483,82.4915 361.613,82.5566 370.5,87 377.849,90.6745 384.163,96.3313 391.5,100 391.5,100 395.5,105 395.5,105 395.5,105 400.5,105 400.5,105 405.035,107.268 409.045,110.773 413.5,113 418.659,115.579 426.846,127.193 429,131.5 429,131.5 432,133.5 432,133.5 434.426,138.352 436.61,143.72 439,148.5 439,148.5 444,154.5 444,154.5 446.872,160.245 445.508,169.516 448,174.5 454.245,186.99 454,205.956 454,221 447.735,221 429.057,219.222 425.5,221 425.5,221 417.5,220 417.5,220 417.5,220 415,222 415,222 415,206.013 410.647,185.794 404,172.5 401.975,168.449 397.986,165.472 396,161.5 392.379,154.258 380.897,137.199 374.5,134 368.941,131.221 362.457,129.478 357.5,127 357.5,127 353.5,123 353.5,123 344.581,118.541 333.481,118.491 324.5,114 320.336,111.918 312.449,113.475 307.5,111 302.824,108.662 295.194,111.347 290.5,109 284.065,105.782 273.973,100.764 267.5,104 264.349,105.575 267.161,109.178 266,111.5 261.2,121.1 266,127.488 266,136 262.076,136 256,143.329 256,147 246.261,147 244.154,130 239.5,130 237.27,130 238.471,133.558 238,134.5 236.374,137.751 232.945,146 228,146 225.747,146 223.889,142.194 221.5,141 220.094,140.297 214,142.261 214,140 214,136.117 220.535,132.571 218,127.5 214.538,120.576 212.953,106.727 205.5,103 200.371,100.436 195.224,110.138 191.5,112 187.398,114.051 181.725,112.887 177.5,115 177.5,115 171.5,114 171.5,114 164.733,117.384 154.966,121 147,121 145.576,121 142,121.362 142,123 142,123 138,125 138,125 138,125 136,126 136,126 136,126 118,136 118,136 118,136 117,137 117,137 117,137 112,140.5 112,140.5 108.844,146.813 98.8021,151.896 95,159.5 93.8429,161.814 93.2731,163.954 92,166.5 92,166.5 88,169.5 88,169.5 80.3253,184.849 72,204.731 72,223  Z"/>

<path  fill="#FF6E00" stroke-width="0" stroke="#FF6E00" d = " M403 279 L400,281 C400,277.312 404.448,270.604 406,267.5 407.949,263.602 405.089,257.322 407,253.5 409.102,249.296 412.93,220.36 410,214.5 409.093,212.686 398,178.28 398,178 398,178 397,176 397,176 397,171.42 389.653,164.805 388,161.5 376.82,139.139 353.733,135.617 334.5,126 330.761,124.131 307,125.722 307,130 307,130 295,135 295,135 295,135 294,136 294,136 291.872,136 288.392,137.054 286.5,138 280.564,140.968 271.141,136 266,136 266,127.488 261.2,121.1 266,111.5 267.161,109.178 264.349,105.575 267.5,104 273.973,100.764 284.065,105.782 290.5,109 295.194,111.347 302.824,108.662 307.5,111 312.449,113.475 320.336,111.918 324.5,114 333.481,118.491 344.581,118.541 353.5,123 353.5,123 357.5,127 357.5,127 362.457,129.478 368.941,131.221 374.5,134 380.897,137.199 392.379,154.258 396,161.5 397.986,165.472 401.975,168.449 404,172.5 410.647,185.794 415,206.013 415,222 415,234.201 412,245.327 412,257 409.285,257 409,258.657 409,261 409,267.526 403,274.084 403,279  Z"/>

<path  fill="#FF6E00" stroke-width="0" stroke="#FF6E00" d = " M81 280 L89.5,289 C90.8353,289.668 99,292.58 99,291 99,290.495 87.7028,285.906 86,282.5 86,282.5 79,270.5 79,270.5 77.6774,267.855 78.3572,264.214 77,261.5 77,261.5 77,249.5 77,249.5 71.7914,239.083 77.0642,217.372 81,209.5 81,209.5 81,204.5 81,204.5 83.0616,200.377 88,194.75 88,190 88,190 89,189 89,189 89,184.883 93,182.099 93,179 93,176.901 93.9059,170 97,170 97,170 98,168 98,168 98,168 99,166 99,166 99,164.046 108.009,154.491 110,152.5 121.683,140.817 135.912,136.794 149.5,130 151.505,128.997 154.388,130.056 156.5,129 159.601,127.449 179,132.479 179,135 179.616,135 193.681,142.09 195.5,143 195.5,143 199,142 199,142 199,142 211.5,142 211.5,142 211.5,142 214,140 214,140 214,136.117 220.535,132.571 218,127.5 214.538,120.576 212.953,106.727 205.5,103 200.371,100.436 195.224,110.138 191.5,112 187.398,114.051 181.725,112.887 177.5,115 177.5,115 171.5,114 171.5,114 164.733,117.384 154.966,121 147,121 147,122.638 143.424,123 142,123 142,125.109 139.465,125 138,125 138,125 136,126 136,126 136,126 118,136 118,136 118,136 117,137 117,137 117,137 112,140.5 112,140.5 108.844,146.813 98.8021,151.896 95,159.5 93.8429,161.814 93.2731,163.954 92,166.5 92,166.5 88,169.5 88,169.5 80.3253,184.849 72,204.731 72,223 72,227.732 72.4247,260.349 74,263.5 74,263.5 76,268 76,268 77.5266,268 81,278.263 81,280  Z"/>

<path  fill="#0E47E2" stroke-width="0" stroke="#0E47E2" d = " M344 299 C340.338,299 328,298.84 328,303 328,303 314,307 314,307 311.2,307 308.359,304.782 310,301.5 310.895,299.711 314,299.113 314,296 314,296 315,295 315,295 315,295 317,294 317,294 317,294 318,293 318,293 319.014,293 335,268.39 335,265 335,265 336,263 336,263 337.562,263 341,256.347 341,255 342.514,255 346,249.463 346,248 351.854,248 353.225,238.051 355,234.5 355,234.5 360,226.5 360,226.5 365.278,215.943 355.304,199.108 351,190.5 346.188,180.877 345.712,189.106 343.5,188 335.52,184.01 329.555,176.027 321.5,172 318.86,170.68 312.508,169.515 311,166.5 308.484,161.468 309,158.145 309,153 309,153 316,146.5 316,146.5 316,146.5 311,140.5 311,140.5 309.663,137.825 310.85,130 307,130 307,125.722 330.761,124.131 334.5,126 353.733,135.617 376.82,139.139 388,161.5 389.653,164.805 397,171.42 397,176 397,176 398,178 398,178 398,178.28 409.093,212.686 410,214.5 412.93,220.36 409.102,249.296 407,253.5 405.089,257.322 407.949,263.602 406,267.5 404.448,270.604 400,277.312 400,281 397.997,281 397,280.707 397,283 397,283 392.5,286 392.5,286 390.24,287.13 371.464,293 369,293 369,293 366.5,289 366.5,289 362.214,286.857 344,295.418 344,299  Z"/>

<path  fill="#0E47E2" stroke-width="0" stroke="#0E47E2" d = " M150 299 L151,299 C151,295.44 156.609,304.717 157,305.5 158.646,308.792 170.025,311.737 173.5,310 173.5,310 174,304.5 174,304.5 173.378,303.257 163.624,291 165,291 165,291 163,288 163,288 163,288 161,286 161,286 161,286 157,280 157,280 157,280 154,277 154,277 154,277 154,276 154,276 152.423,276 152,274.238 152,273 152,273 152,272 152,272 152,272 150,270 150,270 150,270 149,267 149,267 149,267 147,263 147,263 147,263 146,261 146,261 143.711,261 140,254.822 140,253 136.965,253 129.18,239.86 128,237.5 128,237.5 124,232.5 124,232.5 124,230.543 121.852,220.797 123,218.5 128.872,206.755 134.273,187 150,187 150,187 151,186 151,186 151,186 152,185 152,185 152,185 153,184 153,184 153,184 154,183 154,183 154,183 155,182 155,182 157.777,182 159.162,178.169 161.5,177 170.367,172.566 178,167.78 178,156 173.081,156 172.037,145.427 174,141.5 175.264,138.973 179,139.103 179,135 179,132.479 159.601,127.449 156.5,129 154.388,130.056 151.505,128.997 149.5,130 135.912,136.794 121.683,140.817 110,152.5 108.009,154.491 99,164.046 99,166 99,166 98,168 98,168 98,168 97,170 97,170 97,171.628 94.8435,179 93,179 93,182.099 89,184.883 89,189 89,189 88,190 88,190 88,194.75 83.0616,200.377 81,204.5 81,204.5 81,209.5 81,209.5 77.0642,217.372 71.7914,239.083 77,249.5 77,249.5 77,261.5 77,261.5 78.3572,264.214 77.6774,267.855 79,270.5 79,270.5 86,282.5 86,282.5 87.7028,285.906 99,290.495 99,291 102.289,291 107.559,294.53 110.5,296 110.5,296 129,299 129,299 129,294.385 150,293.96 150,299  Z"/>

<path  fill="#022CFF" stroke-width="0" stroke="#022CFF" d = " M247 174 C247,175.94 249,177.108 249,177.5 249,180.524 240,180.378 240,177 243.402,177 243.255,169.01 242,166.5 239.967,162.435 232.41,152 227,152 227,152 227,150 227,150 228.579,150 228,147.145 228,146 232.945,146 236.374,137.751 238,134.5 238.471,133.558 237.27,130 239.5,130 244.154,130 246.261,147 256,147 256,152.611 265.072,150 269,150 269,150.896 271,153.026 271,151 271,151 273,151 273,151 273,152.735 279.51,152 281,152 281,153.513 275.983,154 274.5,154 274.5,154 256.5,155 256.5,155 252.564,156.968 247.96,162.579 246,166.5 245.396,167.708 245.735,174 247,174  Z"/>

<path  fill="#DDD951" stroke-width="0" stroke="#DDD951" d = " M284 152 C292.956,152 299.964,153 309,153 309,153 316,146.5 316,146.5 316,146.5 311,140.5 311,140.5 309.663,137.825 310.85,130 307,130 307,130 295,135 295,135 295,135 294,136 294,136 291.872,136 288.392,137.054 286.5,138 280.564,140.968 271.141,136 266,136 262.076,136 256,143.329 256,147 256,152.611 265.072,150 269,150 269,150 271,151 271,151 271,151 273,151 273,151 273.922,151 281,149.433 281,152 281,152 284,152 284,152  Z"/>

<path  fill="#DDD951" stroke-width="0" stroke="#DDD951" d = " M205 156 C205,154.317 193.968,157 192,157 186.697,157 182.633,156 178,156 173.081,156 172.037,145.427 174,141.5 175.264,138.973 179,139.103 179,135 179.616,135 193.681,142.09 195.5,143 195.5,143 199,142 199,142 199,142 211.5,142 211.5,142 211.5,142 214,140 214,140 214,142.261 220.094,140.297 221.5,141 223.889,142.194 225.747,146 228,146 228,147.145 228.579,150 227,150 225.253,150 225,150.253 225,152 225,152 211.5,153 211.5,153 211.5,153 205,156 205,156  Z"/>

<path  fill="#5600DD" stroke-width="0" stroke="#5600DD" d = " M237 175 L240,177 C243.402,177 243.255,169.01 242,166.5 239.967,162.435 232.41,152 227,152 227,152 225,152 225,152 225,152 211.5,153 211.5,153 211.5,153 205,156 205,156 201.213,156 197.387,159 193,159 193,160.722 187.765,161.368 186.5,162 180.917,164.791 181,168.832 181,173 181,173 188,172 188,172 192.464,172 195.775,168.862 199.5,167 201.779,165.861 226.75,164.125 228.5,165 230.978,166.239 237,173.001 237,175  Z"/>

<path  fill="#5600DD" stroke-width="0" stroke="#5600DD" d = " M252 173 C250.51,173 249.413,174 247,174 245.735,174 245.396,167.708 246,166.5 247.96,162.579 252.564,156.968 256.5,155 256.5,155 274.5,154 274.5,154 275.983,154 281,153.513 281,152 281,152 284,152 284,152 284,156.624 296.183,154.841 298.5,156 304.301,158.9 309,164.641 309,172 306.745,172 306.255,172 304,172 301.618,172 294.492,166.496 291.5,165 287.777,163.139 265.45,162.025 261.5,164 261.5,164 255.5,170 255.5,170 253.642,170.929 252,169.917 252,173  Z"/>

<path  fill="#022CFF" stroke-width="0" stroke="#022CFF" d = " M346 246 L346,248 C351.854,248 353.225,238.051 355,234.5 355,234.5 360,226.5 360,226.5 365.278,215.943 355.304,199.108 351,190.5 346.188,180.877 345.712,189.106 343.5,188 335.52,184.01 329.555,176.027 321.5,172 318.86,170.68 312.508,169.515 311,166.5 308.484,161.468 309,158.145 309,153 299.964,153 292.956,152 284,152 284,156.624 296.183,154.841 298.5,156 304.301,158.9 309,164.641 309,172 309,172 309,175 309,175 310.763,175 316,179.012 316,181 326.362,181 337.424,183.349 342,192.5 342,192.5 345,195 345,195 345,199.801 354,202.257 354,208 354,208 355,209 355,209 355,212.872 355,219.128 355,223 355,224.238 354.577,226 353,226 353,230.405 350,235.456 350,240 350,240 349,241 349,241 349,241 348,241 348,241 348,242.041 347.014,246 346,246  Z"/>

<path  fill="#022CFF" stroke-width="0" stroke="#022CFF" d = " M137 243 C137,246.989 140,249.011 140,253 136.965,253 129.18,239.86 128,237.5 128,237.5 124,232.5 124,232.5 124,230.543 121.852,220.797 123,218.5 128.872,206.755 134.273,187 150,187 150,187 151,186 151,186 151,186 152,185 152,185 152,185 153,184 153,184 153,184 154,183 154,183 154,183 155,182 155,182 157.777,182 159.162,178.169 161.5,177 170.367,172.566 178,167.78 178,156 182.633,156 186.697,157 192,157 192,157 193,159 193,159 193,160.722 187.765,161.368 186.5,162 180.917,164.791 181,168.832 181,173 181,177.481 165,181.544 165,184 165,184 164,184 164,184 164,182.601 162,182.601 162,184 149.091,184 136.229,201.041 131,211.5 130.394,212.713 130.577,221.345 130,222.5 128.144,226.213 134.351,243 137,243  Z"/>

<path  fill="#E1970F" stroke-width="0" stroke="#E1970F" d = " M255 189 C255,191.925 263,189.852 263,193.5 L259,197 C271.016,197 272.463,208.982 272.5,209 277.483,211.492 295.67,204.16 297,201.5 297,201.5 298,190.5 298,190.5 298,190.5 301,187.5 301,187.5 301,186.316 299.087,184.325 300,182.5 300.972,180.556 304,174.894 304,173 304,173 304,172 304,172 301.618,172 294.492,166.496 291.5,165 287.777,163.139 265.45,162.025 261.5,164 261.5,164 255.5,170 255.5,170 253.642,170.929 252,169.917 252,173 256.127,173 248,181.07 248,182 248,185.795 254,185.903 254,188 254,188 255,189 255,189  Z"/>

<path  fill="#E1970F" stroke-width="0" stroke="#E1970F" d = " M227 204 L228,204 C228,202.592 229.197,199 231,199 231,196.285 229.083,197.667 228,195.5 225.734,190.968 233.072,192.714 234.5,192 236.119,191.191 235.971,190 238,190 238,184.103 240,191.11 240,182 238.197,182 237,176.219 237,175 237,173.001 230.978,166.239 228.5,165 226.75,164.125 201.779,165.861 199.5,167 195.775,168.862 192.464,172 188,172 188,172 187,174 187,174 187,174 190,178.5 190,178.5 197.26,185.76 189.795,190.09 194,198.5 195.125,200.75 192.608,205.554 195.5,207 198.07,208.285 218.345,211.578 219.5,211 222.32,209.59 223.333,204 227,204  Z"/>

<path  fill="#FF571E" stroke-width="0" stroke="#FF571E" d = " M323 219 L318.5,222 C313.723,224.389 299.926,222.287 292.5,226 290.314,227.093 280.544,224.022 278.5,223 276.268,221.884 261.573,223 259,223 259,218.738 258,214.582 258,211 259.649,211 265.857,207 261,207 261,201.993 257,201.905 257,198 257,198 257,197 257,197 257,197 259,197 259,197 271.016,197 272.463,208.982 272.5,209 277.483,211.492 295.67,204.16 297,201.5 297,201.5 298,190.5 298,190.5 298,190.5 301,187.5 301,187.5 301,186.316 299.087,184.325 300,182.5 300.972,180.556 304,174.894 304,173 304,173 309,175 309,175 310.763,175 316,179.012 316,181 316,183.871 320,183.556 320,187 320,193.435 320.084,196.668 323,202.5 323.385,203.269 323,217.425 323,219  Z"/>

<path  fill="#FF571E" stroke-width="0" stroke="#FF571E" d = " M226 222 L221.5,225 L219.5,224 C210.68,224 204.615,225.057 196.5,221 193.359,219.43 189.732,221.884 187.5,223 183.663,224.919 176.622,219.439 173.5,221 170.953,222.273 168.003,224 165,224 165,221.313 164.207,203.086 165,201.5 165,201.5 168,199.5 168,199.5 172.264,190.973 171,192.474 171,184 171,182.615 185.748,174 187,174 187,174 190,178.5 190,178.5 197.26,185.76 189.795,190.09 194,198.5 195.125,200.75 192.608,205.554 195.5,207 198.07,208.285 218.345,211.578 219.5,211 222.32,209.59 223.333,204 227,204 227,205.137 224.909,208 227,208 227,208.922 225.319,211 228,211 228,211 226,216 226,216 226,218.72 226,219.553 226,222  Z"/>

<path  fill="#FF571E" stroke-width="0" stroke="#FF571E" d = " M254 189 C254,190.604 250.032,189 248.5,189 245.017,189 240.844,190 238,190 238,184.103 240,191.11 240,182 240,182 248,182 248,182 248,185.795 254,185.903 254,188 254,188 254,189 254,189  Z"/>

<path  fill="#006400" stroke-width="0" stroke="#006400" d = " M141 244 C141,243.382 144.883,241.691 145.5,242 150.611,244.555 149.168,253 156,253 157.284,253 161,247.492 161,246.5 161,246.5 156,241.5 156,241.5 156,233.659 165,231.525 165,224 165,221.313 164.207,203.086 165,201.5 165,201.5 168,199.5 168,199.5 172.264,190.973 171,192.474 171,184 168.848,184 166.929,184 165,184 165,184 164,184 164,184 164,184 162,184 162,184 149.091,184 136.229,201.041 131,211.5 130.394,212.713 130.577,221.345 130,222.5 128.144,226.213 134.351,243 137,243 137,243 141,244 141,244  Z"/>

<path  fill="#006400" stroke-width="0" stroke="#006400" d = " M344 243 C341.302,243 340.593,241 339.5,241 L334,245 C327.741,245 333.187,234.875 332,232.5 328.853,226.205 323,225.338 323,219 323,217.425 323.385,203.269 323,202.5 320.084,196.668 320,193.435 320,187 322.259,187 325.151,183.325 328.5,185 331.979,186.739 341.999,195 345,195 345,199.801 354,202.257 354,208 354,208 355,209 355,209 355,212.872 355,219.128 355,223 353.423,223 353,224.762 353,226 353,230.405 350,235.456 350,240 350,240 349,241 349,241 349,241 348,241 348,241 348,241 344,243 344,243  Z"/>

<path  fill="#21E6FF" stroke-width="0" stroke="#21E6FF" d = " M231 199 L232,199 C234.384,199 236.881,196 240,196 240,193.274 245.294,196 246,196 246,196 248,196 248,196 248.53,196 253,194.921 253,197 253,197 254,197 254,197 254,197 257,197 257,197 257,197 259,197 259,197 259,197 263,193.5 263,193.5 263,189.852 255,191.925 255,189 255,189 254,189 254,189 254,190.604 250.032,189 248.5,189 245.017,189 240.844,190 238,190 235.971,190 236.119,191.191 234.5,192 233.072,192.714 225.734,190.968 228,195.5 229.083,197.667 231,196.285 231,199  Z"/>

<path  fill-rule="evenodd" fill="#07FF59" stroke-width="0" stroke="#07FF59" d = " M243 209 L242,217.5 L242,224 L242,227.5 C242,228.621 243.129,235.242 245,231.5 246.626,228.248 245.347,209 243,209  M226 222 C230.314,222 228.99,227.48 230,229.5 L233,237.5 L237,241.5 L237,256.5 C238.237,258.973 246.889,264.722 249,260.5 251.708,255.084 248.969,244.561 252,238.5 252.926,236.648 259,224.025 259,223 259,218.738 258,214.582 258,211 258,208.693 256.77,207 261,207 261,201.993 257,201.905 257,198 255.952,198 254,198.473 254,197 254,197 253,197 253,197 251.765,197 248,197.643 248,196 248,196 246,196 246,196 246,197.587 240,197.587 240,196 236.881,196 234.384,199 232,199 232,200.562 229.811,204 228,204 228,204 227,204 227,204 227,205.137 224.909,208 227,208 229.597,208 233.149,211 229,211 229,212.766 228.393,216 226,216 226,218.72 226,219.553 226,222  Z"/>

<path  fill="#FF571E" stroke-width="0" stroke="#FF571E" d = " M232 199 C232,200.562 229.811,204 228,204 228,202.592 229.197,199 231,199 231,199 232,199 232,199  Z"/>

<path  fill="#FF00DA" stroke-width="0" stroke="#FF00DA" d = " M261 207 C265.857,207 259.649,211 258,211 258,208.693 256.77,207 261,207  Z"/>

<path  fill="#FF00DA" stroke-width="0" stroke="#FF00DA" d = " M228 211 L229,211 C233.149,211 229.597,208 227,208 227,208.922 225.319,211 228,211  Z"/>

<path  fill="#022CFF" stroke-width="0" stroke="#022CFF" d = " M243 209 L242,217.5 L242,224 L242,227.5 C242,228.621 243.129,235.242 245,231.5 246.626,228.248 245.347,209 243,209  Z"/>

<path  fill-rule="evenodd" fill="#9953FF" stroke-width="0" stroke="#9953FF" d = " M230 273 L229,277.5 C230.067,279.634 237.049,273 230,273  M255 272 L254,275.5 C256.333,280.166 261.624,272 255,272  M291 254 C291,255.282 284.487,258.507 283.5,259 L278.5,265 L275.5,265 C274.203,265.649 272.83,270.165 274.5,271 277.302,272.401 310.547,254 291,254  M284 293 C281.891,293 282,295.535 282,297 275.278,297 268.045,295.272 261.5,292 261.5,292 256.5,287 256.5,287 256.5,287 248.5,287 248.5,287 248.5,287 246.5,284 246.5,284 241.141,281.321 226.044,293.728 221.5,296 216.374,298.563 211.53,293 208,293 208,278.81 194.293,273.897 182.5,268 182.5,268 178.5,264 178.5,264 178.5,264 173.5,264 173.5,264 167.845,261.173 163.844,258 157,258 156.365,258 156,253.893 156,253 157.284,253 161,247.492 161,246.5 161,246.5 156,241.5 156,241.5 156,233.659 165,231.525 165,224 168.003,224 170.953,222.273 173.5,221 176.622,219.439 183.663,224.919 187.5,223 189.732,221.884 193.359,219.43 196.5,221 204.615,225.057 210.68,224 219.5,224 219.5,224 221.5,225 221.5,225 221.5,225 226,222 226,222 230.314,222 228.99,227.48 230,229.5 230,229.5 233,237.5 233,237.5 233,237.5 237,241.5 237,241.5 237,241.5 237,256.5 237,256.5 238.237,258.973 246.889,264.722 249,260.5 251.708,255.084 248.969,244.561 252,238.5 252.926,236.648 259,224.025 259,223 261.573,223 276.268,221.884 278.5,223 280.544,224.022 290.314,227.093 292.5,226 299.926,222.287 313.723,224.389 318.5,222 318.5,222 323,219 323,219 323,225.338 328.853,226.205 332,232.5 333.187,234.875 327.741,245 334,245 334,246.245 331.642,255 330,255 330,250.56 315.136,258.682 312.5,260 310.796,260.852 287.029,281.441 287,281.5 287,281.5 287,286.5 287,286.5 287,286.5 284,293 284,293  M203 259 L204,260 C204,260 208.5,263 208.5,263 208.5,263 211.5,263 211.5,263 215.07,264.785 208.399,274.449 205.5,273 204.945,272.723 203.054,268.554 202,267.5 200.586,266.086 189.224,258.947 189,258.5 187.943,256.385 190.478,252 192.5,252 192.5,252 203,259 203,259  Z"/>

<path  fill="#DD6479" stroke-width="0" stroke="#DD6479" d = " M412 261 L412.5,264 C414.556,265.028 416,262 417.5,262 L419.5,264 L440,264 C440,261.921 436.441,260.617 437,259.5 437,259.5 445,253.5 445,253.5 445,253.5 449,239.5 449,239.5 451.398,234.703 451.583,228.334 453,225.5 453.501,224.498 455.609,221 454,221 447.735,221 429.057,219.222 425.5,221 425.5,221 417.5,220 417.5,220 417.5,220 415,222 415,222 415,234.201 412,245.327 412,257 412,257 412,261 412,261  Z"/>

<path  fill="#DD6479" stroke-width="0" stroke="#DD6479" d = " M44 268 C47.7006,268 55.4478,271.026 59.5,269 L67.5,266 C71.7709,268.135 71.738,268 76,268 76,268 74,263.5 74,263.5 72.4247,260.349 72,227.732 72,223 60.4967,223 42.3088,232 34,232 34,233.602 30.942,234.384 32,236.5 35.3975,243.295 36.6403,250.781 40,257.5 41.1704,259.841 49,262.189 49,263.5 49,264.008 44,265.078 44,268  Z"/>

<path  fill="#FF3427" stroke-width="0" stroke="#FF3427" d = " M314 296 L308.5,300 C301.474,303.513 295.323,304.412 288.5,301 286.864,300.182 282,302.181 282,297 282,295.535 281.891,293 284,293 287.186,293 291.057,298.221 295.5,296 303.98,291.76 326,283.475 326,272 326,272 327,271 327,271 327,268.16 329,265.324 329,262 329,260.594 328.286,255 330,255 331.642,255 334,246.245 334,245 334,245 339.5,241 339.5,241 340.593,241 341.302,243 344,243 346.293,243 346,243.997 346,246 346,246 346,248 346,248 344.443,248 340.84,249.82 340,251.5 339.528,252.445 339.844,255 341,255 341,256.347 337.562,263 336,263 336,263 335,265 335,265 335,268.39 319.014,293 318,293 318,293 317,294 317,294 317,294 315,295 315,295 315,295 314,296 314,296  Z"/>

<path  fill="#FF3427" stroke-width="0" stroke="#FF3427" d = " M194 296 C196.522,296 198.909,296 202,296 202,305.409 194.76,303 188.5,303 185.981,303 183.345,304.423 180.5,303 180.5,303 175.5,299 175.5,299 171.313,296.906 169.814,291 165,291 165,291 163,288 163,288 163,288 161,286 161,286 161,286 157,280 157,280 157,280 154,277 154,277 154,277 154,276 154,276 154,274.762 153.577,273 152,273 152,273 152,272 152,272 152,272 150,270 150,270 150,270 149,267 149,267 149,265.535 149.109,263 147,263 147,263 146,261 146,261 146,261 144,257.5 144,257.5 142.972,255.444 146,254 146,252.5 146,252.5 142,250.5 142,250.5 142,250.5 141,244 141,244 141,243.382 144.883,241.691 145.5,242 150.611,244.555 149.168,253 156,253 156,253.893 156.365,258 157,258 157,271.065 162.154,277.654 171,286.5 172.976,288.476 172.404,290.452 175.5,292 177.666,293.083 184.108,292.804 184.5,293 184.5,293 193,297 193,297 193,297 194,296 194,296  Z"/>

<path  fill="#D4FF00" stroke-width="0" stroke="#D4FF00" d = " M203 259 L192.5,252 C190.478,252 187.943,256.385 189,258.5 189.224,258.947 200.586,266.086 202,267.5 203.054,268.554 204.945,272.723 205.5,273 208.399,274.449 215.07,264.785 211.5,263 L208.5,263 L204,260 C204,260 203,259 203,259  Z"/>

<path  fill="#FFBA00" stroke-width="0" stroke="#FFBA00" d = " M326 272 C326,283.475 303.98,291.76 295.5,296 291.057,298.221 287.186,293 284,293 284,293 287,286.5 287,286.5 287,286.5 287,281.5 287,281.5 287.029,281.441 310.796,260.852 312.5,260 315.136,258.682 330,250.56 330,255 328.286,255 329,260.594 329,262 329,265.324 327,268.16 327,271 327,271 326,272 326,272  Z"/>

<path  fill="#D4FF00" stroke-width="0" stroke="#D4FF00" d = " M291 254 C291,255.282 284.487,258.507 283.5,259 L278.5,265 L275.5,265 C274.203,265.649 272.83,270.165 274.5,271 277.302,272.401 310.547,254 291,254  Z"/>

<path  fill="#FFBA00" stroke-width="0" stroke="#FFBA00" d = " M194 296 C196.522,296 198.909,296 202,296 202,296 208,293 208,293 208,278.81 194.293,273.897 182.5,268 182.5,268 178.5,264 178.5,264 178.5,264 173.5,264 173.5,264 167.845,261.173 163.844,258 157,258 157,271.065 162.154,277.654 171,286.5 172.976,288.476 172.404,290.452 175.5,292 177.666,293.083 184.108,292.804 184.5,293 184.5,293 193,297 193,297 193,297 194,296 194,296  Z"/>

<path  fill="#2E8B57" stroke-width="0" stroke="#2E8B57" d = " M403 279 C405.613,279 407.36,279.93 409.5,281 411.604,282.052 415.287,279.393 416.5,280 423.078,283.289 430.021,283 438,283 443.988,283 446.984,264 440,264 440,264 419.5,264 419.5,264 419.5,264 417.5,262 417.5,262 416,262 414.556,265.028 412.5,264 412.5,264 412,261 412,261 412,261 409,261 409,261 409,267.526 403,274.084 403,279  Z"/>

<path  fill="#2E8B57" stroke-width="0" stroke="#2E8B57" d = " M81 280 L66.5,286 C64.2748,286 61.4244,282.538 58.5,284 55.9615,285.269 49.7721,286 47,286 40.3814,286 42,278.373 42,273.5 42,271.968 42.1726,268 44,268 47.7006,268 55.4478,271.026 59.5,269 59.5,269 67.5,266 67.5,266 71.7709,268.135 71.738,268 76,268 77.5266,268 81,278.263 81,280  Z"/>

<path  fill="#F44345" stroke-width="0" stroke="#F44345" d = " M255 272 L254,275.5 C256.333,280.166 261.624,272 255,272  Z"/>

<path  fill="#F44345" stroke-width="0" stroke="#F44345" d = " M230 273 L229,277.5 C230.067,279.634 237.049,273 230,273  Z"/>

<path  fill="#03C12D" stroke-width="0" stroke="#03C12D" d = " M344 299 C340.338,299 328,298.84 328,303 328,306.406 337.353,308.926 339.5,310 345.215,312.857 362.667,333.416 371.5,329 373.139,328.181 382.177,323.339 383.5,324 386.941,325.72 394.122,335.689 401.5,332 406.273,329.614 411.679,328.411 416.5,326 416.5,326 421.5,321 421.5,321 434.617,314.441 438,296.901 438,283 430.021,283 423.078,283.289 416.5,280 415.287,279.393 411.604,282.052 409.5,281 407.36,279.93 405.613,279 403,279 403,279 400,281 400,281 400,282.577 398.238,283 397,283 397,283 392.5,286 392.5,286 390.24,287.13 371.464,293 369,293 369,295.872 348.033,299 344,299  Z"/>

<path  fill="#03C12D" stroke-width="0" stroke="#03C12D" d = " M151 321 C151,322.8 147.983,321.517 147,322.5 L145.5,325 L138.5,325 C135.65,326.425 135.782,329 132,329 128.877,329 108.92,332.29 107.5,333 103.303,335.099 93.6329,328.934 87.5,332 80.6103,335.445 65.0177,334.535 61,326.5 58.8424,322.185 57.1111,317.722 55,313.5 55,313.5 55,306.5 55,306.5 51.1769,298.854 47,295.412 47,286 49.7721,286 55.9615,285.269 58.5,284 61.4244,282.538 64.2748,286 66.5,286 66.5,286 81,280 81,280 81,280 89.5,289 89.5,289 90.8353,289.668 99,292.58 99,291 102.289,291 107.559,294.53 110.5,296 110.5,296 129,299 129,299 129,304.15 142.009,300 144,300 145.321,300 150,300.684 150,299 150,299 151,299 151,299 151,303.053 155.299,303.099 157,306.5 158.292,309.083 152,316.471 152,320 152,320 151,321 151,321  Z"/>

<path  fill="#FF6E00" stroke-width="0" stroke="#FF6E00" d = " M400 281 C397.997,281 397,280.707 397,283 398.238,283 400,282.577 400,281  Z"/>

<path  fill="#DDD951" stroke-width="0" stroke="#DDD951" d = " M369 293 L366.5,289 C362.214,286.857 344,295.418 344,299 348.033,299 369,295.872 369,293  Z"/>

<path  fill="#DDD951" stroke-width="0" stroke="#DDD951" d = " M129 299 C129,304.15 142.009,300 144,300 145.321,300 150,300.684 150,299 150,293.96 129,294.385 129,299  Z"/>

<path  fill="#E278A1" stroke-width="0" stroke="#E278A1" d = " M231 296 C231,299.118 216.277,308.054 221,317.5 225.587,326.674 230.587,319.543 235.5,322 L237.5,325 L244.5,324 C245.824,324.662 248.706,325.897 250.5,325 L252.5,322 C255.241,320.629 258.216,323.642 261.5,322 267.928,318.786 273.515,303.507 264.5,299 L249,297 L231,296  Z"/>

<path  fill="#FA8072" stroke-width="0" stroke="#FA8072" d = " M324 309 L315,316.5 C313.92,318.661 315,318.812 315,320.5 L308.5,327 L305,325.5 L307,333.5 L303,336.5 C297.725,347.049 315.405,348.311 316,349.5 317.163,351.826 318.72,361.39 325.5,358 L326.5,354 L329.5,356 L335.5,355 L347.5,346 C349.759,344.87 352.136,349.227 354,345.5 L350,341.5 L354,337.5 C354.867,335.767 352.628,333.756 352,332.5 L352,326.5 L345.5,323 L344.5,320 L338.5,319 C336.118,317.809 337.827,316.155 337,314.5 L333.5,314 C330.467,312.483 334.235,309 324,309  Z"/>

<path  fill="#FA8072" stroke-width="0" stroke="#FA8072" d = " M151 321 C151,322.8 147.983,321.517 147,322.5 L145.5,325 L138.5,325 C135.65,326.425 135.782,329 132,329 132,332.567 129,337.7 129,340.5 129,343.859 142.553,345.026 144.5,346 144.5,346 148.5,352 148.5,352 148.5,352 151.5,351 151.5,351 151.5,351 153.5,353 153.5,353 156.076,354.288 171.544,355.478 174.5,354 177.388,352.556 180.453,346.595 182,343.5 182,343.5 181,337.5 181,337.5 182.017,335.465 181.404,333.692 182,332.5 182.368,331.764 193.491,327.496 184.5,323 184.5,323 180.5,326 180.5,326 177.601,324.551 173.479,314.989 169.5,313 160.562,308.531 153.849,320 152,320 152,320 151,321 151,321  Z"/>

</g>
</svg>
