<svg xmlns="http://www.w3.org/2000/svg" xmlns:xlink="http://www.w3.org/1999/xlink" height="512" width="512">
<g>
<rect width="512" height="512" fill="#000000"  stroke-width="0" /> 
<path  fill-rule="evenodd" fill="#86FF5A" stroke-width="0" stroke="#86FF5A" d = " M241 311 C241,312.662 235.172,312.844 237,316.5 240.19,322.879 257.456,315.478 250.5,312 L246.5,312 C244.559,311.029 243.378,311 241,311  M225 280 C225,281.587 211.255,281.123 209.5,282 206.231,283.635 203.274,283.113 199.5,285 194.359,287.571 184.606,302.711 188,309.5 190.659,314.818 189.331,324.162 190,325.5 193.541,332.581 199.774,349.137 207.5,353 213.838,356.169 226.752,364.374 235.5,360 236.882,359.309 242.321,351.911 244.5,353 L252.5,361 C254.347,361.923 270.933,359.783 272.5,359 276.02,357.24 294.606,339.289 296,336.5 299.866,328.768 304.198,304.897 300,296.5 L296,293.5 C288.66,278.821 258.506,278.997 246.5,285 243.878,286.311 241.662,282.581 240.5,282 235.949,279.725 230.114,280 225,280  Z"/>

<path  fill="#EB57FF" stroke-width="0" stroke="#EB57FF" d = " M241 311 C241,312.662 235.172,312.844 237,316.5 240.19,322.879 257.456,315.478 250.5,312 L246.5,312 C244.559,311.029 243.378,311 241,311  Z"/>

</g>
</svg>
