<svg xmlns="http://www.w3.org/2000/svg" xmlns:xlink="http://www.w3.org/1999/xlink" height="512" width="512">
<g>
<rect width="512" height="512" fill="#000000"  stroke-width="0" /> 
<path  fill-rule="evenodd" fill="#86FF5A" stroke-width="0" stroke="#86FF5A" d = " M240 379 L239,382.5 C239.499,383.497 242.129,383.242 241,385.5 L239,386.5 C239,387.563 244.37,390.565 245.5,390 254.767,385.367 246.59,379 240,379  M241 339 C241,339.913 235.986,341 235,341 228.777,341 221.719,344.39 216.5,347 L214.5,351 C205.463,355.519 205.278,362.944 201,371.5 L198,372.5 C197.133,374.234 197.92,376.661 197,378.5 L197,388 L198,406.5 L202,409.5 C207.061,419.621 214.349,424.425 223.5,429 L229.5,429 C231.849,430.175 236.916,430.292 239.5,429 L244.5,423 C244.719,422.89 252.864,428.182 254.5,429 262.097,432.799 282.735,421.031 286,414.5 294.432,397.637 296.168,383.836 288,367.5 285.671,362.842 284.042,351.271 277.5,348 273.654,346.077 268.25,346.875 264.5,345 L260.5,341 L241,339  Z"/>

<path  fill="#EB57FF" stroke-width="0" stroke="#EB57FF" d = " M240 379 L239,382.5 C239.499,383.497 242.129,383.242 241,385.5 L239,386.5 C239,387.563 244.37,390.565 245.5,390 254.767,385.367 246.59,379 240,379  Z"/>

</g>
</svg>
