<svg xmlns="http://www.w3.org/2000/svg" xmlns:xlink="http://www.w3.org/1999/xlink" height="512" width="512">
<g>
<rect width="512" height="512" fill="#000000"  stroke-width="0" /> 
<path  fill="#03C12D" stroke-width="0" stroke="#03C12D" d = " M453 223 C453,218.857 457.534,211.568 455,206.5 449.495,195.49 452.51,180.521 447,169.5 L446,160.5 C440.209,148.918 432.141,137.783 426,125.5 425.075,123.649 422.303,122.901 420.5,122 L416.5,116 C410.76,113.13 406.273,107.886 400.5,105 L396.5,105 C394.244,103.872 392.797,98.6484 389.5,97 379.886,92.1928 370.168,87.8339 360.5,83 352.838,79.1688 342.654,79.077 334.5,75 332.26,73.8801 322.746,74.6228 321.5,74 316.874,71.6871 302.125,72.3125 301.5,72 296.184,69.342 271.743,67.8786 265.5,71 261.661,72.9193 257.308,74.0961 253.5,76 250.861,77.3196 242.83,85.3348 239.5,87 234.753,89.3737 232.567,83.5333 229.5,82 216.819,75.6593 217.864,69 200,69 L195.5,68 C187.44,72.0302 176.501,69.9993 168.5,74 165.847,75.3263 164.789,77.8557 162.5,79 161.713,79.3935 144.62,79.9399 142.5,81 127.736,88.3822 112.334,94.5832 97.5,102 92.7105,104.395 90.9244,110.288 87.5,112 L84.5,112 L78.5,118 L74.5,118 C67.5565,121.472 60.9494,132.601 58,138.5 56.9818,140.536 53.0341,143.432 52,145.5 49.409,150.682 46.676,156.148 44,161.5 40.5948,168.31 40.4462,176.608 37,183.5 L38,188.5 C31.9995,200.501 32,212.419 32,226 35.6088,226 38.5374,225.481 41.5,224 44.6013,222.449 66.9416,223 70,223 70,217.507 72.5772,208.346 75,203.5 75,203.5 76,196.5 76,196.5 79.8604,188.779 82.1762,180.148 86,172.5 88.0736,168.353 93.2722,164.956 95,161.5 101.998,147.504 117.784,135.358 132.5,128 145.101,121.7 159.904,120.298 172.5,114 172.5,114 176.5,115 176.5,115 182.81,111.845 188.088,113.206 194.5,110 194.5,110 204.5,102 204.5,102 207.954,103.727 215.059,127.382 213,131.5 213,131.5 211,136 211,136 211,136 213,137 213,137 222.709,137 222.721,145 226,145 226,145 227,145 227,145 234.261,145 234.815,135.87 237,131.5 237,131.5 239.5,130 239.5,130 247.203,133.851 247.938,147 258,147 258,141.475 263.971,133 270,133 270,127.267 263.621,105.939 271.5,102 274.687,100.407 280.217,105.359 283.5,107 292.124,111.312 303.882,108.691 312.5,113 312.5,113 328.5,115 328.5,115 335.18,118.34 342.926,118.713 349.5,122 356.765,125.632 363.248,130.374 370.5,134 370.5,134 375.5,134 375.5,134 378.326,135.413 380.348,142.424 383.5,144 390.281,147.391 393.69,155.88 397,162.5 397,162.5 404,171.5 404,171.5 410.603,184.706 416,203.381 416,219 419.288,219 421.96,220.23 425.5,222 429.188,223.844 436.272,221 439.5,221 439.5,221 441.5,223 441.5,223 442.582,223.541 451.08,223 453,223  Z"/>

<path  fill="#FF6E00" stroke-width="0" stroke="#FF6E00" d = " M99 291 L99,292 C93.9112,292 79,283.412 79,277 79,277 74,266 74,266 74,251.615 70,236.203 70,223 70,217.507 72.5772,208.346 75,203.5 75,203.5 76,196.5 76,196.5 79.8604,188.779 82.1762,180.148 86,172.5 88.0736,168.353 93.2722,164.956 95,161.5 101.998,147.504 117.784,135.358 132.5,128 145.101,121.7 159.904,120.298 172.5,114 172.5,114 176.5,115 176.5,115 182.81,111.845 188.088,113.206 194.5,110 194.5,110 204.5,102 204.5,102 207.954,103.727 215.059,127.382 213,131.5 213,131.5 211,136 211,136 209.762,136 208,136.423 208,138 205.056,138 190.992,142.246 188.5,141 183.416,138.458 175.882,133 170,133 170,133 168,132 168,132 165.252,132 162.196,131 160,131 142.859,131 131.576,138.962 117.5,146 117.5,146 103,159.5 103,159.5 102.296,160.908 101.417,165 99,165 97.4226,165 97,166.762 97,168 97,168 97,170 97,170 97,170 96,171 96,171 96,171 95,172 95,172 95,172 94,174 94,174 94,177.023 84.8974,192.705 83,196.5 76.4206,209.659 75,224.747 75,239.5 75,239.5 75,255.5 75,255.5 76.9172,259.334 75.1608,264.822 77,268.5 77,268.5 86,283.5 86,283.5 87.5492,286.598 99,288.499 99,291  Z"/>

<path  fill="#FF6E00" stroke-width="0" stroke="#FF6E00" d = " M406 275 C403.661,275 403.515,281 400,281 400,277.547 404.827,271.846 406,269.5 406,269.5 407,259.5 407,259.5 407,259.5 409,258.5 409,258.5 410.496,255.509 412.774,219.047 411,215.5 407.395,208.291 408.608,198.716 405,191.5 402.897,187.295 398,180.776 398,176 398,176 397,174 397,174 394.284,174 392.883,166.266 392,164.5 392,164.5 377,147.5 377,147.5 367.855,138.355 341.651,127 328,127 323.573,127 320.348,128 316,128 316,128 315,129 315,129 307.474,129 302.606,135 295,135 295,135 292,135 292,135 288.622,135 281.307,137.904 277.5,136 277.5,136 270,133 270,133 270,127.267 263.621,105.939 271.5,102 274.687,100.407 280.217,105.359 283.5,107 292.124,111.312 303.882,108.691 312.5,113 312.5,113 328.5,115 328.5,115 335.18,118.34 342.926,118.713 349.5,122 356.765,125.632 363.248,130.374 370.5,134 370.5,134 375.5,134 375.5,134 378.326,135.413 380.348,142.424 383.5,144 390.281,147.391 393.69,155.88 397,162.5 397,162.5 404,171.5 404,171.5 410.603,184.706 416,203.381 416,219 416,222.948 414.817,250.866 414,252.5 412.737,255.027 412,256.892 412,260 408.726,260 406,272.646 406,275  Z"/>

<path  fill="#DDD951" stroke-width="0" stroke="#DDD951" d = " M309 153 L310,153 C310,153 313.5,150 313.5,150 315.885,148.807 324.771,147.958 326,145.5 328.002,141.496 321.865,137.769 324,133.5 325.467,130.566 328,130.679 328,127 323.573,127 320.348,128 316,128 316,128 315,129 315,129 307.474,129 302.606,135 295,135 295,136.486 292,136.486 292,135 288.622,135 281.307,137.904 277.5,136 277.5,136 270,133 270,133 263.971,133 258,141.475 258,147 258,147 259,147 259,147 263.024,147 284,146.02 284,150 286.124,150 288.436,151 290,151 290,148.784 293,150.652 293,152 293,152 294,152 294,152 294,150.272 297,152.187 297,153 297,153 298,153 298,153 298,151.814 299,151.814 299,153 299,153 302,153 302,153 302,153 305,153 305,153 305,153 309,153 309,153  Z"/>

<path  fill="#0E47E2" stroke-width="0" stroke="#0E47E2" d = " M344 301 L341.5,303 C341.085,303.207 332,301.949 332,304 332,304 323.5,303 323.5,303 323.5,303 315.5,307 315.5,307 315.5,307 312,304.5 312,304.5 310.047,300.593 316,297.259 316,294 319.558,294 325,287.314 325,284 325,284 326,283 326,283 326,281.393 339,259.871 339,258 339,258 340,257 340,257 340,257 340,255 340,255 340,255 342,253 342,253 343.57,253 348.952,248 346,248 346,248 348,240 348,240 348,240 349,239 349,239 350.661,239 352,234.146 352,233 352,233 353,231 353,231 353,231 354,229 354,229 354,229 354,226 354,226 354,226 355,225 355,225 355,221.549 357,217.978 357,214 359.118,214 357.821,210 356,210 356,210 356,209 356,209 360.206,209 358.475,205 354,205 354,205 351,201 351,201 351,199.576 347.02,194 346,194 346,190.715 339.749,188.249 337.5,186 333.926,182.426 314.789,164 311,164 311,164 311,163 311,163 311,160.611 310,157.013 310,154 310,154 310,153 310,153 310,153 313.5,150 313.5,150 315.885,148.807 324.771,147.958 326,145.5 328.002,141.496 321.865,137.769 324,133.5 325.467,130.566 328,130.679 328,127 341.651,127 367.855,138.355 377,147.5 377,147.5 392,164.5 392,164.5 392.883,166.266 394.284,174 397,174 397,174 398,176 398,176 398,180.776 402.897,187.295 405,191.5 408.608,198.716 407.395,208.291 411,215.5 412.774,219.047 410.496,255.509 409,258.5 409,258.5 407,259.5 407,259.5 407,259.5 406,269.5 406,269.5 404.827,271.846 400,277.547 400,281 397.997,281 397,280.707 397,283 397,283 396,284 396,284 389.499,284 385.307,290 379,290 379,286.67 373.561,284.469 370.5,286 363.236,289.632 344,289.337 344,301  Z"/>

<path  fill="#DDD951" stroke-width="0" stroke="#DDD951" d = " M174 155 C176.978,155 180.49,156 184,156 184,156 199,154 199,154 208.072,154 217.156,148 226,148 226,148 226,145 226,145 222.721,145 222.709,137 213,137 213,138.643 209.235,138 208,138 205.056,138 190.992,142.246 188.5,141 183.416,138.458 175.882,133 170,133 168.337,133 168,138.321 168,132 165.252,132 162.196,131 160,131 160,131 159.5,150 159.5,150 159.5,150 169.5,151 169.5,151 171.958,152.229 171.273,155 174,155  Z"/>

<path  fill="#022CFF" stroke-width="0" stroke="#022CFF" d = " M227 148 L237,154.5 L243,160.5 C243.471,161.442 242.27,165 244.5,165 L246,161.5 C247.659,158.182 251.418,155.663 253,152.5 253.746,151.009 259,152.649 259,150 259,150 259,147 259,147 259,147 258,147 258,147 247.938,147 247.203,133.851 239.5,130 239.5,130 237,131.5 237,131.5 234.815,135.87 234.261,145 227,145 227,145 227,148 227,148  Z"/>

<path  fill="#0E47E2" stroke-width="0" stroke="#0E47E2" d = " M166 309 L168,309 C168,307.777 174.364,307.228 173,304.5 169.941,298.382 162.468,296.437 160,291.5 158.719,288.937 159,286.55 159,284.5 159,284.5 154,279.5 154,279.5 151.58,274.66 149.432,269.364 147,264.5 144.704,259.909 136,253.305 136,249 133.271,249 133.888,240.275 133,238.5 130.199,232.898 120.253,223.995 124,216.5 124,216.5 129,206 129,206 129,206 130,205 130,205 130,199.062 136.904,197.798 140.5,196 140.666,195.917 147.577,187.461 150.5,186 152.938,184.781 160,180.761 160,178 160,175.285 161.657,175 164,175 164,175 165,174 165,174 165,174 167,173 167,173 172.691,173 175,162.504 175,158 173.527,158 174,156.048 174,155 171.273,155 171.958,152.229 169.5,151 169.5,151 159.5,150 159.5,150 159.5,150 160,131 160,131 142.859,131 131.576,138.962 117.5,146 117.5,146 103,159.5 103,159.5 102.296,160.908 101.417,165 99,165 99,166.238 98.5774,168 97,168 97,168 97,170 97,170 97,170 96,171 96,171 96,171 95,172 95,172 95,172 94,174 94,174 94,177.023 84.8974,192.705 83,196.5 76.4206,209.659 75,224.747 75,239.5 75,239.5 75,255.5 75,255.5 76.9172,259.334 75.1608,264.822 77,268.5 77,268.5 86,283.5 86,283.5 87.5492,286.598 99,288.499 99,291 99,291 100,292 100,292 100,292 102,292 102,292 102,292 104,292 104,292 104,289.66 108.533,288.016 110.5,289 116.815,292.157 138,292.688 138,302 138,303.665 142.222,303 143.5,303 146.551,303 158,303.604 158,307 159.899,307 166,306.512 166,309  Z"/>

<path  fill="#0E47E2" stroke-width="0" stroke="#0E47E2" d = " M168 132 L170,133 C168.337,133 168,138.321 168,132  Z"/>

<path  fill="#5600DD" stroke-width="0" stroke="#5600DD" d = " M177 176 L181,176 C181,176 183,175 183,175 183,173.423 184.762,173 186,173 186,170.1 193.621,167.94 195.5,167 199.291,165.105 221.69,158.095 227.5,161 235.761,165.131 236.958,175 243,175 243,171.69 245.996,174 247,174 247,174 250,174 250,174 250,156.4 293.535,157.57 298,166.5 298,166.5 307,175 307,175 307,175 312,176 312,176 312,176 313,175 313,175 313,170.77 311,167.446 311,164 311,164 311,163 311,163 311,163 308,159.5 308,159.5 305.947,157.447 299,155.472 299,153 299,153 298,153 298,153 298,153 297,153 297,153 295.952,153 294,153.473 294,152 294,152 293,152 293,152 291.952,152 290,152.473 290,151 288.436,151 286.124,150 284,150 275.841,150 266.929,150 259,150 259,152.649 253.746,151.009 253,152.5 251.418,155.663 247.659,158.182 246,161.5 246,161.5 244.5,165 244.5,165 242.27,165 243.471,161.442 243,160.5 243,160.5 237,154.5 237,154.5 237,154.5 227,148 227,148 227,148 226,148 226,148 217.156,148 208.072,154 199,154 199,157.171 186.796,157.852 184.5,159 182.253,160.124 174.151,170.803 175,172.5 175,172.5 177,176 177,176  Z"/>

<path  fill="#022CFF" stroke-width="0" stroke="#022CFF" d = " M310 154 C310,157.013 311,160.611 311,163 311,163 308,159.5 308,159.5 305.947,157.447 299,155.472 299,153 299,153 302,153 302,153 302,154.486 305,154.486 305,153 305,153 309,153 309,153 309,153 310,154 310,154  Z"/>

<path  fill="#022CFF" stroke-width="0" stroke="#022CFF" d = " M135 240 C135,243.506 141.764,249 136,249 133.271,249 133.888,240.275 133,238.5 130.199,232.898 120.253,223.995 124,216.5 124,216.5 129,206 129,206 129,206 130,205 130,205 130,199.062 136.904,197.798 140.5,196 140.666,195.917 147.577,187.461 150.5,186 152.938,184.781 160,180.761 160,178 161.429,178 164,176.712 164,175 164,175 165,174 165,174 165,174 167,173 167,173 172.691,173 175,162.504 175,158 177.008,158 184,158.656 184,156 184,156 199,154 199,154 199,157.171 186.796,157.852 184.5,159 182.253,160.124 174.151,170.803 175,172.5 175,172.5 177,176 177,176 177,183.827 148,186.094 148,194 143.961,194 143.127,199.373 141,201.5 131.28,211.22 127.615,218.731 134,231.5 134,231.5 133,236.5 133,236.5 133,236.5 135,240 135,240  Z"/>

<path  fill="#E1970F" stroke-width="0" stroke="#E1970F" d = " M251 193 C252.858,193 265.005,204.509 266,206.5 L265,209 C265.6,209 272.915,215.707 275.5,217 277.23,217.865 285.791,214.855 287.5,214 292.369,211.565 298.604,211.448 303.5,209 304.817,208.341 309.78,200.059 309,198.5 309,198.5 307,196.5 307,196.5 307,196.5 311,193.5 311,193.5 311,193.5 308,188.5 308,188.5 308,188.5 309,185.5 309,185.5 309,185.5 307,182.5 307,182.5 307,182.5 309,180.5 309,180.5 307.958,178.416 307,177.592 307,175 307,175 298,166.5 298,166.5 293.535,157.57 250,156.4 250,174 250,175.577 248.238,176 247,176 245.283,176 243,178.754 243,175 236.958,175 235.761,165.131 227.5,161 221.69,158.095 199.291,165.105 195.5,167 193.621,167.94 186,170.1 186,173 186,173 185,175 185,175 185,184.877 182.691,206.096 192.5,211 194.725,212.112 200.856,220.822 204.5,219 208.534,216.983 211.885,218.307 216.5,216 216.5,216 222,209 222,209 222,203.291 238,193.898 238,193 234.518,193 232.29,194 229,194 228.062,194 223.979,194.541 225,192.5 225.663,191.173 233.842,188.829 235.5,188 239.262,186.119 254.214,187.357 257.5,189 258.486,189.493 264.074,190.352 263,192.5 262.023,194.454 260.275,191.388 259.5,191 258.658,190.579 252.37,192 251,192 251,192 251,193 251,193  Z"/>

<path  fill="#022CFF" stroke-width="0" stroke="#022CFF" d = " M339 191 C341.538,191 342.953,194 346,194 346,190.715 339.749,188.249 337.5,186 333.926,182.426 314.789,164 311,164 311,167.446 313,170.77 313,175 314.186,175 314.186,176 313,176 313,176 316,182 316,182 317.04,182 330.999,186.25 332.5,187 332.5,187 336,190 336,190 336,190 339,191 339,191  Z"/>

<path  fill="#022CFF" stroke-width="0" stroke="#022CFF" d = " M243 175 C243,178.754 245.283,176 247,176 247,176 247,174 247,174 245.996,174 243,171.69 243,175  Z"/>

<path  fill="#FF571E" stroke-width="0" stroke="#FF571E" d = " M164 217 L167.5,220 C172.016,222.258 176.986,222.743 181.5,225 184.185,226.343 187.083,222.291 188.5,223 192.016,224.758 219.332,221 225,221 225,218.697 229.963,209 222,209 222,209 216.5,216 216.5,216 211.885,218.307 208.534,216.983 204.5,219 200.856,220.822 194.725,212.112 192.5,211 182.691,206.096 185,184.877 185,175 185,175 183,175 183,175 183,175 181,176 181,176 181,182.769 165,181.963 165,190 167.457,190 171.876,190.748 170,194.5 168.649,197.202 163.9,200.7 162,204.5 160.165,208.17 166,209.092 166,211.5 166,212.731 164,214.806 164,217  Z"/>

<path  fill="#FF571E" stroke-width="0" stroke="#FF571E" d = " M324 212 L317.5,218 C313.973,219.764 299.647,227 296.5,227 293.556,227 289.003,223 286.5,223 281.38,223 279.51,221.505 274.5,219 272.063,217.781 268.326,220 266.5,220 264.905,220 263.245,218 261,218 261,216.802 264.565,209 265,209 265.6,209 272.915,215.707 275.5,217 277.23,217.865 285.791,214.855 287.5,214 292.369,211.565 298.604,211.448 303.5,209 304.817,208.341 309.78,200.059 309,198.5 309,198.5 307,196.5 307,196.5 307,196.5 311,193.5 311,193.5 311,193.5 308,188.5 308,188.5 308,188.5 309,185.5 309,185.5 309,185.5 307,182.5 307,182.5 307,182.5 309,180.5 309,180.5 307.958,178.416 307,177.592 307,175 307,175 312,176 312,176 312,176 313,176 313,176 313,176 316,182 316,182 316,185.875 326,186.13 326,192 326,194.533 323,193.57 323,194.5 323,194.5 326,197.5 326,197.5 326,199.499 327,202.501 327,204.5 327,206.828 324,208.764 324,212  Z"/>

<path  fill="#21E6FF" stroke-width="0" stroke="#21E6FF" d = " M251 192 C252.37,192 258.658,190.579 259.5,191 260.275,191.388 262.023,194.454 263,192.5 264.074,190.352 258.486,189.493 257.5,189 254.214,187.357 239.262,186.119 235.5,188 233.842,188.829 225.663,191.173 225,192.5 223.979,194.541 228.062,194 229,194 232.29,194 234.518,193 238,193 238,193 250,192 250,192 250,192 251,192 251,192  Z"/>

<path  fill="#006400" stroke-width="0" stroke="#006400" d = " M153 250 L155,250 C155,250 158,245.5 158,245.5 158,241.596 153.927,237.645 156,233.5 158.531,228.437 164,223.866 164,217 164,214.806 166,212.731 166,211.5 166,209.092 160.165,208.17 162,204.5 163.9,200.7 168.649,197.202 170,194.5 171.876,190.748 167.457,190 165,190 165,190 152.5,191 152.5,191 152.5,191 148,194 148,194 143.961,194 143.127,199.373 141,201.5 131.28,211.22 127.615,218.731 134,231.5 134,231.5 133,236.5 133,236.5 133,236.5 135,240 135,240 135,240 140.5,244 140.5,244 141.545,244 142.361,242 144,242 148.337,242 151,246.647 151,250 151,250 153,250 153,250  Z"/>

<path  fill="#006400" stroke-width="0" stroke="#006400" d = " M345 242 C341.211,242 336.546,245 333,245 326.534,245 332,235.141 332,233.5 332,233.5 327,227.5 327,227.5 325.425,224.35 328.505,212 324,212 324,208.764 327,206.828 327,204.5 327,202.501 326,199.499 326,197.5 326,197.5 323,194.5 323,194.5 323,193.57 326,194.533 326,192 326,192 336,190 336,190 336,190 339,191 339,191 339,194.446 346.805,197.653 349.5,199 349.5,199 351,201 351,201 351,201 354,205 354,205 354,205 354,206 354,206 354,207.747 354.253,208 356,208 356,208 356,209 356,209 356,209 356,210 356,210 356,210 357,214 357,214 357,217.978 355,221.549 355,225 355,225 354,226 354,226 354,226 354,229 354,229 354,229 353,231 353,231 353,231 352,233 352,233 348.374,233 349,236.26 349,239 349,239 348,240 348,240 348,240 345,242 345,242  Z"/>

<path  fill-rule="evenodd" fill="#07FF59" stroke-width="0" stroke="#07FF59" d = " M243 209 L241,210.5 L242,215 L242,221 L242,224.5 C242,225.621 243.129,232.242 245,228.5 246.517,225.466 245.403,209 243,209  M261 218 L256,225.5 C252.898,231.703 252.114,239.273 249,245.5 246.699,250.102 251.947,255.776 245.5,259 242.974,260.263 238.893,255.285 238,253.5 L237,239.5 L231,231.5 L230,224.5 C228.97,222.44 225,223.635 225,221 225,218.697 229.963,209 222,209 222,203.291 238,193.898 238,193 238,193 250,192 250,192 250,192 251,193 251,193 252.858,193 265.005,204.509 266,206.5 266,206.5 265,209 265,209 264.565,209 261,216.802 261,218  Z"/>

<path  fill="#022CFF" stroke-width="0" stroke="#022CFF" d = " M356 208 L356,209 C360.206,209 358.475,205 354,205 354,205 354,206 354,206 355.747,206 356,206.253 356,208  Z"/>

<path  fill="#022CFF" stroke-width="0" stroke="#022CFF" d = " M243 209 L241,210.5 L242,215 L242,221 L242,224.5 C242,225.621 243.129,232.242 245,228.5 246.517,225.466 245.403,209 243,209  Z"/>

<path  fill-rule="evenodd" fill="#9953FF" stroke-width="0" stroke="#9953FF" d = " M255 279 L254,280.5 C254,284.31 262.697,279 255,279  M231 277 L229,280.5 C226.634,285.232 238.808,277 231,277  M289 254 L283,258.5 C280.903,260.597 280.722,264.389 277.5,266 L273.5,267 C272.021,267.739 271.725,272.113 273.5,273 281.349,276.925 307.226,254 289,254  M193 253 C193,254.575 188.199,253.898 190,257.5 L201.5,270 C203.668,271.084 214,275.223 214,268.5 214,265.299 207.964,265.732 206.5,265 201.149,262.324 199.324,253 193,253  M275 293 C270.825,293 268.34,296.42 263.5,294 257.524,291.012 249.401,281 242.5,281 L239.5,283 C237.461,284.019 234.615,283.942 232.5,285 L224.5,294 C219.58,296.46 217.147,295 212,295 212,282.739 195.526,269.513 186.5,265 183.924,263.712 180.199,264.35 177.5,263 173.975,261.238 161.395,255 158,255 158,253.647 155,252.842 155,250 155,250 158,245.5 158,245.5 158,241.596 153.927,237.645 156,233.5 158.531,228.437 164,223.866 164,217 164,217 167.5,220 167.5,220 172.016,222.258 176.986,222.743 181.5,225 184.185,226.343 187.083,222.291 188.5,223 192.016,224.758 219.332,221 225,221 225,223.635 228.97,222.44 230,224.5 230,224.5 231,231.5 231,231.5 231,231.5 237,239.5 237,239.5 237,239.5 238,253.5 238,253.5 238.893,255.285 242.974,260.263 245.5,259 251.947,255.776 246.699,250.102 249,245.5 252.114,239.273 252.898,231.703 256,225.5 256,225.5 261,218 261,218 263.245,218 264.905,220 266.5,220 268.326,220 272.063,217.781 274.5,219 279.51,221.505 281.38,223 286.5,223 289.003,223 293.556,227 296.5,227 299.647,227 313.973,219.764 317.5,218 317.5,218 324,212 324,212 328.505,212 325.425,224.35 327,227.5 327,227.5 332,233.5 332,233.5 332,235.141 326.534,245 333,245 333,247.142 332.223,255 329,255 329,253.749 324.573,253.464 323.5,254 323.5,254 308.5,261 308.5,261 300.749,264.876 278.019,280.462 274,288.5 274,288.5 275,293 275,293  Z"/>

<path  fill="#DD6479" stroke-width="0" stroke="#DD6479" d = " M412 260 C412,264.113 415.772,261 417.5,261 419.167,261 420.009,263.255 421.5,264 422.729,264.615 439.833,264 443,264 443,261.253 437.757,259.986 439,257.5 439,257.5 446,250.5 446,250.5 449.197,244.105 451.124,235.251 455,227.5 455,227.5 453,223 453,223 451.08,223 442.582,223.541 441.5,223 441.5,223 439.5,221 439.5,221 436.272,221 429.188,223.844 425.5,222 421.96,220.23 419.288,219 416,219 416,222.948 414.817,250.866 414,252.5 412.737,255.027 412,256.892 412,260  Z"/>

<path  fill="#DD6479" stroke-width="0" stroke="#DD6479" d = " M74 266 L71.5,268 L66.5,265 L65.5,267 L42,267 C42,264.534 48.0142,262.528 47,260.5 45.911,258.322 41.4767,259.453 40,256.5 36.4374,249.375 34.5698,241.64 31,234.5 29.7162,231.932 32,228.014 32,226 35.6088,226 38.5374,225.481 41.5,224 44.6013,222.449 66.9416,223 70,223 70,236.203 74,251.615 74,266  Z"/>

<path  fill="#022CFF" stroke-width="0" stroke="#022CFF" d = " M354 229 L353,231 C353,231 354,229 354,229  Z"/>

<path  fill="#FF3427" stroke-width="0" stroke="#FF3427" d = " M195 297 C198.915,297 205,292.634 205,299 205,304.79 183.291,304.896 179.5,303 179.5,303 173.5,298 173.5,298 168.669,295.584 154.467,277.433 152,272.5 150.412,269.324 151.549,264.598 150,261.5 150,261.5 146,258.5 146,258.5 144.497,255.493 148,253.334 148,251.5 148,251.5 144.5,251 144.5,251 144.5,251 142,247.5 142,247.5 140.73,244.959 144,243.791 144,242 148.337,242 151,246.647 151,250 151,251.399 153,251.399 153,250 153,250 155,250 155,250 155,252.842 158,253.647 158,255 158,262.715 158.277,285 169,285 169,287.461 172.378,287 174,287 174,287 175,289 175,289 172.001,289 176,292.999 176,290 176,290 180,291 180,291 180,291 182,293 182,293 182,293 183,294 183,294 184.137,294 187,296.091 187,294 187,294 194,296 194,296 194,296 195,297 195,297  Z"/>

<path  fill="#FF3427" stroke-width="0" stroke="#FF3427" d = " M316 294 L310.5,298 C305.381,300.56 299.617,301.442 294.5,304 291.742,305.379 271.775,295 283,295 283,295 291.5,297 291.5,297 296.385,294.557 302.693,295.403 307.5,293 322.856,285.322 329,269.76 329,255 332.223,255 333,247.142 333,245 336.546,245 341.211,242 345,242 345,244.409 344,247.181 344,249 344,249 339,250.5 339,250.5 338.496,251.508 338.78,255 340,255 340,255 340,257 340,257 340,257 339,258 339,258 339,259.871 326,281.393 326,283 326,283 325,284 325,284 325,284 316,294 316,294  Z"/>

<path  fill="#022CFF" stroke-width="0" stroke="#022CFF" d = " M344 249 L342,253 C343.57,253 348.952,248 346,248 346,248 344,249 344,249  Z"/>

<path  fill="#D4FF00" stroke-width="0" stroke="#D4FF00" d = " M193 253 C193,254.575 188.199,253.898 190,257.5 L201.5,270 C203.668,271.084 214,275.223 214,268.5 214,265.299 207.964,265.732 206.5,265 201.149,262.324 199.324,253 193,253  Z"/>

<path  fill="#D4FF00" stroke-width="0" stroke="#D4FF00" d = " M289 254 L283,258.5 C280.903,260.597 280.722,264.389 277.5,266 L273.5,267 C272.021,267.739 271.725,272.113 273.5,273 281.349,276.925 307.226,254 289,254  Z"/>

<path  fill="#FFBA00" stroke-width="0" stroke="#FFBA00" d = " M275 293 L278.5,295 C279.274,295.387 283,292.249 283,295 283,295 291.5,297 291.5,297 296.385,294.557 302.693,295.403 307.5,293 322.856,285.322 329,269.76 329,255 329,253.749 324.573,253.464 323.5,254 323.5,254 308.5,261 308.5,261 300.749,264.876 278.019,280.462 274,288.5 274,288.5 275,293 275,293  Z"/>

<path  fill="#FFBA00" stroke-width="0" stroke="#FFBA00" d = " M195 297 C198.915,297 205,292.634 205,299 209.931,299 212,300.259 212,295 212,282.739 195.526,269.513 186.5,265 183.924,263.712 180.199,264.35 177.5,263 173.975,261.238 161.395,255 158,255 158,262.715 158.277,285 169,285 170.622,285 174,284.539 174,287 174,287 175,289 175,289 175,289 176,290 176,290 176,290 180,291 180,291 181.747,291 182,291.253 182,293 182,293 183,294 183,294 183,290.582 187,292.62 187,294 187,294 194,296 194,296 194,296 195,297 195,297  Z"/>

<path  fill="#2E8B57" stroke-width="0" stroke="#2E8B57" d = " M406 275 C409.737,275 415.219,278.36 418.5,280 419.443,280.471 433.974,278 436,278 446.721,278 448.674,264 443,264 439.833,264 422.729,264.615 421.5,264 420.009,263.255 419.167,261 417.5,261 415.772,261 412,264.113 412,260 408.726,260 406,272.646 406,275  Z"/>

<path  fill="#2E8B57" stroke-width="0" stroke="#2E8B57" d = " M79 277 C75.7518,277 68.6063,282.447 65.5,284 64.5519,284.474 50.2687,282 48,282 48,282 44.5,283 44.5,283 41.7922,281.646 38.6628,272.174 40,269.5 40,269.5 42,267 42,267 42,267 65.5,267 65.5,267 65.5,267 66.5,265 66.5,265 66.5,265 71.5,268 71.5,268 71.5,268 74,266 74,266 74,266 79,277 79,277  Z"/>

<path  fill="#03C12D" stroke-width="0" stroke="#03C12D" d = " M344 301 L341.5,303 C341.085,303.207 332,301.949 332,304 332,309.17 340.235,311.367 343.5,313 349.85,316.175 355.246,321.873 361.5,325 369.564,329.032 377.642,318.071 385.5,322 389.227,323.864 394.884,321.192 398.5,323 410.937,329.219 427.234,321.031 433,309.5 433,309.5 438,291.5 438,291.5 440.145,287.21 436,281.547 436,278 433.974,278 419.443,280.471 418.5,280 415.219,278.36 409.737,275 406,275 403.661,275 403.515,281 400,281 400,281 398,283 398,283 398,283 396,284 396,284 389.499,284 385.307,290 379,290 379,290 373.5,293 373.5,293 367.578,295.961 349.404,301 344,301  Z"/>

<path  fill="#03C12D" stroke-width="0" stroke="#03C12D" d = " M158 309 C156.104,309 154,311.077 154,313 148.859,313 147.521,318.989 143.5,321 139.713,322.893 135.336,323.082 131.5,325 124.853,328.323 110.701,327 103,327 103,327 95.5,325 95.5,325 91.8096,326.845 78.6402,336.07 74.5,334 64.459,328.979 61.4745,328.449 56,317.5 56,317.5 55,306.5 55,306.5 47.9969,292.494 48,298.385 48,282 50.2687,282 64.5519,284.474 65.5,284 68.6063,282.447 75.7518,277 79,277 79,283.412 93.9112,292 99,292 99,292 100,292 100,292 100,292 102,292 102,292 102,292 104,293 104,293 104,294.55 110.228,295.364 111.5,296 119.703,300.101 128.06,302 138,302 138,303.665 142.222,303 143.5,303 146.551,303 158,303.604 158,307 158,307 158,309 158,309  Z"/>

<path  fill="#F44345" stroke-width="0" stroke="#F44345" d = " M231 277 L229,280.5 C226.634,285.232 238.808,277 231,277  Z"/>

<path  fill="#F44345" stroke-width="0" stroke="#F44345" d = " M255 279 L254,280.5 C254,284.31 262.697,279 255,279  Z"/>

<path  fill="#FF6E00" stroke-width="0" stroke="#FF6E00" d = " M397 283 L398,283 C398,283 400,281 400,281 397.997,281 397,280.707 397,283  Z"/>

<path  fill="#DDD951" stroke-width="0" stroke="#DDD951" d = " M379 290 L373.5,293 C367.578,295.961 349.404,301 344,301 344,289.337 363.236,289.632 370.5,286 373.561,284.469 379,286.67 379,290  Z"/>

<path  fill="#DDD951" stroke-width="0" stroke="#DDD951" d = " M104 293 C104,294.55 110.228,295.364 111.5,296 119.703,300.101 128.06,302 138,302 138,292.688 116.815,292.157 110.5,289 108.533,288.016 104,289.66 104,292 104,292 104,293 104,293  Z"/>

<path  fill="#E278A1" stroke-width="0" stroke="#E278A1" d = " M246 300 C246,303.763 238.948,299.776 236.5,301 233.268,302.616 229.624,305.253 228,308.5 220.497,323.506 248.271,323.615 255.5,320 263.576,315.962 261.257,302 253,302 250.84,302 248.833,300 246,300  Z"/>

<path  fill="#FA8072" stroke-width="0" stroke="#FA8072" d = " M330 308 C330,312.164 319.072,309.356 318,311.5 316.643,314.214 316.312,317.876 315,320.5 314.159,322.182 307.393,326.714 307,327.5 L308,333.5 C306.945,335.61 303.594,335.312 303,336.5 299.404,343.692 316.469,346.437 318,349.5 320.546,354.592 316.211,358.921 317,360.5 318.195,362.89 321.018,359 322,359 325.932,359 332.086,349 336.5,349 L338.5,352 L342.5,349 C343.787,348.357 350,348.238 350,346.5 350,342.651 343.9,344.699 346,340.5 346.809,338.882 352.317,339.866 354,336.5 L352,333.5 L352,325.5 L349.5,325 C346.554,323.527 347.066,321.283 344.5,320 341.872,318.686 342.935,314.718 341.5,314 L337.5,315 C334.364,313.432 335.155,308 330,308  Z"/>

<path  fill="#FA8072" stroke-width="0" stroke="#FA8072" d = " M168 309 L180.5,326 C182.854,327.177 180.821,317.661 185.5,320 188.118,321.309 186.853,324.795 186,326.5 L182,327.5 C180.543,330.413 180.841,342.818 178,348.5 176.648,351.203 174.416,349.042 172.5,350 167.951,352.275 161.769,355.634 156.5,353 L152.5,348 L148.5,349 L144.5,343 C143.077,342.289 132.403,344.306 131,341.5 130.407,340.313 133,339.764 133,338 133,334.909 131.312,332.877 133,329.5 L136,327.5 L138.5,325 C139.066,325 145.189,326.122 146,324.5 L144,322.5 C144,321.418 154,318.38 154,313 154,311.077 156.104,309 158,309 158,309 166,309 166,309 166,309 168,309 168,309  Z"/>

</g>
</svg>
