<svg xmlns="http://www.w3.org/2000/svg" xmlns:xlink="http://www.w3.org/1999/xlink" height="512" width="512">
<g>
<rect width="512" height="512" fill="#000000"  stroke-width="0" /> 
<path  fill="#03C12D" stroke-width="0" stroke="#03C12D" d = " M37 196 C42.9391,196 48.5743,197.537 53.5,200 57.7286,202.114 67.4074,201 72,201 74.8254,201 75.1815,195.137 76,193.5 80.1432,185.214 85.8405,177.819 90,169.5 98.8202,151.86 137.549,134.476 154.5,126 158.578,123.961 172.585,113.542 177.5,116 184.334,119.417 174,124.503 174,128 174,128 177.5,126 177.5,126 177.5,126 180,128 180,128 182.199,128 182.206,127.088 183,125.5 184.531,122.438 192.124,129.312 193.5,130 195.479,130.989 204,131.508 204,135 204,135 207,135 207,135 211.937,135 215.461,132 221,132 221,132 228,126.5 228,126.5 228,126.5 227,124.5 227,124.5 227,124.5 230,120.5 230,120.5 231.243,118.013 235.26,101.62 238.5,100 239.686,99.4068 241.479,100.458 242,101.5 245.046,107.592 246.794,113.087 250,119.5 253.472,126.444 274.258,133 282,133 282,130.129 299.648,124.074 301.5,125 303.087,125.793 308,125.141 308,123 308,118.965 291.878,110.745 293,108.5 294.162,106.177 304.063,110.282 305.5,111 305.5,111 310.5,111 310.5,111 313.857,112.678 318.338,115.919 322.5,118 322.5,118 329.5,119 329.5,119 333.992,121.246 336.516,126 343,126 343,126 345,127 345,127 345.546,127 350.088,131.294 351.5,132 353.962,133.231 356.038,132.769 358.5,134 358.5,134 366.5,141 366.5,141 371.295,143.397 376.625,145.562 381.5,148 381.5,148 385,155 385,155 385,155 386,156 386,156 387.793,156 402,171.071 402,174 402,174 403,175 403,175 403,178.587 413,193.74 413,201 413,201 415.5,203 415.5,203 415.957,203 419.971,198.764 421.5,198 425.974,195.763 443.29,195 449,195 449,187.893 445.426,181.351 442,174.5 442,174.5 442,168.5 442,168.5 438.271,161.041 435.697,152.894 432,145.5 429.503,140.506 422.94,135.379 421,131.5 419.511,128.522 411.249,115.374 408.5,114 408.5,114 397.5,108 397.5,108 397.5,108 393.5,110 393.5,110 391.766,109.133 390.74,103.62 389.5,103 381.064,98.7818 371.882,96.1912 363.5,92 363.5,92 360.5,87 360.5,87 353.94,83.7198 345.124,84.3118 338.5,81 333.855,78.6773 329.043,77.2716 324.5,75 324.5,75 319.5,76 319.5,76 315.626,74.0632 312.003,74.2514 307.5,72 307.5,72 299.5,72 299.5,72 297.744,71.1219 288.304,68.0982 286.5,69 281.086,71.7072 270.501,70.9995 266.5,73 266.5,73 255.5,80 255.5,80 250.533,82.4834 244.422,83.5389 239.5,86 238.175,86.6626 241.107,90.6965 238.5,92 237.123,92.6886 232.236,87.3682 229.5,86 214.666,78.5829 210.102,72 191.5,72 191.5,72 184.5,72 184.5,72 182.953,72.7736 181.785,75.1425 179.5,74 179.5,74 177.5,72 177.5,72 174.054,73.7228 171.665,76.9173 171.5,77 171.5,77 162.5,77 162.5,77 158.193,79.1536 152.727,78.8865 148.5,81 148.5,81 141.5,86 141.5,86 141.5,86 137.5,85 137.5,85 134.346,86.5768 129.857,92.3213 126.5,94 123.037,95.7316 120.064,93.218 116.5,95 110.98,97.7598 105.999,101.25 100.5,104 100.5,104 98.5,107 98.5,107 98.5,107 94.5,107 94.5,107 91.6197,108.44 89.2263,110.637 86.5,112 81.0131,114.743 75.1934,124.113 73,128.5 71.8548,130.79 70.1178,130.191 68.5,131 68.5,131 68,135.5 68,135.5 67.1508,137.198 66.1513,135 65.5,135 63.6841,135 64.3832,137.734 64,138.5 64,138.5 60,141.5 60,141.5 55.6993,150.101 50.4207,157.659 46,166.5 46,166.5 46,171.5 46,171.5 46,171.5 42,175.5 42,175.5 42,175.5 43,179.5 43,179.5 43,179.5 39,183.5 39,183.5 39,183.5 40,187.5 40,187.5 37.9346,191.631 37,191.599 37,196  Z"/>

<path  fill="#022CFF" stroke-width="0" stroke="#022CFF" d = " M282 133 C282,135.261 288.094,133.297 289.5,134 294.214,136.357 308,142.656 308,149 303.683,149 300.469,140.984 296.5,139 293.787,137.643 290.312,137.406 287.5,136 287.5,136 281.5,137 281.5,137 276.026,134.263 268.434,132 262,132 252.462,132 257.493,136.503 252.5,139 252.5,139 250,139.5 250,139.5 249.21,141.079 248.906,149.203 244.5,147 241.281,145.39 240.368,143.236 239,140.5 237.859,138.218 224.229,132 221,132 221,132 228,126.5 228,126.5 228,126.5 227,124.5 227,124.5 227,124.5 230,120.5 230,120.5 231.243,118.013 235.26,101.62 238.5,100 239.686,99.4068 241.479,100.458 242,101.5 245.046,107.592 246.794,113.087 250,119.5 253.472,126.444 274.258,133 282,133  Z"/>

<path  fill="#FF6E00" stroke-width="0" stroke="#FF6E00" d = " M405 268 C402.837,268 397,273.856 397,269 397,267.457 404.942,264.616 406,262.5 409.842,254.817 411,248.317 411,240 412.684,240 412,235.321 412,234 412,234 413,233 413,233 413,219.443 413.616,204.731 408,193.5 408,193.5 403,186.5 403,186.5 400.287,181.073 398.749,176.249 394,171.5 394,171.5 381,158 381,158 381,155.936 374.003,153.752 372.5,153 372.5,153 368.5,149 368.5,149 368.5,149 363.5,149 363.5,149 363.5,149 361.5,146 361.5,146 357.393,143.947 350.85,141 346,141 342.321,141 334.88,146.19 332.5,145 332.5,145 318,136.5 318,136.5 316.305,133.11 313.135,123 308,123 308,118.965 291.878,110.745 293,108.5 294.162,106.177 304.063,110.282 305.5,111 305.5,111 310.5,111 310.5,111 313.857,112.678 318.338,115.919 322.5,118 322.5,118 329.5,119 329.5,119 333.992,121.246 336.516,126 343,126 343,126 345,127 345,127 345.546,127 350.088,131.294 351.5,132 353.962,133.231 356.038,132.769 358.5,134 358.5,134 366.5,141 366.5,141 371.295,143.397 376.625,145.562 381.5,148 381.5,148 385,155 385,155 385,155 386,156 386,156 387.793,156 402,171.071 402,174 402,174 403,175 403,175 403,178.587 413,193.74 413,201 413,209.726 416,220.461 416,229.5 416,233.931 414,240.15 414,246 414,246 414,251 414,251 414,254.312 411,260.943 411,261 409.253,261 409,261.253 409,263 407.235,263 408.459,264.581 408,265.5 408,265.5 405,268 405,268  Z"/>

<path  fill="#FF6E00" stroke-width="0" stroke="#FF6E00" d = " M79 273 C83.219,273 89.7718,276.136 93.5,278 L99,278.5 C99.9613,276.577 94,276.243 94,274 79.899,274 72,258.565 72,246 72,233.74 68.4313,217.637 74,206.5 77.9256,198.649 83.0716,191.357 87,183.5 87,183.5 95,173 95,173 92.794,173 95.742,171 97,171 97,171 98,170 98,170 98,170 99,169 99,169 99,169 101,167 101,167 104.01,167 107.357,159 111,159 111,155.329 119.304,153.098 121.5,152 125.345,150.078 128.72,147.89 132.5,146 141.684,141.408 169,155.513 169,135 169,132.849 171.323,128 174,128 174,124.503 184.334,119.417 177.5,116 172.585,113.542 158.578,123.961 154.5,126 137.549,134.476 98.8202,151.86 90,169.5 85.8405,177.819 80.1432,185.214 76,193.5 75.1815,195.137 74.8254,201 72,201 72,205.255 69.8805,212.739 68,216.5 68,216.5 69,251 69,251 69,255.763 71,259.728 71,264 71,268.069 79,269.715 79,273  Z"/>

<path  fill="#DDD951" stroke-width="0" stroke="#DDD951" d = " M381 158 C377.689,158 368.202,172.149 364.5,174 362.256,175.122 356.383,170.942 354.5,170 349.322,167.411 343.224,169 338,169 338,166.607 330.174,165.837 328.5,165 323.969,162.735 318.104,154 313,154 313,154 308,149 308,149 308,142.656 294.214,136.357 289.5,134 288.094,133.297 282,135.261 282,133 282,130.129 299.648,124.074 301.5,125 303.087,125.793 308,125.141 308,123 313.135,123 316.305,133.11 318,136.5 318,136.5 332.5,145 332.5,145 334.88,146.19 342.321,141 346,141 350.85,141 357.393,143.947 361.5,146 361.5,146 363.5,149 363.5,149 363.5,149 368.5,149 368.5,149 368.5,149 372.5,153 372.5,153 374.003,153.752 381,155.936 381,158  Z"/>

<path  fill="#DDD951" stroke-width="0" stroke="#DDD951" d = " M150 170 L153,170 C153,168.197 156.592,167 158,167 158,167 159,166 159,166 159,162.432 167.495,160.005 169.5,158 179.051,148.449 186.127,138 201,138 201,138 204,137 204,137 204,137 204,135 204,135 204,131.508 195.479,130.989 193.5,130 192.124,129.312 184.531,122.438 183,125.5 182.206,127.088 182.199,128 180,128 180,128 177.5,126 177.5,126 177.5,126 174,128 174,128 174,129.884 171.425,135 169,135 169,155.513 141.684,141.408 132.5,146 128.72,147.89 125.345,150.078 121.5,152 119.304,153.098 111,155.329 111,159 111,162.584 116,164.328 116,168 116,168 118,171 118,171 120.457,171 122.522,174.489 125.5,173 133.409,169.045 141.419,170 150,170  Z"/>

<path  fill="#03C12D" stroke-width="0" stroke="#03C12D" d = " M174 128 C171.323,128 169,132.849 169,135 171.425,135 174,129.884 174,128  Z"/>

<path  fill="#5600DD" stroke-width="0" stroke="#5600DD" d = " M319 176 L314,169.5 C310.016,161.531 297.933,151.717 290.5,148 L283.5,147 C280.022,145.261 272.19,140.655 267.5,143 265.388,144.056 262.505,142.997 260.5,144 257.296,145.602 255.233,148.634 252.5,150 L250,150.5 C248.813,152.873 251.178,166.839 243.5,163 237.696,160.098 240.105,154.709 238,150.5 L235.5,150 C231.881,148.191 228.742,143 224.5,143 L222.5,145 C220.264,145 217.693,142.403 214.5,144 207.35,147.575 199.547,149.476 192.5,153 186.801,155.849 183.735,161.383 178.5,164 L168,178 C163.152,178 167.639,161.431 170.5,160 170.5,160 186.5,145 186.5,145 188.971,143.764 201,141.583 201,138 201,138 204,137 204,137 205.238,137 207,136.577 207,135 211.937,135 215.461,132 221,132 224.229,132 237.859,138.218 239,140.5 240.368,143.236 241.281,145.39 244.5,147 248.906,149.203 249.21,141.079 250,139.5 250,139.5 252.5,139 252.5,139 257.493,136.503 252.462,132 262,132 268.434,132 276.026,134.263 281.5,137 281.5,137 287.5,136 287.5,136 290.312,137.406 293.787,137.643 296.5,139 300.469,140.984 303.683,149 308,149 308,149 313,154 313,154 313,156.07 323,166.279 323,174 323,176.109 320.465,176 319,176  Z"/>

<path  fill="#022CFF" stroke-width="0" stroke="#022CFF" d = " M207 135 C207,136.577 205.238,137 204,137 204,137 204,135 204,135 204,135 207,135 207,135  Z"/>

<path  fill="#022CFF" stroke-width="0" stroke="#022CFF" d = " M154 283 C154,287.459 169,293.07 169,285 169,282.523 166.989,282.478 166,280.5 162.877,274.255 164.156,265.811 161,259.5 159.904,257.307 155,250.248 155,249 152.734,249 148,236.626 148,234 147.092,234 144.026,230.763 142.5,230 133.504,225.502 131.787,224.926 137,214.5 138.405,211.69 138.836,207.832 142.5,206 147.519,203.491 147.637,211 151,211 151,211 152,211 152,211 152,211 152,210 152,210 149.618,210 152.615,206.271 153,205.5 153,205.5 163.5,195 163.5,195 163.5,195 166,191 166,191 166,191 166,184 166,184 166,184 167,183 167,183 167,183 168,178 168,178 163.152,178 167.639,161.431 170.5,160 170.5,160 186.5,145 186.5,145 188.971,143.764 201,141.583 201,138 186.127,138 179.051,148.449 169.5,158 167.495,160.005 159,162.432 159,166 159,166 158,167 158,167 158,168.803 154.408,170 153,170 153,170 150,172 150,172 150,174.034 153.291,179.919 153,180.5 151.272,183.956 149.693,187.113 148,190.5 148,190.5 143,194.5 143,194.5 140.781,198.938 139.861,202.779 138,206.5 138,206.5 131,214.5 131,214.5 129.482,217.536 132.591,220.318 131,223.5 130.042,225.416 126.579,226.658 128,229.5 128,229.5 133,234.5 133,234.5 135.45,239.4 128.574,243.648 131,248.5 131,248.5 143,260.5 143,260.5 144.746,263.992 145.322,268.145 147,271.5 150.163,277.826 154,275.287 154,283  Z"/>

<path  fill="#E1970F" stroke-width="0" stroke="#E1970F" d = " M277 206 C277,193.23 272.959,183.729 261.5,178 L244,179 L233.5,178 L217,188.5 C213.355,195.79 212,202.219 212,210 212,210 207.5,216 207.5,216 203.622,217.939 196.892,220.196 192.5,218 186.395,214.948 180.083,212.583 175,207.5 172.964,205.464 169.419,197 166,197 166,197 166,191 166,191 166,191 166,184 166,184 166,184 167,183 167,183 167,183 168,178 168,178 168,178 178.5,164 178.5,164 183.735,161.383 186.801,155.849 192.5,153 199.547,149.476 207.35,147.575 214.5,144 217.693,142.403 220.264,145 222.5,145 222.5,145 224.5,143 224.5,143 228.742,143 231.881,148.191 235.5,150 235.5,150 238,150.5 238,150.5 240.105,154.709 237.696,160.098 243.5,163 251.178,166.839 248.813,152.873 250,150.5 250,150.5 252.5,150 252.5,150 255.233,148.634 257.296,145.602 260.5,144 262.505,142.997 265.388,144.056 267.5,143 272.19,140.655 280.022,145.261 283.5,147 283.5,147 290.5,148 290.5,148 297.933,151.717 310.016,161.531 314,169.5 314,169.5 319,176 319,176 319,179.817 321.426,182.352 323,185.5 324.618,188.736 322,193.724 322,196 322,196 321,197 321,197 321,197 320,198 320,198 320,198 313,203.5 313,203.5 307.999,208.501 293.791,219.145 285.5,215 285.5,215 277,206 277,206  Z"/>

<path  fill="#022CFF" stroke-width="0" stroke="#022CFF" d = " M323 174 C327.158,174 331.082,174 335,174 335,171.636 338,170.947 338,169 338,166.607 330.174,165.837 328.5,165 323.969,162.735 318.104,154 313,154 313,156.07 323,166.279 323,174  Z"/>

<path  fill="#0E47E2" stroke-width="0" stroke="#0E47E2" d = " M411 240 C409.473,240 393.565,231.467 388.5,234 385.085,235.708 384.352,243.574 379.5,246 370.978,250.261 342,268.064 342,279 326.903,279 330.894,270.712 336,260.5 336,260.5 346,253.5 346,253.5 346,253.5 347,246.5 347,246.5 348.351,243.797 352.061,243.378 353,241.5 354.46,238.581 351,232.647 351,229 351,229 353,224.5 353,224.5 353.748,223.005 352.523,221.547 352,220.5 351.186,218.872 354.336,213.172 353,210.5 353,210.5 349,198.5 349,198.5 345.147,190.793 335,183.663 335,174 335,171.636 338,170.947 338,169 343.224,169 349.322,167.411 354.5,170 356.383,170.942 362.256,175.122 364.5,174 368.202,172.149 377.689,158 381,158 381,158 394,171.5 394,171.5 398.749,176.249 400.287,181.073 403,186.5 403,186.5 408,193.5 408,193.5 413.616,204.731 413,219.443 413,233 413,233 412,234 412,234 412,235.321 412.684,240 411,240  Z"/>

<path  fill="#0E47E2" stroke-width="0" stroke="#0E47E2" d = " M139 280 L144.5,285 L148.5,282 C149.717,282 152.158,283 154,283 154,275.287 150.163,277.826 147,271.5 145.322,268.145 144.746,263.992 143,260.5 143,260.5 131,248.5 131,248.5 128.574,243.648 135.45,239.4 133,234.5 133,234.5 128,229.5 128,229.5 126.579,226.658 130.042,225.416 131,223.5 132.591,220.318 129.482,217.536 131,214.5 131,214.5 138,206.5 138,206.5 139.861,202.779 140.781,198.938 143,194.5 143,194.5 148,190.5 148,190.5 149.693,187.113 151.272,183.956 153,180.5 153.291,179.919 150,174.034 150,172 150,172 150,170 150,170 141.419,170 133.409,169.045 125.5,173 122.522,174.489 120.457,171 118,171 116.423,171 116,169.238 116,168 116,164.328 111,162.584 111,159 107.357,159 104.01,167 101,167 101,168.747 100.747,169 99,169 99,169 98,170 98,170 98,170 97,171 97,171 97,171 95,173 95,173 95,173 87,183.5 87,183.5 83.0716,191.357 77.9256,198.649 74,206.5 68.4313,217.637 72,233.74 72,246 77.5045,246 87.7279,233.614 94.5,237 94.7646,237.132 99.2009,248.35 104.5,251 111.915,254.708 139,270.651 139,280  Z"/>

<path  fill-rule="evenodd" fill="#07FF59" stroke-width="0" stroke="#07FF59" d = " M243 197 C243,200.874 241.039,198.422 240,200.5 238.436,203.628 242.081,203.662 243,205.5 L243,209.5 C244.551,212.601 252.232,197 243,197  M232 231 L233,232 C233,238.304 244.046,241.727 249.5,239 253.833,236.833 253.2,232.101 255,228.5 255,228.5 260.5,228 260.5,228 260.5,228 262,223.5 262,223.5 264.206,219.089 274,214.396 274,210 274,210 275,209 275,209 275,209 277,206 277,206 277,193.23 272.959,183.729 261.5,178 261.5,178 244,179 244,179 244,179 233.5,178 233.5,178 233.5,178 217,188.5 217,188.5 213.355,195.79 212,202.219 212,210 214.129,210 232,228.294 232,231  Z"/>

<path  fill="#EE2F2C" stroke-width="0" stroke="#EE2F2C" d = " M326 195 L324,199.5 L328,213.5 C329.233,215.966 326.271,221.043 327,222.5 L331,225.5 C331.827,227.155 330.118,228.809 332.5,230 L336,228 C336,220.105 340.052,211.604 336,203.5 336,203.5 329.5,195 329.5,195 328.783,194.283 326,192.925 326,195  Z"/>

<path  fill="#9953FF" stroke-width="0" stroke="#9953FF" d = " M212 294 L216,294 C216,294 221,293 221,293 221,289.685 228.749,286.875 230.5,286 240.635,280.933 237.479,273.99 251.5,281 251.5,281 254.5,286 254.5,286 257.404,287.452 264,287.708 264,293 267.311,293 270.546,293 274,293 274,288.858 284.675,285.15 287,280.5 291.582,271.337 297.231,262.269 304.5,255 309.86,249.64 317,246.407 317,257 317,257 320,256 320,256 320,256 323,256 323,256 323,256 327,250.5 327,250.5 329.755,244.99 336,233.896 336,228 336,228 332.5,230 332.5,230 330.118,228.809 331.827,227.155 331,225.5 331,225.5 327,222.5 327,222.5 326.271,221.043 329.233,215.966 328,213.5 328,213.5 324,199.5 324,199.5 324,199.5 326,195 326,195 326,195 322,196 322,196 322,196 321,197 321,197 321,197 320,198 320,198 320,198 313,203.5 313,203.5 307.999,208.501 293.791,219.145 285.5,215 285.5,215 277,206 277,206 277,206 275,209 275,209 275,209 274,210 274,210 274,214.396 264.206,219.089 262,223.5 262,223.5 260.5,228 260.5,228 260.5,228 255,228.5 255,228.5 253.2,232.101 253.833,236.833 249.5,239 244.046,241.727 233,238.304 233,232 233,232 232,231 232,231 232,228.294 214.129,210 212,210 212,210 207.5,216 207.5,216 203.622,217.939 196.892,220.196 192.5,218 186.395,214.948 180.083,212.583 175,207.5 172.964,205.464 169.419,197 166,197 166,197 163,200 163,200 163,201.923 160.896,204 159,204 159,204 159,205 159,205 159,205 158,213.5 158,213.5 159.588,216.676 164.19,224.155 158.5,227 155.711,228.394 155.465,224 154,224 154,224 153,225 153,225 153,227.846 151,230.382 151,234 151,235.831 153.183,243 155,243 164.723,243 159.752,259 168,259 168,250.74 178.117,247.735 182,255.5 186.826,265.152 197.785,274.071 203,284.5 205.515,289.529 211,287.463 211,293 211,293 212,294 212,294  Z"/>

<path  fill="#DD6479" stroke-width="0" stroke="#DD6479" d = " M416 248 C424.324,248 431.85,251 441,251 441,251 439,246.5 439,246.5 440.639,243.223 446.173,243.154 448,239.5 448,239.5 448,231.5 448,231.5 449.544,228.412 450.514,225.471 452,222.5 456.037,214.426 449,202.028 449,195 443.29,195 425.974,195.763 421.5,198 419.971,198.764 415.957,203 415.5,203 415.5,203 413,201 413,201 413,209.726 416,220.461 416,229.5 416,233.931 414,240.15 414,246 414,246 416,248 416,248  Z"/>

<path  fill="#DD6479" stroke-width="0" stroke="#DD6479" d = " M69 251 C60.7073,251 53.5267,254 44,254 44,248.272 40.2189,250.938 38,246.5 34.1931,238.886 34.8191,229.138 31,221.5 29.0991,217.698 31.4089,204.682 33,201.5 33,201.5 37,196 37,196 42.9391,196 48.5743,197.537 53.5,200 57.7286,202.114 67.4074,201 72,201 72,205.255 69.8805,212.739 68,216.5 68,216.5 69,251 69,251  Z"/>

<path  fill="#022CFF" stroke-width="0" stroke="#022CFF" d = " M243 197 C243,200.874 241.039,198.422 240,200.5 238.436,203.628 242.081,203.662 243,205.5 L243,209.5 C244.551,212.601 252.232,197 243,197  Z"/>

<path  fill="#EE2F2C" stroke-width="0" stroke="#EE2F2C" d = " M163 200 C160.119,200 159,201.292 159,204 160.896,204 163,201.923 163,200  Z"/>

<path  fill="#EE2F2C" stroke-width="0" stroke="#EE2F2C" d = " M153 222 L154,224 C155.465,224 155.711,228.394 158.5,227 164.19,224.155 159.588,216.676 158,213.5 158,213.5 159,205 159,205 156.183,205 152,206.573 152,210 152,210 152,211 152,211 152,211 152,213 152,213 152,213 153,222 153,222  Z"/>

<path  fill="#006400" stroke-width="0" stroke="#006400" d = " M148 234 L151,234 C151,230.382 153,227.846 153,225 153,225 153,222 153,222 153,222 152,213 152,213 152,213 151,211 151,211 147.637,211 147.519,203.491 142.5,206 138.836,207.832 138.405,211.69 137,214.5 131.787,224.926 133.504,225.502 142.5,230 144.026,230.763 147.092,234 148,234  Z"/>

<path  fill="#DD6479" stroke-width="0" stroke="#DD6479" d = " M413 233 L412,234 C412,234 413,233 413,233  Z"/>

<path  fill="#DDD951" stroke-width="0" stroke="#DDD951" d = " M342 279 C342,281.277 343.922,287 347,287 351.733,287 357.596,284.452 362.5,282 362.5,282 369.5,275 369.5,275 369.5,275 372,277 372,277 372,271.618 392.329,269 397,269 397,267.457 404.942,264.616 406,262.5 409.842,254.817 411,248.317 411,240 409.473,240 393.565,231.467 388.5,234 385.085,235.708 384.352,243.574 379.5,246 370.978,250.261 342,268.064 342,279  Z"/>

<path  fill="#DDD951" stroke-width="0" stroke="#DDD951" d = " M139 280 C139,281.235 139.643,285 138,285 129.266,285 121.306,279 112,279 112,275.457 96.7589,274 94,274 79.899,274 72,258.565 72,246 77.5045,246 87.7279,233.614 94.5,237 94.7646,237.132 99.2009,248.35 104.5,251 111.915,254.708 139,270.651 139,280  Z"/>

<path  fill="#FF3427" stroke-width="0" stroke="#FF3427" d = " M212 294 L216,294 C216,303.016 196.431,304.966 190.5,302 186.915,300.207 183.489,297.494 180.5,296 180.5,296 169,285 169,285 169,282.523 166.989,282.478 166,280.5 162.877,274.255 164.156,265.811 161,259.5 159.904,257.307 155,250.248 155,249 155,246.28 155,245.447 155,243 164.723,243 159.752,259 168,259 168,284.77 186.442,294 210,294 210,294 212,294 212,294  Z"/>

<path  fill="#2E8B57" stroke-width="0" stroke="#2E8B57" d = " M411 263 C421.206,263 439.814,276 447,276 447,270.736 448.893,263.286 446,257.5 446,257.5 441,251 441,251 431.85,251 424.324,248 416,248 416,249.238 415.577,251 414,251 414,254.312 411,260.943 411,261 411,261 411,263 411,263  Z"/>

<path  fill="#FFBA00" stroke-width="0" stroke="#FFBA00" d = " M274 293 L276,294 C280.618,294 306.487,288.526 308,285.5 308,285.5 307,282.5 307,282.5 307.718,281.065 311.686,282.128 313,279.5 315.084,275.332 312.926,268.648 315,264.5 315,264.5 318,259 318,259 318,259 317,257 317,257 317,246.407 309.86,249.64 304.5,255 297.231,262.269 291.582,271.337 287,280.5 284.675,285.15 274,288.858 274,293  Z"/>

<path  fill="#2E8B57" stroke-width="0" stroke="#2E8B57" d = " M71 264 C60.9497,264 48.683,276 38,276 38,271.756 35.0418,254 44,254 53.5267,254 60.7073,251 69,251 69,255.763 71,259.728 71,264  Z"/>

<path  fill="#FFBA00" stroke-width="0" stroke="#FFBA00" d = " M211 293 L210,294 C186.442,294 168,284.77 168,259 168,250.74 178.117,247.735 182,255.5 186.826,265.152 197.785,274.071 203,284.5 205.515,289.529 211,287.463 211,293  Z"/>

<path  fill="#FF3427" stroke-width="0" stroke="#FF3427" d = " M318 259 L315,264.5 C312.926,268.648 315.084,275.332 313,279.5 311.686,282.128 307.718,281.065 307,282.5 L308,285.5 C306.487,288.526 280.618,294 276,294 261.11,294 277.842,301.671 282.5,304 285.307,305.403 299.221,299.639 302.5,298 307.936,295.282 315.319,285.861 318,280.5 318,280.5 318,274.5 318,274.5 318,274.5 323,270.5 323,270.5 323,270.5 321,267.5 321,267.5 319.835,265.17 327.107,256 323,256 323,256 320,256 320,256 320,256 318,259 318,259  Z"/>

<path  fill="#7F81FF" stroke-width="0" stroke="#7F81FF" d = " M447 276 C447,290.118 440.645,299.928 428.5,306 L422,302 C422,287.494 423.374,291.249 417,278.5 415.317,275.135 405,272.946 405,268 405,268 408,265.5 408,265.5 408.459,264.581 407.235,263 409,263 409,263 411,263 411,263 421.206,263 439.814,276 447,276  Z"/>

<path  fill="#7F81FF" stroke-width="0" stroke="#7F81FF" d = " M38 276 C38,278.712 36.3054,287.111 38,290.5 39.9804,294.461 48.5299,310.985 54.5,308 58.4849,306.008 55.9519,296 63,296 63,285.6 79,278.802 79,273 79,269.715 71,268.069 71,264 60.9497,264 48.683,276 38,276  Z"/>

<path  fill="#8B008B" stroke-width="0" stroke="#8B008B" d = " M374 295 C378.596,295 388.123,288.811 394.5,292 397.394,293.447 420.061,302 422,302 422,287.494 423.374,291.249 417,278.5 415.317,275.135 405,272.946 405,268 402.837,268 397,273.856 397,269 392.329,269 372,271.618 372,277 372,277 371,283.5 371,283.5 372.07,285.64 373,287.387 373,290 373,291.235 372.357,295 374,295  Z"/>

<path  fill="#8B008B" stroke-width="0" stroke="#8B008B" d = " M63 296 C63,298.443 58.2967,304.898 62.5,307 63.2985,307.399 83.3972,299.051 85.5,298 91.0224,295.239 103.261,298.88 107.5,301 109.456,301.978 111.577,300 113,300 113,293.403 112,286.149 112,279 112,275.457 96.7589,274 94,274 94,276.243 99.9613,276.577 99,278.5 99,278.5 93.5,278 93.5,278 89.7718,276.136 83.219,273 79,273 79,278.802 63,285.6 63,296  Z"/>

<path  fill="#41FF27" stroke-width="0" stroke="#41FF27" d = " M347 287 C347,293.504 346.606,301.553 353.5,305 356.718,306.609 374,298.469 374,295 372.357,295 373,291.235 373,290 373,287.387 372.07,285.64 371,283.5 371,283.5 372,277 372,277 372,277 369.5,275 369.5,275 369.5,275 362.5,282 362.5,282 357.596,284.452 351.733,287 347,287  Z"/>

<path  fill="#3FC0FF" stroke-width="0" stroke="#3FC0FF" d = " M221 293 C226.001,293 224.399,295.949 228.5,298 230.575,299.038 233.325,298.912 235.5,300 238.987,301.744 255.736,298.382 258.5,297 260.582,295.959 260.509,293 264,293 264,287.708 257.404,287.452 254.5,286 254.5,286 251.5,281 251.5,281 237.479,273.99 240.635,280.933 230.5,286 228.749,286.875 221,289.685 221,293  Z"/>

<path  fill="#41FF27" stroke-width="0" stroke="#41FF27" d = " M138 285 L140,287.5 C141.713,290.926 135.502,305.999 131.5,308 127.293,310.103 113,306.048 113,300 113,293.403 112,286.149 112,279 121.306,279 129.266,285 138,285  Z"/>

<path  fill="#FA8072" stroke-width="0" stroke="#FA8072" d = " M332 295 C332,297.16 325.026,297.237 323.5,298 321.927,298.787 313,311.002 313,313.5 313,314.576 314,317.094 314,318.5 L311,322.5 L313,325.5 C313,335.722 317.477,330.454 321,337.5 322.239,339.978 319,340.989 319,342.5 L322.5,345 L324.5,343 C327.87,343 333.618,343.264 336,338.5 337.165,336.169 335.88,332.741 337,330.5 338.299,327.902 345.1,326.3 346,324.5 L345,320.5 C351.704,307.091 347.682,295 332,295  Z"/>

<path  fill="#FA8072" stroke-width="0" stroke="#FA8072" d = " M149 296 C149,297.63 137.092,305.685 142,315.5 143.541,318.582 142.796,321.093 144,323.5 L150,330.5 C151.993,334.486 162.496,348.002 168.5,345 L169,341.5 L172,339.5 C173.357,336.787 173.594,333.312 175,330.5 L175,322.5 C182.566,307.368 162.173,296 149,296  Z"/>

<path  fill="#FA8072" stroke-width="0" stroke="#FA8072" d = " M351 323 L349,325.5 C349,327.64 356.955,323 351,323  Z"/>

</g>
</svg>
