<svg xmlns="http://www.w3.org/2000/svg" xmlns:xlink="http://www.w3.org/1999/xlink" height="512" width="512">
<g>
<rect width="512" height="512" fill="#000000"  stroke-width="0" /> 
<path  fill="#03C12D" stroke-width="0" stroke="#03C12D" d = " M236 246 L239.5,243 L242.5,239 L244.5,243 C246.01,244.51 252.032,248 254,248 264.568,248 273.7,234.4 282.5,230 282.5,230 290.5,222 290.5,222 296.043,219.228 311.224,225.862 315.5,228 315.5,228 322.5,235 322.5,235 322.5,235 330,243 330,243 333.62,243 337.557,248.472 342.5,246 349.31,242.595 351.037,234.425 354,228.5 354,228.5 364,216.5 364,216.5 368.139,208.223 377.087,173.673 373,165.5 362.132,143.764 343.575,131.538 322.5,121 322.5,121 309.5,118 309.5,118 303.632,115.066 274.736,107.382 267.5,111 262.474,113.513 254.073,116.353 251,122.5 249.379,125.743 248.433,132.034 244.5,134 240.667,135.916 237.883,127.267 237,125.5 234.977,121.455 226.126,118.813 222.5,117 222.5,117 217.5,117 217.5,117 203.707,110.103 184.153,118.173 172.5,124 172.5,124 160.5,126 160.5,126 154.456,129.022 149.589,133.956 143.5,137 138.946,139.277 129.349,145.803 127,150.5 123.141,158.218 109.99,181.481 115,191.5 117.42,196.34 118.626,201.753 121,206.5 121,206.5 129,217.5 129,217.5 133.834,227.168 137.858,241.179 149.5,247 149.5,247 159,245 159,245 159,245 167,236.5 167,236.5 171.532,231.968 177.068,226.216 183.5,223 183.5,223 190.5,222 190.5,222 191.756,221.372 193.767,219.133 195.5,220 197.064,220.782 199.038,220.269 200.5,221 200.5,221 210.5,232 210.5,232 210.5,232 213.5,232 213.5,232 213.5,232 215.5,236 215.5,236 215.5,236 220.5,237 220.5,237 220.5,237 223.5,241 223.5,241 223.5,241 229.5,241 229.5,241 232.214,242.357 232.938,246 236,246  Z"/>

<path  fill-rule="evenodd" fill="#FF8700" stroke-width="0" stroke="#FF8700" d = " M191 245 L191,251.5 C193.67,256.84 203.872,267 209.5,267 211.464,267 211.707,259.604 210.5,259 207.652,257.576 209.262,256.023 208,253.5 205.765,249.03 196.004,245 191,245  M159 245 L167,236.5 C171.532,231.968 177.068,226.216 183.5,223 L190.5,222 C191.756,221.372 193.767,219.133 195.5,220 197.064,220.782 199.038,220.269 200.5,221 L210.5,232 L213.5,232 L215.5,236 L220.5,237 L223.5,241 L229.5,241 C232.214,242.357 232.938,246 236,246 237.726,246 243,258.774 243,261.5 243,270.096 235.543,292.979 227.5,297 217.543,301.978 210.983,296.242 202.5,292 202.5,292 193.5,291 193.5,291 193.5,291 188.5,285 188.5,285 172.881,277.191 164.281,273.063 156,256.5 154.183,252.866 159,248.429 159,245  Z"/>

<path  fill-rule="evenodd" fill="#FF8700" stroke-width="0" stroke="#FF8700" d = " M291 248 L286,251.5 C284.212,255.076 279.98,257.541 278,261.5 277.563,262.375 275.721,266.111 277.5,267 282.715,269.607 310.225,248 291,248  M330 243 L322.5,235 L315.5,228 C311.224,225.862 296.043,219.228 290.5,222 L282.5,230 C273.7,234.4 264.568,248 254,248 254,250.173 247.263,254.974 246,257.5 242.38,264.74 257.55,296.025 263.5,299 271.594,303.047 279.265,297.618 286.5,294 300.769,286.866 326.522,274.456 334,259.5 336.635,254.229 330,247.522 330,243  Z"/>

<path  fill="#FF4FCE" stroke-width="0" stroke="#FF4FCE" d = " M191 245 L191,251.5 C193.67,256.84 203.872,267 209.5,267 211.464,267 211.707,259.604 210.5,259 207.652,257.576 209.262,256.023 208,253.5 205.765,249.03 196.004,245 191,245  Z"/>

<path  fill="#FF4FCE" stroke-width="0" stroke="#FF4FCE" d = " M291 248 L286,251.5 C284.212,255.076 279.98,257.541 278,261.5 277.563,262.375 275.721,266.111 277.5,267 282.715,269.607 310.225,248 291,248  Z"/>

<path  fill="#30DA00" stroke-width="0" stroke="#30DA00" d = " M220 304 C220,305.676 215.046,307.592 217,311.5 223.312,324.125 240.949,311.225 226.5,304 224.957,303.228 221.467,304 220,304  Z"/>

<path  fill="#FA8072" stroke-width="0" stroke="#FA8072" d = " M184 305 C184,307.222 183.85,309.801 183,311.5 180.158,317.184 193,318.613 193,314.5 193,312.566 186.73,310.96 186,309.5 184.967,307.435 187.568,305 184,305  Z"/>

<path  fill="#30DA00" stroke-width="0" stroke="#30DA00" d = " M268 305 C268,306.8 264.983,305.517 264,306.5 L261,316.5 L264.5,317 C270.205,319.853 270.786,318.714 275,314.5 276.078,313.422 281.608,307.554 278.5,306 275.627,304.563 271.459,305 268,305  Z"/>

<path  fill="#FA8072" stroke-width="0" stroke="#FA8072" d = " M306 308 L305,312 C305,324.573 316.19,308 306,308  Z"/>

<path  fill="#FA8072" stroke-width="0" stroke="#FA8072" d = " M286 369 L281,373.5 C279.539,376.422 283.043,386.413 283,386.5 282.036,388.428 279.608,390.715 281,393.5 283.175,397.85 296.694,402.903 300.5,401 303.487,399.506 300.65,393.925 304.5,392 307.658,390.421 308.326,395.152 309,396.5 310.904,400.308 315.938,396.625 317,394.5 319.039,390.422 316.249,377.874 312.5,376 310.904,375.202 306.572,375.928 305.5,377 L302,380.5 L302,375.5 C300.304,372.108 289.895,369 286,369  Z"/>

<path  fill="#FA8072" stroke-width="0" stroke="#FA8072" d = " M197 373 L188.5,382 C182.926,382 180.027,381.445 177,387.5 L173,390.5 C171.255,393.991 173.916,397.708 176.5,399 178.216,399.858 187.375,391.437 192.5,394 194.61,395.055 194.312,398.406 195.5,399 197.972,400.236 200.266,395.383 203.5,397 206.919,398.709 204.939,408.281 213.5,404 221.474,400.013 210.716,394.067 212,391.5 214.858,385.783 220.06,378.28 211.5,374 209.422,372.961 204.322,375.911 202.5,375 200.416,373.958 199.592,373 197,373  Z"/>

</g>
</svg>
