<svg xmlns="http://www.w3.org/2000/svg" xmlns:xlink="http://www.w3.org/1999/xlink" height="512" width="512">
<g>
<rect width="512" height="512" fill="#000000"  stroke-width="0" /> 
<path  fill="#FFFF00" stroke-width="0" stroke="#FFFF00" d = " M381 216 C381,223.376 379.547,219 375,219 370.467,219 368.647,212.574 365.5,211 358.085,207.293 350.855,202.678 343.5,199 341.599,198.049 339.948,194.605 341,192.5 342.138,190.224 344.786,190.857 346.5,190 359.037,183.731 364.023,195.762 372.5,200 374.104,200.802 382.849,211.802 384,209.5 386.167,205.167 367.835,184.335 364,180.5 362.235,178.735 358.629,171.435 361.5,170 369.322,166.089 384.265,186.031 387,191.5 387,191.5 390,193.5 390,193.5 391.286,196.073 388.968,208 394.5,208 394.5,208 398,203.5 398,203.5 398,203.5 397,198.5 397,198.5 398.468,195.564 400.876,186.251 399,182.5 396.837,178.175 391.382,180.441 388.5,179 388.5,179 383,168.5 383,168.5 382.664,167.829 384.645,160.427 385.5,160 385.5,160 389.5,161 389.5,161 389.5,161 391.5,159 391.5,159 391.5,159 393.5,161 393.5,161 393.5,161 395,155.5 395,155.5 392.411,150.322 389.73,141.115 383.5,138 383.5,138 377.5,135 377.5,135 373.223,137.138 374,150.352 374,154 374,156.626 372.861,165.18 368.5,163 368.5,163 361,158.5 361,158.5 360.357,157.214 357.501,138.498 358,137.5 359.646,134.207 363.611,132.278 365,129.5 367.124,125.252 358.122,117.689 353.5,120 347.059,123.22 354.424,145.652 352,150.5 348.723,157.053 345.122,161.689 338.5,165 338.5,165 333.5,165 333.5,165 330.302,166.599 327.143,172.321 322.5,170 305.232,161.366 330.997,148.506 334,142.5 334,142.5 334,126.5 334,126.5 334.788,124.925 341.147,114.823 337.5,113 335.084,111.792 326.583,106.958 324.5,108 317.254,111.623 324.014,119.473 322,123.5 319.409,128.682 318.646,136.208 316,141.5 314.749,144.003 314.904,161.702 307.5,158 298.93,153.715 306.082,145.665 303,139.5 298.74,130.98 310.122,106.311 295.5,99 295.5,99 289.5,98 289.5,98 285.242,95.8712 281.408,92.4538 276.5,90 276.5,90 268.5,89 268.5,89 255.606,82.553 218.281,83.6094 205.5,90 205.5,90 187,109.5 187,109.5 184.65,114.199 186.361,120.777 184,125.5 184,125.5 184,145.5 184,145.5 182.604,148.293 182.098,159.299 175.5,156 168.004,152.252 163,130.614 163,121 163,115.513 175.234,111.367 166.5,107 165.25,106.375 160.705,110.398 159.5,111 155.064,113.218 145.765,111.97 143,117.5 141.245,121.01 150.446,126.392 152,129.5 154.131,133.762 148.608,143.716 151,148.5 154.42,155.339 168.024,158.549 170,162.5 172.123,166.747 167.132,175.184 163.5,177 158.776,179.362 155.554,177.027 151.5,175 147.998,173.249 143.096,173.798 139.5,172 130.459,167.48 134,148.643 134,140 134,136.389 132.221,122.64 125.5,126 125.5,126 120,130.5 120,130.5 118.997,132.507 122.227,135.953 123,137.5 123,137.5 123,142.5 123,142.5 126.769,150.037 127.921,166.658 124,174.5 124,174.5 121,177.5 121,177.5 121,177.5 119.5,181 119.5,181 117.615,181.943 110.942,176.384 110,174.5 106.753,168.007 109.248,158.996 106,152.5 106,152.5 104.5,143 104.5,143 98.2805,139.89 93.0866,158 90,158 90,152.4 98.9146,136.293 103.5,134 103.5,134 107.5,135 107.5,135 108.125,134.687 112.687,131.125 113,130.5 113,130.5 113.5,127 113.5,127 113.5,127 119.5,126 119.5,126 121.967,124.767 127.764,120 130.5,120 131.499,120 132.881,121.81 134.5,121 138.45,119.025 138.276,113.112 142.5,111 142.5,111 166.5,103 166.5,103 172.703,99.8984 175.918,113.291 178.5,112 180.68,110.91 183.006,105.488 184,103.5 184,103.5 188,101.5 188,101.5 191.92,93.6598 199.273,85.1137 207.5,81 213.846,77.8271 224.221,82.1396 230.5,79 234.316,77.0918 243.684,77.0918 247.5,79 247.5,79 255.5,79 255.5,79 261.572,82.036 271.82,81.1602 277.5,84 277.5,84 279.5,87 279.5,87 283.463,88.9816 287.463,90.9815 291.5,93 294.737,94.6185 299.188,94.3439 302.5,96 305.916,97.708 307.685,101.593 310.5,103 310.5,103 326.5,104 326.5,104 331.195,106.348 336.892,106.696 341.5,109 344.078,110.289 345.488,113.494 348.5,115 352.609,117.054 358.311,115.906 362.5,118 366.34,119.92 370.896,126.698 371.5,127 371.5,127 375,126.5 375,126.5 375.827,128.155 374.118,129.809 376.5,131 378.782,132.141 382.218,131.859 384.5,133 389.729,135.615 397.237,155.974 400,161.5 402.498,166.496 395.736,170.973 398,175.5 398,175.5 401,177.5 401,177.5 403.234,181.969 401.46,207.02 397.5,209 395.034,210.233 389.957,207.271 388.5,208 383.914,210.293 391.487,214 382,214 380.348,214 378.908,216 381,216  Z"/>

<path  fill-rule="evenodd" fill="#00FFFF" stroke-width="0" stroke="#00FFFF" d = " M217 99 C217,99.1603 210.369,102.565 209.5,103 208.387,103.557 201.278,113.945 201,114.5 199.813,116.873 204,115.329 204,116.5 L201,118.5 C200.406,119.688 201.187,125.126 200,127.5 198.11,131.28 191.439,139.379 194,144.5 195.166,146.832 202.823,144.855 201,148.5 L192,158.5 C190.806,160.888 192.668,165.164 192,166.5 191.272,167.955 190.036,171.573 191,173.5 191.143,173.786 213.301,177.9 215.5,179 219.518,181.009 230.244,186.628 235.5,184 L239.5,181 L242.5,183 C242.832,183.166 260.61,180.445 261.5,180 L268.5,173 L277.5,172 C280.026,170.737 294.165,165.17 295,163.5 297.868,157.765 288.412,157.325 287,154.5 L287,147.5 C287,143.473 289.393,143.715 291,140.5 292.261,137.978 290.09,129.68 289,127.5 287.753,125.006 291,120.748 291,118.5 L288,115.5 C286.986,113.472 289,110.888 289,109.5 289,103.024 276.027,103.263 273.5,102 270.357,100.429 266.677,103.589 263.5,102 256.061,98.2806 230.018,102.259 227.5,101 224.429,99.4647 220.695,99 217,99  M377 252 C380.219,252 382.108,255 385,255 392.134,255 386.826,261.663 389.5,263 396.279,266.389 395.984,250.742 404.5,255 406.776,256.138 406.143,258.786 407,260.5 408.738,263.975 416.37,264.761 413,271.5 410.95,275.6 381.511,268.521 388,281.5 388,281.5 391,284.5 391,284.5 392.213,286.926 393.404,289.452 396.5,291 404.439,294.97 403.208,282.646 408.5,280 413.55,277.475 412.024,285.262 413.5,286 417.762,288.131 431.89,286.72 434,282.5 434,282.5 430.5,279 430.5,279 427.388,277.444 417.392,277.717 421,270.5 425.227,262.045 437.382,278.735 442,269.5 443.302,266.896 438.088,263.794 436.5,263 433.542,261.521 418,262.598 418,255.5 418,253.667 423.992,252.246 425.5,253 427.714,254.107 428.528,252.014 430.5,253 437.471,256.485 449.652,255.804 444,244.5 441.253,239.006 433.874,249.187 429.5,247 426.054,245.277 432.833,232.834 428.5,235 428.5,235 420.5,243 420.5,243 417.807,244.347 403.334,249.168 401,244.5 398.921,240.341 419.804,234.892 422,230.5 422.752,228.997 428.763,225.131 424.5,223 417.794,219.647 417.148,228.176 413.5,230 408.824,232.338 408.842,226.171 406.5,225 402.726,223.113 400.848,231.805 400,233.5 397.462,238.576 394.315,238.592 389.5,241 388.726,241.387 385,243.186 385,241 385,241 382.5,244 382.5,244 381.998,244.251 379,237.748 379,237 374.92,237 376.35,234.425 373.5,233 368.679,230.59 363.948,236.724 358.5,234 349.694,229.597 369.349,222 372,222 372,222 375,219 375,219 370.467,219 368.647,212.574 365.5,211 358.085,207.293 350.855,202.678 343.5,199 341.599,198.049 339.948,194.605 341,192.5 342.138,190.224 344.786,190.857 346.5,190 359.037,183.731 364.023,195.762 372.5,200 374.104,200.802 382.849,211.802 384,209.5 386.167,205.167 367.835,184.335 364,180.5 362.235,178.735 358.629,171.435 361.5,170 369.322,166.089 384.265,186.031 387,191.5 387,191.5 390,193.5 390,193.5 391.286,196.073 388.968,208 394.5,208 394.5,208 398,203.5 398,203.5 398,203.5 397,198.5 397,198.5 398.468,195.564 400.876,186.251 399,182.5 396.837,178.175 391.382,180.441 388.5,179 388.5,179 383,168.5 383,168.5 382.664,167.829 384.645,160.427 385.5,160 385.5,160 389.5,161 389.5,161 389.5,161 391.5,159 391.5,159 391.5,159 393.5,161 393.5,161 393.5,161 395,155.5 395,155.5 392.411,150.322 389.73,141.115 383.5,138 383.5,138 377.5,135 377.5,135 373.223,137.138 374,150.352 374,154 374,156.626 372.861,165.18 368.5,163 368.5,163 361,158.5 361,158.5 360.357,157.214 357.501,138.498 358,137.5 359.646,134.207 363.611,132.278 365,129.5 367.124,125.252 358.122,117.689 353.5,120 347.059,123.22 354.424,145.652 352,150.5 348.723,157.053 345.122,161.689 338.5,165 338.5,165 333.5,165 333.5,165 330.302,166.599 327.143,172.321 322.5,170 305.232,161.366 330.997,148.506 334,142.5 334,142.5 334,126.5 334,126.5 334.788,124.925 341.147,114.823 337.5,113 335.084,111.792 326.583,106.958 324.5,108 317.254,111.623 324.014,119.473 322,123.5 319.409,128.682 318.646,136.208 316,141.5 314.749,144.003 314.904,161.702 307.5,158 298.93,153.715 306.082,145.665 303,139.5 298.74,130.98 310.122,106.311 295.5,99 295.5,99 289.5,98 289.5,98 285.242,95.8712 281.408,92.4538 276.5,90 276.5,90 268.5,89 268.5,89 255.606,82.553 218.281,83.6094 205.5,90 205.5,90 187,109.5 187,109.5 184.65,114.199 186.361,120.777 184,125.5 184,125.5 184,145.5 184,145.5 182.604,148.293 182.098,159.299 175.5,156 168.004,152.252 163,130.614 163,121 163,115.513 175.234,111.367 166.5,107 165.25,106.375 160.705,110.398 159.5,111 155.064,113.218 145.765,111.97 143,117.5 141.245,121.01 150.446,126.392 152,129.5 154.131,133.762 148.608,143.716 151,148.5 154.42,155.339 168.024,158.549 170,162.5 172.123,166.747 167.132,175.184 163.5,177 158.776,179.362 155.554,177.027 151.5,175 147.998,173.249 143.096,173.798 139.5,172 130.459,167.48 134,148.643 134,140 134,136.389 132.221,122.64 125.5,126 125.5,126 120,130.5 120,130.5 118.997,132.507 122.227,135.953 123,137.5 123,137.5 123,142.5 123,142.5 126.769,150.037 127.921,166.658 124,174.5 124,174.5 121,177.5 121,177.5 121,177.5 119.5,181 119.5,181 117.615,181.943 110.942,176.384 110,174.5 106.753,168.007 109.248,158.996 106,152.5 106,152.5 104.5,143 104.5,143 98.2805,139.89 93.0866,158 90,158 90,160.706 87.1482,174.324 88.5,175 92.9997,177.25 97.425,170.35 101,177.5 102.857,181.214 99.0998,198.7 96.5,200 96.5,200 92.5,201 92.5,201 92.292,200.896 91.0764,195.347 90,197.5 86.264,204.972 91,203.869 91,210 91,210 91,211 91,211 93.4094,211 94,209.053 94,213 94.9223,213 97,214.681 97,212 97,208.685 101.257,195.378 106.5,198 109.078,199.289 99.6151,212.058 103.5,214 103.5,214 108.5,210 108.5,210 111.089,207.411 123.605,196.711 127,203.5 129.904,209.308 113.871,220 109,220 109,220 109,222 109,222 111.624,222 131.559,227.47 122.5,232 118.918,233.791 112.035,230 109.5,230 109.5,230 99.5,236 99.5,236 96.6288,234.564 94.4874,231.494 91.5,230 91.5,230 85.5,229 85.5,229 79.15,225.825 74.4947,217.003 66.5,221 64.7648,221.868 58.9453,221.609 58,223.5 54.2134,231.073 74.7742,234.137 78.5,236 79.9862,236.743 85.5717,238.357 84,241.5 79.2719,250.956 56.1668,235.333 51.5,233 47.277,230.889 41.4766,240.453 43,243.5 47.5213,252.543 61.5314,246.516 68.5,250 70.2753,250.888 73.1966,253.107 72,255.5 66.6918,266.116 51.4012,254.049 47.5,256 42.4157,258.542 36.1576,259.815 40,267.5 43.8626,275.225 53.2346,265.367 60.5,269 65.7126,271.606 49.5843,277.669 51,280.5 54.0535,286.607 61.5352,278.518 66.5,281 66.5,281 70,286.5 70,286.5 71.2118,288.924 85.3481,294.076 87.5,293 106.473,283.513 76.5628,278.031 72.5,276 65.8645,272.682 67.8875,268.306 72.5,266 75.5621,264.469 78.3271,268.914 80.5,270 83.3793,271.44 86,263.696 86,262 86,260.762 82.4394,256.03 84.5,255 89.7524,252.374 96.2387,257.131 98.5,256 102.965,253.767 108.103,253.199 112.5,251 116.998,248.751 121.067,245.216 125.5,243 127.032,242.234 133,239.927 133,243 133,243 134,243 134,243 134,243 135,242 135,242 135,240.177 151.295,233.102 153.5,232 160.38,228.56 166.277,228.612 173.5,225 176.647,223.426 181.247,224.627 184.5,223 184.5,223 204.5,223 204.5,223 211.759,219.37 221.262,219 230,219 233.771,219 231.857,213.822 233.5,213 235.572,211.964 239.347,216.577 242.5,215 249.33,211.585 259,210.803 259,221 259,221 260,220 260,220 260,216.838 259.891,218 262,218 262,215.889 268.448,218 270,218 274.687,218 294.437,223.031 296.5,222 301.117,219.691 304.684,222.592 309.5,225 313.503,227.001 325.668,226.584 330.5,229 341.257,234.378 359.887,249 370.5,249 371.292,249 370.553,253 374,253 374,250.833 377,250.066 377,252  Z"/>

<path  fill-rule="evenodd" fill="#FFFF00" stroke-width="0" stroke="#FFFF00" d = " M236 151 C236,152.313 223,154.237 223,157.5 223,159.991 227.423,158.461 228.5,159 239.319,164.409 265.672,151 244,151 L236,151  M228 133 C228,134.816 215.289,135.922 214,138.5 213.501,139.497 210.871,139.242 212,141.5 212.667,142.833 217.918,143.791 219.5,143 225.777,139.861 234.853,140 242,140 244.558,140 250.449,142.603 252,139.5 253.085,137.329 239.961,135.73 238.5,135 235.024,133.262 232.261,133 228,133  M274 119 C274,122.479 278.365,119 274,119  M217 99 C217,99.1603 210.369,102.565 209.5,103 208.387,103.557 201.278,113.945 201,114.5 199.813,116.873 204,115.329 204,116.5 L201,118.5 C200.406,119.688 201.187,125.126 200,127.5 198.11,131.28 191.439,139.379 194,144.5 195.166,146.832 202.823,144.855 201,148.5 L192,158.5 C190.806,160.888 192.668,165.164 192,166.5 191.272,167.955 190.036,171.573 191,173.5 191.143,173.786 213.301,177.9 215.5,179 219.518,181.009 230.244,186.628 235.5,184 L239.5,181 L242.5,183 C242.832,183.166 260.61,180.445 261.5,180 L268.5,173 L277.5,172 C280.026,170.737 294.165,165.17 295,163.5 297.868,157.765 288.412,157.325 287,154.5 L287,147.5 C287,143.473 289.393,143.715 291,140.5 292.261,137.978 290.09,129.68 289,127.5 287.753,125.006 291,120.748 291,118.5 L288,115.5 C286.986,113.472 289,110.888 289,109.5 289,103.024 276.027,103.263 273.5,102 270.357,100.429 266.677,103.589 263.5,102 256.061,98.2806 230.018,102.259 227.5,101 224.429,99.4647 220.695,99 217,99  Z"/>

<path  fill="#00FFFF" stroke-width="0" stroke="#00FFFF" d = " M228 133 C228,134.816 215.289,135.922 214,138.5 213.501,139.497 210.871,139.242 212,141.5 212.667,142.833 217.918,143.791 219.5,143 225.777,139.861 234.853,140 242,140 244.558,140 250.449,142.603 252,139.5 253.085,137.329 239.961,135.73 238.5,135 235.024,133.262 232.261,133 228,133  Z"/>

<path  fill="#00FFFF" stroke-width="0" stroke="#00FFFF" d = " M236 151 C236,152.313 223,154.237 223,157.5 223,159.991 227.423,158.461 228.5,159 239.319,164.409 265.672,151 244,151 L236,151  Z"/>

<path  fill="#FFFF00" stroke-width="0" stroke="#FFFF00" d = " M90 158 C81.6542,158 85,188.813 85,197.5 85,200.903 86.9853,210 91,210 91,203.869 86.264,204.972 90,197.5 91.0764,195.347 92.292,200.896 92.5,201 92.5,201 96.5,200 96.5,200 99.0998,198.7 102.857,181.214 101,177.5 97.425,170.35 92.9997,177.25 88.5,175 87.1482,174.324 90,160.706 90,158  Z"/>

<path  fill="#FFFF00" stroke-width="0" stroke="#FFFF00" d = " M97 212 C99.1801,212 109,218.01 109,220 113.871,220 129.904,209.308 127,203.5 123.605,196.711 111.089,207.411 108.5,210 108.5,210 103.5,214 103.5,214 99.6151,212.058 109.078,199.289 106.5,198 101.257,195.378 97,208.685 97,212  Z"/>

<path  fill="#FFFF00" stroke-width="0" stroke="#FFFF00" d = " M91 211 C93.4094,211 94,209.053 94,213 94,213 91,211 91,211  Z"/>

<path  fill="#FFFF00" stroke-width="0" stroke="#FFFF00" d = " M230 219 C233.771,219 231.857,213.822 233.5,213 235.572,211.964 239.347,216.577 242.5,215 249.33,211.585 259,210.803 259,221 259,221 260,223.5 260,223.5 260,227.305 251.817,224.341 250.5,225 245.152,227.674 230,227.054 230,219  Z"/>

<path  fill="#00FFFF" stroke-width="0" stroke="#00FFFF" d = " M382 214 C380.348,214 378.908,216 381,216 381,216 382,214 382,214  Z"/>

<path  fill-rule="evenodd" fill="#FFFF00" stroke-width="0" stroke="#FFFF00" d = " M114 254 C114,255.93 115.93,254 114,254  M121 252 L119,253.5 C119,255.974 126.469,252 121,252  M102 265 L103,265 C103,262.959 103.959,262 106,262 106,260.844 108.555,260.528 109.5,261 109.5,261 111.5,264 111.5,264 112.684,264 114.675,262.087 116.5,263 116.5,263 118.5,264 118.5,264 120.843,262.828 127.701,247 129,247 129,245.07 130.161,247 131,247 133.641,247 133,245.177 133,243 133,239.927 127.032,242.234 125.5,243 121.067,245.216 116.998,248.751 112.5,251 108.103,253.199 102.965,253.767 98.5,256 96.2387,257.131 89.7524,252.374 84.5,255 82.4394,256.03 86,260.762 86,262 86,263.696 83.3793,271.44 80.5,270 78.3271,268.914 75.5621,264.469 72.5,266 67.8875,268.306 65.8645,272.682 72.5,276 76.5628,278.031 106.473,283.513 87.5,293 85.3481,294.076 71.2118,288.924 70,286.5 70,286.5 66.5,281 66.5,281 61.5352,278.518 54.0535,286.607 51,280.5 49.5843,277.669 65.7126,271.606 60.5,269 53.2346,265.367 43.8626,275.225 40,267.5 36.1576,259.815 42.4157,258.542 47.5,256 51.4012,254.049 66.6918,266.116 72,255.5 73.1966,253.107 70.2753,250.888 68.5,250 61.5314,246.516 47.5213,252.543 43,243.5 41.4766,240.453 47.277,230.889 51.5,233 56.1668,235.333 79.2719,250.956 84,241.5 85.5717,238.357 79.9862,236.743 78.5,236 74.7742,234.137 54.2134,231.073 58,223.5 58.9453,221.609 64.7648,221.868 66.5,221 74.4947,217.003 79.15,225.825 85.5,229 85.5,229 91.5,230 91.5,230 94.4874,231.494 96.6288,234.564 99.5,236 99.5,236 109.5,230 109.5,230 112.035,230 118.918,233.791 122.5,232 131.559,227.47 111.624,222 109,222 109,231.111 100.857,232.179 94.5,229 94.5,229 92.5,226 92.5,226 90.2672,226 87.2523,225.376 84.5,224 82.8111,223.156 76.2909,211.105 66.5,216 64.109,217.195 58.3433,217.813 57,220.5 56.4765,221.547 53.6454,230 52.5,230 51.1698,230 50.6042,226.948 48.5,228 42.9403,230.78 36.9409,243.382 40,249.5 40.5694,250.639 50.4179,249.664 49,252.5 49,252.5 46.5,252 46.5,252 42.4284,254.036 36.4606,252.579 34,257.5 34,257.5 35,262 35,262 35,267.415 36.3157,271.908 42.5,275 42.5,275 47,275.5 47,275.5 47,275.5 46,280.5 46,280.5 49.632,287.764 56.7313,283.116 62.5,286 69.7349,289.617 73.9007,294.2 81.5,298 83.5179,299.009 87.572,294.464 88.5,294 88.5,294 90.5,295 90.5,295 93.7815,295 100,278.671 100,274 100,274 97,273.5 97,273.5 90.3261,266.826 102,261.208 102,265  Z"/>

<path  fill="#FFFF00" stroke-width="0" stroke="#FFFF00" d = " M262 218 C259.891,218 260,216.838 260,220 260,220 262,218 262,218  Z"/>

<path  fill="#46A515" stroke-width="0" stroke="#46A515" d = " M89 219 C89,231.121 101.999,219 89,219  Z"/>

<path  fill="#FFFF00" stroke-width="0" stroke="#FFFF00" d = " M385 241 C385,243.186 388.726,241.387 389.5,241 394.315,238.592 397.462,238.576 400,233.5 400.848,231.805 402.726,223.113 406.5,225 408.842,226.171 408.824,232.338 413.5,230 417.148,228.176 417.794,219.647 424.5,223 428.763,225.131 422.752,228.997 422,230.5 419.804,234.892 398.921,240.341 401,244.5 403.334,249.168 417.807,244.347 420.5,243 L428.5,235 C432.833,232.834 426.054,245.277 429.5,247 433.874,249.187 441.253,239.006 444,244.5 449.652,255.804 437.471,256.485 430.5,253 428.528,252.014 427.714,254.107 425.5,253 423.992,252.246 418,253.667 418,255.5 418,262.598 433.542,261.521 436.5,263 438.088,263.794 443.302,266.896 442,269.5 437.382,278.735 425.227,262.045 421,270.5 417.392,277.717 427.388,277.444 430.5,279 L434,282.5 C431.89,286.72 417.762,288.131 413.5,286 412.024,285.262 413.55,277.475 408.5,280 403.208,282.646 404.439,294.97 396.5,291 393.404,289.452 392.213,286.926 391,284.5 L388,281.5 C381.511,268.521 410.95,275.6 413,271.5 416.37,264.761 408.738,263.975 407,260.5 406.143,258.786 406.776,256.138 404.5,255 395.984,250.742 396.279,266.389 389.5,263 386.826,261.663 392.134,255 385,255 385,256.606 382.919,259.339 384,261.5 384.859,263.217 388.057,268.386 387,270.5 385.289,273.923 381.644,280.788 384,285.5 385.326,288.152 388.423,288.962 390.5,290 390.5,290 394.5,294 394.5,294 401.423,297.461 405.635,292.433 410.5,290 413.12,288.69 415.508,293.496 418.5,292 423.608,289.446 428.062,290.719 433.5,288 440.079,284.71 435.308,279.884 437,276.5 437.864,274.773 443.43,275.64 445,272.5 445.881,270.738 447.125,264.75 446,262.5 445.524,261.547 441.957,262.586 443,260.5 443.687,259.126 447.747,258.007 449,255.5 451.103,251.294 447.13,240.815 443.5,239 441.845,238.173 440.191,239.882 439,237.5 436.656,232.813 431.474,229.448 431,228.5 430.519,227.538 433.774,223.137 431.5,222 426.67,219.585 410.092,217.204 404.5,220 398.783,222.859 395.463,229.575 393,234.5 393,234.5 385,241 385,241  Z"/>

<path  fill="#FFFF00" stroke-width="0" stroke="#FFFF00" d = " M372 222 C369.349,222 349.694,229.597 358.5,234 363.948,236.724 368.679,230.59 373.5,233 376.35,234.425 374.92,237 379,237 379,237 380,229.5 380,229.5 378.083,225.665 372,227.759 372,222  Z"/>

<path  fill="#46A515" stroke-width="0" stroke="#46A515" d = " M388 227 L384,232.5 C379.509,241.482 401.694,227 388,227  Z"/>

<path  fill="#EB57FF" stroke-width="0" stroke="#EB57FF" d = " M199 239 L205.5,236 L222.5,235 L227.5,239 C229.577,240.038 232.674,240.848 234,243.5 235.268,246.036 235.772,249.044 237,251.5 238.094,253.689 240,254.345 240,258 240,260.235 226.544,260.022 224.5,259 219.512,256.506 212.537,258.519 207.5,256 202.593,253.546 203.956,245.413 202,241.5 202,241.5 199,239 199,239  Z"/>

<path  fill="#EB57FF" stroke-width="0" stroke="#EB57FF" d = " M284 237 C274.59,237 271.423,233.038 261.5,238 259.51,238.995 255.198,240.104 254,242.5 L253,249.5 C251.818,251.863 247,254.283 247,258 247,258 249.5,260 249.5,260 253.581,262.04 260.239,257.369 263.5,259 264.955,259.728 268.573,260.964 270.5,260 275.927,257.287 282.427,246.647 285,241.5 285,241.5 284,237 284,237  Z"/>

<path  fill="#9953FF" stroke-width="0" stroke="#9953FF" d = " M240 342 L247,342 C247,332.73 272,333.156 272,341 281.966,341 292.144,337.178 300.5,333 300.5,333 304.5,333 304.5,333 314.29,328.105 316.809,328.882 322,318.5 322,318.5 324,316 324,316 322.005,316 322,311.623 322,310 319.503,310 315.992,299.484 315,297.5 315,297.5 312,295.5 312,295.5 310.256,292.012 310.727,286.953 309,283.5 306.497,278.495 297.415,280.331 295,275.5 294.252,274.005 295.477,272.547 296,271.5 300.023,263.454 304.39,264 312,264 312,261.823 311.359,260 314,260 314,260 316,260 316,260 316,260 317,259 317,259 317,259 313,250.5 313,250.5 311.486,247.472 314,242.618 314,240 314,237.706 300.009,233.746 297.5,235 297.5,235 291.5,238 291.5,238 290.485,238.508 284,233.973 284,237 284,237 285,241.5 285,241.5 282.427,246.647 275.927,257.287 270.5,260 268.573,260.964 264.955,259.728 263.5,259 260.239,257.369 253.581,262.04 249.5,260 249.5,260 247,258 247,258 247,258 240,258 240,258 240,260.235 226.544,260.022 224.5,259 219.512,256.506 212.537,258.519 207.5,256 202.593,253.546 203.956,245.413 202,241.5 202,241.5 199,239 199,239 199,233.128 174.069,240 172,240 172,243.089 176.011,247.477 174,251.5 172.782,253.935 171,254.966 171,258 172.238,258 174,258.423 174,260 174,260 177,262 177,262 179.781,262 179.461,264.981 181.5,266 181.5,266 188.5,265 188.5,265 202.607,272.053 179.912,282.676 178,286.5 175.282,291.936 176.324,309 168,309 168,310.606 170.081,313.339 169,315.5 169,315.5 165,318 165,318 165,321.918 169.646,322.791 171,325.5 176.495,336.49 183.537,330.518 190.5,334 197.897,337.698 207.237,341 216,341 216,331.008 240,334.168 240,342  Z"/>

<path  fill="#34FF0D" stroke-width="0" stroke="#34FF0D" d = " M168 261 C168,259.356 155.091,272 154,272 140.434,272 150.616,243.942 158.5,240 160.116,239.192 172,232.915 172,240 172,243.089 176.011,247.477 174,251.5 172.782,253.935 171,254.966 171,258 171,258 171,259 171,259 171,259 170,260 170,260 170,260 168,261 168,261  Z"/>

<path  fill="#34FF0D" stroke-width="0" stroke="#34FF0D" d = " M317 259 C320.526,259 334,271.687 334,275 343.616,275 339.832,263.164 337,257.5 335.59,254.681 336.453,250.406 335,247.5 333.064,243.627 321.83,235.835 317.5,238 317.5,238 314,240 314,240 314,242.618 311.486,247.472 313,250.5 313,250.5 317,259 317,259  Z"/>

<path  fill="#9953FF" stroke-width="0" stroke="#9953FF" d = " M135 242 L134,243 C134,243 135,242 135,242  Z"/>

<path  fill="#00FFFF" stroke-width="0" stroke="#00FFFF" d = " M129 247 C129,248.399 131,248.399 131,247 130.161,247 129,245.07 129,247  Z"/>

<path  fill="#FFFF00" stroke-width="0" stroke="#FFFF00" d = " M377 252 C377,253.473 375.048,253 374,253 374,250.833 377,250.066 377,252  Z"/>

<path  fill="#FA8072" stroke-width="0" stroke="#FA8072" d = " M168 309 C168,310.606 170.081,313.339 169,315.5 L165,318 C162.485,318 161.124,319.312 158.5,318 153.708,315.604 147,295.905 147,289.5 147,283.85 154,276.004 154,272 155.091,272 168,259.356 168,261 168,263.092 170,261.652 170,260 170,260 171,259 171,259 171,259 174,260 174,260 174,260 177,262 177,262 177,266.778 170.177,268.146 168,272.5 164.606,279.288 162.268,284.964 159,291.5 157.33,294.84 160.446,303.946 162.5,306 163.516,307.016 168,308.379 168,309  Z"/>

<path  fill="#FA8072" stroke-width="0" stroke="#FA8072" d = " M322 310 C322,311.623 322.005,316 324,316 334.485,316 344.948,295.396 339,283.5 339,283.5 334,275 334,275 334,271.687 320.526,259 317,259 317,259 316,260 316,260 316,261.399 314,261.399 314,260 311.359,260 312,261.823 312,264 312,267.78 314.937,264.374 316,266.5 316,266.5 315,268.5 315,268.5 315,270.937 319.461,270.421 320,271.5 322.656,276.811 325.312,282.124 328,287.5 329.063,289.625 328.123,304.255 327,306.5 325.97,308.56 322,307.365 322,310  Z"/>

<path  fill="#46A515" stroke-width="0" stroke="#46A515" d = " M376 260 C376,260.372 370.836,263.828 370,265.5 L370,272.5 L370,277.5 C370,281.085 376.526,282.449 378,279.5 379.755,275.991 382.464,260 376,260  Z"/>

<path  fill="#00FFFF" stroke-width="0" stroke="#00FFFF" d = " M106 262 C103.959,262 103,262.959 103,265 103,265 108,263.5 108,263.5 108,263.5 106,262 106,262  Z"/>

<path  fill="#5BF1FF" stroke-width="0" stroke="#5BF1FF" d = " M177 262 C179.781,262 179.461,264.981 181.5,266 L188.5,265 C202.607,272.053 179.912,282.676 178,286.5 175.282,291.936 176.324,309 168,309 168,308.379 163.516,307.016 162.5,306 160.446,303.946 157.33,294.84 159,291.5 162.268,284.964 164.606,279.288 168,272.5 170.177,268.146 177,266.778 177,262  Z"/>

<path  fill="#00FFFF" stroke-width="0" stroke="#00FFFF" d = " M102 265 C99.2442,265 102.756,274 100,274 100,274 97,273.5 97,273.5 90.3261,266.826 102,261.208 102,265  Z"/>

<path  fill="#5BF1FF" stroke-width="0" stroke="#5BF1FF" d = " M312 264 C304.39,264 300.023,263.454 296,271.5 295.477,272.547 294.252,274.005 295,275.5 297.415,280.331 306.497,278.495 309,283.5 310.727,286.953 310.256,292.012 312,295.5 L315,297.5 C315.992,299.484 319.503,310 322,310 322,307.365 325.97,308.56 327,306.5 328.123,304.255 329.063,289.625 328,287.5 325.312,282.124 322.656,276.811 320,271.5 319.461,270.421 315,270.937 315,268.5 315,268.5 316,266.5 316,266.5 314.937,264.374 312,267.78 312,264  Z"/>

<path  fill="#46A515" stroke-width="0" stroke="#46A515" d = " M108 269 C108,271.384 101.246,280.373 106.5,283 109.534,284.517 108.486,276.528 109,275.5 L115,269.5 L108,269  Z"/>

<path  fill="#46A515" stroke-width="0" stroke="#46A515" d = " M103 291 L101,295 C101,297.858 103.271,301 106.5,301 L108,298.5 L106,296.5 C104.892,294.283 108.974,291 103,291  Z"/>

<path  fill="#46A515" stroke-width="0" stroke="#46A515" d = " M442 291 L440,294.5 C442.422,299.343 451.135,291 442,291  Z"/>

<path  fill="#46A515" stroke-width="0" stroke="#46A515" d = " M385 294 L384,297.5 C386.617,302.733 393.283,294 385,294  Z"/>

<path  fill="#46A515" stroke-width="0" stroke="#46A515" d = " M379 299 C379,300.332 371.019,305.539 374,311.5 376.734,316.969 376.52,310.01 380.5,312 L383.5,316 C385.858,317.179 399.331,321.838 401,318.5 403.02,314.459 396.649,315.797 396,314.5 L395,308.5 C392.698,303.896 389.674,306.587 386.5,305 382.843,303.172 383.928,299 379,299  Z"/>

<path  fill="#46A515" stroke-width="0" stroke="#46A515" d = " M97 306 C97,308.551 90.7396,309.979 93,314.5 96.2336,320.967 122.75,317.625 107.5,310 L101.5,309 C99.4731,307.987 100.418,306 97,306  Z"/>

<path  fill="#FF3427" stroke-width="0" stroke="#FF3427" d = " M216 341 C216,352.693 240,355.393 240,342 240,334.168 216,331.008 216,341  Z"/>

<path  fill="#FF3427" stroke-width="0" stroke="#FF3427" d = " M272 341 C272,351.358 259.545,351.522 252.5,348 250.658,347.079 247.979,342 247,342 247,332.73 272,333.156 272,341  Z"/>

</g>
</svg>
