<svg xmlns="http://www.w3.org/2000/svg" xmlns:xlink="http://www.w3.org/1999/xlink" height="512" width="512">
<g>
<rect width="512" height="512" fill="#000000"  stroke-width="0" /> 
<path  fill="#03C12D" stroke-width="0" stroke="#03C12D" d = " M384 174 C385.476,174 392,177.343 392,179 395.034,179 396.065,177.218 398.5,176 401.623,174.438 404.84,177.33 407.5,176 414.514,172.493 423.794,170 431,170 431,165.615 416.772,143.044 414,137.5 413.665,136.83 403.976,129.738 402.5,129 402.5,129 400.5,125 400.5,125 394.375,121.938 388.245,113.372 381.5,110 381.5,110 375.5,103 375.5,103 375.5,103 353.5,93 353.5,93 353.5,93 349.5,89 349.5,89 341.645,85.0727 334.813,80.6565 327.5,77 327.346,76.923 317.945,77.7224 312.5,75 312.5,75 306.5,75 306.5,75 294.149,68.8245 276.427,78.5365 267.5,83 265.92,83.7899 255,82.9726 255,86.5 255,90.9333 256.066,98.6318 258,102.5 258,102.5 264,111 264,111 264,111 264,112 264,112 264,112 265,113 265,113 265,113 266,115 266,115 266,115 268,116 268,116 271.832,116 275.238,120.369 278.5,122 284.436,124.968 292.601,124.05 298.5,127 298.5,127 305,131 305,131 307.929,131 317.453,125 322,125 322,120.95 312.046,119.408 314,115.5 314.885,113.731 317.925,117 319,117 323.188,117 332.478,123.978 335.5,127 347.488,138.988 364.716,144.932 372,159.5 372,159.5 376.5,162 376.5,162 376.5,162 377,164.5 377,164.5 377,164.5 384,174 384,174  Z"/>

<path  fill="#03C12D" stroke-width="0" stroke="#03C12D" d = " M52 178 C57.4379,178 86.7053,181.603 89.5,183 91.5194,184.01 82.1914,191 86,191 89.3187,191 97.5673,176.466 102.5,174 106.211,172.145 114.849,161.803 117,157.5 119.591,152.318 144.433,133.033 150.5,130 154.663,127.919 158.391,125.055 162.5,123 163.327,122.586 166.33,119.16 167,120.5 168.552,123.604 163,125.623 163,128 165.448,128 179,131.759 179,135 180.482,135 206.617,126.941 208.5,126 211.885,124.308 216.132,119 220,119 220,119 222,117 222,117 222,117 222,116 222,116 222,116 223,115 223,115 223,115 227,106 227,106 227,106 226,93.5 226,93.5 224.999,91.497 219.331,90.9155 217.5,90 208.578,85.5388 199.982,80 190.5,80 190.5,80 186.5,77 186.5,77 186.5,77 183.5,78 183.5,78 181.789,77.1446 176.683,75.9086 174.5,77 168.578,79.9611 161.366,80.0672 155.5,83 146.114,87.6929 137.951,94.2743 128.5,99 126.461,100.019 123.615,99.9423 121.5,101 121.5,101 103.5,116 103.5,116 101.048,117.226 97.8113,116.844 95.5,118 95.5,118 93.5,122 93.5,122 90.934,123.283 88.0395,124.73 85.5,126 84.3119,126.594 84.6097,129.945 82.5,131 82.5,131 79,131.5 79,131.5 79,131.5 79,136.5 79,136.5 79,136.5 74,139.5 74,139.5 71.9677,143.565 67.0854,146.329 65,150.5 63.6157,153.269 63.3268,156.846 62,159.5 62,159.5 58,160.5 58,160.5 55.73,165.04 52,172.724 52,178  Z"/>

<path  fill="#DAAA3E" stroke-width="0" stroke="#DAAA3E" d = " M266 117 L262,123.5 C256.334,134.831 235.775,146.049 228,130.5 225.874,126.248 222,125.233 222,120 222,120 222,117 222,117 222,117 222,116 222,116 222,116 223,115 223,115 223,115 227,106 227,106 227,106 230.5,103 230.5,103 233.612,103 237.879,112.311 242.5,110 245.671,108.415 252.373,99.9366 256.5,102 258.994,103.247 259.733,111 264,111 264,111 264,112 264,112 264,112 265,113 265,113 265,113 266,115 266,115 266,115 266,117 266,117  Z"/>

<path  fill="#FF6E00" stroke-width="0" stroke="#FF6E00" d = " M390 234 C391.714,234 393.482,236 396,236 402.579,236 404,223.169 404,219 404,219 404,217 404,217 404,217 403,203.5 403,203.5 401.149,199.798 399,198.591 399,194 399,189.815 392,186.206 392,182 389.402,182 384,176.55 384,174 384,174 377,164.5 377,164.5 377,164.5 376.5,162 376.5,162 376.5,162 372,159.5 372,159.5 364.716,144.932 347.488,138.988 335.5,127 332.478,123.978 323.188,117 319,117 317.925,117 314.885,113.731 314,115.5 312.046,119.408 322,120.95 322,125 326.193,125 330.212,134 333,134 333,134 334,135 334,135 334,138.286 345,145.329 345,150 345,150 346,151 346,151 346,157.809 368,179.792 368,185 368,185 370,186 370,186 374.252,186 379.018,186 383,186 383,183.974 385,186.104 385,187 385,187 393,193.5 393,193.5 396.152,199.804 400.639,212.223 397,219.5 394.652,224.196 381.897,209.801 379.5,211 377.12,212.19 382.482,216.465 383,217.5 383,217.5 384,227 384,227 384,227 386,231 386,231 386,231 388,233 388,233 388,233 390,234 390,234  Z"/>

<path  fill="#022CFF" stroke-width="0" stroke="#022CFF" d = " M151 181 C151,182.473 152.952,182 154,182 154,178.044 158.55,175.399 160,172.5 165.005,162.489 172.198,150.151 182.5,145 182.5,145 189.5,138 189.5,138 194.368,135.566 210.057,145 216,145 216,139.272 235,136.915 235,149 240.773,149 242.347,157.577 249.5,154 249.5,154 252.5,151 252.5,151 252.5,151 256,148 256,148 256,148 255,143.5 255,143.5 258.838,135.823 270.586,143 276,143 284.117,143 294.783,134.641 303.5,139 307.229,140.864 321.883,154 322,154 322,149.626 305,131.774 305,131 305,131 298.5,127 298.5,127 292.601,124.05 284.436,124.968 278.5,122 275.238,120.369 271.832,116 268,116 268,116 266,117 266,117 266,117 262,123.5 262,123.5 256.334,134.831 235.775,146.049 228,130.5 225.874,126.248 222,125.233 222,120 222,120 220,119 220,119 216.132,119 211.885,124.308 208.5,126 206.617,126.941 180.482,135 179,135 179,135 178,136 178,136 178,138.51 171.97,141.561 171,143.5 168.217,149.066 152,175.377 152,179 152,179 151,181 151,181  Z"/>

<path  fill="#FF6E00" stroke-width="0" stroke="#FF6E00" d = " M99 247 C95.4201,247 92.1683,250 88,250 88,250 80,246 80,246 80,246 78,243.5 78,243.5 77.4264,242.353 79.0638,239 77,239 77,239 76,226 76,226 78.2074,226 76.3382,220.824 77,219.5 80.3983,212.703 86,201.834 86,194 86,194 86,193 86,193 86,193 86,191 86,191 89.3187,191 97.5673,176.466 102.5,174 106.211,172.145 114.849,161.803 117,157.5 119.591,152.318 144.433,133.033 150.5,130 154.663,127.919 158.391,125.055 162.5,123 163.327,122.586 166.33,119.16 167,120.5 168.552,123.604 163,125.623 163,128 157.53,128 156.594,138.453 153.5,140 145.826,143.837 135.017,166.466 131,174.5 127.25,182 125.003,186 116,186 116,186 114,185 114,185 112.486,185 110.762,180.369 107.5,182 88.9373,191.281 90.9209,204.658 83,220.5 83,220.5 84,230 84,230 84,235.074 89.5083,238 94,238 95.1452,238 98,238.579 98,237 100.003,237 101,236.707 101,239 101,242.138 99,244.662 99,247  Z"/>

<path  fill-rule="evenodd" fill="#DDD951" stroke-width="0" stroke="#DDD951" d = " M375 188 L376,196 L376,202 C376,203.578 378.875,211.751 380,209.5 382.458,204.584 380.475,188 375,188  M383 230 L377.5,229 C370.099,232.7 353,239.781 353,250 350.299,250 346.174,244.849 345,242.5 345,242.5 345,229.5 345,229.5 342.266,224.033 342,216.759 342,210.5 342,208.035 341.899,196 339,196 339,185.984 333.225,175.95 329,167.5 328.18,165.86 327.495,159 325,159 325,159 322,155 322,155 322,155 322,154 322,154 322,149.626 305,131.774 305,131 307.929,131 317.453,125 322,125 326.193,125 330.212,134 333,134 333,134 334,135 334,135 334,138.286 345,145.329 345,150 345,150 346,151 346,151 346,157.809 368,179.792 368,185 368,186.557 370,189.436 370,186 374.252,186 379.018,186 383,186 383,186 385,187 385,187 385,187 393,193.5 393,193.5 396.152,199.804 400.639,212.223 397,219.5 394.652,224.196 381.897,209.801 379.5,211 377.12,212.19 382.482,216.465 383,217.5 383,217.5 384,227 384,227 382.527,227 383,228.952 383,230  Z"/>

<path  fill="#DDD951" stroke-width="0" stroke="#DDD951" d = " M101 239 C109.749,239 124.341,257 131,257 131,257 139,250.5 139,250.5 139,250.5 139,233.5 139,233.5 143.987,223.525 139.994,209.512 145,199.5 146.336,196.828 146.553,181 151,181 151,181 152,179 152,179 152,175.377 168.217,149.066 171,143.5 171.97,141.561 178,138.51 178,136 178,136 179,135 179,135 179,131.759 165.448,128 163,128 157.53,128 156.594,138.453 153.5,140 145.826,143.837 135.017,166.466 131,174.5 127.25,182 125.003,186 116,186 116,188.913 114,187.456 114,185 112.486,185 110.762,180.369 107.5,182 88.9373,191.281 90.9209,204.658 83,220.5 83,220.5 84,230 84,230 87.2837,230 86.1415,232.821 88.5,234 91.5943,235.547 95.7134,231.107 97.5,232 99.3006,232.9 97,235.167 97,236 97,236 98,237 98,237 100.003,237 101,236.707 101,239  Z"/>

<path  fill="#03C12D" stroke-width="0" stroke="#03C12D" d = " M179 135 L178,136 C178,136 179,135 179,135  Z"/>

<path  fill="#EE2F2C" stroke-width="0" stroke="#EE2F2C" d = " M197 195 L195,196.5 C189.269,207.961 185.079,206.711 174.5,212 168.829,214.836 164.967,218 158,218 158,215.738 153.131,209.761 152,207.5 149.049,201.599 154,187.454 154,182 154,178.044 158.55,175.399 160,172.5 165.005,162.489 172.198,150.151 182.5,145 182.5,145 189.5,138 189.5,138 194.368,135.566 210.057,145 216,145 216,145 218,149 218,149 218,154.445 208.324,153.852 206,158.5 206,158.5 202,173.5 202,173.5 202,173.5 194,182.5 194,182.5 194,182.5 195,186.5 195,186.5 195,186.5 193,187.5 193,187.5 191.839,189.822 197,192.435 197,195  Z"/>

<path  fill="#EE2F2C" stroke-width="0" stroke="#EE2F2C" d = " M339 196 C339,202.484 331,216.266 331,222 325.635,222 320.648,214.574 317.5,213 310.5,209.5 303.585,206.67 300,199.5 298.659,196.818 294,195.179 294,192 294,187.264 292.462,180.423 290,175.5 290,175.5 284,169.5 284,169.5 282.696,166.892 286.583,164.665 285,161.5 281.936,155.371 274,157.43 274,149 278.406,149 276,145.653 276,143 284.117,143 294.783,134.641 303.5,139 307.229,140.864 321.883,154 322,154 322,154 322,155 322,155 322,155 325,159 325,159 327.495,159 328.18,165.86 329,167.5 333.225,175.95 339,185.984 339,196  Z"/>

<path  fill="#5600DD" stroke-width="0" stroke="#5600DD" d = " M218 149 C224.44,149 230.013,149 235,149 235,136.915 216,139.272 216,145 216,145 218,149 218,149  Z"/>

<path  fill="#5600DD" stroke-width="0" stroke="#5600DD" d = " M256 148 C259.166,148 261.886,148.693 264.5,150 265.116,150.308 272.263,149 274,149 278.406,149 276,145.653 276,143 270.586,143 258.838,135.823 255,143.5 255,143.5 256,148 256,148  Z"/>

<path  fill="#E1970F" stroke-width="0" stroke="#E1970F" d = " M197 195 C200.112,195 201.076,201.288 204.5,203 207.46,204.48 209.393,203 212,203 212,203 214,200.5 214,200.5 215.328,197.845 214.009,191.482 217,185.5 217,185.5 224,178 224,178 224,177.198 219.802,177.895 221,175.5 221,175.5 223.5,176 223.5,176 223.5,176 227.5,172 227.5,172 229.892,170.804 233.173,171.163 235.5,170 240.715,167.392 259.75,164.001 264,172.5 264,172.5 262,175 262,175 262,177.624 268.41,179.91 270,181.5 273.016,184.516 277,192.874 277,197 280.172,197 283.873,202.313 288.5,200 290.513,198.993 293.816,192 294,192 294,187.264 292.462,180.423 290,175.5 290,175.5 284,169.5 284,169.5 282.696,166.892 286.583,164.665 285,161.5 281.936,155.371 274,157.43 274,149 272.263,149 265.116,150.308 264.5,150 261.886,148.693 259.166,148 256,148 256,148 252.5,151 252.5,151 252.5,151 249.5,154 249.5,154 242.347,157.577 240.773,149 235,149 230.013,149 224.44,149 218,149 218,154.445 208.324,153.852 206,158.5 206,158.5 202,173.5 202,173.5 202,173.5 194,182.5 194,182.5 194,182.5 195,186.5 195,186.5 195,186.5 193,187.5 193,187.5 191.839,189.822 197,192.435 197,195  Z"/>

<path  fill="#022CFF" stroke-width="0" stroke="#022CFF" d = " M322 155 L325,159 C325,159 322,155 322,155  Z"/>

<path  fill="#93FF27" stroke-width="0" stroke="#93FF27" d = " M262 175 C258.632,175 245.472,171.514 242.5,173 237.201,175.649 230.262,178 224,178 224,177.198 219.802,177.895 221,175.5 221,175.5 223.5,176 223.5,176 223.5,176 227.5,172 227.5,172 229.892,170.804 233.173,171.163 235.5,170 240.715,167.392 259.75,164.001 264,172.5 264,172.5 262,175 262,175  Z"/>

<path  fill="#89D355" stroke-width="0" stroke="#89D355" d = " M407 215 C415.013,215 427.421,230 434,230 441.666,230 444.575,219.351 447,214.5 447,214.5 445,208.5 445,208.5 445,203.11 440.425,187.35 438,182.5 436.177,178.854 431,174.171 431,170 423.794,170 414.514,172.493 407.5,176 404.84,177.33 401.623,174.438 398.5,176 396.065,177.218 395.034,179 392,179 389.627,179 392,181.284 392,182 392,186.206 399,189.815 399,194 399,194 401.5,198 401.5,198 402.406,198.906 407,213.639 407,215  Z"/>

<path  fill-rule="evenodd" fill="#07FF59" stroke-width="0" stroke="#07FF59" d = " M243 186 C243,188.453 237.446,194.608 236,197.5 L239,201.5 C239.703,202.906 242.117,210.691 245.5,209 248.317,207.592 254.643,195.787 253,192.5 251.875,190.25 249.25,189.875 247.5,189 L243,186  M277 197 L276,202.5 C278.575,207.65 282.074,214.352 279,220.5 277.942,222.615 272.355,222.073 270.5,223 L264.5,229 C260.498,231.001 254.471,230.014 250.5,232 248.733,232.884 243.849,241 243.5,241 241.179,241 242.038,236.576 241,234.5 L233.5,230 L226.5,230 L222.5,225 C217.324,222.412 210.988,223.476 208,217.5 206.27,214.041 212,206.755 212,203 212,203 214,200.5 214,200.5 215.328,197.845 214.009,191.482 217,185.5 217,185.5 224,178 224,178 230.262,178 237.201,175.649 242.5,173 245.472,171.514 258.632,175 262,175 262,177.624 268.41,179.91 270,181.5 273.016,184.516 277,192.874 277,197  Z"/>

<path  fill="#89D355" stroke-width="0" stroke="#89D355" d = " M73 225 C65.5076,225 53.8184,236 49,236 49,234.012 45.6847,233.592 44.5,233 44.5,233 38,225.5 38,225.5 34.2686,218.037 42.1217,196.257 45,190.5 46.4574,187.585 46.0397,178 52,178 57.4379,178 86.7053,181.603 89.5,183 91.5194,184.01 82.1914,191 86,191 86,191 86,193 86,193 86,193 85,194 85,194 82.3233,194 82.3973,199.103 81,200.5 76.8842,204.616 78.5427,214.415 76,219.5 76,219.5 73,225 73,225  Z"/>

<path  fill="#022CFF" stroke-width="0" stroke="#022CFF" d = " M243 186 C243,188.453 237.446,194.608 236,197.5 L239,201.5 C239.703,202.906 242.117,210.691 245.5,209 248.317,207.592 254.643,195.787 253,192.5 251.875,190.25 249.25,189.875 247.5,189 L243,186  Z"/>

<path  fill="#FF6E00" stroke-width="0" stroke="#FF6E00" d = " M375 188 L376,196 L376,202 C376,203.578 378.875,211.751 380,209.5 382.458,204.584 380.475,188 375,188  Z"/>

<path  fill="#9953FF" stroke-width="0" stroke="#9953FF" d = " M226 307 C228.504,307 232.232,303.134 234.5,302 237.617,300.442 239.901,304 242,304 244.591,304 246.996,300.748 249.5,302 254.586,304.543 255.673,308 261,308 261,304.946 268.585,302.957 270.5,302 278.501,297.999 287.202,293 297,293 297,291.03 308.199,280.101 310,276.5 314.566,267.368 319.447,258.606 324,249.5 325.708,246.085 324.329,240.841 326,237.5 328.716,232.069 331,227.469 331,222 325.635,222 320.648,214.574 317.5,213 310.5,209.5 303.585,206.67 300,199.5 298.659,196.818 294,195.179 294,192 293.816,192 290.513,198.993 288.5,200 283.873,202.313 280.172,197 277,197 277,197 276,202.5 276,202.5 278.575,207.65 282.074,214.352 279,220.5 277.942,222.615 272.355,222.073 270.5,223 270.5,223 264.5,229 264.5,229 260.498,231.001 254.471,230.014 250.5,232 248.733,232.884 243.849,241 243.5,241 241.179,241 242.038,236.576 241,234.5 241,234.5 233.5,230 233.5,230 233.5,230 226.5,230 226.5,230 226.5,230 222.5,225 222.5,225 217.324,222.412 210.988,223.476 208,217.5 206.27,214.041 212,206.755 212,203 209.393,203 207.46,204.48 204.5,203 201.076,201.288 200.112,195 197,195 197,195 195,196.5 195,196.5 189.269,207.961 185.079,206.711 174.5,212 168.829,214.836 164.967,218 158,218 158,232.982 165.155,251.811 172,265.5 175.675,272.851 188,281.574 188,290 188,291.815 204.105,294.803 206.5,296 210.557,298.028 221.428,307 226,307  Z"/>

<path  fill="#03C12D" stroke-width="0" stroke="#03C12D" d = " M85 194 L86,194 C86,194 86,193 86,193 86,193 85,194 85,194  Z"/>

<path  fill="#2E8B57" stroke-width="0" stroke="#2E8B57" d = " M434 230 C434,233.023 441.501,240.501 443,243.5 443.775,245.05 444.194,255.112 443,257.5 L440,261 C440,261 433,253.5 433,253.5 433,253.5 406,228 406,228 406,227.108 404.695,219 404,219 404,219 404,217 404,217 405.238,217 407,216.577 407,215 415.013,215 427.421,230 434,230  Z"/>

<path  fill="#2E8B57" stroke-width="0" stroke="#2E8B57" d = " M77 239 C77,243.82 70.4105,245.545 67.5,247 L63.5,252 C57.6634,254.918 50.6866,264 43,264 43,254.043 37.3439,249.156 46,240.5 46,240.5 49,236 49,236 53.8184,236 65.5076,225 73,225 73,225 76,226 76,226 76,226 77,239 77,239  Z"/>

<path  fill="#7F81FF" stroke-width="0" stroke="#7F81FF" d = " M440 261 C440,267.156 432.432,280.034 426.5,283 425.004,283.748 415,288.442 415,284 415,284 417,280.5 417,280.5 420.701,273.098 413.86,252.219 411,246.5 409.853,244.206 406.792,235 403,235 403,232.029 406,230.232 406,228 406,228 433,253.5 433,253.5 433,253.5 440,261 440,261  Z"/>

<path  fill="#FFBB0D" stroke-width="0" stroke="#FFBB0D" d = " M353 250 C353,254.768 355.347,265 361,265 361,259.187 388,241.336 388,235 388,235 388,233 388,233 388,233 386,231 386,231 386,231 383,230 383,230 383,230 377.5,229 377.5,229 370.099,232.7 353,239.781 353,250  Z"/>

<path  fill="#41FF27" stroke-width="0" stroke="#41FF27" d = " M361 265 C365.684,265 359.792,273.084 361,275.5 363.491,280.481 374.286,279 378,279 378,279 385,270.5 385,270.5 392.751,262.749 397,250.295 397,238 397,238 396,236 396,236 393.482,236 391.714,234 390,234 390,234 388,235 388,235 388,241.336 361,259.187 361,265  Z"/>

<path  fill="#8B008B" stroke-width="0" stroke="#8B008B" d = " M378 279 C378,280.814 380.836,283 382.5,283 391.291,283 397.418,281.959 405.5,286 408.825,287.662 412.353,284 415,284 415,284 417,280.5 417,280.5 420.701,273.098 413.86,252.219 411,246.5 409.853,244.206 406.792,235 403,235 403,235 397,238 397,238 397,250.295 392.751,262.749 385,270.5 385,270.5 378,279 378,279  Z"/>

<path  fill="#FFBB0D" stroke-width="0" stroke="#FFBB0D" d = " M98 237 C98,238.579 95.1452,238 94,238 94,236.423 95.7617,236 97,236 97,236 98,237 98,237  Z"/>

<path  fill="#7F81FF" stroke-width="0" stroke="#7F81FF" d = " M43 264 C43,269.613 53.2841,285.392 58.5,288 59.8665,288.683 69.0051,288 71,288 71,283.714 66.3166,274.867 69,269.5 71.197,265.106 80,250.049 80,246 80,246 78,243.5 78,243.5 77.4264,242.353 79.0638,239 77,239 77,243.82 70.4105,245.545 67.5,247 67.5,247 63.5,252 63.5,252 57.6634,254.918 50.6866,264 43,264  Z"/>

<path  fill="#FFBB0D" stroke-width="0" stroke="#FFBB0D" d = " M131 257 C131,261.96 128.555,269 123,269 123,268.873 107.208,254.708 105,252.5 105,252.5 99,247 99,247 99,244.662 101,242.138 101,239 109.749,239 124.341,257 131,257  Z"/>

<path  fill="#8B008B" stroke-width="0" stroke="#8B008B" d = " M99 285 C92.1462,285 84.305,287.097 78.5,290 75.569,291.465 73.2028,288 71,288 71,283.714 66.3166,274.867 69,269.5 71.197,265.106 80,250.049 80,246 80,246 88,250 88,250 88,250 91,265.5 91,265.5 91,265.5 94,267.5 94,267.5 94,267.5 94.5,276 94.5,276 97.1512,277.326 95.1684,272 96.5,272 96.5,272 97,278 97,278 97,281.066 99,282.417 99,285  Z"/>

<path  fill="#41FF27" stroke-width="0" stroke="#41FF27" d = " M123 269 L123,279.5 C119.957,285.587 104.474,285 99,285 99,282.417 97,281.066 97,278 97,278 96.5,272 96.5,272 95.1684,272 97.1512,277.326 94.5,276 94.5,276 94,267.5 94,267.5 94,267.5 91,265.5 91,265.5 91,265.5 88,250 88,250 92.1683,250 95.4201,247 99,247 99,247 105,252.5 105,252.5 107.208,254.708 123,268.873 123,269  Z"/>

<path  fill="#FA8072" stroke-width="0" stroke="#FA8072" d = " M342 280 C342,280.298 333.578,283.461 332.5,284 330.42,285.04 320.204,299.091 319,301.5 313.644,312.212 310.374,314.249 316,325.5 L320.5,332 L326.5,326 L332.5,325 C341.086,320.707 348.193,301.113 352,293.5 354.703,288.094 346.148,280 342,280  Z"/>

<path  fill-rule="evenodd" fill="#FA8072" stroke-width="0" stroke="#FA8072" d = " M166 322 C166,329.408 169.478,322 166,322  M144 284 C144,287.707 133.151,290.801 138,300.5 140.493,305.485 143.504,310.508 146,315.5 L157.5,327 L162.5,327 L163.5,331 C167.135,332.817 173.891,326.718 175,324.5 L174,321.5 L176,319.5 L172,318.5 C170.862,316.225 173.658,311.815 173,310.5 169.14,302.78 167.053,294.776 157.5,290 L154.5,284 L144,284  Z"/>

<path  fill="#FF3427" stroke-width="0" stroke="#FF3427" d = " M194 305 C200.303,305 226,321.932 226,307 221.428,307 210.557,298.028 206.5,296 204.105,294.803 188,291.815 188,290 183.868,290 187,294.907 187,297 187,297 190,301 190,301 190,301 194,305 194,305  Z"/>

<path  fill="#FF3427" stroke-width="0" stroke="#FF3427" d = " M293 306 L285.5,310 C283.396,311.052 279.713,308.393 278.5,309 274.741,310.88 261,318.339 261,308 261,304.946 268.585,302.957 270.5,302 278.501,297.999 287.202,293 297,293 297,293 298,297 298,297 298,297 295,303 295,303 293.423,303 293,304.762 293,306  Z"/>

<path  fill="#86CC4C" stroke-width="0" stroke="#86CC4C" d = " M185 296 L182.5,294 C179.794,292.647 173.129,294.757 175,298.5 L177,302 C178.336,302 185,299.474 185,296  Z"/>

<path  fill="#80AAFF" stroke-width="0" stroke="#80AAFF" d = " M191 306 C191,308.681 188.408,314.316 190,317.5 193.125,323.75 215.774,338.863 223.5,335 226.816,333.342 243.037,320.268 244.5,321 L253.5,331 C256.655,332.578 260.263,333.382 263.5,335 272.734,339.617 290.486,327.528 294,320.5 296.52,315.461 295,311.492 295,306 295,306 295,303 295,303 295,303 298,297 298,297 300.592,297 301.416,296.042 303.5,295 303.5,295 309,296 309,296 309,297.301 311.496,303 313,303 313,314.766 299.834,317.833 295,327.5 287.63,342.24 260.253,340.376 247.5,334 240.707,330.604 233.584,338 228,338 228,338 210.5,338 210.5,338 199.482,332.491 189.746,326.992 184,315.5 182.062,311.624 177,306.432 177,302 178.336,302 185,299.474 185,296 185,296 187,297 187,297 187,297 190,301 190,301 190,301 191,306 191,306  Z"/>

<path  fill="#86CC4C" stroke-width="0" stroke="#86CC4C" d = " M309 296 C310.804,296 314.136,293.818 316.5,295 321.527,297.513 315.969,303 313,303 311.496,303 309,297.301 309,296  Z"/>

<path  fill="#00D70B" stroke-width="0" stroke="#00D70B" d = " M226 307 C228.504,307 232.232,303.134 234.5,302 237.617,300.442 239.901,304 242,304 244.591,304 246.996,300.748 249.5,302 254.586,304.543 255.673,308 261,308 261,318.339 274.741,310.88 278.5,309 279.713,308.393 283.396,311.052 285.5,310 285.5,310 293,306 293,306 293,306 295,306 295,306 295,311.492 296.52,315.461 294,320.5 290.486,327.528 272.734,339.617 263.5,335 260.263,333.382 256.655,332.578 253.5,331 253.5,331 244.5,321 244.5,321 243.037,320.268 226.816,333.342 223.5,335 215.774,338.863 193.125,323.75 190,317.5 188.408,314.316 191,308.681 191,306 192.048,306 194,306.473 194,305 200.303,305 226,321.932 226,307  Z"/>

</g>
</svg>
