<svg xmlns="http://www.w3.org/2000/svg" xmlns:xlink="http://www.w3.org/1999/xlink" height="512" width="512">
<g>
<rect width="512" height="512" fill="#000000"  stroke-width="0" /> 
<path  fill-rule="evenodd" fill="#86FF5A" stroke-width="0" stroke="#86FF5A" d = " M240 339 C240,340.804 237.818,344.136 239,346.5 242.342,353.183 254.665,342.583 247.5,339 L240,339  M243 304 C243,305.781 232.824,305 231,305 226.234,305 217.67,307.915 213.5,310 206.547,313.476 201.143,323.214 198,329.5 196.426,332.647 197.627,337.247 196,340.5 191.029,350.441 201.539,370.579 205,377.5 L208.5,378 L213,384.5 C214.447,387.393 218.516,387.533 220,390.5 221.002,392.503 236.854,394.323 239.5,393 L243.5,388 L253.5,394 C259.999,397.25 279.49,383.52 282,378.5 286.029,370.442 291.022,363.456 295,355.5 295.015,355.47 292.671,340.843 292,339.5 291.024,337.547 290.359,327.218 288,322.5 280.459,307.418 260.763,304 243,304  Z"/>

<path  fill="#EB57FF" stroke-width="0" stroke="#EB57FF" d = " M240 339 C240,340.804 237.818,344.136 239,346.5 242.342,353.183 254.665,342.583 247.5,339 L240,339  Z"/>

</g>
</svg>
