<svg xmlns="http://www.w3.org/2000/svg" xmlns:xlink="http://www.w3.org/1999/xlink" height="512" width="512">
<g>
<rect width="512" height="512" fill="#000000"  stroke-width="0" /> 
<path  fill-rule="evenodd" fill="#FFFF00" stroke-width="0" stroke="#FFFF00" d = " M197 223 L196,226.5 C198.076,230.653 205.905,233.202 209.5,235 L215.5,235 C229.814,242.157 252.18,245.16 266.5,238 269.168,236.666 287,231.368 287,227.5 287,226.065 283.469,225.516 282.5,226 276.37,229.065 265.608,231 258.5,231 256.807,231 252.133,229.816 250.5,229 L228.5,229 C219.103,224.302 208.403,223 197,223  M278 190 C278,191.643 274.235,191 273,191 L257.5,192 C253.357,192 248.029,193.235 244.5,195 L220.5,196 C217.415,196 210.483,191.008 208.5,192 206.976,192.762 200.829,206.158 202,208.5 203.023,210.546 206.139,206.319 207.5,207 212.623,209.561 220.46,206.48 225.5,209 L229.5,212 C244.173,212 265.809,215.345 278.5,209 280.871,207.814 288.243,213.129 288.5,213 291.879,211.311 287.676,197.851 286,194.5 284.409,191.319 281.925,195.349 281,193.5 L278,190  M236 154 C236,156.308 228.987,154.257 227.5,155 220.481,158.509 211.172,158.164 203.5,162 197.428,165.036 192.866,174.769 190,180.5 L178,191.5 C173.795,199.911 168.277,207.947 164,216.5 L164,220.5 C160.48,227.54 154.098,230.701 147.5,234 146.242,234.629 144.231,236.962 145,238.5 145.949,240.399 153.587,240.957 155.5,240 162.454,236.523 174.223,229.055 178,221.5 179.068,219.363 180.112,213.194 182.5,212 187.571,209.465 191.598,220.305 194,215.5 196.978,209.544 197.049,202.402 200,196.5 202.702,191.095 196.172,182.664 203.5,179 211.351,175.074 230.129,181.685 241.5,176 243.508,174.996 252.172,178 255.5,178 262.02,178 275.45,174.975 281.5,178 294.922,184.711 288.825,211.163 306.5,220 L319.5,233 C323.958,235.229 329.151,235.826 333.5,238 334.489,238.494 344,242.195 344,238.5 344,234.476 337.515,231.507 334.5,230 327.884,226.692 313.205,218.91 310,212.5 307.475,207.451 316.983,207.466 313,199.5 307.441,188.382 290.641,163.571 279.5,158 270.806,153.653 245.524,154 236,154  M158 119 C158,120.55 151.772,121.364 150.5,122 143.365,125.567 136.674,130.413 129.5,134 117.035,140.233 108.618,166.263 103,177.5 102.031,179.439 105.552,181.974 107.5,181 L112.5,177 L125.5,173 C126.395,172.552 130.429,175.641 130,176.5 125.968,184.563 115.997,186.251 108.5,190 104.122,192.189 106.841,202.17 110.5,204 114.52,206.01 115.532,198.984 117.5,198 130.356,191.572 141.55,180.475 154.5,174 157.593,172.454 167.501,165.502 169,168.5 170.006,170.512 164.868,175.763 164,177.5 158.993,187.514 143.335,200.083 133.5,205 131.422,206.039 118,208.307 118,211.5 L120,213.5 L120,216.5 C121.302,219.104 126.285,217.071 128,220.5 129.421,223.342 128.114,237.193 136.5,233 144.332,229.084 142.88,217.741 146,211.5 L163,193.5 C169.825,179.85 178.073,169.427 190,157.5 L201.5,141 C203.077,140.211 233.407,143 238.5,143 242.013,143 260.403,144.549 263.5,143 267.633,140.933 277.383,136.941 281.5,139 288.087,142.293 294.686,150.871 298,157.5 L310,169.5 C316.188,181.875 332.524,194.549 338,205.5 341.373,212.246 330.271,219.386 347.5,228 357.638,233.069 354.154,219.192 355,217.5 357.559,212.382 364.624,213.253 367,208.5 368.721,205.058 354.091,201.796 352.5,201 342.1,195.8 333.56,189.06 325,180.5 315.18,170.68 304.914,158.328 299,146.5 L296,144.5 C294.695,141.89 291.887,133.193 289.5,132 286.576,130.538 283.725,134 281.5,134 L276.5,130 L274,131 C265.26,131 258.201,132 250.5,132 L223.5,132 C218.201,134.65 207.726,130.887 201.5,134 198.844,135.328 196.552,138.974 194.5,140 190.295,142.102 183.976,135.262 182.5,136 173.837,140.331 173.158,151 161.5,151 159.368,151 160.751,156.126 158.5,155 L157,150.5 L152,144.5 C150.401,141.301 165.039,132.422 166,130.5 170.118,122.265 166.983,119 158,119  M321 118 C321,120.144 316.738,118.381 315.5,119 L312.5,122 C310.14,122 307.309,121.596 304.5,123 302.581,123.96 303.659,125.182 303,126.5 L300,127.5 C298.354,130.793 297,136.731 297,140.5 L301.5,142 L302,144.5 L309,149.5 C309.767,151.033 322.957,161.728 325.5,163 L328.5,167 C339.088,172.294 345.632,181.566 356.5,187 359.935,188.717 374.199,204.103 377,198.5 L377,194.5 C385.306,177.889 363.021,180.76 353.5,176 L344.5,168 C341.784,166.642 331.39,154.72 332,153.5 333.588,150.324 340.917,150.708 343.5,152 L346.5,156 C352.853,159.177 359.989,160.745 366.5,164 367.8,164.65 374.229,171.041 376,167.5 378.239,163.022 366.877,154.255 365,150.5 357.817,136.135 338.346,118 321,118  M241 95 C241,97.144 236.738,95.3809 235.5,96 234.123,96.6885 230.103,99.8016 228.5,99 224.063,96.7813 204.736,102.027 202,107.5 200.5,110.499 200.394,115.712 199,118.5 198.123,120.253 195.718,121.937 197,124.5 198.529,127.559 213.269,116.884 217.5,119 219.202,119.851 234.507,114.496 237.5,113 239.966,111.767 245.043,114.729 246.5,114 251.528,111.486 257.206,114.147 259.5,113 264.798,110.351 268.579,109.461 273.5,107 276.265,105.617 268.744,98.6219 267.5,98 259.928,94.2139 250.614,95 241,95  M233 92 C233,94.2074 227.824,92.3382 226.5,93 L222.5,96 L213.5,96 C210.968,97.266 199.853,101.794 199,103.5 195.645,110.21 193.307,118.596 186.5,122 183.895,123.303 177.437,114.969 175.5,114 171.331,111.915 155.32,115.09 151.5,117 140.148,122.676 115.6,133.3 109,146.5 105.388,153.723 102.558,161.384 99,168.5 96.1323,174.235 99.8159,186.132 102,190.5 103.549,193.598 102.412,198.324 104,201.5 L110,210.5 L110,215.5 C112.277,220.054 118.199,223.898 120,227.5 121.794,231.088 123.585,235.042 127.5,237 L132.5,237 L134.5,239 L136.5,238 L137,241.5 C137.388,242.276 143.075,245.788 143.5,246 146.099,247.3 161.15,242.675 164.5,241 170.42,238.04 179.012,231.476 182,225.5 L187.5,221 C191.704,223.102 195.072,233.286 200.5,236 224.625,248.062 258.154,249.673 283.5,237 L292,228.5 C294.592,223.317 286.485,225.508 295.5,221 299.272,219.114 308.411,230.911 311,233.5 315.334,237.834 341.518,248.491 346.5,246 350.222,244.139 350.613,237.727 349,234.5 348.494,233.488 344.071,233.358 345,231.5 345.987,229.527 350.501,233.501 351.5,234 354.076,235.288 360.216,230.069 361,228.5 363.225,224.05 365,220.499 367,216.5 L373,212.5 L374,206.5 C375.203,204.094 383,199.997 383,195.5 383,183.026 382.933,163.367 377,151.5 373.904,145.308 368.076,140.653 365,134.5 360.011,124.522 337.827,117.663 328.5,113 324.197,110.848 313.881,114.309 310.5,116 L303.5,116 L298.5,122 L295,123.5 C294.397,124.706 294.765,127 292.5,127 292.031,127 283.33,120.161 283,119.5 281.024,115.547 281.471,100.986 275.5,98 262.603,91.5515 248.657,92 233,92  Z"/>

<path  fill="#00FFFF" stroke-width="0" stroke="#00FFFF" d = " M241 95 C241,97.144 236.738,95.3809 235.5,96 234.123,96.6885 230.103,99.8016 228.5,99 224.063,96.7813 204.736,102.027 202,107.5 200.5,110.499 200.394,115.712 199,118.5 198.123,120.253 195.718,121.937 197,124.5 198.529,127.559 213.269,116.884 217.5,119 219.202,119.851 234.507,114.496 237.5,113 239.966,111.767 245.043,114.729 246.5,114 251.528,111.486 257.206,114.147 259.5,113 264.798,110.351 268.579,109.461 273.5,107 276.265,105.617 268.744,98.6219 267.5,98 259.928,94.2139 250.614,95 241,95  Z"/>

<path  fill="#00FFFF" stroke-width="0" stroke="#00FFFF" d = " M321 118 C321,120.144 316.738,118.381 315.5,119 L312.5,122 C310.14,122 307.309,121.596 304.5,123 302.581,123.96 303.659,125.182 303,126.5 L300,127.5 C298.354,130.793 297,136.731 297,140.5 L301.5,142 L302,144.5 L309,149.5 C309.767,151.033 322.957,161.728 325.5,163 L328.5,167 C339.088,172.294 345.632,181.566 356.5,187 359.935,188.717 374.199,204.103 377,198.5 L377,194.5 C385.306,177.889 363.021,180.76 353.5,176 L344.5,168 C341.784,166.642 331.39,154.72 332,153.5 333.588,150.324 340.917,150.708 343.5,152 L346.5,156 C352.853,159.177 359.989,160.745 366.5,164 367.8,164.65 374.229,171.041 376,167.5 378.239,163.022 366.877,154.255 365,150.5 357.817,136.135 338.346,118 321,118  Z"/>

<path  fill="#00FFFF" stroke-width="0" stroke="#00FFFF" d = " M158 119 C158,120.55 151.772,121.364 150.5,122 143.365,125.567 136.674,130.413 129.5,134 117.035,140.233 108.618,166.263 103,177.5 102.031,179.439 105.552,181.974 107.5,181 L112.5,177 L125.5,173 C126.395,172.552 130.429,175.641 130,176.5 125.968,184.563 115.997,186.251 108.5,190 104.122,192.189 106.841,202.17 110.5,204 114.52,206.01 115.532,198.984 117.5,198 130.356,191.572 141.55,180.475 154.5,174 157.593,172.454 167.501,165.502 169,168.5 170.006,170.512 164.868,175.763 164,177.5 158.993,187.514 143.335,200.083 133.5,205 131.422,206.039 118,208.307 118,211.5 L120,213.5 L120,216.5 C121.302,219.104 126.285,217.071 128,220.5 129.421,223.342 128.114,237.193 136.5,233 144.332,229.084 142.88,217.741 146,211.5 L163,193.5 C169.825,179.85 178.073,169.427 190,157.5 L201.5,141 C203.077,140.211 233.407,143 238.5,143 242.013,143 260.403,144.549 263.5,143 267.633,140.933 277.383,136.941 281.5,139 288.087,142.293 294.686,150.871 298,157.5 L310,169.5 C316.188,181.875 332.524,194.549 338,205.5 341.373,212.246 330.271,219.386 347.5,228 357.638,233.069 354.154,219.192 355,217.5 357.559,212.382 364.624,213.253 367,208.5 368.721,205.058 354.091,201.796 352.5,201 342.1,195.8 333.56,189.06 325,180.5 315.18,170.68 304.914,158.328 299,146.5 L296,144.5 C294.695,141.89 291.887,133.193 289.5,132 286.576,130.538 283.725,134 281.5,134 L276.5,130 L274,131 C265.26,131 258.201,132 250.5,132 L223.5,132 C218.201,134.65 207.726,130.887 201.5,134 198.844,135.328 196.552,138.974 194.5,140 190.295,142.102 183.976,135.262 182.5,136 173.837,140.331 173.158,151 161.5,151 159.368,151 160.751,156.126 158.5,155 L157,150.5 L152,144.5 C150.401,141.301 165.039,132.422 166,130.5 170.118,122.265 166.983,119 158,119  Z"/>

<path  fill="#00FFFF" stroke-width="0" stroke="#00FFFF" d = " M236 154 C236,156.308 228.987,154.257 227.5,155 220.481,158.509 211.172,158.164 203.5,162 197.428,165.036 192.866,174.769 190,180.5 L178,191.5 C173.795,199.911 168.277,207.947 164,216.5 L164,220.5 C160.48,227.54 154.098,230.701 147.5,234 146.242,234.629 144.231,236.962 145,238.5 145.949,240.399 153.587,240.957 155.5,240 162.454,236.523 174.223,229.055 178,221.5 179.068,219.363 180.112,213.194 182.5,212 187.571,209.465 191.598,220.305 194,215.5 196.978,209.544 197.049,202.402 200,196.5 202.702,191.095 196.172,182.664 203.5,179 211.351,175.074 230.129,181.685 241.5,176 243.508,174.996 252.172,178 255.5,178 262.02,178 275.45,174.975 281.5,178 294.922,184.711 288.825,211.163 306.5,220 L319.5,233 C323.958,235.229 329.151,235.826 333.5,238 334.489,238.494 344,242.195 344,238.5 344,234.476 337.515,231.507 334.5,230 327.884,226.692 313.205,218.91 310,212.5 307.475,207.451 316.983,207.466 313,199.5 307.441,188.382 290.641,163.571 279.5,158 270.806,153.653 245.524,154 236,154  Z"/>

<path  fill="#00FFFF" stroke-width="0" stroke="#00FFFF" d = " M278 190 C278,191.643 274.235,191 273,191 L257.5,192 C253.357,192 248.029,193.235 244.5,195 L220.5,196 C217.415,196 210.483,191.008 208.5,192 206.976,192.762 200.829,206.158 202,208.5 203.023,210.546 206.139,206.319 207.5,207 212.623,209.561 220.46,206.48 225.5,209 L229.5,212 C244.173,212 265.809,215.345 278.5,209 280.871,207.814 288.243,213.129 288.5,213 291.879,211.311 287.676,197.851 286,194.5 284.409,191.319 281.925,195.349 281,193.5 L278,190  Z"/>

<path  fill="#00FFFF" stroke-width="0" stroke="#00FFFF" d = " M197 223 L196,226.5 C198.076,230.653 205.905,233.202 209.5,235 L215.5,235 C229.814,242.157 252.18,245.16 266.5,238 269.168,236.666 287,231.368 287,227.5 287,226.065 283.469,225.516 282.5,226 276.37,229.065 265.608,231 258.5,231 256.807,231 252.133,229.816 250.5,229 L228.5,229 C219.103,224.302 208.403,223 197,223  Z"/>

<path  fill="#9953FF" stroke-width="0" stroke="#9953FF" d = " M241 339 C241,339.816 248.019,341 249,341 249,338.377 244.031,336.437 246,332.5 246,332.5 249,330.5 249,330.5 249,330.5 249,325.5 249,325.5 253.144,317.212 266.55,328.025 270.5,330 276.279,332.889 285.172,331.336 288.5,333 289.668,333.584 293,334.254 293,336 300.086,336 313.658,323.421 320.5,320 322.254,319.123 330,316.306 330,314 330,314 329,311 329,311 329,311 325.5,313 325.5,313 323.581,313.96 312.262,314.976 315,309.5 315,309.5 319,306 319,306 310.259,306 312.689,292.878 311,289.5 307.617,282.733 302.435,276.37 299,269.5 299,269.5 296,267.5 296,267.5 293.351,262.202 303.49,258 307,258 307,255.035 302.183,253.135 304,249.5 309.208,239.084 329.471,262 332,262 332,257.878 325.553,255.607 324,252.5 322.502,249.504 318.576,246.538 315.5,245 315.5,245 307.5,238 307.5,238 302.711,235.605 287.384,242.058 283.5,244 283.5,244 275.5,244 275.5,244 275.5,244 273,246 273,246 273,246 276,248.5 276,248.5 277.402,251.303 277.899,263.701 277,265.5 275.439,268.622 267.26,267.62 264.5,269 261.318,270.591 258.473,276 254.5,276 254.5,276 249.5,272 249.5,272 244.661,269.581 238.834,276.667 235.5,275 231.6,273.05 228.506,270.003 224.5,268 221.254,266.377 216.063,271.625 214,267.5 212.097,263.694 213.926,256.352 213,254.5 213,254.5 211,251.5 211,251.5 212.515,248.47 214,248.766 214,245 214,245 210.5,243 210.5,243 210.5,243 206.5,244 206.5,244 203.586,242.543 186.891,238.304 183.5,240 180.339,241.58 176.689,246 173,246 173,246 174,250 174,250 177.8,250 180.622,250 184.5,250 184.5,250 188,250.5 188,250.5 188,250.5 181,257 181,257 184.009,257 187.249,258.749 189.5,261 189.5,261 193,265.5 193,265.5 193,266.289 181.464,279.571 180,282.5 180,282.5 181,286.5 181,286.5 178.768,290.965 175.184,305 168,305 168,308.474 172.824,306.162 174.5,307 176.749,308.125 173.8,312.35 172.5,313 172.5,313 166,313 166,313 166,313 164,317 164,317 164,319.704 168.904,321.202 170.5,322 176.13,324.815 189.26,335 195,335 195,335 197.5,333 197.5,333 202.012,335.256 210.358,334.071 214.5,332 217.753,330.373 236.736,317.972 240,324.5 240,324.5 240,329.5 240,329.5 240,329.5 243,332.5 243,332.5 244.428,335.356 241,337.053 241,339  Z"/>

<path  fill="#EB57FF" stroke-width="0" stroke="#EB57FF" d = " M214 245 L219.5,244 C230.346,249.423 232.48,261.49 243.5,267 245.822,268.161 250.365,263.567 251.5,263 259.893,258.804 261.487,246 273,246 273,246 276,248.5 276,248.5 277.402,251.303 277.899,263.701 277,265.5 275.439,268.622 267.26,267.62 264.5,269 261.318,270.591 258.473,276 254.5,276 254.5,276 249.5,272 249.5,272 244.661,269.581 238.834,276.667 235.5,275 231.6,273.05 228.506,270.003 224.5,268 221.254,266.377 216.063,271.625 214,267.5 212.097,263.694 213.926,256.352 213,254.5 213,254.5 211,251.5 211,251.5 212.515,248.47 214,248.766 214,245  Z"/>

<path  fill="#34FF0D" stroke-width="0" stroke="#34FF0D" d = " M166 313 L164,317 C155.454,317 151.035,307.571 148,301.5 141.543,288.586 146.9,275.699 153,263.5 153,263.5 159,256.5 159,256.5 161.55,251.4 166.647,246 173,246 173,246 174,250 174,250 174,254.351 162.449,261.025 158.5,263 154.776,264.862 151.985,273.529 150,277.5 146.023,285.454 151.814,297.128 155,303.5 155,303.5 166,313 166,313  Z"/>

<path  fill="#FA8072" stroke-width="0" stroke="#FA8072" d = " M319 306 L315,309.5 C312.262,314.976 323.581,313.96 325.5,313 L329,311 C329,305.015 334.525,305.451 337,300.5 338.569,297.362 339.376,293.749 341,290.5 343.39,285.72 339.791,277.082 338,273.5 338,273.5 339,272 339,272 339,272 332,262 332,262 329.471,262 309.208,239.084 304,249.5 302.183,253.135 307,255.035 307,258 309.936,258 329,271.906 329,274 329,274 330,275 330,275 330,275 333,281.5 333,281.5 337.072,289.643 327.278,306 319,306  Z"/>

<path  fill="#FA8072" stroke-width="0" stroke="#FA8072" d = " M168 305 C168,308.474 172.824,306.162 174.5,307 176.749,308.125 173.8,312.35 172.5,313 L166,313 C166,313 155,303.5 155,303.5 151.814,297.128 146.023,285.454 150,277.5 151.985,273.529 154.776,264.862 158.5,263 162.449,261.025 174,254.351 174,250 177.8,250 180.622,250 184.5,250 184.5,250 188,250.5 188,250.5 188,250.5 181,257 181,257 178.31,257 171.581,263.919 169.5,266 159.685,275.815 153.061,281.622 160,295.5 162.15,299.8 161.865,305 168,305  Z"/>

<path  fill="#5BF1FF" stroke-width="0" stroke="#5BF1FF" d = " M181 257 C184.009,257 187.249,258.749 189.5,261 L193,265.5 C193,266.289 181.464,279.571 180,282.5 L181,286.5 C178.768,290.965 175.184,305 168,305 161.865,305 162.15,299.8 160,295.5 153.061,281.622 159.685,275.815 169.5,266 171.581,263.919 178.31,257 181,257  Z"/>

<path  fill="#5BF1FF" stroke-width="0" stroke="#5BF1FF" d = " M330 275 L333,281.5 C337.072,289.643 327.278,306 319,306 310.259,306 312.689,292.878 311,289.5 307.617,282.733 302.435,276.37 299,269.5 299,269.5 296,267.5 296,267.5 293.351,262.202 303.49,258 307,258 309.936,258 329,271.906 329,274 329,274 330,275 330,275  Z"/>

<path  fill="#46A515" stroke-width="0" stroke="#46A515" d = " M76 272 C76,274.592 75.0419,275.416 74,277.5 70.3953,284.709 83.383,272 76,272  Z"/>

<path  fill="#34FF0D" stroke-width="0" stroke="#34FF0D" d = " M329 311 L330,314 C339.576,314 344,293.328 344,285 344,282.858 340.761,272 339,272 339,272 338,273.5 338,273.5 339.791,277.082 343.39,285.72 341,290.5 339.376,293.749 338.569,297.362 337,300.5 334.525,305.451 329,305.015 329,311  Z"/>

<path  fill="#9953FF" stroke-width="0" stroke="#9953FF" d = " M329 274 L330,275 C330,275 329,274 329,274  Z"/>

<path  fill="#00F60E" stroke-width="0" stroke="#00F60E" d = " M239 340 C232.868,340 227.574,336.963 221.5,340 218.729,341.385 217.438,344 214,344 214,338.485 195,338.421 195,335 195,335 197.5,333 197.5,333 202.012,335.256 210.358,334.071 214.5,332 217.753,330.373 236.736,317.972 240,324.5 240,324.5 240,329.5 240,329.5 240,329.5 243,332.5 243,332.5 244.428,335.356 241,337.053 241,339 241,339 239,340 239,340  Z"/>

<path  fill="#00F60E" stroke-width="0" stroke="#00F60E" d = " M249 341 C251.811,341 255.916,336.708 258.5,338 261.214,339.357 264.855,338.677 267.5,340 270.35,341.425 270.218,344 274,344 274,338.662 293,339.129 293,336 293,334.254 289.668,333.584 288.5,333 285.172,331.336 276.279,332.889 270.5,330 266.55,328.025 253.144,317.212 249,325.5 249,325.5 249,330.5 249,330.5 249,330.5 246,332.5 246,332.5 244.031,336.437 249,338.377 249,341  Z"/>

<path  fill="#FF3427" stroke-width="0" stroke="#FF3427" d = " M239 340 C232.868,340 227.574,336.963 221.5,340 218.729,341.385 217.438,344 214,344 214,350.191 239,354.961 239,340  Z"/>

<path  fill="#FF3427" stroke-width="0" stroke="#FF3427" d = " M249 341 C251.811,341 255.916,336.708 258.5,338 261.214,339.357 264.855,338.677 267.5,340 270.35,341.425 270.218,344 274,344 274,351.54 249,354.214 249,341  Z"/>

</g>
</svg>
