<svg xmlns="http://www.w3.org/2000/svg" xmlns:xlink="http://www.w3.org/1999/xlink" height="512" width="512">
<g>
<rect width="512" height="512" fill="#000000"  stroke-width="0" /> 
<path  fill-rule="evenodd" fill="#03C12D" stroke-width="0" stroke="#03C12D" d = " M237 90 C237,92.0912 240.746,90 237,90  M36 232 C28.2856,232 34.4852,218.47 33,215.5 31.9232,213.346 36.2523,207.005 35,204.5 32.6162,199.732 41.7424,165.015 45,158.5 52.4823,143.535 66.721,121.889 80.5,115 L82.5,112 L87.5,111 L89,107.5 C89.9678,105.564 98.272,100.114 100.5,99 108.568,94.9659 117.289,92.1055 125.5,88 L146.5,81 L153.5,81 C164.712,75.3941 178.36,76.5699 189.5,71 L195.5,72 C198.724,70.3878 209.41,67.955 213.5,70 221.184,73.842 225.414,79.4568 232.5,83 L236.5,88 C238.2,88.8499 252.382,76.0589 254.5,75 266.171,69.1647 283.687,71 296.5,71 L302.5,73 C304.086,73.7928 317.723,72.6113 320.5,74 325.165,76.3325 331.958,75.2291 335.5,77 341.54,80.0199 349.563,79.0316 355.5,82 L369.5,89 L373.5,89 C380.782,92.6409 387.378,97.4391 394.5,101 L399.5,107 C400.67,107.585 403.464,106.982 405.5,108 425.345,117.922 450,157.777 450,180.5 450,185.51 454.125,194.251 452,198.5 451.917,198.666 455.354,216.792 452,223.5 451.266,224.968 452.099,232 450,232 450,228.916 443.233,229.867 441.5,229 439.865,228.182 420.253,223.624 419.5,224 419.5,224 418.5,226 418.5,226 418.5,226 411,223 411,223 411,223 411,222 411,222 411,222 411,221 411,221 411,198.873 404.353,177.206 394,156.5 394,156.5 388,150.5 388,150.5 387.219,148.938 376.263,135.381 375.5,135 375.5,135 370.5,134 370.5,134 370.5,134 357.5,125 357.5,125 346.936,119.718 333.999,119.249 323.5,114 323.5,114 306.5,112 306.5,112 298.891,108.196 288.125,110.812 280.5,107 277.442,105.471 272.76,99.8701 268.5,102 259.856,106.322 263.478,114.543 260,121.5 257.305,126.889 251.349,129.575 246.5,132 242.039,134.23 230.017,131.759 226.5,130 224.39,128.945 224.688,125.594 223.5,125 222.182,124.341 220.96,125.419 220,123.5 216.865,117.23 222.085,118.585 214.5,111 212.121,108.621 213.725,103 208.5,103 202.493,103 199.54,106.48 194.5,109 194.5,109 185.5,110 185.5,110 185.5,110 182.5,113 182.5,113 179.685,113 162.458,115.021 160.5,116 160.5,116 157.5,119 157.5,119 154.103,120.699 144.38,121.06 140.5,123 134.01,126.245 127.897,129.801 121.5,133 121.5,133 105,149.5 105,149.5 103.069,153.362 96.4447,158.611 94,163.5 85.7422,180.016 75,205.507 75,225 74.9521,225 69.0379,229 66.5,229 65.1698,229 64.6042,225.948 62.5,227 57.1051,229.697 49.4238,228.038 47.5,229 40.5524,232.474 43.5334,232 36,232  Z"/>

<path  fill-rule="evenodd" fill="#FF6E00" stroke-width="0" stroke="#FF6E00" d = " M355 132 C355,136.255 362.521,132 355,132  M353 130 C353,131.93 354.93,130 353,130  M86 280 C90.0679,280 93.1736,290 99,290 99,287.487 89.8962,281.292 88,277.5 85.3486,272.197 84.6721,265.844 82,260.5 82,260.5 82,253.5 82,253.5 76.0608,241.622 84,227.075 84,215 84,215 83,212 83,212 83,207.658 87,202.193 87,198.5 87,198.5 89,197 89,197 89,195.342 86.6184,194 90,194 90,194 90,192 90,192 90,190.592 91.1967,187 93,187 93,185.011 93.2474,180 96,180 96,180 97,179 97,179 97,179 97,178 97,178 97,178 97,175 97,175 97,174.078 95.3192,172 98,172 98,172 100,171 100,171 100,171 101,169 101,169 94.3158,169 109.363,153 111,153 111,153 112,152 112,152 112,152 113,151 113,151 113,148.959 113.959,148 116,148 116,145.707 116.997,146 119,146 119,146 120,145 120,145 120,143.253 120.253,143 122,143 122,143 127,140 127,140 127,138.423 128.762,138 130,138 135.443,138 142.685,131.407 147.5,129 147.5,129 154.5,128 154.5,128 166.579,121.961 186.428,125.356 193,138.5 193.535,139.57 196,142.598 196,143 198.89,143 205.963,149 215,149 215,149 217,148 217,148 217,148 227,147 227,147 228.145,147 231,146.421 231,148 231,148 233,148 233,148 234.235,148 238,147.357 238,149 238,149 245,148 245,148 245,148 247,148 247,148 247,148 252,147 252,147 252,145.421 254.855,146 256,146 258.124,146 260.436,145 262,145 262,145 265,145 265,145 270.167,145 276.225,145.137 280.5,143 283.048,141.726 285.671,138 288,138 288,133.615 298.207,125.647 301.5,124 301.5,124 305.5,124 305.5,124 316.178,118.661 337.014,124.757 347.5,130 351.218,131.859 355.646,136 360,136 360,134.814 361,134.814 361,136 361,136 363,137 363,137 363,134.608 368.888,137.725 368,139.5 367.221,141.058 364.374,138 363,138 363,139.391 368.706,143 370,143 370,143 369,140.5 369,140.5 369.413,139.673 382.289,149 377,149 377,151.492 384.004,163 387,163 388.577,163 389,164.762 389,166 389,166 392,170 392,170 392,170 392,173 392,173 393.747,173 394,173.253 394,175 394,175 396,182 396,182 397.579,182 397,184.855 397,186 397,187.681 398.897,199 400,199 402.167,199 402.934,202 401,202 401,205.792 403.38,210.26 405,213.5 405,213.5 405,247.5 405,247.5 402.108,253.284 404.852,261.796 402,267.5 400.49,270.52 397,275.585 397,279 397,279 399,279 399,279 399,276.632 401.91,274.679 403,272.5 403.65,271.2 403.007,266 405,266 405,266 407,263.5 407,263.5 407,263.5 407,251.5 407,251.5 408.938,247.624 411,228.104 411,223 411,223 411,222 411,222 409.814,222 409.814,221 411,221 411,198.873 404.353,177.206 394,156.5 394,156.5 388,150.5 388,150.5 387.219,148.938 376.263,135.381 375.5,135 375.5,135 370.5,134 370.5,134 370.5,134 357.5,125 357.5,125 346.936,119.718 333.999,119.249 323.5,114 323.5,114 306.5,112 306.5,112 298.891,108.196 288.125,110.812 280.5,107 277.442,105.471 272.76,99.8701 268.5,102 259.856,106.322 263.478,114.543 260,121.5 257.305,126.889 251.349,129.575 246.5,132 242.039,134.23 230.017,131.759 226.5,130 224.39,128.945 224.688,125.594 223.5,125 222.182,124.341 220.96,125.419 220,123.5 216.865,117.23 222.085,118.585 214.5,111 212.121,108.621 213.725,103 208.5,103 202.493,103 199.54,106.48 194.5,109 194.5,109 185.5,110 185.5,110 185.5,110 182.5,113 182.5,113 179.685,113 162.458,115.021 160.5,116 160.5,116 157.5,119 157.5,119 154.103,120.699 144.38,121.06 140.5,123 134.01,126.245 127.897,129.801 121.5,133 121.5,133 105,149.5 105,149.5 103.069,153.362 96.4447,158.611 94,163.5 85.7422,180.016 75,205.507 75,225 76.7622,225 75,228.576 75,230 75,234.077 76,238.431 76,243 76,251.685 81,259.338 81,268 81,272.55 86,275.948 86,280  Z"/>

<path  fill="#0E47E2" stroke-width="0" stroke="#0E47E2" d = " M334 300 L326.5,304 C325.726,304.387 322,301.249 322,304 320.096,304 321.811,309.844 319.5,311 315.38,313.06 303.312,310.875 307,303.5 308.53,300.441 313,300.496 313,297 313,297 314,296 314,296 314,296 315,295 315,295 315,295 316,294 316,294 318.897,294 320.753,287.747 322.5,286 324.465,284.035 341,262.563 341,260 342.89,260 347,253.626 347,252 347,252 348,251 348,251 351.238,251 353,244.453 353,242 353,242 354,241 354,241 354,241 355,240 355,240 355,240 356,237 356,237 356,237 357,235 357,235 357,235 357,234 357,234 359.288,234 365.506,217.513 364,214.5 359.488,205.476 351.872,179 340,179 331.23,179 326.063,173 318,173 318,168.013 296,170.151 296,156 296,156 300,151.5 300,151.5 300,151.5 298,148.5 298,148.5 298,148.5 288,138 288,138 288,133.615 298.207,125.647 301.5,124 301.5,124 305.5,124 305.5,124 316.178,118.661 337.014,124.757 347.5,130 351.218,131.859 355.646,136 360,136 360,136 361,136 361,136 361,136 363,137 363,137 363,137 363,138 363,138 363,139.391 368.706,143 370,143 370,143 373,145 373,145 373,145 376,148 376,148 376,148 377,149 377,149 377,151.492 384.004,163 387,163 387,164.238 387.423,166 389,166 389,166 390,169 390,169 390,169 392,173 392,173 392,173 393,175 393,175 393,176.853 394.318,184 396,184 396,184 397,186 397,186 397,187.681 398.897,199 400,199 400,199 401,202 401,202 401,205.792 403.38,210.26 405,213.5 405,213.5 405,247.5 405,247.5 402.108,253.284 404.852,261.796 402,267.5 400.49,270.52 397,275.585 397,279 397,279 384.5,288 384.5,288 378.682,290.909 355.335,298 349,298 349,292.152 334,295.117 334,300  Z"/>

<path  fill="#0E47E2" stroke-width="0" stroke="#0E47E2" d = " M154 304 C163.204,304 162.924,315 166,315 169.64,315 181.113,313.726 177,305.5 175.226,301.952 171,302.477 171,297 171,297 168,293 168,293 168,293 165,290 165,290 162.712,290 155,279.96 155,278 155,278 154,277 154,277 154,277 153,276 153,276 153,276 152,275 152,275 152,275 147,267 147,267 147,267 140.5,260 140.5,260 138.233,257.733 124,237.079 124,235 121.433,235 121,227.951 121,226 121,226 119,223.5 119,223.5 118.609,222.719 120.39,215 121,215 121,215 122,212 122,212 122,209.13 128.588,199 131,199 131,199 132,197 132,197 132,197 133,195 133,195 133,195 135,193 135,193 135,193 135,192 135,192 135,192 136,191 136,191 136,191 137,189 137,189 137,189 138,188 138,188 138,188 139,188 139,188 139,185.186 146,178.781 146,182 146,182 147,182 147,182 147,180.814 148,180.814 148,182 148,182 149,182 149,182 149,182 151,181 151,181 151,181 152,181 152,181 152,179.372 169.593,173 171,173 175.907,173 183.218,169.141 187.5,167 189.656,165.922 186.957,162 189,162 189,162 189,160 189,160 189,153.655 179.448,153.526 192.5,147 192.5,147 196,143 196,143 196,142.598 193.535,139.57 193,138.5 186.428,125.356 166.579,121.961 154.5,128 154.5,128 147.5,129 147.5,129 142.685,131.407 135.443,138 130,138 130,139.577 128.238,140 127,140 127,140 122,143 122,143 122,143 120,145 120,145 120,145 119,146 119,146 119,147.577 117.238,148 116,148 116,149.658 114.539,151 113,151 113,151 112,152 112,152 112,152 111,153 111,153 111,158.507 101,163.054 101,169 101,169 100,171 100,171 100,171 99,172 99,172 99,173.048 99.4729,175 98,175 98,176.048 98.4729,178 97,178 97,178 97,179 97,179 97,179 96,180 96,180 96,180 94,187 94,187 94,187 93,189 93,189 93,189 92,193 92,193 92,193 92,195 92,195 92,195 90,198 90,198 90,203.255 86,207.087 86,212 86,213.238 85.5774,215 84,215 84,227.075 76.0608,241.622 82,253.5 82,253.5 82,260.5 82,260.5 84.6721,265.844 85.3486,272.197 88,277.5 89.8962,281.292 99,287.487 99,290 99,290 101,290 101,290 101,290 103,292 103,292 113.399,292 121.2,300 132,300 132,300 133,301 133,301 133,301 140.5,296 140.5,296 142.939,294.78 154,300.727 154,304  Z"/>

<path  fill="#022CFF" stroke-width="0" stroke="#022CFF" d = " M353 130 C353,131.93 354.93,130 353,130  Z"/>

<path  fill="#022CFF" stroke-width="0" stroke="#022CFF" d = " M355 132 C355,136.255 362.521,132 355,132  Z"/>

<path  fill="#022CFF" stroke-width="0" stroke="#022CFF" d = " M360 136 L361,136 C361,134.814 360,134.814 360,136  Z"/>

<path  fill="#022CFF" stroke-width="0" stroke="#022CFF" d = " M363 137 L363,138 C364.374,138 367.221,141.058 368,139.5 368.888,137.725 363,134.608 363,137  Z"/>

<path  fill="#022CFF" stroke-width="0" stroke="#022CFF" d = " M130 138 C128.762,138 127,138.423 127,140 128.238,140 130,139.577 130,138  Z"/>

<path  fill="#DDD951" stroke-width="0" stroke="#DDD951" d = " M266 166 L264,167 C264,164.723 260.701,166 260,166 260,166 255.5,162 255.5,162 249.196,158.848 246,157.189 246,149 246,149 247,148 247,148 247,148 252,147 252,147 253.145,147 256,147.579 256,146 258.124,146 260.436,145 262,145 262,146.486 265,146.486 265,145 270.167,145 276.225,145.137 280.5,143 283.048,141.726 285.671,138 288,138 288,138 298,148.5 298,148.5 298,148.5 300,151.5 300,151.5 300,151.5 296,156 296,156 293.506,156 284.96,159.77 282.5,161 282.5,161 280,163 280,163 280,163 276,163 276,163 276,163 275,164 275,164 275,164 272,164 272,164 272,164 271,165 271,165 271,165 270,165 270,165 270,165 266,166 266,166  Z"/>

<path  fill="#022CFF" stroke-width="0" stroke="#022CFF" d = " M376 148 L377,149 C382.289,149 369.413,139.673 369,140.5 369,140.5 370,143 370,143 370,143 373,145 373,145 373,145 376,148 376,148  Z"/>

<path  fill="#022CFF" stroke-width="0" stroke="#022CFF" d = " M122 143 C120.253,143 120,143.253 120,145 120,145 122,143 122,143  Z"/>

<path  fill="#DDD951" stroke-width="0" stroke="#DDD951" d = " M204 168 C211.954,168 221.143,168 229,168 229,161.112 236,157.22 236,150 234.762,150 233,149.577 233,148 233,148 231,148 231,148 229.855,148 227,148.579 227,147 227,147 217,148 217,148 217,148 215,149 215,149 205.963,149 198.89,143 196,143 196,143 192.5,147 192.5,147 179.448,153.526 189,153.655 189,160 189,160 191,161 191,161 192.581,161 204,166.995 204,168  Z"/>

<path  fill="#022CFF" stroke-width="0" stroke="#022CFF" d = " M120 145 L119,146 C119,146 120,145 120,145  Z"/>

<path  fill="#FF6E00" stroke-width="0" stroke="#FF6E00" d = " M373 145 L376,148 C376,148 373,145 373,145  Z"/>

<path  fill="#022CFF" stroke-width="0" stroke="#022CFF" d = " M119 146 C116.997,146 116,145.707 116,148 117.238,148 119,147.577 119,146  Z"/>

<path  fill="#022CFF" stroke-width="0" stroke="#022CFF" d = " M116 148 C113.959,148 113,148.959 113,151 114.539,151 116,149.658 116,148  Z"/>

<path  fill="#022CFF" stroke-width="0" stroke="#022CFF" d = " M256 184 C252.209,184 247.865,190.317 244.5,192 240.676,193.912 238.32,188 235,188 235,188 232,185.5 232,185.5 232,185.5 229,180 229,180 227.288,180 226,177.429 226,176 226,176 226,175 226,175 233.331,175 229,172.932 229,168 229,161.112 236,157.22 236,150 236,150 238,149 238,149 238,149 245,148 245,148 245,148 246,149 246,149 246,157.189 249.196,158.848 255.5,162 255.5,162 260,166 260,166 260,166 260,167 260,167 260,168.97 253.539,174 260,174 260,174 260,177 260,177 260,177 257,183 257,183 257,183 256,184 256,184  Z"/>

<path  fill="#022CFF" stroke-width="0" stroke="#022CFF" d = " M113 151 L112,152 C112,152 113,151 113,151  Z"/>

<path  fill="#022CFF" stroke-width="0" stroke="#022CFF" d = " M111 153 C109.363,153 94.3158,169 101,169 101,163.054 111,158.507 111,153  Z"/>

<path  fill="#022CFF" stroke-width="0" stroke="#022CFF" d = " M290 168 C295.713,168 304.502,171.501 309.5,174 312.068,175.284 315.986,173 318,173 318,168.013 296,170.151 296,156 293.506,156 284.96,159.77 282.5,161 282.5,161 280,163 280,163 283.622,163 290,163.499 290,168  Z"/>

<path  fill="#022CFF" stroke-width="0" stroke="#022CFF" d = " M173 176 C174.905,176 175.467,176 177,176 181.491,176 185.186,171 190,171 190,171 198.5,171 198.5,171 198.5,171 200.5,169 200.5,169 200.925,169 204,173.1 204,170 204,170 204,168 204,168 204,166.995 192.581,161 191,161 191,161 189,162 189,162 186.957,162 189.656,165.922 187.5,167 183.218,169.141 175.907,173 171,173 171,173 173,176 173,176  Z"/>

<path  fill="#5600DD" stroke-width="0" stroke="#5600DD" d = " M268 173 L270,173 C270,170.697 272.951,171 274.5,171 280.39,171 284.267,168 290,168 290,163.499 283.622,163 280,163 280,163 276,163 276,163 276,163 275,164 275,164 275,164 272,164 272,164 272,164 271,165 271,165 271,165 270,165 270,165 270,165.914 266,168.246 266,166 266,166 264,167 264,167 262.095,167 261.533,167 260,167 260,168.97 253.539,174 260,174 260,174 268,173 268,173  Z"/>

<path  fill="#022CFF" stroke-width="0" stroke="#022CFF" d = " M390 169 L392,170 C392,170 389,166 389,166 389,166 390,169 390,169  Z"/>

<path  fill="#5600DD" stroke-width="0" stroke="#5600DD" d = " M224 174 L226,175 C233.331,175 229,172.932 229,168 221.143,168 211.954,168 204,168 204,168 204,170 204,170 205.397,170 216,172.154 216,173 216,173 224,174 224,174  Z"/>

<path  fill="#FF571E" stroke-width="0" stroke="#FF571E" d = " M320 221 C316.48,221 281.634,217.433 278.5,219 274.701,220.9 269.425,223 265,223 263.362,223 263,219.424 263,218 263,218 262,217 262,217 262,217 258,211 258,211 258,196.29 228,200.754 228,213 228,215.994 221,218.482 221,225 218.214,225 205.526,226.013 203.5,225 203.5,225 198.5,220 198.5,220 198.5,220 192.5,221 192.5,221 190.497,219.998 188.9,217.7 187.5,217 187.5,217 182.5,219 182.5,219 176.489,215.994 177.306,216 170,216 170,212.562 172.615,211.271 174,208.5 174,208.5 173,204.5 173,204.5 174.721,201.057 177.232,198.037 179,194.5 181.903,188.693 178,182.262 178,177 179.488,177 192.799,173.85 194.5,173 197.089,171.706 206.996,176 209,176 209,178.477 206.989,178.522 206,180.5 204.289,183.922 209.403,183.305 210,184.5 212.375,189.249 208.667,189.834 211,194.5 213.898,200.297 227.041,200.418 230,194.5 230,194.5 229,188 229,188 230.623,188 235,189.457 235,188 238.32,188 240.676,193.912 244.5,192 247.865,190.317 252.209,184 256,184 256,184 257,184 257,184 266.182,184 256.411,190.323 258,193.5 260.027,197.554 272.255,196.622 275.5,195 275.5,195 280,190.5 280,190.5 280,188.538 273.916,188.668 275,186.5 275,186.5 278,183.5 278,183.5 278.183,183.133 291.374,173 281,173 281,170.009 287.051,171 289,171 292.593,171 310,174.986 310,179 310,187.133 310.674,188.848 314,195.5 314,195.5 313,201.5 313,201.5 315.856,207.211 320,214.272 320,221  Z"/>

<path  fill="#022CFF" stroke-width="0" stroke="#022CFF" d = " M97 175 L98,175 C99.4729,175 99,173.048 99,172 99,172 98,172 98,172 95.3192,172 97,174.078 97,175  Z"/>

<path  fill="#E1970F" stroke-width="0" stroke="#E1970F" d = " M229 180 C229,182.342 229,185.262 229,188 229,188 230,194.5 230,194.5 227.041,200.418 213.898,200.297 211,194.5 208.667,189.834 212.375,189.249 210,184.5 209.403,183.305 204.289,183.922 206,180.5 206.989,178.522 209,178.477 209,176 209,172.652 213.824,173 216,173 216,173 224,174 224,174 224,174 226,176 226,176 226,177.429 227.288,180 229,180  Z"/>

<path  fill="#E1970F" stroke-width="0" stroke="#E1970F" d = " M257 183 L257,184 C266.182,184 256.411,190.323 258,193.5 260.027,197.554 272.255,196.622 275.5,195 275.5,195 280,190.5 280,190.5 280,188.538 273.916,188.668 275,186.5 275,186.5 278,183.5 278,183.5 278.183,183.133 291.374,173 281,173 281,173 270,173 270,173 270,173 268,173 268,173 268,173 260,177 260,177 260,177 257,183 257,183  Z"/>

<path  fill="#022CFF" stroke-width="0" stroke="#022CFF" d = " M393 175 L394,175 C394,173.253 393.747,173 392,173 392,173 393,175 393,175  Z"/>

<path  fill="#006400" stroke-width="0" stroke="#006400" d = " M162 263 L163,263 C166.345,263 166.81,261.345 169.5,260 169.5,260 176.5,260 176.5,260 178.371,259.064 175.57,252 179,252 179,252 178,249 178,249 169.28,249 165.585,245.669 162,238.5 162,238.5 161,235.5 161,235.5 164.013,229.474 167,227.517 167,220 167,217.997 166.707,217 169,217 169,217 170,216 170,216 170,212.562 172.615,211.271 174,208.5 174,208.5 173,204.5 173,204.5 174.721,201.057 177.232,198.037 179,194.5 181.903,188.693 178,182.262 178,177 178,177 177,176 177,176 175.467,176 174.905,176 173,176 165.036,176 159.521,181 152,181 152,181 151,181 151,181 151,181 149,182 149,182 149,182 148,182 148,182 148,182 147,182 147,182 147,182 146,182 146,182 146,182 139,188 139,188 139,188 138,188 138,188 138,188 137,189 137,189 137,189 136,191 136,191 136,191 135,192 135,192 135,192 135,193 135,193 135,194.747 134.747,195 133,195 133,195 132,197 132,197 132,197 131,199 131,199 131,203.209 126,208.042 126,212 126,212 124,221 124,221 124,221 123,223 123,223 123.689,223 125,230.178 125,231 126.779,231 125.357,235.928 127.5,237 132.11,239.305 132.642,244 140,244 145.673,244 155.817,260 158,260 158,260 162,263 162,263  Z"/>

<path  fill="#006400" stroke-width="0" stroke="#006400" d = " M331 253 C325.86,253 323.921,258 319,258 316.736,258 314.872,250.757 316,248.5 318.404,243.693 326,248.705 326,234 328.216,234 326.348,231 325,231 325,231 325,230 325,230 325,230 324,229 324,229 324,227.302 322.232,221 320,221 320,214.272 315.856,207.211 313,201.5 313,201.5 314,195.5 314,195.5 310.674,188.848 310,187.133 310,179 314.024,179 321.439,174.469 326.5,177 331.144,179.322 335.405,181 341,181 343.984,181 349.676,187.852 351,190.5 351,190.5 357,200.5 357,200.5 357.965,202.431 360.24,225.02 359,227.5 357.93,229.64 357,231.387 357,234 357,234 357,235 357,235 357,235 356,237 356,237 356,237 355,240 355,240 355,240 354,241 354,241 354,241 353,241 353,241 353,241 348,243 348,243 341.992,243 340.228,244.136 334.5,247 334.5,247 331,253 331,253  Z"/>

<path  fill="#022CFF" stroke-width="0" stroke="#022CFF" d = " M341 181 C343.984,181 349.676,187.852 351,190.5 L357,200.5 C357.965,202.431 360.24,225.02 359,227.5 357.93,229.64 357,231.387 357,234 359.288,234 365.506,217.513 364,214.5 359.488,205.476 351.872,179 340,179 340,179 341,181 341,181  Z"/>

<path  fill="#022CFF" stroke-width="0" stroke="#022CFF" d = " M97 179 L96,180 C96,180 97,179 97,179  Z"/>

<path  fill="#022CFF" stroke-width="0" stroke="#022CFF" d = " M93 187 L94,187 C94,187 96,180 96,180 93.2474,180 93,185.011 93,187  Z"/>

<path  fill="#022CFF" stroke-width="0" stroke="#022CFF" d = " M146 182 L139,188 C139,185.186 146,178.781 146,182  Z"/>

<path  fill="#022CFF" stroke-width="0" stroke="#022CFF" d = " M396 184 L397,186 C397,184.855 397.579,182 396,182 396,182 396,184 396,184  Z"/>

<path  fill="#022CFF" stroke-width="0" stroke="#022CFF" d = " M90 192 L92,193 C92,193 93,189 93,189 93,189 93,187 93,187 91.1967,187 90,190.592 90,192  Z"/>

<path  fill="#022CFF" stroke-width="0" stroke="#022CFF" d = " M89 197 L90,198 C90,198 92,195 92,195 92,195 90,194 90,194 86.6184,194 89,195.342 89,197  Z"/>

<path  fill="#FF00DA" stroke-width="0" stroke="#FF00DA" d = " M258 211 C258,196.29 228,200.754 228,213 232.264,213 235.497,209 240,209 240,209 242,209 242,209 242,209 243,208 243,208 243,206.814 244,206.814 244,208 244,208 246,209 246,209 246,209 247,209 247,209 251.296,209 254.018,211 258,211  Z"/>

<path  fill="#022CFF" stroke-width="0" stroke="#022CFF" d = " M242 210 L242,239 C242,240.475 241.107,248 243.5,248 245.863,248 245,240.932 245,239.5 245,229.782 246,219.036 246,210 246,210 246,209 246,209 246,209 244,208 244,208 244,208 243,208 243,208 243,208 242,209 242,209 242,209 242,210 242,210  Z"/>

<path  fill="#07FF59" stroke-width="0" stroke="#07FF59" d = " M254 258 L254,259 C253.812,259 247.477,274.489 238.5,270 235.282,268.391 237.339,261.178 236,258.5 234.699,255.898 232.249,253.999 231,251.5 231,251.5 231,244.5 231,244.5 231,244.5 227,242.5 227,242.5 223.389,238.889 221,230.015 221,225 221,218.482 228,215.994 228,213 232.264,213 235.497,209 240,209 240,209 242,210 242,210 242,210 242,239 242,239 242,240.475 241.107,248 243.5,248 245.863,248 245,240.932 245,239.5 245,229.782 246,219.036 246,210 246,210 247,209 247,209 251.296,209 254.018,211 258,211 258,211 262,217 262,217 262,217 263,218 263,218 263,219.424 263.362,223 265,223 265,235 255,241.326 255,253 255,253 255,255 255,255 253.527,255 254,256.952 254,258  Z"/>

<path  fill="#022CFF" stroke-width="0" stroke="#022CFF" d = " M86 212 C86,213.238 85.5774,215 84,215 84,215 83,212 83,212 83,212 86,212 86,212  Z"/>

<path  fill="#022CFF" stroke-width="0" stroke="#022CFF" d = " M121 215 C121,217.74 120.374,221 124,221 124,221 126,212 126,212 126,212 122,212 122,212 122,212 121,215 121,215  Z"/>

<path  fill-rule="evenodd" fill="#9953FF" stroke-width="0" stroke="#9953FF" d = " M225 254 C225,255.564 224,257.876 224,260 224,275.755 241.825,254 225,254  M297 249 L282.5,260 C280.289,261.105 278.653,264.577 281.5,266 283.822,267.161 289.001,262.499 290.5,261 293.913,257.587 318.697,249 297,249  M284 299 L285,299 C285,296.46 288,296.457 288,295 288,284.661 294.699,274.401 303.5,270 303.5,270 305.5,267 305.5,267 308.042,265.729 319,262.034 319,258 316.736,258 314.872,250.757 316,248.5 318.404,243.693 326,248.705 326,234 324.527,234 325,232.048 325,231 325,231 325,230 325,230 325,230 324,229 324,229 324,227.302 322.232,221 320,221 316.48,221 281.634,217.433 278.5,219 274.701,220.9 269.425,223 265,223 265,235 255,241.326 255,253 255,253 259.5,252 259.5,252 264.276,254.388 262.003,268.503 256.5,263 256.5,263 254,259 254,259 253.812,259 247.477,274.489 238.5,270 235.282,268.391 237.339,261.178 236,258.5 234.699,255.898 232.249,253.999 231,251.5 231,251.5 231,244.5 231,244.5 231,244.5 227,242.5 227,242.5 223.389,238.889 221,230.015 221,225 218.214,225 205.526,226.013 203.5,225 203.5,225 198.5,220 198.5,220 198.5,220 192.5,221 192.5,221 190.497,219.998 188.9,217.7 187.5,217 187.5,217 182.5,219 182.5,219 176.489,215.994 177.306,216 170,216 170,216 169,217 169,217 169,220.454 169.461,220 167,220 167,227.517 164.013,229.474 161,235.5 161,235.5 162,238.5 162,238.5 165.585,245.669 169.28,249 178,249 186.527,249 195.686,250.872 199,257.5 199.193,257.886 206.309,266 203.5,266 200.12,266 183.143,252 179,252 175.57,252 178.371,259.064 176.5,260 176.5,260 169.5,260 169.5,260 166.81,261.345 166.345,263 163,263 163,264.349 172.966,267.233 174.5,268 174.5,268 182.5,277 182.5,277 183.618,277.559 195.7,285.901 196,286.5 197.383,289.266 196,293.783 196,296 196,296 196,299 196,299 199.46,299 201.273,303 205,303 207.064,303 205.426,299.647 206,298.5 206,298.5 212.5,292 212.5,292 215.685,290.407 220.874,289.813 224.5,288 224.5,288 227.5,284 227.5,284 231.383,282.058 237.505,284.998 241.5,283 241.5,283 243.5,284 243.5,284 243.5,284 252.5,284 252.5,284 252.5,284 254.5,287 254.5,287 254.5,287 257.5,286 257.5,286 257.5,286 259.5,289 259.5,289 259.605,289.052 269.13,288.315 274.5,291 277.968,292.734 279.861,299 284,299  Z"/>

<path  fill="#9953FF" stroke-width="0" stroke="#9953FF" d = " M262 217 L263,218 C263,218 262,217 262,217  Z"/>

<path  fill="#022CFF" stroke-width="0" stroke="#022CFF" d = " M125 231 L124,235 C121.433,235 121,227.951 121,226 121,226 123,223 123,223 123.689,223 125,230.178 125,231  Z"/>

<path  fill="#DD6479" stroke-width="0" stroke="#DD6479" d = " M405 266 L409.5,268 C412.653,269.577 416.428,264.964 418.5,266 423.809,268.655 433.947,271 440,271 440,266.736 436,263.423 436,262.5 436,262.5 443,257.5 443,257.5 445.949,251.601 450,238.825 450,232 450,228.916 443.233,229.867 441.5,229 439.865,228.182 420.253,223.624 419.5,224 419.5,224 418.5,226 418.5,226 418.5,226 411,223 411,223 411,228.104 408.938,247.624 407,251.5 407,251.5 407,263.5 407,263.5 407,263.5 405,266 405,266  Z"/>

<path  fill="#DD6479" stroke-width="0" stroke="#DD6479" d = " M81 268 C73.309,268 76.409,269.545 71.5,272 68.8908,273.305 68.2406,269 66.5,269 L63.5,271 L45,272 C45,269.97 49.0987,264.697 49,264.5 47.593,261.686 41.7404,262.981 40,259.5 38.3853,256.271 32.203,240.094 34,236.5 34,236.5 36,232 36,232 43.5334,232 40.5524,232.474 47.5,229 49.4238,228.038 57.1051,229.697 62.5,227 64.6042,225.948 65.1698,229 66.5,229 69.0379,229 74.9521,225 75,225 76.7622,225 75,228.576 75,230 75,234.077 76,238.431 76,243 76,251.685 81,259.338 81,268  Z"/>

<path  fill="#022CFF" stroke-width="0" stroke="#022CFF" d = " M357 235 L356,237 C356,237 357,235 357,235  Z"/>

<path  fill="#022CFF" stroke-width="0" stroke="#022CFF" d = " M355 240 L354,241 C354,241 355,240 355,240  Z"/>

<path  fill="#022CFF" stroke-width="0" stroke="#022CFF" d = " M354 241 L353,242 C353,242 353,241 353,241 353,241 354,241 354,241  Z"/>

<path  fill="#FF3427" stroke-width="0" stroke="#FF3427" d = " M313 297 C311.12,297 302.334,300.583 299.5,302 294.301,304.599 289.167,299 285,299 285,296.46 288,296.457 288,295 299.153,295 302.985,299.53 309,287.5 309,287.5 315,283 315,283 315,283 316,282 316,282 316,278.561 323.156,277.188 325,273.5 327.683,268.135 331,258.596 331,253 331,253 334.5,247 334.5,247 340.228,244.136 341.992,243 348,243 348,245.339 348,248.523 348,251 348,251 347,252 347,252 341.418,252 341,255.766 341,260 341,262.563 324.465,284.035 322.5,286 320.753,287.747 318.897,294 316,294 316,294 315,295 315,295 315,295 314,296 314,296 314,296 313,297 313,297  Z"/>

<path  fill="#FF3427" stroke-width="0" stroke="#FF3427" d = " M171 297 L182.5,302 C187.439,304.469 194.583,299 196,299 196,299 196,296 196,296 196,296 191.5,293 191.5,293 191.5,293 189.5,294 189.5,294 186.269,294 181.638,288.069 179.5,287 169.215,281.857 159,273.772 159,262 159,262 158,260 158,260 155.817,260 145.673,244 140,244 140,244 137,246.5 137,246.5 137,252.098 147,262.746 147,267 147,267 152,275 152,275 152,275 153,276 153,276 153,276 154,277 154,277 154,277 155,278 155,278 155,279.96 162.712,290 165,290 165,290 168,293 168,293 168,293 171,297 171,297  Z"/>

<path  fill="#D4FF00" stroke-width="0" stroke="#D4FF00" d = " M178 249 C186.527,249 195.686,250.872 199,257.5 199.193,257.886 206.309,266 203.5,266 200.12,266 183.143,252 179,252 179,252 178,249 178,249  Z"/>

<path  fill="#D4FF00" stroke-width="0" stroke="#D4FF00" d = " M297 249 L282.5,260 C280.289,261.105 278.653,264.577 281.5,266 283.822,267.161 289.001,262.499 290.5,261 293.913,257.587 318.697,249 297,249  Z"/>

<path  fill="#F44345" stroke-width="0" stroke="#F44345" d = " M254 258 L254,259 C254,259 256.5,263 256.5,263 262.003,268.503 264.276,254.388 259.5,252 259.5,252 255,253 255,253 255,253 255,255 255,255 255,256.048 255.473,258 254,258  Z"/>

<path  fill="#FFBA00" stroke-width="0" stroke="#FFBA00" d = " M315 283 L309,287.5 C302.985,299.53 299.153,295 288,295 288,284.661 294.699,274.401 303.5,270 303.5,270 305.5,267 305.5,267 308.042,265.729 319,262.034 319,258 323.921,258 325.86,253 331,253 331,258.596 327.683,268.135 325,273.5 323.156,277.188 316,278.561 316,282 316,282 315,283 315,283  Z"/>

<path  fill="#F44345" stroke-width="0" stroke="#F44345" d = " M225 254 C225,255.564 224,257.876 224,260 224,275.755 241.825,254 225,254  Z"/>

<path  fill="#9953FF" stroke-width="0" stroke="#9953FF" d = " M255 255 C253.527,255 254,256.952 254,258 255.473,258 255,256.048 255,255  Z"/>

<path  fill="#FFBA00" stroke-width="0" stroke="#FFBA00" d = " M163 263 C163,264.349 172.966,267.233 174.5,268 L182.5,277 C183.618,277.559 195.7,285.901 196,286.5 197.383,289.266 196,293.783 196,296 196,296 191.5,293 191.5,293 191.5,293 189.5,294 189.5,294 186.269,294 181.638,288.069 179.5,287 169.215,281.857 159,273.772 159,262 159,262 162,263 162,263 162,263 163,263 163,263  Z"/>

<path  fill="#2E8B57" stroke-width="0" stroke="#2E8B57" d = " M399 279 L411.5,283 C413.325,283.913 415.316,282 416.5,282 L419.5,286 C423.891,286 430.224,286 435,286 441.686,286 440,274.259 440,271 433.947,271 423.809,268.655 418.5,266 416.428,264.964 412.653,269.577 409.5,268 409.5,268 405,266 405,266 403.007,266 403.65,271.2 403,272.5 401.91,274.679 399,276.632 399,279  Z"/>

<path  fill="#2E8B57" stroke-width="0" stroke="#2E8B57" d = " M86 280 L79.5,284 C76.948,285.276 68.2182,284.641 67.5,285 L64.5,289 C60.5938,290.953 53.4948,290 50,290 42.8837,290 44,278.44 44,273 44,273 45,272 45,272 45,272 63.5,271 63.5,271 63.5,271 66.5,269 66.5,269 68.2406,269 68.8908,273.305 71.5,272 76.409,269.545 73.309,268 81,268 81,272.55 86,275.948 86,280  Z"/>

<path  fill="#DD6479" stroke-width="0" stroke="#DD6479" d = " M45 272 L44,273 C44,273 45,272 45,272  Z"/>

<path  fill="#03C12D" stroke-width="0" stroke="#03C12D" d = " M326 314 C327.747,314 328,314.253 328,316 328,316 333.5,319 333.5,319 333.5,319 341.5,320 341.5,320 348.631,323.565 354.448,329.474 361.5,333 368.54,336.52 377.748,329.624 384.5,333 417.708,349.604 435,314.513 435,286 430.224,286 423.891,286 419.5,286 419.5,286 416.5,282 416.5,282 415.316,282 413.325,283.913 411.5,283 411.5,283 399,279 399,279 399,279 397,279 397,279 397,279 384.5,288 384.5,288 378.682,290.909 355.335,298 349,298 349,299.908 334,307.112 334,300 334,300 326.5,304 326.5,304 325.726,304.387 322,301.249 322,304 324.99,304 326,311.501 326,314  Z"/>

<path  fill="#03C12D" stroke-width="0" stroke="#03C12D" d = " M157 322 L152.5,326 C145.127,326 149.995,326.253 144.5,329 L138.5,329 C134.919,330.79 135.493,335 130,335 125.062,335 116.807,335.847 112.5,338 107.376,340.562 99.699,336 95.5,336 85.5215,336 68.8745,342.249 62,328.5 62,328.5 56,317.5 56,317.5 56,317.5 54,307.5 54,307.5 51.4755,302.451 50,295.997 50,290 53.4948,290 60.5938,290.953 64.5,289 64.5,289 67.5,285 67.5,285 68.2182,284.641 76.948,285.276 79.5,284 79.5,284 86,280 86,280 90.0679,280 93.1736,290 99,290 99,290 101,290 101,290 101,290 103,292 103,292 113.399,292 121.2,300 132,300 132,300 133,301 133,301 133,303.52 145.147,306 148,306 148,306 151.5,307 151.5,307 151.5,307 154,304 154,304 163.204,304 162.924,315 166,315 166,315 162,319 162,319 162,319 161,319 161,319 158.657,319 157,319.285 157,322  Z"/>

<path  fill-rule="evenodd" fill="#E278A1" stroke-width="0" stroke="#E278A1" d = " M232 303 C232,309.133 238.133,303 232,303  M253 299 L251,302.5 C250.164,304.173 253.952,308.774 255.5,308 256.93,307.285 255.899,299 253,299  M232 297 L231,299.5 C234.594,306.687 238.558,297 232,297  M240 332 L238,328.5 C239.75,325 249,322.57 249,328.5 L247,332 C247,335.191 252.72,330.39 253.5,330 253.5,330 263.5,328 263.5,328 263.5,328 266.5,325 266.5,325 277.221,319.64 277.097,323.306 283,311.5 283,311.5 284,308.5 284,308.5 284,308.5 282,302.5 282,302.5 282,302.5 284,299 284,299 279.861,299 277.968,292.734 274.5,291 269.13,288.315 259.605,289.052 259.5,289 259.5,289 257.5,286 257.5,286 257.5,286 254.5,287 254.5,287 254.5,287 252.5,284 252.5,284 252.5,284 243.5,284 243.5,284 243.5,284 241.5,283 241.5,283 237.505,284.998 231.383,282.058 227.5,284 227.5,284 224.5,288 224.5,288 220.874,289.813 215.685,290.407 212.5,292 212.5,292 206,298.5 206,298.5 205.426,299.647 207.064,303 205,303 205,318.267 204.768,329 224.5,329 227.428,329 240,332.511 240,332  Z"/>

<path  fill="#DDD951" stroke-width="0" stroke="#DDD951" d = " M349 298 C349,299.908 334,307.112 334,300 334,295.117 349,292.152 349,298  Z"/>

<path  fill="#DDD951" stroke-width="0" stroke="#DDD951" d = " M133 301 L140.5,296 C142.939,294.78 154,300.727 154,304 154,304 151.5,307 151.5,307 151.5,307 148,306 148,306 145.147,306 133,303.52 133,301  Z"/>

<path  fill="#EEBA00" stroke-width="0" stroke="#EEBA00" d = " M232 297 L231,299.5 C234.594,306.687 238.558,297 232,297  Z"/>

<path  fill="#EEBA00" stroke-width="0" stroke="#EEBA00" d = " M253 299 L251,302.5 C250.164,304.173 253.952,308.774 255.5,308 256.93,307.285 255.899,299 253,299  Z"/>

<path  fill="#EEBA00" stroke-width="0" stroke="#EEBA00" d = " M232 303 C232,309.133 238.133,303 232,303  Z"/>

<path  fill-rule="evenodd" fill="#FA8072" stroke-width="0" stroke="#FA8072" d = " M337 336 C337,343.975 341.275,336 337,336  M326 314 C327.747,314 328,314.253 328,316 322.289,316 331.402,319.451 332.5,320 332.5,320 337.5,325 337.5,325 337.5,325 342.5,324 342.5,324 342.5,324 354,334.5 354,334.5 359.808,346.116 350.411,345.677 349,348.5 348.216,350.067 350.712,351.394 347.5,353 346.027,353.736 342.943,352.615 342,354.5 341.096,356.308 348.876,357.812 344.5,360 344.5,360 339.5,357 339.5,357 339.5,357 334.5,358 334.5,358 334.5,358 333.5,355 333.5,355 333.5,355 325.5,358 325.5,358 320.492,360.504 310.714,356.107 306.5,354 299.532,350.516 305.945,345.39 304,341.5 301.829,337.159 304.138,337.225 306,333.5 307.339,330.823 301.058,327.721 308.5,324 308.5,324 312.5,325 312.5,325 319.451,321.524 318.515,314 326,314  Z"/>

<path  fill="#FA8072" stroke-width="0" stroke="#FA8072" d = " M157 322 L152.5,326 C145.127,326 149.995,326.253 144.5,329 L138.5,329 C134.919,330.79 135.493,335 130,335 130,339.248 119.774,337.048 123,343.5 124.191,345.882 125.845,344.173 127.5,345 127.5,345 130.5,349 130.5,349 135.136,351.318 140.052,348.776 144.5,351 144.5,351 148.5,355 148.5,355 148.5,355 152,354 152,354 152,354 162.5,355 162.5,355 169.128,351.686 155.786,345 162.5,345 167.103,345 169.455,359.523 178.5,355 183.283,352.609 182.165,346.17 184,342.5 184.876,340.748 189.174,337.848 188,335.5 186.766,333.032 184.355,333.855 183,332.5 175.707,325.207 173.685,319 162,319 162,319 161,319 161,319 161,320.712 158.429,322 157,322  Z"/>

<path  fill="#022CFF" stroke-width="0" stroke="#022CFF" d = " M240 332 C243.066,332 244.417,332 247,332 247,332 249,328.5 249,328.5 249,322.57 239.75,325 238,328.5 238,328.5 240,332 240,332  Z"/>

</g>
</svg>
