<svg xmlns="http://www.w3.org/2000/svg" xmlns:xlink="http://www.w3.org/1999/xlink" height="512" width="512">
<g>
<rect width="512" height="512" fill="#000000"  stroke-width="0" /> 
<path  fill="#03C12D" stroke-width="0" stroke="#03C12D" d = " M182 134 L168,141 C168,138.53 174.111,133.722 174,133.5 174,133.5 168.5,133 168.5,133 158.59,128.045 139.954,126.773 129.5,132 126.557,133.471 109,131.242 109,129 112.124,129 114.906,123.689 116,121.5 116,121.5 136.5,103 136.5,103 140.164,101.168 142.947,97.2763 145.5,96 150.686,93.407 156.221,91.6395 161.5,89 164.795,87.3525 175.669,91.5845 178.5,93 178.5,93 178.5,97 178.5,97 181.611,98.5553 186.471,96.4857 189.5,98 192.342,99.4208 188.98,100.46 190,102.5 190,102.5 196,105.5 196,105.5 197.812,109.124 197,114.682 197,119 197,119 194,121 194,121 184.961,121 189,124.884 189,126 189,126 187,127 187,127 185.21,127 183.393,130 185,130 185,130 182,134 182,134  Z"/>

<path  fill="#03C12D" stroke-width="0" stroke="#03C12D" d = " M314 137 L316,138 C316,136.386 315.609,132.554 314.5,132 313.777,131.639 309.873,132.753 311,130.5 311,130.5 328.5,130 328.5,130 334.039,127.231 362.233,125.367 367.5,128 370.7,129.6 373.212,125 376,125 376,119.837 363.811,111.155 359.5,109 359.5,109 356.5,105 356.5,105 352.936,103.218 350.151,99.8256 346.5,98 346.5,98 341.5,97 341.5,97 341.5,97 338.5,92 338.5,92 333.434,89.4669 317.204,89.1478 313.5,91 313.5,91 306.5,91 306.5,91 301.068,93.7159 295.723,94.7769 291,99.5 291,99.5 289,100.5 289,100.5 289,103.703 290.479,105.458 292,108.5 292,108.5 292,114.5 292,114.5 293.655,117.81 298,119.248 298,123 300.134,123 310,132.903 310,134 310,134 313,137 313,137 313,137 314,137 314,137  Z"/>

<path  fill="#EE2F2C" stroke-width="0" stroke="#EE2F2C" d = " M169 204 C180.313,204 193.042,204 204,204 204,200.995 207.408,194 211,194 211,194 212,193 212,193 212,193 212,191 212,191 212,191 218,185 218,185 218,185 220,184 220,184 220,182.753 222.467,179 224,179 224,179 238,164 238,164 238,161.068 242.648,156.204 244,153.5 244.444,152.611 244.608,147.054 246.5,148 248.882,149.191 247.173,150.845 248,152.5 248,152.5 256,166 256,166 256.467,166 271,181.567 271,184 272.067,184 277,191.571 277,193 279.36,193 289,200.028 289,202 290.001,202 303.73,203.615 304.5,204 308.602,206.051 309.946,208 315,208 315,205.795 318.251,207.998 319,206.5 320.593,203.313 318.995,193 324,193 324,193 327,187 327,187 325.386,187 326,183.69 326,182.5 326,182.5 326,167.5 326,167.5 324.037,163.574 324.921,158.342 323,154.5 320.333,149.166 314,142.392 314,137 314,137 313,137 313,137 311.342,137 310,135.539 310,134 310,132.903 300.134,123 298,123 294.545,123 292.344,120.422 289.5,119 284.204,116.352 271.132,118.684 266.5,121 266.5,121 260.5,127 260.5,127 260.5,127 255.5,128 255.5,128 253.14,129.18 248.609,135.554 245.5,134 245.5,134 238.5,126 238.5,126 233.92,123.71 230.153,120.326 225.5,118 215.044,112.772 206.449,119 197,119 197,119 194,121 194,121 194,123.941 191.904,126 189,126 189,126 187,127 187,127 187,128.238 186.577,130 185,130 185,130 182,134 182,134 182,138.998 176.399,136.702 175,139.5 170.911,147.678 168.315,156.871 164,165.5 164,165.5 164,191.5 164,191.5 166.644,196.789 169,197.733 169,204  Z"/>

<path  fill="#89D355" stroke-width="0" stroke="#89D355" d = " M395 138 C395,139.514 382.351,141.074 380.5,142 369.596,147.452 353.231,140.634 342.5,146 339.179,147.66 333.722,153 330,153 327.841,153 316,139.77 316,138 316,136.386 315.609,132.554 314.5,132 313.777,131.639 309.873,132.753 311,130.5 311,130.5 328.5,130 328.5,130 334.039,127.231 362.233,125.367 367.5,128 370.7,129.6 373.212,125 376,125 380.525,125 395,132.62 395,138  Z"/>

<path  fill="#89D355" stroke-width="0" stroke="#89D355" d = " M84 146 C88.9667,146 93.1328,152 98.5,152 112.779,152 129.131,142.315 142.5,149 145.657,150.578 154,152.038 154,157 157.461,157 162.578,148.344 164,145.5 164,145.5 168,141 168,141 168,138.53 174.111,133.722 174,133.5 174,133.5 168.5,133 168.5,133 158.59,128.045 139.954,126.773 129.5,132 126.557,133.471 109,131.242 109,129 101.669,129 84,137.864 84,146  Z"/>

<path  fill="#DDD951" stroke-width="0" stroke="#DDD951" d = " M408 155 C408,159.435 400.693,157.903 398.5,159 394.636,160.932 377.274,157 370.5,157 364.49,157 350.586,161.457 345.5,164 341.064,166.218 339.499,171 334,171 329.631,171 330,156.343 330,153 333.722,153 339.179,147.66 342.5,146 353.231,140.634 369.596,147.452 380.5,142 382.351,141.074 395,139.514 395,138 399.302,138 408,150.921 408,155  Z"/>

<path  fill="#DDD951" stroke-width="0" stroke="#DDD951" d = " M72 163 C78.3657,163 88.3685,169.566 95.5,166 99.6118,163.944 120.06,160.78 124.5,163 L137.5,169 C140.896,170.698 144.065,177 148,177 154.103,177 154,161.44 154,157 154,152.038 145.657,150.578 142.5,149 129.131,142.315 112.779,152 98.5,152 93.1328,152 88.9667,146 84,146 78.4168,146 72,157.953 72,163  Z"/>

<path  fill="#022CFF" stroke-width="0" stroke="#022CFF" d = " M252 168 L253,168 C255.215,168 254.519,166 256,166 256,166 248,152.5 248,152.5 247.173,150.845 248.882,149.191 246.5,148 244.608,147.054 244.444,152.611 244,153.5 242.648,156.204 238,161.068 238,164 238,171.384 246.573,168 252,168  Z"/>

<path  fill="#FFBB0D" stroke-width="0" stroke="#FFBB0D" d = " M428 227 L423.5,226 C419.797,227.851 415.589,234.677 418,239.5 418.989,241.478 421,241.523 421,244 421,244 414.5,251 414.5,251 410.881,252.81 405.073,249.714 402.5,251 402.5,251 400.5,253 400.5,253 400.5,253 393.5,246 393.5,246 393.5,246 384.5,243 384.5,243 384.061,242.78 375.732,228.964 375,227.5 375,227.5 375,221.5 375,221.5 375,221.5 371,216.5 371,216.5 371,216.5 371,210.5 371,210.5 371,210.5 367,208.5 367,208.5 361.103,196.705 355.232,197.965 350,187.5 347.113,181.725 334,182.768 334,171 339.499,171 341.064,166.218 345.5,164 350.586,161.457 364.49,157 370.5,157 377.274,157 394.636,160.932 398.5,159 400.693,157.903 408,159.435 408,155 411.932,155 416,171.633 416,175.5 416,175.5 418,182.5 418,182.5 418,182.5 417,185.5 417,185.5 417.821,187.143 422,188.726 422,191.5 422,209.441 422.18,205.859 430,221.5 431.27,224.041 428,225.209 428,227  Z"/>

<path  fill="#FFBB0D" stroke-width="0" stroke="#FFBB0D" d = " M55 232 C63.7423,232 63.6887,231.877 68,240.5 L67,244.5 C67.5948,245.69 68.8265,247.847 68,249.5 L66,253 C66,255.748 78.0104,262.745 81.5,261 81.5,261 88.5,254 88.5,254 91.521,252.49 94.9637,250.768 98.5,249 106.52,244.99 106.777,232.945 110,226.5 112.922,220.657 117.804,208.348 124.5,205 132.817,200.842 148,187.225 148,177 144.065,177 140.896,170.698 137.5,169 137.5,169 124.5,163 124.5,163 120.06,160.78 99.6118,163.944 95.5,166 88.3685,169.566 78.3657,163 72,163 72,163 66,171.5 66,171.5 63.7468,176.006 62.3355,180.829 60,185.5 56.0813,193.337 65.1687,203.163 61,211.5 57.5658,218.368 55,224.811 55,232  Z"/>

<path  fill="#FFFF00" stroke-width="0" stroke="#FFFF00" d = " M255 178 C249.639,178 242.996,179 237,179 237,177.046 232.351,174.075 236.5,172 237.636,171.432 252,171.627 252,168 252,168 253,168 253,168 253,168 257,172.5 257,172.5 257,172.5 255,178 255,178  Z"/>

<path  fill="#022CFF" stroke-width="0" stroke="#022CFF" d = " M238 182 C235.913,182 233.607,183 231,183 231,179.113 224,182.431 224,179 228.73,179 233.121,179 237,179 242.996,179 249.639,178 255,178 255,178 261,177.5 261,177.5 261,177.5 263.5,180 263.5,180 263.5,180 268,180.5 268,180.5 268,180.5 261.5,181 261.5,181 257.561,179.031 247.439,179.031 243.5,181 242.262,181.619 238,179.856 238,182  Z"/>

<path  fill-rule="evenodd" fill="#FFFF00" stroke-width="0" stroke="#FFFF00" d = " M253 186 C253,187.743 246.032,187 244.5,187 239.115,187 213.022,184.545 219,196.5 223.399,205.299 247.351,207.075 255.5,203 L268.5,203 C273.187,200.657 271.593,190.046 267.5,188 263.021,185.761 258.443,186 253,186  M271 210 L272,210 C272,210 278,205.5 278,205.5 280.803,199.894 277,196.259 277,193 277,191.571 272.067,184 271,184 271,184 267.5,182 267.5,182 266.653,181.576 241.153,182 238,182 235.913,182 233.607,183 231,183 231,183 220,184 220,184 220,184 218,185 218,185 218,185 212,191 212,191 213.399,191 213.399,193 212,193 212,193 211,194 211,194 211,194 210,204.5 210,204.5 211.274,207.048 213,206.812 213,210 213,210 214,212 214,212 216.412,212 219.526,215.487 222.5,214 236.88,206.81 255.355,210 271,210  Z"/>

<path  fill="#FFFF00" stroke-width="0" stroke="#FFFF00" d = " M327 187 C328.791,187 329.959,183.73 332.5,185 343.629,190.564 352.823,203.146 358,213.5 359.594,216.688 362.379,226.56 357.5,229 355.011,230.245 348.055,228.611 347,226.5 343.01,218.52 324,200.768 324,193 324,193 327,187 327,187  Z"/>

<path  fill="#00FFFF" stroke-width="0" stroke="#00FFFF" d = " M253 186 C253,187.743 246.032,187 244.5,187 239.115,187 213.022,184.545 219,196.5 223.399,205.299 247.351,207.075 255.5,203 L268.5,203 C273.187,200.657 271.593,190.046 267.5,188 263.021,185.761 258.443,186 253,186  Z"/>

<path  fill="#FFFF00" stroke-width="0" stroke="#FFFF00" d = " M153 189 C153,191.195 139.494,198.497 146.5,202 149.697,203.598 161.755,189 153,189  Z"/>

<path  fill="#9953FF" stroke-width="0" stroke="#9953FF" d = " M248 335 C246.394,335 243.661,332.919 241.5,334 L237,336 C237,332.884 241,333.165 241,330.5 241,328.601 239.392,324.554 236.5,326 234.944,326.778 236.193,330 233,330 233,320.649 212.496,316.508 208,325.5 208,325.5 210,331 210,331 205.052,331 200,325.967 200,332 192.155,332 180.929,316 179,316 179,304.731 172.65,297.8 168,288.5 166.848,286.195 167.204,282.907 166,280.5 166,280.5 162,276.5 162,276.5 162,276.5 163,272.5 163,272.5 161.693,269.886 158,267.06 158,264 158,256.162 158.159,236.183 161,230.5 161,230.5 161,220.5 161,220.5 163.464,215.572 169,209.733 169,204 180.313,204 193.042,204 204,204 204,205.727 211.015,210 213,210 213,210 214,212 214,212 214,212 213,219 213,219 213,220.639 211,221.455 211,222.5 211,222.5 216,228.5 216,228.5 217.486,231.472 217.484,235.468 219,238.5 225.511,251.522 255.135,250.182 265.5,245 272.434,241.533 269.562,236.377 272,231.5 272,231.5 277,224.5 277,224.5 277.87,222.761 275.861,218 274,218 274,207.787 282,215.837 282,211 282,211 282,210 282,210 282,208.592 287.053,202 289,202 290.001,202 303.73,203.615 304.5,204 308.602,206.051 309.946,208 315,208 315,214.694 322.109,222.718 325,228.5 326.808,232.116 324.136,237.773 326,241.5 328.557,246.614 326,253.788 326,259 326,260.033 322.579,265 325,265 325,270.229 323.205,275.09 321,279.5 321,279.5 322,284.5 322,284.5 320.716,287.068 320.219,290.063 319,292.5 319,292.5 314,298.5 314,298.5 311.922,302.656 310,312.357 310,317 303.929,317 293.754,333 288,333 288,332.145 280.335,329 279,329 279,309.677 256,324.982 256,330 254.737,330 239.419,322.339 243,329.5 244.394,332.288 248,331.567 248,335  Z"/>

<path  fill="#022CFF" stroke-width="0" stroke="#022CFF" d = " M271 210 L272,210 C278.359,210 271,212.322 271,210  Z"/>

<path  fill="#022CFF" stroke-width="0" stroke="#022CFF" d = " M282 210 C280.814,210 280.814,211 282,211 282,211 282,210 282,210  Z"/>

<path  fill="#FFFF00" stroke-width="0" stroke="#FFFF00" d = " M241 212 C241,212.773 237.001,215.502 239,219.5 240.338,222.177 241.17,220 242.5,220 245.21,220 246.846,224.827 250.5,223 253.505,221.498 259.612,212 251.5,212 248.301,212 244.79,212 241,212  Z"/>

<path  fill="#FFFF00" stroke-width="0" stroke="#FFFF00" d = " M260 215 L260,216 C260,216 262,217.5 262,217.5 263.09,215.319 260,212.564 260,215  Z"/>

<path  fill="#022CFF" stroke-width="0" stroke="#022CFF" d = " M260 215 C257.788,215 257.788,216 260,216 260,216 260,215 260,215  Z"/>

<path  fill="#EB57FF" stroke-width="0" stroke="#EB57FF" d = " M274 218 C275.861,218 277.87,222.761 277,224.5 L272,231.5 C269.562,236.377 272.434,241.533 265.5,245 255.135,250.182 225.511,251.522 219,238.5 217.484,235.468 217.486,231.472 216,228.5 L211,222.5 C211,221.455 213,220.639 213,219 220.782,219 230.063,221.282 237.5,225 239.047,225.773 242.493,229.003 244.5,228 250.276,225.112 267.823,218 274,218  Z"/>

<path  fill="#41FF27" stroke-width="0" stroke="#41FF27" d = " M428 227 L423.5,226 C419.797,227.851 415.589,234.677 418,239.5 418.989,241.478 421,241.523 421,244 429.963,244 428,231.975 428,227  Z"/>

<path  fill="#41FF27" stroke-width="0" stroke="#41FF27" d = " M55 232 C63.7423,232 63.6887,231.877 68,240.5 L67,244.5 C67.5948,245.69 68.8265,247.847 68,249.5 L66,253 C52.7786,253 55,240.455 55,232  Z"/>

<path  fill="#86CC4C" stroke-width="0" stroke="#86CC4C" d = " M310 317 L314,318 C317.101,318 316.544,313 320,313 320,313 321,309 321,309 319.601,309 319.601,307 321,307 321,307 321,306 321,306 321,306 322,305 322,305 322,302.363 325.245,301.01 326,299.5 329.741,292.018 338.168,270 349,270 349,267.574 353.616,264.733 352,261.5 352,261.5 348.5,259 348.5,259 348.5,259 345.5,256 345.5,256 337.126,251.813 329.263,265 325,265 325,270.229 323.205,275.09 321,279.5 321,279.5 322,284.5 322,284.5 320.716,287.068 320.219,290.063 319,292.5 319,292.5 314,298.5 314,298.5 311.922,302.656 310,312.357 310,317  Z"/>

<path  fill="#86CC4C" stroke-width="0" stroke="#86CC4C" d = " M179 316 C179,317.577 177.238,318 176,318 172.935,318 169,315.999 169,311 169,302.985 154.021,284.542 150,276.5 148.796,274.093 142.354,269 140,269 140,267.016 136.722,265.055 138,262.5 145.076,248.347 156.036,264 158,264 158,267.06 161.693,269.886 163,272.5 163,272.5 162,276.5 162,276.5 162,276.5 166,280.5 166,280.5 167.204,282.907 166.848,286.195 168,288.5 172.65,297.8 179,304.731 179,316  Z"/>

<path  fill="#FA8072" stroke-width="0" stroke="#FA8072" d = " M140 269 C142.354,269 148.796,274.093 150,276.5 154.021,284.542 169,302.985 169,311 166.134,311 171.182,318.659 168.5,320 161.77,323.365 155.397,315.449 150.5,313 144.474,309.987 131.581,284.338 134,279.5 134.647,278.205 133.446,269 140,269  Z"/>

<path  fill="#FA8072" stroke-width="0" stroke="#FA8072" d = " M321 309 L320,313 C320,321.786 332.151,315.674 335.5,314 340.132,311.684 356.126,284.753 354,280.5 352.238,276.976 357.229,270 349,270 338.168,270 329.741,292.018 326,299.5 325.245,301.01 322,302.363 322,305 322,305 321,306 321,306 321,306 321,307 321,307 321,307 321,309 321,309  Z"/>

<path  fill="#9953FF" stroke-width="0" stroke="#9953FF" d = " M322 305 L321,306 C321,306 322,305 322,305  Z"/>

<path  fill="#80AAFF" stroke-width="0" stroke="#80AAFF" d = " M234 338 L233,339 C233,339 227.5,343 227.5,343 220.745,346.378 200,339.427 200,332 192.155,332 180.929,316 179,316 179,317.577 177.238,318 176,318 176,326.05 190.372,334.936 196.5,338 203.541,341.52 215.695,352.903 225.5,348 229.541,345.979 234.511,345.994 238.5,344 238.5,344 242.5,342 242.5,342 244.612,343.056 247.495,341.997 249.5,343 263.586,350.043 273.318,346.591 286.5,340 292.172,337.164 314,325.499 314,318 314,318 310,317 310,317 303.929,317 293.754,333 288,333 288,333 282.5,339 282.5,339 282.5,339 271.5,343 271.5,343 271.5,343 269.5,342 269.5,342 265.39,342 260.781,343.141 256.5,341 253.551,339.525 251.504,335 248,335 246.394,335 243.661,332.919 241.5,334 241.5,334 237,336 237,336 237,336 235,337 235,337 235,337 234,338 234,338  Z"/>

<path  fill="#FF3427" stroke-width="0" stroke="#FF3427" d = " M279 329 C279,338.836 256,335.646 256,330 256,324.982 279,309.677 279,329  Z"/>

<path  fill="#FF3427" stroke-width="0" stroke="#FF3427" d = " M233 330 C233,332.593 229.833,332.334 228.5,333 217.815,338.342 219.343,331 210,331 210,331 208,325.5 208,325.5 212.496,316.508 233,320.649 233,330  Z"/>

<path  fill="#00D70B" stroke-width="0" stroke="#00D70B" d = " M234 338 L233,339 C233,339 227.5,343 227.5,343 220.745,346.378 200,339.427 200,332 200,325.967 205.052,331 210,331 219.343,331 217.815,338.342 228.5,333 229.833,332.334 233,332.593 233,330 236.193,330 234.944,326.778 236.5,326 239.392,324.554 241,328.601 241,330.5 241,333.165 237,332.884 237,336 237,336 235,337 235,337 235,337 234,338 234,338  Z"/>

<path  fill="#00D70B" stroke-width="0" stroke="#00D70B" d = " M288 333 L282.5,339 L271.5,343 L269.5,342 C265.39,342 260.781,343.141 256.5,341 253.551,339.525 251.504,335 248,335 248,331.567 244.394,332.288 243,329.5 239.419,322.339 254.737,330 256,330 256,335.646 279,338.836 279,329 280.335,329 288,332.145 288,333  Z"/>

<path  fill="#9953FF" stroke-width="0" stroke="#9953FF" d = " M237 336 L235,337 C235,337 237,336 237,336  Z"/>

<path  fill="#9953FF" stroke-width="0" stroke="#9953FF" d = " M235 337 L234,338 C234,338 235,337 235,337  Z"/>

<path  fill="#9953FF" stroke-width="0" stroke="#9953FF" d = " M234 338 L233,339 C233,339 234,338 234,338  Z"/>

</g>
</svg>
