<svg xmlns="http://www.w3.org/2000/svg" xmlns:xlink="http://www.w3.org/1999/xlink" height="512" width="512">
<g>
<rect width="512" height="512" fill="#000000"  stroke-width="0" /> 
<path  fill="#FA8072" stroke-width="0" stroke="#FA8072" d = " M159 347 C159,347.353 152.877,352.747 152,354.5 150.788,356.924 154.331,378.838 152,383.5 L143.5,385 L136,393.5 C132.14,401.219 145.591,393.545 148.5,395 154.591,398.045 148.532,406.484 159.5,401 160.682,400.409 163.532,401.984 165.5,401 168.338,399.581 168.929,396.643 170,394.5 L173,391.5 C175.234,387.031 170,383.32 170,379.5 170,368.713 176.118,347 159,347  Z"/>

<path  fill="#FA8072" stroke-width="0" stroke="#FA8072" d = " M327 349 L325,351.5 L328,354.5 C328.913,356.325 327,358.316 327,359.5 327,362.558 328.576,380.348 327,383.5 325.444,386.612 321.755,383.991 320,387.5 317.528,392.445 325.615,394.73 327,397.5 L327.5,403 L328.5,397 C331.564,395.468 335.282,405.109 339.5,403 L340.5,396 C341.815,395.342 346.225,398.138 348.5,397 354.947,393.776 350.991,386.246 346.5,384 L340.5,386 L340,380.5 C338.089,376.678 337.595,373.69 336,370.5 L336,353.5 C335.405,352.311 328.739,349 327,349  Z"/>

</g>
</svg>
