<svg xmlns="http://www.w3.org/2000/svg" xmlns:xlink="http://www.w3.org/1999/xlink" height="512" width="512">
<g>
<rect width="512" height="512" fill="#000000"  stroke-width="0" /> 
<path  fill="#03C12D" stroke-width="0" stroke="#03C12D" d = " M378 122 C376.499,122 362.344,126.078 360.5,127 L320.5,126 C317.737,127.382 310.935,130 308,130 302.962,130 299.535,121 294,121 294,117.689 288.153,115.806 287,113.5 285.407,110.314 281.411,95.6785 283,92.5 283.698,91.1046 297.473,89.0134 299.5,88 307.108,84.196 320.35,81.925 328.5,86 330.552,87.0262 332.844,90.6721 335.5,92 335.5,92 341.5,92 341.5,92 342.707,92.6036 345.482,99 346.5,99 348.335,99 360.741,103.982 362,106.5 362,106.5 362,109.5 362,109.5 362,109.5 366.5,110 366.5,110 368.419,110.96 367.341,112.182 368,113.5 369.601,116.702 378,118.901 378,122  Z"/>

<path  fill="#03C12D" stroke-width="0" stroke="#03C12D" d = " M182 132 C178.55,132 177.054,135 174,135 174,129.327 166.131,131.315 161.5,129 153.881,125.19 127.22,128.64 120.5,132 118.152,133.174 103,132.369 103,130 103,125.751 108.851,127.325 111.5,126 111.837,125.832 117.761,116.369 124.5,113 125.688,112.406 125.39,109.055 127.5,108 133.277,105.112 137.577,98.9617 143.5,96 149.41,93.0448 156.578,91.9608 162.5,89 165.109,87.6954 173.322,84.4108 176.5,86 180.822,88.1611 184.098,91.7991 188.5,94 192.182,95.8409 199.766,96.0313 202,100.5 206.353,109.207 192,117.015 192,124 190.461,124 189,125.342 189,127 186.997,127 186,126.707 186,129 186,129 185,130 185,130 185,130 182,132 182,132  Z"/>

<path  fill="#DAAA3E" stroke-width="0" stroke="#DAAA3E" d = " M234 110 C234,111.543 229.366,112.231 231,115.5 234.924,123.347 249.452,126.597 254,117.5 L250.5,114 C244.614,111.057 241.248,110 234,110  Z"/>

<path  fill="#EE2F2C" stroke-width="0" stroke="#EE2F2C" d = " M212 203 L209.5,205 C206.095,206.702 199.98,202.76 197.5,204 194.521,205.489 191.563,206.469 188.5,208 L179.5,205 C178.753,204.626 163.384,205 163,205 163,205 160,199.5 160,199.5 157.113,193.727 158.095,167.309 161,161.5 162.718,158.064 165.616,156.268 167,153.5 168.468,150.565 168.54,146.421 170,143.5 172.053,139.395 182,137.34 182,132 182,132 185,130 185,130 185,130 186,129 186,129 186,129 189,127 189,127 189,125.342 190.461,124 192,124 192,124 202.5,117 202.5,117 208.286,114.107 220.33,116.415 225.5,119 232.15,122.325 236.177,127.677 241.5,133 242.895,134.395 245.014,139.243 247.5,138 247.5,138 249.5,135 249.5,135 258.934,130.283 266.37,123.065 276.5,118 282.238,115.131 289.243,121 294,121 299.535,121 302.962,130 308,130 308,130.413 318,138.22 318,143 318,143 324,148 324,148 324,148 325,150 325,150 325,150 326,152 326,152 326,152 327,155 327,155 327,157.869 328.091,170 332,170 332,170 333,175 333,175 333,178.859 331.338,193.824 330,196.5 327.696,201.107 323,205.533 323,211 319.234,211 319.53,209.515 316.5,208 312.812,206.156 306.828,210.164 302.5,208 296.009,204.755 281.317,197 274,197 274,193.313 259.6,171.7 257,166.5 257,166.5 256,161.5 256,161.5 253.754,157.008 249.261,154.023 247,149.5 246.38,148.26 249.9,140.8 245.5,143 243.395,144.053 243.058,152.384 242,154.5 235.492,167.516 224.499,178.501 218,191.5 216.01,195.479 212,198.211 212,203  Z"/>

<path  fill="#89D355" stroke-width="0" stroke="#89D355" d = " M326 150 C329.186,150 334.236,142.368 337.5,144 342.637,146.569 360.992,149 367.5,149 L381.5,148 C390.763,152.631 399.39,152 410,152 410,148.474 405.45,147.4 404,144.5 401.708,139.917 383.2,122 378,122 376.499,122 362.344,126.078 360.5,127 360.5,127 320.5,126 320.5,126 317.737,127.382 310.935,130 308,130 308,130.413 318,138.22 318,143 319.668,143 324,146.099 324,148 324,148 325,150 325,150 325,150 326,150 326,150  Z"/>

<path  fill="#89D355" stroke-width="0" stroke="#89D355" d = " M109 160 C106.876,160 104.564,161 103,161 103,157.017 91.8001,160.15 89.5,159 89.5,159 80.5,156 80.5,156 80.5,156 76,153 76,153 76,144.639 95.2074,130 103,130 103,132.369 118.152,133.174 120.5,132 127.22,128.64 153.881,125.19 161.5,129 166.131,131.315 174,129.327 174,135 174,135 162,148 162,148 159.228,148 156.833,146.167 154.5,145 148.587,142.044 127.547,151.477 122.5,154 120.654,154.923 109,158.099 109,160  Z"/>

<path  fill="#07FF59" stroke-width="0" stroke="#07FF59" d = " M267 208 C267,204.938 271.859,202.218 270,198.5 L254,167.5 C252.754,165.007 251.325,158.412 248.5,157 241.169,153.335 237.089,166.322 235,170.5 L224,184.5 L219,197.5 C216.558,202.384 222,206.65 222,210 222,210 217.5,212 217.5,212 215.104,210.802 212.272,203 212,203 212,198.211 216.01,195.479 218,191.5 224.499,178.501 235.492,167.516 242,154.5 243.058,152.384 243.395,144.053 245.5,143 249.9,140.8 246.38,148.26 247,149.5 249.261,154.023 253.754,157.008 256,161.5 256,161.5 257,166.5 257,166.5 259.6,171.7 274,193.313 274,197 274,197.965 276.835,207 274,207 274,207 267,208 267,208  Z"/>

<path  fill="#DDD951" stroke-width="0" stroke="#DDD951" d = " M333 175 C334.579,175 334,177.855 334,179 334,179 337.5,181 337.5,181 341.027,179.236 347.947,165.776 357.5,161 357.5,161 365.5,161 365.5,161 376.24,155.63 394.689,167.595 403.5,172 408.395,174.447 415.464,169 417,169 417,161.76 410,156.098 410,152 399.39,152 390.763,152.631 381.5,148 381.5,148 367.5,149 367.5,149 360.992,149 342.637,146.569 337.5,144 334.236,142.368 329.186,150 326,150 326,150 326,152 326,152 326,152 327,155 327,155 330.045,155 332,167.59 332,170 332,170 333,175 333,175  Z"/>

<path  fill="#DDD951" stroke-width="0" stroke="#DDD951" d = " M141 190 L143,195 C145.687,195 149.714,187.073 151,184.5 151,184.5 154,166.5 154,166.5 156.704,161.092 162,154.381 162,148 159.228,148 156.833,146.167 154.5,145 148.587,142.044 127.547,151.477 122.5,154 120.654,154.923 109,158.099 109,160 109,165.449 122.549,162.525 125.5,164 133.984,168.242 139,167.038 139,179 142.224,179 141,187.784 141,190  Z"/>

<path  fill="#DDD951" stroke-width="0" stroke="#DDD951" d = " M103 161 L97,165.5 C92.7129,169.787 80.3848,178.442 73.5,175 L67,173 C67,171.394 64.9193,168.661 66,166.5 66.9882,164.524 74.2293,153 76,153 76,153 80.5,156 80.5,156 80.5,156 89.5,159 89.5,159 91.8001,160.15 103,157.017 103,161  Z"/>

<path  fill-rule="evenodd" fill="#022CFF" stroke-width="0" stroke="#022CFF" d = " M236 217 L241.5,222 L248,221 C251.218,221 253.402,214 257,214 257,214 258,213 258,213 260.538,213 261.953,210 265,210 265,210 267,208 267,208 267,204.938 271.859,202.218 270,198.5 270,198.5 254,167.5 254,167.5 252.754,165.007 251.325,158.412 248.5,157 241.169,153.335 237.089,166.322 235,170.5 235,170.5 224,184.5 224,184.5 224,184.5 219,197.5 219,197.5 216.558,202.384 222,206.65 222,210 222,210 225,211 225,211 225,211 228,213 228,213 228,213 230,214 230,214 230,214 236,217 236,217  M252 207 C269.865,207 268.006,182 249.5,182 246.991,182 233.471,183.014 231.5,184 225.137,187.181 220.776,208 240,208 240,210.092 242,208.652 242,207 244.079,207 245.187,208 248,208 249.145,208 252,208.579 252,207  Z"/>

<path  fill="#FFBB0D" stroke-width="0" stroke="#FFBB0D" d = " M50 246 C55.6115,246 58.9284,239.286 63.5,237 64.9997,236.25 68.2765,237.053 69,238.5 L70,247.5 C72.3246,252.149 76,259.664 76,265 76,270.673 92.1238,269.252 95,263.5 95,263.5 98.5,256 98.5,256 101.607,254.446 105.884,255.732 108,251.5 113.659,240.183 119.323,228.854 125,217.5 128.18,211.139 143,209.189 143,195 143,195 141,190 141,190 136.864,190 137.298,179 139,179 139,167.038 133.984,168.242 125.5,164 122.549,162.525 109,165.449 109,160 106.876,160 104.564,161 103,161 103,161 97,165.5 97,165.5 92.7129,169.787 80.3848,178.442 73.5,175 73.5,175 67,173 67,173 67,173.235 61.7871,176.926 61,178.5 57.6063,185.287 55.4362,192.628 52,199.5 49.6177,204.265 57,210.681 57,215.5 57,226.09 50,232.54 50,246  Z"/>

<path  fill="#FFBB0D" stroke-width="0" stroke="#FFBB0D" d = " M432 237 C428.368,237 423.716,229.892 419.5,232 410.05,236.725 410,249.856 410,259 410,263.564 400.356,265.928 396.5,264 391.773,261.636 390.103,253.302 387.5,252 385.416,250.958 383.425,252.925 381.5,251 373.232,242.732 370.114,226.728 365,216.5 361.94,210.381 350.049,203.775 344.5,201 339.654,198.577 339.847,192.194 338,188.5 336.255,185.01 334,183.314 334,179 334,179 337.5,181 337.5,181 341.027,179.236 347.947,165.776 357.5,161 357.5,161 365.5,161 365.5,161 376.24,155.63 394.689,167.595 403.5,172 408.395,174.447 415.464,169 417,169 417,169 423,176.5 423,176.5 426.183,182.866 426.822,190.144 430,196.5 430.828,198.156 424.84,214.18 428,220.5 430.035,224.57 432,228.018 432,233 432,233.666 434.56,237 432,237  Z"/>

<path  fill="#FFFF00" stroke-width="0" stroke="#FFFF00" d = " M252 207 C269.865,207 268.006,182 249.5,182 246.991,182 233.471,183.014 231.5,184 225.137,187.181 220.776,208 240,208 240,208 242,207 242,207 244.079,207 245.187,208 248,208 248,206.179 252,204.882 252,207  Z"/>

<path  fill="#9953FF" stroke-width="0" stroke="#9953FF" d = " M280 324 L282.5,321 C286.626,318.937 292,323.207 292,327 294.596,327 304,320.352 304,318 304,318 309,312.5 309,312.5 311.217,308.065 310.768,301.963 313,297.5 313,297.5 320,290.5 320,290.5 321.881,286.739 329,270.52 329,267 329,267 331,262.5 331,262.5 331,262.5 331,254.5 331,254.5 332.474,251.552 330,250.906 330,248 330,248 331,230.5 331,230.5 329.439,227.377 323,213.69 323,211 319.234,211 319.53,209.515 316.5,208 312.812,206.156 306.828,210.164 302.5,208 296.009,204.755 281.317,197 274,197 274,197.965 276.835,207 274,207 274,207 272,213 272,213 274.226,213 278.423,220.654 277,223.5 277,223.5 268.5,231 268.5,231 267.716,231.392 263.411,239.544 260.5,241 257.812,242.344 241.081,245.79 237.5,244 230.261,240.38 216.282,231.064 212,222.5 209.981,218.462 217.808,212 221,212 221,212 222,210 222,210 222,210 217.5,212 217.5,212 215.104,210.802 212.272,203 212,203 212,203 209.5,205 209.5,205 206.095,206.702 199.98,202.76 197.5,204 194.521,205.489 191.563,206.469 188.5,208 188.5,208 179.5,205 179.5,205 178.753,204.626 163.384,205 163,205 163,213.286 152.803,232.106 156,238.5 158.558,243.616 156,249.841 156,255 156,257.108 156.716,265 156,265 156,267.827 158.831,269.163 160,271.5 161.812,275.123 162.137,279.774 164,283.5 164,283.5 169,288.5 169,288.5 172.628,295.756 179,303.247 179,312 182.865,312 186.934,324 193,324 193,312.403 199.131,321 202,321 202,309.246 208.594,316 212,316 212,314.415 215,311.536 215,315 215,315 216,314 216,314 216,312.514 219,312.514 219,314 225.679,314 232,316.335 232,324 235.837,324 239.047,318 242.5,318 246.861,318 251.155,325 256,325 256,314.75 275.775,309.051 281,319.5 281,319.5 280,324 280,324  Z"/>

<path  fill="#EB57FF" stroke-width="0" stroke="#EB57FF" d = " M236 217 C236,221.641 248,227.664 248,221 251.218,221 253.402,214 257,214 257,214 258,213 258,213 260.538,213 261.953,210 265,210 265,210 272,213 272,213 274.226,213 278.423,220.654 277,223.5 277,223.5 268.5,231 268.5,231 267.716,231.392 263.411,239.544 260.5,241 257.812,242.344 241.081,245.79 237.5,244 230.261,240.38 216.282,231.064 212,222.5 209.981,218.462 217.808,212 221,212 222.145,212 225,212.579 225,211 225,211 228,213 228,213 228,213 230,214 230,214 230,214 236,217 236,217  Z"/>

<path  fill="#41FF27" stroke-width="0" stroke="#41FF27" d = " M432 237 C428.368,237 423.716,229.892 419.5,232 410.05,236.725 410,249.856 410,259 419.273,259 429.644,252.212 434,243.5 434,243.5 432,237 432,237  Z"/>

<path  fill="#41FF27" stroke-width="0" stroke="#41FF27" d = " M50 246 C55.6115,246 58.9284,239.286 63.5,237 64.9997,236.25 68.2765,237.053 69,238.5 L70,247.5 C72.3246,252.149 76,259.664 76,265 76,265 70.5,266 70.5,266 63.5378,262.519 50,255.161 50,246  Z"/>

<path  fill="#86CC4C" stroke-width="0" stroke="#86CC4C" d = " M304 318 C307.311,318 310.546,318 314,318 317.515,318 317.661,312 320,312 320,306.007 333.44,281.53 338.5,279 341.019,277.741 340.976,274 344,274 344,274 345,272 345,272 345,272 347,271 347,271 347,266.608 340.436,259.532 335.5,262 332.948,263.276 331.871,267 329,267 329,270.52 321.881,286.739 320,290.5 320,290.5 313,297.5 313,297.5 310.768,301.963 311.217,308.065 309,312.5 309,312.5 304,318 304,318  Z"/>

<path  fill="#86CC4C" stroke-width="0" stroke="#86CC4C" d = " M169 315 C173.298,315 172.063,320 176,320 176,320 179,317.5 179,317.5 179,317.5 179,312 179,312 179,303.247 172.628,295.756 169,288.5 169,288.5 164,283.5 164,283.5 162.137,279.774 161.812,275.123 160,271.5 158.831,269.163 156,267.827 156,265 156,265 152.5,263 152.5,263 151.005,262.252 149.547,263.477 148.5,264 142.193,267.154 144,266.465 144,273 147.431,273 150.628,279.128 153,281.5 158.229,286.729 169,307.436 169,315  Z"/>

<path  fill="#FA8072" stroke-width="0" stroke="#FA8072" d = " M344 274 C340.976,274 341.019,277.741 338.5,279 333.44,281.53 320,306.007 320,312 320,313.856 317.596,318.693 318,319.5 318.828,321.157 321.651,318.425 322.5,318 325.478,316.511 329.88,319.62 332.5,317 341.388,308.112 347.334,297.833 353,286.5 355.301,281.898 354.042,271 347,271 347,271 345,272 345,272 345,272 344,274 344,274  Z"/>

<path  fill="#FA8072" stroke-width="0" stroke="#FA8072" d = " M144 273 C147.431,273 150.628,279.128 153,281.5 158.229,286.729 169,307.436 169,315 169,315 169,319.5 169,319.5 167.561,322.378 154.083,318.792 152.5,318 151.072,317.286 147.743,309.986 147,308.5 145.677,305.853 140.276,302.051 140,301.5 139.086,299.673 140.573,297.645 140,296.5 140,296.5 137,294.5 137,294.5 133.459,287.419 133.391,273 144,273  Z"/>

<path  fill="#80AAFF" stroke-width="0" stroke="#80AAFF" d = " M193 324 L201,332.5 C208.924,340.424 221.784,345.358 232.5,340 234.492,339.004 236.598,337.951 238.5,337 L242.5,333 C246.512,333 252.829,339.164 256.5,341 266.833,346.167 275.739,339.38 284.5,335 286.914,333.793 292,330.149 292,327 294.596,327 304,320.352 304,318 307.311,318 310.546,318 314,318 314,322.609 294.879,331.743 293,335.5 289.805,341.89 263.771,349.636 256.5,346 253.368,344.434 243.445,341.028 239.5,343 232.791,346.355 220.581,351.04 212.5,347 212.5,347 203.5,343 203.5,343 203.5,343 195.5,335 195.5,335 190.71,332.605 176,326.017 176,320 176,320 179,317.5 179,317.5 179,317.5 179,312 179,312 182.865,312 186.934,324 193,324  Z"/>

<path  fill="#00D70B" stroke-width="0" stroke="#00D70B" d = " M212 316 C212,317.399 214,317.399 214,316 214,316 215,315 215,315 215,311.536 212,314.415 212,316  Z"/>

<path  fill="#00D70B" stroke-width="0" stroke="#00D70B" d = " M216 314 L219,314 C219,312.514 216,312.514 216,314  Z"/>

<path  fill="#FF3427" stroke-width="0" stroke="#FF3427" d = " M202 321 C202,327.235 210.897,323.199 212.5,324 217.8,326.65 219.728,332.386 226.5,329 L232,324 C232,316.335 225.679,314 219,314 219,314 216,314 216,314 216,314 215,315 215,315 215,315 214,316 214,316 214,317.399 212,317.399 212,316 208.594,316 202,309.246 202,321  Z"/>

<path  fill="#FF3427" stroke-width="0" stroke="#FF3427" d = " M280 324 C280,331.158 269.653,329.576 266.5,328 L260.5,329 L256,325 C256,314.75 275.775,309.051 281,319.5 281,319.5 280,324 280,324  Z"/>

<path  fill="#9953FF" stroke-width="0" stroke="#9953FF" d = " M215 315 L214,316 C214,316 215,315 215,315  Z"/>

<path  fill="#00D70B" stroke-width="0" stroke="#00D70B" d = " M280 324 L282.5,321 C286.626,318.937 292,323.207 292,327 292,330.149 286.914,333.793 284.5,335 275.739,339.38 266.833,346.167 256.5,341 252.829,339.164 246.512,333 242.5,333 242.5,333 238.5,337 238.5,337 236.598,337.951 234.492,339.004 232.5,340 221.784,345.358 208.924,340.424 201,332.5 201,332.5 193,324 193,324 193,312.403 199.131,321 202,321 202,327.235 210.897,323.199 212.5,324 217.8,326.65 219.728,332.386 226.5,329 226.5,329 232,324 232,324 235.837,324 239.047,318 242.5,318 246.861,318 251.155,325 256,325 256,325 260.5,329 260.5,329 260.5,329 266.5,328 266.5,328 269.653,329.576 280,331.158 280,324  Z"/>

</g>
</svg>
