<svg xmlns="http://www.w3.org/2000/svg" xmlns:xlink="http://www.w3.org/1999/xlink" height="512" width="512">
<g>
<rect width="512" height="512" fill="#000000"  stroke-width="0" /> 
<path  fill="#03C12D" stroke-width="0" stroke="#03C12D" d = " M451 231 C451,227.608 452.558,224.385 454,221.5 L454,207.5 C454,200.534 450.604,169.707 448,164.5 443.535,155.57 439.44,146.38 435,137.5 433.341,134.182 426.559,129.618 426,128.5 L427,125.5 C427,125.462 424.221,120.941 424,120.5 422.059,116.618 406.509,107.004 402.5,105 L398.5,107 L396.5,103 C387.955,98.7276 381.718,92.1088 373.5,88 371.881,87.1904 370.499,89 369.5,89 368.068,89 362.109,84.8047 360.5,84 353.655,80.5776 342.269,79.8843 334.5,76 L325.5,77 C320.132,74.3161 299.837,69.3316 294.5,72 290.624,73.9381 271.828,68.3361 266.5,71 L254.5,75 L251.5,79 C248.633,80.4333 245.314,81.5929 242.5,83 L238.5,88 C235.978,89.261 234.607,84.0534 232.5,83 225.523,79.5115 220.714,73.6069 213.5,70 211.537,69.0185 186.353,71.0735 184.5,72 L180.5,75 C175.208,77.6462 162.475,75.0125 156.5,78 154.762,78.8692 155.444,83 153.5,83 151.736,83 150.017,79.7416 147.5,81 140.307,84.5965 130.681,83.4093 123.5,87 120.585,88.4575 118.503,91.4986 115.5,93 107.723,96.8883 99.3158,100.092 91.5,104 88.4069,105.547 90.2089,110.146 88.5,111 84.8677,112.816 82.0453,113.227 78.5,115 75.333,116.584 57.834,134.832 56,138.5 51.2227,148.055 46.7445,158.011 42,167.5 38.5765,174.347 34,197.102 34,205.5 34,209.153 31.4618,213.424 33,216.5 33.965,218.43 27.9121,232 35,232 42.3588,232 55.1698,230.665 62.5,227 65.0468,225.727 64.7785,229.861 66.5,229 69.0266,227.737 70.8923,227 74,227 76.144,227 74.3809,222.738 75,221.5 78.8352,213.83 75.2613,204.977 79,197.5 87.2382,181.024 93.7156,151.892 111.5,143 115.142,141.179 127.472,127 134,127 134,125.423 135.762,125 137,125 142.851,125 155.054,118.723 160.5,116 165.998,113.251 176.503,115.999 182.5,113 185.666,111.417 203.467,102.983 205.5,104 207.126,104.813 209.311,102.906 211.5,104 214.034,105.267 212.954,110.408 214,112.5 214,112.5 220,118.5 220,118.5 220,118.5 220,124.5 220,124.5 220,124.5 229.5,133 229.5,133 229.5,133 239,133 239,133 264.916,133 256.331,120.837 264,105.5 264,105.5 271.5,102 271.5,102 271.5,102 279.5,106 279.5,106 287.706,110.103 299.859,108.18 307.5,112 307.5,112 324.5,114 324.5,114 324.5,114 355.5,124 355.5,124 362.294,127.397 368.791,131.645 375.5,135 379.432,136.966 389.978,151.456 392,155.5 400.011,171.522 410,188.716 410,207.5 410,207.5 412,209.5 412,209.5 412,212.829 413,218.078 413,223 413,226.577 421.308,222.904 421.5,223 421.5,223 424.5,226 424.5,226 424.5,226 441.5,226 441.5,226 441.5,226 451,231 451,231  Z"/>

<path  fill-rule="evenodd" fill="#FF6E00" stroke-width="0" stroke="#FF6E00" d = " M380 152 C380,154.091 383.746,152 380,152  M397 281 L398,281 C398,281 400,279 400,279 400,275.963 405,271.388 405,268 405,268 406,267 406,267 406,260.395 411.874,238.248 410,234.5 408.972,232.444 411.955,223 413,223 413,218.078 412,212.829 412,209.5 412,209.5 410,207.5 410,207.5 410,188.716 400.011,171.522 392,155.5 389.978,151.456 379.432,136.966 375.5,135 368.791,131.645 362.294,127.397 355.5,124 355.5,124 324.5,114 324.5,114 324.5,114 307.5,112 307.5,112 299.859,108.18 287.706,110.103 279.5,106 279.5,106 271.5,102 271.5,102 271.5,102 264,105.5 264,105.5 256.331,120.837 264.916,133 239,133 239,133 229.5,133 229.5,133 229.5,133 220,124.5 220,124.5 220,124.5 220,118.5 220,118.5 220,118.5 214,112.5 214,112.5 212.954,110.408 214.034,105.267 211.5,104 209.311,102.906 207.126,104.813 205.5,104 203.467,102.983 185.666,111.417 182.5,113 176.503,115.999 165.998,113.251 160.5,116 155.054,118.723 142.851,125 137,125 137,126.577 135.238,127 134,127 127.472,127 115.142,141.179 111.5,143 93.7156,151.892 87.2382,181.024 79,197.5 75.2613,204.977 78.8352,213.83 75,221.5 74.3809,222.738 76.144,227 74,227 74,229.906 76.3585,255.217 77,256.5 79.1901,260.88 80,264.633 80,270 81.5791,270 81,272.855 81,274 83.341,274 82.4208,276.342 83,277.5 83,277.5 92,287.5 92,287.5 92.776,289.052 99,292.264 99,290 99,290 92,284.5 92,284.5 92,284.5 86,277.5 86,277.5 83.8352,273.17 83.2213,267.943 81,263.5 81,263.5 81,253 81,253 81,247.723 77.6208,231.258 80,226.5 81.3235,223.853 83,220.1 83,217 81.07,217 83,215.839 83,215 83,215 83,213 83,213 81.8141,213 81.8141,212 83,212 83,209.435 82.7635,207 86,207 86,207 86,204 86,204 86,202.253 86.2531,202 88,202 88,202 88,199 88,199 88,199 88,197 88,197 88,197 89,195 89,195 89,193.952 88.5271,192 90,192 90,192 91,190 91,190 91,190 92,189 92,189 92,189 92,186 92,186 92,184.253 92.2531,184 94,184 94,184 94,182 94,182 94,182 95,180 95,180 95,180 96,178 96,178 96,178 97,176 97,176 97,176 97,175 97,175 97,173.952 96.5271,172 98,172 98,172 99,171 99,171 100.845,171 100.441,167.619 101,166.5 101,166.5 109,155.5 109,155.5 120.858,143.642 131.231,137.135 145.5,130 157.915,123.793 182.647,122.795 190,137.5 190,137.5 195,142 195,142 195,142 200.5,146 200.5,146 201.962,146.731 203.936,146.218 205.5,147 208.184,148.342 225.681,147 229,147 229,145.814 230,145.814 230,147 230,147 232,147 232,147 232,147 233,147 233,147 238.151,147 242.701,147 247,147 247,147 249,146 249,146 249,146 252,146 252,146 252,144.527 253.952,145 255,145 255,145 263,144 263,144 263,144 265,144 265,144 265,144 267,144 267,144 267,142.286 272.594,143 274,143 280.108,143 286.892,137 289,137 289,137 294,132.5 294,132.5 299.192,122.116 324.548,120.024 334.5,125 346.68,131.09 361.763,134.263 371.5,144 374.951,147.451 381.226,152.952 383,156.5 383,156.5 387,163 387,163 388.747,163 389,163.253 389,165 389,166.048 388.527,168 390,168 390,168 392,171 392,171 392,171 393,174 393,174 393,174 394,175 394,175 394,175 394,176 394,176 396.167,176 396.934,179 395,179 395,179 396,181 396,181 397.473,181 397,182.952 397,184 397,184.34 406.484,220.467 407,221.5 408.616,224.732 406,230.176 406,233 406,243.833 406.509,256.483 402,265.5 402,265.5 402,271.5 402,271.5 400.459,274.583 397,277.295 397,281  Z"/>

<path  fill="#0E47E2" stroke-width="0" stroke="#0E47E2" d = " M332 303 C330.535,303 322,303.879 322,304 322,312.539 309.844,313.188 307,307.5 304.15,301.801 314,300.692 314,296 316.343,296 318,295.715 318,293 318,293 320,289 320,289 320,289 321,288 321,288 321,288 322,287 322,287 322,287 323,285 323,285 323,285 327,280.5 327,280.5 327,280.5 338,263 338,263 339.747,263 340,262.747 340,261 340,261 349,249 349,249 349,249 349,248 349,248 349.866,248 353,242.038 353,242 353,242 353,241 353,241 353,241 354,240 354,240 354,240 355,239 355,239 355,239 356,235 356,235 356,235 358,233 358,233 358,233 359,232 359,232 359,227.372 365.9,221.3 363,215.5 363,215.5 358,200.5 358,200.5 358,200.5 350,187.5 350,187.5 349.258,186.016 344.789,178 342.5,178 341.455,178 340.639,180 339,180 331.614,180 326.126,173 319,173 319,169.138 297,166.498 297,156 297,156 302,150.5 302,150.5 302,150.5 301.5,147 301.5,147 298.065,145.282 296.121,142.811 292.5,141 292.5,141 289,137 289,137 289,137 294,132.5 294,132.5 299.192,122.116 324.548,120.024 334.5,125 346.68,131.09 361.763,134.263 371.5,144 374.951,147.451 381.226,152.952 383,156.5 383,156.5 387,163 387,163 387,164.747 387.253,165 389,165 389,166.048 388.527,168 390,168 390,169.238 390.423,171 392,171 392,171 393,174 393,174 393,174 394,175 394,175 394,175 394,176 394,176 394,177.048 393.527,179 395,179 395,179 396,181 396,181 396,182.048 395.527,184 397,184 397,184.34 406.484,220.467 407,221.5 408.616,224.732 406,230.176 406,233 406,243.833 406.509,256.483 402,265.5 402,265.5 402,271.5 402,271.5 400.459,274.583 397,277.295 397,281 393.771,281 387.728,286.886 385.5,288 380.096,290.702 354.998,298 349,298 349,293.664 332,293.486 332,303  Z"/>

<path  fill="#0E47E2" stroke-width="0" stroke="#0E47E2" d = " M151 304 L159,307 C164.686,307 160.409,312.454 163.5,314 167.733,316.116 180.843,314.186 177,306.5 174.62,301.741 171,303.147 171,297 171,297 169,294 169,294 169,294 165,290 165,290 165,290 157,281 157,281 157,281 151,274 151,274 151,274 151,273 151,273 151,273 149,271 149,271 149,271 149,269 149,269 149,269 142.5,262 142.5,262 140.3,259.8 126,237.886 126,236 122.968,236 121,225.312 121,223 119.814,223 119.814,222 121,222 121,222 121,219 121,219 121,217.952 120.527,216 122,216 122,216 124,210 124,210 124,210 125,209 125,209 125,206.966 128.957,198 131,198 131,196.753 133.467,193 135,193 135,189.765 147,175.098 147,183 147,183 153,181 153,181 153,177.627 166.364,175 169,175 169,172.609 188,166.254 188,159 188,159 184,154.5 184,154.5 184,154.5 186,151.5 186,151.5 186,151.5 195,142 195,142 195,142 190,137.5 190,137.5 182.647,122.795 157.915,123.793 145.5,130 131.231,137.135 120.858,143.642 109,155.5 109,155.5 101,166.5 101,166.5 100.441,167.619 100.845,171 99,171 99,171 99,172 99,172 99,174.003 99.2935,175 97,175 97,175 97,176 97,176 97,176 96,178 96,178 96,178 95,180 95,180 95,180 94,182 94,182 94,182 94,184 94,184 94,184 93,186 93,186 93,187.048 93.4729,189 92,189 92,189 92,190 92,190 92,190 91,193 91,193 91,193 90,196 90,196 90,196 89,197 89,197 89,197 88,199 88,199 88,199 88,202 88,202 88,202 86,204 86,204 86,204 86,207 86,207 86,208.041 85.0144,212 84,212 84,212 84,215 84,215 84,215 83,217 83,217 83,220.1 81.3235,223.853 80,226.5 77.6208,231.258 81,247.723 81,253 81,253 81,263.5 81,263.5 83.2213,267.943 83.8352,273.17 86,277.5 86,277.5 92,284.5 92,284.5 92,284.5 99,290 99,290 99,290 101,291 101,291 101,291 103,292 103,292 106.026,292 107.972,293.736 110.5,295 115.56,297.53 128.895,300 135,300 135,295.624 151,298.067 151,304  Z"/>

<path  fill="#DDD951" stroke-width="0" stroke="#DDD951" d = " M263 163 L270,163 C270,160.925 282,158.203 282,160 282,160 283,160 283,160 283,160 287,160 287,160 287,157.719 295.215,156 297,156 297,156 302,150.5 302,150.5 302,150.5 301.5,147 301.5,147 298.065,145.282 296.121,142.811 292.5,141 292.5,141 289,137 289,137 286.892,137 280.108,143 274,143 274,145.458 269.176,144 267,144 267,144 265,144 265,144 265,145.399 263,145.399 263,144 263,144 255,145 255,145 255,146.473 253.048,146 252,146 252,146 249,146 249,146 249,146 248,148 248,148 248,148 248,154.5 248,154.5 249.089,156.679 257.948,163 260,163 260,163 263,163 263,163  Z"/>

<path  fill="#DDD951" stroke-width="0" stroke="#DDD951" d = " M229 165 C226.394,165 226.6,165.95 224.5,167 223.894,167.303 208.285,166 206,166 206,166 200,164 200,164 200,164 188,159 188,159 188,159 184,154.5 184,154.5 184,154.5 186,151.5 186,151.5 186,151.5 195,142 195,142 195,142 200.5,146 200.5,146 201.962,146.731 203.936,146.218 205.5,147 208.184,148.342 225.681,147 229,147 229,147 230,147 230,147 230,147 232,147 232,147 232,147 233,148 233,148 233,148 235,150.5 235,150.5 235,150.875 230,161.623 230,164 230,164 229,165 229,165  Z"/>

<path  fill="#022CFF" stroke-width="0" stroke="#022CFF" d = " M238 187 C239.715,187 248,192.67 248,187 248,184.891 250.535,185 252,185 252,185 254,184 254,184 254,184 256,183 256,183 256,179.801 258,180.736 258,175 250.536,175 254.594,165 260,165 260,165 260,163 260,163 257.948,163 249.089,156.679 248,154.5 248,154.5 248,148 248,148 248,148 247,147 247,147 242.701,147 238.151,147 233,147 233,147 233,148 233,148 233,148 235,150.5 235,150.5 235,150.875 230,161.623 230,164 230,164 230,166 230,166 235.378,166 236.206,176 227,176 227,178.534 232,180.897 232,184 232,184 238,187 238,187  Z"/>

<path  fill="#022CFF" stroke-width="0" stroke="#022CFF" d = " M380 152 C380,154.091 383.746,152 380,152  Z"/>

<path  fill="#022CFF" stroke-width="0" stroke="#022CFF" d = " M315 177 C317.676,177 319.739,177 322,177 322,174.46 319,174.457 319,173 319,169.138 297,166.498 297,156 295.215,156 287,157.719 287,160 287,160 287,161 287,161 293.181,161 292,164.071 292,168 295.571,168 305.084,172.292 308.5,174 309.826,174.663 315,175.002 315,177  Z"/>

<path  fill="#022CFF" stroke-width="0" stroke="#022CFF" d = " M170 176 L178,176 C178,176 181,175 181,175 181,175 182,174 182,174 182,171.442 196.636,170 199,170 199,167.576 201,167.24 201,166 201,166 200,164 200,164 200,164 188,159 188,159 188,166.254 169,172.609 169,175 169,175 170,176 170,176  Z"/>

<path  fill="#5600DD" stroke-width="0" stroke="#5600DD" d = " M284 171 L266.5,172 C263.616,173.442 261.561,175 258,175 250.536,175 254.594,165 260,165 261.238,165 263,164.577 263,163 263,163 270,163 270,163 274.797,163 280.336,160 282,160 282,160 283,160 283,160 283,162.277 286.299,161 287,161 293.181,161 292,164.071 292,168 292,168 289.5,170 289.5,170 288.262,170.619 284,168.856 284,171  Z"/>

<path  fill="#5600DD" stroke-width="0" stroke="#5600DD" d = " M212 172 C214.127,172 227,173.74 227,176 236.206,176 235.378,166 230,166 230,166 229,165 229,165 226.394,165 226.6,165.95 224.5,167 223.894,167.303 208.285,166 206,166 206,166.828 202.622,166 201,166 201,167.24 199,167.576 199,170 203.111,170 207.058,172 212,172  Z"/>

<path  fill="#E1970F" stroke-width="0" stroke="#E1970F" d = " M256 183 L256,184 C267.28,184 253.088,192.294 260.5,196 262.863,197.181 280.08,195.339 281,193.5 282.428,190.644 276.109,190.281 278,186.5 278,186.5 287,180.5 287,180.5 288.123,178.254 286,173.893 286,172 286,172 284,171 284,171 284,171 266.5,172 266.5,172 263.616,173.442 261.561,175 258,175 258,180.736 256,179.801 256,183  Z"/>

<path  fill="#FF571E" stroke-width="0" stroke="#FF571E" d = " M321 221 C321,224.414 308.62,218.94 304.5,221 296.983,224.758 279.321,217.089 271.5,221 L264,224 C264,220.717 259,216.156 259,213 262.754,213 256.87,205.685 255.5,205 246.71,200.605 239.333,201.167 232,208.5 229.727,210.773 228,210.76 228,214 228,214 227,216 227,216 227,216 226,218 226,218 226,221.239 223,222.575 223,226 221.302,226 217.11,224.805 215.5,224 215.5,224 208.5,226 208.5,226 206.117,224.808 202.775,226.137 200.5,225 195.868,222.684 191.118,221.309 186.5,219 183.852,217.676 177.112,221.806 173.5,220 172.112,219.306 173.73,216 171,216 171,215.942 172.728,201.044 173,200.5 174.034,198.431 176.288,196.923 177,195.5 179.41,190.68 178,180.53 178,176 178,176 181,175 181,175 181,175 182,174 182,174 186.382,174 194.969,170.735 199.5,173 202.289,174.395 202.56,175 206,175 206,175 207,177.5 207,177.5 206.531,178.437 201.496,179.492 203,182.5 204.707,185.913 211,184.678 211,185.5 211,188.436 206.695,193.89 209,198.5 210.289,201.078 213.587,196.044 215.5,197 218.838,198.669 221.724,199.888 225.5,198 225.5,198 230,195.5 230,195.5 230.652,194.197 230.219,188 232,188 233.321,188 238,188.684 238,187 239.715,187 248,192.67 248,187 249.465,187 252,187.109 252,185 252,185 254,184 254,184 254,184 256,184 256,184 267.28,184 253.088,192.294 260.5,196 262.863,197.181 280.08,195.339 281,193.5 282.428,190.644 276.109,190.281 278,186.5 278,186.5 287,180.5 287,180.5 288.123,178.254 286,173.893 286,172 289.962,172 312,171.701 312,179 312,180.979 310.398,190.297 311,191.5 311,191.5 315,196.5 315,196.5 315.84,198.18 311.882,199.264 313,201.5 313,201.5 317,205.5 317,205.5 318.933,209.365 321,216.556 321,221  Z"/>

<path  fill="#022CFF" stroke-width="0" stroke="#022CFF" d = " M99 172 C99,174.003 99.2935,175 97,175 97,173.952 96.5271,172 98,172 98,172 99,172 99,172  Z"/>

<path  fill="#E1970F" stroke-width="0" stroke="#E1970F" d = " M232 184 L232,188 C230.219,188 230.652,194.197 230,195.5 230,195.5 225.5,198 225.5,198 221.724,199.888 218.838,198.669 215.5,197 213.587,196.044 210.289,201.078 209,198.5 206.695,193.89 211,188.436 211,185.5 211,184.678 204.707,185.913 203,182.5 201.496,179.492 206.531,178.437 207,177.5 207,177.5 206,175 206,175 206,171.392 212,174.415 212,172 214.127,172 227,173.74 227,176 227,178.534 232,180.897 232,184  Z"/>

<path  fill="#006400" stroke-width="0" stroke="#006400" d = " M165 260 C163.765,260 160,259.357 160,261 157.076,261 154.881,255.262 154,253.5 154,253.5 149.5,251 149.5,251 149.5,251 142.5,244 142.5,244 142.5,244 139,245 139,245 132.74,245 130.522,236 127,236 127,232.235 122.162,225.177 124,221.5 127.338,214.823 131,205.87 131,198 133.96,198 135,195.601 135,193 135,193 141.5,186 141.5,186 141.5,186 144.5,186 144.5,186 144.5,186 147,183 147,183 147,183 153,181 153,181 159.553,181 163.548,176 170,176 170,176 178,176 178,176 178,180.53 179.41,190.68 177,195.5 176.288,196.923 174.034,198.431 173,200.5 172.728,201.044 171,215.942 171,216 171,216 166,218.5 166,218.5 166,218.5 166,225.5 166,225.5 163.398,230.704 158.763,236.026 162,242.5 164.58,247.659 174.943,248.386 176,250.5 176.897,252.294 172.912,259.294 171.5,260 171.5,260 165,260 165,260  Z"/>

<path  fill="#006400" stroke-width="0" stroke="#006400" d = " M332 251 C324.799,251 324.523,257 319,257 316.697,257 317,254.049 317,252.5 317,247.403 323.006,247.488 325,243.5 326.049,241.402 329.264,233.027 328,230.5 328,230.5 323,227.5 323,227.5 323,226.833 324.04,221 321,221 321,216.556 318.933,209.365 317,205.5 317,205.5 313,201.5 313,201.5 311.882,199.264 315.84,198.18 315,196.5 315,196.5 311,191.5 311,191.5 310.398,190.297 312,180.979 312,179 312,179 315,177 315,177 317.676,177 319.739,177 322,177 327.939,177 332.669,181 339,181 343.077,181 349.207,188.913 351,192.5 353.663,197.827 361.537,219.426 359,224.5 359,224.5 356,235 356,235 356,235 355,239 355,239 355,239 354,240 354,240 354,240 353,240 353,240 353,240 351,241 351,241 351,241 348,243 348,243 343.244,243 340.743,242.879 336.5,245 336.5,245 332,251 332,251  Z"/>

<path  fill="#022CFF" stroke-width="0" stroke="#022CFF" d = " M358 233 L356,235 C356,235 359,224.5 359,224.5 361.537,219.426 353.663,197.827 351,192.5 349.207,188.913 343.077,181 339,181 339,181 339,180 339,180 340.639,180 341.455,178 342.5,178 344.789,178 349.258,186.016 350,187.5 350,187.5 358,200.5 358,200.5 358,200.5 363,215.5 363,215.5 365.9,221.3 359,227.372 359,232 359,232 358,233 358,233  Z"/>

<path  fill="#022CFF" stroke-width="0" stroke="#022CFF" d = " M95 180 L94,182 C94,182 95,180 95,180  Z"/>

<path  fill="#022CFF" stroke-width="0" stroke="#022CFF" d = " M147 183 L144.5,186 L141.5,186 L135,193 C135,189.765 147,175.098 147,183  Z"/>

<path  fill="#022CFF" stroke-width="0" stroke="#022CFF" d = " M92 186 L93,186 C93,186 94,184 94,184 92.2531,184 92,184.253 92,186  Z"/>

<path  fill="#022CFF" stroke-width="0" stroke="#022CFF" d = " M90 192 L91,193 C91,193 92,190 92,190 92,190 91,190 91,190 91,190 90,192 90,192  Z"/>

<path  fill="#022CFF" stroke-width="0" stroke="#022CFF" d = " M135 193 C133.467,193 131,196.753 131,198 133.96,198 135,195.601 135,193  Z"/>

<path  fill="#022CFF" stroke-width="0" stroke="#022CFF" d = " M88 197 L89,197 C89,197 90,196 90,196 90,196 89,195 89,195 89,195 88,197 88,197  Z"/>

<path  fill="#022CFF" stroke-width="0" stroke="#022CFF" d = " M126 236 L127,236 C127,232.235 122.162,225.177 124,221.5 127.338,214.823 131,205.87 131,198 128.957,198 125,206.966 125,209 125,209 124,210 124,210 124,210 122,216 122,216 122,217.048 122.473,219 121,219 121,219 121,222 121,222 121,222 121,223 121,223 121,225.312 122.968,236 126,236  Z"/>

<path  fill="#FF00DA" stroke-width="0" stroke="#FF00DA" d = " M259 213 C262.754,213 256.87,205.685 255.5,205 246.71,200.605 239.333,201.167 232,208.5 229.727,210.773 228,210.76 228,214 228,214 235,211 235,211 235,211 236,210 236,210 236,210 237,210 237,210 237,210 238,209 238,209 238,209 240,209 240,209 240,209 241,209 241,209 241.666,209 245,206.44 245,209 246.235,209 250,208.357 250,210 253.275,210 256.454,213 259,213  Z"/>

<path  fill="#022CFF" stroke-width="0" stroke="#022CFF" d = " M241 210 C241,217.878 242,227.443 242,236 L242.5,244 C245.583,245.541 245,238.276 245,237 L245,211 C245,211 245,209 245,209 245,206.44 241.666,209 241,209 241,209 241,210 241,210  Z"/>

<path  fill="#07FF59" stroke-width="0" stroke="#07FF59" d = " M264 224 C264,233.507 259.13,232.239 256,238.5 253.744,243.012 254.095,251.31 251,257.5 249.524,260.452 251.39,269 245.5,269 244.869,269 237.64,268.78 237,267.5 L236,250.5 L232,248.5 L230,236.5 C228.426,233.353 223,233.578 223,226 223,222.575 226,221.239 226,218 226,218 227,216 227,216 227,216 228,214 228,214 228,214 235,211 235,211 235,211 236,210 236,210 236,210 237,210 237,210 237,210 238,209 238,209 238,209 240,209 240,209 240,209 241,210 241,210 241,217.878 242,227.443 242,236 242,236 242.5,244 242.5,244 245.583,245.541 245,238.276 245,237 245,237 245,211 245,211 245,211 250,210 250,210 253.275,210 256.454,213 259,213 259,216.156 264,220.717 264,224  Z"/>

<path  fill="#022CFF" stroke-width="0" stroke="#022CFF" d = " M83 215 L84,215 C84,215 84,212 84,212 84,212 83,212 83,212 83,212 83,213 83,213 83,213 83,215 83,215  Z"/>

<path  fill-rule="evenodd" fill="#9953FF" stroke-width="0" stroke="#9953FF" d = " M256 256 L254,261.5 C252.851,263.798 256.44,268.03 258.5,267 263.978,264.261 261.468,256 256,256  M227 256 L225,260.5 L225,265.5 C228.941,273.383 238.153,256 227,256  M298 249 C298,249.127 278.593,261.685 280,264.5 281.384,267.269 284.759,264.87 286.5,264 L294.5,257 C297.443,255.529 301.517,255.491 304.5,254 308.607,251.946 299.306,249 298,249  M179 249 L178,251.5 C180.166,255.832 195.752,261.626 200.5,264 202.355,264.927 203.778,268.361 206.5,267 208.743,265.879 201.871,259.371 200.5,258 194.691,252.191 187.232,249 179,249  M285 300 L282,301 C282,301 279,297.5 279,297.5 272.53,284.559 262.962,290.731 259.5,289 256.602,287.551 254.45,285.475 251.5,284 250.438,283.469 229.523,283.988 227.5,285 227.5,285 223.5,293 223.5,293 219.602,294.949 213.322,292.089 209.5,294 209.5,294 206,298 206,298 206,298 198,297 198,297 198,297 197,296 197,296 197,293.619 197.508,287.516 196,284.5 193.849,280.198 187.099,277.8 183.5,276 183.5,276 175.5,267 175.5,267 173.541,266.02 168.103,263 166,263 166,263 165,260 165,260 165,260 171.5,260 171.5,260 172.912,259.294 176.897,252.294 176,250.5 174.943,248.386 164.58,247.659 162,242.5 158.763,236.026 163.398,230.704 166,225.5 166,225.5 166,218.5 166,218.5 166,218.5 171,216 171,216 173.73,216 172.112,219.306 173.5,220 177.112,221.806 183.852,217.676 186.5,219 191.118,221.309 195.868,222.684 200.5,225 202.775,226.137 206.117,224.808 208.5,226 208.5,226 215.5,224 215.5,224 217.11,224.805 221.302,226 223,226 223,233.578 228.426,233.353 230,236.5 230,236.5 232,248.5 232,248.5 232,248.5 236,250.5 236,250.5 236,250.5 237,267.5 237,267.5 237.64,268.78 244.869,269 245.5,269 251.39,269 249.524,260.452 251,257.5 254.095,251.31 253.744,243.012 256,238.5 259.13,232.239 264,233.507 264,224 264,224 271.5,221 271.5,221 279.321,217.089 296.983,224.758 304.5,221 308.62,218.94 321,224.414 321,221 324.04,221 323,226.833 323,227.5 323,227.5 328,230.5 328,230.5 329.264,233.027 326.049,241.402 325,243.5 323.006,247.488 317,247.403 317,252.5 317,254.049 316.697,257 319,257 319,258.118 305.388,266.056 303.5,267 296.138,270.681 290.58,281.34 287,288.5 286.022,290.456 288,292.577 288,294 284.584,294 285,297.393 285,300  Z"/>

<path  fill="#DD6479" stroke-width="0" stroke="#DD6479" d = " M407 268 C409.443,268 411.833,269.333 414.5,268 L417.5,265 L421.5,269 C426.389,271.445 434.316,270 439,270 443.831,270 435,261.599 435,261.5 435,261.5 444,255.5 444,255.5 445.883,251.734 451,235.014 451,231 451,231 441.5,226 441.5,226 441.5,226 424.5,226 424.5,226 424.5,226 421.5,223 421.5,223 421.308,222.904 413,226.577 413,223 411.955,223 408.972,232.444 410,234.5 411.874,238.248 406,260.395 406,267 406,267 407,268 407,268  Z"/>

<path  fill="#DD6479" stroke-width="0" stroke="#DD6479" d = " M70 271 C71.3332,271 71.6668,271 73,271 75.4092,271 78.181,270 80,270 80,264.633 79.1901,260.88 77,256.5 76.3585,255.217 74,229.906 74,227 70.8923,227 69.0266,227.737 66.5,229 64.7785,229.861 65.0468,225.727 62.5,227 55.1698,230.665 42.3588,232 35,232 35,239.62 35.3655,249.231 39,256.5 39,256.5 43.5,263 43.5,263 43.5,263 48,265.5 48,265.5 48,266.423 44,269.736 44,274 50.0526,274 60.1909,271.655 65.5,269 67.7377,267.881 67.8942,271 70,271  Z"/>

<path  fill="#022CFF" stroke-width="0" stroke="#022CFF" d = " M353 241 L353,242 C353,242 351,241 351,241 351,241 353,240 353,240 353,240 353,241 353,241  Z"/>

<path  fill="#FF3427" stroke-width="0" stroke="#FF3427" d = " M314 296 C313.368,296 301.931,301.284 300.5,302 294.656,304.922 290.2,300 285,300 285,297.393 284.584,294 288,294 290.03,294 294.081,299.209 296.5,298 299.611,296.445 304.084,293.416 306.5,291 306.5,291 307.5,288 307.5,288 312.527,285.487 315.374,280.563 316.5,280 322.728,276.886 324.855,273.791 328,267.5 328,267.5 327,263.5 327,263.5 328.084,261.331 332,253.034 332,251 332,251 336.5,245 336.5,245 340.743,242.879 343.244,243 348,243 348,243 349,248 349,248 349,248 349,249 349,249 343.504,249 340,256.402 340,261 340,261 338,263 338,263 338,263 327,280.5 327,280.5 327,280.5 323,285 323,285 323,285 322,287 322,287 322,287 321,288 321,288 321,288 320,289 320,289 320,289 318,293 318,293 318,293 314,296 314,296  Z"/>

<path  fill="#FF3427" stroke-width="0" stroke="#FF3427" d = " M171 297 C174.386,297 174.909,299.705 177.5,301 181.594,303.047 198,304.039 198,297 198,297 197,296 197,296 194.065,296 189.158,293.329 186.5,292 173.453,285.476 160,278.45 160,262 160,262 160,261 160,261 157.076,261 154.881,255.262 154,253.5 154,253.5 149.5,251 149.5,251 149.5,251 142.5,244 142.5,244 142.5,244 139,245 139,245 139,250.454 140.369,251.237 143,256.5 143,256.5 143,260.5 143,260.5 144.701,263.902 149,264.838 149,269 149,269 149,271 149,271 149,271 151,273 151,273 151,273 151,274 151,274 152.871,274 157,279.4 157,281 157,281 165,290 165,290 165,290 169,294 169,294 169,294 171,297 171,297  Z"/>

<path  fill="#D4FF00" stroke-width="0" stroke="#D4FF00" d = " M179 249 L178,251.5 C180.166,255.832 195.752,261.626 200.5,264 202.355,264.927 203.778,268.361 206.5,267 208.743,265.879 201.871,259.371 200.5,258 194.691,252.191 187.232,249 179,249  Z"/>

<path  fill="#D4FF00" stroke-width="0" stroke="#D4FF00" d = " M298 249 C298,249.127 278.593,261.685 280,264.5 281.384,267.269 284.759,264.87 286.5,264 L294.5,257 C297.443,255.529 301.517,255.491 304.5,254 308.607,251.946 299.306,249 298,249  Z"/>

<path  fill="#FFBA00" stroke-width="0" stroke="#FFBA00" d = " M319 257 C319,258.118 305.388,266.056 303.5,267 296.138,270.681 290.58,281.34 287,288.5 286.022,290.456 288,292.577 288,294 290.03,294 294.081,299.209 296.5,298 299.611,296.445 304.084,293.416 306.5,291 306.5,291 307.5,288 307.5,288 312.527,285.487 315.374,280.563 316.5,280 322.728,276.886 324.855,273.791 328,267.5 328,267.5 327,263.5 327,263.5 328.084,261.331 332,253.034 332,251 324.799,251 324.523,257 319,257  Z"/>

<path  fill="#F44345" stroke-width="0" stroke="#F44345" d = " M227 256 L225,260.5 L225,265.5 C228.941,273.383 238.153,256 227,256  Z"/>

<path  fill="#F44345" stroke-width="0" stroke="#F44345" d = " M256 256 L254,261.5 C252.851,263.798 256.44,268.03 258.5,267 263.978,264.261 261.468,256 256,256  Z"/>

<path  fill="#FFBA00" stroke-width="0" stroke="#FFBA00" d = " M166 263 C168.103,263 173.541,266.02 175.5,267 L183.5,276 C187.099,277.8 193.849,280.198 196,284.5 197.508,287.516 197,293.619 197,296 194.065,296 189.158,293.329 186.5,292 173.453,285.476 160,278.45 160,262 160,262 166,263 166,263  Z"/>

<path  fill="#2E8B57" stroke-width="0" stroke="#2E8B57" d = " M400 282 C402.63,282 409.016,284.758 411.5,286 L435,288 C443.939,288 439,273.306 439,270 434.316,270 426.389,271.445 421.5,269 421.5,269 417.5,265 417.5,265 417.5,265 414.5,268 414.5,268 411.833,269.333 409.443,268 407,268 407,268 405,268 405,268 405,271.388 400,275.963 400,279 400,279 400,282 400,282  Z"/>

<path  fill-rule="evenodd" fill="#2E8B57" stroke-width="0" stroke="#2E8B57" d = " M72 275 C72,282.357 76.5679,275 72,275  M77 272 C77,275.746 79.0912,272 77,272  M81 274 C81,276.638 82.4763,277.547 81,280.5 L74.5,282 L71.5,286 L68.5,285 L64.5,289 C60.5233,289 54.2347,291 50,291 50,291 48,288.5 48,288.5 48,288.5 45,286.5 45,286.5 43.1515,282.803 44,277.306 44,274 50.0526,274 60.1909,271.655 65.5,269 67.7377,267.881 67.8942,271 70,271 70,272.256 73,273.943 73,271 75.4092,271 78.181,270 80,270 81.5791,270 81,272.855 81,274  Z"/>

<path  fill="#03C12D" stroke-width="0" stroke="#03C12D" d = " M70 271 C71.3332,271 71.6668,271 73,271 73,273.943 70,272.256 70,271  Z"/>

<path  fill="#03C12D" stroke-width="0" stroke="#03C12D" d = " M77 272 C77,275.746 79.0912,272 77,272  Z"/>

<path  fill="#03C12D" stroke-width="0" stroke="#03C12D" d = " M157 322 C154.141,322 153.803,324.849 151.5,326 L147.5,325 C142.982,327.259 133.164,335 129,335 120.548,335 112.613,338 104,338 104,338 93.5,336 93.5,336 89.6705,337.915 82.5458,339.023 78.5,337 73.7967,334.648 66.0582,335.616 63,329.5 63,329.5 56,316.5 56,316.5 56,316.5 54,306.5 54,306.5 51.9471,302.394 50,295.735 50,291 54.2347,291 60.5233,289 64.5,289 64.5,289 68.5,285 68.5,285 68.5,285 71.5,286 71.5,286 71.5,286 74.5,282 74.5,282 74.5,282 81,280.5 81,280.5 82.4763,277.547 81,276.638 81,274 83.341,274 82.4208,276.342 83,277.5 83,277.5 92,287.5 92,287.5 92.776,289.052 99,292.264 99,290 99,290 101,291 101,291 101,291 103,292 103,292 106.026,292 107.972,293.736 110.5,295 115.56,297.53 128.895,300 135,300 135,303.085 143.961,307 146.5,307 146.5,307 151,304 151,304 151,304 159,307 159,307 159,311.879 157,316.711 157,322  Z"/>

<path  fill="#03C12D" stroke-width="0" stroke="#03C12D" d = " M72 275 C72,282.357 76.5679,275 72,275  Z"/>

<path  fill="#03C12D" stroke-width="0" stroke="#03C12D" d = " M332 303 C330.535,303 322,303.879 322,304 322,304 330.5,312 330.5,312 332.907,313.204 336.195,312.848 338.5,314 340.142,314.821 348.261,325.88 354.5,329 360.199,331.85 369.677,336.411 376.5,333 376.5,333 381.5,330 381.5,330 383.614,330 394.92,340.29 401.5,337 407.168,334.166 413.741,332.88 419.5,330 429.397,325.052 435,298.316 435,288 435,288 411.5,286 411.5,286 409.016,284.758 402.63,282 400,282 400,282 398,281 398,281 398,281 397,281 397,281 393.771,281 387.728,286.886 385.5,288 380.096,290.702 354.998,298 349,298 349,299.474 334.564,303 332,303  Z"/>

<path  fill-rule="evenodd" fill="#E278A1" stroke-width="0" stroke="#E278A1" d = " M253 300 C253,301.481 251,300.785 251,303 251,305.262 252.198,304.105 251,306.5 250.322,307.857 252.793,310.853 254.5,310 256.016,309.242 255.185,300 253,300  M233 300 C233,302.113 232.859,302.782 232,304.5 L233.5,308 C236.276,308 234,304.828 234,304.5 234,303.212 240.21,300 233,300  M239 328 C239,324.435 248,324.118 248,329 260.625,329 260.805,326.347 271.5,321 273.971,319.765 278.398,320.704 280,317.5 281.525,314.45 283,309.068 283,305.5 283,304.107 277.862,301 282,301 282,301 279,297.5 279,297.5 272.53,284.559 262.962,290.731 259.5,289 256.602,287.551 254.45,285.475 251.5,284 250.438,283.469 229.523,283.988 227.5,285 227.5,285 223.5,293 223.5,293 219.602,294.949 213.322,292.089 209.5,294 209.5,294 206,298 206,298 206,298 207,302.5 207,302.5 204.952,306.595 202.542,311.584 205,316.5 208.026,322.551 214.506,326.003 220.5,329 220.5,329 231.5,329 231.5,329 231.5,329 237.5,331 237.5,331 237.5,331 239,328 239,328  Z"/>

<path  fill="#DDD951" stroke-width="0" stroke="#DDD951" d = " M349 298 C349,299.474 334.564,303 332,303 332,293.486 349,293.664 349,298  Z"/>

<path  fill="#DDD951" stroke-width="0" stroke="#DDD951" d = " M135 300 C135,303.085 143.961,307 146.5,307 L151,304 C151,298.067 135,295.624 135,300  Z"/>

<path  fill="#EEBA00" stroke-width="0" stroke="#EEBA00" d = " M233 300 C233,302.113 232.859,302.782 232,304.5 L233.5,308 C236.276,308 234,304.828 234,304.5 234,303.212 240.21,300 233,300  Z"/>

<path  fill="#EEBA00" stroke-width="0" stroke="#EEBA00" d = " M253 300 C253,301.481 251,300.785 251,303 251,305.262 252.198,304.105 251,306.5 250.322,307.857 252.793,310.853 254.5,310 256.016,309.242 255.185,300 253,300  Z"/>

<path  fill-rule="evenodd" fill="#FA8072" stroke-width="0" stroke="#FA8072" d = " M337 336 C337,342.072 341.238,336 337,336  M319 314 C319,325.136 305.737,324.027 304,327.5 L306,333.5 L303,336.5 C302.252,337.995 303.477,339.453 304,340.5 L303,349.5 C304.227,351.953 313.926,356.713 316.5,358 318.51,359.005 324.651,357 327.5,357 330.051,357 333.2,359.65 334.5,359 336.776,357.862 339.406,358.047 341.5,357 345.206,355.147 345.388,350.725 347,347.5 L353.5,346 L354,334.5 L342.5,323 C339.745,321.622 339.032,325.532 336,322.5 328.426,314.926 331.266,314 319,314  Z"/>

<path  fill-rule="evenodd" fill="#FA8072" stroke-width="0" stroke="#FA8072" d = " M162 346 C162,347.93 163.93,346 162,346  M157 322 C160.774,322 165.313,316.406 170.5,319 173.713,320.606 189.119,335.263 188,337.5 L184,340.5 C182.036,344.428 183.292,351.604 178.5,354 173.79,356.355 172.779,353.64 169.5,352 168.067,351.284 167.143,346.179 165.5,347 163.723,347.889 166.105,351.698 163.5,353 L151.5,354 L148.5,355 L143.5,349 C141.897,349 138.732,351.116 136.5,350 L134.5,348 L131.5,349 L129.5,345 L125,342.5 C122.766,338.033 129,338.109 129,335 133.164,335 142.982,327.259 147.5,325 147.5,325 151.5,326 151.5,326 153.803,324.849 154.141,322 157,322  Z"/>

<path  fill="#022CFF" stroke-width="0" stroke="#022CFF" d = " M239 328 C239,332.65 248,331.504 248,329 248,324.118 239,324.435 239,328  Z"/>

</g>
</svg>
