<svg xmlns="http://www.w3.org/2000/svg" xmlns:xlink="http://www.w3.org/1999/xlink" height="512" width="512">
<g>
<rect width="512" height="512" fill="#000000"  stroke-width="0" /> 
<path  fill-rule="evenodd" fill="#86FF5A" stroke-width="0" stroke="#86FF5A" d = " M239 313 C239,314.791 235.73,315.959 237,318.5 240.364,325.227 258.923,317.711 249.5,313 L244,314 L239,313  M214 282 C214,283.845 210.619,283.441 209.5,284 204.857,286.322 200.217,288.641 195.5,291 L194,294.5 L190,298.5 C187.195,304.11 188.291,314.082 191,319.5 L191,327.5 L198,344.5 L209,355.5 L213.5,361 C216.909,362.704 221.971,361.235 225.5,363 228.014,364.257 235.474,363.013 237.5,362 L243.5,356 C246.958,357.729 247.382,362.441 250.5,364 254.302,365.901 273.334,361.583 276.5,360 279.453,358.523 278.322,354.089 280.5,353 294.696,345.902 306.906,314.312 299,298.5 295.808,292.117 288.245,287.872 282.5,285 273.012,280.256 255.471,281.514 246.5,286 L243.5,285 C241.396,283.948 237.713,286.607 236.5,286 L231.5,282 L214,282  Z"/>

<path  fill-rule="evenodd" fill="#EB57FF" stroke-width="0" stroke="#EB57FF" d = " M244 317 C244,321.123 248.123,317 244,317  M239 313 C239,314.791 235.73,315.959 237,318.5 240.364,325.227 258.923,317.711 249.5,313 L244,314 L239,313  Z"/>

<path  fill="#27F4FD" stroke-width="0" stroke="#27F4FD" d = " M244 317 C244,321.123 248.123,317 244,317  Z"/>

</g>
</svg>
