<svg xmlns="http://www.w3.org/2000/svg" xmlns:xlink="http://www.w3.org/1999/xlink" height="512" width="512">
<g>
<rect width="512" height="512" fill="#000000"  stroke-width="0" /> 
<path  fill-rule="evenodd" fill="#86FF5A" stroke-width="0" stroke="#86FF5A" d = " M240 316 C240,317.284 236.53,318.561 238,321.5 241.544,328.588 256.826,320.663 249.5,317 L244,317 L240,316  M218 285 C218,285.176 206.975,290.738 205.5,290 201.503,288.002 204.581,291.459 201.5,293 L196.5,294 C194.213,295.144 188.939,311.378 190,313.5 193.432,320.364 190.866,332.231 194,338.5 196.066,342.631 201.185,347.87 202,349.5 203.34,352.18 208.13,360.815 210.5,362 215.483,364.491 230.002,370.249 236.5,367 L243.5,360 C247.863,360 246.7,366.6 249.5,368 261.031,373.765 275.22,359.64 282.5,356 285.576,354.462 287.712,349.076 289,346.5 290.76,342.98 294.001,341.497 296,337.5 296.943,335.615 299.745,305.989 299,304.5 L292.5,295 C287.625,292.562 283.305,289.403 278.5,287 275.091,285.296 270.029,286.765 266.5,285 258.436,280.968 250.358,291.929 242.5,288 235.969,284.734 225.08,285 218,285  Z"/>

<path  fill-rule="evenodd" fill="#EB57FF" stroke-width="0" stroke="#EB57FF" d = " M244 320 C244,326.072 248.238,320 244,320  M240 316 C240,317.284 236.53,318.561 238,321.5 241.544,328.588 256.826,320.663 249.5,317 L244,317 L240,316  Z"/>

<path  fill="#27F4FD" stroke-width="0" stroke="#27F4FD" d = " M244 320 C244,326.072 248.238,320 244,320  Z"/>

</g>
</svg>
