<svg xmlns="http://www.w3.org/2000/svg" xmlns:xlink="http://www.w3.org/1999/xlink" height="512" width="512">
<g>
<rect width="512" height="512" fill="#000000"  stroke-width="0" /> 
<path  fill="#03C12D" stroke-width="0" stroke="#03C12D" d = " M367 346 C371.788,346 373.647,348.073 377.5,350 L382.5,349 C384.012,349 398.047,349.227 398.5,349 409.612,343.444 412.462,341.576 418,330.5 419.896,326.707 424.148,324.204 426,320.5 428.284,315.933 427.692,310.116 430,305.5 432.666,300.168 429.39,291.72 432,286.5 L436,282.5 C437.508,279.484 437.37,271.239 436,268.5 434.891,266.282 429.441,263.618 431,260.5 432.399,257.702 437.271,259.114 439.5,258 L445,248.5 C448.198,242.104 450.616,212.732 448,207.5 447.015,205.53 449.702,195.905 447,190.5 L449,183.5 C446.199,177.898 447.792,170.083 445,164.5 443.544,161.587 436.13,155.239 438,151.5 L441,149.5 L436.5,149 L434,145.5 C427.703,132.906 418.506,120.503 405.5,114 401.385,111.943 398.968,106.734 395.5,105 387.443,100.972 379.666,96.0829 371.5,92 363.121,87.8107 327.54,76 318.5,76 313.699,76 302.605,78.5525 297.5,76 291.904,73.202 280.066,74.7831 278.5,74 L275.5,72 L272.5,74 C269.631,75.4344 265.674,72.913 263.5,74 L249.5,80 L237.5,89 C231.675,86.0876 225.529,78.5144 218.5,75 213.516,72.5081 204.965,78.7326 201.5,77 199.739,76.1195 196.993,73.7535 194.5,75 191.32,76.5901 185.042,79 181.5,79 L176.5,77 L161.5,80 C156.49,82.5052 154.62,84 149.5,84 L145.5,87 L142.5,85 C139.749,83.6247 129.851,85.8244 127.5,87 120.77,90.365 115.277,95.6116 108.5,99 L102.5,100 L99.5,105 C91.3774,109.061 82.1906,114.119 78,122.5 76.7945,124.911 64.8411,130.818 62,136.5 58.6022,143.296 53.014,150.472 50,156.5 46.5422,163.416 45.4448,171.61 42,178.5 38.631,185.238 41.4115,194.677 38,201.5 37.1042,203.292 41.4408,206.618 40,209.5 35.6361,218.228 38.0218,246.544 42,254.5 L56,268.5 C56.9619,270.424 50.6902,279.88 53,284.5 56.2383,290.977 53.7947,300.089 57,306.5 62.4184,317.337 66.6773,328.855 72,339.5 75.1213,345.743 85.2777,348.389 90.5,351 95.2475,353.374 116.103,347 123,347 125.16,347 127.167,345 130,345 130,345 135.5,341 135.5,341 135.5,341 142.5,340 142.5,340 142.5,340 157.5,332 157.5,332 164.94,328.28 182.587,316.673 177,305.5 177,305.5 173,298 173,298 173,298 169,295 169,295 161.786,295 155.572,289.036 149.5,286 148.262,285.381 144,287.144 144,285 144,285 140.5,287 140.5,287 131.292,291.604 124.673,286.846 121,279.5 119.959,277.418 117,277.491 117,274 116.104,274 113.974,272 116,272 116,260.856 101.138,262.319 94.5,259 88.2927,255.896 88,241.814 88,237 88,237 88,234 88,234 88,234 88,230 88,230 88,230 88,222 88,222 88,219.546 85.5114,214.477 87,211.5 90.0513,205.397 89.0076,197.485 92,191.5 92,191.5 98,177.5 98,177.5 98,177.5 98,173.5 98,173.5 104.741,160.018 116.208,141.146 130.5,134 130.5,134 136.5,128 136.5,128 147.127,122.686 159.883,121.309 170.5,116 170.5,116 183.5,115 183.5,115 185.132,114.184 211.278,108.889 211.5,109 214.04,110.27 221.548,123.596 223,126.5 225.272,131.043 230.136,129.318 233.5,131 235.462,131.981 242.068,133.216 244.5,132 250.522,128.989 256.143,131.214 260,123.5 262.417,118.667 262.492,110.004 268.5,107 268.5,107 271.5,109 271.5,109 273.417,109 278.455,110.022 278.5,110 281.416,108.542 300.884,112.192 304.5,114 304.5,114 314.5,114 314.5,114 324.802,119.151 337.174,119.837 347.5,125 361.701,132.1 377.823,146.146 385,160.5 385,160.5 389,163.5 389,163.5 389,163.5 390,168.5 390,168.5 390,168.5 394,172.5 394,172.5 397.412,179.323 401,207.066 401,216 401,221.323 402.255,228.99 400,233.5 400,233.5 399.5,239 399.5,239 399.5,239 399,234 399,234 399,234 397,236 397,236 397,240.49 387.479,260.542 385,265.5 385,265.5 381,266 381,266 381,268.177 376.664,270 375,270 375,270 372,274.5 372,274.5 372,274.5 363.5,282 363.5,282 356.257,285.622 343.084,281.208 339.5,283 339.5,283 324,291 324,291 324,291 320,293 320,293 320,293 314,296 314,296 314,303.359 304.851,314.176 316.5,320 316.5,320 334.5,329 334.5,329 334.5,329 341.5,336 341.5,336 341.5,336 350,341 350,341 354.909,341 364.476,346 367,346  Z"/>

<path  fill="#FF6E00" stroke-width="0" stroke="#FF6E00" d = " M398 228 L399,234 C399,234 399.5,239 399.5,239 399.5,239 400,233.5 400,233.5 402.255,228.99 401,221.323 401,216 401,207.066 397.412,179.323 394,172.5 394,172.5 390,168.5 390,168.5 390,168.5 389,163.5 389,163.5 389,163.5 385,160.5 385,160.5 377.823,146.146 361.701,132.1 347.5,125 337.174,119.837 324.802,119.151 314.5,114 314.5,114 304.5,114 304.5,114 300.884,112.192 281.416,108.542 278.5,110 278.455,110.022 273.417,109 271.5,109 271.5,109 268.5,107 268.5,107 262.492,110.004 262.417,118.667 260,123.5 256.143,131.214 250.522,128.989 244.5,132 242.068,133.216 235.462,131.981 233.5,131 230.136,129.318 225.272,131.043 223,126.5 221.548,123.596 214.04,110.27 211.5,109 211.278,108.889 185.132,114.184 183.5,115 183.5,115 170.5,116 170.5,116 159.883,121.309 147.127,122.686 136.5,128 136.5,128 130.5,134 130.5,134 116.208,141.146 104.741,160.018 98,173.5 98,173.5 98,177.5 98,177.5 98,177.5 92,191.5 92,191.5 89.0076,197.485 90.0513,205.397 87,211.5 85.5114,214.477 88,219.546 88,222 88,222 89,222 89,222 89,222 93,219 93,219 93,214.246 98.3667,192 104,192 104,192 104,190 104,190 104,187.231 109.893,171 112,171 112,171 112,170 112,170 112,170 113,169 113,169 113,169 113,167 113,167 110.545,167 113.065,162 116,162 116,162 118,159 118,159 115.339,159 119.545,153 123,153 123,153 123,152 123,152 123,149.657 123.285,148 126,148 126,148 128,146 128,146 128,142.643 142.27,132.615 145.5,131 145.5,131 149,132 149,132 152.817,132 155.352,129.574 158.5,128 166.026,124.237 188.483,121.991 196.5,126 205.957,130.729 211.013,144.256 220.5,149 220.5,149 225.5,155 225.5,155 225.5,155 228.5,152 228.5,152 232.156,150.172 244.601,151 248.5,151 248.5,151 259.5,152 259.5,152 259.5,152 271,137.5 271,137.5 274.963,129.573 285.967,124.266 292.5,121 299.158,117.671 324.247,124.374 329.5,127 333.31,128.905 336.424,132 341,132 341,130.035 331.235,127.133 333.5,126 334.964,125.268 350.542,134 346,134 346,134 349.5,137 349.5,137 352.613,138.556 363.387,148 365,148 366.652,148 368.092,150 366,150 366,150 367,151 367,151 370.224,151 375.014,159 373,159 373,159 373,160 373,160 377.026,160 379.555,167 376,167 376,167 377,171 377,171 377,171 378.5,170 378.5,170 383.032,167.734 381.286,175.072 382,176.5 382,176.5 384,180 384,180 384,180 385,182 385,182 385,182 385,183 385,183 392.165,183 389.121,192.741 392,198.5 396.785,208.069 398,216.282 398,228  Z"/>

<path  fill="#0E47E2" stroke-width="0" stroke="#0E47E2" d = " M202 184 L207,185 C216.481,185 213.451,181.025 217.5,179 217.5,179 226.5,179 226.5,179 229.461,177.52 232.074,175.213 234.5,174 238.118,172.191 238.547,167.407 240,164.5 240.471,163.558 239.27,160 241.5,160 243.73,160 242.529,163.558 243,164.5 243,164.5 253.5,175 253.5,175 258.929,177.715 265.229,173.364 268.5,175 269.726,175.613 270.783,180.141 272.5,181 276.477,182.989 282.053,179 286,179 289.812,179 291.283,176 295,176 295,176 297,175 297,175 297,173.049 299.454,174.523 300.5,174 305.679,171.411 310.951,173 317,173 317,173 325,173 325,173 325,171.601 327,171.601 327,173 327,173 332,173 332,173 332,171.272 335,173.187 335,174 335,174 338,174 338,174 338,174 342,176 342,176 342,176 343,176 343,176 343,176 353,181 353,181 360.988,181 368.238,194.024 375,180.5 375,180.5 377,176 377,176 377,176 377,171 377,171 377,171 376,167 376,167 376,164.75 374,163.624 374,162 374,162 373,161 373,161 373,161 373,160 373,160 373,160 373,159 373,159 373,159 367,151 367,151 367,151 366,150 366,150 366,150 365,148 365,148 363.387,148 352.613,138.556 349.5,137 349.5,137 346,134 346,134 346,134 343,133 343,133 343,133 342,132 342,132 342,132 341,132 341,132 336.424,132 333.31,128.905 329.5,127 324.247,124.374 299.158,117.671 292.5,121 285.967,124.266 274.963,129.573 271,137.5 271,137.5 259.5,152 259.5,152 259.5,152 248.5,151 248.5,151 244.601,151 232.156,150.172 228.5,152 228.5,152 225.5,155 225.5,155 225.5,155 220.5,149 220.5,149 211.013,144.256 205.957,130.729 196.5,126 188.483,121.991 166.026,124.237 158.5,128 155.352,129.574 152.817,132 149,132 149,132 128,146 128,146 128,146 126,148 126,148 126,149.429 124.712,152 123,152 123,152 123,153 123,153 123,153 118,159 118,159 118,159 116,162 116,162 116,162 113,167 113,167 113,167 113,169 113,169 113,169 112,170 112,170 112,170 112,171 112,171 112,171 112,175 112,175 112,175 112,177 112,177 112,184.736 122.843,190.829 130.5,187 130.5,187 137,183 137,183 137,180.539 140.378,181 142,181 142,181 143,181 143,181 143,178.891 145.535,179 147,179 150.456,179 156.039,176 162,176 162,174.275 168.052,175 169.5,175 174.039,175 193,174.968 193,180 193,180 197,181 197,181 197,181 199,182 199,182 199,182 200,182 200,182 200,182 202,184 202,184  Z"/>

<path  fill="#022CFF" stroke-width="0" stroke="#022CFF" d = " M343 133 L346,134 C350.542,134 334.964,125.268 333.5,126 331.235,127.133 341,130.035 341,132 341,132 342,132 342,132 342,132 343,133 343,133  Z"/>

<path  fill="#022CFF" stroke-width="0" stroke="#022CFF" d = " M149 132 L145.5,131 C142.27,132.615 128,142.643 128,146 128,146 149,132 149,132  Z"/>

<path  fill="#FF6E00" stroke-width="0" stroke="#FF6E00" d = " M342 132 L343,133 C343,133 342,132 342,132  Z"/>

<path  fill="#022CFF" stroke-width="0" stroke="#022CFF" d = " M126 148 C123.285,148 123,149.657 123,152 124.712,152 126,149.429 126,148  Z"/>

<path  fill="#022CFF" stroke-width="0" stroke="#022CFF" d = " M365 148 C366.652,148 368.092,150 366,150 366,150 365,148 365,148  Z"/>

<path  fill="#022CFF" stroke-width="0" stroke="#022CFF" d = " M367 151 C370.224,151 375.014,159 373,159 373,159 367,151 367,151  Z"/>

<path  fill="#022CFF" stroke-width="0" stroke="#022CFF" d = " M123 153 C119.545,153 115.339,159 118,159 118,159 123,153 123,153  Z"/>

<path  fill="#022CFF" stroke-width="0" stroke="#022CFF" d = " M261 187 L267,190 C267,190 274.5,189 274.5,189 274.5,189 280.5,182 280.5,182 281.811,181.344 286,181.203 286,179 282.053,179 276.477,182.989 272.5,181 270.783,180.141 269.726,175.613 268.5,175 265.229,173.364 258.929,177.715 253.5,175 253.5,175 243,164.5 243,164.5 242.529,163.558 243.73,160 241.5,160 239.27,160 240.471,163.558 240,164.5 238.547,167.407 238.118,172.191 234.5,174 232.074,175.213 229.461,177.52 226.5,179 226.5,179 217.5,179 217.5,179 213.451,181.025 216.481,185 207,185 207,185 209,186.5 209,186.5 213.491,195.481 217.37,190 225,190 225,186.031 228.703,183 233,183 246.497,183 236.032,205.766 242.5,209 243.484,209.492 246.446,203.608 247,202.5 247.634,201.231 243.533,196.433 245,193.5 246.067,191.367 247.891,189.718 249,187.5 249,187.5 252,184 252,184 252,184 253,181 253,181 253,179.814 254,179.814 254,181 254,181 261,187 261,187  Z"/>

<path  fill="#022CFF" stroke-width="0" stroke="#022CFF" d = " M374 162 C374,163.624 376,164.75 376,167 379.555,167 377.026,160 373,160 373,160 373,161 373,161 373,161 374,162 374,162  Z"/>

<path  fill="#FF6E00" stroke-width="0" stroke="#FF6E00" d = " M373 161 L374,162 C374,162 373,161 373,161  Z"/>

<path  fill="#022CFF" stroke-width="0" stroke="#022CFF" d = " M116 162 C113.065,162 110.545,167 113,167 113,167 116,162 116,162  Z"/>

<path  fill="#022CFF" stroke-width="0" stroke="#022CFF" d = " M323 291 L324,291 C324,291 339.5,283 339.5,283 343.084,281.208 356.257,285.622 363.5,282 363.5,282 372,274.5 372,274.5 372,274.5 375,270 375,270 375,270 375,260 375,260 375,252.735 378.021,248.458 381,242.5 381,242.5 381,236.5 381,236.5 383.424,231.652 384.722,228.057 387,223.5 388.162,221.176 385.322,199.145 384,196.5 384,196.5 385,183 385,183 385,183 385,182 385,182 385,182 384,180 384,180 384,180 382,176.5 382,176.5 381.286,175.072 383.032,167.734 378.5,170 378.5,170 377,171 377,171 377,171 377,176 377,176 378.951,176 377.477,178.454 378,179.5 380.558,184.615 380,190.825 380,197 380,209.442 374.911,231.678 370,241.5 368.822,243.856 369.548,247.476 366.5,249 366.5,249 364,248 364,248 364,256.038 347.784,266.932 345,272.5 345,272.5 335.5,282 335.5,282 334.729,282.385 331,285.382 331,283 331,283 329,284 329,284 329,284 328,285 328,285 326.099,285 323,289.332 323,291  Z"/>

<path  fill="#022CFF" stroke-width="0" stroke="#022CFF" d = " M148 284 L144,285 C144,285 140.5,287 140.5,287 131.292,291.604 124.673,286.846 121,279.5 119.959,277.418 117,277.491 117,274 117,274 118,273 118,273 120.076,273 117.95,263.401 117,261.5 113.41,254.319 108,238.226 108,230 108,230 109,228 109,228 109,228 110,226 110,226 110,226 110,225 110,225 110,225 109,224 109,224 109,212.39 105,203.339 105,192 105,192 104,190 104,190 104,187.231 109.893,171 112,171 112,171 112,175 112,175 112,175 110,177 110,177 110,182.797 106.101,194.702 109,200.5 111.057,204.614 112,211.149 112,216 112,229.281 111.525,241.55 117,252.5 117.7,253.9 119.27,262 121.5,262 121.5,262 125,259 125,259 125,259 130,265.5 130,265.5 132.184,269.867 148,281.386 148,284  Z"/>

<path  fill-rule="evenodd" fill="#006400" stroke-width="0" stroke="#006400" d = " M160 245 C160,249.178 164.968,247.734 167.5,249 171.555,251.028 182.353,257 186.5,257 188.941,257 194.447,259.606 196,256.5 196.947,254.607 188.576,254.538 187.5,254 178.616,249.558 169.891,245 160,245  M326 238 C326,240.917 318.299,241.1 316.5,242 313.205,243.648 310.823,246.339 307.5,248 303.604,249.948 298.473,250.013 294.5,252 293.297,252.601 281.506,251.512 283,254.5 284.015,256.529 293.309,255 294.5,255 304.14,255 312.392,248.054 320.5,244 323.199,242.65 328.302,242.896 330,239.5 331.021,237.459 326.938,238 326,238  M257 210 C257,214.572 257.736,221.618 262.5,224 264.968,225.234 269.212,217.925 268,215.5 L260.5,213 C258.422,211.961 260.874,210 257,210  M229 210 C229,212.987 217.397,212.294 219,215.5 L222,219.5 L224.5,224 C226.815,225.157 231.313,210 229,210  M270 280 C280.001,280 290.626,280 301,280 301,280 303,279 303,279 303,279 304,278 304,278 304,276.423 305.762,276 307,276 307,274.643 317.308,269 319,269 319,269 321,268 321,268 321,268 322,266 322,266 322,266 323,265 323,265 332.656,265 340.939,242.28 347.5,239 347.5,239 352,240 352,240 352,238.952 351.527,237 353,237 353,237 354,233 354,233 354,229.917 357,227.455 357,224 357,224 358,222 358,222 358,219.959 358.959,219 361,219 361,219 362,218 362,218 362,214.439 362.607,215 365,215 365,210.716 364,205.629 364,202 364,202 361,198 361,198 359.708,198 355.171,193 358,193 358,191.598 356.89,187 355,187 355,187 352,183.5 352,183.5 352,183.5 343,176 343,176 343,176 342,176 342,176 342,176 338,174 338,174 338,174 335,174 335,174 335,174 332,173 332,173 332,173 327,173 327,173 327,173 325,173 325,173 325,173 317,173 317,173 317,174.665 312.778,174 311.5,174 307.122,174 301.949,175 297,175 297,175 295,176 295,176 291.283,176 289.812,179 286,179 286,181.203 281.811,181.344 280.5,182 280.5,182 274.5,189 274.5,189 274.5,189 267,190 267,190 267,192.861 261,188.983 261,188 253.443,188 253.623,184 252,184 252,184 249,187.5 249,187.5 247.891,189.718 246.067,191.367 245,193.5 243.533,196.433 247.634,201.231 247,202.5 246.446,203.608 243.484,209.492 242.5,209 236.032,205.766 246.497,183 233,183 233,187.745 229.629,190 225,190 217.37,190 213.491,195.481 209,186.5 209,186.5 207,185 207,185 207,185 202,184 202,184 200.253,184 200,183.747 200,182 200,182 199,182 199,182 199,182 197,181 197,181 197,181 193,180 193,180 189.997,180 187.047,178.273 184.5,177 182.902,176.201 164.364,176 162,176 156.039,176 150.456,179 147,179 147,179 143,181 143,181 143,181 142,181 142,181 142,181 138,185 138,185 133.078,185 125,206.663 125,211 125,218.071 128,219.044 128,227 128,227 129,229 129,229 130.803,229 132,232.592 132,234 132,234 133,236 133,236 133,236 134,238 134,238 136.041,238 137,238.959 137,241 137,241 140,241 140,241 140,241 141,243 141,243 141,246.29 146.811,246.122 148,248.5 151.509,255.517 157.661,260.161 163.5,266 164.543,267.043 167.054,273 169,273 169,273 170,273 170,273 170,271.026 182.299,280 184,280 184,280 185,280 185,280 191.549,280 199.993,280.246 205.5,283 207.405,283.953 208.217,281.642 209.5,281 211.864,279.818 215.196,282 217,282 217,271.487 220.094,277 224,277 224,274.936 227.353,276.574 228.5,276 232.479,274.011 237.37,270 242,270 242,268.514 245,268.514 245,270 245,270 262,276 262,276 266.344,276 270,272.052 270,280  Z"/>

<path  fill="#BC20AD" stroke-width="0" stroke="#BC20AD" d = " M162 176 C164.364,176 182.902,176.201 184.5,177 187.047,178.273 189.997,180 193,180 193,174.968 174.039,175 169.5,175 168.052,175 162,174.275 162,176  Z"/>

<path  fill="#00FF1D" stroke-width="0" stroke="#00FF1D" d = " M365 215 C365,225.714 364,237.497 364,248 364,248 366.5,249 366.5,249 369.548,247.476 368.822,243.856 370,241.5 374.911,231.678 380,209.442 380,197 380,190.825 380.558,184.615 378,179.5 377.477,178.454 378.951,176 377,176 377,176 375,180.5 375,180.5 368.238,194.024 360.988,181 353,181 353,181 354,184 354,184 362.898,184 364,196.481 364,202 364,205.629 365,210.716 365,215  Z"/>

<path  fill="#00FF1D" stroke-width="0" stroke="#00FF1D" d = " M125 211 C120.788,211 120.01,218.745 117.5,220 114.572,221.464 114.664,216 112,216 112,211.149 111.057,204.614 109,200.5 106.101,194.702 110,182.797 110,177 110,177 112,177 112,177 112,184.736 122.843,190.829 130.5,187 130.5,187 137,183 137,183 137,183 138,185 138,185 133.078,185 125,206.663 125,211  Z"/>

<path  fill="#45EBCA" stroke-width="0" stroke="#45EBCA" d = " M253 181 L254,181 C254,179.814 253,179.814 253,181  Z"/>

<path  fill="#FFFC00" stroke-width="0" stroke="#FFFC00" d = " M261 187 L261,188 C253.443,188 253.623,184 252,184 252,184 253,181 253,181 253,181 254,181 254,181 254,181 261,187 261,187  Z"/>

<path  fill="#FFFC00" stroke-width="0" stroke="#FFFC00" d = " M233 183 C228.703,183 225,186.031 225,190 229.629,190 233,187.745 233,183  Z"/>

<path  fill="#814FFF" stroke-width="0" stroke="#814FFF" d = " M375 260 C380.217,260 375.999,266 381,266 381,266 385,265.5 385,265.5 387.479,260.542 397,240.49 397,236 397,234.51 396.265,228 398,228 398,216.282 396.785,208.069 392,198.5 389.121,192.741 392.165,183 385,183 385,183 384,196.5 384,196.5 385.322,199.145 388.162,221.176 387,223.5 384.722,228.057 383.424,231.652 381,236.5 381,236.5 381,242.5 381,242.5 378.021,248.458 375,252.735 375,260  Z"/>

<path  fill="#022CFF" stroke-width="0" stroke="#022CFF" d = " M361 198 L364,202 C364,196.481 362.898,184 354,184 354,184 355,187 355,187 356.89,187 358,191.598 358,193 358,193 361,198 361,198  Z"/>

<path  fill="#FF3427" stroke-width="0" stroke="#FF3427" d = " M109 228 L108,230 C101.971,230 95.3504,219 93,219 93,214.246 98.3667,192 104,192 104,192 105,192 105,192 105,203.339 109,212.39 109,224 109,224 110,225 110,225 110,225 110,226 110,226 110,226 109,228 109,228  Z"/>

<path  fill="#F44345" stroke-width="0" stroke="#F44345" d = " M229 210 C229,212.987 217.397,212.294 219,215.5 L222,219.5 L224.5,224 C226.815,225.157 231.313,210 229,210  Z"/>

<path  fill="#F44345" stroke-width="0" stroke="#F44345" d = " M257 210 C257,214.572 257.736,221.618 262.5,224 264.968,225.234 269.212,217.925 268,215.5 L260.5,213 C258.422,211.961 260.874,210 257,210  Z"/>

<path  fill="#EE7533" stroke-width="0" stroke="#EE7533" d = " M126 245 C119.751,245 125,256.399 125,259 125,259 121.5,262 121.5,262 119.27,262 117.7,253.9 117,252.5 111.525,241.55 112,229.281 112,216 114.664,216 114.572,221.464 117.5,220 120.01,218.745 120.788,211 125,211 125,218.071 128,219.044 128,227 128,227 127,228 127,228 124.947,228 126,242.881 126,244 126,244 126,245 126,245  Z"/>

<path  fill="#267EFF" stroke-width="0" stroke="#267EFF" d = " M331 281 L331,283 C331,285.382 334.729,282.385 335.5,282 335.5,282 345,272.5 345,272.5 347.784,266.932 364,256.038 364,248 364,237.497 365,225.714 365,215 362.607,215 362,214.439 362,218 362,218 361,219 361,219 361,219 358,222 358,222 358,222 357,224 357,224 357,227.455 354,229.917 354,233 356.56,233 354,236.334 354,237 354,239.579 357.752,242.997 356,246.5 354.042,250.416 351.987,254.526 350,258.5 348.795,260.909 344.569,263.361 343,266.5 341.667,269.167 337.465,276 334,276 334,276 333,277 333,277 333,277 332,280 332,280 332,280 331,281 331,281  Z"/>

<path  fill="#814FFF" stroke-width="0" stroke="#814FFF" d = " M116 272 L118,273 C120.076,273 117.95,263.401 117,261.5 113.41,254.319 108,238.226 108,230 101.971,230 95.3504,219 93,219 93,219 89,222 89,222 89,223.49 89.7349,230 88,230 88,230 88,234 88,234 89.4861,234 89.4861,237 88,237 88,241.814 88.2927,255.896 94.5,259 101.138,262.319 116,260.856 116,272  Z"/>

<path  fill="#814FFF" stroke-width="0" stroke="#814FFF" d = " M110 226 L109,228 C109,228 110,226 110,226  Z"/>

<path  fill="#FF3427" stroke-width="0" stroke="#FF3427" d = " M173 298 C175.709,298 177.646,300 181,300 186.956,300 187,294.675 187,290 187,290 185,288 185,288 183.762,288 182,287.577 182,286 182,286 175,282 175,282 175,282 171,278 171,278 171,278 171,277 171,277 168.891,277 169,274.465 169,273 167.054,273 164.543,267.043 163.5,266 157.661,260.161 151.509,255.517 148,248.5 146.811,246.122 141,246.29 141,243 141,243 140,241 140,241 140,241 137,241 137,241 134.959,241 134,240.041 134,238 134,238 133,236 133,236 133,236 132,234 132,234 132,232.592 130.803,229 129,229 129,229 127,228 127,228 124.947,228 126,242.881 126,244 126,244 128,246 128,246 128,246 129,247 129,247 130.432,247 134.99,253.48 136,255.5 139.197,261.894 158,281.227 158,285 158,285 159,287 159,287 159,287 161,289 161,289 162.809,289 169,293.106 169,295 169,295 173,298 173,298  Z"/>

<path  fill="#FAAA40" stroke-width="0" stroke="#FAAA40" d = " M352 240 C352,242.014 354.284,245.932 353,248.5 350.03,254.44 344.972,259.555 342,265.5 340.266,268.969 334,272.438 334,276 337.465,276 341.667,269.167 343,266.5 344.569,263.361 348.795,260.909 350,258.5 351.987,254.526 354.042,250.416 356,246.5 357.752,242.997 354,239.579 354,237 354,237 353,237 353,237 351.527,237 352,238.952 352,240  Z"/>

<path  fill="#D4FF00" stroke-width="0" stroke="#D4FF00" d = " M326 238 C326,240.917 318.299,241.1 316.5,242 313.205,243.648 310.823,246.339 307.5,248 303.604,249.948 298.473,250.013 294.5,252 293.297,252.601 281.506,251.512 283,254.5 284.015,256.529 293.309,255 294.5,255 304.14,255 312.392,248.054 320.5,244 323.199,242.65 328.302,242.896 330,239.5 331.021,237.459 326.938,238 326,238  Z"/>

<path  fill="#FF3427" stroke-width="0" stroke="#FF3427" d = " M314 296 C309.998,296 305.696,297 302,297 295.121,297 300,288.932 300,287 305.564,287 319,275.561 319,269 319,269 321,268 321,268 321,268 322,266 322,266 322,266 323,265 323,265 332.656,265 340.939,242.28 347.5,239 347.5,239 352,240 352,240 352,242.014 354.284,245.932 353,248.5 350.03,254.44 344.972,259.555 342,265.5 340.266,268.969 334,272.438 334,276 334,276 333,277 333,277 333,277 332,280 332,280 332,280 331,281 331,281 329.423,281 329,282.762 329,284 329,284 328,285 328,285 326.099,285 323,289.332 323,291 321.762,291 320,291.423 320,293 320,293 314,296 314,296  Z"/>

<path  fill="#FAAA40" stroke-width="0" stroke="#FAAA40" d = " M126 245 L128,246 C128,246 126,244 126,244 126,244 126,245 126,245  Z"/>

<path  fill="#267EFF" stroke-width="0" stroke="#267EFF" d = " M148 284 C152.049,284 157,291.478 157,285 154.128,285 149.352,278.204 148,275.5 143.245,265.99 129,258.596 129,247 129,247 128,246 128,246 128,246 126,245 126,245 119.751,245 125,256.399 125,259 125,259 130,265.5 130,265.5 132.184,269.867 148,281.386 148,284  Z"/>

<path  fill="#D4FF00" stroke-width="0" stroke="#D4FF00" d = " M160 245 C160,249.178 164.968,247.734 167.5,249 171.555,251.028 182.353,257 186.5,257 188.941,257 194.447,259.606 196,256.5 196.947,254.607 188.576,254.538 187.5,254 178.616,249.558 169.891,245 160,245  Z"/>

<path  fill="#FAAA40" stroke-width="0" stroke="#FAAA40" d = " M157 285 L158,285 C158,281.227 139.197,261.894 136,255.5 134.99,253.48 130.432,247 129,247 129,258.596 143.245,265.99 148,275.5 149.352,278.204 154.128,285 157,285  Z"/>

<path  fill="#022CFF" stroke-width="0" stroke="#022CFF" d = " M241 286 C241,292.249 245,296.61 245,288 245,281.719 245,276.374 245,270 245,268.514 242,268.514 242,270 242,270 241,286 241,286  Z"/>

<path  fill="#0000FF" stroke-width="0" stroke="#0000FF" d = " M301 280 C301,282.69 300,284.598 300,287 305.564,287 319,275.561 319,269 317.308,269 307,274.643 307,276 307,277.577 305.238,278 304,278 304,278 303,279 303,279 303,279 301,280 301,280  Z"/>

<path  fill="#9953FF" stroke-width="0" stroke="#9953FF" d = " M225 284 C227.454,284 232.523,281.511 235.5,283 L241,286 C241,286 242,270 242,270 237.37,270 232.479,274.011 228.5,276 227.353,276.574 224,274.936 224,277 224,277 225,284 225,284  Z"/>

<path  fill="#9953FF" stroke-width="0" stroke="#9953FF" d = " M261 282 C253.605,282 245.364,288 245,288 245,281.719 245,276.374 245,270 245,270 262,276 262,276 262,276 261,282 261,282  Z"/>

<path  fill="#0000FF" stroke-width="0" stroke="#0000FF" d = " M185 288 L187,290 C187,290 188.5,291 188.5,291 188.5,291 189.5,290 189.5,290 193.12,286.38 185,284.472 185,282 185,282 184,280 184,280 182.299,280 170,271.026 170,273 171.579,273 171,275.855 171,277 171,277 171,278 171,278 171,278 175,282 175,282 175,282 182,286 182,286 182,286 185,288 185,288  Z"/>

<path  fill="#EEBA00" stroke-width="0" stroke="#EEBA00" d = " M261 282 C263.165,282 263.546,285 267,285 267,283.053 270,282.364 270,280 270,272.052 266.344,276 262,276 262,276 261,282 261,282  Z"/>

<path  fill="#EEBA00" stroke-width="0" stroke="#EEBA00" d = " M225 284 L220,287 C220,287 217,282 217,282 217,271.487 220.094,277 224,277 224,277 225,284 225,284  Z"/>

<path  fill="#FAAA40" stroke-width="0" stroke="#FAAA40" d = " M334 276 L333,277 C333,277 334,276 334,276  Z"/>

<path  fill="#9953FF" stroke-width="0" stroke="#9953FF" d = " M181 300 C181,302.319 193.12,320 195,320 195,306.414 211.851,304.797 215,298.5 216.393,295.714 216.884,292.733 218,290.5 218,290.5 220,287 220,287 220,287 217,282 217,282 215.196,282 211.864,279.818 209.5,281 208.217,281.642 207.405,283.953 205.5,283 199.993,280.246 191.549,280 185,280 185,280 185,282 185,282 185,284.472 193.12,286.38 189.5,290 189.5,290 188.5,291 188.5,291 188.5,291 187,290 187,290 187,294.675 186.956,300 181,300  Z"/>

<path  fill="#9953FF" stroke-width="0" stroke="#9953FF" d = " M302 297 L302,303.5 C301.169,305.162 292.317,318 292,318 292,305.954 276.903,303.306 272,293.5 272,293.5 267,285 267,285 267,283.053 270,282.364 270,280 280.001,280 290.626,280 301,280 301,282.69 300,284.598 300,287 300,288.932 295.121,297 302,297  Z"/>

<path  fill-rule="evenodd" fill="#E278A1" stroke-width="0" stroke="#E278A1" d = " M272 305 C272,313.748 281.105,305 272,305  M210 305 L209,309.5 C211.593,314.685 220.256,305 210,305  M242 334 C243.773,334 243,343.259 243,345 241.583,345 230.212,349.856 226.5,348 214.378,341.939 205.81,341.12 199,327.5 197.396,324.292 195,323.985 195,320 195,306.414 211.851,304.797 215,298.5 216.393,295.714 216.884,292.733 218,290.5 218,290.5 220,287 220,287 220,287 225,284 225,284 227.454,284 232.523,281.511 235.5,283 235.5,283 241,286 241,286 241,292.249 245,296.61 245,288 245.364,288 253.605,282 261,282 263.165,282 263.546,285 267,285 267,285 272,293.5 272,293.5 276.903,303.306 292,305.954 292,318 292,333.816 277.667,342.916 265.5,349 259.366,352.067 246,347.273 246,341 246,341 246,317 246,317 247.399,317 247.399,315 246,315 246,315 246,307 246,307 246,305.765 246.643,302 245,302 245,292.026 242,295.589 242,303 240.265,303 241,309.51 241,311 241,316.425 241,320.674 241,326.5 241,328.627 242,335.717 242,334  Z"/>

<path  fill="#022CFF" stroke-width="0" stroke="#022CFF" d = " M159 287 L161,289 C158.891,289 159,290.162 159,287  Z"/>

<path  fill="#022CFF" stroke-width="0" stroke="#022CFF" d = " M246 341 C243.734,341 246.454,345 243,345 243,343.259 243.773,334 242,334 242,334 242,303 242,303 242,295.589 245,292.026 245,302 245,303.235 244.357,307 246,307 246,307 246,315 246,315 246,315 246,317 246,317 246,317 246,341 246,341  Z"/>

<path  fill="#15C0FF" stroke-width="0" stroke="#15C0FF" d = " M210 305 L209,309.5 C211.593,314.685 220.256,305 210,305  Z"/>

<path  fill="#15C0FF" stroke-width="0" stroke="#15C0FF" d = " M272 305 C272,313.748 281.105,305 272,305  Z"/>

<path  fill-rule="evenodd" fill="#FA8072" stroke-width="0" stroke="#FA8072" d = " M337 347 C337,351.238 343.072,347 337,347  M350 341 C354.909,341 364.476,346 367,346 367,349.609 373.335,348.83 371,353.5 371,353.5 366.5,355 366.5,355 366.5,355 356.5,361 356.5,361 356.5,361 345.5,362 345.5,362 345.5,362 341.5,365 341.5,365 341.5,365 337.5,362 337.5,362 337.5,362 331.5,363 331.5,363 329.776,362.138 331.253,359.124 329.5,360 327.845,360.827 328.251,365.625 325.5,367 322.271,368.615 319.505,365 317.5,365 317.5,365 314.5,366 314.5,366 310.674,364.087 306.711,362.211 303.5,359 303.5,359 299.5,354 299.5,354 295.839,354 296.607,361.714 293,354.5 291.18,350.86 294.49,340.505 297.5,339 297.5,339 302.5,339 302.5,339 302.5,339 303,336.5 303,336.5 304.538,333.424 309.924,331.288 312.5,330 314.544,328.978 315.525,323.513 318.5,325 318.5,325 321.5,329 321.5,329 321.5,329 327.5,329 327.5,329 329.674,330.087 331.433,331.966 333.5,333 336.866,334.683 335.882,340.191 337.5,341 337.5,341 343.5,340 343.5,340 343.5,340 346.5,343 346.5,343 346.5,343 350,341 350,341  Z"/>

<path  fill="#FA8072" stroke-width="0" stroke="#FA8072" d = " M130 345 C134.311,345 137.92,343.79 141.5,342 L147.5,344 C148.688,343.406 148.39,340.055 150.5,339 154.138,337.181 157.092,336.204 161.5,334 163.767,332.866 163.055,329.222 167.5,327 173.984,323.758 184.853,339.177 186.5,340 188.327,340.914 197.768,341.964 195,347.5 L192,348.5 C192,349.935 195.369,350.131 193.5,352 L189,354.5 C187.824,356.852 188.846,359.327 185.5,361 L182.5,361 C179.971,362.264 181.238,369.369 170.5,364 168.229,362.865 170.039,357 167.5,357 166.316,357 164.325,358.913 162.5,358 155.003,354.252 169.872,346 155.5,346 L152.5,345 L153,350.5 C154.362,353.224 159.455,355.591 157,360.5 154.885,364.729 142.818,362 139,362 137.398,362 136.616,365.058 134.5,364 131.301,362.4 127.625,361.063 125.5,360 122.89,358.695 120.25,367 117,360.5 111.952,350.404 123,351.449 123,347 125.16,347 127.167,345 130,345  Z"/>

</g>
</svg>
