<svg xmlns="http://www.w3.org/2000/svg" xmlns:xlink="http://www.w3.org/1999/xlink" height="512" width="512">
<g>
<rect width="512" height="512" fill="#000000"  stroke-width="0" /> 
<path  fill-rule="evenodd" fill="#FFFF00" stroke-width="0" stroke="#FFFF00" d = " M381 152 L379,153.5 C376.857,157.787 381,162.897 381,166.5 381,175.653 380.143,198.213 377,204.5 375.885,206.731 381.58,216 383.5,216 L384,210.5 C385.071,208.357 389.16,194.67 390.5,194 394.245,192.127 393.254,203.246 399,197.5 L401,195.5 C402.214,193.072 398.974,187.448 398,185.5 396.287,182.075 396.754,177.008 395,173.5 393.225,169.951 389.105,165.711 387,161.5 385.99,159.479 384.503,152 381,152  M113 226 C113,224.924 117.98,224.54 119,222.5 L123,200.5 C122.095,198.69 119.164,182.172 120,180.5 120.904,178.692 122.883,169.265 122,167.5 120.141,163.782 110.717,161.066 115,152.5 116.795,148.91 123.441,147.529 126.5,146 129.939,144.28 132.279,139.221 135,136.5 136.22,135.28 140.622,132.061 142.5,133 145.731,134.616 139.743,144.015 139,145.5 134.399,154.701 132,167.57 132,178.5 132,181.819 128.627,187.564 133.5,190 138.483,192.492 144.633,179.235 146,176.5 150.068,168.365 149.005,158.49 153,150.5 153.968,148.563 151.52,138.46 153,135.5 155.652,130.196 161.916,127.208 167.5,130 170.946,131.723 163,146.599 163,149 163,172.114 146.48,184.539 137,203.5 134.181,209.138 125.383,218.442 132.5,222 134.046,222.773 142.722,214.889 144.5,214 158.662,206.919 165.664,188.172 172,175.5 174.876,169.748 176.123,163.254 179,157.5 L178,142.5 C179.652,139.196 179.724,135.052 181,132.5 182.696,129.108 186.567,127.365 188,124.5 L188,118.5 L191,116.5 L192,108.5 C192.889,106.722 210.469,93.5155 213.5,92 223.069,87.2157 233.556,91 244,91 250.444,91 265.32,91.4102 270.5,94 L273.5,98 C283.693,108.193 269.635,103.769 273,110.5 276.111,116.722 285.197,108.152 287.5,107 289.325,106.087 291.316,108 292.5,108 293.151,108 294.151,105.802 295,107.5 L295,112.5 L298,113.5 L300,126.5 C302.646,131.791 304.333,137.167 307,142.5 308.082,144.664 305.494,153.488 308,158.5 L309,169.5 C314.168,179.836 322.398,203.449 333.5,209 336.753,210.627 342.055,218.223 346.5,216 351.735,213.382 344.223,204.945 343,202.5 L343,198.5 L339,194.5 C337.376,191.251 337.627,186.754 336,183.5 332.274,176.049 327.763,171.027 324,163.5 321.304,158.108 323.522,152.545 321,147.5 317.972,141.444 317.105,135.709 314,129.5 313.403,128.306 315.229,125 316.5,125 L318.5,127 C322.12,127 332.998,127.497 335,131.5 L334,140.5 C336.758,146.016 331.529,160.558 335,167.5 336.663,170.827 337.393,174.286 339,177.5 L342,179.5 C343.368,182.236 344.281,184.39 347.5,186 352.687,188.593 353.434,175.369 352,172.5 350.36,169.219 353.278,158.056 352,155.5 L346,137.5 C344.863,135.226 345.423,131 348.5,131 352.042,131 369.545,139.589 371,142.5 372.659,145.818 368.371,155.758 367,158.5 L363,161.5 C359.449,168.602 368.677,179.146 365,186.5 356.545,203.41 357.953,217.227 375.5,226 377.03,226.765 375.219,229.859 377.5,231 384.075,234.288 386.415,227.043 390.5,225 394.427,223.037 398.934,225 403.5,225 L407.5,224 C414.956,227.728 411.307,235.596 406.5,238 406.375,238.063 394.785,234 394.5,234 389.356,234 385.069,238 380,238 377.011,238 361.959,239.417 364,243.5 370.368,256.237 395.102,237.801 403.5,242 409.408,244.954 414.995,255.253 407.5,259 399.288,263.106 389.777,251.861 381.5,256 378.996,257.252 369.221,263.36 366.5,262 L361,256.5 L361.5,250 L358,251 C358,266.375 364.277,265 374.5,265 376.442,265 382.943,257.221 386.5,259 392.931,262.215 407.924,268.652 413,258.5 416.728,251.044 410.22,244.059 411,242.5 411.296,241.908 416.112,238.276 418,234.5 418,234.5 416,231.5 416,231.5 412.326,224.153 411.207,219.853 403.5,216 398.075,213.287 389.183,217.658 384.5,220 384.483,220.009 380.573,227.645 379,224.5 379,224.5 379.5,222 379.5,222 381.958,222 383.172,215.664 386.5,214 386.5,214 391.5,213 391.5,213 393.781,211.859 391.97,208.765 393.5,208 395.376,207.062 399.881,207.739 401,205.5 405.157,197.185 405.345,189.19 401,180.5 401,180.5 400,171.5 400,171.5 396.411,164.321 388.849,147.675 381.5,144 378.328,142.414 375.251,142.376 372.5,141 372.5,141 368,132.5 368,132.5 368,132.5 356.5,126 356.5,126 356.5,126 350.5,126 350.5,126 348.757,125.128 344.766,121.867 342.5,123 342.5,123 336.5,127 336.5,127 336.5,127 332.5,122 332.5,122 329.285,120.393 318.554,115.973 314.5,118 312.05,119.225 309.554,118.473 306.5,120 306.5,120 305.5,124 305.5,124 305.5,124 304,116.5 304,116.5 301.984,112.468 300.354,106.208 298,101.5 295.506,96.5126 286.355,101.428 281.5,99 281.5,99 280,94.5 280,94.5 280,94.5 271.5,87 271.5,87 266.398,84.4492 258.47,87.4848 253.5,85 238.917,77.7084 215.809,84.8455 203.5,91 203.5,91 184,110.5 184,110.5 183.333,111.834 183.065,115.217 181.5,116 179.498,117.001 176.629,115.436 175.5,116 175.5,116 171.5,120 171.5,120 171.5,120 159.5,123 159.5,123 157.104,124.198 154.28,129 151.5,129 147.35,129 147.336,121.082 135.5,127 135.5,127 135,129.5 135,129.5 134.04,131.419 132.818,130.341 131.5,131 131.5,131 121.5,141 121.5,141 121.5,141 113,146.5 113,146.5 110.112,152.277 110.713,156 104.5,156 104.5,156 95,166.5 95,166.5 95,166.5 95,170.5 95,170.5 93.8908,172.718 92.0667,174.367 91,176.5 91,176.5 91,181.5 91,181.5 91,181.5 87,185.5 87,185.5 85.0726,189.355 83.1897,200.879 85,204.5 85,204.5 88.5,207 88.5,207 91.075,209.575 89.3963,211 94,211 94,208.611 90.1894,205.879 89,203.5 89,203.5 90,196 90,196 90,196 96,183.5 96,183.5 98.0154,179.469 97.1168,173.383 100.5,170 100.5,170 103.5,167 103.5,167 108.708,169.604 100.665,189.83 103,194.5 104.29,197.08 108.938,217 104,217 104,218.829 105.371,225 107,225 109.868,225 109.197,226 107,226 107,230.548 112.165,226 113,226  Z"/>

<path  fill-rule="evenodd" fill="#00FFFF" stroke-width="0" stroke="#00FFFF" d = " M326 227 C326,229.389 326.827,236 330.5,236 L331,232.5 C329.948,230.396 328.779,227 326,227  M167 219 L160.5,231 C159.716,231.784 156.203,234.851 158.5,236 160.025,236.763 160.21,233.29 161,232.5 163.658,229.842 166.13,227.241 168,223.5 168.504,222.492 168.22,219 167,219  M262 210 C262,211.607 253.957,213.271 252.5,214 244.531,217.985 229.284,214.392 222.5,211 219.983,209.742 211.064,211.628 213,215.5 214.779,219.058 219.686,219.593 222.5,221 234.36,226.93 250.292,228.104 262.5,222 264.171,221.164 275.197,212.348 270.5,210 L262,210  M279 188 C279,190.064 275.647,188.426 274.5,189 270.161,191.17 263.709,188.896 259.5,191 250.127,195.687 215.44,194.97 207.5,191 204.076,189.288 192.648,192.796 195,197.5 197.569,202.638 210.099,198.799 214.5,201 231.657,209.579 258.871,206.314 275.5,198 L289.5,198 L289.5,192 C286.62,189.12 283.075,188 279,188  M256 160 C256,161.777 246.283,161 244.5,161 236.406,161 212.127,164.754 218,176.5 218.95,178.401 225.342,180.079 227.5,179 234.853,175.324 268.468,180.516 273.5,178 284.1,172.7 260.362,160 256,160  M234 139 C234,140.781 227.803,140.348 226.5,141 220.598,143.951 213.331,144.084 207.5,147 186.082,157.709 188.147,168.206 179,186.5 177.113,190.275 165.539,203.578 167,206.5 168.347,209.195 174.285,203.608 175.5,203 184.591,198.454 189.82,188.861 194,180.5 199.776,168.948 208.105,161.698 219.5,156 225.45,153.025 233.499,154.001 239.5,151 244.57,148.465 253.737,152.119 257.5,154 L270.5,155 C277.911,158.706 287.209,172.918 291,180.5 294.061,186.623 299.849,192.349 305,197.5 306.399,198.899 310.988,201.523 312,199.5 313.455,196.59 302.697,178.894 301,175.5 298.248,169.996 295.806,164.112 293,158.5 291.014,154.529 284.818,151.659 281.5,150 L272.5,143 C261.694,137.597 247.005,139 234,139  M235 109 C235,110.438 221.604,111.948 219.5,113 201.814,121.843 198.569,120.362 189,139.5 187.543,142.414 182.996,147.491 185,151.5 186.972,155.443 194.529,147.971 196.5,146 202.133,140.367 222.573,122.037 230.5,126 234.039,127.77 236.141,126 239.5,126 250.797,126 262.835,125.668 273.5,131 278.758,133.629 292.389,154.555 297.5,152 302.365,149.568 292.568,132.636 291,129.5 L291,126.5 C290.017,124.534 280.653,120.077 278.5,119 L270.5,113 C267.437,111.468 262.801,114.151 260.5,113 253.07,109.285 243.936,109 235,109  M161 242 C156.134,242 141.262,248.619 136.5,251 L128,250 C122.766,250 124.167,259 119,259 113.143,259 106.53,253.515 101.5,251 98.2644,249.382 86.6047,251.552 85.5,251 83.5987,250.049 81.9477,246.605 83,244.5 86.84,236.82 101.38,237.94 107.5,241 108.313,241.407 117,246.691 117,242.5 117,239.393 107,238.09 107,237 107,231.474 113,231.358 113,226 113,224.924 117.98,224.54 119,222.5 119,222.5 123,200.5 123,200.5 122.095,198.69 119.164,182.172 120,180.5 120.904,178.692 122.883,169.265 122,167.5 120.141,163.782 110.717,161.066 115,152.5 116.795,148.91 123.441,147.529 126.5,146 129.939,144.28 132.279,139.221 135,136.5 136.22,135.28 140.622,132.061 142.5,133 145.731,134.616 139.743,144.015 139,145.5 134.399,154.701 132,167.57 132,178.5 132,181.819 128.627,187.564 133.5,190 138.483,192.492 144.633,179.235 146,176.5 150.068,168.365 149.005,158.49 153,150.5 153.968,148.563 151.52,138.46 153,135.5 155.652,130.196 161.916,127.208 167.5,130 170.946,131.723 163,146.599 163,149 163,172.114 146.48,184.539 137,203.5 134.181,209.138 125.383,218.442 132.5,222 134.046,222.773 142.722,214.889 144.5,214 158.662,206.919 165.664,188.172 172,175.5 174.876,169.748 176.123,163.254 179,157.5 179,157.5 178,142.5 178,142.5 179.652,139.196 179.724,135.052 181,132.5 182.696,129.108 186.567,127.365 188,124.5 188,124.5 188,118.5 188,118.5 188,118.5 191,116.5 191,116.5 191,116.5 192,108.5 192,108.5 192.889,106.722 210.469,93.5155 213.5,92 223.069,87.2157 233.556,91 244,91 250.444,91 265.32,91.4102 270.5,94 270.5,94 273.5,98 273.5,98 283.693,108.193 269.635,103.769 273,110.5 276.111,116.722 285.197,108.152 287.5,107 289.325,106.087 291.316,108 292.5,108 293.151,108 294.151,105.802 295,107.5 295,107.5 295,112.5 295,112.5 295,112.5 298,113.5 298,113.5 298,113.5 300,126.5 300,126.5 302.646,131.791 304.333,137.167 307,142.5 308.082,144.664 305.494,153.488 308,158.5 308,158.5 309,169.5 309,169.5 314.168,179.836 322.398,203.449 333.5,209 336.753,210.627 342.055,218.223 346.5,216 351.735,213.382 344.223,204.945 343,202.5 343,202.5 343,198.5 343,198.5 343,198.5 339,194.5 339,194.5 337.376,191.251 337.627,186.754 336,183.5 332.274,176.049 327.763,171.027 324,163.5 321.304,158.108 323.522,152.545 321,147.5 317.972,141.444 317.105,135.709 314,129.5 313.403,128.306 315.229,125 316.5,125 316.5,125 318.5,127 318.5,127 322.12,127 332.998,127.497 335,131.5 335,131.5 334,140.5 334,140.5 336.758,146.016 331.529,160.558 335,167.5 336.663,170.827 337.393,174.286 339,177.5 339,177.5 342,179.5 342,179.5 343.368,182.236 344.281,184.39 347.5,186 352.687,188.593 353.434,175.369 352,172.5 350.36,169.219 353.278,158.056 352,155.5 352,155.5 346,137.5 346,137.5 344.863,135.226 345.423,131 348.5,131 352.042,131 369.545,139.589 371,142.5 372.659,145.818 368.371,155.758 367,158.5 367,158.5 363,161.5 363,161.5 359.449,168.602 368.677,179.146 365,186.5 356.545,203.41 357.953,217.227 375.5,226 377.03,226.765 375.219,229.859 377.5,231 384.075,234.288 386.415,227.043 390.5,225 394.427,223.037 398.934,225 403.5,225 403.5,225 407.5,224 407.5,224 414.956,227.728 411.307,235.596 406.5,238 406.375,238.063 394.785,234 394.5,234 389.356,234 385.069,238 380,238 377.011,238 361.959,239.417 364,243.5 370.368,256.237 395.102,237.801 403.5,242 409.408,244.954 414.995,255.253 407.5,259 399.288,263.106 389.777,251.861 381.5,256 378.996,257.252 369.221,263.36 366.5,262 366.5,262 361,256.5 361,256.5 361,256.5 361.5,250 361.5,250 361.5,250 358,251 358,251 358,247.832 342.63,248.065 340.5,247 336.941,245.221 316.781,237 314,237 311.439,237 308.676,234 305,234 301.913,234 280,224.266 280,232 280,232 278,232 278,232 278,232 277,231 277,231 277,229.996 277.63,224.935 275.5,226 272.32,227.59 272.555,233.972 268.5,236 262.435,239.032 255.571,234.964 251.5,237 251.5,237 246,239 246,239 242.693,239 225.127,237.314 222.5,236 219.901,234.701 212,223.842 212,231 208.257,231 192,232.216 192,235 189.554,235 175,236.789 175,239 175,239 172,239 172,239 170.765,239 167,238.357 167,240 165.377,240 161,240.005 161,242  Z"/>

<path  fill="#FFFF00" stroke-width="0" stroke="#FFFF00" d = " M235 109 C235,110.438 221.604,111.948 219.5,113 201.814,121.843 198.569,120.362 189,139.5 187.543,142.414 182.996,147.491 185,151.5 186.972,155.443 194.529,147.971 196.5,146 202.133,140.367 222.573,122.037 230.5,126 234.039,127.77 236.141,126 239.5,126 250.797,126 262.835,125.668 273.5,131 278.758,133.629 292.389,154.555 297.5,152 302.365,149.568 292.568,132.636 291,129.5 L291,126.5 C290.017,124.534 280.653,120.077 278.5,119 L270.5,113 C267.437,111.468 262.801,114.151 260.5,113 253.07,109.285 243.936,109 235,109  Z"/>

<path  fill="#FFFF00" stroke-width="0" stroke="#FFFF00" d = " M234 139 C234,140.781 227.803,140.348 226.5,141 220.598,143.951 213.331,144.084 207.5,147 186.082,157.709 188.147,168.206 179,186.5 177.113,190.275 165.539,203.578 167,206.5 168.347,209.195 174.285,203.608 175.5,203 184.591,198.454 189.82,188.861 194,180.5 199.776,168.948 208.105,161.698 219.5,156 225.45,153.025 233.499,154.001 239.5,151 244.57,148.465 253.737,152.119 257.5,154 L270.5,155 C277.911,158.706 287.209,172.918 291,180.5 294.061,186.623 299.849,192.349 305,197.5 306.399,198.899 310.988,201.523 312,199.5 313.455,196.59 302.697,178.894 301,175.5 298.248,169.996 295.806,164.112 293,158.5 291.014,154.529 284.818,151.659 281.5,150 L272.5,143 C261.694,137.597 247.005,139 234,139  Z"/>

<path  fill="#00FFFF" stroke-width="0" stroke="#00FFFF" d = " M381 152 L379,153.5 C376.857,157.787 381,162.897 381,166.5 381,175.653 380.143,198.213 377,204.5 375.885,206.731 381.58,216 383.5,216 L384,210.5 C385.071,208.357 389.16,194.67 390.5,194 394.245,192.127 393.254,203.246 399,197.5 L401,195.5 C402.214,193.072 398.974,187.448 398,185.5 396.287,182.075 396.754,177.008 395,173.5 393.225,169.951 389.105,165.711 387,161.5 385.99,159.479 384.503,152 381,152  Z"/>

<path  fill="#FFFF00" stroke-width="0" stroke="#FFFF00" d = " M256 160 C256,161.777 246.283,161 244.5,161 236.406,161 212.127,164.754 218,176.5 218.95,178.401 225.342,180.079 227.5,179 234.853,175.324 268.468,180.516 273.5,178 284.1,172.7 260.362,160 256,160  Z"/>

<path  fill="#00FFFF" stroke-width="0" stroke="#00FFFF" d = " M103 216 L104,217 C108.938,217 104.29,197.08 103,194.5 100.665,189.83 108.708,169.604 103.5,167 103.5,167 100.5,170 100.5,170 97.1168,173.383 98.0154,179.469 96,183.5 96,183.5 90,196 90,196 90,196 89,203.5 89,203.5 90.1894,205.879 94,208.611 94,211 94,213.896 99.9864,214 101,214 101,211.794 103,214.742 103,216  Z"/>

<path  fill="#FFFF00" stroke-width="0" stroke="#FFFF00" d = " M279 188 C279,190.064 275.647,188.426 274.5,189 270.161,191.17 263.709,188.896 259.5,191 250.127,195.687 215.44,194.97 207.5,191 204.076,189.288 192.648,192.796 195,197.5 197.569,202.638 210.099,198.799 214.5,201 231.657,209.579 258.871,206.314 275.5,198 L289.5,198 L289.5,192 C286.62,189.12 283.075,188 279,188  Z"/>

<path  fill="#FFFF00" stroke-width="0" stroke="#FFFF00" d = " M262 210 C262,211.607 253.957,213.271 252.5,214 244.531,217.985 229.284,214.392 222.5,211 219.983,209.742 211.064,211.628 213,215.5 214.779,219.058 219.686,219.593 222.5,221 234.36,226.93 250.292,228.104 262.5,222 264.171,221.164 275.197,212.348 270.5,210 L262,210  Z"/>

<path  fill="#FFFF00" stroke-width="0" stroke="#FFFF00" d = " M101 214 L103,216 C103,214.742 101,211.794 101,214  Z"/>

<path  fill="#FFFF00" stroke-width="0" stroke="#FFFF00" d = " M107 237 C107,238.09 117,239.393 117,242.5 117,246.691 108.313,241.407 107.5,241 101.38,237.94 86.84,236.82 83,244.5 81.9477,246.605 83.5987,250.049 85.5,251 86.6047,251.552 98.2644,249.382 101.5,251 106.53,253.515 113.143,259 119,259 124.167,259 122.766,250 128,250 128,254.004 125.531,267.516 118.5,264 118.5,264 114.5,260 114.5,260 110.064,257.782 105.075,256.288 100.5,254 98.2756,252.888 80.2222,255.944 79,253.5 73.9127,243.325 92,237.209 92,235 93.1859,235 93.1859,234 92,234 92,222.545 84.2648,238.118 82.5,239 80.1278,240.186 77.2851,242.107 75.5,243 75.5,243 72.5,242 72.5,242 72.5,242 69.5,244 69.5,244 62.1425,240.321 67.9524,228.548 72,224.5 73.252,223.248 74.0511,217.276 77.5,219 80.5734,220.537 83.0754,224.788 85.5,226 85.5,226 90.5,225 90.5,225 95.8215,227.661 90.3651,235 98,235 98,235 99,236 99,236 99,236 107,237 107,237  Z"/>

<path  fill="#FFFF00" stroke-width="0" stroke="#FFFF00" d = " M167 219 L160.5,231 C159.716,231.784 156.203,234.851 158.5,236 160.025,236.763 160.21,233.29 161,232.5 163.658,229.842 166.13,227.241 168,223.5 168.504,222.492 168.22,219 167,219  Z"/>

<path  fill="#46A515" stroke-width="0" stroke="#46A515" d = " M419 222 C419,233.473 429.571,222 419,222  Z"/>

<path  fill="#00FFFF" stroke-width="0" stroke="#00FFFF" d = " M107 225 C109.868,225 109.197,226 107,226 107,226 107,225 107,225  Z"/>

<path  fill="#46A515" stroke-width="0" stroke="#46A515" d = " M58 226 L56,229.5 C55.1904,231.119 55.9468,235.277 58.5,234 61.7768,232.362 62.4138,226 58,226  Z"/>

<path  fill="#FFFF00" stroke-width="0" stroke="#FFFF00" d = " M212 231 C212,244.284 255.551,247.975 265.5,243 268.116,241.692 272.827,239.847 274,237.5 274.745,236.01 274.335,231 277,231 277,229.996 277.63,224.935 275.5,226 272.32,227.59 272.555,233.972 268.5,236 262.435,239.032 255.571,234.964 251.5,237 251.5,237 246,239 246,239 242.693,239 225.127,237.314 222.5,236 219.901,234.701 212,223.842 212,231  Z"/>

<path  fill="#FFFF00" stroke-width="0" stroke="#FFFF00" d = " M326 227 C326,229.389 326.827,236 330.5,236 L331,232.5 C329.948,230.396 328.779,227 326,227  Z"/>

<path  fill-rule="evenodd" fill="#9953FF" stroke-width="0" stroke="#9953FF" d = " M323 317 C323,323.035 329.035,317 323,317  M306 297 C306,298.183 305.099,300.697 306,302.5 307.04,304.58 320.233,315.634 321.5,315 L322,309.5 C320.592,306.685 308.83,297 306,297  M249 348 C255.078,348 260.475,347.488 265.5,350 266.824,350.662 272,348.793 272,351 291.31,351 335,332.395 335,310 333.424,310 327.361,310.222 326,307.5 324.498,304.496 330.202,293.096 332,289.5 333.201,287.098 329.062,279.624 328,277.5 328,277.5 329,259 329,259 326.874,259 327.284,253.784 326,252.5 326,252.5 322.5,252 322.5,252 322.149,251.825 314,237.543 314,237 311.439,237 308.676,234 305,234 305,234.982 301.702,236.601 300.5,236 300.5,236 297.5,233 297.5,233 294.516,231.508 290.515,232.507 287.5,231 282.922,228.711 284.948,237 283,237 283,244.942 277.214,256 268,256 268,265.289 262,261.426 262,259 258.794,259 253.162,262 248,262 246.262,262 240,264.613 240,261 234.699,261 230.7,258 226,258 226,262.569 220,263.677 220,255 210.387,255 205,241.523 205,233 199.895,233 196.965,235 192,235 192,237.369 178.314,239 175,239 175,239 172,239 172,239 172,240.643 168.235,240 167,240 167,242.698 162.745,242 161,242 161,244.111 158,244.879 158,245.5 158,245.5 162,247.5 162,247.5 162,249.085 159,250.464 159,253 159,257.671 154.334,265.167 157,270.5 157.768,272.037 160.085,274.329 159,276.5 157.955,278.59 154.923,288.345 156,290.5 159.098,296.695 167,301.742 167,308 168.533,308 173.557,301.972 175.5,301 176.349,300.575 179.172,297.843 180,299.5 182.822,305.145 164,321.02 164,310 164,310 156.5,311 156.5,311 154.881,310.191 155.029,309 153,309 153,317.539 159.559,318.618 163,325.5 169.189,337.878 199.019,348 213,348 213,344.273 220.741,340.621 223.5,342 226.328,343.414 229.951,346.226 233.5,348 233.5,348 236.5,346 236.5,346 236.5,346 240,348 240,348 242.772,348 245.944,348 249,348  Z"/>

<path  fill="#EB57FF" stroke-width="0" stroke="#EB57FF" d = " M226 258 C230.7,258 234.699,261 240,261 242.064,261 240.426,257.647 241,256.5 242.583,253.335 240.175,247.338 237.5,246 231.014,242.757 223.652,251.076 217.5,248 215.565,247.033 212.511,233.006 210.5,232 210.5,232 205,233 205,233 205,241.523 210.387,255 220,255 220,255 226,258 226,258  Z"/>

<path  fill="#EB57FF" stroke-width="0" stroke="#EB57FF" d = " M262 259 C258.794,259 253.162,262 248,262 248,258.414 244.525,249.488 249.5,247 260.501,241.5 275,259.53 275,237.5 275,235.597 278,232.874 278,232 278,232 280,232 280,232 283.236,232 283,234.435 283,237 283,244.942 277.214,256 268,256 265.673,256 262,254.057 262,259  Z"/>

<path  fill="#FFFF00" stroke-width="0" stroke="#FFFF00" d = " M424 233 L418,237.5 L419,239.5 C421.317,244.134 418.631,238.065 422.5,240 424.232,240.866 423.8,247 427.5,247 431.912,247 433.162,233 424,233  Z"/>

<path  fill="#00FFFF" stroke-width="0" stroke="#00FFFF" d = " M92 234 C93.1859,234 93.1859,235 92,235 92,235 92,234 92,234  Z"/>

<path  fill="#00FFFF" stroke-width="0" stroke="#00FFFF" d = " M98 235 L99,236 C99,236 98,235 98,235  Z"/>

<path  fill="#FA8072" stroke-width="0" stroke="#FA8072" d = " M165 309 L164,310 C164,310 156.5,311 156.5,311 154.881,310.191 155.029,309 153,309 149.538,309 145.532,296.563 144,293.5 142.208,289.917 143.293,284.913 145,281.5 145.609,280.282 144.839,276.179 144,274.5 144,274.5 146,267.5 146,267.5 146,267.5 146,262.5 146,262.5 149.179,256.142 152.505,253 159,253 159,257.671 154.334,265.167 157,270.5 157.768,272.037 160.085,274.329 159,276.5 157.955,278.59 154.923,288.345 156,290.5 159.098,296.695 167,301.742 167,308 167,308 166,308 166,308 166,308 165,309 165,309  Z"/>

<path  fill="#FAF4F7" stroke-width="0" stroke="#FAF4F7" d = " M220 255 L226,258 C226,262.569 220,263.677 220,255  Z"/>

<path  fill="#FAF4F7" stroke-width="0" stroke="#FAF4F7" d = " M268 256 C265.673,256 262,254.057 262,259 262,261.426 268,265.289 268,256  Z"/>

<path  fill="#FA8072" stroke-width="0" stroke="#FA8072" d = " M329 259 L328,277.5 C329.062,279.624 333.201,287.098 332,289.5 330.202,293.096 324.498,304.496 326,307.5 327.361,310.222 333.424,310 335,310 338.884,310 340.774,301.953 342,299.5 344.75,294.001 341.809,268.119 339,262.5 337.386,259.271 335.341,255.08 331.5,257 331.5,257 329,259 329,259  Z"/>

<path  fill="#46A515" stroke-width="0" stroke="#46A515" d = " M401 274 C401,276.064 397.647,274.426 396.5,275 393.956,276.272 375.427,283.355 378,288.5 381.35,295.199 392.249,287.125 396.5,285 400.063,283.219 403.029,286.764 405.5,288 L408.5,287 L416.5,288 L421.5,282 C424.108,280.696 428.321,281.858 430,278.5 L428.5,276 L412.5,275 C408.328,277.086 406.562,274 401,274  Z"/>

<path  fill="#46A515" stroke-width="0" stroke="#46A515" d = " M78 277 C78,278.514 73.3689,280.238 75,283.5 L79.5,288 L84.5,285 L89.5,290 C90.8873,289.306 94.4202,283.46 93.5,283 90.5562,281.528 86.3669,282.433 83.5,281 81.4176,279.959 81.4913,277 78,277  Z"/>

<path  fill="#46A515" stroke-width="0" stroke="#46A515" d = " M96 284 C96,287.473 103,289.8 103,286.5 103,284.249 97.5073,284 96,284  Z"/>

<path  fill="#46A515" stroke-width="0" stroke="#46A515" d = " M94 289 L93,290.5 C93,291.851 97.1211,294.689 98.5,294 101.217,292.641 95.7866,289 94,289  Z"/>

<path  fill="#46A515" stroke-width="0" stroke="#46A515" d = " M107 290 C107,294.366 107.178,296.143 105,300.5 103.205,304.09 104.494,306.488 106,309.5 L104,313.5 C105.462,316.423 112.868,310.763 114,308.5 115.628,305.243 110.776,290 107,290  Z"/>

<path  fill="#46A515" stroke-width="0" stroke="#46A515" d = " M394 292 C394,293.995 389.623,294 388,294 385.265,294 376.823,293.855 375,297.5 372.224,303.052 385.642,317.215 382,324.5 380.203,328.093 380.766,335.867 376.5,338 375.213,338.644 361.712,342.606 368.5,346 378.03,350.765 378.793,338 383.5,338 387.156,338 390.642,345.429 395.5,343 398.889,341.306 407.873,327.246 406,323.5 L398,316.5 C393.91,308.32 406.632,292 394,292  Z"/>

<path  fill="#00B03F" stroke-width="0" stroke="#00B03F" d = " M306 297 C306,298.183 305.099,300.697 306,302.5 307.04,304.58 320.233,315.634 321.5,315 L322,309.5 C320.592,306.685 308.83,297 306,297  Z"/>

<path  fill="#00B03F" stroke-width="0" stroke="#00B03F" d = " M165 309 L164,310 C164,321.02 182.822,305.145 180,299.5 179.172,297.843 176.349,300.575 175.5,301 173.557,301.972 168.533,308 167,308 167,308 166,308 166,308 166,308 165,309 165,309  Z"/>

<path  fill="#9953FF" stroke-width="0" stroke="#9953FF" d = " M166 308 L165,309 C165,309 166,308 166,308  Z"/>

<path  fill="#9953FF" stroke-width="0" stroke="#9953FF" d = " M165 309 L164,310 C164,310 165,309 165,309  Z"/>

<path  fill="#00B03F" stroke-width="0" stroke="#00B03F" d = " M323 317 C323,323.035 329.035,317 323,317  Z"/>

<path  fill="#46A515" stroke-width="0" stroke="#46A515" d = " M348 321 C348,323.762 344.127,327.755 346,331.5 346.919,333.338 350.564,333.372 349,336.5 L345,339.5 C343.567,342.367 355.629,348.936 359.5,347 363.504,344.998 368.153,336.827 362.5,334 L353,333.5 L357,328.5 C360.211,322.078 352.092,321 348,321  Z"/>

<path  fill="#46A515" stroke-width="0" stroke="#46A515" d = " M115 322 L113,330.5 C114.145,332.79 115.882,332.191 117.5,333 L120.5,336 C125.939,336 123.189,322 115,322  Z"/>

<path  fill="#46A515" stroke-width="0" stroke="#46A515" d = " M128 325 L127,328.5 C129.903,334.306 135.403,325 128,325  Z"/>

<path  fill="#46A515" stroke-width="0" stroke="#46A515" d = " M141 330 C141,332.622 133.943,329.615 133,331.5 131.289,334.922 136.403,334.305 137,335.5 L138,342.5 C141.243,348.985 152.89,330 141,330  Z"/>

<path  fill="#46A515" stroke-width="0" stroke="#46A515" d = " M96 333 C96,341.273 99.0332,337.566 102,343.5 L101,348.5 C102.84,352.181 115.214,356.143 119.5,354 126.697,350.401 132.369,342.934 122.5,338 115.178,334.339 113.927,344.713 106.5,341 102.597,339.048 99.9029,333 96,333  Z"/>

<path  fill="#FF3427" stroke-width="0" stroke="#FF3427" d = " M213 348 C213,355.437 240,356.034 240,348 240,348 236.5,346 236.5,346 236.5,346 233.5,348 233.5,348 229.951,346.226 226.328,343.414 223.5,342 220.741,340.621 213,344.273 213,348  Z"/>

<path  fill="#FF3427" stroke-width="0" stroke="#FF3427" d = " M249 348 C255.078,348 260.475,347.488 265.5,350 266.824,350.662 272,348.793 272,351 272,351 267.5,354 267.5,354 262.372,356.564 256.707,354.103 252.5,352 250.709,351.104 249,350.464 249,348  Z"/>

</g>
</svg>
