<svg xmlns="http://www.w3.org/2000/svg" xmlns:xlink="http://www.w3.org/1999/xlink" height="512" width="512">
<g>
<rect width="512" height="512" fill="#000000"  stroke-width="0" /> 
<path  fill="#03C12D" stroke-width="0" stroke="#03C12D" d = " M149 261 C145.027,261 140.392,266.446 135.5,264 132.548,262.524 119.686,248.872 118,245.5 L119,240.5 L113,235.5 C105.077,219.655 95.7934,185.913 105,167.5 107.997,161.505 114.97,157.561 118,151.5 120.224,147.052 125.311,138.594 130.5,136 L159.5,121 C163.57,118.965 173.145,117.677 178.5,115 L185.5,115 L188.5,112 C194.664,108.918 204.29,113.105 210.5,110 214.603,107.949 230.665,115.165 233.5,118 235.208,119.708 239.575,127.463 242.5,126 248.174,123.163 248.697,115.902 254.5,113 257.757,111.372 261.113,109.693 264.5,108 269.791,105.354 280.166,107.667 285.5,105 288.157,103.672 315.738,115.119 319.5,117 L324.5,117 C332.672,121.086 341.42,123.96 349.5,128 367.174,136.837 376.823,153.147 385,169.5 388.255,176.01 385,185.821 385,193 385,201.185 384.38,208.74 381,215.5 L382,221.5 C379.634,226.232 379.384,231.733 377,236.5 L365,250.5 C360.971,258.558 354.473,261 346,261 340.567,261 338.926,253.213 334.5,251 323.017,245.259 313.013,236.756 301.5,231 292.664,226.582 274.799,251 267,251 267,251 260.5,250 260.5,250 257.391,251.554 253.733,253 250,253 247.223,253 245.838,249.169 243.5,248 241.384,246.942 240.602,250 239,250 230.3,250 222.519,247 215,247 207.794,247 199.313,228.594 190.5,233 184.211,236.145 177.8,238.85 171.5,242 165.831,244.835 163.087,250.206 157.5,253 154.223,254.639 152.652,261 149,261  Z"/>

<path  fill-rule="evenodd" fill="#FF8700" stroke-width="0" stroke="#FF8700" d = " M286 258 C286,263.59 276.486,265.472 280,272.5 L289,272.5 C291.281,267.938 288.138,273 291.5,273 293.997,273 296.258,264.983 297,263.5 L299,261.5 C299,258.082 288.427,258 286,258  M346 261 L346,268.5 C340.252,279.995 307.216,298.142 295.5,304 290.894,306.303 279.534,306.983 277.5,308 275.847,308.826 273.69,307.595 272.5,307 L266.5,307 C260.218,303.859 253,297.823 253,290 258.997,290 252.718,283.064 254,280.5 254,280.5 257,278.5 257,278.5 257,276.583 255.721,272.057 257,269.5 259.523,264.453 260.77,258.96 263,254.5 263,254.5 267,251 267,251 274.799,251 292.664,226.582 301.5,231 313.013,236.756 323.017,245.259 334.5,251 338.926,253.213 340.567,261 346,261  Z"/>

<path  fill-rule="evenodd" fill="#FF8700" stroke-width="0" stroke="#FF8700" d = " M197 258 C197,260.98 188.705,259.911 191,264.5 193.939,270.377 201.273,274.113 207.5,271 210.692,269.404 209.224,262.362 206.5,261 L201.5,261 C199.522,260.011 199.477,258 197,258  M149 261 C149,263.365 140.06,268.619 142,272.5 143.59,275.68 154.942,285.221 158.5,287 L164.5,288 L167.5,292 C178.069,297.284 188.875,302.688 199.5,308 209.956,313.228 239,299.829 239,289 239,282.267 233.041,265.582 230,259.5 228.473,256.447 215,250.232 215,247 207.794,247 199.313,228.594 190.5,233 184.211,236.145 177.8,238.85 171.5,242 165.831,244.835 163.087,250.206 157.5,253 154.223,254.639 152.652,261 149,261  Z"/>

<path  fill="#E1F00D" stroke-width="0" stroke="#E1F00D" d = " M239 289 L244.5,284 C247.708,285.604 249.144,290 253,290 258.997,290 252.718,283.064 254,280.5 254,280.5 257,278.5 257,278.5 257,276.583 255.721,272.057 257,269.5 259.523,264.453 260.77,258.96 263,254.5 263,254.5 267,251 267,251 267,251 260.5,250 260.5,250 257.391,251.554 253.733,253 250,253 250,253 247,256.5 247,256.5 247,256.5 244.5,259 244.5,259 244.494,258.997 239,250.062 239,250 230.3,250 222.519,247 215,247 215,250.232 228.473,256.447 230,259.5 233.041,265.582 239,282.267 239,289  Z"/>

<path  fill="#FF4FCE" stroke-width="0" stroke="#FF4FCE" d = " M197 258 C197,260.98 188.705,259.911 191,264.5 193.939,270.377 201.273,274.113 207.5,271 210.692,269.404 209.224,262.362 206.5,261 L201.5,261 C199.522,260.011 199.477,258 197,258  Z"/>

<path  fill="#FF4FCE" stroke-width="0" stroke="#FF4FCE" d = " M286 258 C286,263.59 276.486,265.472 280,272.5 L289,272.5 C291.281,267.938 288.138,273 291.5,273 293.997,273 296.258,264.983 297,263.5 L299,261.5 C299,258.082 288.427,258 286,258  Z"/>

<path  fill="#30DA00" stroke-width="0" stroke="#30DA00" d = " M226 310 C226,313.317 218.21,313.92 221,319.5 L225.5,320 C238.157,326.329 241.723,310 233,310 L226,310  Z"/>

<path  fill="#30DA00" stroke-width="0" stroke="#30DA00" d = " M264 310 C264,311.255 256.128,314.244 255,316.5 250.893,324.713 276.412,325.324 272,316.5 270.739,313.978 272.587,313.544 269.5,312 267.416,310.958 266.592,310 264,310  Z"/>

<path  fill="#FA8072" stroke-width="0" stroke="#FA8072" d = " M183 320 C183,321.96 182.423,330 185.5,330 L187.5,328 L191.5,328 L193,324 C193,319.1 186.14,320 183,320  Z"/>

<path  fill="#FA8072" stroke-width="0" stroke="#FA8072" d = " M306 320 C306,321.279 303,321.982 303,327.5 303,331.268 304.273,333.387 307.5,335 310.177,336.339 308.26,342 312.5,342 316.835,342 321.805,320 306,320  Z"/>

<path  fill="#FA8072" stroke-width="0" stroke="#FA8072" d = " M286 366 C286,366.974 281.781,368.937 281,370.5 279.919,372.661 282,375.394 282,377 282,379.701 279.919,391.339 281,393.5 283.864,399.228 293.87,398 299.5,398 302.896,398 301.644,389.428 304.5,388 309.044,385.728 312.567,397.367 317,388.5 318.737,385.025 315.792,373.646 312.5,372 308.955,370.227 302.147,375.795 302,375.5 300.179,371.859 290.55,366 286,366  Z"/>

<path  fill="#FA8072" stroke-width="0" stroke="#FA8072" d = " M209 372 C209,375.2 198.529,372.485 197.5,373 L192.5,377 C188.615,378.942 183.919,375.291 180.5,377 176.224,379.138 172.128,388.755 174,392.5 177.48,399.46 189.594,390.547 190.5,391 193.087,392.294 194.104,397.302 195.5,398 198.033,399.266 202.91,397.205 204.5,398 208.393,399.946 208.831,403.335 213.5,401 220.068,397.716 212.421,392.658 214,389.5 216.843,383.814 218.561,372 209,372  Z"/>

</g>
</svg>
