<svg xmlns="http://www.w3.org/2000/svg" xmlns:xlink="http://www.w3.org/1999/xlink" height="512" width="512">
<g>
<rect width="512" height="512" fill="#000000"  stroke-width="0" /> 
<path  fill="#FFE300" stroke-width="0" stroke="#FFE300" d = " M211 267 C211,269.36 217.789,269.856 219.5,269 222.108,267.696 239.354,256.791 240,255.5 242.852,249.797 241,246.109 241,240 241,238.964 241.973,235.236 243.5,236 246.945,237.723 244.449,248.398 246,251.5 248.207,255.915 253.451,257.401 256,262.5 257.534,265.568 282,277.7 282,269 282,269 278.5,267 278.5,267 275.947,265.724 272.116,266.308 269.5,265 259.463,259.982 256.348,249.196 252,240.5 250.637,237.775 252.611,225.723 252,224.5 248.633,217.766 249.816,198.868 253,192.5 255.532,187.436 253,174.953 253,169.5 253,167.075 253.441,156 253,156 249.448,156 248,172.166 248,174 248,174 249,179 249,179 249,179 248,181.5 248,181.5 242.74,192.019 234.693,172 240,172 240,169.382 242.514,164.528 241,161.5 235.939,151.379 230.59,140 217.5,140 217.5,140 211.5,140 211.5,140 211.5,140 204.5,145 204.5,145 204.5,145 199.5,145 199.5,145 183.388,153.056 175,175.605 175,192 175,200.778 177,209.219 177,217.5 177,219.031 178.977,226 180,226 180,216.929 183.399,213.298 179,204.5 177.466,201.432 180.725,192.951 178,187.5 176.663,184.825 182.675,171.15 184,168.5 184,168.5 185,163.5 185,163.5 185,163.5 200.5,148 200.5,148 200.5,148 209.5,146 209.5,146 212.6,144.45 218.182,140.841 222.5,143 222.5,143 226.5,147 226.5,147 226.5,147 231.5,148 231.5,148 241.427,152.964 231.008,169.516 234,175.5 239.933,187.366 238.887,222.726 233,234.5 230.33,239.84 233.181,252.16 227.5,255 222.237,257.631 218.201,267 211,267  Z"/>

<path  fill="#FFE300" stroke-width="0" stroke="#FFE300" d = " M262 144 C265.254,144 271.859,141.18 275.5,143 277.842,144.171 284.592,146 287,146 287,146 283.5,144 283.5,144 283.5,144 281.5,141 281.5,141 281.5,141 267.5,142 267.5,142 267.5,142 263.5,141 263.5,141 263.5,141 262,144 262,144  Z"/>

<path  fill="#FF8700" stroke-width="0" stroke="#FF8700" d = " M180 226 C180,230.015 183.312,233.123 185,236.5 186.408,239.315 185.578,243.656 187,246.5 190.476,253.453 200.482,267 211,267 218.201,267 222.237,257.631 227.5,255 233.181,252.16 230.33,239.84 233,234.5 238.887,222.726 239.933,187.366 234,175.5 231.008,169.516 241.427,152.964 231.5,148 231.5,148 226.5,147 226.5,147 226.5,147 222.5,143 222.5,143 218.182,140.841 212.6,144.45 209.5,146 209.5,146 200.5,148 200.5,148 200.5,148 185,163.5 185,163.5 185,163.5 184,168.5 184,168.5 182.675,171.15 176.663,184.825 178,187.5 180.725,192.951 177.466,201.432 179,204.5 183.399,213.298 180,216.929 180,226  Z"/>

<path  fill="#FF8700" stroke-width="0" stroke="#FF8700" d = " M309 227 C306.271,227 306.785,232.929 306,234.5 303.846,238.808 303.683,246.134 301,251.5 299.175,255.149 293.091,263.205 289.5,265 L282,269 C282,269 278.5,267 278.5,267 275.947,265.724 272.116,266.308 269.5,265 259.463,259.982 256.348,249.196 252,240.5 250.637,237.775 252.611,225.723 252,224.5 248.633,217.766 249.816,198.868 253,192.5 255.532,187.436 253,174.953 253,169.5 253,167.075 253.441,156 253,156 253,156 254,153 254,153 256.409,153 257,151.043 257,149 257,149 258,147 258,147 258,147 262,144 262,144 265.254,144 271.859,141.18 275.5,143 277.842,144.171 284.592,146 287,146 287,146 288,146 288,146 288,146 292,148 292,148 292,148 293,149 293,149 293,149 303,158.5 303,158.5 305.623,163.746 307.35,169.2 310,174.5 314.331,183.162 309,215.402 309,227  Z"/>

<path  fill="#FFE300" stroke-width="0" stroke="#FFE300" d = " M288 146 C289.465,146 292,145.891 292,148 292,148 288,146 288,146  Z"/>

<path  fill="#FFE300" stroke-width="0" stroke="#FFE300" d = " M258 147 L257,149 C257,149 258,147 258,147  Z"/>

<path  fill="#FFE300" stroke-width="0" stroke="#FFE300" d = " M257 149 C255.288,149 254,151.571 254,153 256.409,153 257,151.043 257,149  Z"/>

<path  fill="#FFE300" stroke-width="0" stroke="#FFE300" d = " M293 149 C309.956,149 321.221,191.058 314,205.5 312.563,208.374 313.662,227 309,227 309,215.402 314.331,183.162 310,174.5 307.35,169.2 305.623,163.746 303,158.5 303,158.5 293,149 293,149  Z"/>

<path  fill="#0F6DE6" stroke-width="0" stroke="#0F6DE6" d = " M240 172 L248,174 C248,174 249,179 249,179 249,179 248,181.5 248,181.5 242.74,192.019 234.693,172 240,172  Z"/>

<path  fill="#30DA00" stroke-width="0" stroke="#30DA00" d = " M368 263 C368,264.131 359.829,266.335 358.5,267 357.97,267.265 350,273.832 350,274.5 L351,277.5 C350.147,279.207 347.461,281.481 350.5,283 360.785,288.142 389.008,263 368,263  Z"/>

<path  fill="#30DA00" stroke-width="0" stroke="#30DA00" d = " M123 275 C123,277.078 116.554,277.607 119,282.5 121.942,288.383 145.064,297.372 149,289.5 153.702,280.096 128.065,275 123,275  Z"/>

<path  fill-rule="evenodd" fill="#FA8072" stroke-width="0" stroke="#FA8072" d = " M302 392 C302,393.93 303.93,392 302,392  M294 367 C294,369.931 285.074,371.353 284,373.5 282.674,376.153 279.232,383.964 281,387.5 282.745,390.99 285.394,390.447 288.5,392 291.371,393.435 292.193,401.154 298.5,398 L301.5,395 C302.5,395 303.182,400 305.5,400 L311.5,395 C315.287,393.106 319.354,398.791 323,391.5 328.598,380.304 311.202,376.904 309,372.5 L309,369.5 C306.941,365.382 298.547,367 294,367  Z"/>

<path  fill="#FA8072" stroke-width="0" stroke="#FA8072" d = " M190 370 C190,375.93 183.296,376.102 179.5,378 176.407,379.547 178.209,384.146 176.5,385 L173,384 C168.41,384 169.289,388.922 168,391.5 166.817,393.865 159.598,398.549 166.5,402 171.305,404.403 173.047,399.227 175.5,398 177.594,396.953 180.224,397.138 182.5,396 L190.5,399 C194.809,396.845 197.381,394 201.5,394 L201,391.5 C201.556,390.388 203.225,389.05 204,387.5 205.14,385.221 209.692,384.883 208,381.5 206.235,377.969 203.056,379.278 200.5,378 199.61,377.555 199.256,370 190,370  Z"/>

</g>
</svg>
