<svg xmlns="http://www.w3.org/2000/svg" xmlns:xlink="http://www.w3.org/1999/xlink" height="512" width="512">
<g>
<rect width="512" height="512" fill="#000000"  stroke-width="0" /> 
<path  fill="#FA8072" stroke-width="0" stroke="#FA8072" d = " M159 349 C159,351.184 152,353.984 152,358 152,360.592 152.958,361.416 154,363.5 L152,367.5 C150.798,369.904 152.819,382.841 150.5,384 145.512,386.494 136.115,382.27 134,386.5 130.538,393.424 138.144,398.788 141,404.5 142.025,406.55 140.529,408.515 143.5,410 147.626,412.063 148,403.25 150.5,402 152.599,400.951 155.793,409.915 160,401.5 160.748,400.005 159.523,398.547 159,397.5 157.535,394.569 161,392.203 161,390 161,384.493 156.178,374.145 159,368.5 159.527,367.446 175.496,365.493 171,356.5 168.476,351.451 164.593,349 159,349  Z"/>

<path  fill="#FA8072" stroke-width="0" stroke="#FA8072" d = " M328 350 L328,390.5 C330.186,394.871 334.886,394.271 336,396.5 337.371,399.242 334.559,402.029 338.5,404 L341.5,403 C351.322,407.911 351,398.905 351,392 351,389.097 352.614,386.728 351,383.5 349.046,379.592 341.359,382.217 341,381.5 L340,371.5 C339.255,370.01 336.745,367.99 336,366.5 L336,359.5 L333,357.5 C331.616,354.732 333.226,350 328,350  Z"/>

</g>
</svg>
