<svg xmlns="http://www.w3.org/2000/svg" xmlns:xlink="http://www.w3.org/1999/xlink" height="512" width="512">
<g>
<rect width="512" height="512" fill="#000000"  stroke-width="0" /> 
<path  fill-rule="evenodd" fill="#FA8072" stroke-width="0" stroke="#FA8072" d = " M329 379 C329,386.802 335.697,379 329,379  M328 353 C328,360.164 325.917,390.209 331.5,393 336.707,395.604 336.114,390.307 337.5,391 L338.5,398 C345.766,398 355.951,401.401 349,387.5 L350,381.5 C347.48,376.46 340.572,381.645 340,380.5 L340,368.5 L336,364.5 L335.5,360 L330,359.5 C328.828,357.156 331.991,353 328,353  Z"/>

<path  fill="#FA8072" stroke-width="0" stroke="#FA8072" d = " M161 358 L159,360.5 C159,366.552 168.131,358 161,358  Z"/>

<path  fill="#FA8072" stroke-width="0" stroke="#FA8072" d = " M128 385 C128,386.947 124.572,388.644 126,391.5 130.373,400.245 143.691,385 128,385  Z"/>

<path  fill="#FA8072" stroke-width="0" stroke="#FA8072" d = " M148 385 C148,386.166 141.325,386.175 140,387.5 134.965,392.535 138.571,394.642 141,399.5 142.036,401.572 140.683,404.591 143.5,406 145.716,407.108 147.329,403.841 148,402.5 L148,399.5 C150.484,394.532 161.767,385 148,385  Z"/>

</g>
</svg>
