<svg xmlns="http://www.w3.org/2000/svg" xmlns:xlink="http://www.w3.org/1999/xlink" height="512" width="512">
<g>
<rect width="512" height="512" fill="#000000"  stroke-width="0" /> 
<path  fill-rule="evenodd" fill="#86FF5A" stroke-width="0" stroke="#86FF5A" d = " M241 331 C241,332.909 235.799,331.099 237,333.5 243.813,347.125 258.553,331 241,331  M220 298 C220,301.634 214.358,301 212.5,301 L200,312.5 C197.3,317.9 192.689,344.877 196,351.5 197.161,353.822 200.162,355.824 201,357.5 202.194,359.887 203.229,364.959 205,368.5 206.992,372.483 213.541,373.582 215,376.5 L217.5,381 C220.55,382.525 224.375,382.438 227.5,384 L239.5,384 C242.216,382.642 241.126,375.313 246.5,378 L249.5,384 C254.793,386.647 264.763,384.369 269.5,382 273.823,379.839 277.468,374.564 279,371.5 L285,366.5 C286.147,364.206 287.774,361.952 289,359.5 L289,354.5 L295,346.5 L294,337.5 C295.303,334.894 294.362,331.223 293,328.5 L293,321.5 C289.332,314.164 282.669,306.084 274.5,302 263.177,296.338 231.867,298 220,298  Z"/>

<path  fill-rule="evenodd" fill="#EB57FF" stroke-width="0" stroke="#EB57FF" d = " M243 334 C243,338.123 247.123,334 243,334  M241 331 C241,332.909 235.799,331.099 237,333.5 243.813,347.125 258.553,331 241,331  Z"/>

<path  fill="#27F4FD" stroke-width="0" stroke="#27F4FD" d = " M243 334 C243,338.123 247.123,334 243,334  Z"/>

</g>
</svg>
