<svg xmlns="http://www.w3.org/2000/svg" xmlns:xlink="http://www.w3.org/1999/xlink" height="512" width="512">
<g>
<rect width="512" height="512" fill="#000000"  stroke-width="0" /> 
<path  fill-rule="evenodd" fill="#FFFF00" stroke-width="0" stroke="#FFFF00" d = " M246 169 C246,170.239 238.94,172 237.5,172 232.687,172 208.702,180.903 212,187.5 213.834,191.168 224.334,185 227.5,185 232.353,185 258.866,181.317 261.5,180 262.96,179.27 270,178.224 270,175.5 L266.5,174 C255.864,168.682 257.886,169 246,169  M239 164 C239,165.93 240.93,164 239,164  M244 163 C244,168.241 250.335,163 244,163  M252 162 C252,167.241 258.335,162 252,162  M244 139 C244,141.144 239.738,139.381 238.5,140 235.607,141.446 230.495,147.51 229,150.5 L231.5,158 C232.878,158.689 250.891,156.804 252.5,156 L256,155.5 C257.759,151.981 251.936,146.371 251,144.5 249.238,140.975 249.163,139 244,139  M254 133 C254,134.93 255.93,133 254,133  M208 198 C210.686,198 233.737,198.382 234.5,198 240.367,195.066 261.887,193 268,193 271.633,193 284.269,203.963 283,206.5 281.333,209.835 279.725,211.387 276.5,213 L272.5,217 C269.335,218.583 265.667,219.416 262.5,221 261.052,221.724 245.291,217 241,217 238.315,217 224.172,219.836 222.5,219 219.786,217.643 216.145,218.323 213.5,217 210.123,215.312 210.54,213 207,213 193.972,213 223.466,229.017 225.5,228 225.5,228 227.5,227 227.5,227 229.03,227.765 227.219,230.859 229.5,232 229.5,232 239.5,237 239.5,237 242.255,238.378 249.259,235.121 251.5,234 257.246,231.127 285.251,217.999 288,212.5 291.036,206.429 289.941,191.721 282.5,188 281.234,187.367 273,187.712 273,185.5 273,182.946 285.25,185 280,174.5 277.617,169.734 270.462,166.981 266.5,165 266.5,165 258,163.5 258,163.5 258,160.698 264.158,163 265.5,163 270.496,163 273.714,168.073 277,161.5 277.615,160.271 278,158.874 278,157.5 278,157.39 265.947,139.724 264.5,139 264.5,139 258.5,135 258.5,135 258.5,135 256,134.5 256,134.5 256,134.5 260,130.5 260,130.5 261.462,127.577 256.249,119.375 253.5,118 246.196,114.348 233.749,119.002 230,126.5 230,126.5 229,132.5 229,132.5 229.713,133.926 233.474,134.026 232.5,135 229.859,137.641 226.853,134.823 224.5,136 222.332,137.084 210.903,155.306 212,157.5 214.765,163.031 220.88,166 227,166 227.915,166 238.346,162.809 237,165.5 237,165.5 229.5,167 229.5,167 224.494,169.503 218.482,170.509 213.5,173 213.5,173 211,176.5 211,176.5 205.237,182.263 207,183.331 207,190 207,191.49 206.265,198 208,198  Z"/>

<path  fill="#00FFFF" stroke-width="0" stroke="#00FFFF" d = " M244 139 C244,141.144 239.738,139.381 238.5,140 235.607,141.446 230.495,147.51 229,150.5 L231.5,158 C232.878,158.689 250.891,156.804 252.5,156 L256,155.5 C257.759,151.981 251.936,146.371 251,144.5 249.238,140.975 249.163,139 244,139  Z"/>

<path  fill="#00FFFF" stroke-width="0" stroke="#00FFFF" d = " M246 169 C246,170.239 238.94,172 237.5,172 232.687,172 208.702,180.903 212,187.5 213.834,191.168 224.334,185 227.5,185 232.353,185 258.866,181.317 261.5,180 262.96,179.27 270,178.224 270,175.5 L266.5,174 C255.864,168.682 257.886,169 246,169  Z"/>

<path  fill="#FFFF00" stroke-width="0" stroke="#FFFF00" d = " M188 188 C188,191.161 181.391,202.282 182,203.5 183.319,206.139 187.527,202.487 188.5,202 193.51,199.495 196.708,188 188,188  Z"/>

<path  fill="#00FFFF" stroke-width="0" stroke="#00FFFF" d = " M208 198 C210.686,198 233.737,198.382 234.5,198 240.367,195.066 261.887,193 268,193 271.633,193 284.269,203.963 283,206.5 281.333,209.835 279.725,211.387 276.5,213 L272.5,217 C269.335,218.583 265.667,219.416 262.5,221 261.052,221.724 245.291,217 241,217 238.315,217 224.172,219.836 222.5,219 219.786,217.643 216.145,218.323 213.5,217 210.123,215.312 210.54,213 207,213 207,208.195 208,203.202 208,198  Z"/>

<path  fill="#FFFF00" stroke-width="0" stroke="#FFFF00" d = " M303 195 C303,200.264 307.655,195 303,195  Z"/>

<path  fill="#9953FF" stroke-width="0" stroke="#9953FF" d = " M222 334 L219,337 C202.436,337 182.555,336.609 174,319.5 172.091,315.681 167,314.788 167,309 167,306.922 168.821,313.858 171,309.5 172.399,306.703 168,307.24 168,305 171.742,305 178.083,303.334 180,299.5 182.35,294.799 181.586,288.328 184,283.5 189.551,272.399 197,271.905 197,257 209.469,257 198.996,248 193,248 193,243.444 203.798,240 207,240 212.27,240 218.058,241.779 222.5,244 230.452,247.976 239,239.001 239,254 239,258.332 234.963,256.768 232.5,258 227.444,260.528 231.897,265.801 221.5,271 221.5,271 221,275.5 221,275.5 221,275.5 228,279.5 228,279.5 228.916,281.331 229.497,286.999 231.5,288 238.991,291.746 250.969,291.765 258.5,288 258.5,288 259,284.5 259,284.5 260.087,282.326 261.966,280.567 263,278.5 264.144,276.212 269.065,275.629 267,271.5 267,271.5 261,265.5 261,265.5 261,265.5 261,261.5 261,261.5 259.755,259.011 255.607,258.715 254,255.5 254,255.5 249,252 249,252 249,241.782 265.717,244.892 267.5,244 272.313,241.593 277.112,241 283,241 287.862,241 295,242.645 295,248 288.868,248 283.864,257 289.5,257 290.717,257 293.158,256 295,256 295,257.704 280.285,261.07 284,268.5 285.474,271.448 288.368,268.934 290.5,270 296.826,273.163 304.355,277.855 309.5,283 314.857,288.357 312.534,303 321,303 321,306.138 323,308.662 323,311 319.052,311 307.094,331.703 302.5,334 293.515,338.493 276.808,336 267,336 267,336 262,332 262,332 262,332 267.5,333 267.5,333 267.5,333 271,334 271,334 275.469,334 275.365,329.433 272.5,328 271.797,327.648 259,326.969 259,329 259,329 254,325 254,325 254,320.64 249.8,321.101 248,317.5 246.967,315.435 249.568,313 246,313 246,313 245.5,300 245.5,300 243.016,300 244,309.357 244,311 240.097,311 241.905,315.691 241,317.5 238.972,321.557 237,321.01 237,325 237,325 235,325 235,325 235,322.908 233,324.348 233,326 233,326 231,328 231,328 231,326.657 228.795,325.353 227.5,326 220.659,329.42 217.212,326.644 214.5,328 210.871,329.815 214.762,336 217.5,336 217.5,336 222,334 222,334  Z"/>

<path  fill="#FA8072" stroke-width="0" stroke="#FA8072" d = " M168 305 C168,307.24 172.399,306.703 171,309.5 168.821,313.858 167,306.922 167,309 162.857,309 156.52,300.541 155,297.5 155,297.5 155,291.5 155,291.5 155,291.5 152,287.5 152,287.5 152,287.5 155,283.5 155,283.5 156.47,280.561 156.472,276.556 158,273.5 160.7,268.099 177.47,251.515 182.5,249 186.319,247.09 189.288,248 193,248 198.996,248 209.469,257 197,257 193.206,257 185.621,254.94 181.5,257 181.5,257 180.5,260 180.5,260 177.084,263.416 162,275.871 162,281.5 162,281.5 163,284.5 163,284.5 162.358,285.783 160.047,286.595 161,288.5 162.326,291.153 160.728,294.956 162,297.5 162.903,299.306 168,304.005 168,305  Z"/>

<path  fill="#FA8072" stroke-width="0" stroke="#FA8072" d = " M321 303 C321,306.138 323,308.662 323,311 327.574,311 336.381,288.263 333,281.5 325.248,265.997 315.382,248 295,248 288.868,248 283.864,257 289.5,257 290.717,257 293.158,256 295,256 303.721,256 316.607,259.714 321,268.5 321,268.5 325,280.5 325,280.5 326.901,284.302 327.619,303 321,303  Z"/>

<path  fill-rule="evenodd" fill="#EB57FF" stroke-width="0" stroke="#EB57FF" d = " M244 275 C244,282.408 247.478,275 244,275  M249 252 C245.298,252 241.73,254 239,254 239,258.332 234.963,256.768 232.5,258 227.444,260.528 231.897,265.801 221.5,271 221.5,271 221,275.5 221,275.5 221,275.5 228,279.5 228,279.5 228.916,281.331 229.497,286.999 231.5,288 238.991,291.746 250.969,291.765 258.5,288 258.5,288 259,284.5 259,284.5 260.087,282.326 261.966,280.567 263,278.5 264.144,276.212 269.065,275.629 267,271.5 267,271.5 261,265.5 261,265.5 261,265.5 261,261.5 261,261.5 259.755,259.011 255.607,258.715 254,255.5 254,255.5 249,252 249,252  Z"/>

<path  fill="#5BF1FF" stroke-width="0" stroke="#5BF1FF" d = " M197 257 C193.206,257 185.621,254.94 181.5,257 L180.5,260 C177.084,263.416 162,275.871 162,281.5 L163,284.5 C162.358,285.783 160.047,286.595 161,288.5 162.326,291.153 160.728,294.956 162,297.5 162.903,299.306 168,304.005 168,305 171.742,305 178.083,303.334 180,299.5 182.35,294.799 181.586,288.328 184,283.5 189.551,272.399 197,271.905 197,257  Z"/>

<path  fill="#5BF1FF" stroke-width="0" stroke="#5BF1FF" d = " M295 256 C303.721,256 316.607,259.714 321,268.5 L325,280.5 C326.901,284.302 327.619,303 321,303 312.534,303 314.857,288.357 309.5,283 304.355,277.855 296.826,273.163 290.5,270 288.368,268.934 285.474,271.448 284,268.5 280.285,261.07 295,257.704 295,256  Z"/>

<path  fill="#27F4FD" stroke-width="0" stroke="#27F4FD" d = " M244 275 C244,282.408 247.478,275 244,275  Z"/>

<path  fill="#4196FF" stroke-width="0" stroke="#4196FF" d = " M246 317 L244,318 C244,318 244,311 244,311 244,309.357 243.016,300 245.5,300 245.5,300 246,313 246,313 246,313 246,317 246,317  Z"/>

<path  fill="#00F60E" stroke-width="0" stroke="#00F60E" d = " M242 324 L237,325 C237,321.01 238.972,321.557 241,317.5 241.905,315.691 240.097,311 244,311 244,311 244,318 244,318 244,318 244,323 244,323 244,323 242,324 242,324  Z"/>

<path  fill="#00F60E" stroke-width="0" stroke="#00F60E" d = " M246 323 L254,325 C254,320.64 249.8,321.101 248,317.5 246.967,315.435 249.568,313 246,313 246,313 246,317 246,317 246,317 246,323 246,323  Z"/>

<path  fill="#7209D4" stroke-width="0" stroke="#7209D4" d = " M246 323 L245,325 C245,325 244,323 244,323 244,323 244,318 244,318 244,318 246,317 246,317 246,317 246,323 246,323  Z"/>

<path  fill="#9953FF" stroke-width="0" stroke="#9953FF" d = " M242 324 C242,327.969 245,330.563 245,325 245,325 244,323 244,323 244,323 242,324 242,324  Z"/>

<path  fill="#FF3427" stroke-width="0" stroke="#FF3427" d = " M267 336 C267,340.112 255.728,339.114 253.5,338 L247.5,336 L243.5,332 L238.5,338 C236.406,339.047 233.776,338.862 231.5,340 226.648,342.426 221.265,337 219,337 219,337 222,334 222,334 222,334 224,333 224,333 224,333 225,332 225,332 225,332 226,331 226,331 227.947,331 228.636,328 231,328 231,328 233,326 233,326 233,326 235,325 235,325 235,325 237,325 237,325 237,325 242,324 242,324 242,327.969 245,330.563 245,325 245,325 246,323 246,323 246,323 254,325 254,325 254,325 259,329 259,329 259,329 260,330 260,330 260,330 261,331 261,331 261,331 262,332 262,332 262,332 267,336 267,336  Z"/>

<path  fill="#00F60E" stroke-width="0" stroke="#00F60E" d = " M235 325 L233,326 C233,324.348 235,322.908 235,325  Z"/>

<path  fill="#00F60E" stroke-width="0" stroke="#00F60E" d = " M224 333 L222,334 C222,334 217.5,336 217.5,336 214.762,336 210.871,329.815 214.5,328 217.212,326.644 220.659,329.42 227.5,326 228.795,325.353 231,326.657 231,328 228.636,328 227.947,331 226,331 226,331 225,332 225,332 225,332 224,333 224,333  Z"/>

<path  fill="#00F60E" stroke-width="0" stroke="#00F60E" d = " M261 331 L262,332 C262,332 267.5,333 267.5,333 267.5,333 271,334 271,334 275.469,334 275.365,329.433 272.5,328 271.797,327.648 259,326.969 259,329 259,329 260,330 260,330 260,330 261,331 261,331  Z"/>

<path  fill="#9953FF" stroke-width="0" stroke="#9953FF" d = " M260 330 L261,331 C261,331 260,330 260,330  Z"/>

<path  fill="#9953FF" stroke-width="0" stroke="#9953FF" d = " M226 331 L225,332 C225,332 226,331 226,331  Z"/>

<path  fill="#9953FF" stroke-width="0" stroke="#9953FF" d = " M225 332 L224,333 C224,333 225,332 225,332  Z"/>

</g>
</svg>
