<svg xmlns="http://www.w3.org/2000/svg" xmlns:xlink="http://www.w3.org/1999/xlink" height="512" width="512">
<g>
<rect width="512" height="512" fill="#000000"  stroke-width="0" /> 
<path  fill="#CED307" stroke-width="0" stroke="#CED307" d = " M251 191 C254.892,191 255.373,189.563 258.5,188 260.996,186.752 265.708,187 267.5,187 272.558,187 279.015,180.243 283.5,178 L286.5,180 C287.917,180.709 290.815,176.657 293.5,178 296.527,179.514 301.402,185.451 304.5,187 307.733,188.617 316,194.532 316,199 318.872,199 322.273,204.614 325.5,203 339.903,195.798 340.111,172.722 334,160.5 334,160.5 331,159.5 331,159.5 324.06,145.62 309.609,141.554 296.5,135 296.5,135 287,135 287,135 266.917,135 257.117,147.266 249,163.5 247.711,166.077 246.611,191 251,191  Z"/>

<path  fill="#CED307" stroke-width="0" stroke="#CED307" d = " M231 192 C243.934,192 243.394,176.288 239,167.5 L239,163.5 C230.131,145.763 224.861,138 204,138 L191.5,139 C180.178,144.661 165.437,149.627 159,162.5 L154,175.5 C150.847,181.806 156.874,197.187 162.5,200 164.971,201.235 174,197.693 174,196 174,192.15 180.166,188.667 183.5,187 183.5,187 188.5,182 188.5,182 194.82,178.84 204.254,176.377 209.5,179 209.5,179 211.5,182 211.5,182 213.119,182.81 214.501,181 215.5,181 219.375,181 221.954,187.727 224.5,189 225.833,189.666 229,189.407 229,192 229,192 231,192 231,192  Z"/>

<path  fill="#03C12D" stroke-width="0" stroke="#03C12D" d = " M174 196 L179,197 C179,197 186,194 186,194 186,180.084 218,179.081 218,192 222.135,192 225.305,192 229,192 229,189.407 225.833,189.666 224.5,189 221.954,187.727 219.375,181 215.5,181 214.501,181 213.119,182.81 211.5,182 211.5,182 209.5,179 209.5,179 204.254,176.377 194.82,178.84 188.5,182 188.5,182 183.5,187 183.5,187 180.166,188.667 174,192.15 174,196  Z"/>

<path  fill="#03C12D" stroke-width="0" stroke="#03C12D" d = " M305 196 C309.529,196 312.449,199 316,199 316,194.532 307.733,188.617 304.5,187 301.402,185.451 296.527,179.514 293.5,178 290.815,176.657 287.917,180.709 286.5,180 286.5,180 283.5,178 283.5,178 279.015,180.243 272.558,187 267.5,187 265.708,187 260.996,186.752 258.5,188 255.373,189.563 254.892,191 251,191 251,194.153 256,195.304 256,198 261.348,198 265.965,196 272,196 272,182.584 301,183.727 301,193 302.54,193 301.764,196 305,196  Z"/>

<path  fill="#0F6DE6" stroke-width="0" stroke="#0F6DE6" d = " M218 192 C215.943,192 206.73,196 203.5,196 L200.5,195 C198.238,196.131 195.061,199 192.5,199 L186,194 C186,180.084 218,179.081 218,192  Z"/>

<path  fill="#0F6DE6" stroke-width="0" stroke="#0F6DE6" d = " M301 193 C297.253,193 284.717,195.891 280.5,198 278.789,198.856 272,198.36 272,196 272,182.584 301,183.727 301,193  Z"/>

<path  fill="#FF8700" stroke-width="0" stroke="#FF8700" d = " M240 208 C240,213.752 245.091,230.318 242,236.5 240.148,240.204 236,265.327 236,270 236,272.081 235.063,277.782 231.5,276 231.5,276 227.5,273 227.5,273 225.488,274.006 225.71,276.395 224.5,277 217.804,280.348 193.469,262.437 191,257.5 189.564,254.629 183.805,253.109 183,251.5 179.666,244.831 166.352,221.797 170,214.5 171.151,212.198 179,198.19 179,197 179,197 186,194 186,194 186,194 192.5,199 192.5,199 195.061,199 198.238,196.131 200.5,195 200.5,195 203.5,196 203.5,196 206.73,196 215.943,192 218,192 222.135,192 225.305,192 229,192 229,192 231,192 231,192 231,192.046 237.387,204.274 238,205.5 238,205.5 240,208 240,208  Z"/>

<path  fill-rule="evenodd" fill="#FF8700" stroke-width="0" stroke="#FF8700" d = " M285 228 C285,237.852 289.284,228 285,228  M288 226 C288,234.142 291.458,226 288,226  M257 280 C257,276.251 266,276.959 266,281 276.062,281 294.682,267.137 299,258.5 299,258.5 308,250.5 308,250.5 309.73,247.04 311.258,242.984 313,239.5 314.143,237.214 320.96,223.42 320,221.5 317.569,216.638 316.441,211.382 314,206.5 314,206.5 305,196 305,196 301.764,196 302.54,193 301,193 297.253,193 284.717,195.891 280.5,198 278.789,198.856 272,198.36 272,196 265.965,196 261.348,198 256,198 256,202.005 248,209.691 248,215 248,222.341 243.071,250.642 246,256.5 248.532,261.565 251,267.99 251,274 251,276.344 254.726,280 257,280  Z"/>

<path  fill="#FFE300" stroke-width="0" stroke="#FFE300" d = " M236 270 C240.099,270 239.057,269.387 241,265.5 241.444,264.611 241.608,259.054 243.5,260 247.454,261.977 244.655,274 251,274 251,267.99 248.532,261.565 246,256.5 243.071,250.642 248,222.341 248,215 248,215 244.5,217 244.5,217 241.756,215.628 243.201,208 240,208 240,213.752 245.091,230.318 242,236.5 240.148,240.204 236,265.327 236,270  Z"/>

<path  fill="#FF4FCE" stroke-width="0" stroke="#FF4FCE" d = " M288 226 C288,234.142 291.458,226 288,226  Z"/>

<path  fill="#FF4FCE" stroke-width="0" stroke="#FF4FCE" d = " M285 228 C285,237.852 289.284,228 285,228  Z"/>

<path  fill="#FFE300" stroke-width="0" stroke="#FFE300" d = " M257 280 C257,285.553 264.603,281 266,281 266,276.959 257,276.251 257,280  Z"/>

<path  fill="#FA8072" stroke-width="0" stroke="#FA8072" d = " M187 289 C187,290.592 184,292.075 184,292.5 184,296.242 194.562,292.031 190.5,290 L188.5,290 L187,289  Z"/>

<path  fill="#FA8072" stroke-width="0" stroke="#FA8072" d = " M192 290 C192,291.93 193.93,290 192,290  Z"/>

<path  fill="#30DA00" stroke-width="0" stroke="#30DA00" d = " M304 291 C304,292.993 298.8,292.35 297.5,293 L291,300.5 C289.169,304.162 297.988,306 300,306 312.232,306 320.681,291 304,291  Z"/>

<path  fill="#30DA00" stroke-width="0" stroke="#30DA00" d = " M193 294 C193,294.416 185.127,297.247 184,299.5 179.161,309.178 213.816,317.133 205,299.5 203.81,297.121 201.831,297.165 199.5,296 L193,294  Z"/>

<path  fill="#FA8072" stroke-width="0" stroke="#FA8072" d = " M306 306 L305,310.5 C307.452,315.403 314.407,306 306,306  Z"/>

<path  fill="#FA8072" stroke-width="0" stroke="#FA8072" d = " M190 310 C190,311.93 191.93,310 190,310  Z"/>

<path  fill="#FA8072" stroke-width="0" stroke="#FA8072" d = " M192 311 C192,312.93 193.93,311 192,311  Z"/>

<path  fill="#FA8072" stroke-width="0" stroke="#FA8072" d = " M286 370 C286,370.974 281.781,372.937 281,374.5 279.909,376.683 281.145,381.789 282,383.5 282.748,384.995 281.523,386.453 281,387.5 277.867,393.766 285.306,395.403 288.5,397 L289,402.5 C290.031,404.563 293.572,401.464 294.5,401 L301.5,403 C303.378,402.061 298.701,391.9 304.5,389 306.038,388.231 308.371,390.242 309,391.5 310.118,393.736 306.16,394.82 307,396.5 309.429,401.359 319.276,396.948 321,393.5 323.909,387.682 316.518,387.536 315,384.5 313.624,381.747 309.463,379.482 306.5,378 L302.5,379 C300.882,378.191 301.866,372.683 298.5,371 295.895,369.698 289.33,370 286,370  Z"/>

<path  fill="#FA8072" stroke-width="0" stroke="#FA8072" d = " M195 373 L192,375.5 C190.944,377.611 190.961,382.77 188.5,384 186.451,385.024 183.465,384.017 181.5,385 178.346,386.577 170.841,394.181 173,398.5 176.581,405.661 185.891,393.695 190.5,396 201.077,401.289 196.723,393.612 203.5,397 205.677,398.088 206.905,406.297 211.5,404 221.489,399.006 213,395.228 213,389.5 213,386.313 218.011,383.523 216,379.5 212.566,372.631 201.836,373 195,373  Z"/>

</g>
</svg>
