<svg xmlns="http://www.w3.org/2000/svg" xmlns:xlink="http://www.w3.org/1999/xlink" height="512" width="512">
<g>
<rect width="512" height="512" fill="#000000"  stroke-width="0" /> 
<path  fill-rule="evenodd" fill="#86FF5A" stroke-width="0" stroke="#86FF5A" d = " M239 335 C239,336.713 237.812,341.123 239,343.5 242.035,349.569 254.712,338.606 247.5,335 246.643,334.572 240.545,335 239,335  M229 301 C229,303.548 214.133,305.683 211.5,307 L209.5,311 L206.5,311 C203.797,312.352 205.958,314.584 205,316.5 L200,320.5 L196,334.5 L196,341.5 C196,354.709 197.546,359.592 203,370.5 L210,376.5 L210,379.5 C211.772,383.045 230.725,392.388 235.5,390 237.497,389.001 246.018,384.259 247.5,385 248.757,385.628 250.39,389.445 253.5,391 255.153,391.826 257.31,390.595 258.5,390 L268.5,388 L274.5,382 C281.987,378.256 291.531,358.439 295,351.5 296.143,349.215 293.774,348.047 293,346.5 L294,340.5 C291.479,335.457 291.571,329.641 289,324.5 L289,320.5 C285.716,313.933 280.137,309.319 273.5,306 L265.5,305 C258.649,301.575 248.614,304.057 246.5,303 242.094,300.797 234.698,301 229,301  Z"/>

<path  fill-rule="evenodd" fill="#EB57FF" stroke-width="0" stroke="#EB57FF" d = " M243 339 C243,345.072 247.238,339 243,339  M239 335 C239,336.713 237.812,341.123 239,343.5 242.035,349.569 254.712,338.606 247.5,335 246.643,334.572 240.545,335 239,335  Z"/>

<path  fill="#27F4FD" stroke-width="0" stroke="#27F4FD" d = " M243 339 C243,345.072 247.238,339 243,339  Z"/>

</g>
</svg>
