<svg xmlns="http://www.w3.org/2000/svg" xmlns:xlink="http://www.w3.org/1999/xlink" height="512" width="512">
<g>
<rect width="512" height="512" fill="#000000"  stroke-width="0" /> 
<path  fill-rule="evenodd" fill="#FFFF00" stroke-width="0" stroke="#FFFF00" d = " M378 231 C378,235.123 382.123,231 378,231  M392 227 C392,229.141 380.715,226.93 383,231.5 383.26,232.019 393.54,231.02 395.5,232 396.054,232.277 404,234.264 404,232.5 L398.5,230 C396.785,228.285 394.37,227 392,227  M378 225 L377,227.5 C377.993,229.486 384.543,225 378,225  M382 158 C382,170.648 381,185.896 381,199 381,203.938 380.107,212 385.5,212 L386,207.5 L388.5,207 L391.5,204 C393.416,203.042 396.952,206.596 399,202.5 402.356,195.788 390.867,173.234 388,167.5 386.818,165.137 385.021,158 382,158  M260 97 C260,98.3844 256.811,98.1225 258,100.5 258.494,101.488 270.524,98 262.5,98 L260,97  M117 226 C117,222.607 119.287,204.074 119,203.5 117.913,201.326 117,195.843 117,193.5 L117,177.5 C114.293,172.086 109.7,166.099 113,159.5 115.757,153.985 123.802,152.698 128,148.5 L132.5,141 C133.603,140.448 139.701,135.902 141,138.5 142.852,142.204 138.328,146.843 137,149.5 133.796,155.909 132.18,163.14 129,169.5 L128,182.5 C126.861,184.778 123.656,193.078 127.5,195 131.54,197.02 139.556,186.387 141,183.5 146.031,173.439 144.987,160.526 150,150.5 151.682,147.135 150.27,141.96 152,138.5 153.214,136.072 162.32,131.91 164.5,133 169.248,135.374 161.473,152.554 160,155.5 156.408,162.683 155.649,171.203 152,178.5 147.287,187.926 137.677,195.146 133,204.5 130.83,208.841 115.188,222.844 121.5,226 126.251,228.375 132.069,222.715 135.5,221 146.888,215.306 157.581,198.338 163,187.5 167.15,179.201 170.896,170.708 175,162.5 178.007,156.486 173.44,142.62 177,135.5 L180,134.5 L181,125.5 L184,123.5 C186.353,118.794 185.277,112.111 191.5,109 198.176,105.662 211.017,110.742 220.5,106 223.505,104.498 248.78,98.6401 251.5,100 254.294,101.397 252.511,106.995 250.5,108 244,111.25 234.072,107.714 227.5,111 223.558,112.971 218.318,112.091 214.5,114 198.231,122.134 195.968,120.565 187,138.5 185.176,142.147 179.508,149.517 182,154.5 184.762,160.023 199.528,138.444 201,135.5 201.982,133.537 206.737,131.882 208.5,131 L212.5,127 C220.16,123.17 227.13,122 236.5,122 251.154,122 264.5,123.5 277.5,130 283.202,132.851 285.706,140.911 288,145.5 L294,150.5 C294.988,151.488 299.472,158.014 301.5,157 305.309,155.096 302.019,149.538 301,147.5 297.286,140.073 294.722,131.944 291,124.5 L285,119.5 C284.28,118.06 290.194,108.847 294.5,111 302.416,114.958 301.864,129.228 305,135.5 306.802,139.104 307.924,144.348 310,148.5 L310,164.5 C313.742,171.984 316.261,180.022 320,187.5 322.854,193.208 327.165,197.83 330,203.5 333.445,210.389 353.081,228.709 362.5,224 364.435,223.032 361.43,219.359 361,218.5 359.776,216.051 355.197,212.895 355,212.5 353.869,210.237 353.107,204.304 350.5,203 347.109,201.305 344.757,195.015 343,191.5 339.437,184.374 332.965,176.43 329,168.5 326.169,162.838 326.88,155.259 324,149.5 322.991,147.482 314.593,133.314 315,132.5 318.355,125.79 330.05,134.725 331.5,134 L332.5,132 C335.229,130.635 340.38,139.739 339,142.5 336.258,147.983 337.828,174.328 342.5,179 344.709,181.209 351.369,192.065 355.5,190 358.55,188.475 357.061,180.622 356,178.5 L355,157.5 C352.677,152.854 350.395,148.291 348,143.5 347.119,141.738 348.66,134.58 351.5,136 357.695,139.098 368.563,141.625 371,146.5 374.653,153.806 369.481,160.537 367,165.5 365.436,168.628 367.57,181.641 369,184.5 370.485,187.471 366.186,194.128 365,196.5 363.051,200.398 366,208.034 366,211.5 L365,214.5 C366.742,217.984 367.162,220.825 369,224.5 L375,227.5 L377,233.5 C378.711,236.922 364.313,238.127 368,245.5 368.384,246.269 378.499,246.001 378.5,246 L383,240.5 C389.787,233.713 398.341,236.42 405.5,240 411.188,242.844 408.501,251.499 403.5,254 400.823,255.338 390.15,251.675 387.5,253 L377.5,256 L370.5,261 C366.631,262.934 362.311,257.123 361,254.5 L360.5,249 L358,251 C358,259.727 362.256,268.622 371.5,264 371.5,264 375.5,264 375.5,264 377.91,262.795 381.103,258.199 383.5,257 391.857,252.822 402.227,271.045 413,249.5 414.313,246.875 409.447,243.607 410,242.5 412.533,237.435 414.632,238.235 416,235.5 417.781,231.937 414.236,228.971 413,226.5 409.909,220.318 406.113,220.807 400.5,218 396.607,216.053 390.344,220.578 387.5,222 386.572,222.464 383.031,225.563 382,223.5 378.766,217.033 399.976,208.549 401,206.5 404.979,198.541 401.707,179.915 398,172.5 390.657,157.814 391.381,154.44 376.5,147 370.806,144.153 368.657,135.079 362.5,132 358.124,129.812 352.941,129.22 348.5,127 348.5,127 342,128.5 342,128.5 342,128.5 341.5,133 341.5,133 339.025,133 340.812,128.656 339.5,128 335.429,125.964 315.144,120.178 311.5,122 311.5,122 309.5,128 309.5,128 309.5,128 305,122.5 305,122.5 305,122.5 304,116.5 304,116.5 304,116.5 297,103.5 297,103.5 294.01,97.5201 286.209,104 282.5,104 277.691,104 276.401,92.4506 271.5,90 268.903,88.7015 247.669,88.0846 247.5,88 243.425,85.9625 222.119,84.1906 216.5,87 216.5,87 208.5,93 208.5,93 208.5,93 204.5,93 204.5,93 204.5,93 194.5,104 194.5,104 191.311,105.595 187.825,107.337 184.5,109 182.957,109.771 173.843,133 171.5,133 171.5,133 170,127.5 170,127.5 169.667,126.834 165.097,125.798 163.5,125 162.446,124.473 150.595,129.31 150,130.5 149.212,132.075 149.224,137.138 147.5,138 144.871,139.315 146.838,129.669 145.5,129 139.057,125.779 132.971,134.764 128.5,137 126.618,137.941 109.458,153.584 109,154.5 107.752,156.997 110.829,161.335 107.5,163 105.396,164.052 104.83,161 103.5,161 103.5,161 100.5,164 100.5,164 96.9897,165.755 91.8238,181.148 92,181.5 94.4422,186.384 82.8712,209 94,209 94,206.732 90.7103,205.079 92,202.5 92,202.5 94,198 94,198 94,198 95,189.5 95,189.5 95,189.5 99,177.5 99,177.5 99,177.5 102,177.5 102,177.5 103.375,180.25 103.756,206.988 103,208.5 102.987,208.527 99.0235,211 97,211 97,211 104,215.5 104,215.5 104.956,217.412 106.331,228.585 111.5,226 112.717,225.392 109.519,220.538 109,219.5 108.177,217.855 110.523,208.511 111.5,209 111.592,209.046 113.683,226 117,226  Z"/>

<path  fill="#00FFFF" stroke-width="0" stroke="#00FFFF" d = " M260 97 C260,98.3844 256.811,98.1225 258,100.5 258.494,101.488 270.524,98 262.5,98 L260,97  Z"/>

<path  fill-rule="evenodd" fill="#00FFFF" stroke-width="0" stroke="#00FFFF" d = " M293 213 C293,214.93 294.93,213 293,213  M298 212 C298,216.075 303.75,211.25 309.5,217 313.229,220.729 316.773,224.046 319,228.5 319.937,230.374 319.21,234.855 321.5,236 L324.5,235 C325.605,235.553 326.756,243.372 331.5,241 336.406,238.547 329.542,232.585 328,229.5 322.687,218.874 309.701,212 298,212  M182 211 L173.5,215 C167.59,220.91 161.127,233.686 154.5,237 152.884,237.808 152.591,241.046 154.5,242 L162,239.5 C162.383,238.734 161.684,236 163.5,236 L165.5,238 C168.296,236.602 168.41,227.545 173.5,225 L186.5,216 C187.57,215.465 195.832,215.163 195,213.5 194.742,212.984 183.272,211 182,211  M199 210 L198,212.5 C198,222.006 204.291,210 199,210  M267 208 C267,208.719 258.722,211.389 257.5,212 251.552,214.974 237.292,217.396 230.5,214 L218.5,210 C215.211,210 199.913,209.327 203,215.5 204.929,219.359 216.34,219.42 219.5,221 235.998,229.249 257.113,225.693 272.5,218 274.841,216.829 289.293,215.914 290,214.5 292.6,209.301 270.951,208 267,208  M275 186 C275,189.047 261.432,188 259.5,188 L257.5,190 L226.5,192 C224.231,190.865 208.682,187 206,187 201.205,187 186.417,193.334 190,200.5 192.225,204.95 204.985,197.742 209.5,200 224.439,207.469 257.551,206.475 272.5,199 279.292,195.604 292.529,204.485 295.5,203 298.337,201.581 294.64,194.14 293.5,193 287.745,187.245 283.105,186 275,186  M245 168 C245,169.887 238.192,168.884 240,172.5 240.812,174.124 250.264,175.118 252.5,174 255.474,172.513 251.599,168 249.5,168 L245,168  M237 138 C237,139.993 231.8,139.35 230.5,140 222.762,143.869 212.244,142.128 204.5,146 186.99,154.755 183.508,171.484 176,186.5 L163,204.5 C161.237,208.026 143.699,221.899 145,224.5 148.074,230.647 155.115,222.385 158.5,219 167.879,209.621 178.809,204.881 185,192.5 189.006,184.487 195.521,165.489 204.5,161 216.077,155.212 231.011,156.744 242.5,151 246.794,148.853 254.307,152.404 257.5,154 259.703,155.101 264.437,152.469 267.5,154 272.213,156.357 276.756,159.628 281.5,162 287.76,165.13 293.756,185.256 299.5,191 L302,196.5 C304.818,202.136 312.831,206.666 317.5,209 318.456,209.478 321.654,214.192 323,211.5 326.105,205.29 311.135,190.769 308,184.5 L300,166.5 C288.921,144.342 259.331,138 237,138  M159 244 C148.144,244 138.697,253 128,253 128,244.107 120.926,258.713 119.5,258 115.551,256.025 111.548,254.024 107.5,252 107.5,252 100.5,243 100.5,243 100.5,243 93,242.5 93,242.5 93,242.5 94,238 94,238 96.5307,238 108,242.588 108,237 110.46,237 116.909,230.683 118,228.5 118,228.5 117,226 117,226 117,222.607 119.287,204.074 119,203.5 117.913,201.326 117,195.843 117,193.5 117,193.5 117,177.5 117,177.5 114.293,172.086 109.7,166.099 113,159.5 115.757,153.985 123.802,152.698 128,148.5 128,148.5 132.5,141 132.5,141 133.603,140.448 139.701,135.902 141,138.5 142.852,142.204 138.328,146.843 137,149.5 133.796,155.909 132.18,163.14 129,169.5 129,169.5 128,182.5 128,182.5 126.861,184.778 123.656,193.078 127.5,195 131.54,197.02 139.556,186.387 141,183.5 146.031,173.439 144.987,160.526 150,150.5 151.682,147.135 150.27,141.96 152,138.5 153.214,136.072 162.32,131.91 164.5,133 169.248,135.374 161.473,152.554 160,155.5 156.408,162.683 155.649,171.203 152,178.5 147.287,187.926 137.677,195.146 133,204.5 130.83,208.841 115.188,222.844 121.5,226 126.251,228.375 132.069,222.715 135.5,221 146.888,215.306 157.581,198.338 163,187.5 167.15,179.201 170.896,170.708 175,162.5 178.007,156.486 173.44,142.62 177,135.5 177,135.5 180,134.5 180,134.5 180,134.5 181,125.5 181,125.5 181,125.5 184,123.5 184,123.5 186.353,118.794 185.277,112.111 191.5,109 198.176,105.662 211.017,110.742 220.5,106 223.505,104.498 248.78,98.6401 251.5,100 254.294,101.397 252.511,106.995 250.5,108 244,111.25 234.072,107.714 227.5,111 223.558,112.971 218.318,112.091 214.5,114 198.231,122.134 195.968,120.565 187,138.5 185.176,142.147 179.508,149.517 182,154.5 184.762,160.023 199.528,138.444 201,135.5 201.982,133.537 206.737,131.882 208.5,131 208.5,131 212.5,127 212.5,127 220.16,123.17 227.13,122 236.5,122 251.154,122 264.5,123.5 277.5,130 283.202,132.851 285.706,140.911 288,145.5 288,145.5 294,150.5 294,150.5 294.988,151.488 299.472,158.014 301.5,157 305.309,155.096 302.019,149.538 301,147.5 297.286,140.073 294.722,131.944 291,124.5 291,124.5 285,119.5 285,119.5 284.28,118.06 290.194,108.847 294.5,111 302.416,114.958 301.864,129.228 305,135.5 306.802,139.104 307.924,144.348 310,148.5 310,148.5 310,164.5 310,164.5 313.742,171.984 316.261,180.022 320,187.5 322.854,193.208 327.165,197.83 330,203.5 333.445,210.389 353.081,228.709 362.5,224 364.435,223.032 361.43,219.359 361,218.5 359.776,216.051 355.197,212.895 355,212.5 353.869,210.237 353.107,204.304 350.5,203 347.109,201.305 344.757,195.015 343,191.5 339.437,184.374 332.965,176.43 329,168.5 326.169,162.838 326.88,155.259 324,149.5 322.991,147.482 314.593,133.314 315,132.5 318.355,125.79 330.05,134.725 331.5,134 331.5,134 332.5,132 332.5,132 335.229,130.635 340.38,139.739 339,142.5 336.258,147.983 337.828,174.328 342.5,179 344.709,181.209 351.369,192.065 355.5,190 358.55,188.475 357.061,180.622 356,178.5 356,178.5 355,157.5 355,157.5 352.677,152.854 350.395,148.291 348,143.5 347.119,141.738 348.66,134.58 351.5,136 357.695,139.098 368.563,141.625 371,146.5 374.653,153.806 369.481,160.537 367,165.5 365.436,168.628 367.57,181.641 369,184.5 370.485,187.471 366.186,194.128 365,196.5 363.051,200.398 366,208.034 366,211.5 366,211.5 365,214.5 365,214.5 366.742,217.984 367.162,220.825 369,224.5 369,224.5 375,227.5 375,227.5 375,227.5 377,233.5 377,233.5 378.711,236.922 364.313,238.127 368,245.5 368.384,246.269 378.499,246.001 378.5,246 378.5,246 383,240.5 383,240.5 389.787,233.713 398.341,236.42 405.5,240 411.188,242.844 408.501,251.499 403.5,254 400.823,255.338 390.15,251.675 387.5,253 387.5,253 377.5,256 377.5,256 377.5,256 370.5,261 370.5,261 366.631,262.934 362.311,257.123 361,254.5 361,254.5 360.5,249 360.5,249 360.5,249 358,251 358,251 345.869,251 327.165,240 312,240 302.993,240 295.064,234.782 287.5,231 287.5,231 283,232 283,232 283,232 276,230 276,230 276,220.92 272.64,232.43 267.5,235 263.518,236.991 256.393,233.554 253.5,235 253.5,235 245.5,238 245.5,238 240.133,235.317 228.64,237.57 223.5,235 220.246,233.373 212,224.143 212,230 210.032,230 204,230.361 204,233 197.586,233 189.007,236.246 183.5,239 183.5,239 168.5,239 168.5,239 168.5,239 159,244 159,244  Z"/>

<path  fill="#FFFF00" stroke-width="0" stroke="#FFFF00" d = " M237 138 C237,139.993 231.8,139.35 230.5,140 222.762,143.869 212.244,142.128 204.5,146 186.99,154.755 183.508,171.484 176,186.5 L163,204.5 C161.237,208.026 143.699,221.899 145,224.5 148.074,230.647 155.115,222.385 158.5,219 167.879,209.621 178.809,204.881 185,192.5 189.006,184.487 195.521,165.489 204.5,161 216.077,155.212 231.011,156.744 242.5,151 246.794,148.853 254.307,152.404 257.5,154 259.703,155.101 264.437,152.469 267.5,154 272.213,156.357 276.756,159.628 281.5,162 287.76,165.13 293.756,185.256 299.5,191 L302,196.5 C304.818,202.136 312.831,206.666 317.5,209 318.456,209.478 321.654,214.192 323,211.5 326.105,205.29 311.135,190.769 308,184.5 L300,166.5 C288.921,144.342 259.331,138 237,138  Z"/>

<path  fill="#00FFFF" stroke-width="0" stroke="#00FFFF" d = " M382 158 C382,170.648 381,185.896 381,199 381,203.938 380.107,212 385.5,212 L386,207.5 L388.5,207 L391.5,204 C393.416,203.042 396.952,206.596 399,202.5 402.356,195.788 390.867,173.234 388,167.5 386.818,165.137 385.021,158 382,158  Z"/>

<path  fill="#FFFF00" stroke-width="0" stroke="#FFFF00" d = " M245 168 C245,169.887 238.192,168.884 240,172.5 240.812,174.124 250.264,175.118 252.5,174 255.474,172.513 251.599,168 249.5,168 L245,168  Z"/>

<path  fill="#00FFFF" stroke-width="0" stroke="#00FFFF" d = " M94 209 L97,211 C99.0235,211 102.987,208.527 103,208.5 103.756,206.988 103.375,180.25 102,177.5 102,177.5 99,177.5 99,177.5 99,177.5 95,189.5 95,189.5 95,189.5 94,198 94,198 94,198 92,202.5 92,202.5 90.7103,205.079 94,206.732 94,209  Z"/>

<path  fill="#FFFF00" stroke-width="0" stroke="#FFFF00" d = " M275 186 C275,189.047 261.432,188 259.5,188 L257.5,190 L226.5,192 C224.231,190.865 208.682,187 206,187 201.205,187 186.417,193.334 190,200.5 192.225,204.95 204.985,197.742 209.5,200 224.439,207.469 257.551,206.475 272.5,199 279.292,195.604 292.529,204.485 295.5,203 298.337,201.581 294.64,194.14 293.5,193 287.745,187.245 283.105,186 275,186  Z"/>

<path  fill="#FFFF00" stroke-width="0" stroke="#FFFF00" d = " M267 208 C267,208.719 258.722,211.389 257.5,212 251.552,214.974 237.292,217.396 230.5,214 L218.5,210 C215.211,210 199.913,209.327 203,215.5 204.929,219.359 216.34,219.42 219.5,221 235.998,229.249 257.113,225.693 272.5,218 274.841,216.829 289.293,215.914 290,214.5 292.6,209.301 270.951,208 267,208  Z"/>

<path  fill="#FFFF00" stroke-width="0" stroke="#FFFF00" d = " M199 210 L198,212.5 C198,222.006 204.291,210 199,210  Z"/>

<path  fill="#FFFF00" stroke-width="0" stroke="#FFFF00" d = " M182 211 L173.5,215 C167.59,220.91 161.127,233.686 154.5,237 152.884,237.808 152.591,241.046 154.5,242 L162,239.5 C162.383,238.734 161.684,236 163.5,236 L165.5,238 C168.296,236.602 168.41,227.545 173.5,225 L186.5,216 C187.57,215.465 195.832,215.163 195,213.5 194.742,212.984 183.272,211 182,211  Z"/>

<path  fill="#FFFF00" stroke-width="0" stroke="#FFFF00" d = " M298 212 C298,216.075 303.75,211.25 309.5,217 313.229,220.729 316.773,224.046 319,228.5 319.937,230.374 319.21,234.855 321.5,236 L324.5,235 C325.605,235.553 326.756,243.372 331.5,241 336.406,238.547 329.542,232.585 328,229.5 322.687,218.874 309.701,212 298,212  Z"/>

<path  fill="#FFFF00" stroke-width="0" stroke="#FFFF00" d = " M293 213 C293,214.93 294.93,213 293,213  Z"/>

<path  fill="#46A515" stroke-width="0" stroke="#46A515" d = " M422 225 C422,226.509 422.175,233.662 425.5,232 430.079,229.71 425.391,225 422,225  Z"/>

<path  fill="#FFFF00" stroke-width="0" stroke="#FFFF00" d = " M212 231 L212,232 C215.03,232 214.118,236.309 215.5,237 218.119,238.31 220.797,239.649 223.5,241 225.382,241.941 232.588,240.044 234.5,241 242.514,245.007 265.66,242.42 272.5,239 273.212,238.644 276,231.221 276,230 276,220.92 272.64,232.43 267.5,235 263.518,236.991 256.393,233.554 253.5,235 253.5,235 245.5,238 245.5,238 240.133,235.317 228.64,237.57 223.5,235 220.246,233.373 212,224.143 212,230 212,230 212,231 212,231  Z"/>

<path  fill="#00FFFF" stroke-width="0" stroke="#00FFFF" d = " M392 227 C392,229.141 380.715,226.93 383,231.5 383.26,232.019 393.54,231.02 395.5,232 396.054,232.277 404,234.264 404,232.5 L398.5,230 C396.785,228.285 394.37,227 392,227  Z"/>

<path  fill="#46A515" stroke-width="0" stroke="#46A515" d = " M56 231 L54,234.5 C53.0456,236.409 55.0615,241.219 57.5,240 60.319,238.591 59.8197,231 56,231  Z"/>

<path  fill="#9953FF" stroke-width="0" stroke="#9953FF" d = " M212 232 L212,233 C212,233 210,232 210,232 210,232 212,231 212,231 212,231 212,232 212,232  Z"/>

<path  fill-rule="evenodd" fill="#9953FF" stroke-width="0" stroke="#9953FF" d = " M323 317 C323,320.781 326.781,317 323,317  M250 349 C250,347.007 255.2,347.65 256.5,347 262.754,343.873 266.971,350 273,350 295.678,350 318.954,338.591 329,318.5 330.664,315.172 333,311.952 333,308 330.002,308 325.642,309 322,309 322,309 323,312.5 323,312.5 327.13,320.76 314.422,309.344 313,306.5 312.686,305.872 310.978,303 313.5,303 316.457,303 318.488,308 322,308 322,303.003 328.853,295.794 332,289.5 332.935,287.629 329.986,277.472 329,275.5 327.878,273.255 331.047,266.406 332,264.5 332,264.5 330,261.5 330,261.5 330,261.5 331,258 331,258 331,258 321,247.5 321,247.5 321,247.5 318.5,243 318.5,243 316.87,242.185 312,243.181 312,240 302.993,240 295.064,234.782 287.5,231 287.5,231 283,232 283,232 283,232 282,233 282,233 282,234.602 285.058,235.384 284,237.5 284,237.5 281,239.5 281,239.5 271.703,258.093 264.453,259 245,259 245,259 244,259 244,259 241.986,259 238.068,261.284 235.5,260 230.578,257.539 223.608,257.054 219.5,255 219.5,255 204,237.5 204,237.5 204,237.5 205,233 205,233 205,233 204,233 204,233 197.586,233 189.007,236.246 183.5,239 183.5,239 168.5,239 168.5,239 168.5,239 159,244 159,244 159,248.638 154,251.92 154,256 155.992,256 156.995,258.51 156,260.5 151.996,268.508 160.323,277.854 156,286.5 152.254,293.991 166.916,300.333 168,302.5 169.941,306.381 165,306.956 165,310 168.619,310 169.003,305.248 171.5,304 173.494,303.003 174.653,307.193 174,308.5 170.74,315.019 163,320.201 163,310 163,310 157,310 157,310 157,311.423 155.022,313.544 156,315.5 159.82,323.14 168.29,330.395 175.5,334 175.5,334 180.5,339 180.5,339 191.047,344.273 199.035,348 212,348 212,343.529 213.731,345.384 216.5,344 224.32,340.09 224.671,344.585 231.5,348 231.5,348 239,348 239,348 243.526,348 247.084,349 250,349  Z"/>

<path  fill="#EB57FF" stroke-width="0" stroke="#EB57FF" d = " M212 233 C212,235.558 214.93,237.36 216,239.5 L219.5,246 C223.701,248.101 225.663,243.418 228.5,242 229.995,241.252 231.453,242.477 232.5,243 241.048,247.274 244,247.51 244,259 241.986,259 238.068,261.284 235.5,260 230.578,257.539 223.608,257.054 219.5,255 219.5,255 204,237.5 204,237.5 204,237.5 205,233 205,233 205,233 210,232 210,232 210,232 212,233 212,233  Z"/>

<path  fill="#EB57FF" stroke-width="0" stroke="#EB57FF" d = " M282 233 C269.879,233 278.494,242.503 269.5,247 265.45,249.025 261.341,244.421 258.5,243 248.97,238.235 245,253.207 245,259 264.453,259 271.703,258.093 281,239.5 281,239.5 284,237.5 284,237.5 285.058,235.384 282,234.602 282,233  Z"/>

<path  fill="#FFFF00" stroke-width="0" stroke="#FFFF00" d = " M108 237 C108,242.588 96.5307,238 94,238 94,232.249 96.2198,237 98.5,237 99.4088,237 108,234.155 108,237  Z"/>

<path  fill="#FFFF00" stroke-width="0" stroke="#FFFF00" d = " M94 238 C88.9048,238 84.4183,241.337 87,246.5 89.3096,251.119 94.1409,248.32 97.5,250 102.622,252.561 122.246,268.007 126,260.5 L126,257.5 L128,253 C128,244.107 120.926,258.713 119.5,258 115.551,256.025 111.548,254.024 107.5,252 107.5,252 100.5,243 100.5,243 100.5,243 93,242.5 93,242.5 93,242.5 94,238 94,238  Z"/>

<path  fill="#FA8072" stroke-width="0" stroke="#FA8072" d = " M163 310 L165,310 C165,306.956 169.941,306.381 168,302.5 166.916,300.333 152.254,293.991 156,286.5 160.323,277.854 151.996,268.508 156,260.5 156.995,258.51 155.992,256 154,256 141.721,256 139.539,271.578 144,280.5 144,280.5 144,293.5 144,293.5 147.153,299.807 150.592,310 157,310 157,310 163,310 163,310  Z"/>

<path  fill="#FA8072" stroke-width="0" stroke="#FA8072" d = " M333 308 C330.002,308 325.642,309 322,309 322,309 322,308 322,308 322,303.003 328.853,295.794 332,289.5 332.935,287.629 329.986,277.472 329,275.5 327.878,273.255 331.047,266.406 332,264.5 332,264.5 330,261.5 330,261.5 330,261.5 331,258 331,258 331,258 335.5,256 335.5,256 341.573,259.037 344,269.524 344,276 344,276 343,279.5 343,279.5 343,279.5 344,282.5 344,282.5 344,282.5 343,285.5 343,285.5 344.484,288.468 345.612,289.276 344,292.5 341.656,297.187 340.578,308 333,308  Z"/>

<path  fill="#46A515" stroke-width="0" stroke="#46A515" d = " M402 266 C402,271.158 408.073,266 402,266  Z"/>

<path  fill="#46A515" stroke-width="0" stroke="#46A515" d = " M89 270 L88,272.5 C88,279.432 96.8903,270 89,270  Z"/>

<path  fill="#46A515" stroke-width="0" stroke="#46A515" d = " M399 270 C399,275.692 378.92,281.339 381,285.5 383.343,290.187 389.857,286.321 392.5,285 396.914,282.793 401.086,286.207 405.5,284 408.651,282.425 405.839,278.822 407,276.5 L409,273.5 C408.185,271.871 400.599,270 399,270  Z"/>

<path  fill="#46A515" stroke-width="0" stroke="#46A515" d = " M74 275 C74,277.45 79.7398,287.02 82,282.5 83.8389,278.822 76.6121,275 74,275  Z"/>

<path  fill="#46A515" stroke-width="0" stroke="#46A515" d = " M413 278 L413,283.5 C415.204,287.907 422.034,278 413,278  Z"/>

<path  fill="#46A515" stroke-width="0" stroke="#46A515" d = " M91 279 C91,281.402 86.0444,284.589 87,286.5 90.0537,292.607 99.6087,291.717 103,298.5 L102,313.5 C104.892,319.283 113.121,308.257 114,306.5 115.129,304.242 112.499,304.497 112,303.5 110.452,300.404 111.391,293.946 107.5,292 105.913,291.207 95,293.056 95,290.5 95,287.832 99.4311,287.638 100,286.5 101.358,283.784 92.2593,279 91,279  Z"/>

<path  fill="#46A515" stroke-width="0" stroke="#46A515" d = " M396 290 C396,296.805 377.91,292.681 375,298.5 373.206,302.088 377.758,304.016 379,306.5 L378,311.5 C379.432,314.365 384.935,319.63 383,323.5 L379,324.5 C377.491,327.518 378.223,334.138 374.5,336 367.783,339.359 351.943,343.221 367.5,351 371.693,353.097 389,353.197 389,345.5 L386,344.5 C385.024,342.548 387.19,336.12 388,334.5 389.337,331.825 393.852,338.324 396.5,337 399.099,335.7 404.34,327.179 403,324.5 401.39,321.28 398.507,320.515 397,317.5 396.252,316.005 397.477,314.547 398,313.5 L397,305.5 C397,302.246 403.129,290 396,290  Z"/>

<path  fill="#00B03F" stroke-width="0" stroke="#00B03F" d = " M322 308 C318.488,308 316.457,303 313.5,303 310.978,303 312.686,305.872 313,306.5 314.422,309.344 327.13,320.76 323,312.5 L322,309 C322,309 322,308 322,308  Z"/>

<path  fill="#00B03F" stroke-width="0" stroke="#00B03F" d = " M163 310 L165,310 C168.619,310 169.003,305.248 171.5,304 173.494,303.003 174.653,307.193 174,308.5 170.74,315.019 163,320.201 163,310  Z"/>

<path  fill="#00B03F" stroke-width="0" stroke="#00B03F" d = " M323 317 C323,320.781 326.781,317 323,317  Z"/>

<path  fill="#46A515" stroke-width="0" stroke="#46A515" d = " M350 318 L346,322.5 C343.823,326.855 349,330.964 349,332.5 L345,337.5 C343.07,341.359 356.807,348.887 361,340.5 367.066,328.368 351,333.735 351,330.5 L356,325.5 C358.568,320.364 355.173,318 350,318  Z"/>

<path  fill-rule="evenodd" fill="#46A515" stroke-width="0" stroke="#46A515" d = " M110 339 C110,345.133 116.133,339 110,339  M117 319 C117,320.286 108.091,323.682 110,327.5 111.558,330.616 112.929,322.358 115,326.5 115.873,328.246 116.771,337.635 115.5,337 113.986,336.243 111.157,329.171 109.5,330 106.445,331.528 110.231,336.634 109.5,337 105.144,339.178 100.938,325.281 95.5,328 91.0231,330.238 92.491,335.482 94,338.5 99.02,348.54 106.509,355 118.5,355 119.717,355 122.158,354 124,354 127.759,354 134.419,349.337 132,344.5 L126,338.5 L125.5,336 L123.5,337 L122,334.5 C123.326,331.847 121.728,328.044 123,325.5 123.904,323.691 128.837,329.826 131,325.5 133.988,319.524 124.922,322 123.5,322 121.827,322 119.338,319 117,319  Z"/>

<path  fill="#46A515" stroke-width="0" stroke="#46A515" d = " M135 327 C135,328.71 130.922,327.344 132,329.5 L140,335.5 C140.394,336.288 139.101,341.199 141.5,340 149.641,335.929 144.953,327 135,327  Z"/>

<path  fill="#FF3427" stroke-width="0" stroke="#FF3427" d = " M212 348 C212,353.701 239,356.993 239,348 239,348 231.5,348 231.5,348 224.671,344.585 224.32,340.09 216.5,344 213.731,345.384 212,343.529 212,348  Z"/>

<path  fill="#FF3427" stroke-width="0" stroke="#FF3427" d = " M250 349 C250,357.144 273,354.628 273,350 266.971,350 262.754,343.873 256.5,347 255.2,347.65 250,347.007 250,349  Z"/>

</g>
</svg>
