<svg xmlns="http://www.w3.org/2000/svg" xmlns:xlink="http://www.w3.org/1999/xlink" height="512" width="512">
<g>
<rect width="512" height="512" fill="#000000"  stroke-width="0" /> 
<path  fill-rule="evenodd" fill="#FFFF00" stroke-width="0" stroke="#FFFF00" d = " M257 97 C257,100.049 239.646,99 236.5,99 233.945,99 217.257,99.1213 215.5,100 211.858,101.821 204.609,112.282 203,115.5 L198,121.5 L202.5,121 C204.146,120.177 207.106,113.197 209.5,112 L214.5,108 C219.066,105.717 229.904,107.298 234.5,105 L239.5,103 C247.644,103 268.553,106.526 275.5,110 L281.5,116 L284,116.5 C284.566,117.632 288.452,129.595 291,124.5 294.649,117.203 281.978,107.239 277.5,105 L268.5,104 C266.32,102.91 259.137,97 257,97  M255 86 C255,90.3651 258.479,86 255,86  M386 209 C387.183,209 387.535,205.43 388,204.5 389.562,201.376 388.539,197.422 390,194.5 L393,192.5 L393,188.5 C394.395,185.71 397.272,185.886 399.5,187 400.029,187.264 400.113,193.274 401,191.5 404.338,184.825 400.931,161.215 394.5,158 386.88,154.19 384.046,183.408 382,187.5 380.823,189.854 374.529,196.557 372,191.5 367.298,182.097 366.2,162.101 371,152.5 L371,141.5 C372.935,137.63 378.887,140 381.5,140 L383,138.5 C383,134.834 373.61,127.555 370.5,126 362.09,121.795 361.087,136.326 359,140.5 354.843,148.814 363.639,166.223 359,175.5 357.525,178.45 353.748,177.876 351.5,179 347.647,180.926 351.74,182 347.5,182 344.405,182 342.428,188.964 338.5,187 L331.5,182 C319.231,169.731 323.48,167.01 335.5,161 L339.5,155 C341.012,154.244 341.652,157.196 343,154.5 346.542,147.416 340.28,134.939 343,129.5 L353,122.5 C355.493,117.514 330.677,111.147 329,114.5 327.228,118.044 329,127.687 329,130.5 329,133.996 327.424,146.651 326,149.5 L323,151.5 C322.341,152.818 323.419,154.04 321.5,155 315.844,157.828 308.318,148.864 311,143.5 314.847,135.806 310.674,121.152 314,114.5 L313.5,105 C306.531,101.516 297.514,102.507 290.5,99 L289.5,96 C282.477,92.4883 277.988,90 270.5,90 269.501,90 268.119,88.1904 266.5,89 264.862,89.819 271.456,96.978 273.5,98 276.066,99.283 279.966,98.7331 282.5,100 285.664,101.582 294.597,108.695 296,111.5 297.768,115.036 303.044,122.412 300,128.5 L297,133.5 L299,139 L298,151.5 C301.168,157.837 315.193,171.114 311,179.5 310.13,181.241 305.429,179 304,179 299.397,179 286.165,171.831 284,167.5 282.149,163.798 284.799,158.098 283,154.5 278.07,144.641 278.531,146.439 283,137.5 283.778,135.944 278.878,124.257 278,122.5 273.776,114.052 241.717,111.891 233.5,116 L221.5,117 C215.725,119.888 214.355,122.145 210,126.5 209.164,127.336 206.413,131.956 208.5,133 212.735,135.118 222.146,129.677 225.5,128 230.913,125.294 245.709,130.104 249.5,132 252.586,133.543 265.339,136.822 262,143.5 258.976,149.548 250.675,146 245.5,146 244.071,146 237.122,148.189 235.5,149 L223.5,148 C217.796,150.852 211.147,152.177 205.5,155 195.401,160.05 200.578,172.461 185.5,180 183.305,181.098 175.618,184.736 174,181.5 169.119,171.737 181.595,160.31 185,153.5 186.043,151.415 190.065,134.63 189,132.5 188.074,130.648 182.849,125.801 184,123.5 L193,115.5 C194.838,111.823 203.842,98.329 208.5,96 220.247,90.1266 233.592,94.4539 242.5,90 243.773,89.3634 253.138,87.7769 252,85.5 248.717,78.9338 234.278,82 229,82 206.459,82 202.525,84.4508 193,103.5 188.779,111.942 179.412,111.676 175,120.5 169.706,131.088 178.482,144.536 174,153.5 172.437,156.626 166.891,163.195 162.5,161 158.988,159.244 161.382,153.264 160,150.5 157.654,145.809 151.903,133.693 155,127.5 156.37,124.76 162.792,119.084 161,115.5 L156.5,114 C155.897,113.698 139.169,119.162 138,121.5 135.783,125.935 142.405,132.311 144,135.5 145.231,137.963 140.16,157.82 144,165.5 144.149,165.797 156.354,170.208 159,175.5 161.462,180.425 146.597,193.951 142.5,196 140.853,196.823 139.467,194.967 138.5,194 135.986,191.486 130.768,189.035 129,185.5 122.56,172.62 129.449,154.399 123,141.5 121.776,139.052 123.429,132.465 120.5,131 115.478,128.489 98.9116,145.323 100,147.5 102.676,152.853 109.395,146.29 111,149.5 113.88,155.26 110.215,163.93 113,169.5 114.736,172.972 119.058,192.384 117,196.5 115.24,200.021 112.794,202.911 111,206.5 110.191,208.118 110.79,209.855 108.5,211 L102,210.5 C97.7658,202.032 101.674,185.847 97,176.5 86.632,155.764 84,176.667 84,189 L83,204 C83,208.244 94,209.416 94,214 89.315,214 81.0613,208.623 79,204.5 79,204.5 81,191.5 81,191.5 81,180.509 82.4188,168.662 87,159.5 87,159.5 93,152.5 93,152.5 93,152.5 93,147.5 93,147.5 93,147.5 100,140.5 100,140.5 100,140.5 100,137.5 100,137.5 101.191,135.118 102.845,136.827 104.5,136 109.419,133.54 112.71,128.395 117.5,126 117.5,126 127.5,125 127.5,125 127.5,125 129.5,122 129.5,122 143.762,114.869 137.485,110 157.5,110 159.553,110 163.856,107.678 166.5,109 166.5,109 170,111.5 170,111.5 170,111.5 170.5,117 170.5,117 170.5,117 173.5,112 173.5,112 175.392,111.054 181.464,110.018 181.5,110 181.5,110 188.5,102 188.5,102 190.435,101.033 191.699,101.102 193,98.5 195.95,92.5999 194.28,84.1098 200.5,81 203.643,79.4283 240.807,76.1535 242.5,77 250.097,80.7983 262.499,79.4996 271.5,84 271.5,84 278.5,84 278.5,84 287.605,88.5525 294.112,94.8062 302.5,99 302.5,99 311.5,99 311.5,99 315.691,101.095 316.909,107.705 321.5,110 325.831,112.166 330.544,106.522 335.5,109 340.776,111.638 347.274,111.387 352.5,114 355.289,115.394 355.351,120 355.5,120 365.295,120 377.706,126.206 385.5,134 387.924,136.424 388.526,141.553 390,144.5 391.278,147.055 398.36,153.22 401,158.5 404.208,164.917 405,188.674 405,195.5 405,199.803 405.957,206.772 401.5,209 401.5,209 393.5,208 393.5,208 391.027,209.237 386,216.052 386,209  Z"/>

<path  fill-rule="evenodd" fill="#00FFFF" stroke-width="0" stroke="#00FFFF" d = " M224 189 C224,193.42 225.206,189 224,189  M241 183 C241,183.977 225.728,186.957 228,191.5 229.902,195.303 239.627,206.937 245.5,204 248.386,202.557 250.703,200.399 253.5,199 L261.5,191 C262.512,190.494 268.681,188.862 268,187.5 266.848,185.195 245.936,183 241,183  M156 234 C148.422,234 141.561,243 136,243 136,235.933 125.363,240.569 120.5,243 117.348,244.576 114.63,246.435 111.5,248 111.5,248 105.5,248 105.5,248 105.5,248 98.5,253 98.5,253 94.4049,255.048 86.5565,253.472 81.5,256 77.2674,258.116 77.1287,266.186 73.5,268 70.7941,269.353 67.9944,265.511 66,269.5 61.969,277.562 85.522,277.456 82,284.5 82,284.5 77.5,287 77.5,287 77.5,287 75.5,283 75.5,283 71.592,281.046 66.5904,281.045 62.5,279 60.7503,278.125 58.2742,281.048 57,278.5 55.3049,275.11 67.5145,279.529 66,276.5 65.0854,274.671 61.9844,269 59.5,269 56.8665,269 49.9233,273.347 48,269.5 48,269.5 51,265.5 51,265.5 51,261.827 46.0654,264.631 45,262.5 45,262.5 48.5,259 48.5,259 52.5443,261.022 65.4932,262.514 68,257.5 73.1299,247.24 48.6582,252.579 45.5,251 39.238,247.869 42.2384,236.631 47.5,234 49.5613,232.969 53.7985,239.149 55.5,240 61.0902,242.795 76.7005,248.099 81,239.5 84.4271,232.646 49.8501,235.8 55,225.5 61.051,213.398 76.5732,228.463 81.5,226 85.4703,224.015 93.1472,220.324 96.5,222 106.328,226.914 82.6008,229.05 94.5,235 94.5,235 100,234 100,234 100.403,234 118.72,228.059 119,227.5 120.726,224.049 110.297,219 108,219 108,215.942 96.5256,214 94,214 94,209.416 83,208.244 83,204 83,204 84,189 84,189 84,176.667 86.632,155.764 97,176.5 101.674,185.847 97.7658,202.032 102,210.5 102,210.5 108.5,211 108.5,211 110.79,209.855 110.191,208.118 111,206.5 112.794,202.911 115.24,200.021 117,196.5 119.058,192.384 114.736,172.972 113,169.5 110.215,163.93 113.88,155.26 111,149.5 109.395,146.29 102.676,152.853 100,147.5 98.9116,145.323 115.478,128.489 120.5,131 123.429,132.465 121.776,139.052 123,141.5 129.449,154.399 122.56,172.62 129,185.5 130.768,189.035 135.986,191.486 138.5,194 139.467,194.967 140.853,196.823 142.5,196 146.597,193.951 161.462,180.425 159,175.5 156.354,170.208 144.149,165.797 144,165.5 140.16,157.82 145.231,137.963 144,135.5 142.405,132.311 135.783,125.935 138,121.5 139.169,119.162 155.897,113.698 156.5,114 156.5,114 161,115.5 161,115.5 162.792,119.084 156.37,124.76 155,127.5 151.903,133.693 157.654,145.809 160,150.5 161.382,153.264 158.988,159.244 162.5,161 166.891,163.195 172.437,156.626 174,153.5 178.482,144.536 169.706,131.088 175,120.5 179.412,111.676 188.779,111.942 193,103.5 202.525,84.4508 206.459,82 229,82 234.278,82 248.717,78.9338 252,85.5 253.138,87.7769 243.773,89.3634 242.5,90 233.592,94.4539 220.247,90.1266 208.5,96 203.842,98.329 194.838,111.823 193,115.5 193,115.5 184,123.5 184,123.5 182.849,125.801 188.074,130.648 189,132.5 190.065,134.63 186.043,151.415 185,153.5 181.595,160.31 169.119,171.737 174,181.5 175.618,184.736 183.305,181.098 185.5,180 200.578,172.461 195.401,160.05 205.5,155 211.147,152.177 217.796,150.852 223.5,148 223.5,148 235.5,149 235.5,149 237.122,148.189 244.071,146 245.5,146 250.675,146 258.976,149.548 262,143.5 265.339,136.822 252.586,133.543 249.5,132 245.709,130.104 230.913,125.294 225.5,128 222.146,129.677 212.735,135.118 208.5,133 206.413,131.956 209.164,127.336 210,126.5 214.355,122.145 215.725,119.888 221.5,117 221.5,117 233.5,116 233.5,116 241.717,111.891 273.776,114.052 278,122.5 278.878,124.257 283.778,135.944 283,137.5 278.531,146.439 278.07,144.641 283,154.5 284.799,158.098 282.149,163.798 284,167.5 286.165,171.831 299.397,179 304,179 305.429,179 310.13,181.241 311,179.5 315.193,171.114 301.168,157.837 298,151.5 298,151.5 299,139 299,139 299,139 297,133.5 297,133.5 297,133.5 300,128.5 300,128.5 303.044,122.412 297.768,115.036 296,111.5 294.597,108.695 285.664,101.582 282.5,100 279.966,98.7331 276.066,99.283 273.5,98 271.456,96.978 264.862,89.819 266.5,89 268.119,88.1904 269.501,90 270.5,90 277.988,90 282.477,92.4883 289.5,96 289.5,96 290.5,99 290.5,99 297.514,102.507 306.531,101.516 313.5,105 313.5,105 314,114.5 314,114.5 310.674,121.152 314.847,135.806 311,143.5 308.318,148.864 315.844,157.828 321.5,155 323.419,154.04 322.341,152.818 323,151.5 323,151.5 326,149.5 326,149.5 327.424,146.651 329,133.996 329,130.5 329,127.687 327.228,118.044 329,114.5 330.677,111.147 355.493,117.514 353,122.5 353,122.5 343,129.5 343,129.5 340.28,134.939 346.542,147.416 343,154.5 341.652,157.196 341.012,154.244 339.5,155 339.5,155 335.5,161 335.5,161 323.48,167.01 319.231,169.731 331.5,182 331.5,182 338.5,187 338.5,187 342.428,188.964 344.405,182 347.5,182 351.74,182 347.647,180.926 351.5,179 353.748,177.876 357.525,178.45 359,175.5 363.639,166.223 354.843,148.814 359,140.5 361.087,136.326 362.09,121.795 370.5,126 373.61,127.555 383,134.834 383,138.5 383,138.5 381.5,140 381.5,140 378.887,140 372.935,137.63 371,141.5 371,141.5 371,152.5 371,152.5 366.2,162.101 367.298,182.097 372,191.5 374.529,196.557 380.823,189.854 382,187.5 384.046,183.408 386.88,154.19 394.5,158 400.931,161.215 404.338,184.825 401,191.5 400.113,193.274 400.029,187.264 399.5,187 397.272,185.886 394.395,185.71 393,188.5 393,188.5 393,192.5 393,192.5 393,192.5 390,194.5 390,194.5 388.539,197.422 389.562,201.376 388,204.5 387.535,205.43 387.183,209 386,209 384.053,209 383.364,212 381,212 378.224,212 377.304,206.098 371.5,209 367.531,210.985 375.874,214.753 375,216.5 371.538,223.424 356.268,225.884 370.5,233 379.089,237.295 376.652,229.195 378,226.5 378,226.5 383.5,223 383.5,223 387.86,220.82 392.21,236.645 399.5,233 401.461,232.019 410.868,221.184 412.5,222 416.735,224.118 404.466,233.483 409.5,236 417.062,239.781 427.308,213.117 433,224.5 434.561,227.621 419.819,235.681 417.5,238 417.5,238 413,242.5 413,242.5 415.04,246.58 425.293,240.603 428.5,239 429.491,238.505 433.838,235.175 435,237.5 438.847,245.195 419.013,244.526 422,250.5 425.643,257.786 444.432,242.364 446,245.5 446,245.5 447,250 447,250 447,269.346 433.702,250.096 429,259.5 427.74,262.021 441.407,267.686 440,270.5 436.367,277.765 426.144,260.211 422,268.5 416.745,279.011 437.528,274.445 434,281.5 432.524,284.451 413.285,280.608 412.5,281 406.89,283.805 401.045,299.59 393,283.5 390.17,277.84 403.681,271.59 406.5,273 406.5,273 413.5,275 413.5,275 413.5,275 416,272.5 416,272.5 418.999,266.502 412.918,265.335 411,261.5 409.314,258.128 410.516,252 404.5,252 400.315,252 400.972,259.264 397.5,261 389.282,265.109 393.309,250.904 391.5,250 386.668,247.584 387.595,252.452 384.5,254 381.934,255.283 374.66,249.08 372.5,248 372.5,248 365.5,243 365.5,243 365.5,243 358.5,242 358.5,242 357.753,241.626 354,239.578 354,242 348.138,242 335.255,233 330,233 327.662,233 325.138,231 322,231 322,227.078 312.506,229 311,229 311,229 309,229 309,229 309,227.316 304.321,228 303,228 303,228 302,228 302,228 302,226.601 300,226.601 300,228 295.622,228 291.014,228 286,228 278.262,228 269.979,225.24 263.5,222 260.959,220.73 259.791,224 258,224 258,219.127 230,220.962 230,225 230,225 227.5,221 227.5,221 227.5,221 226.5,224 226.5,224 220.335,224 217.437,226.031 211.5,229 211.5,229 196,228 196,228 193.876,228 191.564,229 190,229 188.855,229 186,228.421 186,230 186,230 180,230 180,230 178.263,230 170,230.516 170,232 168.196,232 164.864,229.818 162.5,231 160.145,232.178 158.854,234 156,234  Z"/>

<path  fill="#00FFFF" stroke-width="0" stroke="#00FFFF" d = " M255 86 C255,90.3651 258.479,86 255,86  Z"/>

<path  fill="#FFFF00" stroke-width="0" stroke="#FFFF00" d = " M241 183 C241,183.977 225.728,186.957 228,191.5 229.902,195.303 239.627,206.937 245.5,204 248.386,202.557 250.703,200.399 253.5,199 L261.5,191 C262.512,190.494 268.681,188.862 268,187.5 266.848,185.195 245.936,183 241,183  Z"/>

<path  fill="#FFFF00" stroke-width="0" stroke="#FFFF00" d = " M224 189 C224,193.42 225.206,189 224,189  Z"/>

<path  fill-rule="evenodd" fill="#FFFF00" stroke-width="0" stroke="#FFFF00" d = " M368 257 C368,262.455 372.304,257 368,257  M381 212 C378.224,212 377.304,206.098 371.5,209 367.531,210.985 375.874,214.753 375,216.5 371.538,223.424 356.268,225.884 370.5,233 379.089,237.295 376.652,229.195 378,226.5 L383.5,223 C387.86,220.82 392.21,236.645 399.5,233 401.461,232.019 410.868,221.184 412.5,222 416.735,224.118 404.466,233.483 409.5,236 417.062,239.781 427.308,213.117 433,224.5 434.561,227.621 419.819,235.681 417.5,238 L413,242.5 C415.04,246.58 425.293,240.603 428.5,239 429.491,238.505 433.838,235.175 435,237.5 438.847,245.195 419.013,244.526 422,250.5 425.643,257.786 444.432,242.364 446,245.5 L447,250 C447,269.346 433.702,250.096 429,259.5 427.74,262.021 441.407,267.686 440,270.5 436.367,277.765 426.144,260.211 422,268.5 416.745,279.011 437.528,274.445 434,281.5 432.524,284.451 413.285,280.608 412.5,281 406.89,283.805 401.045,299.59 393,283.5 390.17,277.84 403.681,271.59 406.5,273 L413.5,275 L416,272.5 C418.999,266.502 412.918,265.335 411,261.5 409.314,258.128 410.516,252 404.5,252 400.315,252 400.972,259.264 397.5,261 389.282,265.109 393.309,250.904 391.5,250 386.668,247.584 387.595,252.452 384.5,254 381.934,255.283 374.66,249.08 372.5,248 L365.5,243 L358.5,242 C357.753,241.626 354,239.578 354,242 354,247.461 361.079,250.579 364.5,254 366.828,256.328 365.505,263.003 369.5,265 373.782,267.141 371.994,261.753 373.5,261 373.5,261 376.5,264 376.5,264 378.958,264 382.544,264.522 385.5,266 392.461,269.48 384.66,286.58 397.5,293 406.576,297.538 406.027,290.737 411.5,288 413.882,286.809 429.967,286.767 435.5,284 439.734,281.883 433.697,276.401 438.5,274 441.814,272.343 443.921,273.658 446,269.5 447.328,266.844 442,266.076 442,264.5 442,262.925 446.643,263.429 447.5,263 447.5,263 451,256.5 451,256.5 452.876,252.747 448.457,244.414 447,241.5 447,241.5 442,238.5 442,238.5 442,238.5 442,234.5 442,234.5 442,234.5 437,231.5 437,231.5 436.291,230.083 440.343,227.185 439,224.5 439,224.5 431.5,219 431.5,219 431.5,219 424,219 424,219 419.447,219 414.139,217.18 410.5,219 407.232,220.634 399.221,228 396.5,228 392.15,228 390.721,219.611 387.5,218 386.503,217.502 378,221.705 378,219.5 378,219.5 379,217 379,217 379,217 379,214.5 379,214.5 379,214.5 381,212 381,212  Z"/>

<path  fill="#46A515" stroke-width="0" stroke="#46A515" d = " M78 215 C78,223.236 89.6595,215 78,215  Z"/>

<path  fill-rule="evenodd" fill="#FFFF00" stroke-width="0" stroke="#FFFF00" d = " M120 253 C120,255.162 113.933,255.284 112.5,256 105.219,259.64 80.7193,262.939 87,275.5 88.1335,277.767 93.5032,279 95.5,279 99.0341,279 101.516,270.492 104.5,269 109.291,266.604 117.097,266.202 121.5,264 122.381,263.559 125.133,253 120,253  M130 249 L129,250 C129,252.753 124.219,267.14 122.5,268 122.5,268 113.5,267 113.5,267 109.075,269.213 105.836,277.832 101.5,280 98.508,281.496 95.574,283.463 92.5,285 92.5,285 88.5,285 88.5,285 87.1364,285.682 82.387,294.943 78.5,293 72.3691,289.935 65.3667,286.433 58.5,283 57.8849,282.692 52.5143,278.529 52,277.5 52,277.5 52.5,275 52.5,275 47.839,272.67 41.0765,276.653 38,270.5 36.6538,267.808 38.3641,258.068 40.5,257 40.5,257 45,255.5 45,255.5 46.1289,253.242 40.4889,253.478 40,252.5 40,252.5 39,243.5 39,243.5 40.0933,241.313 41.6378,231.931 43.5,231 46.0297,229.735 51.8864,230.727 52,230.5 56.0285,222.443 48.3704,223.565 61.5,217 67.6065,213.947 73.4213,219.461 78.5,222 85.9533,225.727 88.4632,219.018 92.5,217 99.4322,213.534 104.043,228 104.5,228 105.337,228 109.8,226.101 109,224.5 108.029,222.559 108,221.378 108,219 110.297,219 120.726,224.049 119,227.5 118.72,228.059 100.403,234 100,234 100,234 94.5,235 94.5,235 82.6008,229.05 106.328,226.914 96.5,222 93.1472,220.324 85.4703,224.015 81.5,226 76.5732,228.463 61.051,213.398 55,225.5 49.8501,235.8 84.4271,232.646 81,239.5 76.7005,248.099 61.0902,242.795 55.5,240 53.7985,239.149 49.5613,232.969 47.5,234 42.2384,236.631 39.238,247.869 45.5,251 48.6582,252.579 73.1299,247.24 68,257.5 65.4932,262.514 52.5443,261.022 48.5,259 48.5,259 45,262.5 45,262.5 46.0654,264.631 51,261.827 51,265.5 51,265.5 48,269.5 48,269.5 49.9233,273.347 56.8665,269 59.5,269 61.9844,269 65.0854,274.671 66,276.5 67.5145,279.529 55.3049,275.11 57,278.5 58.2742,281.048 60.7503,278.125 62.5,279 66.5904,281.045 71.592,281.046 75.5,283 75.5,283 77.5,287 77.5,287 77.5,287 82,284.5 82,284.5 85.522,277.456 61.969,277.562 66,269.5 67.9944,265.511 70.7941,269.353 73.5,268 77.1287,266.186 77.2674,258.116 81.5,256 86.5565,253.472 94.4049,255.048 98.5,253 98.5,253 105.5,248 105.5,248 105.5,248 111.5,248 111.5,248 114.63,246.435 117.348,244.576 120.5,243 125.363,240.569 136,235.933 136,243 136,243 130,249 130,249  Z"/>

<path  fill="#46A515" stroke-width="0" stroke="#46A515" d = " M398 219 L397,222.5 C398.734,225.968 407.62,219 400.5,219 L398,219  Z"/>

<path  fill="#FFFF00" stroke-width="0" stroke="#FFFF00" d = " M258 224 C258,235.845 230,236.599 230,225 230,220.962 258,219.127 258,224  Z"/>

<path  fill-rule="evenodd" fill="#9953FF" stroke-width="0" stroke="#9953FF" d = " M261 259 L259,268.5 C260.763,272.026 277.126,259 265.5,259 L261,259  M220 258 C220,260.143 214.147,260.793 216,264.5 L220.5,267 C222.623,268.061 225.456,271.522 228.5,270 L229,263.5 C229,257.027 226.709,258 220,258  M247 340 C250.897,340 255.297,333.399 260.5,336 263.723,337.612 268.229,340 272,340 283.223,340 294.116,335.692 303.5,331 309.075,328.213 314.306,332.194 319.5,327 322.932,323.568 331,319.751 331,315 328.889,315 328.121,318 327.5,318 327.5,318 325.5,316 325.5,316 323.685,315.092 317.811,315.878 320,311.5 320,311.5 322,309 322,309 312.67,309 318.931,292.362 317,288.5 317,288.5 311.5,282 311.5,282 310.248,281.374 306.769,283.134 304.5,282 301.961,280.73 298.404,272.548 301.5,271 304.019,269.74 306.926,269.287 309.5,268 311.296,267.102 311.952,263 315,263 315,263 316,262 316,262 316,260.1 319.223,259 321,259 321,257.858 315.07,255.64 314,253.5 312.483,250.465 307.931,243.638 310,239.5 310,239.5 312,236 312,236 312,234.181 311,231.409 311,229 311,229 309,229 309,229 307.679,229 303,229.684 303,228 303,228 302,228 302,228 302,228 300,228 300,228 295.622,228 291.014,228 286,228 286,230.25 284,231.376 284,233 289.496,233 283.449,239.603 283,240.5 283,240.5 283,245.5 283,245.5 283,245.5 272.5,252 272.5,252 272.5,252 270.5,252 270.5,252 265.902,254.299 273,253.708 273,254.5 273,254.5 263.5,255 263.5,255 261.809,255.846 256.294,262.397 253.5,261 253.5,261 247,258 247,258 247,258 240,258 240,258 240,258 234.5,260 234.5,260 231.755,258.628 228.591,257.046 226.5,256 226.5,256 213.5,255 213.5,255 212.63,254.565 202.521,242.542 202,241.5 201.238,239.976 199.796,233 203,233 203,231.382 196,232.354 196,228 193.876,228 191.564,229 190,229 190,230.579 187.145,230 186,230 186,230 180,230 180,230 180,230 174,237 174,237 174,239.913 175.681,246.137 174,249.5 174,249.5 171,251.5 171,251.5 170.141,253.217 166.292,261 164,261 164,261 164,262 164,262 165.877,262 172,262.306 172,265.5 172,268.507 167,269.295 167,273 170.602,273 176.985,264.742 183.5,268 189.692,271.096 184.242,277.016 182,281.5 180.603,284.294 174.046,283.407 172,287.5 172,287.5 168,296.5 168,296.5 168.893,298.286 171.207,302.086 170,304.5 170,304.5 168,309 168,309 168,309 170,314.5 170,314.5 168.937,316.625 160.411,319.322 159,316.5 155.415,309.331 146,303.277 146,292 144.227,292 145,301.259 145,303 145,308.303 154.592,318.546 159.5,321 165.449,323.975 171.492,326.996 177.5,330 182.016,332.258 188.955,330.727 193.5,333 201.176,336.838 207.181,340 216,340 221.601,340 225.906,331.703 236.5,337 237.685,337.592 241,338.012 241,340 241,340 247,340 247,340  Z"/>

<path  fill="#34FF0D" stroke-width="0" stroke="#34FF0D" d = " M174 237 C174,239.913 175.681,246.137 174,249.5 L171,251.5 C170.141,253.217 166.292,261 164,261 161.079,261 156.684,264.092 154.5,263 144.607,258.053 146.3,247.899 151,238.5 152.373,235.754 156,237.998 156,234 158.854,234 160.145,232.178 162.5,231 164.864,229.818 168.196,232 170,232 170,232 174,237 174,237  Z"/>

<path  fill="#34FF0D" stroke-width="0" stroke="#34FF0D" d = " M312 236 L310,239.5 C307.931,243.638 312.483,250.465 314,253.5 315.07,255.64 321,257.858 321,259 330.221,259 326.725,263.112 332.5,266 338.328,268.914 340.659,253.818 339,250.5 337.27,247.04 337.646,242.793 336,239.5 334.752,237.003 330,236.619 330,233 327.662,233 325.138,231 322,231 317.57,231 313.904,236 312,236  Z"/>

<path  fill="#EB57FF" stroke-width="0" stroke="#EB57FF" d = " M203 233 C216.274,233 224.904,234.308 232,248.5 234.138,252.777 240,251.89 240,258 240,258 234.5,260 234.5,260 231.755,258.628 228.591,257.046 226.5,256 226.5,256 213.5,255 213.5,255 212.63,254.565 202.521,242.542 202,241.5 201.238,239.976 199.796,233 203,233  Z"/>

<path  fill="#EB57FF" stroke-width="0" stroke="#EB57FF" d = " M284 233 C289.496,233 283.449,239.603 283,240.5 L283,245.5 L272.5,252 L270.5,252 C265.902,254.299 273,253.708 273,254.5 L263.5,255 C261.809,255.846 256.294,262.397 253.5,261 L247,258 C247,258 253,250.5 253,250.5 259.753,236.994 269.355,233 284,233  Z"/>

<path  fill="#00FFFF" stroke-width="0" stroke="#00FFFF" d = " M130 249 L129,250 C129,250 130,249 130,249  Z"/>

<path  fill="#00FFFF" stroke-width="0" stroke="#00FFFF" d = " M120 253 C120,255.162 113.933,255.284 112.5,256 105.219,259.64 80.7193,262.939 87,275.5 88.1335,277.767 93.5032,279 95.5,279 99.0341,279 101.516,270.492 104.5,269 109.291,266.604 117.097,266.202 121.5,264 122.381,263.559 125.133,253 120,253  Z"/>

<path  fill="#00FFFF" stroke-width="0" stroke="#00FFFF" d = " M368 257 C368,262.455 372.304,257 368,257  Z"/>

<path  fill="#B31C35" stroke-width="0" stroke="#B31C35" d = " M220 258 C220,260.143 214.147,260.793 216,264.5 L220.5,267 C222.623,268.061 225.456,271.522 228.5,270 L229,263.5 C229,257.027 226.709,258 220,258  Z"/>

<path  fill="#B31C35" stroke-width="0" stroke="#B31C35" d = " M261 259 L259,268.5 C260.763,272.026 277.126,259 265.5,259 L261,259  Z"/>

<path  fill="#FA8072" stroke-width="0" stroke="#FA8072" d = " M146 292 C146,303.277 155.415,309.331 159,316.5 160.411,319.322 168.937,316.625 170,314.5 L168,309 C160.439,309 155.726,293.048 159,286.5 161.294,281.911 166,279.582 166,274 166,274 167,273 167,273 167,269.295 172,268.507 172,265.5 172,262.306 165.877,262 164,262 154.669,262 146,284.767 146,292  Z"/>

<path  fill="#FA8072" stroke-width="0" stroke="#FA8072" d = " M335 312 L331,315 C328.889,315 328.121,318 327.5,318 327.5,318 325.5,316 325.5,316 323.685,315.092 317.811,315.878 320,311.5 320,311.5 322,309 322,309 322,305.719 326.171,308.157 327,306.5 328.22,304.06 330.956,290.412 330,288.5 327.248,282.996 315,268.607 315,263 315,263 316,262 316,262 316,262 322.5,261 322.5,261 332.3,265.9 334.51,274.52 339,283.5 340.15,285.8 344.438,292.623 343,295.5 341.334,298.833 341.642,303.216 340,306.5 340,306.5 336,311 336,311 336,311 335,312 335,312  Z"/>

<path  fill="#5BF1FF" stroke-width="0" stroke="#5BF1FF" d = " M315 263 C311.952,263 311.296,267.102 309.5,268 306.926,269.287 304.019,269.74 301.5,271 298.404,272.548 301.961,280.73 304.5,282 306.769,283.134 310.248,281.374 311.5,282 L317,288.5 C318.931,292.362 312.67,309 322,309 322,305.719 326.171,308.157 327,306.5 328.22,304.06 330.956,290.412 330,288.5 327.248,282.996 315,268.607 315,263  Z"/>

<path  fill="#5BF1FF" stroke-width="0" stroke="#5BF1FF" d = " M166 274 C166,279.582 161.294,281.911 159,286.5 155.726,293.048 160.439,309 168,309 168,309 170,304.5 170,304.5 171.207,302.086 168.893,298.286 168,296.5 168,296.5 172,287.5 172,287.5 174.046,283.407 180.603,284.294 182,281.5 184.242,277.016 189.692,271.096 183.5,268 176.985,264.742 170.602,273 167,273 167,273 166,274 166,274  Z"/>

<path  fill="#9953FF" stroke-width="0" stroke="#9953FF" d = " M167 273 L166,274 C166,274 167,273 167,273  Z"/>

<path  fill="#46A515" stroke-width="0" stroke="#46A515" d = " M374 276 C374,280.526 368,284.101 368,289.5 368,293.047 370.959,292.418 372,294.5 373.421,297.342 369.958,298.584 369,300.5 365.245,308.01 375.783,310.141 379.5,312 L383,309.5 L385,301.5 C385.897,299.705 390.29,298.08 389,295.5 384.168,285.837 380.812,295.125 378,289.5 376.824,287.147 387.692,276 374,276  Z"/>

<path  fill="#46A515" stroke-width="0" stroke="#46A515" d = " M444 286 L443,290.5 C445.203,294.907 454.143,286 444,286  Z"/>

<path  fill="#46A515" stroke-width="0" stroke="#46A515" d = " M87 296 C87,298.555 74.9548,305.727 83.5,310 84.5319,310.516 89,310.126 89,308.5 89,306.961 83.0281,307.444 85,303.5 85.639,302.222 91.2636,296 87,296  Z"/>

<path  fill="#46A515" stroke-width="0" stroke="#46A515" d = " M104 311 L103,314.5 C105.335,319.169 112.083,311 104,311  Z"/>

<path  fill="#9953FF" stroke-width="0" stroke="#9953FF" d = " M336 311 L335,312 C335,312 336,311 336,311  Z"/>

<path  fill="#46A515" stroke-width="0" stroke="#46A515" d = " M392 319 C392,320.314 386.184,322.842 384.5,322 381.316,320.408 361.237,326.973 365,334.5 366.419,337.338 369.357,337.929 371.5,339 379.785,343.143 394.204,350.093 401,336.5 L400,333.5 L402,329.5 C400.51,326.519 396.213,319 392,319  Z"/>

<path  fill="#9953FF" stroke-width="0" stroke="#9953FF" d = " M191 335 C191,336.93 192.93,335 191,335  Z"/>

<path  fill="#FF3427" stroke-width="0" stroke="#FF3427" d = " M216 340 C221.601,340 225.906,331.703 236.5,337 237.685,337.592 241,338.012 241,340 241,355.18 216,353.784 216,340  Z"/>

<path  fill="#FF3427" stroke-width="0" stroke="#FF3427" d = " M247 340 C250.897,340 255.297,333.399 260.5,336 263.723,337.612 268.229,340 272,340 272,354.326 247,352.622 247,340  Z"/>

</g>
</svg>
