<svg xmlns="http://www.w3.org/2000/svg" xmlns:xlink="http://www.w3.org/1999/xlink" height="512" width="512">
<g>
<rect width="512" height="512" fill="#000000"  stroke-width="0" /> 
<path  fill-rule="evenodd" fill="#FA8072" stroke-width="0" stroke="#FA8072" d = " M329 379 C329,385.073 334.158,379 329,379  M328 351 C328,360.193 325.434,383.368 329,390.5 331.455,395.41 335.136,391.818 337.5,393 L338,397.5 C338.024,397.547 342.793,400.647 343.5,401 347.832,403.166 353.759,395.018 352,391.5 L350,387.5 C350.728,386.045 351.964,382.427 351,380.5 348.727,375.955 340.731,379.962 340,378.5 L340,369.5 C339.3,368.1 337.002,366.503 336,364.5 L336,359.5 L330,359.5 C328.881,357.261 334.02,351 328,351  Z"/>

<path  fill="#FA8072" stroke-width="0" stroke="#FA8072" d = " M158 355 C158,357.259 154.325,360.151 156,363.5 161.005,373.511 178.722,355 158,355  Z"/>

<path  fill="#FA8072" stroke-width="0" stroke="#FA8072" d = " M154 370 L153,373.5 C155.335,378.169 162.083,370 154,370  Z"/>

<path  fill="#FA8072" stroke-width="0" stroke="#FA8072" d = " M142 384 L136.5,389 C134.276,389 130.576,380.348 127,387.5 122.132,397.236 134.934,392 135.5,392 L136,395.5 C137.073,397.645 143.754,408.873 145.5,408 148.317,406.591 146.964,403.572 148,401.5 153.608,390.283 165.828,384 142,384  Z"/>

</g>
</svg>
