<svg xmlns="http://www.w3.org/2000/svg" xmlns:xlink="http://www.w3.org/1999/xlink" height="512" width="512">
<g>
<rect width="512" height="512" fill="#000000"  stroke-width="0" /> 
<path  fill-rule="evenodd" fill="#FFE300" stroke-width="0" stroke="#FFE300" d = " M304 207 C304,208.93 305.93,207 304,207  M298 207 C298,213.254 301.784,207 298,207  M242 147 L244,147 C244,161.556 247.972,174.444 254,186.5 254,186.5 254,197.5 254,197.5 254,207.91 253.524,224.547 258,233.5 263.937,245.374 290.749,252.002 298,237.5 302.794,227.912 290.724,210.052 295,201.5 296.931,197.638 296.098,192.304 298,188.5 304.977,174.546 303.492,167.485 297,154.5 295.898,152.296 294.169,148.335 291.5,147 285.424,143.962 278.207,141.354 271.5,138 271.5,138 256,138 256,138 256,136.235 257.581,137.459 258.5,137 261.076,135.712 265.906,132.203 269.5,134 271.119,134.809 270.971,136 273,136 287.834,136 299.748,147.996 306,160.5 310.858,170.217 311.257,195.986 307,204.5 304.574,209.352 312.354,214.792 311,217.5 309.157,221.185 308.843,226.814 308,228.5 300.687,243.127 294.719,245.39 281.5,252 279.222,253.139 274.362,247.931 272.5,247 269.985,245.743 266.109,247.305 263.5,246 263.5,246 263,243.5 263,243.5 261.809,241.118 260.155,242.827 258.5,242 258.5,242 256.5,239 256.5,239 256.5,239 251,238.5 251,238.5 251,238.5 252,233.5 252,233.5 249.529,228.558 246,230.387 246,224 246,217.685 245,211.261 245,205.5 245,204.242 245.69,199 243.5,199 241.31,199 242,204.242 242,205.5 242,205.5 242,226.5 242,226.5 240.18,230.14 234.947,232.605 234,234.5 231.569,239.362 230.997,242.252 225.5,245 222.985,246.257 219.109,244.695 216.5,246 214.185,247.158 218.362,249.569 215.5,251 213.466,252.017 211.983,251 210.5,251 210.5,251 208.5,253 208.5,253 206.154,254.173 196.432,250.966 194.5,250 193.668,249.584 191.574,242.649 191,241.5 188.266,236.031 181,233.965 181,226.5 181,226.5 181,218.5 181,218.5 181.597,217.305 186.711,217.922 185,214.5 185,214.5 182,211.5 182,211.5 180.614,208.727 183.82,199.14 182,195.5 182,195.5 179,191.5 179,191.5 179,180.326 181.218,164.064 186,154.5 188.429,149.641 189.869,142.815 195.5,140 198.512,138.494 214.945,133.223 218.5,135 220.339,135.92 222.766,135.133 224.5,136 224.5,136 227,139 227,139 227,140.156 224.445,140.472 223.5,140 220.602,138.551 213.158,137.171 209.5,139 203.283,142.108 192.298,146.904 189,153.5 186.664,158.171 187.898,185.296 190,189.5 192.059,193.618 200.719,202.062 198,207.5 196.51,210.481 197.446,214.608 196,217.5 192.898,223.704 187.127,230.755 191,238.5 191,238.5 195.5,247 195.5,247 204.478,251.489 225.574,240.352 230,231.5 232.346,226.809 237.044,212.589 234,206.5 233.019,204.538 231.784,197.932 233,195.5 235.876,189.747 233.148,181.204 236,175.5 236,175.5 240,170.5 240,170.5 243.084,164.332 242,154.372 242,147  Z"/>

<path  fill="#FF8700" stroke-width="0" stroke="#FF8700" d = " M238 142 L242,147 C242,154.372 243.084,164.332 240,170.5 240,170.5 236,175.5 236,175.5 233.148,181.204 235.876,189.747 233,195.5 231.784,197.932 233.019,204.538 234,206.5 237.044,212.589 232.346,226.809 230,231.5 225.574,240.352 204.478,251.489 195.5,247 195.5,247 191,238.5 191,238.5 187.127,230.755 192.898,223.704 196,217.5 197.446,214.608 196.51,210.481 198,207.5 200.719,202.062 192.059,193.618 190,189.5 187.898,185.296 186.664,158.171 189,153.5 192.298,146.904 203.283,142.108 209.5,139 213.158,137.171 220.602,138.551 223.5,140 224.445,140.472 227,140.156 227,139 229.124,139 231.436,140 233,140 233,142.461 236.378,142 238,142  Z"/>

<path  fill="#FFE300" stroke-width="0" stroke="#FFE300" d = " M255 138 L253,140 C254.747,140 255,139.747 255,138  Z"/>

<path  fill="#FF8700" stroke-width="0" stroke="#FF8700" d = " M250 141 C250,142.778 244,143.816 244,147 244,161.556 247.972,174.444 254,186.5 254,186.5 254,197.5 254,197.5 254,207.91 253.524,224.547 258,233.5 263.937,245.374 290.749,252.002 298,237.5 302.794,227.912 290.724,210.052 295,201.5 296.931,197.638 296.098,192.304 298,188.5 304.977,174.546 303.492,167.485 297,154.5 295.898,152.296 294.169,148.335 291.5,147 285.424,143.962 278.207,141.354 271.5,138 271.5,138 256,138 256,138 256,138 255,138 255,138 255,139.747 254.747,140 253,140 253,141.473 251.048,141 250,141  Z"/>

<path  fill="#FFE300" stroke-width="0" stroke="#FFE300" d = " M233 140 C234.622,140 238,139.539 238,142 236.378,142 233,142.461 233,140  Z"/>

<path  fill="#FFE300" stroke-width="0" stroke="#FFE300" d = " M253 140 C251.952,140 250,139.527 250,141 251.048,141 253,141.473 253,140  Z"/>

<path  fill="#30DA00" stroke-width="0" stroke="#30DA00" d = " M402 230 C402,233.069 380.83,237.165 394.5,244 398.23,245.865 409.763,230 402,230  Z"/>

<path  fill="#30DA00" stroke-width="0" stroke="#30DA00" d = " M76 242 C76,243.765 74.4189,242.541 73.5,243 71.7954,243.852 70.034,249.568 71,251.5 71.8622,253.224 76.9246,253.212 78.5,254 82.1717,255.836 84.765,259.132 88.5,261 94.3572,263.929 97.1269,253.754 95,249.5 93.9267,247.353 78.5806,242 76,242  Z"/>

<path  fill="#FA8072" stroke-width="0" stroke="#FA8072" d = " M306 360 L303,366.5 C301.398,369.704 304.517,372.466 303,375.5 302.036,377.427 303.272,381.045 304,382.5 L303,389.5 C305.364,394.229 315.149,395.176 319.5,393 324.455,390.523 324.001,380.502 322,376.5 L323,367.5 C319.944,361.387 316.101,365.3 313.5,364 310.729,362.615 309.438,360 306,360  Z"/>

<path  fill="#FA8072" stroke-width="0" stroke="#FA8072" d = " M176 363 C176,363.373 171.737,366.027 171,367.5 L171,378.5 C169.669,381.162 156.428,381.643 152,390.5 151.064,392.372 153.082,398.291 154.5,399 L161.5,397 L168.5,399 L171.5,394 C173.468,393.016 186.911,395.795 192.5,393 194.874,391.813 195.949,379.398 195,377.5 193.625,374.749 188.827,375.155 188,373.5 183.853,365.206 192.988,363 176,363  Z"/>

<path  fill="#FA8072" stroke-width="0" stroke="#FA8072" d = " M327 383 C327,384.791 323.73,385.959 325,388.5 326.792,392.084 328.425,390 330.5,390 332.241,390 332.891,394.305 335.5,393 344.364,388.568 330.515,383 327,383  Z"/>

</g>
</svg>
