<svg xmlns="http://www.w3.org/2000/svg" xmlns:xlink="http://www.w3.org/1999/xlink" height="512" width="512">
<g>
<rect width="512" height="512" fill="#000000"  stroke-width="0" /> 
<path  fill="#03C12D" stroke-width="0" stroke="#03C12D" d = " M251 252 L255,252 C255,251.297 269.538,243.981 271.5,243 271.5,243 274.5,239 274.5,239 281.486,235.507 286.283,229.609 293.5,226 307.066,219.217 329.178,249 335,249 339.102,249 343.056,252.222 347.5,250 355.161,246.169 367.093,231.313 371,223.5 371,223.5 371,219.5 371,219.5 375.979,209.542 378,196.913 378,185 378,185 380,174.5 380,174.5 377.826,170.152 377.191,164.882 375,160.5 361.259,133.019 337.787,127.644 314.5,116 314.5,116 306.5,115 306.5,115 300.673,112.086 278.063,105.219 270.5,109 264.574,111.963 254.731,113.038 251,120.5 251,120.5 245,127.5 245,127.5 244.042,129.416 246.203,131.648 243.5,133 243.5,133 241,130.5 241,130.5 239.611,127.722 236.689,121.594 233.5,120 229.448,117.974 225.497,115.998 221.5,114 218.361,112.431 213.774,113.637 210.5,112 208.659,111.08 194.387,114.057 192.5,115 192.5,115 188.5,114 188.5,114 183.309,116.595 179.557,115.471 176.5,117 173.585,118.457 171.503,121.499 168.5,123 168.5,123 153.5,126 153.5,126 153.5,126 143.5,131 143.5,131 141.39,132.055 141.688,135.406 140.5,136 140.5,136 135.5,137 135.5,137 135.5,137 130,143.5 130,143.5 130,143.5 121,152.5 121,152.5 115.812,162.877 109,171.942 109,184.5 109,184.5 109,198.5 109,198.5 112.528,205.557 116.45,212.401 120,219.5 123.371,226.241 128.368,243 136.5,243 138.73,243 137.529,246.558 138,247.5 139.441,250.382 142.698,252.599 145.5,254 148.879,255.69 152.161,252 155,252 159.986,252 160.26,244.12 164.5,242 170.124,239.188 186.712,225 191.5,225 202.319,225 208.758,233.629 217.5,238 217.5,238 218.5,241 218.5,241 218.5,241 223.5,241 223.5,241 227.371,242.936 229.553,249 235,249 235,246.785 251,244.173 251,252  Z"/>

<path  fill-rule="evenodd" fill="#FF8700" stroke-width="0" stroke="#FF8700" d = " M197 251 C197,254.255 188.508,252.515 191,257.5 192.579,260.658 207.392,272.717 210,267.5 214.159,259.182 202.663,255.081 198.5,253 L197,251  M242 258 L243,259 C243,265.456 242.628,268.244 240,273.5 240,273.5 241,280.5 241,280.5 236.564,289.373 231.123,299.189 221.5,304 214.133,307.684 208.129,300.314 203.5,298 200.983,296.742 199.264,300 197.5,300 192.448,300 188.046,292.273 183.5,290 171.52,284.01 158.763,279.027 152,265.5 149.579,260.659 155,256.765 155,252 159.986,252 160.26,244.12 164.5,242 170.124,239.188 186.712,225 191.5,225 202.319,225 208.758,233.629 217.5,238 217.5,238 218.5,241 218.5,241 218.5,241 223.5,241 223.5,241 227.371,242.936 229.553,249 235,249 235,249 236,250 236,250 236,253.353 237.26,256 242,256 242,256 242,258 242,258  Z"/>

<path  fill-rule="evenodd" fill="#FF8700" stroke-width="0" stroke="#FF8700" d = " M288 253 C288,253.593 277.868,263.763 277,265.5 274.541,270.417 282.971,270.264 285.5,269 288.128,267.686 287.065,263.718 288.5,263 296.365,259.068 303.884,253 288,253  M255 252 C255,254.844 249.676,254.148 248,257.5 247.321,258.859 247.564,267 246,267 246,274.864 258.292,301.396 265.5,305 265.5,305 268.5,304 268.5,304 269.713,303.393 273.396,306.052 275.5,305 275.5,305 286.5,299 286.5,299 286.5,299 292.5,299 292.5,299 302.411,294.045 311.636,286.932 321.5,282 324.552,280.474 325.442,276.029 327.5,275 331.907,272.797 336.823,269.853 339,265.5 341.487,260.527 335,253.651 335,249 329.178,249 307.066,219.217 293.5,226 286.283,229.609 281.486,235.507 274.5,239 274.5,239 271.5,243 271.5,243 269.538,243.981 255,251.297 255,252  Z"/>

<path  fill="#E1F00D" stroke-width="0" stroke="#E1F00D" d = " M236 250 C238.473,250 242,253.527 242,256 237.26,256 236,253.353 236,250  Z"/>

<path  fill="#FF4FCE" stroke-width="0" stroke="#FF4FCE" d = " M197 251 C197,254.255 188.508,252.515 191,257.5 192.579,260.658 207.392,272.717 210,267.5 214.159,259.182 202.663,255.081 198.5,253 L197,251  Z"/>

<path  fill="#E1F00D" stroke-width="0" stroke="#E1F00D" d = " M255 252 C255,254.844 249.676,254.148 248,257.5 247.321,258.859 247.564,267 246,267 246,262.923 242.73,252 251,252 251,252 255,252 255,252  Z"/>

<path  fill="#FF4FCE" stroke-width="0" stroke="#FF4FCE" d = " M288 253 C288,253.593 277.868,263.763 277,265.5 274.541,270.417 282.971,270.264 285.5,269 288.128,267.686 287.065,263.718 288.5,263 296.365,259.068 303.884,253 288,253  Z"/>

<path  fill="#E1F00D" stroke-width="0" stroke="#E1F00D" d = " M242 258 L243,259 C243,259 242,258 242,258  Z"/>

<path  fill="#30DA00" stroke-width="0" stroke="#30DA00" d = " M224 307 C224,307.834 219,310.439 219,313.5 219,315.628 222.547,315.524 223.5,316 228.214,318.357 232.912,319.677 236,313.5 236.597,312.305 231.19,307 230.5,307 L224,307  Z"/>

<path  fill="#30DA00" stroke-width="0" stroke="#30DA00" d = " M264 308 C264,309.72 254.41,310.321 257,315.5 263.931,329.362 291.698,308 264,308  Z"/>

<path  fill="#FA8072" stroke-width="0" stroke="#FA8072" d = " M184 311 C184,313.301 182.08,318.661 183,320.5 184.754,324.008 199.646,318.573 190.5,314 L186.5,313 L184,311  Z"/>

<path  fill="#FA8072" stroke-width="0" stroke="#FA8072" d = " M306 312 C306,313.564 305,315.876 305,318 305,320.113 305.141,320.782 306,322.5 L305,325.5 C308.579,332.658 314.616,312 306,312  Z"/>

<path  fill="#FA8072" stroke-width="0" stroke="#FA8072" d = " M286 368 C286,368.974 281.781,370.937 281,372.5 278.855,376.79 283.712,384.076 282,387.5 281.338,388.824 280.103,391.706 281,393.5 283.634,398.768 295.971,401.264 300.5,399 L303.5,390 C309.619,386.941 308.017,398.742 315.5,395 320.022,392.739 316.101,375.801 312.5,374 306.823,371.162 305.15,379 302.5,379 L302,375.5 L298.5,372 C295.435,370.467 289.473,368 286,368  Z"/>

<path  fill="#FA8072" stroke-width="0" stroke="#FA8072" d = " M197 373 C197,379.658 176.988,379.524 173,387.5 171.793,389.914 173.2,394.85 175.5,396 177.434,396.967 188.422,393 190.5,393 L195.5,398 C197.597,399.049 201.593,396.547 204.5,398 206.016,398.758 207.239,406.131 211.5,404 223.337,398.081 210.261,391.977 211,390.5 L216,386.5 L216,379.5 C216,368.273 206.635,377.068 202.5,375 200.416,373.958 199.592,373 197,373  Z"/>

</g>
</svg>
