<svg xmlns="http://www.w3.org/2000/svg" xmlns:xlink="http://www.w3.org/1999/xlink" height="512" width="512">
<g>
<rect width="512" height="512" fill="#000000"  stroke-width="0" /> 
<path  fill-rule="evenodd" fill="#FFE300" stroke-width="0" stroke="#FFE300" d = " M244 188 L243,189.5 C240.137,195.226 251.485,188 244,188  M208 265 C209.633,265 216.978,266.261 219.5,265 222.134,263.683 221.117,261.192 223.5,260 227.891,257.805 236.238,258.025 239,252.5 241.334,247.833 240.591,236.317 241,235.5 241.414,234.672 242.197,230 243.5,230 246.569,230 244.219,238.937 245,240.5 246.056,242.612 244.997,245.495 246,247.5 L250,252.5 L255.5,255 L265.5,263 L269.5,263 L274.5,269 C275.448,269.474 283,265.007 283,265 278.3,265 274.509,260.004 270.5,258 267.296,256.398 263.725,254.613 260.5,253 254.858,250.179 256.164,242.829 254,238.5 246.079,222.658 254,200.74 254,183.5 254,174.262 249,165.763 249,156 247.357,156 248,159.765 248,161 248,163.246 247.533,178.016 243.5,176 239.746,174.123 245.076,161.652 243,157.5 230.841,133.182 217.12,133.69 194.5,145 185.123,149.689 178.641,173.217 174,182.5 171.656,187.188 174.116,200.732 176,204.5 177.801,208.103 174.491,230 181,230 181.884,230 181.15,225.2 182,223.5 183.009,221.482 184.592,206.685 184,205.5 184,205.5 182,203.5 182,203.5 182,199.442 182.129,195.759 180,191.5 180,191.5 181,187.5 181,187.5 181,170.416 184.063,166.375 191,152.5 196.643,141.214 220.302,138.401 231.5,144 235.358,145.929 237.413,151.326 239,154.5 243.133,162.765 235,172.826 235,180.5 235,183.63 237,186.788 237,189.5 237,210.19 236.42,230.66 227,249.5 227,249.5 227,253.5 227,253.5 227,253.5 215.5,263 215.5,263 213.704,263.898 208,261.342 208,265  Z"/>

<path  fill="#FFE300" stroke-width="0" stroke="#FFE300" d = " M257 143 C265.568,143 277.196,138.848 285.5,143 289.311,144.905 307,157.787 307,162.5 307,164.091 307.807,168.115 309,170.5 L309,178.5 C312.091,184.682 310.939,193.622 308,199.5 307.042,201.415 308.844,209.812 307,213.5 304.777,217.946 309,223.559 309,227 312.499,227 315,205.833 315,201.5 315,191.862 317.401,176.301 313,167.5 313,167.5 307,161.5 307,161.5 305.572,158.644 304.873,151.687 301.5,150 298.99,148.745 290.785,146.285 288.5,144 282.392,137.892 273.624,140 266,140 263.556,140 257,139.087 257,143  Z"/>

<path  fill="#FF8700" stroke-width="0" stroke="#FF8700" d = " M289 262 C289,263.89 284.402,265 283,265 278.3,265 274.509,260.004 270.5,258 267.296,256.398 263.725,254.613 260.5,253 254.858,250.179 256.164,242.829 254,238.5 246.079,222.658 254,200.74 254,183.5 254,174.262 249,165.763 249,156 249,156 249,155 249,155 249,155 251,153 251,153 251,153 252,148 252,148 253.238,148 255,147.577 255,146 255,144.519 257,145.215 257,143 265.568,143 277.196,138.848 285.5,143 289.311,144.905 307,157.787 307,162.5 307,164.091 307.807,168.115 309,170.5 309,170.5 309,178.5 309,178.5 312.091,184.682 310.939,193.622 308,199.5 307.042,201.415 308.844,209.812 307,213.5 304.777,217.946 309,223.559 309,227 309,231.493 306.026,241.449 304,245.5 302.539,248.421 298,251.629 298,255 295.681,255 292,257.595 292,260 292,260 291,261 291,261 291,261 289,262 289,262  Z"/>

<path  fill="#FF8700" stroke-width="0" stroke="#FF8700" d = " M206 265 L208,265 C208,261.342 213.704,263.898 215.5,263 215.5,263 227,253.5 227,253.5 227,253.5 227,249.5 227,249.5 236.42,230.66 237,210.19 237,189.5 237,186.788 235,183.63 235,180.5 235,172.826 243.133,162.765 239,154.5 237.413,151.326 235.358,145.929 231.5,144 220.302,138.401 196.643,141.214 191,152.5 184.063,166.375 181,170.416 181,187.5 181,187.5 180,191.5 180,191.5 182.129,195.759 182,199.442 182,203.5 182,203.5 184,205.5 184,205.5 184.592,206.685 183.009,221.482 182,223.5 181.15,225.2 181.884,230 181,230 181,234.664 187.737,248.975 190,253.5 191.012,255.524 194,253.846 194,257 196.061,257 198,257.902 198,260 198,260 199,260 199,260 201.041,260 202,260.959 202,263 202,263 205,265 205,265 205,265 206,265 206,265  Z"/>

<path  fill="#FFE300" stroke-width="0" stroke="#FFE300" d = " M255 146 C253.762,146 252,146.423 252,148 253.238,148 255,147.577 255,146  Z"/>

<path  fill="#FFE300" stroke-width="0" stroke="#FFE300" d = " M251 153 C249.253,153 249,153.253 249,155 249,155 251,153 251,153  Z"/>

<path  fill="#FFE300" stroke-width="0" stroke="#FFE300" d = " M298 255 C295.681,255 292,257.595 292,260 294.327,260 298,257.695 298,255  Z"/>

<path  fill="#30DA00" stroke-width="0" stroke="#30DA00" d = " M381 255 L376.5,258 L370.5,260 C367.812,261.344 364.441,270.97 368.5,273 369.995,273.748 371.453,272.523 372.5,272 375.015,270.743 378.891,272.305 381.5,271 390.172,266.664 393.575,255 381,255  Z"/>

<path  fill="#FFE300" stroke-width="0" stroke="#FFE300" d = " M194 257 C196.061,257 198,257.902 198,260 195.657,260 194,259.715 194,257  Z"/>

<path  fill="#FFE300" stroke-width="0" stroke="#FFE300" d = " M199 260 C201.041,260 202,260.959 202,263 199.959,263 199,262.041 199,260  Z"/>

<path  fill="#FFE300" stroke-width="0" stroke="#FFE300" d = " M292 260 L291,261 C291,261 292,260 292,260  Z"/>

<path  fill="#FFE300" stroke-width="0" stroke="#FFE300" d = " M291 261 L289,262 C289,262 291,261 291,261  Z"/>

<path  fill="#FFE300" stroke-width="0" stroke="#FFE300" d = " M205 265 L206,265 C206,266.186 205,266.186 205,265  Z"/>

<path  fill="#30DA00" stroke-width="0" stroke="#30DA00" d = " M107 267 C107,269.702 101.85,271.2 105,277.5 106.888,281.276 130.08,292.34 133,286.5 133.748,285.005 132.523,283.547 132,282.5 126.531,271.562 120.013,267 107,267  Z"/>

<path  fill="#FA8072" stroke-width="0" stroke="#FA8072" d = " M298 364 C298,366.41 290.851,367.799 290,369.5 288.674,372.152 290.766,376.968 290,378.5 289.879,378.742 283.96,379.58 282,383.5 L284.5,388 C286.023,389.523 286.918,388.209 288.5,389 290.041,389.77 291.781,394.64 294.5,396 298.091,397.796 300.005,391 302.5,391 304.199,391 302.044,393.412 302,393.5 301.231,395.038 303.242,397.371 304.5,398 306.405,398.953 307.217,396.642 308.5,396 312.995,393.752 316.871,396.315 321.5,394 324.609,392.446 323.179,380.857 322,378.5 320.454,375.409 317.662,377.162 316,375.5 L312.5,371 L309,370.5 C305.831,364.162 306.646,364 298,364  Z"/>

<path  fill="#FA8072" stroke-width="0" stroke="#FA8072" d = " M190 367 C190,370.77 174.347,381.805 171,388.5 L166.5,390 C160.569,392.966 166.853,399.177 170.5,401 174.88,403.19 174.524,392 176.5,392 L179.5,396 C183.965,398.232 192.604,397.448 197.5,395 201.441,393.029 198.629,390.242 200,387.5 L206,383.5 C207.649,380.202 200.537,381.573 200,380.5 198.27,377.04 202.158,371.329 197.5,369 195.673,368.086 193.645,369.573 192.5,369 L190,367  Z"/>

<path  fill="#FA8072" stroke-width="0" stroke="#FA8072" d = " M326 388 C326,389.423 324.022,391.544 325,393.5 328.647,400.795 339.219,388 326,388  Z"/>

</g>
</svg>
