<svg xmlns="http://www.w3.org/2000/svg" xmlns:xlink="http://www.w3.org/1999/xlink" height="512" width="512">
<g>
<rect width="512" height="512" fill="#000000"  stroke-width="0" /> 
<path  fill="#FFE300" stroke-width="0" stroke="#FFE300" d = " M256 138 L272.5,138 C278.958,141.229 285.675,144.088 291.5,147 294.169,148.335 295.898,152.296 297,154.5 L302,161.5 C305.578,168.655 300.168,187.165 297,193.5 295.863,195.775 297.192,199.117 296,201.5 293.416,206.667 297.941,226.383 300,230.5 301.839,234.179 298,237.973 298,241 303.764,241 312.58,216.661 311,213.5 311,213.5 308,210.5 308,210.5 306.555,207.611 308.861,200.778 310,198.5 310.281,197.937 309.864,169.228 309,167.5 304.154,157.809 299.456,149.956 291.5,142 287.916,138.416 271.449,134 266,134 264.056,134 256,136.515 256,138  Z"/>

<path  fill-rule="evenodd" fill="#FFE300" stroke-width="0" stroke="#FFE300" d = " M189 204 L188,205.5 C186.139,209.222 194.775,204 189,204  M228 139 L224.5,136 C220.595,134.048 205.114,135.193 201.5,137 195.66,139.92 189.157,144.186 186,150.5 183.768,154.964 178.158,181.815 180,185.5 L179,192.5 L182,196.5 C183.81,200.121 180,207.208 180,208.5 180,210.454 184.412,214.676 184,215.5 L181,218.5 C177.538,225.424 184.035,237.268 189.5,240 L192,244 C192,237.85 186.811,231.878 190,225.5 192.668,220.163 200.659,209.817 197,202.5 194.735,197.97 191.328,194.156 189,189.5 187.362,186.223 187.403,156.693 189,153.5 189,153.5 193,150.5 193,150.5 197.63,141.24 199.209,145.646 206.5,142 206.5,142 208.5,139 208.5,139 212.527,136.987 220.23,138.365 223.5,140 224.508,140.504 228,140.22 228,139  Z"/>

<path  fill="#FF8700" stroke-width="0" stroke="#FF8700" d = " M192 244 L194,246 C196.928,246 202.275,250.112 208.5,247 214.487,244.006 220.415,241.043 226.5,238 229.957,236.271 229.593,230.314 231,227.5 236.635,216.231 229.79,201.92 234,193.5 234,193.5 234,186.5 234,186.5 236.674,181.151 245.232,155.964 242,149.5 242,149.5 237.5,142 237.5,142 236.13,141.315 233,142.871 233,140 233,140 228,139 228,139 228,140.22 224.508,140.504 223.5,140 220.23,138.365 212.527,136.987 208.5,139 208.5,139 206.5,142 206.5,142 199.209,145.646 197.63,141.24 193,150.5 193,150.5 189,153.5 189,153.5 187.403,156.693 187.362,186.223 189,189.5 191.328,194.156 194.735,197.97 197,202.5 200.659,209.817 192.668,220.163 190,225.5 186.811,231.878 192,237.85 192,244  Z"/>

<path  fill="#FFE300" stroke-width="0" stroke="#FFE300" d = " M255 138 L253,140 C254.747,140 255,139.747 255,138  Z"/>

<path  fill="#FF8700" stroke-width="0" stroke="#FF8700" d = " M297 244 C297,246.641 295.177,246 293,246 288.327,246 278.013,243.744 275.5,245 271.102,247.199 264.996,239.248 262.5,238 247.939,230.719 259.179,203.857 253,191.5 253,191.5 254,186.5 254,186.5 248.016,174.533 244,161.442 244,147 245.689,147 247.982,141 251,141 251,141 252,140 252,140 252,140 253,140 253,140 254.747,140 255,139.747 255,138 255,138 256,138 256,138 256,138 272.5,138 272.5,138 278.958,141.229 285.675,144.088 291.5,147 294.169,148.335 295.898,152.296 297,154.5 297,154.5 302,161.5 302,161.5 305.578,168.655 300.168,187.165 297,193.5 295.863,195.775 297.192,199.117 296,201.5 293.416,206.667 297.941,226.383 300,230.5 301.839,234.179 298,237.973 298,241 296.527,241 297,242.952 297,244  Z"/>

<path  fill="#FFE300" stroke-width="0" stroke="#FFE300" d = " M194 246 L193,249.5 L197.5,250 C200.466,251.483 205.286,255.107 209.5,253 L216.5,251 L219.5,245 C223.543,242.978 230.297,245.905 233,240.5 L234,235.5 L240,232.5 C243.267,225.966 242,216.813 242,209 L242.5,201 C245.685,199.407 245.163,207.827 246,209.5 L246,229.5 L251,233.5 L250,237.5 C251.257,240.014 258.239,240.869 260.5,242 262.883,243.192 261.866,245.683 264.5,247 L271.5,247 L279,252 C282.791,252 293,251.679 293,246 288.327,246 278.013,243.744 275.5,245 271.102,247.199 264.996,239.248 262.5,238 247.939,230.719 259.179,203.857 253,191.5 253,191.5 254,186.5 254,186.5 248.016,174.533 244,161.442 244,147 239.859,147 240.584,140 233,140 233,142.871 236.13,141.315 237.5,142 237.5,142 242,149.5 242,149.5 245.232,155.964 236.674,181.151 234,186.5 234,186.5 234,193.5 234,193.5 229.79,201.92 236.635,216.231 231,227.5 229.593,230.314 229.957,236.271 226.5,238 220.415,241.043 214.487,244.006 208.5,247 202.275,250.112 196.928,246 194,246  Z"/>

<path  fill="#FFE300" stroke-width="0" stroke="#FFE300" d = " M252 140 L251,141 C251,141 252,140 252,140  Z"/>

<path  fill="#30DA00" stroke-width="0" stroke="#30DA00" d = " M402 230 C402,234.731 386.799,232.097 391,240.5 L392.5,245 C398.098,247.799 412.036,230 402,230  Z"/>

<path  fill="#FFE300" stroke-width="0" stroke="#FFE300" d = " M298 241 C296.527,241 297,242.952 297,244 298.473,244 298,242.048 298,241  Z"/>

<path  fill="#30DA00" stroke-width="0" stroke="#30DA00" d = " M73 243 C73,245.412 69.5128,248.526 71,251.5 71.3582,252.216 92.3702,262.065 94.5,261 97.6474,259.426 96.5093,249.505 93.5,248 87.2509,244.875 80.58,243 73,243  Z"/>

<path  fill="#FA8072" stroke-width="0" stroke="#FA8072" d = " M306 360 L303,366.5 C301.473,369.554 304.264,372.972 303,375.5 302.036,377.427 303.272,381.045 304,382.5 L303,389.5 C305.955,395.41 316.512,394.494 321.5,392 324.619,390.44 323.195,378.889 322,376.5 L323,367.5 C321.98,365.461 307.631,360 306,360  Z"/>

<path  fill="#FA8072" stroke-width="0" stroke="#FA8072" d = " M180 363 C180,364.245 173.267,363.967 172,366.5 170.284,369.931 172.664,375.171 171,378.5 L165.5,381 C161.848,384.652 148.095,385.691 153,395.5 153.659,396.818 152.581,398.04 154.5,399 L162.5,397 L168.5,399 L171.5,394 C175.272,392.114 190.852,398.796 195,390.5 195.897,388.706 194.662,385.824 194,384.5 L195,377.5 C193.575,374.65 188.696,374.893 188,373.5 185.261,368.022 191.623,363 180,363  Z"/>

<path  fill="#FA8072" stroke-width="0" stroke="#FA8072" d = " M298 379 C298,389.241 304.444,379 298,379  Z"/>

<path  fill="#FA8072" stroke-width="0" stroke="#FA8072" d = " M327 383 C327,384.791 323.73,385.959 325,388.5 326.561,391.622 329.027,389.264 330.5,390 L333.5,393 C337.473,394.986 339.721,387.111 335.5,385 L331.5,385 C329.4,383.95 329.606,383 327,383  Z"/>

</g>
</svg>
