<svg xmlns="http://www.w3.org/2000/svg" xmlns:xlink="http://www.w3.org/1999/xlink" height="512" width="512">
<g>
<rect width="512" height="512" fill="#000000"  stroke-width="0" /> 
<path  fill="#FA8072" stroke-width="0" stroke="#FA8072" d = " M209 255 C209,259.474 199.85,257.825 197.5,259 189.464,263.018 177.722,264.056 173,273.5 169.101,281.299 165.522,291.545 170,300.5 L174.5,306 C175.546,306.523 178,305.049 178,307 178,310.333 175.665,310.083 173.5,309 165.876,305.188 158.886,289.729 163,281.5 169.581,268.338 179.381,259.56 192.5,253 194.991,251.755 209,250.981 209,255  Z"/>

<path  fill-rule="evenodd" fill="#86FF5A" stroke-width="0" stroke="#86FF5A" d = " M233 288 C233,290.091 236.746,288 233,288  M286 333 C282.83,333 273.539,336.48 270.5,338 267.857,339.321 259.655,338.078 257.5,337 L256,334 C256,329.783 248,327.741 248,324 248,319.119 252.418,300 244.5,300 244.5,300 244,303.5 244,303.5 244,303.5 242,304.5 242,304.5 242,304.5 242,324 242,324 242,326.956 235,328.258 235,334 235,334 228.5,336 228.5,336 226.706,336.897 223.824,335.662 222.5,335 222.5,335 209.5,335 209.5,335 209.5,335 191.5,326 191.5,326 188.627,324.564 183,316.312 183,313.5 183,311.324 188.988,308.244 184.5,306 182.339,304.919 179.606,307 178,307 178,305.049 175.546,306.523 174.5,306 174.5,306 170,300.5 170,300.5 165.522,291.545 169.101,281.299 173,273.5 177.722,264.056 189.464,263.018 197.5,259 199.85,257.825 209,259.474 209,255 213.278,255 220.535,253.018 224.5,255 225.125,255.313 229.687,258.875 230,259.5 230,259.5 230.5,263 230.5,263 232.087,263.794 236.996,258.748 239.5,260 242,261.25 256.275,263.113 258.5,262 262.079,260.211 265.04,257.73 268.5,256 271.477,254.511 276.546,257 279,257 279,257 282.5,260 282.5,260 282.5,260 289.5,259 289.5,259 289.5,259 296,262 296,262 296,262 297,262 297,262 307.917,262 326.78,283.941 321,295.5 318.484,300.532 317.666,302.834 313.5,307 312.981,307.519 305.946,313 309,313 309,313 306.5,316 306.5,316 306.5,316 298.5,326 298.5,326 296.626,326.937 292.145,326.21 291,328.5 291,328.5 292,331.5 292,331.5 292,331.5 287,332 287,332 287,332 286,333 286,333  M251 279 L253,281 C255.498,281 254,285.042 254,286.5 254,290.139 247.99,297.245 243.5,295 241.074,293.787 233.309,284.882 234,283.5 235.676,280.148 241,281.706 241,278 241,276.762 241.423,275 243,275 243,275 245.5,274 245.5,274 245.5,274 248.5,278 248.5,278 249.419,278.459 251,277.235 251,279  Z"/>

<path  fill="#FA8072" stroke-width="0" stroke="#FA8072" d = " M297 262 C307.917,262 326.78,283.941 321,295.5 318.484,300.532 317.666,302.834 313.5,307 312.981,307.519 305.946,313 309,313 313.459,313 317.911,306.589 320.5,304 322.406,302.094 325.751,298.998 327,296.5 327.897,294.706 326.662,291.824 326,290.5 326,290.5 326,283.5 326,283.5 320.402,272.305 312.769,262.635 301.5,257 298.394,255.447 279,252.333 279,257 279,257 282.5,260 282.5,260 282.5,260 289.5,259 289.5,259 289.5,259 296,262 296,262 296,260.814 297,260.814 297,262  Z"/>

<path  fill-rule="evenodd" fill="#EB57FF" stroke-width="0" stroke="#EB57FF" d = " M244 290 C244,294.123 248.123,290 244,290  M251 279 C251,280.747 251.253,281 253,281 255.498,281 254,285.042 254,286.5 254,290.139 247.99,297.245 243.5,295 241.074,293.787 233.309,284.882 234,283.5 235.676,280.148 241,281.706 241,278 242.577,278 243,276.238 243,275 243,275 245.5,274 245.5,274 245.5,274 248.5,278 248.5,278 249.419,278.459 251,277.235 251,279  Z"/>

<path  fill="#7209D4" stroke-width="0" stroke="#7209D4" d = " M233 288 C233,290.091 236.746,288 233,288  Z"/>

<path  fill="#27F4FD" stroke-width="0" stroke="#27F4FD" d = " M244 290 C244,294.123 248.123,290 244,290  Z"/>

<path  fill="#7209D4" stroke-width="0" stroke="#7209D4" d = " M242 324 C244.72,324 245.553,324 248,324 248,319.119 252.418,300 244.5,300 244.5,300 244,303.5 244,303.5 244,303.5 242,304.5 242,304.5 242,304.5 242,324 242,324  Z"/>

<path  fill="#FF3427" stroke-width="0" stroke="#FF3427" d = " M235 334 C239.79,334 240.204,332.092 242,328.5 L244.5,327 C245.784,327.642 245.494,332.997 247.5,334 250.52,335.51 253.194,334 256,334 256,329.783 248,327.741 248,324 245.553,324 244.72,324 242,324 242,326.956 235,328.258 235,334  Z"/>

<path  fill="#9953FF" stroke-width="0" stroke="#9953FF" d = " M287 332 L286,333 C286,333 287,332 287,332  Z"/>

</g>
</svg>
