<svg xmlns="http://www.w3.org/2000/svg" xmlns:xlink="http://www.w3.org/1999/xlink" height="512" width="512">
<g>
<rect width="512" height="512" fill="#000000"  stroke-width="0" /> 
<path  fill-rule="evenodd" fill="#86FF5A" stroke-width="0" stroke="#86FF5A" d = " M239 315 C239,316.602 235.942,317.384 237,319.5 239.483,324.465 252,325.951 252,318.5 252,315.941 240.719,315 239,315  M228 284 C228,285.579 225.145,285 224,285 219.054,285 214.559,284.97 210.5,287 205.685,289.408 195.844,290.813 193,296.5 191.361,299.778 191.677,304.146 190,307.5 188.43,310.64 190.771,318.041 192,320.5 194.474,325.449 191.475,333.45 194,338.5 196.233,342.966 199.673,344.846 202,349.5 207.053,359.606 212.514,360.507 221.5,365 L225.5,365 C227.337,365.918 233.192,367.154 235.5,366 L243.5,358 C245.324,358 248.185,365.843 250.5,367 L265.5,366 C277.902,359.799 289.507,350.487 296,337.5 298.127,333.247 295.923,326.655 298,322.5 303.305,311.889 298.857,300.357 291,292.5 287.103,288.603 280.244,287.372 275.5,285 L264.5,285 C259.755,282.627 250.903,285.798 246.5,288 245.945,288.277 230.521,284 228,284  Z"/>

<path  fill-rule="evenodd" fill="#EB57FF" stroke-width="0" stroke="#EB57FF" d = " M244 319 C244,325.072 248.238,319 244,319  M239 315 C239,316.602 235.942,317.384 237,319.5 239.483,324.465 252,325.951 252,318.5 252,315.941 240.719,315 239,315  Z"/>

<path  fill="#27F4FD" stroke-width="0" stroke="#27F4FD" d = " M244 319 C244,325.072 248.238,319 244,319  Z"/>

</g>
</svg>
