<svg xmlns="http://www.w3.org/2000/svg" xmlns:xlink="http://www.w3.org/1999/xlink" height="512" width="512">
<g>
<rect width="512" height="512" fill="#000000"  stroke-width="0" /> 
<path  fill="#03C12D" stroke-width="0" stroke="#03C12D" d = " M343 259 C347.777,259 347.41,257.545 350.5,256 352.535,254.982 354.823,257.339 357.5,256 L360.5,252 C377.464,243.518 384,210.442 384,192 384,184.067 385.349,172.198 382,165.5 368.058,137.616 349.257,130.378 324.5,118 321.223,116.361 316.728,116.614 313.5,115 308.141,112.32 287.888,102.306 280.5,106 273.782,109.359 264.064,108.718 255.5,113 252.523,114.489 242.997,128 242.5,128 L233.5,118 C226.523,114.512 219.725,114.112 213.5,111 209.767,109.134 189.784,113.358 186.5,115 181.725,117.388 166.148,118.676 159.5,122 153.638,124.931 147.302,127.099 141.5,130 L126.5,140 C124.789,140.856 115.18,156.14 114,158.5 L108,164.5 C106.218,168.064 104.822,171.856 103,175.5 L103,190.5 C103,207.452 108.953,223.406 116,237.5 117.581,240.662 122.28,239.059 124,242.5 128.029,250.558 131.371,258.436 140.5,263 142.776,264.138 147.223,260 150,260 150,260 162.5,248 162.5,248 167.23,245.635 170.668,240.416 175.5,238 181.535,234.982 188.407,233.047 194.5,230 202.126,226.187 209.17,244 215,244 222.115,244 232.931,252 239,252 239,244.511 249,250.244 249,253 249,253 264,252 264,252 264,252 266,251 266,251 275.706,251 287.26,231 293,231 293,228.798 298,228.021 298,230 298.574,230 326.331,243.831 327,244.5 329.437,246.937 340.956,259 343,259  Z"/>

<path  fill-rule="evenodd" fill="#FF8700" stroke-width="0" stroke="#FF8700" d = " M197 258 C197,261.024 188.468,258.435 191,263.5 192.369,266.237 194.555,267.028 196.5,268 L199.5,272 C201.992,273.246 211.573,269.646 210,266.5 207.436,261.371 203.347,258 197,258  M150 260 C150,263.163 145,265.99 145,269.5 145,272.665 151.258,281.379 154.5,283 157.606,284.553 161.375,285.437 164.5,287 L168.5,291 C170.782,292.141 174.218,291.859 176.5,293 183.018,296.259 188.047,301.773 194.5,305 197.905,306.702 204.02,302.76 206.5,304 208.995,305.247 215.271,309.614 218.5,308 227.072,303.714 240,295.432 240,284 240,279.847 237.445,278.39 236,275.5 235.16,273.82 239.118,272.736 238,270.5 238,270.5 234,265.5 234,265.5 234,265.5 234,260.5 234,260.5 232.495,257.49 215,248.918 215,244 209.17,244 202.126,226.187 194.5,230 188.407,233.047 181.535,234.982 175.5,238 170.668,240.416 167.23,245.635 162.5,248 162.5,248 150,260 150,260  Z"/>

<path  fill-rule="evenodd" fill="#FF8700" stroke-width="0" stroke="#FF8700" d = " M291 257 C291,258.951 288.546,257.477 287.5,258 284.436,259.532 273.98,269.74 280.5,273 287.673,276.587 287.198,270.651 290.5,269 292.255,268.123 295.889,268.721 297,266.5 299.255,261.99 296.15,257 291,257  M343 259 L345,268.5 C341.135,276.23 326.686,283.407 319.5,287 311.205,291.147 304.845,298.828 296.5,303 290.83,305.835 283.324,305.088 277.5,308 268.763,312.369 253,298.124 253,290 253,290 255,288.5 255,288.5 255,288.5 253,284.5 253,284.5 253,284.5 256,275.5 256,275.5 256,275.5 256,270.5 256,270.5 257.727,267.046 264,255.19 264,252 264,252 266,251 266,251 275.706,251 287.26,231 293,231 293,231 298,230 298,230 298.574,230 326.331,243.831 327,244.5 329.437,246.937 340.956,259 343,259  Z"/>

<path  fill="#E1F00D" stroke-width="0" stroke="#E1F00D" d = " M240 284 L243.5,281 C247.178,281 248.234,290 253,290 253,290 255,288.5 255,288.5 255,288.5 253,284.5 253,284.5 253,284.5 256,275.5 256,275.5 256,275.5 256,270.5 256,270.5 257.727,267.046 264,255.19 264,252 264,252 249,253 249,253 243.869,253 246.191,259.691 240.5,254 240.5,254 239,252 239,252 232.931,252 222.115,244 215,244 215,248.918 232.495,257.49 234,260.5 234,260.5 234,265.5 234,265.5 234,265.5 238,270.5 238,270.5 239.118,272.736 235.16,273.82 236,275.5 237.445,278.39 240,279.847 240,284  Z"/>

<path  fill="#E1F00D" stroke-width="0" stroke="#E1F00D" d = " M266 251 L264,252 C264,252 266,251 266,251  Z"/>

<path  fill="#FF4FCE" stroke-width="0" stroke="#FF4FCE" d = " M291 257 C291,258.951 288.546,257.477 287.5,258 284.436,259.532 273.98,269.74 280.5,273 287.673,276.587 287.198,270.651 290.5,269 292.255,268.123 295.889,268.721 297,266.5 299.255,261.99 296.15,257 291,257  Z"/>

<path  fill="#FF4FCE" stroke-width="0" stroke="#FF4FCE" d = " M197 258 C197,261.024 188.468,258.435 191,263.5 192.369,266.237 194.555,267.028 196.5,268 L199.5,272 C201.992,273.246 211.573,269.646 210,266.5 207.436,261.371 203.347,258 197,258  Z"/>

<path  fill="#30DA00" stroke-width="0" stroke="#30DA00" d = " M227 309 C227,311.909 217.998,312.496 221,318.5 223.718,323.936 249.204,318.352 232.5,310 230.559,309.029 229.378,309 227,309  Z"/>

<path  fill="#30DA00" stroke-width="0" stroke="#30DA00" d = " M260 310 C260,313.066 253.924,315.348 256,319.5 262.351,332.202 283.82,310 266,310 263.848,310 261.929,310 260,310  Z"/>

<path  fill="#FA8072" stroke-width="0" stroke="#FA8072" d = " M184 318 C184,319.606 181.919,322.339 183,324.5 188.961,336.422 198.505,312.998 188.5,318 185.851,319.324 186.448,318 184,318  Z"/>

<path  fill="#FA8072" stroke-width="0" stroke="#FA8072" d = " M306 318 C306,321.188 303,323.636 303,327 303,330.558 305.639,332.569 308.5,334 L311.5,339 C315.219,340.859 315,333.517 315,331.5 315,325.717 315.423,318 306,318  Z"/>

<path  fill="#FA8072" stroke-width="0" stroke="#FA8072" d = " M286 366 C286,366.974 281.781,368.937 281,370.5 279.919,372.661 282,375.394 282,377 282,379.701 279.919,391.339 281,393.5 283.187,397.873 298.254,399.123 300.5,398 303.829,396.335 300.281,390.11 304.5,388 308.904,385.798 312.255,398.99 317,389.5 319.663,384.173 314.869,374.185 310.5,372 308.274,370.887 302.305,377.111 302,376.5 299.98,372.459 290.83,366 286,366  Z"/>

<path  fill="#FA8072" stroke-width="0" stroke="#FA8072" d = " M209 372 C209,375.628 198.932,372.284 197.5,373 L190.5,378 C187.064,379.718 183.661,376.419 180.5,378 176.51,379.995 171.988,388.477 174,392.5 177.48,399.46 189.594,390.547 190.5,391 192.409,391.954 194.118,397.309 195.5,398 L205.5,399 C208.374,400.437 209.023,404.238 213.5,402 220.323,398.588 213,392.458 213,390.5 L216,387.5 C218.968,381.563 215.431,372 209,372  Z"/>

</g>
</svg>
