<svg xmlns="http://www.w3.org/2000/svg" xmlns:xlink="http://www.w3.org/1999/xlink" height="512" width="512">
<g>
<rect width="512" height="512" fill="#000000"  stroke-width="0" /> 
<path  fill="#FA8072" stroke-width="0" stroke="#FA8072" d = " M209 255 C209,256.731 202.817,258.341 201.5,259 194.331,262.584 180.448,261.603 176,270.5 L170,279.5 C166.408,286.683 167.768,306 179,306 179,317.034 165.1,300.7 164,298.5 160.252,291.004 163.568,282.365 167,275.5 172.913,263.675 185.105,258.198 195.5,253 197.585,251.957 209,252.723 209,255  Z"/>

<path  fill-rule="evenodd" fill="#86FF5A" stroke-width="0" stroke="#86FF5A" d = " M248 324 C248,327.769 255,329.89 255,333 256.795,333 257.649,337.075 259.5,338 264.87,340.685 282.117,334.192 286.5,332 286.5,332 291.5,332 291.5,332 293.03,331.235 291.219,328.141 293.5,327 293.5,327 299.5,325 299.5,325 299.5,325 304,318.5 304,318.5 304,318.5 309,314 309,314 309,307.082 316.241,307.017 319,301.5 322.607,294.287 320.335,284.169 317,277.5 311.561,266.621 300.478,264.489 291.5,260 288.933,258.717 279,262.144 279,257 265.26,257 269.525,256.987 257.5,263 255.595,263.953 254.783,261.642 253.5,261 250.395,259.447 243.985,262.742 238.5,260 238.5,260 233.5,263 233.5,263 233.5,263 224.5,255 224.5,255 221.249,253.375 212.931,255 209,255 209,256.731 202.817,258.341 201.5,259 194.331,262.584 180.448,261.603 176,270.5 176,270.5 170,279.5 170,279.5 166.408,286.683 167.768,306 179,306 179,306 186,306.5 186,306.5 187.775,310.049 182.397,312.295 184,315.5 184.988,317.476 187.287,319.074 188,320.5 188,320.5 191.5,326 191.5,326 191.5,326 208.5,335 208.5,335 208.5,335 221.5,335 221.5,335 223.211,335.855 228.317,337.091 230.5,336 230.5,336 236,334 236,334 236,328.225 242,327.365 242,324 242,320.013 240.328,297.414 247.5,301 250.197,302.349 248,320.815 248,324  M250 279 C251.747,279 252,279.253 252,281 253.698,281 255.711,288.078 255,289.5 253.893,291.714 246.275,296.388 243.5,295 241.185,293.843 233.632,286.235 235,283.5 236.861,279.779 241,282.879 241,278 241,275.959 241.959,275 244,275 244,273.393 247,275.21 247,277 247,277 248,278 248,278 248,278 250,279 250,279  Z"/>

<path  fill="#FA8072" stroke-width="0" stroke="#FA8072" d = " M279 257 C282.74,257 289.678,252.589 294.5,255 302.725,259.112 315.673,264.846 320,273.5 L321,278.5 L325,282.5 L327,295.5 C325.066,299.368 313.18,314 309,314 309,307.082 316.241,307.017 319,301.5 322.607,294.287 320.335,284.169 317,277.5 311.561,266.621 300.478,264.489 291.5,260 288.933,258.717 279,262.144 279,257  Z"/>

<path  fill-rule="evenodd" fill="#EB57FF" stroke-width="0" stroke="#EB57FF" d = " M244 290 C244,294.123 248.123,290 244,290  M250 279 C250,280.747 250.253,281 252,281 253.698,281 255.711,288.078 255,289.5 253.893,291.714 246.275,296.388 243.5,295 241.185,293.843 233.632,286.235 235,283.5 236.861,279.779 241,282.879 241,278 243.041,278 244,277.041 244,275 244,273.393 247,275.21 247,277 244.971,277 246.942,278 248,278 248,278 250,279 250,279  Z"/>

<path  fill="#27F4FD" stroke-width="0" stroke="#27F4FD" d = " M244 290 C244,294.123 248.123,290 244,290  Z"/>

<path  fill="#7209D4" stroke-width="0" stroke="#7209D4" d = " M242 324 L248,324 C248,320.815 250.197,302.349 247.5,301 240.328,297.414 242,320.013 242,324  Z"/>

<path  fill="#FF3427" stroke-width="0" stroke="#FF3427" d = " M255 333 C255,334.265 248.708,334.604 247.5,334 L243.5,326 L242,330.5 C240.809,332.882 238.383,334 236,334 236,328.225 242,327.365 242,324 242,324 248,324 248,324 248,327.769 255,329.89 255,333  Z"/>

</g>
</svg>
