<svg xmlns="http://www.w3.org/2000/svg" xmlns:xlink="http://www.w3.org/1999/xlink" height="512" width="512">
<g>
<rect width="512" height="512" fill="#000000"  stroke-width="0" /> 
<path  fill="#03C12D" stroke-width="0" stroke="#03C12D" d = " M134 322 C125.297,322 119.605,321.552 112.5,318 L108.5,314 L103.5,314 C102.701,313.6 92.212,304.924 92,304.5 87.9443,296.389 85.0164,287.533 81,279.5 L76,272.5 C74.9052,270.31 76.6037,266.707 76,265.5 74.5215,262.543 69.0252,256.45 71,252.5 71.8545,250.791 76.4534,252.593 78,249.5 79.1256,247.249 74,248.632 74,246.5 L76,243.5 C76,237.926 71.3085,235.117 69,230.5 67.7342,227.968 68,217.018 68,214.5 L71,210.5 C72.7508,206.998 69,204.305 69,202.5 69,193.34 68.2904,179.919 72,172.5 76.8783,162.743 89.7498,133.875 99.5,129 L118.5,117 L125.5,116 C129.511,113.994 133.535,111.982 137.5,110 139.788,108.856 139.7,112 140.5,112 141.744,112 147.065,107.717 148.5,107 151.488,105.506 160.772,105.364 165.5,103 169.158,101.171 176.992,104.254 179.5,103 181.633,101.933 183.282,100.109 185.5,99 189.64,96.9301 218.703,97.1013 222.5,99 L229.5,99 L237.5,106 C240.769,107.635 247.796,100.352 250.5,99 255.711,96.3943 276.905,89.7027 283.5,93 L285.5,96 C288.869,97.6843 301.502,95.5012 310.5,100 L317.5,100 C326.494,104.497 338.587,102.543 347.5,107 352.9,109.7 361.133,110.816 367.5,114 L376.5,121 C380.949,123.225 391.524,127.549 394,132.5 396.211,136.921 401.723,139.947 404,144.5 407.754,152.007 409.603,158.706 413,165.5 L417,169.5 C420.934,177.369 418.057,188.614 422,196.5 L421,207.5 C427.341,220.183 425.672,233.155 420,244.5 L421,249.5 C418.61,254.281 418.312,259.877 416,264.5 413.184,270.133 407.664,273.172 405,278.5 403.767,280.966 406.729,286.043 406,287.5 404.293,290.914 399.28,290.94 398,293.5 395.175,299.15 390.935,301.565 387,305.5 380.306,312.194 374.739,317.881 366.5,322 363.693,323.403 360.46,320.02 358.5,321 354.028,323.236 352.52,324 347,324 347,312.611 346,300.892 346,289 347.726,289 351,284.442 351,283 353.177,283 355,278.664 355,277 356.727,277 361,268.587 361,267 361,267 362,266 362,266 362,263.636 365,262.947 365,261 365,261 367,258 367,258 367,258 370,252 370,252 370,252 371,251 371,251 371,251 373,246 373,246 374.111,246 378,246.455 378,244.5 378,236.221 382.241,218.983 378,210.5 378,210.5 375,207.5 375,207.5 373.575,204.651 374.479,200.457 373,197.5 366.219,183.937 348.78,168.64 335.5,162 332.031,160.266 320.48,158.99 318.5,158 314.921,156.21 307.929,152.286 304.5,154 301.365,155.567 277,143.779 277,152 277,152 272.5,148 272.5,148 265.893,144.696 250.063,132 243.5,132 236.425,132 229.578,139.961 223.5,143 221.253,144.123 209,150.491 209,153 206.799,153 205.687,149.406 202.5,151 197.335,153.583 190.767,153.367 185.5,156 185.5,156 178.5,156 178.5,156 172.621,158.94 163.263,159.619 158.5,162 145.174,168.663 126.548,176.404 119,191.5 117.55,194.399 118.224,196.051 117,198.5 114.605,203.291 110.069,239.638 113,245.5 115.539,250.579 118.434,255.369 121,260.5 123.106,264.712 126.743,274.622 131.5,277 131.5,277 136,276 136,276 136,278.491 147.011,292 150,292 150,292 148,293.5 148,293.5 145.887,297.726 148.205,304.091 146,308.5 143.382,313.735 134.283,312.935 133,315.5 133,315.5 134,322 134,322  Z"/>

<path  fill="#1D68EB" stroke-width="0" stroke="#1D68EB" d = " M240 179 C240,171.206 250,171.927 250,179 258.226,179 267.971,173.557 272,165.5 272,165.5 275,155.5 275,155.5 275.809,153.881 277,154.029 277,152 277,152 272.5,148 272.5,148 265.893,144.696 250.063,132 243.5,132 236.425,132 229.578,139.961 223.5,143 221.253,144.123 209,150.491 209,153 209,156.963 211.391,158.282 213,161.5 213,161.5 214,166.5 214,166.5 217.997,174.494 231.187,179 240,179  Z"/>

<path  fill="#FF6E00" stroke-width="0" stroke="#FF6E00" d = " M117 224 C117,234.683 118.129,247.758 123,257.5 125.216,261.933 136,272.112 136,276 136,276 131.5,277 131.5,277 126.743,274.622 123.106,264.712 121,260.5 118.434,255.369 115.539,250.579 113,245.5 110.069,239.638 114.605,203.291 117,198.5 118.224,196.051 117.55,194.399 119,191.5 126.548,176.404 145.174,168.663 158.5,162 163.263,159.619 172.621,158.94 178.5,156 178.5,156 185.5,156 185.5,156 190.767,153.367 197.335,153.583 202.5,151 205.687,149.406 206.799,153 209,153 209,156.963 211.391,158.282 213,161.5 213,161.5 214,166.5 214,166.5 217.997,174.494 231.187,179 240,179 243.549,179 246.865,179 250,179 258.226,179 267.971,173.557 272,165.5 272,165.5 275,155.5 275,155.5 275.809,153.881 277,154.029 277,152 277,143.779 301.365,155.567 304.5,154 307.929,152.286 314.921,156.21 318.5,158 320.48,158.99 332.031,160.266 335.5,162 348.78,168.64 366.219,183.937 373,197.5 374.479,200.457 373.575,204.651 375,207.5 375,207.5 378,210.5 378,210.5 382.241,218.983 378,236.221 378,244.5 378,246.455 374.111,246 373,246 373,242.571 375.498,224.496 374,221.5 371.218,215.935 371.299,208.099 369,203.5 363.229,191.958 353.47,179.485 342.5,174 342.5,174 338.5,174 338.5,174 331.574,170.537 323.341,170.421 316.5,167 316.5,167 301.5,167 301.5,167 299.71,167.895 298.097,170 296,170 296,170 294,171 294,171 288.152,171 282.055,179 279,179 279,179 272.5,185 272.5,185 271.189,185.656 267,185.797 267,188 261.297,188 258.226,191.637 253.5,194 251.766,194.867 249.339,194.08 247.5,195 245.215,196.143 244.047,193.774 242.5,193 242.5,193 231.5,193 231.5,193 231.5,193 222,189 222,189 222,189 221,188 221,188 221,188 219,186 219,186 214.956,186 211.725,179 208,179 204.966,179 203.05,175.275 200.5,174 196.352,171.926 191.778,171.139 187.5,169 184.576,167.538 174.956,168.772 172.5,170 169.761,171.37 157.057,171.722 152.5,174 143.716,178.392 131.77,183.961 127,193.5 127,193.5 126,198.5 126,198.5 126,198.5 122,202.5 122,202.5 122,202.5 120,215 120,215 120,215 119,216 119,216 119,216 118,222 118,222 118,222 117,224 117,224  Z"/>

<path  fill-rule="evenodd" fill="#814FFF" stroke-width="0" stroke="#814FFF" d = " M279 265 C279,267.336 273.919,268.338 276,272.5 277.815,276.13 290.46,287.58 294,280.5 298.111,272.277 285.142,265 279,265  M351 283 C351,284.442 347.726,289 346,289 343.141,289 342.803,291.849 340.5,293 340.5,293 336.5,292 336.5,292 335.562,292.469 330.598,306.451 327.5,308 326.589,308.455 321.134,311 320.5,311 319.501,311 318.119,309.19 316.5,310 316.5,310 313.5,314 313.5,314 310.564,315.468 310.211,310.856 308.5,310 305.945,308.723 303.726,313.951 302,310.5 300.616,307.732 304.893,304.697 301.5,303 297.997,301.249 294.088,299.794 290.5,298 290.5,298 282.5,290 282.5,290 282.5,290 280,289.5 280,289.5 278.623,286.746 279,284.796 279,282.5 279,282.5 275,277.5 275,277.5 273.054,273.608 271.921,269.343 270,265.5 270,265.5 272,259 272,259 272,256.382 275,257.349 275,255 275,255 277,255 277,255 277,256.27 278.564,264.968 280.5,264 280.5,264 281,258.5 281,258.5 281,253.636 279,249.049 279,243.5 279,243.5 279,208.5 279,208.5 278.346,207.191 274.79,189.921 275,189.5 276.716,186.068 279,183.147 279,179 282.055,179 288.152,171 294,171 294,171 296,170 296,170 298.097,170 299.71,167.895 301.5,167 301.5,167 316.5,167 316.5,167 323.341,170.421 331.574,170.537 338.5,174 338.5,174 342.5,174 342.5,174 353.47,179.485 363.229,191.958 369,203.5 371.299,208.099 371.218,215.935 374,221.5 375.498,224.496 373,242.571 373,246 373,246 371,251 371,251 371,251 370,252 370,252 370,252 367,258 367,258 364.707,258 365,258.997 365,261 365,262.947 362,263.636 362,266 362,266 361,267 361,267 357.24,267 355,274.335 355,277 352.823,277 351,281.336 351,283  Z"/>

<path  fill="#814FFF" stroke-width="0" stroke="#814FFF" d = " M157 297 C157.953,297 163,300.714 163,302 163,304.3 165.762,307.131 167.5,308 167.5,308 169.5,312 169.5,312 178.238,316.369 185.42,316.54 194.5,312 194.5,312 199.5,312 199.5,312 201.401,311.049 203.052,307.605 202,305.5 198.032,297.564 206,289.368 206,282 203.331,282 196.377,283.253 195,280.5 192.925,276.349 201.822,265 206,265 206,265 209,249.5 209,249.5 209,234.475 205.655,213.19 212,200.5 213.137,198.225 211.808,194.883 213,192.5 213.857,190.785 208,184.367 208,179 204.966,179 203.05,175.275 200.5,174 196.352,171.926 191.778,171.139 187.5,169 184.576,167.538 174.956,168.772 172.5,170 169.761,171.37 157.057,171.722 152.5,174 143.716,178.392 131.77,183.961 127,193.5 127,193.5 126,198.5 126,198.5 126,198.5 122,202.5 122,202.5 122,202.5 120,215 120,215 120,215 119,216 119,216 119,216 118,222 118,222 118,222 117,224 117,224 117,234.683 118.129,247.758 123,257.5 125.216,261.933 136,272.112 136,276 136,278.491 147.011,292 150,292 150,292 157,297 157,297  Z"/>

<path  fill="#022CFF" stroke-width="0" stroke="#022CFF" d = " M206 265 L208,265 C208,263.683 211.115,254 212,254 212,245.977 209.229,216.041 212,210.5 212,210.5 217,194.5 217,194.5 217,194.5 222,189 222,189 222,189 221,188 221,188 217.838,188 219,188.109 219,186 214.956,186 211.725,179 208,179 208,184.367 213.857,190.785 213,192.5 211.808,194.883 213.137,198.225 212,200.5 205.655,213.19 209,234.475 209,249.5 209,249.5 206,265 206,265  Z"/>

<path  fill="#022CFF" stroke-width="0" stroke="#022CFF" d = " M276 254 L277,255 C277,256.27 278.564,264.968 280.5,264 280.5,264 281,258.5 281,258.5 281,253.636 279,249.049 279,243.5 279,243.5 279,208.5 279,208.5 278.346,207.191 274.79,189.921 275,189.5 276.716,186.068 279,183.147 279,179 279,179 272.5,185 272.5,185 271.189,185.656 267,185.797 267,188 267,188 273,193.5 273,193.5 273,193.5 275,200.5 275,200.5 275,200.5 275,206.5 275,206.5 279.867,216.234 276,242.2 276,254  Z"/>

<path  fill="#FF0800" stroke-width="0" stroke="#FF0800" d = " M217 258 L226.5,265 C230.104,266.802 234.835,266.168 238.5,268 249.808,273.654 264.472,259 272,259 272,256.382 275,257.349 275,255 275,255 276,254 276,254 276,242.2 279.867,216.234 275,206.5 275,206.5 275,200.5 275,200.5 275,200.5 273,193.5 273,193.5 273,193.5 267,188 267,188 261.297,188 258.226,191.637 253.5,194 251.766,194.867 249.339,194.08 247.5,195 245.215,196.143 244.047,193.774 242.5,193 242.5,193 231.5,193 231.5,193 231.5,193 222,189 222,189 222,189 217,194.5 217,194.5 217,194.5 212,210.5 212,210.5 209.229,216.041 212,245.977 212,254 213.238,254 215,254.423 215,256 215,256 217,258 217,258  Z"/>

<path  fill="#FF6E00" stroke-width="0" stroke="#FF6E00" d = " M371 251 L370,252 C370,252 371,251 371,251  Z"/>

<path  fill="#814FFF" stroke-width="0" stroke="#814FFF" d = " M208 265 L212,268 C212.162,268 215,260.38 215,258 215,258 215,256 215,256 215,254.423 213.238,254 212,254 211.115,254 208,263.683 208,265  Z"/>

<path  fill="#E1F00D" stroke-width="0" stroke="#E1F00D" d = " M191 350 C187.363,350 180.944,352 179,352 179,350.237 170.657,351 169,351 163.258,351 158.222,349.361 153.5,347 153.5,347 147.5,340 147.5,340 144.677,338.589 139.865,340.229 138,336.5 136.734,333.968 138.354,322 134,322 134,322 133,315.5 133,315.5 134.283,312.935 143.382,313.735 146,308.5 148.205,304.091 145.887,297.726 148,293.5 148,293.5 150,292 150,292 150,292 157,297 157,297 157,298.901 161.332,302 163,302 163,304.3 165.762,307.131 167.5,308 167.5,308 169.5,312 169.5,312 178.238,316.369 185.42,316.54 194.5,312 194.5,312 199.5,312 199.5,312 201.401,311.049 203.052,307.605 202,305.5 198.032,297.564 206,289.368 206,282 206,282 213,273.5 213,273.5 213.978,271.544 212,269.423 212,268 212.162,268 215,260.38 215,258 215,258 217,258 217,258 217,258 226.5,265 226.5,265 230.104,266.802 234.835,266.168 238.5,268 249.808,273.654 264.472,259 272,259 272,259 270,265.5 270,265.5 271.921,269.343 273.054,273.608 275,277.5 275,277.5 279,282.5 279,282.5 279,284.796 278.623,286.746 280,289.5 280,289.5 282.5,290 282.5,290 282.5,290 290.5,298 290.5,298 294.088,299.794 297.997,301.249 301.5,303 304.893,304.697 300.616,307.732 302,310.5 303.726,313.951 305.945,308.723 308.5,310 310.211,310.856 310.564,315.468 313.5,314 313.5,314 316.5,310 316.5,310 318.119,309.19 319.501,311 320.5,311 321.134,311 326.589,308.455 327.5,308 330.598,306.451 335.562,292.469 336.5,292 336.5,292 340.5,293 340.5,293 342.803,291.849 343.141,289 346,289 346,300.892 347,312.611 347,324 347,325.842 348,328.283 348,329.5 348,331.991 343.577,330.461 342.5,331 336.755,333.873 331.558,340.971 325.5,344 322.403,345.549 318.889,338.306 315.5,340 312.362,341.569 311.493,344.503 308.5,346 300.65,349.925 278.385,337.27 275,330.5 273.664,327.827 274.292,324.084 273,321.5 271.994,319.487 267.269,318.884 265.5,318 257.758,314.129 252.299,305.9 244.5,302 242.818,301.159 229.204,314.296 227,316.5 227,316.5 214.5,326 214.5,326 214.5,326 208,327.5 208,327.5 208,327.5 209,334.5 209,334.5 205.551,341.399 200.048,350 191,350  Z"/>

<path  fill="#7CFC00" stroke-width="0" stroke="#7CFC00" d = " M212 268 C212,269.423 213.978,271.544 213,273.5 L206,282 C203.331,282 196.377,283.253 195,280.5 192.925,276.349 201.822,265 206,265 206,265 208,265 208,265 208,265 212,268 212,268  Z"/>

<path  fill="#7CFC00" stroke-width="0" stroke="#7CFC00" d = " M279 265 C279,267.336 273.919,268.338 276,272.5 277.815,276.13 290.46,287.58 294,280.5 298.111,272.277 285.142,265 279,265  Z"/>

<path  fill="#267EFF" stroke-width="0" stroke="#267EFF" d = " M248 321 C248,327.28 241.295,320.103 237.5,322 232.578,324.461 231.267,326.966 229,331.5 227.366,334.768 232.469,336 234.5,336 241.834,336 254.245,338.128 260.5,335 267.846,331.327 258.469,326.439 257,323.5 255.966,321.431 250.834,321 248,321  Z"/>

<path  fill="#FA8072" stroke-width="0" stroke="#FA8072" d = " M106 331 L105,334.5 C106.724,337.949 124.173,341.336 127.5,343 L130.5,347 L132.5,345 C134.241,345 134.891,349.305 137.5,348 142.224,345.638 130.758,341.016 130,339.5 129.191,337.882 129.79,336.145 127.5,335 L119.5,336 C115.11,333.805 111.282,331 106,331  Z"/>

<path  fill="#FA8072" stroke-width="0" stroke="#FA8072" d = " M361 332 L359,338 C359,355.476 378.613,332 361,332  Z"/>

<path  fill-rule="evenodd" fill="#FA8072" stroke-width="0" stroke="#FA8072" d = " M302 361 C302,365.42 303.206,361 302,361  M298 348 C298,349.377 290.302,353.897 289,356.5 L290,362.5 C288.382,365.736 282.867,364.767 281,368.5 279.177,372.146 281.036,391.268 284.5,393 L289.5,393 C291.047,393.773 294.493,397.003 296.5,396 297.751,395.374 294.77,390.865 298.5,389 302.495,387.002 302.878,396.744 306,390.5 L302,385.5 C303.421,382.658 304.46,386.02 306.5,385 307.668,384.416 314.668,380.164 315,379.5 316.814,375.871 317.044,351.272 312.5,349 308.713,347.107 302.58,348 298,348  Z"/>

<path  fill="#FA8072" stroke-width="0" stroke="#FA8072" d = " M191 350 C187.363,350 180.944,352 179,352 179,357.86 170.432,360.364 173,365.5 173,365.5 178,369.5 178,369.5 178,369.5 178,377.5 178,377.5 178.564,378.628 182.793,385.646 183.5,386 183.5,386 186,386.5 186,386.5 187.889,390.279 188.426,397.037 194.5,394 197.185,392.657 205.281,396.939 209,389.5 210.823,385.854 208.964,366.732 205.5,365 205.5,365 201.5,365 201.5,365 199.366,363.933 191,351.514 191,350  Z"/>

<path  fill="#FA8072" stroke-width="0" stroke="#FA8072" d = " M153 370 L151,375.5 C161.092,395.685 170.196,370 153,370  Z"/>

</g>
</svg>
