<svg xmlns="http://www.w3.org/2000/svg" xmlns:xlink="http://www.w3.org/1999/xlink" height="512" width="512">
<g>
<rect width="512" height="512" fill="#000000"  stroke-width="0" /> 
<path  fill="#03C12D" stroke-width="0" stroke="#03C12D" d = " M234 243 C236.415,243 241.904,237.202 243.5,238 247.065,239.782 249.824,246 254,246 263.515,246 273.909,231.295 282.5,227 282.5,227 285.5,223 285.5,223 289.573,220.964 303.083,219.791 307.5,222 307.5,222 313.5,227 313.5,227 317.07,228.785 328,235.593 328,241 328,241 340.5,245 340.5,245 343.67,243.415 351.284,228.933 353,225.5 358.469,214.562 364.578,204.344 370,193.5 370,193.5 370,185.5 370,185.5 373.136,179.229 374.304,171.107 371,164.5 371,164.5 365,157.5 365,157.5 365,157.5 364,152.5 364,152.5 359.319,143.138 339.165,130.333 330.5,126 323.87,122.685 316.154,121.327 309.5,118 309.5,118 305.5,118 305.5,118 300.97,115.735 274.876,109.812 268.5,113 264.209,115.145 256.677,115.146 254,120.5 252.853,122.795 246.295,135.102 244.5,136 242.512,136.994 234.925,124.213 232.5,123 232.5,123 228.5,123 228.5,123 228.5,123 223.5,119 223.5,119 223.5,119 202,116 202,116 202,116 198.5,118 198.5,118 193.277,120.612 184.723,117.388 179.5,120 170.432,124.534 160.532,127.484 151.5,132 145.437,135.031 141.51,141.995 135.5,145 130.82,147.34 125.125,160.25 123,164.5 121.394,167.712 115.211,182.921 117,186.5 126.059,204.619 133.246,232.373 152.5,242 155.322,243.411 159.579,241 162,241 162,241 168.5,232 168.5,232 171.5,230.5 174.496,225.502 177.5,224 180.199,222.65 183.924,223.288 186.5,222 186.5,222 191.5,218 191.5,218 198.047,214.726 214.783,233.641 219.5,236 223.393,237.947 227.759,239.129 231.5,241 231.5,241 234,243 234,243  Z"/>

<path  fill-rule="evenodd" fill="#FF8700" stroke-width="0" stroke="#FF8700" d = " M192 243 C192,251.465 195.801,256.651 204.5,261 206.09,261.795 210.589,269.323 213,264.5 216.203,258.093 198.656,243 192,243  M162 241 L168.5,232 C171.5,230.5 174.496,225.502 177.5,224 180.199,222.65 183.924,223.288 186.5,222 L191.5,218 C198.047,214.726 214.783,233.641 219.5,236 223.393,237.947 227.759,239.129 231.5,241 L234,243 C234,244.479 240.709,252.918 242,255.5 246.428,264.356 235.373,283.753 232,290.5 229.991,294.519 223.469,299 219.5,299 213.299,299 212.117,294.809 206.5,292 206.5,292 197.5,291 197.5,291 191.783,288.142 187.255,282.878 181.5,280 178.967,278.733 172.466,277.432 171,274.5 171,274.5 171,270.5 171,270.5 169.445,267.39 164.109,269.718 162,265.5 160.074,261.648 156.486,249.529 159,244.5 159,244.5 162,241 162,241  Z"/>

<path  fill-rule="evenodd" fill="#FF8700" stroke-width="0" stroke="#FF8700" d = " M293 245 C293,246.816 288.716,247.392 287.5,248 285.702,248.899 271.951,264.226 277.5,267 279.171,267.835 310.992,245 293,245  M328 241 C328,244.771 334.364,252.772 331,259.5 329.317,262.865 315.714,275.393 312.5,277 310.97,277.765 312.781,280.859 310.5,282 L303.5,282 L300.5,286 C297.137,287.682 292.925,288.288 289.5,290 280.826,294.337 273.773,303.137 263.5,298 257.15,294.825 256.541,285.582 254,280.5 L250,277.5 C247.992,273.484 243.36,262.78 246,257.5 247.697,254.106 254,249.887 254,246 263.515,246 273.909,231.295 282.5,227 282.5,227 285.5,223 285.5,223 289.573,220.964 303.083,219.791 307.5,222 307.5,222 313.5,227 313.5,227 317.07,228.785 328,235.593 328,241  Z"/>

<path  fill="#FF4FCE" stroke-width="0" stroke="#FF4FCE" d = " M192 243 C192,251.465 195.801,256.651 204.5,261 206.09,261.795 210.589,269.323 213,264.5 216.203,258.093 198.656,243 192,243  Z"/>

<path  fill="#FF4FCE" stroke-width="0" stroke="#FF4FCE" d = " M293 245 C293,246.816 288.716,247.392 287.5,248 285.702,248.899 271.951,264.226 277.5,267 279.171,267.835 310.992,245 293,245  Z"/>

<path  fill="#FA8072" stroke-width="0" stroke="#FA8072" d = " M184 302 C184,305.746 186.091,302 184,302  Z"/>

<path  fill="#30DA00" stroke-width="0" stroke="#30DA00" d = " M220 303 C220,305.068 214.095,307.689 216,311.5 217.763,315.027 228.571,319.357 231,314.5 234.163,308.173 223.442,303 220,303  Z"/>

<path  fill="#30DA00" stroke-width="0" stroke="#30DA00" d = " M269 304 C269,304.835 263.864,307.772 263,309.5 261.009,313.483 267.755,320.372 272.5,318 282.206,313.147 282.08,304 269,304  Z"/>

<path  fill="#FA8072" stroke-width="0" stroke="#FA8072" d = " M306 305 C306,306.423 304.022,308.544 305,310.5 307.549,315.599 314.655,305 306,305  Z"/>

<path  fill="#FA8072" stroke-width="0" stroke="#FA8072" d = " M184 308 L183,313.5 C184.798,317.096 199.141,316.321 188.5,311 186.522,310.011 186.477,308 184,308  Z"/>

<path  fill="#FA8072" stroke-width="0" stroke="#FA8072" d = " M286 369 C286,369.974 281.781,371.937 281,373.5 279.539,376.422 283.043,386.413 283,386.5 282.036,388.428 279.608,390.715 281,393.5 282.963,397.426 296.264,403.618 299.5,402 303.533,399.983 300.263,394.119 304.5,392 307.65,390.425 312.286,403.928 316,396.5 L317,394.5 C320.182,388.136 315.056,378.278 310.5,376 308.075,374.787 302.131,380.761 302,380.5 L302,375.5 C299.995,371.49 290.526,369 286,369  Z"/>

<path  fill="#FA8072" stroke-width="0" stroke="#FA8072" d = " M196 373 L193,375.5 C192.292,376.916 191.28,383 188.5,383 L186.5,381 C180.917,381 178.997,384.506 177,388.5 L173,391.5 C171.545,394.411 174.443,400 177.5,400 177.541,400 187.654,392.077 191.5,394 193.703,395.102 194.279,398.389 195.5,399 198.427,400.463 199.794,395.147 203.5,397 206.919,398.709 204.939,408.281 213.5,404 221.474,400.013 210.716,394.067 212,391.5 214.843,385.814 219.862,378.181 211.5,374 209.422,372.961 204.322,375.911 202.5,375 200.029,373.765 199.067,373 196,373  Z"/>

</g>
</svg>
