<svg xmlns="http://www.w3.org/2000/svg" xmlns:xlink="http://www.w3.org/1999/xlink" height="512" width="512">
<g>
<rect width="512" height="512" fill="#000000"  stroke-width="0" /> 
<path  fill-rule="evenodd" fill="#FFFF00" stroke-width="0" stroke="#FFFF00" d = " M250 96 C250,97.725 243.948,97 242.5,97 239.112,97 224.758,96.3708 221.5,98 218.999,99.2503 215.842,98.8288 213.5,100 209.903,101.799 201.842,114.816 200,118.5 199.21,120.08 193.702,120.904 195,123.5 197.268,128.037 205.969,112.766 207.5,112 212.264,109.618 216.85,107.325 221.5,105 L235.5,104 C237.623,102.939 241.535,100.517 244.5,102 254.177,106.838 266.775,105.138 276.5,110 282.186,112.843 283.94,117.44 288,121.5 288.44,121.94 290.013,129.474 291,127.5 295.955,117.591 284.629,107.565 277.5,104 L272.5,104 L268.5,100 C262.274,96.8871 256.83,96 250,96  M386 210 C386,215.244 411.918,210.336 406,198.5 401.944,190.388 408.046,177.592 404,169.5 401.816,165.132 402.139,159.777 400,155.5 L390,145.5 L389,138.5 C385.815,132.131 373.071,125.285 366.5,122 L358.5,121 L350.5,113 C346.702,111.101 338.564,111.532 333.5,109 329.895,107.197 325.855,112.177 323.5,111 L311.5,99 C307.926,97.2131 302.164,99.8321 298.5,98 290.938,94.2188 286.039,88.7693 278.5,85 L272.5,85 C268.613,83.0564 264.524,82.0118 260.5,80 256.798,78.1488 251.285,79.8927 247.5,78 L235.5,78 C225.975,78 199.536,78.4285 196,85.5 193.734,90.0323 194.277,95.9462 192,100.5 188.519,107.462 179.447,109.027 173.5,112 L170.5,117 C167.924,117 169.942,110 166.5,110 163.601,110 157.006,109 153.5,109 141.767,109 136.314,120.593 127.5,125 L117.5,127 C114.771,128.364 100.054,136.392 99,138.5 97.4652,141.57 94.2098,145.08 93,147.5 L91,157.5 C89.7196,160.061 86.5412,161.418 85,164.5 L82,173.5 L81,191.5 C76.569,200.362 78.4892,213 91,213 91,208.485 82,206.784 82,201 82,197.498 84,193.258 84,189.5 84,189.5 85,174.5 85,174.5 85,174.5 89.5,171 89.5,171 91.2323,171.866 96.7199,185.94 98,188.5 98,188.5 99,211.5 99,211.5 100.15,213.8 105.086,215.207 107.5,214 119.061,208.219 115.467,180.434 111,171.5 111,171.5 110,155.5 110,155.5 107.786,151.071 99.6802,155.86 98,152.5 95.332,147.164 115.992,131.246 117.5,132 122.26,134.38 118.056,137.612 120,141.5 121.563,144.625 123.411,147.322 125,150.5 128.881,158.263 121.722,176.943 126,185.5 127.301,188.103 138.444,199.028 140.5,198 144.741,195.879 158.686,182.872 156,177.5 152.857,171.213 143.987,171.474 141,165.5 141,165.5 142,135 142,135 142,130.002 133.454,128.592 137,121.5 137.515,120.471 155.461,114.48 156.5,115 158.401,115.951 160.052,119.395 159,121.5 157.852,123.795 154.626,124.248 154,125.5 150.341,132.818 155.808,147.117 159,153.5 159.977,155.453 158.159,160.83 160.5,162 167.85,165.675 176.039,151.579 173,145.5 171.405,142.309 173.54,137.58 172,134.5 164.294,119.089 188.306,112.888 193,103.5 195.534,98.433 197.183,89.1585 203.5,86 206.838,84.331 236.271,80.8857 238.5,82 245.389,85.4446 236.853,87.8236 234.5,89 229.502,91.4988 221.407,87.5465 216.5,90 214.367,91.0667 212.718,92.8908 210.5,94 210.5,94 206,96.5 206,96.5 202.045,104.409 195.581,109.337 192,116.5 192,116.5 183,122.5 183,122.5 180.405,127.69 184.823,132.146 187,136.5 189.264,141.028 183.828,152.843 182,156.5 182,156.5 176,163.5 176,163.5 174.296,166.908 170.308,181.904 174.5,184 176.448,184.974 189.179,179.141 190,177.5 193.604,170.292 197.437,156.032 205.5,152 208.893,150.303 222.15,145.199 224,141.5 224.844,139.813 224.174,134.837 222.5,134 217.107,131.304 210.343,139 209.5,139 207.52,139 208.823,137.839 206.5,139 204.18,140.16 203.342,134.815 204,133.5 207.68,126.14 213.548,117.476 220.5,114 220.5,114 231.5,115 231.5,115 237.661,111.919 245.759,109.63 252.5,113 252.5,113 268.5,113 268.5,113 268.5,113 270.5,116 270.5,116 281.473,121.486 279.927,124.354 285,134.5 287.437,139.373 280.773,145.046 283,149.5 283,149.5 288,159.5 288,159.5 289.476,162.452 287.906,168.203 291.5,170 291.5,170 297.5,177 297.5,177 299.256,177.878 308.893,182.804 310.5,182 320.782,176.859 302.171,155.842 300,151.5 298.767,149.034 301.729,143.957 301,142.5 296.431,133.362 304.947,125.394 299,113.5 299,113.5 296,112.5 296,112.5 294.919,110.337 286.724,101.112 284.5,100 281.743,98.6217 279.171,99.3357 276.5,98 273.765,96.6324 269.621,92.4393 274.5,90 277.379,88.5604 289.729,99.1147 291.5,100 291.5,100 296.5,100 296.5,100 296.5,100 299.5,103 299.5,103 307.989,107.245 309.559,99.6186 315,110.5 315,110.5 318,112.5 318,112.5 319.769,116.038 315.824,116.851 315,118.5 315,118.5 315,126.5 315,126.5 312.101,132.297 310.447,151.473 317.5,155 333.987,163.244 327.611,123.277 331,116.5 334.05,110.4 351.772,117.043 354,121.5 355.833,125.165 345.056,129.389 344,131.5 344,131.5 345,153.5 345,153.5 338.158,167.184 315.618,166.118 334,184.5 334,184.5 340.5,190 340.5,190 345.744,192.622 345.418,186.541 348.5,185 351.689,183.405 358.773,181.954 361,177.5 365.681,168.138 356.533,151.434 362,140.5 363.643,137.215 362.716,127.892 366.5,126 369.173,124.663 386,136.501 384,140.5 381.773,144.955 375.19,140.12 373,144.5 370.609,149.281 374.337,156.827 372,161.5 369.276,166.949 368.482,187.464 371,192.5 371,192.5 376,198.5 376,198.5 376,199.151 373.802,200.151 375.5,201 382.259,204.379 380.226,197.048 382,193.5 386.33,184.84 384.867,166.817 394.5,162 397.268,160.616 400.128,167.755 401,169.5 402.361,172.223 403.536,197.428 402,200.5 401.099,202.301 401.301,205.099 399.5,206 396.881,207.31 396.735,202.383 393.5,204 390.632,205.434 390.936,207.782 388.5,209 387.581,209.459 386,208.235 386,210  Z"/>

<path  fill-rule="evenodd" fill="#00FFFF" stroke-width="0" stroke="#00FFFF" d = " M415 241 C415,242.93 416.93,241 415,241  M240 180 C240,180.266 229.806,184.347 228.5,185 L223.5,184 C222.349,184.576 220.223,189.946 221,191.5 222.705,194.911 242.271,204.115 246.5,202 L258.5,195 C261.467,193.517 272.819,190.137 270,184.5 267.038,178.576 258.603,183.551 253.5,181 249.842,179.171 244.35,180 240,180  M250 142 L249,143.5 C247.034,147.432 254.565,142 250,142  M227 131 L225,141.5 C226.025,143.551 235.87,142.759 237,140.5 237.575,139.349 230.327,131 227,131  M151 237 L142.5,238 L137,243 C137,239.813 133.934,237.283 130.5,239 119.886,244.307 108.099,246.701 97.5,252 93.9057,253.797 88.1178,252.191 84.5,254 77.8527,257.324 73.3445,267.578 72.5,268 70.3678,269.066 67.474,266.552 66,269.5 63.9563,273.587 69.0151,274.53 70,276.5 70,276.5 69.5,279 69.5,279 65.2952,279 65.4587,270.479 62.5,269 62.5,269 52.5,270 52.5,270 49.9719,268.736 58.3238,266.412 53.5,264 53.5,264 46,262.5 46,262.5 46,262.5 52.5,261 52.5,261 57.1084,261 65.0618,263.376 68,257.5 72.4766,248.547 47.9856,252.243 45.5,251 40.013,248.256 41.6893,237.405 46.5,235 49.9608,233.27 53.9401,239.72 56.5,241 61.9178,243.709 77.0696,247.361 81,239.5 82.1081,237.284 78.8411,235.671 77.5,235 69.9927,231.246 60.8232,238.146 56,228.5 56,228.5 55,225.5 55,225.5 59.2145,217.071 72.2329,225 78,225 85.7961,225 91.0099,218.255 96.5,221 102.571,224.035 95.0733,227.713 92.5,229 91.3213,229.589 89.8677,233.184 91.5,234 95.6445,236.072 106.424,231.038 108.5,230 111.219,228.64 116.211,231.078 118,227.5 120.281,222.939 108.865,220 108,220 108,217.067 94,214.062 94,214 94,211.436 92,211.436 92,214 92,214 91,213 91,213 91,208.485 82,206.784 82,201 82,197.498 84,193.258 84,189.5 84,189.5 85,174.5 85,174.5 85,174.5 89.5,171 89.5,171 91.2323,171.866 96.7199,185.94 98,188.5 98,188.5 99,211.5 99,211.5 100.15,213.8 105.086,215.207 107.5,214 119.061,208.219 115.467,180.434 111,171.5 111,171.5 110,155.5 110,155.5 107.786,151.071 99.6802,155.86 98,152.5 95.332,147.164 115.992,131.246 117.5,132 122.26,134.38 118.056,137.612 120,141.5 121.563,144.625 123.411,147.322 125,150.5 128.881,158.263 121.722,176.943 126,185.5 127.301,188.103 138.444,199.028 140.5,198 144.741,195.879 158.686,182.872 156,177.5 152.857,171.213 143.987,171.474 141,165.5 141,165.5 142,135 142,135 142,130.002 133.454,128.592 137,121.5 137.515,120.471 155.461,114.48 156.5,115 158.401,115.951 160.052,119.395 159,121.5 157.852,123.795 154.626,124.248 154,125.5 150.341,132.818 155.808,147.117 159,153.5 159.977,155.453 158.159,160.83 160.5,162 167.85,165.675 176.039,151.579 173,145.5 171.405,142.309 173.54,137.58 172,134.5 164.294,119.089 188.306,112.888 193,103.5 195.534,98.433 197.183,89.1585 203.5,86 206.838,84.331 236.271,80.8857 238.5,82 245.389,85.4446 236.853,87.8236 234.5,89 229.502,91.4988 221.407,87.5465 216.5,90 214.367,91.0667 212.718,92.8908 210.5,94 210.5,94 206,96.5 206,96.5 202.045,104.409 195.581,109.337 192,116.5 192,116.5 183,122.5 183,122.5 180.405,127.69 184.823,132.146 187,136.5 189.264,141.028 183.828,152.843 182,156.5 182,156.5 176,163.5 176,163.5 174.296,166.908 170.308,181.904 174.5,184 176.448,184.974 189.179,179.141 190,177.5 193.604,170.292 197.437,156.032 205.5,152 208.893,150.303 222.15,145.199 224,141.5 224.844,139.813 224.174,134.837 222.5,134 217.107,131.304 210.343,139 209.5,139 207.52,139 208.823,137.839 206.5,139 204.18,140.16 203.342,134.815 204,133.5 207.68,126.14 213.548,117.476 220.5,114 220.5,114 231.5,115 231.5,115 237.661,111.919 245.759,109.63 252.5,113 252.5,113 268.5,113 268.5,113 268.5,113 270.5,116 270.5,116 281.473,121.486 279.927,124.354 285,134.5 287.437,139.373 280.773,145.046 283,149.5 283,149.5 288,159.5 288,159.5 289.476,162.452 287.906,168.203 291.5,170 291.5,170 297.5,177 297.5,177 299.256,177.878 308.893,182.804 310.5,182 320.782,176.859 302.171,155.842 300,151.5 298.767,149.034 301.729,143.957 301,142.5 296.431,133.362 304.947,125.394 299,113.5 299,113.5 296,112.5 296,112.5 294.919,110.337 286.724,101.112 284.5,100 281.743,98.6217 279.171,99.3357 276.5,98 273.765,96.6324 269.621,92.4393 274.5,90 277.379,88.5604 289.729,99.1147 291.5,100 291.5,100 296.5,100 296.5,100 296.5,100 299.5,103 299.5,103 307.989,107.245 309.559,99.6186 315,110.5 315,110.5 318,112.5 318,112.5 319.769,116.038 315.824,116.851 315,118.5 315,118.5 315,126.5 315,126.5 312.101,132.297 310.447,151.473 317.5,155 333.987,163.244 327.611,123.277 331,116.5 334.05,110.4 351.772,117.043 354,121.5 355.833,125.165 345.056,129.389 344,131.5 344,131.5 345,153.5 345,153.5 338.158,167.184 315.618,166.118 334,184.5 334,184.5 340.5,190 340.5,190 345.744,192.622 345.418,186.541 348.5,185 351.689,183.405 358.773,181.954 361,177.5 365.681,168.138 356.533,151.434 362,140.5 363.643,137.215 362.716,127.892 366.5,126 369.173,124.663 386,136.501 384,140.5 381.773,144.955 375.19,140.12 373,144.5 370.609,149.281 374.337,156.827 372,161.5 369.276,166.949 368.482,187.464 371,192.5 371,192.5 376,198.5 376,198.5 376,199.151 373.802,200.151 375.5,201 382.259,204.379 380.226,197.048 382,193.5 386.33,184.84 384.867,166.817 394.5,162 397.268,160.616 400.128,167.755 401,169.5 402.361,172.223 403.536,197.428 402,200.5 401.099,202.301 401.301,205.099 399.5,206 396.881,207.31 396.735,202.383 393.5,204 390.632,205.434 390.936,207.782 388.5,209 387.581,209.459 386,208.235 386,210 385.069,210 377,213.655 377,217 372.063,217 364.503,225.505 367,230.5 368.804,234.109 376.398,233.449 379.5,235 380.317,235.409 383.559,233.618 383,232.5 381.01,228.519 378.542,224.979 384.5,222 390.012,219.244 392.011,231 398,231 402.259,231 411.881,221.191 413.5,222 418.128,224.314 404.532,234.516 409.5,237 418.099,241.299 427.543,211.587 434,224.5 435.832,228.163 428.821,229.679 427.5,231 427.5,231 426.5,234 426.5,234 426.5,234 424.5,233 424.5,233 424.5,233 422.5,236 422.5,236 422.5,236 418,240.5 418,240.5 419.94,244.38 435.357,234.214 437,237.5 441.047,245.593 417.606,242.711 422,251.5 425.752,259.004 443.943,242.386 446,246.5 447.381,249.261 447.989,257.255 444.5,259 441.83,260.335 433.351,254.797 431,259.5 428.855,263.791 442.345,269.578 437.5,272 433.719,273.891 425.687,261.126 422,268.5 417.185,278.13 436.833,274.833 434,280.5 433.004,282.491 414.87,280.315 413.5,281 407.283,284.108 402.503,298.506 395,283.5 392.633,278.766 402.473,274.514 405.5,273 405.5,273 410.5,275 410.5,275 412.1,275.8 416.213,275.073 417,273.5 420.05,267.401 413.058,264.616 411,260.5 409.653,257.806 410.146,249.677 403.5,253 400.712,254.394 402.837,258.331 399.5,260 391.237,264.132 394.673,250.587 391.5,249 386.34,246.42 387.235,254 384.5,254 383.358,254 377.766,250.633 376.5,250 370.948,247.224 366.006,243.753 360.5,241 358.913,240.207 354,240.859 354,243 349.811,243 339.139,234 332,234 332,226.845 322.664,230 319,230 314.742,230 314.94,228.72 311.5,227 310.33,226.415 293.242,227 289.5,227 287.884,227 280,226.242 280,228 275.221,228 270.142,225.321 265.5,223 265.5,223 260,224 260,224 258.716,224 257.439,220.53 254.5,222 247.628,225.436 242.312,226.906 234.5,223 231.96,221.73 228,223.24 228,226 225.848,226 224.304,221.598 221.5,223 217.002,225.249 213.96,229 208.5,229 205.745,229 194,227.638 194,228 194,228 193,228 193,228 193,225.902 182.917,228 181,228 178.658,228 171,228.131 171,231 166.676,231 151,233.729 151,237  Z"/>

<path  fill="#FFFF00" stroke-width="0" stroke="#FFFF00" d = " M227 131 L225,141.5 C226.025,143.551 235.87,142.759 237,140.5 237.575,139.349 230.327,131 227,131  Z"/>

<path  fill="#FFFF00" stroke-width="0" stroke="#FFFF00" d = " M250 142 L249,143.5 C247.034,147.432 254.565,142 250,142  Z"/>

<path  fill="#FFFF00" stroke-width="0" stroke="#FFFF00" d = " M240 180 C240,180.266 229.806,184.347 228.5,185 L223.5,184 C222.349,184.576 220.223,189.946 221,191.5 222.705,194.911 242.271,204.115 246.5,202 L258.5,195 C261.467,193.517 272.819,190.137 270,184.5 267.038,178.576 258.603,183.551 253.5,181 249.842,179.171 244.35,180 240,180  Z"/>

<path  fill="#FFFF00" stroke-width="0" stroke="#FFFF00" d = " M92 214 L94,214 C94,211.436 92,211.436 92,214  Z"/>

<path  fill="#46A515" stroke-width="0" stroke="#46A515" d = " M78 214 C78,215.384 74.8113,215.123 76,217.5 78.6465,222.793 86.5252,214 78,214  Z"/>

<path  fill-rule="evenodd" fill="#FFFF00" stroke-width="0" stroke="#FFFF00" d = " M75 279 C75,284.827 81.5477,279 75,279  M50 269 C50,270.93 51.93,269 50,269  M120 252 C120,254.155 113.035,255.233 111.5,256 106.663,258.418 79.0045,263.509 84,273.5 L87,275.5 C91.8548,285.21 101.082,270.709 104.5,269 107.377,267.561 110.474,266.513 113.5,265 116.758,263.371 120.713,267.073 123,262.5 124.808,258.885 124.227,252 120,252  M130 248 C126.437,248 122.504,251 128,251 128,256.844 127.587,256.325 125,261.5 125,261.5 124,267.5 124,267.5 121.958,271.584 116.275,265.613 113.5,267 111.326,268.087 109.567,269.966 107.5,271 107.5,271 105,275.5 105,275.5 102.606,280.288 88.7943,285 85.5,285 85.5,285 78.5,292 78.5,292 78.5,292 77.5,289 77.5,289 75.0429,287.771 71.2221,288.861 69.5,288 69.5,288 64.5,282 64.5,282 64.5,282 59.5,281 59.5,281 56.6913,279.596 55.0754,274.788 53.5,274 46.1796,270.34 44.5076,280.515 38,267.5 35.0059,261.512 46,256.108 46,255.5 46,255.5 40,251.5 40,251.5 38.0877,247.675 41.2213,232.639 44.5,231 46.0585,230.221 51.5608,231.378 52,230.5 52,230.5 51,228 51,228 51,222.582 56.3347,220.083 60.5,218 66.5607,214.97 75.5619,222 83,222 86.9446,222 92.2291,214.865 94.5,216 97.7651,217.633 101.388,219.275 103,222.5 103.471,223.442 102.27,227 104.5,227 107.361,227 108,221.86 108,220 108.865,220 120.281,222.939 118,227.5 116.211,231.078 111.219,228.64 108.5,230 106.424,231.038 95.6445,236.072 91.5,234 89.8677,233.184 91.3213,229.589 92.5,229 95.0733,227.713 102.571,224.035 96.5,221 91.0099,218.255 85.7961,225 78,225 72.2329,225 59.2145,217.071 55,225.5 55,225.5 56,228.5 56,228.5 60.8232,238.146 69.9927,231.246 77.5,235 78.8411,235.671 82.1081,237.284 81,239.5 77.0696,247.361 61.9178,243.709 56.5,241 53.9401,239.72 49.9608,233.27 46.5,235 41.6893,237.405 40.013,248.256 45.5,251 47.9856,252.243 72.4766,248.547 68,257.5 65.0618,263.376 57.1084,261 52.5,261 52.5,261 46,262.5 46,262.5 46,262.5 53.5,264 53.5,264 58.3238,266.412 49.9719,268.736 52.5,270 52.5,270 62.5,269 62.5,269 65.4587,270.479 65.2952,279 69.5,279 69.5,279 70,276.5 70,276.5 69.0151,274.53 63.9563,273.587 66,269.5 67.474,266.552 70.3678,269.066 72.5,268 73.3445,267.578 77.8527,257.324 84.5,254 88.1178,252.191 93.9057,253.797 97.5,252 108.099,246.701 119.886,244.307 130.5,239 133.934,237.283 137,239.813 137,243 135.576,243 130,246.98 130,248  Z"/>

<path  fill-rule="evenodd" fill="#FFFF00" stroke-width="0" stroke="#FFFF00" d = " M404 266 C404,272.187 413.192,266 404,266  M368 256 C368,262.885 372.049,262 376.5,262 L378.5,265 C379.589,265.545 385,265.251 385,263.5 385,261.79 380.793,264.147 380.5,264 L378.5,261 L373.5,260 C371.293,258.897 370.207,256 368,256  M363 253 C365.293,253 365,253.997 365,256 365,272.726 382.943,265.443 386.5,269 392.313,274.813 386.843,275.185 389,279.5 390.937,283.373 394.914,291.207 398.5,293 406.255,296.878 407.35,289.575 412.5,287 417.31,284.595 429.097,286.702 434.5,284 437.829,282.335 434.752,277.997 436,275.5 437.57,272.359 442.108,275.284 444,271.5 445.989,267.521 441.915,264.67 442,264.5 442,264.5 448.5,263 448.5,263 448.5,263 451,256.5 451,256.5 453.563,251.373 443.898,238.295 442,234.5 442,234.5 437,231.5 437,231.5 437,231.5 440,226.5 440,226.5 438.374,223.247 436.167,220.834 432.5,219 431.331,218.415 412.269,218.615 411.5,219 407.157,221.171 401.811,228.156 395.5,225 392.319,223.409 390.679,218.089 390.5,218 387.204,216.352 377,222.898 377,217 372.063,217 364.503,225.505 367,230.5 368.804,234.109 376.398,233.449 379.5,235 380.317,235.409 383.559,233.618 383,232.5 381.01,228.519 378.542,224.979 384.5,222 390.012,219.244 392.011,231 398,231 402.259,231 411.881,221.191 413.5,222 418.128,224.314 404.532,234.516 409.5,237 418.099,241.299 427.543,211.587 434,224.5 435.832,228.163 428.821,229.679 427.5,231 427.5,231 426.5,234 426.5,234 426.5,234 424.5,233 424.5,233 424.5,233 422.5,236 422.5,236 422.5,236 418,240.5 418,240.5 419.94,244.38 435.357,234.214 437,237.5 441.047,245.593 417.606,242.711 422,251.5 425.752,259.004 443.943,242.386 446,246.5 447.381,249.261 447.989,257.255 444.5,259 441.83,260.335 433.351,254.797 431,259.5 428.855,263.791 442.345,269.578 437.5,272 433.719,273.891 425.687,261.126 422,268.5 417.185,278.13 436.833,274.833 434,280.5 433.004,282.491 414.87,280.315 413.5,281 407.283,284.108 402.503,298.506 395,283.5 392.633,278.766 402.473,274.514 405.5,273 405.5,273 410.5,275 410.5,275 412.1,275.8 416.213,275.073 417,273.5 420.05,267.401 413.058,264.616 411,260.5 409.653,257.806 410.146,249.677 403.5,253 400.712,254.394 402.837,258.331 399.5,260 391.237,264.132 394.673,250.587 391.5,249 386.34,246.42 387.235,254 384.5,254 383.358,254 377.766,250.633 376.5,250 370.948,247.224 366.006,243.753 360.5,241 358.913,240.207 354,240.859 354,243 354,245.821 358.316,251 361,251 361,251 362,252 362,252 362,252 363,253 363,253  Z"/>

<path  fill="#46A515" stroke-width="0" stroke="#46A515" d = " M401 218 L399,221.5 C400.484,224.468 410.486,218 401,218  Z"/>

<path  fill="#FFFF00" stroke-width="0" stroke="#FFFF00" d = " M260 224 C258.716,224 257.439,220.53 254.5,222 247.628,225.436 242.312,226.906 234.5,223 231.96,221.73 228,223.24 228,226 228,239.718 260,242.237 260,224  Z"/>

<path  fill-rule="evenodd" fill="#9953FF" stroke-width="0" stroke="#9953FF" d = " M262 258 L258,260.5 C258,261.193 258,262.807 258,263.5 L260,265.5 C260.539,266.577 259.009,271 261.5,271 264.085,271 272.5,262.501 271,259.5 270.278,258.055 263.768,258 262,258  M247 341 L250.5,338 C256.697,334.901 267.644,341 272,341 272,338.742 287.487,339.006 289.5,338 289.5,338 298.5,332 298.5,332 298.5,332 309.5,332 309.5,332 315.094,329.203 334,320.944 334,313 330.892,313 322.482,319.465 320,314.5 320,314.5 322,310 322,310 315.885,310 317.097,291.694 315,287.5 311.959,281.418 306.553,283.527 301.5,281 292.988,276.744 307.106,269 312,269 312,265.639 314.614,263 318,263 318,263 320,261 320,261 320,258.382 317,259.349 317,257 317,257 317,256 317,256 317,256 316,255 316,255 313.25,255 307.517,244.466 309,241.5 310.642,238.216 312.582,235.918 315.5,233 315.5,233 319,230 319,230 314.742,230 314.94,228.72 311.5,227 310.33,226.415 293.242,227 289.5,227 287.884,227 280,226.242 280,228 280,228 278,233 278,233 279.639,233 280.455,231 281.5,231 287.555,231 285.151,240.199 284,242.5 282.428,245.643 274.86,249.32 271.5,251 271.5,251 269.5,255 269.5,255 269.5,255 262,256 262,256 262,256 261,257 261,257 261,258.2 248,265.397 248,257 245.877,257 243.296,257 241,257 241,257 239,258.5 239,258.5 233.56,263.94 232.03,256 227,256 227,256 228,259 228,259 234.241,259 227.356,272.428 222.5,270 217.359,267.43 213.86,258 222,258 222,258 223,256 223,256 213.755,256 210.955,254.411 207,246.5 205.466,243.433 201.923,242.347 200,238.5 200,238.5 203,233 203,233 203,229.395 199.431,232 198.5,232 196.887,232 196.456,228 194,228 194,228 193,228 193,228 192.217,228 181,231.563 181,228 178.658,228 171,228.131 171,231 171,233.172 177.934,239.632 174,247.5 172.258,250.984 166,255.037 166,259 166,259 166,261 166,261 174.184,261 170,267.176 170,270 170,270 171,270 171,270 171,270 172,270 172,270 172,270 178.5,268 178.5,268 200.989,268 172.683,287.134 171,290.5 169.029,294.442 171.313,308 166,308 166,308 170,313.5 170,313.5 170,315.105 162.989,318.745 161.5,318 157.775,316.138 147,302.761 147,298 145.742,298 145.361,305.221 146,306.5 149.366,313.232 156.408,320.454 163.5,324 168.321,326.411 173.727,327.614 178.5,330 178.5,330 183.5,330 183.5,330 186.097,331.298 188.59,334.045 190.5,335 193.059,336.279 200.429,336.964 204.5,339 204.5,339 211.5,339 211.5,339 211.5,339 217,342 217,342 221.245,342 226.912,334.706 235.5,339 236.43,339.465 240,339.817 240,341 242.296,341 244.877,341 247,341  Z"/>

<path  fill="#34FF0D" stroke-width="0" stroke="#34FF0D" d = " M317 256 L317,257 C319.091,257 326.465,257.983 328.5,259 328.5,259 333.5,264 333.5,264 338.82,266.66 340.499,251.498 339,248.5 337.153,244.806 337.762,240.024 336,236.5 335.306,235.112 332,236.73 332,234 332,226.845 322.664,230 319,230 319,230 315.5,233 315.5,233 312.582,235.918 310.642,238.216 309,241.5 307.517,244.466 313.25,255 316,255 316,255 317,256 317,256  Z"/>

<path  fill="#34FF0D" stroke-width="0" stroke="#34FF0D" d = " M151 237 C151,246.247 138.323,260 158.5,260 161.057,260 164.044,259 166,259 166,255.037 172.258,250.984 174,247.5 177.934,239.632 171,233.172 171,231 166.676,231 151,233.729 151,237  Z"/>

<path  fill="#EB57FF" stroke-width="0" stroke="#EB57FF" d = " M227 256 C232.03,256 233.56,263.94 239,258.5 L241,257 C241,257 236.5,251 236.5,251 236.5,251 230.5,249 230.5,249 230.5,249 220.5,236 220.5,236 220.5,236 209.5,231 209.5,231 209.5,231 203,233 203,233 203,233 200,238.5 200,238.5 201.923,242.347 205.466,243.433 207,246.5 210.955,254.411 213.755,256 223,256 223,256 227,256 227,256  Z"/>

<path  fill="#EB57FF" stroke-width="0" stroke="#EB57FF" d = " M248 257 C248,265.397 261,258.2 261,257 261,257 262,256 262,256 262,256 269.5,255 269.5,255 269.5,255 271.5,251 271.5,251 274.86,249.32 282.428,245.643 284,242.5 285.151,240.199 287.555,231 281.5,231 280.455,231 279.639,233 278,233 271.328,233 262.934,236.631 260,242.5 259.057,244.385 259.075,246.713 256.5,248 253.609,249.446 248,252.964 248,257  Z"/>

<path  fill="#FFFF00" stroke-width="0" stroke="#FFFF00" d = " M415 241 C415,242.93 416.93,241 415,241  Z"/>

<path  fill="#00FFFF" stroke-width="0" stroke="#00FFFF" d = " M130 248 C126.437,248 122.504,251 128,251 128,249.519 130,250.215 130,248  Z"/>

<path  fill="#00FFFF" stroke-width="0" stroke="#00FFFF" d = " M361 251 L362,252 C362,252 361,251 361,251  Z"/>

<path  fill="#00FFFF" stroke-width="0" stroke="#00FFFF" d = " M120 252 C120,254.155 113.035,255.233 111.5,256 106.663,258.418 79.0045,263.509 84,273.5 L87,275.5 C91.8548,285.21 101.082,270.709 104.5,269 107.377,267.561 110.474,266.513 113.5,265 116.758,263.371 120.713,267.073 123,262.5 124.808,258.885 124.227,252 120,252  Z"/>

<path  fill="#00FFFF" stroke-width="0" stroke="#00FFFF" d = " M363 253 C365.293,253 365,253.997 365,256 363.423,256 363,254.238 363,253  Z"/>

<path  fill="#FAF4F7" stroke-width="0" stroke="#FAF4F7" d = " M222 258 C222,258.28 226.967,259 228,259 228,259 227,256 227,256 227,256 223,256 223,256 223,256 222,258 222,258  Z"/>

<path  fill="#00FFFF" stroke-width="0" stroke="#00FFFF" d = " M368 256 C368,262.885 372.049,262 376.5,262 L378.5,265 C379.589,265.545 385,265.251 385,263.5 385,261.79 380.793,264.147 380.5,264 L378.5,261 L373.5,260 C371.293,258.897 370.207,256 368,256  Z"/>

<path  fill="#B31C35" stroke-width="0" stroke="#B31C35" d = " M222 258 C213.86,258 217.359,267.43 222.5,270 227.356,272.428 234.241,259 228,259 226.967,259 222,258.28 222,258  Z"/>

<path  fill="#B31C35" stroke-width="0" stroke="#B31C35" d = " M262 258 L258,260.5 C258,261.193 258,262.807 258,263.5 L260,265.5 C260.539,266.577 259.009,271 261.5,271 264.085,271 272.5,262.501 271,259.5 270.278,258.055 263.768,258 262,258  Z"/>

<path  fill="#FA8072" stroke-width="0" stroke="#FA8072" d = " M147 298 C147,302.761 157.775,316.138 161.5,318 162.989,318.745 170,315.105 170,313.5 L166,308 C160.757,308 155.361,292.778 158,287.5 158,287.5 165,278.5 165,278.5 166.412,275.675 165.051,270 170,270 170,267.176 174.184,261 166,261 163.173,261 161.837,263.831 159.5,265 148.091,270.705 147,287.545 147,298  Z"/>

<path  fill="#FA8072" stroke-width="0" stroke="#FA8072" d = " M322 310 L320,314.5 C322.482,319.465 330.892,313 334,313 334,309.414 341,308.041 341,303.5 341,300.82 343.827,292.154 342,288.5 337.769,280.038 332.999,261 320,261 320,261 318,263 318,263 318,265.457 321.872,274 321,274 321,280.096 329,281.815 329,288 329,288 330,289 330,289 330,294.061 329.187,302.125 327,306.5 325.934,308.633 322,305.568 322,310  Z"/>

<path  fill="#00FFFF" stroke-width="0" stroke="#00FFFF" d = " M404 266 C404,272.187 413.192,266 404,266  Z"/>

<path  fill="#5BF1FF" stroke-width="0" stroke="#5BF1FF" d = " M172 270 L178.5,268 C200.989,268 172.683,287.134 171,290.5 169.029,294.442 171.313,308 166,308 160.757,308 155.361,292.778 158,287.5 158,287.5 165,278.5 165,278.5 166.412,275.675 165.051,270 170,270 170,270 171,270 171,270 171,271.186 172,271.186 172,270  Z"/>

<path  fill="#00FFFF" stroke-width="0" stroke="#00FFFF" d = " M50 269 C50,270.93 51.93,269 50,269  Z"/>

<path  fill="#5BF1FF" stroke-width="0" stroke="#5BF1FF" d = " M330 289 C330,294.061 329.187,302.125 327,306.5 325.934,308.633 322,305.568 322,310 315.885,310 317.097,291.694 315,287.5 311.959,281.418 306.553,283.527 301.5,281 292.988,276.744 307.106,269 312,269 315.541,269 318.151,274 321,274 321,280.096 329,281.815 329,288 329,288 330,289 330,289  Z"/>

<path  fill="#00FFFF" stroke-width="0" stroke="#00FFFF" d = " M75 279 C75,284.827 81.5477,279 75,279  Z"/>

<path  fill="#46A515" stroke-width="0" stroke="#46A515" d = " M374 280 C374,283.298 368,286.295 368,291 368,298.732 366.547,304.523 373.5,308 375.409,308.954 379.119,312.261 381,308.5 L380,304.5 C381.584,301.333 392.651,300.802 389,293.5 386.727,288.953 379.818,293.135 378,289.5 376.231,285.962 381,284.677 381,282.5 381,281.122 374.868,280 374,280  Z"/>

<path  fill="#46A515" stroke-width="0" stroke="#46A515" d = " M445 285 C445,286.423 443.022,288.544 444,290.5 445.62,293.741 454.107,285 445,285  Z"/>

<path  fill="#46A515" stroke-width="0" stroke="#46A515" d = " M85 297 L83,299.5 C82.0966,301.307 78.1836,312 84.5,312 90.8099,312 83,307.381 83,306.5 83,305.41 91.6259,297 85,297  Z"/>

<path  fill="#46A515" stroke-width="0" stroke="#46A515" d = " M391 320 C391,323.951 384.156,320.172 382.5,321 378.615,322.942 357.769,326.038 362,334.5 367.024,344.549 394.9,350.7 401,338.5 404.509,331.482 400.288,320 391,320  Z"/>

<path  fill="#FF3427" stroke-width="0" stroke="#FF3427" d = " M240 341 C240,354.851 217,353.476 217,342 221.245,342 226.912,334.706 235.5,339 236.43,339.465 240,339.817 240,341  Z"/>

<path  fill="#FF3427" stroke-width="0" stroke="#FF3427" d = " M247 341 L250.5,338 C256.697,334.901 267.644,341 272,341 272,353.347 247,352.569 247,341  Z"/>

</g>
</svg>
