<svg xmlns="http://www.w3.org/2000/svg" xmlns:xlink="http://www.w3.org/1999/xlink" height="512" width="512">
<g>
<rect width="512" height="512" fill="#000000"  stroke-width="0" /> 
<path  fill-rule="evenodd" fill="#FFFF00" stroke-width="0" stroke="#FFFF00" d = " M401 199 C401,201.456 397,201.887 397,203.5 397,207.081 399.305,205.403 400.5,206 L401.5,209 C406.603,209 406.375,199 401,199  M379 215 C379,218.419 387.736,214 388.5,214 L395.5,212 C401.781,208.859 401.612,217.277 408,204.5 410.903,198.695 405.116,190.732 403,186.5 400.189,180.877 405.965,173.43 403,167.5 L400,158.5 C396.676,151.852 391.283,146.066 388,139.5 386.825,137.15 380.695,136.098 378.5,135 L376.5,131 L370.5,132 L360.5,121 C355.678,118.589 352.046,118.773 346.5,116 342.026,113.763 335.62,121.56 330.5,119 328.911,118.205 323.196,110 320.5,110 314.397,110 307.429,110.465 300.5,107 L297.5,101 C294.396,99.4478 289.642,100.071 285.5,98 280.393,95.4464 275.375,86.4377 268.5,83 262.033,79.7664 252.999,82.2494 246.5,79 L236,80 C221.827,80 218.057,82.2213 206.5,88 L204.5,91 L199,95.5 C198.135,97.2304 196.643,107.429 195.5,108 193.896,108.802 193.899,104.7 192.5,104 L187.5,105 C183.077,107.211 180.671,110.915 176.5,113 L170.5,114 C166.002,116.249 161.214,120.143 157.5,122 L152.5,117 L140.5,118 C132.814,121.843 127.76,128.37 120.5,132 L119.5,135 L116.5,135 L115.5,144 C112.583,145.459 112.225,140.138 110.5,141 108.593,141.953 96.941,152.618 96,154.5 92.6477,161.205 78.0616,188.623 83,198.5 L90,205.5 C92.8768,211.254 94.7643,212.132 100.5,215 L104,218 C104,210.393 100,203.85 100,194 100,192.579 98.5562,187.528 97.5,187 93.9374,185.219 90.9838,194.468 89,190.5 84.554,181.608 96.2071,166.293 102,160.5 103.865,158.635 105.619,152 108.5,152 109.935,152 110.484,155.531 110,156.5 108.02,160.459 108,166.281 108,171 108,174.679 110.533,174.566 112,177.5 115.388,184.275 110.438,212.375 114,219.5 115.038,221.576 122.383,218.559 123.5,218 132.311,213.595 137.283,198.065 133,189.5 133,189.5 128,182.5 128,182.5 126.721,179.942 128,171.787 128,169.5 128,165.185 133.953,150.405 133,148.5 129.758,142.015 122.338,150.176 119,143.5 117.888,141.276 120.663,137.918 122.5,137 125.611,135.444 145.267,122.383 146.5,123 148.456,123.978 150.358,126.784 149,129.5 149,129.5 143,137.5 143,137.5 139.898,143.705 143,157.033 143,164.5 143,167.515 141.604,177.552 144.5,179 149.987,181.743 157.496,166.507 159,163.5 163.298,154.904 155.945,135.61 159,129.5 159.925,127.649 162.697,126.901 164.5,126 166.03,125.235 164.219,122.141 166.5,121 169.316,119.592 172.799,119.351 175.5,118 178.452,116.524 180.981,109.74 185.5,112 185.5,112 185.5,118 185.5,118 182.36,119.57 174.391,128.718 173,131.5 168.584,140.332 173.675,152.149 171,157.5 165.896,167.708 161.117,178.265 156,188.5 154.102,192.296 150.268,200.384 155.5,203 156.952,203.726 173.825,190.849 175,188.5 180.47,177.561 181.501,164.497 187,153.5 187,153.5 187,136.5 187,136.5 188.792,132.916 198.685,118.407 201.5,117 201.5,117 207.5,112 207.5,112 219.454,106.023 232.566,103 247,103 252.448,103 263.7,103.6 268.5,106 268.5,106 272.5,109 272.5,109 272.5,109 273,106.5 273,106.5 269.143,98.7855 259.845,102.172 257.5,101 249.652,97.0759 242.992,96 232.5,96 232.5,96 214,95.5 214,95.5 207.873,83.246 240.05,84 247,84 256.797,84 273.695,88.891 278,97.5 279.172,99.8432 278.864,103.228 280,105.5 281.76,109.021 287.186,105.872 289,109.5 289,109.5 289,116.5 289,116.5 291.321,121.142 294.732,124.963 297,129.5 299.155,133.81 295.556,143.612 297,146.5 298.494,149.489 297.535,153.57 299,156.5 301.03,160.56 302.929,164.357 305,168.5 305,168.5 307,182.5 307,182.5 309.269,187.038 322.559,200.971 328.5,198 331.275,196.613 325.354,183.208 324,180.5 319.719,171.939 318.274,161.047 314,152.5 314,152.5 314,135.5 314,135.5 312.14,131.781 304.765,118.868 310.5,116 312.993,114.754 315.739,117.119 317.5,118 319.453,118.977 324.83,117.159 326,119.5 332.457,132.414 319.571,147.641 326,160.5 328.861,166.222 330.717,172 337.5,172 337.5,172 340.5,173 340.5,173 343.252,171.624 339.245,164.01 340,162.5 341.421,159.658 343.735,139.971 342,136.5 340.746,133.992 337.286,128.929 339,125.5 342.787,117.925 363.366,126.232 366,131.5 367.531,134.562 359.389,142 357.5,142 356.849,142 355.849,139.802 355,141.5 352.54,146.421 358,168.482 358,176 358,181.452 350.635,180.23 349,183.5 342.293,196.915 353.595,208.547 364.5,214 366.427,214.963 368.281,210.939 369,209.5 370.555,206.389 372,192.773 372,189 372,184.873 370.083,166.335 371,164.5 372.249,162.002 378,167.107 378,157.5 378,153.68 371.208,140.146 375.5,138 375.5,138 382,142.5 382,142.5 384.756,148.012 403.446,169.608 401,174.5 396.279,183.942 390.577,166.462 385.5,169 383.934,169.783 384,179.452 384,181.5 384,181.5 382,202.5 382,202.5 382,202.5 378,206.5 378,206.5 376.716,209.068 379,212.986 379,215  Z"/>

<path  fill-rule="evenodd" fill="#00FFFF" stroke-width="0" stroke="#00FFFF" d = " M422 240 C422,244.123 426.123,240 422,240  M250 223 C250,225.091 253.746,223 250,223  M247 220 C247,224.123 251.123,220 247,220  M238 220 L237,223.5 C237.771,225.042 245.983,225.534 247,223.5 248.89,219.719 239.653,220 238,220  M234 142 C234,143.614 230.69,143 229.5,143 224.347,143 219.739,142.881 215.5,145 203.11,151.195 201.44,160.62 196,171.5 195.037,173.426 187.836,178.172 189,180.5 191.479,185.459 204.76,184.13 210.5,187 217.982,190.741 222.77,188.365 229.5,185 231.913,183.794 235.042,184.229 237.5,183 243.639,179.93 262.994,184.247 268.5,187 272.851,189.175 287.836,181.832 291.5,180 295.991,177.754 288.272,168.044 287,165.5 L286,159.5 C280.959,149.419 271.639,144 260,144 252.725,144 242.394,142 234,142  M233 113 C233,115.933 225.628,115.936 223.5,117 220.075,118.712 215.924,119.288 212.5,121 208.514,122.993 196.758,138.015 199,142.5 200.011,144.523 209.738,141 212,141 L225.5,136 C227.345,135.077 244.815,135 247.5,135 259.394,135 269.62,138.06 279.5,143 280.769,143.634 289,143.426 289,141.5 L286,136.5 C280.185,124.869 279.033,123.266 266.5,117 L260.5,117 C251.126,112.313 244.186,113 233,113  M282 108 C282,109.93 283.93,108 282,108  M359 253 L361.5,252 C362.826,252.663 361.695,265.903 369.5,262 377.556,257.972 400.543,270.479 403.5,269 407.708,266.896 416.445,260.472 407.5,256 L397.5,256 C388.005,251.252 376.133,252.816 366.5,248 362.839,246.169 353.018,245.464 356,239.5 357.631,236.237 368.048,240.774 370.5,242 377.325,245.412 390.189,241.844 396.5,245 399.452,246.476 408.948,253 411,253 411,250.687 412.452,248 415,248 420.132,248 425.941,249.78 431.5,247 437.101,244.199 438.465,234.429 436,229.5 436,229.5 431.5,227 431.5,227 423.086,222.793 421.179,251.34 410.5,246 410.5,246 407.5,243 407.5,243 401.615,237.115 406.14,235.68 411.5,233 411.5,233 416,228.5 416,228.5 414.987,226.474 410.294,225.897 408.5,225 400.022,220.761 398.271,214.614 387.5,220 380.152,223.674 398.441,228.53 391.5,232 384.916,235.292 370.025,220 377,220 377,218.576 377.362,215 379,215 379,212.986 376.716,209.068 378,206.5 378,206.5 382,202.5 382,202.5 382,202.5 384,181.5 384,181.5 384,179.452 383.934,169.783 385.5,169 390.577,166.462 396.279,183.942 401,174.5 403.446,169.608 384.756,148.012 382,142.5 382,142.5 375.5,138 375.5,138 371.208,140.146 378,153.68 378,157.5 378,167.107 372.249,162.002 371,164.5 370.083,166.335 372,184.873 372,189 372,192.773 370.555,206.389 369,209.5 368.281,210.939 366.427,214.963 364.5,214 353.595,208.547 342.293,196.915 349,183.5 350.635,180.23 358,181.452 358,176 358,168.482 352.54,146.421 355,141.5 355.849,139.802 356.849,142 357.5,142 359.389,142 367.531,134.562 366,131.5 363.366,126.232 342.787,117.925 339,125.5 337.286,128.929 340.746,133.992 342,136.5 343.735,139.971 341.421,159.658 340,162.5 339.245,164.01 343.252,171.624 340.5,173 340.5,173 337.5,172 337.5,172 330.717,172 328.861,166.222 326,160.5 319.571,147.641 332.457,132.414 326,119.5 324.83,117.159 319.453,118.977 317.5,118 315.739,117.119 312.993,114.754 310.5,116 304.765,118.868 312.14,131.781 314,135.5 314,135.5 314,152.5 314,152.5 318.274,161.047 319.719,171.939 324,180.5 325.354,183.208 331.275,196.613 328.5,198 322.559,200.971 309.269,187.038 307,182.5 307,182.5 305,168.5 305,168.5 302.929,164.357 301.03,160.56 299,156.5 297.535,153.57 298.494,149.489 297,146.5 295.556,143.612 299.155,133.81 297,129.5 294.732,124.963 291.321,121.142 289,116.5 289,116.5 289,109.5 289,109.5 287.186,105.872 281.76,109.021 280,105.5 278.864,103.228 279.172,99.8432 278,97.5 273.695,88.891 256.797,84 247,84 240.05,84 207.873,83.246 214,95.5 214,95.5 232.5,96 232.5,96 242.992,96 249.652,97.0759 257.5,101 259.845,102.172 269.143,98.7855 273,106.5 273,106.5 272.5,109 272.5,109 272.5,109 268.5,106 268.5,106 263.7,103.6 252.448,103 247,103 232.566,103 219.454,106.023 207.5,112 207.5,112 201.5,117 201.5,117 198.685,118.407 188.792,132.916 187,136.5 187,136.5 187,153.5 187,153.5 181.501,164.497 180.47,177.561 175,188.5 173.825,190.849 156.952,203.726 155.5,203 150.268,200.384 154.102,192.296 156,188.5 161.117,178.265 165.896,167.708 171,157.5 173.675,152.149 168.584,140.332 173,131.5 174.391,128.718 182.36,119.57 185.5,118 185.5,118 185.5,112 185.5,112 180.981,109.74 178.452,116.524 175.5,118 172.799,119.351 169.316,119.592 166.5,121 164.219,122.141 166.03,125.235 164.5,126 162.697,126.901 159.925,127.649 159,129.5 155.945,135.61 163.298,154.904 159,163.5 157.496,166.507 149.987,181.743 144.5,179 141.604,177.552 143,167.515 143,164.5 143,157.033 139.898,143.705 143,137.5 143,137.5 149,129.5 149,129.5 150.358,126.784 148.456,123.978 146.5,123 145.267,122.383 125.611,135.444 122.5,137 120.663,137.918 117.888,141.276 119,143.5 122.338,150.176 129.758,142.015 133,148.5 133.953,150.405 128,165.185 128,169.5 128,171.787 126.721,179.942 128,182.5 128,182.5 133,189.5 133,189.5 137.283,198.065 132.311,213.595 123.5,218 122.383,218.559 115.038,221.576 114,219.5 110.438,212.375 115.388,184.275 112,177.5 110.533,174.566 108,174.679 108,171 108,166.281 108.02,160.459 110,156.5 110.484,155.531 109.935,152 108.5,152 105.619,152 103.865,158.635 102,160.5 96.2071,166.293 84.554,181.608 89,190.5 90.9838,194.468 93.9374,185.219 97.5,187 98.5562,187.528 100,192.579 100,194 100,203.85 104,210.393 104,218 106.556,218 108,222.016 108,224 108,224 110,227.5 110,227.5 108.058,231.384 100.784,231.142 98.5,230 95.3593,228.43 98.2845,223.892 94.5,222 92.9788,221.239 89.053,222.276 86.5,221 80.509,218.004 70.8146,228.843 66.5,231 66.5,231 61.5,231 61.5,231 59.5987,231.951 57.9477,235.395 59,237.5 64.1117,247.723 76.5168,235.008 80.5,237 83.1276,238.314 82.0648,242.282 83.5,243 85.8628,244.181 100.481,242 105.5,242 105.5,242 112.5,244 112.5,244 112.5,244 113,240.5 113,240.5 113,240.5 118.5,240 118.5,240 121.484,240 131.26,236.02 133,239.5 134.296,242.093 123.361,247 121,247 121,247 114.5,249 114.5,249 106.619,252.941 92.4441,245.528 85.5,249 82.242,250.629 74.3695,254.239 77,259.5 80.4607,266.421 88.3041,259.098 90.5,258 90.5,258 94.5,258 94.5,258 94.5,258 96.5,255 96.5,255 96.5,255 98.5,258 98.5,258 102.288,258 108.374,257.937 112.5,260 112.5,260 119.5,263 119.5,263 121.768,261.866 129,246.83 129,253 132.794,253 137.128,246.686 140.5,245 142.847,243.826 167.229,238 170,238 170,236.571 175.655,235 177,235 177,232.539 180.378,233 182,233 182,231.379 185.283,230 187,230 187,230 189,230 189,230 189,224.948 200.02,228 203,228 203,228 205,229 205,229 206.774,229 212,228.727 212,231 212,231 215,231 215,231 215,229.225 215.741,225.62 218.5,227 218.5,227 227.5,238 227.5,238 234.209,241.355 241.35,241 249.5,241 254.076,241 264.358,236.784 267,231.5 267,231.5 269.5,222 269.5,222 273.276,222 273,228.755 273,231 274.048,231 276,230.527 276,232 276,232 278.5,229 278.5,229 280.551,227.975 289.103,230 292,230 298.173,230 302.638,233 308,233 308,233 316,237 316,237 318.737,237 349.987,242.744 352.5,244 355.262,245.381 359,250.2 359,253  Z"/>

<path  fill="#FFFF00" stroke-width="0" stroke="#FFFF00" d = " M282 108 C282,109.93 283.93,108 282,108  Z"/>

<path  fill="#FFFF00" stroke-width="0" stroke="#FFFF00" d = " M233 113 C233,115.933 225.628,115.936 223.5,117 220.075,118.712 215.924,119.288 212.5,121 208.514,122.993 196.758,138.015 199,142.5 200.011,144.523 209.738,141 212,141 L225.5,136 C227.345,135.077 244.815,135 247.5,135 259.394,135 269.62,138.06 279.5,143 280.769,143.634 289,143.426 289,141.5 L286,136.5 C280.185,124.869 279.033,123.266 266.5,117 L260.5,117 C251.126,112.313 244.186,113 233,113  Z"/>

<path  fill-rule="evenodd" fill="#FFFF00" stroke-width="0" stroke="#FFFF00" d = " M243 165 C243,166.615 233.414,166.328 235,169.5 238.691,176.882 263.249,165 248,165 L243,165  M234 142 C234,143.614 230.69,143 229.5,143 224.347,143 219.739,142.881 215.5,145 203.11,151.195 201.44,160.62 196,171.5 195.037,173.426 187.836,178.172 189,180.5 191.479,185.459 204.76,184.13 210.5,187 217.982,190.741 222.77,188.365 229.5,185 231.913,183.794 235.042,184.229 237.5,183 243.639,179.93 262.994,184.247 268.5,187 272.851,189.175 287.836,181.832 291.5,180 295.991,177.754 288.272,168.044 287,165.5 L286,159.5 C280.959,149.419 271.639,144 260,144 252.725,144 242.394,142 234,142  Z"/>

<path  fill="#00FFFF" stroke-width="0" stroke="#00FFFF" d = " M243 165 C243,166.615 233.414,166.328 235,169.5 238.691,176.882 263.249,165 248,165 L243,165  Z"/>

<path  fill="#00FFFF" stroke-width="0" stroke="#00FFFF" d = " M401 199 C401,201.456 397,201.887 397,203.5 397,207.081 399.305,205.403 400.5,206 L401.5,209 C406.603,209 406.375,199 401,199  Z"/>

<path  fill-rule="evenodd" fill="#FFFF00" stroke-width="0" stroke="#FFFF00" d = " M434 256 C434,261.456 438.529,256 434,256  M359 253 L361.5,252 C362.826,252.663 361.695,265.903 369.5,262 377.556,257.972 400.543,270.479 403.5,269 407.708,266.896 416.445,260.472 407.5,256 L397.5,256 C388.005,251.252 376.133,252.816 366.5,248 362.839,246.169 353.018,245.464 356,239.5 357.631,236.237 368.048,240.774 370.5,242 377.325,245.412 390.189,241.844 396.5,245 399.452,246.476 408.948,253 411,253 413.75,253 415,252.3 415,248 420.132,248 425.941,249.78 431.5,247 437.101,244.199 438.465,234.429 436,229.5 436,229.5 431.5,227 431.5,227 423.086,222.793 421.179,251.34 410.5,246 410.5,246 407.5,243 407.5,243 401.615,237.115 406.14,235.68 411.5,233 411.5,233 416,228.5 416,228.5 414.987,226.474 410.294,225.897 408.5,225 400.022,220.761 398.271,214.614 387.5,220 380.152,223.674 398.441,228.53 391.5,232 384.916,235.292 370.025,220 377,220 377,220 380.5,221 380.5,221 380.5,221 382.5,218 382.5,218 391.952,213.274 404.113,211.725 410,223.5 411.103,225.707 419.092,226 420.5,226 420.78,226 427.185,219.343 434.5,223 442.141,226.821 442.478,238.545 439,245.5 438.315,246.869 443.606,253.288 439,262.5 439,262.5 434.5,265 434.5,265 431.988,266.256 428.373,268 425.5,268 424.226,268 420.221,257 417.5,257 414.83,257 416.595,262.309 416,263.5 416,263.5 413.5,264 413.5,264 413.5,264 407.5,271 407.5,271 399.653,274.923 386.937,269.718 379.5,266 375.848,264.174 367.677,267.589 360.5,264 360.5,264 359,253 359,253  Z"/>

<path  fill-rule="evenodd" fill="#FFFF00" stroke-width="0" stroke="#FFFF00" d = " M75 250 C75,252.091 78.7458,250 75,250  M51 245 C51,247.281 52.7281,253.886 56.5,252 60.8012,249.849 53.2487,245 51,245  M108 224 L103.5,225 C100.451,223.476 90.1842,211.158 82.5,215 79.7396,216.38 77.22,217.64 74.5,219 71.4336,220.533 71.2328,225.634 68.5,227 64.5901,228.955 59.4154,229.042 55.5,231 52.2872,232.606 53.2082,236.084 52,238.5 51.3739,239.752 48.1475,240.205 47,242.5 46.3063,243.887 50,251.435 50,253.5 50,255.223 54.4945,256.497 55.5,257 L58.5,255 C60.2009,254.15 65.7855,256.357 68.5,255 L69.5,253 C71.9906,253 70.4614,257.423 71,258.5 L79.5,268 C81.1871,268 89.1398,269.68 92.5,268 95.4534,266.523 97.4477,261.026 97.5,261 L102,263 C106.93,263 112.409,262.955 116.5,265 117.772,265.636 120.879,268.81 122.5,268 L125,262.5 C126.492,259.516 129,257.615 129,253 129,246.83 121.768,261.866 119.5,263 119.5,263 112.5,260 112.5,260 108.374,257.937 102.288,258 98.5,258 98.5,258 96.5,255 96.5,255 96.5,255 94.5,258 94.5,258 94.5,258 90.5,258 90.5,258 88.3041,259.098 80.4607,266.421 77,259.5 74.3695,254.239 82.242,250.629 85.5,249 92.4441,245.528 106.619,252.941 114.5,249 114.5,249 121,247 121,247 123.361,247 134.296,242.093 133,239.5 131.26,236.02 121.484,240 118.5,240 118.5,240 113,240.5 113,240.5 113,240.5 112.5,244 112.5,244 112.5,244 105.5,242 105.5,242 100.481,242 85.8628,244.181 83.5,243 82.0648,242.282 83.1276,238.314 80.5,237 76.5168,235.008 64.1117,247.723 59,237.5 57.9477,235.395 59.5987,231.951 61.5,231 61.5,231 66.5,231 66.5,231 70.8146,228.843 80.509,218.004 86.5,221 89.053,222.276 92.9788,221.239 94.5,222 98.2845,223.892 95.3593,228.43 98.5,230 100.784,231.142 108.058,231.384 110,227.5 110,227.5 108,224 108,224  Z"/>

<path  fill="#46A515" stroke-width="0" stroke="#46A515" d = " M412 217 L411,219.5 C414.408,226.317 421.543,217 412,217  Z"/>

<path  fill="#46A515" stroke-width="0" stroke="#46A515" d = " M65 219 L62,222.5 C61.0917,224.317 65.5734,224.463 66.5,224 69.9418,222.279 67.9039,219 65,219  Z"/>

<path  fill="#FFFF00" stroke-width="0" stroke="#FFFF00" d = " M238 220 L237,223.5 C237.771,225.042 245.983,225.534 247,223.5 248.89,219.719 239.653,220 238,220  Z"/>

<path  fill="#FFFF00" stroke-width="0" stroke="#FFFF00" d = " M247 220 C247,224.123 251.123,220 247,220  Z"/>

<path  fill="#FFFF00" stroke-width="0" stroke="#FFFF00" d = " M215 231 C215,237.987 223.508,240.504 228.5,243 L231.5,246 L237.5,246 C247.543,251.022 273,241.942 273,231 273,228.755 273.276,222 269.5,222 269.5,222 267,231.5 267,231.5 264.358,236.784 254.076,241 249.5,241 241.35,241 234.209,241.355 227.5,238 227.5,238 218.5,227 218.5,227 215.741,225.62 215,229.225 215,231  Z"/>

<path  fill="#FFFF00" stroke-width="0" stroke="#FFFF00" d = " M250 223 C250,225.091 253.746,223 250,223  Z"/>

<path  fill="#9953FF" stroke-width="0" stroke="#9953FF" d = " M207 269 C204.344,269 190.376,279.747 189,282.5 L188.5,285 C186.75,285.875 184.125,286.25 183,288.5 180.999,292.502 178.652,298.924 174.5,301 L166,312 C166,305.315 158.863,298.225 156,292.5 154.105,288.709 160.502,281.495 162,278.5 162,278.5 162,267.5 162,267.5 162,267.5 167,262.5 167,262.5 167.765,260.969 165,252.191 165,250 165,245.92 170,242.638 170,238 170,236.571 175.655,235 177,235 178.424,235 182,234.638 182,233 182,231.379 185.283,230 187,230 187,232.564 189,232.564 189,230 189,224.948 200.02,228 203,228 203,229.652 205,231.092 205,229 206.774,229 212,228.727 212,231 212,231 211,232 211,232 194.46,232 207.449,244.397 211,251.5 212.02,253.54 217,253.924 217,255 217,258.279 211.043,269 207,269  Z"/>

<path  fill-rule="evenodd" fill="#9953FF" stroke-width="0" stroke="#9953FF" d = " M308 302 C308,303.93 309.93,302 308,302  M249 347 C249,342.86 264.382,346 267,346 268.235,346 272,345.357 272,347 272,347 276.5,345 276.5,345 279.528,343.486 287.45,348.025 291.5,346 299.478,342.011 307.557,337.971 315.5,334 319.882,331.809 323.188,327.156 327.5,325 334.189,321.655 341.945,311.61 345,305.5 346.166,303.168 345.421,296 343,296 343,296 342,300 342,300 343.186,300 343.186,301 342,301 342,309.19 337.976,307.262 332.5,310 331.357,310.572 325.737,315.974 324,312.5 323.959,312.417 330.229,295.042 331,293.5 333.814,287.873 326.119,278.737 324,274.5 321.475,269.45 324,261.987 324,257 324,248.963 316,241.167 316,237 316,237 308,233 308,233 308,239.468 298.91,232.205 296.5,231 295.353,230.426 292,232.064 292,230 289.103,230 280.551,227.975 278.5,229 278.5,229 276,232 276,232 276,232 277,233 277,233 278.423,233 280.544,231.022 282.5,232 282.5,232 283,234.5 283,234.5 286.472,241.444 281.963,245.537 276.5,251 276.5,251 270,256 270,256 270,260.269 277,261.731 277,266 277,266 285.5,274 285.5,274 289.98,278.48 307,295.576 307,300.5 307,301.631 304.378,302.439 303.5,302 303.5,302 293,291.5 293,291.5 290.343,288.843 274,270.264 274,268 268.809,268 258,265.519 258,258 258,258 254.5,262 254.5,262 252.324,263.088 247,259.502 247,257 244.876,257 242.564,256 241,256 241,266.122 234.645,259 231,259 231,265.912 219.073,266.214 215.5,268 215.5,268 208,274 208,274 208,274 200,281.5 200,281.5 197.229,287.042 183.73,303.385 178.5,306 175.083,307.709 166,318.222 166,312 161.707,312 152.47,313.44 150,308.5 148.998,306.496 146.615,296 144,296 144,296 145,308.5 145,308.5 154.478,327.457 193.229,347 214,347 214,343.172 223.849,341.174 225.5,342 225.5,342 229.5,346 229.5,346 229.5,346 239,346 239,346 239,346 245.5,344 245.5,344 245.5,344 249,347 249,347  Z"/>

<path  fill="#EB57FF" stroke-width="0" stroke="#EB57FF" d = " M241 256 C241,266.122 234.645,259 231,259 231,244.644 220.987,255 217,255 217,253.924 212.02,253.54 211,251.5 207.449,244.397 194.46,232 211,232 211,233.778 216.419,246.959 218.5,248 224.154,250.827 241,244.193 241,256  Z"/>

<path  fill="#EB57FF" stroke-width="0" stroke="#EB57FF" d = " M247 257 C247,259.502 252.324,263.088 254.5,262 L258,258 C258,244.771 269.714,256 270,256 270,256 276.5,251 276.5,251 281.963,245.537 286.472,241.444 283,234.5 283,234.5 282.5,232 282.5,232 280.544,231.022 278.423,233 277,233 277,233.783 270.568,247.466 269.5,248 269.5,248 254.5,248 254.5,248 251.959,249.271 249.154,257 247,257  Z"/>

<path  fill="#FFFF00" stroke-width="0" stroke="#FFFF00" d = " M422 240 C422,244.123 426.123,240 422,240  Z"/>

<path  fill="#00FFFF" stroke-width="0" stroke="#00FFFF" d = " M51 245 C51,247.281 52.7281,253.886 56.5,252 60.8012,249.849 53.2487,245 51,245  Z"/>

<path  fill="#00FFFF" stroke-width="0" stroke="#00FFFF" d = " M75 250 C75,252.091 78.7458,250 75,250  Z"/>

<path  fill="#FA8072" stroke-width="0" stroke="#FA8072" d = " M144 296 C146.615,296 148.998,306.496 150,308.5 152.47,313.44 161.707,312 166,312 166,305.315 158.863,298.225 156,292.5 154.105,288.709 160.502,281.495 162,278.5 162,278.5 162,267.5 162,267.5 162,267.5 167,262.5 167,262.5 167.765,260.969 165,252.191 165,250 165,250 156,254.5 156,254.5 156,254.5 155,261.5 155,261.5 150.017,271.467 144,284.149 144,296  Z"/>

<path  fill="#FAF4F7" stroke-width="0" stroke="#FAF4F7" d = " M207 269 L208,274 C208,274 215.5,268 215.5,268 219.073,266.214 231,265.912 231,259 231,244.644 220.987,255 217,255 217,258.279 211.043,269 207,269  Z"/>

<path  fill="#FAF4F7" stroke-width="0" stroke="#FAF4F7" d = " M277 266 L274,268 C268.809,268 258,265.519 258,258 258,244.771 269.714,256 270,256 270,260.269 277,261.731 277,266  Z"/>

<path  fill="#FA8072" stroke-width="0" stroke="#FA8072" d = " M342 300 L342,301 C342,309.19 337.976,307.262 332.5,310 331.357,310.572 325.737,315.974 324,312.5 323.959,312.417 330.229,295.042 331,293.5 333.814,287.873 326.119,278.737 324,274.5 321.475,269.45 324,261.987 324,257 324,257 326.5,256 326.5,256 328.606,256 332.317,264.133 333,265.5 337.606,274.713 343,284.955 343,296 343,296 342,300 342,300  Z"/>

<path  fill="#00FFFF" stroke-width="0" stroke="#00FFFF" d = " M434 256 C434,261.456 438.529,256 434,256  Z"/>

<path  fill="#00B03F" stroke-width="0" stroke="#00B03F" d = " M277 266 L285.5,274 C289.98,278.48 307,295.576 307,300.5 307,301.631 304.378,302.439 303.5,302 L293,291.5 C290.343,288.843 274,270.264 274,268 274,268 277,266 277,266  Z"/>

<path  fill="#00B03F" stroke-width="0" stroke="#00B03F" d = " M208 274 L200,281.5 C197.229,287.042 183.73,303.385 178.5,306 175.083,307.709 166,318.222 166,312 166,312 174.5,301 174.5,301 178.652,298.924 180.999,292.502 183,288.5 184.125,286.25 186.75,285.875 188.5,285 188.5,285 189,282.5 189,282.5 190.376,279.747 204.344,269 207,269 207,269 208,274 208,274  Z"/>

<path  fill="#46A515" stroke-width="0" stroke="#46A515" d = " M77 273 C77,275.187 71.9625,279.425 74,283.5 76.2405,287.981 77.9426,281.779 79.5,281 83.1095,279.195 85.1514,284 87.5,284 89.6124,284 89.3456,281.191 89,280.5 87.3636,277.227 81.2501,273 77,273  Z"/>

<path  fill="#46A515" stroke-width="0" stroke="#46A515" d = " M409 276 L404,279.5 L407.5,283 C415.05,290.55 420.391,276 409,276  Z"/>

<path  fill="#46A515" stroke-width="0" stroke="#46A515" d = " M438 277 L436,279.5 L438.5,281 C444.271,283.885 443.669,277 441,277 L438,277  Z"/>

<path  fill="#46A515" stroke-width="0" stroke="#46A515" d = " M82 283 C82,284.285 77.2633,285.882 79.5,287 82.0301,288.265 85.7557,283 82,283  Z"/>

<path  fill="#46A515" stroke-width="0" stroke="#46A515" d = " M385 284 C385,286.295 371.478,294.456 374,299.5 376.424,304.349 377.961,311.231 383.5,314 387.257,315.879 394.654,314.808 397,319.5 403.004,331.507 372.542,343.021 366.5,340 360.961,337.231 367,332.74 367,329.5 367,323.684 353.152,324.674 350.5,326 346.442,328.029 350.682,336.182 352.5,338 L356,340.5 L352,345.5 L358.5,351 L362.5,351 C373.357,356.428 394.862,353.776 401,341.5 402.732,338.036 402.263,332.974 404,329.5 406.564,324.372 407.592,319.684 405,314.5 L406,307.5 C404.749,304.999 401.679,294.09 399.5,293 L394.5,292 C390.175,289.837 398.683,284 385,284  Z"/>

<path  fill="#46A515" stroke-width="0" stroke="#46A515" d = " M101 288 L100,289.5 C100,293.32 106.626,288 101,288  Z"/>

<path  fill="#46A515" stroke-width="0" stroke="#46A515" d = " M108 291 L107,292.5 C107,296.226 114.648,291 108,291  Z"/>

<path  fill="#46A515" stroke-width="0" stroke="#46A515" d = " M111 297 C111,298.696 110.758,300.985 110,302.5 L110,306.5 C110,319.116 121.321,297 111,297  Z"/>

<path  fill="#00B03F" stroke-width="0" stroke="#00B03F" d = " M308 302 C308,303.93 309.93,302 308,302  Z"/>

<path  fill="#46A515" stroke-width="0" stroke="#46A515" d = " M85 313 L82,316.5 L83,320.5 C81.714,323.072 79.2572,329.014 81,332.5 L91,349.5 C93.7047,354.909 103.941,353.72 108.5,356 109.532,356.516 114,356.126 114,354.5 114,353.296 106.486,352.493 105.5,352 102.233,350.367 101.486,345.493 98.5,344 95.4131,342.457 92.2004,343.901 90,339.5 L88,329.5 C87.1445,327.789 82.5319,327.436 84,324.5 85.0431,322.414 89.7145,313 85,313  Z"/>

<path  fill="#46A515" stroke-width="0" stroke="#46A515" d = " M123 331 C123,332.317 119.644,332.788 121,335.5 122.735,338.969 132.054,331 123,331  Z"/>

<path  fill="#46A515" stroke-width="0" stroke="#46A515" d = " M134 336 C134,337.355 126.234,337.033 125,339.5 L129,343.5 C130.115,345.729 130.115,347.271 129,349.5 127.691,352.117 115.473,354.987 117.5,356 127.224,360.862 154.717,336 134,336  Z"/>

<path  fill="#FF3427" stroke-width="0" stroke="#FF3427" d = " M239 346 L229.5,346 L225.5,342 C223.849,341.174 214,343.172 214,347 214,354.105 239,356.123 239,346  Z"/>

<path  fill="#FF3427" stroke-width="0" stroke="#FF3427" d = " M249 347 C249,355.665 272,353.905 272,347 272,345.357 268.235,346 267,346 264.382,346 249,342.86 249,347  Z"/>

</g>
</svg>
