<svg xmlns="http://www.w3.org/2000/svg" xmlns:xlink="http://www.w3.org/1999/xlink" height="512" width="512">
<g>
<rect width="512" height="512" fill="#000000"  stroke-width="0" /> 
<path  fill-rule="evenodd" fill="#86FF5A" stroke-width="0" stroke="#86FF5A" d = " M245 311 C245,313.012 238.227,311.046 237,313.5 234.167,319.165 246.387,320.557 249.5,319 252.941,317.28 251.371,312 248,312 L245,311  M215 281 C215,283.144 210.738,281.381 209.5,282 205.639,283.931 201.923,284.288 198.5,286 L196,289.5 C188.219,297.281 185.724,307.948 191,318.5 L190,325.5 C196.265,338.031 201.937,352.218 215.5,359 218.954,360.727 223.979,359.239 227.5,361 234.61,364.555 242.011,352.256 245.5,354 L252.5,362 C255.678,363.589 273.555,358.472 276.5,357 281.411,354.544 285.15,348.199 287,344.5 L296,336.5 C298.206,332.089 296.849,325.803 299,321.5 305.117,309.266 301.59,295.045 289.5,289 L286.5,285 L282.5,285 C272.335,279.917 256.648,279.926 246.5,285 243.877,286.311 241.348,282 239.5,282 L235.5,284 L231.5,281 L215,281  Z"/>

<path  fill="#EB57FF" stroke-width="0" stroke="#EB57FF" d = " M245 311 C245,313.012 238.227,311.046 237,313.5 234.167,319.165 246.387,320.557 249.5,319 252.941,317.28 251.371,312 248,312 L245,311  Z"/>

</g>
</svg>
