<svg xmlns="http://www.w3.org/2000/svg" xmlns:xlink="http://www.w3.org/1999/xlink" height="512" width="512">
<g>
<rect width="512" height="512" fill="#000000"  stroke-width="0" /> 
<path  fill="#03C12D" stroke-width="0" stroke="#03C12D" d = " M68 214 C65.5912,214 66.9454,212.723 65.5,212 L62.5,213 L51.5,213 L41.5,216 L39.5,214 C39.0172,214 36.5888,217 34,217 34,208.952 33.4277,192.645 38,183.5 38,183.5 42,178.5 42,178.5 44.4626,173.575 43.5043,166.491 46,161.5 50.7186,152.063 58.8837,141.733 64,131.5 64.7181,130.064 75.8915,122.304 78.5,121 78.5,121 81.5,116 81.5,116 87.7405,112.88 92.6877,106.406 99.5,103 112,96.75 124.915,91.2923 137.5,85 144.127,81.6864 151.719,80.3907 158.5,77 158.5,77 170.5,75 170.5,75 170.5,75 173.5,72 173.5,72 178.652,69.424 186.274,71.6132 191.5,69 194.25,67.6252 197.548,70.024 199.5,71 201.801,72.1506 206.437,69.4684 209.5,71 216.715,74.6073 220.302,79.9008 226.5,83 229.443,84.4713 234.374,89.0629 238.5,87 244.719,83.8905 251.008,78.7461 256.5,76 261.323,73.5883 266.641,72.4294 271.5,70 271.5,70 288.5,70 288.5,70 306.479,70 322.683,70.5915 337.5,78 337.5,78 347.5,79 347.5,79 352.501,81.5007 356.483,85.4916 361.5,88 368.893,91.6967 377.081,94.2906 384.5,98 388.398,99.9492 391.339,105.42 394.5,107 396.535,108.018 398.823,105.661 401.5,107 411.269,111.884 422.409,125.319 427,134.5 427,134.5 432,139.5 432,139.5 433.039,141.578 431.05,142.6 432,144.5 434.873,150.246 439.164,154.829 442,160.5 444.438,165.376 442.585,172.671 445,177.5 449.395,186.291 453,198.259 453,210 450.577,210 437.995,206.247 435.5,205 431.76,203.13 420.775,207 417,207 417,205.762 416.577,204 415,204 415,198.504 410,190.938 410,187 410,187 409,185 409,185 409,185 407,178 407,178 407,178 406,177 406,177 404.341,177 405.167,171.833 403.5,171 397.314,167.907 390.829,150.664 385.5,148 379.959,145.23 373.559,137.529 366.5,134 362.684,132.092 357.379,131.94 353.5,130 353.5,130 351.5,127 351.5,127 351.5,127 345.5,126 345.5,126 341.3,123.9 337.658,121.079 333.5,119 333.5,119 324.5,118 324.5,118 319.778,115.639 314.745,113.622 309.5,111 304.521,108.51 296.558,111.529 291.5,109 291.279,108.89 283,104.693 283,107.5 283,114.064 295,114.97 295,120 286.727,120 284.137,125.182 276.5,129 274.614,129.943 269,129.214 269,133 265.745,133 262.942,135 259,135 249.472,135 242.703,99.0932 233,118.5 231.828,120.843 232.136,124.228 231,126.5 231,126.5 227,134 227,134 225.535,134 223,133.891 223,136 223,136 221,136 221,136 221,136 216,136 216,136 216,136 212.5,132 212.5,132 212.5,132 205.5,131 205.5,131 204.14,130.32 202.439,127.969 200.5,127 200.5,127 198.5,122 198.5,122 198.5,122 192.5,124 192.5,124 192.5,124 187,121 187,121 187,119.005 187.662,116.081 185.5,115 177.786,111.143 149.188,125.156 141.5,129 106.75,146.375 95.6595,154.181 78,189.5 75.5535,194.393 68,208.989 68,214  Z"/>

<path  fill="#FF6E00" stroke-width="0" stroke="#FF6E00" d = " M406 266 C406,272.98 397,272.521 397,276 397,279.009 404.624,274.438 405.5,274 409.71,271.895 407.026,264 413,264 413,264 414,258 414,258 414,256.855 413.421,254 415,254 415,237.209 416,225.144 416,208 414.421,208 415,205.145 415,204 415,198.504 410,190.938 410,187 410,187 409,185 409,185 409,185 407,178 407,178 407,178 406,177 406,177 404.341,177 405.167,171.833 403.5,171 397.314,167.907 390.829,150.664 385.5,148 379.959,145.23 373.559,137.529 366.5,134 362.684,132.092 357.379,131.94 353.5,130 353.5,130 351.5,127 351.5,127 351.5,127 345.5,126 345.5,126 341.3,123.9 337.658,121.079 333.5,119 333.5,119 324.5,118 324.5,118 319.778,115.639 314.745,113.622 309.5,111 304.521,108.51 296.558,111.529 291.5,109 291.279,108.89 283,104.693 283,107.5 283,114.064 295,114.97 295,120 300.935,120 303.045,132.273 308.5,135 308.5,135 317.5,138 317.5,138 321.746,140.123 327.46,136.52 330.5,135 336.769,131.865 350.726,136.613 355.5,139 355.5,139 364,143 364,143 372.192,143 381.67,158.085 387.5,161 393.487,163.994 399.076,175.651 402,181.5 403.29,184.079 406.036,186.571 407,188.5 410.171,194.843 418.019,226.462 414,234.5 412.637,237.225 412,244.026 412,247 413.186,247 413.186,248 412,248 412,250.992 409.728,266 406,266  Z"/>

<path  fill="#022CFF" stroke-width="0" stroke="#022CFF" d = " M229 137 C229,138.727 234.244,140.372 235.5,141 237.163,141.831 242.847,149.326 245.5,148 249.917,145.792 252.733,137 259,137 259,137 259,135 259,135 249.472,135 242.703,99.0932 233,118.5 231.828,120.843 232.136,124.228 231,126.5 231,126.5 227,134 227,134 227,134 229,137 229,137  Z"/>

<path  fill="#FF6E00" stroke-width="0" stroke="#FF6E00" d = " M95 285 C95.6661,285 99,287.56 99,285 99,283.132 77,276.694 77,269 73.166,269 73.122,249.744 72,247.5 70.2776,244.055 71,239.107 71,235 71,216.435 73.8704,206.759 82,190.5 83.9576,186.585 93,176.731 93,173 93,171.571 94.2884,169 96,169 96,169 102,162.5 102,162.5 106.737,157.763 115.419,148 122,148 122,145.465 128.822,144.839 130.5,144 134.346,142.077 144.505,136.502 149.5,139 153.608,141.054 165.074,144.713 170.5,142 175.724,139.388 180.206,136.088 183,130.5 183.943,128.613 183.792,121 187,121 187,119.005 187.662,116.081 185.5,115 177.786,111.143 149.188,125.156 141.5,129 106.75,146.375 95.6595,154.181 78,189.5 75.5535,194.393 68,208.989 68,214 68,228.924 70,242.793 70,257 70,257 70,258 70,258 70,262.868 73,265.951 73,270 73,270 76,275 76,275 79.3131,275 86.848,284 92,284 92,284 95,285 95,285  Z"/>

<path  fill="#DDD951" stroke-width="0" stroke="#DDD951" d = " M313 154 C316.354,154 321.613,160 329,160 329,160 349.5,161 349.5,161 352.157,159.672 360.484,143 364,143 364,143 355.5,139 355.5,139 350.726,136.613 336.769,131.865 330.5,135 327.46,136.52 321.746,140.123 317.5,138 317.5,138 308.5,135 308.5,135 303.045,132.273 300.935,120 295,120 286.727,120 284.137,125.182 276.5,129 274.614,129.943 269,129.214 269,133 269,136.387 272,136.794 272,138 272,138 273,138 273,138 273,136.78 276.492,136.496 277.5,137 280.642,138.571 298,140.105 298,144 298,144 299,145 299,145 300.402,145 305,146.11 305,148 305,148 306,149 306,149 307.238,149 309,149.423 309,151 309,151 313,154 313,154  Z"/>

<path  fill="#DDD951" stroke-width="0" stroke="#DDD951" d = " M156 163 L159,163 C160.819,163 163.591,162 166,162 166,162 172,159 172,159 172,159 173,158 173,158 173,156.708 178,152.171 178,155 178,155 183,151 183,151 183,149.423 184.762,149 186,149 186,149 188,148 188,148 188,146.158 194,143.535 194,146 201.325,146 208.597,139 216,139 216,139 216,136 216,136 216,136 212.5,132 212.5,132 212.5,132 205.5,131 205.5,131 204.14,130.32 202.439,127.969 200.5,127 200.5,127 198.5,122 198.5,122 198.5,122 192.5,124 192.5,124 192.5,124 187,121 187,121 183.792,121 183.943,128.613 183,130.5 180.206,136.088 175.724,139.388 170.5,142 165.074,144.713 153.608,141.054 149.5,139 144.505,136.502 134.346,142.077 130.5,144 128.822,144.839 122,145.465 122,148 122,148 127,151.5 127,151.5 128.9,155.299 132.868,162.184 136.5,164 138.671,165.085 140.963,162.768 142.5,162 146.099,160.201 152.856,163 156,163  Z"/>

<path  fill="#5600DD" stroke-width="0" stroke="#5600DD" d = " M321 181 L315,174.5 L313,167.5 L305,162.5 C303.166,158.831 297.124,157.812 293.5,156 285.27,151.885 275.185,145.157 265.5,150 L259.5,150 L250,155.5 C247.395,160.709 251.252,164.624 244.5,168 236.501,172 239.641,155.07 237.5,154 L231.5,152 L229.5,149 C226.01,147.255 210.369,149.566 207.5,151 202.298,153.601 194.261,159 189.5,159 189.205,159 178.884,167.308 177.5,168 174.68,169.41 170.009,182 168,182 168,180.416 164.029,176.442 165,174.5 165,174.5 169,163 169,163 170.712,163 172,160.429 172,159 172,159 173,158 173,158 173,158 177,156 177,156 177,156 178,155 178,155 178,155 183,151 183,151 184.238,151 186,150.577 186,149 186,149 188,148 188,148 190.483,148 192.026,146 194,146 201.325,146 208.597,139 216,139 218.361,139 221,138.6 221,136 221,136 223,136 223,136 223,136 229,137 229,137 229,138.727 234.244,140.372 235.5,141 237.163,141.831 242.847,149.326 245.5,148 249.917,145.792 252.733,137 259,137 259,137 272,138 272,138 272,138 273,138 273,138 273,138 298,144 298,144 298,144 299,145 299,145 299,147.314 303.262,148 305,148 305,148 306,149 306,149 306,150.577 307.762,151 309,151 309,151 313,154 313,154 313,155.961 321.933,167.367 324,171.5 325.277,174.055 323.204,181 321,181  Z"/>

<path  fill="#0E47E2" stroke-width="0" stroke="#0E47E2" d = " M324 285 L328.5,289 C331.936,290.718 337.964,288 341,288 341,280.718 365.095,262.203 371.5,259 373.615,257.942 376.461,258.019 378.5,257 380.157,256.172 384.53,251.015 386.5,252 386.5,252 390.5,257 390.5,257 392.355,257.928 405.316,266 406,266 409.728,266 412,250.992 412,248 412,248 412,247 412,247 412,244.026 412.637,237.225 414,234.5 418.019,226.462 410.171,194.843 407,188.5 406.036,186.571 403.29,184.079 402,181.5 399.076,175.651 393.487,163.994 387.5,161 381.67,158.085 372.192,143 364,143 360.484,143 352.157,159.672 349.5,161 349.5,161 329,160 329,160 329,160 327,165.5 327,165.5 323.955,171.59 330.099,179.698 332,183.5 333.17,185.839 349,193.513 349,202 352.153,202 356.583,220 352,220 352,220 352,225 352,225 352,226.634 350.633,237.234 350,238.5 350,238.5 343,245.5 343,245.5 343,245.5 343,249.5 343,249.5 341.047,253.407 334.845,255.809 333,259.5 330.715,264.07 333.223,271.054 331,275.5 329.208,279.084 324,280.69 324,285  Z"/>

<path  fill="#0E47E2" stroke-width="0" stroke="#0E47E2" d = " M143 291 L144,293 C148.793,293 156.097,298.305 160,290.5 160,290.5 161,287.5 161,287.5 161,287.5 158,283 158,283 154.542,283 152.141,276.783 151,274.5 150.747,273.993 151.643,264.786 149,259.5 144.903,251.306 134,246.532 134,235 134,235 134,234 134,234 131.597,234 125.362,226 131,226 131,223.634 131,219.366 131,217 128.882,217 130.179,213 132,213 132,213 133,212 133,212 133,208.048 140,204.502 140,201 140,201 142,199 142,199 142,199 143,198 143,198 143,198 144,198 144,198 144,198 145,197 145,197 145,194.452 147.687,193 150,193 150,189.979 160,180.945 160,177 158.601,177 158.601,175 160,175 160,170.942 158,168.708 158,165 158,165 156,163 156,163 152.856,163 146.099,160.201 142.5,162 140.963,162.768 138.671,165.085 136.5,164 132.868,162.184 128.9,155.299 127,151.5 127,151.5 122,148 122,148 115.419,148 106.737,157.763 102,162.5 102,162.5 96,169 96,169 96,170.429 94.7116,173 93,173 93,176.731 83.9576,186.585 82,190.5 73.8704,206.759 71,216.435 71,235 71,239.107 70.2776,244.055 72,247.5 73.122,249.744 73.166,269 77,269 80.7613,269 96.7306,255 97.5,255 101.352,255 103.256,260.378 106.5,262 111.95,264.725 140,279.559 140,286 140,286 141,287 141,287 141,287 143,291 143,291  Z"/>

<path  fill="#E1970F" stroke-width="0" stroke="#E1970F" d = " M213 209 C213,180.44 261.593,171.685 274,196.5 276.06,200.619 275,206.097 275,210 278.891,210 279.484,221.467 281,224.5 282.775,228.049 288.632,228.566 291.5,230 292.547,230.523 294.005,231.748 295.5,231 297.776,229.862 300.406,230.047 302.5,229 305.991,227.254 321,207.344 321,204.5 321,204.5 319,203.5 319,203.5 317.839,201.178 321.398,200 323,200 323,200 324,198 324,198 324,192.335 321,186.283 321,181 321,181 315,174.5 315,174.5 315,174.5 313,167.5 313,167.5 313,167.5 305,162.5 305,162.5 303.166,158.831 297.124,157.812 293.5,156 285.27,151.885 275.185,145.157 265.5,150 265.5,150 259.5,150 259.5,150 259.5,150 250,155.5 250,155.5 247.395,160.709 251.252,164.624 244.5,168 236.501,172 239.641,155.07 237.5,154 237.5,154 231.5,152 231.5,152 231.5,152 229.5,149 229.5,149 226.01,147.255 210.369,149.566 207.5,151 202.298,153.601 194.261,159 189.5,159 189.205,159 178.884,167.308 177.5,168 174.68,169.41 170.009,182 168,182 168,187.355 165,192.063 165,198 166.643,198 166,201.765 166,203 166,213.013 183.48,221.49 190.5,225 192.541,226.02 197.88,229.31 200.5,228 202.924,226.788 205.004,225.248 207.5,224 208.303,223.599 212.051,225.398 213,223.5 214.106,221.289 210.158,209 213,209  Z"/>

<path  fill="#022CFF" stroke-width="0" stroke="#022CFF" d = " M345 199 L349,202 C349,193.513 333.17,185.839 332,183.5 330.099,179.698 323.955,171.59 327,165.5 327,165.5 329,160 329,160 321.613,160 316.354,154 313,154 313,155.961 321.933,167.367 324,171.5 325.277,174.055 323.204,181 321,181 321,186.283 324,192.335 324,198 325.583,198 326.407,200 328.5,200 329.538,200 342,194.31 342,198 342,198 345,199 345,199  Z"/>

<path  fill="#DDD951" stroke-width="0" stroke="#DDD951" d = " M178 155 L177,156 C177,156 178,155 178,155  Z"/>

<path  fill="#022CFF" stroke-width="0" stroke="#022CFF" d = " M165 198 C165,203.35 156.88,200 155,200 155,198.075 151.925,195 150,195 150,195 150,193 150,193 150,189.979 160,180.945 160,177 160,177 160,175 160,175 160,170.942 158,168.708 158,165 158,165 159,163 159,163 160.819,163 163.591,162 166,162 166,162 169,163 169,163 169,163 165,174.5 165,174.5 164.029,176.442 168,180.416 168,182 168,187.355 165,192.063 165,198  Z"/>

<path  fill-rule="evenodd" fill="#07FF59" stroke-width="0" stroke="#07FF59" d = " M243 203 C243,204.384 239.811,204.123 241,206.5 242.192,208.883 240.863,212.225 242,214.5 244.241,218.982 250.004,203 243,203  M235 236 L237,238 C237,238 239.5,240 239.5,240 244.545,242.522 244.277,242.611 249.5,240 252.797,238.351 250.798,234.904 252,232.5 252,232.5 258,227.5 258,227.5 258,227.5 258.5,223 258.5,223 258.5,223 266.5,215 266.5,215 270.062,213.219 275,216.288 275,210 275,206.097 276.06,200.619 274,196.5 261.593,171.685 213,180.44 213,209 213,209 215.5,214 215.5,214 215.5,214 220.5,214 220.5,214 220.5,214 222.5,218 222.5,218 222.5,218 226.5,218 226.5,218 230.006,219.753 228.611,225.721 230,228.5 231.385,231.27 235,232.655 235,236  Z"/>

<path  fill="#006400" stroke-width="0" stroke="#006400" d = " M142 240 C143.657,240 152,239.237 152,241 152,241 154.5,242 154.5,242 156.908,242 157,233.45 157,231 157,229.209 160.27,228.041 159,225.5 156.751,221.001 156,209.678 156,205 156,205 155,200 155,200 155,198.075 151.925,195 150,195 150,195 145,197 145,197 145,197 144,198 144,198 144,198 143,198 143,198 143,198 142,199 142,199 142,200.747 141.747,201 140,201 140,204.502 133,208.048 133,212 133,212 132,213 132,213 132,214.145 132.579,217 131,217 131,219.366 131,223.634 131,226 132.446,226 134,232.754 134,234 134,234 134,235 134,235 137.103,235 139.466,240 142,240  Z"/>

<path  fill="#006400" stroke-width="0" stroke="#006400" d = " M336 231 C338.413,231 339.587,231 342,231 345.766,231 348.984,225 352,225 352,225 352,220 352,220 352,214.912 352.097,209.693 350,205.5 348.806,203.111 345,201.253 345,199 345,199 342,198 342,198 338.148,198 333.747,200.377 330.5,202 329.851,202.325 331.671,205 329,205 329,209.702 332,214.741 332,219.5 332,221 328.972,222.444 330,224.5 331.372,227.245 336,228.416 336,231  Z"/>

<path  fill="#9953FF" stroke-width="0" stroke="#9953FF" d = " M211 295 L213,296 C213,296 226,290 226,290 226,286.166 229.292,287.208 231,285.5 238.361,278.139 243.827,277.663 252.5,282 254.28,282.89 258.829,290 260,290 260,290 267.5,294 267.5,294 267.5,294 274,293 274,293 274,285.68 281.306,286.889 284,281.5 284,281.5 285,274.5 285,274.5 286.966,270.568 300.798,257.851 304.5,256 308.335,254.082 323,254.097 323,261 323,261 324,261 324,261 324,258.319 322.613,257 327,257 327,257 328,255 328,255 328,253.407 328.337,248 330,248 330,246.619 336,238.5 336,231 336,228.416 331.372,227.245 330,224.5 328.972,222.444 332,221 332,219.5 332,214.741 329,209.702 329,205 329,205 323,200 323,200 321.398,200 317.839,201.178 319,203.5 319,203.5 321,204.5 321,204.5 321,207.344 305.991,227.254 302.5,229 300.406,230.047 297.776,229.862 295.5,231 294.005,231.748 292.547,230.523 291.5,230 288.632,228.566 282.775,228.049 281,224.5 279.484,221.467 278.891,210 275,210 275,216.288 270.062,213.219 266.5,215 266.5,215 258.5,223 258.5,223 258.5,223 258,227.5 258,227.5 258,227.5 252,232.5 252,232.5 250.798,234.904 252.797,238.351 249.5,240 244.277,242.611 244.545,242.522 239.5,240 239.5,240 237,238 237,238 237,238 235,236 235,236 235,232.655 231.385,231.27 230,228.5 228.611,225.721 230.006,219.753 226.5,218 226.5,218 222.5,218 222.5,218 222.5,218 220.5,214 220.5,214 220.5,214 215.5,214 215.5,214 215.5,214 213,209 213,209 210.158,209 214.106,221.289 213,223.5 212.051,225.398 208.303,223.599 207.5,224 205.004,225.248 202.924,226.788 200.5,228 197.88,229.31 192.541,226.02 190.5,225 183.48,221.49 166,213.013 166,203 161.887,203 159.578,205 156,205 156,209.678 156.751,221.001 159,225.5 160.27,228.041 157,229.209 157,231 157,233.45 156.908,242 154.5,242 154.5,242 152,241 152,241 152,241 152,243 152,243 153.765,243 152.541,244.581 153,245.5 153.691,246.883 156.489,244.479 158,247.5 159.118,249.737 154.867,255 161,255 168.473,255 176.494,255.497 183.5,259 183.5,259 185.5,262 185.5,262 185.5,262 187.5,261 187.5,261 187.5,261 196,269.5 196,269.5 196,269.5 196,272.5 196,272.5 196,272.5 200,273.5 200,273.5 200,273.5 201,278.5 201,278.5 204.701,285.902 211,284.049 211,295  Z"/>

<path  fill="#022CFF" stroke-width="0" stroke="#022CFF" d = " M243 203 C243,204.384 239.811,204.123 241,206.5 242.192,208.883 240.863,212.225 242,214.5 244.241,218.982 250.004,203 243,203  Z"/>

<path  fill="#DD6479" stroke-width="0" stroke="#DD6479" d = " M416 254 C424.163,254 432.981,256 442,256 442,256 440,252.5 440,252.5 440,252.5 446,247.5 446,247.5 446,247.5 450,239.5 450,239.5 450,239.5 450,233.5 450,233.5 453.591,226.318 453,218.702 453,210 450.577,210 437.995,206.247 435.5,205 431.76,203.13 420.775,207 417,207 417,207 416,208 416,208 416,225.144 415,237.209 415,254 415,254 416,254 416,254  Z"/>

<path  fill="#DD6479" stroke-width="0" stroke="#DD6479" d = " M69 257 L70,257 C70,242.793 68,228.924 68,214 65.5912,214 66.9454,212.723 65.5,212 65.5,212 62.5,213 62.5,213 62.5,213 51.5,213 51.5,213 51.5,213 41.5,216 41.5,216 41.5,216 39.5,214 39.5,214 39.0172,214 36.5888,217 34,217 34,217 31,218.5 31,218.5 30.4064,219.687 30.6418,221.216 30,222.5 29.4386,223.623 34.1442,242.788 35,244.5 37.0223,248.545 43.061,251.622 45,255.5 45,255.5 44,260 44,260 51.9269,260 61.155,257 69,257  Z"/>

<path  fill="#022CFF" stroke-width="0" stroke="#022CFF" d = " M321 284 C321,285.473 322.952,285 324,285 324,280.69 329.208,279.084 331,275.5 333.223,271.054 330.715,264.07 333,259.5 334.845,255.809 341.047,253.407 343,249.5 343,249.5 343,245.5 343,245.5 343,245.5 350,238.5 350,238.5 350.633,237.234 352,226.634 352,225 348.984,225 345.766,231 342,231 342,234.158 334.606,245.287 333,248.5 331.997,250.505 333.056,253.388 332,255.5 331.284,256.933 331.162,263 329,263 329,264.589 327.863,272.774 327,274.5 325.18,278.14 321,279.583 321,284  Z"/>

<path  fill="#022CFF" stroke-width="0" stroke="#022CFF" d = " M131 226 C132.446,226 134,232.754 134,234 131.597,234 125.362,226 131,226  Z"/>

<path  fill="#022CFF" stroke-width="0" stroke="#022CFF" d = " M158 283 C160.375,283 161.287,287 165,287 165,283.046 159.666,280.832 158,277.5 154.96,271.419 156.573,262.646 153,255.5 152.358,254.215 146,244.363 146,244 146,244 142,240 142,240 139.466,240 137.103,235 134,235 134,246.532 144.903,251.306 149,259.5 151.643,264.786 150.747,273.993 151,274.5 152.141,276.783 154.542,283 158,283  Z"/>

<path  fill="#FF3427" stroke-width="0" stroke="#FF3427" d = " M211 295 L213,296 C213,303.081 205.286,302 201,302 186.564,302 187.559,302.53 174.5,296 174.5,296 165,287 165,287 165,283.046 159.666,280.832 158,277.5 154.96,271.419 156.573,262.646 153,255.5 152.358,254.215 146,244.363 146,244 146,239.86 150.16,243 152,243 153.765,243 152.541,244.581 153,245.5 153.691,246.883 156.489,244.479 158,247.5 159.118,249.737 154.867,255 161,255 161,255 159,259.5 159,259.5 166.691,274.881 158.647,277.573 177.5,287 180.466,288.483 181.487,292 185,292 185,292 186,292 186,292 190.154,292 194.972,294.236 198.5,296 198.5,296 211,295 211,295  Z"/>

<path  fill="#DD6479" stroke-width="0" stroke="#DD6479" d = " M412 247 C413.186,247 413.186,248 412,248 412,248 412,247 412,247  Z"/>

<path  fill="#FF3427" stroke-width="0" stroke="#FF3427" d = " M276 295 C281.768,295 287.455,295 294,295 295.048,295 297,295.473 297,294 297,294 298,294 298,294 299.424,294 303,293.638 303,292 311.916,292 324,272.469 324,264 324,264 324,261 324,261 324,258.319 322.613,257 327,257 327,257 328,255 328,255 328,253.407 328.337,248 330,248 330,248 331,256.5 331,256.5 329.93,258.64 329,260.387 329,263 329,264.589 327.863,272.774 327,274.5 325.18,278.14 321,279.583 321,284 321,284 312.5,294 312.5,294 312.5,294 301.5,301 301.5,301 301.5,301 296.5,301 296.5,301 296.5,301 293.5,304 293.5,304 291.672,304.914 280.893,303.197 278.5,302 277.153,301.327 272.593,295 276,295  Z"/>

<path  fill="#DDD951" stroke-width="0" stroke="#DDD951" d = " M342 289 C345.773,289 350.786,292 353.5,292 356.39,292 360.162,290 364,290 364,285.877 386.635,279 391,279 391,279 393,278 393,278 393,275.891 395.535,276 397,276 397,272.521 406,272.98 406,266 405.316,266 392.355,257.928 390.5,257 390.5,257 386.5,252 386.5,252 384.53,251.015 380.157,256.172 378.5,257 376.461,258.019 373.615,257.942 371.5,259 365.095,262.203 341,280.718 341,288 341,288 342,289 342,289  Z"/>

<path  fill="#2E8B57" stroke-width="0" stroke="#2E8B57" d = " M414 267 L428.5,271 C432.542,273.021 441.478,272 445,272 445,269.236 448.104,256 442,256 432.981,256 424.163,254 416,254 416,254 414,258 414,258 414,258 413,264 413,264 413,264 413,265 413,265 413,265 414,266 414,266 414,266 414,267 414,267  Z"/>

<path  fill="#DDD951" stroke-width="0" stroke="#DDD951" d = " M143 291 C142.348,291 140.905,294.297 139.5,295 134.172,297.664 126.042,293 121,293 121,290.129 117.87,291.685 116.5,291 111.409,288.455 105.023,285 99,285 99,283.132 77,276.694 77,269 80.7613,269 96.7306,255 97.5,255 101.352,255 103.256,260.378 106.5,262 111.95,264.725 140,279.559 140,286 140,286 141,287 141,287 141,287 143,291 143,291  Z"/>

<path  fill="#FFBA00" stroke-width="0" stroke="#FFBA00" d = " M186 292 C190.154,292 194.972,294.236 198.5,296 L211,295 C211,284.049 204.701,285.902 201,278.5 201,278.5 200,273.5 200,273.5 200,273.5 196,272.5 196,272.5 196,272.5 196,269.5 196,269.5 196,269.5 187.5,261 187.5,261 187.5,261 185.5,262 185.5,262 185.5,262 183.5,259 183.5,259 176.494,255.497 168.473,255 161,255 161,255 159,259.5 159,259.5 166.691,274.881 158.647,277.573 177.5,287 180.466,288.483 181.487,292 185,292 185,290.814 186,290.814 186,292  Z"/>

<path  fill="#FFBA00" stroke-width="0" stroke="#FFBA00" d = " M276 295 C281.768,295 287.455,295 294,295 294,293.527 295.952,294 297,294 297,294 298,294 298,294 298,292.362 301.576,292 303,292 311.916,292 324,272.469 324,264 322.527,264 323,262.048 323,261 323,254.097 308.335,254.082 304.5,256 300.798,257.851 286.966,270.568 285,274.5 285,274.5 284,281.5 284,281.5 281.306,286.889 274,285.68 274,293 274,293 276,295 276,295  Z"/>

<path  fill="#2E8B57" stroke-width="0" stroke="#2E8B57" d = " M70 272 C61.07,272 49.9768,277 40,277 36.9198,277 37.0938,260 44,260 51.9269,260 61.155,257 69,257 69,257 70,258 70,258 70,262.868 73,265.951 73,270 73,270 70,272 70,272  Z"/>

<path  fill="#03C12D" stroke-width="0" stroke="#03C12D" d = " M413 265 L414,266 C414,266 413,265 413,265  Z"/>

<path  fill="#7F81FF" stroke-width="0" stroke="#7F81FF" d = " M410 281 C414.026,281 416.881,287.691 419.5,289 422.348,290.424 437.618,297 440,297 440,296.354 443.356,291.788 444,290.5 446.602,285.295 445,277.079 445,272 441.478,272 432.542,273.021 428.5,271 428.5,271 414,267 414,267 411.276,267 410,278.483 410,281  Z"/>

<path  fill="#7F81FF" stroke-width="0" stroke="#7F81FF" d = " M40 277 L38,279.5 C35.6906,284.119 41.9078,295.204 45.5,297 48.5022,298.501 51.1517,295 54,295 54,293.546 59.3662,293.567 60.5,293 64.4908,291.005 73.6704,290.159 76,285.5 77.5655,282.369 73,279.144 73,276 73,276 70,272 70,272 61.07,272 49.9768,277 40,277  Z"/>

<path  fill="#03C12D" stroke-width="0" stroke="#03C12D" d = " M54 295 C54,306.07 62.2857,309.893 70.5,314 73.585,315.542 86,311.648 86,308 76.6545,308 80.1711,305.158 83,299.5 84.8127,295.875 85.5282,287 92,287 92,287 92,284 92,284 86.848,284 79.3131,275 76,275 76,276.473 74.0479,276 73,276 73,279.144 77.5655,282.369 76,285.5 73.6704,290.159 64.4908,291.005 60.5,293 59.3662,293.567 54,293.546 54,295  Z"/>

<path  fill="#03C12D" stroke-width="0" stroke="#03C12D" d = " M440 297 C440,316.297 422.217,309.859 412.5,305 L407.5,306 L405,304 C405,297.535 403.623,293.746 401,288.5 401,288.5 391,279 391,279 391,279 393,278 393,278 397.957,278 402.113,282 404,282 405.321,282 410,282.684 410,281 414.026,281 416.881,287.691 419.5,289 422.348,290.424 437.618,297 440,297  Z"/>

<path  fill="#3FC0FF" stroke-width="0" stroke="#3FC0FF" d = " M226 290 C226.621,290 229.666,295.083 231.5,296 235.995,298.247 260,296.519 260,290 258.829,290 254.28,282.89 252.5,282 243.827,277.663 238.361,278.139 231,285.5 229.292,287.208 226,286.166 226,290  Z"/>

<path  fill="#8B008B" stroke-width="0" stroke="#8B008B" d = " M371 303 C377.125,303 386.358,296.929 392.5,300 397.149,302.325 400.335,304 405,304 405,297.535 403.623,293.746 401,288.5 401,288.5 391,279 391,279 386.635,279 364,285.877 364,290 368.724,290 365.981,303 371,303  Z"/>

<path  fill="#8B008B" stroke-width="0" stroke="#8B008B" d = " M86 308 C90.2835,308 96.7225,302.111 102.5,305 L114,310 C114,306.234 113.899,293 121,293 121,290.129 117.87,291.685 116.5,291 111.409,288.455 105.023,285 99,285 99,287.56 95.6661,285 95,285 95,286.577 93.2383,287 92,287 85.5282,287 84.8127,295.875 83,299.5 80.1711,305.158 76.6545,308 86,308  Z"/>

<path  fill="#41FF27" stroke-width="0" stroke="#41FF27" d = " M371 303 L368,306.5 C363.9,310.6 356.166,312.833 350.5,310 L347,308 C347,308 344,303 344,303 344,301.882 335.704,289 342,289 345.773,289 350.786,292 353.5,292 356.39,292 360.162,290 364,290 368.724,290 365.981,303 371,303  Z"/>

<path  fill="#41FF27" stroke-width="0" stroke="#41FF27" d = " M144 293 C144,294.804 146.182,298.136 145,300.5 142.077,306.347 134.492,311.504 129.5,314 126.698,315.401 114,312.557 114,310 114,306.234 113.899,293 121,293 126.042,293 134.172,297.664 139.5,295 140.905,294.297 142.348,291 143,291 143,291 144,293 144,293  Z"/>

<path  fill="#FA8072" stroke-width="0" stroke="#FA8072" d = " M344 303 C339.274,303 339.707,294.397 328.5,300 315.592,306.454 314,319.029 314,332 314,336.889 313.528,344.514 318.5,347 L322.5,346 C333.275,351.387 336.329,338.841 340,331.5 L347,323.5 C349.285,318.931 347,313.158 347,308 347,308 344,303 344,303  Z"/>

<path  fill="#FA8072" stroke-width="0" stroke="#FA8072" d = " M151 300 L144,306.5 C141.646,311.208 140,315.234 140,321 140,330.463 144.385,327.885 149.5,333 152.564,336.064 149.702,341.601 154.5,344 163.003,348.251 170.705,348.09 175,339.5 L176,327.5 C176.981,325.538 178.216,318.932 177,316.5 171.048,304.596 164.009,300 151,300  Z"/>

</g>
</svg>
