<svg xmlns="http://www.w3.org/2000/svg" xmlns:xlink="http://www.w3.org/1999/xlink" height="512" width="512">
<g>
<rect width="512" height="512" fill="#000000"  stroke-width="0" /> 
<path  fill-rule="evenodd" fill="#86FF5A" stroke-width="0" stroke="#86FF5A" d = " M242 395 C242,397.536 239,398.915 239,400.5 239,402.73 242.558,401.529 243.5,402 248.81,404.655 249.405,395 242,395  M234 353 C234,356.725 229.756,355.872 227.5,357 221.093,360.204 216.251,364.124 210.5,367 L210,369.5 C208.426,372.647 200.783,378.933 199,382.5 197.846,384.809 197.953,389.594 196,393.5 194.784,395.932 196.019,402.538 197,404.5 L196,412.5 C200.457,421.415 205.985,431.242 215.5,436 220.942,438.721 233.269,441.116 239.5,438 L243.5,434 C244.544,433.478 259.856,442.822 267.5,439 L275.5,434 L281.5,433 C282.037,432.732 284.579,427.342 285,426.5 L291,420.5 L290,418.5 C290,417.885 292.539,412.422 293,411.5 L293,399.5 C293.628,398.244 295.867,396.233 295,394.5 292.928,390.357 291.002,386.504 289,382.5 286.381,377.261 283.92,371.42 279.5,367 L277.5,363 C274.582,363 274.98,364.48 272,361.5 262.496,351.996 248.374,353 234,353  Z"/>

<path  fill="#EB57FF" stroke-width="0" stroke="#EB57FF" d = " M242 395 C242,397.536 239,398.915 239,400.5 239,402.73 242.558,401.529 243.5,402 248.81,404.655 249.405,395 242,395  Z"/>

</g>
</svg>
