<svg xmlns="http://www.w3.org/2000/svg" xmlns:xlink="http://www.w3.org/1999/xlink" height="512" width="512">
<g>
<rect width="512" height="512" fill="#000000"  stroke-width="0" /> 
<path  fill-rule="evenodd" fill="#FFFF00" stroke-width="0" stroke="#FFFF00" d = " M323 213 C323,223.771 334.231,213 323,213  M275 183 C275,185.218 259.752,185.874 257.5,187 245.4,193.05 230.544,182.978 218.5,189 216.014,190.243 211.655,188.189 210,191.5 L210,194.5 C208.843,196.814 204.759,200.018 207,204.5 L215.5,201 C216.348,201.424 239.66,200.42 242.5,199 245.319,197.591 266.464,200.018 268.5,199 270.211,198.145 275.317,196.909 277.5,198 278.983,198.742 283.135,201.682 284.5,201 286.563,199.969 283.464,196.428 283,195.5 280.923,191.345 281.68,183 275,183  M270 148 C270,150.768 257.553,151 255,151 244.489,151 234.102,153 224.5,153 L207.5,153 C194.471,159.515 185.987,191.527 179,205.5 174.89,213.72 167.552,216.948 161,223.5 159.407,225.093 153.39,228.28 155,231.5 157.683,236.866 181.419,223.662 184,218.5 187.545,211.409 184.045,194.227 192.5,190 201.709,185.395 189.226,215.637 198.5,211 206.991,206.755 200.813,195.874 204,189.5 207.103,183.294 209.87,176.759 213,170.5 217.422,161.657 237.141,164.68 244.5,161 246.238,160.131 253.762,162.869 255.5,162 258.518,160.491 262.382,161 266,161 287.553,161 280.05,175.601 286,187.5 289.496,194.493 290.499,202.498 294,209.5 296.152,213.805 321.361,238.779 326,229.5 328.487,224.526 312.609,212.719 310,207.5 308.216,203.933 300.011,200.522 297,194.5 294.183,188.866 297.763,180.025 295,174.5 287.966,160.431 288.496,148 270,148  M190 141 C190,144.867 183.457,149.585 182,152.5 177.393,161.715 160.484,188.008 150.5,193 147.151,194.675 126.16,200.819 129,206.5 131.235,210.971 141.156,206.812 143,210.5 L146.5,222 C151.395,224.448 161.228,210.044 163,206.5 171.262,189.975 180.703,174.094 189,157.5 190.797,153.907 197.82,141 190,141  M293 139 C293,155.282 308.279,174.058 316,189.5 319.602,196.705 322.192,207.846 330.5,212 339.924,216.712 335.65,205.425 342.5,202 342.569,201.965 355.783,203.066 354,199.5 352.495,196.49 345.232,194.366 342.5,193 338.326,190.913 318.645,172.789 317,169.5 312.719,160.938 306.699,152.199 300,145.5 298.065,143.565 299.661,140.58 296.5,139 L293,139  M282 136 L281,140.5 C282.298,143.095 291.221,136 282,136  M307 135 C307,138.77 311.378,142.257 313,145.5 315.689,150.878 337.801,175.15 343.5,178 348.202,180.351 353.92,192.29 360.5,189 L362,181.5 L365,180.5 C370.701,169.098 356.112,162.806 348.5,159 341.847,155.674 336.019,153.26 329.5,150 322.23,146.365 314.627,135 307,135  M157 132 C157,135.11 151.178,134.161 149.5,135 144.684,137.408 119.594,156.688 122,161.5 122.844,163.188 131.195,158.652 132.5,158 140.425,154.037 149.854,141.323 154.5,139 L162,132.5 L157,132  M175 129 C175,135.065 168.54,138.421 166,143.5 160.752,153.996 148.143,165.678 137.5,171 132.397,173.551 125.535,172.483 120.5,175 114.165,178.167 115.682,194.591 120.5,197 123.983,198.741 134.106,186.697 137.5,185 145.857,180.821 171.657,154.186 176,145.5 179.332,138.837 191.004,129 175,129  M270 111 C270,113.617 261.906,115.797 259.5,117 247.838,122.831 237.827,118.336 228.5,123 L220.5,123 L218.5,127 L214.5,126 C212.39,127.055 212.688,130.406 211.5,131 L208,131.5 C208,133.316 210.734,132.617 211.5,133 215.637,135.068 219.949,136 225,136 232.073,136 254.876,132.812 260.5,130 265.961,127.269 273.556,132.472 278.5,130 280.448,129.026 278.582,121.665 278,120.5 276.087,116.675 284.311,111 270,111  M245 98 C245,100.497 236.161,100 234,100 228.581,100 202.924,101.349 209,113.5 209.916,115.332 214.494,112.503 215.5,112 219.257,110.122 224.746,110.877 228.5,109 L235.5,104 C240.185,101.658 247.703,105.399 252.5,103 253.577,102.461 258,103.991 258,101.5 258,97.4381 247.575,98 245,98  M242 94 C242,96.4624 231.299,94.1004 229.5,95 221.908,98.7959 207.764,96.9728 203,106.5 198.35,115.801 203.948,122.605 203,124.5 L199,127.5 C197.929,129.643 197.338,132.581 194.5,134 192.625,134.937 189.81,133.121 189,131.5 187.587,128.675 183.825,119.663 180.5,118 179.038,117.269 177.064,117.782 175.5,117 173.061,115.781 163.769,120.866 161.5,122 157.09,124.205 150.949,123.775 146.5,126 141.02,128.74 135.875,132.313 130.5,135 120.866,139.817 115.043,157.414 111,165.5 109.083,169.334 114.355,173.791 113,176.5 108.917,184.665 112.289,195.078 116,202.5 L123,208.5 L128.5,217 L130.5,216 C131.981,216.74 135.601,226.551 138.5,228 140.831,229.165 144.259,227.88 146.5,229 151.38,231.44 153.601,242.45 160.5,239 165.269,236.616 170.847,235.327 175.5,233 178.805,231.347 182.209,226.145 186.5,224 189.94,222.28 190.043,214 190.5,214 L194,216 L201,216.5 C202.337,219.173 195.523,221.545 197,224.5 201.512,233.524 226.869,238 236,238 L246.5,240 C255.229,235.636 269.681,237.91 279.5,233 L285.5,233 C288.583,231.458 292.493,229.515 294,226.5 294.445,225.61 294.932,220.216 296.5,221 302.152,223.826 305.357,231.429 310.5,234 313.343,235.421 320.663,236.081 322.5,237 323.69,237.595 325.847,238.826 327.5,238 330.595,236.453 335.212,230.924 333,226.5 332.45,225.401 329.685,219.408 330.5,219 L337.5,224 C341.989,226.245 357.077,209.346 359,205.5 359.754,203.993 359.75,199.875 361.5,199 372.678,193.411 373,181.77 373,170.5 L362,158.5 L363,150.5 C360.947,146.395 346.745,133.123 342.5,131 338.842,129.171 324.258,123 320.5,123 L317.5,124 C314.315,122.407 307.803,117.849 303.5,120 295.755,123.872 301.042,134.771 293.5,131 L289.5,131 C286.061,129.281 285.224,114.947 283,110.5 279.164,102.828 267.393,106.447 264.5,105 264.006,104.753 266,102.235 266,99.5 266,94.3137 246.19,94 242,94  M291 217 C292.747,217 293,217.253 293,219 293,227.311 284.046,227 277.5,227 274.708,227 236.139,224.319 233.5,223 229.843,221.172 216.405,229.309 214,224.5 212.813,222.127 217,223.671 217,222.5 217,218.585 209.989,223 209.5,223 206.845,223 207.517,211.992 209.5,211 210.56,210.47 231.7,213.9 233.5,213 238.73,210.385 261.532,210.516 266.5,213 271.859,215.68 277.205,214.148 281.5,212 281.5,212 285.5,214 285.5,214 285.5,214 288.5,211 288.5,211 289.991,211.746 288.351,217 291,217  Z"/>

<path  fill="#00FFFF" stroke-width="0" stroke="#00FFFF" d = " M245 98 C245,100.497 236.161,100 234,100 228.581,100 202.924,101.349 209,113.5 209.916,115.332 214.494,112.503 215.5,112 219.257,110.122 224.746,110.877 228.5,109 L235.5,104 C240.185,101.658 247.703,105.399 252.5,103 253.577,102.461 258,103.991 258,101.5 258,97.4381 247.575,98 245,98  Z"/>

<path  fill="#00FFFF" stroke-width="0" stroke="#00FFFF" d = " M270 111 C270,113.617 261.906,115.797 259.5,117 247.838,122.831 237.827,118.336 228.5,123 L220.5,123 L218.5,127 L214.5,126 C212.39,127.055 212.688,130.406 211.5,131 L208,131.5 C208,133.316 210.734,132.617 211.5,133 215.637,135.068 219.949,136 225,136 232.073,136 254.876,132.812 260.5,130 265.961,127.269 273.556,132.472 278.5,130 280.448,129.026 278.582,121.665 278,120.5 276.087,116.675 284.311,111 270,111  Z"/>

<path  fill="#00FFFF" stroke-width="0" stroke="#00FFFF" d = " M175 129 C175,135.065 168.54,138.421 166,143.5 160.752,153.996 148.143,165.678 137.5,171 132.397,173.551 125.535,172.483 120.5,175 114.165,178.167 115.682,194.591 120.5,197 123.983,198.741 134.106,186.697 137.5,185 145.857,180.821 171.657,154.186 176,145.5 179.332,138.837 191.004,129 175,129  Z"/>

<path  fill="#00FFFF" stroke-width="0" stroke="#00FFFF" d = " M157 132 C157,135.11 151.178,134.161 149.5,135 144.684,137.408 119.594,156.688 122,161.5 122.844,163.188 131.195,158.652 132.5,158 140.425,154.037 149.854,141.323 154.5,139 L162,132.5 L157,132  Z"/>

<path  fill="#00FFFF" stroke-width="0" stroke="#00FFFF" d = " M307 135 C307,138.77 311.378,142.257 313,145.5 315.689,150.878 337.801,175.15 343.5,178 348.202,180.351 353.92,192.29 360.5,189 L362,181.5 L365,180.5 C370.701,169.098 356.112,162.806 348.5,159 341.847,155.674 336.019,153.26 329.5,150 322.23,146.365 314.627,135 307,135  Z"/>

<path  fill="#00FFFF" stroke-width="0" stroke="#00FFFF" d = " M293 139 C293,155.282 308.279,174.058 316,189.5 319.602,196.705 322.192,207.846 330.5,212 339.924,216.712 335.65,205.425 342.5,202 342.569,201.965 355.783,203.066 354,199.5 352.495,196.49 345.232,194.366 342.5,193 338.326,190.913 318.645,172.789 317,169.5 312.719,160.938 306.699,152.199 300,145.5 298.065,143.565 299.661,140.58 296.5,139 L293,139  Z"/>

<path  fill="#00FFFF" stroke-width="0" stroke="#00FFFF" d = " M190 141 C190,144.867 183.457,149.585 182,152.5 177.393,161.715 160.484,188.008 150.5,193 147.151,194.675 126.16,200.819 129,206.5 131.235,210.971 141.156,206.812 143,210.5 L146.5,222 C151.395,224.448 161.228,210.044 163,206.5 171.262,189.975 180.703,174.094 189,157.5 190.797,153.907 197.82,141 190,141  Z"/>

<path  fill="#00FFFF" stroke-width="0" stroke="#00FFFF" d = " M270 148 C270,150.768 257.553,151 255,151 244.489,151 234.102,153 224.5,153 L207.5,153 C194.471,159.515 185.987,191.527 179,205.5 174.89,213.72 167.552,216.948 161,223.5 159.407,225.093 153.39,228.28 155,231.5 157.683,236.866 181.419,223.662 184,218.5 187.545,211.409 184.045,194.227 192.5,190 201.709,185.395 189.226,215.637 198.5,211 206.991,206.755 200.813,195.874 204,189.5 207.103,183.294 209.87,176.759 213,170.5 217.422,161.657 237.141,164.68 244.5,161 246.238,160.131 253.762,162.869 255.5,162 258.518,160.491 262.382,161 266,161 287.553,161 280.05,175.601 286,187.5 289.496,194.493 290.499,202.498 294,209.5 296.152,213.805 321.361,238.779 326,229.5 328.487,224.526 312.609,212.719 310,207.5 308.216,203.933 300.011,200.522 297,194.5 294.183,188.866 297.763,180.025 295,174.5 287.966,160.431 288.496,148 270,148  Z"/>

<path  fill="#00FFFF" stroke-width="0" stroke="#00FFFF" d = " M275 183 C275,185.218 259.752,185.874 257.5,187 245.4,193.05 230.544,182.978 218.5,189 216.014,190.243 211.655,188.189 210,191.5 L210,194.5 C208.843,196.814 204.759,200.018 207,204.5 L215.5,201 C216.348,201.424 239.66,200.42 242.5,199 245.319,197.591 266.464,200.018 268.5,199 270.211,198.145 275.317,196.909 277.5,198 278.983,198.742 283.135,201.682 284.5,201 286.563,199.969 283.464,196.428 283,195.5 280.923,191.345 281.68,183 275,183  Z"/>

<path  fill="#00FFFF" stroke-width="0" stroke="#00FFFF" d = " M291 217 C288.351,217 289.991,211.746 288.5,211 L285.5,214 L281.5,212 C277.205,214.148 271.859,215.68 266.5,213 261.532,210.516 238.73,210.385 233.5,213 231.7,213.9 210.56,210.47 209.5,211 207.517,211.992 206.845,223 209.5,223 209.989,223 217,218.585 217,222.5 217,223.671 212.813,222.127 214,224.5 216.405,229.309 229.843,221.172 233.5,223 236.139,224.319 274.708,227 277.5,227 284.046,227 293,227.311 293,219 291.253,219 291,218.747 291,217  Z"/>

<path  fill="#9953FF" stroke-width="0" stroke="#9953FF" d = " M237 334 C237,335.473 238.952,335 240,335 240,335 245,333 245,333 245,333 245,328 245,328 243.453,328 242.976,322 246,322 255.578,322 247.794,321.647 254.5,325 254.5,325 259,325.5 259,325.5 259,329.883 249.688,325.875 251,328.5 251.972,330.443 262.99,331.521 264,329.5 264,329.5 261,326.5 261,326.5 261,325.365 266.015,326.758 266.5,327 269.109,328.305 268.714,331.607 271.5,333 276.088,335.294 290,327.816 290,338 298.537,338 312.49,326.01 318.5,320 320.206,318.294 327,315.575 327,313 327,313 325,312 325,312 316.957,312 319,311.21 319,305 315.683,305 313.091,294.683 312,292.5 307.298,283.096 297.617,277.734 293,268.5 290.488,263.476 293.123,258 299,258 299,256.814 300,256.814 300,258 300,258 303,258 303,258 303,256.753 293.371,253.758 297,246.5 298.114,244.272 310,246.096 310,244 310,237.675 300.256,237.378 297.5,236 290.897,232.699 289.036,237.732 284.5,240 284.5,240 280.5,240 280.5,240 276.429,242.036 273.853,245.794 272,249.5 272,249.5 268,253 268,253 268,253 271,254.5 271,254.5 271,254.5 270,257.5 270,257.5 270.677,258.854 276.001,266.75 273.5,268 273.5,268 265.5,270 265.5,270 265.5,270 256.5,282 256.5,282 250.946,284.777 244.42,277.04 238.5,280 238.5,280 232.5,284 232.5,284 232.217,284 228.465,275.965 227.5,275 226.681,274.181 224.874,270.187 224.5,270 222.712,269.106 215,269.149 215,265.5 215,263.282 219,259.225 219,256.5 219,256.5 218,253.5 218,253.5 218.85,251.8 220.422,252 222,252 222,248.4 214.094,245.297 211.5,244 203.842,240.171 189.464,230.571 184,241.5 184,241.5 180,246 180,246 182.62,246 196.081,245.337 193,251.5 191.627,254.246 188,252.002 188,256 188,256 188,258 188,258 191.749,258 193.263,257.763 196,260.5 196,260.5 202,264.5 202,264.5 204.113,268.727 182.247,283.005 180,287.5 177.933,291.633 179.1,305 172,305 172,305 172,307 172,307 175.715,307 169.273,312 166,312 166,314.041 165.041,315 163,315 163,317.529 169.8,320.15 171.5,321 180.22,325.36 186.934,334 196,334 198.608,334 202.723,330.111 206.5,332 208.463,332.982 210.678,336.411 213.5,335 217.313,333.093 222.84,326.33 223.5,326 227.77,323.865 226.391,330 227.5,330 230.892,330 232.12,324 234.5,324 234.5,324 237.5,325 237.5,325 237.5,325 240.5,320 240.5,320 241.613,320 247.522,334 237,334  Z"/>

<path  fill="#FA8072" stroke-width="0" stroke="#FA8072" d = " M319 305 C319,311.21 316.957,312 325,312 325,309.045 333.51,308.48 335,305.5 335.84,303.82 339.436,293 341,293 341,293 342,281.5 342,281.5 338.158,273.817 332.903,258.202 324.5,254 319.349,251.425 316.138,244 310,244 310,246.096 298.114,244.272 297,246.5 293.371,253.758 303,256.753 303,258 303,258 310.5,261 310.5,261 310.5,261 319.5,262 319.5,262 326.19,265.345 330.997,273.495 334,279.5 334,279.5 334,284.5 334,284.5 338.774,294.048 328.568,305 319,305  Z"/>

<path  fill="#FA8072" stroke-width="0" stroke="#FA8072" d = " M172 307 C175.715,307 169.273,312 166,312 165.238,312 153.194,302.887 152,300.5 151.287,299.074 150.236,294 148,294 148,275.313 150.258,262.121 168.5,253 168.5,253 180,246 180,246 182.62,246 196.081,245.337 193,251.5 191.627,254.246 188,252.002 188,256 186.255,256 182,255.302 182,258 179.523,258 179.478,260.011 177.5,261 168.41,265.545 160.925,268.649 156,278.5 151.443,287.615 160.045,306 170,306 170,306 172,307 172,307  Z"/>

<path  fill="#EB57FF" stroke-width="0" stroke="#EB57FF" d = " M222 252 C227.698,252 236.704,254.909 240,261.5 241.082,263.664 240.585,266.543 243.5,268 246.347,269.423 251.214,259.286 252.5,258 253.306,257.194 263.647,250.574 264.5,251 266.119,251.809 265.971,253 268,253 268,253 271,254.5 271,254.5 271,254.5 270,257.5 270,257.5 270.677,258.854 276.001,266.75 273.5,268 273.5,268 265.5,270 265.5,270 265.5,270 256.5,282 256.5,282 250.946,284.777 244.42,277.04 238.5,280 238.5,280 232.5,284 232.5,284 232.217,284 228.465,275.965 227.5,275 226.681,274.181 224.874,270.187 224.5,270 222.712,269.106 215,269.149 215,265.5 215,263.282 219,259.225 219,256.5 219,256.5 218,253.5 218,253.5 218.85,251.8 220.422,252 222,252  Z"/>

<path  fill="#5BF1FF" stroke-width="0" stroke="#5BF1FF" d = " M172 305 L170,306 C160.045,306 151.443,287.615 156,278.5 160.925,268.649 168.41,265.545 177.5,261 179.478,260.011 179.523,258 182,258 182,258 188,258 188,258 191.749,258 193.263,257.763 196,260.5 196,260.5 202,264.5 202,264.5 204.113,268.727 182.247,283.005 180,287.5 177.933,291.633 179.1,305 172,305  Z"/>

<path  fill="#5BF1FF" stroke-width="0" stroke="#5BF1FF" d = " M303 258 L310.5,261 L319.5,262 C326.19,265.345 330.997,273.495 334,279.5 L334,284.5 C338.774,294.048 328.568,305 319,305 315.683,305 313.091,294.683 312,292.5 307.298,283.096 297.617,277.734 293,268.5 290.488,263.476 293.123,258 299,258 299,258 300,258 300,258 300,258 303,258 303,258  Z"/>

<path  fill="#34FF0D" stroke-width="0" stroke="#34FF0D" d = " M325 312 L327,313 C327,313 329.5,311 329.5,311 337.433,307.034 341,301.195 341,293 339.436,293 335.84,303.82 335,305.5 333.51,308.48 325,309.045 325,312  Z"/>

<path  fill="#34FF0D" stroke-width="0" stroke="#34FF0D" d = " M166 312 C166,314.041 165.041,315 163,315 154.995,315 148,300.497 148,294 150.236,294 151.287,299.074 152,300.5 153.194,302.887 165.238,312 166,312  Z"/>

<path  fill="#00F60E" stroke-width="0" stroke="#00F60E" d = " M212 341 L215,342 C217.361,342 220,341.6 220,339 220,333.531 224,335.889 224,337 228.484,337 232.954,334 237,334 247.522,334 241.613,320 240.5,320 240.5,320 237.5,325 237.5,325 237.5,325 234.5,324 234.5,324 232.12,324 230.892,330 227.5,330 226.391,330 227.77,323.865 223.5,326 222.84,326.33 217.313,333.093 213.5,335 210.678,336.411 208.463,332.982 206.5,332 202.723,330.111 198.608,334 196,334 196,336.96 198.399,338 201,338 201,338 208.5,339 208.5,339 209.468,338.516 213.159,334.818 214,336.5 214,336.5 212,341 212,341  Z"/>

<path  fill="#00F60E" stroke-width="0" stroke="#00F60E" d = " M287 339 C282.746,339 273,335.002 273,341 267.099,341 259.733,335 250,335 250,335 245,333 245,333 245,333 245,328 245,328 245,326.436 246,324.124 246,322 255.578,322 247.794,321.647 254.5,325 254.5,325 259,325.5 259,325.5 259,329.883 249.688,325.875 251,328.5 251.972,330.443 262.99,331.521 264,329.5 264,329.5 261,326.5 261,326.5 261,325.365 266.015,326.758 266.5,327 269.109,328.305 268.714,331.607 271.5,333 276.088,335.294 290,327.816 290,338 290,338 288,338 288,338 288,338 287,339 287,339  Z"/>

<path  fill="#4196FF" stroke-width="0" stroke="#4196FF" d = " M246 322 C242.976,322 243.453,328 245,328 245,326.436 246,324.124 246,322  Z"/>

<path  fill="#FF3427" stroke-width="0" stroke="#FF3427" d = " M220 339 C220,341.6 217.361,342 215,342 215,352.975 240,347.881 240,335 238.952,335 237,335.473 237,334 232.954,334 228.484,337 224,337 224,337 220,339 220,339  Z"/>

<path  fill="#FF3427" stroke-width="0" stroke="#FF3427" d = " M273 341 L274,341 C274,344.502 264.359,351.929 260.5,350 252.992,346.246 250,342.853 250,335 259.733,335 267.099,341 273,341  Z"/>

<path  fill="#9953FF" stroke-width="0" stroke="#9953FF" d = " M201 338 L208.5,339 C209.468,338.516 213.159,334.818 214,336.5 L212,341 C210.052,341 201,340.496 201,338  Z"/>

<path  fill="#9953FF" stroke-width="0" stroke="#9953FF" d = " M224 337 L220,339 C220,333.531 224,335.889 224,337  Z"/>

<path  fill="#9953FF" stroke-width="0" stroke="#9953FF" d = " M273 341 L274,341 C276.387,341 287,342.316 287,339 282.746,339 273,335.002 273,341  Z"/>

<path  fill="#9953FF" stroke-width="0" stroke="#9953FF" d = " M288 338 L287,339 C287,339 288,338 288,338  Z"/>

</g>
</svg>
