<?xml version="1.0" encoding="UTF-8"?>
<svg xmlns="http://www.w3.org/2000/svg" xmlns:xlink="http://www.w3.org/1999/xlink" width="430px" height="323px" viewBox="0 0 430 323" version="1.1">
<g id="surface1">
<rect x="0" y="0" width="430" height="323" style="fill:rgb(0%,0%,0%);fill-opacity:1;stroke:none;"/>
<path style=" stroke:none;fill-rule:nonzero;fill:rgb(49.803922%,0%,22.745098%);fill-opacity:1;" d="M 215 171 C 209.675781 171 211.839844 185.816406 211.839844 190 L 211.839844 253.332031 C 201.457031 253.332031 220.582031 320.253906 194.449219 307.167969 C 173.53125 296.691406 139.558594 293.800781 126.46875 267.582031 C 126.46875 267.582031 120.148438 229.582031 120.148438 229.582031 C 113.820312 216.90625 100.378906 228.390625 93.273438 224.832031 C 93.273438 224.832031 85.367188 201.082031 85.367188 201.082031 C 85.367188 201.082031 69.558594 188.417969 69.558594 188.417969 C 64.101562 177.480469 66.0625 128.917969 72.71875 115.582031 C 82.644531 95.707031 137.753906 72.722656 156.507812 63.332031 C 164.558594 59.300781 163.710938 72.390625 169.15625 69.667969 C 169.15625 69.667969 178.640625 57 178.640625 57 C 178.640625 57 210.257812 53.832031 210.257812 53.832031 C 218.960938 58.191406 215 80.214844 215 88.667969 C 209.625 88.667969 211.839844 104.933594 211.839844 109.25 C 211.839844 109.25 215 171 215 171 Z M 215 171 "/>
<path style=" stroke:none;fill-rule:evenodd;fill:rgb(72.941178%,100%,0%);fill-opacity:1;" d="M 335.148438 205.832031 C 335.148438 211.945312 341.25 205.832031 335.148438 205.832031 M 215 171 L 215 234.332031 C 215 238.515625 217.164062 253.332031 211.839844 253.332031 C 211.839844 253.332031 211.839844 299.25 211.839844 299.25 C 221.125 317.855469 284.011719 287.675781 290.882812 273.917969 C 296.007812 263.648438 292.277344 248.957031 297.207031 239.082031 C 305.855469 221.761719 317.769531 235.910156 327.242188 231.167969 C 327.242188 231.167969 333.566406 212.167969 333.566406 212.167969 C 334.113281 212.167969 335.480469 243.207031 343.050781 247 C 359.015625 254.996094 401.671875 242.503906 388.898438 216.917969 C 377.703125 194.492188 351.558594 195.960938 350.957031 194.75 C 350.957031 194.75 357.28125 137.75 357.28125 137.75 C 342.25 107.648438 327.371094 99.8125 298.785156 85.5 C 292.25 82.226562 275.113281 62.519531 267.167969 66.5 C 262.292969 68.941406 234.128906 53.832031 222.90625 53.832031 C 211.4375 53.832031 224.167969 88.667969 215 88.667969 C 215 109.988281 218.160156 130.667969 218.160156 150.417969 C 218.160156 154.734375 220.375 171 215 171 Z M 215 171 "/>
<path style=" stroke:none;fill-rule:nonzero;fill:rgb(49.803922%,0%,22.745098%);fill-opacity:1;" d="M 53.75 190 C 53.75 192.90625 34.773438 207.429688 31.617188 213.75 C 23.40625 230.195312 54.148438 253.925781 67.976562 247 C 96.878906 232.527344 86.484375 190 53.75 190 Z M 53.75 190 "/>
</g>
</svg>
