<?xml version="1.0" encoding="UTF-8"?>
<svg xmlns="http://www.w3.org/2000/svg" xmlns:xlink="http://www.w3.org/1999/xlink" width="430px" height="323px" viewBox="0 0 430 323" version="1.1">
<g id="surface1">
<rect x="0" y="0" width="430" height="323" style="fill:rgb(0%,0%,0%);fill-opacity:1;stroke:none;"/>
<path style=" stroke:none;fill-rule:nonzero;fill:rgb(49.803922%,0%,22.745098%);fill-opacity:1;" d="M 151.765625 50.667969 C 148.453125 50.667969 142.28125 49.167969 142.28125 53.832031 C 145.59375 53.832031 151.765625 55.332031 151.765625 50.667969 Z M 151.765625 50.667969 "/>
<path style=" stroke:none;fill-rule:nonzero;fill:rgb(100%,34.117648%,0%);fill-opacity:1;" d="M 170.734375 69.667969 C 159.316406 69.667969 144.707031 79.167969 132.792969 79.167969 C 132.792969 60.398438 138.535156 72.335938 150.183594 66.5 C 163.785156 59.6875 135.929688 57 132.792969 57 C 132.792969 52.335938 138.964844 53.832031 142.28125 53.832031 C 145.59375 53.832031 151.765625 55.332031 151.765625 50.667969 C 156.269531 50.667969 167.574219 51.8125 167.574219 57 C 167.574219 57 167.574219 60.167969 167.574219 60.167969 C 167.574219 60.167969 170.734375 63.332031 170.734375 63.332031 C 170.734375 63.332031 170.734375 69.667969 170.734375 69.667969 Z M 170.734375 69.667969 "/>
<path style=" stroke:none;fill-rule:nonzero;fill:rgb(49.803922%,0%,22.745098%);fill-opacity:1;" d="M 126.46875 57 L 123.308594 60.167969 C 123.308594 60.167969 126.46875 57 126.46875 57 Z M 126.46875 57 "/>
<path style=" stroke:none;fill-rule:nonzero;fill:rgb(49.803922%,41.960785%,0%);fill-opacity:1;" d="M 85.367188 88.667969 C 85.367188 97.574219 98.015625 99.625 98.015625 104.5 C 111.417969 104.5 118.25 79.167969 132.792969 79.167969 C 132.792969 60.398438 138.535156 72.335938 150.183594 66.5 C 163.785156 59.6875 135.929688 57 132.792969 57 C 132.792969 57 126.46875 57 126.46875 57 C 126.46875 57 123.308594 60.167969 123.308594 60.167969 C 123.308594 60.167969 113.824219 63.332031 113.824219 63.332031 C 113.824219 63.332031 110.660156 66.5 110.660156 66.5 C 105.179688 66.5 85.367188 82.363281 85.367188 88.667969 Z M 85.367188 88.667969 "/>
<path style=" stroke:none;fill-rule:nonzero;fill:rgb(49.803922%,0%,7.450981%);fill-opacity:1;" d="M 167.574219 60.167969 L 170.734375 60.167969 C 170.734375 60.167969 167.574219 57 167.574219 57 C 167.574219 57 167.574219 60.167969 167.574219 60.167969 Z M 167.574219 60.167969 "/>
<path style=" stroke:none;fill-rule:nonzero;fill:rgb(0%,100%,41.960785%);fill-opacity:1;" d="M 259.265625 72.832031 C 272.71875 72.832031 285.078125 85.5 297.207031 85.5 C 297.207031 85.5 295.625 76 295.625 76 C 295.625 76 282.976562 76 282.976562 76 C 271.582031 70.292969 282.148438 60.167969 289.300781 60.167969 C 294.347656 60.167969 299.59375 66.5 306.691406 66.5 C 306.691406 56.839844 265.589844 52.84375 265.589844 60.167969 C 265.589844 60.167969 262.425781 63.332031 262.425781 63.332031 C 262.425781 63.332031 259.265625 66.5 259.265625 66.5 C 259.265625 66.5 259.265625 72.832031 259.265625 72.832031 Z M 259.265625 72.832031 "/>
<path style=" stroke:none;fill-rule:nonzero;fill:rgb(49.803922%,0%,5.490196%);fill-opacity:1;" d="M 170.734375 63.332031 L 173.898438 63.332031 C 173.898438 63.332031 170.734375 60.167969 170.734375 60.167969 C 170.734375 60.167969 167.574219 60.167969 167.574219 60.167969 C 167.574219 60.167969 170.734375 63.332031 170.734375 63.332031 Z M 170.734375 63.332031 "/>
<path style=" stroke:none;fill-rule:nonzero;fill:rgb(3.529412%,49.803922%,0%);fill-opacity:1;" d="M 265.589844 60.167969 L 262.425781 63.332031 C 262.425781 63.332031 265.589844 60.167969 265.589844 60.167969 Z M 265.589844 60.167969 "/>
<path style=" stroke:none;fill-rule:nonzero;fill:rgb(0%,49.803922%,45.882353%);fill-opacity:1;" d="M 341.46875 91.832031 C 341.46875 103.3125 328.824219 103.117188 328.824219 110.832031 C 316.578125 110.832031 311.519531 85.5 297.207031 85.5 C 297.207031 85.5 295.625 76 295.625 76 C 295.625 76 282.976562 76 282.976562 76 C 271.582031 70.292969 282.148438 60.167969 289.300781 60.167969 C 294.347656 60.167969 299.59375 66.5 306.691406 66.5 C 313.785156 66.5 341.46875 83.136719 341.46875 91.832031 Z M 341.46875 91.832031 "/>
<path style=" stroke:none;fill-rule:nonzero;fill:rgb(49.803922%,0%,22.745098%);fill-opacity:1;" d="M 113.824219 63.332031 L 110.660156 66.5 C 110.660156 66.5 113.824219 63.332031 113.824219 63.332031 Z M 113.824219 63.332031 "/>
<path style=" stroke:none;fill-rule:nonzero;fill:rgb(49.803922%,0%,7.450981%);fill-opacity:1;" d="M 170.734375 69.667969 L 173.898438 69.667969 C 173.898438 69.667969 173.898438 66.5 173.898438 66.5 C 173.898438 66.5 173.898438 63.332031 173.898438 63.332031 C 173.898438 63.332031 170.734375 63.332031 170.734375 63.332031 C 170.734375 63.332031 170.734375 69.667969 170.734375 69.667969 Z M 170.734375 69.667969 "/>
<path style=" stroke:none;fill-rule:nonzero;fill:rgb(3.529412%,49.803922%,0%);fill-opacity:1;" d="M 262.425781 63.332031 L 259.265625 66.5 C 259.265625 66.5 262.425781 63.332031 262.425781 63.332031 Z M 262.425781 63.332031 "/>
<path style=" stroke:none;fill-rule:nonzero;fill:rgb(49.803922%,0%,5.490196%);fill-opacity:1;" d="M 94.851562 117.167969 L 91.691406 133 C 91.691406 133 102.757812 126.667969 102.757812 126.667969 C 102.757812 126.667969 118.566406 129.832031 118.566406 129.832031 C 126.367188 125.925781 148.453125 90.550781 151.765625 83.917969 C 154.28125 78.875 173.898438 79.121094 173.898438 69.667969 C 173.898438 69.667969 170.734375 69.667969 170.734375 69.667969 C 159.316406 69.667969 144.707031 79.167969 132.792969 79.167969 C 118.25 79.167969 111.417969 104.5 98.015625 104.5 C 98.015625 104.5 94.851562 117.167969 94.851562 117.167969 Z M 94.851562 117.167969 "/>
<path style=" stroke:none;fill-rule:nonzero;fill:rgb(49.803922%,0%,22.745098%);fill-opacity:1;" d="M 75.882812 199.5 C 83.523438 199.5 89.121094 181.585938 93.273438 183.667969 C 104.714844 189.398438 117.507812 243.296875 123.308594 254.917969 C 136.398438 281.136719 168.539062 292.609375 191.285156 304 C 214.847656 315.796875 208.675781 276.496094 208.675781 261.25 C 208.675781 257.203125 206.574219 243.832031 211.839844 243.832031 C 211.839844 243.832031 211.839844 180.5 211.839844 180.5 C 211.839844 176.316406 209.675781 161.5 215 161.5 C 215 141.566406 220.3125 110.390625 211.839844 93.417969 C 210.246094 90.226562 211.144531 79.167969 215 79.167969 C 215 79.167969 215 76 215 76 C 201.222656 76 186.105469 66.5 173.898438 66.5 C 173.898438 66.5 173.898438 69.667969 173.898438 69.667969 C 173.898438 79.121094 154.28125 78.875 151.765625 83.917969 C 148.453125 90.550781 126.367188 125.925781 118.566406 129.832031 C 118.566406 129.832031 102.757812 126.667969 102.757812 126.667969 C 102.757812 126.667969 91.691406 133 91.691406 133 C 91.691406 133 79.042969 145.667969 79.042969 145.667969 C 79.042969 145.667969 75.882812 152 75.882812 152 C 75.882812 152 69.558594 163.082031 69.558594 163.082031 C 69.558594 163.082031 72.71875 183.667969 72.71875 183.667969 C 72.71875 183.667969 75.882812 199.5 75.882812 199.5 Z M 75.882812 199.5 "/>
<path style=" stroke:none;fill-rule:nonzero;fill:rgb(3.529412%,49.803922%,0%);fill-opacity:1;" d="M 252.941406 72.832031 L 259.265625 72.832031 C 259.265625 72.832031 259.265625 66.5 259.265625 66.5 C 259.265625 66.5 252.941406 72.832031 252.941406 72.832031 Z M 252.941406 72.832031 "/>
<path style=" stroke:none;fill-rule:nonzero;fill:rgb(72.941178%,100%,0%);fill-opacity:1;" d="M 350.957031 202.667969 C 342.625 202.667969 337.898438 184.664062 333.566406 186.832031 C 314.707031 196.277344 305.898438 247.003906 297.207031 264.417969 C 291.386719 276.070312 220.601562 319.972656 211.839844 302.417969 L 211.839844 243.832031 C 217.164062 243.832031 215 229.015625 215 224.832031 C 215 224.832031 215 161.5 215 161.5 C 220.324219 161.5 218.160156 146.683594 218.160156 142.5 C 218.160156 120.53125 215 99.652344 215 79.167969 C 215 79.167969 215 76 215 76 C 227.695312 76 240.246094 72.832031 252.941406 72.832031 C 252.941406 85.160156 276.003906 91.507812 282.976562 95 C 305.753906 106.40625 295.214844 142.5 335.148438 142.5 C 335.148438 142.5 344.632812 145.667969 344.632812 145.667969 C 344.632812 145.667969 347.792969 148.832031 347.792969 148.832031 C 347.792969 148.832031 354.117188 155.167969 354.117188 155.167969 C 354.117188 155.167969 354.117188 158.332031 354.117188 158.332031 C 354.117188 158.332031 366.765625 175.75 366.765625 175.75 C 366.765625 175.75 360.441406 193.167969 360.441406 193.167969 C 360.441406 193.167969 350.957031 202.667969 350.957031 202.667969 Z M 350.957031 202.667969 "/>
<path style=" stroke:none;fill-rule:nonzero;fill:rgb(1.568628%,49.803922%,0%);fill-opacity:1;" d="M 335.148438 120.332031 C 327.804688 120.332031 335.148438 138.394531 335.148438 142.5 C 295.214844 142.5 305.753906 106.40625 282.976562 95 C 276.003906 91.507812 252.941406 85.160156 252.941406 72.832031 C 252.941406 72.832031 259.265625 72.832031 259.265625 72.832031 C 272.71875 72.832031 285.078125 85.5 297.207031 85.5 C 311.519531 85.5 316.578125 110.832031 328.824219 110.832031 C 333.808594 110.832031 335.148438 116.410156 335.148438 120.332031 Z M 335.148438 120.332031 "/>
<path style=" stroke:none;fill-rule:nonzero;fill:rgb(49.803922%,16.862746%,0%);fill-opacity:1;" d="M 98.015625 104.5 L 94.851562 117.167969 C 81.445312 117.167969 86.394531 98.167969 75.882812 98.167969 C 75.882812 98.167969 85.367188 88.667969 85.367188 88.667969 C 85.367188 97.574219 98.015625 99.625 98.015625 104.5 Z M 98.015625 104.5 "/>
<path style=" stroke:none;fill-rule:nonzero;fill:rgb(0%,49.803922%,20.784314%);fill-opacity:1;" d="M 341.46875 117.167969 L 335.148438 120.332031 C 335.148438 116.410156 333.808594 110.832031 328.824219 110.832031 C 328.824219 103.117188 341.46875 103.3125 341.46875 91.832031 C 346.882812 91.832031 350.957031 99.976562 350.957031 104.5 C 343.707031 104.5 344.632812 107.65625 344.632812 114 C 344.632812 114 341.46875 117.167969 341.46875 117.167969 Z M 341.46875 117.167969 "/>
<path style=" stroke:none;fill-rule:nonzero;fill:rgb(49.803922%,16.862746%,0%);fill-opacity:1;" d="M 75.882812 98.167969 L 72.71875 101.332031 C 72.71875 101.332031 75.882812 98.167969 75.882812 98.167969 Z M 75.882812 98.167969 "/>
<path style=" stroke:none;fill-rule:nonzero;fill:rgb(0%,100%,88.235295%);fill-opacity:1;" d="M 69.558594 152 L 75.882812 152 C 75.882812 152 79.042969 145.667969 79.042969 145.667969 C 79.042969 145.667969 91.691406 133 91.691406 133 C 91.691406 133 94.851562 117.167969 94.851562 117.167969 C 81.445312 117.167969 86.394531 98.167969 75.882812 98.167969 C 75.882812 98.167969 72.71875 101.332031 72.71875 101.332031 C 59.914062 101.332031 50.589844 138.472656 50.589844 148.832031 C 50.589844 148.832031 53.75 148.832031 53.75 148.832031 C 53.75 148.832031 60.074219 148.832031 60.074219 148.832031 C 60.074219 148.832031 63.234375 148.832031 63.234375 148.832031 C 63.234375 148.832031 66.398438 148.832031 66.398438 148.832031 C 66.398438 148.832031 69.558594 152 69.558594 152 Z M 69.558594 152 "/>
<path style=" stroke:none;fill-rule:nonzero;fill:rgb(100%,0%,0%);fill-opacity:1;" d="M 376.25 152 C 374.042969 152 354.117188 151.226562 354.117188 155.167969 C 354.117188 155.167969 347.792969 148.832031 347.792969 148.832031 C 347.792969 148.832031 344.632812 145.667969 344.632812 145.667969 C 344.632812 145.667969 335.148438 142.5 335.148438 142.5 C 335.148438 138.394531 327.804688 120.332031 335.148438 120.332031 C 335.148438 120.332031 341.46875 117.167969 341.46875 117.167969 C 341.46875 117.167969 344.632812 114 344.632812 114 C 344.632812 107.65625 343.707031 104.5 350.957031 104.5 C 362.402344 104.5 376.25 143.363281 376.25 152 Z M 376.25 152 "/>
<path style=" stroke:none;fill-rule:nonzero;fill:rgb(0%,7.450981%,49.803922%);fill-opacity:1;" d="M 344.632812 114 L 341.46875 117.167969 C 341.46875 117.167969 344.632812 114 344.632812 114 Z M 344.632812 114 "/>
<path style=" stroke:none;fill-rule:nonzero;fill:rgb(0%,49.803922%,47.843137%);fill-opacity:1;" d="M 344.632812 145.667969 L 347.792969 148.832031 C 347.792969 148.832031 344.632812 145.667969 344.632812 145.667969 Z M 344.632812 145.667969 "/>
<path style=" stroke:none;fill-rule:nonzero;fill:rgb(49.803922%,43.921569%,0%);fill-opacity:1;" d="M 53.75 148.832031 L 50.589844 152 C 50.589844 152 50.589844 148.832031 50.589844 148.832031 C 50.589844 148.832031 53.75 148.832031 53.75 148.832031 Z M 53.75 148.832031 "/>
<path style=" stroke:none;fill-rule:nonzero;fill:rgb(49.803922%,0%,22.745098%);fill-opacity:1;" d="M 63.234375 152 C 63.234375 167.003906 60.476562 190 44.265625 190 C 44.265625 174.339844 50.589844 165.398438 50.589844 152 C 50.589844 152 53.75 148.832031 53.75 148.832031 C 53.75 148.832031 60.074219 148.832031 60.074219 148.832031 C 60.074219 148.832031 63.234375 152 63.234375 152 Z M 63.234375 152 "/>
<path style=" stroke:none;fill-rule:nonzero;fill:rgb(49.803922%,43.921569%,0%);fill-opacity:1;" d="M 63.234375 148.832031 L 63.234375 152 C 63.234375 152 60.074219 148.832031 60.074219 148.832031 C 60.074219 148.832031 63.234375 148.832031 63.234375 148.832031 Z M 63.234375 148.832031 "/>
<path style=" stroke:none;fill-rule:nonzero;fill:rgb(0%,22.745098%,100%);fill-opacity:1;" d="M 44.265625 190 C 44.265625 197.417969 45.164062 202.667969 53.75 202.667969 C 53.75 200.71875 69.566406 183.667969 72.71875 183.667969 C 72.71875 183.667969 69.558594 163.082031 69.558594 163.082031 C 69.558594 163.082031 75.882812 152 75.882812 152 C 75.882812 152 69.558594 152 69.558594 152 C 69.558594 152 66.398438 148.832031 66.398438 148.832031 C 66.398438 148.832031 63.234375 148.832031 63.234375 148.832031 C 63.234375 148.832031 63.234375 152 63.234375 152 C 63.234375 167.003906 60.476562 190 44.265625 190 Z M 44.265625 190 "/>
<path style=" stroke:none;fill-rule:nonzero;fill:rgb(49.803922%,43.921569%,0%);fill-opacity:1;" d="M 66.398438 148.832031 L 69.558594 152 C 69.558594 152 66.398438 148.832031 66.398438 148.832031 Z M 66.398438 148.832031 "/>
<path style=" stroke:none;fill-rule:nonzero;fill:rgb(0%,49.803922%,47.843137%);fill-opacity:1;" d="M 354.117188 158.332031 C 361.265625 158.332031 367.789062 158.332031 376.25 158.332031 C 376.25 158.332031 376.25 152 376.25 152 C 374.042969 152 354.117188 151.226562 354.117188 155.167969 C 354.117188 155.167969 354.117188 158.332031 354.117188 158.332031 Z M 354.117188 158.332031 "/>
<path style=" stroke:none;fill-rule:nonzero;fill:rgb(100%,49.803922%,0%);fill-opacity:1;" d="M 360.441406 193.167969 L 379.410156 199.5 C 379.410156 191.75 379.410156 189.113281 379.410156 180.5 C 371.910156 180.5 365.210938 171 373.089844 171 C 373.089844 171 376.25 158.332031 376.25 158.332031 C 367.789062 158.332031 361.265625 158.332031 354.117188 158.332031 C 354.117188 158.332031 366.765625 175.75 366.765625 175.75 C 366.765625 175.75 360.441406 193.167969 360.441406 193.167969 Z M 360.441406 193.167969 "/>
<path style=" stroke:none;fill-rule:nonzero;fill:rgb(72.941178%,100%,0%);fill-opacity:1;" d="M 373.089844 171 C 378.074219 171 379.410156 176.578125 379.410156 180.5 C 371.910156 180.5 365.210938 171 373.089844 171 Z M 373.089844 171 "/>
<path style=" stroke:none;fill-rule:nonzero;fill:rgb(30.588236%,49.803922%,0%);fill-opacity:1;" d="M 75.882812 199.5 C 70.132812 199.5 61.367188 202.667969 53.75 202.667969 C 53.75 200.71875 69.566406 183.667969 72.71875 183.667969 C 72.71875 183.667969 75.882812 199.5 75.882812 199.5 Z M 75.882812 199.5 "/>
<path style=" stroke:none;fill-rule:nonzero;fill:rgb(0%,3.529412%,49.803922%);fill-opacity:1;" d="M 379.410156 199.5 C 379.410156 219.585938 354.183594 202.667969 350.957031 202.667969 C 350.957031 202.667969 360.441406 193.167969 360.441406 193.167969 C 360.441406 193.167969 379.410156 199.5 379.410156 199.5 Z M 379.410156 199.5 "/>
</g>
</svg>
