<?xml version="1.0" encoding="UTF-8"?>
<svg xmlns="http://www.w3.org/2000/svg" xmlns:xlink="http://www.w3.org/1999/xlink" width="430px" height="323px" viewBox="0 0 430 323" version="1.1">
<g id="surface1">
<rect x="0" y="0" width="430" height="323" style="fill:rgb(0%,0%,0%);fill-opacity:1;stroke:none;"/>
<path style=" stroke:none;fill-rule:nonzero;fill:rgb(49.803922%,0%,22.745098%);fill-opacity:1;" d="M 215 167.832031 C 209.675781 167.832031 211.839844 182.652344 211.839844 186.832031 L 211.839844 250.167969 C 206.734375 250.167969 208.675781 260.648438 208.675781 264.417969 C 208.675781 274.152344 213.730469 310.332031 200.773438 310.332031 C 182.164062 310.332031 132.199219 282.226562 123.308594 264.417969 C 123.308594 264.417969 109.082031 234.332031 109.082031 234.332031 C 85.363281 222.457031 47.058594 254.179688 31.617188 223.25 C 26.238281 212.476562 39.484375 191.601562 49.007812 186.832031 C 49.007812 186.832031 66.398438 185.25 66.398438 185.25 C 69.289062 179.460938 62.257812 133.375 72.71875 112.417969 C 87.035156 83.742188 147.8125 72.4375 172.316406 60.167969 C 179.207031 56.714844 205.445312 49.839844 213.417969 53.832031 C 213.417969 53.832031 215 85.5 215 85.5 C 209.625 85.5 211.839844 101.765625 211.839844 106.082031 C 211.839844 106.082031 215 167.832031 215 167.832031 Z M 215 167.832031 "/>
<path style=" stroke:none;fill-rule:nonzero;fill:rgb(72.941178%,100%,0%);fill-opacity:1;" d="M 215 167.832031 L 215 231.167969 C 215 235.347656 217.164062 250.167969 211.839844 250.167969 C 211.839844 250.167969 213.417969 310.332031 213.417969 310.332031 C 221.050781 314.15625 233.066406 306.828125 238.714844 304 C 238.714844 304 270.332031 294.5 270.332031 294.5 C 298.863281 280.210938 297.175781 244.640625 324.082031 231.167969 C 339.863281 223.261719 372.550781 265.492188 388.898438 232.75 C 407.890625 194.703125 361.417969 196.703125 357.28125 188.417969 C 348.925781 171.683594 366.316406 149.519531 357.28125 131.417969 C 338.757812 94.316406 288.6875 74.109375 254.523438 57 C 250.636719 55.054688 220.226562 51.28125 218.160156 55.417969 C 215.6875 60.375 222.429688 85.5 215 85.5 C 215 85.5 218.160156 147.25 218.160156 147.25 C 218.160156 151.566406 220.375 167.832031 215 167.832031 Z M 215 167.832031 "/>
</g>
</svg>
