<?xml version="1.0" encoding="UTF-8"?>
<svg xmlns="http://www.w3.org/2000/svg" xmlns:xlink="http://www.w3.org/1999/xlink" width="430px" height="323px" viewBox="0 0 430 323" version="1.1">
<g id="surface1">
<rect x="0" y="0" width="430" height="323" style="fill:rgb(0%,0%,0%);fill-opacity:1;stroke:none;"/>
<path style=" stroke:none;fill-rule:nonzero;fill:rgb(100%,0%,15.294118%);fill-opacity:1;" d="M 154.925781 76 L 167.574219 76 C 167.574219 76 167.574219 34.832031 167.574219 34.832031 C 159.957031 34.832031 151.191406 38 145.441406 38 C 145.441406 38 154.925781 76 154.925781 76 Z M 154.925781 76 "/>
<path style=" stroke:none;fill-rule:nonzero;fill:rgb(49.803922%,0%,7.450981%);fill-opacity:1;" d="M 173.898438 69.667969 L 167.574219 76 C 167.574219 76 167.574219 34.832031 167.574219 34.832031 C 167.574219 34.832031 173.898438 34.832031 173.898438 34.832031 C 173.898438 34.832031 173.898438 69.667969 173.898438 69.667969 Z M 173.898438 69.667969 "/>
<path style=" stroke:none;fill-rule:nonzero;fill:rgb(49.803922%,0%,5.490196%);fill-opacity:1;" d="M 173.898438 69.667969 C 178.414062 69.667969 186.542969 73.746094 186.542969 79.167969 C 196.789062 79.167969 205.757812 60.167969 215 60.167969 C 215 60.167969 215 57 215 57 C 199.738281 57 200.054688 34.832031 173.898438 34.832031 C 173.898438 34.832031 173.898438 69.667969 173.898438 69.667969 Z M 173.898438 69.667969 "/>
<path style=" stroke:none;fill-rule:nonzero;fill:rgb(1.568628%,49.803922%,0%);fill-opacity:1;" d="M 256.101562 72.832031 C 248.988281 72.832031 245.429688 79.167969 240.292969 79.167969 C 240.292969 79.167969 221.324219 63.332031 221.324219 63.332031 C 221.324219 56.019531 228.816406 41.375 235.550781 38 C 239.035156 36.253906 256.101562 33.015625 256.101562 38 C 256.101562 38 256.101562 72.832031 256.101562 72.832031 Z M 256.101562 72.832031 "/>
<path style=" stroke:none;fill-rule:nonzero;fill:rgb(100%,84.313726%,0%);fill-opacity:1;" d="M 154.925781 76 C 129.355469 76 103.664062 98.167969 91.691406 98.167969 C 91.691406 84.300781 75.882812 78.246094 75.882812 63.332031 C 87.40625 63.332031 119.988281 38 145.441406 38 C 145.441406 38 154.925781 76 154.925781 76 Z M 154.925781 76 "/>
<path style=" stroke:none;fill-rule:nonzero;fill:rgb(3.529412%,49.803922%,0%);fill-opacity:1;" d="M 256.101562 72.832031 L 259.265625 76 C 259.265625 64.816406 262.425781 51.007812 262.425781 38 C 262.425781 38 256.101562 38 256.101562 38 C 256.101562 38 256.101562 72.832031 256.101562 72.832031 Z M 256.101562 72.832031 "/>
<path style=" stroke:none;fill-rule:nonzero;fill:rgb(7.450981%,100%,0%);fill-opacity:1;" d="M 259.265625 76 C 259.265625 81.332031 274.058594 79.167969 278.234375 79.167969 C 278.234375 64.832031 284.558594 54.613281 284.558594 41.167969 C 284.558594 35.742188 266.871094 38 262.425781 38 C 262.425781 51.007812 259.265625 64.816406 259.265625 76 Z M 259.265625 76 "/>
<path style=" stroke:none;fill-rule:nonzero;fill:rgb(0%,100%,92.156863%);fill-opacity:1;" d="M 278.234375 79.167969 C 297.25 79.167969 334.46875 104.5 335.148438 104.5 C 335.148438 92.570312 350.957031 83.796875 350.957031 69.667969 C 350.957031 58.464844 295.871094 41.167969 284.558594 41.167969 C 284.558594 54.613281 278.234375 64.832031 278.234375 79.167969 Z M 278.234375 79.167969 "/>
<path style=" stroke:none;fill-rule:nonzero;fill:rgb(1.568628%,49.803922%,0%);fill-opacity:1;" d="M 215 57 C 218.75 57 218.75 60.167969 215 60.167969 C 215 60.167969 215 57 215 57 Z M 215 57 "/>
<path style=" stroke:none;fill-rule:nonzero;fill:rgb(49.803922%,0%,30.588236%);fill-opacity:1;" d="M 189.707031 82.332031 L 215 82.332031 C 215 82.332031 215 60.167969 215 60.167969 C 205.757812 60.167969 196.789062 79.167969 186.542969 79.167969 C 186.542969 79.167969 189.707031 82.332031 189.707031 82.332031 Z M 189.707031 82.332031 "/>
<path style=" stroke:none;fill-rule:nonzero;fill:rgb(49.803922%,16.862746%,0%);fill-opacity:1;" d="M 47.425781 101.332031 C 47.425781 113.089844 66.34375 104.5 67.976562 104.5 L 75.882812 120.332031 C 75.882812 120.332031 91.691406 98.167969 91.691406 98.167969 C 91.691406 84.300781 75.882812 78.246094 75.882812 63.332031 C 75.882812 63.332031 47.425781 91.832031 47.425781 91.832031 C 52.214844 91.832031 47.425781 97.410156 47.425781 101.332031 Z M 47.425781 101.332031 "/>
<path style=" stroke:none;fill-rule:nonzero;fill:rgb(26.666668%,49.803922%,0%);fill-opacity:1;" d="M 218.160156 82.332031 L 237.132812 85.5 C 237.132812 85.5 240.292969 79.167969 240.292969 79.167969 C 240.292969 79.167969 221.324219 63.332031 221.324219 63.332031 C 215.996094 63.332031 218.160156 78.152344 218.160156 82.332031 Z M 218.160156 82.332031 "/>
<path style=" stroke:none;fill-rule:nonzero;fill:rgb(49.803922%,0%,22.745098%);fill-opacity:1;" d="M 66.398438 237.5 C 88.914062 237.5 151.519531 266 82.207031 266 C 82.207031 271.273438 95.554688 269.167969 99.59375 269.167969 C 112.472656 269.167969 136 267.496094 142.28125 254.917969 C 145.53125 248.40625 135.957031 243.832031 135.957031 239.082031 C 135.957031 236.378906 150.988281 240.691406 151.765625 242.25 C 153.710938 246.144531 150.359375 255.003906 153.34375 256.5 C 154.515625 257.085938 201.480469 262.480469 207.09375 259.667969 C 213.058594 256.679688 203.546875 234.332031 211.839844 234.332031 C 211.839844 234.332031 211.839844 171 211.839844 171 C 211.839844 166.816406 209.675781 152 215 152 C 215 152 213.417969 117.167969 213.417969 117.167969 C 213.417969 117.167969 202.351562 121.917969 202.351562 121.917969 C 196.585938 110.363281 215 106.613281 215 98.167969 C 207.007812 98.167969 189.707031 93.066406 189.707031 82.332031 C 189.707031 82.332031 186.542969 79.167969 186.542969 79.167969 C 186.542969 73.746094 178.414062 69.667969 173.898438 69.667969 C 173.898438 69.667969 167.574219 76 167.574219 76 C 167.574219 76 154.925781 76 154.925781 76 C 129.355469 76 103.664062 98.167969 91.691406 98.167969 C 91.691406 98.167969 75.882812 120.332031 75.882812 120.332031 C 75.882812 120.332031 69.558594 129.832031 69.558594 129.832031 C 69.558594 129.832031 56.910156 164.667969 56.910156 164.667969 C 56.910156 164.667969 56.910156 174.167969 56.910156 174.167969 C 56.910156 174.167969 56.910156 199.5 56.910156 199.5 C 56.910156 199.5 56.910156 202.667969 56.910156 202.667969 C 56.910156 216.550781 66.398438 226.980469 66.398438 237.5 Z M 66.398438 237.5 "/>
<path style=" stroke:none;fill-rule:nonzero;fill:rgb(0%,49.803922%,20.784314%);fill-opacity:1;" d="M 385.734375 104.5 C 371.234375 104.5 359.976562 123.5 350.957031 123.5 C 350.957031 123.5 335.148438 104.5 335.148438 104.5 C 335.148438 92.570312 350.957031 83.796875 350.957031 69.667969 C 359.839844 69.667969 385.734375 95.746094 385.734375 104.5 Z M 385.734375 104.5 "/>
<path style=" stroke:none;fill-rule:nonzero;fill:rgb(72.941178%,100%,0%);fill-opacity:1;" d="M 360.441406 240.667969 C 354.722656 240.667969 331.976562 254.9375 328.824219 261.25 C 328.300781 262.296875 331.984375 273.804688 331.984375 275.5 C 316.957031 275.5 293.832031 276.65625 284.558594 258.082031 C 284.558594 258.082031 289.300781 237.5 289.300781 237.5 C 275.792969 230.734375 274.4375 256.027344 273.492188 256.5 C 268.460938 259.019531 213.507812 261.429688 211.839844 258.082031 C 211.839844 258.082031 211.839844 234.332031 211.839844 234.332031 C 217.164062 234.332031 215 219.515625 215 215.332031 C 215 215.332031 215 152 215 152 C 220.703125 152 218.160156 105.265625 218.160156 98.167969 C 224.433594 98.167969 237.132812 93.59375 237.132812 85.5 C 237.132812 85.5 240.292969 79.167969 240.292969 79.167969 C 245.429688 79.167969 248.988281 72.832031 256.101562 72.832031 C 256.101562 72.832031 259.265625 76 259.265625 76 C 259.265625 81.332031 274.058594 79.167969 278.234375 79.167969 C 297.25 79.167969 334.46875 104.5 335.148438 104.5 C 335.148438 104.5 350.957031 123.5 350.957031 123.5 C 350.957031 123.5 357.28125 133 357.28125 133 C 357.28125 145 366.765625 151.714844 366.765625 164.667969 C 366.765625 164.667969 369.925781 180.5 369.925781 180.5 C 369.925781 180.5 369.925781 202.667969 369.925781 202.667969 C 369.925781 202.667969 369.925781 205.832031 369.925781 205.832031 C 369.925781 205.832031 360.441406 240.667969 360.441406 240.667969 Z M 360.441406 240.667969 "/>
<path style=" stroke:none;fill-rule:nonzero;fill:rgb(100%,0%,61.176473%);fill-opacity:1;" d="M 215 82.332031 L 215 98.167969 C 207.007812 98.167969 189.707031 93.066406 189.707031 82.332031 C 189.707031 82.332031 215 82.332031 215 82.332031 Z M 215 82.332031 "/>
<path style=" stroke:none;fill-rule:nonzero;fill:rgb(53.333336%,100%,0%);fill-opacity:1;" d="M 237.132812 85.5 C 237.132812 93.59375 224.433594 98.167969 218.160156 98.167969 C 218.160156 98.167969 218.160156 82.332031 218.160156 82.332031 C 218.160156 82.332031 237.132812 85.5 237.132812 85.5 Z M 237.132812 85.5 "/>
<path style=" stroke:none;fill-rule:nonzero;fill:rgb(100%,38.039216%,0%);fill-opacity:1;" d="M 44.265625 98.167969 L 47.425781 101.332031 C 47.425781 97.410156 52.214844 91.832031 47.425781 91.832031 C 47.425781 91.832031 44.265625 98.167969 44.265625 98.167969 Z M 44.265625 98.167969 "/>
<path style=" stroke:none;fill-rule:nonzero;fill:rgb(100%,0%,7.450981%);fill-opacity:1;" d="M 75.882812 120.332031 L 69.558594 129.832031 C 69.558594 105.167969 54.699219 123.5 52.167969 123.5 C 52.167969 123.5 31.617188 114 31.617188 114 C 31.617188 114 44.265625 98.167969 44.265625 98.167969 C 44.265625 98.167969 47.425781 101.332031 47.425781 101.332031 C 47.425781 113.089844 66.34375 104.5 67.976562 104.5 C 67.976562 104.5 75.882812 120.332031 75.882812 120.332031 Z M 75.882812 120.332031 "/>
<path style=" stroke:none;fill-rule:nonzero;fill:rgb(0%,100%,0%);fill-opacity:1;" d="M 350.957031 123.5 L 357.28125 133 C 357.28125 116.722656 392.058594 124.734375 392.058594 117.167969 C 392.058594 117.167969 385.734375 104.5 385.734375 104.5 C 371.234375 104.5 359.976562 123.5 350.957031 123.5 Z M 350.957031 123.5 "/>
<path style=" stroke:none;fill-rule:nonzero;fill:rgb(49.803922%,20.784314%,0%);fill-opacity:1;" d="M 56.910156 164.667969 L 18.96875 167.832031 C 18.96875 148.304688 31.617188 131.132812 31.617188 114 C 31.617188 114 52.167969 123.5 52.167969 123.5 C 54.699219 123.5 69.558594 105.167969 69.558594 129.832031 C 69.558594 129.832031 56.910156 164.667969 56.910156 164.667969 Z M 56.910156 164.667969 "/>
<path style=" stroke:none;fill-rule:nonzero;fill:rgb(0%,49.803922%,24.705882%);fill-opacity:1;" d="M 366.765625 164.667969 C 370.546875 164.667969 397.972656 174.167969 407.867188 174.167969 C 407.867188 165.765625 397.707031 117.167969 392.058594 117.167969 C 392.058594 124.734375 357.28125 116.722656 357.28125 133 C 357.28125 145 366.765625 151.714844 366.765625 164.667969 Z M 366.765625 164.667969 "/>
<path style=" stroke:none;fill-rule:nonzero;fill:rgb(49.803922%,0%,3.529412%);fill-opacity:1;" d="M 18.96875 180.5 L 22.132812 180.5 C 22.132812 180.5 37.941406 177.332031 37.941406 177.332031 C 37.941406 177.332031 47.425781 177.332031 47.425781 177.332031 C 47.425781 177.332031 56.910156 174.167969 56.910156 174.167969 C 56.910156 174.167969 56.910156 164.667969 56.910156 164.667969 C 56.910156 164.667969 18.96875 167.832031 18.96875 167.832031 C 18.96875 167.832031 18.96875 180.5 18.96875 180.5 Z M 18.96875 180.5 "/>
<path style=" stroke:none;fill-rule:nonzero;fill:rgb(0%,49.803922%,0%);fill-opacity:1;" d="M 385.734375 183.667969 C 390.679688 183.667969 397.992188 186.832031 404.707031 186.832031 C 409.699219 186.832031 407.867188 177.792969 407.867188 174.167969 C 397.972656 174.167969 370.546875 164.667969 366.765625 164.667969 C 366.765625 164.667969 369.925781 180.5 369.925781 180.5 C 369.925781 180.5 379.410156 180.5 379.410156 180.5 C 379.410156 180.5 385.734375 183.667969 385.734375 183.667969 Z M 385.734375 183.667969 "/>
<path style=" stroke:none;fill-rule:nonzero;fill:rgb(0%,100%,88.235295%);fill-opacity:1;" d="M 34.78125 202.667969 L 44.265625 202.667969 C 44.265625 197.667969 53.289062 199.5 56.910156 199.5 C 56.910156 199.5 56.910156 174.167969 56.910156 174.167969 C 56.910156 174.167969 47.425781 177.332031 47.425781 177.332031 C 47.425781 182.039062 37.941406 182.039062 37.941406 177.332031 C 37.941406 177.332031 22.132812 180.5 22.132812 180.5 C 22.132812 180.5 22.132812 186.832031 22.132812 186.832031 C 22.132812 186.832031 25.292969 202.667969 25.292969 202.667969 C 25.292969 202.667969 34.78125 202.667969 34.78125 202.667969 Z M 34.78125 202.667969 "/>
<path style=" stroke:none;fill-rule:nonzero;fill:rgb(32.549021%,49.803922%,0%);fill-opacity:1;" d="M 37.941406 177.332031 L 47.425781 177.332031 C 47.425781 182.039062 37.941406 182.039062 37.941406 177.332031 Z M 37.941406 177.332031 "/>
<path style=" stroke:none;fill-rule:nonzero;fill:rgb(32.549021%,49.803922%,0%);fill-opacity:1;" d="M 22.132812 180.5 L 22.132812 186.832031 C 22.132812 186.832031 18.96875 180.5 18.96875 180.5 C 18.96875 180.5 22.132812 180.5 22.132812 180.5 Z M 22.132812 180.5 "/>
<path style=" stroke:none;fill-rule:nonzero;fill:rgb(100%,0%,0%);fill-opacity:1;" d="M 398.382812 209 L 401.542969 209 C 401.542969 209 404.707031 186.832031 404.707031 186.832031 C 397.992188 186.832031 390.679688 183.667969 385.734375 183.667969 C 385.734375 183.667969 379.410156 180.5 379.410156 180.5 C 379.410156 180.5 369.925781 180.5 369.925781 180.5 C 369.925781 180.5 369.925781 202.667969 369.925781 202.667969 C 369.925781 202.667969 376.25 205.832031 376.25 205.832031 C 376.25 205.832031 379.410156 205.832031 379.410156 205.832031 C 384.355469 205.832031 391.667969 209 398.382812 209 Z M 398.382812 209 "/>
<path style=" stroke:none;fill-rule:nonzero;fill:rgb(0%,7.450981%,49.803922%);fill-opacity:1;" d="M 379.410156 180.5 L 385.734375 183.667969 C 385.734375 183.667969 379.410156 180.5 379.410156 180.5 Z M 379.410156 180.5 "/>
<path style=" stroke:none;fill-rule:nonzero;fill:rgb(49.803922%,43.921569%,0%);fill-opacity:1;" d="M 44.265625 202.667969 L 56.910156 202.667969 C 56.910156 202.667969 56.910156 199.5 56.910156 199.5 C 53.289062 199.5 44.265625 197.667969 44.265625 202.667969 Z M 44.265625 202.667969 "/>
<path style=" stroke:none;fill-rule:nonzero;fill:rgb(49.803922%,43.921569%,0%);fill-opacity:1;" d="M 28.457031 205.832031 L 34.78125 205.832031 C 34.78125 205.832031 34.78125 202.667969 34.78125 202.667969 C 34.78125 202.667969 25.292969 202.667969 25.292969 202.667969 C 25.292969 202.667969 25.292969 205.832031 25.292969 205.832031 C 25.292969 205.832031 28.457031 205.832031 28.457031 205.832031 Z M 28.457031 205.832031 "/>
<path style=" stroke:none;fill-rule:nonzero;fill:rgb(0%,22.745098%,100%);fill-opacity:1;" d="M 66.398438 237.5 C 56.761719 237.5 47.484375 236.679688 39.523438 240.667969 L 31.617188 250.167969 C 31.617188 243.101562 24.074219 228.859375 28.457031 220.082031 C 28.457031 220.082031 37.941406 216.917969 37.941406 216.917969 C 37.941406 216.917969 34.78125 205.832031 34.78125 205.832031 C 34.78125 205.832031 34.78125 202.667969 34.78125 202.667969 C 34.78125 202.667969 44.265625 202.667969 44.265625 202.667969 C 44.265625 202.667969 56.910156 202.667969 56.910156 202.667969 C 56.910156 216.550781 66.398438 226.980469 66.398438 237.5 Z M 66.398438 237.5 "/>
<path style=" stroke:none;fill-rule:nonzero;fill:rgb(0%,49.803922%,47.843137%);fill-opacity:1;" d="M 369.925781 205.832031 L 376.25 205.832031 C 376.25 205.832031 369.925781 202.667969 369.925781 202.667969 C 369.925781 202.667969 369.925781 205.832031 369.925781 205.832031 Z M 369.925781 205.832031 "/>
<path style=" stroke:none;fill-rule:nonzero;fill:rgb(49.803922%,0%,22.745098%);fill-opacity:1;" d="M 25.292969 205.832031 L 28.457031 205.832031 C 28.457031 209.589844 25.292969 209.589844 25.292969 205.832031 Z M 25.292969 205.832031 "/>
<path style=" stroke:none;fill-rule:nonzero;fill:rgb(100%,49.803922%,0%);fill-opacity:1;" d="M 360.441406 240.667969 C 370.296875 240.667969 384.074219 250.167969 392.058594 250.167969 C 392.058594 244.453125 398.957031 233.902344 395.21875 226.417969 C 390.511719 216.984375 388.898438 224.003906 388.898438 212.167969 C 384.984375 212.167969 379.410156 210.828125 379.410156 205.832031 C 379.410156 205.832031 376.25 205.832031 376.25 205.832031 C 376.25 205.832031 369.925781 205.832031 369.925781 205.832031 C 369.925781 205.832031 360.441406 240.667969 360.441406 240.667969 Z M 360.441406 240.667969 "/>
<path style=" stroke:none;fill-rule:nonzero;fill:rgb(0%,49.803922%,47.843137%);fill-opacity:1;" d="M 395.21875 212.167969 L 398.382812 212.167969 C 398.382812 212.167969 398.382812 209 398.382812 209 C 391.667969 209 384.355469 205.832031 379.410156 205.832031 C 379.410156 210.828125 384.984375 212.167969 388.898438 212.167969 C 388.898438 212.167969 395.21875 212.167969 395.21875 212.167969 Z M 395.21875 212.167969 "/>
<path style=" stroke:none;fill-rule:nonzero;fill:rgb(72.941178%,100%,0%);fill-opacity:1;" d="M 401.542969 209 L 398.382812 212.167969 C 398.382812 212.167969 398.382812 209 398.382812 209 C 398.382812 209 401.542969 209 401.542969 209 Z M 401.542969 209 "/>
<path style=" stroke:none;fill-rule:nonzero;fill:rgb(72.941178%,100%,0%);fill-opacity:1;" d="M 395.21875 212.167969 L 398.382812 212.167969 C 398.382812 215.921875 395.21875 215.921875 395.21875 212.167969 Z M 395.21875 212.167969 "/>
<path style=" stroke:none;fill-rule:nonzero;fill:rgb(100%,41.960785%,0%);fill-opacity:1;" d="M 63.234375 269.167969 L 66.398438 269.167969 C 66.398438 269.167969 69.558594 266 69.558594 266 C 69.558594 266 82.207031 266 82.207031 266 C 151.519531 266 88.914062 237.5 66.398438 237.5 C 56.761719 237.5 47.484375 236.679688 39.523438 240.667969 C 39.523438 240.667969 31.617188 250.167969 31.617188 250.167969 C 31.617188 261.414062 42.355469 272.332031 53.75 272.332031 C 53.75 267.667969 59.921875 269.167969 63.234375 269.167969 Z M 63.234375 269.167969 "/>
<path style=" stroke:none;fill-rule:nonzero;fill:rgb(0%,100%,49.803922%);fill-opacity:1;" d="M 331.984375 275.5 C 349.90625 275.5 366.691406 275.5 382.574219 275.5 C 382.574219 275.5 382.574219 272.332031 382.574219 272.332031 C 382.574219 266.800781 383.375 266 388.898438 266 C 388.898438 266 392.058594 250.167969 392.058594 250.167969 C 384.074219 250.167969 370.296875 240.667969 360.441406 240.667969 C 354.722656 240.667969 331.976562 254.9375 328.824219 261.25 C 328.300781 262.296875 331.984375 273.804688 331.984375 275.5 Z M 331.984375 275.5 "/>
<path style=" stroke:none;fill-rule:nonzero;fill:rgb(49.803922%,0%,22.745098%);fill-opacity:1;" d="M 69.558594 266 L 66.398438 269.167969 C 66.398438 269.167969 69.558594 266 69.558594 266 Z M 69.558594 266 "/>
<path style=" stroke:none;fill-rule:nonzero;fill:rgb(100%,49.803922%,0%);fill-opacity:1;" d="M 382.574219 272.332031 L 385.734375 272.332031 C 385.734375 272.332031 388.898438 266 388.898438 266 C 383.375 266 382.574219 266.800781 382.574219 272.332031 Z M 382.574219 272.332031 "/>
<path style=" stroke:none;fill-rule:nonzero;fill:rgb(49.803922%,0%,22.745098%);fill-opacity:1;" d="M 63.234375 269.167969 C 59.921875 269.167969 53.75 267.667969 53.75 272.332031 C 57.0625 272.332031 63.234375 273.832031 63.234375 269.167969 Z M 63.234375 269.167969 "/>
<path style=" stroke:none;fill-rule:nonzero;fill:rgb(72.941178%,100%,0%);fill-opacity:1;" d="M 385.734375 272.332031 L 382.574219 275.5 C 382.574219 275.5 382.574219 272.332031 382.574219 272.332031 C 382.574219 272.332031 385.734375 272.332031 385.734375 272.332031 Z M 385.734375 272.332031 "/>
</g>
</svg>
