<?xml version="1.0" encoding="UTF-8"?>
<svg xmlns="http://www.w3.org/2000/svg" xmlns:xlink="http://www.w3.org/1999/xlink" width="430px" height="323px" viewBox="0 0 430 323" version="1.1">
<g id="surface1">
<rect x="0" y="0" width="430" height="323" style="fill:rgb(0%,0%,0%);fill-opacity:1;stroke:none;"/>
<path style=" stroke:none;fill-rule:nonzero;fill:rgb(0%,49.803922%,41.960785%);fill-opacity:1;" d="M 148.601562 95 L 135.957031 101.332031 C 135.957031 101.332031 129.632812 87.082031 129.632812 87.082031 C 129.632812 75.269531 129.632812 62.957031 129.632812 47.5 C 129.632812 47.5 158.089844 44.332031 158.089844 44.332031 C 158.089844 60.65625 148.601562 77.296875 148.601562 95 Z M 148.601562 95 "/>
<path style=" stroke:none;fill-rule:nonzero;fill:rgb(5.490196%,49.803922%,0%);fill-opacity:1;" d="M 148.601562 95 L 170.734375 95 C 170.734375 95 173.898438 91.832031 173.898438 91.832031 C 173.898438 91.832031 177.058594 76 177.058594 76 C 177.058594 63.667969 189.707031 57.609375 189.707031 44.332031 C 189.707031 44.332031 158.089844 44.332031 158.089844 44.332031 C 158.089844 60.65625 148.601562 77.296875 148.601562 95 Z M 148.601562 95 "/>
<path style=" stroke:none;fill-rule:nonzero;fill:rgb(61.176473%,100%,0%);fill-opacity:1;" d="M 199.191406 50.667969 C 185.902344 50.667969 191.679688 76 177.058594 76 C 177.058594 63.667969 189.707031 57.609375 189.707031 44.332031 C 193.621094 44.332031 199.191406 45.671875 199.191406 50.667969 Z M 199.191406 50.667969 "/>
<path style=" stroke:none;fill-rule:nonzero;fill:rgb(0%,7.450981%,100%);fill-opacity:1;" d="M 230.808594 47.5 L 246.617188 72.832031 C 246.617188 61 240.292969 56.164062 240.292969 44.332031 C 236.980469 44.332031 230.808594 42.835938 230.808594 47.5 Z M 230.808594 47.5 "/>
<path style=" stroke:none;fill-rule:nonzero;fill:rgb(49.803922%,0%,49.803922%);fill-opacity:1;" d="M 256.101562 95 C 256.101562 100 265.128906 98.167969 268.75 98.167969 C 268.75 98.167969 275.074219 83.917969 275.074219 83.917969 C 279.121094 75.808594 271.910156 53.59375 271.910156 44.332031 C 271.910156 44.332031 240.292969 44.332031 240.292969 44.332031 C 240.292969 56.164062 246.617188 61 246.617188 72.832031 C 246.617188 72.832031 256.101562 95 256.101562 95 Z M 256.101562 95 "/>
<path style=" stroke:none;fill-rule:nonzero;fill:rgb(49.803922%,0%,1.568628%);fill-opacity:1;" d="M 268.75 98.167969 L 290.882812 104.5 C 290.882812 83.792969 300.367188 71.546875 300.367188 50.667969 C 300.367188 50.667969 271.910156 44.332031 271.910156 44.332031 C 271.910156 53.59375 279.121094 75.808594 275.074219 83.917969 C 275.074219 83.917969 268.75 98.167969 268.75 98.167969 Z M 268.75 98.167969 "/>
<path style=" stroke:none;fill-rule:nonzero;fill:rgb(0%,100%,84.313726%);fill-opacity:1;" d="M 135.957031 101.332031 L 116.984375 107.667969 C 116.984375 99.984375 94.851562 80.050781 94.851562 63.332031 C 94.851562 58.554688 124.582031 47.5 129.632812 47.5 C 129.632812 62.957031 129.632812 75.269531 129.632812 87.082031 C 129.632812 87.082031 135.957031 101.332031 135.957031 101.332031 Z M 135.957031 101.332031 "/>
<path style=" stroke:none;fill-rule:nonzero;fill:rgb(49.803922%,100%,0%);fill-opacity:1;" d="M 246.617188 95 L 256.101562 95 C 256.101562 95 246.617188 72.832031 246.617188 72.832031 C 246.617188 72.832031 230.808594 47.5 230.808594 47.5 C 218.828125 47.5 218.160156 73.242188 218.160156 82.332031 C 218.160156 82.332031 246.617188 95 246.617188 95 Z M 246.617188 95 "/>
<path style=" stroke:none;fill-rule:nonzero;fill:rgb(100%,0%,57.254905%);fill-opacity:1;" d="M 215 82.332031 C 200.132812 82.332031 190.1875 91.832031 173.898438 91.832031 C 173.898438 91.832031 177.058594 76 177.058594 76 C 191.679688 76 185.902344 50.667969 199.191406 50.667969 C 215.09375 50.667969 215 71.214844 215 82.332031 Z M 215 82.332031 "/>
<path style=" stroke:none;fill-rule:nonzero;fill:rgb(100%,0%,3.529412%);fill-opacity:1;" d="M 290.882812 104.5 L 306.691406 110.832031 C 306.691406 102.660156 333.847656 72.832031 341.46875 72.832031 C 341.46875 66.503906 306.785156 50.667969 300.367188 50.667969 C 300.367188 71.546875 290.882812 83.792969 290.882812 104.5 Z M 290.882812 104.5 "/>
<path style=" stroke:none;fill-rule:nonzero;fill:rgb(0%,30.588236%,100%);fill-opacity:1;" d="M 110.660156 110.832031 L 107.5 114 C 107.5 102.019531 88.546875 76 75.882812 76 C 75.882812 76 79.042969 72.832031 79.042969 72.832031 C 82.390625 72.832031 88.621094 69.667969 82.207031 69.667969 C 82.207031 69.667969 94.851562 63.332031 94.851562 63.332031 C 94.851562 80.050781 116.984375 99.984375 116.984375 107.667969 C 116.984375 107.667969 113.824219 107.667969 113.824219 107.667969 C 113.824219 107.667969 110.660156 110.832031 110.660156 110.832031 Z M 110.660156 110.832031 "/>
<path style=" stroke:none;fill-rule:nonzero;fill:rgb(38.431373%,0%,49.803922%);fill-opacity:1;" d="M 82.207031 69.667969 C 88.621094 69.667969 82.390625 72.832031 79.042969 72.832031 C 79.042969 72.832031 82.207031 69.667969 82.207031 69.667969 Z M 82.207031 69.667969 "/>
<path style=" stroke:none;fill-rule:nonzero;fill:rgb(100%,45.882353%,0%);fill-opacity:1;" d="M 306.691406 110.832031 L 313.015625 114 C 313.015625 107.546875 339.992188 79.167969 347.792969 79.167969 C 347.792969 79.167969 341.46875 72.832031 341.46875 72.832031 C 333.847656 72.832031 306.691406 102.660156 306.691406 110.832031 Z M 306.691406 110.832031 "/>
<path style=" stroke:none;fill-rule:nonzero;fill:rgb(38.431373%,0%,49.803922%);fill-opacity:1;" d="M 88.53125 142.5 L 85.367188 145.667969 C 77.085938 145.667969 45.898438 123.5 44.265625 123.5 C 44.265625 115.667969 65.828125 76 75.882812 76 C 88.546875 76 107.5 102.019531 107.5 114 C 107.5 123.117188 88.53125 131.828125 88.53125 142.5 Z M 88.53125 142.5 "/>
<path style=" stroke:none;fill-rule:nonzero;fill:rgb(49.803922%,47.843137%,0%);fill-opacity:1;" d="M 313.015625 114 L 328.824219 133 C 334.003906 133 336.585938 133 339.890625 133 C 350.1875 133 342.765625 118.890625 346.214844 117.167969 C 353.085938 113.722656 366.765625 110.390625 366.765625 101.332031 C 366.765625 96.265625 353.710938 79.167969 347.792969 79.167969 C 339.992188 79.167969 313.015625 107.546875 313.015625 114 Z M 313.015625 114 "/>
<path style=" stroke:none;fill-rule:nonzero;fill:rgb(49.803922%,0%,28.627452%);fill-opacity:1;" d="M 173.898438 95 C 188.105469 95 190.980469 117.167969 211.839844 117.167969 C 211.839844 107.671875 215 93.867188 215 82.332031 C 200.132812 82.332031 190.1875 91.832031 173.898438 91.832031 C 173.898438 91.832031 173.898438 95 173.898438 95 Z M 173.898438 95 "/>
<path style=" stroke:none;fill-rule:nonzero;fill:rgb(24.705882%,49.803922%,0%);fill-opacity:1;" d="M 246.617188 95 C 246.617188 109.886719 231.464844 117.167969 218.160156 117.167969 C 218.160156 117.167969 218.160156 82.332031 218.160156 82.332031 C 218.160156 82.332031 246.617188 95 246.617188 95 Z M 246.617188 95 "/>
<path style=" stroke:none;fill-rule:nonzero;fill:rgb(100%,0%,57.254905%);fill-opacity:1;" d="M 170.734375 95 L 173.898438 95 C 173.898438 95 173.898438 91.832031 173.898438 91.832031 C 173.898438 91.832031 170.734375 95 170.734375 95 Z M 170.734375 95 "/>
<path style=" stroke:none;fill-rule:evenodd;fill:rgb(49.803922%,0%,22.745098%);fill-opacity:1;" d="M 177.058594 266 C 177.058594 272.113281 183.160156 266 177.058594 266 M 211.839844 218.5 C 204.855469 218.5 219.625 270.808594 210.257812 275.5 C 201.601562 279.832031 168.46875 269.511719 156.507812 275.5 C 126.765625 290.394531 83.324219 285.652344 66.398438 251.75 L 53.75 231.167969 C 53.75 225.214844 60.320312 233.417969 64.816406 231.167969 C 64.816406 231.167969 79.042969 216.917969 79.042969 216.917969 C 79.042969 216.917969 79.042969 190 79.042969 190 C 79.042969 190 79.042969 183.667969 79.042969 183.667969 C 79.042969 183.667969 79.042969 171 79.042969 171 C 79.042969 164.96875 79.042969 163.1875 79.042969 158.332031 C 79.042969 158.332031 85.367188 145.667969 85.367188 145.667969 C 85.367188 145.667969 88.53125 142.5 88.53125 142.5 C 88.53125 131.828125 107.5 123.117188 107.5 114 C 107.5 114 110.660156 110.832031 110.660156 110.832031 C 110.660156 110.832031 113.824219 107.667969 113.824219 107.667969 C 113.824219 107.667969 116.984375 107.667969 116.984375 107.667969 C 116.984375 107.667969 135.957031 101.332031 135.957031 101.332031 C 135.957031 101.332031 148.601562 95 148.601562 95 C 148.601562 95 170.734375 95 170.734375 95 C 170.734375 95 173.898438 95 173.898438 95 C 188.105469 95 190.980469 117.167969 211.839844 117.167969 C 217.03125 117.167969 215 129.089844 215 133 C 209.675781 133 211.839844 147.816406 211.839844 152 C 211.839844 152 211.839844 215.332031 211.839844 215.332031 C 211.839844 215.332031 211.839844 218.5 211.839844 218.5 Z M 211.839844 218.5 "/>
<path style=" stroke:none;fill-rule:nonzero;fill:rgb(72.941178%,100%,0%);fill-opacity:1;" d="M 211.839844 218.5 C 211.839844 228.339844 210.25 264.402344 215 273.917969 L 257.683594 275.5 L 286.140625 291.332031 C 311.882812 304.226562 369.925781 258.929688 369.925781 228 C 346.511719 228 344.632812 213.738281 344.632812 193.167969 C 344.632812 193.167969 344.632812 183.667969 344.632812 183.667969 C 344.632812 183.667969 344.632812 171 344.632812 171 C 342.507812 171 338.308594 157.289062 338.308594 155.167969 C 338.308594 155.167969 331.984375 139.332031 331.984375 139.332031 C 331.984375 139.332031 331.984375 136.167969 331.984375 136.167969 C 331.984375 136.167969 328.824219 133 328.824219 133 C 328.824219 133 313.015625 114 313.015625 114 C 313.015625 114 306.691406 110.832031 306.691406 110.832031 C 306.691406 110.832031 290.882812 104.5 290.882812 104.5 C 290.882812 104.5 268.75 98.167969 268.75 98.167969 C 265.128906 98.167969 256.101562 100 256.101562 95 C 256.101562 95 246.617188 95 246.617188 95 C 246.617188 109.886719 231.464844 117.167969 218.160156 117.167969 C 218.160156 121.074219 220.195312 133 215 133 C 215 133 215 196.332031 215 196.332031 C 215 200.515625 217.164062 215.332031 211.839844 215.332031 C 211.839844 215.332031 211.839844 218.5 211.839844 218.5 Z M 211.839844 218.5 "/>
<path style=" stroke:none;fill-rule:nonzero;fill:rgb(45.882353%,0%,49.803922%);fill-opacity:1;" d="M 385.734375 148.832031 C 367.59375 148.832031 354.523438 155.167969 338.308594 155.167969 C 338.308594 155.167969 331.984375 139.332031 331.984375 139.332031 C 335.734375 139.332031 335.734375 136.167969 331.984375 136.167969 C 331.984375 136.167969 328.824219 133 328.824219 133 C 334.003906 133 336.585938 133 339.890625 133 C 350.1875 133 342.765625 118.890625 346.214844 117.167969 C 353.085938 113.722656 366.765625 110.390625 366.765625 101.332031 C 372.375 101.332031 385.734375 142.261719 385.734375 148.832031 Z M 385.734375 148.832031 "/>
<path style=" stroke:none;fill-rule:nonzero;fill:rgb(38.431373%,0%,49.803922%);fill-opacity:1;" d="M 113.824219 107.667969 L 110.660156 110.832031 C 110.660156 110.832031 113.824219 107.667969 113.824219 107.667969 Z M 113.824219 107.667969 "/>
<path style=" stroke:none;fill-rule:nonzero;fill:rgb(7.450981%,49.803922%,0%);fill-opacity:1;" d="M 37.941406 148.832031 C 47.835938 148.832031 60.011719 158.332031 79.042969 158.332031 C 79.042969 158.332031 85.367188 145.667969 85.367188 145.667969 C 77.085938 145.667969 45.898438 123.5 44.265625 123.5 C 44.265625 123.5 37.941406 148.832031 37.941406 148.832031 Z M 37.941406 148.832031 "/>
<path style=" stroke:none;fill-rule:nonzero;fill:rgb(49.803922%,47.843137%,0%);fill-opacity:1;" d="M 331.984375 136.167969 C 335.734375 136.167969 335.734375 139.332031 331.984375 139.332031 C 331.984375 139.332031 331.984375 136.167969 331.984375 136.167969 Z M 331.984375 136.167969 "/>
<path style=" stroke:none;fill-rule:nonzero;fill:rgb(7.450981%,49.803922%,0%);fill-opacity:1;" d="M 88.53125 142.5 L 85.367188 145.667969 C 85.367188 145.667969 88.53125 142.5 88.53125 142.5 Z M 88.53125 142.5 "/>
<path style=" stroke:none;fill-rule:nonzero;fill:rgb(65.098041%,100%,0%);fill-opacity:1;" d="M 79.042969 171 L 34.78125 177.332031 C 34.78125 177.332031 37.941406 148.832031 37.941406 148.832031 C 47.835938 148.832031 60.011719 158.332031 79.042969 158.332031 C 79.042969 163.1875 79.042969 164.96875 79.042969 171 Z M 79.042969 171 "/>
<path style=" stroke:none;fill-rule:nonzero;fill:rgb(0%,15.294118%,100%);fill-opacity:1;" d="M 344.632812 171 C 358.707031 171 373.738281 180.5 388.898438 180.5 C 388.898438 180.5 385.734375 148.832031 385.734375 148.832031 C 367.59375 148.832031 354.523438 155.167969 338.308594 155.167969 C 338.308594 157.289062 342.507812 171 344.632812 171 Z M 344.632812 171 "/>
<path style=" stroke:none;fill-rule:nonzero;fill:rgb(0%,100%,38.039216%);fill-opacity:1;" d="M 79.042969 183.667969 L 34.78125 186.832031 C 34.78125 186.832031 34.78125 177.332031 34.78125 177.332031 C 34.78125 177.332031 79.042969 171 79.042969 171 C 79.042969 171 79.042969 183.667969 79.042969 183.667969 Z M 79.042969 183.667969 "/>
<path style=" stroke:none;fill-rule:nonzero;fill:rgb(100%,0%,49.803922%);fill-opacity:1;" d="M 344.632812 183.667969 C 359.429688 183.667969 375.351562 193.167969 388.898438 193.167969 C 388.898438 193.167969 388.898438 180.5 388.898438 180.5 C 373.738281 180.5 358.707031 171 344.632812 171 C 344.632812 171 344.632812 183.667969 344.632812 183.667969 Z M 344.632812 183.667969 "/>
<path style=" stroke:none;fill-rule:nonzero;fill:rgb(84.313726%,0%,100%);fill-opacity:1;" d="M 79.042969 190 C 66.828125 190 54.597656 199.5 41.101562 199.5 C 41.101562 199.5 34.78125 186.832031 34.78125 186.832031 C 34.78125 186.832031 79.042969 183.667969 79.042969 183.667969 C 79.042969 183.667969 79.042969 190 79.042969 190 Z M 79.042969 190 "/>
<path style=" stroke:none;fill-rule:nonzero;fill:rgb(100%,100%,0%);fill-opacity:1;" d="M 388.898438 193.167969 C 388.898438 196.464844 385.78125 209 382.574219 209 C 382.574219 200.84375 350.636719 193.167969 344.632812 193.167969 C 344.632812 193.167969 344.632812 183.667969 344.632812 183.667969 C 359.429688 183.667969 375.351562 193.167969 388.898438 193.167969 Z M 388.898438 193.167969 "/>
<path style=" stroke:none;fill-rule:nonzero;fill:rgb(100%,92.156863%,0%);fill-opacity:1;" d="M 41.101562 199.5 C 41.101562 217.640625 50.339844 213.253906 53.75 220.082031 C 55.203125 222.996094 45.597656 231.167969 53.75 231.167969 C 53.75 225.214844 60.320312 233.417969 64.816406 231.167969 C 64.816406 231.167969 79.042969 216.917969 79.042969 216.917969 C 79.042969 216.917969 79.042969 190 79.042969 190 C 66.828125 190 54.597656 199.5 41.101562 199.5 Z M 41.101562 199.5 "/>
<path style=" stroke:none;fill-rule:nonzero;fill:rgb(0%,100%,100%);fill-opacity:1;" d="M 379.410156 218.5 L 369.925781 228 C 346.511719 228 344.632812 213.738281 344.632812 193.167969 C 350.636719 193.167969 382.574219 200.84375 382.574219 209 C 382.574219 212.316406 384.070312 218.5 379.410156 218.5 Z M 379.410156 218.5 "/>
<path style=" stroke:none;fill-rule:nonzero;fill:rgb(72.941178%,100%,0%);fill-opacity:1;" d="M 379.410156 218.5 L 369.925781 228 C 376.378906 228 379.410156 224.960938 379.410156 218.5 Z M 379.410156 218.5 "/>
</g>
</svg>
