<?xml version="1.0" encoding="UTF-8"?>
<svg xmlns="http://www.w3.org/2000/svg" xmlns:xlink="http://www.w3.org/1999/xlink" width="430px" height="323px" viewBox="0 0 430 323" version="1.1">
<g id="surface1">
<rect x="0" y="0" width="430" height="323" style="fill:rgb(0%,0%,0%);fill-opacity:1;stroke:none;"/>
<path style=" stroke:none;fill-rule:nonzero;fill:rgb(49.803922%,0%,22.745098%);fill-opacity:1;" d="M 164.410156 63.332031 C 169.449219 63.332031 192.867188 56.800781 192.867188 66.5 C 187.890625 66.5 164.410156 68.878906 164.410156 63.332031 Z M 164.410156 63.332031 "/>
<path style=" stroke:none;fill-rule:nonzero;fill:rgb(61.176473%,100%,0%);fill-opacity:1;" d="M 139.117188 126.667969 C 129.890625 126.667969 118.070312 136.167969 110.660156 136.167969 C 110.660156 131.214844 107.5 123.890625 107.5 117.167969 C 107.5 117.167969 107.5 114 107.5 114 C 107.5 114 107.5 110.832031 107.5 110.832031 C 112.199219 110.832031 112.199219 101.332031 107.5 101.332031 C 107.5 78.621094 147.003906 63.332031 164.410156 63.332031 C 164.410156 68.878906 187.890625 66.5 192.867188 66.5 C 192.867188 66.5 196.03125 66.5 196.03125 66.5 C 196.03125 66.5 199.191406 69.667969 199.191406 69.667969 C 199.191406 69.667969 202.351562 69.667969 202.351562 69.667969 C 202.351562 69.667969 205.515625 72.832031 205.515625 72.832031 C 205.515625 72.832031 208.675781 76 208.675781 76 C 208.675781 76 211.839844 79.167969 211.839844 79.167969 C 211.839844 79.167969 215 85.5 215 85.5 C 215 85.5 215 104.5 215 104.5 C 199.976562 104.5 173.90625 126.667969 161.25 126.667969 C 161.25 126.667969 154.925781 120.332031 154.925781 120.332031 C 147.339844 120.332031 138.113281 107.378906 131.214844 110.832031 C 128.765625 112.058594 134.960938 123.5 139.117188 123.5 C 139.117188 123.5 139.117188 126.667969 139.117188 126.667969 Z M 139.117188 126.667969 "/>
<path style=" stroke:none;fill-rule:nonzero;fill:rgb(0%,7.450981%,100%);fill-opacity:1;" d="M 294.042969 129.832031 L 316.175781 139.332031 C 318.757812 139.332031 322.5 117.105469 322.5 114 C 318.75 114 318.75 110.832031 322.5 110.832031 C 322.5 110.832031 319.339844 101.332031 319.339844 101.332031 C 319.339844 101.332031 316.175781 98.167969 316.175781 98.167969 C 316.175781 98.167969 313.015625 91.832031 313.015625 91.832031 C 313.015625 91.832031 309.851562 88.667969 309.851562 88.667969 C 309.851562 88.667969 306.691406 85.5 306.691406 85.5 C 306.691406 85.5 303.53125 82.332031 303.53125 82.332031 C 303.53125 82.332031 282.976562 69.667969 282.976562 69.667969 C 248.558594 52.429688 218.160156 63.460938 218.160156 104.5 C 226.140625 104.5 250.550781 129.832031 265.589844 129.832031 C 265.589844 122.570312 268.742188 123.5 275.074219 123.5 C 275.074219 120.480469 294.433594 113.191406 297.207031 118.75 C 297.207031 118.75 294.042969 129.832031 294.042969 129.832031 Z M 294.042969 129.832031 "/>
<path style=" stroke:none;fill-rule:nonzero;fill:rgb(49.803922%,0%,22.745098%);fill-opacity:1;" d="M 196.03125 66.5 L 199.191406 69.667969 C 199.191406 69.667969 196.03125 66.5 196.03125 66.5 Z M 196.03125 66.5 "/>
<path style=" stroke:none;fill-rule:nonzero;fill:rgb(49.803922%,0%,22.745098%);fill-opacity:1;" d="M 202.351562 69.667969 L 205.515625 72.832031 C 205.515625 72.832031 202.351562 69.667969 202.351562 69.667969 Z M 202.351562 69.667969 "/>
<path style=" stroke:none;fill-rule:nonzero;fill:rgb(100%,0%,57.254905%);fill-opacity:1;" d="M 205.515625 72.832031 L 208.675781 76 C 208.675781 76 205.515625 72.832031 205.515625 72.832031 Z M 205.515625 72.832031 "/>
<path style=" stroke:none;fill-rule:nonzero;fill:rgb(49.803922%,0%,22.745098%);fill-opacity:1;" d="M 211.839844 79.167969 L 215 85.5 C 215 85.5 211.839844 79.167969 211.839844 79.167969 Z M 211.839844 79.167969 "/>
<path style=" stroke:none;fill-rule:nonzero;fill:rgb(72.941178%,100%,0%);fill-opacity:1;" d="M 303.53125 82.332031 L 306.691406 85.5 C 306.691406 85.5 303.53125 82.332031 303.53125 82.332031 Z M 303.53125 82.332031 "/>
<path style=" stroke:none;fill-rule:nonzero;fill:rgb(72.941178%,100%,0%);fill-opacity:1;" d="M 309.851562 88.667969 L 313.015625 91.832031 C 313.015625 91.832031 309.851562 88.667969 309.851562 88.667969 Z M 309.851562 88.667969 "/>
<path style=" stroke:none;fill-rule:nonzero;fill:rgb(72.941178%,100%,0%);fill-opacity:1;" d="M 316.175781 98.167969 L 319.339844 101.332031 C 319.339844 101.332031 316.175781 98.167969 316.175781 98.167969 Z M 316.175781 98.167969 "/>
<path style=" stroke:none;fill-rule:nonzero;fill:rgb(5.490196%,49.803922%,0%);fill-opacity:1;" d="M 107.5 101.332031 C 112.199219 101.332031 112.199219 110.832031 107.5 110.832031 C 107.5 110.832031 107.5 101.332031 107.5 101.332031 Z M 107.5 101.332031 "/>
<path style=" stroke:none;fill-rule:nonzero;fill:rgb(49.803922%,0%,22.745098%);fill-opacity:1;" d="M 116.984375 158.332031 C 116.984375 165.246094 127.75 168.816406 129.632812 172.582031 C 131.550781 176.421875 129.4375 184.855469 132.792969 191.582031 C 138.597656 203.210938 177.449219 234.929688 191.285156 228 C 197.851562 224.710938 205.019531 217.414062 210.257812 212.167969 L 215 202.667969 C 215 202.667969 211.839844 140.917969 211.839844 140.917969 C 211.839844 136.597656 209.625 120.332031 215 120.332031 C 215 120.332031 215 104.5 215 104.5 C 199.976562 104.5 173.90625 126.667969 161.25 126.667969 C 161.25 131.816406 132.601562 162.390625 128.050781 164.667969 C 128.050781 164.667969 116.984375 158.332031 116.984375 158.332031 Z M 116.984375 158.332031 "/>
<path style=" stroke:none;fill-rule:nonzero;fill:rgb(72.941178%,100%,0%);fill-opacity:1;" d="M 303.53125 167.832031 C 303.53125 177.988281 296.90625 170.011719 294.042969 175.75 L 297.207031 182.082031 L 284.558594 204.25 C 274.183594 225.035156 215 248.824219 215 202.667969 C 220.375 202.667969 218.160156 186.402344 218.160156 182.082031 C 218.160156 182.082031 215 120.332031 215 120.332031 C 220.195312 120.332031 218.160156 108.410156 218.160156 104.5 C 226.140625 104.5 250.550781 129.832031 265.589844 129.832031 C 282.828125 129.832031 283.441406 167.832031 303.53125 167.832031 Z M 303.53125 167.832031 "/>
<path style=" stroke:none;fill-rule:nonzero;fill:rgb(5.490196%,49.803922%,0%);fill-opacity:1;" d="M 139.117188 123.5 L 145.441406 123.5 C 148.753906 123.5 154.925781 124.996094 154.925781 120.332031 C 147.339844 120.332031 138.113281 107.378906 131.214844 110.832031 C 128.765625 112.058594 134.960938 123.5 139.117188 123.5 Z M 139.117188 123.5 "/>
<path style=" stroke:none;fill-rule:nonzero;fill:rgb(49.803922%,0%,49.803922%);fill-opacity:1;" d="M 322.5 110.832031 C 318.75 110.832031 318.75 114 322.5 114 C 322.5 114 322.5 110.832031 322.5 110.832031 Z M 322.5 110.832031 "/>
<path style=" stroke:none;fill-rule:nonzero;fill:rgb(5.490196%,49.803922%,0%);fill-opacity:1;" d="M 107.5 114 C 103.75 114 103.75 117.167969 107.5 117.167969 C 107.5 117.167969 107.5 114 107.5 114 Z M 107.5 114 "/>
<path style=" stroke:none;fill-rule:nonzero;fill:rgb(49.803922%,0%,49.803922%);fill-opacity:1;" d="M 290.882812 129.832031 L 294.042969 129.832031 C 294.042969 129.832031 297.207031 118.75 297.207031 118.75 C 294.433594 113.191406 275.074219 120.480469 275.074219 123.5 C 275.074219 123.5 284.558594 126.667969 284.558594 126.667969 C 284.558594 126.667969 290.882812 129.832031 290.882812 129.832031 Z M 290.882812 129.832031 "/>
<path style=" stroke:none;fill-rule:nonzero;fill:rgb(0%,11.372549%,49.803922%);fill-opacity:1;" d="M 116.984375 155.167969 L 116.984375 158.332031 C 116.984375 158.332031 128.050781 164.667969 128.050781 164.667969 C 132.601562 162.390625 161.25 131.816406 161.25 126.667969 C 161.25 126.667969 154.925781 120.332031 154.925781 120.332031 C 154.925781 124.996094 148.753906 123.5 145.441406 123.5 C 145.441406 123.5 139.117188 126.667969 139.117188 126.667969 C 129.890625 126.667969 118.070312 136.167969 110.660156 136.167969 C 110.660156 136.167969 113.824219 152 113.824219 152 C 113.824219 152 116.984375 155.167969 116.984375 155.167969 Z M 116.984375 155.167969 "/>
<path style=" stroke:none;fill-rule:nonzero;fill:rgb(0%,49.803922%,43.921569%);fill-opacity:1;" d="M 145.441406 123.5 L 139.117188 126.667969 C 139.117188 126.667969 139.117188 123.5 139.117188 123.5 C 139.117188 123.5 145.441406 123.5 145.441406 123.5 Z M 145.441406 123.5 "/>
<path style=" stroke:none;fill-rule:nonzero;fill:rgb(49.803922%,24.705882%,0%);fill-opacity:1;" d="M 316.175781 139.332031 C 316.175781 145.132812 309.273438 167.832031 303.53125 167.832031 C 283.441406 167.832031 282.828125 129.832031 265.589844 129.832031 C 265.589844 122.570312 268.742188 123.5 275.074219 123.5 C 275.074219 123.5 284.558594 126.667969 284.558594 126.667969 C 284.558594 126.667969 290.882812 129.832031 290.882812 129.832031 C 290.882812 129.832031 294.042969 129.832031 294.042969 129.832031 C 294.042969 129.832031 316.175781 139.332031 316.175781 139.332031 Z M 316.175781 139.332031 "/>
<path style=" stroke:none;fill-rule:nonzero;fill:rgb(49.803922%,0%,0%);fill-opacity:1;" d="M 284.558594 126.667969 L 290.882812 129.832031 C 290.882812 129.832031 284.558594 126.667969 284.558594 126.667969 Z M 284.558594 126.667969 "/>
<path style=" stroke:none;fill-rule:nonzero;fill:rgb(49.803922%,0%,22.745098%);fill-opacity:1;" d="M 113.824219 152 L 116.984375 155.167969 C 116.984375 155.167969 113.824219 152 113.824219 152 Z M 113.824219 152 "/>
</g>
</svg>
