<?xml version="1.0" encoding="UTF-8"?>
<svg xmlns="http://www.w3.org/2000/svg" xmlns:xlink="http://www.w3.org/1999/xlink" width="430px" height="323px" viewBox="0 0 430 323" version="1.1">
<g id="surface1">
<rect x="0" y="0" width="430" height="323" style="fill:rgb(0%,0%,0%);fill-opacity:1;stroke:none;"/>
<path style=" stroke:none;fill-rule:nonzero;fill:rgb(49.803922%,0%,22.745098%);fill-opacity:1;" d="M 211.839844 180.5 C 209.839844 180.5 211.839844 193.972656 211.839844 199.5 L 211.839844 262.832031 C 203.792969 262.832031 212.800781 282.144531 207.09375 285 C 193.066406 292.023438 154.863281 284.175781 143.859375 278.667969 C 133.324219 273.390625 120.542969 250.960938 126.46875 239.082031 C 133.089844 225.824219 145.019531 214.589844 151.765625 201.082031 C 156.914062 190.773438 156.136719 176.492188 161.25 166.25 C 161.25 166.25 180.21875 140.917969 180.21875 140.917969 C 182.902344 135.542969 196.746094 116.734375 203.933594 120.332031 C 203.933594 120.332031 205.515625 142.5 205.515625 142.5 C 205.515625 150.128906 209.554688 145.839844 211.839844 150.417969 C 211.839844 150.417969 211.839844 180.5 211.839844 180.5 Z M 211.839844 180.5 "/>
<path style=" stroke:none;fill-rule:nonzero;fill:rgb(72.941178%,100%,0%);fill-opacity:1;" d="M 211.839844 180.5 C 219.269531 180.5 212.523438 155.375 215 150.417969 L 221.324219 147.25 L 222.90625 133 L 238.714844 155.167969 C 250.257812 160.945312 247.496094 177.507812 252.941406 188.417969 C 264.628906 211.828125 299.339844 237.972656 284.558594 267.582031 C 278.496094 279.726562 217.007812 293.769531 211.839844 283.417969 L 211.839844 262.832031 C 217.164062 262.832031 215 248.015625 215 243.832031 C 215 223.019531 211.839844 199.183594 211.839844 180.5 Z M 211.839844 180.5 "/>
</g>
</svg>
