<svg xmlns="http://www.w3.org/2000/svg" xmlns:xlink="http://www.w3.org/1999/xlink" height="102" width="136">
<g>
<rect width="136" height="102" fill="#000000"  stroke-width="0" /> 
<path  fill="#FFE100" stroke-width="0" stroke="#FFE100" d = " M56 24 C56,25.6844 51.3208,25 50,25 50,21.9428 49.8033,12 48,12 48,9.14263 58.88,12 60,12 60,16.2362 56,20.12 56,24  Z"/>

<path  fill="#00FFF5" stroke-width="0" stroke="#00FFF5" d = " M78 24 C78,24.6817 84.2411,26 85,26 85,26 86,12 86,12 82.5463,12 79.3111,12 76,12 76,12 78,24 78,24  Z"/>

<path  fill="#1DFF00" stroke-width="0" stroke="#1DFF00" d = " M32 29 L37,29 C40.9846,29 45.3546,25 50,25 50,21.9428 49.8033,12 48,12 44.6004,12 29,14.9666 29,18 29,22.8 32,25.5801 32,29  Z"/>

<path  fill="#7F000E" stroke-width="0" stroke="#7F000E" d = " M56 24 L60,25 C60,25 68,19 68,19 68,19 68,18 68,18 63.739,18 64.261,12 60,12 60,16.2362 56,20.12 56,24  Z"/>

<path  fill="#047F00" stroke-width="0" stroke="#047F00" d = " M78 24 L76,25 C76,25 69,20 69,20 69,20 68,19 68,19 68,19 68,18 68,18 71.4631,18 71.4565,12 76,12 76,12 78,24 78,24  Z"/>

<path  fill="#FF00FF" stroke-width="0" stroke="#FF00FF" d = " M85 26 C90.2173,26 93.6166,30 98,30 100.989,30 108,23.9814 108,20 108,17.7019 89.4371,12 86,12 86,12 85,26 85,26  Z"/>

<path  fill="#7F3000" stroke-width="0" stroke="#7F3000" d = " M25 20 C25,22.1966 30.3306,29 32,29 32,25.5801 29,22.8 29,18 29,18 25,20 25,20  Z"/>

<path  fill="#7F004E" stroke-width="0" stroke="#7F004E" d = " M60 25 C60,28.989 64.6458,31 68,31 68,31 68,19 68,19 68,19 60,25 60,25  Z"/>

<path  fill="#62007F" stroke-width="0" stroke="#62007F" d = " M18 40 C21.2167,40 23.1165,42 26,42 26,37.4243 37,30.3091 37,29 37,29 32,29 32,29 30.3306,29 25,22.1966 25,20 22.8037,20 16,28.0409 16,30 17.6535,30 23,32.7896 23,34.5 23,36.0987 16,36.2786 16,39 16,39 16,40 16,40 16,40 17,40 17,40 17,38.8141 18,38.8141 18,40  Z"/>

<path  fill="#447F00" stroke-width="0" stroke="#447F00" d = " M76 25 C76,27.8917 71.6429,31 69,31 69,31 69,20 69,20 69,20 76,25 76,25  Z"/>

<path  fill="#7F7A00" stroke-width="0" stroke="#7F7A00" d = " M116 40 C114.478,40 109,41.85 109,42 109,42 104.5,36 104.5,36 104.5,36 98,30 98,30 100.989,30 108,23.9814 108,20 110.656,20 119,28.3441 119,31 109.376,31 118.545,36 121,36 121,36 122,37 122,37 122,37 120,38 120,38 120,38 119,38 119,38 119,38 118,39 118,39 118,39 117,39 117,39 117,39 116,40 116,40  Z"/>

<path  fill="#7F003A" stroke-width="0" stroke="#7F003A" d = " M18 88 L17,86.5 L21,85.5 C21,81.4684 21.4998,79.4997 24,84.5 L27,86.5 C27.978,88.4561 26,90.577 26,92 35.0675,92 39.1453,88.6773 46.5,85 48.7815,83.8593 46.9703,80.7649 48.5,80 50.8136,78.8432 49.4401,83.47 50.5,84 54.403,85.9515 60.9294,91.7853 66.5,89 68.0442,88.2279 63.6369,72 67,72 67,72 67,52 67,52 67,50.6792 66.3156,46 68,46 68,43.5583 66,40.8821 66,39.5 66,39.5 68,37.5 68,37.5 68,37.5 68,31 68,31 64.6458,31 60,28.989 60,25 60,25 56,24 56,24 56,25.6844 51.3208,25 50,25 45.3546,25 40.9846,29 37,29 37,30.3091 26,37.4243 26,42 26,42 24,45 24,45 24,45 24,46 24,46 24,46 23,47 23,47 23,47 20,56 20,56 20,56 20,60 20,60 20,60 20,64 20,64 20,64 20,66 20,66 20,71.4824 17.8243,76 12,76 12,78.178 15.4193,88 18,88  Z"/>

<path  fill-rule="evenodd" fill="#BAFF00" stroke-width="0" stroke="#BAFF00" d = " M87 27 C87,28.93 88.93,27 87,27  M118 86 C114.308,86 115.08,83.2902 112.5,82 109.097,80.2986 106.675,87.8501 107,88.5 L110,93 C110,93.7122 99.6182,93.5591 98.5,93 98.5,93 88,86.5 88,86.5 88,86.5 84.5,81 84.5,81 82.3104,81 84.9397,84.7801 82.5,86 66.3797,94.0601 67,86.9505 67,72 68.6844,72 68,67.3208 68,66 68,66 68,46 68,46 69.7973,46 69,33.0747 69,31 71.6429,31 76,27.8917 76,25 76,25 78,24 78,24 78,24.6817 84.2411,26 85,26 90.2173,26 93.6166,30 98,30 98,30 104.5,36 104.5,36 104.5,36 109,42 109,42 109,42 110,46 110,46 110,48.8599 113,51.5796 113,55 113,55 112,60 112,60 112,60 112,66 112,66 112,66 112,67 112,67 112,71.8309 117.212,77 122,77 122,77 118,86 118,86  Z"/>

<path  fill="#62007F" stroke-width="0" stroke="#62007F" d = " M16 30 L15,31 C15,31 16,30 16,30  Z"/>

<path  fill="#C400FF" stroke-width="0" stroke="#C400FF" d = " M15 39 L16,39 C16,36.2786 23,36.0987 23,34.5 23,32.7896 17.6535,30 16,30 16,30 15,31 15,31 15,31 13,36 13,36 13,36 13,39 13,39 13,39 15,39 15,39  Z"/>

<path  fill="#FFF500" stroke-width="0" stroke="#FFF500" d = " M119 31 C109.376,31 118.545,36 121,36 121,36 119,31 119,31  Z"/>

<path  fill="#A6FF00" stroke-width="0" stroke="#A6FF00" d = " M11 39 L13,39 C13,39 13,36 13,36 13,36 11,39 11,39  Z"/>

<path  fill="#0027FF" stroke-width="0" stroke="#0027FF" d = " M120 38 L123,39 C123,39 122,37 122,37 122,37 120,38 120,38  Z"/>

<path  fill="#0027FF" stroke-width="0" stroke="#0027FF" d = " M119 38 L118,39 C118,39 119,38 119,38  Z"/>

<path  fill="#00FF00" stroke-width="0" stroke="#00FF00" d = " M125 44 L110,46 C110,46 109,42 109,42 109,41.85 114.478,40 116,40 116,40 117,39 117,39 117,39 118,39 118,39 118,39 119,38 119,38 119,38 120,38 120,38 120,38 123,39 123,39 123,39 125,44 125,44  Z"/>

<path  fill="#FF0013" stroke-width="0" stroke="#FF0013" d = " M10 43 C10,46.4593 22.271,45 24,45 24,45 26,42 26,42 23.1165,42 21.2167,40 18,40 18,40 17,40 17,40 17,40 16,40 16,40 16,40 15,39 15,39 15,39 13,39 13,39 13,39 11,39 11,39 11,39 10,43 10,43  Z"/>

<path  fill="#A6FF00" stroke-width="0" stroke="#A6FF00" d = " M16 39 L16,40 C16,40 15,39 15,39 15,39 16,39 16,39  Z"/>

<path  fill="#A6FF00" stroke-width="0" stroke="#A6FF00" d = " M17 40 L18,40 C18,38.8141 17,38.8141 17,40  Z"/>

<path  fill="#0027FF" stroke-width="0" stroke="#0027FF" d = " M117 39 L116,40 C116,40 117,39 117,39  Z"/>

<path  fill="#7F3500" stroke-width="0" stroke="#7F3500" d = " M7 56 C10.6779,56 15.3312,56 20,56 20,56 23,47 23,47 23,47 24,46 24,46 24,46 24,45 24,45 22.271,45 10,46.4593 10,43 7.91947,43 7,53.8463 7,56  Z"/>

<path  fill="#007F3F" stroke-width="0" stroke="#007F3F" d = " M113 55 L114.5,57 C116.426,57.963 125.135,58 127,58 127,52.7373 125,48.7696 125,44 125,44 110,46 110,46 110,48.8599 113,51.5796 113,55  Z"/>

<path  fill="#FF0013" stroke-width="0" stroke="#FF0013" d = " M24 46 L23,47 C23,47 24,46 24,46  Z"/>

<path  fill="#007F00" stroke-width="0" stroke="#007F00" d = " M112 60 L126,62 C126,62 127,58 127,58 125.135,58 116.426,57.963 114.5,57 114.5,57 113,55 113,55 113,55 112,60 112,60  Z"/>

<path  fill="#7F0009" stroke-width="0" stroke="#7F0009" d = " M8 60 L20,60 C20,60 20,56 20,56 15.3312,56 10.6779,56 7,56 7,56 8,60 8,60  Z"/>

<path  fill="#00FFE1" stroke-width="0" stroke="#00FFE1" d = " M9 64 C12.5392,64 16.339,64 20,64 20,64 20,60 20,60 20,60 8,60 8,60 8,60 9,64 9,64  Z"/>

<path  fill="#FF0000" stroke-width="0" stroke="#FF0000" d = " M118 67 L124,67 C124,67 125,66 125,66 125,66 126,62 126,62 126,62 112,60 112,60 112,60 112,66 112,66 113.235,66 117,65.3574 117,67 117,67 118,67 118,67  Z"/>

<path  fill="#7F7000" stroke-width="0" stroke="#7F7000" d = " M20 66 C17.7678,66 15.9706,67 13,67 13,64.7339 9,67.4537 9,64 12.5392,64 16.339,64 20,64 20,64 20,66 20,66  Z"/>

<path  fill="#003AFF" stroke-width="0" stroke="#003AFF" d = " M13 67 C13,69.0285 11.8093,68.8814 11,70.5 10.022,72.4561 12,74.577 12,76 17.8243,76 20,71.4824 20,66 17.7678,66 15.9706,67 13,67  Z"/>

<path  fill="#007F7A" stroke-width="0" stroke="#007F7A" d = " M112 67 C114.25,67 115.376,67 117,67 117,65.3574 113.235,66 112,66 112,66 112,67 112,67  Z"/>

<path  fill="#007F7A" stroke-width="0" stroke="#007F7A" d = " M125 66 L124,67 C124,67 125,66 125,66  Z"/>

<path  fill="#FF7F00" stroke-width="0" stroke="#FF7F00" d = " M123 71 L122,77 C117.212,77 112,71.8309 112,67 114.25,67 115.376,67 117,67 117,67 118,67 118,67 118,68.4729 119.952,68 121,68 121,69.0479 120.527,71 122,71 122,71 123,71 123,71  Z"/>

<path  fill="#007F7A" stroke-width="0" stroke="#007F7A" d = " M123 68 L124,68 C124,68 124,67 124,67 124,67 118,67 118,67 118,68.4729 119.952,68 121,68 121,68 122,68 122,68 122,68 123,68 123,68  Z"/>

<path  fill="#FF7F00" stroke-width="0" stroke="#FF7F00" d = " M123 68 L123,69 C123,69 122,68 122,68 122,68 123,68 123,68  Z"/>

<path  fill="#BAFF00" stroke-width="0" stroke="#BAFF00" d = " M124 68 L123,69 C123,69 123,68 123,68 123,68 124,68 124,68  Z"/>

<path  fill="#BAFF00" stroke-width="0" stroke="#BAFF00" d = " M122 71 L123,71 C123,69.8141 122,69.8141 122,71  Z"/>

<path  fill="#FF6B00" stroke-width="0" stroke="#FF6B00" d = " M18 88 C18,91.5993 22.9201,92 26,92 26,90.577 27.978,88.4561 27,86.5 27,86.5 24,84.5 24,84.5 21.4998,79.4997 21,81.4684 21,85.5 21,85.5 17,86.5 17,86.5 17,86.5 18,88 18,88  Z"/>

<path  fill="#00FF7F" stroke-width="0" stroke="#00FF7F" d = " M118 86 C114.308,86 115.08,83.2902 112.5,82 109.097,80.2986 106.675,87.8501 107,88.5 L110,93 C113.023,93 118,89.2218 118,86  Z"/>

</g>
</svg>
