<svg xmlns="http://www.w3.org/2000/svg" xmlns:xlink="http://www.w3.org/1999/xlink" height="102" width="136">
<g>
<rect width="136" height="102" fill="#000000"  stroke-width="0" /> 
<path  fill="#7F003A" stroke-width="0" stroke="#7F003A" d = " M55 15 L56,15 C56,13.8141 55,13.8141 55,15  Z"/>

<path  fill="#0E7F00" stroke-width="0" stroke="#0E7F00" d = " M50 33 L45,35 C45,28.4106 40.4474,24 34,24 34,24 33,22 33,22 33,19.7964 49.8609,15 53,15 53,19.6246 52,23.3779 52,29 52,29 51,30 51,30 51,30 50,33 50,33  Z"/>

<path  fill="#9CFF00" stroke-width="0" stroke="#9CFF00" d = " M63 17 C58.0529,17 56.3727,29 52,29 52,23.3779 53,19.6246 53,15 53,15 55,15 55,15 55,15 56,15 56,15 56,15 61,15 61,15 61,15 62,16 62,16 62,16 63,17 63,17  Z"/>

<path  fill="#7F003A" stroke-width="0" stroke="#7F003A" d = " M61 15 L62,16 C62,16 61,15 61,15  Z"/>

<path  fill="#BAFF00" stroke-width="0" stroke="#BAFF00" d = " M78 15 L76,16 C76,16 78,15 78,15  Z"/>

<path  fill="#0013FF" stroke-width="0" stroke="#0013FF" d = " M74 17 C74,18.8744 82.1832,30 84,30 84,24.461 83,20.9368 83,16 83,14.3574 79.2345,15 78,15 78,15 76,16 76,16 76,16 74,17 74,17  Z"/>

<path  fill="#7F007F" stroke-width="0" stroke="#7F007F" d = " M86 34 C86,35.0144 89.9589,36 91,36 91,30.368 98,26.2318 98,21 98,17.9915 85.7738,16 83,16 83,20.9368 84,24.461 84,30 84,31.2404 86,31.5759 86,34  Z"/>

<path  fill="#FF0092" stroke-width="0" stroke="#FF0092" d = " M50 33 C52.25,33 53.3756,35 55,35 55.9679,35 63.6433,30 68,30 68,26.2456 67.6583,17 63,17 58.0529,17 56.3727,29 52,29 52,29 51,30 51,30 51,30 50,33 50,33  Z"/>

<path  fill="#7FFF00" stroke-width="0" stroke="#7FFF00" d = " M86 34 C84.7655,34 81,33.3574 81,35 76.8685,35 74.3483,31 69,31 69,27.2823 67.9177,17 74,17 74,18.8744 82.1832,30 84,30 84,31.2404 86,31.5759 86,34  Z"/>

<path  fill="#7F0000" stroke-width="0" stroke="#7F0000" d = " M91 36 L94,39 C95.639,39 96.4554,37 97.5,37 98.7599,37 110,35.3399 110,32 110,30.7617 109.577,29 108,29 106.253,29 106,28.7469 106,27 106,24.3956 100.07,21 98,21 98,26.2318 91,30.368 91,36  Z"/>

<path  fill="#00FFD7" stroke-width="0" stroke="#00FFD7" d = " M42 36 L40,38 C38.1145,38 28.4587,27 27,27 27,25.2736 31.5584,22 33,22 33,22 34,24 34,24 31.3832,24 36.5782,28.6565 37,29.5 38.0951,31.6901 38.6463,36 42,36  Z"/>

<path  fill="#007F70" stroke-width="0" stroke="#007F70" d = " M45 35 L42,36 C38.6463,36 38.0951,31.6901 37,29.5 36.5782,28.6565 31.3832,24 34,24 40.4474,24 45,28.4106 45,35  Z"/>

<path  fill="#004EFF" stroke-width="0" stroke="#004EFF" d = " M40 38 L39,41 C36.9668,41 24,32.4131 24,32 24,32 27,27 27,27 28.4587,27 38.1145,38 40,38  Z"/>

<path  fill="#FF0088" stroke-width="0" stroke="#FF0088" d = " M106 27 L108,29 C106.253,29 106,28.7469 106,27  Z"/>

<path  fill="#9CFF00" stroke-width="0" stroke="#9CFF00" d = " M52 29 L51,30 C51,30 52,29 52,29  Z"/>

<path  fill="#7F0049" stroke-width="0" stroke="#7F0049" d = " M68 41 L67,42 C63.6198,42 55,38.7346 55,35 55.9679,35 63.6433,30 68,30 68,30 68,40 68,40 68,40 68,41 68,41  Z"/>

<path  fill="#3F7F00" stroke-width="0" stroke="#3F7F00" d = " M81 35 C81,36.6947 69,45.7024 69,40 69,40 69,31 69,31 74.3483,31 76.8685,35 81,35  Z"/>

<path  fill-rule="evenodd" fill="#00FF57" stroke-width="0" stroke="#00FF57" d = " M33 44 C33,45.93 34.93,44 33,44  M20 48 L21,48 C27.3105,48 32.2055,45 38,45 38,45 39,41 39,41 36.9668,41 24,32.4131 24,32 24,32 21,38 21,38 21,38 27.5,39 27.5,39 27.5,39 31.5,44 31.5,44 31.5,44 21,41 21,41 19.2864,41 20,46.5944 20,48  Z"/>

<path  fill="#FF0088" stroke-width="0" stroke="#FF0088" d = " M105 49 C108.324,49 111.16,51 114,51 114,49.9521 113.527,48 115,48 115,45.1141 113.216,32 110,32 110,35.3399 98.7599,37 97.5,37 96.4554,37 95.639,39 94,39 94,41.2322 97,43.0294 97,46 97,46 102,48 102,48 102,48 104,49 104,49 104,49 105,49 105,49  Z"/>

<path  fill="#7F003A" stroke-width="0" stroke="#7F003A" d = " M24 59 C24,61.4207 27.4255,66 30,66 35.6472,66 37.5152,61.4696 39,58.5 39.4135,57.6729 44.8126,53 42,53 42,53 40,51 40,51 40,51 39,50 39,50 39,50 38,49 38,49 38,48.161 39.93,47 38,47 38,47 38,45 38,45 38,45 39,41 39,41 39,41 40,38 40,38 40,38 42,36 42,36 42,36 45,35 45,35 45,35 50,33 50,33 52.25,33 53.3756,35 55,35 55,38.7346 63.6198,42 67,42 67,50.583 68,58.9014 68,67 65.6497,67 67.783,74.934 67,76.5 67,76.5 62.5,78 62.5,78 58.7147,79.8927 56.1732,84.1634 52.5,86 46.1762,89.1619 22,64.0304 22,58 22,58 24,59 24,59  Z"/>

<path  fill="#BAFF00" stroke-width="0" stroke="#BAFF00" d = " M107 67 L108,67 C108,71.5529 98.7925,77.3537 95.5,79 91.2852,81.1074 89.2683,85.1159 85.5,87 79.6544,89.9228 70.1018,78.7036 68,74.5 68,74.5 68,67 68,67 69.2509,67 69.5363,62.5727 69,61.5 66.426,56.352 68,47.0522 68,41 68,41 68,40 68,40 68,40 69,40 69,40 69,45.7024 81,36.6947 81,35 81,33.3574 84.7655,34 86,34 86,35.0144 89.9589,36 91,36 91,36 94,39 94,39 94,41.2322 97,43.0294 97,46 97,46 98,49 98,49 98,49 94,52.5 94,52.5 94,52.8353 99.6796,54 95,54 93.9418,54 91.971,55 94,55 94,55 95,57 95,57 95,62.4927 100.559,67 107,67  Z"/>

<path  fill="#00277F" stroke-width="0" stroke="#00277F" d = " M21 38 L27.5,39 L31.5,44 L21,41 C21,41 21,38 21,38  Z"/>

<path  fill="#00277F" stroke-width="0" stroke="#00277F" d = " M33 44 C33,45.93 34.93,44 33,44  Z"/>

<path  fill="#00FF61" stroke-width="0" stroke="#00FF61" d = " M21 56 L22,56 C22,50.0982 31.9899,49 35.5,49 35.5,49 38,47 38,47 38,47 38,45 38,45 32.2055,45 27.3105,48 21,48 21,49.0479 21.4729,51 20,51 20,51 20,52 20,52 20,52 21,53 21,53 21,53 21,56 21,56  Z"/>

<path  fill="#FFFF00" stroke-width="0" stroke="#FFFF00" d = " M113 56 C113,57.3565 112.353,62 111,62 111,58.8391 100.9,49 98,49 98,49 97,46 97,46 97,46 102,48 102,48 102,48 104,49 104,49 104,49 105,49 105,49 105,50.9976 110.174,51.337 111.5,52 111.5,52 113,55 113,55 113,55 113,56 113,56  Z"/>

<path  fill="#D700FF" stroke-width="0" stroke="#D700FF" d = " M22 58 L24,59 C27.0639,59 33.2002,49 38,49 38,48.161 39.93,47 38,47 38,47 35.5,49 35.5,49 31.9899,49 22,50.0982 22,56 22,56 22,57 22,57 22,57 22,58 22,58  Z"/>

<path  fill="#137F00" stroke-width="0" stroke="#137F00" d = " M21 48 C21,49.0479 21.4729,51 20,51 20,51 20,48 20,48 20,48 21,48 21,48  Z"/>

<path  fill="#FF007F" stroke-width="0" stroke="#FF007F" d = " M102 48 L104,49 C104,49 102,48 102,48  Z"/>

<path  fill="#BAFF00" stroke-width="0" stroke="#BAFF00" d = " M114 51 L114,52 C115.579,52 115,49.1452 115,48 113.527,48 114,49.9521 114,51  Z"/>

<path  fill="#497F00" stroke-width="0" stroke="#497F00" d = " M24 59 C24,61.4207 27.4255,66 30,66 30,62.7543 34.4943,63.5113 36,60.5 37.1784,58.1432 34.2411,58 37.5,58 37.5,58 42,53 42,53 42,53 40,51 40,51 40,51 39,50 39,50 39,50 38,49 38,49 33.2002,49 27.0639,59 24,59  Z"/>

<path  fill="#00007F" stroke-width="0" stroke="#00007F" d = " M107 67 L108,67 C108,67 109,66 109,66 109,66 109,65 109,65 109,65 110,64 110,64 110,64 111,63 111,63 111,63 111,62 111,62 111,58.8391 100.9,49 98,49 98,49 94,52.5 94,52.5 94,52.8353 99.6796,54 95,54 95,54 94,55 94,55 94,55 95,57 95,57 96.9493,57 107,65.2707 107,67  Z"/>

<path  fill="#FF007F" stroke-width="0" stroke="#FF007F" d = " M113 55 L114,55 C114,55 114,52 114,52 114,52 114,51 114,51 111.16,51 108.324,49 105,49 105,50.9976 110.174,51.337 111.5,52 111.5,52 113,55 113,55  Z"/>

<path  fill="#00FF57" stroke-width="0" stroke="#00FF57" d = " M39 50 L40,51 C40,51 39,50 39,50  Z"/>

<path  fill="#7F003A" stroke-width="0" stroke="#7F003A" d = " M20 52 L21,53 C21,53 20,52 20,52  Z"/>

<path  fill="#7F7500" stroke-width="0" stroke="#7F7500" d = " M42 53 C44.8126,53 39.4135,57.6729 39,58.5 37.5152,61.4696 35.6472,66 30,66 30,62.7543 34.4943,63.5113 36,60.5 37.1784,58.1432 34.2411,58 37.5,58 37.5,58 42,53 42,53  Z"/>

<path  fill="#007F7F" stroke-width="0" stroke="#007F7F" d = " M95 54 C93.9418,54 91.971,55 94,55 94,55 95,54 95,54  Z"/>

<path  fill="#BAFF00" stroke-width="0" stroke="#BAFF00" d = " M114 55 L113,56 C113,56 113,55 113,55 113,55 114,55 114,55  Z"/>

<path  fill="#7F003A" stroke-width="0" stroke="#7F003A" d = " M22 56 L22,57 C22,57 21,56 21,56 21,56 22,56 22,56  Z"/>

<path  fill="#007F7F" stroke-width="0" stroke="#007F7F" d = " M95 57 C96.9493,57 107,65.2707 107,67 100.559,67 95,62.4927 95,57  Z"/>

<path  fill="#BAFF00" stroke-width="0" stroke="#BAFF00" d = " M111 63 L110,64 C110,64 111,63 111,63  Z"/>

<path  fill="#BAFF00" stroke-width="0" stroke="#BAFF00" d = " M110 64 L109,65 C109,65 110,64 110,64  Z"/>

<path  fill="#007F7F" stroke-width="0" stroke="#007F7F" d = " M109 66 L108,67 C108,67 109,66 109,66  Z"/>

</g>
</svg>
