<svg xmlns="http://www.w3.org/2000/svg" xmlns:xlink="http://www.w3.org/1999/xlink" height="102" width="136">
<g>
<rect width="136" height="102" fill="#000000"  stroke-width="0" /> 
<path  fill="#7F003A" stroke-width="0" stroke="#7F003A" d = " M67 57 C66.3677,57 67,61.255 67,63 L67,83 C64.7926,83 66.6618,88.1763 66,89.5 65.9162,89.6676 60.7868,89.3566 59.5,90 53.2334,93.1333 36.4242,83.6516 40,76.5 42.5826,71.3347 47.0865,67.3271 49,63.5 49,63.5 51,55.5 51,55.5 51,55.5 57,49.5 57,49.5 57.5871,48.3259 65.9956,45.4911 67,47.5 67,47.5 67,57 67,57  Z"/>

<path  fill="#BAFF00" stroke-width="0" stroke="#BAFF00" d = " M67 57 C69.1639,57 66.8344,45.6672 69.5,47 75.6704,50.0852 77.0911,56.6821 80,62.5 84.0694,70.6387 94.4053,74.6893 89,85.5 87.4166,88.6668 68.9372,92.3744 67,88.5 L67,83 C68.6844,83 68,78.3208 68,77 68,70.4267 67,62.8998 67,57  Z"/>

</g>
</svg>
