<svg xmlns="http://www.w3.org/2000/svg" xmlns:xlink="http://www.w3.org/1999/xlink" height="102" width="136">
<g>
<rect width="136" height="102" fill="#000000"  stroke-width="0" /> 
<path  fill="#FF0027" stroke-width="0" stroke="#FF0027" d = " M49 24 L53,24 C53,24 52,11 52,11 49.8764,11 47.5637,12 46,12 46,12 47,18 47,18 47,18 48,20 48,20 48,20 49,24 49,24  Z"/>

<path  fill="#7F0013" stroke-width="0" stroke="#7F0013" d = " M55 22 L53,24 C53,24 52,11 52,11 52,11 55,11 55,11 55,15.5066 55,17.8219 55,22  Z"/>

<path  fill="#7F000E" stroke-width="0" stroke="#7F000E" d = " M55 22 L59,25 C59,21.6023 65,23.973 65,18 65,12.5516 59.562,11 55,11 55,15.5066 55,17.8219 55,22  Z"/>

<path  fill="#FFD700" stroke-width="0" stroke="#FFD700" d = " M29 30 L29,31 C34.4475,31 41.0968,24 49,24 49,24 48,20 48,20 48,20 47,18 47,18 47,18 46,12 46,12 38.1473,12 26.9548,20 24,20 24,20 24,22 24,22 24,22 25,23 25,23 25,23 25,24 25,24 25,24 26,25 26,25 26,25 26,26 26,26 26,26 28,28 28,28 28,28 28,29 28,29 28,29 29,30 29,30  Z"/>

<path  fill="#047F00" stroke-width="0" stroke="#047F00" d = " M80 23 L77,25 C75.5106,25 70,21.0072 70,20 70,20 70,19 70,19 70,19 71,18 71,18 71,12.2947 76.4957,12 81,12 81,13.2343 82.3807,23 80,23  Z"/>

<path  fill="#097F00" stroke-width="0" stroke="#097F00" d = " M80 23 L83,25 C83,20.1545 85,16.207 85,12 85,12 81,12 81,12 81,13.2343 82.3807,23 80,23  Z"/>

<path  fill="#13FF00" stroke-width="0" stroke="#13FF00" d = " M83 25 L87,25 C87,25 88,21 88,21 88,21 89,19 89,19 89,19 90,13 90,13 90,13 85,12 85,12 85,16.207 83,20.1545 83,25  Z"/>

<path  fill="#00FFEB" stroke-width="0" stroke="#00FFEB" d = " M87 25 C94.5205,25 104.769,33 106,33 106,33 113,23 113,23 113,20.0175 93.5724,13 90,13 90,13 89,19 89,19 89,19 88,21 88,21 88,21 87,25 87,25  Z"/>

<path  fill="#FF5700" stroke-width="0" stroke="#FF5700" d = " M47 18 L48,20 C48,20 47,18 47,18  Z"/>

<path  fill="#7F004E" stroke-width="0" stroke="#7F004E" d = " M59 25 C61.7232,25 64.7778,26 68,26 68,26 68,20 68,20 68,20 68,18 68,18 68,18 65,18 65,18 65,23.973 59,21.6023 59,25  Z"/>

<path  fill="#447F00" stroke-width="0" stroke="#447F00" d = " M69 26 L77,26 C77,26 77,25 77,25 75.5106,25 70,21.0072 70,20 70,20 68,18 68,18 68,18 68,20 68,20 69.6844,20 69,24.6792 69,26  Z"/>

<path  fill="#447F00" stroke-width="0" stroke="#447F00" d = " M71 18 L70,19 C70,19 71,18 71,18  Z"/>

<path  fill="#00FF6B" stroke-width="0" stroke="#00FF6B" d = " M89 19 L88,21 C88,21 89,19 89,19  Z"/>

<path  fill="#7F2B00" stroke-width="0" stroke="#7F2B00" d = " M29 31 L24,37 C24,35.5846 17.7131,30 16,30 16,30 16,28 16,28 16,28 17,27 17,27 17,27 24,20 24,20 24,20 24,22 24,22 24,22 25,23 25,23 25,23 25,24 25,24 25,24 26,25 26,25 26,25 26,26 26,26 26,26 28,28 28,28 28,28 28,29 28,29 28,29 29,30 29,30 29,30 29,31 29,31  Z"/>

<path  fill="#7F6B00" stroke-width="0" stroke="#7F6B00" d = " M24 22 L25,23 C25,23 24,22 24,22  Z"/>

<path  fill="#7F003A" stroke-width="0" stroke="#7F003A" d = " M38 79 C38,80.5389 36,81.1867 36,84 36,84 44,80.5 44,80.5 44,80.5 43.5,74 43.5,74 47.2786,74 46.5991,79.5495 47.5,80 50.692,81.596 61.4282,84.0359 65.5,82 67.3854,81.0573 64.3775,74 67,74 67,74 67,54 67,54 67,52.6792 66.3156,48 68,48 68,48 68,36.5 68,36.5 67.572,35.6439 66.0581,37.6163 65,35.5 63.942,33.3839 67,32.6016 67,31 62.0967,31 59,30.616 59,25 59,25 55,22 55,22 55,22 53,24 53,24 53,24 49,24 49,24 41.0968,24 34.4475,31 29,31 29,31 24,37 24,37 24,37 23,38 23,38 23,38 22,41 22,41 22,41 18,51 18,51 18,51 18,54 18,54 18,54 17,55 17,55 17,55 17,62 17,62 17,65.9683 21,70.606 21,74 22.9109,74 29.4414,76 34,76 34,73.1739 38,76.4199 38,79  Z"/>

<path  fill="#BAFF00" stroke-width="0" stroke="#BAFF00" d = " M114 76 C112.301,76 93.7906,85 104,85 104,86.2635 98.6397,86.5699 97.5,86 97.5,86 91,79.5 91,79.5 91,79.5 90.5,76 90.5,76 90.5,76 85.5,81 85.5,81 83.9785,81.7608 67.5613,82.6226 67,81.5 67,81.5 67,74 67,74 68.6844,74 68,69.3208 68,68 68,68 68,48 68,48 68.709,48 70,35.7328 70,34.5 70,34.5 69,31 69,31 72.8272,31 77,30.7689 77,26 77,26 77,25 77,25 77,25 80,23 80,23 80,23 83,25 83,25 83,25 87,25 87,25 94.5205,25 104.769,33 106,33 106,33 112,40 112,40 112,40 113,43 113,43 113,45.9331 116,48.3211 116,52 116,52 118,56 118,56 116.286,56 117,61.5944 117,63 117,67.7984 114,71.6171 114,76  Z"/>

<path  fill="#007F35" stroke-width="0" stroke="#007F35" d = " M115 38 L112,40 C112,40 106,33 106,33 106,33 113,23 113,23 115.158,23 121,30.0621 121,32 118.846,32 115,35.8461 115,38  Z"/>

<path  fill="#7F6B00" stroke-width="0" stroke="#7F6B00" d = " M25 24 L26,25 C26,25 25,24 25,24  Z"/>

<path  fill="#FF009C" stroke-width="0" stroke="#FF009C" d = " M68 26 C68,27.2345 68.6426,31 67,31 62.0967,31 59,30.616 59,25 61.7232,25 64.7778,26 68,26  Z"/>

<path  fill="#7F6B00" stroke-width="0" stroke="#7F6B00" d = " M26 26 L28,28 C28,28 26,26 26,26  Z"/>

<path  fill="#88FF00" stroke-width="0" stroke="#88FF00" d = " M77 26 C77,30.7689 72.8272,31 69,31 69,31 69,26 69,26 69,26 77,26 77,26  Z"/>

<path  fill="#FF0013" stroke-width="0" stroke="#FF0013" d = " M17 27 L16,28 C16,28 17,27 17,27  Z"/>

<path  fill="#FF0013" stroke-width="0" stroke="#FF0013" d = " M14 30 L16,30 C16,30 16,28 16,28 16,28 14,30 14,30  Z"/>

<path  fill="#7F6B00" stroke-width="0" stroke="#7F6B00" d = " M28 29 L29,30 C29,30 28,29 28,29  Z"/>

<path  fill="#7F3500" stroke-width="0" stroke="#7F3500" d = " M6 51 L18,51 C18,51 22,41 22,41 22,41 13,36.5 13,36.5 13,36.5 15,33 15,33 15,33 16,30 16,30 16,30 14,30 14,30 14,33.0859 6,43.8459 6,51  Z"/>

<path  fill="#FF6100" stroke-width="0" stroke="#FF6100" d = " M24 37 L23,38 C23,36.3909 16.7339,33 15,33 15,33 16,30 16,30 17.7131,30 24,35.5846 24,37  Z"/>

<path  fill="#00FF75" stroke-width="0" stroke="#00FF75" d = " M123 34 L115,38 C115,35.8461 118.846,32 121,32 121,32 123,34 123,34  Z"/>

<path  fill="#FF0013" stroke-width="0" stroke="#FF0013" d = " M23 38 L22,41 C22,41 13,36.5 13,36.5 13,36.5 15,33 15,33 16.7339,33 23,36.3909 23,38  Z"/>

<path  fill="#00FF00" stroke-width="0" stroke="#00FF00" d = " M112 40 L113,43 C116.682,43 120.406,38 125,38 125,38 123,34 123,34 123,34 115,38 115,38 115,38 112,40 112,40  Z"/>

<path  fill-rule="evenodd" fill="#007F3F" stroke-width="0" stroke="#007F3F" d = " M123 52 C123,54.1106 130.389,52 123,52  M116 52 C120.449,52 124.01,54 129,54 129,48.6832 125,42.8448 125,38 120.406,38 116.682,43 113,43 113,45.9331 116,48.3211 116,52  Z"/>

<path  fill="#7F0009" stroke-width="0" stroke="#7F0009" d = " M8 56 L9,56 C9,54.3156 13.6792,55 15,55 15,55 17,55 17,55 17,55 18,54 18,54 18,54 18,51 18,51 18,51 6,51 6,51 6,51 6,56 6,56 6,56 8,56 8,56  Z"/>

<path  fill="#007F00" stroke-width="0" stroke="#007F00" d = " M128 59 L129,59 C129,59 129,54 129,54 124.01,54 120.449,52 116,52 116,52 118,56 118,56 118,56.7179 126.654,59 128,59  Z"/>

<path  fill="#007F00" stroke-width="0" stroke="#007F00" d = " M123 52 C123,54.1106 130.389,52 123,52  Z"/>

<path  fill="#00FFE1" stroke-width="0" stroke="#00FFE1" d = " M18 54 L17,55 C17,55 18,54 18,54  Z"/>

<path  fill="#537F00" stroke-width="0" stroke="#537F00" d = " M15 55 C13.6792,55 9,54.3156 9,56 10.3208,56 15,56.6844 15,55  Z"/>

<path  fill="#00FFE1" stroke-width="0" stroke="#00FFE1" d = " M8 63 L10,63 C12.4092,63 15.181,62 17,62 17,62 17,55 17,55 17,55 15,55 15,55 15,56.6844 10.3208,56 9,56 9,56 8,56 8,56 8,56 6,57 6,57 6,57.9857 7.08743,63 8,63  Z"/>

<path  fill="#537F00" stroke-width="0" stroke="#537F00" d = " M8 56 L6,57 C6,57 6,56 6,56 6,56 8,56 8,56  Z"/>

<path  fill="#FF0000" stroke-width="0" stroke="#FF0000" d = " M126 66 L127,66 C127,66 128,60 128,60 128,60 128,59 128,59 126.654,59 118,56.7179 118,56 116.286,56 117,61.5944 117,63 119.343,63 121.27,65 125,65 125,65 126,66 126,66  Z"/>

<path  fill="#00137F" stroke-width="0" stroke="#00137F" d = " M129 59 L128,60 C128,60 128,59 128,59 128,59 129,59 129,59  Z"/>

<path  fill="#003AFF" stroke-width="0" stroke="#003AFF" d = " M21 74 C21,76.5722 14.6437,71.9282 12.5,73 12.0546,73.2227 12.8438,76 10,76 8.73654,76 8.43014,70.6397 9,69.5 9.54878,68.4024 15.0553,65 9,65 9,65 9,64 9,64 9,64 10,63 10,63 12.4092,63 15.181,62 17,62 17,65.9683 21,70.606 21,74  Z"/>

<path  fill="#7F7000" stroke-width="0" stroke="#7F7000" d = " M8 64 L9,64 C9,64 10,63 10,63 10,63 8,63 8,63 8,63 8,64 8,64  Z"/>

<path  fill="#FF7F00" stroke-width="0" stroke="#FF7F00" d = " M125 76 C125,77.1452 125.579,80 124,80 124,72.3783 117.675,76 114,76 114,71.6171 117,67.7984 117,63 119.343,63 121.27,65 125,65 125,65 126,66 126,66 126,66 126,67 126,67 126,67 125,67 125,67 121.289,67 121.96,71 125,71 125,71 126,72 126,72 126,72 125,75 125,75 125,75 125,76 125,76  Z"/>

<path  fill="#7F003A" stroke-width="0" stroke="#7F003A" d = " M9 64 L9,65 C9,67.029 8,65.0582 8,64 8,64 9,64 9,64  Z"/>

<path  fill="#007F7A" stroke-width="0" stroke="#007F7A" d = " M125 65 L126,66 C126,66 125,65 125,65  Z"/>

<path  fill="#BAFF00" stroke-width="0" stroke="#BAFF00" d = " M127 66 L126,67 C126,67 126,66 126,66 126,66 127,66 127,66  Z"/>

<path  fill="#BAFF00" stroke-width="0" stroke="#BAFF00" d = " M125 67 L126,67 C126,68.1859 125,68.1859 125,67  Z"/>

<path  fill="#BAFF00" stroke-width="0" stroke="#BAFF00" d = " M125 71 L126,72 C126,72 125,71 125,71  Z"/>

<path  fill="#FF6B00" stroke-width="0" stroke="#FF6B00" d = " M18 84 L36,84 C36,81.1867 38,80.5389 38,79 38,79 34,76 34,76 29.4414,76 22.9109,74 21,74 21,76.5722 14.6437,71.9282 12.5,73 12.0546,73.2227 12.8438,76 10,76 10,76 10,77 10,77 11.3993,77 11.3993,79 10,79 10,83.5106 13.1697,84 17,84 17,82.8141 18,82.8141 18,84  Z"/>

<path  fill="#4E7F00" stroke-width="0" stroke="#4E7F00" d = " M34 76 L38,79 C38,76.4199 34,73.1739 34,76  Z"/>

<path  fill="#00FF7F" stroke-width="0" stroke="#00FF7F" d = " M104 85 C110.141,85 114.323,87 120,87 120,84.212 120.25,80 124,80 124,72.3783 117.675,76 114,76 112.301,76 93.7906,85 104,85  Z"/>

<path  fill="#BAFF00" stroke-width="0" stroke="#BAFF00" d = " M125 75 C126.186,75 126.186,76 125,76 125,76 125,75 125,75  Z"/>

<path  fill="#003AFF" stroke-width="0" stroke="#003AFF" d = " M10 77 C11.3993,77 11.3993,79 10,79 10,79 10,77 10,77  Z"/>

<path  fill="#FF7F00" stroke-width="0" stroke="#FF7F00" d = " M122 85 L120,87 C120,84.212 120.25,80 124,80 124,80 123,84 123,84 123,84 122,85 122,85  Z"/>

<path  fill="#7F003A" stroke-width="0" stroke="#7F003A" d = " M17 84 L18,84 C18,82.8141 17,82.8141 17,84  Z"/>

<path  fill="#BAFF00" stroke-width="0" stroke="#BAFF00" d = " M123 84 L122,85 C122,85 123,84 123,84  Z"/>

</g>
</svg>
