<svg xmlns="http://www.w3.org/2000/svg" xmlns:xlink="http://www.w3.org/1999/xlink" height="102" width="136">
<g>
<rect width="136" height="102" fill="#000000"  stroke-width="0" /> 
<path  fill="#FF5700" stroke-width="0" stroke="#FF5700" d = " M53 24 C49.6745,24 45.6901,25 43,25 43,22.1561 41.7641,14 39,14 39,12.7 47.6298,11 49,11 49,11.9594 53,17.4858 53,23 53,23 53,24 53,24  Z"/>

<path  fill="#FF0027" stroke-width="0" stroke="#FF0027" d = " M53 23 L54,23 C54,20.293 55,17.0966 55,15 55,15 55,11 55,11 55,11 49,11 49,11 49,11.9594 53,17.4858 53,23  Z"/>

<path  fill="#7F0013" stroke-width="0" stroke="#7F0013" d = " M59 12 C56.3825,12 57.3495,15 55,15 55,15 55,11 55,11 56.1452,11 59,10.4209 59,12  Z"/>

<path  fill="#7F000E" stroke-width="0" stroke="#7F000E" d = " M54 23 L60,23 C61.6736,23 62.3264,22 64,22 64,22 67,19 67,19 67,17.4946 60.685,12 59,12 56.3825,12 57.3495,15 55,15 55,17.0966 54,20.293 54,23  Z"/>

<path  fill="#047F00" stroke-width="0" stroke="#047F00" d = " M74 23 L82,24 C82,22.8548 81.4209,20 83,20 83,20 81,16 81,16 81,16 78,12 78,12 74.1505,12 70,17.2181 70,21 70,21 74,23 74,23  Z"/>

<path  fill="#097F00" stroke-width="0" stroke="#097F00" d = " M81 12 L81,16 C81,16 78,12 78,12 78,12 81,12 81,12  Z"/>

<path  fill="#13FF00" stroke-width="0" stroke="#13FF00" d = " M81 16 L83,20 C83,20 88,13 88,13 88,11.2864 82.4056,12 81,12 81,12 81,16 81,16  Z"/>

<path  fill="#00FF6B" stroke-width="0" stroke="#00FF6B" d = " M83 25 C86.5103,25 90.0216,26 93,26 93,21.4778 96,19.6019 96,15 96,13.0693 89.7752,13 88,13 88,13 83,20 83,20 83,20 83,24 83,24 83,24 83,25 83,25  Z"/>

<path  fill="#7F6B00" stroke-width="0" stroke="#7F6B00" d = " M43 25 L29,32 C29,28.1081 24,25.7167 24,21 24,17.9564 36.1702,14 39,14 41.7641,14 43,22.1561 43,25  Z"/>

<path  fill="#007F75" stroke-width="0" stroke="#007F75" d = " M93 26 L95.5,28 L100.5,29 C102.453,29.9766 103.697,34 107,34 109.835,34 113,26.9159 113,24 113,20.8215 98.9634,15 96,15 96,19.6019 93,21.4778 93,26  Z"/>

<path  fill="#7F004E" stroke-width="0" stroke="#7F004E" d = " M60 23 C60,24.7349 66.5101,24 68,24 68,24 68,21 68,21 68,21 68,19 68,19 68,19 67,19 67,19 67,19 64,22 64,22 62.3264,22 61.6736,23 60,23  Z"/>

<path  fill="#447F00" stroke-width="0" stroke="#447F00" d = " M74 23 L69,24 C69,22.9521 69.4729,21 68,21 68,21 68,19 68,19 68,19 70,21 70,21 70,21 74,23 74,23  Z"/>

<path  fill="#13FF00" stroke-width="0" stroke="#13FF00" d = " M82 24 L83,24 C83,24 83,20 83,20 81.4209,20 82,22.8548 82,24  Z"/>

<path  fill="#7F2B00" stroke-width="0" stroke="#7F2B00" d = " M29 32 L28,33 C24.49,33 20.985,27 17,27 17,25.1292 22.4001,21 24,21 24,25.7167 29,28.1081 29,32  Z"/>

<path  fill="#FF009C" stroke-width="0" stroke="#FF009C" d = " M68 24 C68,25.9339 67.1886,31 65,31 56.1917,31 57.2842,24 53,24 53,24 53,23 53,23 53,23 54,23 54,23 54,23 60,23 60,23 60,24.7349 66.5101,24 68,24  Z"/>

<path  fill="#88FF00" stroke-width="0" stroke="#88FF00" d = " M83 25 C83,27.4049 80.9838,23.5323 80,25.5 L80,30.5 C78.4765,33.5471 72.0728,31 70,31 70,29.181 69,26.4092 69,24 69,24 74,23 74,23 74,23 82,24 82,24 82,24 83,24 83,24 83,24 83,25 83,25  Z"/>

<path  fill="#7F003A" stroke-width="0" stroke="#7F003A" d = " M67 75 C64.3775,75 67.3854,82.0573 65.5,83 55.9482,87.7759 44.6609,74 43.5,74 40.6688,74 40.2235,80 37,80 37,77.9715 38.1907,78.1186 39,76.5 42.3239,69.8522 33.1189,73 31,73 31,73 25,74 25,74 25,74 24,74 24,74 19.3708,74 19.0421,69.5842 18,67.5 17.4264,66.3528 19.0638,63 17,63 17,63 17,58 17,58 17,58 18,50 18,50 18,50 18,49 18,49 18,49 20,45 20,45 20,45 25,36 25,36 25,36 28,33 28,33 28,33 29,32 29,32 29,32 43,25 43,25 45.6901,25 49.6745,24 53,24 57.2842,24 56.1917,31 65,31 65,34.8738 66.961,32.4219 68,34.5 68,34.5 68,48 68,48 68,48 68,49 68,49 66.3156,49 67,53.6792 67,55 67,55 67,75 67,75  Z"/>

<path  fill="#007F35" stroke-width="0" stroke="#007F35" d = " M107 34 L108,35 C109.969,35 118,30.574 118,28 118,26.1887 114.562,24 113,24 113,26.9159 109.835,34 107,34  Z"/>

<path  fill-rule="evenodd" fill="#BAFF00" stroke-width="0" stroke="#BAFF00" d = " M113 46 C113,47.93 114.93,46 113,46  M107 76 L111,76 C114.922,76 117,67.007 117,64 117,64 117,59 117,59 117,55.9809 117,55.0191 117,52 117,52 117,51 117,51 117,51 115,47 115,47 115,47 111,39 111,39 111,39 108,35 108,35 108,35 107,34 107,34 103.697,34 102.453,29.9766 100.5,29 100.5,29 95.5,28 95.5,28 95.5,28 93,26 93,26 90.0216,26 86.5103,25 83,25 83,27.4049 80.9838,23.5323 80,25.5 80,25.5 80,30.5 80,30.5 78.4765,33.5471 72.0728,31 70,31 70,34.9711 69,39.931 69,44.5 69,45.5981 69.5336,48 68,48 68,48 68,49 68,49 68,49 68,69 68,69 68,70.3208 68.6844,75 67,75 67,75 67,82.5 67,82.5 68.5899,85.6798 83.0733,81.2133 85.5,80 85.5,80 91.5,74 91.5,74 92.7027,74 92.4423,78 95,78 95,78 94,75 94,75 94,65.8373 101.912,75 105,75 105,75 107,76 107,76  Z"/>

<path  fill="#7F2B00" stroke-width="0" stroke="#7F2B00" d = " M17 27 L15,30 C17.2935,30 17,29.003 17,27  Z"/>

<path  fill="#FF0013" stroke-width="0" stroke="#FF0013" d = " M28 33 L25,36 C25,35.2454 17.4016,32 16.5,32 16.5,32 15.5,34 15.5,34 15.5,34 13,33 13,33 13,31.7617 13.4226,30 15,30 17.2935,30 17,29.003 17,27 20.985,27 24.49,33 28,33  Z"/>

<path  fill="#00FF00" stroke-width="0" stroke="#00FF00" d = " M123 36 L121.5,34 C119.272,32.8861 111,37.6383 111,39 111,39 108,35 108,35 109.969,35 118,30.574 118,28 119.547,28 123,34.2835 123,36  Z"/>

<path  fill="#7F3500" stroke-width="0" stroke="#7F3500" d = " M8 45 C12.8619,45 16.269,45 20,45 20,45 25,36 25,36 25,35.2454 17.4016,32 16.5,32 16.5,32 15.5,34 15.5,34 15.5,34 13,33 13,33 10.7646,33 8,42.8044 8,45  Z"/>

<path  fill="#007F3F" stroke-width="0" stroke="#007F3F" d = " M115 47 C118.391,47 122.6,47 127,47 127,44.7671 125.454,36 123,36 123,36 121.5,34 121.5,34 119.272,32.8861 111,37.6383 111,39 111,39 115,47 115,47  Z"/>

<path  fill="#7F0009" stroke-width="0" stroke="#7F0009" d = " M6 50 L16,50 C16,50 18,49 18,49 18,49 20,45 20,45 16.269,45 12.8619,45 8,45 8,45 6,50 6,50  Z"/>

<path  fill="#007F00" stroke-width="0" stroke="#007F00" d = " M113 46 C113,47.93 114.93,46 113,46  Z"/>

<path  fill="#007F00" stroke-width="0" stroke="#007F00" d = " M117 51 C121.135,51 124.305,51 128,51 128,51 127,47 127,47 122.6,47 118.391,47 115,47 115,47 117,51 117,51  Z"/>

<path  fill="#537F00" stroke-width="0" stroke="#537F00" d = " M16 50 L18,50 C18,50 18,49 18,49 18,49 16,50 16,50  Z"/>

<path  fill="#537F00" stroke-width="0" stroke="#537F00" d = " M16 50 C16,51.725 9.94782,51 8.5,51 L6,53 C6,53 6,50 6,50 6,50 16,50 16,50  Z"/>

<path  fill="#00FFE1" stroke-width="0" stroke="#00FFE1" d = " M7 63 L9,64 C9,61.0449 13.7717,58 17,58 17,58 18,50 18,50 18,50 16,50 16,50 16,51.725 9.94782,51 8.5,51 8.5,51 6,53 6,53 6,53 7,63 7,63  Z"/>

<path  fill="#00137F" stroke-width="0" stroke="#00137F" d = " M126 53 L128,53 C128,53 128,51 128,51 124.305,51 121.135,51 117,51 117,51 117,52 117,52 117,52 126,53 126,53  Z"/>

<path  fill="#FF0000" stroke-width="0" stroke="#FF0000" d = " M117 59 C120.687,59 126,63.0032 126,67 127.496,67 129,57.5481 129,56 128.386,56 122,58.33 122,55.5 122,55.5 126,53 126,53 126,53 117,52 117,52 117,55.0191 117,55.9809 117,59  Z"/>

<path  fill="#007F00" stroke-width="0" stroke="#007F00" d = " M128 53 L129,56 C128.386,56 122,58.33 122,55.5 122,55.5 126,53 126,53 126,53 128,53 128,53  Z"/>

<path  fill="#003AFF" stroke-width="0" stroke="#003AFF" d = " M9 64 C11.2148,64 10.5187,66 12,66 12,64.1967 15.5918,63 17,63 17,63 17,58 17,58 13.7717,58 9,61.0449 9,64  Z"/>

<path  fill="#FF7F00" stroke-width="0" stroke="#FF7F00" d = " M123 67 C124.333,67 124.667,67 126,67 126,63.0032 120.687,59 117,59 117,59 117,64 117,64 117,64 123,67 123,67  Z"/>

<path  fill="#7F003A" stroke-width="0" stroke="#7F003A" d = " M7 63 L9,64 C9,66.0256 7,63.8957 7,63  Z"/>

<path  fill="#6B007F" stroke-width="0" stroke="#6B007F" d = " M15 77 C19.1603,77 18.6006,78 21,78 21,78 23,76 23,76 23,76 24,75 24,75 24,75 24,74 24,74 19.3708,74 19.0421,69.5842 18,67.5 17.4264,66.3528 19.0638,63 17,63 15.5918,63 12,64.1967 12,66 12,66 10,68 10,68 10,71.1334 11.2622,77 15,77  Z"/>

<path  fill="#7F7F00" stroke-width="0" stroke="#7F7F00" d = " M118 83 L119,83 C119,83 125,80 125,80 125,80 125,79 125,79 125,76.2276 125,73.0558 125,70 122.707,70 123,69.003 123,67 123,67 117,64 117,64 117,67.007 114.922,76 111,76 111,76 111,77 111,77 111,77 113,80 113,80 115.93,80 114.084,83 116,83 116,83 117,83 117,83 117,81.8141 118,81.8141 118,83  Z"/>

<path  fill="#003AFF" stroke-width="0" stroke="#003AFF" d = " M14 82 L15,82 C15,82 13,80.5 13,80.5 13,79.4554 15,78.639 15,77 11.2622,77 10,71.1334 10,68 5.55014,68 9.01219,82 14,82  Z"/>

<path  fill="#FF7F00" stroke-width="0" stroke="#FF7F00" d = " M125 70 C125,73.0558 125,76.2276 125,79 129.29,79 125,67.3341 125,70  Z"/>

<path  fill="#00097F" stroke-width="0" stroke="#00097F" d = " M96 79 L99,81 C99,73.6053 105,78.1489 105,75 101.912,75 94,65.8373 94,75 94,75 95,78 95,78 95,78 96,79 96,79  Z"/>

<path  fill="#4E7F00" stroke-width="0" stroke="#4E7F00" d = " M36 81 L34,82 C34,74.06 31,79.6148 31,73 33.1189,73 42.3239,69.8522 39,76.5 38.1907,78.1186 37,77.9715 37,80 37,80 36,81 36,81  Z"/>

<path  fill="#FF6B00" stroke-width="0" stroke="#FF6B00" d = " M32 82 L34,82 C34,74.06 31,79.6148 31,73 31,73 25,74 25,74 25,74 24,75 24,75 24,75 23,76 23,76 23,77.7469 22.7469,78 21,78 18.6006,78 19.1603,77 15,77 15,78.639 13,79.4554 13,80.5 13,80.5 15,82 15,82 18.3929,82 18,79.6445 18,83 19.7893,83 32,85.949 32,82  Z"/>

<path  fill="#FF00A6" stroke-width="0" stroke="#FF00A6" d = " M25 74 L24,75 C24,75 24,74 24,74 24,74 25,74 25,74  Z"/>

<path  fill="#FF00A6" stroke-width="0" stroke="#FF00A6" d = " M24 75 L23,76 C23,76 24,75 24,75  Z"/>

<path  fill="#00FF7F" stroke-width="0" stroke="#00FF7F" d = " M116 83 L116,84 C114.301,84 100,87.5517 100,83 100,83 99,81 99,81 99,73.6053 105,78.1489 105,75 105,75 107,76 107,76 107,76 111,78 111,78 111,79.7469 111.253,80 113,80 115.93,80 114.084,83 116,83  Z"/>

<path  fill="#003AFF" stroke-width="0" stroke="#003AFF" d = " M23 76 L21,78 C22.7469,78 23,77.7469 23,76  Z"/>

<path  fill="#92FF00" stroke-width="0" stroke="#92FF00" d = " M111 77 L111,78 C111,78 107,76 107,76 107,76 111,76 111,76 111,76 111,77 111,77  Z"/>

<path  fill="#FF7F00" stroke-width="0" stroke="#FF7F00" d = " M111 78 C111,79.7469 111.253,80 113,80 113,80 111,77 111,77 111,77 111,78 111,78  Z"/>

<path  fill="#BAFF00" stroke-width="0" stroke="#BAFF00" d = " M99 81 L100,83 C100,83 96,79 96,79 96,79 99,81 99,81  Z"/>

<path  fill="#7F003A" stroke-width="0" stroke="#7F003A" d = " M37 80 L36,81 C38.6808,81 37,82.6808 37,80  Z"/>

<path  fill="#FF7F00" stroke-width="0" stroke="#FF7F00" d = " M119 83 L119,84 C119,86.5456 125,82.287 125,80 125,80 119,83 119,83  Z"/>

<path  fill="#7F003A" stroke-width="0" stroke="#7F003A" d = " M15 82 C18.3929,82 18,79.6445 18,83 16.8548,83 14,83.5791 14,82 14,82 15,82 15,82  Z"/>

<path  fill="#FF7F00" stroke-width="0" stroke="#FF7F00" d = " M117 83 L118,83 C118,81.8141 117,81.8141 117,83  Z"/>

<path  fill="#FF7F00" stroke-width="0" stroke="#FF7F00" d = " M116 84 L117,84 C117,84 117,83 117,83 117,83 116,83 116,83 116,83 116,84 116,84  Z"/>

<path  fill="#BAFF00" stroke-width="0" stroke="#BAFF00" d = " M117 84 L119,84 C119,84 119,83 119,83 119,83 118,83 118,83 118,83 117,83 117,83 117,83 117,84 117,84  Z"/>

</g>
</svg>
