<svg xmlns="http://www.w3.org/2000/svg" xmlns:xlink="http://www.w3.org/1999/xlink" height="102" width="136">
<g>
<rect width="136" height="102" fill="#000000"  stroke-width="0" /> 
<path  fill="#7F003A" stroke-width="0" stroke="#7F003A" d = " M52 20 C53.5927,20 61,17.9368 61,21 59.4263,21 52,21.751 52,20  Z"/>

<path  fill="#9CFF00" stroke-width="0" stroke="#9CFF00" d = " M44 40 C41.0822,40 37.3434,43 35,43 35,41.4363 34,39.1236 34,37 34,37 34,36 34,36 34,36 34,35 34,35 35.4861,35 35.4861,32 34,32 34,24.8271 46.494,20 52,20 52,21.751 59.4263,21 61,21 61,21 62,21 62,21 62,21 63,22 63,22 63,22 64,22 64,22 64,22 65,23 65,23 65,23 66,24 66,24 66,24 67,25 67,25 67,25 68,27 68,27 68,27 68,33 68,33 63.248,33 55.0026,40 51,40 51,40 49,38 49,38 46.5999,38 43.6823,33.9089 41.5,35 40.7263,35.3869 42.6859,39 44,39 44,39 44,40 44,40  Z"/>

<path  fill="#0013FF" stroke-width="0" stroke="#0013FF" d = " M93 41 L100,44 C100.816,44 102,36.9811 102,36 100.814,36 100.814,35 102,35 102,35 101,32 101,32 101,32 100,31 100,31 100,31 99,29 99,29 99,29 98,28 98,28 98,28 97,27 97,27 97,27 96,26 96,26 96,26 89.5,22 89.5,22 78.6133,16.5567 69,20.0399 69,33 71.5232,33 79.2438,41 84,41 84,38.7065 84.997,39 87,39 87,38.046 93.1226,35.7451 94,37.5 94,37.5 93,41 93,41  Z"/>

<path  fill="#7F003A" stroke-width="0" stroke="#7F003A" d = " M62 21 L63,22 C63,22 62,21 62,21  Z"/>

<path  fill="#7F003A" stroke-width="0" stroke="#7F003A" d = " M64 22 L65,23 C65,23 64,22 64,22  Z"/>

<path  fill="#FF0092" stroke-width="0" stroke="#FF0092" d = " M65 23 L66,24 C66,24 65,23 65,23  Z"/>

<path  fill="#7F003A" stroke-width="0" stroke="#7F003A" d = " M67 25 L68,27 C68,27 67,25 67,25  Z"/>

<path  fill="#BAFF00" stroke-width="0" stroke="#BAFF00" d = " M96 26 L97,27 C97,27 96,26 96,26  Z"/>

<path  fill="#BAFF00" stroke-width="0" stroke="#BAFF00" d = " M98 28 L99,29 C99,29 98,28 98,28  Z"/>

<path  fill="#BAFF00" stroke-width="0" stroke="#BAFF00" d = " M100 31 L101,32 C101,32 100,31 100,31  Z"/>

<path  fill="#0E7F00" stroke-width="0" stroke="#0E7F00" d = " M34 32 C35.4861,32 35.4861,35 34,35 34,35 34,32 34,32  Z"/>

<path  fill="#7F003A" stroke-width="0" stroke="#7F003A" d = " M37 50 C37,52.1829 40.4051,53.3101 41,54.5 41.6064,55.7127 40.9378,58.3755 42,60.5 43.836,64.172 56.1231,74.1885 60.5,72 62.5767,70.9617 64.843,68.657 66.5,67 L68,64 C68,64 67,44.5 67,44.5 67,43.1367 66.2998,38 68,38 68,38 68,33 68,33 63.248,33 55.0026,40 51,40 51,41.6265 41.9385,51.2807 40.5,52 40.5,52 37,50 37,50  Z"/>

<path  fill="#BAFF00" stroke-width="0" stroke="#BAFF00" d = " M96 53 C96,56.2071 93.9058,53.6883 93,55.5 L94,57.5 L90,64.5 C86.7183,71.0635 68,78.5762 68,64 69.7002,64 69,58.8633 69,57.5 69,57.5 68,38 68,38 69.6426,38 69,34.2345 69,33 71.5232,33 79.2438,41 84,41 89.4526,41 89.6468,53 96,53  Z"/>

<path  fill="#0E7F00" stroke-width="0" stroke="#0E7F00" d = " M44 39 L46,39 C47.0479,39 49,39.4729 49,38 46.5999,38 43.6823,33.9089 41.5,35 40.7263,35.3869 42.6859,39 44,39  Z"/>

<path  fill="#7F007F" stroke-width="0" stroke="#7F007F" d = " M102 35 C100.814,35 100.814,36 102,36 102,36 102,35 102,35  Z"/>

<path  fill="#0E7F00" stroke-width="0" stroke="#0E7F00" d = " M34 36 C32.8141,36 32.8141,37 34,37 34,37 34,36 34,36  Z"/>

<path  fill="#7F007F" stroke-width="0" stroke="#7F007F" d = " M92 41 L93,41 C93,41 94,37.5 94,37.5 93.1226,35.7451 87,38.046 87,39 87,39 90,40 90,40 90,40 92,41 92,41  Z"/>

<path  fill="#001D7F" stroke-width="0" stroke="#001D7F" d = " M37 49 L37,50 C37,50 40.5,52 40.5,52 41.9385,51.2807 51,41.6265 51,40 51,40 49,38 49,38 49,39.4729 47.0479,39 46,39 46,39 44,40 44,40 41.0822,40 37.3434,43 35,43 35,43 36,48 36,48 36,48 37,49 37,49  Z"/>

<path  fill="#007F70" stroke-width="0" stroke="#007F70" d = " M46 39 L44,40 C44,40 44,39 44,39 44,39 46,39 46,39  Z"/>

<path  fill="#7F3F00" stroke-width="0" stroke="#7F3F00" d = " M100 44 C100,45.8308 97.8166,53 96,53 89.6468,53 89.4526,41 84,41 84,38.7065 84.997,39 87,39 87,39 90,40 90,40 90,40 92,41 92,41 92,41 93,41 93,41 93,41 100,44 100,44  Z"/>

<path  fill="#7F0000" stroke-width="0" stroke="#7F0000" d = " M90 40 L92,41 C92,41 90,40 90,40  Z"/>

<path  fill="#7F003A" stroke-width="0" stroke="#7F003A" d = " M36 48 L37,49 C37,49 36,48 36,48  Z"/>

</g>
</svg>
