<svg xmlns="http://www.w3.org/2000/svg" xmlns:xlink="http://www.w3.org/1999/xlink" height="102" width="136">
<g>
<rect width="136" height="102" fill="#000000"  stroke-width="0" /> 
<path  fill="#7F003A" stroke-width="0" stroke="#7F003A" d = " M47 22 L64,24 C64,19.4931 47,19.6342 47,22  Z"/>

<path  fill="#0013FF" stroke-width="0" stroke="#0013FF" d = " M84 41 C84,35.4549 96.5935,44 99,44 99,40.1935 100.605,35.711 99,32.5 96.7944,28.0889 83.3113,18.5944 78.5,21 78.5,21 71,24 71,24 71,24 70,25 70,25 70,27.0966 69,30.293 69,33 71.5232,33 79.2438,41 84,41  Z"/>

<path  fill="#7F003A" stroke-width="0" stroke="#7F003A" d = " M46 22 L45,23 C45,23 46,22 46,22  Z"/>

<path  fill="#9CFF00" stroke-width="0" stroke="#9CFF00" d = " M51 40 C49.3128,40 51.7551,36.8725 49.5,38 L37,42 C35.2998,42 36,36.8633 36,35.5 36,31.4709 39.991,23 45,23 45,23 46,22 46,22 46,22 47,22 47,22 47,22 64,24 64,24 64,24 65,25 65,25 65,25 67,31.5 67,31.5 64.9153,35.6695 57.8885,35.3058 54.5,37 54.5,37 51,40 51,40  Z"/>

<path  fill="#BAFF00" stroke-width="0" stroke="#BAFF00" d = " M71 24 L70,25 C70,25 71,24 71,24  Z"/>

<path  fill="#7F003A" stroke-width="0" stroke="#7F003A" d = " M39 48 L42,52.5 C45.7388,59.9777 45.2537,63.8768 53.5,68 55.6944,69.0972 57.2526,72.6237 60.5,71 63.192,69.654 64.5078,64 68,64 68,64 67,44.5 67,44.5 67,43.1367 66.2998,38 68,38 68,34.4796 69.7528,25 65,25 65,25 67,31.5 67,31.5 64.9153,35.6695 57.8885,35.3058 54.5,37 54.5,37 51,40 51,40 51,46.1431 42.4176,48 39,48  Z"/>

<path  fill="#BAFF00" stroke-width="0" stroke="#BAFF00" d = " M95 51 C95,54.7493 92.5896,51.3207 92,52.5 L92,57.5 L88,64.5 C86.8514,66.7971 83.3302,67.0849 81.5,68 L75.5,72 C72.5438,72 68,66.3657 68,64 69.7002,64 69,58.8633 69,57.5 69,57.5 68,38 68,38 69.6426,38 69,34.2345 69,33 71.5232,33 79.2438,41 84,41 88.378,41 90.3419,51 95,51  Z"/>

<path  fill="#001D7F" stroke-width="0" stroke="#001D7F" d = " M37 42 C37,44.4827 39,46.0256 39,48 42.4176,48 51,46.1431 51,40 49.3128,40 51.7551,36.8725 49.5,38 49.5,38 37,42 37,42  Z"/>

<path  fill="#7F3F00" stroke-width="0" stroke="#7F3F00" d = " M96 49 L95,51 C90.3419,51 88.378,41 84,41 84,35.4549 96.5935,44 99,44 99,44 97,48 97,48 97,48 96,49 96,49  Z"/>

<path  fill="#BAFF00" stroke-width="0" stroke="#BAFF00" d = " M97 48 L96,49 C96,49 97,48 97,48  Z"/>

</g>
</svg>
