<svg xmlns="http://www.w3.org/2000/svg" xmlns:xlink="http://www.w3.org/1999/xlink" height="102" width="136">
<g>
<rect width="136" height="102" fill="#000000"  stroke-width="0" /> 
<path  fill="#1DFF00" stroke-width="0" stroke="#1DFF00" d = " M49 24 L38,27 C33.9886,27 32,19.405 32,16 32,14.446 46.5705,11 49,11 49,15.9094 49,18.8071 49,24  Z"/>

<path  fill="#FFE100" stroke-width="0" stroke="#FFE100" d = " M49 24 L53,24 C53,22.5271 54.9521,23 56,23 56,23 57,23 57,23 57,23 58,12 58,12 56.7655,12 53,12.6426 53,11 53,11 49,11 49,11 49,15.9094 49,18.8071 49,24  Z"/>

<path  fill="#7F0013" stroke-width="0" stroke="#7F0013" d = " M58 11 L58,12 C56.7655,12 53,12.6426 53,11 53,11 58,11 58,11  Z"/>

<path  fill="#7F000E" stroke-width="0" stroke="#7F000E" d = " M57 23 L60,24 C62.7397,24 64.7696,19 68,19 68,19 68,18 68,18 63.3342,18 63.4053,11 58,11 58,11 58,12 58,12 58,12 57,23 57,23  Z"/>

<path  fill="#047F00" stroke-width="0" stroke="#047F00" d = " M76 24 L78,24 C78,24 78,12 78,12 78,12 78,11 78,11 74.7004,11 70,15.624 70,19 70,19 76,24 76,24  Z"/>

<path  fill="#097F00" stroke-width="0" stroke="#097F00" d = " M82 11 C82,12.5791 79.1452,12 78,12 78,12 78,11 78,11 78,11 82,11 82,11  Z"/>

<path  fill="#00FFF5" stroke-width="0" stroke="#00FFF5" d = " M82 25 L86,25 C86,20.2793 88,16.0165 88,12 88,12 82,11 82,11 82,12.5791 79.1452,12 78,12 78,12 78,24 78,24 78,24 81,24 81,24 81,24 82,25 82,25  Z"/>

<path  fill="#FF00FF" stroke-width="0" stroke="#FF00FF" d = " M86 25 C90.4275,25 94.3022,29 98,29 98,24.8057 103,22.0119 103,17 103,15.2115 90.0987,12 88,12 88,16.0165 86,20.2793 86,25  Z"/>

<path  fill="#7F3000" stroke-width="0" stroke="#7F3000" d = " M38 27 L32,31 C32,31 25,20 25,20 25,18.5714 30.478,16 32,16 32,19.405 33.9886,27 38,27  Z"/>

<path  fill="#007F3A" stroke-width="0" stroke="#007F3A" d = " M98 29 L102,32 C102,32 111,22 111,22 111,22 110,21 110,21 110,21 109,20 109,20 109,20 103,17 103,17 103,22.0119 98,24.8057 98,29  Z"/>

<path  fill="#047F00" stroke-width="0" stroke="#047F00" d = " M68 19 L69,19 C69,19 68,18 68,18 68,18 68,19 68,19  Z"/>

<path  fill="#7F004E" stroke-width="0" stroke="#7F004E" d = " M60 25 L68,26 C68,26 68,19 68,19 64.7696,19 62.7397,24 60,24 60,24 60,25 60,25  Z"/>

<path  fill="#447F00" stroke-width="0" stroke="#447F00" d = " M69 26 L75,26 C75,26 76,24 76,24 76,24 70,19 70,19 70,19 69,19 69,19 69,19 69,26 69,26  Z"/>

<path  fill="#FF001D" stroke-width="0" stroke="#FF001D" d = " M32 31 L30,33 C27.2677,33 27.741,29 25,29 25,25.8851 20.8502,25 20,25 20,23.3387 23.0075,20 25,20 25,20 32,31 32,31  Z"/>

<path  fill="#7F7A00" stroke-width="0" stroke="#7F7A00" d = " M109 20 L110,21 C110,21 109,20 109,20  Z"/>

<path  fill="#09FF00" stroke-width="0" stroke="#09FF00" d = " M102 32 L105,34 C106.822,34 113.985,26.4701 113,24.5 113,24.5 111,22 111,22 111,22 102,32 102,32  Z"/>

<path  fill="#7F7A00" stroke-width="0" stroke="#7F7A00" d = " M111 36 C109.762,36 108,36.4226 108,38 108,38 105,34 105,34 106.822,34 113.985,26.4701 113,24.5 113,24.5 111,22 111,22 111,22 116,27 116,27 111.073,27 111,31.9774 111,35 111,35 111,36 111,36  Z"/>

<path  fill="#7F0013" stroke-width="0" stroke="#7F0013" d = " M56 23 C54.9521,23 53,22.5271 53,24 54.0479,24 56,24.4729 56,23  Z"/>

<path  fill="#7F003A" stroke-width="0" stroke="#7F003A" d = " M12 80 C14.4637,80 24.3879,75.2758 27,80.5 28.6947,83.8894 25,88.2483 25,91 33.2029,91 36.8579,89.3211 43.5,86 43.5,86 48.5,81 48.5,81 51.2329,79.6336 55.3688,85.9344 57.5,87 59.5579,88.0289 64.3493,88 66.5,88 66.5,88 66,84.5 66,84.5 66,82.6338 65.2155,72 67,72 67,72 67,52 67,52 67,50.6792 66.3156,46 68,46 68,42.1338 67.1895,41.879 66,39.5 66,39.5 68,36.5 68,36.5 68,36.5 68,30 68,30 65.4722,30 60,28.389 60,25 60,25 60,24 60,24 60,24 57,23 57,23 57,23 56,23 56,23 56,24.4729 54.0479,24 53,24 53,24 49,24 49,24 49,24 38,27 38,27 38,27 32,31 32,31 32,31 30,33 30,33 30,33 28,35 28,35 28,35 28,36 28,36 28,36 27,37 27,37 27,37 25,40 25,40 25,40 23,44 23,44 23,44 20,55 20,55 20,55 19,60 19,60 19,60 19,65 19,65 19,65 20,66 20,66 20,72.3356 17.6449,77 11,77 11,77 12,80 12,80  Z"/>

<path  fill="#C400FF" stroke-width="0" stroke="#C400FF" d = " M26 36 L28,36 C28,36 28,35 28,35 28,32.5909 24.122,29 25,29 25,25.8851 20.8502,25 20,25 18.0985,25 15,29.3317 15,31 19.7574,31 21.5743,36 26,36  Z"/>

<path  fill="#BAFF00" stroke-width="0" stroke="#BAFF00" d = " M119 86 C116.849,86 119.545,84.5909 119,83.5 L113.5,79 C109.929,77.2143 105,83.4996 105,86.5 L110,93 C95.893,93 96.8252,88.6626 85.5,83 83.0624,81.7812 77.5142,86.9929 75.5,88 65.0085,93.2458 67,77.5658 67,72 68.6844,72 68,67.3208 68,66 68,66 68,46 68,46 69.801,46 69,32.1581 69,30 70.9841,30 75,28.5565 75,26 75,26 76,24 76,24 76,24 78,24 78,24 78,24 81,24 81,24 81,24 82,25 82,25 82,25 86,25 86,25 90.4275,25 94.3022,29 98,29 98,29 102,32 102,32 102,32 105,34 105,34 105,34 108,38 108,38 108,38 109,40 109,40 109,40 111,45 111,45 111,48.3395 114,51.9243 114,56 114,56 114,61 114,61 114,61 113,67 113,67 113,72.6089 115.831,78 122,78 122,79.654 120.802,86 119,86  Z"/>

<path  fill="#097F00" stroke-width="0" stroke="#097F00" d = " M81 24 L82,25 C82,25 81,24 81,24  Z"/>

<path  fill="#FF009C" stroke-width="0" stroke="#FF009C" d = " M68 26 L68,30 C65.4722,30 60,28.389 60,25 60,25 68,26 68,26  Z"/>

<path  fill="#88FF00" stroke-width="0" stroke="#88FF00" d = " M75 26 C75,28.5565 70.9841,30 69,30 69,30 69,26 69,26 69,26 75,26 75,26  Z"/>

<path  fill="#FFF500" stroke-width="0" stroke="#FFF500" d = " M119 31 L111,35 C111,31.9774 111.073,27 116,27 117.712,27 119,29.5711 119,31  Z"/>

<path  fill="#62007F" stroke-width="0" stroke="#62007F" d = " M30 33 L28,35 C28,32.5909 24.122,29 25,29 27.741,29 27.2677,33 30,33  Z"/>

<path  fill="#FF0013" stroke-width="0" stroke="#FF0013" d = " M9 42 L11.5,39 C12.5886,38.4557 16.1445,39 16.5,39 21.2561,39 17.1285,44 23,44 23,44 25,40 25,40 25,38.9232 21.391,37 26,37 26,37 26,36 26,36 21.5743,36 19.7574,31 15,31 12.8324,31 9,40.0978 9,42  Z"/>

<path  fill="#00FF00" stroke-width="0" stroke="#00FF00" d = " M109 40 L111,45 C111,45 118,43.5 118,43.5 118,43.5 115,41.5 115,41.5 115,39.9676 122.578,39 124,39 124,37.6529 120.562,31 119,31 119,31 111,35 111,35 111,35 111,36 111,36 111,37.8959 112.97,40 109,40  Z"/>

<path  fill="#62007F" stroke-width="0" stroke="#62007F" d = " M26 37 L27,37 C27,37 28,36 28,36 28,36 26,36 26,36 26,36 26,37 26,37  Z"/>

<path  fill="#FFF500" stroke-width="0" stroke="#FFF500" d = " M108 38 L109,40 C112.97,40 111,37.8959 111,36 109.762,36 108,36.4226 108,38  Z"/>

<path  fill="#C400FF" stroke-width="0" stroke="#C400FF" d = " M27 37 L25,40 C25,38.9232 21.391,37 26,37 26,37 27,37 27,37  Z"/>

<path  fill="#7F3500" stroke-width="0" stroke="#7F3500" d = " M7 55 C11.4492,55 15.0102,55 20,55 20,55 23,44 23,44 17.1285,44 21.2561,39 16.5,39 16.1445,39 12.5886,38.4557 11.5,39 11.5,39 9,42 9,42 9,46.207 7,50.1545 7,55  Z"/>

<path  fill="#007F3F" stroke-width="0" stroke="#007F3F" d = " M128 57 L127,58 C122.243,58 119.031,56 114,56 114,51.9243 111,48.3395 111,45 111,45 118,43.5 118,43.5 118,43.5 115,41.5 115,41.5 115,39.9676 122.578,39 124,39 124,39 124,40 124,40 124,40 125,41 125,41 125,46.0564 128,51.6447 128,57  Z"/>

<path  fill="#00FF00" stroke-width="0" stroke="#00FF00" d = " M124 40 L125,41 C125,41 124,40 124,40  Z"/>

<path  fill="#7F0009" stroke-width="0" stroke="#7F0009" d = " M8 60 L19,60 C19,60 20,55 20,55 15.0102,55 11.4492,55 7,55 7,55 8,60 8,60  Z"/>

<path  fill="#007F00" stroke-width="0" stroke="#007F00" d = " M114 61 L126,62 C127.579,62 127,59.1452 127,58 122.243,58 119.031,56 114,56 114,56 114,61 114,61  Z"/>

<path  fill="#007F00" stroke-width="0" stroke="#007F00" d = " M128 57 L127,58 C127,58 128,57 128,57  Z"/>

<path  fill="#00FFE1" stroke-width="0" stroke="#00FFE1" d = " M12 66 L15,66 C15,64.4209 17.8548,65 19,65 19,65 19,60 19,60 19,60 8,60 8,60 8,63.2986 8.55844,66 12,66  Z"/>

<path  fill="#FF0000" stroke-width="0" stroke="#FF0000" d = " M122 68 L123,68 C123,68 125,67 125,67 125,67 126,62 126,62 126,62 114,61 114,61 114,61 113,67 113,67 113,67 114,67 114,67 114,67 122,68 122,68  Z"/>

<path  fill="#7F7000" stroke-width="0" stroke="#7F7000" d = " M15 66 L20,66 C20,66 19,65 19,65 17.8548,65 15,64.4209 15,66  Z"/>

<path  fill="#7F7000" stroke-width="0" stroke="#7F7000" d = " M15 66 L13,67 C13,67 12,66 12,66 12,66 15,66 15,66  Z"/>

<path  fill="#003AFF" stroke-width="0" stroke="#003AFF" d = " M13 67 C13,69.815 10.7973,68.9053 10,70.5 L11,77 C17.6449,77 20,72.3356 20,66 20,66 15,66 15,66 15,66 13,67 13,67  Z"/>

<path  fill="#FF7F00" stroke-width="0" stroke="#FF7F00" d = " M123 77 L122,78 C115.831,78 113,72.6089 113,67 113,67 114,67 114,67 114,67.8527 120.031,69 121,69 121,71.2148 123,70.5187 123,72 123,72 123,73 123,73 123,73 123,77 123,77  Z"/>

<path  fill="#007F7A" stroke-width="0" stroke="#007F7A" d = " M122 68 L121,69 C120.031,69 114,67.8527 114,67 114,67 122,68 122,68  Z"/>

<path  fill="#BAFF00" stroke-width="0" stroke="#BAFF00" d = " M125 67 L123,68 C123,70.0918 125,68.6521 125,67  Z"/>

<path  fill="#BAFF00" stroke-width="0" stroke="#BAFF00" d = " M123 72 C124.186,72 124.186,73 123,73 123,73 123,72 123,72  Z"/>

<path  fill="#BAFF00" stroke-width="0" stroke="#BAFF00" d = " M123 77 L122,78 C122,78 123,77 123,77  Z"/>

<path  fill="#FF6B00" stroke-width="0" stroke="#FF6B00" d = " M12 80 C14.4637,80 24.3879,75.2758 27,80.5 28.6947,83.8894 25,88.2483 25,91 18.6551,91 12,86.7965 12,80  Z"/>

<path  fill="#00FF7F" stroke-width="0" stroke="#00FF7F" d = " M119 86 C116.849,86 119.545,84.5909 119,83.5 L113.5,79 C109.929,77.2143 105,83.4996 105,86.5 L110,93 C113.532,93 119,90.1235 119,86  Z"/>

</g>
</svg>
