<svg xmlns="http://www.w3.org/2000/svg" xmlns:xlink="http://www.w3.org/1999/xlink" height="102" width="136">
<g>
<rect width="136" height="102" fill="#000000"  stroke-width="0" /> 
<path  fill="#FF0027" stroke-width="0" stroke="#FF0027" d = " M56 16 C52.8489,16 53.297,19 51,19 51,19 50,12 50,12 51.9744,12 53.5173,12 56,12 56,12 56,16 56,16  Z"/>

<path  fill="#FF5700" stroke-width="0" stroke="#FF5700" d = " M51 24 C48.293,24 45.0966,25 43,25 43,20.5253 38.3685,16 34,16 34,13.4612 47.0536,12 50,12 50,12 51,19 51,19 51,19 51,21 51,21 49.8141,21 49.8141,22 51,22 51,22 51,23 51,23 51,23 51,24 51,24  Z"/>

<path  fill="#7F0013" stroke-width="0" stroke="#7F0013" d = " M58 12 L56,16 C56,16 56,12 56,12 56,12 58,12 58,12  Z"/>

<path  fill="#7F000E" stroke-width="0" stroke="#7F000E" d = " M67 22 L68,22 C68,22 67,19 67,19 64.831,19 62,16.101 62,14 62,14 61,13 61,13 61,13 60,12 60,12 60,12 58,12 58,12 58,12 56,16 56,16 52.8489,16 53.297,19 51,19 51,19 51,21 51,21 51,21 51,22 51,22 51,22 51,23 51,23 51,23 63,22 63,22 63,20.8141 64,20.8141 64,22 64,22 66,22 66,22 66,22 67,22 67,22  Z"/>

<path  fill="#7F003A" stroke-width="0" stroke="#7F003A" d = " M60 12 L61,13 C61,13 60,12 60,12  Z"/>

<path  fill="#097F00" stroke-width="0" stroke="#097F00" d = " M79 13 L81,17 C83.1514,17 80.4545,15.5909 81,14.5 81,14.5 84,12 84,12 84,12 79,13 79,13  Z"/>

<path  fill="#13FF00" stroke-width="0" stroke="#13FF00" d = " M81 17 L85,20 C85,17.6304 87,16.5452 87,13 87,13 84,12 84,12 84,12 81,14.5 81,14.5 80.4545,15.5909 83.1514,17 81,17  Z"/>

<path  fill="#7F0013" stroke-width="0" stroke="#7F0013" d = " M61 13 L62,14 C62,14 61,13 61,13  Z"/>

<path  fill="#047F00" stroke-width="0" stroke="#047F00" d = " M72 23 C76.5899,23 81.1639,23 86,23 86,23 85,20 85,20 85,20 81,17 81,17 81,17 79,13 79,13 73.6222,13 70,18.468 70,22 70,22 72,23 72,23  Z"/>

<path  fill="#00FF6B" stroke-width="0" stroke="#00FF6B" d = " M86 25 L94,26 C96.6797,26 92.9935,18 103,18 103,14.784 89.8859,13 87,13 87,16.5452 85,17.6304 85,20 85,20 86,23 86,23 86,23 86,25 86,25  Z"/>

<path  fill="#7F6B00" stroke-width="0" stroke="#7F6B00" d = " M43 25 C43,25.7964 30.4485,33 29,33 27.1274,33 23,23.8996 23,22 23,20.1274 32.1004,16 34,16 38.3685,16 43,20.5253 43,25  Z"/>

<path  fill="#007F75" stroke-width="0" stroke="#007F75" d = " M95 28 C99.6013,28 103.089,36 107,36 107,36 114,25 114,25 114,22.2394 105.209,18 103,18 92.9935,18 96.6797,26 94,26 94,26 94,27 94,27 94,27 95,28 95,28  Z"/>

<path  fill="#7F003A" stroke-width="0" stroke="#7F003A" d = " M68 23 L69,23 C69,21.5345 69.109,19 67,19 67,19 68,22 68,22 68,22 68,23 68,23  Z"/>

<path  fill="#FF009C" stroke-width="0" stroke="#FF009C" d = " M51 21 C49.8141,21 49.8141,22 51,22 51,22 51,21 51,21  Z"/>

<path  fill="#7F004E" stroke-width="0" stroke="#7F004E" d = " M63 22 L64,22 C64,20.8141 63,20.8141 63,22  Z"/>

<path  fill="#7F2B00" stroke-width="0" stroke="#7F2B00" d = " M17 36 C17,25.2699 20.6869,37 25,37 25,37 29,33 29,33 27.1274,33 23,23.8996 23,22 20.8037,22 14,30.0409 14,32 14,32 13,33 13,33 13,33 13,34 13,34 13,34 16,36 16,36 16,36 17,36 17,36  Z"/>

<path  fill="#FF009C" stroke-width="0" stroke="#FF009C" d = " M51 24 C52.0314,24 55.5361,28.5181 58.5,30 60.6615,31.0807 63.3944,29 65,29 65,26.9214 68,25.8129 68,23 68,23 68,22 68,22 68,22 67,22 67,22 67,23.1859 66,23.1859 66,22 66,22 64,22 64,22 64,22 63,22 63,22 63,22 51,23 51,23 51,23 51,24 51,24  Z"/>

<path  fill="#7F004E" stroke-width="0" stroke="#7F004E" d = " M66 22 L67,22 C67,23.1859 66,23.1859 66,22  Z"/>

<path  fill="#447F00" stroke-width="0" stroke="#447F00" d = " M70 23 L72,23 C72,23 70,22 70,22 70,22 70,23 70,23  Z"/>

<path  fill="#88FF00" stroke-width="0" stroke="#88FF00" d = " M86 25 L79.5,31 L70,29 C70,29 69,23 69,23 69,23 70,23 70,23 70,23 72,23 72,23 76.5899,23 81.1639,23 86,23 86,23 86,25 86,25  Z"/>

<path  fill-rule="evenodd" fill="#7F003A" stroke-width="0" stroke="#7F003A" d = " M54 81 C54,83.0912 57.7458,81 54,81  M67 76 C64.6497,76 66.783,83.934 66,85.5 L62.5,87 L60.5,86 C58.461,84.9805 55.6153,85.0577 53.5,84 L45.5,73 C38.0234,69.2617 39.2672,78 34,78 34,73.0103 30.2625,72 26,72 26,72 23,72 23,72 19.8252,72 20.5449,64 18,64 18,64 18,58 18,58 18,58 18,51 18,51 18,51 18,50 18,50 18,50 20,46 20,46 20,46 23,40 23,40 24.5774,40 25,38.2383 25,37 25,37 29,33 29,33 30.4485,33 43,25.7964 43,25 45.0966,25 48.293,24 51,24 52.0314,24 55.5361,28.5181 58.5,30 60.6615,31.0807 63.3944,29 65,29 65,32.8738 66.961,30.4219 68,32.5 68,32.5 68,49 68,49 66.3156,49 67,53.6792 67,55 67,55 67,75 67,75 67,75 67,76 67,76  Z"/>

<path  fill="#BAFF00" stroke-width="0" stroke="#BAFF00" d = " M67 76 C67,80.9741 66.3626,89.5687 73.5,86 75.2143,85.1428 77.2376,89.0247 79,85.5 L76,82.5 C76,79.5402 81.8589,83.3206 82.5,83 L91.5,71 C96.2918,68.6041 96.1522,78 100,78 102.94,78 104.943,73 109,73 109,73 111,73 111,73 111,72.3324 117,70.8396 117,65 117,65 117,59 117,59 115.751,59 116,53.4888 116,52 116,52 116,51 116,51 116,51 115,48 115,48 115,48 112,42 112,42 112,42 110,39 110,39 110,39 107,36 107,36 103.089,36 99.6013,28 95,28 95,28 94,27 94,27 94,27 94,26 94,26 94,26 86,25 86,25 86,25 79.5,31 79.5,31 79.5,31 70,29 70,29 70,33.579 69,39.3029 69,44.5 69,45.6904 69.6145,49 68,49 68,49 68,69 68,69 68,70.3208 68.6844,75 67,75 67,75 67,76 67,76  Z"/>

<path  fill="#007F35" stroke-width="0" stroke="#007F35" d = " M107 36 L110,39 C110,39 120,32 120,32 120,30.237 115.988,25 114,25 114,25 107,36 107,36  Z"/>

<path  fill="#00FF6B" stroke-width="0" stroke="#00FF6B" d = " M94 27 L95,28 C95,28 94,27 94,27  Z"/>

<path  fill="#FF0013" stroke-width="0" stroke="#FF0013" d = " M25 37 C25,38.2383 24.5774,40 23,40 23,36.5133 17,37.7728 17,36 17,25.2699 20.6869,37 25,37  Z"/>

<path  fill="#FF0013" stroke-width="0" stroke="#FF0013" d = " M14 32 L13,33 C13,33 14,32 14,32  Z"/>

<path  fill="#00FF00" stroke-width="0" stroke="#00FF00" d = " M110 39 L112,42 C112,42 114.5,39 114.5,39 116.202,39 119.152,37 121,37 121,37 122,35 122,35 122,33.7617 121.577,32 120,32 120,32 110,39 110,39  Z"/>

<path  fill="#537F00" stroke-width="0" stroke="#537F00" d = " M11 45 L8,46 C8,44.2086 11.433,34 13,34 13,34 16,36 16,36 16,39.9844 11,42.0274 11,45  Z"/>

<path  fill="#007F35" stroke-width="0" stroke="#007F35" d = " M121 37 L123,37 C123,37 122,35 122,35 122,35 121,37 121,37  Z"/>

<path  fill="#7F3500" stroke-width="0" stroke="#7F3500" d = " M11 45 C13.3885,45 16.9867,46 20,46 20,46 23,40 23,40 23,36.5133 17,37.7728 17,36 17,36 16,36 16,36 16,39.9844 11,42.0274 11,45  Z"/>

<path  fill="#007F3F" stroke-width="0" stroke="#007F3F" d = " M126 47 L115,48 C115,48 112,42 112,42 112,42 114.5,39 114.5,39 116.202,39 119.152,37 121,37 121,39.2769 122.922,45 126,45 126,45 126,47 126,47  Z"/>

<path  fill="#00137F" stroke-width="0" stroke="#00137F" d = " M123 37 C124.802,37 126,43.346 126,45 122.922,45 121,39.2769 121,37 121,37 123,37 123,37  Z"/>

<path  fill="#7F0009" stroke-width="0" stroke="#7F0009" d = " M7 49 C11.1805,49 14.2487,50 18,50 18,50 20,46 20,46 16.9867,46 13.3885,45 11,45 11,45 8,46 8,46 8,46 7,49 7,49  Z"/>

<path  fill="#007F00" stroke-width="0" stroke="#007F00" d = " M116 51 C120.135,51 123.814,51 127,51 127,49.8548 127.579,47 126,47 126,47 115,48 115,48 115,48 116,51 116,51  Z"/>

<path  fill="#537F00" stroke-width="0" stroke="#537F00" d = " M18 51 C13.9215,51 10.3782,53 7,53 7,53 7,49 7,49 11.1805,49 14.2487,50 18,50 18,50 18,51 18,51  Z"/>

<path  fill="#00137F" stroke-width="0" stroke="#00137F" d = " M116 52 L125.5,53 L128,56 C128,54.7655 128.643,51 127,51 123.814,51 120.135,51 116,51 116,51 116,52 116,52  Z"/>

<path  fill="#00FFE1" stroke-width="0" stroke="#00FFE1" d = " M9 62 L10,62 C13.0448,62 14.4448,58 18,58 18,58 18,51 18,51 13.9215,51 10.3782,53 7,53 7,53 7,60 7,60 7,60 9,62 9,62  Z"/>

<path  fill="#FF0000" stroke-width="0" stroke="#FF0000" d = " M126 64 L127,64 C127,64 128,56 128,56 128,56 125.5,53 125.5,53 125.5,53 116,52 116,52 116,53.4888 115.751,59 117,59 120.686,59 122.97,64 126,64  Z"/>

<path  fill="#003AFF" stroke-width="0" stroke="#003AFF" d = " M8 68 L8,72 C12.2264,72 13.7195,64 18,64 18,64 18,58 18,58 14.4448,58 13.0448,62 10,62 10,63.6543 13.6136,67 9,67 9,67 8,68 8,68  Z"/>

<path  fill="#FF7F00" stroke-width="0" stroke="#FF7F00" d = " M126 65 C116.691,65 131.682,69.8178 127,74.5 L125,76 C123.049,76 124.523,73.5456 124,72.5 124,72.5 117,65 117,65 117,65 117,59 117,59 120.686,59 122.97,64 126,64 126,64 126,65 126,65  Z"/>

<path  fill="#7F003A" stroke-width="0" stroke="#7F003A" d = " M7 60 L9,62 C9,64.6381 7,61.6674 7,60  Z"/>

<path  fill="#6B007F" stroke-width="0" stroke="#6B007F" d = " M17 81 L18,81 C18,77.5182 23,75.2898 23,72 19.8252,72 20.5449,64 18,64 13.7195,64 12.2264,72 8,72 8,72 9,75 9,75 9,75 16,81 16,81 16,81 17,81 17,81  Z"/>

<path  fill="#007F7A" stroke-width="0" stroke="#007F7A" d = " M127 64 C127,65.0582 126,67.029 126,65 126,65 126,64 126,64 126,64 127,64 127,64  Z"/>

<path  fill="#7F7F00" stroke-width="0" stroke="#7F7F00" d = " M119 82 C119,80.8141 120,80.8141 120,82 121.901,82 125,77.6683 125,76 123.049,76 124.523,73.5456 124,72.5 124,72.5 117,65 117,65 117,70.8396 111,72.3324 111,73 113.665,73 113.255,78.0103 114,79.5 114,79.5 117,82 117,82 117,82 119,82 119,82  Z"/>

<path  fill="#7F003A" stroke-width="0" stroke="#7F003A" d = " M9 67 L8,68 C8,68 9,67 9,67  Z"/>

<path  fill="#FF00A6" stroke-width="0" stroke="#FF00A6" d = " M18 82 L24,82 C24,82 24,80 24,80 24,77.2912 26,75.3544 26,72 26,72 23,72 23,72 23,75.2898 18,77.5182 18,81 18,81 18,82 18,82  Z"/>

<path  fill="#4E7F00" stroke-width="0" stroke="#4E7F00" d = " M24 80 L26,82 C28.9546,82 34,81.6666 34,78 34,73.0103 30.2625,72 26,72 26,75.3544 24,77.2912 24,80  Z"/>

<path  fill="#00097F" stroke-width="0" stroke="#00097F" d = " M109 79 C109,80.876 103,80.0403 103,83 101.523,83 100,79.0757 100,78 102.94,78 104.943,73 109,73 109,73 109,79 109,79  Z"/>

<path  fill="#92FF00" stroke-width="0" stroke="#92FF00" d = " M117 82 L110,84 C110,82.7655 110.643,79 109,79 109,79 109,73 109,73 109,73 111,73 111,73 113.665,73 113.255,78.0103 114,79.5 114,79.5 117,82 117,82  Z"/>

<path  fill="#7F003A" stroke-width="0" stroke="#7F003A" d = " M9 75 L16,81 C14.4001,81 9,76.8708 9,75  Z"/>

<path  fill="#00FF7F" stroke-width="0" stroke="#00FF7F" d = " M103 83 L110,84 C110,82.7655 110.643,79 109,79 109,80.876 103,80.0403 103,83  Z"/>

<path  fill="#FF6B00" stroke-width="0" stroke="#FF6B00" d = " M24 82 L26,82 C26,82 24,80 24,80 24,80 24,82 24,82  Z"/>

<path  fill="#7F003A" stroke-width="0" stroke="#7F003A" d = " M18 81 L18,82 C18,82 17,81 17,81 17,81 18,81 18,81  Z"/>

<path  fill="#BAFF00" stroke-width="0" stroke="#BAFF00" d = " M119 82 L120,82 C120,80.8141 119,80.8141 119,82  Z"/>

</g>
</svg>
