<svg xmlns="http://www.w3.org/2000/svg" xmlns:xlink="http://www.w3.org/1999/xlink" height="102" width="136">
<g>
<rect width="136" height="102" fill="#000000"  stroke-width="0" /> 
<path  fill="#7F003A" stroke-width="0" stroke="#7F003A" d = " M55 17 C57.707,17 60.9034,18 63,18 63,13.9912 50,14.2047 50,16 51.2345,16 55,15.3574 55,17  Z"/>

<path  fill="#0E7F00" stroke-width="0" stroke="#0E7F00" d = " M44 40 L45,40 C45,40 47,38 47,38 47,38 49,37 49,37 49,37 50,32 50,32 50,25.888 55,22.8849 55,17 55,15.3574 51.2345,16 50,16 46.9059,16 31,22.8224 31,26 31,26 34.5,28 34.5,28 38.5667,32.0667 31.0883,32 27,32 25.3372,32 25,37.4069 25,39 27.5349,39 29.8942,37 34,37 35.9229,37 43,36.8444 43,39 43,39 44,40 44,40  Z"/>

<path  fill="#BAFF00" stroke-width="0" stroke="#BAFF00" d = " M83 17 L85,17 C85,15.3868 77,15.3868 77,17 77,17 83,17 83,17  Z"/>

<path  fill="#9CFF00" stroke-width="0" stroke="#9CFF00" d = " M66 21 L61.5,20 L50,32 C50,25.888 55,22.8849 55,17 57.707,17 60.9034,18 63,18 63,18 66,21 66,21  Z"/>

<path  fill="#BAFF00" stroke-width="0" stroke="#BAFF00" d = " M75 17 L74,18 C74,18 75,17 75,17  Z"/>

<path  fill="#0013FF" stroke-width="0" stroke="#0013FF" d = " M71 20 C78.0828,20 82.419,33 86,33 86,33 85,25 85,25 85,25 86,21.5 86,21.5 85.3831,20.2662 83,21.35 83,17 83,17 77,17 77,17 77,17 75,17 75,17 75,17 74,18 74,18 74,18 71,20 71,20  Z"/>

<path  fill="#7F007F" stroke-width="0" stroke="#7F007F" d = " M86 39 C87.9431,39 89.3748,37 90.5,37 L92.5,39 L110,40 C110,31.3802 100.162,19 91,19 91,19 90,18 90,18 90,18 88,18 88,18 88,18 87,17 87,17 87,17 85,17 85,17 85,17 83,17 83,17 83,21.35 85.3831,20.2662 86,21.5 86,21.5 85,25 85,25 85,25 86,33 86,33 86,33 86,39 86,39  Z"/>

<path  fill="#BAFF00" stroke-width="0" stroke="#BAFF00" d = " M87 17 L88,18 C88,18 87,17 87,17  Z"/>

<path  fill="#BAFF00" stroke-width="0" stroke="#BAFF00" d = " M90 18 L91,19 C91,19 90,18 90,18  Z"/>

<path  fill="#FF0092" stroke-width="0" stroke="#FF0092" d = " M68 34 C61.5179,34 55.8922,37 49,37 49,37 50,32 50,32 50,32 61.5,20 61.5,20 61.5,20 66,21 66,21 69.316,21 68,31.6128 68,34  Z"/>

<path  fill="#7FFF00" stroke-width="0" stroke="#7FFF00" d = " M69 34 C74.6077,34 79.9693,39 86,39 86,39 86,33 86,33 82.419,33 78.0828,20 71,20 71,20 69,22.5 69,22.5 69,22.5 69,34 69,34  Z"/>

<path  fill="#007F70" stroke-width="0" stroke="#007F70" d = " M31 26 L34.5,28 C38.5667,32.0667 31.0883,32 27,32 27,30.583 29.3826,26 31,26  Z"/>

<path  fill="#7F003A" stroke-width="0" stroke="#7F003A" d = " M30 59 C30,64.4746 45.5125,77.5062 50.5,80 L59.5,78 C60.2632,77.6184 66.8676,71.7647 67,71.5 67.6191,70.2619 65.856,66 68,66 68,66 67,46 67,46 67,44.6792 66.3156,40 68,40 68,40 68,39 68,39 68,39 68,34 68,34 61.5179,34 55.8922,37 49,37 49,37 47,38 47,38 47,38 47,40 47,40 47,40 47,41 47,41 47,41 47,43 47,43 47,43 46,46 46,46 46,46 44,48 44,48 44,48 43,49 43,49 43,52.6159 38.1024,63.8012 32.5,61 32.5,61 30,59 30,59  Z"/>

<path  fill="#BAFF00" stroke-width="0" stroke="#BAFF00" d = " M103 63 C103,68.4601 95.3364,72.0818 91.5,74 L81.5,82 C75.4942,82 68,70.5396 68,66 69.7002,66 69,60.8633 69,59.5 69,53.5957 68,46.5253 68,40 68,40 68,39 68,39 69.6426,39 69,35.2345 69,34 74.6077,34 79.9693,39 86,39 86,39 88,41 88,41 88,41 89,42 89,42 89,42 89,43 89,43 89,44.0479 88.5271,46 90,46 90,53.0386 95.149,63 103,63  Z"/>

<path  fill="#007F70" stroke-width="0" stroke="#007F70" d = " M43 39 C38.0158,39 31.4703,47 25,47 25,47 25,39 25,39 27.5349,39 29.8942,37 34,37 35.9229,37 43,36.8444 43,39  Z"/>

<path  fill="#7F0000" stroke-width="0" stroke="#7F0000" d = " M109 49 L110,49 C110,45.5869 110,43.8036 110,40 110,40 92.5,39 92.5,39 92.5,39 90.5,37 90.5,37 89.3748,37 87.9431,39 86,39 86,39 88,41 88,41 88,35.3741 96.3836,43.4418 97.5,44 100.488,45.494 103.4,47.4502 106.5,49 107.591,49.5455 109,46.8486 109,49  Z"/>

<path  fill="#007F70" stroke-width="0" stroke="#007F70" d = " M45 40 L47,40 C47,40 47,38 47,38 47,38 45,40 45,40  Z"/>

<path  fill="#497F00" stroke-width="0" stroke="#497F00" d = " M26 53 L29,57 C34.204,57 36.8873,49 43,49 43,49 44,48 44,48 44,48 46,46 46,46 44.4226,46 44,44.2383 44,43 44,43 44,40 44,40 44,40 43,39 43,39 38.0158,39 31.4703,47 25,47 25,47 25,48 25,48 25,48 26,50 26,50 26,50 26,53 26,53  Z"/>

<path  fill="#00007F" stroke-width="0" stroke="#00007F" d = " M108 54 L105,60 C100.244,60 92.6217,45 91,45 91,45 91,44 91,44 91,40.8379 91.109,42 89,42 89,42 88,41 88,41 88,35.3741 96.3836,43.4418 97.5,44 100.488,45.494 103.4,47.4502 106.5,49 107.591,49.5455 109,46.8486 109,49 109,49 109,52 109,52 109,52 109,53 109,53 109,53 108,54 108,54  Z"/>

<path  fill="#007F70" stroke-width="0" stroke="#007F70" d = " M45 42 L44,43 C44,43 44,40 44,40 44,40 45,40 45,40 45,40 45,42 45,42  Z"/>

<path  fill="#497F00" stroke-width="0" stroke="#497F00" d = " M45 42 L46,42 C46,42 47,41 47,41 47,41 47,40 47,40 47,40 45,40 45,40 45,40 45,42 45,42  Z"/>

<path  fill="#7F7500" stroke-width="0" stroke="#7F7500" d = " M46 42 L47,43 C47,43 47,41 47,41 47,41 46,42 46,42  Z"/>

<path  fill="#7F0000" stroke-width="0" stroke="#7F0000" d = " M89 43 L91,44 C91,40.8379 91.109,42 89,42 89,42 89,43 89,43  Z"/>

<path  fill="#00FF57" stroke-width="0" stroke="#00FF57" d = " M47 43 L46,46 C44.4226,46 44,44.2383 44,43 44,43 45,42 45,42 45,42 46,42 46,42 46,42 47,43 47,43  Z"/>

<path  fill="#FF0088" stroke-width="0" stroke="#FF0088" d = " M91 45 L90,46 C88.5271,46 89,44.0479 89,43 89,43 91,44 91,44 91,44 91,45 91,45  Z"/>

<path  fill-rule="evenodd" fill="#007F7F" stroke-width="0" stroke="#007F7F" d = " M92 48 C92,51.7458 94.0912,48 92,48  M105 60 C105,61.2383 104.577,63 103,63 95.149,63 90,53.0386 90,46 90,46 91,45 91,45 92.6217,45 100.244,60 105,60  Z"/>

<path  fill="#7F003A" stroke-width="0" stroke="#7F003A" d = " M25 48 L26,50 C26,50 25,48 25,48  Z"/>

<path  fill="#7F7500" stroke-width="0" stroke="#7F7500" d = " M29 57 L30,59 C30,59 32.5,61 32.5,61 38.1024,63.8012 43,52.6159 43,49 36.8873,49 34.204,57 29,57  Z"/>

<path  fill="#7F7500" stroke-width="0" stroke="#7F7500" d = " M44 48 L43,49 C43,49 44,48 44,48  Z"/>

<path  fill="#00007F" stroke-width="0" stroke="#00007F" d = " M92 48 C92,51.7458 94.0912,48 92,48  Z"/>

<path  fill="#BAFF00" stroke-width="0" stroke="#BAFF00" d = " M110 49 C110,50.0479 110.473,52 109,52 109,52 109,49 109,49 109,49 110,49 110,49  Z"/>

<path  fill="#7F003A" stroke-width="0" stroke="#7F003A" d = " M26 53 L29,57 C29,57 26,53 26,53  Z"/>

<path  fill="#BAFF00" stroke-width="0" stroke="#BAFF00" d = " M109 53 L108,54 C108,54 109,53 109,53  Z"/>

</g>
</svg>
