<svg xmlns="http://www.w3.org/2000/svg" xmlns:xlink="http://www.w3.org/1999/xlink" height="102" width="136">
<g>
<rect width="136" height="102" fill="#000000"  stroke-width="0" /> 
<path  fill="#1DFF00" stroke-width="0" stroke="#1DFF00" d = " M49 24 C49,24.2361 38.1641,28 37,28 37,24.2138 32,20.8431 32,16 32,14.7664 46.4744,11 49,11 49,11 49,24 49,24  Z"/>

<path  fill="#FFE100" stroke-width="0" stroke="#FFE100" d = " M49 24 L54,24 C54,24 56,23 56,23 56,23 57,23 57,23 57,23 58,23 58,23 58,23 59,11 59,11 59,11 49,11 49,11 49,11 49,24 49,24  Z"/>

<path  fill="#7F000E" stroke-width="0" stroke="#7F000E" d = " M58 23 L60,24 C60,21.6858 65.8216,20 68,20 68,20 68,19 68,19 68,19 68,18 68,18 63.5125,18 63.6924,11 59,11 59,11 58,23 58,23  Z"/>

<path  fill="#00FFF5" stroke-width="0" stroke="#00FFF5" d = " M78 24 L86,25 C86,25 87,12 87,12 85.7514,12 77,9.37198 77,12 77,12 78,24 78,24  Z"/>

<path  fill="#047F00" stroke-width="0" stroke="#047F00" d = " M77 24 L78,24 C78,24 77,12 77,12 71.6896,12 71.6107,18 68,18 68,18 68,19 68,19 68,19 69,20 69,20 69,20 77,24 77,24  Z"/>

<path  fill="#FF00FF" stroke-width="0" stroke="#FF00FF" d = " M86 25 C90.5141,25 94.0007,29 98,29 99.4503,29 104.016,23.468 105,21.5 106.058,19.3839 103,18.6016 103,17 103,14.9012 89.353,12 87,12 87,12 86,25 86,25  Z"/>

<path  fill="#7F3000" stroke-width="0" stroke="#7F3000" d = " M31 32 L32,32 C32,32 33,31 33,31 33,31 37,28 37,28 37,24.2138 32,20.8431 32,16 30.478,16 25,18.5714 25,20 25,24.7893 31,26.9826 31,32  Z"/>

<path  fill="#007F3A" stroke-width="0" stroke="#007F3A" d = " M98 29 L102,32 C102,32 110,24 110,24 110,24 110,22 110,22 110,22 110,21 110,21 110,21 103,17 103,17 103,18.6016 106.058,19.3839 105,21.5 104.016,23.468 99.4503,29 98,29  Z"/>

<path  fill="#FF001D" stroke-width="0" stroke="#FF001D" d = " M30 33 L31,33 C31,33 31,32 31,32 31,26.9826 25,24.7893 25,20 25,20 22,23 22,23 22,26.0112 27.063,33 30,33  Z"/>

<path  fill="#7F004E" stroke-width="0" stroke="#7F004E" d = " M60 25 C62.707,25 65.9034,26 68,26 68,26 68,20 68,20 65.8216,20 60,21.6858 60,24 60,24 60,25 60,25  Z"/>

<path  fill="#447F00" stroke-width="0" stroke="#447F00" d = " M69 26 L74,27 C74,27 77,24 77,24 77,24 69,20 69,20 69,20 69,26 69,26  Z"/>

<path  fill="#7F7A00" stroke-width="0" stroke="#7F7A00" d = " M110 22 L112,23 C112,23 110,21 110,21 110,21 110,22 110,22  Z"/>

<path  fill="#09FF00" stroke-width="0" stroke="#09FF00" d = " M110 24 C110,29.7112 113,29.1734 113,24 113,24 112,23 112,23 112,23 110,22 110,22 110,22 110,24 110,24  Z"/>

<path  fill="#62007F" stroke-width="0" stroke="#62007F" d = " M30 33 L27,37 C27,37 20,33.5 20,33.5 19.0062,31.5123 26.7472,26 19,26 19,26 22,23 22,23 22,26.0112 27.063,33 30,33  Z"/>

<path  fill="#7F0013" stroke-width="0" stroke="#7F0013" d = " M54 24 L56,24 C56,24 56,23 56,23 56,23 54,24 54,24  Z"/>

<path  fill="#7F000E" stroke-width="0" stroke="#7F000E" d = " M57 23 L56,24 C56,24 56,23 56,23 56,23 57,23 57,23  Z"/>

<path  fill="#7F003A" stroke-width="0" stroke="#7F003A" d = " M13 81 L16.5,79 C30.8167,79 26,78.7887 26,92 31.5964,92 36.8574,90.3213 41.5,88 41.6838,87.9081 46.8392,83.8216 47,83.5 47,83.5 48.5,80 48.5,80 48.5,80 55.5,86 55.5,86 58.9773,87.7387 63.3556,88 66.5,88 66.5,88 66,84.5 66,84.5 66,82.6338 65.2155,72 67,72 67,72 67,52 67,52 67,50.6792 66.3156,46 68,46 68,42.1338 67.1895,41.879 66,39.5 66,39.5 68,36.5 68,36.5 68,36.5 68,30 68,30 65.6772,30 60,29.7903 60,25 60,25 60,24 60,24 60,24 58,23 58,23 58,23 57,23 57,23 57,23 56,24 56,24 56,24 54,24 54,24 54,24 49,24 49,24 49,24.2361 38.1641,28 37,28 37,28 33,31 33,31 33,31 32,32 32,32 32,32 31,33 31,33 31,33 30,33 30,33 30,33 27,37 27,37 27,37 25,41 25,41 25,41 23,45 23,45 23,48.6967 20,51.9402 20,56 20,56 19,59 19,59 19,59 19,65 19,65 19,65 20,66 20,66 20,72.8634 17.7673,76 11,76 11,76 13,81 13,81  Z"/>

<path  fill-rule="evenodd" fill="#BAFF00" stroke-width="0" stroke="#BAFF00" d = " M94 29 C94,30.93 95.93,29 94,29  M92 28 C92,29.93 93.93,28 92,28  M119 86 C116.773,86 110.231,76.0385 107,82.5 L107,85.5 L105,86.5 L110,93 C94.0149,93 97.4134,88.9567 85.5,83 85.5,83 76.5,88 76.5,88 65.3697,93.5652 67,79.1489 67,72 68.6844,72 68,67.3208 68,66 68,66 68,46 68,46 69.801,46 69,32.1581 69,30 70.7655,30 74,29.3926 74,27 74,27 77,24 77,24 77,24 78,24 78,24 78,24 86,25 86,25 90.5141,25 94.0007,29 98,29 98,29 102,32 102,32 102,32 107,37 107,37 107,37 109,41 109,41 109,41 111,45 111,45 111,45 111,46 111,46 111,46 112,47 112,47 112,50.119 114,53.2787 114,57 114,57 114,60 114,60 114,60 113,67 113,67 113,72.5691 117.082,78 122,78 122,78 119,86 119,86  Z"/>

<path  fill="#7F7A00" stroke-width="0" stroke="#7F7A00" d = " M102 32 L107,37 C107,37 119,31 119,31 119,29.237 114.988,24 113,24 113,29.1734 110,29.7112 110,24 110,24 102,32 102,32  Z"/>

<path  fill="#FF009C" stroke-width="0" stroke="#FF009C" d = " M68 26 L68,30 C65.6772,30 60,29.7903 60,25 62.707,25 65.9034,26 68,26  Z"/>

<path  fill="#C400FF" stroke-width="0" stroke="#C400FF" d = " M27 37 L25,41 C25,37.3384 15,39.4889 15,35.5 15,33.4735 22.4602,31 15,31 15,29.7527 17.4666,26 19,26 26.7472,26 19.0062,31.5123 20,33.5 20,33.5 27,37 27,37  Z"/>

<path  fill="#88FF00" stroke-width="0" stroke="#88FF00" d = " M74 27 C74,29.3926 70.7655,30 69,30 69,30 69,26 69,26 69,26 74,27 74,27  Z"/>

<path  fill="#FF0013" stroke-width="0" stroke="#FF0013" d = " M9 42 C11.1465,42 23,43.2122 23,45 23,45 25,41 25,41 25,37.3384 15,39.4889 15,35.5 15,33.4735 22.4602,31 15,31 12.8786,31 9,40.1619 9,42  Z"/>

<path  fill="#62007F" stroke-width="0" stroke="#62007F" d = " M33 31 L32,32 C32,32 33,31 33,31  Z"/>

<path  fill="#FFF500" stroke-width="0" stroke="#FFF500" d = " M107 37 L109,41 C109,39.0231 120.485,36 122,36 122,34.5918 120.803,31 119,31 119,31 107,37 107,37  Z"/>

<path  fill="#62007F" stroke-width="0" stroke="#62007F" d = " M32 32 L31,33 C31,33 31,32 31,32 31,32 32,32 32,32  Z"/>

<path  fill="#00FF00" stroke-width="0" stroke="#00FF00" d = " M125 43 C120.771,43 115.603,45 111,45 111,45 109,41 109,41 109,39.0231 120.485,36 122,36 123.429,36 125,41.6549 125,43  Z"/>

<path  fill="#7F3500" stroke-width="0" stroke="#7F3500" d = " M20 56 C15.431,56 11.0765,57 7,57 7,51.4015 9,47.0196 9,42 11.1465,42 23,43.2122 23,45 23,48.6967 20,51.9402 20,56  Z"/>

<path  fill="#007F3F" stroke-width="0" stroke="#007F3F" d = " M114 57 L127,58 C127,52.6546 125,47.3867 125,43 120.771,43 115.603,45 111,45 111,45 111,46 111,46 111,46 112,47 112,47 112,50.119 114,53.2787 114,57  Z"/>

<path  fill="#00FF00" stroke-width="0" stroke="#00FF00" d = " M111 46 L112,47 C112,47 111,46 111,46  Z"/>

<path  fill="#7F0009" stroke-width="0" stroke="#7F0009" d = " M19 59 L8,60 C8,60 7,57 7,57 11.0765,57 15.431,56 20,56 20,56 19,59 19,59  Z"/>

<path  fill="#007F00" stroke-width="0" stroke="#007F00" d = " M114 60 L126,62 C126,62 127,58 127,58 127,58 114,57 114,57 114,57 114,60 114,60  Z"/>

<path  fill="#00FFE1" stroke-width="0" stroke="#00FFE1" d = " M11 66 L12,66 C12,66 19,65 19,65 19,65 19,59 19,59 19,59 8,60 8,60 8,60 9,64 9,64 9,64 11,66 11,66  Z"/>

<path  fill="#FF0000" stroke-width="0" stroke="#FF0000" d = " M123 68 L124,68 C124,68 125,67 125,67 125,67 126,62 126,62 126,62 114,60 114,60 114,60 113,67 113,67 113,67 114,67 114,67 114,67 122,68 122,68 122,68 123,68 123,68  Z"/>

<path  fill="#7F7000" stroke-width="0" stroke="#7F7000" d = " M10 66 L11,66 C11,66 9,64 9,64 9,64 9,65 9,65 9,65 10,66 10,66  Z"/>

<path  fill="#00FFE1" stroke-width="0" stroke="#00FFE1" d = " M9 65 L10,66 C10,66 9,65 9,65  Z"/>

<path  fill="#7F7000" stroke-width="0" stroke="#7F7000" d = " M20 66 C16.4548,66 15.3696,68 13,68 13,68 12,66 12,66 12,66 19,65 19,65 19,65 20,66 20,66  Z"/>

<path  fill="#003AFF" stroke-width="0" stroke="#003AFF" d = " M13 68 C13,69.9958 11,72.9853 11,76 17.7673,76 20,72.8634 20,66 16.4548,66 15.3696,68 13,68  Z"/>

<path  fill="#FF7F00" stroke-width="0" stroke="#FF7F00" d = " M121 69 C121,71.4088 122.277,70.0546 123,71.5 L122,78 C117.082,78 113,72.5691 113,67 113,67 114,67 114,67 114,67.6817 120.241,69 121,69  Z"/>

<path  fill="#007F7A" stroke-width="0" stroke="#007F7A" d = " M122 68 L121,69 C120.241,69 114,67.6817 114,67 114,67 122,68 122,68  Z"/>

<path  fill="#BAFF00" stroke-width="0" stroke="#BAFF00" d = " M125 67 L124,68 C124,68 125,67 125,67  Z"/>

<path  fill="#BAFF00" stroke-width="0" stroke="#BAFF00" d = " M123 68 L124,68 C124,69.1859 123,69.1859 123,68  Z"/>

<path  fill="#FF6B00" stroke-width="0" stroke="#FF6B00" d = " M13 81 L16.5,79 C30.8167,79 26,78.7887 26,92 20.0336,92 13,87.4692 13,81  Z"/>

<path  fill="#00FF7F" stroke-width="0" stroke="#00FF7F" d = " M119 86 C116.773,86 110.231,76.0385 107,82.5 L107,85.5 L105,86.5 L110,93 C113.288,93 119,89.8146 119,86  Z"/>

</g>
</svg>
