<svg xmlns="http://www.w3.org/2000/svg" xmlns:xlink="http://www.w3.org/1999/xlink" height="102" width="136">
<g>
<rect width="136" height="102" fill="#000000"  stroke-width="0" /> 
<path  fill="#7F003A" stroke-width="0" stroke="#7F003A" d = " M68 36 C68,28.4703 60.6366,22.4317 53.5,26 41.52,31.99 49.0832,52.6664 53,60.5 L60.5,65 C65.0605,67.2803 68,63.0679 68,59.5 68,58.3294 63.8135,59.8731 65,57.5 65.8492,55.8016 66.8487,58 67.5,58 L68,47 C68,45.2796 65.744,36 68,36  Z"/>

<path  fill="#BAFF00" stroke-width="0" stroke="#BAFF00" d = " M68 36 L69,48 C69,52.7701 69,59.0199 69,62.5 L71.5,64 C74.3345,65.4173 79.2147,63.0705 81,59.5 84.8078,51.8845 91.3136,31.4068 80.5,26 76.3009,23.9005 70.6235,27.253 69,30.5 68.3809,31.7381 70.144,36 68,36  Z"/>

</g>
</svg>
