<svg xmlns="http://www.w3.org/2000/svg" xmlns:xlink="http://www.w3.org/1999/xlink" height="102" width="136">
<g>
<rect width="136" height="102" fill="#000000"  stroke-width="0" /> 
<path  fill="#0E7F00" stroke-width="0" stroke="#0E7F00" d = " M50 32 C46.5796,32 43.8599,35 41,35 41,30.6158 40.1159,20.2683 41,18.5 41.6064,17.2872 43,20.1197 43,17 43,15.9733 54.4227,14 56,14 56,17.7835 53,20.1577 53,25 53,25 52,27 52,27 52,27 50,32 50,32  Z"/>

<path  fill="#9CFF00" stroke-width="0" stroke="#9CFF00" d = " M62 16 C58.0154,16 58.1054,25 53,25 53,20.1577 56,17.7835 56,14 56.9857,14 62,15.0874 62,16  Z"/>

<path  fill="#0013FF" stroke-width="0" stroke="#0013FF" d = " M73 17 C78.9047,17 78.5111,28 83,28 83,23.2368 81,19.2723 81,15 79.1009,15 73,14.5117 73,17  Z"/>

<path  fill="#7F007F" stroke-width="0" stroke="#7F007F" d = " M85 33 C88.4204,33 91.1401,36 94,36 94,33.7295 96.0636,32.3728 97,30.5 98.1396,28.2209 96,21.2111 96,19 91.6327,19 86.1608,15 81,15 81,19.2723 83,23.2368 83,28 85.4606,28 85,31.3782 85,33  Z"/>

<path  fill="#FF0092" stroke-width="0" stroke="#FF0092" d = " M50 32 C52.4126,32 53.5874,32 56,32 56,32 68,28 68,28 68,23.5021 67.4418,16 62,16 58.0154,16 58.1054,25 53,25 53,25 52,27 52,27 52,27 50,32 50,32  Z"/>

<path  fill="#00FFD7" stroke-width="0" stroke="#00FFD7" d = " M41 35 L37,37 C37,34.8793 29.7678,24 28,24 28,20.5702 40.222,17 43,17 43,20.1197 41.6064,17.2872 41,18.5 40.1159,20.2683 41,30.6158 41,35  Z"/>

<path  fill="#7FFF00" stroke-width="0" stroke="#7FFF00" d = " M80 32 L85,33 C85,31.3782 85.4606,28 83,28 78.5111,28 78.9047,17 73,17 68.1264,17 69,24.9812 69,28 72.6144,28 75.8991,32 80,32  Z"/>

<path  fill-rule="evenodd" fill="#FF0009" stroke-width="0" stroke="#FF0009" d = " M97 26 C97,27.93 98.93,26 97,26  M94 36 L97,38 C97,33.3208 108,30.9641 108,26 108,22.9283 98.3339,19 96,19 96,21.2111 98.1396,28.2209 97,30.5 96.0636,32.3728 94,33.7295 94,36  Z"/>

<path  fill="#004EFF" stroke-width="0" stroke="#004EFF" d = " M37 37 L35,39 C31.6663,39 30.9582,33 28,33 28,31.7527 25.5334,28 24,28 24,28 28,24 28,24 29.7678,24 37,34.8793 37,37  Z"/>

<path  fill="#9CFF00" stroke-width="0" stroke="#9CFF00" d = " M53 25 L52,27 C52,27 53,25 53,25  Z"/>

<path  fill="#7F007F" stroke-width="0" stroke="#7F007F" d = " M97 26 C97,27.93 98.93,26 97,26  Z"/>

<path  fill="#FF7500" stroke-width="0" stroke="#FF7500" d = " M101 40 L100,41 C100,41 97,38 97,38 97,33.3208 108,30.9641 108,26 110.004,26 113,31.3785 113,33 110.87,33 103,37.7234 103,39 103,39 101,40 101,40  Z"/>

<path  fill="#00FF57" stroke-width="0" stroke="#00FF57" d = " M22 30 C25.4539,30 25.8346,33 28,33 28,31.7527 25.5334,28 24,28 24,28 22,30 22,30  Z"/>

<path  fill="#7F0049" stroke-width="0" stroke="#7F0049" d = " M56 32 C56,37.8843 63.371,41 67,41 67,37.3715 68,32.2836 68,28 68,28 56,32 56,32  Z"/>

<path  fill="#3F7F00" stroke-width="0" stroke="#3F7F00" d = " M80 32 C80,36.268 72.986,42 69,42 69,42 69,28 69,28 72.6144,28 75.8991,32 80,32  Z"/>

<path  fill="#00277F" stroke-width="0" stroke="#00277F" d = " M35 39 L34,42 C28.328,42 23.9351,37 19,37 19,37 22,30 22,30 25.4539,30 25.8346,33 28,33 30.9582,33 31.6663,39 35,39  Z"/>

<path  fill="#7F003A" stroke-width="0" stroke="#7F003A" d = " M21 65 L23,66 C23,70.6452 32,66.9185 32,63 32,63 31,56 31,56 31,56 32,53 32,53 32,53 31,51 31,51 31,47.5796 34,44.8599 34,42 34,42 35,39 35,39 35,39 37,37 37,37 37,37 41,35 41,35 43.8599,35 46.5796,32 50,32 52.4126,32 53.5874,32 56,32 56,37.8843 63.371,41 67,41 67,49.9902 68,59.6477 68,68 65.5731,68 67.861,77.778 67,79.5 67,79.5 62.5,81 62.5,81 62.5,81 51.5,88 51.5,88 42.8826,92.3087 21,71.0908 21,65  Z"/>

<path  fill="#BAFF00" stroke-width="0" stroke="#BAFF00" d = " M68 68 L68,77.5 C70.3731,82.2462 84.3698,92.5651 91.5,89 94.5136,87.4932 97.1797,83.1601 99.5,82 102.514,80.4931 112,72.6796 112,69 109.469,69 104,68.7524 104,65 104,65 103,65 103,65 101.465,65 101.465,61 103,61 103,61 103,57 103,57 103,57 103,54 103,54 103,54 103,51 103,51 103,51 102,45 102,45 102,45 100,41 100,41 100,41 97,38 97,38 97,38 94,36 94,36 91.1401,36 88.4204,33 85,33 85,33 80,32 80,32 80,36.268 72.986,42 69,42 69,46.9187 68,53.4132 68,59 68,60.9229 69.4011,68 68,68  Z"/>

<path  fill="#FF0088" stroke-width="0" stroke="#FF0088" d = " M114 35 C110.331,35 107.453,39 103,39 103,37.7234 110.87,33 113,33 113,33 114,35 114,35  Z"/>

<path  fill="#7F3A00" stroke-width="0" stroke="#7F3A00" d = " M117 42 L102,45 C102,45 100,41 100,41 100,41 101,40 101,40 101,40 103,39 103,39 107.453,39 110.331,35 114,35 115.429,35 117,40.6549 117,42  Z"/>

<path  fill="#137F00" stroke-width="0" stroke="#137F00" d = " M31 51 C27.6877,51 21.1415,55 19.5,55 18.8698,55 18.8117,53 17,53 15.7802,53 15.4961,49.5077 16,48.5 17.1137,46.2725 19,39.2347 19,37 23.9351,37 28.328,42 34,42 34,44.8599 31,47.5796 31,51  Z"/>

<path  fill="#FF0088" stroke-width="0" stroke="#FF0088" d = " M103 39 L101,40 C101,40 103,39 103,39  Z"/>

<path  fill="#75007F" stroke-width="0" stroke="#75007F" d = " M117 56 L117,57 C117,57 114.5,53 114.5,53 110.31,50.9048 104.146,51 103,51 103,51 102,45 102,45 102,45 117,42 117,42 117,42 118,53 118,53 116.527,53 117,54.9521 117,56  Z"/>

<path  fill-rule="evenodd" fill="#FF007F" stroke-width="0" stroke="#FF007F" d = " M107 52 C107,53.93 108.93,52 107,52  M116 59 L117,59 C117,59 117,57 117,57 117,57 114.5,53 114.5,53 110.31,50.9048 104.146,51 103,51 103,51 103,54 103,54 107.953,54 111.749,59 116,59  Z"/>

<path  fill="#00FF61" stroke-width="0" stroke="#00FF61" d = " M17 56 L18,57 C22.4933,57 27.103,53 32,53 32,53 31,51 31,51 27.6877,51 21.1415,55 19.5,55 18.8698,55 18.8117,53 17,53 17,53 17,56 17,56  Z"/>

<path  fill="#75007F" stroke-width="0" stroke="#75007F" d = " M107 52 C107,53.93 108.93,52 107,52  Z"/>

<path  fill="#D700FF" stroke-width="0" stroke="#D700FF" d = " M18 58 L19,62 C19,62 31,56 31,56 31,56 32,53 32,53 27.103,53 22.4933,57 18,57 18,57 18,58 18,58  Z"/>

<path  fill="#BAFF00" stroke-width="0" stroke="#BAFF00" d = " M118 53 C116.527,53 117,54.9521 117,56 118.473,56 118,54.0479 118,53  Z"/>

<path  fill="#FFFF00" stroke-width="0" stroke="#FFFF00" d = " M115 63 L114,64 C114,61.0723 105.953,57 103,57 103,57 103,54 103,54 107.953,54 111.749,59 116,59 116,59 116,61 116,61 116,61 116,62 116,62 116,62 115,63 115,63  Z"/>

<path  fill="#137F00" stroke-width="0" stroke="#137F00" d = " M17 57 L18,57 C18,57 17,56 17,56 17,56 17,57 17,57  Z"/>

<path  fill="#497F00" stroke-width="0" stroke="#497F00" d = " M21 65 L23,66 C26.6473,66 28.6088,63 32,63 32,63 31,56 31,56 31,56 19,62 19,62 19,62 21,65 21,65  Z"/>

<path  fill="#00FF61" stroke-width="0" stroke="#00FF61" d = " M18 57 L18,58 C18,58 17,57 17,57 17,57 18,57 18,57  Z"/>

<path  fill="#00007F" stroke-width="0" stroke="#00007F" d = " M104 65 C106.7,65 108.762,68 112,68 112,68 114,64 114,64 114,61.0723 105.953,57 103,57 103,57 103,61 103,61 103,61 103,65 103,65 103,65 104,65 104,65  Z"/>

<path  fill="#BAFF00" stroke-width="0" stroke="#BAFF00" d = " M117 59 L116,61 C116,61 116,59 116,59 116,59 117,59 117,59  Z"/>

<path  fill="#007F7F" stroke-width="0" stroke="#007F7F" d = " M103 61 C101.465,61 101.465,65 103,65 103,65 103,61 103,61  Z"/>

<path  fill="#BAFF00" stroke-width="0" stroke="#BAFF00" d = " M116 62 L115,63 C115,63 116,62 116,62  Z"/>

<path  fill="#7F7500" stroke-width="0" stroke="#7F7500" d = " M32 63 C28.6088,63 26.6473,66 23,66 23,70.6452 32,66.9185 32,63  Z"/>

<path  fill="#007F7F" stroke-width="0" stroke="#007F7F" d = " M112 68 L112,69 C109.469,69 104,68.7524 104,65 106.7,65 108.762,68 112,68  Z"/>

</g>
</svg>
