<svg xmlns="http://www.w3.org/2000/svg" xmlns:xlink="http://www.w3.org/1999/xlink" height="102" width="136">
<g>
<rect width="136" height="102" fill="#000000"  stroke-width="0" /> 
<path  fill="#0E7F00" stroke-width="0" stroke="#0E7F00" d = " M52 31 L44,33 C44,29.174 44,25.2557 44,21 44,21 44,20 44,20 44,20 44,18 44,18 46.9826,18 47,19.3211 47,15 47,15 59,14 59,14 59,17.4726 56,18.753 56,25 56,25 55,26 55,26 52.6074,26 52,29.2345 52,31  Z"/>

<path  fill="#9CFF00" stroke-width="0" stroke="#9CFF00" d = " M64 17 C60.6095,17 61.1126,25 56,25 56,18.753 59,17.4726 59,14 60.0757,14 64,15.5232 64,17  Z"/>

<path  fill="#007F6B" stroke-width="0" stroke="#007F6B" d = " M43 16 L44,18 C46.9826,18 47,19.3211 47,15 47,15 43,16 43,16  Z"/>

<path  fill="#0013FF" stroke-width="0" stroke="#0013FF" d = " M72 17 C72,18.3271 79.1713,28 81,28 81,23.7093 78,19.6396 78,15 76.255,15 72,14.3018 72,17  Z"/>

<path  fill="#7F007F" stroke-width="0" stroke="#7F007F" d = " M83 32 L91,34 C91,28.3997 92,22.7271 92,17 87.8693,17 83.0399,15 78,15 78,19.6396 81,23.7093 81,28 83.109,28 83,30.5345 83,32  Z"/>

<path  fill="#00FFD7" stroke-width="0" stroke="#00FFD7" d = " M44 33 L37,35 C32.6681,35 31.3065,24 26,24 26,22.2264 40.5842,16 43,16 43,16 44,18 44,18 44,18 44,20 44,20 42.8141,20 42.8141,21 44,21 44,25.2557 44,29.174 44,33  Z"/>

<path  fill="#FF0092" stroke-width="0" stroke="#FF0092" d = " M52 31 L57,32 C57,29.6792 66.3298,29 68,29 68,25.3523 68.5592,17 64,17 60.6095,17 61.1126,25 56,25 56,25 55,26 55,26 52.6074,26 52,29.2345 52,31  Z"/>

<path  fill="#7FFF00" stroke-width="0" stroke="#7FFF00" d = " M79 32 C80.3746,32 81.6254,32 83,32 83,30.5345 83.109,28 81,28 79.1713,28 72,18.3271 72,17 67.8369,17 69,26.5875 69,30 73.2589,30 75.6184,32 79,32  Z"/>

<path  fill="#FF0009" stroke-width="0" stroke="#FF0009" d = " M91 34 L99,38 C99,36.6517 105.978,28.761 107.5,28 110.32,26.5901 110.81,30 113,30 113,25.0823 95.8155,17 92,17 92,22.7271 91,28.3997 91,34  Z"/>

<path  fill="#007F6B" stroke-width="0" stroke="#007F6B" d = " M44 20 C42.8141,20 42.8141,21 44,21 44,21 44,20 44,20  Z"/>

<path  fill="#004EFF" stroke-width="0" stroke="#004EFF" d = " M37 35 L33,39 C33,39 21,29 21,29 21,29 26,24 26,24 31.3065,24 32.6681,35 37,35  Z"/>

<path  fill="#9CFF00" stroke-width="0" stroke="#9CFF00" d = " M56 25 L55,26 C55,26 56,25 56,25  Z"/>

<path  fill="#FF7500" stroke-width="0" stroke="#FF7500" d = " M107 39 C104.991,39 104.009,41 102,41 102,41 99,38 99,38 99,36.6517 105.978,28.761 107.5,28 110.32,26.5901 110.81,30 113,30 113,30 115,33 115,33 115,33 107,39 107,39  Z"/>

<path  fill="#137F00" stroke-width="0" stroke="#137F00" d = " M15 46 L29,48 C29,48 33,39 33,39 33,39 21,29 21,29 21,34.4255 15,39.571 15,46  Z"/>

<path  fill="#7F0049" stroke-width="0" stroke="#7F0049" d = " M57 32 C57,37.0292 62.6676,39 67,39 67,36.3099 68,32.3255 68,29 66.3298,29 57,29.6792 57,32  Z"/>

<path  fill="#3F7F00" stroke-width="0" stroke="#3F7F00" d = " M79 32 C79,35.8633 72.2533,40 69,40 69,40 69,30 69,30 73.2589,30 75.6184,32 79,32  Z"/>

<path  fill="#7F003A" stroke-width="0" stroke="#7F003A" d = " M68 68 L68,69 C65.5376,69 67.8996,79.7008 67,81.5 67,81.5 62.5,82 62.5,82 57.7164,84.3918 53.1941,86.6529 48.5,89 40.2873,93.1063 18,74.5052 18,67 18,67 19,67 19,67 19,71.7195 28,69.2792 28,64 28,64 28,57 28,57 28,57 28,55 28,55 28,55 28,52 28,52 28,52 29,48 29,48 29,48 33,39 33,39 33,39 37,35 37,35 37,35 44,33 44,33 44,33 52,31 52,31 52,31 57,32 57,32 57,37.0292 62.6676,39 67,39 67,39 68,42 68,42 66.3345,42 67,46.2221 67,47.5 67,47.5 67,63 67,63 67,64.2345 66.3574,68 68,68  Z"/>

<path  fill="#BAFF00" stroke-width="0" stroke="#BAFF00" d = " M68 69 L68,81.5 C69.3498,84.1995 75.1817,84.8408 77.5,86 81.2573,87.8787 89.3788,92.5606 94.5,90 101.78,86.3598 113,79.1743 113,71.5 L115,70 C111.867,70 106,68.7378 106,65 106,65 106,58 106,58 106,58 106,56 106,56 106,56 106,53 106,53 106,53 105,49 105,49 105,49 102,41 102,41 102,41 99,38 99,38 99,38 91,34 91,34 91,34 83,32 83,32 81.6254,32 80.3746,32 79,32 79,35.8633 72.2533,40 69,40 69,40 68,42 68,42 68,42 68,68 68,68 68,68 68,69 68,69  Z"/>

<path  fill="#7F3A00" stroke-width="0" stroke="#7F3A00" d = " M116 35 C114.844,35 107,41.3401 107,39 107,39 115,33 115,33 115,33 116,35 116,35  Z"/>

<path  fill="#75007F" stroke-width="0" stroke="#75007F" d = " M105 49 C110.099,49 114.418,53 119,53 119,51.7655 118.357,48 120,48 120,48 117,37 117,37 117,37 116,36 116,36 116,36 116,35 116,35 114.844,35 107,41.3401 107,39 104.991,39 104.009,41 102,41 102,41 105,49 105,49  Z"/>

<path  fill="#7F3A00" stroke-width="0" stroke="#7F3A00" d = " M116 36 L117,37 C117,37 116,36 116,36  Z"/>

<path  fill="#A6FF00" stroke-width="0" stroke="#A6FF00" d = " M28 52 C22.6551,52 17.545,55 14,55 14,51.7778 15,48.7232 15,46 15,46 29,48 29,48 29,48 28,52 28,52  Z"/>

<path  fill="#BAFF00" stroke-width="0" stroke="#BAFF00" d = " M119 57 L119,60 C120.781,60 120,49.8245 120,48 118.357,48 119,51.7655 119,53 119,53 119,57 119,57  Z"/>

<path  fill="#0027FF" stroke-width="0" stroke="#0027FF" d = " M119 53 L119,57 C115.047,57 112.424,53 106,53 106,53 105,49 105,49 110.099,49 114.418,53 119,53  Z"/>

<path  fill="#00FF61" stroke-width="0" stroke="#00FF61" d = " M28 55 C22.5132,55 18.5558,58 15,58 15,58 14,55 14,55 17.545,55 22.6551,52 28,52 28,52 28,55 28,55  Z"/>

<path  fill="#FF007F" stroke-width="0" stroke="#FF007F" d = " M119 57 L119,60 C117.293,60 111.014,56 106,56 106,56 106,53 106,53 112.424,53 115.047,57 119,57  Z"/>

<path  fill="#D700FF" stroke-width="0" stroke="#D700FF" d = " M15 58 C15,59.0479 14.5271,61 16,61 20.027,61 23.6062,57 28,57 28,57 28,55 28,55 22.5132,55 18.5558,58 15,58  Z"/>

<path  fill="#FFFF00" stroke-width="0" stroke="#FFFF00" d = " M117 65 L118,65 C118,65 118,64 118,64 118,64 119,62 119,62 119,62 119,60 119,60 117.293,60 111.014,56 106,56 106,56 106,58 106,58 109.679,58 117,60.9951 117,65  Z"/>

<path  fill="#497F00" stroke-width="0" stroke="#497F00" d = " M18 67 L19,67 C19,67 28,64 28,64 28,64 28,57 28,57 23.6062,57 20.027,61 16,61 16,61 17,65 17,65 17,65 18,66 18,66 18,66 18,67 18,67  Z"/>

<path  fill="#00007F" stroke-width="0" stroke="#00007F" d = " M115 69 L116,69 C116,69 117,66 117,66 117,66 117,65 117,65 117,60.9951 109.679,58 106,58 106,58 106,65 106,65 109.47,65 112.007,69 115,69  Z"/>

<path  fill="#BAFF00" stroke-width="0" stroke="#BAFF00" d = " M119 62 L118,64 C118,64 119,62 119,62  Z"/>

<path  fill="#7F7500" stroke-width="0" stroke="#7F7500" d = " M28 64 L19,67 C19,71.7195 28,69.2792 28,64  Z"/>

<path  fill="#7F003A" stroke-width="0" stroke="#7F003A" d = " M17 65 L18,66 C18,66 17,65 17,65  Z"/>

<path  fill="#007F7F" stroke-width="0" stroke="#007F7F" d = " M115 69 L115,70 C111.867,70 106,68.7378 106,65 109.47,65 112.007,69 115,69  Z"/>

<path  fill="#BAFF00" stroke-width="0" stroke="#BAFF00" d = " M118 65 L117,66 C117,66 117,65 117,65 117,65 118,65 118,65  Z"/>

<path  fill="#BAFF00" stroke-width="0" stroke="#BAFF00" d = " M116 69 L115,70 C115,70 115,69 115,69 115,69 116,69 116,69  Z"/>

</g>
</svg>
