<?xml version="1.0" encoding="UTF-8"?>
<svg xmlns="http://www.w3.org/2000/svg" xmlns:xlink="http://www.w3.org/1999/xlink" width="430px" height="323px" viewBox="0 0 430 323" version="1.1">
<g id="surface1">
<rect x="0" y="0" width="430" height="323" style="fill:rgb(0%,0%,0%);fill-opacity:1;stroke:none;"/>
<path style=" stroke:none;fill-rule:nonzero;fill:rgb(49.803922%,0%,22.745098%);fill-opacity:1;" d="M 173.898438 50.667969 L 199.191406 53.832031 C 199.191406 46.640625 170.734375 40.878906 170.734375 47.5 C 170.734375 47.5 173.898438 50.667969 173.898438 50.667969 Z M 173.898438 50.667969 "/>
<path style=" stroke:none;fill-rule:evenodd;fill:rgb(5.490196%,49.803922%,0%);fill-opacity:1;" d="M 139.117188 101.332031 C 139.117188 107.445312 145.21875 101.332031 139.117188 101.332031 M 158.089844 110.832031 L 142.28125 114 C 142.28125 114 132.792969 99.75 132.792969 99.75 C 132.792969 95.941406 128.699219 63.332031 120.148438 63.332031 C 120.148438 53.148438 161.609375 47.5 170.734375 47.5 C 170.734375 47.5 173.898438 50.667969 173.898438 50.667969 C 173.898438 64.546875 164.410156 76.636719 164.410156 91.832031 C 164.410156 91.832031 161.25 95 161.25 95 C 161.25 95 158.089844 110.832031 158.089844 110.832031 Z M 158.089844 110.832031 "/>
<path style=" stroke:none;fill-rule:nonzero;fill:rgb(72.941178%,100%,0%);fill-opacity:1;" d="M 256.101562 53.832031 L 275.074219 53.832031 C 275.074219 48.164062 233.96875 43.699219 233.96875 53.832031 C 233.96875 53.832031 256.101562 53.832031 256.101562 53.832031 Z M 256.101562 53.832031 "/>
<path style=" stroke:none;fill-rule:nonzero;fill:rgb(61.176473%,100%,0%);fill-opacity:1;" d="M 202.351562 57 C 189.425781 57 177.585938 91.832031 164.410156 91.832031 C 164.410156 76.636719 173.898438 64.546875 173.898438 50.667969 C 173.898438 50.667969 199.191406 53.832031 199.191406 53.832031 C 199.191406 53.832031 202.351562 57 202.351562 57 Z M 202.351562 57 "/>
<path style=" stroke:none;fill-rule:nonzero;fill:rgb(0%,7.450981%,100%);fill-opacity:1;" d="M 230.808594 57 C 230.808594 61.8125 263.4375 98.167969 268.75 98.167969 C 268.75 82.929688 256.101562 67.308594 256.101562 53.832031 C 256.101562 53.832031 233.96875 53.832031 233.96875 53.832031 C 233.96875 53.832031 230.808594 57 230.808594 57 Z M 230.808594 57 "/>
<path style=" stroke:none;fill-rule:evenodd;fill:rgb(49.803922%,0%,49.803922%);fill-opacity:1;" d="M 300.367188 98.167969 C 300.367188 110.027344 306.980469 98.167969 300.367188 98.167969 M 303.53125 95 C 303.53125 101.113281 309.632812 95 303.53125 95 M 271.910156 114 L 284.558594 117.167969 C 294.03125 117.167969 321.429688 88.667969 338.308594 88.667969 C 338.308594 88.667969 335.148438 85.5 335.148438 85.5 C 326.09375 85.5 317.726562 95 311.433594 95 C 307.800781 95 316.253906 76 322.5 76 C 322.5 63.367188 284.554688 53.832031 275.074219 53.832031 C 275.074219 53.832031 256.101562 53.832031 256.101562 53.832031 C 256.101562 67.308594 268.75 82.929688 268.75 98.167969 C 268.75 98.167969 271.910156 114 271.910156 114 Z M 271.910156 114 "/>
<path style=" stroke:none;fill-rule:nonzero;fill:rgb(100%,0%,57.254905%);fill-opacity:1;" d="M 186.542969 110.832031 L 189.707031 110.832031 C 189.707031 102.953125 208.996094 104.5 215 104.5 C 215 91.949219 218.761719 57 202.351562 57 C 189.425781 57 177.585938 91.832031 164.410156 91.832031 C 164.410156 91.832031 161.25 95 161.25 95 C 161.25 95 158.089844 110.832031 158.089844 110.832031 C 158.089844 110.832031 180.21875 114 180.21875 114 C 180.21875 114 186.542969 110.832031 186.542969 110.832031 Z M 186.542969 110.832031 "/>
<path style=" stroke:none;fill-rule:nonzero;fill:rgb(49.803922%,100%,0%);fill-opacity:1;" d="M 271.910156 114 C 263.886719 114 259.414062 117.167969 249.78125 117.167969 C 249.78125 109.386719 226.277344 104.5 218.160156 104.5 C 218.160156 91.535156 213.367188 57 230.808594 57 C 230.808594 61.8125 263.4375 98.167969 268.75 98.167969 C 268.75 98.167969 271.910156 114 271.910156 114 Z M 271.910156 114 "/>
<path style=" stroke:none;fill-rule:nonzero;fill:rgb(0%,49.803922%,43.921569%);fill-opacity:1;" d="M 142.28125 114 L 132.792969 123.5 C 132.792969 123.5 82.207031 95 82.207031 95 C 82.207031 95 94.851562 79.167969 94.851562 79.167969 C 94.851562 85.59375 98.015625 79.351562 98.015625 76 C 105.5 76 110.765625 63.332031 120.148438 63.332031 C 128.699219 63.332031 132.792969 95.941406 132.792969 99.75 C 132.792969 99.75 142.28125 114 142.28125 114 Z M 142.28125 114 "/>
<path style=" stroke:none;fill-rule:nonzero;fill:rgb(5.490196%,49.803922%,0%);fill-opacity:1;" d="M 98.015625 76 L 94.851562 79.167969 C 94.851562 85.59375 98.015625 79.351562 98.015625 76 Z M 98.015625 76 "/>
<path style=" stroke:none;fill-rule:nonzero;fill:rgb(49.803922%,0%,0%);fill-opacity:1;" d="M 328.824219 79.167969 L 335.148438 85.5 C 326.09375 85.5 317.726562 95 311.433594 95 C 307.800781 95 316.253906 76 322.5 76 C 322.5 76 325.660156 76 325.660156 76 C 325.660156 76 328.824219 79.167969 328.824219 79.167969 Z M 328.824219 79.167969 "/>
<path style=" stroke:none;fill-rule:nonzero;fill:rgb(49.803922%,0%,49.803922%);fill-opacity:1;" d="M 325.660156 76 L 328.824219 79.167969 C 328.824219 79.167969 325.660156 76 325.660156 76 Z M 325.660156 76 "/>
<path style=" stroke:none;fill-rule:nonzero;fill:rgb(49.803922%,0%,0%);fill-opacity:1;" d="M 354.117188 136.167969 C 354.117188 140.347656 356.28125 155.167969 350.957031 155.167969 C 350.957031 155.167969 300.367188 136.167969 300.367188 136.167969 C 300.367188 136.167969 294.042969 129.832031 294.042969 129.832031 C 294.042969 129.832031 284.558594 117.167969 284.558594 117.167969 C 294.03125 117.167969 321.429688 88.667969 338.308594 88.667969 C 338.308594 88.667969 347.792969 104.5 347.792969 104.5 C 347.792969 104.5 297.207031 128.25 297.207031 128.25 C 297.207031 128.25 308.273438 133 308.273438 133 C 315.332031 136.535156 347.214844 136.167969 354.117188 136.167969 Z M 354.117188 136.167969 "/>
<path style=" stroke:none;fill-rule:nonzero;fill:rgb(61.176473%,100%,0%);fill-opacity:1;" d="M 164.410156 91.832031 L 161.25 95 C 161.25 95 164.410156 91.832031 164.410156 91.832031 Z M 164.410156 91.832031 "/>
<path style=" stroke:none;fill-rule:nonzero;fill:rgb(0%,100%,34.117648%);fill-opacity:1;" d="M 79.042969 148.832031 L 69.558594 152 C 69.558594 140.789062 70.40625 95 82.207031 95 C 82.207031 95 132.792969 123.5 132.792969 123.5 C 132.792969 123.5 132.792969 139.332031 132.792969 139.332031 C 110.835938 139.332031 99.9375 148.832031 79.042969 148.832031 Z M 79.042969 148.832031 "/>
<path style=" stroke:none;fill-rule:nonzero;fill:rgb(49.803922%,0%,0%);fill-opacity:1;" d="M 303.53125 95 C 303.53125 101.113281 309.632812 95 303.53125 95 Z M 303.53125 95 "/>
<path style=" stroke:none;fill-rule:nonzero;fill:rgb(49.803922%,0%,0%);fill-opacity:1;" d="M 300.367188 98.167969 C 300.367188 110.027344 306.980469 98.167969 300.367188 98.167969 Z M 300.367188 98.167969 "/>
<path style=" stroke:none;fill-rule:nonzero;fill:rgb(0%,49.803922%,43.921569%);fill-opacity:1;" d="M 139.117188 101.332031 C 139.117188 107.445312 145.21875 101.332031 139.117188 101.332031 Z M 139.117188 101.332031 "/>
<path style=" stroke:none;fill-rule:nonzero;fill:rgb(49.803922%,0%,28.627452%);fill-opacity:1;" d="M 215 107.667969 L 189.707031 110.832031 C 189.707031 102.953125 208.996094 104.5 215 104.5 C 215 104.5 215 107.667969 215 107.667969 Z M 215 107.667969 "/>
<path style=" stroke:none;fill-rule:nonzero;fill:rgb(24.705882%,49.803922%,0%);fill-opacity:1;" d="M 218.160156 107.667969 L 249.78125 117.167969 C 249.78125 109.386719 226.277344 104.5 218.160156 104.5 C 218.160156 104.5 218.160156 107.667969 218.160156 107.667969 Z M 218.160156 107.667969 "/>
<path style=" stroke:none;fill-rule:nonzero;fill:rgb(49.803922%,0%,49.803922%);fill-opacity:1;" d="M 354.117188 126.667969 L 354.117188 136.167969 C 347.214844 136.167969 315.332031 136.535156 308.273438 133 C 308.273438 133 297.207031 128.25 297.207031 128.25 C 297.207031 128.25 347.792969 104.5 347.792969 104.5 C 347.792969 104.5 347.792969 107.667969 347.792969 107.667969 C 347.792969 107.667969 350.957031 110.832031 350.957031 110.832031 C 350.957031 110.832031 350.957031 114 350.957031 114 C 350.957031 114 354.117188 120.332031 354.117188 120.332031 C 354.117188 120.332031 354.117188 126.667969 354.117188 126.667969 Z M 354.117188 126.667969 "/>
<path style=" stroke:none;fill-rule:nonzero;fill:rgb(49.803922%,0%,22.745098%);fill-opacity:1;" d="M 215 209 L 215 212.167969 C 207.851562 212.167969 214.0625 231.464844 211.839844 235.917969 C 210.507812 238.582031 167.625 266 162.832031 266 C 148.511719 266 79.042969 201.945312 79.042969 186.832031 C 79.042969 186.832031 91.691406 199.5 91.691406 199.5 C 91.691406 207.125 126.46875 202.261719 126.46875 191.582031 C 126.46875 179.191406 133.601562 183.628906 139.117188 172.582031 C 139.117188 172.582031 132.792969 158.332031 132.792969 158.332031 C 132.792969 158.332031 135.957031 152 135.957031 152 C 139.300781 152 145.53125 148.832031 139.117188 148.832031 C 139.117188 148.832031 135.957031 142.5 135.957031 142.5 C 135.957031 142.5 132.792969 139.332031 132.792969 139.332031 C 132.792969 139.332031 132.792969 123.5 132.792969 123.5 C 132.792969 123.5 142.28125 114 142.28125 114 C 142.28125 114 158.089844 110.832031 158.089844 110.832031 C 158.089844 110.832031 180.21875 114 180.21875 114 C 180.21875 114 186.542969 110.832031 186.542969 110.832031 C 186.542969 110.832031 189.707031 110.832031 189.707031 110.832031 C 189.707031 110.832031 215 107.667969 215 107.667969 C 215 107.667969 215 126.667969 215 126.667969 C 209.675781 126.667969 211.839844 141.484375 211.839844 145.667969 C 211.839844 145.667969 215 209 215 209 Z M 215 209 "/>
<path style=" stroke:none;fill-rule:nonzero;fill:rgb(72.941178%,100%,0%);fill-opacity:1;" d="M 335.148438 209 C 335.148438 220.238281 314.917969 232.589844 305.109375 237.5 L 267.167969 269.167969 C 239.964844 282.789062 215 230.621094 215 212.167969 C 215 212.167969 215 209 215 209 C 218.996094 209 219.964844 192.027344 218.160156 188.417969 C 210.359375 172.789062 215 145.0625 215 126.667969 C 220.324219 126.667969 218.160156 111.847656 218.160156 107.667969 C 218.160156 107.667969 249.78125 117.167969 249.78125 117.167969 C 259.414062 117.167969 263.886719 114 271.910156 114 C 271.910156 114 284.558594 117.167969 284.558594 117.167969 C 284.558594 117.167969 294.042969 129.832031 294.042969 129.832031 C 294.042969 129.832031 294.042969 142.5 294.042969 142.5 C 294.042969 142.5 290.882812 145.667969 290.882812 145.667969 C 290.882812 155.28125 294.042969 149.132812 294.042969 161.5 C 294.042969 161.5 284.558594 175.75 284.558594 175.75 C 284.558594 183.769531 321.859375 209 335.148438 209 Z M 335.148438 209 "/>
<path style=" stroke:none;fill-rule:nonzero;fill:rgb(100%,0%,53.333336%);fill-opacity:1;" d="M 347.792969 107.667969 L 350.957031 110.832031 C 350.957031 110.832031 347.792969 107.667969 347.792969 107.667969 Z M 347.792969 107.667969 "/>
<path style=" stroke:none;fill-rule:nonzero;fill:rgb(49.803922%,0%,28.627452%);fill-opacity:1;" d="M 186.542969 110.832031 L 180.21875 114 C 180.21875 114 186.542969 110.832031 186.542969 110.832031 Z M 186.542969 110.832031 "/>
<path style=" stroke:none;fill-rule:nonzero;fill:rgb(100%,0%,53.333336%);fill-opacity:1;" d="M 350.957031 114 L 354.117188 120.332031 C 354.117188 120.332031 350.957031 114 350.957031 114 Z M 350.957031 114 "/>
<path style=" stroke:none;fill-rule:nonzero;fill:rgb(100%,0%,53.333336%);fill-opacity:1;" d="M 350.957031 158.332031 L 354.117188 164.667969 C 359.296875 164.667969 359.296875 126.667969 354.117188 126.667969 C 354.117188 126.667969 354.117188 136.167969 354.117188 136.167969 C 354.117188 140.347656 356.28125 155.167969 350.957031 155.167969 C 350.957031 155.167969 350.957031 158.332031 350.957031 158.332031 Z M 350.957031 158.332031 "/>
<path style=" stroke:none;fill-rule:nonzero;fill:rgb(100%,0%,53.333336%);fill-opacity:1;" d="M 294.042969 142.5 L 300.367188 142.5 C 300.367188 142.5 300.367188 136.167969 300.367188 136.167969 C 300.367188 136.167969 294.042969 129.832031 294.042969 129.832031 C 294.042969 129.832031 294.042969 142.5 294.042969 142.5 Z M 294.042969 142.5 "/>
<path style=" stroke:none;fill-rule:nonzero;fill:rgb(0%,0%,49.803922%);fill-opacity:1;" d="M 347.792969 183.667969 C 347.792969 189.800781 342.882812 209 335.148438 209 C 335.148438 209 330.40625 199.5 330.40625 199.5 C 319.667969 194.121094 298.898438 161.5 294.042969 161.5 C 294.042969 149.132812 290.882812 155.28125 290.882812 145.667969 C 297.027344 145.667969 301.550781 152 305.109375 152 C 305.109375 152 300.367188 142.5 300.367188 142.5 C 300.367188 142.5 300.367188 136.167969 300.367188 136.167969 C 300.367188 136.167969 350.957031 155.167969 350.957031 155.167969 C 350.957031 155.167969 350.957031 158.332031 350.957031 158.332031 C 350.957031 161.628906 343.492188 174.167969 350.957031 174.167969 C 350.957031 174.167969 350.957031 177.332031 350.957031 177.332031 C 350.957031 177.332031 350.957031 180.5 350.957031 180.5 C 350.957031 180.5 347.792969 183.667969 347.792969 183.667969 Z M 347.792969 183.667969 "/>
<path style=" stroke:none;fill-rule:nonzero;fill:rgb(84.313726%,0%,100%);fill-opacity:1;" d="M 75.882812 180.5 L 79.042969 180.5 C 84.289062 180.5 81.679688 164.140625 86.949219 161.5 C 100.773438 154.574219 119.785156 142.5 135.957031 142.5 C 135.957031 142.5 132.792969 139.332031 132.792969 139.332031 C 110.835938 139.332031 99.9375 148.832031 79.042969 148.832031 C 79.042969 148.832031 75.882812 164.667969 75.882812 164.667969 C 75.882812 169.917969 83.414062 174.167969 72.71875 174.167969 C 72.71875 174.167969 75.882812 180.5 75.882812 180.5 Z M 75.882812 180.5 "/>
<path style=" stroke:none;fill-rule:nonzero;fill:rgb(28.627452%,49.803922%,0%);fill-opacity:1;" d="M 79.042969 186.832031 L 91.691406 199.5 C 91.691406 199.179688 111.609375 186.515625 113.824219 182.082031 C 113.824219 182.082031 132.792969 158.332031 132.792969 158.332031 C 132.792969 158.332031 135.957031 152 135.957031 152 C 135.957031 152 139.117188 148.832031 139.117188 148.832031 C 139.117188 148.832031 135.957031 142.5 135.957031 142.5 C 119.785156 142.5 100.773438 154.574219 86.949219 161.5 C 81.679688 164.140625 84.289062 180.5 79.042969 180.5 C 79.042969 180.5 79.042969 183.667969 79.042969 183.667969 C 79.042969 183.667969 79.042969 186.832031 79.042969 186.832031 Z M 79.042969 186.832031 "/>
<path style=" stroke:none;fill-rule:nonzero;fill:rgb(100%,100%,0%);fill-opacity:1;" d="M 300.367188 142.5 L 305.109375 152 C 301.550781 152 297.027344 145.667969 290.882812 145.667969 C 290.882812 145.667969 294.042969 142.5 294.042969 142.5 C 294.042969 142.5 300.367188 142.5 300.367188 142.5 Z M 300.367188 142.5 "/>
<path style=" stroke:none;fill-rule:nonzero;fill:rgb(0%,100%,38.039216%);fill-opacity:1;" d="M 69.558594 155.167969 L 75.882812 164.667969 C 75.882812 164.667969 79.042969 148.832031 79.042969 148.832031 C 79.042969 148.832031 69.558594 152 69.558594 152 C 69.558594 152 69.558594 155.167969 69.558594 155.167969 Z M 69.558594 155.167969 "/>
<path style=" stroke:none;fill-rule:nonzero;fill:rgb(49.803922%,45.882353%,0%);fill-opacity:1;" d="M 139.117188 148.832031 C 145.53125 148.832031 139.300781 152 135.957031 152 C 135.957031 152 139.117188 148.832031 139.117188 148.832031 Z M 139.117188 148.832031 "/>
<path style=" stroke:none;fill-rule:nonzero;fill:rgb(49.803922%,0%,22.745098%);fill-opacity:1;" d="M 75.882812 164.667969 C 75.882812 169.917969 83.414062 174.167969 72.71875 174.167969 C 72.71875 174.167969 69.558594 155.167969 69.558594 155.167969 C 69.558594 155.167969 75.882812 164.667969 75.882812 164.667969 Z M 75.882812 164.667969 "/>
<path style=" stroke:none;fill-rule:nonzero;fill:rgb(49.803922%,45.882353%,0%);fill-opacity:1;" d="M 132.792969 158.332031 L 113.824219 182.082031 C 111.609375 186.515625 91.691406 199.179688 91.691406 199.5 C 91.691406 207.125 126.46875 202.261719 126.46875 191.582031 C 126.46875 179.191406 133.601562 183.628906 139.117188 172.582031 C 139.117188 172.582031 132.792969 158.332031 132.792969 158.332031 Z M 132.792969 158.332031 "/>
<path style=" stroke:none;fill-rule:nonzero;fill:rgb(100%,100%,0%);fill-opacity:1;" d="M 350.957031 174.167969 L 354.117188 174.167969 C 354.117188 174.167969 354.117188 164.667969 354.117188 164.667969 C 354.117188 164.667969 350.957031 158.332031 350.957031 158.332031 C 350.957031 161.628906 343.492188 174.167969 350.957031 174.167969 Z M 350.957031 174.167969 "/>
<path style=" stroke:none;fill-rule:nonzero;fill:rgb(0%,49.803922%,49.803922%);fill-opacity:1;" d="M 294.042969 161.5 C 298.898438 161.5 319.667969 194.121094 330.40625 199.5 L 335.148438 209 C 321.859375 209 284.558594 183.769531 284.558594 175.75 C 284.558594 175.75 294.042969 161.5 294.042969 161.5 Z M 294.042969 161.5 "/>
<path style=" stroke:none;fill-rule:nonzero;fill:rgb(72.941178%,100%,0%);fill-opacity:1;" d="M 354.117188 174.167969 L 350.957031 177.332031 C 350.957031 177.332031 350.957031 174.167969 350.957031 174.167969 C 350.957031 174.167969 354.117188 174.167969 354.117188 174.167969 Z M 354.117188 174.167969 "/>
<path style=" stroke:none;fill-rule:nonzero;fill:rgb(49.803922%,0%,22.745098%);fill-opacity:1;" d="M 79.042969 180.5 L 79.042969 183.667969 C 79.042969 183.667969 75.882812 180.5 75.882812 180.5 C 75.882812 180.5 79.042969 180.5 79.042969 180.5 Z M 79.042969 180.5 "/>
<path style=" stroke:none;fill-rule:nonzero;fill:rgb(72.941178%,100%,0%);fill-opacity:1;" d="M 350.957031 180.5 L 347.792969 183.667969 C 347.792969 183.667969 350.957031 180.5 350.957031 180.5 Z M 350.957031 180.5 "/>
</g>
</svg>
