<?xml version="1.0" encoding="UTF-8"?>
<svg xmlns="http://www.w3.org/2000/svg" xmlns:xlink="http://www.w3.org/1999/xlink" width="430px" height="323px" viewBox="0 0 430 323" version="1.1">
<g id="surface1">
<rect x="0" y="0" width="430" height="323" style="fill:rgb(0%,0%,0%);fill-opacity:1;stroke:none;"/>
<path style=" stroke:none;fill-rule:nonzero;fill:rgb(49.803922%,0%,22.745098%);fill-opacity:1;" d="M 211.839844 262.832031 L 208.675781 228 C 208.675781 215.515625 213.601562 186.925781 200.773438 180.5 L 188.125 180.5 C 177.820312 185.660156 179.535156 199.050781 172.316406 202.667969 C 155.46875 211.101562 141.402344 218.671875 132.792969 235.917969 C 127.890625 245.738281 135.328125 268.058594 143.859375 272.332031 C 161.769531 281.300781 189.1875 281.300781 207.09375 272.332031 C 209.148438 271.304688 203.390625 262.832031 211.839844 262.832031 Z M 211.839844 262.832031 "/>
<path style=" stroke:none;fill-rule:nonzero;fill:rgb(72.941178%,100%,0%);fill-opacity:1;" d="M 211.839844 262.832031 C 211.839844 287.175781 306.25 288.863281 275.074219 226.417969 C 270.585938 217.429688 261.296875 215.558594 254.523438 212.167969 C 247.589844 208.695312 242.382812 193.167969 232.390625 193.167969 C 222.796875 193.167969 221.617188 262.832031 211.839844 262.832031 Z M 211.839844 262.832031 "/>
</g>
</svg>
