<?xml version="1.0" encoding="UTF-8"?>
<svg xmlns="http://www.w3.org/2000/svg" xmlns:xlink="http://www.w3.org/1999/xlink" width="430px" height="323px" viewBox="0 0 430 323" version="1.1">
<g id="surface1">
<rect x="0" y="0" width="430" height="323" style="fill:rgb(0%,0%,0%);fill-opacity:1;stroke:none;"/>
<path style=" stroke:none;fill-rule:nonzero;fill:rgb(49.803922%,0%,22.745098%);fill-opacity:1;" d="M 215 164.667969 C 209.675781 164.667969 211.839844 179.484375 211.839844 183.667969 L 211.839844 247 C 206.734375 247 208.675781 257.480469 208.675781 261.25 C 208.675781 261.25 207.09375 307.167969 207.09375 307.167969 C 189.253906 316.101562 159.960938 288.3125 147.023438 281.832031 C 123.242188 269.925781 118.113281 250.839844 107.5 229.582031 C 107.5 229.582031 82.207031 207.417969 82.207031 207.417969 C 82.207031 207.417969 72.71875 166.25 72.71875 166.25 C 71.679688 164.164062 63.878906 170.707031 60.074219 163.082031 C 57.179688 157.289062 70.191406 139.652344 72.71875 134.582031 C 83.472656 113.046875 103.308594 83.640625 124.890625 72.832031 C 127.011719 71.769531 155.375 76 165.992188 76 C 181.484375 76 215 52.9375 215 79.167969 C 215 79.167969 215 82.332031 215 82.332031 C 209.625 82.332031 211.839844 98.597656 211.839844 102.917969 C 211.839844 121.613281 215 144.003906 215 164.667969 Z M 215 164.667969 "/>
<path style=" stroke:none;fill-rule:evenodd;fill:rgb(72.941178%,100%,0%);fill-opacity:1;" d="M 215 164.667969 L 215 228 C 215 232.183594 217.164062 247 211.839844 247 C 211.839844 247 213.417969 307.167969 213.417969 307.167969 C 219.921875 310.421875 233.707031 306.507812 238.714844 304 C 257.640625 294.519531 289.925781 285.332031 300.367188 264.417969 C 306.019531 253.09375 317.535156 228.109375 330.40625 221.667969 C 346.628906 213.542969 337.902344 201.894531 344.632812 188.417969 C 344.632812 188.417969 352.535156 171 352.535156 171 C 352.535156 171 360.441406 169.417969 360.441406 169.417969 C 366.074219 158.132812 354.863281 148.742188 350.957031 140.917969 C 336.058594 111.074219 310.480469 96.105469 282.976562 82.332031 C 282.976562 82.332031 270.332031 82.332031 270.332031 82.332031 C 259.648438 76.984375 231.074219 66.5 219.742188 66.5 C 215.191406 66.5 221.824219 79.167969 215 79.167969 C 215 79.167969 215 82.332031 215 82.332031 C 215 82.332031 218.160156 145.667969 218.160156 145.667969 C 218.160156 149.847656 220.324219 164.667969 215 164.667969 M 328.824219 126.667969 C 316.136719 126.667969 314.417969 133 328.824219 133 C 329.101562 133 341.46875 140.082031 341.46875 134.582031 C 341.46875 132.34375 328.824219 117.089844 328.824219 126.667969 Z M 328.824219 126.667969 "/>
<path style=" stroke:none;fill-rule:nonzero;fill:rgb(0%,49.803922%,47.843137%);fill-opacity:1;" d="M 328.824219 126.667969 L 328.824219 133 C 329.101562 133 341.46875 140.082031 341.46875 134.582031 C 341.46875 132.34375 328.824219 117.089844 328.824219 126.667969 Z M 328.824219 126.667969 "/>
<path style=" stroke:none;fill-rule:nonzero;fill:rgb(1.568628%,49.803922%,0%);fill-opacity:1;" d="M 328.824219 126.667969 C 316.136719 126.667969 314.417969 133 328.824219 133 C 328.824219 133 328.824219 126.667969 328.824219 126.667969 Z M 328.824219 126.667969 "/>
</g>
</svg>
