<?xml version="1.0" encoding="UTF-8"?>
<svg xmlns="http://www.w3.org/2000/svg" xmlns:xlink="http://www.w3.org/1999/xlink" width="430px" height="323px" viewBox="0 0 430 323" version="1.1">
<g id="surface1">
<rect x="0" y="0" width="430" height="323" style="fill:rgb(0%,0%,0%);fill-opacity:1;stroke:none;"/>
<path style=" stroke:none;fill-rule:nonzero;fill:rgb(100%,34.117648%,0%);fill-opacity:1;" d="M 158.089844 82.332031 L 143.859375 76 L 129.632812 85.5 C 129.632812 75.917969 123.050781 50.667969 113.824219 50.667969 C 113.824219 43.699219 147.269531 41.042969 153.34375 38 C 156.332031 36.503906 164.410156 37.503906 164.410156 41.167969 C 152.074219 41.167969 158.089844 48.632812 158.089844 60.167969 C 158.089844 62.730469 134.265625 72.832031 151.765625 72.832031 C 151.765625 72.832031 158.089844 72.832031 158.089844 72.832031 C 158.089844 72.832031 158.089844 82.332031 158.089844 82.332031 Z M 158.089844 82.332031 "/>
<path style=" stroke:none;fill-rule:nonzero;fill:rgb(100%,0%,15.294118%);fill-opacity:1;" d="M 173.898438 53.832031 L 158.089844 60.167969 C 158.089844 48.632812 152.074219 41.167969 164.410156 41.167969 C 164.410156 41.167969 183.382812 41.167969 183.382812 41.167969 C 183.382812 41.167969 180.21875 50.667969 180.21875 50.667969 C 180.21875 50.667969 177.058594 50.667969 177.058594 50.667969 C 177.058594 50.667969 173.898438 53.832031 173.898438 53.832031 Z M 173.898438 53.832031 "/>
<path style=" stroke:none;fill-rule:nonzero;fill:rgb(49.803922%,0%,7.450981%);fill-opacity:1;" d="M 189.707031 47.5 L 180.21875 50.667969 C 180.21875 50.667969 183.382812 41.167969 183.382812 41.167969 C 183.382812 41.167969 189.707031 47.5 189.707031 47.5 Z M 189.707031 47.5 "/>
<path style=" stroke:none;fill-rule:nonzero;fill:rgb(0%,100%,41.960785%);fill-opacity:1;" d="M 278.234375 88.667969 L 281.398438 88.667969 C 281.398438 88.667969 284.558594 85.5 284.558594 85.5 C 284.558594 72.746094 303.492188 91.832031 303.53125 91.832031 C 303.53125 76.832031 316.175781 67.003906 316.175781 53.832031 C 316.175781 53.832031 292.464844 44.332031 292.464844 44.332031 C 280.695312 38.441406 260.722656 44.332031 249.78125 44.332031 C 249.78125 44.332031 249.78125 47.5 249.78125 47.5 C 273.644531 47.5 275.074219 47.589844 275.074219 66.5 C 279.160156 66.5 295.585938 74.4375 286.140625 79.167969 C 286.140625 79.167969 275.074219 80.75 275.074219 80.75 C 275.074219 80.75 278.234375 88.667969 278.234375 88.667969 Z M 278.234375 88.667969 "/>
<path style=" stroke:none;fill-rule:nonzero;fill:rgb(3.529412%,49.803922%,0%);fill-opacity:1;" d="M 240.292969 50.667969 L 256.101562 57 C 256.101562 57 249.78125 47.5 249.78125 47.5 C 249.78125 47.5 249.78125 44.332031 249.78125 44.332031 C 245.863281 44.332031 240.292969 45.671875 240.292969 50.667969 Z M 240.292969 50.667969 "/>
<path style=" stroke:none;fill-rule:nonzero;fill:rgb(49.803922%,0%,5.490196%);fill-opacity:1;" d="M 151.765625 72.832031 C 151.765625 69.578125 156.890625 68.273438 159.667969 69.667969 C 171.148438 75.414062 192.34375 79.167969 205.515625 79.167969 C 205.515625 79.167969 208.675781 69.667969 208.675781 69.667969 C 208.675781 69.667969 205.515625 63.332031 205.515625 63.332031 C 205.515625 63.332031 189.707031 47.5 189.707031 47.5 C 189.707031 47.5 180.21875 50.667969 180.21875 50.667969 C 180.21875 50.667969 177.058594 50.667969 177.058594 50.667969 C 177.058594 50.667969 173.898438 53.832031 173.898438 53.832031 C 173.898438 53.832031 158.089844 60.167969 158.089844 60.167969 C 158.089844 62.730469 134.265625 72.832031 151.765625 72.832031 Z M 151.765625 72.832031 "/>
<path style=" stroke:none;fill-rule:nonzero;fill:rgb(7.450981%,100%,0%);fill-opacity:1;" d="M 256.101562 57 L 275.074219 66.5 C 275.074219 47.589844 273.644531 47.5 249.78125 47.5 C 249.78125 47.5 256.101562 57 256.101562 57 Z M 256.101562 57 "/>
<path style=" stroke:none;fill-rule:nonzero;fill:rgb(49.803922%,41.960785%,0%);fill-opacity:1;" d="M 129.632812 85.5 C 117.382812 85.5 105.808594 110.832031 94.851562 110.832031 C 81.6875 110.832031 86.175781 79.167969 69.558594 79.167969 C 69.558594 68.128906 105.382812 50.667969 113.824219 50.667969 C 123.050781 50.667969 129.632812 75.917969 129.632812 85.5 Z M 129.632812 85.5 "/>
<path style=" stroke:none;fill-rule:nonzero;fill:rgb(49.803922%,0%,7.450981%);fill-opacity:1;" d="M 177.058594 50.667969 L 173.898438 53.832031 C 173.898438 53.832031 177.058594 50.667969 177.058594 50.667969 Z M 177.058594 50.667969 "/>
<path style=" stroke:none;fill-rule:nonzero;fill:rgb(1.568628%,49.803922%,0%);fill-opacity:1;" d="M 265.589844 88.667969 L 278.234375 88.667969 C 278.234375 88.667969 275.074219 80.75 275.074219 80.75 C 275.074219 80.75 286.140625 79.167969 286.140625 79.167969 C 295.585938 74.4375 279.160156 66.5 275.074219 66.5 C 275.074219 66.5 256.101562 57 256.101562 57 C 256.101562 57 240.292969 50.667969 240.292969 50.667969 C 240.292969 50.667969 221.324219 63.332031 221.324219 63.332031 C 221.324219 63.332031 221.324219 72.832031 221.324219 72.832031 C 221.324219 72.832031 221.324219 76 221.324219 76 C 221.324219 76 227.648438 79.167969 227.648438 79.167969 C 236.351562 79.167969 265.589844 74.734375 265.589844 88.667969 Z M 265.589844 88.667969 "/>
<path style=" stroke:none;fill-rule:nonzero;fill:rgb(0%,49.803922%,45.882353%);fill-opacity:1;" d="M 303.53125 91.832031 C 306.6875 91.832031 331.984375 111.375 331.984375 117.167969 C 350.59375 117.167969 354.582031 85.5 360.441406 85.5 C 360.441406 76.601562 323.429688 53.832031 316.175781 53.832031 C 316.175781 67.003906 303.53125 76.832031 303.53125 91.832031 Z M 303.53125 91.832031 "/>
<path style=" stroke:none;fill-rule:nonzero;fill:rgb(49.803922%,0%,22.745098%);fill-opacity:1;" d="M 205.515625 63.332031 C 214.144531 63.332031 208.675781 64.671875 208.675781 69.667969 C 208.675781 69.667969 205.515625 63.332031 205.515625 63.332031 Z M 205.515625 63.332031 "/>
<path style=" stroke:none;fill-rule:nonzero;fill:rgb(72.941178%,100%,0%);fill-opacity:1;" d="M 221.324219 63.332031 C 216.625 63.332031 216.625 72.832031 221.324219 72.832031 C 221.324219 72.832031 221.324219 63.332031 221.324219 63.332031 Z M 221.324219 63.332031 "/>
<path style=" stroke:none;fill-rule:nonzero;fill:rgb(100%,0%,61.176473%);fill-opacity:1;" d="M 161.25 82.332031 L 175.476562 88.667969 L 205.515625 85.5 C 205.515625 85.5 205.515625 79.167969 205.515625 79.167969 C 192.34375 79.167969 171.148438 75.414062 159.667969 69.667969 C 156.890625 68.273438 151.765625 69.578125 151.765625 72.832031 C 151.765625 72.832031 158.089844 72.832031 158.089844 72.832031 C 162.746094 72.832031 161.25 79.015625 161.25 82.332031 Z M 161.25 82.332031 "/>
<path style=" stroke:none;fill-rule:nonzero;fill:rgb(49.803922%,0%,5.490196%);fill-opacity:1;" d="M 158.089844 82.332031 L 161.25 82.332031 C 161.25 79.015625 162.746094 72.832031 158.089844 72.832031 C 158.089844 72.832031 158.089844 82.332031 158.089844 82.332031 Z M 158.089844 82.332031 "/>
<path style=" stroke:none;fill-rule:nonzero;fill:rgb(49.803922%,0%,22.745098%);fill-opacity:1;" d="M 98.015625 234.332031 L 102.757812 240.667969 L 110.660156 216.917969 C 115.269531 207.683594 131.128906 218.457031 137.535156 221.667969 C 151.902344 228.859375 157.277344 314.699219 203.933594 291.332031 C 211.871094 287.359375 208.675781 258.800781 208.675781 250.167969 C 208.675781 246.539062 206.84375 237.5 211.839844 237.5 C 211.839844 237.5 211.839844 174.167969 211.839844 174.167969 C 211.839844 169.984375 209.675781 155.167969 215 155.167969 C 215 139.394531 222.070312 85.5 205.515625 85.5 C 205.515625 85.5 175.476562 88.667969 175.476562 88.667969 C 175.476562 88.667969 161.25 82.332031 161.25 82.332031 C 161.25 82.332031 158.089844 82.332031 158.089844 82.332031 C 158.089844 82.332031 143.859375 76 143.859375 76 C 143.859375 76 129.632812 85.5 129.632812 85.5 C 117.382812 85.5 105.808594 110.832031 94.851562 110.832031 C 94.851562 110.832031 82.207031 126.667969 82.207031 126.667969 C 82.207031 135.347656 69.558594 135.375 69.558594 142.5 C 69.558594 142.5 63.234375 164.667969 63.234375 164.667969 C 63.234375 170.820312 69.558594 175.355469 69.558594 178.917969 C 69.558594 180.914062 63.234375 181.097656 63.234375 186.832031 C 71.011719 186.832031 56.433594 202.667969 72.71875 202.667969 C 76.46875 202.667969 76.46875 205.832031 72.71875 205.832031 C 72.71875 205.832031 69.558594 209 69.558594 209 C 69.558594 209 72.71875 209 72.71875 209 C 88.609375 209 92.402344 234.332031 98.015625 234.332031 Z M 98.015625 234.332031 "/>
<path style=" stroke:none;fill-rule:nonzero;fill:rgb(72.941178%,100%,0%);fill-opacity:1;" d="M 211.839844 237.5 L 211.839844 267.582031 C 211.839844 306.546875 257.347656 299.921875 271.910156 270.75 L 281.398438 229.582031 L 295.625 221.667969 L 305.109375 209 C 316.46875 209 314.6875 237.5 325.660156 237.5 C 325.660156 237.5 330.40625 240.667969 330.40625 240.667969 C 330.40625 240.667969 335.148438 223.25 335.148438 223.25 C 338.914062 215.707031 344.140625 221.121094 349.375 218.5 C 349.375 218.5 354.117188 209 354.117188 209 C 354.117188 209 360.441406 202.667969 360.441406 202.667969 C 370.214844 202.667969 353.828125 190 363.601562 190 C 363.601562 183.148438 363.601562 178.652344 363.601562 167.832031 C 363.601562 167.832031 357.28125 145.667969 357.28125 145.667969 C 357.28125 145.667969 344.632812 133 344.632812 133 C 344.632812 133 331.984375 117.167969 331.984375 117.167969 C 331.984375 111.375 306.6875 91.832031 303.53125 91.832031 C 303.492188 91.832031 284.558594 72.746094 284.558594 85.5 C 290.972656 85.5 284.742188 88.667969 281.398438 88.667969 C 281.398438 88.667969 278.234375 88.667969 278.234375 88.667969 C 278.234375 88.667969 265.589844 88.667969 265.589844 88.667969 C 265.589844 95.367188 227.648438 93.300781 227.648438 79.167969 C 227.648438 79.167969 221.324219 76 221.324219 76 C 221.324219 94.164062 218.160156 117.457031 218.160156 137.75 C 218.160156 141.796875 220.265625 155.167969 215 155.167969 C 215 155.167969 215 218.5 215 218.5 C 215 222.683594 217.164062 237.5 211.839844 237.5 Z M 211.839844 237.5 "/>
<path style=" stroke:none;fill-rule:nonzero;fill:rgb(49.803922%,16.862746%,0%);fill-opacity:1;" d="M 94.851562 110.832031 L 82.207031 126.667969 C 82.207031 112.511719 70.382812 113.238281 61.65625 104.5 C 61.65625 104.5 58.492188 95 58.492188 95 C 56.5 95 56.316406 101.332031 50.589844 101.332031 C 50.589844 96.265625 63.644531 79.167969 69.558594 79.167969 C 86.175781 79.167969 81.6875 110.832031 94.851562 110.832031 Z M 94.851562 110.832031 "/>
<path style=" stroke:none;fill-rule:nonzero;fill:rgb(53.333336%,100%,0%);fill-opacity:1;" d="M 227.648438 79.167969 C 236.351562 79.167969 265.589844 74.734375 265.589844 88.667969 C 265.589844 95.367188 227.648438 93.300781 227.648438 79.167969 Z M 227.648438 79.167969 "/>
<path style=" stroke:none;fill-rule:nonzero;fill:rgb(1.568628%,49.803922%,0%);fill-opacity:1;" d="M 284.558594 85.5 C 290.972656 85.5 284.742188 88.667969 281.398438 88.667969 C 281.398438 88.667969 284.558594 85.5 284.558594 85.5 Z M 284.558594 85.5 "/>
<path style=" stroke:none;fill-rule:nonzero;fill:rgb(0%,49.803922%,20.784314%);fill-opacity:1;" d="M 331.984375 117.167969 L 344.632812 133 C 344.632812 118.242188 366.171875 110.832031 379.410156 110.832031 C 379.410156 105.0625 367.679688 85.5 360.441406 85.5 C 354.582031 85.5 350.59375 117.167969 331.984375 117.167969 Z M 331.984375 117.167969 "/>
<path style=" stroke:none;fill-rule:nonzero;fill:rgb(32.549021%,49.803922%,0%);fill-opacity:1;" d="M 31.617188 142.5 C 46.363281 142.5 32.566406 136.484375 39.523438 133 L 47.425781 134.582031 C 47.425781 142.050781 57.757812 142.5 69.558594 142.5 C 69.558594 135.375 82.207031 135.347656 82.207031 126.667969 C 82.207031 112.511719 70.382812 113.238281 61.65625 104.5 C 61.65625 104.5 58.492188 95 58.492188 95 C 56.5 95 56.316406 101.332031 50.589844 101.332031 C 45.050781 101.332031 31.617188 136.453125 31.617188 142.5 Z M 31.617188 142.5 "/>
<path style=" stroke:none;fill-rule:nonzero;fill:rgb(0%,7.450981%,49.803922%);fill-opacity:1;" d="M 357.28125 145.667969 C 369.644531 145.667969 378.167969 145.667969 392.058594 145.667969 C 392.058594 138.597656 387.171875 110.832031 379.410156 110.832031 C 366.171875 110.832031 344.632812 118.242188 344.632812 133 C 344.632812 133 357.28125 145.667969 357.28125 145.667969 Z M 357.28125 145.667969 "/>
<path style=" stroke:none;fill-rule:nonzero;fill:rgb(0%,100%,88.235295%);fill-opacity:1;" d="M 63.234375 164.667969 L 37.941406 190 C 37.941406 180.933594 28.242188 194.324219 25.292969 188.417969 C 18.542969 174.894531 31.617188 154.855469 31.617188 142.5 C 46.363281 142.5 32.566406 136.484375 39.523438 133 C 39.523438 133 47.425781 134.582031 47.425781 134.582031 C 47.425781 142.050781 57.757812 142.5 69.558594 142.5 C 69.558594 142.5 63.234375 164.667969 63.234375 164.667969 Z M 63.234375 164.667969 "/>
<path style=" stroke:none;fill-rule:nonzero;fill:rgb(100%,0%,0%);fill-opacity:1;" d="M 395.21875 196.332031 L 398.382812 196.332031 C 402.039062 196.332031 403.035156 188.242188 401.542969 185.25 C 398.667969 179.488281 398.226562 145.667969 392.058594 145.667969 C 378.167969 145.667969 369.644531 145.667969 357.28125 145.667969 C 357.28125 145.667969 363.601562 167.832031 363.601562 167.832031 C 374.828125 167.832031 378.09375 193.167969 388.898438 193.167969 C 388.898438 193.167969 395.21875 196.332031 395.21875 196.332031 Z M 395.21875 196.332031 "/>
<path style=" stroke:none;fill-rule:nonzero;fill:rgb(0%,22.745098%,100%);fill-opacity:1;" d="M 37.941406 190 C 37.941406 193.292969 17.777344 224.832031 34.78125 224.832031 C 34.78125 224.832031 63.234375 186.832031 63.234375 186.832031 C 63.234375 181.097656 69.558594 180.914062 69.558594 178.917969 C 69.558594 175.355469 63.234375 170.820312 63.234375 164.667969 C 63.234375 164.667969 37.941406 190 37.941406 190 Z M 37.941406 190 "/>
<path style=" stroke:none;fill-rule:nonzero;fill:rgb(100%,49.803922%,0%);fill-opacity:1;" d="M 388.898438 193.167969 L 385.734375 204.25 C 389.910156 212.609375 402.832031 204.835938 392.058594 226.417969 L 388.898438 231.167969 C 388.898438 213.652344 363.601562 206.757812 363.601562 190 C 363.601562 183.148438 363.601562 178.652344 363.601562 167.832031 C 374.828125 167.832031 378.09375 193.167969 388.898438 193.167969 Z M 388.898438 193.167969 "/>
<path style=" stroke:none;fill-rule:nonzero;fill:rgb(41.960785%,0%,49.803922%);fill-opacity:1;" d="M 44.265625 237.5 L 47.425781 237.5 C 51.945312 237.5 60.074219 233.421875 60.074219 228 C 60.074219 228 63.234375 221.667969 63.234375 221.667969 C 63.234375 221.667969 66.398438 215.332031 66.398438 215.332031 C 66.398438 215.332031 69.558594 209 69.558594 209 C 69.558594 209 72.71875 205.832031 72.71875 205.832031 C 72.71875 205.832031 72.71875 202.667969 72.71875 202.667969 C 56.433594 202.667969 71.011719 186.832031 63.234375 186.832031 C 63.234375 186.832031 34.78125 224.832031 34.78125 224.832031 C 34.78125 224.832031 44.265625 237.5 44.265625 237.5 Z M 44.265625 237.5 "/>
<path style=" stroke:none;fill-rule:nonzero;fill:rgb(49.803922%,49.803922%,0%);fill-opacity:1;" d="M 373.089844 247 L 376.25 247 C 381.976562 247 388.898438 236.113281 388.898438 231.167969 C 388.898438 213.652344 363.601562 206.757812 363.601562 190 C 353.828125 190 370.214844 202.667969 360.441406 202.667969 C 360.441406 215.773438 369.925781 224.523438 369.925781 234.332031 C 369.925781 234.332031 373.089844 247 373.089844 247 Z M 373.089844 247 "/>
<path style=" stroke:none;fill-rule:nonzero;fill:rgb(0%,49.803922%,47.843137%);fill-opacity:1;" d="M 395.21875 196.332031 L 398.382812 196.332031 C 398.382812 200.089844 395.21875 200.089844 395.21875 196.332031 Z M 395.21875 196.332031 "/>
<path style=" stroke:none;fill-rule:nonzero;fill:rgb(0%,22.745098%,100%);fill-opacity:1;" d="M 72.71875 202.667969 C 76.46875 202.667969 76.46875 205.832031 72.71875 205.832031 C 72.71875 205.832031 72.71875 202.667969 72.71875 202.667969 Z M 72.71875 202.667969 "/>
<path style=" stroke:none;fill-rule:nonzero;fill:rgb(100%,49.803922%,0%);fill-opacity:1;" d="M 357.28125 221.667969 L 369.925781 234.332031 C 369.925781 224.523438 360.441406 215.773438 360.441406 202.667969 C 360.441406 202.667969 354.117188 209 354.117188 209 C 354.117188 209 357.28125 221.667969 357.28125 221.667969 Z M 357.28125 221.667969 "/>
<path style=" stroke:none;fill-rule:nonzero;fill:rgb(0%,22.745098%,100%);fill-opacity:1;" d="M 66.398438 215.332031 L 69.558594 215.332031 C 69.558594 215.332031 69.558594 209 69.558594 209 C 69.558594 209 66.398438 215.332031 66.398438 215.332031 Z M 66.398438 215.332031 "/>
<path style=" stroke:none;fill-rule:nonzero;fill:rgb(100%,0%,65.098041%);fill-opacity:1;" d="M 72.71875 209 L 69.558594 215.332031 C 69.558594 215.332031 69.558594 209 69.558594 209 C 69.558594 209 72.71875 209 72.71875 209 Z M 72.71875 209 "/>
<path style=" stroke:none;fill-rule:nonzero;fill:rgb(30.588236%,49.803922%,0%);fill-opacity:1;" d="M 69.558594 247 L 72.71875 250.167969 C 80.578125 250.167969 98.015625 243.230469 98.015625 234.332031 C 92.402344 234.332031 88.609375 209 72.71875 209 C 72.71875 209 69.558594 215.332031 69.558594 215.332031 C 69.558594 215.332031 66.398438 239.082031 66.398438 239.082031 C 67.445312 241.183594 76.929688 247 69.558594 247 Z M 69.558594 247 "/>
<path style=" stroke:none;fill-rule:nonzero;fill:rgb(0%,3.529412%,49.803922%);fill-opacity:1;" d="M 325.660156 237.5 C 325.660156 247.992188 345.640625 256.5 354.117188 256.5 C 354.117188 250.078125 357.882812 250.542969 360.441406 245.417969 C 360.441406 245.417969 357.28125 221.667969 357.28125 221.667969 C 357.28125 221.667969 354.117188 209 354.117188 209 C 354.117188 209 349.375 218.5 349.375 218.5 C 344.140625 221.121094 338.914062 215.707031 335.148438 223.25 C 335.148438 223.25 330.40625 240.667969 330.40625 240.667969 C 330.40625 240.667969 325.660156 237.5 325.660156 237.5 Z M 325.660156 237.5 "/>
<path style=" stroke:none;fill-rule:nonzero;fill:rgb(0%,22.745098%,100%);fill-opacity:1;" d="M 66.398438 215.332031 L 63.234375 221.667969 C 63.234375 221.667969 66.398438 215.332031 66.398438 215.332031 Z M 66.398438 215.332031 "/>
<path style=" stroke:none;fill-rule:nonzero;fill:rgb(100%,0%,65.098041%);fill-opacity:1;" d="M 47.425781 237.5 C 47.425781 240.304688 65.84375 247 69.558594 247 C 76.929688 247 67.445312 241.183594 66.398438 239.082031 C 66.398438 239.082031 69.558594 215.332031 69.558594 215.332031 C 69.558594 215.332031 66.398438 215.332031 66.398438 215.332031 C 66.398438 215.332031 63.234375 221.667969 63.234375 221.667969 C 63.234375 221.667969 60.074219 228 60.074219 228 C 60.074219 233.421875 51.945312 237.5 47.425781 237.5 Z M 47.425781 237.5 "/>
<path style=" stroke:none;fill-rule:nonzero;fill:rgb(0%,22.745098%,100%);fill-opacity:1;" d="M 63.234375 221.667969 L 60.074219 228 C 60.074219 228 63.234375 221.667969 63.234375 221.667969 Z M 63.234375 221.667969 "/>
<path style=" stroke:none;fill-rule:nonzero;fill:rgb(57.254905%,100%,0%);fill-opacity:1;" d="M 354.117188 256.5 L 357.28125 256.5 C 357.28125 251.835938 363.453125 253.332031 366.765625 253.332031 C 366.765625 253.332031 369.925781 250.167969 369.925781 250.167969 C 369.925781 250.167969 373.089844 247 373.089844 247 C 373.089844 247 369.925781 234.332031 369.925781 234.332031 C 369.925781 234.332031 357.28125 221.667969 357.28125 221.667969 C 357.28125 221.667969 360.441406 245.417969 360.441406 245.417969 C 357.882812 250.542969 354.117188 250.078125 354.117188 256.5 Z M 354.117188 256.5 "/>
<path style=" stroke:none;fill-rule:nonzero;fill:rgb(49.803922%,0%,22.745098%);fill-opacity:1;" d="M 69.558594 247 L 72.71875 250.167969 C 72.71875 257.53125 44.265625 254.769531 44.265625 237.5 C 44.265625 237.5 47.425781 237.5 47.425781 237.5 C 47.425781 240.304688 65.84375 247 69.558594 247 Z M 69.558594 247 "/>
<path style=" stroke:none;fill-rule:nonzero;fill:rgb(72.941178%,100%,0%);fill-opacity:1;" d="M 376.25 247 L 369.925781 250.167969 C 369.925781 250.167969 373.089844 247 373.089844 247 C 373.089844 247 376.25 247 376.25 247 Z M 376.25 247 "/>
<path style=" stroke:none;fill-rule:nonzero;fill:rgb(72.941178%,100%,0%);fill-opacity:1;" d="M 369.925781 250.167969 L 366.765625 253.332031 C 366.765625 253.332031 369.925781 250.167969 369.925781 250.167969 Z M 369.925781 250.167969 "/>
<path style=" stroke:none;fill-rule:nonzero;fill:rgb(72.941178%,100%,0%);fill-opacity:1;" d="M 366.765625 253.332031 C 363.453125 253.332031 357.28125 251.835938 357.28125 256.5 C 360.59375 256.5 366.765625 257.996094 366.765625 253.332031 Z M 366.765625 253.332031 "/>
</g>
</svg>
