<?xml version="1.0" encoding="UTF-8"?>
<svg xmlns="http://www.w3.org/2000/svg" xmlns:xlink="http://www.w3.org/1999/xlink" width="430px" height="323px" viewBox="0 0 430 323" version="1.1">
<g id="surface1">
<rect x="0" y="0" width="430" height="323" style="fill:rgb(0%,0%,0%);fill-opacity:1;stroke:none;"/>
<path style=" stroke:none;fill-rule:nonzero;fill:rgb(49.803922%,0%,22.745098%);fill-opacity:1;" d="M 215 177.332031 C 209.675781 177.332031 211.839844 192.152344 211.839844 196.332031 L 211.839844 259.667969 C 206.574219 259.667969 208.675781 273.035156 208.675781 277.082031 C 208.675781 292.671875 201.835938 307.699219 181.800781 297.667969 C 157.238281 285.367188 134.242188 286.316406 120.148438 258.082031 C 120.148438 258.082031 123.308594 220.082031 123.308594 220.082031 C 123.308594 220.082031 94.851562 188.417969 94.851562 188.417969 C 94.851562 152.144531 70.785156 160.625 94.851562 112.417969 C 98.730469 104.652344 151.09375 81.207031 159.667969 85.5 C 159.667969 85.5 165.992188 95 165.992188 95 C 165.992188 95 170.734375 80.75 170.734375 80.75 C 173.65625 77.824219 202.316406 68.007812 205.515625 74.417969 C 205.515625 74.417969 205.515625 87.082031 205.515625 87.082031 C 208.378906 92.820312 215 84.84375 215 95 C 209.675781 95 211.839844 109.816406 211.839844 114 C 211.839844 135.96875 215 156.847656 215 177.332031 Z M 215 177.332031 "/>
<path style=" stroke:none;fill-rule:nonzero;fill:rgb(72.941178%,100%,0%);fill-opacity:1;" d="M 215 177.332031 L 215 240.667969 C 215 244.847656 217.164062 259.667969 211.839844 259.667969 C 211.839844 259.667969 211.839844 296.082031 211.839844 296.082031 C 218.832031 310.089844 287.53125 280.632812 294.042969 267.582031 C 294.042969 267.582031 290.882812 223.25 290.882812 223.25 C 299.375 206.242188 322.894531 197.128906 331.984375 178.917969 C 352.546875 137.730469 305.4375 85.5 267.167969 85.5 C 267.167969 85.5 257.683594 95 257.683594 95 C 255.308594 95 258.28125 86.097656 256.101562 83.917969 C 256.101562 83.917969 222.90625 72.832031 222.90625 72.832031 C 217.574219 75.5 224.71875 95 215 95 C 215 114.933594 209.6875 146.109375 218.160156 163.082031 C 219.753906 166.273438 218.855469 177.332031 215 177.332031 Z M 215 177.332031 "/>
</g>
</svg>
