<?xml version="1.0" encoding="UTF-8"?>
<svg xmlns="http://www.w3.org/2000/svg" xmlns:xlink="http://www.w3.org/1999/xlink" width="430px" height="323px" viewBox="0 0 430 323" version="1.1">
<g id="surface1">
<rect x="0" y="0" width="430" height="323" style="fill:rgb(0%,0%,0%);fill-opacity:1;stroke:none;"/>
<path style=" stroke:none;fill-rule:nonzero;fill:rgb(100%,0%,15.294118%);fill-opacity:1;" d="M 173.898438 47.5 C 173.898438 49.625 169.699219 63.332031 167.574219 63.332031 C 163.425781 63.332031 154.925781 41.964844 154.925781 38 C 154.925781 32.796875 166.832031 34.832031 170.734375 34.832031 C 170.734375 38.460938 168.90625 47.5 173.898438 47.5 Z M 173.898438 47.5 "/>
<path style=" stroke:none;fill-rule:nonzero;fill:rgb(49.803922%,0%,7.450981%);fill-opacity:1;" d="M 180.21875 34.832031 L 173.898438 47.5 C 168.90625 47.5 170.734375 38.460938 170.734375 34.832031 C 170.734375 34.832031 180.21875 34.832031 180.21875 34.832031 Z M 180.21875 34.832031 "/>
<path style=" stroke:none;fill-rule:nonzero;fill:rgb(49.803922%,0%,5.490196%);fill-opacity:1;" d="M 164.410156 72.832031 L 192.867188 72.832031 C 192.867188 72.832031 196.03125 69.667969 196.03125 69.667969 C 196.03125 65.910156 199.191406 65.910156 199.191406 69.667969 C 199.191406 69.667969 202.351562 69.667969 202.351562 69.667969 C 202.351562 69.667969 208.675781 60.167969 208.675781 60.167969 C 208.675781 56.089844 196.03125 48.648438 196.03125 41.167969 C 196.03125 41.167969 192.867188 38 192.867188 38 C 192.867188 38 180.21875 34.832031 180.21875 34.832031 C 180.21875 34.832031 173.898438 47.5 173.898438 47.5 C 173.898438 49.625 169.699219 63.332031 167.574219 63.332031 C 167.574219 63.332031 164.410156 72.832031 164.410156 72.832031 Z M 164.410156 72.832031 "/>
<path style=" stroke:none;fill-rule:nonzero;fill:rgb(100%,34.117648%,0%);fill-opacity:1;" d="M 164.410156 76 C 154.882812 76 143.507812 79.167969 135.957031 79.167969 C 135.957031 68.003906 121.449219 47.5 113.824219 47.5 C 113.824219 40.167969 147.519531 38 154.925781 38 C 154.925781 41.964844 163.425781 63.332031 167.574219 63.332031 C 167.574219 63.332031 164.410156 72.832031 164.410156 72.832031 C 164.410156 72.832031 164.410156 76 164.410156 76 Z M 164.410156 76 "/>
<path style=" stroke:none;fill-rule:nonzero;fill:rgb(49.803922%,0%,22.745098%);fill-opacity:1;" d="M 192.867188 38 L 196.03125 41.167969 C 196.03125 41.167969 192.867188 38 192.867188 38 Z M 192.867188 38 "/>
<path style=" stroke:none;fill-rule:nonzero;fill:rgb(1.568628%,49.803922%,0%);fill-opacity:1;" d="M 233.96875 72.832031 C 243.386719 72.832031 254.488281 76 265.589844 76 C 265.589844 76 268.75 66.5 268.75 66.5 C 260.53125 66.5 259.265625 58.140625 259.265625 50.667969 C 259.265625 50.667969 249.78125 38 249.78125 38 C 236.046875 38 221.324219 54.140625 221.324219 66.5 C 221.324219 66.5 233.96875 72.832031 233.96875 72.832031 Z M 233.96875 72.832031 "/>
<path style=" stroke:none;fill-rule:nonzero;fill:rgb(3.529412%,49.803922%,0%);fill-opacity:1;" d="M 256.101562 38 L 259.265625 50.667969 C 259.265625 50.667969 249.78125 38 249.78125 38 C 249.78125 38 256.101562 38 256.101562 38 Z M 256.101562 38 "/>
<path style=" stroke:none;fill-rule:nonzero;fill:rgb(7.450981%,100%,0%);fill-opacity:1;" d="M 259.265625 50.667969 C 259.265625 58.140625 260.53125 66.5 268.75 66.5 C 268.75 66.5 275.074219 41.167969 275.074219 41.167969 C 275.074219 36.167969 266.046875 38 262.425781 38 C 262.425781 41.753906 259.265625 41.753906 259.265625 38 C 259.265625 38 256.101562 38 256.101562 38 C 256.101562 38 259.265625 50.667969 259.265625 50.667969 Z M 259.265625 50.667969 "/>
<path style=" stroke:none;fill-rule:nonzero;fill:rgb(3.529412%,49.803922%,0%);fill-opacity:1;" d="M 259.265625 38 L 262.425781 38 C 262.425781 41.753906 259.265625 41.753906 259.265625 38 Z M 259.265625 38 "/>
<path style=" stroke:none;fill-rule:nonzero;fill:rgb(0%,100%,41.960785%);fill-opacity:1;" d="M 265.589844 79.167969 C 275.777344 79.167969 285.433594 82.332031 294.042969 82.332031 C 294.042969 82.332031 306.691406 47.5 306.691406 47.5 C 296.828125 47.5 286.839844 41.167969 275.074219 41.167969 C 275.074219 41.167969 268.75 66.5 268.75 66.5 C 268.75 66.5 265.589844 76 265.589844 76 C 265.589844 76 265.589844 79.167969 265.589844 79.167969 Z M 265.589844 79.167969 "/>
<path style=" stroke:none;fill-rule:nonzero;fill:rgb(49.803922%,41.960785%,0%);fill-opacity:1;" d="M 135.957031 79.167969 L 91.691406 101.332031 C 91.691406 88.308594 75.882812 81.886719 75.882812 66.5 C 75.882812 58.914062 106.597656 47.5 113.824219 47.5 C 121.449219 47.5 135.957031 68.003906 135.957031 79.167969 Z M 135.957031 79.167969 "/>
<path style=" stroke:none;fill-rule:nonzero;fill:rgb(0%,49.803922%,45.882353%);fill-opacity:1;" d="M 338.308594 110.832031 L 341.46875 110.832031 C 341.46875 110.832031 354.117188 90.25 354.117188 90.25 C 357.535156 83.40625 350.957031 74.75 350.957031 69.667969 C 350.957031 69.667969 347.792969 66.5 347.792969 66.5 C 347.792969 70.253906 344.632812 70.253906 344.632812 66.5 C 344.632812 58.328125 313.578125 47.5 306.691406 47.5 C 306.691406 47.5 294.042969 82.332031 294.042969 82.332031 C 294.042969 90.363281 312.882812 89.390625 317.757812 91.832031 C 322.296875 94.109375 330.621094 110.832031 338.308594 110.832031 Z M 338.308594 110.832031 "/>
<path style=" stroke:none;fill-rule:nonzero;fill:rgb(49.803922%,0%,30.588236%);fill-opacity:1;" d="M 215 69.667969 L 215 72.832031 C 215 72.832031 202.351562 69.667969 202.351562 69.667969 C 202.351562 69.667969 208.675781 60.167969 208.675781 60.167969 C 208.675781 60.167969 215 60.167969 215 60.167969 C 215 60.167969 215 63.332031 215 63.332031 C 215 63.332031 215 66.5 215 66.5 C 215 66.5 215 69.667969 215 69.667969 Z M 215 69.667969 "/>
<path style=" stroke:none;fill-rule:nonzero;fill:rgb(49.803922%,0%,22.745098%);fill-opacity:1;" d="M 215 63.332031 L 218.160156 63.332031 C 218.160156 63.332031 215 60.167969 215 60.167969 C 215 60.167969 215 63.332031 215 63.332031 Z M 215 63.332031 "/>
<path style=" stroke:none;fill-rule:nonzero;fill:rgb(26.666668%,49.803922%,0%);fill-opacity:1;" d="M 221.324219 72.832031 L 233.96875 72.832031 C 233.96875 72.832031 221.324219 66.5 221.324219 66.5 C 221.324219 66.5 218.160156 63.332031 218.160156 63.332031 C 218.160156 63.332031 215 63.332031 215 63.332031 C 215 63.332031 215 66.5 215 66.5 C 215 66.5 221.324219 72.832031 221.324219 72.832031 Z M 221.324219 72.832031 "/>
<path style=" stroke:none;fill-rule:nonzero;fill:rgb(49.803922%,16.862746%,0%);fill-opacity:1;" d="M 91.691406 101.332031 L 88.53125 104.5 C 81.753906 104.5 74.5 95 67.976562 95 C 64.277344 95 69.15625 108.257812 61.65625 104.5 C 55.398438 101.367188 55.257812 95 47.425781 95 C 47.425781 87.589844 68.484375 66.5 75.882812 66.5 C 75.882812 81.886719 91.691406 88.308594 91.691406 101.332031 Z M 91.691406 101.332031 "/>
<path style=" stroke:none;fill-rule:nonzero;fill:rgb(49.803922%,0%,30.588236%);fill-opacity:1;" d="M 196.03125 69.667969 L 199.191406 69.667969 C 199.191406 65.910156 196.03125 65.910156 196.03125 69.667969 Z M 196.03125 69.667969 "/>
<path style=" stroke:none;fill-rule:nonzero;fill:rgb(0%,49.803922%,20.784314%);fill-opacity:1;" d="M 344.632812 66.5 L 347.792969 66.5 C 347.792969 70.253906 344.632812 70.253906 344.632812 66.5 Z M 344.632812 66.5 "/>
<path style=" stroke:none;fill-rule:nonzero;fill:rgb(49.803922%,0%,30.588236%);fill-opacity:1;" d="M 196.03125 69.667969 L 192.867188 72.832031 C 192.867188 72.832031 196.03125 69.667969 196.03125 69.667969 Z M 196.03125 69.667969 "/>
<path style=" stroke:none;fill-rule:nonzero;fill:rgb(100%,0%,61.176473%);fill-opacity:1;" d="M 164.410156 76 C 179.523438 76 178.871094 98.167969 205.515625 98.167969 C 205.515625 88.773438 215 85.957031 215 72.832031 C 215 72.832031 202.351562 69.667969 202.351562 69.667969 C 202.351562 69.667969 199.191406 69.667969 199.191406 69.667969 C 199.191406 69.667969 196.03125 69.667969 196.03125 69.667969 C 196.03125 69.667969 192.867188 72.832031 192.867188 72.832031 C 192.867188 72.832031 164.410156 72.832031 164.410156 72.832031 C 164.410156 72.832031 164.410156 76 164.410156 76 Z M 164.410156 76 "/>
<path style=" stroke:none;fill-rule:nonzero;fill:rgb(26.666668%,49.803922%,0%);fill-opacity:1;" d="M 215 72.832031 L 218.160156 72.832031 C 218.160156 72.832031 215 69.667969 215 69.667969 C 215 69.667969 215 72.832031 215 72.832031 Z M 215 72.832031 "/>
<path style=" stroke:none;fill-rule:nonzero;fill:rgb(0%,49.803922%,20.784314%);fill-opacity:1;" d="M 382.574219 104.5 C 374.566406 104.5 377.609375 95 374.667969 95 C 367.546875 95 353.179688 110.832031 341.46875 110.832031 C 341.46875 110.832031 354.117188 90.25 354.117188 90.25 C 357.535156 83.40625 350.957031 74.75 350.957031 69.667969 C 359.648438 69.667969 382.574219 96.285156 382.574219 104.5 Z M 382.574219 104.5 "/>
<path style=" stroke:none;fill-rule:nonzero;fill:rgb(53.333336%,100%,0%);fill-opacity:1;" d="M 265.589844 79.167969 C 252.800781 79.167969 259.105469 94.289062 251.359375 98.167969 C 240.210938 103.75 231.992188 98.167969 221.324219 98.167969 C 221.324219 91.527344 218.160156 81.40625 218.160156 72.832031 C 218.160156 72.832031 221.324219 72.832031 221.324219 72.832031 C 221.324219 72.832031 233.96875 72.832031 233.96875 72.832031 C 243.386719 72.832031 254.488281 76 265.589844 76 C 265.589844 76 265.589844 79.167969 265.589844 79.167969 Z M 265.589844 79.167969 "/>
<path style=" stroke:none;fill-rule:nonzero;fill:rgb(49.803922%,0%,22.745098%);fill-opacity:1;" d="M 211.839844 237.5 C 204.691406 237.5 210.898438 256.796875 208.675781 261.25 L 191.285156 266 C 171.34375 275.988281 144.976562 231.167969 134.375 231.167969 L 126.46875 240.667969 C 126.46875 220.15625 119.765625 228 94.851562 228 C 94.851562 228 82.207031 228 82.207031 228 C 82.207031 228 75.882812 228 75.882812 228 C 60.894531 228 56.910156 214.578125 56.910156 199.5 C 56.910156 199.5 53.75 186.832031 53.75 186.832031 C 53.75 186.832031 56.910156 161.5 56.910156 161.5 C 56.910156 161.5 56.910156 158.332031 56.910156 158.332031 C 56.910156 158.332031 60.074219 145.667969 60.074219 145.667969 C 63.273438 145.667969 75.882812 121.371094 75.882812 117.167969 C 75.882812 117.167969 88.53125 104.5 88.53125 104.5 C 88.53125 104.5 91.691406 101.332031 91.691406 101.332031 C 91.691406 101.332031 135.957031 79.167969 135.957031 79.167969 C 143.507812 79.167969 154.882812 76 164.410156 76 C 179.523438 76 178.871094 98.167969 205.515625 98.167969 C 205.515625 107.082031 212.480469 104.199219 215 109.25 C 215 109.25 215 155.167969 215 155.167969 C 209.675781 155.167969 211.839844 169.984375 211.839844 174.167969 C 211.839844 174.167969 211.839844 237.5 211.839844 237.5 Z M 211.839844 237.5 "/>
<path style=" stroke:none;fill-rule:nonzero;fill:rgb(72.941178%,100%,0%);fill-opacity:1;" d="M 347.792969 240.667969 L 350.957031 240.667969 C 363.355469 240.667969 369.925781 212.1875 369.925781 202.667969 C 369.925781 202.667969 369.925781 190 369.925781 190 C 369.925781 180.292969 369.925781 176.015625 369.925781 167.832031 C 369.925781 167.832031 369.925781 164.667969 369.925781 164.667969 C 364.933594 164.667969 366.765625 155.625 366.765625 152 C 366.765625 152 350.957031 123.5 350.957031 123.5 C 350.957031 123.5 341.46875 114 341.46875 114 C 341.46875 114 338.308594 110.832031 338.308594 110.832031 C 330.621094 110.832031 322.296875 94.109375 317.757812 91.832031 C 312.882812 89.390625 294.042969 90.363281 294.042969 82.332031 C 285.433594 82.332031 275.777344 79.167969 265.589844 79.167969 C 252.800781 79.167969 259.105469 94.289062 251.359375 98.167969 C 240.210938 103.75 231.992188 98.167969 221.324219 98.167969 C 221.324219 111.21875 218.160156 127.539062 218.160156 142.5 C 218.160156 146.125 219.992188 155.167969 215 155.167969 C 215 155.167969 215 218.5 215 218.5 C 215 222.683594 217.164062 237.5 211.839844 237.5 C 211.839844 237.5 211.839844 261.25 211.839844 261.25 C 218.863281 275.324219 262.347656 257.332031 270.332031 253.332031 C 270.332031 253.332031 289.300781 234.332031 289.300781 234.332031 C 289.300781 234.332031 297.207031 240.667969 297.207031 240.667969 C 297.207031 207.707031 319.171875 237.5 331.984375 237.5 C 331.984375 237.5 347.792969 240.667969 347.792969 240.667969 Z M 347.792969 240.667969 "/>
<path style=" stroke:none;fill-rule:nonzero;fill:rgb(100%,0%,7.450981%);fill-opacity:1;" d="M 88.53125 104.5 L 75.882812 117.167969 C 75.882812 102.5625 64.234375 117.167969 61.65625 117.167969 C 55.175781 117.167969 49.351562 104.5 41.101562 104.5 C 41.101562 100.578125 42.4375 95 47.425781 95 C 55.257812 95 55.398438 101.367188 61.65625 104.5 C 69.15625 108.257812 64.277344 95 67.976562 95 C 74.5 95 81.753906 104.5 88.53125 104.5 Z M 88.53125 104.5 "/>
<path style=" stroke:none;fill-rule:nonzero;fill:rgb(0%,100%,0%);fill-opacity:1;" d="M 388.898438 114 C 377.105469 114 350.957031 116.707031 350.957031 123.5 C 350.957031 123.5 341.46875 114 341.46875 114 C 341.46875 114 341.46875 110.832031 341.46875 110.832031 C 353.179688 110.832031 367.546875 95 374.667969 95 C 377.609375 95 374.566406 104.5 382.574219 104.5 C 387.558594 104.5 388.898438 110.078125 388.898438 114 Z M 388.898438 114 "/>
<path style=" stroke:none;fill-rule:nonzero;fill:rgb(49.803922%,20.784314%,0%);fill-opacity:1;" d="M 25.292969 139.332031 C 36.644531 139.332031 49.675781 145.667969 60.074219 145.667969 C 63.273438 145.667969 75.882812 121.371094 75.882812 117.167969 C 75.882812 102.5625 64.234375 117.167969 61.65625 117.167969 C 55.175781 117.167969 49.351562 104.5 41.101562 104.5 C 35.40625 104.5 25.292969 133.414062 25.292969 139.332031 Z M 25.292969 139.332031 "/>
<path style=" stroke:none;fill-rule:nonzero;fill:rgb(0%,49.803922%,20.784314%);fill-opacity:1;" d="M 341.46875 110.832031 L 341.46875 114 C 341.46875 114 338.308594 110.832031 338.308594 110.832031 C 338.308594 110.832031 341.46875 110.832031 341.46875 110.832031 Z M 341.46875 110.832031 "/>
<path style=" stroke:none;fill-rule:nonzero;fill:rgb(0%,49.803922%,24.705882%);fill-opacity:1;" d="M 401.542969 145.667969 C 390.097656 145.667969 380.144531 152 366.765625 152 C 366.765625 152 350.957031 123.5 350.957031 123.5 C 350.957031 116.707031 377.105469 114 388.898438 114 C 393.84375 114 401.542969 140.625 401.542969 145.667969 Z M 401.542969 145.667969 "/>
<path style=" stroke:none;fill-rule:nonzero;fill:rgb(49.803922%,0%,3.529412%);fill-opacity:1;" d="M 44.265625 161.5 L 47.425781 161.5 C 47.425781 156.835938 53.597656 158.332031 56.910156 158.332031 C 56.910156 158.332031 60.074219 145.667969 60.074219 145.667969 C 49.675781 145.667969 36.644531 139.332031 25.292969 139.332031 C 25.292969 139.332031 22.132812 158.332031 22.132812 158.332031 C 29.75 158.332031 38.511719 161.5 44.265625 161.5 Z M 44.265625 161.5 "/>
<path style=" stroke:none;fill-rule:nonzero;fill:rgb(0%,49.803922%,0%);fill-opacity:1;" d="M 369.925781 164.667969 C 383.941406 164.667969 390.691406 164.667969 404.707031 164.667969 C 404.707031 164.667969 401.542969 145.667969 401.542969 145.667969 C 390.097656 145.667969 380.144531 152 366.765625 152 C 366.765625 155.625 364.933594 164.667969 369.925781 164.667969 Z M 369.925781 164.667969 "/>
<path style=" stroke:none;fill-rule:nonzero;fill:rgb(32.549021%,49.803922%,0%);fill-opacity:1;" d="M 44.265625 161.5 C 44.265625 169.378906 24.976562 167.832031 18.96875 167.832031 C 18.96875 164.515625 17.476562 158.332031 22.132812 158.332031 C 29.75 158.332031 38.511719 161.5 44.265625 161.5 Z M 44.265625 161.5 "/>
<path style=" stroke:none;fill-rule:nonzero;fill:rgb(32.549021%,49.803922%,0%);fill-opacity:1;" d="M 47.425781 161.5 L 56.910156 161.5 C 56.910156 161.5 56.910156 158.332031 56.910156 158.332031 C 53.597656 158.332031 47.425781 156.835938 47.425781 161.5 Z M 47.425781 161.5 "/>
<path style=" stroke:none;fill-rule:nonzero;fill:rgb(0%,100%,88.235295%);fill-opacity:1;" d="M 28.457031 193.167969 L 34.78125 193.167969 C 34.78125 193.167969 37.941406 190 37.941406 190 C 37.941406 190 53.75 186.832031 53.75 186.832031 C 53.75 186.832031 56.910156 161.5 56.910156 161.5 C 56.910156 161.5 47.425781 161.5 47.425781 161.5 C 47.425781 161.5 44.265625 161.5 44.265625 161.5 C 44.265625 169.378906 24.976562 167.832031 18.96875 167.832031 C 18.96875 167.832031 22.132812 193.167969 22.132812 193.167969 C 22.132812 193.167969 28.457031 193.167969 28.457031 193.167969 Z M 28.457031 193.167969 "/>
<path style=" stroke:none;fill-rule:nonzero;fill:rgb(0%,7.450981%,49.803922%);fill-opacity:1;" d="M 369.925781 167.832031 C 381.109375 167.832031 391.550781 167.832031 399.964844 167.832031 L 404.707031 174.167969 C 404.707031 174.167969 404.707031 164.667969 404.707031 164.667969 C 390.691406 164.667969 383.941406 164.667969 369.925781 164.667969 C 369.925781 164.667969 369.925781 167.832031 369.925781 167.832031 Z M 369.925781 167.832031 "/>
<path style=" stroke:none;fill-rule:nonzero;fill:rgb(100%,0%,0%);fill-opacity:1;" d="M 392.058594 196.332031 C 392.058594 200.261719 398.382812 201.324219 398.382812 209 C 398.382812 211.769531 404.707031 181.078125 404.707031 174.167969 C 404.707031 174.167969 399.964844 167.832031 399.964844 167.832031 C 391.550781 167.832031 381.109375 167.832031 369.925781 167.832031 C 369.925781 176.015625 369.925781 180.292969 369.925781 190 C 369.925781 190 388.898438 193.167969 388.898438 193.167969 C 388.898438 193.167969 392.058594 196.332031 392.058594 196.332031 Z M 392.058594 196.332031 "/>
<path style=" stroke:none;fill-rule:nonzero;fill:rgb(0%,22.745098%,100%);fill-opacity:1;" d="M 56.910156 199.5 C 47.695312 199.5 42.207031 209 37.941406 209 C 37.941406 209 28.457031 199.5 28.457031 199.5 C 28.457031 199.5 28.457031 193.167969 28.457031 193.167969 C 28.457031 193.167969 34.78125 193.167969 34.78125 193.167969 C 34.78125 193.167969 37.941406 190 37.941406 190 C 37.941406 190 53.75 186.832031 53.75 186.832031 C 53.75 186.832031 56.910156 199.5 56.910156 199.5 Z M 56.910156 199.5 "/>
<path style=" stroke:none;fill-rule:nonzero;fill:rgb(49.803922%,43.921569%,0%);fill-opacity:1;" d="M 37.941406 190 L 34.78125 193.167969 C 34.78125 193.167969 37.941406 190 37.941406 190 Z M 37.941406 190 "/>
<path style=" stroke:none;fill-rule:nonzero;fill:rgb(100%,49.803922%,0%);fill-opacity:1;" d="M 398.382812 209 C 395.070312 209 388.898438 207.503906 388.898438 212.167969 C 388.898438 212.167969 369.925781 202.667969 369.925781 202.667969 C 369.925781 202.667969 369.925781 190 369.925781 190 C 369.925781 190 388.898438 193.167969 388.898438 193.167969 C 388.898438 193.167969 392.058594 196.332031 392.058594 196.332031 C 392.058594 200.261719 398.382812 201.324219 398.382812 209 Z M 398.382812 209 "/>
<path style=" stroke:none;fill-rule:nonzero;fill:rgb(49.803922%,43.921569%,0%);fill-opacity:1;" d="M 28.457031 199.5 L 25.292969 202.667969 C 25.292969 202.667969 22.132812 199.5 22.132812 199.5 C 22.132812 199.5 22.132812 193.167969 22.132812 193.167969 C 22.132812 193.167969 28.457031 193.167969 28.457031 193.167969 C 28.457031 193.167969 28.457031 199.5 28.457031 199.5 Z M 28.457031 199.5 "/>
<path style=" stroke:none;fill-rule:nonzero;fill:rgb(0%,49.803922%,47.843137%);fill-opacity:1;" d="M 388.898438 193.167969 L 392.058594 196.332031 C 392.058594 196.332031 388.898438 193.167969 388.898438 193.167969 Z M 388.898438 193.167969 "/>
<path style=" stroke:none;fill-rule:nonzero;fill:rgb(49.803922%,0%,22.745098%);fill-opacity:1;" d="M 22.132812 199.5 L 25.292969 202.667969 C 25.292969 202.667969 22.132812 199.5 22.132812 199.5 Z M 22.132812 199.5 "/>
<path style=" stroke:none;fill-rule:nonzero;fill:rgb(41.960785%,0%,49.803922%);fill-opacity:1;" d="M 63.234375 250.167969 C 63.234375 243.753906 56.910156 250.496094 56.910156 253.332031 C 38.195312 253.332031 31.617188 231.230469 31.617188 215.332031 C 31.617188 215.332031 37.941406 209 37.941406 209 C 42.207031 209 47.695312 199.5 56.910156 199.5 C 56.910156 214.578125 60.894531 228 75.882812 228 C 75.882812 228 75.882812 237.5 75.882812 237.5 C 75.882812 237.5 72.71875 243.832031 72.71875 243.832031 C 72.71875 243.832031 63.234375 250.167969 63.234375 250.167969 Z M 63.234375 250.167969 "/>
<path style=" stroke:none;fill-rule:nonzero;fill:rgb(49.803922%,49.803922%,0%);fill-opacity:1;" d="M 363.601562 266 L 373.089844 266 C 373.089844 263.164062 379.410156 256.417969 379.410156 262.832031 C 379.410156 262.832031 382.574219 262.832031 382.574219 262.832031 C 382.574219 262.832031 388.898438 259.667969 388.898438 259.667969 C 394.597656 259.667969 398.382812 248.292969 398.382812 243.832031 C 392.964844 243.832031 395.21875 226.117188 395.21875 221.667969 C 390.234375 221.667969 388.898438 216.089844 388.898438 212.167969 C 388.898438 212.167969 369.925781 202.667969 369.925781 202.667969 C 369.925781 212.1875 363.355469 240.667969 350.957031 240.667969 C 350.957031 240.667969 363.601562 262.832031 363.601562 262.832031 C 363.601562 262.832031 363.601562 266 363.601562 266 Z M 363.601562 266 "/>
<path style=" stroke:none;fill-rule:nonzero;fill:rgb(0%,22.745098%,100%);fill-opacity:1;" d="M 50.589844 259.667969 L 56.910156 259.667969 C 56.910156 259.667969 56.910156 253.332031 56.910156 253.332031 C 38.195312 253.332031 31.617188 231.230469 31.617188 215.332031 C 17.957031 215.332031 28.457031 236.949219 28.457031 243.832031 C 34.609375 243.832031 36.789062 253.332031 44.265625 253.332031 C 44.265625 253.332031 47.425781 256.5 47.425781 256.5 C 47.425781 256.5 50.589844 259.667969 50.589844 259.667969 Z M 50.589844 259.667969 "/>
<path style=" stroke:none;fill-rule:nonzero;fill:rgb(100%,49.803922%,0%);fill-opacity:1;" d="M 395.21875 221.667969 C 395.21875 226.117188 392.964844 243.832031 398.382812 243.832031 C 398.382812 243.832031 404.707031 232.75 404.707031 232.75 C 404.707031 230.382812 395.21875 213.449219 395.21875 221.667969 Z M 395.21875 221.667969 "/>
<path style=" stroke:none;fill-rule:nonzero;fill:rgb(0%,3.529412%,49.803922%);fill-opacity:1;" d="M 297.207031 240.667969 C 304.597656 240.667969 306.34375 256.5 316.175781 256.5 C 316.175781 242.519531 331.984375 246.574219 331.984375 237.5 C 319.171875 237.5 297.207031 207.707031 297.207031 240.667969 Z M 297.207031 240.667969 "/>
<path style=" stroke:none;fill-rule:nonzero;fill:rgb(100%,0%,65.098041%);fill-opacity:1;" d="M 82.207031 228 C 82.207031 231.921875 80.871094 237.5 75.882812 237.5 C 75.882812 237.5 75.882812 228 75.882812 228 C 75.882812 228 82.207031 228 82.207031 228 Z M 82.207031 228 "/>
<path style=" stroke:none;fill-rule:nonzero;fill:rgb(100%,41.960785%,0%);fill-opacity:1;" d="M 101.175781 259.667969 L 104.339844 259.667969 C 104.339844 245.804688 94.851562 238.292969 94.851562 228 C 94.851562 228 82.207031 228 82.207031 228 C 82.207031 231.921875 80.871094 237.5 75.882812 237.5 C 75.882812 237.5 72.71875 243.832031 72.71875 243.832031 C 72.71875 243.832031 72.71875 251.75 72.71875 251.75 C 77.917969 262.164062 63.234375 255.335938 63.234375 250.167969 C 63.234375 243.753906 56.910156 250.496094 56.910156 253.332031 C 56.910156 253.332031 56.910156 259.667969 56.910156 259.667969 C 56.910156 268.738281 94.222656 259.667969 98.015625 259.667969 C 98.015625 255.910156 101.175781 255.910156 101.175781 259.667969 Z M 101.175781 259.667969 "/>
<path style=" stroke:none;fill-rule:nonzero;fill:rgb(30.588236%,49.803922%,0%);fill-opacity:1;" d="M 123.308594 243.832031 C 123.308594 251.449219 111.667969 259.667969 104.339844 259.667969 C 104.339844 245.804688 94.851562 238.292969 94.851562 228 C 119.765625 228 126.46875 220.15625 126.46875 240.667969 C 126.46875 240.667969 123.308594 243.832031 123.308594 243.832031 Z M 123.308594 243.832031 "/>
<path style=" stroke:none;fill-rule:nonzero;fill:rgb(100%,0%,65.098041%);fill-opacity:1;" d="M 75.882812 237.5 L 72.71875 243.832031 C 72.71875 243.832031 75.882812 237.5 75.882812 237.5 Z M 75.882812 237.5 "/>
<path style=" stroke:none;fill-rule:evenodd;fill:rgb(0%,100%,49.803922%);fill-opacity:1;" d="M 325.660156 259.667969 C 325.660156 266.289062 337.503906 259.667969 325.660156 259.667969 M 363.601562 262.832031 L 363.601562 266 C 363.601562 270.695312 330.25 272.253906 324.082031 269.167969 C 317.035156 265.636719 319.789062 256.5 316.175781 256.5 C 316.175781 242.519531 331.984375 246.574219 331.984375 237.5 C 331.984375 237.5 347.792969 240.667969 347.792969 240.667969 C 347.792969 258.769531 347.773438 262.832031 363.601562 262.832031 Z M 363.601562 262.832031 "/>
<path style=" stroke:none;fill-rule:nonzero;fill:rgb(49.803922%,0%,22.745098%);fill-opacity:1;" d="M 126.46875 240.667969 L 123.308594 243.832031 C 123.308594 243.832031 126.46875 240.667969 126.46875 240.667969 Z M 126.46875 240.667969 "/>
<path style=" stroke:none;fill-rule:nonzero;fill:rgb(57.254905%,100%,0%);fill-opacity:1;" d="M 350.957031 240.667969 L 363.601562 262.832031 C 347.773438 262.832031 347.792969 258.769531 347.792969 240.667969 C 347.792969 240.667969 350.957031 240.667969 350.957031 240.667969 Z M 350.957031 240.667969 "/>
<path style=" stroke:none;fill-rule:nonzero;fill:rgb(49.803922%,0%,22.745098%);fill-opacity:1;" d="M 44.265625 253.332031 L 44.265625 256.5 C 39.328125 256.5 28.457031 249.570312 28.457031 243.832031 C 34.609375 243.832031 36.789062 253.332031 44.265625 253.332031 Z M 44.265625 253.332031 "/>
<path style=" stroke:none;fill-rule:nonzero;fill:rgb(100%,0%,65.098041%);fill-opacity:1;" d="M 72.71875 243.832031 L 63.234375 250.167969 C 63.234375 255.335938 77.917969 262.164062 72.71875 251.75 C 72.71875 251.75 72.71875 243.832031 72.71875 243.832031 Z M 72.71875 243.832031 "/>
<path style=" stroke:none;fill-rule:nonzero;fill:rgb(100%,41.960785%,0%);fill-opacity:1;" d="M 44.265625 256.5 L 47.425781 256.5 C 47.425781 256.5 44.265625 253.332031 44.265625 253.332031 C 44.265625 253.332031 44.265625 256.5 44.265625 256.5 Z M 44.265625 256.5 "/>
<path style=" stroke:none;fill-rule:nonzero;fill:rgb(49.803922%,0%,22.745098%);fill-opacity:1;" d="M 47.425781 256.5 L 50.589844 259.667969 C 50.589844 259.667969 47.425781 256.5 47.425781 256.5 Z M 47.425781 256.5 "/>
<path style=" stroke:none;fill-rule:nonzero;fill:rgb(30.588236%,49.803922%,0%);fill-opacity:1;" d="M 98.015625 259.667969 L 101.175781 259.667969 C 101.175781 255.910156 98.015625 255.910156 98.015625 259.667969 Z M 98.015625 259.667969 "/>
<path style=" stroke:none;fill-rule:nonzero;fill:rgb(0%,3.529412%,49.803922%);fill-opacity:1;" d="M 325.660156 259.667969 C 325.660156 266.289062 337.503906 259.667969 325.660156 259.667969 Z M 325.660156 259.667969 "/>
<path style=" stroke:none;fill-rule:nonzero;fill:rgb(72.941178%,100%,0%);fill-opacity:1;" d="M 373.089844 266 C 375.351562 266 382.574219 273.511719 382.574219 266 C 382.574219 266 379.410156 262.832031 379.410156 262.832031 C 379.410156 256.417969 373.089844 263.164062 373.089844 266 Z M 373.089844 266 "/>
<path style=" stroke:none;fill-rule:nonzero;fill:rgb(100%,49.803922%,0%);fill-opacity:1;" d="M 385.734375 262.832031 L 388.898438 262.832031 C 388.898438 262.832031 388.898438 259.667969 388.898438 259.667969 C 388.898438 259.667969 382.574219 262.832031 382.574219 262.832031 C 382.574219 262.832031 385.734375 262.832031 385.734375 262.832031 Z M 385.734375 262.832031 "/>
<path style=" stroke:none;fill-rule:nonzero;fill:rgb(100%,49.803922%,0%);fill-opacity:1;" d="M 382.574219 262.832031 L 382.574219 266 C 382.574219 266 379.410156 262.832031 379.410156 262.832031 C 379.410156 262.832031 382.574219 262.832031 382.574219 262.832031 Z M 382.574219 262.832031 "/>
<path style=" stroke:none;fill-rule:nonzero;fill:rgb(72.941178%,100%,0%);fill-opacity:1;" d="M 385.734375 262.832031 L 388.898438 262.832031 C 388.898438 266.589844 385.734375 266.589844 385.734375 262.832031 Z M 385.734375 262.832031 "/>
</g>
</svg>
