<?xml version="1.0" encoding="UTF-8"?>
<svg xmlns="http://www.w3.org/2000/svg" xmlns:xlink="http://www.w3.org/1999/xlink" width="430px" height="323px" viewBox="0 0 430 323" version="1.1">
<g id="surface1">
<rect x="0" y="0" width="430" height="323" style="fill:rgb(0%,0%,0%);fill-opacity:1;stroke:none;"/>
<path style=" stroke:none;fill-rule:nonzero;fill:rgb(5.490196%,49.803922%,0%);fill-opacity:1;" d="M 164.410156 98.167969 L 135.957031 104.5 C 125.308594 104.5 139.117188 91.179688 139.117188 90.25 C 139.117188 90.25 132.792969 77.582031 132.792969 77.582031 C 132.792969 77.582031 139.117188 74.417969 139.117188 74.417969 C 139.117188 74.417969 139.117188 50.667969 139.117188 50.667969 C 155.171875 50.667969 169.464844 44.332031 186.542969 44.332031 C 186.542969 68.089844 164.410156 59.535156 164.410156 95 C 164.410156 95 164.410156 98.167969 164.410156 98.167969 Z M 164.410156 98.167969 "/>
<path style=" stroke:none;fill-rule:nonzero;fill:rgb(61.176473%,100%,0%);fill-opacity:1;" d="M 205.515625 60.167969 C 188.59375 60.167969 182.761719 73.933594 172.316406 79.167969 L 164.410156 95 C 164.410156 59.535156 186.542969 68.089844 186.542969 44.332031 C 193.523438 44.332031 205.515625 52.257812 205.515625 60.167969 Z M 205.515625 60.167969 "/>
<path style=" stroke:none;fill-rule:nonzero;fill:rgb(0%,7.450981%,100%);fill-opacity:1;" d="M 224.484375 60.167969 C 244.757812 60.167969 260.214844 95 262.425781 95 C 262.425781 57.78125 243.457031 57.574219 243.457031 47.5 C 237.183594 47.5 224.484375 52.070312 224.484375 60.167969 Z M 224.484375 60.167969 "/>
<path style=" stroke:none;fill-rule:nonzero;fill:rgb(49.803922%,0%,49.803922%);fill-opacity:1;" d="M 265.589844 101.332031 C 265.589844 103.605469 292.949219 110.832031 297.207031 110.832031 C 297.207031 107.394531 303.039062 73.433594 300.367188 68.082031 C 297.242188 61.820312 290.882812 61.675781 290.882812 53.832031 C 275.652344 53.832031 260.757812 47.5 243.457031 47.5 C 243.457031 57.574219 262.425781 57.78125 262.425781 95 C 262.425781 95 265.589844 101.332031 265.589844 101.332031 Z M 265.589844 101.332031 "/>
<path style=" stroke:none;fill-rule:nonzero;fill:rgb(0%,100%,84.313726%);fill-opacity:1;" d="M 135.957031 104.5 L 116.984375 114 C 116.984375 111.75 80.820312 82.332031 79.042969 82.332031 C 79.042969 72.667969 129.941406 50.667969 139.117188 50.667969 C 139.117188 50.667969 139.117188 74.417969 139.117188 74.417969 C 139.117188 74.417969 132.792969 77.582031 132.792969 77.582031 C 132.792969 77.582031 139.117188 90.25 139.117188 90.25 C 139.117188 91.179688 125.308594 104.5 135.957031 104.5 Z M 135.957031 104.5 "/>
<path style=" stroke:none;fill-rule:nonzero;fill:rgb(100%,0%,3.529412%);fill-opacity:1;" d="M 297.207031 110.832031 L 309.851562 120.332031 C 309.851562 113.265625 335.722656 82.332031 344.632812 82.332031 C 344.632812 76.558594 297.988281 53.832031 290.882812 53.832031 C 290.882812 61.675781 297.242188 61.820312 300.367188 68.082031 C 303.039062 73.433594 297.207031 107.394531 297.207031 110.832031 Z M 297.207031 110.832031 "/>
<path style=" stroke:none;fill-rule:nonzero;fill:rgb(100%,0%,57.254905%);fill-opacity:1;" d="M 164.410156 98.167969 L 177.058594 101.332031 C 188.570312 101.332031 201.960938 88.667969 215 88.667969 C 215 78.941406 218.804688 60.167969 205.515625 60.167969 C 188.59375 60.167969 182.761719 73.933594 172.316406 79.167969 C 172.316406 79.167969 164.410156 95 164.410156 95 C 164.410156 95 164.410156 98.167969 164.410156 98.167969 Z M 164.410156 98.167969 "/>
<path style=" stroke:none;fill-rule:nonzero;fill:rgb(49.803922%,100%,0%);fill-opacity:1;" d="M 265.589844 101.332031 L 249.78125 104.5 C 238.960938 104.5 230.175781 91.832031 218.160156 91.832031 C 218.160156 85.089844 214.484375 60.167969 224.484375 60.167969 C 244.757812 60.167969 260.214844 95 262.425781 95 C 262.425781 95 265.589844 101.332031 265.589844 101.332031 Z M 265.589844 101.332031 "/>
<path style=" stroke:none;fill-rule:nonzero;fill:rgb(0%,30.588236%,100%);fill-opacity:1;" d="M 116.984375 114 L 107.5 126.667969 C 88.714844 126.667969 82.222656 98.167969 66.398438 98.167969 C 66.398438 94.21875 74.195312 82.332031 79.042969 82.332031 C 80.820312 82.332031 116.984375 111.75 116.984375 114 Z M 116.984375 114 "/>
<path style=" stroke:none;fill-rule:nonzero;fill:rgb(100%,45.882353%,0%);fill-opacity:1;" d="M 319.339844 126.667969 L 325.660156 126.667969 C 325.660156 114.054688 354.117188 109.273438 354.117188 95 C 354.117188 95 344.632812 82.332031 344.632812 82.332031 C 335.722656 82.332031 309.851562 113.265625 309.851562 120.332031 C 309.851562 120.332031 316.175781 126.667969 316.175781 126.667969 C 316.175781 126.667969 319.339844 126.667969 319.339844 126.667969 Z M 319.339844 126.667969 "/>
<path style=" stroke:none;fill-rule:nonzero;fill:rgb(49.803922%,0%,28.627452%);fill-opacity:1;" d="M 177.058594 101.332031 C 177.058594 114.265625 200.683594 129.832031 211.839844 129.832031 C 211.839844 118.34375 215 102.230469 215 88.667969 C 201.960938 88.667969 188.570312 101.332031 177.058594 101.332031 Z M 177.058594 101.332031 "/>
<path style=" stroke:none;fill-rule:nonzero;fill:rgb(24.705882%,49.803922%,0%);fill-opacity:1;" d="M 249.78125 104.5 C 249.78125 116.199219 228.171875 129.832031 218.160156 129.832031 C 218.160156 129.832031 218.160156 91.832031 218.160156 91.832031 C 230.175781 91.832031 238.960938 104.5 249.78125 104.5 Z M 249.78125 104.5 "/>
<path style=" stroke:none;fill-rule:nonzero;fill:rgb(100%,0%,53.333336%);fill-opacity:1;" d="M 363.601562 110.832031 L 325.660156 126.667969 C 325.660156 114.054688 354.117188 109.273438 354.117188 95 C 354.117188 95 363.601562 110.832031 363.601562 110.832031 Z M 363.601562 110.832031 "/>
<path style=" stroke:none;fill-rule:nonzero;fill:rgb(7.450981%,49.803922%,0%);fill-opacity:1;" d="M 94.851562 152 C 80.511719 152 71.28125 161.5 50.589844 161.5 C 50.589844 154.425781 57.410156 98.167969 66.398438 98.167969 C 82.222656 98.167969 88.714844 126.667969 107.5 126.667969 C 107.5 126.667969 94.851562 152 94.851562 152 Z M 94.851562 152 "/>
<path style=" stroke:none;fill-rule:nonzero;fill:rgb(49.803922%,0%,22.745098%);fill-opacity:1;" d="M 63.234375 212.167969 L 69.558594 212.167969 C 69.558594 223.609375 94.851562 217.4375 94.851562 202.667969 C 94.851562 202.667969 94.851562 180.5 94.851562 180.5 C 94.851562 180.5 94.851562 171 94.851562 171 C 94.851562 171 94.851562 161.5 94.851562 161.5 C 94.851562 161.5 94.851562 152 94.851562 152 C 94.851562 152 107.5 126.667969 107.5 126.667969 C 107.5 126.667969 116.984375 114 116.984375 114 C 116.984375 114 135.957031 104.5 135.957031 104.5 C 135.957031 104.5 164.410156 98.167969 164.410156 98.167969 C 164.410156 98.167969 177.058594 101.332031 177.058594 101.332031 C 177.058594 114.265625 200.683594 129.832031 211.839844 129.832031 C 211.839844 158.117188 215 189.152344 215 215.332031 C 207.214844 215.332031 214.683594 249.21875 211.839844 254.917969 C 211.839844 254.917969 197.609375 256.5 197.609375 256.5 C 183.015625 263.808594 170.878906 274.636719 156.507812 281.832031 C 141.410156 289.394531 82.28125 248.734375 75.882812 235.917969 C 72.964844 230.070312 72.332031 222.476562 69.558594 216.917969 C 69.558594 216.917969 63.234375 212.167969 63.234375 212.167969 Z M 63.234375 212.167969 "/>
<path style=" stroke:none;fill-rule:evenodd;fill:rgb(72.941178%,100%,0%);fill-opacity:1;" d="M 319.339844 142.5 C 319.339844 148.613281 325.441406 142.5 319.339844 142.5 M 313.015625 133 C 313.015625 139.113281 319.117188 133 313.015625 133 M 215 215.332031 L 215 245.417969 C 225.269531 265.988281 266.894531 294.636719 292.464844 281.832031 C 305.289062 275.410156 314.035156 259.945312 327.242188 253.332031 C 340.058594 246.914062 354.117188 238.203125 354.117188 221.667969 C 349.664062 221.667969 338.308594 217.878906 338.308594 212.167969 C 338.308594 212.167969 331.984375 209 331.984375 209 C 331.984375 209 328.824219 205.832031 328.824219 205.832031 C 328.824219 205.832031 328.824219 183.667969 328.824219 183.667969 C 328.824219 183.667969 328.824219 174.167969 328.824219 174.167969 C 328.824219 174.167969 331.984375 164.667969 331.984375 164.667969 C 329.289062 164.667969 325.660156 145.570312 325.660156 142.5 C 325.660156 142.5 319.339844 129.832031 319.339844 129.832031 C 319.339844 129.832031 316.175781 126.667969 316.175781 126.667969 C 316.175781 126.667969 309.851562 120.332031 309.851562 120.332031 C 309.851562 120.332031 297.207031 110.832031 297.207031 110.832031 C 292.949219 110.832031 265.589844 103.605469 265.589844 101.332031 C 265.589844 101.332031 249.78125 104.5 249.78125 104.5 C 249.78125 116.199219 228.171875 129.832031 218.160156 129.832031 C 218.160156 146.441406 215 168.101562 215 186.832031 C 215 193.191406 217.660156 215.332031 215 215.332031 Z M 215 215.332031 "/>
<path style=" stroke:none;fill-rule:nonzero;fill:rgb(49.803922%,22.745098%,0%);fill-opacity:1;" d="M 369.925781 129.832031 C 354.378906 129.832031 339.613281 142.5 325.660156 142.5 C 325.660156 142.5 319.339844 129.832031 319.339844 129.832031 C 319.339844 129.832031 319.339844 126.667969 319.339844 126.667969 C 319.339844 126.667969 325.660156 126.667969 325.660156 126.667969 C 325.660156 126.667969 363.601562 110.832031 363.601562 110.832031 C 363.601562 117.085938 369.925781 121.972656 369.925781 129.832031 Z M 369.925781 129.832031 "/>
<path style=" stroke:none;fill-rule:nonzero;fill:rgb(100%,0%,53.333336%);fill-opacity:1;" d="M 319.339844 126.667969 L 319.339844 129.832031 C 319.339844 129.832031 316.175781 126.667969 316.175781 126.667969 C 316.175781 126.667969 319.339844 126.667969 319.339844 126.667969 Z M 319.339844 126.667969 "/>
<path style=" stroke:none;fill-rule:nonzero;fill:rgb(45.882353%,0%,49.803922%);fill-opacity:1;" d="M 376.25 164.667969 C 371.59375 164.667969 373.089844 170.847656 373.089844 174.167969 C 358.042969 174.167969 347.613281 164.667969 331.984375 164.667969 C 329.289062 164.667969 325.660156 145.570312 325.660156 142.5 C 339.613281 142.5 354.378906 129.832031 369.925781 129.832031 C 374.167969 129.832031 376.25 159.21875 376.25 164.667969 Z M 376.25 164.667969 "/>
<path style=" stroke:none;fill-rule:nonzero;fill:rgb(65.098041%,100%,0%);fill-opacity:1;" d="M 94.851562 161.5 C 75.804688 161.5 55.777344 183.667969 50.589844 183.667969 C 50.589844 174.910156 50.589844 167.3125 50.589844 161.5 C 71.28125 161.5 80.511719 152 94.851562 152 C 94.851562 152 94.851562 161.5 94.851562 161.5 Z M 94.851562 161.5 "/>
<path style=" stroke:none;fill-rule:nonzero;fill:rgb(0%,100%,38.039216%);fill-opacity:1;" d="M 50.589844 183.667969 L 53.75 190 C 60.089844 190 80.707031 171 94.851562 171 C 94.851562 171 94.851562 161.5 94.851562 161.5 C 75.804688 161.5 55.777344 183.667969 50.589844 183.667969 Z M 50.589844 183.667969 "/>
<path style=" stroke:none;fill-rule:nonzero;fill:rgb(100%,0%,49.803922%);fill-opacity:1;" d="M 366.765625 199.5 L 369.925781 199.5 C 369.925781 199.5 373.089844 174.167969 373.089844 174.167969 C 358.042969 174.167969 347.613281 164.667969 331.984375 164.667969 C 331.984375 164.667969 328.824219 174.167969 328.824219 174.167969 C 340.640625 174.167969 366.765625 187.269531 366.765625 199.5 Z M 366.765625 199.5 "/>
<path style=" stroke:none;fill-rule:nonzero;fill:rgb(72.941178%,100%,0%);fill-opacity:1;" d="M 376.25 164.667969 C 371.59375 164.667969 373.089844 170.847656 373.089844 174.167969 C 377.746094 174.167969 376.25 167.984375 376.25 164.667969 Z M 376.25 164.667969 "/>
<path style=" stroke:none;fill-rule:nonzero;fill:rgb(84.313726%,0%,100%);fill-opacity:1;" d="M 56.910156 202.667969 L 60.074219 202.667969 C 60.074219 192.441406 83.605469 180.5 94.851562 180.5 C 94.851562 180.5 94.851562 171 94.851562 171 C 80.707031 171 60.089844 190 53.75 190 C 53.75 190 56.910156 202.667969 56.910156 202.667969 Z M 56.910156 202.667969 "/>
<path style=" stroke:none;fill-rule:nonzero;fill:rgb(100%,100%,0%);fill-opacity:1;" d="M 363.601562 205.832031 L 366.765625 205.832031 C 366.765625 205.832031 366.765625 202.667969 366.765625 202.667969 C 366.765625 202.667969 366.765625 199.5 366.765625 199.5 C 366.765625 187.269531 340.640625 174.167969 328.824219 174.167969 C 328.824219 174.167969 328.824219 183.667969 328.824219 183.667969 C 337.308594 183.667969 363.601562 197.578125 363.601562 205.832031 Z M 363.601562 205.832031 "/>
<path style=" stroke:none;fill-rule:nonzero;fill:rgb(28.627452%,49.803922%,0%);fill-opacity:1;" d="M 63.234375 212.167969 L 69.558594 212.167969 C 69.558594 212.167969 94.851562 202.667969 94.851562 202.667969 C 94.851562 202.667969 94.851562 180.5 94.851562 180.5 C 83.605469 180.5 60.074219 192.441406 60.074219 202.667969 C 60.074219 202.667969 60.074219 205.832031 60.074219 205.832031 C 60.074219 205.832031 63.234375 212.167969 63.234375 212.167969 Z M 63.234375 212.167969 "/>
<path style=" stroke:none;fill-rule:nonzero;fill:rgb(0%,0%,49.803922%);fill-opacity:1;" d="M 338.308594 212.167969 C 341.710938 212.167969 354.117188 216.988281 354.117188 221.667969 C 354.117188 221.667969 363.601562 209 363.601562 209 C 363.601562 209 363.601562 205.832031 363.601562 205.832031 C 363.601562 197.578125 337.308594 183.667969 328.824219 183.667969 C 328.824219 183.667969 328.824219 205.832031 328.824219 205.832031 C 328.824219 205.832031 331.984375 209 331.984375 209 C 331.984375 209 338.308594 212.167969 338.308594 212.167969 Z M 338.308594 212.167969 "/>
<path style=" stroke:none;fill-rule:nonzero;fill:rgb(72.941178%,100%,0%);fill-opacity:1;" d="M 369.925781 199.5 L 366.765625 202.667969 C 366.765625 202.667969 366.765625 199.5 366.765625 199.5 C 366.765625 199.5 369.925781 199.5 369.925781 199.5 Z M 369.925781 199.5 "/>
<path style=" stroke:none;fill-rule:nonzero;fill:rgb(49.803922%,0%,22.745098%);fill-opacity:1;" d="M 60.074219 202.667969 L 60.074219 205.832031 C 60.074219 205.832031 56.910156 202.667969 56.910156 202.667969 C 56.910156 202.667969 60.074219 202.667969 60.074219 202.667969 Z M 60.074219 202.667969 "/>
<path style=" stroke:none;fill-rule:nonzero;fill:rgb(49.803922%,45.882353%,0%);fill-opacity:1;" d="M 94.851562 202.667969 L 69.558594 212.167969 C 69.558594 223.609375 94.851562 217.4375 94.851562 202.667969 Z M 94.851562 202.667969 "/>
<path style=" stroke:none;fill-rule:nonzero;fill:rgb(0%,49.803922%,49.803922%);fill-opacity:1;" d="M 328.824219 205.832031 L 331.984375 209 C 331.984375 209 328.824219 205.832031 328.824219 205.832031 Z M 328.824219 205.832031 "/>
<path style=" stroke:none;fill-rule:nonzero;fill:rgb(72.941178%,100%,0%);fill-opacity:1;" d="M 366.765625 205.832031 L 363.601562 209 C 363.601562 209 363.601562 205.832031 363.601562 205.832031 C 363.601562 205.832031 366.765625 205.832031 366.765625 205.832031 Z M 366.765625 205.832031 "/>
<path style=" stroke:none;fill-rule:nonzero;fill:rgb(0%,49.803922%,49.803922%);fill-opacity:1;" d="M 338.308594 212.167969 C 341.710938 212.167969 354.117188 216.988281 354.117188 221.667969 C 349.664062 221.667969 338.308594 217.878906 338.308594 212.167969 Z M 338.308594 212.167969 "/>
</g>
</svg>
