<?xml version="1.0" encoding="UTF-8"?>
<svg xmlns="http://www.w3.org/2000/svg" xmlns:xlink="http://www.w3.org/1999/xlink" width="430px" height="323px" viewBox="0 0 430 323" version="1.1">
<g id="surface1">
<rect x="0" y="0" width="430" height="323" style="fill:rgb(0%,0%,0%);fill-opacity:1;stroke:none;"/>
<path style=" stroke:none;fill-rule:nonzero;fill:rgb(49.803922%,0%,22.745098%);fill-opacity:1;" d="M 215 180.5 C 209.675781 180.5 211.839844 195.316406 211.839844 199.5 L 211.839844 262.832031 C 204.542969 262.832031 211.027344 285.042969 208.675781 289.75 C 208.675781 289.75 172.316406 291.332031 172.316406 291.332031 C 160.097656 285.214844 146.8125 281.730469 134.375 275.5 C 111.460938 264.027344 132.792969 204.8125 132.792969 188.417969 C 132.792969 182.140625 90.699219 158.734375 104.339844 131.417969 C 110.648438 118.78125 154.402344 100.277344 162.832031 104.5 C 162.832031 104.5 165.992188 114 165.992188 114 C 173.042969 114 169.246094 102.734375 170.734375 99.75 C 174.355469 92.496094 196.109375 81.582031 203.933594 85.5 C 203.933594 85.5 205.515625 115.582031 205.515625 115.582031 C 205.515625 115.582031 211.839844 121.917969 211.839844 121.917969 C 216.359375 130.972656 215 168.160156 215 177.332031 C 215 177.332031 215 180.5 215 180.5 Z M 215 180.5 "/>
<path style=" stroke:none;fill-rule:nonzero;fill:rgb(72.941178%,100%,0%);fill-opacity:1;" d="M 215 180.5 L 215 243.832031 C 215 248.015625 217.164062 262.832031 211.839844 262.832031 C 211.839844 262.832031 213.417969 291.332031 213.417969 291.332031 C 223.921875 296.59375 280.589844 285.035156 287.71875 270.75 C 301.734375 242.679688 271.242188 218.257812 284.558594 191.582031 C 293.714844 173.246094 313.015625 165.226562 313.015625 144.082031 C 313.015625 144.082031 306.691406 140.917969 306.691406 140.917969 C 297.6875 122.878906 283.601562 110.832031 260.84375 110.832031 C 260.84375 110.832031 254.523438 114 254.523438 114 C 246.644531 110.054688 240.394531 76.742188 222.90625 85.5 C 222.90625 85.5 221.324219 110.832031 221.324219 110.832031 C 221.324219 118.460938 217.285156 114.171875 215 118.75 C 215 118.75 215 150.417969 215 150.417969 C 215 156.734375 216.152344 177.332031 215 177.332031 C 215 177.332031 215 180.5 215 180.5 Z M 215 180.5 "/>
</g>
</svg>
