<?xml version="1.0" encoding="UTF-8"?>
<svg xmlns="http://www.w3.org/2000/svg" xmlns:xlink="http://www.w3.org/1999/xlink" width="430px" height="323px" viewBox="0 0 430 323" version="1.1">
<g id="surface1">
<rect x="0" y="0" width="430" height="323" style="fill:rgb(0%,0%,0%);fill-opacity:1;stroke:none;"/>
<path style=" stroke:none;fill-rule:nonzero;fill:rgb(49.803922%,0%,22.745098%);fill-opacity:1;" d="M 211.839844 259.667969 L 211.839844 262.832031 C 201.3125 262.832031 220.910156 312.5 191.285156 297.667969 C 174.667969 289.34375 152.550781 287.769531 134.375 278.667969 C 106.488281 264.703125 133.414062 233.996094 123.308594 213.75 C 108.441406 183.972656 71.691406 165.148438 91.691406 125.082031 C 98.492188 111.460938 150.582031 82.53125 162.832031 88.667969 C 162.832031 88.667969 165.992188 101.332031 165.992188 101.332031 C 175.546875 101.332031 166.632812 88.96875 167.574219 87.082031 C 167.574219 87.082031 181.800781 79.167969 181.800781 79.167969 C 207.046875 66.523438 200.234375 85.230469 207.09375 88.667969 C 212.238281 91.242188 215 86.582031 215 95 C 209.675781 95 211.839844 109.816406 211.839844 114 C 211.839844 135.648438 215 157.394531 215 177.332031 C 209.675781 177.332031 211.839844 192.152344 211.839844 196.332031 C 211.839844 196.332031 211.839844 259.667969 211.839844 259.667969 Z M 211.839844 259.667969 "/>
<path style=" stroke:none;fill-rule:nonzero;fill:rgb(72.941178%,100%,0%);fill-opacity:1;" d="M 211.839844 259.667969 L 211.839844 262.832031 C 211.839844 262.832031 211.839844 292.917969 211.839844 292.917969 C 218.535156 306.332031 284.144531 284.25 290.882812 270.75 C 299.476562 253.535156 283.160156 232.382812 290.882812 216.917969 C 303.355469 191.929688 347.128906 171.242188 328.824219 134.582031 C 321.902344 120.722656 275.554688 84.46875 260.84375 91.832031 C 260.84375 91.832031 257.683594 101.332031 257.683594 101.332031 C 257.683594 101.332031 256.101562 90.25 256.101562 90.25 C 253.652344 85.34375 227.730469 73.582031 222.90625 76 C 218.191406 78.359375 223.375 95 215 95 C 215 115.703125 209.351562 148.601562 218.160156 166.25 C 219.65625 169.242188 218.65625 177.332031 215 177.332031 C 215 177.332031 215 240.667969 215 240.667969 C 215 244.847656 217.164062 259.667969 211.839844 259.667969 Z M 211.839844 259.667969 "/>
</g>
</svg>
