<?xml version="1.0" encoding="UTF-8"?>
<svg xmlns="http://www.w3.org/2000/svg" xmlns:xlink="http://www.w3.org/1999/xlink" width="430px" height="323px" viewBox="0 0 430 323" version="1.1">
<g id="surface1">
<rect x="0" y="0" width="430" height="323" style="fill:rgb(0%,0%,0%);fill-opacity:1;stroke:none;"/>
<path style=" stroke:none;fill-rule:nonzero;fill:rgb(100%,34.117648%,0%);fill-opacity:1;" d="M 145.441406 79.167969 C 142.128906 79.167969 135.957031 77.667969 135.957031 82.332031 C 131.546875 82.332031 126.851562 79.988281 129.632812 74.417969 C 129.632812 74.417969 142.28125 71.25 142.28125 71.25 C 142.28125 60.25 126.46875 57.265625 126.46875 47.5 C 126.46875 36.3125 176.828125 44.332031 183.382812 44.332031 C 183.382812 51.347656 177.058594 49.140625 177.058594 53.832031 C 177.058594 53.832031 173.898438 57 173.898438 57 C 158.671875 57 145.441406 62.730469 145.441406 79.167969 Z M 145.441406 79.167969 "/>
<path style=" stroke:none;fill-rule:nonzero;fill:rgb(49.803922%,0%,7.450981%);fill-opacity:1;" d="M 177.058594 53.832031 L 189.707031 53.832031 C 189.707031 49.910156 188.371094 44.332031 183.382812 44.332031 C 183.382812 51.347656 177.058594 49.140625 177.058594 53.832031 Z M 177.058594 53.832031 "/>
<path style=" stroke:none;fill-rule:nonzero;fill:rgb(0%,100%,41.960785%);fill-opacity:1;" d="M 290.882812 85.5 L 303.53125 91.832031 C 303.53125 67.332031 293.433594 85.859375 290.882812 80.75 C 285.996094 70.960938 306.691406 62.933594 306.691406 53.832031 C 306.691406 39.3125 254.53125 47.5 246.617188 47.5 C 246.617188 47.5 246.617188 53.832031 246.617188 53.832031 C 246.617188 53.832031 249.78125 53.832031 249.78125 53.832031 C 249.78125 53.832031 252.941406 57 252.941406 57 C 252.941406 57 256.101562 57 256.101562 57 C 256.101562 57 259.265625 60.167969 259.265625 60.167969 C 273.457031 60.167969 290.882812 70.589844 290.882812 85.5 Z M 290.882812 85.5 "/>
<path style=" stroke:none;fill-rule:nonzero;fill:rgb(49.803922%,41.960785%,0%);fill-opacity:1;" d="M 129.632812 88.667969 C 119.417969 88.667969 113 104.5 104.339844 104.5 C 94.0625 104.5 72.71875 88.617188 72.71875 79.167969 C 72.71875 69.890625 117.527344 47.5 126.46875 47.5 C 126.46875 57.265625 142.28125 60.25 142.28125 71.25 C 142.28125 71.25 129.632812 74.417969 129.632812 74.417969 C 126.851562 79.988281 131.546875 82.332031 135.957031 82.332031 C 135.957031 82.332031 129.632812 88.667969 129.632812 88.667969 Z M 129.632812 88.667969 "/>
<path style=" stroke:none;fill-rule:nonzero;fill:rgb(3.529412%,49.803922%,0%);fill-opacity:1;" d="M 240.292969 53.832031 L 246.617188 53.832031 C 246.617188 53.832031 246.617188 47.5 246.617188 47.5 C 246.617188 47.5 240.292969 53.832031 240.292969 53.832031 Z M 240.292969 53.832031 "/>
<path style=" stroke:none;fill-rule:nonzero;fill:rgb(49.803922%,0%,7.450981%);fill-opacity:1;" d="M 177.058594 53.832031 L 173.898438 57 C 173.898438 57 177.058594 53.832031 177.058594 53.832031 Z M 177.058594 53.832031 "/>
<path style=" stroke:none;fill-rule:evenodd;fill:rgb(49.803922%,0%,5.490196%);fill-opacity:1;" d="M 167.574219 76 C 167.574219 82.113281 173.675781 76 167.574219 76 M 192.867188 82.332031 L 196.03125 82.332031 C 196.03125 82.332031 199.191406 79.167969 199.191406 79.167969 C 199.191406 79.167969 202.351562 76 202.351562 76 C 202.351562 76 202.351562 72.832031 202.351562 72.832031 C 202.351562 72.832031 202.351562 63.332031 202.351562 63.332031 C 202.351562 57.914062 194.222656 53.832031 189.707031 53.832031 C 189.707031 53.832031 177.058594 53.832031 177.058594 53.832031 C 177.058594 53.832031 173.898438 57 173.898438 57 C 158.671875 57 145.441406 62.730469 145.441406 79.167969 C 145.441406 79.167969 150.183594 85.5 150.183594 85.5 C 150.183594 85.5 167.574219 82.332031 167.574219 82.332031 C 176.703125 82.332031 183.109375 82.332031 192.867188 82.332031 Z M 192.867188 82.332031 "/>
<path style=" stroke:none;fill-rule:evenodd;fill:rgb(1.568628%,49.803922%,0%);fill-opacity:1;" d="M 256.101562 79.167969 C 256.101562 85.789062 267.945312 79.167969 256.101562 79.167969 M 290.882812 85.5 C 282.375 85.5 269.777344 88.667969 259.265625 88.667969 C 259.265625 80.785156 239.976562 82.332031 233.96875 82.332031 C 226.40625 82.332031 224.484375 72.089844 224.484375 66.5 C 224.484375 66.5 240.292969 53.832031 240.292969 53.832031 C 240.292969 53.832031 246.617188 53.832031 246.617188 53.832031 C 246.617188 53.832031 249.78125 53.832031 249.78125 53.832031 C 249.78125 53.832031 252.941406 57 252.941406 57 C 252.941406 57 256.101562 57 256.101562 57 C 256.101562 57 259.265625 60.167969 259.265625 60.167969 C 273.457031 60.167969 290.882812 70.589844 290.882812 85.5 Z M 290.882812 85.5 "/>
<path style=" stroke:none;fill-rule:nonzero;fill:rgb(3.529412%,49.803922%,0%);fill-opacity:1;" d="M 249.78125 53.832031 L 252.941406 57 C 252.941406 57 249.78125 53.832031 249.78125 53.832031 Z M 249.78125 53.832031 "/>
<path style=" stroke:none;fill-rule:evenodd;fill:rgb(0%,49.803922%,45.882353%);fill-opacity:1;" d="M 303.53125 76 C 303.53125 82.113281 309.632812 76 303.53125 76 M 303.53125 91.832031 L 325.660156 110.832031 C 336.101562 110.832031 357.28125 96.796875 357.28125 85.5 C 357.28125 73.234375 316.273438 53.832031 306.691406 53.832031 C 306.691406 62.933594 285.996094 70.960938 290.882812 80.75 C 293.433594 85.859375 303.53125 67.332031 303.53125 91.832031 Z M 303.53125 91.832031 "/>
<path style=" stroke:none;fill-rule:nonzero;fill:rgb(3.529412%,49.803922%,0%);fill-opacity:1;" d="M 256.101562 57 L 259.265625 60.167969 C 259.265625 60.167969 256.101562 57 256.101562 57 Z M 256.101562 57 "/>
<path style=" stroke:none;fill-rule:nonzero;fill:rgb(49.803922%,0%,22.745098%);fill-opacity:1;" d="M 202.351562 63.332031 C 207.050781 63.332031 207.050781 72.832031 202.351562 72.832031 C 202.351562 72.832031 202.351562 63.332031 202.351562 63.332031 Z M 202.351562 63.332031 "/>
<path style=" stroke:none;fill-rule:nonzero;fill:rgb(72.941178%,100%,0%);fill-opacity:1;" d="M 211.839844 240.667969 C 211.839844 256.554688 208.3125 279.523438 215 292.917969 C 221.652344 306.246094 264.773438 291.386719 271.910156 277.082031 C 278.421875 264.039062 276.230469 246.265625 284.558594 229.582031 L 303.53125 216.917969 L 308.273438 205.832031 L 317.757812 215.332031 C 324.714844 222.300781 323.464844 240.667969 338.308594 240.667969 C 338.308594 234.953125 331.410156 224.402344 335.148438 216.917969 C 335.148438 216.917969 344.632812 202.667969 344.632812 202.667969 C 344.632812 202.667969 354.117188 194.75 354.117188 194.75 C 360.132812 182.703125 357.28125 166.222656 357.28125 155.167969 C 357.28125 148.664062 344.632812 139.992188 344.632812 136.167969 C 344.632812 136.167969 338.308594 129.832031 338.308594 129.832031 C 338.308594 129.832031 325.660156 110.832031 325.660156 110.832031 C 325.660156 110.832031 303.53125 91.832031 303.53125 91.832031 C 303.53125 91.832031 290.882812 85.5 290.882812 85.5 C 282.375 85.5 269.777344 88.667969 259.265625 88.667969 C 253.652344 88.667969 233.96875 88.445312 233.96875 82.332031 C 226.40625 82.332031 224.484375 72.089844 224.484375 66.5 C 221.277344 66.5 218.160156 79.035156 218.160156 82.332031 C 218.160156 82.332031 218.160156 136.167969 218.160156 136.167969 C 218.160156 140.347656 220.324219 155.167969 215 155.167969 C 215 155.167969 215 218.5 215 218.5 C 215 222.683594 217.164062 237.5 211.839844 237.5 C 211.839844 237.5 211.839844 240.667969 211.839844 240.667969 Z M 211.839844 240.667969 "/>
<path style=" stroke:none;fill-rule:nonzero;fill:rgb(100%,0%,61.176473%);fill-opacity:1;" d="M 167.574219 76 C 167.574219 82.113281 173.675781 76 167.574219 76 Z M 167.574219 76 "/>
<path style=" stroke:none;fill-rule:evenodd;fill:rgb(49.803922%,0%,22.745098%);fill-opacity:1;" d="M 126.46875 91.832031 C 126.46875 97.945312 132.574219 91.832031 126.46875 91.832031 M 211.839844 237.5 L 211.839844 240.667969 C 206.84375 240.667969 208.675781 249.707031 208.675781 253.332031 C 208.675781 261.964844 211.871094 290.527344 203.933594 294.5 C 198.261719 297.339844 189.152344 293.429688 184.964844 291.332031 C 173.652344 285.667969 159.421875 286.089844 151.765625 270.75 C 145.128906 257.457031 149.503906 244.054688 142.28125 229.582031 C 137.851562 220.710938 128.144531 221.761719 123.308594 216.917969 C 123.308594 216.917969 112.242188 205.832031 112.242188 205.832031 C 101.890625 205.832031 106.417969 234.332031 91.691406 234.332031 C 91.691406 227.902344 90.875 199.5 75.882812 199.5 C 75.882812 199.5 72.71875 199.5 72.71875 199.5 C 72.71875 199.5 69.558594 199.5 69.558594 199.5 C 69.558594 183.6875 63.234375 176.847656 63.234375 158.332031 C 63.234375 158.332031 66.398438 155.167969 66.398438 155.167969 C 66.398438 155.167969 69.558594 152 69.558594 152 C 73.308594 152 73.308594 148.832031 69.558594 148.832031 C 69.558594 139.191406 82.207031 138.230469 82.207031 129.832031 C 82.207031 129.832031 85.367188 126.667969 85.367188 126.667969 C 85.367188 126.667969 104.339844 104.5 104.339844 104.5 C 113 104.5 119.417969 88.667969 129.632812 88.667969 C 129.632812 88.667969 135.957031 82.332031 135.957031 82.332031 C 135.957031 77.667969 142.128906 79.167969 145.441406 79.167969 C 145.441406 79.167969 150.183594 85.5 150.183594 85.5 C 150.183594 85.5 167.574219 82.332031 167.574219 82.332031 C 167.574219 87.441406 192.867188 87.441406 192.867188 82.332031 C 192.867188 82.332031 196.03125 82.332031 196.03125 82.332031 C 196.03125 82.332031 199.191406 79.167969 199.191406 79.167969 C 199.191406 79.167969 202.351562 76 202.351562 76 C 223.304688 76 215 139.308594 215 155.167969 C 209.675781 155.167969 211.839844 169.984375 211.839844 174.167969 C 211.839844 174.167969 211.839844 237.5 211.839844 237.5 Z M 211.839844 237.5 "/>
<path style=" stroke:none;fill-rule:nonzero;fill:rgb(0%,100%,41.960785%);fill-opacity:1;" d="M 303.53125 76 C 303.53125 82.113281 309.632812 76 303.53125 76 Z M 303.53125 76 "/>
<path style=" stroke:none;fill-rule:nonzero;fill:rgb(49.803922%,16.862746%,0%);fill-opacity:1;" d="M 104.339844 104.5 L 85.367188 126.667969 C 78.589844 126.667969 84.164062 113.171875 82.207031 109.25 C 82.207031 109.25 60.074219 91.832031 60.074219 91.832031 C 60.074219 91.832031 72.71875 79.167969 72.71875 79.167969 C 72.71875 88.617188 94.0625 104.5 104.339844 104.5 Z M 104.339844 104.5 "/>
<path style=" stroke:none;fill-rule:nonzero;fill:rgb(100%,0%,61.176473%);fill-opacity:1;" d="M 167.574219 82.332031 C 176.703125 82.332031 183.109375 82.332031 192.867188 82.332031 C 192.867188 87.441406 167.574219 87.441406 167.574219 82.332031 Z M 167.574219 82.332031 "/>
<path style=" stroke:none;fill-rule:nonzero;fill:rgb(100%,0%,61.176473%);fill-opacity:1;" d="M 199.191406 79.167969 L 196.03125 82.332031 C 196.03125 82.332031 199.191406 79.167969 199.191406 79.167969 Z M 199.191406 79.167969 "/>
<path style=" stroke:none;fill-rule:nonzero;fill:rgb(53.333336%,100%,0%);fill-opacity:1;" d="M 256.101562 79.167969 C 256.101562 85.789062 267.945312 79.167969 256.101562 79.167969 Z M 256.101562 79.167969 "/>
<path style=" stroke:none;fill-rule:nonzero;fill:rgb(53.333336%,100%,0%);fill-opacity:1;" d="M 233.96875 82.332031 C 239.976562 82.332031 259.265625 80.785156 259.265625 88.667969 C 253.652344 88.667969 233.96875 88.445312 233.96875 82.332031 Z M 233.96875 82.332031 "/>
<path style=" stroke:none;fill-rule:nonzero;fill:rgb(0%,49.803922%,20.784314%);fill-opacity:1;" d="M 325.660156 110.832031 L 338.308594 129.832031 C 351.988281 129.832031 345.039062 104.5 373.089844 104.5 C 373.089844 104.5 357.28125 85.5 357.28125 85.5 C 357.28125 96.796875 336.101562 110.832031 325.660156 110.832031 Z M 325.660156 110.832031 "/>
<path style=" stroke:none;fill-rule:nonzero;fill:rgb(32.549021%,49.803922%,0%);fill-opacity:1;" d="M 85.367188 126.667969 L 82.207031 129.832031 C 82.207031 123.285156 59.148438 131.089844 55.332031 133 C 53.390625 133.972656 49.773438 123.5 41.101562 123.5 C 41.101562 118.722656 55.839844 91.832031 60.074219 91.832031 C 60.074219 91.832031 82.207031 109.25 82.207031 109.25 C 84.164062 113.171875 78.589844 126.667969 85.367188 126.667969 Z M 85.367188 126.667969 "/>
<path style=" stroke:none;fill-rule:nonzero;fill:rgb(0%,7.450981%,49.803922%);fill-opacity:1;" d="M 385.734375 129.832031 C 379.691406 129.832031 371.15625 136.167969 362.023438 136.167969 C 358.195312 136.167969 344.632812 129.074219 344.632812 136.167969 C 344.632812 136.167969 338.308594 129.832031 338.308594 129.832031 C 351.988281 129.832031 345.039062 104.5 373.089844 104.5 C 373.089844 104.5 385.734375 129.832031 385.734375 129.832031 Z M 385.734375 129.832031 "/>
<path style=" stroke:none;fill-rule:nonzero;fill:rgb(0%,100%,88.235295%);fill-opacity:1;" d="M 44.265625 177.332031 L 37.941406 183.667969 C 37.941406 183.667969 26.875 186.832031 26.875 186.832031 C 18.777344 182.777344 41.101562 130.949219 41.101562 123.5 C 49.773438 123.5 53.390625 133.972656 55.332031 133 C 59.148438 131.089844 82.207031 123.285156 82.207031 129.832031 C 82.207031 138.230469 69.558594 139.191406 69.558594 148.832031 C 69.558594 148.832031 69.558594 152 69.558594 152 C 69.558594 152 66.398438 155.167969 66.398438 155.167969 C 66.398438 155.167969 63.234375 158.332031 63.234375 158.332031 C 53.515625 158.332031 53.34375 174.167969 47.425781 174.167969 C 47.425781 174.167969 44.265625 177.332031 44.265625 177.332031 Z M 44.265625 177.332031 "/>
<path style=" stroke:none;fill-rule:nonzero;fill:rgb(100%,0%,0%);fill-opacity:1;" d="M 385.734375 186.832031 C 388.9375 186.832031 399.671875 190 392.058594 190 C 392.058594 190 398.382812 194.75 398.382812 194.75 C 405.339844 180.816406 392.058594 159.039062 392.058594 145.667969 C 392.058594 145.667969 388.898438 142.5 388.898438 142.5 C 388.898438 138.875 390.726562 129.832031 385.734375 129.832031 C 379.691406 129.832031 371.15625 136.167969 362.023438 136.167969 C 358.195312 136.167969 344.632812 129.074219 344.632812 136.167969 C 344.632812 139.992188 357.28125 148.664062 357.28125 155.167969 C 357.28125 155.167969 379.410156 177.332031 379.410156 177.332031 C 379.410156 177.332031 382.574219 180.5 382.574219 180.5 C 382.574219 180.5 385.734375 186.832031 385.734375 186.832031 Z M 385.734375 186.832031 "/>
<path style=" stroke:none;fill-rule:nonzero;fill:rgb(0%,7.450981%,49.803922%);fill-opacity:1;" d="M 388.898438 142.5 L 392.058594 145.667969 C 392.058594 145.667969 388.898438 142.5 388.898438 142.5 Z M 388.898438 142.5 "/>
<path style=" stroke:none;fill-rule:nonzero;fill:rgb(0%,22.745098%,100%);fill-opacity:1;" d="M 69.558594 148.832031 C 73.308594 148.832031 73.308594 152 69.558594 152 C 69.558594 152 69.558594 148.832031 69.558594 148.832031 Z M 69.558594 148.832031 "/>
<path style=" stroke:none;fill-rule:nonzero;fill:rgb(0%,22.745098%,100%);fill-opacity:1;" d="M 66.398438 155.167969 L 63.234375 158.332031 C 63.234375 158.332031 66.398438 155.167969 66.398438 155.167969 Z M 66.398438 155.167969 "/>
<path style=" stroke:none;fill-rule:nonzero;fill:rgb(100%,49.803922%,0%);fill-opacity:1;" d="M 388.898438 228 C 384.265625 228 376.25 227.65625 376.25 234.332031 C 364.898438 234.332031 357.28125 198.414062 357.28125 228 C 340.675781 228 353.097656 202.667969 344.632812 202.667969 C 344.632812 202.667969 354.117188 194.75 354.117188 194.75 C 360.132812 182.703125 357.28125 166.222656 357.28125 155.167969 C 357.28125 155.167969 379.410156 177.332031 379.410156 177.332031 C 379.410156 177.332031 382.574219 180.5 382.574219 180.5 C 382.574219 180.5 385.734375 186.832031 385.734375 186.832031 C 385.734375 186.832031 385.734375 190 385.734375 190 C 385.734375 203.152344 390.519531 198 395.21875 207.417969 C 399.261719 215.507812 388.898438 221.71875 388.898438 228 Z M 388.898438 228 "/>
<path style=" stroke:none;fill-rule:nonzero;fill:rgb(0%,22.745098%,100%);fill-opacity:1;" d="M 37.941406 221.667969 C 37.941406 205.527344 50.589844 219.117188 50.589844 228 C 70.523438 228 64.589844 209 69.558594 209 C 69.558594 209 69.558594 199.5 69.558594 199.5 C 69.558594 183.6875 63.234375 176.847656 63.234375 158.332031 C 53.515625 158.332031 53.34375 174.167969 47.425781 174.167969 C 47.425781 174.167969 44.265625 177.332031 44.265625 177.332031 C 44.265625 177.332031 37.941406 183.667969 37.941406 183.667969 C 51.492188 183.667969 28.671875 200.648438 28.457031 201.082031 C 27.066406 203.871094 35.089844 221.667969 37.941406 221.667969 Z M 37.941406 221.667969 "/>
<path style=" stroke:none;fill-rule:nonzero;fill:rgb(49.803922%,43.921569%,0%);fill-opacity:1;" d="M 47.425781 174.167969 L 44.265625 177.332031 C 44.265625 177.332031 47.425781 174.167969 47.425781 174.167969 Z M 47.425781 174.167969 "/>
<path style=" stroke:none;fill-rule:nonzero;fill:rgb(0%,49.803922%,47.843137%);fill-opacity:1;" d="M 379.410156 177.332031 L 382.574219 180.5 C 382.574219 180.5 379.410156 177.332031 379.410156 177.332031 Z M 379.410156 177.332031 "/>
<path style=" stroke:none;fill-rule:nonzero;fill:rgb(0%,49.803922%,47.843137%);fill-opacity:1;" d="M 385.734375 190 L 392.058594 190 C 399.671875 190 388.9375 186.832031 385.734375 186.832031 C 385.734375 186.832031 385.734375 190 385.734375 190 Z M 385.734375 190 "/>
<path style=" stroke:none;fill-rule:nonzero;fill:rgb(100%,0%,65.098041%);fill-opacity:1;" d="M 69.558594 209 L 72.71875 209 C 72.71875 209 72.71875 199.5 72.71875 199.5 C 72.71875 199.5 69.558594 199.5 69.558594 199.5 C 69.558594 199.5 69.558594 209 69.558594 209 Z M 69.558594 209 "/>
<path style=" stroke:none;fill-rule:nonzero;fill:rgb(0%,22.745098%,100%);fill-opacity:1;" d="M 75.882812 199.5 C 75.882812 211.378906 72.71875 231.214844 72.71875 209 C 72.71875 209 72.71875 199.5 72.71875 199.5 C 72.71875 199.5 75.882812 199.5 75.882812 199.5 Z M 75.882812 199.5 "/>
<path style=" stroke:none;fill-rule:nonzero;fill:rgb(30.588236%,49.803922%,0%);fill-opacity:1;" d="M 91.691406 234.332031 C 87.839844 234.332031 69.558594 242.492188 69.558594 237.5 C 69.558594 237.5 69.558594 209 69.558594 209 C 69.558594 209 72.71875 209 72.71875 209 C 72.71875 231.214844 75.882812 211.378906 75.882812 199.5 C 90.875 199.5 91.691406 227.902344 91.691406 234.332031 Z M 91.691406 234.332031 "/>
<path style=" stroke:none;fill-rule:nonzero;fill:rgb(0%,3.529412%,49.803922%);fill-opacity:1;" d="M 347.792969 243.832031 L 357.28125 243.832031 C 357.28125 243.832031 357.28125 228 357.28125 228 C 340.675781 228 353.097656 202.667969 344.632812 202.667969 C 344.632812 202.667969 335.148438 216.917969 335.148438 216.917969 C 331.410156 224.402344 338.308594 234.953125 338.308594 240.667969 C 338.308594 240.667969 341.46875 240.667969 341.46875 240.667969 C 341.46875 240.667969 347.792969 243.832031 347.792969 243.832031 Z M 347.792969 243.832031 "/>
<path style=" stroke:none;fill-rule:nonzero;fill:rgb(100%,0%,65.098041%);fill-opacity:1;" d="M 50.589844 234.332031 C 50.589844 239.667969 65.382812 237.5 69.558594 237.5 C 69.558594 237.5 69.558594 209 69.558594 209 C 64.589844 209 70.523438 228 50.589844 228 C 50.589844 228 50.589844 234.332031 50.589844 234.332031 Z M 50.589844 234.332031 "/>
<path style=" stroke:none;fill-rule:nonzero;fill:rgb(41.960785%,0%,49.803922%);fill-opacity:1;" d="M 50.589844 228 L 50.589844 234.332031 C 50.589844 234.332031 37.941406 221.667969 37.941406 221.667969 C 37.941406 205.527344 50.589844 219.117188 50.589844 228 Z M 50.589844 228 "/>
<path style=" stroke:none;fill-rule:nonzero;fill:rgb(57.254905%,100%,0%);fill-opacity:1;" d="M 376.25 240.667969 C 376.25 246 361.457031 243.832031 357.28125 243.832031 C 357.28125 243.832031 357.28125 228 357.28125 228 C 357.28125 198.414062 364.898438 234.332031 376.25 234.332031 C 376.25 234.332031 376.25 240.667969 376.25 240.667969 Z M 376.25 240.667969 "/>
<path style=" stroke:none;fill-rule:nonzero;fill:rgb(49.803922%,49.803922%,0%);fill-opacity:1;" d="M 376.25 234.332031 L 376.25 240.667969 C 376.25 240.667969 388.898438 228 388.898438 228 C 384.265625 228 376.25 227.65625 376.25 234.332031 Z M 376.25 234.332031 "/>
<path style=" stroke:none;fill-rule:nonzero;fill:rgb(72.941178%,100%,0%);fill-opacity:1;" d="M 341.46875 240.667969 L 347.792969 243.832031 C 347.792969 243.832031 341.46875 240.667969 341.46875 240.667969 Z M 341.46875 240.667969 "/>
</g>
</svg>
