<?xml version="1.0" encoding="UTF-8"?>
<svg xmlns="http://www.w3.org/2000/svg" xmlns:xlink="http://www.w3.org/1999/xlink" width="430px" height="430px" viewBox="0 0 430 430" version="1.1">
<g id="surface1">
<rect x="0" y="0" width="430" height="430" style="fill:rgb(0%,0%,0%);fill-opacity:1;stroke:none;"/>
<path style=" stroke:none;fill-rule:nonzero;fill:rgb(98.039216%,50.196081%,44.705883%);fill-opacity:1;" d="M 147.8125 256.992188 C 147.8125 259.425781 152.011719 257.921875 152.011719 259.929688 C 152.011719 261.71875 147.988281 261.191406 146.972656 261.191406 C 141.332031 261.191406 135.195312 248.136719 132.695312 243.132812 C 132.40625 242.554688 134.765625 235.632812 135.214844 234.734375 C 138.414062 228.335938 145.929688 216.992188 153.273438 213.320312 C 153.273438 213.320312 165.03125 209.121094 165.03125 209.121094 C 165.03125 209.121094 169.648438 211.640625 169.648438 211.640625 C 169.648438 211.640625 171.328125 215 171.328125 215 C 171.328125 215 162.507812 214.160156 162.507812 214.160156 C 162.507812 214.160156 158.730469 215.839844 158.730469 215.839844 C 158.730469 213.050781 154.191406 216.679688 157.050781 216.679688 C 157.050781 217.988281 152.164062 220.878906 151.171875 220.878906 C 149.703125 220.878906 149.492188 221.089844 149.492188 222.558594 C 149.492188 222.558594 147.8125 223.398438 147.8125 223.398438 C 147.8125 223.398438 146.972656 224.238281 146.972656 224.238281 C 146.972656 224.238281 146.132812 225.078125 146.132812 225.078125 C 146.132812 225.078125 145.292969 225.917969 145.292969 225.917969 C 145.292969 225.917969 141.933594 229.695312 141.933594 229.695312 C 138.054688 237.457031 136.914062 247.351562 143.195312 253.632812 C 143.195312 253.632812 145.292969 256.152344 145.292969 256.152344 C 145.292969 256.152344 146.132812 256.992188 146.132812 256.992188 C 146.132812 256.992188 147.8125 256.992188 147.8125 256.992188 Z M 147.8125 256.992188 "/>
<path style=" stroke:none;fill-rule:evenodd;fill:rgb(60.000002%,32.549021%,100%);fill-opacity:1;" d="M 190.644531 279.667969 C 190.644531 281.289062 192.265625 279.667969 190.644531 279.667969 M 204.082031 225.078125 C 204.082031 228.085938 201.773438 228.433594 200.722656 230.539062 L 200.304688 232.636719 L 199.460938 230.957031 C 196.59375 229.523438 194.527344 232.847656 193.164062 235.578125 C 192.082031 237.742188 195.769531 239.109375 196.523438 240.617188 C 199.214844 245.996094 211.53125 248.386719 215 241.453125 C 219.070312 233.316406 213.320312 234.09375 213.320312 232.21875 C 213.320312 228.710938 211.457031 229.277344 208.703125 229.277344 C 207.90625 229.277344 206.335938 225.078125 204.082031 225.078125 M 202.402344 271.269531 C 202.402344 272.820312 199.5625 272.480469 198.625 272.949219 C 196.96875 273.777344 195.683594 278.121094 195.683594 278.40625 C 195.683594 279.417969 192.324219 279.199219 192.324219 281.347656 C 189.234375 281.347656 189.03125 280.75 186.867188 279.667969 C 181.730469 277.101562 170.425781 281.105469 164.1875 277.988281 C 161.449219 276.617188 159.839844 273.292969 157.46875 272.109375 C 154.878906 270.8125 152.179688 272.027344 150.332031 268.328125 C 150.332031 268.328125 151.171875 265.8125 151.171875 265.8125 C 151.171875 265.8125 146.972656 261.191406 146.972656 261.191406 C 147.988281 261.191406 152.011719 261.71875 152.011719 259.929688 C 152.011719 257.921875 147.8125 259.425781 147.8125 256.992188 C 147.8125 256.625 155.800781 251.941406 157.050781 250.695312 C 157.050781 250.695312 164.609375 243.976562 164.609375 243.976562 C 164.609375 243.976562 169.226562 236.835938 169.226562 236.835938 C 169.226562 236.835938 173.429688 235.15625 173.429688 235.15625 C 175.339844 234.199219 174.808594 231.976562 175.527344 230.539062 C 175.527344 230.539062 178.886719 228.015625 178.886719 228.015625 C 181.609375 222.570312 171.328125 217.539062 171.328125 215 C 171.328125 215 169.648438 211.640625 169.648438 211.640625 C 173.300781 211.640625 184.128906 209.011719 186.023438 209.960938 C 186.023438 209.960938 187.703125 212.480469 187.703125 212.480469 C 187.703125 212.480469 195.265625 213.320312 195.265625 213.320312 C 195.265625 213.320312 196.945312 215 196.945312 215 C 200.707031 215 196.679688 211.929688 204.5 215.839844 C 205.230469 216.203125 211.554688 213.066406 215.421875 215 C 218.25 216.414062 228.152344 208.769531 232.21875 210.800781 C 235.5 212.441406 236.132812 214.160156 240.195312 214.160156 C 240.195312 214.761719 238.203125 216.679688 240.195312 216.679688 C 240.195312 217.398438 232.484375 220.996094 235.15625 226.335938 C 237.152344 230.332031 243.472656 230.375 244.394531 232.21875 C 246.824219 237.078125 250.359375 241.625 252.792969 246.492188 C 254.507812 249.925781 253.050781 253.726562 254.472656 256.570312 C 254.472656 256.570312 257.414062 258.671875 257.414062 258.671875 C 262.480469 261.207031 267.371094 252.792969 268.75 252.792969 C 268.75 252.792969 268.75 254.472656 268.75 254.472656 C 268.75 254.472656 268.75 256.152344 268.75 256.152344 C 268.75 260.140625 261.234375 261.527344 259.511719 264.96875 C 256.75 270.496094 252.074219 273.097656 247.335938 275.46875 C 247.335938 275.46875 241.453125 280.507812 241.453125 280.507812 C 241.453125 280.507812 238.9375 279.667969 238.9375 279.667969 C 238.9375 279.667969 233.898438 282.1875 233.898438 282.1875 C 233.898438 282.1875 216.679688 282.1875 216.679688 282.1875 C 216.679688 282.1875 217.519531 279.25 217.519531 279.25 C 217.519531 279.25 215 277.570312 215 277.570312 C 214.074219 275.714844 212.390625 269.589844 209.121094 269.589844 C 209.121094 264.160156 210.558594 248.59375 205.34375 248.59375 C 205.34375 248.59375 204.082031 253.210938 204.082031 253.210938 C 202.019531 257.339844 202.402344 266.585938 202.402344 271.269531 Z M 202.402344 271.269531 "/>
<path style=" stroke:none;fill-rule:nonzero;fill:rgb(98.039216%,50.196081%,44.705883%);fill-opacity:1;" d="M 268.75 254.472656 L 268.75 256.152344 C 272.976562 256.152344 274.710938 249.6875 276.308594 246.492188 C 276.308594 246.492188 275.46875 243.132812 275.46875 243.132812 C 278.019531 238.035156 272.949219 236.761719 272.949219 233.898438 C 272.949219 233.898438 273.789062 231.375 273.789062 231.375 C 273.789062 231.375 270.429688 228.859375 270.429688 228.859375 C 266.96875 221.9375 262.679688 216.792969 255.734375 213.320312 C 253.382812 212.144531 240.195312 206.433594 240.195312 214.160156 C 240.195312 214.761719 238.203125 216.679688 240.195312 216.679688 C 242.394531 216.679688 246.46875 214.566406 249.015625 215.839844 C 264.242188 223.453125 264.496094 224.550781 272.109375 239.773438 C 273.292969 242.144531 271.269531 245.71875 271.269531 247.753906 C 271.269531 248.632812 271.667969 250.273438 270.429688 250.273438 C 270.429688 250.273438 270.429688 251.113281 270.429688 251.113281 C 270.429688 251.113281 268.75 254.472656 268.75 254.472656 Z M 268.75 254.472656 "/>
<path style=" stroke:none;fill-rule:nonzero;fill:rgb(35.686275%,94.509804%,100%);fill-opacity:1;" d="M 146.132812 256.992188 L 147.8125 256.992188 C 147.8125 256.625 155.800781 251.941406 157.050781 250.695312 C 157.050781 250.695312 164.609375 243.976562 164.609375 243.976562 C 164.609375 243.976562 169.226562 236.835938 169.226562 236.835938 C 169.226562 236.835938 173.429688 235.15625 173.429688 235.15625 C 175.339844 234.199219 174.808594 231.976562 175.527344 230.539062 C 175.527344 230.539062 178.886719 228.015625 178.886719 228.015625 C 181.609375 222.570312 171.328125 217.539062 171.328125 215 C 171.328125 215 162.507812 214.160156 162.507812 214.160156 C 162.507812 214.160156 158.730469 215.839844 158.730469 215.839844 C 158.730469 215.839844 157.050781 216.679688 157.050781 216.679688 C 157.050781 217.988281 152.164062 220.878906 151.171875 220.878906 C 151.171875 220.878906 149.492188 222.558594 149.492188 222.558594 C 149.492188 222.558594 147.8125 223.398438 147.8125 223.398438 C 147.8125 223.398438 146.972656 224.238281 146.972656 224.238281 C 146.972656 224.238281 146.132812 225.078125 146.132812 225.078125 C 146.132812 225.078125 145.292969 225.917969 145.292969 225.917969 C 145.292969 225.917969 141.933594 229.695312 141.933594 229.695312 C 138.054688 237.457031 136.914062 247.351562 143.195312 253.632812 C 143.195312 253.632812 145.292969 256.152344 145.292969 256.152344 C 145.292969 256.152344 146.132812 256.992188 146.132812 256.992188 Z M 146.132812 256.992188 "/>
<path style=" stroke:none;fill-rule:nonzero;fill:rgb(35.686275%,94.509804%,100%);fill-opacity:1;" d="M 270.429688 251.113281 L 268.75 252.792969 C 267.371094 252.792969 262.480469 261.207031 257.414062 258.671875 C 257.414062 258.671875 254.472656 256.570312 254.472656 256.570312 C 253.050781 253.726562 254.507812 249.925781 252.792969 246.492188 C 250.359375 241.625 246.824219 237.078125 244.394531 232.21875 C 243.472656 230.375 237.152344 230.332031 235.15625 226.335938 C 232.484375 220.996094 240.195312 217.398438 240.195312 216.679688 C 242.394531 216.679688 246.46875 214.566406 249.015625 215.839844 C 264.242188 223.453125 264.496094 224.550781 272.109375 239.773438 C 273.292969 242.144531 271.269531 245.71875 271.269531 247.753906 C 269.019531 247.753906 270.429688 249.5 270.429688 250.273438 C 270.429688 250.273438 270.429688 251.113281 270.429688 251.113281 Z M 270.429688 251.113281 "/>
<path style=" stroke:none;fill-rule:evenodd;fill:rgb(92.156863%,34.117648%,100%);fill-opacity:1;" d="M 204.921875 239.355469 L 204.082031 241.035156 C 204.082031 245.371094 209.761719 239.355469 204.921875 239.355469 M 204.082031 225.078125 C 204.082031 228.085938 201.773438 228.433594 200.722656 230.539062 L 200.304688 232.636719 L 199.460938 230.957031 C 196.59375 229.523438 194.527344 232.847656 193.164062 235.578125 C 192.082031 237.742188 195.769531 239.109375 196.523438 240.617188 C 199.214844 245.996094 211.53125 248.386719 215 241.453125 C 219.070312 233.316406 213.320312 234.09375 213.320312 232.21875 C 213.320312 228.710938 211.457031 229.277344 208.703125 229.277344 C 207.90625 229.277344 206.335938 225.078125 204.082031 225.078125 Z M 204.082031 225.078125 "/>
<path style=" stroke:none;fill-rule:nonzero;fill:rgb(15.294118%,95.686275%,99.215686%);fill-opacity:1;" d="M 204.921875 239.355469 L 204.082031 241.035156 C 204.082031 245.371094 209.761719 239.355469 204.921875 239.355469 Z M 204.921875 239.355469 "/>
<path style=" stroke:none;fill-rule:nonzero;fill:rgb(44.705883%,3.529412%,83.137256%);fill-opacity:1;" d="M 204.921875 272.109375 L 205.761719 272.109375 C 205.761719 269.015625 209.121094 272.992188 209.121094 269.589844 C 209.121094 264.160156 210.558594 248.59375 205.34375 248.59375 C 205.34375 248.59375 204.082031 253.210938 204.082031 253.210938 C 202.019531 257.339844 202.402344 266.585938 202.402344 271.269531 C 204.117188 271.269531 204.921875 269.71875 204.921875 272.109375 Z M 204.921875 272.109375 "/>
<path style=" stroke:none;fill-rule:nonzero;fill:rgb(100%,20.392157%,15.294118%);fill-opacity:1;" d="M 205.761719 272.109375 C 205.761719 280.214844 208.792969 282.1875 216.679688 282.1875 C 216.679688 282.1875 217.519531 279.25 217.519531 279.25 C 217.519531 279.25 215 277.570312 215 277.570312 C 214.074219 275.714844 212.390625 269.589844 209.121094 269.589844 C 209.121094 272.992188 205.761719 269.015625 205.761719 272.109375 Z M 205.761719 272.109375 "/>
<path style=" stroke:none;fill-rule:nonzero;fill:rgb(100%,20.392157%,15.294118%);fill-opacity:1;" d="M 204.921875 272.109375 C 204.921875 281.847656 199.433594 281.347656 192.324219 281.347656 C 192.324219 279.199219 195.683594 279.417969 195.683594 278.40625 C 195.683594 278.121094 196.96875 273.777344 198.625 272.949219 C 199.5625 272.480469 202.402344 272.820312 202.402344 271.269531 C 204.117188 271.269531 204.921875 269.71875 204.921875 272.109375 Z M 204.921875 272.109375 "/>
</g>
</svg>
