<?xml version="1.0" encoding="UTF-8"?>
<svg xmlns="http://www.w3.org/2000/svg" xmlns:xlink="http://www.w3.org/1999/xlink" width="430px" height="430px" viewBox="0 0 430 430" version="1.1">
<g id="surface1">
<rect x="0" y="0" width="430" height="430" style="fill:rgb(0%,0%,0%);fill-opacity:1;stroke:none;"/>
<path style=" stroke:none;fill-rule:evenodd;fill:rgb(52.549022%,100%,35.294119%);fill-opacity:1;" d="M 204.921875 330.898438 L 202.402344 332.15625 C 202.402344 332.523438 202.199219 335.953125 202.402344 336.359375 C 202.433594 336.417969 206.960938 336.386719 207.859375 335.9375 L 207.441406 334.679688 L 209.121094 331.320312 C 208.492188 330.058594 206.328125 330.898438 204.921875 330.898438 M 199.882812 294.785156 C 199.882812 296.683594 194.765625 295.035156 193.585938 295.625 C 188.644531 298.09375 182.292969 304.863281 177.625 304.863281 C 175.296875 304.863281 177.203125 309.273438 175.945312 309.902344 C 171.269531 312.242188 173.902344 315.542969 170.070312 317.460938 C 168.960938 318.015625 167.933594 317.109375 167.128906 318.71875 C 166.246094 320.488281 166.558594 327.417969 166.289062 327.960938 L 164.609375 327.960938 C 162.792969 331.589844 164.871094 340.242188 166.289062 343.078125 C 166.859375 344.214844 165.980469 348.335938 167.128906 350.632812 C 168.28125 352.945312 177.332031 363.503906 177.625 363.652344 C 179.347656 364.511719 181.820312 364.488281 183.507812 365.332031 C 186.175781 366.667969 194.402344 369.542969 197.78125 367.851562 C 199.75 366.867188 201.835938 366.242188 203.664062 365.332031 L 206.179688 361.972656 L 211.21875 367.011719 C 212.21875 367.511719 213.5 367.3125 214.578125 367.851562 C 217.707031 369.414062 235.125 363.292969 235.996094 361.554688 C 237.09375 359.359375 240.214844 357.316406 241.035156 355.671875 L 241.453125 353.574219 L 244.394531 353.15625 L 242.714844 351.476562 L 244.394531 350.632812 C 244.894531 349.636719 244.695312 348.355469 245.234375 347.273438 L 246.074219 334.257812 C 246.074219 332.734375 248.007812 330.984375 247.753906 330.476562 C 246.867188 328.703125 245.59375 330.359375 245.234375 329.640625 C 243.566406 326.304688 242.140625 317.570312 240.195312 313.679688 L 236.835938 311.164062 L 235.996094 306.960938 C 235.199219 305.367188 232.152344 304.023438 231.375 304.023438 C 231.332031 304.023438 221.964844 296.796875 221.296875 296.464844 C 217.640625 294.636719 204.621094 294.785156 199.882812 294.785156 Z M 199.882812 294.785156 "/>
<path style=" stroke:none;fill-rule:nonzero;fill:rgb(92.156863%,34.117648%,100%);fill-opacity:1;" d="M 204.921875 330.898438 L 202.402344 332.15625 C 202.402344 332.523438 202.199219 335.953125 202.402344 336.359375 C 202.433594 336.417969 206.960938 336.386719 207.859375 335.9375 L 207.441406 334.679688 L 209.121094 331.320312 C 208.492188 330.058594 206.328125 330.898438 204.921875 330.898438 Z M 204.921875 330.898438 "/>
</g>
</svg>
