<?xml version="1.0" encoding="UTF-8"?>
<svg xmlns="http://www.w3.org/2000/svg" xmlns:xlink="http://www.w3.org/1999/xlink" width="430px" height="430px" viewBox="0 0 430 430" version="1.1">
<g id="surface1">
<rect x="0" y="0" width="430" height="430" style="fill:rgb(0%,0%,0%);fill-opacity:1;stroke:none;"/>
<path style=" stroke:none;fill-rule:evenodd;fill:rgb(1.176471%,75.686276%,17.647059%);fill-opacity:1;" d="M 150.332031 161.25 C 150.332031 164.171875 153.253906 161.25 150.332031 161.25 M 157.890625 148.652344 C 157.890625 151.472656 149.582031 154.773438 148.652344 156.632812 L 145.292969 157.46875 L 148.652344 158.3125 L 146.132812 159.148438 C 144.902344 161.609375 153.691406 159.578125 153.691406 160.828125 C 153.691406 164.363281 158.316406 160.839844 159.570312 163.351562 C 161.164062 166.535156 161.949219 163.769531 162.507812 163.769531 L 163.351562 165.449219 L 166.710938 165.449219 L 170.90625 167.96875 L 171.75 166.289062 C 175.007812 164.660156 172.917969 160.648438 171.328125 157.46875 L 167.96875 155.789062 C 167.226562 154.308594 166.9375 149.492188 165.03125 149.492188 C 164.105469 149.492188 161.710938 151.191406 159.992188 150.332031 L 157.890625 148.652344 M 243.554688 146.132812 L 238.515625 154.109375 C 236.128906 158.882812 234.316406 167.1875 234.316406 171.75 C 234.316406 172.78125 237.675781 172.035156 237.675781 170.90625 C 237.675781 169.605469 245.113281 164.609375 248.171875 164.609375 C 251.941406 164.609375 266.386719 165.558594 269.589844 159.148438 C 271.066406 156.199219 265.765625 154.53125 264.96875 154.53125 L 262.871094 153.273438 C 262.871094 147.539062 250.632812 146.132812 243.554688 146.132812 M 247.753906 144.453125 C 247.753906 146.210938 250.898438 144.453125 247.753906 144.453125 M 116.738281 226.757812 L 113.378906 228.4375 C 100.074219 228.4375 94.710938 215.03125 89.863281 205.34375 C 82.167969 189.949219 74.441406 159.757812 83.144531 142.351562 C 83.144531 142.351562 89.023438 131.4375 89.023438 131.4375 C 89.023438 131.4375 95.742188 125.554688 95.742188 125.554688 C 95.742188 125.554688 100.78125 120.515625 100.78125 120.515625 C 101.421875 119.238281 101.300781 116.6875 102.882812 115.898438 C 102.882812 115.898438 115.476562 109.179688 115.476562 109.179688 C 115.476562 109.179688 125.554688 107.5 125.554688 107.5 C 125.554688 107.5 132.273438 99.941406 132.273438 99.941406 C 132.273438 99.941406 137.3125 99.101562 137.3125 99.101562 C 137.3125 99.101562 139.835938 96.582031 139.835938 96.582031 C 148.378906 92.3125 159.8125 94.152344 168.390625 89.863281 C 171.371094 88.375 187.828125 90.34375 190.226562 91.542969 C 193.285156 93.074219 194.886719 95.132812 197.78125 96.582031 C 199.375 97.378906 203.308594 104.140625 203.664062 104.140625 C 203.664062 104.140625 210.382812 95.742188 210.382812 95.742188 C 216.210938 92.828125 222.324219 91.03125 228.015625 88.183594 C 233.511719 85.4375 260.46875 90.972656 264.96875 93.222656 C 264.96875 93.222656 271.6875 97.421875 271.6875 97.421875 C 271.6875 97.421875 278.40625 97.421875 278.40625 97.421875 C 278.40625 97.421875 290.164062 101.621094 290.164062 101.621094 C 297.738281 105.40625 303.375 109.792969 309.484375 115.898438 C 309.484375 115.898438 314.941406 118.835938 314.941406 118.835938 C 314.941406 118.835938 318.300781 126.398438 318.300781 126.398438 C 320.359375 130.511719 325.289062 131.972656 327.539062 136.476562 C 327.539062 136.476562 330.058594 153.273438 330.058594 153.273438 C 332.757812 158.671875 333.664062 167.058594 330.898438 172.585938 C 329.085938 176.214844 330.519531 185.101562 328.378906 189.382812 C 327.347656 191.449219 327.679688 194.140625 326.699219 196.101562 C 320.105469 209.289062 315.378906 220.03125 300.242188 227.597656 C 300.242188 227.597656 295.625 225.078125 295.625 225.078125 C 295.625 223.050781 290.628906 221.53125 289.328125 220.878906 C 289.328125 220.878906 286.804688 217.519531 286.804688 217.519531 C 286.804688 217.519531 281.765625 216.679688 281.765625 216.679688 C 281.765625 216.679688 280.085938 214.160156 280.085938 214.160156 C 277.664062 212.949219 275.050781 212.0625 272.53125 210.800781 C 270.261719 209.667969 267.378906 210.800781 265.8125 210.800781 C 265.8125 210.800781 263.289062 209.121094 263.289062 209.121094 C 263.289062 209.121094 261.609375 210.800781 261.609375 210.800781 C 261.609375 210.800781 258.25 209.121094 258.25 209.121094 C 256.300781 208.148438 247.566406 208.28125 245.65625 208.28125 C 243.527344 208.28125 240.445312 210.800781 238.515625 210.800781 C 238.515625 210.800781 237.675781 210.800781 237.675781 210.800781 C 237.675781 202.425781 215.0625 210.800781 211.21875 210.800781 C 207.664062 210.800781 206.738281 206.878906 204.5 205.761719 C 203.441406 205.230469 198.128906 208.527344 196.945312 209.121094 C 191.863281 211.660156 186.695312 205.847656 181.828125 208.28125 C 178.53125 209.929688 182.960938 217.519531 177.207031 217.519531 C 177.207031 217.519531 175.527344 217.519531 175.527344 217.519531 C 173.96875 217.519531 161.179688 203.90625 152.429688 208.28125 C 152.429688 208.28125 149.070312 210.800781 149.070312 210.800781 C 149.070312 210.800781 140.671875 210.800781 140.671875 210.800781 C 138.984375 211.644531 139.171875 213.652344 138.15625 214.160156 C 135.878906 215.296875 133.214844 217.46875 131.4375 218.359375 C 131.4375 218.359375 128.078125 218.359375 128.078125 218.359375 C 128.078125 218.359375 127.65625 220.460938 127.65625 220.460938 C 127.039062 221.691406 119.054688 225.917969 117.578125 225.917969 C 117.578125 225.917969 116.738281 226.757812 116.738281 226.757812 Z M 116.738281 226.757812 "/>
<path style=" stroke:none;fill-rule:nonzero;fill:rgb(100%,43.137255%,0%);fill-opacity:1;" d="M 247.753906 144.453125 C 247.753906 146.210938 250.898438 144.453125 247.753906 144.453125 Z M 247.753906 144.453125 "/>
<path style=" stroke:none;fill-rule:nonzero;fill:rgb(100%,43.137255%,0%);fill-opacity:1;" d="M 243.554688 146.132812 L 238.515625 154.109375 C 236.128906 158.882812 234.316406 167.1875 234.316406 171.75 C 234.316406 172.78125 237.675781 172.035156 237.675781 170.90625 C 237.675781 169.605469 245.113281 164.609375 248.171875 164.609375 C 251.941406 164.609375 266.386719 165.558594 269.589844 159.148438 C 271.066406 156.199219 265.765625 154.53125 264.96875 154.53125 L 262.871094 153.273438 C 262.871094 147.539062 250.632812 146.132812 243.554688 146.132812 Z M 243.554688 146.132812 "/>
<path style=" stroke:none;fill-rule:nonzero;fill:rgb(100%,43.137255%,0%);fill-opacity:1;" d="M 157.890625 148.652344 C 157.890625 151.472656 149.582031 154.773438 148.652344 156.632812 L 145.292969 157.46875 L 148.652344 158.3125 L 146.132812 159.148438 C 144.902344 161.609375 153.691406 159.578125 153.691406 160.828125 C 153.691406 164.363281 158.316406 160.839844 159.570312 163.351562 C 161.164062 166.535156 161.949219 163.769531 162.507812 163.769531 L 163.351562 165.449219 L 166.710938 165.449219 L 170.90625 167.96875 L 171.75 166.289062 C 175.007812 164.660156 172.917969 160.648438 171.328125 157.46875 L 167.96875 155.789062 C 167.226562 154.308594 166.9375 149.492188 165.03125 149.492188 C 164.105469 149.492188 161.710938 151.191406 159.992188 150.332031 Z M 157.890625 148.652344 "/>
<path style=" stroke:none;fill-rule:nonzero;fill:rgb(100%,43.137255%,0%);fill-opacity:1;" d="M 150.332031 161.25 C 150.332031 164.171875 153.253906 161.25 150.332031 161.25 Z M 150.332031 161.25 "/>
<path style=" stroke:none;fill-rule:nonzero;fill:rgb(88.235295%,94.117647%,5.098039%);fill-opacity:1;" d="M 155.371094 256.152344 C 155.371094 260.769531 175.164062 264.941406 179.304688 262.871094 C 186.789062 259.128906 194.507812 250.1875 200.304688 244.394531 C 202.132812 242.566406 203.730469 235.996094 207.023438 235.996094 L 209.121094 241.453125 L 212.480469 243.976562 C 213.894531 246.800781 212.445312 250.886719 216.257812 252.792969 L 222.976562 254.472656 C 228.851562 257.410156 234.914062 262.871094 241.875 262.871094 C 244.871094 262.871094 252.792969 261.65625 252.792969 257.832031 C 241.625 257.832031 222.980469 256.578125 217.519531 245.65625 C 216.558594 243.734375 220.878906 236.332031 220.878906 233.476562 C 220.878906 233.476562 221.71875 232.636719 221.71875 232.636719 C 221.71875 229.726562 227.859375 220.878906 230.117188 220.878906 C 230.117188 220.878906 230.117188 218.359375 230.117188 218.359375 C 230.117188 218.359375 230.957031 217.519531 230.957031 217.519531 C 230.957031 217.519531 232.636719 216.679688 232.636719 216.679688 C 232.636719 216.679688 233.476562 215.839844 233.476562 215.839844 C 233.476562 214.84375 234.316406 214.84375 234.316406 215.839844 C 235.515625 215.839844 237.675781 211.789062 237.675781 210.800781 C 237.675781 202.425781 215.0625 210.800781 211.21875 210.800781 C 207.664062 210.800781 206.738281 206.878906 204.5 205.761719 C 203.441406 205.230469 198.128906 208.527344 196.945312 209.121094 C 191.863281 211.660156 186.695312 205.847656 181.828125 208.28125 C 178.53125 209.929688 182.960938 217.519531 177.207031 217.519531 C 177.207031 217.519531 176.367188 219.199219 176.367188 219.199219 C 176.367188 222.007812 183.675781 226.679688 184.765625 228.859375 C 186.8125 232.949219 189.65625 236.960938 191.484375 240.617188 C 191.484375 240.617188 190.644531 242.296875 190.644531 242.296875 C 190.644531 246.601562 187.460938 246.617188 183.507812 248.59375 C 183.507812 248.59375 179.304688 252.792969 179.304688 252.792969 C 177.855469 253.519531 158.078125 256.152344 155.371094 256.152344 Z M 155.371094 256.152344 "/>
<path style=" stroke:none;fill-rule:evenodd;fill:rgb(100%,52.941179%,0%);fill-opacity:1;" d="M 172.167969 223.398438 C 172.167969 224.71875 172.253906 228.4375 173.429688 228.4375 L 174.6875 225.917969 C 176.210938 225.917969 176.257812 227.597656 176.789062 227.597656 L 176.789062 223.398438 C 175.429688 223.398438 173.800781 223.398438 172.167969 223.398438 M 163.769531 222.558594 C 163.769531 226.050781 157.050781 227.898438 157.050781 231.375 L 158.730469 232.21875 C 159.882812 234.523438 159.664062 235.738281 162.507812 234.316406 L 163.351562 232.636719 C 165.339844 232.636719 168.980469 236.542969 171.75 235.15625 C 178.886719 231.585938 167.503906 222.558594 163.769531 222.558594 M 113.378906 228.4375 C 113.378906 231.105469 109.824219 236.023438 110.859375 238.09375 L 112.960938 238.515625 L 113.796875 241.035156 C 115.71875 241.996094 115.644531 239.355469 116.320312 239.355469 L 118.835938 244.394531 C 121.082031 245.515625 124.226562 244.988281 126.398438 246.074219 L 125.976562 247.335938 C 125.976562 249.691406 129.589844 248.929688 130.59375 249.433594 C 131.316406 249.792969 129.660156 251.066406 131.4375 251.953125 C 139.023438 255.746094 146.886719 256.152344 155.371094 256.152344 C 158.078125 256.152344 177.855469 253.519531 179.304688 252.792969 C 179.304688 252.792969 183.507812 248.59375 183.507812 248.59375 C 187.460938 246.617188 190.644531 246.601562 190.644531 242.296875 C 190.644531 242.296875 191.484375 240.617188 191.484375 240.617188 C 189.65625 236.960938 186.8125 232.949219 184.765625 228.859375 C 183.675781 226.679688 176.367188 222.007812 176.367188 219.199219 C 176.367188 219.199219 175.527344 217.519531 175.527344 217.519531 C 173.96875 217.519531 161.179688 203.90625 152.429688 208.28125 C 152.429688 208.28125 149.070312 210.800781 149.070312 210.800781 C 149.070312 210.800781 140.671875 210.800781 140.671875 210.800781 C 138.984375 211.644531 139.171875 213.652344 138.15625 214.160156 C 135.878906 215.296875 133.214844 217.46875 131.4375 218.359375 C 131.4375 218.359375 128.078125 218.359375 128.078125 218.359375 C 128.078125 218.359375 127.65625 220.460938 127.65625 220.460938 C 127.039062 221.691406 119.054688 225.917969 117.578125 225.917969 C 117.578125 225.917969 116.738281 226.757812 116.738281 226.757812 C 116.738281 226.757812 113.378906 228.4375 113.378906 228.4375 Z M 113.378906 228.4375 "/>
<path style=" stroke:none;fill-rule:evenodd;fill:rgb(100%,52.941179%,0%);fill-opacity:1;" d="M 243.554688 220.878906 C 243.554688 221.628906 233.84375 227.070312 235.996094 231.375 C 237.65625 234.695312 240.910156 230.957031 241.453125 230.957031 L 242.296875 232.636719 L 244.8125 230.957031 C 246.027344 230.351562 248.3125 231.308594 250.695312 230.117188 L 251.113281 225.5 C 253.359375 221.007812 247.175781 220.878906 243.554688 220.878906 M 220.878906 233.476562 C 220.878906 236.332031 216.558594 243.734375 217.519531 245.65625 C 222.980469 256.578125 241.625 257.832031 252.792969 257.832031 C 258.683594 257.832031 258.328125 255.695312 262.453125 253.632812 C 264.800781 252.457031 268.449219 253.152344 270.851562 251.953125 C 278.894531 247.929688 295.285156 239.613281 298.984375 232.21875 C 300.746094 228.691406 295.625 227.527344 295.625 225.078125 C 295.625 223.050781 290.628906 221.53125 289.328125 220.878906 C 289.328125 220.878906 286.804688 217.519531 286.804688 217.519531 C 286.804688 217.519531 281.765625 216.679688 281.765625 216.679688 C 281.765625 216.679688 280.085938 214.160156 280.085938 214.160156 C 277.664062 212.949219 275.050781 212.0625 272.53125 210.800781 C 270.261719 209.667969 267.378906 210.800781 265.8125 210.800781 C 265.8125 210.800781 263.289062 209.121094 263.289062 209.121094 C 263.289062 209.121094 261.609375 210.800781 261.609375 210.800781 C 261.609375 210.800781 258.25 209.121094 258.25 209.121094 C 256.300781 208.148438 247.566406 208.28125 245.65625 208.28125 C 243.527344 208.28125 240.445312 210.800781 238.515625 210.800781 C 238.515625 210.800781 239.355469 213.742188 239.355469 213.742188 C 239.355469 213.742188 230.957031 220.878906 230.957031 220.878906 C 230.957031 220.878906 230.117188 220.878906 230.117188 220.878906 C 227.859375 220.878906 221.71875 229.726562 221.71875 232.636719 C 221.71875 232.636719 220.878906 233.476562 220.878906 233.476562 M 231.796875 221.71875 L 230.957031 222.976562 C 230.957031 230.183594 239.609375 221.71875 232.636719 221.71875 C 232.636719 221.71875 230.957031 220.878906 230.957031 220.878906 C 230.957031 220.878906 231.796875 221.71875 231.796875 221.71875 Z M 231.796875 221.71875 "/>
<path style=" stroke:none;fill-rule:nonzero;fill:rgb(100%,52.941179%,0%);fill-opacity:1;" d="M 233.476562 215.839844 L 234.316406 215.839844 C 234.316406 214.84375 233.476562 214.84375 233.476562 215.839844 Z M 233.476562 215.839844 "/>
<path style=" stroke:none;fill-rule:nonzero;fill:rgb(100%,52.941179%,0%);fill-opacity:1;" d="M 233.476562 215.839844 L 232.636719 216.679688 C 232.636719 216.679688 233.476562 215.839844 233.476562 215.839844 Z M 233.476562 215.839844 "/>
<path style=" stroke:none;fill-rule:nonzero;fill:rgb(0.784314%,17.254902%,100%);fill-opacity:1;" d="M 177.207031 217.519531 L 176.367188 219.199219 C 176.367188 219.199219 175.527344 217.519531 175.527344 217.519531 C 175.527344 217.519531 177.207031 217.519531 177.207031 217.519531 Z M 177.207031 217.519531 "/>
<path style=" stroke:none;fill-rule:nonzero;fill:rgb(100%,52.941179%,0%);fill-opacity:1;" d="M 230.957031 217.519531 L 230.117188 218.359375 C 230.117188 218.359375 230.957031 217.519531 230.957031 217.519531 Z M 230.957031 217.519531 "/>
<path style=" stroke:none;fill-rule:nonzero;fill:rgb(0.784314%,17.254902%,100%);fill-opacity:1;" d="M 231.796875 221.71875 L 232.636719 221.71875 C 232.636719 221.71875 230.957031 220.878906 230.957031 220.878906 C 230.957031 220.878906 231.796875 221.71875 231.796875 221.71875 Z M 231.796875 221.71875 "/>
<path style=" stroke:none;fill-rule:nonzero;fill:rgb(100%,30.980393%,80.784315%);fill-opacity:1;" d="M 243.554688 220.878906 C 243.554688 221.628906 233.84375 227.070312 235.996094 231.375 C 237.65625 234.695312 240.910156 230.957031 241.453125 230.957031 L 242.296875 232.636719 L 244.8125 230.957031 C 246.027344 230.351562 248.3125 231.308594 250.695312 230.117188 L 251.113281 225.5 C 253.359375 221.007812 247.175781 220.878906 243.554688 220.878906 Z M 243.554688 220.878906 "/>
<path style=" stroke:none;fill-rule:nonzero;fill:rgb(50.588238%,30.980393%,100%);fill-opacity:1;" d="M 231.796875 221.71875 L 232.636719 221.71875 C 239.609375 221.71875 230.957031 230.183594 230.957031 222.976562 C 230.957031 222.976562 231.796875 221.71875 231.796875 221.71875 Z M 231.796875 221.71875 "/>
<path style=" stroke:none;fill-rule:nonzero;fill:rgb(100%,30.980393%,80.784315%);fill-opacity:1;" d="M 163.769531 222.558594 C 163.769531 226.050781 157.050781 227.898438 157.050781 231.375 L 158.730469 232.21875 C 159.882812 234.523438 159.664062 235.738281 162.507812 234.316406 L 163.351562 232.636719 C 165.339844 232.636719 168.980469 236.542969 171.75 235.15625 C 178.886719 231.585938 167.503906 222.558594 163.769531 222.558594 Z M 163.769531 222.558594 "/>
<path style=" stroke:none;fill-rule:nonzero;fill:rgb(50.588238%,30.980393%,100%);fill-opacity:1;" d="M 172.167969 223.398438 C 172.167969 224.71875 172.253906 228.4375 173.429688 228.4375 L 174.6875 225.917969 C 176.210938 225.917969 176.257812 227.597656 176.789062 227.597656 L 176.789062 223.398438 C 175.429688 223.398438 173.800781 223.398438 172.167969 223.398438 Z M 172.167969 223.398438 "/>
<path style=" stroke:none;fill-rule:nonzero;fill:rgb(18.82353%,85.490197%,0%);fill-opacity:1;" d="M 195.683594 262.871094 C 195.683594 264.671875 192.105469 263.191406 191.0625 263.710938 C 187.667969 265.410156 185.617188 271.484375 190.226562 273.789062 L 191.90625 272.949219 C 193.25 272.949219 195.949219 273.789062 196.945312 273.789062 C 200.648438 273.789062 203.160156 262.871094 195.683594 262.871094 Z M 195.683594 262.871094 "/>
<path style=" stroke:none;fill-rule:nonzero;fill:rgb(14.901961%,49.411765%,100%);fill-opacity:1;" d="M 216.679688 264.550781 L 215.839844 265.390625 C 215.839844 265.390625 216.679688 264.550781 216.679688 264.550781 Z M 216.679688 264.550781 "/>
<path style=" stroke:none;fill-rule:nonzero;fill:rgb(18.82353%,85.490197%,0%);fill-opacity:1;" d="M 220.039062 273.789062 L 222.558594 273.789062 C 222.558594 273.789062 222.558594 272.949219 222.558594 272.949219 C 222.558594 272.949219 223.398438 272.109375 223.398438 272.109375 C 223.398438 272.109375 225.078125 267.910156 225.078125 267.910156 C 225.078125 267.910156 222.140625 264.550781 222.140625 264.550781 C 221.0625 264.011719 217.578125 264.550781 216.679688 264.550781 C 216.679688 264.550781 215.839844 265.390625 215.839844 265.390625 C 215.839844 265.390625 215 267.070312 215 267.070312 C 215 267.070312 215.839844 272.109375 215.839844 272.109375 C 215.839844 275.976562 219.199219 269.660156 219.199219 272.949219 C 219.199219 272.949219 220.039062 273.789062 220.039062 273.789062 Z M 220.039062 273.789062 "/>
<path style=" stroke:none;fill-rule:nonzero;fill:rgb(14.901961%,49.411765%,100%);fill-opacity:1;" d="M 225.078125 267.910156 L 223.398438 272.109375 C 230.960938 272.109375 225.078125 264.066406 225.078125 267.910156 Z M 225.078125 267.910156 "/>
<path style=" stroke:none;fill-rule:nonzero;fill:rgb(14.901961%,49.411765%,100%);fill-opacity:1;" d="M 215 267.070312 C 212.488281 267.070312 214.078125 272.109375 215.839844 272.109375 C 215.839844 272.109375 215 267.070312 215 267.070312 Z M 215 267.070312 "/>
<path style=" stroke:none;fill-rule:nonzero;fill:rgb(98.039216%,50.196081%,44.705883%);fill-opacity:1;" d="M 255.3125 272.109375 L 253.632812 274.210938 C 253.503906 274.46875 254.050781 284.285156 254.472656 285.125 C 255.578125 287.339844 257.671875 286.484375 258.671875 288.484375 C 260.066406 291.277344 259.164062 298.109375 264.132812 295.625 C 267.285156 294.046875 265.542969 288.789062 264.550781 286.804688 C 262.941406 283.589844 268.339844 277.574219 262.453125 274.628906 L 259.929688 274.628906 C 257.792969 273.558594 257.988281 272.109375 255.3125 272.109375 Z M 255.3125 272.109375 "/>
<path style=" stroke:none;fill-rule:nonzero;fill:rgb(14.901961%,49.411765%,100%);fill-opacity:1;" d="M 219.199219 272.949219 L 220.039062 273.789062 C 218.292969 273.789062 216.53125 272.949219 219.199219 272.949219 Z M 219.199219 272.949219 "/>
<path style=" stroke:none;fill-rule:nonzero;fill:rgb(14.901961%,49.411765%,100%);fill-opacity:1;" d="M 222.558594 272.949219 C 226.15625 272.949219 226.15625 273.789062 222.558594 273.789062 C 222.558594 273.789062 222.558594 272.949219 222.558594 272.949219 Z M 222.558594 272.949219 "/>
<path style=" stroke:none;fill-rule:nonzero;fill:rgb(98.039216%,50.196081%,44.705883%);fill-opacity:1;" d="M 159.570312 273.789062 C 159.570312 276.019531 156.378906 274.628906 155.789062 274.628906 C 154.597656 274.628906 152.722656 280.652344 154.109375 281.347656 C 161.625 285.101562 164.242188 273.789062 159.570312 273.789062 Z M 159.570312 273.789062 "/>
<path style=" stroke:none;fill-rule:nonzero;fill:rgb(98.039216%,50.196081%,44.705883%);fill-opacity:1;" d="M 240.195312 306.542969 C 240.195312 307.359375 236.652344 309.007812 235.996094 310.320312 C 235.089844 312.136719 236.835938 321.910156 236.835938 324.179688 C 236.835938 325.527344 235.089844 327.824219 235.996094 329.640625 C 239.851562 337.347656 244.902344 330.101562 246.492188 330.898438 C 248.855469 332.078125 254.125 335.375 256.152344 331.320312 C 257 329.621094 252.511719 328.527344 253.632812 326.28125 C 255.523438 322.5 262.460938 324.582031 265.390625 318.71875 C 267.125 315.253906 263.1875 311.949219 260.773438 310.742188 C 259.042969 309.878906 257.832031 312.421875 256.570312 312.421875 L 253.210938 308.222656 C 250.496094 306.863281 248.570312 310.941406 246.492188 309.902344 C 244.363281 308.835938 243.65625 306.542969 240.195312 306.542969 Z M 240.195312 306.542969 "/>
<path style=" stroke:none;fill-rule:evenodd;fill:rgb(98.039216%,50.196081%,44.705883%);fill-opacity:1;" d="M 154.53125 325.019531 C 154.53125 328.164062 156.289062 325.019531 154.53125 325.019531 M 175.527344 310.742188 C 175.527344 312.1875 171.128906 312.730469 170.070312 313.261719 C 168.769531 313.910156 160.722656 315.78125 159.992188 315.78125 L 156.632812 312.421875 C 155.648438 311.929688 147.558594 314.191406 146.972656 315.359375 C 145.238281 318.835938 150.332031 320.398438 150.332031 322.921875 C 150.332031 324.75 146.328125 325.828125 147.8125 328.796875 C 152.03125 337.238281 155.464844 324.4375 159.992188 326.699219 C 161.539062 327.472656 162.457031 331.710938 164.1875 332.578125 L 171.75 335.9375 L 175.109375 335.097656 C 177.171875 336.128906 180.078125 335.652344 181.40625 333 L 180.566406 326.28125 C 183.078125 321.253906 182.589844 310.742188 175.527344 310.742188 Z M 175.527344 310.742188 "/>
</g>
</svg>
