<?xml version="1.0" encoding="UTF-8"?>
<svg xmlns="http://www.w3.org/2000/svg" xmlns:xlink="http://www.w3.org/1999/xlink" width="430px" height="430px" viewBox="0 0 430 430" version="1.1">
<g id="surface1">
<rect x="0" y="0" width="430" height="430" style="fill:rgb(0%,0%,0%);fill-opacity:1;stroke:none;"/>
<path style=" stroke:none;fill-rule:nonzero;fill:rgb(1.176471%,75.686276%,17.647059%);fill-opacity:1;" d="M 376.25 197.363281 C 379.230469 197.363281 378.769531 191.414062 378.769531 189.382812 C 378.769531 180.140625 378.769531 173.179688 378.769531 164.609375 C 378.769531 156.019531 377.136719 139.089844 373.730469 132.273438 L 368.691406 127.234375 L 368.691406 123.875 L 361.132812 111.28125 C 359.296875 107.605469 354.28125 106.816406 352.734375 103.71875 L 343.914062 94.902344 C 332.199219 89.042969 326.207031 83.949219 314.523438 78.105469 L 309.484375 73.90625 C 307.148438 72.738281 304.339844 72.597656 301.921875 71.386719 L 297.726562 72.226562 C 292.449219 69.589844 287.070312 67.320312 281.765625 64.667969 L 272.53125 64.667969 C 269.421875 63.113281 249.171875 61.648438 246.492188 62.988281 L 243.976562 61.308594 C 243.679688 61.160156 222.410156 60.753906 221.296875 61.308594 C 214.464844 64.722656 209.769531 67.074219 204.5 69.707031 L 200.304688 74.746094 L 196.523438 71.804688 C 195.140625 69.039062 188.390625 63.75 185.1875 62.148438 C 180.996094 60.054688 157.933594 60.65625 154.953125 62.148438 C 150.476562 64.386719 147.492188 63.359375 143.195312 65.507812 L 138.992188 64.667969 C 135.503906 66.414062 132.441406 67.945312 128.914062 69.707031 L 123.875 68.867188 C 121.347656 70.132812 118.796875 70.988281 116.320312 72.226562 C 115.382812 72.695312 110.503906 71.773438 107.921875 73.066406 C 101.453125 76.300781 96.355469 81.367188 89.445312 84.824219 L 84.40625 83.984375 L 82.726562 87.34375 C 79.984375 88.714844 76.976562 90.21875 74.328125 91.542969 L 72.648438 94.0625 C 67.566406 96.601562 65.808594 101.261719 61.726562 103.300781 C 60.339844 103.996094 58.949219 102.558594 57.949219 104.5625 L 57.949219 107.078125 C 57.542969 107.894531 51.175781 112.226562 50.390625 113.796875 C 48.003906 118.570312 45.613281 121.671875 43.671875 125.554688 L 41.152344 127.234375 C 38.097656 133.347656 36.808594 139.285156 33.59375 145.710938 C 32.914062 147.074219 34.433594 148.234375 34.433594 149.070312 L 32.753906 149.914062 C 32.253906 150.910156 32.453125 152.191406 31.914062 153.273438 C 31.011719 155.078125 30.234375 173.535156 30.234375 175.945312 C 30.234375 178.472656 27.789062 187.847656 28.554688 189.382812 C 28.898438 190.074219 31.074219 198.726562 31.074219 199.042969 C 36.527344 199.042969 42.046875 195.445312 46.609375 193.164062 C 48.316406 192.3125 50.484375 194.003906 51.648438 194.003906 C 51.648438 194.003906 53.328125 190.644531 53.328125 190.644531 C 55.363281 189.628906 56.394531 194.003906 57.53125 194.003906 C 60.25 194.003906 58.316406 192.351562 60.046875 191.484375 C 61.546875 190.734375 65.507812 190.859375 65.507812 189.804688 C 65.507812 189.804688 67.1875 188.964844 67.1875 188.964844 C 67.1875 188.964844 68.027344 188.125 68.027344 188.125 C 68.027344 188.125 67.1875 187.285156 67.1875 187.285156 C 67.1875 184.308594 67.828125 182.226562 68.867188 180.148438 C 71.296875 175.289062 68.078125 167.445312 70.546875 162.507812 C 75.351562 152.898438 80.824219 140.277344 86.503906 128.914062 C 86.503906 128.914062 104.5625 110.859375 104.5625 110.859375 C 105.757812 110.261719 112.539062 107.828125 112.539062 106.660156 C 112.539062 106.660156 114.21875 105.820312 114.21875 105.820312 C 114.21875 105.820312 115.058594 105.820312 115.058594 105.820312 C 115.058594 105.820312 116.738281 104.980469 116.738281 104.980469 C 120.730469 104.980469 123.59375 100.921875 127.234375 99.101562 C 127.234375 99.101562 131.4375 99.941406 131.4375 99.941406 C 133.945312 98.6875 136.957031 98.261719 138.992188 98.261719 C 138.992188 98.261719 146.554688 94.902344 146.554688 94.902344 C 148.941406 93.707031 174.589844 88.183594 177.625 88.183594 C 177.625 88.183594 182.246094 94.484375 182.246094 94.484375 C 188.492188 100.726562 185.878906 103.648438 195.265625 108.339844 C 199.304688 110.363281 210.5 107.441406 213.742188 105.820312 C 215.703125 104.839844 215.070312 101.898438 215.839844 100.359375 C 215.839844 100.359375 220.039062 96.164062 220.039062 96.164062 C 221.019531 94.203125 219.527344 88.183594 222.976562 88.183594 C 227.160156 88.183594 255.039062 92.875 259.09375 94.902344 C 263.421875 97.066406 276.015625 95.804688 280.929688 98.261719 C 284.878906 100.238281 290.117188 103.300781 294.785156 103.300781 C 297.816406 103.300781 300.664062 102.980469 300.664062 106.660156 C 300.664062 106.660156 301.503906 106.660156 301.503906 106.660156 C 301.503906 106.660156 303.183594 108.339844 303.183594 108.339844 C 305.296875 108.339844 305.144531 110.859375 307.382812 110.859375 C 308.269531 110.859375 309.925781 111.699219 308.222656 111.699219 C 308.222656 113.371094 314.941406 114.625 314.941406 117.578125 C 314.941406 117.578125 315.78125 118.417969 315.78125 118.417969 C 317.167969 118.417969 325.117188 126.59375 325.859375 128.078125 C 325.859375 128.078125 325.4375 131.015625 325.4375 131.015625 C 330.425781 133.511719 331.75 140.699219 334.257812 145.710938 C 334.257812 145.710938 335.9375 145.710938 335.9375 145.710938 C 335.9375 145.710938 335.9375 153.273438 335.9375 153.273438 C 335.9375 153.273438 337.617188 153.273438 337.617188 153.273438 C 337.617188 153.273438 337.617188 157.46875 337.617188 157.46875 C 337.617188 157.46875 339.296875 156.632812 339.296875 156.632812 C 339.296875 156.632812 339.296875 165.867188 339.296875 165.867188 C 341.691406 170.660156 342.65625 179.773438 342.65625 188.125 C 342.65625 188.125 348.953125 190.644531 348.953125 190.644531 C 350.214844 190.644531 351.535156 188.15625 353.15625 188.964844 C 358.4375 191.605469 363.914062 193.085938 369.109375 195.683594 C 370.949219 196.601562 376.25 193.539062 376.25 197.363281 Z M 376.25 197.363281 "/>
<path style=" stroke:none;fill-rule:evenodd;fill:rgb(100%,43.137255%,0%);fill-opacity:1;" d="M 284.707031 104.980469 C 284.707031 107.097656 293.804688 110.578125 296.046875 111.699219 L 299.40625 113.378906 L 296.046875 110.019531 C 292.703125 108.347656 288.640625 104.980469 284.707031 104.980469 M 79.785156 226.757812 C 79.785156 229.492188 81.945312 230.117188 83.144531 230.117188 C 83.144531 226.660156 77.652344 211.152344 74.746094 205.34375 C 71.640625 199.125 78.105469 191.015625 78.105469 185.605469 C 77.109375 185.605469 77.109375 184.765625 78.105469 184.765625 C 78.105469 184.765625 78.105469 180.566406 78.105469 180.566406 C 76.636719 180.566406 76.425781 178.21875 76.425781 177.625 C 76.425781 177.625 79.785156 175.109375 79.785156 175.109375 C 80.378906 173.921875 80.625 167.339844 80.625 166.289062 C 78.105469 166.289062 81.464844 163.992188 81.464844 163.769531 C 79.84375 163.769531 81.464844 162.792969 81.464844 162.089844 C 81.464844 160.410156 80.132812 157.050781 82.304688 157.050781 C 82.304688 142.324219 103.144531 110.859375 120.097656 110.859375 C 123.65625 110.859375 128.328125 107.375 131.4375 105.820312 C 131.4375 105.820312 140.671875 104.980469 140.671875 104.980469 C 149.484375 100.574219 164.867188 107.59375 168.808594 115.476562 C 170.207031 118.28125 175.527344 121.632812 175.527344 124.296875 C 175.527344 124.296875 180.984375 129.335938 180.984375 129.335938 C 182.390625 129.335938 184.480469 128.496094 186.445312 128.496094 C 186.445312 128.496094 187.285156 127.65625 187.285156 127.65625 C 187.285156 127.65625 188.964844 126.816406 188.964844 126.816406 C 188.964844 126.816406 189.804688 126.816406 189.804688 126.816406 C 189.804688 125.578125 191.445312 125.976562 192.324219 125.976562 C 192.324219 125.976562 197.363281 125.976562 197.363281 125.976562 C 198.242188 125.976562 199.882812 125.578125 199.882812 126.816406 C 199.882812 126.816406 200.722656 126.816406 200.722656 126.816406 C 200.722656 126.816406 204.082031 126.816406 204.082031 126.816406 C 204.082031 126.816406 210.800781 125.136719 210.800781 125.136719 C 210.800781 125.136719 212.480469 125.136719 212.480469 125.136719 C 212.480469 125.136719 216.679688 125.136719 216.679688 125.136719 C 217.558594 125.136719 219.199219 124.738281 219.199219 125.976562 C 219.199219 125.976562 220.039062 126.816406 220.039062 126.816406 C 220.039062 126.816406 221.71875 126.816406 221.71875 126.816406 C 221.71875 126.816406 225.917969 125.136719 225.917969 125.136719 C 225.917969 125.136719 226.757812 124.296875 226.757812 124.296875 C 226.757812 124.296875 228.4375 122.617188 228.4375 122.617188 C 228.4375 122.617188 230.957031 120.097656 230.957031 120.097656 C 230.957031 120.097656 231.796875 119.257812 231.796875 119.257812 C 231.796875 119.257812 232.636719 118.417969 232.636719 118.417969 C 232.636719 118.417969 233.476562 117.578125 233.476562 117.578125 C 233.476562 117.578125 234.316406 116.738281 234.316406 116.738281 C 234.316406 116.738281 235.15625 115.058594 235.15625 115.058594 C 235.15625 115.058594 235.996094 114.21875 235.996094 114.21875 C 235.996094 114.21875 236.835938 112.539062 236.835938 112.539062 C 236.835938 112.539062 238.515625 109.179688 238.515625 109.179688 C 238.515625 107.855469 239.996094 107.5 241.035156 107.5 C 241.035156 107.5 241.875 106.660156 241.875 106.660156 C 241.875 106.660156 243.554688 105.820312 243.554688 105.820312 C 243.554688 103.101562 255.679688 99.492188 258.25 100.78125 C 263.699219 103.503906 271.3125 101.433594 276.726562 104.140625 C 279.785156 105.667969 301.730469 116.738281 303.183594 116.738281 C 303.183594 116.738281 304.023438 117.578125 304.023438 117.578125 C 305.265625 117.578125 304.683594 119.257812 306.542969 119.257812 C 306.542969 119.257812 307.382812 120.097656 307.382812 120.097656 C 307.382812 121.390625 308.511719 122.617188 309.902344 122.617188 C 309.902344 122.617188 308.222656 119.679688 308.222656 119.679688 C 308.222656 118.621094 310.902344 119.96875 311.164062 120.097656 C 311.164062 120.097656 313.679688 123.457031 313.679688 123.457031 C 316.425781 124.828125 322.148438 135.214844 323.339844 135.214844 C 325.199219 135.214844 325.199219 136.054688 323.339844 136.054688 C 323.339844 136.054688 325.859375 141.09375 325.859375 141.09375 C 325.859375 139.316406 327.539062 143.414062 327.539062 144.453125 C 327.539062 149.707031 331.738281 153.777344 331.738281 159.148438 C 331.738281 160.4375 331.882812 163.769531 333.417969 163.769531 C 333.417969 159.785156 334.601562 166.558594 335.097656 167.546875 C 336.050781 169.457031 334.257812 176.921875 334.257812 171.328125 C 334.257812 171.328125 333.417969 171.328125 333.417969 171.328125 C 333.417969 171.328125 333.417969 180.566406 333.417969 180.566406 C 333.417969 180.566406 333.417969 210.800781 333.417969 210.800781 C 333.417969 210.800781 334.257812 215 334.257812 215 C 334.257812 215 335.097656 218.359375 335.097656 218.359375 C 335.097656 218.359375 335.9375 218.359375 335.9375 218.359375 C 337.609375 218.359375 337.070312 213.992188 337.617188 212.898438 C 339.199219 209.738281 342.65625 191.855469 342.65625 188.125 C 342.65625 179.773438 341.691406 170.660156 339.296875 165.867188 C 339.296875 165.867188 339.296875 156.632812 339.296875 156.632812 C 339.296875 156.632812 337.617188 157.46875 337.617188 157.46875 C 337.617188 157.46875 337.617188 153.273438 337.617188 153.273438 C 337.617188 153.273438 335.9375 153.273438 335.9375 153.273438 C 335.9375 153.273438 335.9375 145.710938 335.9375 145.710938 C 335.9375 145.710938 334.257812 145.710938 334.257812 145.710938 C 331.75 140.699219 330.425781 133.511719 325.4375 131.015625 C 325.4375 131.015625 325.859375 128.078125 325.859375 128.078125 C 325.117188 126.59375 317.167969 118.417969 315.78125 118.417969 C 315.78125 118.417969 314.941406 117.578125 314.941406 117.578125 C 314.941406 114.625 308.222656 113.371094 308.222656 111.699219 C 308.222656 111.699219 307.382812 110.859375 307.382812 110.859375 C 305.144531 110.859375 305.296875 108.339844 303.183594 108.339844 C 301.714844 108.339844 301.503906 108.128906 301.503906 106.660156 C 301.503906 106.660156 300.664062 106.660156 300.664062 106.660156 C 299.621094 106.660156 294.785156 104.136719 294.785156 103.300781 C 290.117188 103.300781 284.878906 100.238281 280.929688 98.261719 C 276.015625 95.804688 263.421875 97.066406 259.09375 94.902344 C 255.039062 92.875 227.160156 88.183594 222.976562 88.183594 C 219.527344 88.183594 221.019531 94.203125 220.039062 96.164062 C 220.039062 96.164062 215.839844 100.359375 215.839844 100.359375 C 215.070312 101.898438 215.703125 104.839844 213.742188 105.820312 C 210.5 107.441406 199.304688 110.363281 195.265625 108.339844 C 185.878906 103.648438 188.492188 100.726562 182.246094 94.484375 C 182.246094 94.484375 177.625 88.183594 177.625 88.183594 C 174.589844 88.183594 148.941406 93.707031 146.554688 94.902344 C 146.554688 94.902344 138.992188 98.261719 138.992188 98.261719 C 136.957031 98.261719 133.945312 98.6875 131.4375 99.941406 C 131.4375 99.941406 127.234375 99.101562 127.234375 99.101562 C 123.59375 100.921875 120.730469 104.980469 116.738281 104.980469 C 116.738281 104.980469 115.058594 105.820312 115.058594 105.820312 C 115.058594 105.820312 114.21875 105.820312 114.21875 105.820312 C 114.21875 105.820312 112.539062 106.660156 112.539062 106.660156 C 112.539062 107.828125 105.757812 110.261719 104.5625 110.859375 C 104.5625 110.859375 86.503906 128.914062 86.503906 128.914062 C 80.824219 140.277344 75.351562 152.898438 70.546875 162.507812 C 68.078125 167.445312 71.296875 175.289062 68.867188 180.148438 C 67.828125 182.226562 67.1875 184.308594 67.1875 187.285156 C 67.1875 187.285156 68.027344 188.125 68.027344 188.125 C 68.027344 188.125 67.1875 188.964844 67.1875 188.964844 C 67.1875 188.964844 67.1875 189.804688 67.1875 189.804688 C 67.222656 189.804688 68.867188 193.195312 68.867188 193.585938 C 68.867188 193.585938 67.1875 195.265625 67.1875 195.265625 C 67.1875 201.082031 71.429688 206.269531 73.90625 211.21875 C 74.425781 212.261719 72.945312 215.839844 74.746094 215.839844 C 74.746094 214.328125 77.265625 219.382812 77.265625 220.878906 C 77.265625 222.796875 79.785156 224.277344 79.785156 226.757812 Z M 79.785156 226.757812 "/>
<path style=" stroke:none;fill-rule:nonzero;fill:rgb(5.490196%,27.843139%,88.627452%);fill-opacity:1;" d="M 272.109375 241.875 C 272.109375 243.550781 270.429688 246.0625 270.429688 248.59375 C 273.242188 248.59375 276.824219 253.164062 280.929688 251.113281 C 285.757812 248.695312 289.121094 250.375 291.007812 249.433594 C 304.234375 242.820312 317.699219 241.816406 325.019531 227.179688 C 327.023438 223.171875 332.578125 218.820312 332.578125 214.160156 C 332.578125 213.199219 332.09375 210.800781 333.417969 210.800781 C 333.417969 210.800781 333.417969 180.566406 333.417969 180.566406 C 331.238281 180.566406 331.578125 174.785156 330.898438 173.429688 C 328.546875 168.730469 326.699219 159.953125 326.699219 154.53125 C 326.699219 154.53125 325.859375 148.652344 325.859375 148.652344 C 325.859375 148.652344 325.019531 146.972656 325.019531 146.972656 C 325.019531 146.972656 324.179688 143.613281 324.179688 143.613281 C 324.179688 143.613281 323.339844 142.773438 323.339844 142.773438 C 323.339844 141.898438 322.511719 138.574219 321.660156 138.574219 C 321.660156 138.574219 320.820312 136.894531 320.820312 136.894531 C 320.820312 136.894531 320.820312 136.054688 320.820312 136.054688 C 320.820312 136.054688 319.980469 135.214844 319.980469 135.214844 C 318.058594 135.214844 314.941406 130.027344 314.941406 128.496094 C 314.941406 128.496094 314.941406 127.65625 314.941406 127.65625 C 314.941406 127.65625 314.101562 126.816406 314.101562 126.816406 C 314.101562 126.816406 312.421875 125.136719 312.421875 125.136719 C 312.421875 125.136719 310.742188 123.457031 310.742188 123.457031 C 310.742188 123.457031 309.902344 122.617188 309.902344 122.617188 C 308.511719 122.617188 307.382812 121.390625 307.382812 120.097656 C 307.382812 120.097656 306.542969 119.257812 306.542969 119.257812 C 304.683594 119.257812 305.265625 117.578125 304.023438 117.578125 C 304.023438 117.578125 303.183594 116.738281 303.183594 116.738281 C 301.730469 116.738281 279.785156 105.667969 276.726562 104.140625 C 271.3125 101.433594 263.699219 103.503906 258.25 100.78125 C 255.679688 99.492188 243.554688 103.101562 243.554688 105.820312 C 243.554688 105.820312 241.875 106.660156 241.875 106.660156 C 241.875 106.660156 241.035156 107.5 241.035156 107.5 C 241.035156 108.824219 239.554688 109.179688 238.515625 109.179688 C 238.515625 109.179688 236.835938 112.539062 236.835938 112.539062 C 236.835938 112.539062 235.996094 114.21875 235.996094 114.21875 C 235.996094 114.21875 235.15625 115.058594 235.15625 115.058594 C 235.15625 115.058594 234.316406 116.738281 234.316406 116.738281 C 234.316406 116.738281 233.476562 117.578125 233.476562 117.578125 C 233.476562 117.578125 232.636719 118.417969 232.636719 118.417969 C 232.636719 118.417969 232.636719 119.257812 232.636719 119.257812 C 234.625 119.257812 235.847656 124.433594 237.257812 125.136719 C 239.375 126.195312 240.519531 128.449219 242.296875 129.335938 C 242.296875 129.335938 244.394531 129.757812 244.394531 129.757812 C 244.542969 130.050781 242.03125 136.054688 241.875 136.054688 C 241.875 141.390625 241.316406 142.773438 246.074219 142.773438 C 246.074219 142.773438 250.273438 142.773438 250.273438 142.773438 C 250.273438 142.773438 251.113281 142.773438 251.113281 142.773438 C 251.113281 142.773438 261.191406 141.933594 261.191406 141.933594 C 261.191406 141.933594 262.03125 142.773438 262.03125 142.773438 C 262.03125 142.773438 263.710938 142.773438 263.710938 142.773438 C 263.710938 142.773438 264.550781 143.613281 264.550781 143.613281 C 269.273438 143.613281 274.203125 145.292969 279.667969 145.292969 C 285.3125 145.292969 304.023438 157.847656 304.023438 165.449219 C 304.023438 165.449219 304.863281 167.96875 304.863281 167.96875 C 304.863281 167.96875 305.703125 168.808594 305.703125 168.808594 C 305.703125 168.808594 305.703125 169.648438 305.703125 169.648438 C 305.703125 169.648438 306.542969 170.488281 306.542969 170.488281 C 306.542969 170.488281 306.542969 172.167969 306.542969 172.167969 C 308.054688 172.167969 309.0625 177.496094 309.0625 178.886719 C 309.0625 178.886719 309.0625 183.085938 309.0625 183.085938 C 310.351562 183.085938 310.351562 186.445312 309.0625 186.445312 C 309.0625 191.363281 305.703125 195.28125 305.703125 197.363281 C 305.703125 197.363281 304.863281 198.203125 304.863281 198.203125 C 304.863281 198.203125 304.863281 199.042969 304.863281 199.042969 C 304.863281 199.042969 304.023438 199.882812 304.023438 199.882812 C 304.023438 199.882812 304.023438 200.722656 304.023438 200.722656 C 304.023438 200.722656 303.183594 201.5625 303.183594 201.5625 C 303.183594 201.5625 302.34375 203.242188 302.34375 203.242188 C 302.34375 203.242188 301.503906 204.082031 301.503906 204.082031 C 301.503906 204.082031 301.503906 204.921875 301.503906 204.921875 C 301.503906 204.921875 300.664062 205.761719 300.664062 205.761719 C 300.664062 205.761719 299.824219 208.28125 299.824219 208.28125 C 299.824219 208.28125 298.144531 209.960938 298.144531 209.960938 C 298.144531 209.960938 297.304688 211.640625 297.304688 211.640625 C 297.304688 211.640625 297.304688 212.480469 297.304688 212.480469 C 297.304688 212.480469 296.464844 213.320312 296.464844 213.320312 C 296.464844 213.320312 295.625 214.160156 295.625 214.160156 C 295.625 215.523438 293.628906 217.519531 292.265625 217.519531 C 292.265625 217.519531 283.867188 226.757812 283.867188 226.757812 C 283.867188 226.757812 283.027344 227.597656 283.027344 227.597656 C 283.027344 227.597656 282.1875 228.4375 282.1875 228.4375 C 282.1875 228.4375 281.347656 229.277344 281.347656 229.277344 C 281.347656 229.277344 280.507812 230.957031 280.507812 230.957031 C 280.507812 230.957031 277.988281 234.316406 277.988281 234.316406 C 277.988281 234.316406 276.308594 235.996094 276.308594 235.996094 C 276.308594 235.996094 274.628906 238.515625 274.628906 238.515625 C 274.628906 238.515625 272.949219 240.195312 272.949219 240.195312 C 272.949219 240.195312 272.109375 241.875 272.109375 241.875 Z M 272.109375 241.875 "/>
<path style=" stroke:none;fill-rule:nonzero;fill:rgb(5.490196%,27.843139%,88.627452%);fill-opacity:1;" d="M 83.984375 231.796875 C 86.960938 231.796875 89.175781 239.640625 91.960938 241.035156 C 97.417969 243.761719 103.253906 245.839844 108.757812 248.59375 L 123.039062 250.273438 C 124.628906 251.070312 132.332031 253.605469 133.953125 252.792969 C 137.667969 250.9375 134.375 247.390625 134.375 245.234375 C 133.96875 245.234375 127.945312 236.152344 127.65625 235.578125 C 127.65625 235.578125 117.578125 225.078125 117.578125 225.078125 C 117.578125 225.078125 116.738281 224.238281 116.738281 224.238281 C 116.738281 224.238281 114.21875 221.71875 114.21875 221.71875 C 114.21875 221.71875 113.378906 220.039062 113.378906 220.039062 C 111.503906 220.039062 109.789062 215.796875 109.179688 214.578125 C 109.179688 214.578125 104.980469 211.21875 104.980469 211.21875 C 102.96875 207.195312 100.21875 203.378906 98.261719 199.460938 C 98.261719 199.460938 96.582031 198.625 96.582031 198.625 C 96.582031 198.625 98.261719 197.363281 98.261719 197.363281 C 98.261719 197.363281 96.582031 196.523438 96.582031 196.523438 C 96.582031 196.523438 95.742188 195.683594 95.742188 195.683594 C 95.742188 195.683594 92.382812 187.703125 92.382812 187.703125 C 90.84375 184.628906 94.417969 174.6875 99.101562 174.6875 C 99.101562 171.773438 104.980469 170.066406 104.980469 167.96875 C 103.984375 167.96875 103.984375 167.128906 104.980469 167.128906 C 104.980469 167.128906 108.339844 163.769531 108.339844 163.769531 C 108.339844 163.769531 109.179688 162.929688 109.179688 162.929688 C 109.179688 160.953125 112.015625 157.050781 114.21875 157.050781 C 114.21875 155.453125 117.855469 152.851562 119.257812 152.851562 C 119.257812 152.851562 120.097656 152.011719 120.097656 152.011719 C 120.097656 152.011719 122.617188 150.332031 122.617188 150.332031 C 122.617188 150.332031 124.296875 149.492188 124.296875 149.492188 C 124.296875 149.492188 125.976562 149.492188 125.976562 149.492188 C 125.976562 148.253906 127.617188 148.652344 128.496094 148.652344 C 128.496094 147.488281 137.808594 146.972656 139.414062 146.972656 C 139.414062 146.972656 141.09375 146.972656 141.09375 146.972656 C 141.09375 146.972656 142.773438 146.132812 142.773438 146.132812 C 142.773438 144.71875 146.703125 145.292969 147.8125 145.292969 C 152.90625 145.292969 156.039062 146.972656 160.410156 146.972656 C 163.292969 146.972656 166.289062 141.886719 166.289062 139.414062 C 166.289062 137.625 163.542969 135.25 164.609375 133.117188 C 164.609375 133.117188 167.128906 131.4375 167.128906 131.4375 C 167.128906 131.4375 169.226562 129.335938 169.226562 129.335938 C 169.226562 129.335938 170.070312 131.015625 170.070312 131.015625 C 170.070312 131.015625 170.90625 126.816406 170.90625 126.816406 C 171.863281 126.816406 170.277344 136.054688 174.265625 136.054688 C 174.265625 136.054688 174.6875 131.4375 174.6875 131.4375 C 174.6875 129.035156 175.527344 126.179688 175.527344 124.296875 C 175.527344 121.632812 170.207031 118.28125 168.808594 115.476562 C 164.867188 107.59375 149.484375 100.574219 140.671875 104.980469 C 140.671875 104.980469 131.4375 105.820312 131.4375 105.820312 C 128.328125 107.375 123.65625 110.859375 120.097656 110.859375 C 120.097656 112.78125 112.757812 115.160156 111.28125 115.898438 C 108.675781 117.199219 92.382812 132.25 92.382812 135.214844 C 92.382812 135.214844 91.542969 136.054688 91.542969 136.054688 C 91.542969 136.054688 90.703125 136.894531 90.703125 136.894531 C 90.703125 136.894531 89.863281 138.574219 89.863281 138.574219 C 89.863281 139.804688 89.953125 141.933594 88.183594 141.933594 C 88.183594 144.125 85.664062 146.058594 85.664062 147.8125 C 86.660156 147.8125 86.660156 148.652344 85.664062 148.652344 C 85.664062 150.789062 83.144531 155.226562 83.144531 157.050781 C 83.144531 157.050781 82.304688 157.890625 82.304688 157.890625 C 82.304688 157.890625 83.144531 162.089844 83.144531 162.089844 C 83.144531 162.089844 82.304688 163.769531 82.304688 163.769531 C 82.304688 164.542969 83.714844 166.289062 81.464844 166.289062 C 81.464844 168.152344 82.285156 180.566406 78.105469 180.566406 C 78.105469 180.566406 78.105469 184.765625 78.105469 184.765625 C 78.105469 184.765625 78.105469 185.605469 78.105469 185.605469 C 78.105469 191.015625 71.640625 199.125 74.746094 205.34375 C 77.652344 211.152344 83.144531 226.660156 83.144531 230.117188 C 83.144531 230.117188 83.984375 231.796875 83.984375 231.796875 Z M 83.984375 231.796875 "/>
<path style=" stroke:none;fill-rule:nonzero;fill:rgb(0.784314%,17.254902%,100%);fill-opacity:1;" d="M 284.707031 104.980469 C 284.707031 107.097656 293.804688 110.578125 296.046875 111.699219 L 299.40625 113.378906 L 296.046875 110.019531 C 292.703125 108.347656 288.640625 104.980469 284.707031 104.980469 Z M 284.707031 104.980469 "/>
<path style=" stroke:none;fill-rule:nonzero;fill:rgb(0.784314%,17.254902%,100%);fill-opacity:1;" d="M 82.304688 157.050781 L 83.144531 157.050781 C 83.144531 155.226562 85.664062 150.789062 85.664062 148.652344 C 85.664062 148.652344 85.664062 147.8125 85.664062 147.8125 C 85.664062 146.058594 88.183594 144.125 88.183594 141.933594 C 88.183594 141.933594 89.863281 138.574219 89.863281 138.574219 C 89.863281 138.574219 90.703125 136.894531 90.703125 136.894531 C 90.703125 136.894531 91.542969 136.054688 91.542969 136.054688 C 91.542969 136.054688 92.382812 135.214844 92.382812 135.214844 C 92.382812 132.25 108.675781 117.199219 111.28125 115.898438 C 112.757812 115.160156 120.097656 112.78125 120.097656 110.859375 C 103.144531 110.859375 82.304688 142.324219 82.304688 157.050781 Z M 82.304688 157.050781 "/>
<path style=" stroke:none;fill-rule:nonzero;fill:rgb(5.490196%,27.843139%,88.627452%);fill-opacity:1;" d="M 232.636719 119.257812 C 232.636719 120.144531 231.796875 121.800781 231.796875 120.097656 C 231.796875 120.097656 231.796875 119.257812 231.796875 119.257812 C 231.796875 119.257812 232.636719 119.257812 232.636719 119.257812 Z M 232.636719 119.257812 "/>
<path style=" stroke:none;fill-rule:nonzero;fill:rgb(86.666667%,85.09804%,31.764707%);fill-opacity:1;" d="M 241.875 136.054688 C 239.410156 136.054688 237.210938 140.695312 234.734375 141.933594 L 229.695312 142.773438 L 227.179688 146.132812 C 224.832031 146.132812 221.90625 145.292969 219.199219 145.292969 C 217.34375 145.292969 218.914062 140.945312 218.359375 139.835938 C 217.03125 137.175781 216.496094 138.625 215 135.632812 C 215 135.632812 214.578125 130.175781 214.578125 130.175781 C 214.578125 130.175781 212.0625 132.695312 212.0625 132.695312 C 212.0625 132.695312 211.21875 130.175781 211.21875 130.175781 C 207.992188 128.5625 207.441406 134.082031 207.441406 136.054688 C 207.441406 136.054688 205.761719 134.375 205.761719 134.375 C 205.761719 134.375 204.921875 132.695312 204.921875 132.695312 C 203.597656 132.695312 204.082031 130.296875 204.082031 129.335938 C 204.082031 129.335938 204.082031 126.816406 204.082031 126.816406 C 204.082031 126.816406 210.800781 125.136719 210.800781 125.136719 C 210.800781 126.3125 212.480469 126.3125 212.480469 125.136719 C 212.480469 125.136719 216.679688 125.136719 216.679688 125.136719 C 216.679688 126.375 218.320312 125.976562 219.199219 125.976562 C 219.199219 125.976562 220.039062 126.816406 220.039062 126.816406 C 220.039062 127.992188 221.71875 127.992188 221.71875 126.816406 C 221.71875 126.816406 225.917969 125.136719 225.917969 125.136719 C 225.917969 125.136719 226.757812 124.296875 226.757812 124.296875 C 228.226562 124.296875 228.4375 124.085938 228.4375 122.617188 C 228.4375 122.617188 230.957031 120.097656 230.957031 120.097656 C 230.957031 120.097656 231.796875 120.097656 231.796875 120.097656 C 231.796875 121.800781 232.636719 120.144531 232.636719 119.257812 C 234.625 119.257812 235.847656 124.433594 237.257812 125.136719 C 239.375 126.195312 240.519531 128.449219 242.296875 129.335938 C 242.296875 129.335938 244.394531 129.757812 244.394531 129.757812 C 244.542969 130.050781 242.03125 136.054688 241.875 136.054688 Z M 241.875 136.054688 "/>
<path style=" stroke:none;fill-rule:nonzero;fill:rgb(0.784314%,17.254902%,100%);fill-opacity:1;" d="M 333.417969 171.328125 L 334.257812 171.328125 C 334.257812 171.328125 333.417969 163.769531 333.417969 163.769531 C 331.882812 163.769531 331.738281 160.4375 331.738281 159.148438 C 331.738281 153.777344 327.539062 149.707031 327.539062 144.453125 C 327.539062 144.453125 325.859375 141.09375 325.859375 141.09375 C 325.859375 141.09375 323.339844 136.054688 323.339844 136.054688 C 323.339844 136.054688 323.339844 135.214844 323.339844 135.214844 C 322.148438 135.214844 316.425781 124.828125 313.679688 123.457031 C 313.679688 123.457031 311.164062 120.097656 311.164062 120.097656 C 310.902344 119.96875 308.222656 118.621094 308.222656 119.679688 C 308.222656 119.679688 309.902344 122.617188 309.902344 122.617188 C 309.902344 122.617188 310.742188 122.617188 310.742188 122.617188 C 310.742188 122.617188 312.421875 125.136719 312.421875 125.136719 C 312.421875 125.136719 314.101562 126.816406 314.101562 126.816406 C 314.101562 126.816406 314.941406 127.65625 314.941406 127.65625 C 314.941406 127.65625 314.941406 128.496094 314.941406 128.496094 C 314.941406 128.496094 319.980469 135.214844 319.980469 135.214844 C 319.980469 135.214844 320.820312 136.054688 320.820312 136.054688 C 320.820312 136.054688 320.820312 136.894531 320.820312 136.894531 C 320.820312 136.894531 321.660156 138.574219 321.660156 138.574219 C 322.511719 138.574219 323.339844 141.898438 323.339844 142.773438 C 323.339844 142.773438 324.179688 143.613281 324.179688 143.613281 C 324.179688 143.613281 325.019531 146.972656 325.019531 146.972656 C 325.019531 146.972656 325.859375 148.652344 325.859375 148.652344 C 325.859375 148.652344 326.699219 154.53125 326.699219 154.53125 C 327.757812 154.53125 332.570312 171.328125 333.417969 171.328125 Z M 333.417969 171.328125 "/>
<path style=" stroke:none;fill-rule:nonzero;fill:rgb(100%,43.137255%,0%);fill-opacity:1;" d="M 310.742188 123.457031 L 312.421875 125.136719 C 312.421875 125.136719 310.742188 122.617188 310.742188 122.617188 C 310.742188 122.617188 310.742188 123.457031 310.742188 123.457031 Z M 310.742188 123.457031 "/>
<path style=" stroke:none;fill-rule:evenodd;fill:rgb(86.666667%,85.09804%,31.764707%);fill-opacity:1;" d="M 181.40625 136.894531 C 181.40625 140.039062 183.164062 136.894531 181.40625 136.894531 M 166.289062 139.414062 L 171.75 144.453125 C 176.636719 146.898438 179.75 148.652344 183.925781 148.652344 C 183.925781 146.308594 182.421875 138.644531 183.085938 137.3125 C 183.957031 135.570312 189.824219 137.277344 191.484375 133.953125 C 191.984375 132.953125 190.5 128.496094 192.742188 128.496094 C 193.726562 128.496094 192.429688 132.011719 194.421875 131.015625 C 194.421875 131.015625 196.101562 127.65625 196.101562 127.65625 C 196.101562 127.65625 196.523438 131.4375 196.523438 131.4375 C 196.523438 131.4375 197.78125 130.175781 197.78125 130.175781 C 197.78125 130.175781 199.882812 133.535156 199.882812 133.535156 C 199.882812 133.535156 201.5625 128.496094 201.5625 128.496094 C 201.5625 128.496094 200.722656 126.816406 200.722656 126.816406 C 200.722656 126.816406 199.882812 126.816406 199.882812 126.816406 C 199.003906 126.816406 197.363281 127.214844 197.363281 125.976562 C 197.363281 125.976562 192.324219 125.976562 192.324219 125.976562 C 192.324219 127.214844 190.683594 126.816406 189.804688 126.816406 C 189.804688 126.816406 188.964844 126.816406 188.964844 126.816406 C 188.964844 126.816406 187.285156 127.65625 187.285156 127.65625 C 187.285156 127.65625 186.445312 128.496094 186.445312 128.496094 C 184.480469 128.496094 182.390625 129.335938 180.984375 129.335938 C 180.984375 129.335938 175.527344 124.296875 175.527344 124.296875 C 175.527344 126.179688 174.6875 129.035156 174.6875 131.4375 C 174.6875 131.4375 174.265625 136.054688 174.265625 136.054688 C 170.277344 136.054688 171.863281 126.816406 170.90625 126.816406 C 170.90625 126.816406 170.070312 131.015625 170.070312 131.015625 C 170.070312 131.015625 169.226562 129.335938 169.226562 129.335938 C 169.226562 129.335938 167.128906 131.4375 167.128906 131.4375 C 167.128906 131.4375 164.609375 133.117188 164.609375 133.117188 C 163.542969 135.25 166.289062 137.625 166.289062 139.414062 Z M 166.289062 139.414062 "/>
<path style=" stroke:none;fill-rule:nonzero;fill:rgb(100%,43.137255%,0%);fill-opacity:1;" d="M 314.101562 126.816406 L 314.941406 127.65625 C 314.941406 127.65625 314.101562 126.816406 314.101562 126.816406 Z M 314.101562 126.816406 "/>
<path style=" stroke:none;fill-rule:nonzero;fill:rgb(5.490196%,27.843139%,88.627452%);fill-opacity:1;" d="M 199.882812 133.535156 L 197.78125 130.175781 L 196.523438 131.4375 L 196.101562 127.65625 L 194.421875 131.015625 C 192.429688 132.011719 193.726562 128.496094 192.742188 128.496094 C 190.5 128.496094 191.984375 132.953125 191.484375 133.953125 C 189.824219 137.277344 183.957031 135.570312 183.085938 137.3125 C 182.421875 138.644531 183.925781 146.308594 183.925781 148.652344 C 183.925781 148.832031 189.738281 150.046875 190.644531 148.234375 C 192.679688 144.164062 199.882812 143.71875 199.882812 133.535156 Z M 199.882812 133.535156 "/>
<path style=" stroke:none;fill-rule:evenodd;fill:rgb(0.784314%,17.254902%,100%);fill-opacity:1;" d="M 208.28125 151.171875 C 208.28125 153.335938 196.523438 150.953125 196.523438 152.429688 C 196.523438 152.925781 204.835938 156.464844 205.34375 156.210938 C 209.144531 154.308594 215.136719 151.171875 208.28125 151.171875 M 209.960938 167.128906 L 207.023438 163.769531 C 204.289062 162.402344 199.042969 165.417969 199.042969 167.96875 C 199.042969 167.96875 197.363281 165.449219 197.363281 165.449219 C 197.363281 165.449219 195.683594 164.609375 195.683594 164.609375 C 195.683594 161.121094 191.375 160.566406 189.382812 159.570312 C 187.230469 158.492188 189.523438 157.957031 187.703125 157.050781 C 185.582031 155.988281 186.167969 152.851562 183.085938 152.851562 C 183.085938 147.851562 169.078125 148.652344 166.289062 148.652344 C 165.109375 148.652344 160.410156 149.253906 160.410156 147.8125 C 160.410156 147.8125 160.410156 146.972656 160.410156 146.972656 C 163.292969 146.972656 166.289062 141.886719 166.289062 139.414062 C 166.289062 139.414062 171.75 144.453125 171.75 144.453125 C 176.636719 146.898438 179.75 148.652344 183.925781 148.652344 C 183.925781 148.832031 189.738281 150.046875 190.644531 148.234375 C 192.679688 144.164062 199.882812 143.71875 199.882812 133.535156 C 199.882812 133.535156 201.5625 128.496094 201.5625 128.496094 C 201.5625 128.496094 204.082031 129.335938 204.082031 129.335938 C 204.082031 130.296875 203.597656 132.695312 204.921875 132.695312 C 204.921875 132.695312 205.761719 134.375 205.761719 134.375 C 205.761719 134.375 207.441406 136.054688 207.441406 136.054688 C 207.441406 138.710938 212.1875 143.257812 214.578125 144.453125 C 215.167969 144.746094 219.199219 147.632812 219.199219 145.292969 C 221.90625 145.292969 224.832031 146.132812 227.179688 146.132812 C 227.179688 146.132812 229.695312 142.773438 229.695312 142.773438 C 229.695312 142.773438 234.734375 141.933594 234.734375 141.933594 C 237.210938 140.695312 239.410156 136.054688 241.875 136.054688 C 241.875 141.390625 241.316406 142.773438 246.074219 142.773438 C 246.074219 142.773438 246.074219 144.453125 246.074219 144.453125 C 239.464844 144.453125 231.078125 146.703125 225.5 149.492188 C 223.015625 150.734375 222.5 154.769531 219.617188 156.210938 C 218.269531 156.886719 210.574219 167.128906 209.960938 167.128906 Z M 209.960938 167.128906 "/>
<path style=" stroke:none;fill-rule:nonzero;fill:rgb(100%,43.137255%,0%);fill-opacity:1;" d="M 314.941406 128.496094 L 319.980469 135.214844 C 318.058594 135.214844 314.941406 130.027344 314.941406 128.496094 Z M 314.941406 128.496094 "/>
<path style=" stroke:none;fill-rule:nonzero;fill:rgb(5.490196%,27.843139%,88.627452%);fill-opacity:1;" d="M 207.441406 136.054688 C 207.441406 138.710938 212.1875 143.257812 214.578125 144.453125 C 215.167969 144.746094 219.199219 147.632812 219.199219 145.292969 C 217.34375 145.292969 218.914062 140.945312 218.359375 139.835938 C 217.03125 137.175781 216.496094 138.625 215 135.632812 C 215 135.632812 214.578125 130.175781 214.578125 130.175781 C 214.578125 130.175781 212.0625 132.695312 212.0625 132.695312 C 212.0625 132.695312 211.21875 130.175781 211.21875 130.175781 C 207.992188 128.5625 207.441406 134.082031 207.441406 136.054688 Z M 207.441406 136.054688 "/>
<path style=" stroke:none;fill-rule:nonzero;fill:rgb(5.490196%,27.843139%,88.627452%);fill-opacity:1;" d="M 204.921875 132.695312 L 205.761719 134.375 C 205.761719 134.375 204.921875 132.695312 204.921875 132.695312 Z M 204.921875 132.695312 "/>
<path style=" stroke:none;fill-rule:nonzero;fill:rgb(5.490196%,27.843139%,88.627452%);fill-opacity:1;" d="M 181.40625 136.894531 C 181.40625 140.039062 183.164062 136.894531 181.40625 136.894531 Z M 181.40625 136.894531 "/>
<path style=" stroke:none;fill-rule:nonzero;fill:rgb(73.725492%,12.54902%,67.843139%);fill-opacity:1;" d="M 267.910156 146.972656 L 271.269531 146.972656 C 273.625 146.972656 279.667969 148.09375 279.667969 145.292969 C 274.203125 145.292969 269.273438 143.613281 264.550781 143.613281 C 264.550781 143.613281 263.710938 142.773438 263.710938 142.773438 C 263.710938 142.773438 262.03125 142.773438 262.03125 142.773438 C 262.03125 142.773438 261.191406 141.933594 261.191406 141.933594 C 261.191406 141.933594 251.113281 142.773438 251.113281 142.773438 C 251.113281 143.769531 250.273438 143.769531 250.273438 142.773438 C 250.273438 142.773438 246.074219 142.773438 246.074219 142.773438 C 246.074219 142.773438 246.074219 144.453125 246.074219 144.453125 C 246.074219 145.867188 250.003906 145.292969 251.113281 145.292969 C 252.121094 145.292969 262.03125 142.886719 262.03125 145.292969 C 262.03125 145.292969 262.871094 145.292969 262.871094 145.292969 C 263.75 145.292969 265.390625 144.894531 265.390625 146.132812 C 265.390625 146.132812 267.070312 146.132812 267.070312 146.132812 C 267.070312 146.132812 267.910156 146.972656 267.910156 146.972656 Z M 267.910156 146.972656 "/>
<path style=" stroke:none;fill-rule:nonzero;fill:rgb(100%,34.117648%,11.764706%);fill-opacity:1;" d="M 252.792969 177.207031 L 248.171875 181.40625 C 244.441406 183.273438 232.328125 181.40625 228.4375 181.40625 C 228.4375 175.71875 217.609375 170.488281 213.320312 170.488281 C 213.320312 170.488281 212.480469 170.488281 212.480469 170.488281 C 212.480469 170.488281 211.640625 169.648438 211.640625 169.648438 C 211.640625 169.648438 209.960938 167.128906 209.960938 167.128906 C 210.574219 167.128906 218.269531 156.886719 219.617188 156.210938 C 222.5 154.769531 223.015625 150.734375 225.5 149.492188 C 231.078125 146.703125 239.464844 144.453125 246.074219 144.453125 C 246.074219 145.867188 250.003906 145.292969 251.113281 145.292969 C 251.113281 145.292969 251.953125 146.972656 251.953125 146.972656 C 251.953125 150.9375 253.074219 150.476562 255.3125 154.953125 C 256.445312 157.21875 255.84375 160.210938 256.992188 162.507812 C 257.703125 163.929688 256.722656 173.007812 255.3125 173.007812 C 255.3125 173.007812 253.632812 175.527344 253.632812 175.527344 C 253.632812 175.527344 252.792969 177.207031 252.792969 177.207031 Z M 252.792969 177.207031 "/>
<path style=" stroke:none;fill-rule:nonzero;fill:rgb(0%,39.215687%,0%);fill-opacity:1;" d="M 272.109375 222.558594 L 270.429688 223.398438 C 270.429688 223.398438 255.734375 221.71875 255.734375 221.71875 C 255.734375 221.71875 254.890625 219.199219 254.890625 219.199219 C 253.6875 218.597656 243.761719 215 243.554688 215 C 243.554688 215 243.554688 214.160156 243.554688 214.160156 C 243.554688 214.160156 244.394531 214.160156 244.394531 214.160156 C 244.394531 214.160156 246.074219 213.320312 246.074219 213.320312 C 246.074219 213.320312 246.914062 212.480469 246.914062 212.480469 C 246.914062 212.480469 248.59375 212.480469 248.59375 212.480469 C 248.59375 212.480469 249.433594 211.640625 249.433594 211.640625 C 249.433594 211.640625 252.375 209.121094 252.375 209.121094 C 252.375 209.121094 254.890625 209.960938 254.890625 209.960938 C 257.429688 209.960938 264.667969 203.390625 266.648438 202.402344 C 268.386719 201.535156 269.863281 199.957031 271.6875 199.042969 C 271.6875 199.042969 275.046875 199.042969 275.046875 199.042969 C 275.464844 198.832031 277.195312 194.84375 275.890625 194.84375 C 275.890625 194.84375 274.210938 197.363281 274.210938 197.363281 C 268.363281 197.363281 259.261719 204.921875 254.472656 204.921875 C 254.472656 199.527344 242.722656 194.40625 246.074219 187.703125 C 247.109375 185.632812 256.019531 177.207031 252.792969 177.207031 C 252.792969 177.207031 253.632812 175.527344 253.632812 175.527344 C 255.558594 175.527344 255.3125 174.691406 255.3125 173.007812 C 256.722656 173.007812 257.703125 163.929688 256.992188 162.507812 C 255.84375 160.210938 256.445312 157.21875 255.3125 154.953125 C 253.074219 150.476562 251.953125 150.9375 251.953125 146.972656 C 254.066406 146.972656 258.199219 145.292969 262.03125 145.292969 C 262.03125 145.292969 262.871094 145.292969 262.871094 145.292969 C 262.871094 146.53125 264.511719 146.132812 265.390625 146.132812 C 265.390625 146.132812 267.070312 146.132812 267.070312 146.132812 C 267.070312 146.132812 267.910156 146.972656 267.910156 146.972656 C 267.910156 146.972656 271.269531 146.972656 271.269531 146.972656 C 271.269531 148.460938 279.046875 147.8125 280.507812 147.8125 C 280.507812 147.8125 285.125 147.8125 285.125 147.8125 C 286.902344 148.699219 285.246094 149.972656 285.96875 150.332031 C 288.101562 151.398438 295.625 154.167969 295.625 156.210938 C 295.625 156.9375 298.53125 160.410156 299.824219 160.410156 C 301.0625 160.410156 300.664062 162.050781 300.664062 162.929688 C 299.570312 162.929688 300.664062 164.722656 300.664062 165.867188 C 300.664062 169.929688 305.703125 172.132812 305.703125 175.527344 C 305.703125 179.511719 304.683594 195.683594 300.664062 195.683594 C 299.132812 195.683594 298.046875 199.042969 299.824219 199.042969 C 299.824219 199.042969 299.824219 199.882812 299.824219 199.882812 C 299.824219 199.882812 298.984375 200.722656 298.984375 200.722656 C 298.984375 200.722656 298.144531 201.5625 298.144531 201.5625 C 298.144531 201.5625 297.304688 202.402344 297.304688 202.402344 C 296.425781 202.402344 294.785156 202.003906 294.785156 203.242188 C 294.785156 203.242188 291.84375 202.402344 291.84375 202.402344 C 290.878906 202.886719 280.414062 211.40625 279.667969 212.898438 C 278.953125 214.328125 276.078125 221.71875 274.628906 221.71875 C 274.628906 221.71875 272.109375 222.558594 272.109375 222.558594 Z M 272.109375 222.558594 "/>
<path style=" stroke:none;fill-rule:nonzero;fill:rgb(73.725492%,12.54902%,67.843139%);fill-opacity:1;" d="M 157.890625 151.171875 L 169.226562 151.171875 L 171.75 148.652344 L 172.585938 150.332031 C 173.675781 150.875 181.9375 152.851562 183.085938 152.851562 C 183.085938 147.851562 169.078125 148.652344 166.289062 148.652344 C 165.109375 148.652344 160.410156 149.253906 160.410156 147.8125 C 154.238281 147.8125 149.085938 146.132812 142.773438 146.132812 C 142.773438 146.132812 141.09375 146.972656 141.09375 146.972656 C 143.835938 146.972656 156.210938 148.496094 156.210938 150.332031 C 156.210938 150.332031 157.050781 151.171875 157.050781 151.171875 C 157.050781 151.171875 157.890625 151.171875 157.890625 151.171875 Z M 157.890625 151.171875 "/>
<path style=" stroke:none;fill-rule:nonzero;fill:rgb(73.725492%,12.54902%,67.843139%);fill-opacity:1;" d="M 141.933594 148.652344 L 131.015625 149.492188 C 131.015625 148.253906 129.375 148.652344 128.496094 148.652344 C 128.496094 147.488281 137.808594 146.972656 139.414062 146.972656 C 139.414062 146.972656 141.933594 148.652344 141.933594 148.652344 Z M 141.933594 148.652344 "/>
<path style=" stroke:none;fill-rule:nonzero;fill:rgb(0%,39.215687%,0%);fill-opacity:1;" d="M 139.414062 225.917969 L 142.773438 227.597656 C 146.355469 227.597656 146.699219 221.644531 149.914062 220.039062 C 151.761719 219.113281 159.570312 214.878906 159.570312 214.160156 C 159.570312 214.160156 157.890625 214.160156 157.890625 214.160156 C 157.890625 214.160156 156.210938 213.320312 156.210938 213.320312 C 156.210938 212.214844 137.390625 204.65625 136.054688 201.984375 C 135.050781 199.976562 141.363281 200.226562 142.351562 200.722656 C 144.484375 201.789062 145.191406 204.082031 148.652344 204.082031 C 148.652344 204.082031 152.011719 203.242188 152.011719 203.242188 C 154.082031 203.242188 154.617188 201.808594 155.371094 200.304688 C 155.371094 200.304688 158.730469 197.78125 158.730469 197.78125 C 159.664062 195.917969 161.574219 189.191406 160.410156 186.867188 C 160.410156 186.867188 158.730469 183.925781 158.730469 183.925781 C 158.730469 183.925781 156.632812 182.246094 156.632812 182.246094 C 146.28125 177.070312 157.664062 174.65625 155.371094 170.070312 C 155.371094 170.070312 152.851562 168.390625 152.851562 168.390625 C 152.851562 168.390625 155.371094 166.710938 155.371094 166.710938 C 155.371094 166.148438 151.414062 165.382812 152.851562 162.507812 C 152.851562 162.507812 156.210938 159.992188 156.210938 159.992188 C 156.890625 158.628906 155.371094 157.46875 155.371094 156.632812 C 155.371094 153.167969 157.890625 155.179688 157.890625 151.171875 C 157.890625 151.171875 157.050781 151.171875 157.050781 151.171875 C 156.089844 151.171875 153.691406 151.65625 153.691406 150.332031 C 153.691406 147.589844 143.203125 148.652344 141.933594 148.652344 C 141.933594 148.652344 131.015625 149.492188 131.015625 149.492188 C 131.015625 149.492188 125.976562 149.492188 125.976562 149.492188 C 125.976562 149.492188 124.296875 149.492188 124.296875 149.492188 C 124.296875 149.492188 122.617188 150.332031 122.617188 150.332031 C 122.617188 150.332031 120.097656 152.011719 120.097656 152.011719 C 120.097656 152.011719 119.257812 152.851562 119.257812 152.851562 C 119.257812 155.070312 116.242188 157.050781 114.21875 157.050781 C 114.21875 159.230469 111.445312 162.929688 109.179688 162.929688 C 109.179688 165.503906 107.5 166.640625 107.5 168.808594 C 107.5 172.871094 103.34375 176.695312 101.621094 180.148438 C 99.582031 184.226562 103.300781 189.847656 103.300781 193.164062 C 103.300781 193.164062 104.140625 194.003906 104.140625 194.003906 C 104.140625 194.003906 104.980469 196.523438 104.980469 196.523438 C 104.980469 196.523438 105.820312 198.203125 105.820312 198.203125 C 105.820312 199.140625 107.527344 201.5625 108.339844 201.5625 C 110.589844 201.5625 111.699219 203.742188 111.699219 205.761719 C 111.699219 205.761719 113.378906 206.601562 113.378906 206.601562 C 123.21875 206.601562 124.441406 216.121094 132.273438 220.039062 C 132.273438 220.039062 136.054688 225.078125 136.054688 225.078125 C 136.054688 225.078125 138.574219 225.917969 138.574219 225.917969 C 138.574219 224.921875 139.414062 224.921875 139.414062 225.917969 Z M 139.414062 225.917969 "/>
<path style=" stroke:none;fill-rule:nonzero;fill:rgb(100%,34.117648%,11.764706%);fill-opacity:1;" d="M 158.730469 183.925781 C 166.285156 183.925781 173.171875 183.925781 181.40625 183.925781 C 181.40625 176.8125 184.125 172.167969 192.742188 172.167969 C 192.742188 172.167969 194.421875 173.007812 194.421875 173.007812 C 195.785156 172.328125 195.660156 171.328125 197.363281 171.328125 C 197.363281 171.328125 198.203125 170.488281 198.203125 170.488281 C 198.203125 170.488281 199.042969 167.96875 199.042969 167.96875 C 199.042969 167.96875 197.363281 165.449219 197.363281 165.449219 C 197.363281 165.449219 195.683594 164.609375 195.683594 164.609375 C 195.683594 161.121094 191.375 160.566406 189.382812 159.570312 C 187.230469 158.492188 189.523438 157.957031 187.703125 157.050781 C 185.582031 155.988281 186.167969 152.851562 183.085938 152.851562 C 181.9375 152.851562 173.675781 150.875 172.585938 150.332031 C 172.585938 150.332031 171.75 148.652344 171.75 148.652344 C 171.75 148.652344 169.226562 151.171875 169.226562 151.171875 C 169.226562 151.171875 157.890625 151.171875 157.890625 151.171875 C 157.890625 155.179688 155.371094 153.167969 155.371094 156.632812 C 155.371094 157.46875 156.890625 158.628906 156.210938 159.992188 C 156.210938 159.992188 152.851562 162.507812 152.851562 162.507812 C 151.414062 165.382812 155.371094 166.148438 155.371094 166.710938 C 155.371094 166.710938 152.851562 168.390625 152.851562 168.390625 C 152.851562 168.390625 155.371094 170.070312 155.371094 170.070312 C 157.664062 174.65625 146.28125 177.070312 156.632812 182.246094 C 156.632812 182.246094 158.730469 183.925781 158.730469 183.925781 Z M 158.730469 183.925781 "/>
<path style=" stroke:none;fill-rule:nonzero;fill:rgb(100%,34.117648%,11.764706%);fill-opacity:1;" d="M 156.210938 150.332031 L 157.050781 151.171875 C 156.089844 151.171875 153.691406 151.65625 153.691406 150.332031 C 153.691406 150.332031 156.210938 150.332031 156.210938 150.332031 Z M 156.210938 150.332031 "/>
<path style=" stroke:none;fill-rule:nonzero;fill:rgb(27.058825%,92.156863%,79.215688%);fill-opacity:1;" d="M 208.28125 151.171875 C 208.28125 153.335938 196.523438 150.953125 196.523438 152.429688 C 196.523438 152.925781 204.835938 156.464844 205.34375 156.210938 C 209.144531 154.308594 215.136719 151.171875 208.28125 151.171875 Z M 208.28125 151.171875 "/>
<path style=" stroke:none;fill-rule:nonzero;fill:rgb(0.784314%,17.254902%,100%);fill-opacity:1;" d="M 295.625 156.210938 C 297.101562 156.210938 299.824219 158.871094 299.824219 160.410156 C 298.53125 160.410156 295.625 156.9375 295.625 156.210938 Z M 295.625 156.210938 "/>
<path style=" stroke:none;fill-rule:nonzero;fill:rgb(0.784314%,17.254902%,100%);fill-opacity:1;" d="M 81.464844 162.089844 L 83.144531 162.089844 C 83.144531 162.089844 82.304688 157.890625 82.304688 157.890625 C 82.304688 157.890625 82.304688 157.050781 82.304688 157.050781 C 80.132812 157.050781 81.464844 160.410156 81.464844 162.089844 Z M 81.464844 162.089844 "/>
<path style=" stroke:none;fill-rule:nonzero;fill:rgb(0.784314%,17.254902%,100%);fill-opacity:1;" d="M 298.984375 208.28125 L 299.824219 208.28125 C 299.824219 208.28125 300.664062 205.761719 300.664062 205.761719 C 300.664062 205.761719 301.503906 204.921875 301.503906 204.921875 C 301.503906 204.921875 301.503906 204.082031 301.503906 204.082031 C 301.503906 204.082031 302.34375 203.242188 302.34375 203.242188 C 302.34375 203.242188 303.183594 201.5625 303.183594 201.5625 C 303.183594 201.5625 304.023438 200.722656 304.023438 200.722656 C 304.023438 200.722656 304.023438 199.882812 304.023438 199.882812 C 304.023438 199.882812 304.863281 199.042969 304.863281 199.042969 C 304.863281 199.042969 304.863281 198.203125 304.863281 198.203125 C 304.863281 198.203125 305.703125 197.363281 305.703125 197.363281 C 305.703125 195.28125 309.0625 191.363281 309.0625 186.445312 C 309.0625 186.445312 309.0625 183.085938 309.0625 183.085938 C 309.0625 183.085938 309.0625 178.886719 309.0625 178.886719 C 308.164062 178.886719 306.542969 173.246094 306.542969 172.167969 C 306.542969 172.167969 306.542969 170.488281 306.542969 170.488281 C 306.542969 170.488281 305.703125 169.648438 305.703125 169.648438 C 305.703125 169.648438 305.703125 168.808594 305.703125 168.808594 C 305.703125 168.808594 304.863281 167.96875 304.863281 167.96875 C 304.863281 167.96875 304.023438 165.449219 304.023438 165.449219 C 302.050781 165.449219 302.863281 162.929688 300.664062 162.929688 C 299.570312 162.929688 300.664062 164.722656 300.664062 165.867188 C 300.664062 169.929688 305.703125 172.132812 305.703125 175.527344 C 307.464844 175.527344 306.765625 181.433594 307.382812 182.664062 C 311.292969 190.488281 298.984375 200.09375 298.984375 208.28125 Z M 298.984375 208.28125 "/>
<path style=" stroke:none;fill-rule:nonzero;fill:rgb(0.784314%,17.254902%,100%);fill-opacity:1;" d="M 80.625 166.289062 L 81.464844 166.289062 C 83.714844 166.289062 82.304688 164.542969 82.304688 163.769531 C 82.304688 163.769531 81.464844 163.769531 81.464844 163.769531 C 81.464844 163.992188 78.105469 166.289062 80.625 166.289062 Z M 80.625 166.289062 "/>
<path style=" stroke:none;fill-rule:nonzero;fill:rgb(0.784314%,17.254902%,100%);fill-opacity:1;" d="M 99.101562 196.523438 L 100.78125 201.984375 C 101.21875 202.855469 103.300781 202.605469 103.300781 201.5625 C 103.300781 197.167969 96.050781 188.765625 99.101562 182.664062 C 100.128906 180.613281 99.789062 177.929688 100.78125 175.945312 C 102.152344 173.207031 105.820312 172.199219 105.820312 168.808594 C 105.820312 168.808594 108.339844 163.769531 108.339844 163.769531 C 108.339844 163.769531 104.980469 167.128906 104.980469 167.128906 C 104.980469 167.128906 104.980469 167.96875 104.980469 167.96875 C 104.980469 170.066406 99.101562 171.773438 99.101562 174.6875 C 99.101562 177.671875 94.878906 183.457031 96.582031 186.867188 C 97.976562 189.652344 99.101562 193.199219 99.101562 196.523438 Z M 99.101562 196.523438 "/>
<path style=" stroke:none;fill-rule:nonzero;fill:rgb(100%,0%,85.490197%);fill-opacity:1;" d="M 209.960938 170.488281 L 211.640625 170.488281 C 211.640625 170.488281 211.640625 169.648438 211.640625 169.648438 C 211.640625 169.648438 209.960938 167.128906 209.960938 167.128906 C 209.960938 167.128906 207.023438 163.769531 207.023438 163.769531 C 204.289062 162.402344 199.042969 165.417969 199.042969 167.96875 C 199.042969 167.96875 198.203125 170.488281 198.203125 170.488281 C 198.203125 170.488281 199.882812 171.328125 199.882812 171.328125 C 199.882812 165.859375 208.875 170.488281 209.960938 170.488281 Z M 209.960938 170.488281 "/>
<path style=" stroke:none;fill-rule:nonzero;fill:rgb(14.901961%,49.411765%,100%);fill-opacity:1;" d="M 121.777344 225.078125 L 121.777344 226.757812 C 121.777344 229.410156 118.210938 225.078125 117.578125 225.078125 C 117.578125 225.078125 116.738281 224.238281 116.738281 224.238281 C 116.738281 222.945312 115.609375 221.71875 114.21875 221.71875 C 114.21875 221.71875 113.378906 220.039062 113.378906 220.039062 C 113.378906 218.375 107.089844 206.1875 106.242188 205.761719 C 105.164062 205.222656 105.117188 201.5625 103.300781 201.5625 C 103.300781 197.167969 96.050781 188.765625 99.101562 182.664062 C 100.128906 180.613281 99.789062 177.929688 100.78125 175.945312 C 102.152344 173.207031 105.820312 172.199219 105.820312 168.808594 C 105.820312 168.808594 107.5 168.808594 107.5 168.808594 C 107.5 172.871094 103.34375 176.695312 101.621094 180.148438 C 99.582031 184.226562 103.300781 189.847656 103.300781 193.164062 C 103.300781 193.164062 104.140625 194.003906 104.140625 194.003906 C 104.140625 194.003906 104.980469 196.523438 104.980469 196.523438 C 104.980469 196.523438 105.820312 198.203125 105.820312 198.203125 C 105.820312 199.140625 107.527344 201.5625 108.339844 201.5625 C 108.339844 202.804688 110.992188 207.441406 111.699219 207.441406 C 111.699219 211.742188 118.417969 217.972656 118.417969 221.71875 C 118.417969 221.71875 119.257812 222.558594 119.257812 222.558594 C 119.257812 222.558594 120.9375 224.238281 120.9375 224.238281 C 120.9375 224.238281 121.777344 225.078125 121.777344 225.078125 Z M 121.777344 225.078125 "/>
<path style=" stroke:none;fill-rule:nonzero;fill:rgb(0.784314%,17.254902%,100%);fill-opacity:1;" d="M 204.082031 169.648438 L 201.5625 170.90625 C 201.5625 172.828125 211.304688 169.648438 204.082031 169.648438 Z M 204.082031 169.648438 "/>
<path style=" stroke:none;fill-rule:nonzero;fill:rgb(0%,39.215687%,0%);fill-opacity:1;" d="M 199.882812 171.328125 L 199.882812 172.167969 C 199.882812 172.167969 197.363281 171.328125 197.363281 171.328125 C 197.363281 171.328125 198.203125 170.488281 198.203125 170.488281 C 198.203125 170.488281 199.882812 171.328125 199.882812 171.328125 Z M 199.882812 171.328125 "/>
<path style=" stroke:none;fill-rule:nonzero;fill:rgb(2.745098%,100%,34.901962%);fill-opacity:1;" d="M 208.28125 239.355469 L 209.121094 239.355469 C 209.121094 239.355469 213.320312 235.578125 213.320312 235.578125 C 213.320312 235.578125 216.257812 230.957031 216.257812 230.957031 C 217.648438 230.261719 219.039062 231.699219 220.039062 229.695312 C 222.0625 225.648438 220.878906 213.035156 220.878906 208.28125 C 220.878906 208.28125 220.039062 208.28125 220.039062 208.28125 C 214.125 208.28125 214.308594 200.019531 219.617188 197.363281 C 221.898438 196.222656 222.292969 199.042969 223.398438 199.042969 C 223.398438 195.320312 226.910156 193.277344 228.4375 190.226562 C 228.4375 190.226562 228.4375 181.40625 228.4375 181.40625 C 228.4375 175.71875 217.609375 170.488281 213.320312 170.488281 C 213.320312 171.664062 211.640625 171.664062 211.640625 170.488281 C 211.640625 170.488281 209.960938 170.488281 209.960938 170.488281 C 209.960938 171.191406 207.5 177.207031 206.601562 177.207031 C 206.601562 190.363281 206.601562 205.585938 206.601562 218.78125 C 206.601562 221.921875 207.074219 225.394531 205.761719 228.015625 C 205.761719 228.015625 205.34375 231.796875 205.34375 231.796875 C 202.136719 231.796875 202.402344 222.347656 202.402344 218.78125 C 202.402344 212.421875 205.527344 183.039062 203.242188 178.46875 C 203.242188 178.46875 201.5625 174.6875 201.5625 174.6875 C 201.5625 174.6875 199.882812 172.167969 199.882812 172.167969 C 199.882812 172.167969 197.363281 171.328125 197.363281 171.328125 C 195.660156 171.328125 195.785156 172.328125 194.421875 173.007812 C 194.421875 173.007812 192.742188 172.167969 192.742188 172.167969 C 184.125 172.167969 181.40625 176.8125 181.40625 183.925781 C 181.40625 188.769531 184.765625 193.855469 184.765625 199.042969 C 186.246094 199.042969 186.707031 196.867188 187.703125 197.363281 C 191.261719 199.140625 195.660156 210.800781 189.382812 210.800781 C 189.382812 210.800781 186.445312 209.121094 186.445312 209.121094 C 186.445312 213.832031 186.925781 221.417969 188.964844 225.5 C 188.964844 225.5 193.164062 229.695312 193.164062 229.695312 C 193.164062 229.695312 193.164062 233.054688 193.164062 233.054688 C 194.484375 235.695312 199.785156 238.515625 202.402344 238.515625 C 202.402344 237.339844 204.082031 237.339844 204.082031 238.515625 C 204.082031 238.515625 208.28125 239.355469 208.28125 239.355469 Z M 208.28125 239.355469 "/>
<path style=" stroke:none;fill-rule:nonzero;fill:rgb(0%,39.215687%,0%);fill-opacity:1;" d="M 212.480469 170.488281 L 213.320312 170.488281 C 213.320312 171.664062 211.640625 171.664062 211.640625 170.488281 C 211.640625 170.488281 212.480469 170.488281 212.480469 170.488281 Z M 212.480469 170.488281 "/>
<path style=" stroke:none;fill-rule:nonzero;fill:rgb(0.784314%,17.254902%,100%);fill-opacity:1;" d="M 201.5625 172.167969 C 201.5625 173.636719 206.601562 173.132812 206.601562 172.585938 Z M 201.5625 172.167969 "/>
<path style=" stroke:none;fill-rule:nonzero;fill:rgb(0.784314%,17.254902%,100%);fill-opacity:1;" d="M 201.5625 174.6875 C 204.765625 174.6875 206.601562 172.988281 206.601562 177.207031 C 206.601562 190.363281 206.601562 205.585938 206.601562 218.78125 C 206.601562 221.921875 207.074219 225.394531 205.761719 228.015625 C 205.761719 228.015625 205.34375 231.796875 205.34375 231.796875 C 202.136719 231.796875 202.402344 222.347656 202.402344 218.78125 C 202.402344 212.421875 205.527344 183.039062 203.242188 178.46875 C 203.242188 178.46875 201.5625 174.6875 201.5625 174.6875 Z M 201.5625 174.6875 "/>
<path style=" stroke:none;fill-rule:nonzero;fill:rgb(0%,100%,11.372549%);fill-opacity:1;" d="M 99.101562 196.523438 L 98.261719 197.363281 C 98.261719 197.363281 96.582031 196.523438 96.582031 196.523438 C 96.582031 196.523438 95.742188 195.683594 95.742188 195.683594 C 95.742188 195.683594 92.382812 187.703125 92.382812 187.703125 C 90.84375 184.628906 94.417969 174.6875 99.101562 174.6875 C 99.101562 177.671875 94.878906 183.457031 96.582031 186.867188 C 97.976562 189.652344 99.101562 193.199219 99.101562 196.523438 Z M 99.101562 196.523438 "/>
<path style=" stroke:none;fill-rule:nonzero;fill:rgb(14.901961%,49.411765%,100%);fill-opacity:1;" d="M 291.425781 215.839844 L 292.265625 217.519531 C 293.628906 217.519531 295.625 215.523438 295.625 214.160156 C 295.625 214.160156 296.464844 213.320312 296.464844 213.320312 C 296.464844 213.320312 297.304688 212.480469 297.304688 212.480469 C 297.304688 212.480469 297.304688 211.640625 297.304688 211.640625 C 297.304688 211.640625 298.144531 209.960938 298.144531 209.960938 C 298.144531 209.960938 298.984375 208.28125 298.984375 208.28125 C 298.984375 200.09375 311.292969 190.488281 307.382812 182.664062 C 306.765625 181.433594 307.464844 175.527344 305.703125 175.527344 C 305.703125 179.511719 304.683594 195.683594 300.664062 195.683594 C 300.664062 195.683594 299.824219 199.042969 299.824219 199.042969 C 299.824219 199.042969 299.824219 199.882812 299.824219 199.882812 C 299.824219 199.882812 298.984375 200.722656 298.984375 200.722656 C 298.984375 200.722656 298.144531 201.5625 298.144531 201.5625 C 298.144531 201.5625 297.304688 202.402344 297.304688 202.402344 C 297.304688 202.402344 295.625 204.082031 295.625 204.082031 C 295.625 208.757812 291.425781 211.503906 291.425781 215.839844 Z M 291.425781 215.839844 "/>
<path style=" stroke:none;fill-rule:nonzero;fill:rgb(60.000002%,32.549021%,100%);fill-opacity:1;" d="M 244.394531 251.953125 L 240.195312 252.792969 C 240.195312 252.792969 233.898438 245.234375 233.898438 245.234375 C 232.550781 245.234375 229.890625 247.011719 228.015625 246.074219 C 227.003906 245.566406 222.558594 237.164062 222.558594 242.714844 C 222.558594 242.714844 221.71875 241.875 221.71875 241.875 C 221.71875 241.875 220.878906 241.035156 220.878906 241.035156 C 220.878906 241.035156 219.199219 241.875 219.199219 241.875 C 217.5625 241.875 216.984375 239.355469 215 239.355469 C 213.664062 239.355469 209.121094 240.914062 209.121094 239.355469 C 209.121094 239.355469 213.320312 235.578125 213.320312 235.578125 C 213.320312 235.578125 216.257812 230.957031 216.257812 230.957031 C 217.648438 230.261719 219.039062 231.699219 220.039062 229.695312 C 222.0625 225.648438 220.878906 213.035156 220.878906 208.28125 C 220.878906 208.28125 221.71875 206.601562 221.71875 206.601562 C 221.71875 206.601562 224.238281 202.820312 224.238281 202.820312 C 224.238281 202.820312 223.398438 199.042969 223.398438 199.042969 C 223.398438 195.320312 226.910156 193.277344 228.4375 190.226562 C 228.4375 190.226562 228.4375 181.40625 228.4375 181.40625 C 232.328125 181.40625 244.441406 183.273438 248.171875 181.40625 C 248.171875 181.40625 252.792969 177.207031 252.792969 177.207031 C 256.019531 177.207031 247.109375 185.632812 246.074219 187.703125 C 242.722656 194.40625 254.472656 199.527344 254.472656 204.921875 C 247.703125 204.921875 245.652344 209.121094 240.617188 211.640625 C 240.617188 211.640625 237.257812 211.640625 237.257812 211.640625 C 236.332031 212.101562 233.847656 214.976562 235.578125 215.839844 C 235.578125 215.839844 242.714844 215 242.714844 215 C 242.714844 215 243.554688 215 243.554688 215 C 243.761719 215 253.6875 218.597656 254.890625 219.199219 C 254.890625 219.199219 255.734375 221.71875 255.734375 221.71875 C 255.734375 221.71875 270.429688 223.398438 270.429688 223.398438 C 270.429688 224.085938 259.660156 231.933594 258.25 232.636719 C 257.046875 233.238281 254.910156 239.355469 256.992188 239.355469 C 256.992188 242.625 247.753906 244.992188 247.753906 249.433594 C 247.753906 250.757812 246.273438 251.113281 245.234375 251.113281 C 245.234375 249.410156 244.394531 251.066406 244.394531 251.953125 Z M 244.394531 251.953125 "/>
<path style=" stroke:none;fill-rule:nonzero;fill:rgb(60.000002%,32.549021%,100%);fill-opacity:1;" d="M 159.570312 251.113281 C 159.570312 255.03125 164.082031 259.511719 167.96875 259.511719 C 167.96875 254.285156 181.230469 244.394531 187.285156 244.394531 C 187.285156 244.394531 189.804688 241.035156 189.804688 241.035156 C 189.804688 241.035156 191.0625 239.355469 191.0625 239.355469 C 191.0625 239.355469 192.742188 241.035156 192.742188 241.035156 C 192.742188 241.035156 194.421875 239.355469 194.421875 239.355469 C 194.578125 239.277344 201.667969 239.355469 202.402344 239.355469 C 203.890625 239.355469 208.28125 240.367188 208.28125 239.355469 C 208.28125 239.355469 204.082031 238.515625 204.082031 238.515625 C 204.082031 238.515625 202.402344 238.515625 202.402344 238.515625 C 199.785156 238.515625 194.484375 235.695312 193.164062 233.054688 C 193.164062 233.054688 193.164062 229.695312 193.164062 229.695312 C 193.164062 229.695312 188.964844 225.5 188.964844 225.5 C 186.925781 221.417969 186.445312 213.832031 186.445312 209.121094 C 186.445312 205.886719 184.765625 201.910156 184.765625 199.042969 C 184.765625 193.855469 181.40625 188.769531 181.40625 183.925781 C 173.171875 183.925781 166.285156 183.925781 158.730469 183.925781 C 158.730469 183.925781 160.410156 186.867188 160.410156 186.867188 C 161.574219 189.191406 159.664062 195.917969 158.730469 197.78125 C 158.730469 197.78125 155.371094 200.304688 155.371094 200.304688 C 154.617188 201.808594 154.082031 203.242188 152.011719 203.242188 C 152.011719 203.242188 152.011719 204.921875 152.011719 204.921875 C 153.378906 204.921875 167.851562 209.691406 168.390625 209.960938 C 168.390625 209.960938 171.75 214.160156 171.75 214.160156 C 172.855469 214.714844 180.566406 214.417969 180.566406 216.257812 C 180.566406 217.800781 175.230469 218 174.265625 217.519531 C 169.632812 215.203125 165.214844 214.160156 159.570312 214.160156 C 159.570312 214.878906 151.761719 219.113281 149.914062 220.039062 C 146.699219 221.644531 146.355469 227.597656 142.773438 227.597656 C 142.773438 227.597656 147.8125 232.21875 147.8125 232.21875 C 150.292969 237.179688 156.507812 238.691406 158.730469 243.132812 C 159.632812 244.941406 157.890625 243.757812 157.890625 246.074219 C 160.15625 246.074219 159.570312 249.648438 159.570312 251.113281 Z M 159.570312 251.113281 "/>
<path style=" stroke:none;fill-rule:nonzero;fill:rgb(86.666667%,39.215687%,47.450981%);fill-opacity:1;" d="M 335.9375 218.359375 C 335.9375 223.480469 345.378906 229.386719 348.953125 227.597656 C 349.792969 227.179688 349.578125 224.96875 351.476562 225.917969 C 353.46875 226.914062 357.105469 228.980469 359.875 227.597656 L 361.554688 225.917969 C 362.820312 225.917969 365.207031 226.757812 367.011719 226.757812 C 367.011719 223.933594 362.984375 221.796875 364.492188 218.78125 C 364.941406 217.882812 373.148438 216.585938 374.570312 213.742188 C 375.292969 212.296875 376.25 198.703125 376.25 197.363281 C 376.25 193.539062 370.949219 196.601562 369.109375 195.683594 C 363.914062 193.085938 358.4375 191.605469 353.15625 188.964844 C 351.535156 188.15625 350.214844 190.644531 348.953125 190.644531 C 348.953125 190.644531 342.65625 188.125 342.65625 188.125 C 342.65625 191.855469 339.199219 209.738281 337.617188 212.898438 C 337.070312 213.992188 337.609375 218.359375 335.9375 218.359375 Z M 335.9375 218.359375 "/>
<path style=" stroke:none;fill-rule:nonzero;fill:rgb(86.666667%,39.215687%,47.450981%);fill-opacity:1;" d="M 79.785156 226.757812 L 77.6875 228.4375 C 75.066406 229.746094 69.308594 226.746094 67.609375 227.597656 C 65.039062 228.882812 62.636719 229.664062 60.046875 230.957031 C 57.25 232.355469 57.0625 228.4375 55.007812 228.4375 L 52.492188 231.796875 C 49.363281 233.359375 47.152344 228.4375 44.929688 228.4375 C 43.15625 228.4375 39.597656 230.117188 37.792969 230.117188 C 37.792969 227.90625 42.679688 223.519531 41.992188 222.140625 C 40.53125 219.21875 33.546875 219.527344 31.074219 214.578125 C 30.152344 212.734375 28.417969 199.042969 31.074219 199.042969 C 36.527344 199.042969 42.046875 195.445312 46.609375 193.164062 C 48.316406 192.3125 50.484375 194.003906 51.648438 194.003906 C 51.648438 194.003906 53.328125 190.644531 53.328125 190.644531 C 55.363281 189.628906 56.394531 194.003906 57.53125 194.003906 C 60.25 194.003906 58.316406 192.351562 60.046875 191.484375 C 61.546875 190.734375 65.507812 190.859375 65.507812 189.804688 C 65.507812 189.804688 67.1875 189.804688 67.1875 189.804688 C 67.222656 189.804688 68.867188 193.195312 68.867188 193.585938 C 68.867188 193.585938 67.1875 195.265625 67.1875 195.265625 C 67.1875 201.082031 71.429688 206.269531 73.90625 211.21875 C 74.425781 212.261719 72.945312 215.839844 74.746094 215.839844 C 74.746094 217.816406 75.140625 220.878906 77.265625 220.878906 C 77.265625 222.796875 79.785156 224.277344 79.785156 226.757812 Z M 79.785156 226.757812 "/>
<path style=" stroke:none;fill-rule:nonzero;fill:rgb(83.137256%,100%,0%);fill-opacity:1;" d="M 243.554688 214.160156 L 244.394531 214.160156 C 244.394531 214.160156 246.074219 213.320312 246.074219 213.320312 C 246.074219 213.320312 246.914062 212.480469 246.914062 212.480469 C 246.914062 212.480469 248.59375 212.480469 248.59375 212.480469 C 248.59375 212.480469 249.433594 211.640625 249.433594 211.640625 C 249.433594 211.640625 252.375 209.121094 252.375 209.121094 C 252.375 209.121094 254.890625 209.960938 254.890625 209.960938 C 257.429688 209.960938 264.667969 203.390625 266.648438 202.402344 C 268.386719 201.535156 269.863281 199.957031 271.6875 199.042969 C 271.6875 199.042969 275.046875 199.042969 275.046875 199.042969 C 275.464844 198.832031 277.195312 194.84375 275.890625 194.84375 C 275.890625 194.84375 274.210938 197.363281 274.210938 197.363281 C 268.363281 197.363281 259.261719 204.921875 254.472656 204.921875 C 247.703125 204.921875 245.652344 209.121094 240.617188 211.640625 C 240.617188 211.640625 237.257812 211.640625 237.257812 211.640625 C 236.332031 212.101562 233.847656 214.976562 235.578125 215.839844 C 235.578125 215.839844 242.714844 215 242.714844 215 C 242.714844 215 243.554688 214.160156 243.554688 214.160156 Z M 243.554688 214.160156 "/>
<path style=" stroke:none;fill-rule:nonzero;fill:rgb(95.686275%,26.274511%,27.058825%);fill-opacity:1;" d="M 184.765625 199.042969 C 186.246094 199.042969 186.707031 196.867188 187.703125 197.363281 C 191.261719 199.140625 195.660156 210.800781 189.382812 210.800781 L 186.445312 209.121094 C 186.445312 205.886719 184.765625 201.910156 184.765625 199.042969 Z M 184.765625 199.042969 "/>
<path style=" stroke:none;fill-rule:nonzero;fill:rgb(95.686275%,26.274511%,27.058825%);fill-opacity:1;" d="M 220.878906 207.441406 L 220.039062 208.28125 C 214.125 208.28125 214.308594 200.019531 219.617188 197.363281 C 221.898438 196.222656 222.292969 199.042969 223.398438 199.042969 C 223.398438 199.042969 224.238281 202.820312 224.238281 202.820312 C 224.238281 202.820312 221.71875 206.601562 221.71875 206.601562 C 221.71875 206.601562 220.878906 207.441406 220.878906 207.441406 Z M 220.878906 207.441406 "/>
<path style=" stroke:none;fill-rule:nonzero;fill:rgb(83.137256%,100%,0%);fill-opacity:1;" d="M 157.890625 214.160156 L 159.570312 214.160156 C 165.214844 214.160156 169.632812 215.203125 174.265625 217.519531 C 175.230469 218 180.566406 217.800781 180.566406 216.257812 C 180.566406 214.417969 172.855469 214.714844 171.75 214.160156 C 171.75 214.160156 168.390625 209.960938 168.390625 209.960938 C 167.851562 209.691406 153.378906 204.921875 152.011719 204.921875 C 151.050781 204.921875 148.652344 205.40625 148.652344 204.082031 C 145.191406 204.082031 144.484375 201.789062 142.351562 200.722656 C 141.363281 200.226562 135.050781 199.976562 136.054688 201.984375 C 137.390625 204.65625 156.210938 212.214844 156.210938 213.320312 C 156.210938 213.320312 157.890625 214.160156 157.890625 214.160156 Z M 157.890625 214.160156 "/>
<path style=" stroke:none;fill-rule:nonzero;fill:rgb(100%,20.392157%,15.294118%);fill-opacity:1;" d="M 272.109375 241.875 C 269.300781 241.875 268.03125 247.902344 264.96875 249.433594 C 262.578125 250.628906 253.558594 254.226562 250.695312 252.792969 L 247.753906 249.433594 C 247.753906 244.992188 256.992188 242.625 256.992188 239.355469 C 256.992188 237.660156 263.449219 239.277344 264.96875 238.515625 C 269.953125 236.023438 274.628906 226.996094 274.628906 221.71875 C 276.078125 221.71875 278.953125 214.328125 279.667969 212.898438 C 280.414062 211.40625 290.878906 202.886719 291.84375 202.402344 C 291.84375 202.402344 294.785156 203.242188 294.785156 203.242188 C 294.785156 203.242188 295.625 204.082031 295.625 204.082031 C 295.625 208.757812 291.425781 211.503906 291.425781 215.839844 C 289.175781 215.839844 283.867188 224.621094 283.867188 226.757812 C 283.867188 226.757812 283.027344 227.597656 283.027344 227.597656 C 283.027344 227.597656 282.1875 228.4375 282.1875 228.4375 C 282.1875 228.4375 281.347656 229.277344 281.347656 229.277344 C 281.347656 229.277344 280.507812 230.957031 280.507812 230.957031 C 280.507812 230.957031 277.988281 234.316406 277.988281 234.316406 C 276.519531 234.316406 276.308594 234.527344 276.308594 235.996094 C 276.308594 235.996094 274.628906 238.515625 274.628906 238.515625 C 273.160156 238.515625 272.949219 238.726562 272.949219 240.195312 C 272.949219 240.195312 272.109375 241.875 272.109375 241.875 Z M 272.109375 241.875 "/>
<path style=" stroke:none;fill-rule:nonzero;fill:rgb(98.039216%,66.666669%,25.098041%);fill-opacity:1;" d="M 120.9375 224.238281 L 121.777344 224.238281 C 121.777344 219.855469 113.378906 212.996094 113.378906 206.601562 C 113.378906 206.601562 111.699219 205.761719 111.699219 205.761719 C 111.699219 205.761719 111.699219 207.441406 111.699219 207.441406 C 111.699219 211.742188 118.417969 217.972656 118.417969 221.71875 C 118.417969 221.71875 119.257812 222.558594 119.257812 222.558594 C 119.257812 222.558594 120.9375 224.238281 120.9375 224.238281 Z M 120.9375 224.238281 "/>
<path style=" stroke:none;fill-rule:nonzero;fill:rgb(100%,20.392157%,15.294118%);fill-opacity:1;" d="M 159.570312 251.113281 C 156.65625 251.113281 154.722656 252.792969 151.59375 252.792969 C 150.019531 252.792969 146.132812 251.210938 146.132812 251.953125 C 142.882812 251.953125 141.429688 246.074219 138.574219 246.074219 C 138.574219 241.546875 130.210938 238.164062 128.496094 234.734375 C 128.496094 234.734375 128.496094 232.21875 128.496094 232.21875 C 127.625 230.476562 123.457031 231.839844 123.457031 228.4375 C 123.457031 228.4375 122.617188 226.757812 122.617188 226.757812 C 122.617188 226.757812 121.777344 226.757812 121.777344 226.757812 C 121.777344 226.757812 121.777344 225.078125 121.777344 225.078125 C 121.777344 225.078125 121.777344 224.238281 121.777344 224.238281 C 121.777344 219.855469 113.378906 212.996094 113.378906 206.601562 C 123.21875 206.601562 124.441406 216.121094 132.273438 220.039062 C 132.273438 220.039062 136.054688 225.078125 136.054688 225.078125 C 136.054688 226.808594 137.734375 228.617188 137.734375 228.859375 C 137.734375 228.859375 136.054688 229.695312 136.054688 229.695312 C 136.054688 233.28125 145.824219 237.789062 147.8125 239.773438 C 147.8125 239.773438 151.59375 245.234375 151.59375 245.234375 C 151.59375 245.234375 157.890625 246.074219 157.890625 246.074219 C 160.15625 246.074219 159.570312 249.648438 159.570312 251.113281 Z M 159.570312 251.113281 "/>
<path style=" stroke:none;fill-rule:nonzero;fill:rgb(2.745098%,100%,34.901962%);fill-opacity:1;" d="M 220.878906 207.441406 L 220.878906 208.28125 C 220.878906 208.28125 221.71875 206.601562 221.71875 206.601562 C 221.71875 206.601562 220.878906 207.441406 220.878906 207.441406 Z M 220.878906 207.441406 "/>
<path style=" stroke:none;fill-rule:nonzero;fill:rgb(0%,39.215687%,0%);fill-opacity:1;" d="M 220.039062 208.28125 L 220.878906 208.28125 C 220.878906 208.28125 220.878906 207.441406 220.878906 207.441406 C 220.878906 207.441406 220.039062 208.28125 220.039062 208.28125 Z M 220.039062 208.28125 "/>
<path style=" stroke:none;fill-rule:nonzero;fill:rgb(60.000002%,32.549021%,100%);fill-opacity:1;" d="M 249.433594 211.640625 L 248.59375 212.480469 C 248.59375 212.480469 249.433594 211.640625 249.433594 211.640625 Z M 249.433594 211.640625 "/>
<path style=" stroke:none;fill-rule:nonzero;fill:rgb(60.000002%,32.549021%,100%);fill-opacity:1;" d="M 246.914062 212.480469 L 246.074219 213.320312 C 246.074219 213.320312 246.914062 212.480469 246.914062 212.480469 Z M 246.914062 212.480469 "/>
<path style=" stroke:none;fill-rule:nonzero;fill:rgb(60.000002%,32.549021%,100%);fill-opacity:1;" d="M 156.210938 213.320312 L 157.890625 214.160156 C 157.890625 214.160156 156.210938 213.320312 156.210938 213.320312 Z M 156.210938 213.320312 "/>
<path style=" stroke:none;fill-rule:nonzero;fill:rgb(60.000002%,32.549021%,100%);fill-opacity:1;" d="M 246.074219 213.320312 L 244.394531 214.160156 C 244.394531 214.160156 246.074219 213.320312 246.074219 213.320312 Z M 246.074219 213.320312 "/>
<path style=" stroke:none;fill-rule:nonzero;fill:rgb(1.176471%,75.686276%,17.647059%);fill-opacity:1;" d="M 298.144531 283.027344 C 299.234375 283.027344 304.023438 283.71875 304.023438 284.707031 C 304.023438 284.707031 313.679688 288.066406 313.679688 288.066406 C 313.679688 288.066406 331.320312 288.066406 331.320312 288.066406 C 334.136719 286.65625 337.804688 286.921875 340.554688 285.546875 C 340.554688 285.546875 351.476562 278.828125 351.476562 278.828125 C 360.550781 274.292969 359.824219 256.667969 363.652344 249.015625 C 363.652344 249.015625 362.8125 237.675781 362.8125 237.675781 C 360.742188 237.675781 355.222656 240.808594 352.3125 239.355469 C 352.3125 239.355469 348.953125 235.15625 348.953125 235.15625 C 348.699219 235.15625 347.230469 238.515625 346.4375 238.515625 C 346.4375 238.515625 343.914062 235.15625 343.914062 235.15625 C 339.773438 233.085938 334.671875 233.054688 330.476562 230.957031 C 324.09375 227.765625 334.78125 218.359375 335.097656 218.359375 C 335.097656 218.359375 334.257812 215 334.257812 215 C 334.257812 215 332.578125 214.160156 332.578125 214.160156 C 332.578125 218.820312 327.023438 223.171875 325.019531 227.179688 C 317.699219 241.816406 304.234375 242.820312 291.007812 249.433594 C 289.121094 250.375 285.757812 248.695312 280.929688 251.113281 C 276.824219 253.164062 273.242188 248.59375 270.429688 248.59375 C 270.429688 248.59375 267.070312 252.792969 267.070312 252.792969 C 267.070312 255.445312 275.535156 262.871094 266.230469 262.871094 C 266.230469 266.800781 270.429688 269.101562 270.429688 272.109375 C 273.003906 272.109375 272.964844 272.746094 275.046875 273.789062 C 275.046875 273.789062 279.25 272.949219 279.25 272.949219 C 281.753906 274.203125 284.109375 277.988281 287.226562 277.988281 C 287.226562 277.988281 292.265625 280.507812 292.265625 280.507812 C 292.265625 280.507812 293.945312 281.347656 293.945312 281.347656 C 293.945312 281.347656 294.785156 282.1875 294.785156 282.1875 C 294.785156 282.1875 295.625 282.1875 295.625 282.1875 C 295.625 282.1875 298.144531 283.027344 298.144531 283.027344 Z M 298.144531 283.027344 "/>
<path style=" stroke:none;fill-rule:nonzero;fill:rgb(18.039216%,54.509807%,34.117648%);fill-opacity:1;" d="M 367.011719 226.757812 C 367.011719 229.273438 372.46875 237.675781 362.8125 237.675781 C 360.742188 237.675781 355.222656 240.808594 352.3125 239.355469 C 352.3125 239.355469 348.953125 235.15625 348.953125 235.15625 C 348.699219 235.15625 347.230469 238.515625 346.4375 238.515625 C 346.4375 238.515625 343.914062 235.15625 343.914062 235.15625 C 339.773438 233.085938 334.671875 233.054688 330.476562 230.957031 C 324.09375 227.765625 334.78125 218.359375 335.097656 218.359375 C 335.097656 218.359375 335.9375 218.359375 335.9375 218.359375 C 335.9375 223.480469 345.378906 229.386719 348.953125 227.597656 C 349.792969 227.179688 349.578125 224.96875 351.476562 225.917969 C 353.46875 226.914062 357.105469 228.980469 359.875 227.597656 C 359.875 227.597656 361.554688 225.917969 361.554688 225.917969 C 362.820312 225.917969 365.207031 226.757812 367.011719 226.757812 Z M 367.011719 226.757812 "/>
<path style=" stroke:none;fill-rule:nonzero;fill:rgb(100%,20.392157%,15.294118%);fill-opacity:1;" d="M 118.417969 221.71875 L 119.257812 222.558594 C 119.257812 222.558594 118.417969 221.71875 118.417969 221.71875 Z M 118.417969 221.71875 "/>
<path style=" stroke:none;fill-rule:nonzero;fill:rgb(100%,72.941178%,0%);fill-opacity:1;" d="M 270.429688 223.398438 C 270.429688 224.085938 259.660156 231.933594 258.25 232.636719 C 257.046875 233.238281 254.910156 239.355469 256.992188 239.355469 C 256.992188 237.660156 263.449219 239.277344 264.96875 238.515625 C 269.953125 236.023438 274.628906 226.996094 274.628906 221.71875 C 274.628906 221.71875 272.109375 222.558594 272.109375 222.558594 C 272.109375 222.558594 270.429688 223.398438 270.429688 223.398438 Z M 270.429688 223.398438 "/>
<path style=" stroke:none;fill-rule:nonzero;fill:rgb(60.000002%,32.549021%,100%);fill-opacity:1;" d="M 272.109375 222.558594 L 270.429688 223.398438 C 270.429688 223.398438 272.109375 222.558594 272.109375 222.558594 Z M 272.109375 222.558594 "/>
<path style=" stroke:none;fill-rule:nonzero;fill:rgb(100%,72.941178%,0%);fill-opacity:1;" d="M 142.773438 227.597656 L 147.8125 232.21875 C 150.292969 237.179688 156.507812 238.691406 158.730469 243.132812 C 159.632812 244.941406 157.890625 243.757812 157.890625 246.074219 C 157.890625 246.074219 151.59375 245.234375 151.59375 245.234375 C 151.59375 245.234375 147.8125 239.773438 147.8125 239.773438 C 145.824219 237.789062 136.054688 233.28125 136.054688 229.695312 C 136.054688 229.695312 137.734375 228.859375 137.734375 228.859375 C 137.734375 228.617188 136.054688 226.808594 136.054688 225.078125 C 136.054688 225.078125 138.574219 225.917969 138.574219 225.917969 C 138.574219 225.917969 139.414062 225.917969 139.414062 225.917969 C 139.414062 225.917969 142.773438 227.597656 142.773438 227.597656 Z M 142.773438 227.597656 "/>
<path style=" stroke:none;fill-rule:nonzero;fill:rgb(18.039216%,54.509807%,34.117648%);fill-opacity:1;" d="M 81.464844 233.476562 L 65.929688 239.355469 C 64.394531 240.121094 62.722656 238.515625 61.726562 238.515625 L 60.046875 241.035156 L 59.210938 239.355469 L 57.949219 239.773438 L 57.53125 236.835938 L 54.171875 241.875 C 52.8125 242.554688 45.753906 242.714844 44.511719 242.714844 C 36.679688 242.714844 37.792969 235.023438 37.792969 230.117188 C 39.597656 230.117188 43.15625 228.4375 44.929688 228.4375 C 47.152344 228.4375 49.363281 233.359375 52.492188 231.796875 C 52.492188 231.796875 55.007812 228.4375 55.007812 228.4375 C 57.0625 228.4375 57.25 232.355469 60.046875 230.957031 C 62.636719 229.664062 65.039062 228.882812 67.609375 227.597656 C 69.308594 226.746094 75.066406 229.746094 77.6875 228.4375 C 77.6875 228.4375 79.785156 226.757812 79.785156 226.757812 C 79.785156 229.492188 81.945312 230.117188 83.144531 230.117188 C 83.144531 230.117188 83.984375 231.796875 83.984375 231.796875 C 83.984375 231.796875 82.304688 232.636719 82.304688 232.636719 C 82.304688 232.636719 81.464844 233.476562 81.464844 233.476562 Z M 81.464844 233.476562 "/>
<path style=" stroke:none;fill-rule:nonzero;fill:rgb(98.039216%,66.666669%,25.098041%);fill-opacity:1;" d="M 122.617188 226.757812 L 123.457031 228.4375 C 123.457031 228.4375 122.617188 226.757812 122.617188 226.757812 Z M 122.617188 226.757812 "/>
<path style=" stroke:none;fill-rule:evenodd;fill:rgb(1.176471%,75.686276%,17.647059%);fill-opacity:1;" d="M 140.253906 253.632812 C 140.253906 256.273438 137.902344 261.949219 139.414062 264.96875 C 140.960938 268.0625 148.652344 263.074219 148.652344 260.773438 C 148.652344 257.46875 143.695312 253.632812 140.253906 253.632812 M 107.5 285.546875 C 105.609375 285.546875 104.664062 287.226562 103.300781 287.226562 C 100.523438 287.226562 98.09375 288.613281 95.320312 287.226562 C 94.265625 286.699219 92.578125 284.820312 91.125 285.546875 C 86.277344 287.96875 76.589844 290.039062 70.96875 287.226562 C 54.636719 279.0625 44.511719 261.519531 44.511719 242.714844 C 45.753906 242.714844 52.8125 242.554688 54.171875 241.875 C 54.171875 241.875 57.53125 236.835938 57.53125 236.835938 C 57.53125 236.835938 57.949219 239.773438 57.949219 239.773438 C 57.949219 239.773438 59.210938 239.355469 59.210938 239.355469 C 59.210938 239.355469 60.046875 241.035156 60.046875 241.035156 C 60.046875 241.035156 61.726562 238.515625 61.726562 238.515625 C 62.722656 238.515625 64.394531 240.121094 65.929688 239.355469 C 65.929688 239.355469 81.464844 233.476562 81.464844 233.476562 C 81.464844 233.476562 82.304688 232.636719 82.304688 232.636719 C 82.304688 232.636719 83.984375 231.796875 83.984375 231.796875 C 86.960938 231.796875 89.175781 239.640625 91.960938 241.035156 C 97.417969 243.761719 103.253906 245.839844 108.757812 248.59375 C 108.757812 248.59375 123.039062 250.273438 123.039062 250.273438 C 124.628906 251.070312 132.332031 253.605469 133.953125 252.792969 C 137.667969 250.9375 134.375 247.390625 134.375 245.234375 C 134.375 245.234375 138.574219 246.074219 138.574219 246.074219 C 141.429688 246.074219 142.882812 251.953125 146.132812 251.953125 C 148.804688 251.953125 147.96875 256.042969 148.652344 257.414062 C 152.179688 264.46875 144.453125 267.601562 144.453125 272.109375 C 144.453125 272.109375 142.351562 269.589844 142.351562 269.589844 C 142.351562 269.589844 138.992188 272.949219 138.992188 272.949219 C 136.707031 274.09375 125.976562 273.644531 125.976562 279.667969 C 125.976562 279.667969 120.9375 282.1875 120.9375 282.1875 C 116.617188 282.1875 113.359375 284.707031 109.179688 284.707031 C 109.179688 283.710938 108.339844 283.710938 108.339844 284.707031 C 108.339844 284.707031 107.5 285.546875 107.5 285.546875 Z M 107.5 285.546875 "/>
<path style=" stroke:none;fill-rule:nonzero;fill:rgb(88.627452%,47.058824%,63.137257%);fill-opacity:1;" d="M 202.402344 238.515625 L 204.082031 238.515625 C 204.082031 237.339844 202.402344 237.339844 202.402344 238.515625 Z M 202.402344 238.515625 "/>
<path style=" stroke:none;fill-rule:nonzero;fill:rgb(88.627452%,47.058824%,63.137257%);fill-opacity:1;" d="M 206.601562 283.027344 L 206.601562 284.707031 C 208.628906 284.707031 206.1875 289.746094 208.703125 289.746094 C 209.808594 289.746094 211.910156 287.226562 212.0625 287.226562 C 222.722656 287.226562 229.5 285.519531 235.15625 274.210938 C 236.429688 271.664062 241.035156 270.3125 241.035156 266.648438 C 241.035156 266.648438 239.355469 265.8125 239.355469 265.8125 C 239.355469 265.8125 241.875 264.96875 241.875 264.96875 C 243.371094 261.980469 240.203125 261.625 239.355469 259.929688 C 238.726562 258.675781 240.195312 254.15625 240.195312 252.792969 C 240.195312 252.792969 233.898438 245.234375 233.898438 245.234375 C 232.550781 245.234375 229.890625 247.011719 228.015625 246.074219 C 227.003906 245.566406 222.558594 237.164062 222.558594 242.714844 C 222.558594 246.785156 218.359375 245.515625 218.359375 248.59375 C 218.359375 249.769531 216.679688 249.769531 216.679688 248.59375 C 216.679688 248.59375 214.578125 249.433594 214.578125 249.433594 C 212.695312 249.433594 215.761719 244.128906 215.839844 243.976562 C 215.839844 243.976562 219.199219 241.875 219.199219 241.875 C 217.5625 241.875 216.984375 239.355469 215 239.355469 C 213.664062 239.355469 209.121094 240.914062 209.121094 239.355469 C 209.121094 239.355469 208.28125 239.355469 208.28125 239.355469 C 208.28125 240.367188 203.890625 239.355469 202.402344 239.355469 C 201.667969 239.355469 194.578125 239.277344 194.421875 239.355469 C 194.421875 239.355469 192.742188 241.035156 192.742188 241.035156 C 192.742188 241.035156 191.0625 239.355469 191.0625 239.355469 C 191.0625 239.355469 189.804688 241.035156 189.804688 241.035156 C 192.03125 241.035156 196.007812 245.003906 194.84375 247.335938 C 192.847656 251.328125 187.285156 247.765625 187.285156 244.394531 C 181.230469 244.394531 167.96875 254.285156 167.96875 259.511719 C 167.96875 259.511719 166.289062 263.289062 166.289062 263.289062 C 168.878906 268.472656 169.839844 276.613281 175.945312 279.667969 C 175.945312 279.667969 181.828125 281.347656 181.828125 281.347656 C 181.828125 281.347656 183.507812 283.867188 183.507812 283.867188 C 183.507812 283.867188 187.703125 283.867188 187.703125 283.867188 C 187.703125 283.867188 190.226562 287.226562 190.226562 287.226562 C 193.003906 288.617188 195.917969 288.066406 199.042969 288.066406 C 199.042969 288.066406 202.402344 289.328125 202.402344 289.328125 C 204.378906 285.371094 201.5625 277.554688 201.5625 273.789062 C 201.5625 273.789062 201.5625 272.949219 201.5625 272.949219 C 201.5625 269.957031 202.074219 270.429688 204.082031 270.429688 C 204.082031 268.808594 205.058594 270.429688 205.761719 270.429688 C 205.761719 270.429688 206.601562 271.269531 206.601562 271.269531 C 209.035156 271.269531 206.601562 280.011719 206.601562 282.1875 C 207.597656 282.1875 207.597656 283.027344 206.601562 283.027344 Z M 206.601562 283.027344 "/>
<path style=" stroke:none;fill-rule:nonzero;fill:rgb(93.333334%,72.941178%,0%);fill-opacity:1;" d="M 189.804688 241.035156 C 192.03125 241.035156 196.007812 245.003906 194.84375 247.335938 C 192.847656 251.328125 187.285156 247.765625 187.285156 244.394531 C 187.285156 244.394531 189.804688 241.035156 189.804688 241.035156 Z M 189.804688 241.035156 "/>
<path style=" stroke:none;fill-rule:nonzero;fill:rgb(93.333334%,72.941178%,0%);fill-opacity:1;" d="M 216.679688 248.59375 L 218.359375 248.59375 C 218.359375 245.515625 222.558594 246.785156 222.558594 242.714844 C 222.558594 242.714844 221.71875 241.875 221.71875 241.875 C 221.71875 241.875 220.878906 241.035156 220.878906 241.035156 C 220.878906 241.035156 219.199219 241.875 219.199219 241.875 C 219.199219 241.875 215.839844 243.976562 215.839844 243.976562 C 215.761719 244.128906 212.695312 249.433594 214.578125 249.433594 C 214.578125 249.433594 216.679688 248.59375 216.679688 248.59375 Z M 216.679688 248.59375 "/>
<path style=" stroke:none;fill-rule:nonzero;fill:rgb(88.627452%,47.058824%,63.137257%);fill-opacity:1;" d="M 220.878906 241.035156 L 221.71875 241.875 C 221.71875 241.875 220.878906 241.035156 220.878906 241.035156 Z M 220.878906 241.035156 "/>
<path style=" stroke:none;fill-rule:nonzero;fill:rgb(88.627452%,47.058824%,63.137257%);fill-opacity:1;" d="M 245.234375 251.113281 L 244.394531 251.953125 C 244.394531 251.066406 245.234375 249.410156 245.234375 251.113281 Z M 245.234375 251.113281 "/>
<path style=" stroke:none;fill-rule:nonzero;fill:rgb(5.490196%,27.843139%,88.627452%);fill-opacity:1;" d="M 267.070312 252.792969 C 267.070312 255.445312 275.535156 262.871094 266.230469 262.871094 C 260.519531 262.871094 261.183594 261.597656 258.671875 256.570312 C 258.671875 256.570312 257.832031 254.890625 257.832031 254.890625 C 258.105469 254.347656 267.070312 247.261719 267.070312 252.792969 Z M 267.070312 252.792969 "/>
<path style=" stroke:none;fill-rule:nonzero;fill:rgb(5.490196%,27.843139%,88.627452%);fill-opacity:1;" d="M 140.253906 253.632812 C 140.253906 256.273438 137.902344 261.949219 139.414062 264.96875 C 140.960938 268.0625 148.652344 263.074219 148.652344 260.773438 C 148.652344 257.46875 143.695312 253.632812 140.253906 253.632812 Z M 140.253906 253.632812 "/>
<path style=" stroke:none;fill-rule:evenodd;fill:rgb(98.039216%,50.196081%,44.705883%);fill-opacity:1;" d="M 121.777344 288.066406 C 121.777344 291.210938 123.535156 288.066406 121.777344 288.066406 M 121.777344 285.546875 C 121.777344 288.746094 126.308594 285.546875 121.777344 285.546875 M 111.699219 285.546875 C 111.699219 288.1875 116.378906 285.546875 111.699219 285.546875 M 107.5 285.546875 C 105.609375 285.546875 104.664062 287.226562 103.300781 287.226562 C 103.300781 290.726562 96.167969 289.339844 98.261719 293.523438 C 99.5 296 101.929688 293.890625 103.71875 294.785156 C 103.71875 294.785156 106.242188 297.304688 106.242188 297.304688 C 109.476562 298.921875 129.964844 302.238281 133.117188 300.664062 C 136.886719 298.777344 134.296875 294.285156 132.273438 292.265625 C 132.222656 292.210938 126.6875 288.066406 128.914062 288.066406 C 133.160156 288.066406 143.59375 304.664062 154.953125 298.984375 C 154.953125 298.984375 155.371094 294.367188 155.371094 294.367188 C 156.632812 291.839844 160.539062 288.746094 158.730469 285.125 C 158.027344 283.71875 144.566406 272.109375 144.453125 272.109375 C 144.453125 272.109375 142.351562 269.589844 142.351562 269.589844 C 142.351562 269.589844 138.992188 272.949219 138.992188 272.949219 C 136.707031 274.09375 125.976562 273.644531 125.976562 279.667969 C 125.976562 281.480469 129.335938 279.71875 129.335938 280.929688 C 129.335938 282.679688 122.242188 282.1875 120.9375 282.1875 C 116.617188 282.1875 113.359375 284.707031 109.179688 284.707031 C 109.179688 284.707031 108.339844 284.707031 108.339844 284.707031 C 108.339844 285.839844 107.5 287.40625 107.5 285.546875 Z M 107.5 285.546875 "/>
<path style=" stroke:none;fill-rule:nonzero;fill:rgb(0.784314%,17.254902%,100%);fill-opacity:1;" d="M 204.921875 286.386719 L 205.761719 286.386719 C 205.761719 286.386719 206.601562 284.707031 206.601562 284.707031 C 206.601562 284.707031 206.601562 283.027344 206.601562 283.027344 C 206.601562 283.027344 206.601562 282.1875 206.601562 282.1875 C 206.601562 280.011719 209.035156 271.269531 206.601562 271.269531 C 206.601562 272.972656 205.761719 271.316406 205.761719 270.429688 C 205.058594 270.429688 204.082031 268.808594 204.082031 270.429688 C 204.082031 270.429688 201.5625 272.949219 201.5625 272.949219 C 201.5625 272.949219 201.5625 273.789062 201.5625 273.789062 C 204.269531 273.789062 203.242188 281.167969 203.242188 283.027344 C 204.566406 283.027344 204.082031 285.425781 204.082031 286.386719 C 204.082031 286.386719 204.921875 286.386719 204.921875 286.386719 Z M 204.921875 286.386719 "/>
<path style=" stroke:none;fill-rule:nonzero;fill:rgb(98.039216%,50.196081%,44.705883%);fill-opacity:1;" d="M 298.144531 283.027344 C 299.234375 283.027344 304.023438 283.71875 304.023438 284.707031 C 304.023438 284.707031 308.222656 288.484375 308.222656 288.484375 C 308.222656 288.484375 305.703125 291.007812 305.703125 291.007812 C 305.703125 291.007812 306.542969 292.6875 306.542969 292.6875 C 304.1875 297.394531 284.347656 299.792969 279.25 302.34375 C 279.25 302.34375 276.726562 299.824219 276.726562 299.824219 C 275.121094 299.824219 273.152344 305.59375 270.007812 304.023438 C 266.144531 302.089844 256.167969 300.277344 254.472656 296.882812 C 254.472656 296.882812 253.632812 291.007812 253.632812 291.007812 C 253.632812 291.007812 250.695312 291.425781 250.695312 291.425781 C 249.582031 290.871094 246.960938 289.230469 248.59375 285.96875 C 250.558594 282.039062 251.34375 284.707031 254.054688 284.707031 C 254.054688 284.707031 254.890625 282.1875 254.890625 282.1875 C 256.25 281.507812 257.710938 282.011719 258.671875 280.085938 C 258.671875 280.085938 257.832031 276.726562 257.832031 276.726562 C 260 272.390625 266.273438 272.109375 270.429688 272.109375 C 273.003906 272.109375 272.964844 272.746094 275.046875 273.789062 C 275.046875 273.789062 279.25 272.949219 279.25 272.949219 C 281.753906 274.203125 284.109375 277.988281 287.226562 277.988281 C 287.226562 279.382812 290.886719 280.507812 292.265625 280.507812 C 292.265625 280.507812 293.945312 281.347656 293.945312 281.347656 C 293.945312 281.347656 294.785156 282.1875 294.785156 282.1875 C 294.785156 282.1875 295.625 282.1875 295.625 282.1875 C 295.625 283.320312 298.144531 284.886719 298.144531 283.027344 Z M 298.144531 283.027344 "/>
<path style=" stroke:none;fill-rule:nonzero;fill:rgb(88.627452%,47.058824%,63.137257%);fill-opacity:1;" d="M 203.242188 283.027344 C 204.566406 283.027344 204.082031 285.425781 204.082031 286.386719 C 204.082031 292.789062 203.242188 286.042969 203.242188 283.027344 Z M 203.242188 283.027344 "/>
<path style=" stroke:none;fill-rule:nonzero;fill:rgb(88.627452%,47.058824%,63.137257%);fill-opacity:1;" d="M 204.921875 286.386719 L 205.761719 286.386719 C 205.761719 290.855469 204.921875 290.855469 204.921875 286.386719 Z M 204.921875 286.386719 "/>
<path style=" stroke:none;fill-rule:nonzero;fill:rgb(98.039216%,50.196081%,44.705883%);fill-opacity:1;" d="M 157.050781 293.945312 C 157.050781 300.054688 160.367188 293.945312 157.050781 293.945312 Z M 157.050781 293.945312 "/>
</g>
</svg>
