<?xml version="1.0" encoding="UTF-8"?>
<svg xmlns="http://www.w3.org/2000/svg" xmlns:xlink="http://www.w3.org/1999/xlink" width="430px" height="430px" viewBox="0 0 430 430" version="1.1">
<g id="surface1">
<rect x="0" y="0" width="430" height="430" style="fill:rgb(0%,0%,0%);fill-opacity:1;stroke:none;"/>
<path style=" stroke:none;fill-rule:nonzero;fill:rgb(1.176471%,75.686276%,17.647059%);fill-opacity:1;" d="M 379.609375 188.125 C 382.007812 188.125 383.320312 175.808594 382.128906 173.429688 C 379.007812 167.1875 378.769531 157.054688 378.769531 151.59375 C 378.769531 150.890625 372.710938 130.234375 372.050781 128.914062 L 368.691406 125.554688 L 368.691406 122.195312 C 367.132812 119.078125 363.246094 116.347656 361.972656 113.796875 C 356.789062 103.433594 348.042969 94.027344 336.359375 88.183594 C 334.996094 87.503906 333.835938 89.023438 333 89.023438 L 332.578125 86.085938 L 326.28125 80.625 C 318.773438 76.871094 311.179688 73.496094 303.601562 69.707031 C 299.949219 67.878906 293.28125 68.746094 290.164062 67.1875 C 284.691406 64.449219 278.734375 63.992188 273.367188 61.308594 C 271.210938 60.230469 266.253906 62.371094 264.132812 61.308594 C 258.335938 58.410156 225.613281 57.472656 217.9375 61.308594 C 211.675781 64.441406 207.308594 69.984375 201.140625 73.066406 C 197.429688 74.921875 195.171875 70.082031 192.742188 68.867188 C 182.835938 63.914062 182.5 57.949219 168.808594 57.949219 L 165.03125 57.109375 C 158.273438 60.488281 149.066406 58.792969 142.351562 62.148438 L 137.734375 64.25 L 136.476562 67.1875 C 135.359375 67.1875 134.882812 64.625 133.117188 65.507812 C 128.957031 67.585938 122.335938 66.277344 118.835938 68.027344 C 114.222656 70.335938 110.003906 72.445312 105.398438 74.746094 C 102.710938 76.089844 98.875 75.910156 96.164062 77.265625 L 91.960938 81.464844 C 89.082031 82.90625 85.53125 83.421875 82.726562 84.824219 L 80.203125 88.183594 C 79.199219 88.6875 78.300781 87.457031 76.84375 88.183594 C 75.015625 89.097656 75.964844 92.820312 73.484375 94.0625 L 70.96875 94.0625 C 66.238281 96.425781 71.5625 98.261719 63.40625 98.261719 C 60.964844 98.261719 49.671875 114.394531 48.710938 116.320312 C 48.136719 117.46875 40.3125 127.773438 40.3125 128.078125 C 40.3125 130.144531 32.785156 149.851562 31.074219 153.273438 C 29.921875 155.574219 32.28125 157.574219 31.914062 158.3125 C 29.46875 163.207031 29.308594 166.039062 27.714844 169.226562 L 27.714844 175.109375 L 25.195312 179.304688 C 25.195312 182.328125 26.875 182.980469 26.875 188.964844 C 26.875 188.964844 32.335938 188.125 32.335938 188.125 C 32.335938 188.125 33.171875 189.804688 33.171875 189.804688 C 34.574219 189.804688 34.441406 187.070312 35.695312 186.445312 C 35.707031 186.4375 43.828125 188.125 44.09375 188.125 C 44.367188 188.125 46.800781 184.765625 48.289062 184.765625 C 48.289062 184.765625 49.96875 188.125 49.96875 188.125 C 49.96875 188.125 52.492188 185.605469 52.492188 185.605469 C 54.617188 184.542969 55.230469 187.285156 55.851562 187.285156 C 57.085938 187.285156 57.847656 186.445312 59.628906 186.445312 C 59.628906 171.6875 66.867188 156.429688 73.066406 144.03125 C 75.585938 138.992188 79.816406 134.730469 82.304688 129.757812 C 82.304688 129.757812 92.804688 119.257812 92.804688 119.257812 C 92.804688 119.257812 98.261719 115.898438 98.261719 115.898438 C 98.261719 115.898438 99.101562 115.058594 99.101562 115.058594 C 103.558594 115.058594 109.023438 108.628906 112.960938 106.660156 C 122.933594 101.671875 134.851562 100.753906 144.875 95.742188 C 145.453125 95.449219 154.789062 95.824219 156.632812 94.902344 C 160.433594 93 164.300781 91.433594 167.546875 88.183594 C 167.546875 88.183594 171.75 85.664062 171.75 85.664062 C 175.09375 87.335938 181.574219 107.578125 179.726562 111.28125 C 179.726562 111.28125 178.046875 114.21875 178.046875 114.21875 C 179.515625 114.21875 179.726562 114.429688 179.726562 115.898438 C 179.726562 115.898438 183.507812 115.058594 183.507812 115.058594 C 183.507812 115.058594 189.804688 122.617188 189.804688 122.617188 C 193.722656 122.617188 197.550781 116.78125 199.042969 113.796875 C 199.542969 112.796875 198.058594 108.339844 200.304688 108.339844 C 202.234375 108.339844 202.039062 110.859375 204.082031 110.859375 C 204.082031 110.859375 204.921875 111.699219 204.921875 111.699219 C 204.921875 116.644531 211.691406 123.457031 216.679688 123.457031 C 216.679688 119.21875 221.710938 111.699219 225.917969 111.699219 C 225.917969 111.699219 223.398438 104.5625 223.398438 104.5625 C 220.972656 99.710938 224.390625 87.476562 228.015625 85.664062 C 230.53125 84.40625 240.058594 90.003906 243.132812 91.542969 C 247.503906 93.726562 257.503906 92.007812 261.609375 94.0625 C 264.566406 95.539062 268.8125 94.304688 271.6875 95.742188 C 279.234375 99.515625 288.519531 99.539062 296.046875 103.300781 C 296.046875 103.300781 299.40625 106.660156 299.40625 106.660156 C 303.207031 108.5625 307.214844 110.566406 311.164062 112.539062 C 311.164062 112.539062 316.203125 113.378906 316.203125 113.378906 C 317.554688 114.054688 317.867188 118.417969 320.820312 118.417969 C 320.820312 118.417969 321.660156 119.257812 321.660156 119.257812 C 321.660156 119.953125 331.707031 131.375 333.417969 134.796875 C 333.417969 134.796875 333.417969 137.3125 333.417969 137.3125 C 334.796875 140.070312 338.683594 142.808594 340.136719 145.710938 C 342.03125 149.507812 342.390625 152.742188 344.335938 156.632812 C 344.335938 156.632812 344.335938 161.671875 344.335938 161.671875 C 344.335938 161.671875 346.855469 164.1875 346.855469 164.1875 C 346.855469 164.1875 347.695312 177.625 347.695312 177.625 C 348.734375 179.703125 349.375 180.511719 349.375 183.085938 C 349.375 183.085938 350.632812 185.605469 350.632812 185.605469 C 350.632812 185.605469 351.476562 183.085938 351.476562 183.085938 C 351.476562 183.085938 352.3125 184.765625 352.3125 184.765625 C 352.3125 184.765625 353.15625 183.085938 353.15625 183.085938 C 353.15625 183.085938 353.574219 185.1875 353.574219 185.1875 C 353.574219 185.1875 356.515625 186.445312 356.515625 186.445312 C 359.789062 188.082031 366.199219 185.605469 369.109375 185.605469 C 371.175781 185.605469 375.695312 188.898438 377.507812 189.804688 C 377.507812 189.804688 379.609375 188.125 379.609375 188.125 Z M 379.609375 188.125 "/>
<path style=" stroke:none;fill-rule:nonzero;fill:rgb(100%,43.137255%,0%);fill-opacity:1;" d="M 83.144531 244.394531 L 83.144531 245.234375 C 78.121094 245.234375 74.828125 242.378906 71.386719 238.9375 C 71.386719 238.9375 66.347656 232.636719 66.347656 232.636719 C 66.347656 230.820312 63.324219 224.238281 62.148438 224.238281 C 62.148438 211.445312 59.628906 198.671875 59.628906 186.445312 C 59.628906 171.6875 66.867188 156.429688 73.066406 144.03125 C 75.585938 138.992188 79.816406 134.730469 82.304688 129.757812 C 82.304688 129.757812 92.804688 119.257812 92.804688 119.257812 C 92.804688 119.257812 98.261719 115.898438 98.261719 115.898438 C 98.261719 115.898438 99.101562 115.058594 99.101562 115.058594 C 103.558594 115.058594 109.023438 108.628906 112.960938 106.660156 C 122.933594 101.671875 134.851562 100.753906 144.875 95.742188 C 145.453125 95.449219 154.789062 95.824219 156.632812 94.902344 C 160.433594 93 164.300781 91.433594 167.546875 88.183594 C 167.546875 88.183594 171.75 85.664062 171.75 85.664062 C 175.09375 87.335938 181.574219 107.578125 179.726562 111.28125 C 179.726562 111.28125 178.046875 114.21875 178.046875 114.21875 C 178.046875 114.21875 175.527344 115.898438 175.527344 115.898438 C 171.6875 115.898438 161.183594 120.273438 157.46875 118.417969 C 155.550781 117.457031 153.433594 116.820312 151.59375 115.898438 C 151.59375 115.898438 146.972656 111.699219 146.972656 111.699219 C 146.972656 111.699219 146.132812 111.699219 146.132812 111.699219 C 146.132812 111.699219 144.453125 110.859375 144.453125 110.859375 C 144.453125 110.859375 139.835938 109.179688 139.835938 109.179688 C 134.550781 109.179688 124.992188 109.042969 119.679688 111.699219 C 116.367188 113.355469 104.210938 120.9375 101.621094 120.9375 C 100.152344 120.9375 99.941406 121.148438 99.941406 122.617188 C 94.464844 122.617188 84.910156 138.574219 83.144531 138.574219 C 81.375 138.574219 81.464844 140.703125 81.464844 141.933594 C 81.464844 141.933594 81.464844 142.773438 81.464844 142.773438 C 80.027344 142.773438 78.945312 144.933594 78.945312 146.132812 C 78.945312 146.132812 78.945312 147.8125 78.945312 147.8125 C 78.945312 147.8125 78.105469 148.652344 78.105469 148.652344 C 78.105469 151.105469 74.746094 152.214844 74.746094 154.53125 C 73.75 154.53125 73.75 155.371094 74.746094 155.371094 C 74.746094 155.371094 73.90625 157.890625 73.90625 157.890625 C 72.910156 157.890625 72.910156 158.730469 73.90625 158.730469 C 73.90625 158.730469 70.546875 165.449219 70.546875 165.449219 C 70.546875 165.449219 69.707031 166.289062 69.707031 166.289062 C 69.707031 166.289062 64.667969 180.148438 64.667969 180.148438 C 62.375 184.734375 62.304688 211.53125 64.667969 216.257812 C 64.667969 216.257812 64.667969 224.65625 64.667969 224.65625 C 66.570312 228.464844 71.566406 238.394531 73.484375 239.355469 C 75.925781 240.574219 83.144531 242.726562 83.144531 244.394531 Z M 83.144531 244.394531 "/>
<path style=" stroke:none;fill-rule:nonzero;fill:rgb(100%,43.137255%,0%);fill-opacity:1;" d="M 340.136719 230.957031 C 340.136719 232.625 337.429688 235.996094 335.9375 235.996094 C 335.9375 233.914062 337.625 233.878906 338.457031 232.21875 C 338.457031 232.21875 339.296875 226.335938 339.296875 226.335938 C 339.296875 226.335938 340.976562 226.335938 340.976562 226.335938 C 340.976562 226.335938 341.816406 217.101562 341.816406 217.101562 C 341.816406 217.101562 343.496094 216.257812 343.496094 216.257812 C 344.539062 214.171875 346.359375 186.710938 345.175781 184.34375 C 342.949219 179.894531 344 170.238281 341.816406 165.867188 C 340.507812 163.257812 334.257812 151.605469 334.257812 149.492188 C 335.253906 149.492188 335.253906 148.652344 334.257812 148.652344 C 334.257812 148.652344 334.257812 147.8125 334.257812 147.8125 C 335.960938 147.8125 334.171875 146.132812 333.417969 146.132812 C 330.820312 146.132812 328.460938 137.480469 327.539062 135.632812 C 325.265625 131.089844 307.558594 115.058594 303.183594 115.058594 C 303.183594 115.058594 302.34375 114.21875 302.34375 114.21875 C 293.996094 114.21875 286.691406 106.660156 275.46875 106.660156 C 275.46875 106.660156 274.628906 106.660156 274.628906 106.660156 C 274.628906 105.328125 269.589844 105.328125 269.589844 106.660156 C 269.589844 106.660156 267.070312 106.660156 267.070312 106.660156 C 266.191406 106.660156 264.550781 106.261719 264.550781 107.5 C 264.550781 107.5 263.710938 107.5 263.710938 107.5 C 263.710938 107.5 262.03125 108.339844 262.03125 108.339844 C 262.03125 108.339844 261.191406 108.339844 261.191406 108.339844 C 261.191406 108.339844 260.351562 108.339844 260.351562 108.339844 C 260.351562 108.339844 259.511719 109.179688 259.511719 109.179688 C 259.511719 109.179688 256.992188 110.019531 256.992188 110.019531 C 256.992188 110.019531 256.152344 110.859375 256.152344 110.859375 C 253.5625 110.859375 251.496094 113.378906 248.59375 113.378906 C 247.554688 113.378906 244.394531 112.839844 244.394531 114.21875 C 244.394531 114.21875 230.539062 114.21875 230.539062 114.21875 C 230.539062 114.21875 225.917969 111.699219 225.917969 111.699219 C 225.917969 111.699219 223.398438 104.5625 223.398438 104.5625 C 220.972656 99.710938 224.390625 87.476562 228.015625 85.664062 C 230.53125 84.40625 240.058594 90.003906 243.132812 91.542969 C 247.503906 93.726562 257.503906 92.007812 261.609375 94.0625 C 264.566406 95.539062 268.8125 94.304688 271.6875 95.742188 C 279.234375 99.515625 288.519531 99.539062 296.046875 103.300781 C 296.046875 103.300781 299.40625 106.660156 299.40625 106.660156 C 303.207031 108.5625 307.214844 110.566406 311.164062 112.539062 C 311.164062 112.539062 316.203125 113.378906 316.203125 113.378906 C 317.554688 114.054688 317.867188 118.417969 320.820312 118.417969 C 320.820312 118.417969 321.660156 119.257812 321.660156 119.257812 C 321.660156 119.953125 331.707031 131.375 333.417969 134.796875 C 333.417969 134.796875 333.417969 137.3125 333.417969 137.3125 C 334.796875 140.070312 338.683594 142.808594 340.136719 145.710938 C 342.03125 149.507812 342.390625 152.742188 344.335938 156.632812 C 344.335938 156.632812 344.335938 161.671875 344.335938 161.671875 C 344.335938 161.671875 346.855469 164.1875 346.855469 164.1875 C 346.855469 164.1875 347.695312 177.625 347.695312 177.625 C 348.734375 179.703125 349.375 180.511719 349.375 183.085938 C 349.375 188.878906 348.535156 194.953125 348.535156 199.882812 C 348.535156 199.882812 347.695312 201.5625 347.695312 201.5625 C 347.695312 207.753906 346.015625 212.628906 346.015625 218.359375 C 341.300781 218.359375 343.078125 230.117188 340.976562 230.117188 C 340.976562 228.414062 340.136719 230.070312 340.136719 230.957031 Z M 340.136719 230.957031 "/>
<path style=" stroke:none;fill-rule:nonzero;fill:rgb(5.490196%,27.843139%,88.627452%);fill-opacity:1;" d="M 291.425781 251.113281 C 291.425781 253.121094 277.988281 251.308594 277.988281 254.472656 C 275.359375 254.472656 271.242188 253.855469 268.328125 255.3125 C 268.328125 255.3125 265.8125 257.832031 265.8125 257.832031 C 265.8125 257.832031 261.191406 255.734375 261.191406 255.734375 C 261.191406 255.734375 262.871094 249.433594 262.871094 249.433594 C 262.871094 249.433594 263.710938 248.59375 263.710938 248.59375 C 265.179688 248.59375 265.390625 248.382812 265.390625 246.914062 C 268.550781 246.914062 272.949219 242 272.949219 238.515625 C 272.949219 238.515625 273.789062 237.675781 273.789062 237.675781 C 273.789062 237.675781 274.628906 236.835938 274.628906 236.835938 C 275.867188 236.835938 275.46875 235.195312 275.46875 234.316406 C 275.46875 234.316406 277.988281 229.277344 277.988281 229.277344 C 277.988281 229.277344 278.828125 228.4375 278.828125 228.4375 C 278.828125 226.847656 283.355469 217.519531 284.707031 217.519531 C 284.707031 217.519531 285.546875 215.839844 285.546875 215.839844 C 285.546875 215.839844 288.066406 212.480469 288.066406 212.480469 C 290.066406 212.480469 293.105469 208.449219 293.105469 206.601562 C 293.105469 204.316406 293.945312 202.28125 293.945312 199.882812 C 295.269531 199.882812 294.785156 197.484375 294.785156 196.523438 C 294.785156 196.523438 295.625 194.84375 295.625 194.84375 C 295.625 194.84375 297.304688 194.003906 297.304688 194.003906 C 297.304688 194.003906 298.144531 189.804688 298.144531 189.804688 C 298.144531 189.804688 298.144531 188.125 298.144531 188.125 C 298.144531 188.125 298.984375 187.285156 298.984375 187.285156 C 300.222656 187.285156 299.824219 185.644531 299.824219 184.765625 C 299.824219 184.765625 302.34375 183.507812 302.34375 183.507812 C 302.34375 182.085938 301.347656 178.160156 300.664062 176.789062 C 300.664062 176.789062 301.503906 173.429688 301.503906 173.429688 C 301.503906 173.429688 297.304688 166.289062 297.304688 166.289062 C 297.304688 166.289062 295.625 165.449219 295.625 165.449219 C 294.183594 165.449219 287.226562 160.1875 287.226562 158.730469 C 287.226562 158.730469 286.386719 157.890625 286.386719 157.890625 C 282.648438 157.890625 279.675781 150.964844 276.726562 149.492188 C 276.726562 149.492188 271.6875 144.453125 271.6875 144.453125 C 265.460938 141.339844 260.351562 139.046875 260.351562 128.496094 C 261.984375 128.496094 263.308594 124.289062 264.96875 123.457031 C 269.410156 121.238281 271.277344 126.382812 273.789062 121.359375 C 274.75 119.4375 272.757812 118.457031 272.109375 117.15625 C 272.109375 117.15625 272.109375 107.078125 272.109375 107.078125 C 272.109375 107.078125 269.589844 106.660156 269.589844 106.660156 C 269.589844 105.328125 274.628906 105.328125 274.628906 106.660156 C 270.097656 106.660156 275.46875 112.90625 275.46875 106.660156 C 286.691406 106.660156 293.996094 114.21875 302.34375 114.21875 C 302.34375 114.21875 303.183594 115.058594 303.183594 115.058594 C 307.558594 115.058594 325.265625 131.089844 327.539062 135.632812 C 328.460938 137.480469 330.820312 146.132812 333.417969 146.132812 C 333.417969 146.132812 334.257812 147.8125 334.257812 147.8125 C 334.257812 147.8125 334.257812 148.652344 334.257812 148.652344 C 334.257812 148.652344 334.257812 149.492188 334.257812 149.492188 C 334.257812 151.605469 340.507812 163.257812 341.816406 165.867188 C 344 170.238281 342.949219 179.894531 345.175781 184.34375 C 346.359375 186.710938 344.539062 214.171875 343.496094 216.257812 C 343.496094 216.257812 341.816406 217.101562 341.816406 217.101562 C 341.816406 217.101562 340.976562 226.335938 340.976562 226.335938 C 340.976562 226.335938 339.296875 226.335938 339.296875 226.335938 C 339.296875 226.335938 338.457031 232.21875 338.457031 232.21875 C 337.625 233.878906 335.9375 233.914062 335.9375 235.996094 C 334.253906 235.996094 333.417969 235.75 333.417969 237.675781 C 332.238281 237.675781 325.636719 241.875 323.339844 241.875 C 323.339844 241.875 322.5 242.714844 322.5 242.714844 C 322.5 242.714844 319.980469 242.714844 319.980469 242.714844 C 319.980469 238.925781 312.855469 240.1875 311.164062 241.035156 C 307.125 243.054688 291.644531 244.378906 289.746094 248.171875 C 289.746094 248.171875 291.425781 251.113281 291.425781 251.113281 Z M 291.425781 251.113281 "/>
<path style=" stroke:none;fill-rule:nonzero;fill:rgb(86.666667%,85.09804%,31.764707%);fill-opacity:1;" d="M 247.753906 128.496094 L 260.351562 128.496094 C 261.984375 128.496094 263.308594 124.289062 264.96875 123.457031 C 269.410156 121.238281 271.277344 126.382812 273.789062 121.359375 C 274.75 119.4375 272.757812 118.457031 272.109375 117.15625 C 272.109375 117.15625 272.109375 107.078125 272.109375 107.078125 C 272.109375 107.078125 269.589844 106.660156 269.589844 106.660156 C 269.589844 106.660156 267.070312 106.660156 267.070312 106.660156 C 267.070312 106.660156 265.390625 107.5 265.390625 107.5 C 265.390625 111.097656 264.550781 111.097656 264.550781 107.5 C 264.550781 107.5 263.710938 107.5 263.710938 107.5 C 263.710938 107.5 262.03125 108.339844 262.03125 108.339844 C 262.03125 108.339844 261.191406 108.339844 261.191406 108.339844 C 261.191406 108.339844 260.351562 109.179688 260.351562 109.179688 C 260.351562 110.175781 259.511719 110.175781 259.511719 109.179688 C 259.511719 109.179688 256.992188 110.019531 256.992188 110.019531 C 256.992188 110.019531 256.152344 110.859375 256.152344 110.859375 C 253.5625 110.859375 251.496094 113.378906 248.59375 113.378906 C 248.59375 114.757812 245.433594 114.21875 244.394531 114.21875 C 244.394531 114.21875 230.539062 114.21875 230.539062 114.21875 C 230.539062 114.21875 225.917969 111.699219 225.917969 111.699219 C 221.710938 111.699219 216.679688 119.21875 216.679688 123.457031 C 216.679688 123.457031 217.519531 124.296875 217.519531 124.296875 C 223.902344 124.296875 229.097656 123.457031 234.734375 123.457031 C 234.734375 123.457031 235.578125 125.136719 235.578125 125.136719 C 236.402344 125.550781 240.195312 125.851562 240.195312 126.816406 C 240.195312 126.816406 242.714844 126.816406 242.714844 126.816406 C 243.855469 126.816406 247.753906 127.359375 247.753906 128.496094 Z M 247.753906 128.496094 "/>
<path style=" stroke:none;fill-rule:nonzero;fill:rgb(86.666667%,85.09804%,31.764707%);fill-opacity:1;" d="M 274.628906 106.660156 L 275.46875 106.660156 C 275.46875 112.90625 270.097656 106.660156 274.628906 106.660156 Z M 274.628906 106.660156 "/>
<path style=" stroke:none;fill-rule:nonzero;fill:rgb(5.490196%,27.843139%,88.627452%);fill-opacity:1;" d="M 264.550781 107.5 L 265.390625 107.5 C 265.390625 111.097656 264.550781 111.097656 264.550781 107.5 Z M 264.550781 107.5 "/>
<path style=" stroke:none;fill-rule:nonzero;fill:rgb(0.784314%,17.254902%,100%);fill-opacity:1;" d="M 190.644531 125.136719 C 190.644531 127.074219 198.574219 128.820312 199.042969 129.757812 C 200.039062 131.75 202.285156 132.882812 204.082031 136.476562 C 204.476562 137.265625 203.46875 140.253906 205.34375 140.253906 L 206.179688 137.734375 C 209.230469 134.683594 210.71875 132.441406 212.480469 128.914062 L 218.359375 125.976562 C 218.359375 125.976562 217.519531 124.296875 217.519531 124.296875 C 217.519531 124.296875 216.679688 123.457031 216.679688 123.457031 C 211.691406 123.457031 204.921875 116.644531 204.921875 111.699219 C 204.921875 111.699219 204.082031 110.859375 204.082031 110.859375 C 202.039062 110.859375 202.234375 108.339844 200.304688 108.339844 C 198.058594 108.339844 199.542969 112.796875 199.042969 113.796875 C 197.550781 116.78125 193.722656 122.617188 189.804688 122.617188 C 189.804688 122.617188 190.644531 125.136719 190.644531 125.136719 Z M 190.644531 125.136719 "/>
<path style=" stroke:none;fill-rule:nonzero;fill:rgb(5.490196%,27.843139%,88.627452%);fill-opacity:1;" d="M 259.511719 109.179688 C 259.511719 110.175781 260.351562 110.175781 260.351562 109.179688 C 260.351562 109.179688 260.351562 108.339844 260.351562 108.339844 C 260.351562 108.339844 259.511719 109.179688 259.511719 109.179688 Z M 259.511719 109.179688 "/>
<path style=" stroke:none;fill-rule:evenodd;fill:rgb(5.490196%,27.843139%,88.627452%);fill-opacity:1;" d="M 131.855469 244.394531 C 131.855469 246.015625 133.476562 244.394531 131.855469 244.394531 M 140.253906 260.351562 L 141.09375 260.351562 C 146.785156 260.351562 146.445312 253.160156 142.351562 251.113281 C 142.351562 251.113281 133.535156 244.8125 133.535156 244.8125 C 133.117188 243.976562 133.535156 239.847656 133.535156 238.9375 C 133.535156 238.9375 129.335938 234.734375 129.335938 234.734375 C 126.441406 228.949219 123.035156 222.972656 120.097656 217.101562 C 118.898438 214.699219 114.21875 210.9375 114.21875 208.28125 C 111.289062 208.28125 112.417969 195.683594 105.820312 195.683594 C 104.574219 195.683594 104.574219 193.164062 105.820312 193.164062 C 105.820312 193.164062 104.140625 189.804688 104.140625 189.804688 C 103.144531 189.804688 103.144531 188.964844 104.140625 188.964844 C 104.140625 186.691406 104.140625 185.0625 104.140625 182.246094 C 103.144531 182.246094 103.144531 181.40625 104.140625 181.40625 C 104.140625 181.40625 104.980469 180.566406 104.980469 180.566406 C 104.980469 180.566406 105.820312 178.886719 105.820312 178.886719 C 104.824219 178.886719 104.824219 178.046875 105.820312 178.046875 C 106.886719 178.046875 108.339844 174.410156 108.339844 173.007812 C 108.339844 173.007812 109.179688 172.167969 109.179688 172.167969 C 109.179688 172.167969 110.859375 170.070312 110.859375 170.070312 C 113.664062 164.460938 112.328125 166.605469 118 163.769531 C 118.550781 163.492188 116.816406 161.421875 118.835938 160.410156 C 118.835938 160.410156 121.359375 160.410156 121.359375 160.410156 C 123.320312 159.429688 124.484375 156.210938 126.816406 156.210938 C 126.816406 156.210938 127.65625 155.371094 127.65625 155.371094 C 127.65625 153.980469 128.882812 152.851562 130.175781 152.851562 C 130.175781 152.851562 131.855469 152.011719 131.855469 152.011719 C 131.855469 152.011719 134.375 149.492188 134.375 149.492188 C 134.375 148.054688 136.535156 146.972656 137.734375 146.972656 C 137.734375 146.972656 138.574219 146.972656 138.574219 146.972656 C 138.574219 145.046875 139.410156 145.292969 141.09375 145.292969 C 141.09375 145.292969 141.933594 144.453125 141.933594 144.453125 C 146.683594 144.453125 146.972656 135.566406 146.972656 131.855469 C 146.972656 131.855469 146.972656 130.175781 146.972656 130.175781 C 146.972656 130.175781 142.773438 127.234375 142.773438 127.234375 C 142.773438 127.234375 138.574219 125.554688 138.574219 125.554688 C 138.574219 125.554688 141.09375 123.039062 141.09375 123.039062 C 142.226562 120.769531 144.453125 113.195312 144.453125 110.859375 C 144.453125 110.859375 139.835938 109.179688 139.835938 109.179688 C 134.550781 109.179688 124.992188 109.042969 119.679688 111.699219 C 116.367188 113.355469 104.210938 120.9375 101.621094 120.9375 C 101.621094 120.9375 99.941406 122.617188 99.941406 122.617188 C 94.464844 122.617188 84.910156 138.574219 83.144531 138.574219 C 83.144531 138.574219 81.464844 141.933594 81.464844 141.933594 C 81.464844 141.933594 81.464844 142.773438 81.464844 142.773438 C 81.464844 143.972656 80.382812 146.132812 78.945312 146.132812 C 78.945312 146.132812 78.945312 147.8125 78.945312 147.8125 C 78.945312 147.8125 78.105469 148.652344 78.105469 148.652344 C 78.105469 151.105469 74.746094 152.214844 74.746094 154.53125 C 74.746094 154.53125 74.746094 155.371094 74.746094 155.371094 C 74.746094 155.371094 73.90625 157.890625 73.90625 157.890625 C 73.90625 157.890625 73.90625 158.730469 73.90625 158.730469 C 73.90625 158.730469 70.546875 165.449219 70.546875 165.449219 C 70.546875 165.449219 69.707031 166.289062 69.707031 166.289062 C 69.707031 166.289062 64.667969 180.148438 64.667969 180.148438 C 62.375 184.734375 62.304688 211.53125 64.667969 216.257812 C 64.667969 216.257812 64.667969 224.65625 64.667969 224.65625 C 66.570312 228.464844 71.566406 238.394531 73.484375 239.355469 C 75.925781 240.574219 83.144531 242.726562 83.144531 244.394531 C 83.144531 244.394531 83.984375 245.234375 83.984375 245.234375 C 83.984375 245.234375 85.664062 245.234375 85.664062 245.234375 C 85.664062 245.234375 87.34375 246.074219 87.34375 246.074219 C 87.34375 247.398438 89.742188 246.914062 90.703125 246.914062 C 90.703125 244.75 96.199219 245.234375 97.84375 245.234375 C 102.097656 245.234375 115.898438 247.039062 115.898438 252.792969 C 115.898438 252.792969 120.9375 253.632812 120.9375 253.632812 C 120.9375 253.632812 121.777344 253.632812 121.777344 253.632812 C 123.882812 253.632812 132.695312 255.582031 132.695312 257.832031 C 132.695312 257.832031 138.574219 259.511719 138.574219 259.511719 C 138.574219 259.511719 139.414062 259.511719 139.414062 259.511719 C 139.414062 259.511719 140.253906 260.351562 140.253906 260.351562 Z M 140.253906 260.351562 "/>
<path style=" stroke:none;fill-rule:nonzero;fill:rgb(86.666667%,85.09804%,31.764707%);fill-opacity:1;" d="M 155.371094 131.015625 L 158.730469 131.015625 C 159.117188 131.015625 168.808594 128.375 168.808594 130.175781 C 168.808594 130.175781 169.648438 130.175781 169.648438 130.175781 C 169.648438 127.339844 173.199219 127.65625 175.527344 127.65625 C 181.125 127.65625 184.96875 125.136719 190.644531 125.136719 C 190.644531 125.136719 189.804688 122.617188 189.804688 122.617188 C 189.804688 122.617188 183.507812 115.058594 183.507812 115.058594 C 183.507812 115.058594 179.726562 115.898438 179.726562 115.898438 C 179.726562 115.898438 175.527344 115.898438 175.527344 115.898438 C 171.6875 115.898438 161.183594 120.273438 157.46875 118.417969 C 155.550781 117.457031 153.433594 116.820312 151.59375 115.898438 C 151.59375 115.898438 146.972656 111.699219 146.972656 111.699219 C 146.972656 113.558594 146.132812 113.558594 146.132812 111.699219 C 146.132812 111.699219 144.453125 110.859375 144.453125 110.859375 C 144.453125 113.195312 142.226562 120.769531 141.09375 123.039062 C 141.09375 123.039062 138.574219 125.554688 138.574219 125.554688 C 138.574219 125.554688 142.773438 127.234375 142.773438 127.234375 C 142.773438 127.234375 146.972656 130.175781 146.972656 130.175781 C 146.972656 130.175781 147.8125 131.015625 147.8125 131.015625 C 147.8125 131.015625 149.492188 131.015625 149.492188 131.015625 C 149.492188 131.015625 155.371094 131.015625 155.371094 131.015625 Z M 155.371094 131.015625 "/>
<path style=" stroke:none;fill-rule:nonzero;fill:rgb(5.490196%,27.843139%,88.627452%);fill-opacity:1;" d="M 146.132812 111.699219 L 146.972656 111.699219 C 146.972656 113.558594 146.132812 113.558594 146.132812 111.699219 Z M 146.132812 111.699219 "/>
<path style=" stroke:none;fill-rule:nonzero;fill:rgb(33.725491%,0%,86.666667%);fill-opacity:1;" d="M 258.671875 146.972656 C 259.792969 146.972656 260.070312 146.972656 261.191406 146.972656 C 261.191406 146.972656 262.871094 146.132812 262.871094 146.132812 C 262.871094 140.5625 259.339844 133.660156 254.054688 131.015625 C 252.097656 130.039062 247.753906 131.429688 247.753906 128.496094 C 246.289062 128.496094 242.714844 129.082031 242.714844 126.816406 C 242.714844 126.816406 240.195312 126.816406 240.195312 126.816406 C 232.5 126.816406 225.542969 125.976562 218.359375 125.976562 C 218.359375 125.976562 212.480469 128.914062 212.480469 128.914062 C 210.71875 132.441406 209.230469 134.683594 206.179688 137.734375 C 206.179688 137.734375 205.34375 140.253906 205.34375 140.253906 C 203.46875 140.253906 204.476562 137.265625 204.082031 136.476562 C 202.285156 132.882812 200.039062 131.75 199.042969 129.757812 C 198.574219 128.820312 190.644531 127.074219 190.644531 125.136719 C 184.96875 125.136719 181.125 127.65625 175.527344 127.65625 C 175.527344 128.71875 170.613281 130.175781 169.648438 130.175781 C 169.648438 130.175781 168.808594 130.175781 168.808594 130.175781 C 166.90625 130.175781 162.761719 132.695312 159.570312 132.695312 C 159.570312 133.25 153.035156 135.269531 152.011719 137.3125 C 150.296875 140.742188 144.359375 146.972656 152.011719 146.972656 C 152.011719 146.972656 155.371094 146.132812 155.371094 146.132812 C 155.371094 146.132812 156.210938 145.292969 156.210938 145.292969 C 158.410156 145.292969 162.863281 140.496094 165.03125 139.414062 C 171.8125 136.023438 192.402344 133.269531 196.523438 141.515625 C 197.277344 143.023438 199.882812 143.59375 199.882812 146.132812 C 199.882812 146.132812 201.5625 146.972656 201.5625 146.972656 C 201.5625 146.972656 202.402344 146.972656 202.402344 146.972656 C 202.402344 146.972656 203.242188 146.972656 203.242188 146.972656 C 203.242188 146.972656 206.179688 145.292969 206.179688 145.292969 C 206.179688 145.292969 207.441406 146.972656 207.441406 146.972656 C 207.441406 146.972656 210.800781 146.132812 210.800781 146.132812 C 210.800781 141.164062 219.40625 135.742188 222.140625 134.375 C 223.828125 133.53125 229.542969 136.054688 231.375 136.054688 C 237.714844 136.054688 247.230469 134.585938 250.273438 140.671875 C 251.273438 142.675781 258.671875 146.164062 258.671875 146.972656 Z M 258.671875 146.972656 "/>
<path style=" stroke:none;fill-rule:nonzero;fill:rgb(0.784314%,17.254902%,100%);fill-opacity:1;" d="M 299.824219 183.925781 L 299.824219 184.765625 C 299.824219 184.765625 302.34375 183.507812 302.34375 183.507812 C 302.34375 182.085938 301.347656 178.160156 300.664062 176.789062 C 300.664062 176.789062 301.503906 173.429688 301.503906 173.429688 C 301.503906 173.429688 297.304688 166.289062 297.304688 166.289062 C 297.304688 166.289062 295.625 165.449219 295.625 165.449219 C 294.183594 165.449219 287.226562 160.1875 287.226562 158.730469 C 287.226562 158.730469 286.386719 157.890625 286.386719 157.890625 C 282.648438 157.890625 279.675781 150.964844 276.726562 149.492188 C 276.726562 149.492188 271.6875 144.453125 271.6875 144.453125 C 265.460938 141.339844 260.351562 139.046875 260.351562 128.496094 C 260.351562 128.496094 247.753906 128.496094 247.753906 128.496094 C 247.753906 131.429688 252.097656 130.039062 254.054688 131.015625 C 259.339844 133.660156 262.871094 140.5625 262.871094 146.132812 C 262.871094 146.132812 262.03125 147.8125 262.03125 147.8125 C 262.03125 149.003906 264.03125 152.851562 265.390625 152.851562 C 271.125 152.851562 284.925781 157.90625 287.226562 162.507812 C 287.875 163.804688 293.105469 164.230469 293.105469 167.128906 C 293.105469 167.128906 293.945312 167.96875 293.945312 167.96875 C 294.984375 167.96875 296.464844 168.324219 296.464844 169.648438 C 296.464844 169.648438 296.464844 170.488281 296.464844 170.488281 C 296.464844 170.488281 297.304688 172.167969 297.304688 172.167969 C 297.304688 172.167969 297.304688 173.007812 297.304688 173.007812 C 297.304688 173.007812 298.984375 174.6875 298.984375 174.6875 C 298.984375 174.6875 298.984375 177.207031 298.984375 177.207031 C 298.984375 177.207031 299.824219 178.886719 299.824219 178.886719 C 299.824219 178.886719 299.824219 183.925781 299.824219 183.925781 Z M 299.824219 183.925781 "/>
<path style=" stroke:none;fill-rule:nonzero;fill:rgb(0.784314%,17.254902%,100%);fill-opacity:1;" d="M 114.21875 202.402344 C 114.21875 206.171875 118.90625 208.28125 114.21875 208.28125 C 111.289062 208.28125 112.417969 195.683594 105.820312 195.683594 C 105.820312 195.683594 105.820312 193.164062 105.820312 193.164062 C 105.820312 193.164062 104.140625 189.804688 104.140625 189.804688 C 104.140625 189.804688 104.140625 188.964844 104.140625 188.964844 C 104.140625 186.691406 104.140625 185.0625 104.140625 182.246094 C 104.140625 182.246094 104.140625 181.40625 104.140625 181.40625 C 104.140625 181.40625 104.980469 180.566406 104.980469 180.566406 C 104.980469 180.566406 105.820312 178.886719 105.820312 178.886719 C 105.820312 178.886719 105.820312 178.046875 105.820312 178.046875 C 106.886719 178.046875 108.339844 174.410156 108.339844 173.007812 C 108.339844 173.007812 109.179688 172.167969 109.179688 172.167969 C 109.179688 172.167969 110.859375 170.070312 110.859375 170.070312 C 113.664062 164.460938 112.328125 166.605469 118 163.769531 C 118.550781 163.492188 116.816406 161.421875 118.835938 160.410156 C 118.835938 160.410156 121.359375 160.410156 121.359375 160.410156 C 123.320312 159.429688 124.484375 156.210938 126.816406 156.210938 C 126.816406 156.210938 127.65625 155.371094 127.65625 155.371094 C 129.371094 155.371094 130.175781 154.566406 130.175781 152.851562 C 130.175781 152.851562 131.855469 152.011719 131.855469 152.011719 C 131.855469 152.011719 134.375 149.492188 134.375 149.492188 C 136.34375 149.492188 137.734375 149.253906 137.734375 146.972656 C 137.734375 146.972656 138.574219 146.972656 138.574219 146.972656 C 139.613281 146.972656 141.09375 146.617188 141.09375 145.292969 C 141.09375 145.292969 141.933594 144.453125 141.933594 144.453125 C 146.683594 144.453125 146.972656 135.566406 146.972656 131.855469 C 146.972656 131.855469 147.8125 131.015625 147.8125 131.015625 C 147.8125 131.015625 149.492188 131.015625 149.492188 131.015625 C 149.492188 132.359375 155.371094 132.359375 155.371094 131.015625 C 155.371094 131.015625 158.730469 131.015625 158.730469 131.015625 C 158.730469 131.015625 159.570312 132.695312 159.570312 132.695312 C 159.570312 133.25 153.035156 135.269531 152.011719 137.3125 C 150.296875 140.742188 144.359375 146.972656 152.011719 146.972656 C 152.011719 146.972656 152.011719 147.8125 152.011719 147.8125 C 147.949219 147.8125 146.046875 151.003906 142.351562 152.851562 C 138.78125 154.640625 123.457031 156.515625 123.457031 162.929688 C 123.457031 162.929688 121.777344 163.769531 121.777344 163.769531 C 121.777344 163.769531 120.9375 164.609375 120.9375 164.609375 C 120.9375 164.609375 120.097656 165.449219 120.097656 165.449219 C 117.957031 165.449219 116.738281 167.707031 116.738281 169.648438 C 116.738281 169.648438 115.058594 172.167969 115.058594 172.167969 C 115.058594 172.167969 115.058594 173.007812 115.058594 173.007812 C 115.058594 173.007812 114.21875 173.847656 114.21875 173.847656 C 112.242188 173.847656 110.859375 180.84375 110.859375 183.085938 C 110.859375 184.574219 109.132812 187.609375 109.179688 187.703125 C 109.179688 187.703125 111.699219 190.226562 111.699219 190.226562 C 111.699219 190.226562 111.699219 198.625 111.699219 198.625 C 111.699219 198.625 114.21875 202.402344 114.21875 202.402344 Z M 114.21875 202.402344 "/>
<path style=" stroke:none;fill-rule:nonzero;fill:rgb(88.235295%,59.215689%,5.882353%);fill-opacity:1;" d="M 196.523438 165.449219 C 193.246094 165.449219 186.445312 172.910156 186.445312 175.527344 C 186.445312 175.527344 184.34375 178.046875 184.34375 178.046875 C 184.34375 178.046875 178.46875 178.886719 178.46875 178.886719 C 178.46875 178.886719 174.265625 181.40625 174.265625 181.40625 C 170.703125 181.40625 167.550781 176.789062 165.03125 175.527344 C 165.03125 175.527344 159.570312 174.265625 159.570312 174.265625 C 158.386719 171.902344 159.085938 168.257812 157.890625 165.867188 C 157.890625 165.867188 155.371094 163.351562 155.371094 163.351562 C 155.371094 163.351562 157.050781 160.828125 157.050781 160.828125 C 157.050781 160.828125 155.371094 158.730469 155.371094 158.730469 C 155.371094 156.925781 158.039062 147.8125 155.371094 147.8125 C 155.371094 147.8125 155.371094 146.132812 155.371094 146.132812 C 155.371094 146.132812 156.210938 145.292969 156.210938 145.292969 C 158.410156 145.292969 162.863281 140.496094 165.03125 139.414062 C 171.8125 136.023438 192.402344 133.269531 196.523438 141.515625 C 197.277344 143.023438 199.882812 143.59375 199.882812 146.132812 C 199.882812 147.28125 201.871094 149.492188 203.242188 149.492188 C 203.242188 149.492188 204.082031 149.492188 204.082031 149.492188 C 204.082031 149.492188 204.921875 150.332031 204.921875 150.332031 C 204.921875 151.328125 205.761719 151.328125 205.761719 150.332031 C 205.761719 150.332031 207.441406 149.492188 207.441406 149.492188 C 207.441406 149.492188 208.28125 148.652344 208.28125 148.652344 C 209.671875 148.652344 210.800781 147.425781 210.800781 146.132812 C 210.800781 141.164062 219.40625 135.742188 222.140625 134.375 C 223.828125 133.53125 229.542969 136.054688 231.375 136.054688 C 237.714844 136.054688 247.230469 134.585938 250.273438 140.671875 C 251.273438 142.675781 258.671875 146.164062 258.671875 146.972656 C 254.269531 146.972656 260.386719 150.683594 259.511719 152.429688 C 259.511719 152.429688 256.992188 153.273438 256.992188 153.273438 C 256.992188 153.273438 259.511719 155.789062 259.511719 155.789062 C 259.511719 155.789062 257.832031 156.632812 257.832031 156.632812 C 257.832031 157.535156 256.992188 159.648438 256.992188 160.828125 C 256.992188 161.667969 258.511719 162.828125 257.832031 164.1875 C 257.339844 165.175781 254.054688 164.191406 255.3125 166.710938 C 255.3125 166.710938 257.832031 167.546875 257.832031 167.546875 C 257.832031 172.648438 233.460938 181.609375 229.695312 179.726562 C 228.617188 179.1875 227.335938 179.386719 226.335938 178.886719 C 226.335938 178.886719 223.398438 175.527344 223.398438 175.527344 C 223.398438 171.011719 218.730469 169.597656 215.839844 166.710938 C 215.839844 166.710938 213.320312 162.929688 213.320312 162.929688 C 213.320312 159.785156 221.71875 164.109375 221.71875 161.671875 C 221.71875 158.695312 211.570312 157.890625 209.121094 157.890625 C 209.121094 156.1875 203.242188 155.039062 203.242188 157.890625 C 198.667969 157.890625 197.59375 158.40625 193.585938 160.410156 C 193.585938 160.410156 188.125 161.671875 188.125 161.671875 C 188.125 161.671875 192.742188 164.609375 192.742188 164.609375 C 192.742188 164.609375 194.421875 162.929688 194.421875 162.929688 C 194.421875 162.929688 196.523438 164.609375 196.523438 164.609375 C 196.523438 164.609375 196.523438 165.449219 196.523438 165.449219 Z M 196.523438 165.449219 "/>
<path style=" stroke:none;fill-rule:nonzero;fill:rgb(0.784314%,17.254902%,100%);fill-opacity:1;" d="M 204.921875 150.332031 C 204.921875 151.328125 205.761719 151.328125 205.761719 150.332031 C 205.761719 150.332031 207.441406 149.492188 207.441406 149.492188 C 207.441406 149.492188 208.28125 148.652344 208.28125 148.652344 C 208.28125 148.652344 207.441406 146.972656 207.441406 146.972656 C 207.441406 146.972656 206.179688 145.292969 206.179688 145.292969 C 206.179688 145.292969 203.242188 146.972656 203.242188 146.972656 C 203.242188 146.972656 203.242188 149.492188 203.242188 149.492188 C 203.242188 149.492188 204.082031 149.492188 204.082031 149.492188 C 204.082031 149.492188 204.921875 150.332031 204.921875 150.332031 Z M 204.921875 150.332031 "/>
<path style=" stroke:none;fill-rule:nonzero;fill:rgb(88.235295%,59.215689%,5.882353%);fill-opacity:1;" d="M 201.5625 146.972656 L 202.402344 146.972656 C 202.402344 147.96875 201.5625 147.96875 201.5625 146.972656 Z M 201.5625 146.972656 "/>
<path style=" stroke:none;fill-rule:nonzero;fill:rgb(100%,34.117648%,11.764706%);fill-opacity:1;" d="M 271.269531 178.046875 C 271.269531 186.066406 260.625 182.320312 255.734375 184.765625 C 246.695312 189.285156 239.335938 187.90625 231.375 183.925781 C 230.234375 183.355469 225.738281 185.066406 224.65625 185.605469 L 222.140625 183.925781 C 220.496094 183.105469 218.714844 184.765625 217.519531 184.765625 C 217.519531 181 223.398438 178.863281 223.398438 175.527344 C 223.398438 175.527344 226.335938 178.886719 226.335938 178.886719 C 227.335938 179.386719 228.617188 179.1875 229.695312 179.726562 C 233.460938 181.609375 257.832031 172.648438 257.832031 167.546875 C 257.832031 167.546875 255.3125 166.710938 255.3125 166.710938 C 254.054688 164.191406 257.339844 165.175781 257.832031 164.1875 C 258.511719 162.828125 256.992188 161.667969 256.992188 160.828125 C 256.992188 159.648438 257.832031 157.535156 257.832031 156.632812 C 257.832031 156.632812 259.511719 155.789062 259.511719 155.789062 C 259.511719 155.789062 256.992188 153.273438 256.992188 153.273438 C 256.992188 153.273438 259.511719 152.429688 259.511719 152.429688 C 260.386719 150.683594 254.269531 146.972656 258.671875 146.972656 C 259.792969 146.972656 260.070312 146.972656 261.191406 146.972656 C 261.191406 146.972656 262.03125 147.8125 262.03125 147.8125 C 262.03125 149.003906 264.03125 152.851562 265.390625 152.851562 C 265.390625 155.140625 267.71875 154.566406 268.75 156.632812 C 269.164062 157.457031 269.464844 161.25 270.429688 161.25 C 270.429688 162.878906 272.109375 163.859375 272.109375 164.1875 C 272.109375 164.1875 270.007812 164.609375 270.007812 164.609375 C 270.007812 164.609375 268.75 170.070312 268.75 170.070312 C 270.460938 173.488281 271.269531 174.667969 271.269531 178.046875 Z M 271.269531 178.046875 "/>
<path style=" stroke:none;fill-rule:nonzero;fill:rgb(100%,34.117648%,11.764706%);fill-opacity:1;" d="M 152.851562 188.125 L 153.691406 188.964844 C 155.941406 188.964844 156.480469 187.359375 158.3125 186.445312 C 159.113281 186.042969 178.964844 187.285156 181.40625 187.285156 C 185.839844 187.285156 188.964844 187.523438 188.964844 182.246094 C 188.964844 182.246094 188.125 180.148438 188.125 180.148438 C 188.804688 178.785156 189.804688 178.910156 189.804688 177.207031 C 189.804688 177.207031 186.445312 175.527344 186.445312 175.527344 C 186.445312 175.527344 184.34375 178.046875 184.34375 178.046875 C 184.34375 178.046875 178.46875 178.886719 178.46875 178.886719 C 178.46875 178.886719 174.265625 181.40625 174.265625 181.40625 C 170.703125 181.40625 167.550781 176.789062 165.03125 175.527344 C 165.03125 175.527344 159.570312 174.265625 159.570312 174.265625 C 158.386719 171.902344 159.085938 168.257812 157.890625 165.867188 C 157.890625 165.867188 155.371094 163.351562 155.371094 163.351562 C 155.371094 163.351562 157.050781 160.828125 157.050781 160.828125 C 157.050781 160.828125 155.371094 158.730469 155.371094 158.730469 C 155.371094 156.925781 158.039062 147.8125 155.371094 147.8125 C 155.371094 147.8125 152.011719 147.8125 152.011719 147.8125 C 152.011719 153.257812 139.414062 152.902344 139.414062 159.570312 C 149.917969 159.570312 135.214844 170.261719 135.214844 171.75 C 135.214844 174.304688 140.253906 176.5 140.253906 178.46875 C 140.253906 178.46875 137.734375 179.726562 137.734375 179.726562 C 137.734375 179.726562 138.574219 181.40625 138.574219 181.40625 C 140.71875 181.40625 138.136719 183.496094 138.992188 183.925781 C 141.886719 185.371094 150.386719 188.125 152.851562 188.125 Z M 152.851562 188.125 "/>
<path style=" stroke:none;fill-rule:nonzero;fill:rgb(100%,34.117648%,11.764706%);fill-opacity:1;" d="M 203.242188 157.890625 L 209.121094 157.890625 C 209.121094 156.1875 203.242188 155.039062 203.242188 157.890625 Z M 203.242188 157.890625 "/>
<path style=" stroke:none;fill-rule:nonzero;fill:rgb(12.941177%,90.196079%,100%);fill-opacity:1;" d="M 197.363281 163.769531 L 196.523438 164.609375 C 196.523438 164.609375 194.421875 162.929688 194.421875 162.929688 C 194.421875 162.929688 192.742188 164.609375 192.742188 164.609375 C 192.742188 164.609375 188.125 161.671875 188.125 161.671875 C 188.125 161.671875 193.585938 160.410156 193.585938 160.410156 C 197.59375 158.40625 198.667969 157.890625 203.242188 157.890625 C 203.242188 157.890625 209.121094 157.890625 209.121094 157.890625 C 211.570312 157.890625 221.71875 158.695312 221.71875 161.671875 C 221.71875 164.109375 213.320312 159.785156 213.320312 162.929688 C 213.320312 162.929688 212.480469 162.929688 212.480469 162.929688 C 212.480469 161.605469 211 161.25 209.960938 161.25 C 209.960938 161.25 209.121094 162.089844 209.121094 162.089844 C 209.121094 162.089844 208.28125 162.089844 208.28125 162.089844 C 208.28125 162.089844 201.5625 162.089844 201.5625 162.089844 C 201.5625 162.089844 198.203125 162.929688 198.203125 162.929688 C 198.203125 162.929688 197.363281 163.769531 197.363281 163.769531 Z M 197.363281 163.769531 "/>
<path style=" stroke:none;fill-rule:evenodd;fill:rgb(0%,39.215687%,0%);fill-opacity:1;" d="M 273.789062 160.410156 C 273.789062 162.03125 275.410156 160.410156 273.789062 160.410156 M 288.90625 203.242188 C 288.90625 205.390625 284.753906 202.589844 283.445312 203.242188 C 282.414062 203.757812 282.375 205.761719 280.507812 205.761719 C 274.015625 205.761719 278.828125 198.378906 278.828125 196.101562 C 278.828125 196.101562 274.628906 191.0625 274.628906 191.0625 C 273.125 188.058594 276.375 178.046875 271.269531 178.046875 C 271.269531 174.667969 270.460938 173.488281 268.75 170.070312 C 268.75 170.070312 270.007812 164.609375 270.007812 164.609375 C 270.007812 164.609375 272.109375 164.1875 272.109375 164.1875 C 272.109375 163.859375 270.429688 162.878906 270.429688 161.25 C 270.429688 157.589844 275.503906 158.539062 277.570312 159.570312 C 280.039062 160.804688 281.644531 159.089844 284.289062 160.410156 C 286.476562 161.503906 289.875 167.128906 293.105469 167.128906 C 293.105469 167.128906 293.945312 167.96875 293.945312 167.96875 C 293.945312 169.292969 295.425781 169.648438 296.464844 169.648438 C 296.464844 169.648438 296.464844 170.488281 296.464844 170.488281 C 296.464844 170.488281 297.304688 172.167969 297.304688 172.167969 C 297.304688 172.167969 297.304688 173.007812 297.304688 173.007812 C 297.304688 174.476562 297.515625 174.6875 298.984375 174.6875 C 298.984375 174.6875 298.984375 177.207031 298.984375 177.207031 C 298.984375 177.207031 299.824219 178.886719 299.824219 178.886719 C 299.824219 178.886719 299.824219 183.925781 299.824219 183.925781 C 298.5 183.925781 298.984375 186.324219 298.984375 187.285156 C 298.984375 187.285156 298.144531 188.125 298.144531 188.125 C 298.144531 188.125 297.304688 189.804688 297.304688 189.804688 C 297.304688 189.804688 295.625 194.003906 295.625 194.003906 C 295.625 194.003906 295.625 194.84375 295.625 194.84375 C 295.625 194.84375 294.785156 196.523438 294.785156 196.523438 C 292.464844 196.523438 293.945312 197.914062 293.945312 199.882812 C 293.945312 199.882812 288.90625 203.242188 288.90625 203.242188 Z M 288.90625 203.242188 "/>
<path style=" stroke:none;fill-rule:nonzero;fill:rgb(0%,39.215687%,0%);fill-opacity:1;" d="M 126.816406 209.960938 L 130.175781 209.960938 C 130.175781 209.960938 133.535156 207.023438 133.535156 207.023438 C 133.535156 204.898438 128.683594 199.085938 130.175781 196.101562 C 130.175781 196.101562 133.953125 194.003906 133.953125 194.003906 C 136.1875 192.886719 137.734375 183.859375 137.734375 181.40625 C 137.734375 181.40625 137.734375 179.726562 137.734375 179.726562 C 137.734375 179.726562 140.253906 178.46875 140.253906 178.46875 C 140.253906 176.5 135.214844 174.304688 135.214844 171.75 C 135.214844 170.261719 149.917969 159.570312 139.414062 159.570312 C 135.449219 159.570312 131.125 159.570312 128.078125 159.570312 C 127.507812 159.570312 125.523438 162.929688 123.457031 162.929688 C 123.457031 162.929688 121.777344 163.769531 121.777344 163.769531 C 121.777344 163.769531 120.9375 164.609375 120.9375 164.609375 C 120.9375 164.609375 120.097656 165.449219 120.097656 165.449219 C 121.101562 165.449219 118.742188 169.648438 116.738281 169.648438 C 116.738281 171.332031 116.984375 172.167969 115.058594 172.167969 C 115.058594 172.167969 115.058594 173.007812 115.058594 173.007812 C 115.058594 173.007812 114.21875 173.847656 114.21875 173.847656 C 112.242188 173.847656 110.859375 180.84375 110.859375 183.085938 C 110.859375 184.574219 109.132812 187.609375 109.179688 187.703125 C 109.179688 187.703125 111.699219 190.226562 111.699219 190.226562 C 111.699219 190.226562 111.699219 198.625 111.699219 198.625 C 111.699219 198.625 114.21875 202.402344 114.21875 202.402344 C 115.855469 202.402344 116.433594 204.921875 118.417969 204.921875 C 118.417969 201.996094 124.730469 204.921875 125.136719 204.921875 C 125.136719 204.921875 125.976562 205.761719 125.976562 205.761719 C 125.976562 207.183594 126.816406 208.40625 126.816406 209.960938 Z M 126.816406 209.960938 "/>
<path style=" stroke:none;fill-rule:nonzero;fill:rgb(100%,34.117648%,11.764706%);fill-opacity:1;" d="M 209.960938 161.25 L 209.121094 162.089844 C 209.121094 162.089844 209.960938 161.25 209.960938 161.25 Z M 209.960938 161.25 "/>
<path style=" stroke:none;fill-rule:evenodd;fill:rgb(2.745098%,100%,34.901962%);fill-opacity:1;" d="M 204.082031 175.527344 L 202.402344 177.625 C 202.402344 178.425781 203.242188 180.105469 203.242188 181.40625 L 203.242188 189.382812 C 203.242188 190.328125 204.191406 195.886719 205.761719 192.742188 C 207.066406 190.136719 206.085938 175.527344 204.082031 175.527344 M 199.882812 214.160156 L 200.722656 215 C 200.722656 219.679688 209.121094 217.929688 209.121094 213.320312 C 209.121094 213.320312 209.121094 210.800781 209.121094 210.800781 C 209.121094 201.289062 217.519531 190.933594 217.519531 184.765625 C 217.519531 181 223.398438 178.863281 223.398438 175.527344 C 223.398438 171.011719 218.730469 169.597656 215.839844 166.710938 C 215.839844 166.710938 213.320312 162.929688 213.320312 162.929688 C 213.320312 162.929688 212.480469 162.929688 212.480469 162.929688 C 211.441406 162.929688 208.28125 163.46875 208.28125 162.089844 C 208.28125 162.089844 201.5625 162.089844 201.5625 162.089844 C 201.5625 162.996094 198.402344 164.609375 197.363281 164.609375 C 197.363281 164.609375 196.523438 165.449219 196.523438 165.449219 C 193.246094 165.449219 186.445312 172.910156 186.445312 175.527344 C 186.445312 175.527344 189.804688 177.207031 189.804688 177.207031 C 191.828125 177.207031 190.644531 185.738281 190.644531 187.285156 C 194.09375 187.285156 193.121094 193.496094 194.003906 195.265625 C 194.980469 197.214844 197.480469 198.855469 198.203125 200.304688 C 199.632812 203.164062 199.882812 211.039062 199.882812 214.160156 Z M 199.882812 214.160156 "/>
<path style=" stroke:none;fill-rule:nonzero;fill:rgb(88.235295%,59.215689%,5.882353%);fill-opacity:1;" d="M 198.203125 162.929688 L 197.363281 163.769531 C 197.363281 163.769531 198.203125 162.929688 198.203125 162.929688 Z M 198.203125 162.929688 "/>
<path style=" stroke:none;fill-rule:nonzero;fill:rgb(88.235295%,59.215689%,5.882353%);fill-opacity:1;" d="M 196.523438 164.609375 L 197.363281 164.609375 C 197.363281 164.609375 197.363281 163.769531 197.363281 163.769531 C 197.363281 163.769531 196.523438 164.609375 196.523438 164.609375 Z M 196.523438 164.609375 "/>
<path style=" stroke:none;fill-rule:nonzero;fill:rgb(0.784314%,17.254902%,100%);fill-opacity:1;" d="M 204.082031 175.527344 L 202.402344 177.625 C 202.402344 178.425781 203.242188 180.105469 203.242188 181.40625 L 203.242188 189.382812 C 203.242188 190.328125 204.191406 195.886719 205.761719 192.742188 C 207.066406 190.136719 206.085938 175.527344 204.082031 175.527344 Z M 204.082031 175.527344 "/>
<path style=" stroke:none;fill-rule:evenodd;fill:rgb(60.000002%,32.549021%,100%);fill-opacity:1;" d="M 213.320312 232.636719 C 213.320312 239.261719 220.632812 232.636719 213.320312 232.636719 M 193.164062 231.796875 L 192.324219 236.414062 C 193.210938 238.191406 198.882812 231.796875 193.164062 231.796875 M 242.714844 212.480469 C 242.714844 214.769531 223.347656 226.941406 229.695312 230.117188 C 236.785156 233.660156 259.4375 212.480469 242.714844 212.480469 M 162.089844 210.800781 C 162.089844 212.714844 155.347656 215.199219 159.992188 217.519531 L 169.226562 227.597656 C 173.007812 229.488281 181.066406 229.019531 178.046875 222.976562 L 175.945312 223.398438 L 170.90625 220.039062 C 168.382812 217.511719 165.847656 210.800781 162.089844 210.800781 M 232.636719 246.914062 C 229.320312 246.914062 225.367188 249.789062 221.296875 247.753906 C 215.492188 244.851562 211.429688 235.996094 203.664062 235.996094 L 200.304688 238.515625 L 196.945312 238.515625 C 192.773438 240.601562 192.140625 245.957031 188.546875 247.753906 C 184.976562 249.539062 181.523438 247.753906 178.046875 247.753906 C 178.046875 238.664062 172.554688 240.546875 170.488281 236.414062 C 170.488281 236.414062 167.96875 232.21875 167.96875 232.21875 C 167.96875 232.21875 165.449219 231.375 165.449219 231.375 C 164.25 228.976562 162.871094 225.917969 162.507812 225.917969 C 162.507812 225.917969 160.828125 227.597656 160.828125 227.597656 C 160.488281 227.597656 160.234375 223.9375 159.148438 223.398438 C 159.148438 223.398438 153.273438 223.398438 153.273438 223.398438 C 145.660156 219.59375 143.863281 217.519531 136.476562 217.519531 C 136.476562 217.519531 132.695312 215 132.695312 215 C 132.695312 213.140625 131.015625 213.722656 131.015625 212.480469 C 131.015625 212.480469 130.175781 209.960938 130.175781 209.960938 C 130.175781 209.960938 133.535156 207.023438 133.535156 207.023438 C 133.535156 204.898438 128.683594 199.085938 130.175781 196.101562 C 130.175781 196.101562 133.953125 194.003906 133.953125 194.003906 C 136.1875 192.886719 137.734375 183.859375 137.734375 181.40625 C 137.734375 181.40625 138.574219 181.40625 138.574219 181.40625 C 140.71875 181.40625 138.136719 183.496094 138.992188 183.925781 C 141.886719 185.371094 150.386719 188.125 152.851562 188.125 C 152.851562 188.125 153.691406 188.964844 153.691406 188.964844 C 155.941406 188.964844 156.480469 187.359375 158.3125 186.445312 C 159.113281 186.042969 178.964844 187.285156 181.40625 187.285156 C 181.40625 189.085938 184.984375 187.605469 186.023438 188.125 C 188.210938 189.21875 190.644531 189.441406 190.644531 187.285156 C 194.09375 187.285156 193.121094 193.496094 194.003906 195.265625 C 194.980469 197.214844 197.480469 198.855469 198.203125 200.304688 C 199.632812 203.164062 199.882812 211.039062 199.882812 214.160156 C 199.882812 214.160156 200.722656 215 200.722656 215 C 200.722656 219.679688 209.121094 217.929688 209.121094 213.320312 C 210.367188 213.320312 210.367188 210.800781 209.121094 210.800781 C 209.121094 201.289062 217.519531 190.933594 217.519531 184.765625 C 218.714844 184.765625 220.496094 183.105469 222.140625 183.925781 C 222.140625 183.925781 224.65625 185.605469 224.65625 185.605469 C 225.738281 185.066406 230.234375 183.355469 231.375 183.925781 C 239.335938 187.90625 246.695312 189.285156 255.734375 184.765625 C 260.625 182.320312 271.269531 186.066406 271.269531 178.046875 C 276.375 178.046875 273.125 188.058594 274.628906 191.0625 C 274.628906 191.0625 278.828125 196.101562 278.828125 196.101562 C 278.828125 198.378906 274.015625 205.761719 280.507812 205.761719 C 280.507812 209.816406 276.308594 213.332031 276.308594 217.519531 C 276.308594 217.519531 274.628906 219.199219 274.628906 219.199219 C 269.167969 219.199219 260.378906 217.71875 255.734375 220.039062 C 255.734375 220.039062 252.375 223.398438 252.375 223.398438 C 247.710938 225.730469 243.894531 227.335938 241.035156 233.054688 C 238.363281 238.398438 232.636719 240.464844 232.636719 246.914062 Z M 232.636719 246.914062 "/>
<path style=" stroke:none;fill-rule:nonzero;fill:rgb(86.666667%,39.215687%,47.450981%);fill-opacity:1;" d="M 346.015625 218.359375 C 346.015625 223.664062 348.453125 218.109375 350.632812 219.199219 L 351.476562 221.71875 C 357.78125 221.71875 365.308594 220.878906 371.210938 220.878906 C 371.210938 220.878906 367.011719 216.257812 367.011719 216.257812 C 367.804688 214.671875 371.71875 214.402344 372.890625 212.0625 C 373.921875 210 373.597656 207.28125 374.570312 205.34375 C 374.570312 205.34375 377.089844 203.664062 377.089844 203.664062 C 377.089844 203.664062 377.089844 200.304688 377.089844 200.304688 C 379.691406 195.101562 379.609375 193.773438 379.609375 188.125 C 379.609375 188.125 377.507812 189.804688 377.507812 189.804688 C 375.695312 188.898438 371.175781 185.605469 369.109375 185.605469 C 366.199219 185.605469 359.789062 188.082031 356.515625 186.445312 C 356.515625 186.445312 353.574219 185.1875 353.574219 185.1875 C 353.574219 185.1875 353.15625 183.085938 353.15625 183.085938 C 353.15625 183.085938 352.3125 184.765625 352.3125 184.765625 C 352.3125 184.765625 351.476562 183.085938 351.476562 183.085938 C 351.476562 183.085938 350.632812 185.605469 350.632812 185.605469 C 350.632812 185.605469 349.375 183.085938 349.375 183.085938 C 349.375 188.878906 348.535156 194.953125 348.535156 199.882812 C 348.535156 199.882812 347.695312 201.5625 347.695312 201.5625 C 347.695312 207.753906 346.015625 212.628906 346.015625 218.359375 Z M 346.015625 218.359375 "/>
<path style=" stroke:none;fill-rule:nonzero;fill:rgb(86.666667%,39.215687%,47.450981%);fill-opacity:1;" d="M 62.148438 224.238281 C 60.625 224.238281 60.578125 225.917969 60.046875 225.917969 L 55.851562 221.71875 C 54.449219 221.71875 54.582031 224.453125 53.328125 225.078125 C 49.140625 227.171875 39.121094 225.078125 35.273438 225.078125 C 35.273438 222.824219 39.472656 221.253906 39.472656 220.460938 C 39.472656 219.496094 34.386719 217.847656 33.59375 216.257812 C 31.640625 212.351562 31.308594 207.492188 29.394531 203.664062 C 28.230469 201.335938 24.355469 191.585938 24.355469 189.382812 C 24.355469 189.382812 26.875 188.964844 26.875 188.964844 C 26.875 188.964844 32.335938 188.125 32.335938 188.125 C 32.335938 188.125 33.171875 189.804688 33.171875 189.804688 C 34.574219 189.804688 34.441406 187.070312 35.695312 186.445312 C 35.707031 186.4375 43.828125 188.125 44.09375 188.125 C 44.367188 188.125 46.800781 184.765625 48.289062 184.765625 C 48.289062 184.765625 49.96875 188.125 49.96875 188.125 C 49.96875 188.125 52.492188 185.605469 52.492188 185.605469 C 54.617188 184.542969 55.230469 187.285156 55.851562 187.285156 C 57.085938 187.285156 57.847656 186.445312 59.628906 186.445312 C 59.628906 198.671875 62.148438 211.445312 62.148438 224.238281 Z M 62.148438 224.238281 "/>
<path style=" stroke:none;fill-rule:nonzero;fill:rgb(0.784314%,17.254902%,100%);fill-opacity:1;" d="M 295.625 194.003906 L 297.304688 194.003906 C 297.304688 194.003906 298.144531 189.804688 298.144531 189.804688 C 298.144531 189.804688 297.304688 189.804688 297.304688 189.804688 C 297.304688 189.804688 295.625 194.003906 295.625 194.003906 Z M 295.625 194.003906 "/>
<path style=" stroke:none;fill-rule:nonzero;fill:rgb(100%,20.392157%,15.294118%);fill-opacity:1;" d="M 171.328125 249.433594 L 171.328125 250.273438 C 171.328125 256.535156 162.363281 254.472656 158.730469 254.472656 C 148.558594 254.472656 147.46875 251.1875 140.253906 243.976562 C 140.253906 243.976562 134.375 238.9375 134.375 238.9375 C 132.328125 234.84375 128.871094 231.289062 126.816406 227.179688 C 126.816406 227.179688 125.976562 219.617188 125.976562 219.617188 C 125.976562 219.617188 121.777344 217.101562 121.777344 217.101562 C 121.777344 215.671875 121.980469 214.175781 122.617188 212.898438 C 122.617188 212.898438 125.136719 210.382812 125.136719 210.382812 C 125.136719 210.382812 121.359375 210.800781 121.359375 210.800781 C 121.359375 210.800781 118.417969 204.921875 118.417969 204.921875 C 118.417969 201.996094 124.730469 204.921875 125.136719 204.921875 C 125.136719 204.921875 125.976562 205.761719 125.976562 205.761719 C 125.976562 207.183594 126.816406 208.40625 126.816406 209.960938 C 126.816406 209.960938 131.015625 212.480469 131.015625 212.480469 C 131.015625 213.722656 132.695312 213.140625 132.695312 215 C 132.695312 217.179688 132.28125 233.476562 136.054688 233.476562 C 136.054688 233.476562 136.894531 234.316406 136.894531 234.316406 C 136.894531 235.941406 141.097656 240.195312 142.773438 240.195312 C 142.773438 240.195312 143.613281 241.035156 143.613281 241.035156 C 143.613281 241.035156 146.132812 243.554688 146.132812 243.554688 C 146.132812 245.167969 147.8125 245.644531 147.8125 243.554688 C 147.8125 243.554688 151.171875 244.394531 151.171875 244.394531 C 151.171875 244.394531 152.851562 246.074219 152.851562 246.074219 C 152.851562 246.074219 153.691406 246.914062 153.691406 246.914062 C 153.691406 246.914062 154.53125 246.074219 154.53125 246.074219 C 154.53125 246.074219 155.371094 246.074219 155.371094 246.074219 C 155.371094 247.542969 155.582031 247.753906 157.050781 247.753906 C 157.050781 247.753906 161.25 249.433594 161.25 249.433594 C 161.25 249.433594 162.089844 249.433594 162.089844 249.433594 C 162.089844 249.433594 162.929688 249.433594 162.929688 249.433594 C 162.929688 249.433594 164.609375 248.59375 164.609375 248.59375 C 164.609375 248.59375 171.328125 248.59375 171.328125 248.59375 C 171.328125 248.59375 171.328125 249.433594 171.328125 249.433594 Z M 171.328125 249.433594 "/>
<path style=" stroke:none;fill-rule:nonzero;fill:rgb(100%,20.392157%,15.294118%);fill-opacity:1;" d="M 263.710938 248.59375 L 262.871094 249.433594 C 255.742188 249.433594 252.382812 258.257812 243.132812 253.632812 C 238.1875 251.160156 235.996094 254.429688 235.996094 247.753906 C 235.996094 247.753906 236.835938 246.914062 236.835938 246.914062 C 239.035156 246.914062 242.308594 250.6875 244.8125 249.433594 C 248.390625 247.644531 253.074219 247.824219 256.570312 246.074219 C 263.328125 242.695312 274.628906 234.503906 274.628906 225.917969 C 274.628906 225.917969 275.46875 225.078125 275.46875 225.078125 C 275.46875 225.078125 275.46875 224.238281 275.46875 224.238281 C 275.46875 224.238281 276.308594 223.398438 276.308594 223.398438 C 276.308594 223.398438 276.308594 219.199219 276.308594 219.199219 C 276.308594 219.199219 276.308594 217.519531 276.308594 217.519531 C 276.308594 213.332031 280.507812 209.816406 280.507812 205.761719 C 282.375 205.761719 282.414062 203.757812 283.445312 203.242188 C 284.753906 202.589844 288.90625 205.390625 288.90625 203.242188 C 291.1875 203.242188 289.746094 205.957031 289.746094 207.441406 C 289.746094 207.441406 287.226562 209.960938 287.226562 209.960938 C 282.902344 209.960938 285.546875 213.027344 285.546875 215.839844 C 285.546875 215.839844 284.707031 217.519531 284.707031 217.519531 C 283.355469 217.519531 278.828125 226.847656 278.828125 228.4375 C 278.828125 228.4375 277.988281 229.277344 277.988281 229.277344 C 277.988281 229.277344 275.46875 234.316406 275.46875 234.316406 C 274.230469 234.316406 274.628906 235.957031 274.628906 236.835938 C 274.628906 236.835938 273.789062 237.675781 273.789062 237.675781 C 273.789062 237.675781 272.949219 238.515625 272.949219 238.515625 C 272.949219 238.515625 265.390625 246.914062 265.390625 246.914062 C 265.390625 246.914062 263.710938 248.59375 263.710938 248.59375 Z M 263.710938 248.59375 "/>
<path style=" stroke:none;fill-rule:nonzero;fill:rgb(0.784314%,17.254902%,100%);fill-opacity:1;" d="M 287.226562 209.960938 C 287.226562 210.839844 286.828125 212.480469 288.066406 212.480469 C 290.066406 212.480469 293.105469 208.449219 293.105469 206.601562 C 293.105469 206.601562 289.746094 207.441406 289.746094 207.441406 C 289.746094 207.441406 287.226562 209.960938 287.226562 209.960938 Z M 287.226562 209.960938 "/>
<path style=" stroke:none;fill-rule:nonzero;fill:rgb(83.137256%,100%,0%);fill-opacity:1;" d="M 162.089844 210.800781 C 162.089844 212.714844 155.347656 215.199219 159.992188 217.519531 L 169.226562 227.597656 C 173.007812 229.488281 181.066406 229.019531 178.046875 222.976562 L 175.945312 223.398438 L 170.90625 220.039062 C 168.382812 217.511719 165.847656 210.800781 162.089844 210.800781 Z M 162.089844 210.800781 "/>
<path style=" stroke:none;fill-rule:nonzero;fill:rgb(83.137256%,100%,0%);fill-opacity:1;" d="M 242.714844 212.480469 C 242.714844 214.769531 223.347656 226.941406 229.695312 230.117188 C 236.785156 233.660156 259.4375 212.480469 242.714844 212.480469 Z M 242.714844 212.480469 "/>
<path style=" stroke:none;fill-rule:nonzero;fill:rgb(100%,72.941178%,0%);fill-opacity:1;" d="M 171.328125 249.433594 L 171.328125 250.273438 C 174.914062 250.273438 178.046875 255.421875 178.046875 247.753906 C 178.046875 238.664062 172.554688 240.546875 170.488281 236.414062 C 170.488281 236.414062 167.96875 232.21875 167.96875 232.21875 C 167.96875 232.21875 165.449219 231.375 165.449219 231.375 C 164.25 228.976562 162.871094 225.917969 162.507812 225.917969 C 162.507812 225.917969 160.828125 227.597656 160.828125 227.597656 C 160.488281 227.597656 160.234375 223.9375 159.148438 223.398438 C 159.148438 223.398438 153.273438 223.398438 153.273438 223.398438 C 145.660156 219.59375 143.863281 217.519531 136.476562 217.519531 C 136.476562 217.519531 132.695312 215 132.695312 215 C 132.695312 217.179688 132.28125 233.476562 136.054688 233.476562 C 136.054688 233.476562 136.894531 234.316406 136.894531 234.316406 C 136.894531 235.941406 141.097656 240.195312 142.773438 240.195312 C 142.773438 240.195312 143.613281 241.035156 143.613281 241.035156 C 143.613281 241.035156 146.132812 243.554688 146.132812 243.554688 C 146.132812 243.554688 147.8125 243.554688 147.8125 243.554688 C 147.8125 243.554688 151.171875 244.394531 151.171875 244.394531 C 152.640625 244.394531 152.851562 244.605469 152.851562 246.074219 C 152.851562 246.074219 153.691406 246.914062 153.691406 246.914062 C 153.691406 246.027344 154.53125 244.371094 154.53125 246.074219 C 154.53125 246.074219 155.371094 246.074219 155.371094 246.074219 C 155.371094 246.074219 157.050781 247.753906 157.050781 247.753906 C 157.050781 247.753906 161.25 249.433594 161.25 249.433594 C 161.25 248.4375 162.089844 248.4375 162.089844 249.433594 C 162.089844 249.433594 162.929688 249.433594 162.929688 249.433594 C 162.929688 248.679688 164.609375 246.890625 164.609375 248.59375 C 164.609375 248.59375 171.328125 248.59375 171.328125 248.59375 C 172.324219 248.59375 172.324219 249.433594 171.328125 249.433594 Z M 171.328125 249.433594 "/>
<path style=" stroke:none;fill-rule:nonzero;fill:rgb(18.039216%,54.509807%,34.117648%);fill-opacity:1;" d="M 340.976562 230.957031 C 340.976562 232.9375 346.039062 232.019531 347.273438 232.636719 C 348.878906 233.4375 349.683594 235.996094 351.476562 235.996094 L 353.15625 234.316406 C 355.539062 234.316406 360.46875 236.117188 362.390625 235.15625 C 364.144531 234.28125 364.835938 233.476562 367.011719 233.476562 C 375.507812 233.476562 374.566406 220.878906 371.210938 220.878906 C 365.308594 220.878906 357.78125 221.71875 351.476562 221.71875 C 351.476562 221.71875 350.632812 219.199219 350.632812 219.199219 C 348.453125 218.109375 346.015625 223.664062 346.015625 218.359375 C 341.300781 218.359375 343.078125 230.117188 340.976562 230.117188 C 340.976562 230.117188 340.976562 230.957031 340.976562 230.957031 Z M 340.976562 230.957031 "/>
<path style=" stroke:none;fill-rule:nonzero;fill:rgb(100%,72.941178%,0%);fill-opacity:1;" d="M 236.835938 246.914062 L 235.996094 247.753906 C 235.996094 247.753906 232.636719 246.914062 232.636719 246.914062 C 232.636719 240.464844 238.363281 238.398438 241.035156 233.054688 C 243.894531 227.335938 247.710938 225.730469 252.375 223.398438 C 252.375 223.398438 255.734375 220.039062 255.734375 220.039062 C 260.378906 217.71875 269.167969 219.199219 274.628906 219.199219 C 274.628906 219.199219 276.308594 219.199219 276.308594 219.199219 C 276.308594 219.199219 276.308594 223.398438 276.308594 223.398438 C 276.308594 223.398438 275.46875 224.238281 275.46875 224.238281 C 275.46875 224.238281 275.46875 225.078125 275.46875 225.078125 C 275.46875 225.078125 274.628906 225.917969 274.628906 225.917969 C 274.628906 234.503906 263.328125 242.695312 256.570312 246.074219 C 253.074219 247.824219 248.390625 247.644531 244.8125 249.433594 C 242.308594 250.6875 239.035156 246.914062 236.835938 246.914062 Z M 236.835938 246.914062 "/>
<path style=" stroke:none;fill-rule:nonzero;fill:rgb(18.039216%,54.509807%,34.117648%);fill-opacity:1;" d="M 66.347656 232.636719 C 61.457031 232.636719 62.617188 236.8125 59.210938 238.515625 L 56.6875 235.996094 L 55.007812 239.355469 L 39.472656 240.195312 C 30.570312 240.195312 35.273438 227.867188 35.273438 225.078125 C 39.121094 225.078125 49.140625 227.171875 53.328125 225.078125 C 54.582031 224.453125 54.449219 221.71875 55.851562 221.71875 C 55.851562 221.71875 60.046875 225.917969 60.046875 225.917969 C 60.578125 225.917969 60.625 224.238281 62.148438 224.238281 C 63.324219 224.238281 66.347656 230.820312 66.347656 232.636719 Z M 66.347656 232.636719 "/>
<path style=" stroke:none;fill-rule:nonzero;fill:rgb(1.176471%,75.686276%,17.647059%);fill-opacity:1;" d="M 291.425781 251.113281 C 291.425781 253.121094 277.988281 251.308594 277.988281 254.472656 C 277.988281 259.015625 285.613281 261.433594 288.484375 262.871094 C 293.820312 265.539062 298.351562 270.324219 303.601562 272.949219 C 310.457031 276.375 317.542969 267.320312 323.757812 270.429688 C 323.757812 270.429688 327.117188 272.949219 327.117188 272.949219 C 327.191406 272.949219 331.964844 269.914062 334.679688 271.269531 C 341.839844 274.851562 357.421875 272.390625 361.972656 263.289062 C 364.753906 257.726562 365.097656 251.160156 367.851562 245.65625 C 367.851562 245.65625 367.011719 233.476562 367.011719 233.476562 C 364.835938 233.476562 364.144531 234.28125 362.390625 235.15625 C 360.46875 236.117188 355.539062 234.316406 353.15625 234.316406 C 353.15625 234.316406 351.476562 235.996094 351.476562 235.996094 C 349.683594 235.996094 348.878906 233.4375 347.273438 232.636719 C 346.039062 232.019531 340.976562 232.9375 340.976562 230.957031 C 340.976562 230.957031 340.136719 230.957031 340.136719 230.957031 C 340.136719 232.625 337.429688 235.996094 335.9375 235.996094 C 335.9375 237.320312 334.457031 237.675781 333.417969 237.675781 C 332.238281 237.675781 325.636719 241.875 323.339844 241.875 C 323.339844 241.875 322.5 242.714844 322.5 242.714844 C 322.5 242.714844 319.980469 242.714844 319.980469 242.714844 C 319.980469 242.714844 319.140625 243.554688 319.140625 243.554688 C 319.140625 245.203125 314.019531 245.484375 312.84375 246.074219 C 306.933594 249.027344 298.414062 251.113281 291.425781 251.113281 Z M 291.425781 251.113281 "/>
<path style=" stroke:none;fill-rule:nonzero;fill:rgb(95.686275%,26.274511%,27.058825%);fill-opacity:1;" d="M 193.164062 231.796875 L 192.324219 236.414062 C 193.210938 238.191406 198.882812 231.796875 193.164062 231.796875 Z M 193.164062 231.796875 "/>
<path style=" stroke:none;fill-rule:nonzero;fill:rgb(1.176471%,75.686276%,17.647059%);fill-opacity:1;" d="M 115.058594 272.949219 L 115.898438 272.949219 C 115.898438 271.8125 119.796875 271.269531 120.9375 271.269531 C 120.9375 271.269531 121.777344 270.429688 121.777344 270.429688 C 121.777344 267.5625 127.675781 262.871094 130.175781 262.871094 C 130.175781 261.832031 130.53125 260.351562 131.855469 260.351562 C 131.855469 260.351562 132.695312 257.832031 132.695312 257.832031 C 132.695312 255.582031 123.882812 253.632812 121.777344 253.632812 C 121.777344 254.628906 120.9375 254.628906 120.9375 253.632812 C 120.9375 253.632812 115.898438 252.792969 115.898438 252.792969 C 112.058594 252.792969 90.703125 250.226562 90.703125 246.914062 C 89.742188 246.914062 87.34375 247.398438 87.34375 246.074219 C 87.34375 246.074219 85.664062 245.234375 85.664062 245.234375 C 85.664062 245.234375 83.984375 245.234375 83.984375 245.234375 C 83.984375 245.234375 83.144531 245.234375 83.144531 245.234375 C 78.121094 245.234375 74.828125 242.378906 71.386719 238.9375 C 71.386719 238.9375 66.347656 232.636719 66.347656 232.636719 C 61.457031 232.636719 62.617188 236.8125 59.210938 238.515625 C 59.210938 238.515625 56.6875 235.996094 56.6875 235.996094 C 56.6875 235.996094 55.007812 239.355469 55.007812 239.355469 C 55.007812 239.355469 39.472656 240.195312 39.472656 240.195312 C 39.472656 250.324219 41.652344 248.335938 45.351562 255.734375 C 48.777344 262.582031 45.265625 273.117188 55.007812 277.988281 C 63.957031 282.460938 71.234375 278.695312 79.367188 274.628906 C 81.378906 273.621094 88.105469 276.308594 91.125 276.308594 C 98.789062 276.308594 107.179688 272.949219 115.058594 272.949219 Z M 115.058594 272.949219 "/>
<path style=" stroke:none;fill-rule:nonzero;fill:rgb(95.686275%,26.274511%,27.058825%);fill-opacity:1;" d="M 213.320312 232.636719 C 213.320312 239.261719 220.632812 232.636719 213.320312 232.636719 Z M 213.320312 232.636719 "/>
<path style=" stroke:none;fill-rule:nonzero;fill:rgb(100%,43.137255%,0%);fill-opacity:1;" d="M 335.9375 235.996094 C 334.253906 235.996094 333.417969 235.75 333.417969 237.675781 C 334.457031 237.675781 335.9375 237.320312 335.9375 235.996094 Z M 335.9375 235.996094 "/>
<path style=" stroke:none;fill-rule:nonzero;fill:rgb(86.666667%,85.09804%,31.764707%);fill-opacity:1;" d="M 319.140625 243.554688 C 319.140625 245.203125 314.019531 245.484375 312.84375 246.074219 C 306.933594 249.027344 298.414062 251.113281 291.425781 251.113281 C 291.425781 251.113281 289.746094 248.171875 289.746094 248.171875 C 291.644531 244.378906 307.125 243.054688 311.164062 241.035156 C 312.855469 240.1875 319.980469 238.925781 319.980469 242.714844 C 319.980469 242.714844 319.140625 243.554688 319.140625 243.554688 Z M 319.140625 243.554688 "/>
<path style=" stroke:none;fill-rule:nonzero;fill:rgb(86.666667%,85.09804%,31.764707%);fill-opacity:1;" d="M 90.703125 246.914062 C 90.703125 250.226562 112.058594 252.792969 115.898438 252.792969 C 115.898438 247.039062 102.097656 245.234375 97.84375 245.234375 C 96.199219 245.234375 90.703125 244.75 90.703125 246.914062 Z M 90.703125 246.914062 "/>
<path style=" stroke:none;fill-rule:nonzero;fill:rgb(88.627452%,47.058824%,63.137257%);fill-opacity:1;" d="M 201.5625 251.113281 C 201.5625 252.847656 198.746094 251.472656 197.78125 251.953125 C 191.675781 255.007812 190.644531 256.640625 190.644531 262.453125 C 190.644531 263.445312 189.039062 265.117188 189.804688 266.648438 C 191.921875 270.886719 197.136719 268.007812 200.304688 269.589844 C 205.296875 272.085938 210.117188 268.75 214.578125 268.75 C 215.417969 268.75 216.578125 270.269531 217.9375 269.589844 C 219.929688 268.59375 217.976562 267.871094 219.199219 266.648438 C 228.101562 257.746094 220.070312 251.953125 209.960938 251.953125 L 207.023438 251.113281 L 205.34375 252.792969 C 204.398438 252.792969 203.195312 251.113281 201.5625 251.113281 Z M 201.5625 251.113281 "/>
<path style=" stroke:none;fill-rule:nonzero;fill:rgb(86.666667%,85.09804%,31.764707%);fill-opacity:1;" d="M 120.9375 253.632812 L 121.777344 253.632812 C 121.777344 254.628906 120.9375 254.628906 120.9375 253.632812 Z M 120.9375 253.632812 "/>
<path style=" stroke:none;fill-rule:evenodd;fill:rgb(98.039216%,50.196081%,44.705883%);fill-opacity:1;" d="M 121.777344 285.546875 C 121.777344 287.304688 124.921875 285.546875 121.777344 285.546875 M 125.976562 281.347656 C 125.976562 283.105469 129.121094 281.347656 125.976562 281.347656 M 115.058594 272.949219 L 115.898438 272.949219 C 117.289062 272.949219 127.945312 271.269531 120.9375 271.269531 C 120.9375 271.269531 121.777344 270.429688 121.777344 270.429688 C 125.664062 270.429688 130.175781 267.53125 130.175781 262.871094 C 130.175781 261.832031 130.53125 260.351562 131.855469 260.351562 C 133.476562 260.351562 138.574219 260.003906 138.574219 259.511719 C 138.574219 259.511719 139.414062 259.511719 139.414062 259.511719 C 139.414062 259.511719 140.253906 260.351562 140.253906 260.351562 C 140.253906 260.351562 141.09375 260.351562 141.09375 260.351562 C 141.09375 263.148438 147.980469 267.824219 149.492188 270.851562 C 149.492188 270.851562 152.429688 273.789062 152.429688 273.789062 C 153.714844 273.148438 151.824219 271.152344 154.953125 269.589844 C 157.089844 268.523438 157.609375 273.933594 157.050781 275.046875 C 155.78125 277.589844 152.578125 273.914062 152.011719 275.046875 C 151.019531 277.03125 153.773438 283.28125 152.011719 286.804688 C 152.011719 286.804688 149.492188 290.164062 149.492188 290.164062 C 149.492188 290.164062 149.070312 293.945312 149.070312 293.945312 C 147.742188 294.609375 137.589844 298.144531 136.476562 298.144531 C 136.476562 298.144531 131.4375 296.464844 131.4375 296.464844 C 131.4375 296.464844 128.078125 298.144531 128.078125 298.144531 C 127 297.605469 132.347656 294.820312 128.914062 293.105469 C 128.914062 293.105469 127.234375 292.265625 127.234375 292.265625 C 127.234375 292.265625 125.554688 294.785156 125.554688 294.785156 C 125.554688 294.785156 121.777344 293.523438 121.777344 293.523438 C 121.777344 292.214844 124.296875 290.664062 124.296875 290.164062 C 124.296875 290.164062 121.359375 288.066406 121.359375 288.066406 C 118.234375 288.066406 116.234375 288.863281 112.960938 287.226562 C 112.167969 286.832031 109.179688 287.839844 109.179688 285.96875 C 109.179688 285.96875 110.859375 285.125 110.859375 285.125 C 110.859375 285.125 110.019531 280.929688 110.019531 280.929688 C 110.929688 279.109375 115.058594 274.820312 115.058594 272.949219 Z M 115.058594 272.949219 "/>
<path style=" stroke:none;fill-rule:nonzero;fill:rgb(98.039216%,50.196081%,44.705883%);fill-opacity:1;" d="M 276.308594 259.511719 C 276.308594 262.097656 268.246094 260.101562 267.070312 262.453125 C 265.308594 265.972656 261.191406 271.753906 261.191406 274.210938 L 256.992188 274.210938 L 258.671875 280.085938 C 257.785156 281.859375 254.972656 281.609375 254.472656 282.609375 C 252.039062 287.480469 263.117188 292.597656 264.132812 293.105469 C 265.402344 293.742188 265.9375 291.261719 267.070312 293.523438 C 269.285156 297.957031 265.855469 300.332031 267.070312 302.765625 C 268.03125 304.6875 268.839844 301.667969 269.171875 301.503906 C 270.171875 301.003906 274.628906 302.488281 274.628906 300.242188 C 274.628906 299.574219 271.042969 298.886719 274.210938 297.304688 C 275.179688 296.820312 282.386719 294.253906 283.445312 294.785156 C 283.878906 295 282.539062 297.339844 284.289062 296.464844 C 286.378906 295.417969 288.183594 294.097656 290.164062 293.105469 L 291.84375 290.585938 C 293.089844 290.585938 293.453125 293.664062 294.785156 291.007812 L 291.425781 286.804688 C 291.425781 286.21875 296.5625 284.09375 297.304688 282.609375 L 295.625 280.085938 L 295.625 273.367188 C 295.1875 272.496094 288.859375 268.515625 287.648438 267.910156 C 285.917969 267.046875 286.171875 264.652344 285.96875 264.550781 L 283.445312 265.390625 C 279.886719 263.609375 281.75 259.511719 276.308594 259.511719 Z M 276.308594 259.511719 "/>
</g>
</svg>
