<?xml version="1.0" encoding="UTF-8"?>
<svg xmlns="http://www.w3.org/2000/svg" xmlns:xlink="http://www.w3.org/1999/xlink" width="430px" height="430px" viewBox="0 0 430 430" version="1.1">
<g id="surface1">
<rect x="0" y="0" width="430" height="430" style="fill:rgb(0%,0%,0%);fill-opacity:1;stroke:none;"/>
<path style=" stroke:none;fill-rule:evenodd;fill:rgb(100%,100%,0%);fill-opacity:1;" d="M 165.449219 94.902344 C 165.449219 98.046875 167.207031 94.902344 165.449219 94.902344 M 169.648438 89.023438 C 169.648438 92.167969 171.40625 89.023438 169.648438 89.023438 M 183.085938 82.304688 C 183.085938 83.96875 176.550781 82.253906 178.886719 86.921875 C 179 87.148438 185.226562 84.824219 186.867188 84.824219 C 189.984375 84.824219 200.582031 83.847656 200.722656 83.5625 C 201.558594 81.890625 191.652344 82.304688 190.226562 82.304688 L 183.085938 82.304688 M 166.289062 79.785156 C 166.289062 81.542969 169.433594 79.785156 166.289062 79.785156 M 224.238281 78.945312 C 224.238281 80.703125 227.382812 78.945312 224.238281 78.945312 M 173.847656 77.265625 C 173.847656 79.039062 178.523438 77.265625 173.847656 77.265625 M 221.71875 76.425781 C 221.71875 78.199219 226.394531 76.425781 221.71875 76.425781 M 196.523438 73.90625 C 196.523438 78.800781 202.023438 73.90625 196.523438 73.90625 M 318.300781 181.40625 L 315.78125 177.625 C 315.152344 176.367188 315.78125 172.25 315.78125 171.75 L 318.300781 166.710938 C 319.800781 163.714844 320.820312 152.363281 320.820312 148.234375 C 320.820312 146.316406 321.367188 135.570312 322.078125 135.214844 C 325.308594 133.601562 332.570312 147.410156 335.9375 140.671875 C 338.191406 136.167969 322.550781 119.914062 319.5625 118.417969 C 317.726562 117.5 316.832031 111.386719 312.84375 113.378906 C 310.460938 114.570312 316.730469 126.179688 314.941406 129.757812 C 313.476562 132.683594 309.558594 131.285156 308.222656 133.953125 C 308.023438 134.355469 310.742188 151.160156 310.742188 154.53125 C 310.742188 158.441406 308.460938 168.148438 305.703125 170.90625 C 305.003906 171.609375 302.628906 175.460938 301.085938 174.6875 C 292.082031 170.1875 284.28125 161.675781 289.746094 150.75 C 291.425781 147.394531 296.257812 146.964844 298.144531 143.195312 C 299.121094 141.242188 294.574219 120.945312 294.785156 120.515625 L 296.882812 114.21875 C 299.738281 114.21875 301.996094 115.332031 304.023438 111.28125 C 307.566406 104.195312 289.648438 100.621094 287.648438 101.621094 L 283.867188 100.359375 C 280.125 107.847656 285.546875 106.632812 285.546875 112.117188 C 285.546875 117.375 285.628906 124.554688 283.027344 129.757812 C 281.535156 132.738281 284.503906 140.566406 281.765625 141.933594 C 277.207031 144.214844 271.929688 136.113281 270.429688 133.117188 L 270.429688 124.296875 C 270.429688 119.429688 269.859375 111.582031 271.269531 108.757812 C 271.628906 108.039062 271.207031 104.140625 272.53125 104.140625 C 273.015625 104.140625 272.984375 107.851562 273.789062 106.242188 C 274.835938 104.148438 273.460938 98.308594 271.6875 97.421875 L 267.492188 97.421875 C 265.363281 96.359375 258.625 93.035156 256.570312 94.0625 C 253.179688 95.757812 258.882812 107.8125 259.929688 108.339844 C 263.480469 110.113281 261.191406 120.144531 261.191406 124.296875 C 261.191406 128 267.746094 147.902344 269.589844 151.59375 C 270.375 153.160156 272.113281 160.199219 270.007812 161.25 C 268.621094 161.945312 266.808594 160.910156 265.8125 160.410156 C 257.308594 156.160156 260.375 158.359375 256.152344 149.914062 C 252.652344 142.910156 250.429688 135.109375 246.914062 128.078125 C 244.117188 122.484375 248.179688 115.488281 245.234375 109.601562 L 241.875 104.5625 L 241.875 101.203125 C 241.167969 99.785156 238.65625 99.941406 238.09375 99.941406 C 237.644531 99.941406 235.347656 96.582031 233.054688 96.582031 L 232.21875 94.0625 C 231.113281 93.511719 227.457031 95.039062 225.5 94.0625 L 221.296875 90.703125 C 217.296875 88.703125 211.097656 91.0625 207.023438 89.023438 C 205.3125 88.167969 194.183594 89.144531 192.742188 89.863281 L 186.023438 90.703125 C 182.59375 92.417969 174.542969 96.453125 173.007812 99.523438 C 172.167969 101.203125 167.96875 100.164062 167.96875 102.039062 C 167.96875 104.890625 163.714844 108.03125 162.089844 111.28125 L 161.25 121.359375 C 158.152344 127.554688 157.644531 135.289062 154.53125 141.515625 C 148.527344 153.523438 154.007812 156.261719 138.992188 163.769531 C 138.113281 164.207031 136.890625 165.238281 135.632812 164.609375 C 131.496094 162.539062 141.988281 141.40625 143.613281 138.15625 C 148.679688 128.019531 142.769531 117.164062 147.8125 107.078125 C 149.304688 104.09375 156.585938 101.289062 159.570312 95.320312 C 159.96875 94.527344 161.523438 90.632812 159.992188 89.863281 C 158.90625 89.320312 151.144531 96.386719 149.070312 97.421875 C 147.425781 98.246094 146.683594 98.261719 145.710938 98.261719 L 144.03125 100.78125 L 142.351562 99.941406 L 142.351562 101.621094 L 138.574219 103.71875 C 136.511719 107.847656 136.054688 116.785156 136.054688 120.515625 C 136.054688 124.191406 138.832031 129.238281 136.894531 133.117188 C 135.125 136.65625 132.003906 149.777344 124.71875 146.132812 C 122.507812 145.027344 124.496094 135.191406 123.457031 133.117188 C 121.898438 129.996094 119.914062 117.523438 121.777344 113.796875 L 125.136719 109.601562 L 125.554688 105.820312 L 126.398438 108.339844 L 126.816406 106.242188 C 128.007812 103.859375 128.363281 99.941406 124.71875 99.941406 L 121.359375 103.300781 L 120.515625 100.78125 L 119.679688 103.300781 C 116.667969 103.300781 111.351562 106.9375 110.019531 109.601562 C 109.984375 109.671875 101.5625 112 103.300781 115.476562 C 105.957031 120.789062 113.378906 116.539062 113.378906 122.617188 C 113.378906 127.042969 108.0625 145.996094 110.019531 149.914062 C 111.6875 153.246094 114.984375 154.804688 116.738281 158.3125 C 119.941406 164.714844 113.128906 175.863281 107.078125 178.886719 L 99.523438 181.40625 L 99.101562 171.75 C 94.898438 163.34375 98.953125 146.257812 97.421875 143.195312 C 96.355469 141.0625 94.148438 142.523438 92.382812 138.992188 C 90.6875 135.601562 96.828125 126.308594 92.804688 124.296875 C 91.808594 123.800781 90.300781 124.679688 89.863281 125.554688 C 87.992188 129.300781 81.664062 132.71875 79.785156 136.476562 C 79.480469 137.085938 77.207031 142.773438 76.84375 142.773438 L 76.007812 140.253906 L 75.585938 143.613281 C 75.585938 145.121094 73.574219 149.957031 76.007812 151.171875 C 78.289062 152.3125 83.175781 146.613281 84.824219 149.914062 C 86.503906 153.273438 89.023438 178.644531 89.023438 182.246094 C 85.34375 182.246094 85.34375 179.726562 84.40625 179.726562 C 83.914062 179.726562 83.949219 183.4375 83.144531 181.828125 C 82.128906 179.796875 84.332031 174.230469 81.882812 173.007812 C 79.890625 172.011719 81.1875 175.527344 80.203125 175.527344 C 76.855469 175.527344 75.910156 179.679688 69.289062 176.367188 C 66.691406 175.070312 67.679688 161.25 70.125 161.25 C 70.601562 161.25 70.566406 166.667969 71.386719 165.03125 C 71.386719 165.03125 70.546875 151.59375 70.546875 151.59375 C 71.320312 150.046875 70.660156 148.007812 71.386719 146.554688 C 76.703125 135.921875 78.089844 124.515625 90.28125 118.417969 C 90.28125 118.417969 92.804688 114.21875 92.804688 114.21875 C 92.804688 114.21875 95.320312 115.898438 95.320312 115.898438 C 95.503906 115.898438 101.328125 108.695312 102.039062 108.339844 C 106.398438 106.164062 114.40625 98.261719 118 98.261719 C 118 98.261719 118.835938 95.742188 118.835938 95.742188 C 121.105469 94.609375 123.375 97.421875 125.554688 97.421875 C 126.550781 97.421875 128.222656 95.816406 129.757812 96.582031 C 131.515625 97.460938 132.058594 100.671875 132.273438 100.78125 C 134.597656 101.941406 135.910156 99.101562 137.3125 99.101562 C 139.101562 99.101562 143.515625 94.0625 146.554688 94.0625 C 146.554688 94.0625 149.070312 94.902344 149.070312 94.902344 C 149.070312 94.902344 151.59375 91.542969 151.59375 91.542969 C 151.59375 91.542969 154.109375 91.542969 154.109375 91.542969 C 155.390625 90.902344 162.253906 80.753906 167.546875 78.105469 C 168.800781 77.480469 168.804688 73.066406 169.226562 73.066406 C 169.226562 73.066406 170.90625 78.945312 170.90625 78.945312 C 172.660156 79.820312 171.789062 76.824219 172.585938 76.425781 C 172.585938 76.425781 177.625 76.425781 177.625 76.425781 C 179.035156 75.722656 180.25 70.914062 182.664062 69.707031 C 188.097656 66.992188 195.730469 69.054688 201.140625 66.347656 C 206.996094 63.421875 233.476562 73.632812 233.476562 77.6875 C 233.476562 80.355469 241.875 80.472656 241.875 82.726562 C 241.875 82.726562 241.035156 84.40625 241.035156 84.40625 C 241.035156 84.40625 245.65625 84.824219 245.65625 84.824219 C 246.484375 85.238281 244.046875 89.828125 247.335938 88.183594 C 248.542969 87.578125 245.863281 83.984375 249.851562 83.984375 C 252.546875 83.984375 250.824219 88.183594 252.375 88.183594 C 254.515625 88.183594 259.394531 88.335938 260.773438 89.023438 C 262.691406 89.984375 263.097656 92.382812 265.8125 92.382812 C 266.542969 92.382812 270.988281 91.613281 272.53125 92.382812 C 272.53125 92.382812 278.40625 98.261719 278.40625 98.261719 C 278.40625 98.261719 280.929688 96.582031 280.929688 96.582031 C 281.699219 96.195312 290.792969 95.636719 291.007812 95.742188 C 291.007812 95.742188 294.367188 99.101562 294.367188 99.101562 C 297.59375 100.714844 300.691406 98.707031 303.183594 101.203125 C 304.933594 102.949219 306.621094 105.5625 307.382812 107.078125 C 307.703125 107.722656 307.117188 110.019531 308.640625 110.019531 C 308.640625 110.019531 309.484375 107.5 309.484375 107.5 C 311.082031 106.699219 311.765625 108.640625 312.84375 109.179688 C 312.84375 109.179688 316.203125 109.179688 316.203125 109.179688 C 316.203125 109.179688 318.71875 113.378906 318.71875 113.378906 C 318.71875 113.378906 320.398438 112.539062 320.398438 112.539062 C 320.398438 112.539062 322.078125 115.898438 322.078125 115.898438 C 322.078125 115.898438 323.757812 115.058594 323.757812 115.058594 C 328.222656 117.289062 334.480469 129.359375 336.777344 133.953125 C 336.777344 133.953125 338.457031 133.953125 338.457031 133.953125 C 340.210938 137.460938 336.84375 148.367188 337.617188 149.914062 C 337.617188 149.914062 340.976562 151.59375 340.976562 151.59375 C 341.703125 153.046875 341.042969 155.085938 341.816406 156.632812 C 342.8125 158.621094 343.519531 168.34375 342.65625 170.070312 C 342.175781 171.03125 343.550781 173.847656 341.816406 173.847656 C 341.816406 170.851562 341.078125 157.890625 337.195312 157.890625 C 334.460938 157.890625 330.058594 166.234375 330.058594 168.390625 C 330.058594 168.390625 331.320312 173.847656 331.320312 173.847656 C 331.320312 173.847656 333.835938 173.007812 333.835938 173.007812 C 333.835938 173.007812 334.679688 178.046875 334.679688 178.046875 C 335.347656 178.046875 338.910156 173.847656 340.976562 173.847656 C 340.976562 175.992188 338.597656 178.1875 337.195312 178.886719 C 337.195312 178.886719 333 178.046875 333 178.046875 C 328.78125 180.15625 323.367188 181.40625 318.300781 181.40625 M 215.839844 74.746094 L 216.679688 75.585938 C 219.496094 75.585938 214.46875 78.105469 213.742188 78.105469 C 212.742188 78.105469 206.078125 78.472656 205.34375 78.105469 C 205.34375 78.105469 203.664062 76.425781 203.664062 76.425781 C 203.050781 76.425781 200.695312 78.472656 199.882812 76.84375 C 199.167969 75.417969 200.402344 75.117188 201.140625 74.746094 C 201.140625 74.746094 200.304688 72.226562 200.304688 72.226562 C 202.871094 70.941406 215.839844 71.210938 215.839844 74.746094 Z M 215.839844 74.746094 "/>
<path style=" stroke:none;fill-rule:nonzero;fill:rgb(0%,100%,100%);fill-opacity:1;" d="M 215.839844 74.746094 L 216.679688 75.585938 C 219.496094 75.585938 214.46875 78.105469 213.742188 78.105469 C 212.742188 78.105469 206.078125 78.472656 205.34375 78.105469 C 205.34375 78.105469 203.664062 76.425781 203.664062 76.425781 C 203.050781 76.425781 200.695312 78.472656 199.882812 76.84375 C 199.167969 75.417969 200.402344 75.117188 201.140625 74.746094 C 201.140625 74.746094 200.304688 72.226562 200.304688 72.226562 C 202.871094 70.941406 215.839844 71.210938 215.839844 74.746094 Z M 215.839844 74.746094 "/>
<path style=" stroke:none;fill-rule:nonzero;fill:rgb(100%,100%,0%);fill-opacity:1;" d="M 170.488281 73.90625 C 170.488281 76.828125 173.410156 73.90625 170.488281 73.90625 Z M 170.488281 73.90625 "/>
<path style=" stroke:none;fill-rule:nonzero;fill:rgb(0%,100%,100%);fill-opacity:1;" d="M 196.523438 73.90625 C 196.523438 78.800781 202.023438 73.90625 196.523438 73.90625 Z M 196.523438 73.90625 "/>
<path style=" stroke:none;fill-rule:nonzero;fill:rgb(100%,100%,0%);fill-opacity:1;" d="M 165.449219 75.585938 C 165.449219 77.34375 168.59375 75.585938 165.449219 75.585938 Z M 165.449219 75.585938 "/>
<path style=" stroke:none;fill-rule:nonzero;fill:rgb(0%,100%,100%);fill-opacity:1;" d="M 221.71875 76.425781 C 221.71875 78.199219 226.394531 76.425781 221.71875 76.425781 Z M 221.71875 76.425781 "/>
<path style=" stroke:none;fill-rule:nonzero;fill:rgb(0%,100%,100%);fill-opacity:1;" d="M 224.238281 78.945312 C 224.238281 80.703125 227.382812 78.945312 224.238281 78.945312 Z M 224.238281 78.945312 "/>
<path style=" stroke:none;fill-rule:evenodd;fill:rgb(0%,100%,100%);fill-opacity:1;" d="M 184.765625 120.097656 C 184.765625 120.410156 176.117188 124.378906 174.6875 127.234375 C 171.984375 132.640625 176.367188 132.820312 176.367188 135.632812 L 173.007812 139.835938 L 173.847656 142.351562 C 172.277344 145.496094 164.359375 148.570312 166.289062 152.429688 C 168.328125 156.511719 178.039062 160.195312 181.828125 162.089844 C 188.710938 165.53125 196.796875 156.210938 202.820312 156.210938 C 213.734375 156.210938 232.589844 166.800781 240.195312 151.59375 L 239.355469 149.914062 L 239.355469 146.554688 C 237.910156 143.664062 233.964844 145.007812 232.636719 142.351562 C 231.589844 140.257812 231.796875 131.753906 231.796875 130.59375 L 233.476562 128.078125 C 231.394531 123.90625 215.210938 119.363281 212.0625 120.9375 C 204.261719 124.835938 192.503906 120.097656 184.765625 120.097656 M 194.003906 98.261719 C 194.003906 100.074219 190.644531 98.3125 190.644531 99.523438 C 190.644531 101.8125 187.050781 100.269531 184.34375 101.621094 C 179.160156 104.214844 176.164062 108.328125 173.847656 112.960938 C 173.308594 114.035156 171.367188 114.71875 172.167969 116.320312 C 173.640625 119.261719 195.285156 115.898438 201.5625 115.898438 C 204.824219 115.898438 219.78125 115.140625 221.296875 115.898438 C 225.515625 118.007812 232.414062 121.675781 237.257812 119.257812 C 238.738281 118.515625 236.75 110.859375 236.414062 110.859375 C 233.34375 110.859375 234.730469 106.65625 231.375 104.980469 L 228.015625 104.980469 C 226.039062 103.992188 224.144531 100.945312 223.820312 100.78125 C 221.628906 99.6875 219.191406 100.566406 217.9375 99.941406 L 215.421875 98.261719 L 214.578125 99.941406 L 213.742188 98.261719 L 197.78125 98.261719 L 196.945312 99.941406 C 196.613281 99.941406 195.632812 98.261719 194.003906 98.261719 M 347.695312 215.839844 L 345.59375 212.480469 L 345.175781 219.199219 C 345.175781 219.199219 343.914062 217.519531 343.914062 217.519531 C 340.957031 217.519531 345.027344 215.121094 343.496094 212.0625 C 343.496094 212.0625 340.554688 211.640625 340.554688 211.640625 C 340.554688 211.640625 336.359375 208.28125 336.359375 208.28125 C 329.21875 204.710938 318.347656 208.515625 311.164062 204.921875 C 308.273438 203.476562 298.960938 197.832031 297.304688 201.140625 C 296.03125 203.691406 301.378906 208.28125 301.921875 208.28125 C 304.476562 208.28125 329.828125 216.355469 333.835938 218.359375 C 336.265625 219.574219 346.167969 218.476562 343.496094 223.820312 C 343.496094 223.820312 339.71875 225.917969 339.71875 225.917969 C 327.351562 232.101562 325.613281 220.878906 316.203125 220.878906 C 315.34375 220.878906 310.316406 221.714844 308.640625 220.878906 C 306.007812 219.5625 301.503906 210.109375 301.503906 211.640625 C 300.511719 211.640625 300.214844 208.640625 299.824219 207.859375 C 299.152344 206.523438 292.476562 202.402344 291.007812 202.402344 C 285.367188 202.402344 278.90625 200.972656 273.367188 198.203125 C 273.367188 198.203125 259.511719 198.203125 259.511719 198.203125 C 259.175781 198.203125 256.632812 196.132812 255.734375 195.683594 C 253.011719 194.324219 241.035156 190.175781 241.035156 195.683594 C 241.035156 195.683594 239.355469 196.523438 239.355469 196.523438 C 239.355469 196.523438 237.675781 194.84375 237.675781 194.84375 C 237.675781 194.84375 236.835938 194.003906 236.835938 194.003906 C 236.835938 194.003906 235.996094 194.003906 235.996094 194.003906 C 235.996094 192.765625 234.355469 193.164062 233.476562 193.164062 C 233.476562 193.164062 232.636719 194.003906 232.636719 194.003906 C 230.921875 194.003906 229.3125 192.324219 227.597656 192.324219 C 227.597656 190.066406 226.628906 184.621094 222.976562 186.445312 C 222.976562 186.445312 221.71875 194.421875 221.71875 194.421875 C 218.996094 199.871094 210.589844 200.199219 206.179688 202.402344 C 206.179688 202.402344 203.242188 201.5625 203.242188 201.5625 C 199.085938 201.5625 191.527344 199.546875 188.964844 194.421875 C 188.964844 194.421875 186.023438 189.804688 186.023438 189.804688 C 183.707031 188.644531 183.085938 191.671875 183.085938 193.164062 C 183.085938 193.164062 181.828125 191.484375 181.828125 191.484375 C 181.421875 191.484375 179.382812 194.003906 177.207031 194.003906 C 177.207031 194.003906 173.007812 193.164062 173.007812 193.164062 C 173.007812 193.164062 170.070312 191.484375 170.070312 191.484375 C 170.070312 191.484375 165.449219 192.324219 165.449219 192.324219 C 165.449219 189.164062 158.730469 191.140625 158.730469 194.84375 C 158.730469 194.84375 157.890625 194.84375 157.890625 194.84375 C 156.449219 194.84375 154.53125 192.53125 154.53125 195.683594 C 154.53125 195.683594 152.851562 196.523438 152.851562 196.523438 C 148.445312 196.523438 129.640625 202.039062 125.554688 204.082031 C 120.238281 206.738281 114.59375 213.320312 108.339844 213.320312 C 108.339844 210.414062 105.78125 211.296875 104.980469 212.898438 C 103.976562 214.90625 104.898438 222.558594 100.359375 222.558594 C 100.359375 222.558594 97.84375 220.878906 97.84375 220.878906 C 95.097656 219.507812 89.316406 220.039062 86.921875 220.039062 C 85.035156 220.039062 80.675781 225.078125 79.367188 225.078125 C 79.367188 225.078125 76.84375 224.238281 76.84375 224.238281 C 76.84375 224.238281 74.328125 227.597656 74.328125 227.597656 C 72.589844 227.597656 71.265625 224.238281 70.96875 224.238281 C 70.089844 224.238281 67.386719 227.574219 64.667969 222.140625 C 64.667969 222.140625 65.085938 215.839844 65.085938 215.839844 C 68.023438 215.839844 97.023438 210.371094 101.203125 208.28125 C 104.207031 206.777344 110.289062 205.644531 111.699219 202.820312 C 111.84375 202.535156 115.316406 200.222656 112.960938 199.042969 C 110.53125 197.828125 95.273438 202.847656 92.804688 204.082031 C 90.867188 205.046875 87.207031 203.519531 86.085938 204.082031 C 82.464844 205.890625 77.871094 205.667969 74.328125 207.441406 C 74.328125 207.441406 70.96875 209.960938 70.96875 209.960938 C 70.96875 209.960938 67.609375 207.441406 67.609375 207.441406 C 67.609375 207.441406 67.1875 211.21875 67.1875 211.21875 C 66.382812 212.832031 65.355469 211.925781 64.25 212.480469 C 64.25 212.480469 62.570312 215 62.570312 215 C 62.429688 215 58.507812 211.640625 58.367188 211.640625 C 58.367188 211.640625 55.851562 213.320312 55.851562 213.320312 C 54.464844 214.011719 51.523438 212.480469 49.96875 212.480469 C 49.96875 212.480469 48.289062 215 48.289062 215 C 48.289062 215 46.609375 212.480469 46.609375 212.480469 C 45.195312 212.480469 43.320312 214.714844 41.992188 212.0625 C 41.992188 212.0625 40.734375 208.28125 40.734375 208.28125 C 40.242188 208.28125 40.277344 211.992188 39.472656 210.382812 C 38.386719 208.210938 40.074219 199.972656 43.25 201.5625 C 45.464844 202.667969 52.230469 210.667969 52.492188 210.800781 C 57.464844 213.289062 54.722656 207.296875 58.367188 209.121094 C 58.367188 209.121094 60.046875 212.480469 60.046875 212.480469 C 62.671875 212.480469 59.351562 209.46875 60.046875 209.121094 C 63.632812 207.328125 66.832031 206.050781 68.867188 201.984375 C 72.460938 194.792969 55.738281 201.507812 52.492188 199.882812 C 50.464844 198.867188 46.292969 196.742188 47.871094 193.585938 C 48.96875 191.386719 56.328125 192.503906 58.367188 191.484375 C 63.144531 189.097656 72.769531 182.304688 77.6875 184.765625 C 83.464844 187.65625 76.414062 192.109375 80.203125 194.003906 C 83.265625 195.535156 90.625 192.066406 91.542969 190.226562 C 91.964844 189.378906 91.726562 186.445312 90.703125 186.445312 C 90.703125 186.445312 89.023438 182.246094 89.023438 182.246094 C 89.023438 178.644531 86.503906 153.273438 84.824219 149.914062 C 83.175781 146.613281 78.289062 152.3125 76.007812 151.171875 C 73.574219 149.957031 75.585938 145.121094 75.585938 143.613281 C 75.585938 143.613281 76.007812 140.253906 76.007812 140.253906 C 76.007812 140.253906 76.84375 142.773438 76.84375 142.773438 C 77.207031 142.773438 79.480469 137.085938 79.785156 136.476562 C 81.664062 132.71875 87.992188 129.300781 89.863281 125.554688 C 90.300781 124.679688 91.808594 123.800781 92.804688 124.296875 C 96.828125 126.308594 90.6875 135.601562 92.382812 138.992188 C 94.148438 142.523438 96.355469 141.0625 97.421875 143.195312 C 98.953125 146.257812 94.898438 163.34375 99.101562 171.75 C 99.101562 171.75 99.523438 181.40625 99.523438 181.40625 C 99.523438 181.40625 107.078125 178.886719 107.078125 178.886719 C 113.128906 175.863281 119.941406 164.714844 116.738281 158.3125 C 114.984375 154.804688 111.6875 153.246094 110.019531 149.914062 C 108.0625 145.996094 113.378906 127.042969 113.378906 122.617188 C 113.378906 116.539062 105.957031 120.789062 103.300781 115.476562 C 101.5625 112 109.984375 109.671875 110.019531 109.601562 C 111.351562 106.9375 116.667969 103.300781 119.679688 103.300781 C 119.679688 103.300781 120.515625 100.78125 120.515625 100.78125 C 120.515625 100.78125 121.359375 103.300781 121.359375 103.300781 C 121.359375 103.300781 124.71875 99.941406 124.71875 99.941406 C 128.363281 99.941406 128.007812 103.859375 126.816406 106.242188 C 126.816406 106.242188 126.398438 108.339844 126.398438 108.339844 C 126.398438 108.339844 125.554688 105.820312 125.554688 105.820312 C 125.554688 105.820312 125.136719 109.601562 125.136719 109.601562 C 125.136719 109.601562 121.777344 113.796875 121.777344 113.796875 C 119.914062 117.523438 121.898438 129.996094 123.457031 133.117188 C 124.496094 135.191406 122.507812 145.027344 124.71875 146.132812 C 132.003906 149.777344 135.125 136.65625 136.894531 133.117188 C 138.832031 129.238281 136.054688 124.191406 136.054688 120.515625 C 136.054688 116.785156 136.511719 107.847656 138.574219 103.71875 C 138.574219 103.71875 142.351562 101.621094 142.351562 101.621094 C 142.351562 101.621094 142.351562 99.941406 142.351562 99.941406 C 142.351562 99.941406 144.03125 100.78125 144.03125 100.78125 C 144.03125 100.78125 145.710938 98.261719 145.710938 98.261719 C 146.683594 98.261719 147.425781 98.246094 149.070312 97.421875 C 151.144531 96.386719 158.90625 89.320312 159.992188 89.863281 C 161.523438 90.632812 159.96875 94.527344 159.570312 95.320312 C 156.585938 101.289062 149.304688 104.09375 147.8125 107.078125 C 142.769531 117.164062 148.679688 128.019531 143.613281 138.15625 C 141.988281 141.40625 131.496094 162.539062 135.632812 164.609375 C 136.890625 165.238281 138.113281 164.207031 138.992188 163.769531 C 154.007812 156.261719 148.527344 153.523438 154.53125 141.515625 C 157.644531 135.289062 158.152344 127.554688 161.25 121.359375 C 161.25 121.359375 162.089844 111.28125 162.089844 111.28125 C 163.714844 108.03125 167.96875 104.890625 167.96875 102.039062 C 167.96875 100.164062 172.167969 101.203125 173.007812 99.523438 C 174.542969 96.453125 182.59375 92.417969 186.023438 90.703125 C 186.023438 90.703125 192.742188 89.863281 192.742188 89.863281 C 194.183594 89.144531 205.3125 88.167969 207.023438 89.023438 C 211.097656 91.0625 217.296875 88.703125 221.296875 90.703125 C 221.296875 90.703125 225.5 94.0625 225.5 94.0625 C 227.457031 95.039062 231.113281 93.511719 232.21875 94.0625 C 232.21875 94.0625 233.054688 96.582031 233.054688 96.582031 C 235.347656 96.582031 237.644531 99.941406 238.09375 99.941406 C 238.65625 99.941406 241.167969 99.785156 241.875 101.203125 C 241.875 101.203125 241.875 104.5625 241.875 104.5625 C 241.875 104.5625 245.234375 109.601562 245.234375 109.601562 C 248.179688 115.488281 244.117188 122.484375 246.914062 128.078125 C 250.429688 135.109375 252.652344 142.910156 256.152344 149.914062 C 260.375 158.359375 257.308594 156.160156 265.8125 160.410156 C 266.808594 160.910156 268.621094 161.945312 270.007812 161.25 C 272.113281 160.199219 270.375 153.160156 269.589844 151.59375 C 267.746094 147.902344 261.191406 128 261.191406 124.296875 C 261.191406 120.144531 263.480469 110.113281 259.929688 108.339844 C 258.882812 107.8125 253.179688 95.757812 256.570312 94.0625 C 258.625 93.035156 265.363281 96.359375 267.492188 97.421875 C 267.492188 97.421875 271.6875 97.421875 271.6875 97.421875 C 273.460938 98.308594 274.835938 104.148438 273.789062 106.242188 C 272.984375 107.851562 273.015625 104.140625 272.53125 104.140625 C 271.207031 104.140625 271.628906 108.039062 271.269531 108.757812 C 269.859375 111.582031 270.429688 119.429688 270.429688 124.296875 C 270.429688 124.296875 270.429688 133.117188 270.429688 133.117188 C 271.929688 136.113281 277.207031 144.214844 281.765625 141.933594 C 284.503906 140.566406 281.535156 132.738281 283.027344 129.757812 C 285.628906 124.554688 285.546875 117.375 285.546875 112.117188 C 285.546875 106.632812 280.125 107.847656 283.867188 100.359375 C 283.867188 100.359375 287.648438 101.621094 287.648438 101.621094 C 289.648438 100.621094 307.566406 104.195312 304.023438 111.28125 C 301.996094 115.332031 299.738281 114.21875 296.882812 114.21875 C 296.882812 114.21875 294.785156 120.515625 294.785156 120.515625 C 294.574219 120.945312 299.121094 141.242188 298.144531 143.195312 C 296.257812 146.964844 291.425781 147.394531 289.746094 150.75 C 284.28125 161.675781 292.082031 170.1875 301.085938 174.6875 C 302.628906 175.460938 305.003906 171.609375 305.703125 170.90625 C 308.460938 168.148438 310.742188 158.441406 310.742188 154.53125 C 310.742188 151.160156 308.023438 134.355469 308.222656 133.953125 C 309.558594 131.285156 313.476562 132.683594 314.941406 129.757812 C 316.730469 126.179688 310.460938 114.570312 312.84375 113.378906 C 316.832031 111.386719 317.726562 117.5 319.5625 118.417969 C 322.550781 119.914062 338.191406 136.167969 335.9375 140.671875 C 332.570312 147.410156 325.308594 133.601562 322.078125 135.214844 C 321.367188 135.570312 320.820312 146.316406 320.820312 148.234375 C 320.820312 152.363281 319.800781 163.714844 318.300781 166.710938 C 318.300781 166.710938 315.78125 171.75 315.78125 171.75 C 315.78125 172.25 315.152344 176.367188 315.78125 177.625 C 315.78125 177.625 318.300781 181.40625 318.300781 181.40625 C 318.300781 181.40625 317.460938 183.085938 317.460938 183.085938 C 317.460938 183.085938 316.621094 183.925781 316.621094 183.925781 C 307.800781 183.925781 322.933594 198.617188 328.796875 195.683594 C 334.347656 192.910156 323.339844 189.929688 323.339844 187.703125 C 323.339844 187.703125 325.019531 186.023438 325.019531 186.023438 C 325.019531 186.023438 325.4375 183.925781 325.4375 183.925781 C 326.929688 183.925781 330.664062 182.757812 333 183.925781 C 333 183.925781 335.515625 187.285156 335.515625 187.285156 C 337.90625 188.480469 341.550781 187.78125 343.914062 188.964844 C 343.914062 188.964844 345.59375 190.644531 345.59375 190.644531 C 345.59375 190.644531 348.953125 188.964844 348.953125 188.964844 C 351.066406 188.964844 349.773438 192.757812 348.953125 193.164062 C 348.953125 193.164062 340.976562 197.78125 340.976562 197.78125 C 338.976562 201.78125 344.089844 203.746094 346.4375 204.921875 C 346.4375 204.921875 349.796875 202.402344 349.796875 202.402344 C 358.050781 202.402344 353.148438 183.082031 366.59375 189.804688 C 368.375 190.695312 365.332031 195.90625 365.332031 197.363281 C 365.332031 199.3125 369.585938 204.683594 365.75 206.601562 C 365.75 206.601562 361.554688 206.601562 361.554688 206.601562 C 361.554688 206.601562 352.3125 209.121094 352.3125 209.121094 C 350.140625 208.035156 351.726562 206.054688 348.953125 207.441406 C 345.480469 209.179688 353.625 215.839844 347.695312 215.839844 Z M 347.695312 215.839844 "/>
<path style=" stroke:none;fill-rule:nonzero;fill:rgb(100%,100%,0%);fill-opacity:1;" d="M 194.003906 98.261719 C 194.003906 100.074219 190.644531 98.3125 190.644531 99.523438 C 190.644531 101.8125 187.050781 100.269531 184.34375 101.621094 C 179.160156 104.214844 176.164062 108.328125 173.847656 112.960938 C 173.308594 114.035156 171.367188 114.71875 172.167969 116.320312 C 173.640625 119.261719 195.285156 115.898438 201.5625 115.898438 C 204.824219 115.898438 219.78125 115.140625 221.296875 115.898438 C 225.515625 118.007812 232.414062 121.675781 237.257812 119.257812 C 238.738281 118.515625 236.75 110.859375 236.414062 110.859375 C 233.34375 110.859375 234.730469 106.65625 231.375 104.980469 L 228.015625 104.980469 C 226.039062 103.992188 224.144531 100.945312 223.820312 100.78125 C 221.628906 99.6875 219.191406 100.566406 217.9375 99.941406 L 215.421875 98.261719 L 214.578125 99.941406 L 213.742188 98.261719 L 197.78125 98.261719 L 196.945312 99.941406 C 196.613281 99.941406 195.632812 98.261719 194.003906 98.261719 Z M 194.003906 98.261719 "/>
<path style=" stroke:none;fill-rule:evenodd;fill:rgb(100%,100%,0%);fill-opacity:1;" d="M 182.246094 142.773438 C 182.246094 146.484375 183.257812 142.773438 182.246094 142.773438 M 207.441406 135.214844 C 207.441406 137.015625 203.863281 135.535156 202.820312 136.054688 C 198.730469 138.101562 194.414062 139 190.226562 141.09375 C 189.226562 141.59375 184.765625 141.078125 184.765625 143.195312 L 187.703125 143.613281 C 190.050781 144.785156 192.414062 145.292969 195.265625 145.292969 C 199.984375 145.292969 220.515625 144.421875 223.820312 142.773438 C 225.769531 141.796875 228.792969 144.160156 230.117188 141.515625 L 227.179688 138.574219 C 225.617188 137.792969 219.917969 139.144531 217.101562 137.734375 C 214.0625 136.214844 210.113281 135.214844 207.441406 135.214844 M 190.644531 126.816406 C 190.644531 129.738281 193.566406 126.816406 190.644531 126.816406 M 184.765625 120.097656 C 184.765625 120.410156 176.117188 124.378906 174.6875 127.234375 C 171.984375 132.640625 176.367188 132.820312 176.367188 135.632812 L 173.007812 139.835938 L 173.847656 142.351562 C 172.277344 145.496094 164.359375 148.570312 166.289062 152.429688 C 168.328125 156.511719 178.039062 160.195312 181.828125 162.089844 C 188.710938 165.53125 196.796875 156.210938 202.820312 156.210938 C 213.734375 156.210938 232.589844 166.800781 240.195312 151.59375 L 239.355469 149.914062 L 239.355469 146.554688 C 237.910156 143.664062 233.964844 145.007812 232.636719 142.351562 C 231.589844 140.257812 231.796875 131.753906 231.796875 130.59375 L 233.476562 128.078125 C 231.394531 123.90625 215.210938 119.363281 212.0625 120.9375 C 204.261719 124.835938 192.503906 120.097656 184.765625 120.097656 Z M 184.765625 120.097656 "/>
<path style=" stroke:none;fill-rule:nonzero;fill:rgb(0%,100%,100%);fill-opacity:1;" d="M 190.644531 126.816406 C 190.644531 129.738281 193.566406 126.816406 190.644531 126.816406 Z M 190.644531 126.816406 "/>
<path style=" stroke:none;fill-rule:nonzero;fill:rgb(0%,100%,100%);fill-opacity:1;" d="M 207.441406 135.214844 C 207.441406 137.015625 203.863281 135.535156 202.820312 136.054688 C 198.730469 138.101562 194.414062 139 190.226562 141.09375 C 189.226562 141.59375 184.765625 141.078125 184.765625 143.195312 L 187.703125 143.613281 C 190.050781 144.785156 192.414062 145.292969 195.265625 145.292969 C 199.984375 145.292969 220.515625 144.421875 223.820312 142.773438 C 225.769531 141.796875 228.792969 144.160156 230.117188 141.515625 L 227.179688 138.574219 C 225.617188 137.792969 219.917969 139.144531 217.101562 137.734375 C 214.0625 136.214844 210.113281 135.214844 207.441406 135.214844 Z M 207.441406 135.214844 "/>
<path style=" stroke:none;fill-rule:nonzero;fill:rgb(0%,100%,100%);fill-opacity:1;" d="M 182.246094 142.773438 C 182.246094 146.484375 183.257812 142.773438 182.246094 142.773438 Z M 182.246094 142.773438 "/>
<path style=" stroke:none;fill-rule:nonzero;fill:rgb(0%,100%,100%);fill-opacity:1;" d="M 340.976562 173.847656 L 341.816406 173.847656 C 341.816406 170.851562 341.078125 157.890625 337.195312 157.890625 C 334.460938 157.890625 330.058594 166.234375 330.058594 168.390625 C 330.058594 168.390625 331.320312 173.847656 331.320312 173.847656 C 331.320312 173.847656 333.835938 173.007812 333.835938 173.007812 C 333.835938 173.007812 334.679688 178.046875 334.679688 178.046875 C 335.347656 178.046875 338.910156 173.847656 340.976562 173.847656 Z M 340.976562 173.847656 "/>
<path style=" stroke:none;fill-rule:nonzero;fill:rgb(100%,100%,0%);fill-opacity:1;" d="M 58.789062 220.878906 L 59.628906 221.71875 C 59.628906 223.664062 60.746094 221.015625 61.308594 222.140625 C 62.265625 224.054688 64.222656 227.585938 65.929688 228.4375 C 65.929688 228.4375 74.746094 230.539062 74.746094 230.539062 C 77.46875 235.980469 85.746094 224.40625 89.445312 222.558594 C 93.863281 220.347656 98.277344 225.917969 100.359375 225.917969 C 103.796875 225.917969 108.339844 217.902344 108.339844 213.320312 C 108.339844 210.414062 105.78125 211.296875 104.980469 212.898438 C 103.976562 214.90625 104.898438 222.558594 100.359375 222.558594 C 100.359375 222.558594 97.84375 220.878906 97.84375 220.878906 C 95.097656 219.507812 89.316406 220.039062 86.921875 220.039062 C 85.035156 220.039062 80.675781 225.078125 79.367188 225.078125 C 79.367188 225.078125 76.84375 224.238281 76.84375 224.238281 C 76.84375 224.238281 74.328125 227.597656 74.328125 227.597656 C 72.589844 227.597656 71.265625 224.238281 70.96875 224.238281 C 70.089844 224.238281 67.386719 227.574219 64.667969 222.140625 C 64.667969 222.140625 65.085938 215.839844 65.085938 215.839844 C 68.023438 215.839844 97.023438 210.371094 101.203125 208.28125 C 104.207031 206.777344 110.289062 205.644531 111.699219 202.820312 C 111.84375 202.535156 115.316406 200.222656 112.960938 199.042969 C 110.53125 197.828125 95.273438 202.847656 92.804688 204.082031 C 90.867188 205.046875 87.207031 203.519531 86.085938 204.082031 C 82.464844 205.890625 77.871094 205.667969 74.328125 207.441406 C 74.328125 207.441406 70.96875 209.960938 70.96875 209.960938 C 70.96875 209.960938 67.609375 207.441406 67.609375 207.441406 C 67.609375 207.441406 67.1875 211.21875 67.1875 211.21875 C 66.382812 212.832031 65.355469 211.925781 64.25 212.480469 C 64.25 212.480469 62.570312 215 62.570312 215 C 62.429688 215 58.507812 211.640625 58.367188 211.640625 C 58.367188 211.640625 55.851562 213.320312 55.851562 213.320312 C 54.464844 214.011719 51.523438 212.480469 49.96875 212.480469 C 49.96875 212.480469 48.289062 215 48.289062 215 C 48.289062 215 46.609375 212.480469 46.609375 212.480469 C 45.195312 212.480469 43.320312 214.714844 41.992188 212.0625 C 41.992188 212.0625 40.734375 208.28125 40.734375 208.28125 C 40.242188 208.28125 40.277344 211.992188 39.472656 210.382812 C 38.386719 208.210938 40.074219 199.972656 43.25 201.5625 C 45.464844 202.667969 52.230469 210.667969 52.492188 210.800781 C 57.464844 213.289062 54.722656 207.296875 58.367188 209.121094 C 58.367188 209.121094 60.046875 212.480469 60.046875 212.480469 C 62.671875 212.480469 59.351562 209.46875 60.046875 209.121094 C 63.632812 207.328125 66.832031 206.050781 68.867188 201.984375 C 72.460938 194.792969 55.738281 201.507812 52.492188 199.882812 C 50.464844 198.867188 46.292969 196.742188 47.871094 193.585938 C 48.96875 191.386719 56.328125 192.503906 58.367188 191.484375 C 63.144531 189.097656 72.769531 182.304688 77.6875 184.765625 C 83.464844 187.65625 76.414062 192.109375 80.203125 194.003906 C 83.265625 195.535156 90.625 192.066406 91.542969 190.226562 C 91.964844 189.378906 91.726562 186.445312 90.703125 186.445312 C 88.921875 186.445312 88.160156 188.964844 86.921875 188.964844 C 86.921875 188.964844 84.40625 184.765625 84.40625 184.765625 C 82.71875 183.082031 74.496094 178.382812 71.804688 179.726562 C 67.417969 181.921875 68.804688 183.085938 64.25 183.085938 C 64.25 183.085938 57.53125 189.804688 57.53125 189.804688 C 57.53125 189.804688 55.851562 188.125 55.851562 188.125 C 54.5 188.125 44.195312 192.539062 43.671875 193.585938 C 43.671875 193.585938 43.671875 198.625 43.671875 198.625 C 43.105469 199.757812 41.027344 198.476562 39.890625 199.042969 C 36.785156 200.597656 36.417969 210.152344 37.792969 212.898438 C 37.792969 212.898438 39.472656 212.898438 39.472656 212.898438 C 43.832031 221.617188 58.789062 216.347656 58.789062 220.878906 Z M 58.789062 220.878906 "/>
<path style=" stroke:none;fill-rule:evenodd;fill:rgb(100%,100%,0%);fill-opacity:1;" d="M 350.214844 215.839844 C 350.214844 223.664062 353.96875 215.839844 350.214844 215.839844 M 369.53125 211.640625 C 369.53125 211.695312 360.078125 215.316406 359.03125 215.839844 C 355.726562 217.492188 359.578125 220.210938 358.613281 222.140625 C 358.335938 222.6875 355.515625 222.898438 358.195312 224.238281 C 361.035156 225.660156 362.351562 219.199219 368.273438 219.199219 C 370.859375 219.199219 372.445312 211.640625 369.53125 211.640625 M 316.621094 183.925781 C 307.800781 183.925781 322.933594 198.617188 328.796875 195.683594 C 334.347656 192.910156 323.339844 189.929688 323.339844 187.703125 L 325.019531 186.023438 L 325.4375 183.925781 C 326.929688 183.925781 330.664062 182.757812 333 183.925781 L 335.515625 187.285156 C 337.90625 188.480469 341.550781 187.78125 343.914062 188.964844 L 345.59375 190.644531 L 348.953125 188.964844 C 351.066406 188.964844 349.773438 192.757812 348.953125 193.164062 L 340.976562 197.78125 C 338.976562 201.78125 344.089844 203.746094 346.4375 204.921875 L 349.796875 202.402344 C 358.050781 202.402344 353.148438 183.082031 366.59375 189.804688 C 368.375 190.695312 365.332031 195.90625 365.332031 197.363281 C 365.332031 199.3125 369.585938 204.683594 365.75 206.601562 L 361.554688 206.601562 L 352.3125 209.121094 C 350.140625 208.035156 351.726562 206.054688 348.953125 207.441406 C 345.480469 209.179688 353.625 215.839844 347.695312 215.839844 C 347.695312 216.777344 345.496094 218.359375 346.4375 218.359375 C 346.4375 218.359375 347.695312 217.9375 347.695312 217.9375 C 348.820312 220.1875 346.824219 222.917969 347.695312 224.65625 C 352.644531 234.554688 353.261719 229.644531 357.351562 227.597656 C 359.066406 226.742188 361.734375 228.765625 364.070312 227.597656 C 364.070312 227.597656 366.59375 223.398438 366.59375 223.398438 C 368.636719 223.398438 371.277344 223.683594 372.890625 220.460938 C 376.671875 212.898438 373.25 211.9375 370.371094 206.179688 C 369.578125 204.59375 372.054688 194.433594 370.371094 191.0625 C 370.371094 191.0625 367.851562 187.703125 367.851562 187.703125 C 366.863281 185.730469 356.628906 183.867188 354.835938 184.765625 C 354.835938 184.765625 353.15625 187.285156 353.15625 187.285156 C 351.890625 187.917969 346.878906 188.964844 345.59375 188.964844 C 345.59375 188.964844 344.757812 187.285156 344.757812 187.285156 C 344.757812 187.285156 341.398438 187.285156 341.398438 187.285156 C 337.726562 185.449219 336.347656 179.726562 332.15625 179.726562 C 329.0625 179.726562 326.671875 182.46875 323.757812 183.925781 C 323.757812 183.925781 320.398438 183.925781 320.398438 183.925781 C 320.398438 183.925781 319.5625 186.445312 319.5625 186.445312 C 317.542969 187.453125 319.0625 183.085938 317.460938 183.085938 C 317.460938 183.085938 316.621094 183.925781 316.621094 183.925781 Z M 316.621094 183.925781 "/>
<path style=" stroke:none;fill-rule:nonzero;fill:rgb(27.450982%,64.705884%,8.235294%);fill-opacity:1;" d="M 56.269531 182.246094 L 54.589844 184.34375 C 54.589844 189.695312 65.757812 182.246094 56.269531 182.246094 Z M 56.269531 182.246094 "/>
<path style=" stroke:none;fill-rule:nonzero;fill:rgb(27.450982%,64.705884%,8.235294%);fill-opacity:1;" d="M 343.496094 182.246094 C 343.496094 189.128906 352.492188 182.246094 343.496094 182.246094 Z M 343.496094 182.246094 "/>
<path style=" stroke:none;fill-rule:nonzero;fill:rgb(100%,100%,0%);fill-opacity:1;" d="M 227.597656 192.324219 C 227.597656 195.019531 224.601562 201.171875 222.140625 202.402344 L 217.101562 203.242188 L 214.578125 206.601562 L 195.265625 206.601562 C 191.09375 204.515625 183.085938 198.117188 183.085938 193.164062 C 183.085938 191.671875 183.707031 188.644531 186.023438 189.804688 C 186.023438 189.804688 188.964844 194.421875 188.964844 194.421875 C 191.527344 199.546875 199.085938 201.5625 203.242188 201.5625 C 203.242188 201.5625 206.179688 202.402344 206.179688 202.402344 C 210.589844 200.199219 218.996094 199.871094 221.71875 194.421875 C 221.71875 194.421875 222.976562 186.445312 222.976562 186.445312 C 226.628906 184.621094 227.597656 190.066406 227.597656 192.324219 Z M 227.597656 192.324219 "/>
<path style=" stroke:none;fill-rule:evenodd;fill:rgb(60.000002%,32.549021%,100%);fill-opacity:1;" d="M 144.453125 256.992188 C 144.453125 264.003906 145.722656 256.992188 144.453125 256.992188 M 167.96875 230.117188 C 167.96875 232.515625 155.152344 243.574219 152.851562 248.171875 C 152.308594 249.257812 144.625 254.347656 148.234375 256.152344 C 150.226562 257.148438 148.929688 253.632812 149.914062 253.632812 L 150.75 255.3125 C 152.6875 255.3125 156.347656 248.738281 157.050781 247.335938 L 159.148438 246.914062 C 161.40625 245.785156 167.335938 237.683594 167.96875 236.414062 L 172.167969 230.539062 C 172.167969 230.148438 167.972656 230.117188 167.96875 230.117188 M 170.488281 227.597656 C 170.488281 229.355469 173.632812 227.597656 170.488281 227.597656 M 199.882812 290.585938 C 201.515625 290.585938 202.839844 286.378906 204.5 285.546875 C 207.578125 284.007812 207.972656 290.585938 209.960938 290.585938 C 209.960938 285.8125 227.597656 286.085938 227.597656 289.746094 C 227.597656 289.746094 229.695312 288.066406 229.695312 288.066406 C 233.484375 286.171875 238.671875 291.976562 243.132812 289.746094 C 243.132812 289.746094 260.773438 282.1875 260.773438 282.1875 C 260.773438 282.1875 273.367188 271.269531 273.367188 271.269531 C 276.296875 269.804688 285.546875 263.511719 285.546875 259.511719 C 281.695312 259.511719 277.484375 264.550781 272.949219 264.550781 C 272.949219 264.550781 267.910156 264.132812 267.910156 264.132812 C 267.910156 264.132812 272.109375 258.671875 272.109375 258.671875 C 262.515625 258.671875 263.511719 244.414062 260.351562 238.09375 C 259.089844 235.574219 256.535156 233.824219 255.3125 231.375 C 254.355469 229.464844 257.523438 224.183594 259.09375 223.398438 C 264.789062 220.550781 274.710938 240.195312 276.308594 240.195312 C 276.308594 240.195312 276.308594 239.355469 276.308594 239.355469 C 276.308594 239.355469 271.269531 230.539062 271.269531 230.539062 C 271.269531 230.539062 270.429688 224.65625 270.429688 224.65625 C 270.429688 224.65625 268.75 222.976562 268.75 222.976562 C 268.75 222.976562 271.269531 220.460938 271.269531 220.460938 C 271.269531 220.460938 268.75 219.617188 268.75 219.617188 C 268.75 219.617188 269.589844 215.839844 269.589844 215.839844 C 269.589844 215.839844 264.550781 209.539062 264.550781 209.539062 C 264.550781 209.539062 263.710938 201.140625 263.710938 201.140625 C 263.054688 199.832031 259.511719 200.355469 259.511719 198.203125 C 259.175781 198.203125 256.632812 196.132812 255.734375 195.683594 C 253.011719 194.324219 241.035156 190.175781 241.035156 195.683594 C 241.035156 195.683594 240.195312 197.363281 240.195312 197.363281 C 240.195312 199.179688 243.554688 202.28125 243.554688 202.820312 C 243.554688 206.121094 239.78125 204.078125 238.09375 204.921875 C 233.5625 207.1875 232.125 215 225.917969 215 C 225.917969 215 226.757812 218.78125 226.757812 218.78125 C 226.023438 220.246094 221.402344 225.132812 219.617188 224.238281 C 217.484375 223.171875 216.886719 220.039062 215 220.039062 C 212.226562 220.039062 210.703125 218.359375 208.28125 218.359375 C 205.707031 218.359375 204.570312 216.679688 202.402344 216.679688 C 202.402344 218.042969 196.472656 220.039062 196.101562 220.039062 C 196.101562 220.039062 194.84375 218.359375 194.84375 218.359375 C 194.84375 225.304688 184.417969 223.121094 182.246094 218.78125 C 182.246094 218.78125 183.085938 215 183.085938 215 C 183.085938 215 183.925781 214.160156 183.925781 214.160156 C 179.460938 214.160156 175.398438 207.585938 175.109375 207.441406 C 171.644531 205.710938 167.128906 208.125 167.128906 203.664062 C 167.128906 203.664062 166.289062 201.984375 166.289062 201.984375 C 166.289062 201.984375 173.007812 194.003906 173.007812 194.003906 C 170.886719 194.003906 171.042969 192.324219 169.226562 192.324219 C 168.511719 192.324219 165.449219 194.398438 165.449219 192.324219 C 165.449219 189.164062 158.730469 191.140625 158.730469 194.84375 C 158.730469 195.839844 157.890625 195.839844 157.890625 194.84375 C 156.449219 194.84375 154.53125 192.53125 154.53125 195.683594 C 154.53125 195.683594 152.851562 196.523438 152.851562 196.523438 C 152.851562 198.035156 145.769531 212.480469 144.453125 212.480469 C 144.453125 212.480469 144.453125 213.320312 144.453125 213.320312 C 144.453125 213.320312 143.613281 214.160156 143.613281 214.160156 C 143.613281 216.3125 141.933594 216.3125 141.933594 214.160156 C 141.933594 214.160156 141.09375 214.160156 141.09375 214.160156 C 141.09375 216.574219 141.09375 218.605469 141.09375 220.460938 C 141.09375 222.796875 136.054688 226.152344 136.054688 228.859375 C 136.054688 231.5 136.660156 233.523438 135.214844 236.414062 C 133.890625 239.066406 129.316406 243.09375 131.015625 246.492188 C 132.753906 249.972656 134.949219 254.625 137.734375 257.414062 C 137.734375 257.414062 142.773438 262.453125 142.773438 262.453125 C 142.773438 262.453125 141.515625 264.550781 141.515625 264.550781 C 140.925781 264.550781 134.269531 265.546875 133.953125 265.390625 C 130.6875 263.757812 129.300781 260.964844 126.398438 259.511719 C 125.613281 259.121094 122.453125 249.433594 121.777344 249.433594 C 121.777344 249.433594 121.777344 258.25 121.777344 258.25 C 125.722656 266.144531 135.152344 271.027344 142.351562 274.628906 C 147.507812 277.207031 150.65625 282.980469 155.789062 285.546875 C 162.4375 288.871094 173.617188 290.585938 181.40625 290.585938 C 181.40625 285.90625 199.882812 285.90625 199.882812 290.585938 Z M 199.882812 290.585938 "/>
<path style=" stroke:none;fill-rule:nonzero;fill:rgb(92.156863%,34.117648%,100%);fill-opacity:1;" d="M 202.402344 216.679688 C 202.402344 218.042969 196.472656 220.039062 196.101562 220.039062 L 194.84375 218.359375 C 194.84375 218.359375 194.003906 214.160156 194.003906 214.160156 C 194.003906 214.160156 193.164062 213.320312 193.164062 213.320312 C 193.164062 213.320312 192.324219 212.480469 192.324219 212.480469 C 192.324219 212.480469 191.484375 211.640625 191.484375 211.640625 C 191.484375 211.640625 190.644531 211.640625 190.644531 211.640625 C 190.644531 211.640625 189.804688 210.800781 189.804688 210.800781 C 189.804688 210.800781 187.285156 210.800781 187.285156 210.800781 C 187.285156 210.800781 186.445312 211.640625 186.445312 211.640625 C 186.445312 211.640625 185.605469 212.480469 185.605469 212.480469 C 185.605469 212.480469 183.925781 214.160156 183.925781 214.160156 C 179.460938 214.160156 175.398438 207.585938 175.109375 207.441406 C 171.644531 205.710938 167.128906 208.125 167.128906 203.664062 C 167.128906 203.664062 166.289062 201.984375 166.289062 201.984375 C 166.289062 201.984375 173.007812 194.003906 173.007812 194.003906 C 173.007812 194.003906 173.007812 193.164062 173.007812 193.164062 C 173.007812 193.164062 177.207031 194.003906 177.207031 194.003906 C 177.207031 196.921875 182.054688 199.917969 183.085938 201.984375 C 184.0625 203.933594 181.699219 206.957031 184.34375 208.28125 C 188.738281 210.476562 202.402344 206.300781 202.402344 216.679688 Z M 202.402344 216.679688 "/>
<path style=" stroke:none;fill-rule:nonzero;fill:rgb(92.156863%,34.117648%,100%);fill-opacity:1;" d="M 215 218.359375 L 215 220.039062 C 212.226562 220.039062 210.703125 218.359375 208.28125 218.359375 C 208.28125 204.929688 217.949219 211.636719 224.65625 208.28125 C 227.066406 207.078125 226.375 202.367188 228.015625 200.722656 C 229.113281 199.628906 233.863281 194.003906 232.636719 194.003906 C 232.636719 194.003906 233.476562 193.164062 233.476562 193.164062 C 233.476562 194.402344 235.117188 194.003906 235.996094 194.003906 C 235.996094 194.003906 236.835938 194.003906 236.835938 194.003906 C 236.835938 194.003906 237.675781 194.84375 237.675781 194.84375 C 237.675781 194.84375 239.355469 196.523438 239.355469 196.523438 C 239.355469 196.523438 240.195312 197.363281 240.195312 197.363281 C 240.195312 199.179688 243.554688 202.28125 243.554688 202.820312 C 243.554688 206.121094 239.78125 204.078125 238.09375 204.921875 C 233.5625 207.1875 232.125 215 225.917969 215 C 225.917969 215 225.917969 214.160156 225.917969 214.160156 C 225.917969 214.160156 225.078125 213.320312 225.078125 213.320312 C 225.078125 213.320312 222.140625 211.640625 222.140625 211.640625 C 220.003906 210.574219 219.023438 213.320312 217.519531 213.320312 C 217.519531 213.320312 216.679688 214.160156 216.679688 214.160156 C 216.679688 214.160156 215.839844 217.519531 215.839844 217.519531 C 215.839844 217.519531 215 218.359375 215 218.359375 Z M 215 218.359375 "/>
<path style=" stroke:none;fill-rule:nonzero;fill:rgb(100%,100%,0%);fill-opacity:1;" d="M 301.503906 211.640625 C 301.503906 221.660156 306.152344 224.238281 314.941406 224.238281 L 317.882812 223.398438 L 319.5625 225.917969 C 326.839844 229.558594 330.273438 232.636719 338.039062 232.636719 L 339.71875 230.117188 C 344.234375 227.859375 345.175781 224.945312 345.175781 219.199219 C 345.175781 219.199219 343.914062 217.519531 343.914062 217.519531 C 340.957031 217.519531 345.027344 215.121094 343.496094 212.0625 C 343.496094 212.0625 340.554688 211.640625 340.554688 211.640625 C 340.554688 211.640625 336.359375 208.28125 336.359375 208.28125 C 329.21875 204.710938 318.347656 208.515625 311.164062 204.921875 C 308.273438 203.476562 298.960938 197.832031 297.304688 201.140625 C 296.03125 203.691406 301.378906 208.28125 301.921875 208.28125 C 304.476562 208.28125 329.828125 216.355469 333.835938 218.359375 C 336.265625 219.574219 346.167969 218.476562 343.496094 223.820312 C 343.496094 223.820312 339.71875 225.917969 339.71875 225.917969 C 327.351562 232.101562 325.613281 220.878906 316.203125 220.878906 C 315.34375 220.878906 310.316406 221.714844 308.640625 220.878906 C 306.007812 219.5625 301.503906 210.109375 301.503906 211.640625 Z M 301.503906 211.640625 "/>
<path style=" stroke:none;fill-rule:nonzero;fill:rgb(98.039216%,50.196081%,44.705883%);fill-opacity:1;" d="M 141.09375 214.160156 C 141.09375 216.574219 141.09375 218.605469 141.09375 220.460938 C 141.09375 222.796875 136.054688 226.152344 136.054688 228.859375 C 136.054688 231.5 136.660156 233.523438 135.214844 236.414062 C 133.890625 239.066406 129.316406 243.09375 131.015625 246.492188 C 132.753906 249.972656 134.949219 254.625 137.734375 257.414062 L 142.773438 262.453125 L 141.515625 264.550781 C 140.925781 264.550781 134.269531 265.546875 133.953125 265.390625 C 130.6875 263.757812 129.300781 260.964844 126.398438 259.511719 C 125.613281 259.121094 122.453125 249.433594 121.777344 249.433594 C 121.777344 249.433594 120.9375 243.976562 120.9375 243.976562 C 123.949219 237.949219 125.285156 231.078125 128.496094 224.65625 C 128.496094 224.65625 133.535156 218.78125 133.535156 218.78125 C 134.980469 215.882812 129.570312 217.476562 131.015625 214.578125 C 131.015625 214.578125 134.796875 214.160156 134.796875 214.160156 C 137.027344 213.042969 141.09375 206.035156 141.09375 214.160156 Z M 141.09375 214.160156 "/>
<path style=" stroke:none;fill-rule:nonzero;fill:rgb(98.039216%,95.686275%,96.862745%);fill-opacity:1;" d="M 183.085938 215 L 182.246094 218.78125 C 184.417969 223.121094 194.84375 225.304688 194.84375 218.359375 C 194.84375 218.359375 194.003906 214.160156 194.003906 214.160156 C 194.003906 214.160156 193.164062 213.320312 193.164062 213.320312 C 193.164062 213.320312 192.324219 212.480469 192.324219 212.480469 C 192.324219 212.480469 191.484375 211.640625 191.484375 211.640625 C 191.484375 211.640625 190.644531 211.640625 190.644531 211.640625 C 190.644531 211.640625 189.804688 210.800781 189.804688 210.800781 C 189.804688 210.800781 187.285156 210.800781 187.285156 210.800781 C 187.285156 210.800781 186.445312 211.640625 186.445312 211.640625 C 186.445312 211.640625 185.605469 212.480469 185.605469 212.480469 C 185.605469 212.480469 183.925781 214.160156 183.925781 214.160156 C 183.925781 214.160156 183.085938 215 183.085938 215 Z M 183.085938 215 "/>
<path style=" stroke:none;fill-rule:nonzero;fill:rgb(98.039216%,50.196081%,44.705883%);fill-opacity:1;" d="M 141.933594 214.160156 C 141.933594 216.3125 143.613281 216.3125 143.613281 214.160156 C 143.613281 214.160156 144.453125 213.320312 144.453125 213.320312 C 144.453125 213.320312 144.453125 212.480469 144.453125 212.480469 C 142.429688 212.480469 141.933594 210.84375 141.933594 214.160156 Z M 141.933594 214.160156 "/>
<path style=" stroke:none;fill-rule:nonzero;fill:rgb(98.039216%,95.686275%,96.862745%);fill-opacity:1;" d="M 215 218.359375 L 215 220.039062 C 216.886719 220.039062 217.484375 223.171875 219.617188 224.238281 C 221.402344 225.132812 226.023438 220.246094 226.757812 218.78125 C 226.757812 218.78125 225.917969 215 225.917969 215 C 225.917969 215 225.917969 214.160156 225.917969 214.160156 C 225.917969 214.160156 225.078125 213.320312 225.078125 213.320312 C 225.078125 213.320312 222.140625 211.640625 222.140625 211.640625 C 220.003906 210.574219 219.023438 213.320312 217.519531 213.320312 C 217.519531 213.320312 216.679688 214.160156 216.679688 214.160156 C 216.679688 214.160156 215.839844 217.519531 215.839844 217.519531 C 215.839844 217.519531 215 218.359375 215 218.359375 Z M 215 218.359375 "/>
<path style=" stroke:none;fill-rule:nonzero;fill:rgb(0%,100%,100%);fill-opacity:1;" d="M 369.53125 211.640625 C 369.53125 211.695312 360.078125 215.316406 359.03125 215.839844 C 355.726562 217.492188 359.578125 220.210938 358.613281 222.140625 C 358.335938 222.6875 355.515625 222.898438 358.195312 224.238281 C 361.035156 225.660156 362.351562 219.199219 368.273438 219.199219 C 370.859375 219.199219 372.445312 211.640625 369.53125 211.640625 Z M 369.53125 211.640625 "/>
<path style=" stroke:none;fill-rule:nonzero;fill:rgb(60.000002%,32.549021%,100%);fill-opacity:1;" d="M 225.078125 213.320312 L 225.917969 214.160156 C 225.917969 214.160156 225.078125 213.320312 225.078125 213.320312 Z M 225.078125 213.320312 "/>
<path style=" stroke:none;fill-rule:nonzero;fill:rgb(98.039216%,50.196081%,44.705883%);fill-opacity:1;" d="M 272.109375 258.671875 L 267.910156 264.132812 L 272.949219 264.550781 C 277.484375 264.550781 281.695312 259.511719 285.546875 259.511719 C 285.546875 259.511719 286.386719 256.992188 286.386719 256.992188 C 286.386719 253.796875 288.066406 252.300781 288.066406 249.433594 C 288.066406 240.769531 283.324219 231.132812 279.667969 223.820312 C 279.667969 223.820312 276.308594 220.460938 276.308594 220.460938 C 275.414062 218.667969 277.523438 216.238281 275.046875 215 C 275.046875 215 269.589844 215.839844 269.589844 215.839844 C 269.589844 215.839844 268.75 219.617188 268.75 219.617188 C 268.75 219.617188 271.269531 220.460938 271.269531 220.460938 C 271.269531 220.460938 268.75 222.976562 268.75 222.976562 C 268.75 222.976562 270.429688 224.65625 270.429688 224.65625 C 270.429688 224.65625 271.269531 230.539062 271.269531 230.539062 C 271.269531 230.539062 276.308594 239.355469 276.308594 239.355469 C 278.507812 239.355469 278.507812 248.59375 276.308594 248.59375 C 276.308594 252.335938 275.902344 257.832031 272.949219 257.832031 C 272.949219 257.832031 272.109375 258.671875 272.109375 258.671875 Z M 272.109375 258.671875 "/>
<path style=" stroke:none;fill-rule:nonzero;fill:rgb(0%,100%,100%);fill-opacity:1;" d="M 350.214844 215.839844 C 350.214844 223.664062 353.96875 215.839844 350.214844 215.839844 Z M 350.214844 215.839844 "/>
<path style=" stroke:none;fill-rule:nonzero;fill:rgb(100%,100%,0%);fill-opacity:1;" d="M 44.511719 220.878906 L 43.671875 222.976562 C 44.128906 223.894531 52.839844 220.878906 46.191406 220.878906 Z M 44.511719 220.878906 "/>
<path style=" stroke:none;fill-rule:nonzero;fill:rgb(0%,100%,100%);fill-opacity:1;" d="M 58.789062 220.878906 L 59.628906 221.71875 C 59.628906 221.71875 58.789062 220.878906 58.789062 220.878906 Z M 58.789062 220.878906 "/>
<path style=" stroke:none;fill-rule:nonzero;fill:rgb(35.686275%,94.509804%,100%);fill-opacity:1;" d="M 272.949219 257.832031 L 272.109375 258.671875 C 262.515625 258.671875 263.511719 244.414062 260.351562 238.09375 C 259.089844 235.574219 256.535156 233.824219 255.3125 231.375 C 254.355469 229.464844 257.523438 224.183594 259.09375 223.398438 C 264.789062 220.550781 274.710938 240.195312 276.308594 240.195312 C 276.308594 240.195312 276.308594 248.59375 276.308594 248.59375 C 276.308594 252.335938 275.902344 257.832031 272.949219 257.832031 Z M 272.949219 257.832031 "/>
<path style=" stroke:none;fill-rule:nonzero;fill:rgb(0%,69.01961%,24.705882%);fill-opacity:1;" d="M 170.488281 227.597656 C 170.488281 229.355469 173.632812 227.597656 170.488281 227.597656 Z M 170.488281 227.597656 "/>
<path style=" stroke:none;fill-rule:nonzero;fill:rgb(27.450982%,64.705884%,8.235294%);fill-opacity:1;" d="M 57.109375 230.117188 C 57.109375 231.28125 54.429688 231.058594 55.429688 233.054688 L 61.726562 233.476562 C 63.074219 234.148438 68.914062 240.523438 71.386719 235.578125 L 68.867188 233.054688 C 65.75 229.9375 61.566406 230.117188 57.109375 230.117188 Z M 57.109375 230.117188 "/>
<path style=" stroke:none;fill-rule:nonzero;fill:rgb(0%,69.01961%,24.705882%);fill-opacity:1;" d="M 167.96875 230.117188 C 167.96875 232.515625 155.152344 243.574219 152.851562 248.171875 C 152.308594 249.257812 144.625 254.347656 148.234375 256.152344 C 150.226562 257.148438 148.929688 253.632812 149.914062 253.632812 L 150.75 255.3125 C 152.6875 255.3125 156.347656 248.738281 157.050781 247.335938 L 159.148438 246.914062 C 161.40625 245.785156 167.335938 237.683594 167.96875 236.414062 L 172.167969 230.539062 C 172.167969 230.148438 167.972656 230.117188 167.96875 230.117188 Z M 167.96875 230.117188 "/>
<path style=" stroke:none;fill-rule:nonzero;fill:rgb(27.450982%,64.705884%,8.235294%);fill-opacity:1;" d="M 369.53125 234.316406 C 369.53125 241.917969 377.453125 236.386719 373.3125 234.316406 Z M 369.53125 234.316406 "/>
<path style=" stroke:none;fill-rule:nonzero;fill:rgb(27.450982%,64.705884%,8.235294%);fill-opacity:1;" d="M 324.179688 239.355469 C 324.179688 241.726562 309.605469 245.0625 313.261719 252.375 C 315.234375 256.320312 318.1875 260.085938 322.078125 262.03125 C 324.539062 263.261719 329.308594 261.792969 330.898438 264.96875 C 331.886719 266.949219 328.375 272.109375 326.28125 272.109375 L 324.601562 271.269531 C 321.503906 272.816406 324.136719 275.28125 322.078125 276.308594 C 321.277344 276.710938 315.507812 277.019531 316.621094 279.25 C 317.710938 281.429688 326.644531 275.773438 326.699219 275.890625 L 324.179688 280.085938 C 322.699219 283.050781 326.148438 282.347656 326.699219 283.445312 L 322.921875 287.226562 L 312.421875 288.484375 C 312.421875 291.402344 322.589844 286.984375 323.339844 288.484375 L 320.398438 291.425781 C 318.160156 292.546875 312.828125 294.359375 310.320312 293.105469 L 309.0625 291.007812 C 308.476562 289.832031 305.03125 289.832031 305.703125 288.484375 L 309.484375 288.066406 C 310.574219 287.519531 317.210938 283.785156 316.621094 282.609375 L 314.101562 280.929688 C 313.460938 279.644531 314.101562 277.332031 314.101562 276.726562 C 314.101562 273.203125 300.066406 272.617188 297.726562 273.789062 C 288.429688 278.4375 301.503906 285.648438 301.503906 287.648438 L 298.984375 289.328125 C 298.984375 291.40625 302.632812 289.902344 303.183594 291.007812 L 301.503906 292.6875 C 301.503906 294.515625 306.714844 295.921875 307.804688 296.464844 C 309.140625 297.132812 312.253906 296.464844 312.84375 296.464844 C 324.742188 296.464844 335.730469 288.0625 341.816406 275.890625 C 343.929688 271.660156 339.296875 267.679688 339.296875 264.550781 C 339.296875 262.246094 342.246094 258.273438 340.976562 255.734375 C 337.722656 249.226562 332.730469 239.355469 324.179688 239.355469 Z M 324.179688 239.355469 "/>
<path style=" stroke:none;fill-rule:nonzero;fill:rgb(27.450982%,64.705884%,8.235294%);fill-opacity:1;" d="M 85.664062 241.875 L 84.824219 243.132812 C 84.824219 246.265625 91.246094 241.875 85.664062 241.875 Z M 85.664062 241.875 "/>
<path style=" stroke:none;fill-rule:nonzero;fill:rgb(27.450982%,64.705884%,8.235294%);fill-opacity:1;" d="M 90.703125 244.394531 C 90.703125 249.324219 96.902344 244.394531 90.703125 244.394531 Z M 90.703125 244.394531 "/>
<path style=" stroke:none;fill-rule:nonzero;fill:rgb(60.000002%,32.549021%,100%);fill-opacity:1;" d="M 288.066406 249.433594 C 289.976562 249.433594 288.867188 256.992188 286.386719 256.992188 C 286.386719 253.796875 288.066406 252.300781 288.066406 249.433594 Z M 288.066406 249.433594 "/>
<path style=" stroke:none;fill-rule:nonzero;fill:rgb(27.450982%,64.705884%,8.235294%);fill-opacity:1;" d="M 93.222656 251.113281 L 94.0625 257.414062 C 93.914062 257.707031 90.609375 259.253906 92.804688 260.351562 C 95.71875 261.808594 100.054688 251.113281 93.222656 251.113281 Z M 93.222656 251.113281 "/>
<path style=" stroke:none;fill-rule:nonzero;fill:rgb(0%,69.01961%,24.705882%);fill-opacity:1;" d="M 144.453125 256.992188 C 144.453125 264.003906 145.722656 256.992188 144.453125 256.992188 Z M 144.453125 256.992188 "/>
<path style=" stroke:none;fill-rule:nonzero;fill:rgb(60.000002%,32.549021%,100%);fill-opacity:1;" d="M 272.949219 257.832031 L 272.109375 258.671875 C 272.109375 258.671875 272.949219 257.832031 272.949219 257.832031 Z M 272.949219 257.832031 "/>
<path style=" stroke:none;fill-rule:evenodd;fill:rgb(27.450982%,64.705884%,8.235294%);fill-opacity:1;" d="M 99.941406 292.265625 C 99.941406 295.410156 101.699219 292.265625 99.941406 292.265625 M 69.707031 259.511719 L 67.1875 264.96875 C 66.339844 266.667969 67.878906 267.789062 67.1875 269.171875 C 65.863281 271.820312 67.886719 276.445312 68.867188 278.40625 C 76.84375 294.359375 72.226562 289.957031 88.601562 298.144531 C 93.058594 300.371094 107.476562 297.75 110.859375 294.367188 C 112.382812 292.839844 117.359375 288.886719 115.898438 285.96875 L 111.28125 287.226562 C 109.203125 287.226562 101.128906 282.753906 99.101562 286.804688 C 97.359375 290.292969 103.300781 288.035156 103.300781 289.328125 C 103.300781 290.660156 98.605469 291.042969 97.84375 291.425781 C 92.753906 293.96875 83.5625 292.265625 78.523438 289.746094 C 69.796875 285.382812 81.464844 278.21875 81.464844 276.726562 C 81.464844 275.292969 78.105469 271.445312 78.105469 270.007812 C 78.105469 269.285156 80.347656 269.453125 78.105469 264.96875 C 76.785156 262.332031 76.152344 267.910156 76.007812 267.910156 L 74.746094 267.492188 C 73.652344 269.671875 76.179688 275.644531 71.804688 271.269531 L 70.546875 270.007812 C 68.734375 266.382812 76.351562 259.511719 69.707031 259.511719 Z M 69.707031 259.511719 "/>
<path style=" stroke:none;fill-rule:nonzero;fill:rgb(27.450982%,64.705884%,8.235294%);fill-opacity:1;" d="M 78.945312 265.390625 C 78.945312 267.011719 80.566406 265.390625 78.945312 265.390625 Z M 78.945312 265.390625 "/>
<path style=" stroke:none;fill-rule:nonzero;fill:rgb(27.450982%,64.705884%,8.235294%);fill-opacity:1;" d="M 99.941406 278.828125 C 99.941406 280.710938 96.246094 280.257812 97.421875 282.609375 C 98.261719 284.285156 109.789062 278.828125 99.941406 278.828125 Z M 99.941406 278.828125 "/>
<path style=" stroke:none;fill-rule:nonzero;fill:rgb(100%,20.392157%,15.294118%);fill-opacity:1;" d="M 181.40625 290.585938 C 181.40625 295.375 199.882812 298.804688 199.882812 290.585938 C 199.882812 285.90625 181.40625 285.90625 181.40625 290.585938 Z M 181.40625 290.585938 "/>
<path style=" stroke:none;fill-rule:nonzero;fill:rgb(100%,20.392157%,15.294118%);fill-opacity:1;" d="M 227.597656 289.746094 C 227.597656 296.445312 209.960938 298.722656 209.960938 290.585938 C 209.960938 285.8125 227.597656 286.085938 227.597656 289.746094 Z M 227.597656 289.746094 "/>
</g>
</svg>
