<?xml version="1.0" encoding="UTF-8"?>
<svg xmlns="http://www.w3.org/2000/svg" xmlns:xlink="http://www.w3.org/1999/xlink" width="430px" height="430px" viewBox="0 0 430 430" version="1.1">
<g id="surface1">
<rect x="0" y="0" width="430" height="430" style="fill:rgb(0%,0%,0%);fill-opacity:1;stroke:none;"/>
<path style=" stroke:none;fill-rule:nonzero;fill:rgb(1.176471%,75.686276%,17.647059%);fill-opacity:1;" d="M 193.164062 193.164062 C 195.320312 193.164062 199.191406 190.074219 200.722656 188.546875 L 203.664062 185.605469 L 204.082031 191.0625 C 205.925781 194.75 210.980469 197.363281 215 197.363281 C 215 194.488281 225.8125 191.328125 227.179688 190.644531 C 227.179688 190.644531 228.859375 188.125 228.859375 188.125 C 228.859375 188.125 233.898438 186.445312 233.898438 186.445312 C 233.898438 186.445312 242.296875 178.046875 242.296875 178.046875 C 245.4375 176.476562 259.777344 179.648438 261.609375 180.566406 C 261.609375 180.566406 265.390625 186.023438 265.390625 186.023438 C 266.507812 188.261719 272.109375 189.011719 272.109375 192.324219 C 272.109375 192.324219 278.40625 194.003906 278.40625 194.003906 C 289.109375 188.652344 290.050781 179.539062 294.785156 170.070312 C 297.089844 165.457031 299.238281 161.164062 301.503906 156.632812 C 302.824219 153.988281 301.792969 150.171875 303.183594 147.390625 C 304.433594 144.890625 298.511719 134.691406 297.304688 132.273438 C 289.96875 117.601562 271.582031 109.964844 258.25 103.300781 C 258.25 103.300781 252.375 103.300781 252.375 103.300781 C 249.957031 102.09375 233.253906 99.421875 230.539062 100.78125 C 227.238281 102.429688 222.910156 101.65625 219.617188 103.300781 C 216.0625 105.078125 213.074219 112.871094 208.703125 115.058594 C 204.246094 117.285156 207.519531 123.207031 205.34375 124.296875 C 203.492188 125.21875 203.648438 119.648438 203.242188 118.835938 C 203.242188 118.835938 199.042969 114.640625 199.042969 114.640625 C 199.042969 114.640625 198.625 111.699219 198.625 111.699219 C 191.488281 104.5625 185.964844 107.890625 178.46875 104.140625 C 178.46875 104.140625 174.265625 104.980469 174.265625 104.980469 C 171.894531 103.792969 161.914062 102.757812 159.148438 104.140625 C 159.148438 104.140625 155.789062 106.660156 155.789062 106.660156 C 155.789062 106.660156 152.429688 106.660156 152.429688 106.660156 C 146.230469 109.761719 140.058594 112.847656 133.953125 115.898438 C 127.789062 118.980469 123.242188 125.453125 117.15625 128.496094 C 117.15625 128.496094 113.378906 133.117188 113.378906 133.117188 C 104.574219 150.722656 113.175781 161.261719 120.9375 176.789062 C 120.9375 176.789062 125.976562 186.023438 125.976562 186.023438 C 125.976562 186.023438 126.398438 189.804688 126.398438 189.804688 C 127.933594 189.804688 132.046875 192.859375 134.796875 191.484375 C 137.171875 190.296875 139.074219 188.125 141.933594 188.125 C 141.933594 188.125 142.773438 187.285156 142.773438 187.285156 C 145.664062 187.285156 158.757812 171.550781 165.03125 174.6875 C 170.667969 177.507812 189.78125 193.164062 193.164062 193.164062 Z M 193.164062 193.164062 "/>
<path style=" stroke:none;fill-rule:evenodd;fill:rgb(100%,52.941179%,0%);fill-opacity:1;" d="M 162.089844 196.523438 L 161.25 201.140625 C 162.136719 202.917969 163.410156 201.261719 163.769531 201.984375 C 165.257812 204.960938 168.875 209.960938 170.90625 209.960938 L 172.585938 212.480469 L 176.367188 214.578125 L 176.789062 216.679688 C 180.5625 216.679688 173.878906 208.761719 173.847656 208.703125 C 170.617188 202.238281 172.851562 196.523438 162.089844 196.523438 M 141.933594 188.125 C 141.933594 189.679688 132.9375 199.945312 136.894531 207.859375 L 140.253906 211.21875 C 145.371094 221.453125 148.390625 222.636719 158.3125 227.597656 C 159.359375 228.121094 159.710938 231.65625 161.671875 232.636719 C 163.691406 233.648438 166.453125 233.347656 168.390625 234.316406 L 175.109375 239.355469 C 175.820312 239.355469 178.964844 237.925781 180.148438 238.515625 C 181.484375 239.183594 181.40625 242.085938 183.507812 241.035156 C 190.792969 237.390625 199.132812 221.953125 203.242188 213.742188 C 205.472656 209.277344 202.855469 199.480469 198.625 197.363281 L 193.164062 193.164062 C 189.78125 193.164062 170.667969 177.507812 165.03125 174.6875 C 158.757812 171.550781 145.664062 187.285156 142.773438 187.285156 C 142.773438 187.285156 141.933594 188.125 141.933594 188.125 Z M 141.933594 188.125 "/>
<path style=" stroke:none;fill-rule:evenodd;fill:rgb(100%,52.941179%,0%);fill-opacity:1;" d="M 230.117188 216.679688 C 230.117188 219.824219 231.875 216.679688 230.117188 216.679688 M 244.394531 198.203125 L 241.875 199.460938 L 241.453125 202.402344 L 238.515625 202.820312 L 238.515625 207.023438 L 233.476562 211.21875 C 232.726562 212.71875 230.742188 216.78125 232.21875 217.519531 C 233.820312 218.320312 238.695312 215.058594 239.355469 213.742188 C 240.820312 210.808594 246.628906 207.589844 248.59375 203.664062 L 248.59375 201.140625 C 248.992188 200.34375 251.988281 201.214844 251.113281 199.460938 L 244.394531 198.203125 M 272.109375 192.324219 C 272.109375 195.1875 272.871094 199.882812 274.210938 199.882812 C 275.277344 199.882812 276.808594 202.660156 276.308594 203.664062 C 274.910156 206.457031 273.488281 209.300781 272.109375 212.0625 C 271.789062 212.703125 272.375 215 270.851562 215 L 268.328125 214.160156 C 267.046875 214.800781 268.566406 217.402344 266.648438 218.359375 C 263.671875 219.847656 260.496094 221.855469 257.414062 223.398438 L 254.472656 226.335938 L 254.890625 228.4375 C 252.140625 229.8125 250.273438 228.84375 250.273438 232.21875 L 248.171875 232.636719 L 245.65625 236.835938 C 243.847656 237.738281 239.800781 234.683594 238.515625 237.257812 L 239.355469 239.773438 L 231.375 240.195312 C 230.019531 240.875 231.210938 245.570312 227.179688 243.554688 C 222.792969 241.363281 222.089844 238.839844 220.039062 234.734375 C 220.023438 234.703125 214.511719 232.917969 213.320312 230.539062 L 207.441406 219.617188 C 205.488281 215.710938 207.570312 205.082031 209.121094 201.984375 L 215 197.363281 C 215 194.488281 225.8125 191.328125 227.179688 190.644531 C 227.179688 190.644531 228.859375 188.125 228.859375 188.125 C 228.859375 188.125 233.898438 186.445312 233.898438 186.445312 C 233.898438 186.445312 242.296875 178.046875 242.296875 178.046875 C 245.4375 176.476562 259.777344 179.648438 261.609375 180.566406 C 261.609375 180.566406 265.390625 186.023438 265.390625 186.023438 C 266.507812 188.261719 272.109375 189.011719 272.109375 192.324219 Z M 272.109375 192.324219 "/>
<path style=" stroke:none;fill-rule:nonzero;fill:rgb(100%,30.980393%,80.784315%);fill-opacity:1;" d="M 162.089844 196.523438 L 161.25 201.140625 C 162.136719 202.917969 163.410156 201.261719 163.769531 201.984375 C 165.257812 204.960938 168.875 209.960938 170.90625 209.960938 L 172.585938 212.480469 L 176.367188 214.578125 L 176.789062 216.679688 C 180.5625 216.679688 173.878906 208.761719 173.847656 208.703125 C 170.617188 202.238281 172.851562 196.523438 162.089844 196.523438 Z M 162.089844 196.523438 "/>
<path style=" stroke:none;fill-rule:nonzero;fill:rgb(100%,30.980393%,80.784315%);fill-opacity:1;" d="M 244.394531 198.203125 L 241.875 199.460938 L 241.453125 202.402344 L 238.515625 202.820312 L 238.515625 207.023438 L 233.476562 211.21875 C 232.726562 212.71875 230.742188 216.78125 232.21875 217.519531 C 233.820312 218.320312 238.695312 215.058594 239.355469 213.742188 C 240.820312 210.808594 246.628906 207.589844 248.59375 203.664062 L 248.59375 201.140625 C 248.992188 200.34375 251.988281 201.214844 251.113281 199.460938 Z M 244.394531 198.203125 "/>
<path style=" stroke:none;fill-rule:nonzero;fill:rgb(100%,30.980393%,80.784315%);fill-opacity:1;" d="M 230.117188 216.679688 C 230.117188 219.824219 231.875 216.679688 230.117188 216.679688 Z M 230.117188 216.679688 "/>
<path style=" stroke:none;fill-rule:nonzero;fill:rgb(18.82353%,85.490197%,0%);fill-opacity:1;" d="M 175.527344 251.113281 L 177.207031 252.375 C 177.207031 253.367188 173.007812 252.0625 173.007812 254.054688 C 173.007812 260.386719 180.476562 266.90625 186.867188 263.710938 C 189.242188 262.523438 187.117188 258.753906 186.445312 257.414062 C 185.808594 256.132812 186.445312 254.769531 186.445312 254.054688 L 184.34375 253.632812 C 181.363281 252.140625 179.582031 251.113281 175.527344 251.113281 Z M 175.527344 251.113281 "/>
<path style=" stroke:none;fill-rule:nonzero;fill:rgb(18.82353%,85.490197%,0%);fill-opacity:1;" d="M 235.15625 251.953125 C 235.15625 253.503906 232.316406 253.164062 231.375 253.632812 L 227.597656 257.414062 C 226.070312 260.464844 229.160156 262.03125 230.539062 262.03125 C 232.496094 262.03125 234.457031 264.550781 236.414062 264.550781 C 238.207031 264.550781 250.496094 251.953125 235.15625 251.953125 Z M 235.15625 251.953125 "/>
<path style=" stroke:none;fill-rule:nonzero;fill:rgb(98.039216%,50.196081%,44.705883%);fill-opacity:1;" d="M 256.992188 252.792969 L 256.152344 255.734375 C 259.589844 262.605469 262.433594 252.792969 256.992188 252.792969 Z M 256.992188 252.792969 "/>
<path style=" stroke:none;fill-rule:nonzero;fill:rgb(98.039216%,50.196081%,44.705883%);fill-opacity:1;" d="M 154.53125 256.152344 C 154.53125 257.890625 155.902344 263.234375 159.992188 261.191406 L 159.992188 257.832031 L 157.890625 258.25 C 156.75 257.109375 156.175781 256.152344 154.53125 256.152344 Z M 154.53125 256.152344 "/>
<path style=" stroke:none;fill-rule:nonzero;fill:rgb(98.039216%,50.196081%,44.705883%);fill-opacity:1;" d="M 161.25 260.351562 C 161.25 265.027344 163.023438 260.351562 161.25 260.351562 Z M 161.25 260.351562 "/>
<path style=" stroke:none;fill-rule:evenodd;fill:rgb(98.039216%,50.196081%,44.705883%);fill-opacity:1;" d="M 246.074219 321.660156 C 246.074219 324.804688 247.832031 321.660156 246.074219 321.660156 M 238.515625 310.742188 C 238.515625 313.554688 233.945312 317.136719 235.996094 321.242188 L 238.515625 323.757812 L 235.996094 326.28125 C 233.363281 331.542969 239.613281 332.917969 242.296875 334.257812 C 243.199219 334.710938 242.769531 338.457031 244.8125 338.457031 C 246.074219 338.457031 247.285156 335.914062 249.015625 336.777344 L 251.53125 338.457031 C 254.867188 338.457031 251.976562 330.257812 255.734375 328.378906 C 259.554688 326.46875 258.671875 332.191406 258.671875 333 C 258.671875 336.367188 265.066406 334.484375 266.230469 332.15625 C 269.777344 325.066406 261.535156 320.363281 257.414062 318.300781 C 255.222656 317.203125 254.675781 320.820312 253.210938 320.820312 C 251.902344 320.820312 253.632812 318.460938 253.632812 318.300781 L 252.792969 312.84375 C 251.292969 309.847656 241.921875 310.742188 238.515625 310.742188 Z M 238.515625 310.742188 "/>
<path style=" stroke:none;fill-rule:nonzero;fill:rgb(98.039216%,50.196081%,44.705883%);fill-opacity:1;" d="M 164.609375 313.261719 L 162.089844 315.359375 C 160.6875 318.167969 161.945312 321.523438 158.3125 323.339844 C 155.714844 324.640625 153.265625 318.734375 148.652344 327.960938 C 147.601562 330.0625 143.390625 330.871094 145.292969 334.679688 C 148.316406 340.722656 156.238281 330.703125 159.992188 332.578125 L 164.1875 336.777344 C 166.230469 336.777344 168.179688 331.738281 168.390625 331.738281 C 172.320312 331.738281 172.660156 342.621094 177.625 340.136719 C 187.484375 335.207031 176.800781 331.292969 178.046875 328.796875 C 184.160156 316.574219 183.464844 314.941406 170.90625 314.941406 C 169.257812 314.941406 167.023438 313.261719 164.609375 313.261719 Z M 164.609375 313.261719 "/>
</g>
</svg>
