<?xml version="1.0" encoding="UTF-8"?>
<svg xmlns="http://www.w3.org/2000/svg" xmlns:xlink="http://www.w3.org/1999/xlink" width="430px" height="430px" viewBox="0 0 430 430" version="1.1">
<g id="surface1">
<rect x="0" y="0" width="430" height="430" style="fill:rgb(0%,0%,0%);fill-opacity:1;stroke:none;"/>
<path style=" stroke:none;fill-rule:evenodd;fill:rgb(52.549022%,100%,35.294119%);fill-opacity:1;" d="M 201.5625 272.949219 L 199.042969 275.890625 L 200.722656 277.570312 L 199.882812 279.25 C 201.132812 281.746094 202.375 279.667969 203.664062 279.667969 C 204.828125 279.667969 206.996094 281.359375 208.703125 280.507812 C 210.445312 279.632812 211.628906 272.949219 209.539062 272.949219 C 208.136719 272.949219 206.824219 275.789062 204.5 274.628906 L 201.5625 272.949219 M 190.644531 245.234375 L 186.867188 248.59375 C 182.21875 248.59375 181.328125 248.003906 176.789062 250.273438 L 175.109375 252.792969 L 171.75 252.792969 C 164.941406 256.195312 159.746094 272.882812 163.769531 280.929688 L 162.929688 288.484375 C 165.242188 293.113281 173.882812 311.390625 179.304688 314.101562 L 188.546875 318.300781 C 190.515625 319.285156 199.175781 318.863281 200.304688 318.300781 L 205.34375 313.261719 C 207.808594 314.496094 208.015625 317.957031 210.382812 319.140625 C 223.226562 325.566406 244.394531 300.226562 244.394531 292.6875 L 246.914062 291.007812 C 249.269531 286.292969 248.417969 268.824219 246.074219 264.132812 C 245.441406 262.863281 244.496094 256.152344 242.296875 256.152344 C 240.003906 256.152344 230.777344 247.753906 226.335938 247.753906 C 222.957031 247.753906 219.515625 247.753906 215.421875 247.753906 L 212.480469 245.234375 C 211.191406 245.234375 208.011719 249.929688 205.34375 248.59375 L 201.140625 246.074219 L 200.304688 247.753906 L 198.625 245.234375 C 197.421875 245.234375 195.871094 246.914062 194.421875 246.914062 C 193.480469 246.914062 192.277344 245.234375 190.644531 245.234375 Z M 190.644531 245.234375 "/>
<path style=" stroke:none;fill-rule:evenodd;fill:rgb(92.156863%,34.117648%,100%);fill-opacity:1;" d="M 204.082031 276.308594 C 204.082031 281.410156 208.414062 276.308594 204.082031 276.308594 M 201.5625 272.949219 L 199.042969 275.890625 L 200.722656 277.570312 L 199.882812 279.25 C 201.132812 281.746094 202.375 279.667969 203.664062 279.667969 C 204.828125 279.667969 206.996094 281.359375 208.703125 280.507812 C 210.445312 279.632812 211.628906 272.949219 209.539062 272.949219 C 208.136719 272.949219 206.824219 275.789062 204.5 274.628906 Z M 201.5625 272.949219 "/>
<path style=" stroke:none;fill-rule:nonzero;fill:rgb(15.294118%,95.686275%,99.215686%);fill-opacity:1;" d="M 204.082031 276.308594 C 204.082031 281.410156 208.414062 276.308594 204.082031 276.308594 Z M 204.082031 276.308594 "/>
</g>
</svg>
