<?xml version="1.0" encoding="UTF-8"?>
<svg xmlns="http://www.w3.org/2000/svg" xmlns:xlink="http://www.w3.org/1999/xlink" width="430px" height="430px" viewBox="0 0 430 430" version="1.1">
<g id="surface1">
<rect x="0" y="0" width="430" height="430" style="fill:rgb(0%,0%,0%);fill-opacity:1;stroke:none;"/>
<path style=" stroke:none;fill-rule:evenodd;fill:rgb(52.549022%,100%,35.294119%);fill-opacity:1;" d="M 201.5625 290.585938 C 201.5625 292.277344 199.644531 295.566406 200.722656 297.726562 C 203.265625 302.808594 214.132812 293.722656 207.859375 290.585938 L 201.5625 290.585938 M 204.082031 259.511719 C 204.082031 261.367188 199.734375 259.796875 198.625 260.351562 C 195.144531 262.089844 185.816406 262.554688 183.507812 263.710938 C 181.972656 264.476562 169.335938 276.515625 167.96875 279.25 C 166.066406 283.050781 166.53125 288 164.609375 291.84375 C 162.578125 295.90625 164.65625 307.058594 166.289062 310.320312 C 168.851562 315.445312 176.300781 330.234375 180.984375 332.578125 C 184.933594 334.550781 192.207031 334.828125 194.421875 335.9375 C 195.730469 336.589844 200.195312 336.832031 201.984375 335.9375 L 206.179688 330.898438 C 207.902344 330.898438 210.8125 335.734375 212.898438 336.777344 C 217.25 338.953125 225.582031 334.214844 228.859375 332.578125 L 232.21875 328.378906 L 234.316406 327.960938 C 235.964844 324.664062 239.285156 323.0625 241.035156 319.5625 L 245.234375 307.804688 L 247.753906 306.125 C 248.070312 305.492188 245.921875 292.382812 245.234375 291.007812 C 242.421875 285.378906 242.210938 278.238281 239.355469 272.53125 C 238.996094 271.808594 237.722656 273.464844 236.835938 271.6875 C 235.273438 268.566406 232.214844 265.390625 228.859375 263.710938 L 221.296875 263.710938 C 215.46875 260.796875 211.351562 259.511719 204.082031 259.511719 Z M 204.082031 259.511719 "/>
<path style=" stroke:none;fill-rule:nonzero;fill:rgb(52.549022%,100%,35.294119%);fill-opacity:1;" d="M 241.875 276.308594 C 241.875 279.453125 243.632812 276.308594 241.875 276.308594 Z M 241.875 276.308594 "/>
<path style=" stroke:none;fill-rule:evenodd;fill:rgb(92.156863%,34.117648%,100%);fill-opacity:1;" d="M 204.921875 293.945312 C 204.921875 297.089844 206.679688 293.945312 204.921875 293.945312 M 201.5625 290.585938 C 201.5625 292.277344 199.644531 295.566406 200.722656 297.726562 C 203.265625 302.808594 214.132812 293.722656 207.859375 290.585938 Z M 201.5625 290.585938 "/>
<path style=" stroke:none;fill-rule:nonzero;fill:rgb(15.294118%,95.686275%,99.215686%);fill-opacity:1;" d="M 204.921875 293.945312 C 204.921875 297.089844 206.679688 293.945312 204.921875 293.945312 Z M 204.921875 293.945312 "/>
</g>
</svg>
