<?xml version="1.0" encoding="UTF-8"?>
<svg xmlns="http://www.w3.org/2000/svg" xmlns:xlink="http://www.w3.org/1999/xlink" width="430px" height="430px" viewBox="0 0 430 430" version="1.1">
<g id="surface1">
<rect x="0" y="0" width="430" height="430" style="fill:rgb(0%,0%,0%);fill-opacity:1;stroke:none;"/>
<path style=" stroke:none;fill-rule:evenodd;fill:rgb(52.549022%,100%,35.294119%);fill-opacity:1;" d="M 201.5625 296.464844 C 201.5625 297.714844 199.800781 300.078125 200.722656 301.921875 C 205.917969 312.3125 216.84375 296.464844 201.5625 296.464844 M 202.402344 265.390625 C 202.402344 266.832031 197.703125 266.230469 196.523438 266.230469 C 189.433594 266.230469 192.808594 266.617188 188.546875 268.75 C 186.28125 269.882812 183.683594 267.402344 180.984375 268.75 L 179.304688 272.109375 C 172.691406 278.722656 170.230469 283.96875 166.289062 291.84375 C 165.191406 294.039062 165.75 297.125 164.609375 299.40625 C 162.210938 304.199219 165.308594 314.238281 167.128906 317.882812 C 170.988281 325.597656 172.984375 332.777344 180.984375 336.777344 L 183.507812 340.136719 C 186.171875 341.46875 190.140625 340.515625 192.742188 341.816406 C 195.257812 343.074219 200.265625 343.09375 202.820312 341.816406 C 203.972656 341.242188 204.835938 337.363281 207.023438 338.457031 C 210.15625 340.023438 214.316406 344.886719 218.78125 342.65625 C 222.222656 340.933594 226.207031 340.203125 229.695312 338.457031 L 230.957031 334.679688 C 231.636719 333.316406 233.40625 334.257812 233.898438 334.257812 L 235.996094 330.476562 L 238.515625 329.640625 C 240.796875 325.078125 242.96875 320.730469 245.234375 316.203125 L 244.394531 312.84375 L 245.65625 313.261719 L 247.753906 309.484375 C 248.808594 307.367188 246.074219 305.925781 246.074219 304.445312 C 246.074219 302.910156 247.9375 299.769531 246.914062 297.726562 C 243.695312 291.289062 242.546875 283.953125 239.355469 277.570312 L 236.835938 276.726562 C 236.125 275.304688 234.582031 270.351562 233.054688 269.589844 C 231.695312 268.910156 230.535156 270.429688 229.695312 270.429688 C 228.230469 270.429688 225.449219 267.070312 223.820312 267.070312 C 218.191406 267.070312 209.863281 265.390625 202.402344 265.390625 Z M 202.402344 265.390625 "/>
<path style=" stroke:none;fill-rule:nonzero;fill:rgb(92.156863%,34.117648%,100%);fill-opacity:1;" d="M 201.5625 296.464844 C 201.5625 297.714844 199.800781 300.078125 200.722656 301.921875 C 205.917969 312.3125 216.84375 296.464844 201.5625 296.464844 Z M 201.5625 296.464844 "/>
</g>
</svg>
