<?xml version="1.0" encoding="UTF-8"?>
<svg xmlns="http://www.w3.org/2000/svg" xmlns:xlink="http://www.w3.org/1999/xlink" width="430px" height="430px" viewBox="0 0 430 430" version="1.1">
<g id="surface1">
<rect x="0" y="0" width="430" height="430" style="fill:rgb(0%,0%,0%);fill-opacity:1;stroke:none;"/>
<path style=" stroke:none;fill-rule:nonzero;fill:rgb(1.176471%,75.686276%,17.647059%);fill-opacity:1;" d="M 286.386719 216.679688 C 293.859375 216.679688 306.128906 209.53125 309.902344 201.984375 C 311.601562 198.585938 312.332031 194.605469 314.101562 191.0625 L 314.101562 186.867188 C 315.914062 183.242188 318.191406 180.367188 319.980469 176.789062 L 319.980469 165.03125 C 321.03125 162.921875 319.128906 161.695312 319.980469 159.992188 C 325.8125 148.324219 318.007812 137.574219 313.261719 128.078125 L 304.023438 118.835938 L 298.5625 112.539062 C 293.789062 110.152344 289.152344 107.414062 284.289062 104.980469 C 278.023438 101.847656 271.246094 99.71875 264.96875 96.582031 C 262.542969 95.367188 258.953125 96.09375 256.570312 94.902344 L 256.992188 93.640625 L 251.53125 93.222656 C 247.507812 91.210938 235.691406 87.285156 230.539062 89.863281 C 226.886719 91.6875 213.460938 93.359375 211.640625 97 C 209.914062 100.453125 206.851562 103.222656 204.921875 107.078125 C 204.527344 107.871094 205.535156 110.859375 203.664062 110.859375 C 202.972656 110.859375 204.007812 105.574219 201.140625 104.140625 C 198.054688 102.597656 195.910156 99.003906 192.742188 97.421875 L 183.507812 94.0625 C 180.640625 92.628906 164.5625 93.457031 161.671875 94.902344 C 156.976562 97.25 143.230469 98.242188 138.15625 100.78125 C 132.074219 103.820312 125.632812 106.203125 119.679688 109.179688 L 109.601562 116.738281 L 102.882812 125.136719 C 99.382812 126.886719 97.375 130.691406 95.742188 133.953125 C 93.917969 137.605469 90.863281 140.351562 89.023438 144.03125 L 89.023438 150.75 C 86.574219 155.648438 88.539062 177.496094 90.703125 181.828125 L 94.902344 187.703125 C 95.742188 189.386719 100.546875 202.074219 101.203125 202.402344 L 105.398438 203.242188 C 107.050781 204.066406 108.4375 208.058594 109.179688 209.539062 C 112.410156 216 120.027344 217.519531 126.816406 217.519531 C 126.816406 217.519531 134.796875 209.960938 134.796875 209.960938 C 139.085938 207.8125 141.738281 202.289062 146.554688 199.882812 C 150.234375 198.042969 154.734375 197.472656 158.3125 195.683594 C 164.183594 192.746094 167.070312 191.007812 172.585938 196.523438 C 173.933594 197.867188 178.046875 199.09375 178.046875 200.722656 C 179.242188 200.722656 181.023438 199.0625 182.664062 199.882812 C 187.496094 202.296875 194.382812 209.960938 199.882812 209.960938 C 201.242188 209.960938 203.867188 207.964844 204.5 208.28125 C 206.265625 209.164062 206.09375 209.960938 208.28125 209.960938 C 219.996094 209.960938 226.96875 197.363281 237.675781 197.363281 C 237.675781 195.726562 242.234375 194.003906 243.554688 194.003906 C 243.554688 191.96875 250.273438 190.261719 250.273438 193.164062 C 257.035156 193.164062 273.925781 204.640625 278.828125 209.539062 C 278.828125 209.539062 286.386719 216.679688 286.386719 216.679688 Z M 286.386719 216.679688 "/>
<path style=" stroke:none;fill-rule:evenodd;fill:rgb(100%,52.941179%,0%);fill-opacity:1;" d="M 160.410156 216.679688 C 160.410156 218.523438 160.410156 220.265625 160.410156 221.296875 C 160.410156 221.972656 173.144531 231.945312 176.367188 225.5 C 178.148438 221.933594 171.339844 216.042969 170.070312 216.679688 C 167.980469 217.722656 163.441406 216.679688 160.410156 216.679688 M 164.609375 215 C 164.609375 216.757812 167.753906 215 164.609375 215 M 126.816406 217.519531 C 126.816406 222.351562 120.617188 221.5 125.136719 230.539062 C 126.5 233.265625 131.820312 237.867188 134.796875 239.355469 L 138.15625 239.355469 L 142.351562 243.554688 L 151.59375 246.074219 L 153.273438 248.59375 C 157.21875 250.566406 160.6875 253.140625 165.03125 255.3125 L 173.429688 254.472656 C 177.066406 256.292969 181.5625 258.382812 186.023438 256.152344 C 188.1875 255.074219 196.578125 250.585938 197.363281 249.015625 C 198.328125 247.085938 199.691406 245.195312 200.722656 243.132812 C 201.355469 241.867188 200.25 238.515625 201.5625 238.515625 C 201.5625 236.210938 198.203125 233.363281 198.203125 231.375 C 198.203125 231.375 200.722656 228.859375 200.722656 228.859375 C 202.394531 225.511719 197.460938 223.171875 196.523438 221.296875 C 196.523438 221.296875 196.523438 217.9375 196.523438 217.9375 C 195.71875 216.328125 194.691406 217.234375 193.585938 216.679688 C 193.585938 216.679688 188.546875 210.800781 188.546875 210.800781 C 184.933594 208.996094 178.046875 206.253906 178.046875 200.722656 C 178.046875 199.09375 173.933594 197.867188 172.585938 196.523438 C 167.070312 191.007812 164.183594 192.746094 158.3125 195.683594 C 154.734375 197.472656 150.234375 198.042969 146.554688 199.882812 C 141.738281 202.289062 139.085938 207.8125 134.796875 209.960938 C 134.796875 209.960938 126.816406 217.519531 126.816406 217.519531 Z M 126.816406 217.519531 "/>
<path style=" stroke:none;fill-rule:evenodd;fill:rgb(100%,52.941179%,0%);fill-opacity:1;" d="M 241.035156 215 C 241.035156 219.386719 233.476562 220.40625 233.476562 225.5 C 233.476562 228.460938 241.40625 229.722656 242.296875 229.277344 C 243.90625 228.472656 243 227.445312 243.554688 226.335938 C 244.144531 225.160156 252.300781 223.675781 250.273438 219.617188 C 249.097656 217.265625 245.835938 217.460938 245.234375 216.257812 C 245.015625 215.820312 242.519531 215 241.035156 215 M 286.386719 216.679688 C 286.386719 218.71875 289.566406 221.664062 288.066406 224.65625 C 286.019531 228.753906 280.613281 228.644531 278.828125 232.21875 C 275.222656 239.425781 268.839844 239.519531 262.453125 242.714844 C 257.886719 244.996094 255.210938 250.535156 250.695312 252.792969 C 244.988281 255.644531 238.425781 255.566406 232.21875 258.671875 C 227.726562 260.917969 213.320312 250.875 213.320312 247.335938 C 213.320312 246.011719 213.320312 243.304688 213.320312 241.035156 C 213.320312 241.035156 210.800781 238.09375 210.800781 238.09375 C 210.800781 238.09375 213.320312 235.578125 213.320312 235.578125 C 213.933594 234.347656 213.503906 232.691406 214.160156 231.375 C 214.160156 231.375 213.320312 226.335938 213.320312 226.335938 C 215.746094 221.484375 216.773438 215.324219 220.878906 211.21875 C 222.25 209.847656 223.996094 210.710938 225.5 209.960938 C 228.9375 208.242188 229.777344 205.300781 233.898438 203.242188 C 234.804688 202.789062 240.8125 197.363281 237.675781 197.363281 C 237.675781 195.726562 242.234375 194.003906 243.554688 194.003906 C 243.554688 194.003906 250.273438 193.164062 250.273438 193.164062 C 257.035156 193.164062 273.925781 204.640625 278.828125 209.539062 C 278.828125 209.539062 286.386719 216.679688 286.386719 216.679688 Z M 286.386719 216.679688 "/>
<path style=" stroke:none;fill-rule:evenodd;fill:rgb(88.235295%,94.117647%,5.098039%);fill-opacity:1;" d="M 204.921875 219.199219 C 204.921875 222.34375 206.679688 219.199219 204.921875 219.199219 M 201.5625 238.515625 C 204.894531 238.515625 203.597656 233.476562 204.5 233.476562 C 204.867188 233.476562 206.367188 237.628906 206.601562 238.09375 C 207.4375 239.765625 213.054688 241.035156 213.320312 241.035156 C 213.320312 241.035156 210.800781 238.09375 210.800781 238.09375 C 210.800781 238.09375 213.320312 235.578125 213.320312 235.578125 C 213.933594 234.347656 213.503906 232.691406 214.160156 231.375 C 214.160156 231.375 213.320312 226.335938 213.320312 226.335938 C 215.746094 221.484375 216.773438 215.324219 220.878906 211.21875 C 222.25 209.847656 223.996094 210.710938 225.5 209.960938 C 228.9375 208.242188 229.777344 205.300781 233.898438 203.242188 C 234.804688 202.789062 240.8125 197.363281 237.675781 197.363281 C 226.96875 197.363281 219.996094 209.960938 208.28125 209.960938 C 208.28125 209.960938 204.5 215.839844 204.5 215.839844 C 204.5 215.839844 199.882812 209.960938 199.882812 209.960938 C 194.382812 209.960938 187.496094 202.296875 182.664062 199.882812 C 181.023438 199.0625 179.242188 200.722656 178.046875 200.722656 C 178.046875 206.253906 184.933594 208.996094 188.546875 210.800781 C 188.546875 210.800781 193.585938 216.679688 193.585938 216.679688 C 194.691406 217.234375 195.71875 216.328125 196.523438 217.9375 C 196.523438 217.9375 196.523438 221.296875 196.523438 221.296875 C 197.460938 223.171875 202.394531 225.511719 200.722656 228.859375 C 200.722656 228.859375 198.203125 231.375 198.203125 231.375 C 198.203125 233.363281 201.5625 236.210938 201.5625 238.515625 Z M 201.5625 238.515625 "/>
<path style=" stroke:none;fill-rule:nonzero;fill:rgb(100%,30.980393%,80.784315%);fill-opacity:1;" d="M 164.609375 215 C 164.609375 216.757812 167.753906 215 164.609375 215 Z M 164.609375 215 "/>
<path style=" stroke:none;fill-rule:nonzero;fill:rgb(100%,30.980393%,80.784315%);fill-opacity:1;" d="M 241.035156 215 C 241.035156 219.386719 233.476562 220.40625 233.476562 225.5 C 233.476562 228.460938 241.40625 229.722656 242.296875 229.277344 C 243.90625 228.472656 243 227.445312 243.554688 226.335938 C 244.144531 225.160156 252.300781 223.675781 250.273438 219.617188 C 249.097656 217.265625 245.835938 217.460938 245.234375 216.257812 C 245.015625 215.820312 242.519531 215 241.035156 215 Z M 241.035156 215 "/>
<path style=" stroke:none;fill-rule:nonzero;fill:rgb(100%,30.980393%,80.784315%);fill-opacity:1;" d="M 160.410156 216.679688 C 160.410156 218.523438 160.410156 220.265625 160.410156 221.296875 C 160.410156 221.972656 173.144531 231.945312 176.367188 225.5 C 178.148438 221.933594 171.339844 216.042969 170.070312 216.679688 C 167.980469 217.722656 163.441406 216.679688 160.410156 216.679688 Z M 160.410156 216.679688 "/>
<path style=" stroke:none;fill-rule:nonzero;fill:rgb(18.82353%,85.490197%,0%);fill-opacity:1;" d="M 190.644531 258.671875 C 190.644531 259.363281 184.765625 262.304688 184.765625 263.289062 C 184.765625 273.386719 201.996094 268.351562 199.042969 262.453125 C 198.265625 260.898438 195.621094 261.484375 194.84375 259.929688 C 194.308594 258.859375 192.304688 258.671875 190.644531 258.671875 Z M 190.644531 258.671875 "/>
<path style=" stroke:none;fill-rule:nonzero;fill:rgb(18.82353%,85.490197%,0%);fill-opacity:1;" d="M 221.71875 259.511719 C 221.71875 260.59375 217.113281 260.742188 215.839844 263.289062 C 212.953125 269.066406 220.839844 272.757812 225.5 270.429688 C 226.453125 269.953125 226.28125 268.445312 226.757812 267.492188 L 230.957031 264.96875 L 228.859375 263.710938 C 227.195312 262.878906 229.421875 259.511719 221.71875 259.511719 Z M 221.71875 259.511719 "/>
<path style=" stroke:none;fill-rule:nonzero;fill:rgb(98.039216%,50.196081%,44.705883%);fill-opacity:1;" d="M 256.992188 264.550781 C 256.992188 266.332031 256.152344 270.847656 255.3125 272.53125 C 250.949219 281.257812 268.914062 281.257812 264.550781 272.53125 L 260.351562 269.171875 C 259.074219 266.613281 261.359375 264.550781 256.992188 264.550781 Z M 256.992188 264.550781 "/>
<path style=" stroke:none;fill-rule:nonzero;fill:rgb(98.039216%,50.196081%,44.705883%);fill-opacity:1;" d="M 154.53125 265.390625 C 154.53125 267.082031 152.871094 270.890625 153.691406 272.53125 C 155.414062 275.976562 158.136719 271.601562 159.148438 272.109375 L 160.828125 273.789062 L 161.25 271.6875 C 162.472656 269.246094 162.605469 267.539062 159.992188 266.230469 C 158.222656 265.347656 157.746094 267.910156 156.632812 267.910156 Z M 154.53125 265.390625 "/>
<path style=" stroke:none;fill-rule:nonzero;fill:rgb(98.039216%,50.196081%,44.705883%);fill-opacity:1;" d="M 240.195312 307.382812 L 235.996094 311.164062 C 235.058594 313.035156 236.835938 315.695312 236.835938 317.039062 C 236.835938 319.175781 235.121094 328.726562 235.996094 330.476562 C 237.730469 333.949219 251.480469 336.464844 252.792969 333.835938 C 253.984375 331.457031 252.6875 327.382812 255.734375 325.859375 C 259.410156 324.019531 261.949219 336.519531 266.230469 327.960938 C 268.539062 323.34375 264.285156 314.179688 260.773438 312.421875 C 257.1875 310.628906 255.164062 317.460938 254.054688 317.460938 L 253.632812 315.359375 L 250.695312 312.421875 C 247.699219 310.925781 243.722656 307.382812 240.195312 307.382812 Z M 240.195312 307.382812 "/>
<path style=" stroke:none;fill-rule:nonzero;fill:rgb(98.039216%,50.196081%,44.705883%);fill-opacity:1;" d="M 175.527344 312.421875 C 175.527344 316.609375 167.363281 312.515625 165.867188 313.261719 L 160.828125 317.460938 C 158.015625 318.867188 154.152344 317.460938 152.429688 317.460938 C 148.355469 317.460938 144.226562 325.824219 146.132812 329.640625 C 149.046875 335.472656 159.304688 328.035156 159.992188 328.378906 L 163.769531 332.15625 L 164.1875 335.097656 L 166.710938 333.417969 C 167.679688 333.417969 169.566406 334.257812 171.75 334.257812 C 172.863281 334.257812 174.652344 339.945312 177.625 338.457031 C 187.222656 333.660156 178.046875 331.605469 178.046875 327.960938 L 181.40625 324.601562 C 183.859375 319.699219 180.707031 312.421875 175.527344 312.421875 Z M 175.527344 312.421875 "/>
</g>
</svg>
