<?xml version="1.0" encoding="UTF-8"?>
<svg xmlns="http://www.w3.org/2000/svg" xmlns:xlink="http://www.w3.org/1999/xlink" width="430px" height="430px" viewBox="0 0 430 430" version="1.1">
<g id="surface1">
<rect x="0" y="0" width="430" height="430" style="fill:rgb(0%,0%,0%);fill-opacity:1;stroke:none;"/>
<path style=" stroke:none;fill-rule:evenodd;fill:rgb(52.549022%,100%,35.294119%);fill-opacity:1;" d="M 202.402344 325.859375 C 202.402344 327.660156 201.5625 329.585938 201.5625 331.320312 L 203.664062 331.738281 C 205.261719 332.539062 208.320312 333.761719 209.121094 332.15625 C 210.585938 329.226562 205.761719 328.753906 205.761719 327.960938 L 208.28125 327.117188 L 202.402344 325.859375 M 199.042969 291.425781 C 199.042969 292.761719 195.359375 292.636719 194.421875 293.105469 C 191.003906 294.816406 186.980469 295.148438 184.34375 296.464844 L 180.566406 300.242188 L 180.148438 303.183594 L 177.625 302.34375 L 173.847656 307.804688 L 171.328125 314.523438 C 170.371094 316.4375 167.769531 314.917969 167.128906 316.203125 C 165.871094 318.71875 165.898438 322.023438 164.609375 324.601562 C 162.703125 328.410156 164.78125 338.382812 166.289062 341.398438 C 167.75 344.316406 167.316406 348.488281 168.808594 351.476562 C 172.210938 358.28125 190.542969 370.210938 200.304688 365.332031 C 203.734375 363.617188 202.476562 361.726562 205.34375 360.292969 C 208.054688 358.9375 208.851562 363.726562 210.382812 364.492188 C 212.125 365.363281 214.433594 365.257812 216.257812 366.171875 C 220.371094 368.226562 232.984375 360.328125 236.414062 358.613281 C 244.664062 354.488281 242.910156 343.523438 246.074219 337.195312 L 246.074219 330.476562 L 247.753906 329.640625 C 248.703125 327.742188 246.492188 327.957031 246.074219 327.117188 C 244.257812 323.488281 244.886719 317.183594 242.714844 312.84375 L 236.835938 306.960938 C 234.367188 302.027344 234.316406 305.816406 234.316406 301.085938 C 234.316406 300.59375 227.894531 296.824219 227.179688 296.464844 C 219.4375 292.59375 208.535156 291.425781 199.042969 291.425781 Z M 199.042969 291.425781 "/>
<path style=" stroke:none;fill-rule:nonzero;fill:rgb(92.156863%,34.117648%,100%);fill-opacity:1;" d="M 202.402344 325.859375 C 202.402344 327.660156 201.5625 329.585938 201.5625 331.320312 L 203.664062 331.738281 C 205.261719 332.539062 208.320312 333.761719 209.121094 332.15625 C 210.585938 329.226562 205.761719 328.753906 205.761719 327.960938 L 208.28125 327.117188 Z M 202.402344 325.859375 "/>
</g>
</svg>
