<?xml version="1.0" encoding="UTF-8"?>
<svg xmlns="http://www.w3.org/2000/svg" xmlns:xlink="http://www.w3.org/1999/xlink" width="430px" height="430px" viewBox="0 0 430 430" version="1.1">
<g id="surface1">
<rect x="0" y="0" width="430" height="430" style="fill:rgb(0%,0%,0%);fill-opacity:1;stroke:none;"/>
<path style=" stroke:none;fill-rule:evenodd;fill:rgb(52.549022%,100%,35.294119%);fill-opacity:1;" d="M 204.082031 250.273438 C 204.082031 251.570312 199.886719 253.207031 199.042969 254.890625 L 200.304688 256.992188 C 200.980469 257.667969 201.941406 259.910156 204.5 261.191406 C 206.132812 262.007812 214.105469 258.148438 212.480469 254.890625 C 211.453125 252.839844 209.492188 254.421875 208.28125 253.210938 C 206.574219 251.503906 207.007812 250.273438 204.082031 250.273438 M 171.328125 227.597656 C 171.328125 230.1875 166.449219 229.40625 165.03125 230.117188 L 162.507812 233.476562 L 154.53125 239.773438 C 150.4375 247.960938 155.085938 259.363281 158.730469 266.648438 L 159.570312 274.210938 C 160.628906 276.328125 171.050781 288.558594 171.75 288.90625 C 174.96875 290.515625 192.789062 294.34375 196.945312 292.265625 L 205.34375 286.386719 C 206.394531 286.386719 209.117188 291.636719 212.0625 293.105469 L 218.78125 293.105469 C 233.429688 293.105469 246.890625 285.179688 252.792969 273.367188 L 252.792969 266.648438 C 254.832031 262.570312 254.679688 256.996094 256.152344 254.054688 C 261.121094 244.121094 253.746094 237.523438 245.65625 233.476562 L 242.296875 230.117188 C 237.144531 227.542969 234.941406 230.117188 230.539062 230.117188 C 227.042969 230.117188 222.363281 226.644531 218.78125 228.4375 C 216.078125 229.789062 213.988281 232.09375 211.21875 233.476562 C 205.023438 236.574219 196.351562 230.664062 191.90625 228.4375 Z M 171.328125 227.597656 "/>
<path style=" stroke:none;fill-rule:evenodd;fill:rgb(92.156863%,34.117648%,100%);fill-opacity:1;" d="M 204.921875 256.992188 C 204.921875 262.089844 208.480469 256.992188 204.921875 256.992188 M 204.082031 250.273438 C 204.082031 251.570312 199.886719 253.207031 199.042969 254.890625 L 200.304688 256.992188 C 200.980469 257.667969 201.941406 259.910156 204.5 261.191406 C 206.132812 262.007812 214.105469 258.148438 212.480469 254.890625 C 211.453125 252.839844 209.492188 254.421875 208.28125 253.210938 C 206.574219 251.503906 207.007812 250.273438 204.082031 250.273438 Z M 204.082031 250.273438 "/>
<path style=" stroke:none;fill-rule:nonzero;fill:rgb(15.294118%,95.686275%,99.215686%);fill-opacity:1;" d="M 204.921875 256.992188 C 204.921875 262.089844 208.480469 256.992188 204.921875 256.992188 Z M 204.921875 256.992188 "/>
</g>
</svg>
