<?xml version="1.0" encoding="UTF-8"?>
<svg xmlns="http://www.w3.org/2000/svg" xmlns:xlink="http://www.w3.org/1999/xlink" width="430px" height="430px" viewBox="0 0 430 430" version="1.1">
<g id="surface1">
<rect x="0" y="0" width="430" height="430" style="fill:rgb(0%,0%,0%);fill-opacity:1;stroke:none;"/>
<path style=" stroke:none;fill-rule:nonzero;fill:rgb(80.784315%,82.745099%,2.745098%);fill-opacity:1;" d="M 206.601562 156.210938 L 217.101562 160.410156 L 220.460938 155.371094 C 222.855469 154.171875 224.523438 152.496094 227.179688 151.171875 L 228.015625 148.652344 C 230.027344 147.648438 232.78125 147.949219 234.734375 146.972656 L 236.414062 144.453125 C 240.074219 144.453125 242.488281 144.453125 245.65625 144.453125 L 246.492188 146.972656 C 248.558594 146.972656 250.898438 147.8125 252.375 147.8125 C 254.128906 147.8125 256.484375 152.851562 256.570312 152.851562 C 257.875 152.851562 261.726562 156.019531 262.871094 158.3125 C 264.304688 161.179688 263.148438 165.582031 264.550781 168.390625 C 265.4375 170.164062 264.546875 172.582031 265.390625 174.265625 L 267.070312 176.367188 C 267.070312 178.332031 269.039062 177.5625 270.007812 178.046875 C 271.9375 179.011719 275.171875 184.941406 277.148438 180.984375 C 280 175.285156 283.417969 170.964844 286.386719 165.03125 C 288.472656 160.855469 289.3125 155.816406 291.425781 151.59375 C 297.109375 140.222656 276.566406 120.855469 268.328125 116.738281 C 244.9375 105.039062 222.019531 104.796875 209.121094 130.59375 C 207.105469 134.625 206.601562 150.65625 206.601562 156.210938 Z M 206.601562 156.210938 "/>
<path style=" stroke:none;fill-rule:nonzero;fill:rgb(80.784315%,82.745099%,2.745098%);fill-opacity:1;" d="M 204.082031 156.210938 C 200.683594 156.210938 196.359375 159.699219 192.742188 157.890625 C 190.707031 156.871094 190.210938 156.210938 188.546875 156.210938 C 185.695312 156.210938 185.542969 150.089844 184.34375 149.492188 C 180.972656 147.804688 177.394531 146.972656 174.265625 146.972656 C 173.019531 146.972656 170.90625 143.613281 169.226562 143.613281 C 165.359375 143.613281 161.71875 146.949219 158.3125 148.652344 C 156.683594 149.464844 155.199219 147.6875 153.273438 148.652344 C 148.160156 151.207031 144.453125 169.085938 144.453125 175.527344 C 142.207031 175.527344 139.097656 179.726562 138.15625 179.726562 C 131.425781 179.726562 127.558594 168.195312 125.136719 163.351562 C 123.824219 160.726562 122.273438 158.460938 120.9375 155.789062 C 120.476562 154.871094 122.03125 146.882812 122.617188 145.710938 C 124.105469 142.738281 123.621094 138.667969 125.136719 135.632812 C 125.136719 135.632812 130.59375 131.015625 130.59375 131.015625 C 130.59375 131.015625 136.476562 124.296875 136.476562 124.296875 C 142.34375 121.363281 147.476562 117.117188 153.273438 114.21875 C 156.628906 112.539062 161.738281 114.183594 165.03125 112.539062 C 173.195312 108.457031 183.402344 112.066406 191.0625 115.898438 C 194.417969 117.574219 197.550781 126.28125 198.625 126.816406 C 204.171875 129.589844 204.082031 149.28125 204.082031 156.210938 Z M 204.082031 156.210938 "/>
<path style=" stroke:none;fill-rule:nonzero;fill:rgb(1.176471%,75.686276%,17.647059%);fill-opacity:1;" d="M 144.453125 175.527344 L 145.292969 175.527344 C 145.292969 175.527344 155.371094 167.96875 155.371094 167.96875 C 155.371094 165.230469 158.996094 163.769531 161.25 163.769531 C 161.25 158.285156 173.957031 160.207031 175.527344 163.351562 C 175.800781 163.894531 178.707031 167.96875 175.945312 167.96875 C 174.652344 167.96875 173.007812 165.710938 173.007812 168.808594 C 173.007812 168.808594 173.007812 169.648438 173.007812 169.648438 C 177.546875 169.648438 178.144531 170.328125 181.828125 172.167969 C 183.050781 172.78125 187.3125 170.292969 189.382812 171.328125 C 189.382812 171.328125 190.226562 173.847656 190.226562 173.847656 C 192.144531 174.808594 192.070312 172.167969 192.742188 172.167969 C 193.132812 172.167969 196.925781 173.847656 198.203125 173.847656 C 198.203125 173.847656 204.921875 161.671875 204.921875 161.671875 C 204.921875 161.671875 204.082031 156.210938 204.082031 156.210938 C 200.683594 156.210938 196.359375 159.699219 192.742188 157.890625 C 190.707031 156.871094 190.210938 156.210938 188.546875 156.210938 C 185.695312 156.210938 185.542969 150.089844 184.34375 149.492188 C 180.972656 147.804688 177.394531 146.972656 174.265625 146.972656 C 173.019531 146.972656 170.90625 143.613281 169.226562 143.613281 C 165.359375 143.613281 161.71875 146.949219 158.3125 148.652344 C 156.683594 149.464844 155.199219 147.6875 153.273438 148.652344 C 148.160156 151.207031 144.453125 169.085938 144.453125 175.527344 Z M 144.453125 175.527344 "/>
<path style=" stroke:none;fill-rule:nonzero;fill:rgb(1.176471%,75.686276%,17.647059%);fill-opacity:1;" d="M 267.070312 176.367188 L 264.550781 177.207031 C 264.550781 177.207031 258.25 171.328125 258.25 171.328125 C 257.191406 170.796875 252.792969 170.253906 252.792969 168.808594 C 252.792969 165.773438 251.011719 162.929688 247.753906 162.929688 C 247.753906 161.867188 242.46875 161.582031 241.453125 162.089844 C 236.863281 164.386719 234.316406 165.929688 234.316406 170.488281 C 234.316406 170.488281 231.375 172.167969 231.375 172.167969 C 231.375 172.167969 226.335938 176.367188 226.335938 176.367188 C 224.601562 177.234375 221.308594 173.421875 218.78125 174.6875 C 217.078125 175.539062 218.488281 178.046875 215.839844 178.046875 C 207.664062 178.046875 208.210938 169.089844 205.761719 164.1875 C 205.195312 163.054688 205.554688 156.210938 206.601562 156.210938 C 206.601562 156.210938 217.101562 160.410156 217.101562 160.410156 C 217.101562 160.410156 220.460938 155.371094 220.460938 155.371094 C 222.855469 154.171875 224.523438 152.496094 227.179688 151.171875 C 227.179688 151.171875 228.015625 148.652344 228.015625 148.652344 C 230.027344 147.648438 232.78125 147.949219 234.734375 146.972656 C 234.734375 146.972656 236.414062 144.453125 236.414062 144.453125 C 240.074219 144.453125 242.488281 144.453125 245.65625 144.453125 C 245.65625 144.453125 246.492188 146.972656 246.492188 146.972656 C 248.558594 146.972656 250.898438 147.8125 252.375 147.8125 C 254.128906 147.8125 256.484375 152.851562 256.570312 152.851562 C 257.875 152.851562 261.726562 156.019531 262.871094 158.3125 C 264.304688 161.179688 263.148438 165.582031 264.550781 168.390625 C 265.4375 170.164062 264.546875 172.582031 265.390625 174.265625 C 265.390625 174.265625 267.070312 176.367188 267.070312 176.367188 Z M 267.070312 176.367188 "/>
<path style=" stroke:none;fill-rule:nonzero;fill:rgb(5.882353%,42.745098%,90.196079%);fill-opacity:1;" d="M 173.007812 168.808594 L 172.167969 169.648438 C 170.75 169.648438 160.410156 168.09375 160.410156 167.128906 C 160.410156 167.128906 161.25 163.769531 161.25 163.769531 C 161.25 158.285156 173.957031 160.207031 175.527344 163.351562 C 175.800781 163.894531 178.707031 167.96875 175.945312 167.96875 C 174.652344 167.96875 173.007812 165.710938 173.007812 168.808594 Z M 173.007812 168.808594 "/>
<path style=" stroke:none;fill-rule:nonzero;fill:rgb(5.882353%,42.745098%,90.196079%);fill-opacity:1;" d="M 247.753906 166.289062 C 247.753906 169.125 240.570312 167.992188 238.9375 168.808594 L 236.414062 171.328125 L 234.316406 170.488281 C 234.316406 165.929688 236.863281 164.386719 241.453125 162.089844 C 242.46875 161.582031 247.753906 161.867188 247.753906 162.929688 C 247.753906 162.929688 247.753906 166.289062 247.753906 166.289062 Z M 247.753906 166.289062 "/>
<path style=" stroke:none;fill-rule:evenodd;fill:rgb(100%,52.941179%,0%);fill-opacity:1;" d="M 234.316406 202.402344 L 234.316406 204.921875 C 234.316406 213.03125 241.300781 202.402344 234.316406 202.402344 M 242.714844 189.804688 C 242.714844 192.652344 238.597656 191.738281 238.515625 191.90625 L 238.515625 199.882812 C 238.515625 200.511719 235.441406 201.496094 237.257812 202.402344 C 240.164062 203.855469 249.960938 189.804688 242.714844 189.804688 M 207.441406 189.804688 C 207.441406 200.808594 206.601562 211.734375 206.601562 222.558594 C 206.601562 224.429688 208.269531 224.632812 209.121094 226.335938 C 209.121094 226.335938 209.960938 230.539062 209.960938 230.539062 C 215.519531 241.65625 228.1875 236.332031 235.578125 232.636719 C 235.578125 232.636719 238.09375 229.277344 238.09375 229.277344 C 242.320312 227.164062 247.269531 225.53125 251.53125 223.398438 C 258.984375 219.671875 270.429688 198.070312 270.429688 191.0625 C 270.429688 185.964844 264.550781 178.519531 264.550781 177.207031 C 264.550781 177.207031 258.25 171.328125 258.25 171.328125 C 257.191406 170.796875 252.792969 170.253906 252.792969 168.808594 C 252.792969 168.808594 247.753906 166.289062 247.753906 166.289062 C 247.753906 169.125 240.570312 167.992188 238.9375 168.808594 C 238.9375 168.808594 236.414062 171.328125 236.414062 171.328125 C 236.414062 171.328125 234.316406 170.488281 234.316406 170.488281 C 234.316406 170.488281 231.375 172.167969 231.375 172.167969 C 231.375 172.167969 226.335938 176.367188 226.335938 176.367188 C 224.601562 177.234375 221.308594 173.421875 218.78125 174.6875 C 217.078125 175.539062 218.488281 178.046875 215.839844 178.046875 C 215.839844 180.433594 211.871094 178.003906 210.800781 180.148438 C 209.246094 183.253906 207.441406 186 207.441406 189.804688 Z M 207.441406 189.804688 "/>
<path style=" stroke:none;fill-rule:evenodd;fill:rgb(100%,52.941179%,0%);fill-opacity:1;" d="M 168.808594 196.523438 C 168.808594 199.105469 173.503906 206.601562 175.109375 206.601562 L 174.6875 201.984375 C 174.6875 198.148438 172.15625 196.523438 168.808594 196.523438 M 164.609375 187.285156 C 164.609375 188.589844 164.117188 195.683594 165.867188 195.683594 C 168.09375 195.683594 167.8125 187.285156 164.609375 187.285156 M 203.242188 187.285156 C 203.242188 196.558594 203.242188 207.253906 203.242188 215.421875 C 203.242188 218.234375 199.882812 220.28125 199.882812 223.398438 C 198.148438 223.398438 199.523438 226.214844 199.042969 227.179688 C 199.042969 227.179688 191.90625 234.316406 191.90625 234.316406 C 191.90625 234.316406 176.789062 231.796875 176.789062 231.796875 C 176.789062 231.796875 174.265625 229.277344 174.265625 229.277344 C 165.730469 225.007812 154.179688 219.757812 149.492188 210.382812 C 149.492188 210.382812 146.972656 208.703125 146.972656 208.703125 C 146.972656 208.703125 139.414062 191.0625 139.414062 191.0625 C 137.777344 187.792969 145.292969 175.820312 145.292969 175.527344 C 145.292969 175.527344 155.371094 167.96875 155.371094 167.96875 C 157.15625 167.96875 159.097656 167.128906 160.410156 167.128906 C 160.410156 168.09375 170.75 169.648438 172.167969 169.648438 C 172.167969 169.648438 173.007812 169.648438 173.007812 169.648438 C 177.546875 169.648438 178.144531 170.328125 181.828125 172.167969 C 183.050781 172.78125 187.3125 170.292969 189.382812 171.328125 C 189.382812 171.328125 190.226562 173.847656 190.226562 173.847656 C 192.144531 174.808594 192.070312 172.167969 192.742188 172.167969 C 193.132812 172.167969 196.925781 173.847656 198.203125 173.847656 C 198.203125 178.714844 203.242188 182.28125 203.242188 187.285156 Z M 203.242188 187.285156 "/>
<path style=" stroke:none;fill-rule:nonzero;fill:rgb(100%,30.980393%,80.784315%);fill-opacity:1;" d="M 164.609375 187.285156 C 164.609375 188.589844 164.117188 195.683594 165.867188 195.683594 C 168.09375 195.683594 167.8125 187.285156 164.609375 187.285156 Z M 164.609375 187.285156 "/>
<path style=" stroke:none;fill-rule:nonzero;fill:rgb(100%,89.019608%,0%);fill-opacity:1;" d="M 206.601562 222.558594 C 203.984375 222.558594 205.703125 219.199219 203.664062 219.199219 L 199.882812 223.398438 C 199.882812 220.28125 203.242188 218.234375 203.242188 215.421875 C 203.242188 207.253906 203.242188 196.558594 203.242188 187.285156 C 203.242188 187.285156 207.441406 189.804688 207.441406 189.804688 C 207.441406 200.808594 206.601562 211.734375 206.601562 222.558594 Z M 206.601562 222.558594 "/>
<path style=" stroke:none;fill-rule:nonzero;fill:rgb(100%,30.980393%,80.784315%);fill-opacity:1;" d="M 242.714844 189.804688 C 242.714844 192.652344 238.597656 191.738281 238.515625 191.90625 L 238.515625 199.882812 C 238.515625 200.511719 235.441406 201.496094 237.257812 202.402344 C 240.164062 203.855469 249.960938 189.804688 242.714844 189.804688 Z M 242.714844 189.804688 "/>
<path style=" stroke:none;fill-rule:nonzero;fill:rgb(100%,30.980393%,80.784315%);fill-opacity:1;" d="M 168.808594 196.523438 C 168.808594 199.105469 173.503906 206.601562 175.109375 206.601562 L 174.6875 201.984375 C 174.6875 198.148438 172.15625 196.523438 168.808594 196.523438 Z M 168.808594 196.523438 "/>
<path style=" stroke:none;fill-rule:nonzero;fill:rgb(100%,30.980393%,80.784315%);fill-opacity:1;" d="M 234.316406 202.402344 L 234.316406 204.921875 C 234.316406 213.03125 241.300781 202.402344 234.316406 202.402344 Z M 234.316406 202.402344 "/>
<path style=" stroke:none;fill-rule:nonzero;fill:rgb(18.82353%,85.490197%,0%);fill-opacity:1;" d="M 247.753906 246.914062 C 247.753906 248.4375 242.914062 248.707031 241.453125 249.433594 L 240.195312 253.210938 L 238.515625 253.210938 L 239.355469 254.890625 L 238.515625 257.414062 L 243.132812 259.511719 C 246.351562 261.121094 260.082031 256.871094 256.992188 250.695312 C 255.957031 248.621094 253.929688 249.3125 252.792969 248.171875 C 251.207031 246.585938 249.304688 246.914062 247.753906 246.914062 Z M 247.753906 246.914062 "/>
<path style=" stroke:none;fill-rule:nonzero;fill:rgb(98.039216%,50.196081%,44.705883%);fill-opacity:1;" d="M 161.25 247.753906 C 161.25 250.898438 163.007812 247.753906 161.25 247.753906 Z M 161.25 247.753906 "/>
<path style=" stroke:none;fill-rule:nonzero;fill:rgb(18.82353%,85.490197%,0%);fill-opacity:1;" d="M 165.449219 248.59375 C 165.449219 249.71875 161.25 251.378906 161.25 253.210938 C 161.25 257.953125 165.679688 262.03125 170.488281 262.03125 C 171.558594 262.03125 178.886719 260.441406 178.886719 259.929688 C 178.886719 256.15625 178.878906 249.433594 171.75 249.433594 Z M 165.449219 248.59375 "/>
<path style=" stroke:none;fill-rule:nonzero;fill:rgb(98.039216%,50.196081%,44.705883%);fill-opacity:1;" d="M 157.050781 249.433594 L 154.53125 250.695312 C 154.15625 251.445312 154.375 254.339844 155.789062 253.632812 L 156.632812 251.953125 C 157.613281 251.953125 156.316406 255.46875 158.3125 254.472656 C 161.71875 252.769531 160.71875 249.433594 157.050781 249.433594 Z M 157.050781 249.433594 "/>
<path style=" stroke:none;fill-rule:nonzero;fill:rgb(98.039216%,50.196081%,44.705883%);fill-opacity:1;" d="M 256.992188 256.992188 L 256.152344 260.773438 C 258.210938 264.890625 264.054688 256.992188 256.992188 256.992188 Z M 256.992188 256.992188 "/>
<path style=" stroke:none;fill-rule:nonzero;fill:rgb(98.039216%,50.196081%,44.705883%);fill-opacity:1;" d="M 159.570312 259.511719 C 159.570312 264.1875 161.34375 259.511719 159.570312 259.511719 Z M 159.570312 259.511719 "/>
<path style=" stroke:none;fill-rule:nonzero;fill:rgb(98.039216%,50.196081%,44.705883%);fill-opacity:1;" d="M 161.25 260.351562 C 161.25 263.496094 163.007812 260.351562 161.25 260.351562 Z M 161.25 260.351562 "/>
<path style=" stroke:none;fill-rule:nonzero;fill:rgb(98.039216%,50.196081%,44.705883%);fill-opacity:1;" d="M 240.195312 310.742188 L 235.996094 314.523438 C 234.375 317.761719 237.675781 321.464844 237.675781 323.757812 C 237.675781 326.847656 234.945312 328.378906 236.835938 332.15625 L 242.714844 334.679688 L 243.132812 338.457031 L 249.015625 336.777344 C 250.070312 337.304688 251.757812 339.183594 253.210938 338.457031 C 254.789062 337.667969 250.863281 329.132812 255.734375 326.699219 C 257.023438 326.054688 258.984375 327.742188 259.511719 328.796875 C 260.609375 330.988281 256.992188 331.535156 256.992188 333 L 259.929688 333.417969 C 263.050781 334.976562 267.527344 333.761719 269.589844 329.640625 C 272.054688 324.710938 260.058594 322.332031 258.671875 319.5625 C 256.453125 315.125 254.90625 320.828125 253.210938 319.980469 L 253.632812 318.300781 L 252.792969 312.84375 C 250.898438 309.050781 246.789062 312.421875 244.8125 312.421875 C 243.476562 312.421875 242.082031 310.742188 240.195312 310.742188 Z M 240.195312 310.742188 "/>
<path style=" stroke:none;fill-rule:nonzero;fill:rgb(98.039216%,50.196081%,44.705883%);fill-opacity:1;" d="M 163.769531 313.261719 L 161.25 315.359375 C 160.460938 316.941406 160.300781 325.019531 156.632812 325.019531 C 154.425781 325.019531 153.285156 323.753906 150.75 325.019531 C 148.386719 326.203125 143.753906 331.601562 145.292969 334.679688 C 148.484375 341.0625 156.28125 330.722656 159.992188 332.578125 C 161.367188 333.265625 164.082031 336.832031 165.867188 335.9375 L 168.390625 331.738281 C 171.957031 331.738281 173.136719 341.542969 177.625 339.296875 C 186.988281 334.617188 177.4375 330.019531 178.046875 328.796875 C 180.382812 324.125 184.316406 318.285156 177.625 314.941406 C 175.519531 313.886719 171.304688 315.558594 170.070312 314.941406 C 167.710938 313.761719 166.6875 313.261719 163.769531 313.261719 Z M 163.769531 313.261719 "/>
</g>
</svg>
