<?xml version="1.0" encoding="UTF-8"?>
<svg xmlns="http://www.w3.org/2000/svg" xmlns:xlink="http://www.w3.org/1999/xlink" width="430px" height="430px" viewBox="0 0 430 430" version="1.1">
<g id="surface1">
<rect x="0" y="0" width="430" height="430" style="fill:rgb(0%,0%,0%);fill-opacity:1;stroke:none;"/>
<path style=" stroke:none;fill-rule:evenodd;fill:rgb(52.549022%,100%,35.294119%);fill-opacity:1;" d="M 201.5625 298.984375 C 201.5625 301.039062 200.046875 303.054688 201.984375 304.023438 C 204.484375 305.273438 201.238281 308.269531 204.5 309.902344 C 208.585938 311.945312 210.449219 303.742188 209.121094 301.085938 C 208.582031 300.003906 203.558594 298.984375 201.5625 298.984375 M 203.242188 267.070312 C 203.242188 268.722656 195.140625 267.910156 194.421875 267.910156 C 192.953125 267.910156 184.351562 271.265625 182.664062 272.109375 C 180.902344 272.992188 180.195312 275.445312 180.148438 275.46875 C 169.925781 280.578125 169.917969 289.628906 165.449219 298.5625 C 161.082031 307.296875 168.039062 329.882812 175.109375 333.417969 L 176.789062 337.617188 C 179.089844 338.769531 181.128906 340.628906 183.507812 341.816406 L 186.867188 341.816406 C 189.339844 343.054688 199.085938 345.78125 201.984375 344.335938 L 205.34375 340.136719 C 207.539062 339.039062 209.742188 343.597656 211.21875 344.335938 C 215.769531 346.609375 225.425781 343.53125 228.859375 341.816406 L 231.375 338.457031 L 233.476562 338.039062 C 233.796875 337.394531 233.210938 335.097656 234.734375 335.097656 C 235.851562 335.097656 236.550781 336.925781 237.675781 334.679688 C 241.226562 327.574219 244.542969 319.261719 247.753906 312.84375 C 249.386719 309.582031 244.945312 296.308594 243.554688 293.523438 C 241.484375 289.386719 241.457031 284.292969 239.355469 280.085938 C 238.230469 277.839844 237.53125 279.667969 236.414062 279.667969 L 234.734375 277.148438 C 233.519531 276.539062 233.195312 275.117188 230.539062 273.789062 C 225.023438 271.03125 209.742188 267.070312 203.242188 267.070312 Z M 203.242188 267.070312 "/>
<path style=" stroke:none;fill-rule:evenodd;fill:rgb(92.156863%,34.117648%,100%);fill-opacity:1;" d="M 204.921875 303.183594 C 204.921875 308.4375 208.101562 303.183594 204.921875 303.183594 M 201.5625 298.984375 C 201.5625 301.039062 200.046875 303.054688 201.984375 304.023438 C 204.484375 305.273438 201.238281 308.269531 204.5 309.902344 C 208.585938 311.945312 210.449219 303.742188 209.121094 301.085938 C 208.582031 300.003906 203.558594 298.984375 201.5625 298.984375 Z M 201.5625 298.984375 "/>
<path style=" stroke:none;fill-rule:nonzero;fill:rgb(15.294118%,95.686275%,99.215686%);fill-opacity:1;" d="M 204.921875 303.183594 C 204.921875 308.4375 208.101562 303.183594 204.921875 303.183594 Z M 204.921875 303.183594 "/>
</g>
</svg>
