<?xml version="1.0" encoding="UTF-8"?>
<svg xmlns="http://www.w3.org/2000/svg" xmlns:xlink="http://www.w3.org/1999/xlink" width="430px" height="430px" viewBox="0 0 430 430" version="1.1">
<g id="surface1">
<rect x="0" y="0" width="430" height="430" style="fill:rgb(0%,0%,0%);fill-opacity:1;stroke:none;"/>
<path style=" stroke:none;fill-rule:evenodd;fill:rgb(1.176471%,75.686276%,17.647059%);fill-opacity:1;" d="M 157.050781 144.453125 L 155.371094 145.710938 L 157.050781 146.554688 C 157.050781 148.261719 150.125 147.285156 149.070312 147.8125 L 149.070312 149.492188 C 143.773438 152.140625 134.375 160.179688 134.375 164.1875 C 134.375 165.589844 133.75 167.136719 134.375 168.390625 C 135.195312 170.03125 140.535156 169.648438 142.351562 169.648438 C 145.902344 169.648438 163.488281 168.878906 165.03125 169.648438 C 167.429688 170.847656 173.507812 180.566406 175.945312 180.566406 L 176.367188 175.945312 C 176.367188 173.925781 176.847656 166.828125 175.527344 164.1875 C 170.363281 153.863281 173.28125 144.453125 157.050781 144.453125 M 246.074219 140.253906 C 246.074219 141.246094 243.074219 141.542969 242.296875 141.933594 C 242.292969 141.933594 238.792969 147.675781 238.515625 148.234375 C 235.722656 153.816406 235.914062 164.355469 232.636719 170.90625 L 232.636719 175.109375 C 231.449219 177.484375 227.65625 181.945312 229.277344 185.1875 C 231.242188 189.113281 235.871094 179.429688 235.996094 179.304688 C 238.828125 176.476562 243.890625 175.570312 247.335938 173.847656 C 253.417969 170.804688 265.199219 174.574219 271.6875 171.328125 C 272.582031 170.882812 277.988281 169.753906 277.988281 168.390625 C 277.988281 163.441406 278.332031 167.398438 276.308594 163.351562 L 277.988281 159.148438 C 277.203125 157.578125 274.597656 153.464844 273.367188 152.851562 L 273.367188 151.171875 L 269.171875 150.332031 L 265.8125 146.132812 C 264.972656 146.132812 263.8125 147.652344 262.453125 146.972656 C 258.449219 144.972656 251.488281 140.253906 246.074219 140.253906 M 300.664062 230.117188 C 305.320312 230.117188 313.445312 229.328125 315.78125 224.65625 L 317.882812 220.878906 L 324.179688 215.421875 C 326.789062 210.199219 327.414062 203.917969 330.058594 198.625 C 331.703125 195.332031 337.082031 181.597656 335.097656 177.625 C 333.890625 175.210938 335.9375 174.121094 335.9375 171.75 L 333.417969 167.546875 L 335.097656 165.867188 L 333.417969 163.351562 C 332.308594 161.128906 334.257812 157.515625 334.257812 155.789062 L 331.738281 150.75 L 331.738281 145.710938 C 329.300781 140.835938 329.972656 134.621094 327.539062 129.757812 C 325.539062 125.753906 322.675781 122.917969 318.71875 120.9375 L 316.621094 117.15625 C 316.414062 116.746094 306.425781 108.910156 305.28125 108.339844 C 297.378906 104.386719 288.820312 101.367188 280.929688 97.421875 L 276.726562 97.421875 C 272.949219 95.53125 268.972656 94.382812 266.648438 93.222656 L 262.453125 93.222656 C 256.863281 90.429688 250.304688 90.089844 244.8125 87.34375 C 241.191406 85.53125 236.175781 88.902344 233.054688 87.34375 C 232.175781 86.90625 230.953125 85.875 229.695312 86.503906 C 223.453125 89.625 216.644531 90.929688 210.382812 94.0625 C 205.714844 96.394531 206.78125 99.164062 204.921875 102.882812 L 202.820312 103.300781 C 200.914062 102.347656 200.730469 96.375 197.78125 94.902344 C 192.679688 92.351562 173.359375 85.699219 166.710938 89.023438 C 163.375 90.691406 158.988281 89.945312 155.789062 91.542969 C 146.957031 95.960938 136.03125 96.382812 127.234375 100.78125 C 114.144531 107.328125 103.6875 117.59375 90.28125 124.296875 C 81.5625 128.65625 83.832031 139.296875 80.625 145.710938 C 71.777344 163.40625 80.042969 195.78125 88.183594 212.0625 C 92.65625 221.007812 97.894531 232.636719 110.019531 232.636719 C 112.386719 232.636719 112.976562 229.269531 114.640625 228.4375 C 117.320312 227.097656 120.085938 226.554688 123.039062 225.078125 C 123.039062 225.078125 128.078125 220.039062 128.078125 220.039062 C 128.078125 220.039062 132.273438 220.878906 132.273438 220.878906 C 134.109375 219.960938 136.539062 217.90625 138.992188 216.679688 C 138.992188 216.679688 158.3125 215.839844 158.3125 215.839844 C 160.628906 217 166.296875 218.359375 168.808594 218.359375 C 168.808594 214.675781 175.527344 214.664062 175.527344 213.320312 C 175.527344 211.605469 176.023438 209.960938 178.046875 209.960938 C 178.046875 206.648438 186.679688 202.730469 189.382812 204.082031 C 192.164062 205.472656 208.4375 208.414062 210.382812 207.441406 C 215.550781 204.855469 219.019531 202.941406 224.65625 205.761719 C 227.421875 207.144531 235.15625 206.074219 235.15625 210.800781 C 235.15625 210.800781 236.835938 213.320312 236.835938 213.320312 C 236.835938 213.320312 241.875 217.519531 241.875 217.519531 C 241.875 217.519531 243.554688 216.257812 243.554688 216.257812 C 248.621094 211.191406 252.753906 215 258.671875 215 C 261.015625 215 268.679688 213.496094 270.007812 214.160156 C 271.394531 214.851562 273.101562 216.546875 275.046875 217.519531 C 277.882812 218.9375 282.167969 217.71875 285.125 219.199219 C 288.148438 220.710938 290.128906 223.800781 292.6875 225.078125 C 294.957031 226.214844 300.664062 226.601562 300.664062 230.117188 Z M 300.664062 230.117188 "/>
<path style=" stroke:none;fill-rule:nonzero;fill:rgb(100%,43.137255%,0%);fill-opacity:1;" d="M 246.074219 140.253906 C 246.074219 141.246094 243.074219 141.542969 242.296875 141.933594 C 242.292969 141.933594 238.792969 147.675781 238.515625 148.234375 C 235.722656 153.816406 235.914062 164.355469 232.636719 170.90625 L 232.636719 175.109375 C 231.449219 177.484375 227.65625 181.945312 229.277344 185.1875 C 231.242188 189.113281 235.871094 179.429688 235.996094 179.304688 C 238.828125 176.476562 243.890625 175.570312 247.335938 173.847656 C 253.417969 170.804688 265.199219 174.574219 271.6875 171.328125 C 272.582031 170.882812 277.988281 169.753906 277.988281 168.390625 C 277.988281 163.441406 278.332031 167.398438 276.308594 163.351562 L 277.988281 159.148438 C 277.203125 157.578125 274.597656 153.464844 273.367188 152.851562 L 273.367188 151.171875 L 269.171875 150.332031 L 265.8125 146.132812 C 264.972656 146.132812 263.8125 147.652344 262.453125 146.972656 C 258.449219 144.972656 251.488281 140.253906 246.074219 140.253906 Z M 246.074219 140.253906 "/>
<path style=" stroke:none;fill-rule:nonzero;fill:rgb(100%,43.137255%,0%);fill-opacity:1;" d="M 157.050781 144.453125 L 155.371094 145.710938 L 157.050781 146.554688 C 157.050781 148.261719 150.125 147.285156 149.070312 147.8125 L 149.070312 149.492188 C 143.773438 152.140625 134.375 160.179688 134.375 164.1875 C 134.375 165.589844 133.75 167.136719 134.375 168.390625 C 135.195312 170.03125 140.535156 169.648438 142.351562 169.648438 C 145.902344 169.648438 163.488281 168.878906 165.03125 169.648438 C 167.429688 170.847656 173.507812 180.566406 175.945312 180.566406 L 176.367188 175.945312 C 176.367188 173.925781 176.847656 166.828125 175.527344 164.1875 C 170.363281 153.863281 173.28125 144.453125 157.050781 144.453125 Z M 157.050781 144.453125 "/>
<path style=" stroke:none;fill-rule:nonzero;fill:rgb(88.235295%,94.117647%,5.098039%);fill-opacity:1;" d="M 264.550781 256.992188 C 264.550781 259.679688 260.507812 260.613281 258.671875 262.453125 C 248.117188 273.003906 241.597656 271.339844 229.695312 265.390625 C 226.617188 263.847656 227.351562 260.527344 225.5 258.671875 C 220.003906 253.175781 212.460938 248.132812 209.121094 241.453125 C 207.253906 237.722656 208.039062 231.730469 206.601562 228.859375 L 204.5 227.597656 L 203.242188 238.09375 L 190.644531 256.570312 C 188.898438 260.066406 188.835938 265.664062 184.34375 267.910156 C 174.121094 273.023438 169.214844 269.582031 159.148438 264.550781 C 155.695312 262.824219 148.652344 263.542969 148.652344 257.832031 C 148.652344 257.832031 156.632812 253.632812 156.632812 253.632812 C 160.832031 251.53125 167.765625 250.273438 172.585938 250.273438 C 172.585938 250.273438 173.429688 248.59375 173.429688 248.59375 C 173.429688 248.59375 177.625 249.433594 177.625 249.433594 C 179.335938 248.578125 186.796875 243.835938 185.605469 241.453125 C 185.605469 241.453125 183.925781 239.773438 183.925781 239.773438 C 183.925781 239.773438 187.285156 238.9375 187.285156 238.9375 C 188.441406 236.625 184.597656 231.796875 182.246094 231.796875 C 182.246094 231.796875 182.246094 230.117188 182.246094 230.117188 C 182.246094 226.597656 180.566406 222.71875 180.566406 219.199219 C 183.863281 219.199219 181.339844 209.960938 178.046875 209.960938 C 178.046875 206.648438 186.679688 202.730469 189.382812 204.082031 C 192.164062 205.472656 208.4375 208.414062 210.382812 207.441406 C 215.550781 204.855469 219.019531 202.941406 224.65625 205.761719 C 227.421875 207.144531 235.15625 206.074219 235.15625 210.800781 C 232.046875 210.800781 230.117188 212.503906 230.117188 215.839844 C 230.117188 215.839844 229.277344 217.519531 229.277344 217.519531 C 229.277344 224.210938 232.636719 226.480469 232.636719 228.4375 C 232.636719 231.15625 222.707031 235.035156 225.917969 241.453125 C 227.664062 244.949219 234.492188 250.152344 238.09375 251.953125 C 238.09375 251.953125 243.132812 251.113281 243.132812 251.113281 C 246.230469 252.660156 247.824219 255.558594 250.695312 256.992188 C 254.496094 258.894531 260.945312 256.992188 264.550781 256.992188 Z M 264.550781 256.992188 "/>
<path style=" stroke:none;fill-rule:nonzero;fill:rgb(0.784314%,17.254902%,100%);fill-opacity:1;" d="M 175.527344 213.320312 C 178.054688 213.320312 180.566406 216.742188 180.566406 219.199219 C 183.863281 219.199219 181.339844 209.960938 178.046875 209.960938 C 176.023438 209.960938 175.527344 211.605469 175.527344 213.320312 Z M 175.527344 213.320312 "/>
<path style=" stroke:none;fill-rule:nonzero;fill:rgb(0.784314%,17.254902%,100%);fill-opacity:1;" d="M 230.117188 215.839844 L 230.117188 216.679688 C 232.210938 216.679688 232.980469 213.320312 236.835938 213.320312 C 236.835938 213.320312 235.15625 210.800781 235.15625 210.800781 C 232.046875 210.800781 230.117188 212.503906 230.117188 215.839844 Z M 230.117188 215.839844 "/>
<path style=" stroke:none;fill-rule:nonzero;fill:rgb(50.588238%,30.980393%,100%);fill-opacity:1;" d="M 232.636719 228.4375 C 236.585938 228.4375 233.511719 230.765625 235.578125 231.796875 C 237.839844 232.929688 238.285156 229.277344 240.195312 229.277344 C 240.195312 229.277344 243.554688 225.078125 243.554688 225.078125 C 243.554688 222.304688 241.875 218.761719 241.875 217.519531 C 241.875 217.519531 236.835938 213.320312 236.835938 213.320312 C 232.980469 213.320312 232.210938 216.679688 230.117188 216.679688 C 230.117188 216.679688 229.277344 217.519531 229.277344 217.519531 C 229.277344 224.210938 232.636719 226.480469 232.636719 228.4375 Z M 232.636719 228.4375 "/>
<path style=" stroke:none;fill-rule:nonzero;fill:rgb(50.588238%,30.980393%,100%);fill-opacity:1;" d="M 181.40625 231.796875 C 179.324219 231.796875 179.289062 233.484375 177.625 234.316406 L 173.007812 233.476562 C 173.007812 229.792969 166.289062 228.703125 166.289062 225.078125 C 167.140625 225.078125 168.808594 218.644531 168.808594 218.359375 C 168.808594 214.675781 175.527344 214.664062 175.527344 213.320312 C 178.054688 213.320312 180.566406 216.742188 180.566406 219.199219 C 180.566406 222.71875 182.246094 226.597656 182.246094 230.117188 C 182.246094 230.117188 181.40625 231.796875 181.40625 231.796875 Z M 181.40625 231.796875 "/>
<path style=" stroke:none;fill-rule:nonzero;fill:rgb(100%,52.941179%,0%);fill-opacity:1;" d="M 300.664062 230.117188 C 300.664062 232.785156 302.121094 235.179688 300.664062 238.09375 C 299.441406 240.539062 296.273438 240.921875 294.367188 241.875 L 289.328125 246.914062 C 281.785156 250.683594 272.445312 256.992188 264.550781 256.992188 C 260.945312 256.992188 254.496094 258.894531 250.695312 256.992188 C 247.824219 255.558594 246.230469 252.660156 243.132812 251.113281 C 243.132812 251.113281 238.09375 251.953125 238.09375 251.953125 C 234.492188 250.152344 227.664062 244.949219 225.917969 241.453125 C 222.707031 235.035156 232.636719 231.15625 232.636719 228.4375 C 236.585938 228.4375 233.511719 230.765625 235.578125 231.796875 C 237.839844 232.929688 238.285156 229.277344 240.195312 229.277344 C 240.195312 232.320312 239.355469 234.238281 239.355469 236.414062 C 239.355469 237.820312 247.101562 237.792969 247.335938 237.675781 C 247.335938 237.675781 248.59375 234.734375 248.59375 234.734375 C 249.480469 232.964844 252.292969 233.214844 252.792969 232.21875 C 254.105469 229.589844 252.816406 223.199219 249.851562 221.71875 C 249.269531 221.425781 245.394531 225.078125 243.554688 225.078125 C 243.554688 222.304688 241.875 218.761719 241.875 217.519531 C 241.875 217.519531 243.554688 216.257812 243.554688 216.257812 C 248.621094 211.191406 252.753906 215 258.671875 215 C 261.015625 215 268.679688 213.496094 270.007812 214.160156 C 271.394531 214.851562 273.101562 216.546875 275.046875 217.519531 C 277.882812 218.9375 282.167969 217.71875 285.125 219.199219 C 288.148438 220.710938 290.128906 223.800781 292.6875 225.078125 C 294.957031 226.214844 300.664062 226.601562 300.664062 230.117188 Z M 300.664062 230.117188 "/>
<path style=" stroke:none;fill-rule:nonzero;fill:rgb(100%,52.941179%,0%);fill-opacity:1;" d="M 110.019531 232.636719 C 110.019531 236.90625 105.820312 235.433594 105.820312 238.9375 L 107.921875 240.195312 C 113.109375 245.382812 110.261719 243.464844 117.15625 246.914062 C 119.957031 248.3125 122.210938 251.960938 125.554688 253.632812 C 133.421875 257.566406 141.328125 257.832031 148.652344 257.832031 C 148.652344 257.832031 156.632812 253.632812 156.632812 253.632812 C 160.832031 251.53125 167.765625 250.273438 172.585938 250.273438 C 172.585938 250.273438 173.429688 248.59375 173.429688 248.59375 C 173.429688 248.59375 177.625 249.433594 177.625 249.433594 C 179.335938 248.578125 186.796875 243.835938 185.605469 241.453125 C 185.605469 241.453125 183.925781 239.773438 183.925781 239.773438 C 183.925781 239.773438 187.285156 238.9375 187.285156 238.9375 C 188.441406 236.625 184.597656 231.796875 182.246094 231.796875 C 182.246094 231.796875 181.40625 231.796875 181.40625 231.796875 C 179.324219 231.796875 179.289062 233.484375 177.625 234.316406 C 177.625 234.316406 173.007812 233.476562 173.007812 233.476562 C 173.007812 239.496094 157.851562 236.339844 157.050781 234.734375 C 153.851562 228.335938 166.289062 219.398438 166.289062 225.078125 C 167.140625 225.078125 168.808594 218.644531 168.808594 218.359375 C 166.296875 218.359375 160.628906 217 158.3125 215.839844 C 158.3125 215.839844 138.992188 216.679688 138.992188 216.679688 C 136.539062 217.90625 134.109375 219.960938 132.273438 220.878906 C 132.273438 220.878906 128.078125 220.039062 128.078125 220.039062 C 128.078125 220.039062 123.039062 225.078125 123.039062 225.078125 C 120.085938 226.554688 117.320312 227.097656 114.640625 228.4375 C 112.976562 229.269531 112.386719 232.636719 110.019531 232.636719 Z M 110.019531 232.636719 "/>
<path style=" stroke:none;fill-rule:nonzero;fill:rgb(48.627451%,98.823529%,0%);fill-opacity:1;" d="M 243.554688 225.078125 C 245.394531 225.078125 249.269531 221.425781 249.851562 221.71875 C 252.816406 223.199219 254.105469 229.589844 252.792969 232.21875 C 252.292969 233.214844 249.480469 232.964844 248.59375 234.734375 L 247.335938 237.675781 C 247.101562 237.792969 239.355469 237.820312 239.355469 236.414062 C 239.355469 234.238281 240.195312 232.320312 240.195312 229.277344 C 240.195312 229.277344 243.554688 225.078125 243.554688 225.078125 Z M 243.554688 225.078125 "/>
<path style=" stroke:none;fill-rule:nonzero;fill:rgb(48.627451%,98.823529%,0%);fill-opacity:1;" d="M 166.289062 225.078125 C 166.289062 228.703125 173.007812 229.792969 173.007812 233.476562 C 173.007812 239.496094 157.851562 236.339844 157.050781 234.734375 C 153.851562 228.335938 166.289062 219.398438 166.289062 225.078125 Z M 166.289062 225.078125 "/>
<path style=" stroke:none;fill-rule:nonzero;fill:rgb(14.901961%,49.411765%,100%);fill-opacity:1;" d="M 194.003906 264.550781 C 194.003906 266.03125 192.675781 265.003906 191.90625 265.390625 C 190.140625 266.273438 189.433594 268.726562 189.382812 268.75 L 187.285156 269.171875 C 187.285156 271.96875 188.140625 270.226562 190.226562 271.269531 L 194.421875 276.308594 C 198.984375 276.308594 205.28125 264.550781 194.003906 264.550781 Z M 194.003906 264.550781 "/>
<path style=" stroke:none;fill-rule:nonzero;fill:rgb(14.901961%,49.411765%,100%);fill-opacity:1;" d="M 217.519531 264.550781 C 217.519531 269 213.320312 268.78125 213.320312 272.53125 C 213.320312 274.289062 223.480469 277.316406 223.820312 277.148438 L 224.238281 274.210938 L 226.757812 273.367188 L 225.078125 271.6875 C 225.078125 270.332031 225.269531 266.230469 222.976562 266.230469 C 222.117188 266.230469 220.644531 267.070312 219.617188 267.070312 Z M 217.519531 264.550781 "/>
<path style=" stroke:none;fill-rule:nonzero;fill:rgb(98.039216%,50.196081%,44.705883%);fill-opacity:1;" d="M 255.3125 274.628906 L 253.632812 277.570312 L 255.3125 280.929688 C 255.3125 283.171875 252.992188 284.683594 254.472656 287.648438 C 254.953125 288.605469 258.1875 287.519531 259.511719 290.164062 C 260.394531 291.933594 257.832031 292.410156 257.832031 293.523438 C 257.832031 295.242188 260.054688 303.121094 263.289062 301.503906 C 267.8125 299.242188 266.074219 294.054688 264.550781 291.007812 L 265.390625 284.289062 C 264.347656 282.203125 261.804688 282.996094 261.191406 281.765625 C 259.96875 279.320312 259.351562 274.628906 255.3125 274.628906 Z M 255.3125 274.628906 "/>
<path style=" stroke:none;fill-rule:nonzero;fill:rgb(98.039216%,50.196081%,44.705883%);fill-opacity:1;" d="M 157.890625 275.46875 C 157.890625 278.140625 153.121094 277.871094 152.011719 280.085938 C 150.984375 282.144531 153.320312 288.066406 155.789062 288.066406 C 157.039062 288.066406 157.546875 284.128906 157.890625 283.445312 L 162.089844 280.929688 C 163.605469 277.894531 160.445312 275.46875 157.890625 275.46875 Z M 157.890625 275.46875 "/>
<path style=" stroke:none;fill-rule:nonzero;fill:rgb(98.039216%,50.196081%,44.705883%);fill-opacity:1;" d="M 251.113281 283.027344 L 250.273438 284.289062 C 250.273438 287.273438 254.988281 283.027344 251.113281 283.027344 Z M 251.113281 283.027344 "/>
<path style=" stroke:none;fill-rule:nonzero;fill:rgb(98.039216%,50.196081%,44.705883%);fill-opacity:1;" d="M 259.511719 304.023438 C 259.511719 305.65625 256.414062 307.304688 254.890625 306.542969 C 247.5625 302.878906 250.777344 308.222656 246.492188 308.222656 C 242.066406 308.222656 243.535156 304.242188 237.257812 307.382812 C 233.511719 309.253906 237.675781 314.535156 237.675781 316.203125 C 237.675781 318.324219 233.558594 329.050781 237.257812 330.898438 C 242.925781 333.734375 245.378906 328.660156 246.492188 329.21875 C 248.347656 330.144531 253.621094 335.542969 256.152344 330.476562 C 257 328.78125 252.511719 327.6875 253.632812 325.4375 C 256.035156 320.636719 262.21875 324.222656 264.550781 319.5625 C 266.886719 314.886719 267.082031 304.023438 259.511719 304.023438 Z M 259.511719 304.023438 "/>
<path style=" stroke:none;fill-rule:nonzero;fill:rgb(98.039216%,50.196081%,44.705883%);fill-opacity:1;" d="M 153.691406 309.902344 C 153.691406 312.546875 144.601562 311.457031 146.972656 316.203125 C 147.957031 318.167969 151.152344 321.660156 153.273438 321.660156 C 153.835938 321.660156 155.4375 319.695312 156.210938 321.242188 L 156.632812 328.378906 C 157.363281 328.378906 157.128906 323.589844 159.992188 325.019531 L 161.25 329.640625 C 162.179688 331.496094 171.046875 337.128906 173.429688 335.9375 C 175.601562 334.851562 180.140625 333.851562 181.40625 331.320312 C 182.101562 329.925781 181.632812 312.746094 179.304688 311.582031 C 177.746094 310.800781 171.628906 310.800781 170.070312 311.582031 L 167.546875 315.78125 L 164.1875 313.261719 L 158.3125 314.101562 C 156.332031 313.113281 157.640625 309.902344 153.691406 309.902344 Z M 153.691406 309.902344 "/>
<path style=" stroke:none;fill-rule:nonzero;fill:rgb(98.039216%,50.196081%,44.705883%);fill-opacity:1;" d="M 149.492188 322.5 L 145.292969 326.28125 C 143.832031 329.199219 150.886719 332.929688 153.273438 331.738281 L 153.273438 322.5 Z M 149.492188 322.5 "/>
</g>
</svg>
