<?xml version="1.0" encoding="UTF-8"?>
<svg xmlns="http://www.w3.org/2000/svg" xmlns:xlink="http://www.w3.org/1999/xlink" width="430px" height="430px" viewBox="0 0 430 430" version="1.1">
<g id="surface1">
<rect x="0" y="0" width="430" height="430" style="fill:rgb(0%,0%,0%);fill-opacity:1;stroke:none;"/>
<path style=" stroke:none;fill-rule:evenodd;fill:rgb(52.549022%,100%,35.294119%);fill-opacity:1;" d="M 191.484375 243.554688 C 191.484375 245.289062 188.667969 243.914062 187.703125 244.394531 C 185.753906 245.371094 186.847656 244.394531 185.1875 244.394531 L 183.507812 246.914062 L 181.828125 245.234375 L 180.148438 247.753906 L 173.429688 248.59375 C 167.117188 251.75 165.484375 255.664062 162.089844 262.453125 C 160.863281 264.90625 161.898438 272.984375 162.929688 275.046875 C 163.476562 276.140625 162.382812 285.714844 162.929688 286.804688 C 168.648438 298.242188 174.34375 307.421875 186.023438 313.261719 C 188.707031 314.601562 197.140625 315.261719 199.460938 314.101562 C 201.289062 313.1875 203.691406 307.816406 206.179688 309.0625 L 208.703125 314.101562 C 211.6875 315.59375 219.144531 315.597656 222.140625 314.101562 C 227.742188 311.300781 232.53125 305.546875 237.257812 303.183594 C 240.164062 301.726562 238.398438 297.304688 241.453125 297.304688 L 241.875 294.367188 C 242.691406 292.730469 245.46875 289.839844 245.65625 289.746094 C 247.878906 288.632812 249.433594 275.464844 249.433594 272.109375 L 248.59375 260.773438 C 244.445312 252.472656 231.335938 244.394531 221.296875 244.394531 C 217.496094 244.394531 194.816406 245.851562 193.585938 245.234375 L 191.484375 243.554688 M 204.921875 276.308594 L 205.761719 276.308594 C 205.761719 278.355469 212.378906 275.6875 210.800781 272.53125 C 209.058594 269.046875 206.480469 272.257812 204.5 271.269531 C 203.425781 270.730469 202.742188 268.789062 201.140625 269.589844 C 199.773438 270.273438 197.417969 275.285156 199.460938 276.308594 C 201.667969 277.410156 202.808594 276.308594 204.921875 276.308594 Z M 204.921875 276.308594 "/>
<path style=" stroke:none;fill-rule:nonzero;fill:rgb(92.156863%,34.117648%,100%);fill-opacity:1;" d="M 204.921875 276.308594 C 202.808594 276.308594 201.667969 277.410156 199.460938 276.308594 C 197.417969 275.285156 199.773438 270.273438 201.140625 269.589844 C 202.742188 268.789062 203.425781 270.730469 204.5 271.269531 C 206.480469 272.257812 209.058594 269.046875 210.800781 272.53125 C 212.378906 275.6875 205.761719 278.355469 205.761719 276.308594 C 205.761719 273.113281 204.921875 273.113281 204.921875 276.308594 Z M 204.921875 276.308594 "/>
<path style=" stroke:none;fill-rule:nonzero;fill:rgb(15.294118%,95.686275%,99.215686%);fill-opacity:1;" d="M 204.921875 276.308594 L 205.761719 276.308594 C 205.761719 273.113281 204.921875 273.113281 204.921875 276.308594 Z M 204.921875 276.308594 "/>
</g>
</svg>
