<?xml version="1.0" encoding="UTF-8"?>
<svg xmlns="http://www.w3.org/2000/svg" xmlns:xlink="http://www.w3.org/1999/xlink" width="430px" height="430px" viewBox="0 0 430 430" version="1.1">
<g id="surface1">
<rect x="0" y="0" width="430" height="430" style="fill:rgb(0%,0%,0%);fill-opacity:1;stroke:none;"/>
<path style=" stroke:none;fill-rule:nonzero;fill:rgb(100%,100%,0%);fill-opacity:1;" d="M 200.722656 116.738281 C 200.722656 121.351562 189.066406 124.082031 192.324219 130.59375 C 197.074219 140.09375 228.671875 130.5 209.539062 120.9375 C 207.074219 119.703125 207.511719 118.417969 203.664062 118.417969 C 199.167969 118.417969 203.085938 116.738281 200.722656 116.738281 Z M 200.722656 116.738281 "/>
<path style=" stroke:none;fill-rule:nonzero;fill:rgb(100%,100%,0%);fill-opacity:1;" d="M 209.121094 140.253906 C 209.121094 142.445312 202.164062 145.804688 199.460938 144.453125 C 194.585938 142.011719 186.984375 149.671875 184.765625 154.109375 C 184.121094 155.398438 179.101562 155.378906 180.566406 158.3125 C 182.125 161.429688 189.925781 158.039062 191.90625 157.050781 L 197.78125 157.050781 C 204.0625 153.914062 212.546875 155.96875 218.78125 152.851562 C 227.796875 148.34375 214.566406 140.253906 209.121094 140.253906 Z M 209.121094 140.253906 "/>
<path style=" stroke:none;fill-rule:evenodd;fill:rgb(100%,100%,0%);fill-opacity:1;" d="M 200.722656 164.609375 C 200.722656 166.59375 190.195312 166.304688 188.546875 167.128906 L 180.566406 170.90625 C 179.371094 172.105469 180.160156 175.527344 178.46875 175.527344 C 177.992188 175.527344 178.027344 170.109375 177.207031 171.75 L 177.625 179.726562 L 178.46875 178.046875 L 179.304688 179.726562 C 179.714844 179.726562 184.105469 184.226562 186.867188 185.605469 L 192.742188 185.605469 C 200.367188 189.417969 214.28125 187.433594 221.296875 183.925781 C 224.117188 182.515625 227.570312 177.570312 225.917969 174.265625 L 222.558594 171.75 C 221.917969 170.46875 222.039062 167.917969 220.460938 167.128906 L 211.640625 165.449219 C 208.28125 165.449219 203.792969 164.609375 200.722656 164.609375 M 176.367188 169.648438 C 176.367188 170.898438 176.984375 176.367188 175.527344 176.367188 C 174.636719 176.367188 171.476562 181.269531 173.429688 182.246094 C 175.824219 183.445312 178.242188 186.332031 180.148438 187.285156 C 183.292969 188.859375 187.023438 189.042969 190.226562 190.644531 C 190.226562 190.644531 194.421875 190.644531 194.421875 190.644531 C 207.503906 197.183594 232.644531 185.167969 237.675781 175.109375 C 240.324219 169.8125 229.5 159.890625 225.5 157.890625 C 225.5 157.890625 214.160156 157.890625 214.160156 157.890625 C 210.007812 157.890625 204.675781 158.644531 201.140625 160.410156 C 194.449219 163.757812 176.367188 156.820312 176.367188 169.648438 Z M 176.367188 169.648438 "/>
<path style=" stroke:none;fill-rule:nonzero;fill:rgb(0%,100%,100%);fill-opacity:1;" d="M 200.722656 164.609375 C 200.722656 166.59375 190.195312 166.304688 188.546875 167.128906 L 180.566406 170.90625 C 179.371094 172.105469 180.160156 175.527344 178.46875 175.527344 C 177.992188 175.527344 178.027344 170.109375 177.207031 171.75 L 177.625 179.726562 L 178.46875 178.046875 L 179.304688 179.726562 C 179.714844 179.726562 184.105469 184.226562 186.867188 185.605469 L 192.742188 185.605469 C 200.367188 189.417969 214.28125 187.433594 221.296875 183.925781 C 224.117188 182.515625 227.570312 177.570312 225.917969 174.265625 L 222.558594 171.75 C 221.917969 170.46875 222.039062 167.917969 220.460938 167.128906 L 211.640625 165.449219 C 208.28125 165.449219 203.792969 164.609375 200.722656 164.609375 Z M 200.722656 164.609375 "/>
<path style=" stroke:none;fill-rule:nonzero;fill:rgb(0%,100%,100%);fill-opacity:1;" d="M 176.367188 169.648438 C 174.910156 169.648438 175.527344 175.117188 175.527344 176.367188 C 176.984375 176.367188 176.367188 170.898438 176.367188 169.648438 Z M 176.367188 169.648438 "/>
<path style=" stroke:none;fill-rule:evenodd;fill:rgb(60.000002%,32.549021%,100%);fill-opacity:1;" d="M 187.285156 280.507812 C 187.285156 281.976562 187.074219 282.1875 185.605469 282.1875 C 182.289062 282.1875 177.609375 285.539062 174.265625 283.867188 C 172.402344 282.933594 170.589844 281.1875 169.226562 280.507812 C 169.226562 280.507812 159.992188 280.507812 159.992188 280.507812 C 159.992188 280.507812 158.3125 277.988281 158.3125 277.988281 C 155.183594 276.425781 149.59375 276.089844 147.8125 272.53125 C 147.8125 272.53125 145.292969 264.96875 145.292969 264.96875 C 144.105469 262.597656 142.773438 262.84375 142.773438 260.351562 C 144.449219 260.351562 144.453125 256.675781 144.453125 255.3125 C 150.242188 255.3125 149.589844 250.015625 154.109375 247.753906 C 154.109375 247.753906 158.3125 246.914062 158.3125 246.914062 C 164.148438 243.996094 169.648438 231.613281 169.648438 227.179688 C 169.648438 227.179688 174.6875 222.140625 174.6875 222.140625 C 174.6875 222.140625 170.488281 216.679688 170.488281 216.679688 C 170.488281 216.679688 174.265625 220.039062 174.265625 220.039062 C 175.632812 220.039062 175.960938 216.285156 175.527344 215.421875 C 175.527344 215.421875 167.96875 209.121094 167.96875 209.121094 C 167.96875 205.300781 170.300781 204.804688 173.429688 203.242188 C 176.007812 201.953125 178.804688 205.761719 180.984375 205.761719 C 187.308594 205.761719 193.996094 204.289062 200.304688 207.441406 C 200.304688 207.441406 201.984375 210.800781 201.984375 210.800781 C 201.984375 210.800781 204.921875 211.21875 204.921875 211.21875 C 204.921875 211.21875 205.34375 214.160156 205.34375 214.160156 C 206.410156 214.695312 211.652344 206.804688 212.0625 206.601562 C 214.519531 205.371094 217.949219 206.175781 220.460938 204.921875 C 220.644531 204.828125 240.414062 205.242188 241.453125 205.761719 C 241.453125 205.761719 242.714844 210.800781 242.714844 210.800781 C 239.523438 210.800781 230.625 220.039062 236.835938 220.039062 C 236.835938 220.039062 235.996094 222.976562 235.996094 222.976562 C 235.996094 222.976562 240.195312 227.179688 240.195312 227.179688 C 244.460938 235.707031 249.398438 246.6875 258.25 251.113281 C 261.085938 252.527344 260.449219 257.832031 265.390625 257.832031 C 265.390625 261.144531 262.910156 260.351562 267.070312 260.351562 C 267.070312 263.109375 263.980469 261.910156 262.871094 264.132812 C 262.871094 264.132812 262.871094 268.328125 262.871094 268.328125 C 261.515625 271.042969 260.019531 272.355469 258.671875 275.046875 C 256.890625 278.613281 236.75 285.714844 233.054688 283.867188 C 228.898438 281.789062 226.832031 281.347656 221.71875 281.347656 C 221.71875 281.347656 220.878906 279.667969 220.878906 279.667969 C 220.878906 279.667969 223.820312 279.667969 223.820312 279.667969 C 232.515625 279.667969 220.242188 272.125 218.359375 275.890625 C 218.359375 275.890625 220.039062 279.667969 220.039062 279.667969 C 216.175781 279.667969 215.308594 272.109375 212.480469 272.109375 C 212.480469 269.121094 210.253906 272.28125 209.121094 270.007812 C 207.683594 267.136719 207.441406 262.964844 207.441406 259.511719 C 207.441406 253.285156 204.921875 245.183594 204.921875 257.832031 C 204.921875 262.375 204.785156 262.722656 203.242188 265.8125 C 203.242188 265.8125 204.921875 270.851562 204.921875 270.851562 C 204.753906 271.183594 199.882812 267.9375 199.882812 272.109375 C 196.976562 272.109375 195.660156 275.46875 192.324219 275.46875 C 192.324219 274.042969 183.085938 275.679688 181.828125 276.308594 C 179.652344 277.394531 182.347656 280.507812 183.925781 280.507812 C 183.925781 280.507812 187.285156 280.507812 187.285156 280.507812 M 198.203125 242.714844 L 195.265625 244.394531 C 193.335938 245.359375 193.222656 237.375 192.324219 235.578125 L 186.445312 229.695312 C 187.582031 227.425781 189.457031 229.242188 191.0625 228.4375 L 194.84375 224.65625 L 194.421875 222.558594 C 196.5625 221.488281 197.71875 222.167969 200.304688 220.878906 C 201.683594 220.1875 204.777344 213.457031 209.539062 215.839844 C 211.851562 216.996094 223.109375 229.433594 221.71875 232.21875 C 220.757812 234.136719 218.238281 235.816406 217.519531 237.257812 C 216.367188 239.558594 218.730469 241.898438 215.421875 243.554688 C 209.570312 246.480469 204.613281 243.554688 199.042969 243.554688 C 199.042969 243.554688 198.203125 242.714844 198.203125 242.714844 Z M 198.203125 242.714844 "/>
<path style=" stroke:none;fill-rule:nonzero;fill:rgb(98.039216%,50.196081%,44.705883%);fill-opacity:1;" d="M 144.453125 255.3125 C 144.453125 256.675781 144.449219 260.351562 142.773438 260.351562 C 134.425781 260.351562 129.414062 241.296875 133.535156 233.054688 C 141.066406 217.996094 147.523438 215.355469 161.671875 208.28125 C 162.871094 207.679688 166.371094 209.121094 167.96875 209.121094 C 167.96875 209.121094 175.527344 215.421875 175.527344 215.421875 C 175.960938 216.285156 175.632812 220.039062 174.265625 220.039062 C 174.265625 220.039062 170.488281 216.679688 170.488281 216.679688 C 168.832031 216.679688 167.535156 215 165.449219 215 C 165.449219 213.824219 163.769531 213.824219 163.769531 215 C 163.769531 215 156.632812 215 156.632812 215 C 155.488281 215.570312 152.5625 218.359375 152.011719 218.359375 C 152.011719 218.359375 151.171875 219.199219 151.171875 219.199219 C 149.386719 219.199219 143.613281 222.828125 143.613281 225.078125 C 143.613281 225.078125 142.773438 225.917969 142.773438 225.917969 C 142.773438 225.917969 140.253906 229.695312 140.253906 229.695312 C 136.753906 236.699219 136.0625 243.988281 139.414062 250.695312 C 140.9375 253.738281 139.9375 255.3125 144.453125 255.3125 Z M 144.453125 255.3125 "/>
<path style=" stroke:none;fill-rule:nonzero;fill:rgb(98.039216%,50.196081%,44.705883%);fill-opacity:1;" d="M 265.390625 257.832031 C 265.390625 261.144531 262.910156 260.351562 267.070312 260.351562 C 276.433594 260.351562 280.792969 239.503906 277.148438 232.21875 C 269.871094 217.664062 266.078125 217.234375 253.210938 210.800781 C 253.210938 210.800781 250.695312 208.28125 250.695312 208.28125 C 250.695312 208.28125 242.714844 210.800781 242.714844 210.800781 C 239.523438 210.800781 230.625 220.039062 236.835938 220.039062 C 238.527344 220.039062 243.863281 215.054688 245.65625 214.160156 C 250.972656 211.503906 259.332031 219.199219 262.871094 219.199219 C 262.871094 219.199219 264.550781 220.878906 264.550781 220.878906 C 264.550781 220.878906 266.230469 222.558594 266.230469 222.558594 C 266.230469 222.558594 267.910156 224.238281 267.910156 224.238281 C 267.910156 224.238281 267.910156 225.078125 267.910156 225.078125 C 267.910156 225.078125 271.269531 229.277344 271.269531 229.277344 C 271.269531 233.417969 273.789062 236.640625 273.789062 241.035156 C 275.078125 241.035156 275.078125 244.394531 273.789062 244.394531 C 273.789062 245.433594 275.0625 246.914062 273.789062 246.914062 C 273.789062 246.914062 272.949219 248.59375 272.949219 248.59375 C 272.949219 249.472656 273.347656 251.113281 272.109375 251.113281 C 272.109375 254 265.390625 256.789062 265.390625 257.832031 Z M 265.390625 257.832031 "/>
<path style=" stroke:none;fill-rule:nonzero;fill:rgb(35.686275%,94.509804%,100%);fill-opacity:1;" d="M 272.109375 251.113281 C 272.109375 254 265.390625 256.789062 265.390625 257.832031 C 260.449219 257.832031 261.085938 252.527344 258.25 251.113281 C 249.398438 246.6875 244.460938 235.707031 240.195312 227.179688 C 240.195312 227.179688 235.996094 222.976562 235.996094 222.976562 C 235.996094 222.976562 236.835938 220.039062 236.835938 220.039062 C 238.527344 220.039062 243.863281 215.054688 245.65625 214.160156 C 250.972656 211.503906 259.332031 219.199219 262.871094 219.199219 C 262.871094 219.199219 264.550781 220.878906 264.550781 220.878906 C 264.550781 220.878906 266.230469 222.558594 266.230469 222.558594 C 266.230469 222.558594 267.910156 224.238281 267.910156 224.238281 C 267.910156 224.238281 267.910156 225.078125 267.910156 225.078125 C 267.910156 226.125 269.980469 229.277344 271.269531 229.277344 C 271.269531 233.417969 273.789062 236.640625 273.789062 241.035156 C 273.789062 241.035156 273.789062 244.394531 273.789062 244.394531 C 271.796875 244.394531 273.789062 246.3125 273.789062 246.914062 C 273.789062 246.914062 272.949219 248.59375 272.949219 248.59375 C 271.710938 248.59375 272.109375 250.234375 272.109375 251.113281 Z M 272.109375 251.113281 "/>
<path style=" stroke:none;fill-rule:nonzero;fill:rgb(35.686275%,94.509804%,100%);fill-opacity:1;" d="M 142.773438 225.917969 L 140.253906 229.695312 C 136.753906 236.699219 136.0625 243.988281 139.414062 250.695312 C 140.9375 253.738281 139.9375 255.3125 144.453125 255.3125 C 150.242188 255.3125 149.589844 250.015625 154.109375 247.753906 C 154.109375 247.753906 158.3125 246.914062 158.3125 246.914062 C 164.148438 243.996094 169.648438 231.613281 169.648438 227.179688 C 169.648438 227.179688 174.6875 222.140625 174.6875 222.140625 C 174.6875 222.140625 170.488281 216.679688 170.488281 216.679688 C 168.832031 216.679688 167.535156 215 165.449219 215 C 165.449219 215 163.769531 215 163.769531 215 C 163.769531 215 156.632812 215 156.632812 215 C 155.488281 215.570312 152.5625 218.359375 152.011719 218.359375 C 152.011719 218.359375 151.171875 219.199219 151.171875 219.199219 C 149.386719 219.199219 143.613281 222.828125 143.613281 225.078125 C 143.613281 225.078125 142.773438 225.917969 142.773438 225.917969 Z M 142.773438 225.917969 "/>
<path style=" stroke:none;fill-rule:evenodd;fill:rgb(92.156863%,34.117648%,100%);fill-opacity:1;" d="M 204.921875 233.476562 C 204.921875 241.148438 208.292969 233.476562 204.921875 233.476562 M 198.203125 242.714844 L 199.042969 243.554688 C 204.613281 243.554688 209.570312 246.480469 215.421875 243.554688 C 218.730469 241.898438 216.367188 239.558594 217.519531 237.257812 C 218.238281 235.816406 220.757812 234.136719 221.71875 232.21875 C 223.109375 229.433594 211.851562 216.996094 209.539062 215.839844 C 204.777344 213.457031 201.683594 220.1875 200.304688 220.878906 C 197.71875 222.167969 196.5625 221.488281 194.421875 222.558594 C 194.421875 222.558594 194.84375 224.65625 194.84375 224.65625 C 194.84375 224.65625 191.0625 228.4375 191.0625 228.4375 C 189.457031 229.242188 187.582031 227.425781 186.445312 229.695312 C 186.445312 229.695312 192.324219 235.578125 192.324219 235.578125 C 193.222656 237.375 193.335938 245.359375 195.265625 244.394531 C 195.265625 244.394531 198.203125 242.714844 198.203125 242.714844 Z M 198.203125 242.714844 "/>
<path style=" stroke:none;fill-rule:nonzero;fill:rgb(15.294118%,95.686275%,99.215686%);fill-opacity:1;" d="M 204.921875 233.476562 C 204.921875 241.148438 208.292969 233.476562 204.921875 233.476562 Z M 204.921875 233.476562 "/>
<path style=" stroke:none;fill-rule:nonzero;fill:rgb(25.490198%,58.823532%,100%);fill-opacity:1;" d="M 204.921875 257.832031 L 207.441406 259.511719 C 207.441406 253.285156 204.921875 245.183594 204.921875 257.832031 Z M 204.921875 257.832031 "/>
<path style=" stroke:none;fill-rule:evenodd;fill:rgb(44.705883%,3.529412%,83.137256%);fill-opacity:1;" d="M 206.601562 270.429688 C 206.601562 273.574219 208.359375 270.429688 206.601562 270.429688 M 199.882812 272.109375 C 199.882812 276.152344 212.480469 274.9375 212.480469 272.109375 C 212.480469 269.121094 210.253906 272.28125 209.121094 270.007812 C 207.683594 267.136719 207.441406 262.964844 207.441406 259.511719 C 207.441406 259.511719 204.921875 257.832031 204.921875 257.832031 C 204.921875 262.375 204.785156 262.722656 203.242188 265.8125 C 203.242188 265.8125 204.921875 270.851562 204.921875 270.851562 C 204.753906 271.183594 199.882812 267.9375 199.882812 272.109375 Z M 199.882812 272.109375 "/>
<path style=" stroke:none;fill-rule:nonzero;fill:rgb(60.000002%,32.549021%,100%);fill-opacity:1;" d="M 206.601562 270.429688 C 206.601562 273.574219 208.359375 270.429688 206.601562 270.429688 Z M 206.601562 270.429688 "/>
<path style=" stroke:none;fill-rule:nonzero;fill:rgb(100%,20.392157%,15.294118%);fill-opacity:1;" d="M 221.71875 281.347656 C 221.71875 285.421875 210.410156 283.460938 207.859375 282.1875 L 204.921875 278.40625 L 204.5 275.46875 L 204.082031 280.085938 L 199.460938 283.867188 C 197.585938 284.804688 185.605469 284.34375 185.605469 282.1875 C 187.074219 282.1875 187.285156 281.976562 187.285156 280.507812 C 187.285156 280.507812 189.804688 279.667969 189.804688 279.667969 C 189.804688 279.667969 190.644531 278.828125 190.644531 278.828125 C 190.644531 278.828125 191.484375 277.148438 191.484375 277.148438 C 191.484375 277.148438 192.324219 276.308594 192.324219 276.308594 C 192.324219 276.308594 192.324219 275.46875 192.324219 275.46875 C 195.660156 275.46875 196.976562 272.109375 199.882812 272.109375 C 199.882812 276.152344 212.480469 274.9375 212.480469 272.109375 C 215.308594 272.109375 216.175781 279.667969 220.039062 279.667969 C 220.039062 279.667969 220.878906 279.667969 220.878906 279.667969 C 220.878906 279.667969 221.71875 281.347656 221.71875 281.347656 Z M 221.71875 281.347656 "/>
<path style=" stroke:none;fill-rule:nonzero;fill:rgb(0%,96.470588%,5.490196%);fill-opacity:1;" d="M 189.804688 279.667969 L 187.285156 280.507812 C 187.285156 280.507812 183.925781 280.507812 183.925781 280.507812 C 182.347656 280.507812 179.652344 277.394531 181.828125 276.308594 C 183.085938 275.679688 192.324219 274.042969 192.324219 275.46875 C 192.324219 275.46875 192.324219 276.308594 192.324219 276.308594 C 192.324219 276.308594 191.484375 277.148438 191.484375 277.148438 C 191.484375 277.148438 190.644531 278.828125 190.644531 278.828125 C 190.644531 278.828125 189.804688 279.667969 189.804688 279.667969 Z M 189.804688 279.667969 "/>
<path style=" stroke:none;fill-rule:nonzero;fill:rgb(0%,96.470588%,5.490196%);fill-opacity:1;" d="M 220.039062 279.667969 L 220.878906 279.667969 C 220.878906 279.667969 223.820312 279.667969 223.820312 279.667969 C 232.515625 279.667969 220.242188 272.125 218.359375 275.890625 C 218.359375 275.890625 220.039062 279.667969 220.039062 279.667969 Z M 220.039062 279.667969 "/>
<path style=" stroke:none;fill-rule:nonzero;fill:rgb(60.000002%,32.549021%,100%);fill-opacity:1;" d="M 192.324219 276.308594 L 191.484375 277.148438 C 191.484375 277.148438 192.324219 276.308594 192.324219 276.308594 Z M 192.324219 276.308594 "/>
<path style=" stroke:none;fill-rule:nonzero;fill:rgb(60.000002%,32.549021%,100%);fill-opacity:1;" d="M 190.644531 278.828125 L 189.804688 279.667969 C 189.804688 279.667969 190.644531 278.828125 190.644531 278.828125 Z M 190.644531 278.828125 "/>
</g>
</svg>
