<?xml version="1.0" encoding="UTF-8"?>
<svg xmlns="http://www.w3.org/2000/svg" xmlns:xlink="http://www.w3.org/1999/xlink" width="430px" height="430px" viewBox="0 0 430 430" version="1.1">
<g id="surface1">
<rect x="0" y="0" width="430" height="430" style="fill:rgb(0%,0%,0%);fill-opacity:1;stroke:none;"/>
<path style=" stroke:none;fill-rule:evenodd;fill:rgb(52.549022%,100%,35.294119%);fill-opacity:1;" d="M 207.441406 305.703125 C 207.441406 306.925781 202.933594 306.90625 201.984375 307.382812 C 200.554688 308.097656 201.328125 314.050781 201.5625 314.523438 L 206.179688 316.621094 C 210.152344 318.605469 210.394531 305.703125 207.441406 305.703125 M 200.722656 273.789062 C 200.722656 276.414062 194.496094 275.46875 192.742188 275.46875 C 190.773438 275.46875 178.304688 281.007812 175.945312 282.1875 L 175.527344 285.125 C 174.457031 287.269531 171.761719 288.460938 170.488281 291.007812 L 169.648438 296.882812 C 168.183594 299.816406 166.859375 302.464844 165.449219 305.28125 L 165.449219 313.679688 C 163.695312 317.191406 165.523438 321.390625 167.128906 324.601562 L 167.128906 330.476562 C 170.828125 337.875 175.769531 342.566406 182.664062 346.015625 C 186.523438 347.945312 193.269531 353.730469 198.625 351.054688 C 201.289062 349.722656 205.25 345.222656 205.34375 345.175781 C 207.03125 344.332031 212.003906 350.1875 213.742188 351.054688 C 220.929688 354.648438 239.355469 340.605469 239.355469 336.359375 L 241.875 335.515625 C 243.210938 332.839844 243.84375 329.898438 245.234375 327.117188 L 244.394531 322.078125 L 246.074219 321.242188 C 248.652344 316.085938 244.296875 300.046875 241.875 295.203125 C 239.523438 290.5 239.59375 284.195312 233.898438 281.347656 C 226.113281 277.457031 210.445312 273.789062 200.722656 273.789062 Z M 200.722656 273.789062 "/>
<path style=" stroke:none;fill-rule:nonzero;fill:rgb(92.156863%,34.117648%,100%);fill-opacity:1;" d="M 207.441406 305.703125 C 207.441406 306.925781 202.933594 306.90625 201.984375 307.382812 C 200.554688 308.097656 201.328125 314.050781 201.5625 314.523438 L 206.179688 316.621094 C 210.152344 318.605469 210.394531 305.703125 207.441406 305.703125 Z M 207.441406 305.703125 "/>
</g>
</svg>
