<?xml version="1.0" encoding="UTF-8"?>
<svg xmlns="http://www.w3.org/2000/svg" xmlns:xlink="http://www.w3.org/1999/xlink" width="430px" height="430px" viewBox="0 0 430 430" version="1.1">
<g id="surface1">
<rect x="0" y="0" width="430" height="430" style="fill:rgb(0%,0%,0%);fill-opacity:1;stroke:none;"/>
<path style=" stroke:none;fill-rule:nonzero;fill:rgb(98.039216%,50.196081%,44.705883%);fill-opacity:1;" d="M 134.375 293.105469 L 131.855469 294.367188 C 129.796875 296.425781 128.804688 297.945312 127.65625 300.242188 C 126.644531 302.269531 128.667969 320.054688 127.65625 322.078125 C 125.921875 325.550781 119.320312 321.417969 117.15625 322.5 C 110.179688 325.988281 113.675781 340.074219 120.515625 343.496094 C 123.285156 344.878906 124.582031 339.363281 126.398438 338.457031 C 127.292969 338.007812 130.097656 341.644531 133.117188 340.136719 L 134.796875 336.777344 L 138.574219 336.359375 C 142.179688 332.753906 144.277344 326.402344 138.15625 323.339844 L 133.535156 322.921875 C 132.90625 321.664062 133.9375 320.441406 134.375 319.5625 L 133.535156 312.84375 C 133.785156 312.339844 137.175781 312.558594 138.574219 311.164062 C 139.730469 310.003906 142.695312 303.757812 143.613281 301.921875 C 145.808594 297.53125 137.566406 293.105469 134.375 293.105469 Z M 134.375 293.105469 "/>
<path style=" stroke:none;fill-rule:nonzero;fill:rgb(98.039216%,50.196081%,44.705883%);fill-opacity:1;" d="M 275.46875 293.105469 C 275.46875 301.875 272.953125 325.445312 276.308594 332.15625 L 277.570312 330.898438 L 279.25 332.578125 L 282.1875 333 L 282.609375 339.296875 C 285.515625 340.75 284.578125 337.617188 285.96875 337.617188 C 287.480469 337.617188 288.800781 341.238281 291.007812 340.136719 C 296.050781 337.613281 296.945312 327.242188 294.785156 322.921875 C 293.820312 320.988281 289.675781 319.804688 287.648438 320.820312 L 285.546875 322.078125 C 284.292969 319.574219 287.109375 315.125 285.546875 312 L 284.289062 313.261719 L 283.867188 309.484375 L 282.1875 308.640625 L 282.1875 301.921875 L 278.828125 300.242188 C 278.253906 299.097656 280.207031 293.105469 275.46875 293.105469 Z M 275.46875 293.105469 "/>
</g>
</svg>
