<?xml version="1.0" encoding="UTF-8"?>
<svg xmlns="http://www.w3.org/2000/svg" xmlns:xlink="http://www.w3.org/1999/xlink" width="430px" height="430px" viewBox="0 0 430 430" version="1.1">
<g id="surface1">
<rect x="0" y="0" width="430" height="430" style="fill:rgb(0%,0%,0%);fill-opacity:1;stroke:none;"/>
<path style=" stroke:none;fill-rule:nonzero;fill:rgb(1.176471%,75.686276%,17.647059%);fill-opacity:1;" d="M 298.144531 294.785156 L 301.921875 295.625 L 306.125 293.105469 C 309.59375 293.105469 315.671875 300.507812 323.757812 296.464844 C 336.152344 290.269531 339.726562 274.1875 345.175781 263.289062 C 345.355469 262.925781 351.550781 260.734375 352.3125 260.351562 C 355.761719 258.628906 356.367188 253.507812 357.773438 250.695312 L 356.933594 244.8125 L 359.453125 241.453125 C 359.453125 240.695312 355.796875 240.371094 356.933594 238.09375 C 357.65625 236.648438 362.566406 235.921875 361.132812 233.054688 L 359.875 230.117188 C 358.605469 230.117188 355.527344 230.832031 356.09375 229.695312 L 360.710938 229.277344 L 361.132812 224.65625 L 367.011719 218.78125 L 367.011719 213.742188 C 370.847656 206.066406 374.070312 190.902344 370.371094 183.507812 C 369.328125 181.421875 372.640625 176.289062 371.210938 173.429688 C 368.476562 167.957031 369.375 161.355469 367.011719 156.632812 L 367.851562 152.429688 C 364.128906 144.984375 363.96875 137.105469 361.132812 131.4375 C 358.292969 125.753906 355.527344 120.222656 352.734375 114.640625 C 346.027344 101.230469 315.804688 83.785156 302.765625 77.265625 C 299.328125 75.546875 291.457031 76.230469 288.484375 74.746094 L 288.484375 73.066406 C 280.753906 69.199219 249.160156 66.347656 238.515625 66.347656 L 222.140625 66.347656 L 212.898438 68.867188 C 210.90625 69.863281 209.289062 72.351562 207.859375 73.066406 L 204.5 73.066406 C 203.242188 73.695312 201.214844 78.5625 200.304688 78.105469 C 196.824219 76.367188 193.800781 71.914062 191.0625 70.546875 C 187.890625 68.960938 163.972656 66.035156 159.992188 68.027344 L 156.632812 69.707031 C 153.1875 69.707031 146.871094 67.867188 143.195312 69.707031 C 139.171875 71.71875 135.742188 72.59375 131.4375 74.746094 C 128.90625 76.011719 124.46875 73.191406 121.359375 74.746094 L 118.835938 77.265625 L 113.796875 77.265625 C 108.355469 79.988281 102.332031 81.320312 97 83.984375 C 93.019531 85.976562 89.128906 87.921875 85.242188 89.863281 C 79.546875 92.710938 74.441406 100.304688 68.445312 103.300781 C 62.871094 106.089844 61.910156 115.117188 59.628906 119.679688 L 53.75 126.398438 C 51.941406 130.015625 51.402344 134.453125 49.550781 138.15625 L 47.03125 142.351562 C 47.03125 143.0625 47.089844 151.472656 46.191406 153.273438 C 43.742188 158.171875 43.574219 170.265625 41.992188 173.429688 C 40.804688 175.804688 44.441406 181.96875 42.832031 185.1875 L 39.472656 189.382812 C 36.617188 195.097656 43.144531 221.925781 46.191406 228.015625 C 47.1875 230.011719 49.675781 231.628906 50.390625 233.054688 C 52.25 236.777344 50.171875 242.699219 52.070312 246.492188 C 53.769531 249.894531 53.753906 254.0625 55.429688 257.414062 L 60.46875 264.132812 L 62.148438 271.6875 C 64.613281 276.621094 77.566406 293.046875 82.726562 295.625 C 94.382812 301.453125 100.871094 296.464844 111.699219 296.464844 C 111.699219 296.464844 114.21875 291.84375 114.21875 291.84375 C 114.21875 291.84375 112.539062 287.226562 112.539062 287.226562 C 112.539062 285.285156 102.246094 272.9375 100.78125 270.007812 C 100.78125 270.007812 96.582031 261.609375 96.582031 261.609375 C 96.582031 261.609375 97.421875 248.171875 97.421875 248.171875 C 94.507812 242.347656 92.382812 241.253906 92.382812 235.15625 C 92.382812 235.15625 90.703125 231.796875 90.703125 231.796875 C 90.703125 228.140625 82.304688 225.230469 82.304688 222.558594 C 79.699219 222.558594 80.566406 215.304688 79.785156 213.742188 C 76.703125 207.574219 77.582031 191.269531 80.625 185.1875 C 83.03125 180.371094 81.617188 173.960938 83.984375 169.226562 C 83.984375 169.226562 87.34375 165.867188 87.34375 165.867188 C 87.34375 160.375 93.335938 154.726562 96.582031 148.234375 C 96.582031 148.234375 97.421875 142.351562 97.421875 142.351562 C 98.167969 140.859375 106.011719 136.09375 106.660156 134.796875 C 109.90625 128.300781 125.734375 118.75 133.117188 115.058594 C 141.640625 110.796875 152.300781 110.925781 160.828125 106.660156 C 160.828125 106.660156 167.546875 106.660156 167.546875 106.660156 C 170.042969 105.414062 175.941406 102.460938 177.625 102.460938 C 179.316406 102.460938 182.332031 109.769531 183.085938 111.28125 C 186.136719 117.382812 189.015625 120.332031 195.265625 123.457031 C 195.265625 123.457031 199.460938 123.457031 199.460938 123.457031 C 200.574219 124.011719 202.996094 125.050781 204.5 124.296875 C 210.050781 121.523438 215.734375 122.410156 219.199219 115.476562 C 220.652344 112.574219 221.476562 104.050781 224.65625 102.460938 C 227.710938 100.933594 233.300781 103 235.578125 104.140625 C 235.578125 104.140625 237.257812 103.300781 237.257812 103.300781 C 239.515625 103.300781 263.347656 107.527344 264.96875 108.339844 C 269.042969 110.375 274.324219 112.597656 279.25 115.058594 C 279.25 115.058594 282.609375 115.058594 282.609375 115.058594 C 286.855469 117.183594 288.835938 121.53125 292.6875 123.457031 C 295.199219 124.710938 298.570312 127.664062 300.242188 129.335938 C 301.128906 130.21875 300.285156 132.695312 302.34375 132.695312 C 304.058594 132.695312 304.863281 133.5 304.863281 135.214844 C 304.863281 135.214844 307.382812 136.054688 307.382812 136.054688 C 307.382812 136.054688 309.0625 136.894531 309.0625 136.894531 C 309.0625 136.894531 309.902344 138.574219 309.902344 138.574219 C 309.902344 138.574219 310.742188 140.253906 310.742188 140.253906 C 312.570312 140.253906 314.101562 139.714844 314.101562 141.933594 C 314.101562 141.933594 318.300781 146.972656 318.300781 146.972656 C 318.300781 146.972656 319.140625 151.171875 319.140625 151.171875 C 320.378906 151.171875 319.980469 152.8125 319.980469 153.691406 C 321.242188 153.691406 323.921875 165.359375 325.019531 167.546875 C 325.019531 167.546875 327.539062 170.070312 327.539062 170.070312 C 327.539062 170.070312 327.539062 176.789062 327.539062 176.789062 C 327.539062 176.789062 330.058594 177.625 330.058594 177.625 C 330.058594 177.625 330.058594 185.1875 330.058594 185.1875 C 330.058594 185.1875 333.417969 188.546875 333.417969 188.546875 C 333.417969 188.546875 333.417969 200.722656 333.417969 200.722656 C 333.417969 200.722656 332.578125 209.539062 332.578125 209.539062 C 331.992188 210.710938 330.898438 206.542969 330.898438 209.539062 C 330.898438 209.539062 330.898438 215.421875 330.898438 215.421875 C 330.480469 216.257812 328.378906 219.109375 328.378906 217.519531 C 328.378906 217.519531 327.539062 217.519531 327.539062 217.519531 C 327.539062 217.519531 327.539062 219.199219 327.539062 219.199219 C 327.539062 226.136719 320.820312 224.703125 320.820312 230.117188 C 320.820312 234.542969 323.078125 242.820312 320.820312 247.335938 C 320.820312 247.335938 312.421875 260.773438 312.421875 260.773438 C 310.269531 265.078125 310.382812 270.730469 308.222656 275.046875 C 308.222656 275.046875 298.144531 294.785156 298.144531 294.785156 Z M 298.144531 294.785156 "/>
<path style=" stroke:none;fill-rule:nonzero;fill:rgb(100%,43.137255%,0%);fill-opacity:1;" d="M 82.304688 221.71875 L 82.304688 222.558594 C 79.699219 222.558594 80.566406 215.304688 79.785156 213.742188 C 76.703125 207.574219 77.582031 191.269531 80.625 185.1875 C 83.03125 180.371094 81.617188 173.960938 83.984375 169.226562 C 83.984375 169.226562 87.34375 165.867188 87.34375 165.867188 C 87.34375 160.375 93.335938 154.726562 96.582031 148.234375 C 96.582031 148.234375 97.421875 142.351562 97.421875 142.351562 C 98.167969 140.859375 106.011719 136.09375 106.660156 134.796875 C 109.90625 128.300781 125.734375 118.75 133.117188 115.058594 C 141.640625 110.796875 152.300781 110.925781 160.828125 106.660156 C 160.828125 106.660156 167.546875 106.660156 167.546875 106.660156 C 170.042969 105.414062 175.941406 102.460938 177.625 102.460938 C 179.316406 102.460938 182.332031 109.769531 183.085938 111.28125 C 186.136719 117.382812 189.015625 120.332031 195.265625 123.457031 C 195.265625 123.457031 199.460938 123.457031 199.460938 123.457031 C 200.574219 124.011719 202.996094 125.050781 204.5 124.296875 C 210.050781 121.523438 215.734375 122.410156 219.199219 115.476562 C 220.652344 112.574219 221.476562 104.050781 224.65625 102.460938 C 227.710938 100.933594 233.300781 103 235.578125 104.140625 C 235.578125 104.140625 237.257812 103.300781 237.257812 103.300781 C 239.515625 103.300781 263.347656 107.527344 264.96875 108.339844 C 269.042969 110.375 274.324219 112.597656 279.25 115.058594 C 279.25 115.058594 282.609375 115.058594 282.609375 115.058594 C 286.855469 117.183594 288.835938 121.53125 292.6875 123.457031 C 295.199219 124.710938 298.570312 127.664062 300.242188 129.335938 C 301.128906 130.21875 300.285156 132.695312 302.34375 132.695312 C 302.34375 134.085938 303.570312 135.214844 304.863281 135.214844 C 304.863281 135.214844 307.382812 136.054688 307.382812 136.054688 C 307.382812 136.054688 309.0625 136.894531 309.0625 136.894531 C 309.0625 136.894531 309.902344 138.574219 309.902344 138.574219 C 308.144531 138.574219 309.355469 140.253906 310.742188 140.253906 C 312.570312 140.253906 314.101562 139.714844 314.101562 141.933594 C 314.101562 144.621094 315.484375 146.972656 318.300781 146.972656 C 318.300781 146.972656 319.140625 151.171875 319.140625 151.171875 C 319.140625 152.050781 318.742188 153.691406 319.980469 153.691406 C 321.242188 153.691406 323.921875 165.359375 325.019531 167.546875 C 325.019531 167.546875 327.539062 170.070312 327.539062 170.070312 C 327.539062 170.070312 327.539062 176.789062 327.539062 176.789062 C 327.539062 176.789062 330.058594 177.625 330.058594 177.625 C 330.058594 177.625 330.058594 185.1875 330.058594 185.1875 C 330.058594 185.1875 333.417969 188.546875 333.417969 188.546875 C 333.417969 188.546875 333.417969 200.722656 333.417969 200.722656 C 333.417969 200.722656 332.578125 209.539062 332.578125 209.539062 C 331.992188 210.710938 330.898438 206.542969 330.898438 209.539062 C 330.898438 209.539062 330.898438 215.421875 330.898438 215.421875 C 330.480469 216.257812 328.378906 219.109375 328.378906 217.519531 C 328.378906 217.519531 328.378906 215.839844 328.378906 215.839844 C 328.378906 212.269531 329.21875 209.027344 329.21875 206.601562 C 329.21875 206.601562 329.21875 205.761719 329.21875 205.761719 C 329.21875 198.261719 330.046875 193.5625 326.699219 186.867188 C 326.699219 186.867188 326.699219 182.664062 326.699219 182.664062 C 324.535156 178.339844 320.820312 172.179688 320.820312 167.128906 C 321.996094 167.128906 321.996094 165.449219 320.820312 165.449219 C 318.960938 165.449219 319.542969 163.769531 318.300781 163.769531 C 318.300781 163.769531 317.460938 162.929688 317.460938 162.929688 C 317.460938 161.617188 316.621094 159.675781 316.621094 157.890625 C 316.621094 157.890625 315.78125 157.050781 315.78125 157.050781 C 311.757812 157.050781 311.71875 150.332031 309.0625 150.332031 C 309.0625 150.332031 308.222656 149.492188 308.222656 149.492188 C 308.222656 148.84375 303.128906 144.453125 302.34375 144.453125 C 302.34375 139.625 295.425781 141.933594 294.785156 141.933594 C 294.785156 141.933594 293.945312 141.933594 293.945312 141.933594 C 293.945312 141.054688 294.34375 139.414062 293.105469 139.414062 C 289.789062 139.414062 283.5625 126.875 281.765625 125.976562 C 279.15625 124.671875 280.273438 128.496094 278.828125 128.496094 C 278.828125 123.8125 268.75 124.734375 268.75 120.097656 C 271.152344 120.097656 271.433594 122.492188 273.367188 123.457031 C 279.148438 126.347656 267.910156 111.617188 267.910156 120.097656 C 267.910156 120.097656 265.390625 119.257812 265.390625 119.257812 C 265.390625 119.257812 264.550781 118.417969 264.550781 118.417969 C 264.550781 118.417969 263.710938 118.417969 263.710938 118.417969 C 263.710938 118.417969 261.191406 116.738281 261.191406 116.738281 C 261.191406 116.738281 260.351562 116.738281 260.351562 116.738281 C 260.351562 116.738281 258.671875 115.898438 258.671875 115.898438 C 258.671875 115.898438 256.152344 115.058594 256.152344 115.058594 C 256.152344 115.058594 254.472656 114.21875 254.472656 114.21875 C 254.472656 114.21875 246.914062 113.378906 246.914062 113.378906 C 246.914062 113.378906 246.074219 112.539062 246.074219 112.539062 C 246.074219 112.539062 244.394531 112.539062 244.394531 112.539062 C 244.394531 112.539062 243.554688 113.378906 243.554688 113.378906 C 239.753906 113.378906 236.835938 115.898438 233.476562 115.898438 C 232.007812 115.898438 231.796875 116.109375 231.796875 117.578125 C 231.796875 117.578125 230.957031 117.578125 230.957031 117.578125 C 230.957031 117.578125 229.277344 119.257812 229.277344 119.257812 C 229.277344 119.257812 226.757812 120.9375 226.757812 120.9375 C 226.757812 120.9375 225.917969 121.777344 225.917969 121.777344 C 225.917969 121.777344 225.078125 122.617188 225.078125 122.617188 C 225.078125 122.617188 224.238281 123.457031 224.238281 123.457031 C 224.238281 123.457031 222.558594 125.136719 222.558594 125.136719 C 222.558594 125.136719 221.71875 125.976562 221.71875 125.976562 C 221.71875 125.976562 220.039062 126.816406 220.039062 126.816406 C 220.039062 126.816406 219.199219 127.65625 219.199219 127.65625 C 219.199219 127.65625 218.359375 128.496094 218.359375 128.496094 C 218.359375 128.496094 217.519531 128.496094 217.519531 128.496094 C 217.519531 128.496094 216.679688 129.335938 216.679688 129.335938 C 214.925781 129.335938 212.992188 131.855469 210.800781 131.855469 C 209.4375 131.855469 205.761719 131.859375 205.761719 133.535156 C 205.761719 133.535156 198.203125 133.535156 198.203125 133.535156 C 198.203125 133.535156 197.363281 133.535156 197.363281 133.535156 C 197.363281 132.296875 195.722656 132.695312 194.84375 132.695312 C 194.84375 132.695312 194.003906 132.695312 194.003906 132.695312 C 194.003906 132.695312 193.164062 131.855469 193.164062 131.855469 C 193.164062 131.855469 191.484375 131.855469 191.484375 131.855469 C 191.484375 130.085938 189.355469 130.175781 188.125 130.175781 C 185.613281 130.175781 170.617188 117.851562 166.710938 115.898438 C 159.714844 112.402344 146.085938 121.777344 139.414062 121.777344 C 139.414062 119.84375 135.46875 121.441406 134.796875 121.777344 C 132.3125 123.019531 122.617188 132.964844 122.617188 136.054688 C 122.617188 136.054688 120.9375 136.894531 120.9375 136.894531 C 120.9375 136.894531 120.097656 136.894531 120.097656 136.894531 C 118.773438 136.894531 118.417969 138.375 118.417969 139.414062 C 116.953125 139.414062 112.652344 141.09375 114.21875 141.09375 C 114.21875 141.09375 114.21875 141.933594 114.21875 141.933594 C 114.21875 141.933594 113.378906 142.773438 113.378906 142.773438 C 113.378906 145.042969 109.261719 146.300781 107.921875 146.972656 C 105.878906 147.992188 103.78125 152.820312 103.71875 152.851562 C 101.519531 153.953125 95.742188 156.207031 95.742188 159.570312 C 95.742188 159.570312 94.902344 160.410156 94.902344 160.410156 C 94.902344 164.476562 89.863281 166.058594 89.863281 169.226562 C 89.863281 169.226562 91.542969 170.90625 91.542969 170.90625 C 91.542969 170.90625 89.023438 173.429688 89.023438 173.429688 C 86.550781 178.375 85.617188 182.761719 83.144531 187.703125 C 81.851562 190.289062 84.273438 193.007812 83.144531 195.265625 C 78.535156 204.484375 82.304688 211.746094 82.304688 221.71875 Z M 82.304688 221.71875 "/>
<path style=" stroke:none;fill-rule:nonzero;fill:rgb(5.490196%,27.843139%,88.627452%);fill-opacity:1;" d="M 225.917969 162.089844 L 227.597656 162.089844 C 227.597656 159.796875 227.953125 161.25 229.277344 161.25 C 229.277344 161.25 230.957031 160.410156 230.957031 160.410156 C 230.957031 160.410156 233.476562 159.570312 233.476562 159.570312 C 233.476562 159.570312 234.316406 158.730469 234.316406 158.730469 C 234.316406 158.730469 235.15625 157.890625 235.15625 157.890625 C 235.15625 156.375 238.171875 155.371094 239.355469 155.371094 C 239.355469 155.371094 240.195312 154.53125 240.195312 154.53125 C 240.195312 154.53125 242.714844 152.011719 242.714844 152.011719 C 242.714844 152.011719 243.554688 151.171875 243.554688 151.171875 C 243.554688 151.171875 244.394531 150.332031 244.394531 150.332031 C 244.394531 150.332031 244.394531 147.8125 244.394531 147.8125 C 242.648438 147.8125 240.886719 146.972656 243.554688 146.972656 C 243.554688 146.972656 244.394531 146.132812 244.394531 146.132812 C 252.21875 146.132812 260.183594 141.933594 267.910156 141.933594 C 267.910156 141.933594 269.589844 141.09375 269.589844 141.09375 C 274.699219 141.09375 279.667969 137.308594 279.667969 131.855469 C 279.667969 131.855469 279.667969 130.175781 279.667969 130.175781 C 279.667969 130.175781 278.828125 128.496094 278.828125 128.496094 C 278.828125 123.8125 268.75 124.734375 268.75 120.097656 C 268.75 120.097656 267.910156 120.097656 267.910156 120.097656 C 267.910156 120.097656 265.390625 119.257812 265.390625 119.257812 C 265.390625 119.257812 264.550781 118.417969 264.550781 118.417969 C 264.550781 118.417969 263.710938 118.417969 263.710938 118.417969 C 262.671875 118.417969 261.191406 118.0625 261.191406 116.738281 C 261.191406 116.738281 260.351562 116.738281 260.351562 116.738281 C 260.351562 116.738281 258.671875 115.898438 258.671875 115.898438 C 258.671875 115.898438 256.152344 115.058594 256.152344 115.058594 C 256.152344 115.058594 254.472656 114.21875 254.472656 114.21875 C 254.472656 114.21875 246.914062 113.378906 246.914062 113.378906 C 246.914062 113.378906 246.074219 112.539062 246.074219 112.539062 C 246.074219 112.539062 244.394531 112.539062 244.394531 112.539062 C 244.394531 112.539062 243.554688 113.378906 243.554688 113.378906 C 239.753906 113.378906 236.835938 115.898438 233.476562 115.898438 C 233.476562 117.367188 233.265625 117.578125 231.796875 117.578125 C 231.796875 117.578125 230.957031 117.578125 230.957031 117.578125 C 230.957031 118.632812 229.277344 121.109375 229.277344 119.257812 C 229.277344 119.257812 226.757812 120.9375 226.757812 120.9375 C 226.757812 120.9375 225.917969 121.777344 225.917969 121.777344 C 225.917969 121.777344 225.078125 122.617188 225.078125 122.617188 C 225.078125 122.617188 224.238281 123.457031 224.238281 123.457031 C 224.238281 123.457031 222.558594 125.136719 222.558594 125.136719 C 222.558594 125.136719 221.71875 125.976562 221.71875 125.976562 C 221.71875 125.976562 220.039062 126.816406 220.039062 126.816406 C 220.039062 126.816406 219.199219 127.65625 219.199219 127.65625 C 219.199219 127.65625 218.359375 128.496094 218.359375 128.496094 C 218.359375 128.496094 217.519531 128.496094 217.519531 128.496094 C 217.519531 128.496094 216.679688 129.335938 216.679688 129.335938 C 214.925781 129.335938 212.992188 131.855469 210.800781 131.855469 C 210.800781 132.992188 206.902344 133.535156 205.761719 133.535156 C 205.761719 133.535156 204.082031 136.054688 204.082031 136.054688 C 204.082031 136.054688 203.242188 137.734375 203.242188 137.734375 C 203.242188 137.734375 201.140625 134.375 201.140625 134.375 C 200.265625 133.9375 198.203125 135.171875 198.203125 133.535156 C 198.203125 133.535156 197.363281 133.535156 197.363281 133.535156 C 196.484375 133.535156 194.84375 133.933594 194.84375 132.695312 C 194.84375 132.695312 194.003906 132.695312 194.003906 132.695312 C 194.003906 132.695312 193.164062 131.855469 193.164062 131.855469 C 193.164062 131.855469 191.484375 131.855469 191.484375 131.855469 C 191.484375 131.855469 188.125 130.175781 188.125 130.175781 C 185.613281 130.175781 170.617188 117.851562 166.710938 115.898438 C 159.714844 112.402344 146.085938 121.777344 139.414062 121.777344 C 139.414062 123.636719 130.175781 126.683594 130.175781 131.855469 C 130.175781 134.40625 129.042969 136.726562 130.175781 138.992188 C 131.085938 140.8125 132.695312 139.652344 132.695312 141.933594 C 133.574219 141.933594 135.214844 141.535156 135.214844 142.773438 C 140.273438 142.773438 155.601562 148.652344 162.089844 148.652344 C 164.339844 148.652344 162.929688 150.398438 162.929688 151.171875 C 162.929688 151.171875 162.929688 152.851562 162.929688 152.851562 C 162.929688 152.851562 164.609375 154.53125 164.609375 154.53125 C 168.351562 154.53125 166.453125 157.761719 168.390625 158.730469 C 168.390625 158.730469 171.75 158.730469 171.75 158.730469 C 171.75 158.730469 171.75 160.410156 171.75 160.410156 C 175.277344 162.175781 178.753906 162.929688 183.085938 162.929688 C 183.085938 162.929688 197.363281 161.25 197.363281 161.25 C 197.363281 161.25 198.203125 161.25 198.203125 161.25 C 198.203125 161.25 199.042969 160.410156 199.042969 160.410156 C 199.042969 159.417969 203.082031 154.242188 203.664062 154.53125 C 203.664062 154.53125 207.023438 158.730469 207.023438 158.730469 C 208.339844 159.390625 214.601562 159.570312 215.839844 159.570312 C 217.242188 159.570312 223.398438 160.519531 223.398438 162.089844 C 223.398438 162.089844 225.078125 162.089844 225.078125 162.089844 C 225.078125 162.089844 225.917969 162.089844 225.917969 162.089844 Z M 225.917969 162.089844 "/>
<path style=" stroke:none;fill-rule:nonzero;fill:rgb(0.784314%,17.254902%,100%);fill-opacity:1;" d="M 267.910156 120.097656 L 268.75 120.097656 C 271.152344 120.097656 271.433594 122.492188 273.367188 123.457031 C 279.148438 126.347656 267.910156 111.617188 267.910156 120.097656 Z M 267.910156 120.097656 "/>
<path style=" stroke:none;fill-rule:nonzero;fill:rgb(0.784314%,17.254902%,100%);fill-opacity:1;" d="M 118.417969 162.089844 L 119.257812 162.089844 C 119.257812 157.347656 123.613281 131.855469 130.175781 131.855469 C 130.175781 126.683594 139.414062 123.636719 139.414062 121.777344 C 139.414062 119.84375 135.46875 121.441406 134.796875 121.777344 C 132.3125 123.019531 122.617188 132.964844 122.617188 136.054688 C 124.640625 136.054688 121.789062 136.894531 120.9375 136.894531 C 120.9375 136.894531 120.097656 136.894531 120.097656 136.894531 C 120.097656 139.175781 121.425781 139.414062 118.417969 139.414062 C 116.953125 139.414062 112.652344 141.09375 114.21875 141.09375 C 116.078125 141.09375 116.078125 141.933594 114.21875 141.933594 C 114.21875 141.933594 113.378906 142.773438 113.378906 142.773438 C 113.378906 142.773438 115.058594 142.773438 115.058594 142.773438 C 115.945312 142.773438 117.601562 143.613281 115.898438 143.613281 C 115.898438 143.613281 115.898438 145.292969 115.898438 145.292969 C 116.652344 145.292969 118.441406 146.972656 116.738281 146.972656 C 116.738281 148.6875 118.289062 149.492188 115.898438 149.492188 C 115.898438 149.492188 115.898438 150.332031 115.898438 150.332031 C 117.074219 150.332031 117.074219 152.011719 115.898438 152.011719 C 115.898438 154.316406 117.183594 162.089844 118.417969 162.089844 Z M 118.417969 162.089844 "/>
<path style=" stroke:none;fill-rule:nonzero;fill:rgb(0.784314%,17.254902%,100%);fill-opacity:1;" d="M 295.625 156.210938 L 294.785156 157.890625 C 293.988281 157.890625 289.746094 150.578125 289.746094 149.070312 C 289.746094 147.113281 290.910156 145.523438 289.746094 143.195312 C 289.746094 143.195312 286.386719 140.671875 286.386719 140.671875 C 286.386719 137.4375 286.96875 137.636719 285.546875 134.796875 C 285.546875 134.796875 281.347656 131.855469 281.347656 131.855469 C 281.347656 130.386719 281.136719 130.175781 279.667969 130.175781 C 279.667969 130.175781 278.828125 128.496094 278.828125 128.496094 C 280.273438 128.496094 279.15625 124.671875 281.765625 125.976562 C 283.5625 126.875 289.789062 139.414062 293.105469 139.414062 C 293.105469 140.292969 292.707031 141.933594 293.945312 141.933594 C 293.945312 141.933594 294.785156 141.933594 294.785156 141.933594 C 294.785156 142.894531 294.300781 145.292969 295.625 145.292969 C 295.625 145.292969 293.945312 147.390625 293.945312 147.390625 C 293.945312 149.511719 295.625 154.183594 295.625 156.210938 Z M 295.625 156.210938 "/>
<path style=" stroke:none;fill-rule:nonzero;fill:rgb(0%,100%,11.372549%);fill-opacity:1;" d="M 131.855469 168.808594 C 131.855469 167.105469 130.175781 168.894531 130.175781 169.648438 C 128.488281 169.648438 127.664062 167.96875 125.976562 167.96875 C 125.976562 167.96875 121.359375 162.929688 121.359375 162.929688 C 120.585938 162.542969 119.257812 163.570312 119.257812 162.089844 C 119.257812 157.347656 123.613281 131.855469 130.175781 131.855469 C 130.175781 134.40625 129.042969 136.726562 130.175781 138.992188 C 131.085938 140.8125 132.695312 139.652344 132.695312 141.933594 C 132.695312 143.171875 134.335938 142.773438 135.214844 142.773438 C 140.273438 142.773438 155.601562 148.652344 162.089844 148.652344 C 162.089844 148.652344 162.089844 150.332031 162.089844 150.332031 C 162.089844 150.332031 160.410156 150.332031 160.410156 150.332031 C 154.761719 150.332031 147.890625 149.664062 143.195312 152.011719 C 140.644531 153.285156 136.078125 168.808594 131.855469 168.808594 Z M 131.855469 168.808594 "/>
<path style=" stroke:none;fill-rule:nonzero;fill:rgb(0%,100%,11.372549%);fill-opacity:1;" d="M 282.1875 164.609375 L 288.066406 165.449219 C 288.066406 165.449219 291.84375 162.929688 291.84375 162.929688 C 293.011719 162.347656 291.652344 159.570312 293.945312 159.570312 C 293.945312 159.570312 294.785156 158.730469 294.785156 158.730469 C 294.785156 158.730469 294.785156 157.890625 294.785156 157.890625 C 293.988281 157.890625 289.746094 150.578125 289.746094 149.070312 C 289.746094 147.113281 290.910156 145.523438 289.746094 143.195312 C 289.746094 143.195312 286.386719 140.671875 286.386719 140.671875 C 286.386719 137.4375 286.96875 137.636719 285.546875 134.796875 C 285.546875 134.796875 281.347656 131.855469 281.347656 131.855469 C 281.347656 131.855469 279.667969 131.855469 279.667969 131.855469 C 279.667969 137.308594 274.699219 141.09375 269.589844 141.09375 C 269.589844 141.09375 267.910156 141.933594 267.910156 141.933594 C 260.183594 141.933594 252.21875 146.132812 244.394531 146.132812 C 244.394531 146.132812 243.554688 146.972656 243.554688 146.972656 C 240.886719 146.972656 242.648438 147.8125 244.394531 147.8125 C 244.394531 147.8125 250.273438 147.8125 250.273438 147.8125 C 250.273438 147.8125 251.953125 147.8125 251.953125 147.8125 C 261.15625 147.8125 270.429688 144.5625 270.429688 154.109375 C 270.429688 154.109375 272.109375 157.050781 272.109375 157.050781 C 272.109375 157.050781 272.949219 157.890625 272.949219 157.890625 C 272.949219 157.890625 276.726562 162.089844 276.726562 162.089844 C 276.726562 162.089844 281.347656 164.609375 281.347656 164.609375 C 281.347656 164.609375 282.1875 164.609375 282.1875 164.609375 Z M 282.1875 164.609375 "/>
<path style=" stroke:none;fill-rule:nonzero;fill:rgb(0.784314%,17.254902%,100%);fill-opacity:1;" d="M 204.082031 136.054688 L 203.242188 137.734375 C 203.242188 137.734375 204.082031 136.054688 204.082031 136.054688 Z M 204.082031 136.054688 "/>
<path style=" stroke:none;fill-rule:nonzero;fill:rgb(50.588238%,30.980393%,100%);fill-opacity:1;" d="M 90.703125 231.796875 L 95.742188 232.636719 C 96.601562 232.636719 106.890625 229.238281 107.5 228.015625 C 107.5 228.015625 107.5 222.558594 107.5 222.558594 C 107.5 220.089844 103.691406 217.882812 102.460938 215.421875 C 101.878906 214.253906 102.460938 209.484375 102.460938 207.441406 C 100.683594 207.441406 101.769531 204.082031 103.300781 204.082031 C 103.300781 200.363281 104.980469 198.558594 104.980469 195.683594 C 104.980469 194.804688 104.582031 193.164062 105.820312 193.164062 C 105.820312 193.164062 106.660156 188.964844 106.660156 188.964844 C 106.660156 188.964844 107.5 188.125 107.5 188.125 C 107.5 188.125 107.5 187.285156 107.5 187.285156 C 107.5 183.414062 106.34375 184.554688 104.980469 181.828125 C 104.980469 181.828125 105.820312 176.789062 105.820312 176.789062 C 105.820312 176.789062 101.621094 174.265625 101.621094 174.265625 C 101.621094 174.265625 101.621094 168.390625 101.621094 168.390625 C 101.621094 168.390625 103.300781 167.546875 103.300781 167.546875 C 103.300781 166.289062 100.757812 165.078125 101.621094 163.351562 C 102.175781 162.242188 107.484375 164.21875 108.339844 162.507812 C 108.914062 161.359375 106.140625 156.160156 109.601562 157.890625 C 109.601562 157.890625 110.859375 159.570312 110.859375 159.570312 C 110.859375 159.570312 115.898438 155.789062 115.898438 155.789062 C 116.222656 155.140625 113.589844 152.011719 115.898438 152.011719 C 115.898438 152.011719 115.898438 150.332031 115.898438 150.332031 C 115.898438 150.332031 115.898438 149.492188 115.898438 149.492188 C 115.898438 148.613281 115.5 146.972656 116.738281 146.972656 C 116.738281 146.972656 115.898438 145.292969 115.898438 145.292969 C 115.898438 145.292969 115.898438 143.613281 115.898438 143.613281 C 115.898438 143.613281 115.058594 142.773438 115.058594 142.773438 C 115.058594 142.773438 113.378906 142.773438 113.378906 142.773438 C 113.378906 145.042969 109.261719 146.300781 107.921875 146.972656 C 105.878906 147.992188 103.78125 152.820312 103.71875 152.851562 C 101.519531 153.953125 95.742188 156.207031 95.742188 159.570312 C 95.742188 159.570312 94.902344 160.410156 94.902344 160.410156 C 94.902344 164.476562 89.863281 166.058594 89.863281 169.226562 C 89.863281 169.226562 91.542969 170.90625 91.542969 170.90625 C 91.542969 170.90625 89.023438 173.429688 89.023438 173.429688 C 86.550781 178.375 85.617188 182.761719 83.144531 187.703125 C 81.851562 190.289062 84.273438 193.007812 83.144531 195.265625 C 78.535156 204.484375 82.304688 211.746094 82.304688 221.71875 C 83.300781 221.71875 83.300781 222.558594 82.304688 222.558594 C 82.304688 225.230469 90.703125 228.140625 90.703125 231.796875 Z M 90.703125 231.796875 "/>
<path style=" stroke:none;fill-rule:nonzero;fill:rgb(50.588238%,30.980393%,100%);fill-opacity:1;" d="M 307.382812 221.71875 C 307.382812 225.359375 311.78125 227.90625 314.523438 229.277344 L 314.523438 230.957031 L 320.820312 230.117188 C 320.820312 224.703125 327.539062 226.136719 327.539062 219.199219 C 326.363281 219.199219 326.363281 217.519531 327.539062 217.519531 C 327.539062 217.519531 328.378906 215.839844 328.378906 215.839844 C 328.378906 212.269531 329.21875 209.027344 329.21875 206.601562 C 328.222656 206.601562 328.222656 205.761719 329.21875 205.761719 C 329.21875 198.261719 330.046875 193.5625 326.699219 186.867188 C 326.699219 186.867188 326.699219 182.664062 326.699219 182.664062 C 324.535156 178.339844 320.820312 172.179688 320.820312 167.128906 C 320.820312 167.128906 320.820312 165.449219 320.820312 165.449219 C 318.960938 165.449219 319.542969 163.769531 318.300781 163.769531 C 318.300781 163.769531 317.460938 162.929688 317.460938 162.929688 C 317.460938 161.617188 316.621094 159.675781 316.621094 157.890625 C 316.621094 157.890625 315.78125 157.050781 315.78125 157.050781 C 311.757812 157.050781 311.71875 150.332031 309.0625 150.332031 C 309.0625 150.332031 308.222656 149.492188 308.222656 149.492188 C 308.222656 148.84375 303.128906 144.453125 302.34375 144.453125 C 300.679688 144.453125 295.625 141.65625 295.625 145.292969 C 295.625 145.292969 293.945312 147.390625 293.945312 147.390625 C 293.945312 149.511719 295.625 154.183594 295.625 156.210938 C 295.625 156.210938 295.625 158.730469 295.625 158.730469 C 295.625 158.730469 298.144531 158.730469 298.144531 158.730469 C 298.144531 157.195312 303.964844 155.550781 305.28125 156.210938 C 305.96875 156.554688 309.0625 163.902344 309.0625 164.1875 C 309.0625 164.1875 305.703125 169.226562 305.703125 169.226562 C 303.933594 172.765625 309.0625 172.542969 309.0625 173.429688 C 309.0625 173.429688 304.863281 177.625 304.863281 177.625 C 302.996094 181.363281 304.023438 183.96875 304.023438 188.125 C 304.023438 188.125 308.222656 193.585938 308.222656 193.585938 C 310.242188 197.625 310.933594 216.679688 306.542969 216.679688 C 306.542969 216.679688 306.542969 219.199219 306.542969 219.199219 C 306.542969 219.199219 306.542969 220.039062 306.542969 220.039062 C 306.542969 220.039062 307.382812 220.878906 307.382812 220.878906 C 307.382812 220.878906 307.382812 221.71875 307.382812 221.71875 Z M 307.382812 221.71875 "/>
<path style=" stroke:none;fill-rule:nonzero;fill:rgb(0.784314%,17.254902%,100%);fill-opacity:1;" d="M 250.273438 148.652344 L 244.394531 150.332031 C 244.394531 150.332031 244.394531 147.8125 244.394531 147.8125 C 244.394531 147.8125 250.273438 147.8125 250.273438 147.8125 C 250.273438 147.8125 250.273438 148.652344 250.273438 148.652344 Z M 250.273438 148.652344 "/>
<path style=" stroke:none;fill-rule:evenodd;fill:rgb(0%,39.215687%,0%);fill-opacity:1;" d="M 183.925781 217.519531 L 182.246094 222.140625 C 181.308594 224.011719 184.144531 224.238281 185.1875 224.238281 C 187.257812 224.238281 187.285156 217.519531 183.925781 217.519531 M 224.238281 215.839844 C 224.238281 216.179688 221.71875 218.589844 221.71875 222.558594 L 222.976562 224.238281 C 227.324219 224.238281 225.46875 215.839844 224.238281 215.839844 M 208.28125 241.875 C 215.347656 241.875 223.648438 241.875 230.117188 241.875 C 230.117188 239.558594 240.324219 235.300781 242.296875 234.316406 C 243.3125 233.804688 246.40625 236.039062 248.171875 235.15625 C 252.28125 233.101562 249.886719 229.277344 251.953125 229.277344 C 254.664062 229.277344 252.988281 225.949219 253.632812 224.65625 C 254.589844 222.746094 256.8125 223.277344 258.25 222.558594 C 259.417969 221.976562 258.058594 219.199219 260.351562 219.199219 C 260.351562 219.199219 261.191406 219.199219 261.191406 219.199219 C 261.191406 219.199219 264.96875 215.839844 264.96875 215.839844 C 273.09375 211.777344 280.785156 205.625 284.707031 197.78125 C 284.707031 197.78125 287.226562 194.84375 287.226562 194.84375 C 285.339844 194.84375 287.296875 191.484375 288.066406 191.484375 C 288.066406 191.484375 288.066406 189.804688 288.066406 189.804688 C 288.066406 189.804688 288.90625 188.125 288.90625 188.125 C 291.15625 188.125 289.746094 186.378906 289.746094 185.605469 C 285.03125 185.605469 290.867188 178.191406 289.746094 175.945312 C 289.746094 175.945312 286.386719 174.265625 286.386719 174.265625 C 286.386719 174.265625 287.226562 171.328125 287.226562 171.328125 C 287.226562 167.398438 279.667969 168.828125 279.667969 167.546875 C 279.667969 167.546875 281.347656 165.449219 281.347656 165.449219 C 281.347656 165.449219 281.347656 164.609375 281.347656 164.609375 C 281.347656 164.609375 276.726562 162.089844 276.726562 162.089844 C 276.726562 162.089844 272.949219 157.890625 272.949219 157.890625 C 272.949219 157.890625 272.109375 157.050781 272.109375 157.050781 C 272.109375 157.050781 270.429688 154.109375 270.429688 154.109375 C 270.429688 144.5625 261.15625 147.8125 251.953125 147.8125 C 251.953125 147.8125 250.273438 148.652344 250.273438 148.652344 C 250.273438 148.652344 244.394531 150.332031 244.394531 150.332031 C 244.394531 150.332031 243.554688 151.171875 243.554688 151.171875 C 243.554688 151.171875 242.714844 152.011719 242.714844 152.011719 C 242.714844 152.011719 240.195312 154.53125 240.195312 154.53125 C 240.195312 154.53125 239.355469 155.371094 239.355469 155.371094 C 238.171875 155.371094 235.15625 156.375 235.15625 157.890625 C 235.15625 157.890625 234.316406 158.730469 234.316406 158.730469 C 234.316406 158.730469 233.476562 159.570312 233.476562 159.570312 C 233.476562 159.570312 230.957031 160.410156 230.957031 160.410156 C 230.957031 160.410156 229.277344 161.25 229.277344 161.25 C 229.277344 161.25 227.597656 162.089844 227.597656 162.089844 C 227.597656 162.089844 225.917969 162.089844 225.917969 162.089844 C 225.917969 162.089844 225.917969 162.929688 225.917969 162.929688 C 229.246094 162.929688 224.570312 166.753906 223.820312 167.128906 C 222.695312 167.691406 209.121094 165.441406 209.121094 161.25 C 205.054688 161.25 206.8125 169.542969 201.984375 167.128906 C 201.574219 166.925781 201.359375 161.25 199.042969 161.25 C 199.042969 161.25 198.203125 161.25 198.203125 161.25 C 198.203125 161.25 197.363281 161.25 197.363281 161.25 C 197.363281 161.25 198.203125 163.769531 198.203125 163.769531 C 198.203125 169.59375 191.792969 165.503906 190.226562 166.289062 C 190.054688 166.375 182.246094 171.050781 182.246094 168.390625 C 182.246094 167.230469 183.085938 164.503906 183.085938 162.929688 C 178.753906 162.929688 175.277344 162.175781 171.75 160.410156 C 171.75 160.410156 171.75 158.730469 171.75 158.730469 C 171.75 158.730469 168.390625 158.730469 168.390625 158.730469 C 166.453125 157.761719 168.351562 154.53125 164.609375 154.53125 C 164.609375 154.53125 162.929688 152.851562 162.929688 152.851562 C 159.9375 152.851562 160.410156 152.339844 160.410156 150.332031 C 154.761719 150.332031 147.890625 149.664062 143.195312 152.011719 C 140.644531 153.285156 136.078125 168.808594 131.855469 168.808594 C 131.855469 168.808594 130.175781 169.648438 130.175781 169.648438 C 130.175781 171.59375 126.597656 172.167969 125.136719 172.167969 C 125.136719 172.167969 123.457031 173.847656 123.457031 173.847656 C 123.457031 173.847656 122.617188 174.6875 122.617188 174.6875 C 120.351562 174.6875 120.9375 178.261719 120.9375 179.726562 C 122.113281 179.726562 122.113281 181.40625 120.9375 181.40625 C 120.9375 185.882812 123.457031 188.664062 123.457031 192.324219 C 123.457031 192.324219 124.296875 193.164062 124.296875 193.164062 C 124.296875 199.414062 128.125 207.046875 135.632812 210.800781 C 136.097656 211.03125 142.773438 216.886719 142.773438 215 C 142.773438 213.375 145.292969 214.019531 145.292969 215.839844 C 145.292969 217.847656 157.050781 224.859375 157.050781 229.277344 C 161.464844 229.277344 168.21875 236.75 173.429688 239.355469 C 174.472656 239.878906 179.726562 240.730469 179.726562 241.875 C 186.363281 241.875 193.5 242.714844 199.882812 242.714844 C 199.882812 241.390625 201.363281 241.035156 202.402344 241.035156 C 202.402344 237.363281 207.441406 237.363281 207.441406 241.035156 C 207.441406 241.035156 208.28125 241.875 208.28125 241.875 Z M 208.28125 241.875 "/>
<path style=" stroke:none;fill-rule:nonzero;fill:rgb(0.784314%,17.254902%,100%);fill-opacity:1;" d="M 162.929688 151.171875 L 162.929688 152.851562 C 159.9375 152.851562 160.410156 152.339844 160.410156 150.332031 C 160.410156 150.332031 162.089844 150.332031 162.089844 150.332031 C 162.089844 150.332031 162.929688 151.171875 162.929688 151.171875 Z M 162.929688 151.171875 "/>
<path style=" stroke:none;fill-rule:nonzero;fill:rgb(0.784314%,17.254902%,100%);fill-opacity:1;" d="M 211.640625 161.25 C 211.640625 160.253906 212.480469 160.253906 212.480469 161.25 C 212.480469 161.25 215.839844 160.410156 215.839844 160.410156 C 215.839844 160.410156 215.839844 159.570312 215.839844 159.570312 C 214.601562 159.570312 208.339844 159.390625 207.023438 158.730469 C 207.023438 158.730469 203.664062 154.53125 203.664062 154.53125 C 203.082031 154.242188 199.042969 159.417969 199.042969 160.410156 C 199.042969 160.410156 199.042969 161.25 199.042969 161.25 C 201.359375 161.25 201.574219 166.925781 201.984375 167.128906 C 206.8125 169.542969 205.054688 161.25 209.121094 161.25 C 209.121094 160.253906 209.960938 160.253906 209.960938 161.25 C 209.960938 161.25 211.640625 161.25 211.640625 161.25 Z M 211.640625 161.25 "/>
<path style=" stroke:none;fill-rule:evenodd;fill:rgb(100%,20.392157%,15.294118%);fill-opacity:1;" d="M 283.867188 226.757812 L 279.25 231.796875 C 272.703125 231.796875 267.738281 246.324219 255.3125 233.898438 C 254.078125 232.664062 251.953125 231.6875 251.953125 229.277344 C 254.664062 229.277344 252.988281 225.949219 253.632812 224.65625 C 254.589844 222.746094 256.8125 223.277344 258.25 222.558594 C 259.417969 221.976562 258.058594 219.199219 260.351562 219.199219 C 260.351562 220.195312 261.191406 220.195312 261.191406 219.199219 C 261.191406 219.199219 264.96875 215.839844 264.96875 215.839844 C 273.09375 211.777344 280.785156 205.625 284.707031 197.78125 C 284.707031 197.78125 287.226562 194.84375 287.226562 194.84375 C 288.550781 194.84375 288.066406 192.445312 288.066406 191.484375 C 288.066406 191.484375 288.066406 189.804688 288.066406 189.804688 C 288.066406 189.804688 288.90625 188.125 288.90625 188.125 C 291.15625 188.125 289.746094 186.378906 289.746094 185.605469 C 289.746094 182.277344 292.789062 171.328125 287.226562 171.328125 C 287.226562 167.398438 279.667969 168.828125 279.667969 167.546875 C 279.667969 167.546875 281.347656 165.449219 281.347656 165.449219 C 281.347656 165.449219 282.1875 164.609375 282.1875 164.609375 C 282.1875 164.609375 288.066406 165.449219 288.066406 165.449219 C 292.089844 165.449219 298.144531 163.71875 298.144531 158.730469 C 298.144531 157.195312 303.964844 155.550781 305.28125 156.210938 C 305.96875 156.554688 309.0625 163.902344 309.0625 164.1875 C 309.0625 164.1875 305.703125 169.226562 305.703125 169.226562 C 303.933594 172.765625 309.0625 172.542969 309.0625 173.429688 C 309.0625 173.429688 304.863281 177.625 304.863281 177.625 C 302.996094 181.363281 304.023438 183.96875 304.023438 188.125 C 304.023438 188.125 301.503906 190.644531 301.503906 190.644531 C 301.503906 190.644531 300.664062 191.484375 300.664062 191.484375 C 299.667969 191.484375 299.667969 192.324219 300.664062 192.324219 C 300.664062 196.789062 298.144531 195.386719 298.144531 199.882812 C 298.144531 199.882812 296.464844 201.5625 296.464844 201.5625 C 296.464844 203.847656 294.785156 204.546875 294.785156 206.601562 C 294.785156 206.601562 293.945312 207.441406 293.945312 207.441406 C 293.945312 207.441406 293.945312 210.800781 293.945312 210.800781 C 293.945312 210.800781 293.945312 211.640625 293.945312 211.640625 C 293.945312 211.640625 293.105469 213.320312 293.105469 213.320312 C 293.105469 213.320312 293.105469 214.160156 293.105469 214.160156 C 293.105469 214.160156 291.425781 215.839844 291.425781 215.839844 C 291.425781 215.839844 290.585938 217.519531 290.585938 217.519531 C 290.585938 215.761719 288.90625 216.972656 288.90625 218.359375 C 288.90625 218.359375 288.90625 219.199219 288.90625 219.199219 C 288.042969 219.199219 285.546875 223.117188 285.546875 224.238281 C 285.546875 224.238281 284.707031 225.917969 284.707031 225.917969 C 284.707031 225.917969 283.867188 226.757812 283.867188 226.757812 M 262.871094 223.398438 C 267.660156 223.398438 273.511719 217.519531 280.085938 217.519531 C 283.550781 217.519531 279.945312 224.941406 279.667969 225.5 C 277.492188 229.847656 269.5625 232.441406 265.8125 234.316406 C 262.605469 235.917969 255.753906 233.015625 257.832031 228.859375 C 258.695312 227.132812 262.03125 227.171875 262.03125 224.238281 C 262.03125 224.238281 262.871094 223.398438 262.871094 223.398438 Z M 262.871094 223.398438 "/>
<path style=" stroke:none;fill-rule:evenodd;fill:rgb(100%,20.392157%,15.294118%);fill-opacity:1;" d="M 137.734375 221.71875 C 137.734375 223.253906 128.378906 221.902344 131.015625 227.179688 C 133.179688 231.503906 139.042969 236.835938 144.03125 236.835938 C 149.507812 236.835938 153.613281 229.027344 147.390625 225.917969 C 143.984375 224.214844 141.878906 221.71875 137.734375 221.71875 M 123.457031 226.757812 C 124.253906 226.757812 138.335938 239.445312 141.515625 241.035156 C 147.390625 243.972656 150.355469 235.996094 152.429688 235.996094 C 153.785156 235.996094 157.050781 231.839844 157.050781 229.277344 C 157.050781 224.859375 145.292969 217.847656 145.292969 215.839844 C 145.292969 215.839844 142.773438 215 142.773438 215 C 142.773438 216.886719 136.097656 211.03125 135.632812 210.800781 C 128.125 207.046875 124.296875 199.414062 124.296875 193.164062 C 124.296875 193.164062 123.457031 192.324219 123.457031 192.324219 C 123.457031 188.664062 120.9375 185.882812 120.9375 181.40625 C 120.9375 181.40625 120.9375 179.726562 120.9375 179.726562 C 120.9375 178.261719 120.351562 174.6875 122.617188 174.6875 C 122.617188 174.6875 123.457031 173.847656 123.457031 173.847656 C 123.457031 173.847656 125.136719 172.167969 125.136719 172.167969 C 125.136719 172.167969 125.136719 170.488281 125.136719 170.488281 C 121.96875 170.488281 116.738281 168.820312 116.738281 165.449219 C 116.738281 161.695312 110.859375 161.945312 110.859375 159.570312 C 110.859375 159.570312 109.601562 157.890625 109.601562 157.890625 C 106.140625 156.160156 108.914062 161.359375 108.339844 162.507812 C 107.484375 164.21875 102.175781 162.242188 101.621094 163.351562 C 100.757812 165.078125 103.300781 166.289062 103.300781 167.546875 C 103.300781 167.546875 101.621094 168.390625 101.621094 168.390625 C 101.621094 168.390625 101.621094 174.265625 101.621094 174.265625 C 101.621094 174.265625 105.820312 176.789062 105.820312 176.789062 C 105.820312 176.789062 104.980469 181.828125 104.980469 181.828125 C 106.34375 184.554688 107.5 183.414062 107.5 187.285156 C 109.878906 187.285156 117.578125 209.351562 117.578125 213.320312 C 117.578125 213.320312 119.257812 216.679688 119.257812 216.679688 C 119.273438 216.679688 122.617188 224.476562 122.617188 225.078125 C 122.617188 225.078125 123.457031 225.917969 123.457031 225.917969 C 123.457031 225.917969 123.457031 226.757812 123.457031 226.757812 Z M 123.457031 226.757812 "/>
<path style=" stroke:none;fill-rule:nonzero;fill:rgb(93.333334%,45.882353%,20%);fill-opacity:1;" d="M 293.945312 159.570312 C 291.652344 159.570312 293.011719 162.347656 291.84375 162.929688 L 288.066406 165.449219 C 292.089844 165.449219 298.144531 163.71875 298.144531 158.730469 C 298.144531 158.730469 295.625 158.730469 295.625 158.730469 C 295.625 158.730469 294.785156 158.730469 294.785156 158.730469 C 294.785156 158.730469 293.945312 159.570312 293.945312 159.570312 Z M 293.945312 159.570312 "/>
<path style=" stroke:none;fill-rule:nonzero;fill:rgb(0%,39.215687%,0%);fill-opacity:1;" d="M 209.121094 161.25 L 209.960938 161.25 C 209.960938 160.253906 209.121094 160.253906 209.121094 161.25 Z M 209.121094 161.25 "/>
<path style=" stroke:none;fill-rule:nonzero;fill:rgb(0%,39.215687%,0%);fill-opacity:1;" d="M 211.640625 161.25 L 212.480469 161.25 C 212.480469 160.253906 211.640625 160.253906 211.640625 161.25 Z M 211.640625 161.25 "/>
<path style=" stroke:none;fill-rule:nonzero;fill:rgb(100%,98.823529%,0%);fill-opacity:1;" d="M 225.078125 162.089844 L 225.917969 162.929688 C 229.246094 162.929688 224.570312 166.753906 223.820312 167.128906 C 222.695312 167.691406 209.121094 165.441406 209.121094 161.25 C 209.121094 161.25 209.960938 161.25 209.960938 161.25 C 209.960938 161.25 211.640625 161.25 211.640625 161.25 C 211.640625 161.25 212.480469 161.25 212.480469 161.25 C 212.480469 161.25 215.839844 160.410156 215.839844 160.410156 C 218.769531 160.410156 220.308594 162.089844 223.398438 162.089844 C 223.398438 162.089844 225.078125 162.089844 225.078125 162.089844 Z M 225.078125 162.089844 "/>
<path style=" stroke:none;fill-rule:nonzero;fill:rgb(100%,98.823529%,0%);fill-opacity:1;" d="M 197.363281 161.25 L 183.085938 162.929688 C 183.085938 164.503906 182.246094 167.230469 182.246094 168.390625 C 182.246094 171.050781 190.054688 166.375 190.226562 166.289062 C 191.792969 165.503906 198.203125 169.59375 198.203125 163.769531 C 198.203125 163.769531 197.363281 161.25 197.363281 161.25 Z M 197.363281 161.25 "/>
<path style=" stroke:none;fill-rule:nonzero;fill:rgb(93.333334%,45.882353%,20%);fill-opacity:1;" d="M 125.976562 167.96875 L 125.136719 170.488281 C 121.96875 170.488281 116.738281 168.820312 116.738281 165.449219 C 118.164062 165.449219 118.417969 163.683594 118.417969 162.089844 C 118.417969 162.089844 119.257812 162.089844 119.257812 162.089844 C 119.257812 163.570312 120.585938 162.542969 121.359375 162.929688 C 121.359375 162.929688 125.976562 167.96875 125.976562 167.96875 Z M 125.976562 167.96875 "/>
<path style=" stroke:none;fill-rule:nonzero;fill:rgb(100%,56.862748%,72.941178%);fill-opacity:1;" d="M 123.457031 225.917969 L 123.457031 226.757812 C 120.757812 226.757812 121.351562 232.214844 117.15625 230.117188 C 115.621094 229.347656 107.574219 222.558594 107.5 222.558594 C 107.5 220.089844 103.691406 217.882812 102.460938 215.421875 C 101.878906 214.253906 102.460938 209.484375 102.460938 207.441406 C 103.785156 207.441406 103.300781 205.042969 103.300781 204.082031 C 103.300781 200.363281 104.980469 198.558594 104.980469 195.683594 C 106.113281 195.683594 107.679688 193.164062 105.820312 193.164062 C 105.820312 193.164062 106.660156 188.964844 106.660156 188.964844 C 106.660156 188.964844 107.5 188.125 107.5 188.125 C 107.5 188.125 107.5 187.285156 107.5 187.285156 C 109.878906 187.285156 117.578125 209.351562 117.578125 213.320312 C 117.578125 214.550781 117.488281 216.679688 119.257812 216.679688 C 119.273438 216.679688 122.617188 224.476562 122.617188 225.078125 C 122.617188 225.078125 123.457031 225.917969 123.457031 225.917969 Z M 123.457031 225.917969 "/>
<path style=" stroke:none;fill-rule:nonzero;fill:rgb(100%,56.862748%,72.941178%);fill-opacity:1;" d="M 284.707031 225.917969 L 286.386719 226.757812 C 291.898438 226.757812 299.113281 227.742188 304.445312 225.078125 C 304.445312 225.078125 307.382812 221.71875 307.382812 221.71875 C 307.382812 221.71875 307.382812 220.878906 307.382812 220.878906 C 307.382812 220.878906 306.542969 220.039062 306.542969 220.039062 C 306.542969 220.039062 306.542969 219.199219 306.542969 219.199219 C 305.488281 219.199219 304.070312 216.679688 306.542969 216.679688 C 310.933594 216.679688 310.242188 197.625 308.222656 193.585938 C 308.222656 193.585938 304.023438 188.125 304.023438 188.125 C 304.023438 188.125 301.503906 190.644531 301.503906 190.644531 C 301.503906 190.644531 300.664062 191.484375 300.664062 191.484375 C 300.664062 191.484375 300.664062 192.324219 300.664062 192.324219 C 300.664062 196.789062 298.144531 195.386719 298.144531 199.882812 C 298.144531 201.351562 297.933594 201.5625 296.464844 201.5625 C 296.464844 203.847656 294.785156 204.546875 294.785156 206.601562 C 294.785156 206.601562 293.945312 207.441406 293.945312 207.441406 C 293.945312 207.441406 293.945312 210.800781 293.945312 210.800781 C 294.941406 210.800781 294.941406 211.640625 293.945312 211.640625 C 293.945312 211.640625 293.105469 213.320312 293.105469 213.320312 C 293.105469 213.320312 293.105469 214.160156 293.105469 214.160156 C 293.105469 215.628906 292.894531 215.839844 291.425781 215.839844 C 291.425781 215.839844 290.585938 217.519531 290.585938 217.519531 C 290.585938 217.519531 288.90625 218.359375 288.90625 218.359375 C 288.90625 218.359375 288.90625 219.199219 288.90625 219.199219 C 288.90625 221.425781 288.167969 224.238281 285.546875 224.238281 C 285.546875 224.238281 284.707031 225.917969 284.707031 225.917969 Z M 284.707031 225.917969 "/>
<path style=" stroke:none;fill-rule:nonzero;fill:rgb(93.333334%,72.941178%,0%);fill-opacity:1;" d="M 224.238281 215.839844 C 224.238281 216.179688 221.71875 218.589844 221.71875 222.558594 L 222.976562 224.238281 C 227.324219 224.238281 225.46875 215.839844 224.238281 215.839844 Z M 224.238281 215.839844 "/>
<path style=" stroke:none;fill-rule:nonzero;fill:rgb(93.333334%,72.941178%,0%);fill-opacity:1;" d="M 183.925781 217.519531 L 182.246094 222.140625 C 181.308594 224.011719 184.144531 224.238281 185.1875 224.238281 C 187.257812 224.238281 187.285156 217.519531 183.925781 217.519531 Z M 183.925781 217.519531 "/>
<path style=" stroke:none;fill-rule:nonzero;fill:rgb(10.196079%,90.588236%,100%);fill-opacity:1;" d="M 262.871094 223.398438 C 267.660156 223.398438 273.511719 217.519531 280.085938 217.519531 C 283.550781 217.519531 279.945312 224.941406 279.667969 225.5 C 277.492188 229.847656 269.5625 232.441406 265.8125 234.316406 C 262.605469 235.917969 255.753906 233.015625 257.832031 228.859375 C 258.695312 227.132812 262.03125 227.171875 262.03125 224.238281 C 262.03125 224.238281 262.871094 223.398438 262.871094 223.398438 Z M 262.871094 223.398438 "/>
<path style=" stroke:none;fill-rule:nonzero;fill:rgb(88.235295%,94.117647%,5.098039%);fill-opacity:1;" d="M 306.542969 220.039062 L 307.382812 220.878906 C 307.382812 220.878906 306.542969 220.039062 306.542969 220.039062 Z M 306.542969 220.039062 "/>
<path style=" stroke:none;fill-rule:nonzero;fill:rgb(1.176471%,75.686276%,17.647059%);fill-opacity:1;" d="M 82.304688 221.71875 C 83.300781 221.71875 83.300781 222.558594 82.304688 222.558594 C 82.304688 222.558594 82.304688 221.71875 82.304688 221.71875 Z M 82.304688 221.71875 "/>
<path style=" stroke:none;fill-rule:nonzero;fill:rgb(10.196079%,90.588236%,100%);fill-opacity:1;" d="M 137.734375 221.71875 C 137.734375 223.253906 128.378906 221.902344 131.015625 227.179688 C 133.179688 231.503906 139.042969 236.835938 144.03125 236.835938 C 149.507812 236.835938 153.613281 229.027344 147.390625 225.917969 C 143.984375 224.214844 141.878906 221.71875 137.734375 221.71875 Z M 137.734375 221.71875 "/>
<path style=" stroke:none;fill-rule:evenodd;fill:rgb(88.235295%,94.117647%,5.098039%);fill-opacity:1;" d="M 283.867188 241.035156 L 283.027344 243.132812 C 283.027344 250.925781 289.648438 241.035156 283.867188 241.035156 M 293.105469 294.785156 L 298.144531 294.785156 C 298.144531 294.785156 308.222656 275.046875 308.222656 275.046875 C 310.382812 270.730469 310.269531 265.078125 312.421875 260.773438 C 312.421875 260.773438 320.820312 247.335938 320.820312 247.335938 C 323.078125 242.820312 320.820312 234.542969 320.820312 230.117188 C 320.820312 230.117188 314.523438 230.957031 314.523438 230.957031 C 314.523438 230.957031 314.523438 229.277344 314.523438 229.277344 C 311.78125 227.90625 307.382812 225.359375 307.382812 221.71875 C 307.382812 221.71875 304.445312 225.078125 304.445312 225.078125 C 299.113281 227.742188 291.898438 226.757812 286.386719 226.757812 C 286.386719 228.75 284.46875 226.757812 283.867188 226.757812 C 283.867188 226.757812 279.25 231.796875 279.25 231.796875 C 272.703125 231.796875 267.738281 246.324219 255.3125 233.898438 C 254.078125 232.664062 251.953125 231.6875 251.953125 229.277344 C 249.886719 229.277344 252.28125 233.101562 248.171875 235.15625 C 246.40625 236.039062 243.3125 233.804688 242.296875 234.316406 C 240.324219 235.300781 230.117188 239.558594 230.117188 241.875 C 230.117188 241.875 233.476562 243.976562 233.476562 243.976562 C 234.382812 245.785156 230.957031 244.636719 230.957031 246.074219 C 233.613281 246.074219 235.996094 249.386719 235.996094 251.953125 C 237.730469 251.953125 236.355469 254.769531 236.835938 255.734375 C 239.6875 261.433594 243.554688 259.644531 243.554688 268.75 C 244.890625 268.75 244.765625 265.066406 245.234375 264.132812 C 245.234375 264.132812 252.375 257.832031 252.375 257.832031 C 252.375 257.832031 254.472656 258.671875 254.472656 258.671875 C 254.472656 258.671875 256.152344 256.992188 256.152344 256.992188 C 253.484375 256.992188 255.246094 256.152344 256.992188 256.152344 C 256.992188 256.152344 263.289062 250.273438 263.289062 250.273438 C 264.429688 249.703125 266.945312 251.777344 266.230469 253.210938 C 265.300781 255.066406 260.351562 265.6875 260.351562 267.910156 C 260.351562 271.109375 258.78125 275.265625 260.351562 278.40625 C 261.90625 281.515625 265.902344 280.273438 267.070312 282.609375 C 267.863281 284.191406 267.847656 286.144531 270.007812 287.226562 C 271.882812 288.164062 274.542969 286.386719 275.890625 286.386719 C 275.890625 286.386719 277.570312 289.746094 277.570312 289.746094 C 280.839844 291.382812 287.226562 289.5625 287.226562 294.785156 C 289.472656 294.785156 291.207031 294.785156 293.105469 294.785156 Z M 293.105469 294.785156 "/>
<path style=" stroke:none;fill-rule:evenodd;fill:rgb(88.235295%,94.117647%,5.098039%);fill-opacity:1;" d="M 124.296875 244.394531 L 124.296875 246.492188 C 124.296875 253.589844 128.398438 244.394531 124.296875 244.394531 M 151.171875 271.269531 C 151.171875 283.261719 132.808594 286.539062 124.71875 290.585938 C 123.199219 291.34375 118.144531 294.019531 116.320312 293.105469 C 114.6875 292.289062 115.046875 287.226562 112.539062 287.226562 C 112.539062 285.285156 102.246094 272.9375 100.78125 270.007812 C 100.78125 270.007812 96.582031 261.609375 96.582031 261.609375 C 96.582031 261.609375 97.421875 248.171875 97.421875 248.171875 C 94.507812 242.347656 92.382812 241.253906 92.382812 235.15625 C 92.382812 235.15625 95.742188 232.636719 95.742188 232.636719 C 96.601562 232.636719 106.890625 229.238281 107.5 228.015625 C 107.5 228.015625 107.5 222.558594 107.5 222.558594 C 107.574219 222.558594 115.621094 229.347656 117.15625 230.117188 C 121.351562 232.214844 120.757812 226.757812 123.457031 226.757812 C 124.253906 226.757812 138.335938 239.445312 141.515625 241.035156 C 147.390625 243.972656 150.355469 235.996094 152.429688 235.996094 C 153.785156 235.996094 157.050781 231.839844 157.050781 229.277344 C 161.464844 229.277344 168.21875 236.75 173.429688 239.355469 C 174.472656 239.878906 179.726562 240.730469 179.726562 241.875 C 173.96875 241.875 177.207031 245.230469 177.207031 246.074219 C 173.796875 246.074219 173.007812 250.085938 173.007812 252.792969 C 167.523438 252.792969 165.449219 264.648438 165.449219 267.910156 C 164.007812 267.910156 158.71875 259.921875 157.46875 258.671875 C 156.816406 258.015625 153.691406 256.898438 153.691406 258.671875 C 151.460938 258.671875 148.460938 251.953125 144.03125 251.953125 C 142.898438 251.953125 144.257812 257.023438 144.453125 257.414062 C 144.453125 257.414062 151.171875 271.269531 151.171875 271.269531 Z M 151.171875 271.269531 "/>
<path style=" stroke:none;fill-rule:nonzero;fill:rgb(88.235295%,94.117647%,5.098039%);fill-opacity:1;" d="M 122.617188 225.078125 L 123.457031 225.917969 C 123.457031 225.917969 122.617188 225.078125 122.617188 225.078125 Z M 122.617188 225.078125 "/>
<path style=" stroke:none;fill-rule:nonzero;fill:rgb(0.784314%,17.254902%,100%);fill-opacity:1;" d="M 205.761719 286.386719 C 205.761719 289.175781 203.242188 288.941406 203.242188 287.226562 C 203.242188 272.777344 202.402344 257.425781 202.402344 243.554688 C 202.402344 243.554688 202.402344 241.035156 202.402344 241.035156 C 202.402344 237.363281 207.441406 237.363281 207.441406 241.035156 C 207.441406 241.035156 206.601562 243.554688 206.601562 243.554688 C 205.105469 243.554688 205.761719 252.101562 205.761719 253.632812 C 205.761719 253.632812 205.761719 286.386719 205.761719 286.386719 Z M 205.761719 286.386719 "/>
<path style=" stroke:none;fill-rule:nonzero;fill:rgb(88.627452%,47.058824%,63.137257%);fill-opacity:1;" d="M 242.714844 271.269531 C 241.570312 271.269531 241.035156 276.652344 241.035156 276.726562 C 241.035156 277.710938 231.019531 286.566406 229.695312 287.226562 C 215.65625 294.246094 215.703125 286.386719 205.761719 286.386719 C 205.761719 286.386719 205.761719 253.632812 205.761719 253.632812 C 205.761719 252.101562 205.105469 243.554688 206.601562 243.554688 C 206.601562 243.554688 208.28125 241.875 208.28125 241.875 C 215.347656 241.875 223.648438 241.875 230.117188 241.875 C 230.117188 241.875 233.476562 243.976562 233.476562 243.976562 C 234.382812 245.785156 230.957031 244.636719 230.957031 246.074219 C 229.933594 246.074219 229.695312 249.007812 230.117188 249.851562 C 231.117188 251.851562 234.980469 251.953125 235.996094 251.953125 C 237.730469 251.953125 236.355469 254.769531 236.835938 255.734375 C 239.6875 261.433594 243.554688 259.644531 243.554688 268.75 C 243.554688 268.75 242.714844 271.269531 242.714844 271.269531 Z M 242.714844 271.269531 "/>
<path style=" stroke:none;fill-rule:nonzero;fill:rgb(67.843139%,100%,18.431373%);fill-opacity:1;" d="M 283.867188 241.035156 L 283.027344 243.132812 C 283.027344 250.925781 289.648438 241.035156 283.867188 241.035156 Z M 283.867188 241.035156 "/>
<path style=" stroke:none;fill-rule:nonzero;fill:rgb(88.627452%,47.058824%,63.137257%);fill-opacity:1;" d="M 166.289062 272.949219 C 169.082031 272.949219 168.140625 276.234375 168.808594 277.570312 L 178.886719 286.804688 L 179.304688 289.746094 C 188.378906 294.28125 194.589844 287.226562 203.242188 287.226562 C 203.242188 272.777344 202.402344 257.425781 202.402344 243.554688 C 202.402344 243.554688 199.882812 242.714844 199.882812 242.714844 C 193.5 242.714844 186.363281 241.875 179.726562 241.875 C 173.96875 241.875 177.207031 245.230469 177.207031 246.074219 C 177.207031 250.5 173.007812 260.003906 173.007812 252.792969 C 167.523438 252.792969 165.449219 264.648438 165.449219 267.910156 C 165.449219 267.910156 165.449219 268.75 165.449219 268.75 C 165.449219 268.75 166.289062 270.429688 166.289062 270.429688 C 166.289062 271.550781 166.289062 271.828125 166.289062 272.949219 Z M 166.289062 272.949219 "/>
<path style=" stroke:none;fill-rule:nonzero;fill:rgb(67.843139%,100%,18.431373%);fill-opacity:1;" d="M 124.296875 244.394531 L 124.296875 246.492188 C 124.296875 253.589844 128.398438 244.394531 124.296875 244.394531 Z M 124.296875 244.394531 "/>
<path style=" stroke:none;fill-rule:nonzero;fill:rgb(8.235294%,75.294119%,100%);fill-opacity:1;" d="M 177.207031 246.074219 C 173.796875 246.074219 173.007812 250.085938 173.007812 252.792969 C 173.007812 260.003906 177.207031 250.5 177.207031 246.074219 Z M 177.207031 246.074219 "/>
<path style=" stroke:none;fill-rule:nonzero;fill:rgb(8.235294%,75.294119%,100%);fill-opacity:1;" d="M 230.957031 246.074219 C 233.613281 246.074219 235.996094 249.386719 235.996094 251.953125 C 234.980469 251.953125 231.117188 251.851562 230.117188 249.851562 C 229.695312 249.007812 229.933594 246.074219 230.957031 246.074219 Z M 230.957031 246.074219 "/>
<path style=" stroke:none;fill-rule:nonzero;fill:rgb(14.901961%,49.411765%,100%);fill-opacity:1;" d="M 260.351562 267.910156 C 258.371094 267.910156 256.46875 272.160156 254.890625 272.949219 C 253.308594 273.742188 247.753906 272.171875 247.753906 270.429688 C 247.753906 268.210938 254.472656 260.570312 254.472656 258.671875 C 254.472656 258.671875 256.152344 256.992188 256.152344 256.992188 C 256.152344 256.992188 256.992188 256.152344 256.992188 256.152344 C 256.992188 256.152344 263.289062 250.273438 263.289062 250.273438 C 264.429688 249.703125 266.945312 251.777344 266.230469 253.210938 C 265.300781 255.066406 260.351562 265.6875 260.351562 267.910156 Z M 260.351562 267.910156 "/>
<path style=" stroke:none;fill-rule:nonzero;fill:rgb(14.901961%,49.411765%,100%);fill-opacity:1;" d="M 151.171875 271.269531 C 153.878906 271.269531 161.25 280.914062 161.25 272.949219 C 161.25 268.875 153.691406 261.726562 153.691406 258.671875 C 151.460938 258.671875 148.460938 251.953125 144.03125 251.953125 C 142.898438 251.953125 144.257812 257.023438 144.453125 257.414062 C 144.453125 257.414062 151.171875 271.269531 151.171875 271.269531 Z M 151.171875 271.269531 "/>
<path style=" stroke:none;fill-rule:nonzero;fill:rgb(98.039216%,66.666669%,25.098041%);fill-opacity:1;" d="M 256.992188 256.152344 C 255.246094 256.152344 253.484375 256.992188 256.152344 256.992188 C 256.152344 256.992188 256.992188 256.152344 256.992188 256.152344 Z M 256.992188 256.152344 "/>
<path style=" stroke:none;fill-rule:nonzero;fill:rgb(98.039216%,66.666669%,25.098041%);fill-opacity:1;" d="M 161.25 272.949219 C 162.871094 272.949219 164.480469 272.949219 166.289062 272.949219 C 166.289062 271.828125 166.289062 271.550781 166.289062 270.429688 C 166.289062 270.429688 165.449219 268.75 165.449219 268.75 C 165.449219 268.75 165.449219 267.910156 165.449219 267.910156 C 164.007812 267.910156 158.71875 259.921875 157.46875 258.671875 C 156.816406 258.015625 153.691406 256.898438 153.691406 258.671875 C 153.691406 261.726562 161.25 268.875 161.25 272.949219 Z M 161.25 272.949219 "/>
<path style=" stroke:none;fill-rule:nonzero;fill:rgb(98.039216%,66.666669%,25.098041%);fill-opacity:1;" d="M 247.753906 270.429688 C 247.335938 270.429688 242.714844 276.132812 242.714844 271.269531 C 242.714844 271.269531 243.554688 268.75 243.554688 268.75 C 244.890625 268.75 244.765625 265.066406 245.234375 264.132812 C 245.234375 264.132812 252.375 257.832031 252.375 257.832031 C 252.375 257.832031 254.472656 258.671875 254.472656 258.671875 C 254.472656 260.570312 247.753906 268.210938 247.753906 270.429688 Z M 247.753906 270.429688 "/>
<path style=" stroke:none;fill-rule:evenodd;fill:rgb(98.039216%,50.196081%,44.705883%);fill-opacity:1;" d="M 254.472656 298.984375 C 254.472656 303.613281 255.003906 298.984375 254.472656 298.984375 M 287.226562 294.785156 C 289.472656 294.785156 291.207031 294.785156 293.105469 294.785156 C 293.105469 297.230469 298.589844 296.488281 299.824219 297.726562 C 300.828125 298.730469 299.554688 299.480469 300.242188 299.824219 C 305.253906 302.332031 308.253906 303.664062 310.742188 308.640625 C 312.453125 312.066406 314.921875 330.699219 311.164062 332.578125 C 307.734375 334.292969 306.664062 328.949219 304.445312 330.058594 C 304.445312 330.058594 303.601562 335.097656 303.601562 335.097656 C 302.703125 335.097656 303.722656 328.378906 301.921875 328.378906 C 301.433594 328.378906 299.664062 329.320312 298.984375 327.960938 C 298.984375 327.960938 297.726562 325.019531 297.726562 325.019531 C 297.726562 325.019531 296.046875 328.378906 296.046875 328.378906 C 296.046875 328.378906 295.203125 322.5 295.203125 322.5 C 294.199219 321.996094 293.300781 323.226562 291.84375 322.5 C 291.84375 322.5 289.746094 316.203125 289.746094 316.203125 C 289.746094 316.203125 287.648438 315.78125 287.648438 315.78125 C 287.648438 315.78125 287.226562 312.84375 287.226562 312.84375 C 287.226562 312.84375 283.867188 310.320312 283.867188 310.320312 C 283.394531 309.378906 284.628906 304.613281 283.445312 304.023438 C 283.445312 304.023438 278.40625 307.382812 278.40625 307.382812 C 278.40625 307.382812 275.46875 306.960938 275.46875 306.960938 C 275.46875 312.363281 276.710938 313.691406 270.851562 316.621094 C 270.851562 316.621094 267.492188 320.820312 267.492188 320.820312 C 264.363281 322.382812 257.375 318.300781 255.734375 318.300781 C 254.046875 318.300781 251.726562 321.335938 249.015625 319.980469 C 246.757812 318.851562 243.800781 312.496094 242.714844 310.320312 C 242.714844 310.320312 242.714844 305.28125 242.714844 305.28125 C 241.832031 303.519531 237.300781 303.695312 235.996094 301.085938 C 233.1875 295.472656 253.941406 284.230469 254.890625 284.707031 C 257.160156 285.839844 260.382812 284.09375 263.289062 285.546875 C 263.289062 285.546875 270.851562 293.945312 270.851562 293.945312 C 270.851562 293.945312 280.085938 294.785156 280.085938 294.785156 C 283.410156 296.445312 281.703125 302.3125 283.445312 303.183594 C 287.199219 305.0625 287.226562 296.308594 287.226562 294.785156 Z M 287.226562 294.785156 "/>
<path style=" stroke:none;fill-rule:evenodd;fill:rgb(98.039216%,50.196081%,44.705883%);fill-opacity:1;" d="M 126.816406 304.023438 C 126.816406 307.484375 130.277344 304.023438 126.816406 304.023438 M 133.535156 298.984375 L 132.695312 300.664062 C 132.695312 306.625 137.953125 298.984375 133.535156 298.984375 M 111.699219 296.464844 C 111.699219 301.460938 110 297.765625 107.5 302.765625 L 107.5 309.484375 C 107 310.480469 104.1875 310.230469 103.300781 312 L 103.300781 317.882812 L 100.359375 317.460938 C 97.957031 318.664062 97 327.957031 98.261719 330.476562 C 99.425781 332.804688 110.101562 331.066406 112.117188 330.058594 C 117.699219 327.269531 114.578125 323.035156 116.738281 318.71875 C 117.667969 316.859375 127.023438 309.902344 128.914062 309.902344 C 131.882812 309.902344 134.992188 312.941406 137.3125 314.101562 C 138.914062 314.902344 140.804688 310.585938 141.933594 312.84375 C 143.058594 315.09375 139.515625 319.402344 144.03125 321.660156 C 149.167969 324.226562 152.53125 318.300781 155.789062 318.300781 L 158.3125 322.5 C 161.882812 324.285156 166.621094 321.417969 167.96875 318.71875 C 169.75 315.15625 162.300781 314.101562 163.769531 311.164062 C 164.210938 310.277344 169.042969 312.371094 170.488281 309.484375 L 169.648438 307.804688 C 168.929688 306.363281 172.1875 304.664062 169.226562 303.183594 C 168.15625 302.648438 163.878906 302.980469 163.769531 302.765625 C 162 299.226562 166.367188 292.933594 161.671875 290.585938 L 156.632812 289.746094 C 155.65625 289.257812 153.792969 286.125 151.59375 287.226562 C 148.488281 288.78125 144.4375 290.804688 143.195312 291.425781 L 140.671875 294.785156 L 138.992188 293.105469 C 137.925781 292.570312 135.375 293.945312 134.796875 293.945312 L 133.117188 296.464844 C 132.007812 297.019531 130.980469 296.113281 130.175781 297.726562 C 129.523438 299.027344 132.34375 301.46875 130.59375 302.34375 C 129.710938 302.789062 122.617188 301.066406 122.617188 298.5625 L 125.136719 298.5625 C 126.445312 295.945312 122.71875 297.144531 121.359375 296.464844 C 116.328125 293.949219 116.476562 296.464844 111.699219 296.464844 Z M 111.699219 296.464844 "/>
</g>
</svg>
