<?xml version="1.0" encoding="UTF-8"?>
<svg xmlns="http://www.w3.org/2000/svg" xmlns:xlink="http://www.w3.org/1999/xlink" width="430px" height="430px" viewBox="0 0 430 430" version="1.1">
<g id="surface1">
<rect x="0" y="0" width="430" height="430" style="fill:rgb(0%,0%,0%);fill-opacity:1;stroke:none;"/>
<path style=" stroke:none;fill-rule:nonzero;fill:rgb(100%,89.019608%,0%);fill-opacity:1;" d="M 236.835938 128.496094 C 247.652344 128.496094 248.90625 135.160156 255.734375 138.574219 C 258.210938 139.8125 256.125 146.132812 260.351562 146.132812 C 260.351562 140.609375 253.277344 131.046875 248.171875 128.496094 C 246.515625 127.667969 236.835938 126.105469 236.835938 128.496094 Z M 236.835938 128.496094 "/>
<path style=" stroke:none;fill-rule:nonzero;fill:rgb(100%,89.019608%,0%);fill-opacity:1;" d="M 236.835938 128.496094 L 235.15625 129.335938 C 235.15625 129.335938 236.835938 128.496094 236.835938 128.496094 Z M 236.835938 128.496094 "/>
<path style=" stroke:none;fill-rule:nonzero;fill:rgb(100%,52.941179%,0%);fill-opacity:1;" d="M 207.441406 159.570312 C 207.441406 165.804688 206.519531 173.261719 209.121094 178.46875 L 208.28125 194.421875 C 208.28125 203.550781 209.207031 213.914062 213.320312 222.140625 L 220.039062 228.015625 C 221.1875 230.316406 221.953125 232.125 224.65625 233.476562 L 230.957031 231.796875 C 230.957031 231.796875 233.898438 232.636719 233.898438 232.636719 C 234.894531 232.136719 245.410156 222.625 246.074219 221.296875 C 246.074219 221.296875 246.914062 216.257812 246.914062 216.257812 C 246.914062 216.257812 250.273438 212.898438 250.273438 212.898438 C 251.039062 211.367188 249.433594 209.695312 249.433594 208.703125 C 249.433594 208.703125 251.953125 205.34375 251.953125 205.34375 C 251.953125 205.34375 252.792969 197.78125 252.792969 197.78125 C 261.34375 180.679688 260.351562 165.691406 260.351562 146.132812 C 256.125 146.132812 258.210938 139.8125 255.734375 138.574219 C 248.90625 135.160156 247.652344 128.496094 236.835938 128.496094 C 236.835938 128.496094 235.15625 129.335938 235.15625 129.335938 C 235.15625 129.335938 234.316406 129.335938 234.316406 129.335938 C 234.316406 131.28125 230.738281 131.855469 229.277344 131.855469 C 229.277344 131.855469 228.4375 131.855469 228.4375 131.855469 C 228.4375 131.855469 227.597656 132.695312 227.597656 132.695312 C 227.597656 134.019531 226.117188 134.375 225.078125 134.375 C 225.078125 134.375 221.71875 136.054688 221.71875 136.054688 C 221.71875 137.90625 220.039062 139.898438 220.039062 141.933594 C 220.039062 147.988281 212.480469 149.128906 212.480469 153.691406 C 212.480469 155.308594 209.898438 157.890625 208.28125 157.890625 C 208.28125 157.890625 207.441406 159.570312 207.441406 159.570312 Z M 207.441406 159.570312 "/>
<path style=" stroke:none;fill-rule:nonzero;fill:rgb(100%,89.019608%,0%);fill-opacity:1;" d="M 234.316406 129.335938 C 232.636719 129.335938 229.277344 129.390625 229.277344 131.855469 C 230.738281 131.855469 234.316406 131.28125 234.316406 129.335938 Z M 234.316406 129.335938 "/>
<path style=" stroke:none;fill-rule:nonzero;fill:rgb(100%,52.941179%,0%);fill-opacity:1;" d="M 199.042969 151.171875 L 202.402344 158.3125 C 203.835938 161.175781 202.800781 171.792969 201.5625 174.265625 C 200.65625 176.082031 201.5625 181.660156 201.5625 182.664062 L 199.882812 184.34375 L 200.722656 186.023438 L 199.042969 190.226562 L 199.882812 194.421875 C 197.941406 198.308594 198.464844 203.136719 196.523438 207.023438 C 195.40625 209.257812 196.371094 217.402344 195.683594 218.78125 L 192.324219 221.296875 C 189.765625 226.417969 188.367188 230.957031 181.40625 230.957031 C 171.316406 230.957031 167.75 220.019531 163.769531 212.0625 C 159.164062 202.851562 157.402344 194.285156 152.851562 185.1875 C 150.972656 181.433594 152.09375 172.753906 150.332031 169.226562 C 149.300781 167.164062 148.265625 159.085938 149.492188 156.632812 C 150.84375 153.929688 152.851562 146.46875 152.851562 143.613281 C 152.851562 143.613281 153.691406 141.933594 153.691406 141.933594 C 155.222656 141.933594 160.410156 136.15625 160.410156 134.375 C 162.820312 134.375 166.226562 131.257812 168.390625 130.175781 C 170.863281 128.9375 184.839844 133.535156 188.125 133.535156 C 188.125 133.535156 188.964844 136.894531 188.964844 136.894531 C 188.964844 136.894531 188.964844 142.351562 188.964844 142.351562 C 188.964844 142.351562 199.042969 151.171875 199.042969 151.171875 Z M 199.042969 151.171875 "/>
<path style=" stroke:none;fill-rule:nonzero;fill:rgb(100%,89.019608%,0%);fill-opacity:1;" d="M 228.4375 131.855469 L 227.597656 132.695312 C 227.597656 132.695312 228.4375 131.855469 228.4375 131.855469 Z M 228.4375 131.855469 "/>
<path style=" stroke:none;fill-rule:nonzero;fill:rgb(100%,89.019608%,0%);fill-opacity:1;" d="M 227.597656 132.695312 C 226.558594 132.695312 225.078125 133.050781 225.078125 134.375 C 226.117188 134.375 227.597656 134.019531 227.597656 132.695312 Z M 227.597656 132.695312 "/>
<path style=" stroke:none;fill-rule:nonzero;fill:rgb(100%,89.019608%,0%);fill-opacity:1;" d="M 188.964844 136.894531 L 190.644531 136.894531 C 190.644531 135.695312 189.5625 133.535156 188.125 133.535156 C 188.125 133.535156 188.964844 136.894531 188.964844 136.894531 Z M 188.964844 136.894531 "/>
<path style=" stroke:none;fill-rule:nonzero;fill:rgb(100%,89.019608%,0%);fill-opacity:1;" d="M 160.410156 134.375 C 157.914062 134.375 153.691406 139.085938 153.691406 141.933594 C 155.222656 141.933594 160.410156 136.15625 160.410156 134.375 Z M 160.410156 134.375 "/>
<path style=" stroke:none;fill-rule:nonzero;fill:rgb(100%,89.019608%,0%);fill-opacity:1;" d="M 218.359375 140.253906 L 220.039062 141.933594 C 220.039062 139.898438 221.71875 137.90625 221.71875 136.054688 C 220.429688 136.054688 218.359375 139.207031 218.359375 140.253906 Z M 218.359375 140.253906 "/>
<path style=" stroke:none;fill-rule:nonzero;fill:rgb(5.882353%,42.745098%,90.196079%);fill-opacity:1;" d="M 199.042969 151.171875 L 200.722656 151.171875 C 200.722656 151.171875 201.5625 145.710938 201.5625 145.710938 C 199.40625 141.402344 195.972656 136.894531 190.644531 136.894531 C 190.644531 136.894531 188.964844 136.894531 188.964844 136.894531 C 188.964844 136.894531 188.964844 142.351562 188.964844 142.351562 C 188.964844 142.351562 199.042969 151.171875 199.042969 151.171875 Z M 199.042969 151.171875 "/>
<path style=" stroke:none;fill-rule:nonzero;fill:rgb(5.882353%,42.745098%,90.196079%);fill-opacity:1;" d="M 209.960938 153.691406 L 212.480469 153.691406 C 212.480469 149.128906 220.039062 147.988281 220.039062 141.933594 C 220.039062 141.933594 218.359375 140.253906 218.359375 140.253906 C 211.410156 140.253906 209.960938 148.109375 209.960938 153.691406 Z M 209.960938 153.691406 "/>
<path style=" stroke:none;fill-rule:nonzero;fill:rgb(100%,89.019608%,0%);fill-opacity:1;" d="M 153.691406 141.933594 L 152.851562 143.613281 C 152.851562 143.613281 153.691406 141.933594 153.691406 141.933594 Z M 153.691406 141.933594 "/>
<path style=" stroke:none;fill-rule:nonzero;fill:rgb(100%,89.019608%,0%);fill-opacity:1;" d="M 181.40625 230.957031 C 181.40625 236.117188 197.921875 233.617188 199.882812 229.695312 C 202.515625 224.429688 201.5625 218.316406 201.5625 212.898438 C 201.5625 212.199219 203.15625 208.449219 204.5 209.121094 C 208.515625 211.128906 206.503906 223.621094 207.441406 225.5 L 209.960938 229.695312 C 212.765625 235.304688 230.957031 239.769531 230.957031 231.796875 C 230.957031 231.796875 224.65625 233.476562 224.65625 233.476562 C 221.953125 232.125 221.1875 230.316406 220.039062 228.015625 C 220.039062 228.015625 213.320312 222.140625 213.320312 222.140625 C 209.207031 213.914062 208.28125 203.550781 208.28125 194.421875 C 208.28125 194.421875 209.121094 178.46875 209.121094 178.46875 C 206.519531 173.261719 207.441406 165.804688 207.441406 159.570312 C 203.195312 159.570312 204.21875 151.171875 200.722656 151.171875 C 200.722656 151.171875 199.042969 151.171875 199.042969 151.171875 C 199.042969 151.171875 202.402344 158.3125 202.402344 158.3125 C 203.835938 161.175781 202.800781 171.792969 201.5625 174.265625 C 200.65625 176.082031 201.5625 181.660156 201.5625 182.664062 C 201.5625 182.664062 199.882812 184.34375 199.882812 184.34375 C 199.882812 184.34375 200.722656 186.023438 200.722656 186.023438 C 200.722656 186.023438 199.042969 190.226562 199.042969 190.226562 C 199.042969 190.226562 199.882812 194.421875 199.882812 194.421875 C 197.941406 198.308594 198.464844 203.136719 196.523438 207.023438 C 195.40625 209.257812 196.371094 217.402344 195.683594 218.78125 C 195.683594 218.78125 192.324219 221.296875 192.324219 221.296875 C 189.765625 226.417969 188.367188 230.957031 181.40625 230.957031 Z M 181.40625 230.957031 "/>
<path style=" stroke:none;fill-rule:nonzero;fill:rgb(100%,89.019608%,0%);fill-opacity:1;" d="M 212.480469 153.691406 C 212.480469 155.308594 209.898438 157.890625 208.28125 157.890625 C 208.28125 157.890625 209.960938 153.691406 209.960938 153.691406 C 209.960938 153.691406 212.480469 153.691406 212.480469 153.691406 Z M 212.480469 153.691406 "/>
<path style=" stroke:none;fill-rule:nonzero;fill:rgb(100%,89.019608%,0%);fill-opacity:1;" d="M 208.28125 157.890625 L 207.441406 159.570312 C 207.441406 159.570312 208.28125 157.890625 208.28125 157.890625 Z M 208.28125 157.890625 "/>
<path style=" stroke:none;fill-rule:nonzero;fill:rgb(18.82353%,85.490197%,0%);fill-opacity:1;" d="M 278.828125 232.636719 C 278.828125 233.96875 267.519531 238.15625 270.429688 243.976562 L 271.6875 243.554688 L 272.53125 245.234375 C 277.328125 247.632812 286.246094 242.996094 288.484375 241.875 C 291.089844 240.574219 290.417969 232.636719 283.027344 232.636719 C 281.339844 232.636719 280.515625 232.636719 278.828125 232.636719 Z M 278.828125 232.636719 "/>
<path style=" stroke:none;fill-rule:nonzero;fill:rgb(98.039216%,50.196081%,44.705883%);fill-opacity:1;" d="M 157.890625 236.835938 C 157.890625 237.695312 159.566406 241.875 159.992188 241.875 C 160.773438 241.875 159.949219 236.835938 157.890625 236.835938 Z M 157.890625 236.835938 "/>
<path style=" stroke:none;fill-rule:nonzero;fill:rgb(18.82353%,85.490197%,0%);fill-opacity:1;" d="M 137.734375 238.515625 C 137.734375 239.480469 133.160156 239.753906 132.273438 240.195312 C 130.609375 241.027344 127.324219 247.507812 128.496094 249.851562 C 129.527344 251.921875 148.34375 251.953125 150.75 251.953125 L 151.171875 247.335938 C 152.390625 244.898438 146.761719 239.355469 143.613281 239.355469 C 141.421875 239.355469 139.488281 238.515625 137.734375 238.515625 Z M 137.734375 238.515625 "/>
<path style=" stroke:none;fill-rule:nonzero;fill:rgb(98.039216%,50.196081%,44.705883%);fill-opacity:1;" d="M 161.25 241.035156 C 161.25 244.179688 163.007812 241.035156 161.25 241.035156 Z M 161.25 241.035156 "/>
<path style=" stroke:none;fill-rule:nonzero;fill:rgb(98.039216%,50.196081%,44.705883%);fill-opacity:1;" d="M 240.195312 309.902344 C 240.195312 310.71875 236.652344 312.367188 235.996094 313.679688 L 235.996094 327.960938 C 237.414062 330.796875 240.179688 330.679688 242.296875 331.738281 L 242.714844 336.359375 C 244.15625 339.238281 246.339844 335.9375 248.171875 335.9375 L 252.375 337.617188 C 256.328125 335.640625 250.617188 330.859375 255.734375 333.417969 C 258.871094 334.984375 272.386719 330.191406 269.589844 324.601562 C 268.175781 321.773438 263.34375 317.90625 260.773438 316.621094 C 259.660156 316.066406 254.101562 317.976562 253.632812 317.039062 L 253.632812 313.679688 C 250.9375 308.289062 247.96875 311.582031 244.8125 311.582031 C 243.476562 311.582031 242.082031 309.902344 240.195312 309.902344 Z M 240.195312 309.902344 "/>
<path style=" stroke:none;fill-rule:nonzero;fill:rgb(98.039216%,50.196081%,44.705883%);fill-opacity:1;" d="M 168.808594 312.421875 C 168.808594 313.453125 162.460938 314.125 160.828125 314.941406 C 159.175781 315.769531 154.71875 322.195312 154.109375 322.5 C 151.484375 323.8125 147.09375 321 145.292969 324.601562 L 143.613281 330.476562 C 142.570312 332.566406 134.960938 332.488281 137.734375 338.039062 C 139.300781 341.167969 141.296875 337.507812 143.195312 338.457031 C 150.675781 342.199219 147.535156 327.609375 155.789062 331.738281 L 157.46875 333.417969 L 158.3125 331.738281 C 159.707031 331.039062 163.363281 333.417969 164.1875 333.417969 C 165.460938 333.417969 167.628906 338.835938 170.070312 337.617188 C 170.3125 337.496094 168.589844 333.417969 170.90625 333.417969 L 172.585938 336.777344 L 175.109375 334.257812 C 176.710938 333.457031 182.191406 335.40625 180.566406 332.15625 L 175.527344 329.640625 C 173.476562 325.535156 179.84375 312.421875 168.808594 312.421875 Z M 168.808594 312.421875 "/>
</g>
</svg>
