<?xml version="1.0" encoding="UTF-8"?>
<svg xmlns="http://www.w3.org/2000/svg" xmlns:xlink="http://www.w3.org/1999/xlink" width="430px" height="430px" viewBox="0 0 430 430" version="1.1">
<g id="surface1">
<rect x="0" y="0" width="430" height="430" style="fill:rgb(0%,0%,0%);fill-opacity:1;stroke:none;"/>
<path style=" stroke:none;fill-rule:evenodd;fill:rgb(100%,89.019608%,0%);fill-opacity:1;" d="M 188.125 141.933594 C 188.125 144.148438 185.714844 146.332031 184.765625 148.234375 C 183.578125 150.605469 185.625 155.992188 188.546875 154.53125 C 190.15625 153.726562 189.25 152.699219 189.804688 151.59375 L 193.164062 149.914062 C 195.023438 146.195312 192.636719 141.933594 188.125 141.933594 M 187.285156 136.894531 L 182.246094 142.351562 C 180.882812 145.082031 181.179688 146.171875 179.726562 149.070312 C 178.632812 151.257812 180.929688 151.476562 181.40625 152.429688 C 182.28125 154.1875 179.296875 164.195312 188.546875 159.570312 C 189.042969 159.320312 189.863281 156.574219 190.644531 155.789062 L 194.84375 154.109375 C 199.242188 145.3125 199.191406 136.894531 187.285156 136.894531 Z M 187.285156 136.894531 "/>
<path style=" stroke:none;fill-rule:evenodd;fill:rgb(100%,89.019608%,0%);fill-opacity:1;" d="M 218.359375 141.933594 C 218.359375 143.328125 214.019531 142.632812 213.320312 144.03125 C 212.15625 146.359375 215.863281 149.714844 217.101562 150.332031 C 217.144531 150.355469 215.269531 152.355469 217.9375 153.691406 C 225.9375 157.691406 222.753906 141.933594 218.359375 141.933594 M 218.359375 138.574219 C 218.359375 140.84375 213.605469 139.414062 212.898438 139.414062 C 211.238281 139.414062 211.207031 143.222656 210.800781 144.03125 L 209.121094 144.875 C 209.121094 147.890625 210.507812 147.644531 211.640625 149.914062 C 212.738281 152.105469 212.210938 153.347656 214.578125 154.53125 C 217.632812 156.058594 219.332031 159.570312 222.976562 159.570312 L 224.65625 157.890625 C 228.601562 155.917969 230.722656 152.804688 228.4375 148.234375 L 228.4375 143.195312 C 227.902344 142.121094 219.789062 138.574219 218.359375 138.574219 Z M 218.359375 138.574219 "/>
<path style=" stroke:none;fill-rule:nonzero;fill:rgb(100%,52.941179%,0%);fill-opacity:1;" d="M 188.125 141.933594 C 188.125 144.148438 185.714844 146.332031 184.765625 148.234375 C 183.578125 150.605469 185.625 155.992188 188.546875 154.53125 C 190.15625 153.726562 189.25 152.699219 189.804688 151.59375 L 193.164062 149.914062 C 195.023438 146.195312 192.636719 141.933594 188.125 141.933594 Z M 188.125 141.933594 "/>
<path style=" stroke:none;fill-rule:nonzero;fill:rgb(100%,52.941179%,0%);fill-opacity:1;" d="M 218.359375 141.933594 C 218.359375 143.328125 214.019531 142.632812 213.320312 144.03125 C 212.15625 146.359375 215.863281 149.714844 217.101562 150.332031 C 217.144531 150.355469 215.269531 152.355469 217.9375 153.691406 C 225.9375 157.691406 222.753906 141.933594 218.359375 141.933594 Z M 218.359375 141.933594 "/>
<path style=" stroke:none;fill-rule:nonzero;fill:rgb(98.039216%,50.196081%,44.705883%);fill-opacity:1;" d="M 275.46875 293.105469 L 274.628906 309.484375 C 273.433594 311.871094 269 309.824219 268.75 310.320312 C 267.648438 312.523438 271.269531 314.648438 271.269531 316.203125 L 268.75 320.398438 L 269.589844 323.757812 C 269.589844 330.175781 270.925781 332.578125 277.570312 332.578125 C 277.820312 332.578125 280.988281 335.9375 282.609375 335.9375 L 284.289062 334.257812 L 285.546875 334.679688 L 285.96875 329.21875 L 288.484375 331.738281 C 291.398438 333.195312 296.992188 328.179688 295.625 325.4375 C 291.109375 316.40625 289.226562 323.339844 285.96875 323.339844 L 285.546875 318.71875 L 283.867188 319.5625 C 281.558594 314.949219 284.414062 299.660156 282.1875 295.203125 L 276.726562 294.785156 Z M 275.46875 293.105469 "/>
<path style=" stroke:none;fill-rule:nonzero;fill:rgb(98.039216%,50.196081%,44.705883%);fill-opacity:1;" d="M 132.695312 294.785156 C 132.695312 296.144531 128.394531 300.449219 127.65625 301.921875 C 126.722656 303.789062 129.625 318.140625 127.65625 322.078125 C 126.929688 323.535156 123.011719 323.808594 121.777344 326.28125 C 120.34375 329.148438 124.898438 330.988281 126.398438 331.738281 C 127.808594 332.445312 127.855469 334.988281 129.757812 335.9375 C 131.484375 336.800781 132.695312 334.257812 133.953125 334.257812 C 135.359375 334.257812 140.085938 335.8125 141.515625 335.097656 L 143.195312 333.417969 L 144.875 335.097656 C 147.367188 335.097656 147.898438 323.09375 146.972656 321.242188 C 145.964844 319.226562 148.082031 317.582031 146.972656 315.359375 L 142.773438 307.804688 C 140.824219 303.902344 147.945312 294.785156 132.695312 294.785156 Z M 132.695312 294.785156 "/>
</g>
</svg>
