<?xml version="1.0" encoding="UTF-8"?>
<svg xmlns="http://www.w3.org/2000/svg" xmlns:xlink="http://www.w3.org/1999/xlink" width="430px" height="430px" viewBox="0 0 430 430" version="1.1">
<g id="surface1">
<rect x="0" y="0" width="430" height="430" style="fill:rgb(0%,0%,0%);fill-opacity:1;stroke:none;"/>
<path style=" stroke:none;fill-rule:nonzero;fill:rgb(98.039216%,50.196081%,44.705883%);fill-opacity:1;" d="M 170.488281 212.480469 C 156.570312 212.480469 131.175781 234.214844 139.414062 250.695312 C 140.734375 253.332031 144.976562 257.464844 147.390625 258.671875 C 148.195312 259.074219 150.882812 263.03125 152.011719 260.773438 L 151.171875 256.992188 C 138.855469 256.992188 143.925781 236.628906 146.972656 230.539062 C 148.710938 227.058594 153.019531 225.625 155.789062 224.238281 C 157.589844 223.339844 156.851562 220.347656 159.148438 219.199219 C 159.148438 219.199219 170.070312 216.679688 170.070312 216.679688 C 172.011719 215.707031 170.488281 213.554688 170.488281 212.480469 Z M 170.488281 212.480469 "/>
<path style=" stroke:none;fill-rule:evenodd;fill:rgb(52.549022%,100%,35.294119%);fill-opacity:1;" d="M 203.242188 276.308594 C 202.195312 276.308594 199.042969 278.378906 199.042969 279.667969 C 199.042969 285.261719 173.0625 282.003906 170.070312 280.507812 C 170.070312 280.507812 170.070312 278.828125 170.070312 278.828125 C 164.46875 276.027344 154.53125 269.433594 154.53125 262.453125 C 154.53125 262.453125 156.210938 262.453125 156.210938 262.453125 C 156.210938 262.453125 157.050781 258.25 157.050781 258.25 C 156.078125 256.308594 152.976562 256.992188 151.171875 256.992188 C 138.855469 256.992188 143.925781 236.628906 146.972656 230.539062 C 148.710938 227.058594 153.019531 225.625 155.789062 224.238281 C 157.589844 223.339844 156.851562 220.347656 159.148438 219.199219 C 159.148438 219.199219 170.070312 216.679688 170.070312 216.679688 C 172.011719 215.707031 170.488281 213.554688 170.488281 212.480469 C 173.296875 212.480469 173.6875 213.871094 175.945312 215 C 179.421875 216.738281 183.59375 215 186.867188 215 C 188.015625 215 193.140625 218.558594 194.421875 219.199219 C 195.421875 219.699219 195.171875 222.511719 196.945312 223.398438 C 196.945312 223.398438 201.984375 221.71875 201.984375 221.71875 C 204.34375 220.539062 207.925781 222.105469 210.382812 220.878906 C 212.667969 219.734375 213.464844 224.796875 216.257812 223.398438 C 219.050781 222.003906 218.347656 218.996094 221.296875 217.519531 C 221.296875 217.519531 228.859375 218.359375 228.859375 218.359375 C 229.96875 217.804688 235.078125 215.839844 235.996094 215.839844 C 235.996094 217.214844 239 217.519531 240.195312 217.519531 C 243.804688 217.519531 247.878906 218.210938 251.53125 220.039062 C 251.53125 220.039062 253.632812 223.820312 253.632812 223.820312 C 254.65625 225.863281 264.003906 231.121094 266.230469 235.578125 C 268.566406 240.246094 268.796875 248.921875 266.230469 254.054688 C 264.125 258.261719 257.832031 258.625 257.832031 263.710938 C 257.832031 265.597656 248.335938 273.707031 246.492188 274.628906 C 245.210938 275.269531 246.730469 277.871094 244.8125 278.828125 C 241.546875 280.460938 237.207031 280.53125 233.898438 282.1875 C 233.898438 282.1875 233.898438 284.707031 233.898438 284.707031 C 232.191406 285.558594 230.023438 283.867188 228.859375 283.867188 C 226.632812 283.867188 220.199219 286.257812 217.101562 284.707031 C 217.101562 284.707031 211.640625 280.507812 211.640625 280.507812 C 211.640625 276.5 206.601562 277.207031 206.601562 275.46875 C 208.78125 275.46875 209.617188 257.5625 208.28125 254.890625 C 207.257812 252.847656 204.921875 253.976562 204.921875 256.152344 C 204.921875 256.152344 204.082031 256.992188 204.082031 256.992188 C 202.757812 256.992188 203.242188 259.390625 203.242188 260.351562 C 203.242188 260.351562 203.242188 271.6875 203.242188 271.6875 C 203.242188 272.6875 202.726562 275.46875 204.082031 275.46875 C 204.082031 275.46875 203.242188 276.308594 203.242188 276.308594 M 202.402344 235.996094 L 201.140625 237.675781 C 194.96875 237.675781 201.199219 250.273438 205.34375 250.273438 C 207.53125 250.273438 210.476562 245.980469 212.0625 244.394531 C 213.144531 243.308594 214.160156 239.460938 214.160156 238.09375 C 214.160156 236.871094 209.960938 238.914062 209.960938 235.996094 C 209.960938 235.996094 209.121094 235.15625 209.121094 235.15625 C 209.121094 233.53125 204.082031 232.890625 204.082031 235.15625 C 204.082031 235.15625 202.402344 235.996094 202.402344 235.996094 Z M 202.402344 235.996094 "/>
<path style=" stroke:none;fill-rule:nonzero;fill:rgb(98.039216%,50.196081%,44.705883%);fill-opacity:1;" d="M 235.996094 215.839844 L 238.09375 214.160156 C 245.207031 214.160156 254.945312 219.644531 260.773438 222.558594 C 261.359375 222.851562 272.222656 240.84375 272.949219 242.296875 C 276.066406 248.527344 261.074219 263.710938 257.832031 263.710938 C 257.832031 258.625 264.125 258.261719 266.230469 254.054688 C 268.796875 248.921875 268.566406 240.246094 266.230469 235.578125 C 264.003906 231.121094 254.65625 225.863281 253.632812 223.820312 C 253.632812 223.820312 251.53125 220.039062 251.53125 220.039062 C 247.878906 218.210938 243.804688 217.519531 240.195312 217.519531 C 239 217.519531 235.996094 217.214844 235.996094 215.839844 Z M 235.996094 215.839844 "/>
<path style=" stroke:none;fill-rule:evenodd;fill:rgb(92.156863%,34.117648%,100%);fill-opacity:1;" d="M 204.921875 244.394531 C 204.921875 249.648438 208.101562 244.394531 204.921875 244.394531 M 202.402344 235.996094 L 201.140625 237.675781 C 194.96875 237.675781 201.199219 250.273438 205.34375 250.273438 C 207.53125 250.273438 210.476562 245.980469 212.0625 244.394531 C 213.144531 243.308594 214.160156 239.460938 214.160156 238.09375 C 214.160156 236.871094 209.960938 238.914062 209.960938 235.996094 C 205.617188 235.996094 203.738281 235.15625 209.121094 235.15625 C 209.121094 233.53125 204.082031 232.890625 204.082031 235.15625 C 204.082031 235.15625 202.402344 235.996094 202.402344 235.996094 Z M 202.402344 235.996094 "/>
<path style=" stroke:none;fill-rule:nonzero;fill:rgb(15.294118%,95.686275%,99.215686%);fill-opacity:1;" d="M 204.921875 244.394531 C 204.921875 249.648438 208.101562 244.394531 204.921875 244.394531 Z M 204.921875 244.394531 "/>
<path style=" stroke:none;fill-rule:nonzero;fill:rgb(44.705883%,3.529412%,83.137256%);fill-opacity:1;" d="M 206.601562 275.46875 L 205.761719 276.308594 C 205.761719 276.308594 204.082031 275.46875 204.082031 275.46875 C 202.726562 275.46875 203.242188 272.6875 203.242188 271.6875 C 203.242188 271.6875 203.242188 260.351562 203.242188 260.351562 C 203.242188 259.390625 202.757812 256.992188 204.082031 256.992188 C 204.082031 256.992188 204.921875 256.152344 204.921875 256.152344 C 204.921875 253.976562 207.257812 252.847656 208.28125 254.890625 C 209.617188 257.5625 208.78125 275.46875 206.601562 275.46875 Z M 206.601562 275.46875 "/>
<path style=" stroke:none;fill-rule:nonzero;fill:rgb(100%,20.392157%,15.294118%);fill-opacity:1;" d="M 205.761719 276.308594 C 205.761719 279.519531 209 280.507812 211.640625 280.507812 C 211.640625 276.5 206.601562 277.207031 206.601562 275.46875 C 206.601562 275.46875 205.761719 276.308594 205.761719 276.308594 Z M 205.761719 276.308594 "/>
<path style=" stroke:none;fill-rule:nonzero;fill:rgb(100%,20.392157%,15.294118%);fill-opacity:1;" d="M 203.242188 276.308594 C 202.195312 276.308594 199.042969 278.378906 199.042969 279.667969 C 201.753906 279.667969 203.242188 279.082031 203.242188 276.308594 Z M 203.242188 276.308594 "/>
</g>
</svg>
