<?xml version="1.0" encoding="UTF-8"?>
<svg xmlns="http://www.w3.org/2000/svg" xmlns:xlink="http://www.w3.org/1999/xlink" width="430px" height="430px" viewBox="0 0 430 430" version="1.1">
<g id="surface1">
<rect x="0" y="0" width="430" height="430" style="fill:rgb(0%,0%,0%);fill-opacity:1;stroke:none;"/>
<path style=" stroke:none;fill-rule:evenodd;fill:rgb(52.549022%,100%,35.294119%);fill-opacity:1;" d="M 197.363281 239.355469 C 197.363281 240.796875 192.664062 240.195312 191.484375 240.195312 C 187.960938 240.195312 183.078125 239.148438 179.304688 241.035156 C 174.484375 243.445312 176.382812 243.554688 170.90625 243.554688 L 170.070312 246.074219 C 168.726562 247.417969 167.335938 247.019531 165.867188 247.753906 C 162.308594 249.535156 161.890625 255.289062 160.410156 258.25 C 158.867188 261.339844 161.25 266.730469 161.25 269.589844 C 161.25 281.394531 165.152344 295.6875 175.109375 300.664062 L 177.625 304.863281 L 187.703125 309.0625 C 190.292969 310.355469 197.011719 310.289062 199.460938 309.0625 C 201.460938 308.066406 201.675781 303.183594 204.5 303.183594 C 206.746094 303.183594 207.171875 309.136719 208.703125 309.902344 C 216.660156 313.882812 237.675781 302.746094 237.675781 298.5625 C 237.675781 297.648438 247.753906 287.515625 247.753906 286.804688 C 247.753906 283.867188 248.003906 286.308594 249.433594 283.445312 L 248.59375 280.929688 C 252.25 273.617188 251.507812 251.101562 243.132812 246.914062 C 239.074219 244.882812 238.003906 243.929688 233.898438 241.875 L 224.65625 241.035156 C 217.492188 237.453125 213.152344 243.554688 206.179688 243.554688 C 203.097656 243.554688 199.808594 239.355469 197.363281 239.355469 M 204.921875 272.109375 L 205.761719 272.109375 C 205.761719 276.945312 210.800781 269.625 210.800781 268.328125 C 210.800781 267.378906 208.597656 266.703125 207.859375 267.070312 C 205.285156 268.359375 201.046875 264.316406 199.042969 268.328125 C 197.183594 272.046875 204.921875 274.6875 204.921875 272.109375 Z M 204.921875 272.109375 "/>
<path style=" stroke:none;fill-rule:nonzero;fill:rgb(92.156863%,34.117648%,100%);fill-opacity:1;" d="M 204.921875 272.109375 C 204.921875 274.6875 197.183594 272.046875 199.042969 268.328125 C 201.046875 264.316406 205.285156 268.359375 207.859375 267.070312 C 208.597656 266.703125 210.800781 267.378906 210.800781 268.328125 C 210.800781 269.625 205.761719 276.945312 205.761719 272.109375 C 205.761719 269.519531 204.921875 268.679688 204.921875 272.109375 Z M 204.921875 272.109375 "/>
<path style=" stroke:none;fill-rule:nonzero;fill:rgb(15.294118%,95.686275%,99.215686%);fill-opacity:1;" d="M 204.921875 272.109375 L 205.761719 272.109375 C 205.761719 269.519531 204.921875 268.679688 204.921875 272.109375 Z M 204.921875 272.109375 "/>
</g>
</svg>
