<?xml version="1.0" encoding="UTF-8"?>
<svg xmlns="http://www.w3.org/2000/svg" xmlns:xlink="http://www.w3.org/1999/xlink" width="430px" height="430px" viewBox="0 0 430 430" version="1.1">
<g id="surface1">
<rect x="0" y="0" width="430" height="430" style="fill:rgb(0%,0%,0%);fill-opacity:1;stroke:none;"/>
<path style=" stroke:none;fill-rule:nonzero;fill:rgb(1.176471%,75.686276%,17.647059%);fill-opacity:1;" d="M 117.578125 292.265625 L 114.640625 294.785156 C 110.621094 296.792969 88.410156 293.847656 85.242188 292.265625 C 81.5625 290.425781 78.789062 284.816406 77.265625 281.765625 L 69.707031 275.046875 C 67.769531 271.175781 64.136719 268.105469 62.148438 264.132812 L 61.308594 258.25 C 59.925781 255.484375 57.621094 253.394531 56.269531 250.695312 L 56.269531 242.296875 C 55.460938 240.675781 53.421875 238.753906 54.589844 236.414062 C 55.007812 235.578125 57.21875 235.792969 56.269531 233.898438 C 54.285156 229.925781 50.199219 232.671875 49.550781 231.375 L 48.710938 225.5 C 46.828125 221.730469 44.679688 218.273438 42.832031 214.578125 L 42.832031 201.984375 L 40.3125 196.945312 C 39.261719 194.839844 41.992188 192.820312 41.992188 190.644531 C 41.992188 186.226562 42.925781 169.878906 44.511719 166.710938 L 45.351562 157.46875 C 45.765625 156.640625 51.230469 149.335938 51.230469 149.070312 C 51.230469 139.550781 61.816406 110.394531 70.96875 105.820312 C 74.214844 104.195312 72.976562 99.355469 76.84375 97.421875 C 82.378906 94.65625 88.03125 91.828125 93.640625 89.023438 C 98.382812 86.652344 104.855469 87.199219 109.601562 84.824219 C 128.964844 75.140625 165.945312 62.605469 188.546875 73.90625 L 193.585938 73.90625 L 193.585938 75.585938 L 198.625 76.425781 L 201.984375 80.625 L 210.382812 72.226562 C 215.199219 69.816406 241.386719 65.054688 247.335938 68.027344 C 249.789062 69.253906 253.371094 67.6875 255.734375 68.867188 C 262.28125 72.140625 271.003906 70.625 277.570312 73.90625 L 283.445312 73.90625 L 287.648438 77.265625 L 295.203125 77.265625 C 299.679688 79.503906 299.972656 82.167969 300.242188 82.304688 C 308.183594 86.273438 316.136719 89.410156 323.757812 93.222656 L 327.117188 97.421875 L 331.320312 97.421875 C 333.050781 98.289062 343.71875 105.84375 344.335938 107.078125 C 348.277344 114.964844 353.84375 121.894531 357.773438 129.757812 C 359.6875 133.585938 360.027344 138.460938 361.972656 142.351562 L 361.972656 148.234375 C 362.597656 149.484375 365.332031 149.351562 365.332031 150.75 L 362.8125 151.59375 L 362.8125 159.148438 C 363.917969 161.359375 367.25 160.464844 367.851562 161.671875 L 367.851562 165.867188 C 368.65625 167.476562 371.566406 168.519531 370.371094 170.90625 C 369.972656 171.707031 366.976562 170.835938 367.851562 172.585938 C 368.738281 174.363281 367.847656 176.78125 368.691406 178.46875 L 370.371094 180.148438 L 368.691406 181.828125 C 365.398438 188.414062 371.183594 199.515625 367.851562 206.179688 L 365.332031 207.859375 L 367.011719 210.382812 L 365.332031 214.578125 L 366.171875 218.78125 C 364.582031 221.957031 359.28125 225 358.613281 226.335938 C 357.324219 228.910156 360.828125 233.667969 360.292969 234.734375 C 359.652344 236.019531 357.050781 234.5 356.09375 236.414062 L 356.933594 243.132812 C 355.28125 246.441406 354.78125 249.960938 353.574219 252.375 C 352.839844 253.839844 349.046875 250.507812 348.535156 251.53125 L 348.535156 259.09375 C 347.554688 261.050781 344.019531 261.402344 343.496094 262.453125 C 341.660156 266.117188 341.117188 270.566406 339.296875 274.210938 L 327.960938 286.386719 L 322.078125 292.265625 C 318.097656 294.257812 302.683594 293.105469 298.144531 293.105469 C 298.144531 293.105469 308.222656 270.851562 308.222656 270.851562 C 310.441406 266.410156 310.988281 261.113281 313.261719 256.570312 C 313.261719 256.570312 310.742188 253.210938 310.742188 253.210938 C 310.742188 253.210938 312.421875 249.015625 312.421875 249.015625 C 312.421875 249.015625 311.582031 239.355469 311.582031 239.355469 C 314.148438 239.355469 315.609375 234.238281 316.621094 232.21875 C 316.621094 232.21875 320.820312 228.859375 320.820312 228.859375 C 321.457031 227.578125 320.820312 226.214844 320.820312 225.5 C 320.820312 225.5 325.019531 222.140625 325.019531 222.140625 C 325.019531 222.140625 324.179688 219.617188 324.179688 219.617188 C 324.179688 217.652344 326.699219 215.859375 326.699219 213.320312 C 326.699219 213.320312 328.796875 214.160156 328.796875 214.160156 C 328.796875 214.160156 329.21875 207.859375 329.21875 207.859375 C 329.21875 201.796875 329.21875 195.246094 329.21875 188.964844 C 329.21875 186.394531 325.019531 178.035156 325.019531 176.789062 C 325.019531 170.824219 317.789062 151.125 311.164062 147.8125 C 311.164062 147.8125 307.804688 143.613281 307.804688 143.613281 C 307.804688 143.613281 305.703125 143.195312 305.703125 143.195312 C 305.199219 142.1875 305.960938 138.574219 303.601562 138.574219 C 300.148438 138.574219 290.632812 128.308594 285.96875 125.976562 C 285.96875 125.976562 280.929688 125.136719 280.929688 125.136719 C 280.929688 125.136719 279.25 122.617188 279.25 122.617188 C 273.875 119.929688 267.921875 118.632812 262.453125 115.898438 C 262.453125 115.898438 253.210938 115.058594 253.210938 115.058594 C 245.914062 111.410156 237.074219 111.1875 229.695312 107.5 C 223.308594 104.304688 221.652344 118.128906 220.039062 121.359375 C 217.382812 126.671875 199.859375 131.632812 193.585938 128.496094 C 183.074219 123.242188 182.984375 112.277344 178.46875 110.019531 C 173.90625 107.738281 166.761719 113.351562 163.351562 115.058594 C 163.351562 115.058594 159.992188 114.21875 159.992188 114.21875 C 156.976562 115.726562 153.796875 116.054688 150.75 117.578125 C 148.386719 118.761719 144.742188 118.0625 142.351562 119.257812 C 136.902344 121.984375 130.976562 124.105469 125.554688 126.816406 C 125.554688 126.816406 123.875 129.335938 123.875 129.335938 C 121.460938 129.335938 114.414062 134.488281 111.28125 136.054688 C 111.28125 136.054688 108.757812 139.414062 108.757812 139.414062 C 105.515625 141.035156 100.070312 143.773438 98.261719 147.390625 C 95.398438 153.113281 91.617188 159 89.023438 164.1875 C 88.210938 165.816406 89.988281 167.300781 89.023438 169.226562 C 86.46875 174.335938 83.984375 176.738281 83.984375 182.246094 C 83.984375 182.246094 83.144531 183.085938 83.144531 183.085938 C 83.144531 183.085938 82.304688 186.445312 82.304688 186.445312 C 80.890625 186.445312 81.464844 190.375 81.464844 191.484375 C 81.464844 191.484375 80.625 204.082031 80.625 204.082031 C 79.375 204.082031 79.375 206.601562 80.625 206.601562 C 80.625 209.070312 79.785156 213.320312 83.144531 213.320312 C 84.46875 213.320312 83.984375 215.71875 83.984375 216.679688 C 83.984375 217.558594 83.585938 219.199219 84.824219 219.199219 C 84.824219 223.941406 94.902344 234.769531 94.902344 235.996094 C 94.902344 242.09375 95.609375 240.347656 98.261719 245.65625 C 98.261719 245.65625 97.421875 259.09375 97.421875 259.09375 C 97.421875 259.09375 102.460938 270.007812 102.460938 270.007812 C 104.710938 274.511719 117.578125 288.722656 117.578125 292.265625 Z M 117.578125 292.265625 "/>
<path style=" stroke:none;fill-rule:nonzero;fill:rgb(100%,43.137255%,0%);fill-opacity:1;" d="M 80.625 206.601562 C 80.625 209.070312 79.785156 213.320312 83.144531 213.320312 C 83.144531 205.488281 85.664062 197.605469 85.664062 189.804688 C 85.664062 189.804688 86.503906 188.964844 86.503906 188.964844 C 86.503906 185.707031 87.9375 186.515625 89.023438 184.34375 C 89.023438 184.34375 89.023438 180.984375 89.023438 180.984375 C 92.433594 174.164062 93.128906 167.640625 99.101562 161.671875 C 100.535156 160.238281 102.816406 154.53125 104.980469 154.53125 C 104.980469 154.53125 105.820312 153.691406 105.820312 153.691406 C 105.820312 151.285156 116.894531 144.164062 119.679688 142.773438 C 119.679688 142.773438 130.175781 143.613281 130.175781 143.613281 C 130.175781 143.613281 129.335938 142.351562 129.335938 142.351562 C 129.335938 141.300781 134.082031 140.609375 134.796875 140.253906 C 134.796875 140.253906 136.476562 137.734375 136.476562 137.734375 C 141.519531 135.210938 146.515625 131.875 151.59375 129.335938 C 151.59375 129.335938 159.570312 131.015625 159.570312 131.015625 C 164.183594 131.015625 170.117188 131.015625 174.6875 131.015625 C 176.367188 131.015625 179.726562 131.070312 179.726562 133.535156 C 179.726562 133.535156 184.765625 136.054688 184.765625 136.054688 C 184.765625 136.054688 186.445312 136.894531 186.445312 136.894531 C 186.445312 136.894531 193.164062 139.414062 193.164062 139.414062 C 198.308594 139.414062 205.378906 141.074219 210.382812 138.574219 C 211.46875 138.03125 213.320312 139.125 213.320312 140.253906 C 213.320312 140.253906 214.160156 140.253906 214.160156 140.253906 C 216.125 140.253906 216.585938 136.054688 219.199219 136.054688 C 219.199219 136.054688 220.039062 135.214844 220.039062 135.214844 C 220.039062 135.214844 221.71875 134.375 221.71875 134.375 C 221.71875 134.375 222.558594 133.535156 222.558594 133.535156 C 222.558594 131.476562 227.726562 129.335938 229.277344 129.335938 C 229.277344 127.125 241.035156 121.09375 241.035156 125.136719 C 241.035156 125.136719 241.875 125.136719 241.875 125.136719 C 241.875 125.136719 243.554688 124.296875 243.554688 124.296875 C 243.554688 124.296875 244.394531 124.296875 244.394531 124.296875 C 245.238281 124.296875 247.753906 123.476562 247.753906 125.976562 C 248.996094 125.976562 248.414062 127.65625 250.273438 127.65625 C 250.273438 127.65625 254.472656 131.015625 254.472656 131.015625 C 254.472656 131.015625 256.992188 131.015625 256.992188 131.015625 C 256.992188 131.015625 252.792969 128.914062 252.792969 128.914062 C 252.792969 122.609375 268.75 134.566406 268.75 135.214844 C 268.75 135.214844 270.429688 136.054688 270.429688 136.054688 C 270.429688 136.054688 271.269531 136.894531 271.269531 136.894531 C 271.269531 136.894531 272.109375 137.734375 272.109375 137.734375 C 273.339844 137.734375 275.46875 137.644531 275.46875 139.414062 C 278 139.414062 280.511719 141.09375 282.1875 141.09375 C 286.71875 141.09375 294.1875 143.105469 298.5625 145.292969 C 298.5625 145.292969 303.183594 149.492188 303.183594 149.492188 C 303.183594 149.492188 304.023438 150.332031 304.023438 150.332031 C 306.636719 150.332031 307.097656 154.53125 309.0625 154.53125 C 310.832031 154.53125 310.742188 156.660156 310.742188 157.890625 C 310.742188 157.890625 311.582031 158.730469 311.582031 158.730469 C 311.582031 158.730469 313.261719 159.570312 313.261719 159.570312 C 313.261719 159.570312 314.941406 162.089844 314.941406 162.089844 C 314.941406 162.089844 316.621094 163.769531 316.621094 163.769531 C 316.621094 168.542969 319.710938 170.367188 321.660156 174.265625 C 322.277344 175.5 321.578125 181.40625 323.339844 181.40625 C 323.339844 179.816406 325.019531 185.257812 325.019531 186.445312 C 325.019531 186.445312 327.539062 192.742188 327.539062 192.742188 C 328.050781 193.769531 326.699219 209.613281 326.699219 213.320312 C 326.699219 213.320312 328.796875 214.160156 328.796875 214.160156 C 328.796875 214.160156 329.21875 207.859375 329.21875 207.859375 C 329.21875 201.796875 329.21875 195.246094 329.21875 188.964844 C 329.21875 186.394531 325.019531 178.035156 325.019531 176.789062 C 325.019531 170.824219 317.789062 151.125 311.164062 147.8125 C 311.164062 147.8125 307.804688 143.613281 307.804688 143.613281 C 307.804688 143.613281 305.703125 143.195312 305.703125 143.195312 C 305.199219 142.1875 305.960938 138.574219 303.601562 138.574219 C 300.148438 138.574219 290.632812 128.308594 285.96875 125.976562 C 285.96875 125.976562 280.929688 125.136719 280.929688 125.136719 C 280.929688 125.136719 279.25 122.617188 279.25 122.617188 C 273.875 119.929688 267.921875 118.632812 262.453125 115.898438 C 262.453125 115.898438 253.210938 115.058594 253.210938 115.058594 C 245.914062 111.410156 237.074219 111.1875 229.695312 107.5 C 223.308594 104.304688 221.652344 118.128906 220.039062 121.359375 C 217.382812 126.671875 199.859375 131.632812 193.585938 128.496094 C 183.074219 123.242188 182.984375 112.277344 178.46875 110.019531 C 173.90625 107.738281 166.761719 113.351562 163.351562 115.058594 C 163.351562 115.058594 159.992188 114.21875 159.992188 114.21875 C 156.976562 115.726562 153.796875 116.054688 150.75 117.578125 C 148.386719 118.761719 144.742188 118.0625 142.351562 119.257812 C 136.902344 121.984375 130.976562 124.105469 125.554688 126.816406 C 125.554688 126.816406 123.875 129.335938 123.875 129.335938 C 121.460938 129.335938 114.414062 134.488281 111.28125 136.054688 C 111.28125 136.054688 108.757812 139.414062 108.757812 139.414062 C 105.515625 141.035156 100.070312 143.773438 98.261719 147.390625 C 95.398438 153.113281 91.617188 159 89.023438 164.1875 C 88.210938 165.816406 89.988281 167.300781 89.023438 169.226562 C 86.46875 174.335938 83.984375 176.738281 83.984375 182.246094 C 83.984375 182.246094 83.144531 183.085938 83.144531 183.085938 C 83.144531 183.085938 82.304688 186.445312 82.304688 186.445312 C 82.304688 187.554688 82.878906 191.484375 81.464844 191.484375 C 81.464844 191.484375 80.625 204.082031 80.625 204.082031 C 80.625 204.082031 80.625 206.601562 80.625 206.601562 Z M 80.625 206.601562 "/>
<path style=" stroke:none;fill-rule:nonzero;fill:rgb(5.490196%,27.843139%,88.627452%);fill-opacity:1;" d="M 213.320312 141.09375 L 213.320312 142.773438 C 213.320312 145.953125 218.035156 145.339844 219.617188 146.132812 C 222.828125 147.738281 235.761719 146.039062 238.9375 144.453125 C 241.421875 143.210938 245.632812 139.414062 247.753906 139.414062 C 247.753906 139.414062 249.433594 138.574219 249.433594 138.574219 C 249.433594 138.574219 251.113281 136.894531 251.113281 136.894531 C 251.113281 135.855469 251.46875 134.375 252.792969 134.375 C 252.792969 134.375 252.792969 131.855469 252.792969 131.855469 C 251.886719 131.855469 250.273438 128.695312 250.273438 127.65625 C 248.414062 127.65625 248.996094 125.976562 247.753906 125.976562 C 247.753906 125.976562 244.394531 124.296875 244.394531 124.296875 C 244.394531 124.296875 243.554688 124.296875 243.554688 124.296875 C 243.554688 124.296875 241.875 125.136719 241.875 125.136719 C 241.875 125.136719 241.035156 125.136719 241.035156 125.136719 C 236.449219 125.136719 233.59375 129.335938 229.277344 129.335938 C 229.277344 131.003906 224.019531 133.535156 222.558594 133.535156 C 222.558594 133.535156 221.71875 134.375 221.71875 134.375 C 221.71875 134.375 220.039062 135.214844 220.039062 135.214844 C 220.039062 135.214844 219.199219 136.054688 219.199219 136.054688 C 216.585938 136.054688 216.125 140.253906 214.160156 140.253906 C 214.160156 140.253906 213.320312 141.09375 213.320312 141.09375 Z M 213.320312 141.09375 "/>
<path style=" stroke:none;fill-rule:nonzero;fill:rgb(0.784314%,17.254902%,100%);fill-opacity:1;" d="M 276.308594 158.730469 L 273.789062 159.570312 C 273.789062 159.570312 272.949219 158.730469 272.949219 158.730469 C 272.949219 154.863281 271.980469 154.695312 270.429688 151.59375 C 269.621094 149.976562 272.109375 147.128906 272.109375 145.710938 C 272.109375 143.910156 263.976562 139.261719 262.871094 138.15625 C 260.25 135.53125 262.179688 131.015625 256.992188 131.015625 C 256.992188 131.015625 252.792969 128.914062 252.792969 128.914062 C 252.792969 122.609375 268.75 134.566406 268.75 135.214844 C 268.75 135.214844 270.429688 136.054688 270.429688 136.054688 C 270.429688 136.054688 271.269531 136.894531 271.269531 136.894531 C 271.269531 136.894531 272.109375 137.734375 272.109375 137.734375 C 273.339844 137.734375 275.46875 137.644531 275.46875 139.414062 C 275.46875 139.414062 276.308594 140.253906 276.308594 140.253906 C 276.308594 140.253906 275.46875 141.933594 275.46875 141.933594 C 275.46875 147.894531 276.308594 149.246094 276.308594 154.53125 C 274.351562 154.53125 276.308594 157.0625 276.308594 158.730469 Z M 276.308594 158.730469 "/>
<path style=" stroke:none;fill-rule:nonzero;fill:rgb(0.784314%,17.254902%,100%);fill-opacity:1;" d="M 135.214844 162.929688 C 136.371094 162.929688 137.417969 162.929688 138.574219 162.929688 C 138.574219 156.847656 140.253906 151.375 140.253906 146.554688 C 140.253906 146.554688 143.613281 144.03125 143.613281 144.03125 C 143.613281 143.007812 142.773438 141.535156 142.773438 140.671875 C 142.773438 140.671875 144.875 140.253906 144.875 140.253906 C 144.875 140.253906 144.875 138.574219 144.875 138.574219 C 149.507812 136.257812 151.296875 133.535156 157.050781 133.535156 C 157.050781 133.535156 159.570312 131.015625 159.570312 131.015625 C 159.570312 131.015625 151.59375 129.335938 151.59375 129.335938 C 146.515625 131.875 141.519531 135.210938 136.476562 137.734375 C 136.476562 137.734375 134.796875 140.253906 134.796875 140.253906 C 134.082031 140.609375 129.335938 141.300781 129.335938 142.351562 C 129.335938 142.351562 130.175781 143.613281 130.175781 143.613281 C 135.644531 143.613281 136.054688 145.269531 136.054688 149.070312 C 136.054688 149.070312 134.375 149.914062 134.375 149.914062 C 134.375 149.914062 136.054688 150.75 136.054688 150.75 C 136.054688 152.597656 135.214844 155.394531 135.214844 157.890625 C 135.214844 157.890625 134.375 162.089844 134.375 162.089844 C 134.375 162.089844 135.214844 162.929688 135.214844 162.929688 Z M 135.214844 162.929688 "/>
<path style=" stroke:none;fill-rule:nonzero;fill:rgb(5.490196%,27.843139%,88.627452%);fill-opacity:1;" d="M 192.324219 143.613281 L 191.484375 144.453125 C 191.484375 146.398438 185.222656 146.972656 183.507812 146.972656 C 178.402344 146.972656 170.75 146.476562 166.710938 144.453125 C 166.710938 144.453125 159.570312 140.253906 159.570312 140.253906 C 159.570312 140.253906 157.890625 138.574219 157.890625 138.574219 C 157.890625 136.605469 157.050781 135.503906 157.050781 133.535156 C 157.050781 133.535156 159.570312 131.015625 159.570312 131.015625 C 164.183594 131.015625 170.117188 131.015625 174.6875 131.015625 C 174.6875 131.015625 179.726562 133.535156 179.726562 133.535156 C 179.726562 133.535156 184.765625 136.054688 184.765625 136.054688 C 184.765625 136.054688 186.445312 136.894531 186.445312 136.894531 C 186.445312 136.894531 193.164062 139.414062 193.164062 139.414062 C 193.164062 139.414062 194.003906 141.09375 194.003906 141.09375 C 192.535156 141.09375 192.324219 141.304688 192.324219 142.773438 C 192.324219 142.773438 192.324219 143.613281 192.324219 143.613281 Z M 192.324219 143.613281 "/>
<path style=" stroke:none;fill-rule:nonzero;fill:rgb(0%,100%,11.372549%);fill-opacity:1;" d="M 257.832031 162.929688 L 262.03125 166.289062 C 265.09375 166.289062 269.589844 165.121094 269.589844 162.089844 C 269.589844 162.089844 270.429688 161.25 270.429688 161.25 C 270.429688 160.253906 271.269531 160.253906 271.269531 161.25 C 271.269531 161.25 272.949219 160.410156 272.949219 160.410156 C 272.949219 160.410156 272.949219 158.730469 272.949219 158.730469 C 272.949219 154.863281 271.980469 154.695312 270.429688 151.59375 C 269.621094 149.976562 272.109375 147.128906 272.109375 145.710938 C 272.109375 143.910156 263.976562 139.261719 262.871094 138.15625 C 260.25 135.53125 262.179688 131.015625 256.992188 131.015625 C 256.992188 131.015625 254.472656 131.015625 254.472656 131.015625 C 254.472656 131.015625 252.792969 131.855469 252.792969 131.855469 C 252.792969 131.855469 252.792969 134.375 252.792969 134.375 C 254.660156 134.375 251.855469 136.894531 251.113281 136.894531 C 251.113281 136.894531 249.433594 138.574219 249.433594 138.574219 C 249.433594 138.574219 247.753906 139.414062 247.753906 139.414062 C 245.632812 139.414062 241.421875 143.210938 238.9375 144.453125 C 235.761719 146.039062 222.828125 147.738281 219.617188 146.132812 C 218.035156 145.339844 213.320312 145.953125 213.320312 142.773438 C 213.320312 142.773438 211.640625 141.933594 211.640625 141.933594 C 206.960938 141.933594 200.339844 141.933594 195.683594 141.933594 C 195.683594 143.257812 193.285156 142.773438 192.324219 142.773438 C 192.324219 142.773438 192.324219 143.613281 192.324219 143.613281 C 194.027344 143.613281 192.371094 144.453125 191.484375 144.453125 C 191.484375 146.398438 185.222656 146.972656 183.507812 146.972656 C 178.402344 146.972656 170.75 146.476562 166.710938 144.453125 C 166.710938 144.453125 159.570312 140.253906 159.570312 140.253906 C 158.101562 140.253906 157.890625 140.042969 157.890625 138.574219 C 157.890625 136.605469 157.050781 135.503906 157.050781 133.535156 C 151.296875 133.535156 149.507812 136.257812 144.875 138.574219 C 144.875 138.574219 144.875 140.253906 144.875 140.253906 C 144.875 140.253906 142.773438 140.671875 142.773438 140.671875 C 142.773438 141.535156 143.613281 143.007812 143.613281 144.03125 C 143.613281 144.03125 140.253906 146.554688 140.253906 146.554688 C 140.253906 151.375 138.574219 156.847656 138.574219 162.929688 C 138.574219 166.933594 144.421875 169.648438 147.8125 169.648438 C 151.3125 169.648438 151.109375 167.371094 153.273438 166.289062 C 153.273438 166.289062 156.210938 165.867188 156.210938 165.867188 C 156.210938 165.867188 158.730469 160.410156 158.730469 160.410156 C 158.730469 160.410156 164.1875 154.53125 164.1875 154.53125 C 164.230469 154.511719 177.371094 153.691406 179.304688 153.691406 C 183.722656 153.691406 191.230469 152.09375 194.421875 153.691406 C 195.382812 154.171875 199.882812 153.914062 199.882812 152.851562 C 199.882812 148.195312 209.121094 149.066406 209.121094 153.691406 C 209.121094 153.691406 212.898438 152.011719 212.898438 152.011719 C 212.898438 152.011719 225.5 152.851562 225.5 152.851562 C 229.902344 150.648438 242.058594 150.332031 248.171875 150.332031 C 250.507812 150.332031 251.113281 155.21875 251.113281 157.050781 C 251.113281 159.441406 254.019531 161.25 256.152344 161.25 C 256.152344 161.25 257.832031 162.929688 257.832031 162.929688 Z M 257.832031 162.929688 "/>
<path style=" stroke:none;fill-rule:nonzero;fill:rgb(100%,3.137255%,0%);fill-opacity:1;" d="M 195.683594 141.933594 C 200.339844 141.933594 206.960938 141.933594 211.640625 141.933594 C 211.640625 141.933594 213.320312 141.09375 213.320312 141.09375 C 213.320312 141.09375 213.320312 140.253906 213.320312 140.253906 C 213.320312 139.125 211.46875 138.03125 210.382812 138.574219 C 205.378906 141.074219 198.308594 139.414062 193.164062 139.414062 C 193.164062 139.414062 194.003906 141.09375 194.003906 141.09375 C 194.003906 141.09375 195.683594 141.933594 195.683594 141.933594 Z M 195.683594 141.933594 "/>
<path style=" stroke:none;fill-rule:nonzero;fill:rgb(100%,20.392157%,15.294118%);fill-opacity:1;" d="M 275.46875 141.933594 L 279.667969 142.773438 C 279.667969 141.335938 277.507812 140.253906 276.308594 140.253906 C 276.308594 140.253906 275.46875 141.933594 275.46875 141.933594 Z M 275.46875 141.933594 "/>
<path style=" stroke:none;fill-rule:nonzero;fill:rgb(50.588238%,30.980393%,100%);fill-opacity:1;" d="M 293.945312 227.597656 C 293.945312 235.792969 303.117188 239.355469 311.582031 239.355469 C 314.148438 239.355469 315.609375 234.238281 316.621094 232.21875 C 316.621094 232.21875 320.820312 228.859375 320.820312 228.859375 C 321.457031 227.578125 320.820312 226.214844 320.820312 225.5 C 320.820312 225.5 325.019531 222.140625 325.019531 222.140625 C 325.019531 222.140625 324.179688 219.617188 324.179688 219.617188 C 324.179688 217.652344 326.699219 215.859375 326.699219 213.320312 C 326.699219 209.613281 328.050781 193.769531 327.539062 192.742188 C 327.539062 192.742188 325.019531 186.445312 325.019531 186.445312 C 322.480469 186.445312 323.339844 183.445312 323.339844 181.40625 C 321.578125 181.40625 322.277344 175.5 321.660156 174.265625 C 319.710938 170.367188 316.621094 168.542969 316.621094 163.769531 C 316.621094 163.769531 314.941406 162.089844 314.941406 162.089844 C 314.941406 162.089844 313.261719 159.570312 313.261719 159.570312 C 313.261719 159.570312 311.582031 158.730469 311.582031 158.730469 C 311.582031 158.730469 310.742188 157.890625 310.742188 157.890625 C 310.742188 157.890625 309.0625 154.53125 309.0625 154.53125 C 307.097656 154.53125 306.636719 150.332031 304.023438 150.332031 C 304.023438 150.332031 303.183594 149.492188 303.183594 149.492188 C 303.183594 149.492188 298.5625 145.292969 298.5625 145.292969 C 294.1875 143.105469 286.71875 141.09375 282.1875 141.09375 C 282.1875 141.09375 279.667969 142.773438 279.667969 142.773438 C 279.667969 142.773438 275.46875 141.933594 275.46875 141.933594 C 275.46875 147.894531 276.308594 149.246094 276.308594 154.53125 C 277.917969 154.53125 276.367188 157.050781 278.828125 157.050781 C 278.828125 155.726562 280.308594 155.371094 281.347656 155.371094 C 281.347656 155.371094 289.328125 155.371094 289.328125 155.371094 C 290.429688 155.921875 288.925781 159.570312 291.007812 159.570312 C 291.007812 159.570312 292.6875 157.890625 292.6875 157.890625 C 292.6875 157.890625 296.464844 165.03125 296.464844 165.03125 C 296.464844 165.03125 293.523438 167.128906 293.523438 167.128906 C 292.40625 167.128906 294.070312 162.65625 291.84375 163.769531 C 291.84375 163.769531 291.425781 167.546875 291.425781 167.546875 C 291.425781 171.59375 289.746094 175.171875 289.746094 178.886719 C 289.746094 178.886719 289.746094 179.726562 289.746094 179.726562 C 292.980469 179.726562 291.722656 181.765625 294.367188 183.085938 C 294.367188 183.085938 297.726562 183.085938 297.726562 183.085938 C 305.5 186.972656 303.183594 199.9375 303.183594 207.023438 C 303.183594 207.023438 304.863281 207.859375 304.863281 207.859375 C 304.863281 207.859375 302.34375 209.539062 302.34375 209.539062 C 302.34375 209.539062 303.183594 211.21875 303.183594 211.21875 C 300.957031 215.675781 297.304688 218.367188 297.304688 224.238281 C 297.304688 226.164062 296.46875 225.917969 294.785156 225.917969 C 294.785156 225.917969 293.945312 226.757812 293.945312 226.757812 C 293.945312 226.757812 293.945312 227.597656 293.945312 227.597656 Z M 293.945312 227.597656 "/>
<path style=" stroke:none;fill-rule:evenodd;fill:rgb(50.588238%,30.980393%,100%);fill-opacity:1;" d="M 118.417969 165.449219 C 118.417969 170.734375 123.703125 165.449219 118.417969 165.449219 M 115.058594 229.277344 C 115.058594 231.542969 105.878906 239.355469 102.882812 239.355469 C 100.636719 239.355469 96.613281 235.996094 94.902344 235.996094 C 94.902344 234.769531 84.824219 223.941406 84.824219 219.199219 C 84.824219 218.320312 85.222656 216.679688 83.984375 216.679688 C 83.984375 215.71875 84.46875 213.320312 83.144531 213.320312 C 83.144531 205.488281 85.664062 197.605469 85.664062 189.804688 C 85.664062 189.804688 86.503906 188.964844 86.503906 188.964844 C 86.503906 185.707031 87.9375 186.515625 89.023438 184.34375 C 89.023438 184.34375 89.023438 180.984375 89.023438 180.984375 C 92.433594 174.164062 93.128906 167.640625 99.101562 161.671875 C 100.535156 160.238281 102.816406 154.53125 104.980469 154.53125 C 105.867188 154.53125 107.523438 153.691406 105.820312 153.691406 C 105.820312 151.285156 116.894531 144.164062 119.679688 142.773438 C 119.679688 142.773438 130.175781 143.613281 130.175781 143.613281 C 135.644531 143.613281 136.054688 145.269531 136.054688 149.070312 C 136.054688 149.070312 134.375 149.914062 134.375 149.914062 C 134.375 149.914062 136.054688 150.75 136.054688 150.75 C 136.054688 152.597656 135.214844 155.394531 135.214844 157.890625 C 132.714844 157.890625 133.535156 160.40625 133.535156 161.25 C 130.503906 161.25 131.160156 155.929688 127.234375 157.890625 C 124.632812 159.191406 127.128906 172.167969 122.617188 172.167969 C 122.617188 172.167969 120.9375 173.007812 120.9375 173.007812 C 120.9375 173.007812 118.835938 170.488281 118.835938 170.488281 C 117.277344 169.707031 115.117188 171.867188 115.898438 173.429688 C 116.734375 175.101562 120.097656 179.644531 120.097656 182.246094 C 120.097656 182.246094 114.21875 186.867188 114.21875 186.867188 C 110.390625 190.695312 108.933594 195.753906 106.660156 200.304688 C 102.464844 208.691406 115.058594 223.191406 115.058594 229.277344 Z M 115.058594 229.277344 "/>
<path style=" stroke:none;fill-rule:nonzero;fill:rgb(68.235296%,0%,90.980393%);fill-opacity:1;" d="M 199.882812 152.851562 C 202.734375 152.851562 206.339844 153.691406 209.121094 153.691406 C 209.121094 149.066406 199.882812 148.195312 199.882812 152.851562 Z M 199.882812 152.851562 "/>
<path style=" stroke:none;fill-rule:nonzero;fill:rgb(0.784314%,17.254902%,100%);fill-opacity:1;" d="M 181.40625 167.96875 C 186.269531 167.96875 192.539062 167.96875 197.363281 167.96875 C 200.386719 167.96875 203.011719 173.332031 207.023438 171.328125 C 208.917969 170.378906 207.585938 167.128906 210.800781 167.128906 C 214.160156 167.128906 218.339844 163.550781 222.140625 165.449219 C 222.140625 165.449219 225.917969 167.96875 225.917969 167.96875 C 225.917969 158.53125 246.625 157.050781 251.113281 157.050781 C 251.113281 155.21875 250.507812 150.332031 248.171875 150.332031 C 242.058594 150.332031 229.902344 150.648438 225.5 152.851562 C 225.5 152.851562 212.898438 152.011719 212.898438 152.011719 C 212.898438 152.011719 209.121094 153.691406 209.121094 153.691406 C 206.339844 153.691406 202.734375 152.851562 199.882812 152.851562 C 199.882812 153.914062 195.382812 154.171875 194.421875 153.691406 C 191.230469 152.09375 183.722656 153.691406 179.304688 153.691406 C 177.371094 153.691406 164.230469 154.511719 164.1875 154.53125 C 164.1875 154.53125 158.730469 160.410156 158.730469 160.410156 C 158.730469 162.480469 166.582031 160.410156 167.546875 160.410156 C 171.445312 160.410156 181.40625 166.421875 181.40625 167.96875 Z M 181.40625 167.96875 "/>
<path style=" stroke:none;fill-rule:nonzero;fill:rgb(100%,20.392157%,15.294118%);fill-opacity:1;" d="M 277.988281 220.039062 L 277.988281 223.398438 C 275.503906 223.398438 267.773438 228.4375 266.648438 228.4375 C 266.648438 228.4375 264.96875 225.917969 264.96875 225.917969 C 260.925781 225.917969 260.585938 225.40625 256.570312 223.398438 C 254.753906 222.488281 251.113281 220.902344 251.113281 218.359375 C 252.5 218.359375 253.710938 216.679688 251.953125 216.679688 C 251.953125 212.828125 259.511719 212.085938 259.511719 208.28125 C 260.550781 208.28125 262.03125 207.925781 262.03125 206.601562 C 262.03125 206.601562 262.03125 204.5 262.03125 204.5 C 262.265625 204.035156 265.402344 202.808594 266.230469 201.984375 C 266.230469 201.984375 269.589844 198.203125 269.589844 198.203125 C 270.957031 198.203125 272.109375 193.019531 272.109375 191.484375 C 273.878906 191.484375 273.789062 189.355469 273.789062 188.125 C 273.789062 188.125 274.628906 186.445312 274.628906 186.445312 C 274.628906 181.761719 275.46875 178.503906 275.46875 175.109375 C 275.46875 172.804688 267.910156 174.953125 267.910156 173.007812 C 267.910156 173.007812 267.910156 171.328125 267.910156 171.328125 C 267.910156 171.328125 268.75 170.488281 268.75 170.488281 C 274.355469 170.488281 277.988281 164.988281 277.988281 159.570312 C 277.988281 159.570312 278.828125 157.050781 278.828125 157.050781 C 279.867188 157.050781 281.347656 156.695312 281.347656 155.371094 C 281.347656 155.371094 289.328125 155.371094 289.328125 155.371094 C 290.429688 155.921875 288.925781 159.570312 291.007812 159.570312 C 291.007812 159.570312 292.6875 157.890625 292.6875 157.890625 C 292.6875 157.890625 296.464844 165.03125 296.464844 165.03125 C 296.464844 165.03125 293.523438 167.128906 293.523438 167.128906 C 292.40625 167.128906 294.070312 162.65625 291.84375 163.769531 C 291.84375 163.769531 291.425781 167.546875 291.425781 167.546875 C 291.425781 171.59375 289.746094 175.171875 289.746094 178.886719 C 286.273438 178.886719 281.496094 182.246094 286.386719 182.246094 C 292.0625 182.246094 285.546875 189.453125 285.546875 191.0625 C 285.546875 191.0625 283.867188 192.742188 283.867188 192.742188 C 283.867188 192.742188 286.386719 194.421875 286.386719 194.421875 C 286.640625 194.929688 281.941406 199.957031 281.347656 201.140625 C 280.621094 202.597656 282.5 204.285156 283.027344 205.34375 C 284.066406 207.421875 281.347656 208.273438 281.347656 209.539062 C 281.347656 209.539062 281.765625 210.800781 281.765625 210.800781 C 279.980469 211.695312 276.53125 208.253906 276.308594 208.703125 C 274.753906 211.804688 278.929688 213.101562 279.667969 214.578125 C 279.796875 214.835938 277.988281 217.761719 277.988281 220.039062 Z M 277.988281 220.039062 "/>
<path style=" stroke:none;fill-rule:nonzero;fill:rgb(0%,39.215687%,0%);fill-opacity:1;" d="M 212.480469 235.996094 L 220.878906 235.996094 C 220.878906 235.996094 224.238281 234.316406 224.238281 234.316406 C 224.238281 234.316406 228.4375 232.636719 228.4375 232.636719 C 228.4375 232.636719 230.117188 232.636719 230.117188 232.636719 C 230.117188 232.636719 232.636719 232.636719 232.636719 232.636719 C 232.636719 232.636719 234.316406 231.796875 234.316406 231.796875 C 234.316406 227.976562 244.457031 224.835938 247.335938 223.398438 C 248.949219 222.59375 247.425781 218.359375 251.113281 218.359375 C 251.113281 218.359375 251.953125 216.679688 251.953125 216.679688 C 251.953125 212.828125 259.511719 212.085938 259.511719 208.28125 C 259.511719 206.355469 260.347656 206.601562 262.03125 206.601562 C 262.03125 206.601562 262.03125 204.5 262.03125 204.5 C 262.265625 204.035156 265.402344 202.808594 266.230469 201.984375 C 266.230469 201.984375 269.589844 198.203125 269.589844 198.203125 C 269.589844 196.667969 270.742188 191.484375 272.109375 191.484375 C 273.878906 191.484375 273.789062 189.355469 273.789062 188.125 C 273.789062 188.125 274.628906 186.445312 274.628906 186.445312 C 274.628906 181.761719 275.46875 178.503906 275.46875 175.109375 C 275.46875 172.804688 267.910156 174.953125 267.910156 173.007812 C 267.03125 173.007812 265.390625 173.40625 265.390625 172.167969 C 265.390625 172.167969 265.390625 170.488281 265.390625 170.488281 C 263.25 170.488281 262.03125 168.230469 262.03125 166.289062 C 262.03125 166.289062 257.832031 162.929688 257.832031 162.929688 C 257.832031 162.929688 256.152344 161.25 256.152344 161.25 C 254.019531 161.25 251.113281 159.441406 251.113281 157.050781 C 246.625 157.050781 225.917969 158.53125 225.917969 167.96875 C 225.917969 176.363281 222.566406 172.167969 217.519531 172.167969 C 217.519531 172.167969 215.839844 172.167969 215.839844 172.167969 C 214.363281 172.167969 210.800781 169.117188 210.800781 167.128906 C 207.585938 167.128906 208.917969 170.378906 207.023438 171.328125 C 203.011719 173.332031 200.386719 167.96875 197.363281 167.96875 C 197.363281 169.804688 185.125 176.335938 183.507812 175.527344 C 182.105469 174.828125 182.800781 170.488281 181.40625 170.488281 C 181.40625 174.566406 179.292969 168.808594 181.40625 168.808594 C 181.40625 168.808594 181.40625 167.96875 181.40625 167.96875 C 181.40625 166.421875 171.445312 160.410156 167.546875 160.410156 C 166.582031 160.410156 158.730469 162.480469 158.730469 160.410156 C 158.730469 160.410156 156.210938 165.867188 156.210938 165.867188 C 156.210938 165.867188 153.273438 166.289062 153.273438 166.289062 C 151.109375 167.371094 151.3125 169.648438 147.8125 169.648438 C 147.8125 171.617188 152.382812 175.527344 146.972656 175.527344 C 146.972656 180.417969 140.878906 177.105469 138.992188 178.046875 C 136.605469 179.242188 139.429688 180.113281 138.574219 181.828125 C 138.15625 182.664062 135.945312 182.449219 136.894531 184.34375 C 136.894531 184.34375 140.253906 187.703125 140.253906 187.703125 C 140.253906 190.367188 139.886719 192.851562 141.09375 195.265625 C 142.984375 199.042969 147.058594 202.15625 148.652344 205.34375 C 148.652344 205.34375 152.011719 207.023438 152.011719 207.023438 C 152.011719 208.203125 151.171875 210.316406 151.171875 211.21875 C 151.171875 211.21875 153.691406 211.21875 153.691406 211.21875 C 155.164062 214.167969 157.050781 216.570312 157.050781 219.199219 C 163.296875 219.199219 174.675781 234.316406 178.046875 234.316406 C 180.148438 234.316406 182.664062 235.15625 184.765625 235.15625 C 184.765625 235.15625 188.125 235.996094 188.125 235.996094 C 193.003906 235.996094 198.03125 235.996094 203.242188 235.996094 C 203.242188 226.953125 205.761719 228.351562 205.761719 235.996094 C 205.761719 235.996094 212.480469 235.996094 212.480469 235.996094 Z M 212.480469 235.996094 "/>
<path style=" stroke:none;fill-rule:nonzero;fill:rgb(100%,20.392157%,15.294118%);fill-opacity:1;" d="M 134.375 219.199219 C 137.238281 219.199219 140.433594 225.796875 142.351562 226.757812 C 144.402344 227.78125 145.753906 226.757812 147.390625 226.757812 C 153.914062 226.757812 157.050781 227.839844 157.050781 219.199219 C 157.050781 216.570312 155.164062 214.167969 153.691406 211.21875 C 153.691406 211.21875 151.171875 211.21875 151.171875 211.21875 C 151.171875 210.316406 152.011719 208.203125 152.011719 207.023438 C 152.011719 207.023438 148.652344 205.34375 148.652344 205.34375 C 147.058594 202.15625 142.984375 199.042969 141.09375 195.265625 C 139.886719 192.851562 140.253906 190.367188 140.253906 187.703125 C 140.253906 187.703125 136.894531 184.34375 136.894531 184.34375 C 135.945312 182.449219 138.15625 182.664062 138.574219 181.828125 C 139.429688 180.113281 136.605469 179.242188 138.992188 178.046875 C 140.878906 177.105469 146.972656 180.417969 146.972656 175.527344 C 146.972656 175.527344 146.132812 174.6875 146.132812 174.6875 C 146.132812 174.6875 145.292969 174.6875 145.292969 174.6875 C 145.292969 174.6875 144.453125 173.847656 144.453125 173.847656 C 141.625 173.847656 136.054688 174.148438 136.054688 170.488281 C 135.03125 170.488281 133.253906 166.289062 135.214844 166.289062 C 135.214844 166.289062 135.214844 162.929688 135.214844 162.929688 C 135.214844 162.929688 134.375 162.089844 134.375 162.089844 C 134.375 162.089844 133.535156 161.25 133.535156 161.25 C 130.503906 161.25 131.160156 155.929688 127.234375 157.890625 C 124.632812 159.191406 127.128906 172.167969 122.617188 172.167969 C 122.617188 172.167969 120.9375 173.007812 120.9375 173.007812 C 120.9375 173.007812 118.835938 170.488281 118.835938 170.488281 C 117.277344 169.707031 115.117188 171.867188 115.898438 173.429688 C 116.734375 175.101562 120.097656 179.644531 120.097656 182.246094 C 123.644531 182.246094 125.320312 185.554688 126.816406 188.546875 C 127.945312 190.800781 124.542969 193.234375 125.136719 194.421875 C 125.136719 194.421875 128.496094 198.625 128.496094 198.625 C 128.496094 198.625 126.816406 201.140625 126.816406 201.140625 C 126.816406 205.496094 133.535156 208.625 133.535156 212.898438 C 133.535156 212.898438 131.015625 213.742188 131.015625 213.742188 C 131.015625 215.054688 133.535156 216.488281 133.535156 218.359375 C 133.535156 218.359375 134.375 219.199219 134.375 219.199219 Z M 134.375 219.199219 "/>
<path style=" stroke:none;fill-rule:nonzero;fill:rgb(93.333334%,45.882353%,20%);fill-opacity:1;" d="M 267.070312 171.328125 L 267.910156 171.328125 C 267.910156 171.328125 268.75 170.488281 268.75 170.488281 C 274.355469 170.488281 277.988281 164.988281 277.988281 159.570312 C 277.988281 159.570312 276.308594 158.730469 276.308594 158.730469 C 276.308594 158.730469 273.789062 159.570312 273.789062 159.570312 C 273.789062 159.570312 272.949219 160.410156 272.949219 160.410156 C 272.949219 160.410156 271.269531 161.25 271.269531 161.25 C 271.269531 161.25 270.429688 161.25 270.429688 161.25 C 270.429688 161.25 269.589844 162.089844 269.589844 162.089844 C 269.589844 165.121094 265.09375 166.289062 262.03125 166.289062 C 262.03125 168.230469 263.25 170.488281 265.390625 170.488281 C 265.390625 170.488281 267.070312 171.328125 267.070312 171.328125 Z M 267.070312 171.328125 "/>
<path style=" stroke:none;fill-rule:nonzero;fill:rgb(93.333334%,45.882353%,20%);fill-opacity:1;" d="M 146.132812 174.6875 L 146.972656 175.527344 C 152.382812 175.527344 147.8125 171.617188 147.8125 169.648438 C 144.421875 169.648438 138.574219 166.933594 138.574219 162.929688 C 137.417969 162.929688 136.371094 162.929688 135.214844 162.929688 C 135.214844 162.929688 135.214844 166.289062 135.214844 166.289062 C 135.214844 167.539062 136.054688 168.460938 136.054688 170.488281 C 136.054688 174.148438 141.625 173.847656 144.453125 173.847656 C 144.453125 172.851562 145.292969 172.851562 145.292969 173.847656 C 145.292969 173.847656 146.132812 174.6875 146.132812 174.6875 Z M 146.132812 174.6875 "/>
<path style=" stroke:none;fill-rule:nonzero;fill:rgb(100%,20.392157%,15.294118%);fill-opacity:1;" d="M 118.417969 165.449219 C 118.417969 170.734375 123.703125 165.449219 118.417969 165.449219 Z M 118.417969 165.449219 "/>
<path style=" stroke:none;fill-rule:nonzero;fill:rgb(100%,98.823529%,0%);fill-opacity:1;" d="M 215.839844 172.167969 C 215.839844 170.992188 217.519531 170.992188 217.519531 172.167969 C 222.566406 172.167969 225.917969 176.363281 225.917969 167.96875 C 225.917969 167.96875 222.140625 165.449219 222.140625 165.449219 C 218.339844 163.550781 214.160156 167.128906 210.800781 167.128906 C 210.800781 169.117188 214.363281 172.167969 215.839844 172.167969 Z M 215.839844 172.167969 "/>
<path style=" stroke:none;fill-rule:nonzero;fill:rgb(100%,98.823529%,0%);fill-opacity:1;" d="M 181.40625 168.808594 L 181.40625 170.488281 C 182.800781 170.488281 182.105469 174.828125 183.507812 175.527344 C 185.125 176.335938 197.363281 169.804688 197.363281 167.96875 C 192.539062 167.96875 186.269531 167.96875 181.40625 167.96875 C 181.40625 167.96875 181.40625 168.808594 181.40625 168.808594 Z M 181.40625 168.808594 "/>
<path style=" stroke:none;fill-rule:nonzero;fill:rgb(100%,20.392157%,15.294118%);fill-opacity:1;" d="M 267.070312 171.328125 L 265.390625 172.167969 C 265.390625 172.167969 265.390625 170.488281 265.390625 170.488281 C 265.390625 170.488281 267.070312 171.328125 267.070312 171.328125 Z M 267.070312 171.328125 "/>
<path style=" stroke:none;fill-rule:nonzero;fill:rgb(0%,39.215687%,0%);fill-opacity:1;" d="M 145.292969 174.6875 L 146.132812 174.6875 C 146.132812 174.6875 145.292969 173.847656 145.292969 173.847656 C 145.292969 173.847656 145.292969 174.6875 145.292969 174.6875 Z M 145.292969 174.6875 "/>
<path style=" stroke:none;fill-rule:nonzero;fill:rgb(100%,56.862748%,72.941178%);fill-opacity:1;" d="M 293.945312 226.757812 L 293.945312 227.597656 C 293.042969 227.597656 292.71875 231.78125 291.007812 232.636719 C 291.007812 232.636719 288.484375 230.957031 288.484375 230.957031 C 288.484375 230.957031 286.804688 231.796875 286.804688 231.796875 C 286.804688 231.796875 281.347656 228.015625 281.347656 228.015625 C 280.753906 226.832031 281.023438 223.398438 278.828125 223.398438 C 278.828125 222.4375 279.3125 220.039062 277.988281 220.039062 C 277.988281 217.761719 279.796875 214.835938 279.667969 214.578125 C 278.929688 213.101562 274.753906 211.804688 276.308594 208.703125 C 276.53125 208.253906 279.980469 211.695312 281.765625 210.800781 C 281.765625 210.800781 281.347656 209.539062 281.347656 209.539062 C 281.347656 208.273438 284.066406 207.421875 283.027344 205.34375 C 282.5 204.285156 280.621094 202.597656 281.347656 201.140625 C 281.941406 199.957031 286.640625 194.929688 286.386719 194.421875 C 286.386719 194.421875 283.867188 192.742188 283.867188 192.742188 C 283.867188 192.742188 285.546875 191.0625 285.546875 191.0625 C 285.546875 189.453125 292.0625 182.246094 286.386719 182.246094 C 286.386719 180.808594 288.546875 179.726562 289.746094 179.726562 C 292.980469 179.726562 291.722656 181.765625 294.367188 183.085938 C 294.367188 183.085938 297.726562 183.085938 297.726562 183.085938 C 305.5 186.972656 303.183594 199.9375 303.183594 207.023438 C 303.183594 207.023438 304.863281 207.859375 304.863281 207.859375 C 304.863281 207.859375 302.34375 209.539062 302.34375 209.539062 C 302.34375 209.539062 303.183594 211.21875 303.183594 211.21875 C 300.957031 215.675781 297.304688 218.367188 297.304688 224.238281 C 297.304688 224.238281 294.785156 225.917969 294.785156 225.917969 C 294.785156 225.917969 293.945312 226.757812 293.945312 226.757812 Z M 293.945312 226.757812 "/>
<path style=" stroke:none;fill-rule:nonzero;fill:rgb(1.176471%,75.686276%,17.647059%);fill-opacity:1;" d="M 323.339844 181.40625 C 323.339844 183.445312 322.480469 186.445312 325.019531 186.445312 C 325.019531 185.257812 323.339844 179.816406 323.339844 181.40625 Z M 323.339844 181.40625 "/>
<path style=" stroke:none;fill-rule:nonzero;fill:rgb(100%,56.862748%,72.941178%);fill-opacity:1;" d="M 133.535156 219.199219 C 133.535156 220.144531 134.351562 223.867188 133.535156 225.5 C 132.925781 226.714844 122.769531 233.761719 118.835938 231.796875 L 115.058594 229.277344 C 115.058594 223.191406 102.464844 208.691406 106.660156 200.304688 C 108.933594 195.753906 110.390625 190.695312 114.21875 186.867188 C 114.21875 186.867188 120.097656 182.246094 120.097656 182.246094 C 123.644531 182.246094 125.320312 185.554688 126.816406 188.546875 C 127.945312 190.800781 124.542969 193.234375 125.136719 194.421875 C 125.136719 194.421875 128.496094 198.625 128.496094 198.625 C 128.496094 198.625 126.816406 201.140625 126.816406 201.140625 C 126.816406 205.496094 133.535156 208.625 133.535156 212.898438 C 133.535156 212.898438 131.015625 213.742188 131.015625 213.742188 C 131.015625 215.054688 133.535156 216.488281 133.535156 218.359375 C 133.535156 218.359375 133.535156 219.199219 133.535156 219.199219 Z M 133.535156 219.199219 "/>
<path style=" stroke:none;fill-rule:nonzero;fill:rgb(88.235295%,94.117647%,5.098039%);fill-opacity:1;" d="M 251.953125 216.679688 C 253.710938 216.679688 252.5 218.359375 251.113281 218.359375 C 251.113281 218.359375 251.953125 216.679688 251.953125 216.679688 Z M 251.953125 216.679688 "/>
<path style=" stroke:none;fill-rule:nonzero;fill:rgb(88.235295%,94.117647%,5.098039%);fill-opacity:1;" d="M 265.390625 289.746094 C 266.433594 289.746094 273.347656 291.4375 273.367188 291.425781 L 275.890625 289.746094 L 279.25 293.945312 C 281.160156 294.902344 284.863281 292.554688 285.96875 293.105469 C 287.140625 293.695312 288.484375 295.625 290.164062 296.464844 C 292.753906 297.757812 295.742188 293.105469 298.144531 293.105469 C 298.144531 293.105469 308.222656 270.851562 308.222656 270.851562 C 310.441406 266.410156 310.988281 261.113281 313.261719 256.570312 C 313.261719 256.570312 310.742188 253.210938 310.742188 253.210938 C 310.742188 253.210938 312.421875 249.015625 312.421875 249.015625 C 312.421875 249.015625 311.582031 239.355469 311.582031 239.355469 C 303.117188 239.355469 293.945312 235.792969 293.945312 227.597656 C 293.042969 227.597656 292.71875 231.78125 291.007812 232.636719 C 291.007812 232.636719 288.484375 230.957031 288.484375 230.957031 C 288.484375 230.957031 286.804688 231.796875 286.804688 231.796875 C 286.804688 231.796875 281.347656 228.015625 281.347656 228.015625 C 280.753906 226.832031 281.023438 223.398438 278.828125 223.398438 C 278.828125 223.398438 277.988281 223.398438 277.988281 223.398438 C 275.503906 223.398438 267.773438 228.4375 266.648438 228.4375 C 266.648438 228.4375 264.96875 225.917969 264.96875 225.917969 C 260.925781 225.917969 260.585938 225.40625 256.570312 223.398438 C 254.753906 222.488281 251.113281 220.902344 251.113281 218.359375 C 247.425781 218.359375 248.949219 222.59375 247.335938 223.398438 C 244.457031 224.835938 234.316406 227.976562 234.316406 231.796875 C 234.316406 231.796875 234.316406 234.316406 234.316406 234.316406 C 234.316406 234.316406 234.316406 239.773438 234.316406 239.773438 C 234.316406 239.773438 229.277344 243.554688 229.277344 243.554688 C 229.277344 244.9375 233.832031 252.246094 235.15625 254.890625 C 237.660156 259.902344 234.316406 265.570312 234.316406 270.429688 C 239.136719 270.429688 250.273438 262.320312 250.273438 272.109375 C 250.273438 272.109375 259.511719 276.726562 259.511719 276.726562 C 260.980469 279.667969 257.5625 288.066406 262.871094 288.066406 C 262.871094 288.066406 265.390625 289.746094 265.390625 289.746094 Z M 265.390625 289.746094 "/>
<path style=" stroke:none;fill-rule:nonzero;fill:rgb(88.235295%,94.117647%,5.098039%);fill-opacity:1;" d="M 162.929688 273.789062 C 152.722656 273.789062 149.996094 284.246094 144.03125 287.226562 C 141.191406 288.648438 138.550781 290.808594 135.632812 292.265625 C 133.652344 293.257812 130.96875 292.917969 128.914062 293.945312 C 127.210938 294.796875 117.578125 294.410156 117.578125 292.265625 C 117.578125 288.722656 104.710938 274.511719 102.460938 270.007812 C 102.460938 270.007812 97.421875 259.09375 97.421875 259.09375 C 97.421875 259.09375 98.261719 245.65625 98.261719 245.65625 C 95.609375 240.347656 94.902344 242.09375 94.902344 235.996094 C 96.613281 235.996094 100.636719 239.355469 102.882812 239.355469 C 105.878906 239.355469 115.058594 231.542969 115.058594 229.277344 C 115.058594 229.277344 118.835938 231.796875 118.835938 231.796875 C 122.769531 233.761719 132.925781 226.714844 133.535156 225.5 C 134.351562 223.867188 133.535156 220.144531 133.535156 219.199219 C 133.535156 219.199219 134.375 219.199219 134.375 219.199219 C 137.238281 219.199219 140.433594 225.796875 142.351562 226.757812 C 144.402344 227.78125 145.753906 226.757812 147.390625 226.757812 C 153.914062 226.757812 157.050781 227.839844 157.050781 219.199219 C 163.296875 219.199219 174.675781 234.316406 178.046875 234.316406 C 178.046875 235.195312 178.445312 236.835938 177.207031 236.835938 C 172.828125 236.835938 177.207031 243.671875 177.207031 244.394531 C 177.207031 244.394531 177.207031 246.074219 177.207031 246.074219 C 177.207031 254.21875 173.007812 262.453125 173.007812 270.429688 C 173.007812 270.429688 172.167969 270.429688 172.167969 270.429688 C 169.441406 270.429688 162.929688 266.675781 162.929688 273.789062 Z M 162.929688 273.789062 "/>
<path style=" stroke:none;fill-rule:nonzero;fill:rgb(88.235295%,94.117647%,5.098039%);fill-opacity:1;" d="M 297.304688 224.238281 L 294.785156 225.917969 C 296.46875 225.917969 297.304688 226.164062 297.304688 224.238281 Z M 297.304688 224.238281 "/>
<path style=" stroke:none;fill-rule:nonzero;fill:rgb(88.235295%,94.117647%,5.098039%);fill-opacity:1;" d="M 294.785156 225.917969 L 293.945312 226.757812 C 293.945312 226.757812 294.785156 225.917969 294.785156 225.917969 Z M 294.785156 225.917969 "/>
<path style=" stroke:none;fill-rule:nonzero;fill:rgb(0.784314%,17.254902%,100%);fill-opacity:1;" d="M 203.242188 235.996094 L 203.242188 266.648438 C 203.242188 267.914062 202.535156 276.871094 205.34375 275.46875 L 205.761719 235.996094 C 205.761719 228.351562 203.242188 226.953125 203.242188 235.996094 Z M 203.242188 235.996094 "/>
<path style=" stroke:none;fill-rule:nonzero;fill:rgb(8.235294%,75.294119%,100%);fill-opacity:1;" d="M 230.117188 233.476562 L 231.796875 235.578125 C 232.628906 237.238281 230.957031 239.132812 230.957031 239.773438 L 227.179688 240.195312 C 224.304688 238.757812 224.238281 237.335938 224.238281 234.316406 C 224.238281 234.316406 228.4375 232.636719 228.4375 232.636719 C 228.4375 232.636719 230.117188 233.476562 230.117188 233.476562 Z M 230.117188 233.476562 "/>
<path style=" stroke:none;fill-rule:nonzero;fill:rgb(0%,3.137255%,71.372551%);fill-opacity:1;" d="M 220.878906 237.675781 C 220.878906 242.703125 225.121094 243.554688 229.277344 243.554688 C 229.277344 243.554688 234.316406 239.773438 234.316406 239.773438 C 234.316406 239.773438 234.316406 234.316406 234.316406 234.316406 C 234.316406 234.316406 232.636719 232.636719 232.636719 232.636719 C 232.636719 232.636719 230.117188 232.636719 230.117188 232.636719 C 230.117188 232.636719 230.117188 233.476562 230.117188 233.476562 C 230.117188 233.476562 231.796875 235.578125 231.796875 235.578125 C 232.628906 237.238281 230.957031 239.132812 230.957031 239.773438 C 230.957031 239.773438 227.179688 240.195312 227.179688 240.195312 C 224.304688 238.757812 224.238281 237.335938 224.238281 234.316406 C 224.238281 234.316406 220.878906 235.996094 220.878906 235.996094 C 220.878906 235.996094 220.878906 237.675781 220.878906 237.675781 Z M 220.878906 237.675781 "/>
<path style=" stroke:none;fill-rule:nonzero;fill:rgb(8.235294%,75.294119%,100%);fill-opacity:1;" d="M 184.765625 235.15625 C 184.765625 243.5 177.207031 243.855469 177.207031 236.835938 C 178.445312 236.835938 178.046875 235.195312 178.046875 234.316406 C 180.148438 234.316406 182.664062 235.15625 184.765625 235.15625 Z M 184.765625 235.15625 "/>
<path style=" stroke:none;fill-rule:nonzero;fill:rgb(0%,3.137255%,71.372551%);fill-opacity:1;" d="M 177.207031 244.394531 L 178.046875 245.234375 C 184.046875 245.234375 188.125 241.699219 188.125 235.996094 C 188.125 235.996094 184.765625 235.15625 184.765625 235.15625 C 184.765625 243.5 177.207031 243.855469 177.207031 236.835938 C 172.828125 236.835938 177.207031 243.671875 177.207031 244.394531 Z M 177.207031 244.394531 "/>
<path style=" stroke:none;fill-rule:evenodd;fill:rgb(88.627452%,47.058824%,63.137257%);fill-opacity:1;" d="M 174.6875 265.390625 C 174.6875 269.824219 177.320312 265.390625 174.6875 265.390625 M 202.402344 280.507812 L 212.480469 280.507812 C 212.480469 279.066406 217.179688 279.667969 218.359375 279.667969 C 218.359375 279.667969 221.71875 279.667969 221.71875 279.667969 C 221.71875 279.667969 222.558594 278.828125 222.558594 278.828125 C 222.558594 277.589844 224.199219 277.988281 225.078125 277.988281 C 225.078125 277.988281 225.917969 277.148438 225.917969 277.148438 C 225.917969 276.152344 226.757812 276.152344 226.757812 277.148438 C 226.757812 277.148438 230.117188 274.628906 230.117188 274.628906 C 230.117188 273.875 231.796875 272.085938 231.796875 273.789062 C 231.796875 273.789062 233.476562 272.109375 233.476562 272.109375 C 233.476562 272.109375 234.316406 271.269531 234.316406 271.269531 C 234.316406 271.269531 234.316406 270.429688 234.316406 270.429688 C 234.316406 265.570312 237.660156 259.902344 235.15625 254.890625 C 233.832031 252.246094 229.277344 244.9375 229.277344 243.554688 C 225.121094 243.554688 220.878906 242.703125 220.878906 237.675781 C 220.070312 237.675781 212.480469 236.585938 212.480469 235.996094 C 212.480469 235.996094 205.761719 235.996094 205.761719 235.996094 C 205.761719 235.996094 205.34375 275.46875 205.34375 275.46875 C 202.535156 276.871094 203.242188 267.914062 203.242188 266.648438 C 203.242188 266.648438 203.242188 235.996094 203.242188 235.996094 C 198.03125 235.996094 193.003906 235.996094 188.125 235.996094 C 188.125 241.699219 184.046875 245.234375 178.046875 245.234375 C 178.046875 245.234375 177.207031 246.074219 177.207031 246.074219 C 177.207031 254.21875 173.007812 262.453125 173.007812 270.429688 C 173.007812 270.429688 173.847656 272.109375 173.847656 272.109375 C 173.847656 272.109375 180.566406 276.308594 180.566406 276.308594 C 180.566406 276.308594 182.246094 277.988281 182.246094 277.988281 C 182.246094 277.988281 183.925781 278.828125 183.925781 278.828125 C 188.308594 278.828125 193.339844 279.667969 198.203125 279.667969 C 199.242188 279.667969 202.402344 279.128906 202.402344 280.507812 Z M 202.402344 280.507812 "/>
<path style=" stroke:none;fill-rule:nonzero;fill:rgb(88.235295%,94.117647%,5.098039%);fill-opacity:1;" d="M 174.6875 265.390625 C 174.6875 269.824219 177.320312 265.390625 174.6875 265.390625 Z M 174.6875 265.390625 "/>
<path style=" stroke:none;fill-rule:nonzero;fill:rgb(14.901961%,49.411765%,100%);fill-opacity:1;" d="M 225.078125 277.988281 C 225.078125 279.332031 222.511719 279.992188 223.398438 281.765625 L 225.078125 283.027344 C 232.082031 283.027344 250.273438 280.824219 250.273438 272.109375 C 250.273438 262.320312 239.136719 270.429688 234.316406 270.429688 C 234.316406 270.429688 234.316406 271.269531 234.316406 271.269531 C 234.316406 271.269531 233.476562 272.109375 233.476562 272.109375 C 233.476562 272.109375 231.796875 273.789062 231.796875 273.789062 C 231.796875 273.789062 230.117188 274.628906 230.117188 274.628906 C 230.117188 274.628906 226.757812 277.148438 226.757812 277.148438 C 226.757812 277.148438 225.917969 277.148438 225.917969 277.148438 C 225.917969 277.148438 225.078125 277.988281 225.078125 277.988281 Z M 225.078125 277.988281 "/>
<path style=" stroke:none;fill-rule:nonzero;fill:rgb(14.901961%,49.411765%,100%);fill-opacity:1;" d="M 180.566406 277.988281 C 176.167969 277.988281 182.246094 279.105469 182.246094 279.25 L 180.566406 280.085938 C 180.566406 280.507812 184.316406 282.1875 180.566406 282.1875 C 173.785156 282.1875 162.929688 280.921875 162.929688 273.789062 C 162.929688 266.675781 169.441406 270.429688 172.167969 270.429688 C 172.167969 270.429688 173.847656 272.109375 173.847656 272.109375 C 173.847656 272.109375 180.566406 276.308594 180.566406 276.308594 C 180.566406 276.308594 180.566406 277.988281 180.566406 277.988281 Z M 180.566406 277.988281 "/>
<path style=" stroke:none;fill-rule:nonzero;fill:rgb(88.235295%,94.117647%,5.098039%);fill-opacity:1;" d="M 234.316406 271.269531 L 233.476562 272.109375 C 233.476562 272.109375 234.316406 271.269531 234.316406 271.269531 Z M 234.316406 271.269531 "/>
<path style=" stroke:none;fill-rule:nonzero;fill:rgb(98.039216%,66.666669%,25.098041%);fill-opacity:1;" d="M 231.796875 273.789062 L 230.117188 274.628906 C 230.117188 273.875 231.796875 272.085938 231.796875 273.789062 Z M 231.796875 273.789062 "/>
<path style=" stroke:none;fill-rule:nonzero;fill:rgb(98.039216%,66.666669%,25.098041%);fill-opacity:1;" d="M 180.566406 282.1875 C 180.566406 285.257812 185.355469 283.113281 186.867188 283.867188 L 190.226562 286.386719 C 192.089844 287.316406 213.796875 286.777344 216.257812 285.546875 C 218.75 284.300781 222.175781 283.027344 225.078125 283.027344 C 225.078125 283.027344 223.398438 281.765625 223.398438 281.765625 C 222.511719 279.992188 225.078125 279.332031 225.078125 277.988281 C 224.199219 277.988281 222.558594 277.589844 222.558594 278.828125 C 222.558594 278.828125 221.71875 279.667969 221.71875 279.667969 C 221.71875 279.667969 218.359375 279.667969 218.359375 279.667969 C 218.359375 281.109375 213.660156 280.507812 212.480469 280.507812 C 212.480469 280.507812 202.402344 280.507812 202.402344 280.507812 C 199.191406 280.507812 183.925781 281.824219 183.925781 278.828125 C 183.925781 278.828125 182.246094 277.988281 182.246094 277.988281 C 182.246094 277.988281 180.566406 277.988281 180.566406 277.988281 C 176.167969 277.988281 182.246094 279.105469 182.246094 279.25 C 182.246094 279.25 180.566406 280.085938 180.566406 280.085938 C 180.566406 280.507812 184.316406 282.1875 180.566406 282.1875 Z M 180.566406 282.1875 "/>
<path style=" stroke:none;fill-rule:evenodd;fill:rgb(98.039216%,50.196081%,44.705883%);fill-opacity:1;" d="M 252.792969 300.664062 L 253.632812 304.863281 L 253.632812 308.222656 C 253.632812 320.6875 257.695312 300.664062 252.792969 300.664062 M 262.871094 288.066406 L 265.390625 289.746094 C 265.390625 295.058594 274.566406 298.441406 275.46875 300.242188 C 277 303.304688 275.46875 305.828125 275.46875 308.640625 C 275.46875 309.808594 277.160156 311.976562 276.308594 313.679688 C 275.089844 316.117188 271.386719 315.964844 270.429688 317.882812 C 269.480469 319.777344 268.984375 327.445312 264.132812 325.019531 C 264.132812 325.019531 261.191406 323.339844 261.191406 323.339844 C 259.277344 323.339844 256.640625 325.019531 254.890625 325.019531 C 254.890625 325.019531 251.53125 321.660156 251.53125 321.660156 C 251.53125 321.660156 248.171875 325.019531 248.171875 325.019531 C 245.445312 325.019531 243.511719 316.113281 242.714844 314.523438 C 242.714844 314.523438 236.835938 312 236.835938 312 C 235.953125 310.238281 235.375 298.125 235.996094 296.882812 C 237.1875 294.5 244.707031 291.058594 247.335938 289.746094 C 249.109375 288.859375 252.574219 291.324219 254.054688 290.585938 C 254.054688 290.585938 256.570312 288.066406 256.570312 288.066406 C 257.3125 288.066406 262.871094 291.777344 262.871094 288.066406 Z M 262.871094 288.066406 "/>
<path style=" stroke:none;fill-rule:nonzero;fill:rgb(98.039216%,50.196081%,44.705883%);fill-opacity:1;" d="M 151.171875 289.746094 C 151.171875 291.613281 144.226562 293.75 142.773438 295.203125 C 140.050781 297.925781 141.597656 302.34375 140.671875 302.34375 L 139.835938 298.984375 L 138.992188 300.664062 C 136.226562 302.046875 132.4375 303.277344 131.015625 306.125 C 129.804688 308.546875 135.484375 312.34375 137.3125 313.261719 C 139.082031 314.144531 139.558594 311.582031 140.671875 311.582031 L 142.773438 313.679688 C 142.773438 314.949219 140.054688 315.800781 141.09375 317.882812 C 142.003906 319.703125 146.9375 326.699219 149.070312 326.699219 L 152.429688 324.179688 C 156.730469 324.179688 177.191406 321.210938 173.007812 312.84375 C 170.726562 308.277344 165.605469 316.511719 163.769531 312.84375 C 162.414062 310.132812 169.097656 312.261719 170.488281 309.484375 L 169.648438 306.960938 C 168.957031 305.582031 171.945312 304.542969 169.226562 303.183594 C 168.15625 302.648438 163.878906 302.980469 163.769531 302.765625 L 163.769531 295.203125 C 162.089844 291.84375 155.359375 289.746094 151.171875 289.746094 Z M 151.171875 289.746094 "/>
<path style=" stroke:none;fill-rule:nonzero;fill:rgb(98.039216%,50.196081%,44.705883%);fill-opacity:1;" d="M 298.984375 301.503906 C 298.984375 303.4375 291.40625 302.144531 291.007812 302.34375 C 289.378906 303.15625 287.226562 305.492188 285.125 306.542969 C 281.890625 308.160156 284.460938 313.261719 285.96875 313.261719 L 288.066406 315.359375 C 288.480469 316.191406 283.363281 318.679688 285.96875 319.980469 C 288.085938 321.039062 289.9375 315.894531 291.84375 314.941406 C 293.683594 314.023438 305.96875 309.792969 306.542969 308.640625 C 307.800781 306.125 304.515625 307.109375 304.023438 306.125 C 302.851562 303.777344 306.117188 301.503906 298.984375 301.503906 Z M 298.984375 301.503906 "/>
<path style=" stroke:none;fill-rule:nonzero;fill:rgb(98.039216%,50.196081%,44.705883%);fill-opacity:1;" d="M 110.859375 302.34375 C 110.859375 304.417969 100.660156 303.363281 103.300781 308.640625 C 105.132812 312.304688 120.511719 319.984375 123.875 318.300781 L 125.554688 315.78125 C 133.101562 312.007812 123.085938 306.148438 118.835938 304.023438 C 117.300781 303.253906 113.246094 302.34375 110.859375 302.34375 Z M 110.859375 302.34375 "/>
<path style=" stroke:none;fill-rule:nonzero;fill:rgb(98.039216%,50.196081%,44.705883%);fill-opacity:1;" d="M 298.984375 322.5 C 298.984375 323.667969 299.679688 329.21875 297.726562 329.21875 L 296.882812 324.179688 C 294.851562 324.179688 287.195312 325.378906 289.746094 330.476562 C 291.207031 333.398438 305.988281 344.1875 309.0625 338.039062 C 310.777344 334.605469 302.492188 327.824219 300.242188 326.699219 C 298.886719 326.019531 300.953125 322.5 298.984375 322.5 Z M 298.984375 322.5 "/>
<path style=" stroke:none;fill-rule:nonzero;fill:rgb(98.039216%,50.196081%,44.705883%);fill-opacity:1;" d="M 112.539062 331.738281 C 112.539062 337.542969 99.574219 335.625 103.300781 343.078125 L 105.398438 346.855469 C 110.730469 349.519531 121.464844 331.738281 112.539062 331.738281 Z M 112.539062 331.738281 "/>
</g>
</svg>
