<?xml version="1.0" encoding="UTF-8"?>
<svg xmlns="http://www.w3.org/2000/svg" xmlns:xlink="http://www.w3.org/1999/xlink" width="430px" height="430px" viewBox="0 0 430 430" version="1.1">
<g id="surface1">
<rect x="0" y="0" width="430" height="430" style="fill:rgb(0%,0%,0%);fill-opacity:1;stroke:none;"/>
<path style=" stroke:none;fill-rule:evenodd;fill:rgb(52.549022%,100%,35.294119%);fill-opacity:1;" d="M 200.722656 261.191406 L 199.042969 265.8125 C 204.125 275.972656 219.390625 261.191406 206.179688 261.191406 C 204.632812 261.191406 202.484375 261.191406 200.722656 261.191406 M 180.566406 235.996094 C 180.566406 237.730469 177.75 236.355469 176.789062 236.835938 C 173.203125 238.628906 169.828125 239.476562 166.710938 241.035156 C 157.917969 245.429688 156.117188 259.746094 160.410156 268.328125 L 159.570312 273.367188 C 162.882812 279.996094 170.894531 298.144531 176.789062 298.144531 L 180.148438 302.34375 L 198.625 303.183594 C 199.546875 302.722656 203.5625 296.414062 205.34375 297.304688 L 209.960938 301.085938 L 210.382812 304.023438 C 213.898438 305.78125 222.746094 303.71875 225.5 302.34375 C 227.726562 301.230469 230.730469 300.988281 233.054688 299.824219 C 235.707031 298.5 248.648438 281.664062 250.273438 278.40625 L 251.113281 270.007812 C 253.195312 265.847656 255.179688 257.148438 252.792969 252.375 C 246.214844 239.214844 235.058594 241.195312 224.65625 235.996094 C 223.039062 235.1875 208.773438 238.480469 207.023438 239.355469 L 201.140625 237.675781 C 196.824219 239.835938 198.347656 237.957031 194.421875 235.996094 C 193.445312 235.507812 183.269531 235.996094 180.566406 235.996094 Z M 180.566406 235.996094 "/>
<path style=" stroke:none;fill-rule:evenodd;fill:rgb(92.156863%,34.117648%,100%);fill-opacity:1;" d="M 204.921875 265.390625 C 204.921875 267.011719 206.542969 265.390625 204.921875 265.390625 M 200.722656 261.191406 L 199.042969 265.8125 C 204.125 275.972656 219.390625 261.191406 206.179688 261.191406 C 204.632812 261.191406 202.484375 261.191406 200.722656 261.191406 Z M 200.722656 261.191406 "/>
<path style=" stroke:none;fill-rule:nonzero;fill:rgb(15.294118%,95.686275%,99.215686%);fill-opacity:1;" d="M 204.921875 265.390625 C 204.921875 267.011719 206.542969 265.390625 204.921875 265.390625 Z M 204.921875 265.390625 "/>
</g>
</svg>
