<?xml version="1.0" encoding="UTF-8"?>
<svg xmlns="http://www.w3.org/2000/svg" xmlns:xlink="http://www.w3.org/1999/xlink" width="430px" height="430px" viewBox="0 0 430 430" version="1.1">
<g id="surface1">
<rect x="0" y="0" width="430" height="430" style="fill:rgb(0%,0%,0%);fill-opacity:1;stroke:none;"/>
<path style=" stroke:none;fill-rule:evenodd;fill:rgb(52.549022%,100%,35.294119%);fill-opacity:1;" d="M 199.882812 267.910156 L 199.042969 271.6875 C 199.890625 273.382812 204.359375 276.378906 206.179688 275.46875 C 207.515625 274.800781 211.894531 272.195312 210.800781 270.007812 C 210.023438 268.457031 202.558594 267.910156 199.882812 267.910156 M 188.964844 240.195312 L 188.546875 242.714844 C 186.929688 242.714844 184.386719 241.015625 182.664062 241.875 C 178.601562 243.90625 175.8125 245.234375 171.75 245.234375 L 170.90625 247.753906 C 163.988281 247.753906 163.746094 255.78125 161.25 260.773438 C 159.53125 264.207031 162.089844 270.578125 162.089844 273.789062 C 162.089844 284.703125 165.058594 296.480469 175.109375 301.503906 L 176.789062 305.703125 C 181.15625 307.886719 185.914062 309.425781 190.226562 311.582031 C 196.941406 314.941406 202.546875 306.542969 204.5 306.542969 C 207.8125 306.542969 207.484375 311.394531 209.539062 312.421875 C 212.65625 313.980469 222.164062 311.988281 224.65625 310.742188 C 226.101562 310.019531 238.386719 301.339844 238.515625 301.085938 C 240.328125 297.460938 243.378906 290.882812 245.65625 289.746094 C 248.480469 288.332031 249.433594 275.480469 249.433594 271.6875 L 249.433594 258.25 C 245.828125 251.042969 238.070312 245.234375 230.539062 245.234375 C 228.105469 245.234375 225.105469 241.875 222.976562 241.875 C 222.113281 241.875 218.90625 240.132812 217.101562 241.035156 C 213.726562 242.722656 204.804688 245.804688 200.304688 243.554688 C 195.699219 241.253906 194.359375 240.195312 188.964844 240.195312 Z M 188.964844 240.195312 "/>
<path style=" stroke:none;fill-rule:evenodd;fill:rgb(92.156863%,34.117648%,100%);fill-opacity:1;" d="M 204.921875 271.269531 C 204.921875 275.949219 207.5625 271.269531 204.921875 271.269531 M 199.882812 267.910156 L 199.042969 271.6875 C 199.890625 273.382812 204.359375 276.378906 206.179688 275.46875 C 207.515625 274.800781 211.894531 272.195312 210.800781 270.007812 C 210.023438 268.457031 202.558594 267.910156 199.882812 267.910156 Z M 199.882812 267.910156 "/>
<path style=" stroke:none;fill-rule:nonzero;fill:rgb(15.294118%,95.686275%,99.215686%);fill-opacity:1;" d="M 204.921875 271.269531 C 204.921875 275.949219 207.5625 271.269531 204.921875 271.269531 Z M 204.921875 271.269531 "/>
</g>
</svg>
