<?xml version="1.0" encoding="UTF-8"?>
<svg xmlns="http://www.w3.org/2000/svg" xmlns:xlink="http://www.w3.org/1999/xlink" width="430px" height="430px" viewBox="0 0 430 430" version="1.1">
<g id="surface1">
<rect x="0" y="0" width="430" height="430" style="fill:rgb(0%,0%,0%);fill-opacity:1;stroke:none;"/>
<path style=" stroke:none;fill-rule:nonzero;fill:rgb(100%,89.019608%,0%);fill-opacity:1;" d="M 212.480469 127.65625 C 218.539062 127.65625 223.96875 126.472656 229.695312 129.335938 C 235.480469 132.226562 236.488281 153.964844 233.476562 159.992188 L 234.316406 164.609375 L 232.636719 168.390625 C 232.636719 173.125 232.746094 183.085938 225.078125 183.085938 C 225.078125 184.652344 230.449219 188.71875 230.957031 187.703125 C 235.65625 178.304688 232.941406 156.863281 236.835938 149.070312 C 236.835938 149.070312 239.355469 147.390625 239.355469 147.390625 C 240.105469 145.894531 242.761719 135.730469 242.714844 135.632812 C 239.78125 129.765625 229.140625 123.457031 222.976562 123.457031 C 219.746094 123.457031 212.480469 123.472656 212.480469 127.65625 Z M 212.480469 127.65625 "/>
<path style=" stroke:none;fill-rule:nonzero;fill:rgb(100%,89.019608%,0%);fill-opacity:1;" d="M 194.84375 126.816406 C 169.148438 126.816406 173.007812 144.203125 173.007812 164.609375 C 173.007812 164.609375 171.328125 162.507812 171.328125 162.507812 C 171.328125 160.011719 172.003906 152.941406 170.488281 149.914062 C 163.105469 135.144531 165.335938 132.964844 180.984375 125.136719 C 183.46875 123.894531 194.84375 122.707031 194.84375 126.816406 Z M 194.84375 126.816406 "/>
<path style=" stroke:none;fill-rule:nonzero;fill:rgb(100%,52.941179%,0%);fill-opacity:1;" d="M 174.6875 170.488281 L 174.6875 172.167969 C 175.4375 172.167969 178.730469 180.433594 181.828125 178.886719 C 183.722656 177.9375 185.503906 176.207031 186.867188 175.527344 C 186.867188 175.527344 189.804688 175.109375 189.804688 175.109375 C 191.691406 171.335938 192.289062 165.941406 193.164062 164.1875 C 196.132812 158.253906 199.625 153.785156 202.402344 148.234375 C 203.15625 146.726562 201.5625 134.121094 201.5625 131.855469 C 201.5625 127.800781 199.011719 126.816406 194.84375 126.816406 C 169.148438 126.816406 173.007812 144.203125 173.007812 164.609375 C 173.007812 164.609375 173.007812 165.449219 173.007812 165.449219 C 175.273438 165.449219 174.6875 169.023438 174.6875 170.488281 Z M 174.6875 170.488281 "/>
<path style=" stroke:none;fill-rule:nonzero;fill:rgb(100%,52.941179%,0%);fill-opacity:1;" d="M 219.199219 178.886719 C 219.199219 180.195312 223.441406 183.085938 225.078125 183.085938 C 232.746094 183.085938 232.636719 173.125 232.636719 168.390625 C 232.636719 168.390625 234.316406 164.609375 234.316406 164.609375 C 234.316406 164.609375 233.476562 159.992188 233.476562 159.992188 C 236.488281 153.964844 235.480469 132.226562 229.695312 129.335938 C 223.96875 126.472656 218.539062 127.65625 212.480469 127.65625 C 209.199219 127.65625 204.921875 128.464844 204.921875 131.855469 C 204.921875 142.871094 207.152344 149.332031 211.640625 158.3125 C 211.640625 158.3125 214.160156 170.070312 214.160156 170.070312 C 215.574219 172.898438 219.199219 175.480469 219.199219 178.886719 Z M 219.199219 178.886719 "/>
<path style=" stroke:none;fill-rule:nonzero;fill:rgb(100%,89.019608%,0%);fill-opacity:1;" d="M 174.6875 172.167969 C 174.6875 175.136719 173.875 181.039062 175.527344 184.34375 C 175.851562 184.992188 177.980469 183.925781 178.46875 183.925781 C 179.304688 183.925781 180.464844 185.445312 181.828125 184.765625 C 183.601562 183.878906 181.945312 182.605469 182.664062 182.246094 C 185.386719 180.886719 195.070312 177.171875 196.523438 174.265625 L 195.683594 171.75 L 201.140625 170.488281 C 202.566406 169.777344 202.113281 156.058594 201.5625 154.953125 L 204.5 149.492188 C 208.304688 149.492188 205.742188 157.429688 206.601562 159.148438 C 208.792969 163.53125 204.820312 173.167969 211.21875 176.367188 L 214.578125 176.367188 C 215.726562 176.941406 214.015625 178.886719 219.199219 178.886719 C 219.199219 175.480469 215.574219 172.898438 214.160156 170.070312 C 214.160156 170.070312 211.640625 158.3125 211.640625 158.3125 C 207.152344 149.332031 204.921875 142.871094 204.921875 131.855469 C 204.921875 131.855469 201.5625 131.855469 201.5625 131.855469 C 201.5625 134.121094 203.15625 146.726562 202.402344 148.234375 C 199.625 153.785156 196.132812 158.253906 193.164062 164.1875 C 192.289062 165.941406 191.691406 171.335938 189.804688 175.109375 C 189.804688 175.109375 186.867188 175.527344 186.867188 175.527344 C 185.503906 176.207031 183.722656 177.9375 181.828125 178.886719 C 178.730469 180.433594 175.4375 172.167969 174.6875 172.167969 Z M 174.6875 172.167969 "/>
<path style=" stroke:none;fill-rule:nonzero;fill:rgb(100%,89.019608%,0%);fill-opacity:1;" d="M 173.007812 165.449219 C 175.273438 165.449219 174.6875 169.023438 174.6875 170.488281 C 173.011719 170.488281 173.007812 166.8125 173.007812 165.449219 Z M 173.007812 165.449219 "/>
<path style=" stroke:none;fill-rule:evenodd;fill:rgb(98.039216%,50.196081%,44.705883%);fill-opacity:1;" d="M 282.1875 317.460938 L 281.347656 318.71875 C 281.347656 323.464844 285.007812 317.460938 282.1875 317.460938 M 272.949219 296.464844 C 272.949219 298.050781 266.253906 304.492188 268.75 309.484375 C 269.613281 311.210938 277.015625 318.300781 270.851562 318.300781 L 270.429688 314.523438 C 268.59375 310.851562 263.027344 310.851562 261.191406 314.523438 C 257.492188 321.917969 270.003906 320.414062 268.75 322.921875 C 268.390625 323.636719 262.8125 322.203125 261.191406 325.4375 C 259.757812 328.304688 263.539062 334.132812 266.648438 332.578125 L 270.007812 330.058594 C 271.855469 330.058594 273.996094 334.785156 276.726562 333.417969 C 278.527344 332.519531 279.742188 332.082031 281.347656 330.476562 L 282.609375 328.378906 C 282.890625 328.378906 284.726562 333.796875 285.546875 332.15625 C 287.710938 327.828125 284.097656 314.144531 283.027344 312 C 282.511719 310.972656 283.125 302.121094 282.1875 300.242188 C 280.21875 296.304688 276.644531 296.464844 272.949219 296.464844 Z M 272.949219 296.464844 "/>
<path style=" stroke:none;fill-rule:nonzero;fill:rgb(98.039216%,50.196081%,44.705883%);fill-opacity:1;" d="M 136.054688 298.144531 L 131.015625 302.765625 C 130.421875 303.953125 133.824219 306.386719 132.695312 308.640625 L 127.65625 312 C 126.171875 314.96875 127.230469 318.707031 128.496094 321.242188 L 126.816406 328.796875 C 129.769531 334.703125 136.527344 331.34375 138.992188 332.578125 C 140.050781 333.105469 141.738281 334.984375 143.195312 334.257812 L 149.070312 330.898438 C 155.386719 327.742188 146.972656 323.722656 146.972656 321.660156 C 146.972656 311.238281 149.703125 298.144531 136.054688 298.144531 Z M 136.054688 298.144531 "/>
</g>
</svg>
