<?xml version="1.0" encoding="UTF-8"?>
<svg xmlns="http://www.w3.org/2000/svg" xmlns:xlink="http://www.w3.org/1999/xlink" width="430px" height="430px" viewBox="0 0 430 430" version="1.1">
<g id="surface1">
<rect x="0" y="0" width="430" height="430" style="fill:rgb(0%,0%,0%);fill-opacity:1;stroke:none;"/>
<path style=" stroke:none;fill-rule:nonzero;fill:rgb(100%,89.019608%,0%);fill-opacity:1;" d="M 203.242188 124.296875 L 204.921875 125.136719 C 204.921875 138.117188 207.953125 145.054688 213.320312 155.789062 C 217.84375 164.835938 212.804688 180.792969 219.199219 193.585938 C 221.589844 198.363281 233.566406 202.566406 238.9375 199.882812 C 238.9375 199.882812 241.875 199.460938 241.875 199.460938 C 243.472656 196.269531 247.460938 188.800781 245.234375 184.34375 C 244.484375 182.847656 242.101562 167.933594 242.714844 166.710938 C 249.351562 153.4375 255.222656 129.917969 237.257812 120.9375 C 232.953125 118.785156 228.148438 118.0625 223.820312 115.898438 C 219.203125 113.589844 215.707031 118.417969 211.640625 118.417969 C 211.640625 115.039062 220.851562 114.21875 223.820312 114.21875 C 231.355469 114.21875 235.539062 116.71875 242.296875 120.097656 C 242.296875 120.097656 246.492188 125.136719 246.492188 125.136719 C 246.492188 125.136719 249.433594 127.234375 249.433594 127.234375 C 249.433594 130.898438 254.179688 135.894531 256.152344 139.835938 C 256.152344 139.835938 255.3125 142.351562 255.3125 142.351562 C 255.3125 142.351562 256.992188 143.195312 256.992188 143.195312 C 257.46875 144.148438 256.53125 160.910156 255.3125 163.351562 C 252.878906 168.21875 250.011719 161.589844 247.335938 162.929688 C 245.453125 163.871094 246.542969 167.453125 246.074219 168.390625 C 243.566406 173.402344 246.683594 183.882812 248.59375 187.703125 C 248.59375 187.703125 248.59375 191.0625 248.59375 191.0625 C 248.59375 191.0625 246.914062 191.90625 246.914062 191.90625 C 245.402344 194.925781 247.628906 199.714844 246.074219 202.820312 C 246.074219 202.820312 242.296875 204.921875 242.296875 204.921875 C 242.296875 204.921875 240.617188 204.082031 240.617188 204.082031 C 232.398438 204.082031 238.257812 205.003906 231.375 201.5625 C 231.375 201.5625 220.460938 200.722656 220.460938 200.722656 C 220.140625 200.5625 216.480469 194.113281 214.578125 193.164062 C 212.480469 192.113281 208.410156 193.839844 207.441406 191.90625 C 207.441406 191.90625 206.601562 182.664062 206.601562 182.664062 C 206.601562 182.664062 209.121094 180.148438 209.121094 180.148438 C 209.121094 180.148438 206.601562 178.46875 206.601562 178.46875 C 204.1875 173.636719 208.226562 165.757812 205.761719 160.828125 C 205.761719 160.828125 205.34375 157.050781 205.34375 157.050781 C 203.699219 157.050781 203.242188 163.207031 203.242188 164.609375 C 203.242188 172.25 204.777344 182.960938 201.5625 189.382812 C 199.953125 192.601562 195.28125 191.894531 192.742188 193.164062 C 192.742188 193.164062 188.546875 201.5625 188.546875 201.5625 C 186.292969 202.6875 180.109375 205.761719 175.109375 205.761719 C 173.90625 205.761719 169.550781 204.664062 168.390625 204.082031 C 168.390625 204.082031 166.710938 201.5625 166.710938 201.5625 C 165.425781 201.5625 163.296875 201.878906 162.089844 199.460938 C 157.53125 190.34375 171.242188 182.492188 166.289062 172.585938 C 165.109375 170.230469 165.285156 168.515625 162.507812 167.128906 C 160.902344 166.324219 158.730469 170.066406 157.890625 168.390625 C 157.890625 168.390625 157.890625 161.671875 157.890625 161.671875 C 156.980469 159.851562 153.808594 157.707031 153.691406 157.46875 C 150.285156 150.65625 157.832031 129.871094 160.410156 124.71875 C 161.949219 121.636719 178.183594 113.238281 181.828125 115.058594 C 181.828125 115.058594 187.703125 116.738281 187.703125 116.738281 C 190.410156 116.738281 200.722656 116.234375 200.722656 120.097656 C 198.121094 120.097656 195.003906 118.707031 192.742188 117.578125 C 189.570312 115.992188 183.378906 118.0625 180.984375 119.257812 C 180.984375 119.257812 177.625 119.257812 177.625 119.257812 C 169.765625 123.1875 167.824219 123.328125 162.929688 133.117188 C 161.707031 135.5625 157.882812 139.820312 159.570312 143.195312 C 163.382812 150.816406 168.808594 165.617188 168.808594 173.429688 C 168.808594 179.316406 168 188.480469 165.449219 193.585938 C 164.34375 195.792969 167.96875 198.703125 167.96875 200.304688 C 167.96875 200.304688 167.546875 201.5625 167.546875 201.5625 C 172.472656 204.023438 188.824219 197.222656 190.644531 193.585938 C 190.644531 193.585938 194.84375 180.984375 194.84375 180.984375 C 197.484375 175.707031 192.996094 167.046875 195.683594 161.671875 C 195.683594 161.671875 194.84375 158.3125 194.84375 158.3125 C 200.398438 147.199219 203.242188 136.835938 203.242188 124.296875 Z M 203.242188 124.296875 "/>
<path style=" stroke:none;fill-rule:nonzero;fill:rgb(100%,52.941179%,0%);fill-opacity:1;" d="M 211.640625 118.417969 C 215.707031 118.417969 219.203125 113.589844 223.820312 115.898438 C 228.148438 118.0625 232.953125 118.785156 237.257812 120.9375 C 255.222656 129.917969 249.351562 153.4375 242.714844 166.710938 C 242.101562 167.933594 244.484375 182.847656 245.234375 184.34375 C 247.460938 188.800781 243.472656 196.269531 241.875 199.460938 L 238.9375 199.882812 C 233.566406 202.566406 221.589844 198.363281 219.199219 193.585938 C 212.804688 180.792969 217.84375 164.835938 213.320312 155.789062 C 207.953125 145.054688 204.921875 138.117188 204.921875 125.136719 C 206.601562 125.136719 208.269531 118.417969 211.640625 118.417969 Z M 211.640625 118.417969 "/>
<path style=" stroke:none;fill-rule:nonzero;fill:rgb(100%,52.941179%,0%);fill-opacity:1;" d="M 200.722656 120.097656 C 198.121094 120.097656 195.003906 118.707031 192.742188 117.578125 C 189.570312 115.992188 183.378906 118.0625 180.984375 119.257812 L 177.625 119.257812 C 169.765625 123.1875 167.824219 123.328125 162.929688 133.117188 C 161.707031 135.5625 157.882812 139.820312 159.570312 143.195312 C 163.382812 150.816406 168.808594 165.617188 168.808594 173.429688 C 168.808594 179.316406 168 188.480469 165.449219 193.585938 C 164.34375 195.792969 167.96875 198.703125 167.96875 200.304688 L 167.546875 201.5625 C 172.472656 204.023438 188.824219 197.222656 190.644531 193.585938 L 194.84375 180.984375 C 197.484375 175.707031 192.996094 167.046875 195.683594 161.671875 L 194.84375 158.3125 C 200.398438 147.199219 203.242188 136.835938 203.242188 124.296875 C 203.242188 121.703125 200.722656 122.394531 200.722656 120.097656 Z M 200.722656 120.097656 "/>
<path style=" stroke:none;fill-rule:nonzero;fill:rgb(98.039216%,50.196081%,44.705883%);fill-opacity:1;" d="M 264.550781 300.664062 L 261.609375 302.34375 C 261.417969 302.441406 258.707031 306.890625 258.671875 306.960938 C 256.746094 310.8125 262.871094 309.238281 262.871094 312 C 262.871094 313.3125 260.511719 311.582031 260.351562 311.582031 L 255.3125 313.679688 C 253.894531 316.519531 255.3125 318.222656 255.3125 320.820312 C 255.3125 326.742188 254.070312 333.828125 263.289062 329.21875 C 265.152344 328.289062 269.257812 329.460938 270.429688 327.117188 C 271.039062 325.898438 271.800781 315.582031 271.269531 314.523438 L 268.75 312 C 268.75 309.800781 276.761719 300.664062 264.550781 300.664062 Z M 264.550781 300.664062 "/>
<path style=" stroke:none;fill-rule:nonzero;fill:rgb(98.039216%,50.196081%,44.705883%);fill-opacity:1;" d="M 146.972656 301.503906 L 143.613281 304.445312 L 143.195312 309.902344 C 140.871094 309.902344 139.253906 309.804688 137.734375 312.84375 L 137.3125 319.140625 C 132.257812 321.667969 130.925781 318.898438 127.65625 325.4375 C 126.480469 327.792969 129.382812 333.230469 131.4375 334.257812 C 131.835938 334.457031 139.433594 334.457031 139.835938 334.257812 C 141.542969 333.40625 142.871094 330.898438 144.875 330.898438 C 146.132812 330.898438 147.34375 333.441406 149.070312 332.578125 C 149.863281 332.183594 153.035156 329.21875 153.273438 329.21875 L 154.953125 331.738281 L 160.828125 330.898438 C 163.425781 329.601562 163.945312 326.628906 162.929688 324.601562 C 161.496094 321.734375 156.210938 322.769531 156.210938 322.078125 C 156.210938 320.539062 159.152344 318.726562 157.890625 316.203125 L 154.53125 313.679688 C 151.710938 308.042969 157.496094 301.503906 146.972656 301.503906 Z M 146.972656 301.503906 "/>
<path style=" stroke:none;fill-rule:nonzero;fill:rgb(98.039216%,50.196081%,44.705883%);fill-opacity:1;" d="M 274.628906 321.660156 C 274.628906 323.164062 271.882812 324.144531 272.949219 326.28125 C 275.027344 330.4375 276.40625 326.699219 278.40625 326.699219 C 280.410156 326.699219 281.789062 330.4375 283.867188 326.28125 C 284.808594 324.398438 282.21875 320.59375 280.085938 321.660156 C 277.148438 323.128906 278.042969 321.660156 274.628906 321.660156 Z M 274.628906 321.660156 "/>
</g>
</svg>
