<?xml version="1.0" encoding="UTF-8"?>
<svg xmlns="http://www.w3.org/2000/svg" xmlns:xlink="http://www.w3.org/1999/xlink" width="430px" height="430px" viewBox="0 0 430 430" version="1.1">
<g id="surface1">
<rect x="0" y="0" width="430" height="430" style="fill:rgb(0%,0%,0%);fill-opacity:1;stroke:none;"/>
<path style=" stroke:none;fill-rule:nonzero;fill:rgb(80.784315%,82.745099%,2.745098%);fill-opacity:1;" d="M 254.472656 141.09375 L 255.3125 141.09375 C 257.667969 141.09375 260.019531 146.089844 263.289062 144.453125 C 270.90625 140.644531 258.179688 129.300781 254.890625 127.65625 C 252.511719 126.464844 249.964844 124.351562 248.171875 123.457031 C 246.71875 122.730469 244.679688 123.390625 243.132812 122.617188 C 243.132812 122.617188 238.9375 124.296875 238.9375 124.296875 C 234.492188 126.519531 229.070312 127.128906 224.65625 129.335938 C 224.65625 129.335938 220.878906 133.953125 220.878906 133.953125 C 219.382812 136.945312 227.925781 140.253906 228.859375 140.253906 C 228.859375 140.253906 231.375 138.574219 231.375 138.574219 C 231.375 138.574219 232.21875 140.253906 232.21875 140.253906 C 241.164062 140.253906 242.597656 134.527344 252.375 139.414062 C 252.375 139.414062 254.472656 141.09375 254.472656 141.09375 Z M 254.472656 141.09375 "/>
<path style=" stroke:none;fill-rule:nonzero;fill:rgb(80.784315%,82.745099%,2.745098%);fill-opacity:1;" d="M 174.6875 128.496094 C 174.6875 130.722656 167.65625 129.96875 169.648438 133.953125 C 170.460938 135.582031 172.816406 133.535156 173.429688 133.535156 L 176.789062 136.054688 C 177.542969 136.054688 180.082031 133.082031 182.664062 134.375 C 183.742188 134.914062 184.425781 136.855469 186.023438 136.054688 C 192.101562 133.015625 182.140625 128.496094 179.726562 128.496094 C 177.640625 128.496094 176.34375 128.496094 174.6875 128.496094 Z M 174.6875 128.496094 "/>
<path style=" stroke:none;fill-rule:nonzero;fill:rgb(5.882353%,42.745098%,90.196079%);fill-opacity:1;" d="M 194.84375 149.492188 L 194.84375 150.332031 C 190.808594 150.332031 184.511719 149.578125 182.246094 154.109375 C 182.246094 154.109375 180.148438 157.050781 180.148438 157.050781 C 176.621094 158.8125 170 153.238281 167.546875 152.011719 C 165.941406 151.207031 164.066406 153.023438 162.929688 150.75 C 162.929688 150.75 163.769531 143.195312 163.769531 143.195312 C 163.769531 143.195312 162.089844 141.09375 162.089844 141.09375 C 162.089844 139.523438 172.535156 136.027344 174.265625 136.894531 C 177.703125 138.613281 181.398438 135.421875 184.34375 136.894531 C 184.34375 136.894531 191.0625 141.09375 191.0625 141.09375 C 191.0625 141.09375 193.164062 141.515625 193.164062 141.515625 C 193.164062 141.515625 192.324219 144.03125 192.324219 144.03125 C 192.324219 145.191406 194.84375 147.917969 194.84375 149.492188 Z M 194.84375 149.492188 "/>
<path style=" stroke:none;fill-rule:nonzero;fill:rgb(5.882353%,42.745098%,90.196079%);fill-opacity:1;" d="M 212.480469 154.53125 L 213.320312 155.371094 C 213.320312 155.371094 217.9375 152.011719 217.9375 152.011719 C 217.9375 152.011719 220.460938 152.851562 220.460938 152.851562 C 220.460938 152.851562 225.5 151.171875 225.5 151.171875 C 225.5 151.171875 229.695312 159.570312 229.695312 159.570312 C 234.839844 162.140625 235.257812 159.730469 238.9375 157.890625 C 238.9375 157.890625 243.976562 159.570312 243.976562 159.570312 C 243.976562 159.570312 244.394531 154.109375 244.394531 154.109375 C 247.652344 147.59375 247.753906 148.246094 247.753906 141.933594 C 247.753906 140.296875 245.691406 141.53125 244.8125 141.09375 C 239.007812 138.191406 237.054688 143.613281 232.21875 143.613281 C 232.21875 143.613281 227.179688 140.253906 227.179688 140.253906 C 226.332031 139.832031 217.730469 143.605469 217.519531 144.03125 C 216.675781 145.71875 216.699219 148.191406 215.839844 149.914062 C 214.875 151.847656 212.480469 152.128906 212.480469 154.53125 Z M 212.480469 154.53125 "/>
<path style=" stroke:none;fill-rule:nonzero;fill:rgb(100%,52.941179%,0%);fill-opacity:1;" d="M 194.84375 150.332031 C 200.808594 150.332031 205.714844 169.320312 203.242188 174.265625 C 201.339844 178.070312 204.257812 183.996094 202.402344 187.703125 C 195.941406 200.625 206.398438 232.636719 182.246094 232.636719 C 182.246094 232.636719 176.789062 229.277344 176.789062 229.277344 C 169.410156 225.589844 168.046875 219.777344 164.609375 212.898438 C 164.609375 212.898438 158.730469 206.179688 158.730469 206.179688 C 155.453125 199.632812 152.667969 194.058594 149.492188 187.703125 C 147.011719 182.742188 149.515625 172.636719 146.972656 167.546875 C 144.105469 161.816406 151.640625 155.691406 153.691406 151.59375 C 153.691406 151.59375 154.53125 144.875 154.53125 144.875 C 154.53125 144.875 162.089844 141.09375 162.089844 141.09375 C 162.089844 141.09375 163.769531 143.195312 163.769531 143.195312 C 163.769531 143.195312 162.929688 150.75 162.929688 150.75 C 164.066406 153.023438 165.941406 151.207031 167.546875 152.011719 C 170 153.238281 176.621094 158.8125 180.148438 157.050781 C 180.148438 157.050781 182.246094 154.109375 182.246094 154.109375 C 184.511719 149.578125 190.808594 150.332031 194.84375 150.332031 Z M 194.84375 150.332031 "/>
<path style=" stroke:none;fill-rule:nonzero;fill:rgb(100%,52.941179%,0%);fill-opacity:1;" d="M 213.320312 155.371094 C 212.328125 155.371094 212.03125 158.371094 211.640625 159.148438 C 210.027344 162.382812 206.03125 168.929688 208.28125 173.429688 C 213.683594 184.230469 203.382812 203.941406 210.800781 218.78125 L 210.800781 222.976562 C 212.929688 227.234375 221.195312 235.996094 225.917969 235.996094 C 228.132812 235.996094 241.441406 227.203125 242.714844 224.65625 C 247.933594 214.222656 252.449219 206.027344 257.832031 195.265625 C 259.804688 191.324219 259.570312 181.710938 261.191406 178.46875 C 262.753906 175.34375 264.832031 164.75 262.871094 160.828125 C 260.882812 156.855469 261.894531 151.316406 260.351562 148.234375 C 260.351562 148.234375 255.3125 141.09375 255.3125 141.09375 C 255.3125 141.09375 254.472656 141.09375 254.472656 141.09375 C 254.472656 141.09375 247.753906 141.933594 247.753906 141.933594 C 247.753906 148.246094 247.652344 147.59375 244.394531 154.109375 C 244.394531 154.109375 243.976562 159.570312 243.976562 159.570312 C 243.976562 159.570312 238.9375 157.890625 238.9375 157.890625 C 235.257812 159.730469 234.839844 162.140625 229.695312 159.570312 C 229.695312 159.570312 225.5 151.171875 225.5 151.171875 C 225.5 151.171875 220.460938 152.851562 220.460938 152.851562 C 220.460938 152.851562 217.9375 152.011719 217.9375 152.011719 C 217.9375 152.011719 213.320312 155.371094 213.320312 155.371094 Z M 213.320312 155.371094 "/>
<path style=" stroke:none;fill-rule:nonzero;fill:rgb(100%,89.019608%,0%);fill-opacity:1;" d="M 182.246094 232.636719 C 182.246094 236.566406 197.253906 233.277344 198.203125 231.375 L 201.5625 225.5 L 201.5625 217.101562 C 201.976562 216.273438 202.699219 211.578125 204.5 212.480469 C 206.203125 213.332031 207.414062 226.285156 209.121094 229.695312 C 211.738281 234.929688 218.035156 235.625 222.140625 237.675781 C 222.65625 237.933594 225.917969 236.515625 225.917969 235.996094 C 221.195312 235.996094 212.929688 227.234375 210.800781 222.976562 C 210.800781 222.976562 210.800781 218.78125 210.800781 218.78125 C 203.382812 203.941406 213.683594 184.230469 208.28125 173.429688 C 206.03125 168.929688 210.027344 162.382812 211.640625 159.148438 C 212.03125 158.371094 212.328125 155.371094 213.320312 155.371094 C 213.320312 155.371094 212.480469 154.53125 212.480469 154.53125 C 209.648438 154.53125 207.949219 166.753906 205.34375 165.449219 C 203.535156 164.546875 202.402344 149.492188 194.84375 149.492188 C 194.84375 149.492188 194.84375 150.332031 194.84375 150.332031 C 200.808594 150.332031 205.714844 169.320312 203.242188 174.265625 C 201.339844 178.070312 204.257812 183.996094 202.402344 187.703125 C 195.941406 200.625 206.398438 232.636719 182.246094 232.636719 Z M 182.246094 232.636719 "/>
<path style=" stroke:none;fill-rule:nonzero;fill:rgb(98.039216%,50.196081%,44.705883%);fill-opacity:1;" d="M 157.890625 236.835938 C 157.890625 237.898438 158.441406 241.875 159.992188 241.875 C 161.625 241.875 159.03125 236.835938 157.890625 236.835938 Z M 157.890625 236.835938 "/>
<path style=" stroke:none;fill-rule:nonzero;fill:rgb(18.82353%,85.490197%,0%);fill-opacity:1;" d="M 267.910156 238.515625 C 267.910156 239.644531 255.054688 241.773438 258.671875 249.015625 L 263.289062 250.273438 C 273.265625 255.261719 285.992188 238.515625 272.949219 238.515625 C 270.894531 238.515625 270.195312 238.515625 267.910156 238.515625 Z M 267.910156 238.515625 "/>
<path style=" stroke:none;fill-rule:nonzero;fill:rgb(98.039216%,50.196081%,44.705883%);fill-opacity:1;" d="M 161.25 240.195312 C 161.25 243.339844 163.007812 240.195312 161.25 240.195312 Z M 161.25 240.195312 "/>
<path style=" stroke:none;fill-rule:nonzero;fill:rgb(18.82353%,85.490197%,0%);fill-opacity:1;" d="M 142.773438 242.714844 C 142.773438 242.742188 140.253906 249.339844 140.253906 251.53125 C 140.253906 255.78125 156.421875 256.152344 159.148438 256.152344 C 161.875 256.152344 158.375 253.085938 158.730469 252.375 C 159.097656 251.636719 160.644531 248.5 159.148438 247.753906 C 153.320312 244.839844 148.941406 242.714844 142.773438 242.714844 Z M 142.773438 242.714844 "/>
<path style=" stroke:none;fill-rule:nonzero;fill:rgb(98.039216%,50.196081%,44.705883%);fill-opacity:1;" d="M 159.570312 259.511719 C 159.570312 264.1875 161.34375 259.511719 159.570312 259.511719 Z M 159.570312 259.511719 "/>
<path style=" stroke:none;fill-rule:nonzero;fill:rgb(98.039216%,50.196081%,44.705883%);fill-opacity:1;" d="M 240.195312 309.902344 L 235.996094 313.679688 C 234.6875 316.300781 237.6875 322.058594 236.835938 323.757812 C 236.28125 324.871094 235.242188 327.292969 235.996094 328.796875 C 237.414062 331.636719 240.179688 331.519531 242.296875 332.578125 L 243.132812 338.457031 C 244.820312 338.457031 246.90625 334.882812 249.015625 335.9375 L 253.210938 338.457031 L 253.210938 330.898438 L 257.414062 333.417969 C 259.96875 334.695312 272.492188 331.246094 269.589844 325.4375 C 269.398438 325.058594 261.570312 317.859375 260.773438 317.460938 L 255.734375 316.621094 L 253.632812 317.882812 L 253.632812 313.679688 C 250.707031 307.828125 248.210938 311.582031 244.8125 311.582031 C 243.476562 311.582031 242.082031 309.902344 240.195312 309.902344 Z M 240.195312 309.902344 "/>
<path style=" stroke:none;fill-rule:nonzero;fill:rgb(98.039216%,50.196081%,44.705883%);fill-opacity:1;" d="M 163.769531 313.261719 L 161.25 315.359375 C 160.433594 316.992188 157.324219 323.339844 154.953125 323.339844 C 152.964844 323.339844 152.253906 322.167969 149.914062 323.339844 C 149.640625 323.476562 143.71875 330.265625 143.613281 330.476562 L 143.613281 333.835938 C 143.464844 334.136719 137.507812 334.226562 139.414062 338.039062 C 140.085938 339.382812 147.335938 339.746094 148.234375 339.296875 L 148.652344 335.515625 L 153.273438 331.738281 L 155.789062 333.417969 C 157.050781 333.417969 158.261719 330.875 159.992188 331.738281 C 164.601562 334.042969 167.195312 335.097656 172.167969 335.097656 L 177.625 336.777344 L 179.726562 335.515625 C 184.726562 330.515625 174.925781 330.84375 177.207031 326.28125 L 180.566406 322.921875 C 181.640625 320.769531 177.582031 321.148438 177.207031 320.398438 L 177.207031 316.203125 C 175.0625 311.910156 167.289062 313.261719 163.769531 313.261719 Z M 163.769531 313.261719 "/>
</g>
</svg>
