<?xml version="1.0" encoding="UTF-8"?>
<svg xmlns="http://www.w3.org/2000/svg" xmlns:xlink="http://www.w3.org/1999/xlink" width="430px" height="430px" viewBox="0 0 430 430" version="1.1">
<g id="surface1">
<rect x="0" y="0" width="430" height="430" style="fill:rgb(0%,0%,0%);fill-opacity:1;stroke:none;"/>
<path style=" stroke:none;fill-rule:nonzero;fill:rgb(100%,89.019608%,0%);fill-opacity:1;" d="M 162.089844 214.160156 C 162.089844 218.535156 178.390625 220.078125 181.828125 218.359375 C 183.109375 217.71875 181.589844 215.117188 183.507812 214.160156 L 187.703125 214.160156 L 188.546875 212.480469 C 190.566406 211.46875 197.644531 212.335938 199.042969 209.539062 L 199.882812 204.5 C 201.3125 201.640625 203.242188 207.195312 203.242188 195.683594 L 203.664062 184.765625 C 207.984375 184.765625 204.554688 193.691406 205.761719 196.101562 C 206.761719 198.105469 205.648438 200.910156 206.601562 202.820312 C 207.976562 205.574219 211.855469 208.289062 213.320312 211.21875 C 214.328125 213.238281 218.742188 212.460938 220.460938 213.320312 L 223.820312 215.839844 L 225.5 215 C 226.691406 215.597656 227.960938 217.492188 229.695312 218.359375 C 232.96875 219.996094 246.074219 218.746094 246.074219 215 C 241.40625 215 238.441406 215.59375 233.898438 213.320312 C 229.566406 211.15625 224.039062 211.332031 219.617188 209.121094 C 215.550781 207.085938 216.523438 202.511719 215 199.460938 C 215 199.460938 212.480469 196.101562 212.480469 196.101562 C 211.375 193.894531 211.347656 169.816406 212.480469 167.546875 C 212.480469 167.546875 214.160156 162.507812 214.160156 162.507812 C 214.160156 156.039062 209.777344 151.222656 207.441406 146.554688 C 205.300781 142.269531 207.441406 129.175781 207.441406 124.296875 C 207.441406 124.296875 204.5 126.816406 204.5 126.816406 C 201.027344 125.078125 202.558594 119.964844 199.460938 118.417969 C 196.125 116.75 182.585938 110.058594 177.625 112.539062 C 175.726562 113.488281 174.734375 114.824219 172.585938 115.898438 C 167.796875 118.292969 162.929688 115.875 162.929688 120.9375 C 166.277344 120.9375 168.195312 118.933594 170.90625 117.578125 C 176.367188 114.847656 193.800781 116.847656 198.625 119.257812 C 200.234375 120.0625 199.328125 121.089844 199.882812 122.195312 C 205.585938 133.601562 201.816406 145.203125 196.523438 155.789062 C 194.308594 160.222656 198.203125 173.167969 198.203125 177.625 C 198.203125 181.917969 196.675781 186.5625 194.84375 190.226562 C 194.84375 190.226562 194.84375 196.101562 194.84375 196.101562 C 190.769531 204.25 185.742188 210.101562 177.625 214.160156 C 177.625 214.160156 174.265625 217.519531 174.265625 217.519531 C 172.28125 218.511719 164.664062 214.160156 162.089844 214.160156 Z M 162.089844 214.160156 "/>
<path style=" stroke:none;fill-rule:nonzero;fill:rgb(100%,89.019608%,0%);fill-opacity:1;" d="M 209.960938 120.9375 L 213.742188 118.417969 C 216.460938 117.054688 238.164062 117.613281 241.453125 119.257812 C 250.691406 123.875 253.171875 130.515625 257.832031 139.835938 C 258.601562 141.371094 256.992188 145.070312 256.992188 146.554688 C 256.992188 148.863281 258.867188 152.882812 257.832031 154.953125 L 256.152344 158.3125 C 256.152344 164.105469 255.675781 167.660156 252.792969 173.429688 C 251.558594 175.894531 255.527344 177.195312 254.472656 179.304688 C 253.4375 181.378906 255.089844 183.0625 256.152344 185.1875 L 256.152344 199.882812 C 260.027344 199.882812 257.519531 194.210938 258.671875 191.90625 C 258.671875 191.90625 262.871094 187.703125 262.871094 187.703125 C 262.871094 187.703125 263.710938 177.625 263.710938 177.625 C 264.660156 175.730469 265.59375 155.355469 264.550781 153.273438 C 264.550781 153.273438 262.871094 152.429688 262.871094 152.429688 C 262.871094 152.429688 262.871094 144.03125 262.871094 144.03125 C 261.304688 140.898438 259.511719 141.132812 259.511719 136.476562 C 259.511719 133.941406 253.632812 127.363281 253.632812 124.71875 C 253.632812 124.71875 249.015625 122.617188 249.015625 122.617188 C 249.015625 122.617188 246.492188 119.257812 246.492188 119.257812 C 246.492188 119.257812 242.296875 119.257812 242.296875 119.257812 C 234.070312 115.144531 220.882812 109.59375 212.898438 117.578125 C 211.59375 118.886719 209.960938 118.621094 209.960938 120.9375 Z M 209.960938 120.9375 "/>
<path style=" stroke:none;fill-rule:nonzero;fill:rgb(100%,52.941179%,0%);fill-opacity:1;" d="M 155.371094 202.402344 C 155.371094 206.476562 162.089844 213.703125 162.089844 214.160156 C 164.664062 214.160156 172.28125 218.511719 174.265625 217.519531 C 174.265625 217.519531 177.625 214.160156 177.625 214.160156 C 185.742188 210.101562 190.769531 204.25 194.84375 196.101562 C 194.84375 196.101562 194.84375 190.226562 194.84375 190.226562 C 196.675781 186.5625 198.203125 181.917969 198.203125 177.625 C 198.203125 173.167969 194.308594 160.222656 196.523438 155.789062 C 201.816406 145.203125 205.585938 133.601562 199.882812 122.195312 C 199.328125 121.089844 200.234375 120.0625 198.625 119.257812 C 193.800781 116.847656 176.367188 114.847656 170.90625 117.578125 C 168.195312 118.933594 166.277344 120.9375 162.929688 120.9375 C 162.929688 123.484375 159.800781 125.09375 158.730469 127.234375 C 158.730469 127.234375 159.570312 129.757812 159.570312 129.757812 C 159.570312 129.757812 157.050781 130.59375 157.050781 130.59375 C 155.53125 133.632812 156.054688 137.628906 154.53125 140.671875 C 152.546875 144.640625 157.050781 152.238281 157.050781 155.789062 C 157.050781 155.789062 155.371094 158.3125 155.371094 158.3125 C 158.523438 164.617188 158.417969 171.960938 161.25 177.625 C 161.25 177.625 157.890625 181.828125 157.890625 181.828125 C 156.757812 184.089844 156.570312 186.988281 155.371094 189.382812 C 152.777344 194.570312 155.371094 197.277344 155.371094 202.402344 Z M 155.371094 202.402344 "/>
<path style=" stroke:none;fill-rule:nonzero;fill:rgb(100%,52.941179%,0%);fill-opacity:1;" d="M 250.273438 212.480469 C 249.371094 212.480469 246.074219 213.757812 246.074219 215 C 241.40625 215 238.441406 215.59375 233.898438 213.320312 C 229.566406 211.15625 224.039062 211.332031 219.617188 209.121094 C 215.550781 207.085938 216.523438 202.511719 215 199.460938 C 215 199.460938 212.480469 196.101562 212.480469 196.101562 C 211.375 193.894531 211.347656 169.816406 212.480469 167.546875 C 212.480469 167.546875 214.160156 162.507812 214.160156 162.507812 C 214.160156 156.039062 209.777344 151.222656 207.441406 146.554688 C 205.300781 142.269531 207.441406 129.175781 207.441406 124.296875 C 207.441406 124.296875 209.960938 120.9375 209.960938 120.9375 C 209.960938 120.9375 213.742188 118.417969 213.742188 118.417969 C 216.460938 117.054688 238.164062 117.613281 241.453125 119.257812 C 250.691406 123.875 253.171875 130.515625 257.832031 139.835938 C 258.601562 141.371094 256.992188 145.070312 256.992188 146.554688 C 256.992188 148.863281 258.867188 152.882812 257.832031 154.953125 C 257.832031 154.953125 256.152344 158.3125 256.152344 158.3125 C 256.152344 164.105469 255.675781 167.660156 252.792969 173.429688 C 251.558594 175.894531 255.527344 177.195312 254.472656 179.304688 C 253.4375 181.378906 255.089844 183.0625 256.152344 185.1875 C 256.152344 185.1875 256.152344 199.882812 256.152344 199.882812 C 256.152344 199.882812 256.152344 200.722656 256.152344 200.722656 C 256.152344 200.722656 255.3125 202.402344 255.3125 202.402344 C 255.3125 206.09375 250.273438 211.265625 250.273438 212.480469 Z M 250.273438 212.480469 "/>
<path style=" stroke:none;fill-rule:nonzero;fill:rgb(100%,89.019608%,0%);fill-opacity:1;" d="M 162.929688 120.9375 C 156.167969 120.9375 155.984375 130.207031 153.691406 134.796875 C 151.878906 138.417969 145.160156 160.5625 146.132812 162.507812 C 146.90625 164.054688 146.246094 166.09375 146.972656 167.546875 L 148.652344 169.226562 C 148.652344 172.855469 146.765625 177.210938 148.652344 180.984375 C 150.078125 183.835938 149.558594 202.402344 155.371094 202.402344 C 155.371094 197.277344 152.777344 194.570312 155.371094 189.382812 C 156.570312 186.988281 156.757812 184.089844 157.890625 181.828125 C 157.890625 181.828125 161.25 177.625 161.25 177.625 C 158.417969 171.960938 158.523438 164.617188 155.371094 158.3125 C 155.371094 158.3125 157.050781 155.789062 157.050781 155.789062 C 157.050781 152.238281 152.546875 144.640625 154.53125 140.671875 C 156.054688 137.628906 155.53125 133.632812 157.050781 130.59375 C 157.050781 130.59375 159.570312 129.757812 159.570312 129.757812 C 159.570312 129.757812 158.730469 127.234375 158.730469 127.234375 C 159.800781 125.09375 162.929688 123.484375 162.929688 120.9375 Z M 162.929688 120.9375 "/>
<path style=" stroke:none;fill-rule:nonzero;fill:rgb(18.82353%,85.490197%,0%);fill-opacity:1;" d="M 335.9375 198.203125 C 335.9375 200.058594 331.589844 198.488281 330.476562 199.042969 C 327.164062 200.699219 326.925781 200.398438 322.921875 202.402344 C 321.46875 203.128906 317.695312 219.527344 320.398438 220.878906 C 327.25 224.304688 337.582031 214.652344 340.976562 207.859375 L 343.496094 206.179688 C 345.410156 202.355469 338.742188 198.203125 335.9375 198.203125 Z M 335.9375 198.203125 "/>
<path style=" stroke:none;fill-rule:nonzero;fill:rgb(100%,89.019608%,0%);fill-opacity:1;" d="M 256.152344 200.722656 L 255.3125 202.402344 C 255.3125 202.402344 256.152344 200.722656 256.152344 200.722656 Z M 256.152344 200.722656 "/>
<path style=" stroke:none;fill-rule:nonzero;fill:rgb(18.82353%,85.490197%,0%);fill-opacity:1;" d="M 69.707031 209.960938 L 68.867188 216.257812 C 70.042969 218.613281 73.304688 218.417969 73.90625 219.617188 L 73.90625 223.820312 C 75.4375 226.878906 81.972656 231 85.242188 232.636719 C 89.675781 234.851562 93.417969 233.476562 97 233.476562 C 97.171875 233.476562 99.101562 234.867188 99.101562 233.054688 C 99.101562 232.054688 94.0625 229.1875 94.0625 227.179688 L 95.742188 226.335938 L 94.0625 222.976562 L 94.902344 221.296875 L 92.382812 220.460938 C 90.929688 219.007812 79.828125 210.800781 79.367188 210.800781 L 76.84375 212.480469 C 74.035156 211.074219 73.207031 209.960938 69.707031 209.960938 Z M 69.707031 209.960938 "/>
<path style=" stroke:none;fill-rule:nonzero;fill:rgb(100%,89.019608%,0%);fill-opacity:1;" d="M 250.273438 212.480469 C 249.371094 212.480469 246.074219 213.757812 246.074219 215 C 248.226562 215 250.273438 215.199219 250.273438 212.480469 Z M 250.273438 212.480469 "/>
<path style=" stroke:none;fill-rule:nonzero;fill:rgb(98.039216%,50.196081%,44.705883%);fill-opacity:1;" d="M 250.273438 304.863281 C 250.273438 306.308594 243.824219 308.101562 242.714844 310.320312 C 241.238281 313.277344 245.914062 316.523438 245.234375 317.882812 C 244.214844 319.917969 241.214844 321.601562 242.714844 324.601562 C 245.640625 330.453125 251.546875 327.125 254.054688 328.378906 L 259.09375 332.578125 L 264.132812 331.738281 L 266.648438 332.578125 C 271.121094 330.34375 273.875 319.734375 271.269531 314.523438 C 268.964844 309.914062 254.257812 304.863281 250.273438 304.863281 Z M 250.273438 304.863281 "/>
<path style=" stroke:none;fill-rule:nonzero;fill:rgb(98.039216%,50.196081%,44.705883%);fill-opacity:1;" d="M 159.570312 305.703125 C 159.570312 307.183594 158.242188 306.15625 157.46875 306.542969 L 154.953125 309.902344 L 151.59375 309.902344 L 143.613281 317.882812 L 143.613281 322.078125 C 143.582031 322.144531 130.714844 327.597656 140.671875 332.578125 C 143.851562 334.167969 145.25 330.289062 147.390625 329.21875 C 147.648438 329.089844 164.816406 335.101562 167.128906 330.476562 L 166.289062 326.28125 C 171.214844 316.421875 166.417969 318.140625 163.769531 312.84375 C 162.886719 311.074219 163.113281 305.703125 159.570312 305.703125 Z M 159.570312 305.703125 "/>
<path style=" stroke:none;fill-rule:nonzero;fill:rgb(98.039216%,50.196081%,44.705883%);fill-opacity:1;" d="M 274.628906 322.5 C 274.628906 324.003906 271.882812 324.984375 272.949219 327.117188 C 276.121094 333.464844 283.222656 322.5 274.628906 322.5 Z M 274.628906 322.5 "/>
<path style=" stroke:none;fill-rule:nonzero;fill:rgb(98.039216%,50.196081%,44.705883%);fill-opacity:1;" d="M 279.667969 327.539062 C 279.667969 331.097656 284.765625 327.539062 279.667969 327.539062 Z M 279.667969 327.539062 "/>
</g>
</svg>
