<?xml version="1.0" encoding="UTF-8"?>
<svg xmlns="http://www.w3.org/2000/svg" xmlns:xlink="http://www.w3.org/1999/xlink" width="430px" height="430px" viewBox="0 0 430 430" version="1.1">
<g id="surface1">
<rect x="0" y="0" width="430" height="430" style="fill:rgb(0%,0%,0%);fill-opacity:1;stroke:none;"/>
<path style=" stroke:none;fill-rule:evenodd;fill:rgb(52.549022%,100%,35.294119%);fill-opacity:1;" d="M 204.921875 262.03125 L 204.082031 264.96875 C 203.605469 265.925781 204.429688 270.429688 205.34375 270.429688 C 207.09375 270.429688 207.78125 262.03125 204.921875 262.03125 M 204.921875 243.554688 L 199.042969 250.695312 C 197.554688 253.671875 205.003906 258.839844 207.023438 257.832031 L 212.480469 252.375 C 211.640625 250.691406 209.710938 249.347656 209.121094 248.171875 C 208.316406 246.566406 207.097656 243.554688 204.921875 243.554688 M 151.171875 255.3125 L 157.890625 264.132812 C 159.292969 266.9375 158.15625 271.382812 159.570312 274.210938 C 161.234375 277.539062 165.011719 280.917969 167.546875 282.1875 L 168.390625 284.707031 L 172.585938 284.707031 C 178.667969 287.75 184.527344 289.746094 191.90625 289.746094 C 197.996094 289.746094 197.039062 287.179688 198.625 286.386719 L 201.140625 286.386719 L 206.179688 283.027344 C 208.210938 284.042969 211.589844 288.671875 212.0625 288.90625 C 219.007812 292.378906 243.554688 287.1875 243.554688 281.765625 L 247.753906 280.085938 C 249.03125 277.53125 251.476562 275.160156 252.792969 272.53125 L 252.792969 267.492188 L 254.472656 267.492188 C 254.882812 266.667969 257.832031 257.8125 257.832031 256.992188 C 257.832031 253.597656 260.476562 246.742188 258.671875 243.132812 C 257.109375 240.007812 255.3125 238.203125 255.3125 234.316406 C 255.3125 234.316406 250.695312 229.277344 250.695312 229.277344 C 246.476562 227.167969 242.921875 226.230469 238.9375 224.238281 C 236.296875 222.917969 233.25 224.980469 231.375 225.917969 C 228.667969 227.273438 226.21875 222.617188 222.976562 224.238281 C 219.695312 225.878906 217.164062 229.246094 213.742188 230.957031 C 213.742188 230.957031 205.34375 230.117188 205.34375 230.117188 C 204.671875 230.453125 202.042969 232.667969 200.304688 231.796875 C 200.304688 231.796875 194.421875 225.917969 194.421875 225.917969 C 190.480469 223.945312 184.96875 225.390625 180.984375 223.398438 C 174.269531 220.039062 163.582031 228.4375 160.410156 228.4375 C 160.410156 228.4375 161.25 230.539062 161.25 230.539062 C 160.339844 232.359375 155.179688 234.28125 154.53125 235.578125 C 154.53125 235.578125 152.011719 242.296875 152.011719 242.296875 C 150.570312 245.179688 152.011719 249.394531 152.011719 251.953125 C 152.011719 252.914062 152.496094 255.3125 151.171875 255.3125 Z M 151.171875 255.3125 "/>
<path style=" stroke:none;fill-rule:nonzero;fill:rgb(98.039216%,50.196081%,44.705883%);fill-opacity:1;" d="M 148.652344 241.875 L 148.652344 249.851562 L 151.171875 255.3125 C 152.496094 255.3125 152.011719 252.914062 152.011719 251.953125 C 152.011719 249.394531 150.570312 245.179688 152.011719 242.296875 C 152.011719 242.296875 154.53125 235.578125 154.53125 235.578125 C 155.179688 234.28125 160.339844 232.359375 161.25 230.539062 C 161.25 230.539062 160.410156 228.4375 160.410156 228.4375 C 159.179688 228.4375 154.53125 231.363281 154.53125 232.636719 C 154.53125 232.636719 153.691406 233.476562 153.691406 233.476562 C 153.691406 233.476562 152.851562 234.316406 152.851562 234.316406 C 152.851562 234.316406 152.011719 235.15625 152.011719 235.15625 C 152.011719 235.15625 151.171875 235.996094 151.171875 235.996094 C 151.171875 235.996094 149.492188 240.195312 149.492188 240.195312 C 149.492188 240.195312 148.652344 241.875 148.652344 241.875 Z M 148.652344 241.875 "/>
<path style=" stroke:none;fill-rule:nonzero;fill:rgb(52.549022%,100%,35.294119%);fill-opacity:1;" d="M 154.53125 232.636719 L 153.691406 233.476562 C 153.691406 233.476562 154.53125 232.636719 154.53125 232.636719 Z M 154.53125 232.636719 "/>
<path style=" stroke:none;fill-rule:nonzero;fill:rgb(52.549022%,100%,35.294119%);fill-opacity:1;" d="M 153.691406 233.476562 L 152.851562 234.316406 C 152.851562 234.316406 153.691406 233.476562 153.691406 233.476562 Z M 153.691406 233.476562 "/>
<path style=" stroke:none;fill-rule:nonzero;fill:rgb(98.039216%,50.196081%,44.705883%);fill-opacity:1;" d="M 255.3125 234.316406 C 255.3125 238.203125 257.109375 240.007812 258.671875 243.132812 C 260.476562 246.742188 257.832031 253.597656 257.832031 256.992188 C 260.027344 256.992188 259.757812 253.558594 260.351562 252.375 C 262.789062 247.5 261.871094 242.8125 259.511719 238.09375 C 258.824219 236.71875 255.3125 233.257812 255.3125 234.316406 Z M 255.3125 234.316406 "/>
<path style=" stroke:none;fill-rule:nonzero;fill:rgb(52.549022%,100%,35.294119%);fill-opacity:1;" d="M 152.011719 235.15625 L 151.171875 235.996094 C 151.171875 235.996094 152.011719 235.15625 152.011719 235.15625 Z M 152.011719 235.15625 "/>
<path style=" stroke:none;fill-rule:nonzero;fill:rgb(52.549022%,100%,35.294119%);fill-opacity:1;" d="M 149.492188 240.195312 L 148.652344 241.875 C 148.652344 241.875 149.492188 240.195312 149.492188 240.195312 Z M 149.492188 240.195312 "/>
<path style=" stroke:none;fill-rule:evenodd;fill:rgb(92.156863%,34.117648%,100%);fill-opacity:1;" d="M 204.921875 253.632812 C 204.921875 258.730469 208.480469 253.632812 204.921875 253.632812 M 204.921875 243.554688 L 199.042969 250.695312 C 197.554688 253.671875 205.003906 258.839844 207.023438 257.832031 L 212.480469 252.375 C 211.640625 250.691406 209.710938 249.347656 209.121094 248.171875 C 208.316406 246.566406 207.097656 243.554688 204.921875 243.554688 Z M 204.921875 243.554688 "/>
<path style=" stroke:none;fill-rule:nonzero;fill:rgb(15.294118%,95.686275%,99.215686%);fill-opacity:1;" d="M 204.921875 253.632812 C 204.921875 258.730469 208.480469 253.632812 204.921875 253.632812 Z M 204.921875 253.632812 "/>
<path style=" stroke:none;fill-rule:nonzero;fill:rgb(44.705883%,3.529412%,83.137256%);fill-opacity:1;" d="M 204.921875 262.03125 L 204.082031 264.96875 C 203.605469 265.925781 204.429688 270.429688 205.34375 270.429688 C 207.09375 270.429688 207.78125 262.03125 204.921875 262.03125 Z M 204.921875 262.03125 "/>
</g>
</svg>
