<?xml version="1.0" encoding="UTF-8"?>
<svg xmlns="http://www.w3.org/2000/svg" xmlns:xlink="http://www.w3.org/1999/xlink" width="430px" height="430px" viewBox="0 0 430 430" version="1.1">
<g id="surface1">
<rect x="0" y="0" width="430" height="430" style="fill:rgb(0%,0%,0%);fill-opacity:1;stroke:none;"/>
<path style=" stroke:none;fill-rule:evenodd;fill:rgb(52.549022%,100%,35.294119%);fill-opacity:1;" d="M 207.441406 278.828125 L 209.121094 279.667969 C 209.121094 283.121094 221.53125 286.269531 224.65625 284.707031 C 228.730469 282.667969 232.296875 285.085938 234.734375 283.867188 C 238.402344 282.035156 242.113281 280.597656 245.65625 278.828125 C 245.65625 278.828125 246.492188 275.46875 246.492188 275.46875 C 246.492188 275.46875 252.792969 272.53125 252.792969 272.53125 C 252.792969 272.53125 252.792969 268.328125 252.792969 268.328125 C 252.792969 268.328125 259.511719 261.191406 259.511719 261.191406 C 259.511719 261.191406 261.191406 260.351562 261.191406 260.351562 C 261.191406 260.351562 263.710938 256.992188 263.710938 256.992188 C 263.710938 250.847656 269.410156 246.140625 266.230469 239.773438 C 263.140625 233.597656 251.953125 227.046875 251.953125 220.039062 C 251.109375 220.039062 241.878906 216.472656 240.617188 215.839844 C 237.0625 214.0625 231.664062 218.214844 229.695312 219.199219 C 226.121094 220.988281 223.507812 216.835938 220.460938 218.359375 C 219.097656 219.039062 219.253906 222.320312 217.101562 223.398438 C 217.101562 223.398438 212.0625 221.71875 212.0625 221.71875 C 207.359375 224.070312 201.8125 221.804688 196.945312 224.238281 C 193.660156 225.878906 193.640625 214.550781 186.023438 218.359375 C 182.027344 220.359375 176.375 215.632812 173.429688 214.160156 C 170.070312 212.480469 163.46875 216.679688 163.351562 216.679688 C 163.019531 216.679688 157.050781 218.054688 157.050781 219.199219 C 158.375 219.199219 158.160156 222.707031 157.46875 223.398438 C 153.847656 227.023438 148.433594 229.296875 146.132812 233.898438 C 143.171875 239.820312 141.796875 256.992188 152.011719 256.992188 C 159 256.992188 153.957031 261.300781 156.210938 265.8125 C 158.007812 269.40625 166.835938 279.3125 170.90625 281.347656 C 170.90625 281.347656 177.625 281.347656 177.625 281.347656 C 183.597656 284.332031 204.082031 284.9375 204.082031 275.46875 C 202.605469 275.46875 203.242188 268.847656 203.242188 267.492188 C 203.242188 264.945312 202.261719 255.3125 205.34375 255.3125 C 205.34375 255.3125 207.023438 256.992188 207.023438 256.992188 C 207.023438 256.992188 207.859375 255.3125 207.859375 255.3125 C 208.917969 255.3125 208.632812 263.429688 208.28125 264.132812 C 208.28125 264.132812 208.28125 276.726562 208.28125 276.726562 C 207.453125 278.382812 205.761719 275.128906 205.761719 277.148438 C 205.761719 277.148438 207.441406 278.828125 207.441406 278.828125 M 198.203125 239.355469 C 199.742188 239.355469 197.988281 247.4375 203.664062 250.273438 C 207.628906 252.257812 212.480469 245.738281 212.480469 242.714844 C 212.480469 239.996094 209.960938 240.648438 209.960938 239.355469 C 212.050781 239.355469 215.171875 237.675781 211.640625 237.675781 C 209.75 237.675781 208.804688 235.996094 207.441406 235.996094 C 207.441406 234.820312 205.761719 234.820312 205.761719 235.996094 C 205.761719 237.882812 199.882812 235.882812 199.882812 237.675781 C 198.484375 237.675781 195.988281 239.355469 198.203125 239.355469 Z M 198.203125 239.355469 "/>
<path style=" stroke:none;fill-rule:nonzero;fill:rgb(98.039216%,50.196081%,44.705883%);fill-opacity:1;" d="M 157.050781 219.199219 C 158.375 219.199219 158.160156 222.707031 157.46875 223.398438 C 153.847656 227.023438 148.433594 229.296875 146.132812 233.898438 C 143.171875 239.820312 141.796875 256.992188 152.011719 256.992188 C 152.011719 256.992188 152.851562 260.773438 152.851562 260.773438 C 151.472656 263.53125 148.859375 258.984375 148.234375 258.671875 C 142.972656 256.042969 141.929688 250.6875 139.414062 245.65625 C 137.046875 240.921875 142.683594 232.394531 144.453125 228.859375 C 144.453125 228.859375 147.8125 226.335938 147.8125 226.335938 C 149.019531 223.929688 153.75 219.199219 157.050781 219.199219 Z M 157.050781 219.199219 "/>
<path style=" stroke:none;fill-rule:nonzero;fill:rgb(52.549022%,100%,35.294119%);fill-opacity:1;" d="M 251.953125 220.039062 L 252.792969 220.039062 C 252.792969 219.042969 251.953125 219.042969 251.953125 220.039062 Z M 251.953125 220.039062 "/>
<path style=" stroke:none;fill-rule:nonzero;fill:rgb(98.039216%,50.196081%,44.705883%);fill-opacity:1;" d="M 252.792969 220.039062 L 254.054688 221.71875 C 262.535156 225.960938 267.324219 234.402344 271.269531 242.296875 C 273.664062 247.085938 268.636719 256.992188 263.710938 256.992188 C 263.710938 250.847656 269.410156 246.140625 266.230469 239.773438 C 263.140625 233.597656 251.953125 227.046875 251.953125 220.039062 C 251.953125 220.039062 252.792969 220.039062 252.792969 220.039062 Z M 252.792969 220.039062 "/>
<path style=" stroke:none;fill-rule:evenodd;fill:rgb(92.156863%,34.117648%,100%);fill-opacity:1;" d="M 204.921875 246.074219 C 204.921875 249.21875 206.679688 246.074219 204.921875 246.074219 M 198.203125 239.355469 C 199.742188 239.355469 197.988281 247.4375 203.664062 250.273438 C 207.628906 252.257812 212.480469 245.738281 212.480469 242.714844 C 212.480469 239.996094 209.960938 240.648438 209.960938 239.355469 C 205.882812 239.355469 211.640625 238.441406 211.640625 237.675781 C 209.75 237.675781 208.804688 235.996094 207.441406 235.996094 C 207.441406 235.996094 205.761719 235.996094 205.761719 235.996094 C 205.761719 237.882812 199.882812 235.882812 199.882812 237.675781 C 199.882812 237.675781 198.203125 239.355469 198.203125 239.355469 Z M 198.203125 239.355469 "/>
<path style=" stroke:none;fill-rule:nonzero;fill:rgb(98.039216%,50.196081%,44.705883%);fill-opacity:1;" d="M 137.734375 241.875 C 137.734375 245.019531 139.492188 241.875 137.734375 241.875 Z M 137.734375 241.875 "/>
<path style=" stroke:none;fill-rule:nonzero;fill:rgb(15.294118%,95.686275%,99.215686%);fill-opacity:1;" d="M 204.921875 246.074219 C 204.921875 249.21875 206.679688 246.074219 204.921875 246.074219 Z M 204.921875 246.074219 "/>
<path style=" stroke:none;fill-rule:nonzero;fill:rgb(44.705883%,3.529412%,83.137256%);fill-opacity:1;" d="M 204.082031 275.46875 L 205.761719 277.148438 C 205.761719 275.128906 207.453125 278.382812 208.28125 276.726562 C 208.28125 276.726562 208.28125 264.132812 208.28125 264.132812 C 208.632812 263.429688 208.917969 255.3125 207.859375 255.3125 C 207.859375 255.3125 207.023438 256.992188 207.023438 256.992188 C 207.023438 256.992188 205.34375 255.3125 205.34375 255.3125 C 202.261719 255.3125 203.242188 264.945312 203.242188 267.492188 C 203.242188 268.847656 202.605469 275.46875 204.082031 275.46875 Z M 204.082031 275.46875 "/>
<path style=" stroke:none;fill-rule:nonzero;fill:rgb(98.039216%,50.196081%,44.705883%);fill-opacity:1;" d="M 263.710938 256.992188 L 261.191406 260.351562 C 263.472656 260.351562 263.710938 258.960938 263.710938 256.992188 Z M 263.710938 256.992188 "/>
<path style=" stroke:none;fill-rule:nonzero;fill:rgb(52.549022%,100%,35.294119%);fill-opacity:1;" d="M 154.53125 260.351562 C 154.53125 263.496094 156.289062 260.351562 154.53125 260.351562 Z M 154.53125 260.351562 "/>
<path style=" stroke:none;fill-rule:nonzero;fill:rgb(98.039216%,50.196081%,44.705883%);fill-opacity:1;" d="M 261.191406 260.351562 L 259.511719 261.191406 C 259.511719 261.191406 261.191406 260.351562 261.191406 260.351562 Z M 261.191406 260.351562 "/>
<path style=" stroke:none;fill-rule:nonzero;fill:rgb(52.549022%,100%,35.294119%);fill-opacity:1;" d="M 253.632812 269.589844 C 253.632812 271.210938 255.253906 269.589844 253.632812 269.589844 Z M 253.632812 269.589844 "/>
<path style=" stroke:none;fill-rule:nonzero;fill:rgb(100%,20.392157%,15.294118%);fill-opacity:1;" d="M 207.441406 278.828125 L 209.121094 279.667969 C 209.121094 279.667969 207.441406 278.828125 207.441406 278.828125 Z M 207.441406 278.828125 "/>
</g>
</svg>
