<?xml version="1.0" encoding="UTF-8"?>
<svg xmlns="http://www.w3.org/2000/svg" xmlns:xlink="http://www.w3.org/1999/xlink" width="430px" height="430px" viewBox="0 0 430 430" version="1.1">
<g id="surface1">
<rect x="0" y="0" width="430" height="430" style="fill:rgb(0%,0%,0%);fill-opacity:1;stroke:none;"/>
<path style=" stroke:none;fill-rule:nonzero;fill:rgb(1.176471%,75.686276%,17.647059%);fill-opacity:1;" d="M 115.058594 271.269531 L 111.28125 269.589844 L 102.882812 269.589844 L 95.320312 265.390625 L 87.765625 266.230469 C 84.78125 264.738281 77.171875 259.742188 75.585938 256.570312 C 73.007812 251.414062 72.265625 245.730469 69.707031 240.617188 C 67.441406 236.082031 63.539062 232.480469 61.308594 228.015625 L 62.148438 220.460938 C 60.988281 218.140625 57.699219 210.878906 58.789062 208.703125 C 59.417969 207.445312 63.828125 209.351562 63.828125 207.023438 C 63.828125 205.921875 58.257812 203.441406 57.949219 202.820312 C 57.003906 200.933594 61.308594 202.09375 61.308594 200.304688 C 61.308594 199.917969 61.855469 196.359375 61.308594 195.265625 C 58.796875 190.238281 55.359375 184.488281 57.949219 179.304688 L 57.109375 159.992188 C 59.347656 155.515625 57.734375 147.824219 59.628906 144.03125 C 64.332031 134.625 70.035156 125.742188 74.746094 116.320312 C 76.195312 113.421875 79.703125 113.042969 81.464844 111.28125 L 85.242188 106.660156 C 94.402344 102.082031 102.960938 96.960938 112.117188 92.382812 C 113.992188 91.445312 116.652344 93.222656 118 93.222656 L 119.679688 90.703125 C 121.945312 89.570312 124.9375 90.171875 127.234375 89.023438 L 130.59375 89.863281 C 140.699219 84.8125 151.929688 85.914062 162.507812 80.625 C 166.570312 78.59375 191.003906 82.273438 194.421875 83.984375 C 196.867188 85.207031 196.03125 87.726562 198.625 89.023438 C 200.890625 90.15625 207.664062 86.601562 209.539062 85.664062 C 210.539062 85.164062 210.289062 82.351562 212.0625 81.464844 L 222.140625 78.105469 L 231.375 78.945312 C 234.238281 77.515625 235.871094 78.945312 238.515625 78.945312 C 252.992188 78.945312 264.773438 80.945312 277.570312 87.34375 C 281.433594 89.277344 287.523438 87.703125 291.84375 89.863281 C 304.617188 96.25 327.949219 101.183594 336.777344 118.835938 C 338.082031 121.445312 342.734375 124.035156 344.335938 127.234375 C 345.632812 129.832031 345.585938 133.09375 346.855469 135.632812 C 348.625 139.175781 351.011719 142.261719 352.734375 145.710938 C 354.324219 148.890625 353.601562 153.328125 355.253906 156.632812 C 356.140625 158.402344 356.09375 166.675781 356.09375 168.390625 C 356.09375 168.464844 352.5625 174.765625 353.574219 176.789062 C 354.765625 179.167969 356.414062 175.746094 357.773438 178.46875 C 358.179688 179.28125 356.296875 204.097656 355.253906 206.179688 L 352.734375 207.023438 L 354.414062 207.859375 C 355.257812 209.546875 352.542969 212.441406 351.894531 213.742188 C 349.3125 218.90625 348.644531 225.28125 346.015625 230.539062 C 345.136719 232.296875 340.976562 234.46875 340.976562 237.257812 L 344.335938 240.617188 C 344.335938 242.488281 341.347656 241.480469 340.554688 241.875 L 338.039062 247.753906 L 334.679688 247.753906 L 330.476562 252.792969 C 323.082031 260.191406 315.691406 268.585938 306.960938 272.949219 C 303.722656 274.570312 301.628906 270.703125 299.40625 269.589844 C 298.578125 269.175781 295.402344 271.269531 293.945312 271.269531 C 293.945312 267.605469 291.390625 246.566406 293.105469 243.132812 C 293.105469 243.132812 295.625 238.515625 295.625 238.515625 C 297.5625 238.515625 298.984375 236.097656 298.984375 234.316406 C 298.984375 234.316406 300.664062 231.796875 300.664062 231.796875 C 300.664062 231.796875 303.183594 226.757812 303.183594 226.757812 C 304.507812 226.757812 304.863281 225.277344 304.863281 224.238281 C 304.863281 224.238281 306.542969 221.296875 306.542969 221.296875 C 307.714844 218.953125 312.421875 215.789062 312.421875 212.480469 C 312.421875 212.480469 313.261719 211.640625 313.261719 211.640625 C 314.257812 211.640625 314.257812 210.800781 313.261719 210.800781 C 313.261719 209.839844 312.777344 207.441406 314.101562 207.441406 C 314.101562 207.441406 314.941406 208.703125 314.941406 208.703125 C 317.289062 211.046875 319.980469 201.59375 319.980469 200.304688 C 319.980469 200.304688 318.300781 197.78125 318.300781 197.78125 C 317.546875 196.277344 319.140625 192.871094 319.140625 191.0625 C 319.140625 189.898438 317.449219 187.730469 318.300781 186.023438 C 318.300781 186.023438 319.980469 183.507812 319.980469 183.507812 C 319.980469 181.875 315.816406 173.496094 314.941406 171.75 C 314.941406 171.75 314.101562 165.03125 314.101562 165.03125 C 313.144531 163.113281 305.816406 156.859375 305.703125 156.632812 C 305.703125 156.632812 305.703125 153.273438 305.703125 153.273438 C 304.128906 150.125 302.710938 150.726562 300.242188 149.492188 C 296.617188 147.679688 292.445312 141.394531 288.484375 139.414062 C 283.15625 136.75 278.773438 135.398438 273.367188 132.695312 C 273.367188 132.695312 269.171875 132.695312 269.171875 132.695312 C 269.171875 132.695312 266.648438 130.175781 266.648438 130.175781 C 265.3125 129.507812 262.199219 130.175781 261.609375 130.175781 C 259.902344 130.175781 258.0625 128.402344 256.570312 127.65625 C 256.570312 127.65625 252.375 128.496094 252.375 128.496094 C 247.859375 126.238281 242.601562 126.550781 238.09375 124.296875 C 235.082031 122.789062 233.859375 126.816406 231.796875 126.816406 C 231.796875 126.816406 230.957031 125.976562 230.957031 125.976562 C 230.957031 125.976562 230.117188 125.136719 230.117188 125.136719 C 230.117188 123.417969 216.867188 117.460938 213.742188 115.898438 C 213.742188 115.898438 209.121094 112.539062 209.121094 112.539062 C 209.121094 111.542969 208.28125 111.542969 208.28125 112.539062 C 206.210938 112.539062 204.375 110.019531 202.402344 110.019531 C 202.402344 109.023438 201.5625 109.023438 201.5625 110.019531 C 199.027344 110.019531 195.023438 116.738281 190.644531 116.738281 C 190.644531 116.738281 189.804688 117.578125 189.804688 117.578125 C 189.804688 117.578125 188.964844 118.417969 188.964844 118.417969 C 188.964844 118.417969 183.085938 121.777344 183.085938 121.777344 C 180.125 121.777344 178.046875 123.9375 178.046875 125.976562 C 178.046875 125.976562 175.527344 128.496094 175.527344 128.496094 C 175.527344 128.496094 170.488281 125.976562 170.488281 125.976562 C 170.488281 125.976562 169.648438 126.816406 169.648438 126.816406 C 169.648438 126.816406 165.449219 126.816406 165.449219 126.816406 C 165.449219 126.816406 163.769531 127.65625 163.769531 127.65625 C 159.777344 127.65625 155.78125 130.179688 152.429688 131.855469 C 147.441406 134.351562 137.300781 132.703125 132.273438 135.214844 C 119.652344 141.527344 96.582031 157.898438 96.582031 174.6875 C 94.8125 174.6875 94.902344 176.816406 94.902344 178.046875 C 94.902344 183.503906 91.824219 205.058594 94.0625 209.539062 C 95.332031 212.078125 97.472656 212.164062 99.101562 215.421875 C 101.238281 219.695312 101.265625 227.597656 106.660156 227.597656 C 106.660156 229.203125 110.859375 234.867188 110.859375 232.636719 C 110.859375 232.636719 115.476562 239.355469 115.476562 239.355469 C 116.921875 240.078125 122.617188 243.144531 122.617188 245.234375 C 122.617188 245.234375 120.9375 246.492188 120.9375 246.492188 C 120.042969 248.28125 122.335938 253.777344 120.9375 256.570312 C 119.496094 259.457031 114.183594 260 113.378906 261.609375 C 111.910156 264.546875 115.058594 268.582031 115.058594 271.269531 Z M 115.058594 271.269531 "/>
<path style=" stroke:none;fill-rule:nonzero;fill:rgb(11.372549%,40.784314%,92.156863%);fill-opacity:1;" d="M 210.800781 148.652344 L 205.34375 142.773438 C 203.71875 142.773438 200.722656 148.335938 200.722656 149.492188 C 198.199219 149.492188 192.46875 148.933594 190.226562 147.8125 C 190.226562 147.8125 188.964844 146.132812 188.964844 146.132812 C 188.964844 146.132812 187.285156 145.292969 187.285156 145.292969 C 187.285156 142.128906 181.640625 141.984375 180.566406 139.835938 C 179.8125 138.324219 176.984375 128.496094 175.527344 128.496094 C 175.527344 128.496094 178.046875 125.976562 178.046875 125.976562 C 179.53125 125.976562 184.652344 121.777344 183.085938 121.777344 C 183.085938 121.777344 188.964844 118.417969 188.964844 118.417969 C 188.964844 118.417969 189.804688 117.578125 189.804688 117.578125 C 189.804688 117.578125 190.644531 116.738281 190.644531 116.738281 C 195.023438 116.738281 199.027344 110.019531 201.5625 110.019531 C 201.5625 111.015625 202.402344 111.015625 202.402344 110.019531 C 204.375 110.019531 206.210938 112.539062 208.28125 112.539062 C 208.28125 113.535156 209.121094 113.535156 209.121094 112.539062 C 209.121094 112.539062 213.742188 115.898438 213.742188 115.898438 C 216.867188 117.460938 230.117188 123.417969 230.117188 125.136719 C 230.117188 125.136719 230.957031 125.976562 230.957031 125.976562 C 230.957031 125.976562 231.796875 126.816406 231.796875 126.816406 C 231.796875 128.191406 230.117188 128.878906 230.117188 129.757812 C 230.117188 138.003906 222.9375 148.652344 210.800781 148.652344 Z M 210.800781 148.652344 "/>
<path style=" stroke:none;fill-rule:nonzero;fill:rgb(100%,43.137255%,0%);fill-opacity:1;" d="M 107.5 226.757812 L 106.660156 227.597656 C 101.265625 227.597656 101.238281 219.695312 99.101562 215.421875 C 97.472656 212.164062 95.332031 212.078125 94.0625 209.539062 C 91.824219 205.058594 94.902344 183.503906 94.902344 178.046875 C 96.671875 178.046875 96.582031 175.917969 96.582031 174.6875 C 96.582031 157.898438 119.652344 141.527344 132.273438 135.214844 C 137.300781 132.703125 147.441406 134.351562 152.429688 131.855469 C 155.78125 130.179688 159.777344 127.65625 163.769531 127.65625 C 163.769531 127.65625 165.449219 126.816406 165.449219 126.816406 C 165.449219 126.816406 169.648438 126.816406 169.648438 126.816406 C 169.648438 126.816406 170.488281 125.976562 170.488281 125.976562 C 170.488281 125.976562 175.527344 128.496094 175.527344 128.496094 C 176.984375 128.496094 179.8125 138.324219 180.566406 139.835938 C 181.640625 141.984375 187.285156 142.128906 187.285156 145.292969 C 187.285156 145.292969 188.964844 146.132812 188.964844 146.132812 C 188.964844 146.132812 190.226562 147.8125 190.226562 147.8125 C 192.46875 148.933594 198.199219 149.492188 200.722656 149.492188 C 200.722656 149.492188 210.800781 148.652344 210.800781 148.652344 C 222.9375 148.652344 230.117188 138.003906 230.117188 129.757812 C 230.117188 128.878906 231.796875 128.191406 231.796875 126.816406 C 233.859375 126.816406 235.082031 122.789062 238.09375 124.296875 C 242.601562 126.550781 247.859375 126.238281 252.375 128.496094 C 252.375 128.496094 256.570312 127.65625 256.570312 127.65625 C 258.0625 128.402344 259.902344 130.175781 261.609375 130.175781 C 262.199219 130.175781 265.3125 129.507812 266.648438 130.175781 C 266.648438 130.175781 269.171875 132.695312 269.171875 132.695312 C 269.171875 132.695312 273.367188 132.695312 273.367188 132.695312 C 278.773438 135.398438 283.15625 136.75 288.484375 139.414062 C 292.445312 141.394531 296.617188 147.679688 300.242188 149.492188 C 302.710938 150.726562 304.128906 150.125 305.703125 153.273438 C 305.703125 153.273438 305.703125 156.632812 305.703125 156.632812 C 305.816406 156.859375 313.144531 163.113281 314.101562 165.03125 C 314.101562 165.03125 314.941406 171.75 314.941406 171.75 C 315.816406 173.496094 319.980469 181.875 319.980469 183.507812 C 319.980469 183.507812 318.300781 186.023438 318.300781 186.023438 C 317.449219 187.730469 319.140625 189.898438 319.140625 191.0625 C 319.140625 192.871094 317.546875 196.277344 318.300781 197.78125 C 318.300781 197.78125 319.980469 200.304688 319.980469 200.304688 C 319.980469 201.59375 317.289062 211.046875 314.941406 208.703125 C 314.941406 208.703125 314.101562 207.441406 314.101562 207.441406 C 314.101562 207.441406 314.101562 204.921875 314.101562 204.921875 C 315.425781 204.921875 314.941406 202.523438 314.941406 201.5625 C 314.941406 200.441406 314.941406 200.164062 314.941406 199.042969 C 314.941406 199.042969 314.101562 197.363281 314.101562 197.363281 C 314.101562 195.835938 314.941406 193.507812 314.941406 191.484375 C 314.941406 191.484375 314.101562 189.804688 314.101562 189.804688 C 314.101562 189.804688 313.261719 181.40625 313.261719 181.40625 C 313.261719 181.40625 312.421875 180.566406 312.421875 180.566406 C 312.421875 180.566406 312.421875 178.886719 312.421875 178.886719 C 312.421875 178.886719 311.582031 177.207031 311.582031 177.207031 C 311.582031 176.054688 310.15625 168.808594 309.0625 168.808594 C 309.0625 168.808594 307.382812 166.289062 307.382812 166.289062 C 307.382812 166.289062 307.382812 165.449219 307.382812 165.449219 C 307.382812 165.449219 306.542969 164.609375 306.542969 164.609375 C 306.542969 164.609375 304.863281 162.089844 304.863281 162.089844 C 304.863281 162.089844 304.023438 160.410156 304.023438 160.410156 C 304.023438 160.410156 303.183594 158.730469 303.183594 158.730469 C 303.183594 158.730469 300.664062 156.210938 300.664062 156.210938 C 300.664062 153.960938 296.589844 152.011719 294.785156 152.011719 C 294.785156 152.011719 293.945312 151.171875 293.945312 151.171875 C 293.945312 147.648438 285.527344 146.332031 283.445312 145.292969 C 280.308594 143.722656 258.011719 137.855469 254.890625 139.414062 C 252.46875 140.625 250.746094 141.933594 247.753906 141.933594 C 247.753906 141.933594 246.074219 143.613281 246.074219 143.613281 C 244.167969 143.613281 236.835938 145.652344 236.835938 147.8125 C 235.625 147.8125 231.796875 150.5625 231.796875 152.011719 C 231.796875 152.011719 230.957031 152.851562 230.957031 152.851562 C 230.957031 152.851562 224.238281 156.210938 224.238281 156.210938 C 221.195312 156.210938 216.484375 159.878906 213.742188 161.25 C 213.742188 161.25 195.265625 161.25 195.265625 161.25 C 192.382812 159.808594 189.929688 157.890625 186.445312 157.890625 C 186.445312 155.210938 175.972656 148.652344 173.847656 148.652344 C 173.847656 148.652344 170.488281 146.972656 170.488281 146.972656 C 170.488281 143.761719 151.140625 141.933594 146.972656 141.933594 C 133.792969 141.933594 114.148438 149.21875 108.339844 160.828125 C 106.367188 164.777344 102.460938 165.636719 102.460938 170.488281 C 102.460938 170.488281 101.621094 171.328125 101.621094 171.328125 C 101.621094 171.328125 100.78125 178.046875 100.78125 178.046875 C 100.78125 178.046875 99.941406 179.726562 99.941406 179.726562 C 99.941406 180.6875 100.425781 183.085938 99.101562 183.085938 C 97.777344 183.085938 98.261719 185.484375 98.261719 186.445312 C 98.261719 186.445312 97.421875 190.644531 97.421875 190.644531 C 97.421875 191.523438 97.023438 193.164062 98.261719 193.164062 C 98.261719 193.164062 98.261719 194.003906 98.261719 194.003906 C 97.085938 194.003906 97.085938 195.683594 98.261719 195.683594 C 98.261719 203.464844 98.070312 209.996094 101.621094 217.101562 C 103.390625 220.636719 107.5 222.425781 107.5 226.757812 Z M 107.5 226.757812 "/>
<path style=" stroke:none;fill-rule:nonzero;fill:rgb(50.588238%,30.980393%,100%);fill-opacity:1;" d="M 237.675781 235.15625 C 237.675781 243.070312 248.796875 247.644531 254.054688 250.273438 C 256.882812 251.6875 260.761719 262.867188 262.453125 263.710938 C 264.117188 264.542969 267.765625 260.214844 269.171875 259.511719 C 271.769531 258.210938 273.191406 262.539062 275.890625 261.191406 C 276.738281 260.765625 281.363281 251.503906 282.1875 249.851562 L 282.1875 245.65625 C 283.324219 243.382812 285.199219 245.199219 286.804688 244.394531 C 289.289062 243.152344 291.945312 238.515625 294.785156 238.515625 C 294.785156 238.515625 298.984375 234.316406 298.984375 234.316406 C 298.984375 234.316406 300.664062 231.796875 300.664062 231.796875 C 300.664062 230.335938 301.238281 226.757812 303.183594 226.757812 C 303.183594 225.71875 303.539062 224.238281 304.863281 224.238281 C 304.863281 224.238281 306.542969 221.296875 306.542969 221.296875 C 307.714844 218.953125 312.421875 215.789062 312.421875 212.480469 C 312.421875 212.480469 313.261719 211.640625 313.261719 211.640625 C 313.261719 211.640625 313.261719 210.800781 313.261719 210.800781 C 313.261719 209.839844 312.777344 207.441406 314.101562 207.441406 C 314.101562 207.441406 314.101562 204.921875 314.101562 204.921875 C 314.101562 203.960938 313.617188 201.5625 314.941406 201.5625 C 314.941406 200.441406 314.941406 200.164062 314.941406 199.042969 C 314.941406 199.042969 314.101562 197.363281 314.101562 197.363281 C 314.101562 195.835938 314.941406 193.507812 314.941406 191.484375 C 314.941406 191.484375 314.101562 189.804688 314.101562 189.804688 C 314.101562 189.804688 313.261719 181.40625 313.261719 181.40625 C 313.261719 181.40625 312.421875 180.566406 312.421875 180.566406 C 312.421875 180.566406 312.421875 178.886719 312.421875 178.886719 C 312.421875 178.886719 311.582031 177.207031 311.582031 177.207031 C 311.582031 176.054688 310.15625 168.808594 309.0625 168.808594 C 307.738281 168.808594 307.382812 167.328125 307.382812 166.289062 C 307.382812 166.289062 307.382812 165.449219 307.382812 165.449219 C 307.382812 165.449219 306.542969 164.609375 306.542969 164.609375 C 306.542969 164.609375 304.863281 162.089844 304.863281 162.089844 C 304.863281 162.089844 304.023438 160.410156 304.023438 160.410156 C 304.023438 160.410156 303.183594 158.730469 303.183594 158.730469 C 301.890625 158.730469 300.664062 157.601562 300.664062 156.210938 C 300.664062 153.960938 296.589844 152.011719 294.785156 152.011719 C 294.785156 152.011719 293.945312 151.171875 293.945312 151.171875 C 293.945312 147.648438 285.527344 146.332031 283.445312 145.292969 C 280.308594 143.722656 258.011719 137.855469 254.890625 139.414062 C 252.46875 140.625 250.746094 141.933594 247.753906 141.933594 C 247.753906 143.402344 247.542969 143.613281 246.074219 143.613281 C 244.167969 143.613281 236.835938 145.652344 236.835938 147.8125 C 236.835938 148.851562 237.621094 150.332031 235.15625 150.332031 C 235.15625 150.332031 234.316406 151.171875 234.316406 151.171875 C 234.316406 151.171875 233.476562 152.011719 233.476562 152.011719 C 233.476562 152.011719 233.476562 153.691406 233.476562 153.691406 C 235.136719 153.691406 234.484375 157.890625 232.636719 157.890625 C 232.636719 161.578125 234.316406 163.84375 234.316406 167.128906 C 235.5625 167.128906 235.5625 169.648438 234.316406 169.648438 C 234.316406 169.648438 234.316406 170.488281 234.316406 170.488281 C 234.316406 170.488281 235.15625 172.167969 235.15625 172.167969 C 235.15625 172.167969 235.15625 183.925781 235.15625 183.925781 C 236.445312 183.925781 236.445312 187.285156 235.15625 187.285156 C 235.15625 187.285156 235.15625 190.644531 235.15625 190.644531 C 236.53125 190.644531 236.53125 200.722656 235.15625 200.722656 C 235.15625 203.53125 236.992188 218.464844 236.835938 218.78125 C 235.679688 221.089844 233.476562 215.621094 233.476562 215 C 233.476562 215 229.277344 215.839844 229.277344 215.839844 C 229.277344 217.785156 225.273438 225.078125 230.117188 225.078125 C 230.117188 223.636719 235.320312 220.75 237.257812 221.71875 C 240.792969 223.488281 249.414062 233.695312 244.8125 235.996094 C 242.65625 237.074219 239.367188 235.15625 237.675781 235.15625 Z M 237.675781 235.15625 "/>
<path style=" stroke:none;fill-rule:evenodd;fill:rgb(50.588238%,30.980393%,100%);fill-opacity:1;" d="M 143.613281 260.351562 C 143.613281 263.496094 145.371094 260.351562 143.613281 260.351562 M 170.488281 236.835938 C 170.488281 238.460938 169.984375 250.019531 169.648438 250.695312 L 164.609375 254.054688 C 163.550781 256.167969 166.941406 257.785156 166.289062 259.09375 C 164.996094 261.675781 161.988281 258.929688 160.828125 259.511719 C 158.765625 260.542969 157.570312 267.023438 157.46875 267.070312 C 154.5625 268.523438 153.894531 262.761719 152.429688 262.03125 C 150.171875 260.902344 150.046875 264.0625 149.070312 264.550781 L 144.03125 262.871094 L 140.671875 263.710938 L 137.3125 256.992188 C 135.074219 255.871094 137.082031 263.59375 133.953125 262.03125 C 127.007812 258.558594 133.078125 245.234375 122.617188 245.234375 C 122.617188 243.144531 116.921875 240.078125 115.476562 239.355469 C 115.476562 239.355469 110.859375 232.636719 110.859375 232.636719 C 110.859375 231.714844 107.90625 226.757812 107.5 226.757812 C 107.5 222.425781 103.390625 220.636719 101.621094 217.101562 C 98.070312 209.996094 98.261719 203.464844 98.261719 195.683594 C 98.261719 195.683594 98.261719 194.003906 98.261719 194.003906 C 98.261719 194.003906 98.261719 193.164062 98.261719 193.164062 C 98.261719 192.285156 98.660156 190.644531 97.421875 190.644531 C 97.421875 190.644531 98.261719 186.445312 98.261719 186.445312 C 99.585938 186.445312 99.101562 184.046875 99.101562 183.085938 C 100.425781 183.085938 99.941406 180.6875 99.941406 179.726562 C 99.941406 179.726562 100.78125 178.046875 100.78125 178.046875 C 100.78125 178.046875 101.621094 171.328125 101.621094 171.328125 C 101.621094 171.328125 102.460938 170.488281 102.460938 170.488281 C 102.460938 165.636719 106.367188 164.777344 108.339844 160.828125 C 114.148438 149.21875 133.792969 141.933594 146.972656 141.933594 C 151.140625 141.933594 170.488281 143.761719 170.488281 146.972656 C 170.488281 149.390625 171.574219 150.332031 173.847656 150.332031 C 173.847656 151.933594 173.847656 152.402344 173.847656 153.691406 C 172.144531 153.691406 173.933594 155.371094 174.6875 155.371094 C 174.6875 155.371094 175.527344 155.371094 175.527344 155.371094 C 175.527344 155.371094 176.367188 156.210938 176.367188 156.210938 C 176.367188 158.613281 179.570312 161.984375 178.046875 165.03125 C 175.0625 170.996094 174.6875 177.507812 174.6875 184.765625 C 174.6875 184.765625 173.847656 186.445312 173.847656 186.445312 C 173.847656 186.445312 174.6875 210.382812 174.6875 210.382812 C 173.871094 212.011719 171.21875 217.71875 172.167969 219.617188 C 173.691406 222.667969 176.367188 214.402344 176.367188 213.320312 C 178.707031 213.320312 180.121094 216.679688 181.40625 216.679688 C 181.40625 218.449219 182.070312 225.078125 179.726562 225.078125 C 179.726562 225.078125 175.109375 221.71875 175.109375 221.71875 C 170.960938 223.792969 162.542969 229.761719 165.449219 235.578125 C 166.167969 237.015625 170.488281 234.773438 170.488281 236.835938 Z M 170.488281 236.835938 "/>
<path style=" stroke:none;fill-rule:nonzero;fill:rgb(0.784314%,17.254902%,100%);fill-opacity:1;" d="M 177.207031 210.800781 L 176.367188 213.320312 C 176.367188 214.402344 173.691406 222.667969 172.167969 219.617188 C 171.21875 217.71875 173.871094 212.011719 174.6875 210.382812 C 174.6875 210.382812 173.847656 186.445312 173.847656 186.445312 C 173.847656 186.445312 174.6875 184.765625 174.6875 184.765625 C 174.6875 177.507812 175.0625 170.996094 178.046875 165.03125 C 179.570312 161.984375 176.367188 158.613281 176.367188 156.210938 C 176.367188 156.210938 175.527344 155.371094 175.527344 155.371094 C 175.527344 155.371094 174.6875 155.371094 174.6875 155.371094 C 174.6875 155.371094 173.847656 153.691406 173.847656 153.691406 C 173.847656 152.402344 173.847656 151.933594 173.847656 150.332031 C 173.847656 150.332031 173.847656 148.652344 173.847656 148.652344 C 175.972656 148.652344 186.445312 155.210938 186.445312 157.890625 C 183.621094 157.890625 180.566406 162.011719 180.566406 164.609375 C 180.566406 164.609375 179.726562 166.289062 179.726562 166.289062 C 179.726562 166.289062 176.367188 178.46875 176.367188 178.46875 C 176.367188 178.46875 177.207031 210.800781 177.207031 210.800781 Z M 177.207031 210.800781 "/>
<path style=" stroke:none;fill-rule:nonzero;fill:rgb(0.784314%,17.254902%,100%);fill-opacity:1;" d="M 235.15625 150.332031 L 234.316406 151.171875 C 234.316406 151.171875 235.15625 150.332031 235.15625 150.332031 Z M 235.15625 150.332031 "/>
<path style=" stroke:none;fill-rule:nonzero;fill:rgb(0.784314%,17.254902%,100%);fill-opacity:1;" d="M 234.316406 151.171875 L 233.476562 152.011719 C 233.476562 152.011719 234.316406 151.171875 234.316406 151.171875 Z M 234.316406 151.171875 "/>
<path style=" stroke:none;fill-rule:nonzero;fill:rgb(0.784314%,17.254902%,100%);fill-opacity:1;" d="M 232.636719 213.320312 L 233.476562 215 C 233.476562 215.621094 235.679688 221.089844 236.835938 218.78125 C 236.992188 218.464844 235.15625 203.53125 235.15625 200.722656 C 235.15625 200.722656 235.15625 190.644531 235.15625 190.644531 C 235.15625 190.644531 235.15625 187.285156 235.15625 187.285156 C 235.15625 187.285156 235.15625 183.925781 235.15625 183.925781 C 235.15625 183.925781 235.15625 172.167969 235.15625 172.167969 C 235.15625 172.167969 234.316406 170.488281 234.316406 170.488281 C 234.316406 170.488281 234.316406 169.648438 234.316406 169.648438 C 234.316406 169.648438 234.316406 167.128906 234.316406 167.128906 C 234.316406 163.84375 232.636719 161.578125 232.636719 157.890625 C 232.636719 157.890625 233.476562 153.691406 233.476562 153.691406 C 233.476562 153.691406 233.476562 152.011719 233.476562 152.011719 C 233.476562 152.011719 231.796875 152.011719 231.796875 152.011719 C 231.796875 152.011719 230.957031 152.851562 230.957031 152.851562 C 230.957031 152.851562 224.238281 156.210938 224.238281 156.210938 C 224.238281 158.964844 227.742188 156.917969 228.4375 158.3125 C 230.285156 162.003906 230.804688 166.402344 232.636719 170.070312 C 232.636719 170.070312 232.636719 178.46875 232.636719 178.46875 C 236.234375 185.660156 232.636719 204.765625 232.636719 213.320312 Z M 232.636719 213.320312 "/>
<path style=" stroke:none;fill-rule:nonzero;fill:rgb(100%,3.137255%,0%);fill-opacity:1;" d="M 229.277344 215.839844 C 228.15625 215.839844 211.644531 223.1875 209.539062 224.238281 C 206.15625 225.929688 193.144531 221.71875 189.382812 221.71875 L 187.703125 219.199219 L 182.246094 216.679688 C 182.246094 216.679688 177.207031 210.800781 177.207031 210.800781 C 177.207031 210.800781 176.367188 178.46875 176.367188 178.46875 C 176.367188 178.46875 179.726562 166.289062 179.726562 166.289062 C 179.726562 166.289062 180.566406 164.609375 180.566406 164.609375 C 180.566406 162.011719 183.621094 157.890625 186.445312 157.890625 C 189.929688 157.890625 192.382812 159.808594 195.265625 161.25 C 195.265625 161.25 213.742188 161.25 213.742188 161.25 C 216.484375 159.878906 221.195312 156.210938 224.238281 156.210938 C 224.238281 158.964844 227.742188 156.917969 228.4375 158.3125 C 230.285156 162.003906 230.804688 166.402344 232.636719 170.070312 C 232.636719 170.070312 232.636719 178.46875 232.636719 178.46875 C 236.234375 185.660156 232.636719 204.765625 232.636719 213.320312 C 232.636719 213.320312 229.277344 215.839844 229.277344 215.839844 Z M 229.277344 215.839844 "/>
<path style=" stroke:none;fill-rule:nonzero;fill:rgb(100%,43.137255%,0%);fill-opacity:1;" d="M 313.261719 210.800781 C 314.257812 210.800781 314.257812 211.640625 313.261719 211.640625 C 313.261719 211.640625 313.261719 210.800781 313.261719 210.800781 Z M 313.261719 210.800781 "/>
<path style=" stroke:none;fill-rule:nonzero;fill:rgb(100%,43.137255%,0%);fill-opacity:1;" d="M 313.261719 211.640625 L 312.421875 212.480469 C 312.421875 212.480469 313.261719 211.640625 313.261719 211.640625 Z M 313.261719 211.640625 "/>
<path style=" stroke:none;fill-rule:nonzero;fill:rgb(88.235295%,94.117647%,5.098039%);fill-opacity:1;" d="M 160.410156 293.945312 C 157.152344 293.945312 153.65625 295.625 151.171875 295.625 C 143.941406 295.625 135.03125 294.484375 128.914062 291.425781 C 128.914062 291.425781 123.875 285.546875 123.875 285.546875 C 122.226562 284.722656 119.71875 285.566406 118 284.707031 C 115.65625 283.535156 119.546875 271.269531 115.058594 271.269531 C 115.058594 268.582031 111.910156 264.546875 113.378906 261.609375 C 114.183594 260 119.496094 259.457031 120.9375 256.570312 C 122.335938 253.777344 120.042969 248.28125 120.9375 246.492188 C 120.9375 246.492188 122.617188 245.234375 122.617188 245.234375 C 133.078125 245.234375 127.007812 258.558594 133.953125 262.03125 C 137.082031 263.59375 135.074219 255.871094 137.3125 256.992188 C 137.3125 256.992188 140.671875 263.710938 140.671875 263.710938 C 140.671875 263.710938 144.03125 262.871094 144.03125 262.871094 C 144.03125 262.871094 149.070312 264.550781 149.070312 264.550781 C 150.046875 264.0625 150.171875 260.902344 152.429688 262.03125 C 153.894531 262.761719 154.5625 268.523438 157.46875 267.070312 C 157.570312 267.023438 158.765625 260.542969 160.828125 259.511719 C 161.988281 258.929688 164.996094 261.675781 166.289062 259.09375 C 166.941406 257.785156 163.550781 256.167969 164.609375 254.054688 C 164.609375 254.054688 169.648438 250.695312 169.648438 250.695312 C 169.984375 250.019531 170.488281 238.460938 170.488281 236.835938 C 172.414062 236.835938 179.441406 231.109375 180.566406 228.859375 C 180.566406 228.859375 179.726562 225.078125 179.726562 225.078125 C 182.070312 225.078125 181.40625 218.449219 181.40625 216.679688 C 181.40625 216.679688 182.246094 216.679688 182.246094 216.679688 C 182.246094 216.679688 187.703125 219.199219 187.703125 219.199219 C 187.703125 219.199219 189.382812 221.71875 189.382812 221.71875 C 193.144531 221.71875 206.15625 225.929688 209.539062 224.238281 C 211.644531 223.1875 228.15625 215.839844 229.277344 215.839844 C 229.277344 217.785156 225.273438 225.078125 230.117188 225.078125 C 230.117188 228.15625 232.636719 230.796875 232.636719 230.957031 C 232.636719 230.957031 233.476562 232.636719 233.476562 232.636719 C 233.476562 232.636719 237.675781 235.15625 237.675781 235.15625 C 237.675781 243.070312 248.796875 247.644531 254.054688 250.273438 C 256.882812 251.6875 260.761719 262.867188 262.453125 263.710938 C 264.117188 264.542969 267.765625 260.214844 269.171875 259.511719 C 271.769531 258.210938 273.191406 262.539062 275.890625 261.191406 C 276.738281 260.765625 281.363281 251.503906 282.1875 249.851562 C 282.1875 249.851562 282.1875 245.65625 282.1875 245.65625 C 283.324219 243.382812 285.199219 245.199219 286.804688 244.394531 C 289.289062 243.152344 291.945312 238.515625 294.785156 238.515625 C 294.785156 238.515625 295.625 238.515625 295.625 238.515625 C 295.625 238.515625 293.105469 243.132812 293.105469 243.132812 C 291.390625 246.566406 293.945312 267.605469 293.945312 271.269531 C 293.945312 281.617188 294.289062 274.667969 287.648438 277.988281 C 286.066406 278.777344 286.804688 284.289062 284.289062 285.546875 C 281.742188 286.820312 279.785156 284.4375 277.570312 285.546875 C 277.570312 285.546875 273.367188 288.90625 273.367188 288.90625 C 270.863281 290.160156 267.96875 284.046875 264.96875 285.546875 C 262.636719 286.714844 260.386719 290.359375 259.929688 290.585938 C 256.367188 292.367188 236.246094 287.980469 233.054688 286.386719 C 225.507812 282.613281 231.164062 273.785156 229.277344 270.007812 C 228.433594 268.320312 224.464844 267.8125 222.976562 267.070312 C 216.476562 263.820312 211.890625 256.90625 205.34375 253.632812 C 203.777344 252.851562 192.546875 263.910156 190.644531 265.8125 C 190.644531 265.8125 180.148438 273.789062 180.148438 273.789062 C 180.148438 273.789062 174.6875 275.046875 174.6875 275.046875 C 174.6875 275.046875 175.527344 280.929688 175.527344 280.929688 C 172.628906 286.722656 168.007812 293.945312 160.410156 293.945312 Z M 160.410156 293.945312 "/>
<path style=" stroke:none;fill-rule:nonzero;fill:rgb(48.627451%,98.823529%,0%);fill-opacity:1;" d="M 179.726562 225.078125 L 175.109375 221.71875 C 170.960938 223.792969 162.542969 229.761719 165.449219 235.578125 C 166.167969 237.015625 170.488281 234.773438 170.488281 236.835938 C 172.414062 236.835938 179.441406 231.109375 180.566406 228.859375 C 180.566406 228.859375 179.726562 225.078125 179.726562 225.078125 Z M 179.726562 225.078125 "/>
<path style=" stroke:none;fill-rule:nonzero;fill:rgb(48.627451%,98.823529%,0%);fill-opacity:1;" d="M 233.476562 232.636719 L 237.675781 235.15625 C 239.367188 235.15625 242.65625 237.074219 244.8125 235.996094 C 249.414062 233.695312 240.792969 223.488281 237.257812 221.71875 C 235.320312 220.75 230.117188 223.636719 230.117188 225.078125 C 230.117188 228.15625 232.636719 230.796875 232.636719 230.957031 C 232.636719 230.957031 233.476562 232.636719 233.476562 232.636719 Z M 233.476562 232.636719 "/>
<path style=" stroke:none;fill-rule:nonzero;fill:rgb(50.588238%,30.980393%,100%);fill-opacity:1;" d="M 232.636719 230.957031 L 233.476562 232.636719 C 233.476562 232.636719 232.636719 230.957031 232.636719 230.957031 Z M 232.636719 230.957031 "/>
<path style=" stroke:none;fill-rule:nonzero;fill:rgb(88.235295%,94.117647%,5.098039%);fill-opacity:1;" d="M 143.613281 260.351562 C 143.613281 263.496094 145.371094 260.351562 143.613281 260.351562 Z M 143.613281 260.351562 "/>
<path style=" stroke:none;fill-rule:nonzero;fill:rgb(14.901961%,49.411765%,100%);fill-opacity:1;" d="M 207.441406 269.589844 C 207.441406 271.5625 200.777344 269.773438 199.460938 270.429688 C 196.1875 272.066406 192.324219 276.328125 192.324219 280.085938 C 192.324219 282.519531 196.785156 282.1875 198.203125 282.1875 C 204.050781 282.1875 213.796875 283.839844 218.78125 281.347656 C 220.550781 280.460938 219.199219 280.089844 219.199219 279.25 L 220.878906 277.570312 C 222.226562 274.875 215.382812 272.910156 214.160156 271.6875 C 211.8125 269.34375 210.441406 269.589844 207.441406 269.589844 Z M 207.441406 269.589844 "/>
<path style=" stroke:none;fill-rule:nonzero;fill:rgb(98.039216%,50.196081%,44.705883%);fill-opacity:1;" d="M 90.703125 278.828125 L 89.023438 280.929688 C 86.421875 286.128906 97.535156 278.828125 90.703125 278.828125 Z M 90.703125 278.828125 "/>
<path style=" stroke:none;fill-rule:nonzero;fill:rgb(98.039216%,50.196081%,44.705883%);fill-opacity:1;" d="M 95.742188 281.347656 C 95.742188 282.617188 94.902344 283.867188 94.902344 285.125 C 94.902344 286.519531 100.300781 287.226562 101.203125 287.226562 C 103.402344 287.226562 107.117188 292.265625 109.601562 292.265625 C 111.136719 292.265625 109.140625 283.21875 107.078125 282.1875 C 105.203125 281.25 104.292969 284.574219 102.882812 283.867188 Z M 95.742188 281.347656 "/>
<path style=" stroke:none;fill-rule:nonzero;fill:rgb(98.039216%,50.196081%,44.705883%);fill-opacity:1;" d="M 304.023438 282.1875 L 301.503906 285.96875 C 301.503906 298.441406 316.710938 282.1875 304.023438 282.1875 Z M 304.023438 282.1875 "/>
<path style=" stroke:none;fill-rule:evenodd;fill:rgb(98.039216%,50.196081%,44.705883%);fill-opacity:1;" d="M 253.632812 303.183594 C 253.632812 306.328125 255.390625 303.183594 253.632812 303.183594 M 250.273438 292.265625 C 250.273438 294.046875 244.308594 295.375 243.554688 296.882812 C 242.34375 299.308594 243.882812 302.941406 242.714844 305.28125 C 241.832031 307.046875 237.300781 306.871094 235.996094 309.484375 C 234.160156 313.148438 235.367188 327.433594 238.9375 329.21875 L 243.132812 329.21875 C 244.273438 329.789062 246.5625 333.804688 249.015625 332.578125 C 250.0625 332.050781 247.5625 328.265625 250.695312 326.699219 C 254.523438 324.785156 254.15625 334.46875 256.992188 328.796875 C 257.722656 327.339844 252.304688 326.414062 253.632812 323.757812 C 254.40625 322.214844 256.007812 324.179688 256.570312 324.179688 C 256.636719 324.179688 264.421875 318.980469 264.550781 318.71875 C 266.332031 315.15625 263.652344 309.597656 265.390625 306.125 C 265.898438 305.105469 270.714844 303.335938 269.589844 301.085938 C 266.273438 294.445312 256.578125 292.265625 250.273438 292.265625 Z M 250.273438 292.265625 "/>
<path style=" stroke:none;fill-rule:nonzero;fill:rgb(98.039216%,50.196081%,44.705883%);fill-opacity:1;" d="M 160.410156 293.945312 C 157.152344 293.945312 153.65625 295.625 151.171875 295.625 C 151.171875 299.941406 142.628906 300.796875 145.292969 306.125 C 145.292969 306.125 149.492188 309.484375 149.492188 309.484375 C 149.492188 309.484375 149.492188 317.039062 149.492188 317.039062 C 149.960938 317.980469 152.769531 323.929688 153.273438 324.179688 C 153.273438 324.179688 156.210938 324.601562 156.210938 324.601562 C 157.746094 327.671875 156.941406 333.683594 162.507812 330.898438 C 164.214844 330.046875 165.441406 331.949219 167.546875 330.898438 C 171.714844 328.816406 174.480469 331.734375 177.207031 326.28125 C 178.671875 323.351562 176.605469 318.359375 175.527344 316.203125 C 174.359375 313.859375 175.898438 310.226562 174.6875 307.804688 C 173.800781 306.03125 169.132812 305.65625 167.546875 304.863281 C 166.140625 304.160156 160.410156 295.269531 160.410156 293.945312 Z M 160.410156 293.945312 "/>
<path style=" stroke:none;fill-rule:nonzero;fill:rgb(98.039216%,50.196081%,44.705883%);fill-opacity:1;" d="M 128.496094 310.742188 L 126.816406 315.359375 C 135.265625 332.257812 142.601562 310.742188 128.496094 310.742188 Z M 128.496094 310.742188 "/>
</g>
</svg>
