<?xml version="1.0" encoding="UTF-8"?>
<svg xmlns="http://www.w3.org/2000/svg" xmlns:xlink="http://www.w3.org/1999/xlink" width="430px" height="430px" viewBox="0 0 430 430" version="1.1">
<g id="surface1">
<rect x="0" y="0" width="430" height="430" style="fill:rgb(0%,0%,0%);fill-opacity:1;stroke:none;"/>
<path style=" stroke:none;fill-rule:nonzero;fill:rgb(98.039216%,50.196081%,44.705883%);fill-opacity:1;" d="M 275.46875 292.265625 L 275.46875 311.164062 L 272.949219 312.84375 L 275.46875 314.523438 L 275.46875 322.078125 C 275.46875 325.003906 276.308594 328.511719 276.308594 330.898438 L 276.726562 334.257812 C 277.023438 334.257812 278.378906 332.5625 281.765625 334.257812 L 282.1875 338.875 C 284.417969 343.339844 284.746094 337.617188 285.96875 337.617188 C 288.890625 337.617188 288.875 341.203125 292.6875 339.296875 C 296.832031 337.222656 296.273438 326.734375 294.785156 323.757812 C 294.132812 322.457031 290.800781 320.082031 289.328125 320.820312 L 285.546875 322.921875 C 284.507812 320.84375 285.546875 316.632812 285.546875 314.523438 L 285.125 311.582031 L 284.289062 314.101562 C 284.285156 314.101562 282.1875 306.886719 282.1875 306.125 C 282.1875 298.601562 280.199219 302.984375 278.828125 300.242188 C 278.515625 299.621094 279.632812 292.265625 275.46875 292.265625 Z M 275.46875 292.265625 "/>
<path style=" stroke:none;fill-rule:nonzero;fill:rgb(98.039216%,50.196081%,44.705883%);fill-opacity:1;" d="M 134.375 293.105469 L 131.855469 294.367188 C 129.796875 296.425781 128.804688 297.945312 127.65625 300.242188 C 126.523438 302.515625 128.644531 318.421875 126.816406 322.078125 C 125.84375 324.027344 119.414062 322.210938 117.15625 323.339844 C 114.792969 324.523438 115.929688 327.058594 115.058594 328.796875 C 112.453125 334.011719 113.6875 337.5625 118.835938 340.136719 L 120.515625 342.65625 C 122.875 343.835938 124.78125 338.457031 127.234375 338.457031 C 128.699219 338.457031 129.246094 342.074219 131.4375 340.976562 L 133.953125 338.457031 C 140.175781 335.347656 138.25 341.203125 142.773438 332.15625 C 143.210938 331.277344 144.242188 330.054688 143.613281 328.796875 C 142.613281 326.796875 141.472656 323.738281 138.992188 322.5 C 138.15625 322.078125 133.535156 322.019531 133.535156 320.398438 C 133.535156 319.644531 139.820312 318.75 141.09375 316.203125 C 142.398438 313.59375 141.59375 305.964844 141.933594 305.28125 C 144.753906 299.636719 141.589844 293.105469 134.375 293.105469 Z M 134.375 293.105469 "/>
</g>
</svg>
