<?xml version="1.0" encoding="UTF-8"?>
<svg xmlns="http://www.w3.org/2000/svg" xmlns:xlink="http://www.w3.org/1999/xlink" width="430px" height="430px" viewBox="0 0 430 430" version="1.1">
<g id="surface1">
<rect x="0" y="0" width="430" height="430" style="fill:rgb(0%,0%,0%);fill-opacity:1;stroke:none;"/>
<path style=" stroke:none;fill-rule:nonzero;fill:rgb(100%,89.019608%,0%);fill-opacity:1;" d="M 160.410156 214.160156 L 162.507812 216.679688 C 166.21875 218.535156 169.175781 220.011719 172.585938 221.71875 L 175.945312 220.878906 L 179.304688 221.71875 L 180.984375 218.359375 L 186.023438 218.359375 L 188.546875 214.160156 L 194.003906 213.742188 L 192.324219 212.898438 L 196.945312 211.640625 C 202.707031 208.757812 203.242188 203.050781 203.242188 196.945312 C 203.242188 195.238281 202.226562 186.566406 205.34375 188.125 L 206.601562 206.179688 C 210.1875 213.359375 227.050781 219.199219 235.996094 219.199219 C 235.996094 217.71875 233.035156 214.171875 231.375 215 C 226.902344 217.238281 216.425781 208.195312 214.160156 203.664062 C 212.976562 201.296875 210.800781 185.171875 210.800781 181.828125 C 210.800781 178.476562 215.007812 171.761719 213.320312 168.390625 C 211.5625 164.871094 215.289062 159.730469 213.320312 155.789062 C 207.730469 144.613281 208.28125 144.089844 208.28125 131.855469 C 208.28125 131.855469 207.441406 127.234375 207.441406 127.234375 C 207.441406 127.234375 209.960938 123.457031 209.960938 123.457031 C 206.511719 123.457031 206.738281 129.335938 205.34375 129.335938 C 204.207031 129.335938 198.285156 117.410156 195.265625 115.898438 C 183.585938 110.058594 162.394531 115.707031 157.050781 126.398438 C 152.140625 136.21875 142.292969 159.867188 147.8125 170.90625 C 149.332031 173.945312 147.085938 178.695312 148.652344 181.828125 C 149.851562 184.222656 149.300781 199.042969 153.691406 199.042969 C 153.691406 199.042969 152.851562 192.742188 152.851562 192.742188 C 154.761719 188.925781 156.125 186.195312 157.890625 182.664062 C 157.890625 182.664062 157.050781 178.46875 157.050781 178.46875 C 157.628906 177.3125 160.003906 175.976562 158.730469 173.429688 C 158.730469 173.429688 157.050781 172.585938 157.050781 172.585938 C 156.34375 171.175781 159.667969 170.265625 158.730469 168.390625 C 158.730469 168.390625 155.371094 165.03125 155.371094 165.03125 C 152.289062 158.863281 152.664062 144.40625 156.210938 137.3125 C 156.210938 137.3125 156.210938 133.117188 156.210938 133.117188 C 158.101562 129.335938 162.738281 127.625 164.609375 123.875 C 164.609375 123.875 165.867188 120.097656 165.867188 120.097656 C 165.867188 120.097656 172.585938 119.257812 172.585938 119.257812 C 172.585938 119.257812 172.585938 117.578125 172.585938 117.578125 C 178.714844 114.515625 192.382812 117.398438 197.78125 120.097656 C 198.28125 120.347656 201.496094 127.105469 202.402344 128.914062 C 202.402344 128.914062 201.5625 144.03125 201.5625 144.03125 C 201.5625 144.03125 197.363281 151.59375 197.363281 151.59375 C 196.425781 153.464844 198.203125 156.125 198.203125 157.46875 C 198.203125 157.46875 196.523438 160.828125 196.523438 160.828125 C 195.367188 163.140625 198.203125 168.191406 198.203125 170.90625 C 198.203125 170.90625 197.363281 175.109375 197.363281 175.109375 C 197.363281 175.109375 199.042969 176.789062 199.042969 176.789062 C 199.042969 176.789062 197.363281 182.664062 197.363281 182.664062 C 197.363281 190.441406 193.914062 200.480469 190.644531 207.023438 C 188.660156 210.988281 175.082031 221.285156 170.90625 219.199219 C 169.492188 218.492188 160.410156 212.527344 160.410156 214.160156 Z M 160.410156 214.160156 "/>
<path style=" stroke:none;fill-rule:nonzero;fill:rgb(100%,89.019608%,0%);fill-opacity:1;" d="M 211.640625 121.777344 C 213.921875 121.777344 212.761719 120.167969 214.578125 119.257812 C 217.40625 117.84375 238.449219 118.171875 240.617188 119.257812 C 242.351562 120.125 244.648438 123.457031 244.8125 123.457031 C 245.929688 123.457031 248.15625 123.449219 249.851562 124.296875 C 252.351562 125.546875 257.097656 137.527344 258.671875 140.671875 C 259.480469 142.292969 257.132812 151.875 257.832031 153.273438 C 260.179688 157.964844 259.171875 158.988281 256.992188 163.351562 L 257.832031 166.710938 L 255.3125 168.390625 L 256.992188 170.070312 C 258.039062 172.164062 255.3125 175.738281 255.3125 177.625 C 255.3125 182.488281 258.671875 187.824219 258.671875 193.164062 C 263.921875 193.164062 264.550781 170.949219 264.550781 166.289062 C 264.550781 159.570312 266.023438 152.855469 262.871094 146.554688 C 262.871094 146.554688 262.871094 142.351562 262.871094 142.351562 C 260.574219 137.757812 257.832031 136.933594 257.832031 132.273438 C 257.832031 132.273438 255.3125 130.59375 255.3125 130.59375 C 254.246094 128.460938 254.621094 125.421875 252.375 124.296875 C 252.375 124.296875 246.492188 120.097656 246.492188 120.097656 C 246.492188 120.097656 238.9375 118.417969 238.9375 118.417969 C 233.496094 115.699219 211.640625 112.738281 211.640625 121.777344 Z M 211.640625 121.777344 "/>
<path style=" stroke:none;fill-rule:nonzero;fill:rgb(100%,52.941179%,0%);fill-opacity:1;" d="M 157.050781 204.921875 C 157.050781 205.851562 159.835938 214.160156 160.410156 214.160156 C 160.410156 212.527344 169.492188 218.492188 170.90625 219.199219 C 175.082031 221.285156 188.660156 210.988281 190.644531 207.023438 C 193.914062 200.480469 197.363281 190.441406 197.363281 182.664062 C 197.363281 182.664062 199.042969 176.789062 199.042969 176.789062 C 199.042969 176.789062 197.363281 175.109375 197.363281 175.109375 C 197.363281 175.109375 198.203125 170.90625 198.203125 170.90625 C 198.203125 168.191406 195.367188 163.140625 196.523438 160.828125 C 196.523438 160.828125 198.203125 157.46875 198.203125 157.46875 C 198.203125 156.125 196.425781 153.464844 197.363281 151.59375 C 197.363281 151.59375 201.5625 144.03125 201.5625 144.03125 C 201.5625 144.03125 202.402344 128.914062 202.402344 128.914062 C 201.496094 127.105469 198.28125 120.347656 197.78125 120.097656 C 192.382812 117.398438 178.714844 114.515625 172.585938 117.578125 C 172.585938 117.578125 172.585938 119.257812 172.585938 119.257812 C 172.585938 119.257812 165.867188 120.097656 165.867188 120.097656 C 165.867188 120.097656 164.609375 123.875 164.609375 123.875 C 162.738281 127.625 158.101562 129.335938 156.210938 133.117188 C 156.210938 133.117188 156.210938 137.3125 156.210938 137.3125 C 152.664062 144.40625 152.289062 158.863281 155.371094 165.03125 C 155.371094 165.03125 158.730469 168.390625 158.730469 168.390625 C 159.667969 170.265625 156.34375 171.175781 157.050781 172.585938 C 157.050781 172.585938 158.730469 173.429688 158.730469 173.429688 C 160.003906 175.976562 157.628906 177.3125 157.050781 178.46875 C 157.050781 178.46875 157.890625 182.664062 157.890625 182.664062 C 156.125 186.195312 154.761719 188.925781 152.851562 192.742188 C 152.851562 192.742188 153.691406 199.042969 153.691406 199.042969 C 153.691406 199.042969 153.691406 199.882812 153.691406 199.882812 C 153.691406 199.882812 157.050781 204.921875 157.050781 204.921875 Z M 157.050781 204.921875 "/>
<path style=" stroke:none;fill-rule:nonzero;fill:rgb(100%,52.941179%,0%);fill-opacity:1;" d="M 238.515625 219.199219 L 240.195312 219.199219 C 240.195312 219.199219 241.875 218.359375 241.875 218.359375 C 241.875 216.960938 248.863281 213.320312 250.273438 213.320312 C 250.273438 212 258.671875 200.320312 258.671875 193.164062 C 258.671875 187.824219 255.3125 182.488281 255.3125 177.625 C 255.3125 175.738281 258.039062 172.164062 256.992188 170.070312 C 256.992188 170.070312 255.3125 168.390625 255.3125 168.390625 C 255.3125 168.390625 257.832031 166.710938 257.832031 166.710938 C 257.832031 166.710938 256.992188 163.351562 256.992188 163.351562 C 259.171875 158.988281 260.179688 157.964844 257.832031 153.273438 C 257.132812 151.875 259.480469 142.292969 258.671875 140.671875 C 257.097656 137.527344 252.351562 125.546875 249.851562 124.296875 C 248.15625 123.449219 245.929688 123.457031 244.8125 123.457031 C 244.648438 123.457031 242.351562 120.125 240.617188 119.257812 C 238.449219 118.171875 217.40625 117.84375 214.578125 119.257812 C 212.761719 120.167969 213.921875 121.777344 211.640625 121.777344 C 211.640625 121.777344 210.800781 122.617188 210.800781 122.617188 C 210.800781 122.617188 209.960938 123.457031 209.960938 123.457031 C 209.960938 123.457031 207.441406 127.234375 207.441406 127.234375 C 207.441406 127.234375 208.28125 131.855469 208.28125 131.855469 C 208.28125 144.089844 207.730469 144.613281 213.320312 155.789062 C 215.289062 159.730469 211.5625 164.871094 213.320312 168.390625 C 215.007812 171.761719 210.800781 178.476562 210.800781 181.828125 C 210.800781 185.171875 212.976562 201.296875 214.160156 203.664062 C 216.425781 208.195312 226.902344 217.238281 231.375 215 C 233.035156 214.171875 235.996094 217.71875 235.996094 219.199219 C 235.996094 219.199219 238.515625 219.199219 238.515625 219.199219 Z M 238.515625 219.199219 "/>
<path style=" stroke:none;fill-rule:nonzero;fill:rgb(100%,89.019608%,0%);fill-opacity:1;" d="M 211.640625 121.777344 L 210.800781 122.617188 C 210.800781 122.617188 211.640625 121.777344 211.640625 121.777344 Z M 211.640625 121.777344 "/>
<path style=" stroke:none;fill-rule:nonzero;fill:rgb(100%,89.019608%,0%);fill-opacity:1;" d="M 210.800781 122.617188 L 209.960938 123.457031 C 209.960938 123.457031 210.800781 122.617188 210.800781 122.617188 Z M 210.800781 122.617188 "/>
<path style=" stroke:none;fill-rule:nonzero;fill:rgb(100%,89.019608%,0%);fill-opacity:1;" d="M 153.691406 199.882812 L 157.050781 204.921875 C 155.222656 204.921875 153.691406 201.28125 153.691406 199.882812 Z M 153.691406 199.882812 "/>
<path style=" stroke:none;fill-rule:nonzero;fill:rgb(18.82353%,85.490197%,0%);fill-opacity:1;" d="M 330.058594 201.5625 C 330.058594 201.777344 321.558594 205.542969 319.980469 208.703125 L 319.980469 212.0625 C 318.46875 215.085938 313.355469 218.125 315.78125 222.976562 L 317.460938 222.140625 C 317.804688 222.820312 318.3125 226.757812 319.5625 226.757812 C 327.992188 226.757812 350.582031 201.5625 330.058594 201.5625 Z M 330.058594 201.5625 "/>
<path style=" stroke:none;fill-rule:nonzero;fill:rgb(100%,89.019608%,0%);fill-opacity:1;" d="M 250.273438 213.320312 C 248.863281 213.320312 241.875 216.960938 241.875 218.359375 C 245.058594 218.359375 250.273438 216.9375 250.273438 213.320312 Z M 250.273438 213.320312 "/>
<path style=" stroke:none;fill-rule:nonzero;fill:rgb(18.82353%,85.490197%,0%);fill-opacity:1;" d="M 75.585938 214.160156 L 75.585938 218.78125 C 75.8125 219.234375 78.105469 217.835938 78.105469 219.617188 L 75.585938 221.296875 C 74.457031 223.558594 83.421875 233.40625 85.242188 234.316406 C 89.242188 236.316406 94.609375 235.640625 98.679688 237.675781 L 101.621094 237.257812 L 99.941406 234.734375 L 99.941406 227.179688 C 96.554688 220.402344 81.804688 214.160156 75.585938 214.160156 Z M 75.585938 214.160156 "/>
<path style=" stroke:none;fill-rule:nonzero;fill:rgb(100%,89.019608%,0%);fill-opacity:1;" d="M 238.515625 219.199219 L 240.195312 219.199219 C 240.195312 220.375 238.515625 220.375 238.515625 219.199219 Z M 238.515625 219.199219 "/>
<path style=" stroke:none;fill-rule:nonzero;fill:rgb(98.039216%,50.196081%,44.705883%);fill-opacity:1;" d="M 250.273438 305.703125 C 250.273438 306.921875 244.304688 307.144531 243.554688 308.640625 L 242.714844 314.523438 L 245.234375 317.882812 L 242.714844 320.398438 C 240.488281 324.855469 245.789062 331.671875 250.695312 329.21875 L 254.054688 327.539062 C 255.101562 328.066406 252.601562 331.851562 255.734375 333.417969 L 261.609375 331.738281 L 266.648438 332.578125 C 270.734375 330.535156 274.003906 321.667969 271.269531 316.203125 C 270.15625 313.972656 267.554688 313.292969 265.8125 312.421875 L 262.453125 308.222656 C 258.664062 306.328125 254.59375 305.703125 250.273438 305.703125 Z M 250.273438 305.703125 "/>
<path style=" stroke:none;fill-rule:nonzero;fill:rgb(98.039216%,50.196081%,44.705883%);fill-opacity:1;" d="M 159.570312 306.542969 C 159.570312 307.207031 154.652344 312.421875 154.109375 312.421875 C 147.265625 312.421875 143.710938 323.082031 143.195312 323.339844 L 139.835938 324.179688 C 136.773438 325.710938 136.933594 331.96875 139.835938 333.417969 C 145.21875 336.109375 147 328.183594 149.070312 329.21875 C 153.367188 331.367188 164.464844 336.648438 167.96875 329.640625 L 167.128906 326.28125 C 168.285156 323.96875 168.785156 315.316406 167.128906 312 L 162.089844 309.484375 Z M 159.570312 306.542969 "/>
<path style=" stroke:none;fill-rule:nonzero;fill:rgb(98.039216%,50.196081%,44.705883%);fill-opacity:1;" d="M 274.628906 324.179688 C 274.628906 325.683594 271.882812 326.664062 272.949219 328.796875 C 276.121094 335.144531 283.222656 324.179688 274.628906 324.179688 Z M 274.628906 324.179688 "/>
</g>
</svg>
