<?xml version="1.0" encoding="UTF-8"?>
<svg xmlns="http://www.w3.org/2000/svg" xmlns:xlink="http://www.w3.org/1999/xlink" width="430px" height="430px" viewBox="0 0 430 430" version="1.1">
<g id="surface1">
<rect x="0" y="0" width="430" height="430" style="fill:rgb(0%,0%,0%);fill-opacity:1;stroke:none;"/>
<path style=" stroke:none;fill-rule:evenodd;fill:rgb(52.549022%,100%,35.294119%);fill-opacity:1;" d="M 200.722656 275.46875 C 200.722656 276.375 198.648438 279.296875 199.042969 280.085938 C 203.25 288.503906 219.4375 275.46875 200.722656 275.46875 M 191.484375 248.59375 C 191.484375 253.238281 186.078125 248.566406 184.34375 249.433594 L 180.984375 252.792969 L 177.625 251.953125 C 173.960938 253.785156 174.105469 257.832031 170.070312 257.832031 C 167.753906 257.832031 167.785156 262.820312 167.128906 264.132812 C 165.980469 266.425781 164.890625 268.613281 163.769531 270.851562 C 161.515625 275.355469 166.5 283.023438 164.609375 286.804688 L 162.929688 287.648438 L 164.609375 289.328125 L 164.609375 294.367188 L 168.808594 299.40625 L 168.808594 302.765625 C 170.835938 306.8125 174.539062 308.347656 176.367188 312 L 176.367188 314.523438 L 179.304688 314.101562 C 181.078125 314.988281 180.828125 317.800781 181.828125 318.300781 C 186.566406 320.671875 195.535156 323.625 201.140625 320.820312 C 203.277344 319.753906 202.054688 315.78125 205.34375 315.78125 C 207.90625 315.78125 211.210938 325.445312 218.78125 321.660156 C 221.375 320.363281 224.691406 320.382812 227.179688 319.140625 C 231.082031 317.1875 232.925781 311.710938 235.578125 309.0625 L 238.515625 307.804688 C 243.5625 297.710938 252.332031 285.046875 246.074219 272.53125 L 246.074219 268.328125 C 243.273438 262.730469 238.660156 258.113281 233.054688 255.3125 L 231.375 251.953125 C 230.230469 251.378906 222.023438 252.984375 220.878906 250.695312 L 219.617188 248.59375 L 218.78125 250.273438 L 216.257812 248.59375 C 214.359375 249.542969 200.78125 251.351562 198.625 250.273438 C 196.984375 249.453125 193.828125 248.59375 191.484375 248.59375 Z M 191.484375 248.59375 "/>
<path style=" stroke:none;fill-rule:evenodd;fill:rgb(92.156863%,34.117648%,100%);fill-opacity:1;" d="M 204.082031 278.828125 C 204.082031 283.925781 207.640625 278.828125 204.082031 278.828125 M 200.722656 275.46875 C 200.722656 276.375 198.648438 279.296875 199.042969 280.085938 C 203.25 288.503906 219.4375 275.46875 200.722656 275.46875 Z M 200.722656 275.46875 "/>
<path style=" stroke:none;fill-rule:nonzero;fill:rgb(15.294118%,95.686275%,99.215686%);fill-opacity:1;" d="M 204.082031 278.828125 C 204.082031 283.925781 207.640625 278.828125 204.082031 278.828125 Z M 204.082031 278.828125 "/>
</g>
</svg>
