<?xml version="1.0" encoding="UTF-8"?>
<svg xmlns="http://www.w3.org/2000/svg" xmlns:xlink="http://www.w3.org/1999/xlink" width="430px" height="430px" viewBox="0 0 430 430" version="1.1">
<g id="surface1">
<rect x="0" y="0" width="430" height="430" style="fill:rgb(0%,0%,0%);fill-opacity:1;stroke:none;"/>
<path style=" stroke:none;fill-rule:evenodd;fill:rgb(1.176471%,75.686276%,17.647059%);fill-opacity:1;" d="M 252.792969 152.851562 C 252.792969 155.996094 254.550781 152.851562 252.792969 152.851562 M 245.234375 152.851562 C 245.234375 157.414062 246.816406 158.570312 251.53125 156.210938 L 251.53125 152.851562 L 246.492188 154.53125 L 245.234375 152.851562 M 121.777344 221.71875 C 118.890625 221.71875 115.113281 226.578125 112.117188 225.078125 C 107.390625 222.714844 104.691406 219.042969 102.460938 214.578125 C 100.875 211.40625 96.667969 211.394531 94.902344 207.859375 C 93.152344 204.355469 95.210938 201.761719 94.0625 199.460938 L 89.863281 195.265625 L 89.863281 191.0625 L 84.824219 180.148438 L 84.824219 168.390625 C 83.433594 165.605469 83.476562 149.246094 84.824219 146.554688 C 86.886719 142.425781 88.628906 138.101562 90.703125 133.953125 L 99.101562 125.554688 C 100.445312 122.871094 104.09375 116.550781 107.078125 115.058594 C 121.875 107.660156 137.660156 103.128906 152.429688 95.742188 C 154.871094 94.523438 158.460938 95.246094 160.828125 94.0625 C 164.695312 92.132812 176.835938 89.046875 181.828125 91.542969 C 187.300781 94.28125 193.0625 97.160156 198.625 99.941406 L 203.664062 107.5 L 210.800781 97 C 214.964844 92.839844 222.125 91.550781 227.179688 89.023438 C 235.648438 84.789062 259.253906 94.144531 265.8125 97.421875 C 269.230469 99.132812 274.148438 98.230469 277.570312 99.941406 C 291.59375 106.953125 308.175781 112.027344 315.78125 127.234375 C 316.894531 129.460938 325.019531 139.042969 325.019531 140.671875 C 325.019531 145.023438 327.75 170.488281 325.859375 174.265625 L 323.339844 176.789062 C 323.027344 177.410156 323.511719 192.402344 323.339844 192.742188 C 316.460938 206.503906 314.078125 215.640625 298.5625 223.398438 L 292.265625 222.558594 C 292.265625 221.480469 280.785156 213.25 279.25 212.480469 C 279.25 212.480469 277.570312 209.960938 277.570312 209.960938 C 268.242188 205.296875 256.710938 199.042969 245.65625 199.042969 C 245.214844 199.042969 232.664062 206.601562 231.796875 206.601562 C 226.9375 206.601562 216.609375 215 213.742188 215 C 212.941406 215 211.261719 214.160156 209.960938 214.160156 C 209.960938 212.945312 201.5625 207.492188 201.5625 211.640625 C 196.535156 211.640625 191.082031 210.386719 186.867188 208.28125 C 184.148438 206.925781 181.765625 210.800781 179.726562 210.800781 C 177.066406 210.800781 177.46875 208.203125 175.945312 207.441406 C 170.082031 204.507812 161.738281 200.722656 154.953125 200.722656 C 147.550781 200.722656 126.695312 220.878906 122.617188 220.878906 C 122.617188 220.878906 121.777344 221.71875 121.777344 221.71875 Z M 121.777344 221.71875 "/>
<path style=" stroke:none;fill-rule:nonzero;fill:rgb(100%,43.137255%,0%);fill-opacity:1;" d="M 245.234375 152.851562 C 245.234375 157.414062 246.816406 158.570312 251.53125 156.210938 L 251.53125 152.851562 L 246.492188 154.53125 Z M 245.234375 152.851562 "/>
<path style=" stroke:none;fill-rule:nonzero;fill:rgb(100%,43.137255%,0%);fill-opacity:1;" d="M 252.792969 152.851562 C 252.792969 155.996094 254.550781 152.851562 252.792969 152.851562 Z M 252.792969 152.851562 "/>
<path style=" stroke:none;fill-rule:evenodd;fill:rgb(100%,52.941179%,0%);fill-opacity:1;" d="M 249.433594 219.199219 C 249.433594 222.121094 252.355469 219.199219 249.433594 219.199219 M 243.554688 217.519531 C 243.554688 218.3125 235.398438 223.332031 235.15625 223.820312 C 232.328125 229.476562 238.359375 228.148438 238.9375 228.4375 C 241.484375 229.710938 241.296875 232.636719 243.976562 232.636719 L 244.8125 230.957031 C 253.269531 226.730469 249.582031 217.519531 243.554688 217.519531 M 292.265625 222.558594 C 292.265625 225.203125 293.691406 228.527344 292.265625 231.375 C 290.433594 235.039062 282.523438 238.558594 279.25 240.195312 L 269.171875 247.753906 C 266.417969 249.128906 262.644531 248.917969 259.929688 250.273438 C 254.84375 252.816406 250.855469 256.492188 246.492188 258.671875 C 245.179688 259.328125 243.140625 258.246094 240.617188 259.511719 C 233.515625 263.0625 215 256.609375 215 248.59375 C 216.863281 248.59375 217.519531 240.804688 217.519531 239.773438 C 217.519531 239.773438 220.039062 235.578125 220.039062 235.578125 C 220.039062 233.75 216.828125 228.5625 217.519531 227.179688 C 217.519531 227.179688 220.878906 224.65625 220.878906 224.65625 C 222.34375 221.730469 221.875 217.625 223.398438 214.578125 C 223.398438 214.578125 231.796875 206.601562 231.796875 206.601562 C 232.664062 206.601562 245.214844 199.042969 245.65625 199.042969 C 256.710938 199.042969 268.242188 205.296875 277.570312 209.960938 C 277.570312 209.960938 279.25 212.480469 279.25 212.480469 C 280.785156 213.25 292.265625 221.480469 292.265625 222.558594 Z M 292.265625 222.558594 "/>
<path style=" stroke:none;fill-rule:evenodd;fill:rgb(100%,52.941179%,0%);fill-opacity:1;" d="M 162.929688 218.359375 C 162.929688 221.257812 157.628906 220.777344 159.570312 224.65625 C 162.121094 229.757812 172.886719 230.777344 174.6875 227.179688 C 175.351562 225.851562 174.390625 220.9375 174.265625 220.878906 C 172.1875 219.839844 171.550781 226.785156 169.648438 222.976562 C 167.800781 219.28125 168.023438 218.359375 162.929688 218.359375 M 121.777344 221.71875 C 121.777344 225.679688 115.980469 227.339844 119.257812 233.898438 C 121.265625 237.910156 126.515625 239.414062 129.757812 241.035156 C 132.390625 242.351562 137.429688 247.390625 141.515625 249.433594 L 144.875 249.433594 L 155.789062 254.472656 L 163.351562 255.3125 C 167.332031 257.304688 178.316406 261.265625 183.507812 258.671875 C 188.203125 256.324219 192.867188 255.1875 196.945312 251.113281 C 198.183594 249.871094 197.125 244.394531 199.882812 244.394531 C 199.882812 241.460938 197.398438 241.523438 196.523438 239.773438 C 196.523438 239.773438 196.523438 235.578125 196.523438 235.578125 C 193.421875 229.375 190.804688 224.136719 188.125 218.78125 C 186.429688 215.390625 179.726562 216.511719 179.726562 210.800781 C 177.066406 210.800781 177.46875 208.203125 175.945312 207.441406 C 170.082031 204.507812 161.738281 200.722656 154.953125 200.722656 C 147.550781 200.722656 126.695312 220.878906 122.617188 220.878906 C 122.617188 220.878906 121.777344 221.71875 121.777344 221.71875 Z M 121.777344 221.71875 "/>
<path style=" stroke:none;fill-rule:nonzero;fill:rgb(88.235295%,94.117647%,5.098039%);fill-opacity:1;" d="M 199.882812 244.394531 L 206.179688 240.195312 C 206.34375 240.195312 209.738281 248.59375 215 248.59375 C 216.863281 248.59375 217.519531 240.804688 217.519531 239.773438 C 217.519531 239.773438 220.039062 235.578125 220.039062 235.578125 C 220.039062 233.75 216.828125 228.5625 217.519531 227.179688 C 217.519531 227.179688 220.878906 224.65625 220.878906 224.65625 C 222.34375 221.730469 221.875 217.625 223.398438 214.578125 C 223.398438 214.578125 231.796875 206.601562 231.796875 206.601562 C 226.9375 206.601562 216.609375 215 213.742188 215 C 212.941406 215 211.261719 214.160156 209.960938 214.160156 C 209.960938 214.160156 205.34375 215 205.34375 215 C 204.074219 214.367188 203.789062 211.640625 201.5625 211.640625 C 196.535156 211.640625 191.082031 210.386719 186.867188 208.28125 C 184.148438 206.925781 181.765625 210.800781 179.726562 210.800781 C 179.726562 216.511719 186.429688 215.390625 188.125 218.78125 C 190.804688 224.136719 193.421875 229.375 196.523438 235.578125 C 196.523438 235.578125 196.523438 239.773438 196.523438 239.773438 C 197.398438 241.523438 199.882812 241.460938 199.882812 244.394531 Z M 199.882812 244.394531 "/>
<path style=" stroke:none;fill-rule:nonzero;fill:rgb(100%,30.980393%,80.784315%);fill-opacity:1;" d="M 243.554688 217.519531 C 243.554688 218.3125 235.398438 223.332031 235.15625 223.820312 C 232.328125 229.476562 238.359375 228.148438 238.9375 228.4375 C 241.484375 229.710938 241.296875 232.636719 243.976562 232.636719 L 244.8125 230.957031 C 253.269531 226.730469 249.582031 217.519531 243.554688 217.519531 Z M 243.554688 217.519531 "/>
<path style=" stroke:none;fill-rule:nonzero;fill:rgb(100%,30.980393%,80.784315%);fill-opacity:1;" d="M 162.929688 218.359375 C 162.929688 221.257812 157.628906 220.777344 159.570312 224.65625 C 162.121094 229.757812 172.886719 230.777344 174.6875 227.179688 C 175.351562 225.851562 174.390625 220.9375 174.265625 220.878906 C 172.1875 219.839844 171.550781 226.785156 169.648438 222.976562 C 167.800781 219.28125 168.023438 218.359375 162.929688 218.359375 Z M 162.929688 218.359375 "/>
<path style=" stroke:none;fill-rule:nonzero;fill:rgb(100%,30.980393%,80.784315%);fill-opacity:1;" d="M 249.433594 219.199219 C 249.433594 222.121094 252.355469 219.199219 249.433594 219.199219 Z M 249.433594 219.199219 "/>
<path style=" stroke:none;fill-rule:nonzero;fill:rgb(18.82353%,85.490197%,0%);fill-opacity:1;" d="M 192.324219 260.351562 C 192.324219 262.707031 183.589844 264.300781 185.605469 268.328125 L 188.546875 268.75 C 193.335938 271.144531 198.066406 271.960938 200.722656 266.648438 C 201.625 264.84375 197.90625 260.289062 196.101562 261.191406 C 194.296875 262.09375 194.507812 260.351562 192.324219 260.351562 Z M 192.324219 260.351562 "/>
<path style=" stroke:none;fill-rule:nonzero;fill:rgb(18.82353%,85.490197%,0%);fill-opacity:1;" d="M 220.878906 261.191406 C 220.878906 264.273438 215.25 262.789062 214.160156 264.96875 C 209.496094 274.300781 228.4375 275.25 228.4375 267.492188 L 225.078125 263.289062 C 224.699219 262.535156 222.1875 261.191406 220.878906 261.191406 Z M 220.878906 261.191406 "/>
<path style=" stroke:none;fill-rule:nonzero;fill:rgb(98.039216%,50.196081%,44.705883%);fill-opacity:1;" d="M 159.570312 269.589844 C 159.570312 270.851562 146.664062 274.265625 157.46875 279.667969 C 162.941406 282.402344 163.542969 269.589844 159.570312 269.589844 Z M 159.570312 269.589844 "/>
<path style=" stroke:none;fill-rule:nonzero;fill:rgb(98.039216%,50.196081%,44.705883%);fill-opacity:1;" d="M 256.152344 269.589844 L 253.632812 272.53125 L 254.472656 277.148438 C 254.472656 280.503906 255.328125 282.40625 258.25 283.867188 C 260.191406 284.835938 258.609375 290.585938 262.453125 290.585938 C 264.613281 290.585938 267.238281 285.460938 266.230469 283.445312 C 263.097656 277.183594 268.109375 269.589844 256.152344 269.589844 Z M 256.152344 269.589844 "/>
<path style=" stroke:none;fill-rule:nonzero;fill:rgb(98.039216%,50.196081%,44.705883%);fill-opacity:1;" d="M 238.515625 307.382812 L 235.996094 311.164062 C 235.511719 312.132812 236.265625 331.015625 236.835938 332.15625 C 238.875 336.234375 244.875 332.96875 247.335938 331.738281 C 249.0625 330.875 250.273438 333.417969 251.53125 333.417969 C 253.917969 333.417969 253.320312 326.226562 255.734375 325.019531 C 259.746094 323.011719 262.625 331.808594 266.230469 324.601562 C 268.230469 320.601562 263.835938 313.113281 260.773438 311.582031 C 257.671875 310.03125 254.667969 317.429688 252.792969 313.679688 C 251.425781 310.945312 242.441406 307.382812 238.515625 307.382812 Z M 238.515625 307.382812 "/>
<path style=" stroke:none;fill-rule:nonzero;fill:rgb(98.039216%,50.196081%,44.705883%);fill-opacity:1;" d="M 175.527344 311.582031 C 175.527344 314.640625 167.382812 312.503906 165.867188 313.261719 L 159.992188 316.621094 C 156.386719 316.621094 142.664062 314.300781 147.8125 324.601562 C 148.304688 325.589844 146.929688 327.871094 147.8125 329.640625 C 150.578125 335.167969 154.339844 329.21875 154.953125 329.21875 L 156.632812 330.058594 L 158.3125 326.699219 C 161.332031 326.699219 162.957031 332.214844 163.769531 333.835938 C 164.460938 335.222656 167.003906 333.566406 168.390625 334.257812 L 177.625 336.777344 C 185.972656 332.605469 178.433594 329.703125 179.726562 327.117188 C 182.144531 322.28125 183.703125 311.582031 175.527344 311.582031 Z M 175.527344 311.582031 "/>
</g>
</svg>
