<?xml version="1.0" encoding="UTF-8"?>
<svg xmlns="http://www.w3.org/2000/svg" xmlns:xlink="http://www.w3.org/1999/xlink" width="430px" height="430px" viewBox="0 0 430 430" version="1.1">
<g id="surface1">
<rect x="0" y="0" width="430" height="430" style="fill:rgb(0%,0%,0%);fill-opacity:1;stroke:none;"/>
<path style=" stroke:none;fill-rule:evenodd;fill:rgb(52.549022%,100%,35.294119%);fill-opacity:1;" d="M 199.882812 261.191406 C 199.882812 262.417969 200.722656 263.109375 200.722656 264.132812 L 199.042969 264.96875 C 199.042969 266.496094 201.339844 265.910156 201.984375 266.230469 C 209.140625 269.808594 215.230469 261.191406 204.921875 261.191406 L 199.882812 261.191406 M 180.566406 235.15625 C 180.566406 235.292969 174.023438 237.972656 173.429688 237.675781 L 171.75 235.996094 C 171.632812 235.996094 167.605469 238.90625 166.710938 239.355469 L 164.1875 242.714844 C 157.160156 249.746094 156.097656 258.863281 160.410156 267.492188 L 159.570312 273.367188 C 160.601562 275.433594 160.269531 278.125 161.25 280.085938 L 164.609375 282.609375 C 165.453125 284.292969 165.429688 286.765625 166.289062 288.484375 C 166.503906 288.914062 177.269531 297.304688 178.46875 297.304688 L 180.148438 300.664062 C 181.742188 301.460938 182.15625 299.988281 185.1875 301.503906 L 197.78125 301.503906 C 199.546875 300.621094 204.0625 295.40625 206.179688 296.464844 L 212.0625 302.34375 C 217.894531 305.261719 229.550781 300.316406 233.898438 298.144531 C 236.929688 296.628906 241.035156 290.566406 241.035156 288.484375 L 243.132812 288.066406 C 244.746094 287.261719 243.839844 286.234375 244.394531 285.125 C 244.894531 284.128906 247.707031 284.378906 248.59375 282.609375 C 251.402344 276.988281 256.019531 256.308594 252.792969 249.851562 C 249.609375 243.484375 240.925781 239.089844 234.734375 235.996094 C 228.976562 233.117188 211.550781 237.089844 207.023438 239.355469 C 204.820312 240.457031 202.695312 236.835938 201.140625 236.835938 C 199.871094 236.835938 199.042969 236.207031 196.945312 235.15625 C 196.152344 234.761719 183.375 235.15625 180.566406 235.15625 Z M 180.566406 235.15625 "/>
<path style=" stroke:none;fill-rule:evenodd;fill:rgb(92.156863%,34.117648%,100%);fill-opacity:1;" d="M 204.921875 263.710938 C 204.921875 267.171875 208.382812 263.710938 204.921875 263.710938 M 199.882812 261.191406 C 199.882812 262.417969 200.722656 263.109375 200.722656 264.132812 L 199.042969 264.96875 C 199.042969 266.496094 201.339844 265.910156 201.984375 266.230469 C 209.140625 269.808594 215.230469 261.191406 204.921875 261.191406 Z M 199.882812 261.191406 "/>
<path style=" stroke:none;fill-rule:nonzero;fill:rgb(15.294118%,95.686275%,99.215686%);fill-opacity:1;" d="M 204.921875 263.710938 C 204.921875 267.171875 208.382812 263.710938 204.921875 263.710938 Z M 204.921875 263.710938 "/>
</g>
</svg>
