<?xml version="1.0" encoding="UTF-8"?>
<svg xmlns="http://www.w3.org/2000/svg" xmlns:xlink="http://www.w3.org/1999/xlink" width="430px" height="430px" viewBox="0 0 430 430" version="1.1">
<g id="surface1">
<rect x="0" y="0" width="430" height="430" style="fill:rgb(0%,0%,0%);fill-opacity:1;stroke:none;"/>
<path style=" stroke:none;fill-rule:evenodd;fill:rgb(1.176471%,75.686276%,17.647059%);fill-opacity:1;" d="M 88.183594 200.722656 C 88.183594 205.398438 89.957031 200.722656 88.183594 200.722656 M 118.417969 284.707031 C 116.046875 284.707031 111.472656 286.902344 108.757812 285.546875 C 102.386719 282.363281 96.722656 277.847656 90.28125 274.628906 L 86.921875 274.628906 C 81.9375 272.136719 72.664062 269.207031 69.707031 263.289062 C 67.222656 258.320312 68.789062 251.378906 66.347656 246.492188 C 65.640625 245.082031 63.097656 245.035156 62.148438 243.132812 L 60.46875 233.054688 L 57.109375 225.5 L 54.589844 224.65625 C 53.71875 222.914062 53.824219 220.605469 52.910156 218.78125 C 51.800781 216.558594 53.75 212.945312 53.75 211.21875 L 51.230469 206.179688 L 51.230469 191.0625 C 51.230469 169 53.910156 144.550781 63.828125 124.71875 C 71.261719 109.851562 92.910156 97.789062 107.078125 90.703125 L 117.15625 89.023438 L 121.359375 85.664062 C 124.214844 84.234375 128.183594 83.929688 131.4375 82.304688 L 137.3125 82.304688 C 141.265625 80.328125 145.820312 80.152344 149.914062 78.105469 C 151.894531 77.113281 154.703125 79.785156 157.050781 79.785156 C 159.605469 79.785156 163.621094 78.390625 165.867188 77.265625 C 169.503906 75.445312 171.839844 79.320312 175.945312 77.265625 C 179.308594 75.585938 179.683594 79.554688 181.828125 80.625 C 183.53125 81.476562 185.699219 79.785156 186.867188 79.785156 L 188.546875 81.464844 C 191.070312 82.726562 193.511719 80.167969 196.101562 81.464844 C 198.230469 82.527344 200.027344 88.320312 201.984375 87.34375 L 207.023438 81.464844 C 210.984375 79.484375 214.339844 77.386719 217.9375 75.585938 C 219.246094 74.933594 220.863281 78.324219 222.976562 77.265625 C 232.957031 72.277344 243.53125 78.945312 253.210938 78.945312 L 259.09375 76.425781 C 265.898438 79.828125 274.074219 79.71875 280.929688 83.144531 L 289.328125 83.984375 L 291.84375 86.503906 C 296.394531 88.777344 302.335938 88.390625 306.960938 90.703125 C 310.742188 92.59375 313.253906 96.367188 317.039062 98.261719 C 326.039062 102.761719 331.730469 104.542969 336.777344 114.640625 C 338.65625 118.398438 344.804688 116.417969 346.855469 120.515625 C 349.332031 125.472656 351.949219 130.703125 354.414062 135.632812 L 355.253906 148.234375 C 356.273438 150.269531 357.566406 152.015625 358.613281 154.109375 L 358.613281 160.828125 L 361.972656 171.75 C 361.972656 172.96875 356.902344 174.207031 358.613281 177.625 L 361.972656 179.304688 C 361.972656 179.722656 363.003906 186.484375 362.8125 186.867188 C 360.558594 191.375 363.152344 202.144531 361.972656 204.5 C 360.125 208.199219 360.921875 214.164062 359.453125 217.101562 C 358.128906 219.753906 356.546875 222.074219 355.253906 224.65625 L 355.253906 232.21875 L 351.894531 233.898438 C 351.894531 244.011719 344.425781 247.992188 340.136719 256.570312 C 338.613281 259.613281 336.695312 265.222656 333 267.070312 L 320.398438 277.988281 L 317.039062 277.988281 C 311.320312 280.851562 305.867188 283.574219 300.242188 286.386719 L 296.882812 286.386719 C 294.359375 287.648438 288.066406 291.351562 288.066406 284.707031 C 288.066406 284.707031 297.304688 276.726562 297.304688 276.726562 C 297.304688 276.726562 298.144531 270.851562 298.144531 270.851562 C 300.789062 265.558594 303.09375 260.113281 305.703125 254.890625 C 307.210938 251.875 302.539062 250.242188 301.503906 248.171875 C 301.503906 248.171875 303.183594 242.714844 303.183594 242.714844 C 303.183594 242.714844 304.023438 241.875 304.023438 241.875 C 304.023438 241.875 304.863281 241.035156 304.863281 241.035156 C 308.40625 241.035156 316.621094 224.144531 316.621094 220.878906 C 316.621094 220.878906 317.460938 219.199219 317.460938 219.199219 C 317.460938 219.199219 318.300781 218.359375 318.300781 218.359375 C 318.300781 218.359375 318.300781 217.519531 318.300781 217.519531 C 318.300781 217.519531 319.140625 216.679688 319.140625 216.679688 C 319.140625 216.679688 319.980469 215.839844 319.980469 215.839844 C 319.980469 215.839844 320.820312 215 320.820312 215 C 320.820312 215 323.339844 212.898438 323.339844 212.898438 C 323.339844 210.644531 322.339844 201.464844 324.179688 197.78125 C 324.179688 197.78125 325.859375 196.101562 325.859375 196.101562 C 325.859375 195.191406 324.179688 194.257812 324.179688 192.742188 C 324.179688 192.742188 324.179688 185.1875 324.179688 185.1875 C 322.234375 181.296875 322.703125 176.355469 320.820312 172.585938 C 318.648438 168.242188 316.226562 164.234375 314.101562 159.992188 C 313.214844 158.214844 311.941406 159.871094 311.582031 159.148438 C 311.582031 159.148438 311.582031 154.109375 311.582031 154.109375 C 310.449219 151.851562 301.503906 148.304688 301.503906 145.292969 C 304.390625 145.292969 301.972656 143.613281 300.664062 143.613281 C 300.664062 139.472656 293.582031 139.863281 291.007812 138.574219 C 291.007812 138.574219 287.648438 134.375 287.648438 134.375 C 287.648438 134.375 284.289062 134.375 284.289062 134.375 C 274.6875 129.574219 262.746094 129.902344 253.210938 125.136719 C 253.210938 125.136719 244.8125 125.136719 244.8125 125.136719 C 239.851562 122.652344 235.703125 120.097656 230.117188 120.097656 C 230.117188 120.097656 226.757812 117.578125 226.757812 117.578125 C 226.757812 117.578125 225.917969 117.578125 225.917969 117.578125 C 225.917969 117.578125 224.238281 115.898438 224.238281 115.898438 C 217.828125 115.898438 211.726562 106.914062 206.179688 104.140625 C 206.179688 104.140625 201.984375 103.300781 201.984375 103.300781 C 197.84375 105.371094 178.046875 119.992188 178.046875 123.457031 C 175.53125 123.457031 171.066406 120.019531 167.546875 121.777344 C 167.546875 121.777344 165.867188 124.296875 165.867188 124.296875 C 161.875 126.292969 155.503906 123.179688 151.59375 125.136719 C 151.59375 125.136719 149.914062 127.65625 149.914062 127.65625 C 144.496094 127.65625 141.664062 129.261719 136.476562 131.855469 C 136.476562 131.855469 131.4375 131.855469 131.4375 131.855469 C 127.808594 133.667969 124.054688 135.125 120.515625 136.894531 C 117.269531 138.519531 113.742188 144.453125 110.019531 144.453125 C 110.019531 144.453125 109.179688 146.132812 109.179688 146.132812 C 109.179688 146.609375 96.894531 161.886719 95.742188 164.1875 C 95.742188 164.1875 94.902344 170.070312 94.902344 170.070312 C 93.703125 172.464844 90.539062 175.4375 89.023438 178.46875 C 89.023438 178.46875 89.863281 187.703125 89.863281 187.703125 C 88.804688 189.824219 86.871094 196.835938 88.183594 199.460938 C 88.597656 200.289062 89.863281 196.640625 89.863281 200.304688 C 89.863281 200.304688 89.863281 217.9375 89.863281 217.9375 C 89.863281 219.453125 89.199219 223.398438 91.542969 223.398438 C 91.542969 223.398438 92.382812 225.078125 92.382812 225.078125 C 92.382812 225.078125 93.222656 225.917969 93.222656 225.917969 C 93.222656 229.230469 94.34375 232.636719 98.261719 232.636719 C 98.261719 232.636719 98.261719 233.476562 98.261719 233.476562 C 98.261719 233.476562 100.78125 235.996094 100.78125 235.996094 C 101.304688 235.996094 107.621094 245.234375 115.058594 245.234375 C 115.058594 245.234375 115.898438 247.335938 115.898438 247.335938 C 115.898438 247.335938 112.539062 249.015625 112.539062 249.015625 C 111.480469 251.128906 115.710938 262.914062 116.738281 264.96875 C 119.277344 270.050781 118.417969 278.644531 118.417969 284.707031 Z M 118.417969 284.707031 "/>
<path style=" stroke:none;fill-rule:nonzero;fill:rgb(11.372549%,40.784314%,92.156863%);fill-opacity:1;" d="M 209.960938 141.09375 L 208.28125 139.835938 L 207.023438 138.574219 L 204.5 136.054688 C 201.242188 134.425781 200.074219 141.933594 198.203125 141.933594 C 198.203125 141.933594 188.125 140.253906 188.125 140.253906 C 188.125 140.253906 186.445312 138.574219 186.445312 138.574219 C 186.445312 137.246094 178.046875 130.191406 178.046875 123.457031 C 178.046875 119.992188 197.84375 105.371094 201.984375 103.300781 C 201.984375 103.300781 206.179688 104.140625 206.179688 104.140625 C 211.726562 106.914062 217.828125 115.898438 224.238281 115.898438 C 224.238281 117.367188 224.449219 117.578125 225.917969 117.578125 C 225.917969 117.578125 226.757812 117.578125 226.757812 117.578125 C 226.757812 117.578125 229.277344 120.097656 229.277344 120.097656 C 229.277344 120.097656 226.757812 126.398438 226.757812 126.398438 C 226.757812 126.398438 226.757812 131.4375 226.757812 131.4375 C 223.261719 138.429688 217.675781 141.09375 209.960938 141.09375 Z M 209.960938 141.09375 "/>
<path style=" stroke:none;fill-rule:nonzero;fill:rgb(100%,43.137255%,0%);fill-opacity:1;" d="M 92.382812 218.359375 C 88.90625 218.359375 91.542969 221.851562 91.542969 223.398438 C 89.199219 223.398438 89.863281 219.453125 89.863281 217.9375 C 89.863281 217.9375 89.863281 200.304688 89.863281 200.304688 C 89.863281 196.640625 88.597656 200.289062 88.183594 199.460938 C 86.871094 196.835938 88.804688 189.824219 89.863281 187.703125 C 89.863281 187.703125 89.023438 178.46875 89.023438 178.46875 C 90.539062 175.4375 93.703125 172.464844 94.902344 170.070312 C 94.902344 170.070312 95.742188 164.1875 95.742188 164.1875 C 96.894531 161.886719 109.179688 146.609375 109.179688 146.132812 C 109.179688 146.132812 110.019531 144.453125 110.019531 144.453125 C 113.742188 144.453125 117.269531 138.519531 120.515625 136.894531 C 124.054688 135.125 127.808594 133.667969 131.4375 131.855469 C 131.4375 131.855469 136.476562 131.855469 136.476562 131.855469 C 141.664062 129.261719 144.496094 127.65625 149.914062 127.65625 C 149.914062 127.65625 151.59375 125.136719 151.59375 125.136719 C 155.503906 123.179688 161.875 126.292969 165.867188 124.296875 C 165.867188 124.296875 167.546875 121.777344 167.546875 121.777344 C 171.066406 120.019531 175.53125 123.457031 178.046875 123.457031 C 178.046875 130.191406 186.445312 137.246094 186.445312 138.574219 C 186.445312 138.574219 188.125 140.253906 188.125 140.253906 C 188.125 140.253906 198.203125 141.933594 198.203125 141.933594 C 198.203125 142.957031 201.136719 143.195312 201.984375 142.773438 C 202.914062 142.308594 209.960938 142.191406 209.960938 141.09375 C 217.675781 141.09375 223.261719 138.429688 226.757812 131.4375 C 226.757812 131.4375 226.757812 126.398438 226.757812 126.398438 C 226.757812 126.398438 229.277344 120.097656 229.277344 120.097656 C 229.277344 120.097656 230.117188 120.097656 230.117188 120.097656 C 235.703125 120.097656 239.851562 122.652344 244.8125 125.136719 C 244.8125 125.136719 253.210938 125.136719 253.210938 125.136719 C 262.746094 129.902344 274.6875 129.574219 284.289062 134.375 C 284.289062 134.375 287.648438 134.375 287.648438 134.375 C 287.648438 134.375 291.007812 138.574219 291.007812 138.574219 C 293.582031 139.863281 300.664062 139.472656 300.664062 143.613281 C 300.664062 143.613281 301.503906 145.292969 301.503906 145.292969 C 301.503906 148.304688 310.449219 151.851562 311.582031 154.109375 C 311.582031 154.109375 311.582031 159.148438 311.582031 159.148438 C 311.941406 159.871094 313.214844 158.214844 314.101562 159.992188 C 316.226562 164.234375 318.648438 168.242188 320.820312 172.585938 C 322.703125 176.355469 322.234375 181.296875 324.179688 185.1875 C 324.179688 185.1875 324.179688 192.742188 324.179688 192.742188 C 324.179688 194.257812 325.859375 195.191406 325.859375 196.101562 C 325.859375 196.101562 324.179688 197.78125 324.179688 197.78125 C 322.339844 201.464844 323.339844 210.644531 323.339844 212.898438 C 323.339844 212.898438 320.820312 215 320.820312 215 C 320.820312 208.5 320.820312 201.300781 320.820312 194.84375 C 321.816406 194.84375 321.816406 194.003906 320.820312 194.003906 C 320.820312 194.003906 319.140625 191.90625 319.140625 191.90625 C 319.140625 191.90625 319.980469 190.226562 319.980469 190.226562 C 319.980469 187.5 317.460938 185.398438 317.460938 182.246094 C 319.609375 182.246094 317.460938 178.449219 317.460938 180.566406 C 317.179688 180.566406 315.339844 174.226562 314.941406 173.429688 C 312.523438 168.585938 309.578125 164.378906 307.382812 159.992188 C 305.425781 156.078125 293.035156 148.09375 292.265625 146.554688 C 291.34375 144.710938 286.386719 146.28125 286.386719 143.613281 C 286.386719 143.613281 284.707031 142.773438 284.707031 142.773438 C 284.707031 142.773438 281.347656 141.933594 281.347656 141.933594 C 281.347656 141.933594 279.667969 141.09375 279.667969 141.09375 C 279.667969 139.855469 278.027344 140.253906 277.148438 140.253906 C 277.148438 139.117188 273.25 138.574219 272.109375 138.574219 C 272.109375 138.574219 270.429688 138.574219 270.429688 138.574219 C 270.429688 137.203125 261.191406 137.203125 261.191406 138.574219 C 261.191406 138.574219 256.152344 139.414062 256.152344 139.414062 C 256.152344 139.414062 246.074219 138.574219 246.074219 138.574219 C 240.910156 138.574219 226.757812 144.152344 226.757812 147.8125 C 223.808594 147.8125 220.273438 147.066406 217.101562 148.652344 C 217.101562 148.652344 215.421875 151.171875 215.421875 151.171875 C 212.300781 152.730469 207.789062 151.207031 204.5 152.851562 C 202.511719 153.847656 189.1875 148.652344 184.765625 148.652344 C 184.765625 148.652344 183.925781 147.8125 183.925781 147.8125 C 183.925781 147.8125 183.085938 147.8125 183.085938 147.8125 C 183.085938 147.8125 182.246094 146.972656 182.246094 146.972656 C 182.246094 146.972656 167.546875 139.414062 167.546875 139.414062 C 166.585938 138.933594 161.25 139.132812 161.25 140.671875 C 161.25 142.1875 163.769531 141.554688 163.769531 143.613281 C 155.695312 143.613281 143.902344 135.28125 135.632812 139.414062 C 135.632812 139.414062 117.578125 147.8125 117.578125 147.8125 C 117.578125 147.8125 116.738281 148.652344 116.738281 148.652344 C 116.738281 148.652344 115.058594 149.492188 115.058594 149.492188 C 112.738281 149.492188 105.820312 156.371094 105.820312 158.730469 C 105.820312 158.730469 104.980469 160.410156 104.980469 160.410156 C 102.679688 160.410156 98.261719 169.496094 98.261719 171.328125 C 98.261719 171.328125 97.421875 172.167969 97.421875 172.167969 C 97.421875 172.167969 97.421875 173.007812 97.421875 173.007812 C 97.421875 173.007812 96.582031 173.847656 96.582031 173.847656 C 96.582031 173.847656 95.742188 178.046875 95.742188 178.046875 C 94.417969 178.046875 94.902344 180.445312 94.902344 181.40625 C 94.902344 181.40625 94.0625 185.605469 94.0625 185.605469 C 92.824219 185.605469 93.222656 187.246094 93.222656 188.125 C 93.222656 190.644531 92.382812 194.304688 92.382812 197.363281 C 90.996094 197.363281 90.996094 210.800781 92.382812 210.800781 C 92.382812 210.800781 92.382812 218.359375 92.382812 218.359375 Z M 92.382812 218.359375 "/>
<path style=" stroke:none;fill-rule:nonzero;fill:rgb(50.588238%,30.980393%,100%);fill-opacity:1;" d="M 100.78125 235.996094 C 101.304688 235.996094 107.621094 245.234375 115.058594 245.234375 C 115.058594 244.863281 120.542969 245.222656 123.875 243.554688 C 129.589844 240.699219 149.492188 231.683594 149.492188 225.078125 C 149.492188 223.714844 149.496094 220.039062 151.171875 220.039062 C 151.171875 216.351562 155.496094 207.441406 160.410156 207.441406 C 160.410156 207.441406 161.25 206.601562 161.25 206.601562 C 161.25 206.601562 161.25 204.921875 161.25 204.921875 C 161.25 200.914062 166.289062 185.398438 166.289062 194.84375 C 166.289062 194.84375 168.808594 194.003906 168.808594 194.003906 C 168.808594 192.824219 168.207031 188.125 169.648438 188.125 C 169.648438 179.890625 169.648438 172.953125 169.648438 164.609375 C 169.648438 164.609375 170.488281 163.769531 170.488281 163.769531 C 170.488281 163.769531 170.488281 161.25 170.488281 161.25 C 169.492188 161.25 169.492188 160.410156 170.488281 160.410156 C 170.488281 160.410156 170.488281 157.890625 170.488281 157.890625 C 170.488281 157.890625 169.648438 156.210938 169.648438 156.210938 C 169.648438 155.097656 166.890625 143.613281 163.769531 143.613281 C 155.695312 143.613281 143.902344 135.28125 135.632812 139.414062 C 135.632812 139.414062 117.578125 147.8125 117.578125 147.8125 C 117.578125 147.8125 116.738281 148.652344 116.738281 148.652344 C 116.738281 148.652344 115.058594 149.492188 115.058594 149.492188 C 112.738281 149.492188 105.820312 156.371094 105.820312 158.730469 C 105.820312 158.730469 104.980469 160.410156 104.980469 160.410156 C 102.679688 160.410156 98.261719 169.496094 98.261719 171.328125 C 98.261719 171.328125 97.421875 172.167969 97.421875 172.167969 C 97.421875 172.167969 97.421875 173.007812 97.421875 173.007812 C 97.421875 173.007812 96.582031 173.847656 96.582031 173.847656 C 96.582031 173.847656 95.742188 178.046875 95.742188 178.046875 C 95.742188 179.007812 96.226562 181.40625 94.902344 181.40625 C 94.902344 181.40625 94.0625 185.605469 94.0625 185.605469 C 94.0625 186.484375 94.460938 188.125 93.222656 188.125 C 93.222656 190.644531 92.382812 194.304688 92.382812 197.363281 C 92.382812 197.363281 92.382812 210.800781 92.382812 210.800781 C 92.382812 210.800781 92.382812 218.359375 92.382812 218.359375 C 92.382812 220.304688 93.5 217.65625 94.0625 218.78125 C 94.0625 218.78125 94.0625 223.820312 94.0625 223.820312 C 95.527344 226.75 98.261719 228.164062 98.261719 232.636719 C 98.261719 232.636719 98.261719 233.476562 98.261719 233.476562 C 99.777344 233.476562 100.78125 233.148438 100.78125 235.996094 Z M 100.78125 235.996094 "/>
<path style=" stroke:none;fill-rule:nonzero;fill:rgb(0.784314%,17.254902%,100%);fill-opacity:1;" d="M 240.195312 177.207031 C 240.195312 179.203125 240.175781 189.804688 238.515625 189.804688 C 237.007812 189.804688 237.675781 179.335938 237.675781 177.625 C 237.675781 172.492188 238.886719 162.410156 236.835938 158.3125 C 236.835938 158.3125 232.636719 153.273438 232.636719 153.273438 C 231.847656 151.695312 228.832031 147.8125 226.757812 147.8125 C 226.757812 144.152344 240.910156 138.574219 246.074219 138.574219 C 246.074219 138.574219 246.914062 141.933594 246.914062 141.933594 C 246.914062 141.933594 242.714844 146.554688 242.714844 146.554688 C 241.691406 148.597656 241.273438 151.113281 240.195312 153.273438 C 237.429688 158.804688 240.195312 165.4375 240.195312 171.328125 C 238.046875 171.328125 240.195312 174.128906 240.195312 174.6875 C 240.195312 174.6875 240.195312 177.207031 240.195312 177.207031 Z M 240.195312 177.207031 "/>
<path style=" stroke:none;fill-rule:evenodd;fill:rgb(50.588238%,30.980393%,100%);fill-opacity:1;" d="M 303.183594 241.875 L 304.023438 241.875 C 304.023438 241.875 304.863281 241.035156 304.863281 241.035156 C 308.40625 241.035156 316.621094 224.144531 316.621094 220.878906 C 316.621094 220.878906 317.460938 219.199219 317.460938 219.199219 C 317.460938 219.199219 318.300781 218.359375 318.300781 218.359375 C 318.300781 218.359375 318.300781 217.519531 318.300781 217.519531 C 318.300781 217.519531 319.140625 216.679688 319.140625 216.679688 C 319.140625 216.679688 319.980469 215.839844 319.980469 215.839844 C 319.980469 215.839844 320.820312 215 320.820312 215 C 320.820312 208.5 320.820312 201.300781 320.820312 194.84375 C 320.820312 194.84375 320.820312 194.003906 320.820312 194.003906 C 320.820312 194.003906 319.140625 191.90625 319.140625 191.90625 C 319.140625 191.90625 319.980469 190.226562 319.980469 190.226562 C 319.980469 187.5 317.460938 185.398438 317.460938 182.246094 C 317.460938 182.246094 317.460938 180.566406 317.460938 180.566406 C 317.179688 180.566406 315.339844 174.226562 314.941406 173.429688 C 312.523438 168.585938 309.578125 164.378906 307.382812 159.992188 C 305.425781 156.078125 293.035156 148.09375 292.265625 146.554688 C 291.34375 144.710938 286.386719 146.28125 286.386719 143.613281 C 286.386719 143.613281 284.707031 142.773438 284.707031 142.773438 C 284.707031 142.773438 281.347656 141.933594 281.347656 141.933594 C 281.347656 141.933594 279.667969 141.09375 279.667969 141.09375 C 279.667969 139.855469 278.027344 140.253906 277.148438 140.253906 C 275.785156 140.253906 272.109375 140.25 272.109375 138.574219 C 272.109375 138.574219 270.429688 138.574219 270.429688 138.574219 C 270.429688 138.574219 261.191406 138.574219 261.191406 138.574219 C 261.191406 138.574219 256.152344 139.414062 256.152344 139.414062 C 256.152344 139.414062 256.992188 141.515625 256.992188 141.515625 C 256.992188 141.515625 246.914062 141.933594 246.914062 141.933594 C 246.914062 141.933594 242.714844 146.554688 242.714844 146.554688 C 241.691406 148.597656 241.273438 151.113281 240.195312 153.273438 C 237.429688 158.804688 240.195312 165.4375 240.195312 171.328125 C 240.699219 171.328125 240.699219 174.6875 240.195312 174.6875 C 240.195312 174.6875 240.195312 177.207031 240.195312 177.207031 C 242.289062 177.207031 240.859375 186.511719 241.875 188.546875 C 242.746094 190.289062 248.59375 191.546875 248.59375 193.164062 C 248.59375 193.164062 248.59375 194.003906 248.59375 194.003906 C 249.589844 194.003906 249.589844 194.84375 248.59375 194.84375 C 248.59375 198.714844 248.59375 202.183594 248.59375 205.761719 C 248.59375 205.761719 250.273438 207.441406 250.273438 207.441406 C 250.273438 198.082031 260.25 213.105469 256.152344 221.296875 C 253.660156 226.285156 250.601562 217.519531 250.273438 217.519531 C 250.273438 217.519531 250.273438 219.199219 250.273438 219.199219 C 250.273438 224.914062 263.710938 228.816406 263.710938 230.957031 C 263.710938 230.957031 267.070312 231.796875 267.070312 231.796875 C 267.070312 231.796875 268.75 233.476562 268.75 233.476562 C 268.75 233.476562 269.589844 233.476562 269.589844 233.476562 C 270.722656 233.476562 277.148438 237.359375 277.148438 238.515625 C 277.148438 238.515625 277.988281 238.515625 277.988281 238.515625 C 277.988281 238.515625 291.84375 246.914062 291.84375 246.914062 C 296.359375 249.171875 300.289062 241.875 303.183594 241.875 M 250.273438 189.804688 L 249.433594 190.644531 C 249.433594 193.296875 245.867188 188.964844 245.234375 188.964844 C 245.234375 188.964844 244.394531 188.125 244.394531 188.125 C 244.394531 188.125 244.394531 187.285156 244.394531 187.285156 C 243.398438 187.285156 243.398438 186.445312 244.394531 186.445312 C 244.394531 186.445312 245.234375 185.605469 245.234375 185.605469 C 245.234375 184.359375 247.753906 184.359375 247.753906 185.605469 C 247.753906 185.605469 250.273438 188.125 250.273438 188.125 C 251.449219 188.125 251.449219 189.804688 250.273438 189.804688 Z M 250.273438 189.804688 "/>
<path style=" stroke:none;fill-rule:nonzero;fill:rgb(0.784314%,17.254902%,100%);fill-opacity:1;" d="M 174.6875 202.402344 L 177.207031 202.402344 C 177.207031 199.054688 173.585938 196.421875 172.167969 193.585938 C 172.167969 193.585938 172.167969 186.445312 172.167969 186.445312 C 170.789062 186.445312 171.328125 183.285156 171.328125 182.246094 C 171.328125 171.539062 172.113281 163.460938 176.367188 154.953125 C 176.367188 154.953125 179.726562 153.273438 179.726562 153.273438 C 179.726562 153.273438 182.246094 150.332031 182.246094 150.332031 C 182.246094 150.332031 183.085938 149.492188 183.085938 149.492188 C 183.085938 149.492188 183.925781 148.652344 183.925781 148.652344 C 183.925781 148.652344 183.925781 147.8125 183.925781 147.8125 C 183.925781 147.8125 183.085938 147.8125 183.085938 147.8125 C 183.085938 147.8125 182.246094 146.972656 182.246094 146.972656 C 182.246094 146.972656 167.546875 139.414062 167.546875 139.414062 C 166.585938 138.933594 161.25 139.132812 161.25 140.671875 C 161.25 142.1875 163.769531 141.554688 163.769531 143.613281 C 166.890625 143.613281 169.648438 155.097656 169.648438 156.210938 C 169.648438 156.210938 170.488281 157.890625 170.488281 157.890625 C 170.488281 157.890625 170.488281 160.410156 170.488281 160.410156 C 170.488281 160.410156 170.488281 161.25 170.488281 161.25 C 170.488281 161.25 170.488281 163.769531 170.488281 163.769531 C 170.488281 163.769531 169.648438 164.609375 169.648438 164.609375 C 169.648438 172.953125 169.648438 179.890625 169.648438 188.125 C 169.648438 189.304688 170.25 194.003906 168.808594 194.003906 C 168.808594 194.003906 168.808594 196.523438 168.808594 196.523438 C 171.316406 196.523438 174.6875 198.449219 174.6875 202.402344 Z M 174.6875 202.402344 "/>
<path style=" stroke:none;fill-rule:evenodd;fill:rgb(100%,3.137255%,0%);fill-opacity:1;" d="M 212.480469 199.042969 C 212.480469 203.71875 214.253906 199.042969 212.480469 199.042969 M 207.441406 207.441406 C 208.371094 207.441406 213.371094 211.035156 214.578125 211.640625 C 219.488281 214.09375 223.78125 208.28125 225.917969 208.28125 C 225.917969 208.28125 228.4375 206.179688 228.4375 206.179688 C 229.058594 204.941406 229.25 199.042969 230.957031 199.042969 C 231.683594 199.042969 235 191.484375 238.515625 191.484375 C 238.515625 191.484375 238.515625 189.804688 238.515625 189.804688 C 237.007812 189.804688 237.675781 179.335938 237.675781 177.625 C 237.675781 172.492188 238.886719 162.410156 236.835938 158.3125 C 236.835938 158.3125 232.636719 153.273438 232.636719 153.273438 C 231.847656 151.695312 228.832031 147.8125 226.757812 147.8125 C 223.808594 147.8125 220.273438 147.066406 217.101562 148.652344 C 217.101562 148.652344 215.421875 151.171875 215.421875 151.171875 C 212.300781 152.730469 207.789062 151.207031 204.5 152.851562 C 202.511719 153.847656 189.1875 148.652344 184.765625 148.652344 C 184.765625 148.652344 183.925781 148.652344 183.925781 148.652344 C 183.925781 148.652344 183.085938 149.492188 183.085938 149.492188 C 183.085938 149.492188 182.246094 150.332031 182.246094 150.332031 C 182.246094 150.332031 179.726562 153.273438 179.726562 153.273438 C 179.726562 153.273438 176.367188 154.953125 176.367188 154.953125 C 172.113281 163.460938 171.328125 171.539062 171.328125 182.246094 C 172.707031 182.246094 172.167969 185.40625 172.167969 186.445312 C 172.167969 186.445312 172.167969 193.585938 172.167969 193.585938 C 173.585938 196.421875 177.207031 199.054688 177.207031 202.402344 C 177.207031 202.402344 178.046875 205.761719 178.046875 205.761719 C 178.046875 205.761719 180.566406 207.441406 180.566406 207.441406 C 180.566406 207.441406 191.90625 211.640625 191.90625 211.640625 C 195.574219 213.476562 201.082031 209.121094 202.402344 209.121094 C 202.402344 209.121094 204.082031 204.082031 204.082031 204.082031 C 204.082031 204.082031 204.921875 200.722656 204.921875 200.722656 C 204.921875 200.722656 203.664062 199.042969 203.664062 199.042969 C 202.054688 199.042969 202.890625 205.761719 199.460938 205.761719 C 197.820312 205.761719 198.203125 202.496094 198.203125 201.5625 C 198.203125 199.679688 198.878906 187.285156 197.363281 187.285156 C 197.363281 187.285156 191.90625 191.484375 191.90625 191.484375 C 190.878906 191.484375 189.40625 190.644531 188.546875 190.644531 C 188.546875 190.644531 188.125 188.546875 188.125 188.546875 C 186.304688 184.90625 186.445312 183.75 186.445312 180.148438 C 186.445312 162.601562 188.222656 166.03125 202.820312 158.730469 C 202.820312 158.730469 210.382812 159.570312 210.382812 159.570312 C 210.382812 159.570312 212.0625 162.089844 212.0625 162.089844 C 215.148438 163.632812 219.601562 159.957031 221.71875 164.1875 C 225.050781 170.855469 228.128906 184.292969 220.460938 188.125 C 220.460938 188.125 217.9375 190.644531 217.9375 190.644531 C 216.90625 190.644531 211.980469 184.765625 211.640625 184.765625 C 211.640625 189.945312 211.640625 192.832031 211.640625 197.363281 C 211.640625 197.363281 211.21875 202.402344 211.21875 202.402344 C 210.578125 202.402344 208.683594 204.074219 207.023438 203.242188 C 207.023438 203.242188 205.761719 201.5625 205.761719 201.5625 C 205.761719 201.5625 206.601562 204.921875 206.601562 204.921875 C 206.601562 204.921875 206.601562 205.761719 206.601562 205.761719 C 206.601562 205.761719 207.441406 207.441406 207.441406 207.441406 Z M 207.441406 207.441406 "/>
<path style=" stroke:none;fill-rule:nonzero;fill:rgb(0%,100%,11.372549%);fill-opacity:1;" d="M 211.640625 184.765625 C 211.980469 184.765625 216.90625 190.644531 217.9375 190.644531 L 220.460938 188.125 C 228.128906 184.292969 225.050781 170.855469 221.71875 164.1875 C 219.601562 159.957031 215.148438 163.632812 212.0625 162.089844 L 210.382812 159.570312 L 202.820312 158.730469 C 188.222656 166.03125 186.445312 162.601562 186.445312 180.148438 C 186.445312 183.75 186.304688 184.90625 188.125 188.546875 L 188.546875 190.644531 C 189.40625 190.644531 190.878906 191.484375 191.90625 191.484375 L 197.363281 187.285156 C 197.363281 182.972656 200.257812 167.992188 203.664062 166.289062 C 209.238281 163.5 211.640625 181.464844 211.640625 184.765625 Z M 211.640625 184.765625 "/>
<path style=" stroke:none;fill-rule:nonzero;fill:rgb(8.235294%,75.294119%,100%);fill-opacity:1;" d="M 204.921875 200.722656 L 205.761719 201.5625 C 205.761719 201.5625 207.023438 203.242188 207.023438 203.242188 C 208.683594 204.074219 210.578125 202.402344 211.21875 202.402344 C 211.21875 202.402344 211.640625 197.363281 211.640625 197.363281 C 211.640625 192.832031 211.640625 189.945312 211.640625 184.765625 C 211.640625 181.464844 209.238281 163.5 203.664062 166.289062 C 200.257812 167.992188 197.363281 182.972656 197.363281 187.285156 C 198.878906 187.285156 198.203125 199.679688 198.203125 201.5625 C 198.203125 202.496094 197.820312 205.761719 199.460938 205.761719 C 202.890625 205.761719 202.054688 199.042969 203.664062 199.042969 C 203.664062 199.042969 204.921875 200.722656 204.921875 200.722656 Z M 204.921875 200.722656 "/>
<path style=" stroke:none;fill-rule:nonzero;fill:rgb(100%,20.392157%,15.294118%);fill-opacity:1;" d="M 250.273438 189.804688 L 249.433594 190.644531 C 249.433594 193.296875 245.867188 188.964844 245.234375 188.964844 C 245.234375 188.964844 244.394531 188.125 244.394531 188.125 C 244.394531 188.125 244.394531 187.285156 244.394531 187.285156 C 244.394531 187.285156 244.394531 186.445312 244.394531 186.445312 C 244.394531 186.445312 245.234375 185.605469 245.234375 185.605469 C 245.234375 185.605469 247.753906 185.605469 247.753906 185.605469 C 247.753906 185.605469 250.273438 188.125 250.273438 188.125 C 250.273438 188.125 250.273438 189.804688 250.273438 189.804688 Z M 250.273438 189.804688 "/>
<path style=" stroke:none;fill-rule:nonzero;fill:rgb(100%,20.392157%,15.294118%);fill-opacity:1;" d="M 162.089844 221.71875 L 161.25 224.65625 C 161.25 225.773438 163.8125 226.25 162.929688 228.015625 C 160.53125 232.816406 158.730469 224.324219 158.730469 223.398438 C 158.730469 222.097656 157.890625 220.417969 157.890625 219.617188 C 157.890625 219.261719 160.410156 218.015625 160.410156 216.679688 C 160.410156 216.078125 162.402344 214.160156 160.410156 214.160156 C 158.789062 214.160156 160.410156 213.183594 160.410156 212.480469 C 160.976562 212.480469 162.089844 208.035156 162.089844 207.441406 C 162.089844 207.441406 162.089844 206.601562 162.089844 206.601562 C 162.089844 206.601562 161.25 204.921875 161.25 204.921875 C 161.25 200.914062 166.289062 185.398438 166.289062 194.84375 C 166.289062 194.84375 165.449219 199.042969 165.449219 199.042969 C 165.449219 199.042969 165.449219 199.882812 165.449219 199.882812 C 164.210938 199.882812 164.609375 201.523438 164.609375 202.402344 C 164.609375 208.785156 162.089844 214.953125 162.089844 221.71875 Z M 162.089844 221.71875 "/>
<path style=" stroke:none;fill-rule:nonzero;fill:rgb(0.784314%,17.254902%,100%);fill-opacity:1;" d="M 230.957031 199.042969 C 230.957031 199.921875 230.558594 201.5625 231.796875 201.5625 C 235.714844 201.5625 235.425781 193.164062 239.355469 193.164062 C 239.355469 193.164062 238.515625 191.484375 238.515625 191.484375 C 235 191.484375 231.683594 199.042969 230.957031 199.042969 Z M 230.957031 199.042969 "/>
<path style=" stroke:none;fill-rule:evenodd;fill:rgb(0%,3.137255%,71.372551%);fill-opacity:1;" d="M 238.515625 214.160156 C 238.515625 220.71875 243.585938 214.160156 238.515625 214.160156 M 233.476562 211.640625 C 233.476562 213.414062 239.683594 211.640625 233.476562 211.640625 M 236.835938 218.359375 C 237.875 218.359375 239.355469 218.714844 239.355469 220.039062 C 239.355469 221.261719 243.796875 220.8125 242.714844 222.976562 C 242.714844 222.976562 239.355469 223.820312 239.355469 223.820312 C 239.355469 223.820312 242.714844 224.238281 242.714844 224.238281 C 243.148438 224.238281 246.074219 226.179688 246.074219 223.820312 C 246.074219 221.632812 244.394531 218.136719 244.394531 215.839844 C 243.0625 215.839844 243.0625 210.800781 244.394531 210.800781 C 244.394531 210.800781 244.394531 204.921875 244.394531 204.921875 C 243.21875 204.921875 243.21875 203.242188 244.394531 203.242188 C 244.394531 203.242188 244.394531 200.722656 244.394531 200.722656 C 244.394531 199.054688 241.070312 193.164062 239.355469 193.164062 C 235.425781 193.164062 235.714844 201.5625 231.796875 201.5625 C 231.796875 202.59375 229.066406 208.28125 227.597656 208.28125 C 227.597656 208.28125 225.917969 214.578125 225.917969 214.578125 C 226.867188 216.476562 235.414062 218.359375 236.835938 218.359375 Z M 236.835938 218.359375 "/>
<path style=" stroke:none;fill-rule:nonzero;fill:rgb(100%,20.392157%,15.294118%);fill-opacity:1;" d="M 250.273438 217.519531 L 250.273438 219.199219 C 246.550781 219.199219 251.554688 225.539062 251.953125 226.335938 C 252.605469 227.644531 250.070312 228.964844 249.015625 228.4375 C 246.8125 227.335938 247.488281 214.160156 245.234375 214.160156 C 245.234375 214.160156 244.394531 210.800781 244.394531 210.800781 C 244.394531 210.800781 244.394531 204.921875 244.394531 204.921875 C 244.394531 204.921875 244.394531 203.242188 244.394531 203.242188 C 244.394531 203.242188 244.394531 200.722656 244.394531 200.722656 C 246.324219 200.722656 243.761719 193.164062 248.59375 193.164062 C 248.59375 193.164062 248.59375 194.003906 248.59375 194.003906 C 248.59375 194.003906 248.59375 194.84375 248.59375 194.84375 C 248.59375 198.714844 248.59375 202.183594 248.59375 205.761719 C 248.59375 206.800781 248.949219 208.28125 250.273438 208.28125 C 250.273438 208.28125 250.273438 211.640625 250.273438 211.640625 C 250.273438 211.640625 249.433594 212.480469 249.433594 212.480469 C 249.433594 212.480469 248.59375 213.320312 248.59375 213.320312 C 248.59375 213.320312 249.433594 214.160156 249.433594 214.160156 C 249.433594 214.160156 250.273438 217.519531 250.273438 217.519531 Z M 250.273438 217.519531 "/>
<path style=" stroke:none;fill-rule:nonzero;fill:rgb(0%,3.137255%,71.372551%);fill-opacity:1;" d="M 177.207031 220.039062 C 175.722656 220.039062 169.199219 222.574219 167.546875 223.398438 L 162.089844 221.71875 C 162.089844 214.953125 164.609375 208.785156 164.609375 202.402344 C 165.847656 202.402344 165.449219 200.761719 165.449219 199.882812 C 165.449219 199.882812 165.449219 199.042969 165.449219 199.042969 C 165.449219 199.042969 168.808594 196.523438 168.808594 196.523438 C 171.316406 196.523438 174.6875 198.449219 174.6875 202.402344 C 174.6875 204.230469 175.390625 205.761719 178.046875 205.761719 C 178.046875 205.761719 180.566406 207.441406 180.566406 207.441406 C 180.566406 209.742188 184.765625 208.691406 184.765625 217.519531 C 184.765625 217.519531 183.925781 218.359375 183.925781 218.359375 C 183.925781 218.359375 183.085938 218.359375 183.085938 218.359375 C 183.085938 217.183594 181.40625 217.183594 181.40625 218.359375 C 181.40625 218.359375 180.566406 219.199219 180.566406 219.199219 C 180.566406 219.199219 179.726562 219.199219 179.726562 219.199219 C 179.726562 217.574219 177.207031 218.21875 177.207031 220.039062 Z M 177.207031 220.039062 "/>
<path style=" stroke:none;fill-rule:nonzero;fill:rgb(8.235294%,75.294119%,100%);fill-opacity:1;" d="M 212.480469 199.042969 C 212.480469 203.71875 214.253906 199.042969 212.480469 199.042969 Z M 212.480469 199.042969 "/>
<path style=" stroke:none;fill-rule:nonzero;fill:rgb(100%,43.137255%,0%);fill-opacity:1;" d="M 88.183594 200.722656 C 88.183594 205.398438 89.957031 200.722656 88.183594 200.722656 Z M 88.183594 200.722656 "/>
<path style=" stroke:none;fill-rule:nonzero;fill:rgb(0.784314%,17.254902%,100%);fill-opacity:1;" d="M 203.242188 213.320312 L 205.761719 213.320312 C 205.761719 213.320312 207.441406 211.21875 207.441406 211.21875 C 207.441406 211.21875 206.601562 207.441406 206.601562 207.441406 C 206.601562 207.441406 206.601562 205.761719 206.601562 205.761719 C 206.601562 205.761719 206.601562 204.921875 206.601562 204.921875 C 206.601562 204.921875 204.082031 204.082031 204.082031 204.082031 C 204.082031 204.082031 202.402344 209.121094 202.402344 209.121094 C 202.402344 209.121094 203.242188 213.320312 203.242188 213.320312 Z M 203.242188 213.320312 "/>
<path style=" stroke:none;fill-rule:nonzero;fill:rgb(100%,56.862748%,72.941178%);fill-opacity:1;" d="M 249.433594 214.160156 L 250.273438 217.519531 C 250.601562 217.519531 253.660156 226.285156 256.152344 221.296875 C 260.25 213.105469 250.273438 198.082031 250.273438 207.441406 C 250.273438 207.441406 250.273438 208.28125 250.273438 208.28125 C 250.273438 208.28125 250.273438 211.640625 250.273438 211.640625 C 250.273438 211.640625 249.433594 212.480469 249.433594 212.480469 C 249.433594 212.480469 249.433594 213.320312 249.433594 213.320312 C 249.433594 213.320312 249.433594 214.160156 249.433594 214.160156 Z M 249.433594 214.160156 "/>
<path style=" stroke:none;fill-rule:nonzero;fill:rgb(88.235295%,94.117647%,5.098039%);fill-opacity:1;" d="M 161.25 206.601562 L 162.089844 206.601562 C 162.089844 206.601562 161.25 204.921875 161.25 204.921875 C 161.25 204.921875 161.25 206.601562 161.25 206.601562 Z M 161.25 206.601562 "/>
<path style=" stroke:none;fill-rule:nonzero;fill:rgb(88.235295%,94.117647%,5.098039%);fill-opacity:1;" d="M 159.570312 212.480469 L 160.410156 212.480469 C 160.976562 212.480469 162.089844 208.035156 162.089844 207.441406 C 162.089844 207.441406 161.25 206.601562 161.25 206.601562 C 161.25 206.601562 160.410156 207.441406 160.410156 207.441406 C 160.410156 208.480469 160.949219 211.640625 159.570312 211.640625 C 159.570312 211.640625 159.570312 212.480469 159.570312 212.480469 Z M 159.570312 212.480469 "/>
<path style=" stroke:none;fill-rule:nonzero;fill:rgb(100%,56.862748%,72.941178%);fill-opacity:1;" d="M 162.089844 206.601562 L 162.089844 207.441406 C 162.089844 207.441406 161.25 206.601562 161.25 206.601562 C 161.25 206.601562 162.089844 206.601562 162.089844 206.601562 Z M 162.089844 206.601562 "/>
<path style=" stroke:none;fill-rule:nonzero;fill:rgb(100%,56.862748%,72.941178%);fill-opacity:1;" d="M 152.011719 223.398438 C 152.011719 228.117188 155.625 223.398438 158.730469 223.398438 C 158.730469 222.097656 157.890625 220.417969 157.890625 219.617188 C 157.890625 219.261719 160.410156 218.015625 160.410156 216.679688 C 158.417969 216.679688 160.410156 214.761719 160.410156 214.160156 C 158.789062 214.160156 160.410156 213.183594 160.410156 212.480469 C 160.410156 212.480469 159.570312 212.480469 159.570312 212.480469 C 157.710938 212.480469 157.710938 211.640625 159.570312 211.640625 C 160.949219 211.640625 160.410156 208.480469 160.410156 207.441406 C 155.496094 207.441406 151.171875 216.351562 151.171875 220.039062 C 152.660156 220.039062 152.011719 221.460938 152.011719 223.398438 Z M 152.011719 223.398438 "/>
<path style=" stroke:none;fill-rule:nonzero;fill:rgb(88.235295%,94.117647%,5.098039%);fill-opacity:1;" d="M 184.765625 217.519531 L 185.605469 217.519531 C 185.605469 215.785156 188.421875 217.160156 189.382812 216.679688 C 193.457031 214.644531 198.363281 213.320312 203.242188 213.320312 C 203.242188 213.320312 202.402344 209.121094 202.402344 209.121094 C 201.082031 209.121094 195.574219 213.476562 191.90625 211.640625 C 191.90625 211.640625 180.566406 207.441406 180.566406 207.441406 C 180.566406 209.742188 184.765625 208.691406 184.765625 217.519531 Z M 184.765625 217.519531 "/>
<path style=" stroke:none;fill-rule:evenodd;fill:rgb(88.235295%,94.117647%,5.098039%);fill-opacity:1;" d="M 141.933594 235.15625 C 141.933594 238.296875 125.136719 244.28125 125.136719 247.335938 C 125.136719 248.351562 131.730469 247.1875 132.273438 246.914062 C 134.734375 245.683594 136.285156 242.390625 138.992188 241.035156 C 142.4375 239.3125 151.792969 235.15625 141.933594 235.15625 M 197.363281 273.789062 C 193.96875 273.789062 187.113281 276.433594 183.507812 274.628906 L 175.945312 272.109375 C 171.8125 274.175781 170.566406 281.9375 166.710938 283.867188 C 159.835938 287.304688 152.496094 289.714844 145.710938 293.105469 C 142.035156 294.945312 124.128906 284.707031 118.417969 284.707031 C 118.417969 278.644531 119.277344 270.050781 116.738281 264.96875 C 115.710938 262.914062 111.480469 251.128906 112.539062 249.015625 C 112.539062 249.015625 115.898438 247.335938 115.898438 247.335938 C 115.898438 247.335938 115.058594 245.234375 115.058594 245.234375 C 115.058594 244.863281 120.542969 245.222656 123.875 243.554688 C 129.589844 240.699219 149.492188 231.683594 149.492188 225.078125 C 149.492188 225.078125 152.011719 223.398438 152.011719 223.398438 C 152.011719 228.117188 155.625 223.398438 158.730469 223.398438 C 158.730469 224.324219 160.53125 232.816406 162.929688 228.015625 C 163.8125 226.25 161.25 225.773438 161.25 224.65625 C 161.25 224.65625 162.089844 221.71875 162.089844 221.71875 C 162.089844 221.71875 167.546875 223.398438 167.546875 223.398438 C 169.199219 222.574219 175.722656 220.039062 177.207031 220.039062 C 177.207031 220.039062 179.726562 220.039062 179.726562 220.039062 C 179.726562 223.074219 175.949219 222.132812 174.6875 224.65625 C 173.027344 227.976562 179.984375 230.117188 182.246094 230.117188 C 182.246094 231.992188 191.046875 232.644531 192.742188 231.796875 C 201.980469 227.179688 215.851562 230.957031 224.65625 230.957031 C 224.65625 230.957031 231.796875 228.4375 231.796875 228.4375 C 243.53125 228.4375 229.597656 217.519531 226.757812 217.519531 C 226.757812 215.847656 222.390625 216.386719 221.296875 215.839844 C 216.808594 213.59375 211.1875 213.320312 205.761719 213.320312 C 205.761719 213.320312 207.441406 211.21875 207.441406 211.21875 C 207.441406 211.21875 206.601562 207.441406 206.601562 207.441406 C 206.601562 207.441406 207.441406 207.441406 207.441406 207.441406 C 208.371094 207.441406 213.371094 211.035156 214.578125 211.640625 C 219.488281 214.09375 223.78125 208.28125 225.917969 208.28125 C 225.917969 208.28125 227.597656 208.28125 227.597656 208.28125 C 227.597656 208.28125 225.917969 214.578125 225.917969 214.578125 C 226.867188 216.476562 235.414062 218.359375 236.835938 218.359375 C 236.835938 219.683594 238.316406 220.039062 239.355469 220.039062 C 239.355469 221.261719 243.796875 220.8125 242.714844 222.976562 C 242.714844 222.976562 239.355469 223.820312 239.355469 223.820312 C 239.355469 223.820312 242.714844 224.238281 242.714844 224.238281 C 243.148438 224.238281 246.074219 226.179688 246.074219 223.820312 C 246.074219 221.632812 244.394531 218.136719 244.394531 215.839844 C 244.394531 215.839844 245.234375 214.160156 245.234375 214.160156 C 247.488281 214.160156 246.8125 227.335938 249.015625 228.4375 C 250.070312 228.964844 252.605469 227.644531 251.953125 226.335938 C 251.554688 225.539062 246.550781 219.199219 250.273438 219.199219 C 250.273438 224.914062 263.710938 228.816406 263.710938 230.957031 C 263.710938 232.957031 261.191406 234.289062 261.191406 234.734375 C 261.191406 234.734375 265.390625 237.257812 265.390625 237.257812 C 266.902344 240.273438 266.363281 237.953125 269.171875 239.355469 C 269.171875 239.355469 271.6875 242.714844 271.6875 242.714844 C 271.6875 242.714844 280.085938 245.234375 280.085938 245.234375 C 281.921875 246.152344 287.378906 250.386719 288.90625 247.335938 C 288.90625 247.335938 286.804688 244.394531 286.804688 244.394531 C 284.113281 243.046875 277.988281 243.230469 277.988281 238.515625 C 277.988281 238.515625 291.84375 246.914062 291.84375 246.914062 C 296.359375 249.171875 300.289062 241.875 303.183594 241.875 C 303.183594 241.875 303.183594 242.714844 303.183594 242.714844 C 303.183594 242.714844 301.503906 248.171875 301.503906 248.171875 C 302.539062 250.242188 307.210938 251.875 305.703125 254.890625 C 303.09375 260.113281 300.789062 265.558594 298.144531 270.851562 C 298.144531 270.851562 297.304688 276.726562 297.304688 276.726562 C 297.304688 276.726562 288.066406 284.707031 288.066406 284.707031 C 288.066406 284.707031 283.445312 289.746094 283.445312 289.746094 C 283.445312 289.746094 280.085938 288.90625 280.085938 288.90625 C 280.085938 288.90625 271.6875 293.105469 271.6875 293.105469 C 269.96875 293.964844 267.109375 292.074219 265.8125 291.425781 C 260.925781 288.984375 252.835938 290.394531 248.171875 288.066406 C 244.679688 286.320312 243.566406 284.308594 241.875 280.929688 C 241.875 280.929688 241.453125 275.46875 241.453125 275.46875 C 234.761719 272.121094 219.902344 275.191406 215.421875 272.949219 C 212.566406 271.523438 209.140625 268.75 205.761719 268.75 C 205.761719 258.140625 206.601562 245.355469 206.601562 236.414062 C 206.601562 236.332031 205.425781 231.796875 204.5 231.796875 C 203.675781 231.796875 202.375 238.042969 203.242188 239.773438 C 204.34375 241.980469 204.082031 267.441406 204.082031 269.589844 C 202.429688 269.589844 197.363281 271.96875 197.363281 273.789062 Z M 197.363281 273.789062 "/>
<path style=" stroke:none;fill-rule:nonzero;fill:rgb(50.588238%,30.980393%,100%);fill-opacity:1;" d="M 159.570312 211.640625 C 157.710938 211.640625 157.710938 212.480469 159.570312 212.480469 C 159.570312 212.480469 159.570312 211.640625 159.570312 211.640625 Z M 159.570312 211.640625 "/>
<path style=" stroke:none;fill-rule:nonzero;fill:rgb(88.235295%,94.117647%,5.098039%);fill-opacity:1;" d="M 250.273438 211.640625 L 249.433594 212.480469 C 249.433594 212.480469 250.273438 211.640625 250.273438 211.640625 Z M 250.273438 211.640625 "/>
<path style=" stroke:none;fill-rule:nonzero;fill:rgb(88.235295%,94.117647%,5.098039%);fill-opacity:1;" d="M 248.59375 213.320312 L 249.433594 213.320312 C 249.433594 213.320312 249.433594 212.480469 249.433594 212.480469 C 249.433594 212.480469 248.59375 213.320312 248.59375 213.320312 Z M 248.59375 213.320312 "/>
<path style=" stroke:none;fill-rule:nonzero;fill:rgb(48.627451%,98.823529%,0%);fill-opacity:1;" d="M 231.796875 228.4375 L 224.65625 230.957031 C 215.851562 230.957031 201.980469 227.179688 192.742188 231.796875 C 191.046875 232.644531 182.246094 231.992188 182.246094 230.117188 C 182.246094 228.570312 183.085938 226.519531 183.085938 225.5 C 183.085938 225.5 181.40625 223.820312 181.40625 223.820312 C 182.160156 222.308594 184.765625 220.929688 184.765625 218.359375 C 184.765625 218.359375 185.605469 217.519531 185.605469 217.519531 C 185.605469 215.785156 188.421875 217.160156 189.382812 216.679688 C 193.457031 214.644531 198.363281 213.320312 203.242188 213.320312 C 203.242188 213.320312 205.761719 213.320312 205.761719 213.320312 C 211.1875 213.320312 216.808594 213.59375 221.296875 215.839844 C 222.390625 216.386719 226.757812 215.847656 226.757812 217.519531 C 224.867188 217.519531 228.09375 220.308594 227.597656 221.296875 C 225.898438 224.699219 231.796875 227.839844 231.796875 228.4375 Z M 231.796875 228.4375 "/>
<path style=" stroke:none;fill-rule:nonzero;fill:rgb(50.588238%,30.980393%,100%);fill-opacity:1;" d="M 249.433594 213.320312 L 249.433594 214.160156 C 249.433594 214.160156 248.59375 213.320312 248.59375 213.320312 C 248.59375 213.320312 249.433594 213.320312 249.433594 213.320312 Z M 249.433594 213.320312 "/>
<path style=" stroke:none;fill-rule:nonzero;fill:rgb(88.235295%,94.117647%,5.098039%);fill-opacity:1;" d="M 160.410156 214.160156 C 162.402344 214.160156 160.410156 216.078125 160.410156 216.679688 C 158.417969 216.679688 160.410156 214.761719 160.410156 214.160156 Z M 160.410156 214.160156 "/>
<path style=" stroke:none;fill-rule:nonzero;fill:rgb(88.235295%,94.117647%,5.098039%);fill-opacity:1;" d="M 183.085938 218.359375 L 181.40625 219.199219 C 181.40625 219.199219 181.40625 218.359375 181.40625 218.359375 C 181.40625 217.183594 183.085938 217.183594 183.085938 218.359375 Z M 183.085938 218.359375 "/>
<path style=" stroke:none;fill-rule:nonzero;fill:rgb(88.235295%,94.117647%,5.098039%);fill-opacity:1;" d="M 183.925781 218.359375 L 184.765625 218.359375 C 184.765625 218.359375 184.765625 217.519531 184.765625 217.519531 C 184.765625 217.519531 183.925781 218.359375 183.925781 218.359375 Z M 183.925781 218.359375 "/>
<path style=" stroke:none;fill-rule:nonzero;fill:rgb(100%,73.333335%,0%);fill-opacity:1;" d="M 185.605469 217.519531 L 184.765625 218.359375 C 184.765625 218.359375 184.765625 217.519531 184.765625 217.519531 C 184.765625 217.519531 185.605469 217.519531 185.605469 217.519531 Z M 185.605469 217.519531 "/>
<path style=" stroke:none;fill-rule:nonzero;fill:rgb(100%,73.333335%,0%);fill-opacity:1;" d="M 226.757812 217.519531 C 229.597656 217.519531 243.53125 228.4375 231.796875 228.4375 C 231.796875 227.839844 225.898438 224.699219 227.597656 221.296875 C 228.09375 220.308594 224.867188 217.519531 226.757812 217.519531 Z M 226.757812 217.519531 "/>
<path style=" stroke:none;fill-rule:nonzero;fill:rgb(100%,73.333335%,0%);fill-opacity:1;" d="M 179.726562 220.039062 C 179.726562 223.074219 175.949219 222.132812 174.6875 224.65625 C 173.027344 227.976562 179.984375 230.117188 182.246094 230.117188 C 182.246094 228.570312 183.085938 226.519531 183.085938 225.5 C 183.085938 225.5 181.40625 223.820312 181.40625 223.820312 C 182.160156 222.308594 184.765625 220.929688 184.765625 218.359375 C 184.765625 218.359375 183.925781 218.359375 183.925781 218.359375 C 183.925781 218.359375 183.085938 218.359375 183.085938 218.359375 C 183.085938 218.359375 181.40625 219.199219 181.40625 219.199219 C 181.40625 219.199219 180.566406 219.199219 180.566406 219.199219 C 180.566406 219.199219 179.726562 219.199219 179.726562 219.199219 C 179.726562 219.199219 179.726562 220.039062 179.726562 220.039062 Z M 179.726562 220.039062 "/>
<path style=" stroke:none;fill-rule:nonzero;fill:rgb(100%,43.137255%,0%);fill-opacity:1;" d="M 92.382812 225.078125 L 93.222656 225.917969 C 93.222656 225.917969 92.382812 225.078125 92.382812 225.078125 Z M 92.382812 225.078125 "/>
<path style=" stroke:none;fill-rule:nonzero;fill:rgb(100%,73.333335%,0%);fill-opacity:1;" d="M 277.148438 238.515625 L 277.988281 238.515625 C 277.988281 243.230469 284.113281 243.046875 286.804688 244.394531 C 286.804688 244.394531 288.90625 247.335938 288.90625 247.335938 C 287.378906 250.386719 281.921875 246.152344 280.085938 245.234375 C 280.085938 245.234375 271.6875 242.714844 271.6875 242.714844 C 271.6875 242.714844 269.171875 239.355469 269.171875 239.355469 C 266.363281 237.953125 266.902344 240.273438 265.390625 237.257812 C 265.390625 237.257812 261.191406 234.734375 261.191406 234.734375 C 261.191406 234.289062 263.710938 232.957031 263.710938 230.957031 C 263.710938 230.957031 267.070312 231.796875 267.070312 231.796875 C 267.070312 233.265625 267.28125 233.476562 268.75 233.476562 C 268.75 233.476562 269.589844 233.476562 269.589844 233.476562 C 269.589844 236.332031 274.710938 238.515625 277.148438 238.515625 Z M 277.148438 238.515625 "/>
<path style=" stroke:none;fill-rule:nonzero;fill:rgb(0.784314%,17.254902%,100%);fill-opacity:1;" d="M 205.761719 268.75 C 205.761719 269.503906 204.082031 271.292969 204.082031 269.589844 C 204.082031 267.441406 204.34375 241.980469 203.242188 239.773438 C 202.375 238.042969 203.675781 231.796875 204.5 231.796875 C 205.425781 231.796875 206.601562 236.332031 206.601562 236.414062 C 206.601562 245.355469 205.761719 258.140625 205.761719 268.75 Z M 205.761719 268.75 "/>
<path style=" stroke:none;fill-rule:nonzero;fill:rgb(88.235295%,94.117647%,5.098039%);fill-opacity:1;" d="M 267.070312 231.796875 L 268.75 233.476562 C 267.28125 233.476562 267.070312 233.265625 267.070312 231.796875 Z M 267.070312 231.796875 "/>
<path style=" stroke:none;fill-rule:nonzero;fill:rgb(88.235295%,94.117647%,5.098039%);fill-opacity:1;" d="M 269.589844 233.476562 C 270.722656 233.476562 277.148438 237.359375 277.148438 238.515625 C 274.710938 238.515625 269.589844 236.332031 269.589844 233.476562 Z M 269.589844 233.476562 "/>
<path style=" stroke:none;fill-rule:nonzero;fill:rgb(100%,73.333335%,0%);fill-opacity:1;" d="M 141.933594 235.15625 C 141.933594 238.296875 125.136719 244.28125 125.136719 247.335938 C 125.136719 248.351562 131.730469 247.1875 132.273438 246.914062 C 134.734375 245.683594 136.285156 242.390625 138.992188 241.035156 C 142.4375 239.3125 151.792969 235.15625 141.933594 235.15625 Z M 141.933594 235.15625 "/>
<path style=" stroke:none;fill-rule:nonzero;fill:rgb(14.901961%,49.411765%,100%);fill-opacity:1;" d="M 197.363281 273.789062 C 197.363281 278 185.070312 274.816406 188.125 280.929688 C 189.722656 284.125 212.578125 283.027344 217.519531 283.027344 C 218.90625 283.027344 226.273438 280.800781 225.078125 278.40625 C 223.742188 275.738281 219.269531 276.554688 217.101562 275.46875 L 209.539062 272.949219 C 206.558594 272.949219 201.726562 273.789062 197.363281 273.789062 Z M 197.363281 273.789062 "/>
<path style=" stroke:none;fill-rule:nonzero;fill:rgb(98.039216%,50.196081%,44.705883%);fill-opacity:1;" d="M 99.101562 289.746094 C 99.101562 290.207031 96.921875 293.945312 99.523438 293.945312 C 100.605469 293.945312 112.449219 305.539062 115.476562 304.023438 C 118.058594 302.734375 116.746094 298.359375 114.640625 297.304688 L 107.078125 291.425781 L 103.71875 292.265625 C 101.890625 291.351562 101.351562 289.746094 99.101562 289.746094 Z M 99.101562 289.746094 "/>
<path style=" stroke:none;fill-rule:nonzero;fill:rgb(98.039216%,50.196081%,44.705883%);fill-opacity:1;" d="M 304.023438 289.746094 L 301.503906 292.6875 L 301.085938 295.625 C 299.089844 296.621094 300.386719 293.105469 299.40625 293.105469 L 298.984375 296.882812 C 297.957031 298.941406 296.09375 303.207031 299.40625 304.863281 C 302.546875 306.433594 316.503906 289.746094 304.023438 289.746094 Z M 304.023438 289.746094 "/>
<path style=" stroke:none;fill-rule:nonzero;fill:rgb(98.039216%,50.196081%,44.705883%);fill-opacity:1;" d="M 250.273438 291.425781 L 247.335938 293.105469 L 242.714844 298.5625 C 241.601562 300.792969 244.832031 306.542969 244.8125 306.542969 C 241.417969 306.542969 238.921875 302.789062 235.996094 308.640625 C 235.1875 310.261719 236.222656 313.300781 236.835938 314.523438 L 235.996094 317.882812 C 235.996094 324.789062 238.273438 323.429688 243.132812 325.859375 L 248.171875 330.898438 L 250.695312 327.539062 L 253.210938 328.378906 L 255.734375 325.859375 C 257.847656 324.800781 263.828125 322.683594 265.390625 319.5625 L 265.390625 314.523438 C 265.890625 313.523438 268.703125 313.773438 269.589844 312 C 271.175781 308.832031 271.175781 300.894531 269.589844 297.726562 C 267.746094 294.035156 258.84375 295.5 257.414062 294.785156 C 254.710938 293.433594 253.601562 291.425781 250.273438 291.425781 Z M 250.273438 291.425781 "/>
<path style=" stroke:none;fill-rule:nonzero;fill:rgb(98.039216%,50.196081%,44.705883%);fill-opacity:1;" d="M 152.851562 294.785156 C 152.851562 296.308594 149.253906 296.792969 148.234375 297.304688 C 145.355469 298.742188 146.453125 299.605469 145.292969 301.921875 L 142.351562 302.34375 C 138.6875 304.175781 141.445312 307.382812 144.03125 307.382812 C 145.449219 307.382812 145.53125 313.082031 146.554688 314.101562 C 150.429688 317.980469 147.277344 317.648438 149.492188 322.078125 C 150.738281 324.574219 155.050781 322.277344 156.210938 324.601562 C 157.1875 326.550781 154.824219 329.574219 157.46875 330.898438 C 159.382812 331.855469 166.691406 333.007812 169.226562 331.738281 C 170.609375 331.046875 168.390625 325.859375 170.90625 325.859375 C 172.898438 325.859375 171.59375 330.058594 172.585938 330.058594 L 174.6875 326.28125 C 175.925781 323.804688 176.960938 313.1875 175.527344 310.320312 C 173.882812 307.03125 168.910156 306.328125 168.808594 306.125 C 164.804688 298.117188 161.875 294.785156 152.851562 294.785156 Z M 152.851562 294.785156 "/>
<path style=" stroke:none;fill-rule:nonzero;fill:rgb(98.039216%,50.196081%,44.705883%);fill-opacity:1;" d="M 286.386719 309.0625 C 286.386719 310.699219 283.867188 311.277344 283.867188 313.261719 L 287.648438 316.621094 L 288.484375 320.820312 L 288.90625 316.203125 C 290.40625 313.199219 293.953125 309.0625 286.386719 309.0625 Z M 286.386719 309.0625 "/>
<path style=" stroke:none;fill-rule:nonzero;fill:rgb(98.039216%,50.196081%,44.705883%);fill-opacity:1;" d="M 292.265625 309.0625 C 292.265625 314.347656 297.550781 309.0625 292.265625 309.0625 Z M 292.265625 309.0625 "/>
<path style=" stroke:none;fill-rule:nonzero;fill:rgb(98.039216%,50.196081%,44.705883%);fill-opacity:1;" d="M 127.65625 310.742188 C 127.65625 312.234375 123.515625 311.042969 122.617188 312.84375 C 121.226562 315.625 124.21875 315.953125 125.554688 316.621094 C 127.558594 317.621094 126.703125 319.714844 128.914062 320.820312 C 130.53125 321.628906 134.375 315.816406 134.375 314.523438 C 134.375 311.210938 130.117188 310.742188 127.65625 310.742188 Z M 127.65625 310.742188 "/>
</g>
</svg>
