<?xml version="1.0" encoding="UTF-8"?>
<svg xmlns="http://www.w3.org/2000/svg" xmlns:xlink="http://www.w3.org/1999/xlink" width="430px" height="430px" viewBox="0 0 430 430" version="1.1">
<g id="surface1">
<rect x="0" y="0" width="430" height="430" style="fill:rgb(0%,0%,0%);fill-opacity:1;stroke:none;"/>
<path style=" stroke:none;fill-rule:nonzero;fill:rgb(1.176471%,75.686276%,17.647059%);fill-opacity:1;" d="M 196.523438 204.082031 C 199.660156 204.082031 202.085938 199.042969 204.5 199.042969 L 206.179688 201.5625 C 207.753906 203.132812 211.179688 206.601562 213.320312 206.601562 C 221.414062 206.601562 229.949219 194.296875 237.257812 190.644531 C 237.257812 190.644531 239.773438 187.285156 239.773438 187.285156 C 243.167969 185.589844 255.410156 184.605469 259.09375 186.445312 C 259.09375 186.445312 260.621094 188.890625 262.453125 189.804688 C 266.445312 191.800781 275.46875 197.617188 275.46875 203.242188 C 277.957031 203.242188 284.582031 206.453125 285.96875 205.761719 C 288.421875 204.535156 295.082031 192.148438 296.464844 189.382812 C 301.039062 180.234375 306.210938 171.570312 310.742188 162.507812 C 310.742188 162.507812 310.742188 154.953125 310.742188 154.953125 C 313.335938 149.761719 314.335938 143.660156 311.582031 138.15625 C 311.582031 138.15625 305.703125 132.273438 305.703125 132.273438 C 305.703125 132.273438 306.542969 129.757812 306.542969 129.757812 C 301.949219 120.570312 286.132812 110.101562 277.570312 105.820312 C 272 103.035156 265.519531 101.894531 259.929688 99.101562 C 259.929688 99.101562 255.734375 99.101562 255.734375 99.101562 C 251.847656 97.160156 231.042969 92.132812 225.5 94.902344 C 221.894531 96.703125 215.570312 96.703125 213.320312 101.203125 C 212.757812 102.328125 206.25 114.183594 206.179688 114.21875 C 203.460938 115.578125 197.730469 104.535156 195.265625 103.300781 C 195.265625 103.300781 191.0625 103.300781 191.0625 103.300781 C 191.0625 103.300781 187.703125 99.941406 187.703125 99.941406 C 187.703125 99.941406 169.226562 97.421875 169.226562 97.421875 C 162.355469 100.859375 152.925781 100.113281 144.875 104.140625 C 144.875 104.140625 140.671875 104.140625 140.671875 104.140625 C 136.113281 106.421875 131.652344 108.652344 127.234375 110.859375 C 122.144531 113.40625 118.847656 119.253906 113.796875 121.777344 C 109.867188 123.742188 105.085938 134.585938 103.300781 138.15625 C 101.90625 140.945312 96.640625 153.390625 98.261719 156.632812 C 105.875 171.855469 111.90625 195.15625 128.078125 203.242188 C 130.445312 204.425781 134.019531 202.402344 136.054688 202.402344 C 137.125 202.402344 141.015625 195.089844 141.515625 194.84375 C 144.03125 193.585938 146.550781 189.386719 149.070312 188.125 C 151.300781 187.011719 154.152344 187.683594 156.632812 186.445312 C 158 185.761719 161.128906 182.246094 163.351562 182.246094 C 165.050781 182.246094 179.53125 193.695312 181.828125 194.84375 C 181.828125 194.84375 185.1875 199.042969 185.1875 199.042969 C 186.628906 199.765625 196.523438 203 196.523438 204.082031 Z M 196.523438 204.082031 "/>
<path style=" stroke:none;fill-rule:evenodd;fill:rgb(100%,52.941179%,0%);fill-opacity:1;" d="M 161.25 204.082031 C 161.25 211.734375 164.203125 215.007812 170.90625 218.359375 C 172.488281 219.148438 176.703125 226.507812 178.886719 222.140625 L 178.046875 220.460938 L 178.046875 216.257812 C 175.769531 211.703125 166.601562 204.082031 161.25 204.082031 M 136.054688 202.402344 C 137.125 202.402344 141.015625 195.089844 141.515625 194.84375 C 144.03125 193.585938 146.550781 189.386719 149.070312 188.125 C 151.300781 187.011719 154.152344 187.683594 156.632812 186.445312 C 158 185.761719 161.128906 182.246094 163.351562 182.246094 C 165.050781 182.246094 179.53125 193.695312 181.828125 194.84375 L 185.1875 199.042969 C 186.628906 199.765625 196.523438 203 196.523438 204.082031 C 196.523438 207.160156 199.117188 205.488281 199.882812 207.023438 C 200.859375 208.976562 200.558594 211.730469 201.5625 213.742188 C 201.5625 213.742188 203.242188 213.742188 203.242188 213.742188 C 207.125 221.507812 197.78125 238.101562 194.84375 243.976562 C 192.84375 247.976562 184.722656 253.402344 180.148438 251.113281 C 175.796875 248.9375 177.59375 247.316406 173.429688 245.234375 C 173.429688 245.234375 165.03125 244.394531 165.03125 244.394531 C 162.746094 243.253906 148.167969 233.769531 147.8125 233.054688 C 147.8125 233.054688 142.773438 229.695312 142.773438 229.695312 C 142.773438 229.695312 143.613281 227.179688 143.613281 227.179688 C 142.308594 224.566406 137.824219 226.519531 136.054688 222.976562 C 134.378906 219.628906 131.332031 209.75 133.535156 205.34375 C 134.445312 203.523438 136.054688 204.683594 136.054688 202.402344 Z M 136.054688 202.402344 "/>
<path style=" stroke:none;fill-rule:evenodd;fill:rgb(100%,52.941179%,0%);fill-opacity:1;" d="M 246.074219 205.761719 L 241.453125 209.121094 C 241.023438 209.121094 233.074219 217.066406 231.796875 219.617188 C 231.265625 220.679688 232.238281 223.828125 233.054688 224.238281 C 234.460938 224.941406 261.183594 205.761719 246.074219 205.761719 M 275.46875 203.242188 C 275.46875 205.371094 280.84375 212.226562 277.988281 217.9375 C 276.042969 221.832031 270.542969 222.75 268.75 226.335938 C 266.722656 230.394531 265.363281 230.761719 261.609375 232.636719 C 261.125 232.878906 262.933594 235.753906 260.773438 236.835938 L 254.890625 236.835938 L 252.375 240.195312 C 249.546875 241.609375 246.011719 242.117188 243.132812 243.554688 C 236.464844 246.890625 232.3125 254.101562 224.65625 250.273438 L 221.296875 250.273438 C 215.964844 247.605469 215.453125 239.84375 213.320312 235.578125 L 209.960938 233.054688 C 208.273438 229.683594 204.382812 220.695312 206.601562 216.257812 C 208.027344 213.410156 213.320312 209.867188 213.320312 206.601562 C 221.414062 206.601562 229.949219 194.296875 237.257812 190.644531 C 237.257812 190.644531 239.773438 187.285156 239.773438 187.285156 C 243.167969 185.589844 255.410156 184.605469 259.09375 186.445312 C 259.09375 186.445312 260.621094 188.890625 262.453125 189.804688 C 266.445312 191.800781 275.46875 197.617188 275.46875 203.242188 Z M 275.46875 203.242188 "/>
<path style=" stroke:none;fill-rule:nonzero;fill:rgb(100%,30.980393%,80.784315%);fill-opacity:1;" d="M 161.25 204.082031 C 161.25 211.734375 164.203125 215.007812 170.90625 218.359375 C 172.488281 219.148438 176.703125 226.507812 178.886719 222.140625 L 178.046875 220.460938 L 178.046875 216.257812 C 175.769531 211.703125 166.601562 204.082031 161.25 204.082031 Z M 161.25 204.082031 "/>
<path style=" stroke:none;fill-rule:nonzero;fill:rgb(100%,30.980393%,80.784315%);fill-opacity:1;" d="M 246.074219 205.761719 L 241.453125 209.121094 C 241.023438 209.121094 233.074219 217.066406 231.796875 219.617188 C 231.265625 220.679688 232.238281 223.828125 233.054688 224.238281 C 234.460938 224.941406 261.183594 205.761719 246.074219 205.761719 Z M 246.074219 205.761719 "/>
<path style=" stroke:none;fill-rule:nonzero;fill:rgb(98.039216%,50.196081%,44.705883%);fill-opacity:1;" d="M 155.371094 252.792969 L 154.53125 254.054688 C 152.335938 258.445312 158.699219 252.792969 155.371094 252.792969 Z M 155.371094 252.792969 "/>
<path style=" stroke:none;fill-rule:nonzero;fill:rgb(18.82353%,85.490197%,0%);fill-opacity:1;" d="M 184.765625 254.472656 C 184.765625 254.703125 179.703125 258.203125 181.40625 261.609375 C 183.167969 265.132812 194.84375 268.285156 194.84375 262.453125 C 194.84375 262.011719 192.9375 260.3125 192.324219 259.09375 C 190.550781 255.542969 188.253906 254.472656 184.765625 254.472656 Z M 184.765625 254.472656 "/>
<path style=" stroke:none;fill-rule:nonzero;fill:rgb(18.82353%,85.490197%,0%);fill-opacity:1;" d="M 225.917969 255.3125 C 225.917969 256.015625 221.605469 258.480469 220.878906 259.929688 C 219.175781 263.339844 224.183594 267.910156 227.179688 267.910156 C 230.765625 267.910156 235.671875 260.125 234.316406 257.414062 C 232.984375 254.75 229.019531 255.3125 225.917969 255.3125 Z M 225.917969 255.3125 "/>
<path style=" stroke:none;fill-rule:nonzero;fill:rgb(98.039216%,50.196081%,44.705883%);fill-opacity:1;" d="M 256.992188 256.152344 C 256.992188 257.347656 255.332031 259.128906 256.152344 260.773438 C 258.292969 265.054688 264.261719 256.152344 256.992188 256.152344 Z M 256.992188 256.152344 "/>
<path style=" stroke:none;fill-rule:nonzero;fill:rgb(98.039216%,50.196081%,44.705883%);fill-opacity:1;" d="M 154.53125 258.671875 L 153.691406 263.289062 C 155.484375 266.882812 166.304688 265.609375 157.46875 261.191406 C 156.132812 260.523438 156.894531 258.671875 154.53125 258.671875 Z M 154.53125 258.671875 "/>
<path style=" stroke:none;fill-rule:nonzero;fill:rgb(98.039216%,50.196081%,44.705883%);fill-opacity:1;" d="M 161.25 262.03125 C 161.25 266.707031 163.023438 262.03125 161.25 262.03125 Z M 161.25 262.03125 "/>
<path style=" stroke:none;fill-rule:nonzero;fill:rgb(98.039216%,50.196081%,44.705883%);fill-opacity:1;" d="M 240.195312 309.902344 C 240.195312 310.71875 236.652344 312.367188 235.996094 313.679688 C 234.066406 317.539062 238.515625 323.144531 238.515625 323.757812 C 238.515625 325.730469 234.375 327.234375 235.996094 330.476562 C 237.644531 333.777344 248.816406 338.976562 251.53125 337.617188 C 254.921875 335.921875 252.175781 331 255.734375 329.21875 C 258.378906 327.894531 262.269531 339.238281 265.390625 333 L 266.230469 331.320312 L 265.390625 328.796875 C 265.390625 323.125 266.820312 318.804688 260.773438 315.78125 C 258.734375 314.761719 253.742188 319.78125 253.632812 319.5625 L 253.632812 315.359375 C 252.207031 312.511719 243.464844 309.902344 240.195312 309.902344 Z M 240.195312 309.902344 "/>
<path style=" stroke:none;fill-rule:nonzero;fill:rgb(98.039216%,50.196081%,44.705883%);fill-opacity:1;" d="M 164.609375 313.261719 L 162.089844 315.359375 C 161.496094 316.550781 160.644531 321.660156 158.3125 321.660156 L 156.632812 319.980469 C 151.941406 319.980469 150.542969 322.496094 148.652344 326.28125 L 145.292969 328.796875 C 144.070312 331.242188 146.503906 335.9375 149.070312 335.9375 L 154.953125 330.898438 C 155.792969 330.898438 157.746094 332.441406 159.148438 331.738281 L 160.828125 330.898438 C 162.679688 331.824219 163.164062 334.585938 164.1875 335.097656 C 166.75 336.378906 167.203125 331.566406 170.90625 333.417969 C 173.78125 334.851562 172.117188 342.890625 179.304688 339.296875 C 186.003906 335.949219 176.96875 330.953125 178.046875 328.796875 C 180.433594 324.023438 184.648438 317.613281 177.625 314.101562 C 175.882812 313.230469 171.597656 315.707031 170.070312 314.941406 C 167.992188 313.902344 167.183594 313.261719 164.609375 313.261719 Z M 164.609375 313.261719 "/>
</g>
</svg>
