<?xml version="1.0" encoding="UTF-8"?>
<svg xmlns="http://www.w3.org/2000/svg" xmlns:xlink="http://www.w3.org/1999/xlink" width="430px" height="430px" viewBox="0 0 430 430" version="1.1">
<g id="surface1">
<rect x="0" y="0" width="430" height="430" style="fill:rgb(0%,0%,0%);fill-opacity:1;stroke:none;"/>
<path style=" stroke:none;fill-rule:nonzero;fill:rgb(100%,89.019608%,0%);fill-opacity:1;" d="M 203.242188 124.296875 L 204.921875 125.136719 C 204.921875 139.125 207.539062 144.226562 213.320312 155.789062 C 213.320312 155.789062 213.320312 159.992188 213.320312 159.992188 C 217.519531 168.394531 213.4375 181.21875 219.199219 192.742188 C 220.578125 195.5 228.308594 202.257812 231.375 200.722656 C 231.375 200.722656 232.21875 199.042969 232.21875 199.042969 C 232.21875 199.042969 233.054688 200.722656 233.054688 200.722656 C 237.320312 202.855469 242.828125 196.71875 244.394531 193.585938 C 247.742188 186.886719 240.128906 169.363281 241.875 165.867188 C 248.03125 153.558594 254.445312 138.96875 242.296875 126.816406 C 242.296875 126.816406 239.773438 122.617188 239.773438 122.617188 C 234.515625 119.988281 229.054688 118.519531 223.820312 115.898438 C 219.203125 113.589844 215.707031 118.417969 211.640625 118.417969 C 211.640625 114.304688 223.65625 114.21875 227.179688 114.21875 C 230.378906 114.21875 241.480469 120.109375 244.8125 121.777344 C 244.8125 121.777344 245.65625 124.296875 245.65625 124.296875 C 247.59375 126.234375 250.832031 129.191406 251.953125 131.4375 C 255.199219 137.929688 259.109375 153.234375 256.152344 159.148438 C 254.867188 161.722656 248.148438 161.722656 244.394531 169.226562 C 243.640625 170.734375 245.390625 176.257812 246.074219 177.625 C 247.839844 181.160156 247.160156 196.449219 246.074219 198.625 C 243.402344 203.96875 238.402344 203.816406 233.898438 201.5625 C 233.898438 201.5625 226.335938 201.5625 226.335938 201.5625 C 224.5625 200.675781 222.144531 201.566406 220.460938 200.722656 C 216.960938 198.976562 210.261719 194.183594 208.28125 190.226562 C 207.441406 188.546875 206.601562 168.71875 206.601562 165.449219 C 206.601562 164.265625 206.300781 157.050781 205.34375 157.050781 C 204.199219 157.050781 203.242188 161.347656 203.242188 162.089844 C 203.242188 162.089844 203.242188 180.566406 203.242188 180.566406 C 203.242188 180.566406 201.5625 182.664062 201.5625 182.664062 C 200.359375 185.074219 201.117188 188.59375 199.882812 191.0625 C 199.882812 191.0625 190.226562 199.882812 190.226562 199.882812 C 188.480469 200.753906 184.765625 200.03125 184.765625 201.984375 C 184.765625 201.984375 186.445312 202.820312 186.445312 202.820312 C 186.445312 202.820312 183.507812 203.242188 183.507812 203.242188 C 181.449219 204.269531 172.5 205.71875 170.90625 204.921875 C 170.453125 204.695312 162.191406 199.667969 162.089844 199.460938 C 160.117188 195.515625 169.859375 177.210938 165.449219 168.390625 C 165.449219 168.390625 155.371094 159.148438 155.371094 159.148438 C 155.371094 159.148438 155.371094 156.632812 155.371094 156.632812 C 155.371094 156.632812 153.691406 156.632812 153.691406 156.632812 C 152.671875 154.589844 153.707031 149.039062 154.53125 147.390625 C 154.53125 147.390625 153.691406 141.515625 153.691406 141.515625 C 153.691406 141.515625 155.371094 141.515625 155.371094 141.515625 C 156.253906 139.75 156.613281 131.472656 157.050781 130.59375 C 157.050781 130.59375 160.410156 124.71875 160.410156 124.71875 C 160.410156 124.71875 164.1875 122.617188 164.1875 122.617188 C 177.097656 116.164062 170.324219 116.738281 186.023438 116.738281 C 190.207031 116.738281 197.363281 116.242188 197.363281 119.257812 C 195.1875 119.257812 194.496094 118.453125 192.742188 117.578125 C 186.917969 114.664062 169.613281 122.84375 166.710938 124.296875 C 164.972656 125.164062 165.324219 128.328125 164.609375 129.757812 C 163.695312 131.585938 158.015625 138.398438 159.570312 141.515625 C 163.402344 149.175781 168.808594 165.765625 168.808594 173.429688 C 168.808594 179.273438 164.398438 194.847656 167.128906 200.304688 C 169.363281 204.769531 188.566406 196.898438 189.804688 194.421875 C 192.511719 189.007812 192.167969 182.136719 194.84375 176.789062 C 196 174.476562 193.492188 161.011719 195.683594 156.632812 C 200.761719 146.476562 203.242188 136.703125 203.242188 124.296875 Z M 203.242188 124.296875 "/>
<path style=" stroke:none;fill-rule:nonzero;fill:rgb(100%,52.941179%,0%);fill-opacity:1;" d="M 211.640625 118.417969 C 215.707031 118.417969 219.203125 113.589844 223.820312 115.898438 C 229.054688 118.519531 234.515625 119.988281 239.773438 122.617188 L 242.296875 126.816406 C 254.445312 138.96875 248.03125 153.558594 241.875 165.867188 C 240.128906 169.363281 247.742188 186.886719 244.394531 193.585938 C 242.828125 196.71875 237.320312 202.855469 233.054688 200.722656 L 232.21875 199.042969 L 231.375 200.722656 C 228.308594 202.257812 220.578125 195.5 219.199219 192.742188 C 213.4375 181.21875 217.519531 168.394531 213.320312 159.992188 L 213.320312 155.789062 C 207.539062 144.226562 204.921875 139.125 204.921875 125.136719 C 204.921875 125.136719 207.441406 120.515625 207.441406 120.515625 C 207.441406 120.515625 211.640625 118.417969 211.640625 118.417969 Z M 211.640625 118.417969 "/>
<path style=" stroke:none;fill-rule:nonzero;fill:rgb(100%,52.941179%,0%);fill-opacity:1;" d="M 197.363281 119.257812 C 200.105469 119.257812 203.242188 121.828125 203.242188 124.296875 C 203.242188 136.703125 200.761719 146.476562 195.683594 156.632812 C 193.492188 161.011719 196 174.476562 194.84375 176.789062 C 192.167969 182.136719 192.511719 189.007812 189.804688 194.421875 C 188.566406 196.898438 169.363281 204.769531 167.128906 200.304688 C 164.398438 194.847656 168.808594 179.273438 168.808594 173.429688 C 168.808594 165.765625 163.402344 149.175781 159.570312 141.515625 C 158.015625 138.398438 163.695312 131.585938 164.609375 129.757812 C 165.324219 128.328125 164.972656 125.164062 166.710938 124.296875 C 169.613281 122.84375 186.917969 114.664062 192.742188 117.578125 C 194.496094 118.453125 195.1875 119.257812 197.363281 119.257812 Z M 197.363281 119.257812 "/>
<path style=" stroke:none;fill-rule:nonzero;fill:rgb(98.039216%,50.196081%,44.705883%);fill-opacity:1;" d="M 264.550781 300.664062 C 264.550781 301.480469 261.007812 303.128906 260.351562 304.445312 C 258.871094 307.402344 263.265625 311.210938 262.871094 312 C 262.566406 312.613281 256.515625 311.273438 255.3125 313.679688 C 253.054688 318.199219 253.96875 328.335938 259.09375 330.898438 L 263.710938 329.21875 C 266.539062 329.21875 269.820312 328.339844 271.269531 325.4375 L 270.429688 319.5625 C 270.984375 318.449219 272.023438 316.027344 271.269531 314.523438 L 268.75 311.164062 C 270.800781 307.0625 274.363281 300.664062 264.550781 300.664062 Z M 264.550781 300.664062 "/>
<path style=" stroke:none;fill-rule:nonzero;fill:rgb(98.039216%,50.196081%,44.705883%);fill-opacity:1;" d="M 146.132812 301.503906 L 143.613281 304.445312 L 143.613281 308.640625 C 143.042969 309.777344 136.894531 309.746094 136.894531 312.84375 C 136.894531 314.1875 138.671875 316.847656 137.734375 318.71875 L 132.273438 319.980469 C 129.796875 321.21875 128.65625 324.277344 127.65625 326.28125 C 126.816406 327.960938 131.035156 335.296875 133.117188 334.257812 C 135.0625 333.285156 137.914062 334.796875 138.992188 334.257812 C 147.417969 330.046875 143.625 332.578125 151.59375 332.578125 L 153.273438 329.21875 L 154.953125 332.578125 L 157.46875 330.058594 C 158.976562 329.304688 161.335938 331.148438 162.929688 327.960938 C 165.496094 322.828125 156.210938 323.609375 156.210938 322.078125 C 156.210938 320.539062 159.152344 318.726562 157.890625 316.203125 L 152.851562 311.164062 L 154.53125 309.484375 L 153.691406 306.960938 C 153.691406 302.96875 151.785156 301.503906 146.132812 301.503906 Z M 146.132812 301.503906 "/>
<path style=" stroke:none;fill-rule:nonzero;fill:rgb(98.039216%,50.196081%,44.705883%);fill-opacity:1;" d="M 283.027344 318.300781 C 283.027344 321.445312 284.785156 318.300781 283.027344 318.300781 Z M 283.027344 318.300781 "/>
<path style=" stroke:none;fill-rule:nonzero;fill:rgb(98.039216%,50.196081%,44.705883%);fill-opacity:1;" d="M 274.628906 321.660156 C 274.628906 323.164062 271.882812 324.144531 272.949219 326.28125 C 275.027344 330.4375 276.40625 326.699219 278.40625 326.699219 C 279.523438 326.699219 280 329.261719 281.765625 328.378906 C 286.351562 326.085938 283.65625 319.875 280.085938 321.660156 C 277.148438 323.128906 278.042969 321.660156 274.628906 321.660156 Z M 274.628906 321.660156 "/>
</g>
</svg>
