<?xml version="1.0" encoding="UTF-8"?>
<svg xmlns="http://www.w3.org/2000/svg" xmlns:xlink="http://www.w3.org/1999/xlink" width="430px" height="430px" viewBox="0 0 430 430" version="1.1">
<g id="surface1">
<rect x="0" y="0" width="430" height="430" style="fill:rgb(0%,0%,0%);fill-opacity:1;stroke:none;"/>
<path style=" stroke:none;fill-rule:evenodd;fill:rgb(100%,100%,0%);fill-opacity:1;" d="M 139.414062 98.261719 C 139.414062 101.40625 141.171875 98.261719 139.414062 98.261719 M 208.28125 78.945312 C 208.28125 80.84375 203.164062 79.195312 201.984375 79.785156 L 201.140625 81.464844 C 198.574219 81.464844 183.632812 80.140625 180.984375 81.464844 C 177.683594 83.117188 167.890625 97.15625 166.289062 100.359375 C 165.4375 102.058594 159.8125 102.523438 161.25 105.398438 L 165.03125 104.140625 C 166.746094 104.140625 170.414062 95.988281 170.90625 95.742188 L 172.585938 96.582031 L 173.847656 92.804688 C 174.191406 92.113281 174.941406 93.386719 175.945312 92.382812 L 178.46875 89.863281 C 184.855469 89.863281 194.855469 84.824219 202.402344 84.824219 C 208.960938 84.824219 228.59375 89.730469 233.898438 92.382812 L 243.132812 101.621094 C 243.988281 102.476562 244.949219 106.808594 245.234375 106.242188 L 244.394531 95.320312 L 240.195312 92.804688 C 238.285156 88.984375 234.359375 88.414062 230.539062 86.503906 L 230.539062 84.824219 L 228.859375 85.664062 L 228.015625 83.984375 C 225.949219 82.949219 224.207031 83.339844 222.140625 82.304688 C 221.417969 81.945312 223.074219 80.671875 221.296875 79.785156 C 217.996094 78.132812 211.171875 78.945312 208.28125 78.945312 M 183.085938 78.945312 C 183.085938 80.703125 186.230469 78.945312 183.085938 78.945312 M 232.636719 78.105469 C 232.636719 81.027344 235.558594 78.105469 232.636719 78.105469 M 186.445312 71.386719 C 186.445312 76.957031 195.570312 71.386719 188.546875 71.386719 L 186.445312 71.386719 M 327.539062 178.046875 C 331.574219 178.046875 338.722656 177.933594 340.976562 173.429688 C 342.152344 171.078125 340.363281 147.007812 339.296875 144.875 C 337.277344 140.835938 338.054688 137.351562 335.9375 133.117188 L 335.515625 129.335938 L 334.679688 131.855469 C 333.75 131.855469 331.335938 124.75 330.898438 123.875 L 327.539062 121.359375 L 327.539062 117.15625 C 326.21875 114.515625 318.164062 109.179688 317.882812 109.179688 L 317.039062 106.660156 C 312.402344 104.339844 307.101562 102.460938 301.921875 102.460938 L 300.242188 99.101562 L 298.5625 99.941406 L 298.144531 97.84375 L 294.367188 94.902344 L 284.289062 94.0625 L 276.726562 91.542969 L 272.53125 93.222656 C 270.28125 92.097656 262.210938 83.984375 261.609375 83.984375 C 260.375 83.984375 258.679688 83.144531 256.570312 83.144531 L 254.890625 84.824219 C 252.292969 84.824219 246.101562 78.945312 242.296875 78.945312 C 239.855469 78.945312 242.730469 76.644531 242.296875 76.425781 L 232.21875 72.226562 C 231.050781 72.226562 228.882812 73.917969 227.179688 73.066406 L 225.5 70.546875 L 219.617188 70.546875 L 218.78125 68.027344 C 217.378906 67.328125 191.570312 63.996094 188.546875 65.507812 C 181.429688 69.066406 173.675781 66.222656 166.710938 69.707031 C 163.105469 71.507812 163.820312 78.421875 162.089844 81.882812 C 159.371094 87.320312 155.992188 89.761719 150.75 92.382812 L 149.914062 94.0625 C 149.300781 94.0625 146.445312 93.695312 145.710938 94.0625 L 143.195312 98.261719 C 139.464844 98.261719 141.96875 95.128906 139.835938 94.0625 C 139.078125 93.683594 126.621094 92.269531 126.398438 92.382812 C 123.980469 93.59375 121.171875 93.734375 118.835938 94.902344 C 116.152344 96.246094 112.832031 100.003906 109.601562 101.621094 C 108.203125 102.320312 104.210938 107.5 102.039062 107.5 C 98.015625 107.5 95.75 110.019531 92.804688 110.019531 L 90.28125 113.378906 L 86.085938 112.539062 L 83.5625 115.058594 C 79.855469 116.914062 81.269531 121.75 79.785156 124.71875 L 76.425781 128.078125 L 75.585938 137.3125 C 74.78125 138.925781 74.816406 135.214844 74.328125 135.214844 L 73.90625 138.15625 L 70.546875 141.515625 L 69.707031 147.390625 C 67.894531 151.019531 69.804688 156.433594 68.027344 159.992188 C 63.421875 169.199219 66.011719 178.886719 76.425781 178.886719 C 76.425781 177.011719 68.027344 175.347656 68.027344 170.90625 C 68.027344 168.691406 69.707031 165.148438 69.707031 162.507812 C 69.707031 158.335938 70.464844 153.4375 72.226562 149.914062 C 72.226562 149.914062 72.648438 146.972656 72.648438 146.972656 C 74.234375 146.972656 78.914062 154.886719 79.785156 156.632812 C 82.390625 161.84375 79.195312 173.089844 81.464844 177.625 C 83.265625 181.226562 87.167969 182.125 90.28125 180.566406 C 98.445312 176.488281 95.4375 156.863281 92.382812 150.75 C 92.382812 150.75 91.542969 134.796875 91.542969 134.796875 C 89.09375 129.894531 81.101562 134.910156 79.785156 132.273438 C 77.601562 127.90625 96.523438 111.460938 98.679688 112.539062 C 98.679688 112.539062 99.101562 122.195312 99.101562 122.195312 C 100.710938 125.414062 102.355469 128.707031 104.140625 132.273438 C 104.140625 132.273438 103.300781 134.796875 103.300781 134.796875 C 107.488281 143.167969 97.003906 156.210938 110.4375 162.929688 C 112.574219 163.996094 111.097656 171.417969 116.320312 168.808594 C 120.863281 166.535156 130.640625 155.882812 127.65625 149.914062 C 127.65625 149.914062 116.738281 140.671875 116.738281 140.671875 C 114.9375 137.074219 116.882812 124.425781 118.417969 121.359375 C 121.460938 115.273438 114.105469 111.050781 112.539062 107.921875 C 109.882812 102.601562 128.84375 96.582031 130.59375 96.582031 C 131.730469 96.582031 134.113281 100.042969 133.535156 101.203125 C 133.296875 101.679688 129.644531 103.941406 128.496094 106.242188 C 125.929688 111.371094 129.578125 125.203125 131.855469 129.757812 C 132.949219 131.941406 131.253906 137.222656 133.953125 138.574219 C 139.558594 141.375 143.613281 129.308594 143.613281 125.554688 C 143.613281 115.886719 141.617188 108.550781 146.132812 99.523438 C 147.214844 97.359375 159.992188 91.121094 162.089844 86.921875 C 164.464844 82.171875 167.382812 68.785156 175.945312 73.066406 C 175.945312 73.066406 180.148438 73.066406 180.148438 73.066406 C 180.148438 73.066406 173.007812 80.203125 173.007812 80.203125 C 170.140625 83.074219 168.828125 86.882812 167.128906 90.28125 C 167.128906 90.28125 163.769531 92.804688 163.769531 92.804688 C 163.769531 92.804688 159.992188 99.101562 159.992188 99.101562 C 158.292969 99.949219 151.171875 103.988281 151.171875 106.242188 C 151.171875 109.496094 156.914062 114.074219 155.371094 117.15625 C 154.632812 118.632812 155.597656 121.742188 154.53125 123.875 C 151.574219 129.792969 148.277344 135.546875 145.292969 141.515625 C 144.566406 142.96875 145.226562 145.007812 144.453125 146.554688 C 143.679688 148.097656 143.625 154.328125 145.710938 155.371094 C 150.050781 157.539062 152.015625 151.800781 154.953125 150.332031 C 161.046875 147.285156 159.410156 143.511719 162.089844 138.15625 C 163.914062 134.507812 166.976562 131.738281 168.808594 128.078125 C 171.648438 122.394531 166.925781 117.566406 169.648438 112.117188 C 171.246094 108.921875 175.527344 103.996094 175.527344 102.039062 C 175.527344 102.039062 178.046875 101.203125 178.046875 101.203125 C 178.046875 101.203125 178.46875 98.261719 178.46875 98.261719 C 178.46875 98.261719 180.566406 97.84375 180.566406 97.84375 C 180.566406 97.296875 178.71875 96.457031 180.148438 95.742188 C 184.8125 93.410156 191.792969 96.636719 195.265625 94.902344 C 200.382812 92.34375 202.863281 91.542969 208.28125 91.542969 C 208.28125 91.542969 209.121094 90.703125 209.121094 90.703125 C 209.121094 90.703125 216.257812 93.222656 216.257812 93.222656 C 225.4375 93.222656 234.207031 97.621094 239.355469 107.921875 C 242.597656 114.402344 238.167969 120.660156 241.035156 126.398438 C 245.25 134.828125 245.082031 145.007812 254.054688 149.492188 C 254.054688 149.492188 259.929688 154.53125 259.929688 154.53125 C 264.863281 154.53125 264.515625 144.800781 262.871094 141.515625 C 260.394531 136.558594 256.136719 132.246094 253.632812 127.234375 C 250.214844 120.402344 257.101562 106.457031 251.953125 96.164062 C 250.917969 94.089844 244.144531 88.269531 242.296875 87.34375 C 242.296875 87.34375 240.617188 83.984375 240.617188 83.984375 C 239.664062 83.507812 233.757812 80.695312 233.898438 80.625 C 239.484375 77.832031 238.683594 81.757812 241.453125 83.144531 C 241.453125 83.144531 243.132812 81.464844 243.132812 81.464844 C 243.132812 81.464844 243.976562 83.144531 243.976562 83.144531 C 243.976562 83.144531 249.015625 83.984375 249.015625 83.984375 C 250.441406 84.699219 248.59375 85.539062 248.59375 86.085938 C 248.59375 86.085938 250.695312 86.503906 250.695312 86.503906 C 251.945312 87.128906 252.652344 89.023438 254.054688 89.023438 C 254.726562 89.023438 254.652344 86.382812 256.570312 87.34375 C 256.582031 87.347656 256.417969 90.703125 258.25 90.703125 C 259.5625 90.703125 257.585938 86.675781 259.929688 89.023438 C 259.929688 89.023438 260.773438 90.703125 260.773438 90.703125 C 260.773438 90.703125 261.609375 89.023438 261.609375 89.023438 C 261.609375 89.023438 262.453125 91.542969 262.453125 91.542969 C 264.53125 92.582031 267.390625 92.601562 268.75 95.320312 C 269.433594 96.683594 266.027344 101.609375 265.390625 102.882812 C 265.390625 102.882812 265.390625 113.796875 265.390625 113.796875 C 265.390625 113.796875 262.871094 121.359375 262.871094 121.359375 C 262.871094 124.058594 264.679688 126.527344 266.230469 128.078125 C 267.265625 129.109375 268.546875 133.535156 270.851562 133.535156 C 270.851562 133.535156 272.53125 131.855469 272.53125 131.855469 C 272.53125 131.855469 275.046875 131.855469 275.046875 131.855469 C 275.164062 131.796875 275.675781 125.980469 276.308594 124.71875 C 279.941406 117.449219 275.582031 99.253906 280.929688 96.582031 C 280.929688 96.582031 282.609375 97.421875 282.609375 97.421875 C 282.609375 97.421875 285.125 95.742188 285.125 95.742188 C 287.027344 96.691406 288.148438 98.933594 290.164062 99.941406 C 292.234375 100.976562 296.242188 98.238281 298.144531 102.039062 C 300.539062 106.828125 291.015625 109.582031 290.585938 110.4375 C 290.386719 110.839844 287.890625 117.578125 289.328125 117.578125 C 289.328125 117.578125 290.164062 115.898438 290.164062 115.898438 C 290.164062 115.898438 290.585938 118.835938 290.585938 118.835938 C 291.773438 121.210938 292.808594 131.191406 291.425781 133.953125 C 291.425781 133.953125 290.164062 132.695312 290.164062 132.695312 C 290.164062 132.695312 287.648438 136.894531 287.648438 136.894531 C 281.863281 139.785156 279.253906 139.820312 276.308594 145.710938 C 274.863281 148.601562 284.3125 160.421875 287.648438 162.089844 C 291.480469 164.003906 294.046875 157.628906 296.882812 156.210938 C 298.589844 155.359375 302.167969 154.464844 303.183594 152.429688 C 304.652344 149.496094 305.695312 132.257812 304.023438 128.914062 C 303.359375 127.585938 302.320312 123.925781 303.183594 122.195312 C 304.15625 120.25 305.851562 118.542969 306.542969 117.15625 C 306.9375 116.367188 307.628906 106.660156 307.804688 106.660156 C 310.726562 106.660156 327.0625 117.273438 324.179688 123.039062 C 324.082031 123.234375 315.226562 120.789062 314.101562 123.039062 C 312.992188 125.253906 316.230469 133.894531 314.941406 136.476562 C 314.941406 136.476562 312.421875 139.835938 312.421875 139.835938 C 312.421875 146.761719 309.308594 170.402344 317.882812 174.6875 C 317.882812 174.6875 321.242188 176.367188 321.242188 176.367188 C 321.242188 176.367188 321.660156 171.75 321.660156 171.75 C 321.996094 171.078125 325.859375 155.453125 325.859375 154.109375 C 325.859375 151.917969 325.957031 144.613281 327.960938 143.613281 C 329.386719 142.898438 333.664062 140.167969 335.515625 141.09375 C 338.003906 142.335938 338.882812 148.222656 337.617188 150.75 C 337.617188 150.75 338.457031 155.789062 338.457031 155.789062 C 336.304688 160.09375 338.457031 165.839844 338.457031 170.070312 C 338.457031 175.167969 330.28125 175.207031 327.960938 176.367188 C 326.816406 176.9375 324.179688 174.324219 324.179688 176.367188 C 324.179688 176.367188 325.859375 178.046875 325.859375 178.046875 C 325.859375 178.046875 327.539062 178.046875 327.539062 178.046875 Z M 327.539062 178.046875 "/>
<path style=" stroke:none;fill-rule:nonzero;fill:rgb(0%,100%,100%);fill-opacity:1;" d="M 186.445312 71.386719 C 186.445312 76.957031 195.570312 71.386719 188.546875 71.386719 Z M 186.445312 71.386719 "/>
<path style=" stroke:none;fill-rule:evenodd;fill:rgb(0%,100%,100%);fill-opacity:1;" d="M 352.734375 231.796875 C 352.734375 233.417969 354.355469 231.796875 352.734375 231.796875 M 352.734375 200.722656 C 352.734375 202.34375 354.355469 200.722656 352.734375 200.722656 M 205.761719 146.972656 C 205.761719 148.664062 199.296875 149.492188 197.78125 149.492188 C 196.425781 149.492188 182.355469 153.894531 181.40625 155.789062 C 179.144531 160.3125 189.269531 165.449219 192.324219 165.449219 L 200.304688 167.96875 C 204.359375 169.996094 217.035156 163.800781 220.460938 162.089844 C 223.390625 160.625 232.378906 159.472656 229.277344 153.273438 C 227.691406 150.097656 221.402344 150.804688 218.78125 149.492188 C 215.246094 147.726562 209.914062 146.972656 205.761719 146.972656 M 35.273438 203.242188 C 35.273438 219.3125 53.5 206.519531 57.109375 213.742188 C 61.070312 221.664062 43.832031 218.257812 47.03125 224.65625 C 47.757812 226.109375 47.890625 222.757812 48.289062 222.558594 C 50.449219 221.480469 52.109375 223.589844 54.171875 222.558594 L 55.007812 220.878906 C 56.59375 220.878906 59.882812 226.667969 61.308594 223.820312 L 61.308594 220.460938 C 65.71875 211.640625 78.390625 212.128906 86.085938 208.28125 L 93.640625 207.441406 C 97.90625 205.308594 102.050781 203.65625 106.242188 201.5625 L 112.117188 200.722656 L 112.960938 199.042969 L 113.796875 199.882812 C 117.433594 203.519531 112.539062 203.175781 112.539062 204.921875 C 112.539062 204.921875 115.476562 206.601562 115.476562 206.601562 C 120.222656 204.230469 122.238281 199.882812 126.816406 199.882812 C 126.816406 196.644531 127.558594 198.460938 129.757812 197.363281 C 129.757812 197.363281 132.273438 194.003906 132.273438 194.003906 C 136.042969 192.121094 139.828125 194.003906 143.613281 194.003906 C 143.613281 192.867188 147.511719 192.324219 148.652344 192.324219 C 148.652344 190.820312 158.738281 191.484375 160.410156 191.484375 C 160.410156 191.484375 164.609375 191.484375 164.609375 191.484375 C 165.75 191.484375 169.648438 192.027344 169.648438 193.164062 C 169.648438 193.164062 170.488281 193.164062 170.488281 193.164062 C 170.488281 193.164062 174.6875 193.164062 174.6875 193.164062 C 174.6875 193.164062 175.527344 193.164062 175.527344 193.164062 C 179.703125 193.164062 181.128906 189.3125 185.1875 187.285156 C 187.953125 185.902344 187.25 190.644531 189.804688 190.644531 C 189.804688 183.605469 202.199219 192.324219 207.023438 192.324219 C 209.96875 192.324219 220.039062 181.839844 220.039062 188.964844 C 221.5625 188.964844 221.609375 187.285156 222.140625 187.285156 C 225.304688 187.285156 228.285156 190.644531 231.796875 190.644531 C 236.800781 190.644531 259.914062 190.191406 261.191406 192.742188 C 261.871094 194.101562 265.390625 192.035156 265.390625 194.003906 C 268.03125 194.003906 273.707031 191.652344 276.726562 193.164062 C 276.726562 193.164062 277.570312 195.683594 277.570312 195.683594 C 278.183594 195.683594 282.1875 191.644531 282.1875 199.882812 C 285.246094 199.882812 288.585938 199.09375 291.84375 200.722656 C 291.84375 200.722656 297.304688 204.082031 297.304688 204.082031 C 297.304688 201.808594 301.390625 201.296875 303.601562 202.402344 C 310.175781 205.6875 316.355469 209.199219 322.921875 212.480469 C 324.820312 213.429688 325.539062 207.492188 328.796875 209.121094 C 333.699219 211.570312 327.351562 214.277344 333.835938 217.519531 C 337.28125 219.242188 337.609375 213.535156 339.71875 212.480469 C 343.867188 210.40625 351.054688 224.035156 351.054688 226.335938 C 351.054688 234.117188 343.109375 229.261719 338.039062 231.796875 C 336.613281 232.507812 331.625 236.1875 332.578125 238.09375 C 337.945312 248.828125 343.8125 237.726562 347.273438 235.996094 C 349.1875 235.039062 352.890625 237.386719 353.992188 236.835938 C 353.992188 236.835938 355.671875 234.316406 355.671875 234.316406 C 355.671875 234.316406 357.773438 235.578125 357.773438 235.578125 C 359.65625 231.808594 350.105469 227.023438 355.671875 224.238281 C 359.5 222.324219 363.332031 230.066406 366.59375 228.4375 C 369.082031 227.191406 362.058594 221.125 363.652344 217.9375 C 365.609375 214.023438 372.355469 220.691406 374.570312 216.257812 C 375.269531 214.859375 375.796875 205.761719 373.3125 205.761719 C 370.605469 205.761719 357.417969 218.910156 353.574219 211.21875 C 350.871094 205.8125 365.664062 205.519531 367.011719 202.820312 C 369.273438 198.296875 359.992188 199.882812 358.195312 199.882812 C 356.753906 199.882812 355.058594 203.273438 354.414062 201.984375 C 351.152344 195.457031 368.214844 195.148438 364.492188 187.703125 C 363.617188 185.953125 357.933594 185.703125 356.933594 187.703125 C 355.242188 191.085938 350.078125 202.964844 343.914062 199.882812 C 338.132812 196.992188 350.371094 191.378906 348.535156 187.703125 C 347.902344 186.441406 345.363281 187.519531 344.757812 188.125 C 343.070312 189.8125 336.410156 194.453125 333.835938 193.164062 C 332.25 192.367188 327.996094 185.167969 325.4375 186.445312 C 323.832031 187.25 321.957031 185.433594 320.820312 187.703125 C 319.355469 190.632812 327.796875 194.925781 324.601562 196.523438 C 323.601562 197.023438 322.320312 196.824219 321.242188 197.363281 C 319.566406 198.199219 302.511719 195.097656 312.421875 185.1875 C 312.421875 185.1875 315.359375 182.246094 315.359375 182.246094 C 315.359375 182.246094 316.621094 183.925781 316.621094 183.925781 C 316.621094 181.792969 316.164062 180.585938 317.882812 179.726562 C 317.882812 179.726562 318.71875 177.207031 318.71875 177.207031 C 319.847656 176.644531 320.628906 180.03125 322.921875 178.886719 C 322.921875 178.886719 324.179688 176.367188 324.179688 176.367188 C 324.179688 174.324219 326.816406 176.9375 327.960938 176.367188 C 330.28125 175.207031 338.457031 175.167969 338.457031 170.070312 C 338.457031 165.839844 336.304688 160.09375 338.457031 155.789062 C 338.457031 155.789062 337.617188 150.75 337.617188 150.75 C 338.882812 148.222656 338.003906 142.335938 335.515625 141.09375 C 333.664062 140.167969 329.386719 142.898438 327.960938 143.613281 C 325.957031 144.613281 325.859375 151.917969 325.859375 154.109375 C 325.859375 155.453125 321.996094 171.078125 321.660156 171.75 C 321.660156 171.75 321.242188 176.367188 321.242188 176.367188 C 321.242188 176.367188 317.882812 174.6875 317.882812 174.6875 C 309.308594 170.402344 312.421875 146.761719 312.421875 139.835938 C 312.421875 139.835938 314.941406 136.476562 314.941406 136.476562 C 316.230469 133.894531 312.992188 125.253906 314.101562 123.039062 C 315.226562 120.789062 324.082031 123.234375 324.179688 123.039062 C 327.0625 117.273438 310.726562 106.660156 307.804688 106.660156 C 307.628906 106.660156 306.9375 116.367188 306.542969 117.15625 C 305.851562 118.542969 304.15625 120.25 303.183594 122.195312 C 302.320312 123.925781 303.359375 127.585938 304.023438 128.914062 C 305.695312 132.257812 304.652344 149.496094 303.183594 152.429688 C 302.167969 154.464844 298.589844 155.359375 296.882812 156.210938 C 294.046875 157.628906 291.480469 164.003906 287.648438 162.089844 C 284.3125 160.421875 274.863281 148.601562 276.308594 145.710938 C 279.253906 139.820312 281.863281 139.785156 287.648438 136.894531 C 287.648438 136.894531 290.164062 132.695312 290.164062 132.695312 C 290.164062 132.695312 291.425781 133.953125 291.425781 133.953125 C 292.808594 131.191406 291.773438 121.210938 290.585938 118.835938 C 290.585938 118.835938 290.164062 115.898438 290.164062 115.898438 C 290.164062 115.898438 289.328125 117.578125 289.328125 117.578125 C 287.890625 117.578125 290.386719 110.839844 290.585938 110.4375 C 291.015625 109.582031 300.539062 106.828125 298.144531 102.039062 C 296.242188 98.238281 292.234375 100.976562 290.164062 99.941406 C 288.148438 98.933594 287.027344 96.691406 285.125 95.742188 C 285.125 95.742188 282.609375 97.421875 282.609375 97.421875 C 282.609375 97.421875 280.929688 96.582031 280.929688 96.582031 C 275.582031 99.253906 279.941406 117.449219 276.308594 124.71875 C 275.675781 125.980469 275.164062 131.796875 275.046875 131.855469 C 275.046875 131.855469 272.53125 131.855469 272.53125 131.855469 C 272.53125 131.855469 270.851562 133.535156 270.851562 133.535156 C 268.546875 133.535156 267.265625 129.109375 266.230469 128.078125 C 264.679688 126.527344 262.871094 124.058594 262.871094 121.359375 C 262.871094 121.359375 265.390625 113.796875 265.390625 113.796875 C 265.390625 113.796875 265.390625 102.882812 265.390625 102.882812 C 266.027344 101.609375 269.433594 96.683594 268.75 95.320312 C 267.390625 92.601562 264.53125 92.582031 262.453125 91.542969 C 262.453125 91.542969 261.609375 89.023438 261.609375 89.023438 C 261.609375 89.023438 260.773438 90.703125 260.773438 90.703125 C 260.773438 90.703125 259.929688 89.023438 259.929688 89.023438 C 257.585938 86.675781 259.5625 90.703125 258.25 90.703125 C 256.417969 90.703125 256.582031 87.347656 256.570312 87.34375 C 254.652344 86.382812 254.726562 89.023438 254.054688 89.023438 C 252.652344 89.023438 251.945312 87.128906 250.695312 86.503906 C 250.695312 86.503906 248.59375 86.085938 248.59375 86.085938 C 248.59375 85.539062 250.441406 84.699219 249.015625 83.984375 C 249.015625 83.984375 243.976562 83.144531 243.976562 83.144531 C 243.976562 83.144531 243.132812 81.464844 243.132812 81.464844 C 243.132812 81.464844 241.453125 83.144531 241.453125 83.144531 C 238.683594 81.757812 239.484375 77.832031 233.898438 80.625 C 233.757812 80.695312 239.664062 83.507812 240.617188 83.984375 C 240.617188 83.984375 242.296875 87.34375 242.296875 87.34375 C 244.144531 88.269531 250.917969 94.089844 251.953125 96.164062 C 257.101562 106.457031 250.214844 120.402344 253.632812 127.234375 C 256.136719 132.246094 260.394531 136.558594 262.871094 141.515625 C 264.515625 144.800781 264.863281 154.53125 259.929688 154.53125 C 259.929688 154.53125 254.054688 149.492188 254.054688 149.492188 C 245.082031 145.007812 245.25 134.828125 241.035156 126.398438 C 238.167969 120.660156 242.597656 114.402344 239.355469 107.921875 C 234.207031 97.621094 225.4375 93.222656 216.257812 93.222656 C 216.257812 93.222656 209.121094 90.703125 209.121094 90.703125 C 209.121094 90.703125 208.28125 91.542969 208.28125 91.542969 C 202.863281 91.542969 200.382812 92.34375 195.265625 94.902344 C 191.792969 96.636719 184.8125 93.410156 180.148438 95.742188 C 178.71875 96.457031 180.566406 97.296875 180.566406 97.84375 C 180.566406 97.84375 178.46875 98.261719 178.46875 98.261719 C 178.46875 98.261719 178.046875 101.203125 178.046875 101.203125 C 178.046875 101.203125 175.527344 102.039062 175.527344 102.039062 C 175.527344 103.996094 171.246094 108.921875 169.648438 112.117188 C 166.925781 117.566406 171.648438 122.394531 168.808594 128.078125 C 166.976562 131.738281 163.914062 134.507812 162.089844 138.15625 C 159.410156 143.511719 161.046875 147.285156 154.953125 150.332031 C 152.015625 151.800781 150.050781 157.539062 145.710938 155.371094 C 143.625 154.328125 143.679688 148.097656 144.453125 146.554688 C 145.226562 145.007812 144.566406 142.96875 145.292969 141.515625 C 148.277344 135.546875 151.574219 129.792969 154.53125 123.875 C 155.597656 121.742188 154.632812 118.632812 155.371094 117.15625 C 156.914062 114.074219 151.171875 109.496094 151.171875 106.242188 C 151.171875 103.988281 158.292969 99.949219 159.992188 99.101562 C 159.992188 99.101562 163.769531 92.804688 163.769531 92.804688 C 163.769531 92.804688 167.128906 90.28125 167.128906 90.28125 C 168.828125 86.882812 170.140625 83.074219 173.007812 80.203125 C 173.007812 80.203125 180.148438 73.066406 180.148438 73.066406 C 180.148438 73.066406 175.945312 73.066406 175.945312 73.066406 C 167.382812 68.785156 164.464844 82.171875 162.089844 86.921875 C 159.992188 91.121094 147.214844 97.359375 146.132812 99.523438 C 141.617188 108.550781 143.613281 115.886719 143.613281 125.554688 C 143.613281 129.308594 139.558594 141.375 133.953125 138.574219 C 131.253906 137.222656 132.949219 131.941406 131.855469 129.757812 C 129.578125 125.203125 125.929688 111.371094 128.496094 106.242188 C 129.644531 103.941406 133.296875 101.679688 133.535156 101.203125 C 134.113281 100.042969 131.730469 96.582031 130.59375 96.582031 C 128.84375 96.582031 109.882812 102.601562 112.539062 107.921875 C 114.105469 111.050781 121.460938 115.273438 118.417969 121.359375 C 116.882812 124.425781 114.9375 137.074219 116.738281 140.671875 C 116.738281 140.671875 127.65625 149.914062 127.65625 149.914062 C 130.640625 155.882812 120.863281 166.535156 116.320312 168.808594 C 111.097656 171.417969 112.574219 163.996094 110.4375 162.929688 C 97.003906 156.210938 107.488281 143.167969 103.300781 134.796875 C 103.300781 134.796875 104.140625 132.273438 104.140625 132.273438 C 102.355469 128.707031 100.710938 125.414062 99.101562 122.195312 C 99.101562 122.195312 98.679688 112.539062 98.679688 112.539062 C 96.523438 111.460938 77.601562 127.90625 79.785156 132.273438 C 81.101562 134.910156 89.09375 129.894531 91.542969 134.796875 C 91.542969 134.796875 92.382812 150.75 92.382812 150.75 C 95.4375 156.863281 98.445312 176.488281 90.28125 180.566406 C 87.167969 182.125 83.265625 181.226562 81.464844 177.625 C 79.195312 173.089844 82.390625 161.84375 79.785156 156.632812 C 78.914062 154.886719 74.234375 146.972656 72.648438 146.972656 C 72.648438 146.972656 72.226562 149.914062 72.226562 149.914062 C 70.464844 153.4375 69.707031 158.335938 69.707031 162.507812 C 69.707031 165.148438 68.027344 168.691406 68.027344 170.90625 C 68.027344 175.347656 76.425781 177.011719 76.425781 178.886719 C 76.425781 178.886719 77.265625 179.726562 77.265625 179.726562 C 77.265625 177.976562 78.945312 176.183594 78.945312 178.886719 C 78.945312 178.886719 78.945312 180.566406 78.945312 180.566406 C 78.945312 180.566406 79.785156 180.566406 79.785156 180.566406 C 79.785156 177.371094 81.90625 180.566406 82.304688 180.566406 C 82.304688 179.570312 83.144531 179.570312 83.144531 180.566406 C 84.042969 180.566406 85.820312 183.925781 90.703125 183.925781 C 92.261719 183.925781 98.386719 188.296875 97.421875 190.226562 C 96.035156 192.992188 93.140625 191.316406 91.125 192.324219 C 87.613281 194.078125 79.921875 197.640625 77.6875 196.523438 C 69.699219 192.53125 90.664062 189.574219 79.367188 183.925781 C 76.59375 182.539062 70.667969 189.804688 65.085938 189.804688 C 61.527344 189.804688 50.089844 183.269531 47.03125 189.382812 C 45.53125 192.386719 51.378906 198.203125 54.171875 198.203125 C 56.472656 198.203125 65.824219 195.058594 68.027344 199.460938 C 70.460938 204.332031 55.96875 206.242188 53.328125 204.921875 C 49.859375 203.1875 46.710938 202.503906 43.671875 199.460938 C 43.671875 199.460938 39.890625 197.363281 39.890625 197.363281 C 39.890625 197.363281 35.273438 203.242188 35.273438 203.242188 Z M 35.273438 203.242188 "/>
<path style=" stroke:none;fill-rule:nonzero;fill:rgb(0%,100%,100%);fill-opacity:1;" d="M 232.636719 78.105469 C 232.636719 81.027344 235.558594 78.105469 232.636719 78.105469 Z M 232.636719 78.105469 "/>
<path style=" stroke:none;fill-rule:nonzero;fill:rgb(100%,100%,0%);fill-opacity:1;" d="M 205.761719 146.972656 C 205.761719 148.664062 199.296875 149.492188 197.78125 149.492188 C 196.425781 149.492188 182.355469 153.894531 181.40625 155.789062 C 179.144531 160.3125 189.269531 165.449219 192.324219 165.449219 L 200.304688 167.96875 C 204.359375 169.996094 217.035156 163.800781 220.460938 162.089844 C 223.390625 160.625 232.378906 159.472656 229.277344 153.273438 C 227.691406 150.097656 221.402344 150.804688 218.78125 149.492188 C 215.246094 147.726562 209.914062 146.972656 205.761719 146.972656 Z M 205.761719 146.972656 "/>
<path style=" stroke:none;fill-rule:nonzero;fill:rgb(100%,100%,0%);fill-opacity:1;" d="M 78.945312 178.886719 L 77.265625 179.726562 C 77.265625 177.976562 78.945312 176.183594 78.945312 178.886719 Z M 78.945312 178.886719 "/>
<path style=" stroke:none;fill-rule:nonzero;fill:rgb(0%,100%,100%);fill-opacity:1;" d="M 325.859375 178.046875 L 327.539062 178.046875 C 327.539062 179.222656 325.859375 179.222656 325.859375 178.046875 Z M 325.859375 178.046875 "/>
<path style=" stroke:none;fill-rule:nonzero;fill:rgb(100%,100%,0%);fill-opacity:1;" d="M 82.304688 180.566406 L 83.144531 180.566406 C 83.144531 179.570312 82.304688 179.570312 82.304688 180.566406 Z M 82.304688 180.566406 "/>
<path style=" stroke:none;fill-rule:nonzero;fill:rgb(27.450982%,64.705884%,8.235294%);fill-opacity:1;" d="M 62.148438 180.566406 C 62.148438 187.667969 68.738281 181.550781 66.765625 180.566406 Z M 62.148438 180.566406 "/>
<path style=" stroke:none;fill-rule:nonzero;fill:rgb(100%,100%,0%);fill-opacity:1;" d="M 90.703125 183.925781 C 92.261719 183.925781 98.386719 188.296875 97.421875 190.226562 C 96.035156 192.992188 93.140625 191.316406 91.125 192.324219 C 87.613281 194.078125 79.921875 197.640625 77.6875 196.523438 C 69.699219 192.53125 90.664062 189.574219 79.367188 183.925781 C 76.59375 182.539062 70.667969 189.804688 65.085938 189.804688 C 61.527344 189.804688 50.089844 183.269531 47.03125 189.382812 C 45.53125 192.386719 51.378906 198.203125 54.171875 198.203125 C 56.472656 198.203125 65.824219 195.058594 68.027344 199.460938 C 70.460938 204.332031 55.96875 206.242188 53.328125 204.921875 C 49.859375 203.1875 46.710938 202.503906 43.671875 199.460938 L 39.890625 197.363281 L 35.273438 203.242188 C 35.273438 200.339844 35.316406 195.453125 38.210938 194.003906 C 38.210938 194.003906 43.671875 194.421875 43.671875 194.421875 C 44.234375 193.300781 42.667969 189.710938 43.671875 187.703125 C 47.085938 180.878906 61.644531 184.722656 65.085938 186.445312 C 65.910156 186.855469 74.125 184.75 74.746094 183.507812 C 74.746094 183.507812 75.164062 181.40625 75.164062 181.40625 C 76.449219 180.765625 78.945312 181.578125 78.945312 180.566406 C 78.945312 180.566406 79.785156 180.566406 79.785156 180.566406 C 79.785156 180.566406 81.882812 183.925781 81.882812 183.925781 C 87.289062 183.925781 84.5 188.59375 86.921875 189.804688 C 88.265625 190.476562 90.703125 187.160156 90.703125 183.925781 Z M 90.703125 183.925781 "/>
<path style=" stroke:none;fill-rule:evenodd;fill:rgb(100%,100%,0%);fill-opacity:1;" d="M 358.613281 231.796875 C 358.613281 241.015625 367.714844 231.796875 358.613281 231.796875 M 340.976562 223.398438 L 339.296875 225.5 L 344.335938 226.335938 L 343.914062 223.398438 L 342.234375 224.238281 L 340.976562 223.398438 M 307.382812 211.640625 C 307.382812 217.542969 309.390625 219.992188 314.523438 222.558594 L 316.203125 220.878906 L 317.039062 223.398438 L 320.398438 223.398438 C 323.207031 224.800781 331.519531 229.296875 333.417969 225.5 C 333.632812 225.070312 328.910156 221.355469 327.960938 220.878906 C 326.964844 220.382812 324.574219 221.707031 322.921875 220.878906 C 321.121094 219.980469 319.113281 217.519531 317.039062 217.519531 L 314.523438 218.359375 C 312.054688 217.125 310.996094 215.335938 308.640625 214.160156 L 307.382812 211.640625 M 314.101562 188.125 C 314.101562 193.410156 319.386719 188.125 314.101562 188.125 M 303.183594 210.800781 C 307.152344 210.800781 308.019531 215 304.863281 215 C 304.863281 217.378906 302.820312 217.214844 303.183594 217.9375 C 306.257812 224.089844 321.019531 226.226562 327.117188 229.277344 C 327.117188 229.277344 331.738281 243.132812 331.738281 243.132812 C 332.75 245.15625 337.609375 245.441406 338.875 246.074219 C 342.859375 248.066406 344.980469 241.34375 347.273438 240.195312 C 347.273438 240.195312 352.3125 241.035156 352.3125 241.035156 C 356.558594 238.914062 361.609375 238.90625 365.75 236.835938 C 367.683594 235.871094 364.695312 232.648438 365.332031 231.375 C 366.40625 229.226562 375.148438 229.175781 372.890625 224.65625 C 372.890625 224.65625 370.371094 222.976562 370.371094 222.976562 C 370.371094 222.285156 375.917969 221.960938 377.089844 219.617188 C 381.101562 211.59375 374.683594 203.886719 371.210938 196.945312 C 370.757812 196.039062 367.011719 196.46875 367.011719 194.421875 C 367.011719 192.820312 371.121094 192.566406 369.53125 189.382812 C 367.625 185.574219 356.234375 181.546875 353.15625 183.085938 C 353.15625 183.085938 352.3125 184.765625 352.3125 184.765625 C 350.726562 184.765625 347.679688 183.722656 345.59375 184.765625 C 343.746094 185.691406 343.261719 188.453125 342.234375 188.964844 C 340.703125 189.730469 339.03125 188.125 338.039062 188.125 C 336.441406 188.125 334.203125 189.148438 332.15625 188.125 C 332.15625 188.125 329.640625 183.085938 329.640625 183.085938 C 329.640625 183.085938 328.796875 184.765625 328.796875 184.765625 C 328.796875 184.765625 326.28125 181.40625 326.28125 181.40625 C 324.585938 181.40625 321.945312 183.992188 320.398438 184.765625 C 319.21875 185.355469 317.570312 183.925781 316.621094 183.925781 C 316.621094 183.925781 315.359375 182.246094 315.359375 182.246094 C 315.359375 182.246094 312.421875 185.1875 312.421875 185.1875 C 302.511719 195.097656 319.566406 198.199219 321.242188 197.363281 C 322.320312 196.824219 323.601562 197.023438 324.601562 196.523438 C 327.796875 194.925781 319.355469 190.632812 320.820312 187.703125 C 321.957031 185.433594 323.832031 187.25 325.4375 186.445312 C 327.996094 185.167969 332.25 192.367188 333.835938 193.164062 C 336.410156 194.453125 343.070312 189.8125 344.757812 188.125 C 345.363281 187.519531 347.902344 186.441406 348.535156 187.703125 C 350.371094 191.378906 338.132812 196.992188 343.914062 199.882812 C 350.078125 202.964844 355.242188 191.085938 356.933594 187.703125 C 357.933594 185.703125 363.617188 185.953125 364.492188 187.703125 C 368.214844 195.148438 351.152344 195.457031 354.414062 201.984375 C 355.058594 203.273438 356.753906 199.882812 358.195312 199.882812 C 359.992188 199.882812 369.273438 198.296875 367.011719 202.820312 C 365.664062 205.519531 350.871094 205.8125 353.574219 211.21875 C 357.417969 218.910156 370.605469 205.761719 373.3125 205.761719 C 375.796875 205.761719 375.269531 214.859375 374.570312 216.257812 C 372.355469 220.691406 365.609375 214.023438 363.652344 217.9375 C 362.058594 221.125 369.082031 227.191406 366.59375 228.4375 C 363.332031 230.066406 359.5 222.324219 355.671875 224.238281 C 350.105469 227.023438 359.65625 231.808594 357.773438 235.578125 C 357.773438 235.578125 355.671875 234.316406 355.671875 234.316406 C 355.671875 234.316406 353.992188 236.835938 353.992188 236.835938 C 352.890625 237.386719 349.1875 235.039062 347.273438 235.996094 C 343.8125 237.726562 337.945312 248.828125 332.578125 238.09375 C 331.625 236.1875 336.613281 232.507812 338.039062 231.796875 C 343.109375 229.261719 351.054688 234.117188 351.054688 226.335938 C 351.054688 224.035156 343.867188 210.40625 339.71875 212.480469 C 337.609375 213.535156 337.28125 219.242188 333.835938 217.519531 C 327.351562 214.277344 333.699219 211.570312 328.796875 209.121094 C 325.539062 207.492188 324.820312 213.429688 322.921875 212.480469 C 316.355469 209.199219 310.175781 205.6875 303.601562 202.402344 C 301.390625 201.296875 297.304688 201.808594 297.304688 204.082031 C 297.304688 205.636719 301.441406 210.800781 303.183594 210.800781 Z M 303.183594 210.800781 "/>
<path style=" stroke:none;fill-rule:nonzero;fill:rgb(27.450982%,64.705884%,8.235294%);fill-opacity:1;" d="M 338.457031 182.246094 L 336.777344 183.507812 C 333.660156 189.738281 348.484375 182.246094 338.457031 182.246094 Z M 338.457031 182.246094 "/>
<path style=" stroke:none;fill-rule:nonzero;fill:rgb(100%,100%,0%);fill-opacity:1;" d="M 220.039062 188.964844 C 220.039062 206.550781 189.804688 204.566406 189.804688 190.644531 C 189.804688 183.605469 202.199219 192.324219 207.023438 192.324219 C 209.96875 192.324219 220.039062 181.839844 220.039062 188.964844 Z M 220.039062 188.964844 "/>
<path style=" stroke:none;fill-rule:nonzero;fill:rgb(0%,100%,100%);fill-opacity:1;" d="M 314.101562 188.125 C 314.101562 193.410156 319.386719 188.125 314.101562 188.125 Z M 314.101562 188.125 "/>
<path style=" stroke:none;fill-rule:nonzero;fill:rgb(60.000002%,32.549021%,100%);fill-opacity:1;" d="M 182.246094 286.386719 C 183.605469 286.386719 202.402344 279.257812 202.402344 287.226562 C 202.402344 287.226562 203.664062 284.707031 203.664062 284.707031 C 203.664062 284.707031 209.960938 284.707031 209.960938 284.707031 C 212.789062 284.707031 227.597656 282.230469 227.597656 286.386719 C 227.597656 286.386719 233.054688 283.867188 233.054688 283.867188 C 233.054688 283.867188 239.773438 283.867188 239.773438 283.867188 C 242.894531 282.308594 245.625 281.78125 248.171875 280.507812 C 248.171875 280.507812 261.609375 279.667969 261.609375 279.667969 C 261.609375 279.667969 271.6875 272.109375 271.6875 272.109375 C 276.773438 269.566406 283.867188 266.425781 283.867188 259.511719 C 281.546875 259.511719 276.289062 265.390625 272.949219 265.390625 C 272.949219 265.390625 267.910156 264.132812 267.910156 264.132812 C 267.910156 262.734375 271.269531 262.03125 271.269531 259.511719 C 265.632812 259.511719 265.355469 243.902344 263.710938 240.617188 C 260.675781 234.542969 251.953125 239.5625 251.953125 230.957031 C 251.953125 230.957031 252.792969 229.277344 252.792969 229.277344 C 252.792969 229.277344 253.632812 228.4375 253.632812 228.4375 C 253.632812 228.4375 257.414062 225.078125 257.414062 225.078125 C 259.683594 223.941406 263.578125 227.597656 265.390625 227.597656 C 265.390625 227.597656 267.070312 225.078125 267.070312 225.078125 C 267.070312 224.441406 264.746094 219.199219 267.070312 219.199219 C 267.070312 219.199219 265.390625 213.320312 265.390625 213.320312 C 265.390625 213.320312 263.710938 211.21875 263.710938 211.21875 C 263.710938 211.21875 263.710938 197.363281 263.710938 197.363281 C 263.710938 196.132812 263.621094 194.003906 265.390625 194.003906 C 265.390625 192.035156 261.871094 194.101562 261.191406 192.742188 C 259.914062 190.191406 236.800781 190.644531 231.796875 190.644531 C 231.796875 192.730469 230.117188 194.027344 230.117188 195.683594 C 231.675781 195.683594 235.738281 193.664062 236.414062 194.003906 C 244.316406 197.953125 235.996094 204.554688 235.996094 205.34375 C 235.996094 205.34375 237.675781 206.179688 237.675781 206.179688 C 237.675781 206.179688 233.054688 206.601562 233.054688 206.601562 C 229.476562 208.390625 230.515625 215 220.039062 215 C 220.039062 215 220.039062 215.839844 220.039062 215.839844 C 222.164062 215.839844 225.917969 214.886719 225.917969 217.519531 C 233.535156 217.519531 224.675781 227.167969 222.140625 228.4375 C 222.140625 228.4375 220.460938 230.117188 220.460938 230.117188 C 217.691406 228.730469 219.367188 225.835938 218.359375 223.820312 C 218.359375 223.820312 215.839844 218.359375 215.839844 218.359375 C 214.496094 218.359375 213.835938 220.925781 212.0625 220.039062 C 211.304688 219.660156 209.246094 217.519531 207.441406 217.519531 C 207.441406 217.519531 202.402344 216.679688 202.402344 216.679688 C 201.164062 216.679688 198.273438 219.199219 195.683594 219.199219 C 194.507812 219.199219 189.265625 228.796875 186.867188 227.597656 C 186.867188 227.597656 184.765625 225.5 184.765625 225.5 C 184.765625 222.230469 180.488281 216.679688 185.605469 216.679688 C 185.605469 216.679688 187.285156 213.320312 187.285156 213.320312 C 187.285156 213.320312 180.148438 215 180.148438 215 C 176.773438 213.3125 171.957031 207.441406 170.488281 204.5 C 170.488281 204.5 167.96875 203.664062 167.96875 203.664062 C 166.152344 200.03125 172.167969 195.714844 172.167969 194.84375 C 172.167969 194.84375 170.488281 194.003906 170.488281 194.003906 C 170.488281 194.003906 169.648438 193.164062 169.648438 193.164062 C 167.679688 193.164062 164.609375 195.886719 164.609375 191.484375 C 164.609375 191.484375 160.410156 191.484375 160.410156 191.484375 C 160.410156 195.601562 151.738281 192.324219 148.652344 192.324219 C 147.511719 192.324219 143.613281 192.867188 143.613281 194.003906 C 143.613281 194.003906 143.613281 201.984375 143.613281 201.984375 C 144.261719 203.28125 146.253906 204.261719 145.292969 206.179688 C 145.292969 206.179688 140.253906 211.21875 140.253906 211.21875 C 139.550781 212.628906 141.492188 216.679688 138.574219 216.679688 C 138.574219 216.679688 138.574219 219.199219 138.574219 219.199219 C 140.714844 219.199219 144.960938 221.964844 143.613281 224.65625 C 142.785156 226.3125 141.09375 223.058594 141.09375 225.078125 C 141.09375 225.078125 144.875 226.757812 144.875 226.757812 C 146.957031 225.714844 148.289062 222.558594 150.75 222.558594 C 150.75 222.558594 151.59375 225.078125 151.59375 225.078125 C 154.636719 226.601562 159.570312 227.179688 157.050781 232.21875 C 155.457031 235.40625 150.777344 235.527344 149.492188 238.09375 C 144.203125 248.671875 144.453125 244.050781 144.453125 255.734375 C 144.453125 258.878906 140.253906 256.566406 140.253906 259.511719 C 140.253906 262.445312 143.515625 262.648438 141.933594 265.8125 C 141.933594 265.8125 138.992188 265.390625 138.992188 265.390625 C 137.917969 265.929688 137.234375 267.871094 135.632812 267.070312 C 135.632812 267.070312 133.117188 263.710938 133.117188 263.710938 C 127.621094 260.964844 123.457031 255.378906 123.457031 249.433594 C 121.421875 249.433594 120.796875 255.453125 121.777344 257.414062 C 123.421875 260.699219 128.191406 266.289062 131.4375 267.910156 C 135.167969 269.777344 138.675781 272.789062 142.351562 274.628906 C 142.351562 274.628906 144.875 277.988281 144.875 277.988281 C 153.46875 282.285156 163.734375 281.539062 171.75 285.546875 C 171.75 285.546875 180.148438 284.707031 180.148438 284.707031 C 181.359375 285.3125 180.222656 286.386719 182.246094 286.386719 Z M 182.246094 286.386719 "/>
<path style=" stroke:none;fill-rule:nonzero;fill:rgb(20.392157%,100%,5.098039%);fill-opacity:1;" d="M 126.816406 199.882812 C 126.816406 203.480469 121.917969 207.304688 124.296875 212.0625 L 126.816406 213.742188 C 127.675781 215.460938 126.421875 217.113281 128.914062 218.359375 C 130.515625 219.160156 131.199219 217.21875 132.273438 216.679688 L 138.574219 216.679688 C 141.492188 216.679688 139.550781 212.628906 140.253906 211.21875 C 140.253906 211.21875 145.292969 206.179688 145.292969 206.179688 C 146.253906 204.261719 144.261719 203.28125 143.613281 201.984375 C 143.613281 201.984375 143.613281 194.003906 143.613281 194.003906 C 139.828125 194.003906 136.042969 192.121094 132.273438 194.003906 C 132.273438 194.003906 129.757812 197.363281 129.757812 197.363281 C 127.558594 198.460938 126.816406 196.644531 126.816406 199.882812 Z M 126.816406 199.882812 "/>
<path style=" stroke:none;fill-rule:nonzero;fill:rgb(92.156863%,34.117648%,100%);fill-opacity:1;" d="M 170.488281 193.164062 L 170.488281 194.003906 C 170.488281 194.003906 169.648438 193.164062 169.648438 193.164062 C 169.648438 193.164062 170.488281 193.164062 170.488281 193.164062 Z M 170.488281 193.164062 "/>
<path style=" stroke:none;fill-rule:nonzero;fill:rgb(92.156863%,34.117648%,100%);fill-opacity:1;" d="M 195.683594 218.359375 L 195.683594 219.199219 C 198.273438 219.199219 201.164062 216.679688 202.402344 216.679688 C 202.402344 216.679688 200.722656 215.421875 200.722656 215.421875 C 200.722656 207.503906 192.257812 211.929688 189.804688 207.023438 C 189.03125 205.472656 185.199219 197.789062 184.34375 197.363281 C 182.886719 196.632812 175.527344 195.023438 175.527344 193.164062 C 175.527344 193.164062 174.6875 193.164062 174.6875 193.164062 C 174.6875 195.628906 173.207031 194.84375 172.167969 194.84375 C 172.167969 195.714844 166.152344 200.03125 167.96875 203.664062 C 167.96875 203.664062 170.488281 204.5 170.488281 204.5 C 171.957031 207.441406 176.773438 213.3125 180.148438 215 C 180.148438 215 187.285156 213.320312 187.285156 213.320312 C 188.746094 213.320312 192.324219 213.894531 192.324219 215.839844 C 192.324219 215.839844 194.003906 217.519531 194.003906 217.519531 C 194.003906 217.519531 194.84375 217.519531 194.84375 217.519531 C 194.84375 217.519531 195.683594 218.359375 195.683594 218.359375 Z M 195.683594 218.359375 "/>
<path style=" stroke:none;fill-rule:nonzero;fill:rgb(20.392157%,100%,5.098039%);fill-opacity:1;" d="M 282.1875 199.882812 C 282.1875 202.28125 283.667969 204.945312 284.707031 207.023438 C 286.226562 210.054688 284.007812 222.417969 279.25 220.039062 L 276.726562 217.519531 L 272.949219 217.101562 L 276.308594 216.257812 L 270.007812 215.839844 C 266.640625 214.15625 274.058594 213.320312 265.390625 213.320312 C 265.390625 213.320312 263.710938 211.21875 263.710938 211.21875 C 263.710938 211.21875 263.710938 197.363281 263.710938 197.363281 C 263.710938 196.132812 263.621094 194.003906 265.390625 194.003906 C 268.03125 194.003906 273.707031 191.652344 276.726562 193.164062 C 276.726562 193.164062 277.570312 195.683594 277.570312 195.683594 C 278.183594 195.683594 282.1875 191.644531 282.1875 199.882812 Z M 282.1875 199.882812 "/>
<path style=" stroke:none;fill-rule:nonzero;fill:rgb(92.156863%,34.117648%,100%);fill-opacity:1;" d="M 216.679688 217.519531 L 215.839844 218.359375 C 214.496094 218.359375 213.835938 220.925781 212.0625 220.039062 C 211.304688 219.660156 209.246094 217.519531 207.441406 217.519531 C 207.441406 217.519531 209.960938 212.0625 209.960938 212.0625 C 211.070312 209.839844 215.199219 208.390625 217.101562 207.441406 C 219.84375 206.070312 223.765625 197.390625 225.5 196.523438 C 225.5 196.523438 230.117188 195.683594 230.117188 195.683594 C 231.675781 195.683594 235.738281 193.664062 236.414062 194.003906 C 244.316406 197.953125 235.996094 204.554688 235.996094 205.34375 C 235.996094 205.34375 237.675781 206.179688 237.675781 206.179688 C 237.675781 206.179688 233.054688 206.601562 233.054688 206.601562 C 229.476562 208.390625 230.515625 215 220.039062 215 C 220.039062 215 219.199219 215.839844 219.199219 215.839844 C 219.199219 215.839844 217.519531 216.679688 217.519531 216.679688 C 217.519531 216.679688 216.679688 217.519531 216.679688 217.519531 Z M 216.679688 217.519531 "/>
<path style=" stroke:none;fill-rule:evenodd;fill:rgb(100%,100%,0%);fill-opacity:1;" d="M 64.667969 229.277344 C 64.667969 234.046875 68.140625 229.277344 64.667969 229.277344 M 62.148438 229.277344 C 62.148438 233.953125 63.921875 229.277344 62.148438 229.277344 M 48.710938 224.238281 C 48.710938 227.382812 50.46875 224.238281 48.710938 224.238281 M 52.070312 223.398438 L 51.230469 224.65625 C 51.230469 226.21875 56.566406 223.398438 52.070312 223.398438 M 109.179688 207.441406 L 110.019531 207.441406 C 110.019531 207.441406 111.699219 206.601562 111.699219 206.601562 C 111.699219 206.601562 112.539062 204.921875 112.539062 204.921875 C 112.539062 203.175781 117.433594 203.519531 113.796875 199.882812 C 113.796875 199.882812 112.960938 199.042969 112.960938 199.042969 C 112.960938 199.042969 112.117188 200.722656 112.117188 200.722656 C 112.117188 200.722656 106.242188 201.5625 106.242188 201.5625 C 102.050781 203.65625 97.90625 205.308594 93.640625 207.441406 C 93.640625 207.441406 86.085938 208.28125 86.085938 208.28125 C 78.390625 212.128906 65.71875 211.640625 61.308594 220.460938 C 61.308594 220.460938 61.308594 223.820312 61.308594 223.820312 C 59.882812 226.667969 56.59375 220.878906 55.007812 220.878906 C 55.007812 220.878906 54.171875 222.558594 54.171875 222.558594 C 52.109375 223.589844 50.449219 221.480469 48.289062 222.558594 C 47.890625 222.757812 47.757812 226.109375 47.03125 224.65625 C 43.832031 218.257812 61.070312 221.664062 57.109375 213.742188 C 53.5 206.519531 35.273438 219.3125 35.273438 203.242188 C 33.691406 203.242188 32.855469 208.90625 33.59375 210.382812 C 33.59375 210.382812 38.632812 215.421875 38.632812 215.421875 C 38.632812 215.421875 32.753906 220.460938 32.753906 220.460938 C 31.277344 223.410156 33.9375 227.980469 36.53125 229.277344 C 39.464844 230.742188 44.410156 229.4375 47.453125 230.957031 C 51.445312 232.953125 54.953125 237.644531 58.367188 239.355469 C 58.367188 239.355469 61.726562 238.515625 61.726562 238.515625 C 61.726562 238.515625 66.347656 238.09375 66.347656 238.09375 C 66.347656 238.09375 66.765625 232.636719 66.765625 232.636719 C 66.765625 232.636719 69.289062 235.15625 69.289062 235.15625 C 72.109375 236.566406 76.347656 236.835938 79.367188 236.835938 C 85.144531 236.835938 88.328125 227.734375 91.960938 225.917969 C 96.746094 223.527344 100.625 227.046875 102.882812 225.917969 C 102.945312 225.886719 107.9375 216.222656 108.339844 215.421875 C 108.734375 214.625 108.472656 212.480469 107.5 212.480469 C 107.5 212.480469 103.71875 211.640625 103.71875 211.640625 C 101.527344 212.738281 104.832031 214.285156 104.980469 214.578125 C 104.980469 214.578125 103.300781 217.101562 103.300781 217.101562 C 103.300781 218.195312 104.109375 222.363281 102.039062 223.398438 C 101.136719 223.851562 93.453125 222.652344 90.28125 224.238281 C 87.394531 225.683594 78.863281 235.742188 74.328125 233.476562 C 74.328125 233.476562 71.804688 230.957031 71.804688 230.957031 C 71.804688 230.957031 68.867188 228.859375 68.867188 228.859375 C 67.496094 226.117188 71.296875 224.835938 72.226562 222.976562 C 75.644531 216.144531 89.09375 217.273438 95.320312 214.160156 C 95.320312 214.160156 105.398438 209.121094 105.398438 209.121094 C 106.246094 208.699219 109.179688 205.933594 109.179688 207.441406 Z M 109.179688 207.441406 "/>
<path style=" stroke:none;fill-rule:nonzero;fill:rgb(100%,100%,0%);fill-opacity:1;" d="M 352.734375 200.722656 C 352.734375 202.34375 354.355469 200.722656 352.734375 200.722656 Z M 352.734375 200.722656 "/>
<path style=" stroke:none;fill-rule:nonzero;fill:rgb(0%,100%,100%);fill-opacity:1;" d="M 112.539062 204.921875 L 111.699219 206.601562 C 111.699219 206.601562 112.539062 204.921875 112.539062 204.921875 Z M 112.539062 204.921875 "/>
<path style=" stroke:none;fill-rule:nonzero;fill:rgb(0%,100%,100%);fill-opacity:1;" d="M 109.179688 207.441406 C 109.179688 210.242188 107.5 210.433594 107.5 212.480469 C 107.5 212.480469 103.71875 211.640625 103.71875 211.640625 C 101.527344 212.738281 104.832031 214.285156 104.980469 214.578125 C 104.980469 214.578125 103.300781 217.101562 103.300781 217.101562 C 103.300781 218.195312 104.109375 222.363281 102.039062 223.398438 C 101.136719 223.851562 93.453125 222.652344 90.28125 224.238281 C 87.394531 225.683594 78.863281 235.742188 74.328125 233.476562 C 74.328125 233.476562 71.804688 230.957031 71.804688 230.957031 C 71.804688 230.957031 68.867188 228.859375 68.867188 228.859375 C 67.496094 226.117188 71.296875 224.835938 72.226562 222.976562 C 75.644531 216.144531 89.09375 217.273438 95.320312 214.160156 C 95.320312 214.160156 105.398438 209.121094 105.398438 209.121094 C 106.246094 208.699219 109.179688 205.933594 109.179688 207.441406 Z M 109.179688 207.441406 "/>
<path style=" stroke:none;fill-rule:nonzero;fill:rgb(0%,100%,100%);fill-opacity:1;" d="M 111.699219 206.601562 L 110.019531 207.441406 C 110.019531 207.441406 111.699219 206.601562 111.699219 206.601562 Z M 111.699219 206.601562 "/>
<path style=" stroke:none;fill-rule:nonzero;fill:rgb(0%,100%,100%);fill-opacity:1;" d="M 303.183594 210.800781 C 307.152344 210.800781 308.019531 215 304.863281 215 C 304.863281 214.085938 303.183594 212.957031 303.183594 210.800781 Z M 303.183594 210.800781 "/>
<path style=" stroke:none;fill-rule:nonzero;fill:rgb(0%,100%,100%);fill-opacity:1;" d="M 307.382812 211.640625 C 307.382812 217.542969 309.390625 219.992188 314.523438 222.558594 L 316.203125 220.878906 L 317.039062 223.398438 L 320.398438 223.398438 C 323.207031 224.800781 331.519531 229.296875 333.417969 225.5 C 333.632812 225.070312 328.910156 221.355469 327.960938 220.878906 C 326.964844 220.382812 324.574219 221.707031 322.921875 220.878906 C 321.121094 219.980469 319.113281 217.519531 317.039062 217.519531 L 314.523438 218.359375 C 312.054688 217.125 310.996094 215.335938 308.640625 214.160156 Z M 307.382812 211.640625 "/>
<path style=" stroke:none;fill-rule:nonzero;fill:rgb(98.039216%,95.686275%,96.862745%);fill-opacity:1;" d="M 185.605469 216.679688 L 186.867188 218.359375 C 188.679688 219.265625 190.976562 217.519531 192.324219 217.519531 C 192.324219 217.519531 192.324219 215.839844 192.324219 215.839844 C 192.324219 213.894531 188.746094 213.320312 187.285156 213.320312 C 187.285156 213.320312 185.605469 216.679688 185.605469 216.679688 Z M 185.605469 216.679688 "/>
<path style=" stroke:none;fill-rule:nonzero;fill:rgb(60.000002%,32.549021%,100%);fill-opacity:1;" d="M 192.324219 217.519531 L 194.003906 217.519531 C 194.003906 217.519531 192.324219 215.839844 192.324219 215.839844 C 192.324219 215.839844 192.324219 217.519531 192.324219 217.519531 Z M 192.324219 217.519531 "/>
<path style=" stroke:none;fill-rule:nonzero;fill:rgb(98.039216%,95.686275%,96.862745%);fill-opacity:1;" d="M 217.519531 217.519531 C 217.519531 218.019531 225.917969 218.671875 225.917969 217.519531 C 225.917969 214.886719 222.164062 215.839844 220.039062 215.839844 C 220.039062 215.839844 219.199219 215.839844 219.199219 215.839844 C 219.199219 215.839844 217.519531 216.679688 217.519531 216.679688 C 217.519531 216.679688 217.519531 217.519531 217.519531 217.519531 Z M 217.519531 217.519531 "/>
<path style=" stroke:none;fill-rule:nonzero;fill:rgb(70.19608%,10.980392%,20.784314%);fill-opacity:1;" d="M 195.683594 218.359375 L 195.683594 219.199219 C 194.507812 219.199219 189.265625 228.796875 186.867188 227.597656 C 186.867188 227.597656 184.765625 225.5 184.765625 225.5 C 184.765625 222.230469 180.488281 216.679688 185.605469 216.679688 C 185.605469 216.679688 186.867188 218.359375 186.867188 218.359375 C 188.679688 219.265625 190.976562 217.519531 192.324219 217.519531 C 192.324219 217.519531 194.003906 217.519531 194.003906 217.519531 C 194.003906 217.519531 194.84375 217.519531 194.84375 217.519531 C 194.84375 217.519531 195.683594 218.359375 195.683594 218.359375 Z M 195.683594 218.359375 "/>
<path style=" stroke:none;fill-rule:nonzero;fill:rgb(60.000002%,32.549021%,100%);fill-opacity:1;" d="M 216.679688 217.519531 L 217.519531 217.519531 C 217.519531 217.519531 217.519531 216.679688 217.519531 216.679688 C 217.519531 216.679688 216.679688 217.519531 216.679688 217.519531 Z M 216.679688 217.519531 "/>
<path style=" stroke:none;fill-rule:nonzero;fill:rgb(60.000002%,32.549021%,100%);fill-opacity:1;" d="M 194.84375 217.519531 L 195.683594 218.359375 C 195.683594 218.359375 194.84375 217.519531 194.84375 217.519531 Z M 194.84375 217.519531 "/>
<path style=" stroke:none;fill-rule:nonzero;fill:rgb(70.19608%,10.980392%,20.784314%);fill-opacity:1;" d="M 225.917969 217.519531 C 233.535156 217.519531 224.675781 227.167969 222.140625 228.4375 L 220.460938 230.117188 C 217.691406 228.730469 219.367188 225.835938 218.359375 223.820312 L 215.839844 218.359375 C 215.839844 218.359375 216.679688 217.519531 216.679688 217.519531 C 216.679688 217.519531 217.519531 217.519531 217.519531 217.519531 C 217.519531 218.019531 225.917969 218.671875 225.917969 217.519531 Z M 225.917969 217.519531 "/>
<path style=" stroke:none;fill-rule:nonzero;fill:rgb(98.039216%,50.196081%,44.705883%);fill-opacity:1;" d="M 123.457031 249.433594 C 123.457031 255.378906 127.621094 260.964844 133.117188 263.710938 L 135.632812 267.070312 C 137.234375 267.871094 137.917969 265.929688 138.992188 265.390625 L 141.933594 265.8125 C 143.515625 262.648438 140.253906 262.445312 140.253906 259.511719 C 136.164062 259.511719 136.488281 256.601562 135.214844 254.054688 C 130.691406 245.007812 133.484375 242.398438 137.734375 233.898438 C 138.566406 232.230469 138.335938 225.078125 141.09375 225.078125 C 141.09375 223.058594 142.785156 226.3125 143.613281 224.65625 C 144.960938 221.964844 140.714844 219.199219 138.574219 219.199219 C 128.8125 219.199219 123.457031 242.546875 123.457031 249.433594 Z M 123.457031 249.433594 "/>
<path style=" stroke:none;fill-rule:nonzero;fill:rgb(98.039216%,50.196081%,44.705883%);fill-opacity:1;" d="M 271.269531 259.511719 C 271.269531 262.03125 267.910156 262.734375 267.910156 264.132812 L 272.949219 265.390625 C 276.289062 265.390625 281.546875 259.511719 283.867188 259.511719 C 283.867188 259.511719 286.386719 256.570312 286.386719 256.570312 C 286.386719 256.570312 286.386719 249.851562 286.386719 249.851562 C 286.386719 237.742188 281.746094 219.199219 267.070312 219.199219 C 264.746094 219.199219 267.070312 224.441406 267.070312 225.078125 C 268.996094 225.078125 268.75 225.914062 268.75 227.597656 C 268.75 227.597656 270.429688 228.859375 270.429688 228.859375 C 270.429688 228.859375 269.589844 231.375 269.589844 231.375 C 269.589844 231.375 277.148438 240.617188 277.148438 240.617188 C 279.832031 245.984375 276.453125 259.511719 271.269531 259.511719 Z M 271.269531 259.511719 "/>
<path style=" stroke:none;fill-rule:nonzero;fill:rgb(35.686275%,94.509804%,100%);fill-opacity:1;" d="M 141.09375 225.078125 L 144.875 226.757812 C 146.957031 225.714844 148.289062 222.558594 150.75 222.558594 L 151.59375 225.078125 C 154.636719 226.601562 159.570312 227.179688 157.050781 232.21875 C 155.457031 235.40625 150.777344 235.527344 149.492188 238.09375 C 144.203125 248.671875 144.453125 244.050781 144.453125 255.734375 C 144.453125 258.878906 140.253906 256.566406 140.253906 259.511719 C 136.164062 259.511719 136.488281 256.601562 135.214844 254.054688 C 130.691406 245.007812 133.484375 242.398438 137.734375 233.898438 C 138.566406 232.230469 138.335938 225.078125 141.09375 225.078125 Z M 141.09375 225.078125 "/>
<path style=" stroke:none;fill-rule:nonzero;fill:rgb(0%,100%,100%);fill-opacity:1;" d="M 52.070312 223.398438 L 51.230469 224.65625 C 51.230469 226.21875 56.566406 223.398438 52.070312 223.398438 Z M 52.070312 223.398438 "/>
<path style=" stroke:none;fill-rule:nonzero;fill:rgb(0%,100%,100%);fill-opacity:1;" d="M 340.976562 223.398438 L 339.296875 225.5 L 344.335938 226.335938 L 343.914062 223.398438 L 342.234375 224.238281 Z M 340.976562 223.398438 "/>
<path style=" stroke:none;fill-rule:nonzero;fill:rgb(0%,100%,100%);fill-opacity:1;" d="M 48.710938 224.238281 C 48.710938 227.382812 50.46875 224.238281 48.710938 224.238281 Z M 48.710938 224.238281 "/>
<path style=" stroke:none;fill-rule:nonzero;fill:rgb(35.686275%,94.509804%,100%);fill-opacity:1;" d="M 251.953125 230.957031 C 251.953125 239.5625 260.675781 234.542969 263.710938 240.617188 C 265.355469 243.902344 265.632812 259.511719 271.269531 259.511719 C 276.453125 259.511719 279.832031 245.984375 277.148438 240.617188 C 277.148438 240.617188 269.589844 231.375 269.589844 231.375 C 269.589844 231.375 270.429688 228.859375 270.429688 228.859375 C 270.429688 228.859375 268.75 227.597656 268.75 227.597656 C 267.148438 227.597656 266.679688 227.597656 265.390625 227.597656 C 263.578125 227.597656 259.683594 223.941406 257.414062 225.078125 C 257.414062 225.078125 253.632812 228.4375 253.632812 228.4375 C 253.632812 228.4375 252.792969 229.277344 252.792969 229.277344 C 252.792969 229.277344 251.953125 230.957031 251.953125 230.957031 Z M 251.953125 230.957031 "/>
<path style=" stroke:none;fill-rule:nonzero;fill:rgb(100%,100%,0%);fill-opacity:1;" d="M 352.734375 231.796875 C 352.734375 233.417969 354.355469 231.796875 352.734375 231.796875 Z M 352.734375 231.796875 "/>
<path style=" stroke:none;fill-rule:nonzero;fill:rgb(0%,100%,100%);fill-opacity:1;" d="M 358.613281 231.796875 C 358.613281 241.015625 367.714844 231.796875 358.613281 231.796875 Z M 358.613281 231.796875 "/>
<path style=" stroke:none;fill-rule:nonzero;fill:rgb(27.450982%,64.705884%,8.235294%);fill-opacity:1;" d="M 373.730469 238.515625 L 372.890625 242.296875 C 374.949219 246.414062 380.792969 238.515625 373.730469 238.515625 Z M 373.730469 238.515625 "/>
<path style=" stroke:none;fill-rule:nonzero;fill:rgb(27.450982%,64.705884%,8.235294%);fill-opacity:1;" d="M 311.582031 240.195312 C 311.582031 244.105469 304.617188 253.300781 312 256.992188 L 315.359375 258.671875 C 316.644531 258.03125 314.753906 256.035156 317.882812 254.472656 C 320.441406 253.191406 324.496094 257.464844 327.117188 256.152344 L 331.320312 253.632812 L 332.578125 254.054688 C 334.8125 249.582031 328.714844 249.683594 328.378906 249.015625 C 327.574219 247.40625 329.390625 245.53125 327.117188 244.394531 C 325.414062 243.542969 323.246094 245.234375 322.078125 245.234375 C 319.332031 245.234375 316.992188 240.195312 311.582031 240.195312 Z M 311.582031 240.195312 "/>
<path style=" stroke:none;fill-rule:nonzero;fill:rgb(27.450982%,64.705884%,8.235294%);fill-opacity:1;" d="M 89.863281 241.035156 L 89.023438 242.296875 C 86.859375 246.621094 95.515625 241.035156 89.863281 241.035156 Z M 89.863281 241.035156 "/>
<path style=" stroke:none;fill-rule:nonzero;fill:rgb(27.450982%,64.705884%,8.235294%);fill-opacity:1;" d="M 70.546875 250.273438 C 70.546875 253.792969 63.695312 259.234375 69.289062 262.03125 L 70.96875 263.710938 C 73.988281 263.710938 69.496094 257.835938 69.707031 257.414062 C 70.71875 255.390625 74.957031 250.273438 70.546875 250.273438 Z M 70.546875 250.273438 "/>
<path style=" stroke:none;fill-rule:nonzero;fill:rgb(27.450982%,64.705884%,8.235294%);fill-opacity:1;" d="M 335.097656 254.472656 C 335.097656 256.230469 338.242188 254.472656 335.097656 254.472656 Z M 335.097656 254.472656 "/>
<path style=" stroke:none;fill-rule:nonzero;fill:rgb(27.450982%,64.705884%,8.235294%);fill-opacity:1;" d="M 321.660156 269.589844 C 321.660156 271.214844 317.710938 272.109375 316.203125 272.109375 C 311.207031 272.109375 304.089844 272.398438 301.503906 277.570312 C 299.421875 281.734375 307.8125 286.8125 310.320312 288.066406 C 316.101562 290.957031 324.1875 292.890625 330.476562 289.746094 C 341.417969 284.277344 342.417969 275.980469 331.320312 270.429688 C 328.863281 269.203125 324.738281 269.589844 321.660156 269.589844 Z M 321.660156 269.589844 "/>
<path style=" stroke:none;fill-rule:nonzero;fill:rgb(100%,20.392157%,15.294118%);fill-opacity:1;" d="M 182.246094 286.386719 C 183.605469 286.386719 202.402344 279.257812 202.402344 287.226562 C 202.035156 287.226562 199.59375 293.039062 197.78125 293.945312 C 191.046875 297.3125 182.246094 291.835938 182.246094 286.386719 Z M 182.246094 286.386719 "/>
<path style=" stroke:none;fill-rule:nonzero;fill:rgb(100%,20.392157%,15.294118%);fill-opacity:1;" d="M 209.960938 284.707031 C 212.789062 284.707031 227.597656 282.230469 227.597656 286.386719 C 227.597656 295.328125 210.636719 294.878906 208.28125 290.164062 C 205.539062 284.683594 209.960938 286.320312 209.960938 284.707031 Z M 209.960938 284.707031 "/>
</g>
</svg>
