<?xml version="1.0" encoding="UTF-8"?>
<svg xmlns="http://www.w3.org/2000/svg" xmlns:xlink="http://www.w3.org/1999/xlink" width="430px" height="430px" viewBox="0 0 430 430" version="1.1">
<g id="surface1">
<rect x="0" y="0" width="430" height="430" style="fill:rgb(0%,0%,0%);fill-opacity:1;stroke:none;"/>
<path style=" stroke:none;fill-rule:evenodd;fill:rgb(100%,100%,0%);fill-opacity:1;" d="M 334.257812 146.972656 C 334.257812 150.117188 336.015625 146.972656 334.257812 146.972656 M 319.980469 182.246094 C 321.910156 182.246094 319.152344 184.765625 318.71875 184.765625 C 317.921875 184.765625 316.242188 183.925781 314.941406 183.925781 C 314.941406 183.925781 309.484375 180.566406 309.484375 180.566406 C 306.648438 179.148438 294.851562 168.519531 293.105469 165.03125 C 292.878906 164.574219 290.585938 165.972656 290.585938 164.1875 C 290.585938 161.914062 295.125 163.769531 296.046875 163.769531 C 300.335938 163.769531 302.457031 161.097656 307.804688 163.769531 C 307.804688 163.769531 319.140625 175.109375 319.140625 175.109375 C 319.574219 175.972656 321.84375 177.261719 322.5 175.945312 C 323.578125 173.792969 309.84375 157.355469 308.222656 154.109375 C 307.414062 152.492188 303.960938 149.3125 306.960938 147.8125 C 312.984375 144.800781 325.40625 162.441406 327.539062 166.710938 C 328.257812 168.144531 327.816406 176.4375 331.320312 174.6875 C 335.441406 172.625 336.832031 157.582031 335.097656 154.109375 C 334.089844 152.09375 328.75 155.347656 327.117188 154.53125 C 325.164062 153.554688 322.246094 143.703125 323.339844 141.515625 C 323.339844 141.515625 325.019531 140.671875 325.019531 140.671875 C 325.414062 139.882812 324.40625 136.894531 326.28125 136.894531 C 326.28125 136.894531 327.117188 138.574219 327.117188 138.574219 C 327.117188 138.574219 327.960938 136.894531 327.960938 136.894531 C 329.957031 136.894531 331.972656 142.726562 334.257812 138.15625 C 334.625 137.417969 327.515625 120.296875 325.4375 119.257812 C 315.386719 114.230469 316.621094 124.914062 316.621094 132.695312 C 316.621094 136.496094 314 142.933594 308.640625 140.253906 C 308.640625 140.253906 303.183594 134.796875 303.183594 134.796875 C 302.28125 132.988281 302.386719 117.074219 303.183594 115.476562 C 303.230469 115.386719 306.609375 110.019531 306.960938 110.019531 C 306.960938 110.019531 308.222656 111.28125 308.222656 111.28125 C 309.871094 107.984375 304.101562 100.78125 301.085938 100.78125 C 296.453125 100.78125 299.890625 105.574219 297.726562 106.660156 C 295.632812 107.707031 296.710938 131.78125 293.945312 137.3125 C 293.945312 137.3125 290.164062 137.734375 290.164062 137.734375 C 287.6875 138.972656 285.007812 139.894531 282.609375 141.09375 C 279.8125 142.492188 275.6875 146.453125 271.6875 144.453125 C 264.429688 140.824219 267.976562 129.511719 273.367188 126.816406 C 273.367188 126.816406 275.890625 126.816406 275.890625 126.816406 C 277.1875 126.167969 277.410156 123.117188 278.40625 122.617188 C 278.40625 122.617188 280.085938 124.296875 280.085938 124.296875 C 280.273438 124.296875 282.675781 119.542969 283.027344 118.835938 C 284.101562 116.691406 283.027344 109.839844 283.027344 107.921875 C 283.027344 106.929688 281.617188 104.980469 282.609375 104.980469 C 282.609375 104.980469 283.445312 106.660156 283.445312 106.660156 C 284.390625 106.660156 285.144531 102.003906 285.546875 101.203125 C 286.332031 99.628906 290.226562 97.871094 285.96875 95.742188 C 285.96875 95.742188 284.289062 96.582031 284.289062 96.582031 C 284.289062 96.582031 283.445312 94.0625 283.445312 94.0625 C 283.445312 94.0625 282.609375 94.902344 282.609375 94.902344 C 280.199219 94.902344 274.402344 90.605469 274.210938 90.703125 C 268.40625 93.605469 273.183594 113.890625 267.492188 116.738281 C 265.058594 117.953125 266.464844 135.542969 259.09375 131.855469 C 250.914062 127.765625 258.25 106.234375 255.3125 100.359375 C 254.078125 97.894531 258.046875 96.59375 256.992188 94.484375 C 255.375 91.246094 256.921875 90.140625 256.152344 88.601562 C 253.816406 83.929688 241.773438 81.203125 238.9375 79.785156 C 236.941406 78.789062 235.324219 76.300781 233.898438 75.585938 C 232.617188 74.949219 231.253906 75.585938 230.539062 75.585938 C 230.539062 75.585938 229.695312 73.90625 229.695312 73.90625 C 229.695312 73.90625 214.578125 71.386719 214.578125 71.386719 C 214.578125 71.386719 211.21875 69.707031 211.21875 69.707031 C 201.335938 69.707031 180.78125 70.648438 172.585938 74.746094 C 168.804688 76.636719 165.464844 82.695312 163.769531 86.085938 C 162.597656 88.429688 158.429688 89.742188 156.632812 91.542969 C 156.632812 91.542969 155.371094 97 155.371094 97 C 150.945312 105.851562 155.761719 120.578125 152.851562 126.398438 C 151.722656 128.65625 148.113281 132.636719 144.875 131.015625 C 141.378906 129.269531 134.1875 107.453125 136.054688 103.71875 C 136.710938 102.40625 136.28125 100.75 136.894531 99.523438 C 137.808594 97.695312 144.566406 93.488281 140.671875 91.542969 C 138.59375 90.503906 137.742188 93.222656 136.476562 93.222656 C 136.476562 93.222656 134.796875 92.382812 134.796875 92.382812 C 134.796875 92.382812 133.117188 94.902344 133.117188 94.902344 C 131.082031 94.902344 115.96875 95.464844 119.257812 102.039062 C 119.257812 102.039062 125.976562 109.601562 125.976562 109.601562 C 128.441406 114.527344 123.644531 121.734375 126.816406 128.078125 C 129.660156 133.765625 138.796875 133.5625 141.933594 139.835938 C 144.171875 144.3125 136.1875 150.476562 133.117188 152.011719 C 130.308594 153.414062 126.578125 150.84375 123.875 149.492188 C 118.613281 146.859375 114.746094 150.125 111.699219 144.03125 C 107.757812 136.148438 116.191406 111.636719 106.242188 106.660156 C 103.574219 105.328125 96.882812 109.363281 98.261719 112.117188 C 98.261719 112.117188 101.621094 116.320312 101.621094 116.320312 C 101.621094 116.320312 102.460938 124.71875 102.460938 124.71875 C 106.171875 132.140625 105.949219 152.15625 97.84375 156.210938 C 95.863281 157.199219 91.320312 151.988281 90.703125 150.75 C 87.1875 143.71875 89.96875 135.847656 86.503906 128.914062 C 85.652344 127.214844 87.445312 123.714844 85.242188 122.617188 C 82.132812 121.0625 76.910156 132.695312 75.585938 132.695312 C 75.585938 118.167969 95.085938 107.617188 105.398438 102.460938 C 105.398438 102.460938 112.960938 102.460938 112.960938 102.460938 C 114.96875 101.457031 116.117188 94.582031 118.835938 93.222656 C 121.867188 91.707031 140.125 87.34375 142.351562 87.34375 C 142.351562 87.34375 144.03125 89.863281 144.03125 89.863281 C 144.589844 89.863281 146.253906 89.6875 146.972656 91.125 C 146.972656 91.125 147.390625 97.421875 147.390625 97.421875 C 147.390625 97.421875 148.652344 94.484375 148.652344 94.484375 C 151.03125 92.105469 152.949219 90.085938 154.53125 86.921875 C 154.9375 86.109375 161.3125 81.757812 162.929688 78.523438 C 164.066406 76.253906 165.675781 73.160156 167.546875 72.226562 C 167.546875 72.226562 168.390625 69.707031 168.390625 69.707031 C 169.882812 69.707031 171.449219 69.015625 173.429688 68.027344 C 178.511719 65.484375 186.867188 68.867188 191.90625 66.347656 C 195.621094 64.488281 206.664062 64.488281 210.382812 66.347656 C 212.785156 67.550781 229.992188 68.59375 233.898438 70.546875 C 233.898438 70.546875 235.578125 73.066406 235.578125 73.066406 C 239.714844 75.136719 243.972656 76.84375 248.171875 78.945312 C 248.171875 78.945312 251.53125 78.945312 251.53125 78.945312 C 256.574219 81.464844 261.007812 86.203125 264.96875 88.183594 C 265.453125 88.425781 275.792969 87.296875 279.25 89.023438 C 283.300781 91.050781 287.417969 92.269531 291.007812 94.0625 C 291.007812 94.0625 293.523438 97.421875 293.523438 97.421875 C 296.433594 98.875 302.464844 98.113281 306.125 99.941406 C 306.125 99.941406 309.0625 102.039062 309.0625 102.039062 C 309.0625 102.039062 309.484375 104.140625 309.484375 104.140625 C 309.484375 104.140625 311.164062 103.300781 311.164062 103.300781 C 311.164062 103.300781 312.84375 106.660156 312.84375 106.660156 C 313.824219 106.660156 312.527344 103.144531 314.523438 104.140625 C 314.523438 104.140625 314.941406 107.921875 314.941406 107.921875 C 314.941406 107.921875 318.71875 111.699219 318.71875 111.699219 C 318.71875 111.699219 320.398438 110.019531 320.398438 110.019531 C 320.398438 110.019531 322.078125 113.378906 322.078125 113.378906 C 328.789062 113.378906 331.40625 126.570312 334.257812 132.273438 C 334.257812 132.273438 335.9375 132.273438 335.9375 132.273438 C 338.0625 136.527344 334.59375 148.0625 335.9375 150.75 C 338.632812 156.140625 338.695312 168.75 335.9375 174.265625 C 333.792969 178.558594 326.773438 174.117188 325.859375 175.945312 C 325.859375 175.945312 326.699219 179.304688 326.699219 179.304688 C 325.894531 180.917969 325.925781 177.207031 325.4375 177.207031 C 325.4375 177.207031 324.601562 179.726562 324.601562 179.726562 C 322.433594 180.808594 322.160156 179.726562 319.980469 179.726562 C 318.734375 179.726562 318.734375 182.246094 319.980469 182.246094 Z M 319.980469 182.246094 "/>
<path style=" stroke:none;fill-rule:evenodd;fill:rgb(0%,100%,100%);fill-opacity:1;" d="M 203.242188 163.769531 C 203.242188 165.613281 200.925781 173.007812 204.5 173.007812 L 204.921875 171.75 L 209.960938 166.710938 C 210.199219 166.230469 205.261719 163.769531 203.242188 163.769531 M 185.605469 81.464844 C 185.605469 83.347656 180.027344 81.945312 177.625 83.144531 C 174.9375 84.488281 169.960938 88.816406 168.808594 91.125 C 165.390625 97.960938 169.132812 104.75 165.449219 112.117188 C 164.179688 114.65625 159.441406 117.742188 161.25 121.359375 L 165.449219 125.554688 C 165.449219 128.15625 152.570312 141.792969 155.371094 147.390625 C 157.019531 150.691406 166.621094 146.089844 170.070312 147.8125 C 172.46875 149.011719 192.28125 153.082031 194.421875 152.011719 C 197.824219 150.3125 199.585938 146.492188 203.664062 144.453125 C 204.488281 144.039062 209.992188 146.132812 211.21875 146.132812 L 212.898438 144.453125 L 214.578125 146.132812 C 217.035156 144.90625 217.488281 144.453125 220.460938 144.453125 L 222.140625 141.933594 C 224.59375 140.707031 226.988281 143.613281 228.859375 143.613281 C 231.832031 143.613281 236.324219 142.398438 238.9375 141.09375 L 245.65625 141.933594 C 255.882812 136.820312 239.796875 128.035156 242.714844 122.195312 C 245.011719 117.609375 246.546875 110.542969 244.394531 106.242188 L 245.234375 92.804688 C 243.148438 88.632812 240.625 89.027344 237.257812 87.34375 L 235.578125 84.824219 L 224.65625 84.824219 C 219.046875 82.019531 212.566406 82.304688 205.761719 82.304688 C 204.238281 82.304688 194.925781 81.214844 194.421875 81.464844 C 194.132812 81.609375 186.445312 84.941406 186.445312 82.726562 L 190.644531 81.882812 L 185.605469 81.464844 M 111.699219 204.082031 C 111.699219 199.527344 97.65625 208.796875 95.320312 209.960938 L 91.125 209.960938 C 87.703125 211.671875 84.375 213.335938 81.046875 215 C 79.152344 215.945312 72.515625 209.804688 69.707031 215.421875 C 69.347656 216.140625 72.734375 224.195312 69.289062 225.917969 C 66.953125 227.085938 59.734375 220.246094 57.109375 225.5 C 53.214844 233.289062 74.617188 234.476562 76.425781 238.09375 C 78.632812 242.507812 73.90625 242.285156 73.90625 246.074219 C 62.359375 246.074219 64.6875 241.253906 55.851562 236.835938 C 54.089844 235.957031 42.832031 238.199219 42.832031 234.734375 C 42.832031 231.855469 53.304688 230.488281 51.230469 226.335938 C 51.230469 226.335938 48.710938 225.917969 48.710938 225.917969 C 47.515625 225.917969 45.734375 224.257812 44.09375 225.078125 C 38.398438 227.921875 35.871094 228.375 32.753906 222.140625 C 32.101562 220.832031 32.796875 219.53125 33.59375 217.9375 C 37.171875 210.78125 55.070312 223.695312 59.628906 214.578125 C 61.785156 210.269531 53.578125 209.960938 51.230469 209.960938 C 41.8125 209.960938 32.308594 208.753906 37.792969 197.78125 C 40.46875 192.429688 56.125 204.921875 61.726562 204.921875 C 63.546875 204.921875 68.886719 205.304688 69.707031 203.664062 C 74.066406 194.941406 43.816406 196.65625 47.871094 188.546875 C 48.75 186.789062 52.15625 186.445312 52.492188 186.445312 C 52.492188 186.445312 53.328125 184.765625 53.328125 184.765625 C 60.09375 181.382812 67.8125 189.90625 72.648438 192.324219 C 74.566406 193.285156 74.492188 190.644531 75.164062 190.644531 C 77.46875 190.644531 79.242188 196.460938 81.046875 197.363281 C 83.9375 198.808594 86.5625 195.023438 88.601562 194.003906 C 88.601562 194.003906 90.28125 194.84375 90.28125 194.84375 C 90.613281 194.84375 91.59375 193.164062 93.222656 193.164062 C 96.613281 193.164062 99.605469 195.640625 102.882812 194.003906 C 109.484375 190.699219 95.355469 187.722656 94.484375 187.285156 C 94.484375 187.285156 93.640625 185.605469 93.640625 185.605469 C 93.640625 185.605469 91.542969 186.445312 91.542969 186.445312 C 91.542969 186.445312 91.542969 183.085938 91.542969 183.085938 C 91.542969 183.085938 97.84375 183.085938 97.84375 183.085938 C 100.316406 181.851562 106.011719 174.152344 102.039062 172.167969 C 97.445312 169.871094 91.613281 178.222656 88.601562 179.726562 C 85.003906 181.527344 87.179688 173.101562 86.503906 171.75 C 85.054688 168.847656 82.304688 176.800781 82.304688 178.046875 C 82.304688 178.855469 78.945312 181.894531 78.945312 178.886719 C 78.945312 171.476562 88.148438 162.4375 83.984375 154.109375 C 79.964844 146.074219 75.964844 153.25 73.484375 152.011719 C 71.109375 150.824219 75.585938 135.972656 75.585938 132.695312 C 76.910156 132.695312 82.132812 121.0625 85.242188 122.617188 C 87.445312 123.714844 85.652344 127.214844 86.503906 128.914062 C 89.96875 135.847656 87.1875 143.71875 90.703125 150.75 C 91.320312 151.988281 95.863281 157.199219 97.84375 156.210938 C 105.949219 152.15625 106.171875 132.140625 102.460938 124.71875 C 102.460938 124.71875 101.621094 116.320312 101.621094 116.320312 C 101.621094 116.320312 98.261719 112.117188 98.261719 112.117188 C 96.882812 109.363281 103.574219 105.328125 106.242188 106.660156 C 116.191406 111.636719 107.757812 136.148438 111.699219 144.03125 C 114.746094 150.125 118.613281 146.859375 123.875 149.492188 C 126.578125 150.84375 130.308594 153.414062 133.117188 152.011719 C 136.1875 150.476562 144.171875 144.3125 141.933594 139.835938 C 138.796875 133.5625 129.660156 133.765625 126.816406 128.078125 C 123.644531 121.734375 128.441406 114.527344 125.976562 109.601562 C 125.976562 109.601562 119.257812 102.039062 119.257812 102.039062 C 115.96875 95.464844 131.082031 94.902344 133.117188 94.902344 C 133.117188 94.902344 134.796875 92.382812 134.796875 92.382812 C 134.796875 92.382812 136.476562 93.222656 136.476562 93.222656 C 137.742188 93.222656 138.59375 90.503906 140.671875 91.542969 C 144.566406 93.488281 137.808594 97.695312 136.894531 99.523438 C 136.28125 100.75 136.710938 102.40625 136.054688 103.71875 C 134.1875 107.453125 141.378906 129.269531 144.875 131.015625 C 148.113281 132.636719 151.722656 128.65625 152.851562 126.398438 C 155.761719 120.578125 150.945312 105.851562 155.371094 97 C 155.371094 97 156.632812 91.542969 156.632812 91.542969 C 158.429688 89.742188 162.597656 88.429688 163.769531 86.085938 C 165.464844 82.695312 168.804688 76.636719 172.585938 74.746094 C 180.78125 70.648438 201.335938 69.707031 211.21875 69.707031 C 211.21875 69.707031 214.578125 71.386719 214.578125 71.386719 C 214.578125 71.386719 229.695312 73.90625 229.695312 73.90625 C 229.695312 73.90625 230.539062 75.585938 230.539062 75.585938 C 231.253906 75.585938 232.617188 74.949219 233.898438 75.585938 C 235.324219 76.300781 236.941406 78.789062 238.9375 79.785156 C 241.773438 81.203125 253.816406 83.929688 256.152344 88.601562 C 256.921875 90.140625 255.375 91.246094 256.992188 94.484375 C 258.046875 96.59375 254.078125 97.894531 255.3125 100.359375 C 258.25 106.234375 250.914062 127.765625 259.09375 131.855469 C 266.464844 135.542969 265.058594 117.953125 267.492188 116.738281 C 273.183594 113.890625 268.40625 93.605469 274.210938 90.703125 C 274.402344 90.605469 280.199219 94.902344 282.609375 94.902344 C 282.609375 94.902344 283.445312 94.0625 283.445312 94.0625 C 283.445312 94.0625 284.289062 96.582031 284.289062 96.582031 C 284.289062 96.582031 285.96875 95.742188 285.96875 95.742188 C 290.226562 97.871094 286.332031 99.628906 285.546875 101.203125 C 285.144531 102.003906 284.390625 106.660156 283.445312 106.660156 C 283.445312 106.660156 282.609375 104.980469 282.609375 104.980469 C 281.617188 104.980469 283.027344 106.929688 283.027344 107.921875 C 283.027344 109.839844 284.101562 116.691406 283.027344 118.835938 C 282.675781 119.542969 280.273438 124.296875 280.085938 124.296875 C 280.085938 124.296875 278.40625 122.617188 278.40625 122.617188 C 277.410156 123.117188 277.1875 126.167969 275.890625 126.816406 C 275.890625 126.816406 273.367188 126.816406 273.367188 126.816406 C 267.976562 129.511719 264.429688 140.824219 271.6875 144.453125 C 275.6875 146.453125 279.8125 142.492188 282.609375 141.09375 C 285.007812 139.894531 287.6875 138.972656 290.164062 137.734375 C 290.164062 137.734375 293.945312 137.3125 293.945312 137.3125 C 296.710938 131.78125 295.632812 107.707031 297.726562 106.660156 C 299.890625 105.574219 296.453125 100.78125 301.085938 100.78125 C 304.101562 100.78125 309.871094 107.984375 308.222656 111.28125 C 308.222656 111.28125 306.960938 110.019531 306.960938 110.019531 C 306.609375 110.019531 303.230469 115.386719 303.183594 115.476562 C 302.386719 117.074219 302.28125 132.988281 303.183594 134.796875 C 303.183594 134.796875 308.640625 140.253906 308.640625 140.253906 C 314 142.933594 316.621094 136.496094 316.621094 132.695312 C 316.621094 124.914062 315.386719 114.230469 325.4375 119.257812 C 327.515625 120.296875 334.625 137.417969 334.257812 138.15625 C 331.972656 142.726562 329.957031 136.894531 327.960938 136.894531 C 327.960938 136.894531 327.117188 138.574219 327.117188 138.574219 C 327.117188 138.574219 326.28125 136.894531 326.28125 136.894531 C 324.40625 136.894531 325.414062 139.882812 325.019531 140.671875 C 325.019531 140.671875 323.339844 141.515625 323.339844 141.515625 C 322.246094 143.703125 325.164062 153.554688 327.117188 154.53125 C 328.75 155.347656 334.089844 152.09375 335.097656 154.109375 C 336.832031 157.582031 335.441406 172.625 331.320312 174.6875 C 327.816406 176.4375 328.257812 168.144531 327.539062 166.710938 C 325.40625 162.441406 312.984375 144.800781 306.960938 147.8125 C 303.960938 149.3125 307.414062 152.492188 308.222656 154.109375 C 309.84375 157.355469 323.578125 173.792969 322.5 175.945312 C 321.84375 177.261719 319.574219 175.972656 319.140625 175.109375 C 319.140625 175.109375 307.804688 163.769531 307.804688 163.769531 C 302.457031 161.097656 300.335938 163.769531 296.046875 163.769531 C 295.125 163.769531 290.585938 161.914062 290.585938 164.1875 C 290.585938 165.972656 292.878906 164.574219 293.105469 165.03125 C 294.851562 168.519531 306.648438 179.148438 309.484375 180.566406 C 309.484375 180.566406 314.941406 183.925781 314.941406 183.925781 C 314.941406 183.925781 312.421875 186.445312 312.421875 186.445312 C 312.421875 186.445312 312 184.765625 312 184.765625 C 310.707031 184.765625 299.695312 192.488281 300.664062 194.421875 C 302.6875 198.472656 314.628906 192.378906 317.882812 194.003906 C 317.894531 194.011719 316.847656 198.234375 317.460938 199.460938 C 317.460938 199.460938 319.140625 199.460938 319.140625 199.460938 C 320.578125 200.902344 322.96875 204.476562 325.4375 203.242188 C 325.4375 203.242188 327.117188 200.722656 327.117188 200.722656 C 327.289062 200.722656 333.683594 201.449219 334.257812 200.304688 C 335.71875 197.378906 337.082031 190.28125 339.71875 188.964844 C 345.054688 186.296875 341.164062 196.640625 346.4375 194.003906 C 349.230469 192.605469 350.160156 188.359375 352.3125 187.285156 C 353.996094 186.445312 360.105469 187.238281 358.613281 190.226562 C 355.320312 196.808594 347.753906 197.542969 341.398438 200.722656 C 340.714844 201.0625 337.777344 203.980469 338.457031 205.34375 C 339.867188 208.164062 344.714844 205.761719 346.4375 205.761719 C 354.476562 205.761719 358.789062 196.523438 363.234375 196.523438 C 363.234375 196.523438 363.652344 199.460938 363.652344 199.460938 C 362.988281 200.789062 355.710938 205.78125 360.710938 208.28125 C 367.109375 211.480469 368.925781 198.25 373.730469 207.859375 C 374.167969 208.742188 375.199219 209.964844 374.570312 211.21875 C 371.214844 217.933594 368.976562 213.320312 364.914062 213.320312 C 363.285156 213.320312 360.097656 214.160156 358.195312 214.160156 C 356.636719 214.160156 354.816406 211.257812 353.574219 213.742188 C 349.464844 221.964844 375.085938 219.425781 371.210938 227.179688 C 369.003906 231.59375 358.5625 223.632812 353.992188 225.917969 C 353.992188 225.917969 353.992188 231.796875 353.992188 231.796875 C 355.496094 233.296875 365.332031 233.84375 365.332031 236.414062 C 365.332031 238.800781 356.019531 241.207031 353.992188 240.195312 C 349.632812 238.011719 352.625 240.195312 349.796875 240.195312 C 348.339844 240.195312 348.730469 238.515625 347.273438 238.515625 C 346.714844 238.515625 345.949219 233.71875 343.078125 235.15625 C 339.589844 236.898438 340.621094 241.324219 339.296875 243.976562 C 339.296875 243.976562 338.039062 243.554688 338.039062 243.554688 C 338.039062 243.554688 334.679688 245.234375 334.679688 245.234375 C 334.679688 245.234375 327.539062 238.09375 327.539062 238.09375 C 320.707031 224.429688 344.628906 232.46875 347.695312 226.335938 C 348.523438 224.683594 340.75 213.835938 339.71875 213.320312 C 332.835938 209.878906 333.03125 223.417969 327.960938 220.878906 C 327.960938 220.878906 325.4375 213.320312 325.4375 213.320312 C 325.4375 213.320312 317.882812 213.320312 317.882812 213.320312 C 316.269531 212.515625 317.175781 211.488281 316.621094 210.382812 C 316.621094 210.382812 307.382812 207.441406 307.382812 207.441406 C 300.589844 207.441406 298.597656 202.417969 293.523438 199.882812 C 287.96875 197.105469 282.378906 194.308594 276.726562 191.484375 C 270.644531 188.441406 239.65625 187.285156 235.578125 187.285156 C 233.75 187.285156 223.230469 184.050781 221.296875 183.085938 C 220.191406 182.53125 216.527344 184.480469 215.421875 183.925781 C 215.421875 183.925781 214.160156 181.40625 214.160156 181.40625 C 214.160156 175.511719 213.320312 176.964844 213.320312 182.246094 C 213.320312 185.636719 210.800781 187.136719 210.800781 183.085938 C 211.953125 183.085938 212.132812 179.34375 211.21875 178.886719 C 207.855469 177.203125 200.40625 178.046875 197.78125 178.046875 C 197.78125 178.046875 195.683594 179.304688 195.683594 179.304688 C 195.683594 179.304688 195.683594 184.765625 195.683594 184.765625 C 195.683594 184.765625 193.585938 185.605469 193.585938 185.605469 C 193.585938 185.605469 192.742188 182.246094 192.742188 182.246094 C 190.441406 181.09375 179.378906 186.410156 177.625 187.285156 C 172.269531 189.964844 163.1875 185.6875 158.3125 188.125 C 151.765625 191.398438 140.648438 191.484375 134.796875 191.484375 C 131.15625 191.484375 112.417969 204.082031 111.699219 204.082031 Z M 111.699219 204.082031 "/>
<path style=" stroke:none;fill-rule:evenodd;fill:rgb(100%,100%,0%);fill-opacity:1;" d="M 207.441406 125.976562 C 207.441406 127.402344 203.128906 126.816406 201.984375 126.816406 C 197.511719 126.816406 189.554688 127.488281 186.445312 130.59375 L 182.246094 134.796875 C 184.746094 139.792969 208.359375 133.535156 212.0625 133.535156 C 213.140625 133.535156 216.394531 130.027344 215.839844 128.914062 C 214.769531 126.777344 209.546875 125.976562 207.441406 125.976562 M 235.996094 100.78125 C 235.996094 106.933594 238.394531 100.78125 235.996094 100.78125 M 226.757812 94.0625 C 226.757812 96.230469 228.445312 97.011719 229.695312 98.261719 L 231.375 103.300781 C 233.1875 104.207031 235.84375 96.695312 235.15625 95.320312 C 234.296875 93.601562 228.652344 94.0625 226.757812 94.0625 M 223.398438 94.0625 C 223.398438 95.835938 228.074219 94.0625 223.398438 94.0625 M 215.839844 94.0625 C 215.839844 95.683594 217.460938 94.0625 215.839844 94.0625 M 185.605469 81.464844 C 185.605469 83.347656 180.027344 81.945312 177.625 83.144531 C 174.9375 84.488281 169.960938 88.816406 168.808594 91.125 C 165.390625 97.960938 169.132812 104.75 165.449219 112.117188 C 164.179688 114.65625 159.441406 117.742188 161.25 121.359375 L 165.449219 125.554688 C 165.449219 128.15625 152.570312 141.792969 155.371094 147.390625 C 157.019531 150.691406 166.621094 146.089844 170.070312 147.8125 C 172.46875 149.011719 192.28125 153.082031 194.421875 152.011719 C 197.824219 150.3125 199.585938 146.492188 203.664062 144.453125 C 204.488281 144.039062 209.992188 146.132812 211.21875 146.132812 L 212.898438 144.453125 L 214.578125 146.132812 C 217.035156 144.90625 217.488281 144.453125 220.460938 144.453125 L 222.140625 141.933594 C 224.59375 140.707031 226.988281 143.613281 228.859375 143.613281 C 231.832031 143.613281 236.324219 142.398438 238.9375 141.09375 L 245.65625 141.933594 C 255.882812 136.820312 239.796875 128.035156 242.714844 122.195312 C 245.011719 117.609375 246.546875 110.542969 244.394531 106.242188 L 245.234375 92.804688 C 243.148438 88.632812 240.625 89.027344 237.257812 87.34375 L 235.578125 84.824219 L 224.65625 84.824219 C 219.046875 82.019531 212.566406 82.304688 205.761719 82.304688 C 204.238281 82.304688 194.925781 81.214844 194.421875 81.464844 C 194.132812 81.609375 186.445312 84.941406 186.445312 82.726562 L 190.644531 81.882812 Z M 185.605469 81.464844 "/>
<path style=" stroke:none;fill-rule:nonzero;fill:rgb(100%,100%,0%);fill-opacity:1;" d="M 230.957031 100.78125 C 230.957031 102.402344 232.578125 100.78125 230.957031 100.78125 Z M 230.957031 100.78125 "/>
<path style=" stroke:none;fill-rule:nonzero;fill:rgb(100%,100%,0%);fill-opacity:1;" d="M 315.78125 104.980469 C 315.78125 108.125 317.539062 104.980469 315.78125 104.980469 Z M 315.78125 104.980469 "/>
<path style=" stroke:none;fill-rule:nonzero;fill:rgb(0%,100%,100%);fill-opacity:1;" d="M 207.441406 125.976562 C 207.441406 127.402344 203.128906 126.816406 201.984375 126.816406 C 197.511719 126.816406 189.554688 127.488281 186.445312 130.59375 L 182.246094 134.796875 C 184.746094 139.792969 208.359375 133.535156 212.0625 133.535156 C 213.140625 133.535156 216.394531 130.027344 215.839844 128.914062 C 214.769531 126.777344 209.546875 125.976562 207.441406 125.976562 Z M 207.441406 125.976562 "/>
<path style=" stroke:none;fill-rule:nonzero;fill:rgb(100%,100%,0%);fill-opacity:1;" d="M 75.585938 132.695312 L 74.328125 130.175781 L 71.386719 140.671875 C 67.1875 149.070312 71.925781 178.886719 78.945312 178.886719 C 78.945312 171.476562 88.148438 162.4375 83.984375 154.109375 C 79.964844 146.074219 75.964844 153.25 73.484375 152.011719 C 71.109375 150.824219 75.585938 135.972656 75.585938 132.695312 Z M 75.585938 132.695312 "/>
<path style=" stroke:none;fill-rule:nonzero;fill:rgb(100%,100%,0%);fill-opacity:1;" d="M 203.242188 163.769531 C 203.242188 165.613281 200.925781 173.007812 204.5 173.007812 L 204.921875 171.75 L 209.960938 166.710938 C 210.199219 166.230469 205.261719 163.769531 203.242188 163.769531 Z M 203.242188 163.769531 "/>
<path style=" stroke:none;fill-rule:nonzero;fill:rgb(100%,100%,0%);fill-opacity:1;" d="M 82.304688 178.046875 C 84.558594 178.046875 88.378906 183.085938 91.542969 183.085938 C 91.542969 183.085938 97.84375 183.085938 97.84375 183.085938 C 100.316406 181.851562 106.011719 174.152344 102.039062 172.167969 C 97.445312 169.871094 91.613281 178.222656 88.601562 179.726562 C 85.003906 181.527344 87.179688 173.101562 86.503906 171.75 C 85.054688 168.847656 82.304688 176.800781 82.304688 178.046875 Z M 82.304688 178.046875 "/>
<path style=" stroke:none;fill-rule:nonzero;fill:rgb(100%,100%,0%);fill-opacity:1;" d="M 214.160156 181.40625 L 213.320312 182.246094 C 213.320312 176.964844 214.160156 175.511719 214.160156 181.40625 Z M 214.160156 181.40625 "/>
<path style=" stroke:none;fill-rule:nonzero;fill:rgb(100%,100%,0%);fill-opacity:1;" d="M 207.441406 185.605469 L 208.28125 186.445312 C 208.28125 185.40625 208.636719 183.925781 209.960938 183.925781 C 209.960938 183.925781 210.800781 183.085938 210.800781 183.085938 C 211.953125 183.085938 212.132812 179.34375 211.21875 178.886719 C 207.855469 177.203125 200.40625 178.046875 197.78125 178.046875 C 197.78125 178.046875 195.683594 179.304688 195.683594 179.304688 C 195.683594 179.304688 195.683594 184.765625 195.683594 184.765625 C 196.863281 184.765625 199.257812 188.441406 200.304688 188.964844 C 200.304688 188.964844 206.601562 185.605469 206.601562 185.605469 C 206.601562 183.746094 207.441406 183.746094 207.441406 185.605469 Z M 207.441406 185.605469 "/>
<path style=" stroke:none;fill-rule:nonzero;fill:rgb(0%,100%,100%);fill-opacity:1;" d="M 319.980469 179.726562 C 318.734375 179.726562 318.734375 182.246094 319.980469 182.246094 C 319.980469 182.246094 319.980469 179.726562 319.980469 179.726562 Z M 319.980469 179.726562 "/>
<path style=" stroke:none;fill-rule:nonzero;fill:rgb(100%,100%,0%);fill-opacity:1;" d="M 91.542969 186.445312 L 93.640625 185.605469 L 94.484375 187.285156 C 95.355469 187.722656 109.484375 190.699219 102.882812 194.003906 C 99.605469 195.640625 96.613281 193.164062 93.222656 193.164062 C 91.59375 193.164062 90.613281 194.84375 90.28125 194.84375 L 88.601562 194.003906 C 86.5625 195.023438 83.9375 198.808594 81.046875 197.363281 C 79.242188 196.460938 77.46875 190.644531 75.164062 190.644531 C 74.492188 190.644531 74.566406 193.285156 72.648438 192.324219 C 67.8125 189.90625 60.09375 181.382812 53.328125 184.765625 L 52.492188 186.445312 C 52.15625 186.445312 48.75 186.789062 47.871094 188.546875 C 43.816406 196.65625 74.066406 194.941406 69.707031 203.664062 C 68.886719 205.304688 63.546875 204.921875 61.726562 204.921875 C 56.125 204.921875 40.46875 192.429688 37.792969 197.78125 C 32.308594 208.753906 41.8125 209.960938 51.230469 209.960938 C 53.578125 209.960938 61.785156 210.269531 59.628906 214.578125 C 55.070312 223.695312 37.171875 210.78125 33.59375 217.9375 C 32.796875 219.53125 32.101562 220.832031 32.753906 222.140625 C 35.871094 228.375 38.398438 227.921875 44.09375 225.078125 C 45.734375 224.257812 47.515625 225.917969 48.710938 225.917969 L 51.230469 226.335938 C 53.304688 230.488281 42.832031 231.855469 42.832031 234.734375 C 42.832031 238.199219 54.089844 235.957031 55.851562 236.835938 C 64.6875 241.253906 62.359375 246.074219 73.90625 246.074219 C 73.90625 248.335938 69.789062 250.273438 67.609375 250.273438 C 67.609375 250.273438 60.046875 245.234375 60.046875 245.234375 C 57.578125 244 55.429688 241.664062 52.492188 240.195312 C 47.425781 237.664062 42.734375 241.257812 39.472656 234.734375 C 39.472656 234.734375 39.890625 230.957031 39.890625 230.957031 C 39.890625 230.957031 35.695312 230.957031 35.695312 230.957031 C 32.484375 229.351562 26.851562 220.507812 28.554688 217.101562 C 29.34375 215.523438 34.300781 212.480469 35.695312 212.480469 C 35.695312 212.480469 41.992188 212.0625 41.992188 212.0625 C 41.992188 209.785156 35.101562 210.925781 34.851562 210.800781 C 32.222656 209.484375 33.191406 200.269531 34.433594 197.78125 C 39.019531 188.609375 43.195312 194.03125 44.929688 193.164062 C 45.039062 193.109375 45.226562 185.457031 49.96875 183.085938 C 49.96875 183.085938 53.328125 183.085938 53.328125 183.085938 C 60.273438 179.613281 62.441406 181.34375 69.289062 184.765625 C 69.289062 184.765625 70.96875 188.125 70.96875 188.125 C 71.578125 188.429688 76.726562 189.863281 76.84375 189.804688 C 76.84375 189.804688 77.6875 188.125 77.6875 188.125 C 77.6875 188.125 81.046875 192.324219 81.046875 192.324219 C 81.046875 192.324219 83.5625 190.644531 83.5625 190.644531 C 83.5625 190.644531 85.242188 193.164062 85.242188 193.164062 C 87.917969 193.164062 91.542969 190.84375 91.542969 186.445312 Z M 91.542969 186.445312 "/>
<path style=" stroke:none;fill-rule:nonzero;fill:rgb(27.450982%,64.705884%,8.235294%);fill-opacity:1;" d="M 73.90625 183.085938 L 73.066406 185.1875 C 75.691406 190.433594 81.101562 183.085938 73.90625 183.085938 Z M 73.90625 183.085938 "/>
<path style=" stroke:none;fill-rule:nonzero;fill:rgb(100%,100%,0%);fill-opacity:1;" d="M 311.582031 212.480469 L 312.421875 213.320312 C 312.421875 213.320312 316.203125 216.679688 316.203125 216.679688 C 316.203125 216.679688 321.242188 216.679688 321.242188 216.679688 C 321.242188 216.679688 326.699219 225.5 326.699219 225.5 C 326.699219 225.5 323.339844 230.539062 323.339844 230.539062 C 320.457031 236.300781 328.527344 248.59375 334.679688 248.59375 C 338.976562 248.59375 340.34375 245.339844 343.914062 243.554688 C 345.082031 242.972656 354.972656 246.003906 359.875 243.554688 C 373.292969 236.847656 364.898438 235.605469 367.011719 231.375 C 367.800781 229.800781 372.953125 231.253906 374.570312 228.015625 C 376.46875 224.222656 372.050781 220.089844 372.050781 219.617188 C 372.050781 217.289062 374.714844 219.199219 374.992188 219.199219 C 376.601562 219.199219 378.792969 211.269531 377.929688 209.539062 C 376.84375 207.371094 376.453125 204.910156 375.410156 202.820312 C 373.90625 199.8125 372.535156 201.5625 370.789062 201.5625 C 369.558594 201.5625 366.640625 194.519531 366.171875 193.585938 C 366.171875 193.585938 363.652344 193.585938 363.652344 193.585938 C 363.652344 193.585938 364.492188 186.867188 364.492188 186.867188 C 362.625 183.132812 356.605469 184.765625 353.992188 184.765625 C 349.140625 184.765625 344.394531 182.425781 339.71875 184.765625 C 334.453125 187.398438 331 199.882812 324.601562 199.882812 C 321.378906 199.882812 321.660156 194.679688 321.660156 192.324219 C 321.660156 192.324219 321.242188 188.964844 321.242188 188.964844 C 321.242188 188.964844 320.398438 191.484375 320.398438 191.484375 C 320.398438 191.484375 318.71875 188.125 318.71875 188.125 C 318.71875 188.125 317.882812 190.644531 317.882812 190.644531 C 316.25 190.644531 312.421875 188.222656 312.421875 186.445312 C 312.421875 186.445312 312 184.765625 312 184.765625 C 310.707031 184.765625 299.695312 192.488281 300.664062 194.421875 C 302.6875 198.472656 314.628906 192.378906 317.882812 194.003906 C 317.894531 194.011719 316.847656 198.234375 317.460938 199.460938 C 317.460938 199.460938 319.140625 199.460938 319.140625 199.460938 C 320.578125 200.902344 322.96875 204.476562 325.4375 203.242188 C 325.4375 203.242188 327.117188 200.722656 327.117188 200.722656 C 327.289062 200.722656 333.683594 201.449219 334.257812 200.304688 C 335.71875 197.378906 337.082031 190.28125 339.71875 188.964844 C 345.054688 186.296875 341.164062 196.640625 346.4375 194.003906 C 349.230469 192.605469 350.160156 188.359375 352.3125 187.285156 C 353.996094 186.445312 360.105469 187.238281 358.613281 190.226562 C 355.320312 196.808594 347.753906 197.542969 341.398438 200.722656 C 340.714844 201.0625 337.777344 203.980469 338.457031 205.34375 C 339.867188 208.164062 344.714844 205.761719 346.4375 205.761719 C 354.476562 205.761719 358.789062 196.523438 363.234375 196.523438 C 363.234375 196.523438 363.652344 199.460938 363.652344 199.460938 C 362.988281 200.789062 355.710938 205.78125 360.710938 208.28125 C 367.109375 211.480469 368.925781 198.25 373.730469 207.859375 C 374.167969 208.742188 375.199219 209.964844 374.570312 211.21875 C 371.214844 217.933594 368.976562 213.320312 364.914062 213.320312 C 363.285156 213.320312 360.097656 214.160156 358.195312 214.160156 C 356.636719 214.160156 354.816406 211.257812 353.574219 213.742188 C 349.464844 221.964844 375.085938 219.425781 371.210938 227.179688 C 369.003906 231.59375 358.5625 223.632812 353.992188 225.917969 C 353.992188 225.917969 353.992188 231.796875 353.992188 231.796875 C 355.496094 233.296875 365.332031 233.84375 365.332031 236.414062 C 365.332031 238.800781 356.019531 241.207031 353.992188 240.195312 C 349.632812 238.011719 352.625 240.195312 349.796875 240.195312 C 348.339844 240.195312 348.730469 238.515625 347.273438 238.515625 C 346.714844 238.515625 345.949219 233.71875 343.078125 235.15625 C 339.589844 236.898438 340.621094 241.324219 339.296875 243.976562 C 339.296875 243.976562 338.039062 243.554688 338.039062 243.554688 C 338.039062 243.554688 334.679688 245.234375 334.679688 245.234375 C 334.679688 245.234375 327.539062 238.09375 327.539062 238.09375 C 320.707031 224.429688 344.628906 232.46875 347.695312 226.335938 C 348.523438 224.683594 340.75 213.835938 339.71875 213.320312 C 332.835938 209.878906 333.03125 223.417969 327.960938 220.878906 C 327.960938 220.878906 325.4375 213.320312 325.4375 213.320312 C 325.4375 213.320312 317.882812 213.320312 317.882812 213.320312 C 316.269531 212.515625 317.175781 211.488281 316.621094 210.382812 C 316.621094 210.382812 307.382812 207.441406 307.382812 207.441406 C 307.382812 207.441406 308.222656 209.121094 308.222656 209.121094 C 309.9375 209.121094 310.742188 209.925781 310.742188 211.640625 C 310.742188 211.640625 311.582031 212.480469 311.582031 212.480469 Z M 311.582031 212.480469 "/>
<path style=" stroke:none;fill-rule:nonzero;fill:rgb(0%,100%,100%);fill-opacity:1;" d="M 206.601562 185.605469 L 207.441406 185.605469 C 207.441406 183.746094 206.601562 183.746094 206.601562 185.605469 Z M 206.601562 185.605469 "/>
<path style=" stroke:none;fill-rule:nonzero;fill:rgb(0%,100%,100%);fill-opacity:1;" d="M 209.960938 183.925781 C 208.636719 183.925781 208.28125 185.40625 208.28125 186.445312 C 208.28125 188.421875 209.960938 185.140625 209.960938 183.925781 Z M 209.960938 183.925781 "/>
<path style=" stroke:none;fill-rule:nonzero;fill:rgb(100%,100%,0%);fill-opacity:1;" d="M 213.320312 186.445312 C 213.320312 188.066406 214.941406 186.445312 213.320312 186.445312 Z M 213.320312 186.445312 "/>
<path style=" stroke:none;fill-rule:nonzero;fill:rgb(27.450982%,64.705884%,8.235294%);fill-opacity:1;" d="M 329.21875 188.125 C 329.21875 188.507812 322.425781 193.335938 325.4375 194.84375 C 328.847656 196.546875 333.027344 188.125 329.21875 188.125 Z M 329.21875 188.125 "/>
<path style=" stroke:none;fill-rule:nonzero;fill:rgb(92.156863%,34.117648%,100%);fill-opacity:1;" d="M 169.648438 202.402344 L 167.96875 206.179688 L 170.070312 206.601562 L 173.007812 209.539062 C 174.273438 212.074219 173.777344 213.914062 175.945312 215 L 188.125 215.421875 L 178.046875 216.257812 L 189.382812 216.679688 L 190.226562 218.359375 C 191.953125 219.222656 200.722656 218.261719 200.722656 216.679688 C 200.722656 207.542969 189.738281 195.683594 180.148438 195.683594 C 176.613281 195.683594 172.363281 200.722656 168.808594 200.722656 C 166.949219 200.722656 166.949219 201.5625 168.808594 201.5625 C 168.808594 201.5625 169.648438 202.402344 169.648438 202.402344 Z M 169.648438 202.402344 "/>
<path style=" stroke:none;fill-rule:nonzero;fill:rgb(60.000002%,32.549021%,100%);fill-opacity:1;" d="M 207.441406 286.386719 L 211.21875 281.347656 C 216.394531 278.761719 228.4375 279.367188 228.4375 287.226562 C 230.300781 287.226562 247.285156 283.050781 249.015625 282.1875 C 249.015625 282.1875 251.53125 279.667969 251.53125 279.667969 C 251.921875 279.472656 260.585938 278.171875 261.609375 277.148438 C 264.34375 274.417969 271.269531 270.597656 271.269531 266.230469 C 271.269531 266.230469 270.429688 259.511719 270.429688 259.511719 C 265.804688 259.511719 262.054688 245.703125 259.511719 240.617188 C 257.957031 237.503906 244.527344 235.3125 247.753906 228.859375 C 250.21875 223.929688 253.015625 223.078125 257.414062 220.878906 C 259.296875 219.9375 263.710938 223.671875 263.710938 222.558594 C 261.476562 222.558594 263.710938 217.851562 263.710938 220.039062 C 263.710938 220.039062 264.550781 220.039062 264.550781 220.039062 C 264.550781 220.039062 266.230469 217.519531 266.230469 217.519531 C 264.363281 217.519531 260.445312 207.675781 261.191406 206.179688 C 262.171875 204.222656 263.710938 202.210938 263.710938 199.882812 C 263.710938 199.882812 261.609375 197.363281 261.609375 197.363281 C 258.738281 197.363281 255.070312 198.953125 253.210938 199.882812 C 250.6875 201.144531 248.875 198.203125 247.335938 198.203125 C 246.8125 198.203125 243.273438 199.882812 241.035156 199.882812 C 238.609375 199.882812 239.6875 204.125 238.09375 204.921875 C 234.40625 206.765625 233.210938 214.082031 229.695312 215.839844 C 229.695312 215.839844 227.179688 215.839844 227.179688 215.839844 C 227.179688 215.839844 224.65625 219.199219 224.65625 219.199219 C 223.515625 219.769531 219.019531 218.058594 217.9375 217.519531 C 217.9375 217.519531 210.382812 218.359375 210.382812 218.359375 C 210.382812 218.359375 208.28125 216.679688 208.28125 216.679688 C 208.28125 216.679688 200.722656 216.679688 200.722656 216.679688 C 200.722656 218.261719 191.953125 219.222656 190.226562 218.359375 C 190.226562 218.359375 189.382812 216.679688 189.382812 216.679688 C 189.382812 216.679688 178.046875 216.257812 178.046875 216.257812 C 178.046875 216.257812 188.125 215.421875 188.125 215.421875 C 188.125 215.421875 175.945312 215 175.945312 215 C 173.777344 213.914062 174.273438 212.074219 173.007812 209.539062 C 173.007812 209.539062 170.070312 206.601562 170.070312 206.601562 C 170.070312 206.601562 167.96875 206.179688 167.96875 206.179688 C 167.96875 206.179688 169.648438 202.402344 169.648438 202.402344 C 169.648438 202.402344 168.808594 201.5625 168.808594 201.5625 C 166.949219 201.5625 166.949219 200.722656 168.808594 200.722656 C 168.808594 199.050781 164.441406 199.589844 163.351562 199.042969 C 153.414062 194.074219 153.574219 200.722656 146.972656 200.722656 C 146.972656 203.761719 146.972656 206.40625 146.972656 209.960938 C 146.972656 209.960938 147.8125 212.898438 147.8125 212.898438 C 147.8125 212.898438 145.292969 218.359375 145.292969 218.359375 C 145.292969 220.519531 146.972656 218.65625 146.972656 221.71875 C 147.96875 221.71875 147.96875 222.558594 146.972656 222.558594 C 146.972656 222.558594 146.972656 223.398438 146.972656 223.398438 C 150.242188 223.398438 150.644531 224.605469 153.273438 225.917969 C 154.414062 226.488281 163.164062 225.03125 158.730469 233.898438 C 156.816406 237.722656 151.332031 236.9375 149.492188 240.617188 C 147.210938 245.179688 148.085938 259.511719 141.09375 259.511719 C 141.09375 261.507812 143.917969 266.230469 139.414062 266.230469 C 139.414062 271.964844 143.957031 275.011719 148.234375 277.148438 C 148.234375 277.148438 149.914062 279.667969 149.914062 279.667969 C 149.914062 279.667969 157.46875 279.667969 157.46875 279.667969 C 163.921875 282.894531 173.796875 286.386719 181.40625 286.386719 C 185.734375 286.386719 187.371094 277.820312 197.78125 283.027344 C 200.074219 284.171875 201.5625 283.90625 201.5625 287.226562 C 201.5625 287.226562 207.441406 286.386719 207.441406 286.386719 Z M 207.441406 286.386719 "/>
<path style=" stroke:none;fill-rule:nonzero;fill:rgb(92.156863%,34.117648%,100%);fill-opacity:1;" d="M 241.035156 199.882812 C 238.609375 199.882812 239.6875 204.125 238.09375 204.921875 C 234.40625 206.765625 233.210938 214.082031 229.695312 215.839844 L 227.179688 215.839844 L 224.65625 219.199219 C 223.515625 219.769531 219.019531 218.058594 217.9375 217.519531 L 210.382812 218.359375 L 208.28125 216.679688 C 208.28125 212.648438 211.945312 211.445312 213.320312 208.703125 C 214.132812 207.074219 212.355469 205.589844 213.320312 203.664062 C 213.320312 203.664062 222.140625 197.363281 222.140625 197.363281 C 225.871094 195.496094 231.441406 196.554688 234.734375 198.203125 C 234.734375 198.203125 239.773438 196.523438 239.773438 196.523438 C 241.203125 197.238281 241.035156 198.558594 241.035156 199.882812 Z M 241.035156 199.882812 "/>
<path style=" stroke:none;fill-rule:nonzero;fill:rgb(20.392157%,100%,5.098039%);fill-opacity:1;" d="M 130.175781 227.597656 L 129.335938 228.4375 C 124.570312 228.4375 121.453125 220.265625 124.296875 214.578125 C 126.007812 211.160156 131.425781 205.359375 132.695312 202.820312 C 133.554688 201.101562 132.300781 199.449219 134.796875 198.203125 C 137.074219 197.0625 146.972656 196.417969 146.972656 200.722656 C 146.972656 203.761719 146.972656 206.40625 146.972656 209.960938 C 146.972656 209.960938 147.8125 212.898438 147.8125 212.898438 C 147.8125 212.898438 145.292969 218.359375 145.292969 218.359375 C 144.519531 218.359375 142.773438 218.765625 142.773438 219.199219 C 142.773438 219.199219 141.09375 219.199219 141.09375 219.199219 C 141.09375 217.441406 132.339844 225.917969 131.015625 225.917969 C 131.015625 225.917969 130.175781 226.757812 130.175781 226.757812 C 129.179688 226.757812 129.179688 227.597656 130.175781 227.597656 Z M 130.175781 227.597656 "/>
<path style=" stroke:none;fill-rule:nonzero;fill:rgb(20.392157%,100%,5.098039%);fill-opacity:1;" d="M 266.230469 217.519531 C 269.171875 217.519531 280.507812 227.976562 280.507812 230.957031 C 289.757812 230.957031 282.683594 204.539062 276.726562 201.5625 C 276.726562 201.5625 274.210938 201.5625 274.210938 201.5625 C 272.492188 200.703125 275.210938 198.539062 272.53125 199.882812 C 271.714844 200.289062 263.710938 196.117188 263.710938 199.882812 C 263.710938 202.210938 262.171875 204.222656 261.191406 206.179688 C 260.445312 207.675781 264.363281 217.519531 266.230469 217.519531 Z M 266.230469 217.519531 "/>
<path style=" stroke:none;fill-rule:nonzero;fill:rgb(100%,100%,0%);fill-opacity:1;" d="M 83.984375 232.636719 C 83.984375 234.660156 82.910156 233.523438 82.304688 234.734375 C 79.449219 240.449219 80.78125 246.074219 73.90625 246.074219 C 73.90625 242.285156 78.632812 242.507812 76.425781 238.09375 C 74.617188 234.476562 53.214844 233.289062 57.109375 225.5 C 59.734375 220.246094 66.953125 227.085938 69.289062 225.917969 C 72.734375 224.195312 69.347656 216.140625 69.707031 215.421875 C 72.515625 209.804688 79.152344 215.945312 81.046875 215 C 84.375 213.335938 87.703125 211.671875 91.125 209.960938 C 91.125 209.960938 95.320312 209.960938 95.320312 209.960938 C 97.65625 208.796875 111.699219 199.527344 111.699219 204.082031 C 111.699219 206.023438 112.429688 208.28125 110.019531 208.28125 C 110.019531 207.285156 109.179688 207.285156 109.179688 208.28125 C 109.179688 210.226562 108.0625 207.578125 107.5 208.703125 C 106.617188 210.46875 105.628906 212.449219 104.980469 213.742188 C 104.097656 215.507812 100.597656 223.398438 98.679688 223.398438 C 97.699219 223.398438 91.542969 222.816406 91.542969 222.558594 C 91.542969 222.558594 92.382812 218.78125 92.382812 218.78125 C 92.382812 218.78125 88.183594 219.199219 88.183594 219.199219 C 85.851562 219.199219 79.183594 223.339844 78.105469 225.5 C 77.265625 227.175781 79.9375 232.636719 81.046875 232.636719 C 81.472656 232.636719 83.984375 230.429688 83.984375 232.636719 Z M 83.984375 232.636719 "/>
<path style=" stroke:none;fill-rule:nonzero;fill:rgb(0%,100%,100%);fill-opacity:1;" d="M 109.179688 208.28125 L 110.019531 208.28125 C 110.019531 207.285156 109.179688 207.285156 109.179688 208.28125 Z M 109.179688 208.28125 "/>
<path style=" stroke:none;fill-rule:nonzero;fill:rgb(0%,100%,100%);fill-opacity:1;" d="M 308.222656 209.121094 C 309.9375 209.121094 310.742188 209.925781 310.742188 211.640625 C 310.742188 211.640625 308.222656 209.121094 308.222656 209.121094 Z M 308.222656 209.121094 "/>
<path style=" stroke:none;fill-rule:nonzero;fill:rgb(0%,100%,100%);fill-opacity:1;" d="M 311.582031 212.480469 L 312.421875 213.320312 C 312.421875 213.320312 311.582031 212.480469 311.582031 212.480469 Z M 311.582031 212.480469 "/>
<path style=" stroke:none;fill-rule:nonzero;fill:rgb(98.039216%,50.196081%,44.705883%);fill-opacity:1;" d="M 270.429688 259.511719 L 271.269531 266.230469 C 271.269531 266.230469 275.890625 266.230469 275.890625 266.230469 C 280.261719 264.042969 288.824219 246.332031 285.546875 239.773438 C 285.546875 239.773438 280.507812 230.957031 280.507812 230.957031 C 280.507812 227.976562 269.171875 217.519531 266.230469 217.519531 C 266.230469 217.519531 264.550781 220.039062 264.550781 220.039062 C 264.550781 220.039062 265.390625 221.71875 265.390625 221.71875 C 265.390625 222.15625 265.027344 225.613281 265.390625 226.335938 C 265.390625 226.335938 269.589844 228.859375 269.589844 228.859375 C 272.003906 233.683594 278.210938 243.53125 275.46875 249.015625 C 273.660156 252.632812 276.945312 259.511719 270.429688 259.511719 Z M 270.429688 259.511719 "/>
<path style=" stroke:none;fill-rule:nonzero;fill:rgb(0%,100%,100%);fill-opacity:1;" d="M 84.824219 230.117188 C 84.824219 230.996094 85.222656 232.636719 83.984375 232.636719 C 83.984375 230.429688 81.472656 232.636719 81.046875 232.636719 C 79.9375 232.636719 77.265625 227.175781 78.105469 225.5 C 79.183594 223.339844 85.851562 219.199219 88.183594 219.199219 C 88.183594 219.199219 92.382812 218.78125 92.382812 218.78125 C 92.382812 218.78125 91.542969 222.558594 91.542969 222.558594 C 91.542969 222.558594 90.703125 222.558594 90.703125 222.558594 C 90.703125 220.699219 89.863281 220.699219 89.863281 222.558594 C 89.863281 222.558594 87.34375 225.078125 87.34375 225.078125 C 87.34375 222.058594 85.664062 220.332031 85.664062 224.238281 C 85.664062 224.238281 84.824219 225.078125 84.824219 225.078125 C 84.824219 225.078125 84.824219 230.117188 84.824219 230.117188 Z M 84.824219 230.117188 "/>
<path style=" stroke:none;fill-rule:nonzero;fill:rgb(98.039216%,50.196081%,44.705883%);fill-opacity:1;" d="M 141.09375 259.511719 C 141.09375 261.507812 143.917969 266.230469 139.414062 266.230469 C 137.640625 266.230469 136.996094 268.75 136.476562 268.75 C 133.621094 268.75 132.996094 264.492188 131.4375 263.710938 C 129.847656 262.917969 131.445312 262.457031 130.59375 262.03125 C 129.953125 261.710938 127.65625 262.296875 127.65625 260.773438 C 127.65625 255.582031 126.566406 257.753906 124.296875 253.210938 C 124.296875 253.210938 124.296875 247.335938 124.296875 247.335938 C 124.296875 247.335938 122.617188 244.8125 122.617188 244.8125 C 122.617188 241.117188 129.335938 230.667969 129.335938 228.4375 C 129.335938 228.4375 130.175781 227.597656 130.175781 227.597656 C 130.175781 227.597656 130.175781 226.757812 130.175781 226.757812 C 130.175781 226.757812 131.015625 225.917969 131.015625 225.917969 C 132.339844 225.917969 141.09375 217.441406 141.09375 219.199219 C 141.09375 220.375 142.773438 220.375 142.773438 219.199219 C 142.773438 218.765625 144.519531 218.359375 145.292969 218.359375 C 145.292969 220.519531 146.972656 218.65625 146.972656 221.71875 C 146.972656 221.71875 146.972656 222.558594 146.972656 222.558594 C 146.972656 222.558594 146.972656 223.398438 146.972656 223.398438 C 141.261719 223.398438 139.503906 233.71875 137.734375 237.257812 C 137.734375 237.257812 134.375 239.773438 134.375 239.773438 C 132.972656 242.582031 133.007812 250.480469 134.375 253.210938 C 134.375 253.210938 138.15625 259.511719 138.15625 259.511719 C 138.582031 259.511719 141.09375 257.304688 141.09375 259.511719 Z M 141.09375 259.511719 "/>
<path style=" stroke:none;fill-rule:nonzero;fill:rgb(98.039216%,50.196081%,44.705883%);fill-opacity:1;" d="M 263.710938 221.71875 L 263.710938 222.558594 C 261.476562 222.558594 263.710938 217.851562 263.710938 220.039062 C 263.710938 220.039062 263.710938 221.71875 263.710938 221.71875 Z M 263.710938 221.71875 "/>
<path style=" stroke:none;fill-rule:nonzero;fill:rgb(100%,100%,0%);fill-opacity:1;" d="M 89.863281 222.558594 C 89.863281 223.554688 90.703125 223.554688 90.703125 222.558594 C 90.703125 220.699219 89.863281 220.699219 89.863281 222.558594 Z M 89.863281 222.558594 "/>
<path style=" stroke:none;fill-rule:nonzero;fill:rgb(35.686275%,94.509804%,100%);fill-opacity:1;" d="M 263.710938 222.558594 C 263.710938 223.671875 259.296875 219.9375 257.414062 220.878906 C 253.015625 223.078125 250.21875 223.929688 247.753906 228.859375 C 244.527344 235.3125 257.957031 237.503906 259.511719 240.617188 C 262.054688 245.703125 265.804688 259.511719 270.429688 259.511719 C 276.945312 259.511719 273.660156 252.632812 275.46875 249.015625 C 278.210938 243.53125 272.003906 233.683594 269.589844 228.859375 C 269.589844 228.859375 265.390625 226.335938 265.390625 226.335938 C 265.027344 225.613281 265.390625 222.15625 265.390625 221.71875 C 265.390625 221.71875 263.710938 221.71875 263.710938 221.71875 C 263.710938 221.71875 263.710938 222.558594 263.710938 222.558594 Z M 263.710938 222.558594 "/>
<path style=" stroke:none;fill-rule:nonzero;fill:rgb(100%,100%,0%);fill-opacity:1;" d="M 87.34375 225.078125 C 85.316406 225.078125 87.855469 230.117188 84.824219 230.117188 C 84.824219 230.117188 84.824219 225.078125 84.824219 225.078125 C 84.824219 225.078125 85.664062 224.238281 85.664062 224.238281 C 85.664062 220.332031 87.34375 222.058594 87.34375 225.078125 Z M 87.34375 225.078125 "/>
<path style=" stroke:none;fill-rule:nonzero;fill:rgb(35.686275%,94.509804%,100%);fill-opacity:1;" d="M 146.972656 221.71875 C 147.96875 221.71875 147.96875 222.558594 146.972656 222.558594 C 146.972656 222.558594 146.972656 221.71875 146.972656 221.71875 Z M 146.972656 221.71875 "/>
<path style=" stroke:none;fill-rule:nonzero;fill:rgb(27.450982%,64.705884%,8.235294%);fill-opacity:1;" d="M 313.261719 221.71875 L 310.742188 225.5 C 309.789062 227.410156 310.902344 230.214844 309.902344 232.21875 C 309.101562 233.820312 311.726562 240.753906 314.523438 239.355469 C 318.050781 237.589844 321.539062 223.546875 317.882812 221.71875 Z M 313.261719 221.71875 "/>
<path style=" stroke:none;fill-rule:nonzero;fill:rgb(35.686275%,94.509804%,100%);fill-opacity:1;" d="M 146.972656 223.398438 C 150.242188 223.398438 150.644531 224.605469 153.273438 225.917969 C 154.414062 226.488281 163.164062 225.03125 158.730469 233.898438 C 156.816406 237.722656 151.332031 236.9375 149.492188 240.617188 C 147.210938 245.179688 148.085938 259.511719 141.09375 259.511719 C 141.09375 257.304688 138.582031 259.511719 138.15625 259.511719 C 138.15625 259.511719 134.375 253.210938 134.375 253.210938 C 133.007812 250.480469 132.972656 242.582031 134.375 239.773438 C 134.375 239.773438 137.734375 237.257812 137.734375 237.257812 C 139.503906 233.71875 141.261719 223.398438 146.972656 223.398438 Z M 146.972656 223.398438 "/>
<path style=" stroke:none;fill-rule:nonzero;fill:rgb(27.450982%,64.705884%,8.235294%);fill-opacity:1;" d="M 92.382812 227.597656 L 88.183594 233.054688 L 88.601562 239.355469 C 89.316406 239.355469 90.382812 239.574219 90.703125 238.9375 L 92.382812 231.375 L 94.902344 229.695312 Z M 92.382812 227.597656 "/>
<path style=" stroke:none;fill-rule:nonzero;fill:rgb(27.450982%,64.705884%,8.235294%);fill-opacity:1;" d="M 372.050781 243.554688 C 372.050781 244.898438 369.484375 245.558594 370.371094 247.335938 C 372.167969 250.925781 379.5625 243.554688 372.050781 243.554688 Z M 372.050781 243.554688 "/>
<path style=" stroke:none;fill-rule:nonzero;fill:rgb(27.450982%,64.705884%,8.235294%);fill-opacity:1;" d="M 86.503906 246.074219 C 86.503906 248.304688 85.59375 249.609375 86.921875 250.273438 L 88.601562 254.472656 L 90.703125 253.210938 C 90.703125 250.324219 88.417969 246.074219 86.503906 246.074219 Z M 86.503906 246.074219 "/>
<path style=" stroke:none;fill-rule:nonzero;fill:rgb(27.450982%,64.705884%,8.235294%);fill-opacity:1;" d="M 323.339844 246.914062 C 323.339844 256.910156 332.148438 246.914062 323.339844 246.914062 Z M 323.339844 246.914062 "/>
<path style=" stroke:none;fill-rule:nonzero;fill:rgb(27.450982%,64.705884%,8.235294%);fill-opacity:1;" d="M 318.300781 249.433594 C 318.300781 253.53125 310.234375 253.875 314.101562 261.609375 L 316.203125 263.710938 L 317.039062 262.03125 C 318.753906 261.175781 322.964844 264.574219 324.601562 265.390625 C 326.386719 266.285156 335.097656 269.757812 335.097656 266.648438 L 332.578125 264.132812 L 333.417969 262.453125 C 333.417969 257.628906 327.554688 256.789062 324.601562 255.3125 C 321.617188 253.820312 322.789062 249.433594 318.300781 249.433594 Z M 318.300781 249.433594 "/>
<path style=" stroke:none;fill-rule:nonzero;fill:rgb(27.450982%,64.705884%,8.235294%);fill-opacity:1;" d="M 82.304688 256.992188 C 82.304688 258.664062 78.707031 259.453125 79.785156 261.609375 C 80.992188 264.023438 89.503906 271.570312 92.382812 265.8125 C 94.292969 261.988281 86.503906 262.511719 86.503906 259.929688 C 86.503906 256.941406 86.132812 256.992188 82.304688 256.992188 Z M 82.304688 256.992188 "/>
<path style=" stroke:none;fill-rule:nonzero;fill:rgb(100%,20.392157%,15.294118%);fill-opacity:1;" d="M 207.441406 286.386719 L 211.21875 281.347656 C 216.394531 278.761719 228.4375 279.367188 228.4375 287.226562 C 228.4375 297.640625 207.441406 295.242188 207.441406 286.386719 Z M 207.441406 286.386719 "/>
<path style=" stroke:none;fill-rule:nonzero;fill:rgb(100%,20.392157%,15.294118%);fill-opacity:1;" d="M 181.40625 286.386719 C 185.734375 286.386719 187.371094 277.820312 197.78125 283.027344 C 200.074219 284.171875 201.5625 283.90625 201.5625 287.226562 C 201.5625 298.519531 181.40625 296.382812 181.40625 286.386719 Z M 181.40625 286.386719 "/>
</g>
</svg>
