<?xml version="1.0" encoding="UTF-8"?>
<svg xmlns="http://www.w3.org/2000/svg" xmlns:xlink="http://www.w3.org/1999/xlink" width="430px" height="430px" viewBox="0 0 430 430" version="1.1">
<g id="surface1">
<rect x="0" y="0" width="430" height="430" style="fill:rgb(0%,0%,0%);fill-opacity:1;stroke:none;"/>
<path style=" stroke:none;fill-rule:evenodd;fill:rgb(52.549022%,100%,35.294119%);fill-opacity:1;" d="M 201.5625 319.980469 C 201.5625 323.058594 203.242188 321.390625 203.242188 322.921875 L 200.722656 324.601562 C 199.925781 326.191406 204.527344 330.046875 206.179688 329.21875 C 214.488281 325.0625 206.242188 319.980469 201.5625 319.980469 M 238.515625 301.503906 C 238.515625 304.648438 240.273438 301.503906 238.515625 301.503906 M 199.882812 286.386719 C 199.882812 288.121094 197.066406 286.746094 196.101562 287.226562 C 191.699219 289.429688 187.007812 290.09375 182.664062 292.265625 C 181.945312 292.625 183.601562 293.898438 181.828125 294.785156 L 179.726562 295.203125 L 180.566406 296.882812 C 179.792969 298.429688 178.191406 296.464844 177.625 296.464844 L 173.847656 300.242188 L 173.007812 305.28125 C 171.886719 307.523438 170.722656 309.851562 169.648438 312 L 166.289062 313.679688 C 165.5625 315.136719 166.222656 317.175781 165.449219 318.71875 L 165.449219 327.117188 C 165.449219 343.5 170.507812 352.957031 185.1875 360.292969 C 188.640625 362.019531 197.605469 362.902344 201.140625 361.132812 L 206.179688 356.09375 C 208.347656 356.09375 214.367188 365.019531 222.140625 361.132812 L 231.375 356.933594 L 237.257812 351.054688 C 238.363281 350.5 239.390625 351.40625 240.195312 349.796875 C 242.691406 344.804688 243.730469 339.367188 246.074219 334.679688 L 246.074219 326.28125 C 246.492188 325.441406 248.703125 325.65625 247.753906 323.757812 L 245.234375 320.398438 L 245.234375 314.523438 C 244.0625 312.179688 242.527344 310.785156 241.035156 307.804688 L 240.195312 301.085938 C 239.234375 299.160156 237.773438 299.664062 236.414062 298.984375 L 235.996094 296.046875 C 235.441406 294.9375 231.964844 292.558594 231.375 292.265625 L 220.460938 289.746094 C 217.648438 288.339844 214.152344 289.953125 212.0625 288.90625 C 208.648438 287.199219 214.164062 287.019531 212.898438 286.386719 Z M 199.882812 286.386719 "/>
<path style=" stroke:none;fill-rule:nonzero;fill:rgb(92.156863%,34.117648%,100%);fill-opacity:1;" d="M 201.5625 319.980469 C 201.5625 323.058594 203.242188 321.390625 203.242188 322.921875 L 200.722656 324.601562 C 199.925781 326.191406 204.527344 330.046875 206.179688 329.21875 C 214.488281 325.0625 206.242188 319.980469 201.5625 319.980469 Z M 201.5625 319.980469 "/>
</g>
</svg>
