<svg xmlns="http://www.w3.org/2000/svg" xmlns:xlink="http://www.w3.org/1999/xlink" height="512" width="512">
<g>
<rect width="512" height="512" fill="#000000"  stroke-width="0" /> 
<path  fill-rule="evenodd" fill="#FFFF00" stroke-width="0" stroke="#FFFF00" d = " M206 219 L203,222.5 C205.371,227.241 209.263,229 213.5,229 L217.5,234 C221.294,234 230.182,233.841 234.5,236 237.512,237.506 245.522,240.989 249.5,239 252.659,237.421 255.421,235.539 258.5,234 261.367,232.567 281,227.962 281,224.5 281,222.31 275.758,223 274.5,223 270.558,223 259.459,226.48 256.5,225 249.763,221.631 232.103,226.802 228.5,225 224.71,223.105 219.182,224.841 215.5,223 L206,219  M290 206 C290,209.746 292.091,206 290,206  M173 169 C173,170.462 162,177.22 162,181.5 L165.5,192 C169.815,192 173,178.347 173,175.5 L177,172.5 C177,170.261 175.135,169 173,169  M199 156 C199,158.091 202.746,156 199,156  M196 156 C196,163.856 185.948,171.604 183,177.5 179.69,184.119 180.307,192.885 177,199.5 175.287,202.925 173.969,212.735 176.5,214 179.021,215.26 189.663,208.175 191,205.5 195.401,196.698 194,182.654 194,174.5 194,173.267 198,163.133 198,162.5 L196,161.5 C195.081,159.662 201.085,156 196,156  M213 142 C213,145.71 209,145.748 209,148.5 209,149.837 212.926,152.647 212,154.5 208.307,161.886 204.655,169.19 201,176.5 200.161,178.178 200.919,185 203.5,185 206.017,185 207.061,177.378 208,175.5 L210,174.5 C210,173.7 213.666,167.417 216.5,166 234.626,156.937 233.891,157 255.5,157 L265.5,157 L279,164.5 L280,169.5 C285.341,180.181 296,189.139 296,199.5 296,202.272 304.227,213.137 308.5,211 314.187,208.156 308.005,185.505 304.5,182 301.718,179.218 295.633,177.766 295,176.5 L288,168.5 C288,164.003 285.983,156.466 283,150.5 281.762,148.023 277.132,147.765 277,147.5 276.604,146.709 274.003,142.251 273.5,142 270.332,140.416 259.202,141.649 256.5,143 254.601,143.95 240.346,141.077 232.5,145 L227.5,142 L213,142  M238 112 C238,113.359 234.529,112.971 233.5,114 231.263,116.237 214.674,124.847 217,129.5 220.028,135.557 241.494,130.003 245.5,128 245.762,127.869 266.584,132.458 269.5,131 275.564,127.968 265,124.874 265,122.5 L267,121.5 L262.5,121 L260.5,117 L257.5,117 L256.5,113 L249,114 C244.857,114 242.481,112 238,112  M207 198 C209.98,198 211.598,182.951 217.5,180 222.219,177.641 226.835,175.332 231.5,173 236.499,170.501 244.494,172.003 250.5,169 255.331,166.584 280.222,173.944 283,179.5 288.609,190.717 283.027,185.736 280.5,187 L280.5,192 L284.5,190 L284.5,208 C283.724,208 280.881,207.691 279.5,207 L277.5,204 L275.5,206 C274.952,206 273.9,204 272.5,204 L270.5,206 L267.5,203 C265.899,203 263.245,204 261.5,204 L258.5,202 L256.5,204 C255.796,204 251.987,200 251.5,200 249.834,200 244.939,199.781 242.5,201 L241.5,203 L238.5,201 L236.5,203 L233.5,201 L231.5,203 L224.5,202 L223.5,205 L222.5,203 C220.212,201.856 220.3,205 219.5,205 L215.5,202 L211.5,203 L210.5,200 L207,201 C207,203.409 205.723,202.055 205,203.5 205,203.5 206,213.5 206,213.5 206,213.5 203,213.5 203,213.5 202.584,214.332 198.605,224.71 199,225.5 201.967,231.435 205.603,231.051 211.5,234 211.5,234 212.5,238 212.5,238 219.356,238 229.658,239.579 236.5,243 240.608,245.054 248.794,242 252.5,242 260.212,242 274.976,236.262 283.5,232 283.5,232 292,223.5 292,223.5 292.353,222.794 290.275,207.112 292.5,206 295.028,204.736 293.298,211.399 294.5,212 297.786,213.643 296.679,216.09 298.5,217 298.5,217 303.5,218 303.5,218 304.883,218.691 302.479,221.489 305.5,223 311.823,226.162 315.993,220.515 318,216.5 319.907,212.686 316.549,202.598 315,199.5 313.193,195.886 314.865,190.231 313,186.5 313,186.5 311,186.5 311,186.5 308.721,181.942 306.317,177.134 304,172.5 304,172.5 300,168.5 300,168.5 300,168.5 299.5,166 299.5,166 298.321,166 296,167.679 296,166.5 296,166.5 297,163.5 297,163.5 297,163.5 292,158.5 292,158.5 290.382,155.263 290.656,150.812 289,147.5 286.505,142.51 281.409,140.909 278,137.5 278,137.5 274,135.5 274,135.5 274,135.5 278,133.5 278,133.5 279.628,130.245 279.598,120.697 278,117.5 277.293,116.086 274.618,117.118 273.5,116 268.751,111.251 264.584,107.042 258.5,104 258.5,104 255,105 255,105 242.38,105 231.418,104.541 220.5,110 210.189,115.155 213.724,130.051 211,135.5 211,135.5 205,138.5 205,138.5 205,138.5 200.5,146 200.5,146 190.419,146 195.893,155.304 188.5,159 184.309,161.095 185.352,151 184.5,151 179.65,151 166.178,164.143 162,172.5 158.443,179.613 137.562,193.062 145,200.5 147.278,202.778 146.518,203 148.5,203 148.5,203 151.5,210 151.5,210 151.5,210 152.5,207 152.5,207 152.5,207 160.5,210 160.5,210 162.754,208.873 166.279,204 168.5,204 170.144,204 168,210.944 168,211.5 168,220.239 168.678,222 175.5,222 175.5,222 178.5,223 178.5,223 185.182,219.659 187.815,216.87 192,208.5 192,208.5 195,206.5 195,206.5 195,206.5 196,201.5 196,201.5 196,201.5 198,201.5 198,201.5 198,201.5 198.5,196 198.5,196 198.5,196 200.5,199 200.5,199 200.556,199.028 206.523,198 207,198  M207 192 C205.601,192 205.601,194 207,194 209.936,194 207,182.959 207,192  Z"/>

<path  fill="#00FFFF" stroke-width="0" stroke="#00FFFF" d = " M238 112 C238,113.359 234.529,112.971 233.5,114 231.263,116.237 214.674,124.847 217,129.5 220.028,135.557 241.494,130.003 245.5,128 245.762,127.869 266.584,132.458 269.5,131 275.564,127.968 265,124.874 265,122.5 L267,121.5 L262.5,121 L260.5,117 L257.5,117 L256.5,113 L249,114 C244.857,114 242.481,112 238,112  Z"/>

<path  fill-rule="evenodd" fill="#FFFF00" stroke-width="0" stroke="#FFFF00" d = " M155 162 L152,166.5 C152,171.763 161.898,162 155,162  M170 142 C170,145.443 162.742,143.379 159.5,145 L156.5,148 L149.5,149 L143.5,156 L138.5,157 L138,159.5 L131,166.5 C129.464,169.572 130.931,189.216 134.5,191 137.775,192.637 143.683,184.908 145.5,184 151.571,180.964 165,169.021 165,162.5 165,161.097 169.56,160.38 170,159.5 171.887,155.727 173.947,153.606 175,151.5 176.241,149.017 172.149,142 170,142  Z"/>

<path  fill="#00FFFF" stroke-width="0" stroke="#00FFFF" d = " M213 142 C213,145.71 209,145.748 209,148.5 209,149.837 212.926,152.647 212,154.5 208.307,161.886 204.655,169.19 201,176.5 200.161,178.178 200.919,185 203.5,185 206.017,185 207.061,177.378 208,175.5 L210,174.5 C210,173.7 213.666,167.417 216.5,166 234.626,156.937 233.891,157 255.5,157 L265.5,157 L279,164.5 L280,169.5 C285.341,180.181 296,189.139 296,199.5 296,202.272 304.227,213.137 308.5,211 314.187,208.156 308.005,185.505 304.5,182 301.718,179.218 295.633,177.766 295,176.5 L288,168.5 C288,164.003 285.983,156.466 283,150.5 281.762,148.023 277.132,147.765 277,147.5 276.604,146.709 274.003,142.251 273.5,142 270.332,140.416 259.202,141.649 256.5,143 254.601,143.95 240.346,141.077 232.5,145 L227.5,142 L213,142  Z"/>

<path  fill="#00FFFF" stroke-width="0" stroke="#00FFFF" d = " M196 156 C196,163.856 185.948,171.604 183,177.5 179.69,184.119 180.307,192.885 177,199.5 175.287,202.925 173.969,212.735 176.5,214 179.021,215.26 189.663,208.175 191,205.5 195.401,196.698 194,182.654 194,174.5 194,173.267 198,163.133 198,162.5 L196,161.5 C195.081,159.662 201.085,156 196,156  Z"/>

<path  fill="#00FFFF" stroke-width="0" stroke="#00FFFF" d = " M199 156 C199,158.091 202.746,156 199,156  Z"/>

<path  fill="#FFFF00" stroke-width="0" stroke="#FFFF00" d = " M306 158 C306,176.668 310.11,177.72 318,193.5 320.303,198.107 329.891,202.719 333,196.5 334.939,192.621 328.542,190.416 330,187.5 331.325,184.851 326.59,182.321 328,179.5 328.972,177.556 329.673,173 327.5,173 L324.5,174 C323.158,174 313.706,158 306,158  Z"/>

<path  fill="#00FFFF" stroke-width="0" stroke="#00FFFF" d = " M155 162 L152,166.5 C152,171.763 161.898,162 155,162  Z"/>

<path  fill="#00FFFF" stroke-width="0" stroke="#00FFFF" d = " M173 169 C173,170.462 162,177.22 162,181.5 L165.5,192 C169.815,192 173,178.347 173,175.5 L177,172.5 C177,170.261 175.135,169 173,169  Z"/>

<path  fill-rule="evenodd" fill="#00FFFF" stroke-width="0" stroke="#00FFFF" d = " M265 188 C265,195.389 267.111,188 265,188  M274 186 C274,188.043 274.868,193.764 277,189.5 L276.5,187 L275.5,189 L274,186  M272 186 C272,195.211 274.105,186 272,186  M207 198 C209.98,198 211.598,182.951 217.5,180 222.219,177.641 226.835,175.332 231.5,173 236.499,170.501 244.494,172.003 250.5,169 255.331,166.584 280.222,173.944 283,179.5 288.609,190.717 283.027,185.736 280.5,187 L280.5,192 L284.5,190 L284.5,208 C283.724,208 280.881,207.691 279.5,207 L277.5,204 L275.5,206 C274.952,206 273.9,204 272.5,204 L270.5,206 L267.5,203 C265.899,203 263.245,204 261.5,204 L258.5,202 L256.5,204 C255.796,204 251.987,200 251.5,200 249.834,200 244.939,199.781 242.5,201 L241.5,203 L238.5,201 L236.5,203 L233.5,201 L231.5,203 L224.5,202 L223.5,205 L222.5,203 C220.212,201.856 220.3,205 219.5,205 L215.5,202 L211.5,203 L210.5,200 L207,201 C207,201 207,198 207,198  Z"/>

<path  fill="#FFFF00" stroke-width="0" stroke="#FFFF00" d = " M272 186 C272,195.211 274.105,186 272,186  Z"/>

<path  fill="#FFFF00" stroke-width="0" stroke="#FFFF00" d = " M274 186 C274,188.043 274.868,193.764 277,189.5 L276.5,187 L275.5,189 L274,186  Z"/>

<path  fill="#00FFFF" stroke-width="0" stroke="#00FFFF" d = " M207 192 L207,194 C209.936,194 207,182.959 207,192  Z"/>

<path  fill="#FFFF00" stroke-width="0" stroke="#FFFF00" d = " M265 188 C265,195.389 267.111,188 265,188  Z"/>

<path  fill="#00FFFF" stroke-width="0" stroke="#00FFFF" d = " M206 219 L203,222.5 C205.371,227.241 209.263,229 213.5,229 L217.5,234 C221.294,234 230.182,233.841 234.5,236 237.512,237.506 245.522,240.989 249.5,239 252.659,237.421 255.421,235.539 258.5,234 261.367,232.567 281,227.962 281,224.5 281,222.31 275.758,223 274.5,223 270.558,223 259.459,226.48 256.5,225 249.763,221.631 232.103,226.802 228.5,225 224.71,223.105 219.182,224.841 215.5,223 L206,219  Z"/>

<path  fill-rule="evenodd" fill="#9953FF" stroke-width="0" stroke="#9953FF" d = " M261 327 C261,328.988 267.711,336 269.5,336 L271.5,333 C272.266,332.617 275,333.316 275,331.5 275,329.393 267.508,328 266,328 L261,327  M220 335 L216,339 C216,339 208.5,341 208.5,341 198.426,335.963 177.549,330.597 172,319.5 170.149,315.798 165,316.02 165,311 170.015,311 171,311.747 171,305 171,305 173.5,303 173.5,303 182.553,298.473 174.919,297.662 178,291.5 179.599,288.303 191.186,268.873 189,264.5 188.262,263.025 185,258.718 185,258 185,256.676 194.093,254.704 195.5,254 206.273,248.613 187.872,246 184,246 184,246 190,241.5 190,241.5 193.095,235.31 206.822,238.161 212.5,241 212.5,241 218.5,241 218.5,241 221.644,242.572 225.554,246.027 229.5,248 233.487,249.993 236.953,247 241.5,247 242.69,247 246,246.386 246,248 242.581,248 246.035,251 244.5,251 243.41,251 241.956,246.272 238.5,248 238.5,248 238.5,251 238.5,251 234.143,253.178 232,249.75 227.5,252 222.51,254.495 225.753,259.993 224,263.5 224,263.5 221,267.5 221,267.5 221,267.5 221.5,269 221.5,269 221.5,269 218,269.5 218,269.5 218,269.5 221.5,270 221.5,270 221.5,270 225,273.5 225,273.5 225,273.5 225,277.5 225,277.5 225.594,278.688 228.945,278.39 230,280.5 230,280.5 230.5,287 230.5,287 233.37,288.435 236.473,286 239.5,286 245.751,286 252.144,287.678 257.5,285 257.5,285 264,277.5 264,277.5 264,277.5 264.5,275 264.5,275 270.505,275 268,273.479 268,268.5 268,268.5 270,267.5 270,267.5 270,265.063 265.539,265.579 265,264.5 262.687,259.873 267,259.096 267,257.5 267,257.498 261.769,253.134 261.5,253 261.5,253 259,252.5 259,252.5 259,252.5 261,251.5 261,251.5 261,251.5 257,251 257,251 255.351,251 248,249.053 248,247 250.36,247 255.205,249.648 256.5,249 256.5,249 265.5,242 265.5,242 267.031,241.234 292.049,235.775 294.5,237 296.748,238.124 298,242.479 298,245 298,245 293,245.5 293,245.5 292.572,246.355 290.64,252 293,252 293,252 297,256 297,256 297,256 297,257 297,257 297,258.791 293.73,259.959 295,262.5 295,262.5 300,267.5 300,267.5 300,277.243 306.578,278.655 311,287.5 313.02,291.54 310.772,297.045 312,299.5 314.224,303.948 319.755,304 324,304 324,305.229 318.985,312 325,312 325,316.403 317.259,316.982 315,321.5 306.868,337.765 285.266,337 269,337 269,337 261.5,331 261.5,331 261.5,331 255,328 255,328 257.261,328 261.35,325.925 257.5,324 257.5,324 250.5,324 250.5,324 248.317,322.908 250.31,320 246,320 246,318.249 246.47,306.015 244.5,307 244.5,307 244,321 244,321 244,321 240.5,320 240.5,320 238.595,320.952 230.281,328 228.5,328 227.477,328 219.134,327.683 218.5,328 213.297,330.601 214.935,335 220,335  Z"/>

<path  fill="#FA8072" stroke-width="0" stroke="#FA8072" d = " M324 304 C324,305.229 318.985,312 325,312 332.607,312 342.66,286.82 339,279.5 332.251,266.003 314.88,245 298,245 298,247.696 293,248.847 293,252 293,252 297,256 297,256 297,256 298,256 298,256 314.25,256 325.562,269.624 332,282.5 335.111,288.722 331.705,304 324,304  Z"/>

<path  fill="#FA8072" stroke-width="0" stroke="#FA8072" d = " M171 305 C171,311.747 170.015,311 165,311 165,311 158.5,307 158.5,307 154.406,304.953 149.871,296.242 148,292.5 147.103,290.706 148.338,287.824 149,286.5 149,286.5 149,278.5 149,278.5 154.36,267.781 164.32,256.59 175.5,251 178.29,249.605 180.712,246 184,246 187.872,246 206.273,248.613 195.5,254 194.093,254.704 185,256.676 185,258 183.577,258 181.456,256.022 179.5,257 177.426,258.037 157.175,277.15 156,279.5 150.909,289.683 160.747,305 171,305  Z"/>

<path  fill-rule="evenodd" fill="#EB57FF" stroke-width="0" stroke="#EB57FF" d = " M244 270 L243,272 C243,280.776 249.355,270 244,270  M248 247 L246,248 C242.581,248 246.035,251 244.5,251 243.41,251 241.956,246.272 238.5,248 238.5,248 238.5,251 238.5,251 234.143,253.178 232,249.75 227.5,252 222.51,254.495 225.753,259.993 224,263.5 224,263.5 221,267.5 221,267.5 221,267.5 221.5,269 221.5,269 221.5,269 218,269.5 218,269.5 218,269.5 221.5,270 221.5,270 221.5,270 225,273.5 225,273.5 225,273.5 225,277.5 225,277.5 225.594,278.688 228.945,278.39 230,280.5 230,280.5 230.5,287 230.5,287 233.37,288.435 236.473,286 239.5,286 245.751,286 252.144,287.678 257.5,285 257.5,285 264,277.5 264,277.5 264,277.5 264.5,275 264.5,275 270.505,275 268,273.479 268,268.5 268,268.5 270,267.5 270,267.5 270,265.063 265.539,265.579 265,264.5 262.687,259.873 267,259.096 267,257.5 267,257.498 261.769,253.134 261.5,253 261.5,253 259,252.5 259,252.5 259,252.5 261,251.5 261,251.5 261,251.5 257,251 257,251 255.351,251 248,249.053 248,247  Z"/>

<path  fill="#5BF1FF" stroke-width="0" stroke="#5BF1FF" d = " M297 257 C297,258.791 293.73,259.959 295,262.5 L300,267.5 C300,277.243 306.578,278.655 311,287.5 313.02,291.54 310.772,297.045 312,299.5 314.224,303.948 319.755,304 324,304 331.705,304 335.111,288.722 332,282.5 325.562,269.624 314.25,256 298,256 298,256 297,257 297,257  Z"/>

<path  fill="#5BF1FF" stroke-width="0" stroke="#5BF1FF" d = " M185 258 C183.577,258 181.456,256.022 179.5,257 177.426,258.037 157.175,277.15 156,279.5 150.909,289.683 160.747,305 171,305 171,305 173.5,303 173.5,303 182.553,298.473 174.919,297.662 178,291.5 179.599,288.303 191.186,268.873 189,264.5 188.262,263.025 185,258.718 185,258  Z"/>

<path  fill="#27F4FD" stroke-width="0" stroke="#27F4FD" d = " M244 270 L243,272 C243,280.776 249.355,270 244,270  Z"/>

<path  fill="#4196FF" stroke-width="0" stroke="#4196FF" d = " M244 322 L244,328 C247.221,328 246,322.625 246,320 246,318.249 246.47,306.015 244.5,307 244.5,307 244,321 244,321 244,321 244,322 244,322  Z"/>

<path  fill="#00F60E" stroke-width="0" stroke="#00F60E" d = " M224 333 L220,335 C214.935,335 213.297,330.601 218.5,328 219.134,327.683 227.477,328 228.5,328 230.281,328 238.595,320.952 240.5,320 240.5,320 244,321 244,321 244,321 244,322 244,322 242.413,322 242.413,328 244,328 247.221,328 246,322.625 246,320 250.31,320 248.317,322.908 250.5,324 250.5,324 257.5,324 257.5,324 261.35,325.925 257.261,328 255,328 252.293,328 249.097,329 247,329 244.591,329 241.819,330 240,330 240,330 231,330 231,330 231,330 230,331 230,331 230,331 228,331 228,331 226.952,331 225,330.527 225,332 225,332 224,333 224,333  Z"/>

<path  fill="#9953FF" stroke-width="0" stroke="#9953FF" d = " M244 322 C242.413,322 242.413,328 244,328 244,328 244,322 244,322  Z"/>

<path  fill="#00F60E" stroke-width="0" stroke="#00F60E" d = " M261 327 C261,328.988 267.711,336 269.5,336 L271.5,333 C272.266,332.617 275,333.316 275,331.5 275,329.393 267.508,328 266,328 L261,327  Z"/>

<path  fill="#FF3427" stroke-width="0" stroke="#FF3427" d = " M246 331 C246,338.019 265.32,349.861 270,340.5 L269,337 C269,337 261.5,331 261.5,331 261.5,331 255,328 255,328 252.293,328 249.097,329 247,329 247,329 246,331 246,331  Z"/>

<path  fill="#9953FF" stroke-width="0" stroke="#9953FF" d = " M242 331 L246,331 C246,331 247,329 247,329 244.591,329 241.819,330 240,330 240,330 242,331 242,331  Z"/>

<path  fill="#9953FF" stroke-width="0" stroke="#9953FF" d = " M231 330 L230,331 C230,331 231,330 231,330  Z"/>

<path  fill="#FF3427" stroke-width="0" stroke="#FF3427" d = " M220 335 L216,339 C216,349.093 242,340.94 242,331 242,331 240,330 240,330 240,330 231,330 231,330 231,330 230,331 230,331 230,331 228,331 228,331 228,332.473 226.048,332 225,332 225,332 224,333 224,333 224,333 220,335 220,335  Z"/>

<path  fill="#9953FF" stroke-width="0" stroke="#9953FF" d = " M228 331 C226.952,331 225,330.527 225,332 226.048,332 228,332.473 228,331  Z"/>

<path  fill="#9953FF" stroke-width="0" stroke="#9953FF" d = " M225 332 L224,333 C224,333 225,332 225,332  Z"/>

</g>
</svg>
