<svg xmlns="http://www.w3.org/2000/svg" xmlns:xlink="http://www.w3.org/1999/xlink" height="512" width="512">
<g>
<rect width="512" height="512" fill="#000000"  stroke-width="0" /> 
<path  fill="#CED307" stroke-width="0" stroke="#CED307" d = " M283 149 C283,154.273 292.561,149 283,149  Z"/>

<path  fill="#CED307" stroke-width="0" stroke="#CED307" d = " M292 152 C292,156.699 286.362,151.775 285,154.5 281.436,161.628 308.207,159.353 297.5,154 L295.5,154 L292,152  Z"/>

<path  fill="#FF8700" stroke-width="0" stroke="#FF8700" d = " M236 179 C236,181.088 239.924,189.348 241,191.5 242.767,195.033 241.534,208.431 240,211.5 L241,214.5 C241,225.291 239.235,242.031 235,250.5 232.638,255.225 235.335,262.829 233,267.5 L228,271.5 C225.589,276.322 221.567,277 217,277 206.376,277 197.945,260.39 194,252.5 188.644,241.788 185.294,230.089 180,219.5 180,219.5 178,201.5 178,201.5 176.576,198.653 174.11,191.281 176,187.5 178.787,181.926 181.234,176.032 184,170.5 184,170.5 186.5,170 186.5,170 196.97,164.765 193.33,160 209,160 211.355,160 219,159.771 219,163 219,166.796 210.164,164 208,164 202.377,164 205.558,167.471 202.5,169 201.182,169.659 199.96,168.581 199,170.5 195.505,177.491 204.043,178.271 207.5,180 207.5,180 211.5,184 211.5,184 215.149,185.825 216.814,175.343 219.5,174 220.788,173.356 232.003,179 235,179 235,179 236,179 236,179  Z"/>

<path  fill-rule="evenodd" fill="#FF8700" stroke-width="0" stroke="#FF8700" d = " M282 166 L276,170.5 L274,177.5 C272.115,181.27 275.119,190.691 280.5,188 283.022,186.739 289.681,183.137 291,180.5 294.291,173.918 289.182,166 282,166  M253 187 L251,189.5 L248,198.5 C246.428,201.644 251.355,216.79 249,221.5 247.264,224.973 250.727,228.047 249,231.5 246.036,237.428 246.022,246.544 249,252.5 255.56,265.62 254.04,279 274,279 274,277.2 277.017,278.483 278,277.5 280.802,274.698 286.475,273.551 289,268.5 295.643,255.214 301.355,241.79 308,228.5 310.21,224.081 307.79,216.919 310,212.5 311.23,210.04 315.271,194.042 314,191.5 311.387,186.274 313.576,178.652 311,173.5 310.969,173.438 295.308,162.404 294.5,162 290.28,159.89 271,162.83 271,168 271,168 273,171.5 273,171.5 271.945,173.61 271.501,172 270.5,172 270.5,172 266.5,178 266.5,178 266.5,178 260.5,179 260.5,179 260.5,179 253,187 253,187  Z"/>

<path  fill="#0F6DE6" stroke-width="0" stroke="#0F6DE6" d = " M219 163 C229.253,163 235,168.674 235,179 232.003,179 220.788,173.356 219.5,174 216.814,175.343 215.149,185.825 211.5,184 211.5,184 207.5,180 207.5,180 204.043,178.271 195.505,177.491 199,170.5 199.96,168.581 201.182,169.659 202.5,169 205.558,167.471 202.377,164 208,164 210.164,164 219,166.796 219,163  Z"/>

<path  fill="#0F6DE6" stroke-width="0" stroke="#0F6DE6" d = " M282 166 L276,170.5 L274,177.5 C272.115,181.27 275.119,190.691 280.5,188 283.022,186.739 289.681,183.137 291,180.5 294.291,173.918 289.182,166 282,166  Z"/>

<path  fill="#0F6DE6" stroke-width="0" stroke="#0F6DE6" d = " M252 185 L253,187 C253,187 260.5,179 260.5,179 260.5,179 266.5,178 266.5,178 266.5,178 270.5,172 270.5,172 271.501,172 271.945,173.61 273,171.5 273,171.5 271,168 271,168 259.983,168 252,173.209 252,185  Z"/>

<path  fill="#FFE300" stroke-width="0" stroke="#FFE300" d = " M217 277 L219.5,279 C222.712,279 235.395,277.71 237,274.5 239.881,268.738 238.315,259.871 240,256.5 240.443,255.614 241.121,251.31 242.5,252 245.833,253.666 247.998,270.496 250,274.5 253.193,280.885 274,284.251 274,279 254.04,279 255.56,265.62 249,252.5 246.022,246.544 246.036,237.428 249,231.5 250.727,228.047 247.264,224.973 249,221.5 251.355,216.79 246.428,201.644 248,198.5 248,198.5 251,189.5 251,189.5 251,189.5 253,187 253,187 253,187 252,185 252,185 252,185 245.5,194 245.5,194 245.5,194 240,182.5 240,182.5 239.614,181.728 236,176.524 236,179 236,181.088 239.924,189.348 241,191.5 242.767,195.033 241.534,208.431 240,211.5 240,211.5 241,214.5 241,214.5 241,225.291 239.235,242.031 235,250.5 232.638,255.225 235.335,262.829 233,267.5 233,267.5 228,271.5 228,271.5 225.589,276.322 221.567,277 217,277  Z"/>

<path  fill="#FA8072" stroke-width="0" stroke="#FA8072" d = " M188 282 C188,291.295 194.398,282 188,282  Z"/>

<path  fill="#30DA00" stroke-width="0" stroke="#30DA00" d = " M324 282 C324,283.728 316.89,285.305 315.5,286 311.22,288.14 313.988,290.524 313,292.5 L312,295.5 C314.054,299.607 321.223,296 322.5,296 L324.5,298 C324.594,298 335.864,290.773 336,290.5 L335,287.5 C335.479,286.543 336.644,282.572 335.5,282 L324,282  Z"/>

<path  fill="#FA8072" stroke-width="0" stroke="#FA8072" d = " M192 286 C192,289.746 194.091,286 192,286  Z"/>

<path  fill="#30DA00" stroke-width="0" stroke="#30DA00" d = " M169 287 C169,289.994 159.959,293.417 163,299.5 163.849,301.198 164.849,299 165.5,299 L167.5,302 C172.098,304.299 182.407,303 186.5,303 188.469,303 186.454,292.977 184.5,292 181.82,290.66 178.515,290.507 175.5,289 L176,287.5 C176,287.188 170.04,287 169,287  Z"/>

<path  fill="#FA8072" stroke-width="0" stroke="#FA8072" d = " M190 308 C190,313.567 192.112,308 190,308  Z"/>

<path  fill="#FA8072" stroke-width="0" stroke="#FA8072" d = " M286 369 C286,369.974 281.781,371.937 281,373.5 279.47,376.559 282,381.982 282,384.5 282,386.103 279.884,389.268 281,391.5 282.69,394.881 285.98,394.74 288.5,396 L289.5,402 L295.5,400 L301.5,402 L301.5,394 L304.5,397 C307.903,398.701 324.419,394.337 321,387.5 320.773,387.046 311.45,378.475 310.5,378 L304.5,377 L302,378.5 L302,373.5 C298.516,366.532 295.545,371 291.5,371 289.905,371 288.245,369 286,369  Z"/>

<path  fill="#FA8072" stroke-width="0" stroke="#FA8072" d = " M195 373 L191,376.5 C188.884,378.616 187.591,385 183.5,385 180.628,385 178.73,383.385 175.5,385 172.241,386.629 172.341,392.817 171,395.5 170.732,396.035 165.52,396.459 164,399.5 161.052,405.397 176.079,405.71 177.5,405 L177,398.5 L181.5,395 C185.904,392.798 199.181,400 201.5,400 202.93,400 204.778,398 206.5,398 209.532,398 209.786,400.857 213.5,399 221.153,395.173 207.438,393.624 210,388.5 L214,384.5 C214.929,382.642 210.506,382.512 210,381.5 L211,378.5 C207.895,372.291 200.811,373 195,373  Z"/>

</g>
</svg>
