<svg xmlns="http://www.w3.org/2000/svg" xmlns:xlink="http://www.w3.org/1999/xlink" height="512" width="512">
<g>
<rect width="512" height="512" fill="#000000"  stroke-width="0" /> 
<path  fill-rule="evenodd" fill="#FFFF00" stroke-width="0" stroke="#FFFF00" d = " M401 199 C401,201.456 397,201.887 397,203.5 L398.5,209 L399.5,205 C401.632,205 400.249,210.126 402.5,209 407.74,206.38 405.516,199 401,199  M390 198 C390,203.567 392.112,198 390,198  M379 215 C379,216.251 383.427,216.536 384.5,216 390.987,212.756 399.011,212 404.5,212 L405,209.5 L408,204.5 C409.963,200.575 406.549,190.597 405,187.5 L403,187.5 C400.014,181.528 406.092,173.685 403,167.5 L400,158.5 C397.671,153.843 392.684,147.869 390,142.5 387.91,138.32 386.676,139 383.5,139 L382.5,135 C380.812,135 380.661,136.08 378.5,135 L376.5,131 C373.983,129.742 372.264,133 370.5,133 L368.5,130 L361.5,123 L360.5,120 C355.885,120 351.97,118.735 346.5,116 342.118,113.809 335.895,121.697 330.5,119 L321.5,110 C319.228,108.864 317.383,112 315.5,112 L313.5,110 L305.5,110 L302.5,107 L300,107.5 C299.348,106.195 299.069,100 296.5,100 295.226,100 292.797,101.649 291.5,101 286.541,98.5206 280.564,94.0642 277,90.5 L272.5,85 C266.396,81.9478 255.692,82.5961 252.5,81 250.05,79.7748 243.342,78.0792 241.5,79 233.441,83.0296 221.7,78.9 213.5,83 L213.5,85 C208.211,87.6444 204.575,88.3501 202,93.5 L198,96.5 L200,98.5 C200,101.128 196.762,101.976 196,103.5 L195.5,108 C193.621,108.94 193.894,103 191.5,103 L190.5,105 C188.218,106.141 184.782,105.859 182.5,107 L179.5,111 C176.683,112.409 164.038,118 163.5,118 161.3,118 157.705,123 156.5,123 154.359,123 153.19,116 150.5,116 145.54,116 143.055,118 139.5,118 L134.5,123 C132.023,123 121.229,132.043 120,134.5 L116,135.5 L115.5,145 C112.901,145 112.164,139.668 109.5,141 L107.5,145 C100.208,148.646 97.2112,154.078 94,160.5 L91,161.5 C88.6584,166.183 89.1173,172.265 87,176.5 84.6348,181.23 79.8112,192.122 83,198.5 L91,206.5 L92,211.5 C92.3999,212.3 93.9056,210.311 95,212.5 96.4087,215.317 99.4275,213.964 101.5,215 101.862,215.181 104,220.791 104,218 104,213.331 101.953,208.405 100,204.5 98.4416,201.383 102.012,194.525 101,192.5 100.647,191.793 97.5474,187.024 97.5,187 93.8029,185.151 90.1304,192.761 90,192.5 88.7396,189.979 90,189.57 90,187.5 90,185.829 86.6181,184.264 88,181.5 88.9591,179.582 89.1014,177.297 90,175.5 90,175.5 96,170.5 96,170.5 96,170.5 95,168.5 95,168.5 95,168.5 100,163.5 100,163.5 101.11,161.279 106.069,152 108.5,152 109.935,152 110.484,155.531 110,156.5 108.02,160.459 108,166.281 108,171 108,174.679 110.533,174.566 112,177.5 115.388,184.275 110.438,212.375 114,219.5 115.038,221.576 122.383,218.559 123.5,218 132.917,213.292 137.005,197.51 133,189.5 133,189.5 128,182.5 128,182.5 126.721,179.942 128,171.787 128,169.5 128,165.185 133.953,150.405 133,148.5 129.753,142.005 122.199,149.898 119,143.5 116.163,137.826 128.452,135.596 129,134.5 129.561,133.378 140.692,124 141.5,124 142.9,124 143.952,126 144.5,126 145.671,126 144.127,121.813 146.5,123 148.456,123.978 150.358,126.784 149,129.5 149,129.5 143,137.5 143,137.5 139.624,144.253 143,154.001 143,161 143,164.321 141.246,182.127 147.5,179 161.311,172.095 160,153.424 160,141 160,138.319 157.408,132.684 159,129.5 160.783,125.934 163.887,126.307 164.5,126 166.03,125.235 164.219,122.141 166.5,121 170.471,119.014 171.859,119.821 175.5,118 179.223,116.139 180.726,111 185.5,111 185.5,111 185.5,119 185.5,119 185.5,119 184.5,117 184.5,117 184.5,117 184,119.5 184,119.5 184,119.5 181,123.5 181,123.5 179.809,125.882 178.155,124.173 176.5,125 176.5,125 176,129.5 176,129.5 176,129.5 173,131.5 173,131.5 168.584,140.332 173.675,152.149 171,157.5 165.896,167.708 161.117,178.265 156,188.5 154.102,192.296 150.268,200.384 155.5,203 157.699,204.099 174.027,190.447 175,188.5 180.47,177.561 181.501,164.497 187,153.5 189.569,148.362 184.71,141.08 187,136.5 188.792,132.916 198.685,118.407 201.5,117 201.5,117 207.5,112 207.5,112 207.5,112 221.5,106 221.5,106 226.3,103.6 233.803,106.348 238.5,104 240.211,103.145 245.317,101.909 247.5,103 253.798,106.149 263.203,102.852 269.5,106 269.693,106.097 269.889,109 272.5,109 272.5,109 273,105.5 273,105.5 273,105.5 270.5,105 270.5,105 270.5,105 266.5,100 266.5,100 264.216,100 259.351,102.426 256.5,101 254.574,100.037 262,100.054 262,99.5 262,99.5 246.5,98 246.5,98 246.5,98 247.5,96 247.5,96 247.5,96 214.5,96 214.5,96 210.969,94.2345 214.988,88.2561 217.5,87 221.608,84.9462 226.002,85 231,85 235.596,85 244.762,81.631 249.5,84 252.214,85.3572 255.855,84.6774 258.5,86 258.5,86 259.5,88 259.5,88 264.011,88 273.572,89.6437 276,94.5 278.052,98.6048 278.55,102.6 280,105.5 280,105.5 283,107.5 283,107.5 283,107.5 280,108.5 280,108.5 280,108.5 283.5,109 283.5,109 283.5,109 284.5,106 284.5,106 284.5,106 285.5,109 285.5,109 285.5,109 287.5,108 287.5,108 290.829,109.665 287.752,114.003 289,116.5 290.946,120.391 295.164,124.828 297,128.5 299.214,132.928 295.512,143.525 297,146.5 298.494,149.489 297.535,153.57 299,156.5 301.03,160.56 302.929,164.357 305,168.5 308.794,176.088 303.172,185.836 315.5,192 318.175,193.337 322.606,199 325.5,199 331.145,199 328.772,190.045 327,186.5 321.583,175.667 319.383,163.266 314,152.5 311.323,147.145 314.787,139.074 312,133.5 312,133.5 312,128.5 312,128.5 309.237,122.974 307.015,123.471 310,117.5 310,117.5 311.5,115 311.5,115 312.85,115 315.305,117 317.5,117 317.5,117 318.5,119 318.5,119 318.5,119 319.5,117 319.5,117 319.791,117 324.894,118.697 325.5,119 327.428,119.964 328.147,133.205 327,135.5 322.613,144.275 323.291,166.895 335.5,173 335.571,173.035 340.686,173.127 341,172.5 341,172.5 340,162.5 340,162.5 341.421,159.658 343.735,139.971 342,136.5 340.746,133.992 337.286,128.929 339,125.5 339.74,124.021 347.075,122 348.5,122 350.103,122 353.314,125 354.5,125 359.903,125 368.707,130.086 365,137.5 363.897,139.705 354,139.602 354,145.5 354,152.834 361.205,170.09 358,176.5 355.984,180.532 350.524,180.452 349,183.5 343.83,193.84 349.985,206.243 359.5,211 359.5,211 362.5,214 362.5,214 372.669,214 372,185.522 372,175 372,175 371,164.5 371,164.5 372.741,161.018 373.811,167.878 378,159.5 381.07,153.361 371.209,145.082 374,139.5 375.257,136.986 380.807,140.113 382,142.5 382,142.5 382,145.5 382,145.5 382,145.5 387,148.5 387,148.5 387,148.5 388,153.5 388,153.5 388,153.5 390,153.5 390,153.5 390,153.5 390,156.5 390,156.5 390.564,157.628 394.369,159.238 396,162.5 397.116,164.731 402.292,171.916 401,174.5 396.279,183.942 390.577,166.462 385.5,169 383.737,169.882 384,180.223 384,182.5 384,182.5 382,202.5 382,202.5 382,202.5 378,206.5 378,206.5 376.716,209.068 379,212.986 379,215  Z"/>

<path  fill-rule="evenodd" fill="#00FFFF" stroke-width="0" stroke="#00FFFF" d = " M408 249 C408,254.567 410.112,249 408,249  M422 240 C422,244.123 426.123,240 422,240  M88 236 C88,243.389 90.1106,236 88,236  M250 223 C250,227.123 254.123,223 250,223  M247 220 C247,225.06 252.06,220 247,220  M238 220 C238,221.812 236,221.87 236,222.5 236,224.991 240.423,223.461 241.5,224 L242.5,226 C245.527,227.514 246.972,222.443 246,220.5 245.929,220.359 238.821,220 238,220  M234 142 C234,143.614 230.69,143 229.5,143 224.347,143 219.739,142.881 215.5,145 203.11,151.195 201.44,160.62 196,171.5 195.037,173.426 187.836,178.172 189,180.5 191.479,185.459 204.76,184.13 210.5,187 217.982,190.741 222.77,188.365 229.5,185 231.913,183.794 235.042,184.229 237.5,183 243.639,179.93 262.994,184.247 268.5,187 272.105,188.802 287.098,182.201 291.5,180 295.904,177.798 289.183,169.866 288,167.5 283.141,157.782 280.805,144 265.5,144 256.25,144 243.998,142 234,142  M233 113 C233,117.057 220.221,116.64 217.5,118 214.382,119.559 195.432,135.365 199,142.5 200.221,144.943 207.996,141 211,141 L225.5,136 C228.615,134.443 240.798,135 244,135 257.116,135 267.918,137.209 279.5,143 L289,142.5 C289.951,140.597 285.782,136.064 285,134.5 282.235,128.971 281.813,126.156 275.5,123 L273.5,120 L269.5,120 L267.5,117 L260.5,117 C252.174,112.837 245.656,113 233,113  M276 107 C276,110.746 278.091,107 276,107  M274 105 C274,110.567 276.112,105 274,105  M411 252 L408.5,254 L402.5,247 L396.5,245 C390.189,241.844 377.325,245.412 370.5,242 367.826,240.663 357.798,235.904 356,239.5 352.889,245.722 361.635,244.769 362,245.5 366.06,253.619 389.245,251.872 397.5,256 399.882,257.191 411,254.416 411,258.5 411,259.576 412,262.094 412,263.5 412,271.232 393.536,267.018 389.5,265 382.923,261.711 377.432,263 370.5,263 368.53,263 363.419,261.339 362,258.5 L361.5,252 L359,253 C359,237.873 337.407,243.453 332.5,241 332.5,241 320.5,237 320.5,237 319.541,236.52 316,235.429 316,237 316,237 310,234 310,234 310,234 309,233 309,233 309,231.814 308,231.814 308,233 302.408,233 297.51,230 291,230 291,230 289,230 289,230 289,230 288,229 288,229 288,229 285,229 285,229 285,229 284,230 284,230 284,230 283,230 283,230 283,230 282,229 282,229 277.644,229 276.072,232 276,232 276,232 273,230 273,230 273,227.925 272.868,222 269.5,222 269.5,222 269,225.5 269,225.5 269,225.5 265,234.5 265,234.5 263.172,238.157 252.727,239.887 250.5,241 244.779,243.861 231.846,240.173 227.5,238 227.5,238 218.5,227 218.5,227 215.181,225.34 215,230.154 215,232 215,232 212,232 212,232 212,228.286 210.256,229 207,229 207,229 206,229 206,229 206,229 205,229 205,229 205,229 203,229 203,229 201.468,229 202.05,228 200,228 200,228 199,228 199,228 199,228 198,228 198,228 198,228 197,228 197,228 195.322,228 189,225.045 189,230 189,230 187,230 187,230 184.997,230 184,229.707 184,232 184,232 183,232 183,232 183,232 182,233 182,233 180.378,233 177,232.539 177,235 177,235 170,237 170,237 165.141,237 153.915,241.292 148.5,244 148.5,244 141.5,244 141.5,244 137.404,246.048 134.38,252 129,252 129,249.158 125.978,251.544 125,253.5 124.007,255.485 123.81,263 120.5,263 114.481,263 105.513,258 98.5,258 98.5,258 96.5,255 96.5,255 96.5,255 94.5,258 94.5,258 94.5,258 92.5,257 92.5,257 91.7928,257 79.9314,266.363 77,260.5 74.0769,254.654 81.8246,250.838 85.5,249 91.7846,245.858 112.982,251.259 125.5,245 128.405,243.547 134.899,242.297 133,238.5 132.042,236.585 128.642,239 128,239 128,239 113.5,240 113.5,240 113.5,240 112.5,244 112.5,244 109.922,245.289 107.692,242 105.5,242 99.6622,242 85.9951,244.248 83.5,243 83.5,243 81.5,237 81.5,237 76.7502,234.625 70.4454,243.973 62.5,240 62.5,240 58,236.5 58,236.5 58,230.004 66.1414,231.179 70.5,229 70.5,229 75.5,223 75.5,223 75.5,223 87.5,221 87.5,221 87.5,221 88.5,223 88.5,223 90.1208,223 93.0228,221.261 94.5,222 98.7141,224.107 96.1127,232 102.5,232 102.5,232 103.5,230 103.5,230 105.422,229.039 112.17,229.841 110,225.5 110,225.5 108,224 108,224 108,222.016 106.556,218 104,218 104,213.331 101.953,208.405 100,204.5 98.4416,201.383 102.012,194.525 101,192.5 100.647,191.793 97.5474,187.024 97.5,187 93.8029,185.151 90.1304,192.761 90,192.5 88.7396,189.979 90,189.57 90,187.5 90,185.829 86.6181,184.264 88,181.5 88.9591,179.582 89.1014,177.297 90,175.5 90,175.5 96,170.5 96,170.5 96,170.5 95,168.5 95,168.5 95,168.5 100,163.5 100,163.5 101.11,161.279 106.069,152 108.5,152 109.935,152 110.484,155.531 110,156.5 108.02,160.459 108,166.281 108,171 108,174.679 110.533,174.566 112,177.5 115.388,184.275 110.438,212.375 114,219.5 115.038,221.576 122.383,218.559 123.5,218 132.917,213.292 137.005,197.51 133,189.5 133,189.5 128,182.5 128,182.5 126.721,179.942 128,171.787 128,169.5 128,165.185 133.953,150.405 133,148.5 129.753,142.005 122.199,149.898 119,143.5 116.163,137.826 128.452,135.596 129,134.5 129.561,133.378 140.692,124 141.5,124 142.9,124 143.952,126 144.5,126 145.671,126 144.127,121.813 146.5,123 148.456,123.978 150.358,126.784 149,129.5 149,129.5 143,137.5 143,137.5 139.624,144.253 143,154.001 143,161 143,164.321 141.246,182.127 147.5,179 161.311,172.095 160,153.424 160,141 160,138.319 157.408,132.684 159,129.5 160.783,125.934 163.887,126.307 164.5,126 166.03,125.235 164.219,122.141 166.5,121 170.471,119.014 171.859,119.821 175.5,118 179.223,116.139 180.726,111 185.5,111 185.5,111 185.5,119 185.5,119 185.5,119 184.5,117 184.5,117 184.5,117 184,119.5 184,119.5 184,119.5 181,123.5 181,123.5 179.809,125.882 178.155,124.173 176.5,125 176.5,125 176,129.5 176,129.5 176,129.5 173,131.5 173,131.5 168.584,140.332 173.675,152.149 171,157.5 165.896,167.708 161.117,178.265 156,188.5 154.102,192.296 150.268,200.384 155.5,203 157.699,204.099 174.027,190.447 175,188.5 180.47,177.561 181.501,164.497 187,153.5 189.569,148.362 184.71,141.08 187,136.5 188.792,132.916 198.685,118.407 201.5,117 201.5,117 207.5,112 207.5,112 207.5,112 221.5,106 221.5,106 226.3,103.6 233.803,106.348 238.5,104 240.211,103.145 245.317,101.909 247.5,103 253.798,106.149 263.203,102.852 269.5,106 269.693,106.097 269.889,109 272.5,109 272.5,109 273,105.5 273,105.5 273,105.5 270.5,105 270.5,105 270.5,105 266.5,100 266.5,100 264.216,100 259.351,102.426 256.5,101 254.574,100.037 262,100.054 262,99.5 262,99.5 246.5,98 246.5,98 246.5,98 247.5,96 247.5,96 247.5,96 214.5,96 214.5,96 210.969,94.2345 214.988,88.2561 217.5,87 221.608,84.9462 226.002,85 231,85 235.596,85 244.762,81.631 249.5,84 252.214,85.3572 255.855,84.6774 258.5,86 258.5,86 259.5,88 259.5,88 264.011,88 273.572,89.6437 276,94.5 278.052,98.6048 278.55,102.6 280,105.5 280,105.5 283,107.5 283,107.5 283,107.5 280,108.5 280,108.5 280,108.5 283.5,109 283.5,109 283.5,109 284.5,106 284.5,106 284.5,106 285.5,109 285.5,109 285.5,109 287.5,108 287.5,108 290.829,109.665 287.752,114.003 289,116.5 290.946,120.391 295.164,124.828 297,128.5 299.214,132.928 295.512,143.525 297,146.5 298.494,149.489 297.535,153.57 299,156.5 301.03,160.56 302.929,164.357 305,168.5 308.794,176.088 303.172,185.836 315.5,192 318.175,193.337 322.606,199 325.5,199 331.145,199 328.772,190.045 327,186.5 321.583,175.667 319.383,163.266 314,152.5 311.323,147.145 314.787,139.074 312,133.5 312,133.5 312,128.5 312,128.5 309.237,122.974 307.015,123.471 310,117.5 310,117.5 311.5,115 311.5,115 312.85,115 315.305,117 317.5,117 317.5,117 318.5,119 318.5,119 318.5,119 319.5,117 319.5,117 319.791,117 324.894,118.697 325.5,119 327.428,119.964 328.147,133.205 327,135.5 322.613,144.275 323.291,166.895 335.5,173 335.571,173.035 340.686,173.127 341,172.5 341,172.5 340,162.5 340,162.5 341.421,159.658 343.735,139.971 342,136.5 340.746,133.992 337.286,128.929 339,125.5 339.74,124.021 347.075,122 348.5,122 350.103,122 353.314,125 354.5,125 359.903,125 368.707,130.086 365,137.5 363.897,139.705 354,139.602 354,145.5 354,152.834 361.205,170.09 358,176.5 355.984,180.532 350.524,180.452 349,183.5 343.83,193.84 349.985,206.243 359.5,211 359.5,211 362.5,214 362.5,214 372.669,214 372,185.522 372,175 372,175 371,164.5 371,164.5 372.741,161.018 373.811,167.878 378,159.5 381.07,153.361 371.209,145.082 374,139.5 375.257,136.986 380.807,140.113 382,142.5 382,142.5 382,145.5 382,145.5 382,145.5 387,148.5 387,148.5 387,148.5 388,153.5 388,153.5 388,153.5 390,153.5 390,153.5 390,153.5 390,156.5 390,156.5 390.564,157.628 394.369,159.238 396,162.5 397.116,164.731 402.292,171.916 401,174.5 396.279,183.942 390.577,166.462 385.5,169 383.737,169.882 384,180.223 384,182.5 384,182.5 382,202.5 382,202.5 382,202.5 378,206.5 378,206.5 376.716,209.068 379,212.986 379,215 376.198,215 378,219.107 378,220 369.159,220 385.303,235.599 392.5,232 396.772,229.864 384.582,224.336 386,221.5 387.055,219.39 387.499,221 388.5,221 389.04,221 395.109,215.804 399.5,218 401.616,219.058 399.644,220.572 400.5,221 405.976,223.738 410.365,225.433 415.5,228 417.33,228.915 413.466,232.517 412.5,233 406.589,235.956 398.222,239.861 410.5,246 417.585,249.542 424.736,232.029 427,227.5 428.586,224.328 435.031,227.562 436,229.5 438.63,234.76 436.702,244.399 431.5,247 425.598,249.951 419.749,248 414,248 413.034,248 411,250.886 411,252  Z"/>

<path  fill="#FFFF00" stroke-width="0" stroke="#FFFF00" d = " M274 105 C274,110.567 276.112,105 274,105  Z"/>

<path  fill="#FFFF00" stroke-width="0" stroke="#FFFF00" d = " M276 107 C276,110.746 278.091,107 276,107  Z"/>

<path  fill="#FFFF00" stroke-width="0" stroke="#FFFF00" d = " M233 113 C233,117.057 220.221,116.64 217.5,118 214.382,119.559 195.432,135.365 199,142.5 200.221,144.943 207.996,141 211,141 L225.5,136 C228.615,134.443 240.798,135 244,135 257.116,135 267.918,137.209 279.5,143 L289,142.5 C289.951,140.597 285.782,136.064 285,134.5 282.235,128.971 281.813,126.156 275.5,123 L273.5,120 L269.5,120 L267.5,117 L260.5,117 C252.174,112.837 245.656,113 233,113  Z"/>

<path  fill-rule="evenodd" fill="#FFFF00" stroke-width="0" stroke="#FFFF00" d = " M243 165 C243,167.076 234,165.88 234,169.5 L240,171 C243.928,171 247.698,171.401 250.5,170 255.542,167.479 252.703,165 248,165 L243,165  M234 142 C234,143.614 230.69,143 229.5,143 224.347,143 219.739,142.881 215.5,145 203.11,151.195 201.44,160.62 196,171.5 195.037,173.426 187.836,178.172 189,180.5 191.479,185.459 204.76,184.13 210.5,187 217.982,190.741 222.77,188.365 229.5,185 231.913,183.794 235.042,184.229 237.5,183 243.639,179.93 262.994,184.247 268.5,187 272.105,188.802 287.098,182.201 291.5,180 295.904,177.798 289.183,169.866 288,167.5 283.141,157.782 280.805,144 265.5,144 256.25,144 243.998,142 234,142  Z"/>

<path  fill="#00FFFF" stroke-width="0" stroke="#00FFFF" d = " M243 165 C243,167.076 234,165.88 234,169.5 L240,171 C243.928,171 247.698,171.401 250.5,170 255.542,167.479 252.703,165 248,165 L243,165  Z"/>

<path  fill="#00FFFF" stroke-width="0" stroke="#00FFFF" d = " M401 199 C401,201.456 397,201.887 397,203.5 L398.5,209 L399.5,205 C401.632,205 400.249,210.126 402.5,209 407.74,206.38 405.516,199 401,199  Z"/>

<path  fill="#FFFF00" stroke-width="0" stroke="#FFFF00" d = " M85 209 C85,212.479 89.3651,209 85,209  Z"/>

<path  fill-rule="evenodd" fill="#FFFF00" stroke-width="0" stroke="#FFFF00" d = " M430 257 C430,264.389 432.111,257 430,257  M434 256 C434,262.072 438.238,256 434,256  M429 252 C429,255.479 432.479,252 429,252  M411 252 L408.5,254 L402.5,247 L396.5,245 C390.189,241.844 377.325,245.412 370.5,242 367.826,240.663 357.798,235.904 356,239.5 352.889,245.722 361.635,244.769 362,245.5 366.06,253.619 389.245,251.872 397.5,256 399.882,257.191 411,254.416 411,258.5 411,259.576 412,262.094 412,263.5 412,271.232 393.536,267.018 389.5,265 382.923,261.711 377.432,263 370.5,263 368.53,263 363.419,261.339 362,258.5 L361.5,252 L359,253 C359,255.651 359.667,266 362.5,266 364.961,266 378.778,265.139 380.5,266 384.891,268.196 395.11,273 402.5,273 402.698,273 415.618,264.264 416,263.5 416.458,262.583 414.979,255.74 417.5,257 423.055,259.778 421.877,266.688 424.5,268 427.991,269.745 438.921,263.658 441,259.5 443.106,255.287 440.903,250.305 439,246.5 439,246.5 441,242.5 441,242.5 443.47,237.56 439.779,231.058 438,227.5 437.341,226.182 438.419,224.96 436.5,224 423.601,217.55 419.229,231.729 409,221.5 409,221.5 406,220.5 406,220.5 398.925,206.351 385.355,220 378,220 369.159,220 385.303,235.599 392.5,232 396.772,229.864 384.582,224.336 386,221.5 387.055,219.39 387.499,221 388.5,221 389.04,221 395.109,215.804 399.5,218 401.616,219.058 399.644,220.572 400.5,221 405.976,223.738 410.365,225.433 415.5,228 417.33,228.915 413.466,232.517 412.5,233 406.589,235.956 398.222,239.861 410.5,246 417.585,249.542 424.736,232.029 427,227.5 428.586,224.328 435.031,227.562 436,229.5 438.63,234.76 436.702,244.399 431.5,247 425.598,249.951 419.749,248 414,248 414,248 414,253.5 414,253.5 413.203,255.094 411,253.023 411,252  Z"/>

<path  fill-rule="evenodd" fill="#FFFF00" stroke-width="0" stroke="#FFFF00" d = " M58 251 C58,254.746 60.0912,251 58,251  M76 249 L75,250.5 C75,254.243 79.368,249 76,249  M50 245 C50,248.12 51.3936,245.287 52,246.5 L52,251.5 L53.5,250 C54.3003,250 54.2123,253.144 56.5,252 61.3652,249.567 52.3304,245 50,245  M71 258 L72,259 C72,259 78.5,268 78.5,268 78.5,268 81.5,267 81.5,267 81.5,267 82.5,270 82.5,270 82.5,270 83.5,268 83.5,268 84.1631,267.668 90.1108,267 90.5,267 90.5,267 91.5,269 91.5,269 92.4604,269 93.7419,266 96.5,266 96.5,266 97.5,261 97.5,261 97.5,261 102,263 102,263 106.93,263 112.409,262.955 116.5,265 117.772,265.636 120.879,268.81 122.5,268 122.5,268 125,262.5 125,262.5 126.692,259.116 129,257.15 129,252 129,249.158 125.978,251.544 125,253.5 124.007,255.485 123.81,263 120.5,263 114.481,263 105.513,258 98.5,258 98.5,258 96.5,255 96.5,255 96.5,255 94.5,258 94.5,258 94.5,258 92.5,257 92.5,257 91.7928,257 79.9314,266.363 77,260.5 74.0769,254.654 81.8246,250.838 85.5,249 91.7846,245.858 112.982,251.259 125.5,245 128.405,243.547 134.899,242.297 133,238.5 132.042,236.585 128.642,239 128,239 128,239 113.5,240 113.5,240 113.5,240 112.5,244 112.5,244 109.922,245.289 107.692,242 105.5,242 99.6622,242 85.9951,244.248 83.5,243 83.5,243 81.5,237 81.5,237 76.7502,234.625 70.4454,243.973 62.5,240 62.5,240 58,236.5 58,236.5 58,230.004 66.1414,231.179 70.5,229 70.5,229 75.5,223 75.5,223 75.5,223 87.5,221 87.5,221 87.5,221 88.5,223 88.5,223 90.1208,223 93.0228,221.261 94.5,222 98.7141,224.107 96.1127,232 102.5,232 102.5,232 103.5,230 103.5,230 105.422,229.039 112.17,229.841 110,225.5 110,225.5 108,224 108,224 106.336,224 106.019,226 103.5,226 103.364,226 100.414,219 99.5,219 96.0431,219 87.6136,212.443 82.5,215 80.0573,216.221 77.9739,217.263 74.5,219 71.4336,220.533 71.2328,225.634 68.5,227 64.5901,228.955 59.4154,229.042 55.5,231 52.2872,232.606 53.2082,236.084 52,238.5 51.1042,240.292 44.5908,241.682 47,246.5 47,246.5 49,246.5 49,246.5 49,246.5 49.5,251 49.5,251 49.5,251 51,250.5 51,250.5 51,250.5 50,254.5 50,254.5 51.1585,256.817 64.284,256 66.5,256 66.5,256 70.5,253 70.5,253 72.0874,253.794 71,257.347 71,258  Z"/>

<path  fill="#46A515" stroke-width="0" stroke="#46A515" d = " M412 217 L411,219.5 C414.408,226.317 421.543,217 412,217  Z"/>

<path  fill="#46A515" stroke-width="0" stroke="#46A515" d = " M64 219 L62,223.5 C63.8459,227.192 73.439,219 64,219  Z"/>

<path  fill="#FFFF00" stroke-width="0" stroke="#FFFF00" d = " M238 220 C238,221.812 236,221.87 236,222.5 236,224.991 240.423,223.461 241.5,224 L242.5,226 C245.527,227.514 246.972,222.443 246,220.5 245.929,220.359 238.821,220 238,220  Z"/>

<path  fill="#FFFF00" stroke-width="0" stroke="#FFFF00" d = " M247 220 C247,225.06 252.06,220 247,220  Z"/>

<path  fill="#FFFF00" stroke-width="0" stroke="#FFFF00" d = " M273 230 C273,241.799 248.49,251.495 237.5,246 L231.5,246 L228.5,243 C224.312,240.906 215,238.033 215,232 215,230.154 215.181,225.34 218.5,227 218.5,227 227.5,238 227.5,238 231.846,240.173 244.779,243.861 250.5,241 252.727,239.887 263.172,238.157 265,234.5 265,234.5 269,225.5 269,225.5 269,225.5 269.5,222 269.5,222 272.868,222 273,227.925 273,230  Z"/>

<path  fill="#FFFF00" stroke-width="0" stroke="#FFFF00" d = " M250 223 C250,227.123 254.123,223 250,223  Z"/>

<path  fill="#9953FF" stroke-width="0" stroke="#9953FF" d = " M207 269 C200.33,269 195.626,278.437 190.5,281 L187.5,286 C186.169,286 184.274,285.951 183,288.5 180.992,292.517 178.532,298.984 174.5,301 L167,311 C167,310.757 157.203,294.906 156,292.5 154.18,288.859 160.534,281.431 162,278.5 162,278.5 162,267.5 162,267.5 162,267.5 167,262.5 167,262.5 167.087,262.325 165,252.253 165,250 166.445,250 170,238.924 170,237 170,237 177,235 177,235 178.901,235 182,235.612 182,233 182,233 183,232 183,232 183,233.186 184,233.186 184,232 184,229.707 184.997,230 187,230 187,233.654 189,233.654 189,230 189,225.045 195.322,228 197,228 197,229.186 198,229.186 198,228 198,228 199,228 199,228 199,229.186 200,229.186 200,228 202.05,228 201.468,229 203,229 203,230.399 205,230.399 205,229 205,229 206,229 206,229 206,230.186 207,230.186 207,229 210.256,229 212,228.286 212,232 212,232 212,233 212,233 210.209,233 209.041,229.73 206.5,231 196.571,235.965 212.414,255 218,255 218,256.474 209.147,269 207,269  Z"/>

<path  fill-rule="evenodd" fill="#9953FF" stroke-width="0" stroke="#9953FF" d = " M308 301 C308,306.574 311.145,301 308,301  M249 347 C249,344.302 253.255,345 255,345 260.347,345 266.439,345 271.5,345 L272,347 C272,347 276.5,345 276.5,345 279.735,343.383 288.221,348.139 292.5,346 301.316,341.592 309.716,336.392 318.5,332 324.161,329.169 327.907,322.797 333.5,320 338.784,317.358 353.857,295 343,295 343,296.985 341.375,308.063 339.5,309 337.515,309.993 335.942,307.779 333.5,309 333.26,309.12 324,315.801 324,312.5 324,312.5 332,289.5 332,289.5 332,285.283 325.922,278.344 324,274.5 321.58,269.66 324,262.897 324,258 324,248.762 316,239.229 316,237 316,237 310,234 310,234 310,234 309,233 309,233 309,231.814 308,231.814 308,233 308,239.724 299.429,232.464 296.5,231 295.207,230.354 291,232.968 291,230 291,230 289,230 289,230 289,230 288,229 288,229 288,229 285,229 285,229 285,229 284,230 284,230 284,230 283,230 283,230 283,230 282,229 282,229 277.644,229 276.072,232 276,232 276,232 276,234 276,234 278.099,234 280.383,230.442 283.5,232 283.5,232 283,234.5 283,234.5 286.966,242.431 280.297,243.906 277,250.5 277,250.5 270,256 270,256 270,260.266 277,260.726 277,266 277,266 282.5,272 282.5,272 286.142,273.821 303.502,292.505 305,295.5 306.463,298.426 307.15,301 305.5,301 305.5,301 304.5,303 304.5,303 304.5,303 297,294.5 297,294.5 294.981,290.463 282.573,280.073 279.5,277 277.348,274.848 276.526,269 273,269 268.19,269 258,262.618 258,258 257.348,258 255.905,261.297 254.5,262 252.212,263.144 252.3,260 251.5,260 251.5,260 248.5,261 248.5,261 244.77,259.135 249.417,256 248,256 248,256 241,256 241,256 240.227,256 242.867,259.317 239.5,261 238.844,261.328 231,261.794 231,258 228.849,258 231.545,259.409 231,260.5 231,260.5 226.5,265 226.5,265 223.494,266.503 219.41,266.545 216.5,268 213.021,269.739 210.6,274 207,274 207,275.168 197.282,283.936 196,286.5 193.1,292.299 175.11,310 172.5,310 169.905,310 168.886,316.693 165.5,315 163.897,314.198 166,312.847 166,312 161.707,312 152.47,313.44 150,308.5 148.998,306.496 146.615,296 144,296 144,296 145,308.5 145,308.5 154.239,326.978 192.931,347 214,347 214,343.744 223.736,340.618 226.5,342 226.5,342 229.5,346 229.5,346 229.5,346 239,346 239,346 239,346 245.5,343 245.5,343 245.5,343 249,347 249,347  Z"/>

<path  fill="#EB57FF" stroke-width="0" stroke="#EB57FF" d = " M231 257 L231,258 C231,261.794 238.844,261.328 239.5,261 242.867,259.317 240.227,256 241,256 241,253.136 239.263,252.882 237.5,252 236.1,251.3 234.503,249.002 232.5,248 232.5,248 218.5,248 218.5,248 215.553,246.527 212,236.275 212,233 210.209,233 209.041,229.73 206.5,231 196.571,235.965 212.414,255 218,255 218,255 219,254 219,254 219,254 221,253 221,253 221,253 222,252 222,252 224.762,252 230,250.678 230,256 230,256 231,257 231,257  Z"/>

<path  fill="#EB57FF" stroke-width="0" stroke="#EB57FF" d = " M258 256 L258,258 C257.348,258 255.905,261.297 254.5,262 252.212,263.144 252.3,260 251.5,260 251.5,260 248.5,261 248.5,261 244.77,259.135 249.417,256 248,256 248,256 251,252.5 251,252.5 255.26,243.98 263.23,251.635 270.5,248 272.495,247.002 276,235.968 276,234 278.099,234 280.383,230.442 283.5,232 283.5,232 283,234.5 283,234.5 286.966,242.431 280.297,243.906 277,250.5 277,250.5 270,256 270,256 270,256 267,253 267,253 267,253 266,252 266,252 263.824,252 259,251.652 259,255 259,255 258,256 258,256  Z"/>

<path  fill="#FFFF00" stroke-width="0" stroke="#FFFF00" d = " M88 236 C88,243.389 90.1106,236 88,236  Z"/>

<path  fill="#FFFF00" stroke-width="0" stroke="#FFFF00" d = " M422 240 C422,244.123 426.123,240 422,240  Z"/>

<path  fill="#00FFFF" stroke-width="0" stroke="#00FFFF" d = " M50 245 C50,248.12 51.3936,245.287 52,246.5 L52,251.5 L53.5,250 C54.3003,250 54.2123,253.144 56.5,252 61.3652,249.567 52.3304,245 50,245  Z"/>

<path  fill="#00FFFF" stroke-width="0" stroke="#00FFFF" d = " M76 249 L75,250.5 C75,254.243 79.368,249 76,249  Z"/>

<path  fill="#FFFF00" stroke-width="0" stroke="#FFFF00" d = " M408 249 C408,254.567 410.112,249 408,249  Z"/>

<path  fill="#FA8072" stroke-width="0" stroke="#FA8072" d = " M167 311 L166,312 C161.707,312 152.47,313.44 150,308.5 148.998,306.496 146.615,296 144,296 144,296 144,288.5 144,288.5 144,288.5 148,283.5 148,283.5 148,275.453 151.205,269.09 155,261.5 155,261.5 156,254.5 156,254.5 156.943,252.615 160.027,253.736 161.5,253 163.578,251.961 161.126,250 165,250 165,252.253 167.087,262.325 167,262.5 167,262.5 162,267.5 162,267.5 162,267.5 162,278.5 162,278.5 160.534,281.431 154.18,288.859 156,292.5 157.203,294.906 167,310.757 167,311  Z"/>

<path  fill="#00FFFF" stroke-width="0" stroke="#00FFFF" d = " M58 251 C58,254.746 60.0912,251 58,251  Z"/>

<path  fill="#FAF4F7" stroke-width="0" stroke="#FAF4F7" d = " M207 269 L207,274 C210.6,274 213.021,269.739 216.5,268 219.41,266.545 223.494,266.503 226.5,265 226.5,265 231,260.5 231,260.5 231.545,259.409 228.849,258 231,258 231,258 231,257 231,257 229.942,257 227.971,256 230,256 230,250.678 224.762,252 222,252 222,252 221,253 221,253 221,253 219,254 219,254 219,254 218,255 218,255 218,256.474 209.147,269 207,269  Z"/>

<path  fill="#9953FF" stroke-width="0" stroke="#9953FF" d = " M222 252 L221,253 C221,253 222,252 222,252  Z"/>

<path  fill="#FAF4F7" stroke-width="0" stroke="#FAF4F7" d = " M277 266 C275.283,266 273,267.252 273,269 268.19,269 258,262.618 258,258 258,258 258,256 258,256 258,256 259,255 259,255 259,251.652 263.824,252 266,252 266,252 267,253 267,253 267,253 270,256 270,256 270,260.266 277,260.726 277,266  Z"/>

<path  fill="#9953FF" stroke-width="0" stroke="#9953FF" d = " M266 252 L267,253 C267,253 266,252 266,252  Z"/>

<path  fill="#9953FF" stroke-width="0" stroke="#9953FF" d = " M219 254 L218,255 C218,255 219,254 219,254  Z"/>

<path  fill="#9953FF" stroke-width="0" stroke="#9953FF" d = " M259 255 L258,256 C258,256 259,255 259,255  Z"/>

<path  fill="#9953FF" stroke-width="0" stroke="#9953FF" d = " M230 256 L231,257 C229.942,257 227.971,256 230,256  Z"/>

<path  fill="#FA8072" stroke-width="0" stroke="#FA8072" d = " M324 258 L326.5,256 C332.873,259.186 343,286.965 343,295 343,296.985 341.375,308.063 339.5,309 337.515,309.993 335.942,307.779 333.5,309 333.26,309.12 324,315.801 324,312.5 324,312.5 332,289.5 332,289.5 332,285.283 325.922,278.344 324,274.5 321.58,269.66 324,262.897 324,258  Z"/>

<path  fill="#00FFFF" stroke-width="0" stroke="#00FFFF" d = " M434 256 C434,262.072 438.238,256 434,256  Z"/>

<path  fill="#00FFFF" stroke-width="0" stroke="#00FFFF" d = " M430 257 C430,264.389 432.111,257 430,257  Z"/>

<path  fill="#00FFFF" stroke-width="0" stroke="#00FFFF" d = " M71 258 L72,259 C72,259 71,258 71,258  Z"/>

<path  fill="#00B03F" stroke-width="0" stroke="#00B03F" d = " M277 266 L282.5,272 C286.142,273.821 303.502,292.505 305,295.5 306.463,298.426 307.15,301 305.5,301 L304.5,303 L297,294.5 C294.981,290.463 282.573,280.073 279.5,277 277.348,274.848 276.526,269 273,269 273,267.252 275.283,266 277,266  Z"/>

<path  fill="#00B03F" stroke-width="0" stroke="#00B03F" d = " M167 311 L166,312 C166,312.847 163.897,314.198 165.5,315 168.886,316.693 169.905,310 172.5,310 175.11,310 193.1,292.299 196,286.5 197.282,283.936 207,275.168 207,274 207,274 207,269 207,269 200.33,269 195.626,278.437 190.5,281 190.5,281 187.5,286 187.5,286 186.169,286 184.274,285.951 183,288.5 180.992,292.517 178.532,298.984 174.5,301 174.5,301 167,311 167,311  Z"/>

<path  fill="#46A515" stroke-width="0" stroke="#46A515" d = " M76 273 L74,275.5 C73.014,277.472 75.1069,278.286 74,280.5 73.3467,281.807 74.5063,285.997 76.5,285 L79.5,280 C83.3231,278.088 87.7887,286.923 90,282.5 91.7292,279.042 79.4644,273 76,273  Z"/>

<path  fill="#46A515" stroke-width="0" stroke="#46A515" d = " M409 276 L404,279.5 L407.5,283 C415.05,290.55 420.391,276 409,276  Z"/>

<path  fill="#46A515" stroke-width="0" stroke="#46A515" d = " M437 277 L436,280.5 C438.111,284.722 447.522,280.011 441.5,277 L437,277  Z"/>

<path  fill="#46A515" stroke-width="0" stroke="#46A515" d = " M82 283 L78.5,287 C81.8999,288.7 86.2504,283 82,283  Z"/>

<path  fill="#46A515" stroke-width="0" stroke="#46A515" d = " M385 284 C385,287.306 369.505,293.509 375,304.5 L379,307.5 L379,310.5 C382.217,316.935 394.759,314.019 397,318.5 403.341,331.182 384.721,334.889 378.5,338 377.691,338.405 368.511,341.005 368.5,341 358.752,336.126 367,335.886 367,329.5 367,323.684 353.152,324.674 350.5,326 346.442,328.029 350.682,336.182 352.5,338 L356,340.5 L352,345.5 L358.5,351 L362.5,351 C373.427,356.463 394.815,353.871 401,341.5 402.785,337.93 402.392,329.716 404,326.5 406.501,321.499 407.648,319.795 405,314.5 L406,307.5 C404.749,304.999 401.679,294.09 399.5,293 L394.5,292 C390.175,289.837 398.683,284 385,284  Z"/>

<path  fill="#46A515" stroke-width="0" stroke="#46A515" d = " M101 288 L99,289.5 C99,293.362 107.299,288 101,288  Z"/>

<path  fill="#46A515" stroke-width="0" stroke="#46A515" d = " M108 291 L107,292.5 C107,296.226 114.648,291 108,291  Z"/>

<path  fill="#46A515" stroke-width="0" stroke="#46A515" d = " M111 297 C111,300.141 111,303.346 111,307 111,307.833 108.699,310.1 110.5,311 114.644,313.072 118.069,297 111,297  Z"/>

<path  fill="#00B03F" stroke-width="0" stroke="#00B03F" d = " M308 301 C308,306.574 311.145,301 308,301  Z"/>

<path  fill="#46A515" stroke-width="0" stroke="#46A515" d = " M85 312 L82,316.5 L83,320.5 C78.8136,328.873 84.7972,346.149 92.5,350 L97.5,354 L104.5,354 L109,356 L113,355.5 C114.1,353.3 107.466,353.483 106.5,353 102.59,351.045 101.624,345.562 98.5,344 94.7655,342.133 92.3849,344.27 90,339.5 L88,329.5 C86.9483,327.397 82.1014,328.297 84,324.5 84.8082,322.884 90.3873,312 85,312  Z"/>

<path  fill="#46A515" stroke-width="0" stroke="#46A515" d = " M405 327 C405,330.746 407.091,327 405,327  Z"/>

<path  fill="#46A515" stroke-width="0" stroke="#46A515" d = " M122 331 L121,335.5 C122.562,338.623 128,334.549 128,332.5 128,330.374 123.211,331 122,331  Z"/>

<path  fill="#46A515" stroke-width="0" stroke="#46A515" d = " M134 336 C134,337.346 126.37,336.759 125,339.5 L129,343.5 C130.081,345.661 130.129,348.243 129,350.5 127.928,352.644 115.063,354.781 117.5,356 125.355,359.928 134.86,349.64 139,345.5 140.104,344.396 143.857,337.179 141.5,336 L139,337 L134,336  Z"/>

<path  fill="#FF3427" stroke-width="0" stroke="#FF3427" d = " M239 346 L229.5,346 L226.5,342 C223.736,340.618 214,343.744 214,347 214,355.071 239,355.752 239,346  Z"/>

<path  fill="#FF3427" stroke-width="0" stroke="#FF3427" d = " M249 347 C249,355.665 272,353.905 272,347 272,347 271.5,345 271.5,345 266.439,345 260.347,345 255,345 253.255,345 249,344.302 249,347  Z"/>

</g>
</svg>
