<svg xmlns="http://www.w3.org/2000/svg" xmlns:xlink="http://www.w3.org/1999/xlink" height="512" width="512">
<g>
<rect width="512" height="512" fill="#000000"  stroke-width="0" /> 
<path  fill="#FFE300" stroke-width="0" stroke="#FFE300" d = " M192 250 C192,253.362 194.442,252.971 196.5,254 197.71,254.605 197.488,256.994 199.5,258 L204.5,257 L209.5,254 C211.775,252.863 215.117,254.192 217.5,253 L227.5,253 C231.31,251.095 231.687,244.407 234.5,243 236.724,241.888 239.386,241.057 241.5,240 L242,217.5 C242,216.289 241.716,210.608 244.5,212 L246,235.5 C249.417,242.334 253.898,241.296 255,243.5 L255,248.5 C257.174,252.849 275.406,255 284.5,255 287.628,255 297,255.875 297,251 285.513,251 274.143,251.322 263.5,246 257.172,242.836 254,226.54 254,219.5 254,201.71 254.319,186.138 247,171.5 244.512,166.525 245.926,158.352 243,152.5 241.876,150.253 246,146.771 246,145 242.588,145 231.306,137.903 227.5,136 212.724,128.612 190.757,139.986 185,151.5 180.456,160.588 181.564,172.372 177,181.5 175.422,184.657 179.625,198.249 176,205.5 175.098,207.304 181.241,212.019 178,218.5 176.304,221.892 180.197,235.895 181,237.5 181.209,237.917 185.073,239.786 185.5,240 187.732,241.116 184.318,246 189,246 189,241.777 185,233.444 185,229.5 185,226.474 191.964,218.572 193,216.5 193,216.5 192,213.5 192,213.5 192.405,212.691 195.005,203.511 195,203.5 195,203.5 191,199.5 191,199.5 191,199.5 189,192.5 189,192.5 184.476,183.451 185.035,148.733 194.5,144 207.013,137.743 225.271,135.886 237.5,142 247.047,146.773 238.063,178.373 234,186.5 230.834,192.832 237.004,211.492 235,215.5 231.508,222.484 232.497,231.505 229,238.5 224.769,246.961 212.007,249.247 204.5,253 204.5,253 201.5,252 201.5,252 201.5,252 197.5,254 197.5,254 197.5,254 192,250 192,250  Z"/>

<path  fill="#FFE300" stroke-width="0" stroke="#FFE300" d = " M253 140 C256.993,140 258.531,139.985 262.5,138 268.107,135.196 289.193,143.846 293.5,146 295.978,147.239 297.681,151.861 299,154.5 L303,159.5 C308.65,170.8 302.792,190.916 298,200.5 294.83,206.839 300.732,214.965 303,219.5 304.432,222.363 301,224.525 301,226.5 301,231.807 302,237.877 302,243 307.895,243 306.392,230.716 308,227.5 309.165,225.169 311.633,224.234 313,221.5 314.677,218.146 314.742,192.984 313,189.5 313,189.5 313,176.5 313,176.5 311.434,173.368 310.908,180.317 310,178.5 310,178.5 309,163.5 309,163.5 309,163.5 306,161.5 306,161.5 304.133,157.766 303.599,153.699 302,150.5 299.329,145.159 282,138.568 282,137.5 282,135.171 275.39,136 274,136 270.06,136 253,134.158 253,140  Z"/>

<path  fill="#FF8700" stroke-width="0" stroke="#FF8700" d = " M191 250 L192,250 C192,250 197.5,254 197.5,254 197.5,254 201.5,252 201.5,252 201.5,252 204.5,253 204.5,253 212.007,249.247 224.769,246.961 229,238.5 232.497,231.505 231.508,222.484 235,215.5 237.004,211.492 230.834,192.832 234,186.5 238.063,178.373 247.047,146.773 237.5,142 225.271,135.886 207.013,137.743 194.5,144 185.035,148.733 184.476,183.451 189,192.5 189,192.5 191,199.5 191,199.5 191,199.5 195,203.5 195,203.5 195.005,203.511 192.405,212.691 192,213.5 192,213.5 193,216.5 193,216.5 191.964,218.572 185,226.474 185,229.5 185,233.444 189,241.777 189,246 189,246 190,249 190,249 190,249 191,250 191,250  Z"/>

<path  fill="#FF8700" stroke-width="0" stroke="#FF8700" d = " M298 250 L297,251 C285.513,251 274.143,251.322 263.5,246 257.172,242.836 254,226.54 254,219.5 254,201.71 254.319,186.138 247,171.5 244.512,166.525 245.926,158.352 243,152.5 241.876,150.253 246,146.771 246,145 246,145 247,145 247,145 247,145 253,140 253,140 256.993,140 258.531,139.985 262.5,138 268.107,135.196 289.193,143.846 293.5,146 295.978,147.239 297.681,151.861 299,154.5 299,154.5 303,159.5 303,159.5 308.65,170.8 302.792,190.916 298,200.5 294.83,206.839 300.732,214.965 303,219.5 304.432,222.363 301,224.525 301,226.5 301,231.807 302,237.877 302,243 302,246.421 298,246.185 298,250  Z"/>

<path  fill="#FFE300" stroke-width="0" stroke="#FFE300" d = " M253 140 C249.488,140 247,141.258 247,145 247,145 253,140 253,140  Z"/>

<path  fill="#30DA00" stroke-width="0" stroke="#30DA00" d = " M399 232 C399,235.945 392.797,233.351 391.5,234 L390.5,237 C389.027,237 386.353,237.794 385,240.5 383.643,243.214 386.153,254.326 387.5,255 393.67,258.085 392.981,252 394.5,252 L396.5,254 L401.5,248 C412.727,248 413.552,232 399,232  Z"/>

<path  fill="#30DA00" stroke-width="0" stroke="#30DA00" d = " M77 246 C77,248.623 72.0314,250.563 74,254.5 75.3253,257.151 79.3944,256.947 81.5,258 L88.5,265 C91.0141,266.257 104,270.532 104,263.5 L102,259.5 L103,256.5 C98.4939,247.488 85.7655,246 77,246  Z"/>

<path  fill="#FFE300" stroke-width="0" stroke="#FFE300" d = " M190 249 L191,250 C191,250 190,249 190,249  Z"/>

<path  fill="#FFE300" stroke-width="0" stroke="#FFE300" d = " M298 250 L297,251 C297,251 298,250 298,250  Z"/>

<path  fill="#FA8072" stroke-width="0" stroke="#FA8072" d = " M305 362 C305,366.751 297.008,365.484 296,367.5 294.986,369.528 297,372.112 297,373.5 L293,377.5 L293,383.5 C293,395.668 299.737,389.118 303.5,391 307.248,392.874 313.324,397.088 319.5,394 325.612,390.944 322,382.95 322,378.5 322,376.897 324.116,373.732 323,371.5 321.101,367.703 309.553,362 305,362  Z"/>

<path  fill="#FA8072" stroke-width="0" stroke="#FA8072" d = " M182 364 L179,365.5 L176.5,370 C175.02,370.74 174.478,370.022 173,371.5 169.76,374.74 172.705,377.09 171,380.5 L166.5,382 C164.39,383.055 164.688,386.406 163.5,387 162.282,387.609 158.752,385.748 157,387.5 154.288,390.212 151.437,393.375 153,396.5 153.471,397.442 152.27,401 154.5,401 156.699,401 159.247,395.373 162.5,397 163.423,397.461 167.89,401 168.5,401 171.693,401 167.85,392 173.5,392 L177.5,395 L182.5,394 C186.487,394 192.434,396.033 196.5,394 198.301,393.1 196,390.833 196,390 L198,385.5 L195,383 L196,376.5 L193,373.5 L195,370.5 L194,368.5 C191.585,363.671 190.273,366 186.5,366 L182,364  Z"/>

<path  fill="#FA8072" stroke-width="0" stroke="#FA8072" d = " M327 382 C327,383.791 323.73,384.959 325,387.5 326.792,391.084 328.425,389 330.5,389 330.905,389 331.211,393.356 332.5,394 334,394.75 337.276,393.947 338,392.5 340.626,387.248 334.623,387 332.5,387 332.084,387 330.306,382 327,382  Z"/>

</g>
</svg>
