<svg xmlns="http://www.w3.org/2000/svg" xmlns:xlink="http://www.w3.org/1999/xlink" height="512" width="512">
<g>
<rect width="512" height="512" fill="#000000"  stroke-width="0" /> 
<path  fill-rule="evenodd" fill="#FFFF00" stroke-width="0" stroke="#FFFF00" d = " M119 210 C119,215.567 121.112,210 119,210  M364 171 C364,173.359 365.987,175.475 367,177.5 L368,183.5 C374.518,196.537 383.087,171 364,171  M362 169 C362,172.746 364.091,169 362,169  M288 159 C288,160.93 289.93,159 288,159  M331 158 C331,166.202 350.806,196.153 358.5,200 361.979,201.74 369.828,212.844 373,206.5 377.813,196.874 362.599,198.697 361,195.5 L360,187.5 C359.041,185.583 359.081,190 358.5,190 357.261,190 355.74,177 355.5,177 L354.5,179 L354,172.5 C352.884,170.269 350.977,165.238 348.5,164 347.502,163.501 345.097,163.694 345,163.5 L344.5,160 L343.5,163 L341.5,161 L339.5,162 L331,158  M146 158 C146,160.341 143.658,159.421 142.5,160 L137,166.5 C132.791,174.917 131.925,185.575 124.5,193 122.372,195.128 112.453,203.477 117.5,206 122.491,208.495 129.455,200.045 132.5,197 139.993,189.507 145.036,179.429 150,169.5 151.421,166.659 156.025,162.55 154,158.5 153.628,157.756 146.842,158 146,158  M282 156 C282,161.678 288.616,156 282,156  M235 145 C235,147.111 242.389,145 235,145  M232 145 C232,146.93 233.93,145 232,145  M173 145 C173,145.954 166.195,156.11 165,158.5 163.692,161.116 164.276,164.947 163,167.5 157.276,178.947 154.928,190.572 145,200.5 L132.5,212 C129.833,213.333 124.641,214.218 123,217.5 121.63,220.241 120.856,226.178 124.5,228 L129.5,230 L131.5,227 C135.658,224.921 138.89,221.61 142.5,218 153.387,207.113 171.809,186.883 178,174.5 180.035,170.43 189.653,161.806 187,156.5 186.218,154.936 183.515,156.47 183,157.5 182.113,159.274 176.21,170.919 173,164.5 170.309,159.118 184.113,145 173,145  M252 144 C252,145.93 253.93,144 252,144  M131 238 L131,239 C132.562,239 147.407,231.686 149,228.5 149,228.5 154.5,221 154.5,221 160.886,217.807 166.037,208.426 169,202.5 169,202.5 181,186.5 181,186.5 188.609,171.282 192.317,161.591 205.5,155 205.5,155 221.5,155 221.5,155 223.592,153.954 248.374,147.937 254.5,151 258.966,153.233 261.444,154 264.5,154 264.5,154 269.5,159 269.5,159 269.5,159 270.5,156 270.5,156 272.905,156 272.277,162.947 272,163.5 272,163.5 266,164 266,164 263.939,164 261.788,162 261.5,162 259.821,162 256.795,164.148 254.5,163 254.5,163 253.5,161 253.5,161 242.839,161 230.73,161 219.5,161 219.5,161 216.5,164 216.5,164 216.5,164 215.5,161 215.5,161 213.344,159.922 214.71,164 213,164 213,164 210,164 210,164 210,164 209,165 209,165 209,165 207,165 207,165 207,165 202,168.5 202,168.5 200.55,169.95 178.839,183 196.5,183 196.5,183 199.5,179 199.5,179 202.532,177.484 204.264,175 208,175 208,175 209,174 209,174 209,171.856 213.262,173.619 214.5,173 216.655,171.923 223.822,170.161 227.5,172 234.806,175.653 264.387,168.944 272.5,173 276.413,174.956 283.082,181.709 288.5,179 291.87,177.315 287.792,172.146 285.5,171 279.274,167.887 280.725,166.387 285.5,164 291.253,161.124 297.316,177.133 299,180.5 299,180.5 303,192.5 303,192.5 305.285,197.071 311.659,197.819 314,202.5 317.298,209.097 335.496,224 343.5,224 347.402,224 346.331,214.416 343.5,213 335,208.75 313.123,191.745 309,183.5 309,183.5 305,172.5 305,172.5 302.655,167.809 299.075,164.649 297,160.5 297,160.5 290,152.5 290,152.5 290,152.5 293.5,149 293.5,149 300.56,149 303.388,171.556 312.5,167 315.967,165.266 308.126,151.751 307,149.5 307,149.5 307.5,143 307.5,143 309.222,143 311.07,143 312.5,143 312.5,143 313,145.5 313,145.5 313.474,146.447 315.411,150.911 316.5,152 319.113,154.613 328.188,180.876 331,186.5 333.526,191.552 346.305,210.902 352.5,214 352.5,214 364.5,223 364.5,223 364.5,223 368,224.5 368,224.5 368,224.5 368,230 368,230 370.719,230 370.977,221.453 370,219.5 370,219.5 369.5,217 369.5,217 369.5,217 368.5,219 368.5,219 368.5,219 368.5,213 368.5,213 368.5,213 372.5,214 372.5,214 372.5,214 373.5,211 373.5,211 373.5,211 375,211.5 375,211.5 377.182,207.135 377.354,181.573 380.5,180 381.878,179.311 380,192.177 380,194.5 380,197.76 379,201.904 379,204.5 379,207.932 381.973,205.446 382,205.5 384.389,210.279 382.812,209 387.5,209 387.5,209 388,206.5 388,206.5 388,206.5 391,204.5 391,204.5 391,204.5 390,201.5 390,201.5 390,198.099 392.046,186.592 390,182.5 389.631,181.762 381.618,178.737 381,177.5 381,177.5 381,172.5 381,172.5 377.326,165.153 372.837,160.669 365.5,157 365.5,157 364.5,154 364.5,154 364.5,154 361.5,154 361.5,154 361.5,154 359.5,152 359.5,152 359.5,152 357.5,154 357.5,154 357.5,154 356.5,152 356.5,152 354.945,152 354.516,160.008 352.5,159 348.989,157.244 346.677,152.089 342.5,150 339.424,148.462 336.184,151.342 333.5,150 332.476,149.488 329.517,145 329.5,145 329.5,145 327.5,148 327.5,148 326.564,148.468 326.513,145.994 322.5,148 322.5,148 321.5,151 321.5,151 320.027,151 318.587,142.674 318,141.5 318,141.5 316.5,142 316.5,142 316.5,142 312.5,137 312.5,137 310.812,137 310.661,138.08 308.5,137 308.5,137 305.5,133 305.5,133 305.5,133 305,135.5 305,135.5 303.543,138.414 301.137,140.226 300,142.5 299.608,143.284 302.088,148 300.5,148 300.5,148 299,143.5 299,143.5 298.507,142.515 292.161,136.17 290.5,137 288.932,137.784 277,147.383 277,148.5 277,148.5 278,149.5 278,149.5 279.364,150.864 283.393,158 278.5,158 278.5,158 277.5,155 277.5,155 276.058,154.279 272.144,151 269.5,151 267.806,151 252.483,149.534 255,144.5 256.144,142.211 257.106,145.803 257.5,146 257.5,146 260.5,143 260.5,143 260.5,143 263,143.5 263,143.5 267.176,135.148 260.204,121.352 253.5,118 250.787,116.643 247.312,116.406 244.5,115 244.5,115 240.5,117 240.5,117 238.42,118.04 223.802,120.103 226,124.5 228.749,129.998 234.304,124.108 236,127.5 237.545,130.59 233,129.46 233,130.5 233,130.5 234,132.5 234,132.5 234,132.5 228,138.5 228,138.5 227.244,140.012 230.196,140.652 227.5,142 227.5,142 222,142.5 222,142.5 220.292,145.916 231,144.817 231,146.5 231,147.679 228.679,146 227.5,146 227.5,146 226.5,148 226.5,148 223.828,149.336 217.157,146.172 213.5,148 212.102,148.699 201.874,152 200.5,152 200.5,152 199.5,154 199.5,154 197.762,154 197.455,149 198.5,149 202.662,149 208.81,134.155 200.5,130 193.056,126.278 187.22,149 183.5,149 183.5,149 183,145.5 183,145.5 181.743,142.987 182.029,139.264 179.5,138 177.598,137.049 173.879,141 172.5,141 171.849,141 170.849,138.802 170,140.5 170,140.5 168,146.5 168,146.5 168,146.5 165,147.5 165,147.5 165,147.5 164.5,152 164.5,152 164.5,152 161.5,148 161.5,148 161.5,148 160.5,150 160.5,150 160.5,150 158.5,146 158.5,146 158.5,146 157.5,148 157.5,148 157.5,148 154.5,143 154.5,143 154.5,143 153.5,147 153.5,147 149.366,147 140.933,147.634 138,153.5 137.103,155.294 136.526,159.987 134.5,161 132.595,161.953 131.783,159.642 130.5,159 127.965,157.733 127.239,161 126.5,161 126.5,161 125.5,159 125.5,159 125.5,159 122.5,165 122.5,165 116.58,167.96 110.88,178.741 108,184.5 107.305,185.889 110.033,195 111.5,195 117.811,195 109.646,198.793 112,203.5 114.339,208.179 115.661,206.821 118,211.5 118,211.5 118,224.5 118,224.5 118,224.5 122,228.5 122,228.5 122,228.5 124.5,233 124.5,233 125.884,233 128.477,231.989 130.5,233 130.5,233 131,235 131,235 132.486,235 132.486,238 131,238  Z"/>

<path  fill="#FFFF00" stroke-width="0" stroke="#FFFF00" d = " M273 137 C273,138.555 260.233,146 272,146 L274.5,147 C277.945,147 275.049,137 273,137  Z"/>

<path  fill-rule="evenodd" fill="#00FFFF" stroke-width="0" stroke="#00FFFF" d = " M350 239 C350,240.93 351.93,239 350,239  M140 244 L141,244 C141,244 142,243 142,243 167.241,243 159.091,229.204 177.5,220 177.5,220 183.5,213 183.5,213 186.797,211.352 190.598,215.951 194.5,214 198.258,212.121 199.684,210 203.5,210 206.02,210 214.782,222 217.5,222 222.857,222 230.233,222 236.5,222 236.5,222 237.5,224 237.5,224 237.5,224 239.5,221 239.5,221 239.5,221 242.5,224 242.5,224 243.576,224.538 251.462,224.019 251.5,224 254.735,222.382 249.718,222 255.5,222 259.987,222 261.612,225.444 266.5,223 266.5,223 272,222.5 272,222.5 272,221.77 280.362,215.224 279,212.5 276.808,208.116 256.789,207.355 263.5,204 265.645,202.928 274.501,205 276.5,206 282.163,208.832 287.281,213.391 292.5,216 299.712,219.606 307.184,219.684 313.5,226 317.384,229.884 318.384,238.442 323.5,241 326.59,242.545 333.49,243 336.5,243 340.76,243 348,232.868 348,243 348,243 354,240 354,240 354,240 354,239 354,239 354,237.342 352.539,236 351,236 351,238.029 350,236.058 350,235 347.16,235 344.324,233 341,233 336.659,233 319.577,226.961 329.5,222 331.986,220.757 337.507,225.004 339.5,226 342.003,227.251 345.387,224 347.5,224 347.5,224 351.5,227 351.5,227 356.564,229.532 364,226.853 364,235 364,237.411 367,232.906 367,232 364.627,232 367,228.664 367,231 367,231 368,230 368,230 368,230 368,224.5 368,224.5 368,224.5 364.5,223 364.5,223 364.5,223 352.5,214 352.5,214 346.305,210.902 333.526,191.552 331,186.5 328.188,180.876 319.113,154.613 316.5,152 315.411,150.911 313.474,146.447 313,145.5 313,145.5 312.5,143 312.5,143 311.07,143 309.222,143 307.5,143 307.5,143 307,149.5 307,149.5 308.126,151.751 315.967,165.266 312.5,167 303.388,171.556 300.56,149 293.5,149 293.5,149 290,152.5 290,152.5 290,152.5 297,160.5 297,160.5 299.075,164.649 302.655,167.809 305,172.5 305,172.5 309,183.5 309,183.5 313.123,191.745 335,208.75 343.5,213 346.331,214.416 347.402,224 343.5,224 335.496,224 317.298,209.097 314,202.5 311.659,197.819 305.285,197.071 303,192.5 303,192.5 299,180.5 299,180.5 297.316,177.133 291.253,161.124 285.5,164 280.725,166.387 279.274,167.887 285.5,171 287.792,172.146 291.87,177.315 288.5,179 283.082,181.709 276.413,174.956 272.5,173 264.387,168.944 234.806,175.653 227.5,172 223.822,170.161 216.655,171.923 214.5,173 213.262,173.619 209,171.856 209,174 209,174 208,175 208,175 204.264,175 202.532,177.484 199.5,179 199.5,179 196.5,183 196.5,183 178.839,183 200.55,169.95 202,168.5 202,168.5 207,165 207,165 207,163.601 209,163.601 209,165 209,165 210,164 210,164 210,161.239 213,161.239 213,164 214.71,164 213.344,159.922 215.5,161 215.5,161 216.5,164 216.5,164 216.5,164 219.5,161 219.5,161 230.73,161 242.839,161 253.5,161 253.5,161 254.5,163 254.5,163 256.795,164.148 259.821,162 261.5,162 261.788,162 263.939,164 266,164 266,164 272,163.5 272,163.5 272.277,162.947 272.905,156 270.5,156 270.5,156 269.5,159 269.5,159 269.5,159 264.5,154 264.5,154 261.444,154 258.966,153.233 254.5,151 248.374,147.937 223.592,153.954 221.5,155 221.5,155 205.5,155 205.5,155 192.317,161.591 188.609,171.282 181,186.5 181,186.5 169,202.5 169,202.5 166.037,208.426 160.886,217.807 154.5,221 154.5,221 149,228.5 149,228.5 147.407,231.686 132.562,239 131,239 131,239 133,240 133,240 133,240 134,242 134,242 134,243.579 136.855,243 138,243 138,243 139,243 139,243 139,243 140,244 140,244  M211 186 L225.5,182 L238.5,182 C247.596,177.452 278.153,183.827 286.5,188 294.469,191.985 301.6,201.05 307.5,204 309.544,205.022 310.106,210.197 308.5,211 305.055,212.722 299.162,206.331 296.5,205 292.395,202.948 271.431,191.035 267.5,193 264.549,194.475 261.511,195.495 258.5,197 L227.5,199 C222.105,196.302 208.45,194.025 202.5,197 199.283,198.608 195.76,199.37 192.5,201 L182.5,211 C179.965,212.267 179.239,209 178.5,209 L177.5,211 L177,205.5 L185.5,196 C189.533,191.967 204.962,187 210,187 210,187 211,186 211,186  Z"/>

<path  fill="#00FFFF" stroke-width="0" stroke="#00FFFF" d = " M173 145 C173,145.954 166.195,156.11 165,158.5 163.692,161.116 164.276,164.947 163,167.5 157.276,178.947 154.928,190.572 145,200.5 L132.5,212 C129.833,213.333 124.641,214.218 123,217.5 121.63,220.241 120.856,226.178 124.5,228 L129.5,230 L131.5,227 C135.658,224.921 138.89,221.61 142.5,218 153.387,207.113 171.809,186.883 178,174.5 180.035,170.43 189.653,161.806 187,156.5 186.218,154.936 183.515,156.47 183,157.5 182.113,159.274 176.21,170.919 173,164.5 170.309,159.118 184.113,145 173,145  Z"/>

<path  fill="#00FFFF" stroke-width="0" stroke="#00FFFF" d = " M146 158 C146,160.341 143.658,159.421 142.5,160 L137,166.5 C132.791,174.917 131.925,185.575 124.5,193 122.372,195.128 112.453,203.477 117.5,206 122.491,208.495 129.455,200.045 132.5,197 139.993,189.507 145.036,179.429 150,169.5 151.421,166.659 156.025,162.55 154,158.5 153.628,157.756 146.842,158 146,158  Z"/>

<path  fill="#00FFFF" stroke-width="0" stroke="#00FFFF" d = " M331 158 C331,166.202 350.806,196.153 358.5,200 361.979,201.74 369.828,212.844 373,206.5 377.813,196.874 362.599,198.697 361,195.5 L360,187.5 C359.041,185.583 359.081,190 358.5,190 357.261,190 355.74,177 355.5,177 L354.5,179 L354,172.5 C352.884,170.269 350.977,165.238 348.5,164 347.502,163.501 345.097,163.694 345,163.5 L344.5,160 L343.5,163 L341.5,161 L339.5,162 L331,158  Z"/>

<path  fill="#00FFFF" stroke-width="0" stroke="#00FFFF" d = " M362 169 C362,172.746 364.091,169 362,169  Z"/>

<path  fill="#00FFFF" stroke-width="0" stroke="#00FFFF" d = " M364 171 C364,173.359 365.987,175.475 367,177.5 L368,183.5 C374.518,196.537 383.087,171 364,171  Z"/>

<path  fill="#FFFF00" stroke-width="0" stroke="#FFFF00" d = " M211 186 L225.5,182 L238.5,182 C247.596,177.452 278.153,183.827 286.5,188 294.469,191.985 301.6,201.05 307.5,204 309.544,205.022 310.106,210.197 308.5,211 305.055,212.722 299.162,206.331 296.5,205 292.395,202.948 271.431,191.035 267.5,193 264.549,194.475 261.511,195.495 258.5,197 L227.5,199 C222.105,196.302 208.45,194.025 202.5,197 199.283,198.608 195.76,199.37 192.5,201 L182.5,211 C179.965,212.267 179.239,209 178.5,209 L177.5,211 L177,205.5 L185.5,196 C189.533,191.967 204.962,187 210,187 210,187 211,186 211,186  Z"/>

<path  fill-rule="evenodd" fill="#FFFF00" stroke-width="0" stroke="#FFFF00" d = " M244 230 C244,231.93 245.93,230 244,230  M249 229 C249,230.93 250.93,229 249,229  M345 244 L338,246 C338,244.439 331.715,247 330.5,247 325.511,247 321.148,242 319,242 319,242 317,239 317,239 317,239 316,238 316,238 316,238 313,233 313,233 313,232.104 311,229.974 311,232 311,232 310,231 310,231 310,229.438 307.811,226 306,226 306,226 304,225 304,225 304,225 303,224 303,224 303,224 302,224 302,224 302,224 301,223 301,223 301,223 300,223 300,223 300,222.199 280,209.676 280,221 278.952,221 277,220.527 277,222 277,222 274,224 274,224 274,224 274,225 274,225 273.019,225 271.321,228 269.5,228 265.51,228 256.46,227.02 252.5,229 252.5,229 252,232.5 252,232.5 251.669,233.161 243.591,235.545 242.5,235 242.5,235 238,231.5 238,231.5 238,231.21 241.758,228 238.5,228 232.906,228 221.366,227 216,227 214.519,227 215.215,225 213,225 213,223.761 211,218.882 211,221 211,221 209,220 209,220 209,220 206.5,218 206.5,218 200.075,214.788 197.418,216.041 191.5,219 191.5,219 186.5,218 186.5,218 186.5,218 186,221 186,221 181.449,221 178.629,228 177.5,228 172.032,228 170.472,233.557 168,238.5 168,238.5 163.5,240 163.5,240 158.278,242.611 160.78,245 155.5,245 152.886,245 142,248.914 142,243 167.241,243 159.091,229.204 177.5,220 177.5,220 183.5,213 183.5,213 186.797,211.352 190.598,215.951 194.5,214 198.258,212.121 199.684,210 203.5,210 206.02,210 214.782,222 217.5,222 222.857,222 230.233,222 236.5,222 236.5,222 237.5,224 237.5,224 237.5,224 239.5,221 239.5,221 239.5,221 242.5,224 242.5,224 243.576,224.538 251.462,224.019 251.5,224 254.735,222.382 249.718,222 255.5,222 259.987,222 261.612,225.444 266.5,223 266.5,223 272,222.5 272,222.5 272,221.77 280.362,215.224 279,212.5 276.808,208.116 256.789,207.355 263.5,204 265.645,202.928 274.501,205 276.5,206 282.163,208.832 287.281,213.391 292.5,216 299.712,219.606 307.184,219.684 313.5,226 317.384,229.884 318.384,238.442 323.5,241 326.59,242.545 333.49,243 336.5,243 340.76,243 348,232.868 348,243 348,243 346,244 346,244 346,242.814 345,242.814 345,244  Z"/>

<path  fill-rule="evenodd" fill="#9953FF" stroke-width="0" stroke="#9953FF" d = " M268 344 C268,350.78 277.326,344 268,344  M189 221 C189,222.93 190.93,221 189,221  M254 347 C254,344.291 256.781,348 257.5,348 259.585,348 267,346.873 267,350 286.59,350 300.483,339.017 314.5,325 314.5,325 323,316.5 323,316.5 323,316.5 323,309 323,309 319.806,309 316.786,306.927 319,302.5 320.71,299.079 329,299.123 329,293 329,287.435 332.859,275.219 330,269.5 326.944,263.389 326,258.719 326,251 323.193,251 319,245.452 319,242 319,242 317,239 317,239 317,239 316,238 316,238 316,238 313,233 313,233 313,233 311,232 311,232 311,232 310,231 310,231 298.796,231 304.286,228.893 300.5,227 297.015,225.258 284.153,221 280,221 280,222.473 278.048,222 277,222 277,222 274,224 274,224 275.186,224 275.186,225 274,225 274,228.934 270,229.091 270,232 270,232 274,232 274,232 274,232 275,233 275,233 283.463,233 283.447,243.526 278.5,246 278.5,246 269.5,249 269.5,249 265.822,250.839 263.126,254.187 259.5,256 257.31,257.095 253.707,255.396 252.5,256 250.467,257.016 245.152,259.326 242.5,258 239.041,256.27 233.848,258.674 230.5,257 227.793,255.647 225.645,254.072 223.5,253 223.5,253 220.5,249 220.5,249 218.914,249 214.829,248.164 212.5,247 204.586,243.043 207.651,231 216,231 216,231 216,227 216,227 214.519,227 215.215,225 213,225 210.891,225 211,222.465 211,221 211,221 209,220 209,220 205.747,220 201.275,223.888 197.5,222 194.349,220.425 193.356,221 190.5,221 190.5,221 188.5,219 188.5,219 187.055,219.723 188.409,221 186,221 186,226.198 179.767,230.866 175.5,233 175.5,233 170.5,240 170.5,240 169.558,240.471 166,239.27 166,241.5 166,241.797 168.607,244.447 165.5,246 164.182,246.659 162.96,245.581 162,247.5 162,247.5 162,253 162,253 162,256.892 158,261.741 158,262.5 158,264.431 162.722,264.057 161,267.5 161,267.5 159,268.5 159,268.5 159,269.15 160.042,281 157.5,281 155.338,281 154.859,271 151,271 151,276.204 155.263,279.025 157,282.5 158.504,285.508 156.861,289.361 159.5,292 159.5,292 161,293.5 161,293.5 161,293.5 160,295.5 160,295.5 160,295.5 162.5,296 162.5,296 168.058,298.779 168,305.07 168,310 169.564,310 169.321,318.141 170,319.5 172.647,324.795 173.244,328.744 178,333.5 187.21,342.71 207.317,350 221,350 221,346.823 215.096,348.692 214,346.5 212.082,342.665 218.92,335.21 220.5,336 221.785,336.642 228,339.477 228,341.5 228,342.051 225.291,346 228,346 228,346 229,345 229,345 229,345 232,345 232,345 232,345 233,344 233,344 233,344 237,345 237,345 237,345 247.5,344 247.5,344 247.5,344 254,347 254,347  Z"/>

<path  fill="#FFFF00" stroke-width="0" stroke="#FFFF00" d = " M354 239 L356,239 C356,239 357,238 357,238 357,235.539 360.378,236 362,236 362,236 364,235 364,235 364,226.853 356.564,229.532 351.5,227 351.5,227 347.5,224 347.5,224 345.387,224 342.003,227.251 339.5,226 337.507,225.004 331.986,220.757 329.5,222 319.577,226.961 336.659,233 341,233 344.324,233 347.16,235 350,235 350,235 351,236 351,236 352.539,236 354,237.342 354,239  Z"/>

<path  fill="#00FFFF" stroke-width="0" stroke="#00FFFF" d = " M300 223 L301,223 C301,225.212 300,225.212 300,223  Z"/>

<path  fill="#00FFFF" stroke-width="0" stroke="#00FFFF" d = " M302 224 L303,224 C303,226.212 302,226.212 302,224  Z"/>

<path  fill="#00FFFF" stroke-width="0" stroke="#00FFFF" d = " M304 225 L306,226 C306,226 304,225 304,225  Z"/>

<path  fill="#FFFF00" stroke-width="0" stroke="#FFFF00" d = " M367 231 L367,232 C364.627,232 367,228.664 367,231  Z"/>

<path  fill="#FFFF00" stroke-width="0" stroke="#FFFF00" d = " M388 230 C388,239.359 391.644,230 388,230  Z"/>

<path  fill="#EB57FF" stroke-width="0" stroke="#EB57FF" d = " M274 232 L275,233 C283.463,233 283.447,243.526 278.5,246 278.5,246 269.5,249 269.5,249 265.822,250.839 263.126,254.187 259.5,256 257.31,257.095 253.707,255.396 252.5,256 250.467,257.016 245.152,259.326 242.5,258 239.041,256.27 233.848,258.674 230.5,257 227.793,255.647 225.645,254.072 223.5,253 223.5,253 220.5,249 220.5,249 218.914,249 214.829,248.164 212.5,247 204.586,243.043 207.651,231 216,231 222.926,231 234.512,232.006 240.5,235 240.5,235 244.5,241 244.5,241 246.316,241 245.617,238.266 246,237.5 247.369,234.761 251.256,234.122 253.5,233 254.872,232.314 263.249,233 266,233 267.145,233 270,233.579 270,232 270,232 274,232 274,232  Z"/>

<path  fill="#FFFF00" stroke-width="0" stroke="#FFFF00" d = " M386 232 C386,235.746 388.091,232 386,232  Z"/>

<path  fill="#00FFFF" stroke-width="0" stroke="#00FFFF" d = " M131 235 C132.486,235 132.486,238 131,238 131,238 131,235 131,235  Z"/>

<path  fill="#FFFF00" stroke-width="0" stroke="#FFFF00" d = " M364 247 L363,248 C363,268.432 378.676,248.824 384.5,243 386.051,241.449 388.887,236.693 385.5,235 382.688,233.594 376.168,244 373,244 373,244 372,245 372,245 372,245 370.5,244 370.5,244 370.5,244 369.5,247 369.5,247 369.5,247 367,244 367,244 367,244 365,245 365,245 365,245 364,247 364,247  Z"/>

<path  fill="#00FFFF" stroke-width="0" stroke="#00FFFF" d = " M357 238 C357,239.93 358.161,238 359,238 361.003,238 362,238.293 362,236 360.378,236 357,235.539 357,238  Z"/>

<path  fill="#86CC4C" stroke-width="0" stroke="#86CC4C" d = " M331 289 C331,290.465 331.109,293 329,293 329,287.435 332.859,275.219 330,269.5 326.944,263.389 326,258.719 326,251 326,251 327.5,249 327.5,249 329.275,248.112 338,248.729 338,246 338,246 345,244 345,244 345,244 346,244 346,244 346,244 348,243 348,243 348,243 354,240 354,240 355.013,240 358.408,239 356,239 356,239 357,238 357,238 357,239.93 358.161,238 359,238 359,239.463 366,239.494 366,242 364.527,242 365,243.952 365,245 365,245 364,247 364,247 364,247 363,248 363,248 363,248 357,256.5 357,256.5 357,256.5 355,257.5 355,257.5 355,257.5 357,258.5 357,258.5 357,258.587 348,260.057 348,263 345.705,263 338,265.09 338,268 338,268 336,272 336,272 334.005,272 334,276.377 334,278 334,278 334,279 334,279 334,279 334,281 334,281 334,281 334,282 334,282 334,282 333,284 333,284 333,284 333,285 333,285 333,285 332,287 332,287 332,287 332,288 332,288 332,288 331,289 331,289  Z"/>

<path  fill="#86CC4C" stroke-width="0" stroke="#86CC4C" d = " M149 268 L151,271 C154.859,271 155.338,281 157.5,281 160.042,281 159,269.15 159,268.5 159,268.5 161,267.5 161,267.5 162.722,264.057 158,264.431 158,262.5 158,261.741 162,256.892 162,253 162,253 158.5,250 158.5,250 155.349,248.425 141,249.182 141,244 141,244 140,244 140,244 140,244 139,244 139,244 139,244 138,243 138,243 136.855,243 134,243.579 134,242 134,242 133,240 133,240 133,240 131,239 131,239 126.298,239 124,238.674 124,244 124,244 125,246 125,246 125,249.81 133.398,259.449 136.5,261 136.5,261 136.5,263 136.5,263 136.5,263 141,263 141,263 141,263 142,263 142,263 143.747,263 144,263.253 144,265 145.048,265 147,264.527 147,266 147,266 149,268 149,268  Z"/>

<path  fill="#00FFFF" stroke-width="0" stroke="#00FFFF" d = " M367 244 L365,245 C365,243.952 364.527,242 366,242 366,242 367,244 367,244  Z"/>

<path  fill="#FFFF00" stroke-width="0" stroke="#FFFF00" d = " M139 244 L140,244 C140,244 139,243 139,243 139,243 139,244 139,244  Z"/>

<path  fill="#00FFFF" stroke-width="0" stroke="#00FFFF" d = " M345 244 L346,244 C346,242.814 345,242.814 345,244  Z"/>

<path  fill="#00FFFF" stroke-width="0" stroke="#00FFFF" d = " M124 244 L125,246 C125,246 124,244 124,244  Z"/>

<path  fill="#00FFFF" stroke-width="0" stroke="#00FFFF" d = " M373 244 L372,245 C372,245 373,244 373,244  Z"/>

<path  fill="#46A515" stroke-width="0" stroke="#46A515" d = " M427 247 C427,253.221 417.097,265.201 411.5,268 408.636,269.432 406.384,266.558 403.5,268 401.619,268.941 400.368,271.934 402.5,273 405.079,274.289 405.406,273 408,273 419.314,273 422.913,267.674 428,257.5 429.568,254.363 431.843,247 427,247  Z"/>

<path  fill="#FA8072" stroke-width="0" stroke="#FA8072" d = " M141 263 L142,263 C142,264.186 141,264.186 141,263  Z"/>

<path  fill="#FA8072" stroke-width="0" stroke="#FA8072" d = " M329 293 C329,299.123 320.71,299.079 319,302.5 316.786,306.927 319.806,309 323,309 323,309 327.5,309 327.5,309 327.5,309 329.5,306 329.5,306 347.242,306 345.418,286.665 351,275.5 351,275.5 350,271.5 350,271.5 350,271.5 351,267.5 351,267.5 351,267.5 348,263 348,263 345.705,263 338,265.09 338,268 338,269.465 338.109,272 336,272 336,273.357 335.353,278 334,278 334,278 334,279 334,279 335.399,279 335.399,281 334,281 334,281 334,282 334,282 334,282 333,284 333,284 333,284 333,285 333,285 333,285 332,287 332,287 332,287 332,288 332,288 332,288 331,289 331,289 331,290.465 331.109,293 329,293  Z"/>

<path  fill="#FA8072" stroke-width="0" stroke="#FA8072" d = " M151 271 C151,276.204 155.263,279.025 157,282.5 158.504,285.508 156.861,289.361 159.5,292 L161,293.5 L160,295.5 L162.5,296 C168.058,298.779 168,305.07 168,310 165.986,310 162.068,312.284 159.5,311 149.612,306.056 144.895,299.291 139,287.5 137.998,285.497 133.935,269.629 135,267.5 136.506,264.489 141.093,265 144,265 145.048,265 147,264.527 147,266 147,266 149,268 149,268 149,268 151,271 151,271  Z"/>

<path  fill="#9953FF" stroke-width="0" stroke="#9953FF" d = " M338 268 L336,272 C338.109,272 338,269.465 338,268  Z"/>

<path  fill="#9953FF" stroke-width="0" stroke="#9953FF" d = " M336 272 C334.005,272 334,276.377 334,278 335.353,278 336,273.357 336,272  Z"/>

<path  fill="#9953FF" stroke-width="0" stroke="#9953FF" d = " M334 279 C335.399,279 335.399,281 334,281 334,281 334,279 334,279  Z"/>

<path  fill="#9953FF" stroke-width="0" stroke="#9953FF" d = " M334 282 L333,284 C333,284 334,282 334,282  Z"/>

<path  fill="#9953FF" stroke-width="0" stroke="#9953FF" d = " M333 285 L332,287 C332,287 333,285 333,285  Z"/>

<path  fill="#9953FF" stroke-width="0" stroke="#9953FF" d = " M332 288 L331,289 C331,289 332,288 332,288  Z"/>

<path  fill="#46A515" stroke-width="0" stroke="#46A515" d = " M394 303 L393,304.5 C390.026,310.448 399.165,303 394,303  Z"/>

<path  fill="#46A515" stroke-width="0" stroke="#46A515" d = " M387 305 C387,315.468 396.338,305 387,305  Z"/>

<path  fill="#46A515" stroke-width="0" stroke="#46A515" d = " M119 311 C119,311.918 115.405,312.548 114.5,313 L109.5,313 C107.484,314.008 98.7406,320.981 100,323.5 101.142,325.784 104.508,320.496 105.5,320 L124.5,319 L133,322.5 C133.558,323.615 136.408,329.546 137.5,329 139.638,327.931 137.607,320.107 136.5,319 132.336,314.836 130.085,314 125.5,314 124.786,314 121.779,311 119,311  Z"/>

<path  fill-rule="evenodd" fill="#46A515" stroke-width="0" stroke="#46A515" d = " M363 316 L360,318.5 L363.5,319 C364.412,318.544 374,316.648 374,316.5 L363,316  M359 312 C359,312.988 345.453,323.406 347,326.5 L350,328.5 L350,331.5 C352.616,336.732 366.247,323.873 372.5,327 L384.5,339 C392.953,343.226 392.895,325.289 391,321.5 387.696,314.891 380.348,318.424 377.5,317 369.601,313.051 367.625,312 359,312  Z"/>

<path  fill="#46A515" stroke-width="0" stroke="#46A515" d = " M116 328 C116,329.149 111.484,329.508 110.5,330 107.853,331.324 99.2039,338.908 101,342.5 101.642,343.784 101.406,345.313 102,346.5 102.623,347.745 116.481,356.01 118.5,355 130.288,349.106 116,343.052 116,340.5 L118.5,337 C120.159,337 134.034,345.233 134.5,345 150.494,337.003 120.053,328 116,328  Z"/>

<path  fill="#46A515" stroke-width="0" stroke="#46A515" d = " M364 330 L354,335.5 L353,341.5 L351,343.5 C352.366,346.232 357.548,351.976 361.5,350 364.397,348.552 366.999,344.25 362.5,342 L359,338.5 L361.5,338 C363.964,336.768 365.908,331.204 369.5,333 378.224,337.362 364.231,342.963 368,350.5 368.469,351.437 378,352.668 378,350.5 378,345.847 375.42,350 378.5,350 384.232,350 381.981,341.463 381,339.5 377.521,332.543 371.978,330 364,330  Z"/>

<path  fill="#FF3427" stroke-width="0" stroke="#FF3427" d = " M228 346 C225.291,346 228,342.051 228,341.5 228,339.477 221.785,336.642 220.5,336 218.92,335.21 212.082,342.665 214,346.5 215.096,348.692 221,346.823 221,350 225.344,350 237,350.422 237,345 237,345 233,344 233,344 233,344 232,345 232,345 232,345 229,345 229,345 229,345 228,346 228,346  Z"/>

<path  fill="#FF3427" stroke-width="0" stroke="#FF3427" d = " M268 344 C268,350.78 277.326,344 268,344  Z"/>

<path  fill="#FF3427" stroke-width="0" stroke="#FF3427" d = " M254 347 C254,350.837 267,353.949 267,350 267,346.873 259.585,348 257.5,348 256.781,348 254,344.291 254,347  Z"/>

</g>
</svg>
