<svg xmlns="http://www.w3.org/2000/svg" xmlns:xlink="http://www.w3.org/1999/xlink" height="512" width="512">
<g>
<rect width="512" height="512" fill="#000000"  stroke-width="0" /> 
<path  fill-rule="evenodd" fill="#86FF5A" stroke-width="0" stroke="#86FF5A" d = " M240 341 C240,342.804 237.818,346.136 239,348.5 239.96,350.419 241.182,349.341 242.5,350 251.854,354.677 249.871,342.186 247.5,341 246.469,340.485 241.674,341 240,341  M232 306 C232,308.67 225.125,307.187 223.5,308 L220.5,312 C218.259,313.12 214.831,311.835 212.5,313 210.21,314.145 210.809,315.882 210,317.5 209.157,319.186 201.933,323.635 200,327.5 197.602,332.296 198.435,338.63 196,343.5 191.129,353.242 201.399,374.298 205,381.5 L209,381.5 C211.381,386.261 213.754,388.627 218.5,391 223.88,393.69 233.182,399.659 240.5,396 242.851,394.824 242.439,390 245.5,390 L253.5,397 C257.289,398.895 270.38,392.56 273.5,391 L276.5,386 C283.746,382.377 287.733,373.033 291,366.5 L291,361.5 C291.753,359.994 291.969,366.561 294,362.5 295.519,359.461 293.701,346.901 292,343.5 289.908,339.315 289.837,323.669 286.5,322 279.598,318.549 275.682,313.091 269.5,310 264.943,307.722 238.984,306 232,306  Z"/>

<path  fill-rule="evenodd" fill="#EB57FF" stroke-width="0" stroke="#EB57FF" d = " M244 346 C244,349.479 247.479,346 244,346  M240 341 C240,342.804 237.818,346.136 239,348.5 239.96,350.419 241.182,349.341 242.5,350 251.854,354.677 249.871,342.186 247.5,341 246.469,340.485 241.674,341 240,341  Z"/>

<path  fill="#27F4FD" stroke-width="0" stroke="#27F4FD" d = " M244 346 C244,349.479 247.479,346 244,346  Z"/>

</g>
</svg>
