<svg xmlns="http://www.w3.org/2000/svg" xmlns:xlink="http://www.w3.org/1999/xlink" height="512" width="512">
<g>
<rect width="512" height="512" fill="#000000"  stroke-width="0" /> 
<path  fill-rule="evenodd" fill="#03C12D" stroke-width="0" stroke="#03C12D" d = " M380 251 C380,252.93 381.93,251 380,251  M140 333 C140,335.673 132.695,337.097 130.5,336 122.532,332.016 115.93,325.215 107.5,321 104.158,319.329 99.9297,318.715 96.5,317 96.3794,316.94 85.4805,301.461 85,300.5 83.3058,297.112 85.6508,291.802 84,288.5 82.6103,285.721 75.4248,287.35 74,284.5 72.9479,282.396 76,281.83 76,280.5 L73,277.5 L72,272.5 L67,265.5 C65.6499,262.8 66.3686,259.237 65,256.5 62.9372,252.374 66.7725,247.045 65,243.5 64.5236,242.547 60.9571,243.586 62,241.5 65.6361,234.228 63,219.479 63,211 63,204.628 62.6413,189.217 65,184.5 66.2838,181.932 66.7814,178.937 68,176.5 L72,173.5 L69,172.5 L70,165.5 C71.8578,161.784 88.9836,131.758 90.5,131 92.6609,129.92 92.8118,131 94.5,131 L104.5,121 C117.219,114.64 130.802,110.349 143.5,104 L147.5,104 C157.196,99.1521 169.813,100.844 179.5,96 L183.5,97 C191.035,93.2326 198.944,95 207,95 L211.5,92 C214.532,90.4842 224.937,93.7183 227.5,95 231.229,96.8643 234.984,99.4686 237,103.5 237.521,104.542 239.314,105.593 240.5,105 L252.5,93 C257.876,90.3118 265.119,91.6903 270.5,89 274.371,87.0644 297.306,90.4032 300.5,92 L305.5,97 L307.5,96 C310.777,96 314.245,102.127 318.5,100 320.463,99.0184 322.678,95.5891 325.5,97 334.382,101.441 350.224,101.862 358.5,106 365.365,109.433 371.566,114.533 378.5,118 384.19,120.845 400.839,130.178 404,136.5 407.479,143.458 413.455,149.41 417,156.5 418.059,158.618 424,180.386 424,182.5 L421,182.5 L425,185.5 C427.877,191.255 426,198.661 426,204.5 426,206.167 428.255,207.009 429,208.5 L428,226 C428,241.129 426.839,260.822 420,274.5 L414,281.5 L414,286.5 C405.984,302.532 402.775,310.863 386.5,319 L381.5,324 C371.81,328.845 365.923,334 354,334 354,330.979 358.63,326.24 360,323.5 361.467,320.565 360,303.456 360,300.5 360,296.532 354,298.14 354,292 354,292 355,291 355,291 355,291 356,290 356,290 356,290 357,288 357,288 360.964,288 373,269.072 373,265 373,265 376,259 376,259 376,257.286 378,255.518 378,253 379.473,253 379,251.048 379,250 379,250 380,248 380,248 380,249.952 381.665,252.171 383,249.5 383,249.5 385,225 385,225 385,215.189 379.106,207.711 375,199.5 375,199.5 375,195.5 375,195.5 375,195.5 372,191 372,191 372,191 371,190 371,190 371,187.75 369,186.624 369,185 369,183.203 366.178,180 364,180 364,180 364,179 364,179 366.683,179 359.506,172 358,172 356.555,172 345.767,163.133 343.5,162 336.66,158.58 328.087,158.794 320.5,155 314.106,151.803 304.037,150 297,150 293.816,150 287,151.081 287,147 287,147 286,146 286,146 281.629,146 277.981,146 274,146 274,146 273,145 273,145 273,145 271,143 271,143 271,143 269,142 269,142 269,140.784 256.23,134.865 254.5,134 249.901,131.7 246.978,126 241.5,126 235.133,126 211.793,149 210,149 210,144.101 198.896,149 197.5,149 189.786,149 178.877,151.311 171.5,155 171.5,155 163.5,156 163.5,156 160.026,157.737 158.248,160 154,160 154,160 153,161 153,161 147.635,161 145.444,167 141,167 141,167 140,168 140,168 140,168 139,169 139,169 139,169 134,173 134,173 134,173 133,175 133,175 129.124,175 121.39,186.72 120,189.5 109.848,209.805 106,220.4 106,243 106,243 107,244 107,244 107,248.396 108.285,249.071 110,252.5 110.523,253.546 109.049,256 111,256 111,263.902 119.403,272.305 123,279.5 123,279.5 129,286 129,286 129,286 132,289 132,289 132,289 136,293.5 136,293.5 136,293.5 132,293.5 132,293.5 132,293.5 135,302.5 135,302.5 139.371,311.241 140,323.683 140,333  Z"/>

<path  fill="#1D68EB" stroke-width="0" stroke="#1D68EB" d = " M253 172 L255,172 C255,172 256,171 256,171 258.806,171 266,168.071 266,165 266,165 267,164 267,164 267,163.289 274,150.646 274,146 274,146 273,145 273,145 273,145 271,143 271,143 271,143 269,142 269,142 269,140.784 256.23,134.865 254.5,134 249.901,131.7 246.978,126 241.5,126 235.133,126 211.793,149 210,149 210,151.482 216.265,166 221,166 221,166 222,167 222,167 222,169.943 235.384,172 238,172 238,161.789 245.103,166.603 249,170.5 249.983,171.483 253,170.2 253,172  Z"/>

<path  fill="#FF6E00" stroke-width="0" stroke="#FF6E00" d = " M107 244 C107,248.396 108.285,249.071 110,252.5 110.523,253.546 109.049,256 111,256 111,256 110,236.5 110,236.5 111.577,233.345 115,218.346 115,215 112.627,215 115,212.716 115,212 115,211.302 117.714,205 118,205 118,205 120,201 120,201 122.448,201 124.116,192.268 125,190.5 128.76,182.98 139.681,176.409 146.5,173 150.885,170.807 175.778,164.139 179.5,166 185.304,168.902 191.993,171 199,171 201.563,171 195.521,168.49 198.5,167 200.678,165.911 208.047,174 210,174 210,174 211,175 211,175 211,175 212,175 212,175 212,175 214,176 214,176 214,176 221,181 221,181 224.606,181 243.421,186.039 245.5,185 249.334,183.083 254.822,184.839 258.5,183 261.763,181.369 263.468,178 268,178 268,178 276,174 276,174 276,174 277,173 277,173 277,173 280,172 280,172 280,172 281,171 281,171 281,171 282,171 282,171 282,171 283,170 283,170 283,170 285,169 285,169 285,169 287,168 287,168 287,167.382 290.883,165.691 291.5,166 294.835,167.667 301.225,165 306,165 311.317,165 323.368,163.934 327.5,166 331.266,167.883 336.578,172 342,172 342,172 344,173 344,173 348.032,173 348.909,179 353,179 353,179 354,180 354,180 355.923,180 358,182.104 358,184 358,184 359,185 359,185 359,185 361.5,185 361.5,185 361.5,185 362,189.5 362,189.5 362,189.5 366,191.5 366,191.5 366,191.5 366,195.5 366,195.5 366,195.5 370,197.5 370,197.5 371.407,200.313 371.786,206.072 373,208.5 373,208.5 378,214.5 378,214.5 378,214.5 377,224.5 377,224.5 378.894,228.289 380,236.656 380,241 380,241 380,243 380,243 380,243 380,248 380,248 380,249.952 381.665,252.171 383,249.5 383,249.5 385,225 385,225 385,215.189 379.106,207.711 375,199.5 375,199.5 375,195.5 375,195.5 375,195.5 372,191 372,191 372,191 371,190 371,190 371,187.75 369,186.624 369,185 367.343,185 364,181.548 364,180 364,180 364,179 364,179 364,176.324 358,175.781 358,172 356.555,172 345.767,163.133 343.5,162 336.66,158.58 328.087,158.794 320.5,155 314.106,151.803 304.037,150 297,150 293.816,150 287,151.081 287,147 287,147 286,146 286,146 281.629,146 277.981,146 274,146 274,150.646 267,163.289 267,164 267,164 266,165 266,165 266,168.071 258.806,171 256,171 256,171 255,172 255,172 255,172 253,172 253,172 253,174.877 239.361,172 238,172 235.384,172 222,169.943 222,167 222,167 221,166 221,166 216.265,166 210,151.482 210,149 210,144.101 198.896,149 197.5,149 189.786,149 178.877,151.311 171.5,155 171.5,155 163.5,156 163.5,156 160.026,157.737 158.248,160 154,160 154,160 153,161 153,161 147.635,161 145.444,167 141,167 141,167 140,168 140,168 140,168 139,169 139,169 139,169 134,173 134,173 134,173 133,175 133,175 129.124,175 121.39,186.72 120,189.5 109.848,209.805 106,220.4 106,243 106,243 107,244 107,244  Z"/>

<path  fill="#814FFF" stroke-width="0" stroke="#814FFF" d = " M355 291 L354,292 C347.105,292 339.359,288.929 333.5,286 333.5,286 327.5,286 327.5,286 324.352,284.426 321.817,282 318,282 318,282 316,282 316,282 316,280.423 314.238,280 313,280 313,280 312,280 312,280 312,278.572 307.178,276 306,276 303.57,276 302.516,271 299,271 299,271 296,266.5 296,266.5 296,260.997 292.891,251.281 290,245.5 289.114,243.728 289.241,238 286,238 286,234.554 284,231.23 284,227 284,219.249 286.318,206.135 283,199.5 282.173,197.845 282.796,191 280,191 280,191 280,190 280,190 281.88,190 279.289,187.921 280,186.5 280,186.5 282,185.5 282,185.5 282,185.5 280,184.5 280,184.5 280,183.315 290,169.559 290,169 290,169 296.5,170 296.5,170 296.5,170 298.5,167 298.5,167 299.803,166.348 306,166.781 306,165 311.317,165 323.368,163.934 327.5,166 331.266,167.883 336.578,172 342,172 342,172 344,173 344,173 348.032,173 348.909,179 353,179 353,179 354,180 354,180 355.923,180 358,182.104 358,184 358,184 359,185 359,185 359,185 361.5,185 361.5,185 361.5,185 362,189.5 362,189.5 362,189.5 366,191.5 366,191.5 366,191.5 366,195.5 366,195.5 366,195.5 370,197.5 370,197.5 371.407,200.313 371.786,206.072 373,208.5 373,208.5 378,214.5 378,214.5 378,214.5 377,224.5 377,224.5 378.894,228.289 380,236.656 380,241 378.601,241 378.601,243 380,243 380,243 380,248 380,248 380,248 379,250 379,250 377.527,250 378,251.952 378,253 378,255.518 376,257.286 376,259 373.686,259 373,263.262 373,265 373,269.072 360.964,288 357,288 356.104,288 353.974,290 356,290 356,290 355,291 355,291  Z"/>

<path  fill="#814FFF" stroke-width="0" stroke="#814FFF" d = " M129 286 L132,289 C134.46,289 137.973,294.263 140.5,293 140.5,293 151.5,290 151.5,290 154.892,288.304 156.465,285.517 159.5,284 162.529,282.486 167.389,284.555 170.5,283 175.616,280.442 179.32,275.59 184.5,273 185.985,272.257 191.014,271.472 192,269.5 192,269.5 197,258.5 197,258.5 199.27,253.961 203,248.316 203,243 203,241.679 202.316,237 204,237 204,237 204,236 204,236 204,236 203,235 203,235 203,229.098 203,223.634 203,218 201.514,218 201.514,215 203,215 203,209.016 206,204.243 206,199 206,199 205,197 205,197 205,197 206,195 206,195 206,195 207,195 207,195 207,195 207,192 207,192 205.814,192 205.814,191 207,191 207,184.731 203,179.371 203,175.5 203,175.5 199,171 199,171 191.993,171 185.304,168.902 179.5,166 175.778,164.139 150.885,170.807 146.5,173 139.681,176.409 128.76,182.98 125,190.5 124.116,192.268 122.448,201 120,201 120,202.465 120.109,205 118,205 117.714,205 115,211.302 115,212 117.373,212 115,214.284 115,215 115,218.346 111.577,233.345 110,236.5 110,236.5 111,256 111,256 111,263.902 119.403,272.305 123,279.5 123,279.5 129,286 129,286  Z"/>

<path  fill="#022CFF" stroke-width="0" stroke="#022CFF" d = " M207 192 L207,195 C207,195.316 210.444,193.613 211,192.5 211,192.5 210.5,188 210.5,188 211.654,186.846 221,181.397 221,181 221,181 214,176 214,176 214,176 212,175 212,175 212,175 211,175 211,175 211,175 210,174 210,174 208.047,174 200.678,165.911 198.5,167 195.521,168.49 201.563,171 199,171 199,171 203,175.5 203,175.5 203,179.371 207,184.731 207,191 207,191 207,192 207,192  Z"/>

<path  fill="#022CFF" stroke-width="0" stroke="#022CFF" d = " M279 189 L280,190 C281.88,190 279.289,187.921 280,186.5 280,186.5 282,185.5 282,185.5 282,185.5 280,184.5 280,184.5 280,183.315 290,169.559 290,169 290,169 287,168 287,168 287,168 285,169 285,169 285,169 283,170 283,170 283,170 282,171 282,171 282,171 281,171 281,171 281,171 280,172 280,172 280,172 277,173 277,173 277,173 276,174 276,174 276,174 268,178 268,178 268,178 276,185 276,185 277.748,185 279,187.283 279,189  Z"/>

<path  fill-rule="evenodd" fill="#FF0800" stroke-width="0" stroke="#FF0800" d = " M244 213 L245,216.5 L244,218 C244,224.16 249.136,213 244,213  M251 202 C251,208.457 252.385,215 258.5,215 L261,210.5 C261,204.84 256.183,202 251,202  M237 201 C237,202.766 230.768,201.964 229,205.5 227.991,207.518 229.071,218 231.5,218 232.679,218 232,215.679 232,214.5 232,214.411 235,212.046 235,206 235,205.246 240.157,201 237,201  M218 253 L220,254 C220,254 227.5,258 227.5,258 227.5,258 248.5,259 248.5,259 251.809,257.345 256.353,258.574 259.5,257 259.5,257 261.5,254 261.5,254 261.5,254 268.5,254 268.5,254 270.779,252.86 271.182,250 274,250 274,250 278,245 278,245 278,245 279,243 279,243 279,240.223 280.715,234.069 282,231.5 284.956,225.587 281,201.55 281,196 277.196,196 278.963,193 280,193 280,193 280,191 280,191 280,191 280,190 280,190 280,190 279,189 279,189 277.159,189 273.308,185 276,185 276,185 268,178 268,178 263.468,178 261.763,181.369 258.5,183 254.822,184.839 249.334,183.083 245.5,185 243.421,186.039 224.606,181 221,181 221,181.397 211.654,186.846 210.5,188 210.5,188 211,192.5 211,192.5 210.444,193.613 207,195.316 207,195 207,195 206,195 206,195 206,195 206,197 206,197 208.105,197 206,205.263 206,207 206,207 205,209 205,209 205,220.498 207,231.362 207,242 207,242 208,244 208,244 208,244.886 212.486,250.493 213.5,251 214.43,251.465 218,251.817 218,253  Z"/>

<path  fill="#022CFF" stroke-width="0" stroke="#022CFF" d = " M283 239 C283,241.844 279,245.519 279,243 279,240.223 280.715,234.069 282,231.5 284.956,225.587 281,201.55 281,196 281,196 280,193 280,193 280,193 280,191 280,191 282.796,191 282.173,197.845 283,199.5 286.318,206.135 284,219.249 284,227 282.219,227 283,237.176 283,239  Z"/>

<path  fill="#FF0800" stroke-width="0" stroke="#FF0800" d = " M206 197 L206,199 C206,199 205,197 205,197 205,197 206,197 206,197  Z"/>

<path  fill="#022CFF" stroke-width="0" stroke="#022CFF" d = " M204 243 C204,244.348 207,246.216 207,244 207,244 207,242 207,242 207,231.362 205,220.498 205,209 205,209 206,207 206,207 206,205.263 208.105,197 206,197 206,197 206,199 206,199 206,204.243 203,209.016 203,215 203,215 203,218 203,218 203,223.634 203,229.098 203,235 203,235 204,236 204,236 204,236 204,237 204,237 204,237 204,243 204,243  Z"/>

<path  fill="#00FF1D" stroke-width="0" stroke="#00FF1D" d = " M237 201 C237,202.766 230.768,201.964 229,205.5 227.991,207.518 229.071,218 231.5,218 232.679,218 232,215.679 232,214.5 232,214.411 235,212.046 235,206 235,205.246 240.157,201 237,201  Z"/>

<path  fill="#00FF1D" stroke-width="0" stroke="#00FF1D" d = " M251 202 C251,208.457 252.385,215 258.5,215 L261,210.5 C261,204.84 256.183,202 251,202  Z"/>

<path  fill="#15C0FF" stroke-width="0" stroke="#15C0FF" d = " M244 213 L245,216.5 L244,218 C244,224.16 249.136,213 244,213  Z"/>

<path  fill-rule="evenodd" fill="#E1F00D" stroke-width="0" stroke="#E1F00D" d = " M156 292 C156,295.119 162.303,292 156,292  M285 243 C285,248.827 291.548,243 285,243  M245 318 C249.782,318 253.552,321.026 257.5,323 263.245,325.872 272.645,321.073 278.5,324 283.523,326.511 280.911,336.206 286.5,339 292.124,341.812 298.527,343.013 304.5,346 306.705,347.102 327.226,344.137 329.5,343 L335.5,346 C339.111,346 340.253,341.124 342.5,340 344.637,338.932 348.221,340.639 349.5,340 351.704,338.898 350.729,334 354,334 354,330.979 358.63,326.24 360,323.5 361.467,320.565 360,303.456 360,300.5 360,296.532 354,298.14 354,292 347.105,292 339.359,288.929 333.5,286 333.5,286 327.5,286 327.5,286 324.352,284.426 321.817,282 318,282 318,284.714 325.15,286.825 327.5,288 328.357,288.429 333,287.925 333,289.5 333,290.838 324.761,290.023 324,288.5 323.162,286.824 317.12,288.81 313.5,287 304.756,282.628 295.403,275 285,275 282.852,275 278.615,277 276.5,277 270.38,277 267.277,273.388 262.5,271 260.551,270.025 256.202,268.095 258,264.5 260.577,259.347 279,258.077 279,263 284.739,263 291.564,271 299,271 299,271 296,266.5 296,266.5 296,260.997 292.891,251.281 290,245.5 289.114,243.728 289.241,238 286,238 286,238 283,239 283,239 283,241.844 279,245.519 279,243 279,243 278,245 278,245 281.156,245 288.872,264 283.5,264 283.5,264 280.5,261 280.5,261 280.5,261 277,258.5 277,258.5 277,258.5 273,255.5 273,255.5 273,255.5 275,252.5 275,252.5 275,252.5 274,250 274,250 271.182,250 270.779,252.86 268.5,254 268.5,254 261.5,254 261.5,254 261.5,254 259.5,257 259.5,257 256.353,258.574 251.809,257.345 248.5,259 248.5,259 227.5,258 227.5,258 227.5,258 220,254 220,254 220,258.205 227.302,261 220,261 220,264.187 234.226,260.048 230,268.5 227.984,272.533 220.056,277 215,277 213.407,277 208,276.663 208,275 208,275 204.5,277 204.5,277 204.5,277 195.5,278 195.5,278 188.002,281.749 177.96,286.27 170.5,290 169.553,290.474 159,292.587 159,291.5 159,287.924 167.595,286.953 169.5,286 169.5,286 173.5,282 173.5,282 178.756,279.372 184.27,276.615 189.5,274 192.389,272.556 198.374,271.126 200.5,269 201.428,268.072 208,262.192 208,265 208,265 209.5,262 209.5,262 212.018,260.741 214.953,261 218,261 218,253.038 202.922,265.711 199.5,264 199.5,264 198,261.5 198,261.5 198,261.5 203,253.5 203,253.5 203,253.5 204.5,247 204.5,247 208.721,244.89 207.596,253.048 209.5,254 212.858,255.679 206.913,249 209.5,249 210.395,249 213.352,253 218,253 218,251.817 214.43,251.465 213.5,251 212.486,250.493 208,244.886 208,244 208,244 207,244 207,244 207,246.216 204,244.348 204,243 204,243 203,243 203,243 203,248.316 199.27,253.961 197,258.5 197,258.5 192,269.5 192,269.5 191.014,271.472 185.985,272.257 184.5,273 179.32,275.59 175.616,280.442 170.5,283 167.389,284.555 162.529,282.486 159.5,284 156.465,285.517 154.892,288.304 151.5,290 151.5,290 140.5,293 140.5,293 137.973,294.263 134.46,289 132,289 132,289 136,293.5 136,293.5 136,293.5 132,293.5 132,293.5 132,293.5 135,302.5 135,302.5 139.371,311.241 140,323.683 140,333 140,333 142.5,338 142.5,338 144.005,338.753 149,336.75 151.5,338 151.5,338 158.5,345 158.5,345 161.303,346.402 166.918,343.209 170.5,345 171.69,345.595 173.847,346.826 175.5,346 182.646,342.427 190.275,339.612 197.5,336 200.056,334.722 204.421,324.04 208.5,322 211.789,320.356 224.581,327.959 230.5,325 234.494,323.003 238.674,318 243,318 243,309.725 243,303.139 243,296.5 243,295.106 240.519,290.99 242.5,290 243.885,289.307 246,296.118 246,297.5 246,303.516 245,310.564 245,318  Z"/>

<path  fill="#814FFF" stroke-width="0" stroke="#814FFF" d = " M285 243 C285,248.827 291.548,243 285,243  Z"/>

<path  fill="#0008B6" stroke-width="0" stroke="#0008B6" d = " M278 245 C281.156,245 288.872,264 283.5,264 L280.5,261 L277,258.5 L273,255.5 L275,252.5 L274,250 C274,250 278,245 278,245  Z"/>

<path  fill-rule="evenodd" fill="#0008B6" stroke-width="0" stroke="#0008B6" d = " M213 253 C213,258.567 215.112,253 213,253  M218 261 L220,261 C227.302,261 220,258.205 220,254 220,254 218,253 218,253 213.352,253 210.395,249 209.5,249 206.913,249 212.858,255.679 209.5,254 207.596,253.048 208.721,244.89 204.5,247 204.5,247 203,253.5 203,253.5 203,253.5 198,261.5 198,261.5 198,261.5 199.5,264 199.5,264 202.922,265.711 218,253.038 218,261  Z"/>

<path  fill="#FF6E00" stroke-width="0" stroke="#FF6E00" d = " M379 250 C377.527,250 378,251.952 378,253 379.473,253 379,251.048 379,250  Z"/>

<path  fill="#FF6E00" stroke-width="0" stroke="#FF6E00" d = " M380 251 C380,252.93 381.93,251 380,251  Z"/>

<path  fill="#E1F00D" stroke-width="0" stroke="#E1F00D" d = " M213 253 C213,258.567 215.112,253 213,253  Z"/>

<path  fill="#7CFC00" stroke-width="0" stroke="#7CFC00" d = " M279 263 L285,275 C282.852,275 278.615,277 276.5,277 270.38,277 267.277,273.388 262.5,271 260.551,270.025 256.202,268.095 258,264.5 260.577,259.347 279,258.077 279,263  Z"/>

<path  fill="#FF6E00" stroke-width="0" stroke="#FF6E00" d = " M376 259 C373.686,259 373,263.262 373,265 373,265 376,259 376,259  Z"/>

<path  fill="#7CFC00" stroke-width="0" stroke="#7CFC00" d = " M208 265 L208,275 C208,276.663 213.407,277 215,277 220.056,277 227.984,272.533 230,268.5 234.226,260.048 220,264.187 220,261 220,261 218,261 218,261 214.953,261 212.018,260.741 209.5,262 209.5,262 208,265 208,265  Z"/>

<path  fill="#FFBB00" stroke-width="0" stroke="#FFBB00" d = " M316 282 L318,282 C318,284.714 325.15,286.825 327.5,288 328.357,288.429 333,287.925 333,289.5 333,290.838 324.761,290.023 324,288.5 323.162,286.824 317.12,288.81 313.5,287 304.756,282.628 295.403,275 285,275 285,275 279,263 279,263 284.739,263 291.564,271 299,271 302.516,271 303.57,276 306,276 306,277.617 310.583,280 312,280 312,280 313,280 313,280 313,280 316,282 316,282  Z"/>

<path  fill="#FFBB00" stroke-width="0" stroke="#FFBB00" d = " M208 265 L208,275 C208,275 204.5,277 204.5,277 204.5,277 195.5,278 195.5,278 188.002,281.749 177.96,286.27 170.5,290 169.553,290.474 159,292.587 159,291.5 159,287.924 167.595,286.953 169.5,286 169.5,286 173.5,282 173.5,282 178.756,279.372 184.27,276.615 189.5,274 192.389,272.556 198.374,271.126 200.5,269 201.428,268.072 208,262.192 208,265  Z"/>

<path  fill="#E1F00D" stroke-width="0" stroke="#E1F00D" d = " M306 276 C307.178,276 312,278.572 312,280 310.583,280 306,277.617 306,276  Z"/>

<path  fill="#E1F00D" stroke-width="0" stroke="#E1F00D" d = " M313 280 C314.238,280 316,280.423 316,282 316,282 313,280 313,280  Z"/>

<path  fill="#E1F00D" stroke-width="0" stroke="#E1F00D" d = " M357 288 C356.104,288 353.974,290 356,290 356,290 357,288 357,288  Z"/>

<path  fill="#022CFF" stroke-width="0" stroke="#022CFF" d = " M243 318 C243,320.488 245,319.919 245,318 245,310.564 246,303.516 246,297.5 246,296.118 243.885,289.307 242.5,290 240.519,290.99 243,295.106 243,296.5 243,303.139 243,309.725 243,318  Z"/>

<path  fill="#E1F00D" stroke-width="0" stroke="#E1F00D" d = " M355 291 L354,292 C354,292 355,291 355,291  Z"/>

<path  fill="#FFBB00" stroke-width="0" stroke="#FFBB00" d = " M156 292 C156,295.119 162.303,292 156,292  Z"/>

<path  fill="#267EFF" stroke-width="0" stroke="#267EFF" d = " M239 324 C239,327.589 227,328.396 227,330.5 L229,332.5 L229.5,337 C234.845,339.673 268.281,338.062 264,329.5 262.946,327.392 257.384,326.942 255.5,326 253.02,324.76 253.063,324 250,324 247.343,324 242.824,324 239,324  Z"/>

<path  fill="#FA8072" stroke-width="0" stroke="#FA8072" d = " M114 340 L113,343.5 C113,345.658 115.297,344 115.5,344 L119.5,349 C120.635,349 120.882,348.191 122.5,349 124.247,349.874 128.376,355 129.5,355 134.757,355 129.685,344.093 127.5,343 126.019,342.259 121.617,345 120.5,345 118.269,345 116.93,340 114,340  Z"/>

<path  fill="#FA8072" stroke-width="0" stroke="#FA8072" d = " M362 341 L359,344.5 L359.5,349 C357.546,349.977 356.455,346.591 356,347.5 355.51,348.481 351.614,361 355.5,361 L358.5,359 L361.5,361 C365.054,361 362,352.309 362,351.5 L365.5,351 L368,347.5 C369.767,343.965 364.673,341 362,341  Z"/>

<path  fill="#FA8072" stroke-width="0" stroke="#FA8072" d = " M298 347 C298,348.843 290.064,353.372 289,355.5 L290,362.5 L291.5,365 C287.455,365 284.484,360.532 281,367.5 279.303,370.893 280.543,383.587 282,386.5 282.875,388.25 286.993,388.246 288.5,389 290.216,389.858 293.237,395.132 295.5,394 L298.5,390 L301.5,391 L303.5,387 C307.772,384.864 313.655,383.19 316,378.5 317.863,374.774 314.024,370.451 316,366.5 318.259,361.981 325.472,363.445 321,354.5 319.129,350.757 309.742,351.621 306.5,350 303.876,348.688 301.155,347 298,347  Z"/>

<path  fill="#FA8072" stroke-width="0" stroke="#FA8072" d = " M182 351 C182,355.477 164.795,358.091 168,364.5 169.214,366.927 178.509,371.517 180,374.5 180.893,376.287 176.453,380.406 178,383.5 181.25,390.001 182.931,386 185.5,386 185.736,386 185.172,392.836 189.5,395 190.836,395.668 199.322,394 201.5,394 L203.5,391 C206.853,391 202.866,396.317 207.5,394 209.884,392.808 209.774,370.048 208,366.5 206.38,363.26 198.744,362.989 197,359.5 L196,353 L196.5,351 C194.927,350.214 183.924,351 182,351  Z"/>

<path  fill="#FA8072" stroke-width="0" stroke="#FA8072" d = " M134 352 C134,353.791 130.73,354.959 132,357.5 135.777,365.054 144.234,352 134,352  Z"/>

<path  fill="#FA8072" stroke-width="0" stroke="#FA8072" d = " M341 368 L338,371.5 C336.745,374.011 341.512,378 343.5,378 345.98,378 350.004,368 341,368  Z"/>

<path  fill="#FA8072" stroke-width="0" stroke="#FA8072" d = " M150 369 C150,370.785 144.14,371.779 146,375.5 147.257,378.014 153.938,384.781 157.5,383 160.906,381.297 162.305,371.902 158.5,370 156.472,368.986 153.888,371 152.5,371 151.87,371 151.812,369 150,369  Z"/>

<path  fill="#FA8072" stroke-width="0" stroke="#FA8072" d = " M303 393 C303,394.93 304.93,393 303,393  Z"/>

</g>
</svg>
