<svg xmlns="http://www.w3.org/2000/svg" xmlns:xlink="http://www.w3.org/1999/xlink" height="512" width="512">
<g>
<rect width="512" height="512" fill="#000000"  stroke-width="0" /> 
<path  fill="#03C12D" stroke-width="0" stroke="#03C12D" d = " M52 214 C52,215.564 43.8589,215.321 42.5,216 39.3966,217.552 41.2282,214 39.5,214 38.5698,214 39.5328,217 37,217 35.4771,217 32.7885,216.923 34,214.5 34,214.5 36,213.5 36,213.5 36,213.5 33,212.5 33,212.5 33,209.206 35.8745,187.751 38,183.5 38,183.5 42,178.5 42,178.5 44.3221,173.856 43.2682,166.964 46,161.5 52.9413,147.617 64.1303,128.185 78.5,121 80.3776,120.061 86.6213,110.939 90.5,109 106.577,100.962 122.445,93.0276 138.5,85 145.651,81.4247 154.23,80.6351 161.5,77 161.5,77 169.5,76 169.5,76 169.5,76 173.5,72 173.5,72 177.789,69.8553 186.708,71.3958 191.5,69 195.458,67.0209 197.946,72 200.5,72 200.5,72 202.5,70 202.5,70 207.342,70 213.391,72.9457 217.5,75 221.742,77.121 230.401,91.0495 238.5,87 244.719,83.8905 251.008,78.7461 256.5,76 261.323,73.5883 266.641,72.4294 271.5,70 271.5,70 288,70 288,70 305.846,70 321.8,70.6498 336.5,78 338.603,79.0516 346.854,78.6772 347.5,79 347.5,79 349.5,82 349.5,82 349.5,82 353.5,82 353.5,82 353.5,82 360.5,88 360.5,88 367.193,91.3465 374.763,93.6314 381.5,97 384.902,98.701 388.148,101.324 391.5,103 391.5,103 394.5,108 394.5,108 396.171,108 397.736,104.618 400.5,106 406.682,109.091 412.708,120.104 416.5,122 418.783,123.141 433,139.165 433,141.5 433,142.499 431.19,143.881 432,145.5 432,145.5 435,147.5 435,147.5 437.211,151.922 439.761,156.022 442,160.5 444.438,165.376 442.585,172.671 445,177.5 449.844,187.188 453,199.558 453,210 445.446,210 434.364,200.568 425.5,205 424.215,205.642 422.471,208 421.5,208 421.5,208 420.5,205 420.5,205 420.5,205 419.5,208 419.5,208 419.5,208 418.5,206 418.5,206 418.331,206 417,213.239 417,208 417,206.535 417.109,204 415,204 415,204 414,200 414,200 414,200 413,198 413,198 413,193.63 411,192.403 411,189 411,187.959 410.014,184 409,184 409,184 408,179 408,179 408,177.423 406.238,177 405,177 405,169.802 396.68,165.861 394,160.5 383.54,139.581 352.901,128.701 333.5,119 331.257,117.878 323.651,117.076 319.5,115 311.077,110.789 299.078,112.789 291.5,109 290.376,108.438 284.415,104.669 283,107.5 281.119,111.263 296,117.444 296,121 294.734,121 293.692,117.904 291.5,119 285.985,121.757 281.183,126.159 275.5,129 273.105,130.197 269,129.041 269,133 265.929,133 263.638,135 260,135 260,135 255.5,135 255.5,135 252.706,133.603 241.399,100.703 233,117.5 231.717,120.066 232.267,123.966 231,126.5 230.538,127.424 227,129.788 227,132 227,132 222,136 222,136 222,136 216,136 216,136 216,136 213.5,132 213.5,132 213.5,132 205.5,131 205.5,131 204.14,130.32 202.439,127.969 200.5,127 200.5,127 198.5,121 198.5,121 196.084,121 194.836,125.668 191.5,124 189.522,123.011 189.477,121 187,121 187,109.737 171.816,115.842 165.5,119 163.071,120.214 160.025,120.737 157.5,122 157.5,122 154,122.5 154,122.5 154,125.897 148.687,125.407 145.5,127 134.316,132.592 124.406,137.547 113.5,143 95.6083,151.946 83.9681,176.564 76,192.5 75.2449,194.01 68,212.665 68,213 68,213 66.5,215 66.5,215 66.5,215 65.5,212 65.5,212 65.5,212 63.5,214 63.5,214 60.7281,215.386 56.2312,213 54,213 52.0797,213 48.1272,214 52,214  Z"/>

<path  fill="#FF6E00" stroke-width="0" stroke="#FF6E00" d = " M406 266 C406,273.741 397,272.39 397,276 397,279.89 404.049,273.774 404.5,274 407.949,275.725 407.763,264 413,264 413,264 413,262 413,262 413,262 414,261 414,261 414,261 414,259 414,259 414,257.765 413.357,254 415,254 415,239.932 416,224.867 416,208 414.421,208 415,205.145 415,204 415,204 414,200 414,200 414,200 413,198 413,198 413,193.63 411,192.403 411,189 408.539,189 409,185.622 409,184 409,184 408,179 408,179 408,179 405,177 405,177 405,169.802 396.68,165.861 394,160.5 383.54,139.581 352.901,128.701 333.5,119 331.257,117.878 323.651,117.076 319.5,115 311.077,110.789 299.078,112.789 291.5,109 290.376,108.438 284.415,104.669 283,107.5 281.119,111.263 296,117.444 296,121 298.54,121 298.543,124 300,124 301.577,124 302,125.762 302,127 302,131.894 309.581,134.541 312.5,136 325.214,142.357 333.731,129.616 350.5,138 352.146,138.823 364,141.426 364,143 372.913,143 385.346,159.846 390.5,165 393.65,168.15 400,173.661 400,178 400,178 401,179 401,179 401,179 402,181 402,181 402,181 403,183 403,183 403,185.637 406.245,186.99 407,188.5 409.913,194.326 410.059,201.618 413,207.5 416.753,215.006 412,238.023 412,246 413.486,246 413.486,249 412,249 412,252.023 410,255.763 410,260 410,260 409,261 409,261 409,262.238 407.077,266 406,266  Z"/>

<path  fill="#022CFF" stroke-width="0" stroke="#022CFF" d = " M260 137 C254.34,137 245.182,149 244.5,149 L243.5,147 C239.099,144.8 234.137,138 229,138 229,138 227,132 227,132 227,129.788 230.538,127.424 231,126.5 232.267,123.966 231.717,120.066 233,117.5 241.399,100.703 252.706,133.603 255.5,135 255.5,135 260,135 260,135 260,135 260,137 260,137  Z"/>

<path  fill="#FF6E00" stroke-width="0" stroke="#FF6E00" d = " M99 285 C99,286.473 97.0479,286 96,286 96,286 92,284 92,284 85.9137,284 81.4032,275 76,275 76,272.931 73,271.054 73,270 73,265.693 70,263.017 70,258 70,258 70,256 70,256 70,241.92 68,227.871 68,213 68,212.665 75.2449,194.01 76,192.5 83.9681,176.564 95.6083,151.946 113.5,143 124.406,137.547 134.316,132.592 145.5,127 148.687,125.407 154,125.897 154,122.5 154,122.5 157.5,122 157.5,122 160.025,120.737 163.071,120.214 165.5,119 171.816,115.842 187,109.737 187,121 183.792,121 183.943,128.613 183,130.5 180.352,135.797 175.609,139.445 170.5,142 165.074,144.713 153.608,141.054 149.5,139 144.505,136.502 134.346,142.077 130.5,144 128.654,144.923 121,145.101 121,148 118.596,148 99,164.463 99,166 99,166 98,167 98,167 98,167 98,168 98,168 98,168 96,169 96,169 94.2884,169 93,171.571 93,173 93,175.773 89,176.67 89,179 87.8141,179 87.8141,180 89,180 89,180 84,188 84,188 84,188 83,189 83,189 83,193.528 77.0048,199.49 75,203.5 73.0054,207.489 73.0251,212.45 71,216.5 68.1026,222.295 72,241.706 72,248.5 72,252.477 74.7449,270 78,270 78,277.387 99,282.606 99,285  Z"/>

<path  fill="#DDD951" stroke-width="0" stroke="#DDD951" d = " M313 155 C317.273,155 322.531,160 329,160 335.622,160 346.287,162.606 351.5,160 352.85,159.325 351.325,156.85 352,155.5 354.054,151.392 358.846,149.808 361,145.5 361,145.5 364,143 364,143 364,141.426 352.146,138.823 350.5,138 333.731,129.616 325.214,142.357 312.5,136 309.581,134.541 302,131.894 302,127 300.423,127 300,125.238 300,124 298.543,124 298.54,121 296,121 294.734,121 293.692,117.904 291.5,119 285.985,121.757 281.183,126.159 275.5,129 273.105,130.197 269,129.041 269,133 269,136.387 272,136.794 272,138 272,138 274,138 274,138 274,135.578 279.353,138 280.5,138 283.97,138 298,140.301 298,144 298,144 299,145 299,145 299,143.385 305,145.817 305,149 305,149 306,149 306,149 307.803,149 309,148.607 309,152 309,152 311,153 311,153 311,153 312,154 312,154 312,154 313,155 313,155  Z"/>

<path  fill="#DDD951" stroke-width="0" stroke="#DDD951" d = " M156 163 L159,163 C161.389,163 164.987,162 168,162 168,160.527 169.952,161 171,161 171,161 172,160 172,160 174.33,160 180.212,151 184,151 184,151 185,150 185,150 185,150 189,148 189,148 189,148 191,147 191,147 191,145.527 192.952,146 194,146 200.552,146 206.671,140 213,140 213,140 214,139 214,139 214,139 216,139 216,139 216,139 216,136 216,136 216,136 213.5,132 213.5,132 213.5,132 205.5,131 205.5,131 204.14,130.32 202.439,127.969 200.5,127 200.5,127 198.5,121 198.5,121 196.084,121 194.836,125.668 191.5,124 189.522,123.011 189.477,121 187,121 183.792,121 183.943,128.613 183,130.5 180.352,135.797 175.609,139.445 170.5,142 165.074,144.713 153.608,141.054 149.5,139 144.505,136.502 134.346,142.077 130.5,144 128.654,144.923 121,145.101 121,148 121,148 127,152.5 127,152.5 130.811,160.122 134.567,165.967 142.5,162 146.099,160.201 152.856,163 156,163  Z"/>

<path  fill="#5600DD" stroke-width="0" stroke="#5600DD" d = " M321 181 L315,174.5 L312,166.5 C310.495,163.491 306.646,165.792 305,162.5 302.969,158.437 285.111,151.306 278.5,148 278.172,147.836 268.433,148 267.5,148 266.411,148 250.705,154.091 250,155.5 L249,164.5 C248.224,166.052 244.254,168.877 242.5,168 235.056,164.278 240.824,160.149 238,154.5 L230.5,152 L228.5,148 L225.5,150 L224.5,148 C223.451,148 220.549,148 219.5,148 L216.5,150 L214.5,148 C212.225,148 184.097,162.702 183.5,163 L177,168.5 C176.615,169.271 176.865,173 176.5,173 L175.5,171 C171.244,171 171.754,183 168,183 168,180.965 163.987,176.525 165,174.5 165,174.5 169,163 169,163 169,163 171,161 171,161 171,161 172,160 172,160 174.33,160 180.212,151 184,151 184,151 185,150 185,150 185,150 189,148 189,148 189,148 191,147 191,147 192.048,147 194,147.473 194,146 200.552,146 206.671,140 213,140 213,140 214,139 214,139 214,139 216,139 216,139 217.738,139 222,138.314 222,136 224.833,136 226.84,138 229,138 234.137,138 239.099,144.8 243.5,147 243.5,147 244.5,149 244.5,149 245.182,149 254.34,137 260,137 260,137 272,138 272,138 272,138 274,138 274,138 281.742,138 289.947,144 298,144 298,144 299,145 299,145 299,146.428 303.822,149 305,149 305,149 306,149 306,149 306,149 309,152 309,152 309,152 311,153 311,153 311,153 312,154 312,154 312,154 313,155 313,155 313,155.873 321.848,166.196 323,168.5 324.355,171.211 324.833,181 321,181  Z"/>

<path  fill="#0E47E2" stroke-width="0" stroke="#0E47E2" d = " M325 285 C325,291.591 337.218,288 341,288 341,280.512 364.584,262.458 371.5,259 373.615,257.942 376.461,258.019 378.5,257 380.865,255.817 383.223,254.138 385.5,253 385.5,253 386.5,250 386.5,250 389.039,250 387.229,255.865 389.5,257 391.515,258.007 405.002,266 406,266 407.077,266 409,262.238 409,261 409,261 410,260 410,260 410,255.763 412,252.023 412,249 412,249 412,246 412,246 412,238.023 416.753,215.006 413,207.5 410.059,201.618 409.913,194.326 407,188.5 406.245,186.99 403,185.637 403,183 403,183 402,181 402,181 402,181 401,179 401,179 401,179 400,178 400,178 400,173.661 393.65,168.15 390.5,165 385.346,159.846 372.913,143 364,143 364,143 361,145.5 361,145.5 358.846,149.808 354.054,151.392 352,155.5 351.325,156.85 352.85,159.325 351.5,160 346.287,162.606 335.622,160 329,160 329,160 327,166.5 327,166.5 324.125,172.249 330.205,179.909 332,183.5 333.513,186.527 349,193.005 349,202 352.153,202 356.583,220 352,220 352,220 352,224 352,224 352,226.834 350.623,237.253 350,238.5 350,238.5 343,245.5 343,245.5 343,245.5 343,250.5 343,250.5 342.705,251.09 334.585,256.33 333,259.5 330.354,264.792 333.52,270.46 331,275.5 328.876,279.748 325,279.675 325,285  Z"/>

<path  fill="#0E47E2" stroke-width="0" stroke="#0E47E2" d = " M143 291 L143,292 C143,292 150.5,296 150.5,296 150.5,296 152.5,294 152.5,294 156.943,291.779 157.403,295.694 160,290.5 160,290.5 161,287.5 161,287.5 161,287.5 157,282 157,282 157,282 153,279.5 153,279.5 151.051,275.602 153.911,269.322 152,265.5 147.119,255.738 134,246.261 134,235 134,235 134,234 134,234 133.689,234 128,229.113 128,228.5 128,226.698 131,227.45 131,225 129.265,225 130,218.49 130,217 130,214.435 129.764,212 133,212 133,212 134,210 134,210 134,210 135,208 135,208 135,205.42 139,204.789 139,202 139,202 140,201 140,201 140,201 142,199 142,199 142,199 144,198 144,198 144,198 145,197 145,197 145,194.452 147.687,193 150,193 150,193 151,191 151,191 151,191 152,190 152,190 153.368,190 156,184.122 156,183 156,183 157,182 157,182 159.729,182 158,181.577 158,180 158,180 159,179 159,179 159,179 160,177 160,177 156.969,177 159.006,173 160,173 160,173 160,172 160,172 158.814,172 158.814,171 160,171 160,168.259 158,168.732 158,166 158,166 156,163 156,163 152.856,163 146.099,160.201 142.5,162 134.567,165.967 130.811,160.122 127,152.5 127,152.5 121,148 121,148 118.596,148 99,164.463 99,166 99,166 98,167 98,167 98,167 98,168 98,168 98,168 96,169 96,169 96,170.429 94.7116,173 93,173 93,175.773 89,176.67 89,179 89,179 89,180 89,180 89,180 84,188 84,188 84,188 83,189 83,189 83,193.528 77.0048,199.49 75,203.5 73.0054,207.489 73.0251,212.45 71,216.5 68.1026,222.295 72,241.706 72,248.5 72,252.477 74.7449,270 78,270 78,266.339 85.7774,264.361 88.5,263 90.7881,261.856 93.6542,258.423 96.5,257 96.5,257 97.5,254 97.5,254 97.5,254 98,255.5 98,255.5 98.7113,256.923 121.397,271 122,271 122,271 123,272 123,272 125.014,272 140,281.277 140,285 140,285 142,288 142,288 142,288 142,290 142,290 142,290 143,291 143,291  Z"/>

<path  fill="#E1970F" stroke-width="0" stroke="#E1970F" d = " M212 205 L212,207 C212,210.218 214.923,226 209.5,226 209.5,226 208.5,224 208.5,224 206.532,223.016 201.535,229.518 198.5,228 195.167,226.334 190.784,226.642 187.5,225 184.194,223.347 184.045,219.273 181.5,218 181.5,218 177.5,218 177.5,218 173.182,215.841 166,208.484 166,203 166,200.291 166,198.354 166,195 166,191.336 168,186.997 168,183 171.754,183 171.244,171 175.5,171 175.5,171 176.5,173 176.5,173 176.865,173 176.615,169.271 177,168.5 177,168.5 183.5,163 183.5,163 184.097,162.702 212.225,148 214.5,148 214.5,148 216.5,150 216.5,150 216.5,150 219.5,148 219.5,148 220.549,148 223.451,148 224.5,148 224.5,148 225.5,150 225.5,150 225.5,150 228.5,148 228.5,148 228.5,148 230.5,152 230.5,152 230.5,152 238,154.5 238,154.5 240.824,160.149 235.056,164.278 242.5,168 244.254,168.877 248.224,166.052 249,164.5 249,164.5 250,155.5 250,155.5 250.705,154.091 266.411,148 267.5,148 268.433,148 278.172,147.836 278.5,148 285.111,151.306 302.969,158.437 305,162.5 306.646,165.792 310.495,163.491 312,166.5 312,166.5 315,174.5 315,174.5 315,174.5 321,181 321,181 321,186.283 324,192.335 324,198 324,198 324,201 324,201 322.719,201 320.157,199.187 319,201.5 317.756,203.989 321.668,204.165 320,207.5 318.009,211.482 305.686,227.407 302.5,229 302.5,229 296.5,229 296.5,229 296.5,229 295.5,231 295.5,231 293.847,231.826 291.69,230.595 290.5,230 282.831,226.165 281.649,223.799 278,216.5 278,216.5 278,210.5 278,210.5 278,210.5 275,210 275,210 275,205.028 275.5,199.5 273,194.5 268.918,186.336 248.61,178.945 240.5,183 240.5,183 229.5,184 229.5,184 226.159,185.671 213,198.66 213,202 211.527,202 212,203.952 212,205  Z"/>

<path  fill="#022CFF" stroke-width="0" stroke="#022CFF" d = " M344 199 C346.364,199 347.053,202 349,202 349,193.005 333.513,186.527 332,183.5 330.205,179.909 324.125,172.249 327,166.5 327,166.5 329,160 329,160 322.531,160 317.273,155 313,155 313,155.873 321.848,166.196 323,168.5 324.355,171.211 324.833,181 321,181 321,186.283 324,192.335 324,198 325.602,198 326.384,201.058 328.5,200 329.625,199.437 342,194.435 342,198 342,198 344,199 344,199  Z"/>

<path  fill="#022CFF" stroke-width="0" stroke="#022CFF" d = " M166 195 C164.924,195 164.54,199.98 162.5,201 160.136,202.182 156.804,200 155,200 155,197.831 152.101,195 150,195 150,195 150,193 150,193 150,193 151,191 151,191 151,191 152,190 152,190 153.368,190 156,184.122 156,183 156,183 157,182 157,182 159.729,182 158,181.577 158,180 158,180 159,179 159,179 159,179 160,177 160,177 160,177 160,173 160,173 160,173 160,172 160,172 160,172 160,171 160,171 160,168.259 158,168.732 158,166 158,166 159,163 159,163 161.389,163 164.987,162 168,162 168,162 169,163 169,163 169,163 165,174.5 165,174.5 163.987,176.525 168,180.965 168,183 168,186.997 166,191.336 166,195  Z"/>

<path  fill-rule="evenodd" fill="#07FF59" stroke-width="0" stroke="#07FF59" d = " M243 203 L240,204.5 L242,207.5 L242,214.5 C243.944,218.388 250.677,203 243,203  M235 235 L237,239 C237,239 244.5,243 244.5,243 246.255,242.123 247.88,240.81 249.5,240 252.797,238.351 250.798,234.904 252,232.5 252,232.5 258,227.5 258,227.5 258,227.5 258,223.5 258,223.5 261.92,215.66 275,215.397 275,210 275,205.028 275.5,199.5 273,194.5 268.918,186.336 248.61,178.945 240.5,183 240.5,183 229.5,184 229.5,184 226.159,185.671 213,198.66 213,202 213,203.048 213.473,205 212,205 212,205 212,207 212,207 215.177,207 213.308,212.904 215.5,214 215.5,214 220.5,214 220.5,214 220.5,214 222.5,218 222.5,218 222.5,218 226.5,218 226.5,218 230.006,219.753 228.611,225.721 230,228.5 231.379,231.258 235,232.278 235,235  Z"/>

<path  fill="#006400" stroke-width="0" stroke="#006400" d = " M142 240 L152,240 C152,240 154.5,242 154.5,242 157.994,242 155.4,237.7 156,236.5 156.548,235.404 159.468,226.435 159,225.5 159,225.5 157,220.5 157,220.5 157,220.5 159,216.5 159,216.5 159,215.008 155,208.023 155,206 155,206 156,205 156,205 156,205 155,200 155,200 155,197.831 152.101,195 150,195 150,195 145,197 145,197 145,197 144,198 144,198 144,198 142,199 142,199 142,202.162 142.109,201 140,201 140,201 139,202 139,202 139,204.789 135,205.42 135,208 135,208 134,210 134,210 134,210 133,212 133,212 133,213.777 131.9,217 130,217 130,218.49 129.265,225 131,225 132.139,225 134,232.742 134,234 134,234 134,235 134,235 137.103,235 139.466,240 142,240  Z"/>

<path  fill="#006400" stroke-width="0" stroke="#006400" d = " M343 230 C339.382,230 340.163,231 336,231 336,228.588 331.327,227.154 330,224.5 330,224.5 332,218.5 332,218.5 330.81,216.121 330,207.532 330,205 332.553,205 329.479,202.51 330.5,202 333.351,200.575 339.776,198 342,198 342,198 344,199 344,199 344,199 349,203.5 349,203.5 351.463,208.426 352,214.02 352,220 352,220 352,224 352,224 350.109,224 346.882,230 343,230  Z"/>

<path  fill="#9953FF" stroke-width="0" stroke="#9953FF" d = " M210 295 L213,296 C218.334,296 221.022,291 227,291 227,291 225,289.5 225,289.5 225,286.595 228.818,286.841 230.5,286 230.5,286 236.5,280 236.5,280 243.269,276.616 251.134,279.767 254,285.5 255.037,287.573 260,285.949 260,290 260,290 267.5,294 267.5,294 269.661,295.081 272.394,293 274,293 274,284.66 281.888,286.724 284,282.5 285.22,280.059 284,278.451 284,276.5 284,273.537 302.725,256.387 305.5,255 309.364,253.068 323,255.646 323,261 323,261 324,261 324,261 324,258.725 320.707,257 326,257 326,257 327,257 327,257 327,255.952 326.527,254 328,254 328,251.347 328.15,248 330,248 330,246.619 336,238.5 336,231 336,228.588 331.327,227.154 330,224.5 330,224.5 332,218.5 332,218.5 330.81,216.121 330,207.532 330,205 326.469,205 326.926,201 324,201 322.719,201 320.157,199.187 319,201.5 317.756,203.989 321.668,204.165 320,207.5 318.009,211.482 305.686,227.407 302.5,229 302.5,229 296.5,229 296.5,229 296.5,229 295.5,231 295.5,231 293.847,231.826 291.69,230.595 290.5,230 282.831,226.165 281.649,223.799 278,216.5 278,216.5 278,210.5 278,210.5 278,210.5 275,210 275,210 275,215.397 261.92,215.66 258,223.5 258,223.5 258,227.5 258,227.5 258,227.5 252,232.5 252,232.5 250.798,234.904 252.797,238.351 249.5,240 247.88,240.81 246.255,242.123 244.5,243 244.5,243 237,239 237,239 234.891,239 235,236.465 235,235 235,232.278 231.379,231.258 230,228.5 228.611,225.721 230.006,219.753 226.5,218 226.5,218 222.5,218 222.5,218 222.5,218 220.5,214 220.5,214 220.5,214 215.5,214 215.5,214 213.308,212.904 215.177,207 212,207 212,210.218 214.923,226 209.5,226 209.5,226 208.5,224 208.5,224 206.532,223.016 201.535,229.518 198.5,228 195.167,226.334 190.784,226.642 187.5,225 184.194,223.347 184.045,219.273 181.5,218 181.5,218 177.5,218 177.5,218 173.182,215.841 166,208.484 166,203 162.058,203 159.255,205 156,205 156,205 155,206 155,206 155,208.023 159,215.008 159,216.5 159,216.5 157,220.5 157,220.5 157,220.5 159,225.5 159,225.5 159.468,226.435 156.548,235.404 156,236.5 155.4,237.7 157.994,242 154.5,242 154.5,242 152,240 152,240 152,240 152,243 152,243 155.14,243 152.504,245.508 153,246.5 153.888,248.277 155.862,243.225 158,247.5 159.118,249.737 154.867,255 161,255 168.34,255 177.487,255.494 184.5,259 185.356,259.428 183.384,260.942 185.5,262 187.702,263.101 187.412,259.325 189,262.5 189,262.5 197,270.5 197,270.5 197,270.5 196,272.5 196,272.5 197.365,275.23 199.058,271.615 200,273.5 200,273.5 201,278.5 201,278.5 201,278.5 211,288.5 211,288.5 212.081,290.661 210,293.394 210,295  Z"/>

<path  fill="#022CFF" stroke-width="0" stroke="#022CFF" d = " M243 203 L240,204.5 L242,207.5 L242,214.5 C243.944,218.388 250.677,203 243,203  Z"/>

<path  fill="#DD6479" stroke-width="0" stroke="#DD6479" d = " M416 254 C416,252.697 420.349,254 422.5,254 429.617,254 434.93,256 442,256 442,256 440,252.5 440,252.5 440,252.5 446,247.5 446,247.5 446,247.5 449,240.5 449,240.5 449,240.5 449,235.5 449,235.5 453.279,226.941 453,219.216 453,210 445.446,210 434.364,200.568 425.5,205 424.215,205.642 422.471,208 421.5,208 421.5,208 420.5,205 420.5,205 420.5,205 419.5,208 419.5,208 419.5,208 418.5,206 418.5,206 418.331,206 417,213.239 417,208 417,208 416,208 416,208 416,224.867 415,239.932 415,254 415,254 416,254 416,254  Z"/>

<path  fill="#DD6479" stroke-width="0" stroke="#DD6479" d = " M69 257 C67.0847,257 62.5898,255.455 61.5,256 56.5248,258.488 49.9493,260 44,260 44,260 46,255.5 46,255.5 46,255.5 42,253.5 42,253.5 42,253.5 39,247.5 39,247.5 39,247.5 35,244.5 35,244.5 32.7225,239.945 32.758,234.016 30,228.5 26.0964,220.693 37,217.997 37,217 39.5328,217 38.5698,214 39.5,214 41.2282,214 39.3966,217.552 42.5,216 43.8589,215.321 52,215.564 52,214 52,214 54,213 54,213 56.2312,213 60.7281,215.386 63.5,214 63.5,214 65.5,212 65.5,212 65.5,212 66.5,215 66.5,215 66.5,215 68,213 68,213 68,227.871 70,241.92 70,256 70,256 69,257 69,257  Z"/>

<path  fill="#022CFF" stroke-width="0" stroke="#022CFF" d = " M320 285 L325,285 C325,279.675 328.876,279.748 331,275.5 333.52,270.46 330.354,264.792 333,259.5 334.585,256.33 342.705,251.09 343,250.5 343,250.5 343,245.5 343,245.5 343,245.5 350,238.5 350,238.5 350.623,237.253 352,226.834 352,224 350.109,224 346.882,230 343,230 343,231.516 334.179,246.143 333,248.5 333,248.5 332,257.5 332,257.5 331.25,259 330.079,265 328,265 328,273.841 320,282.63 320,285  Z"/>

<path  fill="#022CFF" stroke-width="0" stroke="#022CFF" d = " M131 225 C132.139,225 134,232.742 134,234 133.689,234 128,229.113 128,228.5 128,226.698 131,227.45 131,225  Z"/>

<path  fill="#022CFF" stroke-width="0" stroke="#022CFF" d = " M157 282 C159.59,282 160.131,287 166,287 166,283.761 159.05,280.599 158,278.5 154.721,271.941 156.798,263.096 153,255.5 151.891,253.283 146,245.163 146,244 146,244 142,240 142,240 139.466,240 137.103,235 134,235 134,246.261 147.119,255.738 152,265.5 153.911,269.322 151.051,275.602 153,279.5 153,279.5 157,282 157,282  Z"/>

<path  fill="#FF3427" stroke-width="0" stroke="#FF3427" d = " M210 295 L213,296 C213,305.193 203.676,300.412 200.5,302 191.985,306.257 166,295.165 166,287 166,283.761 159.05,280.599 158,278.5 154.721,271.941 156.798,263.096 153,255.5 151.891,253.283 146,245.163 146,244 146,238.492 149.888,243 152,243 155.14,243 152.504,245.508 153,246.5 153.888,248.277 155.862,243.225 158,247.5 159.118,249.737 154.867,255 161,255 161,255 159,259.5 159,259.5 163.627,268.754 163.237,287 178,287 178,287 180,289 180,289 181.481,289 180.785,291 183,291 183,291 184,292 184,292 184,292 185,292 185,292 185,292 187,292 187,292 187,292 191,293 191,293 191,293 192,294 192,294 194.613,294 196.36,294.93 198.5,296 198.5,296 210,295 210,295  Z"/>

<path  fill="#DD6479" stroke-width="0" stroke="#DD6479" d = " M412 246 C413.486,246 413.486,249 412,249 412,249 412,246 412,246  Z"/>

<path  fill="#FF3427" stroke-width="0" stroke="#FF3427" d = " M280 296 L282,296 C282,296 283,295 283,295 286.745,295 289.602,295 294,295 295.148,295 304,295.175 304,292 304,292 306,291 306,291 306,291 308,289 308,289 309.422,289 314,286.967 314,285 315.473,285 315,283.048 315,282 319.31,282 322,273.826 322,270 322,270 323,269 323,269 323,269 323,267 323,267 324.684,267 324,262.321 324,261 324,258.725 320.707,257 326,257 326,258.186 327,258.186 327,257 328.473,257 328,255.048 328,254 328,251.347 328.15,248 330,248 330,248 331,256.5 331,256.5 329.457,259.586 328,261.18 328,265 328,273.841 320,282.63 320,285 320,285 311.5,295 311.5,295 303.386,299.057 299.821,300.84 293.5,304 291.648,304.926 280.506,303.003 278.5,302 275.822,300.661 271.417,295 277,295 277,295 278,295 278,295 278,295 280,296 280,296  Z"/>

<path  fill="#DDD951" stroke-width="0" stroke="#DDD951" d = " M365 289 L363,290 C363,290 352.5,292 352.5,292 350.049,290.775 343.595,289 341,289 341,289 341,288 341,288 341,280.512 364.584,262.458 371.5,259 373.615,257.942 376.461,258.019 378.5,257 380.865,255.817 383.223,254.138 385.5,253 385.5,253 386.5,250 386.5,250 389.039,250 387.229,255.865 389.5,257 391.515,258.007 405.002,266 406,266 406,273.741 397,272.39 397,276 395.576,276 392,276.362 392,278 392,278 391,279 391,279 385.38,279 379.696,283 375,283 375,283 374,284 374,284 372.057,284 365,286.976 365,289  Z"/>

<path  fill="#2E8B57" stroke-width="0" stroke="#2E8B57" d = " M414 266 C414,267.802 420.346,269 422,269 429.614,269 437.843,272 445,272 445,269.229 448.469,256 442,256 434.93,256 429.617,254 422.5,254 420.349,254 416,252.697 416,254 416,254.671 414.672,259 414,259 414,259 414,261 414,261 414,261 413,262 413,262 413,262 413,264 413,264 413,264 413,265 413,265 413,265 414,266 414,266  Z"/>

<path  fill="#DDD951" stroke-width="0" stroke="#DDD951" d = " M142 291 C142,299.467 125.521,293 121,293 121,290.067 116.999,290 115,290 115,290 113,289 113,289 112.662,289 102.779,285 99,285 99,282.606 78,277.387 78,270 78,266.339 85.7774,264.361 88.5,263 90.7881,261.856 93.6542,258.423 96.5,257 96.5,257 97.5,254 97.5,254 97.5,254 98,255.5 98,255.5 98.7113,256.923 121.397,271 122,271 122,271 123,272 123,272 125.014,272 140,281.277 140,285 140,286.238 140.423,288 142,288 142,288 142,290 142,290 142,290 142,291 142,291  Z"/>

<path  fill="#FFBA00" stroke-width="0" stroke="#FFBA00" d = " M280 296 L282,296 C282,296 283,295 283,295 286.745,295 289.602,295 294,295 294,292.936 297.353,294.574 298.5,294 298.5,294 301.5,291 301.5,291 301.5,291 304,292 304,292 304,292 306,291 306,291 306,289.253 306.253,289 308,289 309.422,289 314,286.967 314,285 314,283.952 313.527,282 315,282 319.31,282 322,273.826 322,270 322,270 323,269 323,269 323,269 323,267 323,267 323,267 323,261 323,261 323,255.646 309.364,253.068 305.5,255 302.725,256.387 284,273.537 284,276.5 284,278.451 285.22,280.059 284,282.5 281.888,286.724 274,284.66 274,293 274,293 277,295 277,295 277,295 278,295 278,295 278,295 280,296 280,296  Z"/>

<path  fill="#FFBA00" stroke-width="0" stroke="#FFBA00" d = " M192 294 C194.613,294 196.36,294.93 198.5,296 L210,295 C210,293.394 212.081,290.661 211,288.5 211,288.5 201,278.5 201,278.5 201,278.5 200,273.5 200,273.5 199.058,271.615 197.365,275.23 196,272.5 196,272.5 197,270.5 197,270.5 197,270.5 189,262.5 189,262.5 187.412,259.325 187.702,263.101 185.5,262 183.384,260.942 185.356,259.428 184.5,259 177.487,255.494 168.34,255 161,255 161,255 159,259.5 159,259.5 163.627,268.754 163.237,287 178,287 178,287 180,289 180,289 181.481,289 180.785,291 183,291 183,291 184,292 184,292 184,292 185,292 185,292 185,290.601 187,290.601 187,292 187,292 191,293 191,293 191,293 192,294 192,294  Z"/>

<path  fill="#2E8B57" stroke-width="0" stroke="#2E8B57" d = " M70 272 C61.1299,272 51.3229,277 40,277 40,277 38,274.5 38,274.5 36.6354,271.771 39.2489,260 44,260 49.9493,260 56.5248,258.488 61.5,256 62.5898,255.455 67.0847,257 69,257 69,257 70,258 70,258 70,263.017 73,265.693 73,270 73,270 70,272 70,272  Z"/>

<path  fill="#03C12D" stroke-width="0" stroke="#03C12D" d = " M413 266 L414,266 C414,266 413,265 413,265 413,265 413,266 413,266  Z"/>

<path  fill="#7F81FF" stroke-width="0" stroke="#7F81FF" d = " M441 296 L440,297 C436.787,297 422.89,290.695 419.5,289 416.974,287.737 414.124,281 411,281 411,281 413,266 413,266 413,266 414,266 414,266 414,267.802 420.346,269 422,269 429.614,269 437.843,272 445,272 445.982,272 447.601,275.298 447,276.5 444.282,281.936 445.659,289.182 443,294.5 443,294.5 441,296 441,296  Z"/>

<path  fill="#7F81FF" stroke-width="0" stroke="#7F81FF" d = " M40 277 L38,280 C38,281.638 39.8838,292.384 40.5,293 L41.5,296 L42.5,294 L45.5,297 C48.5254,298.513 51.3696,295 54,295 54,293.546 59.3662,293.567 60.5,293 63.1226,291.689 74.1675,290.165 76,286.5 78.2989,281.902 73,280.673 73,276 73,276 70,272 70,272 61.1299,272 51.3229,277 40,277  Z"/>

<path  fill="#03C12D" stroke-width="0" stroke="#03C12D" d = " M54 295 C54,306.07 62.2857,309.893 70.5,314 73.585,315.542 86,311.648 86,308 76.6517,308 80.0984,305.303 83,299.5 84.8127,295.875 85.5282,287 92,287 92,287 92,284 92,284 85.9137,284 81.4032,275 76,275 76,275 73,276 73,276 73,280.673 78.2989,281.902 76,286.5 74.1675,290.165 63.1226,291.689 60.5,293 59.3662,293.567 54,293.546 54,295  Z"/>

<path  fill="#03C12D" stroke-width="0" stroke="#03C12D" d = " M440 297 C440,301.968 434.366,312 428.5,312 427.804,312 415.908,306.704 414.5,306 412.105,304.802 405,307.064 405,303 405,297.988 404.034,294.569 402,290.5 402,290.5 391,279 391,279 391,279 392,278 392,278 398.066,278 398.606,279.553 403.5,282 405.864,283.182 409.196,281 411,281 414.124,281 416.974,287.737 419.5,289 422.89,290.695 436.787,297 440,297  Z"/>

<path  fill="#3FC0FF" stroke-width="0" stroke="#3FC0FF" d = " M260 290 C260,293.03 255.691,292.118 255,293.5 252.29,298.92 227,298.768 227,291 227,291 225,289.5 225,289.5 225,286.595 228.818,286.841 230.5,286 230.5,286 236.5,280 236.5,280 243.269,276.616 251.134,279.767 254,285.5 255.037,287.573 260,285.949 260,290  Z"/>

<path  fill="#8B008B" stroke-width="0" stroke="#8B008B" d = " M370 303 C375.222,303 379.207,302.146 383.5,300 389.74,296.88 397.049,302.774 401.5,305 L405,303 C405,297.988 404.034,294.569 402,290.5 402,290.5 391,279 391,279 385.38,279 379.696,283 375,283 375,283 374,284 374,284 372.057,284 365,286.976 365,289 365,289 365,290 365,290 365,294.001 370,299.125 370,303  Z"/>

<path  fill="#8B008B" stroke-width="0" stroke="#8B008B" d = " M86 308 C90.6505,308 96.7555,302.128 102.5,305 L115,311 C115,306.742 113.13,293 121,293 121,290.067 116.999,290 115,290 115,290 113,289 113,289 112.662,289 102.779,285 99,285 99,286.473 97.0479,286 96,286 96,286 92,287 92,287 85.5282,287 84.8127,295.875 83,299.5 80.0984,305.303 76.6517,308 86,308  Z"/>

<path  fill="#41FF27" stroke-width="0" stroke="#41FF27" d = " M370 303 C370,310.824 354.666,312.583 349.5,310 L346,307 C346,307 344,303 344,303 344,302.485 336.234,289 341,289 343.595,289 350.049,290.775 352.5,292 352.5,292 363,290 363,290 363,290 365,290 365,290 365,294.001 370,299.125 370,303  Z"/>

<path  fill="#41FF27" stroke-width="0" stroke="#41FF27" d = " M121 293 C113.13,293 115,306.742 115,311 115,311 117.5,313 117.5,313 117.5,313 120.5,312 120.5,312 126.583,315.042 134.02,314.46 138,306.5 138,306.5 145,300.5 145,300.5 146.675,297.151 143,294.259 143,292 143,292 143,291 143,291 143,291 142,291 142,291 142,299.467 125.521,293 121,293  Z"/>

<path  fill="#03C12D" stroke-width="0" stroke="#03C12D" d = " M441 296 L440,297 C440,297 441,296 441,296  Z"/>

<path  fill="#FA8072" stroke-width="0" stroke="#FA8072" d = " M344 303 L339.5,298 C334.116,295.308 319.032,306.437 317,310.5 315.489,313.522 315.012,317.477 314,319.5 311.931,323.638 315.43,348 319.5,348 L321.5,346 L325.5,348 L333.5,345 C334.028,344.736 346.867,321.765 348,319.5 348.695,318.111 346,309.073 346,307 346,307 344,303 344,303  Z"/>

<path  fill="#FA8072" stroke-width="0" stroke="#FA8072" d = " M151 300 L143,307.5 C140.877,311.746 140,315.797 140,321 140,333.313 147.224,327.947 149,331.5 150.586,334.672 150.451,338.401 152,341.5 154.044,345.588 170.8,347.9 172,345.5 179.104,331.292 180.108,309.304 161.5,300 L151,300  Z"/>

</g>
</svg>
