<svg xmlns="http://www.w3.org/2000/svg" xmlns:xlink="http://www.w3.org/1999/xlink" height="512" width="512">
<g>
<rect width="512" height="512" fill="#000000"  stroke-width="0" /> 
<path  fill-rule="evenodd" fill="#FFFF00" stroke-width="0" stroke="#FFFF00" d = " M119 209 C119,216.975 123.275,209 119,209  M115 191 C115,198.389 117.111,191 115,191  M366 174 C366,176.029 367.191,175.881 368,177.5 L368,182.5 C374.568,195.637 380.066,174 366,174  M332 160 C332,169.852 341.616,178.731 346,187.5 L357,199.5 C357.772,201.045 370.736,209.029 372,206.5 376.941,196.618 363.849,199.199 361,193.5 L360,185.5 L358.5,187 L356,182.5 L355.5,175 L354,176.5 L354,172.5 L350,166.5 C348.859,164.219 345.765,166.03 345,164.5 L344.5,162 L344,163.5 C341.957,167.586 342.269,162 341.5,162 L340.5,164 L332,160  M150 160 C150,162.207 144.824,160.338 143.5,161 L138,166.5 C136.251,169.999 135.705,174.091 134,177.5 L125,190.5 C123.667,193.166 118,197.355 118,200 118,200.833 115.699,203.1 117.5,204 127.688,209.094 146.174,179.151 150,171.5 151.213,169.073 155.802,160 150,160  M288 159 C288,162.746 290.091,159 288,159  M297 156 C297,165.317 301.472,156 297,156  M239 150 C239,151.403 231.928,155.714 230.5,155 L229.5,153 L228.5,155 L222,156 C220.234,156 213.573,156.645 215,159.5 216.444,162.387 237.916,161 244.5,161 250.003,161 258.762,163.869 260.5,163 L261.5,161 L262.5,164 L269.5,162 C271.796,160.852 265.979,155 264.5,155 263.184,155 263.187,154 262.5,154 L261.5,156 C261.162,156 254.846,148.827 250.5,151 248.523,151.988 247.172,149.164 245.5,150 244.244,150.628 242.233,152.867 240.5,152 L239,150  M172 147 C172,148.541 163.327,161.846 162,164.5 159.31,169.88 159.706,177.087 157,182.5 150.385,195.729 138.662,207.419 125.5,214 120.07,216.715 122.451,226.975 126.5,229 130.778,231.139 137.597,222.903 141.5,219 151.451,209.049 170.144,189.211 176,177.5 177.416,174.667 187.257,162.014 186,159.5 185.112,157.724 183.145,160.355 182.5,161 181.32,162.18 174.304,172.108 172,167.5 169.293,162.085 182.085,147 172,147  M246 144 C246,147.784 252.254,144 246,144  M242 143 C242,146.479 245.479,143 242,143  M338 247 L339,247 C339,247 341,246 341,246 341,246 343,245 343,245 343,245 345,244 345,244 345,244 347,244 347,244 347,244 348,243 348,243 348,243 347.5,239 347.5,239 341.927,239 334.447,246.473 325.5,242 317.578,238.039 317.045,225.773 305.5,220 301.184,217.842 295.856,217.178 291.5,215 287.394,212.947 284.518,209.009 280.5,207 279.099,206.299 273.146,206.792 273,206.5 271.154,202.808 272.969,208 271.5,208 271.5,208 266.5,203 266.5,203 263.735,203 262.022,207 260.5,207 260.5,207 259.5,205 259.5,205 259.5,205 256,208.5 256,208.5 256.616,209.732 272.36,209 274.5,209 274.5,209 275.5,211 275.5,211 279.441,212.97 275.352,221.074 271.5,223 269.273,224.113 262.018,224.759 260.5,224 260.5,224 259.5,222 259.5,222 259.5,222 258.5,224 258.5,224 256.607,224.947 251.318,223 249.5,223 249.5,223 247.5,225 247.5,225 244.509,226.496 241.73,223 239.5,223 235.934,223 233.155,222.173 229.5,224 229.5,224 225.5,222 225.5,222 225.5,222 223.5,224 223.5,224 223.5,224 220.5,221 220.5,221 220.5,221 217.5,222 217.5,222 217.5,222 205.5,210 205.5,210 199.831,207.166 197.24,216.37 188.5,212 187.734,211.617 185,212.316 185,210.5 185,202.877 207.748,193.124 213.5,196 217.518,198.009 236.748,197 241.5,197 241.5,197 253.5,197 253.5,197 255.89,195.805 266.947,191.723 269.5,193 269.5,193 291.5,201 291.5,201 295.032,202.766 297.161,207 299.5,207 302.109,207 306.354,212.573 309.5,211 313.608,208.946 306.279,203.057 306,202.5 305.094,200.687 303.475,202.45 302,199.5 297.702,190.904 288.693,190.597 281.5,187 281.5,187 263.5,181 263.5,181 263.5,181 252.5,181 252.5,181 250.143,179.822 223.609,181.445 220.5,183 217.663,184.419 214.385,186 211,186 211,186 210,187 210,187 199.324,187 182.22,194.06 177,204.5 173.891,210.719 181,211.066 181,214.5 181,218.303 173.855,220.823 171.5,222 169.824,222.838 161,236.418 161,238 161,238 160,239 160,239 157.594,239 156.852,241.324 155.5,242 155.5,242 153.5,241 153.5,241 145.855,241 150.153,242.826 142.5,239 142.5,239 139,236.5 139,236.5 139,236.5 152,224.5 152,224.5 157.805,218.695 172.614,201.272 176,194.5 176,194.5 180.5,187 180.5,187 186.077,181.423 186.716,170.392 193.5,167 193.5,167 194.5,163 194.5,163 194.5,163 196.5,164 196.5,164 196.5,164 197.5,160 197.5,160 197.5,160 198.5,162 198.5,162 199.659,162 206,157.926 206,162 206,162 207,164 207,164 207,166.956 186.339,174.178 190,181.5 191.58,184.661 193.814,182 195.5,182 195.5,182 196.5,184 196.5,184 196.5,184 197,181.5 197,181.5 197,181.5 202.5,177 202.5,177 211.074,172.713 216.334,171 226,171 232.996,171 266.341,170.921 270.5,173 275.088,175.294 284.131,182.185 290.5,179 293.286,177.607 288.919,173.419 288,172.5 283.823,168.323 283.393,165 289.5,165 292.543,165 293.4,171.3 295,174.5 298.661,181.821 301.36,189.22 305,196.5 305.504,197.507 310.294,198.794 311.5,200 317.043,205.543 320.958,212.729 327.5,216 327.5,216 340,223.5 340,223.5 341.908,227.316 321.222,215.943 327,227.5 328.831,231.161 346.263,235 350,235 350,235 351,236 351,236 352.539,236 354,237.342 354,239 354,239 355,240 355,240 355,240 356,240 356,240 356,240 357,239 357,239 357,239 358,238 358,238 358,232.913 361.137,235 364,235 364,225.113 350.884,230.268 347,222.5 347,222.5 346,214.5 346,214.5 346,214.5 335.5,209 335.5,209 335.5,209 310,185.5 310,185.5 307.984,181.469 307.977,176.454 306,172.5 304.398,169.297 297.816,163.868 300,159.5 300,159.5 303,161.5 303,161.5 303.929,163.359 307.644,172.428 310.5,171 316.438,168.031 310.651,154.802 309,151.5 308.526,150.552 306.673,145.914 308.5,145 313.027,142.737 315.887,149.275 319,155.5 321.272,160.044 321.721,165.943 324,170.5 328.341,179.182 332.673,187.846 337,196.5 337,196.5 356.5,216 356.5,216 358.295,216.897 366.217,220.933 367,222.5 368.141,224.783 368,227.226 368,230 369.166,230 371.941,222.381 371,220.5 369.986,218.472 368.071,217.643 368,217.5 368,217.5 368,212.5 368,212.5 368.849,210.802 369.849,213 370.5,213 370.5,213 371.5,211 371.5,211 372.065,211 373.438,213.625 375,210.5 376.238,208.023 377,200.172 377,197.5 377,197.5 375,194.5 375,194.5 379.613,185.273 382.033,177.566 377,167.5 374.761,163.022 369.094,160.797 365.5,159 364.118,158.309 364.197,154.349 361.5,153 361.5,153 358.5,156 358.5,156 358.5,156 356.5,154 356.5,154 354.775,154 357.941,162.721 352.5,160 352.5,160 352,157.5 352,157.5 351.217,155.935 347.834,155.667 346.5,155 346.5,155 342.5,150 342.5,150 340.158,148.829 332.889,150 331.5,150 331.5,150 330.5,148 330.5,148 329.888,147.694 325.915,148 325.5,148 325.5,148 322.5,153 322.5,153 321.013,153 320.407,148.313 320,147.5 318.135,143.77 311.396,133.052 305.5,136 301.062,138.219 303.986,146.757 301.5,148 299.87,148.815 299.241,144.741 298.5,144 296.659,142.159 290.383,137.558 287.5,139 284.472,140.514 277.543,144.587 280,149.5 281.176,151.851 281.892,153.392 284,155.5 284.173,155.673 288.744,159 286.5,159 284.592,159 280.994,159 278.5,159 278.5,159 278,156.5 278,156.5 278,156.5 274.5,153 274.5,153 271.339,151.419 269.56,151.53 266.5,150 263.437,148.468 258.59,149.545 255.5,148 255.5,148 252.5,145 252.5,145 251.983,145 248.35,146.8 250,143.5 250.752,141.997 260.772,146.956 264,140.5 264.913,138.675 263,136.684 263,135.5 263,125.116 253.979,132.457 252,128.5 251.069,126.639 256.315,124.13 255,121.5 249.826,111.152 241.739,119 240.5,119 240.5,119 238.5,117 238.5,117 238.5,117 236.5,120 236.5,120 235.164,120.668 230.888,118.806 228.5,120 225.375,121.562 223.762,125.131 227.5,127 227.5,127 229.5,126 229.5,126 235.624,126 235.447,125.393 238,130.5 238,130.5 240,132.5 240,132.5 240,132.5 234.5,133 234.5,133 231.35,134.575 226.631,137.761 229,142.5 231.323,147.145 243.641,138.218 240,145.5 238.99,147.521 235.309,145 234.5,145 234.5,145 230.5,147 230.5,147 230.5,147 213.5,147 213.5,147 213.5,147 211.5,151 211.5,151 211.5,151 210.5,148 210.5,148 210.5,148 208.5,150 208.5,150 208.5,150 204.5,150 204.5,150 204.5,150 199.5,154 199.5,154 199.5,154 197.5,153 197.5,153 196.439,153.531 192.88,159.19 192.5,159 190.992,158.246 192.249,151 193.5,151 204.667,151 208.575,130 197.5,130 192.08,130 194.042,137.415 192,141.5 191.384,142.732 186.831,143.837 186,145.5 185.341,146.818 186.419,148.04 184.5,149 181.297,150.601 182.531,140.516 179.5,139 175.457,136.979 174.399,142 172.5,142 172.5,142 171.5,140 171.5,140 169.491,140 168.595,146.311 168,147.5 167.572,148.356 166.058,146.384 165,148.5 163.362,151.776 165.062,151.219 161.5,153 161.5,153 160.5,157 160.5,157 160.5,157 158.5,148 158.5,148 154.068,148 148.28,149 143.5,149 139.278,149 135.761,163.37 132.5,165 129.699,166.401 131.922,160 130.5,160 130.5,160 130,165.5 130,165.5 130,165.5 126,165 126,165 124.559,165 110,182.901 110,185 110,189.374 112.617,190.733 114,193.5 114.944,195.387 111.418,202.336 114,207.5 114.122,207.745 117.878,208.255 118,208.5 118,208.5 118,224.5 118,224.5 120.309,229.118 125.312,230.906 129.5,233 132.21,234.355 130.251,240 132.5,240 132.5,240 135.5,239 135.5,239 135.5,239 141,245 141,245 141,245 142,245 142,245 142,242.757 146.514,247 147.5,247 149.838,247 154.707,246 156.5,246 156.5,246 158.5,243 158.5,243 158.5,243 159.5,245 159.5,245 159.5,245 160.5,242 160.5,242 161.779,242 167.807,238.887 168,238.5 168,238.5 168,234.5 168,234.5 168.711,233.077 173.69,226.905 175.5,226 175.5,226 178,228 178,228 178,225.363 180.999,224 181.5,224 184.377,224 185.301,217.599 186.5,217 187.713,216.393 191.396,219.052 193.5,218 196.821,216.339 198.315,216.592 201.5,215 203.037,214.231 208,217.995 208,219 208,219 211,220 211,220 211,220 212,221 212,221 212,221 212,222 212,222 212,222 213,223 213,223 213,224.634 215.634,227 217,227 227.729,227 239.943,230 251.5,230 251.5,230 255.5,228 255.5,228 256.754,227.373 267.509,228 269.5,228 272.561,228 273.334,223 275,223 276.747,223 277,222.747 277,221 277,219.814 278,219.814 278,221 278,221 280,221 280,221 280,208.452 294.405,222 300,222 300,222 301,223 301,223 301,223 302,224 302,224 302,224 303,224 303,224 303,224 304,225 304,225 305.048,225 307,224.527 307,226 307,227.312 310,228.446 310,231 310,231 311,232 311,232 311,230.814 312,230.814 312,232 312,232 314,235 314,235 314,235 315,236 315,236 315,236 316,238 316,238 316,238 317,239 317,239 317,239 319,240 319,240 320.967,240 322.344,245.422 323.5,246 326.981,247.741 338,243.926 338,247  Z"/>

<path  fill="#03C12D" stroke-width="0" stroke="#03C12D" d = " M319 119 L317,122.5 C320.8,130.1 332.006,123.253 325.5,120 L322.5,120 L319,119  Z"/>

<path  fill="#EE2F2C" stroke-width="0" stroke="#EE2F2C" d = " M213 128 C213,130.805 204.158,132.817 207,138.5 207.848,140.197 207.518,144.009 209.5,145 211.153,145.826 213.31,144.595 214.5,144 216.637,142.932 220.221,144.639 221.5,144 228.785,140.358 226.082,130.791 220.5,128 L213,128  Z"/>

<path  fill="#EE2F2C" stroke-width="0" stroke="#EE2F2C" d = " M278 129 C278,131.144 273.738,129.381 272.5,130 264.667,133.916 263.281,142.89 271.5,147 279.564,151.032 291.336,129 278,129  Z"/>

<path  fill="#03C12D" stroke-width="0" stroke="#03C12D" d = " M133 152 C139.462,152 138.02,138 134.5,138 L129.5,141 L122.5,141 C116.94,143.78 113.496,145.004 109,149.5 L106,153 C106.659,153 117.476,150.512 118.5,150 123.102,147.699 129.342,152 133,152  Z"/>

<path  fill="#00FFFF" stroke-width="0" stroke="#00FFFF" d = " M365 234 L364,235 C364,225.113 350.884,230.268 347,222.5 347,222.5 346,214.5 346,214.5 346,214.5 335.5,209 335.5,209 335.5,209 310,185.5 310,185.5 307.984,181.469 307.977,176.454 306,172.5 304.398,169.297 297.816,163.868 300,159.5 300,159.5 303,161.5 303,161.5 303.929,163.359 307.644,172.428 310.5,171 316.438,168.031 310.651,154.802 309,151.5 308.526,150.552 306.673,145.914 308.5,145 313.027,142.737 315.887,149.275 319,155.5 321.272,160.044 321.721,165.943 324,170.5 328.341,179.182 332.673,187.846 337,196.5 337,196.5 356.5,216 356.5,216 358.295,216.897 366.217,220.933 367,222.5 368.141,224.783 368,227.226 368,230 368,230 367,231 367,231 367,226.875 365,232.015 365,234  Z"/>

<path  fill="#00FFFF" stroke-width="0" stroke="#00FFFF" d = " M172 147 C172,148.541 163.327,161.846 162,164.5 159.31,169.88 159.706,177.087 157,182.5 150.385,195.729 138.662,207.419 125.5,214 120.07,216.715 122.451,226.975 126.5,229 130.778,231.139 137.597,222.903 141.5,219 151.451,209.049 170.144,189.211 176,177.5 177.416,174.667 187.257,162.014 186,159.5 185.112,157.724 183.145,160.355 182.5,161 181.32,162.18 174.304,172.108 172,167.5 169.293,162.085 182.085,147 172,147  Z"/>

<path  fill="#FFBB0D" stroke-width="0" stroke="#FFBB0D" d = " M125 159 C119.86,159 113.515,169 105.5,169 103.314,169 99,171.378 99,167 99,163.731 97.9793,164.459 97,162.5 95.9765,160.453 102.987,154 105,154 105,154 106,153 106,153 106.659,153 117.476,150.512 118.5,150 123.102,147.699 129.342,152 133,152 133,153.747 132.747,154 131,154 131,154 130,155 130,155 126.561,155 125,156.526 125,159  Z"/>

<path  fill="#00FFFF" stroke-width="0" stroke="#00FFFF" d = " M239 150 C239,151.403 231.928,155.714 230.5,155 L229.5,153 L228.5,155 L222,156 C220.234,156 213.573,156.645 215,159.5 216.444,162.387 237.916,161 244.5,161 250.003,161 258.762,163.869 260.5,163 L261.5,161 L262.5,164 L269.5,162 C271.796,160.852 265.979,155 264.5,155 263.184,155 263.187,154 262.5,154 L261.5,156 C261.162,156 254.846,148.827 250.5,151 248.523,151.988 247.172,149.164 245.5,150 244.244,150.628 242.233,152.867 240.5,152 L239,150  Z"/>

<path  fill="#03C12D" stroke-width="0" stroke="#03C12D" d = " M106 153 L105,154 C105,154 106,153 106,153  Z"/>

<path  fill="#DDD951" stroke-width="0" stroke="#DDD951" d = " M131 154 L130,155 C130,157.029 131,155.058 131,154  Z"/>

<path  fill="#00FFFF" stroke-width="0" stroke="#00FFFF" d = " M297 156 C297,165.317 301.472,156 297,156  Z"/>

<path  fill="#03C12D" stroke-width="0" stroke="#03C12D" d = " M69 220 L68,221 C68,221 67,225.5 67,225.5 68.6468,228.794 82.0249,227.238 84.5,226 84.5,226 96,213.5 96,213.5 96,213.5 96,207.5 96,207.5 97.6854,204.129 106.147,185 110,185 110,182.901 124.559,165 126,165 126,163.679 126.684,159 125,159 119.86,159 113.515,169 105.5,169 103.314,169 99,171.378 99,167 99,167 95,173.5 95,173.5 95,173.5 84,190.5 84,190.5 82.4844,193.531 88.1041,194 83,194 83,199.943 85.8271,208.846 83,214.5 82.9669,214.566 77.8501,216.325 76.5,217 76.5,217 69,220 69,220  Z"/>

<path  fill="#00FFFF" stroke-width="0" stroke="#00FFFF" d = " M150 160 C150,162.207 144.824,160.338 143.5,161 L138,166.5 C136.251,169.999 135.705,174.091 134,177.5 L125,190.5 C123.667,193.166 118,197.355 118,200 118,200.833 115.699,203.1 117.5,204 127.688,209.094 146.174,179.151 150,171.5 151.213,169.073 155.802,160 150,160  Z"/>

<path  fill="#00FFFF" stroke-width="0" stroke="#00FFFF" d = " M350 242 L348,243 C348,243 347.5,239 347.5,239 341.927,239 334.447,246.473 325.5,242 317.578,238.039 317.045,225.773 305.5,220 301.184,217.842 295.856,217.178 291.5,215 287.394,212.947 284.518,209.009 280.5,207 279.099,206.299 273.146,206.792 273,206.5 271.154,202.808 272.969,208 271.5,208 271.5,208 266.5,203 266.5,203 263.735,203 262.022,207 260.5,207 260.5,207 259.5,205 259.5,205 259.5,205 256,208.5 256,208.5 256.616,209.732 272.36,209 274.5,209 274.5,209 275.5,211 275.5,211 279.441,212.97 275.352,221.074 271.5,223 269.273,224.113 262.018,224.759 260.5,224 260.5,224 259.5,222 259.5,222 259.5,222 258.5,224 258.5,224 256.607,224.947 251.318,223 249.5,223 249.5,223 247.5,225 247.5,225 244.509,226.496 241.73,223 239.5,223 235.934,223 233.155,222.173 229.5,224 229.5,224 225.5,222 225.5,222 225.5,222 223.5,224 223.5,224 223.5,224 220.5,221 220.5,221 220.5,221 217.5,222 217.5,222 217.5,222 205.5,210 205.5,210 199.831,207.166 197.24,216.37 188.5,212 187.734,211.617 185,212.316 185,210.5 185,202.877 207.748,193.124 213.5,196 217.518,198.009 236.748,197 241.5,197 241.5,197 253.5,197 253.5,197 255.89,195.805 266.947,191.723 269.5,193 269.5,193 291.5,201 291.5,201 295.032,202.766 297.161,207 299.5,207 302.109,207 306.354,212.573 309.5,211 313.608,208.946 306.279,203.057 306,202.5 305.094,200.687 303.475,202.45 302,199.5 297.702,190.904 288.693,190.597 281.5,187 281.5,187 263.5,181 263.5,181 263.5,181 252.5,181 252.5,181 250.143,179.822 223.609,181.445 220.5,183 217.663,184.419 214.385,186 211,186 211,186 210,187 210,187 199.324,187 182.22,194.06 177,204.5 173.891,210.719 181,211.066 181,214.5 181,218.303 173.855,220.823 171.5,222 169.824,222.838 161,236.418 161,238 161,238 160,239 160,239 157.594,239 156.852,241.324 155.5,242 155.5,242 153.5,241 153.5,241 145.855,241 150.153,242.826 142.5,239 142.5,239 139,236.5 139,236.5 139,236.5 152,224.5 152,224.5 157.805,218.695 172.614,201.272 176,194.5 176,194.5 180.5,187 180.5,187 186.077,181.423 186.716,170.392 193.5,167 193.5,167 194.5,163 194.5,163 194.5,163 196.5,164 196.5,164 196.5,164 197.5,160 197.5,160 197.5,160 198.5,162 198.5,162 199.659,162 206,157.926 206,162 206,162 207,164 207,164 207,166.956 186.339,174.178 190,181.5 191.58,184.661 193.814,182 195.5,182 195.5,182 196.5,184 196.5,184 196.5,184 197,181.5 197,181.5 197,181.5 202.5,177 202.5,177 211.074,172.713 216.334,171 226,171 232.996,171 266.341,170.921 270.5,173 275.088,175.294 284.131,182.185 290.5,179 293.286,177.607 288.919,173.419 288,172.5 283.823,168.323 283.393,165 289.5,165 292.543,165 293.4,171.3 295,174.5 298.661,181.821 301.36,189.22 305,196.5 305.504,197.507 310.294,198.794 311.5,200 317.043,205.543 320.958,212.729 327.5,216 327.5,216 340,223.5 340,223.5 341.908,227.316 321.222,215.943 327,227.5 328.831,231.161 346.263,235 350,235 350,235 350,242 350,242  Z"/>

<path  fill="#00FFFF" stroke-width="0" stroke="#00FFFF" d = " M332 160 C332,169.852 341.616,178.731 346,187.5 L357,199.5 C357.772,201.045 370.736,209.029 372,206.5 376.941,196.618 363.849,199.199 361,193.5 L360,185.5 L358.5,187 L356,182.5 L355.5,175 L354,176.5 L354,172.5 L350,166.5 C348.859,164.219 345.765,166.03 345,164.5 L344.5,162 L344,163.5 C341.957,167.586 342.269,162 341.5,162 L340.5,164 L332,160  Z"/>

<path  fill="#00FFFF" stroke-width="0" stroke="#00FFFF" d = " M366 174 C366,176.029 367.191,175.881 368,177.5 L368,182.5 C374.568,195.637 380.066,174 366,174  Z"/>

<path  fill-rule="evenodd" fill="#FFFF00" stroke-width="0" stroke="#FFFF00" d = " M381 201 C381,206.567 383.112,201 381,201  M383 181 C383,183.993 381.38,190.74 380,193.5 378.455,196.591 380.694,210.403 385.5,208 385.58,207.96 390,204.976 390,204.5 L388,203.5 C388,197.872 393.287,181 383,181  Z"/>

<path  fill="#FFBB0D" stroke-width="0" stroke="#FFBB0D" d = " M69 220 L68,221 C65.9667,221 63.8174,214.865 65,212.5 68.1002,206.3 75.6363,205.227 77,202.5 78.309,199.882 78.3992,194 83,194 83,199.943 85.8271,208.846 83,214.5 82.9669,214.566 77.8501,216.325 76.5,217 76.5,217 69,220 69,220  Z"/>

<path  fill-rule="evenodd" fill="#9953FF" stroke-width="0" stroke="#9953FF" d = " M268 344 C268,350.78 277.326,344 268,344  M254 348 C254,343.199 257.196,349.152 259.5,348 L260.5,345 C263.932,345 261.446,347.973 261.5,348 263.844,349.172 268,346.009 268,350 272.972,350 296.135,344.182 300.5,342 306.553,338.973 319,315.777 319,309 319,298.927 328,298.932 328,294 328,290.045 332.022,283.543 330,279.5 328.871,277.242 324.881,265.739 326,263.5 326,263.5 328,259.5 328,259.5 328,259.5 326,258.5 326,258.5 326,258.5 326,250 326,250 320.512,250 319,246.033 319,240 319,240 317,239 317,239 317,239 316,238 316,238 316,238 315,236 315,236 315,236 314,235 314,235 314,235 312,232 312,232 312,232 311,232 311,232 311,232 310,231 310,231 301.266,231 293.077,221 280,221 280,221 278,221 278,221 278,221 277,221 277,221 277,222.747 276.747,223 275,223 275,228.159 270,230.584 270,232 270,232 274,232 274,232 274,232 275,233 275,233 277.029,233 276.881,234.191 278.5,235 283.901,237.701 281.393,239.715 279,244.5 277.571,247.357 271.889,247.805 269.5,249 262.644,252.428 251.467,262.983 241.5,258 237.662,256.081 232.319,257.909 228.5,256 228.5,256 221.5,249 221.5,249 218.966,247.733 215.066,248.283 212.5,247 205.135,243.317 207.292,231 217,231 217,231 217,227 217,227 215.634,227 213,224.634 213,223 213,223 212,222 212,222 212,222 212,221 212,221 212,221 211,220 211,220 211,220 208,219 208,219 208,223.475 199.99,217.755 197.5,219 197.5,219 197.5,221 197.5,221 196.88,221.31 189.588,220.456 186.5,222 183.21,223.645 182.779,228 178,228 178,228 173,232.5 173,232.5 173,232.5 170.5,239 170.5,239 170.5,239 166,241.5 166,241.5 166,241.5 168,242.5 168,242.5 168,245.672 163.039,245.423 162,247.5 161.426,248.647 163.064,252 161,252 161,252 163,255.5 163,255.5 163,255.5 161,256.5 161,256.5 161,257.93 161,259.778 161,261.5 161,261.5 159,262.5 159,262.5 159,262.5 162,264.5 162,264.5 163.239,266.978 160,267.989 160,269.5 160,275.739 161,284.994 161,293 161,298.651 165.987,297.475 169,303.5 169,303.5 168,311 168,311 168,335.106 201.039,350 222,350 222,346.568 215.563,348.626 214,345.5 212.178,341.855 218.497,333.998 222.5,336 229.49,339.495 225.795,345 237,345 237,345 248.5,345 248.5,345 250.29,345.895 251.903,348 254,348  Z"/>

<path  fill="#00FFFF" stroke-width="0" stroke="#00FFFF" d = " M300 222 L301,223 C301,225.029 300,223.058 300,222  Z"/>

<path  fill="#00FFFF" stroke-width="0" stroke="#00FFFF" d = " M302 224 L303,224 C303,225.186 302,225.186 302,224  Z"/>

<path  fill="#00FFFF" stroke-width="0" stroke="#00FFFF" d = " M304 225 C305.048,225 307,224.527 307,226 305.952,226 304,226.473 304,225  Z"/>

<path  fill="#FFFF00" stroke-width="0" stroke="#FFFF00" d = " M367 231 L365,234 C365,232.015 367,226.875 367,231  Z"/>

<path  fill="#EB57FF" stroke-width="0" stroke="#EB57FF" d = " M274 232 L275,233 C277.029,233 276.881,234.191 278.5,235 283.901,237.701 281.393,239.715 279,244.5 277.571,247.357 271.889,247.805 269.5,249 262.644,252.428 251.467,262.983 241.5,258 237.662,256.081 232.319,257.909 228.5,256 228.5,256 221.5,249 221.5,249 218.966,247.733 215.066,248.283 212.5,247 205.135,243.317 207.292,231 217,231 224.005,231 235.458,231.979 241.5,235 241.5,235 244.5,240 244.5,240 244.5,240 246.5,236 246.5,236 246.5,236 253.5,233 253.5,233 255.605,231.947 270,234.594 270,232 270,232 274,232 274,232  Z"/>

<path  fill="#00FFFF" stroke-width="0" stroke="#00FFFF" d = " M354 240 L351,242 C351,242 351,236 351,236 352.539,236 354,237.342 354,239 354,239 354,240 354,240  Z"/>

<path  fill="#00FFFF" stroke-width="0" stroke="#00FFFF" d = " M357 240 L358,240 C358,240 358,238 358,238 358,238 357,239 357,239 357,239 357,240 357,240  Z"/>

<path  fill="#FFFF00" stroke-width="0" stroke="#FFFF00" d = " M379 239 C379,244.567 381.112,239 379,239  Z"/>

<path  fill="#86CC4C" stroke-width="0" stroke="#86CC4C" d = " M160 292 L161,293 C161,284.994 160,275.739 160,269.5 160,267.989 163.239,266.978 162,264.5 162,264.5 159,262.5 159,262.5 159,262.5 161,261.5 161,261.5 161,259.778 161,257.93 161,256.5 161,256.5 163,255.5 163,255.5 163,255.5 161,252 161,252 158.088,252 142,247.606 142,245 142,245 141,245 141,245 137.307,245 133.667,241.583 130.5,240 128.853,239.177 127.467,241.033 126.5,242 123.382,245.118 126.476,249.451 128,252.5 128,252.5 136.5,264 136.5,264 138.944,265.222 142,260.813 142,265 144.287,265 150,268.22 150,271 152.842,271 160,288.903 160,292  Z"/>

<path  fill="#86CC4C" stroke-width="0" stroke="#86CC4C" d = " M331 288 C331,289.999 330.933,294 328,294 328,290.045 332.022,283.543 330,279.5 328.871,277.242 324.881,265.739 326,263.5 326,263.5 328,259.5 328,259.5 328,259.5 326,258.5 326,258.5 326,258.5 326,250 326,250 326,250 338,247 338,247 338,247 339,247 339,247 339,247 341,246 341,246 341,246 343,245 343,245 343,245 345,244 345,244 345,244 347,244 347,244 347,244 348,243 348,243 348,243 350,242 350,242 350,242 351,242 351,242 351,242 354,240 354,240 354,240 355,240 355,240 355,240 356,240 356,240 356,240 357,240 357,240 357,240 358,240 358,240 371.876,240 357.429,258.536 356.5,259 354.951,259.774 348,261.896 348,264 347.284,264 345,261.627 345,264 345,264 344,264 344,264 344,264 338,269 338,269 338,269 338,271 338,271 338,271 337,272 337,272 337,272 336,273 336,273 336,273 335,274 335,274 335,274 333,281 333,281 331.527,281 332,282.952 332,284 332,284 332,286 332,286 332,286 331,288 331,288  Z"/>

<path  fill="#00FFFF" stroke-width="0" stroke="#00FFFF" d = " M348 243 L347,244 C347,244 348,243 348,243  Z"/>

<path  fill="#FFFF00" stroke-width="0" stroke="#FFFF00" d = " M371 243 C371,247.652 366.571,243.358 365,246.5 363.963,248.575 364.453,259.023 368.5,257 370.869,255.816 371.045,253.455 374,250.5 375.538,248.962 381.002,245.503 380,243.5 L371,243  Z"/>

<path  fill="#46A515" stroke-width="0" stroke="#46A515" d = " M426 251 C426,254.575 417.476,264.024 415,266.5 414.203,267.297 409.443,270.972 411.5,272 418.655,275.577 434.733,251 426,251  Z"/>

<path  fill="#FA8072" stroke-width="0" stroke="#FA8072" d = " M328 294 C328,298.932 319,298.927 319,309 331.071,309 342.093,303.315 348,291.5 349.387,288.726 346.332,285.835 347,284.5 348.519,281.462 352,278.639 352,274.5 352,273.192 352,269.808 352,268.5 352,268.5 348,264 348,264 347.284,264 345,261.627 345,264 345,265.186 344,265.186 344,264 344,264 338,269 338,269 339.399,269 339.399,271 338,271 338,271 337,272 337,272 337,272 336,273 336,273 336,273 335,274 335,274 335,274 333,281 333,281 333,282.048 333.473,284 332,284 332,284 332,286 332,286 332,286 331,288 331,288 331,289.999 330.933,294 328,294  Z"/>

<path  fill="#FA8072" stroke-width="0" stroke="#FA8072" d = " M161 293 C161,298.651 165.987,297.475 169,303.5 L168,311 C162.872,311 157.587,311.543 152.5,309 152.5,309 152.5,307 152.5,307 145.646,303.573 138,289.702 138,282.5 138,282.5 135,277.5 135,277.5 133.884,275.268 136,272.103 136,270.5 136,266.106 136.273,265 142,265 144.287,265 150,268.22 150,271 150,275.987 153.955,278.41 156,282.5 156,282.5 157,289.5 157,289.5 157.772,291.044 158.186,292 160,292 160,292 161,293 161,293  Z"/>

<path  fill="#9953FF" stroke-width="0" stroke="#9953FF" d = " M338 269 C339.399,269 339.399,271 338,271 338,271 338,269 338,269  Z"/>

<path  fill="#9953FF" stroke-width="0" stroke="#9953FF" d = " M150 271 C152.842,271 160,288.903 160,292 158.186,292 157.772,291.044 157,289.5 157,289.5 156,282.5 156,282.5 153.955,278.41 150,275.987 150,271  Z"/>

<path  fill="#9953FF" stroke-width="0" stroke="#9953FF" d = " M338 271 L337,272 C337,272 338,271 338,271  Z"/>

<path  fill="#9953FF" stroke-width="0" stroke="#9953FF" d = " M337 272 L336,273 C336,273 337,272 337,272  Z"/>

<path  fill="#9953FF" stroke-width="0" stroke="#9953FF" d = " M336 273 L335,274 C335,274 336,273 336,273  Z"/>

<path  fill="#9953FF" stroke-width="0" stroke="#9953FF" d = " M333 281 C331.527,281 332,282.952 332,284 333.473,284 333,282.048 333,281  Z"/>

<path  fill="#9953FF" stroke-width="0" stroke="#9953FF" d = " M332 286 L331,288 C331,288 332,286 332,286  Z"/>

<path  fill="#46A515" stroke-width="0" stroke="#46A515" d = " M117 312 C117,313.951 114.546,312.477 113.5,313 L103,319.5 C103,320.631 105.622,321.439 106.5,321 110.484,319.008 115.817,318 120.5,318 L132.5,322 L135.5,326 C139.076,326 136.182,318.841 134.5,318 129.295,315.398 124.292,312 117,312  Z"/>

<path  fill="#46A515" stroke-width="0" stroke="#46A515" d = " M379 313 L380,315.5 L373.5,316 C366.313,319.594 358.879,314.31 355.5,316 353.048,317.226 346.814,323.127 348,325.5 355.868,341.236 363.086,322.293 370.5,326 373.709,327.605 385.421,339.039 387.5,338 397.785,332.858 388.268,313 379,313  Z"/>

<path  fill="#46A515" stroke-width="0" stroke="#46A515" d = " M366 314 C366,317.947 373.274,314 366,314  Z"/>

<path  fill="#46A515" stroke-width="0" stroke="#46A515" d = " M116 328 C116,329.381 109.673,329.413 108.5,330 L101,338.5 C97.938,344.624 113.219,356.641 120.5,353 130.435,348.033 111.751,341.375 116.5,339 122.16,336.17 121.589,340.044 125.5,342 127.568,343.034 130.29,342.895 132.5,344 133.378,344.439 136,343.631 136,342.5 L135.5,341 L137,341.5 C141.259,332.981 121.186,328 116,328  Z"/>

<path  fill-rule="evenodd" fill="#46A515" stroke-width="0" stroke="#46A515" d = " M379 345 L375.5,349 C377.37,349.935 383.366,345 379,345  M363 330 C363,331.817 354.373,333.754 353,336.5 L353,340.5 L351,342.5 C352.101,344.702 357.241,351.629 360.5,350 370.386,345.057 359,343.233 359,338.5 359,337.748 368.508,332.504 369.5,333 378.346,337.423 363.538,343.575 367,350.5 368.483,353.467 371.813,347.127 373,349.5 L372,352.5 C372.774,354.049 378.494,351.503 379.5,351 381.065,350.217 381.333,346.834 382,345.5 387.338,334.825 372.047,330 363,330  Z"/>

<path  fill="#FF3427" stroke-width="0" stroke="#FF3427" d = " M237 345 C225.795,345 229.49,339.495 222.5,336 218.497,333.998 212.178,341.855 214,345.5 215.563,348.626 222,346.568 222,350 225.829,350 237,349.191 237,345  Z"/>

<path  fill="#FF3427" stroke-width="0" stroke="#FF3427" d = " M268 344 C268,350.78 277.326,344 268,344  Z"/>

<path  fill="#FF3427" stroke-width="0" stroke="#FF3427" d = " M254 348 C254,350.961 268,352.117 268,350 268,346.009 263.844,349.172 261.5,348 261.446,347.973 263.932,345 260.5,345 260.5,345 259.5,348 259.5,348 257.196,349.152 254,343.199 254,348  Z"/>

</g>
</svg>
