<svg xmlns="http://www.w3.org/2000/svg" xmlns:xlink="http://www.w3.org/1999/xlink" height="512" width="512">
<g>
<rect width="512" height="512" fill="#000000"  stroke-width="0" /> 
<path  fill="#03C12D" stroke-width="0" stroke="#03C12D" d = " M362 277 C367.759,277 374.158,281.171 380.5,278 L381,274.5 C381.765,272.97 384.859,274.781 386,272.5 L385,269.5 L391,265.5 C392.004,263.492 391.976,260.548 393,258.5 395.356,253.788 400.501,249.497 403,244.5 404.814,240.872 403.103,232.294 404,230.5 417.194,204.113 399.118,165.737 388,143.5 384.885,137.269 375.056,132.778 369.5,130 365.329,127.915 360.872,122.686 357.5,121 347.044,115.772 335.977,112 324.5,112 318.51,112 308.745,107 300.5,107 L292.5,103 C289.449,101.475 264.551,101.474 261.5,103 256.993,105.253 251.949,105.776 247.5,108 244.36,109.57 245.227,115.136 243.5,116 241.615,116.943 235.763,109.632 234.5,109 230.508,107.004 210.354,101.573 205.5,104 200.327,106.587 188.652,105.924 184.5,108 180.287,110.107 175.634,110.933 171.5,113 L165.5,113 C157.647,116.926 148.221,117.14 140.5,121 125.705,128.398 102.035,141.43 94,157.5 L88,173.5 L88,178.5 C79.0149,196.47 84.5195,226.539 93,243.5 L93,250.5 L96,253.5 C97.2922,256.084 96.6636,259.827 98,262.5 100.15,266.801 108.475,278.988 112.5,281 116.017,282.759 122,281.314 122,282 127.834,282 136.312,275.594 141.5,273 141.5,273 149.5,272 149.5,272 149.5,272 151.5,270 151.5,270 151.5,270 152.5,272 152.5,272 153.214,272 168.496,271.998 168.5,272 172.169,273.834 175.579,275 180,275 180,275 180,270 180,270 180,270 180,269 180,269 180,269 180,268 180,268 180,268 180,265 180,265 180,263.343 179.237,255 181,255 181,252.653 181.509,248 184,248 184,248 184,244 184,244 176.345,244 181.138,238.819 175.5,236 175.5,236 168.5,236 168.5,236 168.028,235.764 161,229.734 161,229.5 161,229.5 162,227.5 162,227.5 160.537,224.573 147.053,223 145.5,223 145.5,223 144,219.5 144,219.5 142.336,216.172 141.067,212.635 139,208.5 133.768,198.037 146.685,191.13 150,184.5 152.884,178.731 161.824,174.838 167.5,172 167.5,172 167.5,170 167.5,170 167.5,170 178.5,169 178.5,169 180.546,167.977 180.096,166.202 180.5,166 180.5,166 186.5,166 186.5,166 190.207,164.147 197.428,162.964 201.5,165 205.272,166.886 207.271,177.041 209,180.5 209.806,182.111 215,186.608 215,187.5 215,188.983 213.983,190.466 215,192.5 221.367,205.234 221,207.425 221,221 223.688,221 220.381,225.262 221,226.5 222.569,229.637 225.797,235.149 229.5,237 235.549,240.024 244.557,232.528 245.5,233 245.5,233 252.5,239 252.5,239 252.5,239 256.5,238 256.5,238 266.437,242.968 270,233.002 270,224 268.734,224 270,216.685 270,214 270,214 270,213 270,213 270,202.672 271.612,193.275 276,184.5 276.993,182.515 279.322,175 280,175 280,175 281,173 281,173 281,173 282,168 282,168 282,168 283,166 283,166 283,166 285,163 285,163 283.814,163 283.814,162 285,162 295.983,162 306.451,163.976 316.5,169 316.5,169 321.5,169 321.5,169 321.5,169 321.5,172 321.5,172 321.5,172 327.5,172 327.5,172 332.378,174.439 336.507,178.504 341.5,181 341.5,181 345,181.5 345,181.5 345,181.5 343,183.5 343,183.5 343,186.212 347,187.459 347,191.5 347,191.5 349,192.5 349,192.5 350.42,195.34 352.99,214.519 352,216.5 350.609,219.281 345.352,222.574 342.5,224 342.5,224 342.5,226 342.5,226 342.5,226 333.5,227 333.5,227 331.583,227.959 336,227.919 336,228.5 336,228.5 331.5,229 331.5,229 327.36,231.07 322.646,231.927 318.5,234 310.589,237.956 317.132,252 306,252 306,252 308,255 308,255 308,255 309,256 309,256 309,257.652 307.854,261.208 308,261.5 309.213,263.925 311,263.067 311,267 311,267 313,273 313,273 313,273 321,272 321,272 321,272 323,271 323,271 333.289,271 343.812,267.656 354.5,273 356.949,274.224 362,273.092 362,277  Z"/>

<path  fill="#FF6E00" stroke-width="0" stroke="#FF6E00" d = " M306 251 L306,252 C317.132,252 310.589,237.956 318.5,234 322.646,231.927 327.36,231.07 331.5,229 331.5,229 336,228.5 336,228.5 336,227.919 331.583,227.959 333.5,227 333.5,227 342.5,226 342.5,226 342.5,226 342.5,224 342.5,224 345.352,222.574 350.609,219.281 352,216.5 352.99,214.519 350.42,195.34 349,192.5 349,192.5 347,191.5 347,191.5 347,187.459 343,186.212 343,183.5 343,183.5 345,181.5 345,181.5 345,181.5 341.5,181 341.5,181 336.507,178.504 332.378,174.439 327.5,172 327.5,172 321.5,172 321.5,172 321.5,172 321.5,169 321.5,169 321.5,169 316.5,169 316.5,169 306.451,163.976 295.983,162 285,162 285,162 285,163 285,163 285,163 283,166 283,166 283,166 282,168 282,168 282,168 281,173 281,173 281,173 280,175 280,175 279.322,175 276.993,182.515 276,184.5 271.612,193.275 270,202.672 270,213 271.186,213 271.186,214 270,214 270,216.685 268.734,224 270,224 271.929,224 273.848,224 276,224 276,224 276,222 276,222 276,222 278,220 278,220 278,217.215 280.831,215.839 282,213.5 282,213.5 283,207.5 283,207.5 285.612,202.276 291.349,200.803 294,195.5 295.453,192.594 298.101,186.699 301.5,185 301.5,185 309.5,185 309.5,185 317.939,180.78 324.961,186.422 328,192.5 328,192.5 331.5,196 331.5,196 331.5,196 334,196.5 334,196.5 334,197.723 333,199.474 333,200.5 333,200.5 335,203.5 335,203.5 335,208.15 312.571,216.965 308.5,219 306.535,219.983 303.549,218.976 301.5,220 298.418,221.541 297.061,224.72 294.5,226 294.5,226 291,226.5 291,226.5 291,226.5 293,227.5 293,227.5 295.158,231.815 292.972,236.444 295,240.5 296.075,242.65 304,247.168 304,250 304,250 306,251 306,251  Z"/>

<path  fill="#FF6E00" stroke-width="0" stroke="#FF6E00" d = " M189 243 L184,244 C176.345,244 181.138,238.819 175.5,236 175.5,236 168.5,236 168.5,236 168.028,235.764 161,229.734 161,229.5 161,229.5 162,227.5 162,227.5 160.537,224.573 147.053,223 145.5,223 145.5,223 144,219.5 144,219.5 142.336,216.172 141.067,212.635 139,208.5 133.768,198.037 146.685,191.13 150,184.5 152.884,178.731 161.824,174.838 167.5,172 167.5,172 167.5,170 167.5,170 167.5,170 178.5,169 178.5,169 180.546,167.977 180.096,166.202 180.5,166 180.5,166 186.5,166 186.5,166 190.207,164.147 197.428,162.964 201.5,165 205.272,166.886 207.271,177.041 209,180.5 209.806,182.111 215,186.608 215,187.5 215,188.983 213.983,190.466 215,192.5 221.367,205.234 221,207.425 221,221 221,221 217.5,229 217.5,229 217.5,229 214,226 214,226 214,226 214,224 214,224 214,224 213,223 213,223 213,223 212,222 212,222 212,220.253 211.747,220 210,220 210,220 210,218 210,218 210,218 209,217 209,217 209,217 208,216 208,216 208,214.762 207.577,213 206,213 206,213 205,211 205,211 205,211 204,210 204,210 204,208.053 201,207.364 201,205 201,199.863 195.259,192 190,192 190,192 186,190 186,190 186,188.652 183,186.784 183,189 180.478,189 178.091,187 175,187 175,187 174,188 174,188 172.855,188 170,187.421 170,189 170,189 162,193 162,193 162,193 162,194 162,194 162,194 160,198.5 160,198.5 160,207.653 169.451,213 177,213 177,215.109 179.535,215 181,215 186.199,215 198.495,228.511 196,233.5 196,233.5 193,238 193,238 193,238 193,239 193,239 193,239 189,243 189,243  Z"/>

<path  fill="#814FFF" stroke-width="0" stroke="#814FFF" d = " M294 293 L296,293 C296,293 295,290 295,290 292.627,290 295,287.716 295,287 295,287 289,279.5 289,279.5 289,275.863 297.281,268.39 300.5,270 302.449,270.974 305.27,277 306,277 306,277 310,274 310,274 310,272.296 309.558,267 311,267 311,263.067 309.213,263.925 308,261.5 307.854,261.208 309,257.652 309,256 309,256 308,255 308,255 308,255 306,252 306,252 306,252 306,251 306,251 306,251 304,250 304,250 304,247.168 296.075,242.65 295,240.5 292.972,236.444 295.158,231.815 293,227.5 293,227.5 291,226.5 291,226.5 291,226.5 294.5,226 294.5,226 297.061,224.72 298.418,221.541 301.5,220 303.549,218.976 306.535,219.983 308.5,219 312.571,216.965 335,208.15 335,203.5 335,203.5 333,200.5 333,200.5 333,199.474 334,197.723 334,196.5 334,196.5 331.5,196 331.5,196 331.5,196 328,192.5 328,192.5 324.961,186.422 317.939,180.78 309.5,185 309.5,185 301.5,185 301.5,185 298.101,186.699 295.453,192.594 294,195.5 291.349,200.803 285.612,202.276 283,207.5 283,207.5 282,213.5 282,213.5 280.831,215.839 278,217.215 278,220 278,220 277,222 277,222 277,222 276,224 276,224 276,226.711 274.274,238 273,238 273,238 272,242 272,242 272,242 271,243 271,243 271,243 270,246 270,246 270,250.826 266,252.468 266,253.5 266,254.958 266.933,262.634 266,264.5 264.984,266.533 262,268.118 262,270.5 262,270.5 265,272.5 265,272.5 266.052,274.604 263,275.17 263,276.5 263,276.5 266,279.5 266,279.5 266,280.526 265,282.277 265,283.5 265,283.5 269,285.5 269,285.5 269.76,287.021 269,288.645 269,289.5 269,289.5 272,291.5 272,291.5 272,291.5 280.5,299 280.5,299 282.87,300.185 293,297.351 293,295 290.908,295 292.348,293 294,293  Z"/>

<path  fill="#814FFF" stroke-width="0" stroke="#814FFF" d = " M190 286 L192,289 C195.175,289 198,294.048 198,295.5 198,295.5 200.5,299 200.5,299 201.983,299 203.466,297.983 205.5,299 205.5,299 207.5,302 207.5,302 207.5,302 209.5,298 209.5,298 209.5,298 218.5,297 218.5,297 221.196,295.652 218.244,295.012 219,293.5 219,293.5 226,286.5 226,286.5 228.08,282.34 227,277.424 227,273.5 227,273.5 230,271.5 230,271.5 230,271.5 228,269.5 228,269.5 227.19,267.881 229,266.499 229,265.5 229,265.5 226,262.5 226,262.5 225.237,260.973 226,258.22 226,257.5 226,257.5 223,255.5 223,255.5 223,255.5 219,244 219,244 219,244 216,240 216,240 216,240 215,239 215,239 215,239 215,237 215,237 213.348,237 211.908,235 214,235 214,235 216,232.5 216,232.5 217.428,229.644 214,227.947 214,226 214,226 214,224 214,224 214,224 213,223 213,223 213,223 212,222 212,222 212,222 210,220 210,220 210,220 210,218 210,218 210,218 209,217 209,217 209,217 208,216 208,216 208,216 206,213 206,213 206,213 205,211 205,211 205,211 204,210 204,210 204,208.053 201,207.364 201,205 197.66,205 195.273,193 190,193 188.814,193 188.814,192 190,192 190,192 186,190 186,190 184.952,190 183,190.473 183,189 180.478,189 178.091,187 175,187 175,187 174,188 174,188 174,189.579 171.145,189 170,189 170,189 162,193 162,193 163.186,193 163.186,194 162,194 162,194 160,198.5 160,198.5 160,207.653 169.451,213 177,213 177,213 181,215 181,215 186.199,215 198.495,228.511 196,233.5 196,233.5 193,238 193,238 194.186,238 194.186,239 193,239 193,239 189,243 189,243 189,245.013 185.283,248 184,248 181.509,248 181,252.653 181,255 181,256.657 181.763,265 180,265 180,265 180,268 180,268 182.212,268 182.212,269 180,269 180,269 180,270 180,270 181.014,270 182,273.959 182,275 184.04,275 185.763,285 189,285 189,285 186,276.5 186,276.5 184.473,273.445 191.262,268.381 194.5,270 202.862,274.181 198.489,286 190,286  Z"/>

<path  fill="#FF6E00" stroke-width="0" stroke="#FF6E00" d = " M190 192 C188.814,192 188.814,193 190,193 190,193 190,192 190,192  Z"/>

<path  fill-rule="evenodd" fill="#E1F00D" stroke-width="0" stroke="#E1F00D" d = " M243 236 L243,239 C243,248.843 250.275,236 243,236  M324 317 C324,320.977 306,330.411 306,332 299.231,332 290.677,336.588 283.5,333 283.5,333 280.5,334 280.5,334 272.234,329.867 258.875,313.251 255,305.5 252.531,300.563 247,282.863 247,277.5 247,276.323 244.73,269.385 243.5,270 243.5,270 243,275.5 243,275.5 241.649,278.201 240.417,280.665 239,283.5 239,283.5 239,297.5 239,297.5 237.944,299.612 239.003,302.495 238,304.5 235.281,309.938 222.088,327.206 216.5,330 203.842,336.329 184.007,335.507 173.5,325 171.295,322.795 166,319.668 166,316 166,311.197 170.933,313.633 172,311.5 172,311.5 172,307.5 172,307.5 174.812,301.875 179.666,300.168 180,299.5 180.827,297.845 179.118,296.191 181.5,295 181.5,295 188.5,293 188.5,293 188.5,293 192,289 192,289 195.175,289 198,294.048 198,295.5 198,295.5 200.5,299 200.5,299 201.983,299 203.466,297.983 205.5,299 205.5,299 207.5,302 207.5,302 207.5,302 209.5,298 209.5,298 209.5,298 218.5,297 218.5,297 221.196,295.652 218.244,295.012 219,293.5 219,293.5 226,286.5 226,286.5 228.08,282.34 227,277.424 227,273.5 227,273.5 230,271.5 230,271.5 230,271.5 228,269.5 228,269.5 227.19,267.881 229,266.499 229,265.5 229,265.5 226,262.5 226,262.5 225.237,260.973 226,258.22 226,257.5 226,257.5 223,255.5 223,255.5 223,255.5 219,244 219,244 221.692,244 217.841,240 216,240 216,240 215,239 215,239 215,239 215,237 215,237 215,237 214,235 214,235 214,235 216,232.5 216,232.5 217.428,229.644 214,227.947 214,226 214,226 217.5,229 217.5,229 217.5,229 221,221 221,221 223.688,221 220.381,225.262 221,226.5 222.569,229.637 225.797,235.149 229.5,237 235.549,240.024 244.557,232.528 245.5,233 245.5,233 252.5,239 252.5,239 252.5,239 256.5,238 256.5,238 266.437,242.968 270,233.002 270,224 271.929,224 273.848,224 276,224 276,226.711 274.274,238 273,238 270.4,238 267.725,246 270,246 270,250.826 266,252.468 266,253.5 266,254.958 266.933,262.634 266,264.5 264.984,266.533 262,268.118 262,270.5 262,270.5 265,272.5 265,272.5 266.052,274.604 263,275.17 263,276.5 263,276.5 266,279.5 266,279.5 266,280.526 265,282.277 265,283.5 265,283.5 269,285.5 269,285.5 269.76,287.021 269,288.645 269,289.5 269,289.5 272,291.5 272,291.5 272,291.5 280.5,299 280.5,299 282.87,300.185 293,297.351 293,295 293,295 294,293 294,293 294,293 296,293 296,293 296.601,293 312.466,299.432 313,300.5 313,300.5 312,304.5 312,304.5 312,304.5 317.5,311 317.5,311 317.5,311 320.5,308 320.5,308 321.769,308 319,310.231 319,311.5 319,314.422 320.859,317 324,317  Z"/>

<path  fill="#E1F00D" stroke-width="0" stroke="#E1F00D" d = " M277 222 L276,224 C276,224 276,222 276,222 276,222 277,222 277,222  Z"/>

<path  fill="#022CFF" stroke-width="0" stroke="#022CFF" d = " M271 243 L270,246 C267.725,246 270.4,238 273,238 273,238 272,242 272,242 272,242 271,243 271,243  Z"/>

<path  fill="#022CFF" stroke-width="0" stroke="#022CFF" d = " M216 240 C217.841,240 221.692,244 219,244 219,244 216,240 216,240  Z"/>

<path  fill="#E1F00D" stroke-width="0" stroke="#E1F00D" d = " M272 242 L271,243 C271,243 272,242 272,242  Z"/>

<path  fill="#FF6E00" stroke-width="0" stroke="#FF6E00" d = " M308 255 L309,256 C309,256 308,255 308,255  Z"/>

<path  fill="#FF8700" stroke-width="0" stroke="#FF8700" d = " M296 293 C296.601,293 312.466,299.432 313,300.5 L312,304.5 L317.5,311 L320.5,308 C321.769,308 319,310.231 319,311.5 319,314.422 320.859,317 324,317 324,313.677 332.935,316.63 335,312.5 339.303,303.895 363.037,302.426 370,288.5 370,288.5 373,287.5 373,287.5 375.64,282.221 362,279.53 362,277 362,273.092 356.949,274.224 354.5,273 343.812,267.656 333.289,271 323,271 323,271 321,272 321,272 321,272 313,273 313,273 313,274.473 311.048,274 310,274 310,274 306,277 306,277 306,278.155 300.058,288 296,288 296,288 295,290 295,290 295,290 296,293 296,293  Z"/>

<path  fill-rule="evenodd" fill="#FF8700" stroke-width="0" stroke="#FF8700" d = " M177 278 C177,280.111 184.389,278 177,278  M192 289 L188.5,293 L181.5,295 C179.118,296.191 180.827,297.845 180,299.5 179.666,300.168 174.812,301.875 172,307.5 L172,311.5 C170.933,313.633 166,311.197 166,316 155.97,316 145.953,308.226 137.5,304 133.275,301.887 127,303.278 127,297.5 127,297.5 124,296.5 124,296.5 124,296.5 117,289.5 117,289.5 115.125,285.75 122,283.175 122,282 127.834,282 136.312,275.594 141.5,273 141.5,273 149.5,272 149.5,272 149.5,272 151.5,270 151.5,270 151.5,270 152.5,272 152.5,272 153.214,272 168.496,271.998 168.5,272 172.169,273.834 175.579,275 180,275 180,275 182,275 182,275 184.04,275 185.763,285 189,285 189,285 190,286 190,286 190,286 192,289 192,289  Z"/>

<path  fill="#7CFC00" stroke-width="0" stroke="#7CFC00" d = " M189 285 L190,286 C198.489,286 202.862,274.181 194.5,270 191.262,268.381 184.473,273.445 186,276.5 186,276.5 189,285 189,285  Z"/>

<path  fill="#7CFC00" stroke-width="0" stroke="#7CFC00" d = " M295 287 L296,288 C300.058,288 306,278.155 306,277 305.27,277 302.449,270.974 300.5,270 297.281,268.39 289,275.863 289,279.5 289,279.5 295,287 295,287  Z"/>

<path  fill="#267EFF" stroke-width="0" stroke="#267EFF" d = " M230 319 L226,322.5 L228,324.5 C228,324.678 225,327.181 225,328.5 225,333.394 237.678,331.144 239,328.5 240.785,324.931 237.213,322.925 236,320.5 234.915,318.329 232.689,319 230,319  Z"/>

<path  fill="#267EFF" stroke-width="0" stroke="#267EFF" d = " M260 320 C260,321.059 254,322.872 254,325.5 254,329.069 258.36,335 262.5,335 265.602,335 263.431,332.035 265.5,331 270.281,328.61 270.562,326.531 265.5,324 L260,320  Z"/>

<path  fill-rule="evenodd" fill="#FA8072" stroke-width="0" stroke="#FA8072" d = " M302 342 C302,343.93 303.93,342 302,342  M306 332 C306,338.643 298.147,334.206 296,338.5 295.305,339.889 296.431,349 299.5,349 L302.5,346 L303,349.5 C303,352.644 304.693,355.115 303,358.5 302.198,360.103 300.847,358 300,358 L294.5,360 L292.5,366 C290.369,367.066 284.563,361.373 282,366.5 278.745,373.01 284,375.38 284,376.5 L281,379.5 C278.089,385.321 282.372,391.936 286.5,394 288.507,395.003 291.953,391.773 293.5,391 L298.5,391 C303.267,388.617 302,388.6 302,384.5 L306,379.5 C306.557,378.386 313.737,376.026 316,371.5 318.354,366.792 315,357.483 315,353 L316,346.5 L310.5,347 C307.45,345.475 309.959,337.582 311,335.5 313.255,330.989 314.837,342.825 316,340.5 319.382,333.737 310.314,332 306,332  Z"/>

<path  fill="#FA8072" stroke-width="0" stroke="#FA8072" d = " M188 335 C188,338.36 184.573,334.927 183,336.5 178.139,341.361 175.299,350.9 183.5,355 187.59,357.045 188.192,349.117 189,347.5 190.365,344.77 192.058,348.385 193,346.5 195.145,342.21 192.745,335 188,335  Z"/>

<path  fill="#FA8072" stroke-width="0" stroke="#FA8072" d = " M181 362 L177,365.5 C174.196,371.108 182.107,377.304 185.5,379 190.466,381.483 187.692,385.884 189,388.5 191.396,393.292 197.336,396.918 201.5,399 206.27,401.385 207.517,397.492 210.5,396 212.25,395.125 214.875,394.75 216,392.5 L216,375.5 C211.058,365.616 199.802,372.651 194.5,370 189.81,367.655 186.549,362 181,362  Z"/>

</g>
</svg>
