<svg xmlns="http://www.w3.org/2000/svg" xmlns:xlink="http://www.w3.org/1999/xlink" height="512" width="512">
<g>
<rect width="512" height="512" fill="#000000"  stroke-width="0" /> 
<path  fill-rule="evenodd" fill="#86FF5A" stroke-width="0" stroke="#86FF5A" d = " M240 307 L237,311.5 L240,313.5 L238,315.5 C238,317.189 241.011,317 242,317 245.092,317 254.829,314.329 250,309.5 L247.5,309 L244.5,308 C242.347,309.076 242.599,307 240,307  M221 277 C221,278.735 214.49,278 213,278 210.78,278 208.307,280.904 206.5,280 L204.5,278 L202.5,281 C195.134,284.683 191.725,288.05 188,295.5 L188,299.5 C187.272,300.955 186.036,304.573 187,306.5 191.021,314.542 188.016,325.532 192,333.5 192.863,335.226 211.234,354 211.5,354 214.144,354 216.468,353.484 219.5,355 222.536,356.518 230.52,358.99 234.5,357 236.616,355.942 234.644,354.428 235.5,354 L240.5,354 C241.821,353.34 242.505,348.502 245.5,350 245.602,350.051 247.509,356.004 249.5,357 254.957,359.728 266.737,357.382 271.5,355 L278.5,354 C281.837,352.332 287.19,344.12 289,340.5 289.773,338.955 296.168,335.163 298,331.5 299.579,328.341 297.471,323.558 299,320.5 303.192,312.116 304.862,302.224 300,292.5 L298,292.5 C294.767,286.034 288.46,281 281.5,281 L278.5,278 C275.598,276.549 273.301,280 272.5,280 269.325,280 264.249,276.126 260.5,278 255.758,280.371 250.755,283 245,283 236.414,283 231.139,277 221,277  Z"/>

<path  fill-rule="evenodd" fill="#EB57FF" stroke-width="0" stroke="#EB57FF" d = " M244 312 C244,317.395 247.807,312 244,312  M240 307 L237,311.5 L240,313.5 L238,315.5 C238,317.189 241.011,317 242,317 245.092,317 254.829,314.329 250,309.5 L247.5,309 L244.5,308 C242.347,309.076 242.599,307 240,307  Z"/>

<path  fill="#27F4FD" stroke-width="0" stroke="#27F4FD" d = " M244 312 C244,317.395 247.807,312 244,312  Z"/>

</g>
</svg>
