<svg xmlns="http://www.w3.org/2000/svg" xmlns:xlink="http://www.w3.org/1999/xlink" height="512" width="512">
<g>
<rect width="512" height="512" fill="#000000"  stroke-width="0" /> 
<path  fill="#03C12D" stroke-width="0" stroke="#03C12D" d = " M342 339 C342,341.879 345.967,346.767 349.5,345 356.27,341.615 363.812,340.344 370.5,337 L377.5,332 L383.5,331 L388.5,325 C398.197,320.152 402.565,312.37 407,303.5 L412,297.5 L414,290.5 L420,284.5 C421.22,282.059 420,280.451 420,278.5 L424,275.5 L424,264.5 C426.615,259.27 430,254.788 430,248.5 L428,247.5 L431,245.5 L432,219.5 C427.658,210.816 432.945,202.391 429,194.5 L427.5,190 C426.65,190 425,191.35 425,190.5 425,188.592 429.893,188.287 428,184.5 L425,181.5 C422.453,176.406 425.494,168.487 423,163.5 420.374,158.248 418.61,152.72 416,147.5 L408,141.5 L407,135.5 C404.967,131.434 401.446,132.473 398.5,131 L391.5,124 C386.882,121.691 382.024,119.262 377.5,117 376.253,116.377 375.833,112.167 373.5,111 L368.5,111 C364.655,109.078 361.28,106.89 357.5,105 L347.5,104 L343.5,100 C337.477,100 313.981,94.2406 307.5,91 306.287,90.3933 302.604,93.0519 300.5,92 293.564,88.532 271.013,87.7435 264.5,91 L258.5,90 C252.911,92.7945 248.114,97.1929 242.5,100 L238.5,104 L234.5,98 C230.851,96.1753 218.552,96.526 217.5,96 215.297,94.8983 214.721,91.6106 213.5,91 210.637,89.5683 208.475,93 206.5,93 204.151,93 202.109,88.1953 198.5,90 194.501,91.9997 189.114,96 184.5,96 L179.5,93 C167.046,99.2271 152.01,98.7452 139.5,105 L127.5,106 L110.5,118 L93.5,126 L75,150.5 C71.9562,156.588 70.1052,163.29 67,169.5 L67,176.5 C64.4883,181.523 64.4882,187.524 62,192.5 L63,204.5 L61,205.5 L61,215.5 L59,218.5 C59,221.422 59.0076,242.515 60,244.5 61.2885,247.077 63.0561,249.612 64,251.5 64.1716,251.843 62,254.703 62,256.5 L65,268.5 C66.7829,272.066 69.284,272.068 71,275.5 72.5452,278.59 71.4684,283.437 73,286.5 75.0942,290.688 77.0201,293.54 79,297.5 L80,308.5 C86.3678,321.236 116.404,334.452 129.5,341 132.97,342.735 138.798,340 142,340 142,328.538 140.734,317.967 136,308.5 136,308.5 136,301.5 136,301.5 136,301.5 134,296.5 134,296.5 134,296.5 136,296 136,296 136,296 138,295 138,295 138,295 139,293 139,293 139,293 131.5,294 131.5,294 130.831,293.665 119,279.409 119,278 119,278 118,278 118,278 118,280.408 117,277.013 117,276 113.482,276 112,273.073 112,270 112,270 110,266.5 110,266.5 110,266.5 107,262.5 107,262.5 107,262.5 107,243.5 107,243.5 107,243.5 104,242.5 104,242.5 102.019,238.538 104.418,227.665 106,224.5 107.817,220.867 106,215.417 106,212.5 106,208.654 109.656,208.189 111,205.5 111,205.5 115,192.5 115,192.5 116.297,189.907 129,175.648 129,175 129,175 130,174 130,174 130,174 131,173 131,173 131,168.383 146.53,162.485 149.5,161 159.357,156.071 170.639,153.93 180.5,149 180.5,149 189.5,149 189.5,149 196.596,145.452 203.516,144 211,144 211,144 214.5,144 214.5,144 215.008,143.746 216.789,138.856 218.5,138 223.678,135.411 228.391,131.555 233.5,129 233.5,129 239.5,123 239.5,123 245.753,119.874 259.564,138 267,138 267,138 274,142 274,142 279.171,142 291.661,147.081 297.5,150 299.414,150.957 305.558,148.529 308.5,150 316.776,154.138 328.214,155.357 337.5,160 337.5,160 342.5,160 342.5,160 342.5,160 346.5,165 346.5,165 351.043,167.272 358,165.209 358,172 359.013,172 362.408,173 360,173 360,178.179 369.394,180.288 371,183.5 371,183.5 371,187.5 371,187.5 372.452,190.404 376.508,193.516 378,196.5 378,196.5 379,202.5 379,202.5 379,202.5 382,204.5 382,204.5 384.243,208.986 383.685,214.871 386,219.5 389.492,226.484 386,243.617 386,251.5 386,251.5 381,257 381,257 381,257 378,261 378,261 378,262.465 378.109,265 376,265 376,266.048 376.473,268 375,268 375,268 374,269 374,269 374,269 373,274 373,274 373,275.465 373.109,278 371,278 371,279.987 363.673,288 362,288 362,288 360,291 360,291 360,295.938 365.643,301.214 363,306.5 360.442,311.616 357.566,316.369 355,321.5 355,321.5 354,328.5 354,328.5 354,328.5 342,339 342,339  Z"/>

<path  fill="#1D68EB" stroke-width="0" stroke="#1D68EB" d = " M238 168 C238,158.248 250,162.001 250,168 253.115,168 256.196,166 260,166 260,164.423 261.762,164 263,164 263,164 264,163 264,163 264,163 269,157.5 269,157.5 269.587,156.327 273,143.741 273,143 273,143 267,138 267,138 259.564,138 245.753,119.874 239.5,123 239.5,123 233.5,129 233.5,129 228.391,131.555 223.678,135.411 218.5,138 216.789,138.856 215.008,143.746 214.5,144 214.5,144 211,144 211,144 211,147.696 217.171,164 222,164 222,164 226,167 226,167 226,167 238,168 238,168  Z"/>

<path  fill="#FF6E00" stroke-width="0" stroke="#FF6E00" d = " M110 260 C106.463,260 112,268.953 112,270 112,270 110,266.5 110,266.5 110,266.5 107,262.5 107,262.5 107,262.5 107,243.5 107,243.5 107,243.5 104,242.5 104,242.5 102.019,238.538 104.418,227.665 106,224.5 107.817,220.867 106,215.417 106,212.5 106,208.654 109.656,208.189 111,205.5 111,205.5 115,192.5 115,192.5 116.297,189.907 129,175.648 129,175 129,175 130,174 130,174 130,174 131,173 131,173 131,168.383 146.53,162.485 149.5,161 159.357,156.071 170.639,153.93 180.5,149 180.5,149 189.5,149 189.5,149 196.596,145.452 203.516,144 211,144 211,147.696 217.171,164 222,164 222,166.715 223.657,167 226,167 226,167 238,168 238,168 240.561,168 250,170.038 250,168 253.115,168 256.196,166 260,166 261.238,166 263,165.577 263,164 263,164 264,163 264,163 264,163 269,157.5 269,157.5 269.587,156.327 273,143.741 273,143 273,143 274,142 274,142 279.171,142 291.661,147.081 297.5,150 299.414,150.957 305.558,148.529 308.5,150 316.776,154.138 328.214,155.357 337.5,160 337.5,160 342.5,160 342.5,160 342.5,160 346.5,165 346.5,165 351.043,167.272 358,165.209 358,172 358,172 360,173 360,173 360,178.179 369.394,180.288 371,183.5 371,183.5 371,187.5 371,187.5 372.452,190.404 376.508,193.516 378,196.5 378,196.5 379,202.5 379,202.5 379,202.5 382,204.5 382,204.5 384.243,208.986 383.685,214.871 386,219.5 389.492,226.484 386,243.617 386,251.5 386,251.5 381,257 381,257 381,257 380,255 380,255 380,251.515 384.377,238.254 383,235.5 379.44,228.38 379.87,215.241 377,209.5 375.159,205.818 371.846,203.191 370,199.5 370,199.5 370,195.5 370,195.5 370,195.5 358.5,184 358.5,184 358.5,184 356.5,179 356.5,179 352.89,177.195 349.224,174.862 345.5,173 344.353,172.426 341,174.064 341,172 341,170.253 340.747,170 339,170 339,170 329,167 329,167 329,167 327,166 327,166 321.403,166 314.026,163.237 308.5,166 307.454,166.523 305,165.049 305,167 300.514,167 298.103,166 294,166 294,164.749 289.573,164.464 288.5,165 285.003,166.748 271.34,174 269,174 269,174 261,176 261,176 261,176 260,177 260,177 256.757,177 257.106,178.697 254.5,180 254.5,180 239.5,181 239.5,181 236.238,179.369 223.565,176 220,176 220,176 217,175 217,175 217,175 199.5,166 199.5,166 199.5,166 193,165.5 193,165.5 191.283,168.933 195,168.05 195,171 187.739,171 180.54,168.02 174.5,165 168.484,161.992 145.839,173.331 140.5,176 137.232,177.634 126,185.13 126,189 126,189 125,191 125,191 122.422,191 119,198.823 119,200 119,200 118,201 118,201 115.633,201 113.836,211.827 113,213.5 106.363,226.774 110,245.068 110,260  Z"/>

<path  fill="#814FFF" stroke-width="0" stroke="#814FFF" d = " M159 285 C152.351,285 149.021,291.24 143.5,294 L139,293 C139,293 131.5,294 131.5,294 130.831,293.665 119,279.409 119,278 119,275.788 118,275.788 118,278 118,280.408 117,277.013 117,276 117,271.129 110,262.149 110,260 110,245.068 106.363,226.774 113,213.5 113.836,211.827 115.633,201 118,201 118,201 119,200 119,200 119,198.823 122.422,191 125,191 125,191 126,189 126,189 126,185.13 137.232,177.634 140.5,176 145.839,173.331 168.484,161.992 174.5,165 180.54,168.02 187.739,171 195,171 195,173.93 200,175.269 200,177.5 200,180.333 201,182.476 201,186 201,186 203,188 203,188 203,188 203,190 203,190 200.798,190 200.798,193 203,193 203,193 203,195 203,195 202.104,195 199.974,197 202,197 202,197 202,198 202,198 200.527,198 201,199.952 201,201 201,201 201,209 201,209 197.875,209 201.494,219.512 201,220.5 201,220.5 199,221.5 199,221.5 199,221.5 200,226.5 200,226.5 200,226.5 194,231 194,231 194,231 194,232 194,232 194,232 190,236 190,236 181.833,236 173.658,252.817 176,257.5 176.642,258.784 176.406,260.313 177,261.5 177,261.5 179,262.5 179,262.5 179,264.31 178,267.54 178,270 178,275.717 166,276.389 166,282 163.823,282 162,281.359 162,284 160.952,284 159,283.527 159,285  Z"/>

<path  fill="#022CFF" stroke-width="0" stroke="#022CFF" d = " M208 239 C209.481,239 208.785,241 211,241 211,234.537 205,231.288 205,224 203.527,224 204,222.048 204,221 204,208.221 202.629,186.936 214.5,181 215.728,180.386 215.776,178 218,178 218,178 219,177 219,177 219,177 217,175 217,175 217,175 199.5,166 199.5,166 199.5,166 193,165.5 193,165.5 191.283,168.933 195,168.05 195,171 195,173.93 200,175.269 200,177.5 200,180.333 201,182.476 201,186 201,186 203,188 203,188 203,188 203,190 203,190 203,190 203,193 203,193 203,193 203,195 203,195 203,195 202,197 202,197 202,197 202,198 202,198 202,199.048 202.473,201 201,201 201,201 201,209 201,209 201,209 202,225.5 202,225.5 202,225.5 201,231.5 201,231.5 201,231.5 203,233 203,233 203,233 208,239 208,239  Z"/>

<path  fill="#022CFF" stroke-width="0" stroke="#022CFF" d = " M287 204 C279.447,204 288.813,218 283,218 283,207.032 284.578,193.656 280,184.5 278.573,181.646 269,177.089 269,174 271.34,174 285.003,166.748 288.5,165 289.573,164.464 294,164.749 294,166 294,166 295,169 295,169 295,169 294,170 294,170 292.32,170 285,185.561 285,190 285,190 286,192 286,192 286,192 286,197 286,197 283.708,197 285.457,203 287,203 287,203 287,204 287,204  Z"/>

<path  fill="#814FFF" stroke-width="0" stroke="#814FFF" d = " M360 291 C356.198,291 353.625,294 349,294 348.404,294 344,288.731 344,292 338.533,292 329.858,284.679 324.5,282 324.5,282 321.5,278 321.5,278 319.339,276.919 316.606,279 315,279 315,274.36 310.907,276.314 309,272.5 307.249,268.998 309,265.71 309,262 309,262 309,260 309,260 309,260 309,257 309,257 310.486,257 310.486,254 309,254 306.793,254 308.662,248.824 308,247.5 305.446,242.391 306.592,238 299,238 299,238 297,237 297,237 297,235.241 295.1,228 297,228 299.814,228 299.814,222 297,222 297,222 297,221 297,221 297,219.179 293,217.882 293,220 293,220 292,222 292,222 290.021,222 290.798,227 293,227 293,228.333 293,228.667 293,230 293,230 291,227.5 291,227.5 286.048,222.548 284.929,218.641 288,212.5 289.284,209.932 287,206.014 287,204 287,204 287,203 287,203 287,201.955 288.245,197 286,197 286,197 286,192 286,192 286,190.423 287.729,190 285,190 285,185.561 292.32,170 294,170 294,170 295,169 295,169 295,169 307,168.5 307,168.5 307,168.5 305,167 305,167 305,165.049 307.454,166.523 308.5,166 314.026,163.237 321.403,166 327,166 327,166 329,167 329,167 329,167 339,170 339,170 339,170 341,172 341,172 341,174.064 344.353,172.426 345.5,173 349.224,174.862 352.89,177.195 356.5,179 356.5,179 358.5,184 358.5,184 358.5,184 370,195.5 370,195.5 370,195.5 370,199.5 370,199.5 371.846,203.191 375.159,205.818 377,209.5 379.87,215.241 379.44,228.38 383,235.5 384.377,238.254 380,251.515 380,255 380,256.974 378,258.517 378,261 375.891,261 376,263.535 376,265 374.527,265 375,266.952 375,268 375,268 374,269 374,269 374,269 373,274 373,274 370.022,274 371,276.995 371,278 371,279.987 363.673,288 362,288 358.788,288 360,289.288 360,291  Z"/>

<path  fill="#FF0800" stroke-width="0" stroke="#FF0800" d = " M218 248 L219,248 C219,248 224.5,249 224.5,249 224.5,249 232,244 232,244 232,244 232,243 232,243 232,240.73 234.064,239.373 235,237.5 236.262,234.977 235,223.42 235,220 233.772,220 231.313,228 228.5,228 228.5,228 226.5,226 226.5,226 226.5,226 224.5,228 224.5,228 223.595,227.548 218.248,224.997 218,224.5 215.646,219.792 218.121,207.258 220,203.5 221.218,201.063 219.305,196.597 222.5,195 226.786,192.857 232.331,193.085 236.5,191 239.347,189.576 246.719,187.11 250.5,189 252.213,189.857 253.319,191.41 254.5,192 258.438,193.969 264.398,189.296 268,196.5 269.418,199.336 270,214.406 270,218.5 270,218.5 265,222.5 265,222.5 264.202,224.095 262.805,229 259.5,229 258.631,229 256.676,224 256.5,224 256.5,224 254,227 254,227 254,233.795 255,240.592 255,247 255,248.614 258.31,248 259.5,248 264.379,248 267.614,244 272,244 272,244 272,243 272,243 272,241.535 271.891,239 274,239 274,239 274,238 274,238 274,238 275,237 275,237 275,235.24 278.781,227.859 280.5,227 280.5,227 283,229 283,229 283,225.814 283,221.109 283,218 283,207.032 284.578,193.656 280,184.5 278.573,181.646 269,177.089 269,174 269,174 261,176 261,176 261,176 260,177 260,177 256.757,177 257.106,178.697 254.5,180 254.5,180 239.5,181 239.5,181 236.238,179.369 223.565,176 220,176 220,176 219,177 219,177 219,177 218,178 218,178 215.776,178 215.728,180.386 214.5,181 202.629,186.936 204,208.221 204,221 205.473,221 205,222.952 205,224 205,231.288 211,234.537 211,241 211,241 214,245 214,245 215.429,245 218,246.288 218,248  Z"/>

<path  fill="#00FF1D" stroke-width="0" stroke="#00FF1D" d = " M235 220 C233.772,220 231.313,228 228.5,228 L226.5,226 L224.5,228 C223.595,227.548 218.248,224.997 218,224.5 215.646,219.792 218.121,207.258 220,203.5 221.218,201.063 219.305,196.597 222.5,195 226.786,192.857 232.331,193.085 236.5,191 239.347,189.576 246.719,187.11 250.5,189 252.213,189.857 253.319,191.41 254.5,192 258.438,193.969 264.398,189.296 268,196.5 269.418,199.336 270,214.406 270,218.5 L265,222.5 C264.202,224.095 262.805,229 259.5,229 258.631,229 256.676,224 256.5,224 L254,227 C251.936,227 253.574,223.647 253,222.5 251.241,218.982 251,214.211 251,210 251,210 250,209 250,209 250,209 250,205 250,205 250,205 249,203 249,203 249,200.676 241.506,195.488 240,198.5 238.619,201.262 235,216.149 235,220  Z"/>

<path  fill-rule="evenodd" fill="#15C0FF" stroke-width="0" stroke="#15C0FF" d = " M252 241 C252,244.746 254.091,241 252,241  M247 244 C249.41,244 252.323,250 252.5,250 L255,247 C255,240.592 254,233.795 254,227 251.936,227 253.574,223.647 253,222.5 251.241,218.982 251,214.211 251,210 251,210 250,209 250,209 250,209 250,205 250,205 250,205 249,203 249,203 249,200.676 241.506,195.488 240,198.5 238.619,201.262 235,216.149 235,220 235,223.42 236.262,234.977 235,237.5 234.064,239.373 232,240.73 232,243 234.212,243 234.212,244 232,244 232,250.544 239.484,244 241,244 241,244 242,240 242,240 242,237.788 243,237.788 243,240 243,240 244,240 244,240 246.715,240 247,241.657 247,244  Z"/>

<path  fill="#FF0800" stroke-width="0" stroke="#FF0800" d = " M249 203 L250,205 C250,205 249,203 249,203  Z"/>

<path  fill="#FF3427" stroke-width="0" stroke="#FF3427" d = " M298 256 L299,262 C299,262 295.5,263 295.5,263 294.781,262.641 292,244.092 292,242 292,242 292,239 292,239 292,239 292,238 292,238 292,238 293,230 293,230 293,228.667 293,228.333 293,227 293,227 292,222 292,222 292,222 293,220 293,220 293,220 297,221 297,221 297,221 297,222 297,222 297,222 297,228 297,228 295.1,228 297,235.241 297,237 297,237 297,240 297,240 297,240 297,242 297,242 297,243.048 296.527,245 298,245 298,247.707 297,250.903 297,253 294.784,253 296.652,256 298,256  Z"/>

<path  fill="#022CFF" stroke-width="0" stroke="#022CFF" d = " M274 239 L275,239 C275,239 278,238 278,238 278,238 279,236 279,236 279,236 280,234 280,234 280,234 283,230 283,230 283,230 283,229 283,229 283,229 280.5,227 280.5,227 278.781,227.859 275,235.24 275,237 275,237 274,238 274,238 274,238 274,239 274,239  Z"/>

<path  fill="#0008B6" stroke-width="0" stroke="#0008B6" d = " M274 243 L272,244 C272,245.532 269.056,248.612 270,250.5 271.165,252.831 286.973,253.264 289.5,252 293.976,249.762 288.819,242 292,242 292,242 292,239 292,239 292,239 290,237 290,237 290,232.587 287.245,230 283,230 283,230 280,234 280,234 280,234 279,236 279,236 279,236 278,238 278,238 278,238 275,239 275,239 275,239 274,243 274,243  Z"/>

<path  fill="#FF3427" stroke-width="0" stroke="#FF3427" d = " M195 254 C195,256.245 193,257.905 193,259.5 193,261.299 194.187,274.844 190.5,273 188.148,271.824 190.533,266 188,266 188,261.281 188.02,255.459 190,251.5 190,251.5 189,247.5 189,247.5 189,247.5 191,242 191,242 191.274,242 194,232.929 194,232 194,232 194,231 194,231 200.412,231 194.174,239 197,239 197,239 195,247 195,247 193.601,247 193.601,249 195,249 195,249 195,250 195,250 195,250.839 193.07,252 195,252 195,252 195,254 195,254  Z"/>

<path  fill="#0008B6" stroke-width="0" stroke="#0008B6" d = " M214 261 L215,261 C215,261 217,259 217,259 217,259 218,260 218,260 218,260 219,260 219,260 219,260 220,259 220,259 220,255.358 219,250.998 219,248 219,248 218,248 218,248 218,250.738 216.661,247 216.5,247 216.5,247 215.5,249 215.5,249 215.5,249 214,245 214,245 208.735,245 208,243.697 208,239 208,239 203,233 203,233 203,233 197,239 197,239 197,239 195,247 195,247 195,247 195,249 195,249 195,249 195,250 195,250 196.399,250 196.399,252 195,252 195,252 195,254 195,254 195,254 196.5,255 196.5,255 196.5,255 197.5,250 197.5,250 197.5,250 198,252.5 198,252.5 198,252.5 204.5,259 204.5,259 205.347,259.847 211,263.278 211,261 211,259.514 214,259.514 214,261  Z"/>

<path  fill="#FF91BA" stroke-width="0" stroke="#FF91BA" d = " M188 266 C185.015,266 181.849,270 178,270 178,267.54 179,264.31 179,262.5 179,262.5 177,261.5 177,261.5 176.406,260.313 176.642,258.784 176,257.5 173.658,252.817 181.833,236 190,236 190,236 191,242 191,242 191,242 189,247.5 189,247.5 189,247.5 190,251.5 190,251.5 188.02,255.459 188,261.281 188,266  Z"/>

<path  fill="#E1F00D" stroke-width="0" stroke="#E1F00D" d = " M292 238 L292,239 C292,239 290,237 290,237 290,237 292,238 292,238  Z"/>

<path  fill="#FF91BA" stroke-width="0" stroke="#FF91BA" d = " M299 262 C302.226,262 300.231,265.962 301,267.5 303.909,273.318 308,264.903 308,262 308,262 309,260 309,260 309,260 309,257 309,257 309,257 309,254 309,254 306.793,254 308.662,248.824 308,247.5 305.446,242.391 306.592,238 299,238 299,238 297,240 297,240 297,240 297,242 297,242 298.473,242 298,243.952 298,245 298,247.707 297,250.903 297,253 298.473,253 298,254.952 298,256 298,256 299,262 299,262  Z"/>

<path  fill="#022CFF" stroke-width="0" stroke="#022CFF" d = " M241 244 C243.105,244 237.678,251.089 241.5,253 248.562,256.531 246,246.723 246,244 246,244 244,240 244,240 244,240 243,240 243,240 243,240 242,240 242,240 242,240 241,244 241,244  Z"/>

<path  fill-rule="evenodd" fill="#E1F00D" stroke-width="0" stroke="#E1F00D" d = " M297 266 L295,268.5 C294.371,269.758 295.946,272.777 297.5,272 299.921,270.79 299.847,266 297,266  M204 262 C204,268.22 209.95,262 204,262  M245 320 C249.507,320 253.73,323.115 257.5,325 262.844,327.672 279.382,323.941 287.5,328 L289,336.5 C291.495,341.491 296.079,343.789 300.5,346 308.073,349.786 325.824,347.338 332.5,344 L337.5,345 L342,339 C342,339 354,328.5 354,328.5 354,328.5 355,321.5 355,321.5 357.566,316.369 360.442,311.616 363,306.5 365.643,301.214 360,295.938 360,291 356.198,291 353.625,294 349,294 348.404,294 344,288.731 344,292 344,292 345,294.5 345,294.5 343.045,298.409 338.626,294 336,294 332.806,294 315,282.454 315,279 315,274.36 310.907,276.314 309,272.5 307.249,268.998 309,265.71 309,262 309,262 308,262 308,262 308,264.903 303.909,273.318 301,267.5 300.231,265.962 302.226,262 299,262 299,262 295.5,263 295.5,263 294.781,262.641 292,244.092 292,242 288.819,242 293.976,249.762 289.5,252 286.973,253.264 271.165,252.831 270,250.5 269.056,248.612 272,245.532 272,244 267.614,244 264.379,248 259.5,248 258.31,248 255,248.614 255,247 255,247 252.5,250 252.5,250 252.323,250 249.41,244 247,244 247,244 246,244 246,244 246,246.723 248.562,256.531 241.5,253 237.678,251.089 243.105,244 241,244 239.484,244 232,250.544 232,244 232,244 224.5,249 224.5,249 224.5,249 219,248 219,248 219,250.998 220,255.358 220,259 220,259 222,259 222,259 222,255.89 227.822,256.839 229.5,256 237.224,252.138 254.951,252.725 261.5,256 263.392,256.946 270,255.414 270,259 270.915,259 281.292,267.917 281,268.5 280.223,270.053 274,269.165 274,271 274,273.288 261.95,275 259,275 255.248,275 234.507,273.497 233.5,274 230.983,275.259 223.58,277.04 221.5,276 221.5,276 217,273 217,273 215.114,273 207.456,270.588 209,267.5 210.394,264.712 214,265.433 214,262 214,262 211,261 211,261 211,263.278 205.347,259.847 204.5,259 204.5,259 198,252.5 198,252.5 198,252.5 197.5,250 197.5,250 197.5,250 196.5,255 196.5,255 196.5,255 195,254 195,254 195,256.245 193,257.905 193,259.5 193,261.299 194.187,274.844 190.5,273 188.148,271.824 190.533,266 188,266 185.015,266 181.849,270 178,270 178,275.717 166,276.389 166,282 167.96,282 171,281.874 171,284.5 171,286.821 166.576,285.962 164.5,287 161.642,288.429 152.776,298.638 147.5,296 144.299,294.399 152.123,292.188 152.5,292 155.07,290.715 159,287.231 159,285 152.351,285 149.021,291.24 143.5,294 143.5,294 139,293 139,293 139,293 138,295 138,295 138,295 136,296 136,296 136,296 134,296.5 134,296.5 134,296.5 136,301.5 136,301.5 136,301.5 136,308.5 136,308.5 140.734,317.967 142,328.538 142,340 142,344.602 147.716,338.608 150.5,340 154.236,341.868 158.502,346.501 163.5,349 170.423,352.461 190.83,341.835 196.5,339 202.949,335.776 202.694,327.403 209.5,324 209.5,324 219.5,327 219.5,327 224.844,329.672 234.643,325.857 238,322.5 238,322.5 242,320 242,320 242,315.396 244.107,286.713 242,282.5 240.896,280.292 241.914,274.207 245.5,276 245.5,276 245,320 245,320  Z"/>

<path  fill="#E1F00D" stroke-width="0" stroke="#E1F00D" d = " M274 243 L272,244 C272,244 272,243 272,243 272,243 274,243 274,243  Z"/>

<path  fill="#E1F00D" stroke-width="0" stroke="#E1F00D" d = " M214 245 C215.429,245 218,246.288 218,248 218,250.738 216.661,247 216.5,247 216.5,247 215.5,249 215.5,249 215.5,249 214,245 214,245  Z"/>

<path  fill="#E1F00D" stroke-width="0" stroke="#E1F00D" d = " M195 247 C193.601,247 193.601,249 195,249 195,249 195,247 195,247  Z"/>

<path  fill="#E1F00D" stroke-width="0" stroke="#E1F00D" d = " M195 250 C196.399,250 196.399,252 195,252 193.07,252 195,250.839 195,250  Z"/>

<path  fill="#E1F00D" stroke-width="0" stroke="#E1F00D" d = " M297 253 C298.473,253 298,254.952 298,256 296.652,256 294.784,253 297,253  Z"/>

<path  fill="#7CFC00" stroke-width="0" stroke="#7CFC00" d = " M274 271 C274,273.288 261.95,275 259,275 255.248,275 234.507,273.497 233.5,274 230.983,275.259 223.58,277.04 221.5,276 L217,273 C217,271.655 218.004,267.248 218.5,267 218.5,267 221,265.5 221,265.5 221,265.5 219,262.5 219,262.5 219,261.879 222,261.111 222,259 222,255.89 227.822,256.839 229.5,256 237.224,252.138 254.951,252.725 261.5,256 263.392,256.946 270,255.414 270,259 268.414,259 264.559,258.618 266,261.5 266.798,263.097 267.683,257.866 269,260.5 270.64,263.78 268,263.024 268,265.5 268,266.149 273.319,271 274,271  Z"/>

<path  fill="#E1F00D" stroke-width="0" stroke="#E1F00D" d = " M217 260 L218,260 C218,260 217,259 217,259 217,259 217,260 217,260  Z"/>

<path  fill="#E1F00D" stroke-width="0" stroke="#E1F00D" d = " M220 259 L219,260 C219,260 220,259 220,259  Z"/>

<path  fill="#FFBB00" stroke-width="0" stroke="#FFBB00" d = " M214 262 C214,265.433 210.394,264.712 209,267.5 207.456,270.588 215.114,273 217,273 217,271.655 218.004,267.248 218.5,267 218.5,267 221,265.5 221,265.5 221,265.5 219,262.5 219,262.5 219,261.879 222,261.111 222,259 222,259 220,259 220,259 220,259 219,260 219,260 219,260 218,260 218,260 218,260 217,260 217,260 217,260 215,261 215,261 215,261 214,261 214,261 214,261 214,262 214,262  Z"/>

<path  fill="#FFBB00" stroke-width="0" stroke="#FFBB00" d = " M270 259 C270.915,259 281.292,267.917 281,268.5 280.223,270.053 274,269.165 274,271 273.319,271 268,266.149 268,265.5 268,263.024 270.64,263.78 269,260.5 267.683,257.866 266.798,263.097 266,261.5 264.559,258.618 268.414,259 270,259  Z"/>

<path  fill="#0008B6" stroke-width="0" stroke="#0008B6" d = " M204 262 C204,268.22 209.95,262 204,262  Z"/>

<path  fill="#FF3427" stroke-width="0" stroke="#FF3427" d = " M297 266 L295,268.5 C294.371,269.758 295.946,272.777 297.5,272 299.921,270.79 299.847,266 297,266  Z"/>

<path  fill="#022CFF" stroke-width="0" stroke="#022CFF" d = " M242 320 C242.476,320 245,323.803 245,320 245,320 245.5,276 245.5,276 241.914,274.207 240.896,280.292 242,282.5 244.107,286.713 242,315.396 242,320  Z"/>

<path  fill="#FFBB00" stroke-width="0" stroke="#FFBB00" d = " M315 279 C316.606,279 319.339,276.919 321.5,278 L324.5,282 C329.858,284.679 338.533,292 344,292 344,292 345,294.5 345,294.5 343.045,298.409 338.626,294 336,294 332.806,294 315,282.454 315,279  Z"/>

<path  fill="#E1F00D" stroke-width="0" stroke="#E1F00D" d = " M166 282 C163.823,282 162,281.359 162,284 163.465,284 166,284.109 166,282  Z"/>

<path  fill="#FFBB00" stroke-width="0" stroke="#FFBB00" d = " M162 284 C162,285.473 160.048,285 159,285 159,287.231 155.07,290.715 152.5,292 152.123,292.188 144.299,294.399 147.5,296 152.776,298.638 161.642,288.429 164.5,287 166.576,285.962 171,286.821 171,284.5 171,281.874 167.96,282 166,282 166,284.109 163.465,284 162,284  Z"/>

<path  fill="#E1F00D" stroke-width="0" stroke="#E1F00D" d = " M162 284 C160.952,284 159,283.527 159,285 160.048,285 162,285.473 162,284  Z"/>

<path  fill="#E1F00D" stroke-width="0" stroke="#E1F00D" d = " M362 288 C358.788,288 360,289.288 360,291 360,291 362,288 362,288  Z"/>

<path  fill="#814FFF" stroke-width="0" stroke="#814FFF" d = " M138 295 L136,296 C136,296 138,295 138,295  Z"/>

<path  fill="#267EFF" stroke-width="0" stroke="#267EFF" d = " M236 326 C236,331.836 219.194,325.887 224,335.5 225.17,337.841 230.547,336.023 232.5,337 236.637,339.069 269,338.411 269,331.5 269,328.47 258.241,328.871 256.5,328 253.691,326.595 252.474,326 249,326 244.592,326 239.189,326 236,326  Z"/>

<path  fill="#FA8072" stroke-width="0" stroke="#FA8072" d = " M118 345 L117,348.5 C117.55,349.599 127.971,357.235 131.5,359 132.821,359.66 133.505,364.498 136.5,363 148.35,357.075 122.401,345 118,345  Z"/>

<path  fill="#FA8072" stroke-width="0" stroke="#FA8072" d = " M361 346 L358.5,353 L356,350.5 L355,355.5 C353.716,358.068 355.093,365.203 359.5,363 366.322,359.589 373.24,346 361,346  Z"/>

<path  fill="#FA8072" stroke-width="0" stroke="#FA8072" d = " M298 347 L294.5,349 L289,355.5 C287.674,358.153 291.521,365 291.5,365 287.455,365 284.484,360.532 281,367.5 280.036,369.427 281.272,373.045 282,374.5 L281,378 C281,385.902 283.865,385.183 289.5,388 L295.5,394 L298.5,390 L301.5,391 L304.5,388 L314.5,383 C317.119,381.691 314.988,377.524 316,375.5 L322,370.5 C323.511,367.479 322.269,357.037 321,354.5 317.693,347.886 308.82,352.66 305.5,351 302.961,349.73 302.119,347 298,347  Z"/>

<path  fill="#FA8072" stroke-width="0" stroke="#FA8072" d = " M182 351 C182,352.858 164.106,359.713 166,363.5 167.876,367.253 171.922,366.343 173,368.5 L173,372.5 C174.663,375.826 176.426,377.352 178,380.5 L178.5,385 C180.549,386.024 183.535,385.017 185.5,386 186.77,386.635 184.567,392.534 189.5,395 L196.5,394 C197.792,394 201.217,396.065 202,394.5 202.595,393.309 200.83,388 203.5,388 205.872,388 204.314,393 205.5,393 L207,389.5 C209.437,384.627 210.67,373.839 208,368.5 L201,363.5 C195.074,351.649 195.362,351 182,351  Z"/>

<path  fill="#FA8072" stroke-width="0" stroke="#FA8072" d = " M349 366 C349,371.307 340.746,366.008 339,369.5 336.038,375.424 341.305,374.111 343,377.5 L343.5,382 L344,376.5 C345.615,373.271 351.805,371.891 352,371.5 353.019,369.461 352.074,366 349,366  Z"/>

<path  fill="#FA8072" stroke-width="0" stroke="#FA8072" d = " M148 370 C148,371.791 144.73,372.959 146,375.5 150.889,385.278 165.883,374.692 156.5,370 L148,370  Z"/>

</g>
</svg>
