<svg xmlns="http://www.w3.org/2000/svg" xmlns:xlink="http://www.w3.org/1999/xlink" height="512" width="512">
<g>
<rect width="512" height="512" fill="#000000"  stroke-width="0" /> 
<path  fill-rule="evenodd" fill="#FFFF00" stroke-width="0" stroke="#FFFF00" d = " M368 217 C368,226.211 370.105,217 368,217  M383 186 C383,188.296 383,190.877 383,193 L383,198.5 C383,199.583 386.688,207.124 388,204.5 389.707,201.086 388.204,186 383,186  M125 166 L123,168.5 C118.857,176.785 105.274,182.047 110,191.5 L111.5,195 C112.726,195.613 115.51,190.48 116,189.5 117.225,187.051 132.605,166 125,166  M280 154 C280,158.922 288.096,158.798 282.5,156 L280,154  M277 153 C277,158.456 281.529,153 277,153  M137 152 C137,157.567 139.112,152 137,152  M329 151 C329,152.317 325.644,152.788 327,155.5 333.874,169.247 343.622,179.745 351,194.5 354.045,200.589 365.899,205.298 368,209.5 368.704,210.907 371.242,211.015 372,209.5 374.251,204.998 373.273,183.955 374,182.5 375.371,179.759 374.765,175.971 375,175.5 L377,174.5 C377,171.427 373.932,169.364 373,167.5 L372.5,165 L371.5,167 C365.986,167 366.02,155.74 361.5,158 353.814,161.843 370.433,187.366 372,190.5 373.611,193.722 370.919,202 368.5,202 L367.5,198 L366.5,200 C364.778,200 362.93,198 361.5,198 359.519,198 359.483,193.466 359,192.5 L356,190.5 C354.31,187.12 353.776,183.052 352,179.5 L352,164.5 C347.316,155.132 341.348,155 333.5,155 L329,151  M154 151 C154,152.466 142.746,154.009 140,159.5 136.862,165.775 138.111,174.279 135,180.5 L131,184.5 C129.49,187.52 128.549,191.402 127,194.5 125.833,196.833 106.302,203.901 114.5,208 120.226,210.863 124.512,202.994 128.5,201 139.57,195.465 147.012,177.475 152,167.5 152.96,165.58 161.039,151 154,151  M263 146 C263,149.131 267.062,150.281 268.5,151 269.508,151.504 274,153.579 274,151.5 L263,146  M260 146 C260,153.973 265.509,146 260,146  M243 135 C243,136.585 238.035,136.571 239,138.5 241.341,143.183 265.191,140.845 255.5,136 L248.5,136 C246.559,135.029 245.378,135 243,135  M242 118 L241,122.5 C243.086,126.672 256.8,118 245.5,118 L242,118  M129 233 L131,233 C132.561,233 132.031,238.734 135.5,237 155.3,227.1 172.14,205.22 182,185.5 185.808,177.885 191.499,160 199.5,156 202.414,154.543 206.886,152 209.5,152 211.364,152 216.317,154.091 218.5,153 218.5,153 222.5,151 222.5,151 222.898,151 225.212,153 226.5,153 226.5,153 227.5,151 227.5,151 233.665,151 243.809,151 251.5,151 259.645,151 267.001,156 273.5,156 275.628,156 275.524,159.547 276,160.5 276,160.5 278,160.5 278,160.5 278,160.5 278.5,163 278.5,163 295.198,163 297.812,179.124 305,193.5 305,193.5 312,200.5 312,200.5 313.8,204.099 318.583,213.041 322.5,215 322.5,215 331.5,218 331.5,218 332.761,218.63 340.669,222.161 342,219.5 346.273,210.954 330.476,209.452 327,202.5 323.524,195.547 312.899,190.297 309,182.5 305.258,175.015 299.809,168.117 296,160.5 296,160.5 281,150.5 281,150.5 280.413,149.327 287.048,140.226 287.5,140 294.809,136.346 303.633,167 309.5,167 312.997,167 311.684,160.867 311,159.5 308.837,155.173 305,150.607 305,145.5 305,143.611 305.545,139 307.5,139 312.322,139 318.338,158.176 320,161.5 320,161.5 320,167.5 320,167.5 326.233,179.966 343.831,213.165 355.5,219 361.268,221.884 360.609,227 368,227 374.126,227 368.429,218.641 370,215.5 370,215.5 371.5,216 371.5,216 371.5,216 373.5,214 373.5,214 373.5,214 375,215.5 375,215.5 376.24,213.019 375.08,199.21 377.5,198 380.039,196.73 378.41,207.32 379,208.5 379.969,210.437 380.519,215.991 384.5,214 384.5,214 385.5,212 385.5,212 385.5,212 387.5,213 387.5,213 395.949,208.775 395.75,195.001 392,187.5 390.06,183.62 391.961,177.423 390,173.5 390,173.5 386,172.5 386,172.5 386,172.5 388,171.5 388,171.5 388,171.5 384.5,169 384.5,169 384.465,169 381.777,174.055 381,172.5 381,172.5 381,166.5 381,166.5 379.602,163.704 368.003,151 367.5,151 367.5,151 362.5,146 362.5,146 361.316,146 359.325,147.913 357.5,147 356.271,146.385 357.729,142.385 356.5,143 356.5,143 355.5,147 355.5,147 355.5,147 353.5,145 353.5,145 350.849,146.326 351.012,153 350.5,153 350.378,153 341.137,142 340.5,142 339.184,142 339.187,141 338.5,141 336.592,141 336.287,145.893 332.5,144 332.5,144 330.5,141 330.5,141 328.845,140.173 327.191,141.882 326,139.5 326,139.5 325.5,137 325.5,137 325.5,137 324.5,139 324.5,139 324.5,139 319.5,137 319.5,137 318.187,137.656 319.193,141 316.5,141 313.419,141 312.895,134.291 312,132.5 310.834,130.168 305.135,131.77 304,129.5 302.918,127.335 300.754,120.627 299.5,120 289.265,114.883 296.084,133.708 293.5,135 293.316,135.092 285.826,129.663 284.5,129 282.681,128.091 276.39,131.445 273.5,130 270.512,128.506 272.046,123.773 268.5,122 264.469,119.985 257.79,116.145 251.5,113 247.491,110.995 240.684,113.908 238.5,115 234.242,117.129 223.849,115.826 219.5,118 219.5,118 218.5,120 218.5,120 218.5,120 215,120.5 215,120.5 215,120.5 215.5,122 215.5,122 215.5,122 209.5,123 209.5,123 209.5,123 204.5,128 204.5,128 204.451,128.025 199.351,125.574 194.5,128 192.808,128.846 188.767,140.867 186.5,142 183.402,143.549 186.249,130.125 182.5,132 179.31,133.595 170.693,137.115 169,140.5 168.351,141.797 168.039,148 165.5,148 163.273,148 166.007,139 161.5,139 155.917,139 148.769,141.731 144,146.5 144,146.5 140.5,151 140.5,151 135.863,153.319 138.567,143.466 133.5,146 127.686,148.907 109.78,168.94 107,174.5 102.094,184.313 108.932,202.363 113,210.5 113.895,212.29 117.545,212.591 118,213.5 118,213.5 118,224.5 118,224.5 118,224.5 121,228 121,228 121,228 122,230 122,230 122,230 123,232 123,232 123,232 124,233 124,233 124,233 126,233 126,233 126,233 129,233 129,233  M201 134 L201,137 C201,147.804 193.947,147.606 190,155.5 182.394,170.711 168.639,183.221 161,198.5 157.696,205.108 150.03,208.44 147,214.5 143.962,220.575 125.144,233.788 122,227.5 119.53,222.561 129.021,215.739 132.5,214 142.532,208.984 157.282,186.936 162,177.5 166.607,168.286 166.348,156.804 171,147.5 172.226,145.047 175.062,138.281 178.5,140 182.967,142.234 176.337,154.825 175,157.5 174.455,158.589 174.749,164 176.5,164 181.937,164 184.304,153.892 186,150.5 186,150.5 196.5,134 196.5,134 196.5,134 197.5,136 197.5,136 197.5,136 198.5,132 198.5,132 198.5,132 200,134 200,134 200,132.814 201,132.814 201,134  Z"/>

<path  fill="#00FFFF" stroke-width="0" stroke="#00FFFF" d = " M242 118 L241,122.5 C243.086,126.672 256.8,118 245.5,118 L242,118  Z"/>

<path  fill="#00FFFF" stroke-width="0" stroke="#00FFFF" d = " M200 134 L198.5,132 L197.5,136 L196.5,134 L186,150.5 C184.304,153.892 181.937,164 176.5,164 174.749,164 174.455,158.589 175,157.5 176.337,154.825 182.967,142.234 178.5,140 175.062,138.281 172.226,145.047 171,147.5 166.348,156.804 166.607,168.286 162,177.5 157.282,186.936 142.532,208.984 132.5,214 129.021,215.739 119.53,222.561 122,227.5 125.144,233.788 143.962,220.575 147,214.5 150.03,208.44 157.696,205.108 161,198.5 168.639,183.221 182.394,170.711 190,155.5 193.947,147.606 201,147.804 201,137 199.527,137 200,135.048 200,134  Z"/>

<path  fill="#00FFFF" stroke-width="0" stroke="#00FFFF" d = " M200 134 L201,134 C201,132.814 200,132.814 200,134  Z"/>

<path  fill="#00FFFF" stroke-width="0" stroke="#00FFFF" d = " M243 135 C243,136.585 238.035,136.571 239,138.5 241.341,143.183 265.191,140.845 255.5,136 L248.5,136 C246.559,135.029 245.378,135 243,135  Z"/>

<path  fill-rule="evenodd" fill="#00FFFF" stroke-width="0" stroke="#00FFFF" d = " M243 181 C243,182.643 239.235,182 238,182 233.909,182 230.395,183 226,183 216.17,183 194.693,188.807 188,195.5 185.162,198.338 176.777,202.054 180,208.5 180.874,210.248 189.108,203.696 190.5,203 195.302,200.599 204.074,196 209.5,196 214.425,196 220.786,198.143 226.5,201 L259.5,199 C264.414,199 269.126,190.813 275.5,194 279.905,196.203 303.484,211.508 306.5,210 310.373,208.064 294.637,192.068 292.5,191 276.805,183.153 262.17,181 243,181  M141 242 L145,243 C145,238.523 156.789,240.356 159.5,239 167.406,235.047 167.227,225.137 175.5,221 175.5,221 184.5,215 184.5,215 184.5,215 191.5,215 191.5,215 193.418,214.041 195.703,213.899 197.5,213 197.5,213 199.5,210 199.5,210 199.5,210 200.5,213 200.5,213 201.048,213 202.1,211 203.5,211 204.062,211 206.32,215 208,215 208,212.971 209,214.942 209,216 209,218.487 214.842,220 215.5,220 215.5,220 216.5,222 216.5,222 216.5,222 219.5,221 219.5,221 219.5,221 222.5,222 222.5,222 222.5,222 227.5,218 227.5,218 230.37,216.565 242.518,216.509 245.5,218 245.5,218 246.5,220 246.5,220 246.5,220 247.5,218 247.5,218 247.5,218 262.5,217 262.5,217 267.49,219.495 264.288,222 271.5,222 271.5,222 284.5,211 284.5,211 288.549,211 313.74,223.981 316,228.5 318.482,233.465 320.87,239.185 326.5,242 331.916,244.708 337.06,238.72 340.5,237 343.031,235.735 348,239.517 348,240 348.929,240 358,237.274 358,237 353.49,237 349.55,235.025 345.5,233 342.121,231.31 336.949,232.724 333.5,231 330.032,229.266 326.105,225.698 331.5,223 332.921,222.29 338.149,225.325 339.5,226 346.099,229.3 364,222.975 364,235 364,235 367,236 367,236 367,233.374 368,230.543 368,227 360.609,227 361.268,221.884 355.5,219 343.831,213.165 326.233,179.966 320,167.5 320,167.5 320,161.5 320,161.5 318.338,158.176 312.322,139 307.5,139 305.545,139 305,143.611 305,145.5 305,150.607 308.837,155.173 311,159.5 311.684,160.867 312.997,167 309.5,167 303.633,167 294.809,136.346 287.5,140 287.048,140.226 280.413,149.327 281,150.5 281,150.5 296,160.5 296,160.5 299.809,168.117 305.258,175.015 309,182.5 312.899,190.297 323.524,195.547 327,202.5 330.476,209.452 346.273,210.954 342,219.5 340.669,222.161 332.761,218.63 331.5,218 331.5,218 322.5,215 322.5,215 318.583,213.041 313.8,204.099 312,200.5 312,200.5 305,193.5 305,193.5 297.812,179.124 295.198,163 278.5,163 278.5,163 278,160.5 278,160.5 278,160.5 276,160.5 276,160.5 275.524,159.547 275.628,156 273.5,156 267.001,156 259.645,151 251.5,151 243.809,151 233.665,151 227.5,151 227.5,151 226.5,153 226.5,153 225.212,153 222.898,151 222.5,151 222.5,151 218.5,153 218.5,153 216.317,154.091 211.364,152 209.5,152 206.886,152 202.414,154.543 199.5,156 191.499,160 185.808,177.885 182,185.5 172.14,205.22 155.3,227.1 135.5,237 132.031,238.734 132.561,233 131,233 131,233 131,237 131,237 133.858,237 137.602,242 141,242  M204 167 C204,171.653 189.666,173.833 193,180.5 195.043,184.586 205.863,176.319 208.5,175 217.148,170.676 230.839,177.33 239.5,173 243.369,171.065 272.266,173.383 275.5,175 276.747,175.624 285.271,178.958 286,177.5 289.332,170.837 274.743,167.622 271.5,166 259.356,159.928 227.942,163 215.5,163 212.883,163 209.113,167 206,167 206,165.601 204,165.601 204,167  Z"/>

<path  fill="#00FFFF" stroke-width="0" stroke="#00FFFF" d = " M154 151 C154,152.466 142.746,154.009 140,159.5 136.862,165.775 138.111,174.279 135,180.5 L131,184.5 C129.49,187.52 128.549,191.402 127,194.5 125.833,196.833 106.302,203.901 114.5,208 120.226,210.863 124.512,202.994 128.5,201 139.57,195.465 147.012,177.475 152,167.5 152.96,165.58 161.039,151 154,151  Z"/>

<path  fill-rule="evenodd" fill="#00FFFF" stroke-width="0" stroke="#00FFFF" d = " M338 157 C338,158.93 339.93,157 338,157  M329 151 C329,152.317 325.644,152.788 327,155.5 333.874,169.247 343.622,179.745 351,194.5 354.045,200.589 365.899,205.298 368,209.5 368.704,210.907 371.242,211.015 372,209.5 374.251,204.998 373.273,183.955 374,182.5 375.371,179.759 374.765,175.971 375,175.5 L377,174.5 C377,171.427 373.932,169.364 373,167.5 L372.5,165 L371.5,167 C365.986,167 366.02,155.74 361.5,158 353.814,161.843 370.433,187.366 372,190.5 373.611,193.722 370.919,202 368.5,202 L367.5,198 L366.5,200 C364.778,200 362.93,198 361.5,198 359.519,198 359.483,193.466 359,192.5 L356,190.5 C354.31,187.12 353.776,183.052 352,179.5 L352,164.5 C347.316,155.132 341.348,155 333.5,155 L329,151  Z"/>

<path  fill="#FFFF00" stroke-width="0" stroke="#FFFF00" d = " M338 157 C338,158.93 339.93,157 338,157  Z"/>

<path  fill="#FFFF00" stroke-width="0" stroke="#FFFF00" d = " M204 167 L206,167 C209.113,167 212.883,163 215.5,163 227.942,163 259.356,159.928 271.5,166 274.743,167.622 289.332,170.837 286,177.5 285.271,178.958 276.747,175.624 275.5,175 272.266,173.383 243.369,171.065 239.5,173 230.839,177.33 217.148,170.676 208.5,175 205.863,176.319 195.043,184.586 193,180.5 189.666,173.833 204,171.653 204,167  Z"/>

<path  fill="#00FFFF" stroke-width="0" stroke="#00FFFF" d = " M125 166 L123,168.5 C118.857,176.785 105.274,182.047 110,191.5 L111.5,195 C112.726,195.613 115.51,190.48 116,189.5 117.225,187.051 132.605,166 125,166  Z"/>

<path  fill="#FFFF00" stroke-width="0" stroke="#FFFF00" d = " M243 181 C243,182.643 239.235,182 238,182 233.909,182 230.395,183 226,183 216.17,183 194.693,188.807 188,195.5 185.162,198.338 176.777,202.054 180,208.5 180.874,210.248 189.108,203.696 190.5,203 195.302,200.599 204.074,196 209.5,196 214.425,196 220.786,198.143 226.5,201 L259.5,199 C264.414,199 269.126,190.813 275.5,194 279.905,196.203 303.484,211.508 306.5,210 310.373,208.064 294.637,192.068 292.5,191 276.805,183.153 262.17,181 243,181  Z"/>

<path  fill="#00FFFF" stroke-width="0" stroke="#00FFFF" d = " M383 186 C383,188.296 383,190.877 383,193 L383,198.5 C383,199.583 386.688,207.124 388,204.5 389.707,201.086 388.204,186 383,186  Z"/>

<path  fill="#FFFF00" stroke-width="0" stroke="#FFFF00" d = " M333 246 L334,246 C334,246 336,245 336,245 336.706,245 342,243.675 342,243 342,243 343,242 343,242 344.569,242 348,243.282 348,240 348,239.517 343.031,235.735 340.5,237 337.06,238.72 331.916,244.708 326.5,242 320.87,239.185 318.482,233.465 316,228.5 313.74,223.981 288.549,211 284.5,211 284.5,211 271.5,222 271.5,222 264.288,222 267.49,219.495 262.5,217 262.5,217 247.5,218 247.5,218 247.5,218 246.5,220 246.5,220 246.5,220 245.5,218 245.5,218 242.518,216.509 230.37,216.565 227.5,218 227.5,218 222.5,222 222.5,222 222.5,222 219.5,221 219.5,221 219.5,221 216.5,222 216.5,222 216.5,222 215.5,220 215.5,220 214.842,220 209,218.487 209,216 209,216 208,215 208,215 206.32,215 204.062,211 203.5,211 202.1,211 201.048,213 200.5,213 200.5,213 199.5,210 199.5,210 199.5,210 197.5,213 197.5,213 195.703,213.899 193.418,214.041 191.5,215 191.5,215 184.5,215 184.5,215 184.5,215 175.5,221 175.5,221 167.227,225.137 167.406,235.047 159.5,239 156.789,240.356 145,238.523 145,243 145,243 145,244 145,244 145,245.747 145.253,246 147,246 147,246 150,246 150,246 150,243.512 152,244.081 152,246 158.854,246 159.811,242.844 167.5,239 169.625,237.937 171.124,229 176,229 176,226.788 177,226.788 177,229 177,229 178,229 178,229 178,229 179,229 179,229 179,226.43 182.284,221 185,221 185,221 186,220 186,220 186,217.739 192.094,219.703 193.5,219 194.991,218.255 195.833,216 197.5,216 198.767,216 209,216.452 209,220 209,220 210,222 210,222 212.293,222 212,222.997 212,225 212,225 213,225 213,225 213,225 215.5,227 215.5,227 215.5,227 221.5,227 221.5,227 221.5,227 228.5,231 228.5,231 228.5,231 231.5,234 231.5,234 234.776,234 233.618,233.559 236.5,235 242.404,237.952 249,236.946 249,237 249,237 250,237 250,237 250,234.155 250.959,236 253,236 253,236 254,236 254,236 254,231.588 265.739,232 267.5,232 269.709,232 266.74,226 270.5,226 274.382,226 277.916,220.292 282.5,218 289.361,214.569 293.953,222 300,222 300,222 301,223 301,223 301,223 302,224 302,224 304.554,224 305.688,227 307,227 307,227 309,230 309,230 309,230 310,231 310,231 311.562,231 315,233.189 315,235 315,236.048 314.527,238 316,238 316,238 318,240 318,240 318,240 319,241 319,241 319.281,241 324.776,246 333,246  Z"/>

<path  fill="#00FFFF" stroke-width="0" stroke="#00FFFF" d = " M186 220 L185,221 C185,221 186,220 186,220  Z"/>

<path  fill-rule="evenodd" fill="#9953FF" stroke-width="0" stroke="#9953FF" d = " M274 348 C274,349.931 267.775,350 266,350 263.718,350 259.394,346.947 257.5,346 254.788,344.644 254.317,348 253,348 253,348 247.5,345 247.5,345 244.523,343.511 239.454,346 237,346 237,346 223,346 223,346 222.062,346 217.979,346.541 219,344.5 220.118,342.264 231.093,346.687 228,340.5 227.179,338.858 214.642,339.217 214,340.5 210.076,348.347 218,347.72 218,350 212.924,350 191.661,345.08 187.5,343 178.446,338.473 163,318.627 163,310 166.267,310 172.411,308.322 170,303.5 168.008,299.517 161.459,298.418 160,295.5 157.734,290.967 158.776,284.052 157,280.5 154.758,276.016 149,271.275 149,266 152.123,266 152.358,270 155.5,270 155.5,270 157.5,265 157.5,265 160.396,263.552 157,264.628 157,262.5 157,262.5 159,261.5 159,261.5 159,257.572 161,253.699 161,249 161,245.071 178,234.143 178,229 178,229 179,229 179,229 179,229 184.5,224 184.5,224 187.885,222.308 189.316,222.592 192.5,221 193.641,220.429 200.211,224.144 204.5,222 205.619,221.441 209,221.845 209,220 209,220 210,222 210,222 210,223.238 210.423,225 212,225 212,225 213,225 213,225 213,225 215,231 215,231 202.631,231 203.771,247 216,247 216,247 217,248 217,248 217,253.124 233.188,257 238,257 238,257 240.5,259 240.5,259 243.322,260.411 247.579,258 250,258 250,258 253.5,259 253.5,259 258.485,256.507 264.071,255.214 268.5,253 269.602,252.449 271.698,248.401 274.5,247 274.5,247 278.5,247 278.5,247 281.402,245.549 280,243.09 280,241.5 280,241.5 283,240.5 283,240.5 285.465,235.571 277.378,232 274,232 269.589,232 282.209,220.855 286.5,223 292.174,225.837 298.311,225.906 304.5,229 304.5,229 315,235 315,235 315,236.048 314.527,238 316,238 316,238 318,240 318,240 318,240 319,241 319,241 319,245.396 322.52,249 327,249 327,252.45 329,253.765 329,257 327.814,257 327.814,258 329,258 329.747,258 332.154,265 337,265 337,271.134 332.686,288.128 330,293.5 330,293.5 319,303.5 319,303.5 317.702,306.096 320.71,309 323,309 323,311.839 326.69,315.121 325,318.5 325,318.5 313.5,328 313.5,328 311.092,330.408 302.182,342.159 300.5,343 293.338,346.581 282.471,348 274,348  M274 348 C274,338.717 259.63,348 270.5,348 L274,348  Z"/>

<path  fill="#00FFFF" stroke-width="0" stroke="#00FFFF" d = " M300 222 L301,223 C301,227.271 300,225.107 300,222  Z"/>

<path  fill="#FFFF00" stroke-width="0" stroke="#FFFF00" d = " M364 235 C364,236.353 359.357,237 358,237 353.49,237 349.55,235.025 345.5,233 342.121,231.31 336.949,232.724 333.5,231 330.032,229.266 326.105,225.698 331.5,223 332.921,222.29 338.149,225.325 339.5,226 346.099,229.3 364,222.975 364,235  Z"/>

<path  fill="#00FFFF" stroke-width="0" stroke="#00FFFF" d = " M302 224 C304.554,224 305.688,227 307,227 307,229.524 302,224.887 302,224  Z"/>

<path  fill="#00FFFF" stroke-width="0" stroke="#00FFFF" d = " M176 229 L177,229 C177,226.788 176,226.788 176,229  Z"/>

<path  fill="#00FFFF" stroke-width="0" stroke="#00FFFF" d = " M121 228 L122,230 C122,230 121,228 121,228  Z"/>

<path  fill-rule="evenodd" fill="#FFFF00" stroke-width="0" stroke="#FFFF00" d = " M384 237 C384,246.211 386.105,237 384,237  M362 250 L361,251 C361,257.629 365.72,262.39 372.5,259 379.194,255.653 386.181,247 389.5,247 389.5,247 392.5,241 392.5,241 393.671,241 392.127,245.187 394.5,244 394.5,244 395,239.5 395,239.5 396.313,236.874 395.023,227.238 393.5,228 393.5,228 378.5,233 378.5,233 376.408,234.046 377.327,240 373,240 373,248.06 377.72,239.94 379,242.5 379,242.5 379,246.5 379,246.5 379,246.5 373.5,247 373.5,247 371.042,248.229 371.242,255 367.5,255 365.269,255 369.956,245 365,245 365,245 364,246 364,246 364,246 363,248 363,248 363,248 362,250 362,250  M391 235 C392.186,235 392.186,236 391,236 391,237.582 388.204,236 387.5,236 386.933,236 386.976,242.452 386,240.5 383.307,235.114 391,229.66 391,235  Z"/>

<path  fill="#00FFFF" stroke-width="0" stroke="#00FFFF" d = " M309 230 L310,231 C310,231 309,230 309,230  Z"/>

<path  fill="#EB57FF" stroke-width="0" stroke="#EB57FF" d = " M216 247 L217,248 C217,253.124 233.188,257 238,257 238,257 240.5,259 240.5,259 243.322,260.411 247.579,258 250,258 250,258 253.5,259 253.5,259 258.485,256.507 264.071,255.214 268.5,253 269.602,252.449 271.698,248.401 274.5,247 274.5,247 278.5,247 278.5,247 281.402,245.549 280,243.09 280,241.5 280,241.5 283,240.5 283,240.5 285.465,235.571 277.378,232 274,232 274,234.93 256.702,236 254,236 254,236 253,236 253,236 253,238.681 250.922,237 250,237 250,237 249,237 249,237 249,237 246,239.5 246,239.5 246,239.5 244.5,246 244.5,246 243.962,246 243.903,238.701 242.5,238 239.591,236.546 218.014,231 215,231 202.631,231 203.771,247 216,247  Z"/>

<path  fill="#00FFFF" stroke-width="0" stroke="#00FFFF" d = " M123 232 L124,233 C124,233 123,232 123,232  Z"/>

<path  fill="#00FFFF" stroke-width="0" stroke="#00FFFF" d = " M391 235 L391,236 C391,237.582 388.204,236 387.5,236 386.933,236 386.976,242.452 386,240.5 383.307,235.114 391,229.66 391,235  Z"/>

<path  fill="#00FFFF" stroke-width="0" stroke="#00FFFF" d = " M128 236 L129,236 C129,236 129,233 129,233 129,233 126,233 126,233 126,234.481 128,233.785 128,236  Z"/>

<path  fill="#86CC4C" stroke-width="0" stroke="#86CC4C" d = " M345 262 C342.26,262 340.23,265 337,265 332.154,265 329.747,258 329,258 329,258 329,257 329,257 329,253.765 327,252.45 327,249 327,249 333,246 333,246 333,246 334,246 334,246 334,246 336,245 336,245 336.706,245 342,243.675 342,243 342,243 343,242 343,242 344.569,242 348,243.282 348,240 348.929,240 358,237.274 358,237 359.357,237 364,236.353 364,235 364,235 367,236 367,236 367,238.447 367,239.28 367,242 365.423,242 365,243.762 365,245 365,245 364,246 364,246 364,246 363,248 363,248 363,248 362,250 362,250 362,250 361,251 361,251 359.875,251 350.683,257.908 348.5,259 348.5,259 345,262 345,262  Z"/>

<path  fill="#86CC4C" stroke-width="0" stroke="#86CC4C" d = " M148 265 L149,266 C152.123,266 152.358,270 155.5,270 155.5,270 157.5,265 157.5,265 160.396,263.552 157,264.628 157,262.5 157,262.5 159,261.5 159,261.5 159,257.572 161,253.699 161,249 158.086,249 147,250.1 147,246 145.253,246 145,245.747 145,244 145,244 141,242 141,242 137.602,242 133.858,237 131,237 131,237 129,236 129,236 129,236 128,236 128,236 125.591,236 122,238.359 122,241 122,241 122,243 122,243 122,243 123,245 123,245 123,245 126,248 126,248 128.365,248 129.917,255.417 131.5,257 133.063,258.563 140,260.234 140,262 140,262 141,262 141,262 141,262 143,262 143,262 143,262 145,263 145,263 145,263 146,264 146,264 146,264 148,265 148,265  Z"/>

<path  fill="#00FFFF" stroke-width="0" stroke="#00FFFF" d = " M384 237 C384,246.211 386.105,237 384,237  Z"/>

<path  fill="#00FFFF" stroke-width="0" stroke="#00FFFF" d = " M367 242 C365.423,242 365,243.762 365,245 369.956,245 365.269,255 367.5,255 371.242,255 371.042,248.229 373.5,247 373.5,247 379,246.5 379,246.5 379,246.5 379,242.5 379,242.5 377.72,239.94 373,248.06 373,240 371.987,240 369.873,242 367,242  Z"/>

<path  fill="#46A515" stroke-width="0" stroke="#46A515" d = " M428 240 L426,244.5 L426,248.5 C426,260.798 435.775,240 428,240  Z"/>

<path  fill="#FFFF00" stroke-width="0" stroke="#FFFF00" d = " M123 245 C123,247.393 122.439,248 126,248 126,252.154 117.457,249.413 117,248.5 115.048,244.596 119,245.899 119,243.5 119,242.676 118.368,241 121,241 121,241 122,243 122,243 122,243 123,245 123,245  Z"/>

<path  fill="#00FFFF" stroke-width="0" stroke="#00FFFF" d = " M122 241 L122,243 C122,243 121,241 121,241 121,241 122,241 122,241  Z"/>

<path  fill="#00FFFF" stroke-width="0" stroke="#00FFFF" d = " M343 242 L342,243 C342,243 343,242 343,242  Z"/>

<path  fill="#00FFFF" stroke-width="0" stroke="#00FFFF" d = " M150 246 L152,246 C152,244.081 150,243.512 150,246  Z"/>

<path  fill="#00FFFF" stroke-width="0" stroke="#00FFFF" d = " M123 245 L126,248 C122.439,248 123,247.393 123,245  Z"/>

<path  fill="#00FFFF" stroke-width="0" stroke="#00FFFF" d = " M365 245 L364,246 C364,246 365,245 365,245  Z"/>

<path  fill="#00FFFF" stroke-width="0" stroke="#00FFFF" d = " M364 246 L363,248 C363,248 364,246 364,246  Z"/>

<path  fill="#FA8072" stroke-width="0" stroke="#FA8072" d = " M337 265 C337,271.134 332.686,288.128 330,293.5 L319,303.5 C317.702,306.096 320.71,309 323,309 328.411,309 342.481,302.538 346,295.5 347.53,292.439 346.324,285.851 347,284.5 347,284.5 350,281.5 350,281.5 350,281.5 350,273.5 350,273.5 350,273.5 351,270.5 351,270.5 350.038,268.577 345,263.252 345,262 342.26,262 340.23,265 337,265  Z"/>

<path  fill="#FA8072" stroke-width="0" stroke="#FA8072" d = " M149 266 C149,271.275 154.758,276.016 157,280.5 158.776,284.052 157.734,290.967 160,295.5 161.459,298.418 168.008,299.517 170,303.5 172.411,308.322 166.267,310 163,310 151.248,310 142.916,294.333 139,286.5 139,286.5 137,272.5 137,272.5 137,272.5 135,268.5 135,268.5 135,266.255 140,265.215 140,262 140,262 141,262 141,262 141,263.399 143,263.399 143,262 143,262 145,263 145,263 145,263 146,264 146,264 146,264 148,265 148,265 148,265 149,266 149,266  Z"/>

<path  fill="#46A515" stroke-width="0" stroke="#46A515" d = " M420 263 C420,269.908 393.714,258.928 399,269.5 L404.5,277 C408.892,279.196 419.022,272.455 421,268.5 421.928,266.643 423.299,263 420,263  Z"/>

<path  fill="#9953FF" stroke-width="0" stroke="#9953FF" d = " M146 264 L148,265 C148,265 146,264 146,264  Z"/>

<path  fill="#46A515" stroke-width="0" stroke="#46A515" d = " M390 297 C390,301.004 387,301.33 387,304.5 387,309.794 388.359,305.782 386,310.5 384.943,312.614 392.288,318.106 394.5,317 398.741,314.879 400.27,297 390,297  Z"/>

<path  fill-rule="evenodd" fill="#46A515" stroke-width="0" stroke="#46A515" d = " M377 318 C377,326.027 384.06,318 377,318  M365 310 C365,310.026 357.165,311.668 352.5,314 348.673,315.913 350.519,322.462 349,325.5 L346,329.5 L349.5,335 C355.748,338.124 357.673,331.413 362.5,329 363.48,328.51 368.613,325.726 368,324.5 366.722,321.945 360.966,325.733 359.5,325 L357.5,322 C356.845,321.672 354.014,322.473 355,320.5 357.028,316.445 365.078,317.711 368.5,316 L373,317.5 C373,318.741 359.488,317.477 362,322.5 362.655,323.81 368.408,320.546 369.5,320 370.946,319.277 376.159,321.171 374.5,322 L369.5,322 L369.5,325 C370.81,325.655 379,325.308 379,327.5 379,332.01 377.536,349.982 387.5,345 390.896,343.302 390.65,338.199 392,335.5 392.909,333.682 395.167,328.833 394,326.5 392.237,322.975 376.797,312.148 372.5,310 L365,310  Z"/>

<path  fill="#46A515" stroke-width="0" stroke="#46A515" d = " M107 311 C107,314.539 93.9012,318.302 97,324.5 99.0625,328.625 109.722,315.611 116.5,319 122.015,321.758 126.81,320.155 132.5,323 134.529,324.014 136.044,331.728 139.5,330 144.084,327.708 139.631,318.565 136.5,317 L133.5,320 L126.5,316 L115.5,315 C112.179,313.339 111.283,311 107,311  Z"/>

<path  fill="#46A515" stroke-width="0" stroke="#46A515" d = " M113 330 C113,333.027 99.2504,339.001 103,346.5 106.182,352.864 108.713,354 116,354 117.995,354 120.919,354.662 122,352.5 123.826,348.849 115.63,340.24 116,339.5 118.312,334.877 121.486,340.993 123.5,342 L129.5,342 C131.658,343.079 133.476,353.547 138,344.5 143.574,333.353 119.732,330 113,330  Z"/>

<path  fill="#46A515" stroke-width="0" stroke="#46A515" d = " M361 333 L357,335.5 C354.237,338.263 352.63,341.239 351,344.5 349.859,346.782 361.681,353.41 364.5,352 373.652,347.424 359.842,343.184 359,341.5 358.786,341.072 368.71,333 361,333  Z"/>

<path  fill="#FF3427" stroke-width="0" stroke="#FF3427" d = " M237 346 L223,346 C222.062,346 217.979,346.541 219,344.5 220.118,342.264 231.093,346.687 228,340.5 227.179,338.858 214.642,339.217 214,340.5 210.076,348.347 218,347.72 218,350 222.648,350 237,353.271 237,346  Z"/>

<path  fill="#FF3427" stroke-width="0" stroke="#FF3427" d = " M274 348 C274,338.717 259.63,348 270.5,348 L274,348  Z"/>

<path  fill="#FF3427" stroke-width="0" stroke="#FF3427" d = " M253 348 C254.317,348 254.788,344.644 257.5,346 259.394,346.947 263.718,350 266,350 266,354.122 253,352.218 253,348  Z"/>

</g>
</svg>
