<svg xmlns="http://www.w3.org/2000/svg" xmlns:xlink="http://www.w3.org/1999/xlink" height="512" width="512">
<g>
<rect width="512" height="512" fill="#000000"  stroke-width="0" /> 
<path  fill="#03C12D" stroke-width="0" stroke="#03C12D" d = " M234 243 C236.631,243 241.858,237.179 243.5,238 247.741,240.121 249.221,246 255,246 262.083,246 268.441,237.03 274.5,234 274.5,234 280.5,228 280.5,228 281.635,228 281.882,228.809 283.5,228 283.5,228 288.5,222 288.5,222 290.856,220.822 304.736,220.618 307.5,222 307.5,222 307,223.5 307,223.5 307,223.5 309.5,224 309.5,224 309.5,224 311.5,227 311.5,227 311.5,227 315.5,227 315.5,227 318.276,228.388 328,238.357 328,241 332.67,241 338.564,248.468 343.5,246 343.5,246 345,240.5 345,240.5 346.635,237.23 349.409,234.683 351,231.5 354.263,224.974 359.756,219.988 363,213.5 363,213.5 363,208.5 363,208.5 365.361,203.778 367.585,199.329 370,194.5 370,194.5 371,187.5 371,187.5 372.859,183.783 375.333,171.167 373,166.5 361.549,143.599 341.516,131.008 319.5,120 315.54,118.02 309.398,119.949 305.5,118 302.411,116.456 275.96,109.77 271.5,112 264.63,115.435 255.56,114.38 251,123.5 249.726,126.048 247.042,134.729 244.5,136 244.5,136 241.5,133 241.5,133 241.5,133 232.5,122 232.5,122 223.916,117.708 215.441,116 205,116 191.225,116 181.945,119.277 170.5,125 170.5,125 164.5,125 164.5,125 160.856,126.822 157.064,128.218 153.5,130 146.582,133.459 141.46,140.52 134.5,144 134.5,144 123,158.5 123,158.5 121.554,161.393 122.419,165.663 121,168.5 110.345,189.81 124.819,205.138 134,223.5 136.213,227.926 139.698,238.099 145.5,241 151.068,243.784 155.984,242 162,242 162,239.279 168,235.471 168,234.5 168,232.29 178.443,224.028 182.5,222 182.5,222 187.5,222 187.5,222 187.5,222 190.5,218 190.5,218 191.663,217.419 195.822,218 196.5,218 196.5,218 198.5,221 198.5,221 198.5,221 203.5,222 203.5,222 205.75,223.125 206.125,225.75 207,227.5 208.348,230.196 208.988,227.244 210.5,228 210.5,228 217.5,235 217.5,235 220.362,236.431 221.998,239.749 224.5,241 226.397,241.948 234,239.524 234,243  Z"/>

<path  fill="#03C12D" stroke-width="0" stroke="#03C12D" d = " M385 190 C385,191.93 386.93,190 385,190  Z"/>

<path  fill-rule="evenodd" fill="#FF8700" stroke-width="0" stroke="#FF8700" d = " M191 244 C191,247.047 190.741,249.982 192,252.5 192.855,254.21 210.201,267 210.5,267 213.605,267 212.324,258 211.5,258 209.165,258 207.81,251.655 204.5,250 L203.5,247 L202.5,249 C202.057,249 196.657,244 191,244  M162 242 L159,244.5 C156.555,249.391 160.195,257.889 162,261.5 162.81,263.119 161,264.501 161,265.5 161,268.82 168.83,268.16 170,270.5 L169,273.5 L174.5,278 C180.046,280.773 185.956,283.228 191.5,286 192.71,286.605 192.488,288.994 194.5,290 197.563,291.532 202.41,290.455 205.5,292 210.535,294.517 218.38,301.56 225.5,298 234.555,293.473 246.456,263.412 242,254.5 L240,254.5 C238.804,252.108 239.163,248.827 238,246.5 237.088,244.675 234,246.667 234,243 234,239.524 226.397,241.948 224.5,241 221.998,239.749 220.362,236.431 217.5,235 217.5,235 210.5,228 210.5,228 208.988,227.244 208.348,230.196 207,227.5 206.125,225.75 205.75,223.125 203.5,222 203.5,222 198.5,221 198.5,221 198.5,221 196.5,218 196.5,218 195.822,218 191.663,217.419 190.5,218 190.5,218 187.5,222 187.5,222 187.5,222 182.5,222 182.5,222 178.443,224.028 168,232.29 168,234.5 168,235.471 162,239.279 162,242  Z"/>

<path  fill-rule="evenodd" fill="#FF8700" stroke-width="0" stroke="#FF8700" d = " M291 246 L287.5,250 C286.5,250 270.763,263.631 277.5,267 280.25,268.375 282.195,263 284.5,263 287.423,263 309.194,246 291,246  M328 241 C328,243.068 330.877,245.255 332,247.5 L331,250.5 L331,261.5 C329.54,264.419 320,267.418 320,270.5 320,275.043 314.223,275.054 313,277.5 312.173,279.155 313.882,280.809 311.5,282 L303.5,282 L299.5,287 C295.78,288.86 288.722,292 286.5,292 280.391,292 275.373,303.936 263.5,298 257.484,294.992 242.352,264.797 246,257.5 L255,246 C262.083,246 268.441,237.03 274.5,234 274.5,234 280.5,228 280.5,228 281.635,228 281.882,228.809 283.5,228 283.5,228 288.5,222 288.5,222 290.856,220.822 304.736,220.618 307.5,222 307.5,222 307,223.5 307,223.5 307,223.5 309.5,224 309.5,224 309.5,224 311.5,227 311.5,227 311.5,227 315.5,227 315.5,227 318.276,228.388 328,238.357 328,241  Z"/>

<path  fill="#FF4FCE" stroke-width="0" stroke="#FF4FCE" d = " M191 244 C191,247.047 190.741,249.982 192,252.5 192.855,254.21 210.201,267 210.5,267 213.605,267 212.324,258 211.5,258 209.165,258 207.81,251.655 204.5,250 L203.5,247 L202.5,249 C202.057,249 196.657,244 191,244  Z"/>

<path  fill="#FF4FCE" stroke-width="0" stroke="#FF4FCE" d = " M291 246 L287.5,250 C286.5,250 270.763,263.631 277.5,267 280.25,268.375 282.195,263 284.5,263 287.423,263 309.194,246 291,246  Z"/>

<path  fill="#FA8072" stroke-width="0" stroke="#FA8072" d = " M185 302 C185,303.144 180.366,316 184.5,316 L186.5,315 C188.065,315.783 189.725,318.05 191,315.5 193.143,311.214 186.936,311.372 186,309.5 185.183,307.866 185.599,302 185,302  Z"/>

<path  fill="#30DA00" stroke-width="0" stroke="#30DA00" d = " M221 303 C221,305.059 213.677,305.854 216,310.5 218.126,314.751 228.611,320.279 232,313.5 233.771,309.957 229.015,308.53 229,308.5 226.95,304.4 225.296,303 221,303  Z"/>

<path  fill="#30DA00" stroke-width="0" stroke="#30DA00" d = " M271 304 C271,305.302 264.076,306.348 263,308.5 L264,311.5 C262.409,314.681 264.413,319 268.5,319 275.387,319 284.412,304 271,304  Z"/>

<path  fill="#FA8072" stroke-width="0" stroke="#FA8072" d = " M306 306 C306,307.423 304.022,309.544 305,311.5 307.549,316.599 314.655,306 306,306  Z"/>

<path  fill="#FA8072" stroke-width="0" stroke="#FA8072" d = " M192 312 C192,317.567 194.112,312 192,312  Z"/>

<path  fill="#FA8072" stroke-width="0" stroke="#FA8072" d = " M286 369 C286,369.974 281.781,371.937 281,373.5 278.704,378.092 284,384.768 284,385.5 284,386.854 279.102,389.703 281,393.5 283.451,398.402 295.831,403.335 300.5,401 303.487,399.506 300.65,393.925 304.5,392 308.878,389.811 311.904,404.693 317,394.5 L316,391.5 C316,384.744 317.702,379.601 310.5,376 308.075,374.787 302.131,380.761 302,380.5 L302,375.5 C300.284,372.068 289.303,369 286,369  Z"/>

<path  fill="#FA8072" stroke-width="0" stroke="#FA8072" d = " M196 373 L192,377.5 L188.5,383 L186.5,381 C179.862,381 175.468,387.564 173,392.5 171.337,395.826 175.985,400.757 179.5,399 L184.5,394 C185.502,394 187.83,395.835 189.5,395 L191.5,394 L195,396.5 L195.5,400 C199.045,400 199.217,394.859 203.5,397 206.919,398.709 204.939,408.281 213.5,404 221.474,400.013 210.716,394.067 212,391.5 214.843,385.814 219.862,378.181 211.5,374 209.422,372.961 204.322,375.911 202.5,375 200.029,373.765 199.067,373 196,373  Z"/>

</g>
</svg>
