<svg xmlns="http://www.w3.org/2000/svg" xmlns:xlink="http://www.w3.org/1999/xlink" height="512" width="512">
<g>
<rect width="512" height="512" fill="#000000"  stroke-width="0" /> 
<path  fill-rule="evenodd" fill="#86FF5A" stroke-width="0" stroke="#86FF5A" d = " M240 351 C240,352.866 238.205,355.91 239,357.5 L242,359.5 C249.69,367.19 251.573,353.036 247.5,351 246.469,350.485 241.674,351 240,351  M245 314 C245,315.684 240.321,315 239,315 231.459,315 226.13,317 220.5,317 217.415,317 203.378,331.745 202,334.5 200.096,338.309 198.979,342.542 197,346.5 L197,353.5 C191.93,363.64 200.816,388.158 208.5,392 L213.5,400 C219.075,402.787 225.882,403.191 231.5,406 237.537,409.018 241.223,401 245.5,401 250.108,401 255.709,409.395 264.5,405 281.916,396.292 286.659,384.182 295,367.5 297.027,363.446 289.915,341.329 288,337.5 286.492,334.485 281.187,322.343 278.5,321 276.909,320.205 273.198,321 272.5,321 L266.5,317 C261.031,317 250.807,314 245,314  Z"/>

<path  fill="#EB57FF" stroke-width="0" stroke="#EB57FF" d = " M240 351 C240,352.866 238.205,355.91 239,357.5 L242,359.5 C249.69,367.19 251.573,353.036 247.5,351 246.469,350.485 241.674,351 240,351  Z"/>

</g>
</svg>
