<svg xmlns="http://www.w3.org/2000/svg" xmlns:xlink="http://www.w3.org/1999/xlink" height="512" width="512">
<g>
<rect width="512" height="512" fill="#000000"  stroke-width="0" /> 
<path  fill="#FA8072" stroke-width="0" stroke="#FA8072" d = " M158 350 C158,350.253 152.715,357.069 152,358.5 150.689,361.123 155,363.652 155,365.5 L152,368.5 C150.314,371.872 152,380.866 152,383.5 L147.5,385 C142.328,387.586 135.425,380.65 132,387.5 130.634,390.233 135.794,399.088 137,401.5 L142,404.5 C142,406.575 139.916,408.208 143.5,410 147.915,412.208 146.963,404.268 147.5,404 150.101,402.7 157.636,404.228 159,401.5 161.926,395.648 156.522,373.457 159,368.5 L162.5,369 C164.882,367.809 168.525,366.449 170,363.5 174.281,354.939 165.647,350 158,350  Z"/>

<path  fill="#FA8072" stroke-width="0" stroke="#FA8072" d = " M328 350 L328,390.5 L336,394.5 C336.938,396.377 335.273,404 339.5,404 L340.5,402 C344.383,402 346.621,410.258 352,399.5 L351,391.5 C352.325,388.851 352.354,385.208 351,382.5 348.701,377.902 344.452,381 341.5,381 L340,370.5 L338,372.5 C335.615,367.731 336.11,350 328,350  Z"/>

</g>
</svg>
