<svg xmlns="http://www.w3.org/2000/svg" xmlns:xlink="http://www.w3.org/1999/xlink" height="512" width="512">
<g>
<rect width="512" height="512" fill="#000000"  stroke-width="0" /> 
<path  fill-rule="evenodd" fill="#FFFF00" stroke-width="0" stroke="#FFFF00" d = " M90 203 C90,204.93 91.93,203 90,203  M348 118 L348.5,124 C349.149,124 349.747,118 348,118  M172 112 C172,119.389 174.111,112 172,112  M390 259 L391,260 C391,263.001 396.207,262.087 397,260.5 398.023,258.453 398.008,254.246 400.5,253 409.379,248.561 407.615,258.73 409,261.5 409,261.5 414,263.5 414,263.5 414.762,265.025 413.738,275 412.5,275 412.5,275 409.5,273 409.5,273 406.681,273 402.148,274 399,274 395.267,274 388.199,275.898 391,281.5 391,281.5 399.5,292 399.5,292 405.511,295.005 406.442,282.529 409.5,281 411.339,280.081 431.558,288.385 435,281.5 437.834,275.833 417.088,279.324 422,269.5 424.908,263.683 431.72,270.11 435.5,272 437.497,272.999 442.445,271.39 441,268.5 438.918,264.335 424,261.781 424,257.5 424,255.991 426.991,257 428.5,257 428.5,257 429.5,255 429.5,255 430.549,255 433.451,255 434.5,255 436.258,255 441.43,259.035 443.5,258 445.993,256.754 448.374,250.247 447,247.5 443.361,240.222 442.934,245.283 437.5,248 433.991,249.755 431.783,249.358 428.5,251 428.5,251 426.5,249 426.5,249 426.5,249 425,250.5 425,250.5 422.308,245.116 431.63,241.435 434.5,240 434.5,240 434.5,236 434.5,236 428.331,236 422.82,245 417,245 415.082,245 408,245.866 408,242.5 408,239.639 415.571,237.965 417.5,237 423.424,234.038 431.622,226.745 430,223.5 426.625,216.749 416.663,231.918 414.5,233 404.127,238.186 413.675,222 409.5,222 406.945,222 399.41,235.045 395.5,237 395.5,237 392.5,235 392.5,235 391.474,235 389.723,236 388.5,236 388.5,236 387.5,234 387.5,234 387.5,234 386.5,236 386.5,236 386.5,236 384,233.5 384,233.5 384,231.299 386.036,226.768 382.5,225 376.263,221.882 374.553,236.527 363.5,231 357.818,228.159 371.665,219 375,219 376.399,219 376.399,217 375,217 370.736,217 360.234,210.033 363,204.5 364.21,202.08 372,202 374.5,202 374.5,202 375.5,206 375.5,206 375.861,206 376.752,195.374 377.5,195 382.366,192.567 384.988,198.475 387,202.5 387.414,203.328 386.663,208.418 389.5,207 391.825,205.838 388.495,201.491 388,200.5 386.425,197.351 388,193.155 388,189.5 388,189.5 387,186.5 387,186.5 388.311,183.878 387.448,177.526 390.5,176 393.758,174.371 397.713,178.073 400,173.5 401.41,170.681 394.413,150.457 391.5,149 386.619,146.559 385.039,153.423 384,155.5 380.946,161.609 383.495,186.498 370.5,180 364.717,177.108 364,158.612 364,153.5 364,153.5 367,150.5 367,150.5 367,150.5 367,140.5 367,140.5 367,140.5 370.5,135 370.5,135 370.5,135 376,132.5 376,132.5 376,132.5 370.5,126 370.5,126 367.886,126 362.525,125 359.5,125 359.5,125 359,131.5 359,131.5 358.956,131.587 355.204,134.093 355,134.5 353.529,137.441 358.512,163.475 356,168.5 353.04,174.42 340.759,178.371 335.5,181 332.825,182.337 317.733,170.034 320,165.5 322.686,160.127 332.375,157.749 334,154.5 335.51,151.48 334.038,155 335.5,155 335.5,155 336,150.5 336,150.5 337.165,148.169 339.633,147.234 341,144.5 342.052,142.396 339,141.83 339,140.5 339,138.701 339.05,129.401 340,127.5 341.268,124.965 345.968,124.563 346,124.5 347.2,122.101 345.44,114 342.5,114 338.969,114 328.719,109.061 326,114.5 323.698,119.103 326.509,138.482 322,147.5 321.239,149.022 318.033,157.266 315.5,156 312.888,154.694 309,152.044 309,148.5 309,144.9 309.337,135.825 311,132.5 311.355,131.79 309,117.467 309,114.5 309,111.325 312.809,109.119 311,105.5 310.318,104.136 295.734,100.117 293.5,99 288.623,96.5616 287.213,92.8565 281.5,90 277.089,87.7945 270.803,89.1514 266.5,87 255.566,81.533 243.104,82 231,82 231,80.6007 229,80.6007 229,82 209.868,82 201.539,87.4225 194,102.5 194,102.5 187,108.5 187,108.5 184.085,114.331 179.122,119.256 176,125.5 175.404,126.692 178,132.156 178,133.5 178,143.454 179.67,152.915 169.5,158 163.077,161.211 163.25,148.001 162,145.5 160.254,142.007 154.847,130.807 157,126.5 158.275,123.95 166.261,116.022 165,113.5 164.501,112.501 157.463,111.518 156.5,112 152.971,113.764 141.869,115.762 140,119.5 138.283,122.934 145.255,132.009 147,135.5 148.24,137.98 143.216,150.932 147,158.5 150.545,165.591 160.526,163.552 164,170.5 166.864,176.229 149.928,191 145.5,191 145.5,191 140.5,186 140.5,186 118.249,174.875 136.326,160.152 128,143.5 125.686,138.872 127.496,130.998 121.5,128 117.832,126.166 106,137.005 106,140.5 106,142.238 115.738,142.977 117,145.5 118.007,147.514 115.985,158.47 117,160.5 121.586,169.673 122.634,194.433 111.5,200 106.611,202.445 106.077,193.653 105,191.5 101.833,185.166 100.489,160.994 94.5,158 91.6753,156.588 88,163.759 88,165.5 88,165.5 85,175.5 85,175.5 83.2611,178.978 86,185.51 86,188.5 86,190.553 83.6782,194.856 85,197.5 86.3384,200.177 87.1695,198 88.5,198 92.83,198 89.2942,193 92.5,193 92.5,193 93.5,191 93.5,191 93.5,191 94,198 94,198 94,200.097 96.1048,201.71 97,203.5 97,203.5 97,214 97,214 94.8492,214 91.1573,214.815 90,212.5 90,212.5 88.5,208 88.5,208 86.517,208 87.1526,207.326 84.5,206 84.5,206 82,206.5 82,206.5 77.8326,198.165 83.3169,165.866 87,158.5 88.4965,155.507 90.3264,153.847 92,150.5 92,150.5 93.5,146 93.5,146 93.5,146 94.5,148 94.5,148 94.5,148 95.5,146 95.5,146 95.5,146 97.5,147 97.5,147 97.5,147 98,141 98,141 98,141 101,136.5 101,136.5 101.882,134.737 120.652,123 122.5,123 123.402,123 126.424,126.538 129.5,125 132.152,123.674 132.962,120.577 134,118.5 136.032,114.436 143.602,110.949 147.5,109 150.419,107.541 160.559,108.971 162.5,108 162.5,108 168.5,106 168.5,106 169.963,106.731 173.877,114 174.5,114 175.294,114 177.893,108.804 179.5,108 181.481,107.009 192.185,100.13 193,98.5 193,98.5 194,90.5 194,90.5 195.188,88.124 198.127,86.2461 199,84.5 199,84.5 200.5,81 200.5,81 200.5,81 219.5,79 219.5,79 223.495,77.0025 229.617,79.9415 233.5,78 239.947,74.7763 276.349,81.9243 282.5,85 285.815,86.6577 290.165,92.3323 293.5,94 293.5,94 302.5,95 302.5,95 302.5,95 305.5,99 305.5,99 305.5,99 311.5,99 311.5,99 311.5,99 320.5,108 320.5,108 323.083,109.292 325.621,106 328,106 329.567,106 341.916,109.208 343.5,110 347.215,111.857 352.835,117.168 354.5,118 357.78,119.64 357.024,117 359.5,117 359.921,117 364.182,121.341 365.5,122 365.5,122 369.5,122 369.5,122 369.5,122 377.5,127 377.5,127 377.5,127 378,129.5 378,129.5 378.3,130.099 383.706,131.911 385,134.5 385.917,136.334 387.035,140.268 388.5,141 397.894,145.697 408.124,175.253 401,189.5 398.897,193.707 401.19,200.12 399,204.5 396.314,209.872 382.51,212.48 379,219.5 379,219.5 373,222.5 373,222.5 373,223.811 378.578,221.922 379,221.5 379.539,220.961 383.894,220 384.5,220 386.427,220 386.5,225.5 387,226.5 387,226.5 388.5,225 388.5,225 388.5,225 389,229.5 389,229.5 389.734,230.969 395.715,230.893 397.5,230 400.341,228.58 407.439,214.969 413.5,218 414.991,218.745 414.833,222 416.5,222 416.5,222 417.5,219 417.5,219 417.5,219 430.5,219 430.5,219 437.327,222.413 432.177,225.855 435,231.5 435,231.5 437.5,231 437.5,231 441.383,232.941 440.433,236.366 442,239.5 442,239.5 445.5,240 445.5,240 447.984,241.242 452.281,250.937 451,253.5 449.689,256.122 449.78,258.72 447.5,261 446.287,262.213 443,261.784 443,263.5 443,265.846 447.931,267.639 446,271.5 444.985,273.531 436,275.196 436,276.5 436,278 439.028,279.444 438,281.5 432.299,292.902 415.507,285.997 411.5,288 411.5,288 407,293.5 407,293.5 405.037,297.427 397.013,294.513 394,291.5 394,291.5 389,287.5 389,287.5 384.294,278.088 390.999,270.498 386,260.5 385.292,259.084 382.341,260 380.5,260 380.5,260 378.5,257 378.5,257 378.5,257 370.5,254 370.5,254 369,254 371.38,261 368.5,261 366.79,261 369.147,256.793 369,256.5 369,256.5 365,252.5 365,252.5 363.291,249.082 354,248.231 354,240 355.642,240 359.904,244 360.5,244 360.5,244 361.5,242 361.5,242 362.928,242 369.013,244.256 370.5,245 371.224,245.362 373.195,254 381,254 381,255.186 382,255.186 382,254 385.455,254 389.191,248.883 391,252.5 392.081,254.661 390,257.394 390,259  M368 253 C366.378,253 369,256.749 369,253 369,251.814 368,251.814 368,253  Z"/>

<path  fill-rule="evenodd" fill="#00FFFF" stroke-width="0" stroke="#00FFFF" d = " M240 189 C240,191.866 234,193.344 234,197.5 L238,202.5 C242.913,212.327 251.574,199.352 254,194.5 255.242,192.016 250.818,187.841 248.5,189 247.047,189.726 242.718,189 240,189  M390 259 L391,260 C391,263.001 396.207,262.087 397,260.5 398.023,258.453 398.008,254.246 400.5,253 409.379,248.561 407.615,258.73 409,261.5 409,261.5 414,263.5 414,263.5 414.762,265.025 413.738,275 412.5,275 412.5,275 409.5,273 409.5,273 406.681,273 402.148,274 399,274 395.267,274 388.199,275.898 391,281.5 391,281.5 399.5,292 399.5,292 405.511,295.005 406.442,282.529 409.5,281 411.339,280.081 431.558,288.385 435,281.5 437.834,275.833 417.088,279.324 422,269.5 424.908,263.683 431.72,270.11 435.5,272 437.497,272.999 442.445,271.39 441,268.5 438.918,264.335 424,261.781 424,257.5 424,255.991 426.991,257 428.5,257 428.5,257 429.5,255 429.5,255 430.549,255 433.451,255 434.5,255 436.258,255 441.43,259.035 443.5,258 445.993,256.754 448.374,250.247 447,247.5 443.361,240.222 442.934,245.283 437.5,248 433.991,249.755 431.783,249.358 428.5,251 428.5,251 426.5,249 426.5,249 426.5,249 425,250.5 425,250.5 422.308,245.116 431.63,241.435 434.5,240 434.5,240 434.5,236 434.5,236 428.331,236 422.82,245 417,245 415.082,245 408,245.866 408,242.5 408,239.639 415.571,237.965 417.5,237 423.424,234.038 431.622,226.745 430,223.5 426.625,216.749 416.663,231.918 414.5,233 404.127,238.186 413.675,222 409.5,222 406.945,222 399.41,235.045 395.5,237 395.5,237 392.5,235 392.5,235 391.474,235 389.723,236 388.5,236 388.5,236 387.5,234 387.5,234 387.5,234 386.5,236 386.5,236 386.5,236 384,233.5 384,233.5 384,231.299 386.036,226.768 382.5,225 376.263,221.882 374.553,236.527 363.5,231 357.818,228.159 371.665,219 375,219 375,219 375,217 375,217 370.736,217 360.234,210.033 363,204.5 364.21,202.08 372,202 374.5,202 374.5,202 375.5,206 375.5,206 375.861,206 376.752,195.374 377.5,195 382.366,192.567 384.988,198.475 387,202.5 387.414,203.328 386.663,208.418 389.5,207 391.825,205.838 388.495,201.491 388,200.5 386.425,197.351 388,193.155 388,189.5 388,189.5 387,186.5 387,186.5 388.311,183.878 387.448,177.526 390.5,176 393.758,174.371 397.713,178.073 400,173.5 401.41,170.681 394.413,150.457 391.5,149 386.619,146.559 385.039,153.423 384,155.5 380.946,161.609 383.495,186.498 370.5,180 364.717,177.108 364,158.612 364,153.5 364,153.5 367,150.5 367,150.5 367,150.5 367,140.5 367,140.5 367,140.5 370.5,135 370.5,135 370.5,135 376,132.5 376,132.5 376,132.5 370.5,126 370.5,126 367.886,126 362.525,125 359.5,125 359.5,125 359,131.5 359,131.5 358.956,131.587 355.204,134.093 355,134.5 353.529,137.441 358.512,163.475 356,168.5 353.04,174.42 340.759,178.371 335.5,181 332.825,182.337 317.733,170.034 320,165.5 322.686,160.127 332.375,157.749 334,154.5 335.51,151.48 334.038,155 335.5,155 335.5,155 336,150.5 336,150.5 337.165,148.169 339.633,147.234 341,144.5 342.052,142.396 339,141.83 339,140.5 339,138.701 339.05,129.401 340,127.5 341.268,124.965 345.968,124.563 346,124.5 347.2,122.101 345.44,114 342.5,114 338.969,114 328.719,109.061 326,114.5 323.698,119.103 326.509,138.482 322,147.5 321.239,149.022 318.033,157.266 315.5,156 312.888,154.694 309,152.044 309,148.5 309,144.9 309.337,135.825 311,132.5 311.355,131.79 309,117.467 309,114.5 309,111.325 312.809,109.119 311,105.5 310.318,104.136 295.734,100.117 293.5,99 288.623,96.5616 287.213,92.8565 281.5,90 277.089,87.7945 270.803,89.1514 266.5,87 255.566,81.533 243.104,82 231,82 231,82 229,82 229,82 209.868,82 201.539,87.4225 194,102.5 194,102.5 187,108.5 187,108.5 184.085,114.331 179.122,119.256 176,125.5 175.404,126.692 178,132.156 178,133.5 178,143.454 179.67,152.915 169.5,158 163.077,161.211 163.25,148.001 162,145.5 160.254,142.007 154.847,130.807 157,126.5 158.275,123.95 166.261,116.022 165,113.5 164.501,112.501 157.463,111.518 156.5,112 152.971,113.764 141.869,115.762 140,119.5 138.283,122.934 145.255,132.009 147,135.5 148.24,137.98 143.216,150.932 147,158.5 150.545,165.591 160.526,163.552 164,170.5 166.864,176.229 149.928,191 145.5,191 145.5,191 140.5,186 140.5,186 118.249,174.875 136.326,160.152 128,143.5 125.686,138.872 127.496,130.998 121.5,128 117.832,126.166 106,137.005 106,140.5 106,142.238 115.738,142.977 117,145.5 118.007,147.514 115.985,158.47 117,160.5 121.586,169.673 122.634,194.433 111.5,200 106.611,202.445 106.077,193.653 105,191.5 101.833,185.166 100.489,160.994 94.5,158 91.6753,156.588 88,163.759 88,165.5 88,165.5 85,175.5 85,175.5 83.2611,178.978 86,185.51 86,188.5 86,190.553 83.6782,194.856 85,197.5 86.3384,200.177 87.1695,198 88.5,198 92.83,198 89.2942,193 92.5,193 92.5,193 93.5,191 93.5,191 93.5,191 94,198 94,198 94,200.097 96.1048,201.71 97,203.5 97,203.5 97,214 97,214 100.108,214 96.3129,212.406 99.5,214 100.803,214.652 107,214.219 107,216 108.058,216 110.029,217 108,217 108,217 108,219 108,219 110.997,219 122.992,224.516 121,228.5 119.526,231.448 116.632,228.934 114.5,230 113.34,230.58 95.7806,236.14 93.5,235 89.5857,233.043 97,229.089 97,228.5 97,221.413 93.5659,227.533 90.5,226 90.5,226 89.5,224 89.5,224 89.5,224 88.5,226 88.5,226 78.8189,230.841 71.0946,216.203 61.5,221 60.3131,221.593 55,223.288 55,225.5 55,235.752 87.0532,232.394 83,240.5 79.5805,247.339 61.1184,241.309 56.5,239 56.5,239 49.5,233 49.5,233 47.7479,232.124 44.7019,235.096 44,236.5 35.4553,253.589 52.0907,247.295 59.5,251 61.6359,252.068 72.3646,249.771 69,256.5 64.1788,266.142 46.061,251.378 40,263.5 38.4537,266.593 41.4592,268.98 43.5,270 47.6579,272.079 58.7412,265.982 61,270.5 63.7583,276.017 54,275.176 54,278.5 54,281.748 66.5029,282.001 68.5,283 71.3488,284.424 78.4052,294.047 82.5,292 82.5,292 84.5,288 84.5,288 85.9391,288 83.8412,292 86,292 86,287.169 89.6123,282.556 82.5,279 79.3129,277.406 62.1145,277.271 66,269.5 68.3952,264.71 75.1299,268.685 78.5,267 83.2004,264.65 80.3856,256.557 85.5,254 85.5,254 94.5,255 94.5,255 96.612,253.944 99.4949,255.003 101.5,254 101.5,254 105.5,249 105.5,249 107.775,247.863 111.117,249.192 113.5,248 116.618,246.441 133,236.686 133,243 133,243 135.5,240 135.5,240 135.5,240 136.5,242 136.5,242 136.5,242 138.5,240 138.5,240 141.716,238.392 142.604,238 145.5,238 145.5,238 146.5,235 146.5,235 146.5,235 153.5,232 153.5,232 153.5,232 162.5,232 162.5,232 175.766,225.367 194.872,227 209.5,227 212.543,227 226.636,218 229.5,218 230.331,218 232.669,218 233.5,218 233.5,218 235.5,222 235.5,222 236.671,222 235.127,217.813 237.5,219 237.5,219 239,221 239,221 242.186,221 246.891,221 250,221 250,218.151 254.813,221.344 255.5,221 255.5,221 256.5,219 256.5,219 259.689,217.405 271.023,222.261 274.5,224 283.658,228.579 298.873,227 308.5,227 308.5,227 312.5,229 312.5,229 316.137,229 322.531,227.015 326.5,229 334.576,233.038 344.986,240 354,240 355.642,240 359.904,244 360.5,244 360.5,244 361.5,242 361.5,242 362.928,242 369.013,244.256 370.5,245 371.224,245.362 373.195,254 381,254 381,254 382,254 382,254 385.455,254 389.191,248.883 391,252.5 392.081,254.661 390,257.394 390,259  M207 99 C208.654,99 213.811,95.8446 215.5,95 219.65,92.9248 226.237,96.1313 230.5,94 232.999,92.7505 239.009,95.7454 242.5,94 247.789,91.3554 260.61,92.5552 265.5,95 L267.5,98 C272.601,100.55 279.432,99.4659 284.5,102 L286.5,105 L289.5,105 L290,107.5 L294,110.5 C297.163,116.825 298.295,124.909 295,131.5 293.49,134.52 296.617,138.265 294,143.5 290.021,151.458 314.01,171.745 303.5,177 297.638,179.931 287.951,171.225 283.5,169 276.998,165.749 278.097,170.694 274,162.5 L271,161.5 L271,158.5 L267,154.5 L266.5,149 C262.702,149 235.602,149.449 232.5,151 229.041,152.73 223.848,150.326 220.5,152 215.721,154.39 207.466,156.568 205,161.5 202.446,166.609 219.362,171.069 211.5,175 206.873,177.314 201.853,172.824 197.5,175 192.939,177.281 186.83,181 181.5,181 180.696,181 176,178.81 176,177.5 176,167.13 184.718,162.064 189,153.5 L189,144.5 C193.946,134.607 191,126.182 191,118.5 L195,114.5 C197.209,110.083 200.137,107.225 202,103.5 L206,100 C206,100 207,99 207,99  Z"/>

<path  fill-rule="evenodd" fill="#FFFF00" stroke-width="0" stroke="#FFFF00" d = " M204 118 C204,125.975 208.275,118 204,118  M240 117 C240,119.144 235.738,117.381 234.5,118 L233.5,121 L222.5,121 C220.662,121.919 230,121.982 230,122.5 L226,123 C222.953,123 216,121.954 216,126.5 216,128.221 219.552,127.474 220.5,127 L222.5,124 L225.5,125 C228.018,125 233.441,122.47 236.5,124 243,127.25 253.153,122.827 259.5,126 263.413,127.957 266.668,131.084 270.5,133 L272.5,131 L273.5,133 C274.838,133 274.023,124.761 272.5,124 263.847,119.673 267.003,119 255.5,119 250.685,119 245.594,117 240,117  M230 102 C230,107.25 218.212,101.644 213.5,104 L215,105.5 L213,107.5 C211.934,109.631 205.634,113.767 207,116.5 208.868,120.235 210.644,113.928 212.5,113 L221.5,112 L225.5,108 L264.5,108 C268.708,110.104 280.275,114.051 282,117.5 L281,119.5 L286,124.5 L286.5,130 C288.741,131.121 285.879,124.741 287,122.5 289.73,117.039 282.295,108.898 276.5,106 L265.5,106 C256.207,101.353 241.302,102 230,102  M220 102 C220,104.111 227.389,102 220,102  M207 99 C208.654,99 213.811,95.8446 215.5,95 219.65,92.9248 226.237,96.1313 230.5,94 232.999,92.7505 239.009,95.7454 242.5,94 247.789,91.3554 260.61,92.5552 265.5,95 L267.5,98 C272.601,100.55 279.432,99.4659 284.5,102 L286.5,105 L289.5,105 L290,107.5 L294,110.5 C297.163,116.825 298.295,124.909 295,131.5 293.49,134.52 296.617,138.265 294,143.5 290.021,151.458 314.01,171.745 303.5,177 297.638,179.931 287.951,171.225 283.5,169 276.998,165.749 278.097,170.694 274,162.5 L271,161.5 L271,158.5 L267,154.5 L266.5,149 C262.702,149 235.602,149.449 232.5,151 229.041,152.73 223.848,150.326 220.5,152 215.721,154.39 207.466,156.568 205,161.5 202.446,166.609 219.362,171.069 211.5,175 206.873,177.314 201.853,172.824 197.5,175 192.939,177.281 186.83,181 181.5,181 180.696,181 176,178.81 176,177.5 176,167.13 184.718,162.064 189,153.5 L189,144.5 C193.946,134.607 191,126.182 191,118.5 L195,114.5 C197.209,110.083 200.137,107.225 202,103.5 L206,100 C206,100 207,99 207,99  Z"/>

<path  fill-rule="evenodd" fill="#00FFFF" stroke-width="0" stroke="#00FFFF" d = " M261 126 C261,128.091 264.746,126 261,126  M240 117 C240,119.144 235.738,117.381 234.5,118 L233.5,121 L222.5,121 C220.662,121.919 230,121.982 230,122.5 L226,123 C222.953,123 216,121.954 216,126.5 216,128.221 219.552,127.474 220.5,127 L222.5,124 L225.5,125 C228.018,125 233.441,122.47 236.5,124 243,127.25 253.153,122.827 259.5,126 263.413,127.957 266.668,131.084 270.5,133 L272.5,131 L273.5,133 C274.838,133 274.023,124.761 272.5,124 263.847,119.673 267.003,119 255.5,119 250.685,119 245.594,117 240,117  Z"/>

<path  fill="#00FFFF" stroke-width="0" stroke="#00FFFF" d = " M348 118 L348.5,124 C349.149,124 349.747,118 348,118  Z"/>

<path  fill="#FFFF00" stroke-width="0" stroke="#FFFF00" d = " M261 126 C261,128.091 264.746,126 261,126  Z"/>

<path  fill="#FFFF00" stroke-width="0" stroke="#FFFF00" d = " M240 189 C240,191.866 234,193.344 234,197.5 L238,202.5 C242.913,212.327 251.574,199.352 254,194.5 255.242,192.016 250.818,187.841 248.5,189 247.047,189.726 242.718,189 240,189  Z"/>

<path  fill="#00FFFF" stroke-width="0" stroke="#00FFFF" d = " M90 203 C90,204.93 91.93,203 90,203  Z"/>

<path  fill="#FFFF00" stroke-width="0" stroke="#FFFF00" d = " M108 219 C110.997,219 122.992,224.516 121,228.5 119.526,231.448 116.632,228.934 114.5,230 113.34,230.58 95.7806,236.14 93.5,235 89.5857,233.043 97,229.089 97,228.5 97,221.413 93.5659,227.533 90.5,226 L89.5,224 L88.5,226 C78.8189,230.841 71.0946,216.203 61.5,221 60.3131,221.593 55,223.288 55,225.5 55,235.752 87.0532,232.394 83,240.5 79.5805,247.339 61.1184,241.309 56.5,239 L49.5,233 C47.7479,232.124 44.7019,235.096 44,236.5 35.4553,253.589 52.0907,247.295 59.5,251 61.6359,252.068 72.3646,249.771 69,256.5 64.1788,266.142 46.061,251.378 40,263.5 38.4537,266.593 41.4592,268.98 43.5,270 47.6579,272.079 58.7412,265.982 61,270.5 63.7583,276.017 54,275.176 54,278.5 54,281.748 66.5029,282.001 68.5,283 71.3488,284.424 78.4052,294.047 82.5,292 L84.5,288 C85.9391,288 83.8412,292 86,292 86,295.556 82.7363,295 81.5,295 71.5988,295 71.1957,288.848 63.5,285 60.4137,283.457 58.3265,285.413 55.5,284 55.5,284 48.5,275 48.5,275 45.2692,273.385 40.1919,276.884 38,272.5 36.3994,269.299 36,264.295 36,261.5 36,261.5 36.5,257 36.5,257 36.5,257 37.5,260 37.5,260 37.5,260 41.5,254 41.5,254 41.5,254 46,253.5 46,253.5 46.8934,251.713 40.076,252.652 39,250.5 36.9207,246.341 40.0135,237.473 42,233.5 44.9724,227.555 48.5891,231.455 51.5,230 51.5,230 54,221.5 54,221.5 54.766,219.968 70.3248,214.412 71.5,215 75.2545,216.877 82.7361,225 86.5,225 86.5,225 87.5,223 87.5,223 89.1547,222.173 90.8089,223.882 92,221.5 92,221.5 92.5,218 92.5,218 92.5,218 94.5,222 94.5,222 97.2093,223.355 100.569,223.069 102,224.5 102.951,225.451 102.765,230 104.5,230 104.5,230 105.5,227 105.5,227 110.124,227 108,223.386 108,219  Z"/>

<path  fill="#46A515" stroke-width="0" stroke="#46A515" d = " M83 215 L82,218.5 C84.6501,223.8 92.3053,215 83,215  Z"/>

<path  fill="#FFFF00" stroke-width="0" stroke="#FFFF00" d = " M107 216 C108.058,216 110.029,217 108,217 108,217 107,216 107,216  Z"/>

<path  fill="#FFFF00" stroke-width="0" stroke="#FFFF00" d = " M239 221 C242.186,221 246.891,221 250,221 250,227.224 238.942,226.384 238,224.5 238,224.5 239,221 239,221  Z"/>

<path  fill="#46A515" stroke-width="0" stroke="#46A515" d = " M395 221 C395,222.791 391.73,223.959 393,226.5 393.39,227.281 406.423,221 395,221  Z"/>

<path  fill-rule="evenodd" fill="#9953FF" stroke-width="0" stroke="#9953FF" d = " M264 261 L262,264.5 C262,268.347 276.449,261 267,261 L264,261  M219 260 L216,262.5 C216,265.472 222.119,264.31 223.5,265 L225.5,269 C227.661,270.081 228.815,267.13 228,265.5 225.918,261.337 225.701,260 219,260  M247 339 C247.621,339 250.666,333.917 252.5,333 257.427,330.536 272,334.661 272,341 282.523,341 288.848,337.326 297.5,333 297.5,333 306.5,333 306.5,333 309.429,331.536 312.693,330.403 315.5,329 319.489,327.005 324.519,318 327,318 327,317.015 322,314.695 322,308 313.147,308 321.415,291.33 320,288.5 320,288.5 307.5,282 307.5,282 307.5,282 304.5,276 304.5,276 296.666,272.083 302.619,268.441 307.5,266 310.547,264.476 310.144,263 314,263 314,258.321 321,261.759 321,259 311.09,259 313,244 313,238 311.814,238 311.814,237 313,237 313,234.905 306.929,230.786 304.5,232 304.5,232 300.5,236 300.5,236 298.263,237.118 292.088,233.706 289.5,235 287.892,235.804 287.819,234.341 286.5,235 285.163,235.669 288.314,237 286,237 286,240.616 284,243.212 284,245.5 284,246.061 279,246.486 279,248.5 279,250.374 277.742,254.879 277.5,255 277.5,255 268.5,256 268.5,256 266.97,256.765 269.406,258.547 266.5,260 264.862,260.819 249.85,258 248,258 248,258 240,257 240,257 240,262.315 228.601,259.051 226.5,258 226.5,258 224.5,255 224.5,255 222.137,253.818 213.995,257.247 211.5,256 206.582,253.541 210.419,251.338 209,248.5 207.505,245.509 201.899,247.298 201,245.5 201,245.5 203,241.5 203,241.5 203,241.5 200,238 200,238 195.837,238 193.886,237.693 190.5,236 189.55,235.525 185.027,239.263 180.5,237 179.366,236.433 175,235.832 175,237 175,242.05 177.512,248.476 175,253.5 175,253.5 167,261 167,261 167,261 171,262 171,262 171,262 173,263 173,263 174.399,263 174.399,265 173,265 173,265 173,266 173,266 173,266 183.5,266 183.5,266 187.883,268.192 192.784,274.858 186.5,278 183.049,279.725 178.29,277.92 176,282.5 173.972,286.556 175.008,296.484 173,300.5 172.23,302.041 167,307.435 167,308 167,308 169,312 169,312 169,315.611 167.973,314.764 165.5,316 156.318,320.591 158.325,310 153,310 153,315.047 163.807,321.154 167.5,323 167.5,323 173.5,330 173.5,330 177.63,332.065 183.548,330.024 187.5,332 192.123,334.312 196.91,335.705 201.5,338 201.5,338 211.5,339 211.5,339 211.5,339 216,342 216,342 216,336.828 228.86,330.18 234.5,333 234.5,333 240,339 240,339 240,339 247,339 247,339  Z"/>

<path  fill="#34FF0D" stroke-width="0" stroke="#34FF0D" d = " M161 264 L162,264 C162,264 163,263 163,263 163,260.359 164.823,261 167,261 167,261 175,253.5 175,253.5 177.512,248.476 175,242.05 175,237 175,237 172.5,235 172.5,235 165.938,231.719 160.371,234.065 154.5,237 150.75,238.875 143.811,261.656 150.5,265 155.023,267.261 155.721,264 159,264 159,262.601 161,262.601 161,264  Z"/>

<path  fill="#EB57FF" stroke-width="0" stroke="#EB57FF" d = " M200 238 L203,241.5 L201,245.5 C201.899,247.298 207.505,245.509 209,248.5 210.419,251.338 206.582,253.541 211.5,256 213.995,257.247 222.137,253.818 224.5,255 L226.5,258 C228.601,259.051 240,262.315 240,257 237.068,257 239.689,254.094 237.5,253 233.699,251.099 230.823,239.161 224.5,236 216.637,232.069 215.123,235 208,235 206.952,235 205,235.473 205,234 201.055,234 202.931,238 200,238  Z"/>

<path  fill="#34FF0D" stroke-width="0" stroke="#34FF0D" d = " M321 259 L331,269 C346.753,269 335.711,237.606 328.5,234 320.393,229.946 315.354,237 314,237 314,237 313,238 313,238 313,244 311.09,259 321,259  Z"/>

<path  fill="#9953FF" stroke-width="0" stroke="#9953FF" d = " M205 234 C206.048,234 208,233.527 208,235 206.952,235 205,235.473 205,234  Z"/>

<path  fill="#EB57FF" stroke-width="0" stroke="#EB57FF" d = " M286 237 C286,240.616 284,243.212 284,245.5 284,246.061 279,246.486 279,248.5 279,250.374 277.742,254.879 277.5,255 L268.5,256 C266.97,256.765 269.406,258.547 266.5,260 264.862,260.819 249.85,258 248,258 248,252.423 262.728,236.886 268.5,234 271.261,232.62 286,234.204 286,237  Z"/>

<path  fill="#00FFFF" stroke-width="0" stroke="#00FFFF" d = " M314 237 L313,238 C311.814,238 311.814,237 313,237 313,237 314,237 314,237  Z"/>

<path  fill-rule="evenodd" fill="#FFFF00" stroke-width="0" stroke="#FFFF00" d = " M117 256 C117,257.454 111.634,257.433 110.5,258 101.408,262.546 84.2976,263.095 91,276.5 92.3133,279.127 98.2287,279.043 100,275.5 L101,272.5 C101.202,272.096 102.977,272.546 104,270.5 L106.5,266 C108.206,266 121,264.272 121,259.5 L117.5,259 C116.479,258.49 119.553,256 117,256  M129 250 C126.936,250 128.574,253.353 128,254.5 126.933,256.633 125.109,258.282 124,260.5 L123.5,266 C120.252,266 107.237,269.026 105,273.5 103.21,277.08 91.2623,290 90.5,290 L88.5,289 L87.5,293 L86,292 C86,287.169 89.6123,282.556 82.5,279 79.3129,277.406 62.1145,277.271 66,269.5 68.3952,264.71 75.1299,268.685 78.5,267 83.2004,264.65 80.3856,256.557 85.5,254 85.5,254 94.5,255 94.5,255 96.612,253.944 99.4949,255.003 101.5,254 101.5,254 105.5,249 105.5,249 107.775,247.863 111.117,249.192 113.5,248 116.618,246.441 133,236.686 133,243 133,243 133,247.5 133,247.5 133,247.5 130,249 130,249 130,249 129,250 129,250  Z"/>

<path  fill="#00FFFF" stroke-width="0" stroke="#00FFFF" d = " M130 249 L129,250 C129,252.029 130,250.058 130,249  Z"/>

<path  fill="#00FFFF" stroke-width="0" stroke="#00FFFF" d = " M368 253 L369,253 C369,251.814 368,251.814 368,253  Z"/>

<path  fill="#00FFFF" stroke-width="0" stroke="#00FFFF" d = " M117 256 C117,257.454 111.634,257.433 110.5,258 101.408,262.546 84.2976,263.095 91,276.5 92.3133,279.127 98.2287,279.043 100,275.5 L101,272.5 C101.202,272.096 102.977,272.546 104,270.5 L106.5,266 C108.206,266 121,264.272 121,259.5 L117.5,259 C116.479,258.49 119.553,256 117,256  Z"/>

<path  fill="#FFFF00" stroke-width="0" stroke="#FFFF00" d = " M371 258 C371,267.211 373.105,258 371,258  Z"/>

<path  fill="#FA8072" stroke-width="0" stroke="#FA8072" d = " M322 308 C322,314.695 327,317.015 327,318 327,319.528 330.657,317.186 331,316.5 333.8,310.901 338.236,306.027 341,300.5 343.131,296.238 337.909,279.319 336,275.5 336,275.5 331,269 331,269 331,269 321,259 321,259 321,261.759 314,258.321 314,263 314,263 315.5,266 315.5,266 315.5,266 318,266.5 318,266.5 318,267.71 315.926,268.426 317.5,270 321.319,273.819 321,272.673 321,277.5 321,279.628 324.547,279.524 325.5,280 325.5,280 328,285.5 328,285.5 330.846,291.191 329,298.282 329,303.5 329,308.451 322,304.039 322,308  Z"/>

<path  fill="#B31C35" stroke-width="0" stroke="#B31C35" d = " M219 260 L216,262.5 C216,265.472 222.119,264.31 223.5,265 L225.5,269 C227.661,270.081 228.815,267.13 228,265.5 225.918,261.337 225.701,260 219,260  Z"/>

<path  fill="#9953FF" stroke-width="0" stroke="#9953FF" d = " M167 261 C164.823,261 163,260.359 163,263 163,263 167,261 167,261  Z"/>

<path  fill="#FA8072" stroke-width="0" stroke="#FA8072" d = " M167 308 L169,312 C169,315.611 167.973,314.764 165.5,316 156.318,320.591 158.325,310 153,310 151.197,310 150,306.408 150,305 150,304.078 147.504,297 147,297 147,288.427 148.061,281.379 152,273.5 153.483,270.534 162,266.031 162,264 162,264 163,263 163,263 163,263 167,261 167,261 167,261 171,262 171,262 171,262 171,263 171,263 171,263 170,264 170,264 170,265.473 171.952,265 173,265 173,265 173,266 173,266 168.098,266 167.826,273.847 166,277.5 166,277.5 160,286.5 160,286.5 157.379,291.742 158.949,306.225 164.5,309 164.5,309 167,308 167,308  Z"/>

<path  fill="#B31C35" stroke-width="0" stroke="#B31C35" d = " M264 261 L262,264.5 C262,268.347 276.449,261 267,261 L264,261  Z"/>

<path  fill="#9953FF" stroke-width="0" stroke="#9953FF" d = " M159 264 L161,264 C161,262.601 159,262.601 159,264  Z"/>

<path  fill="#5BF1FF" stroke-width="0" stroke="#5BF1FF" d = " M170 264 C170,265.473 171.952,265 173,265 174.399,265 174.399,263 173,263 173,263 171,263 171,263 171,263 170,264 170,264  Z"/>

<path  fill="#5BF1FF" stroke-width="0" stroke="#5BF1FF" d = " M314 263 L315.5,266 L318,266.5 C318,267.71 315.926,268.426 317.5,270 321.319,273.819 321,272.673 321,277.5 321,279.628 324.547,279.524 325.5,280 L328,285.5 C330.846,291.191 329,298.282 329,303.5 329,308.451 322,304.039 322,308 313.147,308 321.415,291.33 320,288.5 320,288.5 307.5,282 307.5,282 307.5,282 304.5,276 304.5,276 296.666,272.083 302.619,268.441 307.5,266 310.547,264.476 310.144,263 314,263  Z"/>

<path  fill="#5BF1FF" stroke-width="0" stroke="#5BF1FF" d = " M173 266 L183.5,266 C187.883,268.192 192.784,274.858 186.5,278 183.049,279.725 178.29,277.92 176,282.5 173.972,286.556 175.008,296.484 173,300.5 172.23,302.041 167,307.435 167,308 167,308 164.5,309 164.5,309 158.949,306.225 157.379,291.742 160,286.5 160,286.5 166,277.5 166,277.5 167.826,273.847 168.098,266 173,266  Z"/>

<path  fill="#46A515" stroke-width="0" stroke="#46A515" d = " M373 271 C373,271.692 368.65,282.201 368,283.5 365.583,288.335 370.627,291.936 374.5,290 379.692,287.404 385.792,271 373,271  Z"/>

<path  fill="#46A515" stroke-width="0" stroke="#46A515" d = " M107 283 C107,286.746 109.091,283 107,283  Z"/>

<path  fill="#46A515" stroke-width="0" stroke="#46A515" d = " M444 288 L443,292.5 C444.778,296.056 452.763,288 444,288  Z"/>

<path  fill="#46A515" stroke-width="0" stroke="#46A515" d = " M386 293 C386,295.144 381.738,293.381 380.5,294 L379.5,297 C375.494,297 372.226,301.047 370,305.5 367.524,310.453 376.318,311.909 378.5,313 L381.5,310 C382.874,310 384.271,310.385 385.5,311 L384,315.5 L390.5,316 C400.532,310.984 387.788,305.077 386,301.5 385.194,299.887 390.913,293 386,293  Z"/>

<path  fill="#9953FF" stroke-width="0" stroke="#9953FF" d = " M147 297 C147.504,297 150,304.078 150,305 146.334,305 147,299.32 147,297  Z"/>

<path  fill="#46A515" stroke-width="0" stroke="#46A515" d = " M87 299 L85,303 C85,305.52 89.4628,309.574 91,306.5 L89,303.5 L92,300.5 C92,298.545 88.1112,299 87,299  Z"/>

<path  fill="#46A515" stroke-width="0" stroke="#46A515" d = " M100 310 L99,313.5 C101.007,317.515 113.408,318.908 107.5,313 L104.5,311 L100,310  Z"/>

<path  fill-rule="evenodd" fill="#46A515" stroke-width="0" stroke="#46A515" d = " M389 322 C389,325.93 396.453,322 389,322  M389 319 L385,322.5 L387,325.5 C386.856,325.789 374.5,324.5 372,329.5 370.245,333.01 378.245,333.99 379,335.5 380.025,337.55 378.529,339.515 381.5,341 384.409,342.455 394.68,341.14 396,338.5 L397,332.5 L401,328.5 L400,325.5 C397.006,319.513 396.383,319 389,319  Z"/>

<path  fill="#FF3427" stroke-width="0" stroke="#FF3427" d = " M240 339 L234.5,333 C228.86,330.18 216,336.828 216,342 216,351.016 240,357.8 240,339  Z"/>

<path  fill="#FF3427" stroke-width="0" stroke="#FF3427" d = " M247 339 C247.621,339 250.666,333.917 252.5,333 257.427,330.536 272,334.661 272,341 272,354.879 247,352.787 247,339  Z"/>

</g>
</svg>
