<svg xmlns="http://www.w3.org/2000/svg" xmlns:xlink="http://www.w3.org/1999/xlink" height="512" width="512">
<g>
<rect width="512" height="512" fill="#000000"  stroke-width="0" /> 
<path  fill-rule="evenodd" fill="#86FF5A" stroke-width="0" stroke="#86FF5A" d = " M240 383 L239,387.5 C245.223,399.946 251.667,384.583 248.5,383 L240,383  M284 360 C284,363.746 286.091,360 284,360  M242 341 C242,343.144 237.738,341.381 236.5,342 L233.5,345 C231.185,346.157 224.451,346.024 220.5,348 L218.5,351 L216,351.5 L216.5,353 C211.441,355.53 208.846,355.808 206,361.5 L205,368.5 L198,374.5 L197,388.5 C195.423,391.654 197,393.434 197,397 197,416.687 210.808,423.654 225.5,431 233.767,435.133 244.926,425 245.5,425 L252.5,431 C257.594,433.547 267.852,430.324 272.5,428 278.25,425.125 289.142,414.216 292,408.5 L293,388.5 C293.149,388.203 296.356,389.211 295,386.5 L292,382.5 L292,375.5 C290.525,372.55 288.449,370.398 287,367.5 L286,360.5 C284.524,357.548 281.207,357.914 280,355.5 279.333,354.166 279.065,350.783 277.5,350 L273.5,350 C264.464,345.482 254.729,343 245.5,343 L242,341  Z"/>

<path  fill="#EB57FF" stroke-width="0" stroke="#EB57FF" d = " M240 383 L239,387.5 C245.223,399.946 251.667,384.583 248.5,383 L240,383  Z"/>

</g>
</svg>
