<svg xmlns="http://www.w3.org/2000/svg" xmlns:xlink="http://www.w3.org/1999/xlink" height="512" width="512">
<g>
<rect width="512" height="512" fill="#000000"  stroke-width="0" /> 
<path  fill-rule="evenodd" fill="#FFFF00" stroke-width="0" stroke="#FFFF00" d = " M191 219 L188,221.5 C188,229.526 206.951,230.726 211.5,233 214.969,234.735 217.771,232.635 222.5,235 236.84,242.17 257.418,242.041 271.5,235 278.943,231.279 288.822,232.857 293,224.5 295.12,220.259 287.097,222.694 287,222.5 285.368,219.235 284.627,222 281.5,222 280,222 278.556,218.972 276.5,220 274.19,221.155 261.825,226.162 259.5,225 256.936,223.718 255.444,225 252.5,225 L246.5,222 C245.757,222 244.227,225.363 241.5,224 238.447,222.474 228.439,221 223.5,221 L222.5,223 L218.5,220 C211.515,220 204.133,219.683 197.5,223 195.285,224.108 192.079,219 191,219  M263 194 C263,195.962 251.998,195 251,195 L247.5,196 C245.228,194.864 242.768,197.634 239.5,196 236.993,194.747 238.492,197.996 236.5,197 L234.5,195 L232.5,197 C228.776,198.862 219.172,196 216,196 212.418,196 207.932,194.636 207,196.5 205.35,199.8 198,197.442 198,208 L197,210.5 L199.5,211 C201.65,209.925 203.578,206.039 207.5,208 210.874,209.687 225.444,206.472 226.5,207 L229.5,209 L231.5,207 C239.858,207 271.727,209.886 277.5,207 279.168,206.166 288.398,209 289.5,209 L292.5,211 C295.558,209.471 287.872,198.686 286.5,198 L285.5,195 L281.5,197 L279.5,194 L274.5,195 C273.595,194.547 264.907,194 263,194  M235 165 C235,165.583 227.932,167.216 227.5,167 221.158,163.829 209.041,166.229 203.5,169 194.177,173.662 187.196,202.652 170.5,211 L159.5,215 C153.194,218.153 151.984,228.516 147,233.5 145.709,234.791 135.773,239.045 137,241.5 143.116,253.733 165.319,230.091 171.5,227 173.447,226.027 190.552,215.397 191,214.5 193.257,209.986 197.675,189.913 201.5,188 207.566,184.967 214.475,184.012 220.5,181 L229.5,181 C230.433,180.534 244.65,179.575 245.5,180 254.743,184.621 266.915,177.208 276.5,182 L284,183.5 C289.269,194.039 294.532,204.565 300,215.5 301.944,219.387 310.1,222.3 313.5,224 L315.5,228 C317.794,229.147 321.171,228.835 323.5,230 327.766,232.133 327.396,235 331.5,235 L334.5,239 C337.417,239 338.797,241.148 342.5,243 344.788,244.144 344.7,241 345.5,241 346.422,241 349.925,244.65 351,242.5 351.794,240.912 348.868,236 347.5,236 342.718,236 329.205,224 328.5,224 L327,224.5 C324.684,219.868 329.184,216.868 327,212.5 323.523,205.546 313.05,202.55 308,197.5 300.087,189.587 293.488,173.994 283.5,169 272.557,163.529 246.545,165 235,165  M308 113 L306.5,117 C305.329,117 306.873,112.813 304.5,114 299.846,116.327 303.164,117 296.5,117 296.407,117 291,115.848 291,117.5 L294,118.5 L293.5,122 L300,121.5 L298,120.5 C298,119.231 300.231,122 301.5,122 L302.5,120 L303.5,123 L304,119.5 C305.123,117.254 311.533,118.565 309,113.5 L308,113  M269 108 C269,109.758 261.116,109 259.5,109 253.985,109 233.31,110.095 229.5,112 226.309,113.595 221.58,111.46 218.5,113 L214.5,117 C212.448,118.026 205.473,118 204.5,118 L203.5,120 C199.034,122.233 197.01,121.745 192.5,124 190.976,124.762 190.128,128 187.5,128 L185.5,125 C184.365,125 184.118,125.809 182.5,125 L182,121.5 C180.834,119.169 171.172,114.157 169,118.5 L170,121.5 C170,127.215 171.998,125.249 177.5,128 178.273,128.387 179.679,131.589 182.5,133 L186,131 L190.5,133 L192.5,131 L193.5,133 L194.5,130 C197.23,128.635 202.035,131.431 200,135.5 193.515,148.47 180.646,158.927 166.5,166 163.21,167.645 157.569,164.465 152.5,167 146.848,169.826 134.13,181 128.5,181 126.633,181 126.639,173.569 125.5,173 123.49,171.995 119.36,174.221 117,169.5 110.621,156.742 141,145.278 141,138.5 L135.5,138 C131.316,135.908 126.67,133.915 122.5,136 114.438,140.031 103.597,157.307 100,164.5 98.6774,167.145 99.3572,170.786 98,173.5 96.5837,176.333 97.8197,185.66 100.5,187 102.149,187.825 109,184.247 109,187.5 109,192.141 100.052,195.603 103,201.5 103.872,203.244 105.806,206.347 108.5,205 119.301,199.6 129.801,194.35 140.5,189 142.754,187.873 150.086,182.672 152,186.5 153.434,189.368 146.363,195.137 144.5,197 137.858,203.642 130.232,207.134 122.5,211 L113.5,212 C112.887,212.306 111.632,216.764 112,217.5 L119,223.5 C120.613,226.726 121.557,237.471 128.5,234 133.265,231.618 132.123,224.254 134,220.5 136.12,216.26 143.309,215.882 145,212.5 147.508,207.485 148.359,198.071 154.5,195 159.203,192.649 163.465,187.017 167.5,185 172.951,182.274 180.625,181.25 184,174.5 188.318,165.864 195.657,151.421 204.5,147 206.869,145.815 209.042,144.229 211.5,143 217.584,139.958 227.254,144.123 233.5,141 240.144,137.678 252.183,143 258.5,143 262.926,143 272.759,139.629 277.5,142 L279.5,144 L281.5,143 C288.869,146.684 309.545,177.045 318,185.5 322.891,190.391 347.639,209.777 349,212.5 352.103,218.707 346.652,228.576 355.5,233 L358.5,232 C365.316,232 361.437,223.627 364,218.5 L374,211.5 C375.267,208.966 363.979,205.739 362.5,205 L351.5,203 C346.561,200.531 333.969,191.437 332,187.5 330.569,184.637 323.107,179.286 325,175.5 327.574,170.352 334.196,176.848 336.5,178 347.672,183.586 358.395,190.447 369.5,196 371.359,196.929 377.499,203.001 379.5,202 381.214,201.143 382.282,190.891 380.5,190 375.571,187.535 357,183.135 357,175.5 357,171.806 360.242,174 361.5,174 L363.5,172 L372.5,174 C373.854,174.677 381.593,180.314 383,177.5 383.978,175.543 379.171,161.842 378,159.5 376.69,156.881 374.633,153.766 373,150.5 L372.5,148 L371.5,150 C370.978,150 366.497,139.494 366,138.5 362.997,132.495 341.305,117.098 333.5,121 331.583,121.959 336,121.919 336,122.5 336,124.416 331.544,123.587 333,126.5 L336,127.5 C336,133.561 341.037,137.574 344,143.5 344.925,145.349 347.409,141.319 349,144.5 350.392,147.284 347.502,152.501 344.5,151 341.636,149.568 336.107,144.286 333,150.5 330.915,154.67 335.598,156.696 337,159.5 L337.5,164 C333,166.25 322.405,156.953 318.5,155 L312.5,155 L310.5,152 C306.936,152 302.147,150 298.5,150 L296.5,146 C292.538,144.019 290.322,140.144 288,135.5 L281.5,135 C279.081,135 277.189,133 275.5,133 263.544,133 251.237,135 239.5,135 232.431,135 222.569,133 215.5,133 212.04,133 207.181,135 204.5,135 L203.5,132 L201,134.5 C199.098,130.696 206.425,124 207.5,124 L210.5,126 L211.5,123 L213.5,127 L217.5,122 L219.5,125 L221.5,122 L235.5,122 L242.5,120 C243.585,120 251.225,120.363 252.5,121 L253.5,123 L255.5,120 L256.5,122 L258.5,120 L260.5,122 L260.5,119 C262.358,117.142 263.637,119.932 265.5,119 L266.5,117 L268.5,119 C268.736,119 272.264,113 272.5,113 L274.5,117 L275.5,113 L276.5,118 L277.5,115 C279.336,115 279.497,115.998 281.5,117 L286,116.5 C286,111.527 274.929,108 269,108  M201 98 C201,99.93 202.93,98 201,98  M263 244 L265,244 C265,244 266,243 266,243 266,243 268,242 268,242 268,240.316 272.679,241 274,241 274,239.527 275.952,240 277,240 277,237.874 289.504,233.998 291.5,233 293.961,231.769 294.924,220 296.5,220 298.833,220 301.146,224.323 302.5,225 302.5,225 307,226.5 307,226.5 307,226.5 310.5,231 310.5,231 311.051,231 324.677,237.089 328.5,239 332.579,241.039 341.538,253.481 350.5,249 351.524,248.488 354.483,244 354.5,244 355.151,244 356.151,246.198 357,244.5 358.284,241.933 354.336,237 356.5,237 367.98,237 366.325,231.851 371,222.5 371,222.5 373,222.5 373,222.5 373,222.5 373,219.5 373,219.5 373,219.5 378,214.5 378,214.5 378,214.5 378,206.5 378,206.5 378,206.5 385,200.5 385,200.5 385,199.769 384.833,189.834 385,189.5 385,189.5 388,184.5 388,184.5 388,178.524 388.94,171.381 386,165.5 385.49,164.481 386.436,159 384.5,159 384.5,159 383.5,162 383.5,162 383.5,162 382,152.5 382,152.5 378.292,145.084 368.92,130.21 360.5,126 352.665,122.083 343.487,117.493 336.5,114 336.5,114 334.5,115 334.5,115 332.708,115 328.377,112.062 326.5,113 326.5,113 324.5,115 324.5,115 324.5,115 322.5,113 322.5,113 322.5,113 315.5,112 315.5,112 315.413,111.956 312.907,108.204 312.5,108 309.232,106.366 303.253,109 300.5,109 299.329,109 300.873,104.813 298.5,106 297.34,106.58 297.19,110.345 294.5,109 293.973,108.737 292.137,103.318 289.5,102 284.978,99.7388 280.928,96.2139 276.5,94 276.5,94 270.5,95 270.5,95 270.5,95 268.5,92 268.5,92 268.5,92 259.5,92 259.5,92 254.367,89.4334 222.388,89.556 217.5,92 211.778,94.8609 202.753,95.3736 199.5,97 196.025,98.7377 189.946,115.277 186.5,117 186.5,117 182.5,114 182.5,114 178.396,114 171.057,112 166.5,112 164.125,112 163.664,117.918 161.5,119 158.045,120.728 152.191,120.655 149.5,122 149.5,122 142.5,122 142.5,122 139.68,123.41 115.184,135.132 115,135.5 112.778,139.945 106.884,143.732 105,147.5 101.808,153.884 98.169,160.162 95,166.5 92.8273,170.845 95.0317,193.563 97,197.5 97,197.5 99,197.5 99,197.5 99,197.5 100,205.5 100,205.5 100,205.5 106,212.5 106,212.5 106,212.5 107,221.5 107,221.5 108.616,224.732 112.88,227.26 115,231.5 115.667,232.834 115.935,236.217 117.5,237 122.416,239.458 125.586,238 130.5,238 130.5,238 131,245.5 131,245.5 131.848,247.197 138.836,251.332 141.5,250 143.68,248.91 146.248,249.626 147.5,249 155.219,245.141 160.984,241.258 169.5,237 174.146,234.677 179.814,224 185.5,224 185.5,224 190,229.5 190,229.5 192.89,232.39 196.289,232.394 199.5,234 199.5,234 201.5,237 201.5,237 201.5,237 209.5,238 209.5,238 214.047,240.274 220.818,239.159 224.5,241 236.707,247.103 250.155,244 263,244  Z"/>

<path  fill-rule="evenodd" fill="#00FFFF" stroke-width="0" stroke="#00FFFF" d = " M339 161 C339,164.746 341.091,161 339,161  M269 108 C269,109.758 261.116,109 259.5,109 253.985,109 233.31,110.095 229.5,112 226.309,113.595 221.58,111.46 218.5,113 L214.5,117 C212.448,118.026 205.473,118 204.5,118 L203.5,120 C199.034,122.233 197.01,121.745 192.5,124 190.976,124.762 190.128,128 187.5,128 L185.5,125 C184.365,125 184.118,125.809 182.5,125 L182,121.5 C180.834,119.169 171.172,114.157 169,118.5 L170,121.5 C170,127.215 171.998,125.249 177.5,128 178.273,128.387 179.679,131.589 182.5,133 L186,131 L190.5,133 L192.5,131 L193.5,133 L194.5,130 C197.23,128.635 202.035,131.431 200,135.5 193.515,148.47 180.646,158.927 166.5,166 163.21,167.645 157.569,164.465 152.5,167 146.848,169.826 134.13,181 128.5,181 126.633,181 126.639,173.569 125.5,173 123.49,171.995 119.36,174.221 117,169.5 110.621,156.742 141,145.278 141,138.5 L135.5,138 C131.316,135.908 126.67,133.915 122.5,136 114.438,140.031 103.597,157.307 100,164.5 98.6774,167.145 99.3572,170.786 98,173.5 96.5837,176.333 97.8197,185.66 100.5,187 102.149,187.825 109,184.247 109,187.5 109,192.141 100.052,195.603 103,201.5 103.872,203.244 105.806,206.347 108.5,205 119.301,199.6 129.801,194.35 140.5,189 142.754,187.873 150.086,182.672 152,186.5 153.434,189.368 146.363,195.137 144.5,197 137.858,203.642 130.232,207.134 122.5,211 L113.5,212 C112.887,212.306 111.632,216.764 112,217.5 L119,223.5 C120.613,226.726 121.557,237.471 128.5,234 133.265,231.618 132.123,224.254 134,220.5 136.12,216.26 143.309,215.882 145,212.5 147.508,207.485 148.359,198.071 154.5,195 159.203,192.649 163.465,187.017 167.5,185 172.951,182.274 180.625,181.25 184,174.5 188.318,165.864 195.657,151.421 204.5,147 206.869,145.815 209.042,144.229 211.5,143 217.584,139.958 227.254,144.123 233.5,141 240.144,137.678 252.183,143 258.5,143 262.926,143 272.759,139.629 277.5,142 L279.5,144 L281.5,143 C288.869,146.684 309.545,177.045 318,185.5 322.891,190.391 347.639,209.777 349,212.5 352.103,218.707 346.652,228.576 355.5,233 L358.5,232 C365.316,232 361.437,223.627 364,218.5 L374,211.5 C375.267,208.966 363.979,205.739 362.5,205 L351.5,203 C346.561,200.531 333.969,191.437 332,187.5 330.569,184.637 323.107,179.286 325,175.5 327.574,170.352 334.196,176.848 336.5,178 347.672,183.586 358.395,190.447 369.5,196 371.359,196.929 377.499,203.001 379.5,202 381.214,201.143 382.282,190.891 380.5,190 375.571,187.535 357,183.135 357,175.5 357,171.806 360.242,174 361.5,174 L363.5,172 L372.5,174 C373.854,174.677 381.593,180.314 383,177.5 383.978,175.543 379.171,161.842 378,159.5 376.69,156.881 374.633,153.766 373,150.5 L372.5,148 L371.5,150 C370.978,150 366.497,139.494 366,138.5 362.997,132.495 341.305,117.098 333.5,121 331.583,121.959 336,121.919 336,122.5 336,124.416 331.544,123.587 333,126.5 L336,127.5 C336,133.561 341.037,137.574 344,143.5 344.925,145.349 347.409,141.319 349,144.5 350.392,147.284 347.502,152.501 344.5,151 341.636,149.568 336.107,144.286 333,150.5 330.915,154.67 335.598,156.696 337,159.5 L337.5,164 C333,166.25 322.405,156.953 318.5,155 L312.5,155 L310.5,152 C306.936,152 302.147,150 298.5,150 L296.5,146 C292.538,144.019 290.322,140.144 288,135.5 L281.5,135 C279.081,135 277.189,133 275.5,133 263.544,133 251.237,135 239.5,135 232.431,135 222.569,133 215.5,133 212.04,133 207.181,135 204.5,135 L203.5,132 L201,134.5 C199.098,130.696 206.425,124 207.5,124 L210.5,126 L211.5,123 L213.5,127 L217.5,122 L219.5,125 L221.5,122 L235.5,122 L242.5,120 C243.585,120 251.225,120.363 252.5,121 L253.5,123 L255.5,120 L256.5,122 L258.5,120 L260.5,122 L260.5,119 C262.358,117.142 263.637,119.932 265.5,119 L266.5,117 L268.5,119 C268.736,119 272.264,113 272.5,113 L274.5,117 L275.5,113 L276.5,118 L277.5,115 C279.336,115 279.497,115.998 281.5,117 L286,116.5 C286,111.527 274.929,108 269,108  Z"/>

<path  fill-rule="evenodd" fill="#00FFFF" stroke-width="0" stroke="#00FFFF" d = " M301 118 C301,119.93 302.93,118 301,118  M308 113 L306.5,117 C305.329,117 306.873,112.813 304.5,114 299.846,116.327 303.164,117 296.5,117 296.407,117 291,115.848 291,117.5 L294,118.5 L293.5,122 L300,121.5 L298,120.5 C298,119.231 300.231,122 301.5,122 L302.5,120 L303.5,123 L304,119.5 C305.123,117.254 311.533,118.565 309,113.5 L308,113  Z"/>

<path  fill="#FFFF00" stroke-width="0" stroke="#FFFF00" d = " M301 118 C301,119.93 302.93,118 301,118  Z"/>

<path  fill="#FFFF00" stroke-width="0" stroke="#FFFF00" d = " M339 161 C339,164.746 341.091,161 339,161  Z"/>

<path  fill="#00FFFF" stroke-width="0" stroke="#00FFFF" d = " M235 165 C235,165.583 227.932,167.216 227.5,167 221.158,163.829 209.041,166.229 203.5,169 194.177,173.662 187.196,202.652 170.5,211 L159.5,215 C153.194,218.153 151.984,228.516 147,233.5 145.709,234.791 135.773,239.045 137,241.5 143.116,253.733 165.319,230.091 171.5,227 173.447,226.027 190.552,215.397 191,214.5 193.257,209.986 197.675,189.913 201.5,188 207.566,184.967 214.475,184.012 220.5,181 L229.5,181 C230.433,180.534 244.65,179.575 245.5,180 254.743,184.621 266.915,177.208 276.5,182 L284,183.5 C289.269,194.039 294.532,204.565 300,215.5 301.944,219.387 310.1,222.3 313.5,224 L315.5,228 C317.794,229.147 321.171,228.835 323.5,230 327.766,232.133 327.396,235 331.5,235 L334.5,239 C337.417,239 338.797,241.148 342.5,243 344.788,244.144 344.7,241 345.5,241 346.422,241 349.925,244.65 351,242.5 351.794,240.912 348.868,236 347.5,236 342.718,236 329.205,224 328.5,224 L327,224.5 C324.684,219.868 329.184,216.868 327,212.5 323.523,205.546 313.05,202.55 308,197.5 300.087,189.587 293.488,173.994 283.5,169 272.557,163.529 246.545,165 235,165  Z"/>

<path  fill="#00FFFF" stroke-width="0" stroke="#00FFFF" d = " M263 194 C263,195.962 251.998,195 251,195 L247.5,196 C245.228,194.864 242.768,197.634 239.5,196 236.993,194.747 238.492,197.996 236.5,197 L234.5,195 L232.5,197 C228.776,198.862 219.172,196 216,196 212.418,196 207.932,194.636 207,196.5 205.35,199.8 198,197.442 198,208 L197,210.5 L199.5,211 C201.65,209.925 203.578,206.039 207.5,208 210.874,209.687 225.444,206.472 226.5,207 L229.5,209 L231.5,207 C239.858,207 271.727,209.886 277.5,207 279.168,206.166 288.398,209 289.5,209 L292.5,211 C295.558,209.471 287.872,198.686 286.5,198 L285.5,195 L281.5,197 L279.5,194 L274.5,195 C273.595,194.547 264.907,194 263,194  Z"/>

<path  fill="#FFFF00" stroke-width="0" stroke="#FFFF00" d = " M379 209 C379,216.389 381.111,209 379,209  Z"/>

<path  fill="#00FFFF" stroke-width="0" stroke="#00FFFF" d = " M191 219 L188,221.5 C188,229.526 206.951,230.726 211.5,233 214.969,234.735 217.771,232.635 222.5,235 236.84,242.17 257.418,242.041 271.5,235 278.943,231.279 288.822,232.857 293,224.5 295.12,220.259 287.097,222.694 287,222.5 285.368,219.235 284.627,222 281.5,222 280,222 278.556,218.972 276.5,220 274.19,221.155 261.825,226.162 259.5,225 256.936,223.718 255.444,225 252.5,225 L246.5,222 C245.757,222 244.227,225.363 241.5,224 238.447,222.474 228.439,221 223.5,221 L222.5,223 L218.5,220 C211.515,220 204.133,219.683 197.5,223 195.285,224.108 192.079,219 191,219  Z"/>

<path  fill="#9953FF" stroke-width="0" stroke="#9953FF" d = " M249 341 L249,342 C249,342 241,341 241,341 241,338.478 245.911,337.322 244,333.5 242.88,331.259 238,333.608 238,332.5 238,331.17 241.052,330.604 240,328.5 238.871,326.243 232,331.341 232,327.5 232,327.5 241,325.5 241,325.5 241,323.92 231.909,323.295 230.5,324 223.441,327.529 216.628,331.436 209.5,335 205.937,336.781 198.558,334 196,334 187.858,334 180.732,326.116 174.5,323 172.81,322.155 167,320.825 167,318 167,318 168,315 168,315 169.489,315 174.008,311.516 173,309.5 171.691,306.883 167,307.929 167,306 167,306 169,305 169,305 169,305 170,304 170,304 177.153,304 176,291.663 176,288.5 176,288.5 183,282 183,282 183,282 184,281 184,281 188.231,281 194.111,267.722 192,263.5 191.162,261.823 185,257.984 185,256 185,248.607 185.34,250 177,250 177,250 175,247 175,247 175,242.876 179.116,245.192 181.5,244 191.836,238.832 202.154,242 213,242 213,242 208,250.5 208,250.5 206.733,253.035 210,253.761 210,254.5 210,254.5 207,258.5 207,258.5 207,258.5 210,261.5 210,261.5 210,261.5 208,262.5 208,262.5 208,269.868 220.584,264.542 223.5,266 226.71,267.605 233.039,271.231 237.5,269 238.453,268.524 237.414,264.957 239.5,266 243.142,267.821 248.911,264.705 251.5,266 251.5,266 253.5,269 253.5,269 256.67,270.585 262.563,267.469 265.5,266 268.349,264.576 271.921,267.29 276.5,265 276.5,265 281,264.5 281,264.5 281,264.5 276,263.5 276,263.5 276,262.267 284.878,264.256 283,260.5 283,260.5 276,259.5 276,259.5 276,259.5 281,258.5 281,258.5 281,256.486 276,256.061 276,255.5 276,254.324 279.194,252.111 280,250.5 281.043,248.414 277.476,249.453 277,248.5 276.823,248.146 279.769,242 275,242 275,242 274,241 274,241 274,239.527 275.952,240 277,240 284.179,240 304.914,239.328 306,241.5 307.072,243.643 312,242.221 312,244 308.885,244 308,244.885 308,248 308,248 306.5,250 306.5,250 298.879,253.81 312,255.409 312,259 312,261.064 308.647,259.426 307.5,260 304.954,261.273 296.877,264.254 300,270.5 303.143,276.785 307.894,282.287 311,288.5 312.437,291.374 309.595,295.69 312,300.5 313.454,303.409 321,302.554 321,305 318.788,305 318.788,306 321,306 321,308.65 317.755,308.991 317,310.5 315.124,314.252 321.11,314 323,314 323,314 326,318 326,318 326,322.43 321.01,319.49 319,321.5 314.268,326.232 301.89,336 296.5,336 296.5,336 294.5,335 294.5,335 294.5,335 292,337 292,337 292,329.899 279.036,335.768 273.5,333 271.614,332.057 252.327,316.846 249,323.5 249,323.5 250,326.5 250,326.5 250,333.229 255.863,335.682 262.5,339 262.5,339 269,342 269,342 269,342 260,340 260,340 260,338.514 257,338.514 257,340 257,340 255,340 255,340 255,334.204 247.111,329.278 245,333.5 243.98,335.54 246.772,341 249,341  Z"/>

<path  fill="#EB57FF" stroke-width="0" stroke="#EB57FF" d = " M263 244 L265,244 C265,244 266,243 266,243 266,243 268,242 268,242 268,242 275,242 275,242 279.769,242 276.823,248.146 277,248.5 277.476,249.453 281.043,248.414 280,250.5 279.194,252.111 276,254.324 276,255.5 276,256.061 281,256.486 281,258.5 281,258.5 276,259.5 276,259.5 276,259.5 283,260.5 283,260.5 284.878,264.256 276,262.267 276,263.5 276,263.5 281,264.5 281,264.5 281,264.5 276.5,265 276.5,265 271.921,267.29 268.349,264.576 265.5,266 262.563,267.469 256.67,270.585 253.5,269 253.5,269 251.5,266 251.5,266 248.911,264.705 243.142,267.821 239.5,266 237.414,264.957 238.453,268.524 237.5,269 233.039,271.231 226.71,267.605 223.5,266 220.584,264.542 208,269.868 208,262.5 208,262.5 210,261.5 210,261.5 210,261.5 207,258.5 207,258.5 207,258.5 210,254.5 210,254.5 210,253.761 206.733,253.035 208,250.5 208,250.5 213,242 213,242 237.674,242 229.322,256.411 244.5,264 244.5,264 250,258.5 250,258.5 251.826,256.674 255.608,256.283 257,253.5 258.019,251.461 257.942,248.615 259,246.5 259.694,245.112 263,246.73 263,244  Z"/>

<path  fill="#34FF0D" stroke-width="0" stroke="#34FF0D" d = " M323 314 L326,318 C337.403,318 340.427,301.646 344,294.5 345.603,291.295 343.777,281.054 342,277.5 342,277.5 341,271.5 341,271.5 335.728,260.955 326.846,244 312,244 308.885,244 308,244.885 308,248 313.039,248 312.464,251.982 316.5,254 318.907,255.204 322.195,254.848 324.5,256 326.566,257.033 326.149,260.798 327,262.5 327,262.5 332,266.5 332,266.5 333.405,269.311 341.799,282.902 340,286.5 338.178,290.143 337,294.268 337,297.5 337,300.04 332.896,301.707 332,303.5 331.255,304.991 329,305.833 329,307.5 329,312.134 329.278,314 323,314  Z"/>

<path  fill="#34FF0D" stroke-width="0" stroke="#34FF0D" d = " M168 315 L167,318 C155.944,318 149.331,310.162 145,301.5 145,301.5 144,291.5 144,291.5 143.305,290.111 141.906,281.687 143,279.5 143,279.5 146,277.5 146,277.5 146,267.651 157.62,251.94 169.5,246 169.5,246 175,247 175,247 175,247 177,250 177,250 174.419,250 172.529,252 176,252 176,253.19 165.378,260.061 163.5,261 155.967,264.766 152,276.333 152,283.5 152,283.5 150,285.5 150,285.5 150,294.656 154.566,298.632 159,307.5 159,307.5 164,311.5 164,311.5 164,311.5 164.5,314 164.5,314 165.546,314.523 168,313.049 168,315  Z"/>

<path  fill="#FA8072" stroke-width="0" stroke="#FA8072" d = " M321 306 C321,308.65 317.755,308.991 317,310.5 315.124,314.252 321.11,314 323,314 329.278,314 329,312.134 329,307.5 329,305.833 331.255,304.991 332,303.5 332.896,301.707 337,300.04 337,297.5 337,294.268 338.178,290.143 340,286.5 341.799,282.902 333.405,269.311 332,266.5 332,266.5 327,262.5 327,262.5 326.149,260.798 326.566,257.033 324.5,256 322.195,254.848 318.907,255.204 316.5,254 312.464,251.982 313.039,248 308,248 308,248 306.5,250 306.5,250 298.879,253.81 312,255.409 312,259 316.764,259 320.558,266.616 322,269.5 323.394,272.288 327.331,270.163 329,273.5 329.69,274.88 328.345,279.189 329,280.5 329,280.5 332,283.5 332,283.5 332.584,284.669 329.216,300.069 328,302.5 327.238,304.024 322.725,305 321,305 321,305 321,306 321,306  Z"/>

<path  fill="#9953FF" stroke-width="0" stroke="#9953FF" d = " M177 250 C174.419,250 172.529,252 176,252 176,252 177,250 177,250  Z"/>

<path  fill="#FA8072" stroke-width="0" stroke="#FA8072" d = " M167 306 C167,307.929 171.691,306.883 173,309.5 174.008,311.516 169.489,315 168,315 168,313.049 165.546,314.523 164.5,314 164.5,314 164,311.5 164,311.5 164,311.5 159,307.5 159,307.5 154.566,298.632 150,294.656 150,285.5 150,285.5 152,283.5 152,283.5 152,276.333 155.967,264.766 163.5,261 165.378,260.061 176,253.19 176,252 176,252 177,250 177,250 185.34,250 185,248.607 185,256 180.872,256 167.474,270.552 166,273.5 166,273.5 161,278.5 161,278.5 161,281.121 159.616,284.268 158,287.5 157.04,289.42 164.073,305 166,305 166,305 167,306 167,306  Z"/>

<path  fill="#FFFF00" stroke-width="0" stroke="#FFFF00" d = " M69 251 L63.5,257 L61,256.5 L62,258.5 C62,267.507 65.4599,262.42 67,265.5 68.1288,267.758 65.4987,267.503 65,268.5 63.1702,272.16 63.7859,282 69.5,282 L70.5,280 L75,277.5 L75.5,275 C81.3085,275 79.6626,282.825 80,283.5 81.1167,285.733 88.322,285.856 89,284.5 90.9247,280.651 85,280.199 85,277.5 85,274.628 86.615,272.73 85,269.5 84.3409,268.182 81.1882,270.844 79.5,270 76.7705,268.635 80.3846,266.942 78.5,266 L76,265.5 C76,264.316 77.9126,262.325 77,260.5 75.9549,258.41 71.7336,251 69,251  Z"/>

<path  fill="#46A515" stroke-width="0" stroke="#46A515" d = " M90 251 C90,252.888 82.2316,254.963 84,258.5 L86.5,259 C91.4017,256.549 100.202,251 90,251  Z"/>

<path  fill="#5BF1FF" stroke-width="0" stroke="#5BF1FF" d = " M166 305 L169,305 C169,305 170,304 170,304 177.153,304 176,291.663 176,288.5 176,288.5 183,282 183,282 183,282 184,281 184,281 188.231,281 194.111,267.722 192,263.5 191.162,261.823 185,257.984 185,256 180.872,256 167.474,270.552 166,273.5 166,273.5 161,278.5 161,278.5 161,281.121 159.616,284.268 158,287.5 157.04,289.42 164.073,305 166,305  Z"/>

<path  fill="#5BF1FF" stroke-width="0" stroke="#5BF1FF" d = " M312 259 C316.764,259 320.558,266.616 322,269.5 323.394,272.288 327.331,270.163 329,273.5 329.69,274.88 328.345,279.189 329,280.5 L332,283.5 C332.584,284.669 329.216,300.069 328,302.5 327.238,304.024 322.725,305 321,305 321,302.554 313.454,303.409 312,300.5 309.595,295.69 312.437,291.374 311,288.5 307.894,282.287 303.143,276.785 300,270.5 296.877,264.254 304.954,261.273 307.5,260 308.647,259.426 312,261.064 312,259  Z"/>

<path  fill="#FFFF00" stroke-width="0" stroke="#FFFF00" d = " M63 266 C63,268.091 66.7458,266 63,266  Z"/>

<path  fill="#46A515" stroke-width="0" stroke="#46A515" d = " M408 267 C408,268.618 411.015,279 413.5,279 L414,273.5 C412.471,270.442 412.058,267 408,267  Z"/>

<path  fill="#FFFF00" stroke-width="0" stroke="#FFFF00" d = " M100 269 L99,272.5 L100.5,275 C101.597,275 103.689,269 100,269  Z"/>

<path  fill="#46A515" stroke-width="0" stroke="#46A515" d = " M71 288 L68,293.5 C67.4553,294.589 67.7493,300 69.5,300 73.062,300 74.9806,288 71,288  Z"/>

<path  fill="#5BF1FF" stroke-width="0" stroke="#5BF1FF" d = " M321 305 C318.788,305 318.788,306 321,306 321,306 321,305 321,305  Z"/>

<path  fill-rule="evenodd" fill="#00F60E" stroke-width="0" stroke="#00F60E" d = " M253 326 C253,332.501 260.436,326 253,326  M271 343 L273,343 C273,343 275,342 275,342 275,342 277,340.5 277,340.5 277,335.136 281.402,339 286,339 286,339 290,338 290,338 290,338 291,337 291,337 291,337 292,337 292,337 292,329.899 279.036,335.768 273.5,333 271.614,332.057 252.327,316.846 249,323.5 249,323.5 250,326.5 250,326.5 250,333.229 255.863,335.682 262.5,339 262.5,339 269,342 269,342 269,342 270,342 270,342 270,342 271,343 271,343  Z"/>

<path  fill-rule="evenodd" fill="#00F60E" stroke-width="0" stroke="#00F60E" d = " M232 335 L231,336.5 C231,338.358 237.354,335 232,335  M236 333 C236,337.42 237.206,333 236,333  M214 344 L216,344 C216,341.959 216.959,341 219,341 221.531,341 224.118,340 227,340 227,338.413 233,338.413 233,340 233,340 239,341 239,341 239,341 241,341 241,341 241,338.478 245.911,337.322 244,333.5 242.88,331.259 238,333.608 238,332.5 238,331.17 241.052,330.604 240,328.5 238.871,326.243 232,331.341 232,327.5 232,327.5 241,325.5 241,325.5 241,323.92 231.909,323.295 230.5,324 223.441,327.529 216.628,331.436 209.5,335 205.937,336.781 198.558,334 196,334 196,335.661 199.008,339 201,339 201,339 210.5,338 210.5,338 211.946,338.723 213.353,342 211,342 211,342 214,344 214,344  Z"/>

<path  fill="#9953FF" stroke-width="0" stroke="#9953FF" d = " M253 326 C253,332.501 260.436,326 253,326  Z"/>

<path  fill="#00F60E" stroke-width="0" stroke="#00F60E" d = " M255 340 C253.436,340 251.124,341 249,341 246.772,341 243.98,335.54 245,333.5 247.111,329.278 255,334.204 255,340  Z"/>

<path  fill="#9953FF" stroke-width="0" stroke="#9953FF" d = " M236 333 C236,337.42 237.206,333 236,333  Z"/>

<path  fill="#9953FF" stroke-width="0" stroke="#9953FF" d = " M232 335 L231,336.5 C231,338.358 237.354,335 232,335  Z"/>

<path  fill="#9953FF" stroke-width="0" stroke="#9953FF" d = " M291 337 L290,338 C290,338 291,337 291,337  Z"/>

<path  fill="#9953FF" stroke-width="0" stroke="#9953FF" d = " M201 339 L210.5,338 C211.946,338.723 213.353,342 211,342 208.518,342 201,342.669 201,339  Z"/>

<path  fill="#9953FF" stroke-width="0" stroke="#9953FF" d = " M286 339 C281.402,339 277,335.136 277,340.5 L275,342 C278.332,342 286,343.576 286,339  Z"/>

<path  fill="#9953FF" stroke-width="0" stroke="#9953FF" d = " M227 340 L233,340 C233,338.413 227,338.413 227,340  Z"/>

<path  fill="#00F60E" stroke-width="0" stroke="#00F60E" d = " M257 340 L260,340 C260,338.514 257,338.514 257,340  Z"/>

<path  fill="#FF3427" stroke-width="0" stroke="#FF3427" d = " M216 344 L215,345 C215,350.837 239,355.147 239,341 239,341 233,340 233,340 233,340 227,340 227,340 224.118,340 221.531,341 219,341 219,341 216,344 216,344  Z"/>

<path  fill="#FF3427" stroke-width="0" stroke="#FF3427" d = " M271 343 L273,343 C273,343 274,345.5 274,345.5 269.718,354.065 249,353.268 249,342 249,342 249,341 249,341 251.124,341 253.436,340 255,340 255,340 257,340 257,340 257,340 260,340 260,340 260,340 269,342 269,342 269,342 270,342 270,342 270,342 271,343 271,343  Z"/>

<path  fill="#9953FF" stroke-width="0" stroke="#9953FF" d = " M219 341 C216.959,341 216,341.959 216,344 216,344 219,341 219,341  Z"/>

<path  fill="#9953FF" stroke-width="0" stroke="#9953FF" d = " M270 342 L271,343 C271,343 270,342 270,342  Z"/>

<path  fill="#9953FF" stroke-width="0" stroke="#9953FF" d = " M216 344 L215,345 C215,345 214,344 214,344 214,344 216,344 216,344  Z"/>

</g>
</svg>
