<svg xmlns="http://www.w3.org/2000/svg" xmlns:xlink="http://www.w3.org/1999/xlink" height="512" width="512">
<g>
<rect width="512" height="512" fill="#000000"  stroke-width="0" /> 
<path  fill-rule="evenodd" fill="#86FF5A" stroke-width="0" stroke="#86FF5A" d = " M240 346 C240,348.014 237.716,351.932 239,354.5 242.026,360.553 254.966,349.733 247.5,346 L240,346  M243 309 C243,311.207 237.824,309.338 236.5,310 232.36,312.07 221.253,312.623 218.5,314 216.675,314.912 201.628,329.245 200,332.5 197.737,337.026 198.289,342.922 196,347.5 193.583,352.334 196.058,365.615 198,369.5 201.051,375.601 209.923,393.211 215.5,396 220.199,398.35 228.86,398.68 231.5,400 233.055,400.778 238.374,401.063 240.5,400 L245.5,394 C247.551,394 251.014,399.757 253.5,401 258.679,403.59 268.599,397.95 272.5,396 L276.5,391 L279,390.5 C280.962,386.576 284.916,384.669 287,380.5 L292,366.5 L295,364.5 C295.376,363.748 292.819,348.139 292,346.5 288.649,339.798 288.399,331.297 285,324.5 284.572,323.644 283.058,325.616 282,323.5 280.141,319.782 276.499,316 272.5,314 L263.5,314 C256.56,310.53 251.657,309 243,309  Z"/>

<path  fill="#86FF5A" stroke-width="0" stroke="#86FF5A" d = " M288 329 C288,332.746 290.091,329 288,329  Z"/>

<path  fill-rule="evenodd" fill="#EB57FF" stroke-width="0" stroke="#EB57FF" d = " M244 350 C244,353.746 246.091,350 244,350  M240 346 C240,348.014 237.716,351.932 239,354.5 242.026,360.553 254.966,349.733 247.5,346 L240,346  Z"/>

<path  fill="#27F4FD" stroke-width="0" stroke="#27F4FD" d = " M244 350 C244,353.746 246.091,350 244,350  Z"/>

</g>
</svg>
