<svg xmlns="http://www.w3.org/2000/svg" xmlns:xlink="http://www.w3.org/1999/xlink" height="512" width="512">
<g>
<rect width="512" height="512" fill="#000000"  stroke-width="0" /> 
<path  fill-rule="evenodd" fill="#86FF5A" stroke-width="0" stroke="#86FF5A" d = " M239 369 C239,370.639 241,371.455 241,372.5 L239,374.5 L241,376.5 C241,385.043 255.918,373.209 247.5,369 L239,369  M234 330 C234,332.261 227.906,330.297 226.5,331 L223.5,334 C221.058,335.221 214.436,334.627 213,337.5 L203,349.5 C199.24,357.02 199.381,369.738 196,376.5 194.696,379.107 197.976,384.451 199,386.5 L199,395.5 C203.631,404.761 225.037,426.731 238.5,420 240.03,419.235 245.092,413 245.5,413 247.646,413 252.17,418.835 254.5,420 260.837,423.169 272.783,416.358 277.5,414 L277,411.5 L281,407.5 L287,403.5 C295.058,387.384 294.388,366.275 287,351.5 284.57,346.64 282.993,339.747 277.5,337 264.22,330.36 250.151,330 234,330  Z"/>

<path  fill="#EB57FF" stroke-width="0" stroke="#EB57FF" d = " M239 369 C239,370.639 241,371.455 241,372.5 L239,374.5 L241,376.5 C241,385.043 255.918,373.209 247.5,369 L239,369  Z"/>

</g>
</svg>
