<svg xmlns="http://www.w3.org/2000/svg" xmlns:xlink="http://www.w3.org/1999/xlink" height="512" width="512">
<g>
<rect width="512" height="512" fill="#000000"  stroke-width="0" /> 
<path  fill-rule="evenodd" fill="#FFFF00" stroke-width="0" stroke="#FFFF00" d = " M191 215 C191,218.746 193.091,215 191,215  M294 213 C294,220.435 296.905,213 294,213  M254 167 C254,169.737 246.019,169 243,169 L212.5,169 L211.5,172 C208.965,173.267 208.239,170 207.5,170 196.256,170 188.045,204.728 179.5,209 165.374,216.063 153.468,216.564 145,233.5 143.277,236.946 132.957,239.414 135,243.5 140.002,253.503 162.825,231.838 168.5,229 172.264,227.118 188.659,217.183 190,214.5 L192,205.5 L194,205.5 C197.329,198.842 198.834,189.833 204.5,187 210.188,184.156 216.794,183.853 222.5,181 227.719,178.391 236.168,182.666 241.5,180 243.614,178.943 252.749,181 256,181 266.725,181 275.082,180.291 284.5,185 286.721,186.111 286.123,189.745 287,191.5 L290,193.5 C293.449,200.399 296.578,207.656 300,214.5 303.205,220.911 312.838,221.176 316,227.5 L323.5,230 C326.278,231.389 341.67,242 343.5,242 344.938,242 347.062,241 348.5,241 348.77,241 350.584,244.332 352,241.5 354.518,236.463 336.401,231.303 336,230.5 L335,226.5 L333,226.5 C331.947,224.394 334.431,220.362 333,217.5 329.933,211.366 310.827,200.663 305.5,198 300.018,195.259 291.524,175.512 284.5,172 278.872,169.186 274.839,167 269.5,167 266.803,167 262.238,171.369 259.5,170 258.454,169.477 254.208,167 254,167  M269 128 C269,132.365 272.479,128 269,128  M210 97 L208,98.5 L210,99.5 C210,101.743 204.798,99.3512 203.5,100 L202.5,103 L199,104.5 L204.5,105 L208.5,102 C209.579,101.461 217,102.825 217,100.5 L213,99.5 L217,98.5 C217,96.8502 211.259,97 210,97  M221 94 C221,96.346 216.808,93.8836 216,95.5 215.316,96.8682 230.151,98.8256 222.5,95 L221,94  M261 243 L261,244 C261,244 230.5,243 230.5,243 228.081,241.791 225.879,240 222,240 222,240 219,240 219,240 219,240 215.5,238 215.5,238 205.786,238 199.505,235.503 190.5,231 190.5,231 188.5,228 188.5,228 188.5,228 186,227.5 186,227.5 186,227.5 185.5,223 185.5,223 178.924,223 174.4,233.55 169.5,236 161.406,240.047 154.018,245.241 144.5,250 132.255,256.123 129.576,240.038 127.5,239 127.5,239 115.5,237 115.5,237 115.5,237 114.5,234 114.5,234 105.448,229.474 107.108,217.716 103,209.5 103,209.5 100,207.5 100,207.5 97.1664,201.833 95,194.849 95,188 96.5325,188 99.5083,193.517 101,196.5 101.967,198.433 101.174,206 105.5,206 105.5,206 110.5,203 110.5,203 117.92,199.29 127.093,198.703 134.5,195 135.63,194.435 142.085,190.67 143,192.5 144.553,195.605 139.397,200.103 137.5,202 133.236,206.264 127.582,209.459 122.5,212 118.097,214.201 112.044,209.412 109,215.5 107.792,217.916 115.931,224.362 117,226.5 118.26,229.02 118.119,232.31 121.5,234 123.124,234.812 128.65,230.199 130,227.5 130,227.5 131,221.5 131,221.5 131,221.5 141,213.5 141,213.5 141,213.5 144,204.5 144,204.5 144,204.5 149,198.5 149,198.5 152.704,191.092 166.653,193.924 168.5,193 168.5,193 172.5,190 172.5,190 182.611,184.945 191.285,158.108 201.5,153 206.451,150.525 209.617,147.441 214.5,145 214.5,145 218.5,146 218.5,146 222.679,143.911 228.446,145.027 232.5,143 233.192,142.654 246.007,140.753 246.5,141 252.935,144.217 270.978,141.739 273.5,143 277.725,145.113 282.242,146.871 286.5,149 286.5,149 300,168.5 300,168.5 301.938,172.377 328.248,195.874 332.5,198 335.732,199.616 352.619,214.737 354,217.5 354,217.5 353,226.5 353,226.5 354.164,228.828 359.039,235.73 362.5,234 369.375,230.562 364.356,224.789 367,219.5 368.372,216.755 377.826,214.153 376,210.5 374.059,206.619 366.64,208.57 363.5,207 356.213,203.356 324.785,191.93 331,179.5 332.161,177.179 341.1,183.3 342.5,184 352.218,188.859 362.88,192.19 372.5,197 374.7,198.1 380.678,204.144 383,199.5 384.052,197.396 381,196.83 381,195.5 381,188.481 361.504,187.493 366,178.5 369.119,172.261 382.24,185.02 385,179.5 386.508,176.483 383.243,167.987 382,165.5 380.853,163.206 381.165,159.829 380,157.5 378.135,153.77 363.913,133.706 360.5,132 358.108,130.804 354.827,131.163 352.5,130 350.589,129.044 344.701,123.899 342.5,125 339.823,126.338 342,127.17 342,128.5 342,128.5 340,130.5 340,130.5 342.546,135.592 345.903,138.403 350.5,143 355.994,148.494 366.704,157.898 356.5,163 356.5,163 352.5,163 352.5,163 352.5,163 349.5,169 349.5,169 343.65,171.925 334.77,166.135 330.5,164 330.5,164 317.5,162 317.5,162 309.265,157.883 301.802,152.651 296.5,150 292.817,148.158 289.461,140.421 288,137.5 288,137.5 287.5,132 287.5,132 287.5,132 286.5,135 286.5,135 284.674,135 280.85,132 279.5,132 279.5,132 278.5,134 278.5,134 278.5,134 276.5,130 276.5,130 273.715,130 271,131.306 271,132.5 271,132.5 268.5,134 268.5,134 268.5,134 267.5,130 267.5,130 267.5,130 264,132.5 264,132.5 264,132.5 265,130.5 265,130.5 265,130.5 263,129.5 263,129.5 263,126.195 267.099,127 269.5,127 271.584,127 270.807,118.154 274.5,120 274.5,120 276.5,124 276.5,124 276.5,124 277,120.5 277,120.5 277,120.5 283.5,120 283.5,120 283.5,120 283.5,123 283.5,123 285.416,123.958 287.648,121.797 289,124.5 289,124.5 289.5,129 289.5,129 289.5,129 290.5,127 290.5,127 290.5,127 291.5,130 291.5,130 291.5,130 293.5,126 293.5,126 293.5,126 294.5,129 294.5,129 294.5,129 296.5,125 296.5,125 299.565,125 301.799,125.902 302,125.5 303.197,123.107 318.951,125.401 313,113.5 311.431,110.362 307.424,119 305.5,119 305.5,119 304.5,118 304.5,118 304.5,118 303.5,122 303.5,122 303.5,122 302.5,119 302.5,119 302.5,119 300.5,122 300.5,122 298.458,122 297.979,118 297.5,118 297.5,118 296.5,120 296.5,120 296.5,120 293,113.5 293,113.5 293,113.5 289,111.5 289,111.5 289,111.5 288.5,105 288.5,105 288.5,105 288,108.5 288,108.5 288,108.5 286,107.5 286,107.5 286,107.5 287,106.5 287,106.5 287,106.5 282.5,104 282.5,104 281.425,102.925 277.725,98.3874 276.5,99 274.385,100.058 274.927,105.645 274,107.5 271.616,112.268 270.921,104.29 269.5,105 269.5,105 268.5,109 268.5,109 268.5,109 248.5,109 248.5,109 244.829,110.835 238.638,110 235.5,110 235.5,110 231.5,113 231.5,113 231.5,113 217.5,113 217.5,113 217.5,113 214.5,117 214.5,117 214.5,117 203.5,118 203.5,118 203.5,118 201.5,121 201.5,121 201.5,121 199.5,120 199.5,120 199.373,120 193.632,124.434 192.5,125 192.5,125 190.5,131 190.5,131 190.5,131 188.5,129 188.5,129 188.105,129 184.727,132.113 182.5,131 182.5,131 180.5,128 180.5,128 179.713,128 179.639,131.778 178,128.5 176.991,126.482 178.852,121.176 174.5,119 172.287,117.893 164.023,114.454 162,118.5 161.5,119.5 165.736,128 166.5,128 166.5,128 168,126.5 168,126.5 168,126.5 169,132.5 169,132.5 169,132.5 172,133.5 172,133.5 172,133.5 168,137.5 168,137.5 168.297,138.094 177.413,140.673 178,139.5 179.446,136.607 179.732,139.035 180,138.5 180,138.5 180.5,133 180.5,133 180.5,133 181.5,136 181.5,136 184.756,136 183.974,131.737 190.5,135 191.997,135.748 189.724,141 192.5,141 192.5,141 193.5,138 193.5,138 193.5,138 194,145 194,145 194,145 191,146.5 191,146.5 189.797,148.907 189.26,151.98 188,154.5 186.243,158.014 179.537,160.481 176.5,162 172.789,163.856 170.613,168.443 167.5,170 167.5,170 154.5,169 154.5,169 149.321,171.589 143.718,173.391 138.5,176 133.697,178.401 126.556,190.028 120.5,187 120.5,187 120,180.5 120,180.5 118.468,177.436 115.236,177.972 114,175.5 110.985,169.471 115.458,162.584 118,157.5 119.338,154.825 133.396,146.292 132,143.5 127.411,134.321 116.07,144.43 112,148.5 100.22,160.28 95,169.811 95,187 93.0187,187 92,180.295 92,178.5 92,172.02 95.4274,162.645 98,157.5 98,157.5 102,153.5 102,153.5 102.937,151.626 102.21,147.145 104.5,146 106.28,145.11 107.971,146.558 109,144.5 110.505,141.49 113.024,135.738 114.5,135 114.5,135 118.5,135 118.5,135 123.89,132.305 116.823,128 127.5,128 128.24,128 127.88,122 130.5,122 133.245,122 138.248,119.126 142.5,117 144.614,115.943 148.631,117.934 150.5,117 150.5,117 153.5,115 153.5,115 153.5,115 154.5,117 154.5,117 154.5,117 155.5,115 155.5,115 155.5,115 164.5,112 164.5,112 167.288,110.606 177.154,114.673 180.5,113 180.5,113 182.5,110 182.5,110 183.696,109.402 184.768,110.866 186.5,110 186.84,109.83 193.296,98.6022 198.5,96 205.615,92.4425 215.58,93.4599 222.5,90 222.5,90 236.5,90 236.5,90 236.5,90 235.5,88 235.5,88 237.797,86.8513 247.718,85.6088 250.5,87 250.5,87 253.5,90 253.5,90 253.5,90 268.5,90 268.5,90 268.5,90 271.5,94 271.5,94 271.5,94 273.5,92 273.5,92 273.5,92 274.5,94 274.5,94 274.5,94 276.5,93 276.5,93 276.5,93 279.5,96 279.5,96 279.5,96 282.5,96 282.5,96 282.5,96 292.5,103 292.5,103 294.732,104.116 297.897,102 299.5,102 303.144,102 305.038,107.769 305.5,108 305.5,108 317.5,108 317.5,108 317.5,108 321.5,112 321.5,112 325.424,113.962 331.858,113 334.5,113 334.5,113 339.5,116 339.5,116 339.5,116 341.5,115 341.5,115 341.5,115 343.5,118 343.5,118 348.304,118 350.402,121.951 356.5,125 359.569,126.535 366.22,127.94 368,131.5 372.56,140.619 382,146.256 382,155.5 382,155.5 383.5,157 383.5,157 384.896,157 384.021,153.541 387,159.5 388.24,161.981 387,165.61 387,167.5 387,167.5 389,171.5 389,171.5 390.401,174.301 389.167,183.167 388,185.5 388,185.5 389,190.5 389,190.5 389,190.5 386,193.5 386,193.5 386,193.5 386,198.5 386,198.5 385.284,199.932 379,206.131 379,206.5 379,206.5 382,209.5 382,209.5 382,209.5 379.5,217 379.5,217 379.5,217 378.5,214 378.5,214 376.009,214 377.539,218.423 377,219.5 377,219.5 373,223.5 373,223.5 371.188,227.123 370.863,231.774 369,235.5 369,235.5 367,235.5 367,235.5 363.849,241.803 360.57,237 357.5,237 357.5,237 357,244.5 357,244.5 355.866,246.769 354.882,244.618 354,245.5 352.804,246.696 354.321,247.59 353.5,248 347.29,251.105 343.508,247.504 338.5,245 332.927,242.213 331.385,240.942 325.5,238 325.5,238 323.5,235 323.5,235 323.5,235 319.5,235 319.5,235 316.76,233.63 314.627,232.063 310.5,230 307.548,228.524 299.596,218.952 295.5,221 295.5,221 295,226.5 295,226.5 295,226.5 290.5,232 290.5,232 287.449,235.051 283.11,236.195 279.5,238 279.5,238 276,240 276,240 276,240 275,240 275,240 273.241,240 266,240.326 266,242 266,242 265,242 265,242 265,242 264,242 264,242 262.952,242 261,241.527 261,243  M250 238 L251,238 C260.09,238 275.952,235.274 284.5,231 286.894,229.803 294.562,224.624 293,221.5 293,221.5 287.5,223 287.5,223 287.5,223 286.5,220 286.5,220 283.909,220 279.935,219 276.5,219 276.5,219 275.5,221 275.5,221 271.319,221 267.531,223 266.5,223 266.5,223 264.5,221 264.5,221 264.08,221 262.113,223 260.5,223 260.5,223 258.5,221 258.5,221 255.42,221 252.135,222 249.5,222 249.5,222 246.5,220 246.5,220 246.5,220 245.5,222 245.5,222 243.481,223.01 238.404,220.952 236.5,220 236.5,220 231.5,222 231.5,222 231.5,222 230.5,220 230.5,220 228.205,220 223.698,220.401 222.5,221 222.5,221 218.5,220 218.5,220 218.5,220 205,220 205,220 205,220 199.5,220 199.5,220 199.5,220 196.5,223 196.5,223 193.584,221.542 190.437,216.626 188,221.5 186.651,224.197 195.195,228.848 197.5,230 202.438,232.469 218.827,229.664 225.5,233 235.702,238.101 235.875,238 246.5,238 247.875,238 250,242.429 250,238  M197 211 C197,212.186 198,212.186 198,211 200.409,211 199.055,209.723 200.5,209 200.5,209 205.5,210 205.5,210 212.029,206.735 225.433,208 233,208 233,208 260.5,208 260.5,208 261.547,207.477 263.005,206.252 264.5,207 269.584,209.542 273.853,210.323 278.5,208 283.157,205.671 293.113,211.273 294,209.5 295.188,207.124 286.395,194.053 284.5,195 284.5,195 281.5,197 281.5,197 281.5,197 280.5,194 280.5,194 280.5,194 273.5,195 273.5,195 273.5,195 270.5,194 270.5,194 264.714,196.893 253.781,195 247,195 244.248,195 218.739,196.619 217.5,196 216.862,195.681 210.507,194.496 209.5,195 207.15,196.175 204.15,197 202.5,197 197.107,197 196.62,209.259 195,212.5 195,212.5 193,215.5 193,215.5 195.607,220.715 197,208.217 197,211  Z"/>

<path  fill="#FFFF00" stroke-width="0" stroke="#FFFF00" d = " M228 88 C228,89.93 229.93,88 228,88  Z"/>

<path  fill="#00FFFF" stroke-width="0" stroke="#00FFFF" d = " M221 94 C221,96.346 216.808,93.8836 216,95.5 215.316,96.8682 230.151,98.8256 222.5,95 L221,94  Z"/>

<path  fill="#00FFFF" stroke-width="0" stroke="#00FFFF" d = " M210 97 L208,98.5 L210,99.5 C210,101.743 204.798,99.3512 203.5,100 L202.5,103 L199,104.5 L204.5,105 L208.5,102 C209.579,101.461 217,102.825 217,100.5 L213,99.5 L217,98.5 C217,96.8502 211.259,97 210,97  Z"/>

<path  fill-rule="evenodd" fill="#00FFFF" stroke-width="0" stroke="#00FFFF" d = " M174 131 C174,136.567 176.112,131 174,131  M259 128 C259,131.746 261.091,128 259,128  M255 125 C255,127.212 253.478,132.489 254.5,133 256.842,134.171 263.296,132.091 263,131.5 L256,130.5 C255.381,129.262 257.144,125 255,125  M238 125 C238,128.9 229,125.937 229,129.5 229,132.826 235.117,129.309 236.5,130 236.765,130.133 234.017,132.758 236.5,134 240.068,135.784 246.893,132.697 249.5,134 250.378,134.439 253,133.631 253,132.5 253,125.482 243.639,125 238,125  M95 187 L95,188 C96.5325,188 99.5083,193.517 101,196.5 101.967,198.433 101.174,206 105.5,206 105.5,206 110.5,203 110.5,203 117.92,199.29 127.093,198.703 134.5,195 135.63,194.435 142.085,190.67 143,192.5 144.553,195.605 139.397,200.103 137.5,202 133.236,206.264 127.582,209.459 122.5,212 118.097,214.201 112.044,209.412 109,215.5 107.792,217.916 115.931,224.362 117,226.5 118.26,229.02 118.119,232.31 121.5,234 123.124,234.812 128.65,230.199 130,227.5 130,227.5 131,221.5 131,221.5 131,221.5 141,213.5 141,213.5 141,213.5 144,204.5 144,204.5 144,204.5 149,198.5 149,198.5 152.704,191.092 166.653,193.924 168.5,193 168.5,193 172.5,190 172.5,190 182.611,184.945 191.285,158.108 201.5,153 206.451,150.525 209.617,147.441 214.5,145 214.5,145 218.5,146 218.5,146 222.679,143.911 228.446,145.027 232.5,143 233.192,142.654 246.007,140.753 246.5,141 252.935,144.217 270.978,141.739 273.5,143 277.725,145.113 282.242,146.871 286.5,149 286.5,149 300,168.5 300,168.5 301.938,172.377 328.248,195.874 332.5,198 335.732,199.616 352.619,214.737 354,217.5 354,217.5 353,226.5 353,226.5 354.164,228.828 359.039,235.73 362.5,234 369.375,230.562 364.356,224.789 367,219.5 368.372,216.755 377.826,214.153 376,210.5 374.059,206.619 366.64,208.57 363.5,207 356.213,203.356 324.785,191.93 331,179.5 332.161,177.179 341.1,183.3 342.5,184 352.218,188.859 362.88,192.19 372.5,197 374.7,198.1 380.678,204.144 383,199.5 384.052,197.396 381,196.83 381,195.5 381,188.481 361.504,187.493 366,178.5 369.119,172.261 382.24,185.02 385,179.5 386.508,176.483 383.243,167.987 382,165.5 380.853,163.206 381.165,159.829 380,157.5 378.135,153.77 363.913,133.706 360.5,132 358.108,130.804 354.827,131.163 352.5,130 350.589,129.044 344.701,123.899 342.5,125 339.823,126.338 342,127.17 342,128.5 342,128.5 340,130.5 340,130.5 342.546,135.592 345.903,138.403 350.5,143 355.994,148.494 366.704,157.898 356.5,163 356.5,163 352.5,163 352.5,163 352.5,163 349.5,169 349.5,169 343.65,171.925 334.77,166.135 330.5,164 330.5,164 317.5,162 317.5,162 309.265,157.883 301.802,152.651 296.5,150 292.817,148.158 289.461,140.421 288,137.5 288,137.5 287.5,132 287.5,132 287.5,132 286.5,135 286.5,135 284.674,135 280.85,132 279.5,132 279.5,132 278.5,134 278.5,134 278.5,134 276.5,130 276.5,130 273.715,130 271,131.306 271,132.5 271,132.5 268.5,134 268.5,134 268.5,134 267.5,130 267.5,130 267.5,130 264,132.5 264,132.5 264,132.5 265,130.5 265,130.5 265,130.5 263,129.5 263,129.5 263,126.195 267.099,127 269.5,127 271.584,127 270.807,118.154 274.5,120 274.5,120 276.5,124 276.5,124 276.5,124 277,120.5 277,120.5 277,120.5 283.5,120 283.5,120 283.5,120 283.5,123 283.5,123 285.416,123.958 287.648,121.797 289,124.5 289,124.5 289.5,129 289.5,129 289.5,129 290.5,127 290.5,127 290.5,127 291.5,130 291.5,130 291.5,130 293.5,126 293.5,126 293.5,126 294.5,129 294.5,129 294.5,129 296.5,125 296.5,125 299.565,125 301.799,125.902 302,125.5 303.197,123.107 318.951,125.401 313,113.5 311.431,110.362 307.424,119 305.5,119 305.5,119 304.5,118 304.5,118 304.5,118 303.5,122 303.5,122 303.5,122 302.5,119 302.5,119 302.5,119 300.5,122 300.5,122 298.458,122 297.979,118 297.5,118 297.5,118 296.5,120 296.5,120 296.5,120 293,113.5 293,113.5 293,113.5 289,111.5 289,111.5 289,111.5 288.5,105 288.5,105 288.5,105 288,108.5 288,108.5 288,108.5 286,107.5 286,107.5 286,107.5 287,106.5 287,106.5 287,106.5 282.5,104 282.5,104 281.425,102.925 277.725,98.3874 276.5,99 274.385,100.058 274.927,105.645 274,107.5 271.616,112.268 270.921,104.29 269.5,105 269.5,105 268.5,109 268.5,109 268.5,109 248.5,109 248.5,109 244.829,110.835 238.638,110 235.5,110 235.5,110 231.5,113 231.5,113 231.5,113 217.5,113 217.5,113 217.5,113 214.5,117 214.5,117 214.5,117 203.5,118 203.5,118 203.5,118 201.5,121 201.5,121 201.5,121 199.5,120 199.5,120 199.373,120 193.632,124.434 192.5,125 192.5,125 190.5,131 190.5,131 190.5,131 188.5,129 188.5,129 188.105,129 184.727,132.113 182.5,131 182.5,131 180.5,128 180.5,128 179.713,128 179.639,131.778 178,128.5 176.991,126.482 178.852,121.176 174.5,119 172.287,117.893 164.023,114.454 162,118.5 161.5,119.5 165.736,128 166.5,128 166.5,128 168,126.5 168,126.5 168,126.5 169,132.5 169,132.5 169,132.5 172,133.5 172,133.5 172,133.5 168,137.5 168,137.5 168.297,138.094 177.413,140.673 178,139.5 179.446,136.607 179.732,139.035 180,138.5 180,138.5 180.5,133 180.5,133 180.5,133 181.5,136 181.5,136 184.756,136 183.974,131.737 190.5,135 191.997,135.748 189.724,141 192.5,141 192.5,141 193.5,138 193.5,138 193.5,138 194,145 194,145 194,145 191,146.5 191,146.5 189.797,148.907 189.26,151.98 188,154.5 186.243,158.014 179.537,160.481 176.5,162 172.789,163.856 170.613,168.443 167.5,170 167.5,170 154.5,169 154.5,169 149.321,171.589 143.718,173.391 138.5,176 133.697,178.401 126.556,190.028 120.5,187 120.5,187 120,180.5 120,180.5 118.468,177.436 115.236,177.972 114,175.5 110.985,169.471 115.458,162.584 118,157.5 119.338,154.825 133.396,146.292 132,143.5 127.411,134.321 116.07,144.43 112,148.5 100.22,160.28 95,169.811 95,187  Z"/>

<path  fill="#FFFF00" stroke-width="0" stroke="#FFFF00" d = " M322 110 C322,112.091 325.746,110 322,110  Z"/>

<path  fill-rule="evenodd" fill="#FFFF00" stroke-width="0" stroke="#FFFF00" d = " M241 130 C241,132.091 244.746,130 241,130  M238 125 C238,128.9 229,125.937 229,129.5 229,132.826 235.117,129.309 236.5,130 236.765,130.133 234.017,132.758 236.5,134 240.068,135.784 246.893,132.697 249.5,134 250.378,134.439 253,133.631 253,132.5 253,125.482 243.639,125 238,125  Z"/>

<path  fill="#FFFF00" stroke-width="0" stroke="#FFFF00" d = " M255 125 C255,127.212 253.478,132.489 254.5,133 256.842,134.171 263.296,132.091 263,131.5 L256,130.5 C255.381,129.262 257.144,125 255,125  Z"/>

<path  fill="#FFFF00" stroke-width="0" stroke="#FFFF00" d = " M259 128 C259,131.746 261.091,128 259,128  Z"/>

<path  fill="#00FFFF" stroke-width="0" stroke="#00FFFF" d = " M269 128 C269,132.365 272.479,128 269,128  Z"/>

<path  fill="#00FFFF" stroke-width="0" stroke="#00FFFF" d = " M241 130 C241,132.091 244.746,130 241,130  Z"/>

<path  fill="#FFFF00" stroke-width="0" stroke="#FFFF00" d = " M174 131 C174,136.567 176.112,131 174,131  Z"/>

<path  fill="#00FFFF" stroke-width="0" stroke="#00FFFF" d = " M254 167 C254,169.737 246.019,169 243,169 L212.5,169 L211.5,172 C208.965,173.267 208.239,170 207.5,170 196.256,170 188.045,204.728 179.5,209 165.374,216.063 153.468,216.564 145,233.5 143.277,236.946 132.957,239.414 135,243.5 140.002,253.503 162.825,231.838 168.5,229 172.264,227.118 188.659,217.183 190,214.5 L192,205.5 L194,205.5 C197.329,198.842 198.834,189.833 204.5,187 210.188,184.156 216.794,183.853 222.5,181 227.719,178.391 236.168,182.666 241.5,180 243.614,178.943 252.749,181 256,181 266.725,181 275.082,180.291 284.5,185 286.721,186.111 286.123,189.745 287,191.5 L290,193.5 C293.449,200.399 296.578,207.656 300,214.5 303.205,220.911 312.838,221.176 316,227.5 L323.5,230 C326.278,231.389 341.67,242 343.5,242 344.938,242 347.062,241 348.5,241 348.77,241 350.584,244.332 352,241.5 354.518,236.463 336.401,231.303 336,230.5 L335,226.5 L333,226.5 C331.947,224.394 334.431,220.362 333,217.5 329.933,211.366 310.827,200.663 305.5,198 300.018,195.259 291.524,175.512 284.5,172 278.872,169.186 274.839,167 269.5,167 266.803,167 262.238,171.369 259.5,170 258.454,169.477 254.208,167 254,167  Z"/>

<path  fill="#00FFFF" stroke-width="0" stroke="#00FFFF" d = " M197 211 L198,211 C200.409,211 199.055,209.723 200.5,209 200.5,209 205.5,210 205.5,210 212.029,206.735 225.433,208 233,208 233,208 260.5,208 260.5,208 261.547,207.477 263.005,206.252 264.5,207 269.584,209.542 273.853,210.323 278.5,208 283.157,205.671 293.113,211.273 294,209.5 295.188,207.124 286.395,194.053 284.5,195 284.5,195 281.5,197 281.5,197 281.5,197 280.5,194 280.5,194 280.5,194 273.5,195 273.5,195 273.5,195 270.5,194 270.5,194 264.714,196.893 253.781,195 247,195 244.248,195 218.739,196.619 217.5,196 216.862,195.681 210.507,194.496 209.5,195 207.15,196.175 204.15,197 202.5,197 197.107,197 196.62,209.259 195,212.5 195,212.5 193,215.5 193,215.5 195.607,220.715 197,208.217 197,211  Z"/>

<path  fill="#00FFFF" stroke-width="0" stroke="#00FFFF" d = " M294 213 C294,220.435 296.905,213 294,213  Z"/>

<path  fill="#00FFFF" stroke-width="0" stroke="#00FFFF" d = " M191 215 C191,218.746 193.091,215 191,215  Z"/>

<path  fill="#00FFFF" stroke-width="0" stroke="#00FFFF" d = " M250 238 C250,242.429 247.875,238 246.5,238 235.875,238 235.702,238.101 225.5,233 218.827,229.664 202.438,232.469 197.5,230 195.195,228.848 186.651,224.197 188,221.5 190.437,216.626 193.584,221.542 196.5,223 L199.5,220 L205,220 L218.5,220 L222.5,221 C223.698,220.401 228.205,220 230.5,220 L231.5,222 L236.5,220 C238.404,220.952 243.481,223.01 245.5,222 L246.5,220 L249.5,222 C252.135,222 255.42,221 258.5,221 L260.5,223 C262.113,223 264.08,221 264.5,221 L266.5,223 C267.531,223 271.319,221 275.5,221 L276.5,219 C279.935,219 283.909,220 286.5,220 L287.5,223 L293,221.5 C294.562,224.624 286.894,229.803 284.5,231 275.952,235.274 260.09,238 251,238 251,236.814 250,236.814 250,238  Z"/>

<path  fill="#9953FF" stroke-width="0" stroke="#9953FF" d = " M250 341 L249,343 C249,343 241,341 241,341 241,341 244,334.5 244,334.5 242.41,331.319 238,333.065 238,332.5 238,332.5 240,330.5 240,330.5 241.273,327.953 237.139,328.222 238,326.5 238,326.5 239.5,325 239.5,325 228.202,319.351 219.302,335 212.5,335 212.5,335 210.5,333 210.5,333 209.118,333 206.442,335 204,335 203.082,335 199.013,332.474 198,334.5 198,334.5 199,338 199,338 194.056,338 191.652,332.076 187.5,330 184.142,328.321 179.858,328.358 177,325.5 177,325.5 171,321 171,321 171,321 174,318.5 174,318.5 175.27,315.959 172,314.791 172,313 172,313 174,309.5 174,309.5 174,306.609 166,309.195 166,306 168.423,306 173.722,307.055 175,304.5 175,304.5 175,292.5 175,292.5 177.752,286.996 185.215,282.07 186,280.5 186,280.5 186,274.5 186,274.5 186.996,272.508 198.17,273.84 195,267.5 193.595,264.69 181,266.472 181,259 187.779,259 182.776,249 177,249 174.001,249 178,246.264 178,246 178,246 180.5,244 180.5,244 185.895,241.303 197.116,237.808 203.5,241 204.987,241.743 212,239.692 212,242 212,243.885 207,248.435 207,249.5 207,251 210.028,252.444 209,254.5 209,254.5 206,258.5 206,258.5 207.049,260.598 212.915,269.792 218.5,267 219.637,266.431 219.9,263.7 222.5,265 230.338,268.919 235.902,268.799 243.5,265 246.068,263.716 250.276,267.388 251.5,268 252.467,268.483 271.986,265.757 273.5,265 273.5,265 281,264.5 281,264.5 281,264.5 275,263.5 275,263.5 275,262.406 285.731,263.963 284,260.5 284,260.5 276,259.5 276,259.5 276,259.5 283,258.5 283,258.5 283,256.116 276,256.309 276,255.5 276,255.5 280,254.5 280,254.5 280,253.46 275.455,254.59 277,251.5 277.476,250.547 281.043,251.586 280,249.5 280,249.5 276,247.5 276,247.5 276,247.5 280,245.5 280,245.5 280,245.5 276,243 276,243 276,243 275,240 275,240 275,240 276,240 276,240 284.235,240 292.488,237.994 298.5,241 298.5,241 304.5,240 304.5,240 304.5,240 308,244 308,244 308,244 308,250 308,250 304.432,250 301.855,256 307,256 307,256 308,258.5 308,258.5 306.642,261.216 295.087,262.674 299,270.5 302.33,277.161 304.7,283.9 308,290.5 308,290.5 309,297.5 309,297.5 309,297.5 319,309 319,309 319,310.098 315.125,314 321,314 321,316.909 316,318.795 316,322 316,323.76 294.408,337 292,337 292,330.64 277.767,336.134 273.5,334 269.26,331.88 253.331,315.837 248,326.5 245.698,331.103 264,339.325 264,340 261.277,340 258.222,339 255,339 255,336.482 250.339,330.581 247.5,332 242.415,334.542 245.453,341 250,341  Z"/>

<path  fill="#EB57FF" stroke-width="0" stroke="#EB57FF" d = " M219 240 L222,240 C222,241.486 219,241.486 219,240  Z"/>

<path  fill="#EB57FF" stroke-width="0" stroke="#EB57FF" d = " M261 244 L262,244 C262,244 264,243 264,243 264,243 265,242 265,242 265,242 266,242 266,242 266,242 274.5,241 274.5,241 274.5,241 276,243 276,243 276,243 280,245.5 280,245.5 280,245.5 276,247.5 276,247.5 276,247.5 280,249.5 280,249.5 281.043,251.586 277.476,250.547 277,251.5 275.455,254.59 280,253.46 280,254.5 280,254.5 276,255.5 276,255.5 276,256.309 283,256.116 283,258.5 283,258.5 276,259.5 276,259.5 276,259.5 284,260.5 284,260.5 285.731,263.963 275,262.406 275,263.5 275,263.5 281,264.5 281,264.5 281,264.5 273.5,265 273.5,265 271.986,265.757 252.467,268.483 251.5,268 250.276,267.388 246.068,263.716 243.5,265 235.902,268.799 230.338,268.919 222.5,265 219.9,263.7 219.637,266.431 218.5,267 212.915,269.792 207.049,260.598 206,258.5 206,258.5 209,254.5 209,254.5 210.028,252.444 207,251 207,249.5 207,248.435 212,243.885 212,242 218.378,242 230.028,240.556 234,248.5 234,248.5 234,252.5 234,252.5 234.539,253.578 239.241,255.982 241,259.5 241,259.5 241.5,263 241.5,263 243.899,264.199 255.505,253.49 257,250.5 257,250.5 257,246.5 257,246.5 257,246.5 261,244 261,244  Z"/>

<path  fill="#9953FF" stroke-width="0" stroke="#9953FF" d = " M264 243 L262,244 C262,244 261,243 261,243 261,241.527 262.952,242 264,242 264,242 264,243 264,243  Z"/>

<path  fill="#34FF0D" stroke-width="0" stroke="#34FF0D" d = " M321 314 C321,316.909 316,318.795 316,322 329.122,322 336.781,311.937 342,301.5 343.058,299.384 346.322,293.145 345,290.5 342.982,286.463 344.539,277.579 342,272.5 334.999,258.498 326.779,244 308,244 308,244 308,250 308,250 315.811,250 316.905,256.202 322.5,259 322.5,259 324.5,258 324.5,258 324.5,258 325,260.5 325,260.5 326.479,263.457 329.586,265.673 331,268.5 331,268.5 336,274.5 336,274.5 341.835,286.17 337.837,297.663 330,305.5 327.836,307.664 330.739,314 321,314  Z"/>

<path  fill="#34FF0D" stroke-width="0" stroke="#34FF0D" d = " M172 313 C172,314.791 175.27,315.959 174,318.5 L171,321 C157.333,321 136.05,296.4 143,282.5 144.911,278.678 147,272.743 147,269.5 147,269.5 153,261.5 153,261.5 158.027,251.445 166.15,246 178,246 178,246.264 174.001,249 177,249 177,249 176,250 176,250 176,250 175,251 175,251 175,255.306 160.569,262.363 158,267.5 155.648,272.203 150,279.108 150,284.5 150,297.401 156.48,307.49 167.5,313 167.5,313 168.5,315 168.5,315 169.545,315 170.361,313 172,313  Z"/>

<path  fill-rule="evenodd" fill="#FFFF00" stroke-width="0" stroke="#FFFF00" d = " M73 270 C73,271.149 67.5534,271.473 66.5,272 64.2681,273.116 64.5963,278.048 66.5,279 71.656,281.578 71,275.299 71,273.5 L74,272.5 C74.8425,270.815 75.2414,270 73,270  M64 255 C64,257.19 60.5901,257.68 62,260.5 63.4395,263.379 65.5388,259 66.5,259 67.239,259 67.9652,262.267 70.5,261 76.9879,257.756 66.4987,255 64,255  M65 249 C65,249.435 56,256.347 56,258.5 L58,260.5 L56,263.5 L60,268.5 C61.2937,271.087 58.9642,276.428 61,280.5 63.2182,284.936 67.2615,283.381 70.5,285 79.3138,289.407 79.1924,289 88.5,289 L89.5,285 C91.1465,284.177 94.1767,286.147 95,284.5 96.3046,281.891 94.7427,278.015 96,275.5 96.7277,274.045 97.9636,270.427 97,268.5 94.281,263.062 84.2399,262.98 83,260.5 79.1904,252.881 74.8003,249 65,249  Z"/>

<path  fill="#FA8072" stroke-width="0" stroke="#FA8072" d = " M166 306 C166,309.195 174,306.609 174,309.5 L172,313 C170.361,313 169.545,315 168.5,315 168.5,315 167.5,313 167.5,313 156.48,307.49 150,297.401 150,284.5 150,279.108 155.648,272.203 158,267.5 160.569,262.363 175,255.306 175,251 175,251 176,250 176,250 176,250 177,249 177,249 182.776,249 187.779,259 181,259 178.582,259 172.922,265.655 172,267.5 167.536,276.427 154.158,281.817 161,295.5 161.941,297.383 163.206,306 166,306  Z"/>

<path  fill="#46A515" stroke-width="0" stroke="#46A515" d = " M93 250 C93,251.465 88.6057,251.711 90,254.5 91.5547,257.609 104.582,250 93,250  Z"/>

<path  fill="#FA8072" stroke-width="0" stroke="#FA8072" d = " M319 309 C319,310.098 315.125,314 321,314 330.739,314 327.836,307.664 330,305.5 337.837,297.663 341.835,286.17 336,274.5 336,274.5 331,268.5 331,268.5 329.586,265.673 326.479,263.457 325,260.5 325,260.5 324.5,258 324.5,258 324.5,258 322.5,259 322.5,259 316.905,256.202 315.811,250 308,250 304.432,250 301.855,256 307,256 313.452,256 312.375,262.437 317.5,265 320.383,266.442 319.733,268.233 321.5,270 329.761,278.261 332.999,287.501 328,297.5 327.24,299.021 328,300.645 328,301.5 328,304.074 322.726,304.387 321.5,305 320.112,305.694 321.73,309 319,309  Z"/>

<path  fill-rule="evenodd" fill="#00FFFF" stroke-width="0" stroke="#00FFFF" d = " M66 256 C66,259.746 68.0912,256 66,256  M64 255 C64,257.19 60.5901,257.68 62,260.5 63.4395,263.379 65.5388,259 66.5,259 67.239,259 67.9652,262.267 70.5,261 76.9879,257.756 66.4987,255 64,255  Z"/>

<path  fill="#FFFF00" stroke-width="0" stroke="#FFFF00" d = " M66 256 C66,259.746 68.0912,256 66,256  Z"/>

<path  fill="#5BF1FF" stroke-width="0" stroke="#5BF1FF" d = " M307 256 C313.452,256 312.375,262.437 317.5,265 320.383,266.442 319.733,268.233 321.5,270 329.761,278.261 332.999,287.501 328,297.5 327.24,299.021 328,300.645 328,301.5 328,304.074 322.726,304.387 321.5,305 320.112,305.694 321.73,309 319,309 319,309 309,297.5 309,297.5 309,297.5 308,290.5 308,290.5 304.7,283.9 302.33,277.161 299,270.5 295.087,262.674 306.642,261.216 308,258.5 308,258.5 307,256 307,256  Z"/>

<path  fill="#46A515" stroke-width="0" stroke="#46A515" d = " M403 256 C403,261.871 405.612,264.724 408,269.5 409.661,272.822 409.372,277.244 411,280.5 L414.5,289 C417.597,290.549 417.839,283.179 417,281.5 414.548,276.596 409.896,256 403,256  Z"/>

<path  fill="#5BF1FF" stroke-width="0" stroke="#5BF1FF" d = " M181 259 C178.582,259 172.922,265.655 172,267.5 167.536,276.427 154.158,281.817 161,295.5 161.941,297.383 163.206,306 166,306 168.423,306 173.722,307.055 175,304.5 175,304.5 175,292.5 175,292.5 177.752,286.996 185.215,282.07 186,280.5 186,280.5 186,274.5 186,274.5 186.996,272.508 198.17,273.84 195,267.5 193.595,264.69 181,266.472 181,259  Z"/>

<path  fill="#FFFF00" stroke-width="0" stroke="#FFFF00" d = " M99 265 L98,270 L99,273 C99,287.028 106.464,265 99,265  Z"/>

<path  fill="#00FFFF" stroke-width="0" stroke="#00FFFF" d = " M73 270 C73,271.149 67.5534,271.473 66.5,272 64.2681,273.116 64.5963,278.048 66.5,279 71.656,281.578 71,275.299 71,273.5 L74,272.5 C74.8425,270.815 75.2414,270 73,270  Z"/>

<path  fill="#FFFF00" stroke-width="0" stroke="#FFFF00" d = " M400 272 L400.5,281 C401.09,281 401.854,272 400,272  Z"/>

<path  fill="#FFFF00" stroke-width="0" stroke="#FFFF00" d = " M403 274 C403,275.128 403.101,280 404.5,280 405.729,280 404.051,274 403,274  Z"/>

<path  fill="#46A515" stroke-width="0" stroke="#46A515" d = " M70 294 L67,299.5 C66.1461,301.208 68.426,305.037 70.5,304 72.1328,303.184 73.3988,294 70,294  Z"/>

<path  fill-rule="evenodd" fill="#00F60E" stroke-width="0" stroke="#00F60E" d = " M254 327 C254,331.678 262.645,327 254,327  M266 341 L272,342 C274.815,342 273.905,339.797 275.5,339 279.317,337.092 283.011,339 287,339 287,339 292,337 292,337 292,330.64 277.767,336.134 273.5,334 269.26,331.88 253.331,315.837 248,326.5 245.698,331.103 264,339.325 264,340 264,340 265,340 265,340 265,340 266,341 266,341  Z"/>

<path  fill-rule="evenodd" fill="#00F60E" stroke-width="0" stroke="#00F60E" d = " M236 333 C236,335.273 231,335.311 231,336.5 231,338.691 242.729,333 236,333  M233 327 L230,328.5 C230,332.011 241.28,327 233,327  M239 341 L241,341 C241,341 244,334.5 244,334.5 242.41,331.319 238,333.065 238,332.5 238,332.5 240,330.5 240,330.5 241.273,327.953 237.139,328.222 238,326.5 238,326.5 239.5,325 239.5,325 228.202,319.351 219.302,335 212.5,335 212.5,335 210.5,333 210.5,333 209.118,333 206.442,335 204,335 203.082,335 199.013,332.474 198,334.5 198,334.5 199,338 199,338 199,338 200,338 200,338 200,338 210.5,338 210.5,338 214.014,339.757 214.636,341 219,341 219,339.601 221,339.601 221,341 225.068,341 229.146,339 234,339 234,339 235,340 235,340 235,340 239,341 239,341  Z"/>

<path  fill="#9953FF" stroke-width="0" stroke="#9953FF" d = " M233 327 L230,328.5 C230,332.011 241.28,327 233,327  Z"/>

<path  fill="#9953FF" stroke-width="0" stroke="#9953FF" d = " M254 327 C254,331.678 262.645,327 254,327  Z"/>

<path  fill="#00F60E" stroke-width="0" stroke="#00F60E" d = " M255 339 C255,340.014 251.041,341 250,341 245.453,341 242.415,334.542 247.5,332 250.339,330.581 255,336.482 255,339  Z"/>

<path  fill="#9953FF" stroke-width="0" stroke="#9953FF" d = " M236 333 C236,335.273 231,335.311 231,336.5 231,338.691 242.729,333 236,333  Z"/>

<path  fill="#9953FF" stroke-width="0" stroke="#9953FF" d = " M215 343 C215,341.947 213.525,341.45 213,342.5 L214,345 C211.95,345 200,339.851 200,338 200,338 210.5,338 210.5,338 214.014,339.757 214.636,341 219,341 219,341 215,343 215,343  Z"/>

<path  fill="#9953FF" stroke-width="0" stroke="#9953FF" d = " M272 342 L274,344 C276.574,344 287,342.513 287,339 283.011,339 279.317,337.092 275.5,339 273.905,339.797 274.815,342 272,342  Z"/>

<path  fill="#FF3427" stroke-width="0" stroke="#FF3427" d = " M215 343 L214,345 C214,350.41 240,355.385 240,342 240,342 239,341 239,341 239,341 235,340 235,340 235,340 234,339 234,339 229.146,339 225.068,341 221,341 221,341 219,341 219,341 219,341 215,343 215,343  Z"/>

<path  fill="#9953FF" stroke-width="0" stroke="#9953FF" d = " M234 339 L235,340 C235,340 234,339 234,339  Z"/>

<path  fill="#FF3427" stroke-width="0" stroke="#FF3427" d = " M249 343 C249,354.965 274,352.874 274,344 274,344 272,342 272,342 272,342 266,341 266,341 266,341 265,340 265,340 265,340 264,340 264,340 261.277,340 258.222,339 255,339 255,340.014 251.041,341 250,341 250,341 249,343 249,343  Z"/>

<path  fill="#9953FF" stroke-width="0" stroke="#9953FF" d = " M219 341 L221,341 C221,339.601 219,339.601 219,341  Z"/>

<path  fill="#9953FF" stroke-width="0" stroke="#9953FF" d = " M265 340 L266,341 C266,341 265,340 265,340  Z"/>

<path  fill="#9953FF" stroke-width="0" stroke="#9953FF" d = " M241 341 L240,342 C240,342 239,341 239,341 239,341 241,341 241,341  Z"/>

<path  fill="#00F60E" stroke-width="0" stroke="#00F60E" d = " M215 343 L214,345 C214,345 213,342.5 213,342.5 213.525,341.45 215,341.947 215,343  Z"/>

</g>
</svg>
