<svg xmlns="http://www.w3.org/2000/svg" xmlns:xlink="http://www.w3.org/1999/xlink" height="512" width="512">
<g>
<rect width="512" height="512" fill="#000000"  stroke-width="0" /> 
<path  fill-rule="evenodd" fill="#86FF5A" stroke-width="0" stroke="#86FF5A" d = " M244 300 C244,301.154 238.057,302.386 237,304.5 236.092,306.315 239.494,308.497 240.5,309 251.908,314.704 256.317,304.408 251.5,302 L248.5,303 L244,300  M206 273 C206,273.234 196.633,276.433 195.5,277 190.016,279.742 185.913,285.674 183,291.5 182.59,292.32 184.498,298.495 185,299.5 L185,308.5 C187.123,312.746 192,328.346 192,330.5 192,334.3 199.87,339.685 202.5,341 L203.5,344 C209.767,347.134 230.187,351.656 237.5,348 L243.5,342 L247,343.5 L246,345.5 C246,346.567 251.409,349.454 252.5,350 255.978,351.739 262.51,349 265.5,349 270.832,349 279.02,347.74 284.5,345 L287.5,340 L300,327.5 C300.912,325.676 305,303.615 305,301 305,299.016 308.278,297.055 307,294.5 305.708,291.915 305.244,288.988 304,286.5 299.801,278.102 279.172,270.664 270.5,275 268.352,276.074 263.798,271.351 260.5,273 257.082,274.709 253.993,277.253 250.5,279 249.379,279.56 234.976,277.738 233.5,277 L229.5,273 L206,273  Z"/>

<path  fill-rule="evenodd" fill="#EB57FF" stroke-width="0" stroke="#EB57FF" d = " M244 306 C244,313.975 248.275,306 244,306  M244 300 C244,301.154 238.057,302.386 237,304.5 236.092,306.315 239.494,308.497 240.5,309 251.908,314.704 256.317,304.408 251.5,302 L248.5,303 L244,300  Z"/>

<path  fill="#27F4FD" stroke-width="0" stroke="#27F4FD" d = " M244 306 C244,313.975 248.275,306 244,306  Z"/>

</g>
</svg>
