<svg xmlns="http://www.w3.org/2000/svg" xmlns:xlink="http://www.w3.org/1999/xlink" height="512" width="512">
<g>
<rect width="512" height="512" fill="#000000"  stroke-width="0" /> 
<path  fill="#CED307" stroke-width="0" stroke="#CED307" d = " M249 190 C253.758,190 266.315,187.592 271.5,185 273.028,184.236 276.733,180 277.5,180 L280.5,181 L282.5,177 L287.5,180 L288.5,177 C292.05,175.225 297.414,179 298.5,179 300.743,179 301.453,182.406 302,183.5 L304,183.5 L304.5,186 C307.001,186 316,195.07 316,200 316,204.607 329.599,202.451 332.5,201 334.012,200.244 338.706,186.087 340,183.5 341.791,179.919 339.322,174.144 338,171.5 336.405,168.309 336.632,163.765 335,160.5 332.154,154.807 322.026,145.263 315.5,142 312.947,140.724 309.116,141.308 306.5,140 303.048,138.274 300.055,136.278 295.5,134 292.649,132.574 287.784,135 285.5,135 271.504,135 259.246,141.007 252,155.5 252,155.5 252,159.5 252,159.5 252,159.5 249,162.5 249,162.5 245.869,168.762 249,183.354 249,190  Z"/>

<path  fill="#CED307" stroke-width="0" stroke="#CED307" d = " M236 192 L240,191.5 C241.61,188.28 243.975,175.449 242,171.5 237.52,162.539 235.737,147.119 225.5,142 223.492,140.996 220.548,141.024 218.5,140 216.035,138.767 209.656,135.422 206.5,137 201.642,139.429 194.287,136.607 189.5,139 181.787,142.856 174.335,148.083 166.5,152 157.52,156.49 150.225,176.95 155,186.5 155.575,187.65 156.705,199 157.5,199 L158.5,197 C160.444,197 159.762,201.131 161.5,202 164.679,203.589 171.309,199 174,199 174,186.002 186.987,182.757 196.5,178 196.5,178 197.5,176 197.5,176 197.5,176 198.5,178 198.5,178 199.151,178 200.151,175.802 201,177.5 201,177.5 201.5,179 201.5,179 202.356,179 202.044,174.272 205.5,176 205.5,176 206.5,179 206.5,179 207.3,179 207.212,175.856 209.5,177 209.5,177 212.5,182 212.5,182 212.5,182 215.5,180 215.5,180 218.972,180 222.702,185.904 224,188.5 224.55,189.6 231.996,193 233.5,193 234.12,193 236,189.422 236,192  Z"/>

<path  fill="#03C12D" stroke-width="0" stroke="#03C12D" d = " M174 199 L178,200 C181.415,200 182.28,195 186,195 186,182.954 212.092,181.684 215,187.5 215,187.5 216,191.5 216,191.5 216,191.5 219,195 219,195 219,195.875 223.114,194 224.5,194 227.882,194 230.275,196 233,196 233,196 236,192 236,192 236,189.422 234.12,193 233.5,193 231.996,193 224.55,189.6 224,188.5 222.702,185.904 218.972,180 215.5,180 215.5,180 212.5,182 212.5,182 212.5,182 209.5,177 209.5,177 207.212,175.856 207.3,179 206.5,179 206.5,179 205.5,176 205.5,176 202.044,174.272 202.356,179 201.5,179 201.5,179 201,177.5 201,177.5 200.151,175.802 199.151,178 198.5,178 198.5,178 197.5,176 197.5,176 197.5,176 196.5,178 196.5,178 186.987,182.757 174,186.002 174,199  Z"/>

<path  fill="#03C12D" stroke-width="0" stroke="#03C12D" d = " M305 197 C305,194.877 314.018,200 316,200 316,195.07 307.001,186 304.5,186 304.5,186 304,183.5 304,183.5 304,183.5 302,183.5 302,183.5 301.453,182.406 300.743,179 298.5,179 297.414,179 292.05,175.225 288.5,177 288.5,177 287.5,180 287.5,180 287.5,180 282.5,177 282.5,177 282.5,177 280.5,181 280.5,181 280.5,181 277.5,180 277.5,180 276.733,180 273.028,184.236 271.5,185 266.315,187.592 253.758,190 249,190 249,194.573 257,198.502 257,201 261.757,201 267.084,197 273,197 273,183.8 301,181.731 301,195 301,197.109 303.535,197 305,197  Z"/>

<path  fill="#0F6DE6" stroke-width="0" stroke="#0F6DE6" d = " M186 195 L192.5,199 C199.857,195.321 209.151,195 219,195 219,195 216,191.5 216,191.5 216,191.5 215,187.5 215,187.5 212.092,181.684 186,182.954 186,195  Z"/>

<path  fill="#0F6DE6" stroke-width="0" stroke="#0F6DE6" d = " M301 195 C294.259,195 286.82,199 280.5,199 278.599,199 273,199.933 273,197 273,183.8 301,181.731 301,195  Z"/>

<path  fill-rule="evenodd" fill="#FF8700" stroke-width="0" stroke="#FF8700" d = " M196 222 C196,229.408 199.478,222 196,222  M242 216 C242,228.368 244.046,242.408 239,252.5 L241,254.5 C241,259.22 236,264.138 236,269 236,273.054 229.761,281.631 224.5,279 215.662,274.581 192.055,266.609 187,256.5 185.025,252.55 179.809,251.119 178,247.5 175.302,242.104 166.723,219.055 169,214.5 170.451,211.599 170.847,208.806 172,206.5 173.008,204.484 178,202.898 178,200 181.415,200 182.28,195 186,195 186,195 192.5,199 192.5,199 199.857,195.321 209.151,195 219,195 219,195.875 223.114,194 224.5,194 227.882,194 230.275,196 233,196 233,198.193 237.934,208 240,208 240,208 242,212 242,212 242,212 242,216 242,216  Z"/>

<path  fill-rule="evenodd" fill="#FF8700" stroke-width="0" stroke="#FF8700" d = " M285 227 L285,230 C285,240.104 289.754,227 285,227  M288 223 L288,226.5 C288,239.209 293.652,223 288,223  M248 218 C248,223.972 242.379,255.259 245,260.5 246.806,264.113 249,267.623 249,272 249,272 256.5,281 256.5,281 259.239,282.37 267.484,282.508 270.5,281 276.915,277.792 283.141,274.179 289.5,271 289.5,271 299.5,259 299.5,259 299.5,259 309,251.5 309,251.5 311.013,247.475 311.96,242.58 314,238.5 315.939,234.622 322.588,225.676 320,220.5 317.722,215.944 316.285,211.07 314,206.5 314,206.5 305,197 305,197 303.535,197 301,197.109 301,195 294.259,195 286.82,199 280.5,199 278.599,199 273,199.933 273,197 267.084,197 261.757,201 257,201 257,202.619 251.878,207.744 251,209.5 250.301,210.897 249.758,218 248,218  Z"/>

<path  fill="#FFE300" stroke-width="0" stroke="#FFE300" d = " M240 208 L242,212 C242,212 240,208 240,208  Z"/>

<path  fill="#FFE300" stroke-width="0" stroke="#FFE300" d = " M236 269 C242.276,269 238.941,259 242.5,259 243.537,259 246.923,272 249,272 249,267.623 246.806,264.113 245,260.5 242.379,255.259 248,223.972 248,218 248,216.12 245.921,218.711 244.5,218 244.5,218 242,216 242,216 242,228.368 244.046,242.408 239,252.5 239,252.5 241,254.5 241,254.5 241,259.22 236,264.138 236,269  Z"/>

<path  fill="#FF4FCE" stroke-width="0" stroke="#FF4FCE" d = " M196 222 C196,229.408 199.478,222 196,222  Z"/>

<path  fill="#FF4FCE" stroke-width="0" stroke="#FF4FCE" d = " M288 223 L288,226.5 C288,239.209 293.652,223 288,223  Z"/>

<path  fill="#FF4FCE" stroke-width="0" stroke="#FF4FCE" d = " M285 227 L285,230 C285,240.104 289.754,227 285,227  Z"/>

<path  fill="#FA8072" stroke-width="0" stroke="#FA8072" d = " M190 295 L191,290.5 C189.834,288.169 181.993,295 190,295  Z"/>

<path  fill="#FA8072" stroke-width="0" stroke="#FA8072" d = " M192 290 C192,295.567 194.112,290 192,290  Z"/>

<path  fill="#FA8072" stroke-width="0" stroke="#FA8072" d = " M184 292 C184,297.574 187.145,292 184,292  Z"/>

<path  fill="#30DA00" stroke-width="0" stroke="#30DA00" d = " M301 292 C301,293.951 298.546,292.477 297.5,293 295.39,294.055 290,297.414 290,301.5 290,304.067 291.964,304.232 293.5,305 L296.5,308 C301.865,308 307.668,302.916 311.5,301 L311.5,293 C310.645,293 309.021,293.76 307.5,293 305.341,291.921 303.632,292 301,292  Z"/>

<path  fill="#30DA00" stroke-width="0" stroke="#30DA00" d = " M190 295 C190,296.508 182.544,298.588 185,303.5 191.566,316.631 224.018,307.759 198.5,295 196.473,293.987 191.592,295 190,295  Z"/>

<path  fill="#FA8072" stroke-width="0" stroke="#FA8072" d = " M306 306 L305,310.5 C307.452,315.403 314.407,306 306,306  Z"/>

<path  fill="#FA8072" stroke-width="0" stroke="#FA8072" d = " M190 309 C190,314.567 192.112,309 190,309  Z"/>

<path  fill="#FA8072" stroke-width="0" stroke="#FA8072" d = " M192 310 C192,315.567 194.112,310 192,310  Z"/>

<path  fill="#FA8072" stroke-width="0" stroke="#FA8072" d = " M286 370 C286,370.974 281.781,372.937 281,374.5 279.909,376.683 281.145,381.789 282,383.5 282.748,384.995 281.523,386.453 281,387.5 277.867,393.766 285.306,395.403 288.5,397 L289,402.5 C290.031,404.563 293.572,401.464 294.5,401 L301.5,403 C303.378,402.061 298.701,391.9 304.5,389 306.038,388.231 308.371,390.242 309,391.5 310.305,394.109 306,394.759 306,396.5 L310.5,398 C313.187,399.343 319.464,396.572 321,393.5 324.034,387.432 313.932,384.432 311,381.5 304.671,375.171 306.056,380 302.5,380 301.962,380 301.903,372.701 300.5,372 294.475,368.988 295.904,372 291.5,372 289.905,372 288.245,370 286,370  Z"/>

<path  fill="#FA8072" stroke-width="0" stroke="#FA8072" d = " M195 373 L192,375.5 C190.944,377.611 190.961,382.77 188.5,384 183.116,386.692 180.27,383.959 177,390.5 175.748,393.005 170.734,393.969 173,398.5 176.777,406.053 185.925,393.712 190.5,396 192.519,397.01 196.919,401.662 199,397.5 L200.5,395 C204.749,395 206.152,406.674 211.5,404 222.655,398.423 212,393.401 212,391.5 212,387.504 218.526,383.551 216,378.5 214.974,376.449 206.486,372.007 204.5,373 L201.5,375 C199.721,375 197.579,373 195,373  Z"/>

</g>
</svg>
