<svg xmlns="http://www.w3.org/2000/svg" xmlns:xlink="http://www.w3.org/1999/xlink" height="512" width="512">
<g>
<rect width="512" height="512" fill="#000000"  stroke-width="0" /> 
<path  fill="#FFE300" stroke-width="0" stroke="#FFE300" d = " M239 157 C241.25,157 242.376,157 244,157 244,167.106 245.218,174.935 249,182.5 251.7,187.9 252.33,194.16 255,199.5 255,199.5 255,204.5 255,204.5 255,204.5 258,205.5 258,205.5 260.529,210.558 264.932,218.284 271.5,215 280.361,210.569 273.602,197.296 277,190.5 278.73,187.041 276.326,181.848 278,178.5 282.313,169.873 276.415,156.957 268.5,153 264.49,150.995 257.766,152 253,152 253,147.895 260.397,149.052 262.5,148 266.739,145.881 275.276,153 278.5,153 278.5,153 283,156.5 283,156.5 283,157.873 288,159.684 288,163.5 288,165.842 281.274,176.952 280,179.5 278.538,182.424 279.772,192.044 281,194.5 282.948,198.397 277.534,206.432 276,209.5 275.222,211.056 276.821,221.84 274.5,223 272.417,224.042 274.015,221.257 273.5,221 273.5,221 269.5,221 269.5,221 269.44,220.97 268.601,218.051 266.5,217 263.595,215.547 249.757,207.013 249,205.5 247.271,202.041 247.21,196.919 246,194.5 245.19,192.881 247,191.499 247,190.5 247,188.991 245.87,178 243.5,178 238.01,178 241.341,193.818 240,196.5 240,196.5 236.5,203 236.5,203 236.5,203 232,204.5 232,204.5 232,204.5 233,206.5 233,206.5 233,206.5 226.5,212 226.5,212 226.5,212 219.5,216 219.5,216 219.5,216 214,216.5 214,216.5 214,216.5 217,218.5 217,218.5 217,223.147 211.693,216 211.5,216 211.5,216 209,217.5 209,217.5 207.643,214.785 209.85,209.201 209,207.5 207.225,203.95 206.807,200.114 205,196.5 203.495,193.49 206.852,188.204 205,184.5 205,184.5 203,183.5 203,183.5 203,183.5 203,175.5 203,175.5 201.543,172.587 201,175.152 201,172.5 201,172.5 198,162.5 198,162.5 199.721,159.057 215.745,149 219.5,149 221.935,149 231,149.106 231,152 224.681,152 212.454,155.591 210,160.5 204.496,171.509 205.037,196.574 210,206.5 211.652,209.805 220.79,209.355 223.5,208 232.48,203.51 230.784,188.716 239,180.5 245.248,174.252 239,164.512 239,157  Z"/>

<path  fill="#FF8700" stroke-width="0" stroke="#FF8700" d = " M231 152 C233.516,152 239,152.36 239,157 239,164.512 245.248,174.252 239,180.5 230.784,188.716 232.48,203.51 223.5,208 220.79,209.355 211.652,209.805 210,206.5 205.037,196.574 204.496,171.509 210,160.5 212.454,155.591 224.681,152 231,152  Z"/>

<path  fill="#FF8700" stroke-width="0" stroke="#FF8700" d = " M253 152 C257.766,152 264.49,150.995 268.5,153 276.415,156.957 282.313,169.873 278,178.5 276.326,181.848 278.73,187.041 277,190.5 273.602,197.296 280.361,210.569 271.5,215 264.932,218.284 260.529,210.558 258,205.5 L255,204.5 L255,199.5 C252.33,194.16 251.7,187.9 249,182.5 245.218,174.935 244,167.106 244,157 244,155.839 250.111,152 253,152  Z"/>

<path  fill-rule="evenodd" fill="#FA8072" stroke-width="0" stroke="#FA8072" d = " M336 378 L335,379.5 C335,385.149 339.36,378 336,378  M327 352 C327,353.765 325.419,352.541 324.5,353 321.91,354.295 321.04,357.42 320,359.5 316.194,367.113 326,372.707 326,376.5 L321,380.5 L319.5,387 C317.942,387.779 309.457,385.414 313,392.5 315.746,397.992 320.387,390 320.5,390 L321,392.5 C322.295,395.09 325.42,395.96 327.5,397 331.719,399.109 334.805,391 336.5,391 337.506,391 339.027,397.446 340,395.5 L340,383 C340,377.51 338.608,379.716 338,378.5 334.038,370.575 342.475,352 327,352  Z"/>

<path  fill="#FA8072" stroke-width="0" stroke="#FA8072" d = " M162 356 L156,360.5 L158,366.5 C156.69,369.119 152.919,369.662 152,371.5 150.203,375.094 151.362,381.224 153,384.5 153.658,385.817 149.594,389.688 151,392.5 152.58,395.659 169.859,398.32 170.5,398 L176.5,394 C183.662,390.419 175,385.723 175,383 175,370.448 177.864,356 162,356  Z"/>

<path  fill="#FA8072" stroke-width="0" stroke="#FA8072" d = " M315 373 C315,374.298 311.437,376.373 313,379.5 315.974,385.447 326.544,373 315,373  Z"/>

<path  fill="#FA8072" stroke-width="0" stroke="#FA8072" d = " M343 387 C343,388.93 344.93,387 343,387  Z"/>

</g>
</svg>
