<svg xmlns="http://www.w3.org/2000/svg" xmlns:xlink="http://www.w3.org/1999/xlink" height="512" width="512">
<g>
<rect width="512" height="512" fill="#000000"  stroke-width="0" /> 
<path  fill="#FFE300" stroke-width="0" stroke="#FFE300" d = " M204 144 L224.5,143 C228.338,144.919 230.293,148 235,148 235,137.296 204,138.018 204,144  Z"/>

<path  fill="#FFE300" stroke-width="0" stroke="#FFE300" d = " M259 146 L263.5,143 L283.5,143 C286.879,144.69 290.014,149 294,149 294,146.058 287.282,144.891 285.5,144 285.5,144 282.5,141 282.5,141 278.786,139.143 260.017,139.465 258,143.5 258,143.5 259,146 259,146  Z"/>

<path  fill="#FF8700" stroke-width="0" stroke="#FF8700" d = " M180 227 C180,230.576 182.515,232.53 184,235.5 185.763,239.025 185.276,244.053 187,247.5 190.511,254.522 201.01,266 210,266 212.839,266 215.08,263.21 217.5,262 225.658,257.921 227.894,253.713 232,245.5 232,245.5 233,233.5 233,233.5 234.262,230.976 233.283,226.935 234,225.5 238.889,215.721 238,207.35 238,196.5 238,195.112 240.014,192.528 239,190.5 239,190.5 234,186.5 234,186.5 233.751,186.001 235,179.564 235,178 235,178 234,169.5 234,169.5 235.401,166.698 238.034,165.432 239,163.5 239.95,161.601 234,152.862 234,152.5 234,152.5 235,150 235,150 235,150 235,148 235,148 230.293,148 228.338,144.919 224.5,143 224.5,143 204,144 204,144 204,144 207,145.5 207,145.5 207,145.5 203.5,146 203.5,146 200.473,147.513 197.466,149.517 194.5,151 192.696,151.902 183.356,168.789 182,171.5 177.918,179.665 180.277,204.055 184,211.5 185.101,213.701 180,224.732 180,227  Z"/>

<path  fill="#FF8700" stroke-width="0" stroke="#FF8700" d = " M291 263 L282,268 C276.108,268 258.458,255.416 256,250.5 254.472,247.444 254.47,243.439 253,240.5 249.951,234.401 254.099,217.697 251,211.5 248.369,206.237 251.466,190.569 254,185.5 256.208,181.085 252.676,171.852 251,168.5 249.34,165.181 254,155.646 254,151 254,151 255,150 255,150 255,150 256,148 256,148 257.747,148 258,147.747 258,146 258,146 259,146 259,146 259,146 263.5,143 263.5,143 263.5,143 283.5,143 283.5,143 286.879,144.69 290.014,149 294,149 294,149 295,149 295,149 295,152.88 301.531,154.561 303,157.5 303,157.5 309,170.5 309,170.5 310.321,173.142 312.674,195.151 311,198.5 311,198.5 309,200.5 309,200.5 309,208.612 309,218.366 309,227 309,230.034 307.218,231.065 306,233.5 306,233.5 306,240.5 306,240.5 304.02,244.46 301.95,248.599 300,252.5 300,252.5 294,259 294,259 290.505,259 291,261.189 291,263  Z"/>

<path  fill="#FFE300" stroke-width="0" stroke="#FFE300" d = " M204 144 C196.68,144 190.88,150.74 188,156.5 186.194,160.112 179.394,167.712 178,170.5 173.308,179.885 175,189.101 175,199 L177,220 C177,221.885 178.402,227 180,227 180,224.732 185.101,213.701 184,211.5 180.277,204.055 177.918,179.665 182,171.5 183.356,168.789 192.696,151.902 194.5,151 197.466,149.517 200.473,147.513 203.5,146 203.5,146 207,145.5 207,145.5 207,145.5 204,144 204,144  Z"/>

<path  fill="#FFE300" stroke-width="0" stroke="#FFE300" d = " M258 146 L256,148 C257.747,148 258,147.747 258,146  Z"/>

<path  fill="#FFE300" stroke-width="0" stroke="#FFE300" d = " M295 149 C300.695,149 300.649,153.574 301.5,154 312.842,159.671 321.122,193.256 314,207.5 312.529,210.443 312.735,227 309,227 309,218.366 309,208.612 309,200.5 309,200.5 311,198.5 311,198.5 312.674,195.151 310.321,173.142 309,170.5 309,170.5 303,157.5 303,157.5 301.531,154.561 295,152.88 295,149  Z"/>

<path  fill="#FFE300" stroke-width="0" stroke="#FFE300" d = " M210 266 C210,269.296 223.798,266.851 225.5,266 226.08,265.71 227.302,261.099 229.5,260 233.187,258.157 240.201,256.097 242,252.5 244.222,248.057 237.566,235.467 242.5,233 245.689,231.406 244.356,243.212 245,244.5 246.229,246.958 245.794,250.087 247,252.5 L255,258.5 L258.5,263 L262.5,263 L275.5,272 C278.945,273.723 287.753,268 282,268 276.108,268 258.458,255.416 256,250.5 254.472,247.444 254.47,243.439 253,240.5 249.951,234.401 254.099,217.697 251,211.5 248.369,206.237 251.466,190.569 254,185.5 256.208,181.085 252.676,171.852 251,168.5 249.34,165.181 254,155.646 254,151 250.673,151 251.795,154.911 251,156.5 251,156.5 248,159.5 248,159.5 246.658,162.185 249.854,169.792 248,173.5 248,173.5 243.5,175 243.5,175 238.566,172.533 242,164.468 242,161.5 242,161.5 240,159.5 240,159.5 239.07,157.64 236.825,150 235,150 235,150 234,152.5 234,152.5 234,152.862 239.95,161.601 239,163.5 238.034,165.432 235.401,166.698 234,169.5 234,169.5 235,178 235,178 235,179.564 233.751,186.001 234,186.5 234,186.5 239,190.5 239,190.5 240.014,192.528 238,195.112 238,196.5 238,207.35 238.889,215.721 234,225.5 233.283,226.935 234.262,230.976 233,233.5 233,233.5 232,245.5 232,245.5 227.894,253.713 225.658,257.921 217.5,262 215.08,263.21 212.839,266 210,266  Z"/>

<path  fill="#FFE300" stroke-width="0" stroke="#FFE300" d = " M255 150 L254,151 C254,151 255,150 255,150  Z"/>

<path  fill="#FFE300" stroke-width="0" stroke="#FFE300" d = " M294 259 C290.505,259 291,261.189 291,263 292.712,263 294,260.429 294,259  Z"/>

<path  fill="#30DA00" stroke-width="0" stroke="#30DA00" d = " M373 261 C373,263.064 369.647,261.426 368.5,262 L361.5,266 C358.895,267.303 353.914,274.328 356,278.5 L356.5,281 C358.457,281.978 363.794,277.853 365.5,277 L370.5,276 C378.798,271.851 389.267,261 373,261  Z"/>

<path  fill="#30DA00" stroke-width="0" stroke="#30DA00" d = " M119 271 C119,273.064 115.647,271.426 114.5,272 L114,281.5 C115.866,285.233 140.079,295.342 143,289.5 146.9,281.701 126.114,271 119,271  Z"/>

<path  fill="#FA8072" stroke-width="0" stroke="#FA8072" d = " M192 293 L192.5,302 C193.09,302 193.854,293 192,293  Z"/>

<path  fill="#FA8072" stroke-width="0" stroke="#FA8072" d = " M296 366 L289.5,371 L288.5,376 C285.101,377.7 277.893,380.287 281,386.5 282.69,389.881 285.98,389.74 288.5,391 291.371,392.435 292.193,400.154 298.5,397 L302.5,392 C302.559,392 302.47,396.985 304.5,398 306.405,398.953 307.217,396.642 308.5,396 312.445,394.028 315.84,396.83 319.5,395 324.729,392.385 324.598,380.549 319.5,378 315.996,376.248 312.427,373.964 308.5,372 308.381,371.941 309.251,367.375 306.5,366 305.91,365.705 298.203,366 296,366  Z"/>

<path  fill-rule="evenodd" fill="#FA8072" stroke-width="0" stroke="#FA8072" d = " M196 384 C196,385.93 197.93,384 196,384  M192 384 C192,385.93 193.93,384 192,384  M190 369 C190,370.788 175.714,383.393 174.5,384 L169.5,390 C167.75,390.875 165.125,391.25 164,393.5 162.776,395.948 165.558,403 168.5,403 174.941,403 173.461,397.02 175.5,396 178.017,394.742 179.736,398 181.5,398 L184.5,396 L186.5,398 C190.588,400.044 193.872,396.814 197.5,395 199.5,394 198.264,389 200.5,389 205.001,389 213.943,379 200.5,379 L200,373.5 C198.434,370.369 192.837,369 190,369  Z"/>

</g>
</svg>
