<svg xmlns="http://www.w3.org/2000/svg" xmlns:xlink="http://www.w3.org/1999/xlink" height="512" width="512">
<g>
<rect width="512" height="512" fill="#000000"  stroke-width="0" /> 
<path  fill-rule="evenodd" fill="#FFFF00" stroke-width="0" stroke="#FFFF00" d = " M399 174 C399,175.099 392.817,178.867 392,180.5 L390,187.5 C388.223,191.054 390,194.268 390,197.5 390,201.872 387.582,203.041 391.5,205 L393.5,212 C405.532,212 404,200.074 404,191 404,187.047 405.043,180 402.5,180 401.627,180 402.605,174 399,174  M195 119 C195,119.102 190.054,126 192.5,126 194.259,126 197.678,119 195,119  M290 117 C290,118.93 291.93,117 290,117  M216 84 C216,86.0912 219.746,84 216,84  M105 217 L107,217 C107,216.952 110.33,211.84 111,210.5 112.614,207.272 109.297,199.093 108,196.5 104.789,190.077 108.861,172.222 105,164.5 105,164.5 99.5,165 99.5,165 95.7123,166.894 93.5504,169.601 91,164.5 90.3122,163.124 93.9652,156.535 95,155.5 95,155.5 98.5,152 98.5,152 98.5,152 101,152.5 101,152.5 102.368,149.764 108.815,138 113.5,138 115.189,138 115,141.011 115,142 115,142 116,155.5 116,155.5 117.456,158.413 119.614,160.729 121,163.5 122.238,165.975 117.939,180.378 120,184.5 121.595,187.691 119.46,192.42 121,195.5 122.317,198.134 124.808,197.117 126,199.5 128.883,205.267 127.919,208.791 135.5,205 143.836,200.832 149.332,188.163 145,179.5 143.331,176.162 137.989,177.479 136,173.5 135.163,171.826 136.564,147.373 137,146.5 137.881,144.739 140.246,141.993 139,139.5 136.919,135.338 132.82,134.14 131,130.5 128.631,125.761 145.294,118 145.5,118 145.5,118 147.5,119 147.5,119 148.637,118.431 148.9,115.7 151.5,117 152.972,117.736 157.225,120.05 156,122.5 154.15,126.201 150.798,128.904 149,132.5 147.574,135.352 151.683,152.867 153,155.5 154.109,157.718 151.488,172.006 157.5,169 176.388,159.556 161.792,141.915 169,127.5 169,127.5 169,123.5 169,123.5 172.301,116.898 183.696,112.804 190,106.5 192.904,103.596 199.455,86.4773 204.5,89 207.799,90.6495 202,95.4396 202,95.5 202,97.1656 192.789,116.855 190.5,118 189.215,118.643 182.477,121.547 182,122.5 180.658,125.184 175.124,129.748 177,133.5 178.245,135.989 182.465,145.57 181,148.5 178.304,153.893 175.671,159.158 173,164.5 171.357,167.787 171.694,172.111 170,175.5 169.138,177.223 167.562,189 171.5,189 180.66,189 181.892,179.715 185,173.5 188.559,166.383 192.461,159.579 196,152.5 199.862,144.776 198.071,134.357 202,126.5 202.725,125.051 208.587,117.456 209.5,117 209.5,117 212.5,117 212.5,117 215.153,115.673 218.21,111.645 221.5,110 224.274,108.613 226.168,110 228.5,110 228.5,110 237.5,106 237.5,106 240.543,104.478 253.861,110 256.5,110 268.644,110 280.48,117.46 286,128.5 286,128.5 288,128.5 288,128.5 290.854,134.208 287.635,149.771 292,158.5 294.826,164.152 305.242,190.129 313.5,186 316.904,184.298 316.392,170.285 315,167.5 312.398,162.296 308.658,157.816 306,152.5 303.756,148.013 308.647,132.793 307,129.5 305.109,125.718 305,127.105 305,123.5 305,119.474 299.801,113.101 298,109.5 297.526,108.552 296.779,105 298.5,105 298.5,105 299.5,109 299.5,109 301.27,109 298.634,106.567 301.5,108 304.179,109.34 307.429,106.965 309.5,108 309.5,108 312.5,112 312.5,112 312.5,112 313.5,110 313.5,110 314.045,109.728 320.64,112.78 321,113.5 323.383,118.265 320.528,118.443 319,121.5 318.361,122.779 320.068,126.363 319,128.5 317.618,131.265 316.921,151.341 318,153.5 318,153.5 321,154.5 321,154.5 323.303,159.105 321.15,160.325 326.5,163 326.5,163 330,161.5 330,161.5 330,161.5 330,154.5 330,154.5 330,154.5 333,151.5 333,151.5 333,151.5 335,137.5 335,137.5 333.621,134.742 336.274,133.048 335,130.5 335,130.5 333,129.5 333,129.5 331.129,125.758 333.651,117 337.5,117 338.315,117 347.74,118.981 348,119.5 348,119.5 348.5,123 348.5,123 348.991,123.246 353.453,121.477 356.5,123 357.326,123.413 359.114,130 357.5,130 357.5,130 356.5,128 356.5,128 356.5,128 355.5,131 355.5,131 352.489,132.505 349.111,131.278 347,135.5 344.688,140.124 353.815,156.869 350,164.5 350,164.5 338,173.5 338,173.5 333.834,181.832 337.788,193.144 347.5,198 353.693,201.096 353.719,191.89 357.5,190 373.099,182.2 363,165.278 363,152.5 363,149.567 366.76,147.981 368,145.5 369.539,142.422 369,138.193 369,134.5 369,134.5 369.5,131 369.5,131 374.47,131 385.61,141.72 388,146.5 388.787,148.073 395.58,151.34 394,154.5 394,154.5 390.5,154 390.5,154 387.933,154 379.862,148.777 378,152.5 374.867,158.766 381.241,165.018 378,171.5 376.172,175.155 372.335,202.169 374,205.5 374.714,206.928 379,212.532 379,213 379,213 381,214 381,214 381,214 384,214 384,214 384,214 388,213 388,213 388,213 390,212 390,212 391.781,212 394.527,212 397.5,212 397.5,212 398.5,214 398.5,214 398.5,214 403.5,208 403.5,208 403.5,208 405.5,210 405.5,210 405.5,210 406.5,207 406.5,207 406.5,207 408,206.5 408,206.5 409.911,202.678 407.586,190.673 406,187.5 406,187.5 405,172.5 405,172.5 404.186,170.871 403.769,169.037 403,167.5 403,167.5 401,167.5 401,167.5 401,167.5 400,154.5 400,154.5 400,154.5 398,154.5 398,154.5 394.891,148.282 389.761,136 383.5,136 383.5,136 382.5,132 382.5,132 382.5,132 380.5,133 380.5,133 380.5,133 379.5,130 379.5,130 379.5,130 369.5,124 369.5,124 367.216,124 366.744,126.622 363.5,125 363.5,125 361.5,120 361.5,120 358.965,118.732 352.885,119.193 352.5,119 352.5,119 347.5,114 347.5,114 342.706,111.603 335.042,113 330.5,113 330.5,113 327.5,110 327.5,110 327.5,110 319.5,109 319.5,109 317.149,107.825 313.457,105.479 310.5,104 310.186,103.843 310.917,101 308.5,101 307.134,101 304.866,103 303.5,103 303.5,103 299.5,99 299.5,99 299.5,99 291.5,95 291.5,95 291.5,95 287.5,95 287.5,95 287.5,95 286.5,92 286.5,92 286.484,92 281,94.4321 281,92.5 281,92.5 284,91.5 284,91.5 284,91.5 273.5,91 273.5,91 273.5,91 276,93.5 276,93.5 276,96.3258 271,97.2342 271,97.5 271,97.5 274.5,98 274.5,98 274.5,98 275.5,100 275.5,100 275.5,100 276.5,98 276.5,98 277.991,98 277.167,101.333 278.5,102 280.82,103.16 285.181,105 285.5,105 288.043,105 287.237,109.974 288,111.5 288,111.5 291,112.5 291,112.5 291,112.5 290.5,116 290.5,116 288.043,117.229 280.142,110.321 277.5,109 268.03,104.265 251.801,101 240.5,101 237.112,101 224.032,101.734 221.5,103 221.5,103 214.5,106 214.5,106 214.5,106 213.5,108 213.5,108 213.5,108 211.5,106 211.5,106 207.521,107.989 205.055,113.223 201.5,115 201.5,115 197.5,120 197.5,120 195.708,120 197.93,116.639 198,116.5 198.969,114.561 201.32,112.86 202,111.5 203.407,108.685 206.658,102.421 209.5,101 209.5,101 211.5,97 211.5,97 213.244,97 216.309,92.0956 216.5,92 220.232,90.1342 235.023,95.5459 230,85.5 229.142,83.7844 220,84.1885 220,83.5 220,83.5 229,82.5 229,82.5 229,82.5 226.5,82 226.5,82 226.5,82 224.5,81 224.5,81 224.5,81 216,82 216,82 210.398,82 199.511,81.4784 197,86.5 191.84,96.8207 189.64,105.93 179.5,111 179.5,111 177.5,113 177.5,113 174.215,113 169.346,116 167.5,116 167.5,116 163.5,120 163.5,120 163.5,120 162.5,113 162.5,113 160.973,112.237 158.22,113 157.5,113 150.906,113 145.795,111.852 139.5,115 139.5,115 137.5,118 137.5,118 129.957,121.771 122.179,130 114.5,130 114.5,130 107.5,137 107.5,137 105.444,138.028 104,135 102.5,135 99.9644,135 100.532,139.436 100,140.5 100,140.5 97,142.5 97,142.5 97,142.5 96.5,145 96.5,145 96.5,145 95,144.5 95,144.5 95,144.5 95,149.5 95,149.5 95,149.5 92,150.5 92,150.5 92,150.5 92,154.5 92,154.5 86.9225,164.655 86.3954,173.709 81,184.5 79.284,187.932 79.448,194.604 77,199.5 74.8058,203.888 83.0399,213 87,213 87,208.783 82.1853,208.871 81,206.5 79.1093,202.719 81.4697,191.561 83,188.5 84.9237,184.653 90,191.85 90,194 90,199.102 94,204.232 94,209.5 94,210.13 92,210.188 92,212 96.2002,212 99.1776,218 104,218 104,218 105,217 105,217  Z"/>

<path  fill="#FFFF00" stroke-width="0" stroke="#FFFF00" d = " M231 85 C231,88.8071 236.395,85 231,85  Z"/>

<path  fill="#FFFF00" stroke-width="0" stroke="#FFFF00" d = " M242 87 C242,89.4565 234,86.8331 234,88.5 L243.5,90 C245.72,91.11 238.28,90.89 240.5,92 243.256,93.3779 256.033,91.5651 254,87.5 L242,87  Z"/>

<path  fill-rule="evenodd" fill="#00FFFF" stroke-width="0" stroke="#00FFFF" d = " M426 236 C426,239.746 428.091,236 426,236  M246 172 C246,174.207 240.824,172.338 239.5,173 234.439,175.53 213.234,177.033 211,181.5 207.667,188.165 216.724,193.112 220.5,195 224.859,197.179 238.514,195.993 242.5,194 244.528,192.986 247.112,195 248.5,195 252.458,195 268.293,193.603 271.5,192 286.545,184.477 270.752,173 261.5,173 L246,172  M245 154 C245,155.644 233,154.77 233,161.5 233,164.075 238.48,162 239,162 244.681,162 249.815,161.342 254.5,159 257.546,157.477 252.007,154 250,154 L245,154  M273 136 C273,141.567 275.112,136 273,136  M243 134 C243,138.365 246.479,134 243,134  M240 131 C240,134.746 242.091,131 240,131  M237 131 C237,137.303 240.119,131 237,131  M261 127 L260,129.5 L267,129.5 C267.389,128.722 263.662,127 261,127  M257 125 C257,127.091 260.746,125 257,125  M253 125 C253,127.002 246,127.367 246,129.5 L251,130.5 C251,131.866 245,129.829 245,132.5 245,135.14 251.958,140.771 255.5,139 L256.5,137 C257.151,137 258.151,139.198 259,137.5 L259.5,133 L260.5,137 C261.261,137.38 265.152,137 267,137 L272,136.5 C272,133.245 266.053,131 262.5,131 L256,130.5 L259,129.5 C259.747,128.006 254.851,125 253,125  M343 240 C346.982,240 351.05,242 354,242 354,240.291 357.07,239.285 358.5,240 358.5,240 377.5,248 377.5,248 377.5,248 386.5,250 386.5,250 386.5,250 392.5,248 392.5,248 395.409,249.455 395.711,255.605 398.5,257 401.529,258.514 406.754,252.627 411.5,255 412.989,255.744 419.462,268.576 418,271.5 417.723,272.054 415.736,280 417.5,280 417.5,280 418,274.5 418,274.5 419.726,271.048 422,274.105 422,269 422,269 422.5,263 422.5,263 422.5,263 424.5,267 424.5,267 425.614,267 431.974,270.763 433.5,270 433.5,270 434,261.5 434,261.5 435.555,258.391 442.664,259.918 444.5,259 446.792,257.854 446.689,248 443.5,248 438.906,248 434.304,252.598 429.5,255 425.469,257.015 415.794,254.913 419,248.5 420.977,244.547 438,247.055 438,240.5 438,236.387 430.914,239.329 430,237.5 427.745,232.991 440.81,225.655 433.5,222 422.81,216.655 423.382,245.941 407.5,238 403.564,236.032 418.089,226.678 417,224.5 416.084,222.668 409.673,225 408,225 408,226.368 401.116,228.808 399.5,228 396.445,226.472 392.403,218.049 386.5,221 377.503,225.499 395.492,231.004 389.5,234 385.697,235.901 372.086,231.672 370,227.5 368.578,224.656 371.37,223.759 372,222.5 373.223,220.053 373.979,219 377,219 377,215.666 379,215.439 379,213 379,212.532 374.714,206.928 374,205.5 372.335,202.169 376.172,175.155 378,171.5 381.241,165.018 374.867,158.766 378,152.5 379.862,148.777 387.933,154 390.5,154 390.5,154 394,154.5 394,154.5 395.58,151.34 388.787,148.073 388,146.5 385.61,141.72 374.47,131 369.5,131 369.5,131 369,134.5 369,134.5 369,138.193 369.539,142.422 368,145.5 366.76,147.981 363,149.567 363,152.5 363,165.278 373.099,182.2 357.5,190 353.719,191.89 353.693,201.096 347.5,198 337.788,193.144 333.834,181.832 338,173.5 338,173.5 350,164.5 350,164.5 353.815,156.869 344.688,140.124 347,135.5 349.111,131.278 352.489,132.505 355.5,131 355.5,131 356.5,128 356.5,128 356.5,128 357.5,130 357.5,130 359.114,130 357.326,123.413 356.5,123 353.453,121.477 348.991,123.246 348.5,123 348.5,123 348,119.5 348,119.5 347.74,118.981 338.315,117 337.5,117 333.651,117 331.129,125.758 333,129.5 333,129.5 335,130.5 335,130.5 336.274,133.048 333.621,134.742 335,137.5 335,137.5 333,151.5 333,151.5 333,151.5 330,154.5 330,154.5 330,154.5 330,161.5 330,161.5 330,161.5 326.5,163 326.5,163 321.15,160.325 323.303,159.105 321,154.5 321,154.5 318,153.5 318,153.5 316.921,151.341 317.618,131.265 319,128.5 320.068,126.363 318.361,122.779 319,121.5 320.528,118.443 323.383,118.265 321,113.5 320.64,112.78 314.045,109.728 313.5,110 313.5,110 312.5,112 312.5,112 312.5,112 309.5,108 309.5,108 307.429,106.965 304.179,109.34 301.5,108 298.634,106.567 301.27,109 299.5,109 299.5,109 298.5,105 298.5,105 296.779,105 297.526,108.552 298,109.5 299.801,113.101 305,119.474 305,123.5 305,127.105 305.109,125.718 307,129.5 308.647,132.793 303.756,148.013 306,152.5 308.658,157.816 312.398,162.296 315,167.5 316.392,170.285 316.904,184.298 313.5,186 305.242,190.129 294.826,164.152 292,158.5 287.635,149.771 290.854,134.208 288,128.5 288,128.5 286,128.5 286,128.5 280.48,117.46 268.644,110 256.5,110 253.861,110 240.543,104.478 237.5,106 237.5,106 228.5,110 228.5,110 226.168,110 224.274,108.613 221.5,110 218.21,111.645 215.153,115.673 212.5,117 212.5,117 209.5,117 209.5,117 208.587,117.456 202.725,125.051 202,126.5 198.071,134.357 199.862,144.776 196,152.5 192.461,159.579 188.559,166.383 185,173.5 181.892,179.715 180.66,189 171.5,189 167.562,189 169.138,177.223 170,175.5 171.694,172.111 171.357,167.787 173,164.5 175.671,159.158 178.304,153.893 181,148.5 182.465,145.57 178.245,135.989 177,133.5 175.124,129.748 180.658,125.184 182,122.5 182.477,121.547 189.215,118.643 190.5,118 192.789,116.855 202,97.1656 202,95.5 202,95.4396 207.799,90.6495 204.5,89 199.455,86.4773 192.904,103.596 190,106.5 183.696,112.804 172.301,116.898 169,123.5 169,123.5 169,127.5 169,127.5 161.792,141.915 176.388,159.556 157.5,169 151.488,172.006 154.109,157.718 153,155.5 151.683,152.867 147.574,135.352 149,132.5 150.798,128.904 154.15,126.201 156,122.5 157.225,120.05 152.972,117.736 151.5,117 148.9,115.7 148.637,118.431 147.5,119 147.5,119 145.5,118 145.5,118 145.294,118 128.631,125.761 131,130.5 132.82,134.14 136.919,135.338 139,139.5 140.246,141.993 137.881,144.739 137,146.5 136.564,147.373 135.163,171.826 136,173.5 137.989,177.479 143.331,176.162 145,179.5 149.332,188.163 143.836,200.832 135.5,205 127.919,208.791 128.883,205.267 126,199.5 124.808,197.117 122.317,198.134 121,195.5 119.46,192.42 121.595,187.691 120,184.5 117.939,180.378 122.238,165.975 121,163.5 119.614,160.729 117.456,158.413 116,155.5 116,155.5 115,142 115,142 115,141.011 115.189,138 113.5,138 108.815,138 102.368,149.764 101,152.5 101,152.5 98.5,152 98.5,152 98.5,152 95,155.5 95,155.5 93.9652,156.535 90.3122,163.124 91,164.5 93.5504,169.601 95.7123,166.894 99.5,165 99.5,165 105,164.5 105,164.5 108.861,172.222 104.789,190.077 108,196.5 109.297,199.093 112.614,207.272 111,210.5 110.33,211.84 107,216.952 107,217 107,217 108,220 108,220 109.578,220 111.15,219.8 112,221.5 113.498,224.495 108.66,225.179 108,226.5 108,226.5 107.5,230 107.5,230 107.5,230 106.5,227 106.5,227 105.813,227 105.816,228 104.5,228 102.464,228 97.0822,235.291 92.5,233 86.7208,230.11 98.6223,225.745 97,222.5 94.8347,218.169 93.9641,221.232 91.5,220 91.5,220 90.5,218 90.5,218 88.1256,216.813 86.5201,221.49 85.5,222 81.7034,223.898 77.2325,224.134 73.5,226 70.1666,227.667 55,220.82 55,229.5 55,229.5 57,231.5 57,231.5 61.9156,241.331 86.1099,230.28 81,240.5 81,240.5 77,242.5 77,242.5 75.0774,246.345 72.7541,243.873 70.5,245 62.1366,249.182 55.4341,239.967 49.5,237 45.0703,234.785 42.5783,246.657 44,249.5 47.6829,256.866 59.6199,251.06 63.5,253 65.4155,253.958 70,255.6 70,258.5 70,260.4 69.8003,264.85 71.5,264 72.4414,263.529 78.8291,252.835 80.5,252 80.5,252 86.5,252 86.5,252 97.6975,246.401 111.323,246.588 122.5,241 124.674,239.913 133.032,235.766 135.5,237 139.633,239.066 134.05,245 132.5,245 127.906,245 115.376,251.562 108.5,255 103.685,257.407 96.2963,255.602 91.5,258 88.7866,259.357 84.7477,262 83.5,262 81.3733,262 78.223,268.946 79,270.5 80.3287,273.157 83.6281,274 84.5,274 85.357,274 86.8382,278.331 89.5,277 96.7354,273.382 103.752,267.374 110.5,264 112.71,262.895 118.78,267 120.5,267 123.916,267 123.829,255.842 125,253.5 125.86,251.78 129,252.383 129,254 132.643,254 141.239,241 142.5,241 142.5,241 145.5,242 145.5,242 145.5,242 149,239 149,239 149,236.17 160.649,221.075 166.5,224 169.635,225.567 169.395,227.895 171.5,230 171.5,230 176,236 176,236 176,236 177,236 177,236 177,231.875 181.479,231 185,231 185,231 186,230 186,230 186,230 189,230 189,230 189,230 190,229 190,229 190,226.482 197,226.482 197,229 197,229 200,229 200,229 200,229 202,229 202,229 204.198,229 210.466,226.483 211.5,227 211.5,227 212.5,230 212.5,230 212.5,230 215.5,226 215.5,226 215.5,226 222,226 222,226 222,223.66 226.533,222.016 228.5,223 229.59,223.545 235.498,239.001 241.5,236 245.913,233.794 250.441,234.529 255.5,232 255.5,232 259.5,222 259.5,222 262.311,220.594 266,223.253 266,226 266,226 268.5,227 268.5,227 268.5,227 269.5,225 269.5,225 269.5,225 278,230 278,230 278,226.627 288.291,232 289.5,232 294.77,232 303.052,230.776 307.5,233 307.5,233 311,235.5 311,235.5 311,235.5 311.5,238 311.5,238 311.5,238 314,236 314,236 314,224.387 337,222.097 337,239 339.25,239 340.376,239 342,239 342,239 343,240 343,240  Z"/>

<path  fill="#FFFF00" stroke-width="0" stroke="#FFFF00" d = " M243 93 C243,94.7472 249,94.1491 249,93.5 L243,93  Z"/>

<path  fill="#FFFF00" stroke-width="0" stroke="#FFFF00" d = " M253 125 C253,127.002 246,127.367 246,129.5 L251,130.5 C251,131.866 245,129.829 245,132.5 245,135.14 251.958,140.771 255.5,139 L256.5,137 C257.151,137 258.151,139.198 259,137.5 L259.5,133 L260.5,137 C261.261,137.38 265.152,137 267,137 L272,136.5 C272,133.245 266.053,131 262.5,131 L256,130.5 L259,129.5 C259.747,128.006 254.851,125 253,125  Z"/>

<path  fill="#FFFF00" stroke-width="0" stroke="#FFFF00" d = " M257 125 C257,127.091 260.746,125 257,125  Z"/>

<path  fill="#FFFF00" stroke-width="0" stroke="#FFFF00" d = " M261 127 L260,129.5 L267,129.5 C267.389,128.722 263.662,127 261,127  Z"/>

<path  fill="#FFFF00" stroke-width="0" stroke="#FFFF00" d = " M237 131 C237,137.303 240.119,131 237,131  Z"/>

<path  fill="#FFFF00" stroke-width="0" stroke="#FFFF00" d = " M240 131 C240,134.746 242.091,131 240,131  Z"/>

<path  fill="#FFFF00" stroke-width="0" stroke="#FFFF00" d = " M243 134 C243,138.365 246.479,134 243,134  Z"/>

<path  fill="#FFFF00" stroke-width="0" stroke="#FFFF00" d = " M273 136 C273,141.567 275.112,136 273,136  Z"/>

<path  fill="#FFFF00" stroke-width="0" stroke="#FFFF00" d = " M245 154 C245,155.644 233,154.77 233,161.5 233,164.075 238.48,162 239,162 244.681,162 249.815,161.342 254.5,159 257.546,157.477 252.007,154 250,154 L245,154  Z"/>

<path  fill="#FFFF00" stroke-width="0" stroke="#FFFF00" d = " M246 172 C246,174.207 240.824,172.338 239.5,173 234.439,175.53 213.234,177.033 211,181.5 207.667,188.165 216.724,193.112 220.5,195 224.859,197.179 238.514,195.993 242.5,194 244.528,192.986 247.112,195 248.5,195 252.458,195 268.293,193.603 271.5,192 286.545,184.477 270.752,173 261.5,173 L246,172  Z"/>

<path  fill="#00FFFF" stroke-width="0" stroke="#00FFFF" d = " M399 174 C399,175.099 392.817,178.867 392,180.5 L390,187.5 C388.223,191.054 390,194.268 390,197.5 390,201.872 387.582,203.041 391.5,205 L393.5,212 C405.532,212 404,200.074 404,191 404,187.047 405.043,180 402.5,180 401.627,180 402.605,174 399,174  Z"/>

<path  fill="#00FFFF" stroke-width="0" stroke="#00FFFF" d = " M92 212 C92,210.188 94,210.13 94,209.5 94,204.232 90,199.102 90,194 90,191.85 84.9237,184.653 83,188.5 81.4697,191.561 79.1093,202.719 81,206.5 82.1853,208.871 87,208.783 87,213 87,213 90,212 90,212 90,208.754 91,208.754 91,212 91,213.186 92,213.186 92,212  Z"/>

<path  fill="#FFFF00" stroke-width="0" stroke="#FFFF00" d = " M90 212 L91,212 C91,208.754 90,208.754 90,212  Z"/>

<path  fill="#00FFFF" stroke-width="0" stroke="#00FFFF" d = " M390 212 L388,213 C388,215.092 390,213.652 390,212  Z"/>

<path  fill="#FFFF00" stroke-width="0" stroke="#FFFF00" d = " M77 222 C74.1391,222 58.5791,220.96 56.5,222 53.4236,223.538 52.3569,225.786 51,228.5 50.4454,229.609 53.5823,234 50.5,234 49.5012,234 48.1191,232.19 46.5,233 43.9164,234.292 39.9698,249.44 41,251.5 L49,259.5 L46.5,260 L45.5,262 L44,260.5 C42.574,263.352 41.6799,270.09 45.5,272 50.6268,274.563 54.6964,273.402 59.5,271 L66.5,265 C68.5,266 67.2639,271 69.5,271 L70.5,269 C71.9383,269 74.0617,270 75.5,270 L84.5,279 C86.1008,279 88.7548,280 90.5,280 94.4222,280 99.6991,276 102.5,276 L109.5,267 L111.5,268 C112.866,268 115.134,266 116.5,266 117.543,266 119.37,270.565 122.5,269 124.019,268.24 129,256.924 129,254 129,252.383 125.86,251.78 125,253.5 123.829,255.842 123.916,267 120.5,267 118.78,267 112.71,262.895 110.5,264 103.752,267.374 96.7354,273.382 89.5,277 86.8382,278.331 85.357,274 84.5,274 83.6281,274 80.3287,273.157 79,270.5 78.223,268.946 81.3733,262 83.5,262 84.7477,262 88.7866,259.357 91.5,258 96.2963,255.602 103.685,257.407 108.5,255 115.376,251.562 127.906,245 132.5,245 134.05,245 139.633,239.066 135.5,237 133.032,235.766 124.674,239.913 122.5,241 111.323,246.588 97.6975,246.401 86.5,252 86.5,252 80.5,252 80.5,252 78.8291,252.835 72.4414,263.529 71.5,264 69.8003,264.85 70,260.4 70,258.5 70,255.6 65.4155,253.958 63.5,253 59.6199,251.06 47.6829,256.866 44,249.5 42.5783,246.657 45.0703,234.785 49.5,237 55.4341,239.967 62.1366,249.182 70.5,245 72.7541,243.873 75.0774,246.345 77,242.5 77,242.5 81,240.5 81,240.5 86.1099,230.28 61.9156,241.331 57,231.5 57,231.5 55,229.5 55,229.5 55,220.82 70.1666,227.667 73.5,226 77.2325,224.134 81.7034,223.898 85.5,222 86.5201,221.49 88.1256,216.813 90.5,218 90.5,218 91.5,220 91.5,220 93.9641,221.232 94.8347,218.169 97,222.5 98.6223,225.745 86.7208,230.11 92.5,233 97.0822,235.291 102.464,228 104.5,228 105.816,228 105.813,227 106.5,227 106.5,227 107.5,230 107.5,230 107.5,230 108,226.5 108,226.5 108.66,225.179 113.498,224.495 112,221.5 111.15,219.8 109.578,220 108,220 108,223.2 107.55,223 105.5,223 105.5,223 103.5,225 103.5,225 103.5,225 103,222.5 103,222.5 103,222.5 94.5,214 94.5,214 94.5,214 92.5,216 92.5,216 85.2907,216 82.2702,221 78,221 78,221 77,222 77,222  Z"/>

<path  fill="#00FFFF" stroke-width="0" stroke="#00FFFF" d = " M381 214 L384,214 C384,215.256 381,216.943 381,214  Z"/>

<path  fill="#46A515" stroke-width="0" stroke="#46A515" d = " M72 215 C72,216.384 68.8113,216.123 70,218.5 72.6085,223.717 80.6731,215 72,215  Z"/>

<path  fill-rule="evenodd" fill="#FFFF00" stroke-width="0" stroke="#FFFF00" d = " M378 224 C371.746,224 378,227.329 378,226 380.56,226 378,221.477 378,224  M377 219 C378.812,219 378.87,221 379.5,221 382.043,221 384.582,216 386.5,216 388.5,216 391.013,216 392.5,216 396.278,216 399.042,225 408,225 408,226.368 401.116,228.808 399.5,228 396.445,226.472 392.403,218.049 386.5,221 377.503,225.499 395.492,231.004 389.5,234 385.697,235.901 372.086,231.672 370,227.5 368.578,224.656 371.37,223.759 372,222.5 373.223,220.053 373.979,219 377,219  Z"/>

<path  fill="#46A515" stroke-width="0" stroke="#46A515" d = " M406 216 L404,219.5 C406.646,224.793 414.525,216 406,216  Z"/>

<path  fill="#00FFFF" stroke-width="0" stroke="#00FFFF" d = " M105 217 L104,218 C104,220.029 105,218.058 105,217  Z"/>

<path  fill-rule="evenodd" fill="#FFFF00" stroke-width="0" stroke="#FFFF00" d = " M424 277 C424,278.93 425.93,277 424,277  M430 273 C430,274.93 431.93,273 430,273  M405 259 C405,267.506 411.006,259 405,259  M411 269 L412,270 C412,272.984 415.528,276.443 414,279.5 410.066,287.368 403.973,290.445 400,282.5 398.911,280.321 408.486,276.528 409,275.5 413.284,266.933 405.367,270.765 407,267.5 408.77,263.959 411,265.519 411,269  M357 247 C359.587,247 384.857,259.179 392.5,263 394.757,264.128 400.669,263.838 402,266.5 403.016,268.533 397.187,272.156 395.5,273 391.9,274.8 388.051,270.275 385.5,269 383.706,268.103 374.196,263 373.5,263 L371.5,264 L370.5,262 L368.5,264 C366.322,264 363.569,255 361,255 361,270.599 364.141,261.82 372.5,266 377.999,268.749 385.558,272.529 392.5,276 393.998,276.749 395.572,288.536 400.5,291 400.5,291 403.5,290 403.5,290 413.513,290 407.695,286.903 413.5,284 415.14,283.18 417.964,284 421,284 421,284 423.5,282 423.5,282 423.5,282 424.5,284 424.5,284 424.5,284 425.5,281 425.5,281 426.762,281 431.406,282.687 433,279.5 433,279.5 433.5,273 433.5,273 433.5,273 439.5,272 439.5,272 441.92,270.79 441,267.589 441,266.5 441,265.691 447.063,263.375 448,261.5 451.443,254.615 444.977,239.454 442,233.5 442,233.5 439,233.5 439,233.5 439,228.714 442.951,223.726 435.5,220 430.548,217.524 408,220.064 408,225 409.673,225 416.084,222.668 417,224.5 418.089,226.678 403.564,236.032 407.5,238 423.382,245.941 422.81,216.655 433.5,222 440.81,225.655 427.745,232.991 430,237.5 430.914,239.329 438,236.387 438,240.5 438,247.055 420.977,244.547 419,248.5 415.794,254.913 425.469,257.015 429.5,255 434.304,252.598 438.906,248 443.5,248 446.689,248 446.792,257.854 444.5,259 442.664,259.918 435.555,258.391 434,261.5 434,261.5 433.5,270 433.5,270 431.974,270.763 425.614,267 424.5,267 424.5,267 422.5,263 422.5,263 422.5,263 422,269 422,269 422,274.105 419.726,271.048 418,274.5 418,274.5 417.5,280 417.5,280 415.736,280 417.723,272.054 418,271.5 419.462,268.576 412.989,255.744 411.5,255 406.754,252.627 401.529,258.514 398.5,257 395.711,255.605 395.409,249.455 392.5,248 392.5,248 386.5,250 386.5,250 386.5,250 377.5,248 377.5,248 377.5,248 358.5,240 358.5,240 357.07,239.285 354,240.291 354,242 354,245.151 357,244.703 357,247  Z"/>

<path  fill="#00FFFF" stroke-width="0" stroke="#00FFFF" d = " M78 221 L77,222 C77,222 78,221 78,221  Z"/>

<path  fill="#FFFF00" stroke-width="0" stroke="#FFFF00" d = " M222 226 C222,238.25 238.059,246.72 247.5,242 250.739,240.38 256.303,242.894 258,239.5 L267,231.5 C267,230.229 266,227.708 266,226 266,223.253 262.311,220.594 259.5,222 259.5,222 255.5,232 255.5,232 250.441,234.529 245.913,233.794 241.5,236 235.498,239.001 229.59,223.545 228.5,223 226.533,222.016 222,223.66 222,226  Z"/>

<path  fill="#34FF0D" stroke-width="0" stroke="#34FF0D" d = " M149 239 C149,248.572 152.648,256 162,256 169.635,256 176,243.237 176,236 176,236 171.5,230 171.5,230 169.395,227.895 169.635,225.567 166.5,224 160.649,221.075 149,236.17 149,239  Z"/>

<path  fill="#00FFFF" stroke-width="0" stroke="#00FFFF" d = " M378 224 C371.746,224 378,227.329 378,226 378,226 378,224 378,224  Z"/>

<path  fill="#34FF0D" stroke-width="0" stroke="#34FF0D" d = " M337 239 C337,241.409 338.277,240.055 339,241.5 L339,255.5 L337,256.5 C336.145,258.21 334.112,260.306 331.5,259 327.851,257.176 329.239,255 324,255 324,250.172 316.45,249.399 315,246.5 313.516,243.532 314,239.567 314,236 314,224.387 337,222.097 337,239  Z"/>

<path  fill-rule="evenodd" fill="#9953FF" stroke-width="0" stroke="#9953FF" d = " M170 259 C170,264.512 170.634,259 170,259  M241 341 L246,341 C248.078,341 251.954,340 253.5,340 255.276,340 260.859,343.821 264.5,342 267.027,340.737 268.892,340 272,340 276.019,340 282.97,338.765 286.5,337 286.5,337 302.5,336 302.5,336 311.223,331.638 319.338,330.162 327,322.5 331.56,317.94 338,316.43 338,309 338,309 335.5,312 335.5,312 334.615,312.443 327.989,316 327.5,316 326.219,316 319.772,315.956 322,311.5 322,311.5 325,309 325,309 325,306.874 317.411,305.322 316,302.5 312.499,295.497 315.438,287.375 315,286.5 312.807,282.115 306.049,281.598 302,273.5 298.933,267.366 309.429,269.035 311.5,268 311.797,267.851 310.789,264.644 313.5,266 316.777,267.639 318.348,274 322,274 322,271.223 318.169,269.838 317,267.5 315.873,265.247 318.886,258.193 322.5,260 324.119,260.809 323.971,262 326,262 326,259.167 324,257.16 324,255 324,250.172 316.45,249.399 315,246.5 313.516,243.532 314,239.567 314,236 314,236 311.5,238 311.5,238 311.5,238 311,235.5 311,235.5 311,235.5 307.5,233 307.5,233 303.052,230.776 294.77,232 289.5,232 288.291,232 278,226.627 278,230 278,230 278,231 278,231 278,233.144 282.262,231.381 283.5,232 283.547,232.024 286.647,236.793 287,237.5 287.545,238.589 287.251,244 285.5,244 285.5,244 283.5,242 283.5,242 281.533,242 280.664,247.173 280,248.5 278.811,250.879 271.081,256 268,256 268,256 270,258 270,258 271.263,258 271.57,263.36 271,264.5 271,264.5 267,267.5 267,267.5 266.405,268.691 268.17,274 265.5,274 260.911,274 259,267.761 259,264 257.288,264 256,261.429 256,260 254.717,260 248,261.985 248,259 248,259 240,259 240,259 240,261.658 234.176,260 233,260 233,260 230,264 230,264 230,274.205 221,273.152 221,263 221,261.209 217.73,260.041 219,257.5 220.014,255.471 222,255.229 222,253 218.848,253 218.461,257.48 215.5,256 211.627,254.063 210.785,247.143 208.5,246 206.169,244.835 202.741,246.12 200.5,245 198.415,243.957 202.986,232 207,232 207,228.353 202,233.036 202,229 202,229 200,229 200,229 200,230.486 197,230.486 197,229 197,226.482 190,226.482 190,229 190,229 189,230 189,230 189,235.182 186,233.205 186,230 186,230 185,231 185,231 185,236.699 180.345,236 177,236 177,236 176,236 176,236 176,243.237 169.635,256 162,256 162,257.974 160,259.517 160,262 162.279,262 165.418,260 167.5,260 167.606,260 169.434,264 171.5,264 172.18,264 178,261.208 178,264 178,266.545 188.141,267.218 186,271.5 183.405,276.689 178.623,281.255 176,286.5 176,286.5 170,291.5 170,291.5 170,293.896 172.188,302.124 171,304.5 169.554,307.393 163.685,304 162,304 162,304 169,312.5 169,312.5 172.213,318.926 156,317.358 156,313.5 156,310.465 151.608,311.715 150,308.5 149.206,306.912 147.531,297 146,297 146,297 146,298 146,298 146,311.664 149.104,314.302 160.5,320 160.5,320 173.5,333 173.5,333 181.73,337.115 191.231,337.865 199.5,342 202.85,343.675 210.258,339.879 212.5,341 212.5,341 216,343 216,343 216,343 218.5,341 218.5,341 219.673,340.413 238.448,341 241,341  Z"/>

<path  fill="#EB57FF" stroke-width="0" stroke="#EB57FF" d = " M240 259 C240,261.658 234.176,260 233,260 233,260 232,259 232,259 232,259 231,258 231,258 231,256.438 228.811,253 227,253 227,251.434 222,251.434 222,253 218.848,253 218.461,257.48 215.5,256 211.627,254.063 210.785,247.143 208.5,246 206.169,244.835 202.741,246.12 200.5,245 198.415,243.957 202.986,232 207,232 210.332,232 216.627,232.754 218,235.5 219.237,237.973 221.086,240.672 222,242.5 222,242.5 222.5,247 222.5,247 229.95,247 240,250.203 240,259  Z"/>

<path  fill="#EB57FF" stroke-width="0" stroke="#EB57FF" d = " M257 259 L256,260 C254.717,260 248,261.985 248,259 248,256.066 249.875,251.312 252.5,250 252.5,250 260.5,248 260.5,248 264.709,245.895 268.705,234.897 270.5,234 270.5,234 275.5,233 275.5,233 276.945,232.277 275.591,231 278,231 278,233.144 282.262,231.381 283.5,232 283.547,232.024 286.647,236.793 287,237.5 287.545,238.589 287.251,244 285.5,244 285.5,244 283.5,242 283.5,242 281.533,242 280.664,247.173 280,248.5 278.811,250.879 271.081,256 268,256 268,253.727 262.774,254 261,254 261,254 260,255 260,255 260,255 259,256 259,256 259,256 259,257 259,257 259,257 257,259 257,259  Z"/>

<path  fill="#FFFF00" stroke-width="0" stroke="#FFFF00" d = " M426 236 C426,239.746 428.091,236 426,236  Z"/>

<path  fill="#9953FF" stroke-width="0" stroke="#9953FF" d = " M342 239 L343,240 C343,240 342,239 342,239  Z"/>

<path  fill="#00FFFF" stroke-width="0" stroke="#00FFFF" d = " M357 247 C359.587,247 384.857,259.179 392.5,263 394.757,264.128 400.669,263.838 402,266.5 403.016,268.533 397.187,272.156 395.5,273 391.9,274.8 388.051,270.275 385.5,269 383.706,268.103 374.196,263 373.5,263 L371.5,264 L370.5,262 L368.5,264 C366.322,264 363.569,255 361,255 358.936,255 360.574,251.647 360,250.5 360,250.5 357,247 357,247  Z"/>

<path  fill="#9953FF" stroke-width="0" stroke="#9953FF" d = " M222 253 L227,253 C227,251.434 222,251.434 222,253  Z"/>

<path  fill="#FAF4F7" stroke-width="0" stroke="#FAF4F7" d = " M221 263 C223.295,263 226.296,264 230,264 230,264 233,260 233,260 233,260 232,259 232,259 232,259 231,258 231,258 231,256.438 228.811,253 227,253 227,253 222,253 222,253 222,255.229 220.014,255.471 219,257.5 217.73,260.041 221,261.209 221,263  Z"/>

<path  fill="#9953FF" stroke-width="0" stroke="#9953FF" d = " M261 254 L260,255 C260,255 261,254 261,254  Z"/>

<path  fill="#FAF4F7" stroke-width="0" stroke="#FAF4F7" d = " M256 260 C256,261.429 257.288,264 259,264 261.004,264 269,262.651 269,259 269,259 270,258 270,258 270,258 268,256 268,256 268,253.727 262.774,254 261,254 261,254 260,255 260,255 260,255 259,256 259,256 259,256 259,257 259,257 259,258.747 258.747,259 257,259 257,259 256,260 256,260  Z"/>

<path  fill="#9953FF" stroke-width="0" stroke="#9953FF" d = " M260 255 L259,256 C259,256 260,255 260,255  Z"/>

<path  fill="#9953FF" stroke-width="0" stroke="#9953FF" d = " M259 257 L257,259 C258.747,259 259,258.747 259,257  Z"/>

<path  fill="#9953FF" stroke-width="0" stroke="#9953FF" d = " M231 258 L232,259 C232,259 231,258 231,258  Z"/>

<path  fill="#9953FF" stroke-width="0" stroke="#9953FF" d = " M270 258 L269,259 C269,259 270,258 270,258  Z"/>

<path  fill="#B31C35" stroke-width="0" stroke="#B31C35" d = " M269 259 C269,262.651 261.004,264 259,264 259,267.761 260.911,274 265.5,274 268.17,274 266.405,268.691 267,267.5 267,267.5 271,264.5 271,264.5 271.57,263.36 271.263,258 270,258 270,258 269,259 269,259  Z"/>

<path  fill="#FA8072" stroke-width="0" stroke="#FA8072" d = " M170 259 C170,264.512 170.634,259 170,259  Z"/>

<path  fill="#9953FF" stroke-width="0" stroke="#9953FF" d = " M257 259 L256,260 C256,260 257,259 257,259  Z"/>

<path  fill="#00FFFF" stroke-width="0" stroke="#00FFFF" d = " M405 259 C405,267.506 411.006,259 405,259  Z"/>

<path  fill="#FA8072" stroke-width="0" stroke="#FA8072" d = " M146 297 C147.531,297 149.206,306.912 150,308.5 151.608,311.715 156,310.465 156,313.5 156,317.358 172.213,318.926 169,312.5 L162,304 C162,298.475 154.076,295.348 158,287.5 158,287.5 168,270.5 168,270.5 168,270.5 173,266 173,266 168.729,266 170.893,265 174,265 174,265 178,264 178,264 178,261.208 172.18,264 171.5,264 169.434,264 167.606,260 167.5,260 165.418,260 162.279,262 160,262 160,262 152,270.5 152,270.5 152,270.5 152,275.5 152,275.5 147.678,284.145 146,286.368 146,296 146,296 146,297 146,297  Z"/>

<path  fill="#FA8072" stroke-width="0" stroke="#FA8072" d = " M325 309 L322,311.5 C319.772,315.956 326.219,316 327.5,316 327.989,316 334.615,312.443 335.5,312 L338,309 C342.347,309 340.001,303.498 341,301.5 341.886,299.728 346.569,298.637 345,295.5 341.9,289.3 332.853,262 326,262 323.971,262 324.119,260.809 322.5,260 318.886,258.193 315.873,265.247 317,267.5 318.169,269.838 322,271.223 322,274 322,281.206 336.019,285.461 328,301.5 327.229,303.042 327.535,309 325,309  Z"/>

<path  fill="#B31C35" stroke-width="0" stroke="#B31C35" d = " M221 263 C223.295,263 226.296,264 230,264 230,274.205 221,273.152 221,263  Z"/>

<path  fill="#5BF1FF" stroke-width="0" stroke="#5BF1FF" d = " M173 266 L168,270.5 L158,287.5 C154.076,295.348 162,298.475 162,304 163.685,304 169.554,307.393 171,304.5 172.188,302.124 170,293.896 170,291.5 170,291.5 176,286.5 176,286.5 178.623,281.255 183.405,276.689 186,271.5 188.141,267.218 178,266.545 178,264 178,264 174,265 174,265 174,265 173,266 173,266  Z"/>

<path  fill="#9953FF" stroke-width="0" stroke="#9953FF" d = " M174 265 C170.893,265 168.729,266 173,266 173,266 174,265 174,265  Z"/>

<path  fill="#00FFFF" stroke-width="0" stroke="#00FFFF" d = " M411 269 L412,270 C412,272.984 415.528,276.443 414,279.5 410.066,287.368 403.973,290.445 400,282.5 398.911,280.321 408.486,276.528 409,275.5 413.284,266.933 405.367,270.765 407,267.5 408.77,263.959 411,265.519 411,269  Z"/>

<path  fill="#5BF1FF" stroke-width="0" stroke="#5BF1FF" d = " M322 274 C318.348,274 316.777,267.639 313.5,266 310.789,264.644 311.797,267.851 311.5,268 309.429,269.035 298.933,267.366 302,273.5 306.049,281.598 312.807,282.115 315,286.5 315.438,287.375 312.499,295.497 316,302.5 317.411,305.322 325,306.874 325,309 327.535,309 327.229,303.042 328,301.5 336.019,285.461 322,281.206 322,274  Z"/>

<path  fill="#00FFFF" stroke-width="0" stroke="#00FFFF" d = " M424 277 C424,278.93 425.93,277 424,277  Z"/>

<path  fill="#46A515" stroke-width="0" stroke="#46A515" d = " M444 282 L443,285.5 C446.144,291.788 451.824,282 444,282  Z"/>

<path  fill="#46A515" stroke-width="0" stroke="#46A515" d = " M389 287 C389,290.427 377.613,287.443 376.5,288 372.794,289.853 370.821,291.858 369,295.5 366.043,301.414 374.503,302.501 377.5,304 L380.5,308 C381.698,308.599 388.394,310.553 389.5,310 L392.5,307 C395.765,305.368 401.05,308.225 403.5,307 409.172,304.164 397,297.493 397,296.5 L398,294.5 C397.149,292.798 391.071,287 389,287  Z"/>

<path  fill="#46A515" stroke-width="0" stroke="#46A515" d = " M103 288 L102,289.5 C102,291.73 105.558,290.529 106.5,291 107.849,291.675 112.926,298.287 115.5,297 116.304,296.598 113.192,289 111.5,289 109.363,289 106.394,288 103,288  Z"/>

<path  fill="#5BF1FF" stroke-width="0" stroke="#5BF1FF" d = " M146 297 L146,298 C144.601,298 144.601,296 146,296 146,296 146,297 146,297  Z"/>

<path  fill="#46A515" stroke-width="0" stroke="#46A515" d = " M84 300 C84,302.477 81.9891,302.522 81,304.5 80.1624,306.175 78.2557,318 82.5,318 L86,314.5 L83,312.5 L83,309.5 L87,307.5 C87.9421,305.616 85.9843,300 84,300  Z"/>

<path  fill="#46A515" stroke-width="0" stroke="#46A515" d = " M92 310 C92,313.595 89.8673,317.316 94.5,315 99.1048,312.698 96.8312,310 92,310  Z"/>

<path  fill="#46A515" stroke-width="0" stroke="#46A515" d = " M386 321 C386,328.238 348.506,320.512 355,333.5 360.381,344.263 380.259,352.12 392.5,346 395.278,344.611 397.784,342.358 400.5,341 L403,336.5 C409.904,322.691 396.797,321 386,321  Z"/>

<path  fill="#46A515" stroke-width="0" stroke="#46A515" d = " M105 328 L106,331.5 L103,332.5 L106.5,333 C108.924,334.212 113.708,341.084 117,334.5 118.173,332.154 110.536,331.573 110,330.5 108.594,327.688 108.826,328 105,328  Z"/>

<path  fill="#46A515" stroke-width="0" stroke="#46A515" d = " M97 333 C97,334.918 91.7018,334.096 91,335.5 89.0933,339.313 108.853,342.353 100.5,334 L97,333  Z"/>

<path  fill="#46A515" stroke-width="0" stroke="#46A515" d = " M86 338 C86,340.091 89.7458,338 86,338  Z"/>

<path  fill="#46A515" stroke-width="0" stroke="#46A515" d = " M89 340 C89,346.254 92.7844,340 89,340  Z"/>

<path  fill="#FF3427" stroke-width="0" stroke="#FF3427" d = " M272 340 C268.892,340 267.027,340.737 264.5,342 260.859,343.821 255.276,340 253.5,340 251.954,340 248.078,341 246,341 246,351.947 272,353.254 272,340  Z"/>

<path  fill="#FF3427" stroke-width="0" stroke="#FF3427" d = " M241 341 C238.448,341 219.673,340.413 218.5,341 L216,343 C216,351.767 241,355.217 241,341  Z"/>

<path  fill="#46A515" stroke-width="0" stroke="#46A515" d = " M125 345 C125,345.015 111.98,349.46 114,353.5 L119.5,354 C126.894,354 138.951,345 125,345  Z"/>

</g>
</svg>
