<svg xmlns="http://www.w3.org/2000/svg" xmlns:xlink="http://www.w3.org/1999/xlink" height="512" width="512">
<g>
<rect width="512" height="512" fill="#000000"  stroke-width="0" /> 
<path  fill="#03C12D" stroke-width="0" stroke="#03C12D" d = " M32 227 C32,224.56 30,219.912 30,217.5 L33,216.5 L30,215.5 C30,213.833 33,212.167 33,210.5 33,210.446 33.8133,198.873 34,198.5 L36,197.5 C36,179.955 42.9087,165.683 50,151.5 53.1531,145.194 63.3135,126.093 69.5,123 72.7939,121.353 76.2612,119.619 79.5,118 83.6664,115.917 85.6968,109 89.5,109 89.8087,109 88.0065,105 90.5,105 97.6402,105 113.944,92.278 122.5,88 132.854,82.8228 146.1,83.2002 156.5,78 158.736,76.8818 159.82,80.8402 161.5,80 164.3,78.6 165.996,75.7522 169.5,74 L176.5,74 C181.732,71.384 188.195,71.6525 193.5,69 195.699,67.9005 198.51,70 200,70 207.907,70 214.063,70.2814 221.5,74 223.524,75.0119 224.193,78.8463 226.5,80 L237.5,88 C239.546,86.9768 239.096,85.2022 239.5,85 248.771,80.3645 255.871,75.3147 264.5,71 270.198,68.1508 309.152,70.3259 314.5,73 L332.5,74 L335.5,77 L341.5,77 C342.546,77.5228 353.182,82 353.5,82 355.241,82 355.891,77.6954 358.5,79 360.907,80.2036 358.841,82.6704 359.5,83 L372.5,87 L376.5,91 L381.5,92 C385.543,94.0214 388.651,98.0757 392.5,100 L396.5,105 L401.5,105 C413.188,110.844 433.008,132.517 438,142.5 L439,149.5 L444,154.5 C447.839,162.177 447.144,171.788 451,179.5 451.696,180.892 450.156,192.812 452,196.5 453.673,199.845 457.045,211.41 455,215.5 453.944,217.612 455.003,220.495 454,222.5 452.375,225.749 449,225.992 449,230 447.656,230 447.117,231.735 446,229.5 446,229.5 445.5,226 445.5,226 444.7,226 444.788,229.144 442.5,228 434.334,223.917 423.508,222 415,222 415,222 414,222 414,222 414,217.977 415.01,203.52 413,199.5 410.443,194.385 406,184.831 406,178 406,178 405,177 405,177 405,171.337 399.069,169.637 397,165.5 395.848,163.195 396.204,159.907 395,157.5 395,157.5 392,155.5 392,155.5 382.852,137.205 366.543,130.022 348.5,121 348.5,121 344.5,121 344.5,121 338.162,117.831 330.799,117.15 324.5,114 318.908,111.204 306.004,113.752 300.5,111 293.752,107.626 285.196,108.348 278.5,105 278.5,105 274.5,101 274.5,101 273.939,100.719 267.973,103 267.5,103 265.039,103 265.101,107.299 264,109.5 263.044,111.412 262,125.501 262,128 262,128 261,133.5 261,133.5 261.935,135.37 268,137.484 268,138 258.513,138 255.788,147 254,147 254,147 253,146 253,146 250.226,146 246,140.51 246,138 246,138 245,137 245,137 245,137 245,136 245,136 245,136 244,135 244,135 244,133.737 238.64,133.43 237.5,134 234.409,135.546 235.304,145 229,145 229,145 228,145 228,145 225.873,145 220.939,144 217.5,144 217.5,144 215,142 215,142 215,142 214,142 214,142 214,140.838 222.311,137.121 219,130.5 215.372,123.244 214.389,116.277 211,109.5 210.575,108.651 209.755,103 208.5,103 197.321,103 200.607,106.446 191.5,111 186.449,113.525 170.122,113.689 167.5,115 160.788,118.356 154.104,121 146,121 146,121 144,122 144,122 144,122 140,124 140,124 140,124 138,124 138,124 138,124 137,125 137,125 137,125 136,125 136,125 136,125 135,126 135,126 135,126 124,132 124,132 124,132 123,133 123,133 123,133 122,134 122,134 122,134 120,134 120,134 117.774,134 116,135.774 116,138 112.969,138 100.695,152.109 99,155.5 97.8288,157.842 93.5277,160.445 92,163.5 83.4011,180.698 72,203.635 72,224 70.0569,224 68.6252,226 67.5,226 67.5,226 65.5,223 65.5,223 62.7175,221.609 60.8888,226.694 59.5,226 59.0142,225.757 41.2712,225.614 40.5,226 40.5,226 39.5,228 39.5,228 39.5,228 38.5,226 38.5,226 38.5,226 32,227 32,227  Z"/>

<path  fill-rule="evenodd" fill="#FF6E00" stroke-width="0" stroke="#FF6E00" d = " M391 163 C391,169.22 396.95,163 391,163  M382 152 C382,154.091 385.746,152 382,152  M397 281 L397,282 C397,286.632 400.099,280 402,280 402,274.389 408,271.709 408,266 408,262.13 407.814,255 412,255 412,245.196 414,234.611 414,223 414,223 414,222 414,222 414,217.977 415.01,203.52 413,199.5 410.443,194.385 406,184.831 406,178 406,178 405,177 405,177 405,171.337 399.069,169.637 397,165.5 395.848,163.195 396.204,159.907 395,157.5 395,157.5 392,155.5 392,155.5 382.852,137.205 366.543,130.022 348.5,121 348.5,121 344.5,121 344.5,121 338.162,117.831 330.799,117.15 324.5,114 318.908,111.204 306.004,113.752 300.5,111 293.752,107.626 285.196,108.348 278.5,105 278.5,105 274.5,101 274.5,101 273.939,100.719 267.973,103 267.5,103 265.039,103 265.101,107.299 264,109.5 263.044,111.412 262,125.501 262,128 262,128 261,133.5 261,133.5 261.935,135.37 268,137.484 268,138 271.033,138 283.536,139.982 285.5,139 285.5,139 294,136 294,136 294,136 295,135 295,135 295,135 297,134 297,134 297,134 298,133 298,133 298,133 304,131 304,131 304,130.006 309.757,127 311,127 311,127 312,126 312,126 318.679,126 328.993,122.747 335.5,126 340.339,128.419 352.908,135 358,135 358,135 359,136 359,136 359,136 361,136 361,136 361,136 362,137 362,137 362,137 368.5,142 368.5,142 374.872,145.186 396,168.288 396,175 397.821,175 399.118,179 397,179 397,184.145 403,189.386 403,195 405.109,195 405,197.535 405,199 405,204.374 409,210.491 409,216 409,216 410,218 410,218 410,218 410,228 410,228 410,229.406 410.714,235 409,235 409,235 409,239 409,239 409,239 409,241 409,241 409,241 409,246 409,246 409,246 409,249 409,249 409,249 407,250.5 407,250.5 405.775,252.949 406,262.501 406,265 406,265 405,266 405,266 405,266 402,276 402,276 402,276 401,277 401,277 401,277 400,279 400,279 400,280.577 398.238,281 397,281  Z"/>

<path  fill="#FF6E00" stroke-width="0" stroke="#FF6E00" d = " M98 290 L99,291 C99,294.191 87.3309,287.162 86,284.5 86,284.5 83,283 83,283 83,279.082 79.6841,274.868 78,271.5 77.4772,270.454 78.9515,268 77,268 77,265.775 75.2865,260.073 74,257.5 72.3387,254.177 72,229.45 72,224 72,203.635 83.4011,180.698 92,163.5 93.5277,160.445 97.8288,157.842 99,155.5 100.695,152.109 112.969,138 116,138 116,138 120,134 120,134 120,134 122,134 122,134 122,134 123,133 123,133 123,133 124,132 124,132 124,132 135,126 135,126 135,126 136,125 136,125 136,125 137,125 137,125 137,125 138,124 138,124 138,124 140,124 140,124 141.465,124 144,124.109 144,122 144,122 146,121 146,121 154.104,121 160.788,118.356 167.5,115 170.122,113.689 186.449,113.525 191.5,111 200.607,106.446 197.321,103 208.5,103 209.755,103 210.575,108.651 211,109.5 214.389,116.277 215.372,123.244 219,130.5 222.311,137.121 214,140.838 214,142 212.952,142 211,141.527 211,143 211,143 208,143 208,143 208,143 207,142 207,142 203.746,142 197.141,144.82 193.5,143 190.125,141.313 184.706,135 181,135 181,130.569 170.982,130.241 168.5,129 161.965,125.733 142.249,131.625 135.5,135 130.891,137.305 126.426,143 121,143 121,143 120,144 120,144 120,144 119,145 119,145 115.927,145 100,163.043 100,166 100,166 99,167 99,167 97.8141,167 97.8141,168 99,168 99,168 98,170 98,170 98,170 97,171 97,171 94.891,171 95,173.535 95,175 92.5394,175 93,178.378 93,180 93,180 92,181 92,181 92,181 92,182 92,182 90.4226,182 90,183.762 90,185 90,185 89,187 89,187 89,187 89,190 89,190 89,190 86,196 86,196 84.5271,196 85,197.952 85,199 85,201.368 79,212.206 79,216 77.8141,216 77.8141,217 79,217 79,220.883 77.7208,228.058 76,231.5 76,231.5 77,241.5 77,241.5 77,254.132 77.7852,265.07 83,275.5 85.9144,281.329 89.3113,289 97,289 97,289 98,290 98,290  Z"/>

<path  fill="#0E47E2" stroke-width="0" stroke="#0E47E2" d = " M335 297 C335,298.87 326,297.353 326,304 326,306.002 318.25,308 314.5,308 314.5,308 310,307.5 310,307.5 307.662,302.825 313,300.614 313,297 313,297 314,296 314,296 315.048,296 317,296.473 317,295 317,295 318,293 318,293 318,293 318,292 318,292 319.577,292 320,290.238 320,289 320,289 321,288 321,288 321,288 322,287 322,287 322,287 332,272 332,272 332,272 333,270 333,270 333,270 335,267 335,267 336.077,267 338,263.238 338,262 338,262 339,260 339,260 339,260 340,258 340,258 342.125,258 346,251.153 346,249 346,249 347,248 347,248 347,248 350,245 350,245 350,243.603 359.006,232.487 360,230.5 360,230.5 361,214.5 361,214.5 359.839,212.178 358,208.664 358,206 358,206 358,205 358,205 358,205 352,193 352,193 352,191.762 351.577,190 350,190 350,190 348,185 348,185 348,184.104 346,181.974 346,184 344.188,184 344.13,186 343.5,186 343.5,186 342.5,184 342.5,184 342.5,184 337.5,184 337.5,184 334.824,182.662 332.54,179.02 330.5,178 325.076,175.288 309.891,168.283 306,160.5 304.716,157.932 307,154.014 307,152 310.58,152 311.816,142.133 310,138.5 310,138.5 308,137.5 308,137.5 308,137.5 307.5,134 307.5,134 307.5,134 306.5,138 306.5,138 306.5,138 304,131 304,131 304,130.006 309.757,127 311,127 311,127 312,126 312,126 318.679,126 328.993,122.747 335.5,126 340.339,128.419 352.908,135 358,135 358,135 359,136 359,136 359,136 361,136 361,136 361,136 362,137 362,137 362,137 368.5,142 368.5,142 374.872,145.186 396,168.288 396,175 396,175 397,179 397,179 397,184.145 403,189.386 403,195 403,196.465 402.891,199 405,199 405,204.374 409,210.491 409,216 409,216 410,218 410,218 410,218 410,228 410,228 408.286,228 409,233.594 409,235 409,235 409,239 409,239 407.601,239 407.601,241 409,241 409,241 409,246 409,246 409,246 408,246 408,246 406.514,246 406.514,249 408,249 408,249 409,249 409,249 409,249 407,250.5 407,250.5 405.775,252.949 406,262.501 406,265 406,265 405,266 405,266 405,266 402,276 402,276 402,276 401,277 401,277 401,277 400,279 400,279 398.762,279 397,279.423 397,281 397,281 397,282 397,282 392.12,282 386.726,287.887 382.5,290 375.412,293.544 363.25,296 355,296 355,289.878 338.837,291.332 335.5,293 334.329,293.586 332.82,297 335,297  Z"/>

<path  fill="#0E47E2" stroke-width="0" stroke="#0E47E2" d = " M157 301 C160.498,301 159,306.878 159,308 160.071,308 172.339,313.823 174,310.5 177.932,302.635 165.154,297.807 163,293.5 162.153,291.805 159.779,285 160,285 160,285 159,283 159,283 153.874,283 149.823,270.145 148,266.5 146.365,263.23 142.779,262.057 141,258.5 140.271,257.041 137.703,250 136,250 136,251.186 135,251.186 135,250 132.362,250 135.333,248 137,248 137,248 137,247 137,247 130.15,247 129.58,240.66 127,235.5 127,235.5 125,235.5 125,235.5 123.772,233.045 125.509,223 123,223 121.601,223 121.601,221 123,221 124.088,221 124,217.701 124,217 122.814,217 122.814,216 124,216 124,210.156 132,204.965 132,200 130.814,200 130.814,199 132,199 132,199 133,198 133,198 133,195.921 136,194.813 136,192 136,192 137,191 137,191 137,191 138,189 138,189 138,189 140.5,186 140.5,186 140.5,186 146.5,187 146.5,187 146.5,187 152.5,182 152.5,182 152.5,182 157.5,181 157.5,181 159.616,179.942 157.644,178.428 158.5,178 158.5,178 164.5,177 164.5,177 164.5,177 164.5,175 164.5,175 167.463,173.519 179,167.348 179,164.5 179,164.5 178,162.5 178,162.5 179.302,159.895 181,163.493 181,157 177.706,157 171.451,148.599 174,143.5 174,143.5 177.5,147 177.5,147 177.5,147 179,138.5 179,138.5 179.554,137.392 181,138.88 181,135 181,130.569 170.982,130.241 168.5,129 161.965,125.733 142.249,131.625 135.5,135 130.891,137.305 126.426,143 121,143 121,143 120,144 120,144 120,144 119,145 119,145 115.927,145 100,163.043 100,166 100,166 99,167 99,167 99,167 99,168 99,168 99,168 98,170 98,170 98,170 97,171 97,171 97,172.465 97.109,175 95,175 95,176.424 94.6384,180 93,180 93,180 92,181 92,181 92,181 92,182 92,182 92,183.238 91.5774,185 90,185 90,185 89,187 89,187 90.4861,187 90.4861,190 89,190 89,190 86,196 86,196 86,197.048 86.4729,199 85,199 85,201.368 79,212.206 79,216 79,216 79,217 79,217 79,220.883 77.7208,228.058 76,231.5 76,231.5 77,241.5 77,241.5 77,254.132 77.7852,265.07 83,275.5 85.9144,281.329 89.3113,289 97,289 97,289 98,290 98,290 98,290 99,291 99,291 104.833,291 108.854,294.677 113.5,297 121.23,300.865 131.647,299.074 139.5,303 142.617,304.558 144.901,301 147,301 147,298.539 150.378,299 152,299 152,296.974 154,299.104 154,300 154,300 155,300 155,300 155,300 157,301 157,301  Z"/>

<path  fill="#DDD951" stroke-width="0" stroke="#DDD951" d = " M282 154 L283,154 C283,151.027 291.164,154.668 292.5,154 294.674,152.913 296.174,155 298.5,155 300.684,155 303.975,152 307,152 310.58,152 311.816,142.133 310,138.5 310,138.5 308,137.5 308,137.5 308,137.5 307.5,134 307.5,134 307.5,134 306.5,138 306.5,138 306.5,138 304,131 304,131 304,131 298,133 298,133 298,133 297,134 297,134 297,134 295,135 295,135 295,135 294,136 294,136 294,136 285.5,139 285.5,139 283.536,139.982 271.033,138 268,138 258.513,138 255.788,147 254,147 254,147 253,147 253,147 253,154.964 268.715,150.107 274.5,153 276.281,153.89 282,149.806 282,154  Z"/>

<path  fill="#022CFF" stroke-width="0" stroke="#022CFF" d = " M237 180 C237.999,180 249,185.429 249,180 249,180 251,179 251,179 251,179 251,177 251,177 241.631,177 250.681,159.91 254.5,158 261.649,154.426 273.664,154 282,154 282,149.806 276.281,153.89 274.5,153 268.715,150.107 253,154.964 253,147 253,147 253,146 253,146 250.226,146 246,140.51 246,138 246,138 245,137 245,137 245,137 245,136 245,136 245,136 244,135 244,135 244,133.737 238.64,133.43 237.5,134 234.409,135.546 235.304,145 229,145 229,145 229,146 229,146 229,148.153 228,150.722 228,153 228,153 229,155 229,155 229,155.956 249.854,171.323 238.5,177 238.5,177 235,174 235,174 235,174 235,176 235,176 235,177.24 237,177.576 237,180  Z"/>

<path  fill="#DDD951" stroke-width="0" stroke="#DDD951" d = " M205 158 L206,158 C206,158 207,157 207,157 207,155.049 209.454,156.523 210.5,156 215.614,153.443 221.827,153 228,153 228,150.722 229,148.153 229,146 229,146 228,145 228,145 225.873,145 220.939,144 217.5,144 217.5,144 215,142 215,142 215,145.126 212.811,143 211,143 211,143 208,143 208,143 208,143 207,142 207,142 203.746,142 197.141,144.82 193.5,143 190.125,141.313 184.706,135 181,135 181,138.88 179.554,137.392 179,138.5 179,138.5 177.5,147 177.5,147 177.5,147 174,143.5 174,143.5 171.451,148.599 177.706,157 181,157 181,157 193,158 193,158 195.264,158 205,157.06 205,158  Z"/>

<path  fill="#022CFF" stroke-width="0" stroke="#022CFF" d = " M346 242 C349.005,242 346.256,245 350,245 350,243.603 359.006,232.487 360,230.5 360,230.5 361,214.5 361,214.5 359.839,212.178 358,208.664 358,206 356.814,206 356.814,205 358,205 358,205 352,193 352,193 350.423,193 350,191.238 350,190 350,190 348,185 348,185 348,185 346,184 346,184 344.188,184 344.13,186 343.5,186 343.5,186 342.5,184 342.5,184 342.5,184 337.5,184 337.5,184 334.824,182.662 332.54,179.02 330.5,178 325.076,175.288 309.891,168.283 306,160.5 304.716,157.932 307,154.014 307,152 303.975,152 300.684,155 298.5,155 296.174,155 294.674,152.913 292.5,154 291.164,154.668 283,151.027 283,154 283,154 287.5,156 287.5,156 287.5,156 295.5,156 295.5,156 299.871,158.185 306,164.651 306,170 306,170 308,174 308,174 308,175.801 313.615,178 315,178 315,178 321.5,181 321.5,181 321.5,181 330.5,181 330.5,181 333.576,182.538 346,193.022 346,196 346,196 348,200 348,200 348,200 350,202 350,202 350,202 350,204 350,204 350,204 352,205 352,205 352,205 353,208 353,208 354.841,208 356.202,215 354,215 354,215 354,216 354,216 356.236,216 354.849,226 353,226 353,226 352,230 352,230 352,230 352,234 352,234 352,235.745 352.698,240 350,240 350,240 349,241 349,241 347.952,241 346,240.527 346,242  Z"/>

<path  fill="#022CFF" stroke-width="0" stroke="#022CFF" d = " M382 152 C382,154.091 385.746,152 382,152  Z"/>

<path  fill="#5600DD" stroke-width="0" stroke="#5600DD" d = " M235 173 L235,174 C235,174 238.5,177 238.5,177 249.854,171.323 229,155.956 229,155 229,155 221.5,154 221.5,154 216.798,156.351 212.76,157 207,157 207,157 206,158 206,158 206,158 205,158 205,158 201.709,158 197.492,160 194,160 194,160 187,164.5 187,164.5 185.912,166.677 187,169.902 187,172 192.263,172 196.181,170.16 200.5,168 200.5,168 207.5,168 207.5,168 207.5,168 208.5,166 208.5,166 212.656,166 217.442,168 222,168 222,168 223,169 223,169 226.969,169 235,169.413 235,173  Z"/>

<path  fill="#5600DD" stroke-width="0" stroke="#5600DD" d = " M256 174 L251,177 C241.631,177 250.681,159.91 254.5,158 261.649,154.426 273.664,154 282,154 282,154 283,154 283,154 283,154 287.5,156 287.5,156 287.5,156 295.5,156 295.5,156 299.871,158.185 306,164.651 306,170 306,170 300,171 300,171 298.119,171 293.324,167.912 291.5,167 285.146,163.823 256,162.795 256,174  Z"/>

<path  fill="#022CFF" stroke-width="0" stroke="#022CFF" d = " M134 242 L137,247 C130.15,247 129.58,240.66 127,235.5 127,235.5 125,235.5 125,235.5 123.772,233.045 125.509,223 123,223 123,223 123,221 123,221 124.088,221 124,217.701 124,217 124,217 124,216 124,216 124,210.156 132,204.965 132,200 132,200 132,199 132,199 132,199 133,198 133,198 133,195.921 136,194.813 136,192 136,192 137,191 137,191 137,191 138,189 138,189 138,189 140.5,186 140.5,186 140.5,186 146.5,187 146.5,187 146.5,187 152.5,182 152.5,182 152.5,182 157.5,181 157.5,181 159.616,179.942 157.644,178.428 158.5,178 158.5,178 164.5,177 164.5,177 164.5,177 164.5,175 164.5,175 167.463,173.519 179,167.348 179,164.5 179,164.5 178,162.5 178,162.5 179.302,159.895 181,163.493 181,157 181,157 193,158 193,158 193,158 194,160 194,160 194,160 187,164.5 187,164.5 185.912,166.677 187,169.902 187,172 184.592,172 187.987,173 189,173 189,173 189,174 189,174 189,174 188,174 188,174 188,174 184,175 184,175 180.985,175 165,179.99 165,182 165,182 164,182 164,182 164,180.514 161,180.514 161,182 156.496,182 160.327,184.087 156.5,186 156.5,186 151.5,186 151.5,186 151.5,186 150,189 150,189 150,189 149,190 149,190 147.762,190 146,190.423 146,192 146,192 145,192 145,192 145,192 143,193 143,193 143,195.798 137.661,195.179 136,198.5 132.593,205.315 131.362,214.776 129,219.5 125.91,225.68 131.219,232.939 133,236.5 133.619,237.738 131.856,242 134,242  Z"/>

<path  fill="#E1970F" stroke-width="0" stroke="#E1970F" d = " M252 190 C252,192.484 259,190.865 259,197 264.046,197 272.146,198.823 276.5,201 276.5,201 280.5,206 280.5,206 282.65,207.075 294.871,201.757 296,199.5 296,199.5 294,196.5 294,196.5 294,195.503 298.566,194.632 297,191.5 296.146,189.793 290.409,190.683 293,185.5 293.844,183.812 300,175.396 300,175 298.885,175 300,172.465 300,171 298.119,171 293.324,167.912 291.5,167 285.146,163.823 256,162.795 256,174 257.879,174 253.623,179 251,179 251,179 249,180 249,180 250.517,180 253,182.851 253,184.5 253,184.5 251,185.5 251,185.5 251,185.5 254,187.5 254,187.5 254,188.13 252,188.188 252,190  Z"/>

<path  fill="#E1970F" stroke-width="0" stroke="#E1970F" d = " M231 199 L230,201 C226.976,201 223.462,208.019 221.5,209 218.308,210.596 208.452,208 204.5,208 203.995,208 203.993,202.746 202.5,202 200.396,200.948 199.83,204 198.5,204 198.5,204 198,201.5 198,201.5 198,201.5 196,199.5 196,199.5 196,199.5 198,194.5 198,194.5 199.377,191.745 196.098,185.695 195,183.5 195,183.5 195,177.5 195,177.5 195,177.5 188,174 188,174 188,174 189,174 189,174 190.186,174 190.186,173 189,173 187.987,173 184.592,172 187,172 192.263,172 196.181,170.16 200.5,168 200.5,168 207.5,168 207.5,168 207.5,168 208.5,166 208.5,166 212.656,166 217.442,168 222,168 222,168 223,169 223,169 226.969,169 235,169.413 235,173 233.514,173 233.514,176 235,176 235,177.24 237,177.576 237,180 237,181.091 233.944,190 240,190 240,193.886 231,192.019 231,199  Z"/>

<path  fill="#FF571E" stroke-width="0" stroke="#FF571E" d = " M260 224 L261,225 C265.612,225 272.574,220.537 277.5,223 281.835,225.167 293.79,228.855 299.5,226 299.5,226 301.5,223 301.5,223 307.767,223 314.625,223 320.5,223 321.376,223 320.693,219 323,219 323,219 324,213.5 324,213.5 324,213.5 320,209.5 320,209.5 320,209.5 322,206.5 322,206.5 323.17,204.16 318.079,195.658 317,193.5 315.993,191.486 320,187.824 320,187 320,183.01 315,182.559 315,178 313.615,178 308,175.801 308,174 308,174 303.5,173 303.5,173 303.5,173 300,175 300,175 300,175.396 293.844,183.812 293,185.5 290.409,190.683 296.146,189.793 297,191.5 298.566,194.632 294,195.503 294,196.5 294,196.5 296,199.5 296,199.5 294.871,201.757 282.65,207.075 280.5,206 280.5,206 276.5,201 276.5,201 272.146,198.823 264.046,197 259,197 253.781,197 247.672,197 241.5,197 240.222,197 236,196.335 236,198 241.467,198 249.88,196.69 254.5,199 256.494,199.997 261.3,205 258,205 258,205 261,207.5 261,207.5 261.378,208.255 259,211.382 259,213 259,216.249 260,220.194 260,224  Z"/>

<path  fill="#FF571E" stroke-width="0" stroke="#FF571E" d = " M226 223 L223.5,225 C221.891,225.805 218.178,224.661 215.5,226 211.414,228.043 201.73,224.615 198.5,223 194.91,221.205 186.968,225.234 184.5,224 181.789,222.644 175.136,220.182 171.5,222 L165,224 C165,217.974 164.316,215.868 167,210.5 167,210.5 165,208.5 165,208.5 165,207.7 168.144,207.788 167,205.5 167,205.5 165,204.5 165,204.5 165,201.597 169.884,198.732 171,196.5 173.404,191.691 171,188.149 171,184 171,178.659 184,179.154 184,175 184,175 188,174 188,174 188,174 195,177.5 195,177.5 195,177.5 195,183.5 195,183.5 196.098,185.695 199.377,191.745 198,194.5 198,194.5 196,199.5 196,199.5 196,199.5 198,201.5 198,201.5 198,201.5 198.5,204 198.5,204 199.83,204 200.396,200.948 202.5,202 203.993,202.746 203.995,208 204.5,208 208.452,208 218.308,210.596 221.5,209 223.462,208.019 226.976,201 230,201 230,201 231,205 231,205 231,205.189 228,208.333 228,212 226.781,212 224.664,217 227,217 227,218.564 226,220.876 226,223  Z"/>

<path  fill="#FF571E" stroke-width="0" stroke="#FF571E" d = " M240 190 L252,190 C252,188.188 254,188.13 254,187.5 254,187.5 251,185.5 251,185.5 251,185.5 253,184.5 253,184.5 253,182.851 250.517,180 249,180 249,185.429 237.999,180 237,180 237,181.091 233.944,190 240,190  Z"/>

<path  fill="#006400" stroke-width="0" stroke="#006400" d = " M150 250 C150,252.578 152.58,249.54 153.5,250 154.888,250.694 153.27,254 156,254 156,252.997 158.195,253.653 159.5,253 159.5,253 160,249.5 160,249.5 160,249.5 162,247.5 162,247.5 162,242.542 153.179,243.142 158,233.5 159.945,229.611 165,229.91 165,224 165,217.974 164.316,215.868 167,210.5 167,210.5 165,208.5 165,208.5 165,207.7 168.144,207.788 167,205.5 167,205.5 165,204.5 165,204.5 165,201.597 169.884,198.732 171,196.5 173.404,191.691 171,188.149 171,184 170.318,184 164,185.437 164,183.5 164,183.069 171.542,182 165,182 165,182 164,182 164,182 164,182 161,182 161,182 156.496,182 160.327,184.087 156.5,186 156.5,186 151.5,186 151.5,186 151.5,186 150,189 150,189 150,189 149,190 149,190 149,191.577 147.238,192 146,192 146,192 145,192 145,192 145,192 143,193 143,193 143,195.798 137.661,195.179 136,198.5 132.593,205.315 131.362,214.776 129,219.5 125.91,225.68 131.219,232.939 133,236.5 133.619,237.738 131.856,242 134,242 136.16,242 138.167,244 141,244 141,239.6 145.214,244 147,244 147,244 148,245 148,245 148,245 149,249 149,249 149,249 150,250 150,250  Z"/>

<path  fill="#006400" stroke-width="0" stroke="#006400" d = " M344 243 L341.5,244 L338.5,242 L335,245 C326.526,245 334.386,236.273 333,233.5 330.611,228.722 323,224.728 323,219 323,219 324,213.5 324,213.5 324,213.5 320,209.5 320,209.5 320,209.5 322,206.5 322,206.5 323.17,204.16 318.079,195.658 317,193.5 315.993,191.486 320,187.824 320,187 322.259,187 325.151,183.325 328.5,185 331.706,186.603 344.549,196 346,196 346,196 348,200 348,200 348,200 350,202 350,202 350,202 350,204 350,204 350,204 352,205 352,205 352,205 353,208 353,208 353,208 354,215 354,215 354,215 354,216 354,216 354,216 353,226 353,226 353,226 352,230 352,230 350.465,230 350.465,234 352,234 352,235.745 352.698,240 350,240 350,240 349,241 349,241 347.952,241 346,240.527 346,242 346,242 344,243 344,243  Z"/>

<path  fill="#21E6FF" stroke-width="0" stroke="#21E6FF" d = " M236 198 L231,199 C231,192.019 240,193.886 240,190 240,190 252,190 252,190 252,192.484 259,190.865 259,197 253.781,197 247.672,197 241.5,197 240.222,197 236,196.335 236,198  Z"/>

<path  fill="#FF571E" stroke-width="0" stroke="#FF571E" d = " M231 199 L230,201 C231.402,201 236,199.89 236,198 236,198 231,199 231,199  Z"/>

<path  fill-rule="evenodd" fill="#07FF59" stroke-width="0" stroke="#07FF59" d = " M243 209 C243,211.849 242,215.135 242,218.5 L242,225.5 L242,231 C242,232.331 243.59,236.321 245,233.5 L245,215.5 C245,213.022 246.084,209 243,209  M237 247 L237,249 C237,249 237,259.5 237,259.5 237,259.5 239.5,259 239.5,259 241.922,260.211 244.557,268.387 249,259.5 252.23,253.039 250.137,243.225 254,235.5 254.957,233.585 257.898,224 260,224 260,220.194 259,216.249 259,213 257.444,213 249.326,206 253,206 253,206 255,205 255,205 255,205 258,205 258,205 261.3,205 256.494,199.997 254.5,199 249.88,196.69 241.467,198 236,198 236,199.89 231.402,201 230,201 230,201 231,205 231,205 231,205 234,205 234,205 235.069,205 237.845,205.811 237,207.5 235.943,209.614 230,210.846 230,212 230,213.076 228.477,217 227,217 227,218.564 226,220.876 226,223 226,223 230,226.5 230,226.5 230,226.5 231,234.5 231,234.5 233.519,239.539 237,240.748 237,247  Z"/>

<path  fill="#FF00DA" stroke-width="0" stroke="#FF00DA" d = " M228 212 L230,212 C230,210.846 235.943,209.614 237,207.5 237.845,205.811 235.069,205 234,205 234,205 231,205 231,205 231,205.189 228,208.333 228,212  Z"/>

<path  fill="#FF571E" stroke-width="0" stroke="#FF571E" d = " M255 205 L253,206 C253,206 255,205 255,205  Z"/>

<path  fill="#FF00DA" stroke-width="0" stroke="#FF00DA" d = " M253 206 C249.326,206 257.444,213 259,213 259,211.382 261.378,208.255 261,207.5 261,207.5 258,205 258,205 258,205 255,205 255,205 255,205 253,206 253,206  Z"/>

<path  fill="#022CFF" stroke-width="0" stroke="#022CFF" d = " M243 209 C243,211.849 242,215.135 242,218.5 L242,225.5 L242,231 C242,232.331 243.59,236.321 245,233.5 L245,215.5 C245,213.022 246.084,209 243,209  Z"/>

<path  fill-rule="evenodd" fill="#9953FF" stroke-width="0" stroke="#9953FF" d = " M224 289 C224,290.93 225.93,289 224,289  M255 269 L254,273.5 C256.609,278.719 261.475,270.487 258.5,269 258.193,268.847 255.433,269 255,269  M230 269 C230,271.029 228.809,270.881 228,272.5 225.137,278.227 235.316,277.133 232,270.5 231.35,269.2 231.829,269 230,269  M292 253 C292,255.967 265.58,265.54 276.5,271 L282.5,268 C283.728,268.614 296.573,259.354 298,256.5 L301,255.5 C302.724,252.052 293.414,253 292,253  M265 294 C265,298.543 275.674,294 277,294 277,285.098 281.009,287.481 284,281.5 290.571,268.359 306.045,268.228 318.5,262 321.358,260.571 325.835,255 329,255 333.469,255 331.308,248.884 332,247.5 332,247.5 335,245 335,245 326.526,245 334.386,236.273 333,233.5 330.611,228.722 323,224.728 323,219 320.693,219 321.376,223 320.5,223 314.625,223 307.767,223 301.5,223 301.5,223 299.5,226 299.5,226 293.79,228.855 281.835,225.167 277.5,223 272.574,220.537 265.612,225 261,225 261,225 260,224 260,224 257.898,224 254.957,233.585 254,235.5 250.137,243.225 252.23,253.039 249,259.5 244.557,268.387 241.922,260.211 239.5,259 239.5,259 237,259.5 237,259.5 237,259.5 237,249 237,249 235.601,249 235.601,247 237,247 237,240.748 233.519,239.539 231,234.5 231,234.5 230,226.5 230,226.5 230,226.5 226,223 226,223 226,223 223.5,225 223.5,225 221.891,225.805 218.178,224.661 215.5,226 211.414,228.043 201.73,224.615 198.5,223 194.91,221.205 186.968,225.234 184.5,224 181.789,222.644 175.136,220.182 171.5,222 171.5,222 165,224 165,224 165,229.91 159.945,229.611 158,233.5 153.179,243.142 162,242.542 162,247.5 162,247.5 160,249.5 160,249.5 160,249.5 159.5,253 159.5,253 158.195,253.653 156,252.997 156,254 156,255.745 155.302,260 158,260 158,258.073 161.205,260 162.5,260 166.542,260 171.027,263.264 174.5,265 186.324,270.912 206,275.218 206,292 206,292 210.5,296 210.5,296 210.5,296 218,296 218,296 222.375,296 222.442,292 227,292 227,292 229,291 229,291 229,291 230,291 230,291 230,291 231,290 231,290 231,290 236,290 236,290 236,283.507 251,282.502 251,290 252.606,290 255.339,287.919 257.5,289 257.5,289 262,291 262,291 262.906,291 267.411,294 265,294  M192 261 C192,263.548 194.687,265 197,265 200.587,265 205.242,273.129 207.5,272 209.419,271.04 208.341,269.818 209,268.5 211.643,263.214 210.647,263.574 205.5,261 205.5,261 204,259 204,259 204,257.814 203,257.814 203,259 203,259 189.5,252 189.5,252 187.946,251.223 186.371,254.242 187,255.5 187,255.5 192,261 192,261  Z"/>

<path  fill="#DD6479" stroke-width="0" stroke="#DD6479" d = " M411 263 C411,267.616 416.508,262 417.5,262 L421.5,266 C426.174,268.337 435.611,265 440,265 440,261.879 434.74,260.019 435,259.5 435.902,257.695 442.24,258.021 444,254.5 446.94,248.62 447.086,241.327 450,235.5 450.642,234.217 452.953,233.405 452,231.5 452,231.5 449,230 449,230 447.656,230 447.117,231.735 446,229.5 446,229.5 445.5,226 445.5,226 444.7,226 444.788,229.144 442.5,228 434.334,223.917 423.508,222 415,222 415,222 414,223 414,223 414,234.611 412,245.196 412,255 412,255 411,263 411,263  Z"/>

<path  fill="#DD6479" stroke-width="0" stroke="#DD6479" d = " M45 268 L49.5,270 C53.1172,270 65.4893,263.995 67.5,265 L68.5,269 C69.3091,269 77,271.106 77,268 77,265.775 75.2865,260.073 74,257.5 72.3387,254.177 72,229.45 72,224 70.0569,224 68.6252,226 67.5,226 67.5,226 65.5,223 65.5,223 62.7175,221.609 60.8888,226.694 59.5,226 59.0142,225.757 41.2712,225.614 40.5,226 40.5,226 39.5,228 39.5,228 39.5,228 38.5,226 38.5,226 38.5,226 32,227 32,227 32,227 31,234.5 31,234.5 34.7983,242.097 35.2557,251.011 39,258.5 39,258.5 49,263.5 49,263.5 49,263.904 45,264.977 45,268  Z"/>

<path  fill="#FF3427" stroke-width="0" stroke="#FF3427" d = " M188 295 C189.639,295 190.455,297 191.5,297 193.584,297 198.118,295 201,295 201,297.453 201.418,299.664 200,302.5 199.398,303.704 183.398,304.449 180.5,303 177.427,301.463 177.69,300 175.5,300 175.5,300 173,296.5 173,296.5 170.697,294.197 168.41,292.455 165.5,291 162.276,289.388 163.945,285 160,285 160,285 159,283 159,283 159,278.791 152.814,275.129 151,271.5 148.826,267.151 146.259,263.018 144,258.5 144,258.5 146,253.5 146,253.5 146,252.153 141,251.127 141,244 141,239.6 145.214,244 147,244 147,244 148,245 148,245 148,245 149,249 149,249 149,249 150,250 150,250 150,252.578 152.58,249.54 153.5,250 154.888,250.694 153.27,254 156,254 156,255.745 155.302,260 158,260 158,268.186 159.679,272.859 163,279.5 163,279.5 169,283.5 169,283.5 172.614,290.728 178.044,293 185,293 185,293 186,294 186,294 186,294 187,294 187,294 187,294 188,295 188,295  Z"/>

<path  fill="#FF3427" stroke-width="0" stroke="#FF3427" d = " M287 302 C287,299.627 289.284,302 290,302 292.591,302 294.996,305.252 297.5,304 300.294,302.603 310.716,297 313,297 313,297 314,296 314,296 315.048,296 317,296.473 317,295 317,295 318,293 318,293 318,293 318,292 318,292 318,290.762 318.423,289 320,289 320,289 321,288 321,288 321,288 322,287 322,287 322,287 332,272 332,272 332,272 333,270 333,270 333,270 335,267 335,267 335,265.234 335.607,262 338,262 338,262 339,260 339,260 339,260 340,258 340,258 340,253.76 339.798,249 346,249 346,249 347,248 347,248 347,245.435 347.236,243 344,243 344,243 341.5,244 341.5,244 341.5,244 338.5,242 338.5,242 338.5,242 335,245 335,245 335,245 332,247.5 332,247.5 331.308,248.884 333.469,255 329,255 329,255 329,260 329,260 330.186,260 330.186,261 329,261 329,261 329,264 329,264 329,264 328,266 328,266 328,267.145 328.579,270 327,270 327,270 327,273 327,273 327,273 326,274 326,274 326,274 325,275 325,275 325,275 324,277 324,277 324,277 323,278 323,278 323,278 322,280 322,280 322,280 320,282 320,282 320,282 318,284 318,284 314.055,284 315.931,288 313,288 313,288 312,289 312,289 305.973,289 299.19,294.155 293.5,297 290.618,298.441 287.292,294.104 285.5,295 285.5,295 285,300 285,300 285,300 287,302 287,302  Z"/>

<path  fill="#FF6E00" stroke-width="0" stroke="#FF6E00" d = " M408 246 C406.514,246 406.514,249 408,249 408,249 408,246 408,246  Z"/>

<path  fill="#022CFF" stroke-width="0" stroke="#022CFF" d = " M135 250 L136,250 C136,250 137,248 137,248 135.333,248 132.362,250 135,250  Z"/>

<path  fill="#D4FF00" stroke-width="0" stroke="#D4FF00" d = " M192 261 C193.562,261 197,263.189 197,265 200.587,265 205.242,273.129 207.5,272 209.419,271.04 208.341,269.818 209,268.5 211.643,263.214 210.647,263.574 205.5,261 205.5,261 204,259 204,259 204,259 203,259 203,259 203,259 189.5,252 189.5,252 187.946,251.223 186.371,254.242 187,255.5 187,255.5 192,261 192,261  Z"/>

<path  fill="#D4FF00" stroke-width="0" stroke="#D4FF00" d = " M292 253 C292,255.967 265.58,265.54 276.5,271 L282.5,268 C283.728,268.614 296.573,259.354 298,256.5 L301,255.5 C302.724,252.052 293.414,253 292,253  Z"/>

<path  fill="#FFBA00" stroke-width="0" stroke="#FFBA00" d = " M277 294 C277,297.581 282.054,300 285,300 285,300 285.5,295 285.5,295 287.292,294.104 290.618,298.441 293.5,297 299.19,294.155 305.973,289 312,289 312,289 313,288 313,288 315.931,288 314.055,284 318,284 318,282.253 318.253,282 320,282 320,282 322,280 322,280 322,280 323,278 323,278 323,278 324,277 324,277 324,277 325,275 325,275 325,275 326,274 326,274 326,274 327,273 327,273 325.514,273 325.514,270 327,270 327,268.855 326.421,266 328,266 328,266 329,264 329,264 329,264 329,261 329,261 329,261 329,260 329,260 329,260 329,255 329,255 325.835,255 321.358,260.571 318.5,262 306.045,268.228 290.571,268.359 284,281.5 281.009,287.481 277,285.098 277,294  Z"/>

<path  fill="#FFBA00" stroke-width="0" stroke="#FFBA00" d = " M188 295 C189.639,295 190.455,297 191.5,297 193.584,297 198.118,295 201,295 203.364,295 204.053,292 206,292 206,275.218 186.324,270.912 174.5,265 171.027,263.264 166.542,260 162.5,260 161.205,260 158,258.073 158,260 158,268.186 159.679,272.859 163,279.5 163,279.5 169,283.5 169,283.5 172.614,290.728 178.044,293 185,293 185,293 186,294 186,294 186,294 187,294 187,294 187,294 188,295 188,295  Z"/>

<path  fill="#2E8B57" stroke-width="0" stroke="#2E8B57" d = " M402 280 C405.719,280 410.86,282 414.5,282 L416.5,279 L417.5,283 L420.5,281 L437,282 C446.17,282 441.438,265 440,265 435.611,265 426.174,268.337 421.5,266 421.5,266 417.5,262 417.5,262 416.508,262 411,267.616 411,263 411,263 408,266 408,266 408,271.709 402,274.389 402,280  Z"/>

<path  fill="#2E8B57" stroke-width="0" stroke="#2E8B57" d = " M83 283 C78.2608,283 74.4735,286.013 70.5,288 66.4285,290.036 63.5261,286.013 61.5,285 60.2408,284.37 50.5532,286 48,286 48,286 44,283.5 44,283.5 42.9623,281.425 43.0875,278.675 42,276.5 40.1708,272.842 45,270.594 45,268 45,268 49.5,270 49.5,270 53.1172,270 65.4893,263.995 67.5,265 67.5,265 68.5,269 68.5,269 69.3091,269 77,271.106 77,268 78.9515,268 77.4772,270.454 78,271.5 79.6841,274.868 83,279.082 83,283  Z"/>

<path  fill="#F44345" stroke-width="0" stroke="#F44345" d = " M230 269 C230,271.029 228.809,270.881 228,272.5 225.137,278.227 235.316,277.133 232,270.5 231.35,269.2 231.829,269 230,269  Z"/>

<path  fill="#F44345" stroke-width="0" stroke="#F44345" d = " M255 269 L254,273.5 C256.609,278.719 261.475,270.487 258.5,269 258.193,268.847 255.433,269 255,269  Z"/>

<path  fill="#03C12D" stroke-width="0" stroke="#03C12D" d = " M400 279 C398.762,279 397,279.423 397,281 398.238,281 400,280.577 400,279  Z"/>

<path  fill="#03C12D" stroke-width="0" stroke="#03C12D" d = " M335 297 C335,298.87 326,297.353 326,304 326,304 334.5,310 334.5,310 336.549,311.024 339.535,310.017 341.5,311 343.157,311.828 345.53,318.03 347.5,320 347.5,320 363.5,330 363.5,330 366.27,331.385 375.217,330.142 377.5,329 377.5,329 382.5,326 382.5,326 385.894,327.697 388.207,331.354 391.5,333 396.902,335.701 407.446,332.027 411.5,330 430.3,320.6 437,302.187 437,282 437,282 420.5,281 420.5,281 420.5,281 417.5,283 417.5,283 417.5,283 416.5,279 416.5,279 416.5,279 414.5,282 414.5,282 410.86,282 405.719,280 402,280 400.099,280 397,286.632 397,282 392.12,282 386.726,287.887 382.5,290 375.412,293.544 363.25,296 355,296 355,297.014 351.041,298 350,298 350,298 335,297 335,297  Z"/>

<path  fill="#03C12D" stroke-width="0" stroke="#03C12D" d = " M153 321 C153,322.769 141.159,324.171 139.5,325 135.696,326.902 136.187,331 131,331 126.333,331 118.585,331.957 114.5,334 111.332,335.584 100.202,334.351 97.5,333 91.3891,329.945 68.1147,340.729 60,324.5 56.2135,316.927 57.3186,310.137 55,305.5 50.6235,296.747 48,297.112 48,286 50.5532,286 60.2408,284.37 61.5,285 63.5261,286.013 66.4285,290.036 70.5,288 74.4735,286.013 78.2608,283 83,283 83,283 86,284.5 86,284.5 87.3309,287.162 99,294.191 99,291 104.833,291 108.854,294.677 113.5,297 121.23,300.865 131.647,299.074 139.5,303 142.617,304.558 144.901,301 147,301 147,304.274 151.789,308 155,308 155,312.107 154,316.469 154,320 154,320 153,321 153,321  Z"/>

<path  fill="#03C12D" stroke-width="0" stroke="#03C12D" d = " M97 289 L98,290 C98,290 97,289 97,289  Z"/>

<path  fill="#E278A1" stroke-width="0" stroke="#E278A1" d = " M224 289 C224,290.93 225.93,289 224,289  Z"/>

<path  fill-rule="evenodd" fill="#E278A1" stroke-width="0" stroke="#E278A1" d = " M235 305 C235,309.123 239.123,305 235,305  M265 294 C263.414,294 259.559,293.618 261,296.5 262.737,299.975 274,293.07 274,307.5 274,311.331 267.351,320.075 263.5,322 L255.5,324 L253.5,327 L238,325 L232.5,326 C231.133,325.317 229.432,323.966 227.5,323 225.361,321.931 221.389,323.278 220,320.5 L217,306.5 L221,305.5 C221,304.168 215.674,306.151 217,303.5 L223,302.5 L217,301.5 C217,300.283 218,297.842 218,296 222.375,296 222.442,292 227,292 227,292 229,291 229,291 229,291 230,291 230,291 230,291 231,290 231,290 231,290 236,290 236,290 242.062,290 244.938,290 251,290 252.606,290 255.339,287.919 257.5,289 257.5,289 262,291 262,291 262.906,291 267.411,294 265,294  Z"/>

<path  fill="#DDD951" stroke-width="0" stroke="#DDD951" d = " M355 296 C355,297.014 351.041,298 350,298 L335,297 C332.82,297 334.329,293.586 335.5,293 338.837,291.332 355,289.878 355,296  Z"/>

<path  fill="#DDD951" stroke-width="0" stroke="#DDD951" d = " M155 308 L159,308 C159,306.878 160.498,301 157,301 157,301 155,300 155,300 155,300 154,300 154,300 154,300 152,299 152,299 150.378,299 147,298.539 147,301 147,304.274 151.789,308 155,308  Z"/>

<path  fill="#FFBA00" stroke-width="0" stroke="#FFBA00" d = " M287 302 C288.238,302 290,303.514 290,302 289.284,302 287,299.627 287,302  Z"/>

<path  fill="#EEBA00" stroke-width="0" stroke="#EEBA00" d = " M235 305 C235,309.123 239.123,305 235,305  Z"/>

<path  fill="#FA8072" stroke-width="0" stroke="#FA8072" d = " M324 310 C324,312.577 315.926,314.649 315,316.5 313.16,320.18 315.822,322.339 310.5,325 L306.5,326 C306.412,325.956 304,323.801 304,325.5 304,326.85 307,330.674 307,332.5 307,335.679 300.201,338.901 303,344.5 305.881,350.262 310.668,349.584 315.5,352 317.999,353.249 317.066,358 319.5,358 323.011,358 333.96,356.27 336.5,355 L338.5,352 L344.5,351 C344.61,350.945 348.767,345.866 352.5,344 354.198,343.151 352,342.151 352,341.5 L354,338.5 C354.666,337.168 351.172,325.836 349.5,325 347.428,323.964 344.409,325.317 343,322.5 L342.5,319 C340.133,319 339.288,320.394 336.5,319 334.329,317.914 336.534,315.568 336,314.5 L330.5,314 C329.686,313.593 331.667,310 324,310  Z"/>

<path  fill-rule="evenodd" fill="#FA8072" stroke-width="0" stroke="#FA8072" d = " M160 349 C160,352.781 163.781,349 160,349  M145 340 C145,342.091 148.746,340 145,340  M153 336 C153,339.746 155.091,336 153,336  M150 335 C150,337.091 153.746,335 150,335  M153 321 C153,322.769 141.159,324.171 139.5,325 135.696,326.902 136.187,331 131,331 131,336.336 126.832,338.164 129,342.5 130.29,345.08 144.413,345.956 144.5,346 144.5,346 148.5,352 148.5,352 150.736,353.118 151.82,349.16 153.5,350 156.611,351.555 162.162,356.169 166.5,354 166.5,354 167.5,352 167.5,352 169.638,352 172.005,355.248 174.5,354 177.291,352.604 183,343.998 183,340.5 183,340.5 182,338.5 182,338.5 183.932,334.636 189.384,331.267 187,326.5 186.733,325.965 182.206,327 181.5,327 181.5,327 168.5,313 168.5,313 159.794,308.647 156.718,320 154,320 154,320 153,321 153,321  Z"/>

</g>
</svg>
