<svg xmlns="http://www.w3.org/2000/svg" xmlns:xlink="http://www.w3.org/1999/xlink" height="512" width="512">
<g>
<rect width="512" height="512" fill="#000000"  stroke-width="0" /> 
<path  fill-rule="evenodd" fill="#86FF5A" stroke-width="0" stroke="#86FF5A" d = " M245 311 C245,313.682 237,310.152 237,313.5 237,317.745 243.828,321.836 249.5,319 255.473,316.014 248.263,311 245,311  M216 281 C216,282.821 203.148,282.204 202,284.5 200.645,287.209 195.124,287.253 193,291.5 188.547,300.405 186.2,308.9 191,318.5 L190,325.5 C194.254,334.008 202.416,354 210.5,354 L215.5,359 L219.5,359 C222.086,360.293 231.384,362.558 234.5,361 237.222,359.639 238.574,357.463 241.5,356 L243.5,353 C247.779,353 249.372,360.936 251.5,362 L257.5,361 C271.064,361 281.521,355.458 287,344.5 289.045,340.411 295.336,336.828 298,331.5 L299,321.5 C305.535,308.43 301.213,295.357 290.5,290 L286.5,285 C285.523,284.511 275.064,283.782 273.5,283 271.041,281.771 263.64,279.43 260.5,281 253.939,284.281 247.856,285.678 240.5,282 239.606,281.553 236.442,284.971 234.5,284 228.062,280.781 223.627,281 216,281  Z"/>

<path  fill-rule="evenodd" fill="#EB57FF" stroke-width="0" stroke="#EB57FF" d = " M244 315 C244,316.93 245.93,315 244,315  M245 311 C245,313.682 237,310.152 237,313.5 237,317.745 243.828,321.836 249.5,319 255.473,316.014 248.263,311 245,311  Z"/>

<path  fill="#27F4FD" stroke-width="0" stroke="#27F4FD" d = " M244 315 C244,316.93 245.93,315 244,315  Z"/>

</g>
</svg>
