<svg xmlns="http://www.w3.org/2000/svg" xmlns:xlink="http://www.w3.org/1999/xlink" height="512" width="512">
<g>
<rect width="512" height="512" fill="#000000"  stroke-width="0" /> 
<path  fill-rule="evenodd" fill="#FFFF00" stroke-width="0" stroke="#FFFF00" d = " M141 120 C141,121.419 132.87,123.241 134,125.5 136.512,130.525 156.499,120 144.5,120 L141,120  M188 119 C188,121.112 193.567,119 188,119  M321 112 C321,112.652 317.703,114.095 317,115.5 316.49,116.519 317.436,122 315.5,122 314.761,122 311.852,124.176 311.5,124 L309.5,122 L308.5,126 C307.221,126.639 303.637,124.932 301.5,126 300.294,126.603 300.733,132 302.5,132 L303.5,130 L305.5,132 L306.5,130 C309.65,130 306.821,139 308.5,139 L309.5,130 C311.059,130 312.906,127 313.5,127 L314.5,133 L315.5,127 C317.93,125.785 332.157,115 323.5,115 322.57,115 323.533,112 321,112  M331 111 C331,112.93 332.93,111 331,111  M239 90 C239,91.7002 233.863,91 232.5,91 229.857,91 219.81,90.3451 216.5,92 214.02,93.2398 211.349,95.0756 209.5,96 L204.5,96 C200.274,98.1131 198.524,101.988 194.5,104 192.31,105.095 191.928,109.643 191,111.5 190.414,112.673 187,115.77 187,116.5 187,118.576 191.279,117 191.5,117 L192,119.5 L194,120.5 L192,122.5 L191,130.5 C190.803,130.894 187.022,131 186.5,131 186.144,131 184.569,135 182.5,135 182.111,135 176.163,134.332 175.5,134 166.517,129.508 172.537,117 159.5,117 158.716,117 154.895,117.71 154,119.5 153.166,121.168 163.223,130.054 159,138.5 156.276,143.949 150.754,149.873 146.5,152 145.318,152.591 142.231,157 145.5,157 149.71,157 153.63,152 157.5,152 165.135,152 174.388,149.056 182.5,145 188.003,142.248 190.881,150.737 189,154.5 L180.5,163 C174.884,165.808 171.022,172.239 165.5,175 161.33,177.085 151.291,174.104 149.5,175 144.854,177.323 139.233,177.634 134.5,180 129.693,182.404 116.382,196.941 110.5,194 107.963,192.732 112,186.124 112,184.5 112,181.961 109,177.421 109,174.5 109,171.339 117.653,156.423 108.5,161 L105,161.5 L102,165.5 C100.056,167.444 99.3712,168.758 98,171.5 L94,185.5 C92.4676,188.565 97.7351,195.97 99,198.5 99.8068,200.114 100.246,207 103.5,207 109.256,207 130.341,196.182 133,201.5 133.975,203.45 129.733,206.035 129,207.5 123.687,218.125 112.715,211.393 109.5,213 104.076,215.712 110.286,223.786 113,226.5 L116.5,232 C124.655,236.078 125.516,227.468 128,222.5 L135,217.5 C137.186,213.128 135.69,206.905 141.5,204 144.226,202.637 153.319,195.41 156.5,197 L159.5,203 L170.5,197 C181.606,191.447 187.517,165.491 196.5,161 201.797,158.351 207.329,156.585 212.5,154 214.932,152.784 221.538,154.019 223.5,155 225.128,155.814 237.359,152.07 239.5,151 242.607,149.446 253.782,151.641 256.5,153 260.763,155.132 266.14,150.68 269.5,149 271.233,148.133 273.244,150.372 274.5,151 279.871,153.685 286.202,149.904 291,159.5 295.85,169.201 315.005,189.752 325.5,195 330.665,197.583 336.597,200.097 341,204.5 344.936,208.436 356.208,214.916 358,218.5 359.651,221.802 357.306,227.112 359,230.5 361.346,235.191 367.327,236.846 370,231.5 371.664,228.171 369.284,222.931 371,219.5 L379,211.5 C376.335,206.171 368.561,211.03 364.5,209 359.764,206.632 332.66,195.18 337,186.5 337.328,185.844 347.145,188.645 348,189.5 349.838,191.338 380.399,201.05 382.5,200 384.045,199.227 382.782,195.282 382,194.5 379.696,192.196 370.209,189.081 372,185.5 374.259,180.983 379.593,183.546 382.5,185 383.3,185.4 386.14,187.22 387,185.5 391.942,175.616 381.947,159.393 378,151.5 L372,145.5 L366.5,138 C363.956,136.728 360.153,138.326 357.5,137 354.434,135.467 350.2,137.899 352,141.5 L363,152.5 C363.923,154.346 364.122,156.745 365,158.5 L366.5,158 C369.759,158 368.816,168.868 368,170.5 361.745,183.01 341.15,171.325 332.5,167 326.771,164.136 322.569,171.034 316.5,168 L312.5,163 C305.958,159.729 286.762,147.976 292,137.5 L295.5,133 L298.5,131 L299.5,134 L300,126.5 C299.796,126.093 296.044,123.587 296,123.5 294.094,119.688 294.691,109.883 292,104.5 291.191,102.882 277.844,96.672 276.5,96 L270.5,96 C260.809,91.1546 251.627,90 239,90  M263 241 L265,241 C265,239.031 270.584,238 272,238 275.062,238 283.924,235.788 287.5,234 291.706,231.897 299.05,220 300.5,220 300.5,220 303,223.5 303,223.5 303.843,225.187 306.832,225 307.5,225 307.5,225 310.5,229 310.5,229 312.303,229 321.648,233.574 324.5,235 324.5,235 325.5,238 325.5,238 325.5,238 331.5,239 331.5,239 338.048,242.274 343.651,247 350.5,247 351.521,247 356.897,243.707 357,243.5 357,243.5 357.5,238 357.5,238 357.5,238 363.5,240 363.5,240 363.5,240 368.5,238 368.5,238 368.5,238 370.5,239 370.5,239 370.775,238.862 378.319,222.861 379,221.5 379,221.5 380.5,215 380.5,215 380.5,215 381.5,217 381.5,217 381.5,217 383,212.5 383,212.5 384.441,209.618 380.104,206.292 381,204.5 381,204.5 384.5,203 384.5,203 386.566,201.967 386.149,198.202 387,196.5 387,196.5 389,196.5 389,196.5 389,196.5 389,189.5 389,189.5 391.421,184.659 391.532,177.564 389,172.5 389,172.5 388,159.5 388,159.5 385.696,154.892 382.935,154.369 381,150.5 381,150.5 379,143.5 379,143.5 377.011,139.521 372.336,137.173 370,132.5 370,132.5 367.5,132 367.5,132 367.5,132 360.5,126 360.5,126 360.5,126 357.5,123 357.5,123 357.5,123 352.5,125 352.5,125 352.5,125 351.5,122 351.5,122 350.182,121.341 348.96,122.419 348,120.5 348,120.5 347.5,117 347.5,117 346.277,117 344.526,118 343.5,118 343.5,118 342.5,115 342.5,115 339.267,113.383 335.532,111.516 332.5,110 328.075,107.787 318.873,109 314.5,109 314.5,109 312.5,105 312.5,105 312.5,105 311.5,108 311.5,108 311.5,108 311,103.5 311,103.5 311,103.5 303.5,100 303.5,100 299.751,98.1255 295.516,102.008 291.5,100 288.874,98.6869 285.077,94.2883 282.5,93 278.263,90.8813 271.758,92.1288 267.5,90 267.5,90 264.5,87 264.5,87 259.243,84.3715 222.757,84.3715 217.5,87 217.5,87 216.5,90 216.5,90 214.881,90.8096 213.499,89 212.5,89 212.5,89 211.5,92 211.5,92 211.5,92 206.5,91 206.5,91 203.039,92.7303 198.092,94.2038 194.5,96 194.5,96 187,103.5 187,103.5 187,103.5 186.5,107 186.5,107 186.5,107 172.5,108 172.5,108 171.669,108.415 169.573,112.963 169.5,113 166.205,114.647 163.428,111 161.5,111 160.976,111 136.799,116.851 136.5,117 135.477,117.512 120.213,127.287 120,127.5 119.076,128.424 114.841,135 114.5,135 113.365,135 113.118,134.191 111.5,135 107.751,136.875 114.112,137.694 111.5,139 109.541,139.98 108.658,140 107.5,140 107.5,140 105.5,146 105.5,146 98.0843,146 100.545,154.409 98,159.5 93.1108,169.278 89.7621,180.024 95,190.5 96.1779,192.856 97.3969,209 101,209 101,207.081 103,206.512 103,209 103,209 104,224.5 104,224.5 105.058,226.616 106.572,224.644 107,225.5 107,225.5 107,231.5 107,231.5 108.348,234.196 108.988,231.244 110.5,232 110.5,232 116.5,238 116.5,238 119.287,239.393 123.615,237.558 126.5,239 129.97,240.735 124.397,250 138.5,250 138.5,250 144.5,250 144.5,250 155.431,244.535 160.535,238.482 171.5,233 177.573,229.963 180.917,222 186,222 186,216.264 189.228,221.045 191,217.5 191.929,215.642 191.213,206.073 190,208.5 190,208.5 190,216.5 190,216.5 188.81,218.88 187.805,215 187.5,215 187.5,215 178.5,222 178.5,222 178.5,222 171.5,228 171.5,228 162.43,232.535 154.625,239.437 145.5,244 143.38,245.06 132.052,247.603 131,245.5 128.286,240.073 137.534,239.432 138,238.5 139.172,236.156 140.849,236.803 142,234.5 151.053,216.394 160.192,222.654 175.5,215 187.658,208.921 192.789,179.855 204.5,174 218.546,166.977 243.421,171 260,171 264.17,171 273.951,167.726 276.5,169 291.624,176.562 296.262,192.024 303,205.5 303,205.5 310.5,212 310.5,212 310.5,212 312.5,210 312.5,210 312.5,210 314.5,214 314.5,214 314.5,214 315,209.5 315,209.5 315.772,207.955 328.938,212.219 330.5,213 342.683,219.091 339.253,235 350.5,235 352.251,235 352.545,240.411 352,241.5 351.33,242.84 348.327,239.414 347.5,239 347.5,239 340.5,239 340.5,239 340.5,239 339.5,236 339.5,236 339.5,236 333.5,235 333.5,235 333.5,235 331.5,232 331.5,232 331.5,232 328.5,233 328.5,233 322.222,229.861 316.788,225.144 310.5,222 310.5,222 299,211.5 299,211.5 299,211.5 297.5,207 297.5,207 293.926,205.213 299.672,217.586 294.5,215 293.313,214.407 294.602,207 289.5,207 284.673,207 279.052,206.224 273.5,209 271.847,209.826 260.495,206.003 256.5,208 253.15,209.675 245.742,205.879 243.5,207 243.026,207.237 217.197,210 215.5,210 212.34,210 209.965,208.268 206.5,210 206.5,210 196.5,209 196.5,209 193.189,210.655 195,213.009 195,215.5 195,215.5 192,218.5 192,218.5 191.147,220.207 194.143,222.678 195.5,222 198.366,220.567 195.73,223 197.5,223 197.5,223 200.5,220 200.5,220 200.5,220 218,220 218,220 230.476,220 241.834,219 254.5,219 255.477,219 260.77,222 262.5,222 264.526,222 264.128,219 267.5,219 270.333,219 273.119,220.191 275.5,219 276.294,218.603 286.136,219 286.5,219 286.5,219 287.5,222 287.5,222 288.586,222.543 294.675,220.151 293,223.5 288.907,231.686 279.641,227.43 274.5,230 273.092,230.704 270.696,229.098 268.5,228 268.5,228 246,228 246,228 246,228 244.5,230 244.5,230 244.5,230 243.5,228 243.5,228 239.268,228 219.579,224.461 214.5,227 212.202,228.149 201.995,230.247 199.5,229 195.767,227.133 190.35,225 186,225 186,231.646 195.603,231.051 199.5,233 203.685,235.093 208.392,232.946 210.5,234 210.5,234 212.5,237 212.5,237 212.5,237 213.5,235 213.5,235 213.972,234.764 230.074,239.787 232.5,241 235.312,242.406 239.578,240.539 242.5,242 245.035,243.268 256.478,242 257.5,242 259.162,242 262,240.042 262,241 262,241 263,241 263,241  Z"/>

<path  fill-rule="evenodd" fill="#00FFFF" stroke-width="0" stroke="#00FFFF" d = " M215 123 C215,126.746 217.091,123 215,123  M200 122 L199,125.5 C197.241,129.017 199.451,131.524 202.5,130 204.98,128.76 202.779,122 200,122  M205 120 L204,130.5 C204.034,130.569 213,128.632 213,125.5 L211,123.5 C211,119.772 209.755,124.627 206.5,123 L205,120  M290 117 L290.5,124 C291.124,124 291.793,117 290,117  M273 117 C273,128.285 276,117.934 276,117.5 L273,117  M233 117 C233,119.091 236.746,117 233,117  M268 116 C268,124.188 270.896,116 268,116  M238 115 C238,116.728 236.989,120.255 235.5,121 234.894,121.303 230,116.752 230,120.5 230,122.455 233.889,122 235,122 L246.5,120 C250.646,117.927 242.73,117 242.5,117 241.375,117 239.943,115 238,115  M288 114 L288.5,121 C289.124,121 289.793,114 288,114  M281 113 C281,116.019 279.489,125.495 282.5,127 287.763,129.632 287.359,116 286.5,116 283.466,116 286.1,124 284.5,124 L284,120 C284,116.433 285.253,113 281,113  M277 113 C277,114.198 278.532,125 279.5,125 L280,113.5 L278.5,115 L277,113  M275 113 C275,118.567 277.112,113 275,113  M239 90 C239,91.7002 233.863,91 232.5,91 229.857,91 219.81,90.3451 216.5,92 214.02,93.2398 211.349,95.0756 209.5,96 L204.5,96 C200.274,98.1131 198.524,101.988 194.5,104 192.31,105.095 191.928,109.643 191,111.5 190.414,112.673 187,115.77 187,116.5 187,118.576 191.279,117 191.5,117 L192,119.5 L194,120.5 L192,122.5 L191,130.5 C190.803,130.894 187.022,131 186.5,131 186.144,131 184.569,135 182.5,135 182.111,135 176.163,134.332 175.5,134 166.517,129.508 172.537,117 159.5,117 158.716,117 154.895,117.71 154,119.5 153.166,121.168 163.223,130.054 159,138.5 156.276,143.949 150.754,149.873 146.5,152 145.318,152.591 142.231,157 145.5,157 149.71,157 153.63,152 157.5,152 165.135,152 174.388,149.056 182.5,145 188.003,142.248 190.881,150.737 189,154.5 L180.5,163 C174.884,165.808 171.022,172.239 165.5,175 161.33,177.085 151.291,174.104 149.5,175 144.854,177.323 139.233,177.634 134.5,180 129.693,182.404 116.382,196.941 110.5,194 107.963,192.732 112,186.124 112,184.5 112,181.961 109,177.421 109,174.5 109,171.339 117.653,156.423 108.5,161 L105,161.5 L102,165.5 C100.056,167.444 99.3712,168.758 98,171.5 L94,185.5 C92.4676,188.565 97.7351,195.97 99,198.5 99.8068,200.114 100.246,207 103.5,207 109.256,207 130.341,196.182 133,201.5 133.975,203.45 129.733,206.035 129,207.5 123.687,218.125 112.715,211.393 109.5,213 104.076,215.712 110.286,223.786 113,226.5 L116.5,232 C124.655,236.078 125.516,227.468 128,222.5 L135,217.5 C137.186,213.128 135.69,206.905 141.5,204 144.226,202.637 153.319,195.41 156.5,197 L159.5,203 L170.5,197 C181.606,191.447 187.517,165.491 196.5,161 201.797,158.351 207.329,156.585 212.5,154 214.932,152.784 221.538,154.019 223.5,155 225.128,155.814 237.359,152.07 239.5,151 242.607,149.446 253.782,151.641 256.5,153 260.763,155.132 266.14,150.68 269.5,149 271.233,148.133 273.244,150.372 274.5,151 279.871,153.685 286.202,149.904 291,159.5 295.85,169.201 315.005,189.752 325.5,195 330.665,197.583 336.597,200.097 341,204.5 344.936,208.436 356.208,214.916 358,218.5 359.651,221.802 357.306,227.112 359,230.5 361.346,235.191 367.327,236.846 370,231.5 371.664,228.171 369.284,222.931 371,219.5 L379,211.5 C376.335,206.171 368.561,211.03 364.5,209 359.764,206.632 332.66,195.18 337,186.5 337.328,185.844 347.145,188.645 348,189.5 349.838,191.338 380.399,201.05 382.5,200 384.045,199.227 382.782,195.282 382,194.5 379.696,192.196 370.209,189.081 372,185.5 374.259,180.983 379.593,183.546 382.5,185 383.3,185.4 386.14,187.22 387,185.5 391.942,175.616 381.947,159.393 378,151.5 L372,145.5 L366.5,138 C363.956,136.728 360.153,138.326 357.5,137 354.434,135.467 350.2,137.899 352,141.5 L363,152.5 C363.923,154.346 364.122,156.745 365,158.5 L366.5,158 C369.759,158 368.816,168.868 368,170.5 361.745,183.01 341.15,171.325 332.5,167 326.771,164.136 322.569,171.034 316.5,168 L312.5,163 C305.958,159.729 286.762,147.976 292,137.5 L295.5,133 L298.5,131 L299.5,134 L300,126.5 C299.796,126.093 296.044,123.587 296,123.5 294.094,119.688 294.691,109.883 292,104.5 291.191,102.882 277.844,96.672 276.5,96 L270.5,96 C260.809,91.1546 251.627,90 239,90  Z"/>

<path  fill="#00FFFF" stroke-width="0" stroke="#00FFFF" d = " M321 112 C321,112.652 317.703,114.095 317,115.5 316.49,116.519 317.436,122 315.5,122 314.761,122 311.852,124.176 311.5,124 L309.5,122 L308.5,126 C307.221,126.639 303.637,124.932 301.5,126 300.294,126.603 300.733,132 302.5,132 L303.5,130 L305.5,132 L306.5,130 C309.65,130 306.821,139 308.5,139 L309.5,130 C311.059,130 312.906,127 313.5,127 L314.5,133 L315.5,127 C317.93,125.785 332.157,115 323.5,115 322.57,115 323.533,112 321,112  Z"/>

<path  fill="#FFFF00" stroke-width="0" stroke="#FFFF00" d = " M275 113 C275,118.567 277.112,113 275,113  Z"/>

<path  fill="#FFFF00" stroke-width="0" stroke="#FFFF00" d = " M277 113 C277,114.198 278.532,125 279.5,125 L280,113.5 L278.5,115 L277,113  Z"/>

<path  fill="#FFFF00" stroke-width="0" stroke="#FFFF00" d = " M281 113 C281,116.019 279.489,125.495 282.5,127 287.763,129.632 287.359,116 286.5,116 283.466,116 286.1,124 284.5,124 L284,120 C284,116.433 285.253,113 281,113  Z"/>

<path  fill="#FFFF00" stroke-width="0" stroke="#FFFF00" d = " M288 114 L288.5,121 C289.124,121 289.793,114 288,114  Z"/>

<path  fill="#FFFF00" stroke-width="0" stroke="#FFFF00" d = " M238 115 C238,116.728 236.989,120.255 235.5,121 234.894,121.303 230,116.752 230,120.5 230,122.455 233.889,122 235,122 L246.5,120 C250.646,117.927 242.73,117 242.5,117 241.375,117 239.943,115 238,115  Z"/>

<path  fill="#FFFF00" stroke-width="0" stroke="#FFFF00" d = " M268 116 C268,124.188 270.896,116 268,116  Z"/>

<path  fill="#FFFF00" stroke-width="0" stroke="#FFFF00" d = " M233 117 C233,119.091 236.746,117 233,117  Z"/>

<path  fill="#FFFF00" stroke-width="0" stroke="#FFFF00" d = " M273 117 C273,128.285 276,117.934 276,117.5 L273,117  Z"/>

<path  fill="#FFFF00" stroke-width="0" stroke="#FFFF00" d = " M290 117 L290.5,124 C291.124,124 291.793,117 290,117  Z"/>

<path  fill="#00FFFF" stroke-width="0" stroke="#00FFFF" d = " M188 119 C188,121.112 193.567,119 188,119  Z"/>

<path  fill="#00FFFF" stroke-width="0" stroke="#00FFFF" d = " M141 120 C141,121.419 132.87,123.241 134,125.5 136.512,130.525 156.499,120 144.5,120 L141,120  Z"/>

<path  fill="#FFFF00" stroke-width="0" stroke="#FFFF00" d = " M205 120 L204,130.5 C204.034,130.569 213,128.632 213,125.5 L211,123.5 C211,119.772 209.755,124.627 206.5,123 L205,120  Z"/>

<path  fill="#FFFF00" stroke-width="0" stroke="#FFFF00" d = " M200 122 L199,125.5 C197.241,129.017 199.451,131.524 202.5,130 204.98,128.76 202.779,122 200,122  Z"/>

<path  fill="#FFFF00" stroke-width="0" stroke="#FFFF00" d = " M215 123 C215,126.746 217.091,123 215,123  Z"/>

<path  fill-rule="evenodd" fill="#00FFFF" stroke-width="0" stroke="#00FFFF" d = " M186 222 L186,225 C190.35,225 195.767,227.133 199.5,229 201.995,230.247 212.202,228.149 214.5,227 219.579,224.461 239.268,228 243.5,228 243.5,228 244.5,230 244.5,230 244.5,230 246,228 246,228 246,228 268.5,228 268.5,228 270.696,229.098 273.092,230.704 274.5,230 279.641,227.43 288.907,231.686 293,223.5 294.675,220.151 288.586,222.543 287.5,222 287.5,222 286.5,219 286.5,219 286.136,219 276.294,218.603 275.5,219 273.119,220.191 270.333,219 267.5,219 264.128,219 264.526,222 262.5,222 260.77,222 255.477,219 254.5,219 241.834,219 230.476,220 218,220 218,220 200.5,220 200.5,220 200.5,220 197.5,223 197.5,223 195.73,223 198.366,220.567 195.5,222 194.143,222.678 191.147,220.207 192,218.5 192,218.5 195,215.5 195,215.5 195,213.009 193.189,210.655 196.5,209 196.5,209 206.5,210 206.5,210 209.965,208.268 212.34,210 215.5,210 217.197,210 243.026,207.237 243.5,207 245.742,205.879 253.15,209.675 256.5,208 260.495,206.003 271.847,209.826 273.5,209 279.052,206.224 284.673,207 289.5,207 294.602,207 293.313,214.407 294.5,215 299.672,217.586 293.926,205.213 297.5,207 297.5,207 299,211.5 299,211.5 299,211.5 310.5,222 310.5,222 316.788,225.144 322.222,229.861 328.5,233 328.5,233 331.5,232 331.5,232 331.5,232 333.5,235 333.5,235 333.5,235 339.5,236 339.5,236 339.5,236 340.5,239 340.5,239 340.5,239 347.5,239 347.5,239 348.327,239.414 351.33,242.84 352,241.5 352.545,240.411 352.251,235 350.5,235 339.253,235 342.683,219.091 330.5,213 328.938,212.219 315.772,207.955 315,209.5 315,209.5 314.5,214 314.5,214 314.5,214 312.5,210 312.5,210 312.5,210 310.5,212 310.5,212 310.5,212 303,205.5 303,205.5 296.262,192.024 291.624,176.562 276.5,169 273.951,167.726 264.17,171 260,171 243.421,171 218.546,166.977 204.5,174 192.789,179.855 187.658,208.921 175.5,215 160.192,222.654 151.053,216.394 142,234.5 140.849,236.803 139.172,236.156 138,238.5 137.534,239.432 128.286,240.073 131,245.5 132.052,247.603 143.38,245.06 145.5,244 154.625,239.437 162.43,232.535 171.5,228 171.5,228 178.5,222 178.5,222 178.5,222 187.5,215 187.5,215 187.805,215 188.81,218.88 190,216.5 190,216.5 190,208.5 190,208.5 191.213,206.073 191.929,215.642 191,217.5 189.228,221.045 186,216.264 186,222  M239 195 C228.661,195 218.965,197 209,197 206.796,197 200.419,200.338 199,197.5 198.274,196.049 199.839,189 201.5,189 204.313,189 208.896,184 212.5,184 215.941,184 242.976,178.738 245.5,180 254.512,184.506 267.806,178.153 277.5,183 280.385,184.443 290.276,189.948 288,194.5 287.057,196.385 283.973,195.264 282.5,196 L281.5,198 L280.5,195 C268.611,195 251.994,195 240,195 240,196.186 239,196.186 239,195  Z"/>

<path  fill="#FFFF00" stroke-width="0" stroke="#FFFF00" d = " M239 195 L240,195 C251.994,195 268.611,195 280.5,195 280.5,195 281.5,198 281.5,198 281.5,198 282.5,196 282.5,196 283.973,195.264 287.057,196.385 288,194.5 290.276,189.948 280.385,184.443 277.5,183 267.806,178.153 254.512,184.506 245.5,180 242.976,178.738 215.941,184 212.5,184 208.896,184 204.313,189 201.5,189 199.839,189 198.274,196.049 199,197.5 200.419,200.338 206.796,197 209,197 218.965,197 228.661,195 239,195  Z"/>

<path  fill="#00FFFF" stroke-width="0" stroke="#00FFFF" d = " M101 209 C101,210.93 102.161,209 103,209 103,206.512 101,207.081 101,209  Z"/>

<path  fill-rule="evenodd" fill="#FFFF00" stroke-width="0" stroke="#FFFF00" d = " M83 282 C83,283.93 84.93,282 83,282  M87 272 C87,273.93 88.93,272 87,272  M70 233 C70,239.044 66.4746,238.551 64,243.5 63.0652,245.37 69.0541,246.723 66.5,248 64.4716,249.014 61.888,247 60.5,247 L52,256.5 C47.6262,265.248 58,268.956 58,270.5 58,273.111 55.0965,273.307 55,273.5 54.15,275.2 56,279.27 56,280.5 56,287.733 67.2759,286.388 68.5,287 71.3055,288.403 79.258,297.621 86.5,294 L91.5,288 C93.1183,287.191 93.365,288 94.5,288 95.9867,288 96.5934,283.313 97,282.5 97.9423,280.615 99.6352,284.23 101,281.5 103.146,277.209 102,273.653 102,269.5 L103,267.5 C100.03,261.56 94.9725,265.236 90.5,263 85.3759,260.438 88.9346,259.369 87,255.5 L83,253.5 C82.1305,251.761 79.8658,246.768 81,244.5 L83,241.5 C82.2687,240.037 79.0629,239.626 79,239.5 76.5967,234.693 76.8156,236 72.5,236 L70,233  M77 258 L77,259 C77,261.681 79.5918,267.316 78,270.5 75.2425,276.015 65.6281,287.756 61,278.5 57.5899,271.68 74.6551,271.81 71,264.5 69.7135,261.927 59.8386,268.177 56,260.5 56,260.5 57,257.5 57,257.5 61.6457,248.209 77,251.5 77,258  Z"/>

<path  fill="#9953FF" stroke-width="0" stroke="#9953FF" d = " M241 340 L247,340 C247,338.492 243.708,336.084 245,333.5 247.453,328.593 254,335.893 254,339 254,339 263,339 263,339 263,336.936 259.647,338.574 258.5,338 256.683,337.091 246.224,330.052 248,326.5 252.291,317.919 267.776,332 268.5,332 271.811,332 274.669,335 279,335 280.643,335 290,334.016 290,336.5 290,336.5 287,339 287,339 293.609,339 310.326,326.174 315,321.5 315,321.5 323,317 323,317 323,317 321,313 321,313 317.331,313 320,309.076 320,308 318.855,308 316,308.579 316,307 313.203,307 308.958,299.416 308,297.5 304.247,289.994 290.887,258 309,258 309,255.219 306.019,255.539 305,253.5 303.71,250.92 309,251.456 309,250 305.734,250 311,245.01 311,245 307.13,245 304.101,239 296.5,239 293.827,239 283.864,237.318 280.5,239 279.216,239.642 277.687,239.406 276.5,240 275.163,240.669 278.314,242 276,242 276,245.978 282,242.26 282,245.5 282,245.5 279,247.5 279,247.5 279,247.5 282,249.5 282,249.5 282,249.5 275,253.5 275,253.5 275,253.5 280,254.5 280,254.5 280,255.081 275.583,255.041 277.5,256 278.76,256.63 285,256.086 285,258.5 285,258.5 276,259.5 276,259.5 276,259.5 285,260.5 285,260.5 285,264.695 275,261.98 275,263.5 275,263.5 280,264.5 280,264.5 280,264.5 270.5,265 270.5,265 266.598,265 256.09,268.295 253.5,267 253.5,267 245,263 245,263 245,263 243,263 243,263 243,263 239,265.5 239,265.5 239,265.5 239.5,267 239.5,267 239.253,267.123 211.158,265.329 210.5,265 208.224,263.862 208.857,261.214 208,259.5 208,259.5 205,257.5 205,257.5 205,257.5 207.5,257 207.5,257 207.5,257 209,253.5 209,253.5 209,253.5 207,249.5 207,249.5 207,247.128 210,242.945 210,241 210,241 204.5,239 204.5,239 204.5,239 202.5,236 202.5,236 200.192,236 195.926,240.287 194.5,241 194.016,241.242 175.546,246 175,246 175,246 176,250 176,250 176,250 176,251 176,251 178.245,251 185,250.724 185,254.5 185,254.5 180,260 180,260 180,260 180,261 180,261 180,266.392 183.502,268.499 188.5,266 191.036,264.732 194.12,269.259 193,271.5 193,271.5 187,275.5 187,275.5 187,286.378 183.211,283.077 179,291.5 179,291.5 179,299.5 179,299.5 177.452,302.595 173,306.138 173,309 174.729,309 171,311.634 171,313 171,313 170,314 170,314 170,314 170,315 170,315 170,315 168,318 168,318 168,320.233 175.03,320.56 176,322.5 176,322.5 178.5,328 178.5,328 178.5,328 187.5,330 187.5,330 187.5,330 190.5,333 190.5,333 190.5,333 195.5,333 195.5,333 199.216,334.858 196.328,337 202,337 202,333.01 212.164,336.168 216.5,334 226.166,329.167 226.595,325 239,325 239,325 243,325.5 243,325.5 243.872,327.244 230,337.194 230,339 230,339 234,339 234,339 234,337.213 241.592,329.684 243,332.5 245.071,336.641 241,336.539 241,340  Z"/>

<path  fill="#EB57FF" stroke-width="0" stroke="#EB57FF" d = " M210 241 C213.269,241 212.541,239.979 214.5,239 217.018,237.741 230.552,244.026 232.5,245 235.601,246.551 239.367,263 243,263 243,263 239,265.5 239,265.5 239,265.5 239.5,267 239.5,267 239.253,267.123 211.158,265.329 210.5,265 208.224,263.862 208.857,261.214 208,259.5 208,259.5 205,257.5 205,257.5 205,257.5 207.5,257 207.5,257 207.5,257 209,253.5 209,253.5 209,253.5 207,249.5 207,249.5 207,247.128 210,242.945 210,241  Z"/>

<path  fill="#9953FF" stroke-width="0" stroke="#9953FF" d = " M262 242 L263,242 C263,242 263,241 263,241 263,241 262,241 262,241 262,241 262,242 262,242  Z"/>

<path  fill="#EB57FF" stroke-width="0" stroke="#EB57FF" d = " M276 242 C276,245.978 282,242.26 282,245.5 L279,247.5 L282,249.5 L275,253.5 L280,254.5 C280,255.081 275.583,255.041 277.5,256 278.76,256.63 285,256.086 285,258.5 L276,259.5 L285,260.5 C285,264.695 275,261.98 275,263.5 L280,264.5 L270.5,265 C266.598,265 256.09,268.295 253.5,267 L245,263 C245,258.466 252.461,256.578 254,253.5 255.351,250.799 255.592,247.316 257,244.5 257,244.5 262,242 262,242 262,242 263,242 263,242 263,242 265,241 265,241 266.741,241 276,240.227 276,242  Z"/>

<path  fill="#34FF0D" stroke-width="0" stroke="#34FF0D" d = " M321 313 L323,317 C323,317 326.5,318 326.5,318 333.889,314.306 350.495,296.491 345,285.5 343.654,282.809 344.248,276.995 344,276.5 344,276.5 342,274.5 342,274.5 342,274.5 344,272.5 344,272.5 344,272.5 338,267.5 338,267.5 331.649,254.798 328.277,245 311,245 311,245.01 305.734,250 309,250 314.913,250 318.255,256.877 322.5,259 326.12,260.81 328.236,265.972 330,269.5 330,269.5 334,272.5 334,272.5 337.501,279.501 339.846,290.808 336,298.5 334.996,300.509 329,305.569 329,307.5 329,312.399 325.861,313 321,313  Z"/>

<path  fill="#34FF0D" stroke-width="0" stroke="#34FF0D" d = " M170 315 L168,318 C157.409,318 150.402,310.304 146,301.5 146,301.5 145,295.5 145,295.5 136.155,277.81 155.272,246 175,246 175,246 176,250 176,250 176,250 175,251 175,251 175,253.91 159.384,265.732 157,270.5 154.503,275.495 147.592,286.683 151,293.5 151.782,295.064 151.269,297.038 152,298.5 152,298.5 155,302 155,302 153.814,302 153.814,303 155,303 155,303 156,304 156,304 156,304 157,305 157,305 157,309.638 166.149,315 170,315  Z"/>

<path  fill="#46A515" stroke-width="0" stroke="#46A515" d = " M98 249 C98,250.384 94.8113,250.123 96,252.5 98.3999,257.3 108.646,249 98,249  Z"/>

<path  fill="#FA8072" stroke-width="0" stroke="#FA8072" d = " M320 308 C320,309.076 317.331,313 321,313 325.861,313 329,312.399 329,307.5 329,305.569 334.996,300.509 336,298.5 339.846,290.808 337.501,279.501 334,272.5 334,272.5 330,269.5 330,269.5 328.236,265.972 326.12,260.81 322.5,259 318.255,256.877 314.913,250 309,250 309,251.456 303.71,250.92 305,253.5 306.019,255.539 309,255.219 309,258 309,258 317.5,267 317.5,267 325.43,274.93 333.828,286.844 328,298.5 326.815,300.87 322.946,308 320,308  Z"/>

<path  fill="#46A515" stroke-width="0" stroke="#46A515" d = " M395 250 C395,252.568 401.895,261.711 404,257.5 405.872,253.757 397.428,250 395,250  Z"/>

<path  fill="#00FFFF" stroke-width="0" stroke="#00FFFF" d = " M77 258 C75.8141,258 75.8141,259 77,259 77,261.681 79.5918,267.316 78,270.5 75.2425,276.015 65.6281,287.756 61,278.5 57.5899,271.68 74.6551,271.81 71,264.5 69.7135,261.927 59.8386,268.177 56,260.5 56,260.5 57,257.5 57,257.5 61.6457,248.209 77,251.5 77,258  Z"/>

<path  fill="#FA8072" stroke-width="0" stroke="#FA8072" d = " M170 314 L170,315 C166.149,315 157,309.638 157,305 157,303.942 156,301.971 156,304 156,304 155,303 155,303 155,303 155,302 155,302 155,302 152,298.5 152,298.5 151.269,297.038 151.782,295.064 151,293.5 147.592,286.683 154.503,275.495 157,270.5 159.384,265.732 175,253.91 175,251 175,251 176,251 176,251 178.245,251 185,250.724 185,254.5 185,254.5 180,260 180,260 180,260 179,261 179,261 172.957,261 172.069,268.363 170,272.5 170,272.5 164,278.5 164,278.5 159.047,288.407 158.542,309 173,309 174.729,309 171,311.634 171,313 171,313 170,314 170,314  Z"/>

<path  fill="#FFFF00" stroke-width="0" stroke="#FFFF00" d = " M415 252 C415,254.715 411.118,254.265 411,254.5 409.482,257.537 410.524,261.453 409,264.5 406.345,269.809 416.569,273.465 419.5,272 L420.5,270 C421.832,270 419.849,275.326 422.5,274 425.619,272.441 426.695,252 415,252  Z"/>

<path  fill="#5BF1FF" stroke-width="0" stroke="#5BF1FF" d = " M316 307 C317.145,307 320,306.421 320,308 322.946,308 326.815,300.87 328,298.5 333.828,286.844 325.43,274.93 317.5,267 317.5,267 309,258 309,258 290.887,258 304.247,289.994 308,297.5 308.958,299.416 313.203,307 316,307  Z"/>

<path  fill="#5BF1FF" stroke-width="0" stroke="#5BF1FF" d = " M180 261 C180,266.392 183.502,268.499 188.5,266 191.036,264.732 194.12,269.259 193,271.5 L187,275.5 C187,286.378 183.211,283.077 179,291.5 L179,299.5 C177.452,302.595 173,306.138 173,309 158.542,309 159.047,288.407 164,278.5 164,278.5 170,272.5 170,272.5 172.069,268.363 172.957,261 179,261 179,261 180,261 180,261  Z"/>

<path  fill="#FFFF00" stroke-width="0" stroke="#FFFF00" d = " M397 264 C397,269.105 387.331,273.163 391,280.5 393.818,286.136 407.785,288.93 410,284.5 412.783,278.933 409.19,274.881 407,270.5 L407.5,266 C404.214,264.357 405.664,270.082 403.5,269 401.309,267.904 400.556,264 397,264  Z"/>

<path  fill="#00FFFF" stroke-width="0" stroke="#00FFFF" d = " M87 272 C87,273.93 88.93,272 87,272  Z"/>

<path  fill="#00FFFF" stroke-width="0" stroke="#00FFFF" d = " M83 282 C83,283.93 84.93,282 83,282  Z"/>

<path  fill="#46A515" stroke-width="0" stroke="#46A515" d = " M414 286 L413.5,290 C414.555,291.055 413.922,297 416.5,297 421.177,297 418.541,286 414,286  Z"/>

<path  fill="#46A515" stroke-width="0" stroke="#46A515" d = " M69 301 L67,304.5 C66.0307,306.439 69.5521,308.974 71.5,308 73.8016,306.849 70.77,301 69,301  Z"/>

<path  fill="#34FF0D" stroke-width="0" stroke="#34FF0D" d = " M171 313 L170,314 C170,314 171,313 171,313  Z"/>

<path  fill-rule="evenodd" fill="#00F60E" stroke-width="0" stroke="#00F60E" d = " M253 327 C253,328.797 257,332.043 257,330.5 L254,328.5 L253,327  M286 339 L287,339 C287,339 290,336.5 290,336.5 290,334.016 280.643,335 279,335 274.669,335 271.811,332 268.5,332 267.776,332 252.291,317.919 248,326.5 246.224,330.052 256.683,337.091 258.5,338 259.647,338.574 263,336.936 263,339 266.461,339 268.102,342 272,342 272,342 275.5,339 275.5,339 278.771,337.365 282.273,339 286,339  Z"/>

<path  fill-rule="evenodd" fill="#00F60E" stroke-width="0" stroke="#00F60E" d = " M227 330 C227,332.091 230.746,330 227,330  M231 328 C231,334.852 238.807,328 231,328  M219 341 C219,339.814 220,339.814 220,341 220,341 230,339 230,339 230,337.194 243.872,327.244 243,325.5 243,325.5 239,325 239,325 226.595,325 226.166,329.167 216.5,334 212.164,336.168 202,333.01 202,337 202,337 204,338 204,338 211.91,338 214.111,341 219,341  Z"/>

<path  fill="#9953FF" stroke-width="0" stroke="#9953FF" d = " M253 327 C253,328.797 257,332.043 257,330.5 L254,328.5 L253,327  Z"/>

<path  fill="#9953FF" stroke-width="0" stroke="#9953FF" d = " M231 328 C231,334.852 238.807,328 231,328  Z"/>

<path  fill="#9953FF" stroke-width="0" stroke="#9953FF" d = " M227 330 C227,332.091 230.746,330 227,330  Z"/>

<path  fill="#00F60E" stroke-width="0" stroke="#00F60E" d = " M241 340 L240,341 C237.28,341 236.447,339 234,339 234,337.213 241.592,329.684 243,332.5 245.071,336.641 241,336.539 241,340  Z"/>

<path  fill="#00F60E" stroke-width="0" stroke="#00F60E" d = " M252 340 L251,341 C251,341 247,340 247,340 247,338.492 243.708,336.084 245,333.5 247.453,328.593 254,335.893 254,339 254,339 252,340 252,340  Z"/>

<path  fill="#9953FF" stroke-width="0" stroke="#9953FF" d = " M219 341 L216,344 C213.868,344 204,341.006 204,338 211.91,338 214.111,341 219,341  Z"/>

<path  fill="#9953FF" stroke-width="0" stroke="#9953FF" d = " M272 342 L274,344 C275.897,344 286,340.896 286,339 282.273,339 278.771,337.365 275.5,339 275.5,339 272,342 272,342  Z"/>

<path  fill="#FF3427" stroke-width="0" stroke="#FF3427" d = " M240 341 C240,352.779 218.141,352.782 215,346.5 L216,344 C216,344 219,341 219,341 219,341 220,341 220,341 220,341 230,339 230,339 230,339 234,339 234,339 236.447,339 237.28,341 240,341  Z"/>

<path  fill="#FF3427" stroke-width="0" stroke="#FF3427" d = " M272 342 L274,344 C274,348.877 251,359.103 251,341 251,341 252,340 252,340 252,340 254,339 254,339 254,339 263,339 263,339 266.461,339 268.102,342 272,342  Z"/>

<path  fill="#9953FF" stroke-width="0" stroke="#9953FF" d = " M219 341 L220,341 C220,339.814 219,339.814 219,341  Z"/>

<path  fill="#9953FF" stroke-width="0" stroke="#9953FF" d = " M252 340 L251,341 C251,341 252,340 252,340  Z"/>

</g>
</svg>
