<svg xmlns="http://www.w3.org/2000/svg" xmlns:xlink="http://www.w3.org/1999/xlink" height="512" width="512">
<g>
<rect width="512" height="512" fill="#000000"  stroke-width="0" /> 
<path  fill="#FA8072" stroke-width="0" stroke="#FA8072" d = " M176 306 C176,308.898 181,307.109 181,309.5 181,311.626 176.211,311 175,311 168.283,311 160.979,295.458 158,289.5 157.654,288.807 160.467,280.566 161,279.5 164.81,271.879 173.756,258.372 182.5,254 182.5,254 196.5,249 196.5,249 196.5,249 202,252 202,252 202,252 204,256 204,256 204,256 193.5,255 193.5,255 193.5,255 189,257 189,257 189,253.678 183.597,258 187,258 187,259.559 181.18,263 180,263 178.253,263 178,263.253 178,265 178,265 176,266 176,266 176,266 175,267 175,267 175,267 174,268 174,268 174,268 173,269 173,269 173,269 169,273.5 169,273.5 164.381,282.738 163.023,294.523 170.5,302 170.5,302 173,305 173,305 173,305 174,306 174,306 174,306 176,306 176,306  Z"/>

<path  fill-rule="evenodd" fill="#9953FF" stroke-width="0" stroke="#9953FF" d = " M227 333 C227,334.93 228.93,333 227,333  M243 268 C243,271.58 240.253,271.994 239,274.5 L238.5,277 L237.5,275 C234.084,273.292 231.624,277.252 230,280.5 228.71,283.08 233.103,284.705 234,286.5 237.203,292.907 251.872,295.755 256,287.5 260.845,277.809 254,278.736 254,276.5 254,272.326 251.78,273 248.5,273 247.553,273 245.682,268 243,268  M241 323 C241,324.845 237.619,324.441 236.5,325 234.53,325.985 233,331.158 233,331.5 233,332.703 229,332.442 229,335 225.323,335 225.08,334.29 222.5,333 216.385,329.943 202.926,334.713 195.5,331 192.236,329.368 190.321,325.41 187.5,324 184.413,322.457 181.2,323.901 179,319.5 179,319.5 180,316.5 180,316.5 180,316.5 175,311 175,311 176.211,311 181,311.626 181,309.5 181,307.109 176,308.898 176,306 176,305.563 185.512,299.988 187,298.5 187,298.5 196,290.5 196,290.5 196,290.5 201.5,282 201.5,282 201.5,282 206.5,280 206.5,280 208.776,278.862 208.143,276.214 209,274.5 209,274.5 213,271.5 213,271.5 216.244,265.013 204,259.022 204,256 204,256 202,252 202,252 206.347,252 219.244,248.872 221.5,250 221.5,250 223.5,253 223.5,253 223.5,253 232.5,254 232.5,254 232.5,254 234.5,256 234.5,256 238.981,256 234.184,252.342 243.5,257 244.367,257.434 251.899,253.699 256.5,256 259.868,257.684 271.661,248.58 276.5,251 280.407,252.953 281.161,255 286,255 286,255.716 283.627,258 286,258 286,258.855 276.82,263.14 280,269.5 282.377,274.254 289.904,274.308 291,276.5 293.895,282.29 298.1,287.7 301,293.5 303.044,297.588 301.307,302.113 303,305.5 303,305.5 306.5,308 306.5,308 312.533,311.017 318.356,301 320,301 320,301 320,303 320,303 320,303 320,305 320,305 320,309.75 311.05,311.4 309,315.5 305.712,322.077 300.144,325.178 294.5,328 294.5,328 287.5,334 287.5,334 287.5,334 284.5,333 284.5,333 284.5,333 278.5,336 278.5,336 278.5,336 258,336 258,336 258,336 259,332.5 259,332.5 259,332.5 256,330.5 256,330.5 254.897,328.294 252.893,321 249,321 249,314.534 250.713,296 244.5,296 244.5,296 243,301.5 243,301.5 240.543,306.414 241,317.422 241,323  Z"/>

<path  fill="#FA8072" stroke-width="0" stroke="#FA8072" d = " M320 303 L320,305 C325.034,305 327.098,297.304 329,293.5 329,293.5 328,289.5 328,289.5 331.037,283.427 325,281.913 325,278.5 325,278.5 326,275.5 326,275.5 326,275.5 322,272.5 322,272.5 317.881,264.262 312.772,258.136 304.5,254 301.702,252.601 286,245.798 286,255 286,255.716 283.627,258 286,258 288.618,258 293.472,255.486 296.5,257 314.634,266.067 314.937,267.374 324,285.5 325.411,288.322 323,292.579 323,295 323,296.048 323.473,298 322,298 322,298 322,299 322,299 322,299 320,303 320,303  Z"/>

<path  fill="#5BF1FF" stroke-width="0" stroke="#5BF1FF" d = " M174 306 L176,306 C176,305.563 185.512,299.988 187,298.5 187,298.5 196,290.5 196,290.5 196,290.5 201.5,282 201.5,282 201.5,282 206.5,280 206.5,280 208.776,278.862 208.143,276.214 209,274.5 209,274.5 213,271.5 213,271.5 216.244,265.013 204,259.022 204,256 204,256 193.5,255 193.5,255 193.5,255 189,257 189,257 189,257 187,258 187,258 187,259.559 181.18,263 180,263 180,263 178,265 178,265 178,265 176,266 176,266 176,266 175,267 175,267 175,267 174,268 174,268 174,268 173,269 173,269 173,269 169,273.5 169,273.5 164.381,282.738 163.023,294.523 170.5,302 170.5,302 173,305 173,305 173,305 174,306 174,306  Z"/>

<path  fill="#5BF1FF" stroke-width="0" stroke="#5BF1FF" d = " M322 299 L320,301 C318.356,301 312.533,311.017 306.5,308 306.5,308 303,305.5 303,305.5 301.307,302.113 303.044,297.588 301,293.5 298.1,287.7 293.895,282.29 291,276.5 289.904,274.308 282.377,274.254 280,269.5 276.82,263.14 286,258.855 286,258 288.618,258 293.472,255.486 296.5,257 314.634,266.067 314.937,267.374 324,285.5 325.411,288.322 323,292.579 323,295 320.319,295 322,297.078 322,298 322,298 322,299 322,299  Z"/>

<path  fill-rule="evenodd" fill="#EB57FF" stroke-width="0" stroke="#EB57FF" d = " M244 285 L243,287 C243,292.164 249.765,285 244,285  M243 268 C243,271.58 240.253,271.994 239,274.5 L238.5,277 L237.5,275 C234.084,273.292 231.624,277.252 230,280.5 228.71,283.08 233.103,284.705 234,286.5 237.203,292.907 251.872,295.755 256,287.5 260.845,277.809 254,278.736 254,276.5 254,272.326 251.78,273 248.5,273 247.553,273 245.682,268 243,268  Z"/>

<path  fill="#27F4FD" stroke-width="0" stroke="#27F4FD" d = " M244 285 L243,287 C243,292.164 249.765,285 244,285  Z"/>

<path  fill="#7209D4" stroke-width="0" stroke="#7209D4" d = " M244 324 L245,324 C245,320.316 249,325.051 249,321 249,314.534 250.713,296 244.5,296 244.5,296 243,301.5 243,301.5 240.543,306.414 241,317.422 241,323 243.041,323 244,321.155 244,324  Z"/>

<path  fill="#FF3427" stroke-width="0" stroke="#FF3427" d = " M245 324 C245,333.65 248.611,336 258,336 258,336 259,332.5 259,332.5 259,332.5 256,330.5 256,330.5 254.897,328.294 252.893,321 249,321 249,325.051 245,320.316 245,324  Z"/>

<path  fill="#FF3427" stroke-width="0" stroke="#FF3427" d = " M244 324 C244,335.596 237.465,335 229,335 229,332.442 233,332.703 233,331.5 233,331.158 234.53,325.985 236.5,325 237.619,324.441 241,324.845 241,323 243.041,323 244,321.155 244,324  Z"/>

</g>
</svg>
