<svg xmlns="http://www.w3.org/2000/svg" xmlns:xlink="http://www.w3.org/1999/xlink" height="512" width="512">
<g>
<rect width="512" height="512" fill="#000000"  stroke-width="0" /> 
<path  fill-rule="evenodd" fill="#86FF5A" stroke-width="0" stroke="#86FF5A" d = " M240 318 C240,319.575 235.199,318.898 237,322.5 239.688,327.877 247.922,328.657 251,322.5 252.194,320.112 247.373,317.064 245.5,318 243.218,319.141 242.733,318 240,318  M225 285 C225,288.935 215.275,286.613 210.5,289 L208.5,292 L205.5,291 L202.5,294 C195.201,297.65 195.393,300.713 192,307.5 L192,321 C192,329.439 193.759,341.017 196,345.5 L201,349.5 L200,351.5 C200,355.126 206.332,356.916 208.5,358 L210.5,363 C215.739,365.62 228.526,373.487 235.5,370 L243.5,363 C244.948,363 250.127,375.187 258.5,371 L269.5,368 C277.67,363.915 289,353.019 289,348.5 289,345.112 295,343.164 295,341.5 L294,339.5 L297,337.5 L296,334.5 C299.39,327.72 298.83,300.665 291.5,297 L288.5,297 C285.694,295.597 283.841,291.67 280.5,290 L273.5,290 C270.757,288.628 261.87,284.315 258.5,286 244.17,293.165 235.775,285 225,285  Z"/>

<path  fill-rule="evenodd" fill="#EB57FF" stroke-width="0" stroke="#EB57FF" d = " M244 324 C244,325.93 245.93,324 244,324  M240 318 C240,319.575 235.199,318.898 237,322.5 239.688,327.877 247.922,328.657 251,322.5 252.194,320.112 247.373,317.064 245.5,318 243.218,319.141 242.733,318 240,318  Z"/>

<path  fill="#27F4FD" stroke-width="0" stroke="#27F4FD" d = " M244 324 C244,325.93 245.93,324 244,324  Z"/>

</g>
</svg>
