<svg xmlns="http://www.w3.org/2000/svg" xmlns:xlink="http://www.w3.org/1999/xlink" height="512" width="512">
<g>
<rect width="512" height="512" fill="#000000"  stroke-width="0" /> 
<path  fill-rule="evenodd" fill="#86FF5A" stroke-width="0" stroke="#86FF5A" d = " M240 348 C240,350.173 237.925,353.349 239,355.5 244.102,365.705 259.074,348 240,348  M240 310 L234.5,313 L232.5,311 L228.5,314 C223.737,316.382 218.209,317.646 213.5,320 206.899,323.301 199.738,338.025 197,343.5 L197,350.5 C191.439,361.623 199.338,384.419 208.5,389 210.953,390.226 210.403,395.451 213.5,397 217.018,398.759 221.099,399.299 224.5,401 225.356,401.428 223.384,402.942 225.5,404 L229.5,403 C234.209,403 236.9,404.3 241.5,402 L244.5,398 C246.959,396.771 249.52,402.01 251.5,403 L263.5,403 C273.879,397.811 283.956,389.588 289,379.5 290.609,376.281 289.355,372.789 291,369.5 L295,365.5 L293,359.5 C296.375,352.751 287.861,332.223 285,326.5 284.572,325.644 283.058,327.616 282,325.5 277.072,315.645 266.254,317.377 257.5,313 L249.5,313 C245.88,311.19 244.483,310 240,310  Z"/>

<path  fill-rule="evenodd" fill="#EB57FF" stroke-width="0" stroke="#EB57FF" d = " M244 353 C244,356.746 246.091,353 244,353  M240 348 C240,350.173 237.925,353.349 239,355.5 244.102,365.705 259.074,348 240,348  Z"/>

<path  fill="#27F4FD" stroke-width="0" stroke="#27F4FD" d = " M244 353 C244,356.746 246.091,353 244,353  Z"/>

</g>
</svg>
