<svg xmlns="http://www.w3.org/2000/svg" xmlns:xlink="http://www.w3.org/1999/xlink" height="512" width="512">
<g>
<rect width="512" height="512" fill="#000000"  stroke-width="0" /> 
<path  fill="#FFFF00" stroke-width="0" stroke="#FFFF00" d = " M242 207 L239,209.5 C234.489,218.521 251.897,215.397 245,208.5 L242,207  Z"/>

<path  fill-rule="evenodd" fill="#9953FF" stroke-width="0" stroke="#9953FF" d = " M244 268 C244,270.437 232.005,271.49 229,277.5 226.658,282.183 233,281.413 233,284.5 233,290.422 235.146,287.823 239.5,290 246.238,293.369 248.825,292.338 255.5,289 258.97,287.265 260.296,274.898 256.5,273 254.048,271.774 250.811,272.156 248.5,271 246.804,270.152 246.974,268 244,268  M227 333 L228,333 C233.697,333 233.299,325.6 236.5,324 237.43,323.535 241,323.183 241,322 241,316.807 240.695,306.109 243,301.5 243,301.5 244.5,296 244.5,296 249.993,296 249,313.675 249,320 253.205,320 256.613,334 259,334 279.175,334 295.654,338.192 306,317.5 306,317.5 310,312 310,312 310,309.75 312,308.624 312,307 309.577,307 304.278,308.055 303,305.5 303,305.5 303,301.5 303,301.5 300.172,295.844 297.811,290.121 295,284.5 291.077,276.654 283.409,274.317 280,267.5 276.879,261.259 287,260.225 287,256 287,256 287,254 287,254 280.791,254 282.623,250.561 279.5,249 273.967,246.233 259.137,254.819 257.5,254 257.5,254 256.5,252 256.5,252 253.607,252 247.306,257.903 243.5,256 241.172,254.836 240.603,253.051 238.5,252 238.5,252 225.5,253 225.5,253 222.563,251.531 216.919,245.29 211.5,248 208.39,249.555 211.35,252 207,252 207,252 213,256.5 213,256.5 213.657,257.815 215.386,263 212,263 212,265.519 215.03,271.235 211.5,273 211.5,273 197.5,276 197.5,276 188.835,280.333 183.425,307 175,307 175,308.811 180.316,311 176,311 176,318.847 181.314,322.907 187.5,326 187.5,326 193.5,331 193.5,331 202.87,335.685 212.597,333 223,333 223,331.465 227,331.465 227,333  Z"/>

<path  fill="#FA8072" stroke-width="0" stroke="#FA8072" d = " M175 307 C175,308.811 180.316,311 176,311 176,311 172.5,312 172.5,312 163.278,307.389 160.73,294.961 157,287.5 157,287.5 161,275.5 161,275.5 168.08,261.339 179.805,256.347 192.5,250 196.809,247.845 202.963,252 207,252 207,252 213,256.5 213,256.5 213.657,257.815 215.386,263 212,263 212,263 210,261 210,261 210,261 207,257 207,257 203.244,257 197.042,252.729 192.5,255 186.522,257.989 173.255,263.989 170,270.5 168.307,273.886 167.658,278.185 166,281.5 164.754,283.991 162.327,290.153 164,293.5 165.856,297.213 167.362,300.862 170.5,304 170.5,304 175,307 175,307  Z"/>

<path  fill="#9953FF" stroke-width="0" stroke="#9953FF" d = " M291 251 L293,251 C293,249.601 291,249.601 291,251  Z"/>

<path  fill="#FA8072" stroke-width="0" stroke="#FA8072" d = " M312 307 L314,307 C314,307 315,306 315,306 317.167,306 321,304.633 321,302 321,302 322,301 322,301 322,301 322,300 322,300 322,300 323,299 323,299 323,299 323,298 323,298 324.473,298 324,296.048 324,295 324,292.579 326.411,288.322 325,285.5 325,285.5 322,276.5 322,276.5 322,276.5 318,273.5 318,273.5 312.324,262.148 298.52,256 287,256 287,256 287,254 287,254 287,252.288 289.571,251 291,251 291,251 293,251 293,251 305.12,251 319.368,261.236 325,272.5 325,272.5 329,283.5 329,283.5 332.638,290.776 323.112,309.694 316.5,313 314.339,314.081 311.606,312 310,312 310,309.75 312,308.624 312,307  Z"/>

<path  fill="#5BF1FF" stroke-width="0" stroke="#5BF1FF" d = " M212 263 C212,265.519 215.03,271.235 211.5,273 L197.5,276 C188.835,280.333 183.425,307 175,307 175,307 170.5,304 170.5,304 167.362,300.862 165.856,297.213 164,293.5 162.327,290.153 164.754,283.991 166,281.5 167.658,278.185 168.307,273.886 170,270.5 173.255,263.989 186.522,257.989 192.5,255 197.042,252.729 203.244,257 207,257 207,257 210,261 210,261 210,261 212,263 212,263  Z"/>

<path  fill="#5BF1FF" stroke-width="0" stroke="#5BF1FF" d = " M312 307 L314,307 C314,307 315,306 315,306 317.167,306 321,304.633 321,302 321,302 322,301 322,301 322,301 322,300 322,300 322,300 323,299 323,299 323,299 323,298 323,298 321.272,298 323.187,295 324,295 324,292.579 326.411,288.322 325,285.5 325,285.5 322,276.5 322,276.5 322,276.5 318,273.5 318,273.5 312.324,262.148 298.52,256 287,256 287,260.225 276.879,261.259 280,267.5 283.409,274.317 291.077,276.654 295,284.5 297.811,290.121 300.172,295.844 303,301.5 303,301.5 303,305.5 303,305.5 304.278,308.055 309.577,307 312,307  Z"/>

<path  fill="#9953FF" stroke-width="0" stroke="#9953FF" d = " M207 257 L210,261 C210,261 207,257 207,257  Z"/>

<path  fill-rule="evenodd" fill="#EB57FF" stroke-width="0" stroke="#EB57FF" d = " M244 282 L243,284 C243,291.563 250.251,282 244,282  M244 268 C244,270.437 232.005,271.49 229,277.5 226.658,282.183 233,281.413 233,284.5 233,290.422 235.146,287.823 239.5,290 246.238,293.369 248.825,292.338 255.5,289 258.97,287.265 260.296,274.898 256.5,273 254.048,271.774 250.811,272.156 248.5,271 246.804,270.152 246.974,268 244,268  Z"/>

<path  fill="#27F4FD" stroke-width="0" stroke="#27F4FD" d = " M244 282 L243,284 C243,291.563 250.251,282 244,282  Z"/>

<path  fill="#7209D4" stroke-width="0" stroke="#7209D4" d = " M243 323 C243,321.814 244,321.814 244,323 246.377,323 247.496,320 249,320 249,313.675 249.993,296 244.5,296 244.5,296 243,301.5 243,301.5 240.695,306.109 241,316.807 241,322 241,322 243,323 243,323  Z"/>

<path  fill="#FF3427" stroke-width="0" stroke="#FF3427" d = " M228 333 C228,337.476 236.507,335.997 240.5,334 242.362,333.069 242.509,325 244.5,325 L245.5,332 C246.484,332.492 259,340.299 259,334 256.613,334 253.205,320 249,320 247.496,320 246.377,323 244,323 244,323 243,323 243,323 243,323 241,322 241,322 241,323.183 237.43,323.535 236.5,324 233.299,325.6 233.697,333 228,333  Z"/>

<path  fill="#9953FF" stroke-width="0" stroke="#9953FF" d = " M243 323 L244,323 C244,321.814 243,321.814 243,323  Z"/>

<path  fill="#00F60E" stroke-width="0" stroke="#00F60E" d = " M223 333 L227,333 C227,331.465 223,331.465 223,333  Z"/>

</g>
</svg>
