<svg xmlns="http://www.w3.org/2000/svg" xmlns:xlink="http://www.w3.org/1999/xlink" height="512" width="512">
<g>
<rect width="512" height="512" fill="#000000"  stroke-width="0" /> 
<path  fill="#03C12D" stroke-width="0" stroke="#03C12D" d = " M142 327 C140.097,327 138.774,339.137 132.5,336 126.447,332.973 122.699,328.1 116.5,325 109.386,321.443 97.5276,321.555 93,312.5 90.6394,307.779 86.3962,305.292 84,300.5 82.2323,296.965 85.2596,291.019 84,288.5 82.6103,285.721 75.4248,287.35 74,284.5 73.374,283.248 74.1566,276.813 73,274.5 70.5318,269.564 67.3842,265.268 65,260.5 62.7577,256.015 65.2997,246.099 65,245.5 L62,243.5 L63,239 L63,224 C63,211.638 60.9901,191.52 66,181.5 L69,178.5 C69.3434,177.813 68.6992,167.102 70,164.5 74.3296,155.841 81.8469,145.806 87,135.5 88.9718,131.556 96.0707,127.715 99.5,126 L101.5,123 C108.327,119.586 114.631,115.435 121.5,112 L127.5,111 C135.821,106.84 143.449,105.026 151.5,101 156.449,98.5255 164.568,101.466 169.5,99 172.404,97.5478 177.18,95 180.5,95 181.684,95 183.675,96.9126 185.5,96 188.086,94.7069 215.103,90.8016 217.5,92 221.785,94.1426 227.309,93.9047 231.5,96 L240.5,106 L243,105.5 C245.112,101.277 249.023,95.2384 253.5,93 257.507,90.9965 286.999,86.7496 291.5,89 L301.5,93 L305.5,97 C308.394,98.4468 312.427,97.4635 315.5,99 318.209,100.355 322.666,95.0829 326.5,97 330.119,98.8094 335.009,98.2544 338.5,100 340.503,101.002 342.1,103.3 343.5,104 347.948,106.224 354.947,103.724 359.5,106 364.638,108.569 369.316,112.408 374.5,115 L378.5,120 C380.909,121.204 383.484,119.492 386.5,121 394.345,124.923 400.328,133.157 404,140.5 406.268,145.037 413.416,148.331 416,153.5 419.553,160.606 424,180.237 424,187.5 L426,188.5 C428.744,193.988 426.202,201.905 429,207.5 L428,226.5 C430.929,232.358 425.292,262.916 422,269.5 L416,274.5 C414.133,278.234 415.698,285.103 415,286.5 L412,288.5 L412,293.5 C409.248,299.004 405.721,304.059 403,309.5 400.904,313.692 396.944,315.278 393.5,317 L385.5,325 C378.106,328.697 370.896,332.302 363.5,336 360.526,337.487 357.412,334 355,334 355,334 358,330.5 358,330.5 359.59,327.319 363.073,308.646 361,304.5 360.218,302.936 360.731,300.962 360,299.5 358.577,296.654 354,295.835 354,293 354,293 355,292 355,292 356.577,292 357,290.238 357,289 357,289 358,288 358,288 358,288 360,286 360,286 360,286 361,285 361,285 361,281.525 374,270.646 374,264 374,264 375,263 375,263 375,263 375,261 375,261 375,261 376,259 376,259 376,259 377,258 377,258 377,258 378,255 378,255 378,255 378,254 378,254 378,254 378,253 378,253 379.684,253 379,248.321 379,247 379,247 380,247 380,247 380,249.591 380.171,256.157 383,250.5 385.746,245.008 385,233.922 385,227.5 385,224.657 383.581,212.662 382,209.5 380.969,207.438 379.942,205.384 379,203.5 379,203.5 376,201.5 376,201.5 376,199.982 375.19,194.881 374,192.5 374,192.5 371,190.5 371,190.5 371,190.5 371,186.5 371,186.5 371,186.5 365,181.5 365,181.5 363.075,179.575 365,180.166 365,178.5 365,178.5 358,174.5 358,174.5 358,174.5 358,171.5 358,171.5 356.305,168.111 349.38,167.44 346.5,166 346.5,166 344.5,162 344.5,162 342.967,161.233 341.182,160.841 339.5,160 339.5,160 334.5,160 334.5,160 325.531,155.516 317.395,155.447 308.5,151 308.5,151 305.5,152 305.5,152 303.312,150.906 287.781,146 286,146 286,144.601 284,144.601 284,146 281.072,146 276.836,146 274,146 274,146 273,144 273,144 273,144 271,143 271,143 271,140.607 267.766,140 266,140 262.033,140 246.084,125 241.5,125 238.458,125 222.954,138.773 218.5,141 216.366,142.067 211.664,149 211,149 209.457,149 206.355,145.072 204.5,146 199.241,148.629 191.614,146.943 187.5,149 187.5,149 184.5,152 184.5,152 182.326,153.087 178.369,150.566 175.5,152 166.105,156.697 157.056,157.222 147.5,162 138.051,166.724 123.331,180.838 118,191.5 114.269,198.963 111.743,207.015 108,214.5 105.22,220.061 108.44,232.619 106,237.5 104.43,240.64 107.581,250 108.5,250 108.551,250 111,257.975 111,255 113.144,255 111.381,259.262 112,260.5 112.75,261.999 114.004,264.508 115,266.5 116.341,269.182 124,279.44 124,281 124,281 128,285 128,285 128,285 129,287 129,287 129,287 133,291 133,291 133,291 135,294.5 135,294.5 135,294.5 132,294.5 132,294.5 132,298.531 135.194,305.888 137,309.5 137,309.5 138,319.5 138,319.5 139.21,321.92 142,324.161 142,327  Z"/>

<path  fill="#1D68EB" stroke-width="0" stroke="#1D68EB" d = " M253 171 C245.449,171 247.458,163.521 240.5,167 237.932,168.284 238,169.006 238,172 226.082,172 211,161.875 211,149 211.664,149 216.366,142.067 218.5,141 222.954,138.773 238.458,125 241.5,125 246.084,125 262.033,140 266,140 266,140 271,143 271,143 271,143 273,144 273,144 273,144 273,147 273,147 273,157.937 264.137,171 253,171  Z"/>

<path  fill="#FF6E00" stroke-width="0" stroke="#FF6E00" d = " M380 245 L380,247 C380,249.591 380.171,256.157 383,250.5 385.746,245.008 385,233.922 385,227.5 385,224.657 383.581,212.662 382,209.5 380.969,207.438 379.942,205.384 379,203.5 379,203.5 376,201.5 376,201.5 376,199.982 375.19,194.881 374,192.5 374,192.5 371,190.5 371,190.5 371,190.5 371,186.5 371,186.5 371,186.5 365,181.5 365,181.5 363.075,179.575 365,180.166 365,178.5 365,178.5 358,174.5 358,174.5 358,174.5 358,171.5 358,171.5 356.305,168.111 349.38,167.44 346.5,166 346.5,166 344.5,162 344.5,162 342.967,161.233 341.182,160.841 339.5,160 339.5,160 334.5,160 334.5,160 325.531,155.516 317.395,155.447 308.5,151 308.5,151 305.5,152 305.5,152 303.312,150.906 287.781,146 286,146 286,146 284,146 284,146 281.072,146 276.836,146 274,146 274,146 273,147 273,147 273,157.937 264.137,171 253,171 253,173.154 238,174.124 238,172 226.082,172 211,161.875 211,149 209.457,149 206.355,145.072 204.5,146 199.241,148.629 191.614,146.943 187.5,149 187.5,149 184.5,152 184.5,152 182.326,153.087 178.369,150.566 175.5,152 166.105,156.697 157.056,157.222 147.5,162 138.051,166.724 123.331,180.838 118,191.5 114.269,198.963 111.743,207.015 108,214.5 105.22,220.061 108.44,232.619 106,237.5 104.43,240.64 107.581,250 108.5,250 108.551,250 111,257.975 111,255 111,253.02 108.843,237.815 110,235.5 111.437,232.626 114,217.211 114,214 114,214 115,213 115,213 115,210.229 115.529,204 119,204 119,202.952 118.527,201 120,201 122.162,201 122.284,194.933 123,193.5 124.522,190.456 127.979,187.543 130,183.5 130.794,181.912 148.138,172.181 150.5,171 153.589,169.455 177.509,164.004 181.5,166 187.228,168.864 191.993,171 199,171 199,171 196,167.5 196,167.5 196.858,165.784 201.62,167.56 202.5,168 202.5,168 212.5,176 212.5,176 213.635,176 213.882,175.191 215.5,176 215.5,176 220,180 220,180 223.214,180 224.586,182.043 226.5,183 226.5,183 229.5,182 229.5,182 233.935,182 239.936,185 244.5,185 252.585,185 260.39,178 268,178 268,176.005 274.268,174 276,174 276,174 277,173 277,173 277,173 280,172 280,172 280,172 281,171 281,171 281,171 284,170 284,170 284,170 286,169 286,169 287.481,169 286.785,167 289,167 289,167 306,165 306,165 311.08,165 318.203,163.851 322.5,166 323.738,166.619 328,164.856 328,167 329.424,167 333,167.362 333,169 333,169 335,169 335,169 335,169 338,171 338,171 338,171 339,171 339,171 339,171 341,172 341,172 341,172 342,172 342,172 342,172 344,173 344,173 349.156,173 348.287,179 353,179 353,179 354,180 354,180 354,180 355,180 355,180 355,178.814 356,178.814 356,180 356,180 358,184 358,184 358,184 360,185 360,185 362.871,185 361.315,188.13 362,189.5 362,189.5 366,191.5 366,191.5 366,191.5 366,194.5 366,194.5 366,194.5 370,198.5 370,198.5 372.67,203.84 375.253,209.005 378,214.5 378,214.5 377,222.5 377,222.5 380.082,228.665 380,233.475 380,241 380,241 380,243 380,243 380,243 380,245 380,245  Z"/>

<path  fill="#814FFF" stroke-width="0" stroke="#814FFF" d = " M355 292 L354,293 C349.898,293 347.197,291 343.5,291 343.5,291 337.5,292 337.5,292 336.595,291.548 333,290.918 333,290 333,290 333,289 333,289 333,289 332,288 332,288 327.756,288 326.085,285 322,285 322,285 321,284 321,284 321,284 316,281.5 316,281.5 314.834,279.169 301.934,271 298,271 298,270.591 297.332,265.163 297,264.5 297,264.5 295,263.5 295,263.5 295,262.889 297.759,258 295,258 295,258 294,256 294,256 294,256 294,255 294,255 294,255 294,254 294,254 294,254 292,248 292,248 292,248 292,244 292,244 292,241.642 294.478,233 291,233 291,231.814 290,231.814 290,233 283.816,233 287.799,227 284,227 284,227 284,226 284,226 285.579,226 285,223.145 285,222 285,222 285,202 285,202 285,202 284,200 284,200 284,195.434 279.242,187.016 281,183.5 281.687,182.126 290,169.853 290,169 296.687,169 296.816,168.842 302.5,166 303.546,165.477 306,166.951 306,165 311.08,165 318.203,163.851 322.5,166 323.738,166.619 328,164.856 328,167 328,168.014 331.959,169 333,169 333,169 335,169 335,169 335,170.577 336.762,171 338,171 338,171 339,171 339,171 339,171 341,172 341,172 341,172 342,172 342,172 342,172 344,173 344,173 349.156,173 348.287,179 353,179 353,179 354,180 354,180 354,180 355,180 355,180 355,180 356,180 356,180 356,180 358,184 358,184 358,184 360,185 360,185 362.871,185 361.315,188.13 362,189.5 362,189.5 366,191.5 366,191.5 366,191.5 366,194.5 366,194.5 366,194.5 370,198.5 370,198.5 372.67,203.84 375.253,209.005 378,214.5 378,214.5 377,222.5 377,222.5 380.082,228.665 380,233.475 380,241 378.601,241 378.601,243 380,243 380,243 380,245 380,245 380,245 379,246 379,246 378.149,246 375.864,253 378,253 378,253 378,254 378,254 376.814,254 376.814,255 378,255 378,255 377,258 377,258 377,258 376,259 376,259 376,259 375,261 375,261 375,261 375,263 375,263 375,263 374,264 374,264 374,270.646 361,281.525 361,285 361,285 360,286 360,286 360,286 358,288 358,288 358,288 357,289 357,289 357,290.238 356.577,292 355,292  Z"/>

<path  fill-rule="evenodd" fill="#814FFF" stroke-width="0" stroke="#814FFF" d = " M195 253 C195,256.746 197.091,253 195,253  M129 287 L133,290 C133,290 144.5,293 144.5,293 144.5,293 165.5,283 165.5,283 165.5,283 173,277.5 173,277.5 173,277.5 173.5,275 173.5,275 173.5,275 182.5,272 182.5,272 182.5,272 186.5,267 186.5,267 190.4,265.05 186.356,272.072 190.5,270 190.5,270 196,259 196,259 196,259 197,258 197,258 197,258 198,257 198,257 198,257 199,253 199,253 199,249.251 196.59,252.679 196,251.5 194.849,249.199 200.074,244.352 201,242.5 201.791,240.917 201.342,230 203,230 203,230 203,228 203,228 201.814,228 201.814,227 203,227 203,227 203,220 203,220 201.372,220 201.372,210 203,210 203,208.65 205.04,200 206,200 206,200 205,198 205,198 203.814,198 203.814,197 205,197 205,197 205,196 205,196 205,196 206,195 206,195 206,195 207,195 207,195 207,195 207,193 207,193 207,193 206,191 206,191 206,191 207,190 207,190 207,190 206,188 206,188 206,188 205,187 205,187 205,183.085 204,180.537 204,177.5 204,177.5 201,176.5 201,176.5 201,173.411 199,172.84 199,171 191.993,171 187.228,168.864 181.5,166 177.509,164.004 153.589,169.455 150.5,171 148.138,172.181 130.794,181.912 130,183.5 127.979,187.543 124.522,190.456 123,193.5 122.284,194.933 122.162,201 120,201 120,202.048 120.473,204 119,204 115.529,204 115,210.229 115,213 115,213 114,214 114,214 114,217.211 111.437,232.626 110,235.5 108.843,237.815 111,253.02 111,255 113.144,255 111.381,259.262 112,260.5 112.75,261.999 114.004,264.508 115,266.5 116.341,269.182 124,279.44 124,281 125.366,281 128,283.366 128,285 128,285 129,287 129,287  Z"/>

<path  fill="#022CFF" stroke-width="0" stroke="#022CFF" d = " M205 198 L206,200 C207.033,200 210.236,189.028 211,187.5 211,187.5 220,180 220,180 220,180 215.5,176 215.5,176 213.882,175.191 213.635,176 212.5,176 212.5,176 202.5,168 202.5,168 201.62,167.56 196.858,165.784 196,167.5 196,167.5 199,171 199,171 199,172.84 201,173.411 201,176.5 201,176.5 204,177.5 204,177.5 204,180.537 205,183.085 205,187 205,187 206,188 206,188 206,188 207,190 207,190 207,190 207,191 207,191 207,191 207,193 207,193 207,193 207,195 207,195 207,195 206,196 206,196 206,196 205,198 205,198  Z"/>

<path  fill="#022CFF" stroke-width="0" stroke="#022CFF" d = " M279 240 L279,242 C279,244.117 281.507,242.487 282,241.5 282,241.5 284,227 284,227 284,227 284,226 284,226 284,224.855 283.421,222 285,222 285,222 285,202 285,202 285,202 284,200 284,200 284,195.434 279.242,187.016 281,183.5 281.687,182.126 290,169.853 290,169 287.271,169 289,168.577 289,167 286.785,167 287.481,169 286,169 286,169 284,170 284,170 284,170 281,171 281,171 281,171 280,172 280,172 280,172 277,173 277,173 277,173 276,174 276,174 274.268,174 268,176.005 268,178 268,178 277,186 277,186 277,186 278,187 278,187 280.698,187 280,191.255 280,193 280,193 280,194 280,194 282.185,194 281.185,202.871 282,204.5 286.927,214.354 280,228.993 280,239 280,239 279,240 279,240  Z"/>

<path  fill-rule="evenodd" fill="#FF0800" stroke-width="0" stroke="#FF0800" d = " M243 206 C243,210.895 243,215.067 243,220.5 L243.5,225 C247.786,225 247.638,206 243,206  M250 200 C250,203.362 250.126,216 255.5,216 L257.5,215 L258.5,218 L261,207.5 C258.462,202.423 255.216,200 250,200  M237 200 C237,202.063 229.497,201.506 228,204.5 226.486,207.527 227.773,219 231.5,219 233.621,219 232.618,214.882 233.5,214 235.491,212.009 241,203.041 241,200.5 L237,200  M218 252 L219,252 C219,252 224.5,256 224.5,256 231.252,259.376 239.432,258 246.5,258 247.684,258 249.675,259.913 251.5,259 255.371,257.065 269.085,251 273,251 273,251 276,247 276,247 276,247 277,246 277,246 277,246 279,242 279,242 279,242 279,240 279,240 279,240 280,239 280,239 280,228.993 286.927,214.354 282,204.5 281.185,202.871 282.185,194 280,194 278.814,194 278.814,193 280,193 280,191.255 280.698,187 278,187 278,187 277,186 277,186 277,186 268,178 268,178 260.39,178 252.585,185 244.5,185 239.936,185 233.935,182 229.5,182 229.5,182 226.5,183 226.5,183 224.586,182.043 223.214,180 220,180 220,180 211,187.5 211,187.5 210.236,189.028 207.033,200 206,200 206,205.877 202.421,224.341 205,229.5 206.688,232.876 208,240.233 208,244 208,245.622 215.601,252 218,252  Z"/>

<path  fill="#FF0800" stroke-width="0" stroke="#FF0800" d = " M207 191 L207,193 C207,193 206,191 206,191 206,191 207,191 207,191  Z"/>

<path  fill="#FF0800" stroke-width="0" stroke="#FF0800" d = " M207 195 L206,196 C206,196 206,195 206,195 206,195 207,195 207,195  Z"/>

<path  fill="#FF0800" stroke-width="0" stroke="#FF0800" d = " M205 197 L205,198 C205,198 206,196 206,196 206,196 205,196 205,196 205,196 205,197 205,197  Z"/>

<path  fill="#022CFF" stroke-width="0" stroke="#022CFF" d = " M207 244 L208,244 C208,240.233 206.688,232.876 205,229.5 202.421,224.341 206,205.877 206,200 205.04,200 203,208.65 203,210 203,210 203,220 203,220 203,220 203,227 203,227 203,227 203,228 203,228 203,228 203,230 203,230 203,232.941 203.27,244 207,244  Z"/>

<path  fill="#00FF1D" stroke-width="0" stroke="#00FF1D" d = " M237 200 C237,202.063 229.497,201.506 228,204.5 226.486,207.527 227.773,219 231.5,219 233.621,219 232.618,214.882 233.5,214 235.491,212.009 241,203.041 241,200.5 L237,200  Z"/>

<path  fill="#00FF1D" stroke-width="0" stroke="#00FF1D" d = " M250 200 C250,203.362 250.126,216 255.5,216 L257.5,215 L258.5,218 L261,207.5 C258.462,202.423 255.216,200 250,200  Z"/>

<path  fill="#15C0FF" stroke-width="0" stroke="#15C0FF" d = " M243 206 C243,210.895 243,215.067 243,220.5 L243.5,225 C247.786,225 247.638,206 243,206  Z"/>

<path  fill="#FF3427" stroke-width="0" stroke="#FF3427" d = " M291 233 C294.478,233 292,241.642 292,244 283.064,244 290,237.568 290,233 290,233 291,233 291,233  Z"/>

<path  fill="#0008B6" stroke-width="0" stroke="#0008B6" d = " M284 242 C284,244.112 289.567,242 284,242  Z"/>

<path  fill-rule="evenodd" fill="#E1F00D" stroke-width="0" stroke="#E1F00D" d = " M243 276 C243,277.93 244.93,276 243,276  M242 267 L243.5,274 C246.085,274 246.701,267 242,267  M243 260 L242,263.5 C241.223,265.054 244.242,266.629 245.5,266 248.242,264.629 245.976,260 243,260  M285 246 C285,256.044 290.796,246 285,246  M243 319 C237.968,319 236.541,322.979 232.5,325 227.591,327.454 212.715,321.893 210.5,323 201.885,327.308 200.659,335.42 195.5,338 189.201,341.149 169.717,351.109 161.5,347 157.768,345.134 154.627,339.563 151.5,338 148.152,336.326 145.158,341.829 141.5,340 L142,327 C142,324.161 139.21,321.92 138,319.5 138,319.5 137,309.5 137,309.5 135.194,305.888 132,298.531 132,294.5 132,294.5 135,294.5 135,294.5 135,294.5 133,291 133,291 133,291 133,290 133,290 133,290 144.5,293 144.5,293 144.5,293 165.5,283 165.5,283 165.5,283 173,277.5 173,277.5 173,277.5 173.5,275 173.5,275 173.5,275 182.5,272 182.5,272 182.5,272 186.5,267 186.5,267 190.4,265.05 186.356,272.072 190.5,270 190.5,270 196,259 196,259 196,259 197,258 197,258 197,258 198,257 198,257 198,257 199,253 199,253 199,253 202,251 202,251 202,256.168 201.09,257.321 199,261.5 198.391,262.717 203.783,264 204.5,264 204.5,264 206.5,262 206.5,262 206.874,262 211.103,260.294 212,258.5 213.468,255.564 208.856,255.211 208,253.5 207.102,251.704 209.658,246 206,246 206,246 207,244 207,244 207,244 208,244 208,244 208,245.622 215.601,252 218,252 218,253.947 214.572,255.644 216,258.5 216,258.5 218,260 218,260 214.773,260 208,261.034 208,265 203.214,265 202.573,268.464 199.5,270 195.283,272.109 189.732,271.884 185.5,274 181.482,276.009 178.606,279.947 174.5,282 171.578,283.461 170,282.941 170,285.5 170,285.945 165.552,285.474 164.5,286 164.093,286.204 161.587,289.956 161.5,290 160.593,290.454 155,290.911 155,292.5 155,292.5 156.5,294 156.5,294 158.564,295.032 163.093,291.204 165.5,290 165.5,290 170.5,290 170.5,290 170.5,290 170.5,288 170.5,288 173.149,286.675 175.74,285.38 178.5,284 178.5,284 183.5,284 183.5,284 186.561,282.47 190.807,279.846 194.5,278 194.5,278 204.5,277 204.5,277 204.5,277 209,275 209,275 209,277.174 218.543,277.979 220.5,277 225.097,274.701 227.574,270 232,270 234.488,270 233.919,268 232,268 232,262.422 223.948,260 219,260 219,257.905 219,254.095 219,252 219,252 224.5,256 224.5,256 231.252,259.376 239.432,258 246.5,258 247.684,258 249.675,259.913 251.5,259 255.371,257.065 269.085,251 273,251 273,251 276,252.5 276,252.5 276,252.5 274,255.5 274,255.5 274,255.5 283.5,263 283.5,263 284.631,263 285.439,260.378 285,259.5 285,259.5 282,253.5 282,253.5 282,251.989 285.954,246 278,246 278,239.507 289.516,248 290,248 290,250.511 287.543,255 293,255 293,255 294,255 294,255 294,255 294,256 294,256 286.837,256 295,263.043 295,258 297.759,258 295,262.889 295,263.5 295,263.5 297,264.5 297,264.5 297.332,265.163 298,270.591 298,271 291.048,271 285.441,263 279,263 279,257.41 251.803,258.106 256,266.5 259.101,272.702 267.64,276 274.5,276 276.032,276 283,276.743 283,275 292.277,275 300.79,279.145 308.5,283 308.5,283 310.5,286 310.5,286 310.5,286 315.5,286 315.5,286 321.21,288.855 326.017,290 333,290 333,290.918 336.595,291.548 337.5,292 337.5,292 343.5,291 343.5,291 347.197,291 349.898,293 354,293 354,295.835 358.577,296.654 360,299.5 360.731,300.962 360.218,302.936 361,304.5 363.073,308.646 359.59,327.319 358,330.5 358,330.5 355,334 355,334 354.618,334 339.013,344.244 337.5,345 337.5,345 326.5,344 326.5,344 321.871,346.315 294.509,345.005 290.5,343 290.5,343 281,333.5 281,333.5 279.734,330.968 281.737,325.618 278.5,324 272.146,320.823 261.755,326.128 255.5,323 251.826,321.163 249.524,318 245,318 245,309.695 246,299.997 246,293.5 246,291.875 244.265,288.118 242.5,289 239.69,290.405 243.235,294.029 242,296.5 240.953,298.594 243,314.064 243,319  Z"/>

<path  fill="#0008B6" stroke-width="0" stroke="#0008B6" d = " M202 250 L202,251 C202,256.168 201.09,257.321 199,261.5 198.391,262.717 203.783,264 204.5,264 204.5,264 206.5,262 206.5,262 206.874,262 211.103,260.294 212,258.5 213.468,255.564 208.856,255.211 208,253.5 207.102,251.704 209.658,246 206,246 206,247.186 205,247.186 205,246 202.539,246 203,245.546 203,249 203,249 202,250 202,250  Z"/>

<path  fill="#E1F00D" stroke-width="0" stroke="#E1F00D" d = " M205 246 L206,246 C206,247.186 205,247.186 205,246  Z"/>

<path  fill="#0008B6" stroke-width="0" stroke="#0008B6" d = " M276 247 L273,251 C273,251 276,252.5 276,252.5 276,252.5 274,255.5 274,255.5 274,255.5 283.5,263 283.5,263 284.631,263 285.439,260.378 285,259.5 285,259.5 282,253.5 282,253.5 282,251.989 285.954,246 278,246 278,246 277,246 277,246 277,246 276,247 276,247  Z"/>

<path  fill="#0008B6" stroke-width="0" stroke="#0008B6" d = " M285 246 C285,256.044 290.796,246 285,246  Z"/>

<path  fill="#FF6E00" stroke-width="0" stroke="#FF6E00" d = " M379 247 C379,248.321 379.684,253 378,253 375.864,253 378.149,246 379,246 379,246 379,247 379,247  Z"/>

<path  fill="#FF3427" stroke-width="0" stroke="#FF3427" d = " M294 254 L293,255 C287.543,255 290,250.511 290,248 290,248 292,248 292,248 292,248 294,254 294,254  Z"/>

<path  fill="#E1F00D" stroke-width="0" stroke="#E1F00D" d = " M203 249 L202,250 C202,250 203,249 203,249  Z"/>

<path  fill="#0008B6" stroke-width="0" stroke="#0008B6" d = " M218 260 L219,260 C219,257.905 219,254.095 219,252 219,252 218,252 218,252 218,253.947 214.572,255.644 216,258.5 216,258.5 218,260 218,260  Z"/>

<path  fill="#FF3427" stroke-width="0" stroke="#FF3427" d = " M294 256 C286.837,256 295,263.043 295,258 295,258 294,256 294,256  Z"/>

<path  fill="#7CFC00" stroke-width="0" stroke="#7CFC00" d = " M279 263 C279,264.488 282.475,275 283,275 283,276.743 276.032,276 274.5,276 267.64,276 259.101,272.702 256,266.5 251.803,258.106 279,257.41 279,263  Z"/>

<path  fill="#7CFC00" stroke-width="0" stroke="#7CFC00" d = " M232 270 C227.574,270 225.097,274.701 220.5,277 218.543,277.979 209,277.174 209,275 209,270.717 208,268.285 208,265 208,261.034 214.773,260 218,260 218,260 219,260 219,260 223.948,260 232,262.422 232,268 232,268 232,270 232,270  Z"/>

<path  fill="#022CFF" stroke-width="0" stroke="#022CFF" d = " M243 260 L242,263.5 C241.223,265.054 244.242,266.629 245.5,266 248.242,264.629 245.976,260 243,260  Z"/>

<path  fill="#FFBB00" stroke-width="0" stroke="#FFBB00" d = " M333 289 L333,290 C326.017,290 321.21,288.855 315.5,286 315.5,286 310.5,286 310.5,286 310.5,286 308.5,283 308.5,283 300.79,279.145 292.277,275 283,275 282.475,275 279,264.488 279,263 285.441,263 291.048,271 298,271 301.934,271 314.834,279.169 316,281.5 316,281.5 321,284 321,284 318.971,284 320.942,285 322,285 326.085,285 327.756,288 332,288 332,288 333,289 333,289  Z"/>

<path  fill="#FFBB00" stroke-width="0" stroke="#FFBB00" d = " M208 265 C203.214,265 202.573,268.464 199.5,270 195.283,272.109 189.732,271.884 185.5,274 181.482,276.009 178.606,279.947 174.5,282 171.578,283.461 170,282.941 170,285.5 170,285.945 165.552,285.474 164.5,286 164.093,286.204 161.587,289.956 161.5,290 160.593,290.454 155,290.911 155,292.5 L156.5,294 C158.564,295.032 163.093,291.204 165.5,290 L170.5,290 L170.5,288 C173.149,286.675 175.74,285.38 178.5,284 L183.5,284 C186.561,282.47 190.807,279.846 194.5,278 L204.5,277 L209,275 C209,270.717 208,268.285 208,265  Z"/>

<path  fill="#022CFF" stroke-width="0" stroke="#022CFF" d = " M242 267 L243.5,274 C246.085,274 246.701,267 242,267  Z"/>

<path  fill="#022CFF" stroke-width="0" stroke="#022CFF" d = " M243 276 C243,277.93 244.93,276 243,276  Z"/>

<path  fill="#E1F00D" stroke-width="0" stroke="#E1F00D" d = " M321 284 L322,285 C320.942,285 318.971,284 321,284  Z"/>

<path  fill="#E1F00D" stroke-width="0" stroke="#E1F00D" d = " M332 288 L333,289 C333,289 332,288 332,288  Z"/>

<path  fill="#022CFF" stroke-width="0" stroke="#022CFF" d = " M245 318 C245,318.896 243,321.026 243,319 243,314.064 240.953,298.594 242,296.5 243.235,294.029 239.69,290.405 242.5,289 244.265,288.118 246,291.875 246,293.5 246,299.997 245,309.695 245,318  Z"/>

<path  fill="#267EFF" stroke-width="0" stroke="#267EFF" d = " M239 324 C239,327.589 227,328.396 227,330.5 L229,332.5 L229.5,337 C232.025,338.262 260.262,337.119 262.5,336 264.777,334.862 266.197,330.349 263.5,329 L258.5,328 C255.039,326.269 254.324,324 250,324 246.622,324 243.078,324 239,324  Z"/>

<path  fill="#FA8072" stroke-width="0" stroke="#FA8072" d = " M114 340 C114,340.668 112.537,346 114.5,346 119.846,346 126.564,352.532 131.5,355 132.746,355.623 132.8,361.85 136.5,360 139.86,358.32 139.86,353.68 136.5,352 L132.5,353 C130.287,351.893 131.267,345.383 128.5,344 L120.5,345 L114,340  Z"/>

<path  fill="#FA8072" stroke-width="0" stroke="#FA8072" d = " M361 342 L359,346 L359.5,350 C357.028,351.236 356.505,346.491 356,347.5 352.038,355.423 352.398,362 361.5,362 364.715,362 362,353.303 362,352.5 L364.5,352 L368,348.5 C370.404,343.692 364.24,342 361,342  Z"/>

<path  fill="#FA8072" stroke-width="0" stroke="#FA8072" d = " M298 347 L294.5,349 L289,355.5 L290,362.5 L292.5,365 C290.278,366.111 285.056,359.388 281,367.5 279.739,370.022 280.267,385.883 282.5,387 284.615,388.058 287.461,387.981 289.5,389 290.713,389.606 292.82,395.34 295.5,394 L298.5,390 L301.5,391 L303.5,387 C306.671,385.414 313.046,384.407 315,380.5 316.326,377.848 314.234,373.032 315,371.5 315.959,369.582 316.101,367.297 317,365.5 317.841,363.818 320.869,363.762 322,361.5 326.131,353.238 303.284,347 298,347  Z"/>

<path  fill="#FA8072" stroke-width="0" stroke="#FA8072" d = " M182 351 C182,355.477 164.795,358.091 168,364.5 169.589,367.679 171.803,365.106 173,367.5 173.827,369.155 172.118,370.809 174.5,372 176.022,372.761 179.059,372.617 180,374.5 180.708,375.915 176.758,381.016 179,385.5 180.871,389.242 183.985,386 185.5,386 185.736,386 185.172,392.836 189.5,395 192.034,396.267 196.051,394.224 198.5,393 L201.5,394 L203.5,391 C206.853,391 202.866,396.317 207.5,394 211.526,391.987 209,380.55 209,376 209,367.473 208.153,367.326 201.5,364 L200.5,361 L197,359.5 C195.978,357.457 196.902,352.201 194.5,351 194.293,350.896 183.783,351 182,351  Z"/>

<path  fill="#FA8072" stroke-width="0" stroke="#FA8072" d = " M341 368 C341,369.947 338,370.636 338,373 L343.5,378 C345.901,378 349.68,368 341,368  Z"/>

<path  fill="#FA8072" stroke-width="0" stroke="#FA8072" d = " M148 370 C148,371.791 144.73,372.959 146,375.5 147.266,378.032 153.715,384.893 157.5,383 160.906,381.297 162.305,371.902 158.5,370 156.202,368.851 150.33,370 148,370  Z"/>

</g>
</svg>
