<svg xmlns="http://www.w3.org/2000/svg" xmlns:xlink="http://www.w3.org/1999/xlink" height="512" width="512">
<g>
<rect width="512" height="512" fill="#000000"  stroke-width="0" /> 
<path  fill="#FA8072" stroke-width="0" stroke="#FA8072" d = " M161 350 C161,351.951 158.546,350.477 157.5,351 153.861,352.819 153.41,356.68 152,359.5 150.689,362.123 155,364.652 155,366.5 L152,369.5 C150.969,371.563 153.356,373.787 152,376.5 L151.5,384 C144.961,387.27 130.91,381.68 128,387.5 124.996,393.508 133.902,393.305 135,395.5 137.219,399.938 137.793,401.646 142.5,404 142.954,404.227 139.628,411 144.5,411 149.423,411 146,405.949 146,404.5 L149,403.5 C152.704,399.796 157.963,399.574 160,395.5 160.786,393.929 156.572,374.355 159,369.5 159.972,367.556 163.556,369.972 165.5,369 168.449,367.525 169.809,363.882 171,361.5 173.428,356.643 165.023,350 161,350  Z"/>

<path  fill="#FA8072" stroke-width="0" stroke="#FA8072" d = " M327 350 C327,353.548 327.361,388.222 328,389.5 329.69,392.881 332.98,392.74 335.5,394 L337,399.5 C338.137,401.774 342.059,402.779 344.5,404 353.531,408.515 352.262,384.024 351,381.5 350.224,379.948 346.254,377.123 344.5,378 L340,380.5 C338.849,378.199 341.532,373.563 340,370.5 339.833,370.166 338.559,372.619 337,369.5 334.113,363.726 337.641,350 327,350  Z"/>

</g>
</svg>
