<svg xmlns="http://www.w3.org/2000/svg" xmlns:xlink="http://www.w3.org/1999/xlink" height="512" width="512">
<g>
<rect width="512" height="512" fill="#000000"  stroke-width="0" /> 
<path  fill-rule="evenodd" fill="#FFE300" stroke-width="0" stroke="#FFE300" d = " M244 188 L243,190 C243,199.112 249.09,188 244,188  M283 264 C283,265.241 275.583,268.541 274.5,268 271.456,266.478 273.336,264.418 270.5,263 268.218,261.859 264.782,262.141 262.5,261 L260.5,258 C258.88,257.19 257.255,255.877 255.5,255 L252,254.5 L254,253.5 L250.5,253 L246,246.5 L244.5,229 C240.882,227.191 242,235.172 242,237 242,238.848 242.38,242.739 242,243.5 L240,244.5 L241,247.5 C239.312,250.876 233.576,251.462 230.5,253 L226.5,260 L221.5,260 C219.581,260.96 220.659,262.182 220,263.5 218.627,266.246 209.831,265 207,265 207,261.44 216.341,260.08 218.5,259 223.395,256.552 227.422,249.655 230,244.5 234.29,235.92 232.729,224.041 237,215.5 238.181,213.138 235.478,201.543 237,198.5 238.392,195.715 235.964,193.428 235,191.5 235,191.5 236,182.5 236,182.5 236,182.5 234,178.5 234,178.5 236.047,174.406 241.983,158.465 240,154.5 238.045,150.59 235.043,144.772 231.5,143 219.232,136.866 196.782,142.936 191,154.5 191,154.5 185,159.5 185,159.5 180.798,167.904 179.662,195.824 184,204.5 185.322,207.144 182.569,214.638 183,215.5 183,215.5 186,219.5 186,219.5 187.166,221.832 182.697,223.105 182,224.5 181.668,225.163 181,230.591 181,231 174.772,231 177.645,206.79 176,203.5 174.096,199.693 171.625,186.25 174,181.5 174,181.5 175.5,177 175.5,177 176.864,177 176.137,180.226 178,176.5 183.347,165.806 183.44,150.53 196.5,144 196.5,144 198.5,141 198.5,141 202.535,138.982 220.137,134.318 225.5,137 227.546,138.023 227.096,139.798 227.5,140 229.819,141.159 234.835,141.169 236,143.5 236,143.5 243,158.5 243,158.5 245.819,164.138 238.982,174.241 244.5,177 246.402,177.951 247,173.216 247,172 247,169.681 245.52,155 249,155 249,159.137 246.845,167.191 249,171.5 251.065,175.63 254,179.018 254,184 254,209.717 241.297,243.399 270.5,258 270.5,258 272.5,261 272.5,261 274.523,262.011 277.116,261 278.5,261 278.5,261 283,264 283,264  Z"/>

<path  fill="#FFE300" stroke-width="0" stroke="#FFE300" d = " M287 143 L270.5,141 C267.309,142.595 262.58,140.46 259.5,142 257.522,142.989 257.477,145 255,145 255,135.829 287,139.247 287,143  Z"/>

<path  fill="#FF8700" stroke-width="0" stroke="#FF8700" d = " M206 265 L207,265 C207,261.44 216.341,260.08 218.5,259 223.395,256.552 227.422,249.655 230,244.5 234.29,235.92 232.729,224.041 237,215.5 238.181,213.138 235.478,201.543 237,198.5 238.392,195.715 235.964,193.428 235,191.5 235,191.5 236,182.5 236,182.5 236,182.5 234,178.5 234,178.5 236.047,174.406 241.983,158.465 240,154.5 238.045,150.59 235.043,144.772 231.5,143 219.232,136.866 196.782,142.936 191,154.5 191,154.5 185,159.5 185,159.5 180.798,167.904 179.662,195.824 184,204.5 185.322,207.144 182.569,214.638 183,215.5 183,215.5 186,219.5 186,219.5 187.166,221.832 182.697,223.105 182,224.5 181.668,225.163 181,230.591 181,231 181,231.372 189.343,253.186 190,254.5 190.118,254.735 194,254.285 194,257 196.215,257 206,262.372 206,265  Z"/>

<path  fill="#FF8700" stroke-width="0" stroke="#FF8700" d = " M288 262 L283,264 C283,264 278.5,261 278.5,261 277.116,261 274.523,262.011 272.5,261 272.5,261 270.5,258 270.5,258 241.297,243.399 254,209.717 254,184 254,179.018 251.065,175.63 249,171.5 246.845,167.191 249,159.137 249,155 249,155 249,154 249,154 250.399,154 250.399,152 249,152 249,152 250,150 250,150 250,150 251,149 251,149 252.658,149 254,147.539 254,146 254,146 255,145 255,145 257.477,145 257.522,142.989 259.5,142 262.58,140.46 267.309,142.595 270.5,141 270.5,141 287,143 287,143 287,143 288,144 288,144 288,144 289,145 289,145 289,145 290,145 290,145 290,145 291,146 291,146 291,146 292,146 292,146 298.152,146 304.124,161.749 306,165.5 311.108,175.716 310.863,199.775 306,209.5 305.15,211.2 309,223.95 309,227 309,236.072 298,252.026 298,256 298,256 297,257 297,257 294.975,257 290,258.233 290,261 290,261 288,262 288,262  Z"/>

<path  fill="#FFE300" stroke-width="0" stroke="#FFE300" d = " M288 144 L289,145 C289,145 288,144 288,144  Z"/>

<path  fill="#FFE300" stroke-width="0" stroke="#FFE300" d = " M292 146 C298.152,146 304.124,161.749 306,165.5 311.108,175.716 310.863,199.775 306,209.5 305.15,211.2 309,223.95 309,227 315.685,227 311.98,211.539 314,207.5 321.35,192.8 312.786,169.072 307,157.5 305.081,153.662 292,140.683 292,146  Z"/>

<path  fill="#FFE300" stroke-width="0" stroke="#FFE300" d = " M255 145 L254,146 C254,146 255,145 255,145  Z"/>

<path  fill="#FFE300" stroke-width="0" stroke="#FFE300" d = " M290 145 L291,146 C291,146 290,145 290,145  Z"/>

<path  fill="#FFE300" stroke-width="0" stroke="#FFE300" d = " M254 146 C251.959,146 251,146.959 251,149 252.658,149 254,147.539 254,146  Z"/>

<path  fill="#FFE300" stroke-width="0" stroke="#FFE300" d = " M251 149 L250,150 C250,150 251,149 251,149  Z"/>

<path  fill="#FFE300" stroke-width="0" stroke="#FFE300" d = " M249 152 C250.399,152 250.399,154 249,154 247.07,154 249,152.839 249,152  Z"/>

<path  fill="#30DA00" stroke-width="0" stroke="#30DA00" d = " M386 253 C386,255.144 381.738,253.381 380.5,254 377.506,255.497 365.037,265.575 367,269.5 368.042,271.583 378.809,273.346 381.5,272 385.719,269.89 393.848,262.195 391,256.5 L389,256.5 L386,253  Z"/>

<path  fill="#FFE300" stroke-width="0" stroke="#FFE300" d = " M298 256 L297,257 C297,257 298,256 298,256  Z"/>

<path  fill="#FFE300" stroke-width="0" stroke="#FFE300" d = " M194 257 C196.215,257 206,262.372 206,265 206,265.814 200.18,262.859 199,260.5 197.934,258.367 194,261.432 194,257  Z"/>

<path  fill="#FFE300" stroke-width="0" stroke="#FFE300" d = " M297 257 C294.975,257 290,258.233 290,261 291.856,261 297,259.218 297,257  Z"/>

<path  fill="#FFE300" stroke-width="0" stroke="#FFE300" d = " M290 261 L288,262 C288,262 290,261 290,261  Z"/>

<path  fill="#30DA00" stroke-width="0" stroke="#30DA00" d = " M105 264 C105,267.209 101.28,264.941 101,265.5 L101,274.5 C103.609,279.718 117.484,286 122.5,286 123.607,286 128.942,288.616 130,286.5 130.826,284.847 129.595,282.69 129,281.5 127.708,278.916 128.336,275.173 127,272.5 126.237,270.974 107.325,264 105,264  Z"/>

<path  fill="#FA8072" stroke-width="0" stroke="#FA8072" d = " M298 364 L289,371.5 C287.24,375.019 292.807,378.886 292,380.5 290.578,383.344 286.898,380.705 286,382.5 284.235,386.03 288.345,385.19 289,386.5 290.129,388.757 290.72,397.89 296.5,395 297.721,394.39 302,390 302.5,390 302.92,390 302.237,395.869 304.5,397 L311.5,395 L317.5,396 C323.699,392.901 322,391.158 322,385.5 322,382.628 323.615,380.73 322,377.5 321.141,375.782 310.59,371.045 308.5,370 307.556,369.528 308.615,366.73 308,365.5 307.498,364.496 299.928,364 298,364  Z"/>

<path  fill="#FA8072" stroke-width="0" stroke="#FA8072" d = " M190 366 C190,371.484 184.38,373.06 180.5,375 176.59,376.955 177.556,380.472 174.5,382 172.167,383.167 171.747,387.377 170.5,388 168.45,389.025 166.485,387.529 165,390.5 163.135,394.23 168.739,401 170.5,401 175.328,401 174.192,392 176.5,392 L179.5,395 C182.021,396.26 182.43,395 184.5,395 L188.5,398 C190.486,398.993 198.974,394.551 200,392.5 L199,385.5 C202.86,377.78 200.777,369 192.5,369 L190,366  Z"/>

<path  fill="#FA8072" stroke-width="0" stroke="#FA8072" d = " M326 387 C326,388.606 323.919,391.339 325,393.5 328.203,399.907 339.939,387 326,387  Z"/>

</g>
</svg>
