<svg xmlns="http://www.w3.org/2000/svg" xmlns:xlink="http://www.w3.org/1999/xlink" height="512" width="512">
<g>
<rect width="512" height="512" fill="#000000"  stroke-width="0" /> 
<path  fill="#03C12D" stroke-width="0" stroke="#03C12D" d = " M448 235 C451.551,235 451,227.916 451,225.5 451,217.952 452,209.839 452,201 452,190.812 449.014,164.529 444,154.5 L439,151.5 L439,146.5 C437.777,144.055 424.945,125.722 423.5,125 419.863,123.181 411.773,113.136 411.5,113 L407.5,113 L404.5,109 C394.025,103.762 383.936,97.218 373.5,92 L369.5,88 C365.297,85.8985 357.052,86.7759 353.5,85 347.914,82.207 342.175,79.8376 336.5,77 333.61,75.555 327.319,78.9094 325.5,78 L322.5,75 C319.158,73.3292 302.534,75 299,75 293.862,75 271.693,69.9036 267.5,72 263.508,73.996 258.434,74.0329 254.5,76 251.936,77.2822 248.998,81.7508 248.5,82 L242.5,83 L238.5,89 C236.113,90.1936 232.187,82.8437 230.5,82 227.395,80.4473 224.393,75.9465 220.5,74 216.695,72.0975 202.227,69.6364 197.5,72 193.946,73.7771 188.908,72.2961 185.5,74 183.42,75.0399 181.767,78.6335 178.5,77 L175.5,75 L170.5,78 L165.5,77 L160.5,81 L156.5,80 L153.5,84 L150.5,82 C147.924,80.7121 145.326,84.0871 143.5,85 139.77,86.8649 135.804,83.3482 132.5,85 L113.5,95 L107.5,101 L100.5,100 C99.3815,100.559 94.8184,107.341 91.5,109 L88.5,109 L86.5,112 C77.4949,116.503 54,138.653 54,146.5 L49,151.5 C47.111,155.278 37,181.035 37,184.5 37,187.158 39.0642,193.372 38,195.5 35.8168,199.866 33.1735,216.847 35,220.5 35.8772,222.254 32.7829,238 38,238 41.6661,238 39.6766,240 41.5,240 41.5,240 61.5,231 61.5,231 61.5,231 63.5,228 63.5,228 63.7178,227.891 68.8878,230 70.5,230 72.8807,230 76.5773,225 79,225 81.3503,225 79.217,217.066 80,215.5 83.0099,209.48 80.2631,200.974 84,193.5 84,193.5 87,190.5 87,190.5 87,175.452 106.619,143.94 120.5,137 124.777,134.862 128.632,127 134,127 134,127 135,126 135,126 135,126 137,126 137,126 137,126 139,125 139,125 143.914,125 147.041,120.229 151.5,118 151.5,118 156.5,119 156.5,119 159.932,117.284 162.413,117 165.5,117 165.5,117 173.5,113 173.5,113 173.5,113 177.5,114 177.5,114 182.858,111.321 189.258,110 194.5,110 199.218,110 207.507,104 211.5,104 211.5,104 216,111.5 216,111.5 219.692,118.884 225.145,125.322 232.5,129 234.932,130.216 241.538,128.981 243.5,128 243.5,128 253.5,127 253.5,127 259.57,123.965 260.576,110.348 263,105.5 263.407,104.685 266.102,106 267,106 267,106 271.5,104 271.5,104 274.866,104 278.785,107.142 282.5,109 282.5,109 326.5,115 326.5,115 328.96,116.23 349.001,123 351,123 354.836,123 358,122.281 358,127 358,127 359,127 359,127 359,127 363,129 363,129 363,131.098 364.939,132 367,132 367,132 368,134 368,134 368,134 375,139 375,139 375,139 376,141 376,141 376,141 378,141 378,141 378,141 379,142 379,142 379,146.238 387.48,149.46 389,152.5 389,152.5 388,155.5 388,155.5 388,155.5 392,157.5 392,157.5 392,157.5 391,160.5 391,160.5 391,160.5 395,163.5 395,163.5 396.345,166.19 396.629,169.758 398,172.5 398,172.5 400,172.5 400,172.5 400,172.5 400,181.5 400,181.5 400,181.5 402,181.5 402,181.5 402,181.5 402,186.5 402,186.5 402,186.5 404,185.5 404,185.5 404,185.5 404,196.5 404,196.5 404,196.5 406,197.5 406,197.5 406,197.5 408,224 408,224 408,224 417.5,228 417.5,228 417.5,228 420.5,225 420.5,225 420.5,225 424.5,230 424.5,230 427.598,231.549 444.63,235 448,235  Z"/>

<path  fill-rule="evenodd" fill="#FF6E00" stroke-width="0" stroke="#FF6E00" d = " M340 125 C340,128.043 351.575,132.538 354.5,134 L358.5,136 C360.491,135.004 357.188,133.344 356.5,133 L340,125  M96 275 C96,278.743 99,278.743 99,275 99,269.671 92.5062,257.512 90,252.5 85.5373,243.575 92,228.877 92,221 89.971,221 91.9418,220 93,220 93,220 93,217 93,217 91.8141,217 91.8141,216 93,216 93,216 93,215 93,215 86.4973,215 93,210.359 93,210 93,210 94,209 94,209 94,209 95,208 95,208 95,208 93,202.5 93,202.5 98.0511,192.398 95.6628,180.174 102,167.5 102,167.5 111,155.5 111,155.5 112.165,153.169 114.96,149.27 117.5,148 127.328,143.086 130.211,132 143,132 146.961,132 152.975,127.762 156.5,126 156.5,126 167.5,125 167.5,125 177.986,119.757 195.284,128.069 200,137.5 201.698,140.896 208,144.065 208,148 208,148 215.5,154 215.5,154 219.735,154 225.131,149 230.5,149 233.497,149 237.871,150.685 240.5,152 240.5,152 243,151.5 243,151.5 244.648,148.204 250.218,149.641 253.5,148 257.152,146.174 262.018,151.741 263.5,151 266.436,149.532 275.83,143 276,143 276,141.942 277,139.971 277,142 277,142 278,142 278,142 278,142 278,140 278,140 278,140 280,138 280,138 280,138 281,137 281,137 281,137 282,136 282,136 282,136 285,130 285,130 285,130 287,128 287,128 287,128 289,127 289,127 289,127 290,126 290,126 290,126 294.5,122 294.5,122 300.619,118.941 323.308,120.904 329.5,124 334.872,126.686 340.051,129.276 345.5,132 345.5,132 351.5,133 351.5,133 351.5,133 365,142 365,142 365,142 366,142 366,142 366,139.229 372.312,144.124 373,145.5 373,145.5 382.5,157 382.5,157 383.553,158.053 382.547,161 385,161 386.058,161 388.029,162 386,162 386,162 388,167 388,167 388,167 389,169 389,169 389,174.152 394,179.33 394,185 394,185 395,186 395,186 395,187.851 394.133,193 397,193 397,193 398,194 398,194 398,200.833 397,201.339 397,208 397,208 397,210 397,210 397,216.355 399,219.853 399,223 399,236.089 397,247.476 397,260 397,260 401,263 401,263 401,258.852 402.293,255.914 404,252.5 404.806,250.887 408,226.939 408,224 408,224 406,197.5 406,197.5 406,197.5 404,196.5 404,196.5 404,196.5 404,185.5 404,185.5 404,185.5 402,186.5 402,186.5 402,186.5 402,181.5 402,181.5 402,181.5 400,181.5 400,181.5 400,181.5 400,172.5 400,172.5 400,172.5 398,172.5 398,172.5 396.629,169.758 396.345,166.19 395,163.5 395,163.5 391,160.5 391,160.5 391,160.5 392,157.5 392,157.5 392,157.5 388,155.5 388,155.5 388,155.5 389,152.5 389,152.5 387.48,149.46 379,146.238 379,142 379,142 378,141 378,141 378,141 376,141 376,141 376,141 375,139 375,139 375,139 368,134 368,134 368,134 367,132 367,132 364.939,132 363,131.098 363,129 361.535,129 359,129.109 359,127 359,127 358,127 358,127 356.757,127 351,123.994 351,123 349.001,123 328.96,116.23 326.5,115 326.5,115 282.5,109 282.5,109 278.785,107.142 274.866,104 271.5,104 271.5,104 267,106 267,106 266.102,106 263.407,104.685 263,105.5 260.576,110.348 259.57,123.965 253.5,127 253.5,127 243.5,128 243.5,128 241.538,128.981 234.932,130.216 232.5,129 225.145,125.322 219.692,118.884 216,111.5 216,111.5 211.5,104 211.5,104 207.507,104 199.218,110 194.5,110 189.258,110 182.858,111.321 177.5,114 177.5,114 173.5,113 173.5,113 173.5,113 165.5,117 165.5,117 162.413,117 159.932,117.284 156.5,119 156.5,119 151.5,118 151.5,118 147.041,120.229 143.914,125 139,125 139,125 137,126 137,126 137,126 135,126 135,126 135,126 134,127 134,127 128.632,127 124.777,134.862 120.5,137 106.619,143.94 87,175.452 87,190.5 87,190.5 84,193.5 84,193.5 80.2631,200.974 83.0099,209.48 80,215.5 79.217,217.066 81.3503,225 79,225 79,225 81,229.5 81,229.5 81.3512,230.202 81.6718,245.844 83,248.5 83,248.5 88,254.5 88,254.5 88,254.5 88,261.5 88,261.5 88.6064,262.713 90,259.88 90,263 90,263 91,265 91,265 91,265 93,269 93,269 93,269 96,275 96,275  Z"/>

<path  fill="#0E47E2" stroke-width="0" stroke="#0E47E2" d = " M323 288 L323,297 C326.701,297 334.448,300.026 338.5,298 341.241,296.629 348.603,294 351.5,294 351.5,294 353.5,295 353.5,295 353.5,295 362.5,292 362.5,292 362.5,292 364.5,289 364.5,289 366.451,289 368.059,290.22 370.5,289 375.864,286.318 387.035,272 391,272 391,269.596 394,267.351 394,264 394,264 395,263 395,263 395,261.762 395.423,260 397,260 397,247.476 399,236.089 399,223 399,219.853 397,216.355 397,210 397,210 396,208 396,208 396,208 395,204 395,204 392.475,204 391,192.881 391,190 391,190 390,184 390,184 388.357,184 389,180.235 389,179 386.936,179 388.574,175.647 388,174.5 388,174.5 384,165 384,165 384,165 382,163 382,163 382,163 382,162 382,162 382,162 381,161 381,161 381,161 381,160 381,160 378.575,160 376,154.884 376,153 376,153 372,149 372,149 372,149 370,147 370,147 370,147 369,146 369,146 369,146 366,143 366,143 366,143 365,142 365,142 365,142 351.5,133 351.5,133 351.5,133 345.5,132 345.5,132 340.051,129.276 334.872,126.686 329.5,124 323.308,120.904 300.619,118.941 294.5,122 294.5,122 290,126 290,126 290,126 289,127 289,127 289,127 287,128 287,128 287,129.747 286.747,130 285,130 285,130 282,136 282,136 282,136 281,137 281,137 281,137 280,138 280,138 280,139.747 279.747,140 278,140 278,140 278,142 278,142 278,142 279.5,145 279.5,145 281.799,145 284.387,153 288.5,153 288.5,153 290,152.5 290,152.5 291.127,154.753 289.109,163 288,163 288,165.597 288.897,170 292,170 294.614,170 308.264,167.882 310.5,169 315.586,171.543 323.626,175 329.5,175 331.175,175 333.695,172 335.5,172 335.5,172 342.5,177 342.5,177 344.962,178.231 358,189.274 358,192 358,192 358,194 358,194 361.327,194 360.205,197.911 361,199.5 361,199.5 364,202.5 364,202.5 366.537,207.575 368.219,224.062 366,228.5 365.364,229.772 364.55,236 363,236 363,237.146 361.661,242 360,242 360,242 357,248 357,248 357,248 356,249 356,249 356,250.238 355.577,252 354,252 354,252 353,254 353,254 353,254 352,255 352,255 352,255 347,260 347,260 347,262.575 342.421,266 340,266 340,266 339,267 339,267 339,267 337,270 337,270 337,270 336,271 336,271 336,271 334,273 334,273 334,273 333,275 333,275 333,276.238 332.577,278 331,278 331,278 330,279 330,279 330,279 329,280 329,280 329,280 328,282 328,282 328,282 326,284 326,284 326,284 325,286 325,286 325,286 324,287 324,287 324,287 323,288 323,288  Z"/>

<path  fill="#0E47E2" stroke-width="0" stroke="#0E47E2" d = " M99 275 C104.062,275 105.894,284.697 110.5,287 116.491,289.996 122.45,292.975 128.5,296 131.886,297.693 145.014,298.757 149.5,301 151.124,301.812 162,299.375 162,298.5 162,297.283 161,294.842 161,293 161,293 157,287.5 157,287.5 155.588,284.677 144,272.165 144,271 144,271 143,270 143,270 141.4,270 136,265.871 136,264 136,264 136,263 136,263 133.243,263 133.557,261.057 132,259.5 126.384,253.884 122.221,248.942 119,242.5 119,242.5 118,236.5 118,236.5 118,236.5 115,233 115,233 115,230.757 112,226.389 112,222 110.514,222 110.514,219 112,219 112,215.71 112.71,210 117,210 117,208.003 123.144,202 125,202 125,199.955 131.826,187 136,187 136,187 137,187 137,187 137,187 138,186 138,186 138,183.774 139.774,182 142,182 144.584,182 146.518,178 150,178 150,178 152,177 152,177 152,176.144 162.692,175 164,175 168.74,175 173.426,173 179,173 187.844,173 197,177.288 197,166 197,163.802 193.274,159.952 194,158.5 194,158.5 198.5,156 198.5,156 201.571,154.464 202.194,149.653 205.5,148 205.5,148 207.5,150 207.5,150 207.5,150 208,148 208,148 208,144.065 201.698,140.896 200,137.5 195.284,128.069 177.986,119.757 167.5,125 167.5,125 156.5,126 156.5,126 152.975,127.762 146.961,132 143,132 143,133.892 134.155,137.172 132.5,138 128.69,139.905 110,156.853 110,160 110,160 109,162 109,162 109,162 108,163 108,163 108,163 107,165 107,165 107,166.465 107.109,169 105,169 105,169 102,176 102,176 102,176 102,177 102,177 102,180.001 99,184.68 99,187 99,187 99,188 99,188 99,188 99,189 99,189 99,189 99,190 99,190 99,195.974 97,200.069 97,205 97,207.353 95.141,215 93,215 93,215 93,216 93,216 93,216 93,217 93,217 93,217 93,220 93,220 93,220 92,221 92,221 92,228.877 85.5373,243.575 90,252.5 92.5062,257.512 99,269.671 99,275  Z"/>

<path  fill="#022CFF" stroke-width="0" stroke="#022CFF" d = " M340 125 C340,128.043 351.575,132.538 354.5,134 L358.5,136 C360.491,135.004 357.188,133.344 356.5,133 L340,125  Z"/>

<path  fill="#022CFF" stroke-width="0" stroke="#022CFF" d = " M97 205 L95,208 C95,208 93,202.5 93,202.5 98.0511,192.398 95.6628,180.174 102,167.5 102,167.5 111,155.5 111,155.5 112.165,153.169 114.96,149.27 117.5,148 127.328,143.086 130.211,132 143,132 143,133.892 134.155,137.172 132.5,138 128.69,139.905 110,156.853 110,160 110,160 109,162 109,162 109,162 108,163 108,163 108,163 107,165 107,165 106.428,165 103.126,169 105,169 105,169 102,176 102,176 100.814,176 100.814,177 102,177 102,180.001 99,184.68 99,187 97.8141,187 97.8141,188 99,188 99,188 99,189 99,189 97.8141,189 97.8141,190 99,190 99,195.974 97,200.069 97,205  Z"/>

<path  fill="#022CFF" stroke-width="0" stroke="#022CFF" d = " M396 208 L397,208 C397,201.339 398,200.833 398,194 398,194 397,193 397,193 394.133,193 395,187.851 395,186 395,186 394,185 394,185 394,179.33 389,174.152 389,169 389,169 388,167 388,167 388,167 386,162 386,162 386,162 385,161 385,161 382.547,161 383.553,158.053 382.5,157 382.5,157 373,145.5 373,145.5 372.312,144.124 366,139.229 366,142 366,142 367,143 367,143 367,143 373,149 373,149 373,149 376,153 376,153 376,153 381,160 381,160 381,160 381,161 381,161 381,161 382,162 382,162 382,162 383,163 383,163 383,163 384,165 384,165 384,165 388,174.5 388,174.5 388.574,175.647 386.936,179 389,179 390.643,179 390,182.765 390,184 390,184 391,190 391,190 393.724,190 395,201.483 395,204 395,204 396,208 396,208  Z"/>

<path  fill="#DDD951" stroke-width="0" stroke="#DDD951" d = " M197 166 C200.071,166 201.606,170.553 204.5,172 210.639,175.069 214.433,177 220,177 220,165.66 221.656,172.188 224,167.5 224,167.5 224.5,165 224.5,165 225.151,165 226.151,167.198 227,165.5 227.633,164.234 227.288,156 229.5,156 229.5,156 231.5,158 231.5,158 231.5,158 232.5,156 232.5,156 233.5,156 234.5,157 235.5,157 238.087,157 234.77,161 238,161 238,159.076 238.356,152.428 241.5,154 241.5,154 244,158 244,158 244,158 245,159 245,159 245,160.238 245.423,162 247,162 247,162 250.5,156 250.5,156 250.5,156 251.5,160 251.5,160 251.5,160 253.5,158 253.5,158 253.5,158 254.5,160 254.5,160 254.5,160 255.5,158 255.5,158 255.5,158 256,164.5 256,164.5 257.812,168.123 260,167.649 260,173 266.514,173 273.204,172.148 279.5,169 279.5,169 281.5,166 281.5,166 282.336,166 288,161.871 288,163 289.109,163 291.127,154.753 290,152.5 290,152.5 288.5,153 288.5,153 284.387,153 281.799,145 279.5,145 279.5,145 278,142 278,142 278,142 277,142 277,142 277,142 276,143 276,143 275.83,143 266.436,149.532 263.5,151 262.018,151.741 257.152,146.174 253.5,148 250.218,149.641 244.648,148.204 243,151.5 243,151.5 240.5,152 240.5,152 237.871,150.685 233.497,149 230.5,149 225.131,149 219.735,154 215.5,154 215.5,154 208,148 208,148 208,148 207.5,150 207.5,150 207.5,150 205.5,148 205.5,148 202.194,149.653 201.571,154.464 198.5,156 198.5,156 194,158.5 194,158.5 193.274,159.952 197,163.802 197,166  Z"/>

<path  fill="#FF6E00" stroke-width="0" stroke="#FF6E00" d = " M372 149 L373,149 C373,149 367,143 367,143 367,143 366,143 366,143 366,143 369,146 369,146 369,146 370,147 370,147 370,147 372,149 372,149  Z"/>

<path  fill="#FF6E00" stroke-width="0" stroke="#FF6E00" d = " M376 153 L381,160 C378.575,160 376,154.884 376,153  Z"/>

<path  fill-rule="evenodd" fill="#022CFF" stroke-width="0" stroke="#022CFF" d = " M248 180 C248,182.575 234,179.74 234,181.5 234,188.731 260.412,180 248,180  M239 161 C239,162.93 240.93,161 239,161  M249 198 L250,198 C250,193.164 257.323,191.855 259,188.5 264.285,177.93 279.93,171 292,171 292,171 292,170 292,170 288.897,170 288,165.597 288,163 288,161.871 282.336,166 281.5,166 281.5,166 279.5,169 279.5,169 273.204,172.148 266.514,173 260,173 256.116,173 247,166.442 247,162 245.423,162 245,160.238 245,159 245,159 244,158 244,158 244,158 241.5,154 241.5,154 238.356,152.428 238,159.076 238,161 238,170.691 229.167,177 220,177 214.433,177 210.639,175.069 204.5,172 201.606,170.553 200.071,166 197,166 197,177.288 187.844,173 179,173 179,175.867 184.149,175 186,175 186,175 189,175 189,175 189,175 191,176 191,176 205.579,176 206.499,174.999 220.5,182 222.997,183.249 225.451,190 226.5,190 228.027,190 230.563,189.625 232,192.5 232.459,193.419 231.235,195 233,195 233,195 237,199 237,199 239.477,199 239.522,196.989 241.5,196 244.042,194.729 246.868,198 249,198  Z"/>

<path  fill="#0E47E2" stroke-width="0" stroke="#0E47E2" d = " M238 161 C234.77,161 238.087,157 235.5,157 234.5,157 233.5,156 232.5,156 L231.5,158 L229.5,156 C227.288,156 227.633,164.234 227,165.5 226.151,167.198 225.151,165 224.5,165 L224,167.5 C221.656,172.188 220,165.66 220,177 229.167,177 238,170.691 238,161  Z"/>

<path  fill="#0E47E2" stroke-width="0" stroke="#0E47E2" d = " M247 162 C247,166.442 256.116,173 260,173 260,167.649 257.812,168.123 256,164.5 256,164.5 255.5,158 255.5,158 255.5,158 254.5,160 254.5,160 254.5,160 253.5,158 253.5,158 253.5,158 251.5,160 251.5,160 251.5,160 250.5,156 250.5,156 250.5,156 247,162 247,162  Z"/>

<path  fill="#0E47E2" stroke-width="0" stroke="#0E47E2" d = " M244 158 L245,159 C245,159 244,158 244,158  Z"/>

<path  fill="#0E47E2" stroke-width="0" stroke="#0E47E2" d = " M239 161 C239,162.93 240.93,161 239,161  Z"/>

<path  fill="#FF6E00" stroke-width="0" stroke="#FF6E00" d = " M382 163 L383,163 C383,163 382,162 382,162 382,162 382,163 382,163  Z"/>

<path  fill="#FF571E" stroke-width="0" stroke="#FF571E" d = " M303 211 C303,213.935 295.265,212.118 293.5,213 286.647,216.426 277.063,221 269,221 269,213.107 267.565,213.63 264,206.5 264,206.5 262,208 262,208 262,208 259,205 259,205 259,199.839 250,202.234 250,199 250,199 250,198 250,198 250,193.164 257.323,191.855 259,188.5 264.285,177.93 279.93,171 292,171 296.611,171 301.818,174 303,174 303,176.459 301,177.088 301,179.5 301,180.097 306,183.264 306,185.5 306,190.944 306,198.942 306,205 306,205 306,206 306,206 306,208.842 303,209.647 303,211  Z"/>

<path  fill="#006400" stroke-width="0" stroke="#006400" d = " M324 265 L326,265 C326,265 327,264 327,264 327,264 328,263 328,263 328,260.457 332,259.361 332,257.5 332,251.708 339.36,247.57 344.5,245 344.5,245 347.5,241 347.5,241 347.5,241 351,242 351,242 351,242 354,241 354,241 354,241 355,240 355,240 355,240 356,239 356,239 356,239 357,238 357,238 357,238 357,237 357,237 355.066,237 355.833,234 358,234 358,234 362,227.5 362,227.5 364.166,223.167 364,217.231 364,212 364,210.372 361.653,203 360,203 360,205.408 359,202.013 359,201 359,199.584 356.575,194 358,194 358,194 358,192 358,192 353.713,192 350.425,182.962 348.5,182 348.5,182 340.5,179 340.5,179 340.5,179 338.5,176 338.5,176 336.063,174.781 332.326,177 330.5,177 325.523,177 316.87,175.185 312.5,173 309.728,171.614 305.231,174 303,174 303,176.459 301,177.088 301,179.5 301,180.097 306,183.264 306,185.5 306,190.944 306,198.942 306,205 307.186,205 307.186,206 306,206 306,208.842 303,209.647 303,211 303,211 306.5,213 306.5,213 307.335,213.418 312.028,213.444 311,215.5 311,215.5 309,218.5 309,218.5 310.012,220.523 316.712,221.076 315,224.5 315,224.5 312,227.5 312,227.5 312,227.5 316,227.5 316,227.5 317.909,231.319 306.215,235.07 305,237.5 305,237.5 307,243 307,243 313.176,243 319.71,235 325.5,235 325.5,235 328.5,232 328.5,232 328.5,232 328,235.5 328,235.5 327.4,236.699 322.756,238.372 321.5,239 317.178,241.161 313.829,242.835 309.5,245 309.5,245 306.5,249 306.5,249 304.972,249.764 302,248.794 302,250 302,252.762 298.127,256.755 300,260.5 300,260.5 304.5,261 304.5,261 304.5,261 306.5,264 306.5,264 310.73,266.115 317.983,265 323,265 323,265 324,265 324,265  Z"/>

<path  fill="#BC20AD" stroke-width="0" stroke="#BC20AD" d = " M162 177 L163,177 C163,177 164,175 164,175 162.692,175 152,176.144 152,177 152,177 162,177 162,177  Z"/>

<path  fill="#FF571E" stroke-width="0" stroke="#FF571E" d = " M181 212 L193.5,218 L210,220 C210,218.082 209.134,211 212.5,211 212.5,211 213.5,214 213.5,214 213.5,214 214,210.5 214,210.5 214,210.5 219.5,206 219.5,206 219.693,205.904 232.741,206 235,206 235,206 236,205 236,205 236,205 236,204 236,204 236,204 229.5,205 229.5,205 227.22,203.86 233.961,199 235,199 235,199 233,195 233,195 231.235,195 232.459,193.419 232,192.5 230.563,189.625 228.027,190 226.5,190 225.451,190 222.997,183.249 220.5,182 206.499,174.999 205.579,176 191,176 191,176 189,175 189,175 189,175 186,175 186,175 186,175 183,178 183,178 183,180.655 188,180.568 188,182.5 188,182.5 185,183.5 185,183.5 183.64,186.219 186,186.673 186,188.5 186,188.5 180,194.5 180,194.5 180,194.5 183,198.5 183,198.5 183,198.5 181,200.5 181,200.5 181,200.5 184,202.5 184,202.5 184.748,203.997 181,208.197 181,211 181,211 181,212 181,212  Z"/>

<path  fill="#006400" stroke-width="0" stroke="#006400" d = " M165 268 L167,268 C168.81,268 180,269.043 180,266.5 180,265.558 176.563,262.968 178.5,262 179.99,261.255 181.958,260.771 183.5,260 183.5,260 185.5,256 185.5,256 186.546,255.477 189,256.951 189,255 189,255 187,255 187,255 187,255 186,254 186,254 184.773,254 181.621,251 179,251 178.219,251 170,245.573 170,245 170,242.016 163.971,242.443 163,240.5 162.452,239.403 165.713,238.607 166.5,239 166.5,239 170,240 170,240 170,235.58 173.634,241.067 175.5,242 175.5,242 180,240 180,240 180,238.577 181.978,236.456 181,234.5 181,234.5 179,233.5 179,233.5 179,233.5 182,232.5 182,232.5 182,232.5 182,221.5 182,221.5 180.817,219.134 177,220.543 177,215 175.814,215 175.814,214 177,214 185.566,214 173.17,212 180,212 180,212 181,211 181,211 181,208.197 184.748,203.997 184,202.5 184,202.5 181,200.5 181,200.5 181,200.5 183,198.5 183,198.5 183,198.5 180,194.5 180,194.5 180,194.5 186,188.5 186,188.5 186,186.673 183.64,186.219 185,183.5 185,183.5 188,182.5 188,182.5 188,180.568 183,180.655 183,178 180.593,178 175.689,177.094 173.5,176 173.5,176 163,177 163,177 163,177 162,177 162,177 162,178.781 151.824,178 150,178 146.518,178 144.584,182 142,182 142,183.634 139.366,186 138,186 138,186 137,187 137,187 137,187 136,187 136,187 136,192.758 128,196.494 128,203 128,207.87 123.209,210.081 121,214.5 118.709,219.082 123,225.143 123,229 123,229 124,231 124,231 124,232.818 126.517,240 129,240 130.811,240 133,243.438 133,245 133,245 135,246 135,246 135,246 138.5,245 138.5,245 143.979,247.74 152.422,255.343 155,260.5 155,260.5 162,267 162,267 162,267 165,268 165,268  Z"/>

<path  fill="#45EBCA" stroke-width="0" stroke="#45EBCA" d = " M248 180 C248,182.575 234,179.74 234,181.5 234,188.731 260.412,180 248,180  Z"/>

<path  fill="#022CFF" stroke-width="0" stroke="#022CFF" d = " M362 235 L363,236 C364.55,236 365.364,229.772 366,228.5 368.219,224.062 366.537,207.575 364,202.5 364,202.5 361,199.5 361,199.5 360.205,197.911 361.327,194 358,194 356.575,194 359,199.584 359,201 359,201 360,203 360,203 361.653,203 364,210.372 364,212 365.665,212 365,216.222 365,217.5 365,223.969 362,229.524 362,235  Z"/>

<path  fill="#FF00DA" stroke-width="0" stroke="#FF00DA" d = " M258 205 L259,205 C259,199.839 250,202.234 250,199 250,199 249,198 249,198 246.868,198 244.042,194.729 241.5,196 239.522,196.989 239.477,199 237,199 237,200.93 235.839,199 235,199 233.961,199 227.22,203.86 229.5,205 229.5,205 236,204 236,204 241.172,204 246.365,203 251,203 252.041,203 256,203.986 256,205 256,205 258,205 258,205  Z"/>

<path  fill="#022CFF" stroke-width="0" stroke="#022CFF" d = " M117 234 C120.272,234 120.238,242 125,242 125,237.179 114.591,227.319 118,220.5 119.49,217.519 118.554,213.392 120,210.5 121.341,207.818 126,206.179 126,203 126,203 125,202 125,202 123.144,202 117,208.003 117,210 117,212.872 115,215.976 115,218.5 115,223.26 117,228.921 117,234  Z"/>

<path  fill="#267EFF" stroke-width="0" stroke="#267EFF" d = " M145 270 L144,271 C144,271 143,270 143,270 143,267.555 138.87,264 136,264 136,264 136,263 136,263 136,261.137 125,242.067 125,242 125,237.179 114.591,227.319 118,220.5 119.49,217.519 118.554,213.392 120,210.5 121.341,207.818 126,206.179 126,203 126,201.07 127.161,203 128,203 128,207.87 123.209,210.081 121,214.5 118.709,219.082 123,225.143 123,229 123,229 124,231 124,231 124,232.818 126.517,240 129,240 129,240 133,247 133,247 133,247 135,249 135,249 135,249 135,250 135,250 135,251.516 139.737,264 141,264 141,264 142,265 142,265 142,265 145,267 145,267 145,267 145,270 145,270  Z"/>

<path  fill="#07FF59" stroke-width="0" stroke="#07FF59" d = " M241 283 L242,283 C242,278.84 247.655,284.422 248.5,284 248.5,284 256,276.5 256,276.5 256,276.5 257.5,273 257.5,273 260.068,273 258.522,275.978 261.5,273 263.436,271.064 264.905,250 261,250 253.709,250 255.892,237 265,237 267.847,237 268.63,225.76 268,224.5 267.528,223.555 267.844,221 269,221 269,213.107 267.565,213.63 264,206.5 264,206.5 262,208 262,208 262,208 259,205 259,205 259,205 258,205 258,205 258,205 256,206 256,206 254.016,206 252.055,202.722 249.5,204 245.976,205.762 248.438,211 245,211 245,227.121 246,244.033 246,259.5 246,262.482 245.82,269.86 245,271.5 245,271.5 244.5,275 244.5,275 241.748,275 241,262.848 241,260 241,252.72 244.661,218.822 242,213.5 242,213.5 240,209 240,209 240,209 237,206 237,206 237,206 235,206 235,206 232.741,206 219.693,205.904 219.5,206 219.5,206 214,210.5 214,210.5 214,210.5 213.5,214 213.5,214 213.5,214 212.5,211 212.5,211 209.134,211 210,218.082 210,220 210,227.84 221,234.173 221,239 221,239 224.5,237 224.5,237 230.251,239.876 231.848,252 225,252 225,254.099 221.442,256.383 223,259.5 226.47,266.439 231.234,283 241,283  Z"/>

<path  fill="#006400" stroke-width="0" stroke="#006400" d = " M235 206 L237,206 C237,206 236,205 236,205 236,205 235,206 235,206  Z"/>

<path  fill="#022CFF" stroke-width="0" stroke="#022CFF" d = " M240 205 C240,206.747 246,206.149 246,205.5 L240,205  Z"/>

<path  fill="#FF571E" stroke-width="0" stroke="#FF571E" d = " M258 205 L256,206 C256,206 256,205 256,205 256,205 258,205 258,205  Z"/>

<path  fill="#9953FF" stroke-width="0" stroke="#9953FF" d = " M306 205 C307.186,205 307.186,206 306,206 306,206 306,205 306,205  Z"/>

<path  fill="#022CFF" stroke-width="0" stroke="#022CFF" d = " M240 209 L242,213.5 C244.661,218.822 241,252.72 241,260 241,262.848 241.748,275 244.5,275 L245,271.5 C245.82,269.86 246,262.482 246,259.5 246,244.033 245,227.121 245,211 245,204.892 240,208.797 240,209  Z"/>

<path  fill="#022CFF" stroke-width="0" stroke="#022CFF" d = " M94 209 L93,210 C93,210 94,209 94,209  Z"/>

<path  fill="#00FF1D" stroke-width="0" stroke="#00FF1D" d = " M115 233 L117,234 C117,228.921 115,223.26 115,218.5 115,215.976 117,212.872 117,210 112.71,210 112,215.71 112,219 112,219 112,222 112,222 112,226.389 115,230.757 115,233  Z"/>

<path  fill="#9953FF" stroke-width="0" stroke="#9953FF" d = " M295 297 C291.651,297 289.173,302 285,302 285,302 279.5,292 279.5,292 277.82,291.16 276.736,295.118 274.5,294 274.5,294 271,289 271,289 271,287.357 267.235,288 266,288 264.592,288 261,285.644 261,289 261,289 256.5,285 256.5,285 253.828,283.664 248.128,286.814 246.5,286 246.5,286 242,283 242,283 242,278.84 247.655,284.422 248.5,284 248.5,284 256,276.5 256,276.5 256,276.5 257.5,273 257.5,273 260.068,273 258.522,275.978 261.5,273 263.436,271.064 264.905,250 261,250 261,250 266,243.5 266,243.5 266,243.5 265,237 265,237 267.847,237 268.63,225.76 268,224.5 267.528,223.555 267.844,221 269,221 277.063,221 286.647,216.426 293.5,213 295.265,212.118 303,213.935 303,211 303,211 306.5,213 306.5,213 307.335,213.418 312.028,213.444 311,215.5 311,215.5 309,218.5 309,218.5 310.012,220.523 316.712,221.076 315,224.5 315,224.5 312,227.5 312,227.5 312,227.5 316,227.5 316,227.5 317.909,231.319 306.215,235.07 305,237.5 305,237.5 307,243 307,243 298.381,243 293.629,248.435 286.5,252 283.468,253.516 279.472,253.514 276.5,255 275.662,255.419 274.081,257.29 275.5,258 275.5,258 278.5,257 278.5,257 280.843,255.828 285.075,258.712 288.5,257 292.107,255.197 297.984,250 302,250 302,252.762 298.127,256.755 300,260.5 300,260.5 304.5,261 304.5,261 304.5,261 306.5,264 306.5,264 310.73,266.115 317.983,265 323,265 323,265 323,266 323,266 323,271.402 309,275.251 309,283 308.035,283 295,294.362 295,297  Z"/>

<path  fill-rule="evenodd" fill="#9953FF" stroke-width="0" stroke="#9953FF" d = " M179 216 C179,224.499 184.918,216 179,216  M190 300 C194.73,300 194.107,311 200,311 200,302.355 214.346,291 223,291 223,289.571 224.288,287 226,287 226,284.157 241,287.093 241,283 231.234,283 226.47,266.439 223,259.5 221.442,256.383 225,254.099 225,252 222.597,252 221.119,245.739 220,243.5 219.496,242.492 219.78,239 221,239 221,234.173 210,227.84 210,220 210,220 193.5,218 193.5,218 193.5,218 181,212 181,212 181,212 180,212 180,212 173.17,212 185.566,214 177,214 177,214 177,215 177,215 177,220.543 180.817,219.134 182,221.5 182,221.5 182,232.5 182,232.5 182,232.5 179,233.5 179,233.5 179,233.5 181,234.5 181,234.5 181.978,236.456 180,238.577 180,240 180,241.719 185,240.485 185,244 185,245.229 195.024,247.262 196.5,248 201.066,250.283 203.825,253.663 208.5,256 208.5,256 215,256.5 215,256.5 218.533,263.567 204.062,257.281 203.5,257 203.5,257 199.5,258 199.5,258 198.738,257.619 190.699,255 189,255 189,256.951 186.546,255.477 185.5,256 185.5,256 183.5,260 183.5,260 181.958,260.771 179.99,261.255 178.5,262 176.563,262.968 180,265.558 180,266.5 180,269.043 168.81,268 167,268 167,268 167,269 167,269 167,272.049 182,279.226 182,285 184.029,285 183.881,286.191 185.5,287 192.849,290.675 190,293.295 190,300  Z"/>

<path  fill="#267EFF" stroke-width="0" stroke="#267EFF" d = " M346 258 L347,260 C347,260 352,255 352,255 352,255 353,254 353,254 353,254 354,252 354,252 354,250.762 354.423,249 356,249 356,249 357,248 357,248 357,248 360,242 360,242 360,240.407 360.337,235 362,235 362,229.524 365,223.969 365,217.5 365,216.222 365.665,212 364,212 364,217.231 364.166,223.167 362,227.5 362,227.5 358,234 358,234 358,234 357,237 357,237 357,237 357,238 357,238 357,238 356,239 356,239 356,239 355,240 355,240 355,240 354,241 354,241 354,241 352,244 352,244 352,249.151 346,252.915 346,258  Z"/>

<path  fill="#006400" stroke-width="0" stroke="#006400" d = " M179 216 C179,224.499 184.918,216 179,216  Z"/>

<path  fill="#DD6479" stroke-width="0" stroke="#DD6479" d = " M401 263 C401,268.681 409.776,267.638 412.5,269 L414.5,271 C415.239,271 415.965,267.733 418.5,269 420.67,270.085 425.553,272.473 428.5,271 430.845,269.828 431.972,269 435,269 435,268.285 433.92,260.661 434,260.5 434.555,259.39 444.765,256.969 447,252.5 448.786,248.927 448,237.683 448,235 444.63,235 427.598,231.549 424.5,230 424.5,230 420.5,225 420.5,225 420.5,225 417.5,228 417.5,228 417.5,228 408,224 408,224 408,226.939 404.806,250.887 404,252.5 402.293,255.914 401,258.852 401,263  Z"/>

<path  fill="#DD6479" stroke-width="0" stroke="#DD6479" d = " M93 269 C93,271.864 82.5696,269 81.5,269 78.2655,269 73.2853,273.607 70.5,275 67.4099,276.545 68.5395,272 67.5,272 65.9411,272 64.0945,275 63.5,275 58.4736,275 52.9778,271 47,271 47,269.416 50.9709,265.442 50,263.5 48.05,259.6 39.8451,263.19 37,257.5 33.4476,250.395 38,245.151 38,238 41.6661,238 39.6766,240 41.5,240 41.5,240 61.5,231 61.5,231 61.5,231 63.5,228 63.5,228 63.7178,227.891 68.8878,230 70.5,230 72.8807,230 76.5773,225 79,225 79,225 81,229.5 81,229.5 81.3512,230.202 81.6718,245.844 83,248.5 83,248.5 88,254.5 88,254.5 88,254.5 88,261.5 88,261.5 88.6064,262.713 90,259.88 90,263 89.1896,263 87.1137,266.307 88.5,267 88.5,267 91,265 91,265 91,265 93,269 93,269  Z"/>

<path  fill="#D4FF00" stroke-width="0" stroke="#D4FF00" d = " M307 243 C313.176,243 319.71,235 325.5,235 L328.5,232 L328,235.5 C327.4,236.699 322.756,238.372 321.5,239 317.178,241.161 313.829,242.835 309.5,245 L306.5,249 C304.972,249.764 302,248.794 302,250 297.984,250 292.107,255.197 288.5,257 285.075,258.712 280.843,255.828 278.5,257 278.5,257 275.5,258 275.5,258 274.081,257.29 275.662,255.419 276.5,255 279.472,253.514 283.468,253.516 286.5,252 293.629,248.435 298.381,243 307,243  Z"/>

<path  fill="#F44345" stroke-width="0" stroke="#F44345" d = " M221 239 L224.5,237 C230.251,239.876 231.848,252 225,252 222.597,252 221.119,245.739 220,243.5 219.496,242.492 219.78,239 221,239  Z"/>

<path  fill="#F44345" stroke-width="0" stroke="#F44345" d = " M265 237 C255.892,237 253.709,250 261,250 261,250 266,243.5 266,243.5 266,243.5 265,237 265,237  Z"/>

<path  fill="#D4FF00" stroke-width="0" stroke="#D4FF00" d = " M187 255 L189,255 C190.699,255 198.738,257.619 199.5,258 199.5,258 203.5,257 203.5,257 204.062,257.281 218.533,263.567 215,256.5 215,256.5 208.5,256 208.5,256 203.825,253.663 201.066,250.283 196.5,248 195.024,247.262 185,245.229 185,244 179.575,244 171.027,240 170,240 170,240 166.5,239 166.5,239 165.713,238.607 162.452,239.403 163,240.5 163.971,242.443 170,242.016 170,245 171.996,245 179,248.256 179,251 181.621,251 184.773,254 186,254 186,254 187,255 187,255  Z"/>

<path  fill="#FF3427" stroke-width="0" stroke="#FF3427" d = " M314 297 L316,297 C316,297 320,293.5 320,293.5 320.656,292.189 320.797,288 323,288 323,288 324,287 324,287 324,287 325,286 325,286 325,286 326,284 326,284 326,284 328,282 328,282 328,282 329,280 329,280 329,280 330,279 330,279 330,279 331,278 331,278 332.577,278 333,276.238 333,275 333,275 334,273 334,273 334,273 336,271 336,271 336,271 337,270 337,270 337,270 339,267 339,267 339,267 340,266 340,266 340,266 346,258 346,258 346,252.915 352,249.151 352,244 352,244 351,242 351,242 351,242 347.5,241 347.5,241 347.5,241 344.5,245 344.5,245 339.36,247.57 332,251.708 332,257.5 332,259.361 328,260.457 328,263 328,263 327,264 327,264 327,264 326,266 326,266 326,266 327,269.5 327,269.5 327,269.5 316.5,282 316.5,282 315.405,283.095 309,288.017 309,283 308.035,283 295,294.362 295,297 295,297 298.5,301 298.5,301 302.805,303.153 308.801,298 313,298 313,298 314,297 314,297  Z"/>

<path  fill="#FAAA40" stroke-width="0" stroke="#FAAA40" d = " M133 247 L135,249 C135,249 135,246 135,246 135,246 133,245 133,245 133,245 133,247 133,247  Z"/>

<path  fill="#FF3427" stroke-width="0" stroke="#FF3427" d = " M174 300 C174,298.449 177.592,301 179,301 L190,300 C190,293.295 192.849,290.675 185.5,287 183.881,286.191 184.029,285 182,285 169.56,285 162,278.438 162,267 162,267 155,260.5 155,260.5 152.422,255.343 143.979,247.74 138.5,245 138.5,245 135,246 135,246 135,246 135,249 135,249 135,249 135,250 135,250 138.204,250 140.649,259.798 142,262.5 143.014,264.529 145,264.771 145,267 145,267 145,270 145,270 145,270 146,270 146,270 147.186,270 147.186,271 146,271 146,274.017 165,287.994 165,293 168.398,293 170.13,300 174,300  Z"/>

<path  fill="#FAAA40" stroke-width="0" stroke="#FAAA40" d = " M142 265 L145,267 C145,264.771 143.014,264.529 142,262.5 140.649,259.798 138.204,250 135,250 135,251.516 139.737,264 141,264 141,264 142,265 142,265  Z"/>

<path  fill="#9953FF" stroke-width="0" stroke="#9953FF" d = " M186 254 L187,255 C187,255 186,254 186,254  Z"/>

<path  fill="#03C12D" stroke-width="0" stroke="#03C12D" d = " M397 260 C395.423,260 395,261.762 395,263 396.577,263 397,261.238 397,260  Z"/>

<path  fill="#2E8B57" stroke-width="0" stroke="#2E8B57" d = " M391 272 L396.5,276 L410.5,281 L412.5,284 L416.5,281 L419.5,285 L421.5,282 L432,283 C438.81,283 442.627,269 435,269 431.972,269 430.845,269.828 428.5,271 425.553,272.473 420.67,270.085 418.5,269 415.965,267.733 415.239,271 414.5,271 414.5,271 412.5,269 412.5,269 409.776,267.638 401,268.681 401,263 401,263 397,260 397,260 397,261.238 396.577,263 395,263 395,263 394,264 394,264 394,267.351 391,269.596 391,272  Z"/>

<path  fill="#03C12D" stroke-width="0" stroke="#03C12D" d = " M395 263 L394,264 C394,264 395,263 395,263  Z"/>

<path  fill="#FF3427" stroke-width="0" stroke="#FF3427" d = " M141 264 L142,265 C142,265 141,264 141,264  Z"/>

<path  fill="#FFBA00" stroke-width="0" stroke="#FFBA00" d = " M326 266 L327,269.5 L316.5,282 C315.405,283.095 309,288.017 309,283 309,275.251 323,271.402 323,266 323,266 324,265 324,265 324,265 326,265 326,265 326,265 326,266 326,266  Z"/>

<path  fill="#FFBA00" stroke-width="0" stroke="#FFBA00" d = " M167 269 C167,272.049 182,279.226 182,285 169.56,285 162,278.438 162,267 162,267 165,268 165,268 165,268 167,269 167,269  Z"/>

<path  fill="#2E8B57" stroke-width="0" stroke="#2E8B57" d = " M96 275 L82.5,282 L75.5,283 C74.2176,283.641 72.6412,284.218 72,285.5 L71.5,288 C71.0849,288 68.9151,283 68.5,283 L64.5,288 L60.5,285 C57.3833,283.442 55.0993,287 53,287 53,284.404 47.3276,285.155 46,282.5 45.1866,280.873 43.268,271 47,271 52.9778,271 58.4736,275 63.5,275 64.0945,275 65.9411,272 67.5,272 68.5395,272 67.4099,276.545 70.5,275 73.2853,273.607 78.2655,269 81.5,269 82.5696,269 93,271.864 93,269 93,269 96,275 96,275  Z"/>

<path  fill="#FAAA40" stroke-width="0" stroke="#FAAA40" d = " M146 270 C147.186,270 147.186,271 146,271 146,271 146,270 146,270  Z"/>

<path  fill="#03C12D" stroke-width="0" stroke="#03C12D" d = " M356 337 C357.623,337 362,337.005 362,339 365.155,339 367.876,340.688 370.5,342 370.5,342 397.5,342 397.5,342 403.702,338.899 410.181,336.159 416.5,333 430.325,326.088 432,297.084 432,283 432,283 421.5,282 421.5,282 421.5,282 419.5,285 419.5,285 419.5,285 416.5,281 416.5,281 416.5,281 412.5,284 412.5,284 412.5,284 410.5,281 410.5,281 410.5,281 396.5,276 396.5,276 396.5,276 391,272 391,272 387.035,272 375.864,286.318 370.5,289 368.059,290.22 366.451,289 364.5,289 364.5,289 362.5,292 362.5,292 362.5,292 353.5,295 353.5,295 353.5,295 351.5,294 351.5,294 348.603,294 341.241,296.629 338.5,298 334.448,300.026 326.701,297 323,297 323,297 318,302 318,302 318,303.81 323.412,314 317,314 317,317.541 322,320.151 322,323 325.188,323 324.952,324.726 327.5,326 327.5,326 333.5,325 333.5,325 337.039,326.77 338.448,331 343,331 344.766,331 348,331.607 348,334 348,334 353,336 353,336 353,336 356,337 356,337  Z"/>

<path  fill="#03C12D" stroke-width="0" stroke="#03C12D" d = " M125 340 L126,340 C126,338.005 130.377,338 132,338 138.442,338 141.986,334 147,334 147,334 150,333 150,333 150,330.978 155.626,325.937 157.5,325 157.5,325 164.5,325 164.5,325 164.5,325 169,322.5 169,322.5 169,322.5 169.5,320 169.5,320 169.5,320 171,323 171,323 175.497,323 177,314.149 177,311 173.142,311 172.599,319.049 168.5,317 166.803,316.152 162.991,316.482 162,314.5 160.427,311.354 163.746,302.377 166.5,301 170.145,299.177 174.271,306 177,306 177,306 174,300 174,300 170.13,300 168.398,293 165,293 165,293 161,293 161,293 161,294.842 162,297.283 162,298.5 162,299.375 151.124,301.812 149.5,301 145.014,298.757 131.886,297.693 128.5,296 122.45,292.975 116.491,289.996 110.5,287 105.894,284.697 104.062,275 99,275 99,278.743 96,278.743 96,275 96,275 82.5,282 82.5,282 82.5,282 75.5,283 75.5,283 74.2176,283.641 72.6412,284.218 72,285.5 72,285.5 71.5,288 71.5,288 71.0849,288 68.9151,283 68.5,283 68.5,283 64.5,288 64.5,288 64.5,288 60.5,285 60.5,285 57.3833,283.442 55.0993,287 53,287 53,297.658 57.8267,326.163 67.5,331 67.5,331 84.5,341 84.5,341 86.8595,342.18 90.0579,341.779 92.5,343 97.3208,345.41 104.956,340.772 108.5,339 108.5,339 115.5,341 115.5,341 118.322,342.411 122.579,340 125,340  Z"/>

<path  fill-rule="evenodd" fill="#E278A1" stroke-width="0" stroke="#E278A1" d = " M240 326 L240,327 C238.055,327 240.58,329.66 241,330.5 241,330.5 240.5,344 240.5,344 236.678,344 228.25,342.375 225.5,341 224.29,340.395 224.512,338.006 222.5,337 210.066,330.783 200,328.566 200,311 200,302.355 214.346,291 223,291 223,296.654 231.024,299.453 233,295.5 233.985,293.531 228.149,287 226,287 226,284.157 241,287.093 241,283 241,283 242,283 242,283 242,283 246.5,286 246.5,286 248.128,286.814 253.828,283.664 256.5,285 256.5,285 261,289 261,289 261,285.644 264.592,288 266,288 266,289.643 269.765,289 271,289 271,289 274.5,294 274.5,294 276.736,295.118 277.82,291.16 279.5,292 279.5,292 285,302 285,302 285,311.802 287.127,326.186 275.5,332 275.5,332 269.5,338 269.5,338 269.5,338 261.5,339 261.5,339 261.5,339 253.5,343 253.5,343 253.5,343 252.5,341 252.5,341 252.5,341 248.5,345 248.5,345 246.271,343.886 247.938,336 246,336 246,332.781 249.218,324 247,324 247,324 245,323 245,323 245,323 243,322 243,322 239.083,322 233.683,326 240,326  M261 289 C261,289.258 250.98,295.24 254.5,297 258.09,298.795 270.582,289 261,289  Z"/>

<path  fill="#EEBA00" stroke-width="0" stroke="#EEBA00" d = " M226 287 C228.149,287 233.985,293.531 233,295.5 231.024,299.453 223,296.654 223,291 223,289.571 224.288,287 226,287  Z"/>

<path  fill="#EEBA00" stroke-width="0" stroke="#EEBA00" d = " M261 289 C261,289.258 250.98,295.24 254.5,297 258.09,298.795 270.582,289 261,289  Z"/>

<path  fill="#0E47E2" stroke-width="0" stroke="#0E47E2" d = " M318 302 C318,303.81 323.412,314 317,314 312.802,314 303.587,309.327 307,302.5 308.141,300.218 313,302.42 313,298 313,298 314,297 314,297 314,297 316,297 316,297 316,299.523 318,298.959 318,302  Z"/>

<path  fill="#0E47E2" stroke-width="0" stroke="#0E47E2" d = " M177 306 C174.271,306 170.145,299.177 166.5,301 163.746,302.377 160.427,311.354 162,314.5 162.991,316.482 166.803,316.152 168.5,317 172.599,319.049 173.142,311 177,311 177,309.376 177,308.25 177,306  Z"/>

<path  fill-rule="evenodd" fill="#FA8072" stroke-width="0" stroke="#FA8072" d = " M145 343 C145,346.746 147.091,343 145,343  M151 340 C151,344.136 156.677,340 151,340  M145 340 C145,343.807 150.395,340 145,340  M125 340 L126,340 C127.072,340 132,340.147 132,338 138.442,338 141.986,334 147,334 147,335.669 153,337.251 153,334.5 153,334.5 150,333 150,333 150,330.978 155.626,325.937 157.5,325 157.5,325 164.5,325 164.5,325 164.5,325 169,322.5 169,322.5 169,322.5 169.5,320 169.5,320 169.5,320 171,323 171,323 171,323.039 187.581,336.662 189,339.5 191.016,343.532 186.347,346.807 185,349.5 185,349.5 185,354.5 185,354.5 183.809,356.882 182.155,355.173 180.5,356 170.848,360.826 164.562,349.531 159.5,347 159.5,347 153.5,343 153.5,343 153.5,343 153.5,345 153.5,345 157.116,346.808 165.426,354.537 158.5,358 157.445,358.528 129.584,355.542 126.5,354 124.762,353.131 125.444,349 123.5,349 121.784,349 119.99,353.48 118,349.5 115.759,345.018 125,344.66 125,340  Z"/>

<path  fill="#022CFF" stroke-width="0" stroke="#022CFF" d = " M244 341 L245,341 C245,341 246,336 246,336 246,332.781 249.218,324 247,324 247,324 245,323 245,323 245,323 243,322 243,322 243,322 240,326 240,326 240,326 240,327 240,327 243.163,327 242,334.871 242,337 243.579,337 243,339.855 243,341 243,341 244,341 244,341  Z"/>

<path  fill="#FA8072" stroke-width="0" stroke="#FA8072" d = " M356 337 C357.623,337 362,337.005 362,339 362,341.348 367.628,341.244 366,344.5 366,344.5 356.5,350 356.5,350 356.5,350 358,351.5 358,351.5 358,354.137 341.538,355.981 339.5,357 339.5,357 331.5,360 331.5,360 331.5,360 329.5,356 329.5,356 328.177,356 325.766,364.133 321.5,362 319.246,360.873 315.721,356 313.5,356 310.548,356 306.299,359.098 304,354.5 304,354.5 303,347.5 303,347.5 301.524,344.548 298.212,347 296.5,347 296.5,347 296,339.5 296,339.5 298.474,334.551 300.118,339 302.5,339 302.5,339 303.5,336 303.5,336 305.118,335.191 306.855,335.79 308,333.5 309.052,331.396 306,330.83 306,329.5 306,325.646 320.561,323 322,323 325.188,323 324.952,324.726 327.5,326 327.5,326 333.5,325 333.5,325 337.039,326.77 338.448,331 343,331 343,331 348,334 348,334 348,334 353,336 353,336 353,338.712 356,341.573 356,337  Z"/>

<path  fill="#E278A1" stroke-width="0" stroke="#E278A1" d = " M242 337 C243.579,337 243,339.855 243,341 243,348.625 242,340.591 242,337  Z"/>

<path  fill="#E278A1" stroke-width="0" stroke="#E278A1" d = " M244 341 L245,341 C245,346.322 244,346.322 244,341  Z"/>

<path  fill="#FA8072" stroke-width="0" stroke="#FA8072" d = " M187 350 C187,355.395 190.807,350 187,350  Z"/>

</g>
</svg>
