<svg xmlns="http://www.w3.org/2000/svg" xmlns:xlink="http://www.w3.org/1999/xlink" height="512" width="512">
<g>
<rect width="512" height="512" fill="#000000"  stroke-width="0" /> 
<path  fill-rule="evenodd" fill="#86FF5A" stroke-width="0" stroke="#86FF5A" d = " M240 325 L237,328.5 L239,330.5 L238,332.5 C239.487,335.473 240.966,333 242.5,333 243.888,333 246.472,335.014 248.5,334 250.579,332.96 251.987,325 249.5,325 247.829,325 246.264,328.382 243.5,327 L240,325  M227 292 L222.5,296 C216.966,296 215.907,295.297 210.5,298 L208.5,301 L204.5,301 C196.396,305.052 190.211,324.921 195,334.5 L194,343.5 C196.753,349.007 207.044,370.772 213.5,374 L224.5,379 C226.845,380.172 237.158,379.671 238.5,379 L244.5,373 C247.439,374.47 247.686,378.593 250.5,380 265.797,387.649 291,357.48 291,348.5 L294,346.5 C296.806,340.888 295.793,320.087 293,314.5 292.245,312.991 291.122,305 288.5,305 285.771,305 274.787,295 269.5,295 265.475,295 261.379,295 256.5,295 L253,292 C251.466,292 247.681,297.59 244.5,296 L239.5,293 L238.5,295 L236.5,292 C235.07,292 233.222,294 231.5,294 230.375,294 228.943,292 227,292  Z"/>

<path  fill-rule="evenodd" fill="#EB57FF" stroke-width="0" stroke="#EB57FF" d = " M243 329 C243,335.073 248.158,329 243,329  M240 325 L237,328.5 L239,330.5 L238,332.5 C239.487,335.473 240.966,333 242.5,333 243.888,333 246.472,335.014 248.5,334 250.579,332.96 251.987,325 249.5,325 247.829,325 246.264,328.382 243.5,327 L240,325  Z"/>

<path  fill="#27F4FD" stroke-width="0" stroke="#27F4FD" d = " M243 329 C243,335.073 248.158,329 243,329  Z"/>

</g>
</svg>
