<svg xmlns="http://www.w3.org/2000/svg" xmlns:xlink="http://www.w3.org/1999/xlink" height="512" width="512">
<g>
<rect width="512" height="512" fill="#000000"  stroke-width="0" /> 
<path  fill="#03C12D" stroke-width="0" stroke="#03C12D" d = " M233 233 C237.151,233 239.772,224.636 242.5,226 243.558,226.529 252.096,238 255,238 255,235.849 256.409,238.545 257.5,238 257.5,238 260.5,234 260.5,234 263.787,232.357 267.295,230.603 270.5,229 280.476,224.012 288.438,206.969 302.5,214 302.5,214 304.5,217 304.5,217 306.154,217 311.063,217.781 313.5,219 313.5,219 314.5,222 314.5,222 315.973,222.736 324,227.897 324,230 327.079,230 330.396,235 332.5,235 337.476,235 344.197,224.106 346,220.5 351.702,209.095 367.135,180.769 361,168.5 361,168.5 361,163.5 361,163.5 351.764,145.027 330.172,132.836 312.5,124 308.745,122.122 299.671,121.585 296.5,120 294.272,118.886 270.954,117.773 268.5,119 261.524,122.488 252.208,130.085 249,136.5 248.07,138.359 246.02,146 243.5,146 243.5,146 243,143.5 243,143.5 241.43,140.361 239.5,137.5 238,134.5 238,134.5 224.5,125 224.5,125 224.5,125 220.5,125 220.5,125 200.403,114.952 175.406,127.047 157.5,136 152.061,138.719 147.87,144.315 142.5,147 138.397,149.052 134.748,156.003 133,159.5 130.609,164.282 128.336,168.827 126,173.5 123.253,178.994 130.067,184.633 132,188.5 132,188.5 133,196.5 133,196.5 133,196.5 139,204.5 139,204.5 140.556,207.612 148.557,229.028 150.5,230 155.969,232.735 159.256,228 164,228 164,228 167,227 167,227 167,227 168,226 168,226 171.129,226 178.405,215 178.5,215 178.5,215 179.5,217 179.5,217 179.5,217 181.5,213 181.5,213 184.021,211.74 184.43,213 186.5,213 187.656,213 191.925,209.787 193.5,209 198.271,206.615 217.379,225.439 222.5,228 223.661,228.58 233,232.639 233,233  Z"/>

<path  fill-rule="evenodd" fill="#FF8700" stroke-width="0" stroke="#FF8700" d = " M193 235 L192,241.5 L194.5,242 C198.764,244.132 198.89,249.695 203.5,252 206.797,253.648 208.244,258.872 210.5,260 L214,258.5 L208,251.5 C204.08,243.659 204.09,235 193,235  M164 228 C164,231.474 163.405,232.691 162,235.5 158.566,242.368 165.471,253.442 168,258.5 169.176,260.852 168.154,263.327 171.5,265 L182.5,269 C185.075,270.288 182.922,273.711 183.5,274 190.267,277.384 195.862,281 203.5,281 208.752,281 213.362,293.569 220.5,290 224.516,287.992 225.446,283.608 227,280.5 L232,275.5 C235.07,269.361 243.24,252.981 239,244.5 238.383,243.265 233,233.453 233,233 233,232.639 223.661,228.58 222.5,228 217.379,225.439 198.271,206.615 193.5,209 191.925,209.787 187.656,213 186.5,213 184.43,213 184.021,211.74 181.5,213 181.5,213 179.5,217 179.5,217 179.5,217 178.5,215 178.5,215 178.405,215 171.129,226 168,226 168,226 167,227 167,227 167,227 164,228 164,228  Z"/>

<path  fill-rule="evenodd" fill="#FF8700" stroke-width="0" stroke="#FF8700" d = " M297 237 C297,240.479 292.39,236.555 289.5,238 286.168,239.666 289.615,241 286.5,241 283.982,241 284.594,246.312 284,247.5 L276,255.5 C275.32,256.18 273.045,259.273 274.5,260 275.946,260.723 280.414,259.673 281,258.5 282.3,255.901 281.472,259.014 283.5,258 285.642,256.929 285.925,253.651 287,251.5 L297,241.5 L300,238.5 L297,237  M324 230 C324,236.955 331.58,241.34 329,246.5 327.586,249.328 323.28,258.61 320.5,260 318.469,261.015 314.21,262.08 313,264.5 310.596,269.308 298.39,279.555 293.5,282 L288.5,282 L286.5,286 C283.756,287.372 279.281,286.109 277.5,287 275.807,287.846 278.372,294.436 273.5,292 261.538,286.019 258.3,281.1 253,270.5 L250,268.5 L250,245.5 C251.379,242.741 255,242.415 255,238 255,235.849 256.409,238.545 257.5,238 257.5,238 260.5,234 260.5,234 263.787,232.357 267.295,230.603 270.5,229 280.476,224.012 288.438,206.969 302.5,214 302.5,214 304.5,217 304.5,217 306.154,217 311.063,217.781 313.5,219 313.5,219 314.5,222 314.5,222 315.973,222.736 324,227.897 324,230  Z"/>

<path  fill="#FF4FCE" stroke-width="0" stroke="#FF4FCE" d = " M193 235 L192,241.5 L194.5,242 C198.764,244.132 198.89,249.695 203.5,252 206.797,253.648 208.244,258.872 210.5,260 L214,258.5 L208,251.5 C204.08,243.659 204.09,235 193,235  Z"/>

<path  fill="#FF4FCE" stroke-width="0" stroke="#FF4FCE" d = " M297 237 C297,240.479 292.39,236.555 289.5,238 286.168,239.666 289.615,241 286.5,241 283.982,241 284.594,246.312 284,247.5 L276,255.5 C275.32,256.18 273.045,259.273 274.5,260 275.946,260.723 280.414,259.673 281,258.5 282.3,255.901 281.472,259.014 283.5,258 285.642,256.929 285.925,253.651 287,251.5 L297,241.5 L300,238.5 L297,237  Z"/>

<path  fill="#30DA00" stroke-width="0" stroke="#30DA00" d = " M212 300 C212,301.184 206.804,303.108 208,305.5 210.758,311.016 212.86,312.18 218.5,315 219.589,315.545 225,315.251 225,313.5 225,306.837 220.206,300 212,300  Z"/>

<path  fill="#30DA00" stroke-width="0" stroke="#30DA00" d = " M280 300 C280,302.999 271.301,301.898 270,304.5 266.274,311.952 276.365,317.067 280.5,315 288.13,311.185 291.141,300 280,300  Z"/>

<path  fill="#FA8072" stroke-width="0" stroke="#FA8072" d = " M306 301 L305,305.5 C307.452,310.403 314.407,301 306,301  Z"/>

<path  fill="#FA8072" stroke-width="0" stroke="#FA8072" d = " M184 306 C184,319.946 200.183,306 184,306  Z"/>

<path  fill="#FA8072" stroke-width="0" stroke="#FA8072" d = " M192 311 C192,314.746 194.091,311 192,311  Z"/>

<path  fill-rule="evenodd" fill="#FA8072" stroke-width="0" stroke="#FA8072" d = " M293 383 C293,387.42 294.206,383 293,383  M286 369 C286,369.974 281.781,371.937 281,373.5 278.69,378.12 284,384.677 284,385.5 284,386.854 279.102,389.703 281,393.5 282.745,396.99 285.394,396.447 288.5,398 L290.5,403 L295.5,401 L300.5,403 C304.135,401.182 299.953,394.273 304.5,392 309.29,389.605 308.71,401.395 313.5,399 316.649,397.426 318.662,390.825 317,387.5 315.199,383.899 314.66,381.08 310.5,379 309.981,378.74 305.019,378.74 304.5,379 L301,381.5 L302,374.5 C300.142,370.783 290.165,369 286,369  Z"/>

<path  fill="#FA8072" stroke-width="0" stroke="#FA8072" d = " M196 373 L193,375.5 C191.329,378.843 192.828,382.836 188.5,385 L184.5,383 C181.58,384.46 174.326,390.848 173,393.5 171.458,396.584 174.924,402.788 178.5,401 182.468,399.016 184.683,395 189.5,395 192.527,395 194.614,401 195.5,401 197.932,401 200.253,395 200.5,395 206.919,395 204.429,408.535 213.5,404 221.474,400.013 210.716,394.067 212,391.5 219.277,376.946 218.453,375 203.5,375 201.537,375 198.873,373 196,373  Z"/>

</g>
</svg>
