<svg xmlns="http://www.w3.org/2000/svg" xmlns:xlink="http://www.w3.org/1999/xlink" height="512" width="512">
<g>
<rect width="512" height="512" fill="#000000"  stroke-width="0" /> 
<path  fill="#03C12D" stroke-width="0" stroke="#03C12D" d = " M146 263 L145,264 C125.999,264 122.987,252.473 116,238.5 116,238.5 111,234.5 111,234.5 111,234.5 110,226.5 110,226.5 110,226.5 106,221.5 106,221.5 101.591,212.683 98.6511,186.198 103,177.5 103,177.5 103,170.5 103,170.5 104.851,166.799 107.171,163.158 109,159.5 109,159.5 112,158.5 112,158.5 112,158.5 121.5,145 121.5,145 121.5,145 129.5,137 129.5,137 135.954,133.773 142.01,129.245 148.5,126 163.619,118.44 181.361,116.57 196.5,109 196.5,109 203.5,109 203.5,109 211.898,104.801 227.739,114.119 235.5,118 235.5,118 240.5,126 240.5,126 244.734,128.117 250.827,114.836 254.5,113 261.194,109.653 268.833,108.334 275.5,105 278.858,103.321 285.942,105.721 288.5,107 293.134,109.317 299.945,107.723 304.5,110 304.5,110 319.5,117 319.5,117 319.5,117 324.5,117 324.5,117 329.27,119.385 333.699,121.6 338.5,124 338.5,124 342.5,124 342.5,124 349.426,127.463 371.743,141.986 375,148.5 375,148.5 378,156.5 378,156.5 379.951,160.401 383.11,161.719 385,165.5 388.623,172.747 387,184.365 387,193 387,202.742 386.681,204.139 383,211.5 381.913,213.674 384.434,217.631 383,220.5 383,220.5 380,223.5 380,223.5 380,223.5 380,229.5 380,229.5 380,229.5 374,244.5 374,244.5 372.523,247.453 368.089,246.322 367,248.5 362.411,257.678 356.867,261 346,261 339.562,261 338.205,252.352 333.5,250 325.654,246.077 317.359,242.429 308.5,238 305.37,236.435 303.655,231 299.5,231 292.009,231 278.201,244.65 269.5,249 269.5,249 263,255 263,255 261.814,255 257.808,251.654 256.5,251 256.5,251 249,253 249,253 246.101,253 245.848,248 243.5,248 243.5,248 240,250 240,250 232.336,250 225.393,249 218,249 215.73,249 196.215,235.358 191.5,233 191.5,233 183.5,237 183.5,237 181.461,238.019 178.615,237.942 176.5,239 172.098,241.201 154.861,254.779 153,258.5 153,258.5 146,263 146,263  Z"/>

<path  fill-rule="evenodd" fill="#FF8700" stroke-width="0" stroke="#FF8700" d = " M286 258 C286,262.69 276.569,265.638 280,272.5 281.417,275.333 285.699,271.599 288.5,273 L290.5,275 C293.384,275 294.562,268.376 296,265.5 L299,260.5 L294.5,260 C292.1,258.8 290.429,258 286,258  M346 261 C346,264.586 347.211,269.077 345,273.5 343.459,276.581 336.375,277.749 335,280.5 331.446,287.607 320.85,288.825 314.5,292 L307.5,299 C300.133,302.683 291.78,304.36 284.5,308 282.544,308.978 280.423,307 279,307 266.488,307 253,303.658 253,289 260.027,289 254,282.72 254,280.5 254,280.5 258,278.5 258,278.5 258,278.5 255,276.5 255,276.5 255,276.5 258,274.5 258,274.5 258,273.316 256.087,271.325 257,269.5 258.496,266.509 263,258.667 263,255 263,255 269.5,249 269.5,249 278.201,244.65 292.009,231 299.5,231 303.655,231 305.37,236.435 308.5,238 317.359,242.429 325.654,246.077 333.5,250 338.205,252.352 339.562,261 346,261  Z"/>

<path  fill-rule="evenodd" fill="#FF8700" stroke-width="0" stroke="#FF8700" d = " M197 258 C197,259.434 190,261.123 190,261.5 190,265.39 193.704,267.602 196.5,269 199.597,270.548 194.103,273 205.5,273 207.651,273 212.03,264.765 208.5,263 206.35,261.925 203.531,262.016 201.5,261 199.471,259.986 199.229,258 197,258  M145 264 C145,266.428 139.502,269.504 141,272.5 142.072,274.645 155.775,287.137 157.5,288 L164.5,289 L168.5,294 C171.443,295.471 175.517,295.509 178.5,297 185.563,300.531 191.471,305.486 198.5,309 200.556,310.028 204.916,308.792 206.5,308 L219.5,307 L227.5,304 L231.5,299 C233.885,297.807 237,295.499 237,292 237,290.398 240.058,289.616 239,287.5 234.467,278.434 235.385,269.27 230,258.5 229.78,258.06 218,250.529 218,249 215.73,249 196.215,235.358 191.5,233 191.5,233 183.5,237 183.5,237 181.461,238.019 178.615,237.942 176.5,239 172.098,241.201 154.861,254.779 153,258.5 153,258.5 146,263 146,263 146,263 145,264 145,264  Z"/>

<path  fill="#E1F00D" stroke-width="0" stroke="#E1F00D" d = " M253 289 L244.5,285 C243.853,285 242.109,292 237,292 237,290.398 240.058,289.616 239,287.5 234.467,278.434 235.385,269.27 230,258.5 229.78,258.06 218,250.529 218,249 225.393,249 232.336,250 240,250 240,250 244,254.5 244,254.5 244.691,255.882 247,263.445 247,257 247,257 249,253 249,253 249,253 256.5,251 256.5,251 257.808,251.654 261.814,255 263,255 263,258.667 258.496,266.509 257,269.5 256.087,271.325 258,273.316 258,274.5 258,274.5 255,276.5 255,276.5 255,276.5 258,278.5 258,278.5 258,278.5 254,280.5 254,280.5 254,282.72 260.027,289 253,289  Z"/>

<path  fill="#FF4FCE" stroke-width="0" stroke="#FF4FCE" d = " M197 258 C197,259.434 190,261.123 190,261.5 190,265.39 193.704,267.602 196.5,269 199.597,270.548 194.103,273 205.5,273 207.651,273 212.03,264.765 208.5,263 206.35,261.925 203.531,262.016 201.5,261 199.471,259.986 199.229,258 197,258  Z"/>

<path  fill-rule="evenodd" fill="#FF4FCE" stroke-width="0" stroke="#FF4FCE" d = " M289 271 C289,274.746 291.091,271 289,271  M286 258 C286,262.69 276.569,265.638 280,272.5 281.417,275.333 285.699,271.599 288.5,273 L290.5,275 C293.384,275 294.562,268.376 296,265.5 L299,260.5 L294.5,260 C292.1,258.8 290.429,258 286,258  Z"/>

<path  fill="#FF8700" stroke-width="0" stroke="#FF8700" d = " M289 271 C289,274.746 291.091,271 289,271  Z"/>

<path  fill="#30DA00" stroke-width="0" stroke="#30DA00" d = " M229 310 L221,314.5 C216.808,322.883 239,324.975 239,315.5 239,312.39 235.741,312.982 235,311.5 234.093,309.685 231.729,310 229,310  Z"/>

<path  fill="#30DA00" stroke-width="0" stroke="#30DA00" d = " M264 310 C264,310.983 256.291,313.919 255,316.5 251.262,323.976 267.762,324.976 270,320.5 L273,317.5 L270.5,313 L269,313.5 C267.635,310.77 267.182,310 264,310  Z"/>

<path  fill="#FA8072" stroke-width="0" stroke="#FA8072" d = " M184 320 C184,322.759 181.387,332 187.5,332 191.597,332 196.019,320 190.5,320 L186.5,322 L184,320  Z"/>

<path  fill="#FA8072" stroke-width="0" stroke="#FA8072" d = " M308 320 C308,321.512 299.85,321.2 302,325.5 303.244,327.987 302.379,330.879 304.5,333 306.394,334.894 310.502,343 312.5,343 318.792,343 319.202,320 308,320  Z"/>

<path  fill="#FA8072" stroke-width="0" stroke="#FA8072" d = " M286 366 C286,366.974 281.781,368.937 281,370.5 280.47,371.561 281.306,394.112 282,395.5 284.15,399.799 292.193,397.153 294.5,396 297.055,394.723 299.274,399.951 301,396.5 302.181,394.138 301.572,387 305.5,387 309.718,387 312.754,396.991 317,388.5 319.663,383.173 314.869,373.185 310.5,371 307.766,369.633 302.056,376.611 302,376.5 L301,372.5 C300.792,372.085 287.128,366 286,366  Z"/>

<path  fill="#FA8072" stroke-width="0" stroke="#FA8072" d = " M208 372 C208,375.433 198.586,372.457 197.5,373 L192.5,377 C188.354,379.073 183.598,374.951 179.5,377 175.705,378.897 172.325,389.151 174,392.5 176.251,397.002 183.454,394 185.5,394 L189.5,390 C199.179,394.84 190.14,398 204.5,398 208.446,398 208.234,403.633 213.5,401 219.965,397.768 212.56,392.38 214,389.5 217.33,382.839 218.21,372 208,372  Z"/>

</g>
</svg>
