<svg xmlns="http://www.w3.org/2000/svg" xmlns:xlink="http://www.w3.org/1999/xlink" height="512" width="512">
<g>
<rect width="512" height="512" fill="#000000"  stroke-width="0" /> 
<path  fill="#FFE300" stroke-width="0" stroke="#FFE300" d = " M282 153 C294.878,153 296.372,160.936 304.5,165 307.452,166.476 304.966,174 310,174 310,167.422 301.577,156.038 295.5,153 293.527,152.013 282,150.152 282,153  Z"/>

<path  fill="#FFE300" stroke-width="0" stroke="#FFE300" d = " M282 153 L280,154 C280,154 282,153 282,153  Z"/>

<path  fill="#FF8700" stroke-width="0" stroke="#FF8700" d = " M247 190 C247,197.423 245.901,206.302 249,212.5 L248,231.5 C248,242.369 249.103,254.706 254,264.5 L262,271.5 C263.368,274.236 264.281,276.39 267.5,278 L275,276 C275,276 278.5,277 278.5,277 279.687,276.406 292.211,265.079 293,263.5 293,263.5 294,257.5 294,257.5 294,257.5 298,253.5 298,253.5 298.913,251.675 297,249.684 297,248.5 297,248.5 300,244.5 300,244.5 300,244.5 301,235.5 301,235.5 311.183,215.134 310,197.287 310,174 304.966,174 307.452,166.476 304.5,165 296.372,160.936 294.878,153 282,153 282,153 280,154 280,154 280,154 279,154 279,154 279,156.314 274.738,157 273,157 273,157 272,157 272,157 272,157 271,158 271,158 271,159.577 269.238,160 268,160 268,160 264,162 264,162 264,164.206 262,166.575 262,169 262,176.208 253,177.568 253,183 253,184.925 249.925,188 248,188 248,188 247,190 247,190  Z"/>

<path  fill="#FFE300" stroke-width="0" stroke="#FFE300" d = " M279 154 C277.001,154 273,154.067 273,157 274.738,157 279,156.314 279,154  Z"/>

<path  fill="#FF8700" stroke-width="0" stroke="#FF8700" d = " M237 180 L241,188.5 C242.706,191.912 241.473,204.554 240,207.5 238.919,209.662 240,216.302 240,217.5 L238,219.5 L239,221.5 L237,226.5 L238,231.5 C235.687,236.126 236.313,241.874 234,246.5 232.668,249.165 233.819,258.862 233,260.5 L229,263.5 C225.952,269.595 224.288,275 216,275 203.986,275 199.738,261.976 195,252.5 189.517,241.534 187.418,231.337 182,220.5 179.765,216.031 181.1,205.699 179,201.5 177.772,199.044 176.538,189.424 178,186.5 179.608,183.285 182,174.401 182,171 182,171 183,169 183,169 184.821,169 191,162.123 191,160 193.871,160 197.924,156.288 200.5,155 203.447,153.527 220.087,159 224,159 224,159 225,163 225,163 225,163 225,169.5 225,169.5 225,169.5 237,180 237,180  Z"/>

<path  fill="#FFE300" stroke-width="0" stroke="#FFE300" d = " M272 157 L271,158 C271,158 272,157 272,157  Z"/>

<path  fill="#FFE300" stroke-width="0" stroke="#FFE300" d = " M271 158 C269.762,158 268,158.423 268,160 269.238,160 271,159.577 271,158  Z"/>

<path  fill="#FFE300" stroke-width="0" stroke="#FFE300" d = " M225 163 L227,163 C227,161.571 225.712,159 224,159 224,159 225,163 225,163  Z"/>

<path  fill="#FFE300" stroke-width="0" stroke="#FFE300" d = " M191 160 C188.026,160 183,165.608 183,169 184.821,169 191,162.123 191,160  Z"/>

<path  fill="#FFE300" stroke-width="0" stroke="#FFE300" d = " M260 167 L262,169 C262,166.575 264,164.206 264,162 262.467,162 260,165.753 260,167  Z"/>

<path  fill="#0F6DE6" stroke-width="0" stroke="#0F6DE6" d = " M237 180 L239,180 C239,180 240,173.5 240,173.5 237.434,168.369 233.345,163 227,163 227,163 225,163 225,163 225,163 225,169.5 225,169.5 225,169.5 237,180 237,180  Z"/>

<path  fill="#0F6DE6" stroke-width="0" stroke="#0F6DE6" d = " M250 183 L253,183 C253,177.568 262,176.208 262,169 262,169 260,167 260,167 251.725,167 250,176.355 250,183  Z"/>

<path  fill="#FFE300" stroke-width="0" stroke="#FFE300" d = " M183 169 L182,171 C182,171 183,169 183,169  Z"/>

<path  fill="#FFE300" stroke-width="0" stroke="#FFE300" d = " M216 275 C216,281.145 235.667,278.166 238,273.5 241.137,267.226 240,259.948 240,253.5 240,252.663 241.899,248.2 243.5,249 248.279,251.39 245.882,266.265 247,268.5 L250,273.5 C253.338,280.177 275,285.493 275,276 275,276 267.5,278 267.5,278 264.281,276.39 263.368,274.236 262,271.5 262,271.5 254,264.5 254,264.5 249.103,254.706 248,242.369 248,231.5 248,231.5 249,212.5 249,212.5 245.901,206.302 247,197.423 247,190 241.943,190 243.165,180 239,180 239,180 237,180 237,180 237,180 241,188.5 241,188.5 242.706,191.912 241.473,204.554 240,207.5 238.919,209.662 240,216.302 240,217.5 240,217.5 238,219.5 238,219.5 238,219.5 239,221.5 239,221.5 239,221.5 237,226.5 237,226.5 237,226.5 238,231.5 238,231.5 235.687,236.126 236.313,241.874 234,246.5 232.668,249.165 233.819,258.862 233,260.5 233,260.5 229,263.5 229,263.5 225.952,269.595 224.288,275 216,275  Z"/>

<path  fill="#FFE300" stroke-width="0" stroke="#FFE300" d = " M253 183 C253,184.925 249.925,188 248,188 248,188 250,183 250,183 250,183 253,183 253,183  Z"/>

<path  fill="#FFE300" stroke-width="0" stroke="#FFE300" d = " M248 188 L247,190 C247,190 248,188 248,188  Z"/>

<path  fill="#30DA00" stroke-width="0" stroke="#30DA00" d = " M332 277 C332,278.588 318.535,283.571 322,290.5 L323.5,290 L324.5,292 C330.215,294.858 340.831,289.334 343.5,288 346.601,286.45 345.802,277 337,277 334.991,277 334.009,277 332,277  Z"/>

<path  fill="#FA8072" stroke-width="0" stroke="#FA8072" d = " M188 282 C188,283.021 189.994,288 190.5,288 191.434,288 190.45,282 188,282  Z"/>

<path  fill="#30DA00" stroke-width="0" stroke="#30DA00" d = " M164 284 C164,285.149 158.553,285.473 157.5,286 155.516,286.992 151.603,294.705 153,297.5 154.23,299.961 176.632,300 179.5,300 L180,294.5 C181.449,291.602 174.751,285 171,285 168.393,285 166.087,284 164,284  Z"/>

<path  fill="#FA8072" stroke-width="0" stroke="#FA8072" d = " M192 287 C192,290.746 194.091,287 192,287  Z"/>

<path  fill="#FA8072" stroke-width="0" stroke="#FA8072" d = " M286 369 C286,369.974 281.781,371.937 281,373.5 L281,390.5 C282.69,393.881 285.98,393.74 288.5,395 L289,400.5 C290.716,403.932 293.314,400 295.5,400 L300.5,402 C305.209,399.646 298.407,393.953 304.5,397 308.235,398.867 324.328,393.156 321,386.5 319.317,383.134 313.563,378.532 310.5,377 309.177,376.339 302.557,378.615 302,377.5 L302,373.5 C298.789,367.077 295.255,371 291.5,371 289.905,371 288.245,369 286,369  Z"/>

<path  fill="#FA8072" stroke-width="0" stroke="#FA8072" d = " M201 372 C201,373.228 193.443,374.028 191.5,375 189.528,375.986 184.224,383.638 183.5,384 180.373,385.563 175.142,382.215 173,386.5 L171,393.5 C169.758,395.984 160.697,395.893 164,402.5 165.864,406.227 168.241,401.87 170.5,403 179.408,407.454 175.669,390.085 185.5,395 L187.5,397 L188.5,395 C190.164,394.168 194.517,397 195.5,397 197.013,397 199.594,403.453 202.5,402 202.789,401.856 200.741,397 203.5,397 L205.5,401 L208.5,398 C210.41,397.045 216.935,399.369 215,395.5 L209,392.5 C206.556,387.613 214.138,372 201,372  Z"/>

</g>
</svg>
