<svg xmlns="http://www.w3.org/2000/svg" xmlns:xlink="http://www.w3.org/1999/xlink" height="512" width="512">
<g>
<rect width="512" height="512" fill="#000000"  stroke-width="0" /> 
<path  fill="#03C12D" stroke-width="0" stroke="#03C12D" d = " M133 344 C133,363.627 91.1296,355.759 86,345.5 L81,333.5 C78.9508,329.402 74.9863,326.473 73,322.5 L72,315.5 C69.1436,309.787 63.4482,303.396 60,296.5 56.3632,289.226 60.9772,280.454 57,272.5 L58,268.5 L54,266.5 C53.4727,265.445 48,247.98 48,247.5 L54.5,248 C55.6867,247.407 57.9207,246.341 57,244.5 54.5804,239.661 48.8858,246.272 46,240.5 44.3543,237.209 47.9371,231.626 49,229.5 50.028,227.444 47,226 47,224.5 L50,222.5 C50,197.552 50.504,181.492 62,158.5 L63,152.5 L69,144.5 C72.3689,137.762 78.8091,120.845 86.5,117 L91.5,116 C95.6,113.95 97.8291,108.335 102.5,106 L107.5,107 L111.5,102 C116.403,99.5486 121.503,97.4987 126.5,95 139.45,88.525 156.216,89.142 168.5,83 L182.5,82 C189.711,78.3945 222.063,80.7816 228.5,84 229.608,84.554 234.37,87.2407 235,88.5 L238.5,93 L243.5,87 C247.62,84.94 252.688,82.406 257.5,80 260.112,78.694 263.784,79.3578 266.5,78 269.866,76.3171 298.623,78.5613 301.5,80 L313.5,80 C321.733,84.1166 335.202,82.3512 342.5,86 356.135,92.8174 370.805,98.1524 384.5,105 386.856,106.178 388.129,111 388.5,111 396.118,111 400.273,117.386 407.5,121 410.717,122.609 413.62,128.739 415,131.5 L419,134.5 C425.026,146.551 431.018,158.536 437,170.5 L435,172.5 C435,176.073 441.34,187.821 440,190.5 439.117,192.267 434,191.285 434,195.5 434,196.199 440.116,198.731 441,200.5 442.678,203.856 445.166,228.169 444,230.5 440.654,237.193 441.399,245.702 438,252.5 L438,261.5 L428,261.5 C426.813,263.873 431,262.329 431,263.5 L428,264.5 L430,265.5 C431.468,268.436 425.093,271.314 424,273.5 421.954,277.592 427.814,277.129 428,277.5 429.481,280.461 426,284.068 426,286.5 L429,287.5 L426,291.5 C424.622,294.257 427.656,298.188 426,301.5 424.633,304.235 422.728,309.386 419.5,311 L411,314.5 C402.819,330.863 403.672,344.414 384.5,354 374.858,358.821 366.939,348 360,348 360,348 368,330.5 368,330.5 370.926,324.648 371.109,317.281 374,311.5 374,311.5 383,296.5 383,296.5 383,296.5 384,274.5 384,274.5 384,274.5 381,271 381,271 382.326,271 391,264.481 391,262.5 391,260.552 391,258.47 391,256 395.815,256 392.983,248 394.5,248 394.5,248 395.5,253 395.5,253 395.5,253 397,243.5 397,243.5 397,238.4 399.64,227.779 397,222.5 397,222.5 395,217 395,217 395,217 393,215 393,215 393,207.933 390.057,203.614 387,197.5 387,197.5 386,189.5 386,189.5 384.749,186.999 380,183.282 380,180.5 380,179.802 380.795,176.091 380,174.5 379.04,172.581 377.818,173.659 376.5,173 373.178,171.339 376.822,166.661 373.5,165 373.5,165 370.5,166 370.5,166 370.5,166 368,163 368,163 368,161.423 366.238,161 365,161 365,158.831 362.101,156 360,156 360,156 359,155 359,155 359,150.456 347.842,144.671 344.5,143 344.5,143 339.5,137 339.5,137 336.539,135.52 314.151,126 311.5,126 306.893,126 301.395,123 298.5,123 292.961,123 283.137,124.818 277.5,122 264.79,115.645 266.673,125.153 263,132.5 263,132.5 257,141.5 257,141.5 254.907,145.687 247.024,145.238 243.5,147 243.5,147 238,146 238,146 231.974,146 223.942,144.385 221,138.5 218.385,133.27 216.356,121 209.5,121 208,121 203.988,124.256 202.5,125 197.599,127.45 186.99,125.255 181.5,128 174.373,131.563 165.556,131.472 158.5,135 152.081,138.21 147.707,141.896 141.5,145 132.15,149.675 124.738,163.381 117.5,167 111.606,169.947 109.581,184.338 107,189.5 107,189.5 104,191.5 104,191.5 104,191.5 105,193.5 105,193.5 105,195.059 99.3613,202.777 98,205.5 96.8289,207.842 98,215.111 98,216.5 98,216.5 94,222.5 94,222.5 93.5107,223.479 92,234.264 92,235.5 92,244.383 92.342,253.184 96,260.5 96.769,262.038 94.7741,266 98,266 99.3712,266 107.858,277 110,277 110,277 112,283 112,283 112,283 109,287.5 109,287.5 110.724,290.948 112.332,294.164 114,297.5 114,297.5 113,304.5 113,304.5 114.579,307.659 116.461,310.421 118,313.5 118,313.5 117,320.5 117,320.5 118.738,323.976 133,342.297 133,344  Z"/>

<path  fill="#FF6E00" stroke-width="0" stroke="#FF6E00" d = " M98 265 L98,266 C94.7741,266 96.769,262.038 96,260.5 92.342,253.184 92,244.383 92,235.5 92,234.264 93.5107,223.479 94,222.5 94,222.5 98,216.5 98,216.5 98,215.111 96.8289,207.842 98,205.5 99.3613,202.777 105,195.059 105,193.5 105,193.5 104,191.5 104,191.5 104,191.5 107,189.5 107,189.5 109.581,184.338 111.606,169.947 117.5,167 124.738,163.381 132.15,149.675 141.5,145 147.707,141.896 152.081,138.21 158.5,135 165.556,131.472 174.373,131.563 181.5,128 186.99,125.255 197.599,127.45 202.5,125 203.988,124.256 208,121 209.5,121 216.356,121 218.385,133.27 221,138.5 223.942,144.385 231.974,146 238,146 238,146 243.5,147 243.5,147 247.024,145.238 254.907,145.687 257,141.5 257,141.5 263,132.5 263,132.5 266.673,125.153 264.79,115.645 277.5,122 283.137,124.818 292.961,123 298.5,123 301.395,123 306.893,126 311.5,126 314.151,126 336.539,135.52 339.5,137 339.5,137 344.5,143 344.5,143 347.842,144.671 359,150.456 359,155 359,155 360,156 360,156 362.101,156 365,158.831 365,161 365,161 368,163 368,163 368,163 370.5,166 370.5,166 370.5,166 373.5,165 373.5,165 376.822,166.661 373.178,171.339 376.5,173 377.818,173.659 379.04,172.581 380,174.5 380.795,176.091 380,179.802 380,180.5 380,183.282 384.749,186.999 386,189.5 386,189.5 387,197.5 387,197.5 390.057,203.614 393,207.933 393,215 393,220.016 393.005,217 395,217 395,217 397,222.5 397,222.5 399.64,227.779 397,238.4 397,243.5 397,243.5 395.5,253 395.5,253 395.5,253 394.5,248 394.5,248 392.983,248 395.815,256 391,256 391,253.971 392.191,254.119 393,252.5 393,252.5 393,237.5 393,237.5 393,237.5 394,233.5 394,233.5 392.537,230.574 383,202.037 383,200 383,200 383,199 383,199 383,194.774 377,193.751 377,187 377,184.271 376.577,186 375,186 375,186 370.5,182 370.5,182 368.618,180.118 364.288,172 361,172 361,169.587 349.847,162 348,162 348,158.17 344.129,159.757 343,157.5 343,157.5 343,154.5 343,154.5 341.844,152.187 333,143.11 333,148 333,148 327,145 327,145 327,145 327,144 327,144 332.435,144 322.573,136.964 320.5,138 316.904,139.798 322,139.944 322,142 322,142 313,138 313,138 313,136.362 309.424,136 308,136 308,136 304,135 304,135 304,135 303,134 303,134 303,134 295,133 295,133 295,131.465 291,131.465 291,133 291,133 282,133 282,133 282,133 280,135 280,135 278.053,135 277.364,138 275,138 275,138 274,140 274,140 274,140 273,141 273,141 273,141 270,142 270,142 270,142 269,143 269,143 267.253,143 267,143.253 267,145 267,147.041 266.041,148 264,148 264,145.483 261,148.259 261,150 261,150 260,151 260,151 260,151 258,153 258,153 258,153 257,154 257,154 257,154 255,155 255,155 255,155 249,157 249,157 249,155.814 248,155.814 248,157 243.628,157 237.528,157 232,157 232,157 228,156 228,156 228,156 227,155 227,155 224.047,155 204.539,139.52 199.5,137 194.314,134.407 176.214,137.643 171.5,140 168.951,141.274 167.021,144 163,144 153.961,144 145.215,156.07 142,162.5 142,162.5 139,163.5 139,163.5 139,163.5 140,165.5 140,165.5 140,165.5 134,167.5 134,167.5 134,167.5 137,168.5 137,168.5 137,169.193 136,169.334 136,171 132.838,171 134,170.891 134,173 131.75,173 130.624,175 129,175 127.253,175 127,175.253 127,177 123.042,177 124.697,181.902 122.5,183 122.5,183 118.5,183 118.5,183 116.776,183.862 109.677,196.146 108,199.5 108,199.5 108,203.5 108,203.5 104.7,210.099 101.906,215.688 99,221.5 97.4822,224.536 98.7005,236.099 98,237.5 97.0207,239.459 96,238.731 96,242 96,242 95,242 95,242 95,238.777 95,249.223 95,246 95,246 96,246 96,246 96,252.757 98,255.67 98,262 98,262 98,265 98,265  Z"/>

<path  fill="#0E47E2" stroke-width="0" stroke="#0E47E2" d = " M215 194 L218,194 C218,194 225,193 225,193 225,193 226,192 226,192 228.69,192 232.675,191 236,191 236,191 238,190 238,190 241.041,190 239.131,185.184 241.5,184 241.5,184 245.5,188 245.5,188 246.419,188.459 248,187.235 248,189 250.361,189 261,188.265 261,191 261,191 262,191 262,191 262,191 271,192 271,192 271,192 273,192 273,192 273,192 274,191 274,191 274,191 276,191 276,191 276,191 277,190 277,190 277,190 279,189 279,189 279,184.725 292,182.701 292,179 292,179 294,178 294,178 294,178 294,176 294,176 294,176 291,175.5 291,175.5 291,175.5 298,172 298,172 298,172 311.5,172 311.5,172 315.323,170.089 323.738,168 328,168 328,168 330,167 330,167 334.239,167 338,160.684 338,157 338,157 336,152 336,152 335.034,152 333,149.114 333,148 333,148 327,145 327,145 327,145 326,144 326,144 324.253,144 324,143.747 324,142 324,142 322,142 322,142 322,142 313,138 313,138 311.959,138 308,137.014 308,136 308,136 304,135 304,135 304,135 303,134 303,134 303,134 295,133 295,133 295,133 291,133 291,133 291,133 282,133 282,133 282,135.109 283.162,135 280,135 278.053,135 277.364,138 275,138 275,138 274,140 274,140 274,140 273,141 273,141 273,141 270,142 270,142 270,142 269,143 269,143 269,143 267,145 267,145 267,147.041 266.041,148 264,148 264,149.577 262.238,150 261,150 261,150 260,151 260,151 260,151 258,153 258,153 258,153 257,154 257,154 257,154 255,155 255,155 255,155 249,157 249,157 249,157 248,157 248,157 248,158.951 245.546,157.477 244.5,158 244.5,158 244,160.5 244,160.5 242.714,163.072 238.531,158.515 237.5,158 236.262,157.381 232,159.144 232,157 232,157 228,156 228,156 228,156 227,155 227,155 224.047,155 204.539,139.52 199.5,137 194.314,134.407 176.214,137.643 171.5,140 168.951,141.274 167.021,144 163,144 163,146.007 149,153.155 149,158 151.026,158 148.896,160 148,160 148,160 148,161 148,161 148.017,161 152.128,168.814 154.5,170 164.142,174.821 179.622,176 191,176 193.547,176 193.775,180 192,180 192,180 192,182 192,182 193.451,182 200,185.778 200,187 200,187 202,189 202,189 203.048,189 205,188.527 205,190 205,190 206,191 206,191 206,191 207,191 207,191 207,191 208,192 208,192 208,192 210,192 210,192 210,192 214,193 214,193 214,193 215,194 215,194  Z"/>

<path  fill="#022CFF" stroke-width="0" stroke="#022CFF" d = " M326 144 L327,144 C332.435,144 322.573,136.964 320.5,138 316.904,139.798 322,139.944 322,142 322,142 324,142 324,142 324,142 326,144 326,144  Z"/>

<path  fill="#FF6E00" stroke-width="0" stroke="#FF6E00" d = " M324 142 L326,144 C324.253,144 324,143.747 324,142  Z"/>

<path  fill="#022CFF" stroke-width="0" stroke="#022CFF" d = " M138 193 L140,193 C140,193 138,190.5 138,190.5 137.241,188.982 140.856,179.787 142,177.5 143.267,174.965 140,174.239 140,173.5 140,173.5 143,172.5 143,172.5 144.952,168.597 141.741,161 148,161 148,161 148,160 148,160 145.974,160 148.104,158 149,158 149,153.155 163,146.007 163,144 153.961,144 145.215,156.07 142,162.5 142,162.5 139,163.5 139,163.5 139,163.5 140,165.5 140,165.5 140,165.5 134,167.5 134,167.5 134,167.5 137,168.5 137,168.5 137,169.193 136,169.334 136,171 136,173.38 134.372,188.244 135,189.5 135.723,190.945 137,189.591 137,192 137,192 138,193 138,193  Z"/>

<path  fill="#022CFF" stroke-width="0" stroke="#022CFF" d = " M354 188 L352,189 C352,182.314 348.721,173.942 345,166.5 343.492,163.485 344.493,157 339,157 339,154.639 338.6,152 336,152 335.034,152 333,149.114 333,148 333,143.11 341.844,152.187 343,154.5 343,154.5 343,157.5 343,157.5 344.129,159.757 348,158.17 348,162 348,166.615 347.281,162.891 351.5,165 352.306,165.403 353.378,171 355,171 355,174.617 354,176.829 354,180 351.971,180 353.942,181 355,181 355,181 355,182 355,182 353.601,182 353.601,184 355,184 355,184 355,185 355,185 355,185 354,188 354,188  Z"/>

<path  fill="#00FF1D" stroke-width="0" stroke="#00FF1D" d = " M335 194 C338.238,194 340.136,197 344,197 344,195.745 352,193.058 352,189 352,182.314 348.721,173.942 345,166.5 343.492,163.485 344.493,157 339,157 339,157 338,157 338,157 338,160.684 334.239,167 330,167 330,167 328,168 328,168 323.738,168 315.323,170.089 311.5,172 311.5,172 298,172 298,172 298,172 291,175.5 291,175.5 291,175.5 294,176 294,176 294,176 298,176 298,176 298,176 301,176 301,176 301,174.249 308.426,175 310,175 312.097,175 315.293,176 318,176 321.607,176 325,175.618 325,180 325,180 325,183 325,183 325,183 326,187 326,187 328.409,187 329,188.957 329,191 329,191 330,192 330,192 330.754,192 335,191.739 335,194  Z"/>

<path  fill="#00FF1D" stroke-width="0" stroke="#00FF1D" d = " M149 158 C151.026,158 148.896,160 148,160 145.974,160 148.104,158 149,158  Z"/>

<path  fill="#00FF1D" stroke-width="0" stroke="#00FF1D" d = " M154 199 L149,201 C146.426,201 142.777,197 141,197 141,197 140,193 140,193 140,193 138,190.5 138,190.5 137.241,188.982 140.856,179.787 142,177.5 143.267,174.965 140,174.239 140,173.5 140,173.5 143,172.5 143,172.5 144.952,168.597 141.741,161 148,161 148.017,161 152.128,168.814 154.5,170 164.142,174.821 179.622,176 191,176 191,177.532 190,176.95 190,179 190,179 174.5,179 174.5,179 174.5,179 167,183 167,183 165.814,183 165.814,184 167,184 167,184 164,188 164,188 164,188 163,190 163,190 163,190 160,194 160,194 160,194 159,195 159,195 159,197.319 156.043,199 154,199  Z"/>

<path  fill="#814FFF" stroke-width="0" stroke="#814FFF" d = " M365 261 C369.08,261 365.508,265.516 366,266.5 L373.5,274 C375.633,275.067 378.839,271 381,271 382.326,271 391,264.481 391,262.5 391,260.552 391,258.47 391,256 391,253.971 392.191,254.119 393,252.5 393,252.5 393,237.5 393,237.5 393,237.5 394,233.5 394,233.5 392.537,230.574 383,202.037 383,200 381.814,200 381.814,199 383,199 383,194.774 377,193.751 377,187 377,187 375,186 375,186 375,186 370.5,182 370.5,182 368.618,180.118 364.288,172 361,172 361,172 355,171 355,171 355,174.617 354,176.829 354,180 354,180 355,181 355,181 355,181 355,182 355,182 355,182 355,184 355,184 355,184 355,185 355,185 355,185 360,186 360,186 367.648,186 363.527,198.554 365,201.5 365.823,203.146 372,200.503 372,203.5 372,203.5 369,204.5 369,204.5 367.699,207.102 372.997,213 368,213 368,214.465 368.109,217 366,217 366,217 364,220 364,220 364,220 365,223 365,223 365,223 365,224 365,224 365,224 368,228 368,228 368,228 372,236 372,236 373.399,236 373.399,238 372,238 372,247.115 365,256.494 365,261  Z"/>

<path  fill="#814FFF" stroke-width="0" stroke="#814FFF" d = " M110 277 L114,278 C116.33,278 119.76,273 120.5,273 120.5,273 123.5,275 123.5,275 125.494,275 128,267.963 128,266 127.05,266 125,259.249 125,259 124.187,259 122.272,256 124,256 124,256 124,255 124,255 124,255 123,254 123,254 123,254 122,248 122,248 120.527,248 121,246.048 121,245 121,242.245 123,239.447 123,236 123,236 126,232.5 126,232.5 126.659,231.182 121.68,225 126,225 126,222.243 122,220.919 122,218 120.652,218 118.784,215 121,215 121,215 122,210.5 122,210.5 122,210.5 116,206.5 116,206.5 116,206.5 119,203.5 119,203.5 119,203.5 120,194.5 120,194.5 120.286,193.928 124.851,192.649 126,191.5 126,191.5 132,185 132,185 134.627,185 134,175.264 134,173 131.75,173 130.624,175 129,175 129,175 127,177 127,177 123.042,177 124.697,181.902 122.5,183 122.5,183 118.5,183 118.5,183 116.776,183.862 109.677,196.146 108,199.5 108,199.5 108,203.5 108,203.5 104.7,210.099 101.906,215.688 99,221.5 97.4822,224.536 98.7005,236.099 98,237.5 97.0207,239.459 96,238.731 96,242 96,242 96,243 96,243 96,243 96,245 96,245 96,245 96,246 96,246 96,252.757 98,255.67 98,262 99.4861,262 99.4861,265 98,265 98,265 98,266 98,266 99.3712,266 107.858,277 110,277  Z"/>

<path  fill-rule="evenodd" fill="#006400" stroke-width="0" stroke="#006400" d = " M267 259 L264,261.5 C263.195,263.11 264.129,269 266.5,269 270.397,269 270.121,259 267,259  M221 259 C221,262.889 212.374,258.247 217,267.5 L217.5,269 C223.858,272.179 222.494,259 221,259  M215 197 C215,200.746 217.091,197 215,197  M242 289 C234.426,289 224.872,290 215,290 209.979,290 187,279.724 187,274 187,272.253 186.747,272 185,272 185,272 175.5,261 175.5,261 175.5,261 168.5,259 168.5,259 168.5,259 164.5,254 164.5,254 164.5,254 161.5,254 161.5,254 156.521,251.51 149.366,244.232 147,239.5 145.398,236.296 145.615,231.731 144,228.5 144,228.5 141,225.5 141,225.5 141,224.551 142,222.549 142,221 142,221 141,219 141,219 141,219 141,218 141,218 141,218 141,217 141,217 141,214.924 140.882,211.736 142,209.5 142,209.5 148,204 148,204 150.8,204 154,202.125 154,199 156.043,199 159,197.319 159,195 159,195 160,194 160,194 162.715,194 163,192.343 163,190 163,190 164,188 164,188 164,188 167,184 167,184 167,184 167,183 167,183 167,183 174.5,179 174.5,179 174.5,179 190,179 190,179 190,179 192,180 192,180 190.601,180 190.601,182 192,182 193.451,182 200,185.778 200,187 200,187 202,189 202,189 203.048,189 205,188.527 205,190 205,190 206,191 206,191 206,191 207,191 207,191 207,191 208,192 208,192 208,192 210,192 210,192 210,193.821 214,195.118 214,193 214,193 215,194 215,194 215,194 216,196 216,196 216.276,196 220.357,199.429 221.5,200 221.5,200 224.5,198 224.5,198 230.229,195.136 236,200.627 236,191 236,191 238,190 238,190 238,193.874 239.961,191.422 241,193.5 241.81,195.119 240,196.501 240,197.5 240,199.09 244.388,199.724 245,198.5 246.362,195.776 243.149,190 248,190 248,190 250,191 250,191 250,198.667 256.075,193.787 260.5,196 260.5,196 263.5,198 263.5,198 263.5,198 271,195.5 271,195.5 271,195.5 270,193 270,193 270,193 271,192 271,192 271,192 273,192 273,192 273,192 274,191 274,191 274,191 276,191 276,191 276,191 277,190 277,190 277,190 279,189 279,189 279,184.725 292,182.701 292,179 292,179 294,178 294,178 294,178 298,176 298,176 298,176 301,176 301,176 302.574,176 310,176.751 310,175 312.097,175 315.293,176 318,176 318,176.994 323.757,180 325,180 325,180 325,183 325,183 322.882,183 324.179,187 326,187 328.409,187 329,188.957 329,191 326.971,191 328.942,192 330,192 330.754,192 335,191.739 335,194 335,194 335,197 335,197 335,197 336,199 336,199 336,199 337,200 337,200 337,200 338,200 338,200 338,200 339,201 339,201 339,201 341,203 341,203 341,203 342,204 342,204 344.297,204 346,205.444 346,208 346,208 347,209 347,209 347,209.907 345.99,220.481 346,220.5 346,220.5 348,222.5 348,222.5 348,222.5 345,225.5 345,225.5 345,225.5 345,229.5 345,229.5 340.004,239.492 332.908,248.796 322.5,254 319.829,255.335 314.863,262 311,262 311,262 310,263 310,263 303.76,263 300,273.511 300,277 300,277 296.5,280 296.5,280 289.306,283.597 278.267,288 271,288 267.305,288 263.571,288.465 260.5,290 258.087,291.206 249.153,289 246,289 246,285.405 242,283.763 242,289  Z"/>

<path  fill="#022CFF" stroke-width="0" stroke="#022CFF" d = " M238 190 C238,193.874 239.961,191.422 241,193.5 241.81,195.119 240,196.501 240,197.5 240,199.09 244.388,199.724 245,198.5 246.362,195.776 243.149,190 248,190 248,190 248,189 248,189 248,187.235 246.419,188.459 245.5,188 245.5,188 241.5,184 241.5,184 239.131,185.184 241.041,190 238,190  Z"/>

<path  fill-rule="evenodd" fill="#FF3427" stroke-width="0" stroke="#FF3427" d = " M185 272 L185,274 C185,284.38 182.839,279.331 179.5,281 177.97,281.765 179.781,284.859 177.5,286 169.477,290.012 159.243,279.871 153.5,277 149.273,274.887 148.453,266 144,266 144,266 142,263 142,263 142,263 141,261 141,261 141,257.181 135,250.965 135,245 135,245 134,243 134,243 134,243 131,237 131,237 131,237 131,236 131,236 131,232.985 129,229.996 129,228 129,225.959 128.041,225 126,225 126,222.243 122,220.919 122,218 122,218 121,215 121,215 121,215 122,210.5 122,210.5 122,210.5 116,206.5 116,206.5 116,206.5 119,203.5 119,203.5 119,203.5 120,194.5 120,194.5 120.286,193.928 124.851,192.649 126,191.5 126,191.5 132,185 132,185 132,188.414 133,191.353 133,195 133,195 133,197 133,197 133,197 134,198 134,198 134,198 134,199 134,199 134,199 136,201 136,201 136,201 148,202 148,202 148,202 148,204 148,204 148,204 142,209.5 142,209.5 140.882,211.736 141,214.924 141,217 139.814,217 139.814,218 141,218 141,218 141,219 141,219 141,219 142,221 142,221 142,222.549 141,224.551 141,225.5 141,225.5 144,228.5 144,228.5 145.615,231.731 145.398,236.296 147,239.5 149.366,244.232 156.521,251.51 161.5,254 161.5,254 164.5,254 164.5,254 164.5,254 168.5,259 168.5,259 168.5,259 175.5,261 175.5,261 175.5,261 185,272 185,272  M156 264 L166,265 C168.27,265 169.627,267.064 171.5,268 191.1,277.8 165.665,288.829 159,275.5 157.734,272.968 154,270.976 154,268 154,265.774 152.392,264 156,264  Z"/>

<path  fill-rule="evenodd" fill="#FF3427" stroke-width="0" stroke="#FF3427" d = " M331 257 C331,260.123 302.579,268.658 307,277.5 310.137,283.774 324.068,275.716 327.5,274 329.61,272.945 329.312,269.594 330.5,269 332.118,268.191 333.855,268.79 335,266.5 336.949,262.603 337.48,257 331,257  M338 271 C334.805,271 334.038,275.731 331.5,277 322.822,281.339 310.441,295.382 303,280.5 302.5,279.5 300,280.894 300,277 300,273.511 303.76,263 310,263 310,263 311,262 311,262 314.863,262 319.829,255.335 322.5,254 332.908,248.796 340.004,239.492 345,229.5 345,229.5 345,225.5 345,225.5 345,225.5 348,222.5 348,222.5 348,222.5 346,220.5 346,220.5 345.99,220.481 347,209.907 347,209 347,209 346,208 346,208 346,205.444 344.297,204 342,204 342,204 341,203 341,203 341,203 339,201 339,201 339,201 338,200 338,200 338,200 337,200 337,200 337,200 336,199 336,199 336,199 335,197 335,197 335,197 344,198 344,198 344,198 352,197 352,197 354.372,197 356.492,194 354,194 354,192.543 357,192.54 357,190 357,185.231 360,188.082 360,186 367.648,186 363.527,198.554 365,201.5 365.823,203.146 372,200.503 372,203.5 372,203.5 369,204.5 369,204.5 367.699,207.102 372.997,213 368,213 365.891,213 366,215.535 366,217 366,217 364,220 364,220 362.527,220 363,221.952 363,223 363,225.561 360,228.324 360,232 360,232 359,233 359,233 356.642,233 359.091,239 357.5,239 357.5,239 356.5,237 356.5,237 353.907,237 355.429,242.643 355,243.5 352.927,247.645 349,248.957 349,256 349,256 348,258 348,258 348,258 347,259 347,259 347,260.916 344,259.07 344,262 344,262 344,264 344,264 344,264 343,264 343,264 343,264 342,265 342,265 342,265 341,266 341,266 339.527,266 340,267.952 340,269 340,269 340,270 340,270 340,270 338,271 338,271  Z"/>

<path  fill="#EE7533" stroke-width="0" stroke="#EE7533" d = " M352 197 L344,198 C344,198 344,197 344,197 344,195.745 352,193.058 352,189 352,189 354,188 354,188 354,188 357,190 357,190 357,192.54 354,192.543 354,194 354,194 352,197 352,197  Z"/>

<path  fill="#FFFC00" stroke-width="0" stroke="#FFFC00" d = " M218 194 L216,196 C216.276,196 220.357,199.429 221.5,200 221.5,200 224.5,198 224.5,198 230.229,195.136 236,200.627 236,191 232.675,191 228.69,192 226,192 226,192 225,193 225,193 225,193 218,194 218,194  Z"/>

<path  fill="#FFFC00" stroke-width="0" stroke="#FFFC00" d = " M262 191 C262,192.931 268.225,193 270,193 270,193 271,195.5 271,195.5 271,195.5 263.5,198 263.5,198 263.5,198 260.5,196 260.5,196 256.075,193.787 250,198.667 250,191 250,191 261,191 261,191 261,191 262,191 262,191  Z"/>

<path  fill="#FF3427" stroke-width="0" stroke="#FF3427" d = " M137 192 L138,193 C138,193 137,192 137,192  Z"/>

<path  fill="#EE7533" stroke-width="0" stroke="#EE7533" d = " M149 201 L148,202 C148,202 136,201 136,201 136,201 134,199 134,199 134,199 134,198 134,198 134,198 133,197 133,197 133,197 133,195 133,195 133,195 136.5,193 136.5,193 136.5,193 141,197 141,197 142.777,197 146.426,201 149,201  Z"/>

<path  fill="#03C12D" stroke-width="0" stroke="#03C12D" d = " M439 195 C439,196.93 440.93,195 439,195  Z"/>

<path  fill="#FF91BA" stroke-width="0" stroke="#FF91BA" d = " M344 262 L345,264 C345,264 343,266.5 343,266.5 343,270.029 352.178,271.161 354.5,270 358.748,267.876 360.367,261 365,261 365,256.494 372,247.115 372,238 372,238 372,236 372,236 372,236 368,228 368,228 368,228 365,224 365,224 365,224 365,223 365,223 365,223 363,223 363,223 363,225.561 360,228.324 360,232 360,232 359,233 359,233 359,234.8 360,236.847 360,238.5 360,239.011 350.992,256 349,256 349,256 348,258 348,258 348,258 347,259 347,259 347,260.916 344,259.07 344,262  Z"/>

<path  fill="#FF91BA" stroke-width="0" stroke="#FF91BA" d = " M128 266 C128,263.932 131,265.446 131,266.5 131,267.716 140.133,274.684 143.5,273 L144,266 C144,266 142,263 142,263 141.104,263 138.974,261 141,261 141,257.181 135,250.965 135,245 135,245 134,243 134,243 134,243 131,237 131,237 128.132,237 128.803,236 131,236 131,232.985 129,229.996 129,228 125.557,228 128.924,236 123,236 123,239.447 121,242.245 121,245 122.473,245 122,246.952 122,248 122,248 123,254 123,254 123,254 124,255 124,255 124,255 124,256 124,256 125.473,256 125,257.952 125,259 125,259.249 127.05,266 128,266  Z"/>

<path  fill="#03C12D" stroke-width="0" stroke="#03C12D" d = " M96 245 L95,246 C95,249.223 95,238.777 95,242 95,242 96,243 96,243 96,243 96,245 96,245  Z"/>

<path  fill="#1AE7FF" stroke-width="0" stroke="#1AE7FF" d = " M331 257 C331,260.123 302.579,268.658 307,277.5 310.137,283.774 324.068,275.716 327.5,274 329.61,272.945 329.312,269.594 330.5,269 332.118,268.191 333.855,268.79 335,266.5 336.949,262.603 337.48,257 331,257  Z"/>

<path  fill="#EEBA00" stroke-width="0" stroke="#EEBA00" d = " M221 259 C221,262.889 212.374,258.247 217,267.5 L217.5,269 C223.858,272.179 222.494,259 221,259  Z"/>

<path  fill="#EEBA00" stroke-width="0" stroke="#EEBA00" d = " M267 259 L264,261.5 C263.195,263.11 264.129,269 266.5,269 270.397,269 270.121,259 267,259  Z"/>

<path  fill-rule="evenodd" fill="#E1F00D" stroke-width="0" stroke="#E1F00D" d = " M340 282 L339,283.5 C336.232,289.036 346.948,282 340,282  M360 348 L357.5,350 C356.052,350 350,349.275 350,351 345.459,351 344.716,348 341,348 341,348 339.5,346 339.5,346 339.5,346 332.5,346 332.5,346 332.5,346 329,342.5 329,342.5 329,342.5 328.5,340 328.5,340 312.582,340 322.734,337.117 316.5,334 307.132,329.316 310,329.307 310,320 310,316.797 319.741,300.018 322,295.5 324.514,290.472 312,296.173 312,298 305.938,298 293.251,319 291,319 291,315.658 281.531,299 280,299 280,295.582 277.695,295 275,295 275,295 269,291.5 269,291.5 269,291.5 271,288 271,288 278.267,288 289.306,283.597 296.5,280 296.5,280 300,277 300,277 300,280.894 302.5,279.5 303,280.5 310.441,295.382 322.822,281.339 331.5,277 334.038,275.731 334.805,271 338,271 338,271 340,270 340,270 340,270 340,269 340,269 341.473,269 341,267.048 341,266 341,266 342,265 342,265 342,265 343,264 343,264 343,264 344,264 344,264 344,264 345,264 345,264 345,264 343,266.5 343,266.5 343,270.029 352.178,271.161 354.5,270 358.748,267.876 360.367,261 365,261 369.08,261 365.508,265.516 366,266.5 366,266.5 373.5,274 373.5,274 375.633,275.067 378.839,271 381,271 381,271 384,274.5 384,274.5 384,274.5 383,296.5 383,296.5 383,296.5 374,311.5 374,311.5 371.109,317.281 370.926,324.648 368,330.5 368,330.5 360,348 360,348  Z"/>

<path  fill="#03C12D" stroke-width="0" stroke="#03C12D" d = " M98 262 C99.4861,262 99.4861,265 98,265 98,265 98,262 98,262  Z"/>

<path  fill="#1AE7FF" stroke-width="0" stroke="#1AE7FF" d = " M156 264 L166,265 C168.27,265 169.627,267.064 171.5,268 191.1,277.8 165.665,288.829 159,275.5 157.734,272.968 154,270.976 154,268 154,268 156,264 156,264  Z"/>

<path  fill-rule="evenodd" fill="#E1F00D" stroke-width="0" stroke="#E1F00D" d = " M146 286 C146,295.757 152.602,286 146,286  M137 351 L138,351 C138,348.936 141.353,350.574 142.5,350 145.553,348.474 149.489,348.505 152.5,347 152.5,347 157.5,343 157.5,343 157.5,343 161.5,343 161.5,343 169.593,338.954 180,333.539 180,323 180,317.771 169,307.94 169,302 169,301.047 164.86,297.32 167.5,296 170.509,294.496 172.105,299 175,299 175,296.82 178.414,298.329 179,299.5 180,301.5 195.203,319 196,319 196,319 197,319 197,319 197,311.34 205,307.539 205,304 205,304 206,300 206,300 206,300 207,299 207,299 207,296.597 211,295.053 211,298 214.605,298 212,294.431 212,293.5 212,293.5 215,290 215,290 209.979,290 187,279.724 187,274 187,274 185,274 185,274 185,284.38 182.839,279.331 179.5,281 177.97,281.765 179.781,284.859 177.5,286 169.477,290.012 159.243,279.871 153.5,277 149.273,274.887 148.453,266 144,266 144,266 143.5,273 143.5,273 140.133,274.684 131,267.716 131,266.5 131,265.446 128,263.932 128,266 128,267.963 125.494,275 123.5,275 123.5,275 120.5,273 120.5,273 119.76,273 116.33,278 114,278 114,279.622 114.461,283 112,283 112,283 109,287.5 109,287.5 110.724,290.948 112.332,294.164 114,297.5 114,297.5 113,304.5 113,304.5 114.579,307.659 116.461,310.421 118,313.5 118,313.5 117,320.5 117,320.5 118.738,323.976 133,342.297 133,344 133,344 137,351 137,351  Z"/>

<path  fill="#ADFF2F" stroke-width="0" stroke="#ADFF2F" d = " M340 282 L339,283.5 C336.232,289.036 346.948,282 340,282  Z"/>

<path  fill="#022CFF" stroke-width="0" stroke="#022CFF" d = " M242 343 L245,344 C245,325.797 246,306.515 246,289 246,285.405 242,283.763 242,289 242,289 242,343 242,343  Z"/>

<path  fill="#ADFF2F" stroke-width="0" stroke="#ADFF2F" d = " M146 286 C146,295.757 152.602,286 146,286  Z"/>

<path  fill="#E278A1" stroke-width="0" stroke="#E278A1" d = " M197 324 C197.83,324 199.466,330.431 200,331.5 202.416,336.332 207.232,344.366 212.5,347 213.982,347.741 222.178,348 223.5,348 L227.5,345 L234.5,347 C237.433,345.534 238.428,343 242,343 242,343 242,289 242,289 234.426,289 224.872,290 215,290 215,290 212,293.5 212,293.5 212,294.431 214.605,298 211,298 211,302.831 208.486,304 205,304 205,307.539 197,311.34 197,319 197,319 197,323 197,323 197,323 197,324 197,324  Z"/>

<path  fill="#E278A1" stroke-width="0" stroke="#E278A1" d = " M291 322 C284.725,322 288.753,325.993 287,329.5 285.903,331.694 276.433,344.534 275.5,345 273.402,346.049 252.878,348.189 250.5,347 248.627,346.064 247.27,344 245,344 245,325.797 246,306.515 246,289 249.153,289 258.087,291.206 260.5,290 263.571,288.465 267.305,288 271,288 271,288 269,291.5 269,291.5 269,291.5 275,295 275,295 275,295 274,299.5 274,299.5 276.867,305.235 280,303.759 280,299 281.531,299 291,315.658 291,319 291,319 291,322 291,322  Z"/>

<path  fill="#267EFF" stroke-width="0" stroke="#267EFF" d = " M300 318 C300,325.506 306.372,320 310,320 310,316.797 319.741,300.018 322,295.5 324.514,290.472 312,296.173 312,298 312,301.526 301,311.011 301,317 301,317 300,318 300,318  Z"/>

<path  fill="#15C0FF" stroke-width="0" stroke="#15C0FF" d = " M275 295 C277.695,295 280,295.582 280,299 280,303.759 276.867,305.235 274,299.5 274,299.5 275,295 275,295  Z"/>

<path  fill="#267EFF" stroke-width="0" stroke="#267EFF" d = " M180 323 C180.929,323 190,327.315 190,324 190,324 186,318.5 186,318.5 184.59,315.68 180.11,302 177,302 177,302 176,301 176,301 176,301 175,299 175,299 172.105,299 170.509,294.496 167.5,296 164.86,297.32 169,301.047 169,302 169,307.94 180,317.771 180,323  Z"/>

<path  fill="#15C0FF" stroke-width="0" stroke="#15C0FF" d = " M206 300 L205,304 C208.486,304 211,302.831 211,298 211,295.053 207,296.597 207,299 207,299 206,300 206,300  Z"/>

<path  fill="#FAAA40" stroke-width="0" stroke="#FAAA40" d = " M190 324 C191.846,324 195.154,324 197,324 197,324 197,323 197,323 195.421,323 196,320.145 196,319 195.203,319 180,301.5 179,299.5 178.414,298.329 175,296.82 175,299 175,299 176,301 176,301 176,301 177,302 177,302 180.11,302 184.59,315.68 186,318.5 186,318.5 190,324 190,324  Z"/>

<path  fill="#FAAA40" stroke-width="0" stroke="#FAAA40" d = " M291 319 L291,322 C291,323.992 293.51,324.995 295.5,324 295.5,324 300,318 300,318 300,318 301,317 301,317 301,311.011 312,301.526 312,298 305.938,298 293.251,319 291,319  Z"/>

<path  fill="#E278A1" stroke-width="0" stroke="#E278A1" d = " M207 299 L206,300 C206,300 207,299 207,299  Z"/>

<path  fill="#E1F00D" stroke-width="0" stroke="#E1F00D" d = " M176 301 L177,302 C177,302 176,301 176,301  Z"/>

<path  fill-rule="evenodd" fill="#FA8072" stroke-width="0" stroke="#FA8072" d = " M354 370 C354,375.567 356.112,370 354,370  M354 363 C354,364.93 355.93,363 354,363  M341 348 C344.716,348 345.459,351 350,351 355.11,351 361.103,356.801 365.5,359 365.5,359 367.5,362 367.5,362 368.635,362 368.882,361.191 370.5,362 370.5,362 372,363.5 372,363.5 373.825,367.15 373.41,387.68 372,390.5 370.535,393.43 365.309,392.596 362.5,394 362.5,394 361.5,397 361.5,397 360.835,397 359.552,386 357.5,386 357.5,386 356.5,388 356.5,388 356.5,388 354.5,380 354.5,380 354.5,380 353.5,385 353.5,385 351.545,385 352.077,379.577 351,378.5 347.254,374.754 344.033,373.267 339.5,371 337.367,369.933 339.752,365.126 335.5,363 335.5,363 329,365.5 329,365.5 329,365.5 329,371.5 329,371.5 327.964,373.571 318.361,381.07 316.5,382 315.457,382.522 307.03,379.765 305.5,379 305.5,379 296.5,380 296.5,380 295.648,379.574 289.459,369.418 289,368.5 289,368.5 289,362.5 289,362.5 288.879,362.258 282.96,361.42 281,357.5 277.845,351.19 288.712,350.076 289,349.5 289.332,348.837 297.927,339.286 298.5,339 300.549,337.976 303.575,340 305.5,340 308.018,340 313.441,337.47 316.5,339 321.677,341.588 317.497,345.498 322.5,348 326.619,350.06 329.789,348.145 333.5,350 337.798,352.149 335.355,358.927 337.5,360 339.473,360.986 338.672,358.155 339,357.5 339,357.5 343,353.5 343,353.5 343,353.5 339,349.5 339,349.5 339,349.5 341,348 341,348  Z"/>

<path  fill-rule="evenodd" fill="#FA8072" stroke-width="0" stroke="#FA8072" d = " M158 356 C158,363.811 164.678,356 158,356  M137 351 L138,351 C138,351 142.5,351 142.5,351 145.177,352.338 143,353.17 143,354.5 143,355.253 153.314,360.593 154.5,360 156.692,358.904 153.399,353.551 156.5,352 157.648,351.426 163.472,346.986 165.5,348 165.5,348 167.5,350 167.5,350 167.5,350 169.5,345 169.5,345 172.23,343.635 179.801,340.15 183.5,342 184.581,342.54 194.562,347.624 195,348.5 195,348.5 195,360.5 195,360.5 195.128,360.756 200.222,360.361 201.5,361 205.025,362.762 201.143,364.786 202,366.5 202,366.5 203,368.5 203,368.5 201.281,371.939 195.526,369.448 195,370.5 193.576,373.347 208.777,377.861 196.5,384 196.5,384 187,383.5 187,383.5 186.461,382.423 187.991,378 185.5,378 185.5,378 183.5,381 183.5,381 182.019,381 175.344,384.922 173.5,384 165.204,379.852 170.303,374.106 169,371.5 167.086,367.673 166.122,372.689 165.5,373 162.891,374.305 162.241,370 160.5,370 159.316,370 157.325,371.913 155.5,371 155.5,371 151.5,369 151.5,369 148.575,370.462 147.512,372.494 144.5,374 144.5,374 140,374.5 140,374.5 137.883,378.734 138.158,387.171 132.5,390 130.157,391.171 118.965,394.429 117,390.5 115.675,387.85 118.209,366.645 119.5,366 122.21,364.645 122.594,369 123.5,369 125.73,369 124.529,365.442 125,364.5 125,364.5 127,363.5 127,363.5 127,363.5 125,361.5 125,361.5 125,360.393 137,352.26 137,351  Z"/>

<path  fill="#FA8072" stroke-width="0" stroke="#FA8072" d = " M154 374 C154,378.655 159.264,374 154,374  Z"/>

</g>
</svg>
