<svg xmlns="http://www.w3.org/2000/svg" xmlns:xlink="http://www.w3.org/1999/xlink" height="512" width="512">
<g>
<rect width="512" height="512" fill="#000000"  stroke-width="0" /> 
<path  fill="#FFE300" stroke-width="0" stroke="#FFE300" d = " M252 149 L267.5,147 C272.246,149.373 278.612,154.724 281,159.5 L280,199 C283.295,199 281.771,182.959 283,180.5 290.379,165.743 298.401,160.451 277.5,150 277.5,150 275.5,146 275.5,146 275.5,146 273.5,147 273.5,147 273.5,147 268.5,144 268.5,144 264.615,142.058 252,144.546 252,149  Z"/>

<path  fill="#FFE300" stroke-width="0" stroke="#FFE300" d = " M232 148 C223.763,148 219.198,149.651 212.5,153 L209.5,157 L205,160.5 L204,167.5 C203.477,168.547 202.252,170.005 203,171.5 204.904,175.308 207,191.517 207,196 201.609,196 202.727,183.954 201,180.5 198.618,175.736 194,171.988 194,168.5 194,162.226 201,157.842 201,154.5 201,153.245 206.651,152.425 207.5,152 207.5,152 211.5,148 211.5,148 213.737,146.882 232,142.224 232,148  Z"/>

<path  fill="#FF8700" stroke-width="0" stroke="#FF8700" d = " M280 199 L280,206 C277.281,206 278,216.75 275.5,218 271.283,220.108 259.703,212.907 258,209.5 255.034,203.568 255.919,195.338 253,189.5 247.297,178.095 244,170.015 244,156 244.131,156 247.105,149 252,149 252,149 267.5,147 267.5,147 272.246,149.373 278.612,154.724 281,159.5 281,159.5 280,199 280,199  Z"/>

<path  fill="#FF8700" stroke-width="0" stroke="#FF8700" d = " M207 203 C208.47,203 208.169,215.839 209,217.5 210.562,220.625 215.126,218 217,218 217,215.982 224.717,210.067 226,207.5 228.501,202.499 229.921,192.658 232,188.5 232,188.5 238,182.5 238,182.5 241.462,175.577 242,165.218 242,157 239.936,157 241.574,153.647 241,152.5 239.413,149.327 235.054,148 232,148 223.763,148 219.198,149.651 212.5,153 212.5,153 209.5,157 209.5,157 209.5,157 205,160.5 205,160.5 205,160.5 204,167.5 204,167.5 203.477,168.547 202.252,170.005 203,171.5 204.904,175.308 207,191.517 207,196 207,196 207,203 207,203  Z"/>

<path  fill="#FFE300" stroke-width="0" stroke="#FFE300" d = " M280 206 C280,210.199 279.578,230.539 270.5,226 267.559,224.53 268.065,219.782 264.5,218 261.72,216.61 249.316,213.132 248,210.5 L249,208.5 L247,207.5 C246.133,205.766 246.92,203.339 246,201.5 L246,185 C246,183.724 246.583,176.459 243.5,178 238.09,180.705 244.355,198.79 242,203.5 L235.5,206 C224.676,211.412 231.792,218 217,218 217,215.982 224.717,210.067 226,207.5 228.501,202.499 229.921,192.658 232,188.5 232,188.5 238,182.5 238,182.5 241.462,175.577 242,165.218 242,157 242,154.918 244,152.781 244,156 244,170.015 247.297,178.095 253,189.5 255.919,195.338 255.034,203.568 258,209.5 259.703,212.907 271.283,220.108 275.5,218 278,216.75 277.281,206 280,206  Z"/>

<path  fill="#FFE300" stroke-width="0" stroke="#FFE300" d = " M207 203 C208.47,203 208.169,215.839 209,217.5 210.562,220.625 215.126,218 217,218 217,219.416 214.006,225 212.5,225 212.5,225 207,221.5 207,221.5 207,215.722 207,208.442 207,203  Z"/>

<path  fill="#FFE300" stroke-width="0" stroke="#FFE300" d = " M263 222 C263,226.255 270.521,222 263,222  Z"/>

<path  fill="#FA8072" stroke-width="0" stroke="#FA8072" d = " M164 354 C164,354.73 157.974,357.551 157,359.5 156.534,360.433 161.15,364.201 159,368.5 157.706,371.088 152.05,370.4 152,370.5 149.365,375.769 154,382.308 154,382.5 154,384.883 149.427,387.355 151,390.5 154.806,398.111 167.307,398.097 173.5,395 L178.5,395 L180,386.5 C178.41,383.321 171.938,382.624 175,376.5 L176.5,377 C180.616,377 174.632,371.765 174,370.5 171.694,365.889 179.439,354 164,354  Z"/>

<path  fill-rule="evenodd" fill="#FA8072" stroke-width="0" stroke="#FA8072" d = " M336 378 L335,379.5 C335,385.149 339.36,378 336,378  M327 356 L323,358.5 C321.183,360.317 320,363.359 320,366 320,368.289 327.526,378 323.5,378 L323,374.5 C321.837,372.175 319.845,371.173 317.5,370 315.035,368.767 310.826,372.847 310,374.5 308.239,378.021 313.471,382.558 313,383.5 311.687,386.125 308.082,388.663 310,392.5 314.944,402.388 320.74,393 322.5,393 325.782,393 326.998,397.751 332.5,395 L336.5,390 C336.521,390 339.175,396.151 340,394.5 L340,379.5 L336,376.5 C332.167,368.834 341.321,356 327,356  Z"/>

</g>
</svg>
