<svg xmlns="http://www.w3.org/2000/svg" xmlns:xlink="http://www.w3.org/1999/xlink" height="512" width="512">
<g>
<rect width="512" height="512" fill="#000000"  stroke-width="0" /> 
<path  fill="#03C12D" stroke-width="0" stroke="#03C12D" d = " M365 278 C369.456,278 375.016,280.242 379.5,278 381.61,276.945 380,276.501 380,275.5 380,273.684 382.734,274.383 383.5,274 385.882,272.809 384.173,271.155 385,269.5 L388,267.5 C393.083,257.333 398.915,247.671 404,237.5 406.489,232.522 403.537,224.426 406,219.5 407.987,215.526 410.463,201.427 408,196.5 405.581,191.662 405.836,183.173 404,179.5 401.915,175.329 399.085,171.669 397,167.5 395.481,164.462 395.03,156.56 393,152.5 391.81,150.12 385.836,143.171 384,139.5 382.534,136.568 368.595,129.548 365.5,128 354.929,122.715 349.129,118.814 339.5,114 336.576,112.538 331.889,114 329.5,114 L327.5,112 C322.146,109.323 313.871,111.685 308.5,109 304.646,107.073 275.436,100.032 271.5,102 268.847,103.326 265.044,101.728 262.5,103 L249.5,109 C245.383,111.059 245.547,115.407 244,118.5 L241.5,120 L241,116.5 L233.5,109 C229.406,106.953 210.693,101.403 205.5,104 203.117,105.192 199.775,103.863 197.5,105 184.882,111.309 169.177,110.661 156.5,117 L151.5,117 C138.395,123.552 125.666,130.417 112.5,137 110.013,138.244 108.549,144.475 105.5,146 94.463,151.519 92.6453,165.209 88,174.5 L88,179.5 C84.7513,185.997 80.082,196.664 84,204.5 L84,210.5 L86,214.5 C86,220.606 86.993,225.486 90,231.5 91.7027,234.905 91.1488,243.798 93,247.5 L96,250.5 L97,260.5 C99.4472,265.394 110.086,279.793 114.5,282 L123,282 C123,278.866 135.232,277.134 137.5,276 137.5,276 140.5,273 140.5,273 140.5,273 149.5,272 149.5,272 149.5,272 151.5,269 151.5,269 151.5,269 153.5,271 153.5,271 153.5,271 180,272 180,272 180,269.253 180.253,269 183,269 185.978,269 181.061,266.623 181,266.5 179.844,264.188 181.028,258.443 182,256.5 182.574,255.353 180.936,252 183,252 183,246.534 184,245.917 184,252 184,252 185.5,254 185.5,254 186.928,254 188,245.252 188,245 176.313,245 183.5,239 175.5,235 175.5,235 173,235.5 173,235.5 173,235.5 171.5,232 171.5,232 171.5,232 164.5,231 164.5,231 164.361,230.93 161.039,226.269 158.5,225 158.5,225 153.5,225 153.5,225 146.601,221.55 144.296,219.092 141,212.5 138.641,207.783 139.819,197.861 142,193.5 142,193.5 151,184.5 151,184.5 151.756,182.988 148.804,182.348 151.5,181 158.524,177.488 162.604,174.948 168.5,172 168.5,172 168.5,170 168.5,170 173.2,167.65 181,171.956 181,166.5 181,166.5 186,166 186,166 189.701,166 197.448,162.974 201.5,165 203.105,165.802 205.164,172.828 206,174.5 207.16,176.821 208.538,180.577 210,183.5 210,183.5 214,186.5 214,186.5 214,186.5 214,192.5 214,192.5 214,192.5 218,197.5 218,197.5 218,197.5 218,201.5 218,201.5 218,201.5 221,203.5 221,203.5 221.577,204.655 221,217.457 221,222 221,224.391 224.371,240.435 225.5,241 228.19,242.345 228.34,238.58 229.5,238 232.909,236.296 237.971,237.765 241.5,236 249.408,232.046 269,251.096 269,228.5 269,228.5 271,224 271,224 271,210.805 270.848,194.804 278,180.5 278.574,179.351 281.941,168 282,168 282,168 283,166 283,166 283,166 285,163 285,163 285,163 286,162 286,162 295.117,162 310.917,164.708 319.5,169 319.5,169 320.5,172 320.5,172 320.5,172 327.5,172 327.5,172 342.99,179.745 350,191.897 350,206.5 350,206.5 353,208.5 353,208.5 353,208.5 351,211.5 351,211.5 351,212.227 351.436,215.627 351,216.5 351,216.5 345,220.5 345,220.5 345,220.5 347,221.5 347,221.5 347,223.948 340,222.456 340,224.5 340,227.265 337.046,224.227 333.5,226 328.92,228.29 322.818,231.341 317.5,234 314.154,235.673 315.176,238.148 314,240.5 313.356,241.789 309,242.095 309,242.5 309,242.5 313,244.5 313,244.5 313,250.297 306.336,250 303,250 303,252.498 304.453,257.406 306,260.5 306,260.5 310,263.5 310,263.5 310,264.197 304.396,269 309,269 309,264.867 313,269.814 313,272 323,272 330.729,267.614 337.5,271 340.437,272.469 341.987,267.744 344.5,269 349.75,271.625 359.117,278 365,278  Z"/>

<path  fill-rule="evenodd" fill="#FF6E00" stroke-width="0" stroke="#FF6E00" d = " M326 227 C326,228.93 327.93,227 326,227  M291 233 L292,240.5 L298,244.5 C298,247.687 298.105,250 303,250 306.336,250 313,250.297 313,244.5 313,244.5 309,242.5 309,242.5 309,242.095 313.356,241.789 314,240.5 315.176,238.148 314.154,235.673 317.5,234 322.818,231.341 328.92,228.29 333.5,226 337.046,224.227 340,227.265 340,224.5 340,222.456 347,223.948 347,221.5 347,221.5 345,220.5 345,220.5 345,220.5 351,216.5 351,216.5 351.436,215.627 351,212.227 351,211.5 351,211.5 353,208.5 353,208.5 353,208.5 350,206.5 350,206.5 350,191.897 342.99,179.745 327.5,172 327.5,172 320.5,172 320.5,172 320.5,172 319.5,169 319.5,169 310.917,164.708 295.117,162 286,162 286,162 285,163 285,163 285,163 283,166 283,166 283,166 282,168 282,168 281.941,168 278.574,179.351 278,180.5 270.848,194.804 271,210.805 271,224 271,224 276,225 276,225 276,220.503 284.687,213.126 287,208.5 289.997,202.505 293.621,188.439 300.5,185 300.5,185 306.5,185 306.5,185 319.438,178.531 329.071,193.642 333,201.5 336.165,207.83 323.681,209.139 322,212.5 318.548,219.403 308.006,216.247 302.5,219 302.5,219 296.5,223 296.5,223 296.5,223 289,226.5 289,226.5 289,226.983 292,229.411 292,232 292,232 291,233 291,233  Z"/>

<path  fill="#FF6E00" stroke-width="0" stroke="#FF6E00" d = " M188 245 L189,245 C189,245 190,244 190,244 190,244 191,242 191,242 191,242 192,241 192,241 192,237.655 193.655,237.19 195,234.5 198.021,228.459 185.146,215 179,215 177.762,215 176,214.577 176,213 166.971,213 163.604,208.708 160,201.5 158.442,198.383 162,196.099 162,194 162,192.253 162.253,192 164,192 166.723,192 175.596,186.548 178.5,188 180.931,189.216 192.231,194 194,194 194,194 196,196 196,196 196,196 196,197 196,197 196,197 198,199 198,199 198,199 199,202 199,202 200.577,202 201,203.762 201,205 201,208.719 215.34,227 216,227 219.479,227 218.889,222 221,222 221,217.457 221.577,204.655 221,203.5 221,203.5 218,201.5 218,201.5 218,201.5 218,197.5 218,197.5 218,197.5 214,192.5 214,192.5 214,192.5 214,186.5 214,186.5 214,186.5 210,183.5 210,183.5 208.538,180.577 207.16,176.821 206,174.5 205.164,172.828 203.105,165.802 201.5,165 197.448,162.974 189.701,166 186,166 186,166 181,166.5 181,166.5 181,171.956 173.2,167.65 168.5,170 168.5,170 168.5,172 168.5,172 162.604,174.948 158.524,177.488 151.5,181 148.804,182.348 151.756,182.988 151,184.5 151,184.5 142,193.5 142,193.5 139.819,197.861 138.641,207.783 141,212.5 144.296,219.092 146.601,221.55 153.5,225 153.5,225 158.5,225 158.5,225 161.039,226.269 164.361,230.93 164.5,231 164.5,231 171.5,232 171.5,232 171.5,232 173,235.5 173,235.5 173,235.5 175.5,235 175.5,235 183.5,239 176.313,245 188,245  Z"/>

<path  fill="#814FFF" stroke-width="0" stroke="#814FFF" d = " M296 288 L295,292 C295,292 293.5,294 293.5,294 293.5,294 290,294.5 290,294.5 290,294.5 291.5,296 291.5,296 289.063,297.219 286.068,297.716 283.5,299 279.719,300.891 275.644,292.572 272.5,291 267.62,288.56 263,277.168 263,270.5 263,270.5 266,265.5 266,265.5 266.725,264.05 266,255.572 266,253.5 266,251.643 270,251.907 270,249 270,249 271,247 271,247 271,247 270,245 270,245 270,245 271,244 271,244 271,244 272,243 272,243 272,243 273,239 273,239 274.399,239 274.399,237 273,237 273,237 275,234 275,234 276.186,234 276.186,233 275,233 275,230.469 276,227.882 276,225 276,220.503 284.687,213.126 287,208.5 289.997,202.505 293.621,188.439 300.5,185 300.5,185 306.5,185 306.5,185 319.438,178.531 329.071,193.642 333,201.5 336.165,207.83 323.681,209.139 322,212.5 318.548,219.403 308.006,216.247 302.5,219 302.5,219 296.5,223 296.5,223 296.5,223 289,226.5 289,226.5 289,226.983 292,229.411 292,232 292,232 291,233 291,233 291,233 292,240.5 292,240.5 292,240.5 298,244.5 298,244.5 298,247.687 298.105,250 303,250 303,252.498 304.453,257.406 306,260.5 306,260.5 310,263.5 310,263.5 310,264.197 304.396,269 309,269 309,269 309,273 309,273 309,277.833 308.564,276 305,276 305,267.995 292.753,269.995 290,275.5 286.629,282.242 296,285.412 296,288  Z"/>

<path  fill="#814FFF" stroke-width="0" stroke="#814FFF" d = " M194 286 L194,290 C194.41,290 201.826,299.663 204.5,301 206.448,301.974 209.043,298.729 210.5,298 212.805,296.848 216.093,297.204 218.5,296 218.5,296 219,293.5 219,293.5 219,293.5 221.5,293 221.5,293 223.119,292.191 222,290.085 222,289.5 222,289.5 226,286.5 226,286.5 227.374,283.752 229,268.8 229,265.5 229,261.287 218,249.554 218,245 218,242.73 212.459,238 218,238 218,238 217,235 217,235 214.798,235 214.798,232 217,232 217,232 216,227 216,227 215.34,227 201,208.719 201,205 201,205 199,202 199,202 199,202 198,199 198,199 198,199 196,197 196,197 196,197 196,196 196,196 196,196 194,194 194,194 192.231,194 180.931,189.216 178.5,188 175.596,186.548 166.723,192 164,192 164,192 162,194 162,194 162,196.099 158.442,198.383 160,201.5 163.604,208.708 166.971,213 176,213 176,213 179,215 179,215 185.146,215 198.021,228.459 195,234.5 193.655,237.19 192,237.655 192,241 192,241 191,242 191,242 191,242 190,244 190,244 190,244 189,245 189,245 189,245 188,245 188,245 188,245.252 186.928,254 185.5,254 185.5,254 184,252 184,252 184,252 183,252 183,252 180.936,252 182.574,255.353 182,256.5 181.028,258.443 179.844,264.188 181,266.5 181.061,266.623 185.978,269 183,269 183,270.333 183,270.667 183,272 183,272 186,275 186,275 186.676,275 190.932,269.784 192.5,269 194.969,267.766 200.362,278.775 199,281.5 199,281.5 194,286 194,286  Z"/>

<path  fill-rule="evenodd" fill="#E1F00D" stroke-width="0" stroke="#E1F00D" d = " M243 240 L243,243 C243,250.618 250.299,240 243,240  M168 320 C171.997,320 173.713,326.607 176.5,328 181.256,330.378 201.468,337.016 207.5,334 L217.5,329 C222.13,326.685 221.161,320 227,320 227,320 228,319 228,319 228,318.433 237.026,305.447 238,303.5 240.49,298.52 238.481,284.539 243,275.5 243,275.5 243.5,270 243.5,270 245.978,268.761 244.574,274.648 245,275.5 246.801,279.101 248.13,282.76 250,286.5 250,286.5 250,294.5 250,294.5 255.401,305.302 261.258,315.758 270.5,325 283.994,338.494 298.952,333.274 313.5,326 317.176,324.162 324,320.801 324,316 315.552,316 312.944,299.722 307.5,297 307.5,297 300.5,297 300.5,297 298.519,296.009 297.818,292 295,292 295,292 293.5,294 293.5,294 293.5,294 290,294.5 290,294.5 290,294.5 291.5,296 291.5,296 289.063,297.219 286.068,297.716 283.5,299 279.719,300.891 275.644,292.572 272.5,291 267.62,288.56 263,277.168 263,270.5 263,270.5 266,265.5 266,265.5 266.725,264.05 266,255.572 266,253.5 266,251.643 270,251.907 270,249 270,249 271,247 271,247 271,247 270,245 270,245 270,245 270,244 270,244 267.61,244 272,238.853 272,238 272,238 273,237 273,237 273,237 275,234 275,234 275,234 275,233 275,233 275,230.469 276,227.882 276,225 276,225 271,224 271,224 271,224 269,228.5 269,228.5 269,251.096 249.408,232.046 241.5,236 237.971,237.765 232.909,236.296 229.5,238 228.34,238.58 228.19,242.345 225.5,241 224.371,240.435 221,224.391 221,222 218.889,222 219.479,227 216,227 216,227 217,232 217,232 217,232 217,235 217,235 217,235 218,238 218,238 218,240.294 220.753,245 218,245 218,249.554 229,261.287 229,265.5 229,268.8 227.374,283.752 226,286.5 226,286.5 222,289.5 222,289.5 222,290.085 223.119,292.191 221.5,293 221.5,293 219,293.5 219,293.5 219,293.5 218.5,296 218.5,296 216.093,297.204 212.805,296.848 210.5,298 209.043,298.729 206.448,301.974 204.5,301 201.826,299.663 194.41,290 194,290 194,290 193,289 193,289 193,289 189.5,292 189.5,292 186.491,293.504 174,301.789 174,304.5 174,305.656 173.985,309.53 173,311.5 172.111,313.277 168.302,310.895 167,313.5 165.919,315.661 168,318.394 168,320  Z"/>

<path  fill="#03C12D" stroke-width="0" stroke="#03C12D" d = " M326 227 C326,228.93 327.93,227 326,227  Z"/>

<path  fill="#022CFF" stroke-width="0" stroke="#022CFF" d = " M218 238 C212.459,238 218,242.73 218,245 220.753,245 218,240.294 218,238  Z"/>

<path  fill="#022CFF" stroke-width="0" stroke="#022CFF" d = " M270 244 L271,244 C271,244 272,243 272,243 272,243 273,239 273,239 273,239 272,238 272,238 272,238.853 267.61,244 270,244  Z"/>

<path  fill="#03C12D" stroke-width="0" stroke="#03C12D" d = " M192 241 L191,242 C191,242 192,241 192,241  Z"/>

<path  fill="#03C12D" stroke-width="0" stroke="#03C12D" d = " M190 244 L189,245 C189,245 190,244 190,244  Z"/>

<path  fill="#FF8700" stroke-width="0" stroke="#FF8700" d = " M193 289 L189.5,292 C186.491,293.504 174,301.789 174,304.5 174,305.656 173.985,309.53 173,311.5 172.111,313.277 168.302,310.895 167,313.5 165.919,315.661 168,318.394 168,320 166.654,320 159.484,312.992 157.5,312 157.5,312 155.5,313 155.5,313 155.5,313 141.5,305 141.5,305 137.586,303.043 132.507,303.004 128.5,301 126.093,299.796 128.159,297.33 127.5,297 125.811,296.155 120.131,293.763 119,291.5 116.682,286.865 123,285.118 123,282 123,278.866 135.232,277.134 137.5,276 137.5,276 140.5,273 140.5,273 140.5,273 149.5,272 149.5,272 149.5,272 151.5,269 151.5,269 151.5,269 153.5,271 153.5,271 153.5,271 180,272 180,272 180.476,272 183,275.803 183,272 183,272 186,275 186,275 186,278.735 188.998,286 193,286 193,286 193,289 193,289  Z"/>

<path  fill="#7CFC00" stroke-width="0" stroke="#7CFC00" d = " M193 286 L194,286 C194,286 199,281.5 199,281.5 200.362,278.775 194.969,267.766 192.5,269 190.932,269.784 186.676,275 186,275 186,278.735 188.998,286 193,286  Z"/>

<path  fill="#FF8700" stroke-width="0" stroke="#FF8700" d = " M295 292 C297.818,292 298.519,296.009 300.5,297 L307.5,297 C312.944,299.722 315.552,316 324,316 324,312.971 331.044,315.228 333.5,314 333.5,314 335,310.5 335,310.5 335,310.5 337.5,310 337.5,310 337.5,310 343.5,305 343.5,305 348.912,302.294 363.476,299.548 367,292.5 368.566,289.368 372.548,287.596 370,282.5 368.977,280.454 365,282.029 365,278 359.117,278 349.75,271.625 344.5,269 341.987,267.744 340.437,272.469 337.5,271 330.729,267.614 323,272 313,272 313,273.579 310.145,273 309,273 309,277.833 308.564,276 305,276 305,277.669 300.808,288 296,288 296,288 295,292 295,292  Z"/>

<path  fill="#7CFC00" stroke-width="0" stroke="#7CFC00" d = " M305 276 C305,277.669 300.808,288 296,288 296,285.412 286.629,282.242 290,275.5 292.753,269.995 305,267.995 305,276  Z"/>

<path  fill="#267EFF" stroke-width="0" stroke="#267EFF" d = " M228 319 C229.624,319 230.75,319 233,319 235.145,319 235.17,318.84 236,320.5 237.097,322.694 240.624,324.253 239,327.5 237.717,330.066 225,333.978 225,328.5 225,327.181 228,324.678 228,324.5 L226,323.5 L227,320 C227,320 228,319 228,319  Z"/>

<path  fill="#267EFF" stroke-width="0" stroke="#267EFF" d = " M258 320 C258,322.017 252.663,325.827 254,328.5 254.977,330.455 260.565,335.468 263.5,334 264.356,333.572 262.384,332.058 264.5,331 266.55,329.975 268.515,331.471 270,328.5 271.476,325.547 260.438,320 258,320  Z"/>

<path  fill-rule="evenodd" fill="#FA8072" stroke-width="0" stroke="#FA8072" d = " M302 342 C302,346.365 305.479,342 302,342  M308 331 C308,335.52 297.53,335.439 296,338.5 295.186,340.127 296.861,347.18 298.5,348 300.604,349.052 301.17,346 302.5,346 L303,350.5 C304.476,353.452 304.668,355.164 303,358.5 302.872,358.756 297.778,358.361 296.5,359 293.65,360.425 293.893,365.304 292.5,366 290.369,367.066 284.563,361.373 282,366.5 278.745,373.01 284,375.38 284,376.5 L282,377.5 C279.094,383.312 280.658,391.079 286.5,394 288.788,395.144 290.876,391.812 292.5,391 294.495,390.002 304,391.612 304,387.5 304,386.17 300.948,385.604 302,383.5 304.509,378.482 310.765,380.971 313,376.5 L316,372.5 C317.233,370.034 314.271,364.957 315,363.5 315.728,362.045 316.964,358.427 316,356.5 L314,353.5 C314,351.525 317.432,349.363 316,346.5 L313.5,348 C311.748,348.876 308.702,345.904 308,344.5 306.948,342.396 310,341.83 310,340.5 310,339.501 308.19,338.119 309,336.5 310.615,333.27 315.215,331 308,331  Z"/>

<path  fill="#FA8072" stroke-width="0" stroke="#FA8072" d = " M188 334 C188,336.347 171.058,341.558 180.5,351 L182.5,354 C188.265,356.882 187.764,348.973 189,346.5 190.365,343.77 192.058,347.385 193,345.5 195.145,341.21 192.745,334 188,334  Z"/>

<path  fill="#FA8072" stroke-width="0" stroke="#FA8072" d = " M182 362 C182,362.373 177.737,365.027 177,366.5 174.557,371.385 182.581,377.54 185.5,379 189.952,381.226 189.873,388.247 192,392.5 193.798,396.095 201.057,398.279 204.5,400 206.752,401.126 215.001,394.497 216,392.5 L216,375.5 C211.058,365.616 199.802,372.651 194.5,370 190.674,368.087 186,362 182,362  Z"/>

</g>
</svg>
