<svg xmlns="http://www.w3.org/2000/svg" xmlns:xlink="http://www.w3.org/1999/xlink" height="512" width="512">
<g>
<rect width="512" height="512" fill="#000000"  stroke-width="0" /> 
<path  fill="#FFE300" stroke-width="0" stroke="#FFE300" d = " M242 148 C242,149.465 241.891,152 244,152 244,158.386 244.608,166.716 247,171.5 247,171.5 250,173.5 250,173.5 251.498,176.497 251.466,180.431 253,183.5 257.538,192.577 255,203.296 255,213.5 255,213.5 257,217.5 257,217.5 257,226.663 259.914,227.329 264,235.5 266.191,239.883 288.945,240.61 291,236.5 293.038,232.424 294.223,213.945 292,209.5 290.714,206.928 288.257,200.986 290,197.5 294.096,189.307 294.924,179.651 299,171.5 299.226,171.047 299.222,165.944 299,165.5 299,165.5 297,164.5 297,164.5 297,164.5 298,161.5 298,161.5 298,161.5 293,154.5 293,154.5 292.415,153.329 288.208,146.354 287.5,146 280.906,142.703 273.436,141.468 266.5,138 261.123,135.311 256.273,141 252,141 252,137.508 257.339,138.08 259.5,137 266.015,133.742 288.412,139.324 291,144.5 291,144.5 297,150.5 297,150.5 300.635,157.77 312.108,178.283 307,188.5 307,188.5 304,189.5 304,189.5 304,189.5 304,194.5 304,194.5 302.942,196.616 301.428,194.644 301,195.5 301,195.5 298.5,198 298.5,198 297.547,197.524 298.586,193.957 296.5,195 296.5,195 296,200 296,200 296,200 293,209.5 293,209.5 290.374,214.752 295.357,218.215 297,221.5 297,221.5 296,226.5 296,226.5 296,226.5 298,228.5 298,228.5 298,228.5 296,230.5 296,230.5 294.164,234.172 298.403,240.549 293.5,243 283.013,248.243 268.656,242.578 259.5,238 257.96,237.23 257.017,232.517 255.5,231 253.104,228.604 248.727,229.955 247,226.5 243.809,220.119 249,216.498 249,214.5 249,214.5 246,212.5 246,212.5 244.57,209.64 245,197.897 245,195 245,195 244.5,189 244.5,189 243.247,189 242,194.831 242,196.5 242,196.5 242,220.5 242,220.5 241.798,220.904 240.023,220.454 239,222.5 239,222.5 240,228.5 240,228.5 239.419,229.661 233.349,230.151 232,231.5 230.541,232.959 224.754,241.873 224.5,242 218.742,244.879 210.953,245 204,245 202.236,245 201.687,247.593 200.5,247 198.143,245.822 197.846,241.173 195.5,240 194.062,239.281 191.808,239.116 191,237.5 185.827,227.153 201.431,218.362 197,209.5 197,209.5 195,208.5 195,208.5 195,208.5 195,202.5 195,202.5 193.513,199.527 192.034,202 190.5,202 187.695,202 188.599,197.698 188,196.5 188,196.5 183,192.5 183,192.5 183,192.5 183,186.5 183,186.5 177.04,174.58 188,159.504 188,150.5 188,146.809 207.901,137 213,137 216.296,137 224,135.502 224,140 220.139,140 198.059,143.382 196,147.5 194.682,150.136 192.231,153.038 191,155.5 191,155.5 192,159.5 192,159.5 192,159.5 190,159.5 190,159.5 186.955,165.59 191.106,172.712 194,178.5 195.634,181.767 195.291,186.083 197,189.5 200.11,195.721 198.15,200.801 201,206.5 204.547,213.594 194.594,225.688 199,234.5 200.363,237.227 197,238.757 197,239.5 197,239.5 200.5,240 200.5,240 200.5,240 202.5,242 202.5,242 206.429,243.965 225.067,234.365 227,230.5 231.018,222.465 233,209.933 233,200.5 233,197.747 230.366,191.768 232,188.5 235.039,182.422 236.581,176.338 240,169.5 241.294,166.912 242.172,153.843 241,151.5 240.528,150.555 240.844,148 242,148  Z"/>

<path  fill="#FF8700" stroke-width="0" stroke="#FF8700" d = " M252 141 C256.273,141 261.123,135.311 266.5,138 273.436,141.468 280.906,142.703 287.5,146 288.208,146.354 292.415,153.329 293,154.5 L298,161.5 L297,164.5 L299,165.5 C299.222,165.944 299.226,171.047 299,171.5 294.924,179.651 294.096,189.307 290,197.5 288.257,200.986 290.714,206.928 292,209.5 294.223,213.945 293.038,232.424 291,236.5 288.945,240.61 266.191,239.883 264,235.5 259.914,227.329 257,226.663 257,217.5 L255,213.5 C255,203.296 257.538,192.577 253,183.5 251.466,180.431 251.498,176.497 250,173.5 L247,171.5 C244.608,166.716 244,158.386 244,152 244,147.999 247.294,141 252,141  Z"/>

<path  fill="#FF8700" stroke-width="0" stroke="#FF8700" d = " M236 142 C239.169,142 242,144.831 242,148 240.844,148 240.528,150.555 241,151.5 242.172,153.843 241.294,166.912 240,169.5 236.581,176.338 235.039,182.422 232,188.5 230.366,191.768 233,197.747 233,200.5 233,209.933 231.018,222.465 227,230.5 225.067,234.365 206.429,243.965 202.5,242 202.5,242 200.5,240 200.5,240 200.5,240 197,239.5 197,239.5 197,238.757 200.363,237.227 199,234.5 194.594,225.688 204.547,213.594 201,206.5 198.15,200.801 200.11,195.721 197,189.5 195.291,186.083 195.634,181.767 194,178.5 191.106,172.712 186.955,165.59 190,159.5 190,159.5 192,159.5 192,159.5 192,159.5 191,155.5 191,155.5 192.231,153.038 194.682,150.136 196,147.5 198.059,143.382 220.139,140 224,140 224,140 226,140 226,140 229.721,140 232.881,142 236,142  Z"/>

<path  fill="#FFE300" stroke-width="0" stroke="#FFE300" d = " M226 140 C229.721,140 232.881,142 236,142 236,138.456 226,138.468 226,140  Z"/>

<path  fill="#30DA00" stroke-width="0" stroke="#30DA00" d = " M76 246 C76,250.371 82.2266,255.047 85,249.5 L82.5,246 C81.1179,246 78.4417,246 76,246  Z"/>

<path  fill="#FA8072" stroke-width="0" stroke="#FA8072" d = " M315 359 C315,361.251 305.613,361.274 304,364.5 301.93,368.64 306.334,369.833 304,374.5 302.328,377.845 304,379.328 304,382.5 304,389.505 302.87,397.315 313.5,392 315.716,390.892 320.606,392.288 322,389.5 322.843,387.814 323.855,376.211 323,374.5 L321,371.5 C323.976,365.548 323.286,359 315,359  Z"/>

<path  fill="#FA8072" stroke-width="0" stroke="#FA8072" d = " M174 360 L171,363.5 C169.986,365.528 172,368.112 172,369.5 L167.5,370 L164,373.5 L163.5,381 C157.275,384.112 156.786,378.928 152,388.5 150.193,392.114 155.014,400.243 159.5,398 162.415,396.542 164.583,399.458 167.5,398 L169.5,395 L177.5,396 C178.441,395.53 182.219,392 182.5,392 182.945,392 187.002,396.749 192.5,394 196.102,392.199 195.334,387.167 194,384.5 192.832,382.165 188.299,383.099 188,382.5 L188,376.5 L184,373.5 C182.744,370.987 187.469,369.437 186,366.5 183.449,361.399 180.223,360 174,360  Z"/>

<path  fill="#FA8072" stroke-width="0" stroke="#FA8072" d = " M327 383 C327,384.791 323.73,385.959 325,388.5 326.323,391.147 336.432,392.637 338,389.5 339.175,387.151 336.536,381.482 333.5,383 330,384.75 331.067,383 327,383  Z"/>

</g>
</svg>
