<svg xmlns="http://www.w3.org/2000/svg" xmlns:xlink="http://www.w3.org/1999/xlink" height="512" width="512">
<g>
<rect width="512" height="512" fill="#000000"  stroke-width="0" /> 
<path  fill-rule="evenodd" fill="#03C12D" stroke-width="0" stroke="#03C12D" d = " M301 88 C301,90.1115 306.567,88 301,88  M144 342 C144,344.311 131.65,345.075 129.5,344 126.485,342.493 122.484,343.492 119.5,342 114.158,339.329 90.2025,324.905 88,320.5 86.3829,317.266 82.4,315.3 81,312.5 75.8061,302.112 70,291.753 70,280.5 70,277.992 66,274.6 66,269.5 L61,264.5 C58.1788,258.858 55.4678,244.564 58,239.5 59.4932,236.514 53.0608,224.378 55,220.5 L58,218.5 C60.8263,212.847 54.4188,201.662 57,196.5 L58.5,193 L61,192.5 L59,191.5 C59,190.686 69.1543,158.191 70,156.5 L75,149.5 L73,147.5 C73,144.477 92,125.908 92,125.5 L90,124.5 L98.5,118 L109.5,110 C113.099,108.2 117.859,107.821 121.5,106 138.815,97.3427 160.277,98.6115 177.5,90 179.011,89.2446 187.338,90.081 189.5,89 192.984,87.258 218.146,87.3231 221.5,89 227.381,91.9405 232.531,96.0155 238.5,99 242.597,101.049 254.487,87.5067 257.5,86 259.593,84.9536 285.322,85.9108 285.5,86 L291.5,85 C296.868,87.6842 304.499,86.9995 310.5,90 L317.5,89 C324.727,92.6137 333.322,92.411 340.5,96 L346.5,96 L349.5,99 L356.5,99 C366.275,103.887 375.797,110.148 385.5,115 389.161,116.83 386.839,121.17 390.5,123 L396.5,122 L416,143.5 L415,146.5 L422,154.5 L423,166.5 C424.398,169.296 426.549,171.597 428,174.5 428.509,175.518 431.363,195.774 431,196.5 L429,198.5 L433,201.5 L434,212.5 L436,214.5 C436,216 432.972,217.444 434,219.5 L436,222.5 C436,233.122 435.333,246.835 431,255.5 L431,262.5 L426.5,272 C425.024,272.738 421,270.002 421,272.5 421,274.684 424.994,274.489 425,274.5 427.331,279.161 420,279.678 420,282.5 420,283.83 423.052,284.396 422,286.5 L419,288.5 C416.999,292.502 417.017,297.466 415,301.5 L405,313.5 C403.057,317.386 400.98,321.54 399,325.5 393.92,335.661 368.493,346 358.5,346 354.054,346 340,348.109 340,342 340,338.079 348.649,333.851 351.5,331 353.663,328.837 363,306.925 363,304 363,299.595 366.755,292 362,292 362,289.492 370,289.662 370,286 371.238,286 373,285.577 373,284 373,284 376,276 376,276 376,276 377,275 377,275 377,275 377,273 377,273 377,273 378,272 378,272 378,272 379,269 379,269 380.577,269 381,267.238 381,266 381,263.183 385,258.674 385,254 385,254 386,253 386,253 388.834,253 387.382,248 388.5,248 388.5,248 389.5,251 389.5,251 389.5,251 390,237.5 390,237.5 390,227.869 386.548,210.597 382,201.5 382,201.5 379,199.5 379,199.5 379,199.5 378,192.5 378,192.5 378,192.5 375,190.5 375,190.5 375,190.5 374,184.5 374,184.5 372.569,181.638 361.836,171.668 358.5,170 357.091,169.295 353.753,162.126 351.5,161 349.505,160.003 343.483,160 342.5,160 342.5,160 337.5,156 337.5,156 337.5,156 334.5,157 334.5,157 322.934,151.217 312.292,146 300,146 300,146 299,145 299,145 290.618,145 282.586,139.543 275.5,136 272.931,134.716 271.991,139 270,139 270,135.416 261.581,132.541 258.5,131 257.319,130.409 243.148,120 241.5,120 240.083,120 224.802,130.698 223,132.5 221.548,133.952 213,137.479 213,140 200.815,140 192.666,142.917 182.5,148 182.5,148 168.5,149 168.5,149 147.691,159.405 126.8,165.899 115,189.5 113.284,192.931 112.741,197.017 111,200.5 111,200.5 106,204.5 106,204.5 105.529,205.442 105.844,217.813 104,221.5 101.775,225.95 100,231.681 100,237 100,240.285 98.1367,255 103,255 103,257.248 104.089,264 107,264 107,273.938 127.726,297 135,297 135,308.419 142,318.2 142,329 142,333.709 140.292,342 144,342  Z"/>

<path  fill="#1D68EB" stroke-width="0" stroke="#1D68EB" d = " M238 162 C238,148.299 250,159.216 250,162 258.961,162 263.944,158.612 268,150.5 268,150.5 268,143.5 268,143.5 268,143.5 270,139 270,139 270,135.416 261.581,132.541 258.5,131 257.319,130.409 243.148,120 241.5,120 240.083,120 224.802,130.698 223,132.5 221.548,133.952 213,137.479 213,140 213,154.541 224.207,162 238,162  Z"/>

<path  fill-rule="evenodd" fill="#FF6E00" stroke-width="0" stroke="#FF6E00" d = " M331 155 C331,156.93 332.93,155 331,155  M103 255 C103,253.882 103.382,258 104.5,258 L106,255 C106,250.771 104.97,249.44 103,245.5 101.645,242.79 106,242.406 106,241.5 106,231.241 106.281,219.939 111,210.5 112.46,207.579 112.532,203.435 114,200.5 114,200.5 119,196.5 119,196.5 119,195.962 116.957,195 119,195 119,195 120,194 120,194 120,188.143 127.221,188.058 129,184.5 130.892,180.715 135.126,175.187 139.5,173 143.417,171.042 162.762,164.631 167.5,167 172.142,169.321 178.454,171 184,171 184,167.334 182,169.323 182,167.5 182,159.464 205.397,166.949 207.5,168 209.56,169.03 219,169.888 219,173 223.7,173 248.358,177.571 251.5,176 257.305,173.098 263.115,172 269,172 269,167.394 277.512,167.494 280.5,166 286.44,163.03 294.612,159.556 301.5,163 301.5,163 304,165 304,165 304,165 310.5,168 310.5,168 310.5,168 316,167 316,167 316,165.104 329.372,164.936 331.5,166 335.364,167.932 343.046,169.273 346.5,171 348.378,171.939 350.104,176 352,176 352,176 354,178 354,178 360.389,178 377,199.745 377,206 377,206 378,208 378,208 378,208 378,209 378,209 378,209 380,212 380,212 380,212 380,217 380,217 380,217 381,218 381,218 381,218 382,220 382,220 382,220 383,221 383,221 383,223.978 384,227.49 384,231 384,231 385,233 385,233 385,239.285 386,245.468 386,253 388.834,253 387.382,248 388.5,248 388.5,248 389.5,251 389.5,251 389.5,251 390,237.5 390,237.5 390,227.869 386.548,210.597 382,201.5 382,201.5 379,199.5 379,199.5 379,199.5 378,192.5 378,192.5 378,192.5 375,190.5 375,190.5 375,190.5 374,184.5 374,184.5 372.569,181.638 361.836,171.668 358.5,170 357.091,169.295 353.753,162.126 351.5,161 349.505,160.003 343.483,160 342.5,160 342.5,160 337.5,156 337.5,156 337.5,156 334.5,157 334.5,157 322.934,151.217 312.292,146 300,146 300,146 299,145 299,145 290.618,145 282.586,139.543 275.5,136 272.931,134.716 271.991,139 270,139 270,139 268,143.5 268,143.5 268,143.5 268,150.5 268,150.5 263.944,158.612 258.961,162 250,162 250,162 238,162 238,162 224.207,162 213,154.541 213,140 200.815,140 192.666,142.917 182.5,148 182.5,148 168.5,149 168.5,149 147.691,159.405 126.8,165.899 115,189.5 113.284,192.931 112.741,197.017 111,200.5 111,200.5 106,204.5 106,204.5 105.529,205.442 105.844,217.813 104,221.5 101.775,225.95 100,231.681 100,237 100,240.285 98.1367,255 103,255  Z"/>

<path  fill="#03C12D" stroke-width="0" stroke="#03C12D" d = " M331 155 C331,156.93 332.93,155 331,155  Z"/>

<path  fill-rule="evenodd" fill="#022CFF" stroke-width="0" stroke="#022CFF" d = " M242 260 C242,261.475 241.107,269 243.5,269 247.274,269 247.335,260 242,260  M250 263 C250,268.518 246.849,272.802 245,276.5 L245,300 L245,319.5 C245,320.548 244.744,325 243.5,325 L243,322.5 C241.341,319.182 242,315.682 242,311.5 L242,275.5 L240,274.5 C239.181,272.863 238.825,267 236,267 236,260.529 241,257.295 241,250 241,250 241,245 241,245 241,245 238,242 238,242 238,234.808 230.526,237 227,237 227,237 221,237 221,237 221,237 220,237 220,237 220,236.328 215.671,235 215,235 215,233.423 213.238,233 212,233 212,233 211,232 211,232 211,230.423 209.238,230 208,230 208,230 207,229 207,229 204.696,229 198.777,221 197,221 197,218.793 194.498,215 192,215 192,215 191,214 191,214 191,214 190,211 190,211 190,208.517 190,206.974 190,205 190,205 191,200 191,200 191,200 191,197 191,197 191,197 191,194 191,194 191,194 191,189 191,189 191,189 192,187 192,187 192,187 191,180 191,180 192.399,180 192.399,178 191,178 191,175.664 186.336,171 184,171 184,167.334 182,169.323 182,167.5 182,159.464 205.397,166.949 207.5,168 209.56,169.03 219,169.888 219,173 219,173 216,175 216,175 216,175 215,176 215,176 215,176 213,178 213,178 213,178 211,179 211,179 211,179 210,180 210,180 202.079,180 191.215,197.93 194,203.5 196.152,207.803 194.904,218 203,218 203,220.393 206.234,221 208,221 208,221 210,222 210,222 210,222 212,222 212,222 212,222 214,224 214,224 214,228.619 228.154,225.173 230.5,224 231.546,223.477 234,224.951 234,223 238.627,223 241.597,214.048 247.5,217 249.55,218.025 251.675,224 252,224 252,224 253,225 253,225 256.46,225 259.553,222 261,222 262.14,222 277,228.605 277,219 277,219 280.5,216 280.5,216 285.819,213.341 298.782,208.063 294,198.5 294,198.5 290,195.5 290,195.5 288.593,192.686 292.62,181 284,181 284,181 283,180 283,180 279.449,180 277.429,175 273,175 273,175 272,175 272,175 272,175 271,174 271,174 271,174 269,172 269,172 269,167.394 277.512,167.494 280.5,166 286.44,163.03 294.612,159.556 301.5,163 301.5,163 304,165 304,165 304,166.046 305,166.122 305,169 302.486,169 301,172.664 301,173.5 301,173.5 299,174.5 299,174.5 299,175.151 293.972,182.445 295,184.5 296.056,186.612 294.997,189.495 296,191.5 296,191.5 298,191.5 298,191.5 299.589,194.678 301,200.182 301,204 301,204 300,206 300,206 300,206 299,207 299,207 299,207 298,207 298,207 298,207 297,208 297,208 297,208 296,209 296,209 296,209 295,210 295,210 295,210 294,210 294,210 294,210 293,211 293,211 293,211 290,216 290,216 290,216 288,218 288,218 288,218 287,219 287,219 287,219 284,222 284,222 284,222 283,223 283,223 283,223 282,224 282,224 280.342,224 279,225.461 279,227 277.93,227 272,230.905 272,232 272,232 269,233 269,233 266.591,233 267.945,231.723 266.5,231 266.5,231 262,233 262,233 260.505,233 252,233.84 252,235 250.679,235 246,234.316 246,236 246,236.062 244,240.153 244,243 244,246.291 246,250.508 246,254 246,257.916 250,259.394 250,263  Z"/>

<path  fill-rule="evenodd" fill="#814FFF" stroke-width="0" stroke="#814FFF" d = " M312 193 L310,196.5 L311.5,199 C318.298,205.798 317.346,193 312,193  M370 286 C367.131,286 361,287.222 361,291 353.138,291 349.772,291.636 342.5,288 340.148,286.824 337.673,287.846 336,284.5 336,284.5 335,277.5 335,277.5 335,277.5 332,273 332,273 332,264.129 343.201,249.902 339,241.5 335.655,234.81 331.343,229.186 328,222.5 325.857,218.213 319,217.169 319,212 319,208.618 317.658,211 316,211 316,211 313,211 313,211 313,208.844 314.87,196.315 305.5,201 305.5,201 301,204 301,204 301,200.182 299.589,194.678 298,191.5 298,191.5 296,191.5 296,191.5 294.997,189.495 296.056,186.612 295,184.5 293.972,182.445 299,175.151 299,174.5 299,174.5 301,173.5 301,173.5 301,172.664 302.486,169 305,169 307.893,169 316,170.378 316,167 316,165.104 329.372,164.936 331.5,166 335.364,167.932 343.046,169.273 346.5,171 348.378,171.939 350.104,176 352,176 352,176 354,178 354,178 360.389,178 377,199.745 377,206 377,206 378,208 378,208 378,208 378,209 378,209 378,210.238 378.423,212 380,212 380,212 380,217 380,217 380,217 381,218 381,218 381,218 382,220 382,220 382,220 383,221 383,221 383,223.978 384,227.49 384,231 384,231 385,233 385,233 385,239.285 386,245.468 386,253 386,253 385,254 385,254 385,258.674 381,263.183 381,266 379.423,266 379,267.762 379,269 379,269 378,272 378,272 378,272 377,273 377,273 377,273 377,275 377,275 377,275 376,276 376,276 376,276 373,284 373,284 371.762,284 370,284.423 370,286  Z"/>

<path  fill-rule="evenodd" fill="#814FFF" stroke-width="0" stroke="#814FFF" d = " M179 198 C179,201.746 181.091,198 179,198  M162 274 C160.902,274 154,278.457 154,279.5 154,280.526 155,282.277 155,283.5 L149.5,288 C148.644,288.428 150.616,289.942 148.5,291 146.173,292.163 142.892,291.804 140.5,293 L135,297 C127.726,297 107,273.938 107,264 108.486,264 108.486,261 107,261 105.725,261 106,256.045 106,255 106,250.771 104.97,249.44 103,245.5 101.645,242.79 106,242.406 106,241.5 106,231.241 106.281,219.939 111,210.5 112.46,207.579 112.532,203.435 114,200.5 114,200.5 119,196.5 119,196.5 119,195.962 116.957,195 119,195 119,195 120,194 120,194 120,188.143 127.221,188.058 129,184.5 130.892,180.715 135.126,175.187 139.5,173 143.417,171.042 162.762,164.631 167.5,167 172.142,169.321 178.454,171 184,171 186.336,171 191,175.664 191,178 191,178 191,180 191,180 191,180 192,187 192,187 192,187 191,189 191,189 191,189 191,194 191,194 189.514,194 189.514,197 191,197 191,197 191,200 191,200 191,200 186,201 186,201 182.453,201 179.3,201 176,201 176,201 175,199 175,199 175,182.687 160.125,197.812 170.5,203 170.5,203 174,201 174,201 174,201 175,201 175,201 175,203.014 172.716,206.932 174,209.5 175.658,212.816 181,219.691 181,222 181,222 172.5,218 172.5,218 163.334,218 157.052,232.396 154,238.5 152.605,241.29 154,244.176 154,246.5 154,258.108 152.61,253.72 158,264.5 158.523,265.546 157.049,268 159,268 159,268 160,270 160,270 160,270 161,272 161,272 159.814,272 159.814,273 161,273 161,273 162,274 162,274  Z"/>

<path  fill="#FF0800" stroke-width="0" stroke="#FF0800" d = " M259 203 L260,203 C260,199.933 259.235,198.971 258,196.5 255.951,192.402 260.073,187.646 258,183.5 257.501,182.503 254.871,182.758 256,180.5 257.525,177.45 267.541,174 271,174 271,174 269,172 269,172 263.115,172 257.305,173.098 251.5,176 248.358,177.571 223.7,173 219,173 219,173 216,175 216,175 216,175 215,176 215,176 215,176 213,178 213,178 217.193,178 221.376,178 226.5,178 227.663,178 232,177.451 232,179.5 232,179.5 229,183.5 229,183.5 229,183.5 228.5,189 228.5,189 228.5,189 227,187.5 227,187.5 225.302,190.896 226,201.43 226,204 228.73,204 227.112,200.694 228.5,200 237.547,195.477 245.931,197.216 253.5,201 254.34,201.42 259,199.477 259,203  Z"/>

<path  fill="#00FF1D" stroke-width="0" stroke="#00FF1D" d = " M261 206 C266.816,206 264.359,217.93 268.5,220 L277,219 C277,219 280.5,216 280.5,216 285.819,213.341 298.782,208.063 294,198.5 294,198.5 290,195.5 290,195.5 288.593,192.686 292.62,181 284,181 284,181 283,180 283,180 279.449,180 277.429,175 273,175 273,176.186 272,176.186 272,175 272,175 271,174 271,174 267.541,174 257.525,177.45 256,180.5 254.871,182.758 257.501,182.503 258,183.5 260.073,187.646 255.951,192.402 258,196.5 259.235,198.971 260,199.933 260,203 260,203 261,205 261,205 261,205 261,206 261,206  Z"/>

<path  fill="#FF0800" stroke-width="0" stroke="#FF0800" d = " M272 175 L273,175 C273,176.186 272,176.186 272,175  Z"/>

<path  fill-rule="evenodd" fill="#00FF1D" stroke-width="0" stroke="#00FF1D" d = " M218 221 C218,222.93 219.93,221 218,221  M212 222 L214,224 C221.063,224 224,219.538 224,213 224,209.676 226,206.84 226,204 226,201.43 225.302,190.896 227,187.5 227,187.5 228.5,189 228.5,189 228.5,189 229,183.5 229,183.5 229,183.5 232,179.5 232,179.5 232,177.451 227.663,178 226.5,178 221.376,178 217.193,178 213,178 213,178 211,179 211,179 211,179 210,180 210,180 202.079,180 191.215,197.93 194,203.5 196.152,207.803 194.904,218 203,218 203,218 208,221 208,221 208,221 210,222 210,222 210,217.22 214.61,222 212,222  Z"/>

<path  fill="#FF0800" stroke-width="0" stroke="#FF0800" d = " M213 178 L211,179 C211,179 213,178 213,178  Z"/>

<path  fill="#FF0800" stroke-width="0" stroke="#FF0800" d = " M211 179 L210,180 C210,180 211,179 211,179  Z"/>

<path  fill="#FF3427" stroke-width="0" stroke="#FF3427" d = " M175 199 L174,201 C174,201 170.5,203 170.5,203 160.125,197.812 175,182.687 175,199  Z"/>

<path  fill="#FF3427" stroke-width="0" stroke="#FF3427" d = " M312 193 L310,196.5 L311.5,199 C318.298,205.798 317.346,193 312,193  Z"/>

<path  fill="#AE00E8" stroke-width="0" stroke="#AE00E8" d = " M252 224 L253,225 C256.46,225 259.553,222 261,222 261,219.107 262.14,220.219 263,218.5 265.034,214.432 261,209.461 261,206 261,206 261,205 261,205 260.359,205 256.626,203 259,203 259,199.477 254.34,201.42 253.5,201 245.931,197.216 237.547,195.477 228.5,200 227.112,200.694 228.73,204 226,204 226,206.84 224,209.676 224,213 225.675,213 224.643,223 234,223 238.627,223 241.597,214.048 247.5,217 249.55,218.025 251.675,224 252,224  Z"/>

<path  fill="#FF3427" stroke-width="0" stroke="#FF3427" d = " M179 198 C179,201.746 181.091,198 179,198  Z"/>

<path  fill="#FF3427" stroke-width="0" stroke="#FF3427" d = " M186 271 C186,272.145 186.579,275 185,275 185,284.069 188.961,275.578 191,271.5 191,271.5 190,268.5 190,268.5 191.557,265.385 192.443,262.615 194,259.5 194.658,258.185 191.862,253.775 193,251.5 195.142,247.216 196,244.185 196,238 196,238 195,236 195,236 195,236 194,229 194,229 191.899,229 189,226.169 189,224 185.749,224 184.725,219 188,219 188,216.093 186.482,211 190,211 190,208.517 190,206.974 190,205 188.077,205 186,202.896 186,201 182.453,201 179.3,201 176,201 176,201 175,201 175,201 175,203.014 172.716,206.932 174,209.5 175.658,212.816 181,219.691 181,222 185.526,222 186.242,240.985 188,244.5 188,244.5 190,246.5 190,246.5 192.324,251.148 184.432,248.636 184,249.5 182.105,253.291 188.528,255.444 188,256.5 188,256.5 186,257.5 186,257.5 186,257.658 189.25,262.999 188,265.5 188,265.5 186,271 186,271  Z"/>

<path  fill="#FF3427" stroke-width="0" stroke="#FF3427" d = " M302 271 L302,272 C302,273.37 297.543,273.586 297,272.5 297,272.5 295,262 295,262 295,258.757 293.303,259.106 292,256.5 291.147,254.795 293,237.257 293,234 293,234 294,230 294,230 294,230 294,229 294,229 294,229 295,227 295,227 295,220.247 302,215.298 302,206 302,206 301,204 301,204 301,204 305.5,201 305.5,201 314.87,196.315 313,208.844 313,211 313,219.474 296,236.177 296,241.5 296,241.5 298,243.5 298,243.5 299.653,246.805 298.214,248.927 300,252.5 300,252.5 297,257.5 297,257.5 297,257.5 300,259.5 300,259.5 302.828,262.328 302,266.447 302,271  Z"/>

<path  fill="#EE7533" stroke-width="0" stroke="#EE7533" d = " M294 227 L295,227 C295,220.247 302,215.298 302,206 302,206 300,206 300,206 300,206 299,207 299,207 299,207 298,207 298,207 298,207 297,208 297,208 297,208 296,209 296,209 296,209 295,210 295,210 295,210 294,210 294,210 294,210 293,211 293,211 293,211 290,216 290,216 290,220.671 289,222.865 289,227 290.456,227 290.289,220 293.5,220 295.48,220 290.806,227 294,227  Z"/>

<path  fill="#FF3427" stroke-width="0" stroke="#FF3427" d = " M316 211 C317.658,211 319,208.618 319,212 317.952,212 316,212.473 316,211  Z"/>

<path  fill="#EE7533" stroke-width="0" stroke="#EE7533" d = " M194 229 C194,223.466 197.19,231 198,231 201.637,231 192.658,221 197,221 197,218.793 194.498,215 192,215 192,215 191,214 191,214 191,214 190,211 190,211 186.482,211 188,216.093 188,219 188,219 189,224 189,224 189,226.169 191.899,229 194,229  Z"/>

<path  fill="#FF91BA" stroke-width="0" stroke="#FF91BA" d = " M304 273 C309.076,273 317.227,285.136 325.5,281 328.108,279.696 329.314,273 332,273 332,264.129 343.201,249.902 339,241.5 335.655,234.81 331.343,229.186 328,222.5 325.857,218.213 319,217.169 319,212 317.952,212 316,212.473 316,211 316,211 313,211 313,211 313,219.474 296,236.177 296,241.5 296,241.5 298,243.5 298,243.5 299.653,246.805 298.214,248.927 300,252.5 300,252.5 297,257.5 297,257.5 297,257.5 300,259.5 300,259.5 302.828,262.328 302,266.447 302,271 302,271 304,273 304,273  Z"/>

<path  fill="#0008B6" stroke-width="0" stroke="#0008B6" d = " M267 260 L269,260 C269,260 271,259 271,259 276.139,259 283.07,251.361 285,247.5 285.817,245.867 285.92,237 288,237 288,237 288,231 288,231 286.814,231 286.814,230 288,230 288,230 289,228 289,228 289,228 289,227 289,227 289,222.865 290,220.671 290,216 290,216 288,218 288,218 288,218 287,219 287,219 287,221.041 286.041,222 284,222 284,222 283,223 283,223 283,223 282,224 282,224 282,226.041 281.041,227 279,227 277.93,227 272,230.905 272,232 272,240.804 267,250.747 267,260  Z"/>

<path  fill="#FF91BA" stroke-width="0" stroke="#FF91BA" d = " M162 274 L167.5,279 C169.119,279.81 170.501,278 171.5,278 L173.5,281 C179.652,284.076 184.07,275 185,275 185,273.571 183.213,271 186,271 186,271 188,265.5 188,265.5 189.25,262.999 186,257.658 186,257.5 186,257.5 188,256.5 188,256.5 188.528,255.444 182.105,253.291 184,249.5 184.432,248.636 192.324,251.148 190,246.5 190,246.5 188,244.5 188,244.5 186.242,240.985 185.526,222 181,222 181,222 172.5,218 172.5,218 163.334,218 157.052,232.396 154,238.5 152.605,241.29 154,244.176 154,246.5 154,258.108 152.61,253.72 158,264.5 158.523,265.546 157.049,268 159,268 159,268 160,270 160,270 160,270 161,272 161,272 161,272 161,273 161,273 161,273 162,274 162,274  Z"/>

<path  fill="#ADFF2F" stroke-width="0" stroke="#ADFF2F" d = " M292 234 C290.543,234 290.54,237 288,237 288,237 288,231 288,231 288,231 288,230 288,230 288,230 289,228 289,228 289,228 289,227 289,227 290.456,227 290.289,220 293.5,220 295.48,220 290.806,227 294,227 294,227 294,229 294,229 294,229 294,230 294,230 291.891,230 292,232.535 292,234  Z"/>

<path  fill="#0008B6" stroke-width="0" stroke="#0008B6" d = " M219 242 L221,263 C219.361,263 218.545,265 217.5,265 217.5,265 216.5,263 216.5,263 209.204,259.352 206.993,257.493 201.5,252 199.712,250.212 203.011,242 199,242 199,240.533 199,238.467 199,237 199,235.952 199.473,234 198,234 198,234 198,231 198,231 201.637,231 192.658,221 197,221 198.777,221 204.696,229 207,229 207,229 208,230 208,230 209.238,230 211,230.423 211,232 211,232 212,233 212,233 213.238,233 215,233.423 215,235 215,236.429 216.288,239 218,239 218,239 219,242 219,242  Z"/>

<path  fill="#ADFF2F" stroke-width="0" stroke="#ADFF2F" d = " M196 238 C196.056,238 199,244.946 199,242 199,240.533 199,238.467 199,237 197.527,237 198,235.048 198,234 198,234 198,231 198,231 197.19,231 194,223.466 194,229 194,229 195,236 195,236 195,236 196,238 196,238  Z"/>

<path  fill="#EE7533" stroke-width="0" stroke="#EE7533" d = " M289 228 L288,230 C288,230 289,228 289,228  Z"/>

<path  fill="#EE7533" stroke-width="0" stroke="#EE7533" d = " M288 230 C286.814,230 286.814,231 288,231 288,231 288,230 288,230  Z"/>

<path  fill="#FFFC00" stroke-width="0" stroke="#FFFC00" d = " M262 233 L266.5,231 C267.945,231.723 266.591,233 269,233 269,238.643 262,239.037 262,233  Z"/>

<path  fill="#006400" stroke-width="0" stroke="#006400" d = " M253 243 C247.18,243 249.763,254 246,254 246,250.508 244,246.291 244,243 245.845,243 245.441,239.619 246,238.5 246.808,236.885 251.064,236 246,236 246,234.316 250.679,235 252,235 252,235 260.5,236 260.5,236 260.5,236 260.5,234 260.5,234 262.316,234 261.617,236.734 262,237.5 263.651,240.803 266.057,246 260,246 260,245.617 253,242.217 253,243  Z"/>

<path  fill-rule="evenodd" fill="#E1F00D" stroke-width="0" stroke="#E1F00D" d = " M142 296 C142,300.529 147.456,296 142,296  M340 291 C340,294.88 346.883,298.308 349.5,297 L354,296.5 C354,292.287 342.741,291 340,291  M146 341 L144,342 C140.292,342 142,333.709 142,329 142,318.2 135,308.419 135,297 135,297 140.5,293 140.5,293 142.892,291.804 146.173,292.163 148.5,291 150.616,289.942 148.644,288.428 149.5,288 149.5,288 155,283.5 155,283.5 155,282.277 154,280.526 154,279.5 154,278.457 160.902,274 162,274 162,274 167.5,279 167.5,279 169.119,279.81 170.501,278 171.5,278 171.5,278 173.5,281 173.5,281 179.652,284.076 184.07,275 185,275 185,284.069 188.961,275.578 191,271.5 191,271.5 190,268.5 190,268.5 191.557,265.385 192.443,262.615 194,259.5 194.658,258.185 191.862,253.775 193,251.5 195.142,247.216 196,244.185 196,238 196.056,238 199,244.946 199,242 203.011,242 199.712,250.212 201.5,252 206.993,257.493 209.204,259.352 216.5,263 216.5,263 217.5,265 217.5,265 218.545,265 219.361,263 221,263 221,269.277 230.939,267 236,267 238.825,267 239.181,272.863 240,274.5 240,274.5 242,275.5 242,275.5 242,275.5 242,311.5 242,311.5 242,315.682 241.341,319.182 243,322.5 243,322.5 243.5,325 243.5,325 244.744,325 245,320.548 245,319.5 245,319.5 245,300 245,300 245,300 245,276.5 245,276.5 246.849,272.802 250,268.518 250,263 250,263 256,263 256,263 258.106,263 258.262,266.119 260.5,265 261.69,264.405 262.817,261 265,261 265,261 267,260 267,260 267,260 269,260 269,260 269,260 271,259 271,259 276.139,259 283.07,251.361 285,247.5 285.817,245.867 285.92,237 288,237 290.54,237 290.543,234 292,234 292,234 293,234 293,234 293,237.257 291.147,254.795 292,256.5 293.303,259.106 295,258.757 295,262 295,262 297,272.5 297,272.5 297.543,273.586 302,273.37 302,272 302,272 304,273 304,273 309.076,273 317.227,285.136 325.5,281 328.108,279.696 329.314,273 332,273 332,273 335,277.5 335,277.5 335,277.5 336,284.5 336,284.5 337.673,287.846 340.148,286.824 342.5,288 349.772,291.636 353.138,291 361,291 361,291 362,292 362,292 366.755,292 363,299.595 363,304 363,306.925 353.663,328.837 351.5,331 348.649,333.851 340,338.079 340,342 340,342 336.5,346 336.5,346 336.5,346 333.5,344 333.5,344 333.5,344 328.5,345 328.5,345 324.583,343.042 320.273,341.887 316.5,340 307.483,335.491 300.315,330.407 291.5,326 288.07,324.285 282.169,330.335 279.5,329 265.108,321.804 246.603,328 231,328 231,328 225,328 225,328 225,326.737 219.64,326.43 218.5,327 213.563,329.468 208.664,329 202.5,329 194.699,329 161.07,341.215 153.5,345 149.692,346.904 147.785,341 146,341  Z"/>

<path  fill="#006400" stroke-width="0" stroke="#006400" d = " M235 244 C233.924,244 230,245.523 230,247 227.352,247 227.074,246.648 226,244.5 226,244.5 223,242.5 223,242.5 223,241.951 227,238.627 227,237 230.526,237 238,234.808 238,242 238,242 235,244 235,244  Z"/>

<path  fill="#FFFC00" stroke-width="0" stroke="#FFFC00" d = " M218 239 L219,242 C223.506,242 221,239.043 221,237 221,237 220,237 220,237 218.253,237 218,237.253 218,239  Z"/>

<path  fill="#15C0FF" stroke-width="0" stroke="#15C0FF" d = " M265 261 C262.817,261 261.69,264.405 260.5,265 258.262,266.119 258.106,263 256,263 256,259.556 251.419,259.338 250,256.5 247.278,251.055 253,246.622 253,243 253,242.217 260,245.617 260,246 260,251.207 265,254.841 265,261  Z"/>

<path  fill="#15C0FF" stroke-width="0" stroke="#15C0FF" d = " M235 244 C239.31,244 236.493,248.486 237,249.5 L239,250.5 C241.799,256.099 227.403,265.451 224.5,264 218.223,260.861 230,249.78 230,247 230,245.523 233.924,244 235,244  Z"/>

<path  fill="#006400" stroke-width="0" stroke="#006400" d = " M241 245 C239.434,245 239.434,250 241,250 241,250 241,245 241,245  Z"/>

<path  fill="#FFBB00" stroke-width="0" stroke="#FFBB00" d = " M242 260 C242,261.475 241.107,269 243.5,269 247.274,269 247.335,260 242,260  Z"/>

<path  fill="#FF6E00" stroke-width="0" stroke="#FF6E00" d = " M107 261 C108.486,261 108.486,264 107,264 107,264 107,261 107,261  Z"/>

<path  fill="#E1F00D" stroke-width="0" stroke="#E1F00D" d = " M161 272 C159.814,272 159.814,273 161,273 161,273 161,272 161,272  Z"/>

<path  fill="#FFBB00" stroke-width="0" stroke="#FFBB00" d = " M340 291 C340,294.88 346.883,298.308 349.5,297 L354,296.5 C354,292.287 342.741,291 340,291  Z"/>

<path  fill="#FFBB00" stroke-width="0" stroke="#FFBB00" d = " M142 296 C142,300.529 147.456,296 142,296  Z"/>

<path  fill="#267EFF" stroke-width="0" stroke="#267EFF" d = " M225 328 L231,328 C231,328.971 235.602,332.449 236.5,332 240.927,329.786 249.019,331.741 250.5,331 254.625,328.938 261.78,328 266.5,328 269.435,328 279.763,327.974 277,333.5 275.262,336.977 271.147,335.677 268.5,337 258.403,342.048 245.678,332.911 237.5,337 235.698,337.901 230.906,339 229,339 224.405,339 216.387,340.275 214,335.5 210.644,328.789 225,329.333 225,328  Z"/>

<path  fill="#03C12D" stroke-width="0" stroke="#03C12D" d = " M146 341 L144,342 C144,342 146,341 146,341  Z"/>

<path  fill-rule="evenodd" fill="#FA8072" stroke-width="0" stroke="#FA8072" d = " M301 375 C301,378.746 303.091,375 301,375  M302 373 C302,377.365 305.479,373 302,373  M304 346 C304,347.533 295.283,348.608 292.5,350 289.154,351.673 290.176,354.148 289,356.5 288.282,357.935 284.314,356.872 283,359.5 281.583,362.334 282.477,363.546 281,366.5 278.974,370.552 280.566,384.033 284.5,386 L289.5,386 L295.5,393 C297.241,393 297.891,388.695 300.5,390 L303.5,393 C304.523,393 305.082,388.209 307.5,387 311.758,384.871 319.89,381.72 322,377.5 L321,370.5 C322.07,368.361 328.819,369.138 326,363.5 L321,361.5 L322,354.5 C320.607,351.714 317.305,352.109 316,349.5 L314.5,346 C312.876,345.188 306.328,346 304,346  Z"/>

<path  fill-rule="evenodd" fill="#FA8072" stroke-width="0" stroke="#FA8072" d = " M195 371 C195,372.93 196.93,371 195,371  M183 349 C183,350.825 176.369,351.565 175.5,352 172.009,353.746 173.361,357.57 168.5,360 166.968,360.766 163.804,354.892 161,360.5 159.735,363.03 161.052,368.776 163.5,370 L166.5,369 L169.5,374 L172,372.5 C176.116,380.732 166.465,380.982 178.5,387 L181.5,390 C182.833,390 184.167,388 185.5,388 186.103,388 185.836,394.168 187.5,395 188.716,395.608 200.722,395.056 202,392.5 202.646,391.208 200.697,385 203.5,385 L205.5,388 C208.97,388 209.794,373.089 209,371.5 207.607,368.714 204.305,369.109 203,366.5 202.143,364.786 202.776,362.138 200.5,361 L195.5,360 L195,355.5 C193.757,353.015 185.407,349 183,349  Z"/>

<path  fill="#FA8072" stroke-width="0" stroke="#FA8072" d = " M121 350 C121,351.606 118.919,354.339 120,356.5 122.487,361.474 135.388,367.444 140.5,370 142.915,371.207 149.989,385.521 154,377.5 157.883,369.734 150.454,371.977 146.5,370 L136.5,358 C134.654,357.077 132.255,356.878 130.5,356 L127.5,352 C125.396,350.948 124.83,354 123.5,354 122.624,354 123.307,350 121,350  Z"/>

<path  fill="#FA8072" stroke-width="0" stroke="#FA8072" d = " M362 353 C362,355.5 355.504,356.492 354,359.5 352.337,362.826 356.985,367.757 360.5,366 365.331,363.585 372.768,353 362,353  Z"/>

<path  fill="#FA8072" stroke-width="0" stroke="#FA8072" d = " M351 362 C351,364.536 347.005,369 345.5,369 345.248,369 341.602,364.295 339,369.5 337.437,372.626 341.244,379 343.5,379 345.444,379 344.762,374.869 346.5,374 349.338,372.581 351.541,376.418 354,371.5 354.434,370.631 351.257,362 351,362  Z"/>

<path  fill="#FA8072" stroke-width="0" stroke="#FA8072" d = " M170 375 L169,377.5 L170,380.5 C171.931,384.361 171.328,375 170,375  Z"/>

</g>
</svg>
