<svg xmlns="http://www.w3.org/2000/svg" xmlns:xlink="http://www.w3.org/1999/xlink" height="512" width="512">
<g>
<rect width="512" height="512" fill="#000000"  stroke-width="0" /> 
<path  fill="#03C12D" stroke-width="0" stroke="#03C12D" d = " M126 281 L123,282 C111.12,282 103.832,269.164 99,259.5 99,259.5 98,253.5 98,253.5 97.0021,251.504 91,240.924 91,239.5 91,233.436 89.6927,229.885 87,224.5 87,224.5 86,211.5 86,211.5 84.1828,207.866 81.7273,195.045 84,190.5 89.7777,178.945 90.2038,165.092 96,153.5 98.0902,149.32 103.399,148.101 106.5,145 106.5,145 118.5,133 118.5,133 129.926,127.287 142.086,122.707 153.5,117 153.5,117 181.5,111 181.5,111 184.897,109.301 205.112,102.306 208.5,104 213.81,106.655 225.326,105.913 233.5,110 233.5,110 240.5,115 240.5,115 240.5,115 242.5,118 242.5,118 242.5,118 248.5,110 248.5,110 255.198,106.651 262.921,105.289 269.5,102 276.387,98.5563 303.839,106.169 309.5,109 309.5,109 318.5,109 318.5,109 329.395,114.448 342.654,114.577 353.5,120 359.844,123.172 365.121,127.81 371.5,131 375.034,132.767 382.167,136.835 384,140.5 385.675,143.849 389,147.691 389,150.5 389,152.684 392.994,152.489 393,152.5 396.162,158.824 397.769,166.037 401,172.5 404.666,179.833 402.307,188.114 406,195.5 408.312,200.125 406.872,212.756 405,216.5 402.126,222.248 405.933,231.634 403,237.5 399.112,245.276 386.197,274.152 378.5,278 374.778,279.861 368.461,278 365,278 364.64,278 352.071,270.785 350.5,270 341.863,265.681 321.854,269 313,269 311.762,269 310,269.423 310,271 310,271 307,270 307,270 303.287,270 307.559,264.618 305,259.5 303.829,257.157 296,247.978 296,246 313.737,246 297.961,237.77 307.5,233 314.05,229.725 345.222,222.057 348,216.5 350.067,212.367 348,208.797 348,204.5 348,196.991 346.528,191.555 343,184.5 341.796,182.093 339.33,184.159 339,183.5 339,183.5 339,179.5 339,179.5 338.057,177.615 334.973,178.736 333.5,178 333.5,178 324.5,172 324.5,172 321.669,170.585 316.368,170.434 313.5,169 309.519,167.01 293.157,159.671 288.5,162 281.438,165.531 282.869,171.761 280,177.5 276.099,185.301 272,208.075 272,218.5 272,232.893 283.12,221 283.5,221 285.824,221 282.132,227.236 282,227.5 280.589,230.322 283,234.579 283,237 281.053,237 279.356,233.572 276.5,235 276.5,235 275,238 275,238 273.952,238 272,237.527 272,239 272,239 270,240 270,240 270,240 254.5,241 254.5,241 251.575,239.538 246.593,235.954 242.5,238 239.25,239.625 234.673,238.414 231.5,240 231.5,240 228,243 228,243 228,241.465 224,241.465 224,243 222.376,243 221.25,241 219,241 219,241 218,241 218,241 218,239.342 216.539,238 215,238 215,235.794 213,238.742 213,240 209.549,240 213.063,234 208,234 208,231.067 207,228.679 207,225 207,225 208,223 208,223 211.233,223 214.792,226 217.5,226 217.5,226 218,221.5 218,221.5 219.8,217.901 219.828,207.157 218,203.5 217.003,201.506 218,201.33 218,199.5 218,199.5 213,192.5 213,192.5 213,191.501 214.81,190.119 214,188.5 214,188.5 209,183.5 209,183.5 209,183.5 208,176.5 208,176.5 205.611,171.723 200,168.837 200,165.5 200,165.5 189.5,165 189.5,165 187.936,165.782 185.962,165.269 184.5,166 183.644,166.428 185.616,167.942 183.5,169 183.5,169 170.5,170 170.5,170 168.583,170.959 173,170.919 173,171.5 173,171.5 167.5,172 167.5,172 166.738,172.381 162.397,178.051 160.5,179 156.487,181.007 147.248,187.004 145,191.5 140.682,200.136 144,209.242 144,217.5 144,220.17 149.309,218.405 150.5,219 156.108,221.804 160.839,225.169 166.5,228 170.356,229.928 175.587,230.043 179.5,232 182.142,233.321 178,235.402 178,235.5 178,235.5 183.5,238 183.5,238 184.321,238.41 182.804,239.304 184,240.5 186.995,243.495 191.275,242 195,242 195,242 197,243.5 197,243.5 197,243.5 193,245.5 193,245.5 193,248.889 186,255.053 186,255.5 186,255.5 188,258.5 188,258.5 187.483,259.534 184,270.477 184,271 173.532,271 155.943,267.778 149.5,271 146.383,272.559 139,270.545 139,275 139,275 135,277 135,277 135,277 133,278 133,278 131.655,278 126,279.571 126,281  Z"/>

<path  fill-rule="evenodd" fill="#FF6E00" stroke-width="0" stroke="#FF6E00" d = " M312 185 C312,187.334 307.819,186.341 306.5,187 L295.5,192 C295.42,192.04 280.427,216.463 285.5,219 291.031,221.766 323.522,211.455 325,208.5 326.453,205.595 331,205.912 331,203.5 L329,202.5 C329,200.673 330,198.674 330,196.5 L326.5,194 C322.66,192.08 323.953,185 312,185  M295 244 L296,246 C313.737,246 297.961,237.77 307.5,233 314.05,229.725 345.222,222.057 348,216.5 350.067,212.367 348,208.797 348,204.5 348,196.991 346.528,191.555 343,184.5 341.796,182.093 339.33,184.159 339,183.5 339,183.5 339,179.5 339,179.5 338.057,177.615 334.973,178.736 333.5,178 333.5,178 324.5,172 324.5,172 321.669,170.585 316.368,170.434 313.5,169 309.519,167.01 293.157,159.671 288.5,162 281.438,165.531 282.869,171.761 280,177.5 276.099,185.301 272,208.075 272,218.5 272,232.893 283.12,221 283.5,221 285.824,221 282.132,227.236 282,227.5 280.589,230.322 283,234.579 283,237 286.307,237 289.029,243 293,243 293,243 295,244 295,244  Z"/>

<path  fill="#FF6E00" stroke-width="0" stroke="#FF6E00" d = " M197 241 L195,242 C191.275,242 186.995,243.495 184,240.5 182.804,239.304 184.321,238.41 183.5,238 183.5,238 178,235.5 178,235.5 178,235.402 182.142,233.321 179.5,232 175.587,230.043 170.356,229.928 166.5,228 160.839,225.169 156.108,221.804 150.5,219 149.309,218.405 144,220.17 144,217.5 144,209.242 140.682,200.136 145,191.5 147.248,187.004 156.487,181.007 160.5,179 162.397,178.051 166.738,172.381 167.5,172 167.5,172 173,171.5 173,171.5 173,170.919 168.583,170.959 170.5,170 170.5,170 183.5,169 183.5,169 185.616,167.942 183.644,166.428 184.5,166 185.962,165.269 187.936,165.782 189.5,165 189.5,165 200,165.5 200,165.5 200,168.837 205.611,171.723 208,176.5 208,176.5 209,183.5 209,183.5 209,183.5 214,188.5 214,188.5 214.81,190.119 213,191.501 213,192.5 213,192.5 218,199.5 218,199.5 218,201.33 217.003,201.506 218,203.5 219.828,207.157 219.8,217.901 218,221.5 218,221.5 217.5,226 217.5,226 214.792,226 211.233,223 208,223 208,221.76 206,221.424 206,219 206,219 201,209 201,209 201,209 200,208 200,208 200,208 197,201 197,201 197,199.439 194,195.15 194,197 194,197 185.5,191 185.5,191 182.796,189.648 178.49,192.005 176.5,193 176.5,193 170.5,192 170.5,192 167.08,193.71 159.587,208 167,208 167,208 168,209 168,209 168,210.186 169,210.186 169,209 169,209 172,208 172,208 178.542,208 171,209.069 171,209.5 171,210.481 177,209.706 177,213 177,214.788 188.092,214 190,214 191.954,214 200,215.586 200,218 200,218 195,220.5 195,220.5 195,224.457 201.443,219.472 202.5,220 202.5,220 207,225 207,225 207,228.679 208,231.067 208,234 208,234 206,235 206,235 206,235 204,237 204,237 204,237 200.5,240 200.5,240 199.454,240.523 197,239.049 197,241  Z"/>

<path  fill="#814FFF" stroke-width="0" stroke="#814FFF" d = " M312 185 C312,187.334 307.819,186.341 306.5,187 L295.5,192 C295.42,192.04 280.427,216.463 285.5,219 291.031,221.766 323.522,211.455 325,208.5 326.453,205.595 331,205.912 331,203.5 L329,202.5 C329,200.673 330,198.674 330,196.5 L326.5,194 C322.66,192.08 323.953,185 312,185  Z"/>

<path  fill="#814FFF" stroke-width="0" stroke="#814FFF" d = " M202 217 C202,219.109 204.535,219 206,219 206,219 201,209 201,209 201,209 200,208 200,208 200,208 197,201 197,201 197,201 194,197 194,197 194,197 185.5,191 185.5,191 182.796,189.648 178.49,192.005 176.5,193 176.5,193 170.5,192 170.5,192 167.08,193.71 159.587,208 167,208 168.041,208 172,205.64 172,208 178.542,208 171,209.069 171,209.5 171,210.481 177,209.706 177,213 178.908,213 190,212.212 190,214 191.954,214 200,215.586 200,218 200,218 201,217 201,217 201,217 202,215 202,215 203.186,215 203.186,216 202,216 202,216 202,217 202,217  Z"/>

<path  fill="#814FFF" stroke-width="0" stroke="#814FFF" d = " M168 209 L169,209 C169,210.186 168,210.186 168,209  Z"/>

<path  fill="#FF6E00" stroke-width="0" stroke="#FF6E00" d = " M201 217 L202,217 C202,217 202,216 202,216 202,216 202,215 202,215 202,215 201,217 201,217  Z"/>

<path  fill="#814FFF" stroke-width="0" stroke="#814FFF" d = " M194 288 L196,292 C196,295.403 202,292.677 202,295.5 202,295.5 200,297.5 200,297.5 200,303.766 219.978,294.544 221,292.5 221,292.5 220,289.5 220,289.5 220,286.685 226.321,287.858 227,286.5 227,286.5 225,283.5 225,283.5 225,282.5 226,281.5 226,280.5 226,280.5 230,278.5 230,278.5 230,278.5 226,273.5 226,273.5 226,273.5 229,271.5 229,271.5 229,271.5 226,268.5 226,268.5 226,268.5 229,265.5 229,265.5 229,265.5 222,255.5 222,255.5 221.214,253.928 218.879,248 218,248 218,248 215,242 215,242 215,242 214,240 214,240 214,240 213,240 213,240 209.549,240 213.063,234 208,234 208,234 206,235 206,235 206,236.747 205.747,237 204,237 204,237 200.5,240 200.5,240 199.454,240.523 197,239.049 197,241 197,241 195,242 195,242 195,242 197,243.5 197,243.5 197,243.5 193,245.5 193,245.5 193,248.889 186,255.053 186,255.5 186,255.5 188,258.5 188,258.5 187.483,259.534 184,270.477 184,271 184,271 186,274 186,274 188.394,274 189.662,267.081 193.5,269 196.263,270.382 200.641,278.219 199,281.5 199,281.5 196,283.5 196,283.5 196,283.5 194,286 194,286 194,286 194,287 194,287 194,287 194,288 194,288  Z"/>

<path  fill="#03C12D" stroke-width="0" stroke="#03C12D" d = " M206 235 L204,237 C205.747,237 206,236.747 206,235  Z"/>

<path  fill="#814FFF" stroke-width="0" stroke="#814FFF" d = " M295 288 L291,292 C291,292 289,293.5 289,293.5 283.325,299.175 278.581,293.541 273.5,291 271.39,289.945 273,289.501 273,288.5 273,288.5 267,283.5 267,283.5 266.535,282.57 266.183,279 265,279 265,279 264,278 264,278 264,274.099 265,270.457 265,267 267.867,267 267,261.851 267,260 267,258.504 269.06,251 270,251 273.576,251 272,246.178 272,245 272,245 273,244 273,244 274.186,244 274.186,243 273,243 273,243 275,238 275,238 275,238 276.5,235 276.5,235 279.356,233.572 281.053,237 283,237 286.307,237 289.029,243 293,243 293,243 295,244 295,244 295,244 296,246 296,246 296,247.978 303.829,257.157 305,259.5 307.559,264.618 303.287,270 307,270 307,270 305,273 305,273 305,273 301.5,270 301.5,270 297.551,268.026 289,274.951 289,279.5 289,282.478 295,285.903 295,288  Z"/>

<path  fill="#022CFF" stroke-width="0" stroke="#022CFF" d = " M218 241 C218,244.382 216.658,242 215,242 215,242 214,240 214,240 214,240 215,238 215,238 216.539,238 218,239.342 218,241  Z"/>

<path  fill="#E1F00D" stroke-width="0" stroke="#E1F00D" d = " M167 314 C167,316.243 174.159,322.829 176.5,324 L179.5,328 C190.719,333.61 204.13,334.685 215.5,329 L222,321.5 C232.553,310.947 238,304.598 238,289 238,284.188 241.038,282.425 243,278.5 L244.5,274 L245,276.5 L251,284.5 L252,297.5 C256.065,305.631 269.316,326.408 278.5,331 291.209,337.354 310.759,330.981 317,318.5 L320,314 C313.558,314 316.468,307.484 311.5,305 309.776,304.138 307.314,298 305.5,298 300.697,298 296.245,292 291,292 291,292 289,293.5 289,293.5 283.325,299.175 278.581,293.541 273.5,291 271.39,289.945 273,289.501 273,288.5 273,288.5 267,283.5 267,283.5 266.535,282.57 266.183,279 265,279 265,279 264,278 264,278 264,274.099 265,270.457 265,267 265,265.226 264.727,260 267,260 267,258.504 269.06,251 270,251 270,251 270,246 270,246 270,246 271,242 271,242 271,242 270,240 270,240 270,240 254.5,241 254.5,241 251.575,239.538 246.593,235.954 242.5,238 239.25,239.625 234.673,238.414 231.5,240 231.5,240 228,243 228,243 228,243 224,243 224,243 222.376,243 221.25,241 219,241 219,241 218,248 218,248 218.879,248 221.214,253.928 222,255.5 222,255.5 229,265.5 229,265.5 229,265.5 226,268.5 226,268.5 226,268.5 229,271.5 229,271.5 229,271.5 226,273.5 226,273.5 226,273.5 230,278.5 230,278.5 230,278.5 226,280.5 226,280.5 226,281.5 225,282.5 225,283.5 225,283.5 227,286.5 227,286.5 226.321,287.858 220,286.685 220,289.5 220,289.5 221,292.5 221,292.5 219.978,294.544 200,303.766 200,297.5 200,297.5 202,295.5 202,295.5 202,292.677 196,295.403 196,292 196,292 192,290 192,290 187.372,290 187.887,294.613 186,296.5 186,296.5 181.5,297 181.5,297 176.676,299.412 174.02,307.461 172,311.5 171.171,313.157 167,310.719 167,314  Z"/>

<path  fill="#022CFF" stroke-width="0" stroke="#022CFF" d = " M272 245 L270,246 C270,246 271,242 271,242 271,242 272,239 272,239 272,237.527 273.952,238 275,238 275,238 273,243 273,243 273,243 273,244 273,244 273,244 272,245 272,245  Z"/>

<path  fill="#03C12D" stroke-width="0" stroke="#03C12D" d = " M197 241 L195,242 C195,242 197,241 197,241  Z"/>

<path  fill="#03C12D" stroke-width="0" stroke="#03C12D" d = " M293 243 L295,244 C295,244 293,243 293,243  Z"/>

<path  fill="#FF8700" stroke-width="0" stroke="#FF8700" d = " M291 292 C296.245,292 300.697,298 305.5,298 307.314,298 309.776,304.138 311.5,305 316.468,307.484 313.558,314 320,314 328.712,314 333.039,309.231 341.5,305 341.5,305 351.5,298 351.5,298 354.453,298 363.915,294.67 366,290.5 369.074,284.351 365,281.772 365,278 364.64,278 352.071,270.785 350.5,270 341.863,265.681 321.854,269 313,269 313,271.011 310,275.313 310,271 310,271 307,270 307,270 307,270 305,273 305,273 305,277.395 299.911,288 295,288 295,288 291,292 291,292  Z"/>

<path  fill="#FF8700" stroke-width="0" stroke="#FF8700" d = " M192 290 C187.372,290 187.887,294.613 186,296.5 L181.5,297 C176.676,299.412 174.02,307.461 172,311.5 171.171,313.157 167,310.719 167,314 165.394,314 162.661,316.081 160.5,315 160.5,315 157.5,311 157.5,311 155.563,310.032 153.797,312.148 151.5,311 151.5,311 139.5,303 139.5,303 136.883,301.691 129.528,302.556 128,299.5 128,299.5 130,297.5 130,297.5 130,297.5 126.5,297 126.5,297 126.5,297 125,293.5 125,293.5 125,293.5 119,289.5 119,289.5 117.088,285.675 123,285.172 123,282 123,282 126,281 126,281 127.704,281 133,282.603 133,278 133,278 135,277 135,277 137.177,277 139,277.641 139,275 139,270.545 146.383,272.559 149.5,271 155.943,267.778 173.532,271 184,271 184,271 186,274 186,274 186,277.548 189.224,286 193,286 193,286 194,287 194,287 194,287 194,288 194,288 194,288 192,290 192,290  Z"/>

<path  fill="#7CFC00" stroke-width="0" stroke="#7CFC00" d = " M193 286 L194,286 C194,286 196,283.5 196,283.5 196,283.5 199,281.5 199,281.5 200.641,278.219 196.263,270.382 193.5,269 189.662,267.081 188.394,274 186,274 186,277.548 189.224,286 193,286  Z"/>

<path  fill="#7CFC00" stroke-width="0" stroke="#7CFC00" d = " M305 273 L301.5,270 C297.551,268.026 289,274.951 289,279.5 289,282.478 295,285.903 295,288 299.911,288 305,277.395 305,273  Z"/>

<path  fill="#267EFF" stroke-width="0" stroke="#267EFF" d = " M230 318 L227,320.5 C225.909,322.682 226.813,323.874 226,325.5 221.266,334.969 243.173,331.847 239,323.5 L236,320.5 C235.371,319.243 231.778,318 230,318  Z"/>

<path  fill="#267EFF" stroke-width="0" stroke="#267EFF" d = " M258 320 L254,325.5 C258.174,333.848 270,331.705 270,328.5 270,324.131 261.956,320 258,320  Z"/>

<path  fill="#FA8072" stroke-width="0" stroke="#FA8072" d = " M308 331 C308,332.951 305.546,331.477 304.5,332 L301.5,336 L298.5,335 C294.094,337.203 298.044,339.413 297,341.5 L296,344.5 C297.232,346.963 310.029,351.443 308,355.5 306.303,358.894 298.191,359.155 294.5,361 L292.5,366 C290.369,367.066 284.563,361.373 282,366.5 278.745,373.01 284,375.38 284,376.5 L281,379.5 C279.212,383.075 281.106,392.303 284.5,394 286.406,394.953 297.54,390.98 299.5,390 300.442,389.529 304,390.73 304,388.5 304,385.762 301.335,385.831 303,382.5 L313,377.5 C314.739,374.022 317.86,361.22 316,357.5 L313,353.5 C313,351.513 317.57,350.64 316,347.5 315.376,346.253 310.416,349.333 309,346.5 306.469,341.438 313.003,331 308,331  Z"/>

<path  fill="#FA8072" stroke-width="0" stroke="#FA8072" d = " M188 333 C188,335.596 182.328,334.845 181,337.5 178.63,342.239 177.22,350.86 183.5,354 185.038,354.769 187.371,352.758 188,351.5 L188,347.5 C189.604,344.291 191.927,345.647 193,343.5 195.099,339.303 192.5,333 188,333  Z"/>

<path  fill="#FA8072" stroke-width="0" stroke="#FA8072" d = " M181 363 C181,365.059 174.711,366.922 177,371.5 178.628,374.757 185.556,378.612 186,379.5 191.803,391.105 192.063,393.282 203.5,399 L206.5,400 L216,392.5 C218.084,388.331 216.645,374.073 212.5,372 201.441,366.47 201.461,374.48 196.5,372 191.667,369.583 186.696,363 181,363  Z"/>

<path  fill="#FA8072" stroke-width="0" stroke="#FA8072" d = " M180 386 L178,389 C178,399.11 189.961,386 180,386  Z"/>

</g>
</svg>
