<svg xmlns="http://www.w3.org/2000/svg" xmlns:xlink="http://www.w3.org/1999/xlink" height="512" width="512">
<g>
<rect width="512" height="512" fill="#000000"  stroke-width="0" /> 
<path  fill-rule="evenodd" fill="#86FF5A" stroke-width="0" stroke="#86FF5A" d = " M240 381 C240,383.557 243.012,383.476 242,385.5 L239,386.5 C239,391.28 246.566,392.368 249,387.5 250,385.5 248.767,379.367 245.5,381 243.218,382.141 242.733,381 240,381  M284 358 C284,361.746 286.091,358 284,358  M243 340 C243,341.924 232.176,341.162 230.5,342 L227.5,345 C224.301,346.6 219.799,346.35 216.5,348 215.299,348.6 215.473,354 214.5,354 213.501,354 212.119,352.19 210.5,353 205.843,355.329 203.309,367.882 201,372.5 200.572,373.356 199.058,371.384 198,373.5 L198,378.5 C190.714,393.071 201.984,418.242 213.5,424 219.485,426.993 230.136,434.182 238.5,430 L244.5,424 C246.098,423.201 252.661,429.08 254.5,430 260.584,433.042 272.873,426.314 277.5,424 279.211,423.144 280.992,418.254 281.5,418 283.118,417.191 284.855,417.79 286,415.5 288.594,410.312 290.492,402.516 293,397.5 L293,388.5 L295,387.5 C295.453,386.594 288.093,367.687 287,365.5 L286,358.5 C284.945,356.39 281.594,356.688 281,355.5 L282,351.5 C280.282,348.064 269.818,347.659 266.5,346 264.109,344.805 262.333,345 260.5,345 L258.5,342 L256.5,344 C254.376,344 256.042,341.271 255.5,341 253.68,340.09 244.713,340 243,340  Z"/>

<path  fill="#EB57FF" stroke-width="0" stroke="#EB57FF" d = " M240 381 C240,383.557 243.012,383.476 242,385.5 L239,386.5 C239,391.28 246.566,392.368 249,387.5 250,385.5 248.767,379.367 245.5,381 243.218,382.141 242.733,381 240,381  Z"/>

</g>
</svg>
