<svg xmlns="http://www.w3.org/2000/svg" xmlns:xlink="http://www.w3.org/1999/xlink" height="512" width="512">
<g>
<rect width="512" height="512" fill="#000000"  stroke-width="0" /> 
<path  fill-rule="evenodd" fill="#FFFF00" stroke-width="0" stroke="#FFFF00" d = " M120 235 C120,236.93 121.93,235 120,235  M382 204 C382,211.585 390.534,204 382,204  M96 191 C96,194.746 98.0912,191 96,191  M361 236 C361,233.788 362,233.788 362,236 362,236 366.5,239 366.5,239 366.98,239.24 378.879,236.81 380.5,236 382.886,234.807 382,229.501 383,227.5 383,227.5 385,227.5 385,227.5 385.54,226.42 388,212.703 388,211.5 388,209.447 385.678,205.144 387,202.5 387,202.5 389,202.5 389,202.5 389,202.5 390,184.5 390,184.5 390,181.943 389,178.956 389,177 389,177 390,173.5 390,173.5 389.079,171.659 385.084,170.332 387,166.5 388.317,163.866 389.202,169.097 390,167.5 392.823,161.853 388.025,154.549 386,150.5 378.487,135.474 370.808,123.654 355.5,116 351.936,114.218 346.902,115.701 343.5,114 339.932,112.216 337.095,108 332.5,108 330.927,108 325.503,110.002 323.5,109 323.5,109 320.5,104 320.5,104 316.378,101.939 311.662,101.081 307.5,99 307.5,99 290.5,99 290.5,99 285.631,96.5653 279.099,92.7995 273.5,90 273.5,90 272.5,88 272.5,88 270.058,88 266.537,86.5183 263.5,85 259.969,83.2345 234.175,82.1623 230.5,84 228.895,84.8025 217.571,83.4646 214.5,85 209.301,87.5994 203.608,89.4461 198.5,92 196.492,93.0041 194.127,96.6864 191.5,98 191.5,98 186.5,104 186.5,104 183.574,104 178.452,104 176.5,104 176.5,104 175.5,102 175.5,102 175.5,102 171.5,105 171.5,105 166.097,105 163.793,104.853 157.5,108 157.5,108 156.5,113 156.5,113 156.5,113 148.5,113 148.5,113 148.5,113 146.5,117 146.5,117 146.5,117 143.5,114 143.5,114 143.5,114 136.5,114 136.5,114 130.854,116.823 105.587,134.326 102,141.5 99.8041,145.892 97.2025,150.095 95,154.5 95,154.5 95,159.5 95,159.5 93.9419,161.616 92.428,159.644 92,160.5 89.942,164.616 91.08,170.34 89,174.5 85.8839,180.732 90.5844,195.669 93,200.5 94.1302,202.76 100.661,201.821 101,202.5 101,202.5 100,209.5 100,209.5 102.95,215.399 102.116,222.733 105,228.5 105.147,228.794 108.75,230 109.5,230 109.5,230 113.5,234 113.5,234 113.5,234 118.5,235 118.5,235 118.5,235 120.5,238 120.5,238 120.5,238 123.5,235 123.5,235 124.986,235.743 122.456,245.978 126.5,248 141.077,255.288 155.382,234 168.5,234 168.5,234 169,231.5 169,231.5 170.65,228.2 174,229.399 174,225 174,222.243 160.273,233.613 159.5,234 159.5,234 157.5,233 157.5,233 157.5,233 155.5,236 155.5,236 155.5,236 153.5,235 153.5,235 153.5,235 152.5,237 152.5,237 150.729,237.885 140.635,241 140.5,241 138.867,241 126,246.448 126,239.5 126,236.898 135,239.915 135,236.5 135,223.225 152.914,228.293 161.5,224 169.363,220.069 173.54,212.42 177,205.5 179.772,199.956 194.579,190.342 198,183.5 198.736,182.028 203.016,173 198.5,173 178.804,173 171.574,203.463 154.5,212 139.138,219.681 141.496,205.002 129.5,211 120.517,215.492 121.309,236.809 112,227.5 112,227.5 106,221.5 106,221.5 106,221.5 106,214 106,214 106,211.302 102.656,210.188 104,207.5 106.718,202.065 118.953,196.773 124.5,194 142.122,185.189 180,193.088 180,161.5 180,161.5 175.5,160 175.5,160 171.638,161.931 167.27,162.115 163.5,164 159.951,165.775 157.705,160.397 154.5,162 148.823,164.838 142.22,166.14 136.5,169 131.368,171.566 121.206,185.353 114.5,182 112.114,180.807 117.244,170.012 118,168.5 122.233,160.034 137.625,152.938 145.5,149 148.455,147.522 148.651,140.576 145.5,139 142.899,137.7 136.579,139.961 134.5,141 132.952,141.774 124.378,140.561 121.5,142 116.206,144.647 103.028,159.444 101,163.5 99.9247,165.651 94.6788,172.858 96,175.5 96.628,176.756 99.6225,185.939 97.5,187 94.6988,188.401 96.9224,182 95.5,182 94.4621,182 96.219,197.938 92,189.5 91.4865,188.473 92,176.728 92,174.5 92,174.5 95,173.5 95,173.5 95,173.5 95,164.5 95,164.5 101.699,151.103 102.704,140.898 118.5,133 126.82,128.84 130.473,116 140.5,116 140.5,116 141,120.5 141,120.5 141,122.948 139.848,125.804 139,127.5 138.845,127.81 134.706,130.103 136.5,131 139.106,132.303 147.908,130.684 149,128.5 149.861,126.777 147.87,115.685 152.5,118 156.99,120.245 154.201,127.901 156,131.5 161.354,142.207 174.821,152.857 182,138.5 182.748,137.005 181.523,135.547 181,134.5 179.755,132.009 179.108,124.715 177,120.5 176.16,118.819 167,115.094 167,111.5 167,109.684 169.734,110.383 170.5,110 176.394,107.053 184.422,109.039 188.5,107 188.5,107 205.5,92 205.5,92 214.25,87.6248 225.122,88 233.5,88 238.029,88 244.322,84.9111 248.5,87 252.901,89.2006 266.687,86.8734 269,91.5 273.588,100.676 253.466,99.4831 252.5,99 248.495,96.9974 232.304,97.5979 227.5,100 223.81,101.845 209.645,104 206.5,104 202.709,104 191.754,115.992 190,119.5 187.794,123.912 187.793,138.085 190,142.5 194.627,151.754 207.958,132.771 211.5,131 223.067,125.217 254.936,122.218 266.5,128 266.5,128 274.5,127 274.5,127 278.097,128.799 279.545,133.022 283.5,135 283.5,135 284.5,138 284.5,138 296.467,138 301.744,124.988 295,111.5 294.226,109.952 290.595,109.69 290,108.5 288.504,105.509 293,105.26 293,104.5 293,104.5 290,103.5 290,103.5 290,103.5 295,102 295,102 300.24,102 300.483,102 306,102 308.426,102 312.517,104.009 314.5,105 319.586,107.543 311.397,109.103 309.5,111 309.5,111 309.5,114 309.5,114 309.5,114 306,111.5 306,111.5 306,111.5 306,116.5 306,116.5 302.996,122.508 301.136,133.818 309.5,138 309.5,138 318,137.5 318,137.5 318,137.5 318.5,132 318.5,132 318.5,132 319.5,135 319.5,135 319.5,135 322.5,128 322.5,128 322.5,128 323.5,131 323.5,131 323.5,131 324,127.5 324,127.5 324,127.5 327,125.5 327,125.5 327,125.5 331.5,112 331.5,112 334.151,110.674 332.168,116 333.5,116 333.5,116 334.5,112 334.5,112 338.854,112 336.693,118.096 338.5,119 342.171,120.835 345.394,117 348.5,117 352.521,117 363.189,125.878 365,129.5 367.571,134.642 357.536,130.982 357.5,131 355.319,132.09 356.597,131.048 354.5,130 354.5,130 346.5,130 346.5,130 346.5,130 345.5,127 345.5,127 345.5,127 343.5,128 343.5,128 339.85,128 339.45,123.6 336,130.5 335.539,131.422 339.533,146.566 340,147.5 340,147.5 356.5,159 356.5,159 357.863,159.681 362.867,167.816 360.5,169 359.309,169.596 350.553,165.026 348.5,164 332.68,156.09 332.919,155 314,155 311.227,155 302,149.547 302,156.5 302,160.733 307.203,162.906 309,166.5 313.558,175.617 323.306,178.403 330.5,182 330.5,182 341.5,181 341.5,181 350.034,185.267 361.205,186.853 369.5,191 378.812,195.656 377.257,178 381.5,178 381.5,178 383.5,181 383.5,181 383.5,181 386,183.5 386,183.5 387.878,187.255 384.898,200.301 381.5,202 378.42,203.54 373.691,201.405 370.5,203 368.2,204.15 358,199.828 358,204.5 358,209.482 372.032,215.734 375.5,214 376.606,213.447 381.538,208.575 383,211.5 384.195,213.89 379.954,218.591 379,220.5 377.49,223.521 380.039,234 373.5,234 361.503,234 370.533,221.016 362.5,217 362.5,217 339.5,203 339.5,203 335.492,200.996 329.408,202.954 325.5,201 318.476,197.488 308.701,185.903 305,178.5 303.823,176.147 289.595,169.548 286.5,168 286.5,168 284,169.5 284,169.5 283.252,170.995 284.477,172.453 285,173.5 285.126,173.752 285.866,179.231 287,181.5 287,181.5 297,191.5 297,191.5 299.675,196.85 306.281,199.063 309,204.5 310.803,208.105 313.559,216 315.5,216 317.679,216 320.225,222 323.5,222 323.5,222 326.5,220 326.5,220 326.5,220 329.5,222 329.5,222 329.5,222 331.5,220 331.5,220 334.87,220 340.991,220.245 344.5,222 348.672,224.086 356.995,235.51 356,237.5 353.498,242.504 336.39,234 332.5,234 328.626,234 312.773,221 309,221 309,225.383 313.336,227.418 316.5,229 316.5,229 319.5,233 319.5,233 328.437,237.468 338.562,239.531 347.5,244 350.405,245.452 361,241.518 361,236  Z"/>

<path  fill-rule="evenodd" fill="#00FFFF" stroke-width="0" stroke="#00FFFF" d = " M239 228 C239,233.567 241.112,228 239,228  M107 211 C107,214.13 106.779,215 108.5,215 L110.5,217 L111.5,215 L113.5,216 C114.53,215.485 116.064,212.782 114.5,212 L110.5,213 L107,211  M235 182 C235,184.308 227.987,182.257 226.5,183 220.793,185.854 211.744,186.012 209,191.5 L206,194.5 C207.287,197.073 218.13,193.815 220.5,195 226.559,198.029 258.702,198.399 265.5,195 L282,195.5 C288.101,183.297 264.41,185.955 258.5,183 252.714,180.107 241.781,182 235,182  M176 118 C176,119.93 177.93,118 176,118  M186 223 C186,221.359 184,217.534 184,218.5 184,219.679 184.679,222 183.5,222 L182.5,217 C180.27,217 181.471,220.558 181,221.5 L179.5,221 C177.836,221 176.998,225 174,225 174,222.243 160.273,233.613 159.5,234 159.5,234 157.5,233 157.5,233 157.5,233 155.5,236 155.5,236 155.5,236 153.5,235 153.5,235 153.5,235 152.5,237 152.5,237 150.729,237.885 140.635,241 140.5,241 138.867,241 126,246.448 126,239.5 126,236.898 135,239.915 135,236.5 135,223.225 152.914,228.293 161.5,224 169.363,220.069 173.54,212.42 177,205.5 179.772,199.956 194.579,190.342 198,183.5 198.736,182.028 203.016,173 198.5,173 178.804,173 171.574,203.463 154.5,212 139.138,219.681 141.496,205.002 129.5,211 120.517,215.492 121.309,236.809 112,227.5 112,227.5 106,221.5 106,221.5 106,221.5 106,214 106,214 106,211.302 102.656,210.188 104,207.5 106.718,202.065 118.953,196.773 124.5,194 142.122,185.189 180,193.088 180,161.5 180,161.5 175.5,160 175.5,160 171.638,161.931 167.27,162.115 163.5,164 159.951,165.775 157.705,160.397 154.5,162 148.823,164.838 142.22,166.14 136.5,169 131.368,171.566 121.206,185.353 114.5,182 112.114,180.807 117.244,170.012 118,168.5 122.233,160.034 137.625,152.938 145.5,149 148.455,147.522 148.651,140.576 145.5,139 142.899,137.7 136.579,139.961 134.5,141 132.952,141.774 124.378,140.561 121.5,142 116.206,144.647 103.028,159.444 101,163.5 99.9247,165.651 94.6788,172.858 96,175.5 96.628,176.756 99.6225,185.939 97.5,187 94.6988,188.401 96.9224,182 95.5,182 94.4621,182 96.219,197.938 92,189.5 91.4865,188.473 92,176.728 92,174.5 92,174.5 95,173.5 95,173.5 95,173.5 95,164.5 95,164.5 101.699,151.103 102.704,140.898 118.5,133 126.82,128.84 130.473,116 140.5,116 140.5,116 141,120.5 141,120.5 141,122.948 139.848,125.804 139,127.5 138.845,127.81 134.706,130.103 136.5,131 139.106,132.303 147.908,130.684 149,128.5 149.861,126.777 147.87,115.685 152.5,118 156.99,120.245 154.201,127.901 156,131.5 161.354,142.207 174.821,152.857 182,138.5 182.748,137.005 181.523,135.547 181,134.5 179.755,132.009 179.108,124.715 177,120.5 176.16,118.819 167,115.094 167,111.5 167,109.684 169.734,110.383 170.5,110 176.394,107.053 184.422,109.039 188.5,107 188.5,107 205.5,92 205.5,92 214.25,87.6248 225.122,88 233.5,88 238.029,88 244.322,84.9111 248.5,87 252.901,89.2006 266.687,86.8734 269,91.5 273.588,100.676 253.466,99.4831 252.5,99 248.495,96.9974 232.304,97.5979 227.5,100 223.81,101.845 209.645,104 206.5,104 202.709,104 191.754,115.992 190,119.5 187.794,123.912 187.793,138.085 190,142.5 194.627,151.754 207.958,132.771 211.5,131 223.067,125.217 254.936,122.218 266.5,128 266.5,128 274.5,127 274.5,127 278.097,128.799 279.545,133.022 283.5,135 283.5,135 284.5,138 284.5,138 296.467,138 301.744,124.988 295,111.5 294.226,109.952 290.595,109.69 290,108.5 288.504,105.509 293,105.26 293,104.5 293,104.5 290,103.5 290,103.5 290,103.5 295,102 295,102 300.24,102 300.483,102 306,102 308.426,102 312.517,104.009 314.5,105 319.586,107.543 311.397,109.103 309.5,111 309.5,111 309.5,114 309.5,114 309.5,114 306,111.5 306,111.5 306,111.5 306,116.5 306,116.5 302.996,122.508 301.136,133.818 309.5,138 309.5,138 318,137.5 318,137.5 318,137.5 318.5,132 318.5,132 318.5,132 319.5,135 319.5,135 319.5,135 322.5,128 322.5,128 322.5,128 323.5,131 323.5,131 323.5,131 324,127.5 324,127.5 324,127.5 327,125.5 327,125.5 327,125.5 331.5,112 331.5,112 334.151,110.674 332.168,116 333.5,116 333.5,116 334.5,112 334.5,112 338.854,112 336.693,118.096 338.5,119 342.171,120.835 345.394,117 348.5,117 352.521,117 363.189,125.878 365,129.5 367.571,134.642 357.536,130.982 357.5,131 355.319,132.09 356.597,131.048 354.5,130 354.5,130 346.5,130 346.5,130 346.5,130 345.5,127 345.5,127 345.5,127 343.5,128 343.5,128 339.85,128 339.45,123.6 336,130.5 335.539,131.422 339.533,146.566 340,147.5 340,147.5 356.5,159 356.5,159 357.863,159.681 362.867,167.816 360.5,169 359.309,169.596 350.553,165.026 348.5,164 332.68,156.09 332.919,155 314,155 311.227,155 302,149.547 302,156.5 302,160.733 307.203,162.906 309,166.5 313.558,175.617 323.306,178.403 330.5,182 330.5,182 341.5,181 341.5,181 350.034,185.267 361.205,186.853 369.5,191 378.812,195.656 377.257,178 381.5,178 381.5,178 383.5,181 383.5,181 383.5,181 386,183.5 386,183.5 387.878,187.255 384.898,200.301 381.5,202 378.42,203.54 373.691,201.405 370.5,203 368.2,204.15 358,199.828 358,204.5 358,209.482 372.032,215.734 375.5,214 376.606,213.447 381.538,208.575 383,211.5 384.195,213.89 379.954,218.591 379,220.5 377.49,223.521 380.039,234 373.5,234 361.503,234 370.533,221.016 362.5,217 362.5,217 339.5,203 339.5,203 335.492,200.996 329.408,202.954 325.5,201 318.476,197.488 308.701,185.903 305,178.5 303.823,176.147 289.595,169.548 286.5,168 286.5,168 284,169.5 284,169.5 283.252,170.995 284.477,172.453 285,173.5 285.126,173.752 285.866,179.231 287,181.5 287,181.5 297,191.5 297,191.5 299.675,196.85 306.281,199.063 309,204.5 310.803,208.105 313.559,216 315.5,216 317.679,216 320.225,222 323.5,222 323.5,222 326.5,220 326.5,220 326.5,220 329.5,222 329.5,222 329.5,222 331.5,220 331.5,220 334.87,220 340.991,220.245 344.5,222 348.672,224.086 356.995,235.51 356,237.5 353.498,242.504 336.39,234 332.5,234 328.626,234 312.773,221 309,221 309,217.613 299.078,215 299,215 299,215 290.5,206 290.5,206 268.49,206 242.768,208 222.5,208 218.065,208 210.935,206 206.5,206 202.803,206 199.648,208.426 196.5,210 194.988,210.756 194.348,207.804 193,210.5 191.43,213.641 193.884,217.268 195,219.5 195,219.5 195.5,222 195.5,222 198.239,222 199.335,218 200.5,218 201.9,218 202.952,220 203.5,220 203.5,220 209.5,218 209.5,218 212.32,218 217.68,220 220.5,220 231.301,220 245.723,218 254.5,218 257.187,218 261.715,218 263.5,218 263.5,218 265.5,220 265.5,220 265.5,220 266.5,218 266.5,218 267.799,217.351 278.599,215.549 279.5,216 279.5,216 283,218.5 283,218.5 283,218.5 281,219.5 281,219.5 281,219.5 288.5,221 288.5,221 288.5,221 292,219.5 292,219.5 294.042,223.583 287.535,224.983 285.5,226 278.153,229.673 265.651,224.925 259.5,228 257.395,229.052 255.453,227.595 254,230.5 253.307,231.886 257.889,232.805 255.5,234 249.995,236.753 244.724,231 244.5,231 244.5,231 243.5,234 243.5,234 243.5,234 239.5,233 239.5,233 233.076,236.212 232.294,233.397 225.5,230 222.113,228.307 200.171,231.335 197.5,230 194.449,228.475 188.516,223 186,223  Z"/>

<path  fill="#FFFF00" stroke-width="0" stroke="#FFFF00" d = " M176 118 C176,119.93 177.93,118 176,118  Z"/>

<path  fill="#FFFF00" stroke-width="0" stroke="#FFFF00" d = " M235 182 C235,184.308 227.987,182.257 226.5,183 220.793,185.854 211.744,186.012 209,191.5 L206,194.5 C207.287,197.073 218.13,193.815 220.5,195 226.559,198.029 258.702,198.399 265.5,195 L282,195.5 C288.101,183.297 264.41,185.955 258.5,183 252.714,180.107 241.781,182 235,182  Z"/>

<path  fill="#FFFF00" stroke-width="0" stroke="#FFFF00" d = " M391 184 C391,189.567 393.112,184 391,184  Z"/>

<path  fill="#00FFFF" stroke-width="0" stroke="#00FFFF" d = " M96 191 C96,194.746 98.0912,191 96,191  Z"/>

<path  fill-rule="evenodd" fill="#FFFF00" stroke-width="0" stroke="#FFFF00" d = " M284 217 C284,221.238 290.072,217 284,217  M223 237 L224,237 C228.625,237 243.531,242 249.5,242 253.739,242 263.808,237.346 268.5,235 273.271,232.614 280.149,235.676 285.5,233 285.5,233 290.5,229 290.5,229 291.498,228.501 293.903,228.694 294,228.5 295.165,226.169 293.88,222.741 295,220.5 296.267,217.966 299,219.851 299,215 299,215 290.5,206 290.5,206 268.49,206 242.768,208 222.5,208 218.065,208 210.935,206 206.5,206 202.803,206 199.648,208.426 196.5,210 194.988,210.756 194.348,207.804 193,210.5 191.43,213.641 193.884,217.268 195,219.5 195,219.5 195.5,222 195.5,222 198.239,222 199.335,218 200.5,218 201.9,218 202.952,220 203.5,220 203.5,220 209.5,218 209.5,218 212.32,218 217.68,220 220.5,220 231.301,220 245.723,218 254.5,218 257.187,218 261.715,218 263.5,218 263.5,218 265.5,220 265.5,220 265.5,220 266.5,218 266.5,218 267.799,217.351 278.599,215.549 279.5,216 279.5,216 283,218.5 283,218.5 283,218.5 281,219.5 281,219.5 281,219.5 288.5,221 288.5,221 288.5,221 292,219.5 292,219.5 294.042,223.583 287.535,224.983 285.5,226 278.153,229.673 265.651,224.925 259.5,228 257.395,229.052 255.453,227.595 254,230.5 253.307,231.886 257.889,232.805 255.5,234 249.995,236.753 244.724,231 244.5,231 244.5,231 243.5,234 243.5,234 243.5,234 239.5,233 239.5,233 233.076,236.212 232.294,233.397 225.5,230 222.113,228.307 200.171,231.335 197.5,230 194.449,228.475 188.516,223 186,223 186,229.901 187.534,227.034 190,229.5 199.125,238.625 203.979,231.239 211.5,235 211.5,235 214,237 214,237 214,234.627 216.284,237 217,237 217,234.274 222.294,237 223,237  Z"/>

<path  fill="#FFFF00" stroke-width="0" stroke="#FFFF00" d = " M107 211 C107,214.13 106.779,215 108.5,215 L110.5,217 L111.5,215 L113.5,216 C114.53,215.485 116.064,212.782 114.5,212 L110.5,213 L107,211  Z"/>

<path  fill="#00FFFF" stroke-width="0" stroke="#00FFFF" d = " M284 217 C284,221.238 290.072,217 284,217  Z"/>

<path  fill-rule="evenodd" fill="#FFFF00" stroke-width="0" stroke="#FFFF00" d = " M52 252 C52,253.86 43.377,263.439 50.5,267 53.9609,268.73 64.5742,262.648 67,267.5 69.7433,272.987 53.3547,273.791 52,276.5 49.963,280.574 51.9841,288 57.5,288 L58.5,286 L61.5,287 C67.701,283.899 64.4444,274 76,274 L78.5,273 C89.4881,278.494 63.6843,286.592 76.5,293 82.1895,295.845 104.743,279.986 100,270.5 L96.5,271 C93.951,269.726 84.2359,276.972 81,270.5 75.8073,260.115 87,261.101 87,253.5 87,251.168 83.604,255.948 83.5,256 80.5157,257.492 79.5091,259 75,259 66.4696,259 60.4552,252 52,252  M80 243 C80,249.303 83.1191,243 80,243  M64 233 C64,235.676 54.1421,235.784 57,241.5 58.7746,245.049 68.3378,247 72,247 73.2664,247 78,249.062 78,246.5 78,238.857 71.6452,233 64,233  M72 225 C72,229.595 70.3944,225.711 70,226.5 L69.5,230 C65.011,232.245 58.3685,225.763 54,234.5 52.8131,236.874 50.3572,242.214 52,245.5 L57,247.5 C57,249.463 48.691,249.404 47.5,250 L44,257.5 C43.3779,258.744 43.013,265.526 44,267.5 L48.5,272 L51,272.5 L48,275.5 C44.8909,281.718 54.1927,290 58.5,290 60.6891,290 63.7442,288 65.5,288 L66.5,291 C66.7331,291 77.5676,297 80.5,297 90.0204,297 112.21,282.92 106,270.5 105.046,268.591 99.691,266.882 99,265.5 97.4305,262.361 98.6368,257.774 97,254.5 L97,249.5 C96.9699,249.44 94.0506,248.601 93,246.5 91.8548,244.21 93.1896,238.845 91.5,238 87.8338,236.167 87.4389,240.969 83.5,239 79.5083,237.004 82.547,230.594 81,227.5 L77.5,227 C75.6556,226.078 74.3496,225 72,225  Z"/>

<path  fill="#FFFF00" stroke-width="0" stroke="#FFFF00" d = " M239 228 C239,233.567 241.112,228 239,228  Z"/>

<path  fill-rule="evenodd" fill="#FFFF00" stroke-width="0" stroke="#FFFF00" d = " M405 272 C405,276.668 399.365,281.23 402,286.5 405.085,292.67 416.812,285.344 419.5,284 L423.5,284 C424.751,283.375 423.826,280 422.5,280 420.783,280 414.586,278.543 411.5,277 409.32,275.91 408.143,272 405,272  M395 269 C395,273.42 396.206,269 395,269  M418 256 C418,258.207 412.824,256.338 411.5,257 409.155,258.173 407.163,259.175 406,261.5 L408,264 L408.5,269 L410.5,266 C412.653,264.924 420.487,268.994 422.5,270 425.917,271.709 428.885,268 430.5,268 432.045,268 430.543,262.043 430,261.5 426.277,257.777 421.967,256 418,256  M412 237 C412,238.878 402.404,240.308 406,247.5 L410.5,248 C412.573,249.036 424,247.5 425,245.5 426.529,242.443 421.51,237 419,237 L412,237  M412 232 C412,234.81 400.751,232.998 400,234.5 L400,237.5 L398,236.5 C396.298,239.905 401.518,248.463 400,251.5 L395.5,258 C393,259.25 383,259.091 383,264.5 383,265.938 384,268.062 384,269.5 L382,276.5 C382.92,278.339 382.133,280.766 383,282.5 L385,283.5 L384,286.5 C386.442,291.384 388.182,287 389.5,287 L391.5,290 L400.5,294 C405.065,296.283 426.32,290.86 428,287.5 428.771,285.958 431.037,281.574 430,279.5 429.524,278.547 425.957,279.586 427,277.5 428.883,273.733 438.304,271.107 435,264.5 433.643,261.786 434.323,258.145 433,255.5 432.344,254.188 428,255.975 428,253.5 428,251.23 430.361,249.778 431,248.5 433.805,242.889 428.609,235 424.5,235 L423.5,232 C421.092,230.796 413.905,232 412,232  M401 266 C399.814,266 399.814,267 401,267 401,279.804 405.036,264.572 404,262.5 403.485,261.47 400.782,259.936 400,261.5 400,261.5 401,266 401,266  Z"/>

<path  fill="#00FFFF" stroke-width="0" stroke="#00FFFF" d = " M64 233 C64,235.676 54.1421,235.784 57,241.5 58.7746,245.049 68.3378,247 72,247 73.2664,247 78,249.062 78,246.5 78,238.857 71.6452,233 64,233  Z"/>

<path  fill="#00FFFF" stroke-width="0" stroke="#00FFFF" d = " M361 236 L362,236 C362,233.788 361,233.788 361,236  Z"/>

<path  fill-rule="evenodd" fill="#9953FF" stroke-width="0" stroke="#9953FF" d = " M250 329 C250,332.807 255.395,329 250,329  M264 340 C267.526,340 272.954,342 274,342 276.27,342 277.627,339.936 279.5,339 279.5,339 290.5,337 290.5,337 300.244,332.128 309.562,327.938 318,319.5 320.704,316.796 329,318.877 329,314 326.279,314 316.15,315.2 319,309.5 319,309.5 321,306 321,306 312.173,306 309.187,287.874 306,281.5 303.655,276.811 283.062,272.375 287,264.5 290.566,257.369 300.891,263.696 305.5,266 305.5,266 313,265.5 313,265.5 313,264.664 308,265.404 308,262 308,262 307,258 307,258 307,258 307,257 307,257 305.814,257 305.814,256 307,256 307,248.366 315.496,256 317,256 317,255.395 311.647,245 313,245 313,242.901 305.968,243.734 304.5,243 302.903,242.202 308.134,241.317 305.5,240 303.672,239.086 291.95,238 289.5,238 286.139,238 276,235.595 276,239 276,241.158 281.64,245 284,245 285.186,245 285.186,246 284,246 278.111,246 284,248.184 284,249.5 284,250.239 280.733,250.965 282,253.5 282.347,254.195 286,256.764 286,258.5 286,258.5 277,259.5 277,259.5 277,259.5 284,260.5 284,260.5 284,260.5 281,261.5 281,261.5 281,261.5 282,262.5 282,262.5 282,262.5 274.5,263 274.5,263 274.5,263 272.5,265 272.5,265 269.75,266.375 266.452,263.976 264.5,263 260.62,261.06 255.868,264.684 252.5,263 251.197,262.348 245,262.781 245,261 245,261 241,262 241,262 241,265.814 234.767,262.367 233.5,263 232.047,263.726 227.718,263 225,263 222.591,263 223.945,264.277 222.5,265 217.032,267.734 210.76,259.63 207.5,258 207.5,258 205,257.5 205,257.5 205,257.5 209,255.5 209,255.5 209,255.5 204,254.5 204,254.5 204,254.5 208,253.5 208,253.5 208.471,252.558 208.471,246.442 208,245.5 208,245.5 205,242.5 205,242.5 205.317,241.865 213,239.466 213,239 204.367,239 196.65,235.925 188.5,240 186.498,241.001 185.539,243.981 185.5,244 182.956,245.272 179.141,244.68 176.5,246 175.163,246.669 178.314,248 176,248 176,248 172,252.5 172,252.5 172,253.939 176,251.841 176,254 183.378,254 181,259.255 181,262 182.564,262 184.876,263 187,263 187,261.527 188.952,262 190,262 190,260.527 191.952,261 193,261 199.297,261 199.14,271.219 197,275.5 195.471,278.559 182.26,274.981 178,283.5 175.766,287.968 175.098,308 169,308 169,308 173,310.5 173,310.5 173,312.197 169,314.965 169,316 169,318.589 174.564,321.628 176,324.5 178.044,328.588 208.932,343 214,343 214,343 220,339 220,339 210.962,339 216.066,335 220.5,335 220.5,335 226.5,330 226.5,330 228.943,330 231.057,333 233.5,333 234.983,333 234.338,326.919 236.5,328 238.139,328.82 236.364,330.772 236,331.5 235.02,333.459 235,334.342 235,335.5 235,335.5 230,339 230,339 230,339 236,338 236,338 236,336.093 240.419,331.337 242,334.5 242,334.5 241,340 241,340 243.413,340 244.587,340 247,340 247,340 249,339 249,339 249,339 246,333.5 246,333.5 247.359,330.783 251,336.213 251,338 251,338 259,338 259,338 259,331.514 256.768,340.036 255,336.5 252.865,332.23 259,333.609 259,332.5 259,332.084 256.415,328 259.5,328 260.562,328 269.544,334.522 270.5,335 270.5,335 277,336.5 277,336.5 277,340.689 264,337.566 264,340  Z"/>

<path  fill="#EB57FF" stroke-width="0" stroke="#EB57FF" d = " M213 239 C213,239.466 205.317,241.865 205,242.5 L208,245.5 C208.471,246.442 208.471,252.558 208,253.5 L204,254.5 L209,255.5 L205,257.5 L207.5,258 C210.76,259.63 217.032,267.734 222.5,265 223.945,264.277 222.591,263 225,263 227.718,263 232.047,263.726 233.5,263 234.767,262.367 241,265.814 241,262 241,258.008 235.252,243.876 231.5,242 231.5,242 224.5,241 224.5,241 221.829,239.664 220.178,237 217,237 217,238.514 215.238,237 214,237 214,237 213,239 213,239  Z"/>

<path  fill="#9953FF" stroke-width="0" stroke="#9953FF" d = " M223 237 L224,237 C224,238.186 223,238.186 223,237  Z"/>

<path  fill="#00FFFF" stroke-width="0" stroke="#00FFFF" d = " M412 237 C412,238.878 402.404,240.308 406,247.5 L410.5,248 C412.573,249.036 424,247.5 425,245.5 426.529,242.443 421.51,237 419,237 L412,237  Z"/>

<path  fill="#EB57FF" stroke-width="0" stroke="#EB57FF" d = " M284 246 C278.111,246 284,248.184 284,249.5 284,250.239 280.733,250.965 282,253.5 282.347,254.195 286,256.764 286,258.5 L277,259.5 L284,260.5 L281,261.5 L282,262.5 L274.5,263 L272.5,265 C269.75,266.375 266.452,263.976 264.5,263 260.62,261.06 255.868,264.684 252.5,263 251.197,262.348 245,262.781 245,261 245,261 247,257.5 247,257.5 247,257.5 251,255.5 251,255.5 251,255.5 251,252.5 251,252.5 251,252.5 254,250.5 254,250.5 254,248.664 252.827,247.846 254,245.5 257.705,238.09 268.156,239 276,239 276,241.158 281.64,245 284,245 284,245 284,246 284,246  Z"/>

<path  fill="#00FFFF" stroke-width="0" stroke="#00FFFF" d = " M80 243 C80,249.303 83.1191,243 80,243  Z"/>

<path  fill="#34FF0D" stroke-width="0" stroke="#34FF0D" d = " M317 256 C322.529,256 325.019,263.538 327,267.5 333.443,280.385 336,277.052 336,293 L336,300.5 C333.342,305.815 331,307.065 331,313 341.666,313 341.274,292.951 344,287.5 345.701,284.098 343,282.7 343,279.5 343,278.167 345,276.833 345,275.5 345,272.064 342.076,269.651 341,267.5 334.698,254.896 328.434,245 313,245 311.647,245 317,255.395 317,256  Z"/>

<path  fill="#34FF0D" stroke-width="0" stroke="#34FF0D" d = " M176 254 C172.089,254 171.877,255.623 169.5,258 L168.5,261 L167.5,259 C165.159,259 163.327,265.173 162,266.5 157.465,271.035 147.399,291.298 151,298.5 152.552,301.604 151.057,301.614 152,303.5 153.304,306.108 157,306.797 157,310 147.84,310 146,301.071 146,294.5 146,291.473 141.275,287.95 143,284.5 144.003,282.495 143,277.206 143,274.5 143,274.5 145,273.5 145,273.5 145.398,272.703 146,265.73 146,264.5 146,264.5 157,253.5 157,253.5 158.455,252.045 156.132,251.184 158.5,250 161.709,248.396 165.222,246.639 168.5,245 171.128,243.686 173.952,248 176,248 176,248 172,252.5 172,252.5 172,253.939 176,251.841 176,254  Z"/>

<path  fill="#46A515" stroke-width="0" stroke="#46A515" d = " M384 248 L380,252.5 L388.5,253 C391.813,251.343 387.965,249.465 387,248.5 L384,248  Z"/>

<path  fill="#00FFFF" stroke-width="0" stroke="#00FFFF" d = " M52 252 C52,253.86 43.377,263.439 50.5,267 53.9609,268.73 64.5742,262.648 67,267.5 69.7433,272.987 53.3547,273.791 52,276.5 49.963,280.574 51.9841,288 57.5,288 L58.5,286 L61.5,287 C67.701,283.899 64.4444,274 76,274 L78.5,273 C89.4881,278.494 63.6843,286.592 76.5,293 82.1895,295.845 104.743,279.986 100,270.5 L96.5,271 C93.951,269.726 84.2359,276.972 81,270.5 75.8073,260.115 87,261.101 87,253.5 87,251.168 83.604,255.948 83.5,256 80.5157,257.492 79.5091,259 75,259 66.4696,259 60.4552,252 52,252  Z"/>

<path  fill="#46A515" stroke-width="0" stroke="#46A515" d = " M105 252 C105,256.366 111.669,259.162 113,256.5 114.24,254.02 110.324,251.088 108.5,252 106.758,252.871 107.113,252 105,252  Z"/>

<path  fill="#FA8072" stroke-width="0" stroke="#FA8072" d = " M331 313 L329,314 C326.279,314 316.15,315.2 319,309.5 319,309.5 321,306 321,306 321,306 325,304 325,304 326.158,304 328.757,294.014 328,292.5 326.626,289.752 328.736,284.972 327,281.5 325.459,278.419 323.491,275.482 322,272.5 322,272.5 317,269.5 317,269.5 315.793,267.086 312.149,262 309,262 309,262 307,258 307,258 307,258 307,257 307,257 307,257 307,256 307,256 307,248.366 315.496,256 317,256 322.529,256 325.019,263.538 327,267.5 333.443,280.385 336,277.052 336,293 336,293 336,300.5 336,300.5 333.342,305.815 331,307.065 331,313  Z"/>

<path  fill="#FA8072" stroke-width="0" stroke="#FA8072" d = " M157 310 C162.381,310 162.687,316 169,316 169,314.965 173,312.197 173,310.5 173,310.5 169,308 169,308 169,306.221 164.072,307.643 163,305.5 161.82,303.14 162.221,299.942 161,297.5 159.637,294.773 163,293.243 163,292.5 163,291.112 160.986,288.528 162,286.5 164.147,282.206 172.946,266 177,266 177,266 177,265 177,265 177,265 181,262 181,262 181,259.255 183.378,254 176,254 172.089,254 171.877,255.623 169.5,258 169.5,258 168.5,261 168.5,261 168.5,261 167.5,259 167.5,259 165.159,259 163.327,265.173 162,266.5 157.465,271.035 147.399,291.298 151,298.5 152.552,301.604 151.057,301.614 152,303.5 153.304,306.108 157,306.797 157,310  Z"/>

<path  fill="#00FFFF" stroke-width="0" stroke="#00FFFF" d = " M418 256 C418,258.207 412.824,256.338 411.5,257 409.155,258.173 407.163,259.175 406,261.5 L408,264 L408.5,269 L410.5,266 C412.653,264.924 420.487,268.994 422.5,270 425.917,271.709 428.885,268 430.5,268 432.045,268 430.543,262.043 430,261.5 426.277,257.777 421.967,256 418,256  Z"/>

<path  fill="#5BF1FF" stroke-width="0" stroke="#5BF1FF" d = " M177 266 C172.946,266 164.147,282.206 162,286.5 160.986,288.528 163,291.112 163,292.5 163,293.243 159.637,294.773 161,297.5 162.221,299.942 161.82,303.14 163,305.5 164.072,307.643 169,306.221 169,308 175.098,308 175.766,287.968 178,283.5 182.26,274.981 195.471,278.559 197,275.5 199.14,271.219 199.297,261 193,261 193,262.473 191.048,262 190,262 190,263.473 188.048,263 187,263 184.876,263 182.564,262 181,262 181,262 177,265 177,265 183.362,265 183.362,266 177,266  Z"/>

<path  fill="#5BF1FF" stroke-width="0" stroke="#5BF1FF" d = " M325 304 C323.535,304 321,303.891 321,306 312.173,306 309.187,287.874 306,281.5 303.655,276.811 283.062,272.375 287,264.5 290.566,257.369 300.891,263.696 305.5,266 305.5,266 313,265.5 313,265.5 313,264.664 308,265.404 308,262 308,262 309,262 309,262 312.149,262 315.793,267.086 317,269.5 317,269.5 322,272.5 322,272.5 323.491,275.482 325.459,278.419 327,281.5 328.736,284.972 326.626,289.752 328,292.5 328.757,294.014 326.158,304 325,304  Z"/>

<path  fill="#00FFFF" stroke-width="0" stroke="#00FFFF" d = " M401 266 L401,267 C401,279.804 405.036,264.572 404,262.5 403.485,261.47 400.782,259.936 400,261.5 400,261.5 401,266 401,266  Z"/>

<path  fill="#9953FF" stroke-width="0" stroke="#9953FF" d = " M177 265 C183.362,265 183.362,266 177,266 177,266 177,265 177,265  Z"/>

<path  fill="#00FFFF" stroke-width="0" stroke="#00FFFF" d = " M395 269 C395,273.42 396.206,269 395,269  Z"/>

<path  fill="#00FFFF" stroke-width="0" stroke="#00FFFF" d = " M405 272 C405,276.668 399.365,281.23 402,286.5 405.085,292.67 416.812,285.344 419.5,284 L423.5,284 C424.751,283.375 423.826,280 422.5,280 420.783,280 414.586,278.543 411.5,277 409.32,275.91 408.143,272 405,272  Z"/>

<path  fill="#46A515" stroke-width="0" stroke="#46A515" d = " M54 296 C54,303.922 66.8922,299.196 72.5,302 L75.5,306 C81.7641,309.132 86.9642,303.732 77.5,299 L65.5,299 C62.0395,297.27 58.1576,296 54,296  Z"/>

<path  fill="#46A515" stroke-width="0" stroke="#46A515" d = " M415 302 L414,305 C414,314.641 424.092,302 415,302  Z"/>

<path  fill="#9953FF" stroke-width="0" stroke="#9953FF" d = " M325 304 C323.535,304 321,303.891 321,306 321,306 325,304 325,304  Z"/>

<path  fill="#46A515" stroke-width="0" stroke="#46A515" d = " M71 312 C71,323.807 82.3866,312 71,312  Z"/>

<path  fill="#00F60E" stroke-width="0" stroke="#00F60E" d = " M230 339 C227.876,339 225.564,340 224,340 224,339.086 220,336.754 220,339 210.962,339 216.066,335 220.5,335 220.5,335 226.5,330 226.5,330 228.943,330 231.057,333 233.5,333 234.983,333 234.338,326.919 236.5,328 238.139,328.82 236.364,330.772 236,331.5 235.02,333.459 235,334.342 235,335.5 235,335.5 230,339 230,339  Z"/>

<path  fill="#00F60E" stroke-width="0" stroke="#00F60E" d = " M259 338 C259,339.014 262.959,340 264,340 264,337.566 277,340.689 277,336.5 277,336.5 270.5,335 270.5,335 269.544,334.522 260.562,328 259.5,328 256.415,328 259,332.084 259,332.5 259,333.609 252.865,332.23 255,336.5 256.768,340.036 259,331.514 259,338  Z"/>

<path  fill="#00F60E" stroke-width="0" stroke="#00F60E" d = " M250 329 C250,332.807 255.395,329 250,329  Z"/>

<path  fill="#00F60E" stroke-width="0" stroke="#00F60E" d = " M240 340 L241,340 C241,340 242,334.5 242,334.5 240.419,331.337 236,336.093 236,338 236,338 240,340 240,340  Z"/>

<path  fill="#00F60E" stroke-width="0" stroke="#00F60E" d = " M249 339 L250,339 C250,339 251,338 251,338 251,336.213 247.359,330.783 246,333.5 246,333.5 249,339 249,339  Z"/>

<path  fill="#9953FF" stroke-width="0" stroke="#9953FF" d = " M220 339 L224,340 C224,339.086 220,336.754 220,339  Z"/>

<path  fill="#FF3427" stroke-width="0" stroke="#FF3427" d = " M240 341 C240,355.264 214,351.276 214,343 214,343 220,339 220,339 220,339 224,340 224,340 225.564,340 227.876,339 230,339 230,339 236,338 236,338 236,338 240,340 240,340 240,340 240,341 240,341  Z"/>

<path  fill="#9953FF" stroke-width="0" stroke="#9953FF" d = " M251 338 L250,339 C250,339 251,338 251,338  Z"/>

<path  fill="#FF3427" stroke-width="0" stroke="#FF3427" d = " M264 340 C267.526,340 272.954,342 274,342 274,350.621 255.799,355.097 250,343.5 250,343.5 247,340 247,340 247,340 249,339 249,339 249,339 250,339 250,339 250,339 251,338 251,338 251,338 259,338 259,338 259,339.014 262.959,340 264,340  Z"/>

<path  fill="#9953FF" stroke-width="0" stroke="#9953FF" d = " M241 340 L240,341 C240,341 240,340 240,340 240,340 241,340 241,340  Z"/>

</g>
</svg>
