<svg xmlns="http://www.w3.org/2000/svg" xmlns:xlink="http://www.w3.org/1999/xlink" height="512" width="512">
<g>
<rect width="512" height="512" fill="#000000"  stroke-width="0" /> 
<path  fill-rule="evenodd" fill="#86FF5A" stroke-width="0" stroke="#86FF5A" d = " M247 363 C247,367.215 241.949,363.276 240.5,364 237.2,365.65 241.075,373.788 243.5,375 249.672,378.086 251.105,363 247,363  M241 324 C241,327.474 236.176,325.162 234.5,326 229.19,328.655 218.361,329.569 213.5,332 204.4,336.55 200.906,353.688 197,361.5 192.193,371.114 201.016,394.532 205,402.5 206.191,404.882 207.845,403.173 209.5,404 211.392,404.946 211.712,409.606 214.5,411 215.962,411.731 218.074,410.787 220.5,412 224.249,413.875 233.138,419.181 239.5,416 L245.5,410 L251.5,416 C262.432,421.466 277.634,408.231 280,403.5 280.62,402.26 286.133,401.234 287,399.5 293.118,387.265 296.639,363.778 290,350.5 L287,347.5 C285.357,344.213 285.355,337.928 281.5,336 269.646,330.073 256.32,324 241,324  Z"/>

<path  fill="#EB57FF" stroke-width="0" stroke="#EB57FF" d = " M247 363 C247,367.215 241.949,363.276 240.5,364 237.2,365.65 241.075,373.788 243.5,375 249.672,378.086 251.105,363 247,363  Z"/>

</g>
</svg>
