<svg xmlns="http://www.w3.org/2000/svg" xmlns:xlink="http://www.w3.org/1999/xlink" height="512" width="512">
<g>
<rect width="512" height="512" fill="#000000"  stroke-width="0" /> 
<path  fill="#03C12D" stroke-width="0" stroke="#03C12D" d = " M318 137 C318,135.833 320.363,131.932 318.5,131 L311,130.5 L319,130 L326.5,126 L337,126 C345.828,126 352.234,130.367 359.5,134 368.113,138.306 379.908,135.704 388.5,140 L399.5,140 C401.29,140.895 402.903,143 405,143 405,143 406,141.5 406,141.5 406,141.5 402,139.5 402,139.5 400.575,136.649 396.887,129.694 393.5,128 391.973,127.236 386.815,126.131 386,124.5 383.882,120.264 378.103,120.707 377,118.5 377,118.5 377,115.5 377,115.5 376.987,115.474 368.012,110.256 365.5,109 365.5,109 359.5,101 359.5,101 356.787,99.6436 352.276,98.888 348.5,97 347.49,96.495 343.515,91.0076 341.5,90 341.5,90 335.5,91 335.5,91 335.5,91 330.5,85 330.5,85 323.85,81.675 303.419,80.5404 296.5,84 296.5,84 286,84.5 286,84.5 286,84.5 288,85.5 288,85.5 288,85.5 283.5,87 283.5,87 283.5,87 281.5,90 281.5,90 281.5,90 279.5,89 279.5,89 279.5,89 279,91.5 279,91.5 277.986,93.5272 277.231,94.9625 279,98.5 279,98.5 278,102.5 278,102.5 278,102.5 283,109.5 283,109.5 283.578,110.657 282.027,112.555 283,114.5 283.602,115.704 290,116.097 290,121 290,124.418 299.418,123.959 301.5,125 303.308,125.904 309.639,132.07 313.5,134 313.5,134 315,137 315,137 315,137 318,137 318,137  Z"/>

<path  fill="#03C12D" stroke-width="0" stroke="#03C12D" d = " M157 138 C159.32,138 165,137.334 165,141 166.078,141 173.934,136 178,136 178,136 179,135 179,135 179,135 180,135 180,135 180,135 181,134 181,134 181,134 186,129 186,129 186,127.252 188.283,126 190,126 190,126 193,124 193,124 193,124 194,123 194,123 196.041,123 197,122.041 197,120 197,120 204,113.5 204,113.5 206.509,108.482 208,103.546 208,98.5 208,96.4715 200.7,93.5998 199.5,93 196.644,91.572 193.228,91.364 190.5,90 190.5,90 188.5,86 188.5,86 185.618,84.5592 176.164,81.1681 172.5,83 165.751,86.3747 158.095,87.7025 151.5,91 151.5,91 135.5,100 135.5,100 135.5,100 117.5,116 117.5,116 111.258,119.121 101.469,124.562 98,131.5 95.7405,136.019 81,142.311 81,145 84.9922,145 92.4198,149.04 96.5,147 109.59,140.455 125.394,138.553 138.5,132 138.5,132 154.5,131 154.5,131 154.5,131 159,133.5 159,133.5 159,133.5 157,138 157,138  Z"/>

<path  fill="#DAAA3E" stroke-width="0" stroke="#DAAA3E" d = " M232 107 C232,107.627 222.573,110.645 227,119.5 232.166,129.831 242.237,128.132 250.5,124 252.007,123.246 256.125,123.25 257,121.5 258.019,119.462 263.715,110.108 259.5,108 L232,107  Z"/>

<path  fill="#EE2F2C" stroke-width="0" stroke="#EE2F2C" d = " M209 200 C204.102,200 205.478,203.511 200.5,206 L185.5,211 C176.559,215.47 167.063,206 160,206 160,203.793 157.103,202.707 156,200.5 153.837,196.175 157.05,164.401 159,160.5 159,160.5 163,158.5 163,158.5 164.696,155.109 165.323,150.854 167,147.5 167,147.5 170,146.5 170,146.5 170,146.5 170,142.5 170,142.5 171.137,140.225 178,139.572 178,136 178,136 179,135 179,135 179,135 180,135 180,135 180,135 181,134 181,134 181,134 186,129 186,129 187.717,129 190,127.748 190,126 190,126 193,124 193,124 193,124 194,123 194,123 196.041,123 197,122.041 197,120 205.536,120 210.613,116.056 220.5,121 220.5,121 224.5,121 224.5,121 224.5,121 227.5,125 227.5,125 229.592,126.046 232.097,127.695 233,129.5 234.974,133.448 241,133.6 241,139 241,139 241,145 241,145 241,151.168 226.68,172.139 223,179.5 223,179.5 213,189.5 213,189.5 213,189.5 211,197.5 211,197.5 211,197.5 209,200 209,200  Z"/>

<path  fill="#EE2F2C" stroke-width="0" stroke="#EE2F2C" d = " M278 196 C283.932,196 289.125,206.312 294.5,209 295.962,209.731 297.936,209.218 299.5,210 311.231,215.866 324.616,200 331,200 331,196.628 334,193.947 334,190 334,186.534 335.162,167 332,167 332,167 331,166 331,166 331,166 330,163 330,163 327.359,163 328,161.177 328,159 328,154.612 323,150.678 323,147 320.632,147 315,138.407 315,137 315,137 313.5,134 313.5,134 309.639,132.07 303.308,125.904 301.5,125 299.418,123.959 290,124.418 290,121 272.736,121 279.726,119.387 264.5,127 262.644,127.928 254.166,138 253,138 253,140.425 251,142.794 251,145 251,145 255,150.5 255,150.5 255,150.5 254,153.5 254,153.5 254,154.28 259.229,164.958 260,166.5 263.18,172.859 278,190.291 278,196  Z"/>

<path  fill="#89D355" stroke-width="0" stroke="#89D355" d = " M395 161 C401.476,161 407.166,173.333 412.5,176 L419,180.5 C420.296,183.093 422.326,189 426,189 426,182.046 426.279,177.058 423,170.5 423,170.5 418,166.5 418,166.5 416.708,163.916 417.336,160.173 416,157.5 413.979,153.458 408,149.746 408,145 408,145 406,144 406,144 406,144 405,143 405,143 402.903,143 401.29,140.895 399.5,140 399.5,140 388.5,140 388.5,140 379.908,135.704 368.113,138.306 359.5,134 352.234,130.367 345.828,126 337,126 337,126 326.5,126 326.5,126 326.5,126 319,130 319,130 319,130 311,130.5 311,130.5 311,130.5 318.5,131 318.5,131 320.363,131.932 318,135.833 318,137 318,137 320,139 320,139 321.701,139 338.28,140.39 339.5,141 339.5,141 350,153 350,153 350,153 351,154 351,154 358.036,154 361.241,153.37 366.5,156 366.646,156.073 375.122,153.811 379.5,156 381.155,156.828 391,157.031 391,159 391,159 395,161 395,161  Z"/>

<path  fill="#89D355" stroke-width="0" stroke="#89D355" d = " M135 158 C122.51,158 95.6472,162.426 84.5,168 L64,188.5 C61.4694,193.561 59.147,200.177 53.5,203 L49,202 C49,196.39 52.6896,194.121 55,189.5 55,189.5 55,185.5 55,185.5 55,185.5 64,171.5 64,171.5 66.4157,166.669 66.5807,160.339 69,155.5 70.3857,152.729 77.6918,145 81,145 84.9922,145 92.4198,149.04 96.5,147 109.59,140.455 125.394,138.553 138.5,132 138.5,132 154.5,131 154.5,131 154.5,131 159,133.5 159,133.5 159,133.5 157,138 157,138 137.837,138 149.292,157 136,157 136,157 135,158 135,158  Z"/>

<path  fill="#DDD951" stroke-width="0" stroke="#DDD951" d = " M128 213 C128,215.915 131,217.651 131,219 136.881,219 138.662,216.176 141,211.5 141,211.5 145,207.5 145,207.5 146.569,204.362 147.361,200.777 149,197.5 150.446,194.608 149.51,190.481 151,187.5 152.949,183.603 149.619,171.262 153,164.5 156.575,157.349 165,149.414 165,141 165,137.334 159.32,138 157,138 137.837,138 149.292,157 136,157 136,157 135,158 135,158 135,165.457 134,174.659 134,183 134,185.618 136.514,190.472 135,193.5 132.253,198.994 128,204.388 128,211 128,211 128,213 128,213  Z"/>

<path  fill="#93FF27" stroke-width="0" stroke="#93FF27" d = " M241 145 L246.5,151 C249.44,151 246.984,145 251,145 251,142.794 253,140.425 253,138 250.73,138 249.373,140.064 247.5,141 245.693,141.904 243.22,139 241,139 241,139 241,145 241,145  Z"/>

<path  fill="#DDD951" stroke-width="0" stroke="#DDD951" d = " M349 192 L352,200.5 L351,209 C342.125,209 342.74,205.98 339,198.5 339,198.5 334,190 334,190 334,186.534 335.162,167 332,167 332,167 331,166 331,166 331,166 330,163 330,163 330,163 328,159 328,159 328,154.612 323,150.678 323,147 323,144.341 320,143.685 320,139 321.701,139 338.28,140.39 339.5,141 339.5,141 350,153 350,153 350,153 350,155 350,155 350,164.355 348.808,169.884 345,177.5 344.045,179.41 349,186.812 349,189 347.514,189 347.514,192 349,192  Z"/>

<path  fill-rule="evenodd" fill="#07FF59" stroke-width="0" stroke="#07FF59" d = " M245 170 C245,170.676 240.825,171.85 240,173.5 236.869,179.763 234.122,186.257 231,192.5 230.036,194.427 231.272,198.045 232,199.5 L230,202.5 C230,206.79 236.227,209.955 238,213.5 L244,218.5 C244,218.703 242.342,221 244.5,221 L246.5,217 C247.747,216.376 258,208.597 258,206.5 258,201.059 260,195.081 260,188.5 260,185.112 248.795,170 245,170  M278 196 C278,198.649 281.224,200.947 282,202.5 283.713,205.926 278.832,219.835 277,223.5 274.393,228.713 263.588,232.456 258.5,235 L253.5,240 C252.112,240 249.528,237.986 247.5,239 L244.5,245 C243.708,245 240.325,238.912 238.5,238 234.783,236.141 229.24,236.87 225.5,235 L221.5,230 C210.988,230 209,208.095 209,200 209,200 211,197.5 211,197.5 211,197.5 213,189.5 213,189.5 213,189.5 223,179.5 223,179.5 226.68,172.139 241,151.168 241,145 241,145 246.5,151 246.5,151 249.44,151 246.984,145 251,145 251,145 255,150.5 255,150.5 255,150.5 254,153.5 254,153.5 254,154.28 259.229,164.958 260,166.5 263.18,172.859 278,190.291 278,196  Z"/>

<path  fill="#03C12D" stroke-width="0" stroke="#03C12D" d = " M406 144 L408,145 C408,145 406,144 406,144  Z"/>

<path  fill="#FFBB0D" stroke-width="0" stroke="#FFBB0D" d = " M432 251 L428,247.5 L413.5,237 L408,247.5 C405.904,251.693 393.266,258 388,258 383.765,258 376.152,258.804 374,254.5 372.292,251.083 375.208,245.915 374,243.5 374,243.5 367,239.5 367,239.5 363.736,232.973 361.258,226.016 358,219.5 358,219.5 351,215.5 351,215.5 349.875,213.25 351,211.013 351,209 351,209 352,200.5 352,200.5 352,200.5 349,192 349,192 349,192 349,189 349,189 349,186.812 344.045,179.41 345,177.5 348.808,169.884 350,164.355 350,155 350,155 351,154 351,154 358.036,154 361.241,153.37 366.5,156 366.646,156.073 375.122,153.811 379.5,156 381.155,156.828 391,157.031 391,159 391,161.109 393.535,161 395,161 401.476,161 407.166,173.333 412.5,176 412.5,176 419,180.5 419,180.5 420.296,183.093 422.326,189 426,189 430.323,189 439.489,197.522 437,202.5 437,202.5 432,211.5 432,211.5 432,211.5 428,215.5 428,215.5 428,220.784 436,226.214 436,231 436,234.848 436.881,251 432,251  Z"/>

<path  fill="#FFBB0D" stroke-width="0" stroke="#FFBB0D" d = " M52 251 C55.7052,251 72.2983,241.899 72.5,242 79.8724,245.686 83.7846,257.642 94.5,263 L97,267 C97,267 99.5,268 99.5,268 99.6665,267.917 111.979,257.542 112,257.5 112,257.5 112,250.5 112,250.5 112,250.5 121,241.5 121,241.5 122.35,238.801 121.712,235.076 123,232.5 126.064,226.371 131.461,227.579 134,222.5 134,222.5 131,219 131,219 131,217.651 128,215.915 128,213 126.601,213 126.601,211 128,211 128,204.388 132.253,198.994 135,193.5 136.514,190.472 134,185.618 134,183 134,174.659 135,165.457 135,158 122.51,158 95.6472,162.426 84.5,168 84.5,168 64,188.5 64,188.5 61.4694,193.561 59.147,200.177 53.5,203 53.5,203 49,202 49,202 44.415,202 45.711,209.922 47,212.5 48.2444,214.989 56.7044,217.091 55,220.5 53.7497,223.001 54.1712,226.158 53,228.5 53,228.5 47,235.5 47,235.5 44.712,240.076 46.8511,251 52,251  Z"/>

<path  fill="#03C12D" stroke-width="0" stroke="#03C12D" d = " M391 159 L395,161 C393.535,161 391,161.109 391,159  Z"/>

<path  fill="#022CFF" stroke-width="0" stroke="#022CFF" d = " M245 170 C245,170.676 240.825,171.85 240,173.5 236.869,179.763 234.122,186.257 231,192.5 230.036,194.427 231.272,198.045 232,199.5 L230,202.5 C230,206.79 236.227,209.955 238,213.5 L244,218.5 C244,218.703 242.342,221 244.5,221 L246.5,217 C247.747,216.376 258,208.597 258,206.5 258,201.059 260,195.081 260,188.5 260,185.112 248.795,170 245,170  Z"/>

<path  fill="#9953FF" stroke-width="0" stroke="#9953FF" d = " M230 320 C234.985,320 238.298,315 242.5,315 247.272,315 251.143,321 257,321 257,318.433 259,317.087 259,316 253.101,316 260,309.835 260,314 262.739,314 267.382,311.941 269.5,313 269.5,313 271.5,315 271.5,315 277.605,315 274.215,306.715 281.5,314 281.5,314 283,317 283,317 284.987,317 290.608,314 293.5,314 297.006,314 296.645,319 300,319 300,319 304,317 304,317 304,313.279 310.109,301.283 312,297.5 312,297.5 320,290.5 320,290.5 321.682,287.135 321.43,284.07 324.5,281 324.5,281 331,271 331,271 331,268.742 330.719,241.062 331,240.5 331.612,239.276 335.284,235.068 334,232.5 331.275,227.05 325.282,214.935 329,207.5 330.263,204.973 331,203.108 331,200 324.616,200 311.231,215.866 299.5,210 297.936,209.218 295.962,209.731 294.5,209 289.125,206.312 283.932,196 278,196 278,198.649 281.224,200.947 282,202.5 283.713,205.926 278.832,219.835 277,223.5 274.393,228.713 263.588,232.456 258.5,235 258.5,235 253.5,240 253.5,240 252.112,240 249.528,237.986 247.5,239 247.5,239 244.5,245 244.5,245 243.708,245 240.325,238.912 238.5,238 234.783,236.141 229.24,236.87 225.5,235 225.5,235 221.5,230 221.5,230 210.988,230 209,208.095 209,200 204.102,200 205.478,203.511 200.5,206 200.5,206 185.5,211 185.5,211 176.559,215.47 167.063,206 160,206 158.844,206 158.528,208.555 159,209.5 160.697,212.893 161.91,218.68 160,222.5 154.542,233.415 157,239.369 157,252 157,254.824 154.384,260.268 156,263.5 157.07,265.64 158,267.387 158,270 158,275.95 164.892,279.283 167,283.5 170.713,290.927 181,302.436 181,312 184.229,312 182.142,316 186,316 186,312.091 193.899,308.199 197.5,310 197.5,310 201,313 201,313 201,310.989 206.27,305.885 208.5,307 208.5,307 211.5,312 211.5,312 214.538,312 217.956,311 222,311 222,306.155 234.249,315 229,315 229,315 230,320 230,320  Z"/>

<path  fill="#41FF27" stroke-width="0" stroke="#41FF27" d = " M432 251 C432,256.637 426.863,254.775 425,258.5 419.006,270.488 402.51,265 392,265 L390.5,267 C389.049,267 388,259.626 388,258 393.266,258 405.904,251.693 408,247.5 408,247.5 413.5,237 413.5,237 413.5,237 428,247.5 428,247.5 428,247.5 432,251 432,251  Z"/>

<path  fill="#41FF27" stroke-width="0" stroke="#41FF27" d = " M52 251 C55.7052,251 72.2983,241.899 72.5,242 79.8724,245.686 83.7846,257.642 94.5,263 L97,267 C97,268.288 95.0337,276 93.5,276 93.5,276 92.5,274 92.5,274 92.5,274 84.5,274 84.5,274 77.115,270.307 54.3431,266.186 51,259.5 49.7162,256.932 52,253.014 52,251  Z"/>

<path  fill="#86CC4C" stroke-width="0" stroke="#86CC4C" d = " M181 312 C181,314.96 178.601,316 176,316 169.559,316 167.013,300 164,300 164,300 163,298 163,298 163,298 162,297 162,297 162,297 159,292 159,292 159,292 158,291 158,291 158,291 155,285 155,285 155,285 152,281 152,281 152,281 148,276 148,276 148,263.631 154.081,270 158,270 158,275.95 164.892,279.283 167,283.5 170.713,290.927 181,302.436 181,312  Z"/>

<path  fill="#86CC4C" stroke-width="0" stroke="#86CC4C" d = " M315 315 L316,315 C316,315 318,314 318,314 318,312.762 318.423,311 320,311 320,305.079 325,301.378 325,297 325,297 327,296 327,296 327,296 332,287 332,287 332,287 333,286 333,286 333,281.481 342,278.756 342,275 342,261.629 332.872,271 331,271 331,271 324.5,281 324.5,281 321.43,284.07 321.682,287.135 320,290.5 320,290.5 312,297.5 312,297.5 310.109,301.283 304,313.279 304,317 308.116,317 310.343,315 314,315 314,315 315,315 315,315  Z"/>

<path  fill="#FA8072" stroke-width="0" stroke="#FA8072" d = " M321 321 C321,319.814 322,319.814 322,321 322,321 324.5,320 324.5,320 326.224,320.862 324.747,323.876 326.5,323 326.5,323 327.5,320 327.5,320 329.235,318.265 330.656,319.922 332.5,319 333.498,318.501 344.964,301.572 346,299.5 346,299.5 350,296.5 350,296.5 353.579,289.343 357.378,277.939 347.5,273 344.561,271.53 343.284,275 342,275 342,278.756 333,281.481 333,286 333,286 332,287 332,287 332,287 327,296 327,296 327,296 325,297 325,297 325,301.378 320,305.079 320,311 320,313.003 320.293,314 318,314 318,314 316,315 316,315 316,315 315,315 315,315 315,316.058 314,318.029 314,316 314,316 312,319 312,319 312,319 314.5,323 314.5,323 314.5,323 321,321 321,321  Z"/>

<path  fill="#FA8072" stroke-width="0" stroke="#FA8072" d = " M163 298 L164,300 C164,305.158 172.246,311.008 169,317.5 167.642,320.216 154.793,323.086 153,319.5 150.589,314.678 145,309.869 145,305.5 145,305.5 140,301.5 140,301.5 136.746,294.993 133.751,278.374 142.5,274 142.5,274 148,276 148,276 148,276 152,281 152,281 152,281 155,285 155,285 155,285 158,291 158,291 158,291 159,292 159,292 159,292 162,297 162,297 162,297 163,298 163,298  Z"/>

<path  fill="#FF3427" stroke-width="0" stroke="#FF3427" d = " M229 315 L230,320 C230,325.443 221.432,325 218,325 215.405,325 211.838,321.169 209.5,320 209.5,320 204.5,321 204.5,321 201.862,319.681 201,315.539 201,313 201,310.989 206.27,305.885 208.5,307 208.5,307 211.5,312 211.5,312 214.538,312 217.956,311 222,311 222,314.913 229,311.087 229,315  Z"/>

<path  fill="#00D70B" stroke-width="0" stroke="#00D70B" d = " M222 311 C222,314.913 229,311.087 229,315 234.249,315 222,306.155 222,311  Z"/>

<path  fill="#00D70B" stroke-width="0" stroke="#00D70B" d = " M190 323 L191,324 C191,326.314 192.331,323.163 193,324.5 198.295,335.089 209.101,336.801 219.5,342 223.52,344.01 237.873,334.313 242.5,332 244.152,331.174 252.638,337.069 254.5,338 254.5,338 259.5,338 259.5,338 269.509,343.005 288.973,336.554 293,328.5 293,328.5 300,319 300,319 296.645,319 297.006,314 293.5,314 290.608,314 284.987,317 283,317 283,322.336 267.636,328.068 263.5,326 261.968,325.234 257.978,321 257,321 251.143,321 247.272,315 242.5,315 238.298,315 234.985,320 230,320 230,325.443 221.432,325 218,325 215.405,325 211.838,321.169 209.5,320 209.5,320 204.5,321 204.5,321 201.862,319.681 201,315.539 201,313 201,313 197.5,310 197.5,310 193.899,308.199 186,312.091 186,316 186,316 186,317 186,317 186,317 187,318 187,318 187,319.054 190,320.931 190,323  Z"/>

<path  fill="#FF3427" stroke-width="0" stroke="#FF3427" d = " M283 317 C283,322.336 267.636,328.068 263.5,326 261.968,325.234 257.978,321 257,321 257,318.433 259,317.087 259,316 259,316 259,315 259,315 259,315 260,314 260,314 262.739,314 267.382,311.941 269.5,313 269.5,313 271.5,315 271.5,315 277.605,315 274.215,306.715 281.5,314 281.5,314 283,317 283,317  Z"/>

<path  fill="#80AAFF" stroke-width="0" stroke="#80AAFF" d = " M190 323 L191,324 C191,326.314 192.331,323.163 193,324.5 198.295,335.089 209.101,336.801 219.5,342 223.52,344.01 237.873,334.313 242.5,332 244.152,331.174 252.638,337.069 254.5,338 254.5,338 259.5,338 259.5,338 269.509,343.005 288.973,336.554 293,328.5 293,328.5 300,319 300,319 300,319 304,317 304,317 308.116,317 310.343,315 314,315 314,315 314,316 314,316 314,316 312,319 312,319 312,319 303.5,327 303.5,327 296.954,333.546 291.556,338.972 283.5,343 273.774,347.863 258.811,346.656 249.5,342 242.595,338.547 225.548,350.524 218.5,347 218.5,347 203.5,342 203.5,342 203.5,342 196.5,335 196.5,335 189.168,331.334 176,325.906 176,316 178.601,316 181,314.96 181,312 184.229,312 182.142,316 186,316 186,316 186,317 186,317 186,317 187,318 187,318 187,319.054 190,320.931 190,323  Z"/>

<path  fill="#00D70B" stroke-width="0" stroke="#00D70B" d = " M259 315 L259,316 C253.101,316 260,309.835 260,314 260,314 259,315 259,315  Z"/>

<path  fill="#9953FF" stroke-width="0" stroke="#9953FF" d = " M260 314 L259,315 C259,315 260,314 260,314  Z"/>

<path  fill="#9953FF" stroke-width="0" stroke="#9953FF" d = " M186 317 L187,318 C187,318 186,317 186,317  Z"/>

<path  fill="#9953FF" stroke-width="0" stroke="#9953FF" d = " M321 321 L322,321 C322,319.814 321,319.814 321,321  Z"/>

<path  fill="#9953FF" stroke-width="0" stroke="#9953FF" d = " M190 323 L191,324 C191,324 190,323 190,323  Z"/>

</g>
</svg>
