<svg xmlns="http://www.w3.org/2000/svg" xmlns:xlink="http://www.w3.org/1999/xlink" height="512" width="512">
<g>
<rect width="512" height="512" fill="#000000"  stroke-width="0" /> 
<path  fill="#03C12D" stroke-width="0" stroke="#03C12D" d = " M141 324 L139,324.5 C139,330.536 143.942,330.779 135.5,335 L132.5,336 C127.045,333.272 124,328.75 118.5,326 111.774,322.637 104.236,320.368 97.5,317 92.7247,314.612 86.2899,300.08 84,295.5 L84,290.5 L73,273.5 C69.2858,266.072 70.7163,255.933 67,248.5 65.8562,246.212 69,246.3 69,245.5 69,243.767 62.7308,241.038 65,236.5 L67.5,236 C70.1049,234.698 69.969,231.562 71,229.5 72.8564,225.787 66.424,219.348 65,216.5 63.2472,212.994 67.6356,211.229 68,210.5 69.3969,207.706 65.4971,205.506 66,204.5 L68,204.5 L66,202.5 L67,183.5 C69.1051,179.29 67.9381,173.624 70,169.5 71.3279,166.844 74.9738,164.552 76,162.5 76.5912,161.318 75.016,158.468 76,156.5 78.5844,151.331 84.5566,146.387 87,141.5 88.3847,138.731 93.1231,129.188 95.5,128 106.566,122.467 117.467,116.516 128.5,111 131.57,109.465 135.329,109.586 138.5,108 L142.5,110 C142.906,109.797 144.879,106.311 147.5,105 L155.5,105 C162.534,101.483 171.58,102.46 178.5,99 189.735,93.3825 199.2,96 211.5,96 213.103,96 216.268,93.8839 218.5,95 222.974,97.2368 229.132,95.8159 233.5,98 L240.5,105 L244.5,99 C249.058,96.7208 253.851,95.3246 258.5,93 L273.5,93 C279.053,90.2233 303.617,93.0585 309.5,96 L313.5,95 C318.307,97.4036 321.787,101.643 326.5,104 328.781,105.141 340.242,102.371 343.5,104 348.608,106.554 352.394,108 357.5,108 357.965,108 369.083,114.291 370.5,115 374.173,116.836 378.775,118.138 382.5,120 L386.5,126 L394,130.5 C394,131.151 391.802,132.151 393.5,133 L398.5,134 C402.386,135.943 412.406,151.311 415,156.5 420.1,166.701 419.911,179.321 425,189.5 427.266,194.033 423.063,200.625 425,204.5 426.396,207.291 427.618,209.736 429,212.5 L426,216.5 C424.793,218.914 427.107,222.714 428,224.5 429.904,228.307 426,232.566 426,236 426,237.761 424.209,258.082 423,260.5 420.179,266.142 414.153,271.194 411,277.5 409.767,279.966 412.729,285.043 412,286.5 411.033,288.435 405,289.054 405,291.5 L408,296.5 C408.673,297.846 402.041,310.229 400.5,311 387.873,317.314 376.172,326.664 363.5,333 359.67,334.915 349,333.815 349,328 350.361,328 351.379,321.742 352,320.5 352,320.5 355,317.5 355,317.5 357.72,312.06 357.308,304.883 360,299.5 360,299.5 363,295.5 363,295.5 363,295.5 354,287 354,287 354,287 354,286 354,286 355.712,286 357,283.429 357,282 358.746,282 365,272.587 365,271 366.266,271 375,255.159 375,253 376.473,253 376,251.048 376,250 376,250 376,249 376,249 376,249 376,248 376,248 376,248 377,247 377,247 377,247 378.5,248 378.5,248 378.5,248 380,242.5 380,242.5 380,242.5 383,238.5 383,238.5 383,238.5 382,235.5 382,235.5 382,235.5 384,235.5 384,235.5 386.567,230.367 381,224.78 381,220.5 381,205.418 370.75,194.001 364,180.5 362.905,178.31 356,176.674 356,175.5 356,170.65 343.331,165.416 338.5,163 338.5,163 335.5,160 335.5,160 335.5,160 330.5,160 330.5,160 327.016,158.258 324.054,156.777 320.5,155 320.5,155 313.5,155 313.5,155 304.531,150.516 293.304,150.902 283.5,146 279.346,143.923 276.76,149 275,149 275,142.486 249,135.743 249,130 249,127.588 242,125.246 242,129 238.558,129 235.718,133 234,133 234,133 233,134 233,134 233,134 209,149 209,149 190.305,149 159.921,158.289 144.5,166 144.5,166 127.5,183 127.5,183 127.5,183 124.5,183 124.5,183 123.479,183.51 126.553,186 124,186 124,186 123,187 123,187 123,187 120,189.5 120,189.5 120,189.5 120,194.5 120,194.5 117.782,198.936 115.254,202.992 113,207.5 110.601,212.298 110,223.228 110,227.5 110,229.117 107.713,232.927 108,233.5 108,233.5 110,235.5 110,235.5 110,235.5 110,247.5 110,247.5 110,247.5 114,251.5 114,251.5 115.218,253.935 114,256.602 114,258.5 114,258.5 120,266 120,266 120,266 121,267 121,267 121,269.447 123,270.28 123,273 123,273 126,276 126,276 126,277.951 131.508,286 134,286 134,288.268 137.29,289.921 136,292.5 136,292.5 132,293.5 132,293.5 132,293.5 134,298.5 134,298.5 134,298.5 134,303.5 134,303.5 136.465,308.43 135.623,314.747 138,319.5 138,319.5 141,324 141,324  Z"/>

<path  fill="#1D68EB" stroke-width="0" stroke="#1D68EB" d = " M238 174 L240,172.5 L242.5,167 C243.931,166.285 250,173.298 250,174 255.05,174 261.177,171 263,171 263,171 265,170 265,170 265,166.23 270.81,163.881 272,161.5 272,161.5 273,152.5 273,152.5 273,152.5 275,149 275,149 275,142.486 249,135.743 249,130 249,130 242,129 242,129 238.558,129 235.718,133 234,133 234,133 233,134 233,134 233,134 209,149 209,149 209,156.353 222.013,174 230,174 230,172.601 232,172.601 232,174 232,174 238,174 238,174  Z"/>

<path  fill="#FF6E00" stroke-width="0" stroke="#FF6E00" d = " M120 265 L120,266 C120,266 114,258.5 114,258.5 114,256.602 115.218,253.935 114,251.5 114,251.5 110,247.5 110,247.5 110,247.5 110,235.5 110,235.5 110,235.5 108,233.5 108,233.5 107.713,232.927 110,229.117 110,227.5 110,223.228 110.601,212.298 113,207.5 115.254,202.992 117.782,198.936 120,194.5 120,194.5 120,189.5 120,189.5 120,189.5 123,187 123,187 123,187 124,186 124,186 126.553,186 123.479,183.51 124.5,183 124.5,183 127.5,183 127.5,183 127.5,183 144.5,166 144.5,166 159.921,158.289 190.305,149 209,149 209,156.353 222.013,174 230,174 230,174 232,174 232,174 232,174 238,174 238,174 238,174 250,174 250,174 255.05,174 261.177,171 263,171 263,171 265,170 265,170 265,166.23 270.81,163.881 272,161.5 272,161.5 273,152.5 273,152.5 273,152.5 275,149 275,149 276.76,149 279.346,143.923 283.5,146 293.304,150.902 304.531,150.516 313.5,155 313.5,155 320.5,155 320.5,155 324.054,156.777 327.016,158.258 330.5,160 330.5,160 335.5,160 335.5,160 335.5,160 338.5,163 338.5,163 343.331,165.416 356,170.65 356,175.5 356,176.674 362.905,178.31 364,180.5 370.75,194.001 381,205.418 381,220.5 381,224.78 386.567,230.367 384,235.5 384,235.5 382,235.5 382,235.5 382,235.5 383,238.5 383,238.5 383,238.5 380,242.5 380,242.5 380,242.5 378.5,248 378.5,248 378.5,248 377,247 377,247 377,225.874 379.232,222.965 370,204.5 370,204.5 370,199.5 370,199.5 370,199.5 366,196.5 366,196.5 364.704,193.909 361.794,185 358,185 358,185 356,183 356,183 356,180.156 350.676,180.852 349,177.5 345.364,170.228 317.783,166 309,166 309,164.601 307,164.601 307,166 305.912,166 299,164.539 299,168 299,168 298,169 298,169 298,169 296,169 296,169 294.436,169 292.124,170 290,170 290,170 287,172 287,172 287,172 285,173 285,173 285,173 284,173 284,173 280.682,173 268,179.652 268,183 263.944,183 248.134,187.183 244.5,189 241.439,190.531 230.39,185 229.5,185 228.889,185 224,187.759 224,185 224,182.271 218.993,183.746 217.5,183 213.139,180.82 210.227,175 205,175 205,175 205,174 205,174 205,172.527 203.048,173 202,173 202,170.34 192.334,170.917 190.5,170 180.986,165.243 168.659,166.42 159.5,171 156.663,172.419 152.393,171.554 149.5,173 149.5,173 147.5,176 147.5,176 143.925,177.787 133.974,179.553 132,183.5 129.655,188.189 128.32,192.59 123.5,195 121.176,196.162 122.362,206 120,206 120,206 119,207 119,207 118.325,207 117,212.294 117,213 117,213 116,214 116,214 114.814,214 114.814,215 116,215 116,215 116,220 116,220 116,220 115,221 115,221 113.601,221 113.601,223 115,223 115,223 115,224 115,224 111.837,224 113,231.871 113,234 113,240.795 113.177,247.855 116,253.5 116.567,254.634 116.546,260 118,260 118,260 119,262 119,262 119,262 120,265 120,265  Z"/>

<path  fill="#814FFF" stroke-width="0" stroke="#814FFF" d = " M354 286 L353,287 C353,287 346.5,291 346.5,291 344.058,292.221 342.485,290.007 340.5,291 340.5,291 337.5,295 337.5,295 337.5,295 336,294.5 336,294.5 335.776,294.947 333.899,307.699 330.5,306 327.725,304.612 310.82,295.14 310,293.5 307.289,288.077 303.869,278 296,278 296,274.374 292.74,275 290,275 290,272.636 287,271.947 287,270 287,270 287,269 287,269 288.401,269 286.489,264 284,264 284,264 282,264 282,264 282,261.411 285,258.983 285,258.5 285,258.5 281,255.5 281,255.5 281,255.5 281,251 281,251 281,243.087 285.875,210.251 283,204.5 282.214,202.928 277.57,187.36 278,186.5 278,186.5 280,185 280,185 280,185 280,183 280,183 280,181.952 279.527,180 281,180 281,180 282,178 282,178 282,175.991 284,175.009 284,173 284,173 285,173 285,173 285,173 287,172 287,172 287,172 290,170 290,170 290,171.547 296,172.024 296,169 296,169 298,169 298,169 298,169 299,168 299,168 299,164.539 305.912,166 307,166 307,166 309,166 309,166 317.783,166 345.364,170.228 349,177.5 350.676,180.852 356,180.156 356,183 356,183 358,185 358,185 361.794,185 364.704,193.909 366,196.5 366,196.5 370,199.5 370,199.5 370,199.5 370,204.5 370,204.5 379.232,222.965 377,225.874 377,247 377,247 376,248 376,248 376,248 376,249 376,249 376,249 375,250 375,250 375,250 374,252 374,252 374,252 371,255.5 371,255.5 369.164,259.173 365,266.932 365,271 361.886,271 357,278.548 357,282 355.288,282 354,284.571 354,286  Z"/>

<path  fill="#814FFF" stroke-width="0" stroke="#814FFF" d = " M135 286 L141.5,293 C144.763,294.632 146.331,292.915 148.5,294 151.578,295.539 152.432,301.966 154.5,303 156.663,304.081 162.623,306.438 165.5,305 L167.5,303 C169.201,303 170.462,304.577 172,301.5 173.358,298.785 173.673,295.155 175,292.5 L179,287 C179,284.359 180.823,285 183,285 183,285 183,284 183,284 179.823,284 181.921,283 184,283 184,283 194.5,274 194.5,274 196.53,272.985 206.267,260.967 207,259.5 207,259.5 206,253 206,253 206,253 205,226 205,226 203.316,226 204,221.321 204,220 204,218.181 205,215.409 205,213 205,211.594 204.286,206 206,206 206,206 206,204 206,204 206,204 207,202 207,202 207,202 208,201 208,201 208,201 208,198 208,198 208,195.293 209,192.097 209,190 209,185.159 204,181.692 204,177 202.527,177 203,175.048 203,174 203,174 202,173 202,173 202,170.34 192.334,170.917 190.5,170 180.986,165.243 168.659,166.42 159.5,171 156.663,172.419 152.393,171.554 149.5,173 149.5,173 147.5,176 147.5,176 143.925,177.787 133.974,179.553 132,183.5 129.655,188.189 128.32,192.59 123.5,195 121.176,196.162 122.362,206 120,206 120,206 119,207 119,207 118.325,207 117,212.294 117,213 117,213 116,214 116,214 116,214 116,215 116,215 116,215 116,220 116,220 116,220 115,221 115,221 115,221 115,223 115,223 115,223 115,224 115,224 115,225.249 113.926,234 113,234 113,240.795 113.177,247.855 116,253.5 116.567,254.634 116.546,260 118,260 118,260 119,262 119,262 119,262 120,265 120,265 120,265 121,267 121,267 121,269.447 123,270.28 123,273 125.177,273 127,272.359 127,275 129.665,275 129.255,280.01 130,281.5 130,281.5 135,286 135,286  Z"/>

<path  fill="#022CFF" stroke-width="0" stroke="#022CFF" d = " M203 174 L205,174 C205,172.527 203.048,173 202,173 202,173 203,174 203,174  Z"/>

<path  fill="#022CFF" stroke-width="0" stroke="#022CFF" d = " M279 250 L281,251 C281,243.087 285.875,210.251 283,204.5 282.214,202.928 277.57,187.36 278,186.5 278,186.5 280,185 280,185 278.601,185 278.601,183 280,183 280,181.952 279.527,180 281,180 281,180 282,178 282,178 282,175.991 284,175.009 284,173 280.682,173 268,179.652 268,183 275.749,183 275.923,194.346 278,198.5 284.133,210.765 279,231.464 279,245 279,245 279,250 279,250  Z"/>

<path  fill="#022CFF" stroke-width="0" stroke="#022CFF" d = " M208 251 C208,252.747 207.747,253 206,253 206,253 205,226 205,226 205,224.679 205.684,220 204,220 204,218.181 205,215.409 205,213 206.714,213 206,207.406 206,206 207.399,206 207.399,204 206,204 206,204 207,202 207,202 207,202 208,201 208,201 208,201 208,198 208,198 208.961,198 211.32,190 209,190 209,185.159 204,181.692 204,177 204,177 205,175 205,175 210.227,175 213.139,180.82 217.5,183 218.993,183.746 224,182.271 224,185 203.28,185 208,230.167 208,245 208,245 208,251 208,251  Z"/>

<path  fill="#FF0800" stroke-width="0" stroke="#FF0800" d = " M210 250 C210,252.357 215.715,258.108 217.5,259 L220.5,258 L223.5,262 L230.5,264 C233.743,265.621 265.241,260.63 268.5,259 269.438,258.531 275.795,253.911 276,253.5 L275,251.5 L277,250 C277,248.959 277.986,245 279,245 279,231.464 284.133,210.765 278,198.5 275.923,194.346 275.749,183 268,183 263.944,183 248.134,187.183 244.5,189 241.439,190.531 230.39,185 229.5,185 228.889,185 224,187.759 224,185 203.28,185 208,230.167 208,245 209.638,245 210,248.576 210,250  Z"/>

<path  fill-rule="evenodd" fill="#E1F00D" stroke-width="0" stroke="#E1F00D" d = " M147 297 C147,298.93 148.93,297 147,297  M141 324 C141,326.076 140.942,335.384 142,337.5 L149.5,339 C151.844,340.172 152.505,344.503 155.5,346 167.693,352.096 188.055,350.723 199.5,345 210.266,339.617 204.352,329.796 206,326.5 207.352,323.797 209.584,325.958 211.5,325 L221.5,319 C228.025,315.737 231.412,308.044 237.5,305 L241.5,299 C248.14,299 251.146,307.323 256.5,310 260.934,312.217 264.997,315.748 269.5,318 L275,319.5 L276,328.5 C279.959,336.418 291.415,340.458 298.5,344 303.331,346.415 323.224,342.138 327.5,340 328.018,339.741 333.267,348.617 338.5,346 348.932,340.784 334.662,328 349,328 350.361,328 351.379,321.742 352,320.5 352,320.5 355,317.5 355,317.5 357.72,312.06 357.308,304.883 360,299.5 360,299.5 363,295.5 363,295.5 363,295.5 354,287 354,287 354,287 353,287 353,287 353,287 346.5,291 346.5,291 344.058,292.221 342.485,290.007 340.5,291 340.5,291 337.5,295 337.5,295 337.5,295 336,294.5 336,294.5 335.776,294.947 333.899,307.699 330.5,306 327.725,304.612 310.82,295.14 310,293.5 307.289,288.077 303.869,278 296,278 296,282.302 292.329,277 288,277 288,283.381 268.816,273.132 268,271.5 264.211,263.923 273.572,264.928 276,262.5 276,262.5 282,264 282,264 282,261.411 285,258.983 285,258.5 285,258.5 281,255.5 281,255.5 281,255.5 281,251 281,251 281,251 279,250 279,250 279,250 277,250 277,250 277,250 275,251.5 275,251.5 275,251.5 276,253.5 276,253.5 275.795,253.911 269.438,258.531 268.5,259 265.241,260.63 233.743,265.621 230.5,264 230.5,264 223.5,262 223.5,262 223.5,262 220.5,258 220.5,258 220.5,258 217.5,259 217.5,259 215.715,258.108 210,252.357 210,250 210,250 208,251 208,251 208,252.747 207.747,253 206,253 206,253 207,259.5 207,259.5 206.267,260.967 196.53,272.985 194.5,274 194.5,274 184,283 184,283 186.029,283 184.058,284 183,284 183,284 183,285 183,285 183,285 179,287 179,287 179,287 175,292.5 175,292.5 173.673,295.155 173.358,298.785 172,301.5 170.462,304.577 169.201,303 167.5,303 167.5,303 165.5,305 165.5,305 162.623,306.438 156.663,304.081 154.5,303 152.432,301.966 151.578,295.539 148.5,294 146.331,292.915 144.763,294.632 141.5,293 141.5,293 135,286 135,286 135,286 134,286 134,286 134,288.268 137.29,289.921 136,292.5 136,292.5 132,293.5 132,293.5 132,293.5 134,298.5 134,298.5 134,298.5 134,303.5 134,303.5 136.465,308.43 135.623,314.747 138,319.5 138,319.5 141,324 141,324  M201 276 C199.814,276 199.814,277 201,277 203.65,277 203.991,280.245 205.5,281 205.876,281.188 209.234,280 209.5,280 209.5,280 215.5,275 215.5,275 215.5,275 220,272.5 220,272.5 224.802,262.896 201,257.436 201,276  Z"/>

<path  fill="#FF6E00" stroke-width="0" stroke="#FF6E00" d = " M374 252 L375,253 C376.473,253 376,251.048 376,250 376,250 375,250 375,250 375,250 374,252 374,252  Z"/>

<path  fill="#7CFC00" stroke-width="0" stroke="#7CFC00" d = " M290 275 C288.253,275 288,275.253 288,277 288,283.381 268.816,273.132 268,271.5 264.211,263.923 273.572,264.928 276,262.5 276,262.5 282,264 282,264 282,264 284,264 284,264 284,264 286,268 286,268 286,268 287,270 287,270 287,271.947 290,272.636 290,275  Z"/>

<path  fill="#7CFC00" stroke-width="0" stroke="#7CFC00" d = " M201 276 L201,277 C203.65,277 203.991,280.245 205.5,281 205.876,281.188 209.234,280 209.5,280 209.5,280 215.5,275 215.5,275 215.5,275 220,272.5 220,272.5 224.802,262.896 201,257.436 201,276  Z"/>

<path  fill="#E1F00D" stroke-width="0" stroke="#E1F00D" d = " M286 268 L287,269 C288.401,269 286.489,264 284,264 284,264 286,268 286,268  Z"/>

<path  fill="#FFBB00" stroke-width="0" stroke="#FFBB00" d = " M287 269 L287,270 C287,270 286,268 286,268 286,268 287,269 287,269  Z"/>

<path  fill="#FF6E00" stroke-width="0" stroke="#FF6E00" d = " M127 275 L126,276 C126,276 123,273 123,273 125.177,273 127,272.359 127,275  Z"/>

<path  fill="#FFBB00" stroke-width="0" stroke="#FFBB00" d = " M288 277 C292.329,277 296,282.302 296,278 296,274.374 292.74,275 290,275 288.253,275 288,275.253 288,277  Z"/>

<path  fill="#FFBB00" stroke-width="0" stroke="#FFBB00" d = " M201 276 C199.814,276 199.814,277 201,277 201,277 201,276 201,276  Z"/>

<path  fill="#FFBB00" stroke-width="0" stroke="#FFBB00" d = " M184 283 C186.029,283 184.058,284 183,284 179.823,284 181.921,283 184,283  Z"/>

<path  fill="#FFBB00" stroke-width="0" stroke="#FFBB00" d = " M183 285 C180.823,285 179,284.359 179,287 179,287 183,285 183,285  Z"/>

<path  fill="#814FFF" stroke-width="0" stroke="#814FFF" d = " M147 297 C147,298.93 148.93,297 147,297  Z"/>

<path  fill="#022CFF" stroke-width="0" stroke="#022CFF" d = " M243 304 L242,305.5 C242,309.243 246.368,304 243,304  Z"/>

<path  fill="#022CFF" stroke-width="0" stroke="#022CFF" d = " M245 305 C245,307.091 248.746,305 245,305  Z"/>

<path  fill="#022CFF" stroke-width="0" stroke="#022CFF" d = " M246 307 L245.5,310 L243.5,308 C240.89,308 241.949,316.224 243.5,317 244.554,317.527 244,314.679 244,313.5 244,312.529 251.21,307 246,307  Z"/>

<path  fill="#267EFF" stroke-width="0" stroke="#267EFF" d = " M240 321 C240,325.539 228,325.958 228,334.5 228,336.97 235.166,337 237,337 243.22,337 253.221,338.639 258.5,336 263.875,333.313 263.443,329.472 258.5,327 254.818,325.159 253.537,319.981 249.5,322 247.246,323.127 246.761,321 244.5,321 L242.5,323 L240,321  Z"/>

<path  fill="#FA8072" stroke-width="0" stroke="#FA8072" d = " M107 336 C107,341.158 113.073,336 107,336  Z"/>

<path  fill="#FA8072" stroke-width="0" stroke="#FA8072" d = " M114 337 C114,338.579 113,340.278 113,341.5 113,343.658 115.297,342 115.5,342 L118.5,346 C121.719,347.609 125.715,348 128.5,348 129.061,348 129.486,351 131.5,351 132.283,351 132.247,359.126 136.5,357 139.124,355.688 140.64,349.57 137.5,348 135.675,347.087 133.684,349 132.5,349 131.163,349 129.642,341.071 127.5,340 125.264,338.882 124.18,342.84 122.5,342 119.087,340.294 117.367,337 114,337  Z"/>

<path  fill="#FA8072" stroke-width="0" stroke="#FA8072" d = " M362 339 L359,342.5 L360,347.5 C359.235,349.03 356.141,347.219 355,349.5 354.625,350.25 353.041,353.27 354.5,354 L357.5,351 C358.412,350.544 365.44,356.379 363,351.5 L361,348.5 L365.5,348 L368,344.5 C369.741,341.018 364.399,339 362,339  Z"/>

<path  fill-rule="evenodd" fill="#FA8072" stroke-width="0" stroke="#FA8072" d = " M301 360 C301,364.123 305.123,360 301,360  M298 347 C298,348.196 291.172,352.156 290,354.5 288.358,357.784 291.371,360.759 290,363.5 289.647,364.207 282.767,364.967 281,368.5 279.242,372.017 280.481,385.462 282,388.5 283.145,390.79 287.626,390.063 289.5,391 290.858,391.679 293.581,396.459 296.5,395 297.037,394.732 296.085,386.792 300.5,389 302.238,389.869 301.556,394 303.5,394 307.955,394 299.462,387.519 302.5,386 L306.5,387 C309.949,385.275 314.288,379.923 316,376.5 L316,366.5 C317.56,363.38 325.031,362.561 322,356.5 319.788,352.077 302.429,347 298,347  Z"/>

<path  fill="#FA8072" stroke-width="0" stroke="#FA8072" d = " M188 350 C188,353.414 184.366,350.067 182.5,351 L177.5,356 C174.959,357.27 169.528,357.444 168,360.5 166.135,364.23 177.116,369.732 179,373.5 L178,377.5 C179.469,380.438 180.553,383.606 182,386.5 L186,388.5 C188.399,393.298 191.793,397.354 198.5,394 L200.5,392 C203.947,392 206.905,392.691 209,388.5 210.881,384.738 209.643,369.786 208,366.5 206.554,363.607 198.539,362.578 197,359.5 192.736,350.972 202.547,350 188,350  Z"/>

<path  fill="#FA8072" stroke-width="0" stroke="#FA8072" d = " M153 370 L151,375.5 L153,381.5 C157.273,390.046 170.914,370 153,370  Z"/>

</g>
</svg>
