<svg xmlns="http://www.w3.org/2000/svg" xmlns:xlink="http://www.w3.org/1999/xlink" height="512" width="512">
<g>
<rect width="512" height="512" fill="#000000"  stroke-width="0" /> 
<path  fill="#03C12D" stroke-width="0" stroke="#03C12D" d = " M140 347 C129.882,347 122.033,358.266 111.5,353 L106.5,353 C83.1391,341.32 80.7869,326.074 70,304.5 L65,299.5 C63.3309,296.162 63.124,287.748 61,283.5 59.5414,280.583 64.8624,280.225 64,278.5 63.2351,276.97 60.1407,278.781 59,276.5 L59,272.5 C55.8416,266.183 53.6711,257.842 51,252.5 L48,246.5 L51,245.5 L47,244.5 C44.1182,238.736 49,227.972 49,221 L48,212.5 L52,207.5 C54.6027,202.295 52.0884,190.323 55,184.5 58.3362,177.828 59.6239,170.252 63,163.5 64.4185,160.663 63.5535,156.393 65,153.5 67.1413,149.217 68.906,144.688 71,140.5 L75,136.5 L76,130.5 C77.5394,127.421 94.9872,114.756 98.5,113 L107,108.5 L103,107.5 L109.5,105 C116.681,101.41 122.626,98.4371 129.5,95 132.905,93.2977 138.144,94.678 141.5,93 L142.5,91 L148.5,92 C157.949,87.2757 166.351,87.0745 174.5,83 L188.5,83 C191.813,81.3437 206.723,80.1116 210.5,82 217.201,85.3506 225.165,83.8327 231.5,87 L239.5,95 C241.216,95 240.787,91.7134 242,90.5 L251.5,84 C262.631,78.4345 275.791,80 288.5,80 L302.5,80 C306.018,81.7589 311.076,80.2879 314.5,82 320.757,85.1286 329.351,82.9254 335.5,86 339.062,87.7812 337.336,88.4178 340.5,90 342.836,91.168 346.043,90.7715 348.5,92 L358.5,92 C360.512,93.0062 360.29,95.3951 361.5,96 L366.5,97 C371.035,99.2675 373.976,103.738 378.5,106 L381.5,105 C382.675,105 399.869,115.684 402.5,117 406.538,119.019 409.018,129.259 410.5,130 418.469,133.984 422.456,144.412 426,151.5 L426,156.5 C432.386,169.272 434.041,185.581 440,197.5 441.502,200.504 435.991,205.481 438,209.5 439.672,212.845 442,216.566 442,220.5 442,224.677 437.028,260.444 436,262.5 L430,269.5 C428.972,271.556 432,273 432,274.5 432,278.171 423.989,293.522 422,297.5 L422,301.5 L415,308.5 C412.281,313.939 410.678,320.144 408,325.5 L404,328.5 C401.511,333.478 398.499,338.502 396,343.5 389.742,356.017 369.239,349.131 359.5,354 357.416,355.042 351,353.446 351,351 355.146,351 358.61,337.279 360,334.5 364.187,326.125 365.887,316.726 370,308.5 371.703,305.094 377,300.39 377,296.5 377,293.952 377,290.667 377,287.5 377,287.5 374,283.5 374,283.5 374,283.5 376,279 376,279 376,277.784 390,261.931 390,253 390,253 390,252 390,252 390,252 391,250 391,250 391,251.167 390.326,258.087 392.5,257 395.206,255.647 394,249.109 394,246.5 394,240.471 395.621,222.743 393,217.5 393,217.5 390,215.5 390,215.5 390,215.5 390,208.5 390,208.5 388.377,205.254 387.393,204.287 386,201.5 386,201.5 385,192.5 385,192.5 385,192.5 380,186.5 380,186.5 379.361,185.221 381.068,181.637 380,179.5 380,179.5 375,176 375,176 375,176 374,174 374,174 374,170.916 368.785,166 365,166 365,166 364,165 364,165 364,162.234 359.985,161.742 358.5,161 356.97,160.235 358.781,157.141 356.5,156 352.696,154.098 348.286,151.893 344.5,150 342.529,149.015 340.052,146.276 337.5,145 336.593,144.546 331,144.089 331,142.5 331,142.5 334,141.5 334,141.5 334,141.5 329.5,138 329.5,138 319.74,133.12 303.033,133.266 294.5,129 294.5,129 283.5,128 283.5,128 280.644,126.572 277.228,126.364 274.5,125 274.5,125 269.5,122 269.5,122 265.35,124.075 266.579,129.343 265,132.5 259.161,144.178 253.616,150 239.5,150 239.5,150 231.5,150 231.5,150 220.265,144.382 217.685,129.092 211.5,126 210.827,125.663 199.197,129 196.5,129 196.5,129 193.5,132 193.5,132 193.5,132 186.5,132 186.5,132 178.302,136.099 166.652,136.424 159.5,140 150.333,144.584 141.907,152.796 133.5,157 133.5,157 126.5,165 126.5,165 122.166,167.167 111,179.19 111,185 111,185 110,186 110,186 110,186 109,187 109,187 109,190.341 105,193.935 105,197 105,197 105,200 105,200 99.6773,200 98,216.852 98,221 98,221 97,222 97,222 97,231.25 91.0808,240.662 96,250.5 96,250.5 96.5,260 96.5,260 98.63,261.065 98,256.004 98,255 99.0518,255 101,264.611 101,266 101,267.238 101.423,269 103,269 103,272.272 107.641,278 111,278 111,278 109,281.5 109,281.5 110.514,284.527 115.873,288.246 118,292.5 120.663,297.827 115.121,305.741 118,311.5 118,311.5 122,319.5 122,319.5 125.195,325.89 140,341.114 140,347  Z"/>

<path  fill="#FF6E00" stroke-width="0" stroke="#FF6E00" d = " M391 247 L391,250 C391,251.167 390.326,258.087 392.5,257 395.206,255.647 394,249.109 394,246.5 394,240.471 395.621,222.743 393,217.5 393,217.5 390,215.5 390,215.5 390,215.5 390,208.5 390,208.5 388.377,205.254 387.393,204.287 386,201.5 386,201.5 385,192.5 385,192.5 385,192.5 380,186.5 380,186.5 379.361,185.221 381.068,181.637 380,179.5 380,179.5 375,176 375,176 375,176 374,174 374,174 374,170.916 368.785,166 365,166 365,166 364,165 364,165 364,162.234 359.985,161.742 358.5,161 356.97,160.235 358.781,157.141 356.5,156 352.696,154.098 348.286,151.893 344.5,150 342.529,149.015 340.052,146.276 337.5,145 336.593,144.546 331,144.089 331,142.5 331,142.5 334,141.5 334,141.5 334,141.5 329.5,138 329.5,138 319.74,133.12 303.033,133.266 294.5,129 294.5,129 283.5,128 283.5,128 280.644,126.572 277.228,126.364 274.5,125 274.5,125 269.5,122 269.5,122 265.35,124.075 266.579,129.343 265,132.5 259.161,144.178 253.616,150 239.5,150 239.5,150 231.5,150 231.5,150 220.265,144.382 217.685,129.092 211.5,126 210.827,125.663 199.197,129 196.5,129 196.5,129 193.5,132 193.5,132 193.5,132 186.5,132 186.5,132 178.302,136.099 166.652,136.424 159.5,140 150.333,144.584 141.907,152.796 133.5,157 133.5,157 126.5,165 126.5,165 122.166,167.167 111,179.19 111,185 111,185 110,186 110,186 110,186 109,187 109,187 109,190.341 105,193.935 105,197 106.486,197 106.486,200 105,200 99.6773,200 98,216.852 98,221 98,221 97,222 97,222 97,231.25 91.0808,240.662 96,250.5 96,250.5 96.5,260 96.5,260 98.63,261.065 98,256.004 98,255 98,255 98,244 98,244 98,244 99,242 99,242 99,238.154 98.1843,224.131 99,222.5 101.692,217.116 110,203.423 110,199.5 110,199.5 113,197.5 113,197.5 116.293,190.914 118.175,185.162 124.5,182 132.377,178.061 131.457,171 141,171 141,171 142,170 142,170 142,166.827 145.546,166 148,166 148,166 149,165 149,165 149,165 155,160.5 155,160.5 157.421,155.658 166.674,148 173,148 178.427,148 184.872,145.314 189.5,143 189.5,143 195.5,145 195.5,145 196.373,145 201.666,144.083 203.5,145 206.07,146.285 217.194,155 219,155 220.238,155 222,155.423 222,157 222,157 223,157 223,157 224.424,157 228,157.362 228,159 228,160.739 236.126,162 238,162 238,162 248,162 248,162 248,162 249,162 249,162 249,162 250,161 250,161 250,161 251,160 251,160 251,160 252,160 252,160 252,160 253,159 253,159 253,159 254,159 254,159 254,156.891 256.535,157 258,157 258,155.423 259.762,155 261,155 264.599,155 267.05,149 270,149 270,149 271,148 271,148 271,148 272,147 272,147 272,147 276,145 276,145 276,145 278,143 278,143 278,143 282,142 282,142 282,142 283,141 283,141 283,139.159 290,137.798 290,140 290,140 293,139 293,139 293,139 294,139 294,139 297.186,139 301.085,142 304,142 304,142 306,143 306,143 309.774,143 313.636,149 317,149 317,149 318,149 318,149 318,149 312,144.5 312,144.5 312,140.874 320.343,146.422 321.5,147 325.691,149.095 328.704,158 332,158 333.013,158 336.408,159 334,159 334,159.381 339.863,166 340,166 342.063,166 350,167.527 350,170 350,170 354,171 354,171 354,168.784 357,170.652 357,172 360.022,172 360.263,177 364,177 364,177 366,179 366,179 366,179 368.5,181 368.5,181 369.151,181 370.151,178.802 371,180.5 371,180.5 370,184.5 370,184.5 371.083,186.667 373,185.285 373,188 374.717,188 377,189.252 377,191 377,193.124 378,195.436 378,197 378,197 379,198 379,198 379,200.29 386,212.084 386,216 386,216 387,217 387,217 387,221.251 390,224.861 390,230 390,230 391,232 391,232 391,232 391,245 391,245 391,245 391,247 391,247  Z"/>

<path  fill="#0E47E2" stroke-width="0" stroke="#0E47E2" d = " M221 194 L227,194 C227,192.949 236.128,189.686 237.5,189 237.5,189 242.5,182 242.5,182 242.5,182 248.5,188 248.5,188 254.225,190.862 262.205,193 269,193 269,193 271,193 271,193 271,193 272,192 272,192 272,192 273,192 273,192 273,192 274,191 274,191 274,191 275,191 275,191 275,191 276,190 276,190 276,188.448 281,188.854 281,186 281,186 283,180 283,180 283,180 278,179.5 278,179.5 278,173.385 289.738,175.381 292.5,174 301.086,169.707 322,169.213 322,156 322,156 320,153 320,153 318.423,153 318,151.238 318,150 318,150 317,149 317,149 313.636,149 309.774,143 306,143 306,143 304,142 304,142 301.085,142 297.186,139 294,139 294,140.186 293,140.186 293,139 293,139 290,140 290,140 290,140 283,141 283,141 283,141 282,142 282,142 282,142 278,143 278,143 278,144.747 277.747,145 276,145 276,147.109 273.465,147 272,147 272,147 271,148 271,148 271,148 270,149 270,149 267.05,149 264.599,155 261,155 261,156.577 259.238,157 258,157 258,157 254,159 254,159 254,159 253,159 253,159 253,159 252,160 252,160 252,160 251,160 251,160 251,160 250,161 250,161 250,161 249,162 249,162 249,162 248,162 248,162 248,163.54 245,162.764 245,166 245,173.526 239,175.994 239,170.5 239,170.5 241,166 241,166 241,166 240,164 240,164 240,164 238,162 238,162 236.126,162 228,160.739 228,159 226.576,159 223,158.638 223,157 223,157 222,157 222,157 220.762,157 219,156.577 219,155 217.194,155 206.07,146.285 203.5,145 201.666,144.083 196.373,145 195.5,145 195.5,145 189.5,143 189.5,143 184.872,145.314 178.427,148 173,148 173,152.057 165,151.81 165,157 165,158.995 166.582,168 170,168 170,168 173,170 173,170 181.22,170 188.36,176 197,176 198.71,176 204,176.718 204,179 210.294,179 214.239,183 203,183 198.031,183 203,187.47 203,189 205.659,189 209.5,193 212,193 212,193 221,194 221,194  Z"/>

<path  fill="#022CFF" stroke-width="0" stroke="#022CFF" d = " M343 188 L341,189 C341,183.855 338.953,184.407 337,180.5 335.231,176.962 338.43,172.36 337,169.5 337,169.5 332,165.5 332,165.5 332,163.163 329.617,157 325,157 325,157 324,155 324,155 324,155 322,154 322,154 322,154 322,153 322,153 322,153 318,150 318,150 318,150 318,149 318,149 318,149 312,144.5 312,144.5 312,140.874 320.343,146.422 321.5,147 325.691,149.095 328.704,158 332,158 332,158 334,159 334,159 334,159.381 339.863,166 340,166 340,169.454 344,166.734 344,169 344,171.409 342.723,170.055 342,171.5 342,171.5 343,178 343,178 341.601,178 341.601,180 343,180 344.088,180 344,183.299 344,184 344,184 343,188 343,188  Z"/>

<path  fill="#022CFF" stroke-width="0" stroke="#022CFF" d = " M148 189 L151,189 C151,189 153,186.5 153,186.5 153,185.277 152,183.526 152,182.5 152,182.5 154,181.5 154,181.5 154,179.778 152,177.93 152,176.5 152,173.484 156,171.022 156,165.5 156,165.5 159,164.5 159,164.5 159,164.5 157,163.5 157,163.5 157,163.5 159,162.5 159,162.5 159,162.5 158,160.5 158,160.5 158,160.009 163.658,157 165,157 165,151.81 173,152.057 173,148 166.674,148 157.421,155.658 155,160.5 155,160.5 149,165 149,165 152.177,165 150.079,166 148,166 145.546,166 142,166.827 142,170 143.235,170 147,169.357 147,171 147,172.46 148,173.284 148,174.5 148,174.5 146,176.5 146,176.5 146,176.5 149,177.5 149,177.5 149,177.5 147,181.5 147,181.5 147,181.5 149,184.5 149,184.5 149,184.5 147,186.5 147,186.5 147,186.5 148,189 148,189  Z"/>

<path  fill="#FF6E00" stroke-width="0" stroke="#FF6E00" d = " M320 153 L322,153 C322,153 318,150 318,150 318,151.238 318.423,153 320,153  Z"/>

<path  fill="#FF6E00" stroke-width="0" stroke="#FF6E00" d = " M322 154 L324,155 C324,155 322,154 322,154  Z"/>

<path  fill="#00FF1D" stroke-width="0" stroke="#00FF1D" d = " M326 198 C329.364,198 331.456,198 335,198 335,198 336,197 336,197 336,197 341,189 341,189 341,183.855 338.953,184.407 337,180.5 335.231,176.962 338.43,172.36 337,169.5 337,169.5 332,165.5 332,165.5 332,163.163 329.617,157 325,157 325,157 322,156 322,156 322,169.213 301.086,169.707 292.5,174 289.738,175.381 278,173.385 278,179.5 278,179.5 283,180 283,180 287.269,180 294.596,176 300,176 301.321,176 306,175.316 306,177 306,177 311,177 311,177 311,177 312,178 312,178 312,182.345 318.8,190.1 321,194.5 321.953,196.405 326,193.987 326,198  Z"/>

<path  fill="#00FF1D" stroke-width="0" stroke="#00FF1D" d = " M152 194 C152,197.926 162.432,199 164,199 164,199 167.5,200 167.5,200 168.209,199.646 173,192.136 173,192 173,192 175,191 175,191 175,187.899 178.458,182 182,182 182,177.891 196.483,180.992 198.5,182 199.647,182.574 203,180.936 203,183 214.239,183 210.294,179 204,179 202.853,179 197,177.267 197,176 188.36,176 181.22,170 173,170 171.762,170 170,169.577 170,168 166.582,168 165,158.995 165,157 163.658,157 158,160.009 158,160.5 158,160.5 159,162.5 159,162.5 159,162.5 157,163.5 157,163.5 157,163.5 159,164.5 159,164.5 159,164.5 156,165.5 156,165.5 156,171.022 152,173.484 152,176.5 152,177.93 154,179.778 154,181.5 154,181.5 152,182.5 152,182.5 152,183.526 153,185.277 153,186.5 153,186.5 151,189 151,189 151,189 150,190 150,190 150,191.532 151,190.95 151,193 151,193 152,194 152,194  Z"/>

<path  fill="#FF0800" stroke-width="0" stroke="#FF0800" d = " M241 166 L244,166 C244,161.496 242.6,164 240,164 240,164 241,166 241,166  Z"/>

<path  fill="#022CFF" stroke-width="0" stroke="#022CFF" d = " M244 166 L245,166 C245,173.526 239,175.994 239,170.5 239,170.5 241,166 241,166 241,166 244,166 244,166  Z"/>

<path  fill="#814FFF" stroke-width="0" stroke="#814FFF" d = " M363 270 L365,272.5 L365,276.5 C368.03,282.56 370.636,279 376,279 376,277.784 390,261.931 390,253 388.814,253 388.814,252 390,252 390,252 391,250 391,250 391,250 391,247 391,247 389.601,247 389.601,245 391,245 391,245 391,232 391,232 391,232 390,230 390,230 390,224.861 387,221.251 387,217 387,217 386,216 386,216 386,212.084 379,200.29 379,198 379,198 378,197 378,197 378,195.436 377,193.124 377,191 375.283,191 373,189.748 373,188 373,185.285 371.083,186.667 370,184.5 370,184.5 371,180.5 371,180.5 370.151,178.802 369.151,181 368.5,181 368.5,181 366,179 366,179 366,179 364,177 364,177 360.263,177 360.022,172 357,172 357,172 354,171 354,171 354,171 350,170 350,170 350,170 344,169 344,169 344,171.409 342.723,170.055 342,171.5 342,171.5 343,178 343,178 343,178 343,180 343,180 344.088,180 344,183.299 344,184 344,184 346,187 346,187 346,187 350.5,185 350.5,185 353.651,183.424 358.998,192.505 358,194.5 357.372,195.756 355.133,197.767 356,199.5 356,199.5 360,203.5 360,203.5 358.259,206.982 355,204.328 355,213 355,213 357,216 357,216 361.944,216 364,221.321 364,226 364,226 365,228 365,228 365,235.319 365,239.731 365,247 365,247 364,248 364,248 364,256.681 361,261.317 361,268 361,268 363,270 363,270  Z"/>

<path  fill="#814FFF" stroke-width="0" stroke="#814FFF" d = " M103 269 C103,272.272 107.641,278 111,278 120.051,278 128,277.938 128,265 128,263.51 128.735,257 127,257 125.423,257 125,255.238 125,254 125,254 125,244 125,244 123.814,244 123.814,243 125,243 125,243 126,238 126,238 126,238 125,237 125,237 125,237 127,233 127,233 127,233 129,229 129,229 129,229 129,228 129,228 129,228 129,227 129,227 129,224.142 130,221.722 130,219 126.906,219 126.605,209 131,209 131,209 132,208 132,208 132,208 134,207.5 134,207.5 134.36,206.78 130.116,193.268 134,185.5 134,185.5 135.5,181 135.5,181 136.441,181 138.561,188.623 139,189.5 139.754,191.008 140.84,189.33 141.5,189 141.5,189 145,190 145,190 145,190 147,190 147,190 147,190 148,190 148,190 148,190 148,189 148,189 148,189 147,186.5 147,186.5 147,186.5 149,184.5 149,184.5 149,184.5 147,181.5 147,181.5 147,181.5 149,177.5 149,177.5 149,177.5 146,176.5 146,176.5 146,176.5 148,174.5 148,174.5 148,173.284 147,172.46 147,171 147,171 141,171 141,171 131.457,171 132.377,178.061 124.5,182 118.175,185.162 116.293,190.914 113,197.5 113,197.5 110,199.5 110,199.5 110,203.423 101.692,217.116 99,222.5 98.1843,224.131 99,238.154 99,242 99,242 98,244 98,244 98,244 98,255 98,255 99.0518,255 101,264.611 101,266 102.577,266 103,267.762 103,269  Z"/>

<path  fill="#022CFF" stroke-width="0" stroke="#022CFF" d = " M283 180 L281,186 C284.23,186 284.207,183.146 286.5,182 289.094,180.703 302.844,177 306,177 306,175.316 301.321,176 300,176 294.596,176 287.269,180 283,180  Z"/>

<path  fill="#006400" stroke-width="0" stroke="#006400" d = " M241 285 L240,281.5 C241.867,277.766 246,282.438 246,285 253.705,285 259.452,283 265,283 265,283 266,284 266,284 266,284 267,284 267,284 269.561,284 288.857,278.321 291.5,277 293.189,276.155 294.751,270 301,270 301,266.381 304.2,258 309,258 309,258 310,257 310,257 310,257 316.5,251 316.5,251 318.691,249.904 328.015,245.47 329,243.5 331.515,238.469 342.419,218.339 340,213.5 340,213.5 338,212.5 338,212.5 338,212.5 339,207.5 339,207.5 335.121,199.742 326,204.402 326,198 326,193.987 321.953,196.405 321,194.5 318.8,190.1 312,182.345 312,178 312,178 311,177 311,177 311,177 306,177 306,177 302.844,177 289.094,180.703 286.5,182 284.207,183.146 284.23,186 281,186 281,188.854 276,188.448 276,190 276,190 275,191 275,191 275,191 274,191 274,191 274,191 273,192 273,192 273,192 272,192 272,192 272,192 271,193 271,193 271,193 269,193 269,193 269,193 269,196 269,196 269,206.814 252.946,196 249,196 249,196 246.5,198 246.5,198 244.953,198.774 243.785,201.143 241.5,200 239.132,198.816 240,197.68 240,196.5 240,195.489 235,192.651 235,195 237.838,195 234.629,199.435 233.5,200 228.969,202.265 217,204.704 217,198 217,198 216,197 216,197 216,197 212,193 212,193 209.5,193 205.659,189 203,189 203,189 195.5,184 195.5,184 193.588,183.044 184.966,182 182,182 178.458,182 175,187.899 175,191 175,191 173,192 173,192 173,192.136 168.209,199.646 167.5,200 167.5,200 164,199 164,199 164,199 164,201 164,201 164,206.591 159.04,204.23 155.5,206 153.032,207.234 151.331,211.838 150,214.5 148.079,218.341 151.662,221.824 153,224.5 154.074,226.649 153,231.127 153,232.5 153,238.155 161.802,244.302 165.5,248 166.592,249.092 166.671,252.586 167.5,253 167.5,253 173.5,254 173.5,254 173.5,254 175.5,258 175.5,258 175.5,258 179.5,258 179.5,258 180.658,258.579 181.84,265 184,265 186.341,265 205.631,282 211,282 211,282 212,283 212,283 212.822,283 220,284.311 220,285 226.991,285 234.009,285 241,285  Z"/>

<path  fill="#022CFF" stroke-width="0" stroke="#022CFF" d = " M203 183 C198.031,183 203,187.47 203,189 203,189 195.5,184 195.5,184 193.588,183.044 184.966,182 182,182 182,177.891 196.483,180.992 198.5,182 199.647,182.574 203,180.936 203,183  Z"/>

<path  fill-rule="evenodd" fill="#FF3427" stroke-width="0" stroke="#FF3427" d = " M165 265 C165,266.991 160.716,267.931 162,270.5 166.653,279.806 178.975,272.238 168.5,267 L165,265  M184 265 C184,265.751 187.276,277 182.5,277 L180.5,275 L173.5,281 C171.827,281 156,272.171 156,271 156,270.496 147.649,259 147,259 147,259 147,257 147,257 147,257 146,256 146,256 146,250.294 141.083,249.666 139,245.5 137.814,243.128 138.281,240.063 137,237.5 137,237.5 139,233.5 139,233.5 137.264,230.028 136,225.481 136,222.5 136,222.5 134,219 134,219 134,217.07 132.839,219 132,219 132,219 130,219 130,219 126.906,219 126.605,209 131,209 131,209 132,208 132,208 132,208 134,207.5 134,207.5 134.36,206.78 130.116,193.268 134,185.5 134,185.5 135.5,181 135.5,181 136.441,181 138.561,188.623 139,189.5 139.754,191.008 140.84,189.33 141.5,189 141.5,189 145,190 145,190 145,190 147,192 147,192 147,192 147,193 147,193 147,194.048 146.527,196 148,196 148,199.614 146.423,203 152,203 152,203 154,204 154,204 157.909,204 161.158,201 164,201 164,206.591 159.04,204.23 155.5,206 153.032,207.234 151.331,211.838 150,214.5 148.079,218.341 151.662,221.824 153,224.5 154.074,226.649 153,231.127 153,232.5 153,238.155 161.802,244.302 165.5,248 166.592,249.092 166.671,252.586 167.5,253 167.5,253 173.5,254 173.5,254 173.5,254 175.5,258 175.5,258 175.5,258 179.5,258 179.5,258 180.658,258.579 181.84,265 184,265  Z"/>

<path  fill="#022CFF" stroke-width="0" stroke="#022CFF" d = " M249 196 C249,191.809 264.68,192.59 267.5,194 L269,196 C269,196 269,193 269,193 262.205,193 254.225,190.862 248.5,188 248.5,188 242.5,182 242.5,182 242.5,182 237.5,189 237.5,189 236.128,189.686 227,192.949 227,194 229.707,194 232.903,195 235,195 235,192.651 240,195.489 240,196.5 240,197.68 239.132,198.816 241.5,200 243.785,201.143 244.953,198.774 246.5,198 246.5,198 249,196 249,196  Z"/>

<path  fill-rule="evenodd" fill="#FF3427" stroke-width="0" stroke="#FF3427" d = " M323 266 C323,266.444 313.783,269.142 319.5,272 323.294,273.897 327.532,266 323,266  M301 270 C302.399,270 302.399,272 301,272 301,274.052 306.164,272.828 307,274.5 308.697,277.894 314.88,281 318.5,281 318.5,281 322.5,277 322.5,277 322.5,277 326.5,278 326.5,278 330.554,275.973 334,270.776 334,267 334,264.909 336.863,267 338,267 340.293,267 340,266.003 340,264 340,264 340,261 340,261 340,259.346 342.048,252 344,252 344,249.959 342.155,249 345,249 351.717,249 347.15,238.199 348,236.5 348,236.5 354,235.5 354,235.5 355.052,233.396 352,232.83 352,231.5 352,231.5 354,229.5 354,229.5 354,224.69 354,220.887 354,216 352.272,216 354.187,213 355,213 355,204.328 358.259,206.982 360,203.5 360,203.5 356,199.5 356,199.5 355.133,197.767 357.372,195.756 358,194.5 358.998,192.505 353.651,183.424 350.5,185 350.5,185 346,187 346,187 346,187 346,189 346,189 346,193.903 340.076,199 337,199 337,199 335,198 335,198 331.456,198 329.364,198 326,198 326,204.402 335.121,199.742 339,207.5 339,207.5 338,212.5 338,212.5 338,212.5 340,213.5 340,213.5 342.419,218.339 331.515,238.469 329,243.5 328.015,245.47 318.691,249.904 316.5,251 316.5,251 310,257 310,257 310,257 309,258 309,258 304.2,258 301,266.381 301,270  Z"/>

<path  fill="#EE7533" stroke-width="0" stroke="#EE7533" d = " M336 197 L337,199 C340.076,199 346,193.903 346,189 346,189 343,188 343,188 343,188 341,189 341,189 341,189 336,197 336,197  Z"/>

<path  fill="#022CFF" stroke-width="0" stroke="#022CFF" d = " M147 193 L151,193 C151,190.95 150,191.532 150,190 150,190 148,190 148,190 148,190 147,190 147,190 147,190.839 148.93,192 147,192 147,192 147,193 147,193  Z"/>

<path  fill="#022CFF" stroke-width="0" stroke="#022CFF" d = " M276 190 L275,191 C275,191 276,190 276,190  Z"/>

<path  fill="#022CFF" stroke-width="0" stroke="#022CFF" d = " M274 191 L273,192 C273,192 274,191 274,191  Z"/>

<path  fill="#022CFF" stroke-width="0" stroke="#022CFF" d = " M272 192 L271,193 C271,193 272,192 272,192  Z"/>

<path  fill="#022CFF" stroke-width="0" stroke="#022CFF" d = " M216 197 L217,197 C217,197 221,194 221,194 221,194 212,193 212,193 212,193 216,197 216,197  Z"/>

<path  fill="#FFFC00" stroke-width="0" stroke="#FFFC00" d = " M249 196 C252.946,196 269,206.814 269,196 269,196 267.5,194 267.5,194 264.68,192.59 249,191.809 249,196  Z"/>

<path  fill="#EE7533" stroke-width="0" stroke="#EE7533" d = " M152 203 L154,204 C157.909,204 161.158,201 164,201 164,201 164,199 164,199 162.432,199 152,197.926 152,194 150.535,194 148,193.891 148,196 148,199.614 146.423,203 152,203  Z"/>

<path  fill="#FFFC00" stroke-width="0" stroke="#FFFC00" d = " M217 197 L217,198 C217,204.704 228.969,202.265 233.5,200 234.629,199.435 237.838,195 235,195 232.903,195 229.707,194 227,194 227,194 221,194 221,194 221,194 217,197 217,197  Z"/>

<path  fill="#FF91BA" stroke-width="0" stroke="#FF91BA" d = " M361 269 C357.993,269 339,284.932 339,270 339,270 338,267 338,267 340.293,267 340,266.003 340,264 341.486,264 341.486,261 340,261 340,259.346 342.048,252 344,252 347.382,252 345,250.658 345,249 351.717,249 347.15,238.199 348,236.5 348,236.5 354,235.5 354,235.5 355.052,233.396 352,232.83 352,231.5 352,231.5 354,229.5 354,229.5 354,224.69 354,220.887 354,216 354,216 357,216 357,216 361.944,216 364,221.321 364,226 364,226 365,228 365,228 365,235.319 365,239.731 365,247 365,247 364,248 364,248 364,256.681 361,261.317 361,268 361,268 361,269 361,269  Z"/>

<path  fill="#03C12D" stroke-width="0" stroke="#03C12D" d = " M386 216 L387,217 C387,217 386,216 386,216  Z"/>

<path  fill="#FF91BA" stroke-width="0" stroke="#FF91BA" d = " M128 265 C132.791,265 133.587,272.543 136.5,274 137.898,274.699 148,274.463 148,272.5 148,271.283 147,268.842 147,267 147,267 147,259 147,259 147,259 147,257 147,257 147,257 146,256 146,256 146,250.294 141.083,249.666 139,245.5 137.814,243.128 138.281,240.063 137,237.5 137,237.5 139,233.5 139,233.5 137.264,230.028 136,225.481 136,222.5 136,222.5 134,219 134,219 134,220.919 132,221.488 132,219 132,219 130,219 130,219 130,221.722 129,224.142 129,227 131.212,227 131.212,228 129,228 129,228 129,229 129,229 131.458,229 129.323,233 127,233 127,233 125,237 125,237 125,237 126,238 126,238 126,238 125,243 125,243 125,243 125,244 125,244 125,244 125,254 125,254 126.577,254 127,255.762 127,257 128.735,257 128,263.51 128,265  Z"/>

<path  fill="#03C12D" stroke-width="0" stroke="#03C12D" d = " M390 230 L391,232 C391,232 390,230 390,230  Z"/>

<path  fill="#03C12D" stroke-width="0" stroke="#03C12D" d = " M391 245 C389.601,245 389.601,247 391,247 391,247 391,245 391,245  Z"/>

<path  fill="#FF6E00" stroke-width="0" stroke="#FF6E00" d = " M390 252 C388.814,252 388.814,253 390,253 390,253 390,252 390,252  Z"/>

<path  fill-rule="evenodd" fill="#E1F00D" stroke-width="0" stroke="#E1F00D" d = " M150 305 C150,307.091 153.746,305 150,305  M182 323 C182,335.267 168.615,336.942 160.5,341 L154.5,344 L152.5,343 C147.425,345.537 145.125,347 140,347 140,341.114 125.195,325.89 122,319.5 122,319.5 118,311.5 118,311.5 115.121,305.741 120.663,297.827 118,292.5 115.873,288.246 110.514,284.527 109,281.5 109,281.5 111,278 111,278 120.051,278 128,277.938 128,265 132.791,265 133.587,272.543 136.5,274 137.898,274.699 148,274.463 148,272.5 148,271.283 147,268.842 147,267 150.973,267 152.538,271 156,271 156,272.171 171.827,281 173.5,281 173.5,281 180.5,275 180.5,275 180.5,275 182.5,277 182.5,277 187.276,277 184,265.751 184,265 186.341,265 205.631,282 211,282 211,282 212,283 212,283 212.822,283 220,284.311 220,285 215.951,285 215.113,292 213,292 213,290.847 212.742,286.879 210.5,288 210.5,288 207,295.5 207,295.5 207,298.154 210,296.9 210,298 210,298 207,299.5 207,299.5 207,299.5 205,308.5 205,308.5 205,308.5 202,310.5 202,310.5 202,310.5 201,320 201,320 197.138,320 197.293,315 193,315 193,315 192,314 192,314 194.374,314 190.641,312 190,312 185.883,312 184.915,309.293 181.5,311 176.585,313.457 181.729,323 182,323  Z"/>

<path  fill="#1AE7FF" stroke-width="0" stroke="#1AE7FF" d = " M165 265 C165,266.991 160.716,267.931 162,270.5 166.653,279.806 178.975,272.238 168.5,267 L165,265  Z"/>

<path  fill="#1AE7FF" stroke-width="0" stroke="#1AE7FF" d = " M323 266 C323,266.444 313.783,269.142 319.5,272 323.294,273.897 327.532,266 323,266  Z"/>

<path  fill-rule="evenodd" fill="#E1F00D" stroke-width="0" stroke="#E1F00D" d = " M336 302 C336,308.072 340.238,302 336,302  M343 352 L348,353 C348,353 351,351 351,351 355.146,351 358.61,337.279 360,334.5 364.187,326.125 365.887,316.726 370,308.5 371.703,305.094 377,300.39 377,296.5 377,293.952 377,290.667 377,287.5 377,287.5 374,283.5 374,283.5 374,283.5 376,279 376,279 370.636,279 368.03,282.56 365,276.5 365,276.5 365,272.5 365,272.5 365,272.5 363,270 363,270 363,270 361,269 361,269 357.993,269 339,284.932 339,270 337.053,270 336.364,267 334,267 334,270.776 330.554,275.973 326.5,278 326.5,278 322.5,277 322.5,277 322.5,277 318.5,281 318.5,281 314.88,281 308.697,277.894 307,274.5 306.164,272.828 301,274.052 301,272 301,272 301,270 301,270 294.751,270 293.189,276.155 291.5,277 288.857,278.321 269.561,284 267,284 267,285.462 271.277,289 273,289 273,279.948 284.602,295 276,295 276,302.338 281.674,303.848 284,308.5 285.783,312.066 285,317.743 285,322 285,322 290,316.5 290,316.5 290.644,315.856 294,313.916 294,316 294,316 301.5,309 301.5,309 303.028,308.236 303.202,308.351 304.5,309 304.5,309 308.5,309 308.5,309 310.456,309.978 305,321.442 305,325 305,325 309,330.5 309,330.5 311.96,336.42 313.175,338.838 319.5,342 319.5,342 337.5,349 337.5,349 337.5,349 343,352 343,352  Z"/>

<path  fill="#022CFF" stroke-width="0" stroke="#022CFF" d = " M241 285 C241,295.075 242,306.754 242,317.5 242,318.488 240.924,339.653 245,331.5 L245,296 C245,294.259 244.227,285 246,285 246,282.438 241.867,277.766 240,281.5 240,281.5 241,285 241,285  Z"/>

<path  fill="#E278A1" stroke-width="0" stroke="#E278A1" d = " M207 332 C208.951,332 207.477,334.454 208,335.5 209.358,338.216 213.623,341.562 216.5,343 L218.5,342 L219.5,344 C227.692,344 240.57,344.965 248.5,341 248.511,340.994 261.417,344.042 267.5,341 269.038,340.231 273,342.226 273,339 273,332.377 282,328.965 282,324 282,324 283,323 283,323 283,323 285,322 285,322 285,317.743 285.783,312.066 284,308.5 281.674,303.848 276,302.338 276,295 272.974,295 273,291.59 273,289 271.277,289 267,285.462 267,284 267,284 266,284 266,284 266,284 265,283 265,283 259.452,283 253.705,285 246,285 244.227,285 245,294.259 245,296 245,296 245,331.5 245,331.5 240.924,339.653 242,318.488 242,317.5 242,306.754 241,295.075 241,285 234.009,285 226.991,285 220,285 215.951,285 215.113,292 213,292 213,294.607 213.416,298 210,298 210,298 207,299.5 207,299.5 207,299.5 205,308.5 205,308.5 205,308.5 202,310.5 202,310.5 202,310.5 201,320 201,320 201,324.966 207,326.333 207,332  Z"/>

<path  fill="#E1F00D" stroke-width="0" stroke="#E1F00D" d = " M265 283 L266,284 C266,284 265,283 265,283  Z"/>

<path  fill="#15C0FF" stroke-width="0" stroke="#15C0FF" d = " M273 289 C273,291.59 272.974,295 276,295 284.602,295 273,279.948 273,289  Z"/>

<path  fill="#15C0FF" stroke-width="0" stroke="#15C0FF" d = " M213 292 C213,294.607 213.416,298 210,298 210,296.9 207,298.154 207,295.5 207,295.5 210.5,288 210.5,288 212.742,286.879 213,290.847 213,292  Z"/>

<path  fill="#ADFF2F" stroke-width="0" stroke="#ADFF2F" d = " M336 302 C336,308.072 340.238,302 336,302  Z"/>

<path  fill="#ADFF2F" stroke-width="0" stroke="#ADFF2F" d = " M150 305 C150,307.091 153.746,305 150,305  Z"/>

<path  fill="#267EFF" stroke-width="0" stroke="#267EFF" d = " M305 325 L301.5,329 C296.63,331.435 289.751,329 285,329 285,326.561 291.746,316 294,316 294,316 301.5,309 301.5,309 303.028,308.236 303.202,308.351 304.5,309 304.5,309 308.5,309 308.5,309 310.456,309.978 305,321.442 305,325  Z"/>

<path  fill="#267EFF" stroke-width="0" stroke="#267EFF" d = " M182 323 L184.5,328 C187.664,329.582 196.576,330 200,330 203.223,330 193,318.527 193,315 193,315 192,314 192,314 192,314 190,312 190,312 185.883,312 184.915,309.293 181.5,311 176.585,313.457 181.729,323 182,323  Z"/>

<path  fill="#FAAA40" stroke-width="0" stroke="#FAAA40" d = " M190 312 C190.641,312 194.374,314 192,314 192,314 190,312 190,312  Z"/>

<path  fill="#FAAA40" stroke-width="0" stroke="#FAAA40" d = " M202 331 C202.106,331 207,337.173 207,332 207,326.333 201,324.966 201,320 197.138,320 197.293,315 193,315 193,318.527 203.223,330 200,330 200,330 201,331 201,331 201,331 202,331 202,331  Z"/>

<path  fill="#FAAA40" stroke-width="0" stroke="#FAAA40" d = " M285 329 C285,329.369 274.708,339 273,339 273,332.377 282,328.965 282,324 282,324 283,323 283,323 283,323 285,322 285,322 285,322 290,316.5 290,316.5 290.644,315.856 294,313.916 294,316 291.746,316 285,326.561 285,329  Z"/>

<path  fill="#267EFF" stroke-width="0" stroke="#267EFF" d = " M201 331 L202,331 C202,333.212 201,333.212 201,331  Z"/>

<path  fill-rule="evenodd" fill="#FA8072" stroke-width="0" stroke="#FA8072" d = " M302 357 L302.5,365 C305.172,365 304.672,357 302,357  M299 340 C299,345.701 276.401,349.302 281,358.5 282.554,361.607 287.951,361.402 289,363.5 289.929,365.359 289.671,384 296.5,384 297.83,384 298.396,380.948 300.5,382 L302.5,384 C304.241,384 304.891,379.695 307.5,381 309.231,381.865 314.464,386.018 316.5,385 316.988,384.756 328.843,373.813 329,373.5 330.138,371.225 327.342,366.815 328,365.5 L331.5,366 C333.845,364.827 335.837,363.825 337,361.5 338.393,358.714 335.989,353.245 333.5,352 L324.5,353 L318.5,347 L316,346.5 L314.5,342 C311.633,340.566 306.214,342.857 304.5,342 302.02,340.76 302.063,340 299,340  Z"/>

<path  fill="#FA8072" stroke-width="0" stroke="#FA8072" d = " M180 343 C180,345.233 172.118,347.191 170.5,348 168.229,349.135 170.039,355 167.5,355 L162.5,352 L156.5,358 C153.81,358 152,359.445 152,359.5 L154,361.5 L152.5,366 C149.159,366 147.918,358.709 144.5,357 143.107,356.303 134,355.664 134,357.5 134,358.971 141.44,356.619 140,359.5 139.49,360.521 123.579,363.659 125,366.5 L128,367.5 C130.238,371.977 131.347,373.847 134.5,377 L139.5,381 L140.5,379 C142.233,378.134 147.452,380.597 149,377.5 L146,373.5 L150.5,373 C152.238,372.131 151.556,368 153.5,368 L157.5,371 L161,370.5 C162.025,372.55 160.529,374.515 163.5,376 166.109,377.305 166.759,373 168.5,373 L168,377 C168,378.51 170.044,382.272 171.5,383 177.592,386.046 180.313,384.593 185.5,382 186.667,381.416 193.344,385.078 197.5,383 206.067,378.716 193.407,373.685 195,370.5 195.526,369.448 201.281,371.939 203,368.5 L202,366.5 C201.143,364.786 205.025,362.762 201.5,361 200.222,360.361 195.128,360.756 195,360.5 193.204,356.908 196.956,352.411 195,348.5 193.65,345.8 183.254,343 180,343  Z"/>

<path  fill="#FA8072" stroke-width="0" stroke="#FA8072" d = " M144 351 L143,353.5 C143.759,355.019 149.925,357.788 151.5,357 153.295,356.103 153.273,351 150.5,351 L147.5,353 C145.881,352.191 146.029,351 144,351  Z"/>

<path  fill-rule="evenodd" fill="#FA8072" stroke-width="0" stroke="#FA8072" d = " M358 374 C358,376.091 361.746,374 358,374  M355 374 L354,376 C354,386.778 356.944,374 355,374  M360 373 C360,380.052 364.786,373 360,373  M343 352 L348,353 C348,354.355 355.766,354.033 357,356.5 357,356.5 357,359.5 357,359.5 357.623,360.747 361.833,361.167 363,363.5 363.81,365.119 362,366.501 362,367.5 362,369.53 364.444,370.387 365,371.5 367.136,375.772 365.091,380.682 367,384.5 368.224,386.948 375.771,388.958 373,394.5 371.494,397.511 370.113,396.693 367.5,398 356.771,403.365 356.309,395 353.5,395 353.5,395 352.5,398 352.5,398 352.5,398 352,393.5 352,393.5 351.519,392.537 350.654,391.808 350,390.5 350,390.5 346,388.5 346,388.5 344.042,384.584 345.98,382.46 344,378.5 342.282,375.063 340.431,375.362 338,370.5 333.934,362.369 346,359.259 346,356.5 346,356.5 342,354.5 342,354.5 342,354.5 343,352 343,352  Z"/>

<path  fill="#FA8072" stroke-width="0" stroke="#FA8072" d = " M125 381 L123,383.5 C121.635,386.23 123.098,396.799 125.5,398 L128.5,397 C130.405,397 132.621,399.939 136.5,398 139.355,396.573 140.842,385.671 137.5,384 134.137,382.319 131.624,387.562 130.5,387 127.963,385.732 130.565,381 125,381  Z"/>

</g>
</svg>
