<svg xmlns="http://www.w3.org/2000/svg" xmlns:xlink="http://www.w3.org/1999/xlink" height="512" width="512">
<g>
<rect width="512" height="512" fill="#000000"  stroke-width="0" /> 
<path  fill="#CED307" stroke-width="0" stroke="#CED307" d = " M247 178 C247,180.007 250.892,176.284 252,178.5 253.611,181.721 252.351,176.425 255.5,178 L256.5,180 L257.5,178 L269,178 C271.339,178 275.282,181.609 276.5,181 L281.5,176 C283.549,174.976 286.535,175.983 288.5,175 L290.5,173 L295.5,176 C298.855,177.678 304.352,176 306.5,176 L309.5,184 L312.5,183 L313,186.5 L317,187.5 C319.004,191.508 318.975,196.449 321,200.5 L324,203.5 C324,209.455 323,214.902 323,221 324.76,221 327.346,226.077 331.5,224 336.361,221.57 338.058,215.385 340,211.5 343.969,203.561 359.807,177.113 355,167.5 345.554,148.609 329.783,137.142 311.5,128 311.5,128 301.5,127 301.5,127 293.913,123.207 282.022,121.739 275.5,125 266.126,129.687 255.551,131.399 250,142.5 244.864,152.771 247,166.808 247,178  Z"/>

<path  fill="#CED307" stroke-width="0" stroke="#CED307" d = " M243 179 C240.818,179 222.972,179.264 221.5,180 219.584,180.958 218.342,184.421 215.5,183 210.034,180.267 206.596,176.048 200.5,173 195.015,170.258 188.453,177.024 184.5,179 179.924,181.288 178.965,184.571 177,188.5 L170,195.5 C166.816,201.867 168,211.369 168,219 168,220.814 160.516,223.008 158.5,222 153.557,219.529 149.416,211.331 147,206.5 145.189,202.878 144.809,198.117 143,194.5 141.007,190.514 137.963,187.426 136,183.5 130.932,173.364 145.78,150.36 154.5,146 154.5,146 166.5,137 166.5,137 168.021,136.24 169.645,137 170.5,137 170.534,137 184.091,129.705 185.5,129 188.83,127.335 193.632,128 196.5,128 198.193,128 202.867,126.816 204.5,126 207.785,124.358 226.347,130.423 229.5,132 234.057,134.279 235.201,139.902 237,143.5 237,143.5 240,144.5 240,144.5 243.618,151.735 243,169.926 243,179  Z"/>

<path  fill="#03C12D" stroke-width="0" stroke="#03C12D" d = " M234 223 L238,219.5 L239,216.5 C244.646,205.208 243.244,227 252,227 253.581,227 270.748,220.376 273.5,219 276.869,217.315 279.242,213.629 282.5,212 283.888,211.306 282.27,208 285,208 285,199.061 302,200.168 302,208 307.648,208 319.391,222 320,222 320,222 323,221 323,221 323,214.902 324,209.455 324,203.5 324,203.5 321,200.5 321,200.5 318.975,196.449 319.004,191.508 317,187.5 317,187.5 313,186.5 313,186.5 313,186.5 312.5,183 312.5,183 312.5,183 309.5,184 309.5,184 309.5,184 306.5,176 306.5,176 304.352,176 298.855,177.678 295.5,176 295.5,176 290.5,173 290.5,173 290.5,173 288.5,175 288.5,175 286.535,175.983 283.549,174.976 281.5,176 281.5,176 276.5,181 276.5,181 275.282,181.609 271.339,178 269,178 269,178 257.5,178 257.5,178 257.5,178 256.5,180 256.5,180 256.5,180 255.5,178 255.5,178 252.351,176.425 253.611,181.721 252,178.5 250.892,176.284 247,180.007 247,178 247,178 243,179 243,179 240.818,179 222.972,179.264 221.5,180 219.584,180.958 218.342,184.421 215.5,183 210.034,180.267 206.596,176.048 200.5,173 195.015,170.258 188.453,177.024 184.5,179 179.924,181.288 178.965,184.571 177,188.5 177,188.5 170,195.5 170,195.5 166.816,201.867 168,211.369 168,219 168,219 169,221 169,221 169,221 176.5,213 176.5,213 183.291,209.604 185.096,205 193,205 193,197.582 208,202.377 208,209 211.104,209 230.316,223 234,223  Z"/>

<path  fill-rule="evenodd" fill="#FF8700" stroke-width="0" stroke="#FF8700" d = " M291 230 C291,233.874 286.053,234.395 285,236.5 284.027,238.445 285.578,240.343 285,241.5 283.47,244.56 281,244.2 281,246.5 281,246.817 273.525,255 278.5,255 L280.5,252 C285.77,252 287.738,245.024 290,240.5 290.485,239.531 295.012,240.476 296,238.5 298.886,232.728 292.967,233.234 292.5,233 L291,230  M195 230 C195,231.816 192.298,232.096 194,235.5 L195.5,235 L196,238.5 C197.191,240.882 198.845,239.173 200.5,240 202.338,240.919 200,242.828 200,243.5 200,245.524 206,247.847 206,250.5 L208.5,251 L210.5,253 C213.141,251.679 207.58,246.66 207,245.5 204.214,239.928 202.005,230 195,230  M244 240 L244.5,259 L245,240 C247.753,240 249.066,231.369 250,229.5 250,229.5 252,227 252,227 253.581,227 270.748,220.376 273.5,219 276.869,217.315 279.242,213.629 282.5,212 283.888,211.306 282.27,208 285,208 285,208 295.5,206 295.5,206 295.5,206 302,208 302,208 307.648,208 319.391,222 320,222 320,224.719 328.389,233.721 325,240.5 319.796,250.908 312.611,260.445 301.5,266 295.631,268.935 292.748,276.376 287.5,279 280.173,282.663 267.521,285.011 259.5,281 251.277,276.889 249.093,261.797 243.5,259 241.973,258.237 236.786,269.928 236,271.5 231.935,279.63 225.381,276.559 220.5,279 220.5,279 217.5,281 217.5,281 213.128,281 212.935,278.217 208.5,276 208.5,276 201.5,277 201.5,277 196.27,274.385 192.806,268.653 187.5,266 187.5,266 183.5,266 183.5,266 178.2,263.35 166.643,244.787 164,239.5 160.977,233.453 169,225.923 169,221 169,221 176.5,213 176.5,213 183.291,209.604 185.096,205 193,205 193,205 197.5,204 197.5,204 200.789,205.644 204.09,209 208,209 211.104,209 230.316,223 234,223 240.335,223 240.292,237 243.5,237 243.5,237 244,240 244,240  Z"/>

<path  fill="#FF4FCE" stroke-width="0" stroke="#FF4FCE" d = " M195 230 C195,231.816 192.298,232.096 194,235.5 L195.5,235 L196,238.5 C197.191,240.882 198.845,239.173 200.5,240 202.338,240.919 200,242.828 200,243.5 200,245.524 206,247.847 206,250.5 L208.5,251 L210.5,253 C213.141,251.679 207.58,246.66 207,245.5 204.214,239.928 202.005,230 195,230  Z"/>

<path  fill="#FF4FCE" stroke-width="0" stroke="#FF4FCE" d = " M291 230 C291,233.874 286.053,234.395 285,236.5 284.027,238.445 285.578,240.343 285,241.5 283.47,244.56 281,244.2 281,246.5 281,246.817 273.525,255 278.5,255 L280.5,252 C285.77,252 287.738,245.024 290,240.5 290.485,239.531 295.012,240.476 296,238.5 298.886,232.728 292.967,233.234 292.5,233 L291,230  Z"/>

<path  fill="#FFE300" stroke-width="0" stroke="#FFE300" d = " M244 240 L245,240 C245,240 244.5,259 244.5,259 244.5,259 244,240 244,240  Z"/>

<path  fill="#30DA00" stroke-width="0" stroke="#30DA00" d = " M286 297 L280.5,300 C279.237,300.631 277,306.135 277,307.5 277,314.478 295,312.202 295,308.5 295,308.351 295.728,300.614 294.5,300 L292,299.5 C290.714,296.928 289.281,297 286,297  Z"/>

<path  fill="#30DA00" stroke-width="0" stroke="#30DA00" d = " M205 298 L202,299.5 L201,309.5 C202.679,312.858 210.006,313 213.5,313 L218,312.5 C218,309.385 219.334,312.832 221,309.5 223.735,304.03 214.71,301.92 214,300.5 L213.5,298 L205,298  Z"/>

<path  fill="#FA8072" stroke-width="0" stroke="#FA8072" d = " M306 298 C306,300.603 304.578,300.657 306,303.5 L305,309.5 C308.408,316.316 314.477,298 306,298  Z"/>

<path  fill="#FA8072" stroke-width="0" stroke="#FA8072" d = " M184 303 C184,313.771 197.073,305 188.5,305 L184,303  Z"/>

<path  fill="#FA8072" stroke-width="0" stroke="#FA8072" d = " M192 309 C192,312.746 194.091,309 192,309  Z"/>

<path  fill-rule="evenodd" fill="#FA8072" stroke-width="0" stroke="#FA8072" d = " M293 383 C293,386.746 295.091,383 293,383  M286 370 C286,370.974 281.781,372.937 281,374.5 278.723,379.055 284,383.83 284,385.5 284,386.854 279.102,389.703 281,393.5 282.745,396.99 285.394,396.447 288.5,398 290.03,398.765 288.219,401.859 290.5,403 L295.5,401 L300.5,403 C305.43,400.535 298.231,393.135 304.5,390 306.038,389.231 308.371,391.242 309,392.5 310.052,394.604 307,395.17 307,396.5 L310.5,398 C313.187,399.343 319.464,396.572 321,393.5 323.88,387.74 311.299,381.899 307.5,380 304.439,378.47 302.851,382.675 301.5,382 301.311,381.905 302.371,375.242 301,372.5 298.742,367.985 293.85,372 291.5,372 289.905,372 288.245,370 286,370  Z"/>

<path  fill="#FA8072" stroke-width="0" stroke="#FA8072" d = " M196 373 L193,375.5 C191.74,378.021 193,378.43 193,380.5 L190,382.5 L188.5,386 L182.5,385 L173,393.5 C171.458,396.584 174.924,402.788 178.5,401 L182.5,398 L185.5,399 C187,399 188.444,395.972 190.5,397 L195.5,401 C197.932,401 200.253,395 200.5,395 206.919,395 204.429,408.535 213.5,404 221.262,400.119 212,394.067 212,393.5 212,391.379 215.015,387.47 216,385.5 221.56,374.38 201.181,373 196,373  Z"/>

</g>
</svg>
