<svg xmlns="http://www.w3.org/2000/svg" xmlns:xlink="http://www.w3.org/1999/xlink" height="512" width="512">
<g>
<rect width="512" height="512" fill="#000000"  stroke-width="0" /> 
<path  fill-rule="evenodd" fill="#FFFF00" stroke-width="0" stroke="#FFFF00" d = " M238 213 L236,214.5 C236,216.702 244.002,213 238,213  M237 192 C237,196.435 229.693,194.903 227.5,196 223.678,197.911 210.918,207.336 214,213.5 215.876,217.251 219.672,217.586 222.5,219 230.578,223.039 244.342,229.079 254.5,224 L259.5,220 C261.994,218.753 267.503,217.494 269,214.5 272.898,206.704 262.604,193 254,193 248.78,193 242.789,192 237,192  Z"/>

<path  fill="#00FFFF" stroke-width="0" stroke="#00FFFF" d = " M238 213 L236,214.5 C236,216.702 244.002,213 238,213  Z"/>

<path  fill-rule="evenodd" fill="#9953FF" stroke-width="0" stroke="#9953FF" d = " M243 263 C243,263.719 234.722,266.389 233.5,267 231.341,268.079 233,270.475 233,271.5 233,271.517 228.512,274.476 228,275.5 226.757,277.986 231.004,283.507 232,285.5 L233.5,290 L236.5,289 C242.407,291.953 244.605,293.948 250.5,291 L255.5,291 C260.104,288.698 257.413,285.674 259,282.5 259.357,281.785 262.608,279.716 262,278.5 259.723,273.946 258.126,269.313 253.5,267 249.761,265.13 247.594,263 243,263  M262 333 L262,335 C270.772,335 280.965,332 288.5,332 290.09,332 301.572,332.464 302.5,332 306.015,330.243 308.36,319.78 310,316.5 311.083,314.333 313,315.715 313,313 305.251,313 315,306.071 315,306 305.024,306 300.913,299.327 297,291.5 297,291.5 288,283.5 288,283.5 288,283.5 291,280.5 291,280.5 290.061,278.623 280,266.564 280,266.5 280,265.544 284.943,262 282,262 282,262 279.5,263 279.5,263 272.432,263 286,252.1 286,252 286,243.689 268.891,246.805 264.5,249 261.021,250.74 256.225,247.138 252.5,249 250.183,250.158 250.662,258.081 244.5,255 242.351,253.925 239.796,250.148 239.5,250 238.534,249.517 234,249.481 234,247.5 234,247.5 234.5,246 234.5,246 231.359,244.43 227.732,246.884 225.5,248 223.82,248.84 211.813,244.343 210.5,245 207.969,246.266 204.175,250 202,250 202,251.636 208,251.514 208,260 208,262.503 211.201,265.099 210,267.5 206.673,274.155 196.114,272.273 192,280.5 187.137,290.227 192.248,300.126 180.5,306 177.932,307.284 174.014,305 172,305 172,306.623 173.457,311 172,311 168.47,311 173.79,313.08 175,315.5 175,315.5 182.5,327 182.5,327 188.379,329.94 194.496,332.998 200.5,336 200.5,336 226,336 226,336 226,336 226,333 226,333 226,333 222.5,334 222.5,334 210.756,334 229,322.702 229,331 231.586,331 237.174,320.663 238.5,320 238.5,320 241,321 241,321 241,315.314 241.583,308.334 244,303.5 244,303.5 244.5,298 244.5,298 244.5,298 246,300 246,300 246,300 247,301 247,301 247,301 249,320 249,320 249,322.635 252.97,321.44 254,323.5 255.298,326.097 257.153,333 261,333 261,333 260,330.5 260,330.5 261.849,326.803 273.242,333 265,333 265,333 262,333 262,333  Z"/>

<path  fill="#FA8072" stroke-width="0" stroke="#FA8072" d = " M172 305 C172,306.623 173.457,311 172,311 172,311 166,307.5 166,307.5 163.184,301.869 160.756,296.012 158,290.5 156.424,287.348 158.802,280.897 160,278.5 168.508,261.484 175.716,256.392 192.5,248 193.037,247.731 199.987,250 202,250 202,251.636 208,251.514 208,260 205.482,260 202.718,256.109 200.5,255 197.316,253.408 191.681,256 189,256 189,256 187,257 187,257 183.77,257 183.793,259.854 181.5,261 171.021,266.239 169.045,271.41 164,281.5 163.133,283.234 163.92,285.661 163,287.5 160.928,291.644 167.235,305 172,305  Z"/>

<path  fill="#FA8072" stroke-width="0" stroke="#FA8072" d = " M315 306 C315,306.071 305.251,313 313,313 327.472,313 335.283,288.066 329,275.5 322.611,262.722 310.194,254.847 298.5,249 298.5,249 286,252 286,252 286,252.1 272.432,263 279.5,263 279.5,263 282,262 282,262 282,252.76 294.567,256 300,256 306.143,256 319.21,266.92 322,272.5 323.841,276.182 324.128,280.756 326,284.5 329.177,290.855 322.952,305 316,305 316,305 315,306 315,306  Z"/>

<path  fill="#5BF1FF" stroke-width="0" stroke="#5BF1FF" d = " M208 260 C208,262.503 211.201,265.099 210,267.5 206.673,274.155 196.114,272.273 192,280.5 187.137,290.227 192.248,300.126 180.5,306 177.932,307.284 174.014,305 172,305 167.235,305 160.928,291.644 163,287.5 163.92,285.661 163.133,283.234 164,281.5 169.045,271.41 171.021,266.239 181.5,261 183.793,259.854 183.77,257 187,257 187,257 189,256 189,256 191.681,256 197.316,253.408 200.5,255 202.718,256.109 205.482,260 208,260  Z"/>

<path  fill="#5BF1FF" stroke-width="0" stroke="#5BF1FF" d = " M316 305 L315,306 C305.024,306 300.913,299.327 297,291.5 297,291.5 288,283.5 288,283.5 288,283.5 291,280.5 291,280.5 290.061,278.623 280,266.564 280,266.5 280,265.544 284.943,262 282,262 282,252.76 294.567,256 300,256 306.143,256 319.21,266.92 322,272.5 323.841,276.182 324.128,280.756 326,284.5 329.177,290.855 322.952,305 316,305  Z"/>

<path  fill-rule="evenodd" fill="#EB57FF" stroke-width="0" stroke="#EB57FF" d = " M244 283 C244,287.123 248.123,283 244,283  M243 263 C243,263.719 234.722,266.389 233.5,267 231.341,268.079 233,270.475 233,271.5 233,271.517 228.512,274.476 228,275.5 226.757,277.986 231.004,283.507 232,285.5 L233.5,290 L236.5,289 C242.407,291.953 244.605,293.948 250.5,291 L255.5,291 C260.104,288.698 257.413,285.674 259,282.5 259.357,281.785 262.608,279.716 262,278.5 259.723,273.946 258.126,269.313 253.5,267 249.761,265.13 247.594,263 243,263  Z"/>

<path  fill="#27F4FD" stroke-width="0" stroke="#27F4FD" d = " M244 283 C244,287.123 248.123,283 244,283  Z"/>

<path  fill="#7209D4" stroke-width="0" stroke="#7209D4" d = " M249 320 C248.346,320 241,326.704 241,321 241,315.314 241.583,308.334 244,303.5 244,303.5 244.5,298 244.5,298 244.5,298 246,300 246,300 246,300 247,301 247,301 247,301 249,320 249,320  Z"/>

<path  fill="#4196FF" stroke-width="0" stroke="#4196FF" d = " M246 300 L247,301 C247,301 246,300 246,300  Z"/>

<path  fill="#9953FF" stroke-width="0" stroke="#9953FF" d = " M316 305 L315,306 C315,306 316,305 316,305  Z"/>

<path  fill="#FF3427" stroke-width="0" stroke="#FF3427" d = " M262 335 C259.202,335 254.484,338.992 250.5,337 245.595,334.547 244.554,327.473 243.5,328 241.88,328.81 241.921,334.789 239.5,336 237.89,336.805 226,340.428 226,336 226,336 226,333 226,333 226,333 227,333 227,333 227,333 228,332 228,332 228,332 229,331 229,331 231.586,331 237.174,320.663 238.5,320 238.5,320 241,321 241,321 241,326.704 248.346,320 249,320 249,322.635 252.97,321.44 254,323.5 255.298,326.097 257.153,333 261,333 261,333 262,333 262,333 262,333 262,335 262,335  Z"/>

<path  fill="#00F60E" stroke-width="0" stroke="#00F60E" d = " M226 333 L227,333 C227,333 228,332 228,332 228,332 229,331 229,331 229,322.702 210.756,334 222.5,334 222.5,334 226,333 226,333  Z"/>

<path  fill="#00F60E" stroke-width="0" stroke="#00F60E" d = " M261 333 L262,333 C262,333 265,333 265,333 273.242,333 261.849,326.803 260,330.5 260,330.5 261,333 261,333  Z"/>

<path  fill="#9953FF" stroke-width="0" stroke="#9953FF" d = " M228 332 L227,333 C227,333 228,332 228,332  Z"/>

</g>
</svg>
