<svg xmlns="http://www.w3.org/2000/svg" xmlns:xlink="http://www.w3.org/1999/xlink" height="512" width="512">
<g>
<rect width="512" height="512" fill="#000000"  stroke-width="0" /> 
<path  fill-rule="evenodd" fill="#86FF5A" stroke-width="0" stroke="#86FF5A" d = " M239 319 C239,320.602 235.942,321.384 237,323.5 243.324,336.148 263.97,319 239,319  M225 287 L224.5,290 C217.314,290 210.445,293 204.5,293 L203.5,295 C192.68,300.41 196.068,304.364 192,312.5 190.254,315.992 195,341.18 195,343.5 L200,349.5 C204.627,358.754 210.804,365.152 220.5,370 L226.5,371 C228.337,371.918 234.192,373.154 236.5,372 L242.5,366 C246.305,364.098 249.431,377.035 257.5,373 L272.5,368 C277.065,365.718 279.471,361.015 283.5,359 284.407,358.546 290,346.953 290,346.5 L293,344.5 C294.704,341.092 295.258,336.985 297,333.5 L297,321 C297,314.58 297.837,302.169 291.5,299 L288.5,299 C286.171,297.835 282.792,293.146 280.5,292 278.363,290.932 274.779,292.639 273.5,292 269.607,290.053 264.641,288 260,288 252.736,288 245.41,291 238.5,291 L235.5,288 C233.258,288 227.837,287 225,287  Z"/>

<path  fill-rule="evenodd" fill="#EB57FF" stroke-width="0" stroke="#EB57FF" d = " M244 324 C244,329.395 247.807,324 244,324  M239 319 C239,320.602 235.942,321.384 237,323.5 243.324,336.148 263.97,319 239,319  Z"/>

<path  fill="#27F4FD" stroke-width="0" stroke="#27F4FD" d = " M244 324 C244,329.395 247.807,324 244,324  Z"/>

</g>
</svg>
