<svg xmlns="http://www.w3.org/2000/svg" xmlns:xlink="http://www.w3.org/1999/xlink" height="512" width="512">
<g>
<rect width="512" height="512" fill="#000000"  stroke-width="0" /> 
<path  fill-rule="evenodd" fill="#03C12D" stroke-width="0" stroke="#03C12D" d = " M188 176 C188,179.13 183.149,179.176 181.5,180 L174.5,187 C173.247,187 172,183.078 172,187.5 172,195.546 182.15,192.825 186.5,195 190.07,196.785 198.594,199 200.5,199 201.239,199 201.965,202.267 204.5,201 209.094,198.703 206.404,193.307 205,190.5 L206,188.5 L202,185.5 C198.827,179.154 196.91,176 188,176  M293 172 L287,176.5 C285.078,180.343 278,200.818 278,204.5 278,205.631 280.622,206.439 281.5,206 284.679,204.411 282.106,202.197 284.5,201 L292.5,200 L294.5,197 C300.375,197 314.164,195 318.5,195 319.166,195 322.594,189.688 322,188.5 L318.5,183 C318.326,183 314,183.863 314,181.5 314,178.531 307.607,175 303,175 299.164,175 298.022,172 293,172  M139 270 C137.376,270 136.25,272 134,272 118.478,272 112.636,255.773 107,244.5 105.541,241.583 103.42,239.341 102,236.5 102,236.5 102,232.5 102,232.5 102,232.5 99,230.5 99,230.5 98.6862,229.872 98.9826,220.465 98,218.5 92.2799,207.06 93.3769,179.746 99,168.5 99,168.5 107,155.5 107,155.5 109.478,150.544 114.779,141.86 120.5,139 124.266,137.117 127.631,133.934 131.5,132 135.08,130.21 143.447,131.027 147.5,129 147.5,129 156.5,119 156.5,119 159.666,117.417 163.174,116.663 166.5,115 166.5,115 170.5,115 170.5,115 179.126,110.687 189.901,111.3 198.5,107 202.173,105.164 223.518,107.509 226.5,109 229.278,110.389 231.784,112.642 234.5,114 238.615,116.058 240.853,124.176 242.5,125 243.236,125.368 247.293,115.103 249.5,114 249.5,114 255.5,109 255.5,109 261.267,106.116 268.668,106.916 274.5,104 277.559,102.47 282.982,105 285.5,105 297.98,105 312.926,110.213 324.5,116 327.802,117.651 333.112,115.306 336.5,117 352.879,125.189 371.717,133.934 380,150.5 380,150.5 388,159.5 388,159.5 390.889,165.277 389.341,173.183 391,176.5 398.209,190.918 398.419,208.662 391,223.5 388.119,229.262 389.29,236.919 386,243.5 386,243.5 381,249.5 381,249.5 379.1,253.301 375.818,261.841 371.5,264 371.5,264 366.5,265 366.5,265 364.074,266.213 361.28,271 357.5,271 357.5,271 350,266 350,266 350,266 344,263 344,263 344,261.571 342.712,259 341,259 336.721,259 333.166,253 329.5,253 328.424,253 325.906,254 324.5,254 324.5,254 320.5,251 320.5,251 317.455,252.523 292.704,249.093 292,250.5 291.576,251.349 286,248.6 286,253 286,253 282,255 282,255 282,252.789 284.36,248.43 281.5,247 276.446,244.473 258.476,248.012 254.5,250 250.489,252.006 249.517,246 247.5,246 247.5,246 245.5,248 245.5,248 243.41,248 243.637,242.432 232.5,248 227.804,250.348 221.923,244.289 218.5,246 213.053,248.724 214.486,260 212,260 212,256.584 208,255.846 208,259 208,259 206,259 206,259 206,255.917 204.358,256.929 202.5,256 202.5,256 202.5,253 202.5,253 199.178,251.339 194.756,251.628 191.5,250 181.475,244.988 161.58,255.46 152.5,260 148.53,261.985 145.777,269 140,269 140,269 139,270 139,270  Z"/>

<path  fill="#FF6E00" stroke-width="0" stroke="#FF6E00" d = " M293 172 L287,176.5 C285.078,180.343 278,200.818 278,204.5 278,205.631 280.622,206.439 281.5,206 284.679,204.411 282.106,202.197 284.5,201 L292.5,200 L294.5,197 C300.375,197 314.164,195 318.5,195 319.166,195 322.594,189.688 322,188.5 L318.5,183 C318.326,183 314,183.863 314,181.5 314,178.531 307.607,175 303,175 299.164,175 298.022,172 293,172  Z"/>

<path  fill="#FF6E00" stroke-width="0" stroke="#FF6E00" d = " M188 176 C188,179.13 183.149,179.176 181.5,180 L174.5,187 C173.247,187 172,183.078 172,187.5 172,195.546 182.15,192.825 186.5,195 190.07,196.785 198.594,199 200.5,199 201.239,199 201.965,202.267 204.5,201 209.094,198.703 206.404,193.307 205,190.5 L206,188.5 L202,185.5 C198.827,179.154 196.91,176 188,176  Z"/>

<path  fill="#E1F00D" stroke-width="0" stroke="#E1F00D" d = " M183 306 C183,310.429 190.724,307.612 193.5,309 198.4,311.45 205.591,318.455 212.5,315 213.983,314.258 237.898,292.704 238,292.5 239.939,288.621 240.6,282.45 245.5,280 246.86,279.32 249.497,284.493 250,285.5 252.737,290.975 253.315,298.408 260.5,302 L265.5,303 C271.987,306.244 274.839,313.67 281.5,317 L285.5,313 C288.643,313 301,315.08 301,308 301,306.386 297.69,307 296.5,307 292.172,307 289.033,306 285,306 278.554,306 270.008,301.754 264.5,299 264.5,299 259,292.5 259,292.5 257.544,289.587 262,290.416 262,288.5 262,286.969 260.059,284.381 261,282.5 263.677,277.146 266.825,265 274,265 274,265 274,263 274,263 274,260.783 279.271,255 282,255 282,252.789 284.36,248.43 281.5,247 276.446,244.473 258.476,248.012 254.5,250 250.489,252.006 249.517,246 247.5,246 247.5,246 245.5,248 245.5,248 243.41,248 243.637,242.432 232.5,248 227.804,250.348 221.923,244.289 218.5,246 213.053,248.724 214.486,260 212,260 212,260 213,265 213,265 213,265 213,267 213,267 213,268.829 218.842,269.185 220,271.5 220,271.5 218,275.5 218,275.5 222.158,283.816 231.299,280.901 225,293.5 223.433,296.634 199.088,301.706 194.5,304 192.962,304.769 183,304.285 183,306  Z"/>

<path  fill="#FF8700" stroke-width="0" stroke="#FF8700" d = " M134 272 C134,275.111 129.05,279.6 130,281.5 131.752,285.003 134.58,287 138.5,287 L141,291.5 C142.724,293.224 148.03,296.765 150.5,298 L152.5,297 L153.5,299 C156.638,300.569 160.223,301.361 163.5,303 168.94,305.72 177.689,306 183,306 183,304.285 192.962,304.769 194.5,304 199.088,301.706 223.433,296.634 225,293.5 231.299,280.901 222.158,283.816 218,275.5 218,275.5 220,271.5 220,271.5 218.842,269.185 213,268.829 213,267 211.049,267 212.523,269.454 212,270.5 211.255,271.989 207.728,273 206,273 206,273 208,275.5 208,275.5 208,275.5 206,277.5 206,277.5 203.164,283.172 199.632,279 195.5,279 195.5,279 190.5,280 190.5,280 183.705,276.603 190.931,267.284 195.5,265 198.304,263.598 200.151,270 203,270 203,267.591 204.277,268.945 205,267.5 205.662,266.176 203.793,261 206,261 206,261 206,259 206,259 206,255.917 204.358,256.929 202.5,256 202.5,256 202.5,253 202.5,253 199.178,251.339 194.756,251.628 191.5,250 181.475,244.988 161.58,255.46 152.5,260 148.53,261.985 145.777,269 140,269 140,269 139,270 139,270 137.376,270 136.25,272 134,272  Z"/>

<path  fill="#FF8700" stroke-width="0" stroke="#FF8700" d = " M283 274 L280,276 C278.215,276 274,266.376 274,265 266.825,265 263.677,277.146 261,282.5 260.059,284.381 262,286.969 262,288.5 262,290.416 257.544,289.587 259,292.5 259,292.5 264.5,299 264.5,299 270.008,301.754 278.554,306 285,306 289.033,306 292.172,307 296.5,307 297.69,307 301,306.386 301,308 306.594,308 308.981,305.259 313.5,303 325.249,297.126 350.8,287.899 357,275.5 359.37,270.761 350,269.409 350,266 350,266 344,263 344,263 344,263 341,259 341,259 336.721,259 333.166,253 329.5,253 328.424,253 325.906,254 324.5,254 324.5,254 320.5,251 320.5,251 317.455,252.523 292.704,249.093 292,250.5 291.576,251.349 286,248.6 286,253 286,254.285 281.274,260 280,260 280,262.936 281.764,262 283,262 283,262 284,263 284,263 284,263 286,267 286,267 288.58,267 289.211,263 292,263 303.301,263 300.725,275.387 293.5,279 291.527,279.986 292.328,277.155 292,276.5 291.076,274.652 289.672,277.586 288.5,277 288.5,277 287.5,275 287.5,275 285.394,273.947 283,278.168 283,274  Z"/>

<path  fill="#022CFF" stroke-width="0" stroke="#022CFF" d = " M207 261 C207,262.473 208.952,262 210,262 210,262 212,260 212,260 212,256.584 208,255.846 208,259 208,259 207,261 207,261  Z"/>

<path  fill="#814FFF" stroke-width="0" stroke="#814FFF" d = " M282 272 C282,273.24 280,273.576 280,276 278.215,276 274,266.376 274,265 274,265 274,263 274,263 274,263 275,263 275,263 275,265.638 277,262.667 277,261 277,258.319 279.078,260 280,260 280,262.936 281.764,262 283,262 283,262 284,263 284,263 284,263 286,267 286,267 284.467,267 282,270.753 282,272  Z"/>

<path  fill="#814FFF" stroke-width="0" stroke="#814FFF" d = " M203 270 L206,273 C207.728,273 211.255,271.989 212,270.5 212.523,269.454 211.049,267 213,267 213,267 213,265 213,265 213,265 210,262 210,262 208.952,262 207,262.473 207,261 207,261 206,261 206,261 203.793,261 205.662,266.176 205,267.5 204.277,268.945 203,267.591 203,270  Z"/>

<path  fill="#022CFF" stroke-width="0" stroke="#022CFF" d = " M277 261 C275.253,261 275,261.253 275,263 275,265.638 277,262.667 277,261  Z"/>

<path  fill="#FF4FCE" stroke-width="0" stroke="#FF4FCE" d = " M282 272 L283,274 C283,278.168 285.394,273.947 287.5,275 287.5,275 288.5,277 288.5,277 289.672,277.586 291.076,274.652 292,276.5 292.328,277.155 291.527,279.986 293.5,279 300.725,275.387 303.301,263 292,263 289.211,263 288.58,267 286,267 284.467,267 282,270.753 282,272  Z"/>

<path  fill="#FF4FCE" stroke-width="0" stroke="#FF4FCE" d = " M203 270 L206,273 C206,273 208,275.5 208,275.5 208,275.5 206,277.5 206,277.5 203.164,283.172 199.632,279 195.5,279 195.5,279 190.5,280 190.5,280 183.705,276.603 190.931,267.284 195.5,265 198.304,263.598 200.151,270 203,270  Z"/>

<path  fill="#30DA00" stroke-width="0" stroke="#30DA00" d = " M228 314 C228,316.887 221.067,317.633 223,321.5 230.109,335.717 252.614,314 228,314  Z"/>

<path  fill="#267EFF" stroke-width="0" stroke="#267EFF" d = " M261 316 L265,316 C265,313.289 261,314.491 261,316  Z"/>

<path  fill="#267EFF" stroke-width="0" stroke="#267EFF" d = " M258 316 L257,317 C257,317 258,316 258,316  Z"/>

<path  fill="#30DA00" stroke-width="0" stroke="#30DA00" d = " M257 317 C257,326.048 267,323.848 267,317 267,317 265,316 265,316 265,316 261,316 261,316 261,316 258,316 258,316 258,316 257,317 257,317  Z"/>

<path  fill-rule="evenodd" fill="#267EFF" stroke-width="0" stroke="#267EFF" d = " M258 324 C258,326.091 261.746,324 258,324  M257 317 C253.854,317 254.228,321.957 255,323.5 256.236,325.973 267.342,326.579 268.5,326 270.417,325.041 266,325.081 266,324.5 L269.5,323 C271.779,320.721 270.995,317 267,317 267,323.848 257,326.048 257,317  Z"/>

<path  fill="#FA8072" stroke-width="0" stroke="#FA8072" d = " M305 324 L302,327.5 L304,332 C304,334.014 301.716,337.932 303,340.5 303.978,342.456 309,340.769 309,344.5 309,346.763 307.816,356.342 314.5,353 318.814,350.843 316.325,345.15 315,342.5 312.772,338.044 322.648,334.074 308.5,327 307.272,326.386 307.224,324 305,324  Z"/>

<path  fill="#FA8072" stroke-width="0" stroke="#FA8072" d = " M190 326 L186.5,329 C185.036,329 178.526,334.513 183.5,337 187.051,338.776 195.986,332.486 191.5,328 L190,326  Z"/>

<path  fill="#FA8072" stroke-width="0" stroke="#FA8072" d = " M286 365 L281,369.5 C279.919,371.661 282,383.299 282,386 282,387.606 279.919,390.339 281,392.5 285.66,401.82 290.876,392.688 293.5,394 296.31,395.405 302.584,399.331 305,394.5 306.366,391.768 301.159,391.183 303,387.5 304.177,385.145 313.058,385.384 316,379.5 320.986,369.527 307.027,371.763 305.5,371 L300.5,366 C297.87,364.685 295.361,369.931 293.5,369 290.292,367.396 289.985,365 286,365  Z"/>

<path  fill-rule="evenodd" fill="#FA8072" stroke-width="0" stroke="#FA8072" d = " M185 385 C185,386.93 186.93,385 185,385  M209 370 L198.5,376 C193.862,373.681 194.565,376 190.5,376 187.602,376 188.596,371 186.5,371 184.671,371 176.155,373.19 175,375.5 172.639,380.222 180,381.427 180,384.5 180,386.01 174.033,386.567 177,392.5 179.959,398.418 185.141,392.782 183,388.5 L184.5,386 C187.726,386 184.096,390.298 185.5,391 L189.5,388 L192,392.5 C194.172,396.845 207.867,401.816 213.5,399 216.227,397.637 220.299,370 209,370  Z"/>

</g>
</svg>
