<svg xmlns="http://www.w3.org/2000/svg" xmlns:xlink="http://www.w3.org/1999/xlink" height="512" width="512">
<g>
<rect width="512" height="512" fill="#000000"  stroke-width="0" /> 
<path  fill-rule="evenodd" fill="#86FF5A" stroke-width="0" stroke="#86FF5A" d = " M291 375 C291,378.746 293.091,375 291,375  M240 372 C240,374.973 236.988,379 240.5,379 242.159,379 243.509,385.496 246.5,384 252.99,380.755 248.17,372 240,372  M238 333 C238,335.357 231.971,334.264 230.5,335 228.936,335.782 226.962,335.269 225.5,336 L223.5,339 L218.5,339 L218.5,341 L213.5,342 L213.5,344 C204.33,348.585 203.638,357.223 199,366.5 L199,375.5 C191.849,389.801 202.173,410.837 214.5,417 218.964,419.232 229.381,427.059 235.5,424 L243,420.5 L245.5,416 C247.651,416 251.737,422.619 254.5,424 260.524,427.012 282.864,413.772 285,409.5 288.938,401.624 297.236,384.972 292,374.5 L292,364.5 L289,362.5 C287.768,360.036 287.312,357.124 286,354.5 284.465,351.43 281.589,348.678 280,345.5 L278.5,341 C267.787,335.643 252.187,333 238,333  Z"/>

<path  fill="#EB57FF" stroke-width="0" stroke="#EB57FF" d = " M240 372 C240,374.973 236.988,379 240.5,379 242.159,379 243.509,385.496 246.5,384 252.99,380.755 248.17,372 240,372  Z"/>

</g>
</svg>
