<svg xmlns="http://www.w3.org/2000/svg" xmlns:xlink="http://www.w3.org/1999/xlink" height="512" width="512">
<g>
<rect width="512" height="512" fill="#000000"  stroke-width="0" /> 
<path  fill-rule="evenodd" fill="#FFFF00" stroke-width="0" stroke="#FFFF00" d = " M381 187 L381.5,193 C382.149,193 382.747,187 381,187  M205 92 C205,93.93 206.93,92 205,92  M96 208 C96,206.423 93.4614,206.423 92,203.5 L90,180 L89,173.5 C91.2454,169.009 91.7377,164.025 94,159.5 99.34,148.82 108.731,162.037 114,151.5 118.391,142.718 114.053,120 130.5,120 L131,123.5 C128.706,128.087 122.458,134.416 125,139.5 125.476,140.453 125.372,144 127.5,144 133.7,144 138.722,141.056 142,134.5 143.16,132.18 137.965,115.733 144.5,119 151.846,122.673 144.399,134.298 147,139.5 L150,148.5 C151.152,150.805 168.759,160 171.5,160 175.788,160 178.804,150.108 177,146.5 174.251,141.003 168.991,137.483 166,131.5 162.912,125.324 165.743,121.622 158.5,118 156.277,116.888 156.786,110.857 158.5,110 163.28,107.61 180.2,102.9 183,108.5 185.004,112.508 179.717,112.066 179,113.5 177.856,115.788 181,115.7 181,116.5 L177,118.5 C177,121.03 179.545,119.411 178,122.5 L181,129.5 C182.919,133.338 183.429,155.535 190.5,152 198.428,148.036 196,143.181 196,136.5 196,132.333 200.163,126.174 202,122.5 204.35,117.801 211.711,116.895 215.5,115 218.63,113.435 221.348,111.576 224.5,110 225.719,109.391 236.859,110.32 237.5,110 243.849,106.825 264.698,107 272.5,107 L273.5,109 C276.19,110.345 279.758,110.629 282.5,112 284.832,113.166 285.162,125.823 286,127.5 L289,131.5 L287,137.5 C288.311,140.123 292.22,151.14 296.5,149 305.757,144.371 304,130.761 304,123.5 L306,116.5 C304.894,114.288 299.82,105.859 300,105.5 300.849,103.802 301.849,106 302.5,106 304.167,106 304.009,102.745 305.5,102 309.266,100.117 317.052,103.776 319.5,105 325.429,107.964 323.614,118.271 321,123.5 L317,125.5 L316.5,128 C315.65,128 314,126.65 314,127.5 314,133.062 305.456,145.978 315.5,151 320.067,153.283 326.795,145 327.5,145 L329.5,146 C330.514,145.493 336.15,132.201 338,128.5 340.134,124.231 333.628,116.936 339.5,114 339.705,113.898 343.872,114.244 344,114.5 346.324,119.148 339.372,118.243 342,123.5 345.859,131.217 347.296,131 354.5,131 L355.5,133 L356,125.5 C355.022,123.544 355.076,129 354.5,129 354.099,129 352.878,118 354.5,118 361.651,118 369.204,129.908 372,135.5 L382,144.5 C384.292,149.084 389.083,153.666 391,157.5 393.345,162.189 391.328,173.157 394,178.5 395.709,181.918 391.562,200.624 388,193.5 387.071,191.641 384,171.213 384,168.5 384,163.176 365.431,147.465 360.5,145 357.153,143.327 349.818,134.841 345.5,137 343.029,138.235 342.977,149 346.5,149 L347.5,143 C348.431,143 347.338,152.919 349.5,154 355.555,157.027 379.115,173.269 374,183.5 371.882,187.737 361.059,180.559 359.5,179 351.659,171.159 344.144,170.322 335.5,166 334.002,165.251 331.254,170.877 327.5,169 324.818,167.659 312.194,161.112 310,165.5 305.892,173.716 319.771,185.135 325.5,188 332.733,191.617 346.928,190.214 350.5,192 L361.5,199 L363.5,197 L364,199.5 L369.5,204 C373.668,206.084 372.486,203.473 374,206.5 375.359,209.219 384.471,218.558 383,221.5 378.889,229.721 369.898,217.699 366.5,216 357.561,211.53 345.311,214.405 336.5,210 L324.5,201 C321.811,199.656 318.16,199.33 315.5,198 L315,193.5 C313.527,190.554 304.803,176.848 300.5,179 286.723,185.888 315.825,199.15 317,201.5 L323,212.5 C323.319,213.138 321.292,220 323.5,220 327.9,220 335.092,226 340.5,226 341.227,226 356.712,226.606 357.5,227 L358.5,230 C361.231,231.366 361.139,227.778 363,231.5 364.271,234.042 357.196,239 355.5,239 L354,236.5 C352.81,234.12 351.805,238 351.5,238 L349.5,235 C347.035,235 342.102,234 338.5,234 L336.5,236 C335.358,236 324,221.581 324,233 326.903,233 332.197,239 333.5,239 341.037,239 350.264,245 358.5,245 362.601,245 368,237.508 368,233.5 368,233.5 366,232.5 366,232.5 365.426,231.353 365.667,225 367.5,225 369.04,225 368.163,233 370.5,233 379.509,233 382.495,233.51 387,224.5 388.947,220.606 382.723,215.054 385,210.5 385,210.5 387,210.5 387,210.5 387,210.5 386.5,205 386.5,205 386.5,205 385.5,207 385.5,207 385.5,207 385,203.5 385,203.5 384.188,201.876 380.856,199.788 382,197.5 384.576,192.348 388.248,203.126 392.5,201 395.086,199.707 397,177.854 397,173.5 397,159.97 383.881,135.19 375.5,131 371.535,129.017 370.567,122.033 366.5,120 358.171,115.835 348.792,114.146 340.5,110 340.5,110 330.5,110 330.5,110 330.5,110 327.5,105 327.5,105 321.236,101.868 311.065,96.2175 303.5,100 301.767,100.867 295,99.9156 295,103 295,103 295,104 295,104 296.609,104 292,114.159 292,104 292,104 292,103 292,103 289.315,103 287.937,96.7185 286.5,96 283.028,94.264 278.346,92.4231 275.5,91 274.991,90.7454 266.271,91 265.5,91 265.5,91 255.5,86 255.5,86 252.002,84.2512 233.586,84.957 229.5,87 224.945,89.2775 218.334,85.0831 214.5,87 214.5,87 212.5,90 212.5,90 207.934,92.2832 207.334,89.0831 205.5,90 202.594,91.4531 205.03,93.2349 203.5,94 201.654,94.923 199.255,95.1223 197.5,96 197.5,96 198,98.5 198,98.5 198,98.5 194.5,102 194.5,102 194.5,102 192.5,100 192.5,100 192.5,100 189.5,103 189.5,103 188.508,103.496 168.334,102 166.5,102 157.816,102 150.489,115.506 149.5,116 146.72,117.39 138.514,118 135.5,118 135.5,118 134.5,116 134.5,116 131.775,116 127.718,118 125.5,118 125.335,118 115.267,127.616 114.5,128 112.882,128.809 112.635,128 111.5,128 110.77,128 108.805,136.347 107.5,137 105.212,138.144 105.3,135 104.5,135 102.684,135 103.383,137.734 103,138.5 103,138.5 98,143.5 98,143.5 98,143.5 98,148.5 98,148.5 98,148.5 95,148.5 95,148.5 93.3974,151.705 91.7093,155.081 90,158.5 90,158.5 90,166.5 90,166.5 89.9287,166.643 88.0139,167.472 87,169.5 87,169.5 87,198.5 87,198.5 87,198.5 89,197.5 89,197.5 89,197.5 89,204.5 89,204.5 90.1807,206.861 92.2587,208 93.5,208 93.9948,208 96,210.466 96,208  Z"/>

<path  fill-rule="evenodd" fill="#00FFFF" stroke-width="0" stroke="#00FFFF" d = " M198 217 C198,218.93 199.93,217 198,217  M228 204 L224,206 C219.6,206 214.224,207.138 210.5,209 209.25,209.625 204.227,207.954 206,211.5 207.46,214.419 209.949,214 212.5,214 L213.5,216 L215.5,214 L216.5,217 C216.81,217.155 221.173,215 222.5,215 L225.5,218 L228.5,216 L231.5,218 C234.686,219.593 246.356,215.428 251.5,218 253.29,218.895 266.618,216.559 269.5,218 272.357,219.428 279.991,216.254 282.5,215 L288,212.5 C288,209.495 280.912,208 279,208 277.194,208 253.161,205.331 252.5,205 249.743,203.621 233.135,204 228,204  M183 184 L178,191.5 C178,192.935 181.531,193.484 182.5,193 186.071,191.214 188.248,184 183,184  M275 134 C275,136.344 264.356,137.072 262.5,138 253.287,142.606 241.733,142.384 232.5,147 230.791,147.854 222,148.334 222,151.5 222,157.199 234.042,155.271 237.5,157 L238.5,162 C240.108,162 246.93,154.285 249.5,153 258.984,148.258 271.042,148.729 280.5,144 284.992,141.754 280.568,134 275,134  M257 118 L255.5,120 L250.5,120 C249.21,120.645 246.761,124 244.5,124 239.188,124 223.109,125.196 213.5,130 210.164,131.668 203.199,134.899 206,140.5 208.094,144.687 213.909,141 217.5,141 229.276,141 242.617,137.942 252.5,133 255.684,131.408 263.434,122.967 259.5,121 L257,118  M166 230 C164.468,230 165.05,231 163,231 163,230.104 161,227.974 161,230 155.037,230 151.118,235 144.5,235 144.5,235 131.5,235 131.5,235 126.395,235 121.694,235.097 117.5,233 117.018,232.759 111.704,228 114.5,228 114.5,228 115.5,230 115.5,230 130.883,230 141.335,229.083 155.5,222 160.504,219.498 165.07,215.639 162,209.5 161.247,207.994 149.981,213.259 148.5,214 148.5,214 147.5,216 147.5,216 142.441,216 111,216.754 111,225 111,225 109,225 109,225 109,225 108,223 108,223 108,219.865 106,222.821 106,221 106,221 113,212.5 113,212.5 122.587,193.325 137.494,203.503 146.5,199 146.5,199 159.5,193 159.5,193 163.776,190.862 175.692,179.883 173,174.5 171.627,171.754 161.966,176.267 160.5,177 154.881,179.81 135.585,176.458 132.5,178 132.5,178 126.5,182 126.5,182 126.5,182 113,195.5 113,195.5 113,195.5 107.5,199 107.5,199 104.731,197.615 108.338,188.824 109,187.5 114.625,176.249 125.026,173.474 134,164.5 135.896,162.604 137.883,156.266 137,154.5 137,154.5 136.5,152 136.5,152 115.703,152 108.468,170.563 100,187.5 100,187.5 100,198.5 100,198.5 98.6931,201.114 98,203.834 98,207 98,207 97,208 97,208 97,208 96,208 96,208 96,206.423 93.4614,206.423 92,203.5 92,203.5 90,180 90,180 90,180 89,173.5 89,173.5 91.2454,169.009 91.7377,164.025 94,159.5 99.34,148.82 108.731,162.037 114,151.5 118.391,142.718 114.053,120 130.5,120 130.5,120 131,123.5 131,123.5 128.706,128.087 122.458,134.416 125,139.5 125.476,140.453 125.372,144 127.5,144 133.7,144 138.722,141.056 142,134.5 143.16,132.18 137.965,115.733 144.5,119 151.846,122.673 144.399,134.298 147,139.5 147,139.5 150,148.5 150,148.5 151.152,150.805 168.759,160 171.5,160 175.788,160 178.804,150.108 177,146.5 174.251,141.003 168.991,137.483 166,131.5 162.912,125.324 165.743,121.622 158.5,118 156.277,116.888 156.786,110.857 158.5,110 163.28,107.61 180.2,102.9 183,108.5 185.004,112.508 179.717,112.066 179,113.5 177.856,115.788 181,115.7 181,116.5 181,116.5 177,118.5 177,118.5 177,121.03 179.545,119.411 178,122.5 178,122.5 181,129.5 181,129.5 182.919,133.338 183.429,155.535 190.5,152 198.428,148.036 196,143.181 196,136.5 196,132.333 200.163,126.174 202,122.5 204.35,117.801 211.711,116.895 215.5,115 218.63,113.435 221.348,111.576 224.5,110 225.719,109.391 236.859,110.32 237.5,110 243.849,106.825 264.698,107 272.5,107 272.5,107 273.5,109 273.5,109 276.19,110.345 279.758,110.629 282.5,112 284.832,113.166 285.162,125.823 286,127.5 286,127.5 289,131.5 289,131.5 289,131.5 287,137.5 287,137.5 288.311,140.123 292.22,151.14 296.5,149 305.757,144.371 304,130.761 304,123.5 304,123.5 306,116.5 306,116.5 304.894,114.288 299.82,105.859 300,105.5 300.849,103.802 301.849,106 302.5,106 304.167,106 304.009,102.745 305.5,102 309.266,100.117 317.052,103.776 319.5,105 325.429,107.964 323.614,118.271 321,123.5 321,123.5 317,125.5 317,125.5 317,125.5 316.5,128 316.5,128 315.65,128 314,126.65 314,127.5 314,133.062 305.456,145.978 315.5,151 320.067,153.283 326.795,145 327.5,145 327.5,145 329.5,146 329.5,146 330.514,145.493 336.15,132.201 338,128.5 340.134,124.231 333.628,116.936 339.5,114 339.705,113.898 343.872,114.244 344,114.5 346.324,119.148 339.372,118.243 342,123.5 345.859,131.217 347.296,131 354.5,131 354.5,131 355.5,133 355.5,133 355.5,133 356,125.5 356,125.5 355.022,123.544 355.076,129 354.5,129 354.099,129 352.878,118 354.5,118 361.651,118 369.204,129.908 372,135.5 372,135.5 382,144.5 382,144.5 384.292,149.084 389.083,153.666 391,157.5 393.345,162.189 391.328,173.157 394,178.5 395.709,181.918 391.562,200.624 388,193.5 387.071,191.641 384,171.213 384,168.5 384,163.176 365.431,147.465 360.5,145 357.153,143.327 349.818,134.841 345.5,137 343.029,138.235 342.977,149 346.5,149 346.5,149 347.5,143 347.5,143 348.431,143 347.338,152.919 349.5,154 355.555,157.027 379.115,173.269 374,183.5 371.882,187.737 361.059,180.559 359.5,179 351.659,171.159 344.144,170.322 335.5,166 334.002,165.251 331.254,170.877 327.5,169 324.818,167.659 312.194,161.112 310,165.5 305.892,173.716 319.771,185.135 325.5,188 332.733,191.617 346.928,190.214 350.5,192 350.5,192 361.5,199 361.5,199 361.5,199 363.5,197 363.5,197 363.5,197 364,199.5 364,199.5 364,199.5 369.5,204 369.5,204 373.668,206.084 372.486,203.473 374,206.5 375.359,209.219 384.471,218.558 383,221.5 378.889,229.721 369.898,217.699 366.5,216 357.561,211.53 345.311,214.405 336.5,210 336.5,210 324.5,201 324.5,201 321.811,199.656 318.16,199.33 315.5,198 315.5,198 315,193.5 315,193.5 313.527,190.554 304.803,176.848 300.5,179 286.723,185.888 315.825,199.15 317,201.5 317,201.5 323,212.5 323,212.5 323.319,213.138 321.292,220 323.5,220 327.9,220 335.092,226 340.5,226 341.227,226 356.712,226.606 357.5,227 357.5,227 358.5,230 358.5,230 361.231,231.366 361.139,227.778 363,231.5 364.271,234.042 357.196,239 355.5,239 355.5,239 354,236.5 354,236.5 352.81,234.12 351.805,238 351.5,238 351.5,238 349.5,235 349.5,235 347.035,235 342.102,234 338.5,234 338.5,234 336.5,236 336.5,236 335.358,236 324,221.581 324,233 324,233 316.5,226 316.5,226 314.383,224.941 294.694,215 294.5,215 294.5,215 292.5,218 292.5,218 290.45,218 290,214.51 290,219 290,219 288,219.5 288,219.5 288,219.5 287.5,214 287.5,214 287.5,214 287,217.5 287,217.5 287,217.5 283,220.5 283,220.5 283,222.397 289.185,224.657 284.5,227 284.5,227 277.5,227 277.5,227 271.575,229.962 268.323,229 262.5,229 262.5,229 256.5,232 256.5,232 255.797,232.352 240.958,232 239.5,232 239.5,232 228.5,229 228.5,229 228.5,229 213.5,229 213.5,229 210.685,229 205.648,231.574 202.5,230 199.857,228.679 198.114,224.728 197,222.5 197,222.5 196.5,218 196.5,218 196.5,218 194.5,223 194.5,223 192.24,223 191,218.42 191,222.5 191,222.5 191,228 191,228 188.812,228 187.023,223.546 186,221.5 186,221.5 185.5,219 185.5,219 185.5,219 183.5,221 183.5,221 181.342,222.079 178.73,222.885 176.5,224 176.5,224 175.5,226 175.5,226 175.5,226 173.5,225 173.5,225 172.841,225.329 170.522,230 170.5,230 170.5,230 169,229 169,229 169,227.814 168,227.814 168,229 168,229 167,229 167,229 167,229 166,230 166,230  Z"/>

<path  fill="#00FFFF" stroke-width="0" stroke="#00FFFF" d = " M292 104 L295,104 C295,104 295,103 295,103 295,103 292,103 292,103 292,103 292,104 292,104  Z"/>

<path  fill="#FFFF00" stroke-width="0" stroke="#FFFF00" d = " M257 118 L255.5,120 L250.5,120 C249.21,120.645 246.761,124 244.5,124 239.188,124 223.109,125.196 213.5,130 210.164,131.668 203.199,134.899 206,140.5 208.094,144.687 213.909,141 217.5,141 229.276,141 242.617,137.942 252.5,133 255.684,131.408 263.434,122.967 259.5,121 L257,118  Z"/>

<path  fill="#FFFF00" stroke-width="0" stroke="#FFFF00" d = " M275 134 C275,136.344 264.356,137.072 262.5,138 253.287,142.606 241.733,142.384 232.5,147 230.791,147.854 222,148.334 222,151.5 222,157.199 234.042,155.271 237.5,157 L238.5,162 C240.108,162 246.93,154.285 249.5,153 258.984,148.258 271.042,148.729 280.5,144 284.992,141.754 280.568,134 275,134  Z"/>

<path  fill="#FFFF00" stroke-width="0" stroke="#FFFF00" d = " M98 207 C102.335,207 98.721,204 101.5,204 L103,206.5 C104.193,208.886 101.212,221 106,221 106,221 113,212.5 113,212.5 122.587,193.325 137.494,203.503 146.5,199 146.5,199 159.5,193 159.5,193 163.776,190.862 175.692,179.883 173,174.5 171.627,171.754 161.966,176.267 160.5,177 154.881,179.81 135.585,176.458 132.5,178 132.5,178 126.5,182 126.5,182 126.5,182 113,195.5 113,195.5 113,195.5 107.5,199 107.5,199 104.731,197.615 108.338,188.824 109,187.5 114.625,176.249 125.026,173.474 134,164.5 135.896,162.604 137.883,156.266 137,154.5 137,154.5 136.5,152 136.5,152 115.703,152 108.468,170.563 100,187.5 100,187.5 100,198.5 100,198.5 98.6931,201.114 98,203.834 98,207  Z"/>

<path  fill="#FFFF00" stroke-width="0" stroke="#FFFF00" d = " M183 184 L178,191.5 C178,192.935 181.531,193.484 182.5,193 186.071,191.214 188.248,184 183,184  Z"/>

<path  fill="#00FFFF" stroke-width="0" stroke="#00FFFF" d = " M381 187 L381.5,193 C382.149,193 382.747,187 381,187  Z"/>

<path  fill="#FFFF00" stroke-width="0" stroke="#FFFF00" d = " M228 204 L224,206 C219.6,206 214.224,207.138 210.5,209 209.25,209.625 204.227,207.954 206,211.5 207.46,214.419 209.949,214 212.5,214 L213.5,216 L215.5,214 L216.5,217 C216.81,217.155 221.173,215 222.5,215 L225.5,218 L228.5,216 L231.5,218 C234.686,219.593 246.356,215.428 251.5,218 253.29,218.895 266.618,216.559 269.5,218 272.357,219.428 279.991,216.254 282.5,215 L288,212.5 C288,209.495 280.912,208 279,208 277.194,208 253.161,205.331 252.5,205 249.743,203.621 233.135,204 228,204  Z"/>

<path  fill="#FFFF00" stroke-width="0" stroke="#FFFF00" d = " M98 207 L97,208 C97,210.029 98,208.058 98,207  Z"/>

<path  fill="#FFFF00" stroke-width="0" stroke="#FFFF00" d = " M111 225 L113,228.5 L113,233.5 C118.23,243.96 127.511,245 136.5,245 139.022,245 139.03,242 144.5,242 L147.5,238 C151.324,236.088 161,234.966 161,230 155.037,230 151.118,235 144.5,235 144.5,235 131.5,235 131.5,235 126.395,235 121.694,235.097 117.5,233 117.018,232.759 111.704,228 114.5,228 114.5,228 115.5,230 115.5,230 130.883,230 141.335,229.083 155.5,222 160.504,219.498 165.07,215.639 162,209.5 161.247,207.994 149.981,213.259 148.5,214 148.5,214 147.5,216 147.5,216 142.441,216 111,216.754 111,225  Z"/>

<path  fill="#FFFF00" stroke-width="0" stroke="#FFFF00" d = " M290 219 L288,219.5 L287.5,214 L287,217.5 L283,220.5 C283,222.397 289.185,224.657 284.5,227 L277.5,227 C271.575,229.962 268.323,229 262.5,229 L256.5,232 C255.797,232.352 240.958,232 239.5,232 L228.5,229 L213.5,229 C210.685,229 205.648,231.574 202.5,230 199.857,228.679 198.114,224.728 197,222.5 L196.5,218 L194.5,223 C192.24,223 191,218.42 191,222.5 L191,228 C191,228 195.5,232 195.5,232 197.867,232 200.664,233.082 204.5,235 204.5,235 228.5,235 228.5,235 235.575,238.537 256.379,241.56 265.5,237 268.416,235.542 268.87,234 272.5,234 276.315,234 292,230.731 292,226.5 292,225.811 293.636,222.771 293,221.5 293,221.5 290,219 290,219  Z"/>

<path  fill="#FFFF00" stroke-width="0" stroke="#FFFF00" d = " M198 217 C198,218.93 199.93,217 198,217  Z"/>

<path  fill-rule="evenodd" fill="#FFFF00" stroke-width="0" stroke="#FFFF00" d = " M54 231 C54,235.505 41.617,240.059 53.5,246 60.7622,249.631 71.3388,246.419 78.5,250 79.7576,250.629 81.7691,252.962 81,254.5 77.0428,262.414 59.0982,258.799 53.5,256 51.5221,255.011 45.4697,253.561 44,256.5 39.0806,266.339 46.1039,271.698 55.5,267 57.8579,265.821 66.0691,266.362 64,270.5 61.9816,274.537 44.9105,276.321 47,280.5 48.3286,283.157 49.2248,284 50.5,284 52.9157,284 54.1644,288.668 57.5,287 60.9497,285.275 63.1371,272.819 69.5,276 74.5024,278.501 70.6187,282.263 69,285.5 68.5886,286.323 67.3035,290.402 68.5,291 75.5221,294.511 87.2167,292.142 93.5,289 95.1252,288.187 101,286.684 101,284.5 101,265.923 82.4522,285.404 75,270.5 69.9909,260.482 89.6013,265.949 91.5,265 96.2639,262.618 89.0344,254.431 91,250.5 91.5987,249.303 97.9886,248.477 97,246.5 96.5539,245.608 84.596,246.548 81.5,245 76.0409,242.27 70.8661,239.683 65.5,237 L59.5,231 L54,231  M72 223 C72,224.606 69.9193,227.339 71,229.5 L75.5,232 C85.1724,236.836 82.3618,224.431 81.5,224 78.9704,222.735 74.1404,223 72,223  M72 296 L73,297 C81.289,297 100.08,295.339 105,285.5 106.78,281.94 103.088,273.676 102,271.5 101.897,271.294 99.1625,271.825 98,269.5 95.7467,264.993 100.42,260.66 102,257.5 103.619,254.263 100,251.395 100,249 100,249 100,248 100,248 96.0333,248 97.1038,238.708 96,236.5 96,236.5 93,234.5 93,234.5 92.6112,233.722 91.6529,229 90.5,229 90.5,229 89.5,231 89.5,231 89.5,231 86,228.5 86,228.5 86,228.5 88,226.5 88,226.5 88,226.5 85.5,225 85.5,225 83.5805,224.04 84.6591,222.818 84,221.5 82.2271,217.954 76.1549,221 75.5,221 74.112,221 71.5284,218.986 69.5,220 69.5,220 62,225.5 62,225.5 62,225.5 61.5,228 61.5,228 61.5,228 55.5,227 55.5,227 49.1489,230.176 48.6395,235.221 46,240.5 43.3636,245.773 52.6585,249.183 52,250.5 50.8795,252.741 46.741,249.879 44.5,251 41.1309,252.685 36.2087,264.917 39,270.5 40.736,273.972 48.7169,272.934 49,273.5 49.7523,275.005 41.6089,275.718 44,280.5 48.3499,289.2 56.3434,289 63.5,289 64.49,289 67.7188,296 72,296  Z"/>

<path  fill="#00FFFF" stroke-width="0" stroke="#00FFFF" d = " M72 223 C72,224.606 69.9193,227.339 71,229.5 L75.5,232 C85.1724,236.836 82.3618,224.431 81.5,224 78.9704,222.735 74.1404,223 72,223  Z"/>

<path  fill="#FFFF00" stroke-width="0" stroke="#FFFF00" d = " M108 223 L109,225 C109,225 108,223 108,223  Z"/>

<path  fill-rule="evenodd" fill="#FFFF00" stroke-width="0" stroke="#FFFF00" d = " M393 249 L392,252.5 L398.5,254 C402.591,256.045 400.537,259.575 402,262.5 L404.5,261 L406,270.5 C404.848,272.804 389.951,268.775 385.5,271 380.259,273.62 386.005,290.747 393.5,287 397.458,285.021 395.614,281.271 398,276.5 399.418,273.665 401.387,277 402.5,277 L403.5,275 L405.5,277 C409.088,278.794 406.345,284.81 405,287.5 L406.5,290 C412.327,292.914 427.336,292.829 431,285.5 435.645,276.21 412,283.166 412,270.5 L412,265.5 C413.543,262.414 414.253,268.876 414.5,269 416.17,269.835 418.498,268 419.5,268 424.312,268 433.006,276.488 437,268.5 443.349,255.801 412.547,259 408.5,259 405.264,259 399.673,249 393,249  M421 233 C421,235.923 413.192,241.654 410.5,243 L409.5,245 C408.849,245 407.849,242.802 407,244.5 L407,247.5 L402,250.5 L406,251 C410.717,251 412.589,249 415.5,249 420.234,249 429.208,252.146 433.5,250 442.695,245.403 426.819,233 421,233  M403 230 C403,230.414 390.137,238.318 395.5,241 399.25,242.875 404.991,235.254 407.5,234 408.156,233.672 409.632,230.566 408.5,230 407.855,229.677 403.628,230 403,230  M418 228 C418,229.93 419.93,228 418,228  M391 250 C391,251.048 391.473,253 390,253 390,262.417 372.601,266.703 380,281.5 380,281.5 380,285.5 380,285.5 385.226,295.952 397.738,289.119 401.5,291 411.017,295.758 428.559,298.382 435,285.5 435,285.5 437,278.5 437,278.5 436.524,277.547 432.957,278.586 434,276.5 434,276.5 437.5,275 437.5,275 437.997,274.752 440.548,269.405 441,268.5 441,268.5 438.5,258 438.5,258 438.5,258 434,255.5 434,255.5 434,254.126 437.385,255.729 438,254.5 439.296,251.908 441.745,244.989 440,241.5 436.057,233.615 431.728,229 423.5,229 422.17,229 418.075,223 414.5,223 414.5,223 410.5,225 410.5,225 394.928,225 391,233.758 391,250  Z"/>

<path  fill="#FFFF00" stroke-width="0" stroke="#FFFF00" d = " M168 229 C168,230.186 169,230.186 169,229 169,227.814 168,227.814 168,229  Z"/>

<path  fill="#FFFF00" stroke-width="0" stroke="#FFFF00" d = " M161 230 L163,231 C163,230.104 161,227.974 161,230  Z"/>

<path  fill="#FFFF00" stroke-width="0" stroke="#FFFF00" d = " M167 229 L166,230 C166,234.271 167,232.107 167,229  Z"/>

<path  fill="#00FFFF" stroke-width="0" stroke="#00FFFF" d = " M403 230 C403,230.414 390.137,238.318 395.5,241 399.25,242.875 404.991,235.254 407.5,234 408.156,233.672 409.632,230.566 408.5,230 407.855,229.677 403.628,230 403,230  Z"/>

<path  fill="#00FFFF" stroke-width="0" stroke="#00FFFF" d = " M54 231 C54,235.505 41.617,240.059 53.5,246 60.7622,249.631 71.3388,246.419 78.5,250 79.7576,250.629 81.7691,252.962 81,254.5 77.0428,262.414 59.0982,258.799 53.5,256 51.5221,255.011 45.4697,253.561 44,256.5 39.0806,266.339 46.1039,271.698 55.5,267 57.8579,265.821 66.0691,266.362 64,270.5 61.9816,274.537 44.9105,276.321 47,280.5 48.3286,283.157 49.2248,284 50.5,284 52.9157,284 54.1644,288.668 57.5,287 60.9497,285.275 63.1371,272.819 69.5,276 74.5024,278.501 70.6187,282.263 69,285.5 68.5886,286.323 67.3035,290.402 68.5,291 75.5221,294.511 87.2167,292.142 93.5,289 95.1252,288.187 101,286.684 101,284.5 101,265.923 82.4522,285.404 75,270.5 69.9909,260.482 89.6013,265.949 91.5,265 96.2639,262.618 89.0344,254.431 91,250.5 91.5987,249.303 97.9886,248.477 97,246.5 96.5539,245.608 84.596,246.548 81.5,245 76.0409,242.27 70.8661,239.683 65.5,237 L59.5,231 L54,231  Z"/>

<path  fill="#00FFFF" stroke-width="0" stroke="#00FFFF" d = " M421 233 C421,235.923 413.192,241.654 410.5,243 L409.5,245 C408.849,245 407.849,242.802 407,244.5 L407,247.5 L402,250.5 L406,251 C410.717,251 412.589,249 415.5,249 420.234,249 429.208,252.146 433.5,250 442.695,245.403 426.819,233 421,233  Z"/>

<path  fill="#FFFF00" stroke-width="0" stroke="#FFFF00" d = " M213 237 L215,237 C215,235.601 213,235.601 213,237  Z"/>

<path  fill="#FFFF00" stroke-width="0" stroke="#FFFF00" d = " M216 237 L217,237 C217,235.814 216,235.814 216,237  Z"/>

<path  fill-rule="evenodd" fill="#9953FF" stroke-width="0" stroke="#9953FF" d = " M268 263 C268,265.112 273.567,263 268,263  M247 342 L239,343 C239,333.694 214,336.587 214,342 212.174,342 183.859,332.18 181.5,331 179.212,329.856 179.3,333 178.5,333 178.5,333 178,329.5 178,329.5 175.999,325.498 168,324.516 168,317 168,315.053 171.926,307 167,307 167,304.8 173.606,304.288 175,301.5 175,301.5 178,287.5 178,287.5 180.59,282.321 188.145,281.211 191,275.5 192.223,273.054 202.705,271.909 200,266.5 197.781,262.061 191.217,260.642 186.5,263 185.586,263.457 180,266.603 180,264 180,264 181,264 181,264 181,264 182,263 182,263 182,253.675 174.41,258 171,258 171,258 171,253.5 171,253.5 171,253.5 175,250.5 175,250.5 175,250.5 172,249.5 172,249.5 170.667,248.167 171,246.831 171,245 174.566,245 182.358,243.571 185.5,242 187.048,241.226 187.31,237.595 188.5,237 188.551,236.975 208.051,238 211,238 214.372,238 204.628,240 208,240 208,240 209,241 209,241 209,243.224 206.614,243.272 206,244.5 206,244.5 208,246.5 208,246.5 208,246.979 204,247.458 204,249.5 204,249.766 209,250.674 209,253.5 209,253.5 202,254.5 202,254.5 202,254.5 207.5,255 207.5,255 207.5,255 209.5,260 209.5,260 212.444,261.472 216.633,260.567 219.5,262 219.5,262 219,263.5 219,263.5 219,265.216 221.965,261.767 223.5,261 224.368,260.566 229,264.403 229,262.5 229,262.5 227.5,261 227.5,261 229.299,260.1 240,262.462 240,260 241.424,260 245,261.762 245,260 251.636,260 271.62,263.94 275.5,262 275.5,262 275.5,259 275.5,259 275.5,259 283,258.5 283,258.5 283,255.79 278,256.227 278,255.5 278,255.5 288,254.5 288,254.5 288,254.5 278.5,254 278.5,254 274.15,251.825 286,249.769 286,249.5 286,249.5 280,248.5 280,248.5 280,248.5 282,245.5 282,245.5 282,245.5 280,243.5 280,243.5 280,239.453 280.406,239 275,239 275,238.417 282.068,236.784 282.5,237 287.764,239.632 316,237.69 316,244 312.726,244 314,253.698 314,256 304.495,256 310,259.994 310,262 310,262 309,263 309,263 309,263 305.5,265 305.5,265 298.21,268.645 295.179,256.142 289,268.5 288.372,269.756 286.133,271.767 287,273.5 289.725,278.95 301.654,282.577 306.5,285 308.577,286.039 316.626,305 318,305 318,305 322,307 322,307 322,308.943 322,310.375 322,311.5 322,311.5 320,312.5 320,312.5 320,313.625 322,315.057 322,317 322,317 318.5,319 318.5,319 316.546,319.977 312.863,325.637 311,327.5 303.099,335.401 294.272,333.114 284.5,338 280.791,339.854 276.298,344 272,344 272,344 273,342.5 273,342.5 273,341.98 267.15,340.325 266.5,340 261.001,337.251 252.5,332.499 249,339.5 249,339.5 247,342 247,342  Z"/>

<path  fill="#EB57FF" stroke-width="0" stroke="#EB57FF" d = " M209 241 C209,243.224 206.614,243.272 206,244.5 L208,246.5 C208,246.979 204,247.458 204,249.5 204,249.766 209,250.674 209,253.5 L202,254.5 L207.5,255 L209.5,260 C212.444,261.472 216.633,260.567 219.5,262 L219,263.5 C219,265.216 221.965,261.767 223.5,261 224.368,260.566 229,264.403 229,262.5 L227.5,261 C229.299,260.1 240,262.462 240,260 240,247.273 230.616,237 217,237 217,237 216,237 216,237 216,237 215,237 215,237 215,237 213,237 213,237 213,237 211,238 211,238 214.372,238 204.628,240 208,240 208,240 209,241 209,241  Z"/>

<path  fill="#9953FF" stroke-width="0" stroke="#9953FF" d = " M269 238 L270,238 C270,236.814 269,236.814 269,238  Z"/>

<path  fill-rule="evenodd" fill="#EB57FF" stroke-width="0" stroke="#EB57FF" d = " M258 259 C258,261.105 267.211,259 258,259  M275 239 C280.406,239 280,239.453 280,243.5 L282,245.5 L280,248.5 L286,249.5 C286,249.769 274.15,251.825 278.5,254 L288,254.5 L278,255.5 C278,256.227 283,255.79 283,258.5 L275.5,259 L275.5,262 C271.62,263.94 251.636,260 245,260 245,255.912 249.573,255.355 251,252.5 252.243,250.015 252.427,242.036 254.5,241 255.898,240.301 269,238.601 269,238 269,238 270,238 270,238 270,238 275,239 275,239  Z"/>

<path  fill="#9953FF" stroke-width="0" stroke="#9953FF" d = " M301 238 C301,240.091 304.746,238 301,238  Z"/>

<path  fill="#34FF0D" stroke-width="0" stroke="#34FF0D" d = " M162 266 L156,274.5 C152.646,281.208 149,287.903 149,296 140.444,296 147.322,276.145 146,273.5 142.073,265.646 148.253,264.993 151,259.5 151.659,258.182 150.581,256.96 152.5,256 152.5,256 155,255.5 155,255.5 157.704,250.092 160.135,247.183 166.5,244 166.5,244 171,245 171,245 171,246.831 170.667,248.167 172,249.5 172,249.5 175,250.5 175,250.5 175,250.5 171,253.5 171,253.5 171,253.5 171,258 171,258 171,259.37 163.768,265 163,265 163,265 162,266 162,266  Z"/>

<path  fill="#34FF0D" stroke-width="0" stroke="#34FF0D" d = " M314 256 C321.33,256 332.026,273.553 335,279.5 L336,285.5 C336.909,287.318 339.167,292.167 338,294.5 337.206,296.088 332,309.212 332,310 337.327,310 345.701,292.902 344,289.5 342.52,286.54 346,287.099 346,284.5 346,284.5 343,275.5 343,275.5 343,274.062 344,271.938 344,270.5 344,265.067 338.848,263.196 337,259.5 337,259.5 336,254.5 336,254.5 333.088,248.676 322.504,244 316,244 312.726,244 314,253.698 314,256  Z"/>

<path  fill="#00FFFF" stroke-width="0" stroke="#00FFFF" d = " M100 248 L100,249 C102.373,249 100,245.664 100,248  Z"/>

<path  fill="#00FFFF" stroke-width="0" stroke="#00FFFF" d = " M393 249 L392,252.5 L398.5,254 C402.591,256.045 400.537,259.575 402,262.5 L404.5,261 L406,270.5 C404.848,272.804 389.951,268.775 385.5,271 380.259,273.62 386.005,290.747 393.5,287 397.458,285.021 395.614,281.271 398,276.5 399.418,273.665 401.387,277 402.5,277 L403.5,275 L405.5,277 C409.088,278.794 406.345,284.81 405,287.5 L406.5,290 C412.327,292.914 427.336,292.829 431,285.5 435.645,276.21 412,283.166 412,270.5 L412,265.5 C413.543,262.414 414.253,268.876 414.5,269 416.17,269.835 418.498,268 419.5,268 424.312,268 433.006,276.488 437,268.5 443.349,255.801 412.547,259 408.5,259 405.264,259 399.673,249 393,249  Z"/>

<path  fill="#00FFFF" stroke-width="0" stroke="#00FFFF" d = " M391 250 C389.527,250 390,251.952 390,253 391.473,253 391,251.048 391,250  Z"/>

<path  fill="#46A515" stroke-width="0" stroke="#46A515" d = " M374 251 C374,264.992 389.618,251 374,251  Z"/>

<path  fill="#46A515" stroke-width="0" stroke="#46A515" d = " M109 252 C109,253.353 106,254.158 106,257 106,259.722 112.197,269.105 115,263.5 115.84,261.82 111.882,260.736 113,258.5 L116,257.5 C117.679,254.142 111.252,252 109,252  Z"/>

<path  fill="#FA8072" stroke-width="0" stroke="#FA8072" d = " M167 307 C171.926,307 168,315.053 168,317 159.062,317 160.45,318.4 156,309.5 156,309.5 153,307.5 153,307.5 151.889,305.278 151.579,296 149,296 149,287.903 152.646,281.208 156,274.5 156,274.5 162,266 162,266 162,266 163,265 163,265 163.768,265 171,259.37 171,258 174.41,258 182,253.675 182,263 182,263 181,264 181,264 181,264 180,264 180,264 180,264 179,265 179,265 179,265 178,266 178,266 172.529,266 171.588,273.323 170,276.5 168.259,279.983 164.105,284.29 162,288.5 162,288.5 163,291.5 163,291.5 163,291.5 161,291.5 161,291.5 160.668,292.163 160,298.111 160,298.5 160,298.5 163,303.5 163,303.5 163,306.552 162.67,307 167,307  Z"/>

<path  fill="#FA8072" stroke-width="0" stroke="#FA8072" d = " M332 310 C332,313.967 325.21,317 322,317 322,315.057 320,313.625 320,312.5 320,312.5 322,311.5 322,311.5 322,310.375 322,308.943 322,307 322,307 324,305 324,305 324,305 326,304 326,304 326,298.138 328.97,290.44 326,284.5 323.237,278.974 319.12,274.74 316,268.5 314.605,265.71 310,265.989 310,263 310,263 310,262 310,262 310,259.994 304.495,256 314,256 321.33,256 332.026,273.553 335,279.5 335,279.5 336,285.5 336,285.5 336.909,287.318 339.167,292.167 338,294.5 337.206,296.088 332,309.212 332,310  Z"/>

<path  fill="#9953FF" stroke-width="0" stroke="#9953FF" d = " M258 259 C258,261.105 267.211,259 258,259  Z"/>

<path  fill="#5BF1FF" stroke-width="0" stroke="#5BF1FF" d = " M178 266 C172.529,266 171.588,273.323 170,276.5 168.259,279.983 164.105,284.29 162,288.5 L163,291.5 L161,291.5 C160.668,292.163 160,298.111 160,298.5 L163,303.5 C163,306.552 162.67,307 167,307 167,304.8 173.606,304.288 175,301.5 175,301.5 178,287.5 178,287.5 180.59,282.321 188.145,281.211 191,275.5 192.223,273.054 202.705,271.909 200,266.5 197.781,262.061 191.217,260.642 186.5,263 185.586,263.457 180,266.603 180,264 180,264 179,265 179,265 179,265 178,266 178,266  Z"/>

<path  fill="#5BF1FF" stroke-width="0" stroke="#5BF1FF" d = " M182 263 L181,264 C181,264 182,263 182,263  Z"/>

<path  fill="#EB57FF" stroke-width="0" stroke="#EB57FF" d = " M268 263 C268,265.112 273.567,263 268,263  Z"/>

<path  fill="#5BF1FF" stroke-width="0" stroke="#5BF1FF" d = " M318 305 L324,305 C324,305 326,304 326,304 326,298.138 328.97,290.44 326,284.5 323.237,278.974 319.12,274.74 316,268.5 314.605,265.71 310,265.989 310,263 310,263 309,263 309,263 309,263 305.5,265 305.5,265 298.21,268.645 295.179,256.142 289,268.5 288.372,269.756 286.133,271.767 287,273.5 289.725,278.95 301.654,282.577 306.5,285 308.577,286.039 316.626,305 318,305  Z"/>

<path  fill="#9953FF" stroke-width="0" stroke="#9953FF" d = " M179 265 L178,266 C178,266 179,265 179,265  Z"/>

<path  fill="#46A515" stroke-width="0" stroke="#46A515" d = " M47 293 C47,294.358 52.1368,304.226 55,298.5 55.9762,296.548 48.4689,293 47,293  Z"/>

<path  fill="#00FFFF" stroke-width="0" stroke="#00FFFF" d = " M72 296 L73,297 C73,297 72,296 72,296  Z"/>

<path  fill="#46A515" stroke-width="0" stroke="#46A515" d = " M92 296 C92,298.887 86.9485,297.603 86,299.5 84.2719,302.956 89,302.644 89,303.5 89,310.161 104.045,298.773 98.5,296 L92,296  Z"/>

<path  fill="#46A515" stroke-width="0" stroke="#46A515" d = " M432 297 C432,299.45 425,298.355 425,301.5 L429,302 C435.026,302 440.983,297 432,297  Z"/>

<path  fill="#46A515" stroke-width="0" stroke="#46A515" d = " M401 301 C401,307.555 414,305.115 414,302.5 414,300.516 402.805,301 401,301  Z"/>

<path  fill="#46A515" stroke-width="0" stroke="#46A515" d = " M410 313 C410,320.174 419.644,313 410,313  Z"/>

<path  fill="#46A515" stroke-width="0" stroke="#46A515" d = " M79 315 L78,318.5 C82.3181,327.136 89.6416,315 79,315  Z"/>

<path  fill="#FF3427" stroke-width="0" stroke="#FF3427" d = " M214 342 C214,350.83 239,356.072 239,343 239,333.694 214,336.587 214,342  Z"/>

<path  fill="#FF3427" stroke-width="0" stroke="#FF3427" d = " M247 342 L249.5,346 C254.556,348.528 264.857,355.785 269,347.5 L272,344 C272,344 273,342.5 273,342.5 273,341.98 267.15,340.325 266.5,340 261.001,337.251 252.5,332.499 249,339.5 249,339.5 247,342 247,342  Z"/>

</g>
</svg>
