<svg xmlns="http://www.w3.org/2000/svg" xmlns:xlink="http://www.w3.org/1999/xlink" height="512" width="512">
<g>
<rect width="512" height="512" fill="#000000"  stroke-width="0" /> 
<path  fill-rule="evenodd" fill="#86FF5A" stroke-width="0" stroke="#86FF5A" d = " M240 340 C240,341.606 237.919,344.339 239,346.5 243.857,356.214 253.553,343.026 247.5,340 246.469,339.485 241.674,340 240,340  M231 306 C231,307.665 226.778,307 225.5,307 222.645,307 222.776,308.862 220.5,310 L213.5,311 L209.5,316 C206.36,316 206.587,318.326 205,321.5 L200,326.5 C197.598,331.305 198.423,337.654 196,342.5 194.108,346.283 196.831,364.162 198,366.5 199.849,370.198 203.182,372.863 205,376.5 L205,380.5 L208.5,380 L209.5,383 C210.234,383 212.875,383.249 214,385.5 L217.5,389 L216.5,391 C219.685,392.592 236.112,396.694 239.5,395 242.134,393.683 241.117,391.192 243.5,390 246.912,388.294 253.844,399.328 262.5,395 271.214,390.643 283.174,382.153 288,372.5 L291,361.5 L292.5,363 C296.847,363 293.645,352.79 293,351.5 L292,334.5 L289,332.5 L290,329.5 L288,327.5 L285,319.5 C284.04,317.581 282.818,318.659 281.5,318 L275.5,312 C274.65,312 267.098,310.299 264.5,309 255.163,304.332 242.472,306 231,306  Z"/>

<path  fill-rule="evenodd" fill="#EB57FF" stroke-width="0" stroke="#EB57FF" d = " M244 345 C244,346.93 245.93,345 244,345  M240 340 C240,341.606 237.919,344.339 239,346.5 243.857,356.214 253.553,343.026 247.5,340 246.469,339.485 241.674,340 240,340  Z"/>

<path  fill="#27F4FD" stroke-width="0" stroke="#27F4FD" d = " M244 345 C244,346.93 245.93,345 244,345  Z"/>

</g>
</svg>
