<svg xmlns="http://www.w3.org/2000/svg" xmlns:xlink="http://www.w3.org/1999/xlink" height="512" width="512">
<g>
<rect width="512" height="512" fill="#000000"  stroke-width="0" /> 
<path  fill-rule="evenodd" fill="#86FF5A" stroke-width="0" stroke="#86FF5A" d = " M240 344 C240,346.014 237.716,349.932 239,352.5 242.698,359.895 254.895,347.698 247.5,344 L240,344  M243 308 C243,310.144 238.738,308.381 237.5,309 231.217,312.141 223.902,310.799 217.5,314 212.121,316.689 212.364,316.772 210,321.5 L205,324.5 C202.486,329.527 199.747,335.006 197,340.5 L197,345.5 C189.472,360.556 205.119,386.809 215.5,392 L215.5,395 L220.5,396 C223.903,397.701 235.933,400.783 239.5,399 242.792,397.354 242.951,393.775 244.5,393 247.107,391.697 250.501,398 252.5,399 258.55,402.025 267.326,397.587 272.5,395 275.891,393.304 278.495,387.51 280,384.5 L286,380.5 C287.672,377.156 287.387,372.727 289,369.5 289.112,369.276 293.707,366.086 295,363.5 296.575,360.35 293,357.667 293,355.5 293,347.477 292.422,341.343 289,334.5 287.71,331.92 290.144,329.789 289,327.5 288.962,327.424 283.61,324 283.5,324 L281.5,321 C278.567,318.067 278.386,314.943 274.5,313 270.561,311.031 264.345,313.923 260.5,312 255.805,309.652 249.57,308 243,308  Z"/>

<path  fill-rule="evenodd" fill="#EB57FF" stroke-width="0" stroke="#EB57FF" d = " M243 348 C243,353.456 247.529,348 243,348  M240 344 C240,346.014 237.716,349.932 239,352.5 242.698,359.895 254.895,347.698 247.5,344 L240,344  Z"/>

<path  fill="#27F4FD" stroke-width="0" stroke="#27F4FD" d = " M243 348 C243,353.456 247.529,348 243,348  Z"/>

</g>
</svg>
