<svg xmlns="http://www.w3.org/2000/svg" xmlns:xlink="http://www.w3.org/1999/xlink" height="512" width="512">
<g>
<rect width="512" height="512" fill="#000000"  stroke-width="0" /> 
<path  fill="#CED307" stroke-width="0" stroke="#CED307" d = " M246 181 C247.311,181 249.572,185 250.5,185 L253.5,182 C256.466,180.517 262.211,185.145 266.5,183 L268.5,180 C275.668,176.416 284.108,172 291.5,172 L293.5,174 C296.159,175.33 301.179,175.339 304.5,177 L305,179.5 C305.428,180.356 306.942,178.384 308,180.5 309.461,183.423 312.778,185.055 314,187.5 316.078,191.657 315.922,197.343 318,201.5 L320,204.5 C320,208.404 319,211.555 319,216 323.196,216 325.154,222.673 330.5,220 332.799,218.851 334.829,212.842 336,210.5 336,210.5 340,207.5 340,207.5 340,207.5 341,201.5 341,201.5 347.97,187.561 354.836,176.172 347,160.5 344.642,155.784 339.211,153.923 337,149.5 336.669,148.837 333.529,146.015 331.5,145 331.5,145 324.5,138 324.5,138 319.947,138 312.962,132.731 309.5,131 309.5,131 304.5,131 304.5,131 295.867,126.684 283.421,127 274.5,127 274.5,127 273.5,129 273.5,129 271.87,129.815 267.1,130 266.5,130 266.5,130 265.5,132 265.5,132 263.235,133.132 256.374,136.752 255,139.5 248.305,152.889 246,164.663 246,181  Z"/>

<path  fill="#CED307" stroke-width="0" stroke="#CED307" d = " M243 183 L239.5,185 C237.767,185.867 235.756,183.628 234.5,183 232.305,181.903 227.078,184 224.5,184 L218.5,179 C212.461,175.981 207.22,175.36 202.5,173 198.437,170.969 191.979,175.261 188.5,177 186.466,178.017 184.983,177 183.5,177 183.402,177 180.36,183.57 179.5,184 173.615,186.943 168,209.526 168,217 163.991,217 161.25,218.875 157.5,217 154.366,215.433 152.437,207.373 151,204.5 147.205,196.909 135.636,178.228 141,167.5 148.103,153.294 162.115,142.692 175.5,136 180.04,133.73 191.83,133.835 195.5,132 199.541,129.98 207.218,128.859 211.5,131 211.5,131 223.5,132 223.5,132 223.5,132 227.5,136 227.5,136 227.5,136 232,138.5 232,138.5 234.004,142.509 237.965,145.429 240,149.5 244.321,158.142 243,172.741 243,183  Z"/>

<path  fill="#03C12D" stroke-width="0" stroke="#03C12D" d = " M311 211 C312.734,211 319,217.582 319,216 319,211.555 320,208.404 320,204.5 320,204.5 318,201.5 318,201.5 315.922,197.343 316.078,191.657 314,187.5 312.778,185.055 309.461,183.423 308,180.5 306.942,178.384 305.428,180.356 305,179.5 305,179.5 304.5,177 304.5,177 301.179,175.339 296.159,175.33 293.5,174 293.5,174 291.5,172 291.5,172 284.108,172 275.668,176.416 268.5,180 268.5,180 266.5,183 266.5,183 262.211,185.145 256.466,180.517 253.5,182 253.5,182 250.5,185 250.5,185 249.572,185 247.311,181 246,181 246,186.818 242.368,206.237 245,211.5 246.205,213.91 257,217.754 257,219 260.096,219 260.699,216.9 262.5,216 262.5,216 264.5,218 264.5,218 264.5,218 271.5,216 271.5,216 271.5,216 281,209 281,209 281,204.848 287.909,198.795 291.5,197 293.833,195.834 305,204.187 305,207 305,207 311,211 311,211  Z"/>

<path  fill="#03C12D" stroke-width="0" stroke="#03C12D" d = " M168 217 L169,218 C171.635,218 170.44,214.03 172.5,213 178.805,209.848 181.576,201 189,201 189,189.69 211,203.309 211,207 214.207,207 211.688,209.094 213.5,210 213.5,210 220.5,211 220.5,211 220.5,211 226.5,215 226.5,215 228.736,216.118 229.82,212.16 231.5,213 231.5,213 235,215 235,215 235,213.456 239.997,211.506 241,209.5 244.387,202.727 243,189.778 243,183 243,183 239.5,185 239.5,185 237.767,185.867 235.756,183.628 234.5,183 232.305,181.903 227.078,184 224.5,184 224.5,184 218.5,179 218.5,179 212.461,175.981 207.22,175.36 202.5,173 198.437,170.969 191.979,175.261 188.5,177 186.466,178.017 184.983,177 183.5,177 183.402,177 180.36,183.57 179.5,184 173.615,186.943 168,209.526 168,217  Z"/>

<path  fill="#0F6DE6" stroke-width="0" stroke="#0F6DE6" d = " M196 198 C196,200.112 201.567,198 196,198  Z"/>

<path  fill-rule="evenodd" fill="#FF8700" stroke-width="0" stroke="#FF8700" d = " M195 227 C195,229.572 194.891,235.196 198.5,237 L201,237.5 C202.203,239.907 202.74,242.98 204,245.5 204.422,246.344 210.727,251.047 211,250.5 212.586,247.329 208.713,246.925 208,245.5 L207,239.5 C205.53,236.561 201.407,236.314 200,233.5 198.076,229.651 201.324,229 196.5,229 L195,227  M242 228 C242,238.714 242,249.485 242,261 242,261 239,263.5 239,263.5 235.342,270.817 229.825,284.663 218.5,279 218.5,279 211.5,279 211.5,279 209.608,278.054 209.288,273.394 206.5,272 205.028,271.264 200.01,273.255 197.5,272 187.497,266.998 179.065,257.631 174,247.5 173.389,246.279 170.102,245.703 169,243.5 169,243.5 169,238.5 169,238.5 167.926,236.351 164.769,227.962 166,225.5 167.271,222.958 169,222.13 169,218 171.635,218 170.44,214.03 172.5,213 178.805,209.848 181.576,201 189,201 189,201 201.5,201 201.5,201 204.178,202.339 206.844,207 211,207 214.207,207 211.688,209.094 213.5,210 213.5,210 220.5,211 220.5,211 220.5,211 226.5,215 226.5,215 228.736,216.118 229.82,212.16 231.5,213 231.5,213 235,215 235,215 235,217.215 237,216.519 237,218 237,219.178 239.572,224 241,224 241,224 242,228 242,228  Z"/>

<path  fill-rule="evenodd" fill="#FF8700" stroke-width="0" stroke="#FF8700" d = " M291 229 C291,231.004 285.221,231.058 284,233.5 283.843,233.813 285.991,244.245 283.5,243 L282.5,241 C281.437,241 278,247.502 278,249 L278.5,253 L281,249.5 L289,241.5 L289,238.5 L295,234.5 C295.864,232.772 292.699,229 291,229  M247 230 C247,234.924 245.233,232.034 245,232.5 L245,264 C246.914,264 251.085,274.67 252,276.5 253.82,280.14 260.395,281.447 263.5,283 269.685,286.092 277.888,279.306 282.5,277 282.5,277 285.5,278 285.5,278 286.867,277.317 288.646,271.927 290.5,271 306.52,262.99 311.562,256.375 320,239.5 320,239.5 324,236.5 324,236.5 328.532,227.436 311,211.938 311,211 311,211 305,207 305,207 300.801,207 294.805,201.847 290.5,204 287.856,205.322 284.011,209 281,209 281,209 271.5,216 271.5,216 271.5,216 264.5,218 264.5,218 264.5,218 262.5,216 262.5,216 260.699,216.9 260.096,219 257,219 253.793,219 256.312,221.094 254.5,222 250.911,223.794 247,222.81 247,230  Z"/>

<path  fill="#FFE300" stroke-width="0" stroke="#FFE300" d = " M237 218 C239.556,218 241,222.016 241,224 239.572,224 237,219.178 237,218  Z"/>

<path  fill="#FF4FCE" stroke-width="0" stroke="#FF4FCE" d = " M195 227 C195,229.572 194.891,235.196 198.5,237 L201,237.5 C202.203,239.907 202.74,242.98 204,245.5 204.422,246.344 210.727,251.047 211,250.5 212.586,247.329 208.713,246.925 208,245.5 L207,239.5 C205.53,236.561 201.407,236.314 200,233.5 198.076,229.651 201.324,229 196.5,229 L195,227  Z"/>

<path  fill="#FFE300" stroke-width="0" stroke="#FFE300" d = " M242 261 C246.861,261 241.781,264 245,264 245,264 245,232.5 245,232.5 245.233,232.034 247,234.924 247,230 244.89,230 243.295,228 242,228 242,238.714 242,249.485 242,261  Z"/>

<path  fill="#FF4FCE" stroke-width="0" stroke="#FF4FCE" d = " M291 229 C291,231.004 285.221,231.058 284,233.5 283.843,233.813 285.991,244.245 283.5,243 L282.5,241 C281.437,241 278,247.502 278,249 L278.5,253 L281,249.5 L289,241.5 L289,238.5 L295,234.5 C295.864,232.772 292.699,229 291,229  Z"/>

<path  fill="#30DA00" stroke-width="0" stroke="#30DA00" d = " M288 296 C288,298.177 281.264,301.971 280,304.5 279.561,305.378 280.369,308 281.5,308 L283,306.5 L284.5,311 L286.5,310 C305.406,310 304.502,296 288,296  Z"/>

<path  fill="#30DA00" stroke-width="0" stroke="#30DA00" d = " M200 297 C200,300.494 194.552,304.605 197,309.5 L200.5,310 C204.558,312.029 207.591,314.455 212.5,312 216.038,310.231 215.117,299.808 211.5,298 L200,297  Z"/>

<path  fill="#FA8072" stroke-width="0" stroke="#FA8072" d = " M184 301 L183,304.5 C183,307.758 186.21,304 186.5,304 L189.5,306 C193.339,304.08 189.182,301 187.5,301 186.455,301 185.639,301 184,301  Z"/>

<path  fill="#FA8072" stroke-width="0" stroke="#FA8072" d = " M306 306 L305,310.5 C307.452,315.403 314.407,306 306,306  Z"/>

<path  fill="#FA8072" stroke-width="0" stroke="#FA8072" d = " M190 307 C190,310.746 192.091,307 190,307  Z"/>

<path  fill="#FA8072" stroke-width="0" stroke="#FA8072" d = " M192 309 C192,314.567 194.112,309 192,309  Z"/>

<path  fill-rule="evenodd" fill="#FA8072" stroke-width="0" stroke="#FA8072" d = " M293 383 C293,386.746 295.091,383 293,383  M286 370 C286,370.974 281.781,372.937 281,374.5 278.804,378.891 284,384.96 284,385.5 284,387.846 279.069,389.639 281,393.5 282.561,396.621 288.11,396.72 289,398.5 289.827,400.155 288.118,401.809 290.5,403 L295.5,401 L300.5,403 C305.48,400.51 298.142,392.179 304.5,389 306.038,388.231 308.371,390.242 309,391.5 310.305,394.109 306,394.759 306,396.5 L309.5,397 C312.697,398.598 318.807,397.887 321,393.5 323.344,388.812 311.984,381.742 308.5,380 305.236,378.368 302.65,382.575 301.5,382 L302,374.5 C298.789,368.077 295.255,372 291.5,372 289.905,372 288.245,370 286,370  Z"/>

<path  fill="#FA8072" stroke-width="0" stroke="#FA8072" d = " M195 373 L191,377.5 L192,380.5 L189,383.5 L188.5,386 L183.5,385 C179.925,386.788 170.275,393.049 173,398.5 176.541,405.582 186.117,394.309 191.5,397 L195.5,401 C197.932,401 200.253,395 200.5,395 206.886,395 204.822,408.339 213.5,404 220.006,400.747 213,393.701 213,390 213,386.392 218.217,382.934 216,378.5 213.908,374.317 199.297,373 195,373  Z"/>

</g>
</svg>
