<svg xmlns="http://www.w3.org/2000/svg" xmlns:xlink="http://www.w3.org/1999/xlink" height="512" width="512">
<g>
<rect width="512" height="512" fill="#000000"  stroke-width="0" /> 
<path  fill-rule="evenodd" fill="#86FF5A" stroke-width="0" stroke="#86FF5A" d = " M240 375 C240,376.447 240.235,381.029 240,381.5 239.639,382.222 243.613,386.944 245.5,386 249.806,383.847 247,382.573 247,380.5 L249,378.5 C250.234,376.031 241.302,375 240,375  M243 335 C243,336.643 239.235,336 238,336 233.126,336 226.635,336.933 222.5,339 219.47,340.515 218.049,343.725 215.5,345 L210.5,346 C206.169,348.166 201.557,364.386 199,369.5 197.131,373.239 197.097,398.694 199,402.5 201.049,406.598 212.899,418.699 217.5,421 220.325,422.412 231.107,427.696 234.5,426 236.108,425.196 236.181,426.659 237.5,426 L243.5,421 L245.5,418 C247.551,418 251.014,423.757 253.5,425 261.651,429.075 283.357,416.785 287,409.5 290.432,402.635 295.98,376.461 292,368.5 L289,365.5 L289,358.5 L284,354.5 L284,350.5 L276.5,344 L275.5,341 C270.554,338.527 249.618,335 243,335  Z"/>

<path  fill="#EB57FF" stroke-width="0" stroke="#EB57FF" d = " M240 375 C240,376.447 240.235,381.029 240,381.5 239.639,382.222 243.613,386.944 245.5,386 249.806,383.847 247,382.573 247,380.5 L249,378.5 C250.234,376.031 241.302,375 240,375  Z"/>

</g>
</svg>
