<svg xmlns="http://www.w3.org/2000/svg" xmlns:xlink="http://www.w3.org/1999/xlink" height="512" width="512">
<g>
<rect width="512" height="512" fill="#000000"  stroke-width="0" /> 
<path  fill-rule="evenodd" fill="#FFFF00" stroke-width="0" stroke="#FFFF00" d = " M241 88 L239,89.5 C239,93.6985 246.222,88 241,88  M233 87 L231,89.5 C231.69,90.8792 241.066,90.283 236.5,88 L234.5,88 L233,87  M376 220 L377,220 C377,220 379,219 379,219 379,219 374,215.5 374,215.5 374,215.5 373,210.5 373,210.5 371.368,207.236 361.764,201.632 358.5,200 356.705,199.102 352.652,201 350.5,201 342.809,201 321,189.082 321,181.5 321,175.675 330.794,179 333.5,179 337.355,179 341.442,178.029 345.5,176 346.639,175.43 358.708,182.104 360.5,183 364.204,184.852 370.829,191.329 373.5,194 374.26,194.76 378.077,197.346 379,195.5 379.897,193.706 378.662,190.824 378,189.5 375.839,185.178 374.226,178.363 369.5,176 362.617,172.558 355.846,170.191 352,162.5 350.885,160.27 348.532,143.516 355.5,147 355.5,147 358.5,151 358.5,151 371.929,157.714 377.588,167.677 384,180.5 384,180.5 388,198.5 388,198.5 389.261,201.022 391.828,204.845 394,200.5 397.265,193.97 394.487,160.994 388.5,158 386.945,157.223 385.018,161.259 382.5,160 378.431,157.965 374.981,152.462 373,148.5 368.93,140.36 376.034,135.569 375,133.5 375,133.5 371,128.5 371,128.5 370.39,127.279 366.435,123.033 364.5,124 357.739,127.381 370.007,138.246 362.5,142 362.5,142 359.5,141 359.5,141 353.964,141 346.7,133.099 350,126.5 350.53,125.441 354,120.587 354,120.5 354,120.5 351,119.5 351,119.5 350.072,117.643 348.104,114.198 344.5,116 340.612,117.944 344,127.826 344,130.5 344,130.5 342,132.5 342,132.5 342,132.5 343,140.5 343,140.5 341.944,142.612 343.003,145.495 342,147.5 340.323,150.854 330.68,156 327.5,156 327.257,156 321.834,162.167 317.5,160 314.191,158.346 312.276,150.949 314,147.5 314,147.5 319,144.5 319,144.5 319,144.5 318,141.5 318,141.5 318,141.5 320.5,141 320.5,141 321.782,140.359 322.359,138.782 323,137.5 328.203,127.094 324.208,128.085 330,116.5 331.447,113.606 322.161,104.831 320.5,104 320.5,104 311.5,105 311.5,105 309.369,106.065 313,116.134 313,120 313,123.231 310.282,127.936 309,130.5 308.087,132.325 310,134.316 310,135.5 310,139.226 307.43,153.035 303.5,155 298.086,157.707 293.485,148.47 292,145.5 290.332,142.163 297.404,134.308 296,131.5 294.799,129.099 297.206,122.913 296,120.5 292.748,113.995 290,110.668 290,103.5 290,102.347 285.278,101.389 284.5,101 284.5,101 283.5,98 283.5,98 279.904,98 280.511,96.5055 277.5,95 277.5,95 269.5,94 269.5,94 267.769,93.1347 260.423,90.0383 258.5,91 255.823,92.3384 258,93.1695 258,94.5 258,94.5 254,95.5 254,95.5 254,96.3645 257.329,97.0855 253.5,99 248.689,101.405 229.187,99.1564 223.5,102 223.5,102 221.5,100 221.5,100 220.055,99.2773 217.336,100.418 214.5,99 211.655,97.5775 209.615,89.4424 204.5,92 193.192,97.6541 206.98,101.541 203,109.5 199.823,115.855 194.482,122.535 191,129.5 185.195,141.11 198.969,148.265 183.5,156 183.5,156 180.5,153 180.5,153 178.211,150.711 177,142.694 177,139.5 177,132.458 169,128.13 169,121 169,116.425 178.154,112.807 175,106.5 174.52,105.54 170.215,104.142 168.5,105 165.013,106.743 149.846,112.191 153,118.5 154.649,121.798 157.417,124.335 159,127.5 160.651,130.802 158.306,136.112 160,139.5 163.71,146.921 178.814,152.872 174,162.5 174,162.5 173.5,165 173.5,165 163.798,169.851 144.864,161.227 140,151.5 136.765,145.03 144.985,133.469 141,125.5 140.283,124.065 139.795,118.352 136.5,120 126.442,125.029 137.038,139.423 131,151.5 130.057,153.385 130.075,155.713 127.5,157 115.369,163.065 117.536,140.428 120,135.5 120,135.5 119,132 119,132 119,131.153 121.103,129.802 119.5,129 113.704,126.102 96.1119,147.724 98,151.5 99.5858,154.672 106.223,148.946 109,154.5 112.277,161.054 104.577,174.462 99.5,177 97.0789,178.211 91.3548,175 89.5,175 89.5,175 88,182 88,182 88,188.242 87.9862,193.472 91,199.5 92.4098,202.32 88.8559,208.178 92.5,210 94.8136,211.157 93.4401,206.53 94.5,206 99.2939,203.603 97.6885,193.123 100,188.5 103.74,181.02 110.822,173.839 118.5,170 119.721,169.389 126.897,166.293 128,168.5 131.452,175.405 122.087,177.326 120,181.5 115.857,189.787 103,195.189 103,206.5 103,207.439 107.007,209.486 108,207.5 110.072,203.357 118.104,191.698 123.5,189 129.594,185.953 151.953,183.406 156,191.5 157.689,194.878 147.535,200.983 145.5,202 133.917,207.791 118.812,205.877 112,219.5 112,219.5 110,222 110,222 110,223.608 106.712,217.924 106,216.5 106,216.5 106,213.5 106,213.5 106,213.5 103,213.5 103,213.5 103,213.5 98.5,209 98.5,209 98.5,209 94.5,213 94.5,213 94.5,213 91.5,210 91.5,210 84.1156,210 88.7648,200.03 86,194.5 83.2259,188.952 85.4628,167.574 88,162.5 88,162.5 90,163.5 90,163.5 90,163.5 91,153.5 91,153.5 93.0966,149.307 95.9848,145.53 98,141.5 102.272,132.956 113.176,126.662 120.5,123 120.5,123 126.5,122 126.5,122 128.363,121.068 131.481,117 134.5,117 135.523,117 141.509,117.996 143.5,117 145.592,115.954 148.522,109.489 151.5,108 156.745,105.378 162.241,103.63 167.5,101 168.684,100.408 184.443,104.471 185.5,105 186.453,105.476 185.414,109.043 187.5,108 187.71,107.895 195.665,89.9177 197.5,89 203.486,86.0069 210.621,85.9393 216.5,83 216.5,83 221.5,83 221.5,83 237.476,75.012 274.704,87.1019 288.5,94 293.715,96.6076 299.976,104.738 300.5,105 302.755,106.128 300.313,103 302,103 302,103 310.5,99 310.5,99 310.5,99 324.5,102 324.5,102 327.958,103.729 331.535,108.517 334.5,110 336.588,111.044 347.437,111.968 347.5,112 354.16,115.33 360.087,116.793 366.5,120 368.573,121.036 372.286,127 375.5,127 375.5,127 377.5,126 377.5,126 377.5,126 377,129.5 377,129.5 377,129.5 380,131.5 380,131.5 380,131.5 381,136.5 381,136.5 382.352,139.203 384.584,137.042 386.5,138 389.052,139.276 384.04,139.77 388.5,142 389.086,142.293 390.448,151.397 391,152.5 395.437,161.374 403.534,177.431 398,188.5 396.213,192.074 398.832,197.836 397,201.5 396.619,202.262 391.2,206.35 388.5,205 387.062,204.281 386.787,198.857 384.5,200 382.705,200.897 384.408,211 382,211 382,206.144 379.485,213 382,213 382,220.306 375.725,224 370,224 370,220.653 362.33,226 360.5,226 354.315,226 339.327,228.154 335,219.5 332.68,214.86 337.341,212 341.5,212 341.5,212 350.5,215 350.5,215 354.569,217.035 371.348,219 375,219 375,219 376,220 376,220  Z"/>

<path  fill="#00FFFF" stroke-width="0" stroke="#00FFFF" d = " M233 87 L231,89.5 C231.69,90.8792 241.066,90.283 236.5,88 L234.5,88 L233,87  Z"/>

<path  fill="#00FFFF" stroke-width="0" stroke="#00FFFF" d = " M241 88 L239,89.5 C239,93.6985 246.222,88 241,88  Z"/>

<path  fill-rule="evenodd" fill="#00FFFF" stroke-width="0" stroke="#00FFFF" d = " M131 219 C131,220.816 120.529,219.559 123,224.5 L129.5,225 C132.869,225 136.026,226.737 139.5,225 146.97,221.265 139.688,219 135.5,219 133.562,219 133.109,219 131,219  M233 204 C233,205.785 227.14,206.779 229,210.5 231.299,215.097 259.215,215.07 261,211.5 262.19,209.12 256.096,204.798 254.5,204 251.165,202.333 247.197,206 244.5,206 241.373,206 237.134,204 233,204  M278 129 C278,131.777 264.837,138.831 262.5,140 249.78,146.36 191.343,141.186 205,168.5 207.005,172.509 213.665,175.082 217.5,177 225.699,181.1 233.335,185.918 241.5,190 242.604,190.552 266.823,181.339 269.5,180 L271.5,177 C274.839,175.331 280.895,174.709 283,170.5 284.031,168.438 287.507,161.503 284.5,160 L275.5,161 C271.512,159.006 268.375,155.937 264.5,154 L263,151.5 C267.426,142.649 282.611,148.277 286,141.5 288.913,135.675 283.44,129 278,129  M269 109 C269,113.566 256.858,112.321 253.5,114 248.261,116.619 238.456,115.522 233.5,118 225.336,122.082 215.721,122.89 207.5,127 202.404,129.548 196.286,137.072 199,142.5 L205.5,143 C213.568,138.966 221.541,134.979 229.5,131 240.484,125.508 260.529,133.985 268.5,130 274.298,127.101 276.182,109 269,109  M204 103 C204,110.435 206.905,103 204,103  M244 100 C244,102.091 247.746,100 244,100  M369 227 C367.478,227 360.737,229.881 358.5,231 L351,231 C348.254,231 343.526,234.513 340.5,233 338.36,231.93 336.613,231 334,231 324.994,231 319.866,226 312.5,226 312.5,226 311.5,224 311.5,224 309.024,222.762 305.898,222.199 303.5,221 303.5,221 302.5,219 302.5,219 300.952,219 297.738,219.119 295.5,218 295.5,218 291.5,214 291.5,214 287.829,212.164 283,213.34 283,217 281.577,217 279.456,218.978 277.5,218 276.84,217.67 275.754,215.992 275,217.5 273.733,220.035 277,220.761 277,221.5 277,225.936 269.189,229 265.5,229 265.5,229 262.5,226 262.5,226 262.5,226 261.5,228 261.5,228 258.813,228 255.904,230.202 253.5,229 253.5,229 251.5,226 251.5,226 251.5,226 248.5,228 248.5,228 248.5,228 246.5,226 246.5,226 244.145,226 230.996,230.748 227.5,229 227.5,229 226.5,226 226.5,226 225.952,226 224.9,228 223.5,228 223.5,228 222.5,226 222.5,226 222.5,226 220.5,228 220.5,228 218.941,228 217.094,225 216.5,225 216.457,225 211.311,229.123 210,226.5 205.203,216.906 226.707,226.914 220,213.5 220,213.5 218.5,214 218.5,214 214.242,214 214.808,215.846 210.5,218 208.396,219.052 207.83,216 206.5,216 206.212,216 204.061,218 202,218 202,212.891 187.806,218.847 185.5,220 182.968,221.266 183.668,220 181.5,220 181.5,220 180.5,222 180.5,222 177.242,223.629 169.246,230 165.5,230 165.5,230 161.5,228 161.5,228 161.5,228 160.5,230 160.5,230 157.125,231.688 152.849,232.325 149.5,234 147.637,234.932 136,243.808 136,242 136,238.316 133,236.923 133,236.5 133,228.859 121.411,229.956 115.5,227 115.5,227 111,223 111,223 111,223 110,222 110,222 110,222 112,219.5 112,219.5 118.812,205.877 133.917,207.791 145.5,202 147.535,200.983 157.689,194.878 156,191.5 151.953,183.406 129.594,185.953 123.5,189 118.104,191.698 110.072,203.357 108,207.5 107.007,209.486 103,207.439 103,206.5 103,195.189 115.857,189.787 120,181.5 122.087,177.326 131.452,175.405 128,168.5 126.897,166.293 119.721,169.389 118.5,170 110.822,173.839 103.74,181.02 100,188.5 97.6885,193.123 99.2939,203.603 94.5,206 93.4401,206.53 94.8136,211.157 92.5,210 88.8559,208.178 92.4098,202.32 91,199.5 87.9862,193.472 88,188.242 88,182 88,182 89.5,175 89.5,175 91.3548,175 97.0789,178.211 99.5,177 104.577,174.462 112.277,161.054 109,154.5 106.223,148.946 99.5858,154.672 98,151.5 96.1119,147.724 113.704,126.102 119.5,129 121.103,129.802 119,131.153 119,132 119,132 120,135.5 120,135.5 117.536,140.428 115.369,163.065 127.5,157 130.075,155.713 130.057,153.385 131,151.5 137.038,139.423 126.442,125.029 136.5,120 139.795,118.352 140.283,124.065 141,125.5 144.985,133.469 136.765,145.03 140,151.5 144.864,161.227 163.798,169.851 173.5,165 173.5,165 174,162.5 174,162.5 178.814,152.872 163.71,146.921 160,139.5 158.306,136.112 160.651,130.802 159,127.5 157.417,124.335 154.649,121.798 153,118.5 149.846,112.191 165.013,106.743 168.5,105 170.215,104.142 174.52,105.54 175,106.5 178.154,112.807 169,116.425 169,121 169,128.13 177,132.458 177,139.5 177,142.694 178.211,150.711 180.5,153 180.5,153 183.5,156 183.5,156 198.969,148.265 185.195,141.11 191,129.5 194.482,122.535 199.823,115.855 203,109.5 206.98,101.541 193.192,97.6541 204.5,92 209.615,89.4424 211.655,97.5775 214.5,99 217.336,100.418 220.055,99.2773 221.5,100 221.5,100 223.5,102 223.5,102 229.187,99.1564 248.689,101.405 253.5,99 257.329,97.0855 254,96.3645 254,95.5 254,95.5 258,94.5 258,94.5 258,93.1695 255.823,92.3384 258.5,91 260.423,90.0383 267.769,93.1347 269.5,94 269.5,94 277.5,95 277.5,95 280.511,96.5055 279.904,98 283.5,98 283.5,98 284.5,101 284.5,101 285.278,101.389 290,102.347 290,103.5 290,110.668 292.748,113.995 296,120.5 297.206,122.913 294.799,129.099 296,131.5 297.404,134.308 290.332,142.163 292,145.5 293.485,148.47 298.086,157.707 303.5,155 307.43,153.035 310,139.226 310,135.5 310,134.316 308.087,132.325 309,130.5 310.282,127.936 313,123.231 313,120 313,116.134 309.369,106.065 311.5,105 311.5,105 320.5,104 320.5,104 322.161,104.831 331.447,113.606 330,116.5 324.208,128.085 328.203,127.094 323,137.5 322.359,138.782 321.782,140.359 320.5,141 320.5,141 318,141.5 318,141.5 318,141.5 319,144.5 319,144.5 319,144.5 314,147.5 314,147.5 312.276,150.949 314.191,158.346 317.5,160 321.834,162.167 327.257,156 327.5,156 330.68,156 340.323,150.854 342,147.5 343.003,145.495 341.944,142.612 343,140.5 343,140.5 342,132.5 342,132.5 342,132.5 344,130.5 344,130.5 344,127.826 340.612,117.944 344.5,116 348.104,114.198 350.072,117.643 351,119.5 351,119.5 354,120.5 354,120.5 354,120.587 350.53,125.441 350,126.5 346.7,133.099 353.964,141 359.5,141 359.5,141 362.5,142 362.5,142 370.007,138.246 357.739,127.381 364.5,124 366.435,123.033 370.39,127.279 371,128.5 371,128.5 375,133.5 375,133.5 376.034,135.569 368.93,140.36 373,148.5 374.981,152.462 378.431,157.965 382.5,160 385.018,161.259 386.945,157.223 388.5,158 394.487,160.994 397.265,193.97 394,200.5 391.828,204.845 389.261,201.022 388,198.5 388,198.5 384,180.5 384,180.5 377.588,167.677 371.929,157.714 358.5,151 358.5,151 355.5,147 355.5,147 348.532,143.516 350.885,160.27 352,162.5 355.846,170.191 362.617,172.558 369.5,176 374.226,178.363 375.839,185.178 378,189.5 378.662,190.824 379.897,193.706 379,195.5 378.077,197.346 374.26,194.76 373.5,194 370.829,191.329 364.204,184.852 360.5,183 358.708,182.104 346.639,175.43 345.5,176 341.442,178.029 337.355,179 333.5,179 330.794,179 321,175.675 321,181.5 321,189.082 342.809,201 350.5,201 352.652,201 356.705,199.102 358.5,200 361.764,201.632 371.368,207.236 373,210.5 373,210.5 374,215.5 374,215.5 374,215.5 379,219 379,219 379,219 377,220 377,220 377,220 376,220 376,220 376,218.942 375,216.971 375,219 371.348,219 354.569,217.035 350.5,215 350.5,215 341.5,212 341.5,212 337.341,212 332.68,214.86 335,219.5 339.327,228.154 354.315,226 360.5,226 362.33,226 370,220.653 370,224 368.527,224 369,225.952 369,227  Z"/>

<path  fill="#FFFF00" stroke-width="0" stroke="#FFFF00" d = " M244 100 C244,102.091 247.746,100 244,100  Z"/>

<path  fill="#FFFF00" stroke-width="0" stroke="#FFFF00" d = " M204 103 C204,110.435 206.905,103 204,103  Z"/>

<path  fill="#FFFF00" stroke-width="0" stroke="#FFFF00" d = " M269 109 C269,113.566 256.858,112.321 253.5,114 248.261,116.619 238.456,115.522 233.5,118 225.336,122.082 215.721,122.89 207.5,127 202.404,129.548 196.286,137.072 199,142.5 L205.5,143 C213.568,138.966 221.541,134.979 229.5,131 240.484,125.508 260.529,133.985 268.5,130 274.298,127.101 276.182,109 269,109  Z"/>

<path  fill="#FFFF00" stroke-width="0" stroke="#FFFF00" d = " M278 129 C278,131.777 264.837,138.831 262.5,140 249.78,146.36 191.343,141.186 205,168.5 207.005,172.509 213.665,175.082 217.5,177 225.699,181.1 233.335,185.918 241.5,190 242.604,190.552 266.823,181.339 269.5,180 L271.5,177 C274.839,175.331 280.895,174.709 283,170.5 284.031,168.438 287.507,161.503 284.5,160 L275.5,161 C271.512,159.006 268.375,155.937 264.5,154 L263,151.5 C267.426,142.649 282.611,148.277 286,141.5 288.913,135.675 283.44,129 278,129  Z"/>

<path  fill="#FFFF00" stroke-width="0" stroke="#FFFF00" d = " M233 204 C233,205.785 227.14,206.779 229,210.5 231.299,215.097 259.215,215.07 261,211.5 262.19,209.12 256.096,204.798 254.5,204 251.165,202.333 247.197,206 244.5,206 241.373,206 237.134,204 233,204  Z"/>

<path  fill="#00FFFF" stroke-width="0" stroke="#00FFFF" d = " M382 211 L382,213 C379.485,213 382,206.144 382,211  Z"/>

<path  fill="#FFFF00" stroke-width="0" stroke="#FFFF00" d = " M283 217 C281.577,217 279.456,218.978 277.5,218 276.84,217.67 275.754,215.992 275,217.5 273.733,220.035 277,220.761 277,221.5 277,225.936 269.189,229 265.5,229 L262.5,226 L261.5,228 C258.813,228 255.904,230.202 253.5,229 L251.5,226 L248.5,228 L246.5,226 C244.145,226 230.996,230.748 227.5,229 L226.5,226 C225.952,226 224.9,228 223.5,228 L222.5,226 L220.5,228 C218.941,228 217.094,225 216.5,225 216.457,225 211.311,229.123 210,226.5 205.203,216.906 226.707,226.914 220,213.5 L218.5,214 C214.242,214 214.808,215.846 210.5,218 208.396,219.052 207.83,216 206.5,216 206.212,216 204.061,218 202,218 197.987,218 198.962,229.731 205.5,233 209.548,235.024 222.393,231.946 224.5,233 232.726,237.113 250.921,234 262,234 265.311,234 283.122,232.256 284,230.5 286.606,225.288 283,221.579 283,217  Z"/>

<path  fill="#FFFF00" stroke-width="0" stroke="#FFFF00" d = " M103 253 L102,254 C102,254 102,260.5 102,260.5 102,260.5 97.5,261 97.5,261 97.5,261 97,273.5 97,273.5 98.7088,276.918 104.444,282.612 102,287.5 100.726,290.049 98.8306,290 97.5,290 97.5,290 96.5,293 96.5,293 96.5,293 93.5,293 93.5,293 92.3611,293.569 89.5099,298 87.5,298 77.6283,298 57.0977,289.299 46.5,284 41.4037,281.452 46.605,278.71 45,275.5 44.1726,273.845 39.3755,274.251 38,271.5 38,271.5 36,265.5 36,265.5 33.1169,259.734 37.5533,253.473 40.5,252 42.9949,250.753 52,254.926 52,250.5 52,250.5 45.5,249 45.5,249 42.9024,247.701 41.3194,239.861 43,236.5 44.7178,233.064 48.0141,228.743 51.5,227 51.5,227 54.5,228 54.5,228 54.5,228 56.5,224 56.5,224 58.5078,222.996 61.4523,223.024 63.5,222 63.5,222 63.5,220 63.5,220 63.9422,219.779 72.1419,216 72.5,216 72.5,216 75.5,219 75.5,219 83.3901,219 86.2267,219.953 90,227.5 92.1946,231.889 99,235.904 99,242 95.7881,242 92.0213,235.543 90,231.5 90,231.5 85,228.5 85,228.5 85,228.5 83.5,224 83.5,224 80.2674,222.384 58.7833,219.067 63,227.5 66.2567,234.013 84.4966,234.493 87,239.5 87,239.5 91,243.5 91,243.5 91,243.5 88.5,243 88.5,243 88.5,243 87.5,245 87.5,245 80.3223,248.589 60.4822,234.991 54.5,232 50.0575,229.779 44.3166,239.133 46,242.5 50.5533,251.607 77,246.584 77,254.5 77,258.482 69.3339,258.083 67.5,259 60.8457,262.327 44.6514,249.197 40,258.5 39.103,260.294 40.3378,263.176 41,264.5 41,264.5 42.5,270 42.5,270 47.8729,272.686 58.1302,261.76 62,269.5 64.8645,275.229 48,274.86 48,279.5 48,279.5 50.5,282 50.5,282 58.614,290.114 59.1643,274.832 67.5,279 67.5,279 68,286.5 68,286.5 69.1182,288.736 84.6936,294.903 88.5,293 94.2022,290.149 104.863,283.682 93.5,278 86.7939,274.647 78.4728,284.446 72,271.5 66.714,260.928 86.6688,268.416 89.5,267 94.2632,264.618 85.9246,258.651 88,254.5 89.6498,251.2 97.6639,256.418 98.5,256 98.5,256 101,253.5 101,253.5 101,253.5 99.5,251 99.5,251 99.5,251 103,252 103,252 103,252 103,253 103,253  Z"/>

<path  fill="#FFFF00" stroke-width="0" stroke="#FFFF00" d = " M131 219 C131,220.816 120.529,219.559 123,224.5 L129.5,225 C132.869,225 136.026,226.737 139.5,225 146.97,221.265 139.688,219 135.5,219 133.562,219 133.109,219 131,219  Z"/>

<path  fill-rule="evenodd" fill="#FFFF00" stroke-width="0" stroke="#FFFF00" d = " M411 224 L408.5,226 C405.722,226 402.746,228.377 399.5,230 397.572,230.964 388.904,240.202 394.5,243 396.871,244.186 397.675,241.412 400.5,240 406.8,236.85 431.357,224 411,224  M389 248 C386.888,248 389,243.357 389,242 389,239.882 390.728,232.772 393,230.5 L398.5,224 C402.874,221.813 418.745,218.622 423.5,221 425.959,222.229 424.654,227.077 426.5,228 428.15,228.825 430.94,227.22 432.5,228 L434,233.5 L437.5,235 C439.75,236.125 440.125,238.75 441,240.5 L443,240.5 C444.206,242.913 443.771,246.042 445,248.5 447.382,253.265 440,255.586 440,257.5 440,260.756 446.188,265.124 444,269.5 L441,273.5 L440.5,276 C440.167,276 436.712,275.077 436,276.5 434.797,278.906 439.745,280.01 438,283.5 433.688,292.125 421.575,296.538 414.5,293 L411.5,294 C409.71,293.105 408.097,291 406,291 L402.5,293 C397.558,295.471 383.092,289.683 381,285.5 375.369,274.239 388,262.509 388,252 392.851,252 390.966,254.733 393.5,256 393.5,256 402.5,258 402.5,258 405.695,259.597 413.481,269.51 408.5,272 404.458,274.021 376.746,267.991 384,282.5 385.516,285.532 394.763,290.869 398.5,289 401.651,287.425 398.839,283.822 400,281.5 400.824,279.852 401.907,285 402.5,285 403.005,285 403.007,279.746 404.5,279 406.1,278.2 410.213,278.927 411,280.5 412.323,283.145 408.022,286.544 409,288.5 411.079,292.657 430.507,289.486 432,286.5 436.587,277.325 420.46,281.419 417,274.5 417,274.5 416,271.5 416,271.5 419.236,265.027 447.496,278.492 440,263.5 436.97,257.44 410,264.497 410,253.5 410,248.341 415.836,252 416.5,252 416.5,252 420.5,250 420.5,250 421.914,249.293 432.306,252 434.5,252 434.5,252 435.5,254 435.5,254 438.819,255.659 441.107,246.714 440,244.5 438.079,240.659 436.369,241 433.5,241 431.214,241 427.782,233.359 426.5,234 422.451,236.024 420.049,240.725 415.5,243 413.024,244.238 409.898,244.801 407.5,246 407.5,246 406.5,249 406.5,249 406.5,249 402.5,247 402.5,247 402.5,247 401.5,249 401.5,249 399.811,249 397.919,249 395.5,249 394.314,249 389,245.753 389,248  Z"/>

<path  fill="#00FFFF" stroke-width="0" stroke="#00FFFF" d = " M99 242 C95.7881,242 92.0213,235.543 90,231.5 L85,228.5 L83.5,224 C80.2674,222.384 58.7833,219.067 63,227.5 66.2567,234.013 84.4966,234.493 87,239.5 L91,243.5 L88.5,243 L87.5,245 C80.3223,248.589 60.4822,234.991 54.5,232 50.0575,229.779 44.3166,239.133 46,242.5 50.5533,251.607 77,246.584 77,254.5 77,258.482 69.3339,258.083 67.5,259 60.8457,262.327 44.6514,249.197 40,258.5 39.103,260.294 40.3378,263.176 41,264.5 L42.5,270 C47.8729,272.686 58.1302,261.76 62,269.5 64.8645,275.229 48,274.86 48,279.5 L50.5,282 C58.614,290.114 59.1643,274.832 67.5,279 L68,286.5 C69.1182,288.736 84.6936,294.903 88.5,293 94.2022,290.149 104.863,283.682 93.5,278 86.7939,274.647 78.4728,284.446 72,271.5 66.714,260.928 86.6688,268.416 89.5,267 94.2632,264.618 85.9246,258.651 88,254.5 89.6498,251.2 97.6639,256.418 98.5,256 L101,253.5 L99.5,251 L103,252 C103,245.072 99,244.604 99,242  Z"/>

<path  fill-rule="evenodd" fill="#FFFF00" stroke-width="0" stroke="#FFFF00" d = " M129 239 C129,240.93 130.93,239 129,239  M120 239 C120,242.807 125.395,239 120,239  M111 223 L115.5,227 C121.411,229.956 133,228.859 133,236.5 133,236.923 136,238.316 136,242 136,242 134.5,244 134.5,244 134.5,244 131.5,241 131.5,241 129.327,242.087 121.982,246.241 119.5,245 119.5,245 115,242.5 115,242.5 115,242.5 114.5,238 114.5,238 114.5,238 113.5,241 113.5,241 112.68,241.41 109.52,236.539 109,235.5 109,235.5 111,231.5 111,231.5 111,231.5 111,223 111,223  Z"/>

<path  fill="#00FFFF" stroke-width="0" stroke="#00FFFF" d = " M411 224 L408.5,226 C405.722,226 402.746,228.377 399.5,230 397.572,230.964 388.904,240.202 394.5,243 396.871,244.186 397.675,241.412 400.5,240 406.8,236.85 431.357,224 411,224  Z"/>

<path  fill="#FFFF00" stroke-width="0" stroke="#FFFF00" d = " M336 234 L338,236 C341.138,236 343.817,240.659 346.5,242 351.299,244.399 361.004,246 366.5,246 368.765,246 368.397,243.706 369,242.5 369,242.5 371,242.5 371,242.5 372.928,238.644 367.387,235.726 369,232.5 369,232.5 371,226.5 371,226.5 371,226.5 369,227 369,227 367.478,227 360.737,229.881 358.5,231 358.5,231 351,231 351,231 348.254,231 343.526,234.513 340.5,233 338.36,231.93 336.613,231 334,231 334,232.481 336,231.785 336,234  Z"/>

<path  fill="#46A515" stroke-width="0" stroke="#46A515" d = " M99 230 C99,236.726 104.123,244.746 107,250.5 L107.5,257 L106.5,255 L106,262 C106,265.754 107.246,282 111.5,282 116.821,282 108.777,277.945 110,275.5 L118,271.5 C118,265.105 112,258.978 112,253.5 112,252.501 113.81,251.119 113,249.5 110.377,244.254 106.686,230 99,230  Z"/>

<path  fill="#00FFFF" stroke-width="0" stroke="#00FFFF" d = " M336 234 L338,236 C338,236 336,234 336,234  Z"/>

<path  fill="#00FFFF" stroke-width="0" stroke="#00FFFF" d = " M389 248 L388,252 C392.851,252 390.966,254.733 393.5,256 393.5,256 402.5,258 402.5,258 405.695,259.597 413.481,269.51 408.5,272 404.458,274.021 376.746,267.991 384,282.5 385.516,285.532 394.763,290.869 398.5,289 401.651,287.425 398.839,283.822 400,281.5 400.824,279.852 401.907,285 402.5,285 403.005,285 403.007,279.746 404.5,279 406.1,278.2 410.213,278.927 411,280.5 412.323,283.145 408.022,286.544 409,288.5 411.079,292.657 430.507,289.486 432,286.5 436.587,277.325 420.46,281.419 417,274.5 417,274.5 416,271.5 416,271.5 419.236,265.027 447.496,278.492 440,263.5 436.97,257.44 410,264.497 410,253.5 410,248.341 415.836,252 416.5,252 416.5,252 420.5,250 420.5,250 421.914,249.293 432.306,252 434.5,252 434.5,252 435.5,254 435.5,254 438.819,255.659 441.107,246.714 440,244.5 438.079,240.659 436.369,241 433.5,241 431.214,241 427.782,233.359 426.5,234 422.451,236.024 420.049,240.725 415.5,243 413.024,244.238 409.898,244.801 407.5,246 407.5,246 406.5,249 406.5,249 406.5,249 402.5,247 402.5,247 402.5,247 401.5,249 401.5,249 399.811,249 397.919,249 395.5,249 394.314,249 389,245.753 389,248  Z"/>

<path  fill-rule="evenodd" fill="#EB57FF" stroke-width="0" stroke="#EB57FF" d = " M228 259 C228,260.93 229.93,259 228,259  M223 259 C223,261.112 228.567,259 223,259  M206 247 C197.749,247 208.69,250.879 209,251.5 211.076,255.652 204,252.965 204,254.5 L207.5,255 C209.182,255.841 209.238,258.869 211.5,260 L235.5,261 C237.459,260.021 236.731,259 240,259 240,255.041 236.66,242.58 231.5,240 231.5,240 226.5,239 226.5,239 225.29,238.395 225.512,236.006 223.5,235 223.5,235 219.5,236 219.5,236 218.374,235.437 215.531,234.484 214.5,235 210.239,237.131 213.097,239 207,239 205.08,239 201.127,240 205,240 206.92,240 210.873,241 207,241 207,242.582 206,243.312 206,246 207.186,246 207.186,247 206,247  Z"/>

<path  fill="#9953FF" stroke-width="0" stroke="#9953FF" d = " M246 341 C246,338.523 248.011,338.478 249,336.5 253.32,327.86 273,339.522 273,342 275.862,342 280.909,339.295 283.5,338 283.5,338 294.5,337 294.5,337 307.452,330.524 312.417,333.667 320,318.5 320,318.5 323,316 323,316 323,316 320,313.5 320,313.5 318.572,310.644 322,308.947 322,307 313.691,307 313.805,293.111 311,287.5 309.418,284.336 304,286.25 301.5,285 301.5,285 295.5,280 295.5,280 295.5,280 290,269.5 290,269.5 294.289,260.922 300.952,262.726 309.5,267 309.5,267 314.5,271 314.5,271 316.269,270.115 313,267.075 313,266 313,266 312,265 312,265 312,265 308,261 308,261 308,261 309,259 309,259 309,259 311,258 311,258 311,258 313,258 313,258 313,258 314,256 314,256 314,252.923 312.596,244.452 315.5,243 317.176,242.162 325,245.808 325,243 325,243 318.5,240 318.5,240 318.5,240 304.5,240 304.5,240 301.999,238.75 298.842,239.171 296.5,238 296.5,238 296.5,236 296.5,236 296.5,236 292.5,238 292.5,238 292.5,238 282,238 282,238 282,240.344 284.389,241.278 285,242.5 286.497,245.494 280,246.286 280,248.5 280,248.5 282,249.5 282,249.5 282,249.5 278,251.5 278,251.5 277.333,252.834 281.329,257.585 276.5,260 270.8,262.85 266.914,261.207 262.5,259 260.212,257.856 257.334,260 255.5,260 253.421,260 247,259.049 247,259 247,259 240,259 240,259 236.731,259 237.459,260.021 235.5,261 235.5,261 211.5,260 211.5,260 209.238,258.869 209.182,255.841 207.5,255 207.5,255 204,254.5 204,254.5 204,252.965 211.076,255.652 209,251.5 208.69,250.879 197.749,247 206,247 206,247 206,246 206,246 206,243.312 207,242.582 207,241 207,241 205,240 205,240 201.127,240 205.08,239 207,239 207,235.669 197.916,238.708 196.5,238 189.728,234.614 178.895,243 170,243 170,243 174,248.5 174,248.5 174,248.5 174,258 174,258 174,261.123 178,256.743 178,262 182.961,262 190.283,261.892 194.5,264 200.839,267.17 190.232,281.134 186.5,283 183.643,284.429 177.374,281.753 176,284.5 173.844,288.812 172.293,309 166,309 166,311.559 166,313.441 166,316 167.951,316 166.477,318.454 167,319.5 168.569,322.637 171.797,328.149 175.5,330 179.505,332.002 212.648,343 216,343 216,331.071 241,327.09 241,341 241,341 246,341 246,341  Z"/>

<path  fill="#EB57FF" stroke-width="0" stroke="#EB57FF" d = " M282 238 C275.822,238 265.788,234.356 260.5,237 L256.5,241 L253,242.5 L254,245.5 L251,247.5 L250,254.5 C249.129,256.241 247,256.174 247,259 247,259.049 253.421,260 255.5,260 257.334,260 260.212,257.856 262.5,259 266.914,261.207 270.8,262.85 276.5,260 281.329,257.585 277.333,252.834 278,251.5 278,251.5 282,249.5 282,249.5 282,249.5 280,248.5 280,248.5 280,246.286 286.497,245.494 285,242.5 284.389,241.278 282,240.344 282,238  Z"/>

<path  fill="#00FFFF" stroke-width="0" stroke="#00FFFF" d = " M120 239 C120,242.807 125.395,239 120,239  Z"/>

<path  fill="#00FFFF" stroke-width="0" stroke="#00FFFF" d = " M129 239 C129,240.93 130.93,239 129,239  Z"/>

<path  fill="#34FF0D" stroke-width="0" stroke="#34FF0D" d = " M162 266 C162,270.567 149,279.885 149,287 142.268,287 150.157,276.814 149,274.5 149,274.5 145,270.5 145,270.5 145,267.075 149.028,260.445 151,256.5 151,256.5 155,253.5 155,253.5 155,253.5 155,249.5 155,249.5 156.055,247.39 159.406,247.688 160,246.5 160.809,244.882 160.21,243.145 162.5,242 164.651,240.925 167.827,243 170,243 170,243 174,248.5 174,248.5 174,248.5 174,258 174,258 174,258 170,261 170,261 170,261 168,261 168,261 164.835,261 165.492,265 163,265 163,265 162,266 162,266  Z"/>

<path  fill="#34FF0D" stroke-width="0" stroke="#34FF0D" d = " M321 261 C324.274,261 327.968,268.436 329,270.5 333.723,279.946 339,284.374 339,296 343.214,296 341.213,284.075 342,282.5 342.896,280.708 343,275.669 343,273.5 343,273.5 341,272.5 341,272.5 340.497,271.494 344.397,269.294 343,266.5 341.458,263.416 338.145,258.79 336,254.5 335.681,253.863 329,249.933 329,247 329,247 326,244 326,244 326,244 325,243 325,243 325,245.808 317.176,242.162 315.5,243 312.596,244.452 314,252.923 314,256 314,256 315,258 315,258 315,258 319,259 319,259 320.747,259 321,259.253 321,261  Z"/>

<path  fill="#9953FF" stroke-width="0" stroke="#9953FF" d = " M326 244 L329,247 C329,247 326,244 326,244  Z"/>

<path  fill="#46A515" stroke-width="0" stroke="#46A515" d = " M374 250 L371,256 L371.5,261 C372.772,262.272 372.532,266 375.5,266 377.5,266 384.989,250 374,250  Z"/>

<path  fill="#00FFFF" stroke-width="0" stroke="#00FFFF" d = " M103 253 L102,254 C102,254 103,253 103,253  Z"/>

<path  fill="#FA8072" stroke-width="0" stroke="#FA8072" d = " M166 309 C166,311.559 166,313.441 166,316 166,320.719 156.737,312.974 156,311.5 148.72,296.94 149,303.838 149,287 149,279.885 162,270.567 162,266 162,266 163,265 163,265 165.492,265 164.835,261 168,261 168,262.399 170,262.399 170,261 170,261 174,258 174,258 174,261.123 178,256.743 178,262 178,263.712 174.251,265 178,265 178,265 178,266 178,266 173.207,266 164.23,282.039 162,286.5 160.429,289.641 161.117,294.266 160,296.5 158.596,299.307 163.079,309 166,309  Z"/>

<path  fill="#FA8072" stroke-width="0" stroke="#FA8072" d = " M324 307 C324,308.186 325,308.186 325,307 326.771,307 327,297.506 327,295.5 327,284.813 322.304,282.109 318,273.5 317.149,271.798 315.978,266 313,266 313,266 312,265 312,265 312,265 310,261 310,261 310,261 309,259 309,259 309,259 311,258 311,258 311,258 313,258 313,258 313,258 315,258 315,258 315,258 319,259 319,259 319,259 321,261 321,261 324.274,261 327.968,268.436 329,270.5 333.723,279.946 339,284.374 339,296 339,296 339,299 339,299 339,299 338,300 338,300 338,305.991 329.5,316 323,316 323,316 320,313.5 320,313.5 318.572,310.644 322,308.947 322,307 322,307 324,307 324,307  Z"/>

<path  fill="#9953FF" stroke-width="0" stroke="#9953FF" d = " M223 259 C223,261.112 228.567,259 223,259  Z"/>

<path  fill="#9953FF" stroke-width="0" stroke="#9953FF" d = " M228 259 C228,260.93 229.93,259 228,259  Z"/>

<path  fill="#5BF1FF" stroke-width="0" stroke="#5BF1FF" d = " M310 261 L312,265 C312,265 308,261 308,261 308,261 310,261 310,261  Z"/>

<path  fill="#5BF1FF" stroke-width="0" stroke="#5BF1FF" d = " M178 266 C173.207,266 164.23,282.039 162,286.5 160.429,289.641 161.117,294.266 160,296.5 158.596,299.307 163.079,309 166,309 172.293,309 173.844,288.812 176,284.5 177.374,281.753 183.643,284.429 186.5,283 190.232,281.134 200.839,267.17 194.5,264 190.283,261.892 182.961,262 178,262 178,263.712 174.251,265 178,265 181.982,265 182.727,266 178,266  Z"/>

<path  fill="#5BF1FF" stroke-width="0" stroke="#5BF1FF" d = " M324 307 L325,307 C326.771,307 327,297.506 327,295.5 327,284.813 322.304,282.109 318,273.5 317.149,271.798 315.978,266 313,266 313,267.075 316.269,270.115 314.5,271 314.5,271 309.5,267 309.5,267 300.952,262.726 294.289,260.922 290,269.5 290,269.5 295.5,280 295.5,280 295.5,280 301.5,285 301.5,285 304,286.25 309.418,284.336 311,287.5 313.805,293.111 313.691,307 322,307 322,307 324,307 324,307  Z"/>

<path  fill="#9953FF" stroke-width="0" stroke="#9953FF" d = " M178 265 C181.982,265 182.727,266 178,266 178,266 178,265 178,265  Z"/>

<path  fill="#46A515" stroke-width="0" stroke="#46A515" d = " M42 289 C42,295.88 42.955,291.727 45.5,293 46.078,293.289 43.9245,296.712 46.5,298 52.6507,301.075 50.1059,289 42,289  Z"/>

<path  fill="#46A515" stroke-width="0" stroke="#46A515" d = " M101 292 L97,297.5 L98,300.5 C98,308.707 109.794,292 101,292  Z"/>

<path  fill="#46A515" stroke-width="0" stroke="#46A515" d = " M439 294 L435,296.5 C431.606,303.288 451.945,294 439,294  Z"/>

<path  fill="#46A515" stroke-width="0" stroke="#46A515" d = " M388 298 C388,304.324 400,302.948 400,300.5 400,298.135 389.998,298 388,298  Z"/>

<path  fill="#34FF0D" stroke-width="0" stroke="#34FF0D" d = " M339 299 L338,300 C338,300 339,299 339,299  Z"/>

<path  fill="#9953FF" stroke-width="0" stroke="#9953FF" d = " M324 307 L325,307 C325,308.186 324,308.186 324,307  Z"/>

<path  fill="#46A515" stroke-width="0" stroke="#46A515" d = " M107 312 C107,321.904 93.7813,314 89.5,314 L84,319.5 C87.7994,327.099 123.563,312 107,312  Z"/>

<path  fill="#46A515" stroke-width="0" stroke="#46A515" d = " M407 314 L404,316.5 C401.682,321.136 416.863,321.363 410,314.5 L407,314  Z"/>

<path  fill="#FF3427" stroke-width="0" stroke="#FF3427" d = " M216 344 L217,345 C218.72,345 231.972,357.555 237,347.5 237,347.5 241,341 241,341 241,327.09 216,331.071 216,343 216,343 216,344 216,344  Z"/>

<path  fill="#FF3427" stroke-width="0" stroke="#FF3427" d = " M246 341 L249.5,346 C254.541,348.521 262.188,353.156 268.5,350 L269.5,347 L273,342 C273,339.522 253.32,327.86 249,336.5 248.011,338.478 246,338.523 246,341  Z"/>

<path  fill="#9953FF" stroke-width="0" stroke="#9953FF" d = " M216 344 L217,345 C217,345 216,344 216,344  Z"/>

</g>
</svg>
