<svg xmlns="http://www.w3.org/2000/svg" xmlns:xlink="http://www.w3.org/1999/xlink" height="512" width="512">
<g>
<rect width="512" height="512" fill="#000000"  stroke-width="0" /> 
<path  fill-rule="evenodd" fill="#FFFF00" stroke-width="0" stroke="#FFFF00" d = " M368 221 C368,226.567 370.112,221 368,221  M386 178 C386,178.048 382.67,183.16 382,184.5 L383,203.5 L385.5,208 L386.5,205 C387.197,205 389.287,208.926 391,205.5 391.959,203.582 388.98,186.46 388,184.5 387.35,183.2 387.993,178 386,178  M156 146 C156,147.854 146.243,148.013 144,152.5 136.87,166.76 137.933,200 115.5,200 114.287,200 115.676,192.147 116,191.5 119.918,183.663 124.787,173.926 129,165.5 129.316,164.869 133.979,154 131.5,154 L121,166.5 L119.5,171 L118.5,168 C114.369,165.935 116.737,174.027 116,175.5 115.805,175.891 110.746,172.009 109,175.5 107.11,179.28 108.241,192.982 110,196.5 L113,200.5 C113,202.654 111.065,208.283 114.5,210 121.305,213.403 126.68,201.41 131.5,199 142.213,193.643 150.911,169.678 156,159.5 157.639,156.222 162.99,148 157.5,148 L156,146  M323 143 C323,152.61 328.311,153.121 332,160.5 337.587,171.674 343.8,193.15 355.5,199 361.808,202.154 362.787,211 369.5,211 L370.5,216 L371,209.5 C373.732,204.036 374,194.948 374,188.5 374,183.938 377.056,166.611 376,164.5 373.988,160.475 367.295,157 365.5,157 L364.5,154 C362.513,154 359.339,153 356.5,153 L356,156.5 C357.639,159.778 358.498,163.495 360,166.5 L360,170.5 C363.388,177.276 364.615,184.73 368,191.5 369.3,194.099 365.249,200.375 362.5,199 356.395,195.947 353.671,189.842 351,184.5 L351,177.5 L349,178.5 C347.233,174.966 349.766,164.032 349,162.5 L344,150.5 C343.007,148.515 338.318,147.909 336.5,147 333.832,145.666 334.334,151 333.5,151 L332.5,149 L330.5,150 L330,146.5 L327.5,147 L323,143  M244 116 L241,117.5 C240.385,118.729 224.729,118.043 222,123.5 220.538,126.424 233.334,124.417 234.5,125 237.998,126.749 252.64,128.43 257.5,126 257.997,125.751 260.055,121 258.5,121 L257.5,123 L256.5,119 C253.016,117.258 248.146,116 244,116  M125 234 L126,234 C126,232.527 127.952,233 129,233 129,233 131,234 131,234 132.384,234 132.123,237.189 134.5,236 138.233,234.134 142.703,233.898 146.5,232 146.5,232 171,207.5 171,207.5 174.561,200.379 179.358,193.784 183,186.5 192.931,166.639 194.643,152 221.5,152 228.802,152 263.966,152.733 268.5,155 272.197,156.849 275.742,159.121 279.5,161 279.5,161 281.5,164 281.5,164 285.344,164 291.566,167.632 294,172.5 298.351,181.203 313.373,210.937 321.5,215 323.088,215.794 337.98,222.541 340,218.5 342.284,213.933 324.788,204.076 322,198.5 318.702,191.904 312.435,188.371 309,181.5 297.653,158.805 283.118,151.809 263.5,142 259.628,140.064 234.256,141 229.5,141 229.5,141 228.5,143 228.5,143 226.908,143.796 217.107,140.196 219.5,139 219.5,139 228.5,138 228.5,138 247.513,128.493 252.036,130.768 270.5,140 278.008,143.754 282.804,133.152 288.5,136 293.257,138.379 302.393,166.053 308.5,163 313.997,160.251 295.236,132.632 300.5,130 302.572,128.964 302.376,134 303.5,134 303.5,134 304.5,132 304.5,132 304.5,132 305.5,135 305.5,135 305.5,135 311,140.5 311,140.5 311,140.5 311.5,145 311.5,145 311.5,145 312.5,143 312.5,143 312.5,143 313.5,148 313.5,148 315.429,148.964 318.981,171.462 321,175.5 326.299,186.098 348.434,219 351.5,219 351.5,219 358.5,226 358.5,226 361.481,227.491 365.462,228 368,228 371.038,228 369.178,222.144 370,220.5 370.299,219.903 375,224.626 375,213 373.514,213 373.514,210 375,210 375,208.082 374.134,201 377.5,201 377.5,201 378,208.5 378,208.5 378,210.493 379,213.14 379,214.5 379,215.83 375.948,216.396 377,218.5 377,218.5 379,219.5 379,219.5 379,219.5 377.5,221 377.5,221 379,221.75 382.276,220.947 383,219.5 385.815,213.871 393.631,210.239 396,205.5 396,205.5 399,204.5 399,204.5 399,199.575 391.188,169 388.5,169 388.5,169 384.5,163 384.5,163 381.79,163 382.227,168 381.5,168 381.5,168 381,164.5 381,164.5 381,164.5 379,163.5 379,163.5 379,163.5 378,156.5 378,156.5 376.288,153.075 372.848,151 370.5,151 370.5,151 367.5,146 367.5,146 363.736,142.236 361.437,140.969 357.5,139 357.5,139 355.5,140 355.5,140 352.029,141.736 351.974,135.553 348,143.5 348,143.5 347.5,147 347.5,147 346.173,147 344.915,140.707 343.5,140 341.339,138.92 341.188,140 339.5,140 339.5,140 337.5,137 337.5,137 334.982,135.741 333.055,139.777 331.5,139 331.5,139 323.5,131 323.5,131 323.5,131 316,135.5 316,135.5 316,135.586 318.451,142 316.5,142 313.847,142 312.799,133.098 312,131.5 312,131.5 307.5,127 307.5,127 307.5,127 306,128.5 306,128.5 303.434,123.368 303.806,119.153 299.5,117 296.357,115.429 283.041,114.582 287,122.5 287.524,123.548 291.246,128.627 288.5,130 286.127,131.187 287.671,127 286.5,127 282.254,127 278.98,123.24 274.5,121 268.799,118.149 260.236,115.868 254.5,113 253.133,112.317 249.856,113.178 247.5,112 244.386,110.443 228.256,115.622 225.5,117 224.425,117.538 218.81,120.121 218,118.5 216.193,114.887 222.998,114.751 224.5,114 227.481,112.51 231.608,113.446 234.5,112 234.5,112 237.5,109 237.5,109 237.5,109 249.5,108 249.5,108 251.227,107.137 249.666,100.583 248.5,100 247.809,99.6545 227.95,103.275 226.5,104 226.5,104 220.5,104 220.5,104 220.5,104 220.5,106 220.5,106 220.5,106 215.5,107 215.5,107 212.328,108.586 204.113,109.726 207,115.5 208.75,119 215.726,114.952 217,117.5 217,117.5 214.5,121 214.5,121 214.5,121 205.5,123 205.5,123 205.5,123 202.5,126 202.5,126 202.5,126 199.5,125 199.5,125 198.503,125.499 198.758,128.129 196.5,127 196.5,127 196,122.5 196,122.5 196,122.5 199,120.5 199,120.5 200.739,117.023 192.338,112.581 189.5,114 186.32,115.59 188.498,116.503 187,119.5 186.956,119.588 182.599,121.302 182,122.5 178.929,128.643 177.554,132.973 171.5,136 168.849,137.326 169.012,144 168.5,144 166.819,144 166.502,137.503 166,136.5 165.404,135.309 156.18,134.16 154.5,135 152.467,136.017 146.178,144 143.5,144 143.5,144 140.5,150 140.5,150 137.35,150 140.179,141 138.5,141 138.5,141 137.5,144 137.5,144 136.168,144 138.151,138.674 135.5,140 129.855,142.822 124.785,146.929 122,152.5 122,152.5 120,152.5 120,152.5 119.081,154.337 117.592,158.954 115.5,160 115.5,160 109.5,162 109.5,162 109.111,162.194 106.604,173.292 106,174.5 101.566,183.367 106.995,197.491 111,205.5 111.515,206.53 113.585,216 114.5,216 114.5,216 117.5,215 117.5,215 121.388,216.944 112.373,227 120,227 124.195,227 140.095,210.31 142,206.5 142,206.5 152,195.5 152,195.5 155.969,187.561 162.024,180.452 166,172.5 169.385,165.731 168.288,150.925 171,145.5 171,145.5 177,136.5 177,136.5 178.353,133.794 182.775,138.95 182,140.5 180.12,144.261 177,149.724 177,155 177,155 177.5,161 177.5,161 181.265,162.883 184.967,154.567 186,152.5 188.396,147.708 196.254,129 202.5,129 202.5,129 203.5,131 203.5,131 203.5,131 204.5,129 204.5,129 204.5,129 205,133 205,133 205,136.762 205.673,140.827 203,143.5 196.818,149.682 187.456,156.587 184,163.5 177.89,175.72 168.125,186.25 162,198.5 157.737,207.027 146.881,212.739 143,220.5 141.171,224.157 130.285,228.608 127.5,230 126.806,230.347 124,227.986 124,230.5 124,230.5 125,234 125,234  Z"/>

<path  fill="#00FFFF" stroke-width="0" stroke="#00FFFF" d = " M244 116 L241,117.5 C240.385,118.729 224.729,118.043 222,123.5 220.538,126.424 233.334,124.417 234.5,125 237.998,126.749 252.64,128.43 257.5,126 257.997,125.751 260.055,121 258.5,121 L257.5,123 L256.5,119 C253.016,117.258 248.146,116 244,116  Z"/>

<path  fill="#00FFFF" stroke-width="0" stroke="#00FFFF" d = " M123 235 L125,235 C125,235 125,234 125,234 125,234 124,230.5 124,230.5 124,227.986 126.806,230.347 127.5,230 130.285,228.608 141.171,224.157 143,220.5 146.881,212.739 157.737,207.027 162,198.5 168.125,186.25 177.89,175.72 184,163.5 187.456,156.587 196.818,149.682 203,143.5 205.673,140.827 205,136.762 205,133 205,133 204.5,129 204.5,129 204.5,129 203.5,131 203.5,131 203.5,131 202.5,129 202.5,129 196.254,129 188.396,147.708 186,152.5 184.967,154.567 181.265,162.883 177.5,161 177.5,161 177,155 177,155 177,149.724 180.12,144.261 182,140.5 182.775,138.95 178.353,133.794 177,136.5 177,136.5 171,145.5 171,145.5 168.288,150.925 169.385,165.731 166,172.5 162.024,180.452 155.969,187.561 152,195.5 152,195.5 142,206.5 142,206.5 140.095,210.31 124.195,227 120,227 120,229.616 123,230.909 123,235  Z"/>

<path  fill-rule="evenodd" fill="#00FFFF" stroke-width="0" stroke="#00FFFF" d = " M336 224 C336,225.795 328.334,224.167 330,227.5 333.448,234.396 357.243,233 360.5,233 362.372,233 358.497,229 357.5,229 356.411,229 354.279,228.89 352.5,228 350.275,226.888 347.654,226 345,226 L336,224  M256 181 C256,183.144 251.738,181.381 250.5,182 246.154,184.173 236.06,185.78 230.5,183 227.914,181.707 204.896,185.802 202.5,187 199.544,188.478 197.786,190.357 194.5,192 191.292,193.604 177.948,199.395 181,205.5 183.368,210.236 206.987,193.744 211.5,196 220.958,200.729 239.057,206.721 250.5,201 L258.5,201 C262.518,198.991 269.949,195 274.5,195 281.809,195 298.902,211.799 304.5,209 310.418,206.041 295.437,196.374 294,193.5 288.819,183.138 266.936,181 256,181  M219 164 C219,165.434 212.552,166 211,166 206.937,166 191.974,174.448 195,180.5 L199.5,181 C205.6,177.95 211.654,175 219,175 234.329,175 248.551,173 264.5,173 267.191,173 280.631,176.434 281.5,176 284.674,174.413 276.68,168.59 275.5,168 266.836,163.668 253.847,164 243.5,164 236.71,164 225.716,164 219,164  M343 239 C343,236.788 344,236.788 344,239 344,239 353.5,235 353.5,235 358.939,235 363.529,234 368,234 368,232.369 368,229.631 368,228 365.462,228 361.481,227.491 358.5,226 358.5,226 351.5,219 351.5,219 348.434,219 326.299,186.098 321,175.5 318.981,171.462 315.429,148.964 313.5,148 313.5,148 312.5,143 312.5,143 312.5,143 311.5,145 311.5,145 311.5,145 311,140.5 311,140.5 311,140.5 305.5,135 305.5,135 305.5,135 304.5,132 304.5,132 304.5,132 303.5,134 303.5,134 302.376,134 302.572,128.964 300.5,130 295.236,132.632 313.997,160.251 308.5,163 302.393,166.053 293.257,138.379 288.5,136 282.804,133.152 278.008,143.754 270.5,140 252.036,130.768 247.513,128.493 228.5,138 228.5,138 219.5,139 219.5,139 217.107,140.196 226.908,143.796 228.5,143 228.5,143 229.5,141 229.5,141 234.256,141 259.628,140.064 263.5,142 283.118,151.809 297.653,158.805 309,181.5 312.435,188.371 318.702,191.904 322,198.5 324.788,204.076 342.284,213.933 340,218.5 337.98,222.541 323.088,215.794 321.5,215 313.373,210.937 298.351,181.203 294,172.5 291.566,167.632 285.344,164 281.5,164 281.5,164 279.5,161 279.5,161 275.742,159.121 272.197,156.849 268.5,155 263.966,152.733 228.802,152 221.5,152 194.643,152 192.931,166.639 183,186.5 179.358,193.784 174.561,200.379 171,207.5 171,207.5 146.5,232 146.5,232 142.703,233.898 138.233,234.134 134.5,236 132.123,237.189 132.384,234 131,234 131,234 131,237 131,237 135.623,237 140.821,243 145,243 145,237.926 155.825,239.337 160.5,237 160.5,237 178.5,219 178.5,219 184.549,215.976 193.205,215.147 197.5,213 197.5,213 199.5,210 199.5,210 200.933,210 204.941,216 208,216 208,213.788 209,213.788 209,216 209,218.466 211.005,216 211.5,216 211.5,216 214.5,219 214.5,219 218.167,219 220.58,214 224,214 230.866,214 246.448,219.026 252.5,216 255.247,214.626 262.953,211.226 266.5,213 266.5,213 272.5,219 272.5,219 273.819,219 276.322,216 276.5,216 276.5,216 279.5,217 279.5,217 281.047,217 284.38,209.94 292.5,214 298.718,217.109 305.321,218.91 311.5,222 318.641,225.571 318.986,236.243 326.5,240 330.896,242.198 334.083,238.708 337.5,237 340.439,235.53 341.716,239 343,239  Z"/>

<path  fill="#00FFFF" stroke-width="0" stroke="#00FFFF" d = " M323 143 C323,152.61 328.311,153.121 332,160.5 337.587,171.674 343.8,193.15 355.5,199 361.808,202.154 362.787,211 369.5,211 L370.5,216 L371,209.5 C373.732,204.036 374,194.948 374,188.5 374,183.938 377.056,166.611 376,164.5 373.988,160.475 367.295,157 365.5,157 L364.5,154 C362.513,154 359.339,153 356.5,153 L356,156.5 C357.639,159.778 358.498,163.495 360,166.5 L360,170.5 C363.388,177.276 364.615,184.73 368,191.5 369.3,194.099 365.249,200.375 362.5,199 356.395,195.947 353.671,189.842 351,184.5 L351,177.5 L349,178.5 C347.233,174.966 349.766,164.032 349,162.5 L344,150.5 C343.007,148.515 338.318,147.909 336.5,147 333.832,145.666 334.334,151 333.5,151 L332.5,149 L330.5,150 L330,146.5 L327.5,147 L323,143  Z"/>

<path  fill="#00FFFF" stroke-width="0" stroke="#00FFFF" d = " M156 146 C156,147.854 146.243,148.013 144,152.5 136.87,166.76 137.933,200 115.5,200 114.287,200 115.676,192.147 116,191.5 119.918,183.663 124.787,173.926 129,165.5 129.316,164.869 133.979,154 131.5,154 L121,166.5 L119.5,171 L118.5,168 C114.369,165.935 116.737,174.027 116,175.5 115.805,175.891 110.746,172.009 109,175.5 107.11,179.28 108.241,192.982 110,196.5 L113,200.5 C113,202.654 111.065,208.283 114.5,210 121.305,213.403 126.68,201.41 131.5,199 142.213,193.643 150.911,169.678 156,159.5 157.639,156.222 162.99,148 157.5,148 L156,146  Z"/>

<path  fill="#FFFF00" stroke-width="0" stroke="#FFFF00" d = " M219 164 C219,165.434 212.552,166 211,166 206.937,166 191.974,174.448 195,180.5 L199.5,181 C205.6,177.95 211.654,175 219,175 234.329,175 248.551,173 264.5,173 267.191,173 280.631,176.434 281.5,176 284.674,174.413 276.68,168.59 275.5,168 266.836,163.668 253.847,164 243.5,164 236.71,164 225.716,164 219,164  Z"/>

<path  fill="#00FFFF" stroke-width="0" stroke="#00FFFF" d = " M386 178 C386,178.048 382.67,183.16 382,184.5 L383,203.5 L385.5,208 L386.5,205 C387.197,205 389.287,208.926 391,205.5 391.959,203.582 388.98,186.46 388,184.5 387.35,183.2 387.993,178 386,178  Z"/>

<path  fill="#FFFF00" stroke-width="0" stroke="#FFFF00" d = " M256 181 C256,183.144 251.738,181.381 250.5,182 246.154,184.173 236.06,185.78 230.5,183 227.914,181.707 204.896,185.802 202.5,187 199.544,188.478 197.786,190.357 194.5,192 191.292,193.604 177.948,199.395 181,205.5 183.368,210.236 206.987,193.744 211.5,196 220.958,200.729 239.057,206.721 250.5,201 L258.5,201 C262.518,198.991 269.949,195 274.5,195 281.809,195 298.902,211.799 304.5,209 310.418,206.041 295.437,196.374 294,193.5 288.819,183.138 266.936,181 256,181  Z"/>

<path  fill="#FFFF00" stroke-width="0" stroke="#FFFF00" d = " M98 185 C98,186.938 95.9939,193.512 95,195.5 94.1784,197.143 99.5063,204.497 100.5,204 104.227,202.137 102.748,185 98,185  Z"/>

<path  fill="#FFFF00" stroke-width="0" stroke="#FFFF00" d = " M397 191 C397,196.567 399.112,191 397,191  Z"/>

<path  fill-rule="evenodd" fill="#FFFF00" stroke-width="0" stroke="#FFFF00" d = " M246 231 C246,234.746 248.091,231 246,231  M248 230 C248,233.479 252.365,230 248,230  M242 230 C242,236.056 248.947,230 242,230  M333 245 L334,245 C334,245 335,244 335,244 335,241.132 337.688,242 340,242 340,242 343,239 343,239 341.716,239 340.439,235.53 337.5,237 334.083,238.708 330.896,242.198 326.5,240 318.986,236.243 318.641,225.571 311.5,222 305.321,218.91 298.718,217.109 292.5,214 284.38,209.94 281.047,217 279.5,217 279.5,217 276.5,216 276.5,216 276.322,216 273.819,219 272.5,219 272.5,219 266.5,213 266.5,213 262.953,211.226 255.247,214.626 252.5,216 246.448,219.026 230.866,214 224,214 220.58,214 218.167,219 214.5,219 214.5,219 211.5,216 211.5,216 211.005,216 209,218.466 209,216 209,216 208,216 208,216 204.941,216 200.933,210 199.5,210 199.5,210 197.5,213 197.5,213 193.205,215.147 184.549,215.976 178.5,219 178.5,219 160.5,237 160.5,237 155.825,239.337 145,237.926 145,243 145,245.623 147.435,244 150,244 150,241.788 151,241.788 151,244 151,244 152,244 152,244 152,244 153,245 153,245 159.999,245 157.296,242 162,242 162,242 167,238 167,238 167,236.423 168.762,236 170,236 170,236 171,234 171,234 171,234 174,230 174,230 174,230 177,229 177,229 177,229 178,229 178,229 178,229 179,229 179,229 179,229 179,228 179,228 179,228 180,227 180,227 180,217.412 210,212.819 210,222 210,222 211,223 211,223 211,223 212,224 212,224 212,224 213,225 213,225 213,223.368 216.5,226.5 217.5,227 220.104,228.302 218.071,233.285 221.5,235 223.598,236.049 232,232.983 232,237 232,237 234,237 234,237 234,234.754 238,237.086 238,238 238,238 239,238 239,238 239,236.642 243.212,239.644 244.5,239 246.829,237.836 250.439,237 254,237 254,235.174 261.123,236 265,236 265,236 267,236 267,236 267,236 269,235 269,235 269,232.539 268.546,233 272,233 272,233 274,229 274,229 274,220.864 286.348,214.924 294.5,219 297.344,220.422 300.308,222.904 302.5,224 304.564,225.032 312,228.726 312,232 312,232 314,235 314,235 314,235 318,238 318,238 318,238 319,241 319,241 319,241 320,242 320,242 323.969,242 324.674,244.587 327.5,246 328.079,246.289 333,241.256 333,245  Z"/>

<path  fill="#00FFFF" stroke-width="0" stroke="#00FFFF" d = " M375 210 C373.514,210 373.514,213 375,213 375,213 375,210 375,210  Z"/>

<path  fill="#00FFFF" stroke-width="0" stroke="#00FFFF" d = " M210 222 L204,224 C198.946,224 187.709,221.895 185.5,223 183.006,224.247 181.826,227 180,227 180,217.412 210,212.819 210,222  Z"/>

<path  fill="#00FFFF" stroke-width="0" stroke="#00FFFF" d = " M276 229 C276,226.166 283.047,223 285.5,223 L290.5,226 C293.263,227.382 297.13,224.315 300.5,226 L302.5,232 L304.5,231 L312,232 C312,228.726 304.564,225.032 302.5,224 300.308,222.904 297.344,220.422 294.5,219 286.348,214.924 274,220.864 274,229 274,229 276,229 276,229  Z"/>

<path  fill="#9953FF" stroke-width="0" stroke="#9953FF" d = " M253 346 C257.555,346 274,344.76 274,348 284.573,348 291.861,347.319 300.5,343 300.5,343 312.5,330 312.5,330 325.7,323.4 326,322.779 326,309 323.042,309 316.34,305.819 318,302.5 318.774,300.952 323.813,301.873 325,299.5 325,299.5 327.5,295 327.5,295 328.266,294.617 331,295.316 331,293.5 331,290.644 330.425,289.651 332,286.5 333.667,283.165 326.71,262 338,262 338,262 330.5,257 330.5,257 330.5,257 327,250 327,250 325.235,250 326.459,248.419 326,247.5 324.644,244.789 320,245.707 320,242 320,242 319,241 319,241 317.283,241 315,239.748 315,238 315,238 314,235 314,235 314,235 312,232 312,232 312,232 304.5,231 304.5,231 304.5,231 302.5,232 302.5,232 302.5,232 300.5,226 300.5,226 297.13,224.315 293.263,227.382 290.5,226 290.5,226 285.5,223 285.5,223 283.047,223 276,226.166 276,229 276,229 277,232 277,232 279.136,232 283.67,240.415 282.5,241 278.772,242.864 284.318,243.591 279.5,246 279.5,246 273.5,247 273.5,247 273.5,247 268.5,254 268.5,254 264.814,255.843 261.348,258.076 257.5,260 257.5,260 248.5,259 248.5,259 248.5,259 244.5,261 244.5,261 244.5,261 240.5,258 240.5,258 240.5,258 231.5,258 231.5,258 231.5,258 219.5,253 219.5,253 217.837,252.169 216.732,247.616 215.5,247 213.157,245.828 209.772,246.136 207.5,245 207.5,245 207,242.5 207,242.5 207,242.5 204,239.5 204,239.5 202.657,236.814 210.25,231 213,231 213,231 213,225 213,225 213,225 212,224 212,224 212,224 211,223 211,223 211,223 210,222 210,222 210,222 204,224 204,224 198.946,224 187.709,221.895 185.5,223 183.006,224.247 181.826,227 180,227 180,227 179,228 179,228 179,228 179,229 179,229 179,230.186 178,230.186 178,229 178,229 177,229 177,229 177,230.348 174,232.216 174,230 174,230 171,234 171,234 171,235.92 170,239.873 170,236 168.762,236 167,236.423 167,238 169.091,238 167,240.863 167,242 167,242.312 160.601,248 160,248 160,248 162,250.5 162,250.5 160.495,253.511 155.474,264.013 153.5,265 153.5,265 148,263 148,263 148,263 152,266.5 152,266.5 152.997,268.495 153.957,270.414 155,272.5 158.043,278.586 155.916,288.332 160,296.5 160,296.5 170,302.5 170,302.5 172.674,307.849 166.927,310 163,310 163,318.705 165.336,324.918 173.5,329 176.181,330.341 180.935,339.217 182.5,340 192.122,344.811 201.253,346 213,346 213,338.843 224.998,339.749 229.5,342 231.03,342.765 228.594,344.547 231.5,346 231.5,346 238,345 238,345 238,344.193 250.447,346 253,346  Z"/>

<path  fill="#00FFFF" stroke-width="0" stroke="#00FFFF" d = " M211 223 L212,224 C212,224 211,223 211,223  Z"/>

<path  fill="#FFFF00" stroke-width="0" stroke="#FFFF00" d = " M336 224 C336,225.795 328.334,224.167 330,227.5 333.448,234.396 357.243,233 360.5,233 362.372,233 358.497,229 357.5,229 356.411,229 354.279,228.89 352.5,228 350.275,226.888 347.654,226 345,226 L336,224  Z"/>

<path  fill="#00FFFF" stroke-width="0" stroke="#00FFFF" d = " M180 227 L179,228 C179,228 180,227 180,227  Z"/>

<path  fill="#FFFF00" stroke-width="0" stroke="#FFFF00" d = " M376 239 L377.5,237 L383,236.5 L383.5,232 C386.793,232 391.58,230.04 395.5,232 398.556,233.528 394.044,242 392.5,242 L389.5,241 L387.5,245 C385.428,246.036 382.409,244.683 381,247.5 380.341,248.818 381.419,250.04 379.5,251 L376.5,250 L375.5,253 C372.056,254.722 371.857,255.322 368.5,257 361.723,260.389 367.285,249.071 367,248.5 365.478,245.455 363.053,248 361,248 361,251.417 359.199,254.898 361,258.5 364.068,264.635 377.048,259.226 381.5,257 381.5,257 382.5,254 382.5,254 385.183,254 396.608,249.284 398,246.5 398,246.5 398,243.5 398,243.5 398,243.5 400,244.5 400,244.5 400,244.5 400,236.5 400,236.5 400,221.907 384.449,229.025 378.5,232 376.324,233.088 372,233.799 372,237 372,237 372,238 372,238 372,238 374,239 374,239 374,239 375,239 375,239 375,239 376,239 376,239  Z"/>

<path  fill="#00FFFF" stroke-width="0" stroke="#00FFFF" d = " M177 229 L174,230 C174,232.216 177,230.348 177,229  Z"/>

<path  fill="#00FFFF" stroke-width="0" stroke="#00FFFF" d = " M178 229 L179,229 C179,230.186 178,230.186 178,229  Z"/>

<path  fill="#00FFFF" stroke-width="0" stroke="#00FFFF" d = " M242 230 C242,236.056 248.947,230 242,230  Z"/>

<path  fill="#00FFFF" stroke-width="0" stroke="#00FFFF" d = " M248 230 C248,233.479 252.365,230 248,230  Z"/>

<path  fill="#EB57FF" stroke-width="0" stroke="#EB57FF" d = " M238 238 L239,238 C239,238 243,241.5 243,241.5 243,241.5 244.5,249 244.5,249 244.5,249 246,241.5 246,241.5 247.085,239.33 254,239.971 254,237 255.389,237 265,239.24 265,236 265,236 267,236 267,236 267,236 269,235 269,235 270.238,235 272,234.577 272,233 272,233 277,232 277,232 279.136,232 283.67,240.415 282.5,241 278.772,242.864 284.318,243.591 279.5,246 279.5,246 273.5,247 273.5,247 273.5,247 268.5,254 268.5,254 264.814,255.843 261.348,258.076 257.5,260 257.5,260 248.5,259 248.5,259 248.5,259 244.5,261 244.5,261 244.5,261 240.5,258 240.5,258 240.5,258 231.5,258 231.5,258 231.5,258 219.5,253 219.5,253 217.837,252.169 216.732,247.616 215.5,247 213.157,245.828 209.772,246.136 207.5,245 207.5,245 207,242.5 207,242.5 207,242.5 204,239.5 204,239.5 202.657,236.814 210.25,231 213,231 213,231 224.5,238 224.5,238 224.916,238.208 230.586,237 232,237 232,237 234,237 234,237 235.004,237 238,240.037 238,238  Z"/>

<path  fill="#00FFFF" stroke-width="0" stroke="#00FFFF" d = " M246 231 C246,234.746 248.091,231 246,231  Z"/>

<path  fill="#00FFFF" stroke-width="0" stroke="#00FFFF" d = " M376 239 L377.5,237 L383,236.5 L383.5,232 C386.793,232 391.58,230.04 395.5,232 398.556,233.528 394.044,242 392.5,242 L389.5,241 L387.5,245 C385.428,246.036 382.409,244.683 381,247.5 380.341,248.818 381.419,250.04 379.5,251 L376.5,250 L375.5,253 C372.056,254.722 371.857,255.322 368.5,257 361.723,260.389 367.285,249.071 367,248.5 365.478,245.455 363.053,248 361,248 361,245.438 368,242.315 368,237 368,237 369.5,239 369.5,239 370.13,239 370.188,237 372,237 372,237 372,238 372,238 372,238 374,239 374,239 374,239 375,239 375,239 375,240.186 376,240.186 376,239  Z"/>

<path  fill="#00FFFF" stroke-width="0" stroke="#00FFFF" d = " M126 235 L129,236 C129,236 129,233 129,233 127.952,233 126,232.527 126,234 126,234 126,235 126,235  Z"/>

<path  fill="#86CC4C" stroke-width="0" stroke="#86CC4C" d = " M343 260 L338,262 C338,262 330.5,257 330.5,257 330.5,257 327,250 327,250 327,245.326 333,248.085 333,245 333,245 334,245 334,245 334,245 335,244 335,244 336.041,244 340,243.014 340,242 340,242 343,239 343,239 343,239 344,239 344,239 344,239 353.5,235 353.5,235 358.939,235 363.529,234 368,234 368,234 368,237 368,237 368,242.315 361,245.438 361,248 358.209,248 346.667,260 343,260  Z"/>

<path  fill="#00FFFF" stroke-width="0" stroke="#00FFFF" d = " M171 234 L170,236 C170,239.873 171,235.92 171,234  Z"/>

<path  fill="#86CC4C" stroke-width="0" stroke="#86CC4C" d = " M144 262 C145.145,262 148,261.421 148,263 148,263 153.5,265 153.5,265 155.474,264.013 160.495,253.511 162,250.5 162,250.5 160,248 160,248 160,245.813 151,248.181 151,244 151,244 150,244 150,244 147.435,244 145,245.623 145,243 140.821,243 135.623,237 131,237 131,237 129,236 129,236 129,236 126,235 126,235 126,235 125,235 125,235 125,235 123,235 123,235 121.762,235 120,235.423 120,237 120,237 120,241 120,241 120,241 120,242 120,242 120,242 125,248 125,248 125,248 126,248 126,248 126.704,248 131.106,256.803 133.5,258 135.282,258.891 144,259.679 144,262  Z"/>

<path  fill="#00FFFF" stroke-width="0" stroke="#00FFFF" d = " M315 238 L318,238 C318,238 314,235 314,235 314,235 315,238 315,238  Z"/>

<path  fill="#46A515" stroke-width="0" stroke="#46A515" d = " M427 235 L426,239 L426,242 C426,251.93 436.682,235 427,235  Z"/>

<path  fill="#00FFFF" stroke-width="0" stroke="#00FFFF" d = " M118 240 L120,241 C120,241 120,237 120,237 120,237 118,240 118,240  Z"/>

<path  fill="#FFFF00" stroke-width="0" stroke="#FFFF00" d = " M343 239 L344,239 C344,236.788 343,236.788 343,239  Z"/>

<path  fill="#00FFFF" stroke-width="0" stroke="#00FFFF" d = " M162 242 L167,242 C167,240.863 169.091,238 167,238 167,238 162,242 162,242  Z"/>

<path  fill="#FFFF00" stroke-width="0" stroke="#FFFF00" d = " M125 248 L126,248 C126,251.506 125.751,253 123.5,253 121.351,253 119.641,258.57 116.5,257 108.791,253.146 109.295,240 118,240 118,240 120,241 120,241 120,241 120,242 120,242 120,245.354 125,249.771 125,248  Z"/>

<path  fill="#00FFFF" stroke-width="0" stroke="#00FFFF" d = " M120 242 L125,248 C125,249.771 120,245.354 120,242  Z"/>

<path  fill="#00FFFF" stroke-width="0" stroke="#00FFFF" d = " M150 244 L151,244 C151,241.788 150,241.788 150,244  Z"/>

<path  fill="#00FFFF" stroke-width="0" stroke="#00FFFF" d = " M340 242 C337.688,242 335,241.132 335,244 336.041,244 340,243.014 340,242  Z"/>

<path  fill="#46A515" stroke-width="0" stroke="#46A515" d = " M56 243 C56,248.438 58.7218,254.944 61,259.5 61.259,260.018 67.756,263.988 68,263.5 L64,259.5 C62.5149,256.53 60.5699,253.64 59,250.5 58.4656,249.431 56.8302,243 56,243  Z"/>

<path  fill="#00FFFF" stroke-width="0" stroke="#00FFFF" d = " M152 244 L153,245 C153,245 152,244 152,244  Z"/>

<path  fill="#FA8072" stroke-width="0" stroke="#FA8072" d = " M338 262 C326.71,262 333.667,283.165 332,286.5 330.425,289.651 331,290.644 331,293.5 331,295.316 328.266,294.617 327.5,295 L325,299.5 C323.813,301.873 318.774,300.952 318,302.5 316.34,305.819 323.042,309 326,309 327.94,309 329.108,307 329.5,307 342.339,307 332.703,303.398 339.5,300 342.014,298.743 344.781,296.938 346,294.5 347.581,291.338 344.603,284.295 345,283.5 345,283.5 348,281.5 348,281.5 349.402,278.696 349,273.548 349,271.5 349,267.315 343,261.444 343,260 343,260 338,262 338,262  Z"/>

<path  fill="#FA8072" stroke-width="0" stroke="#FA8072" d = " M148 263 L152,266.5 C152.997,268.495 153.957,270.414 155,272.5 158.043,278.586 155.916,288.332 160,296.5 L170,302.5 C172.674,307.849 166.927,310 163,310 147.415,310 144.167,291.834 139,281.5 136.254,276.008 136.315,262 144,262 145.145,262 148,261.421 148,263  Z"/>

<path  fill="#46A515" stroke-width="0" stroke="#46A515" d = " M403 262 C403,264.491 392.125,266.751 395,272.5 397.78,278.061 402.436,271.968 404.5,273 L408.5,277 C412.514,279.007 418,270.246 418,267.5 418,265.925 413.357,266.429 412.5,266 408.113,263.806 408.437,262 403,262  Z"/>

<path  fill="#46A515" stroke-width="0" stroke="#46A515" d = " M84 274 L83,278 C83,291.517 95.1697,274 84,274  Z"/>

<path  fill="#46A515" stroke-width="0" stroke="#46A515" d = " M396 276 C396,279.746 398.091,276 396,276  Z"/>

<path  fill="#46A515" stroke-width="0" stroke="#46A515" d = " M395 288 C395,293.122 387.409,292.682 386,295.5 385.886,295.728 382.855,306.21 383,306.5 L386,310.5 L382,312.5 L392.5,321 C396.115,322.808 395.418,312.663 396,311.5 397.023,309.454 400.182,301.864 399,299.5 L395,294.5 C395,293.666 401.326,288 395,288  Z"/>

<path  fill="#46A515" stroke-width="0" stroke="#46A515" d = " M99 303 C99,304.791 95.7297,305.959 97,308.5 101.344,317.189 110.309,303 99,303  Z"/>

<path  fill="#46A515" stroke-width="0" stroke="#46A515" d = " M365 310 C365,311.799 356.003,311.248 354.5,312 344.079,317.211 351.114,322.272 349,326.5 346.414,331.673 344.132,329.764 347,335.5 351.092,343.683 361.03,332.44 363,328.5 364.922,324.655 352,328.033 352,324.5 352,322.186 356.398,321.551 357.5,321 366.827,316.336 373.769,319.634 382.5,324 388.032,326.766 376.776,342.862 372.5,345 370.58,345.96 360,346.204 360,342.5 360,340.527 366.518,337.009 362.5,335 358.843,333.172 351.506,344.512 353,347.5 354.673,350.846 357.148,349.824 359.5,351 368.506,355.503 378.661,351.42 387.5,347 392.649,344.426 391.052,338.396 393,334.5 396.936,326.627 383.202,314.851 375.5,311 372.627,309.563 368.459,310 365,310  Z"/>

<path  fill-rule="evenodd" fill="#46A515" stroke-width="0" stroke="#46A515" d = " M105 324 C105,326.091 108.746,324 105,324  M104 313 C104,313.822 91.7169,324.934 95,331.5 L100.5,326 C103.177,324.661 105.465,327.018 107.5,326 109.643,324.928 115.847,321 119,321 123.636,321 130.49,322.995 134.5,325 136.734,326.117 140.017,337.467 143,331.5 L142,327 L142,321.5 C140.661,318.822 119.96,318.23 115.5,316 110.35,313.425 110.571,317.535 107.5,316 105.802,315.151 108,314.151 108,313.5 L104,313  Z"/>

<path  fill="#46A515" stroke-width="0" stroke="#46A515" d = " M117 330 C117,330.98 102.285,342.069 105,347.5 106.606,350.712 110.24,354.63 113.5,353 114.415,352.543 119,354.627 119,352.5 119,347.844 113.747,340.376 118.5,338 L123,341.5 C124.134,343.768 125.97,344.439 127,346.5 L127,350.5 C128.818,354.135 133.673,355.155 136,350.5 141.436,339.628 127.696,330 117,330  Z"/>

<path  fill="#FF3427" stroke-width="0" stroke="#FF3427" d = " M238 345 L231.5,346 C228.594,344.547 231.03,342.765 229.5,342 224.998,339.749 213,338.843 213,346 213,347.582 211.855,348.677 214.5,350 214.5,350 224.5,350 224.5,350 224.5,350 226.5,352 226.5,352 232.131,354.815 238,348.024 238,345  Z"/>

<path  fill="#FF3427" stroke-width="0" stroke="#FF3427" d = " M253 346 C257.555,346 274,344.76 274,348 274,352.541 271.258,348.121 267.5,350 265.384,351.058 267.356,352.572 266.5,353 262.921,354.789 252.927,353.354 251,349.5 250.407,348.313 253,347.764 253,346  Z"/>

</g>
</svg>
