<svg xmlns="http://www.w3.org/2000/svg" xmlns:xlink="http://www.w3.org/1999/xlink" height="512" width="512">
<g>
<rect width="512" height="512" fill="#000000"  stroke-width="0" /> 
<path  fill="#03C12D" stroke-width="0" stroke="#03C12D" d = " M320 136 L315,137 C315,137 312,134 312,134 312,134 311,133 311,133 307.137,133 294.693,122 289,122 289,119.55 288,120.302 288,118.5 288,118.5 285,117.5 285,117.5 285,117.5 287,116.5 287,116.5 287,114.128 282,115.686 282,114.5 282,111.719 281.579,109.658 280,106.5 280,106.5 276,103.5 276,103.5 274.885,101.271 277.521,96.5428 276,93.5 276,93.5 274,92.5 274,92.5 274,92.5 277,90.5 277,90.5 277,87.9292 275,87.7498 278.5,86 280.026,85.2372 285,86.0435 285,83.5 285,83.5 283,82.5 283,82.5 283,82.5 289.5,82 289.5,82 294.504,79.4978 301.039,80 306,80 306,80 313,80.5 313,80.5 313,80.5 311,81.5 311,81.5 311,81.5 320,82 320,82 323.452,82 334.266,85.031 336,88.5 336,88.5 337.5,91 337.5,91 337.5,91 341.5,90 341.5,90 345.073,91.7866 347.42,95.4598 350.5,97 353.301,98.4006 355.798,98.149 359.5,100 359.5,100 366.5,109 366.5,109 367.361,109 371.935,109.37 373,111.5 373,111.5 373.5,115 373.5,115 374.635,115 374.882,114.191 376.5,115 376.5,115 380.5,120 380.5,120 381.449,120.474 392.883,126.266 393,126.5 394.554,129.607 395.383,132.267 397,135.5 398.374,138.248 407,136.922 407,144 382.897,144 379.563,143.531 358.5,133 355.213,131.357 350.889,131.694 347.5,130 347.5,130 342.5,130 342.5,130 336.485,126.992 327,126.447 327,134 327,134 320,136 320,136  Z"/>

<path  fill="#03C12D" stroke-width="0" stroke="#03C12D" d = " M148 142 C148,138.705 158.46,136.42 157,133.5 154.232,127.965 145.589,132.455 142.5,134 L129.5,135 C120.563,139.469 111.484,142.508 102.5,147 97.6862,149.407 88.0365,152 82.5,152 81.0522,152 75,152.725 75,151 75,151 76.5,148 76.5,148 76.5,148 89.5,135 89.5,135 95.6271,131.936 89,135.862 89,131.5 89,131.5 95,130.5 95,130.5 101.593,123.907 108.318,120.091 116.5,116 116.5,116 134.5,100 134.5,100 151.521,91.4893 159.036,83 179,83 179,83 186.5,83 186.5,83 189.658,84.579 192.267,87.3833 195.5,89 203.194,92.847 208.968,93.4364 213,101.5 217.298,110.095 198,117.353 198,121 195.964,121 191.446,127 188,127 184.838,127 186,126.891 186,129 186,131.841 179.51,136 177,136 177,136 176,137 176,137 176,137 168,138 168,138 160.305,138 154.201,142 148,142  Z"/>

<path  fill="#DAAA3E" stroke-width="0" stroke="#DAAA3E" d = " M256 124 C253.01,124 257.943,122.613 258,122.5 L258.5,120 L260,120.5 C261.343,117.815 263.805,110.109 262,106.5 261.615,105.729 259.079,107 258.5,107 257.761,107 257.035,103.733 254.5,105 247.213,108.643 241.42,105 235.5,105 L229.5,105 L227.5,108 C226.849,108 225.849,105.802 225,107.5 222.493,112.514 224.881,115.262 227,119.5 230.252,126.005 236.85,132.325 245.5,128 L251.5,128 C253.529,126.986 253.771,125 256,125 256,125 256,124 256,124  Z"/>

<path  fill="#EE2F2C" stroke-width="0" stroke="#EE2F2C" d = " M208 203 L202.5,207 C197.241,209.63 187.513,209.994 181.5,213 173.297,217.101 165.241,208 159,208 159,208 156,204.5 156,204.5 156,204.5 156,191 156,191 156,181.213 154.143,173.213 159,163.5 162.352,156.796 166.588,150.325 170,143.5 170,143.5 176,137 176,137 176,137 177,136 177,136 179.51,136 186,131.841 186,129 186,129 188,127 188,127 191.446,127 195.964,121 198,121 209.548,121 213.564,118.532 224.5,124 224.5,124 232.5,132 232.5,132 233.818,132.659 235.04,131.581 236,133.5 236,133.5 241,141 241,141 241,141 242,145.5 242,145.5 239.869,149.761 235.112,143.276 234,145.5 232.874,147.751 238,146.368 238,148.5 238,148.5 234,150.5 234,150.5 233.425,151.65 238.059,154 239,154 239,155.754 235.694,156.403 234.5,157 233.612,157.444 230.542,162.416 230,163.5 226.562,170.376 221.519,176.461 218,183.5 218,183.5 215,192.5 215,192.5 214.146,194.209 208,196.102 208,203  Z"/>

<path  fill-rule="evenodd" fill="#EE2F2C" stroke-width="0" stroke="#EE2F2C" d = " M255 151 C255,154.746 257.091,151 255,151  M281 200 C283.859,200 284.197,202.849 286.5,204 L292.5,205 C298.841,208.17 305.238,210.869 311.5,214 319.141,217.821 323.526,207 329,207 329,207 336,196 336,196 336,196 334,169 334,169 334,169 333,168 333,168 333,168 332,167 332,167 331.267,167 329,160.978 329,160 329,157.699 323.688,145 321,145 318.784,145 315,138.769 315,137 315,137 312,134 312,134 312,134 311,133 311,133 307.137,133 294.693,122 289,122 289,122 276.5,121 276.5,121 269.923,124.289 266.43,131.535 259.5,135 255.832,136.834 252,137.751 252,143 254.603,143 253,152.21 253,153 253,153 256,157 256,157 256,154.724 259.276,158 257,158 257,159.371 264.964,168.429 266,170.5 266,170.5 271,184.5 271,184.5 271,184.5 274,185.5 274,185.5 276.231,189.963 281,194.474 281,200  Z"/>

<path  fill="#03C12D" stroke-width="0" stroke="#03C12D" d = " M256 124 C262.362,124 262.362,125 256,125 256,125 256,124 256,124  Z"/>

<path  fill="#89D355" stroke-width="0" stroke="#89D355" d = " M398 167 L407.5,176 C411.167,179.667 418.332,182.165 421,187.5 423.737,192.974 428.513,204 436,204 436,202.398 439.058,201.616 438,199.5 438,199.5 431,189.5 431,189.5 429.016,185.533 428.958,180.417 427,176.5 427,176.5 423,172.5 423,172.5 423,172.5 419,161.5 419,161.5 416.361,156.222 410,150.561 410,145 410,145 408,144 408,144 408,144 407,144 407,144 382.897,144 379.563,143.531 358.5,133 355.213,131.357 350.889,131.694 347.5,130 347.5,130 342.5,130 342.5,130 336.485,126.992 327,126.447 327,134 344.249,134 336.657,138.814 342,149.5 343.122,151.745 349,154.499 349,156 354.473,156 373.595,155.048 377.5,157 381.724,159.112 386.384,159.942 390.5,162 390.5,162 396,166 396,166 396,166 398,167 398,167  Z"/>

<path  fill="#89D355" stroke-width="0" stroke="#89D355" d = " M133 161 C126.722,161 119.678,161.911 113.5,165 L92.5,166 L82.5,172 C75.8656,175.317 63.6982,194.901 57.5,198 53.4611,200.019 52.5027,207 47,207 47,205.716 43.5305,204.439 45,201.5 50.5755,190.349 58.4354,180.629 64,169.5 66.443,164.614 66.6955,151 75,151 75,152.725 81.0522,152 82.5,152 88.0365,152 97.6862,149.407 102.5,147 111.484,142.508 120.563,139.469 129.5,135 129.5,135 142.5,134 142.5,134 145.589,132.455 154.232,127.965 157,133.5 158.46,136.42 148,138.705 148,142 143.927,142 137.774,148.952 136,152.5 135.178,154.144 137.038,160 134,160 134,160 133,161 133,161  Z"/>

<path  fill="#DDD951" stroke-width="0" stroke="#DDD951" d = " M350 217 L352,217 C355.329,217 360.577,207.655 359,204.5 357.352,201.205 354.609,198.718 353,195.5 349.354,188.207 349,165.037 349,156 349,154.499 343.122,151.745 342,149.5 336.657,138.814 344.249,134 327,134 327,134 320,136 320,136 320,136 319,142.5 319,142.5 319,142.5 321,145 321,145 323.688,145 329,157.699 329,160 331.753,160 332,165.011 332,167 332,167 333,168 333,168 333,164.823 334,166.921 334,169 334,169 336,196 336,196 338.261,196 336.297,202.094 337,203.5 338.983,207.466 344.388,217 349,217 349,217 350,217 350,217  Z"/>

<path  fill="#DDD951" stroke-width="0" stroke="#DDD951" d = " M130 217 L134,222 C138.77,222 145.112,213.277 147,209.5 147,209.5 147,183.5 147,183.5 151.231,175.038 152.76,164.981 157,156.5 160.52,149.461 168,144.855 168,138 160.305,138 154.201,142 148,142 143.927,142 137.774,148.952 136,152.5 135.178,154.144 137.038,160 134,160 134,160 134,162 134,162 134,177.042 131,190.589 131,207 131,207 130,209 130,209 130,209 130,215 130,215 130,215 130,217 130,217  Z"/>

<path  fill="#93FF27" stroke-width="0" stroke="#93FF27" d = " M253 153 C250.394,153 250.6,153.95 248.5,155 247.884,155.308 240.737,154 239,154 238.059,154 233.425,151.65 234,150.5 234,150.5 238,148.5 238,148.5 238,146.368 232.874,147.751 234,145.5 235.112,143.276 239.869,149.761 242,145.5 242,145.5 241,141 241,141 243.785,141 244.457,142.478 247.5,144 247.83,144.165 251.464,143 252,143 254.603,143 253,152.21 253,153  Z"/>

<path  fill="#03C12D" stroke-width="0" stroke="#03C12D" d = " M408 144 L410,145 C410,145 408,144 408,144  Z"/>

<path  fill="#93FF27" stroke-width="0" stroke="#93FF27" d = " M255 151 C255,154.746 257.091,151 255,151  Z"/>

<path  fill-rule="evenodd" fill="#07FF59" stroke-width="0" stroke="#07FF59" d = " M244 173 C244,178.096 234.974,185.552 233,189.5 231.571,192.359 235,205.075 235,208.5 L239,211.5 C239.795,213.09 242.46,219.52 245.5,218 247.75,216.875 248.125,214.25 249,212.5 250.703,209.094 254.685,206.13 256,203.5 256.914,201.673 255.427,199.645 256,198.5 260.227,190.045 254.464,184.964 251,181.5 249.137,179.637 246.499,173 244,173  M281 200 C281,201.94 283,203.108 283,203.5 L281,205.5 C279.913,207.674 282.434,211.631 281,214.5 L276,219.5 L276,223.5 C275.364,224.772 252.569,237 252.5,237 250.812,237 250.661,235.92 248.5,237 245.832,238.334 246.094,243.203 244.5,244 243.776,244.362 241.419,237.96 239.5,237 235.79,235.145 230.297,235.899 226.5,234 215.89,228.695 208,216.104 208,203 208,196.102 214.146,194.209 215,192.5 215,192.5 218,183.5 218,183.5 221.519,176.461 226.562,170.376 230,163.5 230.542,162.416 233.612,157.444 234.5,157 235.694,156.403 239,155.754 239,154 240.737,154 247.884,155.308 248.5,155 250.6,153.95 250.394,153 253,153 253,153 256,157 256,157 256,157 257,158 257,158 257,159.371 264.964,168.429 266,170.5 266,170.5 271,184.5 271,184.5 271,184.5 274,185.5 274,185.5 276.231,189.963 281,194.474 281,200  Z"/>

<path  fill="#93FF27" stroke-width="0" stroke="#93FF27" d = " M256 157 L257,158 C259.276,158 256,154.724 256,157  Z"/>

<path  fill="#FFBB0D" stroke-width="0" stroke="#FFBB0D" d = " M433 248 C427.246,248 419.498,243.499 414.5,241 410.452,238.976 392.044,257.413 391,259.5 390.239,261.022 386,265.284 386,266 382.125,266 372.413,256.325 371,253.5 371,253.5 372,246.5 372,246.5 370.917,244.334 364.67,244.841 363,241.5 360.808,237.117 361.109,231.719 359,227.5 355.522,220.544 349,226.481 349,217 349,217 350,217 350,217 350,218.399 352,218.399 352,217 355.329,217 360.577,207.655 359,204.5 357.352,201.205 354.609,198.718 353,195.5 349.354,188.207 349,165.037 349,156 354.473,156 373.595,155.048 377.5,157 381.724,159.112 386.384,159.942 390.5,162 390.5,162 396,166 396,166 396,166 398,167 398,167 398,167 407.5,176 407.5,176 411.167,179.667 418.332,182.165 421,187.5 423.737,192.974 428.513,204 436,204 436,204 438,206.5 438,206.5 435.646,211.207 431.45,213.601 430,216.5 430,216.5 430,222.5 430,222.5 430,222.5 437,231.5 437,231.5 438.84,235.18 437.433,248 433,248  Z"/>

<path  fill="#FFBB0D" stroke-width="0" stroke="#FFBB0D" d = " M51 248 C56.2449,248 71.5866,236.543 76.5,239 82.3105,241.905 84.3256,251.913 90.5,255 L102,265 C119.262,265 110.296,258.909 114,251.5 115.067,249.367 122.974,245.551 125,241.5 125,241.5 125,233.5 125,233.5 127.153,229.195 134,228.144 134,222 134,222 130,217 130,217 128.601,217 128.601,215 130,215 130,215 130,209 130,209 130,209 131,207 131,207 131,190.589 134,177.042 134,162 134,162 133,161 133,161 126.722,161 119.678,161.911 113.5,165 113.5,165 92.5,166 92.5,166 92.5,166 82.5,172 82.5,172 75.8656,175.317 63.6982,194.901 57.5,198 53.4611,200.019 52.5027,207 47,207 41.6294,207 45.181,213.862 46,215.5 47.313,218.126 54.2427,219.015 53,221.5 51.3524,224.795 41.6684,248 51,248  Z"/>

<path  fill="#022CFF" stroke-width="0" stroke="#022CFF" d = " M244 173 C244,178.096 234.974,185.552 233,189.5 231.571,192.359 235,205.075 235,208.5 L239,211.5 C239.795,213.09 242.46,219.52 245.5,218 247.75,216.875 248.125,214.25 249,212.5 250.703,209.094 254.685,206.13 256,203.5 256.914,201.673 255.427,199.645 256,198.5 260.227,190.045 254.464,184.964 251,181.5 249.137,179.637 246.499,173 244,173  Z"/>

<path  fill="#9953FF" stroke-width="0" stroke="#9953FF" d = " M228 319 C232.749,319 235.739,313 239.5,313 L241.5,316 L247.5,315 C250.157,316.328 253.539,319 258,319 258,317.76 256,317.424 256,315 253.398,315 266,304.196 266,311 267.833,311 269.86,311.82 271.5,311 275.63,308.935 278.785,304.069 282,310.5 282,310.5 284,313 284,313 290.786,313 299,304.875 299,319 300.658,319 302,317.539 302,316 302,309.781 320.097,288.306 323,282.5 324.502,279.496 331,275.179 331,271 331,271 328,269.5 328,269.5 328,269.5 331,266.5 331,266.5 331,266.5 331,256.5 331,256.5 331,243.124 335,232.5 329,220.5 328.101,218.702 332.056,207 329,207 323.526,207 319.141,217.821 311.5,214 305.238,210.869 298.841,208.17 292.5,205 292.5,205 286.5,204 286.5,204 284.197,202.849 283.859,200 281,200 281,201.94 283,203.108 283,203.5 283,203.5 281,205.5 281,205.5 279.913,207.674 282.434,211.631 281,214.5 281,214.5 276,219.5 276,219.5 276,219.5 276,223.5 276,223.5 275.364,224.772 252.569,237 252.5,237 250.812,237 250.661,235.92 248.5,237 245.832,238.334 246.094,243.203 244.5,244 243.776,244.362 241.419,237.96 239.5,237 235.79,235.145 230.297,235.899 226.5,234 215.89,228.695 208,216.104 208,203 208,203 202.5,207 202.5,207 197.241,209.63 187.513,209.994 181.5,213 173.297,217.101 165.241,208 159,208 159,211.605 162.549,217.402 161,220.5 156.843,228.813 154.751,242.003 159,250.5 160.204,252.908 155.279,256.059 157,259.5 158.739,262.979 160,268.965 160,273 160,276.014 162.277,278.777 164.5,281 164.5,281 168,283.5 168,283.5 168,290.701 181,300.8 181,309 181,309 184,310 184,310 187.455,310 190.293,305.103 192.5,304 194.917,302.792 199,308.785 199,311 200.638,311 202.117,303.308 205.5,305 211.527,308.013 215.383,312 222,312 222,312 217,309.5 217,309.5 217,309.5 220.5,309 220.5,309 224.313,307.094 231.199,313 228,313 228,314.384 231.189,314.123 230,316.5 230,316.5 228,319 228,319  Z"/>

<path  fill="#41FF27" stroke-width="0" stroke="#41FF27" d = " M51 248 C56.2449,248 71.5866,236.543 76.5,239 82.3105,241.905 84.3256,251.913 90.5,255 L102,265 C102,268.07 97.1626,274.337 95,276.5 95,276.5 93.5,280 93.5,280 91.6921,280 84.6678,281.084 82.5,280 82.5,280 74.5,272 74.5,272 69.9237,269.712 66.2044,275.352 61.5,273 56.227,270.363 52.5743,265.649 50,260.5 50,260.5 50,256.5 50,256.5 49.2264,254.953 46.8575,253.785 48,251.5 48,251.5 51,248 51,248  Z"/>

<path  fill="#41FF27" stroke-width="0" stroke="#41FF27" d = " M433 248 C427.246,248 419.498,243.499 414.5,241 410.452,238.976 392.044,257.413 391,259.5 390.239,261.022 386,265.284 386,266 386,271.471 395.662,278.419 400.5,276 405.274,273.613 400.235,270.133 406.5,267 406.5,267 411.5,267 411.5,267 422.729,261.386 433,269.299 433,248  Z"/>

<path  fill="#86CC4C" stroke-width="0" stroke="#86CC4C" d = " M181 309 C181,312.14 179.1,314 176,314 170.799,314 169.797,303 166,303 166,303 166,302 166,302 166,302 165,301 165,301 165,301 163,297 163,297 163,297 162,296 162,296 162,296 160,291 160,291 160,291 158,289 158,289 158,289 155,285 155,285 155,285 154,284 154,284 154,284 154,283 154,283 154,283 152,281 152,281 152,281 151,279 151,279 151,271.939 147.085,274.707 154.5,271 154.5,271 156.5,270 156.5,270 158.095,270.797 157.185,273 160,273 160,276.014 162.277,278.777 164.5,281 164.5,281 168,283.5 168,283.5 168,290.701 181,300.8 181,309  Z"/>

<path  fill="#86CC4C" stroke-width="0" stroke="#86CC4C" d = " M314 314 C309.784,314 309.611,315.445 306.5,317 L302,316 C302,309.781 320.097,288.306 323,282.5 324.502,279.496 331,275.179 331,271 335.997,271 336.211,276 340,276 340,276 340,277 340,277 340,277 339,278 339,278 339,278 338,279 338,279 338,280.525 333,283.76 333,286 333,286 332,287 332,287 332,288.218 320,303.336 320,309 320,309 318,312 318,312 318,312 314,314 314,314  Z"/>

<path  fill="#FA8072" stroke-width="0" stroke="#FA8072" d = " M320 309 C320,311.003 320.293,312 318,312 318,316.127 310.188,316.876 313,322.5 314.956,326.411 322.06,319.78 322.5,320 324.667,321.084 327.208,325.146 331.5,323 331.5,323 332,320.5 332,320.5 333.634,317.233 336.395,314.71 338,311.5 342.1,303.3 365.303,283.402 346.5,274 343.644,272.572 341.947,276 340,276 340,276 340,277 340,277 340,277 339,278 339,278 339,278 338,279 338,279 338,280.525 333,283.76 333,286 333,286 332,287 332,287 332,288.218 320,303.336 320,309  Z"/>

<path  fill="#FA8072" stroke-width="0" stroke="#FA8072" d = " M166 302 L166,303 C166,307.415 169.621,307.741 171,310.5 172.318,313.135 168,315.542 168,317.5 168,317.5 170.5,319 170.5,319 170.5,319 171.5,317 171.5,317 171.5,317 175,320.5 175,320.5 175.747,321.993 171.923,326 171.5,326 170.631,326 168.197,320.348 167.5,320 165.249,318.874 166.632,324 164.5,324 160.574,324 155.848,321.674 152.5,320 148.594,318.047 138,297.933 138,292.5 138,284.378 133.558,291.384 139,280.5 139.659,279.182 138.581,277.96 140.5,277 145.794,274.353 146.507,279 151,279 151,279 152,281 152,281 152,281 154,283 154,283 154,283 154,284 154,284 154,284 155,285 155,285 155,285 158,289 158,289 158,289 160,291 160,291 160,291 162,296 162,296 162,296 163,297 163,297 163,297 165,301 165,301 165,301 166,302 166,302  Z"/>

<path  fill="#00D70B" stroke-width="0" stroke="#00D70B" d = " M191 325 L192,327 C192,327 199.5,333 199.5,333 204.402,335.451 210.397,337.949 214.5,340 214.5,340 219.5,339 219.5,339 219.5,339 222.5,341 222.5,341 222.5,341 225.5,339 225.5,339 225.5,339 229.5,340 229.5,340 235.01,337.245 236.625,333.938 242.5,331 245.436,329.532 245.789,334.144 247.5,335 251.577,337.039 256.325,337.912 260.5,340 270.12,344.81 299,331.542 299,319 299,304.875 290.786,313 284,313 284,324.058 273.309,320.095 265.5,324 264.556,324.472 258,320.464 258,319 253.539,319 250.157,316.328 247.5,315 247.5,315 241.5,316 241.5,316 241.5,316 239.5,313 239.5,313 235.739,313 232.749,319 228,319 228,322.92 222.121,323 219,323 217.952,323 216,323.473 216,322 212.99,322 211.002,319.251 208.5,318 203.968,315.734 199,318.721 199,311 199,308.785 194.917,302.792 192.5,304 190.293,305.103 187.455,310 184,310 184,312.483 186,314.026 186,316 187.473,316 187,317.952 187,319 187,319 189,323 189,323 189,323 190,324 190,324 190,324 191,325 191,325  Z"/>

<path  fill="#FF3427" stroke-width="0" stroke="#FF3427" d = " M216 322 C217.048,322 219,321.527 219,323 222.121,323 228,322.92 228,319 228,319 230,316.5 230,316.5 231.189,314.123 228,314.384 228,313 228,313 222,312 222,312 215.383,312 211.527,308.013 205.5,305 202.117,303.308 200.638,311 199,311 199,318.721 203.968,315.734 208.5,318 211.002,319.251 212.99,322 216,322  Z"/>

<path  fill="#FF3427" stroke-width="0" stroke="#FF3427" d = " M256 315 L258,315 C258,315 259,314 259,314 259,314 260,314 260,314 260,314 261,313 261,313 261,313 262,313 262,313 262,313 263,312 263,312 263,312 266,311 266,311 267.833,311 269.86,311.82 271.5,311 275.63,308.935 278.785,304.069 282,310.5 282,310.5 284,313 284,313 284,324.058 273.309,320.095 265.5,324 264.556,324.472 258,320.464 258,319 258,317.76 256,317.424 256,315  Z"/>

<path  fill="#00D70B" stroke-width="0" stroke="#00D70B" d = " M222 312 L228,313 C231.199,313 224.313,307.094 220.5,309 220.5,309 217,309.5 217,309.5 217,309.5 222,312 222,312  Z"/>

<path  fill="#80AAFF" stroke-width="0" stroke="#80AAFF" d = " M191 325 C188.974,325 191.104,327 192,327 192,327 199.5,333 199.5,333 204.402,335.451 210.397,337.949 214.5,340 214.5,340 219.5,339 219.5,339 219.5,339 222.5,341 222.5,341 222.5,341 225.5,339 225.5,339 225.5,339 229.5,340 229.5,340 235.01,337.245 236.625,333.938 242.5,331 245.436,329.532 245.789,334.144 247.5,335 251.577,337.039 256.325,337.912 260.5,340 270.12,344.81 299,331.542 299,319 300.658,319 302,317.539 302,316 302,316 306.5,317 306.5,317 309.611,315.445 309.784,314 314,314 314,317.741 295.197,332.105 294,334.5 286.596,349.308 257.91,347.205 245.5,341 240.509,338.504 231.726,346 226.5,346 214.301,346 204.623,340.061 194.5,335 194.5,335 189.5,330 189.5,330 189.5,330 186.5,330 186.5,330 182.62,328.06 176,317.808 176,314 179.1,314 181,312.14 181,309 181,309 184,310 184,310 184,312.483 186,314.026 186,316 186,317.048 185.527,319 187,319 187,319 189,323 189,323 189,323 190,324 190,324 190,324 191,325 191,325  Z"/>

<path  fill="#00D70B" stroke-width="0" stroke="#00D70B" d = " M256 315 L258,315 C258,315 259,314 259,314 259,314 260,314 260,314 260,314 261,313 261,313 261,313 262,313 262,313 262,313 263,312 263,312 263,312 266,311 266,311 266,304.196 253.398,315 256,315  Z"/>

<path  fill="#9953FF" stroke-width="0" stroke="#9953FF" d = " M263 312 L262,313 C262,313 263,312 263,312  Z"/>

<path  fill="#9953FF" stroke-width="0" stroke="#9953FF" d = " M261 313 L260,314 C260,314 261,313 261,313  Z"/>

<path  fill="#9953FF" stroke-width="0" stroke="#9953FF" d = " M259 314 L258,315 C258,315 259,314 259,314  Z"/>

<path  fill="#9953FF" stroke-width="0" stroke="#9953FF" d = " M186 316 C187.473,316 187,317.952 187,319 185.527,319 186,317.048 186,316  Z"/>

<path  fill="#9953FF" stroke-width="0" stroke="#9953FF" d = " M216 322 C217.048,322 219,321.527 219,323 217.952,323 216,323.473 216,322  Z"/>

<path  fill="#9953FF" stroke-width="0" stroke="#9953FF" d = " M189 323 L190,324 C190,324 189,323 189,323  Z"/>

<path  fill="#9953FF" stroke-width="0" stroke="#9953FF" d = " M191 325 C188.974,325 191.104,327 192,327 192,327 191,325 191,325  Z"/>

</g>
</svg>
