<svg xmlns="http://www.w3.org/2000/svg" xmlns:xlink="http://www.w3.org/1999/xlink" height="512" width="512">
<g>
<rect width="512" height="512" fill="#000000"  stroke-width="0" /> 
<path  fill-rule="evenodd" fill="#03C12D" stroke-width="0" stroke="#03C12D" d = " M422 271 C422,273.091 425.746,271 422,271  M137 344 C133.539,344 128.568,348.034 124.5,346 L92.5,331 C85.5714,327.536 72.7954,301.091 69,293.5 68.1457,291.791 70.2136,281.927 69,279.5 66.7907,275.081 65,273.664 65,269.5 L61,265.5 C56.701,256.902 53.6481,221.204 58,212.5 59.4025,209.695 55.1087,199.283 57,195.5 L61,192.5 C61,189.615 60.4199,189.66 62,186.5 64.2745,181.951 62.6951,175.11 65,170.5 67.8892,164.722 69.118,158.264 72,152.5 L72,148.5 L79,141.5 C80.6026,138.295 82.3566,134.787 84,131.5 L90,125.5 L96.5,118 C102.069,115.215 105.802,116.849 107.5,116 110.205,114.648 113.053,109.724 116.5,108 129.018,101.741 143.941,100.279 156.5,94 166.116,89.1922 179.885,92.8077 189.5,88 191.674,86.9128 220.732,88.1158 222.5,89 228.162,91.8309 232.797,96.1485 238.5,99 243.169,101.335 253.836,87.3322 256.5,86 260.65,83.9248 267.237,87.1313 271.5,85 L286,85 C295.297,85 303.825,86.1625 311.5,90 L316.5,89 C321.007,91.2536 326.018,91.759 330.5,94 334.787,96.1435 344.884,94.692 349.5,97 L351.5,100 L359.5,101 C374.97,108.735 404.593,122.686 413,139.5 L418,144.5 C420.263,149.026 421.482,162.464 423,165.5 424.398,168.296 426.549,170.597 428,173.5 L428,181.5 C428.795,183.09 436,213.283 436,214.5 L434,217.5 C432.972,219.556 436,221 436,222.5 436,226.1 435.663,235.175 434,238.5 L435,244.5 L431,244.5 L435,246.5 C435.626,247.751 431.728,255.044 431,256.5 L431,263.5 C427.775,269.95 424.246,276.008 421,282.5 L422,286.5 C419.521,291.457 418.412,296.677 416,301.5 L396,325.5 C394.682,328.136 393.82,332.34 390.5,334 383.237,337.632 375.8,341.35 368.5,345 367.019,345.741 344.991,347.246 344.5,347 L339,344 C339,340.822 345.801,335.35 348.5,334 355.348,330.576 360.415,310.669 364,303.5 364.422,302.655 365.109,292.717 365,292.5 365,292.5 361,292 361,292 361,292 363,290 363,290 363,290 366,288 366,288 367.334,288 372,285.028 372,284 372,284 373,283 373,283 373,283 381,275.5 381,275.5 381.249,275.001 380,268.564 380,267 382.874,267 386,255.683 386,253 388.834,253 387.382,248 388.5,248 388.5,248 389.5,251 389.5,251 389.5,251 390,235.5 390,235.5 391.909,231.682 388.484,224.468 387,221.5 387,221.5 385,208.5 385,208.5 381.843,202.186 375,192.657 375,186 375,186 374,184 374,184 374,182.501 369.711,179 368,179 368,179 367,178 367,178 367,174.2 358.923,171.345 358,169.5 357.524,168.547 357.628,165 355.5,165 352.062,165 356.126,162.813 352.5,161 352.5,161 346.5,161 346.5,161 341.767,158.634 337.243,156.372 332.5,154 328.647,152.074 323.396,151.948 319.5,150 319.5,150 317.5,148 317.5,148 314.761,148 302.652,147.576 299.5,146 296.46,144.48 275.633,136 273.5,136 273.5,136 270,138 270,138 270,136.08 258.621,129.06 256.5,128 256.5,128 254.5,129 254.5,129 254.5,129 252.5,126 252.5,126 249.926,124.713 247.019,124.26 244.5,123 244.5,123 241.5,120 241.5,120 237.129,120 222.906,132.297 217.5,135 217.5,135 212,140 212,140 212,140 197.5,141 197.5,141 197.5,141 195.5,144 195.5,144 192.351,145.574 187.341,145.08 181.5,148 178.402,149.549 166.603,148.949 160.5,152 132.476,166.012 122.172,173.157 108,201.5 102.268,212.964 100,232.592 100,248 100,251.302 104.355,264 107,264 107,273.29 116.694,285.597 123.5,289 127.246,290.873 128.433,296 133,296 133,297.172 137.441,321.381 138,322.5 140.679,327.859 137,338.745 137,344  Z"/>

<path  fill="#1D68EB" stroke-width="0" stroke="#1D68EB" d = " M238 162 C238,149.911 250,156.256 250,162 259.078,162 263.87,157.761 268,149.5 268,149.5 268,142.5 268,142.5 268,142.5 270,138 270,138 270,136.08 258.621,129.06 256.5,128 256.5,128 254.5,129 254.5,129 254.5,129 252.5,126 252.5,126 249.926,124.713 247.019,124.26 244.5,123 244.5,123 241.5,120 241.5,120 237.129,120 222.906,132.297 217.5,135 217.5,135 212,140 212,140 212,140 214,142.5 214,142.5 214,142.5 216,151.5 216,151.5 219.411,158.322 229.857,162 238,162  Z"/>

<path  fill="#FF6E00" stroke-width="0" stroke="#FF6E00" d = " M106 259 C106,261.518 107,261.334 107,264 104.355,264 100,251.302 100,248 100,232.592 102.268,212.964 108,201.5 122.172,173.157 132.476,166.012 160.5,152 166.603,148.949 178.402,149.549 181.5,148 187.341,145.08 192.351,145.574 195.5,144 195.5,144 197.5,141 197.5,141 197.5,141 212,140 212,140 212,140 214,142.5 214,142.5 214,142.5 216,151.5 216,151.5 219.411,158.322 229.857,162 238,162 241.921,162 245.328,162 250,162 259.078,162 263.87,157.761 268,149.5 268,149.5 268,142.5 268,142.5 268,142.5 270,138 270,138 270,138 273.5,136 273.5,136 275.633,136 296.46,144.48 299.5,146 302.652,147.576 314.761,148 317.5,148 317.5,148 319.5,150 319.5,150 323.396,151.948 328.647,152.074 332.5,154 337.243,156.372 341.767,158.634 346.5,161 346.5,161 352.5,161 352.5,161 356.126,162.813 352.062,165 355.5,165 357.628,165 357.524,168.547 358,169.5 358.923,171.345 367,174.2 367,178 367,178 368,179 368,179 369.711,179 374,182.501 374,184 374,184 375,186 375,186 375,192.657 381.843,202.186 385,208.5 385,208.5 387,221.5 387,221.5 388.484,224.468 391.909,231.682 390,235.5 390,235.5 389.5,251 389.5,251 389.5,251 388.5,248 388.5,248 387.382,248 388.834,253 386,253 386,244.983 385,239.029 385,232 385,232 384,230 384,230 384,226.778 383,223.723 383,221 383,221 382,220 382,220 382,217.971 380.809,218.119 380,216.5 378.014,212.529 378.98,206.46 377,202.5 377,202.5 373,198.5 373,198.5 368.638,189.776 362.185,181.842 352.5,177 350.396,175.948 348.74,172.12 348.5,172 341.942,168.721 333.979,168.239 327.5,165 326.083,164.292 316,166.039 316,166.5 316,166.5 318,167.5 318,167.5 318,167.5 315,169 315,169 315,167.031 309.416,166 308,166 308,166 307,166 307,166 307,164.423 305.238,164 304,164 298.146,164 290.944,159.778 284.5,163 280.937,164.781 276.9,165.3 273.5,167 271.264,168.118 269.047,172 269,172 261.965,172 256.176,172.662 249.5,176 242.551,179.475 227.019,173 220,173 220,173 219,172 219,172 216.523,172 216.478,169.989 214.5,169 207.607,165.554 198.393,166.446 191.5,163 188.343,161.421 181,165.344 181,168.5 181,169.13 183,169.188 183,171 170.643,171 160.058,163.721 147.5,170 130.073,178.713 119.002,191.495 111,207.5 108.529,212.442 110.145,218.21 108,222.5 108,222.5 106,222.5 106,222.5 106,222.5 106,239.5 106,239.5 106,239.5 103,242.5 103,242.5 103,245.656 105,251 105,254 105,255.235 104.357,259 106,259  Z"/>

<path  fill="#022CFF" stroke-width="0" stroke="#022CFF" d = " M215 233 L219.5,234 L221.5,232 C223.444,232.972 222.97,234 225.5,234 L226.5,232 L228,235 C233.672,235 230.784,232.858 234.5,231 236.661,229.919 239.394,232 241,232 246.177,232 250.176,228 255,228 255,221.773 259.737,230 263,230 263.391,230 273,219.964 273,230 273,230 274,230 274,230 274,230 275,230 275,230 275,230 276,229 276,229 276,229 279,226 279,226 279,226 280,225 280,225 280,225 281,224 281,224 281,224 282,223 282,223 282,223 283,222 283,222 283,222 284,221 284,221 284,221 286,220 286,220 286,220 287,219 287,219 287,219 288,218 288,218 288,218 289,217 289,217 289,217 290,217 290,217 290,217 291,216 291,216 291,216 297,209 297,209 297,209 298,208 298,208 298,205.774 299.774,204 302,204 302,200.913 301,201.735 301,199 299.527,199 300,197.048 300,196 300,189.332 294.553,177.973 302.5,174 304.157,173.171 301.719,169 305,169 305,169 308,166 308,166 308,166 307,166 307,166 305.762,166 304,165.577 304,164 298.146,164 290.944,159.778 284.5,163 280.937,164.781 276.9,165.3 273.5,167 271.264,168.118 269.047,172 269,172 269,172 269,173 269,173 269,173 270,173 270,173 270,173 271,174 271,174 274.707,174 280.028,176.764 282.5,178 291.527,182.513 291.064,183.627 295,191.5 295,191.5 295,198.5 295,198.5 295,198.5 297,200.5 297,200.5 297,200.5 295,201.5 295,201.5 295,201.5 297,202.5 297,202.5 297,202.5 295,203.5 295,203.5 295,203.5 297,204.5 297,204.5 298.783,208.066 281.402,217 278,217 278,217 277,217 277,217 277,219.853 270.82,216 269,216 269,216 263,217 263,217 263,220.98 259.815,219.342 258.5,220 258.5,220 257.5,222 257.5,222 252.77,224.365 254.14,212 247.5,212 243.73,212 237.876,211.748 236,215.5 236,215.5 235.5,222 235.5,222 235.084,222.208 229.414,221 228,221 228,221 217,220 217,220 213.942,220 196.076,216.652 194,212.5 190.122,204.745 195.118,185.691 202.5,182 202.5,182 205.5,182 205.5,182 205.5,182 210,179 210,179 210,179 212,178 212,178 212,178 213,177 213,177 213,177 214,176 214,176 214,176 215,176 215,176 215,176 217,175 217,175 217,175 219,173 219,173 219,173 219,172 219,172 216.523,172 216.478,169.989 214.5,169 207.607,165.554 198.393,166.446 191.5,163 188.343,161.421 181,165.344 181,168.5 181,169.13 183,169.188 183,171 187.629,171 192,179.82 192,183.5 192,185.415 189,186.698 189,189 189,189 190,191 190,191 190,194.148 190.968,201 187,201 187,201 187,202 187,202 187,207.281 189,203.159 189,211 189,211 191,213 191,213 191,213 194,216 194,216 196.109,216 196,218.535 196,220 196,220 200.5,225 200.5,225 200.5,225 206.5,227 206.5,227 206.5,227 207,229 207,229 207,229 208,230 208,230 209.238,230 211,230.423 211,232 211,232 215,233 215,233  Z"/>

<path  fill="#814FFF" stroke-width="0" stroke="#814FFF" d = " M361 292 C358.474,292 355.423,294 352,294 352,294 347,292 347,292 347,286.784 339.404,289.452 336.5,288 334.932,287.216 337.331,285.831 336,284.5 332.979,281.479 329,282.901 329,277 329,277 330,276 330,276 330,277.186 331,277.186 331,276 331,274.042 330.219,269.062 331,267.5 334.373,260.754 343.674,244.848 339,235.5 339,235.5 337.5,232 337.5,232 337.5,232 335,231.5 335,231.5 335,231.5 336,228.5 336,228.5 334.895,226.289 327.567,219 326.5,219 325.786,219 319,214.692 319,214 319,214 319,213 319,213 319,204.724 314.786,214.072 313,210.5 312.121,208.743 317.956,197.588 319,195.5 319.409,194.683 317.618,191.441 316.5,192 316.5,192 315.5,195 315.5,195 313.084,195 311.836,190.332 308.5,192 308.279,192.11 308.664,199 301,199 301,197.952 301.473,196 300,196 300,189.332 294.553,177.973 302.5,174 304.157,173.171 301.719,169 305,169 305,169 315,169 315,169 315,169 318,167.5 318,167.5 318,167.5 316,166.5 316,166.5 316,166.039 326.083,164.292 327.5,165 333.979,168.239 341.942,168.721 348.5,172 348.74,172.12 350.396,175.948 352.5,177 362.185,181.842 368.638,189.776 373,198.5 373,198.5 377,202.5 377,202.5 378.98,206.46 378.014,212.529 380,216.5 380.809,218.119 382,217.971 382,220 382,220 383,221 383,221 383,223.723 384,226.778 384,230 384,230 385,232 385,232 385,239.029 386,244.983 386,253 386,255.683 382.874,267 380,267 380,267 378,268.5 378,268.5 378,272.497 373,278.541 373,283 373,283 372,284 372,284 372,285.028 367.334,288 366,288 363.997,288 363,287.707 363,290 363,290 361,292 361,292  Z"/>

<path  fill="#814FFF" stroke-width="0" stroke="#814FFF" d = " M157 272 C157,275.972 149.199,288.65 144.5,291 142.698,291.901 133,293.807 133,296 128.433,296 127.246,290.873 123.5,289 116.694,285.597 107,273.29 107,264 107,261.334 106,261.518 106,259 106,257.765 106.643,254 105,254 105,251 103,245.656 103,242.5 103,242.5 106,239.5 106,239.5 106,239.5 106,222.5 106,222.5 106,222.5 108,222.5 108,222.5 110.145,218.21 108.529,212.442 111,207.5 119.002,191.495 130.073,178.713 147.5,170 160.058,163.721 170.643,171 183,171 187.629,171 192,179.82 192,183.5 192,185.415 189,186.698 189,189 189,189 190,191 190,191 190,194.148 190.968,201 187,201 187,201 186,201 186,201 183.839,201 181.707,197.604 180.5,197 176.964,195.232 178.904,201 176.5,201 174.72,201 175,194.605 175,194 175,192.527 173.048,193 172,193 168.611,193 167.187,199.874 168,201.5 169.055,203.61 172.406,203.312 173,204.5 173.417,205.335 174,211.401 174,212 172.253,212 172,212.253 172,214 172,215.377 162.099,220.303 161,222.5 161,222.5 156,227.5 156,227.5 156,227.5 157,229.5 157,229.5 157,229.5 155,230.5 155,230.5 153.017,234.465 151,241.382 151,246 151,246 151,247 151,247 151,255.463 158,264.851 158,270 158,270 158,271 158,271 158,271 157,272 157,272  Z"/>

<path  fill="#FF0800" stroke-width="0" stroke="#FF0800" d = " M226 199 L228,200 C228.369,200 238.44,197.53 239.5,197 239.5,197 241.5,194 241.5,194 243.051,194 247.305,197 247.5,197 248.239,197 248.965,193.733 251.5,195 252.57,195.535 255.598,198 256,198 256,198 259,197 259,197 259,196.389 260.2,188.899 260,188.5 260,188.5 256,180.5 256,180.5 256,177.926 261.274,177.613 262.5,177 262.5,177 265.5,173 265.5,173 265.5,173 269,174 269,174 269,174 269,173 269,173 269,173 269,172 269,172 261.965,172 256.176,172.662 249.5,176 242.551,179.475 227.019,173 220,173 220,173 219,173 219,173 219,173 217,175 217,175 218.009,175 222.343,177.421 223.5,178 223.5,178 229.5,177 229.5,177 230.671,177.586 232.18,181 230,181 230,181 229,182 229,182 229,186.806 226,193.718 226,199  Z"/>

<path  fill-rule="evenodd" fill="#00FF1D" stroke-width="0" stroke="#00FF1D" d = " M269 212 C269,218.807 278.138,212 269,212  M277 217 C275.378,217 278,213.251 278,217 281.402,217 298.783,208.066 297,204.5 297,204.5 295,203.5 295,203.5 295,203.5 297,202.5 297,202.5 297,202.5 295,201.5 295,201.5 295,201.5 297,200.5 297,200.5 297,200.5 295,198.5 295,198.5 295,198.5 295,191.5 295,191.5 291.064,183.627 291.527,182.513 282.5,178 280.028,176.764 274.707,174 271,174 271,174 270,174 270,174 270,174 269,174 269,174 269,174 265.5,173 265.5,173 265.5,173 262.5,177 262.5,177 261.274,177.613 256,177.926 256,180.5 256,180.5 260,188.5 260,188.5 260.2,188.899 259,196.389 259,197 261.334,197 260.341,201.181 261,202.5 261,202.5 264,203.5 264,203.5 264.76,205.021 264,206.645 264,207.5 264,207.5 268,210.5 268,210.5 268,210.5 267,213.5 267,213.5 267,213.5 269,216 269,216 270.82,216 277,219.853 277,217  Z"/>

<path  fill="#FF0800" stroke-width="0" stroke="#FF0800" d = " M270 174 L271,174 C271,174 270,173 270,173 270,173 270,174 270,174  Z"/>

<path  fill-rule="evenodd" fill="#00FF1D" stroke-width="0" stroke="#00FF1D" d = " M218 215 L215.5,218 C217.31,218.905 222.177,215 218,215  M224 209 C224,210.628 217,219.681 217,220 213.942,220 196.076,216.652 194,212.5 190.122,204.745 195.118,185.691 202.5,182 202.5,182 205.5,182 205.5,182 205.5,182 210,179 210,179 210,180.186 211,180.186 211,179 211,179 212,178 212,178 212,178 213,177 213,177 213,177 214,176 214,176 214,176 215,176 215,176 215,176 217,175 217,175 218.009,175 222.343,177.421 223.5,178 223.5,178 229.5,177 229.5,177 230.671,177.586 232.18,181 230,181 230,181 229,182 229,182 229,186.806 226,193.718 226,199 226,199.839 224.07,201 226,201 226,201 225,206 225,206 225,206 224,207 224,207 224,207 224,209 224,209  Z"/>

<path  fill="#FF0800" stroke-width="0" stroke="#FF0800" d = " M214 176 L213,177 C213,177 214,176 214,176  Z"/>

<path  fill="#FF0800" stroke-width="0" stroke="#FF0800" d = " M213 177 L212,178 C212,178 213,177 213,177  Z"/>

<path  fill="#FF0800" stroke-width="0" stroke="#FF0800" d = " M210 179 L211,179 C211,179 212,178 212,178 212,178 210,179 210,179  Z"/>

<path  fill="#FF3427" stroke-width="0" stroke="#FF3427" d = " M302 268 L302,271 C302,276.3 296.894,262.394 295.5,261 289.12,254.62 293,244.156 293,236 293,231.514 296,229.103 296,225 296,219.899 301.809,214.883 304,210.5 304,210.5 303,206 303,206 303,206 302,204 302,204 302,200.913 301,201.735 301,199 308.664,199 308.279,192.11 308.5,192 311.836,190.332 313.084,195 315.5,195 315.5,195 316.5,192 316.5,192 317.618,191.441 319.409,194.683 319,195.5 317.956,197.588 312.121,208.743 313,210.5 314.786,214.072 319,204.724 319,213 319,213 318,213 318,213 308.113,213 313.695,217.111 312,220.5 312,220.5 306,224.5 306,224.5 306,224.5 306,228.5 306,228.5 306,228.5 302,231.5 302,231.5 300.31,234.88 298.662,238.176 297,241.5 297,241.5 299,247.5 299,247.5 299,247.901 300.163,255.174 300,255.5 300,255.5 298,258.5 298,258.5 300.212,262.924 302,262.712 302,268  Z"/>

<path  fill="#FF3427" stroke-width="0" stroke="#FF3427" d = " M184 277 L184,279 C184,279 186.5,280 186.5,280 186.5,280 188,273.5 188,273.5 188,273.5 191,270.5 191,270.5 191,260.326 196,250.579 196,239 194.527,239 195,237.048 195,236 195,232.55 193,231.235 193,228 191.077,228 189,225.896 189,224 186.022,224 187,221.005 187,220 187,217.831 185.174,211 189,211 189,203.159 187,207.281 187,202 187,202 186,201 186,201 183.839,201 181.707,197.604 180.5,197 176.964,195.232 178.904,201 176.5,201 174.72,201 175,194.605 175,194 173.952,194 172,194.473 172,193 168.611,193 167.187,199.874 168,201.5 169.055,203.61 172.406,203.312 173,204.5 173.417,205.335 174,211.401 174,212 174,212 174,213 174,213 177.087,213 175.787,218.074 177,220.5 177,220.5 182,222.5 182,222.5 183.146,224.793 183.806,227.111 185,229.5 185,229.5 184,233.5 184,233.5 184,233.5 187,236.5 187,236.5 187.871,238.241 189.65,250 186,250 186,250 185,250 185,250 184.399,250 182.747,254.994 183,255.5 183,255.5 185.5,256 185.5,256 189.113,257.806 187.267,264.966 186,267.5 185.54,268.42 188.578,271 186,271 186,271 186,273 186,273 186,273 186,274 186,274 186,274 185,276 185,276 185,276 184,277 184,277  Z"/>

<path  fill="#AE00E8" stroke-width="0" stroke="#AE00E8" d = " M263 217 C263,220.98 259.815,219.342 258.5,220 L257.5,222 C252.77,224.365 254.14,212 247.5,212 243.73,212 237.876,211.748 236,215.5 L235.5,222 C235.084,222.208 229.414,221 228,221 228,221 225,214.5 225,214.5 224.381,213.262 226.144,209 224,209 224,209 224,207 224,207 224,207 225,206 225,206 225,206 226,201 226,201 226,201 228,200 228,200 228.369,200 238.44,197.53 239.5,197 239.5,197 241.5,194 241.5,194 243.051,194 247.305,197 247.5,197 248.239,197 248.965,193.733 251.5,195 252.57,195.535 255.598,198 256,198 256,201.78 258.937,198.374 260,200.5 262.056,204.613 263,212.185 263,217  Z"/>

<path  fill="#EE7533" stroke-width="0" stroke="#EE7533" d = " M294 224 L296,225 C296,219.899 301.809,214.883 304,210.5 304,210.5 303,206 303,206 300.75,206 299.624,208 298,208 298,208 297,209 297,209 297,209 291,216 291,216 291,216 290,217 290,217 290,217 289,230 289,230 290.454,230 290.433,224.634 291,223.5 291.521,222.459 294,222.756 294,224  Z"/>

<path  fill="#EE7533" stroke-width="0" stroke="#EE7533" d = " M193 228 C193,221.774 197.532,232 198,232 198,228.155 196,225.197 196,220 196,218.535 196.109,216 194,216 194,216 191,213 191,213 191,213 189,211 189,211 185.174,211 187,217.831 187,220 187,220 189,224 189,224 189,225.896 191.077,228 193,228  Z"/>

<path  fill="#FF91BA" stroke-width="0" stroke="#FF91BA" d = " M184 277 L184,279 C184,279 181.5,281 181.5,281 177.241,283.13 174.244,278 171.5,278 167.9,278 159,277.063 159,271 159,271 158,270 158,270 158,264.851 151,255.463 151,247 153.212,247 153.212,246 151,246 151,241.382 153.017,234.465 155,230.5 155,230.5 157,229.5 157,229.5 157,229.5 156,227.5 156,227.5 156,227.5 161,222.5 161,222.5 162.099,220.303 172,215.377 172,214 172,214 174,213 174,213 177.087,213 175.787,218.074 177,220.5 177,220.5 182,222.5 182,222.5 183.146,224.793 183.806,227.111 185,229.5 185,229.5 184,233.5 184,233.5 184,233.5 187,236.5 187,236.5 187.871,238.241 189.65,250 186,250 186,248.814 185,248.814 185,250 184.399,250 182.747,254.994 183,255.5 183,255.5 185.5,256 185.5,256 189.113,257.806 187.267,264.966 186,267.5 185.54,268.42 188.578,271 186,271 183.566,271 182.038,274 185,274 185,274 186,274 186,274 186,274 185,276 185,276 185,276 184,277 184,277  Z"/>

<path  fill="#FF91BA" stroke-width="0" stroke="#FF91BA" d = " M330 276 L331,276 C331,274.042 330.219,269.062 331,267.5 334.373,260.754 343.674,244.848 339,235.5 339,235.5 337.5,232 337.5,232 337.5,232 335,231.5 335,231.5 335,231.5 336,228.5 336,228.5 334.895,226.289 327.567,219 326.5,219 325.786,219 319,214.692 319,214 319,214 318,213 318,213 308.113,213 313.695,217.111 312,220.5 312,220.5 306,224.5 306,224.5 306,224.5 306,228.5 306,228.5 306,228.5 302,231.5 302,231.5 300.31,234.88 298.662,238.176 297,241.5 297,241.5 299,247.5 299,247.5 299,247.901 300.163,255.174 300,255.5 300,255.5 298,258.5 298,258.5 300.212,262.924 302,262.712 302,268 302,268 304,269 304,269 304,267.384 305.521,265.543 307,268.5 307,268.5 307.5,273 307.5,273 307.5,273 308.5,269 308.5,269 310.947,267.777 309.361,273.43 310.5,274 314.77,276.135 321.301,273.9 325.5,276 325.5,276 327.5,279 327.5,279 327.5,279 329,277 329,277 329,277 330,276 330,276  Z"/>

<path  fill="#0008B6" stroke-width="0" stroke="#0008B6" d = " M265 260 L266,260 C274.892,260 274.375,255.562 281.5,252 281.5,252 285,251.5 285,251.5 285.658,250.183 289,237.138 289,236 289,236 288,234 288,234 288,234 289,232 289,232 289,232 289,231 289,231 287.814,231 287.814,230 289,230 289,230 290,217 290,217 290,217 289,217 289,217 289,217 288,218 288,218 288,218 287,219 287,219 287,219 286,220 286,220 286,220 284,221 284,221 284,221 283,222 283,222 283,222 282,223 282,223 282,223 281,224 281,224 281,224 280,225 280,225 280,225 279,226 279,226 279,226 276,229 276,229 276,229 275,230 275,230 275,230 274,230 274,230 274,237.699 271.563,241.373 268,248.5 267.364,249.772 266.55,256 265,256 265,256 265,260 265,260  Z"/>

<path  fill="#0008B6" stroke-width="0" stroke="#0008B6" d = " M222 262 C220.762,262 219,262.423 219,264 219,264 217.5,267 217.5,267 217.5,267 215.5,263 215.5,263 215.5,263 213.5,264 213.5,264 207.384,264 199,246.132 199,241 199,241 199,238 199,238 199,238 198,237 198,237 198,237 198,232 198,232 198,228.155 196,225.197 196,220 196,220 200.5,225 200.5,225 200.5,225 206.5,227 206.5,227 206.5,227 207,229 207,229 207,229 208,230 208,230 209.238,230 211,230.423 211,232 211,232 214,234.5 214,234.5 214,235.064 217,243.1 217,240 218.473,240 218,241.952 218,243 218,249.644 222,253.638 222,260 222,260 222,262 222,262  Z"/>

<path  fill="#ADFF2F" stroke-width="0" stroke="#ADFF2F" d = " M291 235 L289,236 C289,236 288,234 288,234 288,234 289,232 289,232 289,232 289,231 289,231 289,231 289,230 289,230 290.454,230 290.433,224.634 291,223.5 291.521,222.459 294,222.756 294,224 294,224 294,225 294,225 294,225 294,226 294,226 294,226 291,235 291,235  Z"/>

<path  fill="#FFFC00" stroke-width="0" stroke="#FFFC00" d = " M255 228 C255,230.523 264.709,242.395 267.5,241 270.177,239.661 272.531,230 273,230 273,219.964 263.391,230 263,230 259.737,230 255,221.773 255,228  Z"/>

<path  fill="#EE7533" stroke-width="0" stroke="#EE7533" d = " M294 225 C295.186,225 295.186,226 294,226 294,226 294,225 294,225  Z"/>

<path  fill="#ADFF2F" stroke-width="0" stroke="#ADFF2F" d = " M197 239 C197,240.747 197.253,241 199,241 199,241 199,238 199,238 199,238 198,237 198,237 198,237 198,232 198,232 197.532,232 193,221.774 193,228 193,231.235 195,232.55 195,236 195,236 197,239 197,239  Z"/>

<path  fill="#006400" stroke-width="0" stroke="#006400" d = " M245 252 C246.49,252 247.587,253 250,253 250,242.03 254.496,247 260,247 261.68,247 262.265,240.031 261,237.5 259.648,234.797 257.416,236.958 255.5,236 255.423,235.961 255.977,230.739 254.5,230 254.5,230 249.5,232 249.5,232 249.5,232 246.5,232 246.5,232 241.151,234.675 245,244.759 245,249 245,249 245,252 245,252  Z"/>

<path  fill="#EE7533" stroke-width="0" stroke="#EE7533" d = " M289 230 C287.814,230 287.814,231 289,231 289,231 289,230 289,230  Z"/>

<path  fill="#006400" stroke-width="0" stroke="#006400" d = " M237 249 C235.209,249 234.041,245.73 231.5,247 229.333,248.083 230.715,250 228,250 224.579,250 225,243.345 225,241 225,241 225,240 225,240 225,240 226,238 226,238 226,238 227,237 227,237 227,237 228,236 228,236 228,236 228,235 228,235 233.672,235 230.784,232.858 234.5,231 236.661,229.919 239.394,232 241,232 241,233.293 244.846,249.327 241.5,251 239.384,252.058 238.602,249 237,249  Z"/>

<path  fill="#FFFC00" stroke-width="0" stroke="#FFFC00" d = " M225 241 C222.113,241 223.397,246.052 221.5,247 219.571,247.965 219.585,243 218,243 218,241.952 218.473,240 217,240 217,236.231 215,236.369 215,233 215,233 219.5,234 219.5,234 219.5,234 221.5,232 221.5,232 223.444,232.972 222.97,234 225.5,234 225.5,234 226.5,232 226.5,232 226.5,232 228,235 228,235 228,235 228,236 228,236 228,236 227,237 227,237 227,237 226,238 226,238 226,238 225,240 225,240 225,240 225,241 225,241  Z"/>

<path  fill-rule="evenodd" fill="#E1F00D" stroke-width="0" stroke="#E1F00D" d = " M141 296 C141,299.784 147.254,296 141,296  M266 263 C266,264.93 267.93,263 266,263  M216 329 L217,329 C217,326.106 225,326.343 225,328 226.235,328 230,327.357 230,329 239.309,329 257.344,323.422 264.5,327 265.594,327.547 272,324.891 272,328 272,328 275,328 275,328 276.842,328 279.283,329 280.5,329 283.314,329 288.242,324.371 291.5,326 299.045,329.773 305.852,335.176 313.5,339 317.987,341.244 322.869,342.684 327.5,345 327.92,345.21 332.836,344.668 335.5,346 337.877,347.189 337.616,344 339,344 339,340.822 345.801,335.35 348.5,334 355.348,330.576 360.415,310.669 364,303.5 364.422,302.655 365.109,292.717 365,292.5 365,292.5 361,292 361,292 358.474,292 355.423,294 352,294 352,294 354,296.5 354,296.5 354,296.5 351.5,297 351.5,297 345.515,299.993 338.498,291 344,291 344,291 347,292 347,292 347,286.784 339.404,289.452 336.5,288 334.932,287.216 337.331,285.831 336,284.5 332.979,281.479 329,282.901 329,277 329,277 327.5,279 327.5,279 327.5,279 325.5,276 325.5,276 321.301,273.9 314.77,276.135 310.5,274 309.361,273.43 310.947,267.777 308.5,269 308.5,269 307.5,273 307.5,273 307.5,273 307,268.5 307,268.5 305.521,265.543 304,267.384 304,269 304,274.085 304.678,271 302,271 302,276.3 296.894,262.394 295.5,261 289.12,254.62 293,244.156 293,236 293,236 291,235 291,235 291,235 289,236 289,236 289,237.138 285.658,250.183 285,251.5 285,251.5 281.5,252 281.5,252 274.375,255.562 274.892,260 266,260 266,260 265,261 265,261 264.432,261 262.115,265.192 260.5,266 257.705,267.398 256.835,262 255,262 252.517,262 250.974,264 249,264 249,267.824 246.82,270.861 245,274.5 245,274.5 245,298 245,298 245,298 245,319 245,319 245,320.211 245.626,325 243.5,325 242.101,325 242,320.128 242,319 242,319 242,299.5 242,299.5 242,299.5 242,275.5 242,275.5 241.159,273.818 240.418,272.337 239,269.5 239,269.5 236,267 236,267 236,267 230.5,265 230.5,265 230.5,265 224.5,268 224.5,268 224.5,268 219,264 219,264 219,264 217.5,267 217.5,267 217.5,267 215.5,263 215.5,263 215.5,263 213.5,264 213.5,264 207.384,264 199,246.132 199,241 197.253,241 197,240.747 197,239 197,239 196,239 196,239 196,250.579 191,260.326 191,270.5 191,270.5 188,273.5 188,273.5 188,273.5 186.5,280 186.5,280 186.5,280 184,279 184,279 184,279 181.5,281 181.5,281 177.241,283.13 174.244,278 171.5,278 167.9,278 159,277.063 159,271 159,271 158,271 158,271 158,271 157,272 157,272 157,275.972 149.199,288.65 144.5,291 142.698,291.901 133,293.807 133,296 133,297.172 137.441,321.381 138,322.5 140.679,327.859 137,338.745 137,344 137.893,344 147.188,343.844 147.5,344 147.5,344 152.5,346 152.5,346 158.436,343.032 167.08,342.21 171.5,340 185.919,332.79 199.54,329 216,329  Z"/>

<path  fill="#15C0FF" stroke-width="0" stroke="#15C0FF" d = " M265 261 C264.432,261 262.115,265.192 260.5,266 257.705,267.398 256.835,262 255,262 255,259.151 250,256.541 250,253 250,242.03 254.496,247 260,247 260,248.872 262.986,256 265,256 265,256 265,260 265,260 265,260 265,261 265,261  Z"/>

<path  fill="#15C0FF" stroke-width="0" stroke="#15C0FF" d = " M222 260 L222,262 C222,262 224.5,265 224.5,265 228.615,267.057 236.553,258.393 238,255.5 239.081,253.339 237,250.606 237,249 235.209,249 234.041,245.73 231.5,247 229.333,248.083 230.715,250 228,250 228,251.48 223.029,260 222,260  Z"/>

<path  fill="#022CFF" stroke-width="0" stroke="#022CFF" d = " M249 264 C249,267.824 246.82,270.861 245,274.5 L245,298 L245,319 C245,320.211 245.626,325 243.5,325 242.101,325 242,320.128 242,319 L242,299.5 L242,275.5 C241.159,273.818 240.418,272.337 239,269.5 L236,267 C236,264.457 240,263.361 240,261.5 240,255.305 240.777,257.947 243,253.5 243,253.5 243.5,247 243.5,247 243.5,247 245,249 245,249 245,249 245,252 245,252 245,257.071 249,259.355 249,264  Z"/>

<path  fill="#0008B6" stroke-width="0" stroke="#0008B6" d = " M266 263 C266,264.93 267.93,263 266,263  Z"/>

<path  fill="#E1F00D" stroke-width="0" stroke="#E1F00D" d = " M185 274 L186,274 C186,274 186,273 186,273 186,273 185,274 185,274  Z"/>

<path  fill="#E1F00D" stroke-width="0" stroke="#E1F00D" d = " M185 276 L184,277 C184,277 185,276 185,276  Z"/>

<path  fill="#E1F00D" stroke-width="0" stroke="#E1F00D" d = " M330 276 L331,276 C331,277.186 330,277.186 330,276  Z"/>

<path  fill="#FFBB00" stroke-width="0" stroke="#FFBB00" d = " M347 292 L352,294 C352,294 354,296.5 354,296.5 354,296.5 351.5,297 351.5,297 345.515,299.993 338.498,291 344,291 344,291 347,292 347,292  Z"/>

<path  fill="#FFBB00" stroke-width="0" stroke="#FFBB00" d = " M141 296 C141,299.784 147.254,296 141,296  Z"/>

<path  fill="#267EFF" stroke-width="0" stroke="#267EFF" d = " M216 329 L217,329 C220.219,329 222.108,328 225,328 226.235,328 230,327.357 230,329 230,329.522 237.085,332.708 238.5,332 246.889,327.806 245.343,332 249.5,332 249.5,332 254.5,329 254.5,329 254.5,329 272,328 272,328 272,328 275,328 275,328 275,330.159 279,328.061 279,329.5 279,345.645 243.39,334.555 238.5,337 234.546,338.977 214.153,339.805 212,335.5 210.501,332.501 216,331.013 216,329  Z"/>

<path  fill-rule="evenodd" fill="#FA8072" stroke-width="0" stroke="#FA8072" d = " M302 373 L301,376.5 L304,374.5 L302,373  M304 346 C304,349.339 299.04,346.73 296.5,348 L290,351.5 L288.5,356 C286.336,357.082 283.457,356.585 282,359.5 L282,365.5 C277.886,373.728 280.469,385 289.5,385 291.434,385 293.04,391.27 294.5,392 L300.5,390 C301.783,390.642 302.595,392.953 304.5,392 306.338,391.081 306.881,387.31 309.5,386 L321,379.5 C322.615,376.27 321,374.372 321,371.5 321,371.183 329.917,369.333 328,365.5 L324.5,361 L321,360.5 C321,359.112 323.014,356.528 322,354.5 320.607,351.714 317.305,352.109 316,349.5 L314.5,346 C312.876,345.188 306.328,346 304,346  Z"/>

<path  fill-rule="evenodd" fill="#FA8072" stroke-width="0" stroke="#FA8072" d = " M195 370 C195,375.567 197.112,370 195,370  M182 349 C182,350.961 175.901,351.3 174.5,352 171.895,353.302 174.277,357.111 172.5,358 168.075,360.213 163.189,356.122 161,360.5 156.79,368.919 167.543,369.587 168,370.5 168.724,371.948 169.587,382 170.5,382 L171.5,373 C171.685,373 172.571,383.642 173,384.5 173.966,386.433 183.106,390 183.5,390 L185.5,388 L187,394.5 C187.023,394.546 196.164,395.668 197.5,395 202.649,392.425 200.024,390.451 202,386.5 203.287,383.926 206.628,388.243 209,383.5 210.014,381.472 208,378.888 208,377.5 208,376.112 210.014,373.528 209,371.5 208.427,370.355 199.799,360.65 198.5,360 L195.5,361 L195,355.5 C193.465,352.429 185.09,349 182,349  Z"/>

<path  fill="#FA8072" stroke-width="0" stroke="#FA8072" d = " M121 351 C121,352.606 118.919,355.339 120,357.5 120.848,359.196 136.244,368.872 140.5,371 143.824,372.662 149.646,385.209 154,376.5 157.041,370.419 148.329,370.829 145.5,368 140.18,362.68 137.014,359.257 130.5,356 L127.5,352 C125.396,350.948 124.83,354 123.5,354 L121,351  Z"/>

<path  fill="#FA8072" stroke-width="0" stroke="#FA8072" d = " M362 353 C362,354.971 355.779,356.942 354,360.5 352.775,362.95 356.909,368.296 359.5,367 364.426,364.537 373.943,353 362,353  Z"/>

<path  fill="#FA8072" stroke-width="0" stroke="#FA8072" d = " M352 361 C352,363.432 346.867,369 345.5,369 344.085,369 341.868,362.765 338,370.5 336.611,373.278 342.091,379 343.5,379 343.522,379 345.841,374.329 346.5,374 349.338,372.581 351.541,376.418 354,371.5 354.867,369.767 352.628,367.756 352,366.5 351.656,365.813 354.849,361 352,361  Z"/>

</g>
</svg>
