<svg xmlns="http://www.w3.org/2000/svg" xmlns:xlink="http://www.w3.org/1999/xlink" height="512" width="512">
<g>
<rect width="512" height="512" fill="#000000"  stroke-width="0" /> 
<path  fill="#CED307" stroke-width="0" stroke="#CED307" d = " M246 184 L250.5,186 L255.5,184 C257.222,184 259.07,186 260.5,186 263.915,186 265.622,181.439 268.5,180 L273.5,179 L274.5,176 C277.521,176 280.965,172.767 284.5,171 288.346,169.077 296.477,174.489 299.5,176 L304.5,177 L305,180.5 L306.5,180 L309.5,185 C309.974,185 313.126,185.752 314,187.5 316.383,192.267 319,207.863 319,214 319,216.236 329.332,221.835 331,218.5 336.582,207.337 343.791,194.917 350,182.5 355.761,170.978 339.142,149.821 331.5,146 331.5,146 327.5,141 327.5,141 298.223,126.362 267.286,115.927 249,152.5 245.915,158.671 246,175.893 246,184  Z"/>

<path  fill="#CED307" stroke-width="0" stroke="#CED307" d = " M242 184 C243.684,184 243,179.321 243,178 L242,157.5 C237.156,147.812 233.103,137.302 222.5,132 L209.5,131 C206.974,129.737 199.357,129.571 196.5,131 190.514,133.993 182.454,133.023 176.5,136 168.094,140.203 161.146,146.354 154.5,153 L147,159.5 C136.576,180.348 141.739,183.978 151,202.5 153.36,207.22 154.733,214.116 160.5,217 164.417,218.958 167.017,213 170,213 170,201.692 173.367,193.765 178,184.5 178,184.5 182,180.5 182,180.5 182,180.5 183.5,177 183.5,177 183.5,177 185.5,178 185.5,178 187.472,178 192.569,173.966 194.5,173 194.5,173 198.5,174 198.5,174 198.5,174 201.5,172 201.5,172 202.228,172 217.708,178.104 219.5,179 219.5,179 224.5,185 224.5,185 229.025,185 236.845,184 242,184  Z"/>

<path  fill="#03C12D" stroke-width="0" stroke="#03C12D" d = " M312 211 C314.538,211 315.953,214 319,214 319,207.863 316.383,192.267 314,187.5 313.126,185.752 309.974,185 309.5,185 309.5,185 306.5,180 306.5,180 306.5,180 305,180.5 305,180.5 305,180.5 304.5,177 304.5,177 304.5,177 299.5,176 299.5,176 296.477,174.489 288.346,169.077 284.5,171 280.965,172.767 277.521,176 274.5,176 274.5,176 273.5,179 273.5,179 273.5,179 268.5,180 268.5,180 265.622,181.439 263.915,186 260.5,186 259.07,186 257.222,184 255.5,184 255.5,184 250.5,186 250.5,186 250.5,186 246,184 246,184 243.271,184 246,191.987 246,193 246,198.376 244.421,210.342 247,215.5 247,215.5 250,221 250,221 254.174,221 254.942,216.779 258.5,215 261.909,213.296 269.219,216.14 271.5,215 271.5,215 283,207 283,207 283,195.711 302,191.765 302,204 302,204 305,205 305,205 305,205 306,206 306,206 306,206 312,211 312,211  Z"/>

<path  fill="#03C12D" stroke-width="0" stroke="#03C12D" d = " M170 213 L171,214 C174.062,214 178.989,206.522 180,204.5 180,204.5 187,200 187,200 187,195.904 197,193.179 197,197 199.207,197 203,195.312 203,200 205.312,200 212,202.847 212,206 212,206 218.5,211 218.5,211 220.941,212.22 222.549,211 224.5,211 226.416,211 225.587,215.456 228.5,214 229.637,213.431 229.9,210.7 232.5,212 232.5,212 236,215 236,215 236,215 242,203.5 242,203.5 242.913,201.675 241,199.684 241,198.5 241,198.5 243,195.5 243,195.5 244.592,192.316 242,186.681 242,184 236.845,184 229.025,185 224.5,185 224.5,185 219.5,179 219.5,179 217.708,178.104 202.228,172 201.5,172 201.5,172 198.5,174 198.5,174 198.5,174 194.5,173 194.5,173 192.569,173.966 187.472,178 185.5,178 185.5,178 183.5,177 183.5,177 183.5,177 182,180.5 182,180.5 182,180.5 178,184.5 178,184.5 173.367,193.765 170,201.692 170,213  Z"/>

<path  fill="#0F6DE6" stroke-width="0" stroke="#0F6DE6" d = " M203 200 L203,201 C200.903,201 197.707,200 195,200 195,198.762 195.423,197 197,197 199.207,197 203,195.312 203,200  Z"/>

<path  fill-rule="evenodd" fill="#FF8700" stroke-width="0" stroke="#FF8700" d = " M195 226 C195,234.348 200.232,236.965 204,244.5 204.336,245.173 209.995,250.51 211,248.5 L209.5,244 C207.93,244 199.959,226 195,226  M242 226 L242,262 C242,262 238,266.5 238,266.5 233.801,274.897 228.705,285.103 216.5,279 216.5,279 212.5,279 212.5,279 212.5,279 206.5,273 206.5,273 206.5,273 199.5,272 199.5,272 195.759,270.129 192.183,267.841 188.5,266 183.084,263.292 171.808,247.117 169,241.5 169,241.5 169,237.5 169,237.5 167.737,234.975 164.225,231.049 166,227.5 167.582,224.335 171,217.47 171,214 174.062,214 178.989,206.522 180,204.5 180,204.5 187,200 187,200 187,200 195,200 195,200 197.707,200 200.903,201 203,201 203,203.795 209.617,206 212,206 212,206 218.5,211 218.5,211 220.941,212.22 222.549,211 224.5,211 226.416,211 225.587,215.456 228.5,214 229.637,213.431 229.9,210.7 232.5,212 232.5,212 236,215 236,215 236,215 239,219 239,219 239,220.238 240.923,224 242,224 242,224 242,226 242,226  Z"/>

<path  fill-rule="evenodd" fill="#FF8700" stroke-width="0" stroke="#FF8700" d = " M288 229 C288,231.183 284.595,232.31 284,233.5 L285,241.5 L282.5,241 L280,243.5 C279.656,244.187 276.793,251 279.5,251 L283.5,245 L286.5,245 C289.556,243.472 289.64,235.221 291,232.5 291.476,231.547 295.043,232.586 294,230.5 293.462,229.425 289.039,229 288,229  M247 229 C247,232.474 246.405,233.691 245,236.5 L245,265 C245,265 251,276.5 251,276.5 251,276.5 261.5,283 261.5,283 270.125,287.313 279.269,277.616 284.5,275 303.506,265.497 314.165,254.17 324,234.5 324.186,234.128 321,221.353 321,220.5 321,220.5 319.5,218 319.5,218 319.5,218 312,211 312,211 312,211 306,206 306,206 306,206 305,205 305,205 305,205 302,204 302,204 299.176,204 293.732,201.384 290.5,203 288.237,204.132 285.638,207 283,207 283,207 271.5,215 271.5,215 269.219,216.14 261.909,213.296 258.5,215 254.942,216.779 254.174,221 250,221 250,223.7 247,225.762 247,229  Z"/>

<path  fill="#FFE300" stroke-width="0" stroke="#FFE300" d = " M239 219 C241.393,219 242,222.234 242,224 240.923,224 239,220.238 239,219  Z"/>

<path  fill="#FF4FCE" stroke-width="0" stroke="#FF4FCE" d = " M195 226 C195,234.348 200.232,236.965 204,244.5 204.336,245.173 209.995,250.51 211,248.5 L209.5,244 C207.93,244 199.959,226 195,226  Z"/>

<path  fill="#FFE300" stroke-width="0" stroke="#FFE300" d = " M242 262 C244.93,262 243.084,265 245,265 245,265 245,236.5 245,236.5 246.405,233.691 247,232.474 247,229 243.947,229 243.368,226 242,226 242,226 242,262 242,262  Z"/>

<path  fill="#FF4FCE" stroke-width="0" stroke="#FF4FCE" d = " M288 229 C288,231.183 284.595,232.31 284,233.5 L285,241.5 L282.5,241 L280,243.5 C279.656,244.187 276.793,251 279.5,251 L283.5,245 L286.5,245 C289.556,243.472 289.64,235.221 291,232.5 291.476,231.547 295.043,232.586 294,230.5 293.462,229.425 289.039,229 288,229  Z"/>

<path  fill="#30DA00" stroke-width="0" stroke="#30DA00" d = " M291 295 C291,295.021 281,301.211 281,304.5 L284,306.5 C284.471,307.442 283.27,311 285.5,311 289.955,311 297.281,310.938 300,305.5 300.921,303.657 301.187,296 297.5,296 295.608,296 293.211,295 291,295  Z"/>

<path  fill="#30DA00" stroke-width="0" stroke="#30DA00" d = " M198 297 C198,301.373 194.621,304.743 197,309.5 197.884,311.268 213.427,313.646 215,310.5 216.028,308.444 213,307 213,305.5 213,304.498 214.835,302.17 214,300.5 211.864,296.229 202.305,297 198,297  Z"/>

<path  fill="#FA8072" stroke-width="0" stroke="#FA8072" d = " M184 300 C184,312.162 199.119,300 184,300  Z"/>

<path  fill="#FA8072" stroke-width="0" stroke="#FA8072" d = " M306 307 L305,309.5 C307.195,313.889 313.648,307 306,307  Z"/>

<path  fill="#FA8072" stroke-width="0" stroke="#FA8072" d = " M190 308 C190,309.93 191.93,308 190,308  Z"/>

<path  fill="#FA8072" stroke-width="0" stroke="#FA8072" d = " M192 310 C192,313.746 194.091,310 192,310  Z"/>

<path  fill-rule="evenodd" fill="#FA8072" stroke-width="0" stroke="#FA8072" d = " M293 383 C293,386.746 295.091,383 293,383  M286 370 L281,374.5 C278.804,378.891 284,384.96 284,385.5 284,386.854 279.102,389.703 281,393.5 282.745,396.99 285.394,396.447 288.5,398 L289.5,403 L295.5,401 L301.5,403 C303.63,401.935 298.794,391.853 304.5,389 306.038,388.231 308.371,390.242 309,391.5 310.305,394.109 306,394.759 306,396.5 L310.5,398 C313.187,399.343 319.464,396.572 321,393.5 323.536,388.428 310.305,380.902 306.5,379 303.891,377.695 303.241,382 301.5,382 299.94,382 302,379.193 302,379 L301,372.5 C298.742,367.985 293.85,372 291.5,372 289.905,372 288.245,370 286,370  Z"/>

<path  fill="#FA8072" stroke-width="0" stroke="#FA8072" d = " M198 373 C198,374.076 193.02,374.46 192,376.5 190.907,378.686 191.018,384.741 188.5,386 L183.5,385 C180.406,386.547 174.551,390.398 173,393.5 167.577,404.345 184.392,398 185.5,398 L189.5,396 C192.229,396 194.002,401 195.5,401 197.932,401 200.253,395 200.5,395 205.36,395 205.772,407.364 212.5,404 220.261,400.12 213,394.623 213,390 213,386.392 218.217,382.934 216,378.5 214.226,374.952 200.948,373 198,373  Z"/>

</g>
</svg>
