<svg xmlns="http://www.w3.org/2000/svg" xmlns:xlink="http://www.w3.org/1999/xlink" height="512" width="512">
<g>
<rect width="512" height="512" fill="#000000"  stroke-width="0" /> 
<path  fill-rule="evenodd" fill="#FFFF00" stroke-width="0" stroke="#FFFF00" d = " M81 200 C81,204.079 82.8733,209 85.5,209 89.6004,209 85,203.617 85,203.5 85,202.189 83.9026,200 81,200  M82 197 C82,202.567 84.1115,197 82,197  M197 115 C197,118.746 199.091,115 197,115  M262 99 C262,101.091 265.746,99 262,99  M260 99 C260,104.567 262.112,99 260,99  M379 215 C390.622,215 404.463,213.575 409,204.5 409.797,202.906 405.972,179.444 405,177.5 L401,171.5 L401.5,168 L402.5,172 L403,158.5 C402.041,156.583 402.081,161 401.5,161 399.292,161 400.578,154.655 400,153.5 L398,153.5 C395.875,149.25 394.564,148.064 391.5,145 389.532,143.032 391.072,140.643 390,138.5 L383.5,137 L381.5,133 L380.5,135 C378.684,135 379.383,132.266 379,131.5 377.935,129.37 375.226,128.863 373.5,128 368.673,125.586 367.675,130 366.5,130 L365.5,127 C362.326,127 364.613,122.057 360.5,120 356.714,118.107 353.289,120.895 351.5,120 348.548,118.524 348.914,115.207 346.5,114 L342.5,115 C340.663,114.082 334.808,112.846 332.5,114 L331.5,116 L329.5,113 L322.5,109 C320.602,109 317.935,110.218 315.5,109 L313.5,106 C306.17,106 299.321,101.911 293.5,99 289.165,96.8327 291.673,108.086 285.5,105 L280.5,95 C277.29,93.3949 276.413,89.9565 272.5,88 266.556,85.0282 243.356,77.072 237.5,80 232.067,82.7163 235.846,83 228,83 224.802,83 215.121,88.2586 214,90.5 212.504,93.4915 217,93.7397 217,94.5 217,95.2871 213.222,95.3612 216.5,97 217.299,97.3993 243.672,97.0862 247.5,99 250.473,100.487 257.106,96.711 259,100.5 260.424,103.348 250.699,101 250,101 244.311,101 238.972,101 232.5,101 224.99,101 218.17,104 212.5,104 209.978,104 204.218,112 202.5,112 200.204,112 201.57,106.36 202,105.5 203.014,103.472 213.407,90.4533 208.5,88 L204.5,88 L201.5,85 C198.72,85 197.574,90.9255 196.5,92 192.076,96.4237 188.009,101.482 185,107.5 L178.5,112 L177.5,114 C174.427,114 170.912,113.294 167.5,115 165.289,116.106 163.905,121.702 160.5,120 160.374,119.937 159.963,116.731 158.5,116 152.135,112.818 144.902,115 139.5,115 139.041,115 129.667,124.417 128.5,125 123.172,127.664 119.646,133.427 118.5,134 L112.5,135 L103.5,141 C91.793,146.854 89.5043,165.491 85,174.5 83.1933,178.113 85.485,187 82.5,187 L82,191.5 C78.7676,197.965 77.6225,201.745 81,208.5 82.4115,211.323 94.0344,214.233 96.5,213 L96.5,206 C101.253,206 97.6434,217 99.5,217 L100.5,212 L101.5,218 C102.722,218 104.421,217 106,217 106,217 109,214.5 109,214.5 110.184,212.132 106.93,207.36 106,205.5 102.886,199.273 106.172,179.845 103,173.5 101.642,170.783 93.4387,176.969 91.5,176 91.5,176 89,171.5 89,171.5 86.9445,167.389 103.452,152.596 106,147.5 106.702,146.096 109.748,143.124 111.5,144 116.595,146.547 109.735,158.969 112,163.5 112,163.5 118,167.5 118,167.5 118,167.5 117,177 117,177 117,187.539 116.667,195.834 121,204.5 123.845,210.189 120.115,215.193 130.5,210 136.344,207.078 145.691,193.882 142,186.5 142,186.5 133,177.5 133,177.5 133,177.5 133,166 133,166 133,160.437 137.843,144.185 136,140.5 134.091,136.683 126.142,140.783 124,136.5 121.226,130.952 134.798,126.351 137.5,125 137.5,125 139.5,122 139.5,122 143.337,120.082 144.413,121 146.5,121 146.5,121 150.5,118 150.5,118 157.796,121.648 148.743,130.014 147,133.5 143.006,141.487 149,152.588 149,161 149,164.512 148.655,170.578 151.5,172 157.56,175.03 162.234,164.031 164,160.5 169.433,149.633 156.32,127.59 171.5,120 171.5,120 172.5,117 172.5,117 172.5,117 174.5,118 174.5,118 174.5,118 175.5,116 175.5,116 177.66,114.92 180.307,114.097 182.5,113 182.5,113 194.5,101 194.5,101 196.008,101.754 194.33,102.84 194,103.5 193.462,104.576 195,106.704 195,107.5 195,107.5 193,108.5 193,108.5 193,108.5 194,111.5 194,111.5 192.572,114.357 188,117.789 188,119.5 188,119.5 183.5,122 183.5,122 183.5,122 176,128.5 176,128.5 171.221,138.059 178.976,150.549 172,164.5 170.286,167.927 160.535,190.518 165.5,193 167.153,193.826 169.31,192.595 170.5,192 181.617,186.441 180.085,178.33 185,168.5 188.499,161.501 190.503,153.494 194,146.5 196.104,142.291 194.304,133.892 197,128.5 202.513,117.475 217.405,112.547 226.5,108 230.478,106.011 236.784,107 241.5,107 241.5,107 245.5,106 245.5,106 250.268,108.384 261.096,107.298 262.5,108 264.531,109.016 269.393,114 272.5,114 272.5,114 274.5,113 274.5,113 275.109,113.304 277.429,117 277.5,117 278.079,117 280.615,115.729 281,116.5 282.082,118.663 284.207,120.915 285,122.5 285,122.5 285.5,126 285.5,126 285.5,126 288,124.5 288,124.5 288.974,126.448 289.895,133.291 292,137.5 292,137.5 292,150.5 292,150.5 296.371,159.243 299.599,168.699 304,177.5 305.746,180.993 310.323,193.588 317.5,190 321.434,188.033 316.045,168.59 315,166.5 311.959,160.419 312.052,152.603 309,146.5 307.404,143.307 312.239,137.979 311,135.5 309.926,133.352 301.874,113.752 302,113.5 306.907,103.686 311.769,114 312.5,114 316.265,114 320.424,113.462 323.5,115 323.5,115 324,118.5 324,118.5 327.087,124.674 322,121.697 322,128 322,140.002 315.603,160.052 329.5,167 336.433,170.466 332.734,160.032 334,157.5 336.053,153.395 340.656,135.813 338,130.5 336.916,128.333 332.854,125.792 335,121.5 335,121.5 339.5,118 339.5,118 339.5,118 341.5,121 341.5,121 342.833,121 344.167,119 345.5,119 347.818,119 348.5,124 349.5,124 351.89,124 360.439,124.377 361,125.5 364.53,132.56 350,136.915 350,139.5 350,143.83 355.672,164.156 354,167.5 351.874,171.752 345.696,173.107 344,176.5 337.724,189.051 341.469,198.485 354.5,205 359.207,207.353 360.205,199.148 360.5,199 366.736,195.882 371.292,173.084 368,166.5 367.052,164.604 364.898,157.703 366,155.5 366,155.5 372,149.5 372,149.5 373.558,146.383 369.988,139.525 371,137.5 371.645,136.21 372.202,132.851 374.5,134 377.932,135.716 376.716,136.931 378,139.5 378.515,140.529 384.688,140.877 386,143.5 387.225,145.949 396.196,157.348 397.5,158 397.5,158 398,163.5 398,163.5 398.197,163.894 401.789,164.856 399.5,166 392.703,169.398 389.267,155.116 381.5,159 381.5,159 381,173.5 381,173.5 381,176.566 380.201,191.098 379,193.5 376.283,198.934 376,194.286 376,203.5 376,206.16 375.036,215 379,215  M395 207 L396,207 C396,207 398.5,212 398.5,212 398.5,212 399.5,210 399.5,210 402.321,208.59 404.321,208.859 406,205.5 406.736,204.028 404.642,185.784 404,184.5 404,184.5 402.5,185 402.5,185 402.5,185 401.5,182 401.5,182 400.347,182 399.389,186.722 399,187.5 399,187.5 395,189.5 395,189.5 393.732,192.037 387.997,207 395,207  Z"/>

<path  fill="#FFFF00" stroke-width="0" stroke="#FFFF00" d = " M210 90 C210,96.0722 214.238,90 210,90  Z"/>

<path  fill-rule="evenodd" fill="#00FFFF" stroke-width="0" stroke="#00FFFF" d = " M391 238 C391,242.123 395.123,238 391,238  M389 238 C389,239.93 390.93,238 389,238  M251 171 C251,173.39 242.144,171.178 240.5,172 234.547,174.976 225.535,170.983 221.5,173 217.861,174.82 215.479,176 211,176 207.468,176 198.904,176.309 202,182.5 204.123,186.747 207.815,187.158 211.5,189 L218.5,194 C224.566,197.033 237.941,188 243.5,188 L254.5,191 C261.66,194.58 273.733,189.884 279.5,187 284.027,184.736 284.089,175.294 279.5,173 L251,171  M252 146 C252,150.18 230.533,153.984 224.5,157 222.633,157.933 215.745,159.99 218,164.5 218.732,165.965 224.807,166.846 226.5,166 235.467,161.517 249.795,163.852 257.5,160 261.095,158.202 263.05,162.725 266.5,161 268.065,160.217 268.333,156.834 269,155.5 L273,152.5 C275.196,148.109 262.627,145.436 259.5,147 256.743,148.378 254.598,146 252,146  M224 144 L222.5,146 C221.292,146 210.707,146.914 213,151.5 215.445,156.389 231.652,144 224,144  M242 118 C242,119.004 242.63,124.065 240.5,123 L239.5,120 L238.5,123 C235.271,124.614 229.588,121 229.5,121 224.561,121 219.746,126 215.5,126 L215,128.5 C213.888,130.724 206.88,134.26 209,138.5 212.228,144.955 221.638,137 226.5,137 228.339,137 235.338,140.581 236.5,140 239.648,138.426 261.159,137.829 265.5,140 268.59,141.545 279.218,144.065 281,140.5 282.282,137.937 279.877,136.253 279,134.5 L280,131.5 L277,130.5 L272.5,125 C270.07,123.785 261.309,125.118 260,122.5 259.002,120.505 248.434,117.033 246.5,118 L245.5,120 C245.108,120 243.94,118 242,118  M412 255 C410.286,255 411,260.594 411,262 406.494,262 411.19,254.845 407.5,253 407.5,253 402.5,253 402.5,253 399.34,251.42 395.156,247 391.5,247 385.628,247 376.308,247.404 369.5,244 366.108,242.304 357.533,237.484 354.5,239 350.97,240.765 357.327,248 359.5,248 363.592,248 388.124,257.812 394.5,261 396.496,261.998 407,261.787 407,265.5 407,265.5 399.5,273 399.5,273 396.404,274.548 378.073,264.786 374.5,263 371.985,261.743 368.109,263.305 365.5,262 363.022,260.761 361.689,251 359,251 359,247.286 353.335,246.171 352,243.5 351.79,243.079 347.68,241 346.5,241 338.791,241 327.35,237 318,237 317.078,237 315,233.724 315,236 315,236 310,235 310,235 309.286,235 308,231.664 308,234 303.263,234 293.785,231.142 289.5,229 289.5,229 282,230 282,230 280.952,230 279,229.527 279,231 276.067,231 273.679,228 270,228 270,225.726 266.853,219.323 263.5,221 263.5,221 262,231.5 262,231.5 259.835,235.829 247.951,238.274 244.5,240 244.5,240 241.5,239 241.5,239 241.5,239 236.5,239 236.5,239 236.5,239 230.5,235 230.5,235 230.5,235 223.5,224 223.5,224 223.5,224 219,227 219,227 209.817,227 219.185,232 212,232 212,231.182 207,228.971 207,231 204.568,231 203.603,230.051 201.5,229 201.5,229 197.5,230 197.5,230 195.007,228.754 189,224.27 189,232 189,232 188,232 188,232 188,229.646 184,230.154 184,233 184,233 183,233 183,233 183,233 182,234 182,234 180.378,234 177,233.539 177,236 168.296,236 153.465,238.517 144.5,243 142.508,243.996 140.402,245.049 138.5,246 136.611,246.944 135.754,255 131.5,255 131.5,255 129,253 129,253 129,252.093 125.8,251.9 125,253.5 123.066,257.367 125.89,262.305 120.5,265 117.633,266.433 111.971,261.264 108.5,263 104.233,265.133 97.8893,268 96.5,268 94.6841,268 95.3832,270.734 95,271.5 95,271.5 88.5,273 88.5,273 88.5,273 85,271.5 85,271.5 85,271.5 84.5,269 84.5,269 83.2267,269 80.3369,273.174 77,266.5 75.2722,263.044 80.2169,258.142 82.5,257 82.5,257 84.5,259 84.5,259 84.5,259 86.5,256 86.5,256 95.3807,256 109.84,253.33 118.5,249 123.384,246.558 129.72,244 132.5,244 132.937,244 138.174,238.337 135.5,237 131.685,235.093 114.078,242.211 110.5,244 104.818,246.841 96.2517,244.124 90.5,247 90.5,247 85.5,251 85.5,251 84.1667,251 82.8333,249 81.5,249 79.2699,249 80.471,252.558 80,253.5 78.6616,256.177 77.8305,254 76.5,254 76.5,254 73.5,258 73.5,258 73.5,258 72.5,254 72.5,254 70.4949,252.997 67.612,254.056 65.5,253 61.8905,251.195 59.8486,256 57.5,256 57.5,256 55.5,253 55.5,253 50.7702,253 49.4616,254.423 47,249.5 47,249.5 45,249.5 45,249.5 43.8355,247.171 47.6628,238 49.5,238 49.5,238 53.5,243 53.5,243 63.9674,248.234 75.5261,251.448 82,238.5 83.0236,236.453 78.6812,234.409 77.5,235 71.8904,237.805 67.8408,237 62,237 60.7617,237 55.13,233.24 56,231.5 59.3615,224.777 63.5463,229.977 67.5,228 71.9865,225.757 89.5701,217.535 94.5,220 100.18,222.84 89.1624,229.831 93.5,232 98.4779,234.489 105.888,228 107.5,228 108.362,228 110.368,222 108,222 108,218.959 106,219.523 106,217 106,217 109,214.5 109,214.5 110.184,212.132 106.93,207.36 106,205.5 102.886,199.273 106.172,179.845 103,173.5 101.642,170.783 93.4387,176.969 91.5,176 91.5,176 89,171.5 89,171.5 86.9445,167.389 103.452,152.596 106,147.5 106.702,146.096 109.748,143.124 111.5,144 116.595,146.547 109.735,158.969 112,163.5 112,163.5 118,167.5 118,167.5 118,167.5 117,177 117,177 117,187.539 116.667,195.834 121,204.5 123.845,210.189 120.115,215.193 130.5,210 136.344,207.078 145.691,193.882 142,186.5 142,186.5 133,177.5 133,177.5 133,177.5 133,166 133,166 133,160.437 137.843,144.185 136,140.5 134.091,136.683 126.142,140.783 124,136.5 121.226,130.952 134.798,126.351 137.5,125 137.5,125 139.5,122 139.5,122 143.337,120.082 144.413,121 146.5,121 146.5,121 150.5,118 150.5,118 157.796,121.648 148.743,130.014 147,133.5 143.006,141.487 149,152.588 149,161 149,164.512 148.655,170.578 151.5,172 157.56,175.03 162.234,164.031 164,160.5 169.433,149.633 156.32,127.59 171.5,120 171.5,120 172.5,117 172.5,117 172.5,117 174.5,118 174.5,118 174.5,118 175.5,116 175.5,116 177.66,114.92 180.307,114.097 182.5,113 182.5,113 194.5,101 194.5,101 196.008,101.754 194.33,102.84 194,103.5 193.462,104.576 195,106.704 195,107.5 195,107.5 193,108.5 193,108.5 193,108.5 194,111.5 194,111.5 192.572,114.357 188,117.789 188,119.5 188,119.5 183.5,122 183.5,122 183.5,122 176,128.5 176,128.5 171.221,138.059 178.976,150.549 172,164.5 170.286,167.927 160.535,190.518 165.5,193 167.153,193.826 169.31,192.595 170.5,192 181.617,186.441 180.085,178.33 185,168.5 188.499,161.501 190.503,153.494 194,146.5 196.104,142.291 194.304,133.892 197,128.5 202.513,117.475 217.405,112.547 226.5,108 230.478,106.011 236.784,107 241.5,107 241.5,107 245.5,106 245.5,106 250.268,108.384 261.096,107.298 262.5,108 264.531,109.016 269.393,114 272.5,114 272.5,114 274.5,113 274.5,113 275.109,113.304 277.429,117 277.5,117 278.079,117 280.615,115.729 281,116.5 282.082,118.663 284.207,120.915 285,122.5 285,122.5 285.5,126 285.5,126 285.5,126 288,124.5 288,124.5 288.974,126.448 289.895,133.291 292,137.5 292,137.5 292,150.5 292,150.5 296.371,159.243 299.599,168.699 304,177.5 305.746,180.993 310.323,193.588 317.5,190 321.434,188.033 316.045,168.59 315,166.5 311.959,160.419 312.052,152.603 309,146.5 307.404,143.307 312.239,137.979 311,135.5 309.926,133.352 301.874,113.752 302,113.5 306.907,103.686 311.769,114 312.5,114 316.265,114 320.424,113.462 323.5,115 323.5,115 324,118.5 324,118.5 327.087,124.674 322,121.697 322,128 322,140.002 315.603,160.052 329.5,167 336.433,170.466 332.734,160.032 334,157.5 336.053,153.395 340.656,135.813 338,130.5 336.916,128.333 332.854,125.792 335,121.5 335,121.5 339.5,118 339.5,118 339.5,118 341.5,121 341.5,121 342.833,121 344.167,119 345.5,119 347.818,119 348.5,124 349.5,124 351.89,124 360.439,124.377 361,125.5 364.53,132.56 350,136.915 350,139.5 350,143.83 355.672,164.156 354,167.5 351.874,171.752 345.696,173.107 344,176.5 337.724,189.051 341.469,198.485 354.5,205 359.207,207.353 360.205,199.148 360.5,199 366.736,195.882 371.292,173.084 368,166.5 367.052,164.604 364.898,157.703 366,155.5 366,155.5 372,149.5 372,149.5 373.558,146.383 369.988,139.525 371,137.5 371.645,136.21 372.202,132.851 374.5,134 377.932,135.716 376.716,136.931 378,139.5 378.515,140.529 384.688,140.877 386,143.5 387.225,145.949 396.196,157.348 397.5,158 397.5,158 398,163.5 398,163.5 398.197,163.894 401.789,164.856 399.5,166 392.703,169.398 389.267,155.116 381.5,159 381.5,159 381,173.5 381,173.5 381,176.566 380.201,191.098 379,193.5 376.283,198.934 376,194.286 376,203.5 376,206.16 375.036,215 379,215 379,215 377,217 377,217 377,218.225 373,221.76 373,225.5 373,227.599 390.868,236.764 393,232.5 395.019,228.461 385,227.342 385,223.5 385,222.067 388.949,218.224 390.5,219 393.908,220.704 396.973,223.236 400.5,225 402.284,225.892 407.747,223.624 410.5,225 410.5,225 411.5,227 411.5,227 413.011,227 414.022,223.761 416.5,225 419.038,226.269 413.737,231.381 412.5,232 403.523,236.488 405.976,238.238 413.5,242 415.788,243.144 415.7,240 416.5,240 424.569,240 422.598,218.049 434.5,224 434.5,224 437,227.5 437,227.5 437,227.5 434,232.5 434,232.5 431.949,236.602 442.346,241.577 435.5,245 430.691,247.405 424.391,246.554 419.5,249 417.448,250.026 418.139,243.222 416,247.5 412.714,254.073 425.826,255.848 420,267.5 420,267.5 418.5,273 418.5,273 418.5,273 418,267 418,267 418,261.166 418.488,259.494 413.5,257 413.5,257 412,255 412,255  Z"/>

<path  fill="#FFFF00" stroke-width="0" stroke="#FFFF00" d = " M242 118 C242,119.004 242.63,124.065 240.5,123 L239.5,120 L238.5,123 C235.271,124.614 229.588,121 229.5,121 224.561,121 219.746,126 215.5,126 L215,128.5 C213.888,130.724 206.88,134.26 209,138.5 212.228,144.955 221.638,137 226.5,137 228.339,137 235.338,140.581 236.5,140 239.648,138.426 261.159,137.829 265.5,140 268.59,141.545 279.218,144.065 281,140.5 282.282,137.937 279.877,136.253 279,134.5 L280,131.5 L277,130.5 L272.5,125 C270.07,123.785 261.309,125.118 260,122.5 259.002,120.505 248.434,117.033 246.5,118 L245.5,120 C245.108,120 243.94,118 242,118  Z"/>

<path  fill="#FFFF00" stroke-width="0" stroke="#FFFF00" d = " M224 144 L222.5,146 C221.292,146 210.707,146.914 213,151.5 215.445,156.389 231.652,144 224,144  Z"/>

<path  fill="#FFFF00" stroke-width="0" stroke="#FFFF00" d = " M252 146 C252,150.18 230.533,153.984 224.5,157 222.633,157.933 215.745,159.99 218,164.5 218.732,165.965 224.807,166.846 226.5,166 235.467,161.517 249.795,163.852 257.5,160 261.095,158.202 263.05,162.725 266.5,161 268.065,160.217 268.333,156.834 269,155.5 L273,152.5 C275.196,148.109 262.627,145.436 259.5,147 256.743,148.378 254.598,146 252,146  Z"/>

<path  fill="#FFFF00" stroke-width="0" stroke="#FFFF00" d = " M251 171 C251,173.39 242.144,171.178 240.5,172 234.547,174.976 225.535,170.983 221.5,173 217.861,174.82 215.479,176 211,176 207.468,176 198.904,176.309 202,182.5 204.123,186.747 207.815,187.158 211.5,189 L218.5,194 C224.566,197.033 237.941,188 243.5,188 L254.5,191 C261.66,194.58 273.733,189.884 279.5,187 284.027,184.736 284.089,175.294 279.5,173 L251,171  Z"/>

<path  fill-rule="evenodd" fill="#00FFFF" stroke-width="0" stroke="#00FFFF" d = " M397 205 C397,208.746 399.091,205 397,205  M395 207 C387.997,207 393.732,192.037 395,189.5 L399,187.5 C399.389,186.722 400.347,182 401.5,182 L402.5,185 L404,184.5 C404.642,185.784 406.736,204.028 406,205.5 404.321,208.859 402.321,208.59 399.5,210 L398.5,212 L396,207 C396,205.814 395,205.814 395,207  Z"/>

<path  fill="#00FFFF" stroke-width="0" stroke="#00FFFF" d = " M82 197 C82,202.567 84.1115,197 82,197  Z"/>

<path  fill-rule="evenodd" fill="#00FFFF" stroke-width="0" stroke="#00FFFF" d = " M83 204 C83,207.746 85.0912,204 83,204  M81 200 C81,204.079 82.8733,209 85.5,209 89.6004,209 85,203.617 85,203.5 85,202.189 83.9026,200 81,200  Z"/>

<path  fill="#FFFF00" stroke-width="0" stroke="#FFFF00" d = " M83 204 C83,207.746 85.0912,204 83,204  Z"/>

<path  fill="#FFFF00" stroke-width="0" stroke="#FFFF00" d = " M397 205 C397,208.746 399.091,205 397,205  Z"/>

<path  fill="#FFFF00" stroke-width="0" stroke="#FFFF00" d = " M108 222 C110.368,222 108.362,228 107.5,228 105.888,228 98.4779,234.489 93.5,232 89.1624,229.831 100.18,222.84 94.5,220 89.5701,217.535 71.9865,225.757 67.5,228 63.5463,229.977 59.3615,224.777 56,231.5 55.13,233.24 60.7617,237 62,237 67.8408,237 71.8904,237.805 77.5,235 78.6812,234.409 83.0236,236.453 82,238.5 75.5261,251.448 63.9674,248.234 53.5,243 L49.5,238 C47.6628,238 43.8355,247.171 45,249.5 L47,249.5 C49.4616,254.423 50.7702,253 55.5,253 L57.5,256 C59.8486,256 61.8905,251.195 65.5,253 67.612,254.056 70.4949,252.997 72.5,254 L73.5,258 L76.5,254 C77.8305,254 78.6616,256.177 80,253.5 80.471,252.558 79.2699,249 81.5,249 82.8333,249 84.1667,251 85.5,251 L90.5,247 C96.2517,244.124 104.818,246.841 110.5,244 114.078,242.211 131.685,235.093 135.5,237 138.174,238.337 132.937,244 132.5,244 129.72,244 123.384,246.558 118.5,249 109.84,253.33 95.3807,256 86.5,256 L84.5,259 L82.5,257 C80.2169,258.142 75.2722,263.044 77,266.5 80.3369,273.174 83.2267,269 84.5,269 L85,271.5 L88.5,273 L95,271.5 C95.3832,270.734 94.6841,268 96.5,268 97.8893,268 104.233,265.133 108.5,263 111.971,261.264 117.633,266.433 120.5,265 125.89,262.305 123.066,257.367 125,253.5 125.8,251.9 129,252.093 129,253 129,254.622 127.902,263 126.5,263 126.5,263 125,262.5 125,262.5 125,262.5 124,267.5 124,267.5 121.368,272.763 115.895,265 113.5,265 111.897,265 108.686,266 107.5,266 107.5,266 104.5,272 104.5,272 99.9767,272 94.009,278 87.5,278 83.8669,278 73.8291,266.165 73.5,266 73.5,266 71.5,267 71.5,267 69.1284,267 70.6865,262 69.5,262 68.112,262 65.5284,264.014 63.5,263 61.2234,261.862 62.6888,260.594 59.5,259 57.8809,258.19 56.4988,260 55.5,260 55.2692,260 46.0069,256.514 46,256.5 42.3422,249.184 43.6396,241.221 46,236.5 47.4855,233.529 51.337,235.826 52,234.5 53.8808,230.738 51.6879,227.406 56.5,225 60.6584,222.921 72,227.156 72,221 77.0857,221 86.0526,213.276 87.5,214 92.1576,216.329 96.1248,217.812 100.5,220 100.5,220 103.5,224 103.5,224 104.102,224.301 106.186,222 108,222  Z"/>

<path  fill-rule="evenodd" fill="#FFFF00" stroke-width="0" stroke="#FFFF00" d = " M423 261 C423,264.746 425.091,261 423,261  M440 250 C440,252.871 436.87,251.315 435.5,252 432.548,253.476 417.396,263.448 426.5,268 432.109,270.805 431.426,263.037 433.5,262 L435.5,263 L436.5,260 C437.829,260 440.725,262.051 442,259.5 443.275,256.95 445.044,250 440,250  M406 283 L405,284 C405,287.41 399,286.947 399,285.5 399,280.854 402.372,277.436 401.5,277 400.028,276.264 395.01,278.255 392.5,277 387.413,274.457 383.499,269.999 377.5,267 377.5,267 374.5,268 374.5,268 364.506,263.003 359,267.591 359,251 361.689,251 363.022,260.761 365.5,262 368.109,263.305 371.985,261.743 374.5,263 378.073,264.786 396.404,274.548 399.5,273 399.5,273 407,265.5 407,265.5 407,261.787 396.496,261.998 394.5,261 388.124,257.812 363.592,248 359.5,248 357.327,248 350.97,240.765 354.5,239 357.533,237.484 366.108,242.304 369.5,244 376.308,247.404 385.628,247 391.5,247 395.156,247 399.34,251.42 402.5,253 402.5,253 407.5,253 407.5,253 411.19,254.845 406.494,262 411,262 411,263.487 413,267.435 413,265.5 413,262.744 412,258.423 412,255 412,255 413.5,257 413.5,257 418.488,259.494 418,261.166 418,267 418,267 418.5,273 418.5,273 418.5,273 420,267.5 420,267.5 425.826,255.848 412.714,254.073 416,247.5 418.139,243.222 417.448,250.026 419.5,249 424.391,246.554 430.691,247.405 435.5,245 442.346,241.577 431.949,236.602 434,232.5 434,232.5 437,227.5 437,227.5 437,227.5 434.5,224 434.5,224 422.598,218.049 424.569,240 416.5,240 415.7,240 415.788,243.144 413.5,242 405.976,238.238 403.523,236.488 412.5,232 413.737,231.381 419.038,226.269 416.5,225 414.022,223.761 413.011,227 411.5,227 411.5,227 410.5,225 410.5,225 407.747,223.624 402.284,225.892 400.5,225 396.973,223.236 393.908,220.704 390.5,219 388.949,218.224 385,222.067 385,223.5 385,227.342 395.019,228.461 393,232.5 390.868,236.764 373,227.599 373,225.5 373,221.76 377,218.225 377,217 377,217 379.5,222 379.5,222 379.612,222 391.38,212.94 395.5,215 401.251,217.876 396.313,219 402.5,219 402.5,219 406.5,224 406.5,224 418.73,224 423.383,215.442 438.5,223 442.239,224.87 439.602,229.704 441,232.5 442.998,236.495 440.058,242.617 442,246.5 442,246.5 445,246.5 445,246.5 447.653,251.807 447.637,258.226 445,263.5 444.884,263.732 435.029,271.735 434.5,272 434.5,272 426.5,273 426.5,273 426.5,273 424.5,280 424.5,280 422.897,280 419.686,279 418.5,279 417.214,279 416.644,267.428 411.5,270 411.5,270 404,277.5 404,277.5 403.828,277.845 409.124,283 406,283  Z"/>

<path  fill="#46A515" stroke-width="0" stroke="#46A515" d = " M72 221 C72,209.835 61.2429,221 72,221  Z"/>

<path  fill="#46A515" stroke-width="0" stroke="#46A515" d = " M409 216 L407,217.5 C405.963,219.574 409.792,221.854 411.5,221 414.001,219.749 410.929,216 409,216  Z"/>

<path  fill="#FFFF00" stroke-width="0" stroke="#FFFF00" d = " M219 227 L223.5,224 L230.5,235 L236.5,239 L241.5,239 L244.5,240 C247.951,238.274 259.835,235.829 262,231.5 L263.5,221 C266.853,219.323 270,225.726 270,228 270,251.012 219,252.513 219,227  Z"/>

<path  fill-rule="evenodd" fill="#9953FF" stroke-width="0" stroke="#9953FF" d = " M185 294 C185,294.456 175.672,299.086 179.5,301 181.548,302.024 187.911,294 185,294  M200 276 L193.5,282 C192.919,282.29 190.631,286.869 189.5,288 188.716,288.784 185.203,291.851 187.5,293 L190.5,290 C191.918,289.291 206.84,276 200,276  M270 342 C266.025,342 258.848,340.826 254.5,343 253.726,343.387 250,340.249 250,343 246.952,343 246.296,338.898 244.5,338 244.5,338 239,342 239,342 239,342 225.5,340 225.5,340 225.5,340 218,344 218,344 202.659,344 189.032,341.766 175.5,335 175.5,335 166.5,324 166.5,324 156.182,318.841 146,313.204 146,300 149.841,300 148.333,307.917 150.5,309 158.522,313.011 159.56,316 168.5,316 168.5,316 170,310.5 170,310.5 170,310.5 164,306.5 164,306.5 160.493,302.993 158.145,297.791 156,293.5 153.988,289.477 161.399,281.702 163,278.5 163,278.5 163,271.5 163,271.5 166.077,265.347 168,262.69 168,256 168,256 169,256 169,256 169,258.568 171.288,260.925 173,257.5 174.69,254.12 169,246.148 169,253 169,253 168,253 168,253 168,253 168,250 168,250 168,243.559 177,240.579 177,236 179.124,236 182,236.55 182,234 182,234 183,233 183,233 183,234.186 184,234.186 184,233 184,230.154 188,229.646 188,232 188,233.186 189,233.186 189,232 189,224.27 195.007,228.754 197.5,230 197.5,230 201.5,229 201.5,229 203.603,230.051 204.568,231 207,231 207,231 203,233.5 203,233.5 203,233.5 199,243.5 199,243.5 199,245.715 210.277,247 210.5,247 210.5,247 211,250.5 211,250.5 211.923,252.345 218.164,256 219,256 219,259.624 220.493,265 225,265 225,266.186 226,266.186 226,265 231.996,265 231,260.498 231,257 232.829,257 232.809,262 235.5,262 237.38,262 239.678,259 241,259 241.706,259 247,261.726 247,259 247,259 251.5,262 251.5,262 254.069,263.284 255.009,259 257,259 257,265.896 265.109,268.282 268,262.5 270.124,258.253 267,257.431 267,254 267,254 269.5,256 269.5,256 273.773,256 275.872,247.814 277.5,247 280.363,245.569 289,246.811 289,241.5 289,238.114 284,234.55 284,232 285.606,232 288.339,229.919 290.5,231 293.978,232.739 308,240.268 308,234 308,231.664 309.286,235 310,235 310,235.965 315,240.25 315,236 315,233.724 317.078,237 318,237 318,241.588 331,256.957 331,265 327.323,265 328.062,257.281 325.5,256 325.5,256 322.5,259 322.5,259 322.5,259 319.5,258 319.5,258 317.177,259.161 323,273.23 323,275 316.248,275 318.053,262.223 304.5,269 302.301,270.1 299.72,273.939 301,276.5 302.189,278.878 304.385,278 305.5,278 306.987,278 307.593,282.687 308,283.5 308,283.5 312,286.5 312,286.5 315.609,293.718 312.458,307 324,307 324,308.984 320.722,310.945 322,313.5 323.788,317.076 335.458,309 340,309 340,312.643 331.443,319.529 328.5,321 328.5,321 316.5,332 316.5,332 312.297,334.102 308.82,337.84 304.5,340 304.5,340 295.5,343 295.5,343 290.307,345.597 280.368,341.934 276.5,340 276.05,339.775 270,341.408 270,342  Z"/>

<path  fill="#EB57FF" stroke-width="0" stroke="#EB57FF" d = " M231 257 C232.829,257 232.809,262 235.5,262 237.38,262 239.678,259 241,259 241,245.933 226.98,251.24 220.5,248 219.143,247.322 218.188,239.876 217,237.5 216.353,236.206 212,233.755 212,232 212,231.182 207,228.971 207,231 207,231 203,233.5 203,233.5 203,233.5 199,243.5 199,243.5 199,245.715 210.277,247 210.5,247 210.5,247 211,250.5 211,250.5 211.923,252.345 218.164,256 219,256 219,256 219,255 219,255 219,253.253 219.253,253 221,253 221,253 222,252 222,252 222,250.434 227,250.434 227,252 228.811,252 231,255.438 231,257  Z"/>

<path  fill="#9953FF" stroke-width="0" stroke="#9953FF" d = " M279 232 L283,232 C283,232 282,230 282,230 280.952,230 279,229.527 279,231 279,231 279,232 279,232  Z"/>

<path  fill="#EB57FF" stroke-width="0" stroke="#EB57FF" d = " M247 259 L251.5,262 C254.069,263.284 255.009,259 257,259 257,257.952 256.527,256 258,256 258,256 260,254 260,254 260,254 261,253 261,253 261,250.289 265,251.491 265,253 265,253 267,254 267,254 267,254 269.5,256 269.5,256 273.773,256 275.872,247.814 277.5,247 280.363,245.569 289,246.811 289,241.5 289,238.114 284,234.55 284,232 284,232 283,232 283,232 283,232 279,232 279,232 270.45,232 270.588,244.956 264.5,248 257.811,251.345 254.63,245.239 250,254.5 248.986,256.529 247,256.771 247,259  Z"/>

<path  fill="#FA8072" stroke-width="0" stroke="#FA8072" d = " M168 256 C168,262.69 166.077,265.347 163,271.5 L163,278.5 C161.399,281.702 153.988,289.477 156,293.5 158.145,297.791 160.493,302.993 164,306.5 L170,310.5 L168.5,316 C159.56,316 158.522,313.011 150.5,309 148.333,307.917 149.841,300 146,300 146,300 145,288.5 145,288.5 149.701,279.098 152.409,267.091 160.5,259 163.217,256.283 163.97,250 168,250 168,250 168,253 168,253 168,253 168,256 168,256  Z"/>

<path  fill="#FA8072" stroke-width="0" stroke="#FA8072" d = " M169 253 L169,256 C169,258.568 171.288,260.925 173,257.5 174.69,254.12 169,246.148 169,253  Z"/>

<path  fill="#00FFFF" stroke-width="0" stroke="#00FFFF" d = " M440 250 C440,252.871 436.87,251.315 435.5,252 432.548,253.476 417.396,263.448 426.5,268 432.109,270.805 431.426,263.037 433.5,262 L435.5,263 L436.5,260 C437.829,260 440.725,262.051 442,259.5 443.275,256.95 445.044,250 440,250  Z"/>

<path  fill="#9953FF" stroke-width="0" stroke="#9953FF" d = " M222 252 L227,252 C227,250.434 222,250.434 222,252  Z"/>

<path  fill="#9953FF" stroke-width="0" stroke="#9953FF" d = " M261 253 L265,253 C265,251.491 261,250.289 261,253  Z"/>

<path  fill="#FAF4F7" stroke-width="0" stroke="#FAF4F7" d = " M225 265 L226,265 C231.996,265 231,260.498 231,257 231,255.438 228.811,252 227,252 227,252 222,252 222,252 222,252 221,253 221,253 221,253 219,255 219,255 219,255 219,256 219,256 219,259.624 220.493,265 225,265  Z"/>

<path  fill="#9953FF" stroke-width="0" stroke="#9953FF" d = " M221 253 C219.253,253 219,253.253 219,255 219,255 221,253 221,253  Z"/>

<path  fill="#9953FF" stroke-width="0" stroke="#9953FF" d = " M261 253 L260,254 C260,254 261,253 261,253  Z"/>

<path  fill="#FAF4F7" stroke-width="0" stroke="#FAF4F7" d = " M258 256 C258,257.048 258.473,259 257,259 257,265.896 265.109,268.282 268,262.5 270.124,258.253 267,257.431 267,254 267,254 265,253 265,253 265,253 261,253 261,253 261,253 260,254 260,254 260,254 258,256 258,256  Z"/>

<path  fill="#9953FF" stroke-width="0" stroke="#9953FF" d = " M258 256 C256.527,256 257,257.952 257,259 258.473,259 258,257.048 258,256  Z"/>

<path  fill="#FA8072" stroke-width="0" stroke="#FA8072" d = " M341 308 L340,309 C335.458,309 323.788,317.076 322,313.5 320.722,310.945 324,308.984 324,307 329.531,307 330,293.317 330,287 330,287 330,286 330,286 330,286 323,275 323,275 323,273.23 317.177,259.161 319.5,258 319.5,258 322.5,259 322.5,259 322.5,259 325.5,256 325.5,256 328.062,257.281 327.323,265 331,265 334.247,265 335.001,273.502 336,275.5 341.221,285.941 342,293.295 342,305 340.527,305 341,306.952 341,308  Z"/>

<path  fill="#FFFF00" stroke-width="0" stroke="#FFFF00" d = " M50 261 C50,262.943 48,264.375 48,265.5 48,267.628 51.5471,267.524 52.5,268 57.091,270.295 67.3275,261 55.5,261 L50,261  Z"/>

<path  fill="#00FFFF" stroke-width="0" stroke="#00FFFF" d = " M423 261 C423,264.746 425.091,261 423,261  Z"/>

<path  fill="#B31C35" stroke-width="0" stroke="#B31C35" d = " M225 265 L226,265 C226,266.186 225,266.186 225,265  Z"/>

<path  fill="#5BF1FF" stroke-width="0" stroke="#5BF1FF" d = " M330 287 C330,293.317 329.531,307 324,307 312.458,307 315.609,293.718 312,286.5 312,286.5 308,283.5 308,283.5 307.593,282.687 306.987,278 305.5,278 304.385,278 302.189,278.878 301,276.5 299.72,273.939 302.301,270.1 304.5,269 318.053,262.223 316.248,275 323,275 323,275 330,286 330,286 328.814,286 328.814,287 330,287  Z"/>

<path  fill="#46A515" stroke-width="0" stroke="#46A515" d = " M68 274 L66,277.5 C67.5691,280.638 80.3336,282.833 82,279.5 L79.5,277 L77.5,280 C76.9949,280 76.9929,274.746 75.5,274 L68,274  Z"/>

<path  fill="#00B03F" stroke-width="0" stroke="#00B03F" d = " M200 276 L193.5,282 C192.919,282.29 190.631,286.869 189.5,288 188.716,288.784 185.203,291.851 187.5,293 L190.5,290 C191.918,289.291 206.84,276 200,276  Z"/>

<path  fill="#46A515" stroke-width="0" stroke="#46A515" d = " M443 279 L441,282.5 C445.446,291.393 450.235,279 443,279  Z"/>

<path  fill="#00FFFF" stroke-width="0" stroke="#00FFFF" d = " M406 283 L405,284 C405,284 406,283 406,283  Z"/>

<path  fill-rule="evenodd" fill="#46A515" stroke-width="0" stroke="#46A515" d = " M364 344 L367.5,346 L368.5,349 C371.849,350.675 382.637,348.226 384,345.5 384.768,343.963 378.341,343.58 377.5,344 375.45,345.025 374.005,345 371.5,345 L364,344  M397 308 C397,314.447 398.39,308 397,308  M399 306 C399,308.091 402.746,306 399,306  M386 286 C386,290.086 368.258,290.016 372,297.5 373.608,300.716 382.789,314.356 387.5,312 L394.5,310 C396.045,310 394.257,317.987 394,318.5 392.163,322.175 389.664,321.418 386.5,323 383.329,324.586 384.466,329 380.5,329 L375.5,326 C368.37,322.435 342.643,325.143 355,337.5 L361.5,343 L361.5,350 C378.939,358.72 399.569,344.362 407,329.5 410.633,322.234 399.661,321.58 396.5,320 L397.5,315 C401.079,313.211 400.856,318.822 402.5,318 L403,310.5 L406,307.5 C408.414,302.672 395.617,288.058 391.5,286 L386,286  Z"/>

<path  fill="#46A515" stroke-width="0" stroke="#46A515" d = " M102 288 C102,295.26 109.754,288 102,288  Z"/>

<path  fill="#46A515" stroke-width="0" stroke="#46A515" d = " M108 291 C108,296.869 115.381,291 108,291  Z"/>

<path  fill="#00B03F" stroke-width="0" stroke="#00B03F" d = " M185 294 C185,294.456 175.672,299.086 179.5,301 181.548,302.024 187.911,294 185,294  Z"/>

<path  fill="#46A515" stroke-width="0" stroke="#46A515" d = " M85 305 C85,309.335 75.8136,316.127 81,326.5 84.026,332.552 83.4772,340.489 90.5,344 L91.5,346 C93.2362,346 91,342.088 91,342 91,339.464 92,338.085 92,336.5 92,335.812 97,331.278 97,329.5 97,326.595 94.2586,330.017 94,329.5 93.4083,328.317 91.7286,322 90.5,322 89.3135,322 90.8716,327 88.5,327 L86,324.5 C86,318.785 83,318.608 83,315.5 L87,310.5 C87.7586,308.983 86.9632,305 85,305  Z"/>

<path  fill="#9953FF" stroke-width="0" stroke="#9953FF" d = " M342 305 C340.527,305 341,306.952 341,308 342.473,308 342,306.048 342,305  Z"/>

<path  fill="#9953FF" stroke-width="0" stroke="#9953FF" d = " M341 308 L340,309 C340,309 341,308 341,308  Z"/>

<path  fill="#46A515" stroke-width="0" stroke="#46A515" d = " M91 312 L89,315 C89,318.952 98.407,318.907 93,313.5 L91,312  Z"/>

<path  fill="#46A515" stroke-width="0" stroke="#46A515" d = " M91 319 C91,324.567 93.1115,319 91,319  Z"/>

<path  fill="#46A515" stroke-width="0" stroke="#46A515" d = " M116 332 C116,333.602 112.942,334.384 114,336.5 116.76,342.021 123.722,333.611 120.5,332 L116,332  Z"/>

<path  fill="#46A515" stroke-width="0" stroke="#46A515" d = " M120 340 L115,342.5 L119,344.5 C120.892,348.284 111.608,347.446 110.5,348 L107.5,351 C105.072,352.214 99.4484,348.974 97.5,348 96.598,347.549 94.2944,348.089 95,349.5 95.8751,351.25 99.9927,351.246 101.5,352 L105.5,356 C111.209,358.854 126.7,353.4 131.5,351 133.213,350.144 140.124,342.812 136.5,341 134.252,339.876 132.101,345.301 129.5,344 125.362,341.931 125.146,340 120,340  Z"/>

<path  fill="#FF3427" stroke-width="0" stroke="#FF3427" d = " M239 342 L225.5,340 L218,344 C218,355.702 239,354.283 239,342  Z"/>

<path  fill="#FF3427" stroke-width="0" stroke="#FF3427" d = " M270 342 C275.184,342 268.543,348.979 266.5,350 261.271,352.615 251.656,351.812 249,346.5 L250,343 C250,340.249 253.726,343.387 254.5,343 258.848,340.826 266.025,342 270,342  Z"/>

</g>
</svg>
