<svg xmlns="http://www.w3.org/2000/svg" xmlns:xlink="http://www.w3.org/1999/xlink" height="512" width="512">
<g>
<rect width="512" height="512" fill="#000000"  stroke-width="0" /> 
<path  fill-rule="evenodd" fill="#FA8072" stroke-width="0" stroke="#FA8072" d = " M336 380 C336,383.746 338.091,380 336,380  M329 378 L329.5,384 C333.824,384 333.158,378 329,378  M328 353 C328,363.468 323.536,389.018 333.5,394 337.966,396.233 334.793,388 336.5,388 339.082,388 337.309,396.117 338,397.5 L340.5,396 C342.694,397.097 344.253,400.624 347.5,399 354.042,395.729 349.885,391.271 348,387.5 347.08,385.659 351.37,381.935 347.5,380 340.354,376.427 342.351,391.202 341,388.5 338.721,383.943 340,375.891 340,370.5 L339.5,365 L338.5,371 L335.5,360 C333.022,358.761 332.011,362 330.5,362 328.539,362 332.244,353 328,353  Z"/>

<path  fill="#FA8072" stroke-width="0" stroke="#FA8072" d = " M129 384 L125,388.5 C123.69,391.121 128.879,396.31 131.5,395 137.864,391.818 136.521,384 129,384  Z"/>

<path  fill="#FA8072" stroke-width="0" stroke="#FA8072" d = " M149 385 C149,387.76 140.872,385.756 139,389.5 135.868,395.764 143,398.038 143,399.5 143,401.186 140.339,403.42 143.5,405 148.287,407.393 146,400.275 146,399.5 L150,396.5 C151.603,393.295 159.862,385 149,385  Z"/>

</g>
</svg>
