<svg xmlns="http://www.w3.org/2000/svg" xmlns:xlink="http://www.w3.org/1999/xlink" height="512" width="512">
<g>
<rect width="512" height="512" fill="#000000"  stroke-width="0" /> 
<path  fill-rule="evenodd" fill="#03C12D" stroke-width="0" stroke="#03C12D" d = " M186 169 C186,171.415 179,168.866 179,170.5 179,172.424 171.491,174.505 168.5,176 160.062,180.219 157.942,185.616 154,193.5 L150,195.5 C150,197.299 150.05,206.599 151,208.5 153.11,212.721 162.676,221.412 169.5,218 172.153,216.674 175.956,218.272 178.5,217 179.925,216.287 180.329,212.414 183.5,214 L187.5,218 L195.5,217 C197.704,218.102 198.002,224 201.5,224 206.188,224 208.504,222 212.5,222 216.179,222 213,208.716 213,207.5 213,206.501 214.81,205.119 214,203.5 211.997,199.494 204.076,171.288 201.5,170 L186,169  M288 165 C288,169.149 282,172.039 282,176.5 282,182.13 279.98,199.54 277,205.5 L278,210.5 C277.12,212.259 274.969,219.437 275,219.5 276.271,222.042 289.566,219.967 291.5,219 L295.5,215 C298.558,213.471 324.655,217.422 327.5,216 329.948,214.776 335.588,214.323 337,211.5 337.342,210.816 339.113,205.193 339.5,205 344.609,202.446 339,203.527 339,199.5 339,194.812 342.058,200.616 338,192.5 335.944,188.387 336.884,181.692 331.5,179 328.222,177.361 324.666,176.583 321.5,175 L319.5,172 C317.203,170.852 315.437,172.968 313.5,172 L311.5,169 L307.5,169 C298.012,164.256 298.366,165 288,165  M131 277 L130,278 C130,278 118.5,278 118.5,278 105.093,271.296 103.771,256.042 98,244.5 98,244.5 95,241.5 95,241.5 95,241.5 96,238.5 96,238.5 96,238.5 91,232.5 91,232.5 91,232.5 92,223.5 92,223.5 88.8589,217.218 90.4692,212.438 87,205.5 84.2517,200.003 90.0214,198.543 87,192.5 85.4768,189.454 89.7367,181.027 91,178.5 91,178.5 91,172.5 91,172.5 92.5457,169.409 92.5188,165.462 94,162.5 94,162.5 98,160.5 98,160.5 98,160.5 97,154.5 97,154.5 97,154.5 102,150.5 102,150.5 102,150.5 103.5,147 103.5,147 103.5,147 108.5,147 108.5,147 109.891,146.305 115.949,135.276 120.5,133 120.5,133 124.5,134 124.5,134 124.5,134 128.5,129 128.5,129 134.429,126.036 140.468,123.016 146.5,120 148.437,119.032 150.203,121.148 152.5,120 160.633,115.934 170.374,116.063 178.5,112 178.5,112 189.5,111 189.5,111 189.5,111 193.5,107 193.5,107 193.5,107 217.5,105 217.5,105 217.5,105 220.5,108 220.5,108 224.692,110.096 230.201,109.851 234.5,112 234.5,112 243.5,121 243.5,121 245.978,122.239 244.574,116.352 245,115.5 245,115.5 249.5,111 249.5,111 249.5,111 253.5,111 253.5,111 253.5,111 258.5,106 258.5,106 261.652,104.424 265.245,104.628 268.5,103 271.58,101.46 276.309,103.595 279.5,102 280.995,101.252 282.453,102.477 283.5,103 283.5,103 296.5,104 296.5,104 296.5,104 301.5,109 301.5,109 303.818,110.159 315.849,110.674 320.5,113 323.52,114.51 338.602,116.551 341.5,118 345.965,120.233 351.134,120.817 355.5,123 355.5,123 368.5,132 368.5,132 375.333,135.416 382.733,133.966 387,142.5 392.702,153.905 395.084,165.668 401,177.5 401.705,178.91 400,190.728 400,194 400,196.947 406.338,201.825 405,204.5 402.414,209.672 404.223,219.053 402,223.5 400.641,226.217 398.676,230.149 397,233.5 396.677,234.146 397.052,242.397 396,244.5 396,244.5 390,250.5 390,250.5 387.26,255.981 384.774,261.952 382,267.5 382,267.5 376,270.5 376,270.5 374.128,274.245 372.562,275.969 368.5,278 366.126,279.187 364.52,274.51 363.5,274 363.5,274 358,274 358,274 356.762,274 355,273.577 355,272 355,272 354,271 354,271 351.325,271 348.078,268 345,268 345,268 344,267 344,267 339.136,267 334.602,264.051 330.5,262 327.88,260.69 325.492,265.496 322.5,264 320.388,262.944 317.505,264.003 315.5,263 315.5,263 313.5,261 313.5,261 313.5,261 307.5,266 307.5,266 307.059,266 300,265.649 300,268 300,268 297,269 297,269 297,269 295,267.5 295,267.5 295,267.5 297,265.5 297,265.5 297,265.5 294,263.5 294,263.5 292.983,261.466 294,259.983 294,258.5 294,258.5 291.5,257 291.5,257 289.118,255.809 290.827,254.155 290,252.5 289.825,252.15 278.486,248 277,248 277,248 277,247 277,247 277,245.398 280.058,244.616 279,242.5 277.898,240.295 273,238.366 273,243 266.099,243 239.748,249.124 235.5,247 229.335,243.918 222.465,242 215,242 215,238.099 210,238.889 210,245 210,245 207,247 207,247 207,250.511 195,250.877 195,257 195,257 194,258 194,258 194,260.161 191,262.453 191,267 191,267 191,268 191,268 191,268 190,268 190,268 185.406,268 175.262,270.381 170.5,268 168.646,267.073 161.386,262.057 159.5,263 157.219,264.141 159.03,267.235 157.5,268 156.181,268.659 156.108,267.196 154.5,268 151.198,269.651 137,269.674 137,273 137,273 136,274 136,274 136,276.393 132.766,277 131,277  Z"/>

<path  fill="#FF6E00" stroke-width="0" stroke="#FF6E00" d = " M288 165 C288,169.149 282,172.039 282,176.5 282,182.13 279.98,199.54 277,205.5 L278,210.5 C277.12,212.259 274.969,219.437 275,219.5 276.271,222.042 289.566,219.967 291.5,219 L295.5,215 C298.558,213.471 324.655,217.422 327.5,216 329.948,214.776 335.588,214.323 337,211.5 337.342,210.816 339.113,205.193 339.5,205 344.609,202.446 339,203.527 339,199.5 339,194.812 342.058,200.616 338,192.5 335.944,188.387 336.884,181.692 331.5,179 328.222,177.361 324.666,176.583 321.5,175 L319.5,172 C317.203,170.852 315.437,172.968 313.5,172 L311.5,169 L307.5,169 C298.012,164.256 298.366,165 288,165  Z"/>

<path  fill-rule="evenodd" fill="#FF6E00" stroke-width="0" stroke="#FF6E00" d = " M175 213 C175,215.112 180.567,213 175,213  M186 169 C186,171.415 179,168.866 179,170.5 179,172.424 171.491,174.505 168.5,176 160.062,180.219 157.942,185.616 154,193.5 L150,195.5 C150,197.299 150.05,206.599 151,208.5 153.11,212.721 162.676,221.412 169.5,218 172.153,216.674 175.956,218.272 178.5,217 179.925,216.287 180.329,212.414 183.5,214 L187.5,218 L195.5,217 C197.704,218.102 198.002,224 201.5,224 206.188,224 208.504,222 212.5,222 216.179,222 213,208.716 213,207.5 213,206.501 214.81,205.119 214,203.5 211.997,199.494 204.076,171.288 201.5,170 L186,169  Z"/>

<path  fill="#022CFF" stroke-width="0" stroke="#022CFF" d = " M215 251 L216,251 C216,251 215,242 215,242 215,238.099 210,238.889 210,245 210,245 215,251 215,251  Z"/>

<path  fill="#022CFF" stroke-width="0" stroke="#022CFF" d = " M275 249 L273,250 C270.232,250 273,243.759 273,243 273,238.366 277.898,240.295 279,242.5 280.058,244.616 277,245.398 277,247 277,247 276,248 276,248 276,248 275,249 275,249  Z"/>

<path  fill-rule="evenodd" fill="#E1F00D" stroke-width="0" stroke="#E1F00D" d = " M245 251 L243,253.5 C242.342,254.815 243.18,260.16 245.5,259 246.714,258.393 246.365,251 245,251  M168 312 C168,316.751 176.368,319.434 179.5,321 197.118,329.809 202.864,331.318 221.5,322 224.106,320.697 238.73,291.041 241,286.5 241.834,284.831 243.708,272 245.5,272 246.564,272 247,276.049 247,277 247,279.089 248.967,286.435 250,288.5 L256,294.5 C257.677,297.854 258.304,302.109 260,305.5 261.568,308.635 265.773,308.045 267,310.5 L267,314.5 L272,321.5 C277.981,333.461 316,325.601 316,315 311.996,315 316.346,312.423 313.5,311 313.5,311 308.5,310 308.5,310 304.862,308.181 301.353,299.426 296.5,297 290.543,294.022 276,294.747 276,286 276,282.02 267,278.223 267,275 267,275 267,272 267,272 267,264.562 273,257.697 273,250 270.232,250 273,243.759 273,243 266.099,243 239.748,249.124 235.5,247 229.335,243.918 222.465,242 215,242 215,242 216,251 216,251 216,251 218,256 218,256 219.473,256 219,257.952 219,259 219,260.056 224.562,266 223,266 223,266 224,270 224,270 226.206,270 222.404,279.048 220.5,280 217.059,281.72 222.213,280.074 221,282.5 219.421,285.658 213.241,287.629 210.5,289 210.5,289 207.5,292 207.5,292 206.269,292 204.194,290 202,290 202,290 201,290 201,290 201,297.589 192.849,294.826 188.5,297 188.5,297 187.5,300 187.5,300 181.924,302.788 175.288,303.924 172,310.5 171.251,311.998 168,309.795 168,312  Z"/>

<path  fill="#814FFF" stroke-width="0" stroke="#814FFF" d = " M201 288 L202,290 C204.194,290 206.269,292 207.5,292 207.5,292 210.5,289 210.5,289 213.241,287.629 219.421,285.658 221,282.5 222.213,280.074 217.059,281.72 220.5,280 222.404,279.048 226.206,270 224,270 220.584,270 219.846,266 223,266 224.562,266 219,260.056 219,259 217.527,259 218,257.048 218,256 218,256 216,251 216,251 216,251 215,251 215,251 212.253,251 210.44,247 207,247 207,250.511 195,250.877 195,257 195,257 194,258 194,258 194,260.161 191,262.453 191,267 191,267 192,268 192,268 195.611,268 194.764,269.027 196,271.5 197.647,274.794 202.381,278.737 200,283.5 200,283.5 198,287 198,287 198,287 201,288 201,288  Z"/>

<path  fill="#814FFF" stroke-width="0" stroke="#814FFF" d = " M290 287 L284,288 C280.646,288 278.709,286 276,286 276,282.02 267,278.223 267,275 272.393,275 272.393,272 267,272 267,264.562 273,257.697 273,250 273,250 275,249 275,249 275,249 276,248 276,248 276,248 277,248 277,248 278.486,248 289.825,252.15 290,252.5 290.827,254.155 289.118,255.809 291.5,257 291.5,257 294,258.5 294,258.5 294,259.983 292.983,261.466 294,263.5 294,263.5 297,265.5 297,265.5 297,265.5 295,267.5 295,267.5 295,267.5 297,269 297,269 297,269 295.5,271 295.5,271 293.193,272.153 291.875,268.75 290,272.5 288.103,276.295 287.223,286 293,286 293,287.473 291.048,287 290,287  Z"/>

<path  fill="#FF8700" stroke-width="0" stroke="#FF8700" d = " M290 287 C290,290.024 284,289.547 284,288 280.646,288 278.709,286 276,286 276,294.747 290.543,294.022 296.5,297 301.353,299.426 304.862,308.181 308.5,310 308.5,310 313.5,311 313.5,311 316.346,312.423 311.996,315 316,315 320.05,315 320.961,311.269 323.5,310 328.926,307.287 335.012,305.744 340.5,303 343.868,301.316 346.599,296.95 350.5,295 354.06,293.22 365.094,289.312 367,285.5 370.373,278.754 358,279.182 358,274 356.762,274 355,273.577 355,272 355,272 354,271 354,271 351.325,271 348.078,268 345,268 345,268 344,267 344,267 339.136,267 334.602,264.051 330.5,262 327.88,260.69 325.492,265.496 322.5,264 320.388,262.944 317.505,264.003 315.5,263 315.5,263 313.5,261 313.5,261 313.5,261 307.5,266 307.5,266 307.059,266 300,265.649 300,268 300,268 303,269 303,269 303,269 304,270 304,270 304,274.519 297.733,286 293,286 293,287.473 291.048,287 290,287  Z"/>

<path  fill="#FF8700" stroke-width="0" stroke="#FF8700" d = " M201 290 C201,297.589 192.849,294.826 188.5,297 L187.5,300 C181.924,302.788 175.288,303.924 172,310.5 171.251,311.998 168,309.795 168,312 165.281,312 152.712,307.606 149.5,306 149.5,306 145.5,301 145.5,301 145.5,301 139.5,302 139.5,302 138.037,301.269 136.714,297.107 136.5,297 134.049,295.775 124.277,291.055 123,288.5 119.165,280.83 130,282.241 130,278 130,278 131,277 131,277 132.766,277 136,276.393 136,274 136,274 137,273 137,273 137,269.674 151.198,269.651 154.5,268 156.108,267.196 156.181,268.659 157.5,268 159.03,267.235 157.219,264.141 159.5,263 161.386,262.057 168.646,267.073 170.5,268 175.262,270.381 185.406,268 190,268 190,270.909 183.54,279.02 187.5,281 187.5,281 192.5,282 192.5,282 192.5,282 198,287 198,287 198,287 201,288 201,288 201,288 201,290 201,290  Z"/>

<path  fill="#FF8700" stroke-width="0" stroke="#FF8700" d = " M191 268 L192,268 C192,268 191,267 191,267 191,267 191,268 191,268  Z"/>

<path  fill="#7CFC00" stroke-width="0" stroke="#7CFC00" d = " M192 268 C195.611,268 194.764,269.027 196,271.5 197.647,274.794 202.381,278.737 200,283.5 L198,287 C198,287 192.5,282 192.5,282 192.5,282 187.5,281 187.5,281 183.54,279.02 190,270.909 190,268 190,268 191,268 191,268 191,268 192,268 192,268  Z"/>

<path  fill="#7CFC00" stroke-width="0" stroke="#7CFC00" d = " M304 270 C304,274.519 297.733,286 293,286 287.223,286 288.103,276.295 290,272.5 291.875,268.75 293.193,272.153 295.5,271 295.5,271 297,269 297,269 297,269 300,268 300,268 300,268 303,269 303,269 303,269 304,270 304,270  Z"/>

<path  fill="#03C12D" stroke-width="0" stroke="#03C12D" d = " M303 269 L304,270 C304,270 303,269 303,269  Z"/>

<path  fill="#267EFF" stroke-width="0" stroke="#267EFF" d = " M232 317 L226,320.5 C224.632,323.236 226.761,327.13 228.5,328 229.356,328.428 227.384,329.942 229.5,331 235.804,334.152 244.452,317 232,317  Z"/>

<path  fill="#267EFF" stroke-width="0" stroke="#267EFF" d = " M259 319 C259,321.503 252.343,323.186 254,326.5 L258,328.5 C258,333.951 270,331.11 270,327.5 L268,326.5 C268,322.023 264.965,319 259,319  Z"/>

<path  fill="#FA8072" stroke-width="0" stroke="#FA8072" d = " M188 330 C188,333.183 182.319,332.862 181,335.5 179.225,339.051 180.905,351 185.5,351 188.586,351 187.226,343.047 188,341.5 189.348,338.804 198.599,330 188,330  Z"/>

<path  fill="#FA8072" stroke-width="0" stroke="#FA8072" d = " M304 330 C304,335.349 298.112,331.277 296,335.5 L297,339.5 L296,342.5 C299.55,349.6 300.966,343 302.5,343 L303.5,347 C309.422,347 308,348.544 308,354 L309,358.5 C305.868,364.765 302.027,359.236 298.5,361 295.847,362.326 294.789,364.856 292.5,366 289.964,367.268 285.039,360.422 281,368.5 279.102,372.297 284,375.146 284,376.5 L281,379.5 C278.008,385.484 282.199,392.85 286.5,395 289.113,396.307 292.182,391 294.5,391 L298.5,394 C299.799,394.65 305,392.08 305,390.5 L303,388.5 C300.467,385.967 303.879,383.743 305,381.5 305.283,380.934 313.264,381.972 315,378.5 316.571,375.359 318.902,363.304 317,359.5 L315,355.5 L313,354.5 C313,351.756 318.13,348.759 316,344.5 315.002,342.505 310.435,345.371 309,342.5 306.714,337.929 312.02,330 304,330  Z"/>

<path  fill="#FA8072" stroke-width="0" stroke="#FA8072" d = " M182 366 C182,368.437 174.418,370.336 177,375.5 179.437,380.374 184.03,377.561 186,381.5 L186,386.5 C186.691,387.883 189.489,385.479 191,388.5 195.506,397.513 203.512,401.994 213.5,397 217.684,394.908 217.208,373.354 212.5,371 211.528,370.514 205.312,368.594 204.5,369 L198.5,374 C195.757,372.629 184.112,366 182,366  Z"/>

<path  fill="#FA8072" stroke-width="0" stroke="#FA8072" d = " M175 384 C175,385.536 169.399,387.299 171,390.5 172.683,393.866 179.434,396.533 182.5,395 184.267,394.117 183.449,384.475 182.5,384 181.469,383.485 176.674,384 175,384  Z"/>

<path  fill="#FA8072" stroke-width="0" stroke="#FA8072" d = " M186 388 C186,394.447 187.39,388 186,388  Z"/>

</g>
</svg>
