<svg xmlns="http://www.w3.org/2000/svg" xmlns:xlink="http://www.w3.org/1999/xlink" height="512" width="512">
<g>
<rect width="512" height="512" fill="#000000"  stroke-width="0" /> 
<path  fill-rule="evenodd" fill="#86FF5A" stroke-width="0" stroke="#86FF5A" d = " M228 290 C228,293.201 225.304,291 224.5,291 224.21,291 211.891,294.305 210.5,295 200.948,299.776 197.701,304.098 193,313.5 192.077,315.345 194,341.541 194,343.5 194,343.798 200.231,350.962 201,352.5 207.838,366.176 218.143,375 236.5,375 239.641,375 241.707,367.103 245.5,369 248.314,370.407 248.561,374.53 251.5,376 259.183,379.842 281.246,366.009 284,360.5 285.562,357.375 286.638,354.223 288,351.5 L292,346.5 L293.5,343 C296.352,343 299.854,309.177 291.5,305 L287,301.5 L285.5,298 C281.523,298 273.066,294.283 268.5,292 L264.5,292 C258.395,288.947 251.443,293 245.5,293 242.403,293 233.692,293.596 230.5,292 L228,290  M244 329 L245,329 C245,333.561 253.257,329.013 251,324.5 249.031,320.562 245.795,325.148 243.5,324 240.88,322.69 241.535,320.482 238.5,322 231.165,325.668 244,332.443 244,329  Z"/>

<path  fill="#EB57FF" stroke-width="0" stroke="#EB57FF" d = " M244 329 C242.756,329 242.459,326.521 243.5,326 245.046,325.227 247.387,329 245,329 245,333.561 253.257,329.013 251,324.5 249.031,320.562 245.795,325.148 243.5,324 240.88,322.69 241.535,320.482 238.5,322 231.165,325.668 244,332.443 244,329  Z"/>

<path  fill="#27F4FD" stroke-width="0" stroke="#27F4FD" d = " M244 329 L245,329 C247.387,329 245.046,325.227 243.5,326 242.459,326.521 242.756,329 244,329  Z"/>

</g>
</svg>
