<svg xmlns="http://www.w3.org/2000/svg" xmlns:xlink="http://www.w3.org/1999/xlink" height="512" width="512">
<g>
<rect width="512" height="512" fill="#000000"  stroke-width="0" /> 
<path  fill="#FFE300" stroke-width="0" stroke="#FFE300" d = " M249 155 C257.087,155 271.169,150.837 276,160.5 277.722,163.944 276.086,166.672 278,170.5 279.683,173.865 277.383,183.734 276,186.5 271.866,194.769 280.758,212 266,212 266,212.448 273.484,218.533 275,215.5 279.477,206.547 275.53,193.44 280,184.5 282.096,180.307 279.222,172 284.5,172 286.562,172 283,168.062 283,166 283,163.76 287.399,164.297 286,161.5 282.595,154.69 265.775,146.863 257.5,151 255.967,151.767 249,152.971 249,155  Z"/>

<path  fill="#FFE300" stroke-width="0" stroke="#FFE300" d = " M234 154 C224.165,154 214.344,155.812 210,164.5 L209,175.5 C207.76,177.98 207,177.937 207,181 201.447,181 203.581,172.663 202,169.5 201.16,167.82 197.865,164.771 199,162.5 202.808,154.885 214.527,153.987 220.5,151 222.994,149.753 234,151.628 234,154  Z"/>

<path  fill="#FF8700" stroke-width="0" stroke="#FF8700" d = " M207 181 L207,184 C211.176,184 208.708,197.917 210,200.5 214.3,209.1 221.798,206.351 228.5,203 228.5,203 229,197.5 229,197.5 233.133,189.234 241,182.42 241,172.5 241,167.726 238,160.299 238,159.5 238,158.88 238.416,157 239,157 239,155.423 237.238,155 236,155 236,155 235,154 235,154 235,154 234,154 234,154 224.165,154 214.344,155.812 210,164.5 210,164.5 209,175.5 209,175.5 207.76,177.98 207,177.937 207,181  Z"/>

<path  fill="#FFE300" stroke-width="0" stroke="#FFE300" d = " M235 154 L236,155 C236,155 235,154 235,154  Z"/>

<path  fill="#FF8700" stroke-width="0" stroke="#FF8700" d = " M263 210 C263,211.577 264.762,212 266,212 280.758,212 271.866,194.769 276,186.5 277.383,183.734 279.683,173.865 278,170.5 276.086,166.672 277.722,163.944 276,160.5 271.169,150.837 257.087,155 249,155 249,155 244,161 244,161 244,161 244,163 244,163 244,163 244,174.5 244,174.5 244,174.5 246,174.5 246,174.5 246,174.5 246,178.5 246,178.5 250.07,186.64 254,193.694 254,203.5 254,207.177 263,207.101 263,210  Z"/>

<path  fill="#FFE300" stroke-width="0" stroke="#FFE300" d = " M249 155 L243,157.5 C242.528,158.445 242.844,161 244,161 244,161 249,155 249,155  Z"/>

<path  fill="#FFE300" stroke-width="0" stroke="#FFE300" d = " M207 184 C207,196.048 207.374,198.248 212,207.5 212.035,207.57 206.519,214 210.5,214 L211.5,212 L212.5,214 C214.095,214.798 214.617,211.265 215,210.5 L222.5,210 C226.08,208.21 232.291,204.918 234,201.5 L237,200.5 C237,197.933 238.529,197.442 240,194.5 240.82,192.86 238.229,178 243.5,178 248.487,178 245.368,188.236 246,189.5 250.885,199.271 243.997,210 263,210 263,207.101 254,207.177 254,203.5 254,193.694 250.07,186.64 246,178.5 246,178.5 246,174.5 246,174.5 246,174.5 244,174.5 244,174.5 244,174.5 244,163 244,163 238.787,163 242.8,157 239,157 238.416,157 238,158.88 238,159.5 238,160.299 241,167.726 241,172.5 241,182.42 233.133,189.234 229,197.5 229,197.5 228.5,203 228.5,203 221.798,206.351 214.3,209.1 210,200.5 208.708,197.917 211.176,184 207,184  Z"/>

<path  fill="#FFE300" stroke-width="0" stroke="#FFE300" d = " M270 217 C270,221.284 279.852,217 270,217  Z"/>

<path  fill="#FFE300" stroke-width="0" stroke="#FFE300" d = " M273 220 C273,221.93 274.93,220 273,220  Z"/>

<path  fill-rule="evenodd" fill="#FA8072" stroke-width="0" stroke="#FA8072" d = " M336 378 L335,379.5 C335,385.149 339.36,378 336,378  M327 352 C327,362.398 322.383,354.733 320,359.5 317.688,364.123 325,375.961 325,376.5 L322,378.5 C320.852,380.796 318.922,387.343 320,389.5 328.095,405.69 332.099,392 336.5,392 337.653,392 338.608,398.284 340,395.5 342.211,391.079 337.91,367.321 336,363.5 L336,356.5 C334.413,353.327 330.054,352 327,352  Z"/>

<path  fill="#FA8072" stroke-width="0" stroke="#FA8072" d = " M159 357 L155,360.5 L157,366.5 L152,371.5 C149.744,376.013 153,380.222 153,384.5 L149,388.5 C148.123,390.254 150.948,394.224 152.5,395 155.066,396.283 171.477,398.512 172.5,398 L175.5,394 C184.531,389.484 175,386.514 175,384 175,369.612 176.243,357 159,357  Z"/>

<path  fill="#FA8072" stroke-width="0" stroke="#FA8072" d = " M343 384 L343.5,391 C344.124,391 344.793,384 343,384  Z"/>

</g>
</svg>
