<svg xmlns="http://www.w3.org/2000/svg" xmlns:xlink="http://www.w3.org/1999/xlink" height="512" width="512">
<g>
<rect width="512" height="512" fill="#000000"  stroke-width="0" /> 
<path  fill-rule="evenodd" fill="#86FF5A" stroke-width="0" stroke="#86FF5A" d = " M185 307 C185,314.389 187.111,307 185,307  M240 285 C240,288.265 235.157,291.814 237,295.5 245.13,311.76 254.338,295.175 252,290.5 L249,288.5 C248.244,286.988 251.196,286.348 248.5,285 L240,285  M244 329 C244,330.186 245,330.186 245,329 245,329 248,326.5 248,326.5 248,326.5 248,309.5 248,309.5 247.078,307.656 242.567,310.365 242,311.5 242,311.5 242,320 242,320 242,321.048 241.527,323 243,323 243,323 244,329 244,329  M310 308 L304,315.5 C303.571,316.357 304.075,321 302.5,321 L301.5,318 L301,325.5 C298.45,330.601 288.486,335.507 283.5,338 280.637,339.432 257.051,341.776 253.5,340 251.085,338.792 247.061,333.28 246.5,333 245.538,332.519 239,336.125 239,336.5 L241,337.5 C241,338.614 228.81,340.345 227.5,341 220.082,344.709 194.106,332.712 191,326.5 188.875,322.25 188.323,309 181,309 181,303.224 172.083,296.334 176,288.5 176,288.5 179,279.5 179,279.5 181.503,274.494 187,274.129 187,267 187,267 191.5,264 191.5,264 195.956,261.772 201.962,262.269 206.5,260 210.835,257.832 213.685,263.592 216.5,265 220.109,266.805 222.151,262 224.5,262 228.553,262 231.769,269.635 234.5,271 234.5,271 247.5,271 247.5,271 250.422,269.539 254.688,271.406 257.5,270 260.678,268.411 264.603,264.948 268.5,263 268.5,263 276.5,264 276.5,264 278.61,262.945 277,262.501 277,261.5 277,259.549 283.414,262 283.5,262 283.5,262 285.5,261 285.5,261 285.5,261 285.5,263 285.5,263 290.293,265.396 298.899,267 300.5,267 302.928,267 300.886,271 304,271 304,271 303,275.5 303,275.5 303,275.5 311,284.5 311,284.5 311,284.5 313,290.5 313,290.5 314.296,293.092 310.111,301.279 309,303.5 309,303.5 310,308 310,308  Z"/>

<path  fill="#FA8072" stroke-width="0" stroke="#FA8072" d = " M187 267 C176.925,267 169.372,290.244 173,297.5 174.225,299.95 176.66,309 181,309 181,303.224 172.083,296.334 176,288.5 176,288.5 179,279.5 179,279.5 181.503,274.494 187,274.129 187,267  Z"/>

<path  fill="#FA8072" stroke-width="0" stroke="#FA8072" d = " M304 271 C307.154,271 305.476,273.988 307.5,275 313.968,278.234 320.202,288.095 316,296.5 314.615,299.27 314.846,308 310,308 310,308 309,303.5 309,303.5 310.111,301.279 314.296,293.092 313,290.5 313,290.5 311,284.5 311,284.5 311,284.5 303,275.5 303,275.5 303,275.5 304,271 304,271  Z"/>

<path  fill-rule="evenodd" fill="#EB57FF" stroke-width="0" stroke="#EB57FF" d = " M244 297 C244,303.072 248.238,297 244,297  M240 285 C240,288.265 235.157,291.814 237,295.5 245.13,311.76 254.338,295.175 252,290.5 L249,288.5 C248.244,286.988 251.196,286.348 248.5,285 L240,285  Z"/>

<path  fill="#27F4FD" stroke-width="0" stroke="#27F4FD" d = " M244 297 C244,303.072 248.238,297 244,297  Z"/>

<path  fill="#7209D4" stroke-width="0" stroke="#7209D4" d = " M244 329 L245,329 C245,329 248,326.5 248,326.5 248,326.5 248,309.5 248,309.5 247.078,307.656 242.567,310.365 242,311.5 242,311.5 242,320 242,320 243.473,320 243,321.952 243,323 243,323 244,329 244,329  Z"/>

</g>
</svg>
