<svg xmlns="http://www.w3.org/2000/svg" xmlns:xlink="http://www.w3.org/1999/xlink" height="512" width="512">
<g>
<rect width="512" height="512" fill="#000000"  stroke-width="0" /> 
<path  fill="#FFE300" stroke-width="0" stroke="#FFE300" d = " M253 155 C261.217,155 268.854,152.208 273,160.5 L276,162.5 L276,168.5 C278.444,173.387 278.563,180.374 276,185.5 271.815,193.871 280.715,212 266,212 266,213.079 272.921,216.657 276,210.5 279.292,203.917 275.211,190.078 278,184.5 280.191,180.118 280.76,174.98 283,170.5 283,170.5 285,171.5 285,171.5 285,171.5 283,166 283,166 283,166 285,160.5 285,160.5 282.145,154.789 271.419,152.96 265.5,150 263.559,149.029 253,152.108 253,155  Z"/>

<path  fill="#FFE300" stroke-width="0" stroke="#FFE300" d = " M232 154 C223.859,154 214.538,157.424 211,164.5 L209,176.5 C208.191,178.119 207,177.971 207,180 204.152,180 198.997,164.506 200,162.5 203.336,155.828 213.846,155.327 218.5,153 220.307,152.097 232,150.237 232,154  Z"/>

<path  fill="#FF8700" stroke-width="0" stroke="#FF8700" d = " M207 180 L207,183 C211.176,183 208.708,196.917 210,199.5 215.571,210.641 216.915,202.707 219.5,204 222.622,205.561 223.897,204.802 227.5,203 229.112,202.194 227.025,199.45 228,197.5 228,197.5 232,194.5 232,194.5 234.72,189.061 241,180.229 241,174 241,174 240,161.5 240,161.5 239.924,161.348 235.261,157 238,157 238,154.806 234.07,154 232,154 223.859,154 214.538,157.424 211,164.5 211,164.5 209,176.5 209,176.5 208.191,178.119 207,177.971 207,180  Z"/>

<path  fill="#FF8700" stroke-width="0" stroke="#FF8700" d = " M263 210 L266,212 C280.715,212 271.815,193.871 276,185.5 278.563,180.374 278.444,173.387 276,168.5 276,168.5 276,162.5 276,162.5 276,162.5 273,160.5 273,160.5 268.854,152.208 261.217,155 253,155 253,155 248,157 248,157 248,159.183 244.595,160.31 244,161.5 244,161.5 244,175.5 244,175.5 244,175.5 246,175.5 246,175.5 248.077,179.655 250.585,183.67 253,188.5 255.074,192.648 252.916,199.332 255,203.5 256.363,206.227 263,207.503 263,210  Z"/>

<path  fill="#FFE300" stroke-width="0" stroke="#FFE300" d = " M207 183 C207,186.219 206.374,197.248 207,198.5 208.435,201.371 209,200.97 209,203.5 L213,207.5 C213.532,208.563 210.441,210.971 212.5,212 L215.5,209 C218.171,209 223.28,209.61 226.5,208 228.616,206.942 226.644,205.428 227.5,205 228.588,204.456 236,201.952 236,200.5 236,198.632 237.199,196.15 239.5,195 242.055,193.722 238.267,187.966 239,186.5 L242,181.5 L244.5,179 C249.021,181.26 245.868,188.236 246,188.5 248.178,192.855 248.97,206.235 252.5,208 L259.5,208 C261.119,208.809 260.971,210 263,210 263,207.503 256.363,206.227 255,203.5 252.916,199.332 255.074,192.648 253,188.5 250.585,183.67 248.077,179.655 246,175.5 246,175.5 244,175.5 244,175.5 244,175.5 244,161.5 244,161.5 244.595,160.31 248,159.183 248,157 244.264,157 244.488,157.523 243,160.5 243,160.5 242.5,164 242.5,164 240.242,164 242.287,157 238,157 235.261,157 239.924,161.348 240,161.5 240,161.5 241,174 241,174 241,180.229 234.72,189.061 232,194.5 232,194.5 228,197.5 228,197.5 227.025,199.45 229.112,202.194 227.5,203 223.897,204.802 222.622,205.561 219.5,204 216.915,202.707 215.571,210.641 210,199.5 208.708,196.917 211.176,183 207,183  Z"/>

<path  fill="#FFE300" stroke-width="0" stroke="#FFE300" d = " M210 210 C210,213.746 212.091,210 210,210  Z"/>

<path  fill-rule="evenodd" fill="#FA8072" stroke-width="0" stroke="#FA8072" d = " M336 378 C336,383.567 338.112,378 336,378  M328 352 C328,361.796 321.176,357.147 320,359.5 L321,363 C321,365.59 319.602,369.705 321,372.5 L324,376.5 C322.122,380.256 317.694,385.887 320,390.5 327.498,405.495 332.182,392 336.5,392 337.773,392 338.532,399.436 340,396.5 342.32,391.86 337.967,367.433 336,363.5 L336,356.5 C334.674,353.848 330.546,352 328,352  Z"/>

<path  fill="#FA8072" stroke-width="0" stroke="#FA8072" d = " M161 356 C161,357.154 155.057,358.386 154,360.5 153.291,361.917 157.343,364.815 156,367.5 L152,370.5 C150.203,374.094 151.362,380.224 153,383.5 L149,388.5 L150,391.5 C153.095,397.69 159.261,396 164.5,396 167.982,396 167.965,400.268 172.5,398 L175,394.5 C178.106,388.288 178.106,390.712 175,384.5 169.98,374.459 182.414,366.457 165.5,358 L161,356  Z"/>

<path  fill="#FA8072" stroke-width="0" stroke="#FA8072" d = " M343 383 L343.5,392 C344.09,392 344.854,383 343,383  Z"/>

</g>
</svg>
