<svg xmlns="http://www.w3.org/2000/svg" xmlns:xlink="http://www.w3.org/1999/xlink" height="512" width="512">
<g>
<rect width="512" height="512" fill="#000000"  stroke-width="0" /> 
<path  fill-rule="evenodd" fill="#03C12D" stroke-width="0" stroke="#03C12D" d = " M61 280 C61,282.091 64.7458,280 61,280  M139 346 C130.653,346 116.322,358.411 107.5,354 105.177,352.839 103.221,349.861 101.5,349 89.091,342.795 90.2467,342.993 84,330.5 81.5341,325.568 76.4372,322.374 74,317.5 L73,310.5 L65,298.5 C61.6612,291.822 62.0977,279.695 59,273.5 55.7731,267.046 54.2007,259.901 51,253.5 L48,247.5 C48.4764,246.547 52.0429,247.586 51,245.5 50.2351,243.97 47.1407,245.781 46,243.5 45.5102,242.52 47.8601,227.78 49,225.5 50.3218,222.856 48,218.553 48,216.5 L51,213.5 C52.7637,209.973 51.0042,211.492 53,207.5 55.9111,201.678 51.5571,190.386 55,183.5 56.7072,180.086 56.3326,175.835 58,172.5 63.1886,162.123 65.7986,150.903 71,140.5 73.648,135.204 84.5763,128.924 89,124.5 91.0535,122.446 90.8595,120.781 92,118.5 L102,110.5 L102.5,107 C105.958,105.271 110.552,104 113.5,104 L118.5,100 C123.41,97.545 128.037,96.7317 133.5,94 L136.5,95 C144.637,90.9317 153.677,90.4117 162.5,86 L168.5,86 C175.397,82.5516 182.603,84.9487 188.5,82 194.87,78.815 224.175,83.8374 228.5,86 231.747,87.6237 234.031,88.5307 236.5,91 L239.5,94 C241.123,93.1885 248.847,85.3263 253.5,83 263.588,77.9559 276.778,80 288,80 L304.5,80 C313.158,84.3291 327.861,82.1805 335.5,86 342.684,89.5922 351.869,89.6843 358.5,93 362.51,95.0052 365.92,98.7098 370.5,101 374.151,102.826 378.915,103.208 382.5,105 394.925,111.213 412.413,124.326 419,137.5 424.725,148.95 427.293,162.086 433,173.5 435.289,178.079 433.881,189.261 436,193.5 436.404,194.307 439.047,195.594 441,199.5 444.57,206.639 438.87,219.24 442,225.5 442.036,225.571 438.54,239.421 438,240.5 436.948,242.604 440,243.17 440,244.5 440,246.167 437.745,247.009 437,248.5 436.471,249.558 437.323,260.853 436,263.5 L431.5,269 L429,269.5 C429,271.302 433.313,272.874 432,275.5 428.636,282.228 423,295.01 423,301.5 L416,308.5 C411.309,317.883 405.727,327.045 401,336.5 L392,346.5 L388.5,349 C377.403,354.548 376.884,357.192 364.5,351 363.044,350.272 351,358.078 351,351 354.359,351 359.664,335.173 361,332.5 364.893,324.714 366.335,315.831 370,308.5 372.314,303.871 375.731,300.037 378,295.5 378.84,293.82 377,281.928 377,279 377,279 381,275.5 381,275.5 382.479,272.543 384.45,269.599 386,266.5 386,266.5 390,255 390,255 390,253.765 389.357,250 391,250 391,251.167 390.326,258.087 392.5,257 396.428,255.036 392.438,247.623 394,244.5 395.602,241.296 394.405,219.31 393,216.5 393,216.5 390,214.5 390,214.5 390,214.5 390,208.5 390,208.5 388.67,205.841 387.109,200.718 385,196.5 385,196.5 385,191.5 385,191.5 383.949,189.397 382.164,188.828 381,186.5 381,186.5 380,179.5 380,179.5 378.945,177.39 375.594,177.688 375,176.5 375,176.5 374,170.5 374,170.5 372.652,167.804 372.012,170.756 370.5,170 366.091,167.795 362.696,163.098 358.5,161 358.5,161 358,157.5 358,157.5 356.652,154.803 340.788,146 338.5,146 334.516,146 334.53,139.515 331.5,138 331.5,138 324.5,137 324.5,137 314.491,131.996 303.821,132.66 294.5,128 294.5,128 282.5,127 282.5,127 280.219,125.859 270.988,120.756 268.5,122 264.419,124.04 263.845,134.81 262,138.5 257.911,146.677 251.107,146.697 244.5,150 244.5,150 238,150 238,150 230.466,150 222.699,145.897 219,138.5 217.355,135.211 216.434,127.967 212.5,126 209.37,124.435 202.921,127.79 200.5,129 196.852,130.824 191.102,129.199 187.5,131 180.612,134.444 174.44,135.53 167.5,139 167.5,139 160.5,139 160.5,139 153.754,142.373 148.713,146.394 141.5,150 136.869,152.315 135.014,156.743 130.5,159 126.947,160.777 123.776,170 119,170 117.814,170 117.814,171 119,171 119,173.405 110,181.186 110,185 110,185 109,187 109,187 109,187 108,188 108,188 108,191.209 105,195.198 105,199 105,199 104,200 104,200 104,200 100,203.5 100,203.5 98.7482,206.004 98,215.695 98,219 96.5271,219 97,220.952 97,222 97,222 95,226.5 95,226.5 95,226.5 94,246 94,246 91.7392,246 93.7031,252.094 93,253.5 89.6412,260.218 97.8469,269 102,269 102,271.204 108.259,278 111,278 111,278 108,281.5 108,281.5 108,281.5 111.5,284 111.5,284 114.813,287.313 116.155,289.809 118,293.5 118,293.5 117,309.5 117,309.5 117,309.5 123,321.5 123,321.5 125.69,326.88 139,341.268 139,346  Z"/>

<path  fill="#FF6E00" stroke-width="0" stroke="#FF6E00" d = " M94 246 C94,248.821 98,266.342 98,257 98,235.109 98.3538,224.792 108,205.5 109.626,202.249 109.643,199.857 112,197.5 114.954,194.546 113.023,186 119,186 119,186 120,184 120,184 120,182.41 124.386,182.557 125.5,182 132.167,178.667 131.677,170 141,170 141,166.977 148.634,163.933 152.5,162 152.5,162 155,157.5 155,157.5 156.256,154.988 168.831,148 172,148 176.646,148 183.465,145.017 187.5,143 193.705,139.898 201.615,146 207,146 207,146 208,148 208,148 213.081,148 215.944,155 220,155 220,155 221,156 221,156 221,156 225,157 225,157 226.465,157 229,156.891 229,159 229,159 232,160 232,160 232,160 234,161 234,161 234,161 239,162 239,162 243.656,162 246.78,160 251,160 251,160 252,159 252,159 252,159 253,159 253,159 253,159 254,158 254,158 254,158 255,158 255,158 255,158 257,157 257,157 257,157 259,156 259,156 259,156 260,155 260,155 260,155 262,154 262,154 262,154 264,153 264,153 264,153 267,151 267,151 267,151 268,150 268,150 268,150 269,149 269,149 269,149 270,148 270,148 270,145.823 274.336,144 276,144 276,142.423 277.762,142 279,142 281.27,142 282.627,139.936 284.5,139 284.5,139 299.5,139 299.5,139 299.5,139 308,143 308,143 308,143 310,144 310,144 310,144 314,146 314,146 314,146 313,143.5 313,143.5 313,143.5 318,143.5 318,143.5 319.353,146.205 332,153.924 332,157 333.465,157 336,156.891 336,159 336,161.348 341,164.01 341,166 343.289,166 351,166.965 351,170 351,170 352,170 352,170 353.984,170 358,168.406 358,172 361.042,172 361.173,177 365,177 365,177 366,179 366,179 366,179 369,180 369,180 370.058,180 372.029,181 370,181 370,184.767 375,186.08 375,189 377.109,189 377,187.838 377,191 377,193.275 379.279,202 382,202 382,202 383,204 383,204 383,208.062 386,211.268 386,216 386,216 388,218 388,218 388,221.412 389.517,226.534 391,229.5 393.624,234.749 391,244.169 391,250 391,251.167 390.326,258.087 392.5,257 396.428,255.036 392.438,247.623 394,244.5 395.602,241.296 394.405,219.31 393,216.5 393,216.5 390,214.5 390,214.5 390,214.5 390,208.5 390,208.5 388.67,205.841 387.109,200.718 385,196.5 385,196.5 385,191.5 385,191.5 383.949,189.397 382.164,188.828 381,186.5 381,186.5 380,179.5 380,179.5 378.945,177.39 375.594,177.688 375,176.5 375,176.5 374,170.5 374,170.5 372.652,167.804 372.012,170.756 370.5,170 366.091,167.795 362.696,163.098 358.5,161 358.5,161 358,157.5 358,157.5 356.652,154.803 340.788,146 338.5,146 334.516,146 334.53,139.515 331.5,138 331.5,138 324.5,137 324.5,137 314.491,131.996 303.821,132.66 294.5,128 294.5,128 282.5,127 282.5,127 280.219,125.859 270.988,120.756 268.5,122 264.419,124.04 263.845,134.81 262,138.5 257.911,146.677 251.107,146.697 244.5,150 244.5,150 238,150 238,150 230.466,150 222.699,145.897 219,138.5 217.355,135.211 216.434,127.967 212.5,126 209.37,124.435 202.921,127.79 200.5,129 196.852,130.824 191.102,129.199 187.5,131 180.612,134.444 174.44,135.53 167.5,139 167.5,139 160.5,139 160.5,139 153.754,142.373 148.713,146.394 141.5,150 136.869,152.315 135.014,156.743 130.5,159 126.947,160.777 123.776,170 119,170 119,170 119,171 119,171 119,173.405 110,181.186 110,185 110,185 109,187 109,187 109,187 108,188 108,188 108,191.209 105,195.198 105,199 105,199 104,200 104,200 104,200 100,203.5 100,203.5 98.7482,206.004 98,215.695 98,219 98,220.048 98.4729,222 97,222 97,222 95,226.5 95,226.5 95,226.5 94,246 94,246  Z"/>

<path  fill="#0E47E2" stroke-width="0" stroke="#0E47E2" d = " M228 194 C224.987,194 221.389,195 219,195 219,192.921 214.53,194 214,194 214,194 203,189 203,189 203,189 201,187 201,187 201,187 200,186 200,186 200,186 200,183 200,183 200,183 201,182 201,182 201,182 207,182 207,182 207,185.007 212.5,181 207,181 207,181 205,180 205,180 205,180 202,178 202,178 202,178 200,178 200,178 200,178 198,177 198,177 188.693,177 180.013,170 171,170 171,170 170,169 170,169 170,169 169,169 169,169 169,169 168,168 168,168 164.919,168 163,159.432 163,157 163,153.239 172,151.596 172,148 176.646,148 183.465,145.017 187.5,143 193.705,139.898 201.615,146 207,146 207,146 208,148 208,148 213.081,148 215.944,155 220,155 220,155 221,156 221,156 221,156 225,157 225,157 225,157 229,159 229,159 229,159 232,160 232,160 232,160 234,161 234,161 234,161 239,162 239,162 239,162 241,164 241,164 241,164 241,165 241,165 241,165.846 238.975,174 241.5,174 241.5,174 242.5,172 242.5,172 242.5,172 245,171.5 245,171.5 245.57,170.36 245.263,165 244,165 244,165 244,164 244,164 244,164 251,160 251,160 251,160 252,159 252,159 252,159 253,159 253,159 253,159 254,158 254,158 254,158 255,158 255,158 255,158 257,157 257,157 257,157 259,156 259,156 259,156 260,155 260,155 260,155 262,154 262,154 262,154 264,153 264,153 264,153 267,151 267,151 267,151 268,150 268,150 268,150 269,149 269,149 269,149 270,148 270,148 271.417,148 276,145.617 276,144 277.236,144 279,144.936 279,142 281.27,142 282.627,139.936 284.5,139 284.5,139 299.5,139 299.5,139 299.5,139 308,143 308,143 308,143 310,144 310,144 310,144 314,146 314,146 314,146 315,146 315,146 315,146 316,147 316,147 316,147 317,148 317,148 317,148 319,150 319,150 319,152.041 319.959,153 322,153 322,153 324,157 324,157 324,170.086 297.055,169.723 288.5,174 286.685,174.907 275.662,180 284,180 284,180 286,182 286,182 286,182 285,183 285,183 285,183 284,185 284,185 284,185 277,190 277,190 277,190 275,191 275,191 275,191 272,192 272,192 272,192 271,193 271,193 271,193 270,193 270,193 263.839,193 258.779,191.14 254.5,189 254.5,189 249.5,189 249.5,189 248.168,188.334 241.978,182.761 241.5,183 241.5,183 237.5,189 237.5,189 235.941,189.78 228,192.38 228,194  Z"/>

<path  fill="#022CFF" stroke-width="0" stroke="#022CFF" d = " M343 188 L345,188 C345,186.952 344.527,185 346,185 346,183.314 343,175.692 343,172.5 343,170.677 345,172.666 345,169 345,169 341,166 341,166 341,164.01 336,161.348 336,159 336,159 332,157 332,157 332,153.924 319.353,146.205 318,143.5 318,143.5 313,143.5 313,143.5 313,143.5 314,146 314,146 314,146 315,146 315,146 315,146 316,146 316,146 317.62,146 323,151.295 323,153 323,153 324,154 324,154 325.747,154 326,154.253 326,156 327.04,156 339,170.113 339,171.5 339,171.5 337,173.5 337,173.5 337,174.9 339,175.952 339,176.5 339,177.499 337.19,178.881 338,180.5 339.841,184.182 343,184.052 343,188  Z"/>

<path  fill="#FF6E00" stroke-width="0" stroke="#FF6E00" d = " M322 153 L323,153 C323,151.295 317.62,146 316,146 316,146 316,147 316,147 316,147 317,148 317,148 317,148 319,150 319,150 319,152.041 319.959,153 322,153  Z"/>

<path  fill="#022CFF" stroke-width="0" stroke="#022CFF" d = " M145 192 C146.145,192 149,191.421 149,193 150.028,193 150.44,191.379 150,190.5 147.93,186.36 150,180.971 150,176 150,171.847 160.354,157 163,157 163,153.239 172,151.596 172,148 168.831,148 156.256,154.988 155,157.5 155,157.5 152.5,162 152.5,162 148.634,163.933 141,166.977 141,170 141,170 143,170 143,170 143,170 144,171 144,171 145.638,171 146,174.576 146,176 146,176 146,177 146,177 146,179.326 147.941,190 144,190 144,190 145,192 145,192  Z"/>

<path  fill="#FF6E00" stroke-width="0" stroke="#FF6E00" d = " M325 156 L326,156 C326,154.253 325.747,154 324,154 324,154 325,156 325,156  Z"/>

<path  fill="#00FF1D" stroke-width="0" stroke="#00FF1D" d = " M334 198 L335,198 C335,198 336,197 336,197 336,197 341,191.5 341,191.5 341,191.5 343,188 343,188 343,184.052 339.841,184.182 338,180.5 337.19,178.881 339,177.499 339,176.5 339,175.952 337,174.9 337,173.5 337,173.5 339,171.5 339,171.5 339,170.113 327.04,156 326,156 326,156 325,156 325,156 325,156 324,157 324,157 324,170.086 297.055,169.723 288.5,174 286.685,174.907 275.662,180 284,180 286.409,180 285.055,178.723 286.5,178 290.718,175.891 298.51,176 303.5,176 304.863,176 310,175.3 310,177 310,177 311,177 311,177 312.058,177 314.029,178 312,178 312,180.142 320.37,191.241 322,194.5 323.529,197.558 327,193.616 327,198 329.123,198 331.704,198 334,198  Z"/>

<path  fill="#00FF1D" stroke-width="0" stroke="#00FF1D" d = " M163 200 C163,198.601 165,198.601 165,200 166.366,200 169,197.634 169,196 169,196 172,194 172,194 172,194 174,190 174,190 174,185.228 177.209,182 182,182 182,180.235 183.581,181.459 184.5,181 190.196,178.152 194.906,182 200,182 200,182 201,182 201,182 201,182 207,182 207,182 207,182 207,181 207,181 207,181 205,180 205,180 203.762,180 202,179.577 202,178 202,178 200,178 200,178 200,178 198,177 198,177 188.693,177 180.013,170 171,170 171,170 170,169 170,169 170,169 169,169 169,169 169,169 168,168 168,168 164.919,168 163,159.432 163,157 160.354,157 150,171.847 150,176 150,180.971 147.93,186.36 150,190.5 150.44,191.379 150.028,193 149,193 149,195.452 160.8,200 163,200  Z"/>

<path  fill="#FF0800" stroke-width="0" stroke="#FF0800" d = " M241 165 L244,165 C244,165 244,164 244,164 244,164 241,164 241,164 241,164 241,165 241,165  Z"/>

<path  fill="#022CFF" stroke-width="0" stroke="#022CFF" d = " M241 165 L244,165 C245.263,165 245.57,170.36 245,171.5 245,171.5 242.5,172 242.5,172 242.5,172 241.5,174 241.5,174 238.975,174 241,165.846 241,165  Z"/>

<path  fill="#814FFF" stroke-width="0" stroke="#814FFF" d = " M364 270 C364,272.613 364.93,274.36 366,276.5 L367,280.5 C369.532,285.564 374.751,279 377,279 377,279 381,275.5 381,275.5 382.479,272.543 384.45,269.599 386,266.5 386,266.5 390,255 390,255 390,253.765 389.357,250 391,250 391,244.169 393.624,234.749 391,229.5 389.517,226.534 388,221.412 388,218 388,218 386,216 386,216 386,211.268 383,208.062 383,204 383,204 382,202 382,202 379.279,202 377,193.275 377,191 377,191 375,189 375,189 375,186.08 370,184.767 370,181 370,181 369,180 369,180 369,180 366,179 366,179 366,179 365,177 365,177 361.173,177 361.042,172 358,172 356.643,172 352,171.353 352,170 352,170 351,170 351,170 351,170 345,169 345,169 345,172.666 343,170.677 343,172.5 343,175.692 346,183.314 346,185 346,185 347,185 347,185 347,185 355.5,184 355.5,184 357.965,185.233 355.669,196.169 358,198.5 358.486,198.986 366,192.854 366,197.5 366,197.5 359,201.5 359,201.5 357.611,204.277 358,207.704 358,210 359.027,210 359.365,214.865 360.5,216 360.5,216 367,225.5 367,225.5 367,225.5 366,231 366,231 366,231 367,247.5 367,247.5 366.191,249.119 365,248.971 365,251 365,251 364,252 364,252 364,252 364,253 364,253 364,253 364,254 364,254 364,258.379 362,262.949 362,268 362,268 364,270 364,270  Z"/>

<path  fill="#814FFF" stroke-width="0" stroke="#814FFF" d = " M102 269 C102,271.204 108.259,278 111,278 112.602,278 113.384,281.058 115.5,280 121.198,277.151 128,274.943 128,265 128,265 127,261 127,261 124.891,261 125,258.465 125,257 125,257 124,255 124,255 124,255 125,254 125,254 125,254 124,251 124,251 124,251 123,249 123,249 123,249 124,244.5 124,244.5 124,244.5 122,243.5 122,243.5 122,243.231 125,239.641 125,238 125,238 125,237 125,237 125,237 128,229 128,229 128,229 129,228 129,228 129,225.474 129,222.423 129,219 129,212.282 129.892,212.716 133,206.5 133,206.5 132,190 132,190 132,190 135.5,183 135.5,183 135.5,183 139.5,191 139.5,191 139.5,191 144,190 144,190 147.941,190 146,179.326 146,177 144.814,177 144.814,176 146,176 146,174.576 145.638,171 144,171 144,171 143,170 143,170 143,170 141,170 141,170 131.677,170 132.167,178.667 125.5,182 124.386,182.557 120,182.41 120,184 120,184 119,186 119,186 113.023,186 114.954,194.546 112,197.5 109.643,199.857 109.626,202.249 108,205.5 98.3538,224.792 98,235.109 98,257 99.3099,257 102.823,269 102,269  Z"/>

<path  fill="#022CFF" stroke-width="0" stroke="#022CFF" d = " M284 180 L286,182 C294.033,182 299.801,177 310,177 310,175.3 304.863,176 303.5,176 298.51,176 290.718,175.891 286.5,178 285.055,178.723 286.409,180 284,180  Z"/>

<path  fill-rule="evenodd" fill="#006400" stroke-width="0" stroke="#006400" d = " M264 260 C264,261.93 265.93,260 264,260  M241 285 L240,281.5 C241.867,277.766 246,282.438 246,285 254.835,285 261.953,284 270,284 270,284 274.5,281 274.5,281 279.46,278.52 286.464,279.518 291.5,277 294.795,275.352 294.058,272 300,272 300,272 301,271 301,271 301,271 302,263.5 302,263.5 302,263.5 308,259 308,259 308,259 310,258 310,258 310,258 311,257 311,257 315.784,257 322.76,245 328,245 328,245 329,244 329,244 329,244 332,238 332,238 332,238 333,236 333,236 333,236 336,232.5 336,232.5 338.197,228.107 338.788,222.923 341,218.5 343.124,214.252 336,205.116 336,203 336,203 336,202 336,202 336,202 334,202 334,202 334,202 325.5,202 325.5,202 324.114,201.307 326.19,198 327,198 327,193.616 323.529,197.558 322,194.5 320.37,191.241 312,180.142 312,178 312,178 311,177 311,177 311,177 310,177 310,177 299.801,177 294.033,182 286,182 286,182 285,183 285,183 285,183 284,185 284,185 284,185 277,190 277,190 277,190 275,191 275,191 275,191 272,192 272,192 272,192 271,193 271,193 271,193 270,193 270,193 270,193 269,194 269,194 269,206.491 249,196.875 249,195 247.241,195 245.091,201.796 241.5,200 238.344,198.422 240.439,194 236,194 236,201.996 217,205.629 217,197 217,197 214,194 214,194 214,194 203,189 203,189 203,189 201,187 201,187 201,187 200,186 200,186 200,186 191.5,182 191.5,182 191.5,182 182,182 182,182 177.209,182 174,185.228 174,190 174,191.465 174.109,194 172,194 172,196.293 171.003,196 169,196 169,197.634 166.366,200 165,200 165,200 164,202 164,202 164,204.53 160.355,205 158,205 158,205 157,205 157,205 157,206.198 149,212.714 149,218.5 149,222.718 151.211,225.923 153,229.5 154.12,231.741 152.835,235.169 154,237.5 154,237.5 157,239.5 157,239.5 159.496,244.493 161.175,246.338 166.5,249 167.159,249.33 165.093,251.796 167.5,253 171.228,254.864 175.77,256.135 179.5,258 181.037,258.769 182.276,267 186,267 188.73,267 187.112,270.306 188.5,271 188.5,271 194.5,272 194.5,272 194.5,272 196.5,275 196.5,275 196.5,275 207.5,279 207.5,279 207.5,279 211,282 211,282 211,282 212,283 212,283 212,283 215.5,285 215.5,285 216.424,285.462 237.168,285 241,285  Z"/>

<path  fill="#022CFF" stroke-width="0" stroke="#022CFF" d = " M200 183 L200,186 C200,186 191.5,182 191.5,182 191.5,182 182,182 182,182 182,180.235 183.581,181.459 184.5,181 190.196,178.152 194.906,182 200,182 200,182 200,183 200,183  Z"/>

<path  fill-rule="evenodd" fill="#FF3427" stroke-width="0" stroke="#FF3427" d = " M164 265 C164,266.038 159.511,267.522 161,270.5 166.407,281.313 184.673,274.587 171.5,268 168.582,266.541 167.644,265 164,265  M149 267 C154.093,267 163.161,279.331 168.5,282 172.136,283.818 174.832,279 177.5,279 180.057,279 185.172,277.157 187,273.5 188.081,271.339 186,268.606 186,267 182.276,267 181.037,258.769 179.5,258 175.77,256.135 171.228,254.864 167.5,253 165.093,251.796 167.159,249.33 166.5,249 161.175,246.338 159.496,244.493 157,239.5 157,239.5 154,237.5 154,237.5 152.835,235.169 154.12,231.741 153,229.5 151.211,225.923 149,222.718 149,218.5 149,212.714 157,206.198 157,205 149.603,205 145,198.809 145,192 145,192 144,190 144,190 144,190 139.5,191 139.5,191 139.5,191 135.5,183 135.5,183 135.5,183 132,190 132,190 132,190 133,206.5 133,206.5 129.892,212.716 129,212.282 129,219 136.581,219 132.426,222.352 134,225.5 134,225.5 138,229.5 138,229.5 139.314,232.128 136.886,242.271 138,244.5 139.4,247.299 145.723,250.946 146,251.5 146,251.5 145,253.5 145,253.5 145,256.198 148,259.621 148,263 148,263 149,264 149,264 149,264 149,267 149,267  Z"/>

<path  fill="#022CFF" stroke-width="0" stroke="#022CFF" d = " M269 194 C266.043,194 249,191.454 249,195 247.241,195 245.091,201.796 241.5,200 238.344,198.422 240.439,194 236,194 236,194 228,194 228,194 228,192.38 235.941,189.78 237.5,189 237.5,189 241.5,183 241.5,183 241.978,182.761 248.168,188.334 249.5,189 249.5,189 254.5,189 254.5,189 258.779,191.14 263.839,193 270,193 270,193 269,194 269,194  Z"/>

<path  fill="#022CFF" stroke-width="0" stroke="#022CFF" d = " M285 183 L284,185 C284,185 285,183 285,183  Z"/>

<path  fill-rule="evenodd" fill="#FF3427" stroke-width="0" stroke="#FF3427" d = " M321 265 L316,268.5 C313.122,274.256 324.074,273.352 326,269.5 326.841,267.818 327.837,265 324.5,265 L321,265  M301 271 L301,272 C301,277.063 302.778,273.139 306.5,275 308.993,276.246 313.91,283.295 318.5,281 318.5,281 323.5,277 323.5,277 323.5,277 325.5,279 325.5,279 328.591,279 336,265.76 336,267 339.041,267 340,267.303 340,264 340,264 340,261 340,261 340,261 343,258.5 343,258.5 343.646,257.207 341.032,253 344,253 344,251.942 345,249.971 345,252 347.564,252 347.564,250 345,250 343.814,250 343.814,249 345,249 352.23,249 347.688,240.125 349,237.5 349.718,236.065 353.686,237.128 355,234.5 355.479,233.541 353,229.023 353,227.5 353,223.569 357.796,222.909 359,220.5 360.997,216.506 354,219.278 354,216.5 354,216.5 358,215.5 358,215.5 358,213.905 358,212.245 358,210 358,207.704 357.611,204.277 359,201.5 359,201.5 366,197.5 366,197.5 366,192.854 358.486,198.986 358,198.5 355.669,196.169 357.965,185.233 355.5,184 355.5,184 347,185 347,185 347,185 347,190 347,190 347,193.392 342.147,194.206 341,196.5 340.617,197.266 341.316,200 339.5,200 339.5,200 337,199 337,199 337,199 335,198 335,198 335,198 334,198 334,198 334,198 334,202 334,202 334,202 336,202 336,202 337.186,202 337.186,203 336,203 336,205.116 343.124,214.252 341,218.5 338.788,222.923 338.197,228.107 336,232.5 336,232.5 333,236 333,236 335.092,236 333.652,238 332,238 332,238 329,244 329,244 329,244 328,245 328,245 322.76,245 315.784,257 311,257 311,257 310,258 310,258 310,258 308,259 308,259 308,259 302,263.5 302,263.5 302,263.5 301,271 301,271  Z"/>

<path  fill="#022CFF" stroke-width="0" stroke="#022CFF" d = " M201 187 L203,189 C203,189 201,187 201,187  Z"/>

<path  fill="#EE7533" stroke-width="0" stroke="#EE7533" d = " M336 197 L337,199 C337,199 339.5,200 339.5,200 341.316,200 340.617,197.266 341,196.5 342.147,194.206 347,193.392 347,190 347,190 345,188 345,188 345,188 343,188 343,188 343,188 341,191.5 341,191.5 341,191.5 336,197 336,197  Z"/>

<path  fill="#022CFF" stroke-width="0" stroke="#022CFF" d = " M277 190 L275,191 C275,191 277,190 277,190  Z"/>

<path  fill="#EE7533" stroke-width="0" stroke="#EE7533" d = " M157 205 L158,205 C158,205 163,201 163,201 163,201 163,200 163,200 160.8,200 149,195.452 149,193 149,191.421 146.145,192 145,192 145,198.809 149.603,205 157,205  Z"/>

<path  fill="#022CFF" stroke-width="0" stroke="#022CFF" d = " M272 192 L271,193 C271,193 272,192 272,192  Z"/>

<path  fill="#022CFF" stroke-width="0" stroke="#022CFF" d = " M219 195 L217,197 C217,197 214,194 214,194 214.53,194 219,192.921 219,195  Z"/>

<path  fill="#FFFC00" stroke-width="0" stroke="#FFFC00" d = " M269 194 C266.043,194 249,191.454 249,195 249,196.875 269,206.491 269,194  Z"/>

<path  fill="#FFFC00" stroke-width="0" stroke="#FFFC00" d = " M219 195 L217,197 C217,205.629 236,201.996 236,194 236,194 228,194 228,194 224.987,194 221.389,195 219,195  Z"/>

<path  fill="#FF3427" stroke-width="0" stroke="#FF3427" d = " M164 202 C164,204.53 160.355,205 158,205 158,205 163,201 163,201 163,201 164,202 164,202  Z"/>

<path  fill="#03C12D" stroke-width="0" stroke="#03C12D" d = " M382 202 L383,204 C383,204 382,202 382,202  Z"/>

<path  fill="#FF91BA" stroke-width="0" stroke="#FF91BA" d = " M362 268 L362,269 C357.199,269 343.404,284.308 338,273.5 338,273.5 338,268.5 338,268.5 338,268.5 336,267 336,267 339.041,267 340,267.303 340,264 342.197,264 342.868,261 340,261 340,261 343,258.5 343,258.5 343.646,257.207 341.032,253 344,253 344,253 345,252 345,252 347.564,252 347.564,250 345,250 345,250 345,249 345,249 352.23,249 347.688,240.125 349,237.5 349.718,236.065 353.686,237.128 355,234.5 355.479,233.541 353,229.023 353,227.5 353,223.569 357.796,222.909 359,220.5 360.997,216.506 354,219.278 354,216.5 354,216.5 358,215.5 358,215.5 358,213.905 358,212.245 358,210 359.027,210 359.365,214.865 360.5,216 360.5,216 367,225.5 367,225.5 367,225.5 366,231 366,231 366,231 367,247.5 367,247.5 366.191,249.119 365,248.971 365,251 365,251 364,252 364,252 364,252 364,253 364,253 362.814,253 362.814,254 364,254 364,258.379 362,262.949 362,268  Z"/>

<path  fill="#03C12D" stroke-width="0" stroke="#03C12D" d = " M386 216 L388,218 C388,218 386,216 386,216  Z"/>

<path  fill="#FF91BA" stroke-width="0" stroke="#FF91BA" d = " M128 265 C132.828,265 132.525,271.512 135.5,273 137.445,273.973 139.343,272.422 140.5,273 143.65,274.575 146,273.964 146,271.5 146,270.03 149,269.123 149,267 149,267 149,264 149,264 149,264 148,263 148,263 148,259.621 145,256.198 145,253.5 145,253.5 146,251.5 146,251.5 145.723,250.946 139.4,247.299 138,244.5 136.886,242.271 139.314,232.128 138,229.5 138,229.5 134,225.5 134,225.5 132.426,222.352 136.581,219 129,219 129,222.423 129,225.474 129,228 129,228 128,229 128,229 128,229 125,237 125,237 126.186,237 126.186,238 125,238 125,239.641 122,243.231 122,243.5 122,243.5 124,244.5 124,244.5 124,244.5 123,249 123,249 123,249 124,251 124,251 124,251 125,254 125,254 125,254 124,255 124,255 124,255 125,257 125,257 126.808,257 127,259.995 127,261 127,261 128,265 128,265  Z"/>

<path  fill="#EEBA00" stroke-width="0" stroke="#EEBA00" d = " M264 260 C264,261.93 265.93,260 264,260  Z"/>

<path  fill-rule="evenodd" fill="#E1F00D" stroke-width="0" stroke="#E1F00D" d = " M149 303 C149,309.548 154.827,303 149,303  M183 327 C182.746,327 174.15,334.175 172.5,335 163.017,339.741 152.948,343.276 143.5,348 141.384,349.058 140.602,346 139,346 139,341.268 125.69,326.88 123,321.5 123,321.5 117,309.5 117,309.5 117,309.5 118,293.5 118,293.5 116.155,289.809 114.813,287.313 111.5,284 111.5,284 108,281.5 108,281.5 108,281.5 111,278 111,278 112.602,278 113.384,281.058 115.5,280 121.198,277.151 128,274.943 128,265 132.828,265 132.525,271.512 135.5,273 137.445,273.973 139.343,272.422 140.5,273 143.65,274.575 146,273.964 146,271.5 146,270.03 149,269.123 149,267 154.093,267 163.161,279.331 168.5,282 172.136,283.818 174.832,279 177.5,279 180.057,279 185.172,277.157 187,273.5 188.081,271.339 186,268.606 186,267 188.73,267 187.112,270.306 188.5,271 188.5,271 194.5,272 194.5,272 194.5,272 196.5,275 196.5,275 196.5,275 207.5,279 207.5,279 207.5,279 211,282 211,282 211,282 212,283 212,283 212,284.789 217.903,290 213,290 213,285.812 201.981,298 209,298 209,300.145 203.936,303.629 203,305.5 200.863,309.775 201,315.833 201,321 198.751,321 193.53,314.03 192.5,313 191.907,312.407 189,309.321 189,312 186.174,312 186.241,309.871 184.5,309 184.5,309 182.5,310 182.5,310 171.82,310 183,321.039 183,327  Z"/>

<path  fill="#1AE7FF" stroke-width="0" stroke="#1AE7FF" d = " M164 265 C164,266.038 159.511,267.522 161,270.5 166.407,281.313 184.673,274.587 171.5,268 168.582,266.541 167.644,265 164,265  Z"/>

<path  fill="#1AE7FF" stroke-width="0" stroke="#1AE7FF" d = " M321 265 L316,268.5 C313.122,274.256 324.074,273.352 326,269.5 326.841,267.818 327.837,265 324.5,265 L321,265  Z"/>

<path  fill-rule="evenodd" fill="#E1F00D" stroke-width="0" stroke="#E1F00D" d = " M336 300 L335,302 C335,309.629 341.127,300 336,300  M343 352 C345.688,352 346.418,353 348,353 348,353 351,351 351,351 354.359,351 359.664,335.173 361,332.5 364.893,324.714 366.335,315.831 370,308.5 372.314,303.871 375.731,300.037 378,295.5 378.84,293.82 377,281.928 377,279 374.751,279 369.532,285.564 367,280.5 367,280.5 366,276.5 366,276.5 364.93,274.36 364,272.613 364,270 364,270 362,269 362,269 357.199,269 343.404,284.308 338,273.5 338,273.5 338,268.5 338,268.5 338,268.5 336,267 336,267 336,265.76 328.591,279 325.5,279 325.5,279 323.5,277 323.5,277 323.5,277 318.5,281 318.5,281 313.91,283.295 308.993,276.246 306.5,275 302.778,273.139 301,277.063 301,272 301,272 300,272 300,272 294.058,272 294.795,275.352 291.5,277 286.464,279.518 279.46,278.52 274.5,281 274.5,281 270,284 270,284 270,285.146 271.339,290 273,290 274.384,290 274.123,286.811 276.5,288 278.07,288.785 280.877,295 278,295 278,295.986 276.362,299.225 277,300.5 280.853,308.205 286,308.997 286,319 286,319 287,319 287,319 287,319 289,318 289,318 289,318 290,317 290,317 290,315.11 294.598,314 296,314 296,314 302.5,308 302.5,308 304.502,306.999 311.778,307.944 310,311.5 309.061,313.378 310,311.905 310,313.5 310,315.085 307,316.464 307,319 307,333.911 316.355,340.427 329.5,347 332.739,348.62 336.226,349.363 339.5,351 340.546,351.523 343,350.049 343,352  Z"/>

<path  fill="#022CFF" stroke-width="0" stroke="#022CFF" d = " M241 285 C241,296.726 242,310.098 242,322.5 L242.5,334 C245.852,335.676 245,324.543 245,323 245,310.399 246,296.939 246,285 246,282.438 241.867,277.766 240,281.5 240,281.5 241,285 241,285  Z"/>

<path  fill="#E278A1" stroke-width="0" stroke="#E278A1" d = " M207 332 C207,334.18 215.353,344 217.5,344 221.106,344 234.168,346.166 238.5,344 240.514,342.993 247.553,341 249.5,341 L251.5,343 C256.031,345.265 266.343,342 269.5,342 274.33,342 273.442,333 277,333 277,329.092 283,327.908 283,324 283,324 286,321 286,321 286,321 286,320 286,320 286,320 286,319 286,319 286,308.997 280.853,308.205 277,300.5 276.362,299.225 278,295.986 278,295 273.806,295 273,295.494 273,290 271.339,290 270,285.146 270,284 261.953,284 254.835,285 246,285 246,296.939 245,310.399 245,323 245,324.543 245.852,335.676 242.5,334 242.5,334 242,322.5 242,322.5 242,310.098 241,296.726 241,285 237.168,285 216.424,285.462 215.5,285 215.5,285 212,283 212,283 212,284.789 217.903,290 213,290 213,293.29 213.534,298 209,298 209,300.145 203.936,303.629 203,305.5 200.863,309.775 201,315.833 201,321 201,325.058 207,328.012 207,332  Z"/>

<path  fill="#15C0FF" stroke-width="0" stroke="#15C0FF" d = " M273 290 C274.384,290 274.123,286.811 276.5,288 278.07,288.785 280.877,295 278,295 273.806,295 273,295.494 273,290  Z"/>

<path  fill="#15C0FF" stroke-width="0" stroke="#15C0FF" d = " M213 290 C213,293.29 213.534,298 209,298 201.981,298 213,285.812 213,290  Z"/>

<path  fill="#ADFF2F" stroke-width="0" stroke="#ADFF2F" d = " M336 300 L335,302 C335,309.629 341.127,300 336,300  Z"/>

<path  fill="#ADFF2F" stroke-width="0" stroke="#ADFF2F" d = " M149 303 C149,309.548 154.827,303 149,303  Z"/>

<path  fill="#267EFF" stroke-width="0" stroke="#267EFF" d = " M287 328 L288,328 C290.774,328 295.481,331.509 300.5,329 303.048,327.726 306.58,319 307,319 307,316.464 310,315.085 310,313.5 310,311.905 309.061,313.378 310,311.5 311.778,307.944 304.502,306.999 302.5,308 302.5,308 296,314 296,314 296,315.946 288.312,325 287,325 287,325 287,328 287,328  Z"/>

<path  fill="#267EFF" stroke-width="0" stroke="#267EFF" d = " M183 327 L187.5,329 C190.013,329 195.88,328 199,328 199,324.391 189,314.271 189,312 186.174,312 186.241,309.871 184.5,309 184.5,309 182.5,310 182.5,310 171.82,310 183,321.039 183,327  Z"/>

<path  fill="#FAAA40" stroke-width="0" stroke="#FAAA40" d = " M199 328 C199,331.822 205.909,332 207,332 207,328.012 201,325.058 201,321 198.751,321 193.53,314.03 192.5,313 191.907,312.407 189,309.321 189,312 189,314.271 199,324.391 199,328  Z"/>

<path  fill="#FAAA40" stroke-width="0" stroke="#FAAA40" d = " M288 328 C288,329.183 284.43,329.535 283.5,330 282.787,330.357 277,338.98 277,333 277,329.092 283,327.908 283,324 285.041,324 286,323.041 286,321 286,321 286,320 286,320 286,320 287,319 287,319 287,319 289,318 289,318 289,318 290,317 290,317 290,315.11 294.598,314 296,314 296,315.946 288.312,325 287,325 285.514,325 285.514,328 287,328 287,328 288,328 288,328  Z"/>

<path  fill-rule="evenodd" fill="#FA8072" stroke-width="0" stroke="#FA8072" d = " M301 357 L302.5,364 L303,360.5 C304.304,357.893 304.348,357 301,357  M301 339 C301,340.961 282.688,350.123 281,353.5 277.218,361.065 287.549,360.598 289,363.5 L289,372.5 C289.701,373.902 294.955,384 296.5,384 L298.5,382 C300.604,380.948 301.17,384 302.5,384 L305.5,380 C307.515,380 310.661,383.081 312.5,384 319.616,387.558 319.754,378.373 322.5,377 325.567,375.467 327.121,376.258 329,372.5 L328,365.5 L331.5,366 C334.721,364.39 339.226,359.952 337,355.5 332.682,346.864 324.155,355.809 322,351.5 321.497,350.494 313.327,340.413 312.5,340 311.15,339.325 305.878,341.689 304.5,341 L301,339  Z"/>

<path  fill="#FA8072" stroke-width="0" stroke="#FA8072" d = " M182 342 C182,344.343 172.326,347.087 170.5,348 168.5,349 169.736,354 167.5,354 L161.5,352 L156.5,358 C154.991,358 152.675,357.15 152,358.5 151.813,358.873 155.541,365 151.5,365 149.431,365 146.55,357.525 143.5,356 141.788,355.144 130,355.294 130,358.5 130,359.826 138.594,356.311 137,359.5 135.342,362.816 124.761,362.022 128,368.5 L132,371.5 C132.53,372.559 133.856,380 137.5,380 138.499,380 139.881,378.19 141.5,379 L143.5,381 L146,378.5 C150.211,374.289 146,378.034 146,373.5 L150.5,373 L153.5,369 C154.256,369 157.13,370 160.5,370 162.736,370 161.5,375 163.5,376 166.546,377.523 167.42,372 168.5,372 169.391,372 166.982,380.741 171.5,383 177.982,386.241 180.499,383.501 185.5,381 L187.5,383 C190.029,384.265 195.214,384.143 197.5,383 205.571,378.965 193.475,373.551 195,370.5 195.526,369.448 201.281,371.939 203,368.5 L202,366.5 C201.143,364.786 205.025,362.762 201.5,361 200.222,360.361 195.128,360.756 195,360.5 L195,348.5 C194.132,346.763 183.636,342 182,342  Z"/>

<path  fill="#FA8072" stroke-width="0" stroke="#FA8072" d = " M143 351 C143,353.159 139,351.061 139,352.5 L143.5,353 C144.578,353.539 148.63,357 150.5,357 152.989,357 152.994,351.747 151.5,351 L143,351  Z"/>

<path  fill-rule="evenodd" fill="#FA8072" stroke-width="0" stroke="#FA8072" d = " M347 376 C347,378.112 352.567,376 347,376  M354 375 C354,380.281 357.134,375 354,375  M343 352 C345.688,352 346.418,353 348,353 348,354.344 355.273,354.387 356.5,355 356.5,355 357,359.5 357,359.5 357.765,361.03 360.859,359.219 362,361.5 363.307,364.113 367,369.455 367,372.5 367,374.343 365.567,378.634 367,381.5 368.648,384.795 371.331,386.162 373,389.5 374.113,391.726 372.492,397.004 370.5,398 368.534,398.983 363.543,399 362.5,399 362.5,399 361.5,401 361.5,401 361.5,401 360.5,398 360.5,398 360.5,398 357.5,399 357.5,399 357.5,399 353.5,395 353.5,395 353.5,395 352,396.5 352,396.5 351.078,394.656 352.735,393.235 351,391.5 351,391.5 345,386.5 345,386.5 345,386.5 345,378.5 345,378.5 344.064,376.628 340.8,376.099 338,370.5 334.324,363.148 345,361.36 345,356.5 345,356.071 337.778,352 343,352  Z"/>

<path  fill="#FA8072" stroke-width="0" stroke="#FA8072" d = " M155 374 C155,379.677 159.136,374 155,374  Z"/>

<path  fill="#FA8072" stroke-width="0" stroke="#FA8072" d = " M125 379 C125,382.535 120.693,388.886 123,393.5 124.792,397.084 126.425,395 128.5,395 130.405,395 132.621,397.939 136.5,396 140.294,394.103 140.294,384.897 136.5,383 L130.5,385 C127.696,383.598 130.404,379 125,379  Z"/>

</g>
</svg>
