<svg xmlns="http://www.w3.org/2000/svg" xmlns:xlink="http://www.w3.org/1999/xlink" height="512" width="512">
<g>
<rect width="512" height="512" fill="#000000"  stroke-width="0" /> 
<path  fill="#03C12D" stroke-width="0" stroke="#03C12D" d = " M374 149 L368,140.5 C361.558,127.616 348.364,120.932 336.5,115 333.396,113.448 325.515,107.992 321.5,110 307.179,117.161 310.039,126.77 322.5,133 L334.5,141 C341.153,144.326 349.428,156 357,156 357,156 351,150.5 351,150.5 349.873,148.247 353.777,149.361 354.5,149 358.584,146.958 365.163,148 370,148 370,146.814 371,146.814 371,148 371,149.473 372.952,149 374,149  Z"/>

<path  fill="#03C12D" stroke-width="0" stroke="#03C12D" d = " M106 145 C109.547,145 115.21,140.855 119.5,143 121.153,143.826 145.043,146 146,146 146,146 151,141.5 151,141.5 154.607,134.286 158.371,125.936 148.5,121 141.396,117.448 126.915,125.293 121.5,128 121.5,128 120.5,131 120.5,131 118.169,132.165 114.741,130.88 112.5,132 109.114,133.693 105.799,135.902 104,139.5 103.285,140.93 104.722,145 106,145  Z"/>

<path  fill="#EE2F2C" stroke-width="0" stroke="#EE2F2C" d = " M198 156 L200,156 C200,156 202,155 202,155 202,155 204,155 204,155 204,155 206,155 206,155 206,155 207,155 207,155 207,155 210,154 210,154 210,154 211,154 211,154 211,151.271 211.423,153 213,153 213,153 214,152 214,152 214,152 217,152 217,152 217,152 218,151 218,151 218,151 220,151 220,151 220,151 221,150 221,150 221,150 223,149 223,149 223,149 224,149 224,149 224,149 226,149 226,149 226,149 228,148 228,148 228,148 230,148 230,148 230,148 231,147 231,147 231,147 233,147 233,147 233,144.768 240.634,145.767 236,136.5 234.461,133.421 233.21,127.855 229.5,126 229.5,126 223.5,126 223.5,126 210.218,119.359 197.303,128.893 191,141.5 188.412,146.676 189.439,157 197,157 197,157 198,156 198,156  Z"/>

<path  fill="#EE2F2C" stroke-width="0" stroke="#EE2F2C" d = " M275 123 C275,124.816 270.716,125.392 269.5,126 264.197,128.652 259.636,133.227 257,138.5 253.353,145.793 266.768,148.634 269.5,150 272.759,151.629 275.152,154.326 278.5,156 281.789,157.644 292.696,154.804 295,152.5 L299,150.5 C299,149.316 297.087,147.325 298,145.5 298.508,144.485 300.733,139.966 300,138.5 298.234,134.967 292.018,130.535 292,130.5 289.259,125.019 281.157,123 275,123  Z"/>

<path  fill="#FFFF00" stroke-width="0" stroke="#FFFF00" d = " M242 134 L241,138.5 C243.159,142.819 252.358,136.929 246.5,134 L242,134  Z"/>

<path  fill-rule="evenodd" fill="#FFFF00" stroke-width="0" stroke="#FFFF00" d = " M342 229 C342,233.123 346.123,229 342,229  M332 226 C332,230.365 335.479,226 332,226  M186 212 C186,215.746 188.091,212 186,212  M300 202 C300,204.091 303.746,202 300,202  M309 200 C309,205.567 311.112,200 309,200  M370 188 C370,191.746 372.091,188 370,188  M195 187 C195,191.42 196.206,187 195,187  M184 184 C184,185.57 179.703,189.094 179,190.5 172.506,203.487 157.141,213.218 151,225.5 149.928,227.643 136.766,236.133 142.5,239 147.652,241.576 158.507,242.486 163,233.5 164.152,231.195 163.796,227.907 165,225.5 167.222,221.056 174.009,221.482 176,217.5 177.948,213.605 173.309,210.881 175,207.5 176.597,204.306 177.432,200.636 179,197.5 L180.5,199 L182.5,195 L191,187.5 C191.677,186.145 185.449,184 184,184  M365 182 C365,185.746 367.091,182 365,182  M303 179 L302,182.5 C301.579,183.341 304.336,188 305.5,188 307.809,188 304.497,179 303,179  M361 177 C361,183.254 364.784,177 361,177  M301 175 C301,180.264 305.655,175 301,175  M185 167 L184,170.5 C183.134,172.233 184.919,175.663 186,173.5 186.57,172.36 186.263,167 185,167  M148 167 L141,170.5 C137.52,177.461 129.746,182.007 126,189.5 125.199,191.103 116.538,200.019 120.5,202 126.819,205.16 144.404,182.691 147,177.5 147.929,175.642 150.753,167 148,167  M336 166 L335,169.5 C339.683,178.866 347.967,193.734 358.5,199 360.837,200.169 367.561,208.378 370,203.5 373.227,197.045 364.778,194.056 363,190.5 356.295,177.09 353.42,174.96 341.5,169 339.323,167.911 338.678,166 336,166  M307 157 L306,158.5 C306,160.746 311.83,157 307,157  M167 157 C167,163.375 165.072,157.355 164,159.5 L160,167.5 C154.471,178.557 153.774,188.726 144,198.5 139.388,203.112 126.641,209.218 124,214.5 122.365,217.77 122.513,226.007 126.5,228 130.985,230.242 139.336,223.828 141,220.5 147.608,207.283 166.332,196.836 173,183.5 174.895,179.711 170.366,175.232 169,172.5 167.417,169.333 171.69,157 167,157  M234 156 C234,158.112 239.567,156 234,156  M245 152 C245,155.379 235.191,151.883 238,157.5 L251.5,158 C255.365,159.932 262.3,162.101 260,157.5 257.319,152.139 250.518,154 247.5,154 L245,152  M345 246 C345,243.784 342,245.652 342,247 342,247 325.5,246 325.5,246 321.988,244.244 323.64,242 320,242 320,239.785 318,240.481 318,239 318,239 317,238 317,238 317,238 317,237 317,237 317,237 316,236 316,236 316,236 315,235 315,235 315,228.242 297.162,219 289.5,219 288.227,219 283.862,215 283.5,215 280.138,215 279,216.805 279,220 279,220 278,220 278,220 278,217.971 277,219.942 277,221 277,221 276,223 276,223 276,219.944 272.606,225.947 272.5,226 269.105,227.698 266.314,227.093 262.5,229 262.33,229.085 235.562,230 232,230 232,230 230,230 230,230 230,228.573 218.815,226 217,226 217,223.686 215.669,226.837 215,225.5 215,225.5 212,219 212,219 212,217.814 211,217.814 211,219 211,219 208,217 208,217 205.971,217 206.119,215.809 204.5,215 201.667,213.583 199.18,217 198.5,217 196.69,217 193.46,216 191,216 191,216 188,216 188,216 188,213.362 186,216.333 186,218 186,218 186,219 186,219 186,219 185,220 185,220 185,220 183,221 183,221 183,221 182,222 182,222 182,222 182,223 182,223 182,223 181,224 181,224 181,220.823 180,222.921 180,225 169.268,225 168.828,238.336 157.5,244 157.5,244 156.5,246 156.5,246 142.285,246 143.351,243.926 133.5,239 133.485,238.993 131.666,233.583 130.5,233 124.989,230.245 121.062,228.624 118,222.5 114.95,216.399 123.67,210.84 122,207.5 122,207.5 118.5,209 118.5,209 118.5,209 118,206.5 118,206.5 116.144,202.788 114.436,198.629 117,193.5 119.494,188.512 126.11,183.279 129,177.5 130.469,174.561 130.399,171.702 132,168.5 133.206,166.089 137,163.848 137,161 137,161 138,160 138,160 138,160 139,159 139,159 139,159 140,158 140,158 140,158 143,156 143,156 143,156 149,154 149,154 149,154 150,153 150,153 150,153 157,153.5 157,153.5 157.526,154.553 157.581,161 159.5,161 161.075,161 160.571,156.357 161,155.5 162.839,151.822 174.896,143.198 176.5,144 178.853,145.177 180.023,154 181.5,154 182.041,154 185.145,149.789 187,153.5 187,153.5 187.5,169 187.5,169 191.539,169 193.157,161 195.5,161 195.5,161 197,157 197,157 197,157 198,156 198,156 198,160.466 200,160.252 200,156 201.577,156 202,157.729 202,155 202,155 204,155 204,155 204,160.547 206,160.171 206,155 206,155 207,155 207,155 207,158.543 210,156.49 210,154 210,154 211,154 211,154 211,156.026 213,153.896 213,153 213,153 214,152 214,152 214,153.486 217,153.486 217,152 217,152 218,151 218,151 218,151 220,151 220,151 220,151 221,150 221,150 221,150 223,149 223,149 223,150.186 224,150.186 224,149 224,149 226,149 226,149 226,153.73 228,152.68 228,148 228,148 230,148 230,148 230,148 231,147 231,147 231,147 233,147 233,147 241.634,147 250.441,143.971 258.5,148 262.127,149.814 264.794,153.147 268.5,155 268.5,155 271.5,154 271.5,154 274.735,155.618 273.421,162 278.5,162 280.059,162 281.906,159 282.5,159 282.5,159 283.5,162 283.5,162 283.52,162 285.752,161 288.5,161 289.832,161 287.849,155.674 290.5,157 293.448,158.474 290.934,161.368 292,163.5 292.346,164.192 294.281,160.063 296,163.5 296.674,164.848 299.654,174.923 301.5,174 301.5,174 299,166.5 299,166.5 297.634,163.769 297.693,156.114 299,153.5 300.755,149.991 302.481,163.538 305,158.5 306.751,154.999 306.264,147.028 305,144.5 305,144.5 306.5,140 306.5,140 308.618,140 311.382,140 313.5,140 314.653,140 315.611,144.722 316,145.5 316,145.5 318,145.5 318,145.5 319.019,147.538 320.248,149.995 321,151.5 321,151.5 327.5,164 327.5,164 327.5,164 327.5,159 327.5,159 327.5,159 326.5,160 326.5,160 326.5,160 326.5,154 326.5,154 326.5,154 327.5,157 327.5,157 327.5,157 328.5,152 328.5,152 328.5,152 331.5,155 331.5,155 331.5,155 333.5,153 333.5,153 333.5,153 335.5,157 335.5,157 339.638,157 342.869,157 346.5,157 346.5,157 347,161.5 347,161.5 347.504,162.509 352.437,164 354.5,164 355.828,164 355.851,173 358.5,173 358.5,173 359.5,169 359.5,169 362.65,169 359.821,162 361.5,162 361.5,162 362.5,165 362.5,165 362.5,165 363.5,162 363.5,162 363.5,162 364,167.5 364,167.5 364,167.5 367.5,171 367.5,171 372.408,173.454 379.238,180.024 376,186.5 376,186.5 373,189.5 373,189.5 373,189.5 374,193 374,193 374,197.359 375,203.001 375,206.5 375,209.595 369.322,207.856 367,212.5 367,212.5 371,218.5 371,218.5 372.834,222.167 367.648,234 365,234 365,230.227 369.828,226.157 368,222.5 365.033,216.567 357.888,212.694 352.5,210 344.358,205.929 335.55,193.599 332,186.5 327.521,177.542 324.507,167.514 320,158.5 319.377,157.255 313.036,149.429 312,151.5 310.14,155.221 313.704,158.909 315,161.5 316.094,163.689 314.187,165.874 315,167.5 316.442,170.383 312.701,174.902 313,175.5 313.605,176.71 315.994,176.488 317,178.5 318.524,181.548 312.09,181.32 311,183.5 309.989,185.522 315.079,192.658 316,194.5 316,194.5 325.5,200 325.5,200 329.356,201.928 332.431,207.465 335.5,209 342.89,212.695 346.411,215.322 350,222.5 353.874,230.248 364,226.487 364,235 362.017,235 357.582,232.959 355.5,234 355.5,234 355.5,241 355.5,241 355.5,241 353,239 353,239 353,239 351,236 351,236 351,236 350,236 350,236 350,233.847 342.925,233 341,233 336.793,233 329.512,234.524 327,229.5 322.938,221.375 331,221.046 331,218.5 331,218.5 314,205.5 314,205.5 312.154,201.808 313.969,207 312.5,207 312.5,207 311.5,203 311.5,203 309.061,203 314.339,210.081 312.5,211 307.125,213.687 303.02,207 299.5,207 299.5,207 298.5,209 298.5,209 298.5,209 297,205.5 297,205.5 297,205.5 295,205.5 295,205.5 294.057,203.615 294.075,201.287 291.5,200 283.724,196.112 263.415,190.543 256.5,194 250.435,197.032 222.225,196 214.5,196 214.5,196 211.5,195 211.5,195 208.482,196.509 201.683,197 199.5,197 197.38,197 201.087,200.793 197.5,199 193.685,197.093 188.2,206.9 190,210.5 193.43,217.36 201.394,206.447 206.5,209 208.953,210.227 211.909,212.318 213,214.5 213,214.5 215,214.5 215,214.5 215.376,215.252 217.435,220 218.5,220 227.813,220 245.033,228.733 256.5,223 260.813,220.843 269.101,227.298 274,217.5 279.529,206.441 248.059,212 242.5,212 240.671,212 236.87,210 235,210 235,210 230.5,211 230.5,211 229.093,210.296 228.985,207.758 230.5,207 235.829,204.336 243.876,206 247.5,206 249.21,206 260.896,201.698 261.5,202 265.34,203.92 272.221,204 275.5,204 276.583,204 287.255,213.378 288.5,214 288.5,214 296.5,215 296.5,215 298.436,215.968 300.853,218.677 303.5,220 307.044,221.772 310.155,220.827 314.5,223 320.187,225.843 318.54,237.02 324.5,240 334.736,245.118 338.683,242 345.5,242 345.5,242 347.5,240 347.5,240 347.5,240 348,245 348,245 348,245 345,246 345,246  M294 190 L293,191 C288.869,191 266.861,182.181 262.5,180 261.015,179.258 255.072,181.786 253.5,181 252.024,180.262 229.556,179.972 227.5,181 223.774,182.863 214.485,186 212,186 212,187.399 210,187.399 210,186 206.99,186 200.25,188.875 196.5,187 196.5,187 198.5,184 198.5,184 200.209,184 201.998,185.251 204.5,184 208.296,182.102 208.441,176.529 211.5,175 215.778,172.861 234.899,167.2 238.5,169 243.969,171.735 259.866,168.683 262.5,170 262.5,170 263.5,172 263.5,172 265.451,172 267.059,170.78 269.5,172 272.482,173.491 273.48,178 276.5,178 276.5,178 279.5,181 279.5,181 279.5,181 284.5,179 284.5,179 286.411,179 289.979,183 290.5,183 291.499,183 292.881,181.19 294.5,182 297.997,183.749 300.054,190 294,190  Z"/>

<path  fill="#89D355" stroke-width="0" stroke="#89D355" d = " M149 154 L143,156 C140.16,156 137.324,154 134,154 134,154 127.5,151 127.5,151 127.5,151 118,152 118,152 114.443,152 104.438,153.375 103,150.5 103,150.5 106,145 106,145 109.547,145 115.21,140.855 119.5,143 121.153,143.826 145.043,146 146,146 150.986,146 150,150.517 150,153 150,153 149,154 149,154  Z"/>

<path  fill="#89D355" stroke-width="0" stroke="#89D355" d = " M370 148 L371,148 C371,146.814 370,146.814 370,148  Z"/>

<path  fill="#FFBB0D" stroke-width="0" stroke="#FFBB0D" d = " M374 149 C383.365,149 395.469,163.516 382.5,170 380.42,171.04 368.927,163.213 366.5,162 L357,156 C357,156 351,150.5 351,150.5 349.873,148.247 353.777,149.361 354.5,149 358.584,146.958 365.163,148 370,148 370,148 371,148 371,148 371,149.473 372.952,149 374,149  Z"/>

<path  fill="#FFBB0D" stroke-width="0" stroke="#FFBB0D" d = " M138 160 L137,161 C134.057,161 115.533,172.434 114,175.5 114,175.5 114,179.5 114,179.5 113.572,180.356 112.058,178.384 111,180.5 108.598,185.303 107.881,185.738 106,189.5 106,189.5 97,197.5 97,197.5 97,197.5 97,208.5 97,208.5 93.4604,215.579 83.3402,227.08 75.5,231 69.284,234.108 67.392,224.284 66,221.5 61.122,211.744 73.015,198.47 77,190.5 79.6769,185.146 85,180.729 85,175.5 85,175.5 88,174.5 88,174.5 88,174.5 89,169.5 89,169.5 89,169.5 92,167.5 92,167.5 97.067,157.366 94.8772,159.811 104.5,155 106.449,154.025 118,154.604 118,152 118,152 127.5,151 127.5,151 127.5,151 134,154 134,154 134,156.302 140,154.584 140,158 140,158 139,159 139,159 139,159 138,160 138,160  Z"/>

<path  fill="#00FFFF" stroke-width="0" stroke="#00FFFF" d = " M365 234 L364,235 C364,226.487 353.874,230.248 350,222.5 346.411,215.322 342.89,212.695 335.5,209 332.431,207.465 329.356,201.928 325.5,200 325.5,200 316,194.5 316,194.5 315.079,192.658 309.989,185.522 311,183.5 312.09,181.32 318.524,181.548 317,178.5 315.994,176.488 313.605,176.71 313,175.5 312.701,174.902 316.442,170.383 315,167.5 314.187,165.874 316.094,163.689 315,161.5 313.704,158.909 310.14,155.221 312,151.5 313.036,149.429 319.377,157.255 320,158.5 324.507,167.514 327.521,177.542 332,186.5 335.55,193.599 344.358,205.929 352.5,210 357.888,212.694 365.033,216.567 368,222.5 369.828,226.157 365,230.227 365,234  Z"/>

<path  fill="#00FFFF" stroke-width="0" stroke="#00FFFF" d = " M245 152 C245,155.379 235.191,151.883 238,157.5 L251.5,158 C255.365,159.932 262.3,162.101 260,157.5 257.319,152.139 250.518,154 247.5,154 L245,152  Z"/>

<path  fill="#00FFFF" stroke-width="0" stroke="#00FFFF" d = " M234 156 C234,158.112 239.567,156 234,156  Z"/>

<path  fill="#00FFFF" stroke-width="0" stroke="#00FFFF" d = " M167 157 C167,163.375 165.072,157.355 164,159.5 L160,167.5 C154.471,178.557 153.774,188.726 144,198.5 139.388,203.112 126.641,209.218 124,214.5 122.365,217.77 122.513,226.007 126.5,228 130.985,230.242 139.336,223.828 141,220.5 147.608,207.283 166.332,196.836 173,183.5 174.895,179.711 170.366,175.232 169,172.5 167.417,169.333 171.69,157 167,157  Z"/>

<path  fill="#00FFFF" stroke-width="0" stroke="#00FFFF" d = " M336 166 L335,169.5 C339.683,178.866 347.967,193.734 358.5,199 360.837,200.169 367.561,208.378 370,203.5 373.227,197.045 364.778,194.056 363,190.5 356.295,177.09 353.42,174.96 341.5,169 339.323,167.911 338.678,166 336,166  Z"/>

<path  fill="#00FFFF" stroke-width="0" stroke="#00FFFF" d = " M148 167 L141,170.5 C137.52,177.461 129.746,182.007 126,189.5 125.199,191.103 116.538,200.019 120.5,202 126.819,205.16 144.404,182.691 147,177.5 147.929,175.642 150.753,167 148,167  Z"/>

<path  fill="#00FFFF" stroke-width="0" stroke="#00FFFF" d = " M294 190 L293,191 C288.869,191 266.861,182.181 262.5,180 261.015,179.258 255.072,181.786 253.5,181 252.024,180.262 229.556,179.972 227.5,181 223.774,182.863 214.485,186 212,186 212,186 210,186 210,186 206.99,186 200.25,188.875 196.5,187 196.5,187 198.5,184 198.5,184 200.209,184 201.998,185.251 204.5,184 208.296,182.102 208.441,176.529 211.5,175 215.778,172.861 234.899,167.2 238.5,169 243.969,171.735 259.866,168.683 262.5,170 262.5,170 263.5,172 263.5,172 265.451,172 267.059,170.78 269.5,172 272.482,173.491 273.48,178 276.5,178 276.5,178 279.5,181 279.5,181 279.5,181 284.5,179 284.5,179 286.411,179 289.979,183 290.5,183 291.499,183 292.881,181.19 294.5,182 297.997,183.749 300.054,190 294,190  Z"/>

<path  fill="#00FFFF" stroke-width="0" stroke="#00FFFF" d = " M184 184 C184,185.57 179.703,189.094 179,190.5 172.506,203.487 157.141,213.218 151,225.5 149.928,227.643 136.766,236.133 142.5,239 147.652,241.576 158.507,242.486 163,233.5 164.152,231.195 163.796,227.907 165,225.5 167.222,221.056 174.009,221.482 176,217.5 177.948,213.605 173.309,210.881 175,207.5 176.597,204.306 177.432,200.636 179,197.5 L180.5,199 L182.5,195 L191,187.5 C191.677,186.145 185.449,184 184,184  Z"/>

<path  fill="#00FFFF" stroke-width="0" stroke="#00FFFF" d = " M195 187 C195,191.42 196.206,187 195,187  Z"/>

<path  fill="#FFBB0D" stroke-width="0" stroke="#FFBB0D" d = " M401 190 L399,191.5 C397.341,194.818 397.341,205.182 399,208.5 400.679,211.858 416.947,225.606 421,217.5 L422,210.5 C420.737,207.975 402.635,190 401,190  Z"/>

<path  fill="#00FFFF" stroke-width="0" stroke="#00FFFF" d = " M353 242 L348,245 C348,245 347.5,240 347.5,240 347.5,240 345.5,242 345.5,242 338.683,242 334.736,245.118 324.5,240 318.54,237.02 320.187,225.843 314.5,223 310.155,220.827 307.044,221.772 303.5,220 300.853,218.677 298.436,215.968 296.5,215 296.5,215 288.5,214 288.5,214 287.255,213.378 276.583,204 275.5,204 272.221,204 265.34,203.92 261.5,202 260.896,201.698 249.21,206 247.5,206 243.876,206 235.829,204.336 230.5,207 228.985,207.758 229.093,210.296 230.5,211 230.5,211 235,210 235,210 236.87,210 240.671,212 242.5,212 248.059,212 279.529,206.441 274,217.5 269.101,227.298 260.813,220.843 256.5,223 245.033,228.733 227.813,220 218.5,220 217.435,220 215.376,215.252 215,214.5 215,214.5 213,214.5 213,214.5 211.909,212.318 208.953,210.227 206.5,209 201.394,206.447 193.43,217.36 190,210.5 188.2,206.9 193.685,197.093 197.5,199 201.087,200.793 197.38,197 199.5,197 201.683,197 208.482,196.509 211.5,195 211.5,195 214.5,196 214.5,196 222.225,196 250.435,197.032 256.5,194 263.415,190.543 283.724,196.112 291.5,200 294.075,201.287 294.057,203.615 295,205.5 295,205.5 297,205.5 297,205.5 297,205.5 298.5,209 298.5,209 298.5,209 299.5,207 299.5,207 303.02,207 307.125,213.687 312.5,211 314.339,210.081 309.061,203 311.5,203 311.5,203 312.5,207 312.5,207 313.969,207 312.154,201.808 314,205.5 314,205.5 331,218.5 331,218.5 331,221.046 322.938,221.375 327,229.5 329.512,234.524 336.793,233 341,233 342.925,233 350,233.847 350,236 350,242.362 351,242.362 351,236 351,236 353,239 353,239 353,239 353,242 353,242  Z"/>

<path  fill="#00FFFF" stroke-width="0" stroke="#00FFFF" d = " M309 200 C309,205.567 311.112,200 309,200  Z"/>

<path  fill="#9953FF" stroke-width="0" stroke="#9953FF" d = " M188 216 L191,216 C191,220.024 188,219.129 188,216  Z"/>

<path  fill="#9953FF" stroke-width="0" stroke="#9953FF" d = " M276 346 L275.5,342 L260.5,342 L260,346.5 C259.277,347.945 258,346.591 258,349 253.287,349 252.354,344.927 248.5,343 244.358,340.929 239.261,345 236,345 236,339.144 231.013,343.757 227.5,342 227.5,342 229,337.5 229,337.5 229,337.5 223.5,333 223.5,333 223.5,333 220.5,334 220.5,334 213.343,334 210.109,337.718 214,345.5 214.396,346.293 225.69,348 227,348 227,349.643 223.235,349 222,349 218.04,349 211.915,347.707 208.5,346 203.518,343.509 197.393,343.447 192.5,341 187.95,338.725 174.349,324.198 172,319.5 172,319.5 172,315.5 172,315.5 172,315.5 167,311 167,311 169.043,311 167,310.038 167,309.5 167,308.564 170.372,306.244 167,299.5 167,299.5 161,294 161,294 161,294 162.5,295 162.5,295 162.5,295 163,287.5 163,287.5 163,278.765 162,271.731 162,264 162,264 162,262 162,262 162,262 162,261 162,261 162,261 162,259 162,259 162,257.535 163.115,255 162,255 162,255 162.5,249 162.5,249 163.98,249 164.416,252.667 166,249.5 167.187,247.127 163,248.671 163,247.5 163,247.5 168,242.5 168,242.5 168,242.5 166,240.5 166,240.5 166,240.5 170,238.5 170,238.5 170.949,236.603 180,225.431 180,225 180,225 181,224 181,224 181,224 182,223 182,223 182,223 183,222 183,222 184.747,222 185,221.747 185,220 185,220 186,219 186,219 186,219 186,218 186,218 186,218 188.5,220 188.5,220 188.5,220 193,219 193,219 195.581,219 208,221.527 208,217 208,217 211,219 211,219 211,219 212,219 212,219 212,219 215,225.5 215,225.5 215.669,226.837 217,223.686 217,226 217,226 217,230 217,230 215.93,230 214.538,225.981 212.5,227 209.489,228.506 210.307,229.887 209,232.5 204.044,242.413 216.758,247.129 222.5,250 222.5,250 224.5,252 224.5,252 224.5,252 226.5,251 226.5,251 229.427,252.463 231.014,256 234.5,256 239.238,256 253.414,258.043 259.5,255 262.031,253.735 265.322,250.589 268.5,249 268.5,249 273.5,249 273.5,249 274.524,248.488 281.336,237 282,237 283.186,237 283.186,236 282,236 279.316,236 277.465,231 276,231 276,231 273,228.5 273,228.5 273,227.229 276,224.708 276,223 276,223 277,221 277,221 277,221 278,220 278,220 278,220 279,220 279,220 289.218,220 298.607,223.054 306.5,227 306.5,227 315,235 315,235 315,235 316,236 316,236 316,236 317,237 317,237 317,237 317,238 317,238 317,238 318,239 318,239 318,240.481 320,239.785 320,242 320,247.747 319.049,247.549 323.5,252 323.5,252 325,254 325,254 325,261.156 329.861,283.778 327,289.5 326.389,290.722 324,295.981 324,297 320.791,297 322.938,298.624 322,300.5 321.287,301.925 316.439,303.378 318,306.5 318,306.5 320,310 320,310 320,316.657 314.78,322.72 308.5,329 305.83,331.67 305.849,336.825 301.5,339 294.287,342.607 284.602,346 276,346  Z"/>

<path  fill="#00FFFF" stroke-width="0" stroke="#00FFFF" d = " M182 222 L183,222 C183,222 183,221 183,221 183,221 182,222 182,222  Z"/>

<path  fill="#EB57FF" stroke-width="0" stroke="#EB57FF" d = " M282 236 L282,237 C281.336,237 274.524,248.488 273.5,249 273.5,249 268.5,249 268.5,249 265.322,250.589 262.031,253.735 259.5,255 253.414,258.043 239.238,256 234.5,256 231.014,256 229.427,252.463 226.5,251 226.5,251 224.5,252 224.5,252 224.5,252 222.5,250 222.5,250 216.758,247.129 204.044,242.413 209,232.5 210.307,229.887 209.489,228.506 212.5,227 214.538,225.981 215.93,230 217,230 217,230 230,230 230,230 230,230 232,230 232,230 232,232.496 239.82,232.16 241.5,233 241.5,233 244.5,236 244.5,236 244.551,236.026 248.881,233 251,233 254.385,233 257.663,231.419 260.5,230 264.552,227.974 272.299,231 276,231 277.465,231 279.316,236 282,236  Z"/>

<path  fill="#86CC4C" stroke-width="0" stroke="#86CC4C" d = " M324 297 C324,299.373 326.284,297 327,297 327,295.762 327.423,294 329,294 329,294 330,292 330,292 330,292 331,290 331,290 331,290 332,285 332,285 332,285 332,283 332,283 332,283 333,282 333,282 333,278.98 336.942,272 338,272 338,272 339,270 339,270 342.074,270 342.943,266 349,266 349,264.24 353.288,262.606 354.5,262 357.131,260.685 359.614,255.271 361,252.5 361.894,250.712 361.076,243.788 359.5,243 358.176,242.338 353,244.207 353,242 353,242 348,245 348,245 348,245 345,246 345,246 345,246 342,247 342,247 342,249.144 337.738,247.381 336.5,248 332.793,249.853 325,248.915 325,254 325,261.156 329.861,283.778 327,289.5 326.389,290.722 324,295.981 324,297  Z"/>

<path  fill="#86CC4C" stroke-width="0" stroke="#86CC4C" d = " M160 293 L161,294 C161,294 162.5,295 162.5,295 162.5,295 163,287.5 163,287.5 163,278.765 162,271.731 162,264 160.601,264 160.601,262 162,262 162,262 162,261 162,261 160.601,261 160.601,259 162,259 162,257.535 163.115,255 162,255 162,255 158.5,252 158.5,252 156.57,251.035 133.482,243.509 132.5,244 132.5,244 128,246.5 128,246.5 128,254.287 132.558,265 141,265 143.718,265 146.396,270 148,270 148,270 149,271 149,271 149,271 150,273 150,273 150,273 151,274 151,274 151,275.491 156.808,286 158,286 159.175,286 160,291.704 160,293  Z"/>

<path  fill="#FA8072" stroke-width="0" stroke="#FA8072" d = " M161 294 L167,299.5 C170.372,306.244 167,308.564 167,309.5 167,310.038 169.043,311 167,311 167,311 165.5,313 165.5,313 164.716,313 155.745,313.122 155.5,313 144.494,307.497 140.165,297.83 135,287.5 135,287.5 135,278.5 135,278.5 135,278.5 133,272.5 133,272.5 133,272.5 136.5,266 136.5,266 137.647,265.426 141,267.064 141,265 143.718,265 146.396,270 148,270 148,270 149,271 149,271 149,271 150,273 150,273 150,273 151,274 151,274 151,275.491 156.808,286 158,286 158,287.813 157.027,293 160,293 160,293 161,294 161,294  Z"/>

<path  fill="#FA8072" stroke-width="0" stroke="#FA8072" d = " M324 297 C320.791,297 322.938,298.624 322,300.5 321.287,301.925 316.439,303.378 318,306.5 L320,310 C334.587,310 343.774,304.952 351,290.5 352.845,286.81 357.678,266 349,266 342.943,266 342.074,270 339,270 339,270 338,272 338,272 336.942,272 333,278.98 333,282 333,282 332,283 332,283 332,283 332,285 332,285 333.979,285 333.202,290 331,290 331,290 330,292 330,292 330,292 329,294 329,294 329,295.238 328.577,297 327,297 326.284,297 324,299.373 324,297  Z"/>

<path  fill="#9953FF" stroke-width="0" stroke="#9953FF" d = " M332 285 C333.979,285 333.202,290 331,290 331,290 332,285 332,285  Z"/>

<path  fill="#9953FF" stroke-width="0" stroke="#9953FF" d = " M158 286 C159.175,286 160,291.704 160,293 157.027,293 158,287.813 158,286  Z"/>

<path  fill="#9953FF" stroke-width="0" stroke="#9953FF" d = " M331 290 L330,292 C330,292 331,290 331,290  Z"/>

<path  fill="#9953FF" stroke-width="0" stroke="#9953FF" d = " M329 294 C327.423,294 327,295.762 327,297 328.577,297 329,295.238 329,294  Z"/>

<path  fill="#46A515" stroke-width="0" stroke="#46A515" d = " M366 311 C366,312.781 359.803,312.348 358.5,313 354.913,314.794 348.29,319.08 351,324.5 356.975,336.449 363.963,321.731 372.5,326 374.19,326.845 386.031,334.234 386.5,334 391.226,331.637 388.406,327.312 387,324.5 L386,319.5 C383.005,313.511 371.876,311 366,311  Z"/>

<path  fill="#46A515" stroke-width="0" stroke="#46A515" d = " M113 315 C113,316.223 106.636,316.772 108,319.5 109.286,322.072 117.632,316.566 120.5,318 124.25,319.875 127.619,322.059 131.5,324 L134,322.5 C134,315.19 118.315,315 113,315  Z"/>

<path  fill-rule="evenodd" fill="#46A515" stroke-width="0" stroke="#46A515" d = " M116 330 L114,333.5 C115.852,337.204 125.399,330 118.5,330 L116,330  M115 326 C115,328.284 109.012,329.244 107.5,330 L102,336.5 C99.9692,340.562 112.662,355.919 116.5,354 118.632,352.934 124.878,350.257 123,346.5 L117,340.5 C117.685,339.129 122.552,342.526 123.5,343 128.515,345.507 131.773,343.954 134,339.5 137.564,332.371 120.021,326 115,326  Z"/>

<path  fill-rule="evenodd" fill="#46A515" stroke-width="0" stroke="#46A515" d = " M380 341 C380,346.574 383.145,341 380,341  M376 340 L375,342.5 C376.22,344.94 380.834,340 376,340  M367 328 C367,329.781 360.803,329.348 359.5,330 357.658,330.921 351,337.321 351,339.5 351,346.17 365,350.412 365,343.5 365,341.3 360,337.705 360,336.5 360,335.15 368.458,333.479 369.5,334 370.897,334.698 374.847,341 373.5,341 368.994,341 363.162,345.824 366,351.5 368.334,356.168 382.392,351.715 384,348.5 389.577,337.346 377.097,328 367,328  Z"/>

<path  fill="#FF3427" stroke-width="0" stroke="#FF3427" d = " M236 345 C236,347.153 228.925,348 227,348 225.69,348 214.396,346.293 214,345.5 210.109,337.718 213.343,334 220.5,334 220.5,334 223.5,333 223.5,333 223.5,333 229,337.5 229,337.5 229,337.5 227.5,342 227.5,342 231.013,343.757 236,339.144 236,345  Z"/>

<path  fill="#FF3427" stroke-width="0" stroke="#FF3427" d = " M258 349 C258,351.703 270,351.703 270,349 267.051,349 271.96,347 273,347 273,344.319 275.078,346 276,346 276,346 275.5,342 275.5,342 275.5,342 260.5,342 260.5,342 260.5,342 260,346.5 260,346.5 259.277,347.945 258,346.591 258,349  Z"/>

<path  fill="#9953FF" stroke-width="0" stroke="#9953FF" d = " M276 346 C275.078,346 273,344.319 273,347 274.048,347 276,347.473 276,346  Z"/>

<path  fill="#9953FF" stroke-width="0" stroke="#9953FF" d = " M273 347 C271.96,347 267.051,349 270,349 270,349 273,347 273,347  Z"/>

</g>
</svg>
