<svg xmlns="http://www.w3.org/2000/svg" xmlns:xlink="http://www.w3.org/1999/xlink" height="512" width="512">
<g>
<rect width="512" height="512" fill="#000000"  stroke-width="0" /> 
<path  fill-rule="evenodd" fill="#86FF5A" stroke-width="0" stroke="#86FF5A" d = " M240 352 C240,353.996 237.789,357.078 239,359.5 245.312,372.124 258.566,352 240,352  M245 315 C245,316.996 232.884,317.192 230.5,316 226.997,314.249 224.862,320 222.5,320 221.112,320 218.528,317.986 216.5,319 L213,324.5 C211.833,326.833 207.623,327.253 207,328.5 203.224,336.053 200.921,343.658 197,351.5 L197,355.5 C187.971,373.557 211.004,400.752 223.5,407 L226.5,406 C228.71,407.105 236.821,408.339 239.5,407 L245.5,402 C247.987,402 256.327,410.586 263.5,407 273.146,402.177 284.026,393.449 289,383.5 290.153,381.194 290.549,378.401 292,375.5 L291,372.5 L292.5,373 L295,368.5 C296.76,364.979 290.664,345.828 289,342.5 L287,333.5 L279,325.5 L278.5,322 L273.5,322 C265.047,317.773 255.891,315 245,315  Z"/>

<path  fill="#EB57FF" stroke-width="0" stroke="#EB57FF" d = " M240 352 C240,353.996 237.789,357.078 239,359.5 245.312,372.124 258.566,352 240,352  Z"/>

</g>
</svg>
