<svg xmlns="http://www.w3.org/2000/svg" xmlns:xlink="http://www.w3.org/1999/xlink" height="512" width="512">
<g>
<rect width="512" height="512" fill="#000000"  stroke-width="0" /> 
<path  fill-rule="evenodd" fill="#FFFF00" stroke-width="0" stroke="#FFFF00" d = " M410 242 C410,245.746 412.091,242 410,242  M379 223 C379,230.435 381.905,223 379,223  M112 226 L111,228 C104.232,228 106.001,221.501 104,217.5 104,217.5 101,214 101,214 101,208.551 104.066,217.368 105,215.5 108.251,208.997 103,197.907 103,191.5 103,191.5 104,174.5 104,174.5 104,173.337 104.549,169 102.5,169 98.7374,169 98.9195,177.661 98,179.5 96.6649,182.17 88.9764,201.453 90,203.5 90,203.5 94,211 94,211 89.4838,211 90.4868,208.474 89,205.5 89,205.5 85,203.5 85,203.5 82.6421,198.784 86.228,188.044 88,184.5 88.428,183.644 89.9419,185.616 91,183.5 91,183.5 91,178.5 91,178.5 93.4873,173.525 95.5022,168.496 98,163.5 98,163.5 104.5,157 104.5,157 105.172,157 107.081,159.338 108,157.5 111.021,151.458 112.608,146.946 118.5,144 118.5,144 127.5,135 127.5,135 129.03,135 137.514,126.993 141.5,125 142.199,124.651 148.572,127.644 149,128.5 149,128.5 149.5,133 149.5,133 149.5,133 150.5,128 150.5,128 152.803,128 153.197,128 155.5,128 155.5,128 159.5,123 159.5,123 159.5,123 160.5,125 160.5,125 160.5,125 162.5,123 162.5,123 164.325,122.087 166.316,124 167.5,124 167.5,124 170.5,122 170.5,122 170.5,122 171.5,124 171.5,124 173.433,124 175.343,118.579 176.5,118 178.928,116.786 176.037,121 178.5,121 178.5,121 180.5,117 180.5,117 180.5,117 181.5,119 181.5,119 181.769,119 183.621,110.257 184,109.5 185.519,106.463 192.899,102.3 195.5,101 196.09,100.705 202.013,91.7435 203.5,91 203.5,91 205.5,92 205.5,92 205.5,92 210.5,87 210.5,87 210.5,87 216.5,85 216.5,85 221.099,82.7007 254.684,83.5918 259.5,86 259.5,86 270.5,87 270.5,87 271.108,87.3042 281,95.9267 281,96.5 281,96.7206 279.424,101 281.5,101 284.588,101 296.119,98.7377 297,100.5 299.592,105.685 300.037,111.574 302,115.5 302,115.5 304,115.5 304,115.5 304.633,116.766 304.288,125 306.5,125 306.5,125 307,121.5 307,121.5 307,121.5 310.5,118 310.5,118 310.5,118 314.5,120 314.5,120 315.833,120 317.167,118 318.5,118 318.5,118 321.5,121 321.5,121 321.5,121 323.5,119 323.5,119 323.5,119 324.5,121 324.5,121 324.5,121 333.5,123 333.5,123 333.5,123 336.5,128 336.5,128 336.5,128 338.5,126 338.5,126 340.452,126 345.574,124 348.5,124 348.5,124 350.5,127 350.5,127 350.5,127 353.5,126 353.5,126 353.981,126 365.734,131.234 366,131.5 366,131.5 372.5,142 372.5,142 375.208,142 373.289,142.894 375.5,144 377.027,144.763 379.78,144 380.5,144 384.637,144 397.402,167.304 399,170.5 399,170.5 400,178.5 400,178.5 404.435,187.37 405.168,198.163 401,206.5 400.003,208.494 395.19,207.155 393.5,208 393.5,208 393,211.5 393,211.5 391.495,214.511 381.506,213.513 385,220.5 386.024,222.548 389.353,217.073 389.5,217 389.504,216.998 405.658,216.579 406.5,217 410.747,219.123 419.477,231.546 417,236.5 417,236.5 412,241.5 412,241.5 410.203,245.095 416.134,251.231 413,257.5 413,257.5 410,258.5 410,258.5 403.885,270.731 391.718,255.891 385.5,259 383.865,259.817 383.417,259.042 381.5,260 381.5,260 380.5,262 380.5,262 380.5,262 377.5,261 377.5,261 377.5,261 374.5,265 374.5,265 364.186,265 358,266.277 358,251 359.94,251 361.108,249 361.5,249 361.5,249 361,256 361,256 361,256 366.5,262 366.5,262 369.523,263.511 376.983,257.259 379.5,256 385.271,253.114 401.196,258 407.5,258 407.5,258 408.5,255 408.5,255 413.196,252.652 408.232,243.366 403.5,241 394.344,236.422 371.059,255.619 365,243.5 362.52,238.539 379.586,237.957 381.5,237 383.907,235.796 381.841,233.33 382.5,233 385.003,231.748 390.121,235 392.5,235 392.5,235 394.5,233 394.5,233 394.5,233 396.5,236 396.5,236 397.723,236 399.474,235 400.5,235 400.5,235 405.5,238 405.5,238 410.393,238 412.023,232.547 410,228.5 407.381,223.262 401.363,227.931 397.5,226 390.414,222.457 382.198,233.849 376.5,231 376.5,231 375.5,226 375.5,226 373.361,224.931 369.389,226.278 368,223.5 366.44,220.38 365.533,216.565 364,213.5 363.572,212.644 362.058,214.616 361,212.5 361,212.5 362,205.5 362,205.5 361.082,203.663 359.846,197.808 361,195.5 363.085,191.329 366,189.342 366,183.5 366,183.5 363,162.5 363,162.5 363.942,160.615 365.635,164.23 367,161.5 368.118,159.263 372.675,145.85 371,142.5 369.026,138.553 362.6,139 360.5,139 360.5,139 358.5,135 358.5,135 358.5,135 357.5,137 357.5,137 357.5,137 353.5,133 353.5,133 348.299,130.4 344.923,137.346 347,141.5 352.167,151.834 353,163.207 353,174.5 353,174.5 352.5,187 352.5,187 352.5,187 349.5,186 349.5,186 349.5,186 347.5,187 347.5,187 344.535,185.518 343.362,181.224 342,178.5 342,178.5 338,175.5 338,175.5 338,175.5 336.5,165 336.5,165 335.919,165 335.959,169.417 335,167.5 330.551,158.603 339.869,140.237 335,130.5 334.262,129.024 329.648,130.574 328.5,130 328.5,130 327.5,127 327.5,127 327.5,127 326.5,129 326.5,129 326.5,129 325.5,127 325.5,127 323.595,126.047 320.405,128.953 318.5,128 318.5,128 316.5,126 316.5,126 314.545,126 315,129.889 315,131 315,134.772 318.376,140.251 320,143.5 323.02,149.54 321.473,157.446 324,162.5 328.581,171.662 334.334,178.167 339,187.5 340.343,190.186 340.615,193.73 342,196.5 344.748,201.995 348.241,206.983 351,212.5 351.327,213.153 353.245,218 352.5,218 352.5,218 349.5,216 349.5,216 349.5,216 345.5,218 345.5,218 326.765,208.633 318.745,188.989 310,171.5 309.205,169.909 310,166.198 310,165.5 310,160.99 307.037,144.574 305,140.5 301.088,132.676 301.897,122.295 298,114.5 298,114.5 295,112.5 295,112.5 295,112.5 294.5,107 294.5,107 283.362,107 287.892,110.304 284.5,112 284.5,112 280,112.5 280,112.5 280,113.54 284.545,112.41 283,115.5 281.679,118.142 279.598,114 279.5,114 279.5,114 278.5,118 278.5,118 278.5,118 281.5,118 281.5,118 281.5,118 281,119.5 281,119.5 281,119.5 283.5,120 283.5,120 283.5,120 288.5,125 288.5,125 288.5,125 291,125.5 291,125.5 293.153,129.805 293.843,135.186 296,139.5 297.424,142.348 301.969,147.561 300,151.5 295.601,160.298 281.074,134.787 277.5,133 277.5,133 262.5,125 262.5,125 255.643,121.572 244.932,127.716 239.5,125 228.222,119.361 207.526,133.974 200.5,141 196.914,144.586 193.321,149.59 188.5,152 187.651,152.425 184.828,155.157 184,153.5 181.097,147.695 187.911,140.678 190,136.5 201.454,113.591 208.576,120.462 227.5,111 227.5,111 229.5,112 229.5,112 229.5,112 230.5,110 230.5,110 232.234,109.133 234.661,109.92 236.5,109 241.531,106.484 257.54,111.02 261.5,113 261.5,113 263.5,111 263.5,111 263.5,111 265.5,113 265.5,113 267.068,113.784 275,113.34 275,112.5 275,110.848 269.593,112 269.5,112 269.5,112 268.5,109 268.5,109 267.734,108.617 265,109.316 265,107.5 265,102.565 273.827,106.336 276.5,105 276.5,105 276,100.5 276,100.5 276,100.5 267.5,93 267.5,93 267.5,93 239.5,92 239.5,92 232.943,92 220.274,89.1132 214.5,92 208.457,95.0214 204.156,100.172 198.5,103 198.5,103 195.5,107 195.5,107 195.5,107 192.5,107 192.5,107 190.362,108.069 191.598,112.451 190.5,113 190.5,113 188,112.5 188,112.5 186.211,116.077 189.044,121.413 188,123.5 187.572,124.356 186.058,122.384 185,124.5 182.263,129.973 180.017,135.465 177,141.5 177,141.5 178,159.5 178,159.5 175.588,164.324 174.405,169.689 172,174.5 165.361,187.779 156.263,209.118 142.5,216 139.286,217.607 131.556,226.028 127.5,224 127.5,224 127,218.5 127,218.5 129.94,212.621 134.11,207.279 137,201.5 143.222,189.055 153.845,178.81 160,166.5 162.572,161.356 160.632,151.237 163,146.5 164.681,143.138 170.27,136.04 168,131.5 166.139,127.777 162.884,131 162.5,131 160.873,131 159.059,126.382 155,134.5 155,134.5 153,134.5 153,134.5 153,134.5 153,145.5 153,145.5 146.476,158.548 152.393,181.053 136.5,189 136.5,189 131.5,192 131.5,192 129.54,192 129.017,182.466 130,180.5 133.98,172.54 131.019,161.462 135,153.5 136.491,150.517 146.027,136.264 141.5,134 137.656,132.078 135.803,138.349 134.5,139 132.988,139.756 132.348,136.804 131,139.5 130.116,141.267 131.789,144.855 129.5,146 126.723,147.389 125.885,146.808 123.5,148 123.5,148 122.5,152 122.5,152 122.5,152 120.5,150 120.5,150 119.404,149.452 114.725,154.05 114,155.5 110.715,162.07 121,167.952 121,170.5 121,172.901 120.133,179.234 119,181.5 117.199,185.102 123.44,202.619 120,209.5 117.125,215.249 123.242,225 113,225 113,225 112,226 112,226  M383 216 L381,223.5 C382.699,226.899 384,217.185 384,216 384,211.935 384.321,207.857 386,204.5 386,204.5 388,204.5 388,204.5 388.646,203.208 386.697,197 389.5,197 392.891,197 394.814,206.872 400,196.5 402.361,191.778 390.39,165.89 388,163.5 386.828,162.328 383.598,151.451 380.5,153 377.939,154.28 379.021,162.543 380,164.5 385.494,175.487 374.413,205.325 379,214.5 379.863,216.225 380.024,205 380.5,205 380.5,205 381,211 381,211 381,214.041 383,213.477 383,216  Z"/>

<path  fill-rule="evenodd" fill="#00FFFF" stroke-width="0" stroke="#00FFFF" d = " M324 224 C324,227.037 329.011,240.244 331.5,239 333.719,237.891 328.991,224 324,224  M167 218 C167,221.883 153.31,235.405 158.5,238 160.316,238.908 160.31,233.595 161.5,233 164.787,231.357 174.732,218 167,218  M171 216 C171,219.479 174.479,216 171,216  M174 214 C174,219.567 176.112,214 174,214  M180 212 C180,217.567 182.112,212 180,212  M287 211 C287,212.93 288.93,211 287,211  M285 211 C285,214.746 287.091,211 285,211  M204 211 C204,214.746 206.091,211 204,211  M264 209 C264,210.361 257.742,211.379 256.5,212 245.485,217.508 229.873,215.186 219.5,210 217.484,208.992 209.257,212.013 211,215.5 212.817,219.133 219.484,219.492 222.5,221 235.06,227.28 265.03,229.441 273,213.5 275.731,208.039 266.674,209 264,209  M275 188 C275,189.141 262.512,192.006 260.5,191 259.67,190.585 248.713,191.894 246.5,193 241.256,195.622 212.402,192.451 207.5,190 203.205,187.852 190.172,192.844 193,198.5 195.124,202.748 206.839,198.169 210.5,200 228.743,209.121 257.396,207.052 275.5,198 279.687,195.906 289.647,202.205 292,197.5 296.317,188.865 279.435,188 275,188  M239 162 C239,163.59 234.614,163.443 233.5,164 227.76,166.87 221,165.258 221,173 L220,175.5 C222.659,180.818 231.018,175.259 234.5,177 234.749,177.124 268.982,178.259 271.5,177 277.158,174.171 268.593,167.546 265.5,166 L257.5,162 L254.5,163 C250.242,160.871 243.182,162 239,162  M249 138 C249,140.562 235.529,137.986 233.5,139 L205.5,147 C187.683,155.908 183.127,175.247 175,191.5 173.853,193.795 163.24,205.981 164,207.5 166.612,212.725 171.341,206.08 173.5,205 183.717,199.892 188.434,189.631 193,180.5 198.921,168.659 206.916,161.792 218.5,156 222.033,154.234 226.842,154.829 230.5,153 233.145,151.677 236.786,152.357 239.5,151 243.626,148.937 253.307,151.403 256.5,153 261.692,155.596 267.006,152.753 271.5,155 281.094,159.797 283.917,168.333 288,176.5 L292,180.5 C295.584,187.669 300.333,193.833 306.5,200 L314,203.5 C316.878,197.744 307.685,186.87 305,181.5 302.433,176.366 300.547,170.594 298,165.5 289.689,148.878 266.512,138 249,138  M115 258 L116,259 C117.102,259 120.006,259.247 120.5,259 121.916,258.292 128,244.337 128,253 139.915,253 148.017,243 160,243 160,243 161,242 161,242 161,239.131 168.658,239 171,239 171,239 174,239 174,239 174,236.715 182.831,236.834 184.5,236 192.026,232.237 203.023,231 212,231 212,231 213.5,227 213.5,227 213.5,227 222.5,236 222.5,236 226.487,237.994 235.723,235.112 237.5,236 239.342,236.921 242.994,240.253 245.5,239 253.567,234.966 261.593,238.953 263.5,238 263.5,238 264.5,236 264.5,236 264.5,236 266.5,237 266.5,237 270.022,235.239 277,222.328 277,229 285.209,229 292.994,228.247 300.5,232 301.614,232.557 306,232.41 306,234 309.863,234 312.505,237 314,237 317.424,237 342.608,249 344.5,249 344.5,249 346.5,247 346.5,247 346.5,247 347.5,250 347.5,250 352.377,250 348.398,247.449 353.5,250 355.034,250.767 358,247.632 358,251 359.94,251 361.108,249 361.5,249 361.5,249 361,256 361,256 361,256 366.5,262 366.5,262 369.523,263.511 376.983,257.259 379.5,256 385.271,253.114 401.196,258 407.5,258 407.5,258 408.5,255 408.5,255 413.196,252.652 408.232,243.366 403.5,241 394.344,236.422 371.059,255.619 365,243.5 362.52,238.539 379.586,237.957 381.5,237 383.907,235.796 381.841,233.33 382.5,233 385.003,231.748 390.121,235 392.5,235 392.5,235 394.5,233 394.5,233 394.5,233 396.5,236 396.5,236 397.723,236 399.474,235 400.5,235 400.5,235 405.5,238 405.5,238 410.393,238 412.023,232.547 410,228.5 407.381,223.262 401.363,227.931 397.5,226 390.414,222.457 382.198,233.849 376.5,231 376.5,231 375.5,226 375.5,226 373.361,224.931 369.389,226.278 368,223.5 366.44,220.38 365.533,216.565 364,213.5 363.572,212.644 362.058,214.616 361,212.5 361,212.5 362,205.5 362,205.5 361.082,203.663 359.846,197.808 361,195.5 363.085,191.329 366,189.342 366,183.5 366,183.5 363,162.5 363,162.5 363.942,160.615 365.635,164.23 367,161.5 368.118,159.263 372.675,145.85 371,142.5 369.026,138.553 362.6,139 360.5,139 360.5,139 358.5,135 358.5,135 358.5,135 357.5,137 357.5,137 357.5,137 353.5,133 353.5,133 348.299,130.4 344.923,137.346 347,141.5 352.167,151.834 353,163.207 353,174.5 353,174.5 352.5,187 352.5,187 352.5,187 349.5,186 349.5,186 349.5,186 347.5,187 347.5,187 344.535,185.518 343.362,181.224 342,178.5 342,178.5 338,175.5 338,175.5 338,175.5 336.5,165 336.5,165 335.919,165 335.959,169.417 335,167.5 330.551,158.603 339.869,140.237 335,130.5 334.262,129.024 329.648,130.574 328.5,130 328.5,130 327.5,127 327.5,127 327.5,127 326.5,129 326.5,129 326.5,129 325.5,127 325.5,127 323.595,126.047 320.405,128.953 318.5,128 318.5,128 316.5,126 316.5,126 314.545,126 315,129.889 315,131 315,134.772 318.376,140.251 320,143.5 323.02,149.54 321.473,157.446 324,162.5 328.581,171.662 334.334,178.167 339,187.5 340.343,190.186 340.615,193.73 342,196.5 344.748,201.995 348.241,206.983 351,212.5 351.327,213.153 353.245,218 352.5,218 352.5,218 349.5,216 349.5,216 349.5,216 345.5,218 345.5,218 326.765,208.633 318.745,188.989 310,171.5 309.205,169.909 310,166.198 310,165.5 310,160.99 307.037,144.574 305,140.5 301.088,132.676 301.897,122.295 298,114.5 298,114.5 295,112.5 295,112.5 295,112.5 294.5,107 294.5,107 283.362,107 287.892,110.304 284.5,112 284.5,112 280,112.5 280,112.5 280,113.54 284.545,112.41 283,115.5 281.679,118.142 279.598,114 279.5,114 279.5,114 278.5,118 278.5,118 278.5,118 281.5,118 281.5,118 281.5,118 281,119.5 281,119.5 281,119.5 283.5,120 283.5,120 283.5,120 288.5,125 288.5,125 288.5,125 291,125.5 291,125.5 293.153,129.805 293.843,135.186 296,139.5 297.424,142.348 301.969,147.561 300,151.5 295.601,160.298 281.074,134.787 277.5,133 277.5,133 262.5,125 262.5,125 255.643,121.572 244.932,127.716 239.5,125 228.222,119.361 207.526,133.974 200.5,141 196.914,144.586 193.321,149.59 188.5,152 187.651,152.425 184.828,155.157 184,153.5 181.097,147.695 187.911,140.678 190,136.5 201.454,113.591 208.576,120.462 227.5,111 227.5,111 229.5,112 229.5,112 229.5,112 230.5,110 230.5,110 232.234,109.133 234.661,109.92 236.5,109 241.531,106.484 257.54,111.02 261.5,113 261.5,113 263.5,111 263.5,111 263.5,111 265.5,113 265.5,113 267.068,113.784 275,113.34 275,112.5 275,110.848 269.593,112 269.5,112 269.5,112 268.5,109 268.5,109 267.734,108.617 265,109.316 265,107.5 265,102.565 273.827,106.336 276.5,105 276.5,105 276,100.5 276,100.5 276,100.5 267.5,93 267.5,93 267.5,93 239.5,92 239.5,92 232.943,92 220.274,89.1132 214.5,92 208.457,95.0214 204.156,100.172 198.5,103 198.5,103 195.5,107 195.5,107 195.5,107 192.5,107 192.5,107 190.362,108.069 191.598,112.451 190.5,113 190.5,113 188,112.5 188,112.5 186.211,116.077 189.044,121.413 188,123.5 187.572,124.356 186.058,122.384 185,124.5 182.263,129.973 180.017,135.465 177,141.5 177,141.5 178,159.5 178,159.5 175.588,164.324 174.405,169.689 172,174.5 165.361,187.779 156.263,209.118 142.5,216 139.286,217.607 131.556,226.028 127.5,224 127.5,224 127,218.5 127,218.5 129.94,212.621 134.11,207.279 137,201.5 143.222,189.055 153.845,178.81 160,166.5 162.572,161.356 160.632,151.237 163,146.5 164.681,143.138 170.27,136.04 168,131.5 166.139,127.777 162.884,131 162.5,131 160.873,131 159.059,126.382 155,134.5 155,134.5 153,134.5 153,134.5 153,134.5 153,145.5 153,145.5 146.476,158.548 152.393,181.053 136.5,189 136.5,189 131.5,192 131.5,192 129.54,192 129.017,182.466 130,180.5 133.98,172.54 131.019,161.462 135,153.5 136.491,150.517 146.027,136.264 141.5,134 137.656,132.078 135.803,138.349 134.5,139 132.988,139.756 132.348,136.804 131,139.5 130.116,141.267 131.789,144.855 129.5,146 126.723,147.389 125.885,146.808 123.5,148 123.5,148 122.5,152 122.5,152 122.5,152 120.5,150 120.5,150 119.404,149.452 114.725,154.05 114,155.5 110.715,162.07 121,167.952 121,170.5 121,172.901 120.133,179.234 119,181.5 117.199,185.102 123.44,202.619 120,209.5 117.125,215.249 123.242,225 113,225 113,225 114,229.5 114,229.5 112.026,233.448 107,232.18 107,237 107,237.465 118.487,240.507 113.5,243 113.5,243 107.5,240 107.5,240 107.5,240 95,239 95,239 92.1672,239 81.0817,242.663 83,246.5 85.2325,250.965 88.5034,247 90.5,247 90.5,247 93.5,250 93.5,250 93.5,250 95.5,248 95.5,248 99.6877,248 103.897,252.199 107.5,254 107.5,254 115,258 115,258  Z"/>

<path  fill="#FFFF00" stroke-width="0" stroke="#FFFF00" d = " M249 138 C249,140.562 235.529,137.986 233.5,139 L205.5,147 C187.683,155.908 183.127,175.247 175,191.5 173.853,193.795 163.24,205.981 164,207.5 166.612,212.725 171.341,206.08 173.5,205 183.717,199.892 188.434,189.631 193,180.5 198.921,168.659 206.916,161.792 218.5,156 222.033,154.234 226.842,154.829 230.5,153 233.145,151.677 236.786,152.357 239.5,151 243.626,148.937 253.307,151.403 256.5,153 261.692,155.596 267.006,152.753 271.5,155 281.094,159.797 283.917,168.333 288,176.5 L292,180.5 C295.584,187.669 300.333,193.833 306.5,200 L314,203.5 C316.878,197.744 307.685,186.87 305,181.5 302.433,176.366 300.547,170.594 298,165.5 289.689,148.878 266.512,138 249,138  Z"/>

<path  fill="#00FFFF" stroke-width="0" stroke="#00FFFF" d = " M383 216 L384,216 C384,211.935 384.321,207.857 386,204.5 386,204.5 388,204.5 388,204.5 388.646,203.208 386.697,197 389.5,197 392.891,197 394.814,206.872 400,196.5 402.361,191.778 390.39,165.89 388,163.5 386.828,162.328 383.598,151.451 380.5,153 377.939,154.28 379.021,162.543 380,164.5 385.494,175.487 374.413,205.325 379,214.5 379.863,216.225 380.024,205 380.5,205 380.5,205 381,211 381,211 381,214.041 383,213.477 383,216  Z"/>

<path  fill="#FFFF00" stroke-width="0" stroke="#FFFF00" d = " M239 162 C239,163.59 234.614,163.443 233.5,164 227.76,166.87 221,165.258 221,173 L220,175.5 C222.659,180.818 231.018,175.259 234.5,177 234.749,177.124 268.982,178.259 271.5,177 277.158,174.171 268.593,167.546 265.5,166 L257.5,162 L254.5,163 C250.242,160.871 243.182,162 239,162  Z"/>

<path  fill="#00FFFF" stroke-width="0" stroke="#00FFFF" d = " M94 211 C94,213.896 99.9864,214 101,214 101,208.551 104.066,217.368 105,215.5 108.251,208.997 103,197.907 103,191.5 103,191.5 104,174.5 104,174.5 104,173.337 104.549,169 102.5,169 98.7374,169 98.9195,177.661 98,179.5 96.6649,182.17 88.9764,201.453 90,203.5 90,203.5 94,211 94,211  Z"/>

<path  fill="#FFFF00" stroke-width="0" stroke="#FFFF00" d = " M275 188 C275,189.141 262.512,192.006 260.5,191 259.67,190.585 248.713,191.894 246.5,193 241.256,195.622 212.402,192.451 207.5,190 203.205,187.852 190.172,192.844 193,198.5 195.124,202.748 206.839,198.169 210.5,200 228.743,209.121 257.396,207.052 275.5,198 279.687,195.906 289.647,202.205 292,197.5 296.317,188.865 279.435,188 275,188  Z"/>

<path  fill="#FFFF00" stroke-width="0" stroke="#FFFF00" d = " M264 209 C264,210.361 257.742,211.379 256.5,212 245.485,217.508 229.873,215.186 219.5,210 217.484,208.992 209.257,212.013 211,215.5 212.817,219.133 219.484,219.492 222.5,221 235.06,227.28 265.03,229.441 273,213.5 275.731,208.039 266.674,209 264,209  Z"/>

<path  fill="#FFFF00" stroke-width="0" stroke="#FFFF00" d = " M204 211 C204,214.746 206.091,211 204,211  Z"/>

<path  fill="#FFFF00" stroke-width="0" stroke="#FFFF00" d = " M285 211 C285,214.746 287.091,211 285,211  Z"/>

<path  fill="#FFFF00" stroke-width="0" stroke="#FFFF00" d = " M287 211 C287,212.93 288.93,211 287,211  Z"/>

<path  fill="#FFFF00" stroke-width="0" stroke="#FFFF00" d = " M180 212 C180,217.567 182.112,212 180,212  Z"/>

<path  fill="#FFFF00" stroke-width="0" stroke="#FFFF00" d = " M174 214 C174,219.567 176.112,214 174,214  Z"/>

<path  fill="#FFFF00" stroke-width="0" stroke="#FFFF00" d = " M171 216 C171,219.479 174.479,216 171,216  Z"/>

<path  fill="#FFFF00" stroke-width="0" stroke="#FFFF00" d = " M167 218 C167,221.883 153.31,235.405 158.5,238 160.316,238.908 160.31,233.595 161.5,233 164.787,231.357 174.732,218 167,218  Z"/>

<path  fill="#FFFF00" stroke-width="0" stroke="#FFFF00" d = " M77 220 C77,221.708 72.1708,227.158 71,229.5 70.0433,231.413 70.6011,239.051 72.5,240 75.1004,241.3 75.3627,238.569 76.5,238 L79.5,239 L80.5,235 C83.5117,235 82.4883,236 85.5,236 L86,226.5 C84.7844,224.069 79.2166,220 77,220  Z"/>

<path  fill="#46A515" stroke-width="0" stroke="#46A515" d = " M421 222 L420,225.5 C420,234.443 430.794,222 421,222  Z"/>

<path  fill="#FFFF00" stroke-width="0" stroke="#FFFF00" d = " M324 224 C324,227.037 329.011,240.244 331.5,239 333.719,237.891 328.991,224 324,224  Z"/>

<path  fill="#FFFF00" stroke-width="0" stroke="#FFFF00" d = " M89 226 C89,233.389 91.1106,226 89,226  Z"/>

<path  fill="#00FFFF" stroke-width="0" stroke="#00FFFF" d = " M112 226 L111,228 C111,228 112,226 112,226  Z"/>

<path  fill="#FFFF00" stroke-width="0" stroke="#FFFF00" d = " M277 229 L274,234.5 C273.085,236.33 272.797,239.851 270.5,241 256.87,247.815 236.531,242 223.5,242 220.986,242 212,234.52 212,231 212,231 213.5,227 213.5,227 213.5,227 222.5,236 222.5,236 226.487,237.994 235.723,235.112 237.5,236 239.342,236.921 242.994,240.253 245.5,239 253.567,234.966 261.593,238.953 263.5,238 263.5,238 264.5,236 264.5,236 264.5,236 266.5,237 266.5,237 270.022,235.239 277,222.328 277,229  Z"/>

<path  fill="#46A515" stroke-width="0" stroke="#46A515" d = " M58 227 L55,231.5 C54.3977,232.705 56.1567,236.672 57.5,236 60.3102,234.595 61.7735,227 58,227  Z"/>

<path  fill="#FFFF00" stroke-width="0" stroke="#FFFF00" d = " M87 227 C87,234.389 89.1106,227 87,227  Z"/>

<path  fill-rule="evenodd" fill="#9953FF" stroke-width="0" stroke="#9953FF" d = " M322 317 C322,322.474 330.182,317 322,317  M174 301 C174,303.283 160.561,311.531 165.5,314 168.075,315.287 185.985,301 174,301  M308 299 L307,302.5 L320.5,315 L323,310.5 C323,306.617 312.612,303.056 310.5,302 308.688,301.094 311.207,299 308,299  M220 257 C220,260.746 222.091,257 220,257  M249 348 C251.631,348 262.197,345.849 262.5,346 264.546,347.023 264.096,348.798 264.5,349 265.727,349.613 273,349.656 273,351 291.27,351 320.737,336.025 329,319.5 330.82,315.86 335,314.417 335,310 335,310 323,308.5 323,308.5 323,308.5 326,305.5 326,305.5 326,305.5 325,302.5 325,302.5 325,302.5 328,299.5 328,299.5 329.583,296.335 330.352,292.796 332,289.5 332,289.5 329,278.5 329,278.5 326.329,273.158 329,264.614 329,259 326.351,259 327.991,253.746 326.5,253 318.567,249.033 323.29,252.08 320,245.5 318.325,242.149 314,243.848 314,237 312.505,237 309.863,234 306,234 303.877,234 302.97,237 301.5,237 301.5,237 294.5,232 294.5,232 292.675,231.087 290.684,233 289.5,233 288.17,233 287.604,229.948 285.5,231 282.524,232.488 286.105,238 283,238 283,238 282,242 282,242 282,242 281,244 281,244 281,244 280,245 280,245 280,251.394 271.324,256 265,256 265,256 265,257 265,257 268.873,257 264.92,258 263,258 263,258 260.5,261 260.5,261 257.572,262.464 250.01,262 248,262 246.512,262 239,265.153 239,261 234.358,261 213.124,254.749 210,248.5 210,248.5 208,242.5 208,242.5 207.011,240.522 205,240.477 205,238 203.514,238 203.514,235 205,235 205,235 205,234 205,234 193.837,234 185.742,239 174,239 174,239 171,239 171,239 171,240.227 162.856,242 161,242 161,242 160,243 160,243 160,243 162,244.5 162,244.5 162,244.5 158,245.5 158,245.5 158,245.5 161,246.5 161,246.5 161,246.5 157,253 157,253 159.83,253 154.772,263.043 156,265.5 158.45,270.4 159.052,281.396 156,287.5 153.104,293.292 168.619,303.262 167,306.5 164.839,310.822 160.514,307.986 158,310.5 158,310.5 153,309 153,309 153,316.813 160.945,325.723 167.5,329 167.5,329 176.5,337 176.5,337 189.735,343.618 196.741,348 213,348 213,343.529 214.731,345.384 217.5,344 224.497,340.501 225.032,344.266 232.5,348 232.5,348 239,347 239,347 242.325,347 246.31,348 249,348  Z"/>

<path  fill="#EB57FF" stroke-width="0" stroke="#EB57FF" d = " M221 247 C226.698,247 233.956,244.228 239.5,247 242.476,248.488 243.152,261 239,261 234.358,261 213.124,254.749 210,248.5 210,248.5 208,242.5 208,242.5 207.011,240.522 205,240.477 205,238 205,238 205,235 205,235 205,235 205,234 205,234 205,232.722 209.07,231.285 210.5,232 211.709,232.604 216,242.81 216,244 216,246.887 221,249.833 221,247  Z"/>

<path  fill="#EB57FF" stroke-width="0" stroke="#EB57FF" d = " M263 258 L260.5,261 C257.572,262.464 250.01,262 248,262 248,255.481 243.926,246 254,246 254,246 260.5,246 260.5,246 262.541,247.02 267.88,250.31 270.5,249 275.386,246.557 275.313,229.406 280.5,232 282.643,233.072 281.221,238 283,238 283,238 282,242 282,242 282,242 281,244 281,244 281,244 280,245 280,245 280,251.394 271.324,256 265,256 265,256 263,257 263,257 263,257 263,258 263,258  Z"/>

<path  fill="#00FFFF" stroke-width="0" stroke="#00FFFF" d = " M92 236 L93,236 C93,233.788 92,233.788 92,236  Z"/>

<path  fill="#FFFF00" stroke-width="0" stroke="#FFFF00" d = " M115 258 L116,259 C117.102,259 120.006,259.247 120.5,259 121.916,258.292 128,244.337 128,253 128,255.606 127.05,255.4 126,257.5 123.699,262.101 121.985,266.243 115.5,263 114.644,262.572 116.616,261.058 114.5,260 111.024,258.262 105.982,256.241 101.5,254 96.023,251.261 87.0865,255.793 81.5,253 74.3294,249.415 85.8566,236 92,236 92,236 93,236 93,236 93.2924,236 94.4025,235 98,235 98,235 99,236 99,236 101.707,236 104.903,237 107,237 107,237.465 118.487,240.507 113.5,243 113.5,243 107.5,240 107.5,240 107.5,240 95,239 95,239 92.1672,239 81.0817,242.663 83,246.5 85.2325,250.965 88.5034,247 90.5,247 90.5,247 93.5,250 93.5,250 93.5,250 95.5,248 95.5,248 99.6877,248 103.897,252.199 107.5,254 107.5,254 115,258 115,258  Z"/>

<path  fill="#FFFF00" stroke-width="0" stroke="#FFFF00" d = " M422 234 L421,237.5 C421.989,239.479 424.349,242 425.5,242 L427.5,245 C429.598,245 428.503,237.507 428,236.5 L425.5,236 C424.985,235.743 426.583,232.958 424.5,234 L423.5,236 L422,234  Z"/>

<path  fill="#00FFFF" stroke-width="0" stroke="#00FFFF" d = " M98 235 L99,236 C99,236 98,235 98,235  Z"/>

<path  fill="#9953FF" stroke-width="0" stroke="#9953FF" d = " M216 244 L221,247 C221,249.833 216,246.887 216,244  Z"/>

<path  fill="#FA8072" stroke-width="0" stroke="#FA8072" d = " M157 253 C159.83,253 154.772,263.043 156,265.5 158.45,270.4 159.052,281.396 156,287.5 153.104,293.292 168.619,303.262 167,306.5 164.839,310.822 160.514,307.986 158,310.5 L153,309 C149.23,309 151.278,306.056 149,301.5 147.567,298.635 142,294.703 142,291.5 142,291.193 144.81,268.879 145,268.5 147.838,262.825 147.625,253 157,253  Z"/>

<path  fill="#FAF4F7" stroke-width="0" stroke="#FAF4F7" d = " M220 257 C220,260.746 222.091,257 220,257  Z"/>

<path  fill="#FAF4F7" stroke-width="0" stroke="#FAF4F7" d = " M265 257 C268.873,257 264.92,258 263,258 263,258 263,257 263,257 263,257 265,257 265,257  Z"/>

<path  fill="#FA8072" stroke-width="0" stroke="#FA8072" d = " M336 309 L335,310 C335,310 323,308.5 323,308.5 323,308.5 326,305.5 326,305.5 326,305.5 325,302.5 325,302.5 325,302.5 328,299.5 328,299.5 329.583,296.335 330.352,292.796 332,289.5 332,289.5 329,278.5 329,278.5 326.329,273.158 329,264.614 329,259 331.099,259 333.383,255.442 336.5,257 338.748,258.124 343,277.49 343,280.5 343,280.5 342,283.5 342,283.5 343.234,285.969 346.541,293.417 345,296.5 344.524,297.452 336,308.194 336,309  Z"/>

<path  fill="#46A515" stroke-width="0" stroke="#46A515" d = " M398 274 L393.5,277 C391.181,278.159 375.706,281.912 379,288.5 381.992,294.483 392.82,286.34 395.5,285 399.512,282.994 402.815,287 407,287 L409.5,285 C411.103,285 414.314,288 415.5,288 418.886,288 418.969,282.766 420.5,282 L427,279.5 C428.062,277.376 415.321,274.09 413.5,275 L409.5,278 C407.581,277.04 408.659,275.818 408,274.5 L398,274  Z"/>

<path  fill-rule="evenodd" fill="#46A515" stroke-width="0" stroke="#46A515" d = " M94 284 L93,288.5 L94.5,287 C95.3498,287 97,288.35 97,287.5 L94,284  M77 278 C77,279.763 73.9998,284.75 78.5,287 81.8279,288.664 82.1214,282.811 86.5,285 L88.5,289 L92.5,289 L92,290.5 L94.5,291 C95.3195,291.41 96.4948,295.003 98.5,294 102.98,291.76 97,291.094 97,289.5 L103,286.5 L101,285.5 L99.5,283 L83.5,282 C82.224,281.362 83.1458,278 77,278  Z"/>

<path  fill="#46A515" stroke-width="0" stroke="#46A515" d = " M107 290 L104,291.5 L106.5,292 L108,296.5 L105,298.5 L105,304.5 L103,307.5 L106,310.5 L104,313.5 L107.5,314 C117.132,309.184 111.404,290 107,290  Z"/>

<path  fill="#46A515" stroke-width="0" stroke="#46A515" d = " M394 292 C394,295.986 377.946,291.607 375,297.5 372.228,303.044 385.905,316.69 381,326.5 L381,332.5 C379.264,335.972 357.858,342.679 368.5,348 377.794,352.647 382.98,337.76 384.5,337 386.826,335.837 395.9,347.7 402,335.5 409.572,320.356 401.936,325.372 398,317.5 L398,300.5 L401,294.5 C401,292.249 395.507,292 394,292  Z"/>

<path  fill="#00B03F" stroke-width="0" stroke="#00B03F" d = " M308 299 L307,302.5 L320.5,315 L323,310.5 C323,306.617 312.612,303.056 310.5,302 308.688,301.094 311.207,299 308,299  Z"/>

<path  fill="#00B03F" stroke-width="0" stroke="#00B03F" d = " M174 301 C174,303.283 160.561,311.531 165.5,314 168.075,315.287 185.985,301 174,301  Z"/>

<path  fill="#9953FF" stroke-width="0" stroke="#9953FF" d = " M336 309 L335,310 C335,310 336,309 336,309  Z"/>

<path  fill="#00B03F" stroke-width="0" stroke="#00B03F" d = " M322 317 C322,322.474 330.182,317 322,317  Z"/>

<path  fill="#46A515" stroke-width="0" stroke="#46A515" d = " M351 320 C351,321.091 343.165,323.83 345,327.5 345.744,328.989 349.605,334.291 349,335.5 L345,340.5 C350.315,351.131 368.853,345.205 364,335.5 361.697,330.893 353.64,336.781 352,333.5 350.771,331.042 363.334,325.917 353.5,321 L351,320  Z"/>

<path  fill="#46A515" stroke-width="0" stroke="#46A515" d = " M117 321 L113,323.5 C112.736,324.028 112.423,330.347 113,331.5 114.263,334.025 118,332.771 118,336.5 118,339.587 106.96,342.23 104.5,341 101.459,339.48 98.0008,327.498 95,333.5 91.7941,339.912 99.6916,339.883 101,342.5 102.396,345.292 100,345.159 100,347.5 100,351.299 116.962,356.269 119.5,355 138.703,345.398 125.609,343.717 122,336.5 120.289,333.078 127.083,321 117,321  Z"/>

<path  fill="#46A515" stroke-width="0" stroke="#46A515" d = " M128 325 L127,327.5 C130.032,333.563 134.965,325 128,325  Z"/>

<path  fill="#46A515" stroke-width="0" stroke="#46A515" d = " M133 330 C133,334.518 132.598,332.049 136.5,334 139.736,335.618 136.618,342.559 139.5,344 143.215,345.857 146.554,334.609 145,331.5 143.579,328.657 135.788,330 133,330  Z"/>

<path  fill="#FF3427" stroke-width="0" stroke="#FF3427" d = " M239 347 L232.5,348 C225.032,344.266 224.497,340.501 217.5,344 214.731,345.384 213,343.529 213,348 213,354.164 239,357.725 239,347  Z"/>

<path  fill="#FF3427" stroke-width="0" stroke="#FF3427" d = " M249 348 C251.631,348 262.197,345.849 262.5,346 264.546,347.023 264.096,348.798 264.5,349 265.727,349.613 273,349.656 273,351 270.73,351 269.373,353.064 267.5,354 262.492,356.504 256.505,354.003 252.5,352 250.709,351.104 249,350.464 249,348  Z"/>

</g>
</svg>
