<svg xmlns="http://www.w3.org/2000/svg" xmlns:xlink="http://www.w3.org/1999/xlink" height="512" width="512">
<g>
<rect width="512" height="512" fill="#000000"  stroke-width="0" /> 
<path  fill-rule="evenodd" fill="#FFFF00" stroke-width="0" stroke="#FFFF00" d = " M321 116 C321,117.93 322.93,116 321,116  M311 113 C311,115.683 312.123,121 307.5,121 L306.5,119 L305.5,121 L304.5,119 L303.5,123 L302.5,120 C301.82,120 300.423,126.347 301,127.5 L304.5,126 C306.253,126 307.044,127 308.5,127 L310.5,123 C312.138,122.181 313.858,123.321 316.5,122 L317.5,118 L318.5,121 C319.558,121 318.398,112.051 316.5,113 L315.5,118 C312.371,118 313.804,113 311,113  M178 112 C178,113.93 179.93,112 178,112  M272 99 C272,100.167 274.363,104.068 272.5,105 271.279,105.61 268.347,102.807 267,105.5 L267.5,109 C264.371,110.565 234.458,108.021 232.5,109 L231.5,112 L216.5,113 C214.488,114.006 214.71,116.395 213.5,117 L205.5,117 L201.5,121 L199.5,119 L196.5,123 C195.062,123.719 192.808,123.884 192,125.5 191.042,127.416 193.203,129.648 190.5,131 189.633,131.433 187.077,130.288 186.5,130 185.287,129.393 181.604,132.052 179.5,131 179.371,130.936 171.268,118.036 171,117.5 170.17,115.841 161.248,117.004 161,117.5 159.128,121.245 164.618,126.735 166,129.5 168.081,133.662 161.939,139.72 168.5,143 L172.5,142 L180.5,142 C181.737,141.381 186.599,128.698 191,137.5 L191,140.5 C191.794,142.088 196.048,141.404 194,145.5 193.572,146.356 192.058,144.384 191,146.5 L188,155.5 C187.346,156.807 169.703,169.898 167.5,171 162.893,173.304 158.223,168.138 154.5,170 L138.5,176 C135.296,177.602 121.405,194.31 118,187.5 L118,180.5 L113,176.5 C110.878,172.255 113.042,165.416 115,161.5 117.177,157.146 130.514,147.528 129,144.5 125.706,137.912 119.33,145.085 115.5,147 113.877,147.812 114.725,149.387 113.5,150 98.7711,157.364 101.305,164.89 95,177.5 93.9974,179.505 95.056,182.388 94,184.5 92.4281,187.644 98.2063,191.913 99,193.5 100.147,195.794 99.8353,199.171 101,201.5 L105.5,206 C113.861,201.819 123.16,200.17 131.5,196 132.045,195.727 141,192.649 141,194.5 141,202.95 126.381,210.059 120.5,213 L110.5,213 C109.22,213.64 108.314,216.128 109,217.5 110.288,220.077 120.394,235.053 122.5,234 128.352,231.074 127.38,227.741 130,222.5 132.035,218.429 137.934,217.633 140,213.5 142.181,209.138 140.5,204 146.5,201 151.058,198.721 155.03,195.235 159.5,193 162.381,191.559 164.398,197.051 168.5,195 181.635,188.433 190.206,159.647 201.5,154 205.161,152.169 209.509,149.495 212.5,148 214.966,146.767 220.043,149.729 221.5,149 223.663,147.919 224.26,145.62 225.5,145 L236.5,142 C240.958,139.771 253.91,142.205 257.5,144 260.978,145.739 267.51,143 270.5,143 273.471,143 283.719,148.61 286.5,150 L300,169.5 C302.374,174.248 334.297,200.898 338.5,203 343.013,205.256 353.034,215.568 355,219.5 355.749,220.998 353.701,225.902 355,228.5 356.041,230.582 359.698,235.401 362.5,234 369.959,230.271 365.239,225.022 368,219.5 369.297,216.905 378.89,214.28 377,210.5 374.935,206.371 365.926,208.713 362.5,207 354.154,202.827 331,194.396 331,182.5 L333.5,182 C336.144,180.678 339.746,182.623 342.5,184 349.039,187.27 354.981,190.741 361.5,194 L372.5,197 C374.687,198.094 380.977,203.545 383,199.5 387.368,190.764 364.549,189.403 368,182.5 370.08,178.34 374.691,178.096 378.5,180 379.491,180.495 383.838,183.825 385,181.5 387.272,176.955 384.117,168.734 382,164.5 L381,158.5 C378.655,153.81 372.999,149.499 371,145.5 364.629,132.757 356.615,131 343.5,131 L343.5,135 L359,150.5 C360.058,152.616 365.345,158.809 364,161.5 362.848,163.804 360.495,163.002 358.5,164 355.938,165.281 354.793,169.354 351.5,171 348.007,172.746 332.715,165.608 329.5,164 L319.5,164 C311.189,159.844 295.72,152.941 292,145.5 290.412,142.325 290.286,137.071 289,134.5 L287,130.5 L285,129.5 L286.5,126 C288.514,126 288.939,131 289.5,131 L290.5,129 L291.5,131 L293.5,129 L295,129.5 L296.5,124 C297.076,124 297.022,129.456 298,127.5 L298,120.5 C297.833,120.166 296.559,122.619 295,119.5 294.289,118.078 294,110 291.5,110 L290.5,112 C287.35,112 290.179,103 288.5,103 L287.5,105 C283.854,105 281.979,99.7394 280.5,99 L272,99  M238 94 L237,95.5 C237,97.3578 243.354,94 238,94  M222 93 C222,95.9572 215.65,93.9249 213.5,95 L209.5,98 L208.5,97 L207.5,100 C206.7,100 206.788,96.8562 204.5,98 L195,107.5 L205.5,108 L205,106.5 L209.5,104 C211.737,102.882 215.209,103.646 216.5,103 218.048,102.226 217.066,99.217 217.5,99 220.757,97.3714 225.694,99 228.5,99 230.658,99 229,96.7027 229,96.5 L231,95.5 L225.5,95 C223.881,94.1907 224.029,93 222,93  M242 92 L241,95.5 C241,97.2935 246.341,94.9205 246.5,95 L249.5,97 L255,95.5 L253,94.5 C253,90.6563 246.379,92 242,92  M264 242 L266,242 C266,238.78 272.92,240 275,240 275,237.804 286.589,234.955 288.5,234 293.518,231.491 295.094,218.797 301.5,222 301.5,222 308.5,227 308.5,227 308.5,227 310.5,230 310.5,230 315.829,230 328.955,239.727 335.5,243 340.659,245.579 346.168,251.166 352.5,248 352.5,248 354.5,245 354.5,245 355.151,245 356.151,247.198 357,245.5 357,245.5 357.5,237 357.5,237 357.5,237 359.5,239 359.5,239 360.127,239.314 364.856,239 365.5,239 365.5,239 367,236.5 367,236.5 367,236.5 370,236.5 370,236.5 371.654,233.191 371.391,228.718 373,225.5 373,225.5 378,219.5 378,219.5 378,219.5 378,215.5 378,215.5 378.959,213.583 378.919,218 379.5,218 379.5,218 380,214 380,214 380,212.398 383.058,211.616 382,209.5 381.358,208.217 379.047,207.405 380,205.5 380,205.5 386,200.5 386,200.5 386.795,198.909 386,195.198 386,194.5 386,194.5 389,192.5 389,192.5 389,192.5 388,187.5 388,187.5 395.114,173.273 383.106,153.713 378,143.5 373.134,133.768 350.007,118 343.5,118 343.5,118 341.5,115 341.5,115 341.5,115 338.5,116 338.5,116 332.303,112.901 329.431,114.465 324.5,112 324.5,112 324.5,110 324.5,110 322.967,109.233 321.182,108.841 319.5,108 319.5,108 307.5,107 307.5,107 305.488,105.994 305.71,103.605 304.5,103 304.5,103 291.5,102 291.5,102 288.951,100.725 287.53,97.5148 284.5,96 280.042,93.771 274.375,93 271.5,93 271.5,93 269.5,90 269.5,90 269.5,90 253.5,90 253.5,90 253.5,90 252.5,87 252.5,87 252.5,87 238.5,86 238.5,86 236.537,86.9817 233.023,91.7617 229.5,90 229.5,90 228.5,87 228.5,87 228.5,87 227.5,90 227.5,90 225.338,91.0809 218.698,90 217.5,90 217.5,90 215.5,92 215.5,92 215.5,92 212.5,91 212.5,91 210.534,91 195.671,97.9144 193.5,99 193.205,99.1475 190.177,104.145 190,104.5 190,104.5 187,105.5 187,105.5 187,106.679 187.679,109 186.5,109 185.869,109 183.312,109.094 181.5,110 181.5,110 180.5,112 180.5,112 179.112,112 176.528,109.986 174.5,111 174.5,111 174.5,113 174.5,113 174.5,113 171.5,112 171.5,112 169.28,112 165.833,113 163.5,113 163.5,113 161.5,111 161.5,111 161.5,111 154.5,116 154.5,116 152.042,116 150.074,116 148.5,116 148.5,116 145.5,118 145.5,118 145.007,118.246 139.755,117 139.5,117 139.5,117 137,118.5 137,118.5 136.141,120.217 129.082,123.209 125.5,125 125.5,125 116.5,135 116.5,135 115.17,135.665 112.122,136.255 112,136.5 112,136.5 111,140.5 111,140.5 111,140.5 103,147.5 103,147.5 100.651,152.198 99.3296,157.841 97,162.5 95.2819,165.936 89.2096,176.919 92,182.5 94.8992,188.298 94.1294,195.759 97,201.5 97,201.5 100,204.5 100,204.5 100,204.5 100,208.5 100,208.5 100,208.5 103,208.5 103,208.5 103,208.5 105,221.5 105,221.5 111.191,233.883 113.16,238 126.5,238 129.957,238 128.874,251 135.5,251 149.807,251 161.967,236 169.5,236 171.094,236 182.292,221.396 185.5,223 185.5,223 186,227.5 186,227.5 187.58,230.66 193.725,232.613 196.5,234 197.899,234.699 220,237.416 220,240 220,240 222,240 222,240 225.835,240 242.532,242.516 245.5,244 250.578,246.539 258.958,242 262,242 262,240.07 263.161,242 264,242  M250 238 L251,238 C257.104,238 280.645,232.928 286.5,230 288.247,229.127 294.063,223.625 293,221.5 293,221.5 287.5,223 287.5,223 287.5,223 286.5,219 286.5,219 286.5,219 285.5,221 285.5,221 285.5,221 278.5,219 278.5,219 277.1,219 276.048,221 275.5,221 275.5,221 272.5,219 272.5,219 272.024,219 268.042,222 265.5,222 265.5,222 264.5,220 264.5,220 264.5,220 263.5,222 263.5,222 260.201,223.65 227.963,217.769 221.5,221 219.695,221.903 206.029,218.235 202.5,220 201.216,220.642 199.687,220.406 198.5,221 198.5,221 197.5,223 197.5,223 193.758,223 190.812,215.876 188,221.5 186.671,224.159 191.938,226.219 193.5,227 201.729,231.115 212.08,227.79 216.5,230 216.5,230 222.5,230 222.5,230 229.801,233.651 234.651,238 242.5,238 243.866,238 250,240.042 250,238  M239 195 L240,195 C248.455,195 258.866,195 268.5,195 268.5,195 271.5,194 271.5,194 274.153,195.326 277.956,193.728 280.5,195 280.5,195 281.5,197 281.5,197 281.5,197 285.5,195 285.5,195 288.908,196.704 297.553,212.394 296,215.5 294.294,218.912 293.649,210 293.5,210 290.5,210 287.5,207 284.5,207 282.089,207 271.447,210.474 270.5,210 270.5,210 265.5,207 265.5,207 265.5,207 255.5,208 255.5,208 245.959,208 228.517,205.492 221.5,209 218.29,210.605 202.839,207.83 200.5,209 200.5,209 197.5,211 197.5,211 197.5,211 196,209.5 196,209.5 194.244,213.012 198.217,216 193.5,216 193.5,216 191.5,218 191.5,218 191.5,218 191,216 191,216 191,213.486 194.44,213.619 195,212.5 195,212.5 194.5,204 194.5,204 194.5,204 193.5,207 193.5,207 193.5,207 192.5,204 192.5,204 192.279,204 190.958,212.542 187.5,216 187.5,216 159.5,236 159.5,236 152.789,239.355 146.51,243.995 140.5,247 140.5,247 137.5,245 137.5,245 137.126,245 133,244.999 133,242.5 133,239.566 140.957,237.587 141,237.5 148.193,223.114 155.439,220.53 168.5,214 168.5,214 175.5,213 175.5,213 188.392,206.554 192.179,178.66 203.5,173 206.491,171.505 209.289,173.606 212.5,172 213.613,171.444 214.47,169 216.5,169 224.723,169 253.822,168.161 259.5,171 261.04,171.77 273.409,166.954 281.5,171 291.594,176.047 302.017,198.758 304.5,200 311.84,203.67 329.863,209.226 334,217.5 334,217.5 337,230.5 337,230.5 337,230.5 342.5,231 342.5,231 343.973,231.737 352.971,239.559 352,241.5 351.081,243.338 349.172,241 348.5,241 342.091,241 338.203,236.851 330.5,233 321.25,228.375 304.646,223.791 299,212.5 297.046,208.591 287.614,187.557 284.5,186 284.5,186 273.5,181 273.5,181 273.5,181 256,181 256,181 243.459,181 228.679,178.41 217.5,184 217.5,184 208.5,185 208.5,185 199.46,189.52 202.166,189.169 198,197.5 197.865,197.769 194.024,205 196.5,205 196.5,205 199.5,198 199.5,198 206.657,194.421 228.918,195 239,195  Z"/>

<path  fill-rule="evenodd" fill="#00FFFF" stroke-width="0" stroke="#00FFFF" d = " M250 94 C250,96.0912 253.746,94 250,94  M242 92 L241,95.5 C241,97.2935 246.341,94.9205 246.5,95 L249.5,97 L255,95.5 L253,94.5 C253,90.6563 246.379,92 242,92  Z"/>

<path  fill="#00FFFF" stroke-width="0" stroke="#00FFFF" d = " M222 93 C222,95.9572 215.65,93.9249 213.5,95 L209.5,98 L208.5,97 L207.5,100 C206.7,100 206.788,96.8562 204.5,98 L195,107.5 L205.5,108 L205,106.5 L209.5,104 C211.737,102.882 215.209,103.646 216.5,103 218.048,102.226 217.066,99.217 217.5,99 220.757,97.3714 225.694,99 228.5,99 230.658,99 229,96.7027 229,96.5 L231,95.5 L225.5,95 C223.881,94.1907 224.029,93 222,93  Z"/>

<path  fill="#00FFFF" stroke-width="0" stroke="#00FFFF" d = " M238 94 L237,95.5 C237,97.3578 243.354,94 238,94  Z"/>

<path  fill="#FFFF00" stroke-width="0" stroke="#FFFF00" d = " M250 94 C250,96.0912 253.746,94 250,94  Z"/>

<path  fill-rule="evenodd" fill="#00FFFF" stroke-width="0" stroke="#00FFFF" d = " M286 131 C286,136.567 288.112,131 286,131  M281 124 C281,125.167 276,126.053 276,128.5 L278,129.5 L278.5,133 L279.5,129 L281.5,131 C282.679,131 281,128.679 281,127.5 L284,127.5 C285.355,124.789 283.039,124 281,124  M272 99 C272,100.167 274.363,104.068 272.5,105 271.279,105.61 268.347,102.807 267,105.5 L267.5,109 C264.371,110.565 234.458,108.021 232.5,109 L231.5,112 L216.5,113 C214.488,114.006 214.71,116.395 213.5,117 L205.5,117 L201.5,121 L199.5,119 L196.5,123 C195.062,123.719 192.808,123.884 192,125.5 191.042,127.416 193.203,129.648 190.5,131 189.633,131.433 187.077,130.288 186.5,130 185.287,129.393 181.604,132.052 179.5,131 179.371,130.936 171.268,118.036 171,117.5 170.17,115.841 161.248,117.004 161,117.5 159.128,121.245 164.618,126.735 166,129.5 168.081,133.662 161.939,139.72 168.5,143 L172.5,142 L180.5,142 C181.737,141.381 186.599,128.698 191,137.5 L191,140.5 C191.794,142.088 196.048,141.404 194,145.5 193.572,146.356 192.058,144.384 191,146.5 L188,155.5 C187.346,156.807 169.703,169.898 167.5,171 162.893,173.304 158.223,168.138 154.5,170 L138.5,176 C135.296,177.602 121.405,194.31 118,187.5 L118,180.5 L113,176.5 C110.878,172.255 113.042,165.416 115,161.5 117.177,157.146 130.514,147.528 129,144.5 125.706,137.912 119.33,145.085 115.5,147 113.877,147.812 114.725,149.387 113.5,150 98.7711,157.364 101.305,164.89 95,177.5 93.9974,179.505 95.056,182.388 94,184.5 92.4281,187.644 98.2063,191.913 99,193.5 100.147,195.794 99.8353,199.171 101,201.5 L105.5,206 C113.861,201.819 123.16,200.17 131.5,196 132.045,195.727 141,192.649 141,194.5 141,202.95 126.381,210.059 120.5,213 L110.5,213 C109.22,213.64 108.314,216.128 109,217.5 110.288,220.077 120.394,235.053 122.5,234 128.352,231.074 127.38,227.741 130,222.5 132.035,218.429 137.934,217.633 140,213.5 142.181,209.138 140.5,204 146.5,201 151.058,198.721 155.03,195.235 159.5,193 162.381,191.559 164.398,197.051 168.5,195 181.635,188.433 190.206,159.647 201.5,154 205.161,152.169 209.509,149.495 212.5,148 214.966,146.767 220.043,149.729 221.5,149 223.663,147.919 224.26,145.62 225.5,145 L236.5,142 C240.958,139.771 253.91,142.205 257.5,144 260.978,145.739 267.51,143 270.5,143 273.471,143 283.719,148.61 286.5,150 L300,169.5 C302.374,174.248 334.297,200.898 338.5,203 343.013,205.256 353.034,215.568 355,219.5 355.749,220.998 353.701,225.902 355,228.5 356.041,230.582 359.698,235.401 362.5,234 369.959,230.271 365.239,225.022 368,219.5 369.297,216.905 378.89,214.28 377,210.5 374.935,206.371 365.926,208.713 362.5,207 354.154,202.827 331,194.396 331,182.5 L333.5,182 C336.144,180.678 339.746,182.623 342.5,184 349.039,187.27 354.981,190.741 361.5,194 L372.5,197 C374.687,198.094 380.977,203.545 383,199.5 387.368,190.764 364.549,189.403 368,182.5 370.08,178.34 374.691,178.096 378.5,180 379.491,180.495 383.838,183.825 385,181.5 387.272,176.955 384.117,168.734 382,164.5 L381,158.5 C378.655,153.81 372.999,149.499 371,145.5 364.629,132.757 356.615,131 343.5,131 L343.5,135 L359,150.5 C360.058,152.616 365.345,158.809 364,161.5 362.848,163.804 360.495,163.002 358.5,164 355.938,165.281 354.793,169.354 351.5,171 348.007,172.746 332.715,165.608 329.5,164 L319.5,164 C311.189,159.844 295.72,152.941 292,145.5 290.412,142.325 290.286,137.071 289,134.5 L287,130.5 L285,129.5 L286.5,126 C288.514,126 288.939,131 289.5,131 L290.5,129 L291.5,131 L293.5,129 L295,129.5 L296.5,124 C297.076,124 297.022,129.456 298,127.5 L298,120.5 C297.833,120.166 296.559,122.619 295,119.5 294.289,118.078 294,110 291.5,110 L290.5,112 C287.35,112 290.179,103 288.5,103 L287.5,105 C283.854,105 281.979,99.7394 280.5,99 L272,99  Z"/>

<path  fill="#00FFFF" stroke-width="0" stroke="#00FFFF" d = " M311 113 C311,115.683 312.123,121 307.5,121 L306.5,119 L305.5,121 L304.5,119 L303.5,123 L302.5,120 C301.82,120 300.423,126.347 301,127.5 L304.5,126 C306.253,126 307.044,127 308.5,127 L310.5,123 C312.138,122.181 313.858,123.321 316.5,122 L317.5,118 L318.5,121 C319.558,121 318.398,112.051 316.5,113 L315.5,118 C312.371,118 313.804,113 311,113  Z"/>

<path  fill="#00FFFF" stroke-width="0" stroke="#00FFFF" d = " M321 116 C321,117.93 322.93,116 321,116  Z"/>

<path  fill="#FFFF00" stroke-width="0" stroke="#FFFF00" d = " M281 124 C281,125.167 276,126.053 276,128.5 L278,129.5 L278.5,133 L279.5,129 L281.5,131 C282.679,131 281,128.679 281,127.5 L284,127.5 C285.355,124.789 283.039,124 281,124  Z"/>

<path  fill="#FFFF00" stroke-width="0" stroke="#FFFF00" d = " M286 131 C286,136.567 288.112,131 286,131  Z"/>

<path  fill="#00FFFF" stroke-width="0" stroke="#00FFFF" d = " M239 195 C228.918,195 206.657,194.421 199.5,198 L196.5,205 C194.024,205 197.865,197.769 198,197.5 202.166,189.169 199.46,189.52 208.5,185 L217.5,184 C228.679,178.41 243.459,181 256,181 L273.5,181 L284.5,186 C287.614,187.557 297.046,208.591 299,212.5 304.646,223.791 321.25,228.375 330.5,233 338.203,236.851 342.091,241 348.5,241 349.172,241 351.081,243.338 352,241.5 352.971,239.559 343.973,231.737 342.5,231 L337,230.5 L334,217.5 C329.863,209.226 311.84,203.67 304.5,200 302.017,198.758 291.594,176.047 281.5,171 273.409,166.954 261.04,171.77 259.5,171 253.822,168.161 224.723,169 216.5,169 214.47,169 213.613,171.444 212.5,172 209.289,173.606 206.491,171.505 203.5,173 192.179,178.66 188.392,206.554 175.5,213 L168.5,214 C155.439,220.53 148.193,223.114 141,237.5 140.957,237.587 133,239.566 133,242.5 133,244.999 137.126,245 137.5,245 L140.5,247 C146.51,243.995 152.789,239.355 159.5,236 L187.5,216 C190.958,212.542 192.279,204 192.5,204 L193.5,207 L194.5,204 L195,212.5 C194.44,213.619 191,213.486 191,216 L191.5,218 L193.5,216 C198.217,216 194.244,213.012 196,209.5 L197.5,211 L200.5,209 C202.839,207.83 218.29,210.605 221.5,209 228.517,205.492 245.959,208 255.5,208 L265.5,207 L270.5,210 C271.447,210.474 282.089,207 284.5,207 287.5,207 290.5,210 293.5,210 293.649,210 294.294,218.912 296,215.5 297.553,212.394 288.908,196.704 285.5,195 L281.5,197 L280.5,195 C277.956,193.728 274.153,195.326 271.5,194 L268.5,195 C258.866,195 248.455,195 240,195 240,196.186 239,196.186 239,195  Z"/>

<path  fill="#00FFFF" stroke-width="0" stroke="#00FFFF" d = " M250 238 C250,240.042 243.866,238 242.5,238 234.651,238 229.801,233.651 222.5,230 L216.5,230 C212.08,227.79 201.729,231.115 193.5,227 191.938,226.219 186.671,224.159 188,221.5 190.812,215.876 193.758,223 197.5,223 L198.5,221 C199.687,220.406 201.216,220.642 202.5,220 206.029,218.235 219.695,221.903 221.5,221 227.963,217.769 260.201,223.65 263.5,222 L264.5,220 L265.5,222 C268.042,222 272.024,219 272.5,219 L275.5,221 C276.048,221 277.1,219 278.5,219 L285.5,221 L286.5,219 L287.5,223 L293,221.5 C294.063,223.625 288.247,229.127 286.5,230 280.645,232.928 257.104,238 251,238 251,236.814 250,236.814 250,238  Z"/>

<path  fill="#9953FF" stroke-width="0" stroke="#9953FF" d = " M262 339 L254,340 C254,331.908 245,328.315 245,339 245,339 241,341 241,341 241,341 244,334.5 244,334.5 244,330.601 238.884,334.269 238,332.5 238,332.5 241,327.5 241,327.5 241,327.5 239,326.5 239,326.5 239,326.5 239.5,325 239.5,325 229.858,320.179 221.101,331.199 213.5,335 211.212,336.144 211.3,333 210.5,333 209.118,333 206.442,335 204,335 203.082,335 199.013,332.474 198,334.5 198,334.5 199,338 199,338 198.407,338 174.011,322 171,322 171,320.466 177.111,314 170,314 170,314 174,309.5 174,309.5 174,306.507 168,309.414 168,307 180.785,307 173.046,298.408 177,290.5 182.114,280.272 186,289.033 186,274.5 186,272.738 197.887,273.275 195,267.5 191.977,261.453 181,269.03 181,259 181,259 184,255.5 184,255.5 186.297,250.907 178.67,250 176,250 176,250 175,247 175,247 177.276,247 188.022,242.239 190.5,241 196.523,237.988 205.529,241 212,241 212,241 209,244.5 209,244.5 209,244.5 209,248.5 209,248.5 209,248.5 207,249.5 207,249.5 207,249.5 209,252.5 209,252.5 210.333,255.166 206.576,256.347 206,257.5 206,257.5 208,259.5 208,259.5 208,259.5 209,264.5 209,264.5 211.182,268.865 219.662,265 220.5,265 224.567,265 235.177,269.662 238.5,268 241.625,266.437 246.045,262.772 250.5,265 250.5,265 251.5,268 251.5,268 252.684,268 254.675,266.087 256.5,267 256.5,267 258.5,269 258.5,269 259.214,269 262.221,266 265,266 265,266 276,265 276,265 276,265 280,264.5 280,264.5 280,264.5 276,263.5 276,263.5 276,262.481 285,263.634 285,260.5 285,260.449 269.846,259 279.5,259 279.5,259 282.5,259 282.5,259 282.5,259 280.5,256 280.5,256 280.5,256 278,253.5 278,253.5 276.871,251.242 279.501,251.497 280,250.5 280,250.5 278,248.5 278,248.5 276.856,246.212 280,246.3 280,245.5 280,245.5 274,242.5 274,242.5 274,242.339 277.738,241 275,241 275,241 275,240 275,240 282.579,240 308,237.216 308,245 308,245 308,250 308,250 304.293,250 302.034,256 306,256 306,257.764 308.593,258.313 308,259.5 307.867,259.767 300.507,262.486 299,265.5 297.86,267.78 303.354,283 305,283 305,283 309,284 309,284 309,286.231 311.386,290.728 310,293.5 309.405,294.69 308.174,296.847 309,298.5 309,298.5 315,306 315,306 315,306 318,309 318,309 318,310.622 317.539,314 320,314 320,316.421 314.73,321 319,321 319,321 313.5,324 313.5,324 310.203,327.297 293.638,336 291,336 291,331.011 279.073,336.287 276.5,335 276.5,335 271.5,331 271.5,331 271.5,331 266.5,331 266.5,331 264.099,329.8 262.026,320.237 252.5,325 250.845,325.827 249.191,324.118 248,326.5 245.739,331.022 262,338.178 262,339  Z"/>

<path  fill="#EB57FF" stroke-width="0" stroke="#EB57FF" d = " M264 242 L266,242 C266,242 275,241 275,241 277.738,241 274,242.339 274,242.5 274,242.5 280,245.5 280,245.5 280,246.3 276.856,246.212 278,248.5 278,248.5 280,250.5 280,250.5 279.501,251.497 276.871,251.242 278,253.5 278,253.5 280.5,256 280.5,256 280.5,256 282.5,259 282.5,259 282.5,259 279.5,259 279.5,259 269.846,259 285,260.449 285,260.5 285,263.634 276,262.481 276,263.5 276,263.5 280,264.5 280,264.5 280,264.5 276,265 276,265 276,265 265,266 265,266 262.221,266 259.214,269 258.5,269 258.5,269 256.5,267 256.5,267 254.675,266.087 252.684,268 251.5,268 251.5,268 250.5,265 250.5,265 246.045,262.772 241.625,266.437 238.5,268 235.177,269.662 224.567,265 220.5,265 219.662,265 211.182,268.865 209,264.5 209,264.5 208,259.5 208,259.5 208,259.5 206,257.5 206,257.5 206.576,256.347 210.333,255.166 209,252.5 209,252.5 207,249.5 207,249.5 207,249.5 209,248.5 209,248.5 209,248.5 209,244.5 209,244.5 209,244.5 212,241 212,241 214.707,241 217.903,240 220,240 220,240 222,240 222,240 222,243.318 230.53,241.561 234,248.5 234.746,249.991 240.043,262.271 241.5,263 243.398,263.949 255.583,253.334 257,250.5 257,250.5 256,247.5 256,247.5 256,245.367 263,245.002 263,243 263,243 264,242 264,242  Z"/>

<path  fill="#9953FF" stroke-width="0" stroke="#9953FF" d = " M264 242 L263,243 C263,243 262,242 262,242 262,240.07 263.161,242 264,242  Z"/>

<path  fill="#34FF0D" stroke-width="0" stroke="#34FF0D" d = " M320 314 C320,316.421 314.73,321 319,321 331.789,321 337.424,310.653 342,301.5 343.058,299.384 346.322,293.145 345,290.5 343.39,287.28 345.118,279.736 343,275.5 338.503,266.507 332.195,250.848 322.5,246 318.227,243.864 312.042,245 308,245 308,245 308,250 308,250 315.836,250 316.757,257.129 322.5,260 336.324,266.912 346.656,296.922 330.5,305 328.959,305.77 328.169,314 320,314  Z"/>

<path  fill="#34FF0D" stroke-width="0" stroke="#34FF0D" d = " M170 314 C177.111,314 171,320.466 171,322 163.403,322 152.123,311.746 149,305.5 145.833,299.167 142,293.058 142,285.5 142,281.365 148,272.85 148,270.5 148,258.276 163.764,247 175,247 175,247 176,250 176,250 176,250 175,251 175,251 175,254.614 163.092,260.315 162,262.5 160.896,264.708 151,278.673 151,279.5 151,281.214 150.865,282.77 150,284.5 147.454,289.592 156.695,305.195 160,308.5 161.752,310.252 170,315.792 170,314  Z"/>

<path  fill-rule="evenodd" fill="#FFFF00" stroke-width="0" stroke="#FFFF00" d = " M76 265 C76,268.637 69.362,270.069 65.5,272 63.5963,272.952 63.2681,277.884 65.5,279 73.5184,283.009 79.4813,265 76,265  M75 258 C75,261.746 77.0912,258 75,258  M67 253 C67,254.002 60,255.642 60,259.5 60,265.118 66.2957,260 66.5,260 67.3015,260 69.5976,263.451 72.5,262 76.7761,259.862 70.4926,253 67,253  M63 248 C63,250.67 56.3377,255.825 55,258.5 53.1538,262.192 59.2131,267.926 60,269.5 L59.5,272 L58.5,270 C56.9908,270 58,272.991 58,274.5 58,282.312 73.1254,291 79.5,291 85.8257,291 89.7039,286 94.5,286 97.3028,286 95.3539,279.792 96,278.5 97.6133,275.273 100.008,279.746 101.5,279 L102,267.5 C98.6575,260.815 98.6328,269 97.5,269 L95.5,265 C93.1934,263.847 89.8315,264.666 88.5,264 86.2096,262.855 86.8089,261.118 86,259.5 L81,255.5 C80.871,255.242 78.7117,250.106 78.5,250 L76.5,252 L73.5,249 C72.0873,248.294 64.2506,248 63,248  Z"/>

<path  fill="#46A515" stroke-width="0" stroke="#46A515" d = " M94 250 C94,251.384 90.8113,251.123 92,253.5 93.5365,256.573 105.109,250 94,250  Z"/>

<path  fill="#FA8072" stroke-width="0" stroke="#FA8072" d = " M168 307 C168,309.414 174,306.507 174,309.5 L170,314 C170,315.792 161.752,310.252 160,308.5 156.695,305.195 147.454,289.592 150,284.5 150.865,282.77 151,281.214 151,279.5 151,278.673 160.896,264.708 162,262.5 163.092,260.315 175,254.614 175,251 175,251 176,250 176,250 178.67,250 186.297,250.907 184,255.5 184,255.5 181,259 181,259 179.902,259 173,263.457 173,264.5 173,269.89 155.429,282.358 160,291.5 162.154,295.809 161.726,307 168,307  Z"/>

<path  fill="#FA8072" stroke-width="0" stroke="#FA8072" d = " M318 309 C318,310.622 317.539,314 320,314 328.169,314 328.959,305.77 330.5,305 346.656,296.922 336.324,266.912 322.5,260 316.757,257.129 315.836,250 308,250 304.293,250 302.034,256 306,256 309.229,256 327,274.176 327,277 327,277 328,278 328,278 328,284.506 333.219,306 321,306 321,306 318,309 318,309  Z"/>

<path  fill="#00FFFF" stroke-width="0" stroke="#00FFFF" d = " M67 253 C67,254.002 60,255.642 60,259.5 60,265.118 66.2957,260 66.5,260 67.3015,260 69.5976,263.451 72.5,262 76.7761,259.862 70.4926,253 67,253  Z"/>

<path  fill="#46A515" stroke-width="0" stroke="#46A515" d = " M400 254 C400,257.866 404.241,263.741 407,266.5 L410.5,270 C412.452,269.024 407.712,254 400,254  Z"/>

<path  fill="#5BF1FF" stroke-width="0" stroke="#5BF1FF" d = " M315 306 L321,306 C333.219,306 328,284.506 328,278 328,278 327,277 327,277 327,274.176 309.229,256 306,256 306,257.764 308.593,258.313 308,259.5 307.867,259.767 300.507,262.486 299,265.5 297.86,267.78 303.354,283 305,283 305,280.882 309,282.179 309,284 309,286.231 311.386,290.728 310,293.5 309.405,294.69 308.174,296.847 309,298.5 309,298.5 315,306 315,306  Z"/>

<path  fill="#00FFFF" stroke-width="0" stroke="#00FFFF" d = " M75 258 C75,261.746 77.0912,258 75,258  Z"/>

<path  fill="#5BF1FF" stroke-width="0" stroke="#5BF1FF" d = " M181 259 C179.902,259 173,263.457 173,264.5 173,269.89 155.429,282.358 160,291.5 162.154,295.809 161.726,307 168,307 180.785,307 173.046,298.408 177,290.5 182.114,280.272 186,289.033 186,274.5 186,272.738 197.887,273.275 195,267.5 191.977,261.453 181,269.03 181,259  Z"/>

<path  fill="#00FFFF" stroke-width="0" stroke="#00FFFF" d = " M76 265 C76,268.637 69.362,270.069 65.5,272 63.5963,272.952 63.2681,277.884 65.5,279 73.5184,283.009 79.4813,265 76,265  Z"/>

<path  fill="#FFFF00" stroke-width="0" stroke="#FFFF00" d = " M400 271 L400.5,282 C401.068,282 401.891,271 400,271  Z"/>

<path  fill="#FFFF00" stroke-width="0" stroke="#FFFF00" d = " M403 271 C403,272.726 401.984,283 404.5,283 407.025,283 406.459,271 403,271  Z"/>

<path  fill="#46A515" stroke-width="0" stroke="#46A515" d = " M411 271 C411,272.642 411.536,276.428 411,277.5 410.268,278.964 413.327,292.586 416.5,291 421.201,288.65 412.445,271 411,271  Z"/>

<path  fill="#34FF0D" stroke-width="0" stroke="#34FF0D" d = " M327 277 L328,278 C328,278 327,277 327,277  Z"/>

<path  fill="#46A515" stroke-width="0" stroke="#46A515" d = " M69 296 L67,300.5 C66.0155,302.469 68.0822,306.209 70.5,305 73.6051,303.447 72.6527,296 69,296  Z"/>

<path  fill-rule="evenodd" fill="#00F60E" stroke-width="0" stroke="#00F60E" d = " M233 327 C233,329.159 229,327.061 229,328.5 L230.5,329 C237.08,332.29 235.977,327 233,327  M239 341 L241,341 C241,341 244,334.5 244,334.5 244,330.601 238.884,334.269 238,332.5 238,332.5 241,327.5 241,327.5 241,327.5 239,326.5 239,326.5 239,326.5 239.5,325 239.5,325 229.858,320.179 221.101,331.199 213.5,335 211.212,336.144 211.3,333 210.5,333 209.118,333 206.442,335 204,335 203.082,335 199.013,332.474 198,334.5 198,334.5 199,338 199,338 199,338 200,338 200,338 200,338 211.5,338 211.5,338 214.859,339.68 214.476,341 219,341 219,339.814 220,339.814 220,341 220,341 230,339 230,339 230,336.743 237.48,332.46 238,333.5 238.929,335.358 234.506,335.488 234,336.5 234,336.5 235,340 235,340 235,340 239,341 239,341  Z"/>

<path  fill-rule="evenodd" fill="#00F60E" stroke-width="0" stroke="#00F60E" d = " M253 327 L254.5,331 C256.735,331 262.825,327 253,327  M287 339 C282.956,339 279.154,337.173 275.5,339 272.952,340.274 273.188,342 270,342 270,342 262,339 262,339 262,338.178 245.739,331.022 248,326.5 249.191,324.118 250.845,325.827 252.5,325 262.026,320.237 264.099,329.8 266.5,331 266.5,331 271.5,331 271.5,331 271.5,331 276.5,335 276.5,335 279.073,336.287 291,331.011 291,336 291,338.098 289.061,339 287,339  Z"/>

<path  fill="#9953FF" stroke-width="0" stroke="#9953FF" d = " M233 327 C233,329.159 229,327.061 229,328.5 L230.5,329 C237.08,332.29 235.977,327 233,327  Z"/>

<path  fill="#9953FF" stroke-width="0" stroke="#9953FF" d = " M253 327 L254.5,331 C256.735,331 262.825,327 253,327  Z"/>

<path  fill="#00F60E" stroke-width="0" stroke="#00F60E" d = " M254 340 L250,341 C250,341 247,340 247,340 247,340 246,339 246,339 246,339 245,339 245,339 245,328.315 254,331.908 254,340  Z"/>

<path  fill="#9953FF" stroke-width="0" stroke="#9953FF" d = " M230 339 L235,340 C235,340 234,336.5 234,336.5 234.506,335.488 238.929,335.358 238,333.5 237.48,332.46 230,336.743 230,339  Z"/>

<path  fill="#9953FF" stroke-width="0" stroke="#9953FF" d = " M219 341 C219,342.533 215.247,345 214,345 214,345 200,338 200,338 200,338 211.5,338 211.5,338 214.859,339.68 214.476,341 219,341  Z"/>

<path  fill="#9953FF" stroke-width="0" stroke="#9953FF" d = " M270 342 L274,344 C276.54,344 287,342.168 287,339 282.956,339 279.154,337.173 275.5,339 272.952,340.274 273.188,342 270,342  Z"/>

<path  fill="#FF3427" stroke-width="0" stroke="#FF3427" d = " M240 342 C240,344.974 237.848,344.804 237,346.5 233.736,353.028 226.302,350.901 220.5,348 218.116,346.808 214,349.124 214,345 215.247,345 219,342.533 219,341 219,341 220,341 220,341 220,341 230,339 230,339 230,339 235,340 235,340 235,340 239,341 239,341 239,341 240,342 240,342  Z"/>

<path  fill="#9953FF" stroke-width="0" stroke="#9953FF" d = " M246 339 L247,340 C247,340 246,339 246,339  Z"/>

<path  fill="#FF3427" stroke-width="0" stroke="#FF3427" d = " M270 342 L274,344 C274,351.21 250,356.674 250,341 250,341 254,340 254,340 254,340 262,339 262,339 262,339 270,342 270,342  Z"/>

<path  fill="#9953FF" stroke-width="0" stroke="#9953FF" d = " M219 341 L220,341 C220,339.814 219,339.814 219,341  Z"/>

<path  fill="#9953FF" stroke-width="0" stroke="#9953FF" d = " M241 341 L240,342 C240,342 239,341 239,341 239,341 241,341 241,341  Z"/>

</g>
</svg>
