<svg xmlns="http://www.w3.org/2000/svg" xmlns:xlink="http://www.w3.org/1999/xlink" height="512" width="512">
<g>
<rect width="512" height="512" fill="#000000"  stroke-width="0" /> 
<path  fill-rule="evenodd" fill="#FA8072" stroke-width="0" stroke="#FA8072" d = " M330 379 L329,380.5 C326.402,385.697 335.664,379 330,379  M328 350 C328,359.382 325.366,383.232 329,390.5 331.455,395.41 335.136,391.818 337.5,393 L338,398.5 C339.315,401.13 348.177,404.147 351,398.5 353.217,394.065 350,391.201 350,387.5 350,384.291 354.238,380.869 348.5,378 344.766,376.133 340.065,379.63 340,379.5 L340,368.5 C339.041,366.583 339.081,371 338.5,371 L338,367.5 C336.75,364.999 337.171,361.842 336,359.5 334.827,357.154 331.49,361 330.5,361 L330,358.5 C331.322,355.857 334.021,350 328,350  Z"/>

<path  fill="#FA8072" stroke-width="0" stroke="#FA8072" d = " M161 353 C161,354.174 154,356.971 154,360.5 L157,365.5 C166.115,374.615 174.428,353 161,353  Z"/>

<path  fill="#FA8072" stroke-width="0" stroke="#FA8072" d = " M155 369 L152,372.5 C152,381.995 164.995,369 155,369  Z"/>

<path  fill="#FA8072" stroke-width="0" stroke="#FA8072" d = " M155 382 C155,387.843 145.324,382.088 141.5,384 L136.5,389 C135.047,389 133.574,382.963 129.5,385 127.599,385.951 125.948,389.395 127,391.5 127.951,393.401 131.395,395.052 133.5,394 L136,392.5 L136,396.5 L141,401.5 C142.084,403.668 140.396,409 144.5,409 148.604,409 146.916,403.668 148,401.5 148.886,399.728 155.265,392.971 157,389.5 157.313,388.873 157.606,382 155,382  Z"/>

</g>
</svg>
