<svg xmlns="http://www.w3.org/2000/svg" xmlns:xlink="http://www.w3.org/1999/xlink" height="512" width="512">
<g>
<rect width="512" height="512" fill="#000000"  stroke-width="0" /> 
<path  fill="#03C12D" stroke-width="0" stroke="#03C12D" d = " M448 197 C445.741,197 442.849,193.325 439.5,195 434.438,197.531 427.47,195 421.5,195 L419.5,197 L418.5,195 C417.895,195 414.193,198 412,198 412,198 410,195 410,195 410,193.329 408.869,186 407,186 407,183.959 408.845,183 406,183 403.844,183 401.821,175.142 401,173.5 399.096,169.691 384.514,152.507 381.5,151 375.692,148.096 361.639,136 357.5,136 357.5,136 355.5,134 355.5,134 354.454,133.477 352,134.951 352,133 352,133 351,132 351,132 349.535,132 347,132.109 347,130 347,127.707 346.003,128 344,128 344,126.548 336.892,126.284 336,124.5 334.251,121.002 312.05,112.775 306.5,110 305.527,109.514 295,108.637 295,109.5 295,111.085 301.463,112.481 302.5,113 303.792,113.646 304,117.448 304,117.5 304,118.331 310,119.242 310,122 310,122 309,125 309,125 305.675,125 301.69,126 299,126 299,126 298,127 298,127 294.873,127 293,128.873 293,132 281.797,132 270.739,131.62 261.5,127 261.5,127 258.5,122 258.5,122 255.617,120.559 249.542,116.584 248,113.5 248,113.5 249,110.5 249,110.5 249,110.5 247,109.5 247,109.5 245.835,107.171 246.147,103.794 245,101.5 243.445,98.3903 241,101.35 241,97 241,90.4876 236,93.0621 236,98 236,103.253 230,112.156 230,114.5 230,114.5 232,115.5 232,115.5 232,116.217 225.291,121.918 225,122.5 225,122.5 226,125.5 226,125.5 226,125.5 223.5,126 223.5,126 222.311,126.595 214,131.849 214,132 214,132 211,132 211,132 211,132 194,133 194,133 194,131.2 190.983,132.483 190,131.5 185.743,127.243 173,129.306 173,125 173,125 178,118.5 178,118.5 178,116.991 175.009,118 173.5,118 168.156,118 163.866,120.317 158.5,123 146.471,129.015 136.122,138.689 123.5,145 122.355,145.573 120.327,144.086 118.5,145 116.833,145.834 109.094,154 108,154 108,154 107,155 107,155 103.032,155 97.626,163.248 96,166.5 94.2906,169.919 87.7371,174.026 86,177.5 82.9462,183.608 79.0553,189.389 76,195.5 76,195.5 71,207.5 71,207.5 70.4772,208.546 71.9515,211 70,211 70,207.998 66.0584,205.617 66,205.5 66,205.5 66,201.5 66,201.5 66,201.5 64.5,203 64.5,203 64.5,203 62.5,199 62.5,199 62.5,199 59.5,201 59.5,201 53.255,197.878 44.3566,197 37,197 37,191.145 44.0281,178.444 47,172.5 47,172.5 49,162.5 49,162.5 52.6229,155.254 56.8704,148.759 60,142.5 61.1915,140.117 68.9344,136.631 70,134.5 70,134.5 69.5,131 69.5,131 69.5,131 74,129.5 74,129.5 74.8661,127.768 73.4018,126.696 74,125.5 74.594,124.312 77.9452,124.61 79,122.5 80.3962,119.708 82.0378,114.731 85.5,113 88.1992,111.65 91.9235,112.288 94.5,111 94.5,111 101.5,104 101.5,104 107.301,101.1 114.405,97.5473 119.5,95 119.5,95 123.5,95 123.5,95 123.5,95 126.5,91 126.5,91 126.5,91 142.5,83 142.5,83 148.853,79.8233 156.115,78.1927 162.5,75 165.65,73.425 168.333,77 170.5,77 170.5,77 173.5,73 173.5,73 174.687,72.4064 176.216,72.6418 177.5,72 180.514,70.4931 176.413,76 178.5,76 178.5,76 191.5,72 191.5,72 193.119,71.1904 194.501,73 195.5,73 196.345,73 208,71.7658 208,74.5 208,74.5 205,75.5 205,75.5 205,75.5 211.5,76 211.5,76 211.5,76 224.5,86 224.5,86 226.782,87.1408 230.218,86.8592 232.5,88 236.586,90.0429 231,89.7314 231,90.5 231,91.8716 240.61,93 241.5,93 241.5,93 242,87.5 242,87.5 242,87.5 240.5,86 240.5,86 244.394,84.0531 249.568,83.9659 253.5,82 255.518,80.9911 258.482,77.0089 260.5,76 266.711,72.8944 275.278,72 281.5,72 281.5,72 289.5,69 289.5,69 289.5,69 292.5,71 292.5,71 292.5,71 295.5,70 295.5,70 300.789,70 329.042,73.7708 331.5,75 339.442,78.9708 352.632,87 360.5,87 360.5,87 362.5,90 362.5,90 370.082,93.7909 376.958,99.2288 384.5,103 387.138,104.319 407.254,113.007 408,114.5 412.841,124.182 423.083,131.667 428,141.5 428,141.5 429,147.5 429,147.5 429,147.5 432,149.5 432,149.5 434.586,154.673 436.4,160.3 439,165.5 439,165.5 440,172.5 440,172.5 444.195,180.89 448,187.879 448,197  Z"/>

<path  fill="#022CFF" stroke-width="0" stroke="#022CFF" d = " M312 152 L316,155 C316,152.946 300.764,140.028 298,134.5 297.171,132.843 293,135.281 293,132 281.797,132 270.739,131.62 261.5,127 261.5,127 258.5,122 258.5,122 255.617,120.559 249.542,116.584 248,113.5 248,113.5 249,110.5 249,110.5 249,110.5 247,109.5 247,109.5 245.835,107.171 246.147,103.794 245,101.5 243.445,98.3903 241,101.35 241,97 241,97 236,98 236,98 236,103.253 230,112.156 230,114.5 230,114.5 232,115.5 232,115.5 232,116.217 225.291,121.918 225,122.5 225,122.5 226,125.5 226,125.5 226,125.5 223.5,126 223.5,126 222.311,126.595 214,131.849 214,132 222.798,132 228.903,132.702 235.5,136 239.211,137.856 240.33,143.159 242,146.5 242,146.5 243.5,151 243.5,151 243.5,151 244.5,149 244.5,149 251.319,145.59 247.163,143.175 250,137.5 250.561,136.378 258.08,133.21 260.5,132 261.783,131.358 262.595,129.047 264.5,130 273.935,134.717 286.058,133.279 295.5,138 295.5,138 312,152 312,152  Z"/>

<path  fill="#FF6E00" stroke-width="0" stroke="#FF6E00" d = " M404 266 C402.3,266 398,268.335 398,268 398,268 397,265 397,265 397,263.236 404.12,262.26 406,258.5 409.867,250.767 411,242.432 411,235 412.718,235 412,222.715 412,222 413.399,222 413.399,220 412,220 412,213.372 410.624,200.749 408,195.5 408,195.5 402,185 402,185 402,185 401,184 401,184 401,184 401,183 401,183 401,183 400,182 400,182 400,182 400,181 400,181 400,181 399,180 399,180 399,180 392,171 392,171 392,165.931 384.715,163.215 382,160.5 374.993,153.493 366.289,150.394 357.5,146 354.525,144.513 337.388,147.944 329.5,144 324.616,141.558 316.771,123 311,123 311,123 310,122 310,122 310,119.242 304,118.331 304,117.5 304,117.448 303.792,113.646 302.5,113 301.463,112.481 295,111.085 295,109.5 295,108.637 305.527,109.514 306.5,110 312.05,112.775 334.251,121.002 336,124.5 336.892,126.284 344,126.548 344,128 344,129.577 345.762,130 347,130 347,132.109 349.535,132 351,132 351,132 352,133 352,133 352,134.951 354.454,133.477 355.5,134 355.5,134 357.5,136 357.5,136 361.639,136 375.692,148.096 381.5,151 384.514,152.507 399.096,169.691 401,173.5 401.821,175.142 403.844,183 406,183 406,184.048 405.527,186 407,186 408.869,186 410,193.329 410,195 410,195 411,199 411,199 411,199 413,200.5 413,200.5 413.867,202.234 413.08,204.661 414,206.5 415.848,210.195 414,236.563 414,242 414,242 414,248 414,248 412.421,248 413,250.855 413,252 413,253.321 413.684,258 412,258 409.901,258 405,262.41 405,265 405,265 404,266 404,266  Z"/>

<path  fill="#FF6E00" stroke-width="0" stroke="#FF6E00" d = " M81 271 C83.0023,271 95,276.793 95,272 79.8975,272 72,256.282 72,243 72,243 72,240 72,240 72,240 72,237 72,237 70.2366,237 71,228.657 71,227 71,209.682 79.8611,198.778 87,184.5 88.1814,182.137 95.976,171 99,171 99,171 100,170 100,170 100,170 107.5,163 107.5,163 113.07,157.43 119.903,153.299 126.5,150 128.505,148.997 131.388,150.056 133.5,149 133.5,149 150.5,151 150.5,151 157.641,147.43 163.29,143.919 167,136.5 167.959,134.581 170.395,125 173,125 173,125 178,118.5 178,118.5 178,116.991 175.009,118 173.5,118 168.156,118 163.866,120.317 158.5,123 146.471,129.015 136.122,138.689 123.5,145 122.355,145.573 120.327,144.086 118.5,145 116.833,145.834 109.094,154 108,154 108,154 107,155 107,155 103.032,155 97.626,163.248 96,166.5 94.2906,169.919 87.7371,174.026 86,177.5 82.9462,183.608 79.0553,189.389 76,195.5 76,195.5 71,207.5 71,207.5 70.4772,208.546 71.9515,211 70,211 70,222.747 69,235.634 69,248 69,252.846 71,256.793 71,261 71,261 72,262 72,262 72,266.275 81,268.882 81,271  Z"/>

<path  fill-rule="evenodd" fill="#DDD951" stroke-width="0" stroke="#DDD951" d = " M302 126 C302,128.091 305.746,126 302,126  M359 175 L360,175 C365.105,175 368.84,186.33 375.5,183 379.442,181.029 389.202,171 392,171 392,165.931 384.715,163.215 382,160.5 374.993,153.493 366.289,150.394 357.5,146 354.525,144.513 337.388,147.944 329.5,144 324.616,141.558 316.771,123 311,123 311,124.747 310.747,125 309,125 305.675,125 301.69,126 299,126 299,126 298,127 298,127 294.873,127 293,128.873 293,132 293,135.281 297.171,132.843 298,134.5 300.764,140.028 316,152.946 316,155 316,155 316,156 316,156 319.303,156 331,164.655 331,168 333.172,168 342,173.578 342,176 344.707,176 347.903,175 350,175 350,175 352,174 352,174 352,174 359,175 359,175  Z"/>

<path  fill="#DDD951" stroke-width="0" stroke="#DDD951" d = " M117 181 L118,181 C118,181 123,178 123,178 123,174.739 134.412,174 137,174 137,172.109 142.271,173 142.5,173 142.5,173 146.5,169 146.5,169 146.5,169 149.5,171 149.5,171 154.465,171 160.731,161 166,161 166,156.579 173.276,155.948 175,152.5 175,152.5 177.5,147 177.5,147 178.684,146.408 182.982,144.535 183,144.5 183.708,143.084 185.252,138.624 186.5,138 186.5,138 192.5,137 192.5,137 193.998,136.251 191.795,133 194,133 194,131.2 190.983,132.483 190,131.5 185.743,127.243 173,129.306 173,125 170.395,125 167.959,134.581 167,136.5 163.29,143.919 157.641,147.43 150.5,151 150.5,151 133.5,149 133.5,149 131.388,150.056 128.505,148.997 126.5,150 119.903,153.299 113.07,157.43 107.5,163 107.5,163 100,170 100,170 100,170 99,171 99,171 99,173.464 117,177.149 117,181  Z"/>

<path  fill="#5600DD" stroke-width="0" stroke="#5600DD" d = " M318 174 C315.88,174 311.022,166.543 310,164.5 L299.5,154 L295.5,154 L291.5,147 C290.369,146.435 266.505,141.998 266.5,142 262.008,144.246 253.669,149 250.5,149 L250,153.5 C250,156.667 247.628,161 244,161 237.377,161 240.351,153.202 238,148.5 237.425,147.35 232.458,147.979 230.5,147 228.886,146.193 225.979,142 224.5,142 L223.5,144 C221.112,144 216.562,141.969 214.5,143 L208.5,148 L204.5,147 C197.288,150.606 179.977,160.545 177,166.5 175.619,169.262 171,171.79 171,175 165.202,175 169,165.809 169,163 169,154.905 191.578,141.461 198.5,138 201.481,136.509 211,133.579 211,132 211,132 214,132 214,132 222.798,132 228.903,132.702 235.5,136 239.211,137.856 240.33,143.159 242,146.5 242,146.5 243.5,151 243.5,151 243.5,151 244.5,149 244.5,149 251.319,145.59 247.163,143.175 250,137.5 250.561,136.378 258.08,133.21 260.5,132 261.783,131.358 262.595,129.047 264.5,130 273.935,134.717 286.058,133.279 295.5,138 295.5,138 312,152 312,152 312,154.244 313.725,158 316,158 316,158 321,168 321,168 321,171.531 318,171.286 318,174  Z"/>

<path  fill="#022CFF" stroke-width="0" stroke="#022CFF" d = " M166 161 L169,163 C169,154.905 191.578,141.461 198.5,138 201.481,136.509 211,133.579 211,132 211,132 194,133 194,133 191.795,133 193.998,136.251 192.5,137 192.5,137 186.5,138 186.5,138 185.252,138.624 183.708,143.084 183,144.5 182.982,144.535 178.684,146.408 177.5,147 177.5,147 175,152.5 175,152.5 173.276,155.948 166,156.579 166,161  Z"/>

<path  fill="#E1970F" stroke-width="0" stroke="#E1970F" d = " M183 211 C189.117,211 195.447,218.026 199.5,216 L201.5,213 C203.832,211.834 207,214.114 207,211 207,211 211,204 211,204 211,197.517 215.816,182.842 221.5,180 227.443,177.029 238.798,179.351 243.5,177 250.591,173.454 262.241,177.371 267.5,180 267.5,180 271.5,185 271.5,185 271.5,185 275,186.5 275,186.5 277.575,191.649 278,196.719 278,203 278,203 278,204 278,204 279.142,204 281.36,209.93 283.5,211 289.699,214.099 305.482,204.509 310.5,202 312.012,201.244 319,198.963 319,197 319,194.785 321,195.481 321,194 321,194 321,193 321,193 321,187.112 321.54,184.58 319,179.5 318.381,178.262 320.144,174 318,174 315.88,174 311.022,166.543 310,164.5 310,164.5 299.5,154 299.5,154 299.5,154 295.5,154 295.5,154 295.5,154 291.5,147 291.5,147 290.369,146.435 266.505,141.998 266.5,142 262.008,144.246 253.669,149 250.5,149 250.5,149 250,153.5 250,153.5 250,156.667 247.628,161 244,161 237.377,161 240.351,153.202 238,148.5 237.425,147.35 232.458,147.979 230.5,147 228.886,146.193 225.979,142 224.5,142 224.5,142 223.5,144 223.5,144 221.112,144 216.562,141.969 214.5,143 214.5,143 208.5,148 208.5,148 208.5,148 204.5,147 204.5,147 197.288,150.606 179.977,160.545 177,166.5 175.619,169.262 171,171.79 171,175 171,178.239 168.319,178.862 167,181.5 164.885,185.729 169,190.447 169,194 169,197.896 176.592,208 180,208 182.041,208 183,208.959 183,211  Z"/>

<path  fill="#022CFF" stroke-width="0" stroke="#022CFF" d = " M321 168 C324.119,168 327.279,168 331,168 331,164.655 319.303,156 316,156 316,156 316,158 316,158 316,158 321,168 321,168  Z"/>

<path  fill="#0E47E2" stroke-width="0" stroke="#0E47E2" d = " M130 259 L131,260 C131,260 135.5,265 135.5,265 136.83,265 132.414,253.327 132,252.5 130.618,249.735 125.485,252.47 124,249.5 122.265,246.029 128.063,246.375 129,244.5 129.731,243.038 129.218,241.064 130,239.5 132.247,235.006 125.698,230.104 127,227.5 128.871,223.757 129.172,219.156 131,215.5 135.052,207.396 140,203.957 140,195.5 140,195.5 145,190.5 145,190.5 146.98,186.54 146,185.796 146,182.5 146,182.5 149,181.5 149,181.5 149,181.5 146,178.5 146,178.5 146,172.392 143.546,174 137,174 137,174 135.5,176 135.5,176 131.906,176 126.975,178 123,178 123,178 118,181 118,181 118,182.186 117,182.186 117,181 117,177.149 99,173.464 99,171 95.976,171 88.1814,182.137 87,184.5 79.8611,198.778 71,209.682 71,227 72.7634,227 72,235.343 72,237 72,237 72,240 72,240 72,240 74,241 74,241 74,241 75,240 75,240 75,238.421 77.8548,239 79,239 81.818,239 89.4392,234 94,234 94,232.601 96,232.601 96,234 98.144,234 96.3809,238.262 97,239.5 97,239.5 101,244 101,244 101,244 102,245 102,245 103.465,245 105.316,250 108,250 108,250 109,250 109,250 109,250 110,250 110,250 110,250 111,251 111,251 113.643,251 127,255.272 127,258 128.048,258 130,257.527 130,259  Z"/>

<path  fill="#5600DD" stroke-width="0" stroke="#5600DD" d = " M166 171 C166,176.567 168.112,171 166,171  Z"/>

<path  fill="#0E47E2" stroke-width="0" stroke="#0E47E2" d = " M378 241 L366,244 C362.774,244 355.171,239.842 353,235.5 349.762,229.025 357.201,213.902 355,209.5 352.715,204.929 351,200.858 351,196.5 351,196.5 348,194.5 348,194.5 348,194.5 343,187.5 343,187.5 340.93,183.361 342,179.309 342,176 344.707,176 347.903,175 350,175 350,175 352,174 352,174 352,174 359,175 359,175 359,176.186 360,176.186 360,175 365.105,175 368.84,186.33 375.5,183 379.442,181.029 389.202,171 392,171 392,171 399,180 399,180 399,180 400,181 400,181 400,181 400,182 400,182 400,182 401,183 401,183 401,183 401,184 401,184 401,184 402,185 402,185 402,185 408,195.5 408,195.5 410.624,200.749 412,213.372 412,220 412,220 412,222 412,222 412,222.715 412.718,235 411,235 407.896,235 390.577,224.462 389.5,225 385.823,226.838 384.691,239 380,239 380,239 378,241 378,241  Z"/>

<path  fill-rule="evenodd" fill="#07FF59" stroke-width="0" stroke="#07FF59" d = " M243 195 C243,198.54 238,198.602 238,199.5 238,201.357 238.526,202.013 240.5,203 243.128,204.314 242.065,208.282 243.5,209 L246,208.5 L246,204.5 L250,199.5 C250,196.724 246.828,199 246.5,199 244.072,199 246.114,195 243,195  M277 204 C277,208.455 267.228,224.136 263.5,226 261.093,227.204 257.805,226.848 255.5,228 L254,233.5 C249.842,241.816 245.895,237 241.5,237 240.501,237 239.119,238.81 237.5,238 235.038,236.769 233.083,231.667 232,229.5 L227,227.5 C225.108,223.717 220.828,216.164 218.5,215 215.625,213.563 216.982,210 214,210 214,208.854 212.661,204 211,204 211,197.517 215.816,182.842 221.5,180 227.443,177.029 238.798,179.351 243.5,177 250.591,173.454 262.241,177.371 267.5,180 267.5,180 271.5,185 271.5,185 271.5,185 275,186.5 275,186.5 277.575,191.649 278,196.719 278,203 278,203 277,204 277,204  Z"/>

<path  fill="#EE2F2C" stroke-width="0" stroke="#EE2F2C" d = " M323 197 C323,204.787 327.689,212.877 330,217.5 330.769,219.038 328.774,223 332,223 340.83,223 337.466,202.431 335,197.5 335,197.5 332.5,195 332.5,195 331.317,195 326.535,186.983 324.5,188 322.595,188.953 325.013,193 321,193 321,193 321,194 321,194 324.58,194 323,194.285 323,197  Z"/>

<path  fill="#EE2F2C" stroke-width="0" stroke="#EE2F2C" d = " M167 193 L165,195.5 L165,203.5 C163.388,206.724 162.545,210.411 161,213.5 L158,215.5 L161,223.5 L158,225.5 C155.73,230.041 156.801,227 152,227 149.64,227 149.144,220.211 150,218.5 152.474,213.552 150.562,206.376 153,201.5 153,201.5 159,193.5 159,193.5 160.347,190.806 167,188.347 167,193  Z"/>

<path  fill="#9953FF" stroke-width="0" stroke="#9953FF" d = " M263 295 L269,296 C269,296 275,294 275,294 275,294 277,292 277,292 277,290.075 280.075,287 282,287 282,287 283,286 283,286 283,286 289,279.5 289,279.5 290.798,277.702 298.996,262.508 301,258.5 301.96,256.581 303.182,257.659 304.5,257 308.577,254.961 309.453,244.953 315.5,251 315.5,251 318,254 318,254 322.607,254 325.19,244.12 327,240.5 329.076,236.349 333.997,236.505 336,232.5 338.335,227.83 332,225.143 332,223 328.774,223 330.769,219.038 330,217.5 327.689,212.877 323,204.787 323,197 323,197 319,197 319,197 319,198.963 312.012,201.244 310.5,202 305.482,204.509 289.699,214.099 283.5,211 281.36,209.93 279.142,204 278,204 278,204 277,204 277,204 277,208.455 267.228,224.136 263.5,226 261.093,227.204 257.805,226.848 255.5,228 255.5,228 254,233.5 254,233.5 249.842,241.816 245.895,237 241.5,237 240.501,237 239.119,238.81 237.5,238 235.038,236.769 233.083,231.667 232,229.5 232,229.5 227,227.5 227,227.5 225.108,223.717 220.828,216.164 218.5,215 215.625,213.563 216.982,210 214,210 214,211.714 208.406,211 207,211 207,214.114 203.832,211.834 201.5,213 201.5,213 199.5,216 199.5,216 195.447,218.026 189.117,211 183,211 183,211 180,208 180,208 176.592,208 169,197.896 169,194 169,194 167,193 167,193 167,193 165,195.5 165,195.5 165,195.5 165,203.5 165,203.5 163.388,206.724 162.545,210.411 161,213.5 161,213.5 158,215.5 158,215.5 158,215.5 161,223.5 161,223.5 161,223.5 158,225.5 158,225.5 155.73,230.041 156.801,227 152,227 152,227 151,231 151,231 153.212,231 153.212,232 151,232 151,234.452 155.817,246 159,246 159,239.868 166.664,254 168,254 168,242.047 177.464,250.964 181.5,255 187.725,261.225 194.515,272.53 199,281.5 201.618,286.737 211,288.333 211,294 213.915,294 215.651,297 217,297 217,297 221,294 221,294 221,289.886 230.934,285.283 233.5,284 236.751,282.375 236.229,279.636 239.5,278 244.888,275.306 263,288.985 263,295  Z"/>

<path  fill="#022CFF" stroke-width="0" stroke="#022CFF" d = " M243 195 C243,198.54 238,198.602 238,199.5 238,201.357 238.526,202.013 240.5,203 243.128,204.314 242.065,208.282 243.5,209 L246,208.5 L246,204.5 L250,199.5 C250,196.724 246.828,199 246.5,199 244.072,199 246.114,195 243,195  Z"/>

<path  fill="#DD6479" stroke-width="0" stroke="#DD6479" d = " M414 242 C415.812,242 415.87,244 416.5,244 L418.5,242 C425.285,245.393 428.462,247 437,247 437,244.355 447.212,241.077 449,237.5 449.291,236.917 451.684,207.868 451,206.5 449.717,203.935 448,199.944 448,197 445.741,197 442.849,193.325 439.5,195 434.438,197.531 427.47,195 421.5,195 421.5,195 419.5,197 419.5,197 419.5,197 418.5,195 418.5,195 417.895,195 414.193,198 412,198 412,198 411,199 411,199 411,199 413,200.5 413,200.5 413.867,202.234 413.08,204.661 414,206.5 415.848,210.195 414,236.563 414,242  Z"/>

<path  fill="#DD6479" stroke-width="0" stroke="#DD6479" d = " M61 249 C56.5234,249 52.0681,251 48,251 48,246.254 38.0301,246.56 36,242.5 36,242.5 34,233.5 34,233.5 34,233.5 36,230.5 36,230.5 36,230.5 33,227.5 33,227.5 30.9437,223.387 32.931,197 37,197 44.3566,197 53.255,197.878 59.5,201 59.5,201 62.5,199 62.5,199 62.5,199 64.5,203 64.5,203 64.5,203 66,201.5 66,201.5 66,201.5 66,205.5 66,205.5 66.0584,205.617 70,207.998 70,211 70,222.747 69,235.634 69,248 69,248 64,248 64,248 62.9521,248 61,247.527 61,249  Z"/>

<path  fill="#006400" stroke-width="0" stroke="#006400" d = " M143 218 L142,220.5 C144.462,225.424 148.389,218 143,218  Z"/>

<path  fill="#DD6479" stroke-width="0" stroke="#DD6479" d = " M412 220 C413.399,220 413.399,222 412,222 412,222 412,220 412,220  Z"/>

<path  fill="#DDD951" stroke-width="0" stroke="#DDD951" d = " M373 273 C365.835,273 368.194,277.112 366,281.5 363.555,286.39 357.569,286.965 353.5,289 L351,291 C351,291 345,280.5 345,280.5 343.021,276.543 349.182,253.137 351,249.5 352.148,247.204 358.838,245 361,245 362.235,245 366,245.643 366,244 366,244 378,241 378,241 379.747,241 380,240.747 380,239 384.691,239 385.823,226.838 389.5,225 390.577,224.462 407.896,235 411,235 411,242.432 409.867,250.767 406,258.5 404.12,262.26 397,263.236 397,265 397,265 393,267 393,267 393,267 392,267 392,267 390.765,267 387,266.357 387,268 387,268 386,269 386,269 386,269 385,270 385,270 385,270 382,271 382,271 380.765,271 377,270.357 377,272 377,272 375,272 375,272 375,272 373,273 373,273  Z"/>

<path  fill="#006400" stroke-width="0" stroke="#006400" d = " M151 231 C153.212,231 153.212,232 151,232 149.814,232 149.814,231 151,231  Z"/>

<path  fill="#DDD951" stroke-width="0" stroke="#DDD951" d = " M117 285 C122.889,285 127.728,294 134,294 134,290.018 142.814,284.128 141,280.5 139.005,276.51 139.325,272.149 137,267.5 135.274,264.047 131,264.598 131,260 131,260 130,259 130,259 128.952,259 127,259.473 127,258 127,255.272 113.643,251 111,251 111,251 110,250 110,250 110,250 109,250 109,250 109,251.186 108,251.186 108,250 105.316,250 103.465,245 102,245 102,245 101,244 101,244 101,244 97,239.5 97,239.5 96.3809,238.262 98.144,234 96,234 96,234 94,234 94,234 89.4392,234 81.818,239 79,239 79,240.579 76.1452,240 75,240 75,240 74,241 74,241 74,241 72,243 72,243 72,256.282 79.8975,272 95,272 95,272 96,272 96,272 96,272 97,272 97,272 97,272 98,272 98,272 99.0479,272 101,271.527 101,273 101,273 105,275 105,275 105,273.814 106,273.814 106,275 106,275 111,277 111,277 111,270.846 122.265,283 116,283 116,283 116,284 116,284 116,284 117,285 117,285  Z"/>

<path  fill="#2E8B57" stroke-width="0" stroke="#2E8B57" d = " M442 275 C444.05,275 443.468,276 445,276 449.399,276 448,266.754 448,264 448,256.925 445.052,247 437,247 428.462,247 425.285,245.393 418.5,242 418.5,242 416.5,244 416.5,244 415.87,244 415.812,242 414,242 414,242 414,248 414,248 414,249.145 414.579,252 413,252 413,253.321 413.684,258 412,258 412,258 416,263 416,263 416,263 418,263 418,263 418,261.191 420.671,266 422,266 422,266 423,267 423,267 423,267 430,270 430,270 430,270 432,271 432,271 432,271 440,274 440,274 440,274 442,275 442,275  Z"/>

<path  fill="#FF3427" stroke-width="0" stroke="#FF3427" d = " M211 294 C213.915,294 215.651,297 217,297 217,305.934 192.905,303.203 188.5,301 188.5,301 184.5,297 184.5,297 168.105,288.802 171.461,274.421 165,261.5 162.89,257.28 159,251.58 159,246 159,239.868 166.664,254 168,254 168,254 169,255 169,255 169,259.29 171.159,264.818 173,268.5 173,268.5 172,271.5 172,271.5 172,272.359 174.52,276.541 175,277.5 180.579,288.657 198.766,294 211,294  Z"/>

<path  fill="#FFBA00" stroke-width="0" stroke="#FFBA00" d = " M169 255 C169,259.29 171.159,264.818 173,268.5 L172,271.5 C172,272.359 174.52,276.541 175,277.5 180.579,288.657 198.766,294 211,294 211,288.333 201.618,286.737 199,281.5 194.515,272.53 187.725,261.225 181.5,255 177.464,250.964 168,242.047 168,254 168,254 169,255 169,255  Z"/>

<path  fill="#2E8B57" stroke-width="0" stroke="#2E8B57" d = " M71 262 C71,267.366 66.9963,264.252 63.5,266 56.0293,269.735 46.7449,278 38,278 35.3106,278 34.7679,269.964 36,267.5 39.6089,260.282 38.0353,251 48,251 52.0681,251 56.5234,249 61,249 62.0479,249 64,249.473 64,248 64,248 69,248 69,248 69,252.846 71,256.793 71,261 71,261 71,262 71,262  Z"/>

<path  fill="#FFBA00" stroke-width="0" stroke="#FFBA00" d = " M277 292 L279,293 C281.349,293 293,290.889 293,289 293,287.601 295,287.601 295,289 303.844,289 303.213,283.144 305.5,282 305.5,282 310,278.5 310,278.5 310,278.5 309,275 309,275 309,275 310,273 310,273 310,273 311,268 311,268 311,268 312,266 312,266 312,266 312,265 312,265 312,265 313,264 313,264 313,264 315,259 315,259 315,259 316,258 316,258 316,258 318,254 318,254 318,254 315.5,251 315.5,251 309.453,244.953 308.577,254.961 304.5,257 303.182,257.659 301.96,256.581 301,258.5 298.996,262.508 290.798,277.702 289,279.5 289,279.5 283,286 283,286 283,286 282,287 282,287 280.075,287 277,290.075 277,292  Z"/>

<path  fill="#FF3427" stroke-width="0" stroke="#FF3427" d = " M275 294 L269,296 C269,303.616 280.624,301.062 282.5,302 287.895,304.698 282.947,303.776 288.5,301 288.5,301 294.5,302 294.5,302 299.128,299.686 312.984,286.533 315,282.5 315,282.5 315,275.5 315,275.5 315,275.5 319,271.5 319,271.5 319,266.81 321,260.681 321,256.5 321,254.901 316.404,258 316,258 316,258 315,259 315,259 315,259 313,264 313,264 313,264 312,265 312,265 312,265 312,266 312,266 312,266 311,268 311,268 311,268 310,273 310,273 310,273 309,275 309,275 309,275 310,278.5 310,278.5 310,278.5 305.5,282 305.5,282 303.213,283.144 303.844,289 295,289 295,289 293,289 293,289 293,290.889 281.349,293 279,293 279,293 275,294 275,294  Z"/>

<path  fill="#7F81FF" stroke-width="0" stroke="#7F81FF" d = " M445 276 L447,281.5 L441,289.5 C439.265,292.971 438.504,301.998 434.5,304 432.201,305.15 428.266,301.883 426.5,301 L420.5,301 L418,298 C418,291.063 421.401,285.303 418,278.5 416.414,275.327 405,266.182 405,266 405,266 405,265 405,265 405,262.41 409.901,258 412,258 412,258 416,263 416,263 416,264.399 418,264.399 418,263 418,261.191 420.671,266 422,266 422,266 423,267 423,267 423,267 430,270 430,270 430,270 432,271 432,271 432,271 440,274 440,274 440,274 442,275 442,275 444.05,275 443.468,276 445,276  Z"/>

<path  fill="#7F81FF" stroke-width="0" stroke="#7F81FF" d = " M38 278 C38,286.505 40.0912,296.591 47,303.5 50.1052,306.605 63,311.473 63,303 63,292.294 62.5267,294.447 67,285.5 67,285.5 81,271 81,271 81,268.882 72,266.275 72,262 72,262 71,262 71,262 71,267.366 66.9963,264.252 63.5,266 56.0293,269.735 46.7449,278 38,278  Z"/>

<path  fill="#8B008B" stroke-width="0" stroke="#8B008B" d = " M375 290 L378.5,292 C382.341,290.08 392.215,287.357 397.5,290 404.273,293.386 411.106,298 418,298 418,291.063 421.401,285.303 418,278.5 416.414,275.327 405,266.182 405,266 405,266 404,266 404,266 402.3,266 398,268.335 398,268 396.765,268 393,268.643 393,267 393,267 392,267 392,267 392,269.802 387.893,268 387,268 387,268 386,269 386,269 386,269 385,270 385,270 385,270 382,271 382,271 382,272.643 378.235,272 377,272 377,272 375,272 375,272 375,272 373,274 373,274 373,279.74 375,285.217 375,290  Z"/>

<path  fill="#8B008B" stroke-width="0" stroke="#8B008B" d = " M110 296 L106.5,297 C102.461,294.981 96.2376,290.131 90.5,293 82.4796,297.01 74.6414,300.929 66.5,305 L63,303 C63,292.294 62.5267,294.447 67,285.5 67,285.5 81,271 81,271 83.0023,271 95,276.793 95,272 95,272 96,272 96,272 96,275.969 99,278.563 99,273 99,273 101,273 101,273 101,273 105,275 105,275 105,275 106,275 106,275 106,275 111,277 111,277 112.927,277 116,281.142 116,283 116,283 116,284 116,284 116,284 115,286 115,286 115,287.238 110,292.594 110,296  Z"/>

<path  fill="#FF6E00" stroke-width="0" stroke="#FF6E00" d = " M98 273 L99,273 C99,278.563 96,275.969 96,272 96,272 97,272 97,272 97,273.058 98,275.029 98,273  Z"/>

<path  fill="#8B008B" stroke-width="0" stroke="#8B008B" d = " M98 272 L98,273 C98,275.029 97,273.058 97,272 97,272 98,272 98,272  Z"/>

<path  fill="#41FF27" stroke-width="0" stroke="#41FF27" d = " M375 290 C375,294.741 351,310.62 351,291 351,291 353.5,289 353.5,289 357.569,286.965 363.555,286.39 366,281.5 368.194,277.112 365.835,273 373,273 373,273 373,274 373,274 373,279.74 375,285.217 375,290  Z"/>

<path  fill="#3FC0FF" stroke-width="0" stroke="#3FC0FF" d = " M221 294 C223.886,294 233.157,301.329 236.5,303 247.052,308.276 256.242,295 263,295 263,288.985 244.888,275.306 239.5,278 236.229,279.636 236.751,282.375 233.5,284 230.934,285.283 221,289.886 221,294  Z"/>

<path  fill="#41FF27" stroke-width="0" stroke="#41FF27" d = " M134 294 C134,298.715 137.025,303.737 130.5,307 127.912,308.294 110,299.884 110,296 110,292.594 115,287.238 115,286 115,286 117,285 117,285 122.889,285 127.728,294 134,294  Z"/>

<path  fill-rule="evenodd" fill="#FA8072" stroke-width="0" stroke="#FA8072" d = " M336 311 L334,312.5 C331.945,316.61 343.507,311 336,311  M333 293 C333,295.399 326.103,296.199 324.5,297 322.21,298.145 322.809,299.882 322,301.5 321.054,303.392 316.394,303.712 315,306.5 L313,312.5 C312.155,314.191 315,323.143 315,324 315,325.602 311.942,326.384 313,328.5 313.683,329.867 319.073,331.646 320,333.5 321.176,335.852 324.6,344.95 328.5,343 L330,339.5 C330.718,338.065 334.686,339.128 336,336.5 L335,331.5 L339,326.5 L337,323.5 L343,323.5 C349.476,310.548 353.042,293 333,293  Z"/>

<path  fill="#FA8072" stroke-width="0" stroke="#FA8072" d = " M144 296 C144,300.84 137.315,307.131 141,314.5 142.829,318.158 156.898,340.199 158.5,341 L164.5,341 C177.118,341 172.114,325.273 175,319.5 176.116,317.268 178.57,313.641 177,310.5 170.671,297.841 156.786,296 144,296  Z"/>

</g>
</svg>
