<svg xmlns="http://www.w3.org/2000/svg" xmlns:xlink="http://www.w3.org/1999/xlink" height="512" width="512">
<g>
<rect width="512" height="512" fill="#000000"  stroke-width="0" /> 
<path  fill="#03C12D" stroke-width="0" stroke="#03C12D" d = " M140 346 C140,352.401 132.78,349.36 129.5,351 125.649,352.926 115.62,356.56 110.5,354 L104.5,349 C101.806,349 97.012,350.524 95,346.5 89.5825,335.665 78.7285,325.957 73,314.5 69.8163,308.133 69.1754,297.851 66,291.5 L61,284.5 L63,282.5 L59,279.5 C55.2076,271.915 53.8243,263.149 50,255.5 47.6885,250.877 50,244.695 50,240 50,237.408 49.0419,236.584 48,234.5 47.2853,233.071 50.1035,213.293 51,211.5 L51,199.5 C52.2292,197.042 51.7936,193.913 53,191.5 L56,187.5 C56,182.547 64.1108,155.278 67,149.5 69.2675,144.965 73.9718,142.556 76,138.5 78.057,134.386 80.7507,124.375 85.5,122 L89.5,122 C91.8075,120.846 93.0757,114.712 96.5,113 L114.5,104 C119.209,101.645 125.791,102.355 130.5,100 133.638,98.431 137.589,94.9553 139.5,94 L147.5,93 L150.5,90 L155.5,90 C167.859,83.8203 182.783,83 198,83 L221.5,84 L222.5,86 C225.344,87.4222 229.685,86.5924 232.5,88 L232.5,90 L235.5,90 L239.5,94 C242.829,95.6646 248.156,86.1722 248.5,86 254.573,82.9635 287.837,76.1685 295.5,80 302.561,83.5306 312.372,81.4358 319.5,85 L327.5,85 C335.85,89.1748 347.584,89.0419 355.5,93 363.061,96.7806 371.071,100.286 378.5,104 379.356,104.428 377.384,105.942 379.5,107 396.098,115.299 408.056,122.612 417,140.5 L421,143.5 C425.746,152.991 431,166.507 431,176.5 L435,178.5 L434,185.5 C436.79,191.081 436.18,194.86 439,200.5 440.675,203.85 436.879,211.258 438,213.5 439.551,216.601 440.162,219.823 442,223.5 443.091,225.682 439,228.6 439,231 439,240.86 439.48,248.539 435,257.5 L436,260.5 L433.5,266 L428,269.5 C428,271.784 430.426,276.649 429,279.5 421.89,293.721 413.163,311.175 405,327.5 401.441,334.619 393.316,338.869 390,345.5 384.717,356.067 369.743,355.122 361.5,351 359.671,350.085 354,351.669 354,348 354,343.908 361.876,331.749 364,327.5 367.036,321.427 366.97,313.56 370,307.5 370,307.5 373,303.5 373,303.5 373,297.532 372,289.467 372,283 376.284,283 377.628,277.244 379,274.5 379,274.5 382,272.5 382,272.5 384.656,267.189 389,261.976 389,254 389,254 391.5,256 391.5,256 391.5,256 392.5,253 392.5,253 395.802,249.698 394,239.7 394,235 394,219.842 386.104,200.708 380,188.5 380,188.5 380,183.5 380,183.5 379.055,181.61 370.777,171 370,171 370,169.274 365.442,166 364,166 360.235,166 355.581,157 355.5,157 346.762,157 339.28,146.39 330.5,142 320.874,137.187 309.188,136.844 299.5,132 299.5,132 291.5,132 291.5,132 286.975,129.737 282.079,129.289 277.5,127 277.5,127 272,127 272,127 262.168,127 267.24,133.02 264,139.5 260.594,146.313 243.834,156.167 235.5,152 231.393,149.946 224.393,150.287 221,143.5 218.77,139.04 213.679,127 208.5,127 208.5,127 205.5,130 205.5,130 202.194,131.653 200.982,131 198.5,131 198.5,131 195.5,134 195.5,134 187.406,134 167.197,138.651 158.5,143 155.376,144.562 151.787,149.356 148.5,151 128.479,161.011 115.506,174.488 106,193.5 106,193.5 106,198.5 106,198.5 104.391,201.718 101.648,204.205 100,207.5 100,207.5 100,213.5 100,213.5 95.7418,222.016 96,232.719 96,243 94.7118,243 93.7075,255 96,255 96,255 96,257 96,257 96,257 100,261 100,261 100.085,261 106,269.883 106,270.5 106,270.5 105,272.5 105,272.5 105,272.5 112,281 112,281 112,284.903 116.327,289.155 118,292.5 120.806,298.112 115.078,305.656 118,311.5 119.354,314.209 120.696,316.892 122,319.5 124.722,324.944 140,341.567 140,346  Z"/>

<path  fill="#03C12D" stroke-width="0" stroke="#03C12D" d = " M381 105 C381,106.93 382.93,105 381,105  Z"/>

<path  fill="#FF6E00" stroke-width="0" stroke="#FF6E00" d = " M96 257 L98,257 C98,251.282 98.5145,242.471 101,237.5 102.368,234.764 98.776,225.948 101,221.5 101.202,221.096 102.977,221.546 104,219.5 104.914,217.673 103.427,215.645 104,214.5 104,214.5 106,214.5 106,214.5 106,214.5 106,208.5 106,208.5 106.03,208.44 108.949,207.601 110,205.5 112.441,200.619 113.291,195.918 116,190.5 116,190.5 120,187 120,187 120,187 121,186 121,186 121,183.997 120.707,183 123,183 123,183 126,181.5 126,181.5 126,175.707 136.99,171 144,171 144,171 146,169 146,169 153.188,169 168.215,158.07 171,152.5 171.543,151.414 176,151.63 176,153 182.866,153 191.372,143.936 199.5,148 203.076,149.788 211.143,155 215,155 216.163,155 222.861,159 221,159 221,160.069 227.717,162 229,162 229,162 231,163 231,163 231,163 235,164 235,164 240.909,164 246.579,163 252,163 252,163 253,163 253,163 253,163 254,162 254,162 254,162 256,161 256,161 256,161 257,160 257,160 257,160 259,159 259,159 259,159 261,158 261,158 261,158 262,157 262,157 262,157 265,156 265,156 265,156 266,154 266,154 266,154 268,153 268,153 268,153 269,152 269,152 269,152 271,151 271,151 271,151 278,147 278,147 278,147 280,146 280,146 280,146 282,145 282,145 282,145 283,145 283,145 283,145 285,144 285,144 285,144 287,144 287,144 287,142.398 294,142.398 294,144 294,144 301,146 301,146 301,146 303,147 303,147 303,147 311,152 311,152 311,149.442 307,149.703 307,148.5 307,147.653 311.476,146.488 312.5,147 312.5,147 319.5,154 319.5,154 321.83,155.165 318.576,156.038 320.5,157 322.508,158.004 325.452,157.976 327.5,159 329.601,160.051 327.911,166 334,166 336.737,166 345,167.088 345,169 345,169.675 350.294,171 351,171 351,171 352,172 352,172 352,172 355,172 355,172 355,170.814 356,170.814 356,172 356,172 362,178 362,178 362,178 364,179 364,179 366.875,179 371,183.882 371,187 372.577,187 373,188.762 373,190 373,190 375,191 375,191 375,191 377,193 377,193 377,195.124 378,197.436 378,199 378,199 379,200 379,200 379,200 382,203.5 382,203.5 382,203.5 383,211.5 383,211.5 384.752,215.004 387,215.559 387,221 388.186,221 388.186,222 387,222 387,222 388,226 388,226 389.263,226 391,235.092 391,237 391,237 391,240 391,240 391,240 391,242 391,242 391,242 389,254 389,254 389,254 391.5,256 391.5,256 391.5,256 392.5,253 392.5,253 395.802,249.698 394,239.7 394,235 394,219.842 386.104,200.708 380,188.5 380,188.5 380,183.5 380,183.5 379.055,181.61 370.777,171 370,171 367.805,171 364,167.911 364,166 360.235,166 355.581,157 355.5,157 346.762,157 339.28,146.39 330.5,142 320.874,137.187 309.188,136.844 299.5,132 299.5,132 291.5,132 291.5,132 286.975,129.737 282.079,129.289 277.5,127 277.5,127 272,127 272,127 262.168,127 267.24,133.02 264,139.5 260.594,146.313 243.834,156.167 235.5,152 231.393,149.946 224.393,150.287 221,143.5 218.77,139.04 213.679,127 208.5,127 208.5,127 205.5,130 205.5,130 202.194,131.653 200.982,131 198.5,131 198.5,131 195.5,134 195.5,134 187.406,134 167.197,138.651 158.5,143 155.376,144.562 151.787,149.356 148.5,151 128.479,161.011 115.506,174.488 106,193.5 106,193.5 106,198.5 106,198.5 104.391,201.718 101.648,204.205 100,207.5 100,207.5 100,213.5 100,213.5 95.7418,222.016 96,232.719 96,243 96,243 96,255 96,255 96,255 96,257 96,257  Z"/>

<path  fill="#0E47E2" stroke-width="0" stroke="#0E47E2" d = " M270 181 L276,181 C276,181 278,183.5 278,183.5 278,183.5 271.5,190 271.5,190 271.5,190 268.5,189 268.5,189 261.3,192.6 256.777,189.639 251.5,187 251.5,187 249.5,184 249.5,184 249.5,184 245,181.5 245,181.5 245,181.5 247,172 247,172 247,172 248,168 248,168 248,166.698 252,165.359 252,163 252,163 253,163 253,163 253,163 254,162 254,162 254,162 256,161 256,161 256,161 257,160 257,160 257,160 259,159 259,159 259,159 261,158 261,158 261,158 262,157 262,157 262,157 265,156 265,156 265,156 267,154 267,154 267,154 268,153 268,153 268,153 269,152 269,152 269,152 271,151 271,151 271,151 278,147 278,147 278,147 280,146 280,146 280,146 282,145 282,145 282,145 283,145 283,145 283,145 285,144 285,144 285,144 287,144 287,144 288.851,144 294,144.498 294,144 294,144 301,146 301,146 301,146 303,147 303,147 303,147 311,152 311,152 311,152 312,153 312,153 312,153 313,158 313,158 313,160.025 307.036,166.732 306.5,167 306.5,167 301.5,167 301.5,167 295.574,169.963 289.374,172.063 283.5,175 283.5,175 278.5,175 278.5,175 278.5,175 276,177 276,177 276,177 274,178 274,178 272.855,178 270,177.421 270,179 270,179 269,179 269,179 263.775,179 258.123,181 266,181 266,181 267,181 267,181 267,182.486 270,182.486 270,181  Z"/>

<path  fill="#022CFF" stroke-width="0" stroke="#022CFF" d = " M335 190 L337,190 C337,190 338,189 338,189 338,189 339,188 339,188 339,186.8 335.254,186 339,186 339,186 339,185 339,185 336.997,185 336,185.293 336,183 336,183 336,182 336,182 334.601,182 334.601,180 336,180 336,180 336,179 336,179 336,179 335,177 335,177 335,177 334,175 334,175 334,175 335,174 335,174 335,174 335,173 335,173 335,173 334,166 334,166 327.911,166 329.601,160.051 327.5,159 325.452,157.976 322.508,158.004 320.5,157 318.576,156.038 321.83,155.165 319.5,154 319.5,154 312.5,147 312.5,147 311.476,146.488 307,147.653 307,148.5 307,149.703 311,149.442 311,152 311,152 312,153 312,153 312,153 316,157 316,157 316,157 321,159.5 321,159.5 321,159.5 319.5,161 319.5,161 324.005,163.252 331,168.933 331,177.5 331,177.5 329,179.5 329,179.5 329,180.369 334,182.324 334,182.5 334,182.5 332,183.5 332,183.5 332,183.5 336,187.5 336,187.5 336,187.5 335,190 335,190  Z"/>

<path  fill="#0E47E2" stroke-width="0" stroke="#0E47E2" d = " M204 177 C208.604,177 213.623,179.061 217.5,181 219.443,181.972 227,179.363 227,181.5 227,184.1 213.059,183 211,183 211,183 209,187.5 209,187.5 209,187.5 211.5,188 211.5,188 213.034,188.767 218.004,192 219.5,192 224.497,192 235.369,188.763 238,183.5 240.049,179.402 237,179.813 237,176 237,176 238,175 238,175 238,175 238,174 238,174 238,174 239,169 239,169 239,169 235,164 235,164 235,164 231,163 231,163 231,163 229,162 229,162 227.717,162 221,160.069 221,159 219.336,159 215,157.177 215,155 211.143,155 203.076,149.788 199.5,148 191.372,143.936 182.866,153 176,153 176,155.25 174,155.259 174,158 175.802,158 174,161.464 174,162.5 174,162.627 179.109,168 180,168 180,168 182,169 182,169 183.95,169 197.392,176 202,176 202,176 204,177 204,177  Z"/>

<path  fill="#03C12D" stroke-width="0" stroke="#03C12D" d = " M271 151 L269,152 C269,152 271,151 271,151  Z"/>

<path  fill="#022CFF" stroke-width="0" stroke="#022CFF" d = " M154 192 C156.842,192 157.647,195 159,195 159,187.032 158.735,174.03 162,167.5 162,167.5 166,164.5 166,164.5 168.219,160.061 166.276,158 174,158 174,155.259 176,155.25 176,153 176,151.63 171.543,151.414 171,152.5 168.215,158.07 153.188,169 146,169 146,169 148,171 148,171 149.995,171 152.919,170.338 154,172.5 154,172.5 153,177.5 153,177.5 154.152,179.803 154,180.686 154,182.5 154,182.5 156,184.5 156,184.5 156,186.118 154,188.194 154,190 154,190 154,192 154,192  Z"/>

<path  fill="#03C12D" stroke-width="0" stroke="#03C12D" d = " M269 152 L268,153 C268,153 269,152 269,152  Z"/>

<path  fill="#03C12D" stroke-width="0" stroke="#03C12D" d = " M266 154 L267,154 C267,154 268,153 268,153 268,153 266,154 266,154  Z"/>

<path  fill="#00FF1D" stroke-width="0" stroke="#00FF1D" d = " M329 195 C327.253,195 327,195.253 327,197 324.986,197 321.068,199.284 318.5,198 318.5,198 314,195 314,195 314,195 314,194 314,194 314,194 309,189 309,189 309,187.762 308.577,186 307,186 307,186 306,184 306,184 306,184 306,181 306,181 306,174.228 288.568,176.966 284.5,179 282.73,179.885 276,180.371 276,181 276,181 270,181 270,181 270,181 267,181 267,181 267,181 266,181 266,181 266,181 269,179 269,179 269,179 270,179 270,179 271.145,179 274,179.579 274,178 274,178 276,177 276,177 276,177 278.5,175 278.5,175 278.5,175 283.5,175 283.5,175 289.374,172.063 295.574,169.963 301.5,167 301.5,167 306.5,167 306.5,167 307.036,166.732 313,160.025 313,158 313,158 316,157 316,157 316,157 321,159.5 321,159.5 321,159.5 319.5,161 319.5,161 324.005,163.252 331,168.933 331,177.5 331,177.5 329,179.5 329,179.5 329,180.369 334,182.324 334,182.5 334,182.5 332,183.5 332,183.5 332,183.5 336,187.5 336,187.5 336,187.5 335,190 335,190 335,190 335,191 335,191 335,191 334,192 334,192 334,194.173 329,191.768 329,195  Z"/>

<path  fill="#00FF1D" stroke-width="0" stroke="#00FF1D" d = " M173 200 L172,201 C170.48,201 160,200.106 160,197 160,197 159,196 159,196 159,196 159,195 159,195 159,187.032 158.735,174.03 162,167.5 162,167.5 166,164.5 166,164.5 168.219,160.061 166.276,158 174,158 175.802,158 174,161.464 174,162.5 174,162.627 179.109,168 180,168 180,168 182,169 182,169 183.95,169 197.392,176 202,176 202,176 204,177 204,177 208.604,177 213.623,179.061 217.5,181 219.443,181.972 227,179.363 227,181.5 227,184.1 213.059,183 211,183 205.595,183 185,176.803 185,187 185,187 184,188 184,188 184,190.332 179.165,196 177,196 177,196 176,197 176,197 176,197 173,200 173,200  Z"/>

<path  fill="#FF0800" stroke-width="0" stroke="#FF0800" d = " M246 169 L240,170 C240,170 239,169 239,169 239,169 235,164 235,164 240.909,164 246.579,163 252,163 252,165.359 248,166.698 248,168 248,168 246,169 246,169  Z"/>

<path  fill="#022CFF" stroke-width="0" stroke="#022CFF" d = " M215 200 L216,200 C216,200 217,199 217,199 217,193.596 231.638,197 235,197 237.301,197 240.58,202 242.5,202 245.859,202 247.874,196 250,196 252.045,196 268,190.197 268,197 272.074,197 272.837,191.332 277.5,189 287.128,184.186 295.7,181 306,181 306,174.228 288.568,176.966 284.5,179 282.73,179.885 276,180.371 276,181 276,181 278,183.5 278,183.5 278,183.5 271.5,190 271.5,190 271.5,190 268.5,189 268.5,189 261.3,192.6 256.777,189.639 251.5,187 251.5,187 249.5,184 249.5,184 249.5,184 245,181.5 245,181.5 245,181.5 247,172 247,172 245.527,172 246,170.048 246,169 246,169 240,170 240,170 240,170 238,174 238,174 238,174 238,175 238,175 238,175 237,176 237,176 237,179.813 240.049,179.402 238,183.5 235.369,188.763 224.497,192 219.5,192 218.004,192 213.034,188.767 211.5,188 211.5,188 209,187.5 209,187.5 209,187.5 211,183 211,183 205.595,183 185,176.803 185,187 192.989,187 215,190.334 215,200  Z"/>

<path  fill="#814FFF" stroke-width="0" stroke="#814FFF" d = " M362 277 C364.207,277 372,281.697 372,283 376.284,283 377.628,277.244 379,274.5 379,274.5 382,272.5 382,272.5 384.656,267.189 389,261.976 389,254 389,254 391,242 391,242 389.601,242 389.601,240 391,240 391,240 391,237 391,237 388.255,237 388,227.141 388,226 388,226 387,222 387,222 385.814,222 385.814,221 387,221 387,215.559 384.752,215.004 383,211.5 383,211.5 382,203.5 382,203.5 382,203.5 379,200 379,200 379,200 378,199 378,199 378,197.436 377,195.124 377,193 377,193 375,191 375,191 375,191 373,190 373,190 373,190 371,187 371,187 371,183.882 366.875,179 364,179 364,179 362,178 362,178 362,178 356,172 356,172 356,172 355,172 355,172 355,172 352,172 352,172 352,172 351,171 351,171 350.294,171 345,169.675 345,169 340.096,169 335.904,173 335,173 335,173 335,174 335,174 335,174 334,175 334,175 334,175 335,177 335,177 335,177 336,179 336,179 336,179 336,180 336,180 336,180 336,182 336,182 336,182 336,183 336,183 336.822,183 344,184.311 344,185 353.859,185 347.857,189.213 350,193.5 350.197,193.894 358,191.309 358,199 359.186,199 359.186,200 358,200 355.659,200 356.579,202.342 356,203.5 356,203.5 352,205.5 352,205.5 352,205.5 353,211.5 353,211.5 353,211.5 351,214 351,214 351,214 352,214 352,214 356.702,214 353.042,216.771 355.5,218 355.5,218 359,218.5 359,218.5 362.859,226.218 364.073,239.354 360,247.5 360,247.5 359,256.5 359,256.5 357.8,258.901 356,261.088 356,264 357.399,264 357.399,266 356,266 356,269.103 361,271.466 361,274 362.186,274 362.186,275 361,275 361,275 361,276 361,276 361,276 362,277 362,277  Z"/>

<path  fill="#814FFF" stroke-width="0" stroke="#814FFF" d = " M130 265 C130,267.245 132,268.905 132,270.5 132,278.016 125.674,279 120.5,279 L116.5,282 L112,281 C112,281 105,272.5 105,272.5 105,272.5 106,270.5 106,270.5 106,269.883 100.085,261 100,261 100,261 98,257 98,257 98,251.282 98.5145,242.471 101,237.5 102.368,234.764 98.776,225.948 101,221.5 101.202,221.096 102.977,221.546 104,219.5 104.914,217.673 103.427,215.645 104,214.5 104,214.5 106,214.5 106,214.5 106,214.5 106,208.5 106,208.5 106.03,208.44 108.949,207.601 110,205.5 112.441,200.619 113.291,195.918 116,190.5 116,190.5 120,187 120,187 120,187 121,186 121,186 122.577,186 123,184.238 123,183 123,183 126,181.5 126,181.5 126,175.707 136.99,171 144,171 144,171 148,171 148,171 149.995,171 152.919,170.338 154,172.5 154,172.5 153,177.5 153,177.5 154.152,179.803 154,180.686 154,182.5 154,182.5 156,184.5 156,184.5 156,186.118 154,188.194 154,190 154,190 152,192 152,192 149.386,192 149.706,187.911 149,186.5 147.648,183.797 145.416,185.958 143.5,185 143.5,185 141.5,182 141.5,182 139.27,182 140.471,185.558 140,186.5 138.26,189.98 140,195.765 140,201 140,202.041 139.014,206 138,206 138,206 136,203.5 136,203.5 132.599,196.699 132.448,207 137,207 137,207 139,216 139,216 139,216 138,217 138,217 137.104,217 134.974,219 137,219 137,219 135,223 135,223 135,223 132,226.5 132,226.5 132,228.869 127,234.81 127,237 125.601,237 125.601,239 127,239 127,241.061 125,243.212 125,243.5 125,249.241 128,256.553 128,262 128,262 129,263 129,263 129,263 130,265 130,265  Z"/>

<path  fill="#006400" stroke-width="0" stroke="#006400" d = " M216 283 C216,279.571 220.368,285 223,285 223,283.12 225.079,285.711 226.5,285 226.5,285 227.5,281 227.5,281 228.34,280.58 238.721,282 242,282 242,277.194 245,277.796 245,282 245,282 258.5,281 258.5,281 262.187,282.843 263.032,283 267,283 267,283 269,282 269,282 269,282 270,282 270,282 270,282 276,280 276,280 276,280 279,280 279,280 282.212,280 287.647,277.205 289,274.5 289,274.5 289,270.5 289,270.5 289,270.5 295.5,268 295.5,268 295.5,268 301,262 301,262 301,262 303,259 303,259 303,259 303,258 303,258 303,256.814 304,256.814 304,258 304,258 305,257 305,257 305,255.253 305.253,255 307,255 307,255 311,252.5 311,252.5 313.57,247.36 325.982,241.537 329,235.5 329,235.5 328,232.5 328,232.5 330.261,227.978 336.499,216.498 334,211.5 334,211.5 332,206 332,206 332,206 330,205 330,205 330,205 324,204 324,204 321.071,204 314,197.939 314,195 314,195 314,194 314,194 310.86,194 309,192.1 309,189 309,187.762 308.577,186 307,186 307,186 306,184 306,184 306,184 306,181 306,181 295.7,181 287.128,184.186 277.5,189 272.837,191.332 272.074,197 268,197 268,205.843 264.616,202.558 259.5,200 255.903,198.201 250,202.907 250,196 247.874,196 245.859,202 242.5,202 240.58,202 237.301,197 235,197 235,197 235,200.5 235,200.5 234.608,201.284 217,209.141 217,199 217,199 216,200 216,200 216,201.186 215,201.186 215,200 215,190.334 192.989,187 185,187 185,187 184,188 184,188 184,190.332 179.165,196 177,196 177,196 176,197 176,197 176,197 173,200 173,200 174.93,200 173,201.161 173,202 173,202 172,205 172,205 172,205 171,206 171,206 171,211.589 166.008,209 163,209 150.672,209 159.431,215.638 157,220.5 155.413,223.674 157.572,222.644 159,225.5 159.912,227.323 158.57,232.64 160,235.5 162.368,240.236 174.002,245.504 176,249.5 176,249.5 176,252.5 176,252.5 177.336,255.171 179,252.542 179,255.5 179,255.5 184,259.5 184,259.5 184,259.5 187,264 187,264 187,264 188,265 188,265 188,265 190,266 190,266 195.144,266 203.751,281 210,281 210,281 212,282 212,282 212,282 213,282 213,282 213,282 216,283 216,283  Z"/>

<path  fill="#FF3427" stroke-width="0" stroke="#FF3427" d = " M188 265 L190,266 C190,268.704 190.417,271.542 187.5,273 184.953,274.273 185.222,270.139 183.5,271 180.233,272.633 168.372,275.436 165.5,274 165.5,274 158,264 158,264 158,256.555 152.117,250.734 149,244.5 147.045,240.591 146.149,232.798 144,228.5 143.16,226.82 143.496,219 141,219 141,219 139,216 139,216 139,216 137,207 137,207 137,207 138,206 138,206 139.014,206 140,202.041 140,201 140,195.765 138.26,189.98 140,186.5 140.471,185.558 139.27,182 141.5,182 141.5,182 143.5,185 143.5,185 145.416,185.958 147.648,183.797 149,186.5 149.706,187.911 149.386,192 152,192 152,193.145 151.421,196 153,196 153,198.395 158,201.527 158,203 158,203 160,205 160,205 160,205 165,207 165,207 165,207 163,209 163,209 150.672,209 159.431,215.638 157,220.5 155.413,223.674 157.572,222.644 159,225.5 159.912,227.323 158.57,232.64 160,235.5 162.368,240.236 174.002,245.504 176,249.5 176,249.5 176,252.5 176,252.5 177.336,255.171 179,252.542 179,255.5 179,255.5 184,259.5 184,259.5 184,259.5 187,264 187,264 187,264 188,265 188,265  Z"/>

<path  fill="#FF3427" stroke-width="0" stroke="#FF3427" d = " M301 263 C301,271.921 310.572,270.536 315.5,273 L317.5,276 L318.5,274 L320.5,275 L321.5,273 C324.308,271.596 332,275.503 332,265 332,260.175 334.379,262.743 335,261.5 335,261.5 335,257.5 335,257.5 336.986,253.527 340,252.953 340,248 340,248 340,247 340,247 340,247 342,245.5 342,245.5 342.81,243.881 341,242.499 341,241.5 341,241.211 347.305,225.89 348,224.5 349.118,222.264 345.16,221.18 346,219.5 346.831,217.838 351,218.532 351,215 351,215 351,214 351,214 351,214 353,211.5 353,211.5 353,211.5 352,205.5 352,205.5 352,205.5 356,203.5 356,203.5 356.579,202.342 355.659,200 358,200 358,200 358,199 358,199 358,191.309 350.197,193.894 350,193.5 347.857,189.213 353.859,185 344,185 344,185 339,185 339,185 339,185 339,186 339,186 340.399,186 340.399,188 339,188 339,188 338,189 338,189 338,189 337,190 337,190 337,194.839 335.421,200 329,200 329,201.927 324,200.106 324,204 324,204 330,205 330,205 330,205 332,206 332,206 332,206 334,211.5 334,211.5 336.499,216.498 330.261,227.978 328,232.5 328,232.5 329,235.5 329,235.5 325.982,241.537 313.57,247.36 311,252.5 311,252.5 307,255 307,255 307,255 305,257 305,257 305,257 304,258 304,258 304,258 303,258 303,258 303,258 303,259 303,259 303,260.465 303.109,263 301,263  Z"/>

<path  fill="#EE7533" stroke-width="0" stroke="#EE7533" d = " M327 197 L329,200 C335.421,200 337,194.839 337,190 337,190 335,190 335,190 335,190 335,191 335,191 335,191 334,192 334,192 334,194.173 329,191.768 329,195 331.654,195 328.267,197 327,197  Z"/>

<path  fill="#EE7533" stroke-width="0" stroke="#EE7533" d = " M171 206 L165,207 C165,207 160,205 160,205 160,205 158,203 158,203 158,201.527 153,198.395 153,196 153,196 154,192 154,192 156.842,192 157.647,195 159,195 159,195 159,196 159,196 159,196 160,197 160,197 160,200.106 170.48,201 172,201 172,201 173,202 173,202 173,202 172,205 172,205 172,205 171,206 171,206  Z"/>

<path  fill="#FFFC00" stroke-width="0" stroke="#FFFC00" d = " M250 196 C252.045,196 268,190.197 268,197 268,205.843 264.616,202.558 259.5,200 255.903,198.201 250,202.907 250,196  Z"/>

<path  fill="#FFFC00" stroke-width="0" stroke="#FFFC00" d = " M235 197 C231.638,197 217,193.596 217,199 217,209.141 234.608,201.284 235,200.5 235,200.5 235,197 235,197  Z"/>

<path  fill="#FF91BA" stroke-width="0" stroke="#FF91BA" d = " M332 265 L335,269.5 C336.558,271.058 341.33,272.915 343.5,274 348.705,276.603 352.001,266 356,266 356,266 356,264 356,264 356,261.088 357.8,258.901 359,256.5 359,256.5 360,247.5 360,247.5 364.073,239.354 362.859,226.218 359,218.5 359,218.5 355.5,218 355.5,218 353.042,216.771 356.702,214 352,214 352,214 351,215 351,215 351,218.532 346.831,217.838 346,219.5 345.16,221.18 349.118,222.264 348,224.5 347.305,225.89 341,241.211 341,241.5 341,242.499 342.81,243.881 342,245.5 342,245.5 340,247 340,247 341.186,247 341.186,248 340,248 340,252.953 336.986,253.527 335,257.5 335,257.5 335,261.5 335,261.5 334.379,262.743 332,260.175 332,265  Z"/>

<path  fill="#FF91BA" stroke-width="0" stroke="#FF91BA" d = " M138 217 C137.104,217 134.974,219 137,219 137,219 138,217 138,217  Z"/>

<path  fill-rule="evenodd" fill="#FF91BA" stroke-width="0" stroke="#FF91BA" d = " M138 225 C138,226.93 139.93,225 138,225  M158 264 C158,266.952 153.626,269.874 151.5,272 L151.5,275 L137.5,275 C132.633,272.567 134.053,265 130,265 130,265 129,263 129,263 129,263 128,262 128,262 128,256.553 125,249.241 125,243.5 125,243.212 127,241.061 127,239 127,238.161 128.93,237 127,237 127,234.81 132,228.869 132,226.5 132,226.5 135,223 135,223 136.178,223 141,220.428 141,219 143.496,219 143.16,226.82 144,228.5 146.149,232.798 147.045,240.591 149,244.5 152.117,250.734 158,256.555 158,264  Z"/>

<path  fill="#03C12D" stroke-width="0" stroke="#03C12D" d = " M387 221 C388.186,221 388.186,222 387,222 385.814,222 385.814,221 387,221  Z"/>

<path  fill="#FF3427" stroke-width="0" stroke="#FF3427" d = " M138 225 C138,226.93 139.93,225 138,225  Z"/>

<path  fill="#03C12D" stroke-width="0" stroke="#03C12D" d = " M388 226 C389.263,226 391,235.092 391,237 388.255,237 388,227.141 388,226  Z"/>

<path  fill="#03C12D" stroke-width="0" stroke="#03C12D" d = " M391 240 C389.601,240 389.601,242 391,242 391,242 391,240 391,240  Z"/>

<path  fill="#E1F00D" stroke-width="0" stroke="#E1F00D" d = " M315 343 C317.573,343 321.72,345 324.5,345 L328.5,343 C330.444,343 329.762,347.131 331.5,348 334.282,349.391 337.46,346.98 339.5,348 341.216,348.858 343.216,351.858 345.5,353 349.3,354.9 352.215,348 354,348 354,343.908 361.876,331.749 364,327.5 367.036,321.427 366.97,313.56 370,307.5 370,307.5 373,303.5 373,303.5 373,297.532 372,289.467 372,283 372,281.697 364.207,277 362,277 362,277 360,278.5 360,278.5 360,278.5 361,276 361,276 361,276 361,275 361,275 361,275 361,274 361,274 361,271.466 356,269.103 356,266 352.001,266 348.705,276.603 343.5,274 341.33,272.915 336.558,271.058 335,269.5 335,269.5 332,265 332,265 332,275.503 324.308,271.596 321.5,273 321.5,273 320.5,275 320.5,275 320.5,275 318.5,274 318.5,274 318.5,274 317.5,276 317.5,276 317.5,276 315.5,273 315.5,273 310.572,270.536 301,271.921 301,263 301,263 301,262 301,262 301,262 295.5,268 295.5,268 295.5,268 289,270.5 289,270.5 289,270.5 289,274.5 289,274.5 287.647,277.205 282.212,280 279,280 279,281.235 279.643,285 278,285 278,285 278,286 278,286 278,286 277,288 277,288 277,290.715 275.343,291 273,291 273,291 269,289 269,289 269,294.327 277.741,296.982 280,301.5 280,301.5 279,303.5 279,303.5 279,306.248 281.868,306.235 283,308.5 283,308.5 282,319 282,319 282,319 286,320 286,320 289.062,320 289.786,316.357 292.5,315 305.719,308.39 302,319.22 302,326 302,328.984 308.029,328.557 309,330.5 310.227,332.955 308.153,342 313,342 313,342 315,343 315,343  Z"/>

<path  fill-rule="evenodd" fill="#E1F00D" stroke-width="0" stroke="#E1F00D" d = " M172 276 C172,278.105 181.211,276 172,276  M183 322 C181.107,322 174.838,338.831 172.5,340 169.746,341.377 143.904,350.702 142.5,350 L140,346 C140,341.567 124.722,324.944 122,319.5 120.696,316.892 119.354,314.209 118,311.5 115.078,305.656 120.806,298.112 118,292.5 116.327,289.155 112,284.903 112,281 112,281 116.5,282 116.5,282 116.5,282 120.5,279 120.5,279 125.674,279 132,278.016 132,270.5 132,268.905 130,267.245 130,265 134.053,265 132.633,272.567 137.5,275 137.5,275 151.5,275 151.5,275 151.5,275 151.5,272 151.5,272 153.626,269.874 158,266.952 158,264 158,264 165.5,274 165.5,274 168.372,275.436 180.233,272.633 183.5,271 185.222,270.139 184.953,274.273 187.5,273 190.417,271.542 190,268.704 190,266 195.144,266 203.751,281 210,281 210,283.895 204.979,293 211,293 211,293 211,294 211,294 211,294 211,295 211,295 211,295 208,300.5 208,300.5 205.448,305.604 207,314.264 207,319 207,319 203,320 203,320 203,320 197,318 197,318 197,315.079 183,314.162 183,322  Z"/>

<path  fill="#E1F00D" stroke-width="0" stroke="#E1F00D" d = " M187 264 L188,265 C188,265 187,264 187,264  Z"/>

<path  fill="#E1F00D" stroke-width="0" stroke="#E1F00D" d = " M356 264 C357.399,264 357.399,266 356,266 356,266 356,264 356,264  Z"/>

<path  fill="#FF3427" stroke-width="0" stroke="#FF3427" d = " M172 276 C172,278.105 181.211,276 172,276  Z"/>

<path  fill="#022CFF" stroke-width="0" stroke="#022CFF" d = " M242 282 L242,319 C242,320.643 241.016,330 243.5,330 245.984,330 245,320.643 245,319 L245,282 C245,277.796 242,277.194 242,282  Z"/>

<path  fill="#0008B6" stroke-width="0" stroke="#0008B6" d = " M276 282 L278,285 C279.643,285 279,281.235 279,280 279,280 276,280 276,280 276,280 276,282 276,282  Z"/>

<path  fill="#0008B6" stroke-width="0" stroke="#0008B6" d = " M212 283 L210,286.5 L211,293 C204.979,293 210,283.895 210,281 210,281 212,282 212,282 212,282 212,283 212,283  Z"/>

<path  fill="#0008B6" stroke-width="0" stroke="#0008B6" d = " M223 285 C223,287.341 215.976,292 214,292 214,292 217,285 217,285 219.092,285 217.652,283 216,283 216,279.571 220.368,285 223,285  Z"/>

<path  fill="#E278A1" stroke-width="0" stroke="#E278A1" d = " M243 336 C241.952,336 240,335.527 240,337 240,337 227.5,338 227.5,338 223.983,336.242 208,328.351 208,325 208,325 207,319 207,319 207,314.264 205.448,305.604 208,300.5 208,300.5 211,295 211,295 211,295 212,294 212,294 212,294 213,293 213,293 213,293 214,292 214,292 215.976,292 223,287.341 223,285 223,283.12 225.079,285.711 226.5,285 226.5,285 227.5,281 227.5,281 228.34,280.58 238.721,282 242,282 242,282 242,319 242,319 242,320.643 241.016,330 243.5,330 245.984,330 245,320.643 245,319 245,319 245,282 245,282 245,282 258.5,281 258.5,281 262.187,282.843 263.032,283 267,283 267,285.483 269,287.026 269,289 269,294.327 277.741,296.982 280,301.5 280,301.5 279,303.5 279,303.5 279,306.248 281.868,306.235 283,308.5 283,308.5 282,319 282,319 282,322.151 279,321.703 279,324 276.686,324 279.837,325.331 278.5,326 278.5,326 273.5,327 273.5,327 270.478,328.511 268.109,332.195 264.5,334 264.5,334 249.5,334 249.5,334 249.5,334 243,336 243,336  Z"/>

<path  fill="#15C0FF" stroke-width="0" stroke="#15C0FF" d = " M211 294 L212,294 C212,294 213,293 213,293 213,293 214,292 214,292 214,292 217,285 217,285 217,285 216,283 216,283 216,283 213,282 213,282 213,282 212,283 212,283 212,283 210,286.5 210,286.5 210,286.5 211,293 211,293 211,293 211,294 211,294  Z"/>

<path  fill="#0008B6" stroke-width="0" stroke="#0008B6" d = " M269 289 L273,291 C273,290.295 266.635,284 270,284 270,284 270,283 270,283 270,283 269,282 269,282 269,282 267,283 267,283 267,285.483 269,287.026 269,289  Z"/>

<path  fill="#E278A1" stroke-width="0" stroke="#E278A1" d = " M270 282 L270,283 C270,283 269,282 269,282 269,282 270,282 270,282  Z"/>

<path  fill="#15C0FF" stroke-width="0" stroke="#15C0FF" d = " M277 288 C277,290.715 275.343,291 273,291 273,290.295 266.635,284 270,284 271.974,284 273.517,282 276,282 276,282 278,285 278,285 278,285 278,286 278,286 278,286 277,288 277,288  Z"/>

<path  fill="#0008B6" stroke-width="0" stroke="#0008B6" d = " M278 286 L277,288 C277,288 278,286 278,286  Z"/>

<path  fill="#267EFF" stroke-width="0" stroke="#267EFF" d = " M279 329 L279,334 C279,335.604 282.968,334 284.5,334 291.876,334 298.311,326 302,326 302,319.22 305.719,308.39 292.5,315 289.786,316.357 289.062,320 286,320 286,320 285,321 285,321 285,321 284,322 284,322 284,322 282,325 282,325 282,325 280,328 280,328 280,328 279,329 279,329  Z"/>

<path  fill="#267EFF" stroke-width="0" stroke="#267EFF" d = " M205 328 C205,329.744 205,330.967 205,333 203.057,333 201.625,335 200.5,335 200.5,335 198.5,333 198.5,333 194.944,331.222 191.016,329.758 187.5,328 187.5,328 183,322 183,322 183,314.162 197,315.079 197,318 197,319.408 198.197,323 200,323 200,324.896 202.077,327 204,327 204,327 205,328 205,328  Z"/>

<path  fill-rule="evenodd" fill="#FAAA40" stroke-width="0" stroke="#FAAA40" d = " M253 337 C253,338.827 261,338.105 261,337.5 L253,337  M243 336 C243,337.473 241.048,337 240,337 240,337 227.5,338 227.5,338 223.983,336.242 208,328.351 208,325 208,325 203,320 203,320 203,320 197,318 197,318 197,319.408 198.197,323 200,323 201.124,323 204,326.189 204,327 204,327 205,328 205,328 207.971,328 207.971,333 205,333 205,333.464 211.493,336.496 212.5,337 212.5,337 215.5,340 215.5,340 217.201,340.851 237.385,343.058 239.5,342 241.829,340.836 245.279,340 248,340 251.26,340 259.264,343.118 261.5,342 265.661,339.92 274.461,334 279,334 279,334 279,329 279,329 279,329 280,328 280,328 280,328 282,325 282,325 282,325 279,324 279,324 276.686,324 279.837,325.331 278.5,326 278.5,326 273.5,327 273.5,327 270.478,328.511 268.109,332.195 264.5,334 264.5,334 249.5,334 249.5,334 249.5,334 243,336 243,336  Z"/>

<path  fill="#FAAA40" stroke-width="0" stroke="#FAAA40" d = " M285 321 L284,322 C284,322 285,321 285,321  Z"/>

<path  fill-rule="evenodd" fill="#FA8072" stroke-width="0" stroke="#FA8072" d = " M301 358 C301,359.688 302,362.235 302,364.5 L302.5,369 L303,363.5 C303,360.713 306.591,358 301,358  M313 342 L315,343 C315,346.884 322.455,355 326.5,355 328,355 329.444,351.972 331.5,353 334.148,354.324 337.876,357.749 336,361.5 334.43,364.64 328.864,363.773 328,365.5 328,365.5 329,373.5 329,373.5 327.55,376.399 323.141,376.218 322,378.5 319.965,382.571 321.212,383.644 316.5,386 313.992,387.254 311.509,383 309.5,383 307.193,383 305.427,384.037 303.5,385 302.63,385.435 300.985,382.758 296.5,385 295.375,385.562 289.64,377.78 289,376.5 289,376.5 289,371.5 289,371.5 288.173,369.845 283.375,370.251 282,367.5 280.806,365.112 282.668,360.836 282,359.5 281.338,358.176 280.103,355.294 281,353.5 283.033,349.434 286.554,350.473 289.5,349 289.5,349 292.5,345 292.5,345 295.172,343.664 300.872,346.814 302.5,346 302.5,346 305.5,342 305.5,342 306.253,342 313,344.815 313,342  Z"/>

<path  fill="#FA8072" stroke-width="0" stroke="#FA8072" d = " M182 344 C182,345.951 179.546,344.477 178.5,345 175.347,346.577 173.179,348.66 170.5,350 166.495,352.002 168.825,359 167.5,359 L166.5,356 C165.507,356 157.173,355.154 156,357.5 L157,361.5 C156.365,362.77 152.747,367.624 157.5,370 L161,371.5 C161.827,373.155 160.118,374.809 162.5,376 165.956,377.728 167.41,373 168.5,373 171.244,373 167.071,377.641 168,379.5 L174.5,386 C177.916,387.708 182.235,385.632 185.5,384 188.009,382.745 194.061,385.72 197.5,384 205.56,379.97 200.576,375.538 195.5,373 L195.5,370 L199.5,371 C202.03,369.735 205.367,362.933 201.5,361 200.222,360.361 195.128,360.756 195,360.5 192.98,356.459 197.921,349.711 192.5,347 L187.5,346 C185.416,344.958 184.592,344 182,344  Z"/>

<path  fill="#FA8072" stroke-width="0" stroke="#FA8072" d = " M146 353 C146,361.818 157.165,355.333 152.5,353 L146,353  Z"/>

<path  fill="#FA8072" stroke-width="0" stroke="#FA8072" d = " M348 354 L347,355.5 L351,356.5 L342.5,362 C340.695,362.903 340.817,357.866 339,361.5 338.054,363.392 337,370.554 337,372.5 L339,373.5 C339,376.438 338.105,375.303 341.5,377 343.03,377.765 341.219,380.859 343.5,382 346.481,383.49 344.755,378.372 345.5,378 349.244,376.128 350.873,373.313 353.5,372 357.018,370.241 360.461,372.579 363,367.5 363.273,366.954 356.976,355.476 356.5,355 L355.5,354 L348,354  Z"/>

<path  fill="#FA8072" stroke-width="0" stroke="#FA8072" d = " M137 360 C137,363.495 124.967,360.565 123,364.5 122.17,366.16 128.805,373.653 129.5,374 L134.5,373 C135.217,373.358 138.427,378.463 141.5,380 144.893,381.696 146.37,374 147.5,374 161.975,374 145.027,360 137,360  Z"/>

<path  fill="#FA8072" stroke-width="0" stroke="#FA8072" d = " M349 382 C349,382.755 343.823,387.147 346,391.5 346.96,393.419 348.182,392.341 349.5,393 L351.5,397 C354.286,398.393 353.233,396 354.5,396 L356.5,399 L359.5,399 L360.5,403 C362.101,403.801 364.142,403.679 365.5,403 368.513,401.494 368.23,394.96 367,392.5 L363,389.5 C362.239,387.978 362.383,384.941 360.5,384 355.838,381.669 354.525,387 354.5,387 L354,383.5 C353.489,382.478 350.174,382 349,382  Z"/>

<path  fill="#FA8072" stroke-width="0" stroke="#FA8072" d = " M125 390 C125,395.142 121.186,399.871 124,405.5 126.379,410.258 128.601,404 129.5,404 133.072,404 136.824,402.851 139,398.5 140.197,396.106 137.981,389.26 134.5,391 132.953,391.774 131.785,394.143 129.5,393 126.864,391.682 128.563,390 125,390  Z"/>

</g>
</svg>
