<svg xmlns="http://www.w3.org/2000/svg" xmlns:xlink="http://www.w3.org/1999/xlink" height="512" width="512">
<g>
<rect width="512" height="512" fill="#000000"  stroke-width="0" /> 
<path  fill="#CED307" stroke-width="0" stroke="#CED307" d = " M257 187 C251.741,187 249.029,174.442 251,170.5 259.091,154.318 257.519,150.491 274.5,142 L282.5,139 C288.159,141.83 300.695,141.097 308.5,145 L311.5,149 C322.488,154.494 327,162.227 327,176 327,178.859 327.906,187.297 324.5,189 319.671,191.415 310.131,187 305,187 302.636,187 301.947,184 300,184 300,173.612 276.503,177.499 271.5,180 271.5,180 266,184 266,184 262.717,184 259.99,187 257,187  Z"/>

<path  fill="#CED307" stroke-width="0" stroke="#CED307" d = " M224 182 C226.707,182 229.903,183 232,183 232,178.253 240.409,174.318 237,167.5 233.739,160.979 229.921,153.343 227,147.5 227,147.5 217.5,145 217.5,145 203.879,138.189 192.349,145.576 177.5,153 170.332,156.584 161.583,172.667 165,179.5 165,179.5 165.5,185 165.5,185 173.882,189.191 184.339,180 189,180 189,175.743 213.115,171.807 217.5,174 217.5,174 221,178.5 221,178.5 221,178.5 224,182 224,182  Z"/>

<path  fill="#0F6DE6" stroke-width="0" stroke="#0F6DE6" d = " M189 182 L193.5,189 C203.105,193.803 214.012,193.475 219,183.5 219.801,181.897 224,186.026 224,182 224,182 221,178.5 221,178.5 221,178.5 217.5,174 217.5,174 213.115,171.807 189,175.743 189,180 189,180 189,182 189,182  Z"/>

<path  fill="#0F6DE6" stroke-width="0" stroke="#0F6DE6" d = " M266 184 L271.5,180 C276.503,177.499 300,173.612 300,184 300,194.379 290.826,188.837 284.5,192 284.5,192 281.5,196 281.5,196 276.285,198.608 266,186.74 266,184  Z"/>

<path  fill="#FF8700" stroke-width="0" stroke="#FF8700" d = " M217 276 L219,277 C224.732,277 233.102,277.296 236,271.5 238.334,266.833 234.771,261.957 237,257.5 245.068,241.364 241,217.16 241,200 241,196.69 241.372,193.245 240,190.5 240,190.5 232,183 232,183 229.903,183 226.707,182 224,182 224,186.026 219.801,181.897 219,183.5 214.012,193.475 203.105,193.803 193.5,189 193.5,189 189,182 189,182 189,185.033 182.403,189.694 181,192.5 177.377,199.746 169.437,209.374 174,218.5 174,218.5 174,223.5 174,223.5 180.914,237.329 187.676,251.176 199,262.5 199,262.5 209.5,273 209.5,273 211.309,273.905 216,272.097 216,276 216,276 217,276 217,276  Z"/>

<path  fill="#FF8700" stroke-width="0" stroke="#FF8700" d = " M247 206 L247,233.5 C246.405,234.69 245.174,236.847 246,238.5 248.502,243.505 244.073,253.647 247,259.5 L249,261.5 C249,264.671 251.068,276.284 254.5,278 258.279,279.89 265.689,280 269,280 280.077,280 297.339,259.823 302,250.5 302,250.5 308,244.5 308,244.5 310.116,240.268 309.923,234.655 312,230.5 312.991,228.518 318.074,220.648 317,218.5 314.934,214.368 305,190.389 305,187 302.636,187 301.947,184 300,184 300,194.379 290.826,188.837 284.5,192 284.5,192 281.5,196 281.5,196 276.285,198.608 266,186.74 266,184 262.717,184 259.99,187 257,187 257,187.575 247,202.948 247,206  Z"/>

<path  fill="#FFE300" stroke-width="0" stroke="#FFE300" d = " M219 277 C219,279.888 233.94,278.621 235,276.5 L240,268.5 C240,266.426 238.731,266.038 240,263.5 240.594,262.312 239.982,257 242.5,257 L244.5,261 C247.649,264.149 248.942,272.385 251,276.5 253.629,281.759 269,287.491 269,280 265.689,280 258.279,279.89 254.5,278 251.068,276.284 249,264.671 249,261.5 249,261.5 247,259.5 247,259.5 244.073,253.647 248.502,243.505 246,238.5 245.174,236.847 246.405,234.69 247,233.5 247,233.5 247,206 247,206 240.112,206 243.09,200 241,200 241,217.16 245.068,241.364 237,257.5 234.771,261.957 238.334,266.833 236,271.5 233.102,277.296 224.732,277 219,277  Z"/>

<path  fill="#FFE300" stroke-width="0" stroke="#FFE300" d = " M216 276 L217,276 C217,277.186 216,277.186 216,276  Z"/>

<path  fill="#FA8072" stroke-width="0" stroke="#FA8072" d = " M188 284 L186,285.5 C183.663,290.174 196.058,288.279 189.5,285 L188,284  Z"/>

<path  fill="#FA8072" stroke-width="0" stroke="#FA8072" d = " M192 287 C192,290.746 194.091,287 192,287  Z"/>

<path  fill="#30DA00" stroke-width="0" stroke="#30DA00" d = " M309 288 C309,288.761 296.847,293.194 300,299.5 L302.5,303 C306.679,303 318.934,301.632 321,297.5 321.507,296.485 322.935,289.717 321.5,289 320.038,288.269 318.064,288.782 316.5,288 L309,288  Z"/>

<path  fill="#30DA00" stroke-width="0" stroke="#30DA00" d = " M181 293 L177,295.5 L177,302.5 C179.551,307.602 189.626,309.937 195.5,307 L197.5,304 L200,303.5 C202.335,298.83 193.997,294 189,294 L181,293  Z"/>

<path  fill="#FA8072" stroke-width="0" stroke="#FA8072" d = " M306 306 L305,310.5 C307.452,315.403 314.407,306 306,306  Z"/>

<path  fill="#FA8072" stroke-width="0" stroke="#FA8072" d = " M190 309 C190,312.746 192.091,309 190,309  Z"/>

<path  fill="#FA8072" stroke-width="0" stroke="#FA8072" d = " M192 310 C192,315.567 194.112,310 192,310  Z"/>

<path  fill="#FA8072" stroke-width="0" stroke="#FA8072" d = " M294 369 C294,369.982 290.702,371.601 289.5,371 286.655,369.577 282.738,371.025 281,374.5 280.306,375.888 281.474,393.447 282,394.5 L289,397.5 L289.5,403 C291.233,403.867 293.244,401.628 294.5,401 296.396,400.052 300.763,404.974 302,402.5 303.642,399.216 298.93,389 305.5,389 311.86,389 305.806,396.111 306,396.5 L310.5,397 L313.5,398 C315.734,396.883 326.593,390.547 319.5,387 L316,385.5 C313.762,381.024 311.027,379.264 306.5,377 304.396,375.948 303.83,379 302.5,379 L302,373.5 C300.548,370.596 296.864,369 294,369  Z"/>

<path  fill="#FA8072" stroke-width="0" stroke="#FA8072" d = " M195 373 L192,375.5 C185.36,388.78 183.551,379.398 178,390.5 176.808,392.885 170.316,393.133 173,398.5 177.029,406.558 183.232,394.866 183.5,395 L185.5,398 C192.34,398 185.114,394.307 194.5,399 196.748,400.124 198.899,394.699 201.5,396 205.558,398.029 207.929,404.786 213.5,402 220.606,398.447 212,392.56 212,389 L216,383.5 C211.345,374.189 204.869,373 195,373  Z"/>

</g>
</svg>
